{
  "name": "SimpleShuffle.S643.bcs",
  "tempo": 132,
  "timeSignature": "4/4",
  "ticksPerQuarter": 1920,
  "sffType": "SFF1",
  "division": "EIGHTH_SHUFFLE",
  "parts": {
    "Main_A": {
      "type": "Main_A",
      "sizeInBeats": 16,
      "channels": {
        "0": {
          "ctab": {
            "srcChannel": 0,
            "name": "CC Crash",
            "accType": "RHYTHM",
            "editable": true,
            "mutedNotes": [],
            "mutedChords": [
              "1+2+5",
              "sus4",
              "1+5",
              "1+8",
              "7aug",
              "Maj7aug",
              "7(#9)",
              "7(b13)",
              "7(b9)",
              "7(13)",
              "7#11",
              "7(9)",
              "7b5",
              "7sus4",
              "7th",
              "dim7",
              "dim",
              "minMaj7(9)",
              "minMaj7",
              "min7(11)",
              "min7(9)",
              "min(9)",
              "m7b5",
              "min7",
              "min6",
              "min",
              "aug",
              "Maj6(9)",
              "Maj7(9)",
              "Maj(9)",
              "Maj7#11",
              "Maj7",
              "Maj6",
              "Maj"
            ],
            "autoStart": true,
            "sourceChordNote": 0,
            "sourceChordType": "Maj7",
            "ctb2Low": null,
            "ctb2Main": {
              "ntr": "ROOT_FIXED",
              "ntt": "BYPASS",
              "bassOn": false,
              "chordRootUpperLimit": 6,
              "noteLowLimit": 0,
              "noteHighLimit": 127,
              "rtr": "RETRIGGER"
            },
            "ctb2High": null
          },
          "notes": []
        },
        "2": {
          "ctab": {
            "srcChannel": 2,
            "name": "Bas4Note",
            "accType": "BASS",
            "editable": false,
            "mutedNotes": [],
            "mutedChords": [
              "1+2+5",
              "sus4",
              "1+5",
              "1+8",
              "7aug",
              "Maj7aug",
              "dim",
              "minMaj7(9)",
              "minMaj7",
              "min(9)",
              "m7b5",
              "min",
              "aug"
            ],
            "autoStart": false,
            "sourceChordNote": 0,
            "sourceChordType": "Maj7",
            "ctb2Low": null,
            "ctb2Main": {
              "ntr": "ROOT_TRANSPOSITION",
              "ntt": "MELODY",
              "bassOn": true,
              "chordRootUpperLimit": 10,
              "noteLowLimit": 28,
              "noteHighLimit": 127,
              "rtr": "PITCH_SHIFT_TO_ROOT"
            },
            "ctb2High": null
          },
          "notes": [
            {
              "pitch": 24,
              "velocity": 70,
              "position": 0,
              "duration": 0.65625
            },
            {
              "pitch": 24,
              "velocity": 100,
              "position": 0.6666666666666666,
              "duration": 0.3229166666666667
            },
            {
              "pitch": 24,
              "velocity": 62,
              "position": 1,
              "duration": 0.6666666666666666
            },
            {
              "pitch": 31,
              "velocity": 67,
              "position": 2,
              "duration": 0.6666666666666666
            },
            {
              "pitch": 31,
              "velocity": 60,
              "position": 3,
              "duration": 0.6145833333333334
            },
            {
              "pitch": 31,
              "velocity": 50,
              "position": 3.6666666666666665,
              "duration": 0.3229166666666667
            },
            {
              "pitch": 24,
              "velocity": 70,
              "position": 4,
              "duration": 0.6145833333333334
            },
            {
              "pitch": 24,
              "velocity": 100,
              "position": 4.666666666666667,
              "duration": 0.3229166666666667
            },
            {
              "pitch": 24,
              "velocity": 62,
              "position": 5,
              "duration": 0.8020833333333334
            },
            {
              "pitch": 31,
              "velocity": 67,
              "position": 6,
              "duration": 0.6666666666666666
            },
            {
              "pitch": 31,
              "velocity": 60,
              "position": 7,
              "duration": 0.6145833333333334
            },
            {
              "pitch": 31,
              "velocity": 40,
              "position": 7.666666666666667,
              "duration": 0.3229166666666667
            },
            {
              "pitch": 24,
              "velocity": 70,
              "position": 8,
              "duration": 0.6145833333333334
            },
            {
              "pitch": 24,
              "velocity": 62,
              "position": 9,
              "duration": 0.6458333333333334
            },
            {
              "pitch": 31,
              "velocity": 67,
              "position": 10,
              "duration": 0.6354166666666666
            },
            {
              "pitch": 31,
              "velocity": 60,
              "position": 11,
              "duration": 0.59375
            },
            {
              "pitch": 31,
              "velocity": 30,
              "position": 11.666666666666666,
              "duration": 0.2708333333333333
            },
            {
              "pitch": 24,
              "velocity": 70,
              "position": 12,
              "duration": 0.6145833333333334
            },
            {
              "pitch": 24,
              "velocity": 110,
              "position": 12.666666666666666,
              "duration": 0.3229166666666667
            },
            {
              "pitch": 24,
              "velocity": 62,
              "position": 13,
              "duration": 0.625
            },
            {
              "pitch": 24,
              "velocity": 100,
              "position": 13.666666666666666,
              "duration": 0.3229166666666667
            },
            {
              "pitch": 31,
              "velocity": 67,
              "position": 14,
              "duration": 0.6666666666666666
            },
            {
              "pitch": 33,
              "velocity": 60,
              "position": 15,
              "duration": 0.65625
            },
            {
              "pitch": 31,
              "velocity": 50,
              "position": 15.666666666666666,
              "duration": 0.3229166666666667
            }
          ]
        },
        "3": {
          "ctab": {
            "srcChannel": 3,
            "name": "Bas3Note",
            "accType": "BASS",
            "editable": false,
            "mutedNotes": [],
            "mutedChords": [
              "7(#9)",
              "7(b13)",
              "7(b9)",
              "7(13)",
              "7#11",
              "7(9)",
              "7b5",
              "7sus4",
              "7th",
              "dim7",
              "min7(11)",
              "min7(9)",
              "min7",
              "min6",
              "Maj6(9)",
              "Maj7(9)",
              "Maj(9)",
              "Maj7#11",
              "Maj7",
              "Maj6",
              "Maj"
            ],
            "autoStart": false,
            "sourceChordNote": 0,
            "sourceChordType": "Maj7",
            "ctb2Low": null,
            "ctb2Main": {
              "ntr": "ROOT_TRANSPOSITION",
              "ntt": "MELODY",
              "bassOn": true,
              "chordRootUpperLimit": 0,
              "noteLowLimit": 28,
              "noteHighLimit": 127,
              "rtr": "PITCH_SHIFT_TO_ROOT"
            },
            "ctb2High": null
          },
          "notes": [
            {
              "pitch": 36,
              "velocity": 70,
              "position": 0,
              "duration": 0.65625
            },
            {
              "pitch": 36,
              "velocity": 100,
              "position": 0.6666666666666666,
              "duration": 0.3229166666666667
            },
            {
              "pitch": 36,
              "velocity": 62,
              "position": 1,
              "duration": 0.6666666666666666
            },
            {
              "pitch": 43,
              "velocity": 67,
              "position": 2,
              "duration": 0.6666666666666666
            },
            {
              "pitch": 43,
              "velocity": 60,
              "position": 3,
              "duration": 0.6145833333333334
            },
            {
              "pitch": 43,
              "velocity": 30,
              "position": 3.6666666666666665,
              "duration": 0.3229166666666667
            },
            {
              "pitch": 36,
              "velocity": 70,
              "position": 4,
              "duration": 0.6145833333333334
            },
            {
              "pitch": 36,
              "velocity": 100,
              "position": 4.666666666666667,
              "duration": 0.3229166666666667
            },
            {
              "pitch": 36,
              "velocity": 62,
              "position": 5,
              "duration": 0.8020833333333334
            },
            {
              "pitch": 43,
              "velocity": 67,
              "position": 6,
              "duration": 0.6666666666666666
            },
            {
              "pitch": 31,
              "velocity": 60,
              "position": 7,
              "duration": 0.6145833333333334
            },
            {
              "pitch": 43,
              "velocity": 40,
              "position": 7.666666666666667,
              "duration": 0.3229166666666667
            },
            {
              "pitch": 36,
              "velocity": 70,
              "position": 8,
              "duration": 0.6145833333333334
            },
            {
              "pitch": 36,
              "velocity": 62,
              "position": 9,
              "duration": 0.6458333333333334
            },
            {
              "pitch": 43,
              "velocity": 67,
              "position": 10,
              "duration": 0.6354166666666666
            },
            {
              "pitch": 31,
              "velocity": 60,
              "position": 11,
              "duration": 0.59375
            },
            {
              "pitch": 43,
              "velocity": 30,
              "position": 11.666666666666666,
              "duration": 0.2708333333333333
            },
            {
              "pitch": 36,
              "velocity": 70,
              "position": 12,
              "duration": 0.6145833333333334
            },
            {
              "pitch": 36,
              "velocity": 110,
              "position": 12.666666666666666,
              "duration": 0.3229166666666667
            },
            {
              "pitch": 36,
              "velocity": 62,
              "position": 13,
              "duration": 0.625
            },
            {
              "pitch": 36,
              "velocity": 100,
              "position": 13.666666666666666,
              "duration": 0.3229166666666667
            },
            {
              "pitch": 43,
              "velocity": 67,
              "position": 14,
              "duration": 0.6666666666666666
            },
            {
              "pitch": 40,
              "velocity": 60,
              "position": 15,
              "duration": 0.65625
            },
            {
              "pitch": 43,
              "velocity": 50,
              "position": 15.666666666666666,
              "duration": 0.3229166666666667
            }
          ]
        },
        "6": {
          "ctab": {
            "srcChannel": 6,
            "name": "Organ",
            "accType": "PAD",
            "editable": false,
            "mutedNotes": [],
            "mutedChords": [],
            "autoStart": false,
            "sourceChordNote": 0,
            "sourceChordType": "Maj7",
            "ctb2Low": null,
            "ctb2Main": {
              "ntr": "ROOT_FIXED",
              "ntt": "CHORD",
              "bassOn": false,
              "chordRootUpperLimit": 7,
              "noteLowLimit": 0,
              "noteHighLimit": 127,
              "rtr": "PITCH_SHIFT"
            },
            "ctb2High": null
          },
          "notes": [
            {
              "pitch": 67,
              "velocity": 74,
              "position": 0,
              "duration": 15.989583333333334
            },
            {
              "pitch": 71,
              "velocity": 74,
              "position": 0,
              "duration": 15.989583333333334
            },
            {
              "pitch": 76,
              "velocity": 74,
              "position": 0,
              "duration": 15.989583333333334
            }
          ]
        },
        "7": {
          "ctab": {
            "srcChannel": 7,
            "name": "OrgRoot",
            "accType": "PAD",
            "editable": false,
            "mutedNotes": [],
            "mutedChords": [
              "1+2+5",
              "sus4",
              "1+5",
              "1+8",
              "Maj7aug",
              "dim",
              "minMaj7(9)",
              "minMaj7",
              "min6",
              "min",
              "aug",
              "Maj7(9)",
              "Maj7#11",
              "Maj7",
              "Maj6",
              "Maj"
            ],
            "autoStart": false,
            "sourceChordNote": 0,
            "sourceChordType": "Maj7",
            "ctb2Low": null,
            "ctb2Main": {
              "ntr": "ROOT_TRANSPOSITION",
              "ntt": "CHORD",
              "bassOn": false,
              "chordRootUpperLimit": 6,
              "noteLowLimit": 0,
              "noteHighLimit": 127,
              "rtr": "PITCH_SHIFT"
            },
            "ctb2High": null
          },
          "notes": [
            {
              "pitch": 72,
              "velocity": 74,
              "position": 0,
              "duration": 15.989583333333334
            }
          ]
        },
        "8": {
          "ctab": {
            "srcChannel": 8,
            "name": "Perc",
            "accType": "SUBRHYTHM",
            "editable": false,
            "mutedNotes": [],
            "mutedChords": [],
            "autoStart": true,
            "sourceChordNote": 0,
            "sourceChordType": "Maj7",
            "ctb2Low": null,
            "ctb2Main": {
              "ntr": "ROOT_FIXED",
              "ntt": "BYPASS",
              "bassOn": false,
              "chordRootUpperLimit": 6,
              "noteLowLimit": 0,
              "noteHighLimit": 127,
              "rtr": "PITCH_SHIFT"
            },
            "ctb2High": null
          },
          "notes": [
            {
              "pitch": 54,
              "velocity": 60,
              "position": 0,
              "duration": 0.010416666666666666
            },
            {
              "pitch": 54,
              "velocity": 14,
              "position": 0.6875,
              "duration": 0.010416666666666666
            },
            {
              "pitch": 39,
              "velocity": 74,
              "position": 1,
              "duration": 0.010416666666666666
            },
            {
              "pitch": 54,
              "velocity": 105,
              "position": 1,
              "duration": 0.010416666666666666
            },
            {
              "pitch": 54,
              "velocity": 14,
              "position": 1.6875,
              "duration": 0.010416666666666666
            },
            {
              "pitch": 54,
              "velocity": 60,
              "position": 2,
              "duration": 0.010416666666666666
            },
            {
              "pitch": 54,
              "velocity": 14,
              "position": 2.6875,
              "duration": 0.010416666666666666
            },
            {
              "pitch": 39,
              "velocity": 74,
              "position": 3,
              "duration": 0.010416666666666666
            },
            {
              "pitch": 54,
              "velocity": 105,
              "position": 3,
              "duration": 0.010416666666666666
            },
            {
              "pitch": 54,
              "velocity": 14,
              "position": 3.6875,
              "duration": 0.010416666666666666
            },
            {
              "pitch": 54,
              "velocity": 60,
              "position": 4,
              "duration": 0.010416666666666666
            },
            {
              "pitch": 54,
              "velocity": 14,
              "position": 4.6875,
              "duration": 0.010416666666666666
            },
            {
              "pitch": 39,
              "velocity": 74,
              "position": 5,
              "duration": 0.010416666666666666
            },
            {
              "pitch": 54,
              "velocity": 105,
              "position": 5,
              "duration": 0.010416666666666666
            },
            {
              "pitch": 54,
              "velocity": 14,
              "position": 5.6875,
              "duration": 0.010416666666666666
            },
            {
              "pitch": 54,
              "velocity": 60,
              "position": 6,
              "duration": 0.010416666666666666
            },
            {
              "pitch": 54,
              "velocity": 14,
              "position": 6.6875,
              "duration": 0.010416666666666666
            },
            {
              "pitch": 39,
              "velocity": 74,
              "position": 7,
              "duration": 0.010416666666666666
            },
            {
              "pitch": 54,
              "velocity": 105,
              "position": 7,
              "duration": 0.010416666666666666
            },
            {
              "pitch": 54,
              "velocity": 14,
              "position": 7.6875,
              "duration": 0.010416666666666666
            },
            {
              "pitch": 54,
              "velocity": 60,
              "position": 8,
              "duration": 0.010416666666666666
            },
            {
              "pitch": 54,
              "velocity": 14,
              "position": 8.6875,
              "duration": 0.010416666666666666
            },
            {
              "pitch": 39,
              "velocity": 74,
              "position": 9,
              "duration": 0.010416666666666666
            },
            {
              "pitch": 54,
              "velocity": 105,
              "position": 9,
              "duration": 0.010416666666666666
            },
            {
              "pitch": 54,
              "velocity": 14,
              "position": 9.6875,
              "duration": 0.010416666666666666
            },
            {
              "pitch": 54,
              "velocity": 60,
              "position": 10,
              "duration": 0.010416666666666666
            },
            {
              "pitch": 54,
              "velocity": 14,
              "position": 10.6875,
              "duration": 0.010416666666666666
            },
            {
              "pitch": 39,
              "velocity": 74,
              "position": 11,
              "duration": 0.010416666666666666
            },
            {
              "pitch": 54,
              "velocity": 105,
              "position": 11,
              "duration": 0.010416666666666666
            },
            {
              "pitch": 54,
              "velocity": 14,
              "position": 11.6875,
              "duration": 0.010416666666666666
            },
            {
              "pitch": 54,
              "velocity": 60,
              "position": 12,
              "duration": 0.010416666666666666
            },
            {
              "pitch": 54,
              "velocity": 14,
              "position": 12.6875,
              "duration": 0.010416666666666666
            },
            {
              "pitch": 39,
              "velocity": 74,
              "position": 13,
              "duration": 0.010416666666666666
            },
            {
              "pitch": 54,
              "velocity": 105,
              "position": 13,
              "duration": 0.010416666666666666
            },
            {
              "pitch": 54,
              "velocity": 14,
              "position": 13.6875,
              "duration": 0.010416666666666666
            },
            {
              "pitch": 54,
              "velocity": 60,
              "position": 14,
              "duration": 0.010416666666666666
            },
            {
              "pitch": 54,
              "velocity": 14,
              "position": 14.6875,
              "duration": 0.010416666666666666
            },
            {
              "pitch": 39,
              "velocity": 74,
              "position": 15,
              "duration": 0.010416666666666666
            },
            {
              "pitch": 54,
              "velocity": 105,
              "position": 15,
              "duration": 0.010416666666666666
            },
            {
              "pitch": 54,
              "velocity": 14,
              "position": 15.6875,
              "duration": 0.010416666666666666
            }
          ]
        },
        "9": {
          "ctab": {
            "srcChannel": 9,
            "name": "Rhyth2",
            "accType": "RHYTHM",
            "editable": false,
            "mutedNotes": [],
            "mutedChords": [],
            "autoStart": true,
            "sourceChordNote": 0,
            "sourceChordType": "Maj7",
            "ctb2Low": null,
            "ctb2Main": {
              "ntr": "ROOT_FIXED",
              "ntt": "BYPASS",
              "bassOn": false,
              "chordRootUpperLimit": 6,
              "noteLowLimit": 0,
              "noteHighLimit": 127,
              "rtr": "PITCH_SHIFT"
            },
            "ctb2High": null
          },
          "notes": [
            {
              "pitch": 36,
              "velocity": 80,
              "position": 0,
              "duration": 0.010416666666666666
            },
            {
              "pitch": 40,
              "velocity": 45,
              "position": 0,
              "duration": 0.010416666666666666
            },
            {
              "pitch": 40,
              "velocity": 21,
              "position": 0.6875,
              "duration": 0.010416666666666666
            },
            {
              "pitch": 40,
              "velocity": 80,
              "position": 1,
              "duration": 0.010416666666666666
            },
            {
              "pitch": 40,
              "velocity": 21,
              "position": 1.6875,
              "duration": 0.010416666666666666
            },
            {
              "pitch": 36,
              "velocity": 80,
              "position": 2,
              "duration": 0.010416666666666666
            },
            {
              "pitch": 40,
              "velocity": 45,
              "position": 2,
              "duration": 0.010416666666666666
            },
            {
              "pitch": 40,
              "velocity": 21,
              "position": 2.6875,
              "duration": 0.010416666666666666
            },
            {
              "pitch": 40,
              "velocity": 80,
              "position": 3,
              "duration": 0.010416666666666666
            },
            {
              "pitch": 40,
              "velocity": 21,
              "position": 3.6875,
              "duration": 0.010416666666666666
            },
            {
              "pitch": 36,
              "velocity": 80,
              "position": 4,
              "duration": 0.010416666666666666
            },
            {
              "pitch": 40,
              "velocity": 45,
              "position": 4,
              "duration": 0.010416666666666666
            },
            {
              "pitch": 40,
              "velocity": 21,
              "position": 4.6875,
              "duration": 0.010416666666666666
            },
            {
              "pitch": 40,
              "velocity": 80,
              "position": 5,
              "duration": 0.010416666666666666
            },
            {
              "pitch": 40,
              "velocity": 21,
              "position": 5.6875,
              "duration": 0.010416666666666666
            },
            {
              "pitch": 36,
              "velocity": 80,
              "position": 6,
              "duration": 0.010416666666666666
            },
            {
              "pitch": 40,
              "velocity": 45,
              "position": 6,
              "duration": 0.010416666666666666
            },
            {
              "pitch": 40,
              "velocity": 21,
              "position": 6.6875,
              "duration": 0.010416666666666666
            },
            {
              "pitch": 40,
              "velocity": 80,
              "position": 7,
              "duration": 0.010416666666666666
            },
            {
              "pitch": 40,
              "velocity": 21,
              "position": 7.6875,
              "duration": 0.010416666666666666
            },
            {
              "pitch": 36,
              "velocity": 80,
              "position": 8,
              "duration": 0.010416666666666666
            },
            {
              "pitch": 40,
              "velocity": 45,
              "position": 8,
              "duration": 0.010416666666666666
            },
            {
              "pitch": 40,
              "velocity": 21,
              "position": 8.6875,
              "duration": 0.010416666666666666
            },
            {
              "pitch": 40,
              "velocity": 80,
              "position": 9,
              "duration": 0.010416666666666666
            },
            {
              "pitch": 40,
              "velocity": 21,
              "position": 9.6875,
              "duration": 0.010416666666666666
            },
            {
              "pitch": 36,
              "velocity": 80,
              "position": 10,
              "duration": 0.010416666666666666
            },
            {
              "pitch": 40,
              "velocity": 45,
              "position": 10,
              "duration": 0.010416666666666666
            },
            {
              "pitch": 40,
              "velocity": 21,
              "position": 10.6875,
              "duration": 0.010416666666666666
            },
            {
              "pitch": 40,
              "velocity": 80,
              "position": 11,
              "duration": 0.010416666666666666
            },
            {
              "pitch": 40,
              "velocity": 21,
              "position": 11.6875,
              "duration": 0.010416666666666666
            },
            {
              "pitch": 36,
              "velocity": 80,
              "position": 12,
              "duration": 0.010416666666666666
            },
            {
              "pitch": 40,
              "velocity": 45,
              "position": 12,
              "duration": 0.010416666666666666
            },
            {
              "pitch": 40,
              "velocity": 21,
              "position": 12.6875,
              "duration": 0.010416666666666666
            },
            {
              "pitch": 40,
              "velocity": 80,
              "position": 13,
              "duration": 0.010416666666666666
            },
            {
              "pitch": 40,
              "velocity": 21,
              "position": 13.6875,
              "duration": 0.010416666666666666
            },
            {
              "pitch": 36,
              "velocity": 80,
              "position": 14,
              "duration": 0.010416666666666666
            },
            {
              "pitch": 40,
              "velocity": 45,
              "position": 14,
              "duration": 0.010416666666666666
            },
            {
              "pitch": 40,
              "velocity": 21,
              "position": 14.6875,
              "duration": 0.010416666666666666
            },
            {
              "pitch": 40,
              "velocity": 80,
              "position": 15,
              "duration": 0.010416666666666666
            },
            {
              "pitch": 40,
              "velocity": 21,
              "position": 15.6875,
              "duration": 0.010416666666666666
            }
          ]
        },
        "11": {
          "ctab": {
            "srcChannel": 11,
            "name": "Guit SFX",
            "accType": "CHORD1",
            "editable": false,
            "mutedNotes": [],
            "mutedChords": [],
            "autoStart": false,
            "sourceChordNote": 0,
            "sourceChordType": "Maj7",
            "ctb2Low": null,
            "ctb2Main": {
              "ntr": "ROOT_FIXED",
              "ntt": "BYPASS",
              "bassOn": false,
              "chordRootUpperLimit": 7,
              "noteLowLimit": 0,
              "noteHighLimit": 79,
              "rtr": "PITCH_SHIFT"
            },
            "ctb2High": null
          },
          "notes": [
            {
              "pitch": 108,
              "velocity": 85,
              "position": 0,
              "duration": 0.65625
            },
            {
              "pitch": 99,
              "velocity": 115,
              "position": 0.6666666666666666,
              "duration": 0.22916666666666666
            },
            {
              "pitch": 97,
              "velocity": 115,
              "position": 1.6666666666666667,
              "duration": 0.22916666666666666
            },
            {
              "pitch": 99,
              "velocity": 109,
              "position": 2.6666666666666665,
              "duration": 0.22916666666666666
            },
            {
              "pitch": 97,
              "velocity": 109,
              "position": 3.6666666666666665,
              "duration": 0.22916666666666666
            },
            {
              "pitch": 99,
              "velocity": 109,
              "position": 4.666666666666667,
              "duration": 0.22916666666666666
            },
            {
              "pitch": 97,
              "velocity": 115,
              "position": 5.666666666666667,
              "duration": 0.22916666666666666
            },
            {
              "pitch": 99,
              "velocity": 109,
              "position": 6.666666666666667,
              "duration": 0.22916666666666666
            },
            {
              "pitch": 97,
              "velocity": 104,
              "position": 7.666666666666667,
              "duration": 0.22916666666666666
            },
            {
              "pitch": 108,
              "velocity": 85,
              "position": 8,
              "duration": 0.65625
            },
            {
              "pitch": 99,
              "velocity": 115,
              "position": 8.666666666666666,
              "duration": 0.22916666666666666
            },
            {
              "pitch": 97,
              "velocity": 115,
              "position": 9.666666666666666,
              "duration": 0.22916666666666666
            },
            {
              "pitch": 99,
              "velocity": 109,
              "position": 10.666666666666666,
              "duration": 0.22916666666666666
            },
            {
              "pitch": 97,
              "velocity": 95,
              "position": 11.666666666666666,
              "duration": 0.22916666666666666
            },
            {
              "pitch": 99,
              "velocity": 109,
              "position": 12.666666666666666,
              "duration": 0.22916666666666666
            },
            {
              "pitch": 97,
              "velocity": 115,
              "position": 13.666666666666666,
              "duration": 0.22916666666666666
            },
            {
              "pitch": 99,
              "velocity": 109,
              "position": 14.666666666666666,
              "duration": 0.22916666666666666
            },
            {
              "pitch": 97,
              "velocity": 97,
              "position": 15.666666666666666,
              "duration": 0.22916666666666666
            }
          ]
        },
        "12": {
          "ctab": {
            "srcChannel": 12,
            "name": "GtRootTr",
            "accType": "CHORD1",
            "editable": false,
            "mutedNotes": [],
            "mutedChords": [
              "1+2+5",
              "sus4",
              "1+5",
              "1+8",
              "Maj7aug",
              "dim",
              "minMaj7(9)",
              "minMaj7",
              "min6",
              "min",
              "aug",
              "Maj7(9)",
              "Maj7#11",
              "Maj7",
              "Maj6",
              "Maj"
            ],
            "autoStart": false,
            "sourceChordNote": 0,
            "sourceChordType": "Maj7",
            "ctb2Low": null,
            "ctb2Main": {
              "ntr": "ROOT_TRANSPOSITION",
              "ntt": "CHORD",
              "bassOn": false,
              "chordRootUpperLimit": 10,
              "noteLowLimit": 0,
              "noteHighLimit": 127,
              "rtr": "PITCH_SHIFT"
            },
            "ctb2High": null
          },
          "notes": [
            {
              "pitch": 60,
              "velocity": 21,
              "position": 0.014583333333333334,
              "duration": 0.65625
            },
            {
              "pitch": 60,
              "velocity": 22,
              "position": 0.68125,
              "duration": 0.20833333333333334
            },
            {
              "pitch": 60,
              "velocity": 28,
              "position": 1.68125,
              "duration": 0.20833333333333334
            },
            {
              "pitch": 60,
              "velocity": 22,
              "position": 2.68125,
              "duration": 0.20833333333333334
            },
            {
              "pitch": 60,
              "velocity": 22,
              "position": 3.68125,
              "duration": 0.20833333333333334
            },
            {
              "pitch": 60,
              "velocity": 28,
              "position": 4.68125,
              "duration": 0.20833333333333334
            },
            {
              "pitch": 60,
              "velocity": 22,
              "position": 5.68125,
              "duration": 0.20833333333333334
            },
            {
              "pitch": 60,
              "velocity": 28,
              "position": 6.68125,
              "duration": 0.20833333333333334
            },
            {
              "pitch": 60,
              "velocity": 18,
              "position": 7.68125,
              "duration": 0.3229166666666667
            },
            {
              "pitch": 60,
              "velocity": 22,
              "position": 8.014583333333333,
              "duration": 0.65625
            },
            {
              "pitch": 60,
              "velocity": 22,
              "position": 8.68125,
              "duration": 0.20833333333333334
            },
            {
              "pitch": 60,
              "velocity": 28,
              "position": 9.68125,
              "duration": 0.20833333333333334
            },
            {
              "pitch": 60,
              "velocity": 22,
              "position": 10.68125,
              "duration": 0.20833333333333334
            },
            {
              "pitch": 60,
              "velocity": 28,
              "position": 11.68125,
              "duration": 0.20833333333333334
            },
            {
              "pitch": 60,
              "velocity": 22,
              "position": 12.68125,
              "duration": 0.20833333333333334
            },
            {
              "pitch": 60,
              "velocity": 28,
              "position": 13.68125,
              "duration": 0.20833333333333334
            },
            {
              "pitch": 60,
              "velocity": 22,
              "position": 14.68125,
              "duration": 0.20833333333333334
            },
            {
              "pitch": 60,
              "velocity": 14,
              "position": 15.68125,
              "duration": 0.3104166666666667
            }
          ]
        },
        "13": {
          "ctab": {
            "srcChannel": 13,
            "name": "B2-E3-G3",
            "accType": "CHORD1",
            "editable": false,
            "mutedNotes": [],
            "mutedChords": [],
            "autoStart": false,
            "sourceChordNote": 0,
            "sourceChordType": "Maj7",
            "ctb2Low": null,
            "ctb2Main": {
              "ntr": "ROOT_FIXED",
              "ntt": "CHORD",
              "bassOn": false,
              "chordRootUpperLimit": 7,
              "noteLowLimit": 0,
              "noteHighLimit": 127,
              "rtr": "PITCH_SHIFT"
            },
            "ctb2High": null
          },
          "notes": [
            {
              "pitch": 59,
              "velocity": 21,
              "position": 0,
              "duration": 0.65625
            },
            {
              "pitch": 64,
              "velocity": 21,
              "position": 0.020833333333333332,
              "duration": 0.65625
            },
            {
              "pitch": 67,
              "velocity": 21,
              "position": 0.041666666666666664,
              "duration": 0.6354166666666666
            },
            {
              "pitch": 59,
              "velocity": 22,
              "position": 0.6666666666666666,
              "duration": 0.20833333333333334
            },
            {
              "pitch": 64,
              "velocity": 22,
              "position": 0.6875,
              "duration": 0.20833333333333334
            },
            {
              "pitch": 67,
              "velocity": 22,
              "position": 0.7083333333333334,
              "duration": 0.20833333333333334
            },
            {
              "pitch": 59,
              "velocity": 28,
              "position": 1.6666666666666667,
              "duration": 0.20833333333333334
            },
            {
              "pitch": 64,
              "velocity": 28,
              "position": 1.6875,
              "duration": 0.20833333333333334
            },
            {
              "pitch": 67,
              "velocity": 28,
              "position": 1.7083333333333333,
              "duration": 0.20833333333333334
            },
            {
              "pitch": 59,
              "velocity": 22,
              "position": 2.6666666666666665,
              "duration": 0.20833333333333334
            },
            {
              "pitch": 64,
              "velocity": 22,
              "position": 2.6875,
              "duration": 0.20833333333333334
            },
            {
              "pitch": 67,
              "velocity": 22,
              "position": 2.7083333333333335,
              "duration": 0.20833333333333334
            },
            {
              "pitch": 59,
              "velocity": 22,
              "position": 3.6666666666666665,
              "duration": 0.20833333333333334
            },
            {
              "pitch": 64,
              "velocity": 22,
              "position": 3.6875,
              "duration": 0.20833333333333334
            },
            {
              "pitch": 67,
              "velocity": 22,
              "position": 3.7083333333333335,
              "duration": 0.20833333333333334
            },
            {
              "pitch": 59,
              "velocity": 28,
              "position": 4.666666666666667,
              "duration": 0.20833333333333334
            },
            {
              "pitch": 64,
              "velocity": 28,
              "position": 4.6875,
              "duration": 0.20833333333333334
            },
            {
              "pitch": 67,
              "velocity": 28,
              "position": 4.708333333333333,
              "duration": 0.20833333333333334
            },
            {
              "pitch": 59,
              "velocity": 22,
              "position": 5.666666666666667,
              "duration": 0.20833333333333334
            },
            {
              "pitch": 64,
              "velocity": 22,
              "position": 5.6875,
              "duration": 0.20833333333333334
            },
            {
              "pitch": 67,
              "velocity": 22,
              "position": 5.708333333333333,
              "duration": 0.20833333333333334
            },
            {
              "pitch": 59,
              "velocity": 28,
              "position": 6.666666666666667,
              "duration": 0.20833333333333334
            },
            {
              "pitch": 64,
              "velocity": 28,
              "position": 6.6875,
              "duration": 0.20833333333333334
            },
            {
              "pitch": 67,
              "velocity": 28,
              "position": 6.708333333333333,
              "duration": 0.20833333333333334
            },
            {
              "pitch": 59,
              "velocity": 18,
              "position": 7.666666666666667,
              "duration": 0.3229166666666667
            },
            {
              "pitch": 64,
              "velocity": 18,
              "position": 7.6875,
              "duration": 0.3229166666666667
            },
            {
              "pitch": 67,
              "velocity": 18,
              "position": 7.708333333333333,
              "duration": 0.3229166666666667
            },
            {
              "pitch": 59,
              "velocity": 22,
              "position": 8,
              "duration": 0.65625
            },
            {
              "pitch": 64,
              "velocity": 22,
              "position": 8.020833333333334,
              "duration": 0.65625
            },
            {
              "pitch": 67,
              "velocity": 22,
              "position": 8.041666666666666,
              "duration": 0.65625
            },
            {
              "pitch": 59,
              "velocity": 22,
              "position": 8.666666666666666,
              "duration": 0.20833333333333334
            },
            {
              "pitch": 64,
              "velocity": 22,
              "position": 8.6875,
              "duration": 0.20833333333333334
            },
            {
              "pitch": 67,
              "velocity": 22,
              "position": 8.708333333333334,
              "duration": 0.20833333333333334
            },
            {
              "pitch": 59,
              "velocity": 28,
              "position": 9.666666666666666,
              "duration": 0.20833333333333334
            },
            {
              "pitch": 64,
              "velocity": 28,
              "position": 9.6875,
              "duration": 0.20833333333333334
            },
            {
              "pitch": 67,
              "velocity": 28,
              "position": 9.708333333333334,
              "duration": 0.20833333333333334
            },
            {
              "pitch": 59,
              "velocity": 22,
              "position": 10.666666666666666,
              "duration": 0.20833333333333334
            },
            {
              "pitch": 64,
              "velocity": 22,
              "position": 10.6875,
              "duration": 0.20833333333333334
            },
            {
              "pitch": 67,
              "velocity": 22,
              "position": 10.708333333333334,
              "duration": 0.20833333333333334
            },
            {
              "pitch": 59,
              "velocity": 28,
              "position": 11.666666666666666,
              "duration": 0.20833333333333334
            },
            {
              "pitch": 64,
              "velocity": 28,
              "position": 11.6875,
              "duration": 0.20833333333333334
            },
            {
              "pitch": 67,
              "velocity": 28,
              "position": 11.708333333333334,
              "duration": 0.20833333333333334
            },
            {
              "pitch": 59,
              "velocity": 22,
              "position": 12.666666666666666,
              "duration": 0.20833333333333334
            },
            {
              "pitch": 64,
              "velocity": 22,
              "position": 12.6875,
              "duration": 0.20833333333333334
            },
            {
              "pitch": 67,
              "velocity": 22,
              "position": 12.708333333333334,
              "duration": 0.20833333333333334
            },
            {
              "pitch": 59,
              "velocity": 28,
              "position": 13.666666666666666,
              "duration": 0.20833333333333334
            },
            {
              "pitch": 64,
              "velocity": 28,
              "position": 13.6875,
              "duration": 0.20833333333333334
            },
            {
              "pitch": 67,
              "velocity": 28,
              "position": 13.708333333333334,
              "duration": 0.20833333333333334
            },
            {
              "pitch": 59,
              "velocity": 22,
              "position": 14.666666666666666,
              "duration": 0.20833333333333334
            },
            {
              "pitch": 64,
              "velocity": 22,
              "position": 14.6875,
              "duration": 0.20833333333333334
            },
            {
              "pitch": 67,
              "velocity": 22,
              "position": 14.708333333333334,
              "duration": 0.20833333333333334
            },
            {
              "pitch": 59,
              "velocity": 14,
              "position": 15.666666666666666,
              "duration": 0.3229166666666667
            },
            {
              "pitch": 64,
              "velocity": 14,
              "position": 15.6875,
              "duration": 0.3020833333333333
            },
            {
              "pitch": 67,
              "velocity": 14,
              "position": 15.708333333333334,
              "duration": 0.28125
            }
          ]
        },
        "14": {
          "ctab": {
            "srcChannel": 14,
            "name": "Fifth G2",
            "accType": "CHORD1",
            "editable": false,
            "mutedNotes": [
              6,
              5,
              4,
              3
            ],
            "mutedChords": [],
            "autoStart": false,
            "sourceChordNote": 0,
            "sourceChordType": "Maj7",
            "ctb2Low": null,
            "ctb2Main": {
              "ntr": "ROOT_TRANSPOSITION",
              "ntt": "CHORD",
              "bassOn": false,
              "chordRootUpperLimit": 3,
              "noteLowLimit": 0,
              "noteHighLimit": 127,
              "rtr": "PITCH_SHIFT"
            },
            "ctb2High": null
          },
          "notes": [
            {
              "pitch": 55,
              "velocity": 21,
              "position": 0.010416666666666666,
              "duration": 0.65625
            },
            {
              "pitch": 55,
              "velocity": 22,
              "position": 0.6770833333333334,
              "duration": 0.20833333333333334
            },
            {
              "pitch": 55,
              "velocity": 28,
              "position": 1.6770833333333333,
              "duration": 0.20833333333333334
            },
            {
              "pitch": 55,
              "velocity": 22,
              "position": 2.6770833333333335,
              "duration": 0.20833333333333334
            },
            {
              "pitch": 55,
              "velocity": 22,
              "position": 3.6770833333333335,
              "duration": 0.20833333333333334
            },
            {
              "pitch": 55,
              "velocity": 28,
              "position": 4.677083333333333,
              "duration": 0.20833333333333334
            },
            {
              "pitch": 55,
              "velocity": 22,
              "position": 5.677083333333333,
              "duration": 0.20833333333333334
            },
            {
              "pitch": 55,
              "velocity": 28,
              "position": 6.677083333333333,
              "duration": 0.20833333333333334
            },
            {
              "pitch": 55,
              "velocity": 18,
              "position": 7.677083333333333,
              "duration": 0.3229166666666667
            },
            {
              "pitch": 55,
              "velocity": 22,
              "position": 8.010416666666666,
              "duration": 0.65625
            },
            {
              "pitch": 55,
              "velocity": 22,
              "position": 8.677083333333334,
              "duration": 0.20833333333333334
            },
            {
              "pitch": 55,
              "velocity": 28,
              "position": 9.677083333333334,
              "duration": 0.20833333333333334
            },
            {
              "pitch": 55,
              "velocity": 22,
              "position": 10.677083333333334,
              "duration": 0.20833333333333334
            },
            {
              "pitch": 55,
              "velocity": 28,
              "position": 11.677083333333334,
              "duration": 0.20833333333333334
            },
            {
              "pitch": 55,
              "velocity": 22,
              "position": 12.677083333333334,
              "duration": 0.20833333333333334
            },
            {
              "pitch": 55,
              "velocity": 28,
              "position": 13.677083333333334,
              "duration": 0.20833333333333334
            },
            {
              "pitch": 55,
              "velocity": 22,
              "position": 14.677083333333334,
              "duration": 0.20833333333333334
            },
            {
              "pitch": 55,
              "velocity": 14,
              "position": 15.677083333333334,
              "duration": 0.3125
            }
          ]
        },
        "15": {
          "ctab": {
            "srcChannel": 15,
            "name": "Root C2",
            "accType": "CHORD1",
            "editable": false,
            "mutedNotes": [
              11,
              2,
              1,
              0
            ],
            "mutedChords": [],
            "autoStart": false,
            "sourceChordNote": 0,
            "sourceChordType": "Maj7",
            "ctb2Low": null,
            "ctb2Main": {
              "ntr": "ROOT_TRANSPOSITION",
              "ntt": "CHORD",
              "bassOn": false,
              "chordRootUpperLimit": 10,
              "noteLowLimit": 0,
              "noteHighLimit": 127,
              "rtr": "PITCH_SHIFT"
            },
            "ctb2High": null
          },
          "notes": [
            {
              "pitch": 48,
              "velocity": 21,
              "position": 0,
              "duration": 0.65625
            },
            {
              "pitch": 48,
              "velocity": 22,
              "position": 0.6666666666666666,
              "duration": 0.20833333333333334
            },
            {
              "pitch": 48,
              "velocity": 28,
              "position": 1.6666666666666667,
              "duration": 0.20833333333333334
            },
            {
              "pitch": 48,
              "velocity": 22,
              "position": 2.6666666666666665,
              "duration": 0.20833333333333334
            },
            {
              "pitch": 48,
              "velocity": 22,
              "position": 3.6666666666666665,
              "duration": 0.20833333333333334
            },
            {
              "pitch": 48,
              "velocity": 28,
              "position": 4.666666666666667,
              "duration": 0.20833333333333334
            },
            {
              "pitch": 48,
              "velocity": 22,
              "position": 5.666666666666667,
              "duration": 0.20833333333333334
            },
            {
              "pitch": 48,
              "velocity": 28,
              "position": 6.666666666666667,
              "duration": 0.20833333333333334
            },
            {
              "pitch": 48,
              "velocity": 18,
              "position": 7.666666666666667,
              "duration": 0.3229166666666667
            },
            {
              "pitch": 48,
              "velocity": 22,
              "position": 8,
              "duration": 0.65625
            },
            {
              "pitch": 48,
              "velocity": 22,
              "position": 8.666666666666666,
              "duration": 0.20833333333333334
            },
            {
              "pitch": 48,
              "velocity": 28,
              "position": 9.666666666666666,
              "duration": 0.20833333333333334
            },
            {
              "pitch": 48,
              "velocity": 22,
              "position": 10.666666666666666,
              "duration": 0.20833333333333334
            },
            {
              "pitch": 48,
              "velocity": 28,
              "position": 11.666666666666666,
              "duration": 0.20833333333333334
            },
            {
              "pitch": 48,
              "velocity": 22,
              "position": 12.666666666666666,
              "duration": 0.20833333333333334
            },
            {
              "pitch": 48,
              "velocity": 28,
              "position": 13.666666666666666,
              "duration": 0.20833333333333334
            },
            {
              "pitch": 48,
              "velocity": 22,
              "position": 14.666666666666666,
              "duration": 0.20833333333333334
            },
            {
              "pitch": 48,
              "velocity": 14,
              "position": 15.666666666666666,
              "duration": 0.3229166666666667
            }
          ]
        }
      }
    },
    "Main_B": {
      "type": "Main_B",
      "sizeInBeats": 16,
      "channels": {
        "0": {
          "ctab": {
            "srcChannel": 0,
            "name": "CC Crash",
            "accType": "RHYTHM",
            "editable": true,
            "mutedNotes": [],
            "mutedChords": [
              "1+2+5",
              "sus4",
              "1+5",
              "1+8",
              "7aug",
              "Maj7aug",
              "7(#9)",
              "7(b13)",
              "7(b9)",
              "7(13)",
              "7#11",
              "7(9)",
              "7b5",
              "7sus4",
              "7th",
              "dim7",
              "dim",
              "minMaj7(9)",
              "minMaj7",
              "min7(11)",
              "min7(9)",
              "min(9)",
              "m7b5",
              "min7",
              "min6",
              "min",
              "aug",
              "Maj6(9)",
              "Maj7(9)",
              "Maj(9)",
              "Maj7#11",
              "Maj7",
              "Maj6",
              "Maj"
            ],
            "autoStart": true,
            "sourceChordNote": 0,
            "sourceChordType": "Maj7",
            "ctb2Low": null,
            "ctb2Main": {
              "ntr": "ROOT_FIXED",
              "ntt": "BYPASS",
              "bassOn": false,
              "chordRootUpperLimit": 6,
              "noteLowLimit": 0,
              "noteHighLimit": 127,
              "rtr": "RETRIGGER"
            },
            "ctb2High": null
          },
          "notes": []
        },
        "2": {
          "ctab": {
            "srcChannel": 2,
            "name": "Bas4Note",
            "accType": "BASS",
            "editable": false,
            "mutedNotes": [],
            "mutedChords": [
              "1+2+5",
              "sus4",
              "1+5",
              "1+8",
              "7aug",
              "Maj7aug",
              "dim",
              "minMaj7(9)",
              "minMaj7",
              "min(9)",
              "m7b5",
              "min",
              "aug"
            ],
            "autoStart": false,
            "sourceChordNote": 0,
            "sourceChordType": "Maj7",
            "ctb2Low": null,
            "ctb2Main": {
              "ntr": "ROOT_TRANSPOSITION",
              "ntt": "MELODY",
              "bassOn": true,
              "chordRootUpperLimit": 10,
              "noteLowLimit": 28,
              "noteHighLimit": 127,
              "rtr": "PITCH_SHIFT_TO_ROOT"
            },
            "ctb2High": null
          },
          "notes": [
            {
              "pitch": 24,
              "velocity": 70,
              "position": 0,
              "duration": 0.65625
            },
            {
              "pitch": 24,
              "velocity": 100,
              "position": 0.6666666666666666,
              "duration": 0.3229166666666667
            },
            {
              "pitch": 33,
              "velocity": 60,
              "position": 1,
              "duration": 0.8020833333333334
            },
            {
              "pitch": 31,
              "velocity": 70,
              "position": 2,
              "duration": 0.8020833333333334
            },
            {
              "pitch": 33,
              "velocity": 60,
              "position": 3,
              "duration": 0.65625
            },
            {
              "pitch": 31,
              "velocity": 50,
              "position": 3.6666666666666665,
              "duration": 0.3229166666666667
            },
            {
              "pitch": 36,
              "velocity": 70,
              "position": 4,
              "duration": 0.65625
            },
            {
              "pitch": 24,
              "velocity": 100,
              "position": 4.666666666666667,
              "duration": 0.3229166666666667
            },
            {
              "pitch": 33,
              "velocity": 60,
              "position": 5,
              "duration": 0.8020833333333334
            },
            {
              "pitch": 31,
              "velocity": 70,
              "position": 6,
              "duration": 0.8020833333333334
            },
            {
              "pitch": 33,
              "velocity": 60,
              "position": 7,
              "duration": 0.65625
            },
            {
              "pitch": 31,
              "velocity": 50,
              "position": 7.666666666666667,
              "duration": 0.3229166666666667
            },
            {
              "pitch": 24,
              "velocity": 70,
              "position": 8,
              "duration": 0.65625
            },
            {
              "pitch": 24,
              "velocity": 50,
              "position": 8.666666666666666,
              "duration": 0.19791666666666666
            },
            {
              "pitch": 33,
              "velocity": 64,
              "position": 9,
              "duration": 0.8020833333333334
            },
            {
              "pitch": 31,
              "velocity": 70,
              "position": 10,
              "duration": 0.6354166666666666
            },
            {
              "pitch": 24,
              "velocity": 40,
              "position": 10.666666666666666,
              "duration": 0.15625
            },
            {
              "pitch": 33,
              "velocity": 60,
              "position": 11,
              "duration": 0.65625
            },
            {
              "pitch": 31,
              "velocity": 50,
              "position": 11.666666666666666,
              "duration": 0.3229166666666667
            },
            {
              "pitch": 36,
              "velocity": 70,
              "position": 12,
              "duration": 0.65625
            },
            {
              "pitch": 24,
              "velocity": 110,
              "position": 12.666666666666666,
              "duration": 0.3229166666666667
            },
            {
              "pitch": 33,
              "velocity": 62,
              "position": 13,
              "duration": 0.6458333333333334
            },
            {
              "pitch": 24,
              "velocity": 100,
              "position": 13.666666666666666,
              "duration": 0.3229166666666667
            },
            {
              "pitch": 31,
              "velocity": 70,
              "position": 14,
              "duration": 0.8020833333333334
            },
            {
              "pitch": 33,
              "velocity": 60,
              "position": 15,
              "duration": 0.65625
            },
            {
              "pitch": 31,
              "velocity": 50,
              "position": 15.666666666666666,
              "duration": 0.3229166666666667
            }
          ]
        },
        "3": {
          "ctab": {
            "srcChannel": 3,
            "name": "Bas3Note",
            "accType": "BASS",
            "editable": false,
            "mutedNotes": [],
            "mutedChords": [
              "7(#9)",
              "7(b13)",
              "7(b9)",
              "7(13)",
              "7#11",
              "7(9)",
              "7b5",
              "7sus4",
              "7th",
              "dim7",
              "min7(11)",
              "min7(9)",
              "min7",
              "min6",
              "Maj6(9)",
              "Maj7(9)",
              "Maj(9)",
              "Maj7#11",
              "Maj7",
              "Maj6",
              "Maj"
            ],
            "autoStart": false,
            "sourceChordNote": 0,
            "sourceChordType": "Maj7",
            "ctb2Low": null,
            "ctb2Main": {
              "ntr": "ROOT_TRANSPOSITION",
              "ntt": "MELODY",
              "bassOn": true,
              "chordRootUpperLimit": 0,
              "noteLowLimit": 28,
              "noteHighLimit": 127,
              "rtr": "PITCH_SHIFT_TO_ROOT"
            },
            "ctb2High": null
          },
          "notes": [
            {
              "pitch": 36,
              "velocity": 70,
              "position": 0,
              "duration": 0.65625
            },
            {
              "pitch": 36,
              "velocity": 100,
              "position": 0.6666666666666666,
              "duration": 0.3229166666666667
            },
            {
              "pitch": 40,
              "velocity": 60,
              "position": 1,
              "duration": 0.8020833333333334
            },
            {
              "pitch": 43,
              "velocity": 70,
              "position": 2,
              "duration": 0.8020833333333334
            },
            {
              "pitch": 40,
              "velocity": 60,
              "position": 3,
              "duration": 0.65625
            },
            {
              "pitch": 43,
              "velocity": 50,
              "position": 3.6666666666666665,
              "duration": 0.3229166666666667
            },
            {
              "pitch": 36,
              "velocity": 70,
              "position": 4,
              "duration": 0.65625
            },
            {
              "pitch": 48,
              "velocity": 56,
              "position": 4.666666666666667,
              "duration": 0.3229166666666667
            },
            {
              "pitch": 40,
              "velocity": 60,
              "position": 5,
              "duration": 0.8020833333333334
            },
            {
              "pitch": 43,
              "velocity": 70,
              "position": 6,
              "duration": 0.8020833333333334
            },
            {
              "pitch": 40,
              "velocity": 60,
              "position": 7,
              "duration": 0.65625
            },
            {
              "pitch": 43,
              "velocity": 50,
              "position": 7.666666666666667,
              "duration": 0.3229166666666667
            },
            {
              "pitch": 36,
              "velocity": 70,
              "position": 8,
              "duration": 0.65625
            },
            {
              "pitch": 36,
              "velocity": 50,
              "position": 8.666666666666666,
              "duration": 0.19791666666666666
            },
            {
              "pitch": 40,
              "velocity": 64,
              "position": 9,
              "duration": 0.8020833333333334
            },
            {
              "pitch": 43,
              "velocity": 70,
              "position": 10,
              "duration": 0.6354166666666666
            },
            {
              "pitch": 36,
              "velocity": 40,
              "position": 10.666666666666666,
              "duration": 0.15625
            },
            {
              "pitch": 40,
              "velocity": 60,
              "position": 11,
              "duration": 0.65625
            },
            {
              "pitch": 43,
              "velocity": 50,
              "position": 11.666666666666666,
              "duration": 0.3229166666666667
            },
            {
              "pitch": 36,
              "velocity": 70,
              "position": 12,
              "duration": 0.65625
            },
            {
              "pitch": 48,
              "velocity": 60,
              "position": 12.666666666666666,
              "duration": 0.3229166666666667
            },
            {
              "pitch": 40,
              "velocity": 62,
              "position": 13,
              "duration": 0.6458333333333334
            },
            {
              "pitch": 36,
              "velocity": 100,
              "position": 13.666666666666666,
              "duration": 0.3229166666666667
            },
            {
              "pitch": 43,
              "velocity": 70,
              "position": 14,
              "duration": 0.8020833333333334
            },
            {
              "pitch": 40,
              "velocity": 60,
              "position": 15,
              "duration": 0.65625
            },
            {
              "pitch": 43,
              "velocity": 50,
              "position": 15.666666666666666,
              "duration": 0.3229166666666667
            }
          ]
        },
        "6": {
          "ctab": {
            "srcChannel": 6,
            "name": "Organ",
            "accType": "PAD",
            "editable": false,
            "mutedNotes": [],
            "mutedChords": [],
            "autoStart": false,
            "sourceChordNote": 0,
            "sourceChordType": "Maj7",
            "ctb2Low": null,
            "ctb2Main": {
              "ntr": "ROOT_FIXED",
              "ntt": "CHORD",
              "bassOn": false,
              "chordRootUpperLimit": 7,
              "noteLowLimit": 0,
              "noteHighLimit": 127,
              "rtr": "PITCH_SHIFT"
            },
            "ctb2High": null
          },
          "notes": [
            {
              "pitch": 67,
              "velocity": 74,
              "position": 0,
              "duration": 15.989583333333334
            },
            {
              "pitch": 71,
              "velocity": 74,
              "position": 0,
              "duration": 15.989583333333334
            },
            {
              "pitch": 76,
              "velocity": 74,
              "position": 0,
              "duration": 15.989583333333334
            }
          ]
        },
        "7": {
          "ctab": {
            "srcChannel": 7,
            "name": "OrgRoot",
            "accType": "PAD",
            "editable": false,
            "mutedNotes": [],
            "mutedChords": [
              "1+2+5",
              "sus4",
              "1+5",
              "1+8",
              "Maj7aug",
              "dim",
              "minMaj7(9)",
              "minMaj7",
              "min6",
              "min",
              "aug",
              "Maj7(9)",
              "Maj7#11",
              "Maj7",
              "Maj6",
              "Maj"
            ],
            "autoStart": false,
            "sourceChordNote": 0,
            "sourceChordType": "Maj7",
            "ctb2Low": null,
            "ctb2Main": {
              "ntr": "ROOT_TRANSPOSITION",
              "ntt": "CHORD",
              "bassOn": false,
              "chordRootUpperLimit": 6,
              "noteLowLimit": 0,
              "noteHighLimit": 127,
              "rtr": "PITCH_SHIFT"
            },
            "ctb2High": null
          },
          "notes": [
            {
              "pitch": 72,
              "velocity": 74,
              "position": 0,
              "duration": 15.989583333333334
            }
          ]
        },
        "8": {
          "ctab": {
            "srcChannel": 8,
            "name": "Perc",
            "accType": "SUBRHYTHM",
            "editable": false,
            "mutedNotes": [],
            "mutedChords": [],
            "autoStart": true,
            "sourceChordNote": 0,
            "sourceChordType": "Maj7",
            "ctb2Low": null,
            "ctb2Main": {
              "ntr": "ROOT_FIXED",
              "ntt": "BYPASS",
              "bassOn": false,
              "chordRootUpperLimit": 6,
              "noteLowLimit": 0,
              "noteHighLimit": 127,
              "rtr": "PITCH_SHIFT"
            },
            "ctb2High": null
          },
          "notes": [
            {
              "pitch": 54,
              "velocity": 60,
              "position": 0,
              "duration": 0.010416666666666666
            },
            {
              "pitch": 54,
              "velocity": 14,
              "position": 0.6875,
              "duration": 0.010416666666666666
            },
            {
              "pitch": 39,
              "velocity": 74,
              "position": 1,
              "duration": 0.010416666666666666
            },
            {
              "pitch": 54,
              "velocity": 105,
              "position": 1,
              "duration": 0.010416666666666666
            },
            {
              "pitch": 54,
              "velocity": 14,
              "position": 1.6875,
              "duration": 0.010416666666666666
            },
            {
              "pitch": 54,
              "velocity": 60,
              "position": 2,
              "duration": 0.010416666666666666
            },
            {
              "pitch": 54,
              "velocity": 14,
              "position": 2.6875,
              "duration": 0.010416666666666666
            },
            {
              "pitch": 39,
              "velocity": 74,
              "position": 3,
              "duration": 0.010416666666666666
            },
            {
              "pitch": 54,
              "velocity": 105,
              "position": 3,
              "duration": 0.010416666666666666
            },
            {
              "pitch": 54,
              "velocity": 14,
              "position": 3.6875,
              "duration": 0.010416666666666666
            },
            {
              "pitch": 54,
              "velocity": 60,
              "position": 4,
              "duration": 0.010416666666666666
            },
            {
              "pitch": 54,
              "velocity": 14,
              "position": 4.6875,
              "duration": 0.010416666666666666
            },
            {
              "pitch": 39,
              "velocity": 74,
              "position": 5,
              "duration": 0.010416666666666666
            },
            {
              "pitch": 54,
              "velocity": 105,
              "position": 5,
              "duration": 0.010416666666666666
            },
            {
              "pitch": 54,
              "velocity": 14,
              "position": 5.6875,
              "duration": 0.010416666666666666
            },
            {
              "pitch": 54,
              "velocity": 60,
              "position": 6,
              "duration": 0.010416666666666666
            },
            {
              "pitch": 54,
              "velocity": 14,
              "position": 6.6875,
              "duration": 0.010416666666666666
            },
            {
              "pitch": 39,
              "velocity": 74,
              "position": 7,
              "duration": 0.010416666666666666
            },
            {
              "pitch": 54,
              "velocity": 105,
              "position": 7,
              "duration": 0.010416666666666666
            },
            {
              "pitch": 54,
              "velocity": 14,
              "position": 7.6875,
              "duration": 0.010416666666666666
            },
            {
              "pitch": 54,
              "velocity": 60,
              "position": 8,
              "duration": 0.010416666666666666
            },
            {
              "pitch": 54,
              "velocity": 14,
              "position": 8.6875,
              "duration": 0.010416666666666666
            },
            {
              "pitch": 39,
              "velocity": 74,
              "position": 9,
              "duration": 0.010416666666666666
            },
            {
              "pitch": 54,
              "velocity": 105,
              "position": 9,
              "duration": 0.010416666666666666
            },
            {
              "pitch": 54,
              "velocity": 14,
              "position": 9.6875,
              "duration": 0.010416666666666666
            },
            {
              "pitch": 54,
              "velocity": 60,
              "position": 10,
              "duration": 0.010416666666666666
            },
            {
              "pitch": 54,
              "velocity": 14,
              "position": 10.6875,
              "duration": 0.010416666666666666
            },
            {
              "pitch": 39,
              "velocity": 74,
              "position": 11,
              "duration": 0.010416666666666666
            },
            {
              "pitch": 54,
              "velocity": 105,
              "position": 11,
              "duration": 0.010416666666666666
            },
            {
              "pitch": 54,
              "velocity": 14,
              "position": 11.6875,
              "duration": 0.010416666666666666
            },
            {
              "pitch": 54,
              "velocity": 60,
              "position": 12,
              "duration": 0.010416666666666666
            },
            {
              "pitch": 54,
              "velocity": 14,
              "position": 12.6875,
              "duration": 0.010416666666666666
            },
            {
              "pitch": 39,
              "velocity": 74,
              "position": 13,
              "duration": 0.010416666666666666
            },
            {
              "pitch": 54,
              "velocity": 105,
              "position": 13,
              "duration": 0.010416666666666666
            },
            {
              "pitch": 54,
              "velocity": 14,
              "position": 13.6875,
              "duration": 0.010416666666666666
            },
            {
              "pitch": 54,
              "velocity": 60,
              "position": 14,
              "duration": 0.010416666666666666
            },
            {
              "pitch": 54,
              "velocity": 14,
              "position": 14.6875,
              "duration": 0.010416666666666666
            },
            {
              "pitch": 39,
              "velocity": 74,
              "position": 15,
              "duration": 0.010416666666666666
            },
            {
              "pitch": 54,
              "velocity": 105,
              "position": 15,
              "duration": 0.010416666666666666
            },
            {
              "pitch": 54,
              "velocity": 14,
              "position": 15.6875,
              "duration": 0.010416666666666666
            }
          ]
        },
        "9": {
          "ctab": {
            "srcChannel": 9,
            "name": "Rhyth2",
            "accType": "RHYTHM",
            "editable": false,
            "mutedNotes": [],
            "mutedChords": [],
            "autoStart": true,
            "sourceChordNote": 0,
            "sourceChordType": "Maj7",
            "ctb2Low": null,
            "ctb2Main": {
              "ntr": "ROOT_FIXED",
              "ntt": "BYPASS",
              "bassOn": false,
              "chordRootUpperLimit": 6,
              "noteLowLimit": 0,
              "noteHighLimit": 127,
              "rtr": "PITCH_SHIFT"
            },
            "ctb2High": null
          },
          "notes": [
            {
              "pitch": 36,
              "velocity": 80,
              "position": 0,
              "duration": 0.010416666666666666
            },
            {
              "pitch": 40,
              "velocity": 45,
              "position": 0,
              "duration": 0.010416666666666666
            },
            {
              "pitch": 40,
              "velocity": 21,
              "position": 0.6875,
              "duration": 0.010416666666666666
            },
            {
              "pitch": 40,
              "velocity": 80,
              "position": 1,
              "duration": 0.010416666666666666
            },
            {
              "pitch": 40,
              "velocity": 21,
              "position": 1.6875,
              "duration": 0.010416666666666666
            },
            {
              "pitch": 36,
              "velocity": 80,
              "position": 2,
              "duration": 0.010416666666666666
            },
            {
              "pitch": 40,
              "velocity": 45,
              "position": 2,
              "duration": 0.010416666666666666
            },
            {
              "pitch": 40,
              "velocity": 21,
              "position": 2.6875,
              "duration": 0.010416666666666666
            },
            {
              "pitch": 40,
              "velocity": 80,
              "position": 3,
              "duration": 0.010416666666666666
            },
            {
              "pitch": 40,
              "velocity": 21,
              "position": 3.6875,
              "duration": 0.010416666666666666
            },
            {
              "pitch": 36,
              "velocity": 80,
              "position": 4,
              "duration": 0.010416666666666666
            },
            {
              "pitch": 40,
              "velocity": 45,
              "position": 4,
              "duration": 0.010416666666666666
            },
            {
              "pitch": 40,
              "velocity": 21,
              "position": 4.6875,
              "duration": 0.010416666666666666
            },
            {
              "pitch": 40,
              "velocity": 80,
              "position": 5,
              "duration": 0.010416666666666666
            },
            {
              "pitch": 40,
              "velocity": 21,
              "position": 5.6875,
              "duration": 0.010416666666666666
            },
            {
              "pitch": 36,
              "velocity": 80,
              "position": 6,
              "duration": 0.010416666666666666
            },
            {
              "pitch": 40,
              "velocity": 45,
              "position": 6,
              "duration": 0.010416666666666666
            },
            {
              "pitch": 40,
              "velocity": 21,
              "position": 6.6875,
              "duration": 0.010416666666666666
            },
            {
              "pitch": 40,
              "velocity": 80,
              "position": 7,
              "duration": 0.010416666666666666
            },
            {
              "pitch": 40,
              "velocity": 21,
              "position": 7.6875,
              "duration": 0.010416666666666666
            },
            {
              "pitch": 36,
              "velocity": 80,
              "position": 8,
              "duration": 0.010416666666666666
            },
            {
              "pitch": 40,
              "velocity": 45,
              "position": 8,
              "duration": 0.010416666666666666
            },
            {
              "pitch": 40,
              "velocity": 21,
              "position": 8.6875,
              "duration": 0.010416666666666666
            },
            {
              "pitch": 40,
              "velocity": 80,
              "position": 9,
              "duration": 0.010416666666666666
            },
            {
              "pitch": 40,
              "velocity": 21,
              "position": 9.6875,
              "duration": 0.010416666666666666
            },
            {
              "pitch": 36,
              "velocity": 80,
              "position": 10,
              "duration": 0.010416666666666666
            },
            {
              "pitch": 40,
              "velocity": 45,
              "position": 10,
              "duration": 0.010416666666666666
            },
            {
              "pitch": 40,
              "velocity": 21,
              "position": 10.6875,
              "duration": 0.010416666666666666
            },
            {
              "pitch": 40,
              "velocity": 80,
              "position": 11,
              "duration": 0.010416666666666666
            },
            {
              "pitch": 40,
              "velocity": 21,
              "position": 11.6875,
              "duration": 0.010416666666666666
            },
            {
              "pitch": 36,
              "velocity": 80,
              "position": 12,
              "duration": 0.010416666666666666
            },
            {
              "pitch": 40,
              "velocity": 45,
              "position": 12,
              "duration": 0.010416666666666666
            },
            {
              "pitch": 40,
              "velocity": 21,
              "position": 12.6875,
              "duration": 0.010416666666666666
            },
            {
              "pitch": 40,
              "velocity": 80,
              "position": 13,
              "duration": 0.010416666666666666
            },
            {
              "pitch": 40,
              "velocity": 21,
              "position": 13.6875,
              "duration": 0.010416666666666666
            },
            {
              "pitch": 36,
              "velocity": 80,
              "position": 14,
              "duration": 0.010416666666666666
            },
            {
              "pitch": 40,
              "velocity": 45,
              "position": 14,
              "duration": 0.010416666666666666
            },
            {
              "pitch": 40,
              "velocity": 21,
              "position": 14.6875,
              "duration": 0.010416666666666666
            },
            {
              "pitch": 40,
              "velocity": 80,
              "position": 15,
              "duration": 0.010416666666666666
            },
            {
              "pitch": 40,
              "velocity": 21,
              "position": 15.6875,
              "duration": 0.010416666666666666
            }
          ]
        },
        "11": {
          "ctab": {
            "srcChannel": 11,
            "name": "Guit SFX",
            "accType": "CHORD1",
            "editable": false,
            "mutedNotes": [],
            "mutedChords": [],
            "autoStart": false,
            "sourceChordNote": 0,
            "sourceChordType": "Maj7",
            "ctb2Low": null,
            "ctb2Main": {
              "ntr": "ROOT_FIXED",
              "ntt": "BYPASS",
              "bassOn": false,
              "chordRootUpperLimit": 7,
              "noteLowLimit": 0,
              "noteHighLimit": 79,
              "rtr": "PITCH_SHIFT"
            },
            "ctb2High": null
          },
          "notes": [
            {
              "pitch": 108,
              "velocity": 94,
              "position": 0,
              "duration": 0.65625
            },
            {
              "pitch": 99,
              "velocity": 115,
              "position": 0.6666666666666666,
              "duration": 0.22916666666666666
            },
            {
              "pitch": 103,
              "velocity": 115,
              "position": 1.6666666666666667,
              "duration": 0.22916666666666666
            },
            {
              "pitch": 99,
              "velocity": 109,
              "position": 2.6666666666666665,
              "duration": 0.22916666666666666
            },
            {
              "pitch": 105,
              "velocity": 109,
              "position": 3.6666666666666665,
              "duration": 0.22916666666666666
            },
            {
              "pitch": 108,
              "velocity": 94,
              "position": 4,
              "duration": 0.65625
            },
            {
              "pitch": 99,
              "velocity": 109,
              "position": 4.666666666666667,
              "duration": 0.22916666666666666
            },
            {
              "pitch": 103,
              "velocity": 115,
              "position": 5.666666666666667,
              "duration": 0.22916666666666666
            },
            {
              "pitch": 99,
              "velocity": 109,
              "position": 6.666666666666667,
              "duration": 0.22916666666666666
            },
            {
              "pitch": 105,
              "velocity": 104,
              "position": 7.666666666666667,
              "duration": 0.22916666666666666
            },
            {
              "pitch": 108,
              "velocity": 94,
              "position": 8,
              "duration": 0.65625
            },
            {
              "pitch": 99,
              "velocity": 115,
              "position": 8.666666666666666,
              "duration": 0.22916666666666666
            },
            {
              "pitch": 103,
              "velocity": 115,
              "position": 9.666666666666666,
              "duration": 0.22916666666666666
            },
            {
              "pitch": 99,
              "velocity": 109,
              "position": 10.666666666666666,
              "duration": 0.22916666666666666
            },
            {
              "pitch": 105,
              "velocity": 95,
              "position": 11.666666666666666,
              "duration": 0.22916666666666666
            },
            {
              "pitch": 108,
              "velocity": 94,
              "position": 12,
              "duration": 0.65625
            },
            {
              "pitch": 99,
              "velocity": 109,
              "position": 12.666666666666666,
              "duration": 0.22916666666666666
            },
            {
              "pitch": 103,
              "velocity": 115,
              "position": 13.666666666666666,
              "duration": 0.22916666666666666
            },
            {
              "pitch": 99,
              "velocity": 109,
              "position": 14.666666666666666,
              "duration": 0.22916666666666666
            },
            {
              "pitch": 103,
              "velocity": 97,
              "position": 15.666666666666666,
              "duration": 0.22916666666666666
            }
          ]
        },
        "12": {
          "ctab": {
            "srcChannel": 12,
            "name": "GtRootTr",
            "accType": "CHORD1",
            "editable": false,
            "mutedNotes": [],
            "mutedChords": [
              "1+2+5",
              "sus4",
              "1+5",
              "1+8",
              "Maj7aug",
              "dim",
              "minMaj7(9)",
              "minMaj7",
              "min6",
              "min",
              "aug",
              "Maj7(9)",
              "Maj7#11",
              "Maj7",
              "Maj6",
              "Maj"
            ],
            "autoStart": false,
            "sourceChordNote": 0,
            "sourceChordType": "Maj7",
            "ctb2Low": null,
            "ctb2Main": {
              "ntr": "ROOT_TRANSPOSITION",
              "ntt": "CHORD",
              "bassOn": false,
              "chordRootUpperLimit": 10,
              "noteLowLimit": 0,
              "noteHighLimit": 127,
              "rtr": "PITCH_SHIFT"
            },
            "ctb2High": null
          },
          "notes": [
            {
              "pitch": 60,
              "velocity": 21,
              "position": 0.014583333333333334,
              "duration": 0.65625
            },
            {
              "pitch": 60,
              "velocity": 22,
              "position": 0.68125,
              "duration": 0.20833333333333334
            },
            {
              "pitch": 60,
              "velocity": 28,
              "position": 1.68125,
              "duration": 0.20833333333333334
            },
            {
              "pitch": 60,
              "velocity": 22,
              "position": 2.68125,
              "duration": 0.20833333333333334
            },
            {
              "pitch": 60,
              "velocity": 18,
              "position": 3.68125,
              "duration": 0.3229166666666667
            },
            {
              "pitch": 60,
              "velocity": 22,
              "position": 4.014583333333333,
              "duration": 0.65625
            },
            {
              "pitch": 60,
              "velocity": 28,
              "position": 4.68125,
              "duration": 0.20833333333333334
            },
            {
              "pitch": 60,
              "velocity": 22,
              "position": 5.68125,
              "duration": 0.20833333333333334
            },
            {
              "pitch": 60,
              "velocity": 28,
              "position": 6.68125,
              "duration": 0.20833333333333334
            },
            {
              "pitch": 60,
              "velocity": 18,
              "position": 7.68125,
              "duration": 0.3229166666666667
            },
            {
              "pitch": 60,
              "velocity": 22,
              "position": 8.014583333333333,
              "duration": 0.65625
            },
            {
              "pitch": 60,
              "velocity": 22,
              "position": 8.68125,
              "duration": 0.20833333333333334
            },
            {
              "pitch": 60,
              "velocity": 28,
              "position": 9.68125,
              "duration": 0.20833333333333334
            },
            {
              "pitch": 60,
              "velocity": 22,
              "position": 10.68125,
              "duration": 0.20833333333333334
            },
            {
              "pitch": 60,
              "velocity": 18,
              "position": 11.68125,
              "duration": 0.3229166666666667
            },
            {
              "pitch": 60,
              "velocity": 22,
              "position": 12.014583333333333,
              "duration": 0.65625
            },
            {
              "pitch": 60,
              "velocity": 22,
              "position": 12.68125,
              "duration": 0.20833333333333334
            },
            {
              "pitch": 60,
              "velocity": 28,
              "position": 13.68125,
              "duration": 0.20833333333333334
            },
            {
              "pitch": 60,
              "velocity": 22,
              "position": 14.68125,
              "duration": 0.20833333333333334
            },
            {
              "pitch": 60,
              "velocity": 14,
              "position": 15.68125,
              "duration": 0.3104166666666667
            }
          ]
        },
        "13": {
          "ctab": {
            "srcChannel": 13,
            "name": "B2-E3-G3",
            "accType": "CHORD1",
            "editable": false,
            "mutedNotes": [],
            "mutedChords": [],
            "autoStart": false,
            "sourceChordNote": 0,
            "sourceChordType": "Maj7",
            "ctb2Low": null,
            "ctb2Main": {
              "ntr": "ROOT_FIXED",
              "ntt": "CHORD",
              "bassOn": false,
              "chordRootUpperLimit": 7,
              "noteLowLimit": 0,
              "noteHighLimit": 127,
              "rtr": "PITCH_SHIFT"
            },
            "ctb2High": null
          },
          "notes": [
            {
              "pitch": 59,
              "velocity": 21,
              "position": 0,
              "duration": 0.65625
            },
            {
              "pitch": 64,
              "velocity": 21,
              "position": 0.020833333333333332,
              "duration": 0.65625
            },
            {
              "pitch": 67,
              "velocity": 21,
              "position": 0.041666666666666664,
              "duration": 0.65625
            },
            {
              "pitch": 59,
              "velocity": 22,
              "position": 0.6666666666666666,
              "duration": 0.20833333333333334
            },
            {
              "pitch": 64,
              "velocity": 22,
              "position": 0.6875,
              "duration": 0.20833333333333334
            },
            {
              "pitch": 67,
              "velocity": 22,
              "position": 0.7083333333333334,
              "duration": 0.20833333333333334
            },
            {
              "pitch": 59,
              "velocity": 28,
              "position": 1.6666666666666667,
              "duration": 0.20833333333333334
            },
            {
              "pitch": 64,
              "velocity": 28,
              "position": 1.6875,
              "duration": 0.20833333333333334
            },
            {
              "pitch": 67,
              "velocity": 28,
              "position": 1.7083333333333333,
              "duration": 0.20833333333333334
            },
            {
              "pitch": 59,
              "velocity": 22,
              "position": 2.6666666666666665,
              "duration": 0.20833333333333334
            },
            {
              "pitch": 64,
              "velocity": 22,
              "position": 2.6875,
              "duration": 0.20833333333333334
            },
            {
              "pitch": 67,
              "velocity": 22,
              "position": 2.7083333333333335,
              "duration": 0.20833333333333334
            },
            {
              "pitch": 59,
              "velocity": 18,
              "position": 3.6666666666666665,
              "duration": 0.3229166666666667
            },
            {
              "pitch": 64,
              "velocity": 18,
              "position": 3.6875,
              "duration": 0.3229166666666667
            },
            {
              "pitch": 67,
              "velocity": 18,
              "position": 3.7083333333333335,
              "duration": 0.3229166666666667
            },
            {
              "pitch": 59,
              "velocity": 22,
              "position": 4,
              "duration": 0.65625
            },
            {
              "pitch": 64,
              "velocity": 22,
              "position": 4.020833333333333,
              "duration": 0.65625
            },
            {
              "pitch": 67,
              "velocity": 22,
              "position": 4.041666666666667,
              "duration": 0.65625
            },
            {
              "pitch": 59,
              "velocity": 28,
              "position": 4.666666666666667,
              "duration": 0.20833333333333334
            },
            {
              "pitch": 64,
              "velocity": 28,
              "position": 4.6875,
              "duration": 0.20833333333333334
            },
            {
              "pitch": 67,
              "velocity": 28,
              "position": 4.708333333333333,
              "duration": 0.20833333333333334
            },
            {
              "pitch": 59,
              "velocity": 22,
              "position": 5.666666666666667,
              "duration": 0.20833333333333334
            },
            {
              "pitch": 64,
              "velocity": 22,
              "position": 5.6875,
              "duration": 0.20833333333333334
            },
            {
              "pitch": 67,
              "velocity": 22,
              "position": 5.708333333333333,
              "duration": 0.20833333333333334
            },
            {
              "pitch": 59,
              "velocity": 28,
              "position": 6.666666666666667,
              "duration": 0.20833333333333334
            },
            {
              "pitch": 64,
              "velocity": 28,
              "position": 6.6875,
              "duration": 0.20833333333333334
            },
            {
              "pitch": 67,
              "velocity": 28,
              "position": 6.708333333333333,
              "duration": 0.20833333333333334
            },
            {
              "pitch": 59,
              "velocity": 18,
              "position": 7.666666666666667,
              "duration": 0.3229166666666667
            },
            {
              "pitch": 64,
              "velocity": 18,
              "position": 7.6875,
              "duration": 0.3229166666666667
            },
            {
              "pitch": 67,
              "velocity": 18,
              "position": 7.708333333333333,
              "duration": 0.3229166666666667
            },
            {
              "pitch": 59,
              "velocity": 22,
              "position": 8,
              "duration": 0.65625
            },
            {
              "pitch": 64,
              "velocity": 22,
              "position": 8.020833333333334,
              "duration": 0.65625
            },
            {
              "pitch": 67,
              "velocity": 22,
              "position": 8.041666666666666,
              "duration": 0.65625
            },
            {
              "pitch": 59,
              "velocity": 22,
              "position": 8.666666666666666,
              "duration": 0.20833333333333334
            },
            {
              "pitch": 64,
              "velocity": 22,
              "position": 8.6875,
              "duration": 0.20833333333333334
            },
            {
              "pitch": 67,
              "velocity": 22,
              "position": 8.708333333333334,
              "duration": 0.20833333333333334
            },
            {
              "pitch": 59,
              "velocity": 28,
              "position": 9.666666666666666,
              "duration": 0.20833333333333334
            },
            {
              "pitch": 64,
              "velocity": 28,
              "position": 9.6875,
              "duration": 0.20833333333333334
            },
            {
              "pitch": 67,
              "velocity": 28,
              "position": 9.708333333333334,
              "duration": 0.20833333333333334
            },
            {
              "pitch": 59,
              "velocity": 22,
              "position": 10.666666666666666,
              "duration": 0.20833333333333334
            },
            {
              "pitch": 64,
              "velocity": 22,
              "position": 10.6875,
              "duration": 0.20833333333333334
            },
            {
              "pitch": 67,
              "velocity": 22,
              "position": 10.708333333333334,
              "duration": 0.20833333333333334
            },
            {
              "pitch": 59,
              "velocity": 18,
              "position": 11.666666666666666,
              "duration": 0.3229166666666667
            },
            {
              "pitch": 64,
              "velocity": 18,
              "position": 11.6875,
              "duration": 0.3229166666666667
            },
            {
              "pitch": 67,
              "velocity": 18,
              "position": 11.708333333333334,
              "duration": 0.3229166666666667
            },
            {
              "pitch": 59,
              "velocity": 22,
              "position": 12,
              "duration": 0.65625
            },
            {
              "pitch": 64,
              "velocity": 22,
              "position": 12.020833333333334,
              "duration": 0.65625
            },
            {
              "pitch": 67,
              "velocity": 22,
              "position": 12.041666666666666,
              "duration": 0.65625
            },
            {
              "pitch": 59,
              "velocity": 22,
              "position": 12.666666666666666,
              "duration": 0.20833333333333334
            },
            {
              "pitch": 64,
              "velocity": 22,
              "position": 12.6875,
              "duration": 0.20833333333333334
            },
            {
              "pitch": 67,
              "velocity": 22,
              "position": 12.708333333333334,
              "duration": 0.20833333333333334
            },
            {
              "pitch": 59,
              "velocity": 28,
              "position": 13.666666666666666,
              "duration": 0.20833333333333334
            },
            {
              "pitch": 64,
              "velocity": 28,
              "position": 13.6875,
              "duration": 0.20833333333333334
            },
            {
              "pitch": 67,
              "velocity": 28,
              "position": 13.708333333333334,
              "duration": 0.20833333333333334
            },
            {
              "pitch": 59,
              "velocity": 22,
              "position": 14.666666666666666,
              "duration": 0.20833333333333334
            },
            {
              "pitch": 64,
              "velocity": 22,
              "position": 14.6875,
              "duration": 0.20833333333333334
            },
            {
              "pitch": 67,
              "velocity": 22,
              "position": 14.708333333333334,
              "duration": 0.20833333333333334
            },
            {
              "pitch": 59,
              "velocity": 14,
              "position": 15.666666666666666,
              "duration": 0.3229166666666667
            },
            {
              "pitch": 64,
              "velocity": 14,
              "position": 15.6875,
              "duration": 0.3020833333333333
            },
            {
              "pitch": 67,
              "velocity": 14,
              "position": 15.708333333333334,
              "duration": 0.28125
            }
          ]
        },
        "14": {
          "ctab": {
            "srcChannel": 14,
            "name": "Fifth G2",
            "accType": "CHORD1",
            "editable": false,
            "mutedNotes": [
              6,
              5,
              4,
              3
            ],
            "mutedChords": [],
            "autoStart": false,
            "sourceChordNote": 0,
            "sourceChordType": "Maj7",
            "ctb2Low": null,
            "ctb2Main": {
              "ntr": "ROOT_TRANSPOSITION",
              "ntt": "CHORD",
              "bassOn": false,
              "chordRootUpperLimit": 3,
              "noteLowLimit": 0,
              "noteHighLimit": 127,
              "rtr": "PITCH_SHIFT"
            },
            "ctb2High": null
          },
          "notes": [
            {
              "pitch": 55,
              "velocity": 21,
              "position": 0.010416666666666666,
              "duration": 0.65625
            },
            {
              "pitch": 55,
              "velocity": 22,
              "position": 0.6770833333333334,
              "duration": 0.20833333333333334
            },
            {
              "pitch": 55,
              "velocity": 28,
              "position": 1.6770833333333333,
              "duration": 0.20833333333333334
            },
            {
              "pitch": 55,
              "velocity": 22,
              "position": 2.6770833333333335,
              "duration": 0.20833333333333334
            },
            {
              "pitch": 55,
              "velocity": 18,
              "position": 3.6770833333333335,
              "duration": 0.3229166666666667
            },
            {
              "pitch": 55,
              "velocity": 22,
              "position": 4.010416666666667,
              "duration": 0.65625
            },
            {
              "pitch": 55,
              "velocity": 28,
              "position": 4.677083333333333,
              "duration": 0.20833333333333334
            },
            {
              "pitch": 55,
              "velocity": 22,
              "position": 5.677083333333333,
              "duration": 0.20833333333333334
            },
            {
              "pitch": 55,
              "velocity": 28,
              "position": 6.677083333333333,
              "duration": 0.20833333333333334
            },
            {
              "pitch": 55,
              "velocity": 18,
              "position": 7.677083333333333,
              "duration": 0.3229166666666667
            },
            {
              "pitch": 55,
              "velocity": 22,
              "position": 8.010416666666666,
              "duration": 0.65625
            },
            {
              "pitch": 55,
              "velocity": 22,
              "position": 8.677083333333334,
              "duration": 0.20833333333333334
            },
            {
              "pitch": 55,
              "velocity": 28,
              "position": 9.677083333333334,
              "duration": 0.20833333333333334
            },
            {
              "pitch": 55,
              "velocity": 22,
              "position": 10.677083333333334,
              "duration": 0.20833333333333334
            },
            {
              "pitch": 55,
              "velocity": 18,
              "position": 11.677083333333334,
              "duration": 0.3229166666666667
            },
            {
              "pitch": 55,
              "velocity": 22,
              "position": 12.010416666666666,
              "duration": 0.65625
            },
            {
              "pitch": 55,
              "velocity": 22,
              "position": 12.677083333333334,
              "duration": 0.20833333333333334
            },
            {
              "pitch": 55,
              "velocity": 28,
              "position": 13.677083333333334,
              "duration": 0.20833333333333334
            },
            {
              "pitch": 55,
              "velocity": 22,
              "position": 14.677083333333334,
              "duration": 0.20833333333333334
            },
            {
              "pitch": 55,
              "velocity": 14,
              "position": 15.677083333333334,
              "duration": 0.3125
            }
          ]
        },
        "15": {
          "ctab": {
            "srcChannel": 15,
            "name": "Root C2",
            "accType": "CHORD1",
            "editable": false,
            "mutedNotes": [
              11,
              2,
              1,
              0
            ],
            "mutedChords": [],
            "autoStart": false,
            "sourceChordNote": 0,
            "sourceChordType": "Maj7",
            "ctb2Low": null,
            "ctb2Main": {
              "ntr": "ROOT_TRANSPOSITION",
              "ntt": "CHORD",
              "bassOn": false,
              "chordRootUpperLimit": 10,
              "noteLowLimit": 0,
              "noteHighLimit": 127,
              "rtr": "PITCH_SHIFT"
            },
            "ctb2High": null
          },
          "notes": [
            {
              "pitch": 48,
              "velocity": 21,
              "position": 0,
              "duration": 0.65625
            },
            {
              "pitch": 48,
              "velocity": 22,
              "position": 0.6666666666666666,
              "duration": 0.20833333333333334
            },
            {
              "pitch": 48,
              "velocity": 28,
              "position": 1.6666666666666667,
              "duration": 0.20833333333333334
            },
            {
              "pitch": 48,
              "velocity": 22,
              "position": 2.6666666666666665,
              "duration": 0.20833333333333334
            },
            {
              "pitch": 48,
              "velocity": 18,
              "position": 3.6666666666666665,
              "duration": 0.3229166666666667
            },
            {
              "pitch": 48,
              "velocity": 22,
              "position": 4,
              "duration": 0.65625
            },
            {
              "pitch": 48,
              "velocity": 28,
              "position": 4.666666666666667,
              "duration": 0.20833333333333334
            },
            {
              "pitch": 48,
              "velocity": 22,
              "position": 5.666666666666667,
              "duration": 0.20833333333333334
            },
            {
              "pitch": 48,
              "velocity": 28,
              "position": 6.666666666666667,
              "duration": 0.20833333333333334
            },
            {
              "pitch": 48,
              "velocity": 18,
              "position": 7.666666666666667,
              "duration": 0.3229166666666667
            },
            {
              "pitch": 48,
              "velocity": 22,
              "position": 8,
              "duration": 0.65625
            },
            {
              "pitch": 48,
              "velocity": 22,
              "position": 8.666666666666666,
              "duration": 0.20833333333333334
            },
            {
              "pitch": 48,
              "velocity": 28,
              "position": 9.666666666666666,
              "duration": 0.20833333333333334
            },
            {
              "pitch": 48,
              "velocity": 22,
              "position": 10.666666666666666,
              "duration": 0.20833333333333334
            },
            {
              "pitch": 48,
              "velocity": 18,
              "position": 11.666666666666666,
              "duration": 0.3229166666666667
            },
            {
              "pitch": 48,
              "velocity": 22,
              "position": 12,
              "duration": 0.65625
            },
            {
              "pitch": 48,
              "velocity": 22,
              "position": 12.666666666666666,
              "duration": 0.20833333333333334
            },
            {
              "pitch": 48,
              "velocity": 28,
              "position": 13.666666666666666,
              "duration": 0.20833333333333334
            },
            {
              "pitch": 48,
              "velocity": 22,
              "position": 14.666666666666666,
              "duration": 0.20833333333333334
            },
            {
              "pitch": 48,
              "velocity": 14,
              "position": 15.666666666666666,
              "duration": 0.3229166666666667
            }
          ]
        }
      }
    },
    "Main_C": {
      "type": "Main_C",
      "sizeInBeats": 16,
      "channels": {
        "0": {
          "ctab": {
            "srcChannel": 0,
            "name": "CC Crash",
            "accType": "RHYTHM",
            "editable": true,
            "mutedNotes": [],
            "mutedChords": [
              "1+2+5",
              "sus4",
              "1+5",
              "1+8",
              "7aug",
              "Maj7aug",
              "7(#9)",
              "7(b13)",
              "7(b9)",
              "7(13)",
              "7#11",
              "7(9)",
              "7b5",
              "7sus4",
              "7th",
              "dim7",
              "dim",
              "minMaj7(9)",
              "minMaj7",
              "min7(11)",
              "min7(9)",
              "min(9)",
              "m7b5",
              "min7",
              "min6",
              "min",
              "aug",
              "Maj6(9)",
              "Maj7(9)",
              "Maj(9)",
              "Maj7#11",
              "Maj7",
              "Maj6",
              "Maj"
            ],
            "autoStart": true,
            "sourceChordNote": 0,
            "sourceChordType": "Maj7",
            "ctb2Low": null,
            "ctb2Main": {
              "ntr": "ROOT_FIXED",
              "ntt": "BYPASS",
              "bassOn": false,
              "chordRootUpperLimit": 6,
              "noteLowLimit": 0,
              "noteHighLimit": 127,
              "rtr": "RETRIGGER"
            },
            "ctb2High": null
          },
          "notes": []
        },
        "2": {
          "ctab": {
            "srcChannel": 2,
            "name": "Bas4Note",
            "accType": "BASS",
            "editable": false,
            "mutedNotes": [],
            "mutedChords": [
              "1+2+5",
              "sus4",
              "1+5",
              "1+8",
              "7aug",
              "Maj7aug",
              "dim",
              "minMaj7(9)",
              "minMaj7",
              "min(9)",
              "m7b5",
              "min",
              "aug"
            ],
            "autoStart": false,
            "sourceChordNote": 0,
            "sourceChordType": "Maj7",
            "ctb2Low": null,
            "ctb2Main": {
              "ntr": "ROOT_TRANSPOSITION",
              "ntt": "MELODY",
              "bassOn": true,
              "chordRootUpperLimit": 10,
              "noteLowLimit": 28,
              "noteHighLimit": 127,
              "rtr": "PITCH_SHIFT_TO_ROOT"
            },
            "ctb2High": null
          },
          "notes": [
            {
              "pitch": 24,
              "velocity": 70,
              "position": 0,
              "duration": 0.65625
            },
            {
              "pitch": 24,
              "velocity": 100,
              "position": 0.6666666666666666,
              "duration": 0.3229166666666667
            },
            {
              "pitch": 28,
              "velocity": 60,
              "position": 1,
              "duration": 0.8020833333333334
            },
            {
              "pitch": 31,
              "velocity": 70,
              "position": 2,
              "duration": 0.8020833333333334
            },
            {
              "pitch": 33,
              "velocity": 60,
              "position": 3,
              "duration": 0.65625
            },
            {
              "pitch": 31,
              "velocity": 50,
              "position": 3.6666666666666665,
              "duration": 0.3229166666666667
            },
            {
              "pitch": 24,
              "velocity": 70,
              "position": 4,
              "duration": 0.65625
            },
            {
              "pitch": 24,
              "velocity": 100,
              "position": 4.666666666666667,
              "duration": 0.3229166666666667
            },
            {
              "pitch": 28,
              "velocity": 60,
              "position": 5,
              "duration": 0.8020833333333334
            },
            {
              "pitch": 31,
              "velocity": 70,
              "position": 6,
              "duration": 0.8020833333333334
            },
            {
              "pitch": 33,
              "velocity": 60,
              "position": 7,
              "duration": 0.65625
            },
            {
              "pitch": 31,
              "velocity": 50,
              "position": 7.666666666666667,
              "duration": 0.3229166666666667
            },
            {
              "pitch": 24,
              "velocity": 70,
              "position": 8,
              "duration": 0.65625
            },
            {
              "pitch": 24,
              "velocity": 50,
              "position": 8.666666666666666,
              "duration": 0.19791666666666666
            },
            {
              "pitch": 28,
              "velocity": 64,
              "position": 9,
              "duration": 0.8020833333333334
            },
            {
              "pitch": 31,
              "velocity": 70,
              "position": 10,
              "duration": 0.6354166666666666
            },
            {
              "pitch": 24,
              "velocity": 40,
              "position": 10.666666666666666,
              "duration": 0.15625
            },
            {
              "pitch": 33,
              "velocity": 60,
              "position": 11,
              "duration": 0.65625
            },
            {
              "pitch": 31,
              "velocity": 50,
              "position": 11.666666666666666,
              "duration": 0.3229166666666667
            },
            {
              "pitch": 36,
              "velocity": 70,
              "position": 12,
              "duration": 0.65625
            },
            {
              "pitch": 24,
              "velocity": 60,
              "position": 12.666666666666666,
              "duration": 0.3229166666666667
            },
            {
              "pitch": 33,
              "velocity": 62,
              "position": 13,
              "duration": 0.6458333333333334
            },
            {
              "pitch": 24,
              "velocity": 100,
              "position": 13.666666666666666,
              "duration": 0.3229166666666667
            },
            {
              "pitch": 31,
              "velocity": 70,
              "position": 14,
              "duration": 0.8020833333333334
            },
            {
              "pitch": 28,
              "velocity": 60,
              "position": 15,
              "duration": 0.65625
            },
            {
              "pitch": 31,
              "velocity": 50,
              "position": 15.666666666666666,
              "duration": 0.3229166666666667
            }
          ]
        },
        "3": {
          "ctab": {
            "srcChannel": 3,
            "name": "Bas3Note",
            "accType": "BASS",
            "editable": false,
            "mutedNotes": [],
            "mutedChords": [
              "7(#9)",
              "7(b13)",
              "7(b9)",
              "7(13)",
              "7#11",
              "7(9)",
              "7b5",
              "7sus4",
              "7th",
              "dim7",
              "min7(11)",
              "min7(9)",
              "min7",
              "min6",
              "Maj6(9)",
              "Maj7(9)",
              "Maj(9)",
              "Maj7#11",
              "Maj7",
              "Maj6",
              "Maj"
            ],
            "autoStart": false,
            "sourceChordNote": 0,
            "sourceChordType": "Maj7",
            "ctb2Low": null,
            "ctb2Main": {
              "ntr": "ROOT_TRANSPOSITION",
              "ntt": "MELODY",
              "bassOn": true,
              "chordRootUpperLimit": 0,
              "noteLowLimit": 28,
              "noteHighLimit": 127,
              "rtr": "PITCH_SHIFT_TO_ROOT"
            },
            "ctb2High": null
          },
          "notes": [
            {
              "pitch": 36,
              "velocity": 70,
              "position": 0,
              "duration": 0.65625
            },
            {
              "pitch": 36,
              "velocity": 100,
              "position": 0.6666666666666666,
              "duration": 0.3229166666666667
            },
            {
              "pitch": 40,
              "velocity": 60,
              "position": 1,
              "duration": 0.8020833333333334
            },
            {
              "pitch": 43,
              "velocity": 70,
              "position": 2,
              "duration": 0.8020833333333334
            },
            {
              "pitch": 40,
              "velocity": 60,
              "position": 3,
              "duration": 0.65625
            },
            {
              "pitch": 43,
              "velocity": 50,
              "position": 3.6666666666666665,
              "duration": 0.3229166666666667
            },
            {
              "pitch": 36,
              "velocity": 70,
              "position": 4,
              "duration": 0.65625
            },
            {
              "pitch": 48,
              "velocity": 60,
              "position": 4.666666666666667,
              "duration": 0.3229166666666667
            },
            {
              "pitch": 40,
              "velocity": 60,
              "position": 5,
              "duration": 0.8020833333333334
            },
            {
              "pitch": 43,
              "velocity": 70,
              "position": 6,
              "duration": 0.8020833333333334
            },
            {
              "pitch": 40,
              "velocity": 60,
              "position": 7,
              "duration": 0.65625
            },
            {
              "pitch": 43,
              "velocity": 50,
              "position": 7.666666666666667,
              "duration": 0.3229166666666667
            },
            {
              "pitch": 36,
              "velocity": 70,
              "position": 8,
              "duration": 0.65625
            },
            {
              "pitch": 36,
              "velocity": 50,
              "position": 8.666666666666666,
              "duration": 0.19791666666666666
            },
            {
              "pitch": 40,
              "velocity": 64,
              "position": 9,
              "duration": 0.8020833333333334
            },
            {
              "pitch": 43,
              "velocity": 70,
              "position": 10,
              "duration": 0.6354166666666666
            },
            {
              "pitch": 36,
              "velocity": 40,
              "position": 10.666666666666666,
              "duration": 0.15625
            },
            {
              "pitch": 40,
              "velocity": 60,
              "position": 11,
              "duration": 0.65625
            },
            {
              "pitch": 43,
              "velocity": 50,
              "position": 11.666666666666666,
              "duration": 0.3229166666666667
            },
            {
              "pitch": 36,
              "velocity": 70,
              "position": 12,
              "duration": 0.65625
            },
            {
              "pitch": 48,
              "velocity": 60,
              "position": 12.666666666666666,
              "duration": 0.3229166666666667
            },
            {
              "pitch": 40,
              "velocity": 62,
              "position": 13,
              "duration": 0.6458333333333334
            },
            {
              "pitch": 36,
              "velocity": 100,
              "position": 13.666666666666666,
              "duration": 0.3229166666666667
            },
            {
              "pitch": 43,
              "velocity": 70,
              "position": 14,
              "duration": 0.8020833333333334
            },
            {
              "pitch": 40,
              "velocity": 60,
              "position": 15,
              "duration": 0.65625
            },
            {
              "pitch": 43,
              "velocity": 50,
              "position": 15.666666666666666,
              "duration": 0.3229166666666667
            }
          ]
        },
        "6": {
          "ctab": {
            "srcChannel": 6,
            "name": "Organ",
            "accType": "PAD",
            "editable": false,
            "mutedNotes": [],
            "mutedChords": [],
            "autoStart": false,
            "sourceChordNote": 0,
            "sourceChordType": "Maj7",
            "ctb2Low": null,
            "ctb2Main": {
              "ntr": "ROOT_FIXED",
              "ntt": "CHORD",
              "bassOn": false,
              "chordRootUpperLimit": 7,
              "noteLowLimit": 0,
              "noteHighLimit": 127,
              "rtr": "PITCH_SHIFT"
            },
            "ctb2High": null
          },
          "notes": [
            {
              "pitch": 67,
              "velocity": 74,
              "position": 0,
              "duration": 15.989583333333334
            },
            {
              "pitch": 71,
              "velocity": 74,
              "position": 0,
              "duration": 15.989583333333334
            },
            {
              "pitch": 76,
              "velocity": 74,
              "position": 0,
              "duration": 15.989583333333334
            }
          ]
        },
        "7": {
          "ctab": {
            "srcChannel": 7,
            "name": "OrgRoot",
            "accType": "PAD",
            "editable": false,
            "mutedNotes": [],
            "mutedChords": [
              "1+2+5",
              "sus4",
              "1+5",
              "1+8",
              "Maj7aug",
              "dim",
              "minMaj7(9)",
              "minMaj7",
              "min6",
              "min",
              "aug",
              "Maj7(9)",
              "Maj7#11",
              "Maj7",
              "Maj6",
              "Maj"
            ],
            "autoStart": false,
            "sourceChordNote": 0,
            "sourceChordType": "Maj7",
            "ctb2Low": null,
            "ctb2Main": {
              "ntr": "ROOT_TRANSPOSITION",
              "ntt": "CHORD",
              "bassOn": false,
              "chordRootUpperLimit": 6,
              "noteLowLimit": 0,
              "noteHighLimit": 127,
              "rtr": "PITCH_SHIFT"
            },
            "ctb2High": null
          },
          "notes": [
            {
              "pitch": 72,
              "velocity": 74,
              "position": 0,
              "duration": 15.989583333333334
            }
          ]
        },
        "8": {
          "ctab": {
            "srcChannel": 8,
            "name": "Perc",
            "accType": "SUBRHYTHM",
            "editable": false,
            "mutedNotes": [],
            "mutedChords": [],
            "autoStart": true,
            "sourceChordNote": 0,
            "sourceChordType": "Maj7",
            "ctb2Low": null,
            "ctb2Main": {
              "ntr": "ROOT_FIXED",
              "ntt": "BYPASS",
              "bassOn": false,
              "chordRootUpperLimit": 6,
              "noteLowLimit": 0,
              "noteHighLimit": 127,
              "rtr": "PITCH_SHIFT"
            },
            "ctb2High": null
          },
          "notes": [
            {
              "pitch": 54,
              "velocity": 60,
              "position": 0,
              "duration": 0.010416666666666666
            },
            {
              "pitch": 54,
              "velocity": 14,
              "position": 0.6875,
              "duration": 0.010416666666666666
            },
            {
              "pitch": 39,
              "velocity": 94,
              "position": 1,
              "duration": 0.010416666666666666
            },
            {
              "pitch": 54,
              "velocity": 105,
              "position": 1,
              "duration": 0.010416666666666666
            },
            {
              "pitch": 54,
              "velocity": 14,
              "position": 1.6875,
              "duration": 0.010416666666666666
            },
            {
              "pitch": 54,
              "velocity": 60,
              "position": 2,
              "duration": 0.010416666666666666
            },
            {
              "pitch": 54,
              "velocity": 14,
              "position": 2.6875,
              "duration": 0.010416666666666666
            },
            {
              "pitch": 39,
              "velocity": 94,
              "position": 3,
              "duration": 0.010416666666666666
            },
            {
              "pitch": 54,
              "velocity": 105,
              "position": 3,
              "duration": 0.010416666666666666
            },
            {
              "pitch": 54,
              "velocity": 14,
              "position": 3.6875,
              "duration": 0.010416666666666666
            },
            {
              "pitch": 54,
              "velocity": 60,
              "position": 4,
              "duration": 0.010416666666666666
            },
            {
              "pitch": 54,
              "velocity": 14,
              "position": 4.6875,
              "duration": 0.010416666666666666
            },
            {
              "pitch": 39,
              "velocity": 94,
              "position": 5,
              "duration": 0.010416666666666666
            },
            {
              "pitch": 54,
              "velocity": 105,
              "position": 5,
              "duration": 0.010416666666666666
            },
            {
              "pitch": 54,
              "velocity": 14,
              "position": 5.6875,
              "duration": 0.010416666666666666
            },
            {
              "pitch": 54,
              "velocity": 60,
              "position": 6,
              "duration": 0.010416666666666666
            },
            {
              "pitch": 54,
              "velocity": 14,
              "position": 6.6875,
              "duration": 0.010416666666666666
            },
            {
              "pitch": 39,
              "velocity": 94,
              "position": 7,
              "duration": 0.010416666666666666
            },
            {
              "pitch": 54,
              "velocity": 105,
              "position": 7,
              "duration": 0.010416666666666666
            },
            {
              "pitch": 54,
              "velocity": 14,
              "position": 7.6875,
              "duration": 0.010416666666666666
            },
            {
              "pitch": 54,
              "velocity": 60,
              "position": 8,
              "duration": 0.010416666666666666
            },
            {
              "pitch": 54,
              "velocity": 14,
              "position": 8.6875,
              "duration": 0.010416666666666666
            },
            {
              "pitch": 39,
              "velocity": 94,
              "position": 9,
              "duration": 0.010416666666666666
            },
            {
              "pitch": 54,
              "velocity": 105,
              "position": 9,
              "duration": 0.010416666666666666
            },
            {
              "pitch": 54,
              "velocity": 14,
              "position": 9.6875,
              "duration": 0.010416666666666666
            },
            {
              "pitch": 54,
              "velocity": 60,
              "position": 10,
              "duration": 0.010416666666666666
            },
            {
              "pitch": 54,
              "velocity": 14,
              "position": 10.6875,
              "duration": 0.010416666666666666
            },
            {
              "pitch": 39,
              "velocity": 94,
              "position": 11,
              "duration": 0.010416666666666666
            },
            {
              "pitch": 54,
              "velocity": 105,
              "position": 11,
              "duration": 0.010416666666666666
            },
            {
              "pitch": 54,
              "velocity": 14,
              "position": 11.6875,
              "duration": 0.010416666666666666
            },
            {
              "pitch": 54,
              "velocity": 60,
              "position": 12,
              "duration": 0.010416666666666666
            },
            {
              "pitch": 54,
              "velocity": 14,
              "position": 12.6875,
              "duration": 0.010416666666666666
            },
            {
              "pitch": 39,
              "velocity": 94,
              "position": 13,
              "duration": 0.010416666666666666
            },
            {
              "pitch": 54,
              "velocity": 105,
              "position": 13,
              "duration": 0.010416666666666666
            },
            {
              "pitch": 54,
              "velocity": 14,
              "position": 13.6875,
              "duration": 0.010416666666666666
            },
            {
              "pitch": 54,
              "velocity": 60,
              "position": 14,
              "duration": 0.010416666666666666
            },
            {
              "pitch": 54,
              "velocity": 14,
              "position": 14.6875,
              "duration": 0.010416666666666666
            },
            {
              "pitch": 39,
              "velocity": 94,
              "position": 15,
              "duration": 0.010416666666666666
            },
            {
              "pitch": 54,
              "velocity": 105,
              "position": 15,
              "duration": 0.010416666666666666
            },
            {
              "pitch": 54,
              "velocity": 14,
              "position": 15.6875,
              "duration": 0.010416666666666666
            }
          ]
        },
        "9": {
          "ctab": {
            "srcChannel": 9,
            "name": "Rhyth2",
            "accType": "RHYTHM",
            "editable": false,
            "mutedNotes": [],
            "mutedChords": [],
            "autoStart": true,
            "sourceChordNote": 0,
            "sourceChordType": "Maj7",
            "ctb2Low": null,
            "ctb2Main": {
              "ntr": "ROOT_FIXED",
              "ntt": "BYPASS",
              "bassOn": false,
              "chordRootUpperLimit": 6,
              "noteLowLimit": 0,
              "noteHighLimit": 127,
              "rtr": "PITCH_SHIFT"
            },
            "ctb2High": null
          },
          "notes": [
            {
              "pitch": 36,
              "velocity": 80,
              "position": 0,
              "duration": 0.010416666666666666
            },
            {
              "pitch": 42,
              "velocity": 90,
              "position": 0,
              "duration": 0.010416666666666666
            },
            {
              "pitch": 42,
              "velocity": 31,
              "position": 0.6875,
              "duration": 0.010416666666666666
            },
            {
              "pitch": 40,
              "velocity": 80,
              "position": 1,
              "duration": 0.010416666666666666
            },
            {
              "pitch": 42,
              "velocity": 80,
              "position": 1,
              "duration": 0.010416666666666666
            },
            {
              "pitch": 42,
              "velocity": 31,
              "position": 1.6875,
              "duration": 0.010416666666666666
            },
            {
              "pitch": 36,
              "velocity": 80,
              "position": 2,
              "duration": 0.010416666666666666
            },
            {
              "pitch": 42,
              "velocity": 90,
              "position": 2,
              "duration": 0.010416666666666666
            },
            {
              "pitch": 42,
              "velocity": 31,
              "position": 2.6875,
              "duration": 0.010416666666666666
            },
            {
              "pitch": 40,
              "velocity": 80,
              "position": 3,
              "duration": 0.010416666666666666
            },
            {
              "pitch": 42,
              "velocity": 80,
              "position": 3,
              "duration": 0.010416666666666666
            },
            {
              "pitch": 42,
              "velocity": 31,
              "position": 3.6875,
              "duration": 0.010416666666666666
            },
            {
              "pitch": 36,
              "velocity": 80,
              "position": 4,
              "duration": 0.010416666666666666
            },
            {
              "pitch": 42,
              "velocity": 90,
              "position": 4,
              "duration": 0.010416666666666666
            },
            {
              "pitch": 42,
              "velocity": 31,
              "position": 4.6875,
              "duration": 0.010416666666666666
            },
            {
              "pitch": 40,
              "velocity": 80,
              "position": 5,
              "duration": 0.010416666666666666
            },
            {
              "pitch": 42,
              "velocity": 80,
              "position": 5,
              "duration": 0.010416666666666666
            },
            {
              "pitch": 42,
              "velocity": 31,
              "position": 5.6875,
              "duration": 0.010416666666666666
            },
            {
              "pitch": 36,
              "velocity": 80,
              "position": 6,
              "duration": 0.010416666666666666
            },
            {
              "pitch": 42,
              "velocity": 90,
              "position": 6,
              "duration": 0.010416666666666666
            },
            {
              "pitch": 42,
              "velocity": 31,
              "position": 6.6875,
              "duration": 0.010416666666666666
            },
            {
              "pitch": 40,
              "velocity": 80,
              "position": 7,
              "duration": 0.010416666666666666
            },
            {
              "pitch": 42,
              "velocity": 80,
              "position": 7,
              "duration": 0.010416666666666666
            },
            {
              "pitch": 42,
              "velocity": 31,
              "position": 7.6875,
              "duration": 0.010416666666666666
            },
            {
              "pitch": 36,
              "velocity": 80,
              "position": 8,
              "duration": 0.010416666666666666
            },
            {
              "pitch": 42,
              "velocity": 90,
              "position": 8,
              "duration": 0.010416666666666666
            },
            {
              "pitch": 42,
              "velocity": 31,
              "position": 8.6875,
              "duration": 0.010416666666666666
            },
            {
              "pitch": 40,
              "velocity": 80,
              "position": 9,
              "duration": 0.010416666666666666
            },
            {
              "pitch": 42,
              "velocity": 80,
              "position": 9,
              "duration": 0.010416666666666666
            },
            {
              "pitch": 42,
              "velocity": 31,
              "position": 9.6875,
              "duration": 0.010416666666666666
            },
            {
              "pitch": 36,
              "velocity": 80,
              "position": 10,
              "duration": 0.010416666666666666
            },
            {
              "pitch": 42,
              "velocity": 90,
              "position": 10,
              "duration": 0.010416666666666666
            },
            {
              "pitch": 42,
              "velocity": 31,
              "position": 10.6875,
              "duration": 0.010416666666666666
            },
            {
              "pitch": 40,
              "velocity": 80,
              "position": 11,
              "duration": 0.010416666666666666
            },
            {
              "pitch": 42,
              "velocity": 80,
              "position": 11,
              "duration": 0.010416666666666666
            },
            {
              "pitch": 42,
              "velocity": 31,
              "position": 11.6875,
              "duration": 0.010416666666666666
            },
            {
              "pitch": 36,
              "velocity": 80,
              "position": 12,
              "duration": 0.010416666666666666
            },
            {
              "pitch": 42,
              "velocity": 90,
              "position": 12,
              "duration": 0.010416666666666666
            },
            {
              "pitch": 42,
              "velocity": 31,
              "position": 12.6875,
              "duration": 0.010416666666666666
            },
            {
              "pitch": 40,
              "velocity": 80,
              "position": 13,
              "duration": 0.010416666666666666
            },
            {
              "pitch": 42,
              "velocity": 80,
              "position": 13,
              "duration": 0.010416666666666666
            },
            {
              "pitch": 42,
              "velocity": 31,
              "position": 13.6875,
              "duration": 0.010416666666666666
            },
            {
              "pitch": 36,
              "velocity": 80,
              "position": 14,
              "duration": 0.010416666666666666
            },
            {
              "pitch": 42,
              "velocity": 90,
              "position": 14,
              "duration": 0.010416666666666666
            },
            {
              "pitch": 42,
              "velocity": 31,
              "position": 14.6875,
              "duration": 0.010416666666666666
            },
            {
              "pitch": 40,
              "velocity": 80,
              "position": 15,
              "duration": 0.010416666666666666
            },
            {
              "pitch": 42,
              "velocity": 80,
              "position": 15,
              "duration": 0.010416666666666666
            },
            {
              "pitch": 42,
              "velocity": 31,
              "position": 15.6875,
              "duration": 0.010416666666666666
            }
          ]
        },
        "11": {
          "ctab": {
            "srcChannel": 11,
            "name": "Guit SFX",
            "accType": "CHORD1",
            "editable": false,
            "mutedNotes": [],
            "mutedChords": [],
            "autoStart": false,
            "sourceChordNote": 0,
            "sourceChordType": "Maj7",
            "ctb2Low": null,
            "ctb2Main": {
              "ntr": "ROOT_FIXED",
              "ntt": "BYPASS",
              "bassOn": false,
              "chordRootUpperLimit": 7,
              "noteLowLimit": 0,
              "noteHighLimit": 79,
              "rtr": "PITCH_SHIFT"
            },
            "ctb2High": null
          },
          "notes": [
            {
              "pitch": 108,
              "velocity": 65,
              "position": 0,
              "duration": 0.65625
            },
            {
              "pitch": 99,
              "velocity": 95,
              "position": 0.6666666666666666,
              "duration": 0.22916666666666666
            },
            {
              "pitch": 96,
              "velocity": 105,
              "position": 1,
              "duration": 0.22916666666666666
            },
            {
              "pitch": 103,
              "velocity": 95,
              "position": 1.6666666666666667,
              "duration": 0.22916666666666666
            },
            {
              "pitch": 100,
              "velocity": 70,
              "position": 2,
              "duration": 0.22916666666666666
            },
            {
              "pitch": 99,
              "velocity": 89,
              "position": 2.6666666666666665,
              "duration": 0.22916666666666666
            },
            {
              "pitch": 96,
              "velocity": 105,
              "position": 3,
              "duration": 0.22916666666666666
            },
            {
              "pitch": 105,
              "velocity": 89,
              "position": 3.6666666666666665,
              "duration": 0.22916666666666666
            },
            {
              "pitch": 108,
              "velocity": 65,
              "position": 4,
              "duration": 0.65625
            },
            {
              "pitch": 99,
              "velocity": 89,
              "position": 4.666666666666667,
              "duration": 0.22916666666666666
            },
            {
              "pitch": 96,
              "velocity": 105,
              "position": 5,
              "duration": 0.22916666666666666
            },
            {
              "pitch": 103,
              "velocity": 95,
              "position": 5.666666666666667,
              "duration": 0.22916666666666666
            },
            {
              "pitch": 100,
              "velocity": 66,
              "position": 6,
              "duration": 0.22916666666666666
            },
            {
              "pitch": 99,
              "velocity": 89,
              "position": 6.666666666666667,
              "duration": 0.22916666666666666
            },
            {
              "pitch": 96,
              "velocity": 105,
              "position": 7,
              "duration": 0.22916666666666666
            },
            {
              "pitch": 105,
              "velocity": 84,
              "position": 7.666666666666667,
              "duration": 0.22916666666666666
            },
            {
              "pitch": 108,
              "velocity": 65,
              "position": 8,
              "duration": 0.65625
            },
            {
              "pitch": 99,
              "velocity": 95,
              "position": 8.666666666666666,
              "duration": 0.22916666666666666
            },
            {
              "pitch": 96,
              "velocity": 105,
              "position": 9,
              "duration": 0.22916666666666666
            },
            {
              "pitch": 103,
              "velocity": 95,
              "position": 9.666666666666666,
              "duration": 0.22916666666666666
            },
            {
              "pitch": 100,
              "velocity": 70,
              "position": 10,
              "duration": 0.22916666666666666
            },
            {
              "pitch": 99,
              "velocity": 89,
              "position": 10.666666666666666,
              "duration": 0.22916666666666666
            },
            {
              "pitch": 96,
              "velocity": 105,
              "position": 11,
              "duration": 0.22916666666666666
            },
            {
              "pitch": 105,
              "velocity": 75,
              "position": 11.666666666666666,
              "duration": 0.22916666666666666
            },
            {
              "pitch": 108,
              "velocity": 65,
              "position": 12,
              "duration": 0.65625
            },
            {
              "pitch": 99,
              "velocity": 89,
              "position": 12.666666666666666,
              "duration": 0.22916666666666666
            },
            {
              "pitch": 96,
              "velocity": 105,
              "position": 13,
              "duration": 0.22916666666666666
            },
            {
              "pitch": 103,
              "velocity": 95,
              "position": 13.666666666666666,
              "duration": 0.22916666666666666
            },
            {
              "pitch": 100,
              "velocity": 76,
              "position": 14,
              "duration": 0.22916666666666666
            },
            {
              "pitch": 99,
              "velocity": 89,
              "position": 14.666666666666666,
              "duration": 0.22916666666666666
            },
            {
              "pitch": 96,
              "velocity": 105,
              "position": 15,
              "duration": 0.22916666666666666
            },
            {
              "pitch": 103,
              "velocity": 77,
              "position": 15.666666666666666,
              "duration": 0.22916666666666666
            }
          ]
        },
        "12": {
          "ctab": {
            "srcChannel": 12,
            "name": "GtRootTr",
            "accType": "CHORD1",
            "editable": false,
            "mutedNotes": [],
            "mutedChords": [
              "1+2+5",
              "sus4",
              "1+5",
              "1+8",
              "Maj7aug",
              "dim",
              "minMaj7(9)",
              "minMaj7",
              "min6",
              "min",
              "aug",
              "Maj7(9)",
              "Maj7#11",
              "Maj7",
              "Maj6",
              "Maj"
            ],
            "autoStart": false,
            "sourceChordNote": 0,
            "sourceChordType": "Maj7",
            "ctb2Low": null,
            "ctb2Main": {
              "ntr": "ROOT_TRANSPOSITION",
              "ntt": "CHORD",
              "bassOn": false,
              "chordRootUpperLimit": 10,
              "noteLowLimit": 0,
              "noteHighLimit": 127,
              "rtr": "PITCH_SHIFT"
            },
            "ctb2High": null
          },
          "notes": [
            {
              "pitch": 60,
              "velocity": 21,
              "position": 0.014583333333333334,
              "duration": 0.65625
            },
            {
              "pitch": 60,
              "velocity": 14,
              "position": 0.68125,
              "duration": 0.31875
            },
            {
              "pitch": 60,
              "velocity": 35,
              "position": 1.0145833333333334,
              "duration": 0.17708333333333334
            },
            {
              "pitch": 60,
              "velocity": 20,
              "position": 1.68125,
              "duration": 0.15625
            },
            {
              "pitch": 60,
              "velocity": 19,
              "position": 2.68125,
              "duration": 0.31875
            },
            {
              "pitch": 60,
              "velocity": 33,
              "position": 3.0145833333333334,
              "duration": 0.17708333333333334
            },
            {
              "pitch": 60,
              "velocity": 18,
              "position": 3.68125,
              "duration": 0.3229166666666667
            },
            {
              "pitch": 60,
              "velocity": 22,
              "position": 4.014583333333333,
              "duration": 0.65625
            },
            {
              "pitch": 60,
              "velocity": 14,
              "position": 4.68125,
              "duration": 0.31875
            },
            {
              "pitch": 60,
              "velocity": 32,
              "position": 5.014583333333333,
              "duration": 0.17708333333333334
            },
            {
              "pitch": 60,
              "velocity": 22,
              "position": 5.68125,
              "duration": 0.20833333333333334
            },
            {
              "pitch": 60,
              "velocity": 14,
              "position": 6.68125,
              "duration": 0.31875
            },
            {
              "pitch": 60,
              "velocity": 31,
              "position": 7.014583333333333,
              "duration": 0.17708333333333334
            },
            {
              "pitch": 60,
              "velocity": 18,
              "position": 7.68125,
              "duration": 0.3229166666666667
            },
            {
              "pitch": 60,
              "velocity": 22,
              "position": 8.014583333333333,
              "duration": 0.65625
            },
            {
              "pitch": 60,
              "velocity": 22,
              "position": 8.68125,
              "duration": 0.31875
            },
            {
              "pitch": 60,
              "velocity": 35,
              "position": 9.014583333333333,
              "duration": 0.17708333333333334
            },
            {
              "pitch": 60,
              "velocity": 19,
              "position": 9.68125,
              "duration": 0.20833333333333334
            },
            {
              "pitch": 60,
              "velocity": 15,
              "position": 10.68125,
              "duration": 0.31875
            },
            {
              "pitch": 60,
              "velocity": 34,
              "position": 11.014583333333333,
              "duration": 0.17708333333333334
            },
            {
              "pitch": 60,
              "velocity": 18,
              "position": 11.68125,
              "duration": 0.3229166666666667
            },
            {
              "pitch": 60,
              "velocity": 22,
              "position": 12.014583333333333,
              "duration": 0.65625
            },
            {
              "pitch": 60,
              "velocity": 22,
              "position": 12.68125,
              "duration": 0.31875
            },
            {
              "pitch": 60,
              "velocity": 33,
              "position": 13.014583333333333,
              "duration": 0.17708333333333334
            },
            {
              "pitch": 60,
              "velocity": 19,
              "position": 13.68125,
              "duration": 0.20833333333333334
            },
            {
              "pitch": 60,
              "velocity": 16,
              "position": 14.68125,
              "duration": 0.31875
            },
            {
              "pitch": 60,
              "velocity": 34,
              "position": 15.014583333333333,
              "duration": 0.17708333333333334
            },
            {
              "pitch": 60,
              "velocity": 11,
              "position": 15.68125,
              "duration": 0.3104166666666667
            }
          ]
        },
        "13": {
          "ctab": {
            "srcChannel": 13,
            "name": "B2-E3-G3",
            "accType": "CHORD1",
            "editable": false,
            "mutedNotes": [],
            "mutedChords": [],
            "autoStart": false,
            "sourceChordNote": 0,
            "sourceChordType": "Maj7",
            "ctb2Low": null,
            "ctb2Main": {
              "ntr": "ROOT_FIXED",
              "ntt": "CHORD",
              "bassOn": false,
              "chordRootUpperLimit": 7,
              "noteLowLimit": 0,
              "noteHighLimit": 127,
              "rtr": "PITCH_SHIFT"
            },
            "ctb2High": null
          },
          "notes": [
            {
              "pitch": 59,
              "velocity": 21,
              "position": 0,
              "duration": 0.65625
            },
            {
              "pitch": 64,
              "velocity": 21,
              "position": 0.020833333333333332,
              "duration": 0.65625
            },
            {
              "pitch": 67,
              "velocity": 21,
              "position": 0.041666666666666664,
              "duration": 0.65625
            },
            {
              "pitch": 59,
              "velocity": 14,
              "position": 0.6666666666666666,
              "duration": 0.3229166666666667
            },
            {
              "pitch": 64,
              "velocity": 14,
              "position": 0.6875,
              "duration": 0.3229166666666667
            },
            {
              "pitch": 67,
              "velocity": 14,
              "position": 0.7083333333333334,
              "duration": 0.3229166666666667
            },
            {
              "pitch": 59,
              "velocity": 31,
              "position": 1,
              "duration": 0.17708333333333334
            },
            {
              "pitch": 64,
              "velocity": 35,
              "position": 1.0208333333333333,
              "duration": 0.17708333333333334
            },
            {
              "pitch": 67,
              "velocity": 36,
              "position": 1.0416666666666667,
              "duration": 0.17708333333333334
            },
            {
              "pitch": 59,
              "velocity": 20,
              "position": 1.6666666666666667,
              "duration": 0.15625
            },
            {
              "pitch": 64,
              "velocity": 20,
              "position": 1.6875,
              "duration": 0.15625
            },
            {
              "pitch": 67,
              "velocity": 20,
              "position": 1.7083333333333333,
              "duration": 0.15625
            },
            {
              "pitch": 59,
              "velocity": 19,
              "position": 2.6666666666666665,
              "duration": 0.3229166666666667
            },
            {
              "pitch": 64,
              "velocity": 19,
              "position": 2.6875,
              "duration": 0.3229166666666667
            },
            {
              "pitch": 67,
              "velocity": 19,
              "position": 2.7083333333333335,
              "duration": 0.3229166666666667
            },
            {
              "pitch": 59,
              "velocity": 32,
              "position": 3,
              "duration": 0.17708333333333334
            },
            {
              "pitch": 64,
              "velocity": 33,
              "position": 3.0208333333333335,
              "duration": 0.17708333333333334
            },
            {
              "pitch": 67,
              "velocity": 33,
              "position": 3.0416666666666665,
              "duration": 0.17708333333333334
            },
            {
              "pitch": 59,
              "velocity": 18,
              "position": 3.6666666666666665,
              "duration": 0.3229166666666667
            },
            {
              "pitch": 64,
              "velocity": 18,
              "position": 3.6875,
              "duration": 0.3229166666666667
            },
            {
              "pitch": 67,
              "velocity": 18,
              "position": 3.7083333333333335,
              "duration": 0.3229166666666667
            },
            {
              "pitch": 59,
              "velocity": 22,
              "position": 4,
              "duration": 0.65625
            },
            {
              "pitch": 64,
              "velocity": 22,
              "position": 4.020833333333333,
              "duration": 0.65625
            },
            {
              "pitch": 67,
              "velocity": 22,
              "position": 4.041666666666667,
              "duration": 0.65625
            },
            {
              "pitch": 59,
              "velocity": 14,
              "position": 4.666666666666667,
              "duration": 0.3229166666666667
            },
            {
              "pitch": 64,
              "velocity": 14,
              "position": 4.6875,
              "duration": 0.3229166666666667
            },
            {
              "pitch": 67,
              "velocity": 14,
              "position": 4.708333333333333,
              "duration": 0.3229166666666667
            },
            {
              "pitch": 59,
              "velocity": 35,
              "position": 5,
              "duration": 0.17708333333333334
            },
            {
              "pitch": 64,
              "velocity": 32,
              "position": 5.020833333333333,
              "duration": 0.17708333333333334
            },
            {
              "pitch": 67,
              "velocity": 31,
              "position": 5.041666666666667,
              "duration": 0.17708333333333334
            },
            {
              "pitch": 59,
              "velocity": 22,
              "position": 5.666666666666667,
              "duration": 0.20833333333333334
            },
            {
              "pitch": 64,
              "velocity": 22,
              "position": 5.6875,
              "duration": 0.20833333333333334
            },
            {
              "pitch": 67,
              "velocity": 22,
              "position": 5.708333333333333,
              "duration": 0.20833333333333334
            },
            {
              "pitch": 59,
              "velocity": 14,
              "position": 6.666666666666667,
              "duration": 0.3229166666666667
            },
            {
              "pitch": 64,
              "velocity": 14,
              "position": 6.6875,
              "duration": 0.3229166666666667
            },
            {
              "pitch": 67,
              "velocity": 14,
              "position": 6.708333333333333,
              "duration": 0.3229166666666667
            },
            {
              "pitch": 59,
              "velocity": 32,
              "position": 7,
              "duration": 0.17708333333333334
            },
            {
              "pitch": 64,
              "velocity": 31,
              "position": 7.020833333333333,
              "duration": 0.17708333333333334
            },
            {
              "pitch": 67,
              "velocity": 35,
              "position": 7.041666666666667,
              "duration": 0.17708333333333334
            },
            {
              "pitch": 59,
              "velocity": 18,
              "position": 7.666666666666667,
              "duration": 0.3229166666666667
            },
            {
              "pitch": 64,
              "velocity": 18,
              "position": 7.6875,
              "duration": 0.3229166666666667
            },
            {
              "pitch": 67,
              "velocity": 18,
              "position": 7.708333333333333,
              "duration": 0.3229166666666667
            },
            {
              "pitch": 59,
              "velocity": 22,
              "position": 8,
              "duration": 0.65625
            },
            {
              "pitch": 64,
              "velocity": 22,
              "position": 8.020833333333334,
              "duration": 0.65625
            },
            {
              "pitch": 67,
              "velocity": 22,
              "position": 8.041666666666666,
              "duration": 0.65625
            },
            {
              "pitch": 59,
              "velocity": 22,
              "position": 8.666666666666666,
              "duration": 0.3229166666666667
            },
            {
              "pitch": 64,
              "velocity": 22,
              "position": 8.6875,
              "duration": 0.3229166666666667
            },
            {
              "pitch": 67,
              "velocity": 22,
              "position": 8.708333333333334,
              "duration": 0.3229166666666667
            },
            {
              "pitch": 59,
              "velocity": 34,
              "position": 9,
              "duration": 0.17708333333333334
            },
            {
              "pitch": 64,
              "velocity": 35,
              "position": 9.020833333333334,
              "duration": 0.17708333333333334
            },
            {
              "pitch": 67,
              "velocity": 36,
              "position": 9.041666666666666,
              "duration": 0.17708333333333334
            },
            {
              "pitch": 59,
              "velocity": 19,
              "position": 9.666666666666666,
              "duration": 0.20833333333333334
            },
            {
              "pitch": 64,
              "velocity": 19,
              "position": 9.6875,
              "duration": 0.20833333333333334
            },
            {
              "pitch": 67,
              "velocity": 19,
              "position": 9.708333333333334,
              "duration": 0.20833333333333334
            },
            {
              "pitch": 59,
              "velocity": 15,
              "position": 10.666666666666666,
              "duration": 0.3229166666666667
            },
            {
              "pitch": 64,
              "velocity": 15,
              "position": 10.6875,
              "duration": 0.3229166666666667
            },
            {
              "pitch": 67,
              "velocity": 15,
              "position": 10.708333333333334,
              "duration": 0.3229166666666667
            },
            {
              "pitch": 59,
              "velocity": 35,
              "position": 11,
              "duration": 0.17708333333333334
            },
            {
              "pitch": 64,
              "velocity": 34,
              "position": 11.020833333333334,
              "duration": 0.17708333333333334
            },
            {
              "pitch": 67,
              "velocity": 37,
              "position": 11.041666666666666,
              "duration": 0.17708333333333334
            },
            {
              "pitch": 59,
              "velocity": 18,
              "position": 11.666666666666666,
              "duration": 0.3229166666666667
            },
            {
              "pitch": 64,
              "velocity": 18,
              "position": 11.6875,
              "duration": 0.3229166666666667
            },
            {
              "pitch": 67,
              "velocity": 18,
              "position": 11.708333333333334,
              "duration": 0.3229166666666667
            },
            {
              "pitch": 59,
              "velocity": 22,
              "position": 12,
              "duration": 0.65625
            },
            {
              "pitch": 64,
              "velocity": 22,
              "position": 12.020833333333334,
              "duration": 0.65625
            },
            {
              "pitch": 67,
              "velocity": 22,
              "position": 12.041666666666666,
              "duration": 0.65625
            },
            {
              "pitch": 59,
              "velocity": 22,
              "position": 12.666666666666666,
              "duration": 0.3229166666666667
            },
            {
              "pitch": 64,
              "velocity": 22,
              "position": 12.6875,
              "duration": 0.3229166666666667
            },
            {
              "pitch": 67,
              "velocity": 22,
              "position": 12.708333333333334,
              "duration": 0.3229166666666667
            },
            {
              "pitch": 59,
              "velocity": 31,
              "position": 13,
              "duration": 0.17708333333333334
            },
            {
              "pitch": 64,
              "velocity": 33,
              "position": 13.020833333333334,
              "duration": 0.17708333333333334
            },
            {
              "pitch": 67,
              "velocity": 32,
              "position": 13.041666666666666,
              "duration": 0.17708333333333334
            },
            {
              "pitch": 59,
              "velocity": 19,
              "position": 13.666666666666666,
              "duration": 0.20833333333333334
            },
            {
              "pitch": 64,
              "velocity": 19,
              "position": 13.6875,
              "duration": 0.20833333333333334
            },
            {
              "pitch": 67,
              "velocity": 19,
              "position": 13.708333333333334,
              "duration": 0.20833333333333334
            },
            {
              "pitch": 59,
              "velocity": 16,
              "position": 14.666666666666666,
              "duration": 0.3229166666666667
            },
            {
              "pitch": 64,
              "velocity": 16,
              "position": 14.6875,
              "duration": 0.3229166666666667
            },
            {
              "pitch": 67,
              "velocity": 16,
              "position": 14.708333333333334,
              "duration": 0.3229166666666667
            },
            {
              "pitch": 59,
              "velocity": 36,
              "position": 15,
              "duration": 0.17708333333333334
            },
            {
              "pitch": 64,
              "velocity": 34,
              "position": 15.020833333333334,
              "duration": 0.17708333333333334
            },
            {
              "pitch": 67,
              "velocity": 33,
              "position": 15.041666666666666,
              "duration": 0.17708333333333334
            },
            {
              "pitch": 59,
              "velocity": 11,
              "position": 15.666666666666666,
              "duration": 0.3229166666666667
            },
            {
              "pitch": 64,
              "velocity": 11,
              "position": 15.6875,
              "duration": 0.3020833333333333
            },
            {
              "pitch": 67,
              "velocity": 11,
              "position": 15.708333333333334,
              "duration": 0.28125
            }
          ]
        },
        "14": {
          "ctab": {
            "srcChannel": 14,
            "name": "Fifth G2",
            "accType": "CHORD1",
            "editable": false,
            "mutedNotes": [
              6,
              5,
              4,
              3
            ],
            "mutedChords": [],
            "autoStart": false,
            "sourceChordNote": 0,
            "sourceChordType": "Maj7",
            "ctb2Low": null,
            "ctb2Main": {
              "ntr": "ROOT_TRANSPOSITION",
              "ntt": "CHORD",
              "bassOn": false,
              "chordRootUpperLimit": 3,
              "noteLowLimit": 0,
              "noteHighLimit": 127,
              "rtr": "PITCH_SHIFT"
            },
            "ctb2High": null
          },
          "notes": [
            {
              "pitch": 55,
              "velocity": 21,
              "position": 0.010416666666666666,
              "duration": 0.65625
            },
            {
              "pitch": 55,
              "velocity": 14,
              "position": 0.6770833333333334,
              "duration": 0.3229166666666667
            },
            {
              "pitch": 55,
              "velocity": 31,
              "position": 1.0104166666666667,
              "duration": 0.17708333333333334
            },
            {
              "pitch": 55,
              "velocity": 20,
              "position": 1.6770833333333333,
              "duration": 0.15625
            },
            {
              "pitch": 55,
              "velocity": 19,
              "position": 2.6770833333333335,
              "duration": 0.3229166666666667
            },
            {
              "pitch": 55,
              "velocity": 32,
              "position": 3.0104166666666665,
              "duration": 0.17708333333333334
            },
            {
              "pitch": 55,
              "velocity": 18,
              "position": 3.6770833333333335,
              "duration": 0.3229166666666667
            },
            {
              "pitch": 55,
              "velocity": 22,
              "position": 4.010416666666667,
              "duration": 0.65625
            },
            {
              "pitch": 55,
              "velocity": 14,
              "position": 4.677083333333333,
              "duration": 0.3229166666666667
            },
            {
              "pitch": 55,
              "velocity": 35,
              "position": 5.010416666666667,
              "duration": 0.17708333333333334
            },
            {
              "pitch": 55,
              "velocity": 22,
              "position": 5.677083333333333,
              "duration": 0.20833333333333334
            },
            {
              "pitch": 55,
              "velocity": 14,
              "position": 6.677083333333333,
              "duration": 0.3229166666666667
            },
            {
              "pitch": 55,
              "velocity": 32,
              "position": 7.010416666666667,
              "duration": 0.17708333333333334
            },
            {
              "pitch": 55,
              "velocity": 18,
              "position": 7.677083333333333,
              "duration": 0.3229166666666667
            },
            {
              "pitch": 55,
              "velocity": 22,
              "position": 8.010416666666666,
              "duration": 0.65625
            },
            {
              "pitch": 55,
              "velocity": 22,
              "position": 8.677083333333334,
              "duration": 0.3229166666666667
            },
            {
              "pitch": 55,
              "velocity": 34,
              "position": 9.010416666666666,
              "duration": 0.17708333333333334
            },
            {
              "pitch": 55,
              "velocity": 19,
              "position": 9.677083333333334,
              "duration": 0.20833333333333334
            },
            {
              "pitch": 55,
              "velocity": 15,
              "position": 10.677083333333334,
              "duration": 0.3229166666666667
            },
            {
              "pitch": 55,
              "velocity": 35,
              "position": 11.010416666666666,
              "duration": 0.17708333333333334
            },
            {
              "pitch": 55,
              "velocity": 18,
              "position": 11.677083333333334,
              "duration": 0.3229166666666667
            },
            {
              "pitch": 55,
              "velocity": 22,
              "position": 12.010416666666666,
              "duration": 0.65625
            },
            {
              "pitch": 55,
              "velocity": 22,
              "position": 12.677083333333334,
              "duration": 0.3229166666666667
            },
            {
              "pitch": 55,
              "velocity": 31,
              "position": 13.010416666666666,
              "duration": 0.17708333333333334
            },
            {
              "pitch": 55,
              "velocity": 19,
              "position": 13.677083333333334,
              "duration": 0.20833333333333334
            },
            {
              "pitch": 55,
              "velocity": 16,
              "position": 14.677083333333334,
              "duration": 0.3229166666666667
            },
            {
              "pitch": 55,
              "velocity": 36,
              "position": 15.010416666666666,
              "duration": 0.17708333333333334
            },
            {
              "pitch": 55,
              "velocity": 11,
              "position": 15.677083333333334,
              "duration": 0.3125
            }
          ]
        },
        "15": {
          "ctab": {
            "srcChannel": 15,
            "name": "Root C2",
            "accType": "CHORD1",
            "editable": false,
            "mutedNotes": [
              11,
              2,
              1,
              0
            ],
            "mutedChords": [],
            "autoStart": false,
            "sourceChordNote": 0,
            "sourceChordType": "Maj7",
            "ctb2Low": null,
            "ctb2Main": {
              "ntr": "ROOT_TRANSPOSITION",
              "ntt": "CHORD",
              "bassOn": false,
              "chordRootUpperLimit": 10,
              "noteLowLimit": 0,
              "noteHighLimit": 127,
              "rtr": "PITCH_SHIFT"
            },
            "ctb2High": null
          },
          "notes": [
            {
              "pitch": 48,
              "velocity": 21,
              "position": 0,
              "duration": 0.65625
            },
            {
              "pitch": 48,
              "velocity": 14,
              "position": 0.6666666666666666,
              "duration": 0.3229166666666667
            },
            {
              "pitch": 48,
              "velocity": 31,
              "position": 1,
              "duration": 0.17708333333333334
            },
            {
              "pitch": 48,
              "velocity": 20,
              "position": 1.6666666666666667,
              "duration": 0.15625
            },
            {
              "pitch": 48,
              "velocity": 19,
              "position": 2.6666666666666665,
              "duration": 0.3229166666666667
            },
            {
              "pitch": 48,
              "velocity": 32,
              "position": 3,
              "duration": 0.17708333333333334
            },
            {
              "pitch": 48,
              "velocity": 18,
              "position": 3.6666666666666665,
              "duration": 0.3229166666666667
            },
            {
              "pitch": 48,
              "velocity": 22,
              "position": 4,
              "duration": 0.65625
            },
            {
              "pitch": 48,
              "velocity": 14,
              "position": 4.666666666666667,
              "duration": 0.3229166666666667
            },
            {
              "pitch": 48,
              "velocity": 35,
              "position": 5,
              "duration": 0.17708333333333334
            },
            {
              "pitch": 48,
              "velocity": 22,
              "position": 5.666666666666667,
              "duration": 0.20833333333333334
            },
            {
              "pitch": 48,
              "velocity": 14,
              "position": 6.666666666666667,
              "duration": 0.3229166666666667
            },
            {
              "pitch": 48,
              "velocity": 32,
              "position": 7,
              "duration": 0.17708333333333334
            },
            {
              "pitch": 48,
              "velocity": 18,
              "position": 7.666666666666667,
              "duration": 0.3229166666666667
            },
            {
              "pitch": 48,
              "velocity": 22,
              "position": 8,
              "duration": 0.65625
            },
            {
              "pitch": 48,
              "velocity": 22,
              "position": 8.666666666666666,
              "duration": 0.3229166666666667
            },
            {
              "pitch": 48,
              "velocity": 34,
              "position": 9,
              "duration": 0.17708333333333334
            },
            {
              "pitch": 48,
              "velocity": 19,
              "position": 9.666666666666666,
              "duration": 0.20833333333333334
            },
            {
              "pitch": 48,
              "velocity": 15,
              "position": 10.666666666666666,
              "duration": 0.3229166666666667
            },
            {
              "pitch": 48,
              "velocity": 35,
              "position": 11,
              "duration": 0.17708333333333334
            },
            {
              "pitch": 48,
              "velocity": 18,
              "position": 11.666666666666666,
              "duration": 0.3229166666666667
            },
            {
              "pitch": 48,
              "velocity": 22,
              "position": 12,
              "duration": 0.65625
            },
            {
              "pitch": 48,
              "velocity": 22,
              "position": 12.666666666666666,
              "duration": 0.3229166666666667
            },
            {
              "pitch": 48,
              "velocity": 31,
              "position": 13,
              "duration": 0.17708333333333334
            },
            {
              "pitch": 48,
              "velocity": 19,
              "position": 13.666666666666666,
              "duration": 0.20833333333333334
            },
            {
              "pitch": 48,
              "velocity": 16,
              "position": 14.666666666666666,
              "duration": 0.3229166666666667
            },
            {
              "pitch": 48,
              "velocity": 36,
              "position": 15,
              "duration": 0.17708333333333334
            },
            {
              "pitch": 48,
              "velocity": 11,
              "position": 15.666666666666666,
              "duration": 0.3229166666666667
            }
          ]
        }
      }
    },
    "Main_D": {
      "type": "Main_D",
      "sizeInBeats": 16,
      "channels": {
        "0": {
          "ctab": {
            "srcChannel": 0,
            "name": "CC Crash",
            "accType": "RHYTHM",
            "editable": true,
            "mutedNotes": [],
            "mutedChords": [
              "1+2+5",
              "sus4",
              "1+5",
              "1+8",
              "7aug",
              "Maj7aug",
              "7(#9)",
              "7(b13)",
              "7(b9)",
              "7(13)",
              "7#11",
              "7(9)",
              "7b5",
              "7sus4",
              "7th",
              "dim7",
              "dim",
              "minMaj7(9)",
              "minMaj7",
              "min7(11)",
              "min7(9)",
              "min(9)",
              "m7b5",
              "min7",
              "min6",
              "min",
              "aug",
              "Maj6(9)",
              "Maj7(9)",
              "Maj(9)",
              "Maj7#11",
              "Maj7",
              "Maj6",
              "Maj"
            ],
            "autoStart": true,
            "sourceChordNote": 0,
            "sourceChordType": "Maj7",
            "ctb2Low": null,
            "ctb2Main": {
              "ntr": "ROOT_FIXED",
              "ntt": "BYPASS",
              "bassOn": false,
              "chordRootUpperLimit": 6,
              "noteLowLimit": 0,
              "noteHighLimit": 127,
              "rtr": "RETRIGGER"
            },
            "ctb2High": null
          },
          "notes": []
        },
        "2": {
          "ctab": {
            "srcChannel": 2,
            "name": "Bas4Note",
            "accType": "BASS",
            "editable": false,
            "mutedNotes": [],
            "mutedChords": [
              "1+2+5",
              "sus4",
              "1+5",
              "1+8",
              "7aug",
              "Maj7aug",
              "dim",
              "minMaj7(9)",
              "minMaj7",
              "min(9)",
              "m7b5",
              "min",
              "aug"
            ],
            "autoStart": false,
            "sourceChordNote": 0,
            "sourceChordType": "Maj7",
            "ctb2Low": null,
            "ctb2Main": {
              "ntr": "ROOT_TRANSPOSITION",
              "ntt": "MELODY",
              "bassOn": true,
              "chordRootUpperLimit": 10,
              "noteLowLimit": 28,
              "noteHighLimit": 127,
              "rtr": "PITCH_SHIFT_TO_ROOT"
            },
            "ctb2High": null
          },
          "notes": [
            {
              "pitch": 24,
              "velocity": 70,
              "position": 0,
              "duration": 0.65625
            },
            {
              "pitch": 24,
              "velocity": 100,
              "position": 0.6666666666666666,
              "duration": 0.3229166666666667
            },
            {
              "pitch": 28,
              "velocity": 60,
              "position": 1,
              "duration": 0.8020833333333334
            },
            {
              "pitch": 31,
              "velocity": 70,
              "position": 2,
              "duration": 0.8020833333333334
            },
            {
              "pitch": 33,
              "velocity": 60,
              "position": 3,
              "duration": 0.65625
            },
            {
              "pitch": 31,
              "velocity": 50,
              "position": 3.6666666666666665,
              "duration": 0.3229166666666667
            },
            {
              "pitch": 36,
              "velocity": 70,
              "position": 4,
              "duration": 0.65625
            },
            {
              "pitch": 24,
              "velocity": 100,
              "position": 4.666666666666667,
              "duration": 0.3229166666666667
            },
            {
              "pitch": 33,
              "velocity": 60,
              "position": 5,
              "duration": 0.8020833333333334
            },
            {
              "pitch": 31,
              "velocity": 70,
              "position": 6,
              "duration": 0.8020833333333334
            },
            {
              "pitch": 28,
              "velocity": 60,
              "position": 7,
              "duration": 0.65625
            },
            {
              "pitch": 31,
              "velocity": 50,
              "position": 7.666666666666667,
              "duration": 0.3229166666666667
            },
            {
              "pitch": 24,
              "velocity": 70,
              "position": 8,
              "duration": 0.65625
            },
            {
              "pitch": 24,
              "velocity": 50,
              "position": 8.666666666666666,
              "duration": 0.19791666666666666
            },
            {
              "pitch": 28,
              "velocity": 64,
              "position": 9,
              "duration": 0.8020833333333334
            },
            {
              "pitch": 31,
              "velocity": 70,
              "position": 10,
              "duration": 0.6354166666666666
            },
            {
              "pitch": 24,
              "velocity": 40,
              "position": 10.666666666666666,
              "duration": 0.15625
            },
            {
              "pitch": 33,
              "velocity": 60,
              "position": 11,
              "duration": 0.65625
            },
            {
              "pitch": 31,
              "velocity": 50,
              "position": 11.666666666666666,
              "duration": 0.3229166666666667
            },
            {
              "pitch": 36,
              "velocity": 70,
              "position": 12,
              "duration": 0.65625
            },
            {
              "pitch": 24,
              "velocity": 110,
              "position": 12.666666666666666,
              "duration": 0.3229166666666667
            },
            {
              "pitch": 33,
              "velocity": 62,
              "position": 13,
              "duration": 0.6458333333333334
            },
            {
              "pitch": 24,
              "velocity": 100,
              "position": 13.666666666666666,
              "duration": 0.3229166666666667
            },
            {
              "pitch": 31,
              "velocity": 70,
              "position": 14,
              "duration": 0.8020833333333334
            },
            {
              "pitch": 28,
              "velocity": 60,
              "position": 15,
              "duration": 0.65625
            },
            {
              "pitch": 31,
              "velocity": 50,
              "position": 15.666666666666666,
              "duration": 0.3229166666666667
            }
          ]
        },
        "3": {
          "ctab": {
            "srcChannel": 3,
            "name": "Bas3Note",
            "accType": "BASS",
            "editable": false,
            "mutedNotes": [],
            "mutedChords": [
              "7(#9)",
              "7(b13)",
              "7(b9)",
              "7(13)",
              "7#11",
              "7(9)",
              "7b5",
              "7sus4",
              "7th",
              "dim7",
              "min7(11)",
              "min7(9)",
              "min7",
              "min6",
              "Maj6(9)",
              "Maj7(9)",
              "Maj(9)",
              "Maj7#11",
              "Maj7",
              "Maj6",
              "Maj"
            ],
            "autoStart": false,
            "sourceChordNote": 0,
            "sourceChordType": "Maj7",
            "ctb2Low": null,
            "ctb2Main": {
              "ntr": "ROOT_TRANSPOSITION",
              "ntt": "MELODY",
              "bassOn": true,
              "chordRootUpperLimit": 0,
              "noteLowLimit": 28,
              "noteHighLimit": 127,
              "rtr": "PITCH_SHIFT_TO_ROOT"
            },
            "ctb2High": null
          },
          "notes": [
            {
              "pitch": 36,
              "velocity": 70,
              "position": 0,
              "duration": 0.65625
            },
            {
              "pitch": 36,
              "velocity": 100,
              "position": 0.6666666666666666,
              "duration": 0.3229166666666667
            },
            {
              "pitch": 40,
              "velocity": 60,
              "position": 1,
              "duration": 0.8020833333333334
            },
            {
              "pitch": 43,
              "velocity": 70,
              "position": 2,
              "duration": 0.8020833333333334
            },
            {
              "pitch": 40,
              "velocity": 60,
              "position": 3,
              "duration": 0.65625
            },
            {
              "pitch": 43,
              "velocity": 50,
              "position": 3.6666666666666665,
              "duration": 0.3229166666666667
            },
            {
              "pitch": 36,
              "velocity": 70,
              "position": 4,
              "duration": 0.65625
            },
            {
              "pitch": 48,
              "velocity": 60,
              "position": 4.666666666666667,
              "duration": 0.3229166666666667
            },
            {
              "pitch": 43,
              "velocity": 60,
              "position": 5,
              "duration": 0.8020833333333334
            },
            {
              "pitch": 40,
              "velocity": 70,
              "position": 6,
              "duration": 0.8020833333333334
            },
            {
              "pitch": 43,
              "velocity": 60,
              "position": 7,
              "duration": 0.65625
            },
            {
              "pitch": 40,
              "velocity": 50,
              "position": 7.666666666666667,
              "duration": 0.3229166666666667
            },
            {
              "pitch": 36,
              "velocity": 70,
              "position": 8,
              "duration": 0.65625
            },
            {
              "pitch": 36,
              "velocity": 50,
              "position": 8.666666666666666,
              "duration": 0.19791666666666666
            },
            {
              "pitch": 40,
              "velocity": 64,
              "position": 9,
              "duration": 0.8020833333333334
            },
            {
              "pitch": 43,
              "velocity": 70,
              "position": 10,
              "duration": 0.6354166666666666
            },
            {
              "pitch": 36,
              "velocity": 40,
              "position": 10.666666666666666,
              "duration": 0.15625
            },
            {
              "pitch": 40,
              "velocity": 60,
              "position": 11,
              "duration": 0.65625
            },
            {
              "pitch": 43,
              "velocity": 50,
              "position": 11.666666666666666,
              "duration": 0.3229166666666667
            },
            {
              "pitch": 36,
              "velocity": 70,
              "position": 12,
              "duration": 0.65625
            },
            {
              "pitch": 48,
              "velocity": 64,
              "position": 12.666666666666666,
              "duration": 0.3229166666666667
            },
            {
              "pitch": 43,
              "velocity": 62,
              "position": 13,
              "duration": 0.6458333333333334
            },
            {
              "pitch": 36,
              "velocity": 100,
              "position": 13.666666666666666,
              "duration": 0.3229166666666667
            },
            {
              "pitch": 40,
              "velocity": 70,
              "position": 14,
              "duration": 0.8020833333333334
            },
            {
              "pitch": 31,
              "velocity": 60,
              "position": 15,
              "duration": 0.65625
            },
            {
              "pitch": 43,
              "velocity": 50,
              "position": 15.5,
              "duration": 0.3229166666666667
            }
          ]
        },
        "6": {
          "ctab": {
            "srcChannel": 6,
            "name": "Organ",
            "accType": "PAD",
            "editable": false,
            "mutedNotes": [],
            "mutedChords": [],
            "autoStart": false,
            "sourceChordNote": 0,
            "sourceChordType": "Maj7",
            "ctb2Low": null,
            "ctb2Main": {
              "ntr": "ROOT_FIXED",
              "ntt": "CHORD",
              "bassOn": false,
              "chordRootUpperLimit": 7,
              "noteLowLimit": 0,
              "noteHighLimit": 127,
              "rtr": "PITCH_SHIFT"
            },
            "ctb2High": null
          },
          "notes": [
            {
              "pitch": 67,
              "velocity": 74,
              "position": 0,
              "duration": 15.989583333333334
            },
            {
              "pitch": 71,
              "velocity": 74,
              "position": 0,
              "duration": 15.989583333333334
            },
            {
              "pitch": 76,
              "velocity": 74,
              "position": 0,
              "duration": 15.989583333333334
            }
          ]
        },
        "7": {
          "ctab": {
            "srcChannel": 7,
            "name": "OrgRoot",
            "accType": "PAD",
            "editable": false,
            "mutedNotes": [],
            "mutedChords": [
              "1+2+5",
              "sus4",
              "1+5",
              "1+8",
              "Maj7aug",
              "dim",
              "minMaj7(9)",
              "minMaj7",
              "min6",
              "min",
              "aug",
              "Maj7(9)",
              "Maj7#11",
              "Maj7",
              "Maj6",
              "Maj"
            ],
            "autoStart": false,
            "sourceChordNote": 0,
            "sourceChordType": "Maj7",
            "ctb2Low": null,
            "ctb2Main": {
              "ntr": "ROOT_TRANSPOSITION",
              "ntt": "CHORD",
              "bassOn": false,
              "chordRootUpperLimit": 6,
              "noteLowLimit": 0,
              "noteHighLimit": 127,
              "rtr": "PITCH_SHIFT"
            },
            "ctb2High": null
          },
          "notes": [
            {
              "pitch": 72,
              "velocity": 74,
              "position": 0,
              "duration": 15.989583333333334
            }
          ]
        },
        "8": {
          "ctab": {
            "srcChannel": 8,
            "name": "Perc",
            "accType": "SUBRHYTHM",
            "editable": false,
            "mutedNotes": [],
            "mutedChords": [],
            "autoStart": true,
            "sourceChordNote": 0,
            "sourceChordType": "Maj7",
            "ctb2Low": null,
            "ctb2Main": {
              "ntr": "ROOT_FIXED",
              "ntt": "BYPASS",
              "bassOn": false,
              "chordRootUpperLimit": 6,
              "noteLowLimit": 0,
              "noteHighLimit": 127,
              "rtr": "PITCH_SHIFT"
            },
            "ctb2High": null
          },
          "notes": [
            {
              "pitch": 54,
              "velocity": 60,
              "position": 0,
              "duration": 0.010416666666666666
            },
            {
              "pitch": 54,
              "velocity": 14,
              "position": 0.6875,
              "duration": 0.010416666666666666
            },
            {
              "pitch": 39,
              "velocity": 94,
              "position": 1,
              "duration": 0.010416666666666666
            },
            {
              "pitch": 54,
              "velocity": 105,
              "position": 1,
              "duration": 0.010416666666666666
            },
            {
              "pitch": 54,
              "velocity": 14,
              "position": 1.6875,
              "duration": 0.010416666666666666
            },
            {
              "pitch": 54,
              "velocity": 60,
              "position": 2,
              "duration": 0.010416666666666666
            },
            {
              "pitch": 54,
              "velocity": 14,
              "position": 2.6875,
              "duration": 0.010416666666666666
            },
            {
              "pitch": 39,
              "velocity": 94,
              "position": 3,
              "duration": 0.010416666666666666
            },
            {
              "pitch": 54,
              "velocity": 105,
              "position": 3,
              "duration": 0.010416666666666666
            },
            {
              "pitch": 54,
              "velocity": 14,
              "position": 3.6875,
              "duration": 0.010416666666666666
            },
            {
              "pitch": 54,
              "velocity": 60,
              "position": 4,
              "duration": 0.010416666666666666
            },
            {
              "pitch": 54,
              "velocity": 14,
              "position": 4.6875,
              "duration": 0.010416666666666666
            },
            {
              "pitch": 39,
              "velocity": 94,
              "position": 5,
              "duration": 0.010416666666666666
            },
            {
              "pitch": 54,
              "velocity": 105,
              "position": 5,
              "duration": 0.010416666666666666
            },
            {
              "pitch": 54,
              "velocity": 14,
              "position": 5.6875,
              "duration": 0.010416666666666666
            },
            {
              "pitch": 54,
              "velocity": 60,
              "position": 6,
              "duration": 0.010416666666666666
            },
            {
              "pitch": 54,
              "velocity": 14,
              "position": 6.6875,
              "duration": 0.010416666666666666
            },
            {
              "pitch": 39,
              "velocity": 94,
              "position": 7,
              "duration": 0.010416666666666666
            },
            {
              "pitch": 54,
              "velocity": 105,
              "position": 7,
              "duration": 0.010416666666666666
            },
            {
              "pitch": 54,
              "velocity": 14,
              "position": 7.6875,
              "duration": 0.010416666666666666
            },
            {
              "pitch": 54,
              "velocity": 60,
              "position": 8,
              "duration": 0.010416666666666666
            },
            {
              "pitch": 54,
              "velocity": 14,
              "position": 8.6875,
              "duration": 0.010416666666666666
            },
            {
              "pitch": 39,
              "velocity": 94,
              "position": 9,
              "duration": 0.010416666666666666
            },
            {
              "pitch": 54,
              "velocity": 105,
              "position": 9,
              "duration": 0.010416666666666666
            },
            {
              "pitch": 54,
              "velocity": 14,
              "position": 9.6875,
              "duration": 0.010416666666666666
            },
            {
              "pitch": 54,
              "velocity": 60,
              "position": 10,
              "duration": 0.010416666666666666
            },
            {
              "pitch": 54,
              "velocity": 14,
              "position": 10.6875,
              "duration": 0.010416666666666666
            },
            {
              "pitch": 39,
              "velocity": 94,
              "position": 11,
              "duration": 0.010416666666666666
            },
            {
              "pitch": 54,
              "velocity": 105,
              "position": 11,
              "duration": 0.010416666666666666
            },
            {
              "pitch": 54,
              "velocity": 14,
              "position": 11.6875,
              "duration": 0.010416666666666666
            },
            {
              "pitch": 54,
              "velocity": 60,
              "position": 12,
              "duration": 0.010416666666666666
            },
            {
              "pitch": 54,
              "velocity": 14,
              "position": 12.6875,
              "duration": 0.010416666666666666
            },
            {
              "pitch": 39,
              "velocity": 94,
              "position": 13,
              "duration": 0.010416666666666666
            },
            {
              "pitch": 54,
              "velocity": 105,
              "position": 13,
              "duration": 0.010416666666666666
            },
            {
              "pitch": 54,
              "velocity": 14,
              "position": 13.6875,
              "duration": 0.010416666666666666
            },
            {
              "pitch": 54,
              "velocity": 60,
              "position": 14,
              "duration": 0.010416666666666666
            },
            {
              "pitch": 54,
              "velocity": 14,
              "position": 14.6875,
              "duration": 0.010416666666666666
            },
            {
              "pitch": 39,
              "velocity": 94,
              "position": 15,
              "duration": 0.010416666666666666
            },
            {
              "pitch": 54,
              "velocity": 105,
              "position": 15,
              "duration": 0.010416666666666666
            },
            {
              "pitch": 54,
              "velocity": 14,
              "position": 15.6875,
              "duration": 0.010416666666666666
            }
          ]
        },
        "9": {
          "ctab": {
            "srcChannel": 9,
            "name": "Rhyth2",
            "accType": "RHYTHM",
            "editable": false,
            "mutedNotes": [],
            "mutedChords": [],
            "autoStart": true,
            "sourceChordNote": 0,
            "sourceChordType": "Maj7",
            "ctb2Low": null,
            "ctb2Main": {
              "ntr": "ROOT_FIXED",
              "ntt": "BYPASS",
              "bassOn": false,
              "chordRootUpperLimit": 6,
              "noteLowLimit": 0,
              "noteHighLimit": 127,
              "rtr": "PITCH_SHIFT"
            },
            "ctb2High": null
          },
          "notes": [
            {
              "pitch": 36,
              "velocity": 86,
              "position": 0,
              "duration": 0.010416666666666666
            },
            {
              "pitch": 51,
              "velocity": 72,
              "position": 0,
              "duration": 0.010416666666666666
            },
            {
              "pitch": 40,
              "velocity": 40,
              "position": 0.6875,
              "duration": 0.010416666666666666
            },
            {
              "pitch": 40,
              "velocity": 80,
              "position": 1,
              "duration": 0.010416666666666666
            },
            {
              "pitch": 51,
              "velocity": 93,
              "position": 1,
              "duration": 0.010416666666666666
            },
            {
              "pitch": 40,
              "velocity": 40,
              "position": 1.6875,
              "duration": 0.010416666666666666
            },
            {
              "pitch": 51,
              "velocity": 30,
              "position": 1.6875,
              "duration": 0.010416666666666666
            },
            {
              "pitch": 40,
              "velocity": 28,
              "position": 1.8333333333333333,
              "duration": 0.010416666666666666
            },
            {
              "pitch": 36,
              "velocity": 86,
              "position": 2,
              "duration": 0.010416666666666666
            },
            {
              "pitch": 51,
              "velocity": 72,
              "position": 2,
              "duration": 0.010416666666666666
            },
            {
              "pitch": 40,
              "velocity": 40,
              "position": 2.6875,
              "duration": 0.010416666666666666
            },
            {
              "pitch": 40,
              "velocity": 80,
              "position": 3,
              "duration": 0.010416666666666666
            },
            {
              "pitch": 51,
              "velocity": 93,
              "position": 3,
              "duration": 0.010416666666666666
            },
            {
              "pitch": 40,
              "velocity": 40,
              "position": 3.6875,
              "duration": 0.010416666666666666
            },
            {
              "pitch": 51,
              "velocity": 30,
              "position": 3.6875,
              "duration": 0.010416666666666666
            },
            {
              "pitch": 36,
              "velocity": 86,
              "position": 4,
              "duration": 0.010416666666666666
            },
            {
              "pitch": 51,
              "velocity": 72,
              "position": 4,
              "duration": 0.010416666666666666
            },
            {
              "pitch": 40,
              "velocity": 40,
              "position": 4.6875,
              "duration": 0.010416666666666666
            },
            {
              "pitch": 40,
              "velocity": 80,
              "position": 5,
              "duration": 0.010416666666666666
            },
            {
              "pitch": 51,
              "velocity": 93,
              "position": 5,
              "duration": 0.010416666666666666
            },
            {
              "pitch": 40,
              "velocity": 40,
              "position": 5.6875,
              "duration": 0.010416666666666666
            },
            {
              "pitch": 51,
              "velocity": 30,
              "position": 5.6875,
              "duration": 0.010416666666666666
            },
            {
              "pitch": 40,
              "velocity": 40,
              "position": 5.833333333333333,
              "duration": 0.010416666666666666
            },
            {
              "pitch": 36,
              "velocity": 86,
              "position": 6,
              "duration": 0.010416666666666666
            },
            {
              "pitch": 51,
              "velocity": 72,
              "position": 6,
              "duration": 0.010416666666666666
            },
            {
              "pitch": 40,
              "velocity": 40,
              "position": 6.333333333333333,
              "duration": 0.010416666666666666
            },
            {
              "pitch": 36,
              "velocity": 80,
              "position": 6.6875,
              "duration": 0.010416666666666666
            },
            {
              "pitch": 40,
              "velocity": 80,
              "position": 7,
              "duration": 0.010416666666666666
            },
            {
              "pitch": 51,
              "velocity": 93,
              "position": 7,
              "duration": 0.010416666666666666
            },
            {
              "pitch": 40,
              "velocity": 40,
              "position": 7.6875,
              "duration": 0.010416666666666666
            },
            {
              "pitch": 51,
              "velocity": 30,
              "position": 7.6875,
              "duration": 0.010416666666666666
            },
            {
              "pitch": 36,
              "velocity": 86,
              "position": 8,
              "duration": 0.010416666666666666
            },
            {
              "pitch": 51,
              "velocity": 72,
              "position": 8,
              "duration": 0.010416666666666666
            },
            {
              "pitch": 40,
              "velocity": 40,
              "position": 8.6875,
              "duration": 0.010416666666666666
            },
            {
              "pitch": 40,
              "velocity": 80,
              "position": 9,
              "duration": 0.010416666666666666
            },
            {
              "pitch": 51,
              "velocity": 93,
              "position": 9,
              "duration": 0.010416666666666666
            },
            {
              "pitch": 40,
              "velocity": 40,
              "position": 9.6875,
              "duration": 0.010416666666666666
            },
            {
              "pitch": 51,
              "velocity": 30,
              "position": 9.6875,
              "duration": 0.010416666666666666
            },
            {
              "pitch": 40,
              "velocity": 40,
              "position": 9.833333333333334,
              "duration": 0.010416666666666666
            },
            {
              "pitch": 36,
              "velocity": 86,
              "position": 10,
              "duration": 0.010416666666666666
            },
            {
              "pitch": 51,
              "velocity": 72,
              "position": 10,
              "duration": 0.010416666666666666
            },
            {
              "pitch": 40,
              "velocity": 40,
              "position": 10.6875,
              "duration": 0.010416666666666666
            },
            {
              "pitch": 40,
              "velocity": 80,
              "position": 11,
              "duration": 0.010416666666666666
            },
            {
              "pitch": 51,
              "velocity": 93,
              "position": 11,
              "duration": 0.010416666666666666
            },
            {
              "pitch": 40,
              "velocity": 40,
              "position": 11.6875,
              "duration": 0.010416666666666666
            },
            {
              "pitch": 51,
              "velocity": 30,
              "position": 11.6875,
              "duration": 0.010416666666666666
            },
            {
              "pitch": 36,
              "velocity": 86,
              "position": 12,
              "duration": 0.010416666666666666
            },
            {
              "pitch": 51,
              "velocity": 72,
              "position": 12,
              "duration": 0.010416666666666666
            },
            {
              "pitch": 40,
              "velocity": 40,
              "position": 12.6875,
              "duration": 0.010416666666666666
            },
            {
              "pitch": 40,
              "velocity": 80,
              "position": 13,
              "duration": 0.010416666666666666
            },
            {
              "pitch": 51,
              "velocity": 93,
              "position": 13,
              "duration": 0.010416666666666666
            },
            {
              "pitch": 40,
              "velocity": 40,
              "position": 13.6875,
              "duration": 0.010416666666666666
            },
            {
              "pitch": 51,
              "velocity": 30,
              "position": 13.6875,
              "duration": 0.010416666666666666
            },
            {
              "pitch": 40,
              "velocity": 40,
              "position": 13.833333333333334,
              "duration": 0.010416666666666666
            },
            {
              "pitch": 36,
              "velocity": 86,
              "position": 14,
              "duration": 0.010416666666666666
            },
            {
              "pitch": 51,
              "velocity": 72,
              "position": 14,
              "duration": 0.010416666666666666
            },
            {
              "pitch": 40,
              "velocity": 40,
              "position": 14.333333333333334,
              "duration": 0.010416666666666666
            },
            {
              "pitch": 36,
              "velocity": 80,
              "position": 14.6875,
              "duration": 0.010416666666666666
            },
            {
              "pitch": 40,
              "velocity": 40,
              "position": 14.6875,
              "duration": 0.010416666666666666
            },
            {
              "pitch": 40,
              "velocity": 80,
              "position": 15,
              "duration": 0.010416666666666666
            },
            {
              "pitch": 51,
              "velocity": 93,
              "position": 15,
              "duration": 0.010416666666666666
            },
            {
              "pitch": 40,
              "velocity": 40,
              "position": 15.6875,
              "duration": 0.010416666666666666
            },
            {
              "pitch": 51,
              "velocity": 30,
              "position": 15.6875,
              "duration": 0.010416666666666666
            }
          ]
        },
        "11": {
          "ctab": {
            "srcChannel": 11,
            "name": "Guit SFX",
            "accType": "CHORD1",
            "editable": false,
            "mutedNotes": [],
            "mutedChords": [],
            "autoStart": false,
            "sourceChordNote": 0,
            "sourceChordType": "Maj7",
            "ctb2Low": null,
            "ctb2Main": {
              "ntr": "ROOT_FIXED",
              "ntt": "BYPASS",
              "bassOn": false,
              "chordRootUpperLimit": 7,
              "noteLowLimit": 0,
              "noteHighLimit": 79,
              "rtr": "PITCH_SHIFT"
            },
            "ctb2High": null
          },
          "notes": [
            {
              "pitch": 108,
              "velocity": 75,
              "position": 0,
              "duration": 0.65625
            },
            {
              "pitch": 99,
              "velocity": 95,
              "position": 0.6666666666666666,
              "duration": 0.22916666666666666
            },
            {
              "pitch": 96,
              "velocity": 112,
              "position": 1,
              "duration": 0.22916666666666666
            },
            {
              "pitch": 103,
              "velocity": 95,
              "position": 1.6666666666666667,
              "duration": 0.22916666666666666
            },
            {
              "pitch": 108,
              "velocity": 75,
              "position": 2,
              "duration": 0.65625
            },
            {
              "pitch": 99,
              "velocity": 89,
              "position": 2.6666666666666665,
              "duration": 0.22916666666666666
            },
            {
              "pitch": 96,
              "velocity": 112,
              "position": 3,
              "duration": 0.22916666666666666
            },
            {
              "pitch": 105,
              "velocity": 89,
              "position": 3.6666666666666665,
              "duration": 0.22916666666666666
            },
            {
              "pitch": 108,
              "velocity": 75,
              "position": 4,
              "duration": 0.65625
            },
            {
              "pitch": 99,
              "velocity": 89,
              "position": 4.666666666666667,
              "duration": 0.22916666666666666
            },
            {
              "pitch": 96,
              "velocity": 112,
              "position": 5,
              "duration": 0.22916666666666666
            },
            {
              "pitch": 106,
              "velocity": 95,
              "position": 5.666666666666667,
              "duration": 0.22916666666666666
            },
            {
              "pitch": 106,
              "velocity": 89,
              "position": 6.666666666666667,
              "duration": 0.22916666666666666
            },
            {
              "pitch": 105,
              "velocity": 84,
              "position": 7.666666666666667,
              "duration": 0.22916666666666666
            },
            {
              "pitch": 108,
              "velocity": 75,
              "position": 8,
              "duration": 0.65625
            },
            {
              "pitch": 99,
              "velocity": 95,
              "position": 8.666666666666666,
              "duration": 0.22916666666666666
            },
            {
              "pitch": 96,
              "velocity": 112,
              "position": 9,
              "duration": 0.22916666666666666
            },
            {
              "pitch": 103,
              "velocity": 95,
              "position": 9.666666666666666,
              "duration": 0.22916666666666666
            },
            {
              "pitch": 108,
              "velocity": 75,
              "position": 10,
              "duration": 0.65625
            },
            {
              "pitch": 99,
              "velocity": 89,
              "position": 10.666666666666666,
              "duration": 0.22916666666666666
            },
            {
              "pitch": 96,
              "velocity": 112,
              "position": 11,
              "duration": 0.22916666666666666
            },
            {
              "pitch": 105,
              "velocity": 75,
              "position": 11.666666666666666,
              "duration": 0.22916666666666666
            },
            {
              "pitch": 108,
              "velocity": 75,
              "position": 12,
              "duration": 0.65625
            },
            {
              "pitch": 99,
              "velocity": 89,
              "position": 12.666666666666666,
              "duration": 0.22916666666666666
            },
            {
              "pitch": 96,
              "velocity": 112,
              "position": 13,
              "duration": 0.22916666666666666
            },
            {
              "pitch": 106,
              "velocity": 95,
              "position": 13.666666666666666,
              "duration": 0.22916666666666666
            },
            {
              "pitch": 99,
              "velocity": 89,
              "position": 14.666666666666666,
              "duration": 0.22916666666666666
            },
            {
              "pitch": 96,
              "velocity": 112,
              "position": 15,
              "duration": 0.22916666666666666
            },
            {
              "pitch": 103,
              "velocity": 77,
              "position": 15.666666666666666,
              "duration": 0.22916666666666666
            }
          ]
        },
        "12": {
          "ctab": {
            "srcChannel": 12,
            "name": "GtRootTr",
            "accType": "CHORD1",
            "editable": false,
            "mutedNotes": [],
            "mutedChords": [
              "1+2+5",
              "sus4",
              "1+5",
              "1+8",
              "Maj7aug",
              "dim",
              "minMaj7(9)",
              "minMaj7",
              "min6",
              "min",
              "aug",
              "Maj7(9)",
              "Maj7#11",
              "Maj7",
              "Maj6",
              "Maj"
            ],
            "autoStart": false,
            "sourceChordNote": 0,
            "sourceChordType": "Maj7",
            "ctb2Low": null,
            "ctb2Main": {
              "ntr": "ROOT_TRANSPOSITION",
              "ntt": "CHORD",
              "bassOn": false,
              "chordRootUpperLimit": 10,
              "noteLowLimit": 0,
              "noteHighLimit": 127,
              "rtr": "PITCH_SHIFT"
            },
            "ctb2High": null
          },
          "notes": [
            {
              "pitch": 60,
              "velocity": 21,
              "position": 0.014583333333333334,
              "duration": 0.65625
            },
            {
              "pitch": 60,
              "velocity": 14,
              "position": 0.68125,
              "duration": 0.31875
            },
            {
              "pitch": 60,
              "velocity": 33,
              "position": 1.0145833333333334,
              "duration": 0.17708333333333334
            },
            {
              "pitch": 60,
              "velocity": 18,
              "position": 1.68125,
              "duration": 0.3229166666666667
            },
            {
              "pitch": 60,
              "velocity": 22,
              "position": 2.0145833333333334,
              "duration": 0.65625
            },
            {
              "pitch": 60,
              "velocity": 19,
              "position": 2.68125,
              "duration": 0.31875
            },
            {
              "pitch": 60,
              "velocity": 31,
              "position": 3.0145833333333334,
              "duration": 0.17708333333333334
            },
            {
              "pitch": 60,
              "velocity": 18,
              "position": 3.68125,
              "duration": 0.3229166666666667
            },
            {
              "pitch": 60,
              "velocity": 22,
              "position": 4.014583333333333,
              "duration": 0.65625
            },
            {
              "pitch": 60,
              "velocity": 14,
              "position": 4.68125,
              "duration": 0.31875
            },
            {
              "pitch": 60,
              "velocity": 31,
              "position": 5.014583333333333,
              "duration": 0.17708333333333334
            },
            {
              "pitch": 60,
              "velocity": 30,
              "position": 5.68125,
              "duration": 0.15625
            },
            {
              "pitch": 60,
              "velocity": 30,
              "position": 6.68125,
              "duration": 0.17708333333333334
            },
            {
              "pitch": 60,
              "velocity": 18,
              "position": 7.68125,
              "duration": 0.3229166666666667
            },
            {
              "pitch": 60,
              "velocity": 22,
              "position": 8.014583333333333,
              "duration": 0.65625
            },
            {
              "pitch": 60,
              "velocity": 22,
              "position": 8.68125,
              "duration": 0.31875
            },
            {
              "pitch": 60,
              "velocity": 33,
              "position": 9.014583333333333,
              "duration": 0.17708333333333334
            },
            {
              "pitch": 60,
              "velocity": 18,
              "position": 9.68125,
              "duration": 0.3229166666666667
            },
            {
              "pitch": 60,
              "velocity": 22,
              "position": 10.014583333333333,
              "duration": 0.65625
            },
            {
              "pitch": 60,
              "velocity": 15,
              "position": 10.68125,
              "duration": 0.31875
            },
            {
              "pitch": 60,
              "velocity": 32,
              "position": 11.014583333333333,
              "duration": 0.17708333333333334
            },
            {
              "pitch": 60,
              "velocity": 18,
              "position": 11.68125,
              "duration": 0.3229166666666667
            },
            {
              "pitch": 60,
              "velocity": 22,
              "position": 12.014583333333333,
              "duration": 0.65625
            },
            {
              "pitch": 60,
              "velocity": 22,
              "position": 12.68125,
              "duration": 0.31875
            },
            {
              "pitch": 60,
              "velocity": 28,
              "position": 13.014583333333333,
              "duration": 0.17708333333333334
            },
            {
              "pitch": 60,
              "velocity": 31,
              "position": 13.68125,
              "duration": 0.1875
            },
            {
              "pitch": 60,
              "velocity": 16,
              "position": 14.68125,
              "duration": 0.3145833333333333
            },
            {
              "pitch": 60,
              "velocity": 32,
              "position": 15.014583333333333,
              "duration": 0.17708333333333334
            },
            {
              "pitch": 60,
              "velocity": 11,
              "position": 15.68125,
              "duration": 0.3104166666666667
            }
          ]
        },
        "13": {
          "ctab": {
            "srcChannel": 13,
            "name": "B2-E3-G3",
            "accType": "CHORD1",
            "editable": false,
            "mutedNotes": [],
            "mutedChords": [],
            "autoStart": false,
            "sourceChordNote": 0,
            "sourceChordType": "Maj7",
            "ctb2Low": null,
            "ctb2Main": {
              "ntr": "ROOT_FIXED",
              "ntt": "CHORD",
              "bassOn": false,
              "chordRootUpperLimit": 7,
              "noteLowLimit": 0,
              "noteHighLimit": 127,
              "rtr": "PITCH_SHIFT"
            },
            "ctb2High": null
          },
          "notes": [
            {
              "pitch": 59,
              "velocity": 21,
              "position": 0,
              "duration": 0.65625
            },
            {
              "pitch": 64,
              "velocity": 21,
              "position": 0.020833333333333332,
              "duration": 0.65625
            },
            {
              "pitch": 67,
              "velocity": 21,
              "position": 0.041666666666666664,
              "duration": 0.65625
            },
            {
              "pitch": 59,
              "velocity": 14,
              "position": 0.6666666666666666,
              "duration": 0.3229166666666667
            },
            {
              "pitch": 64,
              "velocity": 14,
              "position": 0.6875,
              "duration": 0.3229166666666667
            },
            {
              "pitch": 67,
              "velocity": 14,
              "position": 0.7083333333333334,
              "duration": 0.3229166666666667
            },
            {
              "pitch": 59,
              "velocity": 30,
              "position": 1,
              "duration": 0.17708333333333334
            },
            {
              "pitch": 64,
              "velocity": 34,
              "position": 1.0208333333333333,
              "duration": 0.17708333333333334
            },
            {
              "pitch": 67,
              "velocity": 35,
              "position": 1.0416666666666667,
              "duration": 0.17708333333333334
            },
            {
              "pitch": 59,
              "velocity": 18,
              "position": 1.6666666666666667,
              "duration": 0.3229166666666667
            },
            {
              "pitch": 64,
              "velocity": 18,
              "position": 1.6875,
              "duration": 0.3229166666666667
            },
            {
              "pitch": 67,
              "velocity": 18,
              "position": 1.7083333333333333,
              "duration": 0.3229166666666667
            },
            {
              "pitch": 59,
              "velocity": 22,
              "position": 2,
              "duration": 0.65625
            },
            {
              "pitch": 64,
              "velocity": 22,
              "position": 2.0208333333333335,
              "duration": 0.65625
            },
            {
              "pitch": 67,
              "velocity": 22,
              "position": 2.0416666666666665,
              "duration": 0.65625
            },
            {
              "pitch": 59,
              "velocity": 19,
              "position": 2.6666666666666665,
              "duration": 0.3229166666666667
            },
            {
              "pitch": 64,
              "velocity": 19,
              "position": 2.6875,
              "duration": 0.3229166666666667
            },
            {
              "pitch": 67,
              "velocity": 19,
              "position": 2.7083333333333335,
              "duration": 0.3229166666666667
            },
            {
              "pitch": 59,
              "velocity": 31,
              "position": 3,
              "duration": 0.17708333333333334
            },
            {
              "pitch": 64,
              "velocity": 32,
              "position": 3.0208333333333335,
              "duration": 0.17708333333333334
            },
            {
              "pitch": 67,
              "velocity": 32,
              "position": 3.0416666666666665,
              "duration": 0.17708333333333334
            },
            {
              "pitch": 59,
              "velocity": 18,
              "position": 3.6666666666666665,
              "duration": 0.3229166666666667
            },
            {
              "pitch": 64,
              "velocity": 18,
              "position": 3.6875,
              "duration": 0.3229166666666667
            },
            {
              "pitch": 67,
              "velocity": 18,
              "position": 3.7083333333333335,
              "duration": 0.3229166666666667
            },
            {
              "pitch": 59,
              "velocity": 22,
              "position": 4,
              "duration": 0.65625
            },
            {
              "pitch": 64,
              "velocity": 22,
              "position": 4.020833333333333,
              "duration": 0.65625
            },
            {
              "pitch": 67,
              "velocity": 22,
              "position": 4.041666666666667,
              "duration": 0.65625
            },
            {
              "pitch": 59,
              "velocity": 14,
              "position": 4.666666666666667,
              "duration": 0.3229166666666667
            },
            {
              "pitch": 64,
              "velocity": 14,
              "position": 4.6875,
              "duration": 0.3229166666666667
            },
            {
              "pitch": 67,
              "velocity": 14,
              "position": 4.708333333333333,
              "duration": 0.3229166666666667
            },
            {
              "pitch": 59,
              "velocity": 35,
              "position": 5,
              "duration": 0.17708333333333334
            },
            {
              "pitch": 64,
              "velocity": 32,
              "position": 5.020833333333333,
              "duration": 0.17708333333333334
            },
            {
              "pitch": 67,
              "velocity": 31,
              "position": 5.041666666666667,
              "duration": 0.17708333333333334
            },
            {
              "pitch": 59,
              "velocity": 31,
              "position": 5.666666666666667,
              "duration": 0.15625
            },
            {
              "pitch": 64,
              "velocity": 31,
              "position": 5.6875,
              "duration": 0.15625
            },
            {
              "pitch": 67,
              "velocity": 31,
              "position": 5.708333333333333,
              "duration": 0.15625
            },
            {
              "pitch": 59,
              "velocity": 32,
              "position": 6.666666666666667,
              "duration": 0.17708333333333334
            },
            {
              "pitch": 64,
              "velocity": 31,
              "position": 6.6875,
              "duration": 0.17708333333333334
            },
            {
              "pitch": 67,
              "velocity": 35,
              "position": 6.708333333333333,
              "duration": 0.17708333333333334
            },
            {
              "pitch": 59,
              "velocity": 18,
              "position": 7.666666666666667,
              "duration": 0.3229166666666667
            },
            {
              "pitch": 64,
              "velocity": 18,
              "position": 7.6875,
              "duration": 0.3229166666666667
            },
            {
              "pitch": 67,
              "velocity": 18,
              "position": 7.708333333333333,
              "duration": 0.3229166666666667
            },
            {
              "pitch": 59,
              "velocity": 22,
              "position": 8,
              "duration": 0.65625
            },
            {
              "pitch": 64,
              "velocity": 22,
              "position": 8.020833333333334,
              "duration": 0.65625
            },
            {
              "pitch": 67,
              "velocity": 22,
              "position": 8.041666666666666,
              "duration": 0.65625
            },
            {
              "pitch": 59,
              "velocity": 22,
              "position": 8.666666666666666,
              "duration": 0.3229166666666667
            },
            {
              "pitch": 64,
              "velocity": 22,
              "position": 8.6875,
              "duration": 0.3229166666666667
            },
            {
              "pitch": 67,
              "velocity": 22,
              "position": 8.708333333333334,
              "duration": 0.3229166666666667
            },
            {
              "pitch": 59,
              "velocity": 33,
              "position": 9,
              "duration": 0.17708333333333334
            },
            {
              "pitch": 64,
              "velocity": 34,
              "position": 9.020833333333334,
              "duration": 0.17708333333333334
            },
            {
              "pitch": 67,
              "velocity": 35,
              "position": 9.041666666666666,
              "duration": 0.17708333333333334
            },
            {
              "pitch": 59,
              "velocity": 18,
              "position": 9.666666666666666,
              "duration": 0.3229166666666667
            },
            {
              "pitch": 64,
              "velocity": 18,
              "position": 9.6875,
              "duration": 0.3229166666666667
            },
            {
              "pitch": 67,
              "velocity": 18,
              "position": 9.708333333333334,
              "duration": 0.3229166666666667
            },
            {
              "pitch": 59,
              "velocity": 22,
              "position": 10,
              "duration": 0.65625
            },
            {
              "pitch": 64,
              "velocity": 22,
              "position": 10.020833333333334,
              "duration": 0.65625
            },
            {
              "pitch": 67,
              "velocity": 22,
              "position": 10.041666666666666,
              "duration": 0.65625
            },
            {
              "pitch": 59,
              "velocity": 15,
              "position": 10.666666666666666,
              "duration": 0.3229166666666667
            },
            {
              "pitch": 64,
              "velocity": 15,
              "position": 10.6875,
              "duration": 0.3229166666666667
            },
            {
              "pitch": 67,
              "velocity": 15,
              "position": 10.708333333333334,
              "duration": 0.3229166666666667
            },
            {
              "pitch": 59,
              "velocity": 34,
              "position": 11,
              "duration": 0.17708333333333334
            },
            {
              "pitch": 64,
              "velocity": 33,
              "position": 11.020833333333334,
              "duration": 0.17708333333333334
            },
            {
              "pitch": 67,
              "velocity": 36,
              "position": 11.041666666666666,
              "duration": 0.17708333333333334
            },
            {
              "pitch": 59,
              "velocity": 18,
              "position": 11.666666666666666,
              "duration": 0.3229166666666667
            },
            {
              "pitch": 64,
              "velocity": 18,
              "position": 11.6875,
              "duration": 0.3229166666666667
            },
            {
              "pitch": 67,
              "velocity": 18,
              "position": 11.708333333333334,
              "duration": 0.3229166666666667
            },
            {
              "pitch": 59,
              "velocity": 22,
              "position": 12,
              "duration": 0.65625
            },
            {
              "pitch": 64,
              "velocity": 22,
              "position": 12.020833333333334,
              "duration": 0.65625
            },
            {
              "pitch": 67,
              "velocity": 22,
              "position": 12.041666666666666,
              "duration": 0.65625
            },
            {
              "pitch": 59,
              "velocity": 22,
              "position": 12.666666666666666,
              "duration": 0.3229166666666667
            },
            {
              "pitch": 64,
              "velocity": 22,
              "position": 12.6875,
              "duration": 0.3229166666666667
            },
            {
              "pitch": 67,
              "velocity": 22,
              "position": 12.708333333333334,
              "duration": 0.3229166666666667
            },
            {
              "pitch": 59,
              "velocity": 31,
              "position": 13,
              "duration": 0.17708333333333334
            },
            {
              "pitch": 64,
              "velocity": 29,
              "position": 13.020833333333334,
              "duration": 0.17708333333333334
            },
            {
              "pitch": 67,
              "velocity": 28,
              "position": 13.041666666666666,
              "duration": 0.17708333333333334
            },
            {
              "pitch": 59,
              "velocity": 32,
              "position": 13.666666666666666,
              "duration": 0.1875
            },
            {
              "pitch": 64,
              "velocity": 32,
              "position": 13.6875,
              "duration": 0.1875
            },
            {
              "pitch": 67,
              "velocity": 32,
              "position": 13.708333333333334,
              "duration": 0.1875
            },
            {
              "pitch": 59,
              "velocity": 16,
              "position": 14.666666666666666,
              "duration": 0.3229166666666667
            },
            {
              "pitch": 64,
              "velocity": 16,
              "position": 14.6875,
              "duration": 0.3229166666666667
            },
            {
              "pitch": 67,
              "velocity": 16,
              "position": 14.708333333333334,
              "duration": 0.3229166666666667
            },
            {
              "pitch": 59,
              "velocity": 35,
              "position": 15,
              "duration": 0.17708333333333334
            },
            {
              "pitch": 64,
              "velocity": 33,
              "position": 15.020833333333334,
              "duration": 0.17708333333333334
            },
            {
              "pitch": 67,
              "velocity": 32,
              "position": 15.041666666666666,
              "duration": 0.17708333333333334
            },
            {
              "pitch": 59,
              "velocity": 11,
              "position": 15.666666666666666,
              "duration": 0.3229166666666667
            },
            {
              "pitch": 64,
              "velocity": 11,
              "position": 15.6875,
              "duration": 0.3020833333333333
            },
            {
              "pitch": 67,
              "velocity": 11,
              "position": 15.708333333333334,
              "duration": 0.28125
            }
          ]
        },
        "14": {
          "ctab": {
            "srcChannel": 14,
            "name": "Fifth G2",
            "accType": "CHORD1",
            "editable": false,
            "mutedNotes": [
              6,
              5,
              4,
              3
            ],
            "mutedChords": [],
            "autoStart": false,
            "sourceChordNote": 0,
            "sourceChordType": "Maj7",
            "ctb2Low": null,
            "ctb2Main": {
              "ntr": "ROOT_TRANSPOSITION",
              "ntt": "CHORD",
              "bassOn": false,
              "chordRootUpperLimit": 3,
              "noteLowLimit": 0,
              "noteHighLimit": 127,
              "rtr": "PITCH_SHIFT"
            },
            "ctb2High": null
          },
          "notes": [
            {
              "pitch": 55,
              "velocity": 21,
              "position": 0.010416666666666666,
              "duration": 0.65625
            },
            {
              "pitch": 55,
              "velocity": 14,
              "position": 0.6770833333333334,
              "duration": 0.3229166666666667
            },
            {
              "pitch": 55,
              "velocity": 30,
              "position": 1.0104166666666667,
              "duration": 0.17708333333333334
            },
            {
              "pitch": 55,
              "velocity": 18,
              "position": 1.6770833333333333,
              "duration": 0.3229166666666667
            },
            {
              "pitch": 55,
              "velocity": 22,
              "position": 2.0104166666666665,
              "duration": 0.65625
            },
            {
              "pitch": 55,
              "velocity": 19,
              "position": 2.6770833333333335,
              "duration": 0.3229166666666667
            },
            {
              "pitch": 55,
              "velocity": 31,
              "position": 3.0104166666666665,
              "duration": 0.17708333333333334
            },
            {
              "pitch": 55,
              "velocity": 18,
              "position": 3.6770833333333335,
              "duration": 0.3229166666666667
            },
            {
              "pitch": 55,
              "velocity": 22,
              "position": 4.010416666666667,
              "duration": 0.65625
            },
            {
              "pitch": 55,
              "velocity": 14,
              "position": 4.677083333333333,
              "duration": 0.3229166666666667
            },
            {
              "pitch": 55,
              "velocity": 35,
              "position": 5.010416666666667,
              "duration": 0.17708333333333334
            },
            {
              "pitch": 55,
              "velocity": 31,
              "position": 5.677083333333333,
              "duration": 0.15625
            },
            {
              "pitch": 55,
              "velocity": 32,
              "position": 6.677083333333333,
              "duration": 0.17708333333333334
            },
            {
              "pitch": 55,
              "velocity": 18,
              "position": 7.677083333333333,
              "duration": 0.3229166666666667
            },
            {
              "pitch": 55,
              "velocity": 22,
              "position": 8.010416666666666,
              "duration": 0.65625
            },
            {
              "pitch": 55,
              "velocity": 22,
              "position": 8.677083333333334,
              "duration": 0.3229166666666667
            },
            {
              "pitch": 55,
              "velocity": 33,
              "position": 9.010416666666666,
              "duration": 0.17708333333333334
            },
            {
              "pitch": 55,
              "velocity": 18,
              "position": 9.677083333333334,
              "duration": 0.3229166666666667
            },
            {
              "pitch": 55,
              "velocity": 22,
              "position": 10.010416666666666,
              "duration": 0.65625
            },
            {
              "pitch": 55,
              "velocity": 15,
              "position": 10.677083333333334,
              "duration": 0.3229166666666667
            },
            {
              "pitch": 55,
              "velocity": 34,
              "position": 11.010416666666666,
              "duration": 0.17708333333333334
            },
            {
              "pitch": 55,
              "velocity": 18,
              "position": 11.677083333333334,
              "duration": 0.3229166666666667
            },
            {
              "pitch": 55,
              "velocity": 22,
              "position": 12.010416666666666,
              "duration": 0.65625
            },
            {
              "pitch": 55,
              "velocity": 22,
              "position": 12.677083333333334,
              "duration": 0.3229166666666667
            },
            {
              "pitch": 55,
              "velocity": 31,
              "position": 13.010416666666666,
              "duration": 0.17708333333333334
            },
            {
              "pitch": 55,
              "velocity": 32,
              "position": 13.677083333333334,
              "duration": 0.1875
            },
            {
              "pitch": 55,
              "velocity": 16,
              "position": 14.677083333333334,
              "duration": 0.3229166666666667
            },
            {
              "pitch": 55,
              "velocity": 35,
              "position": 15.010416666666666,
              "duration": 0.17708333333333334
            },
            {
              "pitch": 55,
              "velocity": 11,
              "position": 15.677083333333334,
              "duration": 0.3125
            }
          ]
        },
        "15": {
          "ctab": {
            "srcChannel": 15,
            "name": "Root C2",
            "accType": "CHORD1",
            "editable": false,
            "mutedNotes": [
              11,
              2,
              1,
              0
            ],
            "mutedChords": [],
            "autoStart": false,
            "sourceChordNote": 0,
            "sourceChordType": "Maj7",
            "ctb2Low": null,
            "ctb2Main": {
              "ntr": "ROOT_TRANSPOSITION",
              "ntt": "CHORD",
              "bassOn": false,
              "chordRootUpperLimit": 10,
              "noteLowLimit": 0,
              "noteHighLimit": 127,
              "rtr": "PITCH_SHIFT"
            },
            "ctb2High": null
          },
          "notes": [
            {
              "pitch": 48,
              "velocity": 21,
              "position": 0,
              "duration": 0.65625
            },
            {
              "pitch": 48,
              "velocity": 14,
              "position": 0.6666666666666666,
              "duration": 0.3229166666666667
            },
            {
              "pitch": 48,
              "velocity": 30,
              "position": 1,
              "duration": 0.17708333333333334
            },
            {
              "pitch": 48,
              "velocity": 18,
              "position": 1.6666666666666667,
              "duration": 0.3229166666666667
            },
            {
              "pitch": 48,
              "velocity": 22,
              "position": 2,
              "duration": 0.65625
            },
            {
              "pitch": 48,
              "velocity": 19,
              "position": 2.6666666666666665,
              "duration": 0.3229166666666667
            },
            {
              "pitch": 48,
              "velocity": 31,
              "position": 3,
              "duration": 0.17708333333333334
            },
            {
              "pitch": 48,
              "velocity": 18,
              "position": 3.6666666666666665,
              "duration": 0.3229166666666667
            },
            {
              "pitch": 48,
              "velocity": 22,
              "position": 4,
              "duration": 0.65625
            },
            {
              "pitch": 48,
              "velocity": 14,
              "position": 4.666666666666667,
              "duration": 0.3229166666666667
            },
            {
              "pitch": 48,
              "velocity": 35,
              "position": 5,
              "duration": 0.17708333333333334
            },
            {
              "pitch": 48,
              "velocity": 31,
              "position": 5.666666666666667,
              "duration": 0.15625
            },
            {
              "pitch": 48,
              "velocity": 32,
              "position": 6.666666666666667,
              "duration": 0.17708333333333334
            },
            {
              "pitch": 48,
              "velocity": 18,
              "position": 7.666666666666667,
              "duration": 0.3229166666666667
            },
            {
              "pitch": 48,
              "velocity": 22,
              "position": 8,
              "duration": 0.65625
            },
            {
              "pitch": 48,
              "velocity": 22,
              "position": 8.666666666666666,
              "duration": 0.3229166666666667
            },
            {
              "pitch": 48,
              "velocity": 33,
              "position": 9,
              "duration": 0.17708333333333334
            },
            {
              "pitch": 48,
              "velocity": 18,
              "position": 9.666666666666666,
              "duration": 0.3229166666666667
            },
            {
              "pitch": 48,
              "velocity": 22,
              "position": 10,
              "duration": 0.65625
            },
            {
              "pitch": 48,
              "velocity": 15,
              "position": 10.666666666666666,
              "duration": 0.3229166666666667
            },
            {
              "pitch": 48,
              "velocity": 34,
              "position": 11,
              "duration": 0.17708333333333334
            },
            {
              "pitch": 48,
              "velocity": 18,
              "position": 11.666666666666666,
              "duration": 0.3229166666666667
            },
            {
              "pitch": 48,
              "velocity": 22,
              "position": 12,
              "duration": 0.65625
            },
            {
              "pitch": 48,
              "velocity": 22,
              "position": 12.666666666666666,
              "duration": 0.3229166666666667
            },
            {
              "pitch": 48,
              "velocity": 31,
              "position": 13,
              "duration": 0.17708333333333334
            },
            {
              "pitch": 48,
              "velocity": 32,
              "position": 13.666666666666666,
              "duration": 0.1875
            },
            {
              "pitch": 48,
              "velocity": 16,
              "position": 14.666666666666666,
              "duration": 0.3229166666666667
            },
            {
              "pitch": 48,
              "velocity": 35,
              "position": 15,
              "duration": 0.17708333333333334
            },
            {
              "pitch": 48,
              "velocity": 11,
              "position": 15.666666666666666,
              "duration": 0.3229166666666667
            }
          ]
        }
      }
    },
    "Fill_In_AA": {
      "type": "Fill_In_AA",
      "sizeInBeats": 4,
      "channels": {
        "0": {
          "ctab": {
            "srcChannel": 0,
            "name": "CC Crash",
            "accType": "RHYTHM",
            "editable": true,
            "mutedNotes": [],
            "mutedChords": [
              "1+2+5",
              "sus4",
              "1+5",
              "1+8",
              "7aug",
              "Maj7aug",
              "7(#9)",
              "7(b13)",
              "7(b9)",
              "7(13)",
              "7#11",
              "7(9)",
              "7b5",
              "7sus4",
              "7th",
              "dim7",
              "dim",
              "minMaj7(9)",
              "minMaj7",
              "min7(11)",
              "min7(9)",
              "min(9)",
              "m7b5",
              "min7",
              "min6",
              "min",
              "aug",
              "Maj6(9)",
              "Maj7(9)",
              "Maj(9)",
              "Maj7#11",
              "Maj7",
              "Maj6",
              "Maj"
            ],
            "autoStart": true,
            "sourceChordNote": 0,
            "sourceChordType": "Maj7",
            "ctb2Low": null,
            "ctb2Main": {
              "ntr": "ROOT_FIXED",
              "ntt": "BYPASS",
              "bassOn": false,
              "chordRootUpperLimit": 6,
              "noteLowLimit": 0,
              "noteHighLimit": 127,
              "rtr": "RETRIGGER"
            },
            "ctb2High": null
          },
          "notes": []
        },
        "2": {
          "ctab": {
            "srcChannel": 2,
            "name": "Bas4Note",
            "accType": "BASS",
            "editable": false,
            "mutedNotes": [],
            "mutedChords": [
              "1+2+5",
              "sus4",
              "1+5",
              "1+8",
              "7aug",
              "Maj7aug",
              "dim",
              "minMaj7(9)",
              "minMaj7",
              "min(9)",
              "m7b5",
              "min",
              "aug"
            ],
            "autoStart": false,
            "sourceChordNote": 0,
            "sourceChordType": "Maj7",
            "ctb2Low": null,
            "ctb2Main": {
              "ntr": "ROOT_TRANSPOSITION",
              "ntt": "MELODY",
              "bassOn": true,
              "chordRootUpperLimit": 10,
              "noteLowLimit": 28,
              "noteHighLimit": 127,
              "rtr": "PITCH_SHIFT_TO_ROOT"
            },
            "ctb2High": null
          },
          "notes": [
            {
              "pitch": 24,
              "velocity": 70,
              "position": 0,
              "duration": 0.6145833333333334
            },
            {
              "pitch": 24,
              "velocity": 110,
              "position": 0.6666666666666666,
              "duration": 0.3229166666666667
            },
            {
              "pitch": 24,
              "velocity": 62,
              "position": 1,
              "duration": 0.625
            },
            {
              "pitch": 24,
              "velocity": 110,
              "position": 1.6666666666666667,
              "duration": 0.3229166666666667
            },
            {
              "pitch": 31,
              "velocity": 70,
              "position": 2,
              "duration": 0.65625
            },
            {
              "pitch": 31,
              "velocity": 110,
              "position": 2.6666666666666665,
              "duration": 0.3229166666666667
            },
            {
              "pitch": 33,
              "velocity": 60,
              "position": 3,
              "duration": 0.65625
            },
            {
              "pitch": 31,
              "velocity": 58,
              "position": 3.6666666666666665,
              "duration": 0.3229166666666667
            }
          ]
        },
        "3": {
          "ctab": {
            "srcChannel": 3,
            "name": "Bas3Note",
            "accType": "BASS",
            "editable": false,
            "mutedNotes": [],
            "mutedChords": [
              "7(#9)",
              "7(b13)",
              "7(b9)",
              "7(13)",
              "7#11",
              "7(9)",
              "7b5",
              "7sus4",
              "7th",
              "dim7",
              "min7(11)",
              "min7(9)",
              "min7",
              "min6",
              "Maj6(9)",
              "Maj7(9)",
              "Maj(9)",
              "Maj7#11",
              "Maj7",
              "Maj6",
              "Maj"
            ],
            "autoStart": false,
            "sourceChordNote": 0,
            "sourceChordType": "Maj7",
            "ctb2Low": null,
            "ctb2Main": {
              "ntr": "ROOT_TRANSPOSITION",
              "ntt": "MELODY",
              "bassOn": true,
              "chordRootUpperLimit": 0,
              "noteLowLimit": 28,
              "noteHighLimit": 127,
              "rtr": "PITCH_SHIFT_TO_ROOT"
            },
            "ctb2High": null
          },
          "notes": [
            {
              "pitch": 36,
              "velocity": 70,
              "position": 0,
              "duration": 0.6145833333333334
            },
            {
              "pitch": 36,
              "velocity": 110,
              "position": 0.6666666666666666,
              "duration": 0.3229166666666667
            },
            {
              "pitch": 36,
              "velocity": 62,
              "position": 1,
              "duration": 0.625
            },
            {
              "pitch": 36,
              "velocity": 110,
              "position": 1.6666666666666667,
              "duration": 0.3229166666666667
            },
            {
              "pitch": 43,
              "velocity": 70,
              "position": 2,
              "duration": 0.65625
            },
            {
              "pitch": 43,
              "velocity": 110,
              "position": 2.6666666666666665,
              "duration": 0.3229166666666667
            },
            {
              "pitch": 31,
              "velocity": 60,
              "position": 3,
              "duration": 0.65625
            },
            {
              "pitch": 43,
              "velocity": 58,
              "position": 3.6666666666666665,
              "duration": 0.3229166666666667
            }
          ]
        },
        "6": {
          "ctab": {
            "srcChannel": 6,
            "name": "Organ",
            "accType": "PAD",
            "editable": false,
            "mutedNotes": [],
            "mutedChords": [],
            "autoStart": false,
            "sourceChordNote": 0,
            "sourceChordType": "Maj7",
            "ctb2Low": null,
            "ctb2Main": {
              "ntr": "ROOT_FIXED",
              "ntt": "CHORD",
              "bassOn": false,
              "chordRootUpperLimit": 7,
              "noteLowLimit": 0,
              "noteHighLimit": 127,
              "rtr": "PITCH_SHIFT"
            },
            "ctb2High": null
          },
          "notes": [
            {
              "pitch": 67,
              "velocity": 74,
              "position": 0,
              "duration": 3.9895833333333335
            },
            {
              "pitch": 71,
              "velocity": 74,
              "position": 0,
              "duration": 3.9895833333333335
            },
            {
              "pitch": 76,
              "velocity": 74,
              "position": 0,
              "duration": 3.9895833333333335
            }
          ]
        },
        "7": {
          "ctab": {
            "srcChannel": 7,
            "name": "OrgRoot",
            "accType": "PAD",
            "editable": false,
            "mutedNotes": [],
            "mutedChords": [
              "1+2+5",
              "sus4",
              "1+5",
              "1+8",
              "Maj7aug",
              "dim",
              "minMaj7(9)",
              "minMaj7",
              "min6",
              "min",
              "aug",
              "Maj7(9)",
              "Maj7#11",
              "Maj7",
              "Maj6",
              "Maj"
            ],
            "autoStart": false,
            "sourceChordNote": 0,
            "sourceChordType": "Maj7",
            "ctb2Low": null,
            "ctb2Main": {
              "ntr": "ROOT_TRANSPOSITION",
              "ntt": "CHORD",
              "bassOn": false,
              "chordRootUpperLimit": 6,
              "noteLowLimit": 0,
              "noteHighLimit": 127,
              "rtr": "PITCH_SHIFT"
            },
            "ctb2High": null
          },
          "notes": [
            {
              "pitch": 72,
              "velocity": 74,
              "position": 0,
              "duration": 3.9895833333333335
            }
          ]
        },
        "8": {
          "ctab": {
            "srcChannel": 8,
            "name": "Perc",
            "accType": "SUBRHYTHM",
            "editable": false,
            "mutedNotes": [],
            "mutedChords": [],
            "autoStart": true,
            "sourceChordNote": 0,
            "sourceChordType": "Maj7",
            "ctb2Low": null,
            "ctb2Main": {
              "ntr": "ROOT_FIXED",
              "ntt": "BYPASS",
              "bassOn": false,
              "chordRootUpperLimit": 6,
              "noteLowLimit": 0,
              "noteHighLimit": 127,
              "rtr": "PITCH_SHIFT"
            },
            "ctb2High": null
          },
          "notes": [
            {
              "pitch": 54,
              "velocity": 60,
              "position": 0,
              "duration": 0.010416666666666666
            },
            {
              "pitch": 54,
              "velocity": 14,
              "position": 0.6875,
              "duration": 0.010416666666666666
            },
            {
              "pitch": 39,
              "velocity": 74,
              "position": 1,
              "duration": 0.010416666666666666
            },
            {
              "pitch": 54,
              "velocity": 105,
              "position": 1,
              "duration": 0.010416666666666666
            },
            {
              "pitch": 54,
              "velocity": 71,
              "position": 1.6875,
              "duration": 0.010416666666666666
            },
            {
              "pitch": 54,
              "velocity": 60,
              "position": 2,
              "duration": 0.010416666666666666
            },
            {
              "pitch": 54,
              "velocity": 15,
              "position": 2.3333333333333335,
              "duration": 0.010416666666666666
            },
            {
              "pitch": 54,
              "velocity": 35,
              "position": 2.6875,
              "duration": 0.010416666666666666
            },
            {
              "pitch": 39,
              "velocity": 74,
              "position": 3,
              "duration": 0.010416666666666666
            },
            {
              "pitch": 54,
              "velocity": 106,
              "position": 3,
              "duration": 0.010416666666666666
            },
            {
              "pitch": 54,
              "velocity": 40,
              "position": 3.3333333333333335,
              "duration": 0.010416666666666666
            },
            {
              "pitch": 54,
              "velocity": 28,
              "position": 3.6875,
              "duration": 0.010416666666666666
            }
          ]
        },
        "9": {
          "ctab": {
            "srcChannel": 9,
            "name": "Rhyth2",
            "accType": "RHYTHM",
            "editable": false,
            "mutedNotes": [],
            "mutedChords": [],
            "autoStart": true,
            "sourceChordNote": 0,
            "sourceChordType": "Maj7",
            "ctb2Low": null,
            "ctb2Main": {
              "ntr": "ROOT_FIXED",
              "ntt": "BYPASS",
              "bassOn": false,
              "chordRootUpperLimit": 6,
              "noteLowLimit": 0,
              "noteHighLimit": 127,
              "rtr": "PITCH_SHIFT"
            },
            "ctb2High": null
          },
          "notes": [
            {
              "pitch": 36,
              "velocity": 80,
              "position": 0,
              "duration": 0.010416666666666666
            },
            {
              "pitch": 40,
              "velocity": 45,
              "position": 0,
              "duration": 0.010416666666666666
            },
            {
              "pitch": 40,
              "velocity": 50,
              "position": 0.6875,
              "duration": 0.010416666666666666
            },
            {
              "pitch": 40,
              "velocity": 80,
              "position": 1,
              "duration": 0.010416666666666666
            },
            {
              "pitch": 40,
              "velocity": 45,
              "position": 1.6666666666666667,
              "duration": 0.010416666666666666
            },
            {
              "pitch": 40,
              "velocity": 42,
              "position": 1.8333333333333333,
              "duration": 0.010416666666666666
            },
            {
              "pitch": 36,
              "velocity": 80,
              "position": 2,
              "duration": 0.010416666666666666
            },
            {
              "pitch": 40,
              "velocity": 34,
              "position": 2,
              "duration": 0.010416666666666666
            },
            {
              "pitch": 40,
              "velocity": 34,
              "position": 2.3333333333333335,
              "duration": 0.010416666666666666
            },
            {
              "pitch": 40,
              "velocity": 52,
              "position": 2.6666666666666665,
              "duration": 0.010416666666666666
            },
            {
              "pitch": 40,
              "velocity": 80,
              "position": 3,
              "duration": 0.010416666666666666
            },
            {
              "pitch": 40,
              "velocity": 43,
              "position": 3.6666666666666665,
              "duration": 0.010416666666666666
            }
          ]
        },
        "11": {
          "ctab": {
            "srcChannel": 11,
            "name": "Guit SFX",
            "accType": "CHORD1",
            "editable": false,
            "mutedNotes": [],
            "mutedChords": [],
            "autoStart": false,
            "sourceChordNote": 0,
            "sourceChordType": "Maj7",
            "ctb2Low": null,
            "ctb2Main": {
              "ntr": "ROOT_FIXED",
              "ntt": "BYPASS",
              "bassOn": false,
              "chordRootUpperLimit": 7,
              "noteLowLimit": 0,
              "noteHighLimit": 79,
              "rtr": "PITCH_SHIFT"
            },
            "ctb2High": null
          },
          "notes": [
            {
              "pitch": 99,
              "velocity": 109,
              "position": 0.6666666666666666,
              "duration": 0.22916666666666666
            },
            {
              "pitch": 97,
              "velocity": 115,
              "position": 1.6666666666666667,
              "duration": 0.22916666666666666
            },
            {
              "pitch": 99,
              "velocity": 109,
              "position": 2.6666666666666665,
              "duration": 0.22916666666666666
            },
            {
              "pitch": 108,
              "velocity": 85,
              "position": 3,
              "duration": 0.65625
            },
            {
              "pitch": 97,
              "velocity": 97,
              "position": 3.6666666666666665,
              "duration": 0.22916666666666666
            }
          ]
        },
        "12": {
          "ctab": {
            "srcChannel": 12,
            "name": "GtRootTr",
            "accType": "CHORD1",
            "editable": false,
            "mutedNotes": [],
            "mutedChords": [
              "1+2+5",
              "sus4",
              "1+5",
              "1+8",
              "Maj7aug",
              "dim",
              "minMaj7(9)",
              "minMaj7",
              "min6",
              "min",
              "aug",
              "Maj7(9)",
              "Maj7#11",
              "Maj7",
              "Maj6",
              "Maj"
            ],
            "autoStart": false,
            "sourceChordNote": 0,
            "sourceChordType": "Maj7",
            "ctb2Low": null,
            "ctb2Main": {
              "ntr": "ROOT_TRANSPOSITION",
              "ntt": "CHORD",
              "bassOn": false,
              "chordRootUpperLimit": 10,
              "noteLowLimit": 0,
              "noteHighLimit": 127,
              "rtr": "PITCH_SHIFT"
            },
            "ctb2High": null
          },
          "notes": [
            {
              "pitch": 60,
              "velocity": 22,
              "position": 0.68125,
              "duration": 0.20833333333333334
            },
            {
              "pitch": 60,
              "velocity": 28,
              "position": 1.68125,
              "duration": 0.20833333333333334
            },
            {
              "pitch": 60,
              "velocity": 20,
              "position": 2.68125,
              "duration": 0.3229166666666667
            },
            {
              "pitch": 60,
              "velocity": 22,
              "position": 3.0145833333333334,
              "duration": 0.65625
            },
            {
              "pitch": 60,
              "velocity": 14,
              "position": 3.68125,
              "duration": 0.3104166666666667
            }
          ]
        },
        "13": {
          "ctab": {
            "srcChannel": 13,
            "name": "B2-E3-G3",
            "accType": "CHORD1",
            "editable": false,
            "mutedNotes": [],
            "mutedChords": [],
            "autoStart": false,
            "sourceChordNote": 0,
            "sourceChordType": "Maj7",
            "ctb2Low": null,
            "ctb2Main": {
              "ntr": "ROOT_FIXED",
              "ntt": "CHORD",
              "bassOn": false,
              "chordRootUpperLimit": 7,
              "noteLowLimit": 0,
              "noteHighLimit": 127,
              "rtr": "PITCH_SHIFT"
            },
            "ctb2High": null
          },
          "notes": [
            {
              "pitch": 59,
              "velocity": 22,
              "position": 0.6666666666666666,
              "duration": 0.20833333333333334
            },
            {
              "pitch": 64,
              "velocity": 22,
              "position": 0.6875,
              "duration": 0.20833333333333334
            },
            {
              "pitch": 67,
              "velocity": 22,
              "position": 0.7083333333333334,
              "duration": 0.20833333333333334
            },
            {
              "pitch": 59,
              "velocity": 28,
              "position": 1.6666666666666667,
              "duration": 0.20833333333333334
            },
            {
              "pitch": 64,
              "velocity": 28,
              "position": 1.6875,
              "duration": 0.20833333333333334
            },
            {
              "pitch": 67,
              "velocity": 28,
              "position": 1.7083333333333333,
              "duration": 0.20833333333333334
            },
            {
              "pitch": 59,
              "velocity": 20,
              "position": 2.6666666666666665,
              "duration": 0.3229166666666667
            },
            {
              "pitch": 64,
              "velocity": 20,
              "position": 2.6875,
              "duration": 0.3229166666666667
            },
            {
              "pitch": 67,
              "velocity": 20,
              "position": 2.7083333333333335,
              "duration": 0.3229166666666667
            },
            {
              "pitch": 59,
              "velocity": 22,
              "position": 3,
              "duration": 0.65625
            },
            {
              "pitch": 64,
              "velocity": 22,
              "position": 3.0208333333333335,
              "duration": 0.65625
            },
            {
              "pitch": 67,
              "velocity": 22,
              "position": 3.0416666666666665,
              "duration": 0.6354166666666666
            },
            {
              "pitch": 59,
              "velocity": 14,
              "position": 3.6666666666666665,
              "duration": 0.3229166666666667
            },
            {
              "pitch": 64,
              "velocity": 14,
              "position": 3.6875,
              "duration": 0.3020833333333333
            },
            {
              "pitch": 67,
              "velocity": 14,
              "position": 3.7083333333333335,
              "duration": 0.28125
            }
          ]
        },
        "14": {
          "ctab": {
            "srcChannel": 14,
            "name": "Fifth G2",
            "accType": "CHORD1",
            "editable": false,
            "mutedNotes": [
              6,
              5,
              4,
              3
            ],
            "mutedChords": [],
            "autoStart": false,
            "sourceChordNote": 0,
            "sourceChordType": "Maj7",
            "ctb2Low": null,
            "ctb2Main": {
              "ntr": "ROOT_TRANSPOSITION",
              "ntt": "CHORD",
              "bassOn": false,
              "chordRootUpperLimit": 3,
              "noteLowLimit": 0,
              "noteHighLimit": 127,
              "rtr": "PITCH_SHIFT"
            },
            "ctb2High": null
          },
          "notes": [
            {
              "pitch": 55,
              "velocity": 22,
              "position": 0.6770833333333334,
              "duration": 0.20833333333333334
            },
            {
              "pitch": 55,
              "velocity": 28,
              "position": 1.6770833333333333,
              "duration": 0.20833333333333334
            },
            {
              "pitch": 55,
              "velocity": 20,
              "position": 2.6770833333333335,
              "duration": 0.3229166666666667
            },
            {
              "pitch": 55,
              "velocity": 22,
              "position": 3.0104166666666665,
              "duration": 0.65625
            },
            {
              "pitch": 55,
              "velocity": 14,
              "position": 3.6770833333333335,
              "duration": 0.3125
            }
          ]
        },
        "15": {
          "ctab": {
            "srcChannel": 15,
            "name": "Root C2",
            "accType": "CHORD1",
            "editable": false,
            "mutedNotes": [
              11,
              2,
              1,
              0
            ],
            "mutedChords": [],
            "autoStart": false,
            "sourceChordNote": 0,
            "sourceChordType": "Maj7",
            "ctb2Low": null,
            "ctb2Main": {
              "ntr": "ROOT_TRANSPOSITION",
              "ntt": "CHORD",
              "bassOn": false,
              "chordRootUpperLimit": 10,
              "noteLowLimit": 0,
              "noteHighLimit": 127,
              "rtr": "PITCH_SHIFT"
            },
            "ctb2High": null
          },
          "notes": [
            {
              "pitch": 48,
              "velocity": 22,
              "position": 0.6666666666666666,
              "duration": 0.20833333333333334
            },
            {
              "pitch": 48,
              "velocity": 28,
              "position": 1.6666666666666667,
              "duration": 0.20833333333333334
            },
            {
              "pitch": 48,
              "velocity": 20,
              "position": 2.6666666666666665,
              "duration": 0.3229166666666667
            },
            {
              "pitch": 48,
              "velocity": 22,
              "position": 3,
              "duration": 0.65625
            },
            {
              "pitch": 48,
              "velocity": 14,
              "position": 3.6666666666666665,
              "duration": 0.3229166666666667
            }
          ]
        }
      }
    },
    "Fill_In_BB": {
      "type": "Fill_In_BB",
      "sizeInBeats": 4,
      "channels": {
        "0": {
          "ctab": {
            "srcChannel": 0,
            "name": "CC Crash",
            "accType": "RHYTHM",
            "editable": true,
            "mutedNotes": [],
            "mutedChords": [
              "1+2+5",
              "sus4",
              "1+5",
              "1+8",
              "7aug",
              "Maj7aug",
              "7(#9)",
              "7(b13)",
              "7(b9)",
              "7(13)",
              "7#11",
              "7(9)",
              "7b5",
              "7sus4",
              "7th",
              "dim7",
              "dim",
              "minMaj7(9)",
              "minMaj7",
              "min7(11)",
              "min7(9)",
              "min(9)",
              "m7b5",
              "min7",
              "min6",
              "min",
              "aug",
              "Maj6(9)",
              "Maj7(9)",
              "Maj(9)",
              "Maj7#11",
              "Maj7",
              "Maj6",
              "Maj"
            ],
            "autoStart": true,
            "sourceChordNote": 0,
            "sourceChordType": "Maj7",
            "ctb2Low": null,
            "ctb2Main": {
              "ntr": "ROOT_FIXED",
              "ntt": "BYPASS",
              "bassOn": false,
              "chordRootUpperLimit": 6,
              "noteLowLimit": 0,
              "noteHighLimit": 127,
              "rtr": "RETRIGGER"
            },
            "ctb2High": null
          },
          "notes": []
        },
        "2": {
          "ctab": {
            "srcChannel": 2,
            "name": "Bas4Note",
            "accType": "BASS",
            "editable": false,
            "mutedNotes": [],
            "mutedChords": [
              "1+2+5",
              "sus4",
              "1+5",
              "1+8",
              "7aug",
              "Maj7aug",
              "dim",
              "minMaj7(9)",
              "minMaj7",
              "min(9)",
              "m7b5",
              "min",
              "aug"
            ],
            "autoStart": false,
            "sourceChordNote": 0,
            "sourceChordType": "Maj7",
            "ctb2Low": null,
            "ctb2Main": {
              "ntr": "ROOT_TRANSPOSITION",
              "ntt": "MELODY",
              "bassOn": true,
              "chordRootUpperLimit": 10,
              "noteLowLimit": 28,
              "noteHighLimit": 127,
              "rtr": "PITCH_SHIFT_TO_ROOT"
            },
            "ctb2High": null
          },
          "notes": [
            {
              "pitch": 24,
              "velocity": 70,
              "position": 0,
              "duration": 0.65625
            },
            {
              "pitch": 36,
              "velocity": 66,
              "position": 0.6666666666666666,
              "duration": 0.3229166666666667
            },
            {
              "pitch": 33,
              "velocity": 62,
              "position": 1,
              "duration": 0.6458333333333334
            },
            {
              "pitch": 24,
              "velocity": 100,
              "position": 1.6666666666666667,
              "duration": 0.3229166666666667
            },
            {
              "pitch": 31,
              "velocity": 70,
              "position": 2,
              "duration": 0.8020833333333334
            },
            {
              "pitch": 33,
              "velocity": 60,
              "position": 3,
              "duration": 0.65625
            },
            {
              "pitch": 31,
              "velocity": 50,
              "position": 3.6666666666666665,
              "duration": 0.3229166666666667
            }
          ]
        },
        "3": {
          "ctab": {
            "srcChannel": 3,
            "name": "Bas3Note",
            "accType": "BASS",
            "editable": false,
            "mutedNotes": [],
            "mutedChords": [
              "7(#9)",
              "7(b13)",
              "7(b9)",
              "7(13)",
              "7#11",
              "7(9)",
              "7b5",
              "7sus4",
              "7th",
              "dim7",
              "min7(11)",
              "min7(9)",
              "min7",
              "min6",
              "Maj6(9)",
              "Maj7(9)",
              "Maj(9)",
              "Maj7#11",
              "Maj7",
              "Maj6",
              "Maj"
            ],
            "autoStart": false,
            "sourceChordNote": 0,
            "sourceChordType": "Maj7",
            "ctb2Low": null,
            "ctb2Main": {
              "ntr": "ROOT_TRANSPOSITION",
              "ntt": "MELODY",
              "bassOn": true,
              "chordRootUpperLimit": 0,
              "noteLowLimit": 28,
              "noteHighLimit": 127,
              "rtr": "PITCH_SHIFT_TO_ROOT"
            },
            "ctb2High": null
          },
          "notes": [
            {
              "pitch": 36,
              "velocity": 70,
              "position": 0,
              "duration": 0.65625
            },
            {
              "pitch": 36,
              "velocity": 66,
              "position": 0.6666666666666666,
              "duration": 0.3229166666666667
            },
            {
              "pitch": 40,
              "velocity": 62,
              "position": 1,
              "duration": 0.6458333333333334
            },
            {
              "pitch": 36,
              "velocity": 100,
              "position": 1.6666666666666667,
              "duration": 0.3229166666666667
            },
            {
              "pitch": 43,
              "velocity": 70,
              "position": 2,
              "duration": 0.8020833333333334
            },
            {
              "pitch": 40,
              "velocity": 60,
              "position": 3,
              "duration": 0.65625
            },
            {
              "pitch": 31,
              "velocity": 50,
              "position": 3.6666666666666665,
              "duration": 0.3229166666666667
            }
          ]
        },
        "6": {
          "ctab": {
            "srcChannel": 6,
            "name": "Organ",
            "accType": "PAD",
            "editable": false,
            "mutedNotes": [],
            "mutedChords": [],
            "autoStart": false,
            "sourceChordNote": 0,
            "sourceChordType": "Maj7",
            "ctb2Low": null,
            "ctb2Main": {
              "ntr": "ROOT_FIXED",
              "ntt": "CHORD",
              "bassOn": false,
              "chordRootUpperLimit": 7,
              "noteLowLimit": 0,
              "noteHighLimit": 127,
              "rtr": "PITCH_SHIFT"
            },
            "ctb2High": null
          },
          "notes": [
            {
              "pitch": 67,
              "velocity": 74,
              "position": 0,
              "duration": 3.9895833333333335
            },
            {
              "pitch": 71,
              "velocity": 74,
              "position": 0,
              "duration": 3.9895833333333335
            },
            {
              "pitch": 76,
              "velocity": 74,
              "position": 0,
              "duration": 3.9895833333333335
            }
          ]
        },
        "7": {
          "ctab": {
            "srcChannel": 7,
            "name": "OrgRoot",
            "accType": "PAD",
            "editable": false,
            "mutedNotes": [],
            "mutedChords": [
              "1+2+5",
              "sus4",
              "1+5",
              "1+8",
              "Maj7aug",
              "dim",
              "minMaj7(9)",
              "minMaj7",
              "min6",
              "min",
              "aug",
              "Maj7(9)",
              "Maj7#11",
              "Maj7",
              "Maj6",
              "Maj"
            ],
            "autoStart": false,
            "sourceChordNote": 0,
            "sourceChordType": "Maj7",
            "ctb2Low": null,
            "ctb2Main": {
              "ntr": "ROOT_TRANSPOSITION",
              "ntt": "CHORD",
              "bassOn": false,
              "chordRootUpperLimit": 6,
              "noteLowLimit": 0,
              "noteHighLimit": 127,
              "rtr": "PITCH_SHIFT"
            },
            "ctb2High": null
          },
          "notes": [
            {
              "pitch": 72,
              "velocity": 74,
              "position": 0,
              "duration": 3.9895833333333335
            }
          ]
        },
        "8": {
          "ctab": {
            "srcChannel": 8,
            "name": "Perc",
            "accType": "SUBRHYTHM",
            "editable": false,
            "mutedNotes": [],
            "mutedChords": [],
            "autoStart": true,
            "sourceChordNote": 0,
            "sourceChordType": "Maj7",
            "ctb2Low": null,
            "ctb2Main": {
              "ntr": "ROOT_FIXED",
              "ntt": "BYPASS",
              "bassOn": false,
              "chordRootUpperLimit": 6,
              "noteLowLimit": 0,
              "noteHighLimit": 127,
              "rtr": "PITCH_SHIFT"
            },
            "ctb2High": null
          },
          "notes": [
            {
              "pitch": 54,
              "velocity": 60,
              "position": 0,
              "duration": 0.010416666666666666
            },
            {
              "pitch": 54,
              "velocity": 14,
              "position": 0.6875,
              "duration": 0.010416666666666666
            },
            {
              "pitch": 39,
              "velocity": 74,
              "position": 1,
              "duration": 0.010416666666666666
            },
            {
              "pitch": 54,
              "velocity": 105,
              "position": 1,
              "duration": 0.010416666666666666
            },
            {
              "pitch": 54,
              "velocity": 33,
              "position": 1.6875,
              "duration": 0.010416666666666666
            },
            {
              "pitch": 54,
              "velocity": 60,
              "position": 2,
              "duration": 0.010416666666666666
            },
            {
              "pitch": 54,
              "velocity": 14,
              "position": 2.6875,
              "duration": 0.010416666666666666
            },
            {
              "pitch": 39,
              "velocity": 74,
              "position": 3,
              "duration": 0.010416666666666666
            },
            {
              "pitch": 54,
              "velocity": 105,
              "position": 3,
              "duration": 0.010416666666666666
            },
            {
              "pitch": 54,
              "velocity": 41,
              "position": 3.3333333333333335,
              "duration": 0.010416666666666666
            },
            {
              "pitch": 54,
              "velocity": 37,
              "position": 3.6666666666666665,
              "duration": 0.010416666666666666
            }
          ]
        },
        "9": {
          "ctab": {
            "srcChannel": 9,
            "name": "Rhyth2",
            "accType": "RHYTHM",
            "editable": false,
            "mutedNotes": [],
            "mutedChords": [],
            "autoStart": true,
            "sourceChordNote": 0,
            "sourceChordType": "Maj7",
            "ctb2Low": null,
            "ctb2Main": {
              "ntr": "ROOT_FIXED",
              "ntt": "BYPASS",
              "bassOn": false,
              "chordRootUpperLimit": 6,
              "noteLowLimit": 0,
              "noteHighLimit": 127,
              "rtr": "PITCH_SHIFT"
            },
            "ctb2High": null
          },
          "notes": [
            {
              "pitch": 36,
              "velocity": 80,
              "position": 0,
              "duration": 0.010416666666666666
            },
            {
              "pitch": 40,
              "velocity": 45,
              "position": 0,
              "duration": 0.010416666666666666
            },
            {
              "pitch": 40,
              "velocity": 59,
              "position": 0.6875,
              "duration": 0.010416666666666666
            },
            {
              "pitch": 40,
              "velocity": 80,
              "position": 1,
              "duration": 0.010416666666666666
            },
            {
              "pitch": 45,
              "velocity": 68,
              "position": 1.3333333333333333,
              "duration": 0.010416666666666666
            },
            {
              "pitch": 40,
              "velocity": 63,
              "position": 1.6666666666666667,
              "duration": 0.010416666666666666
            },
            {
              "pitch": 36,
              "velocity": 80,
              "position": 2,
              "duration": 0.010416666666666666
            },
            {
              "pitch": 40,
              "velocity": 45,
              "position": 2,
              "duration": 0.010416666666666666
            },
            {
              "pitch": 43,
              "velocity": 68,
              "position": 2.3333333333333335,
              "duration": 0.010416666666666666
            },
            {
              "pitch": 40,
              "velocity": 51,
              "position": 2.6666666666666665,
              "duration": 0.010416666666666666
            },
            {
              "pitch": 40,
              "velocity": 42,
              "position": 2.8333333333333335,
              "duration": 0.010416666666666666
            },
            {
              "pitch": 40,
              "velocity": 80,
              "position": 3,
              "duration": 0.010416666666666666
            },
            {
              "pitch": 34,
              "velocity": 70,
              "position": 3.3333333333333335,
              "duration": 0.010416666666666666
            },
            {
              "pitch": 40,
              "velocity": 54,
              "position": 3.6666666666666665,
              "duration": 0.010416666666666666
            }
          ]
        },
        "11": {
          "ctab": {
            "srcChannel": 11,
            "name": "Guit SFX",
            "accType": "CHORD1",
            "editable": false,
            "mutedNotes": [],
            "mutedChords": [],
            "autoStart": false,
            "sourceChordNote": 0,
            "sourceChordType": "Maj7",
            "ctb2Low": null,
            "ctb2Main": {
              "ntr": "ROOT_FIXED",
              "ntt": "BYPASS",
              "bassOn": false,
              "chordRootUpperLimit": 7,
              "noteLowLimit": 0,
              "noteHighLimit": 79,
              "rtr": "PITCH_SHIFT"
            },
            "ctb2High": null
          },
          "notes": [
            {
              "pitch": 108,
              "velocity": 94,
              "position": 0,
              "duration": 0.65625
            },
            {
              "pitch": 99,
              "velocity": 109,
              "position": 0.6666666666666666,
              "duration": 0.22916666666666666
            },
            {
              "pitch": 108,
              "velocity": 94,
              "position": 1.6666666666666667,
              "duration": 0.65625
            },
            {
              "pitch": 99,
              "velocity": 109,
              "position": 2.6666666666666665,
              "duration": 0.22916666666666666
            },
            {
              "pitch": 108,
              "velocity": 94,
              "position": 3,
              "duration": 0.65625
            },
            {
              "pitch": 103,
              "velocity": 97,
              "position": 3.6666666666666665,
              "duration": 0.22916666666666666
            }
          ]
        },
        "12": {
          "ctab": {
            "srcChannel": 12,
            "name": "GtRootTr",
            "accType": "CHORD1",
            "editable": false,
            "mutedNotes": [],
            "mutedChords": [
              "1+2+5",
              "sus4",
              "1+5",
              "1+8",
              "Maj7aug",
              "dim",
              "minMaj7(9)",
              "minMaj7",
              "min6",
              "min",
              "aug",
              "Maj7(9)",
              "Maj7#11",
              "Maj7",
              "Maj6",
              "Maj"
            ],
            "autoStart": false,
            "sourceChordNote": 0,
            "sourceChordType": "Maj7",
            "ctb2Low": null,
            "ctb2Main": {
              "ntr": "ROOT_TRANSPOSITION",
              "ntt": "CHORD",
              "bassOn": false,
              "chordRootUpperLimit": 10,
              "noteLowLimit": 0,
              "noteHighLimit": 127,
              "rtr": "PITCH_SHIFT"
            },
            "ctb2High": null
          },
          "notes": [
            {
              "pitch": 60,
              "velocity": 22,
              "position": 0.014583333333333334,
              "duration": 0.65625
            },
            {
              "pitch": 60,
              "velocity": 22,
              "position": 0.68125,
              "duration": 0.20833333333333334
            },
            {
              "pitch": 60,
              "velocity": 119,
              "position": 1.68125,
              "duration": 0.9895833333333334
            },
            {
              "pitch": 60,
              "velocity": 32,
              "position": 2.68125,
              "duration": 0.17708333333333334
            },
            {
              "pitch": 60,
              "velocity": 10,
              "position": 3.68125,
              "duration": 0.3104166666666667
            }
          ]
        },
        "13": {
          "ctab": {
            "srcChannel": 13,
            "name": "B2-E3-G3",
            "accType": "CHORD1",
            "editable": false,
            "mutedNotes": [],
            "mutedChords": [],
            "autoStart": false,
            "sourceChordNote": 0,
            "sourceChordType": "Maj7",
            "ctb2Low": null,
            "ctb2Main": {
              "ntr": "ROOT_FIXED",
              "ntt": "CHORD",
              "bassOn": false,
              "chordRootUpperLimit": 7,
              "noteLowLimit": 0,
              "noteHighLimit": 127,
              "rtr": "PITCH_SHIFT"
            },
            "ctb2High": null
          },
          "notes": [
            {
              "pitch": 59,
              "velocity": 22,
              "position": 0,
              "duration": 0.65625
            },
            {
              "pitch": 64,
              "velocity": 22,
              "position": 0.020833333333333332,
              "duration": 0.65625
            },
            {
              "pitch": 67,
              "velocity": 22,
              "position": 0.041666666666666664,
              "duration": 0.65625
            },
            {
              "pitch": 59,
              "velocity": 22,
              "position": 0.6666666666666666,
              "duration": 0.20833333333333334
            },
            {
              "pitch": 64,
              "velocity": 22,
              "position": 0.6875,
              "duration": 0.20833333333333334
            },
            {
              "pitch": 67,
              "velocity": 22,
              "position": 0.7083333333333334,
              "duration": 0.20833333333333334
            },
            {
              "pitch": 59,
              "velocity": 119,
              "position": 1.6666666666666667,
              "duration": 0.9895833333333334
            },
            {
              "pitch": 64,
              "velocity": 119,
              "position": 1.6875,
              "duration": 0.9895833333333334
            },
            {
              "pitch": 67,
              "velocity": 119,
              "position": 1.7083333333333333,
              "duration": 0.9895833333333334
            },
            {
              "pitch": 59,
              "velocity": 32,
              "position": 2.6666666666666665,
              "duration": 0.16666666666666666
            },
            {
              "pitch": 64,
              "velocity": 32,
              "position": 2.6875,
              "duration": 0.17708333333333334
            },
            {
              "pitch": 67,
              "velocity": 32,
              "position": 2.7083333333333335,
              "duration": 0.1875
            },
            {
              "pitch": 59,
              "velocity": 10,
              "position": 3.6666666666666665,
              "duration": 0.3229166666666667
            },
            {
              "pitch": 64,
              "velocity": 10,
              "position": 3.6875,
              "duration": 0.3020833333333333
            },
            {
              "pitch": 67,
              "velocity": 10,
              "position": 3.7083333333333335,
              "duration": 0.28125
            }
          ]
        },
        "14": {
          "ctab": {
            "srcChannel": 14,
            "name": "Fifth G2",
            "accType": "CHORD1",
            "editable": false,
            "mutedNotes": [
              6,
              5,
              4,
              3
            ],
            "mutedChords": [],
            "autoStart": false,
            "sourceChordNote": 0,
            "sourceChordType": "Maj7",
            "ctb2Low": null,
            "ctb2Main": {
              "ntr": "ROOT_TRANSPOSITION",
              "ntt": "CHORD",
              "bassOn": false,
              "chordRootUpperLimit": 3,
              "noteLowLimit": 0,
              "noteHighLimit": 127,
              "rtr": "PITCH_SHIFT"
            },
            "ctb2High": null
          },
          "notes": [
            {
              "pitch": 55,
              "velocity": 22,
              "position": 0.010416666666666666,
              "duration": 0.65625
            },
            {
              "pitch": 55,
              "velocity": 22,
              "position": 0.6770833333333334,
              "duration": 0.20833333333333334
            },
            {
              "pitch": 55,
              "velocity": 119,
              "position": 1.6770833333333333,
              "duration": 0.9895833333333334
            },
            {
              "pitch": 55,
              "velocity": 32,
              "position": 2.6770833333333335,
              "duration": 0.16666666666666666
            },
            {
              "pitch": 55,
              "velocity": 10,
              "position": 3.6770833333333335,
              "duration": 0.3125
            }
          ]
        },
        "15": {
          "ctab": {
            "srcChannel": 15,
            "name": "Root C2",
            "accType": "CHORD1",
            "editable": false,
            "mutedNotes": [
              11,
              2,
              1,
              0
            ],
            "mutedChords": [],
            "autoStart": false,
            "sourceChordNote": 0,
            "sourceChordType": "Maj7",
            "ctb2Low": null,
            "ctb2Main": {
              "ntr": "ROOT_TRANSPOSITION",
              "ntt": "CHORD",
              "bassOn": false,
              "chordRootUpperLimit": 10,
              "noteLowLimit": 0,
              "noteHighLimit": 127,
              "rtr": "PITCH_SHIFT"
            },
            "ctb2High": null
          },
          "notes": [
            {
              "pitch": 48,
              "velocity": 22,
              "position": 0,
              "duration": 0.65625
            },
            {
              "pitch": 48,
              "velocity": 22,
              "position": 0.6666666666666666,
              "duration": 0.20833333333333334
            },
            {
              "pitch": 48,
              "velocity": 119,
              "position": 1.6666666666666667,
              "duration": 0.9895833333333334
            },
            {
              "pitch": 48,
              "velocity": 32,
              "position": 2.6666666666666665,
              "duration": 0.16666666666666666
            },
            {
              "pitch": 48,
              "velocity": 10,
              "position": 3.6666666666666665,
              "duration": 0.3229166666666667
            }
          ]
        }
      }
    },
    "Fill_In_CC": {
      "type": "Fill_In_CC",
      "sizeInBeats": 4,
      "channels": {
        "0": {
          "ctab": {
            "srcChannel": 0,
            "name": "CC Crash",
            "accType": "RHYTHM",
            "editable": true,
            "mutedNotes": [],
            "mutedChords": [
              "1+2+5",
              "sus4",
              "1+5",
              "1+8",
              "7aug",
              "Maj7aug",
              "7(#9)",
              "7(b13)",
              "7(b9)",
              "7(13)",
              "7#11",
              "7(9)",
              "7b5",
              "7sus4",
              "7th",
              "dim7",
              "dim",
              "minMaj7(9)",
              "minMaj7",
              "min7(11)",
              "min7(9)",
              "min(9)",
              "m7b5",
              "min7",
              "min6",
              "min",
              "aug",
              "Maj6(9)",
              "Maj7(9)",
              "Maj(9)",
              "Maj7#11",
              "Maj7",
              "Maj6",
              "Maj"
            ],
            "autoStart": true,
            "sourceChordNote": 0,
            "sourceChordType": "Maj7",
            "ctb2Low": null,
            "ctb2Main": {
              "ntr": "ROOT_FIXED",
              "ntt": "BYPASS",
              "bassOn": false,
              "chordRootUpperLimit": 6,
              "noteLowLimit": 0,
              "noteHighLimit": 127,
              "rtr": "RETRIGGER"
            },
            "ctb2High": null
          },
          "notes": []
        },
        "2": {
          "ctab": {
            "srcChannel": 2,
            "name": "Bas4Note",
            "accType": "BASS",
            "editable": false,
            "mutedNotes": [],
            "mutedChords": [
              "1+2+5",
              "sus4",
              "1+5",
              "1+8",
              "7aug",
              "Maj7aug",
              "dim",
              "minMaj7(9)",
              "minMaj7",
              "min(9)",
              "m7b5",
              "min",
              "aug"
            ],
            "autoStart": false,
            "sourceChordNote": 0,
            "sourceChordType": "Maj7",
            "ctb2Low": null,
            "ctb2Main": {
              "ntr": "ROOT_TRANSPOSITION",
              "ntt": "MELODY",
              "bassOn": true,
              "chordRootUpperLimit": 10,
              "noteLowLimit": 28,
              "noteHighLimit": 127,
              "rtr": "PITCH_SHIFT_TO_ROOT"
            },
            "ctb2High": null
          },
          "notes": [
            {
              "pitch": 24,
              "velocity": 70,
              "position": 0,
              "duration": 0.65625
            },
            {
              "pitch": 36,
              "velocity": 110,
              "position": 0.6666666666666666,
              "duration": 0.3229166666666667
            },
            {
              "pitch": 33,
              "velocity": 62,
              "position": 1,
              "duration": 0.6458333333333334
            },
            {
              "pitch": 28,
              "velocity": 100,
              "position": 1.6666666666666667,
              "duration": 0.3229166666666667
            },
            {
              "pitch": 31,
              "velocity": 70,
              "position": 2,
              "duration": 0.6354166666666666
            },
            {
              "pitch": 24,
              "velocity": 64,
              "position": 2.6666666666666665,
              "duration": 0.3229166666666667
            },
            {
              "pitch": 28,
              "velocity": 60,
              "position": 3,
              "duration": 0.65625
            },
            {
              "pitch": 31,
              "velocity": 50,
              "position": 3.6666666666666665,
              "duration": 0.3229166666666667
            }
          ]
        },
        "3": {
          "ctab": {
            "srcChannel": 3,
            "name": "Bas3Note",
            "accType": "BASS",
            "editable": false,
            "mutedNotes": [],
            "mutedChords": [
              "7(#9)",
              "7(b13)",
              "7(b9)",
              "7(13)",
              "7#11",
              "7(9)",
              "7b5",
              "7sus4",
              "7th",
              "dim7",
              "min7(11)",
              "min7(9)",
              "min7",
              "min6",
              "Maj6(9)",
              "Maj7(9)",
              "Maj(9)",
              "Maj7#11",
              "Maj7",
              "Maj6",
              "Maj"
            ],
            "autoStart": false,
            "sourceChordNote": 0,
            "sourceChordType": "Maj7",
            "ctb2Low": null,
            "ctb2Main": {
              "ntr": "ROOT_TRANSPOSITION",
              "ntt": "MELODY",
              "bassOn": true,
              "chordRootUpperLimit": 0,
              "noteLowLimit": 28,
              "noteHighLimit": 127,
              "rtr": "PITCH_SHIFT_TO_ROOT"
            },
            "ctb2High": null
          },
          "notes": [
            {
              "pitch": 36,
              "velocity": 70,
              "position": 0,
              "duration": 0.65625
            },
            {
              "pitch": 48,
              "velocity": 110,
              "position": 0.6666666666666666,
              "duration": 0.3229166666666667
            },
            {
              "pitch": 43,
              "velocity": 62,
              "position": 1,
              "duration": 0.6458333333333334
            },
            {
              "pitch": 40,
              "velocity": 100,
              "position": 1.6666666666666667,
              "duration": 0.3229166666666667
            },
            {
              "pitch": 48,
              "velocity": 70,
              "position": 2,
              "duration": 0.6354166666666666
            },
            {
              "pitch": 31,
              "velocity": 64,
              "position": 2.6666666666666665,
              "duration": 0.3229166666666667
            },
            {
              "pitch": 43,
              "velocity": 60,
              "position": 3,
              "duration": 0.65625
            },
            {
              "pitch": 40,
              "velocity": 50,
              "position": 3.6666666666666665,
              "duration": 0.3229166666666667
            }
          ]
        },
        "6": {
          "ctab": {
            "srcChannel": 6,
            "name": "Organ",
            "accType": "PAD",
            "editable": false,
            "mutedNotes": [],
            "mutedChords": [],
            "autoStart": false,
            "sourceChordNote": 0,
            "sourceChordType": "Maj7",
            "ctb2Low": null,
            "ctb2Main": {
              "ntr": "ROOT_FIXED",
              "ntt": "CHORD",
              "bassOn": false,
              "chordRootUpperLimit": 7,
              "noteLowLimit": 0,
              "noteHighLimit": 127,
              "rtr": "PITCH_SHIFT"
            },
            "ctb2High": null
          },
          "notes": [
            {
              "pitch": 67,
              "velocity": 74,
              "position": 0,
              "duration": 3.9895833333333335
            },
            {
              "pitch": 71,
              "velocity": 74,
              "position": 0,
              "duration": 3.9895833333333335
            },
            {
              "pitch": 76,
              "velocity": 74,
              "position": 0,
              "duration": 3.9895833333333335
            }
          ]
        },
        "7": {
          "ctab": {
            "srcChannel": 7,
            "name": "OrgRoot",
            "accType": "PAD",
            "editable": false,
            "mutedNotes": [],
            "mutedChords": [
              "1+2+5",
              "sus4",
              "1+5",
              "1+8",
              "Maj7aug",
              "dim",
              "minMaj7(9)",
              "minMaj7",
              "min6",
              "min",
              "aug",
              "Maj7(9)",
              "Maj7#11",
              "Maj7",
              "Maj6",
              "Maj"
            ],
            "autoStart": false,
            "sourceChordNote": 0,
            "sourceChordType": "Maj7",
            "ctb2Low": null,
            "ctb2Main": {
              "ntr": "ROOT_TRANSPOSITION",
              "ntt": "CHORD",
              "bassOn": false,
              "chordRootUpperLimit": 6,
              "noteLowLimit": 0,
              "noteHighLimit": 127,
              "rtr": "PITCH_SHIFT"
            },
            "ctb2High": null
          },
          "notes": [
            {
              "pitch": 72,
              "velocity": 74,
              "position": 0,
              "duration": 3.9895833333333335
            }
          ]
        },
        "8": {
          "ctab": {
            "srcChannel": 8,
            "name": "Perc",
            "accType": "SUBRHYTHM",
            "editable": false,
            "mutedNotes": [],
            "mutedChords": [],
            "autoStart": true,
            "sourceChordNote": 0,
            "sourceChordType": "Maj7",
            "ctb2Low": null,
            "ctb2Main": {
              "ntr": "ROOT_FIXED",
              "ntt": "BYPASS",
              "bassOn": false,
              "chordRootUpperLimit": 6,
              "noteLowLimit": 0,
              "noteHighLimit": 127,
              "rtr": "PITCH_SHIFT"
            },
            "ctb2High": null
          },
          "notes": [
            {
              "pitch": 54,
              "velocity": 60,
              "position": 0,
              "duration": 0.010416666666666666
            },
            {
              "pitch": 54,
              "velocity": 14,
              "position": 0.6875,
              "duration": 0.010416666666666666
            },
            {
              "pitch": 39,
              "velocity": 94,
              "position": 1,
              "duration": 0.010416666666666666
            },
            {
              "pitch": 54,
              "velocity": 105,
              "position": 1,
              "duration": 0.010416666666666666
            },
            {
              "pitch": 54,
              "velocity": 14,
              "position": 1.6875,
              "duration": 0.010416666666666666
            },
            {
              "pitch": 54,
              "velocity": 60,
              "position": 2,
              "duration": 0.010416666666666666
            },
            {
              "pitch": 54,
              "velocity": 14,
              "position": 2.6875,
              "duration": 0.010416666666666666
            },
            {
              "pitch": 39,
              "velocity": 94,
              "position": 3,
              "duration": 0.010416666666666666
            },
            {
              "pitch": 54,
              "velocity": 105,
              "position": 3,
              "duration": 0.010416666666666666
            },
            {
              "pitch": 54,
              "velocity": 14,
              "position": 3.6875,
              "duration": 0.010416666666666666
            }
          ]
        },
        "9": {
          "ctab": {
            "srcChannel": 9,
            "name": "Rhyth2",
            "accType": "RHYTHM",
            "editable": false,
            "mutedNotes": [],
            "mutedChords": [],
            "autoStart": true,
            "sourceChordNote": 0,
            "sourceChordType": "Maj7",
            "ctb2Low": null,
            "ctb2Main": {
              "ntr": "ROOT_FIXED",
              "ntt": "BYPASS",
              "bassOn": false,
              "chordRootUpperLimit": 6,
              "noteLowLimit": 0,
              "noteHighLimit": 127,
              "rtr": "PITCH_SHIFT"
            },
            "ctb2High": null
          },
          "notes": [
            {
              "pitch": 36,
              "velocity": 80,
              "position": 0,
              "duration": 0.010416666666666666
            },
            {
              "pitch": 42,
              "velocity": 90,
              "position": 0,
              "duration": 0.010416666666666666
            },
            {
              "pitch": 40,
              "velocity": 53,
              "position": 0.6875,
              "duration": 0.010416666666666666
            },
            {
              "pitch": 40,
              "velocity": 80,
              "position": 1,
              "duration": 0.010416666666666666
            },
            {
              "pitch": 42,
              "velocity": 80,
              "position": 1,
              "duration": 0.010416666666666666
            },
            {
              "pitch": 40,
              "velocity": 35,
              "position": 1.3333333333333333,
              "duration": 0.010416666666666666
            },
            {
              "pitch": 40,
              "velocity": 80,
              "position": 1.6666666666666667,
              "duration": 0.010416666666666666
            },
            {
              "pitch": 46,
              "velocity": 70,
              "position": 1.6666666666666667,
              "duration": 0.010416666666666666
            },
            {
              "pitch": 36,
              "velocity": 80,
              "position": 2,
              "duration": 0.010416666666666666
            },
            {
              "pitch": 40,
              "velocity": 42,
              "position": 2.3333333333333335,
              "duration": 0.010416666666666666
            },
            {
              "pitch": 40,
              "velocity": 36,
              "position": 2.5,
              "duration": 0.010416666666666666
            },
            {
              "pitch": 40,
              "velocity": 80,
              "position": 2.6666666666666665,
              "duration": 0.010416666666666666
            },
            {
              "pitch": 46,
              "velocity": 63,
              "position": 2.6666666666666665,
              "duration": 0.010416666666666666
            },
            {
              "pitch": 40,
              "velocity": 51,
              "position": 3,
              "duration": 0.010416666666666666
            },
            {
              "pitch": 42,
              "velocity": 80,
              "position": 3,
              "duration": 0.010416666666666666
            },
            {
              "pitch": 48,
              "velocity": 64,
              "position": 3.3333333333333335,
              "duration": 0.010416666666666666
            },
            {
              "pitch": 45,
              "velocity": 63,
              "position": 3.6666666666666665,
              "duration": 0.010416666666666666
            }
          ]
        },
        "11": {
          "ctab": {
            "srcChannel": 11,
            "name": "Guit SFX",
            "accType": "CHORD1",
            "editable": false,
            "mutedNotes": [],
            "mutedChords": [],
            "autoStart": false,
            "sourceChordNote": 0,
            "sourceChordType": "Maj7",
            "ctb2Low": null,
            "ctb2Main": {
              "ntr": "ROOT_FIXED",
              "ntt": "BYPASS",
              "bassOn": false,
              "chordRootUpperLimit": 7,
              "noteLowLimit": 0,
              "noteHighLimit": 79,
              "rtr": "PITCH_SHIFT"
            },
            "ctb2High": null
          },
          "notes": [
            {
              "pitch": 108,
              "velocity": 65,
              "position": 0,
              "duration": 0.65625
            },
            {
              "pitch": 99,
              "velocity": 89,
              "position": 0.6666666666666666,
              "duration": 0.22916666666666666
            },
            {
              "pitch": 96,
              "velocity": 105,
              "position": 1,
              "duration": 0.22916666666666666
            },
            {
              "pitch": 103,
              "velocity": 95,
              "position": 1.6666666666666667,
              "duration": 0.22916666666666666
            },
            {
              "pitch": 108,
              "velocity": 101,
              "position": 2.6666666666666665,
              "duration": 0.5625
            },
            {
              "pitch": 103,
              "velocity": 77,
              "position": 3.6666666666666665,
              "duration": 0.22916666666666666
            }
          ]
        },
        "12": {
          "ctab": {
            "srcChannel": 12,
            "name": "GtRootTr",
            "accType": "CHORD1",
            "editable": false,
            "mutedNotes": [],
            "mutedChords": [
              "1+2+5",
              "sus4",
              "1+5",
              "1+8",
              "Maj7aug",
              "dim",
              "minMaj7(9)",
              "minMaj7",
              "min6",
              "min",
              "aug",
              "Maj7(9)",
              "Maj7#11",
              "Maj7",
              "Maj6",
              "Maj"
            ],
            "autoStart": false,
            "sourceChordNote": 0,
            "sourceChordType": "Maj7",
            "ctb2Low": null,
            "ctb2Main": {
              "ntr": "ROOT_TRANSPOSITION",
              "ntt": "CHORD",
              "bassOn": false,
              "chordRootUpperLimit": 10,
              "noteLowLimit": 0,
              "noteHighLimit": 127,
              "rtr": "PITCH_SHIFT"
            },
            "ctb2High": null
          },
          "notes": [
            {
              "pitch": 60,
              "velocity": 22,
              "position": 0.014583333333333334,
              "duration": 0.65625
            },
            {
              "pitch": 60,
              "velocity": 22,
              "position": 0.68125,
              "duration": 0.31875
            },
            {
              "pitch": 60,
              "velocity": 33,
              "position": 1.0145833333333334,
              "duration": 0.17708333333333334
            },
            {
              "pitch": 60,
              "velocity": 19,
              "position": 1.68125,
              "duration": 0.20833333333333334
            },
            {
              "pitch": 60,
              "velocity": 118,
              "position": 2.68125,
              "duration": 0.96875
            },
            {
              "pitch": 60,
              "velocity": 11,
              "position": 3.68125,
              "duration": 0.3104166666666667
            }
          ]
        },
        "13": {
          "ctab": {
            "srcChannel": 13,
            "name": "B2-E3-G3",
            "accType": "CHORD1",
            "editable": false,
            "mutedNotes": [],
            "mutedChords": [],
            "autoStart": false,
            "sourceChordNote": 0,
            "sourceChordType": "Maj7",
            "ctb2Low": null,
            "ctb2Main": {
              "ntr": "ROOT_FIXED",
              "ntt": "CHORD",
              "bassOn": false,
              "chordRootUpperLimit": 7,
              "noteLowLimit": 0,
              "noteHighLimit": 127,
              "rtr": "PITCH_SHIFT"
            },
            "ctb2High": null
          },
          "notes": [
            {
              "pitch": 59,
              "velocity": 22,
              "position": 0,
              "duration": 0.65625
            },
            {
              "pitch": 64,
              "velocity": 22,
              "position": 0.020833333333333332,
              "duration": 0.65625
            },
            {
              "pitch": 67,
              "velocity": 22,
              "position": 0.041666666666666664,
              "duration": 0.65625
            },
            {
              "pitch": 59,
              "velocity": 22,
              "position": 0.6666666666666666,
              "duration": 0.3229166666666667
            },
            {
              "pitch": 64,
              "velocity": 22,
              "position": 0.6875,
              "duration": 0.3229166666666667
            },
            {
              "pitch": 67,
              "velocity": 22,
              "position": 0.7083333333333334,
              "duration": 0.3229166666666667
            },
            {
              "pitch": 59,
              "velocity": 31,
              "position": 1,
              "duration": 0.17708333333333334
            },
            {
              "pitch": 64,
              "velocity": 33,
              "position": 1.0208333333333333,
              "duration": 0.17708333333333334
            },
            {
              "pitch": 67,
              "velocity": 32,
              "position": 1.0416666666666667,
              "duration": 0.17708333333333334
            },
            {
              "pitch": 59,
              "velocity": 19,
              "position": 1.6666666666666667,
              "duration": 0.20833333333333334
            },
            {
              "pitch": 64,
              "velocity": 19,
              "position": 1.6875,
              "duration": 0.20833333333333334
            },
            {
              "pitch": 67,
              "velocity": 19,
              "position": 1.7083333333333333,
              "duration": 0.20833333333333334
            },
            {
              "pitch": 71,
              "velocity": 118,
              "position": 2.6666666666666665,
              "duration": 0.9791666666666666
            },
            {
              "pitch": 64,
              "velocity": 118,
              "position": 2.6875,
              "duration": 0.9895833333333334
            },
            {
              "pitch": 67,
              "velocity": 118,
              "position": 2.7083333333333335,
              "duration": 0.9895833333333334
            },
            {
              "pitch": 59,
              "velocity": 9,
              "position": 3.6666666666666665,
              "duration": 0.3229166666666667
            },
            {
              "pitch": 64,
              "velocity": 9,
              "position": 3.6875,
              "duration": 0.3020833333333333
            },
            {
              "pitch": 67,
              "velocity": 9,
              "position": 3.7083333333333335,
              "duration": 0.28125
            }
          ]
        },
        "14": {
          "ctab": {
            "srcChannel": 14,
            "name": "Fifth G2",
            "accType": "CHORD1",
            "editable": false,
            "mutedNotes": [
              6,
              5,
              4,
              3
            ],
            "mutedChords": [],
            "autoStart": false,
            "sourceChordNote": 0,
            "sourceChordType": "Maj7",
            "ctb2Low": null,
            "ctb2Main": {
              "ntr": "ROOT_TRANSPOSITION",
              "ntt": "CHORD",
              "bassOn": false,
              "chordRootUpperLimit": 3,
              "noteLowLimit": 0,
              "noteHighLimit": 127,
              "rtr": "PITCH_SHIFT"
            },
            "ctb2High": null
          },
          "notes": [
            {
              "pitch": 55,
              "velocity": 22,
              "position": 0.010416666666666666,
              "duration": 0.65625
            },
            {
              "pitch": 55,
              "velocity": 22,
              "position": 0.6770833333333334,
              "duration": 0.3229166666666667
            },
            {
              "pitch": 55,
              "velocity": 31,
              "position": 1.0104166666666667,
              "duration": 0.17708333333333334
            },
            {
              "pitch": 55,
              "velocity": 19,
              "position": 1.6770833333333333,
              "duration": 0.20833333333333334
            },
            {
              "pitch": 55,
              "velocity": 9,
              "position": 3.6770833333333335,
              "duration": 0.3125
            }
          ]
        },
        "15": {
          "ctab": {
            "srcChannel": 15,
            "name": "Root C2",
            "accType": "CHORD1",
            "editable": false,
            "mutedNotes": [
              11,
              2,
              1,
              0
            ],
            "mutedChords": [],
            "autoStart": false,
            "sourceChordNote": 0,
            "sourceChordType": "Maj7",
            "ctb2Low": null,
            "ctb2Main": {
              "ntr": "ROOT_TRANSPOSITION",
              "ntt": "CHORD",
              "bassOn": false,
              "chordRootUpperLimit": 10,
              "noteLowLimit": 0,
              "noteHighLimit": 127,
              "rtr": "PITCH_SHIFT"
            },
            "ctb2High": null
          },
          "notes": [
            {
              "pitch": 48,
              "velocity": 22,
              "position": 0,
              "duration": 0.65625
            },
            {
              "pitch": 48,
              "velocity": 22,
              "position": 0.6666666666666666,
              "duration": 0.3229166666666667
            },
            {
              "pitch": 48,
              "velocity": 31,
              "position": 1,
              "duration": 0.17708333333333334
            },
            {
              "pitch": 48,
              "velocity": 19,
              "position": 1.6666666666666667,
              "duration": 0.20833333333333334
            },
            {
              "pitch": 48,
              "velocity": 9,
              "position": 3.6666666666666665,
              "duration": 0.3229166666666667
            }
          ]
        }
      }
    },
    "Fill_In_DD": {
      "type": "Fill_In_DD",
      "sizeInBeats": 4,
      "channels": {
        "0": {
          "ctab": {
            "srcChannel": 0,
            "name": "CC Crash",
            "accType": "RHYTHM",
            "editable": true,
            "mutedNotes": [],
            "mutedChords": [
              "1+2+5",
              "sus4",
              "1+5",
              "1+8",
              "7aug",
              "Maj7aug",
              "7(#9)",
              "7(b13)",
              "7(b9)",
              "7(13)",
              "7#11",
              "7(9)",
              "7b5",
              "7sus4",
              "7th",
              "dim7",
              "dim",
              "minMaj7(9)",
              "minMaj7",
              "min7(11)",
              "min7(9)",
              "min(9)",
              "m7b5",
              "min7",
              "min6",
              "min",
              "aug",
              "Maj6(9)",
              "Maj7(9)",
              "Maj(9)",
              "Maj7#11",
              "Maj7",
              "Maj6",
              "Maj"
            ],
            "autoStart": true,
            "sourceChordNote": 0,
            "sourceChordType": "Maj7",
            "ctb2Low": null,
            "ctb2Main": {
              "ntr": "ROOT_FIXED",
              "ntt": "BYPASS",
              "bassOn": false,
              "chordRootUpperLimit": 6,
              "noteLowLimit": 0,
              "noteHighLimit": 127,
              "rtr": "RETRIGGER"
            },
            "ctb2High": null
          },
          "notes": []
        },
        "2": {
          "ctab": {
            "srcChannel": 2,
            "name": "Bas4Note",
            "accType": "BASS",
            "editable": false,
            "mutedNotes": [],
            "mutedChords": [
              "1+2+5",
              "sus4",
              "1+5",
              "1+8",
              "7aug",
              "Maj7aug",
              "dim",
              "minMaj7(9)",
              "minMaj7",
              "min(9)",
              "m7b5",
              "min",
              "aug"
            ],
            "autoStart": false,
            "sourceChordNote": 0,
            "sourceChordType": "Maj7",
            "ctb2Low": null,
            "ctb2Main": {
              "ntr": "ROOT_TRANSPOSITION",
              "ntt": "MELODY",
              "bassOn": true,
              "chordRootUpperLimit": 10,
              "noteLowLimit": 28,
              "noteHighLimit": 127,
              "rtr": "PITCH_SHIFT_TO_ROOT"
            },
            "ctb2High": null
          },
          "notes": [
            {
              "pitch": 24,
              "velocity": 70,
              "position": 0,
              "duration": 0.65625
            },
            {
              "pitch": 36,
              "velocity": 110,
              "position": 0.6666666666666666,
              "duration": 0.3229166666666667
            },
            {
              "pitch": 24,
              "velocity": 68,
              "position": 1,
              "duration": 0.6458333333333334
            },
            {
              "pitch": 36,
              "velocity": 60,
              "position": 1.6666666666666667,
              "duration": 0.3229166666666667
            },
            {
              "pitch": 24,
              "velocity": 70,
              "position": 2,
              "duration": 0.6354166666666666
            },
            {
              "pitch": 36,
              "velocity": 70,
              "position": 2.6666666666666665,
              "duration": 0.3020833333333333
            },
            {
              "pitch": 33,
              "velocity": 70,
              "position": 3,
              "duration": 0.65625
            },
            {
              "pitch": 31,
              "velocity": 50,
              "position": 3.6666666666666665,
              "duration": 0.3229166666666667
            }
          ]
        },
        "3": {
          "ctab": {
            "srcChannel": 3,
            "name": "Bas3Note",
            "accType": "BASS",
            "editable": false,
            "mutedNotes": [],
            "mutedChords": [
              "7(#9)",
              "7(b13)",
              "7(b9)",
              "7(13)",
              "7#11",
              "7(9)",
              "7b5",
              "7sus4",
              "7th",
              "dim7",
              "min7(11)",
              "min7(9)",
              "min7",
              "min6",
              "Maj6(9)",
              "Maj7(9)",
              "Maj(9)",
              "Maj7#11",
              "Maj7",
              "Maj6",
              "Maj"
            ],
            "autoStart": false,
            "sourceChordNote": 0,
            "sourceChordType": "Maj7",
            "ctb2Low": null,
            "ctb2Main": {
              "ntr": "ROOT_TRANSPOSITION",
              "ntt": "MELODY",
              "bassOn": true,
              "chordRootUpperLimit": 0,
              "noteLowLimit": 28,
              "noteHighLimit": 127,
              "rtr": "PITCH_SHIFT_TO_ROOT"
            },
            "ctb2High": null
          },
          "notes": [
            {
              "pitch": 36,
              "velocity": 70,
              "position": 0,
              "duration": 0.65625
            },
            {
              "pitch": 48,
              "velocity": 110,
              "position": 0.6666666666666666,
              "duration": 0.3229166666666667
            },
            {
              "pitch": 36,
              "velocity": 68,
              "position": 1,
              "duration": 0.6458333333333334
            },
            {
              "pitch": 48,
              "velocity": 60,
              "position": 1.6666666666666667,
              "duration": 0.3229166666666667
            },
            {
              "pitch": 36,
              "velocity": 70,
              "position": 2,
              "duration": 0.6354166666666666
            },
            {
              "pitch": 48,
              "velocity": 70,
              "position": 2.6666666666666665,
              "duration": 0.3020833333333333
            },
            {
              "pitch": 43,
              "velocity": 70,
              "position": 3,
              "duration": 0.65625
            },
            {
              "pitch": 40,
              "velocity": 50,
              "position": 3.6666666666666665,
              "duration": 0.3229166666666667
            }
          ]
        },
        "6": {
          "ctab": {
            "srcChannel": 6,
            "name": "Organ",
            "accType": "PAD",
            "editable": false,
            "mutedNotes": [],
            "mutedChords": [],
            "autoStart": false,
            "sourceChordNote": 0,
            "sourceChordType": "Maj7",
            "ctb2Low": null,
            "ctb2Main": {
              "ntr": "ROOT_FIXED",
              "ntt": "CHORD",
              "bassOn": false,
              "chordRootUpperLimit": 7,
              "noteLowLimit": 0,
              "noteHighLimit": 127,
              "rtr": "PITCH_SHIFT"
            },
            "ctb2High": null
          },
          "notes": [
            {
              "pitch": 67,
              "velocity": 74,
              "position": 0,
              "duration": 3.9895833333333335
            },
            {
              "pitch": 71,
              "velocity": 74,
              "position": 0,
              "duration": 3.9895833333333335
            },
            {
              "pitch": 76,
              "velocity": 74,
              "position": 0,
              "duration": 3.9895833333333335
            }
          ]
        },
        "7": {
          "ctab": {
            "srcChannel": 7,
            "name": "OrgRoot",
            "accType": "PAD",
            "editable": false,
            "mutedNotes": [],
            "mutedChords": [
              "1+2+5",
              "sus4",
              "1+5",
              "1+8",
              "Maj7aug",
              "dim",
              "minMaj7(9)",
              "minMaj7",
              "min6",
              "min",
              "aug",
              "Maj7(9)",
              "Maj7#11",
              "Maj7",
              "Maj6",
              "Maj"
            ],
            "autoStart": false,
            "sourceChordNote": 0,
            "sourceChordType": "Maj7",
            "ctb2Low": null,
            "ctb2Main": {
              "ntr": "ROOT_TRANSPOSITION",
              "ntt": "CHORD",
              "bassOn": false,
              "chordRootUpperLimit": 6,
              "noteLowLimit": 0,
              "noteHighLimit": 127,
              "rtr": "PITCH_SHIFT"
            },
            "ctb2High": null
          },
          "notes": [
            {
              "pitch": 72,
              "velocity": 74,
              "position": 0,
              "duration": 3.9895833333333335
            }
          ]
        },
        "8": {
          "ctab": {
            "srcChannel": 8,
            "name": "Perc",
            "accType": "SUBRHYTHM",
            "editable": false,
            "mutedNotes": [],
            "mutedChords": [],
            "autoStart": true,
            "sourceChordNote": 0,
            "sourceChordType": "Maj7",
            "ctb2Low": null,
            "ctb2Main": {
              "ntr": "ROOT_FIXED",
              "ntt": "BYPASS",
              "bassOn": false,
              "chordRootUpperLimit": 6,
              "noteLowLimit": 0,
              "noteHighLimit": 127,
              "rtr": "PITCH_SHIFT"
            },
            "ctb2High": null
          },
          "notes": [
            {
              "pitch": 54,
              "velocity": 60,
              "position": 0,
              "duration": 0.010416666666666666
            },
            {
              "pitch": 54,
              "velocity": 14,
              "position": 0.6875,
              "duration": 0.010416666666666666
            },
            {
              "pitch": 39,
              "velocity": 94,
              "position": 1,
              "duration": 0.010416666666666666
            },
            {
              "pitch": 54,
              "velocity": 105,
              "position": 1,
              "duration": 0.010416666666666666
            },
            {
              "pitch": 54,
              "velocity": 14,
              "position": 1.6875,
              "duration": 0.010416666666666666
            },
            {
              "pitch": 54,
              "velocity": 60,
              "position": 2,
              "duration": 0.010416666666666666
            },
            {
              "pitch": 54,
              "velocity": 14,
              "position": 2.6875,
              "duration": 0.010416666666666666
            },
            {
              "pitch": 39,
              "velocity": 94,
              "position": 3,
              "duration": 0.010416666666666666
            },
            {
              "pitch": 54,
              "velocity": 105,
              "position": 3,
              "duration": 0.010416666666666666
            },
            {
              "pitch": 54,
              "velocity": 14,
              "position": 3.6875,
              "duration": 0.010416666666666666
            }
          ]
        },
        "9": {
          "ctab": {
            "srcChannel": 9,
            "name": "Rhyth2",
            "accType": "RHYTHM",
            "editable": false,
            "mutedNotes": [],
            "mutedChords": [],
            "autoStart": true,
            "sourceChordNote": 0,
            "sourceChordType": "Maj7",
            "ctb2Low": null,
            "ctb2Main": {
              "ntr": "ROOT_FIXED",
              "ntt": "BYPASS",
              "bassOn": false,
              "chordRootUpperLimit": 6,
              "noteLowLimit": 0,
              "noteHighLimit": 127,
              "rtr": "PITCH_SHIFT"
            },
            "ctb2High": null
          },
          "notes": [
            {
              "pitch": 36,
              "velocity": 86,
              "position": 0,
              "duration": 0.010416666666666666
            },
            {
              "pitch": 51,
              "velocity": 72,
              "position": 0,
              "duration": 0.010416666666666666
            },
            {
              "pitch": 40,
              "velocity": 40,
              "position": 0.6875,
              "duration": 0.010416666666666666
            },
            {
              "pitch": 40,
              "velocity": 80,
              "position": 1,
              "duration": 0.010416666666666666
            },
            {
              "pitch": 51,
              "velocity": 93,
              "position": 1,
              "duration": 0.010416666666666666
            },
            {
              "pitch": 40,
              "velocity": 40,
              "position": 1.6875,
              "duration": 0.010416666666666666
            },
            {
              "pitch": 51,
              "velocity": 30,
              "position": 1.6875,
              "duration": 0.010416666666666666
            },
            {
              "pitch": 40,
              "velocity": 40,
              "position": 1.8333333333333333,
              "duration": 0.010416666666666666
            },
            {
              "pitch": 36,
              "velocity": 86,
              "position": 2,
              "duration": 0.010416666666666666
            },
            {
              "pitch": 51,
              "velocity": 72,
              "position": 2,
              "duration": 0.010416666666666666
            },
            {
              "pitch": 47,
              "velocity": 81,
              "position": 2.3333333333333335,
              "duration": 0.010416666666666666
            },
            {
              "pitch": 36,
              "velocity": 80,
              "position": 2.6666666666666665,
              "duration": 0.010416666666666666
            },
            {
              "pitch": 45,
              "velocity": 40,
              "position": 2.6666666666666665,
              "duration": 0.010416666666666666
            },
            {
              "pitch": 40,
              "velocity": 80,
              "position": 3,
              "duration": 0.010416666666666666
            },
            {
              "pitch": 45,
              "velocity": 40,
              "position": 3.3333333333333335,
              "duration": 0.010416666666666666
            },
            {
              "pitch": 36,
              "velocity": 70,
              "position": 3.6666666666666665,
              "duration": 0.010416666666666666
            },
            {
              "pitch": 43,
              "velocity": 76,
              "position": 3.6666666666666665,
              "duration": 0.010416666666666666
            }
          ]
        },
        "11": {
          "ctab": {
            "srcChannel": 11,
            "name": "Guit SFX",
            "accType": "CHORD1",
            "editable": false,
            "mutedNotes": [],
            "mutedChords": [],
            "autoStart": false,
            "sourceChordNote": 0,
            "sourceChordType": "Maj7",
            "ctb2Low": null,
            "ctb2Main": {
              "ntr": "ROOT_FIXED",
              "ntt": "BYPASS",
              "bassOn": false,
              "chordRootUpperLimit": 7,
              "noteLowLimit": 0,
              "noteHighLimit": 79,
              "rtr": "PITCH_SHIFT"
            },
            "ctb2High": null
          },
          "notes": [
            {
              "pitch": 108,
              "velocity": 75,
              "position": 0,
              "duration": 0.65625
            },
            {
              "pitch": 99,
              "velocity": 89,
              "position": 0.6666666666666666,
              "duration": 0.22916666666666666
            },
            {
              "pitch": 96,
              "velocity": 112,
              "position": 1,
              "duration": 0.22916666666666666
            },
            {
              "pitch": 105,
              "velocity": 109,
              "position": 1.6666666666666667,
              "duration": 0.5625
            },
            {
              "pitch": 99,
              "velocity": 89,
              "position": 2.6666666666666665,
              "duration": 0.22916666666666666
            },
            {
              "pitch": 103,
              "velocity": 77,
              "position": 3.6666666666666665,
              "duration": 0.22916666666666666
            }
          ]
        },
        "12": {
          "ctab": {
            "srcChannel": 12,
            "name": "GtRootTr",
            "accType": "CHORD1",
            "editable": false,
            "mutedNotes": [],
            "mutedChords": [
              "1+2+5",
              "sus4",
              "1+5",
              "1+8",
              "Maj7aug",
              "dim",
              "minMaj7(9)",
              "minMaj7",
              "min6",
              "min",
              "aug",
              "Maj7(9)",
              "Maj7#11",
              "Maj7",
              "Maj6",
              "Maj"
            ],
            "autoStart": false,
            "sourceChordNote": 0,
            "sourceChordType": "Maj7",
            "ctb2Low": null,
            "ctb2Main": {
              "ntr": "ROOT_TRANSPOSITION",
              "ntt": "CHORD",
              "bassOn": false,
              "chordRootUpperLimit": 10,
              "noteLowLimit": 0,
              "noteHighLimit": 127,
              "rtr": "PITCH_SHIFT"
            },
            "ctb2High": null
          },
          "notes": [
            {
              "pitch": 60,
              "velocity": 22,
              "position": 0.014583333333333334,
              "duration": 0.65625
            },
            {
              "pitch": 60,
              "velocity": 22,
              "position": 0.68125,
              "duration": 0.31875
            },
            {
              "pitch": 60,
              "velocity": 33,
              "position": 1.0145833333333334,
              "duration": 0.17708333333333334
            },
            {
              "pitch": 60,
              "velocity": 118,
              "position": 1.68125,
              "duration": 0.96875
            },
            {
              "pitch": 60,
              "velocity": 39,
              "position": 2.68125,
              "duration": 0.125
            },
            {
              "pitch": 60,
              "velocity": 26,
              "position": 3.68125,
              "duration": 0.3104166666666667
            }
          ]
        },
        "13": {
          "ctab": {
            "srcChannel": 13,
            "name": "B2-E3-G3",
            "accType": "CHORD1",
            "editable": false,
            "mutedNotes": [],
            "mutedChords": [],
            "autoStart": false,
            "sourceChordNote": 0,
            "sourceChordType": "Maj7",
            "ctb2Low": null,
            "ctb2Main": {
              "ntr": "ROOT_FIXED",
              "ntt": "CHORD",
              "bassOn": false,
              "chordRootUpperLimit": 7,
              "noteLowLimit": 0,
              "noteHighLimit": 127,
              "rtr": "PITCH_SHIFT"
            },
            "ctb2High": null
          },
          "notes": [
            {
              "pitch": 59,
              "velocity": 22,
              "position": 0,
              "duration": 0.65625
            },
            {
              "pitch": 64,
              "velocity": 22,
              "position": 0.020833333333333332,
              "duration": 0.65625
            },
            {
              "pitch": 67,
              "velocity": 22,
              "position": 0.041666666666666664,
              "duration": 0.65625
            },
            {
              "pitch": 59,
              "velocity": 22,
              "position": 0.6666666666666666,
              "duration": 0.3229166666666667
            },
            {
              "pitch": 64,
              "velocity": 22,
              "position": 0.6875,
              "duration": 0.3229166666666667
            },
            {
              "pitch": 67,
              "velocity": 22,
              "position": 0.7083333333333334,
              "duration": 0.3229166666666667
            },
            {
              "pitch": 59,
              "velocity": 31,
              "position": 1,
              "duration": 0.17708333333333334
            },
            {
              "pitch": 64,
              "velocity": 33,
              "position": 1.0208333333333333,
              "duration": 0.17708333333333334
            },
            {
              "pitch": 67,
              "velocity": 32,
              "position": 1.0416666666666667,
              "duration": 0.17708333333333334
            },
            {
              "pitch": 59,
              "velocity": 118,
              "position": 1.6666666666666667,
              "duration": 0.9895833333333334
            },
            {
              "pitch": 64,
              "velocity": 118,
              "position": 1.6875,
              "duration": 0.9895833333333334
            },
            {
              "pitch": 67,
              "velocity": 118,
              "position": 1.7083333333333333,
              "duration": 0.9895833333333334
            },
            {
              "pitch": 59,
              "velocity": 39,
              "position": 2.6666666666666665,
              "duration": 0.11458333333333333
            },
            {
              "pitch": 64,
              "velocity": 39,
              "position": 2.6875,
              "duration": 0.125
            },
            {
              "pitch": 67,
              "velocity": 39,
              "position": 2.7083333333333335,
              "duration": 0.14583333333333334
            },
            {
              "pitch": 59,
              "velocity": 26,
              "position": 3.6666666666666665,
              "duration": 0.3229166666666667
            },
            {
              "pitch": 64,
              "velocity": 26,
              "position": 3.6875,
              "duration": 0.3020833333333333
            },
            {
              "pitch": 67,
              "velocity": 26,
              "position": 3.7083333333333335,
              "duration": 0.28125
            }
          ]
        },
        "14": {
          "ctab": {
            "srcChannel": 14,
            "name": "Fifth G2",
            "accType": "CHORD1",
            "editable": false,
            "mutedNotes": [
              6,
              5,
              4,
              3
            ],
            "mutedChords": [],
            "autoStart": false,
            "sourceChordNote": 0,
            "sourceChordType": "Maj7",
            "ctb2Low": null,
            "ctb2Main": {
              "ntr": "ROOT_TRANSPOSITION",
              "ntt": "CHORD",
              "bassOn": false,
              "chordRootUpperLimit": 3,
              "noteLowLimit": 0,
              "noteHighLimit": 127,
              "rtr": "PITCH_SHIFT"
            },
            "ctb2High": null
          },
          "notes": [
            {
              "pitch": 55,
              "velocity": 22,
              "position": 0.010416666666666666,
              "duration": 0.65625
            },
            {
              "pitch": 55,
              "velocity": 22,
              "position": 0.6770833333333334,
              "duration": 0.3229166666666667
            },
            {
              "pitch": 55,
              "velocity": 31,
              "position": 1.0104166666666667,
              "duration": 0.17708333333333334
            },
            {
              "pitch": 55,
              "velocity": 118,
              "position": 1.6770833333333333,
              "duration": 0.9895833333333334
            },
            {
              "pitch": 55,
              "velocity": 39,
              "position": 2.6770833333333335,
              "duration": 0.11458333333333333
            },
            {
              "pitch": 55,
              "velocity": 26,
              "position": 3.6770833333333335,
              "duration": 0.3125
            }
          ]
        },
        "15": {
          "ctab": {
            "srcChannel": 15,
            "name": "Root C2",
            "accType": "CHORD1",
            "editable": false,
            "mutedNotes": [
              11,
              2,
              1,
              0
            ],
            "mutedChords": [],
            "autoStart": false,
            "sourceChordNote": 0,
            "sourceChordType": "Maj7",
            "ctb2Low": null,
            "ctb2Main": {
              "ntr": "ROOT_TRANSPOSITION",
              "ntt": "CHORD",
              "bassOn": false,
              "chordRootUpperLimit": 10,
              "noteLowLimit": 0,
              "noteHighLimit": 127,
              "rtr": "PITCH_SHIFT"
            },
            "ctb2High": null
          },
          "notes": [
            {
              "pitch": 48,
              "velocity": 22,
              "position": 0,
              "duration": 0.65625
            },
            {
              "pitch": 48,
              "velocity": 22,
              "position": 0.6666666666666666,
              "duration": 0.3229166666666667
            },
            {
              "pitch": 48,
              "velocity": 31,
              "position": 1,
              "duration": 0.17708333333333334
            },
            {
              "pitch": 48,
              "velocity": 118,
              "position": 1.6666666666666667,
              "duration": 0.9895833333333334
            },
            {
              "pitch": 48,
              "velocity": 39,
              "position": 2.6666666666666665,
              "duration": 0.11458333333333333
            },
            {
              "pitch": 48,
              "velocity": 26,
              "position": 3.6666666666666665,
              "duration": 0.3229166666666667
            }
          ]
        }
      }
    },
    "Intro_A": {
      "type": "Intro_A",
      "sizeInBeats": 4,
      "channels": {
        "0": {
          "ctab": {
            "srcChannel": 0,
            "name": "CC Crash",
            "accType": "RHYTHM",
            "editable": true,
            "mutedNotes": [],
            "mutedChords": [
              "1+2+5",
              "sus4",
              "1+5",
              "1+8",
              "7aug",
              "Maj7aug",
              "7(#9)",
              "7(b13)",
              "7(b9)",
              "7(13)",
              "7#11",
              "7(9)",
              "7b5",
              "7sus4",
              "7th",
              "dim7",
              "dim",
              "minMaj7(9)",
              "minMaj7",
              "min7(11)",
              "min7(9)",
              "min(9)",
              "m7b5",
              "min7",
              "min6",
              "min",
              "aug",
              "Maj6(9)",
              "Maj7(9)",
              "Maj(9)",
              "Maj7#11",
              "Maj7",
              "Maj6",
              "Maj"
            ],
            "autoStart": true,
            "sourceChordNote": 0,
            "sourceChordType": "Maj7",
            "ctb2Low": null,
            "ctb2Main": {
              "ntr": "ROOT_FIXED",
              "ntt": "BYPASS",
              "bassOn": false,
              "chordRootUpperLimit": 6,
              "noteLowLimit": 0,
              "noteHighLimit": 127,
              "rtr": "RETRIGGER"
            },
            "ctb2High": null
          },
          "notes": []
        },
        "2": {
          "ctab": {
            "srcChannel": 2,
            "name": "Bas4Note",
            "accType": "BASS",
            "editable": false,
            "mutedNotes": [],
            "mutedChords": [
              "1+2+5",
              "sus4",
              "1+5",
              "1+8",
              "7aug",
              "Maj7aug",
              "dim",
              "minMaj7(9)",
              "minMaj7",
              "min(9)",
              "m7b5",
              "min",
              "aug"
            ],
            "autoStart": false,
            "sourceChordNote": 0,
            "sourceChordType": "Maj7",
            "ctb2Low": null,
            "ctb2Main": {
              "ntr": "ROOT_TRANSPOSITION",
              "ntt": "MELODY",
              "bassOn": true,
              "chordRootUpperLimit": 10,
              "noteLowLimit": 28,
              "noteHighLimit": 127,
              "rtr": "PITCH_SHIFT_TO_ROOT"
            },
            "ctb2High": null
          },
          "notes": []
        },
        "3": {
          "ctab": {
            "srcChannel": 3,
            "name": "Bas3Note",
            "accType": "BASS",
            "editable": false,
            "mutedNotes": [],
            "mutedChords": [
              "7(#9)",
              "7(b13)",
              "7(b9)",
              "7(13)",
              "7#11",
              "7(9)",
              "7b5",
              "7sus4",
              "7th",
              "dim7",
              "min7(11)",
              "min7(9)",
              "min7",
              "min6",
              "Maj6(9)",
              "Maj7(9)",
              "Maj(9)",
              "Maj7#11",
              "Maj7",
              "Maj6",
              "Maj"
            ],
            "autoStart": false,
            "sourceChordNote": 0,
            "sourceChordType": "Maj7",
            "ctb2Low": null,
            "ctb2Main": {
              "ntr": "ROOT_TRANSPOSITION",
              "ntt": "MELODY",
              "bassOn": true,
              "chordRootUpperLimit": 0,
              "noteLowLimit": 28,
              "noteHighLimit": 127,
              "rtr": "PITCH_SHIFT_TO_ROOT"
            },
            "ctb2High": null
          },
          "notes": []
        },
        "6": {
          "ctab": {
            "srcChannel": 6,
            "name": "Organ",
            "accType": "PAD",
            "editable": false,
            "mutedNotes": [],
            "mutedChords": [],
            "autoStart": false,
            "sourceChordNote": 0,
            "sourceChordType": "Maj7",
            "ctb2Low": null,
            "ctb2Main": {
              "ntr": "ROOT_FIXED",
              "ntt": "CHORD",
              "bassOn": false,
              "chordRootUpperLimit": 7,
              "noteLowLimit": 0,
              "noteHighLimit": 127,
              "rtr": "PITCH_SHIFT"
            },
            "ctb2High": null
          },
          "notes": []
        },
        "7": {
          "ctab": {
            "srcChannel": 7,
            "name": "OrgRoot",
            "accType": "PAD",
            "editable": false,
            "mutedNotes": [],
            "mutedChords": [
              "1+2+5",
              "sus4",
              "1+5",
              "1+8",
              "Maj7aug",
              "dim",
              "minMaj7(9)",
              "minMaj7",
              "min6",
              "min",
              "aug",
              "Maj7(9)",
              "Maj7#11",
              "Maj7",
              "Maj6",
              "Maj"
            ],
            "autoStart": false,
            "sourceChordNote": 0,
            "sourceChordType": "Maj7",
            "ctb2Low": null,
            "ctb2Main": {
              "ntr": "ROOT_TRANSPOSITION",
              "ntt": "CHORD",
              "bassOn": false,
              "chordRootUpperLimit": 6,
              "noteLowLimit": 0,
              "noteHighLimit": 127,
              "rtr": "PITCH_SHIFT"
            },
            "ctb2High": null
          },
          "notes": []
        },
        "8": {
          "ctab": {
            "srcChannel": 8,
            "name": "Perc",
            "accType": "SUBRHYTHM",
            "editable": false,
            "mutedNotes": [],
            "mutedChords": [],
            "autoStart": true,
            "sourceChordNote": 0,
            "sourceChordType": "Maj7",
            "ctb2Low": null,
            "ctb2Main": {
              "ntr": "ROOT_FIXED",
              "ntt": "BYPASS",
              "bassOn": false,
              "chordRootUpperLimit": 6,
              "noteLowLimit": 0,
              "noteHighLimit": 127,
              "rtr": "PITCH_SHIFT"
            },
            "ctb2High": null
          },
          "notes": [
            {
              "pitch": 54,
              "velocity": 35,
              "position": 2.6875,
              "duration": 0.010416666666666666
            },
            {
              "pitch": 54,
              "velocity": 105,
              "position": 3,
              "duration": 0.010416666666666666
            },
            {
              "pitch": 54,
              "velocity": 28,
              "position": 3.6875,
              "duration": 0.010416666666666666
            }
          ]
        },
        "9": {
          "ctab": {
            "srcChannel": 9,
            "name": "Rhyth2",
            "accType": "RHYTHM",
            "editable": false,
            "mutedNotes": [],
            "mutedChords": [],
            "autoStart": true,
            "sourceChordNote": 0,
            "sourceChordType": "Maj7",
            "ctb2Low": null,
            "ctb2Main": {
              "ntr": "ROOT_FIXED",
              "ntt": "BYPASS",
              "bassOn": false,
              "chordRootUpperLimit": 6,
              "noteLowLimit": 0,
              "noteHighLimit": 127,
              "rtr": "PITCH_SHIFT"
            },
            "ctb2High": null
          },
          "notes": [
            {
              "pitch": 32,
              "velocity": 84,
              "position": 0,
              "duration": 0.010416666666666666
            },
            {
              "pitch": 32,
              "velocity": 67,
              "position": 1,
              "duration": 0.010416666666666666
            },
            {
              "pitch": 40,
              "velocity": 45,
              "position": 1.6666666666666667,
              "duration": 0.010416666666666666
            },
            {
              "pitch": 40,
              "velocity": 26,
              "position": 1.8333333333333333,
              "duration": 0.010416666666666666
            },
            {
              "pitch": 40,
              "velocity": 61,
              "position": 2,
              "duration": 0.010416666666666666
            },
            {
              "pitch": 40,
              "velocity": 34,
              "position": 2.3333333333333335,
              "duration": 0.010416666666666666
            },
            {
              "pitch": 40,
              "velocity": 31,
              "position": 2.6666666666666665,
              "duration": 0.010416666666666666
            },
            {
              "pitch": 40,
              "velocity": 80,
              "position": 3,
              "duration": 0.010416666666666666
            },
            {
              "pitch": 40,
              "velocity": 43,
              "position": 3.6666666666666665,
              "duration": 0.010416666666666666
            }
          ]
        },
        "11": {
          "ctab": {
            "srcChannel": 11,
            "name": "Guit SFX",
            "accType": "CHORD1",
            "editable": false,
            "mutedNotes": [],
            "mutedChords": [],
            "autoStart": false,
            "sourceChordNote": 0,
            "sourceChordType": "Maj7",
            "ctb2Low": null,
            "ctb2Main": {
              "ntr": "ROOT_FIXED",
              "ntt": "BYPASS",
              "bassOn": false,
              "chordRootUpperLimit": 7,
              "noteLowLimit": 0,
              "noteHighLimit": 79,
              "rtr": "PITCH_SHIFT"
            },
            "ctb2High": null
          },
          "notes": []
        },
        "12": {
          "ctab": {
            "srcChannel": 12,
            "name": "GtRootTr",
            "accType": "CHORD1",
            "editable": false,
            "mutedNotes": [],
            "mutedChords": [
              "1+2+5",
              "sus4",
              "1+5",
              "1+8",
              "Maj7aug",
              "dim",
              "minMaj7(9)",
              "minMaj7",
              "min6",
              "min",
              "aug",
              "Maj7(9)",
              "Maj7#11",
              "Maj7",
              "Maj6",
              "Maj"
            ],
            "autoStart": false,
            "sourceChordNote": 0,
            "sourceChordType": "Maj7",
            "ctb2Low": null,
            "ctb2Main": {
              "ntr": "ROOT_TRANSPOSITION",
              "ntt": "CHORD",
              "bassOn": false,
              "chordRootUpperLimit": 10,
              "noteLowLimit": 0,
              "noteHighLimit": 127,
              "rtr": "PITCH_SHIFT"
            },
            "ctb2High": null
          },
          "notes": []
        },
        "13": {
          "ctab": {
            "srcChannel": 13,
            "name": "B2-E3-G3",
            "accType": "CHORD1",
            "editable": false,
            "mutedNotes": [],
            "mutedChords": [],
            "autoStart": false,
            "sourceChordNote": 0,
            "sourceChordType": "Maj7",
            "ctb2Low": null,
            "ctb2Main": {
              "ntr": "ROOT_FIXED",
              "ntt": "CHORD",
              "bassOn": false,
              "chordRootUpperLimit": 7,
              "noteLowLimit": 0,
              "noteHighLimit": 127,
              "rtr": "PITCH_SHIFT"
            },
            "ctb2High": null
          },
          "notes": []
        },
        "14": {
          "ctab": {
            "srcChannel": 14,
            "name": "Fifth G2",
            "accType": "CHORD1",
            "editable": false,
            "mutedNotes": [
              6,
              5,
              4,
              3
            ],
            "mutedChords": [],
            "autoStart": false,
            "sourceChordNote": 0,
            "sourceChordType": "Maj7",
            "ctb2Low": null,
            "ctb2Main": {
              "ntr": "ROOT_TRANSPOSITION",
              "ntt": "CHORD",
              "bassOn": false,
              "chordRootUpperLimit": 3,
              "noteLowLimit": 0,
              "noteHighLimit": 127,
              "rtr": "PITCH_SHIFT"
            },
            "ctb2High": null
          },
          "notes": []
        },
        "15": {
          "ctab": {
            "srcChannel": 15,
            "name": "Root C2",
            "accType": "CHORD1",
            "editable": false,
            "mutedNotes": [
              11,
              2,
              1,
              0
            ],
            "mutedChords": [],
            "autoStart": false,
            "sourceChordNote": 0,
            "sourceChordType": "Maj7",
            "ctb2Low": null,
            "ctb2Main": {
              "ntr": "ROOT_TRANSPOSITION",
              "ntt": "CHORD",
              "bassOn": false,
              "chordRootUpperLimit": 10,
              "noteLowLimit": 0,
              "noteHighLimit": 127,
              "rtr": "PITCH_SHIFT"
            },
            "ctb2High": null
          },
          "notes": []
        }
      }
    },
    "Ending_A": {
      "type": "Ending_A",
      "sizeInBeats": 8,
      "channels": {
        "0": {
          "ctab": {
            "srcChannel": 0,
            "name": "CC Crash",
            "accType": "RHYTHM",
            "editable": true,
            "mutedNotes": [],
            "mutedChords": [
              "1+2+5",
              "sus4",
              "1+5",
              "1+8",
              "7aug",
              "Maj7aug",
              "7(#9)",
              "7(b13)",
              "7(b9)",
              "7(13)",
              "7#11",
              "7(9)",
              "7b5",
              "7sus4",
              "7th",
              "dim7",
              "dim",
              "minMaj7(9)",
              "minMaj7",
              "min7(11)",
              "min7(9)",
              "min(9)",
              "m7b5",
              "min7",
              "min6",
              "min",
              "aug",
              "Maj6(9)",
              "Maj7(9)",
              "Maj(9)",
              "Maj7#11",
              "Maj7",
              "Maj6",
              "Maj"
            ],
            "autoStart": true,
            "sourceChordNote": 0,
            "sourceChordType": "Maj7",
            "ctb2Low": null,
            "ctb2Main": {
              "ntr": "ROOT_FIXED",
              "ntt": "BYPASS",
              "bassOn": false,
              "chordRootUpperLimit": 6,
              "noteLowLimit": 0,
              "noteHighLimit": 127,
              "rtr": "RETRIGGER"
            },
            "ctb2High": null
          },
          "notes": []
        },
        "2": {
          "ctab": {
            "srcChannel": 2,
            "name": "Bas4Note",
            "accType": "BASS",
            "editable": false,
            "mutedNotes": [],
            "mutedChords": [
              "1+2+5",
              "sus4",
              "1+5",
              "1+8",
              "7aug",
              "Maj7aug",
              "dim",
              "minMaj7(9)",
              "minMaj7",
              "min(9)",
              "m7b5",
              "min",
              "aug"
            ],
            "autoStart": false,
            "sourceChordNote": 0,
            "sourceChordType": "Maj7",
            "ctb2Low": null,
            "ctb2Main": {
              "ntr": "ROOT_TRANSPOSITION",
              "ntt": "MELODY",
              "bassOn": true,
              "chordRootUpperLimit": 10,
              "noteLowLimit": 28,
              "noteHighLimit": 127,
              "rtr": "PITCH_SHIFT_TO_ROOT"
            },
            "ctb2High": null
          },
          "notes": [
            {
              "pitch": 24,
              "velocity": 70,
              "position": 0,
              "duration": 6.989583333333333
            }
          ]
        },
        "3": {
          "ctab": {
            "srcChannel": 3,
            "name": "Bas3Note",
            "accType": "BASS",
            "editable": false,
            "mutedNotes": [],
            "mutedChords": [
              "7(#9)",
              "7(b13)",
              "7(b9)",
              "7(13)",
              "7#11",
              "7(9)",
              "7b5",
              "7sus4",
              "7th",
              "dim7",
              "min7(11)",
              "min7(9)",
              "min7",
              "min6",
              "Maj6(9)",
              "Maj7(9)",
              "Maj(9)",
              "Maj7#11",
              "Maj7",
              "Maj6",
              "Maj"
            ],
            "autoStart": false,
            "sourceChordNote": 0,
            "sourceChordType": "Maj7",
            "ctb2Low": null,
            "ctb2Main": {
              "ntr": "ROOT_TRANSPOSITION",
              "ntt": "MELODY",
              "bassOn": true,
              "chordRootUpperLimit": 0,
              "noteLowLimit": 28,
              "noteHighLimit": 127,
              "rtr": "PITCH_SHIFT_TO_ROOT"
            },
            "ctb2High": null
          },
          "notes": [
            {
              "pitch": 36,
              "velocity": 70,
              "position": 0,
              "duration": 6.989583333333333
            }
          ]
        },
        "6": {
          "ctab": {
            "srcChannel": 6,
            "name": "Organ",
            "accType": "PAD",
            "editable": false,
            "mutedNotes": [],
            "mutedChords": [],
            "autoStart": false,
            "sourceChordNote": 0,
            "sourceChordType": "Maj7",
            "ctb2Low": null,
            "ctb2Main": {
              "ntr": "ROOT_FIXED",
              "ntt": "CHORD",
              "bassOn": false,
              "chordRootUpperLimit": 7,
              "noteLowLimit": 0,
              "noteHighLimit": 127,
              "rtr": "PITCH_SHIFT"
            },
            "ctb2High": null
          },
          "notes": [
            {
              "pitch": 67,
              "velocity": 74,
              "position": 0,
              "duration": 6.989583333333333
            },
            {
              "pitch": 71,
              "velocity": 74,
              "position": 0,
              "duration": 6.989583333333333
            },
            {
              "pitch": 76,
              "velocity": 74,
              "position": 0,
              "duration": 6.989583333333333
            }
          ]
        },
        "7": {
          "ctab": {
            "srcChannel": 7,
            "name": "OrgRoot",
            "accType": "PAD",
            "editable": false,
            "mutedNotes": [],
            "mutedChords": [
              "1+2+5",
              "sus4",
              "1+5",
              "1+8",
              "Maj7aug",
              "dim",
              "minMaj7(9)",
              "minMaj7",
              "min6",
              "min",
              "aug",
              "Maj7(9)",
              "Maj7#11",
              "Maj7",
              "Maj6",
              "Maj"
            ],
            "autoStart": false,
            "sourceChordNote": 0,
            "sourceChordType": "Maj7",
            "ctb2Low": null,
            "ctb2Main": {
              "ntr": "ROOT_TRANSPOSITION",
              "ntt": "CHORD",
              "bassOn": false,
              "chordRootUpperLimit": 6,
              "noteLowLimit": 0,
              "noteHighLimit": 127,
              "rtr": "PITCH_SHIFT"
            },
            "ctb2High": null
          },
          "notes": [
            {
              "pitch": 72,
              "velocity": 74,
              "position": 0,
              "duration": 6.958333333333333
            }
          ]
        },
        "8": {
          "ctab": {
            "srcChannel": 8,
            "name": "Perc",
            "accType": "SUBRHYTHM",
            "editable": false,
            "mutedNotes": [],
            "mutedChords": [],
            "autoStart": true,
            "sourceChordNote": 0,
            "sourceChordType": "Maj7",
            "ctb2Low": null,
            "ctb2Main": {
              "ntr": "ROOT_FIXED",
              "ntt": "BYPASS",
              "bassOn": false,
              "chordRootUpperLimit": 6,
              "noteLowLimit": 0,
              "noteHighLimit": 127,
              "rtr": "PITCH_SHIFT"
            },
            "ctb2High": null
          },
          "notes": [
            {
              "pitch": 54,
              "velocity": 82,
              "position": 0,
              "duration": 0.010416666666666666
            }
          ]
        },
        "9": {
          "ctab": {
            "srcChannel": 9,
            "name": "Rhyth2",
            "accType": "RHYTHM",
            "editable": false,
            "mutedNotes": [],
            "mutedChords": [],
            "autoStart": true,
            "sourceChordNote": 0,
            "sourceChordType": "Maj7",
            "ctb2Low": null,
            "ctb2Main": {
              "ntr": "ROOT_FIXED",
              "ntt": "BYPASS",
              "bassOn": false,
              "chordRootUpperLimit": 6,
              "noteLowLimit": 0,
              "noteHighLimit": 127,
              "rtr": "PITCH_SHIFT"
            },
            "ctb2High": null
          },
          "notes": [
            {
              "pitch": 36,
              "velocity": 86,
              "position": 0,
              "duration": 0.010416666666666666
            },
            {
              "pitch": 51,
              "velocity": 72,
              "position": 0,
              "duration": 0.010416666666666666
            }
          ]
        },
        "11": {
          "ctab": {
            "srcChannel": 11,
            "name": "Guit SFX",
            "accType": "CHORD1",
            "editable": false,
            "mutedNotes": [],
            "mutedChords": [],
            "autoStart": false,
            "sourceChordNote": 0,
            "sourceChordType": "Maj7",
            "ctb2Low": null,
            "ctb2Main": {
              "ntr": "ROOT_FIXED",
              "ntt": "BYPASS",
              "bassOn": false,
              "chordRootUpperLimit": 7,
              "noteLowLimit": 0,
              "noteHighLimit": 79,
              "rtr": "PITCH_SHIFT"
            },
            "ctb2High": null
          },
          "notes": [
            {
              "pitch": 108,
              "velocity": 65,
              "position": 0,
              "duration": 0.65625
            }
          ]
        },
        "12": {
          "ctab": {
            "srcChannel": 12,
            "name": "GtRootTr",
            "accType": "CHORD1",
            "editable": false,
            "mutedNotes": [],
            "mutedChords": [
              "1+2+5",
              "sus4",
              "1+5",
              "1+8",
              "Maj7aug",
              "dim",
              "minMaj7(9)",
              "minMaj7",
              "min6",
              "min",
              "aug",
              "Maj7(9)",
              "Maj7#11",
              "Maj7",
              "Maj6",
              "Maj"
            ],
            "autoStart": false,
            "sourceChordNote": 0,
            "sourceChordType": "Maj7",
            "ctb2Low": null,
            "ctb2Main": {
              "ntr": "ROOT_TRANSPOSITION",
              "ntt": "CHORD",
              "bassOn": false,
              "chordRootUpperLimit": 10,
              "noteLowLimit": 0,
              "noteHighLimit": 127,
              "rtr": "PITCH_SHIFT"
            },
            "ctb2High": null
          },
          "notes": [
            {
              "pitch": 60,
              "velocity": 28,
              "position": 0.014583333333333334,
              "duration": 6.989583333333333
            }
          ]
        },
        "13": {
          "ctab": {
            "srcChannel": 13,
            "name": "B2-E3-G3",
            "accType": "CHORD1",
            "editable": false,
            "mutedNotes": [],
            "mutedChords": [],
            "autoStart": false,
            "sourceChordNote": 0,
            "sourceChordType": "Maj7",
            "ctb2Low": null,
            "ctb2Main": {
              "ntr": "ROOT_FIXED",
              "ntt": "CHORD",
              "bassOn": false,
              "chordRootUpperLimit": 7,
              "noteLowLimit": 0,
              "noteHighLimit": 127,
              "rtr": "PITCH_SHIFT"
            },
            "ctb2High": null
          },
          "notes": [
            {
              "pitch": 59,
              "velocity": 28,
              "position": 0,
              "duration": 7.010416666666667
            },
            {
              "pitch": 64,
              "velocity": 28,
              "position": 0.020833333333333332,
              "duration": 6.989583333333333
            },
            {
              "pitch": 67,
              "velocity": 28,
              "position": 0.041666666666666664,
              "duration": 6.96875
            }
          ]
        },
        "14": {
          "ctab": {
            "srcChannel": 14,
            "name": "Fifth G2",
            "accType": "CHORD1",
            "editable": false,
            "mutedNotes": [
              6,
              5,
              4,
              3
            ],
            "mutedChords": [],
            "autoStart": false,
            "sourceChordNote": 0,
            "sourceChordType": "Maj7",
            "ctb2Low": null,
            "ctb2Main": {
              "ntr": "ROOT_TRANSPOSITION",
              "ntt": "CHORD",
              "bassOn": false,
              "chordRootUpperLimit": 3,
              "noteLowLimit": 0,
              "noteHighLimit": 127,
              "rtr": "PITCH_SHIFT"
            },
            "ctb2High": null
          },
          "notes": [
            {
              "pitch": 55,
              "velocity": 28,
              "position": 0.010416666666666666,
              "duration": 7.010416666666667
            }
          ]
        },
        "15": {
          "ctab": {
            "srcChannel": 15,
            "name": "Root C2",
            "accType": "CHORD1",
            "editable": false,
            "mutedNotes": [
              11,
              2,
              1,
              0
            ],
            "mutedChords": [],
            "autoStart": false,
            "sourceChordNote": 0,
            "sourceChordType": "Maj7",
            "ctb2Low": null,
            "ctb2Main": {
              "ntr": "ROOT_TRANSPOSITION",
              "ntt": "CHORD",
              "bassOn": false,
              "chordRootUpperLimit": 10,
              "noteLowLimit": 0,
              "noteHighLimit": 127,
              "rtr": "PITCH_SHIFT"
            },
            "ctb2High": null
          },
          "notes": [
            {
              "pitch": 48,
              "velocity": 28,
              "position": 0,
              "duration": 7.010416666666667
            }
          ]
        }
      }
    },
    "Fill_In_BA": {
      "type": "Fill_In_BA",
      "sizeInBeats": 4,
      "channels": {
        "0": {
          "ctab": {
            "srcChannel": 0,
            "name": "CC Crash",
            "accType": "RHYTHM",
            "editable": true,
            "mutedNotes": [],
            "mutedChords": [
              "1+2+5",
              "sus4",
              "1+5",
              "1+8",
              "7aug",
              "Maj7aug",
              "7(#9)",
              "7(b13)",
              "7(b9)",
              "7(13)",
              "7#11",
              "7(9)",
              "7b5",
              "7sus4",
              "7th",
              "dim7",
              "dim",
              "minMaj7(9)",
              "minMaj7",
              "min7(11)",
              "min7(9)",
              "min(9)",
              "m7b5",
              "min7",
              "min6",
              "min",
              "aug",
              "Maj6(9)",
              "Maj7(9)",
              "Maj(9)",
              "Maj7#11",
              "Maj7",
              "Maj6",
              "Maj"
            ],
            "autoStart": true,
            "sourceChordNote": 0,
            "sourceChordType": "Maj7",
            "ctb2Low": null,
            "ctb2Main": {
              "ntr": "ROOT_FIXED",
              "ntt": "BYPASS",
              "bassOn": false,
              "chordRootUpperLimit": 6,
              "noteLowLimit": 0,
              "noteHighLimit": 127,
              "rtr": "RETRIGGER"
            },
            "ctb2High": null
          },
          "notes": []
        },
        "2": {
          "ctab": {
            "srcChannel": 2,
            "name": "Bas4Note",
            "accType": "BASS",
            "editable": false,
            "mutedNotes": [],
            "mutedChords": [
              "1+2+5",
              "sus4",
              "1+5",
              "1+8",
              "7aug",
              "Maj7aug",
              "dim",
              "minMaj7(9)",
              "minMaj7",
              "min(9)",
              "m7b5",
              "min",
              "aug"
            ],
            "autoStart": false,
            "sourceChordNote": 0,
            "sourceChordType": "Maj7",
            "ctb2Low": null,
            "ctb2Main": {
              "ntr": "ROOT_TRANSPOSITION",
              "ntt": "MELODY",
              "bassOn": true,
              "chordRootUpperLimit": 10,
              "noteLowLimit": 28,
              "noteHighLimit": 127,
              "rtr": "PITCH_SHIFT_TO_ROOT"
            },
            "ctb2High": null
          },
          "notes": [
            {
              "pitch": 24,
              "velocity": 70,
              "position": 0,
              "duration": 0.65625
            },
            {
              "pitch": 31,
              "velocity": 110,
              "position": 0.6666666666666666,
              "duration": 0.3229166666666667
            },
            {
              "pitch": 33,
              "velocity": 62,
              "position": 1,
              "duration": 0.6458333333333334
            },
            {
              "pitch": 36,
              "velocity": 74,
              "position": 1.6666666666666667,
              "duration": 0.3645833333333333
            },
            {
              "pitch": 24,
              "velocity": 110,
              "position": 2.6666666666666665,
              "duration": 0.3229166666666667
            },
            {
              "pitch": 24,
              "velocity": 100,
              "position": 3.6666666666666665,
              "duration": 0.3229166666666667
            }
          ]
        },
        "3": {
          "ctab": {
            "srcChannel": 3,
            "name": "Bas3Note",
            "accType": "BASS",
            "editable": false,
            "mutedNotes": [],
            "mutedChords": [
              "7(#9)",
              "7(b13)",
              "7(b9)",
              "7(13)",
              "7#11",
              "7(9)",
              "7b5",
              "7sus4",
              "7th",
              "dim7",
              "min7(11)",
              "min7(9)",
              "min7",
              "min6",
              "Maj6(9)",
              "Maj7(9)",
              "Maj(9)",
              "Maj7#11",
              "Maj7",
              "Maj6",
              "Maj"
            ],
            "autoStart": false,
            "sourceChordNote": 0,
            "sourceChordType": "Maj7",
            "ctb2Low": null,
            "ctb2Main": {
              "ntr": "ROOT_TRANSPOSITION",
              "ntt": "MELODY",
              "bassOn": true,
              "chordRootUpperLimit": 0,
              "noteLowLimit": 28,
              "noteHighLimit": 127,
              "rtr": "PITCH_SHIFT_TO_ROOT"
            },
            "ctb2High": null
          },
          "notes": [
            {
              "pitch": 36,
              "velocity": 70,
              "position": 0,
              "duration": 0.65625
            },
            {
              "pitch": 31,
              "velocity": 110,
              "position": 0.6666666666666666,
              "duration": 0.3229166666666667
            },
            {
              "pitch": 43,
              "velocity": 62,
              "position": 1,
              "duration": 0.6458333333333334
            },
            {
              "pitch": 36,
              "velocity": 72,
              "position": 1.6666666666666667,
              "duration": 0.3645833333333333
            },
            {
              "pitch": 36,
              "velocity": 110,
              "position": 2.6666666666666665,
              "duration": 0.3229166666666667
            },
            {
              "pitch": 36,
              "velocity": 100,
              "position": 3.6666666666666665,
              "duration": 0.3229166666666667
            }
          ]
        },
        "6": {
          "ctab": {
            "srcChannel": 6,
            "name": "Organ",
            "accType": "PAD",
            "editable": false,
            "mutedNotes": [],
            "mutedChords": [],
            "autoStart": false,
            "sourceChordNote": 0,
            "sourceChordType": "Maj7",
            "ctb2Low": null,
            "ctb2Main": {
              "ntr": "ROOT_FIXED",
              "ntt": "CHORD",
              "bassOn": false,
              "chordRootUpperLimit": 7,
              "noteLowLimit": 0,
              "noteHighLimit": 127,
              "rtr": "PITCH_SHIFT"
            },
            "ctb2High": null
          },
          "notes": [
            {
              "pitch": 67,
              "velocity": 74,
              "position": 0,
              "duration": 1.1041666666666667
            },
            {
              "pitch": 71,
              "velocity": 74,
              "position": 0,
              "duration": 1.1041666666666667
            },
            {
              "pitch": 76,
              "velocity": 74,
              "position": 0,
              "duration": 1.1041666666666667
            },
            {
              "pitch": 67,
              "velocity": 83,
              "position": 1.6666666666666667,
              "duration": 0.3020833333333333
            },
            {
              "pitch": 71,
              "velocity": 83,
              "position": 1.6666666666666667,
              "duration": 0.3020833333333333
            },
            {
              "pitch": 76,
              "velocity": 83,
              "position": 1.6666666666666667,
              "duration": 0.3020833333333333
            }
          ]
        },
        "7": {
          "ctab": {
            "srcChannel": 7,
            "name": "OrgRoot",
            "accType": "PAD",
            "editable": false,
            "mutedNotes": [],
            "mutedChords": [
              "1+2+5",
              "sus4",
              "1+5",
              "1+8",
              "Maj7aug",
              "dim",
              "minMaj7(9)",
              "minMaj7",
              "min6",
              "min",
              "aug",
              "Maj7(9)",
              "Maj7#11",
              "Maj7",
              "Maj6",
              "Maj"
            ],
            "autoStart": false,
            "sourceChordNote": 0,
            "sourceChordType": "Maj7",
            "ctb2Low": null,
            "ctb2Main": {
              "ntr": "ROOT_TRANSPOSITION",
              "ntt": "CHORD",
              "bassOn": false,
              "chordRootUpperLimit": 6,
              "noteLowLimit": 0,
              "noteHighLimit": 127,
              "rtr": "PITCH_SHIFT"
            },
            "ctb2High": null
          },
          "notes": [
            {
              "pitch": 72,
              "velocity": 74,
              "position": 0,
              "duration": 1.0416666666666667
            },
            {
              "pitch": 72,
              "velocity": 83,
              "position": 1.6666666666666667,
              "duration": 0.3229166666666667
            }
          ]
        },
        "8": {
          "ctab": {
            "srcChannel": 8,
            "name": "Perc",
            "accType": "SUBRHYTHM",
            "editable": false,
            "mutedNotes": [],
            "mutedChords": [],
            "autoStart": true,
            "sourceChordNote": 0,
            "sourceChordType": "Maj7",
            "ctb2Low": null,
            "ctb2Main": {
              "ntr": "ROOT_FIXED",
              "ntt": "BYPASS",
              "bassOn": false,
              "chordRootUpperLimit": 6,
              "noteLowLimit": 0,
              "noteHighLimit": 127,
              "rtr": "PITCH_SHIFT"
            },
            "ctb2High": null
          },
          "notes": [
            {
              "pitch": 54,
              "velocity": 60,
              "position": 0,
              "duration": 0.010416666666666666
            },
            {
              "pitch": 54,
              "velocity": 14,
              "position": 0.6875,
              "duration": 0.010416666666666666
            },
            {
              "pitch": 39,
              "velocity": 94,
              "position": 1,
              "duration": 0.010416666666666666
            },
            {
              "pitch": 54,
              "velocity": 105,
              "position": 1,
              "duration": 0.010416666666666666
            },
            {
              "pitch": 54,
              "velocity": 106,
              "position": 1.6666666666666667,
              "duration": 0.010416666666666666
            },
            {
              "pitch": 54,
              "velocity": 14,
              "position": 2.6875,
              "duration": 0.010416666666666666
            },
            {
              "pitch": 39,
              "velocity": 94,
              "position": 3,
              "duration": 0.010416666666666666
            },
            {
              "pitch": 54,
              "velocity": 105,
              "position": 3,
              "duration": 0.010416666666666666
            },
            {
              "pitch": 54,
              "velocity": 14,
              "position": 3.6875,
              "duration": 0.010416666666666666
            }
          ]
        },
        "9": {
          "ctab": {
            "srcChannel": 9,
            "name": "Rhyth2",
            "accType": "RHYTHM",
            "editable": false,
            "mutedNotes": [],
            "mutedChords": [],
            "autoStart": true,
            "sourceChordNote": 0,
            "sourceChordType": "Maj7",
            "ctb2Low": null,
            "ctb2Main": {
              "ntr": "ROOT_FIXED",
              "ntt": "BYPASS",
              "bassOn": false,
              "chordRootUpperLimit": 6,
              "noteLowLimit": 0,
              "noteHighLimit": 127,
              "rtr": "PITCH_SHIFT"
            },
            "ctb2High": null
          },
          "notes": [
            {
              "pitch": 36,
              "velocity": 86,
              "position": 0,
              "duration": 0.010416666666666666
            },
            {
              "pitch": 51,
              "velocity": 72,
              "position": 0,
              "duration": 0.010416666666666666
            },
            {
              "pitch": 40,
              "velocity": 29,
              "position": 0.3333333333333333,
              "duration": 0.010416666666666666
            },
            {
              "pitch": 40,
              "velocity": 40,
              "position": 0.6666666666666666,
              "duration": 0.010416666666666666
            },
            {
              "pitch": 40,
              "velocity": 80,
              "position": 1,
              "duration": 0.010416666666666666
            },
            {
              "pitch": 51,
              "velocity": 93,
              "position": 1,
              "duration": 0.010416666666666666
            },
            {
              "pitch": 36,
              "velocity": 86,
              "position": 1.6666666666666667,
              "duration": 0.010416666666666666
            },
            {
              "pitch": 57,
              "velocity": 70,
              "position": 1.6666666666666667,
              "duration": 0.010416666666666666
            },
            {
              "pitch": 40,
              "velocity": 36,
              "position": 2.3333333333333335,
              "duration": 0.010416666666666666
            },
            {
              "pitch": 40,
              "velocity": 40,
              "position": 2.6666666666666665,
              "duration": 0.010416666666666666
            },
            {
              "pitch": 34,
              "velocity": 82,
              "position": 3,
              "duration": 0.010416666666666666
            },
            {
              "pitch": 40,
              "velocity": 40,
              "position": 3.6875,
              "duration": 0.010416666666666666
            },
            {
              "pitch": 49,
              "velocity": 68,
              "position": 3.9895833333333335,
              "duration": 0.010416666666666666
            }
          ]
        },
        "11": {
          "ctab": {
            "srcChannel": 11,
            "name": "Guit SFX",
            "accType": "CHORD1",
            "editable": false,
            "mutedNotes": [],
            "mutedChords": [],
            "autoStart": false,
            "sourceChordNote": 0,
            "sourceChordType": "Maj7",
            "ctb2Low": null,
            "ctb2Main": {
              "ntr": "ROOT_FIXED",
              "ntt": "BYPASS",
              "bassOn": false,
              "chordRootUpperLimit": 7,
              "noteLowLimit": 0,
              "noteHighLimit": 79,
              "rtr": "PITCH_SHIFT"
            },
            "ctb2High": null
          },
          "notes": [
            {
              "pitch": 108,
              "velocity": 65,
              "position": 0,
              "duration": 0.65625
            },
            {
              "pitch": 99,
              "velocity": 89,
              "position": 0.6666666666666666,
              "duration": 0.22916666666666666
            },
            {
              "pitch": 96,
              "velocity": 105,
              "position": 1,
              "duration": 0.22916666666666666
            },
            {
              "pitch": 106,
              "velocity": 109,
              "position": 1.6666666666666667,
              "duration": 0.22916666666666666
            }
          ]
        },
        "12": {
          "ctab": {
            "srcChannel": 12,
            "name": "GtRootTr",
            "accType": "CHORD1",
            "editable": false,
            "mutedNotes": [],
            "mutedChords": [
              "1+2+5",
              "sus4",
              "1+5",
              "1+8",
              "Maj7aug",
              "dim",
              "minMaj7(9)",
              "minMaj7",
              "min6",
              "min",
              "aug",
              "Maj7(9)",
              "Maj7#11",
              "Maj7",
              "Maj6",
              "Maj"
            ],
            "autoStart": false,
            "sourceChordNote": 0,
            "sourceChordType": "Maj7",
            "ctb2Low": null,
            "ctb2Main": {
              "ntr": "ROOT_TRANSPOSITION",
              "ntt": "CHORD",
              "bassOn": false,
              "chordRootUpperLimit": 10,
              "noteLowLimit": 0,
              "noteHighLimit": 127,
              "rtr": "PITCH_SHIFT"
            },
            "ctb2High": null
          },
          "notes": [
            {
              "pitch": 60,
              "velocity": 28,
              "position": 0.014583333333333334,
              "duration": 0.65625
            },
            {
              "pitch": 60,
              "velocity": 16,
              "position": 0.68125,
              "duration": 0.3145833333333333
            },
            {
              "pitch": 60,
              "velocity": 36,
              "position": 1.0145833333333334,
              "duration": 0.17708333333333334
            },
            {
              "pitch": 60,
              "velocity": 36,
              "position": 1.68125,
              "duration": 0.25
            }
          ]
        },
        "13": {
          "ctab": {
            "srcChannel": 13,
            "name": "B2-E3-G3",
            "accType": "CHORD1",
            "editable": false,
            "mutedNotes": [],
            "mutedChords": [],
            "autoStart": false,
            "sourceChordNote": 0,
            "sourceChordType": "Maj7",
            "ctb2Low": null,
            "ctb2Main": {
              "ntr": "ROOT_FIXED",
              "ntt": "CHORD",
              "bassOn": false,
              "chordRootUpperLimit": 7,
              "noteLowLimit": 0,
              "noteHighLimit": 127,
              "rtr": "PITCH_SHIFT"
            },
            "ctb2High": null
          },
          "notes": [
            {
              "pitch": 59,
              "velocity": 28,
              "position": 0,
              "duration": 0.65625
            },
            {
              "pitch": 64,
              "velocity": 28,
              "position": 0.020833333333333332,
              "duration": 0.65625
            },
            {
              "pitch": 67,
              "velocity": 28,
              "position": 0.041666666666666664,
              "duration": 0.65625
            },
            {
              "pitch": 59,
              "velocity": 16,
              "position": 0.6666666666666666,
              "duration": 0.3229166666666667
            },
            {
              "pitch": 64,
              "velocity": 16,
              "position": 0.6875,
              "duration": 0.3229166666666667
            },
            {
              "pitch": 67,
              "velocity": 16,
              "position": 0.7083333333333334,
              "duration": 0.3229166666666667
            },
            {
              "pitch": 59,
              "velocity": 38,
              "position": 1,
              "duration": 0.17708333333333334
            },
            {
              "pitch": 64,
              "velocity": 36,
              "position": 1.0208333333333333,
              "duration": 0.17708333333333334
            },
            {
              "pitch": 67,
              "velocity": 35,
              "position": 1.0416666666666667,
              "duration": 0.17708333333333334
            },
            {
              "pitch": 59,
              "velocity": 36,
              "position": 1.6666666666666667,
              "duration": 0.25
            },
            {
              "pitch": 64,
              "velocity": 36,
              "position": 1.6875,
              "duration": 0.25
            },
            {
              "pitch": 67,
              "velocity": 36,
              "position": 1.7083333333333333,
              "duration": 0.25
            }
          ]
        },
        "14": {
          "ctab": {
            "srcChannel": 14,
            "name": "Fifth G2",
            "accType": "CHORD1",
            "editable": false,
            "mutedNotes": [
              6,
              5,
              4,
              3
            ],
            "mutedChords": [],
            "autoStart": false,
            "sourceChordNote": 0,
            "sourceChordType": "Maj7",
            "ctb2Low": null,
            "ctb2Main": {
              "ntr": "ROOT_TRANSPOSITION",
              "ntt": "CHORD",
              "bassOn": false,
              "chordRootUpperLimit": 3,
              "noteLowLimit": 0,
              "noteHighLimit": 127,
              "rtr": "PITCH_SHIFT"
            },
            "ctb2High": null
          },
          "notes": [
            {
              "pitch": 55,
              "velocity": 28,
              "position": 0.010416666666666666,
              "duration": 0.65625
            },
            {
              "pitch": 55,
              "velocity": 16,
              "position": 0.6770833333333334,
              "duration": 0.3229166666666667
            },
            {
              "pitch": 55,
              "velocity": 38,
              "position": 1.0104166666666667,
              "duration": 0.17708333333333334
            },
            {
              "pitch": 55,
              "velocity": 36,
              "position": 1.6770833333333333,
              "duration": 0.25
            }
          ]
        },
        "15": {
          "ctab": {
            "srcChannel": 15,
            "name": "Root C2",
            "accType": "CHORD1",
            "editable": false,
            "mutedNotes": [
              11,
              2,
              1,
              0
            ],
            "mutedChords": [],
            "autoStart": false,
            "sourceChordNote": 0,
            "sourceChordType": "Maj7",
            "ctb2Low": null,
            "ctb2Main": {
              "ntr": "ROOT_TRANSPOSITION",
              "ntt": "CHORD",
              "bassOn": false,
              "chordRootUpperLimit": 10,
              "noteLowLimit": 0,
              "noteHighLimit": 127,
              "rtr": "PITCH_SHIFT"
            },
            "ctb2High": null
          },
          "notes": [
            {
              "pitch": 48,
              "velocity": 28,
              "position": 0,
              "duration": 0.65625
            },
            {
              "pitch": 48,
              "velocity": 16,
              "position": 0.6666666666666666,
              "duration": 0.3229166666666667
            },
            {
              "pitch": 48,
              "velocity": 38,
              "position": 1,
              "duration": 0.17708333333333334
            },
            {
              "pitch": 48,
              "velocity": 36,
              "position": 1.6666666666666667,
              "duration": 0.25
            }
          ]
        }
      }
    },
    "Intro_B": {
      "type": "Intro_B",
      "sizeInBeats": 12,
      "channels": {
        "2": {
          "ctab": {
            "srcChannel": 2,
            "name": "BassMAJ",
            "accType": "BASS",
            "editable": false,
            "mutedNotes": [],
            "mutedChords": [
              "dim7",
              "dim",
              "minMaj7(9)",
              "minMaj7",
              "min7(11)",
              "min7(9)",
              "min(9)",
              "m7b5",
              "min7",
              "min6",
              "min"
            ],
            "autoStart": false,
            "sourceChordNote": 0,
            "sourceChordType": "Maj",
            "ctb2Low": null,
            "ctb2Main": {
              "ntr": "ROOT_TRANSPOSITION",
              "ntt": "BYPASS",
              "bassOn": false,
              "chordRootUpperLimit": 0,
              "noteLowLimit": 28,
              "noteHighLimit": 127,
              "rtr": "PITCH_SHIFT"
            },
            "ctb2High": null
          },
          "notes": [
            {
              "pitch": 31,
              "velocity": 50,
              "position": 0.6666666666666666,
              "duration": 0.325
            },
            {
              "pitch": 33,
              "velocity": 70,
              "position": 1,
              "duration": 0.8333333333333334
            },
            {
              "pitch": 34,
              "velocity": 70,
              "position": 2,
              "duration": 0.8333333333333334
            },
            {
              "pitch": 35,
              "velocity": 70,
              "position": 3,
              "duration": 0.6458333333333334
            },
            {
              "pitch": 31,
              "velocity": 50,
              "position": 3.6666666666666665,
              "duration": 0.325
            },
            {
              "pitch": 36,
              "velocity": 70,
              "position": 4,
              "duration": 0.6583333333333333
            },
            {
              "pitch": 48,
              "velocity": 50,
              "position": 4.666666666666667,
              "duration": 0.325
            },
            {
              "pitch": 46,
              "velocity": 60,
              "position": 5,
              "duration": 0.8333333333333334
            },
            {
              "pitch": 45,
              "velocity": 70,
              "position": 6,
              "duration": 0.6458333333333334
            },
            {
              "pitch": 33,
              "velocity": 50,
              "position": 6.666666666666667,
              "duration": 0.325
            },
            {
              "pitch": 26,
              "velocity": 59,
              "position": 7,
              "duration": 0.8333333333333334
            },
            {
              "pitch": 26,
              "velocity": 70,
              "position": 8,
              "duration": 0.6458333333333334
            },
            {
              "pitch": 26,
              "velocity": 50,
              "position": 8.666666666666666,
              "duration": 0.325
            },
            {
              "pitch": 44,
              "velocity": 70,
              "position": 9,
              "duration": 0.6583333333333333
            },
            {
              "pitch": 43,
              "velocity": 70,
              "position": 9.666666666666666,
              "duration": 0.4166666666666667
            },
            {
              "pitch": 31,
              "velocity": 60,
              "position": 11,
              "duration": 0.9791666666666666
            }
          ]
        },
        "3": {
          "ctab": {
            "srcChannel": 3,
            "name": "BassMIN",
            "accType": "BASS",
            "editable": false,
            "mutedNotes": [],
            "mutedChords": [
              "1+2+5",
              "sus4",
              "1+5",
              "1+8",
              "7aug",
              "Maj7aug",
              "7(#9)",
              "7(b13)",
              "7(b9)",
              "7(13)",
              "7#11",
              "7(9)",
              "7b5",
              "7sus4",
              "7th",
              "aug",
              "Maj6(9)",
              "Maj7(9)",
              "Maj(9)",
              "Maj7#11",
              "Maj7",
              "Maj6",
              "Maj"
            ],
            "autoStart": false,
            "sourceChordNote": 0,
            "sourceChordType": "min",
            "ctb2Low": null,
            "ctb2Main": {
              "ntr": "ROOT_TRANSPOSITION",
              "ntt": "BYPASS",
              "bassOn": false,
              "chordRootUpperLimit": 5,
              "noteLowLimit": 28,
              "noteHighLimit": 127,
              "rtr": "PITCH_SHIFT"
            },
            "ctb2High": null
          },
          "notes": [
            {
              "pitch": 31,
              "velocity": 50,
              "position": 0.6666666666666666,
              "duration": 0.325
            },
            {
              "pitch": 33,
              "velocity": 70,
              "position": 1,
              "duration": 0.8333333333333334
            },
            {
              "pitch": 34,
              "velocity": 70,
              "position": 2,
              "duration": 0.8333333333333334
            },
            {
              "pitch": 35,
              "velocity": 70,
              "position": 3,
              "duration": 0.6458333333333334
            },
            {
              "pitch": 31,
              "velocity": 50,
              "position": 3.6666666666666665,
              "duration": 0.325
            },
            {
              "pitch": 24,
              "velocity": 70,
              "position": 4,
              "duration": 0.6583333333333333
            },
            {
              "pitch": 36,
              "velocity": 50,
              "position": 4.666666666666667,
              "duration": 0.325
            },
            {
              "pitch": 38,
              "velocity": 60,
              "position": 5,
              "duration": 0.8333333333333334
            },
            {
              "pitch": 39,
              "velocity": 70,
              "position": 6,
              "duration": 0.6458333333333334
            },
            {
              "pitch": 36,
              "velocity": 50,
              "position": 6.666666666666667,
              "duration": 0.325
            },
            {
              "pitch": 31,
              "velocity": 59,
              "position": 7,
              "duration": 0.8333333333333334
            },
            {
              "pitch": 29,
              "velocity": 70,
              "position": 8,
              "duration": 0.6458333333333334
            },
            {
              "pitch": 41,
              "velocity": 50,
              "position": 8.666666666666666,
              "duration": 0.325
            },
            {
              "pitch": 42,
              "velocity": 70,
              "position": 9,
              "duration": 0.6583333333333333
            },
            {
              "pitch": 43,
              "velocity": 70,
              "position": 9.666666666666666,
              "duration": 0.4166666666666667
            },
            {
              "pitch": 31,
              "velocity": 60,
              "position": 11,
              "duration": 0.9791666666666666
            }
          ]
        },
        "6": {
          "ctab": {
            "srcChannel": 6,
            "name": "OrganMAJ",
            "accType": "PAD",
            "editable": false,
            "mutedNotes": [],
            "mutedChords": [
              "dim7",
              "dim",
              "minMaj7(9)",
              "minMaj7",
              "min7(11)",
              "min7(9)",
              "min(9)",
              "m7b5",
              "min7",
              "min6",
              "min"
            ],
            "autoStart": false,
            "sourceChordNote": 0,
            "sourceChordType": "Maj",
            "ctb2Low": null,
            "ctb2Main": {
              "ntr": "ROOT_TRANSPOSITION",
              "ntt": "BYPASS",
              "bassOn": false,
              "chordRootUpperLimit": 7,
              "noteLowLimit": 66,
              "noteHighLimit": 77,
              "rtr": "PITCH_SHIFT"
            },
            "ctb2High": null
          },
          "notes": [
            {
              "pitch": 72,
              "velocity": 96,
              "position": 4,
              "duration": 2
            },
            {
              "pitch": 67,
              "velocity": 96,
              "position": 4,
              "duration": 4
            },
            {
              "pitch": 76,
              "velocity": 96,
              "position": 4,
              "duration": 4
            },
            {
              "pitch": 73,
              "velocity": 96,
              "position": 6,
              "duration": 2
            },
            {
              "pitch": 74,
              "velocity": 96,
              "position": 8,
              "duration": 1.65625
            },
            {
              "pitch": 66,
              "velocity": 96,
              "position": 8,
              "duration": 1.6666666666666667
            },
            {
              "pitch": 69,
              "velocity": 96,
              "position": 6,
              "duration": 3.6666666666666665
            },
            {
              "pitch": 72,
              "velocity": 96,
              "position": 8,
              "duration": 1.6666666666666667
            },
            {
              "pitch": 67,
              "velocity": 96,
              "position": 9.666666666666666,
              "duration": 0.3333333333333333
            },
            {
              "pitch": 71,
              "velocity": 96,
              "position": 9.666666666666666,
              "duration": 0.3333333333333333
            },
            {
              "pitch": 74,
              "velocity": 96,
              "position": 9.666666666666666,
              "duration": 0.3333333333333333
            }
          ]
        },
        "7": {
          "ctab": {
            "srcChannel": 7,
            "name": "OrganMIN",
            "accType": "PAD",
            "editable": false,
            "mutedNotes": [],
            "mutedChords": [
              "1+2+5",
              "sus4",
              "1+5",
              "1+8",
              "7aug",
              "Maj7aug",
              "7(#9)",
              "7(b13)",
              "7(b9)",
              "7(13)",
              "7#11",
              "7(9)",
              "7b5",
              "7sus4",
              "7th",
              "aug",
              "Maj6(9)",
              "Maj7(9)",
              "Maj(9)",
              "Maj7#11",
              "Maj7",
              "Maj6",
              "Maj"
            ],
            "autoStart": false,
            "sourceChordNote": 0,
            "sourceChordType": "min",
            "ctb2Low": null,
            "ctb2Main": {
              "ntr": "ROOT_TRANSPOSITION",
              "ntt": "BYPASS",
              "bassOn": false,
              "chordRootUpperLimit": 7,
              "noteLowLimit": 66,
              "noteHighLimit": 77,
              "rtr": "PITCH_SHIFT"
            },
            "ctb2High": null
          },
          "notes": [
            {
              "pitch": 67,
              "velocity": 90,
              "position": 4,
              "duration": 4
            },
            {
              "pitch": 75,
              "velocity": 90,
              "position": 4,
              "duration": 4
            },
            {
              "pitch": 68,
              "velocity": 90,
              "position": 8,
              "duration": 0.4583333333333333
            },
            {
              "pitch": 77,
              "velocity": 90,
              "position": 8,
              "duration": 0.4583333333333333
            },
            {
              "pitch": 67,
              "velocity": 90,
              "position": 9.666666666666666,
              "duration": 0.3333333333333333
            },
            {
              "pitch": 71,
              "velocity": 90,
              "position": 9.666666666666666,
              "duration": 0.3333333333333333
            },
            {
              "pitch": 74,
              "velocity": 90,
              "position": 9.666666666666666,
              "duration": 0.3333333333333333
            }
          ]
        },
        "8": {
          "ctab": {
            "srcChannel": 8,
            "name": "Perc",
            "accType": "SUBRHYTHM",
            "editable": false,
            "mutedNotes": [],
            "mutedChords": [],
            "autoStart": true,
            "sourceChordNote": 0,
            "sourceChordType": "Maj7",
            "ctb2Low": null,
            "ctb2Main": {
              "ntr": "ROOT_FIXED",
              "ntt": "BYPASS",
              "bassOn": false,
              "chordRootUpperLimit": 6,
              "noteLowLimit": 0,
              "noteHighLimit": 127,
              "rtr": "PITCH_SHIFT"
            },
            "ctb2High": null
          },
          "notes": [
            {
              "pitch": 54,
              "velocity": 60,
              "position": 0,
              "duration": 0.010416666666666666
            },
            {
              "pitch": 54,
              "velocity": 14,
              "position": 0.6875,
              "duration": 0.010416666666666666
            },
            {
              "pitch": 54,
              "velocity": 105,
              "position": 1,
              "duration": 0.010416666666666666
            },
            {
              "pitch": 54,
              "velocity": 14,
              "position": 1.6875,
              "duration": 0.010416666666666666
            },
            {
              "pitch": 54,
              "velocity": 60,
              "position": 2,
              "duration": 0.010416666666666666
            },
            {
              "pitch": 54,
              "velocity": 14,
              "position": 2.6875,
              "duration": 0.010416666666666666
            },
            {
              "pitch": 39,
              "velocity": 84,
              "position": 3,
              "duration": 0.010416666666666666
            },
            {
              "pitch": 54,
              "velocity": 105,
              "position": 3,
              "duration": 0.010416666666666666
            },
            {
              "pitch": 54,
              "velocity": 14,
              "position": 3.6875,
              "duration": 0.010416666666666666
            },
            {
              "pitch": 54,
              "velocity": 60,
              "position": 4,
              "duration": 0.010416666666666666
            },
            {
              "pitch": 54,
              "velocity": 14,
              "position": 4.6875,
              "duration": 0.010416666666666666
            },
            {
              "pitch": 39,
              "velocity": 84,
              "position": 5,
              "duration": 0.010416666666666666
            },
            {
              "pitch": 54,
              "velocity": 105,
              "position": 5,
              "duration": 0.010416666666666666
            },
            {
              "pitch": 54,
              "velocity": 14,
              "position": 5.6875,
              "duration": 0.010416666666666666
            },
            {
              "pitch": 54,
              "velocity": 60,
              "position": 6,
              "duration": 0.010416666666666666
            },
            {
              "pitch": 54,
              "velocity": 14,
              "position": 6.6875,
              "duration": 0.010416666666666666
            },
            {
              "pitch": 39,
              "velocity": 84,
              "position": 7,
              "duration": 0.010416666666666666
            },
            {
              "pitch": 54,
              "velocity": 105,
              "position": 7,
              "duration": 0.010416666666666666
            },
            {
              "pitch": 54,
              "velocity": 14,
              "position": 7.6875,
              "duration": 0.010416666666666666
            },
            {
              "pitch": 54,
              "velocity": 60,
              "position": 8,
              "duration": 0.010416666666666666
            },
            {
              "pitch": 54,
              "velocity": 14,
              "position": 8.6875,
              "duration": 0.010416666666666666
            },
            {
              "pitch": 39,
              "velocity": 84,
              "position": 9,
              "duration": 0.010416666666666666
            },
            {
              "pitch": 54,
              "velocity": 100,
              "position": 9,
              "duration": 0.010416666666666666
            },
            {
              "pitch": 54,
              "velocity": 108,
              "position": 9.6875,
              "duration": 0.010416666666666666
            }
          ]
        },
        "9": {
          "ctab": {
            "srcChannel": 9,
            "name": "Rhyth2",
            "accType": "RHYTHM",
            "editable": false,
            "mutedNotes": [],
            "mutedChords": [],
            "autoStart": true,
            "sourceChordNote": 0,
            "sourceChordType": "Maj7",
            "ctb2Low": null,
            "ctb2Main": {
              "ntr": "ROOT_FIXED",
              "ntt": "BYPASS",
              "bassOn": false,
              "chordRootUpperLimit": 6,
              "noteLowLimit": 0,
              "noteHighLimit": 127,
              "rtr": "PITCH_SHIFT"
            },
            "ctb2High": null
          },
          "notes": [
            {
              "pitch": 44,
              "velocity": 55,
              "position": 0.020833333333333332,
              "duration": 0.010416666666666666
            },
            {
              "pitch": 44,
              "velocity": 44,
              "position": 1.0208333333333333,
              "duration": 0.010416666666666666
            },
            {
              "pitch": 44,
              "velocity": 55,
              "position": 2.0208333333333335,
              "duration": 0.010416666666666666
            },
            {
              "pitch": 40,
              "velocity": 49,
              "position": 2.6875,
              "duration": 0.010416666666666666
            },
            {
              "pitch": 40,
              "velocity": 80,
              "position": 3,
              "duration": 0.010416666666666666
            },
            {
              "pitch": 36,
              "velocity": 80,
              "position": 4,
              "duration": 0.010416666666666666
            },
            {
              "pitch": 49,
              "velocity": 58,
              "position": 4,
              "duration": 0.010416666666666666
            },
            {
              "pitch": 40,
              "velocity": 21,
              "position": 4.6875,
              "duration": 0.010416666666666666
            },
            {
              "pitch": 40,
              "velocity": 80,
              "position": 5,
              "duration": 0.010416666666666666
            },
            {
              "pitch": 40,
              "velocity": 21,
              "position": 5.6875,
              "duration": 0.010416666666666666
            },
            {
              "pitch": 36,
              "velocity": 80,
              "position": 6,
              "duration": 0.010416666666666666
            },
            {
              "pitch": 40,
              "velocity": 45,
              "position": 6,
              "duration": 0.010416666666666666
            },
            {
              "pitch": 40,
              "velocity": 21,
              "position": 6.6875,
              "duration": 0.010416666666666666
            },
            {
              "pitch": 40,
              "velocity": 80,
              "position": 7,
              "duration": 0.010416666666666666
            },
            {
              "pitch": 40,
              "velocity": 21,
              "position": 7.6875,
              "duration": 0.010416666666666666
            },
            {
              "pitch": 36,
              "velocity": 80,
              "position": 8,
              "duration": 0.010416666666666666
            },
            {
              "pitch": 40,
              "velocity": 45,
              "position": 8,
              "duration": 0.010416666666666666
            },
            {
              "pitch": 40,
              "velocity": 56,
              "position": 8.6875,
              "duration": 0.010416666666666666
            },
            {
              "pitch": 40,
              "velocity": 80,
              "position": 9,
              "duration": 0.010416666666666666
            },
            {
              "pitch": 36,
              "velocity": 80,
              "position": 9.666666666666666,
              "duration": 0.010416666666666666
            },
            {
              "pitch": 40,
              "velocity": 80,
              "position": 9.666666666666666,
              "duration": 0.010416666666666666
            },
            {
              "pitch": 40,
              "velocity": 46,
              "position": 11.6875,
              "duration": 0.010416666666666666
            }
          ]
        },
        "11": {
          "ctab": {
            "srcChannel": 11,
            "name": "Guit SFX",
            "accType": "CHORD1",
            "editable": false,
            "mutedNotes": [],
            "mutedChords": [],
            "autoStart": false,
            "sourceChordNote": 0,
            "sourceChordType": "Maj7",
            "ctb2Low": null,
            "ctb2Main": {
              "ntr": "ROOT_FIXED",
              "ntt": "BYPASS",
              "bassOn": false,
              "chordRootUpperLimit": 7,
              "noteLowLimit": 0,
              "noteHighLimit": 79,
              "rtr": "PITCH_SHIFT"
            },
            "ctb2High": null
          },
          "notes": [
            {
              "pitch": 97,
              "velocity": 72,
              "position": 0.6666666666666666,
              "duration": 0.22916666666666666
            },
            {
              "pitch": 106,
              "velocity": 110,
              "position": 1,
              "duration": 0.22916666666666666
            },
            {
              "pitch": 103,
              "velocity": 94,
              "position": 1.6666666666666667,
              "duration": 0.22916666666666666
            },
            {
              "pitch": 108,
              "velocity": 80,
              "position": 4,
              "duration": 0.65625
            },
            {
              "pitch": 99,
              "velocity": 104,
              "position": 4.666666666666667,
              "duration": 0.22916666666666666
            },
            {
              "pitch": 103,
              "velocity": 110,
              "position": 5.666666666666667,
              "duration": 0.22916666666666666
            },
            {
              "pitch": 99,
              "velocity": 104,
              "position": 6.666666666666667,
              "duration": 0.22916666666666666
            },
            {
              "pitch": 105,
              "velocity": 99,
              "position": 7.666666666666667,
              "duration": 0.22916666666666666
            },
            {
              "pitch": 108,
              "velocity": 80,
              "position": 8,
              "duration": 0.65625
            },
            {
              "pitch": 99,
              "velocity": 110,
              "position": 8.666666666666666,
              "duration": 0.22916666666666666
            },
            {
              "pitch": 106,
              "velocity": 110,
              "position": 9.666666666666666,
              "duration": 0.22916666666666666
            }
          ]
        },
        "12": {
          "ctab": {
            "srcChannel": 12,
            "name": "GuitMAJ",
            "accType": "CHORD1",
            "editable": false,
            "mutedNotes": [],
            "mutedChords": [
              "dim7",
              "dim",
              "minMaj7(9)",
              "minMaj7",
              "min7(11)",
              "min7(9)",
              "min(9)",
              "m7b5",
              "min7",
              "min6",
              "min"
            ],
            "autoStart": false,
            "sourceChordNote": 0,
            "sourceChordType": "Maj",
            "ctb2Low": null,
            "ctb2Main": {
              "ntr": "ROOT_TRANSPOSITION",
              "ntt": "BYPASS",
              "bassOn": false,
              "chordRootUpperLimit": 7,
              "noteLowLimit": 56,
              "noteHighLimit": 67,
              "rtr": "PITCH_SHIFT"
            },
            "ctb2High": null
          },
          "notes": [
            {
              "pitch": 59,
              "velocity": 120,
              "position": 2.6770833333333335,
              "duration": 0.875
            },
            {
              "pitch": 55,
              "velocity": 84,
              "position": 3.6875,
              "duration": 0.3020833333333333
            },
            {
              "pitch": 64,
              "velocity": 30,
              "position": 4.020833333333333,
              "duration": 0.6354166666666666
            },
            {
              "pitch": 60,
              "velocity": 30,
              "position": 4.010416666666667,
              "duration": 0.65625
            },
            {
              "pitch": 55,
              "velocity": 30,
              "position": 4,
              "duration": 0.6770833333333334
            },
            {
              "pitch": 64,
              "velocity": 36,
              "position": 4.666666666666667,
              "duration": 0.20833333333333334
            },
            {
              "pitch": 60,
              "velocity": 36,
              "position": 4.677083333333333,
              "duration": 0.20833333333333334
            },
            {
              "pitch": 55,
              "velocity": 36,
              "position": 4.6875,
              "duration": 0.20833333333333334
            },
            {
              "pitch": 64,
              "velocity": 30,
              "position": 5.666666666666667,
              "duration": 0.20833333333333334
            },
            {
              "pitch": 61,
              "velocity": 30,
              "position": 5.677083333333333,
              "duration": 0.20833333333333334
            },
            {
              "pitch": 55,
              "velocity": 30,
              "position": 5.6875,
              "duration": 0.20833333333333334
            },
            {
              "pitch": 64,
              "velocity": 118,
              "position": 6.666666666666667,
              "duration": 0.9791666666666666
            },
            {
              "pitch": 61,
              "velocity": 118,
              "position": 6.677083333333333,
              "duration": 0.96875
            },
            {
              "pitch": 55,
              "velocity": 118,
              "position": 6.6875,
              "duration": 0.9583333333333334
            },
            {
              "pitch": 55,
              "velocity": 26,
              "position": 7.6875,
              "duration": 0.3020833333333333
            },
            {
              "pitch": 57,
              "velocity": 33,
              "position": 7.677083333333333,
              "duration": 0.3229166666666667
            },
            {
              "pitch": 61,
              "velocity": 26,
              "position": 7.677083333333333,
              "duration": 0.3229166666666667
            },
            {
              "pitch": 64,
              "velocity": 26,
              "position": 7.666666666666667,
              "duration": 0.34375
            },
            {
              "pitch": 62,
              "velocity": 30,
              "position": 8.020833333333334,
              "duration": 0.6354166666666666
            },
            {
              "pitch": 60,
              "velocity": 30,
              "position": 8.010416666666666,
              "duration": 0.65625
            },
            {
              "pitch": 54,
              "velocity": 30,
              "position": 8,
              "duration": 0.6770833333333334
            },
            {
              "pitch": 62,
              "velocity": 30,
              "position": 8.666666666666666,
              "duration": 0.20833333333333334
            },
            {
              "pitch": 60,
              "velocity": 30,
              "position": 8.677083333333334,
              "duration": 0.20833333333333334
            },
            {
              "pitch": 54,
              "velocity": 30,
              "position": 8.6875,
              "duration": 0.20833333333333334
            },
            {
              "pitch": 62,
              "velocity": 35,
              "position": 9.666666666666666,
              "duration": 0.34375
            },
            {
              "pitch": 59,
              "velocity": 35,
              "position": 9.677083333333334,
              "duration": 0.34375
            },
            {
              "pitch": 55,
              "velocity": 35,
              "position": 9.6875,
              "duration": 0.34375
            }
          ]
        },
        "13": {
          "ctab": {
            "srcChannel": 13,
            "name": "GuitMIN",
            "accType": "CHORD1",
            "editable": false,
            "mutedNotes": [],
            "mutedChords": [
              "1+2+5",
              "sus4",
              "1+5",
              "1+8",
              "7aug",
              "Maj7aug",
              "7(#9)",
              "7(b13)",
              "7(b9)",
              "7(13)",
              "7#11",
              "7(9)",
              "7b5",
              "7sus4",
              "7th",
              "aug",
              "Maj6(9)",
              "Maj7(9)",
              "Maj(9)",
              "Maj7#11",
              "Maj7",
              "Maj6",
              "Maj"
            ],
            "autoStart": false,
            "sourceChordNote": 0,
            "sourceChordType": "min",
            "ctb2Low": null,
            "ctb2Main": {
              "ntr": "ROOT_TRANSPOSITION",
              "ntt": "BYPASS",
              "bassOn": false,
              "chordRootUpperLimit": 5,
              "noteLowLimit": 54,
              "noteHighLimit": 67,
              "rtr": "PITCH_SHIFT"
            },
            "ctb2High": null
          },
          "notes": [
            {
              "pitch": 59,
              "velocity": 120,
              "position": 2.6770833333333335,
              "duration": 0.875
            },
            {
              "pitch": 55,
              "velocity": 86,
              "position": 3.6875,
              "duration": 0.3020833333333333
            },
            {
              "pitch": 62,
              "velocity": 100,
              "position": 3.0104166666666665,
              "duration": 0.9895833333333334
            },
            {
              "pitch": 63,
              "velocity": 30,
              "position": 4.020833333333333,
              "duration": 0.6354166666666666
            },
            {
              "pitch": 60,
              "velocity": 30,
              "position": 4.010416666666667,
              "duration": 0.65625
            },
            {
              "pitch": 55,
              "velocity": 30,
              "position": 4,
              "duration": 0.6770833333333334
            },
            {
              "pitch": 63,
              "velocity": 36,
              "position": 4.666666666666667,
              "duration": 0.20833333333333334
            },
            {
              "pitch": 60,
              "velocity": 36,
              "position": 4.677083333333333,
              "duration": 0.20833333333333334
            },
            {
              "pitch": 55,
              "velocity": 36,
              "position": 4.6875,
              "duration": 0.20833333333333334
            },
            {
              "pitch": 63,
              "velocity": 30,
              "position": 5.666666666666667,
              "duration": 0.20833333333333334
            },
            {
              "pitch": 60,
              "velocity": 30,
              "position": 5.677083333333333,
              "duration": 0.20833333333333334
            },
            {
              "pitch": 55,
              "velocity": 30,
              "position": 5.6875,
              "duration": 0.20833333333333334
            },
            {
              "pitch": 63,
              "velocity": 118,
              "position": 6.666666666666667,
              "duration": 0.9791666666666666
            },
            {
              "pitch": 60,
              "velocity": 118,
              "position": 6.677083333333333,
              "duration": 0.96875
            },
            {
              "pitch": 55,
              "velocity": 118,
              "position": 6.6875,
              "duration": 0.9583333333333334
            },
            {
              "pitch": 55,
              "velocity": 26,
              "position": 7.6875,
              "duration": 0.3020833333333333
            },
            {
              "pitch": 63,
              "velocity": 26,
              "position": 7.666666666666667,
              "duration": 0.34375
            },
            {
              "pitch": 56,
              "velocity": 36,
              "position": 8,
              "duration": 0.3020833333333333
            },
            {
              "pitch": 65,
              "velocity": 36,
              "position": 8,
              "duration": 0.3020833333333333
            },
            {
              "pitch": 59,
              "velocity": 34,
              "position": 9.666666666666666,
              "duration": 0.34375
            },
            {
              "pitch": 62,
              "velocity": 34,
              "position": 9.666666666666666,
              "duration": 0.34375
            },
            {
              "pitch": 67,
              "velocity": 34,
              "position": 9.666666666666666,
              "duration": 0.34375
            }
          ]
        }
      }
    },
    "Intro_C": {
      "type": "Intro_C",
      "sizeInBeats": 20,
      "channels": {
        "1": {
          "ctab": {
            "srcChannel": 1,
            "name": "BassSFX",
            "accType": "BASS",
            "editable": false,
            "mutedNotes": [],
            "mutedChords": [],
            "autoStart": false,
            "sourceChordNote": 0,
            "sourceChordType": "Maj7",
            "ctb2Low": null,
            "ctb2Main": {
              "ntr": "ROOT_FIXED",
              "ntt": "BYPASS",
              "bassOn": false,
              "chordRootUpperLimit": 10,
              "noteLowLimit": 0,
              "noteHighLimit": 127,
              "rtr": "PITCH_SHIFT"
            },
            "ctb2High": null
          },
          "notes": []
        },
        "2": {
          "ctab": {
            "srcChannel": 2,
            "name": "BassMAJ",
            "accType": "BASS",
            "editable": false,
            "mutedNotes": [],
            "mutedChords": [
              "dim7",
              "dim",
              "minMaj7(9)",
              "minMaj7",
              "min7(11)",
              "min7(9)",
              "min(9)",
              "m7b5",
              "min7",
              "min6",
              "min"
            ],
            "autoStart": false,
            "sourceChordNote": 0,
            "sourceChordType": "Maj",
            "ctb2Low": null,
            "ctb2Main": {
              "ntr": "ROOT_TRANSPOSITION",
              "ntt": "BYPASS",
              "bassOn": false,
              "chordRootUpperLimit": 10,
              "noteLowLimit": 28,
              "noteHighLimit": 127,
              "rtr": "PITCH_SHIFT"
            },
            "ctb2High": null
          },
          "notes": [
            {
              "pitch": 24,
              "velocity": 70,
              "position": 3.6666666666666665,
              "duration": 0.9895833333333334
            },
            {
              "pitch": 24,
              "velocity": 100,
              "position": 4.666666666666667,
              "duration": 0.3229166666666667
            },
            {
              "pitch": 28,
              "velocity": 60,
              "position": 5,
              "duration": 0.8020833333333334
            },
            {
              "pitch": 31,
              "velocity": 70,
              "position": 6,
              "duration": 0.8020833333333334
            },
            {
              "pitch": 33,
              "velocity": 60,
              "position": 7,
              "duration": 0.65625
            },
            {
              "pitch": 31,
              "velocity": 58,
              "position": 7.666666666666667,
              "duration": 0.3229166666666667
            },
            {
              "pitch": 29,
              "velocity": 70,
              "position": 8,
              "duration": 0.65625
            },
            {
              "pitch": 29,
              "velocity": 100,
              "position": 8.666666666666666,
              "duration": 0.3229166666666667
            },
            {
              "pitch": 33,
              "velocity": 60,
              "position": 9,
              "duration": 0.8020833333333334
            },
            {
              "pitch": 36,
              "velocity": 70,
              "position": 10,
              "duration": 0.8020833333333334
            },
            {
              "pitch": 38,
              "velocity": 60,
              "position": 11,
              "duration": 0.65625
            },
            {
              "pitch": 36,
              "velocity": 50,
              "position": 11.666666666666666,
              "duration": 0.3229166666666667
            },
            {
              "pitch": 24,
              "velocity": 70,
              "position": 12,
              "duration": 0.65625
            },
            {
              "pitch": 24,
              "velocity": 50,
              "position": 12.666666666666666,
              "duration": 0.19791666666666666
            },
            {
              "pitch": 28,
              "velocity": 64,
              "position": 13,
              "duration": 0.65625
            },
            {
              "pitch": 36,
              "velocity": 50,
              "position": 13.666666666666666,
              "duration": 0.3229166666666667
            },
            {
              "pitch": 31,
              "velocity": 70,
              "position": 14,
              "duration": 0.6354166666666666
            },
            {
              "pitch": 29,
              "velocity": 50,
              "position": 14.666666666666666,
              "duration": 0.15625
            },
            {
              "pitch": 30,
              "velocity": 66,
              "position": 15,
              "duration": 0.65625
            },
            {
              "pitch": 31,
              "velocity": 70,
              "position": 15.666666666666666,
              "duration": 0.9895833333333334
            },
            {
              "pitch": 31,
              "velocity": 58,
              "position": 16.666666666666668,
              "duration": 0.3229166666666667
            },
            {
              "pitch": 31,
              "velocity": 61,
              "position": 17,
              "duration": 0.6354166666666666
            },
            {
              "pitch": 31,
              "velocity": 65,
              "position": 17.666666666666668,
              "duration": 0.3229166666666667
            },
            {
              "pitch": 31,
              "velocity": 100,
              "position": 18.666666666666668,
              "duration": 0.3229166666666667
            },
            {
              "pitch": 31,
              "velocity": 50,
              "position": 19.666666666666668,
              "duration": 0.3229166666666667
            }
          ]
        },
        "3": {
          "ctab": {
            "srcChannel": 3,
            "name": "BassMIN",
            "accType": "BASS",
            "editable": false,
            "mutedNotes": [],
            "mutedChords": [
              "1+2+5",
              "sus4",
              "1+5",
              "1+8",
              "7aug",
              "Maj7aug",
              "7(#9)",
              "7(b13)",
              "7(b9)",
              "7(13)",
              "7#11",
              "7(9)",
              "7b5",
              "7sus4",
              "7th",
              "aug",
              "Maj6(9)",
              "Maj7(9)",
              "Maj(9)",
              "Maj7#11",
              "Maj7",
              "Maj6",
              "Maj"
            ],
            "autoStart": false,
            "sourceChordNote": 0,
            "sourceChordType": "min",
            "ctb2Low": null,
            "ctb2Main": {
              "ntr": "ROOT_TRANSPOSITION",
              "ntt": "BYPASS",
              "bassOn": false,
              "chordRootUpperLimit": 2,
              "noteLowLimit": 28,
              "noteHighLimit": 127,
              "rtr": "PITCH_SHIFT"
            },
            "ctb2High": null
          },
          "notes": [
            {
              "pitch": 36,
              "velocity": 70,
              "position": 3.6666666666666665,
              "duration": 0.9895833333333334
            },
            {
              "pitch": 36,
              "velocity": 100,
              "position": 4.666666666666667,
              "duration": 0.3229166666666667
            },
            {
              "pitch": 39,
              "velocity": 60,
              "position": 5,
              "duration": 0.8020833333333334
            },
            {
              "pitch": 43,
              "velocity": 70,
              "position": 6,
              "duration": 0.6458333333333334
            },
            {
              "pitch": 36,
              "velocity": 70,
              "position": 6.666666666666667,
              "duration": 0.3229166666666667
            },
            {
              "pitch": 42,
              "velocity": 69,
              "position": 7,
              "duration": 0.9791666666666666
            },
            {
              "pitch": 41,
              "velocity": 70,
              "position": 8,
              "duration": 0.65625
            },
            {
              "pitch": 41,
              "velocity": 100,
              "position": 8.666666666666666,
              "duration": 0.3229166666666667
            },
            {
              "pitch": 45,
              "velocity": 66,
              "position": 9,
              "duration": 0.8145833333333333
            },
            {
              "pitch": 46,
              "velocity": 70,
              "position": 10,
              "duration": 0.6458333333333334
            },
            {
              "pitch": 46,
              "velocity": 110,
              "position": 10.666666666666666,
              "duration": 0.25
            },
            {
              "pitch": 47,
              "velocity": 60,
              "position": 11,
              "duration": 0.9895833333333334
            },
            {
              "pitch": 48,
              "velocity": 70,
              "position": 12,
              "duration": 0.65625
            },
            {
              "pitch": 36,
              "velocity": 50,
              "position": 12.666666666666666,
              "duration": 0.19791666666666666
            },
            {
              "pitch": 39,
              "velocity": 64,
              "position": 13,
              "duration": 0.65625
            },
            {
              "pitch": 41,
              "velocity": 72,
              "position": 14,
              "duration": 0.6354166666666666
            },
            {
              "pitch": 41,
              "velocity": 58,
              "position": 14.666666666666666,
              "duration": 0.15625
            },
            {
              "pitch": 42,
              "velocity": 66,
              "position": 15,
              "duration": 0.65625
            },
            {
              "pitch": 43,
              "velocity": 70,
              "position": 15.666666666666666,
              "duration": 0.9895833333333334
            },
            {
              "pitch": 31,
              "velocity": 63,
              "position": 16.666666666666668,
              "duration": 0.3229166666666667
            },
            {
              "pitch": 31,
              "velocity": 65,
              "position": 17,
              "duration": 0.6354166666666666
            },
            {
              "pitch": 31,
              "velocity": 77,
              "position": 17.666666666666668,
              "duration": 0.3229166666666667
            },
            {
              "pitch": 31,
              "velocity": 100,
              "position": 18.666666666666668,
              "duration": 0.3229166666666667
            },
            {
              "pitch": 31,
              "velocity": 50,
              "position": 19.666666666666668,
              "duration": 0.3229166666666667
            }
          ]
        },
        "6": {
          "ctab": {
            "srcChannel": 6,
            "name": "OrganMAJ",
            "accType": "PAD",
            "editable": false,
            "mutedNotes": [],
            "mutedChords": [
              "dim7",
              "dim",
              "minMaj7(9)",
              "minMaj7",
              "min7(11)",
              "min7(9)",
              "min(9)",
              "m7b5",
              "min7",
              "min6",
              "min"
            ],
            "autoStart": false,
            "sourceChordNote": 0,
            "sourceChordType": "Maj",
            "ctb2Low": null,
            "ctb2Main": {
              "ntr": "ROOT_TRANSPOSITION",
              "ntt": "BYPASS",
              "bassOn": false,
              "chordRootUpperLimit": 7,
              "noteLowLimit": 66,
              "noteHighLimit": 77,
              "rtr": "PITCH_SHIFT"
            },
            "ctb2High": null
          },
          "notes": [
            {
              "pitch": 67,
              "velocity": 96,
              "position": 3.6666666666666665,
              "duration": 4.322916666666667
            },
            {
              "pitch": 69,
              "velocity": 96,
              "position": 3.6666666666666665,
              "duration": 4.322916666666667
            },
            {
              "pitch": 72,
              "velocity": 96,
              "position": 3.6666666666666665,
              "duration": 4.322916666666667
            },
            {
              "pitch": 76,
              "velocity": 96,
              "position": 3.6666666666666665,
              "duration": 4.322916666666667
            },
            {
              "pitch": 65,
              "velocity": 96,
              "position": 8,
              "duration": 3.9895833333333335
            },
            {
              "pitch": 69,
              "velocity": 96,
              "position": 8,
              "duration": 3.9895833333333335
            },
            {
              "pitch": 72,
              "velocity": 96,
              "position": 8,
              "duration": 3.9895833333333335
            },
            {
              "pitch": 75,
              "velocity": 96,
              "position": 8,
              "duration": 3.9895833333333335
            },
            {
              "pitch": 67,
              "velocity": 96,
              "position": 12,
              "duration": 3.65625
            },
            {
              "pitch": 69,
              "velocity": 96,
              "position": 12,
              "duration": 3.65625
            },
            {
              "pitch": 72,
              "velocity": 96,
              "position": 12,
              "duration": 3.65625
            },
            {
              "pitch": 76,
              "velocity": 96,
              "position": 12,
              "duration": 3.65625
            },
            {
              "pitch": 67,
              "velocity": 96,
              "position": 15.666666666666666,
              "duration": 1.9375
            },
            {
              "pitch": 71,
              "velocity": 96,
              "position": 15.666666666666666,
              "duration": 1.9375
            },
            {
              "pitch": 74,
              "velocity": 96,
              "position": 15.666666666666666,
              "duration": 1.9375
            },
            {
              "pitch": 77,
              "velocity": 96,
              "position": 15.666666666666666,
              "duration": 1.9375
            },
            {
              "pitch": 67,
              "velocity": 112,
              "position": 17.666666666666668,
              "duration": 0.2708333333333333
            },
            {
              "pitch": 71,
              "velocity": 112,
              "position": 17.666666666666668,
              "duration": 0.2708333333333333
            },
            {
              "pitch": 74,
              "velocity": 112,
              "position": 17.666666666666668,
              "duration": 0.2708333333333333
            },
            {
              "pitch": 77,
              "velocity": 112,
              "position": 17.666666666666668,
              "duration": 0.2708333333333333
            }
          ]
        },
        "7": {
          "ctab": {
            "srcChannel": 7,
            "name": "OrganMIN",
            "accType": "PAD",
            "editable": false,
            "mutedNotes": [],
            "mutedChords": [
              "1+2+5",
              "sus4",
              "1+5",
              "1+8",
              "7aug",
              "Maj7aug",
              "7(#9)",
              "7(b13)",
              "7(b9)",
              "7(13)",
              "7#11",
              "7(9)",
              "7b5",
              "7sus4",
              "7th",
              "aug",
              "Maj6(9)",
              "Maj7(9)",
              "Maj(9)",
              "Maj7#11",
              "Maj7",
              "Maj6",
              "Maj"
            ],
            "autoStart": false,
            "sourceChordNote": 0,
            "sourceChordType": "min",
            "ctb2Low": null,
            "ctb2Main": {
              "ntr": "ROOT_TRANSPOSITION",
              "ntt": "BYPASS",
              "bassOn": false,
              "chordRootUpperLimit": 7,
              "noteLowLimit": 66,
              "noteHighLimit": 77,
              "rtr": "PITCH_SHIFT"
            },
            "ctb2High": null
          },
          "notes": [
            {
              "pitch": 67,
              "velocity": 90,
              "position": 3.6666666666666665,
              "duration": 4.322916666666667
            },
            {
              "pitch": 70,
              "velocity": 90,
              "position": 3.6666666666666665,
              "duration": 4.322916666666667
            },
            {
              "pitch": 72,
              "velocity": 90,
              "position": 3.6666666666666665,
              "duration": 4.322916666666667
            },
            {
              "pitch": 75,
              "velocity": 90,
              "position": 3.6666666666666665,
              "duration": 4.322916666666667
            },
            {
              "pitch": 65,
              "velocity": 90,
              "position": 8,
              "duration": 3.9895833333333335
            },
            {
              "pitch": 69,
              "velocity": 90,
              "position": 8,
              "duration": 3.9895833333333335
            },
            {
              "pitch": 72,
              "velocity": 90,
              "position": 8,
              "duration": 3.9895833333333335
            },
            {
              "pitch": 75,
              "velocity": 90,
              "position": 8,
              "duration": 3.9895833333333335
            },
            {
              "pitch": 67,
              "velocity": 90,
              "position": 12,
              "duration": 3.65625
            },
            {
              "pitch": 70,
              "velocity": 90,
              "position": 12,
              "duration": 3.65625
            },
            {
              "pitch": 72,
              "velocity": 90,
              "position": 12,
              "duration": 3.65625
            },
            {
              "pitch": 75,
              "velocity": 90,
              "position": 12,
              "duration": 3.65625
            },
            {
              "pitch": 67,
              "velocity": 90,
              "position": 15.666666666666666,
              "duration": 1.9375
            },
            {
              "pitch": 71,
              "velocity": 90,
              "position": 15.666666666666666,
              "duration": 1.9375
            },
            {
              "pitch": 74,
              "velocity": 90,
              "position": 15.666666666666666,
              "duration": 1.9375
            },
            {
              "pitch": 77,
              "velocity": 90,
              "position": 15.666666666666666,
              "duration": 1.9375
            },
            {
              "pitch": 67,
              "velocity": 106,
              "position": 17.666666666666668,
              "duration": 0.2708333333333333
            },
            {
              "pitch": 71,
              "velocity": 106,
              "position": 17.666666666666668,
              "duration": 0.2708333333333333
            },
            {
              "pitch": 74,
              "velocity": 106,
              "position": 17.666666666666668,
              "duration": 0.2708333333333333
            },
            {
              "pitch": 77,
              "velocity": 106,
              "position": 17.666666666666668,
              "duration": 0.2708333333333333
            }
          ]
        },
        "8": {
          "ctab": {
            "srcChannel": 8,
            "name": "Perc",
            "accType": "SUBRHYTHM",
            "editable": false,
            "mutedNotes": [],
            "mutedChords": [],
            "autoStart": true,
            "sourceChordNote": 0,
            "sourceChordType": "Maj7",
            "ctb2Low": null,
            "ctb2Main": {
              "ntr": "ROOT_FIXED",
              "ntt": "BYPASS",
              "bassOn": false,
              "chordRootUpperLimit": 6,
              "noteLowLimit": 0,
              "noteHighLimit": 127,
              "rtr": "PITCH_SHIFT"
            },
            "ctb2High": null
          },
          "notes": [
            {
              "pitch": 54,
              "velocity": 60,
              "position": 4,
              "duration": 0.010416666666666666
            },
            {
              "pitch": 54,
              "velocity": 14,
              "position": 4.6875,
              "duration": 0.010416666666666666
            },
            {
              "pitch": 39,
              "velocity": 94,
              "position": 5,
              "duration": 0.010416666666666666
            },
            {
              "pitch": 54,
              "velocity": 105,
              "position": 5,
              "duration": 0.010416666666666666
            },
            {
              "pitch": 54,
              "velocity": 14,
              "position": 5.6875,
              "duration": 0.010416666666666666
            },
            {
              "pitch": 54,
              "velocity": 60,
              "position": 6,
              "duration": 0.010416666666666666
            },
            {
              "pitch": 54,
              "velocity": 14,
              "position": 6.6875,
              "duration": 0.010416666666666666
            },
            {
              "pitch": 39,
              "velocity": 94,
              "position": 7,
              "duration": 0.010416666666666666
            },
            {
              "pitch": 54,
              "velocity": 105,
              "position": 7,
              "duration": 0.010416666666666666
            },
            {
              "pitch": 54,
              "velocity": 14,
              "position": 7.6875,
              "duration": 0.010416666666666666
            },
            {
              "pitch": 54,
              "velocity": 60,
              "position": 8,
              "duration": 0.010416666666666666
            },
            {
              "pitch": 54,
              "velocity": 14,
              "position": 8.6875,
              "duration": 0.010416666666666666
            },
            {
              "pitch": 39,
              "velocity": 94,
              "position": 9,
              "duration": 0.010416666666666666
            },
            {
              "pitch": 54,
              "velocity": 105,
              "position": 9,
              "duration": 0.010416666666666666
            },
            {
              "pitch": 54,
              "velocity": 14,
              "position": 9.6875,
              "duration": 0.010416666666666666
            },
            {
              "pitch": 54,
              "velocity": 60,
              "position": 10,
              "duration": 0.010416666666666666
            },
            {
              "pitch": 54,
              "velocity": 14,
              "position": 10.6875,
              "duration": 0.010416666666666666
            },
            {
              "pitch": 39,
              "velocity": 94,
              "position": 11,
              "duration": 0.010416666666666666
            },
            {
              "pitch": 54,
              "velocity": 105,
              "position": 11,
              "duration": 0.010416666666666666
            },
            {
              "pitch": 54,
              "velocity": 14,
              "position": 11.6875,
              "duration": 0.010416666666666666
            },
            {
              "pitch": 54,
              "velocity": 60,
              "position": 12,
              "duration": 0.010416666666666666
            },
            {
              "pitch": 54,
              "velocity": 14,
              "position": 12.6875,
              "duration": 0.010416666666666666
            },
            {
              "pitch": 39,
              "velocity": 94,
              "position": 13,
              "duration": 0.010416666666666666
            },
            {
              "pitch": 54,
              "velocity": 105,
              "position": 13,
              "duration": 0.010416666666666666
            },
            {
              "pitch": 54,
              "velocity": 14,
              "position": 13.6875,
              "duration": 0.010416666666666666
            },
            {
              "pitch": 54,
              "velocity": 60,
              "position": 14,
              "duration": 0.010416666666666666
            },
            {
              "pitch": 54,
              "velocity": 14,
              "position": 14.6875,
              "duration": 0.010416666666666666
            },
            {
              "pitch": 39,
              "velocity": 94,
              "position": 15,
              "duration": 0.010416666666666666
            },
            {
              "pitch": 54,
              "velocity": 105,
              "position": 15,
              "duration": 0.010416666666666666
            },
            {
              "pitch": 54,
              "velocity": 14,
              "position": 15.6875,
              "duration": 0.010416666666666666
            },
            {
              "pitch": 54,
              "velocity": 60,
              "position": 16,
              "duration": 0.010416666666666666
            },
            {
              "pitch": 54,
              "velocity": 14,
              "position": 16.6875,
              "duration": 0.010416666666666666
            },
            {
              "pitch": 39,
              "velocity": 94,
              "position": 17,
              "duration": 0.010416666666666666
            },
            {
              "pitch": 54,
              "velocity": 105,
              "position": 17,
              "duration": 0.010416666666666666
            },
            {
              "pitch": 39,
              "velocity": 94,
              "position": 17.666666666666668,
              "duration": 0.010416666666666666
            },
            {
              "pitch": 54,
              "velocity": 101,
              "position": 17.6875,
              "duration": 0.010416666666666666
            },
            {
              "pitch": 54,
              "velocity": 14,
              "position": 18.6875,
              "duration": 0.010416666666666666
            },
            {
              "pitch": 54,
              "velocity": 105,
              "position": 19,
              "duration": 0.010416666666666666
            },
            {
              "pitch": 54,
              "velocity": 14,
              "position": 19.6875,
              "duration": 0.010416666666666666
            }
          ]
        },
        "9": {
          "ctab": {
            "srcChannel": 9,
            "name": "Rhyth2",
            "accType": "RHYTHM",
            "editable": false,
            "mutedNotes": [],
            "mutedChords": [],
            "autoStart": true,
            "sourceChordNote": 0,
            "sourceChordType": "Maj7",
            "ctb2Low": null,
            "ctb2Main": {
              "ntr": "ROOT_FIXED",
              "ntt": "BYPASS",
              "bassOn": false,
              "chordRootUpperLimit": 6,
              "noteLowLimit": 0,
              "noteHighLimit": 127,
              "rtr": "PITCH_SHIFT"
            },
            "ctb2High": null
          },
          "notes": [
            {
              "pitch": 32,
              "velocity": 84,
              "position": 0,
              "duration": 0.010416666666666666
            },
            {
              "pitch": 32,
              "velocity": 67,
              "position": 1,
              "duration": 0.010416666666666666
            },
            {
              "pitch": 32,
              "velocity": 84,
              "position": 2,
              "duration": 0.010416666666666666
            },
            {
              "pitch": 40,
              "velocity": 48,
              "position": 2.6875,
              "duration": 0.010416666666666666
            },
            {
              "pitch": 40,
              "velocity": 80,
              "position": 3,
              "duration": 0.010416666666666666
            },
            {
              "pitch": 36,
              "velocity": 80,
              "position": 3.6666666666666665,
              "duration": 0.010416666666666666
            },
            {
              "pitch": 49,
              "velocity": 58,
              "position": 3.6666666666666665,
              "duration": 0.010416666666666666
            },
            {
              "pitch": 40,
              "velocity": 21,
              "position": 4.6875,
              "duration": 0.010416666666666666
            },
            {
              "pitch": 40,
              "velocity": 80,
              "position": 5,
              "duration": 0.010416666666666666
            },
            {
              "pitch": 40,
              "velocity": 21,
              "position": 5.6875,
              "duration": 0.010416666666666666
            },
            {
              "pitch": 36,
              "velocity": 80,
              "position": 6,
              "duration": 0.010416666666666666
            },
            {
              "pitch": 40,
              "velocity": 45,
              "position": 6,
              "duration": 0.010416666666666666
            },
            {
              "pitch": 40,
              "velocity": 41,
              "position": 6.6875,
              "duration": 0.010416666666666666
            },
            {
              "pitch": 40,
              "velocity": 80,
              "position": 7,
              "duration": 0.010416666666666666
            },
            {
              "pitch": 40,
              "velocity": 21,
              "position": 7.6875,
              "duration": 0.010416666666666666
            },
            {
              "pitch": 36,
              "velocity": 80,
              "position": 8,
              "duration": 0.010416666666666666
            },
            {
              "pitch": 40,
              "velocity": 45,
              "position": 8,
              "duration": 0.010416666666666666
            },
            {
              "pitch": 40,
              "velocity": 21,
              "position": 8.6875,
              "duration": 0.010416666666666666
            },
            {
              "pitch": 40,
              "velocity": 80,
              "position": 9,
              "duration": 0.010416666666666666
            },
            {
              "pitch": 40,
              "velocity": 21,
              "position": 9.6875,
              "duration": 0.010416666666666666
            },
            {
              "pitch": 36,
              "velocity": 80,
              "position": 10,
              "duration": 0.010416666666666666
            },
            {
              "pitch": 40,
              "velocity": 45,
              "position": 10,
              "duration": 0.010416666666666666
            },
            {
              "pitch": 40,
              "velocity": 21,
              "position": 10.6875,
              "duration": 0.010416666666666666
            },
            {
              "pitch": 40,
              "velocity": 80,
              "position": 11,
              "duration": 0.010416666666666666
            },
            {
              "pitch": 40,
              "velocity": 21,
              "position": 11.6875,
              "duration": 0.010416666666666666
            },
            {
              "pitch": 36,
              "velocity": 80,
              "position": 12,
              "duration": 0.010416666666666666
            },
            {
              "pitch": 40,
              "velocity": 45,
              "position": 12,
              "duration": 0.010416666666666666
            },
            {
              "pitch": 40,
              "velocity": 21,
              "position": 12.6875,
              "duration": 0.010416666666666666
            },
            {
              "pitch": 40,
              "velocity": 80,
              "position": 13,
              "duration": 0.010416666666666666
            },
            {
              "pitch": 40,
              "velocity": 21,
              "position": 13.6875,
              "duration": 0.010416666666666666
            },
            {
              "pitch": 36,
              "velocity": 80,
              "position": 14,
              "duration": 0.010416666666666666
            },
            {
              "pitch": 40,
              "velocity": 45,
              "position": 14,
              "duration": 0.010416666666666666
            },
            {
              "pitch": 40,
              "velocity": 21,
              "position": 14.6875,
              "duration": 0.010416666666666666
            },
            {
              "pitch": 40,
              "velocity": 80,
              "position": 15,
              "duration": 0.010416666666666666
            },
            {
              "pitch": 40,
              "velocity": 21,
              "position": 15.6875,
              "duration": 0.010416666666666666
            },
            {
              "pitch": 36,
              "velocity": 80,
              "position": 16,
              "duration": 0.010416666666666666
            },
            {
              "pitch": 40,
              "velocity": 45,
              "position": 16,
              "duration": 0.010416666666666666
            },
            {
              "pitch": 40,
              "velocity": 42,
              "position": 16.6875,
              "duration": 0.010416666666666666
            },
            {
              "pitch": 40,
              "velocity": 80,
              "position": 17,
              "duration": 0.010416666666666666
            },
            {
              "pitch": 40,
              "velocity": 76,
              "position": 17.6875,
              "duration": 0.010416666666666666
            },
            {
              "pitch": 45,
              "velocity": 31,
              "position": 18.333333333333332,
              "duration": 0.010416666666666666
            },
            {
              "pitch": 45,
              "velocity": 38,
              "position": 18.666666666666668,
              "duration": 0.010416666666666666
            },
            {
              "pitch": 45,
              "velocity": 82,
              "position": 19,
              "duration": 0.010416666666666666
            },
            {
              "pitch": 43,
              "velocity": 70,
              "position": 19.6875,
              "duration": 0.010416666666666666
            }
          ]
        },
        "11": {
          "ctab": {
            "srcChannel": 11,
            "name": "Guit SFX",
            "accType": "CHORD1",
            "editable": false,
            "mutedNotes": [],
            "mutedChords": [],
            "autoStart": false,
            "sourceChordNote": 0,
            "sourceChordType": "Maj7",
            "ctb2Low": null,
            "ctb2Main": {
              "ntr": "ROOT_FIXED",
              "ntt": "BYPASS",
              "bassOn": false,
              "chordRootUpperLimit": 7,
              "noteLowLimit": 0,
              "noteHighLimit": 79,
              "rtr": "PITCH_SHIFT"
            },
            "ctb2High": null
          },
          "notes": [
            {
              "pitch": 123,
              "velocity": 80,
              "position": 6.947916666666667,
              "duration": 0.65625
            },
            {
              "pitch": 120,
              "velocity": 80,
              "position": 10.989583333333334,
              "duration": 0.65625
            }
          ]
        },
        "12": {
          "ctab": {
            "srcChannel": 12,
            "name": "GuitMAJ",
            "accType": "CHORD1",
            "editable": false,
            "mutedNotes": [],
            "mutedChords": [
              "dim7",
              "dim",
              "minMaj7(9)",
              "minMaj7",
              "min7(11)",
              "min7(9)",
              "min(9)",
              "m7b5",
              "min7",
              "min6",
              "min"
            ],
            "autoStart": false,
            "sourceChordNote": 0,
            "sourceChordType": "Maj",
            "ctb2Low": null,
            "ctb2Main": {
              "ntr": "ROOT_TRANSPOSITION",
              "ntt": "BYPASS",
              "bassOn": false,
              "chordRootUpperLimit": 7,
              "noteLowLimit": 0,
              "noteHighLimit": 127,
              "rtr": "PITCH_SHIFT"
            },
            "ctb2High": null
          },
          "notes": [
            {
              "pitch": 55,
              "velocity": 37,
              "position": 2.6666666666666665,
              "duration": 0.325
            },
            {
              "pitch": 57,
              "velocity": 102,
              "position": 3,
              "duration": 0.2916666666666667
            },
            {
              "pitch": 64,
              "velocity": 120,
              "position": 3.6666666666666665,
              "duration": 1.3020833333333333
            },
            {
              "pitch": 60,
              "velocity": 120,
              "position": 3.6666666666666665,
              "duration": 1.3229166666666667
            },
            {
              "pitch": 57,
              "velocity": 37,
              "position": 5,
              "duration": 0.6458333333333334
            },
            {
              "pitch": 55,
              "velocity": 102,
              "position": 5.666666666666667,
              "duration": 0.2916666666666667
            },
            {
              "pitch": 57,
              "velocity": 36,
              "position": 6,
              "duration": 0.6458333333333334
            },
            {
              "pitch": 60,
              "velocity": 84,
              "position": 6.677083333333333,
              "duration": 0.2916666666666667
            },
            {
              "pitch": 63,
              "velocity": 120,
              "position": 7.666666666666667,
              "duration": 0.9479166666666666
            },
            {
              "pitch": 60,
              "velocity": 120,
              "position": 7.666666666666667,
              "duration": 0.9895833333333334
            },
            {
              "pitch": 57,
              "velocity": 118,
              "position": 7.666666666666667,
              "duration": 1.28125
            },
            {
              "pitch": 60,
              "velocity": 98,
              "position": 8.666666666666666,
              "duration": 0.2916666666666667
            },
            {
              "pitch": 63,
              "velocity": 98,
              "position": 8.666666666666666,
              "duration": 0.2916666666666667
            },
            {
              "pitch": 57,
              "velocity": 37,
              "position": 9,
              "duration": 0.6458333333333334
            },
            {
              "pitch": 55,
              "velocity": 102,
              "position": 9.666666666666666,
              "duration": 0.2916666666666667
            },
            {
              "pitch": 57,
              "velocity": 40,
              "position": 10,
              "duration": 0.6458333333333334
            },
            {
              "pitch": 60,
              "velocity": 98,
              "position": 10.666666666666666,
              "duration": 0.2916666666666667
            },
            {
              "pitch": 64,
              "velocity": 120,
              "position": 11.666666666666666,
              "duration": 0.96875
            },
            {
              "pitch": 60,
              "velocity": 120,
              "position": 11.666666666666666,
              "duration": 0.9895833333333334
            },
            {
              "pitch": 60,
              "velocity": 98,
              "position": 12.666666666666666,
              "duration": 0.2916666666666667
            },
            {
              "pitch": 64,
              "velocity": 98,
              "position": 12.666666666666666,
              "duration": 0.2916666666666667
            },
            {
              "pitch": 57,
              "velocity": 37,
              "position": 13,
              "duration": 0.6458333333333334
            },
            {
              "pitch": 55,
              "velocity": 29,
              "position": 13.666666666666666,
              "duration": 0.2916666666666667
            },
            {
              "pitch": 64,
              "velocity": 38,
              "position": 14,
              "duration": 0.6354166666666666
            },
            {
              "pitch": 60,
              "velocity": 38,
              "position": 14,
              "duration": 0.65625
            },
            {
              "pitch": 57,
              "velocity": 98,
              "position": 14.666666666666666,
              "duration": 0.2916666666666667
            },
            {
              "pitch": 65,
              "velocity": 98,
              "position": 14.666666666666666,
              "duration": 0.2916666666666667
            },
            {
              "pitch": 58,
              "velocity": 36,
              "position": 15,
              "duration": 0.625
            },
            {
              "pitch": 66,
              "velocity": 36,
              "position": 15,
              "duration": 0.625
            },
            {
              "pitch": 59,
              "velocity": 120,
              "position": 15.666666666666666,
              "duration": 0.9583333333333334
            },
            {
              "pitch": 67,
              "velocity": 120,
              "position": 15.666666666666666,
              "duration": 0.9583333333333334
            },
            {
              "pitch": 55,
              "velocity": 27,
              "position": 16.666666666666668,
              "duration": 0.3125
            },
            {
              "pitch": 55,
              "velocity": 38,
              "position": 17,
              "duration": 0.6583333333333333
            },
            {
              "pitch": 55,
              "velocity": 86,
              "position": 17.666666666666668,
              "duration": 0.2916666666666667
            }
          ]
        },
        "13": {
          "ctab": {
            "srcChannel": 13,
            "name": "GuitMIN",
            "accType": "CHORD1",
            "editable": false,
            "mutedNotes": [],
            "mutedChords": [
              "1+2+5",
              "sus4",
              "1+5",
              "1+8",
              "7aug",
              "Maj7aug",
              "7(#9)",
              "7(b13)",
              "7(b9)",
              "7(13)",
              "7#11",
              "7(9)",
              "7b5",
              "7sus4",
              "7th",
              "aug",
              "Maj6(9)",
              "Maj7(9)",
              "Maj(9)",
              "Maj7#11",
              "Maj7",
              "Maj6",
              "Maj"
            ],
            "autoStart": false,
            "sourceChordNote": 0,
            "sourceChordType": "min",
            "ctb2Low": null,
            "ctb2Main": {
              "ntr": "ROOT_TRANSPOSITION",
              "ntt": "BYPASS",
              "bassOn": false,
              "chordRootUpperLimit": 5,
              "noteLowLimit": 0,
              "noteHighLimit": 127,
              "rtr": "PITCH_SHIFT"
            },
            "ctb2High": null
          },
          "notes": [
            {
              "pitch": 65,
              "velocity": 37,
              "position": 2.6666666666666665,
              "duration": 0.3125
            },
            {
              "pitch": 66,
              "velocity": 102,
              "position": 3,
              "duration": 0.2916666666666667
            },
            {
              "pitch": 63,
              "velocity": 119,
              "position": 3.6666666666666665,
              "duration": 1.3229166666666667
            },
            {
              "pitch": 67,
              "velocity": 119,
              "position": 3.6875,
              "duration": 1.3020833333333333
            },
            {
              "pitch": 65,
              "velocity": 37,
              "position": 5,
              "duration": 0.6458333333333334
            },
            {
              "pitch": 63,
              "velocity": 102,
              "position": 5.666666666666667,
              "duration": 0.2916666666666667
            },
            {
              "pitch": 65,
              "velocity": 37,
              "position": 6,
              "duration": 0.6458333333333334
            },
            {
              "pitch": 60,
              "velocity": 84,
              "position": 6.666666666666667,
              "duration": 0.2916666666666667
            },
            {
              "pitch": 63,
              "velocity": 84,
              "position": 6.666666666666667,
              "duration": 0.2916666666666667
            },
            {
              "pitch": 57,
              "velocity": 116,
              "position": 7.666666666666667,
              "duration": 0.96875
            },
            {
              "pitch": 63,
              "velocity": 120,
              "position": 7.666666666666667,
              "duration": 0.96875
            },
            {
              "pitch": 67,
              "velocity": 120,
              "position": 7.677083333333333,
              "duration": 0.96875
            },
            {
              "pitch": 63,
              "velocity": 83,
              "position": 8.6875,
              "duration": 0.2916666666666667
            },
            {
              "pitch": 72,
              "velocity": 58,
              "position": 8.666666666666666,
              "duration": 0.9583333333333334
            },
            {
              "pitch": 65,
              "velocity": 37,
              "position": 9,
              "duration": 0.6458333333333334
            },
            {
              "pitch": 63,
              "velocity": 102,
              "position": 9.666666666666666,
              "duration": 0.2916666666666667
            },
            {
              "pitch": 65,
              "velocity": 37,
              "position": 10,
              "duration": 0.6458333333333334
            },
            {
              "pitch": 57,
              "velocity": 80,
              "position": 10.666666666666666,
              "duration": 0.2916666666666667
            },
            {
              "pitch": 63,
              "velocity": 88,
              "position": 10.666666666666666,
              "duration": 0.2916666666666667
            },
            {
              "pitch": 60,
              "velocity": 59,
              "position": 11,
              "duration": 0.625
            },
            {
              "pitch": 63,
              "velocity": 120,
              "position": 11.666666666666666,
              "duration": 0.96875
            },
            {
              "pitch": 67,
              "velocity": 120,
              "position": 11.6875,
              "duration": 0.96875
            },
            {
              "pitch": 72,
              "velocity": 30,
              "position": 12.666666666666666,
              "duration": 0.2916666666666667
            },
            {
              "pitch": 66,
              "velocity": 59,
              "position": 13,
              "duration": 0.3125
            },
            {
              "pitch": 65,
              "velocity": 100,
              "position": 13.333333333333334,
              "duration": 0.3125
            },
            {
              "pitch": 63,
              "velocity": 86,
              "position": 13.666666666666666,
              "duration": 0.3125
            },
            {
              "pitch": 60,
              "velocity": 38,
              "position": 14,
              "duration": 0.6354166666666666
            },
            {
              "pitch": 65,
              "velocity": 100,
              "position": 14.666666666666666,
              "duration": 0.2916666666666667
            },
            {
              "pitch": 53,
              "velocity": 100,
              "position": 14.6875,
              "duration": 0.2916666666666667
            },
            {
              "pitch": 54,
              "velocity": 36,
              "position": 15,
              "duration": 0.625
            },
            {
              "pitch": 66,
              "velocity": 36,
              "position": 15.020833333333334,
              "duration": 0.625
            },
            {
              "pitch": 55,
              "velocity": 120,
              "position": 15.666666666666666,
              "duration": 0.9583333333333334
            },
            {
              "pitch": 67,
              "velocity": 120,
              "position": 15.6875,
              "duration": 0.9583333333333334
            },
            {
              "pitch": 55,
              "velocity": 27,
              "position": 16.666666666666668,
              "duration": 0.3125
            },
            {
              "pitch": 55,
              "velocity": 38,
              "position": 17,
              "duration": 0.6583333333333333
            },
            {
              "pitch": 55,
              "velocity": 86,
              "position": 17.666666666666668,
              "duration": 0.2916666666666667
            }
          ]
        }
      }
    },
    "Ending_C": {
      "type": "Ending_C",
      "sizeInBeats": 20,
      "channels": {
        "1": {
          "ctab": {
            "srcChannel": 1,
            "name": "BassSFX",
            "accType": "BASS",
            "editable": false,
            "mutedNotes": [],
            "mutedChords": [],
            "autoStart": false,
            "sourceChordNote": 0,
            "sourceChordType": "Maj7",
            "ctb2Low": null,
            "ctb2Main": {
              "ntr": "ROOT_FIXED",
              "ntt": "BYPASS",
              "bassOn": false,
              "chordRootUpperLimit": 10,
              "noteLowLimit": 0,
              "noteHighLimit": 127,
              "rtr": "PITCH_SHIFT"
            },
            "ctb2High": null
          },
          "notes": [
            {
              "pitch": 100,
              "velocity": 100,
              "position": 7.666666666666667,
              "duration": 2.34375
            },
            {
              "pitch": 96,
              "velocity": 100,
              "position": 12,
              "duration": 0.6770833333333334
            }
          ]
        },
        "2": {
          "ctab": {
            "srcChannel": 2,
            "name": "BassMAJ",
            "accType": "BASS",
            "editable": false,
            "mutedNotes": [],
            "mutedChords": [
              "dim7",
              "dim",
              "minMaj7(9)",
              "minMaj7",
              "min7(11)",
              "min7(9)",
              "min(9)",
              "m7b5",
              "min7",
              "min6",
              "min"
            ],
            "autoStart": false,
            "sourceChordNote": 0,
            "sourceChordType": "Maj",
            "ctb2Low": null,
            "ctb2Main": {
              "ntr": "ROOT_TRANSPOSITION",
              "ntt": "BYPASS",
              "bassOn": false,
              "chordRootUpperLimit": 10,
              "noteLowLimit": 28,
              "noteHighLimit": 127,
              "rtr": "PITCH_SHIFT"
            },
            "ctb2High": null
          },
          "notes": [
            {
              "pitch": 24,
              "velocity": 70,
              "position": 0,
              "duration": 0.65625
            },
            {
              "pitch": 24,
              "velocity": 100,
              "position": 0.6666666666666666,
              "duration": 0.3229166666666667
            },
            {
              "pitch": 28,
              "velocity": 60,
              "position": 1,
              "duration": 0.8020833333333334
            },
            {
              "pitch": 31,
              "velocity": 70,
              "position": 2,
              "duration": 0.8020833333333334
            },
            {
              "pitch": 33,
              "velocity": 60,
              "position": 3,
              "duration": 0.65625
            },
            {
              "pitch": 29,
              "velocity": 70,
              "position": 3.6666666666666665,
              "duration": 0.9895833333333334
            },
            {
              "pitch": 29,
              "velocity": 100,
              "position": 4.666666666666667,
              "duration": 0.3229166666666667
            },
            {
              "pitch": 33,
              "velocity": 60,
              "position": 5,
              "duration": 0.8020833333333334
            },
            {
              "pitch": 34,
              "velocity": 70,
              "position": 6,
              "duration": 0.6458333333333334
            },
            {
              "pitch": 29,
              "velocity": 56,
              "position": 6.666666666666667,
              "duration": 0.3229166666666667
            },
            {
              "pitch": 35,
              "velocity": 60,
              "position": 7,
              "duration": 0.65625
            },
            {
              "pitch": 36,
              "velocity": 70,
              "position": 7.666666666666667,
              "duration": 0.65625
            },
            {
              "pitch": 36,
              "velocity": 58,
              "position": 12.666666666666666,
              "duration": 0.3229166666666667
            },
            {
              "pitch": 24,
              "velocity": 61,
              "position": 13,
              "duration": 0.6354166666666666
            },
            {
              "pitch": 24,
              "velocity": 65,
              "position": 13.666666666666666,
              "duration": 5.322916666666667
            },
            {
              "pitch": 24,
              "velocity": 97,
              "position": 19,
              "duration": 0.3020833333333333
            }
          ]
        },
        "3": {
          "ctab": {
            "srcChannel": 3,
            "name": "BassMIN",
            "accType": "BASS",
            "editable": false,
            "mutedNotes": [],
            "mutedChords": [
              "1+2+5",
              "sus4",
              "1+5",
              "1+8",
              "7aug",
              "Maj7aug",
              "7(#9)",
              "7(b13)",
              "7(b9)",
              "7(13)",
              "7#11",
              "7(9)",
              "7b5",
              "7sus4",
              "7th",
              "aug",
              "Maj6(9)",
              "Maj7(9)",
              "Maj(9)",
              "Maj7#11",
              "Maj7",
              "Maj6",
              "Maj"
            ],
            "autoStart": false,
            "sourceChordNote": 0,
            "sourceChordType": "min",
            "ctb2Low": null,
            "ctb2Main": {
              "ntr": "ROOT_TRANSPOSITION",
              "ntt": "BYPASS",
              "bassOn": false,
              "chordRootUpperLimit": 2,
              "noteLowLimit": 28,
              "noteHighLimit": 127,
              "rtr": "PITCH_SHIFT"
            },
            "ctb2High": null
          },
          "notes": [
            {
              "pitch": 36,
              "velocity": 70,
              "position": 0,
              "duration": 0.65625
            },
            {
              "pitch": 36,
              "velocity": 100,
              "position": 0.6666666666666666,
              "duration": 0.3229166666666667
            },
            {
              "pitch": 39,
              "velocity": 60,
              "position": 1,
              "duration": 0.8020833333333334
            },
            {
              "pitch": 43,
              "velocity": 70,
              "position": 2,
              "duration": 0.6458333333333334
            },
            {
              "pitch": 36,
              "velocity": 56,
              "position": 2.6666666666666665,
              "duration": 0.3229166666666667
            },
            {
              "pitch": 42,
              "velocity": 60,
              "position": 3,
              "duration": 0.65625
            },
            {
              "pitch": 41,
              "velocity": 70,
              "position": 3.6666666666666665,
              "duration": 0.9895833333333334
            },
            {
              "pitch": 41,
              "velocity": 100,
              "position": 4.666666666666667,
              "duration": 0.3229166666666667
            },
            {
              "pitch": 33,
              "velocity": 60,
              "position": 5,
              "duration": 0.8020833333333334
            },
            {
              "pitch": 34,
              "velocity": 70,
              "position": 6,
              "duration": 0.6458333333333334
            },
            {
              "pitch": 46,
              "velocity": 56,
              "position": 6.666666666666667,
              "duration": 0.3229166666666667
            },
            {
              "pitch": 36,
              "velocity": 60,
              "position": 7,
              "duration": 0.65625
            },
            {
              "pitch": 36,
              "velocity": 70,
              "position": 7.666666666666667,
              "duration": 0.65625
            },
            {
              "pitch": 36,
              "velocity": 58,
              "position": 12.666666666666666,
              "duration": 0.3229166666666667
            },
            {
              "pitch": 24,
              "velocity": 61,
              "position": 13,
              "duration": 0.6354166666666666
            },
            {
              "pitch": 24,
              "velocity": 65,
              "position": 13.666666666666666,
              "duration": 5.322916666666667
            },
            {
              "pitch": 24,
              "velocity": 97,
              "position": 19,
              "duration": 0.3020833333333333
            }
          ]
        },
        "6": {
          "ctab": {
            "srcChannel": 6,
            "name": "OrganMAJ",
            "accType": "PAD",
            "editable": false,
            "mutedNotes": [],
            "mutedChords": [
              "dim7",
              "dim",
              "minMaj7(9)",
              "minMaj7",
              "min7(11)",
              "min7(9)",
              "min(9)",
              "m7b5",
              "min7",
              "min6",
              "min"
            ],
            "autoStart": false,
            "sourceChordNote": 0,
            "sourceChordType": "Maj",
            "ctb2Low": null,
            "ctb2Main": {
              "ntr": "ROOT_TRANSPOSITION",
              "ntt": "BYPASS",
              "bassOn": false,
              "chordRootUpperLimit": 7,
              "noteLowLimit": 66,
              "noteHighLimit": 77,
              "rtr": "PITCH_SHIFT"
            },
            "ctb2High": null
          },
          "notes": [
            {
              "pitch": 67,
              "velocity": 96,
              "position": 0,
              "duration": 3.65625
            },
            {
              "pitch": 69,
              "velocity": 96,
              "position": 0,
              "duration": 3.65625
            },
            {
              "pitch": 72,
              "velocity": 96,
              "position": 0,
              "duration": 3.65625
            },
            {
              "pitch": 76,
              "velocity": 96,
              "position": 0,
              "duration": 3.65625
            },
            {
              "pitch": 65,
              "velocity": 96,
              "position": 3.6666666666666665,
              "duration": 3.9895833333333335
            },
            {
              "pitch": 69,
              "velocity": 96,
              "position": 3.6666666666666665,
              "duration": 3.9895833333333335
            },
            {
              "pitch": 72,
              "velocity": 96,
              "position": 3.6666666666666665,
              "duration": 3.9895833333333335
            },
            {
              "pitch": 75,
              "velocity": 96,
              "position": 3.6666666666666665,
              "duration": 3.9895833333333335
            },
            {
              "pitch": 67,
              "velocity": 96,
              "position": 7.666666666666667,
              "duration": 0.3229166666666667
            },
            {
              "pitch": 69,
              "velocity": 96,
              "position": 7.666666666666667,
              "duration": 0.3229166666666667
            },
            {
              "pitch": 72,
              "velocity": 96,
              "position": 7.666666666666667,
              "duration": 0.3229166666666667
            },
            {
              "pitch": 76,
              "velocity": 96,
              "position": 7.666666666666667,
              "duration": 0.3229166666666667
            },
            {
              "pitch": 71,
              "velocity": 96,
              "position": 13,
              "duration": 0.6041666666666666
            },
            {
              "pitch": 77,
              "velocity": 96,
              "position": 13,
              "duration": 0.6041666666666666
            },
            {
              "pitch": 67,
              "velocity": 96,
              "position": 13.666666666666666,
              "duration": 5.270833333333333
            },
            {
              "pitch": 70,
              "velocity": 96,
              "position": 13.666666666666666,
              "duration": 5.270833333333333
            },
            {
              "pitch": 72,
              "velocity": 96,
              "position": 13.666666666666666,
              "duration": 5.270833333333333
            },
            {
              "pitch": 76,
              "velocity": 96,
              "position": 13.666666666666666,
              "duration": 5.270833333333333
            }
          ]
        },
        "7": {
          "ctab": {
            "srcChannel": 7,
            "name": "OrganMIN",
            "accType": "PAD",
            "editable": false,
            "mutedNotes": [],
            "mutedChords": [
              "1+2+5",
              "sus4",
              "1+5",
              "1+8",
              "7aug",
              "Maj7aug",
              "7(#9)",
              "7(b13)",
              "7(b9)",
              "7(13)",
              "7#11",
              "7(9)",
              "7b5",
              "7sus4",
              "7th",
              "aug",
              "Maj6(9)",
              "Maj7(9)",
              "Maj(9)",
              "Maj7#11",
              "Maj7",
              "Maj6",
              "Maj"
            ],
            "autoStart": false,
            "sourceChordNote": 0,
            "sourceChordType": "min",
            "ctb2Low": null,
            "ctb2Main": {
              "ntr": "ROOT_TRANSPOSITION",
              "ntt": "BYPASS",
              "bassOn": false,
              "chordRootUpperLimit": 7,
              "noteLowLimit": 66,
              "noteHighLimit": 77,
              "rtr": "PITCH_SHIFT"
            },
            "ctb2High": null
          },
          "notes": [
            {
              "pitch": 67,
              "velocity": 90,
              "position": 0,
              "duration": 3.65625
            },
            {
              "pitch": 72,
              "velocity": 90,
              "position": 0,
              "duration": 3.65625
            },
            {
              "pitch": 75,
              "velocity": 90,
              "position": 0,
              "duration": 3.65625
            },
            {
              "pitch": 70,
              "velocity": 90,
              "position": 2,
              "duration": 1.65625
            },
            {
              "pitch": 65,
              "velocity": 90,
              "position": 3.6666666666666665,
              "duration": 3.9895833333333335
            },
            {
              "pitch": 69,
              "velocity": 90,
              "position": 3.6666666666666665,
              "duration": 3.9895833333333335
            },
            {
              "pitch": 72,
              "velocity": 90,
              "position": 3.6666666666666665,
              "duration": 3.9895833333333335
            },
            {
              "pitch": 75,
              "velocity": 90,
              "position": 3.6666666666666665,
              "duration": 3.9895833333333335
            },
            {
              "pitch": 67,
              "velocity": 90,
              "position": 7.666666666666667,
              "duration": 0.3229166666666667
            },
            {
              "pitch": 70,
              "velocity": 90,
              "position": 7.666666666666667,
              "duration": 0.3229166666666667
            },
            {
              "pitch": 72,
              "velocity": 90,
              "position": 7.666666666666667,
              "duration": 0.3229166666666667
            },
            {
              "pitch": 75,
              "velocity": 90,
              "position": 7.666666666666667,
              "duration": 0.3229166666666667
            },
            {
              "pitch": 70,
              "velocity": 90,
              "position": 13,
              "duration": 0.6041666666666666
            },
            {
              "pitch": 77,
              "velocity": 90,
              "position": 13,
              "duration": 0.6041666666666666
            },
            {
              "pitch": 67,
              "velocity": 90,
              "position": 13.666666666666666,
              "duration": 5.270833333333333
            },
            {
              "pitch": 70,
              "velocity": 90,
              "position": 13.666666666666666,
              "duration": 5.270833333333333
            },
            {
              "pitch": 72,
              "velocity": 90,
              "position": 13.666666666666666,
              "duration": 5.270833333333333
            },
            {
              "pitch": 75,
              "velocity": 90,
              "position": 13.666666666666666,
              "duration": 5.270833333333333
            }
          ]
        },
        "8": {
          "ctab": {
            "srcChannel": 8,
            "name": "Perc",
            "accType": "SUBRHYTHM",
            "editable": false,
            "mutedNotes": [],
            "mutedChords": [],
            "autoStart": true,
            "sourceChordNote": 0,
            "sourceChordType": "Maj7",
            "ctb2Low": null,
            "ctb2Main": {
              "ntr": "ROOT_FIXED",
              "ntt": "BYPASS",
              "bassOn": false,
              "chordRootUpperLimit": 6,
              "noteLowLimit": 0,
              "noteHighLimit": 127,
              "rtr": "PITCH_SHIFT"
            },
            "ctb2High": null
          },
          "notes": [
            {
              "pitch": 54,
              "velocity": 60,
              "position": 0,
              "duration": 0.010416666666666666
            },
            {
              "pitch": 54,
              "velocity": 14,
              "position": 0.6875,
              "duration": 0.010416666666666666
            },
            {
              "pitch": 39,
              "velocity": 94,
              "position": 1,
              "duration": 0.010416666666666666
            },
            {
              "pitch": 54,
              "velocity": 105,
              "position": 1,
              "duration": 0.010416666666666666
            },
            {
              "pitch": 54,
              "velocity": 14,
              "position": 1.6875,
              "duration": 0.010416666666666666
            },
            {
              "pitch": 54,
              "velocity": 60,
              "position": 2,
              "duration": 0.010416666666666666
            },
            {
              "pitch": 54,
              "velocity": 14,
              "position": 2.6875,
              "duration": 0.010416666666666666
            },
            {
              "pitch": 39,
              "velocity": 94,
              "position": 3,
              "duration": 0.010416666666666666
            },
            {
              "pitch": 54,
              "velocity": 105,
              "position": 3,
              "duration": 0.010416666666666666
            },
            {
              "pitch": 54,
              "velocity": 14,
              "position": 3.6875,
              "duration": 0.010416666666666666
            },
            {
              "pitch": 54,
              "velocity": 60,
              "position": 4,
              "duration": 0.010416666666666666
            },
            {
              "pitch": 54,
              "velocity": 14,
              "position": 4.6875,
              "duration": 0.010416666666666666
            },
            {
              "pitch": 39,
              "velocity": 94,
              "position": 5,
              "duration": 0.010416666666666666
            },
            {
              "pitch": 54,
              "velocity": 105,
              "position": 5,
              "duration": 0.010416666666666666
            },
            {
              "pitch": 54,
              "velocity": 14,
              "position": 5.6875,
              "duration": 0.010416666666666666
            },
            {
              "pitch": 54,
              "velocity": 60,
              "position": 6,
              "duration": 0.010416666666666666
            },
            {
              "pitch": 54,
              "velocity": 14,
              "position": 6.6875,
              "duration": 0.010416666666666666
            },
            {
              "pitch": 39,
              "velocity": 94,
              "position": 7,
              "duration": 0.010416666666666666
            },
            {
              "pitch": 54,
              "velocity": 105,
              "position": 7,
              "duration": 0.010416666666666666
            },
            {
              "pitch": 54,
              "velocity": 104,
              "position": 7.6875,
              "duration": 0.010416666666666666
            }
          ]
        },
        "9": {
          "ctab": {
            "srcChannel": 9,
            "name": "Rhyth2",
            "accType": "RHYTHM",
            "editable": false,
            "mutedNotes": [],
            "mutedChords": [],
            "autoStart": true,
            "sourceChordNote": 0,
            "sourceChordType": "Maj7",
            "ctb2Low": null,
            "ctb2Main": {
              "ntr": "ROOT_FIXED",
              "ntt": "BYPASS",
              "bassOn": false,
              "chordRootUpperLimit": 6,
              "noteLowLimit": 0,
              "noteHighLimit": 127,
              "rtr": "PITCH_SHIFT"
            },
            "ctb2High": null
          },
          "notes": [
            {
              "pitch": 36,
              "velocity": 80,
              "position": 0,
              "duration": 0.010416666666666666
            },
            {
              "pitch": 49,
              "velocity": 68,
              "position": 0,
              "duration": 0.010416666666666666
            },
            {
              "pitch": 40,
              "velocity": 21,
              "position": 0.6875,
              "duration": 0.010416666666666666
            },
            {
              "pitch": 40,
              "velocity": 80,
              "position": 1,
              "duration": 0.010416666666666666
            },
            {
              "pitch": 51,
              "velocity": 93,
              "position": 1,
              "duration": 0.010416666666666666
            },
            {
              "pitch": 40,
              "velocity": 21,
              "position": 1.6875,
              "duration": 0.010416666666666666
            },
            {
              "pitch": 51,
              "velocity": 30,
              "position": 1.6875,
              "duration": 0.010416666666666666
            },
            {
              "pitch": 36,
              "velocity": 80,
              "position": 2,
              "duration": 0.010416666666666666
            },
            {
              "pitch": 40,
              "velocity": 45,
              "position": 2,
              "duration": 0.010416666666666666
            },
            {
              "pitch": 51,
              "velocity": 72,
              "position": 2,
              "duration": 0.010416666666666666
            },
            {
              "pitch": 40,
              "velocity": 55,
              "position": 2.6875,
              "duration": 0.010416666666666666
            },
            {
              "pitch": 40,
              "velocity": 80,
              "position": 3,
              "duration": 0.010416666666666666
            },
            {
              "pitch": 51,
              "velocity": 93,
              "position": 3,
              "duration": 0.010416666666666666
            },
            {
              "pitch": 36,
              "velocity": 80,
              "position": 3.6666666666666665,
              "duration": 0.010416666666666666
            },
            {
              "pitch": 49,
              "velocity": 68,
              "position": 3.6666666666666665,
              "duration": 0.010416666666666666
            },
            {
              "pitch": 40,
              "velocity": 21,
              "position": 3.6875,
              "duration": 0.010416666666666666
            },
            {
              "pitch": 51,
              "velocity": 72,
              "position": 4,
              "duration": 0.010416666666666666
            },
            {
              "pitch": 40,
              "velocity": 21,
              "position": 4.6875,
              "duration": 0.010416666666666666
            },
            {
              "pitch": 40,
              "velocity": 80,
              "position": 5,
              "duration": 0.010416666666666666
            },
            {
              "pitch": 51,
              "velocity": 93,
              "position": 5,
              "duration": 0.010416666666666666
            },
            {
              "pitch": 40,
              "velocity": 21,
              "position": 5.6875,
              "duration": 0.010416666666666666
            },
            {
              "pitch": 51,
              "velocity": 30,
              "position": 5.6875,
              "duration": 0.010416666666666666
            },
            {
              "pitch": 36,
              "velocity": 80,
              "position": 6,
              "duration": 0.010416666666666666
            },
            {
              "pitch": 40,
              "velocity": 45,
              "position": 6,
              "duration": 0.010416666666666666
            },
            {
              "pitch": 51,
              "velocity": 72,
              "position": 6,
              "duration": 0.010416666666666666
            },
            {
              "pitch": 40,
              "velocity": 49,
              "position": 6.6875,
              "duration": 0.010416666666666666
            },
            {
              "pitch": 40,
              "velocity": 80,
              "position": 7,
              "duration": 0.010416666666666666
            },
            {
              "pitch": 51,
              "velocity": 93,
              "position": 7,
              "duration": 0.010416666666666666
            },
            {
              "pitch": 36,
              "velocity": 80,
              "position": 7.666666666666667,
              "duration": 0.010416666666666666
            },
            {
              "pitch": 40,
              "velocity": 77,
              "position": 7.6875,
              "duration": 0.010416666666666666
            },
            {
              "pitch": 42,
              "velocity": 92,
              "position": 7.6875,
              "duration": 0.010416666666666666
            },
            {
              "pitch": 44,
              "velocity": 71,
              "position": 9,
              "duration": 0.010416666666666666
            },
            {
              "pitch": 40,
              "velocity": 12,
              "position": 9.333333333333334,
              "duration": 0.010416666666666666
            },
            {
              "pitch": 40,
              "velocity": 16,
              "position": 9.666666666666666,
              "duration": 0.010416666666666666
            },
            {
              "pitch": 40,
              "velocity": 43,
              "position": 10,
              "duration": 0.010416666666666666
            },
            {
              "pitch": 40,
              "velocity": 24,
              "position": 10.333333333333334,
              "duration": 0.010416666666666666
            },
            {
              "pitch": 40,
              "velocity": 28,
              "position": 10.666666666666666,
              "duration": 0.010416666666666666
            },
            {
              "pitch": 40,
              "velocity": 54,
              "position": 11,
              "duration": 0.010416666666666666
            },
            {
              "pitch": 44,
              "velocity": 67,
              "position": 11,
              "duration": 0.010416666666666666
            },
            {
              "pitch": 40,
              "velocity": 36,
              "position": 11.333333333333334,
              "duration": 0.010416666666666666
            },
            {
              "pitch": 40,
              "velocity": 40,
              "position": 11.666666666666666,
              "duration": 0.010416666666666666
            },
            {
              "pitch": 40,
              "velocity": 44,
              "position": 12,
              "duration": 0.010416666666666666
            },
            {
              "pitch": 40,
              "velocity": 48,
              "position": 12.333333333333334,
              "duration": 0.010416666666666666
            },
            {
              "pitch": 40,
              "velocity": 50,
              "position": 12.666666666666666,
              "duration": 0.010416666666666666
            },
            {
              "pitch": 36,
              "velocity": 80,
              "position": 13,
              "duration": 0.010416666666666666
            },
            {
              "pitch": 49,
              "velocity": 78,
              "position": 13,
              "duration": 0.010416666666666666
            },
            {
              "pitch": 36,
              "velocity": 80,
              "position": 13.666666666666666,
              "duration": 0.010416666666666666
            },
            {
              "pitch": 57,
              "velocity": 70,
              "position": 13.666666666666666,
              "duration": 0.010416666666666666
            }
          ]
        },
        "11": {
          "ctab": {
            "srcChannel": 11,
            "name": "Guit SFX",
            "accType": "CHORD1",
            "editable": false,
            "mutedNotes": [],
            "mutedChords": [],
            "autoStart": false,
            "sourceChordNote": 0,
            "sourceChordType": "Maj7",
            "ctb2Low": null,
            "ctb2Main": {
              "ntr": "ROOT_FIXED",
              "ntt": "BYPASS",
              "bassOn": false,
              "chordRootUpperLimit": 7,
              "noteLowLimit": 0,
              "noteHighLimit": 79,
              "rtr": "PITCH_SHIFT"
            },
            "ctb2High": null
          },
          "notes": [
            {
              "pitch": 123,
              "velocity": 80,
              "position": 2.9479166666666665,
              "duration": 0.65625
            },
            {
              "pitch": 120,
              "velocity": 80,
              "position": 6.989583333333333,
              "duration": 0.65625
            },
            {
              "pitch": 124,
              "velocity": 80,
              "position": 12,
              "duration": 0.65625
            }
          ]
        },
        "12": {
          "ctab": {
            "srcChannel": 12,
            "name": "GuitMAJ",
            "accType": "CHORD1",
            "editable": false,
            "mutedNotes": [],
            "mutedChords": [
              "dim7",
              "dim",
              "minMaj7(9)",
              "minMaj7",
              "min7(11)",
              "min7(9)",
              "min(9)",
              "m7b5",
              "min7",
              "min6",
              "min"
            ],
            "autoStart": false,
            "sourceChordNote": 0,
            "sourceChordType": "Maj",
            "ctb2Low": null,
            "ctb2Main": {
              "ntr": "ROOT_TRANSPOSITION",
              "ntt": "BYPASS",
              "bassOn": false,
              "chordRootUpperLimit": 7,
              "noteLowLimit": 0,
              "noteHighLimit": 127,
              "rtr": "PITCH_SHIFT"
            },
            "ctb2High": null
          },
          "notes": [
            {
              "pitch": 57,
              "velocity": 37,
              "position": 1,
              "duration": 0.6458333333333334
            },
            {
              "pitch": 55,
              "velocity": 29,
              "position": 1.6666666666666667,
              "duration": 0.2916666666666667
            },
            {
              "pitch": 64,
              "velocity": 119,
              "position": 0.6666666666666666,
              "duration": 1.3020833333333333
            },
            {
              "pitch": 60,
              "velocity": 119,
              "position": 0.6666666666666666,
              "duration": 1.3229166666666667
            },
            {
              "pitch": 57,
              "velocity": 37,
              "position": 2,
              "duration": 0.6458333333333334
            },
            {
              "pitch": 60,
              "velocity": 86,
              "position": 2.6666666666666665,
              "duration": 0.2916666666666667
            },
            {
              "pitch": 63,
              "velocity": 120,
              "position": 3.6666666666666665,
              "duration": 0.9270833333333334
            },
            {
              "pitch": 60,
              "velocity": 120,
              "position": 3.6666666666666665,
              "duration": 0.96875
            },
            {
              "pitch": 57,
              "velocity": 53,
              "position": 3.6666666666666665,
              "duration": 1.2604166666666667
            },
            {
              "pitch": 60,
              "velocity": 100,
              "position": 4.666666666666667,
              "duration": 0.2916666666666667
            },
            {
              "pitch": 63,
              "velocity": 100,
              "position": 4.666666666666667,
              "duration": 0.2916666666666667
            },
            {
              "pitch": 57,
              "velocity": 37,
              "position": 5,
              "duration": 0.6458333333333334
            },
            {
              "pitch": 55,
              "velocity": 29,
              "position": 5.666666666666667,
              "duration": 0.2916666666666667
            },
            {
              "pitch": 57,
              "velocity": 60,
              "position": 6,
              "duration": 0.6458333333333334
            },
            {
              "pitch": 60,
              "velocity": 27,
              "position": 6.666666666666667,
              "duration": 0.2916666666666667
            },
            {
              "pitch": 64,
              "velocity": 59,
              "position": 7.666666666666667,
              "duration": 0.3020833333333333
            },
            {
              "pitch": 60,
              "velocity": 59,
              "position": 7.666666666666667,
              "duration": 0.3229166666666667
            },
            {
              "pitch": 72,
              "velocity": 30,
              "position": 8.666666666666666,
              "duration": 0.2916666666666667
            },
            {
              "pitch": 66,
              "velocity": 60,
              "position": 9,
              "duration": 0.3125
            },
            {
              "pitch": 65,
              "velocity": 86,
              "position": 9.333333333333334,
              "duration": 0.3125
            },
            {
              "pitch": 63,
              "velocity": 100,
              "position": 9.666666666666666,
              "duration": 0.3125
            },
            {
              "pitch": 60,
              "velocity": 56,
              "position": 10,
              "duration": 0.6354166666666666
            },
            {
              "pitch": 55,
              "velocity": 89,
              "position": 10.666666666666666,
              "duration": 0.2916666666666667
            },
            {
              "pitch": 58,
              "velocity": 36,
              "position": 11.020833333333334,
              "duration": 0.625
            },
            {
              "pitch": 60,
              "velocity": 100,
              "position": 11.6875,
              "duration": 0.34375
            },
            {
              "pitch": 55,
              "velocity": 27,
              "position": 12.666666666666666,
              "duration": 0.3125
            },
            {
              "pitch": 59,
              "velocity": 58,
              "position": 13,
              "duration": 0.625
            },
            {
              "pitch": 65,
              "velocity": 58,
              "position": 13,
              "duration": 0.625
            },
            {
              "pitch": 58,
              "velocity": 120,
              "position": 13.666666666666666,
              "duration": 5.291666666666667
            },
            {
              "pitch": 64,
              "velocity": 120,
              "position": 13.666666666666666,
              "duration": 5.291666666666667
            }
          ]
        },
        "13": {
          "ctab": {
            "srcChannel": 13,
            "name": "GuitMIN",
            "accType": "CHORD1",
            "editable": false,
            "mutedNotes": [],
            "mutedChords": [
              "1+2+5",
              "sus4",
              "1+5",
              "1+8",
              "7aug",
              "Maj7aug",
              "7(#9)",
              "7(b13)",
              "7(b9)",
              "7(13)",
              "7#11",
              "7(9)",
              "7b5",
              "7sus4",
              "7th",
              "aug",
              "Maj6(9)",
              "Maj7(9)",
              "Maj(9)",
              "Maj7#11",
              "Maj7",
              "Maj6",
              "Maj"
            ],
            "autoStart": false,
            "sourceChordNote": 0,
            "sourceChordType": "min",
            "ctb2Low": null,
            "ctb2Main": {
              "ntr": "ROOT_TRANSPOSITION",
              "ntt": "BYPASS",
              "bassOn": false,
              "chordRootUpperLimit": 5,
              "noteLowLimit": 0,
              "noteHighLimit": 127,
              "rtr": "PITCH_SHIFT"
            },
            "ctb2High": null
          },
          "notes": [
            {
              "pitch": 58,
              "velocity": 120,
              "position": 0.6666666666666666,
              "duration": 0.9895833333333334
            },
            {
              "pitch": 63,
              "velocity": 120,
              "position": 0.6666666666666666,
              "duration": 1.3020833333333333
            },
            {
              "pitch": 58,
              "velocity": 38,
              "position": 1.6666666666666667,
              "duration": 0.34375
            },
            {
              "pitch": 60,
              "velocity": 104,
              "position": 2,
              "duration": 0.6458333333333334
            },
            {
              "pitch": 58,
              "velocity": 86,
              "position": 2.6666666666666665,
              "duration": 0.2916666666666667
            },
            {
              "pitch": 60,
              "velocity": 58,
              "position": 3,
              "duration": 0.625
            },
            {
              "pitch": 63,
              "velocity": 120,
              "position": 3.6666666666666665,
              "duration": 0.9270833333333334
            },
            {
              "pitch": 57,
              "velocity": 120,
              "position": 3.6666666666666665,
              "duration": 0.96875
            },
            {
              "pitch": 63,
              "velocity": 102,
              "position": 4.666666666666667,
              "duration": 0.2916666666666667
            },
            {
              "pitch": 60,
              "velocity": 37,
              "position": 5,
              "duration": 0.6458333333333334
            },
            {
              "pitch": 58,
              "velocity": 38,
              "position": 5.666666666666667,
              "duration": 0.375
            },
            {
              "pitch": 60,
              "velocity": 104,
              "position": 6,
              "duration": 0.6458333333333334
            },
            {
              "pitch": 55,
              "velocity": 88,
              "position": 6.666666666666667,
              "duration": 0.2916666666666667
            },
            {
              "pitch": 58,
              "velocity": 26,
              "position": 7,
              "duration": 0.2916666666666667
            },
            {
              "pitch": 60,
              "velocity": 59,
              "position": 7.666666666666667,
              "duration": 0.3020833333333333
            },
            {
              "pitch": 55,
              "velocity": 59,
              "position": 7.666666666666667,
              "duration": 0.3229166666666667
            },
            {
              "pitch": 72,
              "velocity": 30,
              "position": 8.666666666666666,
              "duration": 0.2916666666666667
            },
            {
              "pitch": 66,
              "velocity": 60,
              "position": 9,
              "duration": 0.3125
            },
            {
              "pitch": 65,
              "velocity": 89,
              "position": 9.333333333333334,
              "duration": 0.3125
            },
            {
              "pitch": 63,
              "velocity": 96,
              "position": 9.666666666666666,
              "duration": 0.3125
            },
            {
              "pitch": 60,
              "velocity": 56,
              "position": 10,
              "duration": 0.6354166666666666
            },
            {
              "pitch": 55,
              "velocity": 89,
              "position": 10.666666666666666,
              "duration": 0.2916666666666667
            },
            {
              "pitch": 58,
              "velocity": 36,
              "position": 11.020833333333334,
              "duration": 0.625
            },
            {
              "pitch": 60,
              "velocity": 38,
              "position": 11.6875,
              "duration": 0.34375
            },
            {
              "pitch": 55,
              "velocity": 27,
              "position": 12.666666666666666,
              "duration": 0.3125
            },
            {
              "pitch": 60,
              "velocity": 56,
              "position": 13,
              "duration": 0.625
            },
            {
              "pitch": 65,
              "velocity": 56,
              "position": 13,
              "duration": 0.625
            },
            {
              "pitch": 58,
              "velocity": 120,
              "position": 13.666666666666666,
              "duration": 5.291666666666667
            },
            {
              "pitch": 63,
              "velocity": 120,
              "position": 13.666666666666666,
              "duration": 5.291666666666667
            }
          ]
        }
      }
    },
    "Ending_B": {
      "type": "Ending_B",
      "sizeInBeats": 8,
      "channels": {
        "2": {
          "ctab": {
            "srcChannel": 2,
            "name": "BassMAJ",
            "accType": "BASS",
            "editable": false,
            "mutedNotes": [],
            "mutedChords": [
              "dim7",
              "dim",
              "minMaj7(9)",
              "minMaj7",
              "min7(11)",
              "min7(9)",
              "min(9)",
              "m7b5",
              "min7",
              "min6",
              "min"
            ],
            "autoStart": false,
            "sourceChordNote": 0,
            "sourceChordType": "Maj",
            "ctb2Low": null,
            "ctb2Main": {
              "ntr": "ROOT_TRANSPOSITION",
              "ntt": "BYPASS",
              "bassOn": false,
              "chordRootUpperLimit": 0,
              "noteLowLimit": 28,
              "noteHighLimit": 127,
              "rtr": "PITCH_SHIFT"
            },
            "ctb2High": null
          },
          "notes": [
            {
              "pitch": 36,
              "velocity": 70,
              "position": 0,
              "duration": 0.6583333333333333
            },
            {
              "pitch": 48,
              "velocity": 50,
              "position": 0.6666666666666666,
              "duration": 0.325
            },
            {
              "pitch": 46,
              "velocity": 60,
              "position": 1,
              "duration": 0.8333333333333334
            },
            {
              "pitch": 45,
              "velocity": 70,
              "position": 2,
              "duration": 0.6458333333333334
            },
            {
              "pitch": 33,
              "velocity": 50,
              "position": 2.6666666666666665,
              "duration": 0.325
            },
            {
              "pitch": 26,
              "velocity": 59,
              "position": 3,
              "duration": 0.8333333333333334
            },
            {
              "pitch": 26,
              "velocity": 70,
              "position": 4,
              "duration": 0.6458333333333334
            },
            {
              "pitch": 26,
              "velocity": 50,
              "position": 4.666666666666667,
              "duration": 0.325
            },
            {
              "pitch": 31,
              "velocity": 70,
              "position": 5,
              "duration": 0.6583333333333333
            },
            {
              "pitch": 24,
              "velocity": 70,
              "position": 5.666666666666667,
              "duration": 1.4166666666666667
            }
          ]
        },
        "3": {
          "ctab": {
            "srcChannel": 3,
            "name": "BassMIN",
            "accType": "BASS",
            "editable": false,
            "mutedNotes": [],
            "mutedChords": [
              "1+2+5",
              "sus4",
              "1+5",
              "1+8",
              "7aug",
              "Maj7aug",
              "7(#9)",
              "7(b13)",
              "7(b9)",
              "7(13)",
              "7#11",
              "7(9)",
              "7b5",
              "7sus4",
              "7th",
              "aug",
              "Maj6(9)",
              "Maj7(9)",
              "Maj(9)",
              "Maj7#11",
              "Maj7",
              "Maj6",
              "Maj"
            ],
            "autoStart": false,
            "sourceChordNote": 0,
            "sourceChordType": "min",
            "ctb2Low": null,
            "ctb2Main": {
              "ntr": "ROOT_TRANSPOSITION",
              "ntt": "BYPASS",
              "bassOn": false,
              "chordRootUpperLimit": 3,
              "noteLowLimit": 28,
              "noteHighLimit": 127,
              "rtr": "PITCH_SHIFT"
            },
            "ctb2High": null
          },
          "notes": [
            {
              "pitch": 36,
              "velocity": 70,
              "position": 0,
              "duration": 0.6583333333333333
            },
            {
              "pitch": 48,
              "velocity": 50,
              "position": 0.6666666666666666,
              "duration": 0.325
            },
            {
              "pitch": 43,
              "velocity": 60,
              "position": 1,
              "duration": 0.8333333333333334
            },
            {
              "pitch": 39,
              "velocity": 70,
              "position": 2,
              "duration": 0.6458333333333334
            },
            {
              "pitch": 48,
              "velocity": 50,
              "position": 2.6666666666666665,
              "duration": 0.325
            },
            {
              "pitch": 36,
              "velocity": 59,
              "position": 3,
              "duration": 0.8333333333333334
            },
            {
              "pitch": 34,
              "velocity": 70,
              "position": 4,
              "duration": 0.6458333333333334
            },
            {
              "pitch": 34,
              "velocity": 97,
              "position": 4.666666666666667,
              "duration": 0.3125
            },
            {
              "pitch": 29,
              "velocity": 70,
              "position": 5,
              "duration": 0.6583333333333333
            },
            {
              "pitch": 36,
              "velocity": 70,
              "position": 5.666666666666667,
              "duration": 1.3020833333333333
            },
            {
              "pitch": 36,
              "velocity": 103,
              "position": 7,
              "duration": 0.3125
            }
          ]
        },
        "6": {
          "ctab": {
            "srcChannel": 6,
            "name": "OrganMAJ",
            "accType": "PAD",
            "editable": false,
            "mutedNotes": [],
            "mutedChords": [
              "dim7",
              "dim",
              "minMaj7(9)",
              "minMaj7",
              "min7(11)",
              "min7(9)",
              "min(9)",
              "m7b5",
              "min7",
              "min6",
              "min"
            ],
            "autoStart": false,
            "sourceChordNote": 0,
            "sourceChordType": "Maj",
            "ctb2Low": null,
            "ctb2Main": {
              "ntr": "ROOT_TRANSPOSITION",
              "ntt": "BYPASS",
              "bassOn": false,
              "chordRootUpperLimit": 7,
              "noteLowLimit": 66,
              "noteHighLimit": 77,
              "rtr": "PITCH_SHIFT"
            },
            "ctb2High": null
          },
          "notes": [
            {
              "pitch": 72,
              "velocity": 96,
              "position": 0,
              "duration": 2
            },
            {
              "pitch": 67,
              "velocity": 96,
              "position": 0,
              "duration": 4
            },
            {
              "pitch": 76,
              "velocity": 96,
              "position": 0,
              "duration": 4
            },
            {
              "pitch": 73,
              "velocity": 96,
              "position": 2,
              "duration": 2
            },
            {
              "pitch": 74,
              "velocity": 96,
              "position": 4,
              "duration": 0.9895833333333334
            },
            {
              "pitch": 66,
              "velocity": 96,
              "position": 4,
              "duration": 1
            },
            {
              "pitch": 69,
              "velocity": 96,
              "position": 2,
              "duration": 3
            },
            {
              "pitch": 72,
              "velocity": 96,
              "position": 4,
              "duration": 1
            },
            {
              "pitch": 67,
              "velocity": 96,
              "position": 5,
              "duration": 0.6458333333333334
            },
            {
              "pitch": 71,
              "velocity": 96,
              "position": 5,
              "duration": 0.6666666666666666
            },
            {
              "pitch": 74,
              "velocity": 96,
              "position": 5,
              "duration": 0.6666666666666666
            },
            {
              "pitch": 67,
              "velocity": 96,
              "position": 5.666666666666667,
              "duration": 1.3333333333333333
            },
            {
              "pitch": 72,
              "velocity": 96,
              "position": 5.666666666666667,
              "duration": 1.3333333333333333
            },
            {
              "pitch": 76,
              "velocity": 96,
              "position": 5.666666666666667,
              "duration": 1.3333333333333333
            }
          ]
        },
        "7": {
          "ctab": {
            "srcChannel": 7,
            "name": "OrganMIN",
            "accType": "PAD",
            "editable": false,
            "mutedNotes": [],
            "mutedChords": [
              "1+2+5",
              "sus4",
              "1+5",
              "1+8",
              "7aug",
              "Maj7aug",
              "7(#9)",
              "7(b13)",
              "7(b9)",
              "7(13)",
              "7#11",
              "7(9)",
              "7b5",
              "7sus4",
              "7th",
              "aug",
              "Maj6(9)",
              "Maj7(9)",
              "Maj(9)",
              "Maj7#11",
              "Maj7",
              "Maj6",
              "Maj"
            ],
            "autoStart": false,
            "sourceChordNote": 0,
            "sourceChordType": "min",
            "ctb2Low": null,
            "ctb2Main": {
              "ntr": "ROOT_TRANSPOSITION",
              "ntt": "BYPASS",
              "bassOn": false,
              "chordRootUpperLimit": 7,
              "noteLowLimit": 66,
              "noteHighLimit": 77,
              "rtr": "PITCH_SHIFT"
            },
            "ctb2High": null
          },
          "notes": [
            {
              "pitch": 72,
              "velocity": 90,
              "position": 0,
              "duration": 4
            },
            {
              "pitch": 75,
              "velocity": 90,
              "position": 0,
              "duration": 4
            },
            {
              "pitch": 71,
              "velocity": 90,
              "position": 4,
              "duration": 0.3333333333333333
            },
            {
              "pitch": 77,
              "velocity": 90,
              "position": 4,
              "duration": 0.3333333333333333
            },
            {
              "pitch": 67,
              "velocity": 90,
              "position": 5.666666666666667,
              "duration": 1.3333333333333333
            },
            {
              "pitch": 72,
              "velocity": 90,
              "position": 5.666666666666667,
              "duration": 1.3333333333333333
            },
            {
              "pitch": 75,
              "velocity": 90,
              "position": 5.666666666666667,
              "duration": 1.3333333333333333
            }
          ]
        },
        "8": {
          "ctab": {
            "srcChannel": 8,
            "name": "Perc",
            "accType": "SUBRHYTHM",
            "editable": false,
            "mutedNotes": [],
            "mutedChords": [],
            "autoStart": true,
            "sourceChordNote": 0,
            "sourceChordType": "Maj7",
            "ctb2Low": null,
            "ctb2Main": {
              "ntr": "ROOT_FIXED",
              "ntt": "BYPASS",
              "bassOn": false,
              "chordRootUpperLimit": 6,
              "noteLowLimit": 0,
              "noteHighLimit": 127,
              "rtr": "PITCH_SHIFT"
            },
            "ctb2High": null
          },
          "notes": [
            {
              "pitch": 54,
              "velocity": 60,
              "position": 0,
              "duration": 0.010416666666666666
            },
            {
              "pitch": 54,
              "velocity": 14,
              "position": 0.6875,
              "duration": 0.010416666666666666
            },
            {
              "pitch": 39,
              "velocity": 84,
              "position": 1,
              "duration": 0.010416666666666666
            },
            {
              "pitch": 54,
              "velocity": 105,
              "position": 1,
              "duration": 0.010416666666666666
            },
            {
              "pitch": 54,
              "velocity": 14,
              "position": 1.6875,
              "duration": 0.010416666666666666
            },
            {
              "pitch": 54,
              "velocity": 60,
              "position": 2,
              "duration": 0.010416666666666666
            },
            {
              "pitch": 54,
              "velocity": 14,
              "position": 2.6875,
              "duration": 0.010416666666666666
            },
            {
              "pitch": 39,
              "velocity": 84,
              "position": 3,
              "duration": 0.010416666666666666
            },
            {
              "pitch": 54,
              "velocity": 105,
              "position": 3,
              "duration": 0.010416666666666666
            },
            {
              "pitch": 54,
              "velocity": 14,
              "position": 3.6875,
              "duration": 0.010416666666666666
            },
            {
              "pitch": 54,
              "velocity": 60,
              "position": 4,
              "duration": 0.010416666666666666
            },
            {
              "pitch": 54,
              "velocity": 14,
              "position": 4.6875,
              "duration": 0.010416666666666666
            },
            {
              "pitch": 39,
              "velocity": 84,
              "position": 5,
              "duration": 0.010416666666666666
            },
            {
              "pitch": 54,
              "velocity": 100,
              "position": 5,
              "duration": 0.010416666666666666
            },
            {
              "pitch": 54,
              "velocity": 108,
              "position": 5.6875,
              "duration": 0.010416666666666666
            }
          ]
        },
        "9": {
          "ctab": {
            "srcChannel": 9,
            "name": "Rhyth2",
            "accType": "RHYTHM",
            "editable": false,
            "mutedNotes": [],
            "mutedChords": [],
            "autoStart": true,
            "sourceChordNote": 0,
            "sourceChordType": "Maj7",
            "ctb2Low": null,
            "ctb2Main": {
              "ntr": "ROOT_FIXED",
              "ntt": "BYPASS",
              "bassOn": false,
              "chordRootUpperLimit": 6,
              "noteLowLimit": 0,
              "noteHighLimit": 127,
              "rtr": "PITCH_SHIFT"
            },
            "ctb2High": null
          },
          "notes": [
            {
              "pitch": 36,
              "velocity": 80,
              "position": 0,
              "duration": 0.010416666666666666
            },
            {
              "pitch": 40,
              "velocity": 21,
              "position": 0.6875,
              "duration": 0.010416666666666666
            },
            {
              "pitch": 40,
              "velocity": 80,
              "position": 1,
              "duration": 0.010416666666666666
            },
            {
              "pitch": 40,
              "velocity": 21,
              "position": 1.6875,
              "duration": 0.010416666666666666
            },
            {
              "pitch": 36,
              "velocity": 80,
              "position": 2,
              "duration": 0.010416666666666666
            },
            {
              "pitch": 40,
              "velocity": 45,
              "position": 2,
              "duration": 0.010416666666666666
            },
            {
              "pitch": 40,
              "velocity": 21,
              "position": 2.6875,
              "duration": 0.010416666666666666
            },
            {
              "pitch": 40,
              "velocity": 80,
              "position": 3,
              "duration": 0.010416666666666666
            },
            {
              "pitch": 40,
              "velocity": 21,
              "position": 3.6875,
              "duration": 0.010416666666666666
            },
            {
              "pitch": 36,
              "velocity": 80,
              "position": 4,
              "duration": 0.010416666666666666
            },
            {
              "pitch": 40,
              "velocity": 45,
              "position": 4,
              "duration": 0.010416666666666666
            },
            {
              "pitch": 40,
              "velocity": 36,
              "position": 4.333333333333333,
              "duration": 0.010416666666666666
            },
            {
              "pitch": 40,
              "velocity": 56,
              "position": 4.6875,
              "duration": 0.010416666666666666
            },
            {
              "pitch": 40,
              "velocity": 80,
              "position": 5,
              "duration": 0.010416666666666666
            },
            {
              "pitch": 36,
              "velocity": 80,
              "position": 5.666666666666667,
              "duration": 0.010416666666666666
            },
            {
              "pitch": 49,
              "velocity": 58,
              "position": 5.666666666666667,
              "duration": 0.010416666666666666
            }
          ]
        },
        "11": {
          "ctab": {
            "srcChannel": 11,
            "name": "Guit SFX",
            "accType": "CHORD1",
            "editable": false,
            "mutedNotes": [],
            "mutedChords": [],
            "autoStart": false,
            "sourceChordNote": 0,
            "sourceChordType": "Maj7",
            "ctb2Low": null,
            "ctb2Main": {
              "ntr": "ROOT_FIXED",
              "ntt": "BYPASS",
              "bassOn": false,
              "chordRootUpperLimit": 7,
              "noteLowLimit": 0,
              "noteHighLimit": 79,
              "rtr": "PITCH_SHIFT"
            },
            "ctb2High": null
          },
          "notes": [
            {
              "pitch": 108,
              "velocity": 80,
              "position": 0,
              "duration": 0.65625
            },
            {
              "pitch": 99,
              "velocity": 104,
              "position": 0.6666666666666666,
              "duration": 0.22916666666666666
            },
            {
              "pitch": 103,
              "velocity": 110,
              "position": 1.6666666666666667,
              "duration": 0.22916666666666666
            },
            {
              "pitch": 99,
              "velocity": 104,
              "position": 2.6666666666666665,
              "duration": 0.22916666666666666
            },
            {
              "pitch": 105,
              "velocity": 99,
              "position": 3.6666666666666665,
              "duration": 0.22916666666666666
            },
            {
              "pitch": 108,
              "velocity": 80,
              "position": 4,
              "duration": 0.65625
            },
            {
              "pitch": 99,
              "velocity": 110,
              "position": 4.666666666666667,
              "duration": 0.22916666666666666
            },
            {
              "pitch": 106,
              "velocity": 110,
              "position": 5.666666666666667,
              "duration": 0.22916666666666666
            },
            {
              "pitch": 96,
              "velocity": 59,
              "position": 7,
              "duration": 0.3229166666666667
            }
          ]
        },
        "12": {
          "ctab": {
            "srcChannel": 12,
            "name": "GuitMAJ",
            "accType": "CHORD1",
            "editable": false,
            "mutedNotes": [],
            "mutedChords": [
              "dim7",
              "dim",
              "minMaj7(9)",
              "minMaj7",
              "min7(11)",
              "min7(9)",
              "min(9)",
              "m7b5",
              "min7",
              "min6",
              "min"
            ],
            "autoStart": false,
            "sourceChordNote": 0,
            "sourceChordType": "Maj",
            "ctb2Low": null,
            "ctb2Main": {
              "ntr": "ROOT_TRANSPOSITION",
              "ntt": "BYPASS",
              "bassOn": false,
              "chordRootUpperLimit": 7,
              "noteLowLimit": 54,
              "noteHighLimit": 65,
              "rtr": "PITCH_SHIFT"
            },
            "ctb2High": null
          },
          "notes": [
            {
              "pitch": 64,
              "velocity": 30,
              "position": 0.020833333333333332,
              "duration": 0.6354166666666666
            },
            {
              "pitch": 60,
              "velocity": 30,
              "position": 0.010416666666666666,
              "duration": 0.65625
            },
            {
              "pitch": 55,
              "velocity": 30,
              "position": 0,
              "duration": 0.6770833333333334
            },
            {
              "pitch": 64,
              "velocity": 36,
              "position": 0.6666666666666666,
              "duration": 0.20833333333333334
            },
            {
              "pitch": 60,
              "velocity": 36,
              "position": 0.6770833333333334,
              "duration": 0.20833333333333334
            },
            {
              "pitch": 55,
              "velocity": 36,
              "position": 0.6875,
              "duration": 0.20833333333333334
            },
            {
              "pitch": 64,
              "velocity": 30,
              "position": 1.6666666666666667,
              "duration": 0.20833333333333334
            },
            {
              "pitch": 61,
              "velocity": 30,
              "position": 1.6770833333333333,
              "duration": 0.20833333333333334
            },
            {
              "pitch": 55,
              "velocity": 30,
              "position": 1.6875,
              "duration": 0.20833333333333334
            },
            {
              "pitch": 64,
              "velocity": 118,
              "position": 2.6666666666666665,
              "duration": 0.9791666666666666
            },
            {
              "pitch": 61,
              "velocity": 118,
              "position": 2.6770833333333335,
              "duration": 0.96875
            },
            {
              "pitch": 55,
              "velocity": 118,
              "position": 2.6875,
              "duration": 0.9583333333333334
            },
            {
              "pitch": 55,
              "velocity": 26,
              "position": 3.6875,
              "duration": 0.3020833333333333
            },
            {
              "pitch": 57,
              "velocity": 33,
              "position": 3.6770833333333335,
              "duration": 0.3229166666666667
            },
            {
              "pitch": 61,
              "velocity": 26,
              "position": 3.6770833333333335,
              "duration": 0.3229166666666667
            },
            {
              "pitch": 64,
              "velocity": 26,
              "position": 3.6666666666666665,
              "duration": 0.34375
            },
            {
              "pitch": 62,
              "velocity": 30,
              "position": 4.020833333333333,
              "duration": 0.6354166666666666
            },
            {
              "pitch": 60,
              "velocity": 30,
              "position": 4.010416666666667,
              "duration": 0.65625
            },
            {
              "pitch": 54,
              "velocity": 30,
              "position": 4,
              "duration": 0.6770833333333334
            },
            {
              "pitch": 62,
              "velocity": 26,
              "position": 4.666666666666667,
              "duration": 0.3125
            },
            {
              "pitch": 60,
              "velocity": 26,
              "position": 4.677083333333333,
              "duration": 0.3020833333333333
            },
            {
              "pitch": 54,
              "velocity": 26,
              "position": 4.6875,
              "duration": 0.2916666666666667
            },
            {
              "pitch": 62,
              "velocity": 29,
              "position": 5.020833333333333,
              "duration": 0.6354166666666666
            },
            {
              "pitch": 59,
              "velocity": 29,
              "position": 5.010416666666667,
              "duration": 0.65625
            },
            {
              "pitch": 55,
              "velocity": 29,
              "position": 5,
              "duration": 0.6770833333333334
            },
            {
              "pitch": 64,
              "velocity": 37,
              "position": 5.666666666666667,
              "duration": 1.34375
            },
            {
              "pitch": 60,
              "velocity": 37,
              "position": 5.677083333333333,
              "duration": 1.34375
            },
            {
              "pitch": 55,
              "velocity": 37,
              "position": 5.6875,
              "duration": 1.34375
            }
          ]
        },
        "13": {
          "ctab": {
            "srcChannel": 13,
            "name": "GuitMIN",
            "accType": "CHORD1",
            "editable": false,
            "mutedNotes": [],
            "mutedChords": [
              "1+2+5",
              "sus4",
              "1+5",
              "1+8",
              "7aug",
              "Maj7aug",
              "7(#9)",
              "7(b13)",
              "7(b9)",
              "7(13)",
              "7#11",
              "7(9)",
              "7b5",
              "7sus4",
              "7th",
              "aug",
              "Maj6(9)",
              "Maj7(9)",
              "Maj(9)",
              "Maj7#11",
              "Maj7",
              "Maj6",
              "Maj"
            ],
            "autoStart": false,
            "sourceChordNote": 0,
            "sourceChordType": "min",
            "ctb2Low": null,
            "ctb2Main": {
              "ntr": "ROOT_TRANSPOSITION",
              "ntt": "BYPASS",
              "bassOn": false,
              "chordRootUpperLimit": 5,
              "noteLowLimit": 54,
              "noteHighLimit": 66,
              "rtr": "PITCH_SHIFT"
            },
            "ctb2High": null
          },
          "notes": [
            {
              "pitch": 63,
              "velocity": 30,
              "position": 0.020833333333333332,
              "duration": 0.6354166666666666
            },
            {
              "pitch": 60,
              "velocity": 30,
              "position": 0.010416666666666666,
              "duration": 0.65625
            },
            {
              "pitch": 55,
              "velocity": 30,
              "position": 0,
              "duration": 0.6770833333333334
            },
            {
              "pitch": 63,
              "velocity": 36,
              "position": 0.6666666666666666,
              "duration": 0.20833333333333334
            },
            {
              "pitch": 60,
              "velocity": 36,
              "position": 0.6770833333333334,
              "duration": 0.20833333333333334
            },
            {
              "pitch": 55,
              "velocity": 36,
              "position": 0.6875,
              "duration": 0.20833333333333334
            },
            {
              "pitch": 63,
              "velocity": 30,
              "position": 1.6666666666666667,
              "duration": 0.20833333333333334
            },
            {
              "pitch": 60,
              "velocity": 30,
              "position": 1.6770833333333333,
              "duration": 0.20833333333333334
            },
            {
              "pitch": 55,
              "velocity": 30,
              "position": 1.6875,
              "duration": 0.20833333333333334
            },
            {
              "pitch": 63,
              "velocity": 116,
              "position": 2.6666666666666665,
              "duration": 0.9791666666666666
            },
            {
              "pitch": 60,
              "velocity": 116,
              "position": 2.6770833333333335,
              "duration": 0.96875
            },
            {
              "pitch": 55,
              "velocity": 116,
              "position": 2.6875,
              "duration": 0.9583333333333334
            },
            {
              "pitch": 55,
              "velocity": 26,
              "position": 3.6875,
              "duration": 0.3020833333333333
            },
            {
              "pitch": 60,
              "velocity": 26,
              "position": 3.6770833333333335,
              "duration": 0.3229166666666667
            },
            {
              "pitch": 63,
              "velocity": 26,
              "position": 3.6666666666666665,
              "duration": 0.34375
            },
            {
              "pitch": 65,
              "velocity": 38,
              "position": 4.020833333333333,
              "duration": 0.3020833333333333
            },
            {
              "pitch": 62,
              "velocity": 38,
              "position": 4.010416666666667,
              "duration": 0.3229166666666667
            },
            {
              "pitch": 58,
              "velocity": 38,
              "position": 4,
              "duration": 0.34375
            },
            {
              "pitch": 65,
              "velocity": 29,
              "position": 5.020833333333333,
              "duration": 0.6354166666666666
            },
            {
              "pitch": 60,
              "velocity": 29,
              "position": 5.010416666666667,
              "duration": 0.65625
            },
            {
              "pitch": 57,
              "velocity": 29,
              "position": 5,
              "duration": 0.6770833333333334
            },
            {
              "pitch": 63,
              "velocity": 37,
              "position": 5.666666666666667,
              "duration": 1.34375
            },
            {
              "pitch": 60,
              "velocity": 37,
              "position": 5.677083333333333,
              "duration": 1.34375
            },
            {
              "pitch": 55,
              "velocity": 37,
              "position": 5.6875,
              "duration": 1.34375
            }
          ]
        }
      }
    }
  }
}