{
  "name": "KoolFunk.S306.STY",
  "tempo": 104,
  "timeSignature": "4/4",
  "ticksPerQuarter": 1920,
  "sffType": "SFF1",
  "division": "BINARY",
  "parts": {
    "Main_A": {
      "type": "Main_A",
      "sizeInBeats": 16,
      "channels": {
        "2": {
          "ctab": {
            "srcChannel": 2,
            "name": "Gt Root",
            "accType": "CHORD1",
            "editable": false,
            "mutedNotes": [],
            "mutedChords": [
              "1+2+5",
              "sus4",
              "1+5",
              "1+8",
              "Maj7aug",
              "dim",
              "minMaj7(9)",
              "minMaj7",
              "min6",
              "min",
              "aug",
              "Maj7(9)",
              "Maj7#11",
              "Maj7",
              "Maj6",
              "Maj"
            ],
            "autoStart": false,
            "sourceChordNote": 0,
            "sourceChordType": "Maj7",
            "ctb2Low": null,
            "ctb2Main": {
              "ntr": "ROOT_TRANSPOSITION",
              "ntt": "CHORD",
              "bassOn": false,
              "chordRootUpperLimit": 10,
              "noteLowLimit": 0,
              "noteHighLimit": 127,
              "rtr": "PITCH_SHIFT"
            },
            "ctb2High": null
          },
          "notes": [
            {
              "pitch": 60,
              "velocity": 30,
              "position": 0.010416666666666666,
              "duration": 3.7395833333333335
            },
            {
              "pitch": 60,
              "velocity": 30,
              "position": 4.010416666666667,
              "duration": 1.9895833333333333
            },
            {
              "pitch": 60,
              "velocity": 30,
              "position": 8.010416666666666,
              "duration": 3.7395833333333335
            },
            {
              "pitch": 60,
              "velocity": 30,
              "position": 12.010416666666666,
              "duration": 1.9895833333333333
            }
          ]
        },
        "3": {
          "ctab": {
            "srcChannel": 3,
            "name": "Gt",
            "accType": "CHORD1",
            "editable": false,
            "mutedNotes": [],
            "mutedChords": [],
            "autoStart": false,
            "sourceChordNote": 0,
            "sourceChordType": "Maj7",
            "ctb2Low": null,
            "ctb2Main": {
              "ntr": "ROOT_FIXED",
              "ntt": "CHORD",
              "bassOn": false,
              "chordRootUpperLimit": 7,
              "noteLowLimit": 0,
              "noteHighLimit": 79,
              "rtr": "PITCH_SHIFT"
            },
            "ctb2High": null
          },
          "notes": [
            {
              "pitch": 59,
              "velocity": 26,
              "position": 0.010416666666666666,
              "duration": 3.7395833333333335
            },
            {
              "pitch": 64,
              "velocity": 21,
              "position": 0.010416666666666666,
              "duration": 3.7395833333333335
            },
            {
              "pitch": 67,
              "velocity": 21,
              "position": 0.010416666666666666,
              "duration": 3.7395833333333335
            },
            {
              "pitch": 59,
              "velocity": 26,
              "position": 4.010416666666667,
              "duration": 1.9895833333333333
            },
            {
              "pitch": 64,
              "velocity": 21,
              "position": 4.010416666666667,
              "duration": 1.9895833333333333
            },
            {
              "pitch": 67,
              "velocity": 21,
              "position": 4.010416666666667,
              "duration": 1.9895833333333333
            },
            {
              "pitch": 67,
              "velocity": 32,
              "position": 6.3125,
              "duration": 0.17916666666666667
            },
            {
              "pitch": 106,
              "velocity": 74,
              "position": 6.270833333333333,
              "duration": 0.22083333333333333
            },
            {
              "pitch": 71,
              "velocity": 37,
              "position": 6.291666666666667,
              "duration": 0.22083333333333333
            },
            {
              "pitch": 76,
              "velocity": 34,
              "position": 6.270833333333333,
              "duration": 0.49166666666666664
            },
            {
              "pitch": 104,
              "velocity": 64,
              "position": 6.5,
              "duration": 0.2625
            },
            {
              "pitch": 71,
              "velocity": 22,
              "position": 6.520833333333333,
              "duration": 0.2625
            },
            {
              "pitch": 67,
              "velocity": 28,
              "position": 6.5,
              "duration": 0.49166666666666664
            },
            {
              "pitch": 107,
              "velocity": 74,
              "position": 6.770833333333333,
              "duration": 0.22083333333333333
            },
            {
              "pitch": 71,
              "velocity": 32,
              "position": 6.791666666666667,
              "duration": 0.22083333333333333
            },
            {
              "pitch": 76,
              "velocity": 36,
              "position": 6.770833333333333,
              "duration": 0.2625
            },
            {
              "pitch": 108,
              "velocity": 84,
              "position": 7,
              "duration": 0.21875
            },
            {
              "pitch": 67,
              "velocity": 44,
              "position": 7,
              "duration": 0.2625
            },
            {
              "pitch": 71,
              "velocity": 40,
              "position": 7.020833333333333,
              "duration": 0.2625
            },
            {
              "pitch": 76,
              "velocity": 39,
              "position": 7.041666666666667,
              "duration": 0.2625
            },
            {
              "pitch": 59,
              "velocity": 26,
              "position": 8.010416666666666,
              "duration": 3.7395833333333335
            },
            {
              "pitch": 64,
              "velocity": 21,
              "position": 8.010416666666666,
              "duration": 3.7395833333333335
            },
            {
              "pitch": 67,
              "velocity": 21,
              "position": 8.010416666666666,
              "duration": 3.7395833333333335
            },
            {
              "pitch": 59,
              "velocity": 26,
              "position": 12.010416666666666,
              "duration": 1.9895833333333333
            },
            {
              "pitch": 64,
              "velocity": 21,
              "position": 12.010416666666666,
              "duration": 1.9895833333333333
            },
            {
              "pitch": 67,
              "velocity": 21,
              "position": 12.010416666666666,
              "duration": 1.9895833333333333
            },
            {
              "pitch": 67,
              "velocity": 34,
              "position": 14.3125,
              "duration": 0.17916666666666667
            },
            {
              "pitch": 106,
              "velocity": 74,
              "position": 14.270833333333334,
              "duration": 0.22083333333333333
            },
            {
              "pitch": 71,
              "velocity": 34,
              "position": 14.291666666666666,
              "duration": 0.22083333333333333
            },
            {
              "pitch": 76,
              "velocity": 34,
              "position": 14.270833333333334,
              "duration": 0.49166666666666664
            },
            {
              "pitch": 104,
              "velocity": 64,
              "position": 14.5,
              "duration": 0.2625
            },
            {
              "pitch": 71,
              "velocity": 26,
              "position": 14.520833333333334,
              "duration": 0.2625
            },
            {
              "pitch": 67,
              "velocity": 26,
              "position": 14.5,
              "duration": 0.49166666666666664
            },
            {
              "pitch": 107,
              "velocity": 74,
              "position": 14.770833333333334,
              "duration": 0.22083333333333333
            },
            {
              "pitch": 71,
              "velocity": 34,
              "position": 14.791666666666666,
              "duration": 0.22083333333333333
            },
            {
              "pitch": 76,
              "velocity": 34,
              "position": 14.770833333333334,
              "duration": 0.2625
            },
            {
              "pitch": 67,
              "velocity": 42,
              "position": 15,
              "duration": 0.2625
            },
            {
              "pitch": 108,
              "velocity": 84,
              "position": 15,
              "duration": 0.2625
            },
            {
              "pitch": 71,
              "velocity": 42,
              "position": 15.020833333333334,
              "duration": 0.2625
            },
            {
              "pitch": 76,
              "velocity": 42,
              "position": 15.041666666666666,
              "duration": 0.2625
            },
            {
              "pitch": 107,
              "velocity": 74,
              "position": 15.270833333333334,
              "duration": 0.21875
            }
          ]
        },
        "5": {
          "ctab": {
            "srcChannel": 5,
            "name": "Brass",
            "accType": "PHRASE1",
            "editable": false,
            "mutedNotes": [],
            "mutedChords": [],
            "autoStart": false,
            "sourceChordNote": 0,
            "sourceChordType": "Maj7",
            "ctb2Low": null,
            "ctb2Main": {
              "ntr": "ROOT_TRANSPOSITION",
              "ntt": "MELODIC_MINOR_5",
              "bassOn": false,
              "chordRootUpperLimit": 5,
              "noteLowLimit": 0,
              "noteHighLimit": 127,
              "rtr": "PITCH_SHIFT"
            },
            "ctb2High": null
          },
          "notes": []
        },
        "7": {
          "ctab": {
            "srcChannel": 7,
            "name": "Hns",
            "accType": "PHRASE2",
            "editable": false,
            "mutedNotes": [],
            "mutedChords": [],
            "autoStart": false,
            "sourceChordNote": 0,
            "sourceChordType": "Maj7",
            "ctb2Low": null,
            "ctb2Main": {
              "ntr": "ROOT_TRANSPOSITION",
              "ntt": "MELODIC_MINOR_5",
              "bassOn": false,
              "chordRootUpperLimit": 10,
              "noteLowLimit": 0,
              "noteHighLimit": 127,
              "rtr": "PITCH_SHIFT"
            },
            "ctb2High": null
          },
          "notes": []
        },
        "8": {
          "ctab": {
            "srcChannel": 8,
            "name": "Perc.",
            "accType": "SUBRHYTHM",
            "editable": false,
            "mutedNotes": [],
            "mutedChords": [],
            "autoStart": true,
            "sourceChordNote": 0,
            "sourceChordType": "Maj7",
            "ctb2Low": null,
            "ctb2Main": {
              "ntr": "ROOT_FIXED",
              "ntt": "BYPASS",
              "bassOn": false,
              "chordRootUpperLimit": 6,
              "noteLowLimit": 0,
              "noteHighLimit": 127,
              "rtr": "PITCH_SHIFT"
            },
            "ctb2High": null
          },
          "notes": [
            {
              "pitch": 73,
              "velocity": 80,
              "position": 0.010416666666666666,
              "duration": 0.010416666666666666
            },
            {
              "pitch": 73,
              "velocity": 70,
              "position": 0.4979166666666667,
              "duration": 0.010416666666666666
            },
            {
              "pitch": 73,
              "velocity": 83,
              "position": 1.0020833333333334,
              "duration": 0.010416666666666666
            },
            {
              "pitch": 18,
              "velocity": 84,
              "position": 1.0208333333333333,
              "duration": 0.010416666666666666
            },
            {
              "pitch": 73,
              "velocity": 71,
              "position": 1.4958333333333333,
              "duration": 0.010416666666666666
            },
            {
              "pitch": 73,
              "velocity": 77,
              "position": 1.9958333333333333,
              "duration": 0.010416666666666666
            },
            {
              "pitch": 73,
              "velocity": 70,
              "position": 2.4854166666666666,
              "duration": 0.010416666666666666
            },
            {
              "pitch": 18,
              "velocity": 84,
              "position": 2.9770833333333333,
              "duration": 0.010416666666666666
            },
            {
              "pitch": 73,
              "velocity": 78,
              "position": 3.002083333333333,
              "duration": 0.010416666666666666
            },
            {
              "pitch": 73,
              "velocity": 70,
              "position": 3.5104166666666665,
              "duration": 0.010416666666666666
            },
            {
              "pitch": 73,
              "velocity": 77,
              "position": 4.010416666666667,
              "duration": 0.010416666666666666
            },
            {
              "pitch": 73,
              "velocity": 70,
              "position": 4.5,
              "duration": 0.010416666666666666
            },
            {
              "pitch": 18,
              "velocity": 84,
              "position": 4.997916666666667,
              "duration": 0.010416666666666666
            },
            {
              "pitch": 73,
              "velocity": 83,
              "position": 5.0125,
              "duration": 0.010416666666666666
            },
            {
              "pitch": 73,
              "velocity": 70,
              "position": 5.516666666666667,
              "duration": 0.010416666666666666
            },
            {
              "pitch": 73,
              "velocity": 79,
              "position": 6.008333333333334,
              "duration": 0.010416666666666666
            },
            {
              "pitch": 73,
              "velocity": 74,
              "position": 6.504166666666666,
              "duration": 0.010416666666666666
            },
            {
              "pitch": 18,
              "velocity": 84,
              "position": 6.977083333333334,
              "duration": 0.010416666666666666
            },
            {
              "pitch": 73,
              "velocity": 82,
              "position": 6.995833333333334,
              "duration": 0.010416666666666666
            },
            {
              "pitch": 73,
              "velocity": 70,
              "position": 7.489583333333333,
              "duration": 0.010416666666666666
            },
            {
              "pitch": 73,
              "velocity": 83,
              "position": 8.010416666666666,
              "duration": 0.010416666666666666
            },
            {
              "pitch": 73,
              "velocity": 72,
              "position": 8.497916666666667,
              "duration": 0.010416666666666666
            },
            {
              "pitch": 73,
              "velocity": 83,
              "position": 8.989583333333334,
              "duration": 0.010416666666666666
            },
            {
              "pitch": 18,
              "velocity": 84,
              "position": 9,
              "duration": 0.010416666666666666
            },
            {
              "pitch": 73,
              "velocity": 73,
              "position": 9.510416666666666,
              "duration": 0.010416666666666666
            },
            {
              "pitch": 73,
              "velocity": 80,
              "position": 10.004166666666666,
              "duration": 0.010416666666666666
            },
            {
              "pitch": 73,
              "velocity": 72,
              "position": 10.5,
              "duration": 0.010416666666666666
            },
            {
              "pitch": 73,
              "velocity": 77,
              "position": 11.0125,
              "duration": 0.010416666666666666
            },
            {
              "pitch": 18,
              "velocity": 84,
              "position": 11.01875,
              "duration": 0.010416666666666666
            },
            {
              "pitch": 73,
              "velocity": 70,
              "position": 11.502083333333333,
              "duration": 0.010416666666666666
            },
            {
              "pitch": 73,
              "velocity": 80,
              "position": 12.010416666666666,
              "duration": 0.010416666666666666
            },
            {
              "pitch": 73,
              "velocity": 70,
              "position": 12.489583333333334,
              "duration": 0.010416666666666666
            },
            {
              "pitch": 73,
              "velocity": 82,
              "position": 13.008333333333333,
              "duration": 0.010416666666666666
            },
            {
              "pitch": 18,
              "velocity": 84,
              "position": 13.016666666666667,
              "duration": 0.010416666666666666
            },
            {
              "pitch": 73,
              "velocity": 70,
              "position": 13.502083333333333,
              "duration": 0.010416666666666666
            },
            {
              "pitch": 73,
              "velocity": 82,
              "position": 14.00625,
              "duration": 0.010416666666666666
            },
            {
              "pitch": 73,
              "velocity": 71,
              "position": 14.508333333333333,
              "duration": 0.010416666666666666
            },
            {
              "pitch": 18,
              "velocity": 84,
              "position": 14.99375,
              "duration": 0.010416666666666666
            },
            {
              "pitch": 73,
              "velocity": 81,
              "position": 14.995833333333334,
              "duration": 0.010416666666666666
            },
            {
              "pitch": 73,
              "velocity": 70,
              "position": 15.510416666666666,
              "duration": 0.010416666666666666
            }
          ]
        },
        "9": {
          "ctab": {
            "srcChannel": 9,
            "name": "Drums",
            "accType": "RHYTHM",
            "editable": false,
            "mutedNotes": [],
            "mutedChords": [],
            "autoStart": true,
            "sourceChordNote": 0,
            "sourceChordType": "Maj7",
            "ctb2Low": null,
            "ctb2Main": {
              "ntr": "ROOT_FIXED",
              "ntt": "BYPASS",
              "bassOn": false,
              "chordRootUpperLimit": 6,
              "noteLowLimit": 0,
              "noteHighLimit": 127,
              "rtr": "PITCH_SHIFT"
            },
            "ctb2High": null
          },
          "notes": [
            {
              "pitch": 35,
              "velocity": 100,
              "position": 0,
              "duration": 0.010416666666666666
            },
            {
              "pitch": 42,
              "velocity": 63,
              "position": 0,
              "duration": 0.010416666666666666
            },
            {
              "pitch": 42,
              "velocity": 53,
              "position": 0.5020833333333333,
              "duration": 0.010416666666666666
            },
            {
              "pitch": 35,
              "velocity": 100,
              "position": 1,
              "duration": 0.010416666666666666
            },
            {
              "pitch": 38,
              "velocity": 105,
              "position": 1,
              "duration": 0.010416666666666666
            },
            {
              "pitch": 42,
              "velocity": 67,
              "position": 1.0020833333333334,
              "duration": 0.010416666666666666
            },
            {
              "pitch": 42,
              "velocity": 51,
              "position": 1.50625,
              "duration": 0.010416666666666666
            },
            {
              "pitch": 35,
              "velocity": 100,
              "position": 2,
              "duration": 0.010416666666666666
            },
            {
              "pitch": 42,
              "velocity": 60,
              "position": 2,
              "duration": 0.010416666666666666
            },
            {
              "pitch": 42,
              "velocity": 54,
              "position": 2.504166666666667,
              "duration": 0.010416666666666666
            },
            {
              "pitch": 35,
              "velocity": 100,
              "position": 3,
              "duration": 0.010416666666666666
            },
            {
              "pitch": 38,
              "velocity": 105,
              "position": 3,
              "duration": 0.010416666666666666
            },
            {
              "pitch": 42,
              "velocity": 61,
              "position": 3.0083333333333333,
              "duration": 0.010416666666666666
            },
            {
              "pitch": 42,
              "velocity": 56,
              "position": 3.497916666666667,
              "duration": 0.010416666666666666
            },
            {
              "pitch": 42,
              "velocity": 60,
              "position": 3.99375,
              "duration": 0.010416666666666666
            },
            {
              "pitch": 35,
              "velocity": 100,
              "position": 4,
              "duration": 0.010416666666666666
            },
            {
              "pitch": 42,
              "velocity": 57,
              "position": 4.504166666666666,
              "duration": 0.010416666666666666
            },
            {
              "pitch": 42,
              "velocity": 66,
              "position": 4.991666666666666,
              "duration": 0.010416666666666666
            },
            {
              "pitch": 35,
              "velocity": 100,
              "position": 5,
              "duration": 0.010416666666666666
            },
            {
              "pitch": 38,
              "velocity": 105,
              "position": 5,
              "duration": 0.010416666666666666
            },
            {
              "pitch": 42,
              "velocity": 55,
              "position": 5.502083333333333,
              "duration": 0.010416666666666666
            },
            {
              "pitch": 35,
              "velocity": 100,
              "position": 6,
              "duration": 0.010416666666666666
            },
            {
              "pitch": 42,
              "velocity": 63,
              "position": 6.004166666666666,
              "duration": 0.010416666666666666
            },
            {
              "pitch": 42,
              "velocity": 53,
              "position": 6.497916666666667,
              "duration": 0.010416666666666666
            },
            {
              "pitch": 35,
              "velocity": 100,
              "position": 7,
              "duration": 0.010416666666666666
            },
            {
              "pitch": 38,
              "velocity": 105,
              "position": 7,
              "duration": 0.010416666666666666
            },
            {
              "pitch": 42,
              "velocity": 65,
              "position": 7.008333333333334,
              "duration": 0.010416666666666666
            },
            {
              "pitch": 42,
              "velocity": 57,
              "position": 7.504166666666666,
              "duration": 0.010416666666666666
            },
            {
              "pitch": 35,
              "velocity": 100,
              "position": 8,
              "duration": 0.010416666666666666
            },
            {
              "pitch": 42,
              "velocity": 66,
              "position": 8.008333333333333,
              "duration": 0.010416666666666666
            },
            {
              "pitch": 42,
              "velocity": 51,
              "position": 8.50625,
              "duration": 0.010416666666666666
            },
            {
              "pitch": 35,
              "velocity": 100,
              "position": 9,
              "duration": 0.010416666666666666
            },
            {
              "pitch": 38,
              "velocity": 105,
              "position": 9,
              "duration": 0.010416666666666666
            },
            {
              "pitch": 42,
              "velocity": 66,
              "position": 9,
              "duration": 0.010416666666666666
            },
            {
              "pitch": 42,
              "velocity": 52,
              "position": 9.5,
              "duration": 0.010416666666666666
            },
            {
              "pitch": 35,
              "velocity": 100,
              "position": 10,
              "duration": 0.010416666666666666
            },
            {
              "pitch": 42,
              "velocity": 64,
              "position": 10.008333333333333,
              "duration": 0.010416666666666666
            },
            {
              "pitch": 42,
              "velocity": 52,
              "position": 10.508333333333333,
              "duration": 0.010416666666666666
            },
            {
              "pitch": 35,
              "velocity": 100,
              "position": 11,
              "duration": 0.010416666666666666
            },
            {
              "pitch": 38,
              "velocity": 105,
              "position": 11,
              "duration": 0.010416666666666666
            },
            {
              "pitch": 42,
              "velocity": 60,
              "position": 11.008333333333333,
              "duration": 0.010416666666666666
            },
            {
              "pitch": 42,
              "velocity": 49,
              "position": 11.491666666666667,
              "duration": 0.010416666666666666
            },
            {
              "pitch": 35,
              "velocity": 100,
              "position": 12,
              "duration": 0.010416666666666666
            },
            {
              "pitch": 42,
              "velocity": 63,
              "position": 12.002083333333333,
              "duration": 0.010416666666666666
            },
            {
              "pitch": 42,
              "velocity": 53,
              "position": 12.508333333333333,
              "duration": 0.010416666666666666
            },
            {
              "pitch": 42,
              "velocity": 66,
              "position": 12.991666666666667,
              "duration": 0.010416666666666666
            },
            {
              "pitch": 35,
              "velocity": 100,
              "position": 13,
              "duration": 0.010416666666666666
            },
            {
              "pitch": 38,
              "velocity": 105,
              "position": 13,
              "duration": 0.010416666666666666
            },
            {
              "pitch": 42,
              "velocity": 57,
              "position": 13.497916666666667,
              "duration": 0.010416666666666666
            },
            {
              "pitch": 42,
              "velocity": 66,
              "position": 13.99375,
              "duration": 0.010416666666666666
            },
            {
              "pitch": 35,
              "velocity": 100,
              "position": 14,
              "duration": 0.010416666666666666
            },
            {
              "pitch": 42,
              "velocity": 50,
              "position": 14.5,
              "duration": 0.010416666666666666
            },
            {
              "pitch": 35,
              "velocity": 100,
              "position": 15,
              "duration": 0.010416666666666666
            },
            {
              "pitch": 38,
              "velocity": 105,
              "position": 15,
              "duration": 0.010416666666666666
            },
            {
              "pitch": 42,
              "velocity": 64,
              "position": 15.008333333333333,
              "duration": 0.010416666666666666
            },
            {
              "pitch": 46,
              "velocity": 69,
              "position": 15.5,
              "duration": 0.010416666666666666
            }
          ]
        },
        "10": {
          "ctab": {
            "srcChannel": 10,
            "name": "Bass Maj",
            "accType": "BASS",
            "editable": false,
            "mutedNotes": [],
            "mutedChords": [
              "1+2+5",
              "sus4",
              "1+5",
              "1+8",
              "7aug",
              "Maj7aug",
              "7(#9)",
              "7(b13)",
              "7(b9)",
              "7(13)",
              "7#11",
              "7b5",
              "7sus4",
              "dim7",
              "dim",
              "minMaj7(9)",
              "minMaj7",
              "min7(11)",
              "min7(9)",
              "min(9)",
              "m7b5",
              "min7",
              "min6",
              "min",
              "aug",
              "Maj6(9)",
              "Maj7(9)",
              "Maj(9)",
              "Maj7#11",
              "Maj7",
              "Maj6"
            ],
            "autoStart": false,
            "sourceChordNote": 0,
            "sourceChordType": "7th",
            "ctb2Low": null,
            "ctb2Main": {
              "ntr": "ROOT_TRANSPOSITION",
              "ntt": "MELODIC_MINOR_5",
              "bassOn": true,
              "chordRootUpperLimit": 8,
              "noteLowLimit": 28,
              "noteHighLimit": 127,
              "rtr": "PITCH_SHIFT_TO_ROOT"
            },
            "ctb2High": null
          },
          "notes": [
            {
              "pitch": 24,
              "velocity": 70,
              "position": 0,
              "duration": 0.6354166666666666
            },
            {
              "pitch": 28,
              "velocity": 70,
              "position": 1,
              "duration": 0.6354166666666666
            },
            {
              "pitch": 31,
              "velocity": 70,
              "position": 2,
              "duration": 0.6354166666666666
            },
            {
              "pitch": 34,
              "velocity": 70,
              "position": 3,
              "duration": 0.7625
            },
            {
              "pitch": 31,
              "velocity": 70,
              "position": 4,
              "duration": 0.24166666666666667
            },
            {
              "pitch": 31,
              "velocity": 70,
              "position": 4.5,
              "duration": 0.24166666666666667
            },
            {
              "pitch": 34,
              "velocity": 70,
              "position": 5,
              "duration": 0.24166666666666667
            },
            {
              "pitch": 34,
              "velocity": 50,
              "position": 5.5,
              "duration": 0.175
            },
            {
              "pitch": 34,
              "velocity": 70,
              "position": 5.770833333333333,
              "duration": 0.24166666666666667
            },
            {
              "pitch": 24,
              "velocity": 70,
              "position": 8,
              "duration": 0.6354166666666666
            },
            {
              "pitch": 28,
              "velocity": 70,
              "position": 9,
              "duration": 0.6354166666666666
            },
            {
              "pitch": 31,
              "velocity": 70,
              "position": 10,
              "duration": 0.6354166666666666
            },
            {
              "pitch": 34,
              "velocity": 70,
              "position": 11,
              "duration": 0.7625
            },
            {
              "pitch": 31,
              "velocity": 70,
              "position": 12,
              "duration": 0.24166666666666667
            },
            {
              "pitch": 31,
              "velocity": 70,
              "position": 12.5,
              "duration": 0.24166666666666667
            },
            {
              "pitch": 34,
              "velocity": 70,
              "position": 13,
              "duration": 0.24166666666666667
            },
            {
              "pitch": 34,
              "velocity": 50,
              "position": 13.5,
              "duration": 0.175
            },
            {
              "pitch": 34,
              "velocity": 70,
              "position": 13.770833333333334,
              "duration": 0.24166666666666667
            }
          ]
        },
        "11": {
          "ctab": {
            "srcChannel": 11,
            "name": "Bass Min",
            "accType": "BASS",
            "editable": false,
            "mutedNotes": [],
            "mutedChords": [
              "1+2+5",
              "sus4",
              "1+5",
              "1+8",
              "7aug",
              "Maj7aug",
              "7(#9)",
              "7(b13)",
              "7(b9)",
              "7(13)",
              "7#11",
              "7(9)",
              "7b5",
              "7sus4",
              "7th",
              "dim7",
              "dim",
              "minMaj7(9)",
              "minMaj7",
              "min7(11)",
              "min(9)",
              "m7b5",
              "min6",
              "aug",
              "Maj6(9)",
              "Maj7(9)",
              "Maj(9)",
              "Maj7#11",
              "Maj7",
              "Maj6",
              "Maj"
            ],
            "autoStart": false,
            "sourceChordNote": 0,
            "sourceChordType": "min7",
            "ctb2Low": null,
            "ctb2Main": {
              "ntr": "ROOT_TRANSPOSITION",
              "ntt": "MELODIC_MINOR_5",
              "bassOn": true,
              "chordRootUpperLimit": 3,
              "noteLowLimit": 28,
              "noteHighLimit": 127,
              "rtr": "PITCH_SHIFT_TO_ROOT"
            },
            "ctb2High": null
          },
          "notes": [
            {
              "pitch": 36,
              "velocity": 70,
              "position": 0,
              "duration": 0.6354166666666666
            },
            {
              "pitch": 38,
              "velocity": 70,
              "position": 1,
              "duration": 0.6354166666666666
            },
            {
              "pitch": 39,
              "velocity": 70,
              "position": 2,
              "duration": 0.6354166666666666
            },
            {
              "pitch": 48,
              "velocity": 90,
              "position": 2.5,
              "duration": 0.2625
            },
            {
              "pitch": 43,
              "velocity": 70,
              "position": 3,
              "duration": 0.7625
            },
            {
              "pitch": 31,
              "velocity": 70,
              "position": 4,
              "duration": 0.24166666666666667
            },
            {
              "pitch": 31,
              "velocity": 70,
              "position": 4.5,
              "duration": 0.24166666666666667
            },
            {
              "pitch": 34,
              "velocity": 70,
              "position": 5,
              "duration": 0.24166666666666667
            },
            {
              "pitch": 34,
              "velocity": 50,
              "position": 5.5,
              "duration": 0.175
            },
            {
              "pitch": 34,
              "velocity": 70,
              "position": 5.770833333333333,
              "duration": 0.24166666666666667
            },
            {
              "pitch": 36,
              "velocity": 70,
              "position": 8,
              "duration": 0.6354166666666666
            },
            {
              "pitch": 38,
              "velocity": 70,
              "position": 9,
              "duration": 0.6354166666666666
            },
            {
              "pitch": 39,
              "velocity": 70,
              "position": 10,
              "duration": 0.6354166666666666
            },
            {
              "pitch": 48,
              "velocity": 90,
              "position": 10.5,
              "duration": 0.2625
            },
            {
              "pitch": 43,
              "velocity": 70,
              "position": 11,
              "duration": 0.7625
            },
            {
              "pitch": 31,
              "velocity": 70,
              "position": 12,
              "duration": 0.24166666666666667
            },
            {
              "pitch": 31,
              "velocity": 70,
              "position": 12.5,
              "duration": 0.24166666666666667
            },
            {
              "pitch": 34,
              "velocity": 70,
              "position": 13,
              "duration": 0.24166666666666667
            },
            {
              "pitch": 34,
              "velocity": 50,
              "position": 13.5,
              "duration": 0.175
            },
            {
              "pitch": 34,
              "velocity": 70,
              "position": 13.770833333333334,
              "duration": 0.24166666666666667
            }
          ]
        },
        "12": {
          "ctab": {
            "srcChannel": 12,
            "name": "Bass",
            "accType": "BASS",
            "editable": false,
            "mutedNotes": [],
            "mutedChords": [
              "7(9)",
              "7th",
              "min7(9)",
              "min7",
              "min",
              "Maj"
            ],
            "autoStart": false,
            "sourceChordNote": 0,
            "sourceChordType": "Maj7",
            "ctb2Low": null,
            "ctb2Main": {
              "ntr": "ROOT_TRANSPOSITION",
              "ntt": "MELODY",
              "bassOn": true,
              "chordRootUpperLimit": 8,
              "noteLowLimit": 28,
              "noteHighLimit": 127,
              "rtr": "PITCH_SHIFT_TO_ROOT"
            },
            "ctb2High": null
          },
          "notes": [
            {
              "pitch": 24,
              "velocity": 70,
              "position": 0,
              "duration": 0.6354166666666666
            },
            {
              "pitch": 24,
              "velocity": 70,
              "position": 1,
              "duration": 0.6354166666666666
            },
            {
              "pitch": 28,
              "velocity": 70,
              "position": 2,
              "duration": 0.6354166666666666
            },
            {
              "pitch": 31,
              "velocity": 70,
              "position": 3,
              "duration": 0.7625
            },
            {
              "pitch": 24,
              "velocity": 70,
              "position": 4,
              "duration": 0.24166666666666667
            },
            {
              "pitch": 24,
              "velocity": 70,
              "position": 4.5,
              "duration": 0.24166666666666667
            },
            {
              "pitch": 24,
              "velocity": 70,
              "position": 5,
              "duration": 0.24166666666666667
            },
            {
              "pitch": 24,
              "velocity": 50,
              "position": 5.5,
              "duration": 0.175
            },
            {
              "pitch": 24,
              "velocity": 70,
              "position": 5.770833333333333,
              "duration": 0.24166666666666667
            },
            {
              "pitch": 24,
              "velocity": 70,
              "position": 8,
              "duration": 0.6354166666666666
            },
            {
              "pitch": 24,
              "velocity": 70,
              "position": 9,
              "duration": 0.6354166666666666
            },
            {
              "pitch": 28,
              "velocity": 70,
              "position": 10,
              "duration": 0.6354166666666666
            },
            {
              "pitch": 31,
              "velocity": 70,
              "position": 11,
              "duration": 0.7625
            },
            {
              "pitch": 24,
              "velocity": 70,
              "position": 12,
              "duration": 0.24166666666666667
            },
            {
              "pitch": 24,
              "velocity": 70,
              "position": 12.5,
              "duration": 0.24166666666666667
            },
            {
              "pitch": 24,
              "velocity": 70,
              "position": 13,
              "duration": 0.24166666666666667
            },
            {
              "pitch": 24,
              "velocity": 50,
              "position": 13.5,
              "duration": 0.175
            },
            {
              "pitch": 24,
              "velocity": 70,
              "position": 13.770833333333334,
              "duration": 0.24166666666666667
            }
          ]
        },
        "13": {
          "ctab": {
            "srcChannel": 13,
            "name": "E.P 5th",
            "accType": "CHORD2",
            "editable": false,
            "mutedNotes": [],
            "mutedChords": [
              "1+2+5",
              "sus4",
              "1+5",
              "1+8",
              "7aug",
              "Maj7aug",
              "7(#9)",
              "7(b13)",
              "7(13)",
              "7#11",
              "7b5",
              "7sus4",
              "7th",
              "dim7",
              "dim",
              "minMaj7",
              "min(9)",
              "m7b5",
              "min7",
              "min",
              "aug",
              "Maj(9)",
              "Maj7#11",
              "Maj7",
              "Maj"
            ],
            "autoStart": false,
            "sourceChordNote": 0,
            "sourceChordType": "Maj7",
            "ctb2Low": null,
            "ctb2Main": {
              "ntr": "ROOT_TRANSPOSITION",
              "ntt": "MELODIC_MINOR_5",
              "bassOn": false,
              "chordRootUpperLimit": 10,
              "noteLowLimit": 0,
              "noteHighLimit": 127,
              "rtr": "PITCH_SHIFT"
            },
            "ctb2High": null
          },
          "notes": [
            {
              "pitch": 55,
              "velocity": 80,
              "position": 0.010416666666666666,
              "duration": 0.11875
            },
            {
              "pitch": 55,
              "velocity": 80,
              "position": 0.49375,
              "duration": 0.11666666666666667
            },
            {
              "pitch": 55,
              "velocity": 76,
              "position": 0.9895833333333334,
              "duration": 0.125
            },
            {
              "pitch": 55,
              "velocity": 79,
              "position": 1.4895833333333333,
              "duration": 0.10833333333333334
            },
            {
              "pitch": 55,
              "velocity": 78,
              "position": 1.99375,
              "duration": 0.14375
            },
            {
              "pitch": 55,
              "velocity": 80,
              "position": 2.5,
              "duration": 0.11041666666666666
            },
            {
              "pitch": 55,
              "velocity": 76,
              "position": 2.9916666666666667,
              "duration": 0.13125
            },
            {
              "pitch": 55,
              "velocity": 76,
              "position": 3.50625,
              "duration": 0.12291666666666666
            },
            {
              "pitch": 55,
              "velocity": 76,
              "position": 4.010416666666667,
              "duration": 0.12708333333333333
            },
            {
              "pitch": 55,
              "velocity": 80,
              "position": 4.50625,
              "duration": 0.10625
            },
            {
              "pitch": 55,
              "velocity": 78,
              "position": 4.991666666666666,
              "duration": 0.1375
            },
            {
              "pitch": 55,
              "velocity": 79,
              "position": 5.502083333333333,
              "duration": 0.13958333333333334
            },
            {
              "pitch": 55,
              "velocity": 76,
              "position": 5.995833333333334,
              "duration": 0.11458333333333333
            },
            {
              "pitch": 55,
              "velocity": 80,
              "position": 6.491666666666666,
              "duration": 0.14166666666666666
            },
            {
              "pitch": 55,
              "velocity": 76,
              "position": 6.99375,
              "duration": 0.14166666666666666
            },
            {
              "pitch": 55,
              "velocity": 76,
              "position": 7.497916666666667,
              "duration": 0.11458333333333333
            },
            {
              "pitch": 55,
              "velocity": 76,
              "position": 8.010416666666666,
              "duration": 0.13958333333333334
            },
            {
              "pitch": 55,
              "velocity": 80,
              "position": 8.497916666666667,
              "duration": 0.1375
            },
            {
              "pitch": 55,
              "velocity": 76,
              "position": 8.99375,
              "duration": 0.10833333333333334
            },
            {
              "pitch": 55,
              "velocity": 79,
              "position": 9.49375,
              "duration": 0.12916666666666668
            },
            {
              "pitch": 55,
              "velocity": 78,
              "position": 9.997916666666667,
              "duration": 0.12291666666666666
            },
            {
              "pitch": 55,
              "velocity": 76,
              "position": 10.504166666666666,
              "duration": 0.13125
            },
            {
              "pitch": 55,
              "velocity": 76,
              "position": 10.995833333333334,
              "duration": 0.1125
            },
            {
              "pitch": 55,
              "velocity": 76,
              "position": 11.489583333333334,
              "duration": 0.10416666666666667
            },
            {
              "pitch": 55,
              "velocity": 76,
              "position": 12.010416666666666,
              "duration": 0.11041666666666666
            },
            {
              "pitch": 55,
              "velocity": 76,
              "position": 12.491666666666667,
              "duration": 0.12708333333333333
            },
            {
              "pitch": 55,
              "velocity": 78,
              "position": 12.995833333333334,
              "duration": 0.11875
            },
            {
              "pitch": 55,
              "velocity": 79,
              "position": 13.50625,
              "duration": 0.12083333333333333
            },
            {
              "pitch": 55,
              "velocity": 76,
              "position": 14,
              "duration": 0.13541666666666666
            },
            {
              "pitch": 55,
              "velocity": 76,
              "position": 14.497916666666667,
              "duration": 0.12291666666666666
            },
            {
              "pitch": 55,
              "velocity": 76,
              "position": 14.997916666666667,
              "duration": 0.125
            },
            {
              "pitch": 55,
              "velocity": 76,
              "position": 15.497916666666667,
              "duration": 0.1125
            }
          ]
        },
        "14": {
          "ctab": {
            "srcChannel": 14,
            "name": "E.P rt",
            "accType": "CHORD2",
            "editable": false,
            "mutedNotes": [],
            "mutedChords": [
              "1+2+5",
              "sus4",
              "1+5",
              "1+8",
              "Maj7aug",
              "dim",
              "minMaj7(9)",
              "minMaj7",
              "min6",
              "min",
              "aug",
              "Maj7(9)",
              "Maj7#11",
              "Maj7",
              "Maj6",
              "Maj"
            ],
            "autoStart": false,
            "sourceChordNote": 0,
            "sourceChordType": "Maj7",
            "ctb2Low": null,
            "ctb2Main": {
              "ntr": "ROOT_TRANSPOSITION",
              "ntt": "MELODY",
              "bassOn": false,
              "chordRootUpperLimit": 6,
              "noteLowLimit": 0,
              "noteHighLimit": 127,
              "rtr": "PITCH_SHIFT"
            },
            "ctb2High": null
          },
          "notes": [
            {
              "pitch": 60,
              "velocity": 80,
              "position": 0.010416666666666666,
              "duration": 0.11875
            },
            {
              "pitch": 60,
              "velocity": 80,
              "position": 0.49375,
              "duration": 0.11666666666666667
            },
            {
              "pitch": 60,
              "velocity": 76,
              "position": 0.9895833333333334,
              "duration": 0.125
            },
            {
              "pitch": 60,
              "velocity": 79,
              "position": 1.4895833333333333,
              "duration": 0.10833333333333334
            },
            {
              "pitch": 60,
              "velocity": 78,
              "position": 1.99375,
              "duration": 0.14375
            },
            {
              "pitch": 60,
              "velocity": 80,
              "position": 2.5,
              "duration": 0.11041666666666666
            },
            {
              "pitch": 60,
              "velocity": 76,
              "position": 2.9916666666666667,
              "duration": 0.13125
            },
            {
              "pitch": 60,
              "velocity": 76,
              "position": 3.50625,
              "duration": 0.12291666666666666
            },
            {
              "pitch": 60,
              "velocity": 76,
              "position": 4.010416666666667,
              "duration": 0.12708333333333333
            },
            {
              "pitch": 60,
              "velocity": 80,
              "position": 4.50625,
              "duration": 0.10625
            },
            {
              "pitch": 60,
              "velocity": 78,
              "position": 4.991666666666666,
              "duration": 0.1375
            },
            {
              "pitch": 60,
              "velocity": 79,
              "position": 5.502083333333333,
              "duration": 0.13958333333333334
            },
            {
              "pitch": 60,
              "velocity": 76,
              "position": 5.995833333333334,
              "duration": 0.11458333333333333
            },
            {
              "pitch": 60,
              "velocity": 80,
              "position": 6.491666666666666,
              "duration": 0.14166666666666666
            },
            {
              "pitch": 60,
              "velocity": 76,
              "position": 6.99375,
              "duration": 0.14166666666666666
            },
            {
              "pitch": 60,
              "velocity": 76,
              "position": 7.497916666666667,
              "duration": 0.11458333333333333
            },
            {
              "pitch": 60,
              "velocity": 76,
              "position": 8.010416666666666,
              "duration": 0.13958333333333334
            },
            {
              "pitch": 60,
              "velocity": 80,
              "position": 8.497916666666667,
              "duration": 0.1375
            },
            {
              "pitch": 60,
              "velocity": 76,
              "position": 8.99375,
              "duration": 0.10833333333333334
            },
            {
              "pitch": 60,
              "velocity": 79,
              "position": 9.49375,
              "duration": 0.12916666666666668
            },
            {
              "pitch": 60,
              "velocity": 78,
              "position": 9.997916666666667,
              "duration": 0.12291666666666666
            },
            {
              "pitch": 60,
              "velocity": 76,
              "position": 10.504166666666666,
              "duration": 0.13125
            },
            {
              "pitch": 60,
              "velocity": 76,
              "position": 10.995833333333334,
              "duration": 0.1125
            },
            {
              "pitch": 60,
              "velocity": 76,
              "position": 11.489583333333334,
              "duration": 0.10416666666666667
            },
            {
              "pitch": 60,
              "velocity": 76,
              "position": 12.010416666666666,
              "duration": 0.11041666666666666
            },
            {
              "pitch": 60,
              "velocity": 76,
              "position": 12.491666666666667,
              "duration": 0.12708333333333333
            },
            {
              "pitch": 60,
              "velocity": 78,
              "position": 12.995833333333334,
              "duration": 0.11875
            },
            {
              "pitch": 60,
              "velocity": 79,
              "position": 13.50625,
              "duration": 0.12083333333333333
            },
            {
              "pitch": 60,
              "velocity": 76,
              "position": 14,
              "duration": 0.13541666666666666
            },
            {
              "pitch": 60,
              "velocity": 76,
              "position": 14.497916666666667,
              "duration": 0.12291666666666666
            },
            {
              "pitch": 60,
              "velocity": 76,
              "position": 14.997916666666667,
              "duration": 0.125
            },
            {
              "pitch": 60,
              "velocity": 76,
              "position": 15.497916666666667,
              "duration": 0.1125
            }
          ]
        },
        "15": {
          "ctab": {
            "srcChannel": 15,
            "name": "E.P",
            "accType": "CHORD2",
            "editable": false,
            "mutedNotes": [],
            "mutedChords": [],
            "autoStart": false,
            "sourceChordNote": 0,
            "sourceChordType": "Maj7",
            "ctb2Low": null,
            "ctb2Main": {
              "ntr": "ROOT_FIXED",
              "ntt": "CHORD",
              "bassOn": false,
              "chordRootUpperLimit": 7,
              "noteLowLimit": 0,
              "noteHighLimit": 127,
              "rtr": "PITCH_SHIFT"
            },
            "ctb2High": null
          },
          "notes": [
            {
              "pitch": 64,
              "velocity": 106,
              "position": 0.010416666666666666,
              "duration": 0.10833333333333334
            },
            {
              "pitch": 55,
              "velocity": 80,
              "position": 0.010416666666666666,
              "duration": 0.11875
            },
            {
              "pitch": 59,
              "velocity": 106,
              "position": 0.010416666666666666,
              "duration": 0.13541666666666666
            },
            {
              "pitch": 55,
              "velocity": 80,
              "position": 0.49375,
              "duration": 0.11666666666666667
            },
            {
              "pitch": 59,
              "velocity": 104,
              "position": 0.5,
              "duration": 0.12291666666666666
            },
            {
              "pitch": 64,
              "velocity": 106,
              "position": 0.5020833333333333,
              "duration": 0.12708333333333333
            },
            {
              "pitch": 59,
              "velocity": 106,
              "position": 0.9958333333333333,
              "duration": 0.11666666666666667
            },
            {
              "pitch": 55,
              "velocity": 76,
              "position": 0.9895833333333334,
              "duration": 0.125
            },
            {
              "pitch": 64,
              "velocity": 105,
              "position": 1.0041666666666667,
              "duration": 0.11875
            },
            {
              "pitch": 55,
              "velocity": 79,
              "position": 1.4895833333333333,
              "duration": 0.10833333333333334
            },
            {
              "pitch": 64,
              "velocity": 106,
              "position": 1.49375,
              "duration": 0.1125
            },
            {
              "pitch": 59,
              "velocity": 106,
              "position": 1.4958333333333333,
              "duration": 0.11875
            },
            {
              "pitch": 64,
              "velocity": 106,
              "position": 2.0083333333333333,
              "duration": 0.11666666666666667
            },
            {
              "pitch": 59,
              "velocity": 106,
              "position": 2.002083333333333,
              "duration": 0.12916666666666668
            },
            {
              "pitch": 55,
              "velocity": 78,
              "position": 1.99375,
              "duration": 0.14375
            },
            {
              "pitch": 59,
              "velocity": 106,
              "position": 2.495833333333333,
              "duration": 0.10416666666666667
            },
            {
              "pitch": 55,
              "velocity": 80,
              "position": 2.5,
              "duration": 0.11041666666666666
            },
            {
              "pitch": 64,
              "velocity": 104,
              "position": 2.4895833333333335,
              "duration": 0.12708333333333333
            },
            {
              "pitch": 64,
              "velocity": 106,
              "position": 2.997916666666667,
              "duration": 0.10416666666666667
            },
            {
              "pitch": 55,
              "velocity": 76,
              "position": 2.9916666666666667,
              "duration": 0.13125
            },
            {
              "pitch": 59,
              "velocity": 102,
              "position": 2.995833333333333,
              "duration": 0.12916666666666668
            },
            {
              "pitch": 64,
              "velocity": 106,
              "position": 3.4916666666666667,
              "duration": 0.12916666666666668
            },
            {
              "pitch": 59,
              "velocity": 106,
              "position": 3.5,
              "duration": 0.12291666666666666
            },
            {
              "pitch": 55,
              "velocity": 76,
              "position": 3.50625,
              "duration": 0.12291666666666666
            },
            {
              "pitch": 59,
              "velocity": 104,
              "position": 4.010416666666667,
              "duration": 0.12083333333333333
            },
            {
              "pitch": 64,
              "velocity": 106,
              "position": 4.010416666666667,
              "duration": 0.12291666666666666
            },
            {
              "pitch": 55,
              "velocity": 76,
              "position": 4.010416666666667,
              "duration": 0.12708333333333333
            },
            {
              "pitch": 55,
              "velocity": 80,
              "position": 4.50625,
              "duration": 0.10625
            },
            {
              "pitch": 59,
              "velocity": 103,
              "position": 4.491666666666666,
              "duration": 0.12708333333333333
            },
            {
              "pitch": 64,
              "velocity": 102,
              "position": 4.497916666666667,
              "duration": 0.125
            },
            {
              "pitch": 64,
              "velocity": 106,
              "position": 4.989583333333333,
              "duration": 0.13125
            },
            {
              "pitch": 55,
              "velocity": 78,
              "position": 4.991666666666666,
              "duration": 0.1375
            },
            {
              "pitch": 59,
              "velocity": 103,
              "position": 4.995833333333334,
              "duration": 0.14166666666666666
            },
            {
              "pitch": 64,
              "velocity": 102,
              "position": 5.508333333333334,
              "duration": 0.10625
            },
            {
              "pitch": 59,
              "velocity": 106,
              "position": 5.50625,
              "duration": 0.12291666666666666
            },
            {
              "pitch": 55,
              "velocity": 79,
              "position": 5.502083333333333,
              "duration": 0.13958333333333334
            },
            {
              "pitch": 55,
              "velocity": 76,
              "position": 5.995833333333334,
              "duration": 0.11458333333333333
            },
            {
              "pitch": 59,
              "velocity": 106,
              "position": 6.002083333333333,
              "duration": 0.1125
            },
            {
              "pitch": 64,
              "velocity": 106,
              "position": 5.99375,
              "duration": 0.13125
            },
            {
              "pitch": 59,
              "velocity": 106,
              "position": 6.50625,
              "duration": 0.11041666666666666
            },
            {
              "pitch": 64,
              "velocity": 106,
              "position": 6.504166666666666,
              "duration": 0.12083333333333333
            },
            {
              "pitch": 55,
              "velocity": 80,
              "position": 6.491666666666666,
              "duration": 0.14166666666666666
            },
            {
              "pitch": 59,
              "velocity": 105,
              "position": 6.995833333333334,
              "duration": 0.11458333333333333
            },
            {
              "pitch": 64,
              "velocity": 106,
              "position": 7.002083333333333,
              "duration": 0.11875
            },
            {
              "pitch": 55,
              "velocity": 76,
              "position": 6.99375,
              "duration": 0.14166666666666666
            },
            {
              "pitch": 55,
              "velocity": 76,
              "position": 7.497916666666667,
              "duration": 0.11458333333333333
            },
            {
              "pitch": 59,
              "velocity": 105,
              "position": 7.491666666666666,
              "duration": 0.125
            },
            {
              "pitch": 64,
              "velocity": 105,
              "position": 7.50625,
              "duration": 0.125
            },
            {
              "pitch": 59,
              "velocity": 106,
              "position": 8.010416666666666,
              "duration": 0.10416666666666667
            },
            {
              "pitch": 64,
              "velocity": 106,
              "position": 8.010416666666666,
              "duration": 0.1375
            },
            {
              "pitch": 55,
              "velocity": 76,
              "position": 8.010416666666666,
              "duration": 0.13958333333333334
            },
            {
              "pitch": 64,
              "velocity": 106,
              "position": 8.49375,
              "duration": 0.11666666666666667
            },
            {
              "pitch": 59,
              "velocity": 106,
              "position": 8.502083333333333,
              "duration": 0.13125
            },
            {
              "pitch": 55,
              "velocity": 80,
              "position": 8.497916666666667,
              "duration": 0.1375
            },
            {
              "pitch": 55,
              "velocity": 76,
              "position": 8.99375,
              "duration": 0.10833333333333334
            },
            {
              "pitch": 64,
              "velocity": 106,
              "position": 8.995833333333334,
              "duration": 0.10625
            },
            {
              "pitch": 59,
              "velocity": 106,
              "position": 8.995833333333334,
              "duration": 0.125
            },
            {
              "pitch": 55,
              "velocity": 79,
              "position": 9.49375,
              "duration": 0.12916666666666668
            },
            {
              "pitch": 59,
              "velocity": 105,
              "position": 9.497916666666667,
              "duration": 0.12708333333333333
            },
            {
              "pitch": 64,
              "velocity": 106,
              "position": 9.504166666666666,
              "duration": 0.14166666666666666
            },
            {
              "pitch": 64,
              "velocity": 106,
              "position": 10,
              "duration": 0.10416666666666667
            },
            {
              "pitch": 55,
              "velocity": 78,
              "position": 9.997916666666667,
              "duration": 0.12291666666666666
            },
            {
              "pitch": 59,
              "velocity": 104,
              "position": 10.004166666666666,
              "duration": 0.13541666666666666
            },
            {
              "pitch": 59,
              "velocity": 106,
              "position": 10.497916666666667,
              "duration": 0.1125
            },
            {
              "pitch": 64,
              "velocity": 106,
              "position": 10.5,
              "duration": 0.11458333333333333
            },
            {
              "pitch": 55,
              "velocity": 76,
              "position": 10.504166666666666,
              "duration": 0.13125
            },
            {
              "pitch": 55,
              "velocity": 76,
              "position": 10.995833333333334,
              "duration": 0.1125
            },
            {
              "pitch": 59,
              "velocity": 106,
              "position": 10.995833333333334,
              "duration": 0.13958333333333334
            },
            {
              "pitch": 64,
              "velocity": 102,
              "position": 11.008333333333333,
              "duration": 0.13125
            },
            {
              "pitch": 55,
              "velocity": 76,
              "position": 11.489583333333334,
              "duration": 0.10416666666666667
            },
            {
              "pitch": 64,
              "velocity": 106,
              "position": 11.502083333333333,
              "duration": 0.11875
            },
            {
              "pitch": 59,
              "velocity": 104,
              "position": 11.502083333333333,
              "duration": 0.12916666666666668
            },
            {
              "pitch": 55,
              "velocity": 76,
              "position": 12.010416666666666,
              "duration": 0.11041666666666666
            },
            {
              "pitch": 64,
              "velocity": 106,
              "position": 12.010416666666666,
              "duration": 0.11041666666666666
            },
            {
              "pitch": 59,
              "velocity": 106,
              "position": 12.010416666666666,
              "duration": 0.12916666666666668
            },
            {
              "pitch": 55,
              "velocity": 76,
              "position": 12.491666666666667,
              "duration": 0.12708333333333333
            },
            {
              "pitch": 64,
              "velocity": 104,
              "position": 12.508333333333333,
              "duration": 0.1125
            },
            {
              "pitch": 59,
              "velocity": 106,
              "position": 12.491666666666667,
              "duration": 0.13541666666666666
            },
            {
              "pitch": 59,
              "velocity": 106,
              "position": 12.995833333333334,
              "duration": 0.11041666666666666
            },
            {
              "pitch": 55,
              "velocity": 78,
              "position": 12.995833333333334,
              "duration": 0.11875
            },
            {
              "pitch": 64,
              "velocity": 106,
              "position": 13,
              "duration": 0.12083333333333333
            },
            {
              "pitch": 55,
              "velocity": 79,
              "position": 13.50625,
              "duration": 0.12083333333333333
            },
            {
              "pitch": 64,
              "velocity": 104,
              "position": 13.5,
              "duration": 0.13541666666666666
            },
            {
              "pitch": 59,
              "velocity": 103,
              "position": 13.50625,
              "duration": 0.13125
            },
            {
              "pitch": 64,
              "velocity": 102,
              "position": 14.004166666666666,
              "duration": 0.11875
            },
            {
              "pitch": 59,
              "velocity": 106,
              "position": 14.004166666666666,
              "duration": 0.12083333333333333
            },
            {
              "pitch": 55,
              "velocity": 76,
              "position": 14,
              "duration": 0.13541666666666666
            },
            {
              "pitch": 64,
              "velocity": 102,
              "position": 14.495833333333334,
              "duration": 0.11041666666666666
            },
            {
              "pitch": 55,
              "velocity": 76,
              "position": 14.497916666666667,
              "duration": 0.12291666666666666
            },
            {
              "pitch": 59,
              "velocity": 104,
              "position": 14.50625,
              "duration": 0.11875
            },
            {
              "pitch": 64,
              "velocity": 104,
              "position": 14.99375,
              "duration": 0.10833333333333334
            },
            {
              "pitch": 59,
              "velocity": 102,
              "position": 14.997916666666667,
              "duration": 0.12291666666666666
            },
            {
              "pitch": 55,
              "velocity": 76,
              "position": 14.997916666666667,
              "duration": 0.125
            },
            {
              "pitch": 64,
              "velocity": 106,
              "position": 15.497916666666667,
              "duration": 0.1125
            },
            {
              "pitch": 59,
              "velocity": 103,
              "position": 15.491666666666667,
              "duration": 0.13541666666666666
            },
            {
              "pitch": 55,
              "velocity": 76,
              "position": 15.502083333333333,
              "duration": 0.13541666666666666
            }
          ]
        }
      }
    },
    "Fill_In_AA": {
      "type": "Fill_In_AA",
      "sizeInBeats": 4,
      "channels": {
        "2": {
          "ctab": {
            "srcChannel": 2,
            "name": "Gt Root",
            "accType": "CHORD1",
            "editable": false,
            "mutedNotes": [],
            "mutedChords": [
              "1+2+5",
              "sus4",
              "1+5",
              "1+8",
              "Maj7aug",
              "dim",
              "minMaj7(9)",
              "minMaj7",
              "min6",
              "min",
              "aug",
              "Maj7(9)",
              "Maj7#11",
              "Maj7",
              "Maj6",
              "Maj"
            ],
            "autoStart": false,
            "sourceChordNote": 0,
            "sourceChordType": "Maj7",
            "ctb2Low": null,
            "ctb2Main": {
              "ntr": "ROOT_TRANSPOSITION",
              "ntt": "CHORD",
              "bassOn": false,
              "chordRootUpperLimit": 10,
              "noteLowLimit": 0,
              "noteHighLimit": 127,
              "rtr": "PITCH_SHIFT"
            },
            "ctb2High": null
          },
          "notes": [
            {
              "pitch": 60,
              "velocity": 30,
              "position": 0.010416666666666666,
              "duration": 1.9895833333333333
            }
          ]
        },
        "3": {
          "ctab": {
            "srcChannel": 3,
            "name": "Gt",
            "accType": "CHORD1",
            "editable": false,
            "mutedNotes": [],
            "mutedChords": [],
            "autoStart": false,
            "sourceChordNote": 0,
            "sourceChordType": "Maj7",
            "ctb2Low": null,
            "ctb2Main": {
              "ntr": "ROOT_FIXED",
              "ntt": "CHORD",
              "bassOn": false,
              "chordRootUpperLimit": 7,
              "noteLowLimit": 0,
              "noteHighLimit": 79,
              "rtr": "PITCH_SHIFT"
            },
            "ctb2High": null
          },
          "notes": [
            {
              "pitch": 59,
              "velocity": 26,
              "position": 0.010416666666666666,
              "duration": 1.9895833333333333
            },
            {
              "pitch": 64,
              "velocity": 21,
              "position": 0.010416666666666666,
              "duration": 1.9895833333333333
            },
            {
              "pitch": 67,
              "velocity": 21,
              "position": 0.010416666666666666,
              "duration": 1.9895833333333333
            },
            {
              "pitch": 106,
              "velocity": 74,
              "position": 2.2708333333333335,
              "duration": 0.21875
            },
            {
              "pitch": 67,
              "velocity": 34,
              "position": 2.3125,
              "duration": 0.17916666666666667
            },
            {
              "pitch": 71,
              "velocity": 34,
              "position": 2.2916666666666665,
              "duration": 0.22083333333333333
            },
            {
              "pitch": 76,
              "velocity": 34,
              "position": 2.2708333333333335,
              "duration": 0.49166666666666664
            },
            {
              "pitch": 104,
              "velocity": 64,
              "position": 2.5,
              "duration": 0.2625
            },
            {
              "pitch": 71,
              "velocity": 26,
              "position": 2.5208333333333335,
              "duration": 0.2625
            },
            {
              "pitch": 67,
              "velocity": 26,
              "position": 2.5,
              "duration": 0.49166666666666664
            },
            {
              "pitch": 107,
              "velocity": 74,
              "position": 2.7708333333333335,
              "duration": 0.22083333333333333
            },
            {
              "pitch": 71,
              "velocity": 34,
              "position": 2.7916666666666665,
              "duration": 0.22083333333333333
            },
            {
              "pitch": 76,
              "velocity": 34,
              "position": 2.7708333333333335,
              "duration": 0.2625
            },
            {
              "pitch": 108,
              "velocity": 84,
              "position": 3,
              "duration": 0.21875
            },
            {
              "pitch": 67,
              "velocity": 42,
              "position": 3,
              "duration": 0.2625
            },
            {
              "pitch": 71,
              "velocity": 42,
              "position": 3.0208333333333335,
              "duration": 0.2625
            },
            {
              "pitch": 76,
              "velocity": 42,
              "position": 3.0416666666666665,
              "duration": 0.2625
            }
          ]
        },
        "5": {
          "ctab": {
            "srcChannel": 5,
            "name": "Brass",
            "accType": "PHRASE1",
            "editable": false,
            "mutedNotes": [],
            "mutedChords": [],
            "autoStart": false,
            "sourceChordNote": 0,
            "sourceChordType": "Maj7",
            "ctb2Low": null,
            "ctb2Main": {
              "ntr": "ROOT_TRANSPOSITION",
              "ntt": "MELODIC_MINOR_5",
              "bassOn": false,
              "chordRootUpperLimit": 5,
              "noteLowLimit": 0,
              "noteHighLimit": 127,
              "rtr": "PITCH_SHIFT"
            },
            "ctb2High": null
          },
          "notes": [
            {
              "pitch": 60,
              "velocity": 82,
              "position": 2,
              "duration": 0.5125
            },
            {
              "pitch": 72,
              "velocity": 82,
              "position": 2,
              "duration": 0.5125
            },
            {
              "pitch": 84,
              "velocity": 87,
              "position": 2,
              "duration": 0.5125
            }
          ]
        },
        "7": {
          "ctab": {
            "srcChannel": 7,
            "name": "Hns",
            "accType": "PHRASE2",
            "editable": false,
            "mutedNotes": [],
            "mutedChords": [],
            "autoStart": false,
            "sourceChordNote": 0,
            "sourceChordType": "Maj7",
            "ctb2Low": null,
            "ctb2Main": {
              "ntr": "ROOT_TRANSPOSITION",
              "ntt": "MELODIC_MINOR_5",
              "bassOn": false,
              "chordRootUpperLimit": 10,
              "noteLowLimit": 0,
              "noteHighLimit": 127,
              "rtr": "PITCH_SHIFT"
            },
            "ctb2High": null
          },
          "notes": [
            {
              "pitch": 60,
              "velocity": 123,
              "position": 2,
              "duration": 0.4791666666666667
            },
            {
              "pitch": 72,
              "velocity": 123,
              "position": 2,
              "duration": 0.4791666666666667
            },
            {
              "pitch": 84,
              "velocity": 123,
              "position": 2,
              "duration": 0.4791666666666667
            },
            {
              "pitch": 60,
              "velocity": 123,
              "position": 3,
              "duration": 0.35833333333333334
            },
            {
              "pitch": 59,
              "velocity": 56,
              "position": 3.3333333333333335,
              "duration": 0.10833333333333334
            },
            {
              "pitch": 84,
              "velocity": 123,
              "position": 3,
              "duration": 0.46458333333333335
            },
            {
              "pitch": 57,
              "velocity": 51,
              "position": 3.4166666666666665,
              "duration": 0.10833333333333334
            },
            {
              "pitch": 83,
              "velocity": 56,
              "position": 3.4375,
              "duration": 0.08958333333333333
            },
            {
              "pitch": 72,
              "velocity": 123,
              "position": 3,
              "duration": 0.5583333333333333
            },
            {
              "pitch": 81,
              "velocity": 51,
              "position": 3.5,
              "duration": 0.08958333333333333
            },
            {
              "pitch": 71,
              "velocity": 56,
              "position": 3.5416666666666665,
              "duration": 0.058333333333333334
            },
            {
              "pitch": 55,
              "velocity": 45,
              "position": 3.5,
              "duration": 0.10833333333333334
            },
            {
              "pitch": 69,
              "velocity": 51,
              "position": 3.5833333333333335,
              "duration": 0.058333333333333334
            },
            {
              "pitch": 79,
              "velocity": 45,
              "position": 3.5625,
              "duration": 0.08958333333333333
            },
            {
              "pitch": 67,
              "velocity": 45,
              "position": 3.625,
              "duration": 0.058333333333333334
            },
            {
              "pitch": 53,
              "velocity": 40,
              "position": 3.5833333333333335,
              "duration": 0.10833333333333334
            },
            {
              "pitch": 77,
              "velocity": 40,
              "position": 3.625,
              "duration": 0.08958333333333333
            },
            {
              "pitch": 65,
              "velocity": 40,
              "position": 3.6666666666666665,
              "duration": 0.058333333333333334
            },
            {
              "pitch": 64,
              "velocity": 35,
              "position": 3.7083333333333335,
              "duration": 0.058333333333333334
            },
            {
              "pitch": 52,
              "velocity": 35,
              "position": 3.6666666666666665,
              "duration": 0.10833333333333334
            },
            {
              "pitch": 76,
              "velocity": 35,
              "position": 3.6875,
              "duration": 0.08958333333333333
            },
            {
              "pitch": 62,
              "velocity": 30,
              "position": 3.75,
              "duration": 0.058333333333333334
            },
            {
              "pitch": 74,
              "velocity": 30,
              "position": 3.75,
              "duration": 0.08958333333333333
            },
            {
              "pitch": 50,
              "velocity": 30,
              "position": 3.75,
              "duration": 0.10833333333333334
            }
          ]
        },
        "8": {
          "ctab": {
            "srcChannel": 8,
            "name": "Perc.",
            "accType": "SUBRHYTHM",
            "editable": false,
            "mutedNotes": [],
            "mutedChords": [],
            "autoStart": true,
            "sourceChordNote": 0,
            "sourceChordType": "Maj7",
            "ctb2Low": null,
            "ctb2Main": {
              "ntr": "ROOT_FIXED",
              "ntt": "BYPASS",
              "bassOn": false,
              "chordRootUpperLimit": 6,
              "noteLowLimit": 0,
              "noteHighLimit": 127,
              "rtr": "PITCH_SHIFT"
            },
            "ctb2High": null
          },
          "notes": [
            {
              "pitch": 73,
              "velocity": 80,
              "position": 0.010416666666666666,
              "duration": 0.010416666666666666
            },
            {
              "pitch": 73,
              "velocity": 70,
              "position": 0.4979166666666667,
              "duration": 0.010416666666666666
            },
            {
              "pitch": 73,
              "velocity": 83,
              "position": 1.0020833333333334,
              "duration": 0.010416666666666666
            },
            {
              "pitch": 73,
              "velocity": 71,
              "position": 1.4958333333333333,
              "duration": 0.010416666666666666
            },
            {
              "pitch": 73,
              "velocity": 77,
              "position": 1.9958333333333333,
              "duration": 0.010416666666666666
            },
            {
              "pitch": 73,
              "velocity": 70,
              "position": 2.4854166666666666,
              "duration": 0.010416666666666666
            },
            {
              "pitch": 73,
              "velocity": 78,
              "position": 3.002083333333333,
              "duration": 0.010416666666666666
            },
            {
              "pitch": 73,
              "velocity": 70,
              "position": 3.5104166666666665,
              "duration": 0.010416666666666666
            }
          ]
        },
        "9": {
          "ctab": {
            "srcChannel": 9,
            "name": "Drums",
            "accType": "RHYTHM",
            "editable": false,
            "mutedNotes": [],
            "mutedChords": [],
            "autoStart": true,
            "sourceChordNote": 0,
            "sourceChordType": "Maj7",
            "ctb2Low": null,
            "ctb2Main": {
              "ntr": "ROOT_FIXED",
              "ntt": "BYPASS",
              "bassOn": false,
              "chordRootUpperLimit": 6,
              "noteLowLimit": 0,
              "noteHighLimit": 127,
              "rtr": "PITCH_SHIFT"
            },
            "ctb2High": null
          },
          "notes": [
            {
              "pitch": 35,
              "velocity": 100,
              "position": 0,
              "duration": 0.010416666666666666
            },
            {
              "pitch": 42,
              "velocity": 70,
              "position": 0,
              "duration": 0.010416666666666666
            },
            {
              "pitch": 42,
              "velocity": 60,
              "position": 0.5020833333333333,
              "duration": 0.010416666666666666
            },
            {
              "pitch": 35,
              "velocity": 100,
              "position": 1,
              "duration": 0.010416666666666666
            },
            {
              "pitch": 38,
              "velocity": 105,
              "position": 1,
              "duration": 0.010416666666666666
            },
            {
              "pitch": 42,
              "velocity": 74,
              "position": 1.0020833333333334,
              "duration": 0.010416666666666666
            },
            {
              "pitch": 42,
              "velocity": 58,
              "position": 1.50625,
              "duration": 0.010416666666666666
            },
            {
              "pitch": 35,
              "velocity": 100,
              "position": 2,
              "duration": 0.010416666666666666
            },
            {
              "pitch": 38,
              "velocity": 107,
              "position": 2,
              "duration": 0.010416666666666666
            },
            {
              "pitch": 46,
              "velocity": 69,
              "position": 2,
              "duration": 0.010416666666666666
            },
            {
              "pitch": 42,
              "velocity": 61,
              "position": 2.504166666666667,
              "duration": 0.010416666666666666
            },
            {
              "pitch": 35,
              "velocity": 100,
              "position": 3,
              "duration": 0.010416666666666666
            },
            {
              "pitch": 38,
              "velocity": 107,
              "position": 3,
              "duration": 0.010416666666666666
            },
            {
              "pitch": 46,
              "velocity": 69,
              "position": 3.0083333333333333,
              "duration": 0.010416666666666666
            },
            {
              "pitch": 42,
              "velocity": 63,
              "position": 3.497916666666667,
              "duration": 0.010416666666666666
            },
            {
              "pitch": 49,
              "velocity": 71,
              "position": 3.9895833333333335,
              "duration": 0.010416666666666666
            }
          ]
        },
        "10": {
          "ctab": {
            "srcChannel": 10,
            "name": "Bass Maj",
            "accType": "BASS",
            "editable": false,
            "mutedNotes": [],
            "mutedChords": [
              "1+2+5",
              "sus4",
              "1+5",
              "1+8",
              "7aug",
              "Maj7aug",
              "7(#9)",
              "7(b13)",
              "7(b9)",
              "7(13)",
              "7#11",
              "7b5",
              "7sus4",
              "dim7",
              "dim",
              "minMaj7(9)",
              "minMaj7",
              "min7(11)",
              "min7(9)",
              "min(9)",
              "m7b5",
              "min7",
              "min6",
              "min",
              "aug",
              "Maj6(9)",
              "Maj7(9)",
              "Maj(9)",
              "Maj7#11",
              "Maj7",
              "Maj6"
            ],
            "autoStart": false,
            "sourceChordNote": 0,
            "sourceChordType": "7th",
            "ctb2Low": null,
            "ctb2Main": {
              "ntr": "ROOT_TRANSPOSITION",
              "ntt": "MELODIC_MINOR_5",
              "bassOn": true,
              "chordRootUpperLimit": 8,
              "noteLowLimit": 28,
              "noteHighLimit": 127,
              "rtr": "PITCH_SHIFT_TO_ROOT"
            },
            "ctb2High": null
          },
          "notes": [
            {
              "pitch": 31,
              "velocity": 70,
              "position": 0,
              "duration": 0.24166666666666667
            },
            {
              "pitch": 31,
              "velocity": 70,
              "position": 0.5,
              "duration": 0.24166666666666667
            },
            {
              "pitch": 34,
              "velocity": 70,
              "position": 1,
              "duration": 0.24166666666666667
            },
            {
              "pitch": 34,
              "velocity": 50,
              "position": 1.5,
              "duration": 0.175
            },
            {
              "pitch": 34,
              "velocity": 70,
              "position": 1.7708333333333333,
              "duration": 0.24166666666666667
            }
          ]
        },
        "11": {
          "ctab": {
            "srcChannel": 11,
            "name": "Bass Min",
            "accType": "BASS",
            "editable": false,
            "mutedNotes": [],
            "mutedChords": [
              "1+2+5",
              "sus4",
              "1+5",
              "1+8",
              "7aug",
              "Maj7aug",
              "7(#9)",
              "7(b13)",
              "7(b9)",
              "7(13)",
              "7#11",
              "7(9)",
              "7b5",
              "7sus4",
              "7th",
              "dim7",
              "dim",
              "minMaj7(9)",
              "minMaj7",
              "min7(11)",
              "min(9)",
              "m7b5",
              "min6",
              "aug",
              "Maj6(9)",
              "Maj7(9)",
              "Maj(9)",
              "Maj7#11",
              "Maj7",
              "Maj6",
              "Maj"
            ],
            "autoStart": false,
            "sourceChordNote": 0,
            "sourceChordType": "min7",
            "ctb2Low": null,
            "ctb2Main": {
              "ntr": "ROOT_TRANSPOSITION",
              "ntt": "MELODIC_MINOR_5",
              "bassOn": true,
              "chordRootUpperLimit": 3,
              "noteLowLimit": 28,
              "noteHighLimit": 127,
              "rtr": "PITCH_SHIFT_TO_ROOT"
            },
            "ctb2High": null
          },
          "notes": [
            {
              "pitch": 31,
              "velocity": 70,
              "position": 0,
              "duration": 0.24166666666666667
            },
            {
              "pitch": 31,
              "velocity": 70,
              "position": 0.5,
              "duration": 0.24166666666666667
            },
            {
              "pitch": 34,
              "velocity": 70,
              "position": 1,
              "duration": 0.24166666666666667
            },
            {
              "pitch": 34,
              "velocity": 50,
              "position": 1.5,
              "duration": 0.175
            },
            {
              "pitch": 34,
              "velocity": 70,
              "position": 1.7708333333333333,
              "duration": 0.24166666666666667
            }
          ]
        },
        "12": {
          "ctab": {
            "srcChannel": 12,
            "name": "Bass",
            "accType": "BASS",
            "editable": false,
            "mutedNotes": [],
            "mutedChords": [
              "7(9)",
              "7th",
              "min7(9)",
              "min7",
              "min",
              "Maj"
            ],
            "autoStart": false,
            "sourceChordNote": 0,
            "sourceChordType": "Maj7",
            "ctb2Low": null,
            "ctb2Main": {
              "ntr": "ROOT_TRANSPOSITION",
              "ntt": "MELODY",
              "bassOn": true,
              "chordRootUpperLimit": 8,
              "noteLowLimit": 28,
              "noteHighLimit": 127,
              "rtr": "PITCH_SHIFT_TO_ROOT"
            },
            "ctb2High": null
          },
          "notes": [
            {
              "pitch": 24,
              "velocity": 70,
              "position": 0,
              "duration": 0.24166666666666667
            },
            {
              "pitch": 24,
              "velocity": 70,
              "position": 0.5,
              "duration": 0.24166666666666667
            },
            {
              "pitch": 24,
              "velocity": 70,
              "position": 1,
              "duration": 0.24166666666666667
            },
            {
              "pitch": 24,
              "velocity": 50,
              "position": 1.5,
              "duration": 0.175
            },
            {
              "pitch": 24,
              "velocity": 70,
              "position": 1.7708333333333333,
              "duration": 0.24166666666666667
            }
          ]
        },
        "13": {
          "ctab": {
            "srcChannel": 13,
            "name": "E.P 5th",
            "accType": "CHORD2",
            "editable": false,
            "mutedNotes": [],
            "mutedChords": [
              "1+2+5",
              "sus4",
              "1+5",
              "1+8",
              "7aug",
              "Maj7aug",
              "7(#9)",
              "7(b13)",
              "7(13)",
              "7#11",
              "7b5",
              "7sus4",
              "7th",
              "dim7",
              "dim",
              "minMaj7",
              "min(9)",
              "m7b5",
              "min7",
              "min",
              "aug",
              "Maj(9)",
              "Maj7#11",
              "Maj7",
              "Maj"
            ],
            "autoStart": false,
            "sourceChordNote": 0,
            "sourceChordType": "Maj7",
            "ctb2Low": null,
            "ctb2Main": {
              "ntr": "ROOT_TRANSPOSITION",
              "ntt": "MELODIC_MINOR_5",
              "bassOn": false,
              "chordRootUpperLimit": 10,
              "noteLowLimit": 0,
              "noteHighLimit": 127,
              "rtr": "PITCH_SHIFT"
            },
            "ctb2High": null
          },
          "notes": [
            {
              "pitch": 55,
              "velocity": 76,
              "position": 0.010416666666666666,
              "duration": 0.11041666666666666
            },
            {
              "pitch": 55,
              "velocity": 76,
              "position": 0.49166666666666664,
              "duration": 0.12708333333333333
            },
            {
              "pitch": 55,
              "velocity": 78,
              "position": 0.9958333333333333,
              "duration": 0.11875
            },
            {
              "pitch": 55,
              "velocity": 79,
              "position": 1.50625,
              "duration": 0.12083333333333333
            },
            {
              "pitch": 55,
              "velocity": 76,
              "position": 2,
              "duration": 0.13541666666666666
            },
            {
              "pitch": 55,
              "velocity": 76,
              "position": 2.497916666666667,
              "duration": 0.12291666666666666
            },
            {
              "pitch": 55,
              "velocity": 76,
              "position": 2.997916666666667,
              "duration": 0.125
            },
            {
              "pitch": 55,
              "velocity": 76,
              "position": 3.502083333333333,
              "duration": 0.13541666666666666
            }
          ]
        },
        "14": {
          "ctab": {
            "srcChannel": 14,
            "name": "E.P rt",
            "accType": "CHORD2",
            "editable": false,
            "mutedNotes": [],
            "mutedChords": [
              "1+2+5",
              "sus4",
              "1+5",
              "1+8",
              "Maj7aug",
              "dim",
              "minMaj7(9)",
              "minMaj7",
              "min6",
              "min",
              "aug",
              "Maj7(9)",
              "Maj7#11",
              "Maj7",
              "Maj6",
              "Maj"
            ],
            "autoStart": false,
            "sourceChordNote": 0,
            "sourceChordType": "Maj7",
            "ctb2Low": null,
            "ctb2Main": {
              "ntr": "ROOT_TRANSPOSITION",
              "ntt": "MELODY",
              "bassOn": false,
              "chordRootUpperLimit": 6,
              "noteLowLimit": 0,
              "noteHighLimit": 127,
              "rtr": "PITCH_SHIFT"
            },
            "ctb2High": null
          },
          "notes": [
            {
              "pitch": 60,
              "velocity": 76,
              "position": 0.010416666666666666,
              "duration": 0.11041666666666666
            },
            {
              "pitch": 60,
              "velocity": 76,
              "position": 0.49166666666666664,
              "duration": 0.12708333333333333
            },
            {
              "pitch": 60,
              "velocity": 78,
              "position": 0.9958333333333333,
              "duration": 0.11875
            },
            {
              "pitch": 60,
              "velocity": 79,
              "position": 1.50625,
              "duration": 0.12083333333333333
            },
            {
              "pitch": 60,
              "velocity": 76,
              "position": 2,
              "duration": 0.13541666666666666
            },
            {
              "pitch": 60,
              "velocity": 76,
              "position": 2.497916666666667,
              "duration": 0.12291666666666666
            },
            {
              "pitch": 60,
              "velocity": 76,
              "position": 2.997916666666667,
              "duration": 0.125
            },
            {
              "pitch": 60,
              "velocity": 76,
              "position": 3.502083333333333,
              "duration": 0.13541666666666666
            }
          ]
        },
        "15": {
          "ctab": {
            "srcChannel": 15,
            "name": "E.P",
            "accType": "CHORD2",
            "editable": false,
            "mutedNotes": [],
            "mutedChords": [],
            "autoStart": false,
            "sourceChordNote": 0,
            "sourceChordType": "Maj7",
            "ctb2Low": null,
            "ctb2Main": {
              "ntr": "ROOT_FIXED",
              "ntt": "CHORD",
              "bassOn": false,
              "chordRootUpperLimit": 7,
              "noteLowLimit": 0,
              "noteHighLimit": 127,
              "rtr": "PITCH_SHIFT"
            },
            "ctb2High": null
          },
          "notes": [
            {
              "pitch": 55,
              "velocity": 76,
              "position": 0.010416666666666666,
              "duration": 0.11041666666666666
            },
            {
              "pitch": 64,
              "velocity": 106,
              "position": 0.010416666666666666,
              "duration": 0.11041666666666666
            },
            {
              "pitch": 59,
              "velocity": 106,
              "position": 0.010416666666666666,
              "duration": 0.12916666666666668
            },
            {
              "pitch": 55,
              "velocity": 76,
              "position": 0.49166666666666664,
              "duration": 0.12708333333333333
            },
            {
              "pitch": 64,
              "velocity": 104,
              "position": 0.5083333333333333,
              "duration": 0.1125
            },
            {
              "pitch": 59,
              "velocity": 106,
              "position": 0.49166666666666664,
              "duration": 0.13541666666666666
            },
            {
              "pitch": 59,
              "velocity": 106,
              "position": 0.9958333333333333,
              "duration": 0.11041666666666666
            },
            {
              "pitch": 55,
              "velocity": 78,
              "position": 0.9958333333333333,
              "duration": 0.11875
            },
            {
              "pitch": 64,
              "velocity": 106,
              "position": 1,
              "duration": 0.12083333333333333
            },
            {
              "pitch": 55,
              "velocity": 79,
              "position": 1.50625,
              "duration": 0.12083333333333333
            },
            {
              "pitch": 64,
              "velocity": 104,
              "position": 1.5,
              "duration": 0.13541666666666666
            },
            {
              "pitch": 59,
              "velocity": 103,
              "position": 1.50625,
              "duration": 0.13125
            },
            {
              "pitch": 64,
              "velocity": 102,
              "position": 2.004166666666667,
              "duration": 0.11875
            },
            {
              "pitch": 59,
              "velocity": 106,
              "position": 2.004166666666667,
              "duration": 0.12083333333333333
            },
            {
              "pitch": 55,
              "velocity": 76,
              "position": 2,
              "duration": 0.13541666666666666
            },
            {
              "pitch": 64,
              "velocity": 102,
              "position": 2.495833333333333,
              "duration": 0.11041666666666666
            },
            {
              "pitch": 55,
              "velocity": 76,
              "position": 2.497916666666667,
              "duration": 0.12291666666666666
            },
            {
              "pitch": 59,
              "velocity": 104,
              "position": 2.50625,
              "duration": 0.11875
            },
            {
              "pitch": 64,
              "velocity": 104,
              "position": 2.99375,
              "duration": 0.10833333333333334
            },
            {
              "pitch": 59,
              "velocity": 102,
              "position": 2.997916666666667,
              "duration": 0.12291666666666666
            },
            {
              "pitch": 55,
              "velocity": 76,
              "position": 2.997916666666667,
              "duration": 0.125
            },
            {
              "pitch": 64,
              "velocity": 106,
              "position": 3.497916666666667,
              "duration": 0.1125
            },
            {
              "pitch": 59,
              "velocity": 103,
              "position": 3.4916666666666667,
              "duration": 0.13541666666666666
            },
            {
              "pitch": 55,
              "velocity": 76,
              "position": 3.502083333333333,
              "duration": 0.13541666666666666
            }
          ]
        }
      }
    },
    "Intro_A": {
      "type": "Intro_A",
      "sizeInBeats": 4,
      "channels": {
        "2": {
          "ctab": {
            "srcChannel": 2,
            "name": "Gt Root",
            "accType": "CHORD1",
            "editable": false,
            "mutedNotes": [],
            "mutedChords": [
              "1+2+5",
              "sus4",
              "1+5",
              "1+8",
              "Maj7aug",
              "dim",
              "minMaj7(9)",
              "minMaj7",
              "min6",
              "min",
              "aug",
              "Maj7(9)",
              "Maj7#11",
              "Maj7",
              "Maj6",
              "Maj"
            ],
            "autoStart": false,
            "sourceChordNote": 0,
            "sourceChordType": "Maj7",
            "ctb2Low": null,
            "ctb2Main": {
              "ntr": "ROOT_TRANSPOSITION",
              "ntt": "CHORD",
              "bassOn": false,
              "chordRootUpperLimit": 10,
              "noteLowLimit": 0,
              "noteHighLimit": 127,
              "rtr": "PITCH_SHIFT"
            },
            "ctb2High": null
          },
          "notes": []
        },
        "3": {
          "ctab": {
            "srcChannel": 3,
            "name": "Gt",
            "accType": "CHORD1",
            "editable": false,
            "mutedNotes": [],
            "mutedChords": [],
            "autoStart": false,
            "sourceChordNote": 0,
            "sourceChordType": "Maj7",
            "ctb2Low": null,
            "ctb2Main": {
              "ntr": "ROOT_FIXED",
              "ntt": "CHORD",
              "bassOn": false,
              "chordRootUpperLimit": 7,
              "noteLowLimit": 0,
              "noteHighLimit": 79,
              "rtr": "PITCH_SHIFT"
            },
            "ctb2High": null
          },
          "notes": []
        },
        "5": {
          "ctab": {
            "srcChannel": 5,
            "name": "Brass",
            "accType": "PHRASE1",
            "editable": false,
            "mutedNotes": [],
            "mutedChords": [],
            "autoStart": false,
            "sourceChordNote": 0,
            "sourceChordType": "Maj7",
            "ctb2Low": null,
            "ctb2Main": {
              "ntr": "ROOT_TRANSPOSITION",
              "ntt": "MELODIC_MINOR_5",
              "bassOn": false,
              "chordRootUpperLimit": 5,
              "noteLowLimit": 0,
              "noteHighLimit": 127,
              "rtr": "PITCH_SHIFT"
            },
            "ctb2High": null
          },
          "notes": []
        },
        "7": {
          "ctab": {
            "srcChannel": 7,
            "name": "Hns",
            "accType": "PHRASE2",
            "editable": false,
            "mutedNotes": [],
            "mutedChords": [],
            "autoStart": false,
            "sourceChordNote": 0,
            "sourceChordType": "Maj7",
            "ctb2Low": null,
            "ctb2Main": {
              "ntr": "ROOT_TRANSPOSITION",
              "ntt": "MELODIC_MINOR_5",
              "bassOn": false,
              "chordRootUpperLimit": 10,
              "noteLowLimit": 0,
              "noteHighLimit": 127,
              "rtr": "PITCH_SHIFT"
            },
            "ctb2High": null
          },
          "notes": []
        },
        "8": {
          "ctab": {
            "srcChannel": 8,
            "name": "Perc.",
            "accType": "SUBRHYTHM",
            "editable": false,
            "mutedNotes": [],
            "mutedChords": [],
            "autoStart": true,
            "sourceChordNote": 0,
            "sourceChordType": "Maj7",
            "ctb2Low": null,
            "ctb2Main": {
              "ntr": "ROOT_FIXED",
              "ntt": "BYPASS",
              "bassOn": false,
              "chordRootUpperLimit": 6,
              "noteLowLimit": 0,
              "noteHighLimit": 127,
              "rtr": "PITCH_SHIFT"
            },
            "ctb2High": null
          },
          "notes": []
        },
        "9": {
          "ctab": {
            "srcChannel": 9,
            "name": "Drums",
            "accType": "RHYTHM",
            "editable": false,
            "mutedNotes": [],
            "mutedChords": [],
            "autoStart": true,
            "sourceChordNote": 0,
            "sourceChordType": "Maj7",
            "ctb2Low": null,
            "ctb2Main": {
              "ntr": "ROOT_FIXED",
              "ntt": "BYPASS",
              "bassOn": false,
              "chordRootUpperLimit": 6,
              "noteLowLimit": 0,
              "noteHighLimit": 127,
              "rtr": "PITCH_SHIFT"
            },
            "ctb2High": null
          },
          "notes": [
            {
              "pitch": 32,
              "velocity": 100,
              "position": 0,
              "duration": 0.010416666666666666
            },
            {
              "pitch": 32,
              "velocity": 100,
              "position": 1,
              "duration": 0.010416666666666666
            },
            {
              "pitch": 35,
              "velocity": 44,
              "position": 1.7916666666666667,
              "duration": 0.010416666666666666
            },
            {
              "pitch": 38,
              "velocity": 121,
              "position": 1.9833333333333334,
              "duration": 0.010416666666666666
            },
            {
              "pitch": 38,
              "velocity": 65,
              "position": 2.0520833333333335,
              "duration": 0.010416666666666666
            },
            {
              "pitch": 35,
              "velocity": 100,
              "position": 2.5,
              "duration": 0.010416666666666666
            },
            {
              "pitch": 46,
              "velocity": 69,
              "position": 2.5,
              "duration": 0.010416666666666666
            },
            {
              "pitch": 38,
              "velocity": 121,
              "position": 3,
              "duration": 0.010416666666666666
            },
            {
              "pitch": 44,
              "velocity": 80,
              "position": 3,
              "duration": 0.010416666666666666
            },
            {
              "pitch": 38,
              "velocity": 90,
              "position": 3.2916666666666665,
              "duration": 0.010416666666666666
            },
            {
              "pitch": 35,
              "velocity": 60,
              "position": 3.5,
              "duration": 0.010416666666666666
            },
            {
              "pitch": 45,
              "velocity": 74,
              "position": 3.5,
              "duration": 0.010416666666666666
            },
            {
              "pitch": 49,
              "velocity": 71,
              "position": 3.9895833333333335,
              "duration": 0.010416666666666666
            }
          ]
        },
        "10": {
          "ctab": {
            "srcChannel": 10,
            "name": "Bass Maj",
            "accType": "BASS",
            "editable": false,
            "mutedNotes": [],
            "mutedChords": [
              "1+2+5",
              "sus4",
              "1+5",
              "1+8",
              "7aug",
              "Maj7aug",
              "7(#9)",
              "7(b13)",
              "7(b9)",
              "7(13)",
              "7#11",
              "7b5",
              "7sus4",
              "dim7",
              "dim",
              "minMaj7(9)",
              "minMaj7",
              "min7(11)",
              "min7(9)",
              "min(9)",
              "m7b5",
              "min7",
              "min6",
              "min",
              "aug",
              "Maj6(9)",
              "Maj7(9)",
              "Maj(9)",
              "Maj7#11",
              "Maj7",
              "Maj6"
            ],
            "autoStart": false,
            "sourceChordNote": 0,
            "sourceChordType": "7th",
            "ctb2Low": null,
            "ctb2Main": {
              "ntr": "ROOT_TRANSPOSITION",
              "ntt": "MELODIC_MINOR_5",
              "bassOn": true,
              "chordRootUpperLimit": 8,
              "noteLowLimit": 28,
              "noteHighLimit": 127,
              "rtr": "PITCH_SHIFT_TO_ROOT"
            },
            "ctb2High": null
          },
          "notes": []
        },
        "11": {
          "ctab": {
            "srcChannel": 11,
            "name": "Bass Min",
            "accType": "BASS",
            "editable": false,
            "mutedNotes": [],
            "mutedChords": [
              "1+2+5",
              "sus4",
              "1+5",
              "1+8",
              "7aug",
              "Maj7aug",
              "7(#9)",
              "7(b13)",
              "7(b9)",
              "7(13)",
              "7#11",
              "7(9)",
              "7b5",
              "7sus4",
              "7th",
              "dim7",
              "dim",
              "minMaj7(9)",
              "minMaj7",
              "min7(11)",
              "min(9)",
              "m7b5",
              "min6",
              "aug",
              "Maj6(9)",
              "Maj7(9)",
              "Maj(9)",
              "Maj7#11",
              "Maj7",
              "Maj6",
              "Maj"
            ],
            "autoStart": false,
            "sourceChordNote": 0,
            "sourceChordType": "min7",
            "ctb2Low": null,
            "ctb2Main": {
              "ntr": "ROOT_TRANSPOSITION",
              "ntt": "MELODIC_MINOR_5",
              "bassOn": true,
              "chordRootUpperLimit": 3,
              "noteLowLimit": 28,
              "noteHighLimit": 127,
              "rtr": "PITCH_SHIFT_TO_ROOT"
            },
            "ctb2High": null
          },
          "notes": []
        },
        "12": {
          "ctab": {
            "srcChannel": 12,
            "name": "Bass",
            "accType": "BASS",
            "editable": false,
            "mutedNotes": [],
            "mutedChords": [
              "7(9)",
              "7th",
              "min7(9)",
              "min7",
              "min",
              "Maj"
            ],
            "autoStart": false,
            "sourceChordNote": 0,
            "sourceChordType": "Maj7",
            "ctb2Low": null,
            "ctb2Main": {
              "ntr": "ROOT_TRANSPOSITION",
              "ntt": "MELODY",
              "bassOn": true,
              "chordRootUpperLimit": 8,
              "noteLowLimit": 28,
              "noteHighLimit": 127,
              "rtr": "PITCH_SHIFT_TO_ROOT"
            },
            "ctb2High": null
          },
          "notes": []
        },
        "13": {
          "ctab": {
            "srcChannel": 13,
            "name": "E.P 5th",
            "accType": "CHORD2",
            "editable": false,
            "mutedNotes": [],
            "mutedChords": [
              "1+2+5",
              "sus4",
              "1+5",
              "1+8",
              "7aug",
              "Maj7aug",
              "7(#9)",
              "7(b13)",
              "7(13)",
              "7#11",
              "7b5",
              "7sus4",
              "7th",
              "dim7",
              "dim",
              "minMaj7",
              "min(9)",
              "m7b5",
              "min7",
              "min",
              "aug",
              "Maj(9)",
              "Maj7#11",
              "Maj7",
              "Maj"
            ],
            "autoStart": false,
            "sourceChordNote": 0,
            "sourceChordType": "Maj7",
            "ctb2Low": null,
            "ctb2Main": {
              "ntr": "ROOT_TRANSPOSITION",
              "ntt": "MELODIC_MINOR_5",
              "bassOn": false,
              "chordRootUpperLimit": 10,
              "noteLowLimit": 0,
              "noteHighLimit": 127,
              "rtr": "PITCH_SHIFT"
            },
            "ctb2High": null
          },
          "notes": []
        },
        "14": {
          "ctab": {
            "srcChannel": 14,
            "name": "E.P rt",
            "accType": "CHORD2",
            "editable": false,
            "mutedNotes": [],
            "mutedChords": [
              "1+2+5",
              "sus4",
              "1+5",
              "1+8",
              "Maj7aug",
              "dim",
              "minMaj7(9)",
              "minMaj7",
              "min6",
              "min",
              "aug",
              "Maj7(9)",
              "Maj7#11",
              "Maj7",
              "Maj6",
              "Maj"
            ],
            "autoStart": false,
            "sourceChordNote": 0,
            "sourceChordType": "Maj7",
            "ctb2Low": null,
            "ctb2Main": {
              "ntr": "ROOT_TRANSPOSITION",
              "ntt": "MELODY",
              "bassOn": false,
              "chordRootUpperLimit": 6,
              "noteLowLimit": 0,
              "noteHighLimit": 127,
              "rtr": "PITCH_SHIFT"
            },
            "ctb2High": null
          },
          "notes": []
        },
        "15": {
          "ctab": {
            "srcChannel": 15,
            "name": "E.P",
            "accType": "CHORD2",
            "editable": false,
            "mutedNotes": [],
            "mutedChords": [],
            "autoStart": false,
            "sourceChordNote": 0,
            "sourceChordType": "Maj7",
            "ctb2Low": null,
            "ctb2Main": {
              "ntr": "ROOT_FIXED",
              "ntt": "CHORD",
              "bassOn": false,
              "chordRootUpperLimit": 7,
              "noteLowLimit": 0,
              "noteHighLimit": 127,
              "rtr": "PITCH_SHIFT"
            },
            "ctb2High": null
          },
          "notes": []
        }
      }
    },
    "Main_B": {
      "type": "Main_B",
      "sizeInBeats": 32,
      "channels": {
        "1": {
          "ctab": {
            "srcChannel": 1,
            "name": "Gt Maj",
            "accType": "CHORD1",
            "editable": false,
            "mutedNotes": [],
            "mutedChords": [
              "1+2+5",
              "sus4",
              "1+5",
              "1+8",
              "7aug",
              "Maj7aug",
              "7(#9)",
              "7(b13)",
              "7(b9)",
              "7(13)",
              "7#11",
              "7(9)",
              "7b5",
              "7sus4",
              "dim7",
              "dim",
              "minMaj7(9)",
              "minMaj7",
              "min7(11)",
              "min7(9)",
              "min(9)",
              "m7b5",
              "min7",
              "min6",
              "min",
              "aug",
              "Maj6(9)",
              "Maj7(9)",
              "Maj(9)",
              "Maj7#11",
              "Maj7",
              "Maj6"
            ],
            "autoStart": false,
            "sourceChordNote": 0,
            "sourceChordType": "7th",
            "ctb2Low": null,
            "ctb2Main": {
              "ntr": "ROOT_TRANSPOSITION",
              "ntt": "MELODIC_MINOR_5",
              "bassOn": false,
              "chordRootUpperLimit": 7,
              "noteLowLimit": 55,
              "noteHighLimit": 77,
              "rtr": "PITCH_SHIFT"
            },
            "ctb2High": null
          },
          "notes": [
            {
              "pitch": 108,
              "velocity": 60,
              "position": 0.010416666666666666,
              "duration": 0.23125
            },
            {
              "pitch": 107,
              "velocity": 42,
              "position": 0.25,
              "duration": 0.22083333333333333
            },
            {
              "pitch": 106,
              "velocity": 42,
              "position": 0.5,
              "duration": 0.24166666666666667
            },
            {
              "pitch": 105,
              "velocity": 42,
              "position": 0.75,
              "duration": 0.22083333333333333
            },
            {
              "pitch": 108,
              "velocity": 60,
              "position": 1,
              "duration": 0.24166666666666667
            },
            {
              "pitch": 107,
              "velocity": 42,
              "position": 1.25,
              "duration": 0.22083333333333333
            },
            {
              "pitch": 106,
              "velocity": 42,
              "position": 1.5,
              "duration": 0.24166666666666667
            },
            {
              "pitch": 105,
              "velocity": 42,
              "position": 1.75,
              "duration": 0.22083333333333333
            },
            {
              "pitch": 108,
              "velocity": 60,
              "position": 2,
              "duration": 0.24166666666666667
            },
            {
              "pitch": 107,
              "velocity": 42,
              "position": 2.25,
              "duration": 0.22083333333333333
            },
            {
              "pitch": 106,
              "velocity": 42,
              "position": 2.5,
              "duration": 0.24166666666666667
            },
            {
              "pitch": 82,
              "velocity": 26,
              "position": 2.5208333333333335,
              "duration": 0.24166666666666667
            },
            {
              "pitch": 79,
              "velocity": 26,
              "position": 2.5,
              "duration": 0.2833333333333333
            },
            {
              "pitch": 105,
              "velocity": 42,
              "position": 2.75,
              "duration": 0.22083333333333333
            },
            {
              "pitch": 79,
              "velocity": 34,
              "position": 2.7916666666666665,
              "duration": 0.2
            },
            {
              "pitch": 82,
              "velocity": 34,
              "position": 2.7708333333333335,
              "duration": 0.24166666666666667
            },
            {
              "pitch": 88,
              "velocity": 26,
              "position": 2.5416666666666665,
              "duration": 0.49166666666666664
            },
            {
              "pitch": 108,
              "velocity": 60,
              "position": 3,
              "duration": 0.24166666666666667
            },
            {
              "pitch": 79,
              "velocity": 42,
              "position": 3,
              "duration": 0.2625
            },
            {
              "pitch": 82,
              "velocity": 42,
              "position": 3.0208333333333335,
              "duration": 0.2625
            },
            {
              "pitch": 88,
              "velocity": 42,
              "position": 3.0416666666666665,
              "duration": 0.2625
            },
            {
              "pitch": 107,
              "velocity": 42,
              "position": 3.25,
              "duration": 0.22083333333333333
            },
            {
              "pitch": 106,
              "velocity": 42,
              "position": 3.5,
              "duration": 0.24166666666666667
            },
            {
              "pitch": 105,
              "velocity": 42,
              "position": 3.75,
              "duration": 0.22083333333333333
            },
            {
              "pitch": 108,
              "velocity": 42,
              "position": 4,
              "duration": 0.24166666666666667
            },
            {
              "pitch": 107,
              "velocity": 42,
              "position": 4.25,
              "duration": 0.22083333333333333
            },
            {
              "pitch": 106,
              "velocity": 42,
              "position": 4.5,
              "duration": 0.24166666666666667
            },
            {
              "pitch": 105,
              "velocity": 60,
              "position": 4.75,
              "duration": 0.22083333333333333
            },
            {
              "pitch": 108,
              "velocity": 42,
              "position": 5,
              "duration": 0.24166666666666667
            },
            {
              "pitch": 107,
              "velocity": 42,
              "position": 5.25,
              "duration": 0.22083333333333333
            },
            {
              "pitch": 106,
              "velocity": 60,
              "position": 5.5,
              "duration": 0.24166666666666667
            },
            {
              "pitch": 105,
              "velocity": 42,
              "position": 5.75,
              "duration": 0.22083333333333333
            },
            {
              "pitch": 108,
              "velocity": 60,
              "position": 6,
              "duration": 0.24166666666666667
            },
            {
              "pitch": 107,
              "velocity": 42,
              "position": 6.25,
              "duration": 0.22083333333333333
            },
            {
              "pitch": 79,
              "velocity": 34,
              "position": 6.3125,
              "duration": 0.17916666666666667
            },
            {
              "pitch": 82,
              "velocity": 34,
              "position": 6.291666666666667,
              "duration": 0.22083333333333333
            },
            {
              "pitch": 106,
              "velocity": 42,
              "position": 6.5,
              "duration": 0.24166666666666667
            },
            {
              "pitch": 88,
              "velocity": 34,
              "position": 6.270833333333333,
              "duration": 0.49166666666666664
            },
            {
              "pitch": 82,
              "velocity": 26,
              "position": 6.520833333333333,
              "duration": 0.2625
            },
            {
              "pitch": 105,
              "velocity": 42,
              "position": 6.75,
              "duration": 0.22083333333333333
            },
            {
              "pitch": 79,
              "velocity": 26,
              "position": 6.5,
              "duration": 0.49166666666666664
            },
            {
              "pitch": 82,
              "velocity": 34,
              "position": 6.791666666666667,
              "duration": 0.22083333333333333
            },
            {
              "pitch": 88,
              "velocity": 34,
              "position": 6.770833333333333,
              "duration": 0.2625
            },
            {
              "pitch": 108,
              "velocity": 60,
              "position": 7,
              "duration": 0.24166666666666667
            },
            {
              "pitch": 79,
              "velocity": 44,
              "position": 7,
              "duration": 0.2625
            },
            {
              "pitch": 82,
              "velocity": 40,
              "position": 7.020833333333333,
              "duration": 0.2625
            },
            {
              "pitch": 88,
              "velocity": 39,
              "position": 7.041666666666667,
              "duration": 0.2625
            },
            {
              "pitch": 107,
              "velocity": 42,
              "position": 7.25,
              "duration": 0.22083333333333333
            },
            {
              "pitch": 106,
              "velocity": 42,
              "position": 7.5,
              "duration": 0.24166666666666667
            },
            {
              "pitch": 105,
              "velocity": 42,
              "position": 7.75,
              "duration": 0.22083333333333333
            },
            {
              "pitch": 108,
              "velocity": 60,
              "position": 8,
              "duration": 0.23125
            },
            {
              "pitch": 107,
              "velocity": 42,
              "position": 8.270833333333334,
              "duration": 0.22083333333333333
            },
            {
              "pitch": 106,
              "velocity": 42,
              "position": 8.5,
              "duration": 0.24166666666666667
            },
            {
              "pitch": 105,
              "velocity": 42,
              "position": 8.770833333333334,
              "duration": 0.22083333333333333
            },
            {
              "pitch": 108,
              "velocity": 60,
              "position": 9,
              "duration": 0.24166666666666667
            },
            {
              "pitch": 107,
              "velocity": 42,
              "position": 9.270833333333334,
              "duration": 0.22083333333333333
            },
            {
              "pitch": 106,
              "velocity": 42,
              "position": 9.5,
              "duration": 0.24166666666666667
            },
            {
              "pitch": 105,
              "velocity": 42,
              "position": 9.770833333333334,
              "duration": 0.22083333333333333
            },
            {
              "pitch": 108,
              "velocity": 60,
              "position": 10,
              "duration": 0.24166666666666667
            },
            {
              "pitch": 107,
              "velocity": 42,
              "position": 10.270833333333334,
              "duration": 0.22083333333333333
            },
            {
              "pitch": 106,
              "velocity": 42,
              "position": 10.5,
              "duration": 0.24166666666666667
            },
            {
              "pitch": 82,
              "velocity": 26,
              "position": 10.520833333333334,
              "duration": 0.24166666666666667
            },
            {
              "pitch": 79,
              "velocity": 26,
              "position": 10.5,
              "duration": 0.2833333333333333
            },
            {
              "pitch": 79,
              "velocity": 34,
              "position": 10.791666666666666,
              "duration": 0.2
            },
            {
              "pitch": 105,
              "velocity": 42,
              "position": 10.770833333333334,
              "duration": 0.22083333333333333
            },
            {
              "pitch": 82,
              "velocity": 34,
              "position": 10.770833333333334,
              "duration": 0.24166666666666667
            },
            {
              "pitch": 88,
              "velocity": 26,
              "position": 10.541666666666666,
              "duration": 0.49166666666666664
            },
            {
              "pitch": 108,
              "velocity": 60,
              "position": 11,
              "duration": 0.24166666666666667
            },
            {
              "pitch": 79,
              "velocity": 42,
              "position": 11,
              "duration": 0.2625
            },
            {
              "pitch": 82,
              "velocity": 42,
              "position": 11.020833333333334,
              "duration": 0.2625
            },
            {
              "pitch": 88,
              "velocity": 42,
              "position": 11.041666666666666,
              "duration": 0.2625
            },
            {
              "pitch": 107,
              "velocity": 42,
              "position": 11.270833333333334,
              "duration": 0.22083333333333333
            },
            {
              "pitch": 106,
              "velocity": 42,
              "position": 11.5,
              "duration": 0.24166666666666667
            },
            {
              "pitch": 105,
              "velocity": 42,
              "position": 11.770833333333334,
              "duration": 0.22083333333333333
            },
            {
              "pitch": 108,
              "velocity": 42,
              "position": 12,
              "duration": 0.24166666666666667
            },
            {
              "pitch": 107,
              "velocity": 42,
              "position": 12.270833333333334,
              "duration": 0.22083333333333333
            },
            {
              "pitch": 106,
              "velocity": 42,
              "position": 12.5,
              "duration": 0.24166666666666667
            },
            {
              "pitch": 105,
              "velocity": 60,
              "position": 12.770833333333334,
              "duration": 0.22083333333333333
            },
            {
              "pitch": 108,
              "velocity": 42,
              "position": 13,
              "duration": 0.24166666666666667
            },
            {
              "pitch": 107,
              "velocity": 42,
              "position": 13.270833333333334,
              "duration": 0.22083333333333333
            },
            {
              "pitch": 106,
              "velocity": 60,
              "position": 13.5,
              "duration": 0.24166666666666667
            },
            {
              "pitch": 105,
              "velocity": 42,
              "position": 13.770833333333334,
              "duration": 0.22083333333333333
            },
            {
              "pitch": 108,
              "velocity": 60,
              "position": 14,
              "duration": 0.24166666666666667
            },
            {
              "pitch": 82,
              "velocity": 26,
              "position": 14.020833333333334,
              "duration": 0.24166666666666667
            },
            {
              "pitch": 79,
              "velocity": 26,
              "position": 14,
              "duration": 0.2833333333333333
            },
            {
              "pitch": 79,
              "velocity": 34,
              "position": 14.291666666666666,
              "duration": 0.2
            },
            {
              "pitch": 107,
              "velocity": 42,
              "position": 14.270833333333334,
              "duration": 0.22083333333333333
            },
            {
              "pitch": 82,
              "velocity": 34,
              "position": 14.270833333333334,
              "duration": 0.24166666666666667
            },
            {
              "pitch": 88,
              "velocity": 26,
              "position": 14.041666666666666,
              "duration": 0.49166666666666664
            },
            {
              "pitch": 79,
              "velocity": 34,
              "position": 14.5,
              "duration": 0.20416666666666666
            },
            {
              "pitch": 82,
              "velocity": 34,
              "position": 14.520833333333334,
              "duration": 0.20416666666666666
            },
            {
              "pitch": 106,
              "velocity": 42,
              "position": 14.5,
              "duration": 0.24166666666666667
            },
            {
              "pitch": 88,
              "velocity": 34,
              "position": 14.541666666666666,
              "duration": 0.20416666666666666
            },
            {
              "pitch": 105,
              "velocity": 42,
              "position": 14.770833333333334,
              "duration": 0.22083333333333333
            },
            {
              "pitch": 108,
              "velocity": 60,
              "position": 15,
              "duration": 0.24166666666666667
            },
            {
              "pitch": 79,
              "velocity": 42,
              "position": 15,
              "duration": 0.28541666666666665
            },
            {
              "pitch": 82,
              "velocity": 42,
              "position": 15.020833333333334,
              "duration": 0.28541666666666665
            },
            {
              "pitch": 88,
              "velocity": 42,
              "position": 15.041666666666666,
              "duration": 0.28541666666666665
            },
            {
              "pitch": 107,
              "velocity": 42,
              "position": 15.270833333333334,
              "duration": 0.22083333333333333
            },
            {
              "pitch": 106,
              "velocity": 42,
              "position": 15.5,
              "duration": 0.24166666666666667
            },
            {
              "pitch": 105,
              "velocity": 42,
              "position": 15.770833333333334,
              "duration": 0.22083333333333333
            },
            {
              "pitch": 108,
              "velocity": 60,
              "position": 16,
              "duration": 0.23125
            },
            {
              "pitch": 107,
              "velocity": 42,
              "position": 16.270833333333332,
              "duration": 0.22083333333333333
            },
            {
              "pitch": 106,
              "velocity": 42,
              "position": 16.5,
              "duration": 0.24166666666666667
            },
            {
              "pitch": 105,
              "velocity": 42,
              "position": 16.770833333333332,
              "duration": 0.22083333333333333
            },
            {
              "pitch": 108,
              "velocity": 60,
              "position": 17,
              "duration": 0.24166666666666667
            },
            {
              "pitch": 107,
              "velocity": 42,
              "position": 17.270833333333332,
              "duration": 0.22083333333333333
            },
            {
              "pitch": 106,
              "velocity": 42,
              "position": 17.5,
              "duration": 0.24166666666666667
            },
            {
              "pitch": 105,
              "velocity": 42,
              "position": 17.770833333333332,
              "duration": 0.22083333333333333
            },
            {
              "pitch": 108,
              "velocity": 60,
              "position": 18,
              "duration": 0.24166666666666667
            },
            {
              "pitch": 107,
              "velocity": 42,
              "position": 18.270833333333332,
              "duration": 0.22083333333333333
            },
            {
              "pitch": 106,
              "velocity": 42,
              "position": 18.5,
              "duration": 0.24166666666666667
            },
            {
              "pitch": 82,
              "velocity": 26,
              "position": 18.520833333333332,
              "duration": 0.24166666666666667
            },
            {
              "pitch": 79,
              "velocity": 26,
              "position": 18.5,
              "duration": 0.2833333333333333
            },
            {
              "pitch": 79,
              "velocity": 34,
              "position": 18.791666666666668,
              "duration": 0.2
            },
            {
              "pitch": 105,
              "velocity": 42,
              "position": 18.770833333333332,
              "duration": 0.22083333333333333
            },
            {
              "pitch": 82,
              "velocity": 34,
              "position": 18.770833333333332,
              "duration": 0.24166666666666667
            },
            {
              "pitch": 88,
              "velocity": 26,
              "position": 18.541666666666668,
              "duration": 0.49166666666666664
            },
            {
              "pitch": 108,
              "velocity": 60,
              "position": 19,
              "duration": 0.24166666666666667
            },
            {
              "pitch": 79,
              "velocity": 42,
              "position": 19,
              "duration": 0.2625
            },
            {
              "pitch": 82,
              "velocity": 42,
              "position": 19.020833333333332,
              "duration": 0.2625
            },
            {
              "pitch": 88,
              "velocity": 42,
              "position": 19.041666666666668,
              "duration": 0.2625
            },
            {
              "pitch": 107,
              "velocity": 42,
              "position": 19.270833333333332,
              "duration": 0.22083333333333333
            },
            {
              "pitch": 106,
              "velocity": 42,
              "position": 19.5,
              "duration": 0.24166666666666667
            },
            {
              "pitch": 105,
              "velocity": 42,
              "position": 19.770833333333332,
              "duration": 0.22083333333333333
            },
            {
              "pitch": 108,
              "velocity": 42,
              "position": 20,
              "duration": 0.24166666666666667
            },
            {
              "pitch": 107,
              "velocity": 42,
              "position": 20.270833333333332,
              "duration": 0.22083333333333333
            },
            {
              "pitch": 106,
              "velocity": 42,
              "position": 20.5,
              "duration": 0.24166666666666667
            },
            {
              "pitch": 105,
              "velocity": 60,
              "position": 20.770833333333332,
              "duration": 0.22083333333333333
            },
            {
              "pitch": 108,
              "velocity": 42,
              "position": 21,
              "duration": 0.24166666666666667
            },
            {
              "pitch": 107,
              "velocity": 42,
              "position": 21.270833333333332,
              "duration": 0.22083333333333333
            },
            {
              "pitch": 106,
              "velocity": 60,
              "position": 21.5,
              "duration": 0.24166666666666667
            },
            {
              "pitch": 105,
              "velocity": 42,
              "position": 21.770833333333332,
              "duration": 0.22083333333333333
            },
            {
              "pitch": 108,
              "velocity": 60,
              "position": 22,
              "duration": 0.24166666666666667
            },
            {
              "pitch": 79,
              "velocity": 34,
              "position": 22.3125,
              "duration": 0.17916666666666667
            },
            {
              "pitch": 107,
              "velocity": 42,
              "position": 22.270833333333332,
              "duration": 0.22083333333333333
            },
            {
              "pitch": 82,
              "velocity": 34,
              "position": 22.291666666666668,
              "duration": 0.22083333333333333
            },
            {
              "pitch": 106,
              "velocity": 42,
              "position": 22.5,
              "duration": 0.24166666666666667
            },
            {
              "pitch": 88,
              "velocity": 34,
              "position": 22.270833333333332,
              "duration": 0.49166666666666664
            },
            {
              "pitch": 82,
              "velocity": 26,
              "position": 22.520833333333332,
              "duration": 0.2625
            },
            {
              "pitch": 79,
              "velocity": 26,
              "position": 22.5,
              "duration": 0.49166666666666664
            },
            {
              "pitch": 105,
              "velocity": 42,
              "position": 22.770833333333332,
              "duration": 0.22083333333333333
            },
            {
              "pitch": 82,
              "velocity": 34,
              "position": 22.791666666666668,
              "duration": 0.22083333333333333
            },
            {
              "pitch": 88,
              "velocity": 34,
              "position": 22.770833333333332,
              "duration": 0.2625
            },
            {
              "pitch": 108,
              "velocity": 60,
              "position": 23,
              "duration": 0.24166666666666667
            },
            {
              "pitch": 79,
              "velocity": 44,
              "position": 23,
              "duration": 0.2625
            },
            {
              "pitch": 82,
              "velocity": 40,
              "position": 23.020833333333332,
              "duration": 0.2625
            },
            {
              "pitch": 88,
              "velocity": 39,
              "position": 23.041666666666668,
              "duration": 0.2625
            },
            {
              "pitch": 107,
              "velocity": 42,
              "position": 23.270833333333332,
              "duration": 0.22083333333333333
            },
            {
              "pitch": 106,
              "velocity": 42,
              "position": 23.5,
              "duration": 0.24166666666666667
            },
            {
              "pitch": 105,
              "velocity": 42,
              "position": 23.770833333333332,
              "duration": 0.22083333333333333
            },
            {
              "pitch": 108,
              "velocity": 60,
              "position": 24,
              "duration": 0.23125
            },
            {
              "pitch": 107,
              "velocity": 42,
              "position": 24.270833333333332,
              "duration": 0.22083333333333333
            },
            {
              "pitch": 106,
              "velocity": 42,
              "position": 24.5,
              "duration": 0.24166666666666667
            },
            {
              "pitch": 105,
              "velocity": 42,
              "position": 24.770833333333332,
              "duration": 0.22083333333333333
            },
            {
              "pitch": 108,
              "velocity": 60,
              "position": 25,
              "duration": 0.24166666666666667
            },
            {
              "pitch": 107,
              "velocity": 42,
              "position": 25.270833333333332,
              "duration": 0.22083333333333333
            },
            {
              "pitch": 106,
              "velocity": 42,
              "position": 25.5,
              "duration": 0.24166666666666667
            },
            {
              "pitch": 105,
              "velocity": 42,
              "position": 25.770833333333332,
              "duration": 0.22083333333333333
            },
            {
              "pitch": 108,
              "velocity": 60,
              "position": 26,
              "duration": 0.24166666666666667
            },
            {
              "pitch": 107,
              "velocity": 42,
              "position": 26.270833333333332,
              "duration": 0.22083333333333333
            },
            {
              "pitch": 106,
              "velocity": 42,
              "position": 26.5,
              "duration": 0.24166666666666667
            },
            {
              "pitch": 82,
              "velocity": 26,
              "position": 26.520833333333332,
              "duration": 0.24166666666666667
            },
            {
              "pitch": 79,
              "velocity": 26,
              "position": 26.5,
              "duration": 0.2833333333333333
            },
            {
              "pitch": 79,
              "velocity": 34,
              "position": 26.791666666666668,
              "duration": 0.2
            },
            {
              "pitch": 105,
              "velocity": 42,
              "position": 26.770833333333332,
              "duration": 0.22083333333333333
            },
            {
              "pitch": 82,
              "velocity": 34,
              "position": 26.770833333333332,
              "duration": 0.24166666666666667
            },
            {
              "pitch": 88,
              "velocity": 26,
              "position": 26.541666666666668,
              "duration": 0.49166666666666664
            },
            {
              "pitch": 108,
              "velocity": 60,
              "position": 27,
              "duration": 0.24166666666666667
            },
            {
              "pitch": 79,
              "velocity": 42,
              "position": 27,
              "duration": 0.2625
            },
            {
              "pitch": 82,
              "velocity": 42,
              "position": 27.020833333333332,
              "duration": 0.2625
            },
            {
              "pitch": 88,
              "velocity": 42,
              "position": 27.041666666666668,
              "duration": 0.2625
            },
            {
              "pitch": 107,
              "velocity": 42,
              "position": 27.270833333333332,
              "duration": 0.22083333333333333
            },
            {
              "pitch": 106,
              "velocity": 42,
              "position": 27.5,
              "duration": 0.24166666666666667
            },
            {
              "pitch": 105,
              "velocity": 42,
              "position": 27.770833333333332,
              "duration": 0.22083333333333333
            },
            {
              "pitch": 108,
              "velocity": 42,
              "position": 28,
              "duration": 0.24166666666666667
            },
            {
              "pitch": 107,
              "velocity": 42,
              "position": 28.270833333333332,
              "duration": 0.22083333333333333
            },
            {
              "pitch": 106,
              "velocity": 42,
              "position": 28.5,
              "duration": 0.24166666666666667
            },
            {
              "pitch": 105,
              "velocity": 60,
              "position": 28.770833333333332,
              "duration": 0.22083333333333333
            },
            {
              "pitch": 108,
              "velocity": 42,
              "position": 29,
              "duration": 0.24166666666666667
            },
            {
              "pitch": 107,
              "velocity": 42,
              "position": 29.270833333333332,
              "duration": 0.22083333333333333
            },
            {
              "pitch": 106,
              "velocity": 60,
              "position": 29.5,
              "duration": 0.24166666666666667
            },
            {
              "pitch": 105,
              "velocity": 42,
              "position": 29.770833333333332,
              "duration": 0.22083333333333333
            },
            {
              "pitch": 108,
              "velocity": 60,
              "position": 30,
              "duration": 0.24166666666666667
            },
            {
              "pitch": 82,
              "velocity": 26,
              "position": 30.020833333333332,
              "duration": 0.24166666666666667
            },
            {
              "pitch": 79,
              "velocity": 26,
              "position": 30,
              "duration": 0.2833333333333333
            },
            {
              "pitch": 79,
              "velocity": 34,
              "position": 30.291666666666668,
              "duration": 0.2
            },
            {
              "pitch": 107,
              "velocity": 42,
              "position": 30.270833333333332,
              "duration": 0.22083333333333333
            },
            {
              "pitch": 82,
              "velocity": 34,
              "position": 30.270833333333332,
              "duration": 0.24166666666666667
            },
            {
              "pitch": 88,
              "velocity": 26,
              "position": 30.041666666666668,
              "duration": 0.49166666666666664
            },
            {
              "pitch": 79,
              "velocity": 34,
              "position": 30.5,
              "duration": 0.20416666666666666
            },
            {
              "pitch": 82,
              "velocity": 34,
              "position": 30.520833333333332,
              "duration": 0.20416666666666666
            },
            {
              "pitch": 106,
              "velocity": 42,
              "position": 30.5,
              "duration": 0.24166666666666667
            },
            {
              "pitch": 88,
              "velocity": 34,
              "position": 30.541666666666668,
              "duration": 0.20416666666666666
            },
            {
              "pitch": 105,
              "velocity": 42,
              "position": 30.770833333333332,
              "duration": 0.22083333333333333
            },
            {
              "pitch": 108,
              "velocity": 60,
              "position": 31,
              "duration": 0.24166666666666667
            },
            {
              "pitch": 79,
              "velocity": 42,
              "position": 31,
              "duration": 0.28541666666666665
            },
            {
              "pitch": 82,
              "velocity": 42,
              "position": 31.020833333333332,
              "duration": 0.28541666666666665
            },
            {
              "pitch": 88,
              "velocity": 42,
              "position": 31.041666666666668,
              "duration": 0.28541666666666665
            },
            {
              "pitch": 107,
              "velocity": 42,
              "position": 31.270833333333332,
              "duration": 0.22083333333333333
            },
            {
              "pitch": 106,
              "velocity": 42,
              "position": 31.5,
              "duration": 0.24166666666666667
            },
            {
              "pitch": 105,
              "velocity": 42,
              "position": 31.770833333333332,
              "duration": 0.22083333333333333
            }
          ]
        },
        "2": {
          "ctab": {
            "srcChannel": 2,
            "name": "Gt Min",
            "accType": "CHORD1",
            "editable": false,
            "mutedNotes": [],
            "mutedChords": [
              "1+2+5",
              "sus4",
              "1+5",
              "1+8",
              "7aug",
              "Maj7aug",
              "7(#9)",
              "7(b13)",
              "7(b9)",
              "7(13)",
              "7#11",
              "7(9)",
              "7b5",
              "7sus4",
              "7th",
              "dim7",
              "dim",
              "minMaj7(9)",
              "minMaj7",
              "min7(11)",
              "min7(9)",
              "min(9)",
              "m7b5",
              "min7",
              "min6",
              "aug",
              "Maj6(9)",
              "Maj7(9)",
              "Maj(9)",
              "Maj7#11",
              "Maj7",
              "Maj6",
              "Maj"
            ],
            "autoStart": false,
            "sourceChordNote": 0,
            "sourceChordType": "min7",
            "ctb2Low": null,
            "ctb2Main": {
              "ntr": "ROOT_TRANSPOSITION",
              "ntt": "MELODIC_MINOR_5",
              "bassOn": false,
              "chordRootUpperLimit": 7,
              "noteLowLimit": 55,
              "noteHighLimit": 77,
              "rtr": "PITCH_SHIFT"
            },
            "ctb2High": null
          },
          "notes": [
            {
              "pitch": 108,
              "velocity": 60,
              "position": 0.010416666666666666,
              "duration": 0.23125
            },
            {
              "pitch": 107,
              "velocity": 42,
              "position": 0.25,
              "duration": 0.22083333333333333
            },
            {
              "pitch": 106,
              "velocity": 42,
              "position": 0.5,
              "duration": 0.24166666666666667
            },
            {
              "pitch": 105,
              "velocity": 42,
              "position": 0.75,
              "duration": 0.22083333333333333
            },
            {
              "pitch": 108,
              "velocity": 60,
              "position": 1,
              "duration": 0.24166666666666667
            },
            {
              "pitch": 107,
              "velocity": 42,
              "position": 1.25,
              "duration": 0.22083333333333333
            },
            {
              "pitch": 106,
              "velocity": 42,
              "position": 1.5,
              "duration": 0.24166666666666667
            },
            {
              "pitch": 105,
              "velocity": 42,
              "position": 1.75,
              "duration": 0.22083333333333333
            },
            {
              "pitch": 108,
              "velocity": 60,
              "position": 2,
              "duration": 0.24166666666666667
            },
            {
              "pitch": 107,
              "velocity": 42,
              "position": 2.25,
              "duration": 0.22083333333333333
            },
            {
              "pitch": 106,
              "velocity": 42,
              "position": 2.5,
              "duration": 0.24166666666666667
            },
            {
              "pitch": 82,
              "velocity": 26,
              "position": 2.5208333333333335,
              "duration": 0.24166666666666667
            },
            {
              "pitch": 79,
              "velocity": 26,
              "position": 2.5,
              "duration": 0.2833333333333333
            },
            {
              "pitch": 105,
              "velocity": 42,
              "position": 2.75,
              "duration": 0.22083333333333333
            },
            {
              "pitch": 79,
              "velocity": 34,
              "position": 2.7916666666666665,
              "duration": 0.2
            },
            {
              "pitch": 82,
              "velocity": 34,
              "position": 2.7708333333333335,
              "duration": 0.24166666666666667
            },
            {
              "pitch": 87,
              "velocity": 26,
              "position": 2.5416666666666665,
              "duration": 0.49166666666666664
            },
            {
              "pitch": 108,
              "velocity": 60,
              "position": 3,
              "duration": 0.24166666666666667
            },
            {
              "pitch": 79,
              "velocity": 42,
              "position": 3,
              "duration": 0.2625
            },
            {
              "pitch": 82,
              "velocity": 42,
              "position": 3.0208333333333335,
              "duration": 0.2625
            },
            {
              "pitch": 87,
              "velocity": 42,
              "position": 3.0416666666666665,
              "duration": 0.2625
            },
            {
              "pitch": 107,
              "velocity": 42,
              "position": 3.25,
              "duration": 0.22083333333333333
            },
            {
              "pitch": 106,
              "velocity": 42,
              "position": 3.5,
              "duration": 0.24166666666666667
            },
            {
              "pitch": 105,
              "velocity": 42,
              "position": 3.75,
              "duration": 0.22083333333333333
            },
            {
              "pitch": 108,
              "velocity": 42,
              "position": 4,
              "duration": 0.24166666666666667
            },
            {
              "pitch": 107,
              "velocity": 42,
              "position": 4.25,
              "duration": 0.22083333333333333
            },
            {
              "pitch": 106,
              "velocity": 42,
              "position": 4.5,
              "duration": 0.24166666666666667
            },
            {
              "pitch": 105,
              "velocity": 60,
              "position": 4.75,
              "duration": 0.22083333333333333
            },
            {
              "pitch": 108,
              "velocity": 42,
              "position": 5,
              "duration": 0.24166666666666667
            },
            {
              "pitch": 107,
              "velocity": 42,
              "position": 5.25,
              "duration": 0.22083333333333333
            },
            {
              "pitch": 106,
              "velocity": 60,
              "position": 5.5,
              "duration": 0.24166666666666667
            },
            {
              "pitch": 105,
              "velocity": 42,
              "position": 5.75,
              "duration": 0.22083333333333333
            },
            {
              "pitch": 108,
              "velocity": 60,
              "position": 6,
              "duration": 0.24166666666666667
            },
            {
              "pitch": 107,
              "velocity": 42,
              "position": 6.25,
              "duration": 0.22083333333333333
            },
            {
              "pitch": 79,
              "velocity": 34,
              "position": 6.3125,
              "duration": 0.17916666666666667
            },
            {
              "pitch": 82,
              "velocity": 34,
              "position": 6.291666666666667,
              "duration": 0.22083333333333333
            },
            {
              "pitch": 106,
              "velocity": 42,
              "position": 6.5,
              "duration": 0.24166666666666667
            },
            {
              "pitch": 87,
              "velocity": 34,
              "position": 6.270833333333333,
              "duration": 0.49166666666666664
            },
            {
              "pitch": 82,
              "velocity": 26,
              "position": 6.520833333333333,
              "duration": 0.2625
            },
            {
              "pitch": 105,
              "velocity": 42,
              "position": 6.75,
              "duration": 0.22083333333333333
            },
            {
              "pitch": 79,
              "velocity": 26,
              "position": 6.5,
              "duration": 0.49166666666666664
            },
            {
              "pitch": 82,
              "velocity": 34,
              "position": 6.791666666666667,
              "duration": 0.22083333333333333
            },
            {
              "pitch": 87,
              "velocity": 34,
              "position": 6.770833333333333,
              "duration": 0.2625
            },
            {
              "pitch": 108,
              "velocity": 60,
              "position": 7,
              "duration": 0.24166666666666667
            },
            {
              "pitch": 79,
              "velocity": 44,
              "position": 7,
              "duration": 0.2625
            },
            {
              "pitch": 82,
              "velocity": 40,
              "position": 7.020833333333333,
              "duration": 0.2625
            },
            {
              "pitch": 87,
              "velocity": 39,
              "position": 7.041666666666667,
              "duration": 0.2625
            },
            {
              "pitch": 107,
              "velocity": 42,
              "position": 7.25,
              "duration": 0.22083333333333333
            },
            {
              "pitch": 106,
              "velocity": 42,
              "position": 7.5,
              "duration": 0.24166666666666667
            },
            {
              "pitch": 105,
              "velocity": 42,
              "position": 7.75,
              "duration": 0.22083333333333333
            },
            {
              "pitch": 108,
              "velocity": 60,
              "position": 8,
              "duration": 0.23125
            },
            {
              "pitch": 107,
              "velocity": 42,
              "position": 8.270833333333334,
              "duration": 0.22083333333333333
            },
            {
              "pitch": 106,
              "velocity": 42,
              "position": 8.5,
              "duration": 0.24166666666666667
            },
            {
              "pitch": 105,
              "velocity": 42,
              "position": 8.770833333333334,
              "duration": 0.22083333333333333
            },
            {
              "pitch": 108,
              "velocity": 60,
              "position": 9,
              "duration": 0.24166666666666667
            },
            {
              "pitch": 107,
              "velocity": 42,
              "position": 9.270833333333334,
              "duration": 0.22083333333333333
            },
            {
              "pitch": 106,
              "velocity": 42,
              "position": 9.5,
              "duration": 0.24166666666666667
            },
            {
              "pitch": 105,
              "velocity": 42,
              "position": 9.770833333333334,
              "duration": 0.22083333333333333
            },
            {
              "pitch": 108,
              "velocity": 60,
              "position": 10,
              "duration": 0.24166666666666667
            },
            {
              "pitch": 107,
              "velocity": 42,
              "position": 10.270833333333334,
              "duration": 0.22083333333333333
            },
            {
              "pitch": 106,
              "velocity": 42,
              "position": 10.5,
              "duration": 0.24166666666666667
            },
            {
              "pitch": 82,
              "velocity": 26,
              "position": 10.520833333333334,
              "duration": 0.24166666666666667
            },
            {
              "pitch": 79,
              "velocity": 26,
              "position": 10.5,
              "duration": 0.2833333333333333
            },
            {
              "pitch": 79,
              "velocity": 34,
              "position": 10.791666666666666,
              "duration": 0.2
            },
            {
              "pitch": 105,
              "velocity": 42,
              "position": 10.770833333333334,
              "duration": 0.22083333333333333
            },
            {
              "pitch": 82,
              "velocity": 34,
              "position": 10.770833333333334,
              "duration": 0.24166666666666667
            },
            {
              "pitch": 87,
              "velocity": 26,
              "position": 10.541666666666666,
              "duration": 0.49166666666666664
            },
            {
              "pitch": 108,
              "velocity": 60,
              "position": 11,
              "duration": 0.24166666666666667
            },
            {
              "pitch": 79,
              "velocity": 42,
              "position": 11,
              "duration": 0.2625
            },
            {
              "pitch": 82,
              "velocity": 42,
              "position": 11.020833333333334,
              "duration": 0.2625
            },
            {
              "pitch": 87,
              "velocity": 42,
              "position": 11.041666666666666,
              "duration": 0.2625
            },
            {
              "pitch": 107,
              "velocity": 42,
              "position": 11.270833333333334,
              "duration": 0.22083333333333333
            },
            {
              "pitch": 106,
              "velocity": 42,
              "position": 11.5,
              "duration": 0.24166666666666667
            },
            {
              "pitch": 105,
              "velocity": 42,
              "position": 11.770833333333334,
              "duration": 0.22083333333333333
            },
            {
              "pitch": 108,
              "velocity": 42,
              "position": 12,
              "duration": 0.24166666666666667
            },
            {
              "pitch": 107,
              "velocity": 42,
              "position": 12.270833333333334,
              "duration": 0.22083333333333333
            },
            {
              "pitch": 106,
              "velocity": 42,
              "position": 12.5,
              "duration": 0.24166666666666667
            },
            {
              "pitch": 105,
              "velocity": 60,
              "position": 12.770833333333334,
              "duration": 0.22083333333333333
            },
            {
              "pitch": 108,
              "velocity": 42,
              "position": 13,
              "duration": 0.24166666666666667
            },
            {
              "pitch": 107,
              "velocity": 42,
              "position": 13.270833333333334,
              "duration": 0.22083333333333333
            },
            {
              "pitch": 106,
              "velocity": 60,
              "position": 13.5,
              "duration": 0.24166666666666667
            },
            {
              "pitch": 105,
              "velocity": 42,
              "position": 13.770833333333334,
              "duration": 0.22083333333333333
            },
            {
              "pitch": 108,
              "velocity": 60,
              "position": 14,
              "duration": 0.24166666666666667
            },
            {
              "pitch": 82,
              "velocity": 26,
              "position": 14.020833333333334,
              "duration": 0.24166666666666667
            },
            {
              "pitch": 79,
              "velocity": 26,
              "position": 14,
              "duration": 0.2833333333333333
            },
            {
              "pitch": 79,
              "velocity": 34,
              "position": 14.291666666666666,
              "duration": 0.2
            },
            {
              "pitch": 107,
              "velocity": 42,
              "position": 14.270833333333334,
              "duration": 0.22083333333333333
            },
            {
              "pitch": 82,
              "velocity": 34,
              "position": 14.270833333333334,
              "duration": 0.24166666666666667
            },
            {
              "pitch": 87,
              "velocity": 26,
              "position": 14.041666666666666,
              "duration": 0.49166666666666664
            },
            {
              "pitch": 79,
              "velocity": 34,
              "position": 14.5,
              "duration": 0.20416666666666666
            },
            {
              "pitch": 82,
              "velocity": 34,
              "position": 14.520833333333334,
              "duration": 0.20416666666666666
            },
            {
              "pitch": 106,
              "velocity": 42,
              "position": 14.5,
              "duration": 0.24166666666666667
            },
            {
              "pitch": 87,
              "velocity": 34,
              "position": 14.541666666666666,
              "duration": 0.20416666666666666
            },
            {
              "pitch": 105,
              "velocity": 42,
              "position": 14.770833333333334,
              "duration": 0.22083333333333333
            },
            {
              "pitch": 108,
              "velocity": 60,
              "position": 15,
              "duration": 0.24166666666666667
            },
            {
              "pitch": 79,
              "velocity": 42,
              "position": 15,
              "duration": 0.28541666666666665
            },
            {
              "pitch": 82,
              "velocity": 42,
              "position": 15.020833333333334,
              "duration": 0.28541666666666665
            },
            {
              "pitch": 87,
              "velocity": 42,
              "position": 15.041666666666666,
              "duration": 0.28541666666666665
            },
            {
              "pitch": 107,
              "velocity": 42,
              "position": 15.270833333333334,
              "duration": 0.22083333333333333
            },
            {
              "pitch": 106,
              "velocity": 42,
              "position": 15.5,
              "duration": 0.24166666666666667
            },
            {
              "pitch": 105,
              "velocity": 42,
              "position": 15.770833333333334,
              "duration": 0.22083333333333333
            },
            {
              "pitch": 108,
              "velocity": 60,
              "position": 16,
              "duration": 0.23125
            },
            {
              "pitch": 107,
              "velocity": 42,
              "position": 16.270833333333332,
              "duration": 0.22083333333333333
            },
            {
              "pitch": 106,
              "velocity": 42,
              "position": 16.5,
              "duration": 0.24166666666666667
            },
            {
              "pitch": 105,
              "velocity": 42,
              "position": 16.770833333333332,
              "duration": 0.22083333333333333
            },
            {
              "pitch": 108,
              "velocity": 60,
              "position": 17,
              "duration": 0.24166666666666667
            },
            {
              "pitch": 107,
              "velocity": 42,
              "position": 17.270833333333332,
              "duration": 0.22083333333333333
            },
            {
              "pitch": 106,
              "velocity": 42,
              "position": 17.5,
              "duration": 0.24166666666666667
            },
            {
              "pitch": 105,
              "velocity": 42,
              "position": 17.770833333333332,
              "duration": 0.22083333333333333
            },
            {
              "pitch": 108,
              "velocity": 60,
              "position": 18,
              "duration": 0.24166666666666667
            },
            {
              "pitch": 107,
              "velocity": 42,
              "position": 18.270833333333332,
              "duration": 0.22083333333333333
            },
            {
              "pitch": 106,
              "velocity": 42,
              "position": 18.5,
              "duration": 0.24166666666666667
            },
            {
              "pitch": 82,
              "velocity": 26,
              "position": 18.520833333333332,
              "duration": 0.24166666666666667
            },
            {
              "pitch": 79,
              "velocity": 26,
              "position": 18.5,
              "duration": 0.2833333333333333
            },
            {
              "pitch": 79,
              "velocity": 34,
              "position": 18.791666666666668,
              "duration": 0.2
            },
            {
              "pitch": 105,
              "velocity": 42,
              "position": 18.770833333333332,
              "duration": 0.22083333333333333
            },
            {
              "pitch": 82,
              "velocity": 34,
              "position": 18.770833333333332,
              "duration": 0.24166666666666667
            },
            {
              "pitch": 87,
              "velocity": 26,
              "position": 18.541666666666668,
              "duration": 0.49166666666666664
            },
            {
              "pitch": 108,
              "velocity": 60,
              "position": 19,
              "duration": 0.24166666666666667
            },
            {
              "pitch": 79,
              "velocity": 42,
              "position": 19,
              "duration": 0.2625
            },
            {
              "pitch": 82,
              "velocity": 42,
              "position": 19.020833333333332,
              "duration": 0.2625
            },
            {
              "pitch": 87,
              "velocity": 42,
              "position": 19.041666666666668,
              "duration": 0.2625
            },
            {
              "pitch": 107,
              "velocity": 42,
              "position": 19.270833333333332,
              "duration": 0.22083333333333333
            },
            {
              "pitch": 106,
              "velocity": 42,
              "position": 19.5,
              "duration": 0.24166666666666667
            },
            {
              "pitch": 105,
              "velocity": 42,
              "position": 19.770833333333332,
              "duration": 0.22083333333333333
            },
            {
              "pitch": 108,
              "velocity": 42,
              "position": 20,
              "duration": 0.24166666666666667
            },
            {
              "pitch": 107,
              "velocity": 42,
              "position": 20.270833333333332,
              "duration": 0.22083333333333333
            },
            {
              "pitch": 106,
              "velocity": 42,
              "position": 20.5,
              "duration": 0.24166666666666667
            },
            {
              "pitch": 105,
              "velocity": 60,
              "position": 20.770833333333332,
              "duration": 0.22083333333333333
            },
            {
              "pitch": 108,
              "velocity": 42,
              "position": 21,
              "duration": 0.24166666666666667
            },
            {
              "pitch": 107,
              "velocity": 42,
              "position": 21.270833333333332,
              "duration": 0.22083333333333333
            },
            {
              "pitch": 106,
              "velocity": 60,
              "position": 21.5,
              "duration": 0.24166666666666667
            },
            {
              "pitch": 105,
              "velocity": 42,
              "position": 21.770833333333332,
              "duration": 0.22083333333333333
            },
            {
              "pitch": 108,
              "velocity": 60,
              "position": 22,
              "duration": 0.24166666666666667
            },
            {
              "pitch": 79,
              "velocity": 34,
              "position": 22.3125,
              "duration": 0.17916666666666667
            },
            {
              "pitch": 107,
              "velocity": 42,
              "position": 22.270833333333332,
              "duration": 0.22083333333333333
            },
            {
              "pitch": 82,
              "velocity": 34,
              "position": 22.291666666666668,
              "duration": 0.22083333333333333
            },
            {
              "pitch": 106,
              "velocity": 42,
              "position": 22.5,
              "duration": 0.24166666666666667
            },
            {
              "pitch": 87,
              "velocity": 34,
              "position": 22.270833333333332,
              "duration": 0.49166666666666664
            },
            {
              "pitch": 82,
              "velocity": 26,
              "position": 22.520833333333332,
              "duration": 0.2625
            },
            {
              "pitch": 79,
              "velocity": 26,
              "position": 22.5,
              "duration": 0.49166666666666664
            },
            {
              "pitch": 105,
              "velocity": 42,
              "position": 22.770833333333332,
              "duration": 0.22083333333333333
            },
            {
              "pitch": 82,
              "velocity": 34,
              "position": 22.791666666666668,
              "duration": 0.22083333333333333
            },
            {
              "pitch": 87,
              "velocity": 34,
              "position": 22.770833333333332,
              "duration": 0.2625
            },
            {
              "pitch": 108,
              "velocity": 60,
              "position": 23,
              "duration": 0.24166666666666667
            },
            {
              "pitch": 79,
              "velocity": 44,
              "position": 23,
              "duration": 0.2625
            },
            {
              "pitch": 82,
              "velocity": 40,
              "position": 23.020833333333332,
              "duration": 0.2625
            },
            {
              "pitch": 87,
              "velocity": 39,
              "position": 23.041666666666668,
              "duration": 0.2625
            },
            {
              "pitch": 107,
              "velocity": 42,
              "position": 23.270833333333332,
              "duration": 0.22083333333333333
            },
            {
              "pitch": 106,
              "velocity": 42,
              "position": 23.5,
              "duration": 0.24166666666666667
            },
            {
              "pitch": 105,
              "velocity": 42,
              "position": 23.770833333333332,
              "duration": 0.22083333333333333
            },
            {
              "pitch": 108,
              "velocity": 60,
              "position": 24,
              "duration": 0.23125
            },
            {
              "pitch": 107,
              "velocity": 42,
              "position": 24.270833333333332,
              "duration": 0.22083333333333333
            },
            {
              "pitch": 106,
              "velocity": 42,
              "position": 24.5,
              "duration": 0.24166666666666667
            },
            {
              "pitch": 105,
              "velocity": 42,
              "position": 24.770833333333332,
              "duration": 0.22083333333333333
            },
            {
              "pitch": 108,
              "velocity": 60,
              "position": 25,
              "duration": 0.24166666666666667
            },
            {
              "pitch": 107,
              "velocity": 42,
              "position": 25.270833333333332,
              "duration": 0.22083333333333333
            },
            {
              "pitch": 106,
              "velocity": 42,
              "position": 25.5,
              "duration": 0.24166666666666667
            },
            {
              "pitch": 105,
              "velocity": 42,
              "position": 25.770833333333332,
              "duration": 0.22083333333333333
            },
            {
              "pitch": 108,
              "velocity": 60,
              "position": 26,
              "duration": 0.24166666666666667
            },
            {
              "pitch": 107,
              "velocity": 42,
              "position": 26.270833333333332,
              "duration": 0.22083333333333333
            },
            {
              "pitch": 106,
              "velocity": 42,
              "position": 26.5,
              "duration": 0.24166666666666667
            },
            {
              "pitch": 82,
              "velocity": 26,
              "position": 26.520833333333332,
              "duration": 0.24166666666666667
            },
            {
              "pitch": 79,
              "velocity": 26,
              "position": 26.5,
              "duration": 0.2833333333333333
            },
            {
              "pitch": 79,
              "velocity": 34,
              "position": 26.791666666666668,
              "duration": 0.2
            },
            {
              "pitch": 105,
              "velocity": 42,
              "position": 26.770833333333332,
              "duration": 0.22083333333333333
            },
            {
              "pitch": 82,
              "velocity": 34,
              "position": 26.770833333333332,
              "duration": 0.24166666666666667
            },
            {
              "pitch": 87,
              "velocity": 26,
              "position": 26.541666666666668,
              "duration": 0.49166666666666664
            },
            {
              "pitch": 108,
              "velocity": 60,
              "position": 27,
              "duration": 0.24166666666666667
            },
            {
              "pitch": 79,
              "velocity": 42,
              "position": 27,
              "duration": 0.2625
            },
            {
              "pitch": 82,
              "velocity": 42,
              "position": 27.020833333333332,
              "duration": 0.2625
            },
            {
              "pitch": 87,
              "velocity": 42,
              "position": 27.041666666666668,
              "duration": 0.2625
            },
            {
              "pitch": 107,
              "velocity": 42,
              "position": 27.270833333333332,
              "duration": 0.22083333333333333
            },
            {
              "pitch": 106,
              "velocity": 42,
              "position": 27.5,
              "duration": 0.24166666666666667
            },
            {
              "pitch": 105,
              "velocity": 42,
              "position": 27.770833333333332,
              "duration": 0.22083333333333333
            },
            {
              "pitch": 108,
              "velocity": 42,
              "position": 28,
              "duration": 0.24166666666666667
            },
            {
              "pitch": 107,
              "velocity": 42,
              "position": 28.270833333333332,
              "duration": 0.22083333333333333
            },
            {
              "pitch": 106,
              "velocity": 42,
              "position": 28.5,
              "duration": 0.24166666666666667
            },
            {
              "pitch": 105,
              "velocity": 60,
              "position": 28.770833333333332,
              "duration": 0.22083333333333333
            },
            {
              "pitch": 108,
              "velocity": 42,
              "position": 29,
              "duration": 0.24166666666666667
            },
            {
              "pitch": 107,
              "velocity": 42,
              "position": 29.270833333333332,
              "duration": 0.22083333333333333
            },
            {
              "pitch": 106,
              "velocity": 60,
              "position": 29.5,
              "duration": 0.24166666666666667
            },
            {
              "pitch": 105,
              "velocity": 42,
              "position": 29.770833333333332,
              "duration": 0.22083333333333333
            },
            {
              "pitch": 108,
              "velocity": 60,
              "position": 30,
              "duration": 0.24166666666666667
            },
            {
              "pitch": 82,
              "velocity": 26,
              "position": 30.020833333333332,
              "duration": 0.24166666666666667
            },
            {
              "pitch": 79,
              "velocity": 26,
              "position": 30,
              "duration": 0.2833333333333333
            },
            {
              "pitch": 79,
              "velocity": 34,
              "position": 30.291666666666668,
              "duration": 0.2
            },
            {
              "pitch": 107,
              "velocity": 42,
              "position": 30.270833333333332,
              "duration": 0.22083333333333333
            },
            {
              "pitch": 82,
              "velocity": 34,
              "position": 30.270833333333332,
              "duration": 0.24166666666666667
            },
            {
              "pitch": 87,
              "velocity": 26,
              "position": 30.041666666666668,
              "duration": 0.49166666666666664
            },
            {
              "pitch": 79,
              "velocity": 34,
              "position": 30.5,
              "duration": 0.20416666666666666
            },
            {
              "pitch": 82,
              "velocity": 34,
              "position": 30.520833333333332,
              "duration": 0.20416666666666666
            },
            {
              "pitch": 106,
              "velocity": 42,
              "position": 30.5,
              "duration": 0.24166666666666667
            },
            {
              "pitch": 87,
              "velocity": 34,
              "position": 30.541666666666668,
              "duration": 0.20416666666666666
            },
            {
              "pitch": 105,
              "velocity": 42,
              "position": 30.770833333333332,
              "duration": 0.22083333333333333
            },
            {
              "pitch": 108,
              "velocity": 60,
              "position": 31,
              "duration": 0.24166666666666667
            },
            {
              "pitch": 79,
              "velocity": 42,
              "position": 31,
              "duration": 0.28541666666666665
            },
            {
              "pitch": 82,
              "velocity": 42,
              "position": 31.020833333333332,
              "duration": 0.28541666666666665
            },
            {
              "pitch": 87,
              "velocity": 42,
              "position": 31.041666666666668,
              "duration": 0.28541666666666665
            },
            {
              "pitch": 107,
              "velocity": 42,
              "position": 31.270833333333332,
              "duration": 0.22083333333333333
            },
            {
              "pitch": 106,
              "velocity": 42,
              "position": 31.5,
              "duration": 0.24166666666666667
            },
            {
              "pitch": 105,
              "velocity": 42,
              "position": 31.770833333333332,
              "duration": 0.22083333333333333
            }
          ]
        },
        "3": {
          "ctab": {
            "srcChannel": 3,
            "name": "Gt",
            "accType": "CHORD1",
            "editable": false,
            "mutedNotes": [],
            "mutedChords": [
              "7th",
              "min",
              "Maj"
            ],
            "autoStart": false,
            "sourceChordNote": 0,
            "sourceChordType": "Maj7",
            "ctb2Low": null,
            "ctb2Main": {
              "ntr": "ROOT_FIXED",
              "ntt": "CHORD",
              "bassOn": false,
              "chordRootUpperLimit": 7,
              "noteLowLimit": 55,
              "noteHighLimit": 77,
              "rtr": "PITCH_SHIFT"
            },
            "ctb2High": null
          },
          "notes": [
            {
              "pitch": 108,
              "velocity": 60,
              "position": 0.010416666666666666,
              "duration": 0.23125
            },
            {
              "pitch": 107,
              "velocity": 42,
              "position": 0.25,
              "duration": 0.22083333333333333
            },
            {
              "pitch": 106,
              "velocity": 42,
              "position": 0.5,
              "duration": 0.24166666666666667
            },
            {
              "pitch": 105,
              "velocity": 42,
              "position": 0.75,
              "duration": 0.22083333333333333
            },
            {
              "pitch": 108,
              "velocity": 60,
              "position": 1,
              "duration": 0.24166666666666667
            },
            {
              "pitch": 107,
              "velocity": 42,
              "position": 1.25,
              "duration": 0.22083333333333333
            },
            {
              "pitch": 106,
              "velocity": 42,
              "position": 1.5,
              "duration": 0.24166666666666667
            },
            {
              "pitch": 105,
              "velocity": 42,
              "position": 1.75,
              "duration": 0.22083333333333333
            },
            {
              "pitch": 108,
              "velocity": 60,
              "position": 2,
              "duration": 0.24166666666666667
            },
            {
              "pitch": 107,
              "velocity": 42,
              "position": 2.25,
              "duration": 0.22083333333333333
            },
            {
              "pitch": 106,
              "velocity": 42,
              "position": 2.5,
              "duration": 0.24166666666666667
            },
            {
              "pitch": 83,
              "velocity": 26,
              "position": 2.5208333333333335,
              "duration": 0.24166666666666667
            },
            {
              "pitch": 79,
              "velocity": 26,
              "position": 2.5,
              "duration": 0.2833333333333333
            },
            {
              "pitch": 105,
              "velocity": 42,
              "position": 2.75,
              "duration": 0.22083333333333333
            },
            {
              "pitch": 79,
              "velocity": 34,
              "position": 2.7916666666666665,
              "duration": 0.2
            },
            {
              "pitch": 83,
              "velocity": 34,
              "position": 2.7708333333333335,
              "duration": 0.24166666666666667
            },
            {
              "pitch": 88,
              "velocity": 26,
              "position": 2.5416666666666665,
              "duration": 0.49166666666666664
            },
            {
              "pitch": 108,
              "velocity": 60,
              "position": 3,
              "duration": 0.24166666666666667
            },
            {
              "pitch": 79,
              "velocity": 42,
              "position": 3,
              "duration": 0.2625
            },
            {
              "pitch": 83,
              "velocity": 42,
              "position": 3.0208333333333335,
              "duration": 0.2625
            },
            {
              "pitch": 88,
              "velocity": 42,
              "position": 3.0416666666666665,
              "duration": 0.2625
            },
            {
              "pitch": 107,
              "velocity": 42,
              "position": 3.25,
              "duration": 0.22083333333333333
            },
            {
              "pitch": 106,
              "velocity": 42,
              "position": 3.5,
              "duration": 0.24166666666666667
            },
            {
              "pitch": 105,
              "velocity": 42,
              "position": 3.75,
              "duration": 0.22083333333333333
            },
            {
              "pitch": 108,
              "velocity": 42,
              "position": 4,
              "duration": 0.24166666666666667
            },
            {
              "pitch": 107,
              "velocity": 42,
              "position": 4.25,
              "duration": 0.22083333333333333
            },
            {
              "pitch": 106,
              "velocity": 42,
              "position": 4.5,
              "duration": 0.24166666666666667
            },
            {
              "pitch": 105,
              "velocity": 60,
              "position": 4.75,
              "duration": 0.22083333333333333
            },
            {
              "pitch": 108,
              "velocity": 42,
              "position": 5,
              "duration": 0.24166666666666667
            },
            {
              "pitch": 107,
              "velocity": 42,
              "position": 5.25,
              "duration": 0.22083333333333333
            },
            {
              "pitch": 106,
              "velocity": 60,
              "position": 5.5,
              "duration": 0.24166666666666667
            },
            {
              "pitch": 105,
              "velocity": 42,
              "position": 5.75,
              "duration": 0.22083333333333333
            },
            {
              "pitch": 108,
              "velocity": 60,
              "position": 6,
              "duration": 0.24166666666666667
            },
            {
              "pitch": 107,
              "velocity": 42,
              "position": 6.25,
              "duration": 0.22083333333333333
            },
            {
              "pitch": 79,
              "velocity": 34,
              "position": 6.3125,
              "duration": 0.17916666666666667
            },
            {
              "pitch": 83,
              "velocity": 34,
              "position": 6.291666666666667,
              "duration": 0.22083333333333333
            },
            {
              "pitch": 106,
              "velocity": 42,
              "position": 6.5,
              "duration": 0.24166666666666667
            },
            {
              "pitch": 88,
              "velocity": 34,
              "position": 6.270833333333333,
              "duration": 0.49166666666666664
            },
            {
              "pitch": 83,
              "velocity": 26,
              "position": 6.520833333333333,
              "duration": 0.2625
            },
            {
              "pitch": 105,
              "velocity": 42,
              "position": 6.75,
              "duration": 0.22083333333333333
            },
            {
              "pitch": 79,
              "velocity": 26,
              "position": 6.5,
              "duration": 0.49166666666666664
            },
            {
              "pitch": 83,
              "velocity": 34,
              "position": 6.791666666666667,
              "duration": 0.22083333333333333
            },
            {
              "pitch": 88,
              "velocity": 34,
              "position": 6.770833333333333,
              "duration": 0.2625
            },
            {
              "pitch": 108,
              "velocity": 60,
              "position": 7,
              "duration": 0.24166666666666667
            },
            {
              "pitch": 79,
              "velocity": 44,
              "position": 7,
              "duration": 0.2625
            },
            {
              "pitch": 83,
              "velocity": 40,
              "position": 7.020833333333333,
              "duration": 0.2625
            },
            {
              "pitch": 88,
              "velocity": 39,
              "position": 7.041666666666667,
              "duration": 0.2625
            },
            {
              "pitch": 107,
              "velocity": 42,
              "position": 7.25,
              "duration": 0.22083333333333333
            },
            {
              "pitch": 106,
              "velocity": 42,
              "position": 7.5,
              "duration": 0.24166666666666667
            },
            {
              "pitch": 105,
              "velocity": 42,
              "position": 7.75,
              "duration": 0.22083333333333333
            },
            {
              "pitch": 108,
              "velocity": 60,
              "position": 8,
              "duration": 0.23125
            },
            {
              "pitch": 107,
              "velocity": 42,
              "position": 8.270833333333334,
              "duration": 0.22083333333333333
            },
            {
              "pitch": 106,
              "velocity": 42,
              "position": 8.5,
              "duration": 0.24166666666666667
            },
            {
              "pitch": 105,
              "velocity": 42,
              "position": 8.770833333333334,
              "duration": 0.22083333333333333
            },
            {
              "pitch": 108,
              "velocity": 60,
              "position": 9,
              "duration": 0.24166666666666667
            },
            {
              "pitch": 107,
              "velocity": 42,
              "position": 9.270833333333334,
              "duration": 0.22083333333333333
            },
            {
              "pitch": 106,
              "velocity": 42,
              "position": 9.5,
              "duration": 0.24166666666666667
            },
            {
              "pitch": 105,
              "velocity": 42,
              "position": 9.770833333333334,
              "duration": 0.22083333333333333
            },
            {
              "pitch": 108,
              "velocity": 60,
              "position": 10,
              "duration": 0.24166666666666667
            },
            {
              "pitch": 107,
              "velocity": 42,
              "position": 10.270833333333334,
              "duration": 0.22083333333333333
            },
            {
              "pitch": 106,
              "velocity": 42,
              "position": 10.5,
              "duration": 0.24166666666666667
            },
            {
              "pitch": 83,
              "velocity": 26,
              "position": 10.520833333333334,
              "duration": 0.24166666666666667
            },
            {
              "pitch": 79,
              "velocity": 26,
              "position": 10.5,
              "duration": 0.2833333333333333
            },
            {
              "pitch": 79,
              "velocity": 34,
              "position": 10.791666666666666,
              "duration": 0.2
            },
            {
              "pitch": 105,
              "velocity": 42,
              "position": 10.770833333333334,
              "duration": 0.22083333333333333
            },
            {
              "pitch": 83,
              "velocity": 34,
              "position": 10.770833333333334,
              "duration": 0.24166666666666667
            },
            {
              "pitch": 88,
              "velocity": 26,
              "position": 10.541666666666666,
              "duration": 0.49166666666666664
            },
            {
              "pitch": 108,
              "velocity": 60,
              "position": 11,
              "duration": 0.24166666666666667
            },
            {
              "pitch": 79,
              "velocity": 42,
              "position": 11,
              "duration": 0.2625
            },
            {
              "pitch": 83,
              "velocity": 42,
              "position": 11.020833333333334,
              "duration": 0.2625
            },
            {
              "pitch": 88,
              "velocity": 42,
              "position": 11.041666666666666,
              "duration": 0.2625
            },
            {
              "pitch": 107,
              "velocity": 42,
              "position": 11.270833333333334,
              "duration": 0.22083333333333333
            },
            {
              "pitch": 106,
              "velocity": 42,
              "position": 11.5,
              "duration": 0.24166666666666667
            },
            {
              "pitch": 105,
              "velocity": 42,
              "position": 11.770833333333334,
              "duration": 0.22083333333333333
            },
            {
              "pitch": 108,
              "velocity": 42,
              "position": 12,
              "duration": 0.24166666666666667
            },
            {
              "pitch": 107,
              "velocity": 42,
              "position": 12.270833333333334,
              "duration": 0.22083333333333333
            },
            {
              "pitch": 106,
              "velocity": 42,
              "position": 12.5,
              "duration": 0.24166666666666667
            },
            {
              "pitch": 105,
              "velocity": 60,
              "position": 12.770833333333334,
              "duration": 0.22083333333333333
            },
            {
              "pitch": 108,
              "velocity": 42,
              "position": 13,
              "duration": 0.24166666666666667
            },
            {
              "pitch": 107,
              "velocity": 42,
              "position": 13.270833333333334,
              "duration": 0.22083333333333333
            },
            {
              "pitch": 106,
              "velocity": 60,
              "position": 13.5,
              "duration": 0.24166666666666667
            },
            {
              "pitch": 105,
              "velocity": 42,
              "position": 13.770833333333334,
              "duration": 0.22083333333333333
            },
            {
              "pitch": 108,
              "velocity": 60,
              "position": 14,
              "duration": 0.24166666666666667
            },
            {
              "pitch": 83,
              "velocity": 26,
              "position": 14.020833333333334,
              "duration": 0.24166666666666667
            },
            {
              "pitch": 79,
              "velocity": 26,
              "position": 14,
              "duration": 0.2833333333333333
            },
            {
              "pitch": 79,
              "velocity": 34,
              "position": 14.291666666666666,
              "duration": 0.2
            },
            {
              "pitch": 107,
              "velocity": 42,
              "position": 14.270833333333334,
              "duration": 0.22083333333333333
            },
            {
              "pitch": 83,
              "velocity": 34,
              "position": 14.270833333333334,
              "duration": 0.24166666666666667
            },
            {
              "pitch": 88,
              "velocity": 26,
              "position": 14.041666666666666,
              "duration": 0.49166666666666664
            },
            {
              "pitch": 79,
              "velocity": 34,
              "position": 14.5,
              "duration": 0.20416666666666666
            },
            {
              "pitch": 83,
              "velocity": 34,
              "position": 14.520833333333334,
              "duration": 0.20416666666666666
            },
            {
              "pitch": 106,
              "velocity": 42,
              "position": 14.5,
              "duration": 0.24166666666666667
            },
            {
              "pitch": 88,
              "velocity": 34,
              "position": 14.541666666666666,
              "duration": 0.20416666666666666
            },
            {
              "pitch": 105,
              "velocity": 42,
              "position": 14.770833333333334,
              "duration": 0.22083333333333333
            },
            {
              "pitch": 108,
              "velocity": 60,
              "position": 15,
              "duration": 0.24166666666666667
            },
            {
              "pitch": 79,
              "velocity": 42,
              "position": 15,
              "duration": 0.28541666666666665
            },
            {
              "pitch": 83,
              "velocity": 42,
              "position": 15.020833333333334,
              "duration": 0.28541666666666665
            },
            {
              "pitch": 88,
              "velocity": 42,
              "position": 15.041666666666666,
              "duration": 0.28541666666666665
            },
            {
              "pitch": 107,
              "velocity": 42,
              "position": 15.270833333333334,
              "duration": 0.22083333333333333
            },
            {
              "pitch": 106,
              "velocity": 42,
              "position": 15.5,
              "duration": 0.24166666666666667
            },
            {
              "pitch": 105,
              "velocity": 42,
              "position": 15.770833333333334,
              "duration": 0.22083333333333333
            },
            {
              "pitch": 108,
              "velocity": 60,
              "position": 16,
              "duration": 0.23125
            },
            {
              "pitch": 107,
              "velocity": 42,
              "position": 16.270833333333332,
              "duration": 0.22083333333333333
            },
            {
              "pitch": 106,
              "velocity": 42,
              "position": 16.5,
              "duration": 0.24166666666666667
            },
            {
              "pitch": 105,
              "velocity": 42,
              "position": 16.770833333333332,
              "duration": 0.22083333333333333
            },
            {
              "pitch": 108,
              "velocity": 60,
              "position": 17,
              "duration": 0.24166666666666667
            },
            {
              "pitch": 107,
              "velocity": 42,
              "position": 17.270833333333332,
              "duration": 0.22083333333333333
            },
            {
              "pitch": 106,
              "velocity": 42,
              "position": 17.5,
              "duration": 0.24166666666666667
            },
            {
              "pitch": 105,
              "velocity": 42,
              "position": 17.770833333333332,
              "duration": 0.22083333333333333
            },
            {
              "pitch": 108,
              "velocity": 60,
              "position": 18,
              "duration": 0.24166666666666667
            },
            {
              "pitch": 107,
              "velocity": 42,
              "position": 18.270833333333332,
              "duration": 0.22083333333333333
            },
            {
              "pitch": 106,
              "velocity": 42,
              "position": 18.5,
              "duration": 0.24166666666666667
            },
            {
              "pitch": 83,
              "velocity": 26,
              "position": 18.520833333333332,
              "duration": 0.24166666666666667
            },
            {
              "pitch": 79,
              "velocity": 26,
              "position": 18.5,
              "duration": 0.2833333333333333
            },
            {
              "pitch": 79,
              "velocity": 34,
              "position": 18.791666666666668,
              "duration": 0.2
            },
            {
              "pitch": 105,
              "velocity": 42,
              "position": 18.770833333333332,
              "duration": 0.22083333333333333
            },
            {
              "pitch": 83,
              "velocity": 34,
              "position": 18.770833333333332,
              "duration": 0.24166666666666667
            },
            {
              "pitch": 88,
              "velocity": 26,
              "position": 18.541666666666668,
              "duration": 0.49166666666666664
            },
            {
              "pitch": 108,
              "velocity": 60,
              "position": 19,
              "duration": 0.24166666666666667
            },
            {
              "pitch": 79,
              "velocity": 42,
              "position": 19,
              "duration": 0.2625
            },
            {
              "pitch": 83,
              "velocity": 42,
              "position": 19.020833333333332,
              "duration": 0.2625
            },
            {
              "pitch": 88,
              "velocity": 42,
              "position": 19.041666666666668,
              "duration": 0.2625
            },
            {
              "pitch": 107,
              "velocity": 42,
              "position": 19.270833333333332,
              "duration": 0.22083333333333333
            },
            {
              "pitch": 106,
              "velocity": 42,
              "position": 19.5,
              "duration": 0.24166666666666667
            },
            {
              "pitch": 105,
              "velocity": 42,
              "position": 19.770833333333332,
              "duration": 0.22083333333333333
            },
            {
              "pitch": 108,
              "velocity": 42,
              "position": 20,
              "duration": 0.24166666666666667
            },
            {
              "pitch": 107,
              "velocity": 42,
              "position": 20.270833333333332,
              "duration": 0.22083333333333333
            },
            {
              "pitch": 106,
              "velocity": 42,
              "position": 20.5,
              "duration": 0.24166666666666667
            },
            {
              "pitch": 105,
              "velocity": 60,
              "position": 20.770833333333332,
              "duration": 0.22083333333333333
            },
            {
              "pitch": 108,
              "velocity": 42,
              "position": 21,
              "duration": 0.24166666666666667
            },
            {
              "pitch": 107,
              "velocity": 42,
              "position": 21.270833333333332,
              "duration": 0.22083333333333333
            },
            {
              "pitch": 106,
              "velocity": 60,
              "position": 21.5,
              "duration": 0.24166666666666667
            },
            {
              "pitch": 105,
              "velocity": 42,
              "position": 21.770833333333332,
              "duration": 0.22083333333333333
            },
            {
              "pitch": 108,
              "velocity": 60,
              "position": 22,
              "duration": 0.24166666666666667
            },
            {
              "pitch": 79,
              "velocity": 34,
              "position": 22.3125,
              "duration": 0.17916666666666667
            },
            {
              "pitch": 107,
              "velocity": 42,
              "position": 22.270833333333332,
              "duration": 0.22083333333333333
            },
            {
              "pitch": 83,
              "velocity": 34,
              "position": 22.291666666666668,
              "duration": 0.22083333333333333
            },
            {
              "pitch": 106,
              "velocity": 42,
              "position": 22.5,
              "duration": 0.24166666666666667
            },
            {
              "pitch": 88,
              "velocity": 34,
              "position": 22.270833333333332,
              "duration": 0.49166666666666664
            },
            {
              "pitch": 83,
              "velocity": 26,
              "position": 22.520833333333332,
              "duration": 0.2625
            },
            {
              "pitch": 79,
              "velocity": 26,
              "position": 22.5,
              "duration": 0.49166666666666664
            },
            {
              "pitch": 105,
              "velocity": 42,
              "position": 22.770833333333332,
              "duration": 0.22083333333333333
            },
            {
              "pitch": 83,
              "velocity": 34,
              "position": 22.791666666666668,
              "duration": 0.22083333333333333
            },
            {
              "pitch": 88,
              "velocity": 34,
              "position": 22.770833333333332,
              "duration": 0.2625
            },
            {
              "pitch": 108,
              "velocity": 60,
              "position": 23,
              "duration": 0.24166666666666667
            },
            {
              "pitch": 79,
              "velocity": 44,
              "position": 23,
              "duration": 0.2625
            },
            {
              "pitch": 83,
              "velocity": 40,
              "position": 23.020833333333332,
              "duration": 0.2625
            },
            {
              "pitch": 88,
              "velocity": 39,
              "position": 23.041666666666668,
              "duration": 0.2625
            },
            {
              "pitch": 107,
              "velocity": 42,
              "position": 23.270833333333332,
              "duration": 0.22083333333333333
            },
            {
              "pitch": 106,
              "velocity": 42,
              "position": 23.5,
              "duration": 0.24166666666666667
            },
            {
              "pitch": 105,
              "velocity": 42,
              "position": 23.770833333333332,
              "duration": 0.22083333333333333
            },
            {
              "pitch": 108,
              "velocity": 60,
              "position": 24,
              "duration": 0.23125
            },
            {
              "pitch": 107,
              "velocity": 42,
              "position": 24.270833333333332,
              "duration": 0.22083333333333333
            },
            {
              "pitch": 106,
              "velocity": 42,
              "position": 24.5,
              "duration": 0.24166666666666667
            },
            {
              "pitch": 105,
              "velocity": 42,
              "position": 24.770833333333332,
              "duration": 0.22083333333333333
            },
            {
              "pitch": 108,
              "velocity": 60,
              "position": 25,
              "duration": 0.24166666666666667
            },
            {
              "pitch": 107,
              "velocity": 42,
              "position": 25.270833333333332,
              "duration": 0.22083333333333333
            },
            {
              "pitch": 106,
              "velocity": 42,
              "position": 25.5,
              "duration": 0.24166666666666667
            },
            {
              "pitch": 105,
              "velocity": 42,
              "position": 25.770833333333332,
              "duration": 0.22083333333333333
            },
            {
              "pitch": 108,
              "velocity": 60,
              "position": 26,
              "duration": 0.24166666666666667
            },
            {
              "pitch": 107,
              "velocity": 42,
              "position": 26.270833333333332,
              "duration": 0.22083333333333333
            },
            {
              "pitch": 106,
              "velocity": 42,
              "position": 26.5,
              "duration": 0.24166666666666667
            },
            {
              "pitch": 83,
              "velocity": 26,
              "position": 26.520833333333332,
              "duration": 0.24166666666666667
            },
            {
              "pitch": 79,
              "velocity": 26,
              "position": 26.5,
              "duration": 0.2833333333333333
            },
            {
              "pitch": 79,
              "velocity": 34,
              "position": 26.791666666666668,
              "duration": 0.2
            },
            {
              "pitch": 105,
              "velocity": 42,
              "position": 26.770833333333332,
              "duration": 0.22083333333333333
            },
            {
              "pitch": 83,
              "velocity": 34,
              "position": 26.770833333333332,
              "duration": 0.24166666666666667
            },
            {
              "pitch": 88,
              "velocity": 26,
              "position": 26.541666666666668,
              "duration": 0.49166666666666664
            },
            {
              "pitch": 108,
              "velocity": 60,
              "position": 27,
              "duration": 0.24166666666666667
            },
            {
              "pitch": 79,
              "velocity": 42,
              "position": 27,
              "duration": 0.2625
            },
            {
              "pitch": 83,
              "velocity": 42,
              "position": 27.020833333333332,
              "duration": 0.2625
            },
            {
              "pitch": 88,
              "velocity": 42,
              "position": 27.041666666666668,
              "duration": 0.2625
            },
            {
              "pitch": 107,
              "velocity": 42,
              "position": 27.270833333333332,
              "duration": 0.22083333333333333
            },
            {
              "pitch": 106,
              "velocity": 42,
              "position": 27.5,
              "duration": 0.24166666666666667
            },
            {
              "pitch": 105,
              "velocity": 42,
              "position": 27.770833333333332,
              "duration": 0.22083333333333333
            },
            {
              "pitch": 108,
              "velocity": 42,
              "position": 28,
              "duration": 0.24166666666666667
            },
            {
              "pitch": 107,
              "velocity": 42,
              "position": 28.270833333333332,
              "duration": 0.22083333333333333
            },
            {
              "pitch": 106,
              "velocity": 42,
              "position": 28.5,
              "duration": 0.24166666666666667
            },
            {
              "pitch": 105,
              "velocity": 60,
              "position": 28.770833333333332,
              "duration": 0.22083333333333333
            },
            {
              "pitch": 108,
              "velocity": 42,
              "position": 29,
              "duration": 0.24166666666666667
            },
            {
              "pitch": 107,
              "velocity": 42,
              "position": 29.270833333333332,
              "duration": 0.22083333333333333
            },
            {
              "pitch": 106,
              "velocity": 60,
              "position": 29.5,
              "duration": 0.24166666666666667
            },
            {
              "pitch": 105,
              "velocity": 42,
              "position": 29.770833333333332,
              "duration": 0.22083333333333333
            },
            {
              "pitch": 108,
              "velocity": 60,
              "position": 30,
              "duration": 0.24166666666666667
            },
            {
              "pitch": 83,
              "velocity": 26,
              "position": 30.020833333333332,
              "duration": 0.24166666666666667
            },
            {
              "pitch": 79,
              "velocity": 26,
              "position": 30,
              "duration": 0.2833333333333333
            },
            {
              "pitch": 79,
              "velocity": 34,
              "position": 30.291666666666668,
              "duration": 0.2
            },
            {
              "pitch": 107,
              "velocity": 42,
              "position": 30.270833333333332,
              "duration": 0.22083333333333333
            },
            {
              "pitch": 83,
              "velocity": 34,
              "position": 30.270833333333332,
              "duration": 0.24166666666666667
            },
            {
              "pitch": 88,
              "velocity": 26,
              "position": 30.041666666666668,
              "duration": 0.49166666666666664
            },
            {
              "pitch": 79,
              "velocity": 34,
              "position": 30.5,
              "duration": 0.20416666666666666
            },
            {
              "pitch": 83,
              "velocity": 34,
              "position": 30.520833333333332,
              "duration": 0.20416666666666666
            },
            {
              "pitch": 106,
              "velocity": 42,
              "position": 30.5,
              "duration": 0.24166666666666667
            },
            {
              "pitch": 88,
              "velocity": 34,
              "position": 30.541666666666668,
              "duration": 0.20416666666666666
            },
            {
              "pitch": 105,
              "velocity": 42,
              "position": 30.770833333333332,
              "duration": 0.22083333333333333
            },
            {
              "pitch": 108,
              "velocity": 60,
              "position": 31,
              "duration": 0.24166666666666667
            },
            {
              "pitch": 79,
              "velocity": 42,
              "position": 31,
              "duration": 0.28541666666666665
            },
            {
              "pitch": 83,
              "velocity": 42,
              "position": 31.020833333333332,
              "duration": 0.28541666666666665
            },
            {
              "pitch": 88,
              "velocity": 42,
              "position": 31.041666666666668,
              "duration": 0.28541666666666665
            },
            {
              "pitch": 107,
              "velocity": 42,
              "position": 31.270833333333332,
              "duration": 0.22083333333333333
            },
            {
              "pitch": 106,
              "velocity": 42,
              "position": 31.5,
              "duration": 0.24166666666666667
            },
            {
              "pitch": 105,
              "velocity": 42,
              "position": 31.770833333333332,
              "duration": 0.22083333333333333
            }
          ]
        },
        "4": {
          "ctab": {
            "srcChannel": 4,
            "name": "Brs a",
            "accType": "PHRASE1",
            "editable": false,
            "mutedNotes": [],
            "mutedChords": [
              "dim7",
              "minMaj7(9)",
              "minMaj7",
              "min6",
              "Maj6(9)",
              "Maj7(9)",
              "Maj(9)",
              "Maj7#11",
              "Maj7",
              "Maj6"
            ],
            "autoStart": false,
            "sourceChordNote": 0,
            "sourceChordType": "7th",
            "ctb2Low": null,
            "ctb2Main": {
              "ntr": "ROOT_TRANSPOSITION",
              "ntt": "MELODIC_MINOR_5",
              "bassOn": false,
              "chordRootUpperLimit": 5,
              "noteLowLimit": 34,
              "noteHighLimit": 127,
              "rtr": "PITCH_SHIFT"
            },
            "ctb2High": null
          },
          "notes": []
        },
        "5": {
          "ctab": {
            "srcChannel": 5,
            "name": "Brs b",
            "accType": "PHRASE1",
            "editable": false,
            "mutedNotes": [],
            "mutedChords": [
              "1+2+5",
              "sus4",
              "1+5",
              "1+8",
              "7aug",
              "Maj7aug",
              "7(#9)",
              "7(b13)",
              "7(b9)",
              "7(13)",
              "7#11",
              "7(9)",
              "7b5",
              "7sus4",
              "7th",
              "dim",
              "min7(11)",
              "min7(9)",
              "min(9)",
              "m7b5",
              "min7",
              "min",
              "aug",
              "Maj"
            ],
            "autoStart": false,
            "sourceChordNote": 0,
            "sourceChordType": "Maj7",
            "ctb2Low": null,
            "ctb2Main": {
              "ntr": "ROOT_TRANSPOSITION",
              "ntt": "MELODIC_MINOR_5",
              "bassOn": false,
              "chordRootUpperLimit": 5,
              "noteLowLimit": 34,
              "noteHighLimit": 127,
              "rtr": "PITCH_SHIFT"
            },
            "ctb2High": null
          },
          "notes": []
        },
        "6": {
          "ctab": {
            "srcChannel": 6,
            "name": "Hns a",
            "accType": "PHRASE2",
            "editable": false,
            "mutedNotes": [],
            "mutedChords": [
              "dim7",
              "minMaj7(9)",
              "minMaj7",
              "min6",
              "Maj6(9)",
              "Maj7(9)",
              "Maj(9)",
              "Maj7#11",
              "Maj7",
              "Maj6"
            ],
            "autoStart": false,
            "sourceChordNote": 0,
            "sourceChordType": "7th",
            "ctb2Low": null,
            "ctb2Main": {
              "ntr": "ROOT_TRANSPOSITION",
              "ntt": "MELODIC_MINOR_5",
              "bassOn": false,
              "chordRootUpperLimit": 0,
              "noteLowLimit": 34,
              "noteHighLimit": 127,
              "rtr": "PITCH_SHIFT"
            },
            "ctb2High": null
          },
          "notes": []
        },
        "7": {
          "ctab": {
            "srcChannel": 7,
            "name": "Hns b",
            "accType": "PHRASE2",
            "editable": false,
            "mutedNotes": [],
            "mutedChords": [
              "1+2+5",
              "sus4",
              "1+5",
              "1+8",
              "7aug",
              "Maj7aug",
              "7(#9)",
              "7(b13)",
              "7(b9)",
              "7(13)",
              "7#11",
              "7(9)",
              "7b5",
              "7sus4",
              "7th",
              "dim",
              "min7(11)",
              "min7(9)",
              "min(9)",
              "m7b5",
              "min7",
              "min",
              "aug",
              "Maj"
            ],
            "autoStart": false,
            "sourceChordNote": 0,
            "sourceChordType": "Maj7",
            "ctb2Low": null,
            "ctb2Main": {
              "ntr": "ROOT_TRANSPOSITION",
              "ntt": "MELODIC_MINOR_5",
              "bassOn": false,
              "chordRootUpperLimit": 0,
              "noteLowLimit": 34,
              "noteHighLimit": 127,
              "rtr": "PITCH_SHIFT"
            },
            "ctb2High": null
          },
          "notes": []
        },
        "8": {
          "ctab": {
            "srcChannel": 8,
            "name": "Perc.",
            "accType": "SUBRHYTHM",
            "editable": false,
            "mutedNotes": [],
            "mutedChords": [],
            "autoStart": true,
            "sourceChordNote": 0,
            "sourceChordType": "Maj7",
            "ctb2Low": null,
            "ctb2Main": {
              "ntr": "ROOT_FIXED",
              "ntt": "BYPASS",
              "bassOn": false,
              "chordRootUpperLimit": 6,
              "noteLowLimit": 0,
              "noteHighLimit": 127,
              "rtr": "PITCH_SHIFT"
            },
            "ctb2High": null
          },
          "notes": [
            {
              "pitch": 60,
              "velocity": 80,
              "position": 0,
              "duration": 0.010416666666666666
            },
            {
              "pitch": 23,
              "velocity": 98,
              "position": 0.010416666666666666,
              "duration": 0.010416666666666666
            },
            {
              "pitch": 68,
              "velocity": 79,
              "position": 0.010416666666666666,
              "duration": 0.010416666666666666
            },
            {
              "pitch": 73,
              "velocity": 80,
              "position": 0.010416666666666666,
              "duration": 0.010416666666666666
            },
            {
              "pitch": 68,
              "velocity": 44,
              "position": 0.24791666666666667,
              "duration": 0.010416666666666666
            },
            {
              "pitch": 22,
              "velocity": 50,
              "position": 0.27291666666666664,
              "duration": 0.010416666666666666
            },
            {
              "pitch": 73,
              "velocity": 70,
              "position": 0.4979166666666667,
              "duration": 0.010416666666666666
            },
            {
              "pitch": 68,
              "velocity": 58,
              "position": 0.5020833333333333,
              "duration": 0.010416666666666666
            },
            {
              "pitch": 28,
              "velocity": 96,
              "position": 0.5083333333333333,
              "duration": 0.010416666666666666
            },
            {
              "pitch": 68,
              "velocity": 44,
              "position": 0.7416666666666667,
              "duration": 0.010416666666666666
            },
            {
              "pitch": 22,
              "velocity": 50,
              "position": 0.7666666666666667,
              "duration": 0.010416666666666666
            },
            {
              "pitch": 60,
              "velocity": 80,
              "position": 1,
              "duration": 0.010416666666666666
            },
            {
              "pitch": 73,
              "velocity": 83,
              "position": 1.0020833333333334,
              "duration": 0.010416666666666666
            },
            {
              "pitch": 23,
              "velocity": 99,
              "position": 1.0041666666666667,
              "duration": 0.010416666666666666
            },
            {
              "pitch": 68,
              "velocity": 84,
              "position": 1.00625,
              "duration": 0.010416666666666666
            },
            {
              "pitch": 18,
              "velocity": 84,
              "position": 1.0208333333333333,
              "duration": 0.010416666666666666
            },
            {
              "pitch": 68,
              "velocity": 43,
              "position": 1.2333333333333334,
              "duration": 0.010416666666666666
            },
            {
              "pitch": 22,
              "velocity": 50,
              "position": 1.2604166666666667,
              "duration": 0.010416666666666666
            },
            {
              "pitch": 68,
              "velocity": 60,
              "position": 1.4916666666666667,
              "duration": 0.010416666666666666
            },
            {
              "pitch": 73,
              "velocity": 71,
              "position": 1.4958333333333333,
              "duration": 0.010416666666666666
            },
            {
              "pitch": 24,
              "velocity": 95,
              "position": 1.50625,
              "duration": 0.010416666666666666
            },
            {
              "pitch": 68,
              "velocity": 40,
              "position": 1.7541666666666667,
              "duration": 0.010416666666666666
            },
            {
              "pitch": 25,
              "velocity": 92,
              "position": 1.7791666666666666,
              "duration": 0.010416666666666666
            },
            {
              "pitch": 23,
              "velocity": 101,
              "position": 1.9895833333333333,
              "duration": 0.010416666666666666
            },
            {
              "pitch": 73,
              "velocity": 77,
              "position": 1.9958333333333333,
              "duration": 0.010416666666666666
            },
            {
              "pitch": 60,
              "velocity": 80,
              "position": 2,
              "duration": 0.010416666666666666
            },
            {
              "pitch": 68,
              "velocity": 82,
              "position": 2.004166666666667,
              "duration": 0.010416666666666666
            },
            {
              "pitch": 68,
              "velocity": 36,
              "position": 2.2354166666666666,
              "duration": 0.010416666666666666
            },
            {
              "pitch": 22,
              "velocity": 50,
              "position": 2.2625,
              "duration": 0.010416666666666666
            },
            {
              "pitch": 73,
              "velocity": 70,
              "position": 2.4854166666666666,
              "duration": 0.010416666666666666
            },
            {
              "pitch": 68,
              "velocity": 64,
              "position": 2.497916666666667,
              "duration": 0.010416666666666666
            },
            {
              "pitch": 28,
              "velocity": 95,
              "position": 2.5,
              "duration": 0.010416666666666666
            },
            {
              "pitch": 68,
              "velocity": 39,
              "position": 2.74375,
              "duration": 0.010416666666666666
            },
            {
              "pitch": 22,
              "velocity": 50,
              "position": 2.7708333333333335,
              "duration": 0.010416666666666666
            },
            {
              "pitch": 18,
              "velocity": 84,
              "position": 2.9770833333333333,
              "duration": 0.010416666666666666
            },
            {
              "pitch": 23,
              "velocity": 99,
              "position": 2.9916666666666667,
              "duration": 0.010416666666666666
            },
            {
              "pitch": 68,
              "velocity": 84,
              "position": 2.995833333333333,
              "duration": 0.010416666666666666
            },
            {
              "pitch": 60,
              "velocity": 80,
              "position": 3,
              "duration": 0.010416666666666666
            },
            {
              "pitch": 73,
              "velocity": 78,
              "position": 3.002083333333333,
              "duration": 0.010416666666666666
            },
            {
              "pitch": 68,
              "velocity": 40,
              "position": 3.25,
              "duration": 0.010416666666666666
            },
            {
              "pitch": 22,
              "velocity": 50,
              "position": 3.279166666666667,
              "duration": 0.010416666666666666
            },
            {
              "pitch": 68,
              "velocity": 61,
              "position": 3.497916666666667,
              "duration": 0.010416666666666666
            },
            {
              "pitch": 31,
              "velocity": 96,
              "position": 3.50625,
              "duration": 0.010416666666666666
            },
            {
              "pitch": 73,
              "velocity": 70,
              "position": 3.5104166666666665,
              "duration": 0.010416666666666666
            },
            {
              "pitch": 68,
              "velocity": 39,
              "position": 3.747916666666667,
              "duration": 0.010416666666666666
            },
            {
              "pitch": 31,
              "velocity": 64,
              "position": 3.7729166666666667,
              "duration": 0.010416666666666666
            },
            {
              "pitch": 60,
              "velocity": 80,
              "position": 4,
              "duration": 0.010416666666666666
            },
            {
              "pitch": 23,
              "velocity": 98,
              "position": 4.010416666666667,
              "duration": 0.010416666666666666
            },
            {
              "pitch": 68,
              "velocity": 78,
              "position": 4.010416666666667,
              "duration": 0.010416666666666666
            },
            {
              "pitch": 73,
              "velocity": 77,
              "position": 4.010416666666667,
              "duration": 0.010416666666666666
            },
            {
              "pitch": 68,
              "velocity": 37,
              "position": 4.241666666666666,
              "duration": 0.010416666666666666
            },
            {
              "pitch": 22,
              "velocity": 50,
              "position": 4.270833333333333,
              "duration": 0.010416666666666666
            },
            {
              "pitch": 28,
              "velocity": 93,
              "position": 4.489583333333333,
              "duration": 0.010416666666666666
            },
            {
              "pitch": 68,
              "velocity": 61,
              "position": 4.491666666666666,
              "duration": 0.010416666666666666
            },
            {
              "pitch": 73,
              "velocity": 70,
              "position": 4.5,
              "duration": 0.010416666666666666
            },
            {
              "pitch": 68,
              "velocity": 41,
              "position": 4.745833333333334,
              "duration": 0.010416666666666666
            },
            {
              "pitch": 22,
              "velocity": 50,
              "position": 4.772916666666666,
              "duration": 0.010416666666666666
            },
            {
              "pitch": 18,
              "velocity": 84,
              "position": 4.997916666666667,
              "duration": 0.010416666666666666
            },
            {
              "pitch": 23,
              "velocity": 99,
              "position": 4.997916666666667,
              "duration": 0.010416666666666666
            },
            {
              "pitch": 60,
              "velocity": 80,
              "position": 5,
              "duration": 0.010416666666666666
            },
            {
              "pitch": 68,
              "velocity": 83,
              "position": 5.00625,
              "duration": 0.010416666666666666
            },
            {
              "pitch": 73,
              "velocity": 83,
              "position": 5.0125,
              "duration": 0.010416666666666666
            },
            {
              "pitch": 68,
              "velocity": 36,
              "position": 5.247916666666667,
              "duration": 0.010416666666666666
            },
            {
              "pitch": 22,
              "velocity": 50,
              "position": 5.277083333333334,
              "duration": 0.010416666666666666
            },
            {
              "pitch": 68,
              "velocity": 63,
              "position": 5.5,
              "duration": 0.010416666666666666
            },
            {
              "pitch": 24,
              "velocity": 99,
              "position": 5.508333333333334,
              "duration": 0.010416666666666666
            },
            {
              "pitch": 73,
              "velocity": 70,
              "position": 5.516666666666667,
              "duration": 0.010416666666666666
            },
            {
              "pitch": 68,
              "velocity": 38,
              "position": 5.739583333333333,
              "duration": 0.010416666666666666
            },
            {
              "pitch": 25,
              "velocity": 95,
              "position": 5.766666666666667,
              "duration": 0.010416666666666666
            },
            {
              "pitch": 60,
              "velocity": 80,
              "position": 6,
              "duration": 0.010416666666666666
            },
            {
              "pitch": 23,
              "velocity": 101,
              "position": 6.002083333333333,
              "duration": 0.010416666666666666
            },
            {
              "pitch": 68,
              "velocity": 82,
              "position": 6.004166666666666,
              "duration": 0.010416666666666666
            },
            {
              "pitch": 73,
              "velocity": 79,
              "position": 6.008333333333334,
              "duration": 0.010416666666666666
            },
            {
              "pitch": 68,
              "velocity": 37,
              "position": 6.247916666666667,
              "duration": 0.010416666666666666
            },
            {
              "pitch": 22,
              "velocity": 50,
              "position": 6.279166666666667,
              "duration": 0.010416666666666666
            },
            {
              "pitch": 28,
              "velocity": 99,
              "position": 6.5,
              "duration": 0.010416666666666666
            },
            {
              "pitch": 73,
              "velocity": 74,
              "position": 6.504166666666666,
              "duration": 0.010416666666666666
            },
            {
              "pitch": 68,
              "velocity": 59,
              "position": 6.50625,
              "duration": 0.010416666666666666
            },
            {
              "pitch": 68,
              "velocity": 44,
              "position": 6.747916666666667,
              "duration": 0.010416666666666666
            },
            {
              "pitch": 22,
              "velocity": 50,
              "position": 6.777083333333334,
              "duration": 0.010416666666666666
            },
            {
              "pitch": 18,
              "velocity": 84,
              "position": 6.977083333333334,
              "duration": 0.010416666666666666
            },
            {
              "pitch": 73,
              "velocity": 82,
              "position": 6.995833333333334,
              "duration": 0.010416666666666666
            },
            {
              "pitch": 60,
              "velocity": 80,
              "position": 7,
              "duration": 0.010416666666666666
            },
            {
              "pitch": 23,
              "velocity": 99,
              "position": 7.002083333333333,
              "duration": 0.010416666666666666
            },
            {
              "pitch": 68,
              "velocity": 83,
              "position": 7.014583333333333,
              "duration": 0.010416666666666666
            },
            {
              "pitch": 68,
              "velocity": 41,
              "position": 7.24375,
              "duration": 0.010416666666666666
            },
            {
              "pitch": 22,
              "velocity": 50,
              "position": 7.277083333333334,
              "duration": 0.010416666666666666
            },
            {
              "pitch": 73,
              "velocity": 70,
              "position": 7.489583333333333,
              "duration": 0.010416666666666666
            },
            {
              "pitch": 68,
              "velocity": 56,
              "position": 7.50625,
              "duration": 0.010416666666666666
            },
            {
              "pitch": 31,
              "velocity": 93,
              "position": 7.508333333333334,
              "duration": 0.010416666666666666
            },
            {
              "pitch": 68,
              "velocity": 36,
              "position": 7.75,
              "duration": 0.010416666666666666
            },
            {
              "pitch": 31,
              "velocity": 67,
              "position": 7.760416666666667,
              "duration": 0.010416666666666666
            },
            {
              "pitch": 60,
              "velocity": 80,
              "position": 8,
              "duration": 0.010416666666666666
            },
            {
              "pitch": 23,
              "velocity": 98,
              "position": 8.010416666666666,
              "duration": 0.010416666666666666
            },
            {
              "pitch": 68,
              "velocity": 77,
              "position": 8.010416666666666,
              "duration": 0.010416666666666666
            },
            {
              "pitch": 73,
              "velocity": 83,
              "position": 8.010416666666666,
              "duration": 0.010416666666666666
            },
            {
              "pitch": 68,
              "velocity": 38,
              "position": 8.235416666666667,
              "duration": 0.010416666666666666
            },
            {
              "pitch": 22,
              "velocity": 50,
              "position": 8.26875,
              "duration": 0.010416666666666666
            },
            {
              "pitch": 28,
              "velocity": 96,
              "position": 8.491666666666667,
              "duration": 0.010416666666666666
            },
            {
              "pitch": 73,
              "velocity": 72,
              "position": 8.497916666666667,
              "duration": 0.010416666666666666
            },
            {
              "pitch": 68,
              "velocity": 56,
              "position": 8.5,
              "duration": 0.010416666666666666
            },
            {
              "pitch": 68,
              "velocity": 39,
              "position": 8.747916666666667,
              "duration": 0.010416666666666666
            },
            {
              "pitch": 22,
              "velocity": 50,
              "position": 8.779166666666667,
              "duration": 0.010416666666666666
            },
            {
              "pitch": 73,
              "velocity": 83,
              "position": 8.989583333333334,
              "duration": 0.010416666666666666
            },
            {
              "pitch": 18,
              "velocity": 84,
              "position": 9,
              "duration": 0.010416666666666666
            },
            {
              "pitch": 60,
              "velocity": 80,
              "position": 9,
              "duration": 0.010416666666666666
            },
            {
              "pitch": 68,
              "velocity": 82,
              "position": 9.00625,
              "duration": 0.010416666666666666
            },
            {
              "pitch": 23,
              "velocity": 99,
              "position": 9.008333333333333,
              "duration": 0.010416666666666666
            },
            {
              "pitch": 68,
              "velocity": 37,
              "position": 9.241666666666667,
              "duration": 0.010416666666666666
            },
            {
              "pitch": 22,
              "velocity": 50,
              "position": 9.275,
              "duration": 0.010416666666666666
            },
            {
              "pitch": 24,
              "velocity": 96,
              "position": 9.489583333333334,
              "duration": 0.010416666666666666
            },
            {
              "pitch": 68,
              "velocity": 59,
              "position": 9.489583333333334,
              "duration": 0.010416666666666666
            },
            {
              "pitch": 73,
              "velocity": 73,
              "position": 9.510416666666666,
              "duration": 0.010416666666666666
            },
            {
              "pitch": 68,
              "velocity": 43,
              "position": 9.74375,
              "duration": 0.010416666666666666
            },
            {
              "pitch": 25,
              "velocity": 96,
              "position": 9.775,
              "duration": 0.010416666666666666
            },
            {
              "pitch": 23,
              "velocity": 101,
              "position": 9.995833333333334,
              "duration": 0.010416666666666666
            },
            {
              "pitch": 60,
              "velocity": 80,
              "position": 10,
              "duration": 0.010416666666666666
            },
            {
              "pitch": 68,
              "velocity": 81,
              "position": 10.002083333333333,
              "duration": 0.010416666666666666
            },
            {
              "pitch": 73,
              "velocity": 80,
              "position": 10.004166666666666,
              "duration": 0.010416666666666666
            },
            {
              "pitch": 68,
              "velocity": 39,
              "position": 10.241666666666667,
              "duration": 0.010416666666666666
            },
            {
              "pitch": 22,
              "velocity": 50,
              "position": 10.277083333333334,
              "duration": 0.010416666666666666
            },
            {
              "pitch": 68,
              "velocity": 62,
              "position": 10.495833333333334,
              "duration": 0.010416666666666666
            },
            {
              "pitch": 73,
              "velocity": 72,
              "position": 10.5,
              "duration": 0.010416666666666666
            },
            {
              "pitch": 28,
              "velocity": 96,
              "position": 10.502083333333333,
              "duration": 0.010416666666666666
            },
            {
              "pitch": 68,
              "velocity": 41,
              "position": 10.75,
              "duration": 0.010416666666666666
            },
            {
              "pitch": 22,
              "velocity": 50,
              "position": 10.764583333333333,
              "duration": 0.010416666666666666
            },
            {
              "pitch": 23,
              "velocity": 100,
              "position": 10.995833333333334,
              "duration": 0.010416666666666666
            },
            {
              "pitch": 60,
              "velocity": 80,
              "position": 11,
              "duration": 0.010416666666666666
            },
            {
              "pitch": 73,
              "velocity": 77,
              "position": 11.0125,
              "duration": 0.010416666666666666
            },
            {
              "pitch": 68,
              "velocity": 82,
              "position": 11.014583333333333,
              "duration": 0.010416666666666666
            },
            {
              "pitch": 18,
              "velocity": 84,
              "position": 11.01875,
              "duration": 0.010416666666666666
            },
            {
              "pitch": 68,
              "velocity": 42,
              "position": 11.239583333333334,
              "duration": 0.010416666666666666
            },
            {
              "pitch": 22,
              "velocity": 50,
              "position": 11.272916666666667,
              "duration": 0.010416666666666666
            },
            {
              "pitch": 31,
              "velocity": 96,
              "position": 11.491666666666667,
              "duration": 0.010416666666666666
            },
            {
              "pitch": 68,
              "velocity": 60,
              "position": 11.495833333333334,
              "duration": 0.010416666666666666
            },
            {
              "pitch": 73,
              "velocity": 70,
              "position": 11.502083333333333,
              "duration": 0.010416666666666666
            },
            {
              "pitch": 68,
              "velocity": 42,
              "position": 11.754166666666666,
              "duration": 0.010416666666666666
            },
            {
              "pitch": 31,
              "velocity": 62,
              "position": 11.76875,
              "duration": 0.010416666666666666
            },
            {
              "pitch": 60,
              "velocity": 80,
              "position": 12,
              "duration": 0.010416666666666666
            },
            {
              "pitch": 23,
              "velocity": 98,
              "position": 12.010416666666666,
              "duration": 0.010416666666666666
            },
            {
              "pitch": 68,
              "velocity": 77,
              "position": 12.010416666666666,
              "duration": 0.010416666666666666
            },
            {
              "pitch": 73,
              "velocity": 80,
              "position": 12.010416666666666,
              "duration": 0.010416666666666666
            },
            {
              "pitch": 68,
              "velocity": 40,
              "position": 12.25,
              "duration": 0.010416666666666666
            },
            {
              "pitch": 22,
              "velocity": 50,
              "position": 12.266666666666667,
              "duration": 0.010416666666666666
            },
            {
              "pitch": 68,
              "velocity": 60,
              "position": 12.489583333333334,
              "duration": 0.010416666666666666
            },
            {
              "pitch": 73,
              "velocity": 70,
              "position": 12.489583333333334,
              "duration": 0.010416666666666666
            },
            {
              "pitch": 28,
              "velocity": 93,
              "position": 12.49375,
              "duration": 0.010416666666666666
            },
            {
              "pitch": 68,
              "velocity": 36,
              "position": 12.752083333333333,
              "duration": 0.010416666666666666
            },
            {
              "pitch": 22,
              "velocity": 50,
              "position": 12.76875,
              "duration": 0.010416666666666666
            },
            {
              "pitch": 23,
              "velocity": 100,
              "position": 13,
              "duration": 0.010416666666666666
            },
            {
              "pitch": 60,
              "velocity": 80,
              "position": 13,
              "duration": 0.010416666666666666
            },
            {
              "pitch": 68,
              "velocity": 82,
              "position": 13.004166666666666,
              "duration": 0.010416666666666666
            },
            {
              "pitch": 73,
              "velocity": 82,
              "position": 13.008333333333333,
              "duration": 0.010416666666666666
            },
            {
              "pitch": 18,
              "velocity": 84,
              "position": 13.016666666666667,
              "duration": 0.010416666666666666
            },
            {
              "pitch": 68,
              "velocity": 39,
              "position": 13.235416666666667,
              "duration": 0.010416666666666666
            },
            {
              "pitch": 22,
              "velocity": 50,
              "position": 13.272916666666667,
              "duration": 0.010416666666666666
            },
            {
              "pitch": 24,
              "velocity": 99,
              "position": 13.491666666666667,
              "duration": 0.010416666666666666
            },
            {
              "pitch": 68,
              "velocity": 62,
              "position": 13.5,
              "duration": 0.010416666666666666
            },
            {
              "pitch": 73,
              "velocity": 70,
              "position": 13.502083333333333,
              "duration": 0.010416666666666666
            },
            {
              "pitch": 68,
              "velocity": 40,
              "position": 13.747916666666667,
              "duration": 0.010416666666666666
            },
            {
              "pitch": 25,
              "velocity": 98,
              "position": 13.7625,
              "duration": 0.010416666666666666
            },
            {
              "pitch": 60,
              "velocity": 80,
              "position": 14,
              "duration": 0.010416666666666666
            },
            {
              "pitch": 68,
              "velocity": 80,
              "position": 14.002083333333333,
              "duration": 0.010416666666666666
            },
            {
              "pitch": 23,
              "velocity": 101,
              "position": 14.00625,
              "duration": 0.010416666666666666
            },
            {
              "pitch": 73,
              "velocity": 82,
              "position": 14.00625,
              "duration": 0.010416666666666666
            },
            {
              "pitch": 68,
              "velocity": 40,
              "position": 14.2375,
              "duration": 0.010416666666666666
            },
            {
              "pitch": 22,
              "velocity": 50,
              "position": 14.275,
              "duration": 0.010416666666666666
            },
            {
              "pitch": 28,
              "velocity": 99,
              "position": 14.504166666666666,
              "duration": 0.010416666666666666
            },
            {
              "pitch": 68,
              "velocity": 58,
              "position": 14.504166666666666,
              "duration": 0.010416666666666666
            },
            {
              "pitch": 73,
              "velocity": 71,
              "position": 14.508333333333333,
              "duration": 0.010416666666666666
            },
            {
              "pitch": 18,
              "velocity": 84,
              "position": 14.520833333333334,
              "duration": 0.010416666666666666
            },
            {
              "pitch": 68,
              "velocity": 39,
              "position": 14.75625,
              "duration": 0.010416666666666666
            },
            {
              "pitch": 22,
              "velocity": 50,
              "position": 14.770833333333334,
              "duration": 0.010416666666666666
            },
            {
              "pitch": 18,
              "velocity": 84,
              "position": 14.99375,
              "duration": 0.010416666666666666
            },
            {
              "pitch": 73,
              "velocity": 81,
              "position": 14.995833333333334,
              "duration": 0.010416666666666666
            },
            {
              "pitch": 60,
              "velocity": 80,
              "position": 15,
              "duration": 0.010416666666666666
            },
            {
              "pitch": 23,
              "velocity": 100,
              "position": 15.00625,
              "duration": 0.010416666666666666
            },
            {
              "pitch": 68,
              "velocity": 81,
              "position": 15.0125,
              "duration": 0.010416666666666666
            },
            {
              "pitch": 68,
              "velocity": 44,
              "position": 15.233333333333333,
              "duration": 0.010416666666666666
            },
            {
              "pitch": 22,
              "velocity": 50,
              "position": 15.270833333333334,
              "duration": 0.010416666666666666
            },
            {
              "pitch": 31,
              "velocity": 93,
              "position": 15.49375,
              "duration": 0.010416666666666666
            },
            {
              "pitch": 68,
              "velocity": 64,
              "position": 15.504166666666666,
              "duration": 0.010416666666666666
            },
            {
              "pitch": 73,
              "velocity": 70,
              "position": 15.510416666666666,
              "duration": 0.010416666666666666
            },
            {
              "pitch": 68,
              "velocity": 39,
              "position": 15.739583333333334,
              "duration": 0.010416666666666666
            },
            {
              "pitch": 31,
              "velocity": 64,
              "position": 15.775,
              "duration": 0.010416666666666666
            },
            {
              "pitch": 60,
              "velocity": 80,
              "position": 16,
              "duration": 0.010416666666666666
            },
            {
              "pitch": 23,
              "velocity": 98,
              "position": 16.010416666666668,
              "duration": 0.010416666666666666
            },
            {
              "pitch": 68,
              "velocity": 79,
              "position": 16.010416666666668,
              "duration": 0.010416666666666666
            },
            {
              "pitch": 73,
              "velocity": 80,
              "position": 16.010416666666668,
              "duration": 0.010416666666666666
            },
            {
              "pitch": 68,
              "velocity": 44,
              "position": 16.247916666666665,
              "duration": 0.010416666666666666
            },
            {
              "pitch": 22,
              "velocity": 50,
              "position": 16.272916666666667,
              "duration": 0.010416666666666666
            },
            {
              "pitch": 73,
              "velocity": 70,
              "position": 16.497916666666665,
              "duration": 0.010416666666666666
            },
            {
              "pitch": 68,
              "velocity": 58,
              "position": 16.502083333333335,
              "duration": 0.010416666666666666
            },
            {
              "pitch": 28,
              "velocity": 96,
              "position": 16.508333333333333,
              "duration": 0.010416666666666666
            },
            {
              "pitch": 68,
              "velocity": 44,
              "position": 16.741666666666667,
              "duration": 0.010416666666666666
            },
            {
              "pitch": 22,
              "velocity": 50,
              "position": 16.766666666666666,
              "duration": 0.010416666666666666
            },
            {
              "pitch": 60,
              "velocity": 80,
              "position": 17,
              "duration": 0.010416666666666666
            },
            {
              "pitch": 73,
              "velocity": 83,
              "position": 17.002083333333335,
              "duration": 0.010416666666666666
            },
            {
              "pitch": 23,
              "velocity": 99,
              "position": 17.004166666666666,
              "duration": 0.010416666666666666
            },
            {
              "pitch": 68,
              "velocity": 84,
              "position": 17.00625,
              "duration": 0.010416666666666666
            },
            {
              "pitch": 18,
              "velocity": 84,
              "position": 17.020833333333332,
              "duration": 0.010416666666666666
            },
            {
              "pitch": 68,
              "velocity": 43,
              "position": 17.233333333333334,
              "duration": 0.010416666666666666
            },
            {
              "pitch": 22,
              "velocity": 50,
              "position": 17.260416666666668,
              "duration": 0.010416666666666666
            },
            {
              "pitch": 68,
              "velocity": 60,
              "position": 17.491666666666667,
              "duration": 0.010416666666666666
            },
            {
              "pitch": 73,
              "velocity": 71,
              "position": 17.495833333333334,
              "duration": 0.010416666666666666
            },
            {
              "pitch": 24,
              "velocity": 95,
              "position": 17.50625,
              "duration": 0.010416666666666666
            },
            {
              "pitch": 68,
              "velocity": 40,
              "position": 17.754166666666666,
              "duration": 0.010416666666666666
            },
            {
              "pitch": 25,
              "velocity": 92,
              "position": 17.779166666666665,
              "duration": 0.010416666666666666
            },
            {
              "pitch": 23,
              "velocity": 101,
              "position": 17.989583333333332,
              "duration": 0.010416666666666666
            },
            {
              "pitch": 73,
              "velocity": 77,
              "position": 17.995833333333334,
              "duration": 0.010416666666666666
            },
            {
              "pitch": 60,
              "velocity": 80,
              "position": 18,
              "duration": 0.010416666666666666
            },
            {
              "pitch": 68,
              "velocity": 82,
              "position": 18.004166666666666,
              "duration": 0.010416666666666666
            },
            {
              "pitch": 68,
              "velocity": 36,
              "position": 18.235416666666666,
              "duration": 0.010416666666666666
            },
            {
              "pitch": 22,
              "velocity": 50,
              "position": 18.2625,
              "duration": 0.010416666666666666
            },
            {
              "pitch": 73,
              "velocity": 70,
              "position": 18.485416666666666,
              "duration": 0.010416666666666666
            },
            {
              "pitch": 68,
              "velocity": 64,
              "position": 18.497916666666665,
              "duration": 0.010416666666666666
            },
            {
              "pitch": 28,
              "velocity": 95,
              "position": 18.5,
              "duration": 0.010416666666666666
            },
            {
              "pitch": 68,
              "velocity": 39,
              "position": 18.74375,
              "duration": 0.010416666666666666
            },
            {
              "pitch": 22,
              "velocity": 50,
              "position": 18.770833333333332,
              "duration": 0.010416666666666666
            },
            {
              "pitch": 18,
              "velocity": 84,
              "position": 18.977083333333333,
              "duration": 0.010416666666666666
            },
            {
              "pitch": 23,
              "velocity": 99,
              "position": 18.991666666666667,
              "duration": 0.010416666666666666
            },
            {
              "pitch": 68,
              "velocity": 84,
              "position": 18.995833333333334,
              "duration": 0.010416666666666666
            },
            {
              "pitch": 60,
              "velocity": 80,
              "position": 19,
              "duration": 0.010416666666666666
            },
            {
              "pitch": 73,
              "velocity": 78,
              "position": 19.002083333333335,
              "duration": 0.010416666666666666
            },
            {
              "pitch": 68,
              "velocity": 40,
              "position": 19.25,
              "duration": 0.010416666666666666
            },
            {
              "pitch": 22,
              "velocity": 50,
              "position": 19.279166666666665,
              "duration": 0.010416666666666666
            },
            {
              "pitch": 68,
              "velocity": 61,
              "position": 19.497916666666665,
              "duration": 0.010416666666666666
            },
            {
              "pitch": 31,
              "velocity": 96,
              "position": 19.50625,
              "duration": 0.010416666666666666
            },
            {
              "pitch": 73,
              "velocity": 70,
              "position": 19.510416666666668,
              "duration": 0.010416666666666666
            },
            {
              "pitch": 68,
              "velocity": 39,
              "position": 19.747916666666665,
              "duration": 0.010416666666666666
            },
            {
              "pitch": 31,
              "velocity": 64,
              "position": 19.772916666666667,
              "duration": 0.010416666666666666
            },
            {
              "pitch": 60,
              "velocity": 80,
              "position": 20,
              "duration": 0.010416666666666666
            },
            {
              "pitch": 23,
              "velocity": 98,
              "position": 20.010416666666668,
              "duration": 0.010416666666666666
            },
            {
              "pitch": 68,
              "velocity": 78,
              "position": 20.010416666666668,
              "duration": 0.010416666666666666
            },
            {
              "pitch": 73,
              "velocity": 77,
              "position": 20.010416666666668,
              "duration": 0.010416666666666666
            },
            {
              "pitch": 68,
              "velocity": 37,
              "position": 20.241666666666667,
              "duration": 0.010416666666666666
            },
            {
              "pitch": 22,
              "velocity": 50,
              "position": 20.270833333333332,
              "duration": 0.010416666666666666
            },
            {
              "pitch": 28,
              "velocity": 93,
              "position": 20.489583333333332,
              "duration": 0.010416666666666666
            },
            {
              "pitch": 68,
              "velocity": 61,
              "position": 20.491666666666667,
              "duration": 0.010416666666666666
            },
            {
              "pitch": 73,
              "velocity": 70,
              "position": 20.5,
              "duration": 0.010416666666666666
            },
            {
              "pitch": 68,
              "velocity": 41,
              "position": 20.745833333333334,
              "duration": 0.010416666666666666
            },
            {
              "pitch": 22,
              "velocity": 50,
              "position": 20.772916666666667,
              "duration": 0.010416666666666666
            },
            {
              "pitch": 18,
              "velocity": 84,
              "position": 20.997916666666665,
              "duration": 0.010416666666666666
            },
            {
              "pitch": 23,
              "velocity": 99,
              "position": 20.997916666666665,
              "duration": 0.010416666666666666
            },
            {
              "pitch": 60,
              "velocity": 80,
              "position": 21,
              "duration": 0.010416666666666666
            },
            {
              "pitch": 68,
              "velocity": 83,
              "position": 21.00625,
              "duration": 0.010416666666666666
            },
            {
              "pitch": 73,
              "velocity": 83,
              "position": 21.0125,
              "duration": 0.010416666666666666
            },
            {
              "pitch": 68,
              "velocity": 36,
              "position": 21.247916666666665,
              "duration": 0.010416666666666666
            },
            {
              "pitch": 22,
              "velocity": 50,
              "position": 21.277083333333334,
              "duration": 0.010416666666666666
            },
            {
              "pitch": 68,
              "velocity": 63,
              "position": 21.5,
              "duration": 0.010416666666666666
            },
            {
              "pitch": 24,
              "velocity": 99,
              "position": 21.508333333333333,
              "duration": 0.010416666666666666
            },
            {
              "pitch": 73,
              "velocity": 70,
              "position": 21.516666666666666,
              "duration": 0.010416666666666666
            },
            {
              "pitch": 68,
              "velocity": 38,
              "position": 21.739583333333332,
              "duration": 0.010416666666666666
            },
            {
              "pitch": 25,
              "velocity": 95,
              "position": 21.766666666666666,
              "duration": 0.010416666666666666
            },
            {
              "pitch": 60,
              "velocity": 80,
              "position": 22,
              "duration": 0.010416666666666666
            },
            {
              "pitch": 23,
              "velocity": 101,
              "position": 22.002083333333335,
              "duration": 0.010416666666666666
            },
            {
              "pitch": 68,
              "velocity": 82,
              "position": 22.004166666666666,
              "duration": 0.010416666666666666
            },
            {
              "pitch": 73,
              "velocity": 79,
              "position": 22.008333333333333,
              "duration": 0.010416666666666666
            },
            {
              "pitch": 68,
              "velocity": 37,
              "position": 22.247916666666665,
              "duration": 0.010416666666666666
            },
            {
              "pitch": 22,
              "velocity": 50,
              "position": 22.279166666666665,
              "duration": 0.010416666666666666
            },
            {
              "pitch": 28,
              "velocity": 99,
              "position": 22.5,
              "duration": 0.010416666666666666
            },
            {
              "pitch": 73,
              "velocity": 74,
              "position": 22.504166666666666,
              "duration": 0.010416666666666666
            },
            {
              "pitch": 68,
              "velocity": 59,
              "position": 22.50625,
              "duration": 0.010416666666666666
            },
            {
              "pitch": 68,
              "velocity": 44,
              "position": 22.747916666666665,
              "duration": 0.010416666666666666
            },
            {
              "pitch": 22,
              "velocity": 50,
              "position": 22.777083333333334,
              "duration": 0.010416666666666666
            },
            {
              "pitch": 18,
              "velocity": 82,
              "position": 22.977083333333333,
              "duration": 0.010416666666666666
            },
            {
              "pitch": 73,
              "velocity": 82,
              "position": 22.995833333333334,
              "duration": 0.010416666666666666
            },
            {
              "pitch": 60,
              "velocity": 80,
              "position": 23,
              "duration": 0.010416666666666666
            },
            {
              "pitch": 23,
              "velocity": 99,
              "position": 23.002083333333335,
              "duration": 0.010416666666666666
            },
            {
              "pitch": 68,
              "velocity": 83,
              "position": 23.014583333333334,
              "duration": 0.010416666666666666
            },
            {
              "pitch": 68,
              "velocity": 41,
              "position": 23.24375,
              "duration": 0.010416666666666666
            },
            {
              "pitch": 22,
              "velocity": 50,
              "position": 23.277083333333334,
              "duration": 0.010416666666666666
            },
            {
              "pitch": 73,
              "velocity": 70,
              "position": 23.489583333333332,
              "duration": 0.010416666666666666
            },
            {
              "pitch": 68,
              "velocity": 56,
              "position": 23.50625,
              "duration": 0.010416666666666666
            },
            {
              "pitch": 31,
              "velocity": 93,
              "position": 23.508333333333333,
              "duration": 0.010416666666666666
            },
            {
              "pitch": 68,
              "velocity": 36,
              "position": 23.75,
              "duration": 0.010416666666666666
            },
            {
              "pitch": 31,
              "velocity": 67,
              "position": 23.760416666666668,
              "duration": 0.010416666666666666
            },
            {
              "pitch": 60,
              "velocity": 80,
              "position": 24,
              "duration": 0.010416666666666666
            },
            {
              "pitch": 23,
              "velocity": 98,
              "position": 24.010416666666668,
              "duration": 0.010416666666666666
            },
            {
              "pitch": 68,
              "velocity": 77,
              "position": 24.010416666666668,
              "duration": 0.010416666666666666
            },
            {
              "pitch": 73,
              "velocity": 83,
              "position": 24.010416666666668,
              "duration": 0.010416666666666666
            },
            {
              "pitch": 68,
              "velocity": 38,
              "position": 24.235416666666666,
              "duration": 0.010416666666666666
            },
            {
              "pitch": 22,
              "velocity": 50,
              "position": 24.26875,
              "duration": 0.010416666666666666
            },
            {
              "pitch": 28,
              "velocity": 96,
              "position": 24.491666666666667,
              "duration": 0.010416666666666666
            },
            {
              "pitch": 73,
              "velocity": 72,
              "position": 24.497916666666665,
              "duration": 0.010416666666666666
            },
            {
              "pitch": 68,
              "velocity": 56,
              "position": 24.5,
              "duration": 0.010416666666666666
            },
            {
              "pitch": 68,
              "velocity": 39,
              "position": 24.747916666666665,
              "duration": 0.010416666666666666
            },
            {
              "pitch": 22,
              "velocity": 50,
              "position": 24.779166666666665,
              "duration": 0.010416666666666666
            },
            {
              "pitch": 73,
              "velocity": 83,
              "position": 24.989583333333332,
              "duration": 0.010416666666666666
            },
            {
              "pitch": 18,
              "velocity": 82,
              "position": 25,
              "duration": 0.010416666666666666
            },
            {
              "pitch": 60,
              "velocity": 80,
              "position": 25,
              "duration": 0.010416666666666666
            },
            {
              "pitch": 68,
              "velocity": 82,
              "position": 25.00625,
              "duration": 0.010416666666666666
            },
            {
              "pitch": 23,
              "velocity": 99,
              "position": 25.008333333333333,
              "duration": 0.010416666666666666
            },
            {
              "pitch": 68,
              "velocity": 37,
              "position": 25.241666666666667,
              "duration": 0.010416666666666666
            },
            {
              "pitch": 22,
              "velocity": 50,
              "position": 25.275,
              "duration": 0.010416666666666666
            },
            {
              "pitch": 24,
              "velocity": 96,
              "position": 25.489583333333332,
              "duration": 0.010416666666666666
            },
            {
              "pitch": 68,
              "velocity": 59,
              "position": 25.489583333333332,
              "duration": 0.010416666666666666
            },
            {
              "pitch": 73,
              "velocity": 73,
              "position": 25.510416666666668,
              "duration": 0.010416666666666666
            },
            {
              "pitch": 68,
              "velocity": 43,
              "position": 25.74375,
              "duration": 0.010416666666666666
            },
            {
              "pitch": 25,
              "velocity": 96,
              "position": 25.775,
              "duration": 0.010416666666666666
            },
            {
              "pitch": 23,
              "velocity": 101,
              "position": 25.995833333333334,
              "duration": 0.010416666666666666
            },
            {
              "pitch": 60,
              "velocity": 80,
              "position": 26,
              "duration": 0.010416666666666666
            },
            {
              "pitch": 68,
              "velocity": 81,
              "position": 26.002083333333335,
              "duration": 0.010416666666666666
            },
            {
              "pitch": 73,
              "velocity": 80,
              "position": 26.004166666666666,
              "duration": 0.010416666666666666
            },
            {
              "pitch": 68,
              "velocity": 39,
              "position": 26.241666666666667,
              "duration": 0.010416666666666666
            },
            {
              "pitch": 22,
              "velocity": 50,
              "position": 26.277083333333334,
              "duration": 0.010416666666666666
            },
            {
              "pitch": 68,
              "velocity": 62,
              "position": 26.495833333333334,
              "duration": 0.010416666666666666
            },
            {
              "pitch": 73,
              "velocity": 72,
              "position": 26.5,
              "duration": 0.010416666666666666
            },
            {
              "pitch": 28,
              "velocity": 96,
              "position": 26.502083333333335,
              "duration": 0.010416666666666666
            },
            {
              "pitch": 68,
              "velocity": 41,
              "position": 26.75,
              "duration": 0.010416666666666666
            },
            {
              "pitch": 22,
              "velocity": 50,
              "position": 26.764583333333334,
              "duration": 0.010416666666666666
            },
            {
              "pitch": 23,
              "velocity": 100,
              "position": 26.995833333333334,
              "duration": 0.010416666666666666
            },
            {
              "pitch": 60,
              "velocity": 80,
              "position": 27,
              "duration": 0.010416666666666666
            },
            {
              "pitch": 73,
              "velocity": 77,
              "position": 27.0125,
              "duration": 0.010416666666666666
            },
            {
              "pitch": 68,
              "velocity": 82,
              "position": 27.014583333333334,
              "duration": 0.010416666666666666
            },
            {
              "pitch": 18,
              "velocity": 82,
              "position": 27.01875,
              "duration": 0.010416666666666666
            },
            {
              "pitch": 68,
              "velocity": 42,
              "position": 27.239583333333332,
              "duration": 0.010416666666666666
            },
            {
              "pitch": 22,
              "velocity": 50,
              "position": 27.272916666666667,
              "duration": 0.010416666666666666
            },
            {
              "pitch": 31,
              "velocity": 96,
              "position": 27.491666666666667,
              "duration": 0.010416666666666666
            },
            {
              "pitch": 68,
              "velocity": 60,
              "position": 27.495833333333334,
              "duration": 0.010416666666666666
            },
            {
              "pitch": 73,
              "velocity": 70,
              "position": 27.502083333333335,
              "duration": 0.010416666666666666
            },
            {
              "pitch": 68,
              "velocity": 42,
              "position": 27.754166666666666,
              "duration": 0.010416666666666666
            },
            {
              "pitch": 31,
              "velocity": 62,
              "position": 27.76875,
              "duration": 0.010416666666666666
            },
            {
              "pitch": 60,
              "velocity": 80,
              "position": 28,
              "duration": 0.010416666666666666
            },
            {
              "pitch": 23,
              "velocity": 98,
              "position": 28.010416666666668,
              "duration": 0.010416666666666666
            },
            {
              "pitch": 68,
              "velocity": 77,
              "position": 28.010416666666668,
              "duration": 0.010416666666666666
            },
            {
              "pitch": 73,
              "velocity": 80,
              "position": 28.010416666666668,
              "duration": 0.010416666666666666
            },
            {
              "pitch": 68,
              "velocity": 40,
              "position": 28.25,
              "duration": 0.010416666666666666
            },
            {
              "pitch": 22,
              "velocity": 50,
              "position": 28.266666666666666,
              "duration": 0.010416666666666666
            },
            {
              "pitch": 68,
              "velocity": 60,
              "position": 28.489583333333332,
              "duration": 0.010416666666666666
            },
            {
              "pitch": 73,
              "velocity": 70,
              "position": 28.489583333333332,
              "duration": 0.010416666666666666
            },
            {
              "pitch": 28,
              "velocity": 93,
              "position": 28.49375,
              "duration": 0.010416666666666666
            },
            {
              "pitch": 68,
              "velocity": 36,
              "position": 28.752083333333335,
              "duration": 0.010416666666666666
            },
            {
              "pitch": 22,
              "velocity": 50,
              "position": 28.76875,
              "duration": 0.010416666666666666
            },
            {
              "pitch": 23,
              "velocity": 100,
              "position": 29,
              "duration": 0.010416666666666666
            },
            {
              "pitch": 60,
              "velocity": 80,
              "position": 29,
              "duration": 0.010416666666666666
            },
            {
              "pitch": 68,
              "velocity": 82,
              "position": 29.004166666666666,
              "duration": 0.010416666666666666
            },
            {
              "pitch": 73,
              "velocity": 82,
              "position": 29.008333333333333,
              "duration": 0.010416666666666666
            },
            {
              "pitch": 18,
              "velocity": 82,
              "position": 29.016666666666666,
              "duration": 0.010416666666666666
            },
            {
              "pitch": 68,
              "velocity": 39,
              "position": 29.235416666666666,
              "duration": 0.010416666666666666
            },
            {
              "pitch": 22,
              "velocity": 50,
              "position": 29.272916666666667,
              "duration": 0.010416666666666666
            },
            {
              "pitch": 24,
              "velocity": 99,
              "position": 29.491666666666667,
              "duration": 0.010416666666666666
            },
            {
              "pitch": 68,
              "velocity": 62,
              "position": 29.5,
              "duration": 0.010416666666666666
            },
            {
              "pitch": 73,
              "velocity": 70,
              "position": 29.502083333333335,
              "duration": 0.010416666666666666
            },
            {
              "pitch": 68,
              "velocity": 40,
              "position": 29.747916666666665,
              "duration": 0.010416666666666666
            },
            {
              "pitch": 25,
              "velocity": 98,
              "position": 29.7625,
              "duration": 0.010416666666666666
            },
            {
              "pitch": 60,
              "velocity": 80,
              "position": 30,
              "duration": 0.010416666666666666
            },
            {
              "pitch": 68,
              "velocity": 80,
              "position": 30.002083333333335,
              "duration": 0.010416666666666666
            },
            {
              "pitch": 23,
              "velocity": 101,
              "position": 30.00625,
              "duration": 0.010416666666666666
            },
            {
              "pitch": 73,
              "velocity": 82,
              "position": 30.00625,
              "duration": 0.010416666666666666
            },
            {
              "pitch": 68,
              "velocity": 40,
              "position": 30.2375,
              "duration": 0.010416666666666666
            },
            {
              "pitch": 22,
              "velocity": 50,
              "position": 30.275,
              "duration": 0.010416666666666666
            },
            {
              "pitch": 28,
              "velocity": 99,
              "position": 30.504166666666666,
              "duration": 0.010416666666666666
            },
            {
              "pitch": 68,
              "velocity": 58,
              "position": 30.504166666666666,
              "duration": 0.010416666666666666
            },
            {
              "pitch": 73,
              "velocity": 71,
              "position": 30.508333333333333,
              "duration": 0.010416666666666666
            },
            {
              "pitch": 18,
              "velocity": 82,
              "position": 30.520833333333332,
              "duration": 0.010416666666666666
            },
            {
              "pitch": 68,
              "velocity": 39,
              "position": 30.75625,
              "duration": 0.010416666666666666
            },
            {
              "pitch": 22,
              "velocity": 50,
              "position": 30.770833333333332,
              "duration": 0.010416666666666666
            },
            {
              "pitch": 18,
              "velocity": 82,
              "position": 30.99375,
              "duration": 0.010416666666666666
            },
            {
              "pitch": 73,
              "velocity": 81,
              "position": 30.995833333333334,
              "duration": 0.010416666666666666
            },
            {
              "pitch": 60,
              "velocity": 80,
              "position": 31,
              "duration": 0.010416666666666666
            },
            {
              "pitch": 23,
              "velocity": 100,
              "position": 31.00625,
              "duration": 0.010416666666666666
            },
            {
              "pitch": 68,
              "velocity": 81,
              "position": 31.0125,
              "duration": 0.010416666666666666
            },
            {
              "pitch": 68,
              "velocity": 44,
              "position": 31.233333333333334,
              "duration": 0.010416666666666666
            },
            {
              "pitch": 22,
              "velocity": 50,
              "position": 31.270833333333332,
              "duration": 0.010416666666666666
            },
            {
              "pitch": 31,
              "velocity": 93,
              "position": 31.49375,
              "duration": 0.010416666666666666
            },
            {
              "pitch": 68,
              "velocity": 64,
              "position": 31.504166666666666,
              "duration": 0.010416666666666666
            },
            {
              "pitch": 73,
              "velocity": 70,
              "position": 31.510416666666668,
              "duration": 0.010416666666666666
            },
            {
              "pitch": 68,
              "velocity": 39,
              "position": 31.739583333333332,
              "duration": 0.010416666666666666
            },
            {
              "pitch": 31,
              "velocity": 64,
              "position": 31.775,
              "duration": 0.010416666666666666
            }
          ]
        },
        "9": {
          "ctab": {
            "srcChannel": 9,
            "name": "Drums",
            "accType": "RHYTHM",
            "editable": false,
            "mutedNotes": [],
            "mutedChords": [],
            "autoStart": true,
            "sourceChordNote": 0,
            "sourceChordType": "Maj7",
            "ctb2Low": null,
            "ctb2Main": {
              "ntr": "ROOT_FIXED",
              "ntt": "BYPASS",
              "bassOn": false,
              "chordRootUpperLimit": 6,
              "noteLowLimit": 0,
              "noteHighLimit": 127,
              "rtr": "PITCH_SHIFT"
            },
            "ctb2High": null
          },
          "notes": [
            {
              "pitch": 35,
              "velocity": 100,
              "position": 0,
              "duration": 0.010416666666666666
            },
            {
              "pitch": 42,
              "velocity": 80,
              "position": 0,
              "duration": 0.010416666666666666
            },
            {
              "pitch": 42,
              "velocity": 52,
              "position": 0.5,
              "duration": 0.010416666666666666
            },
            {
              "pitch": 35,
              "velocity": 100,
              "position": 1,
              "duration": 0.010416666666666666
            },
            {
              "pitch": 38,
              "velocity": 105,
              "position": 1,
              "duration": 0.010416666666666666
            },
            {
              "pitch": 42,
              "velocity": 80,
              "position": 1,
              "duration": 0.010416666666666666
            },
            {
              "pitch": 42,
              "velocity": 52,
              "position": 1.5,
              "duration": 0.010416666666666666
            },
            {
              "pitch": 35,
              "velocity": 100,
              "position": 2,
              "duration": 0.010416666666666666
            },
            {
              "pitch": 42,
              "velocity": 80,
              "position": 2,
              "duration": 0.010416666666666666
            },
            {
              "pitch": 42,
              "velocity": 52,
              "position": 2.5,
              "duration": 0.010416666666666666
            },
            {
              "pitch": 35,
              "velocity": 100,
              "position": 3,
              "duration": 0.010416666666666666
            },
            {
              "pitch": 38,
              "velocity": 105,
              "position": 3,
              "duration": 0.010416666666666666
            },
            {
              "pitch": 42,
              "velocity": 80,
              "position": 3,
              "duration": 0.010416666666666666
            },
            {
              "pitch": 42,
              "velocity": 52,
              "position": 3.5,
              "duration": 0.010416666666666666
            },
            {
              "pitch": 35,
              "velocity": 100,
              "position": 4,
              "duration": 0.010416666666666666
            },
            {
              "pitch": 42,
              "velocity": 80,
              "position": 4,
              "duration": 0.010416666666666666
            },
            {
              "pitch": 42,
              "velocity": 52,
              "position": 4.5,
              "duration": 0.010416666666666666
            },
            {
              "pitch": 35,
              "velocity": 100,
              "position": 5,
              "duration": 0.010416666666666666
            },
            {
              "pitch": 38,
              "velocity": 105,
              "position": 5,
              "duration": 0.010416666666666666
            },
            {
              "pitch": 42,
              "velocity": 80,
              "position": 5,
              "duration": 0.010416666666666666
            },
            {
              "pitch": 42,
              "velocity": 52,
              "position": 5.5,
              "duration": 0.010416666666666666
            },
            {
              "pitch": 35,
              "velocity": 100,
              "position": 6,
              "duration": 0.010416666666666666
            },
            {
              "pitch": 42,
              "velocity": 80,
              "position": 6,
              "duration": 0.010416666666666666
            },
            {
              "pitch": 42,
              "velocity": 52,
              "position": 6.5,
              "duration": 0.010416666666666666
            },
            {
              "pitch": 35,
              "velocity": 100,
              "position": 7,
              "duration": 0.010416666666666666
            },
            {
              "pitch": 38,
              "velocity": 105,
              "position": 7,
              "duration": 0.010416666666666666
            },
            {
              "pitch": 42,
              "velocity": 80,
              "position": 7,
              "duration": 0.010416666666666666
            },
            {
              "pitch": 46,
              "velocity": 65,
              "position": 7.5,
              "duration": 0.010416666666666666
            },
            {
              "pitch": 35,
              "velocity": 100,
              "position": 8,
              "duration": 0.010416666666666666
            },
            {
              "pitch": 42,
              "velocity": 80,
              "position": 8,
              "duration": 0.010416666666666666
            },
            {
              "pitch": 42,
              "velocity": 52,
              "position": 8.5,
              "duration": 0.010416666666666666
            },
            {
              "pitch": 35,
              "velocity": 100,
              "position": 9,
              "duration": 0.010416666666666666
            },
            {
              "pitch": 38,
              "velocity": 105,
              "position": 9,
              "duration": 0.010416666666666666
            },
            {
              "pitch": 42,
              "velocity": 80,
              "position": 9,
              "duration": 0.010416666666666666
            },
            {
              "pitch": 42,
              "velocity": 52,
              "position": 9.5,
              "duration": 0.010416666666666666
            },
            {
              "pitch": 35,
              "velocity": 100,
              "position": 10,
              "duration": 0.010416666666666666
            },
            {
              "pitch": 42,
              "velocity": 80,
              "position": 10,
              "duration": 0.010416666666666666
            },
            {
              "pitch": 42,
              "velocity": 52,
              "position": 10.5,
              "duration": 0.010416666666666666
            },
            {
              "pitch": 35,
              "velocity": 100,
              "position": 11,
              "duration": 0.010416666666666666
            },
            {
              "pitch": 38,
              "velocity": 105,
              "position": 11,
              "duration": 0.010416666666666666
            },
            {
              "pitch": 42,
              "velocity": 80,
              "position": 11,
              "duration": 0.010416666666666666
            },
            {
              "pitch": 42,
              "velocity": 52,
              "position": 11.5,
              "duration": 0.010416666666666666
            },
            {
              "pitch": 35,
              "velocity": 100,
              "position": 12,
              "duration": 0.010416666666666666
            },
            {
              "pitch": 42,
              "velocity": 80,
              "position": 12,
              "duration": 0.010416666666666666
            },
            {
              "pitch": 42,
              "velocity": 52,
              "position": 12.5,
              "duration": 0.010416666666666666
            },
            {
              "pitch": 35,
              "velocity": 100,
              "position": 13,
              "duration": 0.010416666666666666
            },
            {
              "pitch": 38,
              "velocity": 105,
              "position": 13,
              "duration": 0.010416666666666666
            },
            {
              "pitch": 42,
              "velocity": 80,
              "position": 13,
              "duration": 0.010416666666666666
            },
            {
              "pitch": 42,
              "velocity": 52,
              "position": 13.5,
              "duration": 0.010416666666666666
            },
            {
              "pitch": 35,
              "velocity": 100,
              "position": 14,
              "duration": 0.010416666666666666
            },
            {
              "pitch": 42,
              "velocity": 80,
              "position": 14,
              "duration": 0.010416666666666666
            },
            {
              "pitch": 42,
              "velocity": 52,
              "position": 14.5,
              "duration": 0.010416666666666666
            },
            {
              "pitch": 35,
              "velocity": 100,
              "position": 15,
              "duration": 0.010416666666666666
            },
            {
              "pitch": 38,
              "velocity": 105,
              "position": 15,
              "duration": 0.010416666666666666
            },
            {
              "pitch": 42,
              "velocity": 80,
              "position": 15,
              "duration": 0.010416666666666666
            },
            {
              "pitch": 46,
              "velocity": 65,
              "position": 15.5,
              "duration": 0.010416666666666666
            },
            {
              "pitch": 35,
              "velocity": 100,
              "position": 16,
              "duration": 0.010416666666666666
            },
            {
              "pitch": 42,
              "velocity": 80,
              "position": 16,
              "duration": 0.010416666666666666
            },
            {
              "pitch": 42,
              "velocity": 52,
              "position": 16.5,
              "duration": 0.010416666666666666
            },
            {
              "pitch": 35,
              "velocity": 100,
              "position": 17,
              "duration": 0.010416666666666666
            },
            {
              "pitch": 38,
              "velocity": 105,
              "position": 17,
              "duration": 0.010416666666666666
            },
            {
              "pitch": 42,
              "velocity": 80,
              "position": 17,
              "duration": 0.010416666666666666
            },
            {
              "pitch": 42,
              "velocity": 52,
              "position": 17.5,
              "duration": 0.010416666666666666
            },
            {
              "pitch": 35,
              "velocity": 100,
              "position": 18,
              "duration": 0.010416666666666666
            },
            {
              "pitch": 42,
              "velocity": 80,
              "position": 18,
              "duration": 0.010416666666666666
            },
            {
              "pitch": 42,
              "velocity": 52,
              "position": 18.5,
              "duration": 0.010416666666666666
            },
            {
              "pitch": 35,
              "velocity": 100,
              "position": 19,
              "duration": 0.010416666666666666
            },
            {
              "pitch": 38,
              "velocity": 105,
              "position": 19,
              "duration": 0.010416666666666666
            },
            {
              "pitch": 42,
              "velocity": 80,
              "position": 19,
              "duration": 0.010416666666666666
            },
            {
              "pitch": 42,
              "velocity": 52,
              "position": 19.5,
              "duration": 0.010416666666666666
            },
            {
              "pitch": 35,
              "velocity": 100,
              "position": 20,
              "duration": 0.010416666666666666
            },
            {
              "pitch": 42,
              "velocity": 80,
              "position": 20,
              "duration": 0.010416666666666666
            },
            {
              "pitch": 42,
              "velocity": 52,
              "position": 20.5,
              "duration": 0.010416666666666666
            },
            {
              "pitch": 35,
              "velocity": 100,
              "position": 21,
              "duration": 0.010416666666666666
            },
            {
              "pitch": 38,
              "velocity": 105,
              "position": 21,
              "duration": 0.010416666666666666
            },
            {
              "pitch": 42,
              "velocity": 80,
              "position": 21,
              "duration": 0.010416666666666666
            },
            {
              "pitch": 42,
              "velocity": 52,
              "position": 21.5,
              "duration": 0.010416666666666666
            },
            {
              "pitch": 35,
              "velocity": 100,
              "position": 22,
              "duration": 0.010416666666666666
            },
            {
              "pitch": 42,
              "velocity": 80,
              "position": 22,
              "duration": 0.010416666666666666
            },
            {
              "pitch": 42,
              "velocity": 52,
              "position": 22.5,
              "duration": 0.010416666666666666
            },
            {
              "pitch": 35,
              "velocity": 100,
              "position": 23,
              "duration": 0.010416666666666666
            },
            {
              "pitch": 38,
              "velocity": 105,
              "position": 23,
              "duration": 0.010416666666666666
            },
            {
              "pitch": 42,
              "velocity": 80,
              "position": 23,
              "duration": 0.010416666666666666
            },
            {
              "pitch": 46,
              "velocity": 65,
              "position": 23.5,
              "duration": 0.010416666666666666
            },
            {
              "pitch": 35,
              "velocity": 100,
              "position": 24,
              "duration": 0.010416666666666666
            },
            {
              "pitch": 42,
              "velocity": 80,
              "position": 24,
              "duration": 0.010416666666666666
            },
            {
              "pitch": 42,
              "velocity": 52,
              "position": 24.5,
              "duration": 0.010416666666666666
            },
            {
              "pitch": 35,
              "velocity": 100,
              "position": 25,
              "duration": 0.010416666666666666
            },
            {
              "pitch": 38,
              "velocity": 105,
              "position": 25,
              "duration": 0.010416666666666666
            },
            {
              "pitch": 42,
              "velocity": 80,
              "position": 25,
              "duration": 0.010416666666666666
            },
            {
              "pitch": 42,
              "velocity": 52,
              "position": 25.5,
              "duration": 0.010416666666666666
            },
            {
              "pitch": 35,
              "velocity": 100,
              "position": 26,
              "duration": 0.010416666666666666
            },
            {
              "pitch": 42,
              "velocity": 80,
              "position": 26,
              "duration": 0.010416666666666666
            },
            {
              "pitch": 42,
              "velocity": 52,
              "position": 26.5,
              "duration": 0.010416666666666666
            },
            {
              "pitch": 35,
              "velocity": 100,
              "position": 27,
              "duration": 0.010416666666666666
            },
            {
              "pitch": 38,
              "velocity": 105,
              "position": 27,
              "duration": 0.010416666666666666
            },
            {
              "pitch": 42,
              "velocity": 80,
              "position": 27,
              "duration": 0.010416666666666666
            },
            {
              "pitch": 42,
              "velocity": 52,
              "position": 27.5,
              "duration": 0.010416666666666666
            },
            {
              "pitch": 35,
              "velocity": 100,
              "position": 28,
              "duration": 0.010416666666666666
            },
            {
              "pitch": 42,
              "velocity": 80,
              "position": 28,
              "duration": 0.010416666666666666
            },
            {
              "pitch": 42,
              "velocity": 52,
              "position": 28.5,
              "duration": 0.010416666666666666
            },
            {
              "pitch": 35,
              "velocity": 100,
              "position": 29,
              "duration": 0.010416666666666666
            },
            {
              "pitch": 38,
              "velocity": 105,
              "position": 29,
              "duration": 0.010416666666666666
            },
            {
              "pitch": 42,
              "velocity": 80,
              "position": 29,
              "duration": 0.010416666666666666
            },
            {
              "pitch": 42,
              "velocity": 52,
              "position": 29.5,
              "duration": 0.010416666666666666
            },
            {
              "pitch": 35,
              "velocity": 100,
              "position": 30,
              "duration": 0.010416666666666666
            },
            {
              "pitch": 42,
              "velocity": 80,
              "position": 30,
              "duration": 0.010416666666666666
            },
            {
              "pitch": 42,
              "velocity": 52,
              "position": 30.5,
              "duration": 0.010416666666666666
            },
            {
              "pitch": 35,
              "velocity": 100,
              "position": 31,
              "duration": 0.010416666666666666
            },
            {
              "pitch": 38,
              "velocity": 105,
              "position": 31,
              "duration": 0.010416666666666666
            },
            {
              "pitch": 42,
              "velocity": 80,
              "position": 31,
              "duration": 0.010416666666666666
            },
            {
              "pitch": 46,
              "velocity": 65,
              "position": 31.5,
              "duration": 0.010416666666666666
            }
          ]
        },
        "10": {
          "ctab": {
            "srcChannel": 10,
            "name": "Bass FX",
            "accType": "BASS",
            "editable": false,
            "mutedNotes": [],
            "mutedChords": [],
            "autoStart": false,
            "sourceChordNote": 0,
            "sourceChordType": "7th",
            "ctb2Low": null,
            "ctb2Main": {
              "ntr": "ROOT_FIXED",
              "ntt": "BYPASS",
              "bassOn": false,
              "chordRootUpperLimit": 7,
              "noteLowLimit": 0,
              "noteHighLimit": 127,
              "rtr": "PITCH_SHIFT"
            },
            "ctb2High": null
          },
          "notes": []
        },
        "11": {
          "ctab": {
            "srcChannel": 11,
            "name": "Bass a",
            "accType": "BASS",
            "editable": false,
            "mutedNotes": [],
            "mutedChords": [
              "1+2+5",
              "sus4",
              "1+5",
              "1+8",
              "7aug",
              "Maj7aug",
              "7(#9)",
              "7(b13)",
              "7(b9)",
              "7(13)",
              "7#11",
              "7(9)",
              "7b5",
              "7sus4",
              "dim7",
              "dim",
              "minMaj7(9)",
              "minMaj7",
              "min7(11)",
              "min7(9)",
              "min(9)",
              "m7b5",
              "min7",
              "min6",
              "aug",
              "Maj6(9)",
              "Maj7(9)",
              "Maj(9)",
              "Maj7#11",
              "Maj7",
              "Maj6"
            ],
            "autoStart": false,
            "sourceChordNote": 0,
            "sourceChordType": "7th",
            "ctb2Low": null,
            "ctb2Main": {
              "ntr": "ROOT_TRANSPOSITION",
              "ntt": "MELODIC_MINOR_5",
              "bassOn": true,
              "chordRootUpperLimit": 8,
              "noteLowLimit": 28,
              "noteHighLimit": 127,
              "rtr": "PITCH_SHIFT_TO_ROOT"
            },
            "ctb2High": null
          },
          "notes": [
            {
              "pitch": 24,
              "velocity": 70,
              "position": 0,
              "duration": 0.3770833333333333
            },
            {
              "pitch": 24,
              "velocity": 60,
              "position": 1.7708333333333333,
              "duration": 0.16875
            },
            {
              "pitch": 24,
              "velocity": 70,
              "position": 2,
              "duration": 0.3770833333333333
            },
            {
              "pitch": 24,
              "velocity": 99,
              "position": 3.75,
              "duration": 0.2625
            },
            {
              "pitch": 34,
              "velocity": 70,
              "position": 4,
              "duration": 0.30833333333333335
            },
            {
              "pitch": 24,
              "velocity": 99,
              "position": 4.5,
              "duration": 0.2625
            },
            {
              "pitch": 33,
              "velocity": 70,
              "position": 4.75,
              "duration": 0.30833333333333335
            },
            {
              "pitch": 24,
              "velocity": 99,
              "position": 5.270833333333333,
              "duration": 0.22083333333333333
            },
            {
              "pitch": 31,
              "velocity": 70,
              "position": 5.5,
              "duration": 0.30833333333333335
            },
            {
              "pitch": 24,
              "velocity": 70,
              "position": 6,
              "duration": 0.36041666666666666
            },
            {
              "pitch": 24,
              "velocity": 70,
              "position": 8,
              "duration": 0.3770833333333333
            },
            {
              "pitch": 24,
              "velocity": 60,
              "position": 9.770833333333334,
              "duration": 0.16875
            },
            {
              "pitch": 24,
              "velocity": 70,
              "position": 10,
              "duration": 0.3770833333333333
            },
            {
              "pitch": 24,
              "velocity": 99,
              "position": 11.75,
              "duration": 0.2625
            },
            {
              "pitch": 31,
              "velocity": 70,
              "position": 12,
              "duration": 0.30833333333333335
            },
            {
              "pitch": 24,
              "velocity": 99,
              "position": 12.5,
              "duration": 0.2625
            },
            {
              "pitch": 33,
              "velocity": 70,
              "position": 12.75,
              "duration": 0.30833333333333335
            },
            {
              "pitch": 24,
              "velocity": 99,
              "position": 13.270833333333334,
              "duration": 0.22083333333333333
            },
            {
              "pitch": 24,
              "velocity": 70,
              "position": 13.5,
              "duration": 0.09375
            },
            {
              "pitch": 24,
              "velocity": 60,
              "position": 13.770833333333334,
              "duration": 0.09375
            },
            {
              "pitch": 34,
              "velocity": 70,
              "position": 14,
              "duration": 0.2625
            },
            {
              "pitch": 36,
              "velocity": 60,
              "position": 14.270833333333334,
              "duration": 0.22083333333333333
            },
            {
              "pitch": 24,
              "velocity": 70,
              "position": 14.5,
              "duration": 0.2875
            },
            {
              "pitch": 24,
              "velocity": 70,
              "position": 15,
              "duration": 0.36041666666666666
            },
            {
              "pitch": 24,
              "velocity": 70,
              "position": 16,
              "duration": 0.3770833333333333
            },
            {
              "pitch": 24,
              "velocity": 60,
              "position": 17.770833333333332,
              "duration": 0.16875
            },
            {
              "pitch": 24,
              "velocity": 70,
              "position": 18,
              "duration": 0.3770833333333333
            },
            {
              "pitch": 24,
              "velocity": 99,
              "position": 19.75,
              "duration": 0.2625
            },
            {
              "pitch": 34,
              "velocity": 70,
              "position": 20,
              "duration": 0.30833333333333335
            },
            {
              "pitch": 24,
              "velocity": 99,
              "position": 20.5,
              "duration": 0.2625
            },
            {
              "pitch": 33,
              "velocity": 70,
              "position": 20.75,
              "duration": 0.30833333333333335
            },
            {
              "pitch": 24,
              "velocity": 99,
              "position": 21.270833333333332,
              "duration": 0.22083333333333333
            },
            {
              "pitch": 31,
              "velocity": 70,
              "position": 21.5,
              "duration": 0.30833333333333335
            },
            {
              "pitch": 24,
              "velocity": 70,
              "position": 22,
              "duration": 0.36041666666666666
            },
            {
              "pitch": 24,
              "velocity": 70,
              "position": 24,
              "duration": 0.3770833333333333
            },
            {
              "pitch": 24,
              "velocity": 60,
              "position": 25.770833333333332,
              "duration": 0.16875
            },
            {
              "pitch": 24,
              "velocity": 70,
              "position": 26,
              "duration": 0.3770833333333333
            },
            {
              "pitch": 24,
              "velocity": 99,
              "position": 27.75,
              "duration": 0.2625
            },
            {
              "pitch": 31,
              "velocity": 70,
              "position": 28,
              "duration": 0.30833333333333335
            },
            {
              "pitch": 24,
              "velocity": 99,
              "position": 28.5,
              "duration": 0.2625
            },
            {
              "pitch": 33,
              "velocity": 70,
              "position": 28.75,
              "duration": 0.30833333333333335
            },
            {
              "pitch": 24,
              "velocity": 99,
              "position": 29.270833333333332,
              "duration": 0.22083333333333333
            },
            {
              "pitch": 24,
              "velocity": 70,
              "position": 29.5,
              "duration": 0.09375
            },
            {
              "pitch": 24,
              "velocity": 60,
              "position": 29.770833333333332,
              "duration": 0.09375
            },
            {
              "pitch": 34,
              "velocity": 70,
              "position": 30,
              "duration": 0.2625
            },
            {
              "pitch": 36,
              "velocity": 60,
              "position": 30.270833333333332,
              "duration": 0.22083333333333333
            },
            {
              "pitch": 24,
              "velocity": 70,
              "position": 30.5,
              "duration": 0.2875
            },
            {
              "pitch": 24,
              "velocity": 70,
              "position": 31,
              "duration": 0.36041666666666666
            }
          ]
        },
        "12": {
          "ctab": {
            "srcChannel": 12,
            "name": "Bass b",
            "accType": "BASS",
            "editable": false,
            "mutedNotes": [],
            "mutedChords": [
              "7th",
              "min",
              "Maj"
            ],
            "autoStart": false,
            "sourceChordNote": 0,
            "sourceChordType": "Maj7",
            "ctb2Low": null,
            "ctb2Main": {
              "ntr": "ROOT_TRANSPOSITION",
              "ntt": "MELODY",
              "bassOn": true,
              "chordRootUpperLimit": 8,
              "noteLowLimit": 28,
              "noteHighLimit": 127,
              "rtr": "PITCH_SHIFT_TO_ROOT"
            },
            "ctb2High": null
          },
          "notes": [
            {
              "pitch": 24,
              "velocity": 70,
              "position": 0,
              "duration": 0.3770833333333333
            },
            {
              "pitch": 24,
              "velocity": 60,
              "position": 1.7708333333333333,
              "duration": 0.16875
            },
            {
              "pitch": 24,
              "velocity": 70,
              "position": 2,
              "duration": 0.3770833333333333
            },
            {
              "pitch": 24,
              "velocity": 99,
              "position": 3.75,
              "duration": 0.24791666666666667
            },
            {
              "pitch": 24,
              "velocity": 70,
              "position": 4,
              "duration": 0.30833333333333335
            },
            {
              "pitch": 24,
              "velocity": 99,
              "position": 4.5,
              "duration": 0.25
            },
            {
              "pitch": 24,
              "velocity": 70,
              "position": 4.75,
              "duration": 0.30833333333333335
            },
            {
              "pitch": 24,
              "velocity": 99,
              "position": 5.270833333333333,
              "duration": 0.22083333333333333
            },
            {
              "pitch": 24,
              "velocity": 70,
              "position": 5.5,
              "duration": 0.30833333333333335
            },
            {
              "pitch": 24,
              "velocity": 70,
              "position": 6,
              "duration": 0.36041666666666666
            },
            {
              "pitch": 24,
              "velocity": 70,
              "position": 8,
              "duration": 0.3770833333333333
            },
            {
              "pitch": 24,
              "velocity": 60,
              "position": 9.770833333333334,
              "duration": 0.16875
            },
            {
              "pitch": 24,
              "velocity": 70,
              "position": 10,
              "duration": 0.3770833333333333
            },
            {
              "pitch": 24,
              "velocity": 99,
              "position": 11.75,
              "duration": 0.25
            },
            {
              "pitch": 24,
              "velocity": 70,
              "position": 12,
              "duration": 0.30833333333333335
            },
            {
              "pitch": 24,
              "velocity": 99,
              "position": 12.5,
              "duration": 0.25
            },
            {
              "pitch": 24,
              "velocity": 70,
              "position": 12.75,
              "duration": 0.30833333333333335
            },
            {
              "pitch": 24,
              "velocity": 99,
              "position": 13.270833333333334,
              "duration": 0.22083333333333333
            },
            {
              "pitch": 24,
              "velocity": 70,
              "position": 13.5,
              "duration": 0.09375
            },
            {
              "pitch": 31,
              "velocity": 60,
              "position": 13.770833333333334,
              "duration": 0.09375
            },
            {
              "pitch": 36,
              "velocity": 70,
              "position": 14,
              "duration": 0.2875
            },
            {
              "pitch": 24,
              "velocity": 70,
              "position": 14.5,
              "duration": 0.2875
            },
            {
              "pitch": 24,
              "velocity": 70,
              "position": 15,
              "duration": 0.36041666666666666
            },
            {
              "pitch": 24,
              "velocity": 70,
              "position": 16,
              "duration": 0.3770833333333333
            },
            {
              "pitch": 24,
              "velocity": 60,
              "position": 17.770833333333332,
              "duration": 0.16875
            },
            {
              "pitch": 24,
              "velocity": 70,
              "position": 18,
              "duration": 0.3770833333333333
            },
            {
              "pitch": 24,
              "velocity": 99,
              "position": 19.75,
              "duration": 0.25
            },
            {
              "pitch": 24,
              "velocity": 70,
              "position": 20,
              "duration": 0.30833333333333335
            },
            {
              "pitch": 24,
              "velocity": 99,
              "position": 20.5,
              "duration": 0.25
            },
            {
              "pitch": 24,
              "velocity": 70,
              "position": 20.75,
              "duration": 0.30833333333333335
            },
            {
              "pitch": 24,
              "velocity": 99,
              "position": 21.270833333333332,
              "duration": 0.22916666666666666
            },
            {
              "pitch": 24,
              "velocity": 70,
              "position": 21.5,
              "duration": 0.30833333333333335
            },
            {
              "pitch": 24,
              "velocity": 70,
              "position": 22,
              "duration": 0.36041666666666666
            },
            {
              "pitch": 24,
              "velocity": 70,
              "position": 24,
              "duration": 0.3770833333333333
            },
            {
              "pitch": 24,
              "velocity": 60,
              "position": 25.770833333333332,
              "duration": 0.16875
            },
            {
              "pitch": 24,
              "velocity": 70,
              "position": 26,
              "duration": 0.3770833333333333
            },
            {
              "pitch": 24,
              "velocity": 99,
              "position": 27.75,
              "duration": 0.25
            },
            {
              "pitch": 24,
              "velocity": 70,
              "position": 28,
              "duration": 0.30833333333333335
            },
            {
              "pitch": 24,
              "velocity": 99,
              "position": 28.5,
              "duration": 0.25
            },
            {
              "pitch": 24,
              "velocity": 70,
              "position": 28.75,
              "duration": 0.30833333333333335
            },
            {
              "pitch": 24,
              "velocity": 99,
              "position": 29.270833333333332,
              "duration": 0.22083333333333333
            },
            {
              "pitch": 24,
              "velocity": 70,
              "position": 29.5,
              "duration": 0.09375
            },
            {
              "pitch": 31,
              "velocity": 60,
              "position": 29.770833333333332,
              "duration": 0.09375
            },
            {
              "pitch": 36,
              "velocity": 70,
              "position": 30,
              "duration": 0.2875
            },
            {
              "pitch": 24,
              "velocity": 70,
              "position": 30.5,
              "duration": 0.2875
            },
            {
              "pitch": 24,
              "velocity": 70,
              "position": 31,
              "duration": 0.36041666666666666
            }
          ]
        },
        "13": {
          "ctab": {
            "srcChannel": 13,
            "name": "EP Maj",
            "accType": "CHORD2",
            "editable": false,
            "mutedNotes": [],
            "mutedChords": [
              "1+2+5",
              "sus4",
              "1+5",
              "1+8",
              "7aug",
              "Maj7aug",
              "7(#9)",
              "7(b13)",
              "7(b9)",
              "7(13)",
              "7#11",
              "7(9)",
              "7b5",
              "7sus4",
              "dim7",
              "dim",
              "minMaj7(9)",
              "minMaj7",
              "min7(11)",
              "min7(9)",
              "min(9)",
              "m7b5",
              "min7",
              "min6",
              "min",
              "aug",
              "Maj6(9)",
              "Maj7(9)",
              "Maj(9)",
              "Maj7#11",
              "Maj7",
              "Maj6"
            ],
            "autoStart": false,
            "sourceChordNote": 0,
            "sourceChordType": "7th",
            "ctb2Low": null,
            "ctb2Main": {
              "ntr": "ROOT_TRANSPOSITION",
              "ntt": "MELODIC_MINOR_5",
              "bassOn": false,
              "chordRootUpperLimit": 8,
              "noteLowLimit": 40,
              "noteHighLimit": 66,
              "rtr": "PITCH_SHIFT"
            },
            "ctb2High": null
          },
          "notes": [
            {
              "pitch": 36,
              "velocity": 101,
              "position": 0.010416666666666666,
              "duration": 3.754166666666667
            },
            {
              "pitch": 70,
              "velocity": 102,
              "position": 0.010416666666666666,
              "duration": 3.777083333333333
            },
            {
              "pitch": 67,
              "velocity": 102,
              "position": 0.010416666666666666,
              "duration": 3.783333333333333
            },
            {
              "pitch": 72,
              "velocity": 102,
              "position": 0.010416666666666666,
              "duration": 3.785416666666667
            },
            {
              "pitch": 76,
              "velocity": 72,
              "position": 0.010416666666666666,
              "duration": 3.785416666666667
            },
            {
              "pitch": 58,
              "velocity": 84,
              "position": 5.78125,
              "duration": 0.058333333333333334
            },
            {
              "pitch": 67,
              "velocity": 81,
              "position": 5.997916666666667,
              "duration": 0.26875
            },
            {
              "pitch": 70,
              "velocity": 80,
              "position": 6,
              "duration": 0.27708333333333335
            },
            {
              "pitch": 74,
              "velocity": 81,
              "position": 6.00625,
              "duration": 0.2708333333333333
            },
            {
              "pitch": 58,
              "velocity": 83,
              "position": 6.291666666666667,
              "duration": 0.07083333333333333
            },
            {
              "pitch": 69,
              "velocity": 105,
              "position": 6.504166666666666,
              "duration": 0.27291666666666664
            },
            {
              "pitch": 72,
              "velocity": 108,
              "position": 6.491666666666666,
              "duration": 0.29583333333333334
            },
            {
              "pitch": 76,
              "velocity": 107,
              "position": 6.495833333333334,
              "duration": 0.29583333333333334
            },
            {
              "pitch": 36,
              "velocity": 101,
              "position": 6.7875,
              "duration": 0.05416666666666667
            },
            {
              "pitch": 74,
              "velocity": 81,
              "position": 6.997916666666667,
              "duration": 0.26875
            },
            {
              "pitch": 67,
              "velocity": 80,
              "position": 7,
              "duration": 0.27708333333333335
            },
            {
              "pitch": 70,
              "velocity": 81,
              "position": 7.00625,
              "duration": 0.2708333333333333
            },
            {
              "pitch": 36,
              "velocity": 102,
              "position": 7.285416666666666,
              "duration": 0.05
            },
            {
              "pitch": 69,
              "velocity": 95,
              "position": 7.504166666666666,
              "duration": 0.27291666666666664
            },
            {
              "pitch": 72,
              "velocity": 98,
              "position": 7.491666666666666,
              "duration": 0.29583333333333334
            },
            {
              "pitch": 76,
              "velocity": 97,
              "position": 7.495833333333334,
              "duration": 0.29583333333333334
            },
            {
              "pitch": 36,
              "velocity": 101,
              "position": 8.010416666666666,
              "duration": 3.004166666666667
            },
            {
              "pitch": 70,
              "velocity": 102,
              "position": 8.010416666666666,
              "duration": 3.029166666666667
            },
            {
              "pitch": 74,
              "velocity": 102,
              "position": 8.010416666666666,
              "duration": 3.033333333333333
            },
            {
              "pitch": 76,
              "velocity": 72,
              "position": 8.010416666666666,
              "duration": 3.033333333333333
            },
            {
              "pitch": 67,
              "velocity": 102,
              "position": 8.010416666666666,
              "duration": 3.0375
            },
            {
              "pitch": 70,
              "velocity": 87,
              "position": 11.5,
              "duration": 0.12916666666666668
            },
            {
              "pitch": 74,
              "velocity": 82,
              "position": 11.5,
              "duration": 0.13333333333333333
            },
            {
              "pitch": 67,
              "velocity": 88,
              "position": 11.508333333333333,
              "duration": 0.1375
            },
            {
              "pitch": 36,
              "velocity": 72,
              "position": 11.783333333333333,
              "duration": 0.06666666666666667
            },
            {
              "pitch": 66,
              "velocity": 102,
              "position": 12.010416666666666,
              "duration": 0.22708333333333333
            },
            {
              "pitch": 73,
              "velocity": 102,
              "position": 12.010416666666666,
              "duration": 0.25
            },
            {
              "pitch": 69,
              "velocity": 100,
              "position": 12.010416666666666,
              "duration": 0.2625
            },
            {
              "pitch": 70,
              "velocity": 80,
              "position": 12.285416666666666,
              "duration": 0.12083333333333333
            },
            {
              "pitch": 74,
              "velocity": 81,
              "position": 12.2875,
              "duration": 0.13541666666666666
            },
            {
              "pitch": 67,
              "velocity": 79,
              "position": 12.285416666666666,
              "duration": 0.14375
            },
            {
              "pitch": 36,
              "velocity": 89,
              "position": 12.497916666666667,
              "duration": 0.07083333333333333
            },
            {
              "pitch": 70,
              "velocity": 83,
              "position": 12.79375,
              "duration": 0.11666666666666667
            },
            {
              "pitch": 74,
              "velocity": 83,
              "position": 12.791666666666666,
              "duration": 0.12916666666666668
            },
            {
              "pitch": 67,
              "velocity": 82,
              "position": 12.791666666666666,
              "duration": 0.15208333333333332
            },
            {
              "pitch": 36,
              "velocity": 90,
              "position": 12.997916666666667,
              "duration": 0.0625
            },
            {
              "pitch": 74,
              "velocity": 105,
              "position": 13.289583333333333,
              "duration": 0.18541666666666667
            },
            {
              "pitch": 67,
              "velocity": 109,
              "position": 13.297916666666667,
              "duration": 0.20416666666666666
            },
            {
              "pitch": 70,
              "velocity": 96,
              "position": 13.49375,
              "duration": 0.12916666666666668
            },
            {
              "pitch": 36,
              "velocity": 72,
              "position": 13.79375,
              "duration": 0.06458333333333334
            },
            {
              "pitch": 74,
              "velocity": 83,
              "position": 13.997916666666667,
              "duration": 0.20416666666666666
            },
            {
              "pitch": 70,
              "velocity": 83,
              "position": 13.997916666666667,
              "duration": 0.21666666666666667
            },
            {
              "pitch": 67,
              "velocity": 83,
              "position": 13.99375,
              "duration": 0.23958333333333334
            },
            {
              "pitch": 36,
              "velocity": 86,
              "position": 14.28125,
              "duration": 0.08333333333333333
            },
            {
              "pitch": 69,
              "velocity": 104,
              "position": 14.5,
              "duration": 0.22916666666666666
            },
            {
              "pitch": 76,
              "velocity": 103,
              "position": 14.49375,
              "duration": 0.23541666666666666
            },
            {
              "pitch": 72,
              "velocity": 103,
              "position": 14.50625,
              "duration": 0.23333333333333334
            },
            {
              "pitch": 74,
              "velocity": 83,
              "position": 14.991666666666667,
              "duration": 0.29791666666666666
            },
            {
              "pitch": 70,
              "velocity": 80,
              "position": 15,
              "duration": 0.31666666666666665
            },
            {
              "pitch": 67,
              "velocity": 80,
              "position": 14.991666666666667,
              "duration": 0.32708333333333334
            },
            {
              "pitch": 36,
              "velocity": 86,
              "position": 15.28125,
              "duration": 0.08333333333333333
            },
            {
              "pitch": 69,
              "velocity": 104,
              "position": 15.5,
              "duration": 0.22916666666666666
            },
            {
              "pitch": 76,
              "velocity": 103,
              "position": 15.49375,
              "duration": 0.23541666666666666
            },
            {
              "pitch": 72,
              "velocity": 103,
              "position": 15.50625,
              "duration": 0.23333333333333334
            },
            {
              "pitch": 36,
              "velocity": 101,
              "position": 16.010416666666668,
              "duration": 3.754166666666667
            },
            {
              "pitch": 70,
              "velocity": 102,
              "position": 16.010416666666668,
              "duration": 3.777083333333333
            },
            {
              "pitch": 67,
              "velocity": 102,
              "position": 16.010416666666668,
              "duration": 3.783333333333333
            },
            {
              "pitch": 72,
              "velocity": 102,
              "position": 16.010416666666668,
              "duration": 3.785416666666667
            },
            {
              "pitch": 76,
              "velocity": 72,
              "position": 16.010416666666668,
              "duration": 3.785416666666667
            },
            {
              "pitch": 58,
              "velocity": 84,
              "position": 21.78125,
              "duration": 0.058333333333333334
            },
            {
              "pitch": 67,
              "velocity": 81,
              "position": 21.997916666666665,
              "duration": 0.26875
            },
            {
              "pitch": 70,
              "velocity": 80,
              "position": 22,
              "duration": 0.27708333333333335
            },
            {
              "pitch": 74,
              "velocity": 81,
              "position": 22.00625,
              "duration": 0.2708333333333333
            },
            {
              "pitch": 58,
              "velocity": 83,
              "position": 22.291666666666668,
              "duration": 0.07083333333333333
            },
            {
              "pitch": 69,
              "velocity": 105,
              "position": 22.504166666666666,
              "duration": 0.27291666666666664
            },
            {
              "pitch": 72,
              "velocity": 108,
              "position": 22.491666666666667,
              "duration": 0.29583333333333334
            },
            {
              "pitch": 76,
              "velocity": 107,
              "position": 22.495833333333334,
              "duration": 0.29583333333333334
            },
            {
              "pitch": 36,
              "velocity": 126,
              "position": 22.7875,
              "duration": 0.05416666666666667
            },
            {
              "pitch": 74,
              "velocity": 81,
              "position": 22.997916666666665,
              "duration": 0.26875
            },
            {
              "pitch": 67,
              "velocity": 80,
              "position": 23,
              "duration": 0.27708333333333335
            },
            {
              "pitch": 70,
              "velocity": 81,
              "position": 23.00625,
              "duration": 0.2708333333333333
            },
            {
              "pitch": 36,
              "velocity": 127,
              "position": 23.285416666666666,
              "duration": 0.05
            },
            {
              "pitch": 69,
              "velocity": 95,
              "position": 23.504166666666666,
              "duration": 0.27291666666666664
            },
            {
              "pitch": 72,
              "velocity": 98,
              "position": 23.491666666666667,
              "duration": 0.29583333333333334
            },
            {
              "pitch": 76,
              "velocity": 97,
              "position": 23.495833333333334,
              "duration": 0.29583333333333334
            },
            {
              "pitch": 36,
              "velocity": 126,
              "position": 24.010416666666668,
              "duration": 3.004166666666667
            },
            {
              "pitch": 70,
              "velocity": 102,
              "position": 24.010416666666668,
              "duration": 3.029166666666667
            },
            {
              "pitch": 74,
              "velocity": 102,
              "position": 24.010416666666668,
              "duration": 3.033333333333333
            },
            {
              "pitch": 76,
              "velocity": 72,
              "position": 24.010416666666668,
              "duration": 3.033333333333333
            },
            {
              "pitch": 67,
              "velocity": 102,
              "position": 24.010416666666668,
              "duration": 3.0375
            },
            {
              "pitch": 70,
              "velocity": 87,
              "position": 27.5,
              "duration": 0.12916666666666668
            },
            {
              "pitch": 74,
              "velocity": 82,
              "position": 27.5,
              "duration": 0.13333333333333333
            },
            {
              "pitch": 67,
              "velocity": 88,
              "position": 27.508333333333333,
              "duration": 0.1375
            },
            {
              "pitch": 36,
              "velocity": 91,
              "position": 27.783333333333335,
              "duration": 0.06666666666666667
            },
            {
              "pitch": 66,
              "velocity": 102,
              "position": 28.010416666666668,
              "duration": 0.22708333333333333
            },
            {
              "pitch": 73,
              "velocity": 102,
              "position": 28.010416666666668,
              "duration": 0.25
            },
            {
              "pitch": 69,
              "velocity": 100,
              "position": 28.010416666666668,
              "duration": 0.2625
            },
            {
              "pitch": 70,
              "velocity": 80,
              "position": 28.285416666666666,
              "duration": 0.12083333333333333
            },
            {
              "pitch": 74,
              "velocity": 81,
              "position": 28.2875,
              "duration": 0.13541666666666666
            },
            {
              "pitch": 67,
              "velocity": 79,
              "position": 28.285416666666666,
              "duration": 0.14375
            },
            {
              "pitch": 36,
              "velocity": 110,
              "position": 28.497916666666665,
              "duration": 0.07083333333333333
            },
            {
              "pitch": 70,
              "velocity": 83,
              "position": 28.79375,
              "duration": 0.11666666666666667
            },
            {
              "pitch": 74,
              "velocity": 83,
              "position": 28.791666666666668,
              "duration": 0.12916666666666668
            },
            {
              "pitch": 67,
              "velocity": 82,
              "position": 28.791666666666668,
              "duration": 0.15208333333333332
            },
            {
              "pitch": 36,
              "velocity": 112,
              "position": 28.997916666666665,
              "duration": 0.0625
            },
            {
              "pitch": 74,
              "velocity": 105,
              "position": 29.289583333333333,
              "duration": 0.18541666666666667
            },
            {
              "pitch": 67,
              "velocity": 109,
              "position": 29.297916666666666,
              "duration": 0.20416666666666666
            },
            {
              "pitch": 70,
              "velocity": 96,
              "position": 29.49375,
              "duration": 0.12916666666666668
            },
            {
              "pitch": 36,
              "velocity": 90,
              "position": 29.79375,
              "duration": 0.06458333333333334
            },
            {
              "pitch": 74,
              "velocity": 83,
              "position": 29.997916666666665,
              "duration": 0.20416666666666666
            },
            {
              "pitch": 70,
              "velocity": 83,
              "position": 29.997916666666665,
              "duration": 0.21666666666666667
            },
            {
              "pitch": 67,
              "velocity": 83,
              "position": 29.99375,
              "duration": 0.23958333333333334
            },
            {
              "pitch": 36,
              "velocity": 107,
              "position": 30.28125,
              "duration": 0.08333333333333333
            },
            {
              "pitch": 69,
              "velocity": 104,
              "position": 30.5,
              "duration": 0.22916666666666666
            },
            {
              "pitch": 76,
              "velocity": 103,
              "position": 30.49375,
              "duration": 0.23541666666666666
            },
            {
              "pitch": 72,
              "velocity": 103,
              "position": 30.50625,
              "duration": 0.23333333333333334
            },
            {
              "pitch": 74,
              "velocity": 83,
              "position": 30.991666666666667,
              "duration": 0.29791666666666666
            },
            {
              "pitch": 70,
              "velocity": 80,
              "position": 31,
              "duration": 0.31666666666666665
            },
            {
              "pitch": 67,
              "velocity": 80,
              "position": 30.991666666666667,
              "duration": 0.32708333333333334
            },
            {
              "pitch": 36,
              "velocity": 107,
              "position": 31.28125,
              "duration": 0.08333333333333333
            },
            {
              "pitch": 69,
              "velocity": 104,
              "position": 31.5,
              "duration": 0.22916666666666666
            },
            {
              "pitch": 76,
              "velocity": 103,
              "position": 31.49375,
              "duration": 0.23541666666666666
            },
            {
              "pitch": 72,
              "velocity": 103,
              "position": 31.50625,
              "duration": 0.23333333333333334
            }
          ]
        },
        "14": {
          "ctab": {
            "srcChannel": 14,
            "name": "EP Min",
            "accType": "CHORD2",
            "editable": false,
            "mutedNotes": [],
            "mutedChords": [
              "1+2+5",
              "sus4",
              "1+5",
              "1+8",
              "7aug",
              "Maj7aug",
              "7(#9)",
              "7(b13)",
              "7(b9)",
              "7(13)",
              "7#11",
              "7(9)",
              "7b5",
              "7sus4",
              "7th",
              "dim7",
              "dim",
              "minMaj7(9)",
              "minMaj7",
              "min7(11)",
              "min7(9)",
              "min(9)",
              "m7b5",
              "min7",
              "min6",
              "aug",
              "Maj6(9)",
              "Maj7(9)",
              "Maj(9)",
              "Maj7#11",
              "Maj7",
              "Maj6",
              "Maj"
            ],
            "autoStart": false,
            "sourceChordNote": 0,
            "sourceChordType": "min7",
            "ctb2Low": null,
            "ctb2Main": {
              "ntr": "ROOT_TRANSPOSITION",
              "ntt": "MELODIC_MINOR_5",
              "bassOn": false,
              "chordRootUpperLimit": 8,
              "noteLowLimit": 40,
              "noteHighLimit": 66,
              "rtr": "PITCH_SHIFT"
            },
            "ctb2High": null
          },
          "notes": [
            {
              "pitch": 36,
              "velocity": 100,
              "position": 0.010416666666666666,
              "duration": 3.754166666666667
            },
            {
              "pitch": 70,
              "velocity": 101,
              "position": 0.010416666666666666,
              "duration": 3.777083333333333
            },
            {
              "pitch": 67,
              "velocity": 101,
              "position": 0.010416666666666666,
              "duration": 3.783333333333333
            },
            {
              "pitch": 75,
              "velocity": 101,
              "position": 0.010416666666666666,
              "duration": 3.785416666666667
            },
            {
              "pitch": 58,
              "velocity": 79,
              "position": 5.78125,
              "duration": 0.058333333333333334
            },
            {
              "pitch": 67,
              "velocity": 92,
              "position": 5.997916666666667,
              "duration": 0.26875
            },
            {
              "pitch": 70,
              "velocity": 92,
              "position": 6,
              "duration": 0.27708333333333335
            },
            {
              "pitch": 75,
              "velocity": 92,
              "position": 6.00625,
              "duration": 0.2708333333333333
            },
            {
              "pitch": 58,
              "velocity": 78,
              "position": 6.291666666666667,
              "duration": 0.07083333333333333
            },
            {
              "pitch": 69,
              "velocity": 105,
              "position": 6.504166666666666,
              "duration": 0.27291666666666664
            },
            {
              "pitch": 72,
              "velocity": 108,
              "position": 6.491666666666666,
              "duration": 0.29583333333333334
            },
            {
              "pitch": 77,
              "velocity": 107,
              "position": 6.495833333333334,
              "duration": 0.29583333333333334
            },
            {
              "pitch": 36,
              "velocity": 100,
              "position": 6.7875,
              "duration": 0.05416666666666667
            },
            {
              "pitch": 75,
              "velocity": 92,
              "position": 6.997916666666667,
              "duration": 0.26875
            },
            {
              "pitch": 67,
              "velocity": 92,
              "position": 7,
              "duration": 0.27708333333333335
            },
            {
              "pitch": 70,
              "velocity": 92,
              "position": 7.00625,
              "duration": 0.2708333333333333
            },
            {
              "pitch": 36,
              "velocity": 101,
              "position": 7.285416666666666,
              "duration": 0.05
            },
            {
              "pitch": 69,
              "velocity": 105,
              "position": 7.504166666666666,
              "duration": 0.27291666666666664
            },
            {
              "pitch": 72,
              "velocity": 108,
              "position": 7.491666666666666,
              "duration": 0.29583333333333334
            },
            {
              "pitch": 77,
              "velocity": 107,
              "position": 7.495833333333334,
              "duration": 0.29583333333333334
            },
            {
              "pitch": 36,
              "velocity": 100,
              "position": 8.010416666666666,
              "duration": 3.004166666666667
            },
            {
              "pitch": 70,
              "velocity": 101,
              "position": 8.010416666666666,
              "duration": 3.029166666666667
            },
            {
              "pitch": 75,
              "velocity": 101,
              "position": 8.010416666666666,
              "duration": 3.033333333333333
            },
            {
              "pitch": 67,
              "velocity": 101,
              "position": 8.010416666666666,
              "duration": 3.0375
            },
            {
              "pitch": 70,
              "velocity": 82,
              "position": 11.5,
              "duration": 0.12916666666666668
            },
            {
              "pitch": 75,
              "velocity": 77,
              "position": 11.5,
              "duration": 0.13333333333333333
            },
            {
              "pitch": 67,
              "velocity": 83,
              "position": 11.508333333333333,
              "duration": 0.1375
            },
            {
              "pitch": 36,
              "velocity": 65,
              "position": 11.783333333333333,
              "duration": 0.06666666666666667
            },
            {
              "pitch": 66,
              "velocity": 101,
              "position": 12.010416666666666,
              "duration": 0.22708333333333333
            },
            {
              "pitch": 74,
              "velocity": 101,
              "position": 12.010416666666666,
              "duration": 0.25
            },
            {
              "pitch": 69,
              "velocity": 99,
              "position": 12.010416666666666,
              "duration": 0.2625
            },
            {
              "pitch": 70,
              "velocity": 73,
              "position": 12.285416666666666,
              "duration": 0.12083333333333333
            },
            {
              "pitch": 75,
              "velocity": 74,
              "position": 12.2875,
              "duration": 0.13541666666666666
            },
            {
              "pitch": 67,
              "velocity": 72,
              "position": 12.285416666666666,
              "duration": 0.14375
            },
            {
              "pitch": 36,
              "velocity": 84,
              "position": 12.497916666666667,
              "duration": 0.07083333333333333
            },
            {
              "pitch": 70,
              "velocity": 69,
              "position": 12.79375,
              "duration": 0.11666666666666667
            },
            {
              "pitch": 75,
              "velocity": 69,
              "position": 12.791666666666666,
              "duration": 0.12916666666666668
            },
            {
              "pitch": 67,
              "velocity": 69,
              "position": 12.791666666666666,
              "duration": 0.15208333333333332
            },
            {
              "pitch": 36,
              "velocity": 86,
              "position": 12.997916666666667,
              "duration": 0.0625
            },
            {
              "pitch": 75,
              "velocity": 80,
              "position": 13.289583333333333,
              "duration": 0.18541666666666667
            },
            {
              "pitch": 67,
              "velocity": 85,
              "position": 13.297916666666667,
              "duration": 0.20416666666666666
            },
            {
              "pitch": 70,
              "velocity": 69,
              "position": 13.49375,
              "duration": 0.12916666666666668
            },
            {
              "pitch": 36,
              "velocity": 64,
              "position": 13.79375,
              "duration": 0.06458333333333334
            },
            {
              "pitch": 75,
              "velocity": 69,
              "position": 13.997916666666667,
              "duration": 0.20416666666666666
            },
            {
              "pitch": 70,
              "velocity": 69,
              "position": 13.997916666666667,
              "duration": 0.21666666666666667
            },
            {
              "pitch": 67,
              "velocity": 69,
              "position": 13.99375,
              "duration": 0.23958333333333334
            },
            {
              "pitch": 36,
              "velocity": 81,
              "position": 14.28125,
              "duration": 0.08333333333333333
            },
            {
              "pitch": 69,
              "velocity": 104,
              "position": 14.5,
              "duration": 0.22916666666666666
            },
            {
              "pitch": 77,
              "velocity": 103,
              "position": 14.49375,
              "duration": 0.23541666666666666
            },
            {
              "pitch": 72,
              "velocity": 103,
              "position": 14.50625,
              "duration": 0.23333333333333334
            },
            {
              "pitch": 79,
              "velocity": 69,
              "position": 14.991666666666667,
              "duration": 0.29791666666666666
            },
            {
              "pitch": 72,
              "velocity": 69,
              "position": 15,
              "duration": 0.31666666666666665
            },
            {
              "pitch": 70,
              "velocity": 69,
              "position": 14.991666666666667,
              "duration": 0.32708333333333334
            },
            {
              "pitch": 36,
              "velocity": 81,
              "position": 15.28125,
              "duration": 0.08333333333333333
            },
            {
              "pitch": 69,
              "velocity": 104,
              "position": 15.5,
              "duration": 0.22916666666666666
            },
            {
              "pitch": 77,
              "velocity": 103,
              "position": 15.49375,
              "duration": 0.23541666666666666
            },
            {
              "pitch": 72,
              "velocity": 103,
              "position": 15.50625,
              "duration": 0.23333333333333334
            },
            {
              "pitch": 36,
              "velocity": 100,
              "position": 16.010416666666668,
              "duration": 3.754166666666667
            },
            {
              "pitch": 70,
              "velocity": 101,
              "position": 16.010416666666668,
              "duration": 3.777083333333333
            },
            {
              "pitch": 67,
              "velocity": 101,
              "position": 16.010416666666668,
              "duration": 3.783333333333333
            },
            {
              "pitch": 75,
              "velocity": 101,
              "position": 16.010416666666668,
              "duration": 3.785416666666667
            },
            {
              "pitch": 58,
              "velocity": 79,
              "position": 21.78125,
              "duration": 0.058333333333333334
            },
            {
              "pitch": 67,
              "velocity": 99,
              "position": 21.997916666666665,
              "duration": 0.26875
            },
            {
              "pitch": 70,
              "velocity": 98,
              "position": 22,
              "duration": 0.27708333333333335
            },
            {
              "pitch": 75,
              "velocity": 99,
              "position": 22.00625,
              "duration": 0.2708333333333333
            },
            {
              "pitch": 58,
              "velocity": 78,
              "position": 22.291666666666668,
              "duration": 0.07083333333333333
            },
            {
              "pitch": 69,
              "velocity": 80,
              "position": 22.504166666666666,
              "duration": 0.27291666666666664
            },
            {
              "pitch": 72,
              "velocity": 83,
              "position": 22.491666666666667,
              "duration": 0.29583333333333334
            },
            {
              "pitch": 77,
              "velocity": 82,
              "position": 22.495833333333334,
              "duration": 0.29583333333333334
            },
            {
              "pitch": 36,
              "velocity": 100,
              "position": 22.7875,
              "duration": 0.05416666666666667
            },
            {
              "pitch": 75,
              "velocity": 99,
              "position": 22.997916666666665,
              "duration": 0.26875
            },
            {
              "pitch": 67,
              "velocity": 98,
              "position": 23,
              "duration": 0.27708333333333335
            },
            {
              "pitch": 70,
              "velocity": 99,
              "position": 23.00625,
              "duration": 0.2708333333333333
            },
            {
              "pitch": 36,
              "velocity": 101,
              "position": 23.285416666666666,
              "duration": 0.05
            },
            {
              "pitch": 69,
              "velocity": 80,
              "position": 23.504166666666666,
              "duration": 0.27291666666666664
            },
            {
              "pitch": 72,
              "velocity": 83,
              "position": 23.491666666666667,
              "duration": 0.29583333333333334
            },
            {
              "pitch": 77,
              "velocity": 82,
              "position": 23.495833333333334,
              "duration": 0.29583333333333334
            },
            {
              "pitch": 36,
              "velocity": 100,
              "position": 24.010416666666668,
              "duration": 3.004166666666667
            },
            {
              "pitch": 70,
              "velocity": 101,
              "position": 24.010416666666668,
              "duration": 3.029166666666667
            },
            {
              "pitch": 75,
              "velocity": 101,
              "position": 24.010416666666668,
              "duration": 3.033333333333333
            },
            {
              "pitch": 67,
              "velocity": 101,
              "position": 24.010416666666668,
              "duration": 3.0375
            },
            {
              "pitch": 70,
              "velocity": 82,
              "position": 27.5,
              "duration": 0.12916666666666668
            },
            {
              "pitch": 75,
              "velocity": 77,
              "position": 27.5,
              "duration": 0.13333333333333333
            },
            {
              "pitch": 67,
              "velocity": 83,
              "position": 27.508333333333333,
              "duration": 0.1375
            },
            {
              "pitch": 36,
              "velocity": 65,
              "position": 27.783333333333335,
              "duration": 0.06666666666666667
            },
            {
              "pitch": 66,
              "velocity": 101,
              "position": 28.010416666666668,
              "duration": 0.22708333333333333
            },
            {
              "pitch": 74,
              "velocity": 101,
              "position": 28.010416666666668,
              "duration": 0.25
            },
            {
              "pitch": 69,
              "velocity": 99,
              "position": 28.010416666666668,
              "duration": 0.2625
            },
            {
              "pitch": 70,
              "velocity": 73,
              "position": 28.285416666666666,
              "duration": 0.12083333333333333
            },
            {
              "pitch": 75,
              "velocity": 74,
              "position": 28.2875,
              "duration": 0.13541666666666666
            },
            {
              "pitch": 67,
              "velocity": 72,
              "position": 28.285416666666666,
              "duration": 0.14375
            },
            {
              "pitch": 36,
              "velocity": 84,
              "position": 28.497916666666665,
              "duration": 0.07083333333333333
            },
            {
              "pitch": 70,
              "velocity": 101,
              "position": 28.79375,
              "duration": 0.11666666666666667
            },
            {
              "pitch": 75,
              "velocity": 101,
              "position": 28.791666666666668,
              "duration": 0.12916666666666668
            },
            {
              "pitch": 67,
              "velocity": 100,
              "position": 28.791666666666668,
              "duration": 0.15208333333333332
            },
            {
              "pitch": 36,
              "velocity": 86,
              "position": 28.997916666666665,
              "duration": 0.0625
            },
            {
              "pitch": 75,
              "velocity": 80,
              "position": 29.289583333333333,
              "duration": 0.18541666666666667
            },
            {
              "pitch": 67,
              "velocity": 85,
              "position": 29.297916666666666,
              "duration": 0.20416666666666666
            },
            {
              "pitch": 70,
              "velocity": 69,
              "position": 29.49375,
              "duration": 0.12916666666666668
            },
            {
              "pitch": 36,
              "velocity": 64,
              "position": 29.79375,
              "duration": 0.06458333333333334
            },
            {
              "pitch": 75,
              "velocity": 101,
              "position": 29.997916666666665,
              "duration": 0.20416666666666666
            },
            {
              "pitch": 70,
              "velocity": 101,
              "position": 29.997916666666665,
              "duration": 0.21666666666666667
            },
            {
              "pitch": 67,
              "velocity": 101,
              "position": 29.99375,
              "duration": 0.23958333333333334
            },
            {
              "pitch": 36,
              "velocity": 81,
              "position": 30.28125,
              "duration": 0.08333333333333333
            },
            {
              "pitch": 69,
              "velocity": 79,
              "position": 30.5,
              "duration": 0.22916666666666666
            },
            {
              "pitch": 77,
              "velocity": 78,
              "position": 30.49375,
              "duration": 0.23541666666666666
            },
            {
              "pitch": 72,
              "velocity": 78,
              "position": 30.50625,
              "duration": 0.23333333333333334
            },
            {
              "pitch": 79,
              "velocity": 101,
              "position": 30.991666666666667,
              "duration": 0.29791666666666666
            },
            {
              "pitch": 72,
              "velocity": 98,
              "position": 31,
              "duration": 0.31666666666666665
            },
            {
              "pitch": 70,
              "velocity": 98,
              "position": 30.991666666666667,
              "duration": 0.32708333333333334
            },
            {
              "pitch": 36,
              "velocity": 81,
              "position": 31.28125,
              "duration": 0.08333333333333333
            },
            {
              "pitch": 69,
              "velocity": 79,
              "position": 31.5,
              "duration": 0.22916666666666666
            },
            {
              "pitch": 77,
              "velocity": 78,
              "position": 31.49375,
              "duration": 0.23541666666666666
            },
            {
              "pitch": 72,
              "velocity": 78,
              "position": 31.50625,
              "duration": 0.23333333333333334
            }
          ]
        },
        "15": {
          "ctab": {
            "srcChannel": 15,
            "name": "EP",
            "accType": "CHORD2",
            "editable": false,
            "mutedNotes": [],
            "mutedChords": [
              "7th",
              "min",
              "Maj"
            ],
            "autoStart": false,
            "sourceChordNote": 0,
            "sourceChordType": "Maj7",
            "ctb2Low": null,
            "ctb2Main": {
              "ntr": "ROOT_TRANSPOSITION",
              "ntt": "CHORD",
              "bassOn": false,
              "chordRootUpperLimit": 8,
              "noteLowLimit": 40,
              "noteHighLimit": 66,
              "rtr": "PITCH_SHIFT"
            },
            "ctb2High": null
          },
          "notes": [
            {
              "pitch": 71,
              "velocity": 101,
              "position": 0.010416666666666666,
              "duration": 3.777083333333333
            },
            {
              "pitch": 67,
              "velocity": 101,
              "position": 0.010416666666666666,
              "duration": 3.783333333333333
            },
            {
              "pitch": 76,
              "velocity": 101,
              "position": 0.010416666666666666,
              "duration": 3.785416666666667
            },
            {
              "pitch": 36,
              "velocity": 79,
              "position": 5.78125,
              "duration": 0.058333333333333334
            },
            {
              "pitch": 67,
              "velocity": 99,
              "position": 5.997916666666667,
              "duration": 0.26875
            },
            {
              "pitch": 71,
              "velocity": 98,
              "position": 6,
              "duration": 0.27708333333333335
            },
            {
              "pitch": 76,
              "velocity": 99,
              "position": 6.00625,
              "duration": 0.2708333333333333
            },
            {
              "pitch": 36,
              "velocity": 78,
              "position": 6.291666666666667,
              "duration": 0.07083333333333333
            },
            {
              "pitch": 67,
              "velocity": 80,
              "position": 6.504166666666666,
              "duration": 0.27291666666666664
            },
            {
              "pitch": 71,
              "velocity": 83,
              "position": 6.491666666666666,
              "duration": 0.29583333333333334
            },
            {
              "pitch": 76,
              "velocity": 82,
              "position": 6.495833333333334,
              "duration": 0.29583333333333334
            },
            {
              "pitch": 36,
              "velocity": 100,
              "position": 6.7875,
              "duration": 0.05416666666666667
            },
            {
              "pitch": 76,
              "velocity": 99,
              "position": 6.997916666666667,
              "duration": 0.26875
            },
            {
              "pitch": 67,
              "velocity": 98,
              "position": 7,
              "duration": 0.27708333333333335
            },
            {
              "pitch": 71,
              "velocity": 99,
              "position": 7.00625,
              "duration": 0.2708333333333333
            },
            {
              "pitch": 36,
              "velocity": 101,
              "position": 7.285416666666666,
              "duration": 0.05
            },
            {
              "pitch": 67,
              "velocity": 80,
              "position": 7.504166666666666,
              "duration": 0.27291666666666664
            },
            {
              "pitch": 71,
              "velocity": 83,
              "position": 7.491666666666666,
              "duration": 0.29583333333333334
            },
            {
              "pitch": 76,
              "velocity": 82,
              "position": 7.495833333333334,
              "duration": 0.29583333333333334
            },
            {
              "pitch": 71,
              "velocity": 101,
              "position": 8.010416666666666,
              "duration": 3.029166666666667
            },
            {
              "pitch": 76,
              "velocity": 101,
              "position": 8.010416666666666,
              "duration": 3.033333333333333
            },
            {
              "pitch": 67,
              "velocity": 101,
              "position": 8.010416666666666,
              "duration": 3.0375
            },
            {
              "pitch": 71,
              "velocity": 82,
              "position": 11.5,
              "duration": 0.12916666666666668
            },
            {
              "pitch": 76,
              "velocity": 77,
              "position": 11.5,
              "duration": 0.13333333333333333
            },
            {
              "pitch": 67,
              "velocity": 83,
              "position": 11.508333333333333,
              "duration": 0.1375
            },
            {
              "pitch": 36,
              "velocity": 65,
              "position": 11.783333333333333,
              "duration": 0.06666666666666667
            },
            {
              "pitch": 71,
              "velocity": 101,
              "position": 12.010416666666666,
              "duration": 0.22708333333333333
            },
            {
              "pitch": 76,
              "velocity": 101,
              "position": 12.010416666666666,
              "duration": 0.25
            },
            {
              "pitch": 67,
              "velocity": 99,
              "position": 12.010416666666666,
              "duration": 0.2625
            },
            {
              "pitch": 71,
              "velocity": 73,
              "position": 12.285416666666666,
              "duration": 0.12083333333333333
            },
            {
              "pitch": 76,
              "velocity": 74,
              "position": 12.2875,
              "duration": 0.13541666666666666
            },
            {
              "pitch": 67,
              "velocity": 72,
              "position": 12.285416666666666,
              "duration": 0.14375
            },
            {
              "pitch": 36,
              "velocity": 84,
              "position": 12.497916666666667,
              "duration": 0.07083333333333333
            },
            {
              "pitch": 71,
              "velocity": 101,
              "position": 12.79375,
              "duration": 0.11666666666666667
            },
            {
              "pitch": 76,
              "velocity": 101,
              "position": 12.791666666666666,
              "duration": 0.12916666666666668
            },
            {
              "pitch": 67,
              "velocity": 100,
              "position": 12.791666666666666,
              "duration": 0.15208333333333332
            },
            {
              "pitch": 36,
              "velocity": 86,
              "position": 12.997916666666667,
              "duration": 0.0625
            },
            {
              "pitch": 76,
              "velocity": 80,
              "position": 13.289583333333333,
              "duration": 0.18541666666666667
            },
            {
              "pitch": 67,
              "velocity": 85,
              "position": 13.297916666666667,
              "duration": 0.20416666666666666
            },
            {
              "pitch": 71,
              "velocity": 69,
              "position": 13.49375,
              "duration": 0.12916666666666668
            },
            {
              "pitch": 36,
              "velocity": 64,
              "position": 13.79375,
              "duration": 0.06458333333333334
            },
            {
              "pitch": 76,
              "velocity": 101,
              "position": 13.997916666666667,
              "duration": 0.20416666666666666
            },
            {
              "pitch": 71,
              "velocity": 101,
              "position": 13.997916666666667,
              "duration": 0.21666666666666667
            },
            {
              "pitch": 67,
              "velocity": 101,
              "position": 13.99375,
              "duration": 0.23958333333333334
            },
            {
              "pitch": 36,
              "velocity": 81,
              "position": 14.28125,
              "duration": 0.08333333333333333
            },
            {
              "pitch": 67,
              "velocity": 79,
              "position": 14.5,
              "duration": 0.22916666666666666
            },
            {
              "pitch": 71,
              "velocity": 78,
              "position": 14.50625,
              "duration": 0.23333333333333334
            },
            {
              "pitch": 76,
              "velocity": 101,
              "position": 14.991666666666667,
              "duration": 0.29791666666666666
            },
            {
              "pitch": 71,
              "velocity": 98,
              "position": 15,
              "duration": 0.31666666666666665
            },
            {
              "pitch": 67,
              "velocity": 98,
              "position": 14.991666666666667,
              "duration": 0.32708333333333334
            },
            {
              "pitch": 36,
              "velocity": 81,
              "position": 15.28125,
              "duration": 0.08333333333333333
            },
            {
              "pitch": 67,
              "velocity": 79,
              "position": 15.5,
              "duration": 0.22916666666666666
            },
            {
              "pitch": 71,
              "velocity": 78,
              "position": 15.50625,
              "duration": 0.23333333333333334
            },
            {
              "pitch": 71,
              "velocity": 101,
              "position": 16.010416666666668,
              "duration": 3.777083333333333
            },
            {
              "pitch": 67,
              "velocity": 101,
              "position": 16.010416666666668,
              "duration": 3.783333333333333
            },
            {
              "pitch": 76,
              "velocity": 101,
              "position": 16.010416666666668,
              "duration": 3.785416666666667
            },
            {
              "pitch": 36,
              "velocity": 79,
              "position": 21.78125,
              "duration": 0.058333333333333334
            },
            {
              "pitch": 67,
              "velocity": 99,
              "position": 21.997916666666665,
              "duration": 0.26875
            },
            {
              "pitch": 71,
              "velocity": 98,
              "position": 22,
              "duration": 0.27708333333333335
            },
            {
              "pitch": 76,
              "velocity": 99,
              "position": 22.00625,
              "duration": 0.2708333333333333
            },
            {
              "pitch": 36,
              "velocity": 78,
              "position": 22.291666666666668,
              "duration": 0.07083333333333333
            },
            {
              "pitch": 67,
              "velocity": 80,
              "position": 22.504166666666666,
              "duration": 0.27291666666666664
            },
            {
              "pitch": 71,
              "velocity": 83,
              "position": 22.491666666666667,
              "duration": 0.29583333333333334
            },
            {
              "pitch": 76,
              "velocity": 82,
              "position": 22.495833333333334,
              "duration": 0.29583333333333334
            },
            {
              "pitch": 36,
              "velocity": 100,
              "position": 22.7875,
              "duration": 0.05416666666666667
            },
            {
              "pitch": 76,
              "velocity": 99,
              "position": 22.997916666666665,
              "duration": 0.26875
            },
            {
              "pitch": 67,
              "velocity": 98,
              "position": 23,
              "duration": 0.27708333333333335
            },
            {
              "pitch": 71,
              "velocity": 99,
              "position": 23.00625,
              "duration": 0.2708333333333333
            },
            {
              "pitch": 36,
              "velocity": 101,
              "position": 23.285416666666666,
              "duration": 0.05
            },
            {
              "pitch": 67,
              "velocity": 80,
              "position": 23.504166666666666,
              "duration": 0.27291666666666664
            },
            {
              "pitch": 71,
              "velocity": 83,
              "position": 23.491666666666667,
              "duration": 0.29583333333333334
            },
            {
              "pitch": 76,
              "velocity": 82,
              "position": 23.495833333333334,
              "duration": 0.29583333333333334
            },
            {
              "pitch": 71,
              "velocity": 101,
              "position": 24.010416666666668,
              "duration": 3.029166666666667
            },
            {
              "pitch": 76,
              "velocity": 101,
              "position": 24.010416666666668,
              "duration": 3.033333333333333
            },
            {
              "pitch": 67,
              "velocity": 101,
              "position": 24.010416666666668,
              "duration": 3.0375
            },
            {
              "pitch": 71,
              "velocity": 82,
              "position": 27.5,
              "duration": 0.12916666666666668
            },
            {
              "pitch": 76,
              "velocity": 77,
              "position": 27.5,
              "duration": 0.13333333333333333
            },
            {
              "pitch": 67,
              "velocity": 83,
              "position": 27.508333333333333,
              "duration": 0.1375
            },
            {
              "pitch": 36,
              "velocity": 65,
              "position": 27.783333333333335,
              "duration": 0.06666666666666667
            },
            {
              "pitch": 71,
              "velocity": 101,
              "position": 28.010416666666668,
              "duration": 0.22708333333333333
            },
            {
              "pitch": 76,
              "velocity": 101,
              "position": 28.010416666666668,
              "duration": 0.25
            },
            {
              "pitch": 67,
              "velocity": 99,
              "position": 28.010416666666668,
              "duration": 0.2625
            },
            {
              "pitch": 71,
              "velocity": 73,
              "position": 28.285416666666666,
              "duration": 0.12083333333333333
            },
            {
              "pitch": 76,
              "velocity": 74,
              "position": 28.2875,
              "duration": 0.13541666666666666
            },
            {
              "pitch": 67,
              "velocity": 72,
              "position": 28.285416666666666,
              "duration": 0.14375
            },
            {
              "pitch": 36,
              "velocity": 84,
              "position": 28.497916666666665,
              "duration": 0.07083333333333333
            },
            {
              "pitch": 71,
              "velocity": 101,
              "position": 28.79375,
              "duration": 0.11666666666666667
            },
            {
              "pitch": 76,
              "velocity": 101,
              "position": 28.791666666666668,
              "duration": 0.12916666666666668
            },
            {
              "pitch": 67,
              "velocity": 100,
              "position": 28.791666666666668,
              "duration": 0.15208333333333332
            },
            {
              "pitch": 36,
              "velocity": 86,
              "position": 28.997916666666665,
              "duration": 0.0625
            },
            {
              "pitch": 76,
              "velocity": 80,
              "position": 29.289583333333333,
              "duration": 0.18541666666666667
            },
            {
              "pitch": 67,
              "velocity": 85,
              "position": 29.297916666666666,
              "duration": 0.20416666666666666
            },
            {
              "pitch": 71,
              "velocity": 69,
              "position": 29.49375,
              "duration": 0.12916666666666668
            },
            {
              "pitch": 36,
              "velocity": 64,
              "position": 29.79375,
              "duration": 0.06458333333333334
            },
            {
              "pitch": 76,
              "velocity": 101,
              "position": 29.997916666666665,
              "duration": 0.20416666666666666
            },
            {
              "pitch": 71,
              "velocity": 101,
              "position": 29.997916666666665,
              "duration": 0.21666666666666667
            },
            {
              "pitch": 67,
              "velocity": 101,
              "position": 29.99375,
              "duration": 0.23958333333333334
            },
            {
              "pitch": 36,
              "velocity": 81,
              "position": 30.28125,
              "duration": 0.08333333333333333
            },
            {
              "pitch": 67,
              "velocity": 79,
              "position": 30.5,
              "duration": 0.22916666666666666
            },
            {
              "pitch": 71,
              "velocity": 78,
              "position": 30.50625,
              "duration": 0.23333333333333334
            },
            {
              "pitch": 76,
              "velocity": 101,
              "position": 30.991666666666667,
              "duration": 0.29791666666666666
            },
            {
              "pitch": 71,
              "velocity": 98,
              "position": 31,
              "duration": 0.31666666666666665
            },
            {
              "pitch": 67,
              "velocity": 98,
              "position": 30.991666666666667,
              "duration": 0.32708333333333334
            },
            {
              "pitch": 36,
              "velocity": 81,
              "position": 31.28125,
              "duration": 0.08333333333333333
            },
            {
              "pitch": 67,
              "velocity": 79,
              "position": 31.5,
              "duration": 0.22916666666666666
            },
            {
              "pitch": 71,
              "velocity": 78,
              "position": 31.50625,
              "duration": 0.23333333333333334
            }
          ]
        }
      }
    },
    "Main_D": {
      "type": "Main_D",
      "sizeInBeats": 32,
      "channels": {
        "1": {
          "ctab": {
            "srcChannel": 1,
            "name": "Gt Maj",
            "accType": "CHORD1",
            "editable": false,
            "mutedNotes": [],
            "mutedChords": [
              "1+2+5",
              "sus4",
              "1+5",
              "1+8",
              "7aug",
              "Maj7aug",
              "7(#9)",
              "7(b13)",
              "7(b9)",
              "7(13)",
              "7#11",
              "7(9)",
              "7b5",
              "7sus4",
              "dim7",
              "dim",
              "minMaj7(9)",
              "minMaj7",
              "min7(11)",
              "min7(9)",
              "min(9)",
              "m7b5",
              "min7",
              "min6",
              "min",
              "aug",
              "Maj6(9)",
              "Maj7(9)",
              "Maj(9)",
              "Maj7#11",
              "Maj7",
              "Maj6"
            ],
            "autoStart": false,
            "sourceChordNote": 0,
            "sourceChordType": "7th",
            "ctb2Low": null,
            "ctb2Main": {
              "ntr": "ROOT_TRANSPOSITION",
              "ntt": "MELODIC_MINOR_5",
              "bassOn": false,
              "chordRootUpperLimit": 7,
              "noteLowLimit": 55,
              "noteHighLimit": 77,
              "rtr": "PITCH_SHIFT"
            },
            "ctb2High": null
          },
          "notes": [
            {
              "pitch": 82,
              "velocity": 34,
              "position": 0.03125,
              "duration": 0.23125
            },
            {
              "pitch": 106,
              "velocity": 78,
              "position": 0.010416666666666666,
              "duration": 0.2520833333333333
            },
            {
              "pitch": 79,
              "velocity": 34,
              "position": 0.010416666666666666,
              "duration": 0.27291666666666664
            },
            {
              "pitch": 86,
              "velocity": 34,
              "position": 0.052083333333333336,
              "duration": 0.4395833333333333
            },
            {
              "pitch": 105,
              "velocity": 78,
              "position": 0.2708333333333333,
              "duration": 0.22083333333333333
            },
            {
              "pitch": 86,
              "velocity": 34,
              "position": 0.5,
              "duration": 0.2625
            },
            {
              "pitch": 107,
              "velocity": 78,
              "position": 0.5,
              "duration": 0.2625
            },
            {
              "pitch": 82,
              "velocity": 26,
              "position": 0.2708333333333333,
              "duration": 0.5125
            },
            {
              "pitch": 79,
              "velocity": 26,
              "position": 0.2916666666666667,
              "duration": 0.5125
            },
            {
              "pitch": 86,
              "velocity": 42,
              "position": 0.7708333333333334,
              "duration": 0.20416666666666666
            },
            {
              "pitch": 108,
              "velocity": 78,
              "position": 0.7708333333333334,
              "duration": 0.22083333333333333
            },
            {
              "pitch": 82,
              "velocity": 42,
              "position": 0.7916666666666666,
              "duration": 0.20416666666666666
            },
            {
              "pitch": 79,
              "velocity": 42,
              "position": 0.8125,
              "duration": 0.20416666666666666
            },
            {
              "pitch": 104,
              "velocity": 78,
              "position": 1,
              "duration": 0.2625
            },
            {
              "pitch": 86,
              "velocity": 42,
              "position": 1.2708333333333333,
              "duration": 0.20416666666666666
            },
            {
              "pitch": 106,
              "velocity": 78,
              "position": 1.2708333333333333,
              "duration": 0.22083333333333333
            },
            {
              "pitch": 82,
              "velocity": 42,
              "position": 1.2916666666666667,
              "duration": 0.20416666666666666
            },
            {
              "pitch": 79,
              "velocity": 42,
              "position": 1.3125,
              "duration": 0.20416666666666666
            },
            {
              "pitch": 104,
              "velocity": 78,
              "position": 1.5,
              "duration": 0.2625
            },
            {
              "pitch": 103,
              "velocity": 78,
              "position": 1.7708333333333333,
              "duration": 0.22083333333333333
            },
            {
              "pitch": 79,
              "velocity": 42,
              "position": 2,
              "duration": 0.23333333333333334
            },
            {
              "pitch": 82,
              "velocity": 42,
              "position": 2.0208333333333335,
              "duration": 0.23333333333333334
            },
            {
              "pitch": 106,
              "velocity": 78,
              "position": 2,
              "duration": 0.2625
            },
            {
              "pitch": 86,
              "velocity": 42,
              "position": 2.0416666666666665,
              "duration": 0.23333333333333334
            },
            {
              "pitch": 123,
              "velocity": 10,
              "position": 2.2708333333333335,
              "duration": 0.22083333333333333
            },
            {
              "pitch": 76,
              "velocity": 42,
              "position": 2.5,
              "duration": 0.23333333333333334
            },
            {
              "pitch": 81,
              "velocity": 42,
              "position": 2.5208333333333335,
              "duration": 0.23333333333333334
            },
            {
              "pitch": 84,
              "velocity": 42,
              "position": 2.5416666666666665,
              "duration": 0.23333333333333334
            },
            {
              "pitch": 108,
              "velocity": 78,
              "position": 2.5,
              "duration": 0.49166666666666664
            },
            {
              "pitch": 106,
              "velocity": 78,
              "position": 3,
              "duration": 0.2625
            },
            {
              "pitch": 105,
              "velocity": 78,
              "position": 3.2708333333333335,
              "duration": 0.22083333333333333
            },
            {
              "pitch": 104,
              "velocity": 78,
              "position": 3.5,
              "duration": 0.2625
            },
            {
              "pitch": 103,
              "velocity": 78,
              "position": 3.7708333333333335,
              "duration": 0.22083333333333333
            },
            {
              "pitch": 82,
              "velocity": 34,
              "position": 4.020833333333333,
              "duration": 0.24166666666666667
            },
            {
              "pitch": 106,
              "velocity": 78,
              "position": 4,
              "duration": 0.2625
            },
            {
              "pitch": 79,
              "velocity": 34,
              "position": 4,
              "duration": 0.2833333333333333
            },
            {
              "pitch": 86,
              "velocity": 34,
              "position": 4.041666666666667,
              "duration": 0.45
            },
            {
              "pitch": 105,
              "velocity": 78,
              "position": 4.270833333333333,
              "duration": 0.22083333333333333
            },
            {
              "pitch": 86,
              "velocity": 34,
              "position": 4.5,
              "duration": 0.2625
            },
            {
              "pitch": 107,
              "velocity": 78,
              "position": 4.5,
              "duration": 0.2625
            },
            {
              "pitch": 82,
              "velocity": 26,
              "position": 4.270833333333333,
              "duration": 0.5125
            },
            {
              "pitch": 79,
              "velocity": 26,
              "position": 4.291666666666667,
              "duration": 0.5125
            },
            {
              "pitch": 86,
              "velocity": 42,
              "position": 4.770833333333333,
              "duration": 0.20416666666666666
            },
            {
              "pitch": 108,
              "velocity": 78,
              "position": 4.770833333333333,
              "duration": 0.22083333333333333
            },
            {
              "pitch": 82,
              "velocity": 42,
              "position": 4.791666666666667,
              "duration": 0.20416666666666666
            },
            {
              "pitch": 79,
              "velocity": 42,
              "position": 4.8125,
              "duration": 0.20416666666666666
            },
            {
              "pitch": 104,
              "velocity": 78,
              "position": 5,
              "duration": 0.2625
            },
            {
              "pitch": 86,
              "velocity": 42,
              "position": 5.270833333333333,
              "duration": 0.20416666666666666
            },
            {
              "pitch": 106,
              "velocity": 78,
              "position": 5.270833333333333,
              "duration": 0.22083333333333333
            },
            {
              "pitch": 82,
              "velocity": 42,
              "position": 5.291666666666667,
              "duration": 0.20416666666666666
            },
            {
              "pitch": 79,
              "velocity": 42,
              "position": 5.3125,
              "duration": 0.20416666666666666
            },
            {
              "pitch": 104,
              "velocity": 78,
              "position": 5.5,
              "duration": 0.2625
            },
            {
              "pitch": 103,
              "velocity": 78,
              "position": 5.770833333333333,
              "duration": 0.22083333333333333
            },
            {
              "pitch": 79,
              "velocity": 42,
              "position": 6,
              "duration": 0.23333333333333334
            },
            {
              "pitch": 82,
              "velocity": 42,
              "position": 6.020833333333333,
              "duration": 0.23333333333333334
            },
            {
              "pitch": 106,
              "velocity": 78,
              "position": 6,
              "duration": 0.2625
            },
            {
              "pitch": 86,
              "velocity": 42,
              "position": 6.041666666666667,
              "duration": 0.23333333333333334
            },
            {
              "pitch": 124,
              "velocity": 10,
              "position": 6.270833333333333,
              "duration": 0.22083333333333333
            },
            {
              "pitch": 76,
              "velocity": 34,
              "position": 6.5,
              "duration": 0.23333333333333334
            },
            {
              "pitch": 81,
              "velocity": 34,
              "position": 6.520833333333333,
              "duration": 0.23333333333333334
            },
            {
              "pitch": 108,
              "velocity": 78,
              "position": 6.5,
              "duration": 0.2625
            },
            {
              "pitch": 84,
              "velocity": 34,
              "position": 6.541666666666667,
              "duration": 0.23333333333333334
            },
            {
              "pitch": 122,
              "velocity": 10,
              "position": 6.770833333333333,
              "duration": 0.22083333333333333
            },
            {
              "pitch": 79,
              "velocity": 42,
              "position": 7,
              "duration": 0.23333333333333334
            },
            {
              "pitch": 82,
              "velocity": 42,
              "position": 7.020833333333333,
              "duration": 0.23333333333333334
            },
            {
              "pitch": 106,
              "velocity": 78,
              "position": 7,
              "duration": 0.2625
            },
            {
              "pitch": 86,
              "velocity": 42,
              "position": 7.041666666666667,
              "duration": 0.23333333333333334
            },
            {
              "pitch": 105,
              "velocity": 78,
              "position": 7.270833333333333,
              "duration": 0.22083333333333333
            },
            {
              "pitch": 104,
              "velocity": 78,
              "position": 7.5,
              "duration": 0.2625
            },
            {
              "pitch": 103,
              "velocity": 78,
              "position": 7.770833333333333,
              "duration": 0.22083333333333333
            },
            {
              "pitch": 82,
              "velocity": 34,
              "position": 8.020833333333334,
              "duration": 0.24166666666666667
            },
            {
              "pitch": 106,
              "velocity": 78,
              "position": 8,
              "duration": 0.2625
            },
            {
              "pitch": 79,
              "velocity": 34,
              "position": 8,
              "duration": 0.2833333333333333
            },
            {
              "pitch": 86,
              "velocity": 34,
              "position": 8.041666666666666,
              "duration": 0.45
            },
            {
              "pitch": 105,
              "velocity": 78,
              "position": 8.270833333333334,
              "duration": 0.22083333333333333
            },
            {
              "pitch": 86,
              "velocity": 34,
              "position": 8.5,
              "duration": 0.2625
            },
            {
              "pitch": 107,
              "velocity": 78,
              "position": 8.5,
              "duration": 0.2625
            },
            {
              "pitch": 82,
              "velocity": 26,
              "position": 8.270833333333334,
              "duration": 0.5125
            },
            {
              "pitch": 79,
              "velocity": 26,
              "position": 8.291666666666666,
              "duration": 0.5125
            },
            {
              "pitch": 86,
              "velocity": 42,
              "position": 8.770833333333334,
              "duration": 0.20416666666666666
            },
            {
              "pitch": 108,
              "velocity": 78,
              "position": 8.770833333333334,
              "duration": 0.22083333333333333
            },
            {
              "pitch": 82,
              "velocity": 42,
              "position": 8.791666666666666,
              "duration": 0.20416666666666666
            },
            {
              "pitch": 79,
              "velocity": 42,
              "position": 8.8125,
              "duration": 0.20416666666666666
            },
            {
              "pitch": 104,
              "velocity": 78,
              "position": 9,
              "duration": 0.2625
            },
            {
              "pitch": 86,
              "velocity": 42,
              "position": 9.270833333333334,
              "duration": 0.20416666666666666
            },
            {
              "pitch": 106,
              "velocity": 78,
              "position": 9.270833333333334,
              "duration": 0.22083333333333333
            },
            {
              "pitch": 82,
              "velocity": 42,
              "position": 9.291666666666666,
              "duration": 0.20416666666666666
            },
            {
              "pitch": 79,
              "velocity": 42,
              "position": 9.3125,
              "duration": 0.20416666666666666
            },
            {
              "pitch": 104,
              "velocity": 78,
              "position": 9.5,
              "duration": 0.2625
            },
            {
              "pitch": 103,
              "velocity": 78,
              "position": 9.770833333333334,
              "duration": 0.22083333333333333
            },
            {
              "pitch": 79,
              "velocity": 42,
              "position": 10,
              "duration": 0.23333333333333334
            },
            {
              "pitch": 82,
              "velocity": 42,
              "position": 10.020833333333334,
              "duration": 0.23333333333333334
            },
            {
              "pitch": 106,
              "velocity": 78,
              "position": 10,
              "duration": 0.2625
            },
            {
              "pitch": 86,
              "velocity": 42,
              "position": 10.041666666666666,
              "duration": 0.23333333333333334
            },
            {
              "pitch": 123,
              "velocity": 10,
              "position": 10.270833333333334,
              "duration": 0.22083333333333333
            },
            {
              "pitch": 76,
              "velocity": 42,
              "position": 10.5,
              "duration": 0.23333333333333334
            },
            {
              "pitch": 81,
              "velocity": 42,
              "position": 10.520833333333334,
              "duration": 0.23333333333333334
            },
            {
              "pitch": 84,
              "velocity": 42,
              "position": 10.541666666666666,
              "duration": 0.23333333333333334
            },
            {
              "pitch": 108,
              "velocity": 78,
              "position": 10.5,
              "duration": 0.49166666666666664
            },
            {
              "pitch": 106,
              "velocity": 78,
              "position": 11,
              "duration": 0.2625
            },
            {
              "pitch": 105,
              "velocity": 78,
              "position": 11.270833333333334,
              "duration": 0.22083333333333333
            },
            {
              "pitch": 104,
              "velocity": 78,
              "position": 11.5,
              "duration": 0.2625
            },
            {
              "pitch": 103,
              "velocity": 78,
              "position": 11.770833333333334,
              "duration": 0.22083333333333333
            },
            {
              "pitch": 82,
              "velocity": 34,
              "position": 12.020833333333334,
              "duration": 0.24166666666666667
            },
            {
              "pitch": 106,
              "velocity": 78,
              "position": 12,
              "duration": 0.2625
            },
            {
              "pitch": 79,
              "velocity": 34,
              "position": 12,
              "duration": 0.2833333333333333
            },
            {
              "pitch": 86,
              "velocity": 34,
              "position": 12.041666666666666,
              "duration": 0.45
            },
            {
              "pitch": 105,
              "velocity": 78,
              "position": 12.270833333333334,
              "duration": 0.22083333333333333
            },
            {
              "pitch": 86,
              "velocity": 34,
              "position": 12.5,
              "duration": 0.2625
            },
            {
              "pitch": 107,
              "velocity": 78,
              "position": 12.5,
              "duration": 0.2625
            },
            {
              "pitch": 82,
              "velocity": 26,
              "position": 12.270833333333334,
              "duration": 0.5125
            },
            {
              "pitch": 79,
              "velocity": 26,
              "position": 12.291666666666666,
              "duration": 0.5125
            },
            {
              "pitch": 86,
              "velocity": 42,
              "position": 12.770833333333334,
              "duration": 0.20416666666666666
            },
            {
              "pitch": 108,
              "velocity": 78,
              "position": 12.770833333333334,
              "duration": 0.22083333333333333
            },
            {
              "pitch": 82,
              "velocity": 42,
              "position": 12.791666666666666,
              "duration": 0.20416666666666666
            },
            {
              "pitch": 79,
              "velocity": 42,
              "position": 12.8125,
              "duration": 0.20416666666666666
            },
            {
              "pitch": 104,
              "velocity": 78,
              "position": 13,
              "duration": 0.2625
            },
            {
              "pitch": 86,
              "velocity": 42,
              "position": 13.270833333333334,
              "duration": 0.20416666666666666
            },
            {
              "pitch": 106,
              "velocity": 78,
              "position": 13.270833333333334,
              "duration": 0.22083333333333333
            },
            {
              "pitch": 82,
              "velocity": 42,
              "position": 13.291666666666666,
              "duration": 0.20416666666666666
            },
            {
              "pitch": 79,
              "velocity": 42,
              "position": 13.3125,
              "duration": 0.20416666666666666
            },
            {
              "pitch": 104,
              "velocity": 78,
              "position": 13.5,
              "duration": 0.2625
            },
            {
              "pitch": 103,
              "velocity": 78,
              "position": 13.770833333333334,
              "duration": 0.22083333333333333
            },
            {
              "pitch": 79,
              "velocity": 42,
              "position": 14,
              "duration": 0.23333333333333334
            },
            {
              "pitch": 82,
              "velocity": 42,
              "position": 14.020833333333334,
              "duration": 0.23333333333333334
            },
            {
              "pitch": 106,
              "velocity": 78,
              "position": 14,
              "duration": 0.2625
            },
            {
              "pitch": 86,
              "velocity": 42,
              "position": 14.041666666666666,
              "duration": 0.23333333333333334
            },
            {
              "pitch": 124,
              "velocity": 10,
              "position": 14.270833333333334,
              "duration": 0.22083333333333333
            },
            {
              "pitch": 76,
              "velocity": 34,
              "position": 14.5,
              "duration": 0.23333333333333334
            },
            {
              "pitch": 81,
              "velocity": 34,
              "position": 14.520833333333334,
              "duration": 0.23333333333333334
            },
            {
              "pitch": 108,
              "velocity": 78,
              "position": 14.5,
              "duration": 0.2625
            },
            {
              "pitch": 84,
              "velocity": 34,
              "position": 14.541666666666666,
              "duration": 0.23333333333333334
            },
            {
              "pitch": 122,
              "velocity": 10,
              "position": 14.770833333333334,
              "duration": 0.22083333333333333
            },
            {
              "pitch": 79,
              "velocity": 42,
              "position": 15,
              "duration": 0.23333333333333334
            },
            {
              "pitch": 82,
              "velocity": 42,
              "position": 15.020833333333334,
              "duration": 0.23333333333333334
            },
            {
              "pitch": 106,
              "velocity": 78,
              "position": 15,
              "duration": 0.2625
            },
            {
              "pitch": 86,
              "velocity": 42,
              "position": 15.041666666666666,
              "duration": 0.23333333333333334
            },
            {
              "pitch": 105,
              "velocity": 78,
              "position": 15.270833333333334,
              "duration": 0.22083333333333333
            },
            {
              "pitch": 104,
              "velocity": 78,
              "position": 15.5,
              "duration": 0.2625
            },
            {
              "pitch": 103,
              "velocity": 78,
              "position": 15.770833333333334,
              "duration": 0.22083333333333333
            },
            {
              "pitch": 82,
              "velocity": 34,
              "position": 16.020833333333332,
              "duration": 0.24166666666666667
            },
            {
              "pitch": 106,
              "velocity": 78,
              "position": 16,
              "duration": 0.2625
            },
            {
              "pitch": 79,
              "velocity": 34,
              "position": 16,
              "duration": 0.2833333333333333
            },
            {
              "pitch": 86,
              "velocity": 34,
              "position": 16.041666666666668,
              "duration": 0.45
            },
            {
              "pitch": 105,
              "velocity": 78,
              "position": 16.270833333333332,
              "duration": 0.22083333333333333
            },
            {
              "pitch": 86,
              "velocity": 34,
              "position": 16.5,
              "duration": 0.2625
            },
            {
              "pitch": 107,
              "velocity": 78,
              "position": 16.5,
              "duration": 0.2625
            },
            {
              "pitch": 82,
              "velocity": 26,
              "position": 16.270833333333332,
              "duration": 0.5125
            },
            {
              "pitch": 79,
              "velocity": 26,
              "position": 16.291666666666668,
              "duration": 0.5125
            },
            {
              "pitch": 86,
              "velocity": 42,
              "position": 16.770833333333332,
              "duration": 0.20416666666666666
            },
            {
              "pitch": 108,
              "velocity": 78,
              "position": 16.770833333333332,
              "duration": 0.22083333333333333
            },
            {
              "pitch": 82,
              "velocity": 42,
              "position": 16.791666666666668,
              "duration": 0.20416666666666666
            },
            {
              "pitch": 79,
              "velocity": 42,
              "position": 16.8125,
              "duration": 0.20416666666666666
            },
            {
              "pitch": 104,
              "velocity": 78,
              "position": 17,
              "duration": 0.2625
            },
            {
              "pitch": 86,
              "velocity": 42,
              "position": 17.270833333333332,
              "duration": 0.20416666666666666
            },
            {
              "pitch": 106,
              "velocity": 78,
              "position": 17.270833333333332,
              "duration": 0.22083333333333333
            },
            {
              "pitch": 82,
              "velocity": 42,
              "position": 17.291666666666668,
              "duration": 0.20416666666666666
            },
            {
              "pitch": 79,
              "velocity": 42,
              "position": 17.3125,
              "duration": 0.20416666666666666
            },
            {
              "pitch": 104,
              "velocity": 78,
              "position": 17.5,
              "duration": 0.2625
            },
            {
              "pitch": 103,
              "velocity": 78,
              "position": 17.770833333333332,
              "duration": 0.22083333333333333
            },
            {
              "pitch": 79,
              "velocity": 42,
              "position": 18,
              "duration": 0.23333333333333334
            },
            {
              "pitch": 82,
              "velocity": 42,
              "position": 18.020833333333332,
              "duration": 0.23333333333333334
            },
            {
              "pitch": 106,
              "velocity": 78,
              "position": 18,
              "duration": 0.2625
            },
            {
              "pitch": 86,
              "velocity": 42,
              "position": 18.041666666666668,
              "duration": 0.23333333333333334
            },
            {
              "pitch": 123,
              "velocity": 10,
              "position": 18.270833333333332,
              "duration": 0.22083333333333333
            },
            {
              "pitch": 76,
              "velocity": 42,
              "position": 18.5,
              "duration": 0.23333333333333334
            },
            {
              "pitch": 81,
              "velocity": 42,
              "position": 18.520833333333332,
              "duration": 0.23333333333333334
            },
            {
              "pitch": 84,
              "velocity": 42,
              "position": 18.541666666666668,
              "duration": 0.23333333333333334
            },
            {
              "pitch": 108,
              "velocity": 78,
              "position": 18.5,
              "duration": 0.49166666666666664
            },
            {
              "pitch": 106,
              "velocity": 78,
              "position": 19,
              "duration": 0.2625
            },
            {
              "pitch": 105,
              "velocity": 78,
              "position": 19.270833333333332,
              "duration": 0.22083333333333333
            },
            {
              "pitch": 104,
              "velocity": 78,
              "position": 19.5,
              "duration": 0.2625
            },
            {
              "pitch": 103,
              "velocity": 78,
              "position": 19.770833333333332,
              "duration": 0.22083333333333333
            },
            {
              "pitch": 82,
              "velocity": 34,
              "position": 20.020833333333332,
              "duration": 0.24166666666666667
            },
            {
              "pitch": 106,
              "velocity": 78,
              "position": 20,
              "duration": 0.2625
            },
            {
              "pitch": 79,
              "velocity": 34,
              "position": 20,
              "duration": 0.2833333333333333
            },
            {
              "pitch": 86,
              "velocity": 34,
              "position": 20.041666666666668,
              "duration": 0.45
            },
            {
              "pitch": 105,
              "velocity": 78,
              "position": 20.270833333333332,
              "duration": 0.22083333333333333
            },
            {
              "pitch": 86,
              "velocity": 34,
              "position": 20.5,
              "duration": 0.2625
            },
            {
              "pitch": 107,
              "velocity": 78,
              "position": 20.5,
              "duration": 0.2625
            },
            {
              "pitch": 82,
              "velocity": 26,
              "position": 20.270833333333332,
              "duration": 0.5125
            },
            {
              "pitch": 79,
              "velocity": 26,
              "position": 20.291666666666668,
              "duration": 0.5125
            },
            {
              "pitch": 86,
              "velocity": 42,
              "position": 20.770833333333332,
              "duration": 0.20416666666666666
            },
            {
              "pitch": 108,
              "velocity": 78,
              "position": 20.770833333333332,
              "duration": 0.22083333333333333
            },
            {
              "pitch": 82,
              "velocity": 42,
              "position": 20.791666666666668,
              "duration": 0.20416666666666666
            },
            {
              "pitch": 79,
              "velocity": 42,
              "position": 20.8125,
              "duration": 0.20416666666666666
            },
            {
              "pitch": 104,
              "velocity": 78,
              "position": 21,
              "duration": 0.2625
            },
            {
              "pitch": 86,
              "velocity": 42,
              "position": 21.270833333333332,
              "duration": 0.20416666666666666
            },
            {
              "pitch": 106,
              "velocity": 78,
              "position": 21.270833333333332,
              "duration": 0.22083333333333333
            },
            {
              "pitch": 82,
              "velocity": 42,
              "position": 21.291666666666668,
              "duration": 0.20416666666666666
            },
            {
              "pitch": 79,
              "velocity": 42,
              "position": 21.3125,
              "duration": 0.20416666666666666
            },
            {
              "pitch": 104,
              "velocity": 78,
              "position": 21.5,
              "duration": 0.2625
            },
            {
              "pitch": 103,
              "velocity": 78,
              "position": 21.770833333333332,
              "duration": 0.22083333333333333
            },
            {
              "pitch": 79,
              "velocity": 42,
              "position": 22,
              "duration": 0.23333333333333334
            },
            {
              "pitch": 82,
              "velocity": 42,
              "position": 22.020833333333332,
              "duration": 0.23333333333333334
            },
            {
              "pitch": 106,
              "velocity": 78,
              "position": 22,
              "duration": 0.2625
            },
            {
              "pitch": 86,
              "velocity": 42,
              "position": 22.041666666666668,
              "duration": 0.23333333333333334
            },
            {
              "pitch": 124,
              "velocity": 10,
              "position": 22.270833333333332,
              "duration": 0.22083333333333333
            },
            {
              "pitch": 76,
              "velocity": 34,
              "position": 22.5,
              "duration": 0.23333333333333334
            },
            {
              "pitch": 81,
              "velocity": 34,
              "position": 22.520833333333332,
              "duration": 0.23333333333333334
            },
            {
              "pitch": 108,
              "velocity": 78,
              "position": 22.5,
              "duration": 0.2625
            },
            {
              "pitch": 84,
              "velocity": 34,
              "position": 22.541666666666668,
              "duration": 0.23333333333333334
            },
            {
              "pitch": 122,
              "velocity": 10,
              "position": 22.770833333333332,
              "duration": 0.22083333333333333
            },
            {
              "pitch": 79,
              "velocity": 42,
              "position": 23,
              "duration": 0.23333333333333334
            },
            {
              "pitch": 82,
              "velocity": 42,
              "position": 23.020833333333332,
              "duration": 0.23333333333333334
            },
            {
              "pitch": 106,
              "velocity": 78,
              "position": 23,
              "duration": 0.2625
            },
            {
              "pitch": 86,
              "velocity": 42,
              "position": 23.041666666666668,
              "duration": 0.23333333333333334
            },
            {
              "pitch": 105,
              "velocity": 78,
              "position": 23.270833333333332,
              "duration": 0.22083333333333333
            },
            {
              "pitch": 104,
              "velocity": 78,
              "position": 23.5,
              "duration": 0.2625
            },
            {
              "pitch": 103,
              "velocity": 78,
              "position": 23.770833333333332,
              "duration": 0.22083333333333333
            },
            {
              "pitch": 82,
              "velocity": 34,
              "position": 24.020833333333332,
              "duration": 0.24166666666666667
            },
            {
              "pitch": 106,
              "velocity": 78,
              "position": 24,
              "duration": 0.2625
            },
            {
              "pitch": 79,
              "velocity": 34,
              "position": 24,
              "duration": 0.2833333333333333
            },
            {
              "pitch": 86,
              "velocity": 34,
              "position": 24.041666666666668,
              "duration": 0.45
            },
            {
              "pitch": 105,
              "velocity": 78,
              "position": 24.270833333333332,
              "duration": 0.22083333333333333
            },
            {
              "pitch": 86,
              "velocity": 34,
              "position": 24.5,
              "duration": 0.2625
            },
            {
              "pitch": 107,
              "velocity": 78,
              "position": 24.5,
              "duration": 0.2625
            },
            {
              "pitch": 82,
              "velocity": 26,
              "position": 24.270833333333332,
              "duration": 0.5125
            },
            {
              "pitch": 79,
              "velocity": 26,
              "position": 24.291666666666668,
              "duration": 0.5125
            },
            {
              "pitch": 86,
              "velocity": 42,
              "position": 24.770833333333332,
              "duration": 0.20416666666666666
            },
            {
              "pitch": 108,
              "velocity": 78,
              "position": 24.770833333333332,
              "duration": 0.22083333333333333
            },
            {
              "pitch": 82,
              "velocity": 42,
              "position": 24.791666666666668,
              "duration": 0.20416666666666666
            },
            {
              "pitch": 79,
              "velocity": 42,
              "position": 24.8125,
              "duration": 0.20416666666666666
            },
            {
              "pitch": 104,
              "velocity": 78,
              "position": 25,
              "duration": 0.2625
            },
            {
              "pitch": 86,
              "velocity": 42,
              "position": 25.270833333333332,
              "duration": 0.20416666666666666
            },
            {
              "pitch": 106,
              "velocity": 78,
              "position": 25.270833333333332,
              "duration": 0.22083333333333333
            },
            {
              "pitch": 82,
              "velocity": 42,
              "position": 25.291666666666668,
              "duration": 0.20416666666666666
            },
            {
              "pitch": 79,
              "velocity": 42,
              "position": 25.3125,
              "duration": 0.20416666666666666
            },
            {
              "pitch": 104,
              "velocity": 78,
              "position": 25.5,
              "duration": 0.2625
            },
            {
              "pitch": 103,
              "velocity": 78,
              "position": 25.770833333333332,
              "duration": 0.22083333333333333
            },
            {
              "pitch": 79,
              "velocity": 42,
              "position": 26,
              "duration": 0.23333333333333334
            },
            {
              "pitch": 82,
              "velocity": 42,
              "position": 26.020833333333332,
              "duration": 0.23333333333333334
            },
            {
              "pitch": 106,
              "velocity": 78,
              "position": 26,
              "duration": 0.2625
            },
            {
              "pitch": 86,
              "velocity": 42,
              "position": 26.041666666666668,
              "duration": 0.23333333333333334
            },
            {
              "pitch": 123,
              "velocity": 10,
              "position": 26.270833333333332,
              "duration": 0.22083333333333333
            },
            {
              "pitch": 76,
              "velocity": 42,
              "position": 26.5,
              "duration": 0.23333333333333334
            },
            {
              "pitch": 81,
              "velocity": 42,
              "position": 26.520833333333332,
              "duration": 0.23333333333333334
            },
            {
              "pitch": 84,
              "velocity": 42,
              "position": 26.541666666666668,
              "duration": 0.23333333333333334
            },
            {
              "pitch": 108,
              "velocity": 78,
              "position": 26.5,
              "duration": 0.49166666666666664
            },
            {
              "pitch": 106,
              "velocity": 78,
              "position": 27,
              "duration": 0.2625
            },
            {
              "pitch": 105,
              "velocity": 78,
              "position": 27.270833333333332,
              "duration": 0.22083333333333333
            },
            {
              "pitch": 104,
              "velocity": 78,
              "position": 27.5,
              "duration": 0.2625
            },
            {
              "pitch": 103,
              "velocity": 78,
              "position": 27.770833333333332,
              "duration": 0.22083333333333333
            },
            {
              "pitch": 82,
              "velocity": 34,
              "position": 28.020833333333332,
              "duration": 0.24166666666666667
            },
            {
              "pitch": 106,
              "velocity": 78,
              "position": 28,
              "duration": 0.2625
            },
            {
              "pitch": 79,
              "velocity": 34,
              "position": 28,
              "duration": 0.2833333333333333
            },
            {
              "pitch": 86,
              "velocity": 34,
              "position": 28.041666666666668,
              "duration": 0.45
            },
            {
              "pitch": 105,
              "velocity": 78,
              "position": 28.270833333333332,
              "duration": 0.22083333333333333
            },
            {
              "pitch": 86,
              "velocity": 34,
              "position": 28.5,
              "duration": 0.2625
            },
            {
              "pitch": 107,
              "velocity": 78,
              "position": 28.5,
              "duration": 0.2625
            },
            {
              "pitch": 82,
              "velocity": 26,
              "position": 28.270833333333332,
              "duration": 0.5125
            },
            {
              "pitch": 79,
              "velocity": 26,
              "position": 28.291666666666668,
              "duration": 0.5125
            },
            {
              "pitch": 86,
              "velocity": 42,
              "position": 28.770833333333332,
              "duration": 0.20416666666666666
            },
            {
              "pitch": 108,
              "velocity": 78,
              "position": 28.770833333333332,
              "duration": 0.22083333333333333
            },
            {
              "pitch": 82,
              "velocity": 42,
              "position": 28.791666666666668,
              "duration": 0.20416666666666666
            },
            {
              "pitch": 79,
              "velocity": 42,
              "position": 28.8125,
              "duration": 0.20416666666666666
            },
            {
              "pitch": 104,
              "velocity": 78,
              "position": 29,
              "duration": 0.2625
            },
            {
              "pitch": 86,
              "velocity": 42,
              "position": 29.270833333333332,
              "duration": 0.20416666666666666
            },
            {
              "pitch": 106,
              "velocity": 78,
              "position": 29.270833333333332,
              "duration": 0.22083333333333333
            },
            {
              "pitch": 82,
              "velocity": 42,
              "position": 29.291666666666668,
              "duration": 0.20416666666666666
            },
            {
              "pitch": 79,
              "velocity": 42,
              "position": 29.3125,
              "duration": 0.20416666666666666
            },
            {
              "pitch": 104,
              "velocity": 78,
              "position": 29.5,
              "duration": 0.2625
            },
            {
              "pitch": 103,
              "velocity": 78,
              "position": 29.770833333333332,
              "duration": 0.22083333333333333
            },
            {
              "pitch": 79,
              "velocity": 42,
              "position": 30,
              "duration": 0.23333333333333334
            },
            {
              "pitch": 82,
              "velocity": 42,
              "position": 30.020833333333332,
              "duration": 0.23333333333333334
            },
            {
              "pitch": 106,
              "velocity": 78,
              "position": 30,
              "duration": 0.2625
            },
            {
              "pitch": 86,
              "velocity": 42,
              "position": 30.041666666666668,
              "duration": 0.23333333333333334
            },
            {
              "pitch": 124,
              "velocity": 10,
              "position": 30.270833333333332,
              "duration": 0.22083333333333333
            },
            {
              "pitch": 76,
              "velocity": 34,
              "position": 30.5,
              "duration": 0.23333333333333334
            },
            {
              "pitch": 81,
              "velocity": 34,
              "position": 30.520833333333332,
              "duration": 0.23333333333333334
            },
            {
              "pitch": 108,
              "velocity": 78,
              "position": 30.5,
              "duration": 0.2625
            },
            {
              "pitch": 84,
              "velocity": 34,
              "position": 30.541666666666668,
              "duration": 0.23333333333333334
            },
            {
              "pitch": 122,
              "velocity": 10,
              "position": 30.770833333333332,
              "duration": 0.22083333333333333
            },
            {
              "pitch": 79,
              "velocity": 42,
              "position": 31,
              "duration": 0.23333333333333334
            },
            {
              "pitch": 82,
              "velocity": 42,
              "position": 31.020833333333332,
              "duration": 0.23333333333333334
            },
            {
              "pitch": 106,
              "velocity": 78,
              "position": 31,
              "duration": 0.2625
            },
            {
              "pitch": 86,
              "velocity": 42,
              "position": 31.041666666666668,
              "duration": 0.23333333333333334
            },
            {
              "pitch": 105,
              "velocity": 78,
              "position": 31.270833333333332,
              "duration": 0.22083333333333333
            },
            {
              "pitch": 104,
              "velocity": 78,
              "position": 31.5,
              "duration": 0.2625
            },
            {
              "pitch": 103,
              "velocity": 78,
              "position": 31.770833333333332,
              "duration": 0.22083333333333333
            }
          ]
        },
        "2": {
          "ctab": {
            "srcChannel": 2,
            "name": "Gt Min",
            "accType": "CHORD1",
            "editable": false,
            "mutedNotes": [],
            "mutedChords": [
              "1+2+5",
              "sus4",
              "1+5",
              "1+8",
              "7aug",
              "Maj7aug",
              "7(#9)",
              "7(b13)",
              "7(b9)",
              "7(13)",
              "7#11",
              "7(9)",
              "7b5",
              "7sus4",
              "7th",
              "dim7",
              "dim",
              "minMaj7(9)",
              "minMaj7",
              "min7(11)",
              "min7(9)",
              "min(9)",
              "m7b5",
              "min7",
              "min6",
              "aug",
              "Maj6(9)",
              "Maj7(9)",
              "Maj(9)",
              "Maj7#11",
              "Maj7",
              "Maj6",
              "Maj"
            ],
            "autoStart": false,
            "sourceChordNote": 0,
            "sourceChordType": "min7",
            "ctb2Low": null,
            "ctb2Main": {
              "ntr": "ROOT_TRANSPOSITION",
              "ntt": "MELODIC_MINOR_5",
              "bassOn": false,
              "chordRootUpperLimit": 7,
              "noteLowLimit": 55,
              "noteHighLimit": 77,
              "rtr": "PITCH_SHIFT"
            },
            "ctb2High": null
          },
          "notes": [
            {
              "pitch": 82,
              "velocity": 34,
              "position": 0.03125,
              "duration": 0.23125
            },
            {
              "pitch": 106,
              "velocity": 78,
              "position": 0.010416666666666666,
              "duration": 0.2520833333333333
            },
            {
              "pitch": 79,
              "velocity": 34,
              "position": 0.010416666666666666,
              "duration": 0.27291666666666664
            },
            {
              "pitch": 86,
              "velocity": 34,
              "position": 0.052083333333333336,
              "duration": 0.4395833333333333
            },
            {
              "pitch": 105,
              "velocity": 78,
              "position": 0.2708333333333333,
              "duration": 0.22083333333333333
            },
            {
              "pitch": 86,
              "velocity": 34,
              "position": 0.5,
              "duration": 0.2625
            },
            {
              "pitch": 107,
              "velocity": 78,
              "position": 0.5,
              "duration": 0.2625
            },
            {
              "pitch": 82,
              "velocity": 26,
              "position": 0.2708333333333333,
              "duration": 0.5125
            },
            {
              "pitch": 79,
              "velocity": 26,
              "position": 0.2916666666666667,
              "duration": 0.5125
            },
            {
              "pitch": 86,
              "velocity": 42,
              "position": 0.7708333333333334,
              "duration": 0.20416666666666666
            },
            {
              "pitch": 108,
              "velocity": 78,
              "position": 0.7708333333333334,
              "duration": 0.22083333333333333
            },
            {
              "pitch": 82,
              "velocity": 42,
              "position": 0.7916666666666666,
              "duration": 0.20416666666666666
            },
            {
              "pitch": 79,
              "velocity": 42,
              "position": 0.8125,
              "duration": 0.20416666666666666
            },
            {
              "pitch": 104,
              "velocity": 78,
              "position": 1,
              "duration": 0.2625
            },
            {
              "pitch": 86,
              "velocity": 42,
              "position": 1.2708333333333333,
              "duration": 0.20416666666666666
            },
            {
              "pitch": 106,
              "velocity": 78,
              "position": 1.2708333333333333,
              "duration": 0.22083333333333333
            },
            {
              "pitch": 82,
              "velocity": 42,
              "position": 1.2916666666666667,
              "duration": 0.20416666666666666
            },
            {
              "pitch": 79,
              "velocity": 42,
              "position": 1.3125,
              "duration": 0.20416666666666666
            },
            {
              "pitch": 104,
              "velocity": 78,
              "position": 1.5,
              "duration": 0.2625
            },
            {
              "pitch": 103,
              "velocity": 78,
              "position": 1.7708333333333333,
              "duration": 0.22083333333333333
            },
            {
              "pitch": 79,
              "velocity": 42,
              "position": 2,
              "duration": 0.23333333333333334
            },
            {
              "pitch": 82,
              "velocity": 42,
              "position": 2.0208333333333335,
              "duration": 0.23333333333333334
            },
            {
              "pitch": 106,
              "velocity": 78,
              "position": 2,
              "duration": 0.2625
            },
            {
              "pitch": 86,
              "velocity": 42,
              "position": 2.0416666666666665,
              "duration": 0.23333333333333334
            },
            {
              "pitch": 123,
              "velocity": 10,
              "position": 2.2708333333333335,
              "duration": 0.22083333333333333
            },
            {
              "pitch": 82,
              "velocity": 42,
              "position": 2.5,
              "duration": 0.23333333333333334
            },
            {
              "pitch": 86,
              "velocity": 42,
              "position": 2.5208333333333335,
              "duration": 0.23333333333333334
            },
            {
              "pitch": 89,
              "velocity": 42,
              "position": 2.5416666666666665,
              "duration": 0.23333333333333334
            },
            {
              "pitch": 108,
              "velocity": 78,
              "position": 2.5,
              "duration": 0.49166666666666664
            },
            {
              "pitch": 106,
              "velocity": 78,
              "position": 3,
              "duration": 0.2625
            },
            {
              "pitch": 105,
              "velocity": 78,
              "position": 3.2708333333333335,
              "duration": 0.22083333333333333
            },
            {
              "pitch": 104,
              "velocity": 78,
              "position": 3.5,
              "duration": 0.2625
            },
            {
              "pitch": 103,
              "velocity": 78,
              "position": 3.7708333333333335,
              "duration": 0.22083333333333333
            },
            {
              "pitch": 82,
              "velocity": 34,
              "position": 4.020833333333333,
              "duration": 0.24166666666666667
            },
            {
              "pitch": 106,
              "velocity": 78,
              "position": 4,
              "duration": 0.2625
            },
            {
              "pitch": 79,
              "velocity": 34,
              "position": 4,
              "duration": 0.2833333333333333
            },
            {
              "pitch": 86,
              "velocity": 34,
              "position": 4.041666666666667,
              "duration": 0.45
            },
            {
              "pitch": 105,
              "velocity": 78,
              "position": 4.270833333333333,
              "duration": 0.22083333333333333
            },
            {
              "pitch": 86,
              "velocity": 34,
              "position": 4.5,
              "duration": 0.2625
            },
            {
              "pitch": 107,
              "velocity": 78,
              "position": 4.5,
              "duration": 0.2625
            },
            {
              "pitch": 82,
              "velocity": 26,
              "position": 4.270833333333333,
              "duration": 0.5125
            },
            {
              "pitch": 79,
              "velocity": 26,
              "position": 4.291666666666667,
              "duration": 0.5125
            },
            {
              "pitch": 86,
              "velocity": 42,
              "position": 4.770833333333333,
              "duration": 0.20416666666666666
            },
            {
              "pitch": 108,
              "velocity": 78,
              "position": 4.770833333333333,
              "duration": 0.22083333333333333
            },
            {
              "pitch": 82,
              "velocity": 42,
              "position": 4.791666666666667,
              "duration": 0.20416666666666666
            },
            {
              "pitch": 79,
              "velocity": 42,
              "position": 4.8125,
              "duration": 0.20416666666666666
            },
            {
              "pitch": 104,
              "velocity": 78,
              "position": 5,
              "duration": 0.2625
            },
            {
              "pitch": 86,
              "velocity": 42,
              "position": 5.270833333333333,
              "duration": 0.20416666666666666
            },
            {
              "pitch": 106,
              "velocity": 78,
              "position": 5.270833333333333,
              "duration": 0.22083333333333333
            },
            {
              "pitch": 82,
              "velocity": 42,
              "position": 5.291666666666667,
              "duration": 0.20416666666666666
            },
            {
              "pitch": 79,
              "velocity": 42,
              "position": 5.3125,
              "duration": 0.20416666666666666
            },
            {
              "pitch": 104,
              "velocity": 78,
              "position": 5.5,
              "duration": 0.2625
            },
            {
              "pitch": 103,
              "velocity": 78,
              "position": 5.770833333333333,
              "duration": 0.22083333333333333
            },
            {
              "pitch": 79,
              "velocity": 42,
              "position": 6,
              "duration": 0.23333333333333334
            },
            {
              "pitch": 82,
              "velocity": 42,
              "position": 6.020833333333333,
              "duration": 0.23333333333333334
            },
            {
              "pitch": 106,
              "velocity": 78,
              "position": 6,
              "duration": 0.2625
            },
            {
              "pitch": 86,
              "velocity": 42,
              "position": 6.041666666666667,
              "duration": 0.23333333333333334
            },
            {
              "pitch": 124,
              "velocity": 10,
              "position": 6.270833333333333,
              "duration": 0.22083333333333333
            },
            {
              "pitch": 82,
              "velocity": 34,
              "position": 6.5,
              "duration": 0.23333333333333334
            },
            {
              "pitch": 86,
              "velocity": 34,
              "position": 6.520833333333333,
              "duration": 0.23333333333333334
            },
            {
              "pitch": 108,
              "velocity": 78,
              "position": 6.5,
              "duration": 0.2625
            },
            {
              "pitch": 89,
              "velocity": 34,
              "position": 6.541666666666667,
              "duration": 0.23333333333333334
            },
            {
              "pitch": 122,
              "velocity": 10,
              "position": 6.770833333333333,
              "duration": 0.22083333333333333
            },
            {
              "pitch": 79,
              "velocity": 42,
              "position": 7,
              "duration": 0.23333333333333334
            },
            {
              "pitch": 82,
              "velocity": 42,
              "position": 7.020833333333333,
              "duration": 0.23333333333333334
            },
            {
              "pitch": 106,
              "velocity": 78,
              "position": 7,
              "duration": 0.2625
            },
            {
              "pitch": 86,
              "velocity": 42,
              "position": 7.041666666666667,
              "duration": 0.23333333333333334
            },
            {
              "pitch": 105,
              "velocity": 78,
              "position": 7.270833333333333,
              "duration": 0.22083333333333333
            },
            {
              "pitch": 104,
              "velocity": 78,
              "position": 7.5,
              "duration": 0.2625
            },
            {
              "pitch": 103,
              "velocity": 78,
              "position": 7.770833333333333,
              "duration": 0.22083333333333333
            },
            {
              "pitch": 82,
              "velocity": 34,
              "position": 8.020833333333334,
              "duration": 0.24166666666666667
            },
            {
              "pitch": 106,
              "velocity": 78,
              "position": 8,
              "duration": 0.2625
            },
            {
              "pitch": 79,
              "velocity": 34,
              "position": 8,
              "duration": 0.2833333333333333
            },
            {
              "pitch": 86,
              "velocity": 34,
              "position": 8.041666666666666,
              "duration": 0.45
            },
            {
              "pitch": 105,
              "velocity": 78,
              "position": 8.270833333333334,
              "duration": 0.22083333333333333
            },
            {
              "pitch": 86,
              "velocity": 34,
              "position": 8.5,
              "duration": 0.2625
            },
            {
              "pitch": 107,
              "velocity": 78,
              "position": 8.5,
              "duration": 0.2625
            },
            {
              "pitch": 82,
              "velocity": 26,
              "position": 8.270833333333334,
              "duration": 0.5125
            },
            {
              "pitch": 79,
              "velocity": 26,
              "position": 8.291666666666666,
              "duration": 0.5125
            },
            {
              "pitch": 86,
              "velocity": 42,
              "position": 8.770833333333334,
              "duration": 0.20416666666666666
            },
            {
              "pitch": 108,
              "velocity": 78,
              "position": 8.770833333333334,
              "duration": 0.22083333333333333
            },
            {
              "pitch": 82,
              "velocity": 42,
              "position": 8.791666666666666,
              "duration": 0.20416666666666666
            },
            {
              "pitch": 79,
              "velocity": 42,
              "position": 8.8125,
              "duration": 0.20416666666666666
            },
            {
              "pitch": 104,
              "velocity": 78,
              "position": 9,
              "duration": 0.2625
            },
            {
              "pitch": 86,
              "velocity": 42,
              "position": 9.270833333333334,
              "duration": 0.20416666666666666
            },
            {
              "pitch": 106,
              "velocity": 78,
              "position": 9.270833333333334,
              "duration": 0.22083333333333333
            },
            {
              "pitch": 82,
              "velocity": 42,
              "position": 9.291666666666666,
              "duration": 0.20416666666666666
            },
            {
              "pitch": 79,
              "velocity": 42,
              "position": 9.3125,
              "duration": 0.20416666666666666
            },
            {
              "pitch": 104,
              "velocity": 78,
              "position": 9.5,
              "duration": 0.2625
            },
            {
              "pitch": 103,
              "velocity": 78,
              "position": 9.770833333333334,
              "duration": 0.22083333333333333
            },
            {
              "pitch": 79,
              "velocity": 42,
              "position": 10,
              "duration": 0.23333333333333334
            },
            {
              "pitch": 82,
              "velocity": 42,
              "position": 10.020833333333334,
              "duration": 0.23333333333333334
            },
            {
              "pitch": 106,
              "velocity": 78,
              "position": 10,
              "duration": 0.2625
            },
            {
              "pitch": 86,
              "velocity": 42,
              "position": 10.041666666666666,
              "duration": 0.23333333333333334
            },
            {
              "pitch": 123,
              "velocity": 10,
              "position": 10.270833333333334,
              "duration": 0.22083333333333333
            },
            {
              "pitch": 82,
              "velocity": 42,
              "position": 10.5,
              "duration": 0.23333333333333334
            },
            {
              "pitch": 86,
              "velocity": 42,
              "position": 10.520833333333334,
              "duration": 0.23333333333333334
            },
            {
              "pitch": 89,
              "velocity": 42,
              "position": 10.541666666666666,
              "duration": 0.23333333333333334
            },
            {
              "pitch": 108,
              "velocity": 78,
              "position": 10.5,
              "duration": 0.49166666666666664
            },
            {
              "pitch": 106,
              "velocity": 78,
              "position": 11,
              "duration": 0.2625
            },
            {
              "pitch": 105,
              "velocity": 78,
              "position": 11.270833333333334,
              "duration": 0.22083333333333333
            },
            {
              "pitch": 104,
              "velocity": 78,
              "position": 11.5,
              "duration": 0.2625
            },
            {
              "pitch": 103,
              "velocity": 78,
              "position": 11.770833333333334,
              "duration": 0.22083333333333333
            },
            {
              "pitch": 82,
              "velocity": 34,
              "position": 12.020833333333334,
              "duration": 0.24166666666666667
            },
            {
              "pitch": 106,
              "velocity": 78,
              "position": 12,
              "duration": 0.2625
            },
            {
              "pitch": 79,
              "velocity": 34,
              "position": 12,
              "duration": 0.2833333333333333
            },
            {
              "pitch": 86,
              "velocity": 34,
              "position": 12.041666666666666,
              "duration": 0.45
            },
            {
              "pitch": 105,
              "velocity": 78,
              "position": 12.270833333333334,
              "duration": 0.22083333333333333
            },
            {
              "pitch": 86,
              "velocity": 34,
              "position": 12.5,
              "duration": 0.2625
            },
            {
              "pitch": 107,
              "velocity": 78,
              "position": 12.5,
              "duration": 0.2625
            },
            {
              "pitch": 82,
              "velocity": 26,
              "position": 12.270833333333334,
              "duration": 0.5125
            },
            {
              "pitch": 79,
              "velocity": 26,
              "position": 12.291666666666666,
              "duration": 0.5125
            },
            {
              "pitch": 86,
              "velocity": 42,
              "position": 12.770833333333334,
              "duration": 0.20416666666666666
            },
            {
              "pitch": 108,
              "velocity": 78,
              "position": 12.770833333333334,
              "duration": 0.22083333333333333
            },
            {
              "pitch": 82,
              "velocity": 42,
              "position": 12.791666666666666,
              "duration": 0.20416666666666666
            },
            {
              "pitch": 79,
              "velocity": 42,
              "position": 12.8125,
              "duration": 0.20416666666666666
            },
            {
              "pitch": 104,
              "velocity": 78,
              "position": 13,
              "duration": 0.2625
            },
            {
              "pitch": 86,
              "velocity": 42,
              "position": 13.270833333333334,
              "duration": 0.20416666666666666
            },
            {
              "pitch": 106,
              "velocity": 78,
              "position": 13.270833333333334,
              "duration": 0.22083333333333333
            },
            {
              "pitch": 82,
              "velocity": 42,
              "position": 13.291666666666666,
              "duration": 0.20416666666666666
            },
            {
              "pitch": 79,
              "velocity": 42,
              "position": 13.3125,
              "duration": 0.20416666666666666
            },
            {
              "pitch": 104,
              "velocity": 78,
              "position": 13.5,
              "duration": 0.2625
            },
            {
              "pitch": 103,
              "velocity": 78,
              "position": 13.770833333333334,
              "duration": 0.22083333333333333
            },
            {
              "pitch": 79,
              "velocity": 42,
              "position": 14,
              "duration": 0.23333333333333334
            },
            {
              "pitch": 82,
              "velocity": 42,
              "position": 14.020833333333334,
              "duration": 0.23333333333333334
            },
            {
              "pitch": 106,
              "velocity": 78,
              "position": 14,
              "duration": 0.2625
            },
            {
              "pitch": 86,
              "velocity": 42,
              "position": 14.041666666666666,
              "duration": 0.23333333333333334
            },
            {
              "pitch": 124,
              "velocity": 10,
              "position": 14.270833333333334,
              "duration": 0.22083333333333333
            },
            {
              "pitch": 82,
              "velocity": 34,
              "position": 14.5,
              "duration": 0.23333333333333334
            },
            {
              "pitch": 86,
              "velocity": 34,
              "position": 14.520833333333334,
              "duration": 0.23333333333333334
            },
            {
              "pitch": 108,
              "velocity": 78,
              "position": 14.5,
              "duration": 0.2625
            },
            {
              "pitch": 89,
              "velocity": 34,
              "position": 14.541666666666666,
              "duration": 0.23333333333333334
            },
            {
              "pitch": 122,
              "velocity": 10,
              "position": 14.770833333333334,
              "duration": 0.22083333333333333
            },
            {
              "pitch": 79,
              "velocity": 42,
              "position": 15,
              "duration": 0.23333333333333334
            },
            {
              "pitch": 82,
              "velocity": 42,
              "position": 15.020833333333334,
              "duration": 0.23333333333333334
            },
            {
              "pitch": 106,
              "velocity": 78,
              "position": 15,
              "duration": 0.2625
            },
            {
              "pitch": 86,
              "velocity": 42,
              "position": 15.041666666666666,
              "duration": 0.23333333333333334
            },
            {
              "pitch": 105,
              "velocity": 78,
              "position": 15.270833333333334,
              "duration": 0.22083333333333333
            },
            {
              "pitch": 104,
              "velocity": 78,
              "position": 15.5,
              "duration": 0.2625
            },
            {
              "pitch": 103,
              "velocity": 78,
              "position": 15.770833333333334,
              "duration": 0.22083333333333333
            },
            {
              "pitch": 82,
              "velocity": 34,
              "position": 16.020833333333332,
              "duration": 0.24166666666666667
            },
            {
              "pitch": 106,
              "velocity": 78,
              "position": 16,
              "duration": 0.2625
            },
            {
              "pitch": 79,
              "velocity": 34,
              "position": 16,
              "duration": 0.2833333333333333
            },
            {
              "pitch": 86,
              "velocity": 34,
              "position": 16.041666666666668,
              "duration": 0.45
            },
            {
              "pitch": 105,
              "velocity": 78,
              "position": 16.270833333333332,
              "duration": 0.22083333333333333
            },
            {
              "pitch": 86,
              "velocity": 34,
              "position": 16.5,
              "duration": 0.2625
            },
            {
              "pitch": 107,
              "velocity": 78,
              "position": 16.5,
              "duration": 0.2625
            },
            {
              "pitch": 82,
              "velocity": 26,
              "position": 16.270833333333332,
              "duration": 0.5125
            },
            {
              "pitch": 79,
              "velocity": 26,
              "position": 16.291666666666668,
              "duration": 0.5125
            },
            {
              "pitch": 86,
              "velocity": 42,
              "position": 16.770833333333332,
              "duration": 0.20416666666666666
            },
            {
              "pitch": 108,
              "velocity": 78,
              "position": 16.770833333333332,
              "duration": 0.22083333333333333
            },
            {
              "pitch": 82,
              "velocity": 42,
              "position": 16.791666666666668,
              "duration": 0.20416666666666666
            },
            {
              "pitch": 79,
              "velocity": 42,
              "position": 16.8125,
              "duration": 0.20416666666666666
            },
            {
              "pitch": 104,
              "velocity": 78,
              "position": 17,
              "duration": 0.2625
            },
            {
              "pitch": 86,
              "velocity": 42,
              "position": 17.270833333333332,
              "duration": 0.20416666666666666
            },
            {
              "pitch": 106,
              "velocity": 78,
              "position": 17.270833333333332,
              "duration": 0.22083333333333333
            },
            {
              "pitch": 82,
              "velocity": 42,
              "position": 17.291666666666668,
              "duration": 0.20416666666666666
            },
            {
              "pitch": 79,
              "velocity": 42,
              "position": 17.3125,
              "duration": 0.20416666666666666
            },
            {
              "pitch": 104,
              "velocity": 78,
              "position": 17.5,
              "duration": 0.2625
            },
            {
              "pitch": 103,
              "velocity": 78,
              "position": 17.770833333333332,
              "duration": 0.22083333333333333
            },
            {
              "pitch": 79,
              "velocity": 42,
              "position": 18,
              "duration": 0.23333333333333334
            },
            {
              "pitch": 82,
              "velocity": 42,
              "position": 18.020833333333332,
              "duration": 0.23333333333333334
            },
            {
              "pitch": 106,
              "velocity": 78,
              "position": 18,
              "duration": 0.2625
            },
            {
              "pitch": 86,
              "velocity": 42,
              "position": 18.041666666666668,
              "duration": 0.23333333333333334
            },
            {
              "pitch": 123,
              "velocity": 10,
              "position": 18.270833333333332,
              "duration": 0.22083333333333333
            },
            {
              "pitch": 82,
              "velocity": 42,
              "position": 18.5,
              "duration": 0.23333333333333334
            },
            {
              "pitch": 86,
              "velocity": 42,
              "position": 18.520833333333332,
              "duration": 0.23333333333333334
            },
            {
              "pitch": 89,
              "velocity": 42,
              "position": 18.541666666666668,
              "duration": 0.23333333333333334
            },
            {
              "pitch": 108,
              "velocity": 78,
              "position": 18.5,
              "duration": 0.49166666666666664
            },
            {
              "pitch": 106,
              "velocity": 78,
              "position": 19,
              "duration": 0.2625
            },
            {
              "pitch": 105,
              "velocity": 78,
              "position": 19.270833333333332,
              "duration": 0.22083333333333333
            },
            {
              "pitch": 104,
              "velocity": 78,
              "position": 19.5,
              "duration": 0.2625
            },
            {
              "pitch": 103,
              "velocity": 78,
              "position": 19.770833333333332,
              "duration": 0.22083333333333333
            },
            {
              "pitch": 82,
              "velocity": 34,
              "position": 20.020833333333332,
              "duration": 0.24166666666666667
            },
            {
              "pitch": 106,
              "velocity": 78,
              "position": 20,
              "duration": 0.2625
            },
            {
              "pitch": 79,
              "velocity": 34,
              "position": 20,
              "duration": 0.2833333333333333
            },
            {
              "pitch": 86,
              "velocity": 34,
              "position": 20.041666666666668,
              "duration": 0.45
            },
            {
              "pitch": 105,
              "velocity": 78,
              "position": 20.270833333333332,
              "duration": 0.22083333333333333
            },
            {
              "pitch": 86,
              "velocity": 34,
              "position": 20.5,
              "duration": 0.2625
            },
            {
              "pitch": 107,
              "velocity": 78,
              "position": 20.5,
              "duration": 0.2625
            },
            {
              "pitch": 82,
              "velocity": 26,
              "position": 20.270833333333332,
              "duration": 0.5125
            },
            {
              "pitch": 79,
              "velocity": 26,
              "position": 20.291666666666668,
              "duration": 0.5125
            },
            {
              "pitch": 86,
              "velocity": 42,
              "position": 20.770833333333332,
              "duration": 0.20416666666666666
            },
            {
              "pitch": 108,
              "velocity": 78,
              "position": 20.770833333333332,
              "duration": 0.22083333333333333
            },
            {
              "pitch": 82,
              "velocity": 42,
              "position": 20.791666666666668,
              "duration": 0.20416666666666666
            },
            {
              "pitch": 79,
              "velocity": 42,
              "position": 20.8125,
              "duration": 0.20416666666666666
            },
            {
              "pitch": 104,
              "velocity": 78,
              "position": 21,
              "duration": 0.2625
            },
            {
              "pitch": 86,
              "velocity": 42,
              "position": 21.270833333333332,
              "duration": 0.20416666666666666
            },
            {
              "pitch": 106,
              "velocity": 78,
              "position": 21.270833333333332,
              "duration": 0.22083333333333333
            },
            {
              "pitch": 82,
              "velocity": 42,
              "position": 21.291666666666668,
              "duration": 0.20416666666666666
            },
            {
              "pitch": 79,
              "velocity": 42,
              "position": 21.3125,
              "duration": 0.20416666666666666
            },
            {
              "pitch": 104,
              "velocity": 78,
              "position": 21.5,
              "duration": 0.2625
            },
            {
              "pitch": 103,
              "velocity": 78,
              "position": 21.770833333333332,
              "duration": 0.22083333333333333
            },
            {
              "pitch": 79,
              "velocity": 42,
              "position": 22,
              "duration": 0.23333333333333334
            },
            {
              "pitch": 82,
              "velocity": 42,
              "position": 22.020833333333332,
              "duration": 0.23333333333333334
            },
            {
              "pitch": 106,
              "velocity": 78,
              "position": 22,
              "duration": 0.2625
            },
            {
              "pitch": 86,
              "velocity": 42,
              "position": 22.041666666666668,
              "duration": 0.23333333333333334
            },
            {
              "pitch": 124,
              "velocity": 10,
              "position": 22.270833333333332,
              "duration": 0.22083333333333333
            },
            {
              "pitch": 82,
              "velocity": 34,
              "position": 22.5,
              "duration": 0.23333333333333334
            },
            {
              "pitch": 86,
              "velocity": 34,
              "position": 22.520833333333332,
              "duration": 0.23333333333333334
            },
            {
              "pitch": 108,
              "velocity": 78,
              "position": 22.5,
              "duration": 0.2625
            },
            {
              "pitch": 89,
              "velocity": 34,
              "position": 22.541666666666668,
              "duration": 0.23333333333333334
            },
            {
              "pitch": 122,
              "velocity": 10,
              "position": 22.770833333333332,
              "duration": 0.22083333333333333
            },
            {
              "pitch": 79,
              "velocity": 42,
              "position": 23,
              "duration": 0.23333333333333334
            },
            {
              "pitch": 82,
              "velocity": 42,
              "position": 23.020833333333332,
              "duration": 0.23333333333333334
            },
            {
              "pitch": 106,
              "velocity": 78,
              "position": 23,
              "duration": 0.2625
            },
            {
              "pitch": 86,
              "velocity": 42,
              "position": 23.041666666666668,
              "duration": 0.23333333333333334
            },
            {
              "pitch": 105,
              "velocity": 78,
              "position": 23.270833333333332,
              "duration": 0.22083333333333333
            },
            {
              "pitch": 104,
              "velocity": 78,
              "position": 23.5,
              "duration": 0.2625
            },
            {
              "pitch": 103,
              "velocity": 78,
              "position": 23.770833333333332,
              "duration": 0.22083333333333333
            },
            {
              "pitch": 82,
              "velocity": 34,
              "position": 24.020833333333332,
              "duration": 0.24166666666666667
            },
            {
              "pitch": 106,
              "velocity": 78,
              "position": 24,
              "duration": 0.2625
            },
            {
              "pitch": 79,
              "velocity": 34,
              "position": 24,
              "duration": 0.2833333333333333
            },
            {
              "pitch": 86,
              "velocity": 34,
              "position": 24.041666666666668,
              "duration": 0.45
            },
            {
              "pitch": 105,
              "velocity": 78,
              "position": 24.270833333333332,
              "duration": 0.22083333333333333
            },
            {
              "pitch": 86,
              "velocity": 34,
              "position": 24.5,
              "duration": 0.2625
            },
            {
              "pitch": 107,
              "velocity": 78,
              "position": 24.5,
              "duration": 0.2625
            },
            {
              "pitch": 82,
              "velocity": 26,
              "position": 24.270833333333332,
              "duration": 0.5125
            },
            {
              "pitch": 79,
              "velocity": 26,
              "position": 24.291666666666668,
              "duration": 0.5125
            },
            {
              "pitch": 86,
              "velocity": 42,
              "position": 24.770833333333332,
              "duration": 0.20416666666666666
            },
            {
              "pitch": 108,
              "velocity": 78,
              "position": 24.770833333333332,
              "duration": 0.22083333333333333
            },
            {
              "pitch": 82,
              "velocity": 42,
              "position": 24.791666666666668,
              "duration": 0.20416666666666666
            },
            {
              "pitch": 79,
              "velocity": 42,
              "position": 24.8125,
              "duration": 0.20416666666666666
            },
            {
              "pitch": 104,
              "velocity": 78,
              "position": 25,
              "duration": 0.2625
            },
            {
              "pitch": 86,
              "velocity": 42,
              "position": 25.270833333333332,
              "duration": 0.20416666666666666
            },
            {
              "pitch": 106,
              "velocity": 78,
              "position": 25.270833333333332,
              "duration": 0.22083333333333333
            },
            {
              "pitch": 82,
              "velocity": 42,
              "position": 25.291666666666668,
              "duration": 0.20416666666666666
            },
            {
              "pitch": 79,
              "velocity": 42,
              "position": 25.3125,
              "duration": 0.20416666666666666
            },
            {
              "pitch": 104,
              "velocity": 78,
              "position": 25.5,
              "duration": 0.2625
            },
            {
              "pitch": 103,
              "velocity": 78,
              "position": 25.770833333333332,
              "duration": 0.22083333333333333
            },
            {
              "pitch": 79,
              "velocity": 42,
              "position": 26,
              "duration": 0.23333333333333334
            },
            {
              "pitch": 82,
              "velocity": 42,
              "position": 26.020833333333332,
              "duration": 0.23333333333333334
            },
            {
              "pitch": 106,
              "velocity": 78,
              "position": 26,
              "duration": 0.2625
            },
            {
              "pitch": 86,
              "velocity": 42,
              "position": 26.041666666666668,
              "duration": 0.23333333333333334
            },
            {
              "pitch": 123,
              "velocity": 10,
              "position": 26.270833333333332,
              "duration": 0.22083333333333333
            },
            {
              "pitch": 82,
              "velocity": 42,
              "position": 26.5,
              "duration": 0.23333333333333334
            },
            {
              "pitch": 86,
              "velocity": 42,
              "position": 26.520833333333332,
              "duration": 0.23333333333333334
            },
            {
              "pitch": 89,
              "velocity": 42,
              "position": 26.541666666666668,
              "duration": 0.23333333333333334
            },
            {
              "pitch": 108,
              "velocity": 78,
              "position": 26.5,
              "duration": 0.49166666666666664
            },
            {
              "pitch": 106,
              "velocity": 78,
              "position": 27,
              "duration": 0.2625
            },
            {
              "pitch": 105,
              "velocity": 78,
              "position": 27.270833333333332,
              "duration": 0.22083333333333333
            },
            {
              "pitch": 104,
              "velocity": 78,
              "position": 27.5,
              "duration": 0.2625
            },
            {
              "pitch": 103,
              "velocity": 78,
              "position": 27.770833333333332,
              "duration": 0.22083333333333333
            },
            {
              "pitch": 82,
              "velocity": 34,
              "position": 28.020833333333332,
              "duration": 0.24166666666666667
            },
            {
              "pitch": 106,
              "velocity": 78,
              "position": 28,
              "duration": 0.2625
            },
            {
              "pitch": 79,
              "velocity": 34,
              "position": 28,
              "duration": 0.2833333333333333
            },
            {
              "pitch": 86,
              "velocity": 34,
              "position": 28.041666666666668,
              "duration": 0.45
            },
            {
              "pitch": 105,
              "velocity": 78,
              "position": 28.270833333333332,
              "duration": 0.22083333333333333
            },
            {
              "pitch": 86,
              "velocity": 34,
              "position": 28.5,
              "duration": 0.2625
            },
            {
              "pitch": 107,
              "velocity": 78,
              "position": 28.5,
              "duration": 0.2625
            },
            {
              "pitch": 82,
              "velocity": 26,
              "position": 28.270833333333332,
              "duration": 0.5125
            },
            {
              "pitch": 79,
              "velocity": 26,
              "position": 28.291666666666668,
              "duration": 0.5125
            },
            {
              "pitch": 86,
              "velocity": 42,
              "position": 28.770833333333332,
              "duration": 0.20416666666666666
            },
            {
              "pitch": 108,
              "velocity": 78,
              "position": 28.770833333333332,
              "duration": 0.22083333333333333
            },
            {
              "pitch": 82,
              "velocity": 42,
              "position": 28.791666666666668,
              "duration": 0.20416666666666666
            },
            {
              "pitch": 79,
              "velocity": 42,
              "position": 28.8125,
              "duration": 0.20416666666666666
            },
            {
              "pitch": 104,
              "velocity": 78,
              "position": 29,
              "duration": 0.2625
            },
            {
              "pitch": 86,
              "velocity": 42,
              "position": 29.270833333333332,
              "duration": 0.20416666666666666
            },
            {
              "pitch": 106,
              "velocity": 78,
              "position": 29.270833333333332,
              "duration": 0.22083333333333333
            },
            {
              "pitch": 82,
              "velocity": 42,
              "position": 29.291666666666668,
              "duration": 0.20416666666666666
            },
            {
              "pitch": 79,
              "velocity": 42,
              "position": 29.3125,
              "duration": 0.20416666666666666
            },
            {
              "pitch": 104,
              "velocity": 78,
              "position": 29.5,
              "duration": 0.2625
            },
            {
              "pitch": 103,
              "velocity": 78,
              "position": 29.770833333333332,
              "duration": 0.22083333333333333
            },
            {
              "pitch": 79,
              "velocity": 42,
              "position": 30,
              "duration": 0.23333333333333334
            },
            {
              "pitch": 82,
              "velocity": 42,
              "position": 30.020833333333332,
              "duration": 0.23333333333333334
            },
            {
              "pitch": 106,
              "velocity": 78,
              "position": 30,
              "duration": 0.2625
            },
            {
              "pitch": 86,
              "velocity": 42,
              "position": 30.041666666666668,
              "duration": 0.23333333333333334
            },
            {
              "pitch": 124,
              "velocity": 10,
              "position": 30.270833333333332,
              "duration": 0.22083333333333333
            },
            {
              "pitch": 82,
              "velocity": 34,
              "position": 30.5,
              "duration": 0.23333333333333334
            },
            {
              "pitch": 86,
              "velocity": 34,
              "position": 30.520833333333332,
              "duration": 0.23333333333333334
            },
            {
              "pitch": 108,
              "velocity": 78,
              "position": 30.5,
              "duration": 0.2625
            },
            {
              "pitch": 89,
              "velocity": 34,
              "position": 30.541666666666668,
              "duration": 0.23333333333333334
            },
            {
              "pitch": 122,
              "velocity": 10,
              "position": 30.770833333333332,
              "duration": 0.22083333333333333
            },
            {
              "pitch": 79,
              "velocity": 42,
              "position": 31,
              "duration": 0.23333333333333334
            },
            {
              "pitch": 82,
              "velocity": 42,
              "position": 31.020833333333332,
              "duration": 0.23333333333333334
            },
            {
              "pitch": 106,
              "velocity": 78,
              "position": 31,
              "duration": 0.2625
            },
            {
              "pitch": 86,
              "velocity": 42,
              "position": 31.041666666666668,
              "duration": 0.23333333333333334
            },
            {
              "pitch": 105,
              "velocity": 78,
              "position": 31.270833333333332,
              "duration": 0.22083333333333333
            },
            {
              "pitch": 104,
              "velocity": 78,
              "position": 31.5,
              "duration": 0.2625
            },
            {
              "pitch": 103,
              "velocity": 78,
              "position": 31.770833333333332,
              "duration": 0.22083333333333333
            }
          ]
        },
        "3": {
          "ctab": {
            "srcChannel": 3,
            "name": "Gt",
            "accType": "CHORD1",
            "editable": false,
            "mutedNotes": [],
            "mutedChords": [
              "7th",
              "min",
              "Maj"
            ],
            "autoStart": false,
            "sourceChordNote": 0,
            "sourceChordType": "Maj7",
            "ctb2Low": null,
            "ctb2Main": {
              "ntr": "ROOT_FIXED",
              "ntt": "CHORD",
              "bassOn": false,
              "chordRootUpperLimit": 7,
              "noteLowLimit": 55,
              "noteHighLimit": 77,
              "rtr": "PITCH_SHIFT"
            },
            "ctb2High": null
          },
          "notes": [
            {
              "pitch": 83,
              "velocity": 34,
              "position": 0.03125,
              "duration": 0.23125
            },
            {
              "pitch": 106,
              "velocity": 78,
              "position": 0.010416666666666666,
              "duration": 0.2520833333333333
            },
            {
              "pitch": 79,
              "velocity": 34,
              "position": 0.010416666666666666,
              "duration": 0.27291666666666664
            },
            {
              "pitch": 88,
              "velocity": 34,
              "position": 0.052083333333333336,
              "duration": 0.4395833333333333
            },
            {
              "pitch": 105,
              "velocity": 78,
              "position": 0.2708333333333333,
              "duration": 0.22083333333333333
            },
            {
              "pitch": 88,
              "velocity": 34,
              "position": 0.5,
              "duration": 0.2625
            },
            {
              "pitch": 107,
              "velocity": 78,
              "position": 0.5,
              "duration": 0.2625
            },
            {
              "pitch": 83,
              "velocity": 26,
              "position": 0.2708333333333333,
              "duration": 0.5125
            },
            {
              "pitch": 79,
              "velocity": 26,
              "position": 0.2916666666666667,
              "duration": 0.5125
            },
            {
              "pitch": 88,
              "velocity": 42,
              "position": 0.7708333333333334,
              "duration": 0.20416666666666666
            },
            {
              "pitch": 108,
              "velocity": 78,
              "position": 0.7708333333333334,
              "duration": 0.22083333333333333
            },
            {
              "pitch": 83,
              "velocity": 42,
              "position": 0.7916666666666666,
              "duration": 0.20416666666666666
            },
            {
              "pitch": 79,
              "velocity": 42,
              "position": 0.8125,
              "duration": 0.20416666666666666
            },
            {
              "pitch": 104,
              "velocity": 78,
              "position": 1,
              "duration": 0.2625
            },
            {
              "pitch": 88,
              "velocity": 42,
              "position": 1.2708333333333333,
              "duration": 0.20416666666666666
            },
            {
              "pitch": 106,
              "velocity": 78,
              "position": 1.2708333333333333,
              "duration": 0.22083333333333333
            },
            {
              "pitch": 83,
              "velocity": 42,
              "position": 1.2916666666666667,
              "duration": 0.20416666666666666
            },
            {
              "pitch": 79,
              "velocity": 42,
              "position": 1.3125,
              "duration": 0.20416666666666666
            },
            {
              "pitch": 104,
              "velocity": 78,
              "position": 1.5,
              "duration": 0.2625
            },
            {
              "pitch": 103,
              "velocity": 78,
              "position": 1.7708333333333333,
              "duration": 0.22083333333333333
            },
            {
              "pitch": 79,
              "velocity": 42,
              "position": 2,
              "duration": 0.23333333333333334
            },
            {
              "pitch": 83,
              "velocity": 42,
              "position": 2.0208333333333335,
              "duration": 0.23333333333333334
            },
            {
              "pitch": 106,
              "velocity": 78,
              "position": 2,
              "duration": 0.2625
            },
            {
              "pitch": 88,
              "velocity": 42,
              "position": 2.0416666666666665,
              "duration": 0.23333333333333334
            },
            {
              "pitch": 123,
              "velocity": 10,
              "position": 2.2708333333333335,
              "duration": 0.22083333333333333
            },
            {
              "pitch": 79,
              "velocity": 42,
              "position": 2.5,
              "duration": 0.23333333333333334
            },
            {
              "pitch": 83,
              "velocity": 42,
              "position": 2.5208333333333335,
              "duration": 0.23333333333333334
            },
            {
              "pitch": 88,
              "velocity": 42,
              "position": 2.5416666666666665,
              "duration": 0.23333333333333334
            },
            {
              "pitch": 108,
              "velocity": 78,
              "position": 2.5,
              "duration": 0.49166666666666664
            },
            {
              "pitch": 106,
              "velocity": 78,
              "position": 3,
              "duration": 0.2625
            },
            {
              "pitch": 105,
              "velocity": 78,
              "position": 3.2708333333333335,
              "duration": 0.22083333333333333
            },
            {
              "pitch": 104,
              "velocity": 78,
              "position": 3.5,
              "duration": 0.2625
            },
            {
              "pitch": 103,
              "velocity": 78,
              "position": 3.7708333333333335,
              "duration": 0.22083333333333333
            },
            {
              "pitch": 83,
              "velocity": 34,
              "position": 4.020833333333333,
              "duration": 0.24166666666666667
            },
            {
              "pitch": 106,
              "velocity": 78,
              "position": 4,
              "duration": 0.2625
            },
            {
              "pitch": 79,
              "velocity": 34,
              "position": 4,
              "duration": 0.2833333333333333
            },
            {
              "pitch": 88,
              "velocity": 34,
              "position": 4.041666666666667,
              "duration": 0.45
            },
            {
              "pitch": 105,
              "velocity": 78,
              "position": 4.270833333333333,
              "duration": 0.22083333333333333
            },
            {
              "pitch": 88,
              "velocity": 34,
              "position": 4.5,
              "duration": 0.2625
            },
            {
              "pitch": 107,
              "velocity": 78,
              "position": 4.5,
              "duration": 0.2625
            },
            {
              "pitch": 83,
              "velocity": 26,
              "position": 4.270833333333333,
              "duration": 0.5125
            },
            {
              "pitch": 79,
              "velocity": 26,
              "position": 4.291666666666667,
              "duration": 0.5125
            },
            {
              "pitch": 88,
              "velocity": 42,
              "position": 4.770833333333333,
              "duration": 0.20416666666666666
            },
            {
              "pitch": 108,
              "velocity": 78,
              "position": 4.770833333333333,
              "duration": 0.22083333333333333
            },
            {
              "pitch": 83,
              "velocity": 42,
              "position": 4.791666666666667,
              "duration": 0.20416666666666666
            },
            {
              "pitch": 79,
              "velocity": 42,
              "position": 4.8125,
              "duration": 0.20416666666666666
            },
            {
              "pitch": 104,
              "velocity": 78,
              "position": 5,
              "duration": 0.2625
            },
            {
              "pitch": 88,
              "velocity": 42,
              "position": 5.270833333333333,
              "duration": 0.20416666666666666
            },
            {
              "pitch": 106,
              "velocity": 78,
              "position": 5.270833333333333,
              "duration": 0.22083333333333333
            },
            {
              "pitch": 83,
              "velocity": 42,
              "position": 5.291666666666667,
              "duration": 0.20416666666666666
            },
            {
              "pitch": 79,
              "velocity": 42,
              "position": 5.3125,
              "duration": 0.20416666666666666
            },
            {
              "pitch": 104,
              "velocity": 78,
              "position": 5.5,
              "duration": 0.2625
            },
            {
              "pitch": 103,
              "velocity": 78,
              "position": 5.770833333333333,
              "duration": 0.22083333333333333
            },
            {
              "pitch": 79,
              "velocity": 42,
              "position": 6,
              "duration": 0.23333333333333334
            },
            {
              "pitch": 83,
              "velocity": 42,
              "position": 6.020833333333333,
              "duration": 0.23333333333333334
            },
            {
              "pitch": 106,
              "velocity": 78,
              "position": 6,
              "duration": 0.2625
            },
            {
              "pitch": 88,
              "velocity": 42,
              "position": 6.041666666666667,
              "duration": 0.23333333333333334
            },
            {
              "pitch": 124,
              "velocity": 10,
              "position": 6.270833333333333,
              "duration": 0.22083333333333333
            },
            {
              "pitch": 79,
              "velocity": 34,
              "position": 6.5,
              "duration": 0.23333333333333334
            },
            {
              "pitch": 83,
              "velocity": 34,
              "position": 6.520833333333333,
              "duration": 0.23333333333333334
            },
            {
              "pitch": 108,
              "velocity": 78,
              "position": 6.5,
              "duration": 0.2625
            },
            {
              "pitch": 88,
              "velocity": 34,
              "position": 6.541666666666667,
              "duration": 0.23333333333333334
            },
            {
              "pitch": 122,
              "velocity": 10,
              "position": 6.770833333333333,
              "duration": 0.22083333333333333
            },
            {
              "pitch": 79,
              "velocity": 42,
              "position": 7,
              "duration": 0.23333333333333334
            },
            {
              "pitch": 83,
              "velocity": 42,
              "position": 7.020833333333333,
              "duration": 0.23333333333333334
            },
            {
              "pitch": 106,
              "velocity": 78,
              "position": 7,
              "duration": 0.2625
            },
            {
              "pitch": 88,
              "velocity": 42,
              "position": 7.041666666666667,
              "duration": 0.23333333333333334
            },
            {
              "pitch": 105,
              "velocity": 78,
              "position": 7.270833333333333,
              "duration": 0.22083333333333333
            },
            {
              "pitch": 104,
              "velocity": 78,
              "position": 7.5,
              "duration": 0.2625
            },
            {
              "pitch": 103,
              "velocity": 78,
              "position": 7.770833333333333,
              "duration": 0.22083333333333333
            },
            {
              "pitch": 83,
              "velocity": 34,
              "position": 8.020833333333334,
              "duration": 0.24166666666666667
            },
            {
              "pitch": 106,
              "velocity": 78,
              "position": 8,
              "duration": 0.2625
            },
            {
              "pitch": 79,
              "velocity": 34,
              "position": 8,
              "duration": 0.2833333333333333
            },
            {
              "pitch": 88,
              "velocity": 34,
              "position": 8.041666666666666,
              "duration": 0.45
            },
            {
              "pitch": 105,
              "velocity": 78,
              "position": 8.270833333333334,
              "duration": 0.22083333333333333
            },
            {
              "pitch": 88,
              "velocity": 34,
              "position": 8.5,
              "duration": 0.2625
            },
            {
              "pitch": 107,
              "velocity": 78,
              "position": 8.5,
              "duration": 0.2625
            },
            {
              "pitch": 83,
              "velocity": 26,
              "position": 8.270833333333334,
              "duration": 0.5125
            },
            {
              "pitch": 79,
              "velocity": 26,
              "position": 8.291666666666666,
              "duration": 0.5125
            },
            {
              "pitch": 88,
              "velocity": 42,
              "position": 8.770833333333334,
              "duration": 0.20416666666666666
            },
            {
              "pitch": 108,
              "velocity": 78,
              "position": 8.770833333333334,
              "duration": 0.22083333333333333
            },
            {
              "pitch": 83,
              "velocity": 42,
              "position": 8.791666666666666,
              "duration": 0.20416666666666666
            },
            {
              "pitch": 79,
              "velocity": 42,
              "position": 8.8125,
              "duration": 0.20416666666666666
            },
            {
              "pitch": 104,
              "velocity": 78,
              "position": 9,
              "duration": 0.2625
            },
            {
              "pitch": 88,
              "velocity": 42,
              "position": 9.270833333333334,
              "duration": 0.20416666666666666
            },
            {
              "pitch": 106,
              "velocity": 78,
              "position": 9.270833333333334,
              "duration": 0.22083333333333333
            },
            {
              "pitch": 83,
              "velocity": 42,
              "position": 9.291666666666666,
              "duration": 0.20416666666666666
            },
            {
              "pitch": 79,
              "velocity": 42,
              "position": 9.3125,
              "duration": 0.20416666666666666
            },
            {
              "pitch": 104,
              "velocity": 78,
              "position": 9.5,
              "duration": 0.2625
            },
            {
              "pitch": 103,
              "velocity": 78,
              "position": 9.770833333333334,
              "duration": 0.22083333333333333
            },
            {
              "pitch": 79,
              "velocity": 42,
              "position": 10,
              "duration": 0.23333333333333334
            },
            {
              "pitch": 83,
              "velocity": 42,
              "position": 10.020833333333334,
              "duration": 0.23333333333333334
            },
            {
              "pitch": 106,
              "velocity": 78,
              "position": 10,
              "duration": 0.2625
            },
            {
              "pitch": 88,
              "velocity": 42,
              "position": 10.041666666666666,
              "duration": 0.23333333333333334
            },
            {
              "pitch": 123,
              "velocity": 10,
              "position": 10.270833333333334,
              "duration": 0.22083333333333333
            },
            {
              "pitch": 79,
              "velocity": 42,
              "position": 10.5,
              "duration": 0.23333333333333334
            },
            {
              "pitch": 83,
              "velocity": 42,
              "position": 10.520833333333334,
              "duration": 0.23333333333333334
            },
            {
              "pitch": 88,
              "velocity": 42,
              "position": 10.541666666666666,
              "duration": 0.23333333333333334
            },
            {
              "pitch": 108,
              "velocity": 78,
              "position": 10.5,
              "duration": 0.49166666666666664
            },
            {
              "pitch": 106,
              "velocity": 78,
              "position": 11,
              "duration": 0.2625
            },
            {
              "pitch": 105,
              "velocity": 78,
              "position": 11.270833333333334,
              "duration": 0.22083333333333333
            },
            {
              "pitch": 104,
              "velocity": 78,
              "position": 11.5,
              "duration": 0.2625
            },
            {
              "pitch": 103,
              "velocity": 78,
              "position": 11.770833333333334,
              "duration": 0.22083333333333333
            },
            {
              "pitch": 83,
              "velocity": 34,
              "position": 12.020833333333334,
              "duration": 0.24166666666666667
            },
            {
              "pitch": 106,
              "velocity": 78,
              "position": 12,
              "duration": 0.2625
            },
            {
              "pitch": 79,
              "velocity": 34,
              "position": 12,
              "duration": 0.2833333333333333
            },
            {
              "pitch": 88,
              "velocity": 34,
              "position": 12.041666666666666,
              "duration": 0.45
            },
            {
              "pitch": 105,
              "velocity": 78,
              "position": 12.270833333333334,
              "duration": 0.22083333333333333
            },
            {
              "pitch": 88,
              "velocity": 34,
              "position": 12.5,
              "duration": 0.2625
            },
            {
              "pitch": 107,
              "velocity": 78,
              "position": 12.5,
              "duration": 0.2625
            },
            {
              "pitch": 83,
              "velocity": 26,
              "position": 12.270833333333334,
              "duration": 0.5125
            },
            {
              "pitch": 79,
              "velocity": 26,
              "position": 12.291666666666666,
              "duration": 0.5125
            },
            {
              "pitch": 88,
              "velocity": 42,
              "position": 12.770833333333334,
              "duration": 0.20416666666666666
            },
            {
              "pitch": 108,
              "velocity": 78,
              "position": 12.770833333333334,
              "duration": 0.22083333333333333
            },
            {
              "pitch": 83,
              "velocity": 42,
              "position": 12.791666666666666,
              "duration": 0.20416666666666666
            },
            {
              "pitch": 79,
              "velocity": 42,
              "position": 12.8125,
              "duration": 0.20416666666666666
            },
            {
              "pitch": 104,
              "velocity": 78,
              "position": 13,
              "duration": 0.2625
            },
            {
              "pitch": 88,
              "velocity": 42,
              "position": 13.270833333333334,
              "duration": 0.20416666666666666
            },
            {
              "pitch": 106,
              "velocity": 78,
              "position": 13.270833333333334,
              "duration": 0.22083333333333333
            },
            {
              "pitch": 83,
              "velocity": 42,
              "position": 13.291666666666666,
              "duration": 0.20416666666666666
            },
            {
              "pitch": 79,
              "velocity": 42,
              "position": 13.3125,
              "duration": 0.20416666666666666
            },
            {
              "pitch": 104,
              "velocity": 78,
              "position": 13.5,
              "duration": 0.2625
            },
            {
              "pitch": 103,
              "velocity": 78,
              "position": 13.770833333333334,
              "duration": 0.22083333333333333
            },
            {
              "pitch": 79,
              "velocity": 42,
              "position": 14,
              "duration": 0.23333333333333334
            },
            {
              "pitch": 83,
              "velocity": 42,
              "position": 14.020833333333334,
              "duration": 0.23333333333333334
            },
            {
              "pitch": 106,
              "velocity": 78,
              "position": 14,
              "duration": 0.2625
            },
            {
              "pitch": 88,
              "velocity": 42,
              "position": 14.041666666666666,
              "duration": 0.23333333333333334
            },
            {
              "pitch": 124,
              "velocity": 10,
              "position": 14.270833333333334,
              "duration": 0.22083333333333333
            },
            {
              "pitch": 79,
              "velocity": 34,
              "position": 14.5,
              "duration": 0.23333333333333334
            },
            {
              "pitch": 83,
              "velocity": 34,
              "position": 14.520833333333334,
              "duration": 0.23333333333333334
            },
            {
              "pitch": 108,
              "velocity": 78,
              "position": 14.5,
              "duration": 0.2625
            },
            {
              "pitch": 88,
              "velocity": 34,
              "position": 14.541666666666666,
              "duration": 0.23333333333333334
            },
            {
              "pitch": 122,
              "velocity": 10,
              "position": 14.770833333333334,
              "duration": 0.22083333333333333
            },
            {
              "pitch": 79,
              "velocity": 42,
              "position": 15,
              "duration": 0.23333333333333334
            },
            {
              "pitch": 83,
              "velocity": 42,
              "position": 15.020833333333334,
              "duration": 0.23333333333333334
            },
            {
              "pitch": 106,
              "velocity": 78,
              "position": 15,
              "duration": 0.2625
            },
            {
              "pitch": 88,
              "velocity": 42,
              "position": 15.041666666666666,
              "duration": 0.23333333333333334
            },
            {
              "pitch": 105,
              "velocity": 78,
              "position": 15.270833333333334,
              "duration": 0.22083333333333333
            },
            {
              "pitch": 104,
              "velocity": 78,
              "position": 15.5,
              "duration": 0.2625
            },
            {
              "pitch": 103,
              "velocity": 78,
              "position": 15.770833333333334,
              "duration": 0.22083333333333333
            },
            {
              "pitch": 83,
              "velocity": 34,
              "position": 16.020833333333332,
              "duration": 0.24166666666666667
            },
            {
              "pitch": 106,
              "velocity": 78,
              "position": 16,
              "duration": 0.2625
            },
            {
              "pitch": 79,
              "velocity": 34,
              "position": 16,
              "duration": 0.2833333333333333
            },
            {
              "pitch": 88,
              "velocity": 34,
              "position": 16.041666666666668,
              "duration": 0.45
            },
            {
              "pitch": 105,
              "velocity": 78,
              "position": 16.270833333333332,
              "duration": 0.22083333333333333
            },
            {
              "pitch": 88,
              "velocity": 34,
              "position": 16.5,
              "duration": 0.2625
            },
            {
              "pitch": 107,
              "velocity": 78,
              "position": 16.5,
              "duration": 0.2625
            },
            {
              "pitch": 83,
              "velocity": 26,
              "position": 16.270833333333332,
              "duration": 0.5125
            },
            {
              "pitch": 79,
              "velocity": 26,
              "position": 16.291666666666668,
              "duration": 0.5125
            },
            {
              "pitch": 88,
              "velocity": 42,
              "position": 16.770833333333332,
              "duration": 0.20416666666666666
            },
            {
              "pitch": 108,
              "velocity": 78,
              "position": 16.770833333333332,
              "duration": 0.22083333333333333
            },
            {
              "pitch": 83,
              "velocity": 42,
              "position": 16.791666666666668,
              "duration": 0.20416666666666666
            },
            {
              "pitch": 79,
              "velocity": 42,
              "position": 16.8125,
              "duration": 0.20416666666666666
            },
            {
              "pitch": 104,
              "velocity": 78,
              "position": 17,
              "duration": 0.2625
            },
            {
              "pitch": 88,
              "velocity": 42,
              "position": 17.270833333333332,
              "duration": 0.20416666666666666
            },
            {
              "pitch": 106,
              "velocity": 78,
              "position": 17.270833333333332,
              "duration": 0.22083333333333333
            },
            {
              "pitch": 83,
              "velocity": 42,
              "position": 17.291666666666668,
              "duration": 0.20416666666666666
            },
            {
              "pitch": 79,
              "velocity": 42,
              "position": 17.3125,
              "duration": 0.20416666666666666
            },
            {
              "pitch": 104,
              "velocity": 78,
              "position": 17.5,
              "duration": 0.2625
            },
            {
              "pitch": 103,
              "velocity": 78,
              "position": 17.770833333333332,
              "duration": 0.22083333333333333
            },
            {
              "pitch": 79,
              "velocity": 42,
              "position": 18,
              "duration": 0.23333333333333334
            },
            {
              "pitch": 83,
              "velocity": 42,
              "position": 18.020833333333332,
              "duration": 0.23333333333333334
            },
            {
              "pitch": 106,
              "velocity": 78,
              "position": 18,
              "duration": 0.2625
            },
            {
              "pitch": 88,
              "velocity": 42,
              "position": 18.041666666666668,
              "duration": 0.23333333333333334
            },
            {
              "pitch": 123,
              "velocity": 10,
              "position": 18.270833333333332,
              "duration": 0.22083333333333333
            },
            {
              "pitch": 79,
              "velocity": 42,
              "position": 18.5,
              "duration": 0.23333333333333334
            },
            {
              "pitch": 83,
              "velocity": 42,
              "position": 18.520833333333332,
              "duration": 0.23333333333333334
            },
            {
              "pitch": 88,
              "velocity": 42,
              "position": 18.541666666666668,
              "duration": 0.23333333333333334
            },
            {
              "pitch": 108,
              "velocity": 78,
              "position": 18.5,
              "duration": 0.49166666666666664
            },
            {
              "pitch": 106,
              "velocity": 78,
              "position": 19,
              "duration": 0.2625
            },
            {
              "pitch": 105,
              "velocity": 78,
              "position": 19.270833333333332,
              "duration": 0.22083333333333333
            },
            {
              "pitch": 104,
              "velocity": 78,
              "position": 19.5,
              "duration": 0.2625
            },
            {
              "pitch": 103,
              "velocity": 78,
              "position": 19.770833333333332,
              "duration": 0.22083333333333333
            },
            {
              "pitch": 83,
              "velocity": 34,
              "position": 20.020833333333332,
              "duration": 0.24166666666666667
            },
            {
              "pitch": 106,
              "velocity": 78,
              "position": 20,
              "duration": 0.2625
            },
            {
              "pitch": 79,
              "velocity": 34,
              "position": 20,
              "duration": 0.2833333333333333
            },
            {
              "pitch": 88,
              "velocity": 34,
              "position": 20.041666666666668,
              "duration": 0.45
            },
            {
              "pitch": 105,
              "velocity": 78,
              "position": 20.270833333333332,
              "duration": 0.22083333333333333
            },
            {
              "pitch": 88,
              "velocity": 34,
              "position": 20.5,
              "duration": 0.2625
            },
            {
              "pitch": 107,
              "velocity": 78,
              "position": 20.5,
              "duration": 0.2625
            },
            {
              "pitch": 83,
              "velocity": 26,
              "position": 20.270833333333332,
              "duration": 0.5125
            },
            {
              "pitch": 79,
              "velocity": 26,
              "position": 20.291666666666668,
              "duration": 0.5125
            },
            {
              "pitch": 88,
              "velocity": 42,
              "position": 20.770833333333332,
              "duration": 0.20416666666666666
            },
            {
              "pitch": 108,
              "velocity": 78,
              "position": 20.770833333333332,
              "duration": 0.22083333333333333
            },
            {
              "pitch": 83,
              "velocity": 42,
              "position": 20.791666666666668,
              "duration": 0.20416666666666666
            },
            {
              "pitch": 79,
              "velocity": 42,
              "position": 20.8125,
              "duration": 0.20416666666666666
            },
            {
              "pitch": 104,
              "velocity": 78,
              "position": 21,
              "duration": 0.2625
            },
            {
              "pitch": 88,
              "velocity": 42,
              "position": 21.270833333333332,
              "duration": 0.20416666666666666
            },
            {
              "pitch": 106,
              "velocity": 78,
              "position": 21.270833333333332,
              "duration": 0.22083333333333333
            },
            {
              "pitch": 83,
              "velocity": 42,
              "position": 21.291666666666668,
              "duration": 0.20416666666666666
            },
            {
              "pitch": 79,
              "velocity": 42,
              "position": 21.3125,
              "duration": 0.20416666666666666
            },
            {
              "pitch": 104,
              "velocity": 78,
              "position": 21.5,
              "duration": 0.2625
            },
            {
              "pitch": 103,
              "velocity": 78,
              "position": 21.770833333333332,
              "duration": 0.22083333333333333
            },
            {
              "pitch": 79,
              "velocity": 42,
              "position": 22,
              "duration": 0.23333333333333334
            },
            {
              "pitch": 83,
              "velocity": 42,
              "position": 22.020833333333332,
              "duration": 0.23333333333333334
            },
            {
              "pitch": 106,
              "velocity": 78,
              "position": 22,
              "duration": 0.2625
            },
            {
              "pitch": 88,
              "velocity": 42,
              "position": 22.041666666666668,
              "duration": 0.23333333333333334
            },
            {
              "pitch": 124,
              "velocity": 10,
              "position": 22.270833333333332,
              "duration": 0.22083333333333333
            },
            {
              "pitch": 79,
              "velocity": 34,
              "position": 22.5,
              "duration": 0.23333333333333334
            },
            {
              "pitch": 83,
              "velocity": 34,
              "position": 22.520833333333332,
              "duration": 0.23333333333333334
            },
            {
              "pitch": 108,
              "velocity": 78,
              "position": 22.5,
              "duration": 0.2625
            },
            {
              "pitch": 88,
              "velocity": 34,
              "position": 22.541666666666668,
              "duration": 0.23333333333333334
            },
            {
              "pitch": 122,
              "velocity": 10,
              "position": 22.770833333333332,
              "duration": 0.22083333333333333
            },
            {
              "pitch": 79,
              "velocity": 42,
              "position": 23,
              "duration": 0.23333333333333334
            },
            {
              "pitch": 83,
              "velocity": 42,
              "position": 23.020833333333332,
              "duration": 0.23333333333333334
            },
            {
              "pitch": 106,
              "velocity": 78,
              "position": 23,
              "duration": 0.2625
            },
            {
              "pitch": 88,
              "velocity": 42,
              "position": 23.041666666666668,
              "duration": 0.23333333333333334
            },
            {
              "pitch": 105,
              "velocity": 78,
              "position": 23.270833333333332,
              "duration": 0.22083333333333333
            },
            {
              "pitch": 104,
              "velocity": 78,
              "position": 23.5,
              "duration": 0.2625
            },
            {
              "pitch": 103,
              "velocity": 78,
              "position": 23.770833333333332,
              "duration": 0.22083333333333333
            },
            {
              "pitch": 83,
              "velocity": 34,
              "position": 24.020833333333332,
              "duration": 0.24166666666666667
            },
            {
              "pitch": 106,
              "velocity": 78,
              "position": 24,
              "duration": 0.2625
            },
            {
              "pitch": 79,
              "velocity": 34,
              "position": 24,
              "duration": 0.2833333333333333
            },
            {
              "pitch": 88,
              "velocity": 34,
              "position": 24.041666666666668,
              "duration": 0.45
            },
            {
              "pitch": 105,
              "velocity": 78,
              "position": 24.270833333333332,
              "duration": 0.22083333333333333
            },
            {
              "pitch": 88,
              "velocity": 34,
              "position": 24.5,
              "duration": 0.2625
            },
            {
              "pitch": 107,
              "velocity": 78,
              "position": 24.5,
              "duration": 0.2625
            },
            {
              "pitch": 83,
              "velocity": 26,
              "position": 24.270833333333332,
              "duration": 0.5125
            },
            {
              "pitch": 79,
              "velocity": 26,
              "position": 24.291666666666668,
              "duration": 0.5125
            },
            {
              "pitch": 88,
              "velocity": 42,
              "position": 24.770833333333332,
              "duration": 0.20416666666666666
            },
            {
              "pitch": 108,
              "velocity": 78,
              "position": 24.770833333333332,
              "duration": 0.22083333333333333
            },
            {
              "pitch": 83,
              "velocity": 42,
              "position": 24.791666666666668,
              "duration": 0.20416666666666666
            },
            {
              "pitch": 79,
              "velocity": 42,
              "position": 24.8125,
              "duration": 0.20416666666666666
            },
            {
              "pitch": 104,
              "velocity": 78,
              "position": 25,
              "duration": 0.2625
            },
            {
              "pitch": 88,
              "velocity": 42,
              "position": 25.270833333333332,
              "duration": 0.20416666666666666
            },
            {
              "pitch": 106,
              "velocity": 78,
              "position": 25.270833333333332,
              "duration": 0.22083333333333333
            },
            {
              "pitch": 83,
              "velocity": 42,
              "position": 25.291666666666668,
              "duration": 0.20416666666666666
            },
            {
              "pitch": 79,
              "velocity": 42,
              "position": 25.3125,
              "duration": 0.20416666666666666
            },
            {
              "pitch": 104,
              "velocity": 78,
              "position": 25.5,
              "duration": 0.2625
            },
            {
              "pitch": 103,
              "velocity": 78,
              "position": 25.770833333333332,
              "duration": 0.22083333333333333
            },
            {
              "pitch": 79,
              "velocity": 42,
              "position": 26,
              "duration": 0.23333333333333334
            },
            {
              "pitch": 83,
              "velocity": 42,
              "position": 26.020833333333332,
              "duration": 0.23333333333333334
            },
            {
              "pitch": 106,
              "velocity": 78,
              "position": 26,
              "duration": 0.2625
            },
            {
              "pitch": 88,
              "velocity": 42,
              "position": 26.041666666666668,
              "duration": 0.23333333333333334
            },
            {
              "pitch": 123,
              "velocity": 10,
              "position": 26.270833333333332,
              "duration": 0.22083333333333333
            },
            {
              "pitch": 79,
              "velocity": 42,
              "position": 26.5,
              "duration": 0.23333333333333334
            },
            {
              "pitch": 83,
              "velocity": 42,
              "position": 26.520833333333332,
              "duration": 0.23333333333333334
            },
            {
              "pitch": 88,
              "velocity": 42,
              "position": 26.541666666666668,
              "duration": 0.23333333333333334
            },
            {
              "pitch": 108,
              "velocity": 78,
              "position": 26.5,
              "duration": 0.49166666666666664
            },
            {
              "pitch": 106,
              "velocity": 78,
              "position": 27,
              "duration": 0.2625
            },
            {
              "pitch": 105,
              "velocity": 78,
              "position": 27.270833333333332,
              "duration": 0.22083333333333333
            },
            {
              "pitch": 104,
              "velocity": 78,
              "position": 27.5,
              "duration": 0.2625
            },
            {
              "pitch": 103,
              "velocity": 78,
              "position": 27.770833333333332,
              "duration": 0.22083333333333333
            },
            {
              "pitch": 83,
              "velocity": 34,
              "position": 28.020833333333332,
              "duration": 0.24166666666666667
            },
            {
              "pitch": 106,
              "velocity": 78,
              "position": 28,
              "duration": 0.2625
            },
            {
              "pitch": 79,
              "velocity": 34,
              "position": 28,
              "duration": 0.2833333333333333
            },
            {
              "pitch": 88,
              "velocity": 34,
              "position": 28.041666666666668,
              "duration": 0.45
            },
            {
              "pitch": 105,
              "velocity": 78,
              "position": 28.270833333333332,
              "duration": 0.22083333333333333
            },
            {
              "pitch": 88,
              "velocity": 34,
              "position": 28.5,
              "duration": 0.2625
            },
            {
              "pitch": 107,
              "velocity": 78,
              "position": 28.5,
              "duration": 0.2625
            },
            {
              "pitch": 83,
              "velocity": 26,
              "position": 28.270833333333332,
              "duration": 0.5125
            },
            {
              "pitch": 79,
              "velocity": 26,
              "position": 28.291666666666668,
              "duration": 0.5125
            },
            {
              "pitch": 88,
              "velocity": 42,
              "position": 28.770833333333332,
              "duration": 0.20416666666666666
            },
            {
              "pitch": 108,
              "velocity": 78,
              "position": 28.770833333333332,
              "duration": 0.22083333333333333
            },
            {
              "pitch": 83,
              "velocity": 42,
              "position": 28.791666666666668,
              "duration": 0.20416666666666666
            },
            {
              "pitch": 79,
              "velocity": 42,
              "position": 28.8125,
              "duration": 0.20416666666666666
            },
            {
              "pitch": 104,
              "velocity": 78,
              "position": 29,
              "duration": 0.2625
            },
            {
              "pitch": 88,
              "velocity": 42,
              "position": 29.270833333333332,
              "duration": 0.20416666666666666
            },
            {
              "pitch": 106,
              "velocity": 78,
              "position": 29.270833333333332,
              "duration": 0.22083333333333333
            },
            {
              "pitch": 83,
              "velocity": 42,
              "position": 29.291666666666668,
              "duration": 0.20416666666666666
            },
            {
              "pitch": 79,
              "velocity": 42,
              "position": 29.3125,
              "duration": 0.20416666666666666
            },
            {
              "pitch": 104,
              "velocity": 78,
              "position": 29.5,
              "duration": 0.2625
            },
            {
              "pitch": 103,
              "velocity": 78,
              "position": 29.770833333333332,
              "duration": 0.22083333333333333
            },
            {
              "pitch": 79,
              "velocity": 42,
              "position": 30,
              "duration": 0.23333333333333334
            },
            {
              "pitch": 83,
              "velocity": 42,
              "position": 30.020833333333332,
              "duration": 0.23333333333333334
            },
            {
              "pitch": 106,
              "velocity": 78,
              "position": 30,
              "duration": 0.2625
            },
            {
              "pitch": 88,
              "velocity": 42,
              "position": 30.041666666666668,
              "duration": 0.23333333333333334
            },
            {
              "pitch": 124,
              "velocity": 10,
              "position": 30.270833333333332,
              "duration": 0.22083333333333333
            },
            {
              "pitch": 79,
              "velocity": 34,
              "position": 30.5,
              "duration": 0.23333333333333334
            },
            {
              "pitch": 83,
              "velocity": 34,
              "position": 30.520833333333332,
              "duration": 0.23333333333333334
            },
            {
              "pitch": 108,
              "velocity": 78,
              "position": 30.5,
              "duration": 0.2625
            },
            {
              "pitch": 88,
              "velocity": 34,
              "position": 30.541666666666668,
              "duration": 0.23333333333333334
            },
            {
              "pitch": 122,
              "velocity": 10,
              "position": 30.770833333333332,
              "duration": 0.22083333333333333
            },
            {
              "pitch": 79,
              "velocity": 42,
              "position": 31,
              "duration": 0.23333333333333334
            },
            {
              "pitch": 83,
              "velocity": 42,
              "position": 31.020833333333332,
              "duration": 0.23333333333333334
            },
            {
              "pitch": 106,
              "velocity": 78,
              "position": 31,
              "duration": 0.2625
            },
            {
              "pitch": 88,
              "velocity": 42,
              "position": 31.041666666666668,
              "duration": 0.23333333333333334
            },
            {
              "pitch": 105,
              "velocity": 78,
              "position": 31.270833333333332,
              "duration": 0.22083333333333333
            },
            {
              "pitch": 104,
              "velocity": 78,
              "position": 31.5,
              "duration": 0.2625
            },
            {
              "pitch": 103,
              "velocity": 78,
              "position": 31.770833333333332,
              "duration": 0.22083333333333333
            }
          ]
        },
        "4": {
          "ctab": {
            "srcChannel": 4,
            "name": "Brs a",
            "accType": "PHRASE1",
            "editable": false,
            "mutedNotes": [],
            "mutedChords": [
              "dim7",
              "minMaj7(9)",
              "minMaj7",
              "min6",
              "Maj6(9)",
              "Maj7(9)",
              "Maj(9)",
              "Maj7#11",
              "Maj7",
              "Maj6"
            ],
            "autoStart": false,
            "sourceChordNote": 0,
            "sourceChordType": "7th",
            "ctb2Low": null,
            "ctb2Main": {
              "ntr": "ROOT_TRANSPOSITION",
              "ntt": "MELODIC_MINOR_5",
              "bassOn": false,
              "chordRootUpperLimit": 5,
              "noteLowLimit": 34,
              "noteHighLimit": 127,
              "rtr": "PITCH_SHIFT"
            },
            "ctb2High": null
          },
          "notes": [
            {
              "pitch": 53,
              "velocity": 82,
              "position": 7,
              "duration": 0.29583333333333334
            },
            {
              "pitch": 65,
              "velocity": 82,
              "position": 7.03125,
              "duration": 0.26458333333333334
            },
            {
              "pitch": 77,
              "velocity": 82,
              "position": 7.03125,
              "duration": 0.2708333333333333
            },
            {
              "pitch": 55,
              "velocity": 82,
              "position": 7.252083333333333,
              "duration": 0.27708333333333335
            },
            {
              "pitch": 79,
              "velocity": 82,
              "position": 7.258333333333334,
              "duration": 0.27708333333333335
            },
            {
              "pitch": 67,
              "velocity": 82,
              "position": 7.252083333333333,
              "duration": 0.2916666666666667
            },
            {
              "pitch": 58,
              "velocity": 82,
              "position": 7.485416666666667,
              "duration": 0.3125
            },
            {
              "pitch": 70,
              "velocity": 82,
              "position": 7.5,
              "duration": 0.3
            },
            {
              "pitch": 82,
              "velocity": 82,
              "position": 7.491666666666666,
              "duration": 0.3104166666666667
            },
            {
              "pitch": 67,
              "velocity": 82,
              "position": 7.75625,
              "duration": 0.2875
            },
            {
              "pitch": 79,
              "velocity": 82,
              "position": 7.758333333333334,
              "duration": 0.29583333333333334
            },
            {
              "pitch": 55,
              "velocity": 82,
              "position": 7.754166666666666,
              "duration": 0.32708333333333334
            },
            {
              "pitch": 60,
              "velocity": 85,
              "position": 14,
              "duration": 0.41041666666666665
            },
            {
              "pitch": 84,
              "velocity": 85,
              "position": 14.010416666666666,
              "duration": 0.4354166666666667
            },
            {
              "pitch": 72,
              "velocity": 85,
              "position": 14.025,
              "duration": 0.43333333333333335
            },
            {
              "pitch": 60,
              "velocity": 85,
              "position": 15,
              "duration": 0.43333333333333335
            },
            {
              "pitch": 84,
              "velocity": 85,
              "position": 15.014583333333333,
              "duration": 0.4354166666666667
            },
            {
              "pitch": 72,
              "velocity": 85,
              "position": 15.027083333333334,
              "duration": 0.43125
            },
            {
              "pitch": 48,
              "velocity": 85,
              "position": 16.01875,
              "duration": 0.3645833333333333
            },
            {
              "pitch": 72,
              "velocity": 85,
              "position": 16,
              "duration": 0.47291666666666665
            },
            {
              "pitch": 53,
              "velocity": 82,
              "position": 23,
              "duration": 0.29583333333333334
            },
            {
              "pitch": 65,
              "velocity": 82,
              "position": 23.03125,
              "duration": 0.26458333333333334
            },
            {
              "pitch": 77,
              "velocity": 82,
              "position": 23.03125,
              "duration": 0.2708333333333333
            },
            {
              "pitch": 55,
              "velocity": 82,
              "position": 23.252083333333335,
              "duration": 0.27708333333333335
            },
            {
              "pitch": 79,
              "velocity": 82,
              "position": 23.258333333333333,
              "duration": 0.27708333333333335
            },
            {
              "pitch": 67,
              "velocity": 82,
              "position": 23.252083333333335,
              "duration": 0.2916666666666667
            },
            {
              "pitch": 58,
              "velocity": 82,
              "position": 23.485416666666666,
              "duration": 0.3125
            },
            {
              "pitch": 70,
              "velocity": 82,
              "position": 23.5,
              "duration": 0.3
            },
            {
              "pitch": 82,
              "velocity": 82,
              "position": 23.491666666666667,
              "duration": 0.3104166666666667
            },
            {
              "pitch": 67,
              "velocity": 82,
              "position": 23.75625,
              "duration": 0.2875
            },
            {
              "pitch": 79,
              "velocity": 82,
              "position": 23.758333333333333,
              "duration": 0.29583333333333334
            },
            {
              "pitch": 55,
              "velocity": 82,
              "position": 23.754166666666666,
              "duration": 0.32708333333333334
            },
            {
              "pitch": 74,
              "velocity": 82,
              "position": 30,
              "duration": 0.22708333333333333
            },
            {
              "pitch": 75,
              "velocity": 82,
              "position": 30.091666666666665,
              "duration": 0.3854166666666667
            },
            {
              "pitch": 63,
              "velocity": 82,
              "position": 30.010416666666668,
              "duration": 0.4791666666666667
            },
            {
              "pitch": 64,
              "velocity": 82,
              "position": 30.35,
              "duration": 0.20208333333333334
            },
            {
              "pitch": 84,
              "velocity": 82,
              "position": 31,
              "duration": 0.4583333333333333
            },
            {
              "pitch": 72,
              "velocity": 82,
              "position": 31,
              "duration": 0.46875
            },
            {
              "pitch": 60,
              "velocity": 82,
              "position": 31.008333333333333,
              "duration": 0.48125
            }
          ]
        },
        "5": {
          "ctab": {
            "srcChannel": 5,
            "name": "Brs b",
            "accType": "PHRASE1",
            "editable": false,
            "mutedNotes": [],
            "mutedChords": [
              "1+2+5",
              "sus4",
              "1+5",
              "1+8",
              "7aug",
              "Maj7aug",
              "7(#9)",
              "7(b13)",
              "7(b9)",
              "7(13)",
              "7#11",
              "7(9)",
              "7b5",
              "7sus4",
              "7th",
              "dim",
              "min7(11)",
              "min7(9)",
              "min(9)",
              "m7b5",
              "min7",
              "min",
              "aug",
              "Maj"
            ],
            "autoStart": false,
            "sourceChordNote": 0,
            "sourceChordType": "Maj7",
            "ctb2Low": null,
            "ctb2Main": {
              "ntr": "ROOT_TRANSPOSITION",
              "ntt": "MELODIC_MINOR_5",
              "bassOn": false,
              "chordRootUpperLimit": 5,
              "noteLowLimit": 34,
              "noteHighLimit": 127,
              "rtr": "PITCH_SHIFT"
            },
            "ctb2High": null
          },
          "notes": [
            {
              "pitch": 52,
              "velocity": 82,
              "position": 7,
              "duration": 0.29583333333333334
            },
            {
              "pitch": 64,
              "velocity": 82,
              "position": 7.03125,
              "duration": 0.26458333333333334
            },
            {
              "pitch": 76,
              "velocity": 82,
              "position": 7.03125,
              "duration": 0.2708333333333333
            },
            {
              "pitch": 55,
              "velocity": 82,
              "position": 7.252083333333333,
              "duration": 0.27708333333333335
            },
            {
              "pitch": 79,
              "velocity": 82,
              "position": 7.258333333333334,
              "duration": 0.27708333333333335
            },
            {
              "pitch": 67,
              "velocity": 82,
              "position": 7.252083333333333,
              "duration": 0.2916666666666667
            },
            {
              "pitch": 57,
              "velocity": 85,
              "position": 7.485416666666667,
              "duration": 0.3125
            },
            {
              "pitch": 69,
              "velocity": 85,
              "position": 7.5,
              "duration": 0.3
            },
            {
              "pitch": 81,
              "velocity": 85,
              "position": 7.491666666666666,
              "duration": 0.3104166666666667
            },
            {
              "pitch": 67,
              "velocity": 82,
              "position": 7.75625,
              "duration": 0.2875
            },
            {
              "pitch": 79,
              "velocity": 82,
              "position": 7.758333333333334,
              "duration": 0.29583333333333334
            },
            {
              "pitch": 55,
              "velocity": 85,
              "position": 7.754166666666666,
              "duration": 0.32708333333333334
            },
            {
              "pitch": 60,
              "velocity": 82,
              "position": 14,
              "duration": 0.41041666666666665
            },
            {
              "pitch": 72,
              "velocity": 82,
              "position": 14.025,
              "duration": 0.43333333333333335
            },
            {
              "pitch": 60,
              "velocity": 82,
              "position": 15,
              "duration": 0.43333333333333335
            },
            {
              "pitch": 84,
              "velocity": 82,
              "position": 15.014583333333333,
              "duration": 0.4354166666666667
            },
            {
              "pitch": 72,
              "velocity": 82,
              "position": 15.027083333333334,
              "duration": 0.43125
            },
            {
              "pitch": 72,
              "velocity": 87,
              "position": 16,
              "duration": 0.47291666666666665
            },
            {
              "pitch": 60,
              "velocity": 84,
              "position": 16.016666666666666,
              "duration": 0.5
            },
            {
              "pitch": 48,
              "velocity": 84,
              "position": 16.01875,
              "duration": 0.5
            },
            {
              "pitch": 52,
              "velocity": 82,
              "position": 23,
              "duration": 0.29583333333333334
            },
            {
              "pitch": 64,
              "velocity": 82,
              "position": 23.03125,
              "duration": 0.26458333333333334
            },
            {
              "pitch": 76,
              "velocity": 82,
              "position": 23.03125,
              "duration": 0.2708333333333333
            },
            {
              "pitch": 55,
              "velocity": 82,
              "position": 23.252083333333335,
              "duration": 0.27708333333333335
            },
            {
              "pitch": 79,
              "velocity": 82,
              "position": 23.258333333333333,
              "duration": 0.27708333333333335
            },
            {
              "pitch": 67,
              "velocity": 82,
              "position": 23.252083333333335,
              "duration": 0.2916666666666667
            },
            {
              "pitch": 57,
              "velocity": 82,
              "position": 23.485416666666666,
              "duration": 0.3125
            },
            {
              "pitch": 69,
              "velocity": 82,
              "position": 23.5,
              "duration": 0.3
            },
            {
              "pitch": 81,
              "velocity": 82,
              "position": 23.491666666666667,
              "duration": 0.3104166666666667
            },
            {
              "pitch": 67,
              "velocity": 82,
              "position": 23.75625,
              "duration": 0.2875
            },
            {
              "pitch": 79,
              "velocity": 82,
              "position": 23.758333333333333,
              "duration": 0.29583333333333334
            },
            {
              "pitch": 55,
              "velocity": 82,
              "position": 23.754166666666666,
              "duration": 0.32708333333333334
            },
            {
              "pitch": 60,
              "velocity": 82,
              "position": 30,
              "duration": 0.41041666666666665
            },
            {
              "pitch": 72,
              "velocity": 82,
              "position": 30.025,
              "duration": 0.43333333333333335
            },
            {
              "pitch": 84,
              "velocity": 82,
              "position": 31,
              "duration": 0.4583333333333333
            },
            {
              "pitch": 72,
              "velocity": 82,
              "position": 31,
              "duration": 0.46875
            },
            {
              "pitch": 60,
              "velocity": 82,
              "position": 31.008333333333333,
              "duration": 0.48125
            }
          ]
        },
        "6": {
          "ctab": {
            "srcChannel": 6,
            "name": "Hns a",
            "accType": "PHRASE2",
            "editable": false,
            "mutedNotes": [],
            "mutedChords": [
              "dim7",
              "minMaj7(9)",
              "minMaj7",
              "min6",
              "Maj6(9)",
              "Maj7(9)",
              "Maj(9)",
              "Maj7#11",
              "Maj7",
              "Maj6"
            ],
            "autoStart": false,
            "sourceChordNote": 0,
            "sourceChordType": "7th",
            "ctb2Low": null,
            "ctb2Main": {
              "ntr": "ROOT_TRANSPOSITION",
              "ntt": "MELODIC_MINOR_5",
              "bassOn": false,
              "chordRootUpperLimit": 0,
              "noteLowLimit": 34,
              "noteHighLimit": 127,
              "rtr": "PITCH_SHIFT"
            },
            "ctb2High": null
          },
          "notes": [
            {
              "pitch": 48,
              "velocity": 123,
              "position": 0,
              "duration": 0.36041666666666666
            },
            {
              "pitch": 46,
              "velocity": 56,
              "position": 0.3333333333333333,
              "duration": 0.10833333333333334
            },
            {
              "pitch": 72,
              "velocity": 125,
              "position": 0.010416666666666666,
              "duration": 0.4479166666666667
            },
            {
              "pitch": 45,
              "velocity": 51,
              "position": 0.4166666666666667,
              "duration": 0.10833333333333334
            },
            {
              "pitch": 70,
              "velocity": 56,
              "position": 0.4375,
              "duration": 0.08958333333333333
            },
            {
              "pitch": 60,
              "velocity": 121,
              "position": 0.00625,
              "duration": 0.575
            },
            {
              "pitch": 69,
              "velocity": 51,
              "position": 0.5,
              "duration": 0.08958333333333333
            },
            {
              "pitch": 58,
              "velocity": 56,
              "position": 0.5416666666666666,
              "duration": 0.058333333333333334
            },
            {
              "pitch": 43,
              "velocity": 45,
              "position": 0.5,
              "duration": 0.10833333333333334
            },
            {
              "pitch": 57,
              "velocity": 51,
              "position": 0.5833333333333334,
              "duration": 0.058333333333333334
            },
            {
              "pitch": 67,
              "velocity": 45,
              "position": 0.5625,
              "duration": 0.08958333333333333
            },
            {
              "pitch": 55,
              "velocity": 45,
              "position": 0.625,
              "duration": 0.058333333333333334
            },
            {
              "pitch": 41,
              "velocity": 40,
              "position": 0.5833333333333334,
              "duration": 0.10833333333333334
            },
            {
              "pitch": 65,
              "velocity": 40,
              "position": 0.625,
              "duration": 0.08958333333333333
            },
            {
              "pitch": 53,
              "velocity": 40,
              "position": 0.6666666666666666,
              "duration": 0.058333333333333334
            },
            {
              "pitch": 52,
              "velocity": 35,
              "position": 0.7083333333333334,
              "duration": 0.058333333333333334
            },
            {
              "pitch": 40,
              "velocity": 35,
              "position": 0.6666666666666666,
              "duration": 0.10833333333333334
            },
            {
              "pitch": 64,
              "velocity": 35,
              "position": 0.6875,
              "duration": 0.08958333333333333
            },
            {
              "pitch": 50,
              "velocity": 30,
              "position": 0.75,
              "duration": 0.058333333333333334
            },
            {
              "pitch": 62,
              "velocity": 30,
              "position": 0.75,
              "duration": 0.08958333333333333
            },
            {
              "pitch": 38,
              "velocity": 30,
              "position": 0.75,
              "duration": 0.10833333333333334
            },
            {
              "pitch": 53,
              "velocity": 80,
              "position": 7,
              "duration": 0.2916666666666667
            },
            {
              "pitch": 65,
              "velocity": 80,
              "position": 7.03125,
              "duration": 0.2604166666666667
            },
            {
              "pitch": 77,
              "velocity": 80,
              "position": 7.03125,
              "duration": 0.26666666666666666
            },
            {
              "pitch": 55,
              "velocity": 35,
              "position": 7.252083333333333,
              "duration": 0.27291666666666664
            },
            {
              "pitch": 79,
              "velocity": 35,
              "position": 7.258333333333334,
              "duration": 0.27291666666666664
            },
            {
              "pitch": 67,
              "velocity": 36,
              "position": 7.252083333333333,
              "duration": 0.2875
            },
            {
              "pitch": 58,
              "velocity": 103,
              "position": 7.485416666666667,
              "duration": 0.30833333333333335
            },
            {
              "pitch": 70,
              "velocity": 102,
              "position": 7.5,
              "duration": 0.29583333333333334
            },
            {
              "pitch": 82,
              "velocity": 104,
              "position": 7.491666666666666,
              "duration": 0.30625
            },
            {
              "pitch": 67,
              "velocity": 59,
              "position": 7.75625,
              "duration": 0.2833333333333333
            },
            {
              "pitch": 79,
              "velocity": 61,
              "position": 7.758333333333334,
              "duration": 0.2916666666666667
            },
            {
              "pitch": 55,
              "velocity": 61,
              "position": 7.754166666666666,
              "duration": 0.3229166666666667
            },
            {
              "pitch": 60,
              "velocity": 123,
              "position": 8.0375,
              "duration": 0.35208333333333336
            },
            {
              "pitch": 58,
              "velocity": 56,
              "position": 8.333333333333334,
              "duration": 0.10833333333333334
            },
            {
              "pitch": 84,
              "velocity": 119,
              "position": 8.010416666666666,
              "duration": 0.46875
            },
            {
              "pitch": 57,
              "velocity": 51,
              "position": 8.416666666666666,
              "duration": 0.10833333333333334
            },
            {
              "pitch": 82,
              "velocity": 56,
              "position": 8.4375,
              "duration": 0.08958333333333333
            },
            {
              "pitch": 72,
              "velocity": 122,
              "position": 8,
              "duration": 0.575
            },
            {
              "pitch": 81,
              "velocity": 51,
              "position": 8.5,
              "duration": 0.08958333333333333
            },
            {
              "pitch": 70,
              "velocity": 56,
              "position": 8.541666666666666,
              "duration": 0.058333333333333334
            },
            {
              "pitch": 55,
              "velocity": 45,
              "position": 8.5,
              "duration": 0.10833333333333334
            },
            {
              "pitch": 69,
              "velocity": 51,
              "position": 8.583333333333334,
              "duration": 0.058333333333333334
            },
            {
              "pitch": 79,
              "velocity": 45,
              "position": 8.5625,
              "duration": 0.08958333333333333
            },
            {
              "pitch": 67,
              "velocity": 45,
              "position": 8.625,
              "duration": 0.058333333333333334
            },
            {
              "pitch": 53,
              "velocity": 40,
              "position": 8.583333333333334,
              "duration": 0.10833333333333334
            },
            {
              "pitch": 77,
              "velocity": 40,
              "position": 8.625,
              "duration": 0.08958333333333333
            },
            {
              "pitch": 65,
              "velocity": 40,
              "position": 8.666666666666666,
              "duration": 0.058333333333333334
            },
            {
              "pitch": 64,
              "velocity": 35,
              "position": 8.708333333333334,
              "duration": 0.058333333333333334
            },
            {
              "pitch": 52,
              "velocity": 35,
              "position": 8.666666666666666,
              "duration": 0.10833333333333334
            },
            {
              "pitch": 76,
              "velocity": 35,
              "position": 8.6875,
              "duration": 0.08958333333333333
            },
            {
              "pitch": 62,
              "velocity": 30,
              "position": 8.75,
              "duration": 0.058333333333333334
            },
            {
              "pitch": 74,
              "velocity": 30,
              "position": 8.75,
              "duration": 0.08958333333333333
            },
            {
              "pitch": 50,
              "velocity": 30,
              "position": 8.75,
              "duration": 0.10833333333333334
            },
            {
              "pitch": 60,
              "velocity": 120,
              "position": 14,
              "duration": 0.41041666666666665
            },
            {
              "pitch": 84,
              "velocity": 125,
              "position": 14.010416666666666,
              "duration": 0.4354166666666667
            },
            {
              "pitch": 72,
              "velocity": 119,
              "position": 14.025,
              "duration": 0.43333333333333335
            },
            {
              "pitch": 60,
              "velocity": 126,
              "position": 15,
              "duration": 0.43333333333333335
            },
            {
              "pitch": 84,
              "velocity": 127,
              "position": 15.014583333333333,
              "duration": 0.4354166666666667
            },
            {
              "pitch": 72,
              "velocity": 122,
              "position": 15.027083333333334,
              "duration": 0.43125
            },
            {
              "pitch": 48,
              "velocity": 125,
              "position": 16.01875,
              "duration": 0.3645833333333333
            },
            {
              "pitch": 46,
              "velocity": 56,
              "position": 16.333333333333332,
              "duration": 0.10833333333333334
            },
            {
              "pitch": 72,
              "velocity": 127,
              "position": 16,
              "duration": 0.47291666666666665
            },
            {
              "pitch": 45,
              "velocity": 51,
              "position": 16.416666666666668,
              "duration": 0.10833333333333334
            },
            {
              "pitch": 70,
              "velocity": 56,
              "position": 16.4375,
              "duration": 0.08958333333333333
            },
            {
              "pitch": 60,
              "velocity": 126,
              "position": 16.016666666666666,
              "duration": 0.5729166666666666
            },
            {
              "pitch": 69,
              "velocity": 51,
              "position": 16.5,
              "duration": 0.08958333333333333
            },
            {
              "pitch": 58,
              "velocity": 56,
              "position": 16.541666666666668,
              "duration": 0.058333333333333334
            },
            {
              "pitch": 43,
              "velocity": 45,
              "position": 16.5,
              "duration": 0.10833333333333334
            },
            {
              "pitch": 57,
              "velocity": 51,
              "position": 16.583333333333332,
              "duration": 0.058333333333333334
            },
            {
              "pitch": 67,
              "velocity": 45,
              "position": 16.5625,
              "duration": 0.08958333333333333
            },
            {
              "pitch": 55,
              "velocity": 45,
              "position": 16.625,
              "duration": 0.058333333333333334
            },
            {
              "pitch": 41,
              "velocity": 40,
              "position": 16.583333333333332,
              "duration": 0.10833333333333334
            },
            {
              "pitch": 65,
              "velocity": 40,
              "position": 16.625,
              "duration": 0.08958333333333333
            },
            {
              "pitch": 53,
              "velocity": 40,
              "position": 16.666666666666668,
              "duration": 0.058333333333333334
            },
            {
              "pitch": 52,
              "velocity": 35,
              "position": 16.708333333333332,
              "duration": 0.058333333333333334
            },
            {
              "pitch": 40,
              "velocity": 35,
              "position": 16.666666666666668,
              "duration": 0.10833333333333334
            },
            {
              "pitch": 64,
              "velocity": 35,
              "position": 16.6875,
              "duration": 0.08958333333333333
            },
            {
              "pitch": 50,
              "velocity": 30,
              "position": 16.75,
              "duration": 0.058333333333333334
            },
            {
              "pitch": 62,
              "velocity": 30,
              "position": 16.75,
              "duration": 0.08958333333333333
            },
            {
              "pitch": 38,
              "velocity": 30,
              "position": 16.75,
              "duration": 0.10833333333333334
            },
            {
              "pitch": 53,
              "velocity": 80,
              "position": 23,
              "duration": 0.2916666666666667
            },
            {
              "pitch": 65,
              "velocity": 80,
              "position": 23.03125,
              "duration": 0.2604166666666667
            },
            {
              "pitch": 77,
              "velocity": 80,
              "position": 23.03125,
              "duration": 0.26666666666666666
            },
            {
              "pitch": 55,
              "velocity": 35,
              "position": 23.252083333333335,
              "duration": 0.27291666666666664
            },
            {
              "pitch": 79,
              "velocity": 35,
              "position": 23.258333333333333,
              "duration": 0.27291666666666664
            },
            {
              "pitch": 67,
              "velocity": 36,
              "position": 23.252083333333335,
              "duration": 0.2875
            },
            {
              "pitch": 58,
              "velocity": 103,
              "position": 23.485416666666666,
              "duration": 0.30833333333333335
            },
            {
              "pitch": 70,
              "velocity": 102,
              "position": 23.5,
              "duration": 0.29583333333333334
            },
            {
              "pitch": 82,
              "velocity": 104,
              "position": 23.491666666666667,
              "duration": 0.30625
            },
            {
              "pitch": 79,
              "velocity": 61,
              "position": 23.758333333333333,
              "duration": 0.24166666666666667
            },
            {
              "pitch": 67,
              "velocity": 59,
              "position": 23.75625,
              "duration": 0.2833333333333333
            },
            {
              "pitch": 55,
              "velocity": 61,
              "position": 23.754166666666666,
              "duration": 0.3229166666666667
            },
            {
              "pitch": 60,
              "velocity": 123,
              "position": 24,
              "duration": 0.35
            },
            {
              "pitch": 58,
              "velocity": 56,
              "position": 24.333333333333332,
              "duration": 0.10833333333333334
            },
            {
              "pitch": 84,
              "velocity": 122,
              "position": 24.035416666666666,
              "duration": 0.4583333333333333
            },
            {
              "pitch": 57,
              "velocity": 51,
              "position": 24.416666666666668,
              "duration": 0.10833333333333334
            },
            {
              "pitch": 82,
              "velocity": 56,
              "position": 24.4375,
              "duration": 0.08958333333333333
            },
            {
              "pitch": 72,
              "velocity": 126,
              "position": 24.014583333333334,
              "duration": 0.5479166666666667
            },
            {
              "pitch": 81,
              "velocity": 51,
              "position": 24.5,
              "duration": 0.08958333333333333
            },
            {
              "pitch": 70,
              "velocity": 56,
              "position": 24.541666666666668,
              "duration": 0.058333333333333334
            },
            {
              "pitch": 55,
              "velocity": 45,
              "position": 24.5,
              "duration": 0.10833333333333334
            },
            {
              "pitch": 69,
              "velocity": 51,
              "position": 24.583333333333332,
              "duration": 0.058333333333333334
            },
            {
              "pitch": 79,
              "velocity": 45,
              "position": 24.5625,
              "duration": 0.08958333333333333
            },
            {
              "pitch": 67,
              "velocity": 45,
              "position": 24.625,
              "duration": 0.058333333333333334
            },
            {
              "pitch": 53,
              "velocity": 40,
              "position": 24.583333333333332,
              "duration": 0.10833333333333334
            },
            {
              "pitch": 77,
              "velocity": 40,
              "position": 24.625,
              "duration": 0.08958333333333333
            },
            {
              "pitch": 65,
              "velocity": 40,
              "position": 24.666666666666668,
              "duration": 0.058333333333333334
            },
            {
              "pitch": 64,
              "velocity": 35,
              "position": 24.708333333333332,
              "duration": 0.058333333333333334
            },
            {
              "pitch": 52,
              "velocity": 35,
              "position": 24.666666666666668,
              "duration": 0.10833333333333334
            },
            {
              "pitch": 76,
              "velocity": 35,
              "position": 24.6875,
              "duration": 0.08958333333333333
            },
            {
              "pitch": 62,
              "velocity": 30,
              "position": 24.75,
              "duration": 0.058333333333333334
            },
            {
              "pitch": 74,
              "velocity": 30,
              "position": 24.75,
              "duration": 0.08958333333333333
            },
            {
              "pitch": 50,
              "velocity": 30,
              "position": 24.75,
              "duration": 0.10833333333333334
            },
            {
              "pitch": 74,
              "velocity": 51,
              "position": 30,
              "duration": 0.22708333333333333
            },
            {
              "pitch": 75,
              "velocity": 127,
              "position": 30.091666666666665,
              "duration": 0.3854166666666667
            },
            {
              "pitch": 87,
              "velocity": 123,
              "position": 30,
              "duration": 0.48125
            },
            {
              "pitch": 63,
              "velocity": 127,
              "position": 30.010416666666668,
              "duration": 0.4791666666666667
            },
            {
              "pitch": 64,
              "velocity": 51,
              "position": 30.35,
              "duration": 0.20208333333333334
            },
            {
              "pitch": 84,
              "velocity": 123,
              "position": 31,
              "duration": 0.4583333333333333
            },
            {
              "pitch": 72,
              "velocity": 127,
              "position": 31,
              "duration": 0.46875
            },
            {
              "pitch": 60,
              "velocity": 127,
              "position": 31.008333333333333,
              "duration": 0.48125
            }
          ]
        },
        "7": {
          "ctab": {
            "srcChannel": 7,
            "name": "Hns b",
            "accType": "PHRASE2",
            "editable": false,
            "mutedNotes": [],
            "mutedChords": [
              "1+2+5",
              "sus4",
              "1+5",
              "1+8",
              "7aug",
              "Maj7aug",
              "7(#9)",
              "7(b13)",
              "7(b9)",
              "7(13)",
              "7#11",
              "7(9)",
              "7b5",
              "7sus4",
              "7th",
              "dim",
              "min7(11)",
              "min7(9)",
              "min(9)",
              "m7b5",
              "min7",
              "min",
              "aug",
              "Maj"
            ],
            "autoStart": false,
            "sourceChordNote": 0,
            "sourceChordType": "Maj7",
            "ctb2Low": null,
            "ctb2Main": {
              "ntr": "ROOT_TRANSPOSITION",
              "ntt": "MELODIC_MINOR_5",
              "bassOn": false,
              "chordRootUpperLimit": 0,
              "noteLowLimit": 34,
              "noteHighLimit": 127,
              "rtr": "PITCH_SHIFT"
            },
            "ctb2High": null
          },
          "notes": [
            {
              "pitch": 48,
              "velocity": 123,
              "position": 0,
              "duration": 0.36041666666666666
            },
            {
              "pitch": 47,
              "velocity": 56,
              "position": 0.3333333333333333,
              "duration": 0.10833333333333334
            },
            {
              "pitch": 72,
              "velocity": 125,
              "position": 0.010416666666666666,
              "duration": 0.4479166666666667
            },
            {
              "pitch": 45,
              "velocity": 51,
              "position": 0.4166666666666667,
              "duration": 0.10833333333333334
            },
            {
              "pitch": 71,
              "velocity": 56,
              "position": 0.4375,
              "duration": 0.08958333333333333
            },
            {
              "pitch": 60,
              "velocity": 121,
              "position": 0.00625,
              "duration": 0.575
            },
            {
              "pitch": 69,
              "velocity": 51,
              "position": 0.5,
              "duration": 0.08958333333333333
            },
            {
              "pitch": 59,
              "velocity": 56,
              "position": 0.5416666666666666,
              "duration": 0.058333333333333334
            },
            {
              "pitch": 43,
              "velocity": 45,
              "position": 0.5,
              "duration": 0.10833333333333334
            },
            {
              "pitch": 57,
              "velocity": 51,
              "position": 0.5833333333333334,
              "duration": 0.058333333333333334
            },
            {
              "pitch": 67,
              "velocity": 45,
              "position": 0.5625,
              "duration": 0.08958333333333333
            },
            {
              "pitch": 55,
              "velocity": 45,
              "position": 0.625,
              "duration": 0.058333333333333334
            },
            {
              "pitch": 41,
              "velocity": 40,
              "position": 0.5833333333333334,
              "duration": 0.10833333333333334
            },
            {
              "pitch": 65,
              "velocity": 40,
              "position": 0.625,
              "duration": 0.08958333333333333
            },
            {
              "pitch": 53,
              "velocity": 40,
              "position": 0.6666666666666666,
              "duration": 0.058333333333333334
            },
            {
              "pitch": 52,
              "velocity": 35,
              "position": 0.7083333333333334,
              "duration": 0.058333333333333334
            },
            {
              "pitch": 40,
              "velocity": 35,
              "position": 0.6666666666666666,
              "duration": 0.10833333333333334
            },
            {
              "pitch": 64,
              "velocity": 35,
              "position": 0.6875,
              "duration": 0.08958333333333333
            },
            {
              "pitch": 50,
              "velocity": 30,
              "position": 0.75,
              "duration": 0.058333333333333334
            },
            {
              "pitch": 62,
              "velocity": 30,
              "position": 0.75,
              "duration": 0.08958333333333333
            },
            {
              "pitch": 38,
              "velocity": 30,
              "position": 0.75,
              "duration": 0.10833333333333334
            },
            {
              "pitch": 52,
              "velocity": 80,
              "position": 7,
              "duration": 0.2916666666666667
            },
            {
              "pitch": 64,
              "velocity": 80,
              "position": 7.03125,
              "duration": 0.2604166666666667
            },
            {
              "pitch": 76,
              "velocity": 80,
              "position": 7.03125,
              "duration": 0.26666666666666666
            },
            {
              "pitch": 55,
              "velocity": 35,
              "position": 7.252083333333333,
              "duration": 0.27291666666666664
            },
            {
              "pitch": 79,
              "velocity": 35,
              "position": 7.258333333333334,
              "duration": 0.27291666666666664
            },
            {
              "pitch": 67,
              "velocity": 36,
              "position": 7.252083333333333,
              "duration": 0.2875
            },
            {
              "pitch": 57,
              "velocity": 103,
              "position": 7.485416666666667,
              "duration": 0.30833333333333335
            },
            {
              "pitch": 69,
              "velocity": 102,
              "position": 7.5,
              "duration": 0.29583333333333334
            },
            {
              "pitch": 81,
              "velocity": 104,
              "position": 7.491666666666666,
              "duration": 0.30625
            },
            {
              "pitch": 67,
              "velocity": 59,
              "position": 7.75625,
              "duration": 0.2833333333333333
            },
            {
              "pitch": 79,
              "velocity": 61,
              "position": 7.758333333333334,
              "duration": 0.2916666666666667
            },
            {
              "pitch": 55,
              "velocity": 61,
              "position": 7.754166666666666,
              "duration": 0.3229166666666667
            },
            {
              "pitch": 60,
              "velocity": 123,
              "position": 8.0375,
              "duration": 0.35208333333333336
            },
            {
              "pitch": 59,
              "velocity": 56,
              "position": 8.333333333333334,
              "duration": 0.10833333333333334
            },
            {
              "pitch": 84,
              "velocity": 119,
              "position": 8.010416666666666,
              "duration": 0.46875
            },
            {
              "pitch": 57,
              "velocity": 51,
              "position": 8.416666666666666,
              "duration": 0.10833333333333334
            },
            {
              "pitch": 83,
              "velocity": 56,
              "position": 8.4375,
              "duration": 0.08958333333333333
            },
            {
              "pitch": 72,
              "velocity": 122,
              "position": 8,
              "duration": 0.575
            },
            {
              "pitch": 81,
              "velocity": 51,
              "position": 8.5,
              "duration": 0.08958333333333333
            },
            {
              "pitch": 71,
              "velocity": 56,
              "position": 8.541666666666666,
              "duration": 0.058333333333333334
            },
            {
              "pitch": 55,
              "velocity": 45,
              "position": 8.5,
              "duration": 0.10833333333333334
            },
            {
              "pitch": 69,
              "velocity": 51,
              "position": 8.583333333333334,
              "duration": 0.058333333333333334
            },
            {
              "pitch": 79,
              "velocity": 45,
              "position": 8.5625,
              "duration": 0.08958333333333333
            },
            {
              "pitch": 67,
              "velocity": 45,
              "position": 8.625,
              "duration": 0.058333333333333334
            },
            {
              "pitch": 53,
              "velocity": 40,
              "position": 8.583333333333334,
              "duration": 0.10833333333333334
            },
            {
              "pitch": 77,
              "velocity": 40,
              "position": 8.625,
              "duration": 0.08958333333333333
            },
            {
              "pitch": 65,
              "velocity": 40,
              "position": 8.666666666666666,
              "duration": 0.058333333333333334
            },
            {
              "pitch": 64,
              "velocity": 35,
              "position": 8.708333333333334,
              "duration": 0.058333333333333334
            },
            {
              "pitch": 52,
              "velocity": 35,
              "position": 8.666666666666666,
              "duration": 0.10833333333333334
            },
            {
              "pitch": 76,
              "velocity": 35,
              "position": 8.6875,
              "duration": 0.08958333333333333
            },
            {
              "pitch": 62,
              "velocity": 30,
              "position": 8.75,
              "duration": 0.058333333333333334
            },
            {
              "pitch": 74,
              "velocity": 30,
              "position": 8.75,
              "duration": 0.08958333333333333
            },
            {
              "pitch": 50,
              "velocity": 30,
              "position": 8.75,
              "duration": 0.10833333333333334
            },
            {
              "pitch": 60,
              "velocity": 120,
              "position": 14,
              "duration": 0.41041666666666665
            },
            {
              "pitch": 84,
              "velocity": 125,
              "position": 14.010416666666666,
              "duration": 0.4354166666666667
            },
            {
              "pitch": 72,
              "velocity": 119,
              "position": 14.025,
              "duration": 0.43333333333333335
            },
            {
              "pitch": 60,
              "velocity": 126,
              "position": 15,
              "duration": 0.43333333333333335
            },
            {
              "pitch": 84,
              "velocity": 127,
              "position": 15.014583333333333,
              "duration": 0.4354166666666667
            },
            {
              "pitch": 72,
              "velocity": 122,
              "position": 15.027083333333334,
              "duration": 0.43125
            },
            {
              "pitch": 48,
              "velocity": 125,
              "position": 16.01875,
              "duration": 0.3645833333333333
            },
            {
              "pitch": 47,
              "velocity": 56,
              "position": 16.333333333333332,
              "duration": 0.10833333333333334
            },
            {
              "pitch": 72,
              "velocity": 127,
              "position": 16,
              "duration": 0.47291666666666665
            },
            {
              "pitch": 45,
              "velocity": 51,
              "position": 16.416666666666668,
              "duration": 0.10833333333333334
            },
            {
              "pitch": 71,
              "velocity": 56,
              "position": 16.4375,
              "duration": 0.08958333333333333
            },
            {
              "pitch": 60,
              "velocity": 126,
              "position": 16.016666666666666,
              "duration": 0.5729166666666666
            },
            {
              "pitch": 69,
              "velocity": 51,
              "position": 16.5,
              "duration": 0.08958333333333333
            },
            {
              "pitch": 59,
              "velocity": 56,
              "position": 16.541666666666668,
              "duration": 0.058333333333333334
            },
            {
              "pitch": 43,
              "velocity": 45,
              "position": 16.5,
              "duration": 0.10833333333333334
            },
            {
              "pitch": 57,
              "velocity": 51,
              "position": 16.583333333333332,
              "duration": 0.058333333333333334
            },
            {
              "pitch": 67,
              "velocity": 45,
              "position": 16.5625,
              "duration": 0.08958333333333333
            },
            {
              "pitch": 55,
              "velocity": 45,
              "position": 16.625,
              "duration": 0.058333333333333334
            },
            {
              "pitch": 41,
              "velocity": 40,
              "position": 16.583333333333332,
              "duration": 0.10833333333333334
            },
            {
              "pitch": 65,
              "velocity": 40,
              "position": 16.625,
              "duration": 0.08958333333333333
            },
            {
              "pitch": 53,
              "velocity": 40,
              "position": 16.666666666666668,
              "duration": 0.058333333333333334
            },
            {
              "pitch": 52,
              "velocity": 35,
              "position": 16.708333333333332,
              "duration": 0.058333333333333334
            },
            {
              "pitch": 40,
              "velocity": 35,
              "position": 16.666666666666668,
              "duration": 0.10833333333333334
            },
            {
              "pitch": 64,
              "velocity": 35,
              "position": 16.6875,
              "duration": 0.08958333333333333
            },
            {
              "pitch": 50,
              "velocity": 30,
              "position": 16.75,
              "duration": 0.058333333333333334
            },
            {
              "pitch": 62,
              "velocity": 30,
              "position": 16.75,
              "duration": 0.08958333333333333
            },
            {
              "pitch": 38,
              "velocity": 30,
              "position": 16.75,
              "duration": 0.10833333333333334
            },
            {
              "pitch": 52,
              "velocity": 80,
              "position": 23,
              "duration": 0.2916666666666667
            },
            {
              "pitch": 64,
              "velocity": 80,
              "position": 23.03125,
              "duration": 0.2604166666666667
            },
            {
              "pitch": 76,
              "velocity": 80,
              "position": 23.03125,
              "duration": 0.26666666666666666
            },
            {
              "pitch": 55,
              "velocity": 35,
              "position": 23.252083333333335,
              "duration": 0.27291666666666664
            },
            {
              "pitch": 79,
              "velocity": 35,
              "position": 23.258333333333333,
              "duration": 0.27291666666666664
            },
            {
              "pitch": 67,
              "velocity": 36,
              "position": 23.252083333333335,
              "duration": 0.2875
            },
            {
              "pitch": 57,
              "velocity": 103,
              "position": 23.485416666666666,
              "duration": 0.30833333333333335
            },
            {
              "pitch": 69,
              "velocity": 102,
              "position": 23.5,
              "duration": 0.29583333333333334
            },
            {
              "pitch": 81,
              "velocity": 104,
              "position": 23.491666666666667,
              "duration": 0.30625
            },
            {
              "pitch": 79,
              "velocity": 61,
              "position": 23.758333333333333,
              "duration": 0.25
            },
            {
              "pitch": 67,
              "velocity": 59,
              "position": 23.75625,
              "duration": 0.2833333333333333
            },
            {
              "pitch": 55,
              "velocity": 61,
              "position": 23.754166666666666,
              "duration": 0.3229166666666667
            },
            {
              "pitch": 60,
              "velocity": 123,
              "position": 24,
              "duration": 0.35
            },
            {
              "pitch": 59,
              "velocity": 56,
              "position": 24.333333333333332,
              "duration": 0.10833333333333334
            },
            {
              "pitch": 84,
              "velocity": 122,
              "position": 24.035416666666666,
              "duration": 0.4583333333333333
            },
            {
              "pitch": 57,
              "velocity": 51,
              "position": 24.416666666666668,
              "duration": 0.10833333333333334
            },
            {
              "pitch": 83,
              "velocity": 56,
              "position": 24.4375,
              "duration": 0.08958333333333333
            },
            {
              "pitch": 72,
              "velocity": 126,
              "position": 24.014583333333334,
              "duration": 0.5479166666666667
            },
            {
              "pitch": 81,
              "velocity": 51,
              "position": 24.5,
              "duration": 0.08958333333333333
            },
            {
              "pitch": 71,
              "velocity": 56,
              "position": 24.541666666666668,
              "duration": 0.058333333333333334
            },
            {
              "pitch": 55,
              "velocity": 45,
              "position": 24.5,
              "duration": 0.10833333333333334
            },
            {
              "pitch": 69,
              "velocity": 51,
              "position": 24.583333333333332,
              "duration": 0.058333333333333334
            },
            {
              "pitch": 79,
              "velocity": 45,
              "position": 24.5625,
              "duration": 0.08958333333333333
            },
            {
              "pitch": 67,
              "velocity": 45,
              "position": 24.625,
              "duration": 0.058333333333333334
            },
            {
              "pitch": 53,
              "velocity": 40,
              "position": 24.583333333333332,
              "duration": 0.10833333333333334
            },
            {
              "pitch": 77,
              "velocity": 40,
              "position": 24.625,
              "duration": 0.08958333333333333
            },
            {
              "pitch": 65,
              "velocity": 40,
              "position": 24.666666666666668,
              "duration": 0.058333333333333334
            },
            {
              "pitch": 64,
              "velocity": 35,
              "position": 24.708333333333332,
              "duration": 0.058333333333333334
            },
            {
              "pitch": 52,
              "velocity": 35,
              "position": 24.666666666666668,
              "duration": 0.10833333333333334
            },
            {
              "pitch": 76,
              "velocity": 35,
              "position": 24.6875,
              "duration": 0.08958333333333333
            },
            {
              "pitch": 62,
              "velocity": 30,
              "position": 24.75,
              "duration": 0.058333333333333334
            },
            {
              "pitch": 74,
              "velocity": 30,
              "position": 24.75,
              "duration": 0.08958333333333333
            },
            {
              "pitch": 50,
              "velocity": 30,
              "position": 24.75,
              "duration": 0.10833333333333334
            },
            {
              "pitch": 60,
              "velocity": 120,
              "position": 30,
              "duration": 0.41041666666666665
            },
            {
              "pitch": 84,
              "velocity": 125,
              "position": 30.010416666666668,
              "duration": 0.4354166666666667
            },
            {
              "pitch": 72,
              "velocity": 119,
              "position": 30.025,
              "duration": 0.43333333333333335
            },
            {
              "pitch": 84,
              "velocity": 123,
              "position": 31,
              "duration": 0.4583333333333333
            },
            {
              "pitch": 72,
              "velocity": 127,
              "position": 31,
              "duration": 0.46875
            },
            {
              "pitch": 60,
              "velocity": 127,
              "position": 31.008333333333333,
              "duration": 0.48125
            }
          ]
        },
        "8": {
          "ctab": {
            "srcChannel": 8,
            "name": "Perc.",
            "accType": "SUBRHYTHM",
            "editable": false,
            "mutedNotes": [],
            "mutedChords": [],
            "autoStart": true,
            "sourceChordNote": 0,
            "sourceChordType": "Maj7",
            "ctb2Low": null,
            "ctb2Main": {
              "ntr": "ROOT_FIXED",
              "ntt": "BYPASS",
              "bassOn": false,
              "chordRootUpperLimit": 6,
              "noteLowLimit": 0,
              "noteHighLimit": 127,
              "rtr": "PITCH_SHIFT"
            },
            "ctb2High": null
          },
          "notes": [
            {
              "pitch": 23,
              "velocity": 98,
              "position": 0.010416666666666666,
              "duration": 0.010416666666666666
            },
            {
              "pitch": 36,
              "velocity": 127,
              "position": 0.010416666666666666,
              "duration": 0.010416666666666666
            },
            {
              "pitch": 68,
              "velocity": 80,
              "position": 0.010416666666666666,
              "duration": 0.010416666666666666
            },
            {
              "pitch": 73,
              "velocity": 95,
              "position": 0.010416666666666666,
              "duration": 0.010416666666666666
            },
            {
              "pitch": 73,
              "velocity": 43,
              "position": 0.24166666666666667,
              "duration": 0.010416666666666666
            },
            {
              "pitch": 68,
              "velocity": 55,
              "position": 0.24791666666666667,
              "duration": 0.010416666666666666
            },
            {
              "pitch": 22,
              "velocity": 50,
              "position": 0.2520833333333333,
              "duration": 0.010416666666666666
            },
            {
              "pitch": 40,
              "velocity": 40,
              "position": 0.2520833333333333,
              "duration": 0.010416666666666666
            },
            {
              "pitch": 73,
              "velocity": 73,
              "position": 0.49375,
              "duration": 0.010416666666666666
            },
            {
              "pitch": 39,
              "velocity": 70,
              "position": 0.5020833333333333,
              "duration": 0.010416666666666666
            },
            {
              "pitch": 68,
              "velocity": 103,
              "position": 0.5104166666666666,
              "duration": 0.010416666666666666
            },
            {
              "pitch": 28,
              "velocity": 96,
              "position": 0.51875,
              "duration": 0.010416666666666666
            },
            {
              "pitch": 68,
              "velocity": 54,
              "position": 0.7291666666666666,
              "duration": 0.010416666666666666
            },
            {
              "pitch": 22,
              "velocity": 50,
              "position": 0.7458333333333333,
              "duration": 0.010416666666666666
            },
            {
              "pitch": 73,
              "velocity": 46,
              "position": 0.7479166666666667,
              "duration": 0.010416666666666666
            },
            {
              "pitch": 37,
              "velocity": 50,
              "position": 0.7520833333333333,
              "duration": 0.010416666666666666
            },
            {
              "pitch": 68,
              "velocity": 81,
              "position": 0.98125,
              "duration": 0.010416666666666666
            },
            {
              "pitch": 38,
              "velocity": 127,
              "position": 1.0020833333333334,
              "duration": 0.010416666666666666
            },
            {
              "pitch": 23,
              "velocity": 99,
              "position": 1.0145833333333334,
              "duration": 0.010416666666666666
            },
            {
              "pitch": 73,
              "velocity": 95,
              "position": 1.0145833333333334,
              "duration": 0.010416666666666666
            },
            {
              "pitch": 18,
              "velocity": 82,
              "position": 1.0208333333333333,
              "duration": 0.010416666666666666
            },
            {
              "pitch": 73,
              "velocity": 51,
              "position": 1.2375,
              "duration": 0.010416666666666666
            },
            {
              "pitch": 22,
              "velocity": 50,
              "position": 1.2395833333333333,
              "duration": 0.010416666666666666
            },
            {
              "pitch": 40,
              "velocity": 30,
              "position": 1.2520833333333334,
              "duration": 0.010416666666666666
            },
            {
              "pitch": 68,
              "velocity": 55,
              "position": 1.2541666666666667,
              "duration": 0.010416666666666666
            },
            {
              "pitch": 73,
              "velocity": 78,
              "position": 1.4958333333333333,
              "duration": 0.010416666666666666
            },
            {
              "pitch": 68,
              "velocity": 101,
              "position": 1.5,
              "duration": 0.010416666666666666
            },
            {
              "pitch": 44,
              "velocity": 127,
              "position": 1.5020833333333334,
              "duration": 0.010416666666666666
            },
            {
              "pitch": 24,
              "velocity": 95,
              "position": 1.5166666666666666,
              "duration": 0.010416666666666666
            },
            {
              "pitch": 68,
              "velocity": 50,
              "position": 1.7416666666666667,
              "duration": 0.010416666666666666
            },
            {
              "pitch": 73,
              "velocity": 50,
              "position": 1.75,
              "duration": 0.010416666666666666
            },
            {
              "pitch": 40,
              "velocity": 30,
              "position": 1.7520833333333334,
              "duration": 0.010416666666666666
            },
            {
              "pitch": 25,
              "velocity": 92,
              "position": 1.76875,
              "duration": 0.010416666666666666
            },
            {
              "pitch": 68,
              "velocity": 83,
              "position": 1.9791666666666667,
              "duration": 0.010416666666666666
            },
            {
              "pitch": 23,
              "velocity": 101,
              "position": 2,
              "duration": 0.010416666666666666
            },
            {
              "pitch": 36,
              "velocity": 127,
              "position": 2.002083333333333,
              "duration": 0.010416666666666666
            },
            {
              "pitch": 73,
              "velocity": 97,
              "position": 2.004166666666667,
              "duration": 0.010416666666666666
            },
            {
              "pitch": 22,
              "velocity": 50,
              "position": 2.2416666666666667,
              "duration": 0.010416666666666666
            },
            {
              "pitch": 73,
              "velocity": 43,
              "position": 2.247916666666667,
              "duration": 0.010416666666666666
            },
            {
              "pitch": 40,
              "velocity": 40,
              "position": 2.252083333333333,
              "duration": 0.010416666666666666
            },
            {
              "pitch": 68,
              "velocity": 48,
              "position": 2.252083333333333,
              "duration": 0.010416666666666666
            },
            {
              "pitch": 73,
              "velocity": 77,
              "position": 2.4895833333333335,
              "duration": 0.010416666666666666
            },
            {
              "pitch": 39,
              "velocity": 70,
              "position": 2.502083333333333,
              "duration": 0.010416666666666666
            },
            {
              "pitch": 68,
              "velocity": 100,
              "position": 2.504166666666667,
              "duration": 0.010416666666666666
            },
            {
              "pitch": 28,
              "velocity": 95,
              "position": 2.5104166666666665,
              "duration": 0.010416666666666666
            },
            {
              "pitch": 68,
              "velocity": 48,
              "position": 2.747916666666667,
              "duration": 0.010416666666666666
            },
            {
              "pitch": 73,
              "velocity": 47,
              "position": 2.747916666666667,
              "duration": 0.010416666666666666
            },
            {
              "pitch": 22,
              "velocity": 50,
              "position": 2.75,
              "duration": 0.010416666666666666
            },
            {
              "pitch": 37,
              "velocity": 50,
              "position": 2.752083333333333,
              "duration": 0.010416666666666666
            },
            {
              "pitch": 18,
              "velocity": 82,
              "position": 2.9770833333333333,
              "duration": 0.010416666666666666
            },
            {
              "pitch": 68,
              "velocity": 80,
              "position": 2.9895833333333335,
              "duration": 0.010416666666666666
            },
            {
              "pitch": 23,
              "velocity": 99,
              "position": 3.002083333333333,
              "duration": 0.010416666666666666
            },
            {
              "pitch": 38,
              "velocity": 127,
              "position": 3.002083333333333,
              "duration": 0.010416666666666666
            },
            {
              "pitch": 73,
              "velocity": 101,
              "position": 3.00625,
              "duration": 0.010416666666666666
            },
            {
              "pitch": 73,
              "velocity": 47,
              "position": 3.2333333333333334,
              "duration": 0.010416666666666666
            },
            {
              "pitch": 68,
              "velocity": 52,
              "position": 3.247916666666667,
              "duration": 0.010416666666666666
            },
            {
              "pitch": 40,
              "velocity": 30,
              "position": 3.252083333333333,
              "duration": 0.010416666666666666
            },
            {
              "pitch": 22,
              "velocity": 50,
              "position": 3.2583333333333333,
              "duration": 0.010416666666666666
            },
            {
              "pitch": 73,
              "velocity": 79,
              "position": 3.48125,
              "duration": 0.010416666666666666
            },
            {
              "pitch": 43,
              "velocity": 127,
              "position": 3.502083333333333,
              "duration": 0.010416666666666666
            },
            {
              "pitch": 68,
              "velocity": 102,
              "position": 3.504166666666667,
              "duration": 0.010416666666666666
            },
            {
              "pitch": 31,
              "velocity": 96,
              "position": 3.5166666666666666,
              "duration": 0.010416666666666666
            },
            {
              "pitch": 68,
              "velocity": 49,
              "position": 3.7291666666666665,
              "duration": 0.010416666666666666
            },
            {
              "pitch": 73,
              "velocity": 47,
              "position": 3.7416666666666667,
              "duration": 0.010416666666666666
            },
            {
              "pitch": 40,
              "velocity": 30,
              "position": 3.752083333333333,
              "duration": 0.010416666666666666
            },
            {
              "pitch": 31,
              "velocity": 64,
              "position": 3.7625,
              "duration": 0.010416666666666666
            },
            {
              "pitch": 23,
              "velocity": 98,
              "position": 4.010416666666667,
              "duration": 0.010416666666666666
            },
            {
              "pitch": 36,
              "velocity": 127,
              "position": 4.010416666666667,
              "duration": 0.010416666666666666
            },
            {
              "pitch": 68,
              "velocity": 78,
              "position": 4.010416666666667,
              "duration": 0.010416666666666666
            },
            {
              "pitch": 73,
              "velocity": 99,
              "position": 4.010416666666667,
              "duration": 0.010416666666666666
            },
            {
              "pitch": 73,
              "velocity": 43,
              "position": 4.233333333333333,
              "duration": 0.010416666666666666
            },
            {
              "pitch": 22,
              "velocity": 50,
              "position": 4.25,
              "duration": 0.010416666666666666
            },
            {
              "pitch": 40,
              "velocity": 40,
              "position": 4.252083333333333,
              "duration": 0.010416666666666666
            },
            {
              "pitch": 68,
              "velocity": 49,
              "position": 4.25625,
              "duration": 0.010416666666666666
            },
            {
              "pitch": 73,
              "velocity": 73,
              "position": 4.4875,
              "duration": 0.010416666666666666
            },
            {
              "pitch": 28,
              "velocity": 93,
              "position": 4.5,
              "duration": 0.010416666666666666
            },
            {
              "pitch": 39,
              "velocity": 70,
              "position": 4.502083333333333,
              "duration": 0.010416666666666666
            },
            {
              "pitch": 68,
              "velocity": 105,
              "position": 4.516666666666667,
              "duration": 0.010416666666666666
            },
            {
              "pitch": 68,
              "velocity": 52,
              "position": 4.745833333333334,
              "duration": 0.010416666666666666
            },
            {
              "pitch": 73,
              "velocity": 50,
              "position": 4.75,
              "duration": 0.010416666666666666
            },
            {
              "pitch": 22,
              "velocity": 50,
              "position": 4.752083333333333,
              "duration": 0.010416666666666666
            },
            {
              "pitch": 37,
              "velocity": 50,
              "position": 4.752083333333333,
              "duration": 0.010416666666666666
            },
            {
              "pitch": 68,
              "velocity": 78,
              "position": 4.979166666666667,
              "duration": 0.010416666666666666
            },
            {
              "pitch": 18,
              "velocity": 82,
              "position": 4.997916666666667,
              "duration": 0.010416666666666666
            },
            {
              "pitch": 38,
              "velocity": 127,
              "position": 5.002083333333333,
              "duration": 0.010416666666666666
            },
            {
              "pitch": 23,
              "velocity": 99,
              "position": 5.008333333333334,
              "duration": 0.010416666666666666
            },
            {
              "pitch": 73,
              "velocity": 99,
              "position": 5.016666666666667,
              "duration": 0.010416666666666666
            },
            {
              "pitch": 73,
              "velocity": 51,
              "position": 5.229166666666667,
              "duration": 0.010416666666666666
            },
            {
              "pitch": 68,
              "velocity": 49,
              "position": 5.241666666666666,
              "duration": 0.010416666666666666
            },
            {
              "pitch": 40,
              "velocity": 30,
              "position": 5.252083333333333,
              "duration": 0.010416666666666666
            },
            {
              "pitch": 22,
              "velocity": 50,
              "position": 5.25625,
              "duration": 0.010416666666666666
            },
            {
              "pitch": 73,
              "velocity": 79,
              "position": 5.4875,
              "duration": 0.010416666666666666
            },
            {
              "pitch": 42,
              "velocity": 127,
              "position": 5.502083333333333,
              "duration": 0.010416666666666666
            },
            {
              "pitch": 68,
              "velocity": 102,
              "position": 5.508333333333334,
              "duration": 0.010416666666666666
            },
            {
              "pitch": 24,
              "velocity": 99,
              "position": 5.51875,
              "duration": 0.010416666666666666
            },
            {
              "pitch": 68,
              "velocity": 48,
              "position": 5.7375,
              "duration": 0.010416666666666666
            },
            {
              "pitch": 40,
              "velocity": 30,
              "position": 5.752083333333333,
              "duration": 0.010416666666666666
            },
            {
              "pitch": 73,
              "velocity": 46,
              "position": 5.752083333333333,
              "duration": 0.010416666666666666
            },
            {
              "pitch": 25,
              "velocity": 95,
              "position": 5.75625,
              "duration": 0.010416666666666666
            },
            {
              "pitch": 68,
              "velocity": 81,
              "position": 5.995833333333334,
              "duration": 0.010416666666666666
            },
            {
              "pitch": 36,
              "velocity": 127,
              "position": 6.002083333333333,
              "duration": 0.010416666666666666
            },
            {
              "pitch": 73,
              "velocity": 101,
              "position": 6.00625,
              "duration": 0.010416666666666666
            },
            {
              "pitch": 23,
              "velocity": 101,
              "position": 6.0125,
              "duration": 0.010416666666666666
            },
            {
              "pitch": 68,
              "velocity": 50,
              "position": 6.239583333333333,
              "duration": 0.010416666666666666
            },
            {
              "pitch": 73,
              "velocity": 43,
              "position": 6.239583333333333,
              "duration": 0.010416666666666666
            },
            {
              "pitch": 40,
              "velocity": 40,
              "position": 6.252083333333333,
              "duration": 0.010416666666666666
            },
            {
              "pitch": 22,
              "velocity": 50,
              "position": 6.258333333333334,
              "duration": 0.010416666666666666
            },
            {
              "pitch": 73,
              "velocity": 77,
              "position": 6.483333333333333,
              "duration": 0.010416666666666666
            },
            {
              "pitch": 39,
              "velocity": 70,
              "position": 6.502083333333333,
              "duration": 0.010416666666666666
            },
            {
              "pitch": 28,
              "velocity": 99,
              "position": 6.510416666666667,
              "duration": 0.010416666666666666
            },
            {
              "pitch": 68,
              "velocity": 102,
              "position": 6.510416666666667,
              "duration": 0.010416666666666666
            },
            {
              "pitch": 68,
              "velocity": 55,
              "position": 6.745833333333334,
              "duration": 0.010416666666666666
            },
            {
              "pitch": 73,
              "velocity": 43,
              "position": 6.75,
              "duration": 0.010416666666666666
            },
            {
              "pitch": 37,
              "velocity": 50,
              "position": 6.752083333333333,
              "duration": 0.010416666666666666
            },
            {
              "pitch": 22,
              "velocity": 50,
              "position": 6.75625,
              "duration": 0.010416666666666666
            },
            {
              "pitch": 18,
              "velocity": 82,
              "position": 6.977083333333334,
              "duration": 0.010416666666666666
            },
            {
              "pitch": 68,
              "velocity": 86,
              "position": 6.9875,
              "duration": 0.010416666666666666
            },
            {
              "pitch": 38,
              "velocity": 127,
              "position": 7.002083333333333,
              "duration": 0.010416666666666666
            },
            {
              "pitch": 73,
              "velocity": 97,
              "position": 7.008333333333334,
              "duration": 0.010416666666666666
            },
            {
              "pitch": 23,
              "velocity": 99,
              "position": 7.0125,
              "duration": 0.010416666666666666
            },
            {
              "pitch": 73,
              "velocity": 47,
              "position": 7.245833333333334,
              "duration": 0.010416666666666666
            },
            {
              "pitch": 36,
              "velocity": 69,
              "position": 7.252083333333333,
              "duration": 0.010416666666666666
            },
            {
              "pitch": 68,
              "velocity": 54,
              "position": 7.254166666666666,
              "duration": 0.010416666666666666
            },
            {
              "pitch": 22,
              "velocity": 50,
              "position": 7.25625,
              "duration": 0.010416666666666666
            },
            {
              "pitch": 73,
              "velocity": 79,
              "position": 7.49375,
              "duration": 0.010416666666666666
            },
            {
              "pitch": 43,
              "velocity": 127,
              "position": 7.502083333333333,
              "duration": 0.010416666666666666
            },
            {
              "pitch": 68,
              "velocity": 104,
              "position": 7.510416666666667,
              "duration": 0.010416666666666666
            },
            {
              "pitch": 31,
              "velocity": 93,
              "position": 7.51875,
              "duration": 0.010416666666666666
            },
            {
              "pitch": 73,
              "velocity": 43,
              "position": 7.74375,
              "duration": 0.010416666666666666
            },
            {
              "pitch": 68,
              "velocity": 56,
              "position": 7.745833333333334,
              "duration": 0.010416666666666666
            },
            {
              "pitch": 31,
              "velocity": 67,
              "position": 7.75,
              "duration": 0.010416666666666666
            },
            {
              "pitch": 40,
              "velocity": 30,
              "position": 7.752083333333333,
              "duration": 0.010416666666666666
            },
            {
              "pitch": 23,
              "velocity": 98,
              "position": 8.010416666666666,
              "duration": 0.010416666666666666
            },
            {
              "pitch": 36,
              "velocity": 127,
              "position": 8.010416666666666,
              "duration": 0.010416666666666666
            },
            {
              "pitch": 68,
              "velocity": 84,
              "position": 8.010416666666666,
              "duration": 0.010416666666666666
            },
            {
              "pitch": 73,
              "velocity": 95,
              "position": 8.010416666666666,
              "duration": 0.010416666666666666
            },
            {
              "pitch": 68,
              "velocity": 52,
              "position": 8.24375,
              "duration": 0.010416666666666666
            },
            {
              "pitch": 73,
              "velocity": 43,
              "position": 8.245833333333334,
              "duration": 0.010416666666666666
            },
            {
              "pitch": 22,
              "velocity": 50,
              "position": 8.247916666666667,
              "duration": 0.010416666666666666
            },
            {
              "pitch": 40,
              "velocity": 40,
              "position": 8.252083333333333,
              "duration": 0.010416666666666666
            },
            {
              "pitch": 73,
              "velocity": 73,
              "position": 8.479166666666666,
              "duration": 0.010416666666666666
            },
            {
              "pitch": 28,
              "velocity": 96,
              "position": 8.502083333333333,
              "duration": 0.010416666666666666
            },
            {
              "pitch": 39,
              "velocity": 70,
              "position": 8.502083333333333,
              "duration": 0.010416666666666666
            },
            {
              "pitch": 68,
              "velocity": 99,
              "position": 8.50625,
              "duration": 0.010416666666666666
            },
            {
              "pitch": 68,
              "velocity": 50,
              "position": 8.74375,
              "duration": 0.010416666666666666
            },
            {
              "pitch": 37,
              "velocity": 50,
              "position": 8.752083333333333,
              "duration": 0.010416666666666666
            },
            {
              "pitch": 73,
              "velocity": 46,
              "position": 8.752083333333333,
              "duration": 0.010416666666666666
            },
            {
              "pitch": 22,
              "velocity": 50,
              "position": 8.758333333333333,
              "duration": 0.010416666666666666
            },
            {
              "pitch": 68,
              "velocity": 85,
              "position": 8.995833333333334,
              "duration": 0.010416666666666666
            },
            {
              "pitch": 18,
              "velocity": 82,
              "position": 9,
              "duration": 0.010416666666666666
            },
            {
              "pitch": 38,
              "velocity": 127,
              "position": 9.002083333333333,
              "duration": 0.010416666666666666
            },
            {
              "pitch": 23,
              "velocity": 99,
              "position": 9.01875,
              "duration": 0.010416666666666666
            },
            {
              "pitch": 73,
              "velocity": 95,
              "position": 9.01875,
              "duration": 0.010416666666666666
            },
            {
              "pitch": 73,
              "velocity": 51,
              "position": 9.241666666666667,
              "duration": 0.010416666666666666
            },
            {
              "pitch": 68,
              "velocity": 51,
              "position": 9.247916666666667,
              "duration": 0.010416666666666666
            },
            {
              "pitch": 40,
              "velocity": 30,
              "position": 9.252083333333333,
              "duration": 0.010416666666666666
            },
            {
              "pitch": 22,
              "velocity": 50,
              "position": 9.254166666666666,
              "duration": 0.010416666666666666
            },
            {
              "pitch": 73,
              "velocity": 79,
              "position": 9.479166666666666,
              "duration": 0.010416666666666666
            },
            {
              "pitch": 24,
              "velocity": 96,
              "position": 9.5,
              "duration": 0.010416666666666666
            },
            {
              "pitch": 44,
              "velocity": 127,
              "position": 9.502083333333333,
              "duration": 0.010416666666666666
            },
            {
              "pitch": 68,
              "velocity": 105,
              "position": 9.514583333333333,
              "duration": 0.010416666666666666
            },
            {
              "pitch": 68,
              "velocity": 55,
              "position": 9.735416666666667,
              "duration": 0.010416666666666666
            },
            {
              "pitch": 40,
              "velocity": 30,
              "position": 9.752083333333333,
              "duration": 0.010416666666666666
            },
            {
              "pitch": 73,
              "velocity": 50,
              "position": 9.754166666666666,
              "duration": 0.010416666666666666
            },
            {
              "pitch": 25,
              "velocity": 96,
              "position": 9.764583333333333,
              "duration": 0.010416666666666666
            },
            {
              "pitch": 68,
              "velocity": 79,
              "position": 9.991666666666667,
              "duration": 0.010416666666666666
            },
            {
              "pitch": 36,
              "velocity": 127,
              "position": 10.002083333333333,
              "duration": 0.010416666666666666
            },
            {
              "pitch": 23,
              "velocity": 101,
              "position": 10.00625,
              "duration": 0.010416666666666666
            },
            {
              "pitch": 73,
              "velocity": 97,
              "position": 10.008333333333333,
              "duration": 0.010416666666666666
            },
            {
              "pitch": 73,
              "velocity": 43,
              "position": 10.23125,
              "duration": 0.010416666666666666
            },
            {
              "pitch": 68,
              "velocity": 52,
              "position": 10.247916666666667,
              "duration": 0.010416666666666666
            },
            {
              "pitch": 40,
              "velocity": 40,
              "position": 10.252083333333333,
              "duration": 0.010416666666666666
            },
            {
              "pitch": 22,
              "velocity": 50,
              "position": 10.25625,
              "duration": 0.010416666666666666
            },
            {
              "pitch": 73,
              "velocity": 78,
              "position": 10.495833333333334,
              "duration": 0.010416666666666666
            },
            {
              "pitch": 39,
              "velocity": 70,
              "position": 10.502083333333333,
              "duration": 0.010416666666666666
            },
            {
              "pitch": 28,
              "velocity": 96,
              "position": 10.5125,
              "duration": 0.010416666666666666
            },
            {
              "pitch": 68,
              "velocity": 104,
              "position": 10.51875,
              "duration": 0.010416666666666666
            },
            {
              "pitch": 68,
              "velocity": 53,
              "position": 10.741666666666667,
              "duration": 0.010416666666666666
            },
            {
              "pitch": 22,
              "velocity": 50,
              "position": 10.74375,
              "duration": 0.010416666666666666
            },
            {
              "pitch": 37,
              "velocity": 50,
              "position": 10.752083333333333,
              "duration": 0.010416666666666666
            },
            {
              "pitch": 73,
              "velocity": 47,
              "position": 10.752083333333333,
              "duration": 0.010416666666666666
            },
            {
              "pitch": 68,
              "velocity": 84,
              "position": 10.985416666666667,
              "duration": 0.010416666666666666
            },
            {
              "pitch": 38,
              "velocity": 127,
              "position": 11.002083333333333,
              "duration": 0.010416666666666666
            },
            {
              "pitch": 23,
              "velocity": 100,
              "position": 11.00625,
              "duration": 0.010416666666666666
            },
            {
              "pitch": 73,
              "velocity": 93,
              "position": 11.010416666666666,
              "duration": 0.010416666666666666
            },
            {
              "pitch": 18,
              "velocity": 82,
              "position": 11.01875,
              "duration": 0.010416666666666666
            },
            {
              "pitch": 73,
              "velocity": 47,
              "position": 11.2375,
              "duration": 0.010416666666666666
            },
            {
              "pitch": 68,
              "velocity": 48,
              "position": 11.241666666666667,
              "duration": 0.010416666666666666
            },
            {
              "pitch": 22,
              "velocity": 50,
              "position": 11.252083333333333,
              "duration": 0.010416666666666666
            },
            {
              "pitch": 40,
              "velocity": 30,
              "position": 11.252083333333333,
              "duration": 0.010416666666666666
            },
            {
              "pitch": 73,
              "velocity": 79,
              "position": 11.485416666666667,
              "duration": 0.010416666666666666
            },
            {
              "pitch": 31,
              "velocity": 96,
              "position": 11.502083333333333,
              "duration": 0.010416666666666666
            },
            {
              "pitch": 43,
              "velocity": 127,
              "position": 11.502083333333333,
              "duration": 0.010416666666666666
            },
            {
              "pitch": 68,
              "velocity": 106,
              "position": 11.51875,
              "duration": 0.010416666666666666
            },
            {
              "pitch": 68,
              "velocity": 53,
              "position": 11.74375,
              "duration": 0.010416666666666666
            },
            {
              "pitch": 73,
              "velocity": 48,
              "position": 11.745833333333334,
              "duration": 0.010416666666666666
            },
            {
              "pitch": 40,
              "velocity": 30,
              "position": 11.752083333333333,
              "duration": 0.010416666666666666
            },
            {
              "pitch": 31,
              "velocity": 62,
              "position": 11.758333333333333,
              "duration": 0.010416666666666666
            },
            {
              "pitch": 23,
              "velocity": 98,
              "position": 12.010416666666666,
              "duration": 0.010416666666666666
            },
            {
              "pitch": 36,
              "velocity": 127,
              "position": 12.010416666666666,
              "duration": 0.010416666666666666
            },
            {
              "pitch": 68,
              "velocity": 82,
              "position": 12.010416666666666,
              "duration": 0.010416666666666666
            },
            {
              "pitch": 73,
              "velocity": 99,
              "position": 12.010416666666666,
              "duration": 0.010416666666666666
            },
            {
              "pitch": 73,
              "velocity": 43,
              "position": 12.2375,
              "duration": 0.010416666666666666
            },
            {
              "pitch": 22,
              "velocity": 50,
              "position": 12.245833333333334,
              "duration": 0.010416666666666666
            },
            {
              "pitch": 68,
              "velocity": 53,
              "position": 12.25,
              "duration": 0.010416666666666666
            },
            {
              "pitch": 40,
              "velocity": 40,
              "position": 12.252083333333333,
              "duration": 0.010416666666666666
            },
            {
              "pitch": 73,
              "velocity": 74,
              "position": 12.491666666666667,
              "duration": 0.010416666666666666
            },
            {
              "pitch": 39,
              "velocity": 70,
              "position": 12.502083333333333,
              "duration": 0.010416666666666666
            },
            {
              "pitch": 28,
              "velocity": 93,
              "position": 12.504166666666666,
              "duration": 0.010416666666666666
            },
            {
              "pitch": 68,
              "velocity": 102,
              "position": 12.5125,
              "duration": 0.010416666666666666
            },
            {
              "pitch": 68,
              "velocity": 48,
              "position": 12.739583333333334,
              "duration": 0.010416666666666666
            },
            {
              "pitch": 22,
              "velocity": 50,
              "position": 12.747916666666667,
              "duration": 0.010416666666666666
            },
            {
              "pitch": 37,
              "velocity": 50,
              "position": 12.752083333333333,
              "duration": 0.010416666666666666
            },
            {
              "pitch": 73,
              "velocity": 50,
              "position": 12.754166666666666,
              "duration": 0.010416666666666666
            },
            {
              "pitch": 68,
              "velocity": 83,
              "position": 12.99375,
              "duration": 0.010416666666666666
            },
            {
              "pitch": 38,
              "velocity": 127,
              "position": 13.002083333333333,
              "duration": 0.010416666666666666
            },
            {
              "pitch": 73,
              "velocity": 99,
              "position": 13.002083333333333,
              "duration": 0.010416666666666666
            },
            {
              "pitch": 23,
              "velocity": 100,
              "position": 13.010416666666666,
              "duration": 0.010416666666666666
            },
            {
              "pitch": 18,
              "velocity": 82,
              "position": 13.016666666666667,
              "duration": 0.010416666666666666
            },
            {
              "pitch": 73,
              "velocity": 51,
              "position": 13.233333333333333,
              "duration": 0.010416666666666666
            },
            {
              "pitch": 22,
              "velocity": 50,
              "position": 13.252083333333333,
              "duration": 0.010416666666666666
            },
            {
              "pitch": 40,
              "velocity": 30,
              "position": 13.252083333333333,
              "duration": 0.010416666666666666
            },
            {
              "pitch": 68,
              "velocity": 53,
              "position": 13.254166666666666,
              "duration": 0.010416666666666666
            },
            {
              "pitch": 73,
              "velocity": 79,
              "position": 13.491666666666667,
              "duration": 0.010416666666666666
            },
            {
              "pitch": 24,
              "velocity": 99,
              "position": 13.502083333333333,
              "duration": 0.010416666666666666
            },
            {
              "pitch": 42,
              "velocity": 127,
              "position": 13.502083333333333,
              "duration": 0.010416666666666666
            },
            {
              "pitch": 68,
              "velocity": 99,
              "position": 13.502083333333333,
              "duration": 0.010416666666666666
            },
            {
              "pitch": 68,
              "velocity": 52,
              "position": 13.733333333333333,
              "duration": 0.010416666666666666
            },
            {
              "pitch": 25,
              "velocity": 98,
              "position": 13.752083333333333,
              "duration": 0.010416666666666666
            },
            {
              "pitch": 40,
              "velocity": 30,
              "position": 13.752083333333333,
              "duration": 0.010416666666666666
            },
            {
              "pitch": 73,
              "velocity": 46,
              "position": 13.75625,
              "duration": 0.010416666666666666
            },
            {
              "pitch": 68,
              "velocity": 86,
              "position": 13.989583333333334,
              "duration": 0.010416666666666666
            },
            {
              "pitch": 36,
              "velocity": 127,
              "position": 14.002083333333333,
              "duration": 0.010416666666666666
            },
            {
              "pitch": 73,
              "velocity": 93,
              "position": 14.010416666666666,
              "duration": 0.010416666666666666
            },
            {
              "pitch": 23,
              "velocity": 101,
              "position": 14.016666666666667,
              "duration": 0.010416666666666666
            },
            {
              "pitch": 73,
              "velocity": 43,
              "position": 14.24375,
              "duration": 0.010416666666666666
            },
            {
              "pitch": 40,
              "velocity": 40,
              "position": 14.252083333333333,
              "duration": 0.010416666666666666
            },
            {
              "pitch": 22,
              "velocity": 50,
              "position": 14.254166666666666,
              "duration": 0.010416666666666666
            },
            {
              "pitch": 68,
              "velocity": 55,
              "position": 14.254166666666666,
              "duration": 0.010416666666666666
            },
            {
              "pitch": 73,
              "velocity": 78,
              "position": 14.4875,
              "duration": 0.010416666666666666
            },
            {
              "pitch": 39,
              "velocity": 70,
              "position": 14.502083333333333,
              "duration": 0.010416666666666666
            },
            {
              "pitch": 68,
              "velocity": 98,
              "position": 14.50625,
              "duration": 0.010416666666666666
            },
            {
              "pitch": 28,
              "velocity": 99,
              "position": 14.514583333333333,
              "duration": 0.010416666666666666
            },
            {
              "pitch": 18,
              "velocity": 82,
              "position": 14.520833333333334,
              "duration": 0.010416666666666666
            },
            {
              "pitch": 68,
              "velocity": 51,
              "position": 14.739583333333334,
              "duration": 0.010416666666666666
            },
            {
              "pitch": 22,
              "velocity": 50,
              "position": 14.75,
              "duration": 0.010416666666666666
            },
            {
              "pitch": 37,
              "velocity": 50,
              "position": 14.752083333333333,
              "duration": 0.010416666666666666
            },
            {
              "pitch": 73,
              "velocity": 44,
              "position": 14.754166666666666,
              "duration": 0.010416666666666666
            },
            {
              "pitch": 68,
              "velocity": 82,
              "position": 14.98125,
              "duration": 0.010416666666666666
            },
            {
              "pitch": 18,
              "velocity": 82,
              "position": 14.99375,
              "duration": 0.010416666666666666
            },
            {
              "pitch": 38,
              "velocity": 127,
              "position": 15.002083333333333,
              "duration": 0.010416666666666666
            },
            {
              "pitch": 73,
              "velocity": 97,
              "position": 15.0125,
              "duration": 0.010416666666666666
            },
            {
              "pitch": 23,
              "velocity": 100,
              "position": 15.016666666666667,
              "duration": 0.010416666666666666
            },
            {
              "pitch": 73,
              "velocity": 47,
              "position": 15.229166666666666,
              "duration": 0.010416666666666666
            },
            {
              "pitch": 68,
              "velocity": 50,
              "position": 15.247916666666667,
              "duration": 0.010416666666666666
            },
            {
              "pitch": 22,
              "velocity": 50,
              "position": 15.25,
              "duration": 0.010416666666666666
            },
            {
              "pitch": 36,
              "velocity": 69,
              "position": 15.252083333333333,
              "duration": 0.010416666666666666
            },
            {
              "pitch": 73,
              "velocity": 79,
              "position": 15.497916666666667,
              "duration": 0.010416666666666666
            },
            {
              "pitch": 43,
              "velocity": 127,
              "position": 15.502083333333333,
              "duration": 0.010416666666666666
            },
            {
              "pitch": 31,
              "velocity": 93,
              "position": 15.504166666666666,
              "duration": 0.010416666666666666
            },
            {
              "pitch": 68,
              "velocity": 100,
              "position": 15.50625,
              "duration": 0.010416666666666666
            },
            {
              "pitch": 68,
              "velocity": 52,
              "position": 15.741666666666667,
              "duration": 0.010416666666666666
            },
            {
              "pitch": 73,
              "velocity": 44,
              "position": 15.747916666666667,
              "duration": 0.010416666666666666
            },
            {
              "pitch": 40,
              "velocity": 30,
              "position": 15.752083333333333,
              "duration": 0.010416666666666666
            },
            {
              "pitch": 31,
              "velocity": 64,
              "position": 15.764583333333333,
              "duration": 0.010416666666666666
            },
            {
              "pitch": 23,
              "velocity": 98,
              "position": 16.010416666666668,
              "duration": 0.010416666666666666
            },
            {
              "pitch": 36,
              "velocity": 127,
              "position": 16.010416666666668,
              "duration": 0.010416666666666666
            },
            {
              "pitch": 68,
              "velocity": 80,
              "position": 16.010416666666668,
              "duration": 0.010416666666666666
            },
            {
              "pitch": 73,
              "velocity": 95,
              "position": 16.010416666666668,
              "duration": 0.010416666666666666
            },
            {
              "pitch": 73,
              "velocity": 43,
              "position": 16.241666666666667,
              "duration": 0.010416666666666666
            },
            {
              "pitch": 68,
              "velocity": 55,
              "position": 16.247916666666665,
              "duration": 0.010416666666666666
            },
            {
              "pitch": 22,
              "velocity": 50,
              "position": 16.252083333333335,
              "duration": 0.010416666666666666
            },
            {
              "pitch": 40,
              "velocity": 40,
              "position": 16.252083333333335,
              "duration": 0.010416666666666666
            },
            {
              "pitch": 73,
              "velocity": 73,
              "position": 16.49375,
              "duration": 0.010416666666666666
            },
            {
              "pitch": 39,
              "velocity": 70,
              "position": 16.502083333333335,
              "duration": 0.010416666666666666
            },
            {
              "pitch": 68,
              "velocity": 103,
              "position": 16.510416666666668,
              "duration": 0.010416666666666666
            },
            {
              "pitch": 28,
              "velocity": 96,
              "position": 16.51875,
              "duration": 0.010416666666666666
            },
            {
              "pitch": 68,
              "velocity": 54,
              "position": 16.729166666666668,
              "duration": 0.010416666666666666
            },
            {
              "pitch": 22,
              "velocity": 50,
              "position": 16.745833333333334,
              "duration": 0.010416666666666666
            },
            {
              "pitch": 73,
              "velocity": 46,
              "position": 16.747916666666665,
              "duration": 0.010416666666666666
            },
            {
              "pitch": 37,
              "velocity": 50,
              "position": 16.752083333333335,
              "duration": 0.010416666666666666
            },
            {
              "pitch": 68,
              "velocity": 81,
              "position": 16.98125,
              "duration": 0.010416666666666666
            },
            {
              "pitch": 38,
              "velocity": 127,
              "position": 17.002083333333335,
              "duration": 0.010416666666666666
            },
            {
              "pitch": 23,
              "velocity": 99,
              "position": 17.014583333333334,
              "duration": 0.010416666666666666
            },
            {
              "pitch": 73,
              "velocity": 95,
              "position": 17.014583333333334,
              "duration": 0.010416666666666666
            },
            {
              "pitch": 18,
              "velocity": 82,
              "position": 17.020833333333332,
              "duration": 0.010416666666666666
            },
            {
              "pitch": 73,
              "velocity": 51,
              "position": 17.2375,
              "duration": 0.010416666666666666
            },
            {
              "pitch": 22,
              "velocity": 50,
              "position": 17.239583333333332,
              "duration": 0.010416666666666666
            },
            {
              "pitch": 40,
              "velocity": 30,
              "position": 17.252083333333335,
              "duration": 0.010416666666666666
            },
            {
              "pitch": 68,
              "velocity": 55,
              "position": 17.254166666666666,
              "duration": 0.010416666666666666
            },
            {
              "pitch": 73,
              "velocity": 78,
              "position": 17.495833333333334,
              "duration": 0.010416666666666666
            },
            {
              "pitch": 68,
              "velocity": 101,
              "position": 17.5,
              "duration": 0.010416666666666666
            },
            {
              "pitch": 44,
              "velocity": 127,
              "position": 17.502083333333335,
              "duration": 0.010416666666666666
            },
            {
              "pitch": 24,
              "velocity": 95,
              "position": 17.516666666666666,
              "duration": 0.010416666666666666
            },
            {
              "pitch": 68,
              "velocity": 50,
              "position": 17.741666666666667,
              "duration": 0.010416666666666666
            },
            {
              "pitch": 73,
              "velocity": 50,
              "position": 17.75,
              "duration": 0.010416666666666666
            },
            {
              "pitch": 40,
              "velocity": 30,
              "position": 17.752083333333335,
              "duration": 0.010416666666666666
            },
            {
              "pitch": 25,
              "velocity": 92,
              "position": 17.76875,
              "duration": 0.010416666666666666
            },
            {
              "pitch": 68,
              "velocity": 83,
              "position": 17.979166666666668,
              "duration": 0.010416666666666666
            },
            {
              "pitch": 23,
              "velocity": 101,
              "position": 18,
              "duration": 0.010416666666666666
            },
            {
              "pitch": 36,
              "velocity": 127,
              "position": 18.002083333333335,
              "duration": 0.010416666666666666
            },
            {
              "pitch": 73,
              "velocity": 97,
              "position": 18.004166666666666,
              "duration": 0.010416666666666666
            },
            {
              "pitch": 22,
              "velocity": 50,
              "position": 18.241666666666667,
              "duration": 0.010416666666666666
            },
            {
              "pitch": 73,
              "velocity": 43,
              "position": 18.247916666666665,
              "duration": 0.010416666666666666
            },
            {
              "pitch": 40,
              "velocity": 40,
              "position": 18.252083333333335,
              "duration": 0.010416666666666666
            },
            {
              "pitch": 68,
              "velocity": 48,
              "position": 18.252083333333335,
              "duration": 0.010416666666666666
            },
            {
              "pitch": 73,
              "velocity": 77,
              "position": 18.489583333333332,
              "duration": 0.010416666666666666
            },
            {
              "pitch": 39,
              "velocity": 70,
              "position": 18.502083333333335,
              "duration": 0.010416666666666666
            },
            {
              "pitch": 68,
              "velocity": 100,
              "position": 18.504166666666666,
              "duration": 0.010416666666666666
            },
            {
              "pitch": 28,
              "velocity": 95,
              "position": 18.510416666666668,
              "duration": 0.010416666666666666
            },
            {
              "pitch": 68,
              "velocity": 48,
              "position": 18.747916666666665,
              "duration": 0.010416666666666666
            },
            {
              "pitch": 73,
              "velocity": 47,
              "position": 18.747916666666665,
              "duration": 0.010416666666666666
            },
            {
              "pitch": 22,
              "velocity": 50,
              "position": 18.75,
              "duration": 0.010416666666666666
            },
            {
              "pitch": 37,
              "velocity": 50,
              "position": 18.752083333333335,
              "duration": 0.010416666666666666
            },
            {
              "pitch": 18,
              "velocity": 82,
              "position": 18.977083333333333,
              "duration": 0.010416666666666666
            },
            {
              "pitch": 68,
              "velocity": 80,
              "position": 18.989583333333332,
              "duration": 0.010416666666666666
            },
            {
              "pitch": 23,
              "velocity": 99,
              "position": 19.002083333333335,
              "duration": 0.010416666666666666
            },
            {
              "pitch": 38,
              "velocity": 127,
              "position": 19.002083333333335,
              "duration": 0.010416666666666666
            },
            {
              "pitch": 73,
              "velocity": 101,
              "position": 19.00625,
              "duration": 0.010416666666666666
            },
            {
              "pitch": 73,
              "velocity": 47,
              "position": 19.233333333333334,
              "duration": 0.010416666666666666
            },
            {
              "pitch": 68,
              "velocity": 52,
              "position": 19.247916666666665,
              "duration": 0.010416666666666666
            },
            {
              "pitch": 40,
              "velocity": 30,
              "position": 19.252083333333335,
              "duration": 0.010416666666666666
            },
            {
              "pitch": 22,
              "velocity": 50,
              "position": 19.258333333333333,
              "duration": 0.010416666666666666
            },
            {
              "pitch": 73,
              "velocity": 79,
              "position": 19.48125,
              "duration": 0.010416666666666666
            },
            {
              "pitch": 43,
              "velocity": 127,
              "position": 19.502083333333335,
              "duration": 0.010416666666666666
            },
            {
              "pitch": 68,
              "velocity": 102,
              "position": 19.504166666666666,
              "duration": 0.010416666666666666
            },
            {
              "pitch": 31,
              "velocity": 96,
              "position": 19.516666666666666,
              "duration": 0.010416666666666666
            },
            {
              "pitch": 68,
              "velocity": 49,
              "position": 19.729166666666668,
              "duration": 0.010416666666666666
            },
            {
              "pitch": 73,
              "velocity": 47,
              "position": 19.741666666666667,
              "duration": 0.010416666666666666
            },
            {
              "pitch": 40,
              "velocity": 30,
              "position": 19.752083333333335,
              "duration": 0.010416666666666666
            },
            {
              "pitch": 31,
              "velocity": 64,
              "position": 19.7625,
              "duration": 0.010416666666666666
            },
            {
              "pitch": 23,
              "velocity": 98,
              "position": 20.010416666666668,
              "duration": 0.010416666666666666
            },
            {
              "pitch": 36,
              "velocity": 127,
              "position": 20.010416666666668,
              "duration": 0.010416666666666666
            },
            {
              "pitch": 68,
              "velocity": 78,
              "position": 20.010416666666668,
              "duration": 0.010416666666666666
            },
            {
              "pitch": 73,
              "velocity": 99,
              "position": 20.010416666666668,
              "duration": 0.010416666666666666
            },
            {
              "pitch": 73,
              "velocity": 43,
              "position": 20.233333333333334,
              "duration": 0.010416666666666666
            },
            {
              "pitch": 22,
              "velocity": 50,
              "position": 20.25,
              "duration": 0.010416666666666666
            },
            {
              "pitch": 40,
              "velocity": 40,
              "position": 20.252083333333335,
              "duration": 0.010416666666666666
            },
            {
              "pitch": 68,
              "velocity": 49,
              "position": 20.25625,
              "duration": 0.010416666666666666
            },
            {
              "pitch": 73,
              "velocity": 73,
              "position": 20.4875,
              "duration": 0.010416666666666666
            },
            {
              "pitch": 28,
              "velocity": 93,
              "position": 20.5,
              "duration": 0.010416666666666666
            },
            {
              "pitch": 39,
              "velocity": 70,
              "position": 20.502083333333335,
              "duration": 0.010416666666666666
            },
            {
              "pitch": 68,
              "velocity": 105,
              "position": 20.516666666666666,
              "duration": 0.010416666666666666
            },
            {
              "pitch": 68,
              "velocity": 52,
              "position": 20.745833333333334,
              "duration": 0.010416666666666666
            },
            {
              "pitch": 73,
              "velocity": 50,
              "position": 20.75,
              "duration": 0.010416666666666666
            },
            {
              "pitch": 22,
              "velocity": 50,
              "position": 20.752083333333335,
              "duration": 0.010416666666666666
            },
            {
              "pitch": 37,
              "velocity": 50,
              "position": 20.752083333333335,
              "duration": 0.010416666666666666
            },
            {
              "pitch": 68,
              "velocity": 78,
              "position": 20.979166666666668,
              "duration": 0.010416666666666666
            },
            {
              "pitch": 18,
              "velocity": 82,
              "position": 20.997916666666665,
              "duration": 0.010416666666666666
            },
            {
              "pitch": 38,
              "velocity": 127,
              "position": 21.002083333333335,
              "duration": 0.010416666666666666
            },
            {
              "pitch": 23,
              "velocity": 99,
              "position": 21.008333333333333,
              "duration": 0.010416666666666666
            },
            {
              "pitch": 73,
              "velocity": 99,
              "position": 21.016666666666666,
              "duration": 0.010416666666666666
            },
            {
              "pitch": 73,
              "velocity": 51,
              "position": 21.229166666666668,
              "duration": 0.010416666666666666
            },
            {
              "pitch": 68,
              "velocity": 49,
              "position": 21.241666666666667,
              "duration": 0.010416666666666666
            },
            {
              "pitch": 40,
              "velocity": 30,
              "position": 21.252083333333335,
              "duration": 0.010416666666666666
            },
            {
              "pitch": 22,
              "velocity": 50,
              "position": 21.25625,
              "duration": 0.010416666666666666
            },
            {
              "pitch": 73,
              "velocity": 79,
              "position": 21.4875,
              "duration": 0.010416666666666666
            },
            {
              "pitch": 42,
              "velocity": 127,
              "position": 21.502083333333335,
              "duration": 0.010416666666666666
            },
            {
              "pitch": 68,
              "velocity": 102,
              "position": 21.508333333333333,
              "duration": 0.010416666666666666
            },
            {
              "pitch": 24,
              "velocity": 99,
              "position": 21.51875,
              "duration": 0.010416666666666666
            },
            {
              "pitch": 68,
              "velocity": 48,
              "position": 21.7375,
              "duration": 0.010416666666666666
            },
            {
              "pitch": 40,
              "velocity": 30,
              "position": 21.752083333333335,
              "duration": 0.010416666666666666
            },
            {
              "pitch": 73,
              "velocity": 46,
              "position": 21.752083333333335,
              "duration": 0.010416666666666666
            },
            {
              "pitch": 25,
              "velocity": 95,
              "position": 21.75625,
              "duration": 0.010416666666666666
            },
            {
              "pitch": 68,
              "velocity": 81,
              "position": 21.995833333333334,
              "duration": 0.010416666666666666
            },
            {
              "pitch": 36,
              "velocity": 127,
              "position": 22.002083333333335,
              "duration": 0.010416666666666666
            },
            {
              "pitch": 73,
              "velocity": 101,
              "position": 22.00625,
              "duration": 0.010416666666666666
            },
            {
              "pitch": 23,
              "velocity": 101,
              "position": 22.0125,
              "duration": 0.010416666666666666
            },
            {
              "pitch": 68,
              "velocity": 50,
              "position": 22.239583333333332,
              "duration": 0.010416666666666666
            },
            {
              "pitch": 73,
              "velocity": 43,
              "position": 22.239583333333332,
              "duration": 0.010416666666666666
            },
            {
              "pitch": 40,
              "velocity": 40,
              "position": 22.252083333333335,
              "duration": 0.010416666666666666
            },
            {
              "pitch": 22,
              "velocity": 50,
              "position": 22.258333333333333,
              "duration": 0.010416666666666666
            },
            {
              "pitch": 73,
              "velocity": 77,
              "position": 22.483333333333334,
              "duration": 0.010416666666666666
            },
            {
              "pitch": 39,
              "velocity": 70,
              "position": 22.502083333333335,
              "duration": 0.010416666666666666
            },
            {
              "pitch": 28,
              "velocity": 99,
              "position": 22.510416666666668,
              "duration": 0.010416666666666666
            },
            {
              "pitch": 68,
              "velocity": 102,
              "position": 22.510416666666668,
              "duration": 0.010416666666666666
            },
            {
              "pitch": 68,
              "velocity": 55,
              "position": 22.745833333333334,
              "duration": 0.010416666666666666
            },
            {
              "pitch": 73,
              "velocity": 43,
              "position": 22.75,
              "duration": 0.010416666666666666
            },
            {
              "pitch": 37,
              "velocity": 50,
              "position": 22.752083333333335,
              "duration": 0.010416666666666666
            },
            {
              "pitch": 22,
              "velocity": 50,
              "position": 22.75625,
              "duration": 0.010416666666666666
            },
            {
              "pitch": 18,
              "velocity": 82,
              "position": 22.977083333333333,
              "duration": 0.010416666666666666
            },
            {
              "pitch": 68,
              "velocity": 86,
              "position": 22.9875,
              "duration": 0.010416666666666666
            },
            {
              "pitch": 38,
              "velocity": 127,
              "position": 23.002083333333335,
              "duration": 0.010416666666666666
            },
            {
              "pitch": 73,
              "velocity": 97,
              "position": 23.008333333333333,
              "duration": 0.010416666666666666
            },
            {
              "pitch": 23,
              "velocity": 99,
              "position": 23.0125,
              "duration": 0.010416666666666666
            },
            {
              "pitch": 73,
              "velocity": 47,
              "position": 23.245833333333334,
              "duration": 0.010416666666666666
            },
            {
              "pitch": 36,
              "velocity": 69,
              "position": 23.252083333333335,
              "duration": 0.010416666666666666
            },
            {
              "pitch": 68,
              "velocity": 54,
              "position": 23.254166666666666,
              "duration": 0.010416666666666666
            },
            {
              "pitch": 22,
              "velocity": 50,
              "position": 23.25625,
              "duration": 0.010416666666666666
            },
            {
              "pitch": 73,
              "velocity": 79,
              "position": 23.49375,
              "duration": 0.010416666666666666
            },
            {
              "pitch": 43,
              "velocity": 127,
              "position": 23.502083333333335,
              "duration": 0.010416666666666666
            },
            {
              "pitch": 68,
              "velocity": 104,
              "position": 23.510416666666668,
              "duration": 0.010416666666666666
            },
            {
              "pitch": 31,
              "velocity": 93,
              "position": 23.51875,
              "duration": 0.010416666666666666
            },
            {
              "pitch": 73,
              "velocity": 43,
              "position": 23.74375,
              "duration": 0.010416666666666666
            },
            {
              "pitch": 68,
              "velocity": 56,
              "position": 23.745833333333334,
              "duration": 0.010416666666666666
            },
            {
              "pitch": 31,
              "velocity": 67,
              "position": 23.75,
              "duration": 0.010416666666666666
            },
            {
              "pitch": 40,
              "velocity": 30,
              "position": 23.752083333333335,
              "duration": 0.010416666666666666
            },
            {
              "pitch": 23,
              "velocity": 98,
              "position": 24.010416666666668,
              "duration": 0.010416666666666666
            },
            {
              "pitch": 36,
              "velocity": 127,
              "position": 24.010416666666668,
              "duration": 0.010416666666666666
            },
            {
              "pitch": 68,
              "velocity": 84,
              "position": 24.010416666666668,
              "duration": 0.010416666666666666
            },
            {
              "pitch": 73,
              "velocity": 95,
              "position": 24.010416666666668,
              "duration": 0.010416666666666666
            },
            {
              "pitch": 68,
              "velocity": 52,
              "position": 24.24375,
              "duration": 0.010416666666666666
            },
            {
              "pitch": 73,
              "velocity": 43,
              "position": 24.245833333333334,
              "duration": 0.010416666666666666
            },
            {
              "pitch": 22,
              "velocity": 50,
              "position": 24.247916666666665,
              "duration": 0.010416666666666666
            },
            {
              "pitch": 40,
              "velocity": 40,
              "position": 24.252083333333335,
              "duration": 0.010416666666666666
            },
            {
              "pitch": 73,
              "velocity": 73,
              "position": 24.479166666666668,
              "duration": 0.010416666666666666
            },
            {
              "pitch": 28,
              "velocity": 96,
              "position": 24.502083333333335,
              "duration": 0.010416666666666666
            },
            {
              "pitch": 39,
              "velocity": 70,
              "position": 24.502083333333335,
              "duration": 0.010416666666666666
            },
            {
              "pitch": 68,
              "velocity": 99,
              "position": 24.50625,
              "duration": 0.010416666666666666
            },
            {
              "pitch": 68,
              "velocity": 50,
              "position": 24.74375,
              "duration": 0.010416666666666666
            },
            {
              "pitch": 37,
              "velocity": 50,
              "position": 24.752083333333335,
              "duration": 0.010416666666666666
            },
            {
              "pitch": 73,
              "velocity": 46,
              "position": 24.752083333333335,
              "duration": 0.010416666666666666
            },
            {
              "pitch": 22,
              "velocity": 50,
              "position": 24.758333333333333,
              "duration": 0.010416666666666666
            },
            {
              "pitch": 68,
              "velocity": 85,
              "position": 24.995833333333334,
              "duration": 0.010416666666666666
            },
            {
              "pitch": 18,
              "velocity": 82,
              "position": 25,
              "duration": 0.010416666666666666
            },
            {
              "pitch": 38,
              "velocity": 127,
              "position": 25.002083333333335,
              "duration": 0.010416666666666666
            },
            {
              "pitch": 23,
              "velocity": 99,
              "position": 25.01875,
              "duration": 0.010416666666666666
            },
            {
              "pitch": 73,
              "velocity": 95,
              "position": 25.01875,
              "duration": 0.010416666666666666
            },
            {
              "pitch": 73,
              "velocity": 51,
              "position": 25.241666666666667,
              "duration": 0.010416666666666666
            },
            {
              "pitch": 68,
              "velocity": 51,
              "position": 25.247916666666665,
              "duration": 0.010416666666666666
            },
            {
              "pitch": 40,
              "velocity": 30,
              "position": 25.252083333333335,
              "duration": 0.010416666666666666
            },
            {
              "pitch": 22,
              "velocity": 50,
              "position": 25.254166666666666,
              "duration": 0.010416666666666666
            },
            {
              "pitch": 73,
              "velocity": 79,
              "position": 25.479166666666668,
              "duration": 0.010416666666666666
            },
            {
              "pitch": 24,
              "velocity": 96,
              "position": 25.5,
              "duration": 0.010416666666666666
            },
            {
              "pitch": 44,
              "velocity": 127,
              "position": 25.502083333333335,
              "duration": 0.010416666666666666
            },
            {
              "pitch": 68,
              "velocity": 105,
              "position": 25.514583333333334,
              "duration": 0.010416666666666666
            },
            {
              "pitch": 68,
              "velocity": 55,
              "position": 25.735416666666666,
              "duration": 0.010416666666666666
            },
            {
              "pitch": 40,
              "velocity": 30,
              "position": 25.752083333333335,
              "duration": 0.010416666666666666
            },
            {
              "pitch": 73,
              "velocity": 50,
              "position": 25.754166666666666,
              "duration": 0.010416666666666666
            },
            {
              "pitch": 25,
              "velocity": 96,
              "position": 25.764583333333334,
              "duration": 0.010416666666666666
            },
            {
              "pitch": 68,
              "velocity": 79,
              "position": 25.991666666666667,
              "duration": 0.010416666666666666
            },
            {
              "pitch": 36,
              "velocity": 127,
              "position": 26.002083333333335,
              "duration": 0.010416666666666666
            },
            {
              "pitch": 23,
              "velocity": 101,
              "position": 26.00625,
              "duration": 0.010416666666666666
            },
            {
              "pitch": 73,
              "velocity": 97,
              "position": 26.008333333333333,
              "duration": 0.010416666666666666
            },
            {
              "pitch": 73,
              "velocity": 43,
              "position": 26.23125,
              "duration": 0.010416666666666666
            },
            {
              "pitch": 68,
              "velocity": 52,
              "position": 26.247916666666665,
              "duration": 0.010416666666666666
            },
            {
              "pitch": 40,
              "velocity": 40,
              "position": 26.252083333333335,
              "duration": 0.010416666666666666
            },
            {
              "pitch": 22,
              "velocity": 50,
              "position": 26.25625,
              "duration": 0.010416666666666666
            },
            {
              "pitch": 73,
              "velocity": 78,
              "position": 26.495833333333334,
              "duration": 0.010416666666666666
            },
            {
              "pitch": 39,
              "velocity": 70,
              "position": 26.502083333333335,
              "duration": 0.010416666666666666
            },
            {
              "pitch": 28,
              "velocity": 96,
              "position": 26.5125,
              "duration": 0.010416666666666666
            },
            {
              "pitch": 68,
              "velocity": 104,
              "position": 26.51875,
              "duration": 0.010416666666666666
            },
            {
              "pitch": 68,
              "velocity": 53,
              "position": 26.741666666666667,
              "duration": 0.010416666666666666
            },
            {
              "pitch": 22,
              "velocity": 50,
              "position": 26.74375,
              "duration": 0.010416666666666666
            },
            {
              "pitch": 37,
              "velocity": 50,
              "position": 26.752083333333335,
              "duration": 0.010416666666666666
            },
            {
              "pitch": 73,
              "velocity": 47,
              "position": 26.752083333333335,
              "duration": 0.010416666666666666
            },
            {
              "pitch": 68,
              "velocity": 84,
              "position": 26.985416666666666,
              "duration": 0.010416666666666666
            },
            {
              "pitch": 38,
              "velocity": 127,
              "position": 27.002083333333335,
              "duration": 0.010416666666666666
            },
            {
              "pitch": 23,
              "velocity": 100,
              "position": 27.00625,
              "duration": 0.010416666666666666
            },
            {
              "pitch": 73,
              "velocity": 93,
              "position": 27.010416666666668,
              "duration": 0.010416666666666666
            },
            {
              "pitch": 18,
              "velocity": 82,
              "position": 27.01875,
              "duration": 0.010416666666666666
            },
            {
              "pitch": 73,
              "velocity": 47,
              "position": 27.2375,
              "duration": 0.010416666666666666
            },
            {
              "pitch": 68,
              "velocity": 48,
              "position": 27.241666666666667,
              "duration": 0.010416666666666666
            },
            {
              "pitch": 22,
              "velocity": 50,
              "position": 27.252083333333335,
              "duration": 0.010416666666666666
            },
            {
              "pitch": 40,
              "velocity": 30,
              "position": 27.252083333333335,
              "duration": 0.010416666666666666
            },
            {
              "pitch": 73,
              "velocity": 79,
              "position": 27.485416666666666,
              "duration": 0.010416666666666666
            },
            {
              "pitch": 31,
              "velocity": 96,
              "position": 27.502083333333335,
              "duration": 0.010416666666666666
            },
            {
              "pitch": 43,
              "velocity": 127,
              "position": 27.502083333333335,
              "duration": 0.010416666666666666
            },
            {
              "pitch": 68,
              "velocity": 106,
              "position": 27.51875,
              "duration": 0.010416666666666666
            },
            {
              "pitch": 68,
              "velocity": 53,
              "position": 27.74375,
              "duration": 0.010416666666666666
            },
            {
              "pitch": 73,
              "velocity": 48,
              "position": 27.745833333333334,
              "duration": 0.010416666666666666
            },
            {
              "pitch": 40,
              "velocity": 30,
              "position": 27.752083333333335,
              "duration": 0.010416666666666666
            },
            {
              "pitch": 31,
              "velocity": 62,
              "position": 27.758333333333333,
              "duration": 0.010416666666666666
            },
            {
              "pitch": 23,
              "velocity": 98,
              "position": 28.010416666666668,
              "duration": 0.010416666666666666
            },
            {
              "pitch": 36,
              "velocity": 127,
              "position": 28.010416666666668,
              "duration": 0.010416666666666666
            },
            {
              "pitch": 68,
              "velocity": 82,
              "position": 28.010416666666668,
              "duration": 0.010416666666666666
            },
            {
              "pitch": 73,
              "velocity": 99,
              "position": 28.010416666666668,
              "duration": 0.010416666666666666
            },
            {
              "pitch": 73,
              "velocity": 43,
              "position": 28.2375,
              "duration": 0.010416666666666666
            },
            {
              "pitch": 22,
              "velocity": 50,
              "position": 28.245833333333334,
              "duration": 0.010416666666666666
            },
            {
              "pitch": 68,
              "velocity": 53,
              "position": 28.25,
              "duration": 0.010416666666666666
            },
            {
              "pitch": 40,
              "velocity": 40,
              "position": 28.252083333333335,
              "duration": 0.010416666666666666
            },
            {
              "pitch": 73,
              "velocity": 74,
              "position": 28.491666666666667,
              "duration": 0.010416666666666666
            },
            {
              "pitch": 39,
              "velocity": 70,
              "position": 28.502083333333335,
              "duration": 0.010416666666666666
            },
            {
              "pitch": 28,
              "velocity": 93,
              "position": 28.504166666666666,
              "duration": 0.010416666666666666
            },
            {
              "pitch": 68,
              "velocity": 102,
              "position": 28.5125,
              "duration": 0.010416666666666666
            },
            {
              "pitch": 68,
              "velocity": 48,
              "position": 28.739583333333332,
              "duration": 0.010416666666666666
            },
            {
              "pitch": 22,
              "velocity": 50,
              "position": 28.747916666666665,
              "duration": 0.010416666666666666
            },
            {
              "pitch": 37,
              "velocity": 50,
              "position": 28.752083333333335,
              "duration": 0.010416666666666666
            },
            {
              "pitch": 73,
              "velocity": 50,
              "position": 28.754166666666666,
              "duration": 0.010416666666666666
            },
            {
              "pitch": 68,
              "velocity": 83,
              "position": 28.99375,
              "duration": 0.010416666666666666
            },
            {
              "pitch": 38,
              "velocity": 127,
              "position": 29.002083333333335,
              "duration": 0.010416666666666666
            },
            {
              "pitch": 73,
              "velocity": 99,
              "position": 29.002083333333335,
              "duration": 0.010416666666666666
            },
            {
              "pitch": 23,
              "velocity": 100,
              "position": 29.010416666666668,
              "duration": 0.010416666666666666
            },
            {
              "pitch": 18,
              "velocity": 82,
              "position": 29.016666666666666,
              "duration": 0.010416666666666666
            },
            {
              "pitch": 73,
              "velocity": 51,
              "position": 29.233333333333334,
              "duration": 0.010416666666666666
            },
            {
              "pitch": 22,
              "velocity": 50,
              "position": 29.252083333333335,
              "duration": 0.010416666666666666
            },
            {
              "pitch": 40,
              "velocity": 30,
              "position": 29.252083333333335,
              "duration": 0.010416666666666666
            },
            {
              "pitch": 68,
              "velocity": 53,
              "position": 29.254166666666666,
              "duration": 0.010416666666666666
            },
            {
              "pitch": 73,
              "velocity": 79,
              "position": 29.491666666666667,
              "duration": 0.010416666666666666
            },
            {
              "pitch": 24,
              "velocity": 99,
              "position": 29.502083333333335,
              "duration": 0.010416666666666666
            },
            {
              "pitch": 42,
              "velocity": 127,
              "position": 29.502083333333335,
              "duration": 0.010416666666666666
            },
            {
              "pitch": 68,
              "velocity": 99,
              "position": 29.502083333333335,
              "duration": 0.010416666666666666
            },
            {
              "pitch": 68,
              "velocity": 52,
              "position": 29.733333333333334,
              "duration": 0.010416666666666666
            },
            {
              "pitch": 25,
              "velocity": 98,
              "position": 29.752083333333335,
              "duration": 0.010416666666666666
            },
            {
              "pitch": 40,
              "velocity": 30,
              "position": 29.752083333333335,
              "duration": 0.010416666666666666
            },
            {
              "pitch": 73,
              "velocity": 46,
              "position": 29.75625,
              "duration": 0.010416666666666666
            },
            {
              "pitch": 68,
              "velocity": 86,
              "position": 29.989583333333332,
              "duration": 0.010416666666666666
            },
            {
              "pitch": 36,
              "velocity": 127,
              "position": 30.002083333333335,
              "duration": 0.010416666666666666
            },
            {
              "pitch": 73,
              "velocity": 93,
              "position": 30.010416666666668,
              "duration": 0.010416666666666666
            },
            {
              "pitch": 23,
              "velocity": 101,
              "position": 30.016666666666666,
              "duration": 0.010416666666666666
            },
            {
              "pitch": 73,
              "velocity": 43,
              "position": 30.24375,
              "duration": 0.010416666666666666
            },
            {
              "pitch": 40,
              "velocity": 40,
              "position": 30.252083333333335,
              "duration": 0.010416666666666666
            },
            {
              "pitch": 22,
              "velocity": 50,
              "position": 30.254166666666666,
              "duration": 0.010416666666666666
            },
            {
              "pitch": 68,
              "velocity": 55,
              "position": 30.254166666666666,
              "duration": 0.010416666666666666
            },
            {
              "pitch": 73,
              "velocity": 78,
              "position": 30.4875,
              "duration": 0.010416666666666666
            },
            {
              "pitch": 39,
              "velocity": 70,
              "position": 30.502083333333335,
              "duration": 0.010416666666666666
            },
            {
              "pitch": 68,
              "velocity": 98,
              "position": 30.50625,
              "duration": 0.010416666666666666
            },
            {
              "pitch": 28,
              "velocity": 99,
              "position": 30.514583333333334,
              "duration": 0.010416666666666666
            },
            {
              "pitch": 18,
              "velocity": 82,
              "position": 30.520833333333332,
              "duration": 0.010416666666666666
            },
            {
              "pitch": 68,
              "velocity": 51,
              "position": 30.739583333333332,
              "duration": 0.010416666666666666
            },
            {
              "pitch": 22,
              "velocity": 50,
              "position": 30.75,
              "duration": 0.010416666666666666
            },
            {
              "pitch": 37,
              "velocity": 50,
              "position": 30.752083333333335,
              "duration": 0.010416666666666666
            },
            {
              "pitch": 73,
              "velocity": 44,
              "position": 30.754166666666666,
              "duration": 0.010416666666666666
            },
            {
              "pitch": 68,
              "velocity": 82,
              "position": 30.98125,
              "duration": 0.010416666666666666
            },
            {
              "pitch": 18,
              "velocity": 82,
              "position": 30.99375,
              "duration": 0.010416666666666666
            },
            {
              "pitch": 38,
              "velocity": 127,
              "position": 31.002083333333335,
              "duration": 0.010416666666666666
            },
            {
              "pitch": 73,
              "velocity": 97,
              "position": 31.0125,
              "duration": 0.010416666666666666
            },
            {
              "pitch": 23,
              "velocity": 100,
              "position": 31.016666666666666,
              "duration": 0.010416666666666666
            },
            {
              "pitch": 73,
              "velocity": 47,
              "position": 31.229166666666668,
              "duration": 0.010416666666666666
            },
            {
              "pitch": 68,
              "velocity": 50,
              "position": 31.247916666666665,
              "duration": 0.010416666666666666
            },
            {
              "pitch": 22,
              "velocity": 50,
              "position": 31.25,
              "duration": 0.010416666666666666
            },
            {
              "pitch": 36,
              "velocity": 69,
              "position": 31.252083333333335,
              "duration": 0.010416666666666666
            },
            {
              "pitch": 73,
              "velocity": 79,
              "position": 31.497916666666665,
              "duration": 0.010416666666666666
            },
            {
              "pitch": 43,
              "velocity": 127,
              "position": 31.502083333333335,
              "duration": 0.010416666666666666
            },
            {
              "pitch": 31,
              "velocity": 93,
              "position": 31.504166666666666,
              "duration": 0.010416666666666666
            },
            {
              "pitch": 68,
              "velocity": 100,
              "position": 31.50625,
              "duration": 0.010416666666666666
            },
            {
              "pitch": 68,
              "velocity": 52,
              "position": 31.741666666666667,
              "duration": 0.010416666666666666
            },
            {
              "pitch": 73,
              "velocity": 44,
              "position": 31.747916666666665,
              "duration": 0.010416666666666666
            },
            {
              "pitch": 40,
              "velocity": 30,
              "position": 31.752083333333335,
              "duration": 0.010416666666666666
            },
            {
              "pitch": 31,
              "velocity": 64,
              "position": 31.764583333333334,
              "duration": 0.010416666666666666
            }
          ]
        },
        "9": {
          "ctab": {
            "srcChannel": 9,
            "name": "Drums",
            "accType": "RHYTHM",
            "editable": false,
            "mutedNotes": [],
            "mutedChords": [],
            "autoStart": true,
            "sourceChordNote": 0,
            "sourceChordType": "Maj7",
            "ctb2Low": null,
            "ctb2Main": {
              "ntr": "ROOT_FIXED",
              "ntt": "BYPASS",
              "bassOn": false,
              "chordRootUpperLimit": 6,
              "noteLowLimit": 0,
              "noteHighLimit": 127,
              "rtr": "PITCH_SHIFT"
            },
            "ctb2High": null
          },
          "notes": [
            {
              "pitch": 35,
              "velocity": 100,
              "position": 0,
              "duration": 0.010416666666666666
            },
            {
              "pitch": 44,
              "velocity": 37,
              "position": 0,
              "duration": 0.010416666666666666
            },
            {
              "pitch": 46,
              "velocity": 67,
              "position": 0.5020833333333333,
              "duration": 0.010416666666666666
            },
            {
              "pitch": 35,
              "velocity": 100,
              "position": 1,
              "duration": 0.010416666666666666
            },
            {
              "pitch": 38,
              "velocity": 105,
              "position": 1,
              "duration": 0.010416666666666666
            },
            {
              "pitch": 44,
              "velocity": 41,
              "position": 1.0020833333333334,
              "duration": 0.010416666666666666
            },
            {
              "pitch": 46,
              "velocity": 63,
              "position": 1.50625,
              "duration": 0.010416666666666666
            },
            {
              "pitch": 35,
              "velocity": 100,
              "position": 2,
              "duration": 0.010416666666666666
            },
            {
              "pitch": 44,
              "velocity": 34,
              "position": 2,
              "duration": 0.010416666666666666
            },
            {
              "pitch": 46,
              "velocity": 67,
              "position": 2.504166666666667,
              "duration": 0.010416666666666666
            },
            {
              "pitch": 35,
              "velocity": 100,
              "position": 3,
              "duration": 0.010416666666666666
            },
            {
              "pitch": 38,
              "velocity": 105,
              "position": 3,
              "duration": 0.010416666666666666
            },
            {
              "pitch": 44,
              "velocity": 32,
              "position": 3.0083333333333333,
              "duration": 0.010416666666666666
            },
            {
              "pitch": 46,
              "velocity": 64,
              "position": 3.497916666666667,
              "duration": 0.010416666666666666
            },
            {
              "pitch": 44,
              "velocity": 32,
              "position": 3.99375,
              "duration": 0.010416666666666666
            },
            {
              "pitch": 35,
              "velocity": 100,
              "position": 4,
              "duration": 0.010416666666666666
            },
            {
              "pitch": 46,
              "velocity": 66,
              "position": 4.504166666666666,
              "duration": 0.010416666666666666
            },
            {
              "pitch": 44,
              "velocity": 41,
              "position": 4.991666666666666,
              "duration": 0.010416666666666666
            },
            {
              "pitch": 35,
              "velocity": 100,
              "position": 5,
              "duration": 0.010416666666666666
            },
            {
              "pitch": 38,
              "velocity": 105,
              "position": 5,
              "duration": 0.010416666666666666
            },
            {
              "pitch": 46,
              "velocity": 64,
              "position": 5.502083333333333,
              "duration": 0.010416666666666666
            },
            {
              "pitch": 35,
              "velocity": 100,
              "position": 6,
              "duration": 0.010416666666666666
            },
            {
              "pitch": 44,
              "velocity": 32,
              "position": 6.004166666666666,
              "duration": 0.010416666666666666
            },
            {
              "pitch": 46,
              "velocity": 65,
              "position": 6.497916666666667,
              "duration": 0.010416666666666666
            },
            {
              "pitch": 35,
              "velocity": 100,
              "position": 7,
              "duration": 0.010416666666666666
            },
            {
              "pitch": 38,
              "velocity": 105,
              "position": 7,
              "duration": 0.010416666666666666
            },
            {
              "pitch": 44,
              "velocity": 34,
              "position": 7.008333333333334,
              "duration": 0.010416666666666666
            },
            {
              "pitch": 46,
              "velocity": 65,
              "position": 7.504166666666666,
              "duration": 0.010416666666666666
            },
            {
              "pitch": 35,
              "velocity": 100,
              "position": 8,
              "duration": 0.010416666666666666
            },
            {
              "pitch": 44,
              "velocity": 38,
              "position": 8.008333333333333,
              "duration": 0.010416666666666666
            },
            {
              "pitch": 46,
              "velocity": 62,
              "position": 8.50625,
              "duration": 0.010416666666666666
            },
            {
              "pitch": 35,
              "velocity": 100,
              "position": 9,
              "duration": 0.010416666666666666
            },
            {
              "pitch": 38,
              "velocity": 105,
              "position": 9,
              "duration": 0.010416666666666666
            },
            {
              "pitch": 44,
              "velocity": 36,
              "position": 9,
              "duration": 0.010416666666666666
            },
            {
              "pitch": 46,
              "velocity": 64,
              "position": 9.5,
              "duration": 0.010416666666666666
            },
            {
              "pitch": 35,
              "velocity": 100,
              "position": 10,
              "duration": 0.010416666666666666
            },
            {
              "pitch": 44,
              "velocity": 39,
              "position": 10.008333333333333,
              "duration": 0.010416666666666666
            },
            {
              "pitch": 46,
              "velocity": 68,
              "position": 10.508333333333333,
              "duration": 0.010416666666666666
            },
            {
              "pitch": 35,
              "velocity": 100,
              "position": 11,
              "duration": 0.010416666666666666
            },
            {
              "pitch": 38,
              "velocity": 105,
              "position": 11,
              "duration": 0.010416666666666666
            },
            {
              "pitch": 44,
              "velocity": 29,
              "position": 11.008333333333333,
              "duration": 0.010416666666666666
            },
            {
              "pitch": 46,
              "velocity": 63,
              "position": 11.491666666666667,
              "duration": 0.010416666666666666
            },
            {
              "pitch": 35,
              "velocity": 100,
              "position": 12,
              "duration": 0.010416666666666666
            },
            {
              "pitch": 44,
              "velocity": 38,
              "position": 12.002083333333333,
              "duration": 0.010416666666666666
            },
            {
              "pitch": 46,
              "velocity": 63,
              "position": 12.508333333333333,
              "duration": 0.010416666666666666
            },
            {
              "pitch": 44,
              "velocity": 41,
              "position": 12.991666666666667,
              "duration": 0.010416666666666666
            },
            {
              "pitch": 35,
              "velocity": 100,
              "position": 13,
              "duration": 0.010416666666666666
            },
            {
              "pitch": 38,
              "velocity": 105,
              "position": 13,
              "duration": 0.010416666666666666
            },
            {
              "pitch": 46,
              "velocity": 69,
              "position": 13.497916666666667,
              "duration": 0.010416666666666666
            },
            {
              "pitch": 44,
              "velocity": 40,
              "position": 13.99375,
              "duration": 0.010416666666666666
            },
            {
              "pitch": 35,
              "velocity": 100,
              "position": 14,
              "duration": 0.010416666666666666
            },
            {
              "pitch": 46,
              "velocity": 60,
              "position": 14.5,
              "duration": 0.010416666666666666
            },
            {
              "pitch": 35,
              "velocity": 100,
              "position": 15,
              "duration": 0.010416666666666666
            },
            {
              "pitch": 38,
              "velocity": 105,
              "position": 15,
              "duration": 0.010416666666666666
            },
            {
              "pitch": 46,
              "velocity": 40,
              "position": 15.008333333333333,
              "duration": 0.010416666666666666
            },
            {
              "pitch": 46,
              "velocity": 63,
              "position": 15.5,
              "duration": 0.010416666666666666
            },
            {
              "pitch": 35,
              "velocity": 100,
              "position": 16,
              "duration": 0.010416666666666666
            },
            {
              "pitch": 44,
              "velocity": 37,
              "position": 16,
              "duration": 0.010416666666666666
            },
            {
              "pitch": 46,
              "velocity": 67,
              "position": 16.502083333333335,
              "duration": 0.010416666666666666
            },
            {
              "pitch": 35,
              "velocity": 100,
              "position": 17,
              "duration": 0.010416666666666666
            },
            {
              "pitch": 38,
              "velocity": 105,
              "position": 17,
              "duration": 0.010416666666666666
            },
            {
              "pitch": 44,
              "velocity": 41,
              "position": 17.002083333333335,
              "duration": 0.010416666666666666
            },
            {
              "pitch": 46,
              "velocity": 63,
              "position": 17.50625,
              "duration": 0.010416666666666666
            },
            {
              "pitch": 35,
              "velocity": 100,
              "position": 18,
              "duration": 0.010416666666666666
            },
            {
              "pitch": 44,
              "velocity": 34,
              "position": 18,
              "duration": 0.010416666666666666
            },
            {
              "pitch": 46,
              "velocity": 67,
              "position": 18.504166666666666,
              "duration": 0.010416666666666666
            },
            {
              "pitch": 35,
              "velocity": 100,
              "position": 19,
              "duration": 0.010416666666666666
            },
            {
              "pitch": 38,
              "velocity": 105,
              "position": 19,
              "duration": 0.010416666666666666
            },
            {
              "pitch": 44,
              "velocity": 32,
              "position": 19.008333333333333,
              "duration": 0.010416666666666666
            },
            {
              "pitch": 46,
              "velocity": 64,
              "position": 19.497916666666665,
              "duration": 0.010416666666666666
            },
            {
              "pitch": 44,
              "velocity": 32,
              "position": 19.99375,
              "duration": 0.010416666666666666
            },
            {
              "pitch": 35,
              "velocity": 100,
              "position": 20,
              "duration": 0.010416666666666666
            },
            {
              "pitch": 46,
              "velocity": 66,
              "position": 20.504166666666666,
              "duration": 0.010416666666666666
            },
            {
              "pitch": 44,
              "velocity": 41,
              "position": 20.991666666666667,
              "duration": 0.010416666666666666
            },
            {
              "pitch": 35,
              "velocity": 100,
              "position": 21,
              "duration": 0.010416666666666666
            },
            {
              "pitch": 38,
              "velocity": 105,
              "position": 21,
              "duration": 0.010416666666666666
            },
            {
              "pitch": 46,
              "velocity": 64,
              "position": 21.502083333333335,
              "duration": 0.010416666666666666
            },
            {
              "pitch": 35,
              "velocity": 100,
              "position": 22,
              "duration": 0.010416666666666666
            },
            {
              "pitch": 44,
              "velocity": 32,
              "position": 22.004166666666666,
              "duration": 0.010416666666666666
            },
            {
              "pitch": 46,
              "velocity": 65,
              "position": 22.497916666666665,
              "duration": 0.010416666666666666
            },
            {
              "pitch": 35,
              "velocity": 100,
              "position": 23,
              "duration": 0.010416666666666666
            },
            {
              "pitch": 38,
              "velocity": 105,
              "position": 23,
              "duration": 0.010416666666666666
            },
            {
              "pitch": 44,
              "velocity": 34,
              "position": 23.008333333333333,
              "duration": 0.010416666666666666
            },
            {
              "pitch": 46,
              "velocity": 65,
              "position": 23.504166666666666,
              "duration": 0.010416666666666666
            },
            {
              "pitch": 35,
              "velocity": 100,
              "position": 24,
              "duration": 0.010416666666666666
            },
            {
              "pitch": 44,
              "velocity": 38,
              "position": 24.008333333333333,
              "duration": 0.010416666666666666
            },
            {
              "pitch": 46,
              "velocity": 62,
              "position": 24.50625,
              "duration": 0.010416666666666666
            },
            {
              "pitch": 35,
              "velocity": 100,
              "position": 25,
              "duration": 0.010416666666666666
            },
            {
              "pitch": 38,
              "velocity": 105,
              "position": 25,
              "duration": 0.010416666666666666
            },
            {
              "pitch": 44,
              "velocity": 36,
              "position": 25,
              "duration": 0.010416666666666666
            },
            {
              "pitch": 46,
              "velocity": 64,
              "position": 25.5,
              "duration": 0.010416666666666666
            },
            {
              "pitch": 35,
              "velocity": 100,
              "position": 26,
              "duration": 0.010416666666666666
            },
            {
              "pitch": 44,
              "velocity": 39,
              "position": 26.008333333333333,
              "duration": 0.010416666666666666
            },
            {
              "pitch": 46,
              "velocity": 68,
              "position": 26.508333333333333,
              "duration": 0.010416666666666666
            },
            {
              "pitch": 35,
              "velocity": 100,
              "position": 27,
              "duration": 0.010416666666666666
            },
            {
              "pitch": 38,
              "velocity": 105,
              "position": 27,
              "duration": 0.010416666666666666
            },
            {
              "pitch": 44,
              "velocity": 29,
              "position": 27.008333333333333,
              "duration": 0.010416666666666666
            },
            {
              "pitch": 46,
              "velocity": 63,
              "position": 27.491666666666667,
              "duration": 0.010416666666666666
            },
            {
              "pitch": 35,
              "velocity": 100,
              "position": 28,
              "duration": 0.010416666666666666
            },
            {
              "pitch": 44,
              "velocity": 38,
              "position": 28.002083333333335,
              "duration": 0.010416666666666666
            },
            {
              "pitch": 46,
              "velocity": 63,
              "position": 28.508333333333333,
              "duration": 0.010416666666666666
            },
            {
              "pitch": 44,
              "velocity": 41,
              "position": 28.991666666666667,
              "duration": 0.010416666666666666
            },
            {
              "pitch": 35,
              "velocity": 100,
              "position": 29,
              "duration": 0.010416666666666666
            },
            {
              "pitch": 38,
              "velocity": 105,
              "position": 29,
              "duration": 0.010416666666666666
            },
            {
              "pitch": 46,
              "velocity": 69,
              "position": 29.497916666666665,
              "duration": 0.010416666666666666
            },
            {
              "pitch": 44,
              "velocity": 40,
              "position": 29.99375,
              "duration": 0.010416666666666666
            },
            {
              "pitch": 35,
              "velocity": 100,
              "position": 30,
              "duration": 0.010416666666666666
            },
            {
              "pitch": 46,
              "velocity": 60,
              "position": 30.5,
              "duration": 0.010416666666666666
            },
            {
              "pitch": 35,
              "velocity": 100,
              "position": 31,
              "duration": 0.010416666666666666
            },
            {
              "pitch": 38,
              "velocity": 105,
              "position": 31,
              "duration": 0.010416666666666666
            },
            {
              "pitch": 46,
              "velocity": 40,
              "position": 31.008333333333333,
              "duration": 0.010416666666666666
            },
            {
              "pitch": 46,
              "velocity": 63,
              "position": 31.5,
              "duration": 0.010416666666666666
            },
            {
              "pitch": 38,
              "velocity": 46,
              "position": 31.741666666666667,
              "duration": 0.010416666666666666
            },
            {
              "pitch": 38,
              "velocity": 70,
              "position": 31.872916666666665,
              "duration": 0.010416666666666666
            }
          ]
        },
        "10": {
          "ctab": {
            "srcChannel": 10,
            "name": "Bass FX",
            "accType": "BASS",
            "editable": false,
            "mutedNotes": [],
            "mutedChords": [],
            "autoStart": false,
            "sourceChordNote": 0,
            "sourceChordType": "7th",
            "ctb2Low": null,
            "ctb2Main": {
              "ntr": "ROOT_FIXED",
              "ntt": "BYPASS",
              "bassOn": false,
              "chordRootUpperLimit": 7,
              "noteLowLimit": 0,
              "noteHighLimit": 127,
              "rtr": "PITCH_SHIFT"
            },
            "ctb2High": null
          },
          "notes": []
        },
        "11": {
          "ctab": {
            "srcChannel": 11,
            "name": "Bass a",
            "accType": "BASS",
            "editable": false,
            "mutedNotes": [],
            "mutedChords": [
              "1+2+5",
              "sus4",
              "1+5",
              "1+8",
              "7aug",
              "Maj7aug",
              "7(#9)",
              "7(b13)",
              "7(b9)",
              "7(13)",
              "7#11",
              "7(9)",
              "7b5",
              "7sus4",
              "dim7",
              "dim",
              "minMaj7(9)",
              "minMaj7",
              "min7(11)",
              "min7(9)",
              "min(9)",
              "m7b5",
              "min7",
              "min6",
              "aug",
              "Maj6(9)",
              "Maj7(9)",
              "Maj(9)",
              "Maj7#11",
              "Maj7",
              "Maj6"
            ],
            "autoStart": false,
            "sourceChordNote": 0,
            "sourceChordType": "7th",
            "ctb2Low": null,
            "ctb2Main": {
              "ntr": "ROOT_TRANSPOSITION",
              "ntt": "MELODIC_MINOR_5",
              "bassOn": true,
              "chordRootUpperLimit": 8,
              "noteLowLimit": 28,
              "noteHighLimit": 127,
              "rtr": "PITCH_SHIFT_TO_ROOT"
            },
            "ctb2High": null
          },
          "notes": [
            {
              "pitch": 36,
              "velocity": 70,
              "position": 0,
              "duration": 0.4479166666666667
            },
            {
              "pitch": 36,
              "velocity": 100,
              "position": 0.5208333333333334,
              "duration": 0.21875
            },
            {
              "pitch": 36,
              "velocity": 70,
              "position": 0.7708333333333334,
              "duration": 0.21875
            },
            {
              "pitch": 43,
              "velocity": 100,
              "position": 1.0208333333333333,
              "duration": 0.21875
            },
            {
              "pitch": 48,
              "velocity": 100,
              "position": 1.0208333333333333,
              "duration": 0.21875
            },
            {
              "pitch": 36,
              "velocity": 50,
              "position": 1.2708333333333333,
              "duration": 0.041666666666666664
            },
            {
              "pitch": 34,
              "velocity": 60,
              "position": 1.5,
              "duration": 0.19375
            },
            {
              "pitch": 36,
              "velocity": 70,
              "position": 2,
              "duration": 0.31875
            },
            {
              "pitch": 43,
              "velocity": 100,
              "position": 3.0208333333333335,
              "duration": 0.21875
            },
            {
              "pitch": 48,
              "velocity": 100,
              "position": 3.0208333333333335,
              "duration": 0.21875
            },
            {
              "pitch": 31,
              "velocity": 39,
              "position": 3.2708333333333335,
              "duration": 0.041666666666666664
            },
            {
              "pitch": 31,
              "velocity": 60,
              "position": 3.5,
              "duration": 0.17291666666666666
            },
            {
              "pitch": 34,
              "velocity": 50,
              "position": 3.7708333333333335,
              "duration": 0.17291666666666666
            },
            {
              "pitch": 36,
              "velocity": 70,
              "position": 4,
              "duration": 0.4479166666666667
            },
            {
              "pitch": 36,
              "velocity": 100,
              "position": 4.520833333333333,
              "duration": 0.21875
            },
            {
              "pitch": 36,
              "velocity": 70,
              "position": 4.770833333333333,
              "duration": 0.21875
            },
            {
              "pitch": 43,
              "velocity": 100,
              "position": 5.020833333333333,
              "duration": 0.21875
            },
            {
              "pitch": 48,
              "velocity": 100,
              "position": 5.020833333333333,
              "duration": 0.21875
            },
            {
              "pitch": 36,
              "velocity": 50,
              "position": 5.270833333333333,
              "duration": 0.041666666666666664
            },
            {
              "pitch": 34,
              "velocity": 60,
              "position": 5.5,
              "duration": 0.24166666666666667
            },
            {
              "pitch": 36,
              "velocity": 70,
              "position": 6,
              "duration": 0.31875
            },
            {
              "pitch": 36,
              "velocity": 100,
              "position": 6.520833333333333,
              "duration": 0.21875
            },
            {
              "pitch": 31,
              "velocity": 39,
              "position": 6.770833333333333,
              "duration": 0.041666666666666664
            },
            {
              "pitch": 36,
              "velocity": 70,
              "position": 7,
              "duration": 0.24166666666666667
            },
            {
              "pitch": 34,
              "velocity": 50,
              "position": 7.270833333333333,
              "duration": 0.14375
            },
            {
              "pitch": 31,
              "velocity": 60,
              "position": 7.5,
              "duration": 0.14375
            },
            {
              "pitch": 34,
              "velocity": 50,
              "position": 7.770833333333333,
              "duration": 0.14375
            },
            {
              "pitch": 36,
              "velocity": 70,
              "position": 8,
              "duration": 0.4479166666666667
            },
            {
              "pitch": 36,
              "velocity": 100,
              "position": 8.520833333333334,
              "duration": 0.21875
            },
            {
              "pitch": 36,
              "velocity": 70,
              "position": 8.770833333333334,
              "duration": 0.21875
            },
            {
              "pitch": 43,
              "velocity": 100,
              "position": 9.020833333333334,
              "duration": 0.21875
            },
            {
              "pitch": 48,
              "velocity": 100,
              "position": 9.020833333333334,
              "duration": 0.21875
            },
            {
              "pitch": 36,
              "velocity": 50,
              "position": 9.270833333333334,
              "duration": 0.041666666666666664
            },
            {
              "pitch": 34,
              "velocity": 60,
              "position": 9.5,
              "duration": 0.19375
            },
            {
              "pitch": 36,
              "velocity": 70,
              "position": 10,
              "duration": 0.31875
            },
            {
              "pitch": 43,
              "velocity": 100,
              "position": 11.020833333333334,
              "duration": 0.21875
            },
            {
              "pitch": 48,
              "velocity": 100,
              "position": 11.020833333333334,
              "duration": 0.21875
            },
            {
              "pitch": 31,
              "velocity": 60,
              "position": 11.5,
              "duration": 0.17291666666666666
            },
            {
              "pitch": 34,
              "velocity": 50,
              "position": 11.770833333333334,
              "duration": 0.17291666666666666
            },
            {
              "pitch": 36,
              "velocity": 70,
              "position": 12,
              "duration": 0.4479166666666667
            },
            {
              "pitch": 36,
              "velocity": 100,
              "position": 12.520833333333334,
              "duration": 0.21875
            },
            {
              "pitch": 36,
              "velocity": 70,
              "position": 12.770833333333334,
              "duration": 0.21875
            },
            {
              "pitch": 43,
              "velocity": 100,
              "position": 13.020833333333334,
              "duration": 0.21875
            },
            {
              "pitch": 48,
              "velocity": 100,
              "position": 13.020833333333334,
              "duration": 0.21875
            },
            {
              "pitch": 36,
              "velocity": 39,
              "position": 13.270833333333334,
              "duration": 0.041666666666666664
            },
            {
              "pitch": 31,
              "velocity": 60,
              "position": 13.5,
              "duration": 0.17291666666666666
            },
            {
              "pitch": 34,
              "velocity": 50,
              "position": 13.770833333333334,
              "duration": 0.17291666666666666
            },
            {
              "pitch": 36,
              "velocity": 70,
              "position": 14,
              "duration": 0.24166666666666667
            },
            {
              "pitch": 36,
              "velocity": 60,
              "position": 14.5,
              "duration": 0.24166666666666667
            },
            {
              "pitch": 31,
              "velocity": 70,
              "position": 15,
              "duration": 0.24166666666666667
            },
            {
              "pitch": 34,
              "velocity": 60,
              "position": 15.5,
              "duration": 0.24166666666666667
            },
            {
              "pitch": 36,
              "velocity": 70,
              "position": 16,
              "duration": 0.4479166666666667
            },
            {
              "pitch": 36,
              "velocity": 100,
              "position": 16.520833333333332,
              "duration": 0.21875
            },
            {
              "pitch": 36,
              "velocity": 70,
              "position": 16.770833333333332,
              "duration": 0.21875
            },
            {
              "pitch": 43,
              "velocity": 100,
              "position": 17.020833333333332,
              "duration": 0.21875
            },
            {
              "pitch": 48,
              "velocity": 100,
              "position": 17.020833333333332,
              "duration": 0.21875
            },
            {
              "pitch": 36,
              "velocity": 50,
              "position": 17.270833333333332,
              "duration": 0.041666666666666664
            },
            {
              "pitch": 34,
              "velocity": 60,
              "position": 17.5,
              "duration": 0.19375
            },
            {
              "pitch": 36,
              "velocity": 70,
              "position": 18,
              "duration": 0.31875
            },
            {
              "pitch": 43,
              "velocity": 100,
              "position": 19.020833333333332,
              "duration": 0.21875
            },
            {
              "pitch": 48,
              "velocity": 100,
              "position": 19.020833333333332,
              "duration": 0.21875
            },
            {
              "pitch": 31,
              "velocity": 39,
              "position": 19.270833333333332,
              "duration": 0.041666666666666664
            },
            {
              "pitch": 31,
              "velocity": 60,
              "position": 19.5,
              "duration": 0.17291666666666666
            },
            {
              "pitch": 34,
              "velocity": 50,
              "position": 19.770833333333332,
              "duration": 0.17291666666666666
            },
            {
              "pitch": 36,
              "velocity": 70,
              "position": 20,
              "duration": 0.4479166666666667
            },
            {
              "pitch": 36,
              "velocity": 100,
              "position": 20.520833333333332,
              "duration": 0.21875
            },
            {
              "pitch": 36,
              "velocity": 70,
              "position": 20.770833333333332,
              "duration": 0.21875
            },
            {
              "pitch": 43,
              "velocity": 100,
              "position": 21.020833333333332,
              "duration": 0.21875
            },
            {
              "pitch": 48,
              "velocity": 100,
              "position": 21.020833333333332,
              "duration": 0.21875
            },
            {
              "pitch": 36,
              "velocity": 50,
              "position": 21.270833333333332,
              "duration": 0.041666666666666664
            },
            {
              "pitch": 34,
              "velocity": 60,
              "position": 21.5,
              "duration": 0.24166666666666667
            },
            {
              "pitch": 36,
              "velocity": 70,
              "position": 22,
              "duration": 0.31875
            },
            {
              "pitch": 36,
              "velocity": 100,
              "position": 22.520833333333332,
              "duration": 0.21875
            },
            {
              "pitch": 31,
              "velocity": 39,
              "position": 22.770833333333332,
              "duration": 0.041666666666666664
            },
            {
              "pitch": 36,
              "velocity": 70,
              "position": 23,
              "duration": 0.24166666666666667
            },
            {
              "pitch": 34,
              "velocity": 50,
              "position": 23.270833333333332,
              "duration": 0.14375
            },
            {
              "pitch": 31,
              "velocity": 60,
              "position": 23.5,
              "duration": 0.14375
            },
            {
              "pitch": 34,
              "velocity": 50,
              "position": 23.770833333333332,
              "duration": 0.14375
            },
            {
              "pitch": 36,
              "velocity": 70,
              "position": 24,
              "duration": 0.4479166666666667
            },
            {
              "pitch": 36,
              "velocity": 100,
              "position": 24.520833333333332,
              "duration": 0.21875
            },
            {
              "pitch": 36,
              "velocity": 70,
              "position": 24.770833333333332,
              "duration": 0.21875
            },
            {
              "pitch": 43,
              "velocity": 100,
              "position": 25.020833333333332,
              "duration": 0.21875
            },
            {
              "pitch": 48,
              "velocity": 100,
              "position": 25.020833333333332,
              "duration": 0.21875
            },
            {
              "pitch": 36,
              "velocity": 50,
              "position": 25.270833333333332,
              "duration": 0.041666666666666664
            },
            {
              "pitch": 34,
              "velocity": 60,
              "position": 25.5,
              "duration": 0.19375
            },
            {
              "pitch": 36,
              "velocity": 70,
              "position": 26,
              "duration": 0.31875
            },
            {
              "pitch": 43,
              "velocity": 100,
              "position": 27.020833333333332,
              "duration": 0.21875
            },
            {
              "pitch": 48,
              "velocity": 100,
              "position": 27.020833333333332,
              "duration": 0.21875
            },
            {
              "pitch": 31,
              "velocity": 60,
              "position": 27.5,
              "duration": 0.17291666666666666
            },
            {
              "pitch": 34,
              "velocity": 50,
              "position": 27.770833333333332,
              "duration": 0.17291666666666666
            },
            {
              "pitch": 36,
              "velocity": 70,
              "position": 28,
              "duration": 0.4479166666666667
            },
            {
              "pitch": 36,
              "velocity": 100,
              "position": 28.520833333333332,
              "duration": 0.21875
            },
            {
              "pitch": 36,
              "velocity": 70,
              "position": 28.770833333333332,
              "duration": 0.21875
            },
            {
              "pitch": 43,
              "velocity": 100,
              "position": 29.020833333333332,
              "duration": 0.21875
            },
            {
              "pitch": 48,
              "velocity": 100,
              "position": 29.020833333333332,
              "duration": 0.21875
            },
            {
              "pitch": 36,
              "velocity": 39,
              "position": 29.270833333333332,
              "duration": 0.041666666666666664
            },
            {
              "pitch": 31,
              "velocity": 60,
              "position": 29.5,
              "duration": 0.17291666666666666
            },
            {
              "pitch": 34,
              "velocity": 50,
              "position": 29.770833333333332,
              "duration": 0.17291666666666666
            },
            {
              "pitch": 36,
              "velocity": 70,
              "position": 30,
              "duration": 0.24166666666666667
            },
            {
              "pitch": 36,
              "velocity": 60,
              "position": 30.5,
              "duration": 0.24166666666666667
            },
            {
              "pitch": 31,
              "velocity": 70,
              "position": 31,
              "duration": 0.24166666666666667
            },
            {
              "pitch": 34,
              "velocity": 60,
              "position": 31.5,
              "duration": 0.24166666666666667
            }
          ]
        },
        "12": {
          "ctab": {
            "srcChannel": 12,
            "name": "Bass b",
            "accType": "BASS",
            "editable": false,
            "mutedNotes": [],
            "mutedChords": [
              "7th",
              "min",
              "Maj"
            ],
            "autoStart": false,
            "sourceChordNote": 0,
            "sourceChordType": "Maj7",
            "ctb2Low": null,
            "ctb2Main": {
              "ntr": "ROOT_TRANSPOSITION",
              "ntt": "MELODY",
              "bassOn": true,
              "chordRootUpperLimit": 8,
              "noteLowLimit": 28,
              "noteHighLimit": 127,
              "rtr": "PITCH_SHIFT_TO_ROOT"
            },
            "ctb2High": null
          },
          "notes": [
            {
              "pitch": 24,
              "velocity": 70,
              "position": 0,
              "duration": 0.4479166666666667
            },
            {
              "pitch": 24,
              "velocity": 100,
              "position": 0.5208333333333334,
              "duration": 0.21875
            },
            {
              "pitch": 24,
              "velocity": 70,
              "position": 0.7708333333333334,
              "duration": 0.21875
            },
            {
              "pitch": 43,
              "velocity": 100,
              "position": 1.0208333333333333,
              "duration": 0.21875
            },
            {
              "pitch": 48,
              "velocity": 100,
              "position": 1.0208333333333333,
              "duration": 0.21875
            },
            {
              "pitch": 24,
              "velocity": 50,
              "position": 1.2708333333333333,
              "duration": 0.041666666666666664
            },
            {
              "pitch": 24,
              "velocity": 60,
              "position": 1.5,
              "duration": 0.19375
            },
            {
              "pitch": 24,
              "velocity": 70,
              "position": 2,
              "duration": 0.31875
            },
            {
              "pitch": 43,
              "velocity": 100,
              "position": 3.0208333333333335,
              "duration": 0.21875
            },
            {
              "pitch": 48,
              "velocity": 100,
              "position": 3.0208333333333335,
              "duration": 0.21875
            },
            {
              "pitch": 24,
              "velocity": 39,
              "position": 3.2708333333333335,
              "duration": 0.041666666666666664
            },
            {
              "pitch": 28,
              "velocity": 60,
              "position": 3.5,
              "duration": 0.17291666666666666
            },
            {
              "pitch": 31,
              "velocity": 50,
              "position": 3.7708333333333335,
              "duration": 0.17291666666666666
            },
            {
              "pitch": 24,
              "velocity": 70,
              "position": 4,
              "duration": 0.4479166666666667
            },
            {
              "pitch": 24,
              "velocity": 100,
              "position": 4.520833333333333,
              "duration": 0.21875
            },
            {
              "pitch": 24,
              "velocity": 70,
              "position": 4.770833333333333,
              "duration": 0.21875
            },
            {
              "pitch": 43,
              "velocity": 100,
              "position": 5.020833333333333,
              "duration": 0.21875
            },
            {
              "pitch": 48,
              "velocity": 100,
              "position": 5.020833333333333,
              "duration": 0.21875
            },
            {
              "pitch": 24,
              "velocity": 50,
              "position": 5.270833333333333,
              "duration": 0.041666666666666664
            },
            {
              "pitch": 24,
              "velocity": 60,
              "position": 5.5,
              "duration": 0.24166666666666667
            },
            {
              "pitch": 24,
              "velocity": 70,
              "position": 6,
              "duration": 0.31875
            },
            {
              "pitch": 24,
              "velocity": 100,
              "position": 6.520833333333333,
              "duration": 0.21875
            },
            {
              "pitch": 24,
              "velocity": 39,
              "position": 6.770833333333333,
              "duration": 0.041666666666666664
            },
            {
              "pitch": 24,
              "velocity": 70,
              "position": 7,
              "duration": 0.24166666666666667
            },
            {
              "pitch": 24,
              "velocity": 50,
              "position": 7.270833333333333,
              "duration": 0.14375
            },
            {
              "pitch": 28,
              "velocity": 60,
              "position": 7.5,
              "duration": 0.14375
            },
            {
              "pitch": 31,
              "velocity": 50,
              "position": 7.770833333333333,
              "duration": 0.14375
            },
            {
              "pitch": 24,
              "velocity": 70,
              "position": 8,
              "duration": 0.4479166666666667
            },
            {
              "pitch": 24,
              "velocity": 100,
              "position": 8.520833333333334,
              "duration": 0.21875
            },
            {
              "pitch": 24,
              "velocity": 70,
              "position": 8.770833333333334,
              "duration": 0.21875
            },
            {
              "pitch": 43,
              "velocity": 100,
              "position": 9.020833333333334,
              "duration": 0.21875
            },
            {
              "pitch": 48,
              "velocity": 100,
              "position": 9.020833333333334,
              "duration": 0.21875
            },
            {
              "pitch": 24,
              "velocity": 50,
              "position": 9.270833333333334,
              "duration": 0.041666666666666664
            },
            {
              "pitch": 24,
              "velocity": 60,
              "position": 9.5,
              "duration": 0.19375
            },
            {
              "pitch": 24,
              "velocity": 70,
              "position": 10,
              "duration": 0.31875
            },
            {
              "pitch": 43,
              "velocity": 100,
              "position": 11.020833333333334,
              "duration": 0.21875
            },
            {
              "pitch": 48,
              "velocity": 100,
              "position": 11.020833333333334,
              "duration": 0.21875
            },
            {
              "pitch": 28,
              "velocity": 60,
              "position": 11.5,
              "duration": 0.17291666666666666
            },
            {
              "pitch": 31,
              "velocity": 50,
              "position": 11.770833333333334,
              "duration": 0.17291666666666666
            },
            {
              "pitch": 24,
              "velocity": 70,
              "position": 12,
              "duration": 0.4479166666666667
            },
            {
              "pitch": 24,
              "velocity": 100,
              "position": 12.520833333333334,
              "duration": 0.21875
            },
            {
              "pitch": 24,
              "velocity": 70,
              "position": 12.770833333333334,
              "duration": 0.21875
            },
            {
              "pitch": 43,
              "velocity": 100,
              "position": 13.020833333333334,
              "duration": 0.21875
            },
            {
              "pitch": 48,
              "velocity": 100,
              "position": 13.020833333333334,
              "duration": 0.21875
            },
            {
              "pitch": 24,
              "velocity": 39,
              "position": 13.270833333333334,
              "duration": 0.041666666666666664
            },
            {
              "pitch": 24,
              "velocity": 60,
              "position": 13.5,
              "duration": 0.17291666666666666
            },
            {
              "pitch": 24,
              "velocity": 50,
              "position": 13.770833333333334,
              "duration": 0.17291666666666666
            },
            {
              "pitch": 24,
              "velocity": 70,
              "position": 14,
              "duration": 0.24166666666666667
            },
            {
              "pitch": 24,
              "velocity": 60,
              "position": 14.5,
              "duration": 0.24166666666666667
            },
            {
              "pitch": 28,
              "velocity": 70,
              "position": 15,
              "duration": 0.24166666666666667
            },
            {
              "pitch": 31,
              "velocity": 60,
              "position": 15.5,
              "duration": 0.24166666666666667
            },
            {
              "pitch": 24,
              "velocity": 70,
              "position": 16,
              "duration": 0.4479166666666667
            },
            {
              "pitch": 24,
              "velocity": 100,
              "position": 16.520833333333332,
              "duration": 0.21875
            },
            {
              "pitch": 24,
              "velocity": 70,
              "position": 16.770833333333332,
              "duration": 0.21875
            },
            {
              "pitch": 43,
              "velocity": 100,
              "position": 17.020833333333332,
              "duration": 0.21875
            },
            {
              "pitch": 48,
              "velocity": 100,
              "position": 17.020833333333332,
              "duration": 0.21875
            },
            {
              "pitch": 24,
              "velocity": 50,
              "position": 17.270833333333332,
              "duration": 0.041666666666666664
            },
            {
              "pitch": 24,
              "velocity": 60,
              "position": 17.5,
              "duration": 0.19375
            },
            {
              "pitch": 24,
              "velocity": 70,
              "position": 18,
              "duration": 0.31875
            },
            {
              "pitch": 43,
              "velocity": 100,
              "position": 19.020833333333332,
              "duration": 0.21875
            },
            {
              "pitch": 48,
              "velocity": 100,
              "position": 19.020833333333332,
              "duration": 0.21875
            },
            {
              "pitch": 24,
              "velocity": 39,
              "position": 19.270833333333332,
              "duration": 0.041666666666666664
            },
            {
              "pitch": 28,
              "velocity": 60,
              "position": 19.5,
              "duration": 0.17291666666666666
            },
            {
              "pitch": 31,
              "velocity": 50,
              "position": 19.770833333333332,
              "duration": 0.17291666666666666
            },
            {
              "pitch": 24,
              "velocity": 70,
              "position": 20,
              "duration": 0.4479166666666667
            },
            {
              "pitch": 24,
              "velocity": 100,
              "position": 20.520833333333332,
              "duration": 0.21875
            },
            {
              "pitch": 24,
              "velocity": 70,
              "position": 20.770833333333332,
              "duration": 0.21875
            },
            {
              "pitch": 43,
              "velocity": 100,
              "position": 21.020833333333332,
              "duration": 0.21875
            },
            {
              "pitch": 48,
              "velocity": 100,
              "position": 21.020833333333332,
              "duration": 0.21875
            },
            {
              "pitch": 24,
              "velocity": 50,
              "position": 21.270833333333332,
              "duration": 0.041666666666666664
            },
            {
              "pitch": 24,
              "velocity": 60,
              "position": 21.5,
              "duration": 0.24166666666666667
            },
            {
              "pitch": 24,
              "velocity": 70,
              "position": 22,
              "duration": 0.31875
            },
            {
              "pitch": 24,
              "velocity": 100,
              "position": 22.520833333333332,
              "duration": 0.21875
            },
            {
              "pitch": 24,
              "velocity": 39,
              "position": 22.770833333333332,
              "duration": 0.041666666666666664
            },
            {
              "pitch": 24,
              "velocity": 70,
              "position": 23,
              "duration": 0.24166666666666667
            },
            {
              "pitch": 24,
              "velocity": 50,
              "position": 23.270833333333332,
              "duration": 0.14375
            },
            {
              "pitch": 28,
              "velocity": 60,
              "position": 23.5,
              "duration": 0.14375
            },
            {
              "pitch": 31,
              "velocity": 50,
              "position": 23.770833333333332,
              "duration": 0.14375
            },
            {
              "pitch": 24,
              "velocity": 70,
              "position": 24,
              "duration": 0.4479166666666667
            },
            {
              "pitch": 24,
              "velocity": 100,
              "position": 24.520833333333332,
              "duration": 0.21875
            },
            {
              "pitch": 24,
              "velocity": 70,
              "position": 24.770833333333332,
              "duration": 0.21875
            },
            {
              "pitch": 43,
              "velocity": 100,
              "position": 25.020833333333332,
              "duration": 0.21875
            },
            {
              "pitch": 48,
              "velocity": 100,
              "position": 25.020833333333332,
              "duration": 0.21875
            },
            {
              "pitch": 24,
              "velocity": 50,
              "position": 25.270833333333332,
              "duration": 0.041666666666666664
            },
            {
              "pitch": 24,
              "velocity": 60,
              "position": 25.5,
              "duration": 0.19375
            },
            {
              "pitch": 24,
              "velocity": 70,
              "position": 26,
              "duration": 0.31875
            },
            {
              "pitch": 43,
              "velocity": 100,
              "position": 27.020833333333332,
              "duration": 0.21875
            },
            {
              "pitch": 48,
              "velocity": 100,
              "position": 27.020833333333332,
              "duration": 0.21875
            },
            {
              "pitch": 28,
              "velocity": 60,
              "position": 27.5,
              "duration": 0.17291666666666666
            },
            {
              "pitch": 31,
              "velocity": 50,
              "position": 27.770833333333332,
              "duration": 0.17291666666666666
            },
            {
              "pitch": 24,
              "velocity": 70,
              "position": 28,
              "duration": 0.4479166666666667
            },
            {
              "pitch": 24,
              "velocity": 100,
              "position": 28.520833333333332,
              "duration": 0.21875
            },
            {
              "pitch": 24,
              "velocity": 70,
              "position": 28.770833333333332,
              "duration": 0.21875
            },
            {
              "pitch": 43,
              "velocity": 100,
              "position": 29.020833333333332,
              "duration": 0.21875
            },
            {
              "pitch": 48,
              "velocity": 100,
              "position": 29.020833333333332,
              "duration": 0.21875
            },
            {
              "pitch": 24,
              "velocity": 39,
              "position": 29.270833333333332,
              "duration": 0.041666666666666664
            },
            {
              "pitch": 24,
              "velocity": 60,
              "position": 29.5,
              "duration": 0.17291666666666666
            },
            {
              "pitch": 24,
              "velocity": 50,
              "position": 29.770833333333332,
              "duration": 0.17291666666666666
            },
            {
              "pitch": 24,
              "velocity": 70,
              "position": 30,
              "duration": 0.24166666666666667
            },
            {
              "pitch": 24,
              "velocity": 60,
              "position": 30.5,
              "duration": 0.24166666666666667
            },
            {
              "pitch": 28,
              "velocity": 70,
              "position": 31,
              "duration": 0.24166666666666667
            },
            {
              "pitch": 31,
              "velocity": 60,
              "position": 31.5,
              "duration": 0.24166666666666667
            }
          ]
        },
        "13": {
          "ctab": {
            "srcChannel": 13,
            "name": "EP Maj",
            "accType": "CHORD2",
            "editable": false,
            "mutedNotes": [],
            "mutedChords": [
              "1+2+5",
              "sus4",
              "1+5",
              "1+8",
              "7aug",
              "Maj7aug",
              "7(#9)",
              "7(b13)",
              "7(b9)",
              "7(13)",
              "7#11",
              "7(9)",
              "7b5",
              "7sus4",
              "dim7",
              "dim",
              "minMaj7(9)",
              "minMaj7",
              "min7(11)",
              "min7(9)",
              "min(9)",
              "m7b5",
              "min7",
              "min6",
              "min",
              "aug",
              "Maj6(9)",
              "Maj7(9)",
              "Maj(9)",
              "Maj7#11",
              "Maj7",
              "Maj6"
            ],
            "autoStart": false,
            "sourceChordNote": 0,
            "sourceChordType": "7th",
            "ctb2Low": null,
            "ctb2Main": {
              "ntr": "ROOT_TRANSPOSITION",
              "ntt": "MELODIC_MINOR_5",
              "bassOn": false,
              "chordRootUpperLimit": 8,
              "noteLowLimit": 40,
              "noteHighLimit": 66,
              "rtr": "PITCH_SHIFT"
            },
            "ctb2High": null
          },
          "notes": [
            {
              "pitch": 74,
              "velocity": 122,
              "position": 0.010416666666666666,
              "duration": 0.4791666666666667
            },
            {
              "pitch": 67,
              "velocity": 118,
              "position": 0.010416666666666666,
              "duration": 0.48333333333333334
            },
            {
              "pitch": 76,
              "velocity": 94,
              "position": 0.010416666666666666,
              "duration": 0.48333333333333334
            },
            {
              "pitch": 70,
              "velocity": 122,
              "position": 0.010416666666666666,
              "duration": 0.49166666666666664
            },
            {
              "pitch": 31,
              "velocity": 33,
              "position": 0.49583333333333335,
              "duration": 0.10416666666666667
            },
            {
              "pitch": 24,
              "velocity": 127,
              "position": 0.50625,
              "duration": 0.10416666666666667
            },
            {
              "pitch": 74,
              "velocity": 99,
              "position": 0.7708333333333334,
              "duration": 0.15625
            },
            {
              "pitch": 70,
              "velocity": 96,
              "position": 0.7729166666666667,
              "duration": 0.15625
            },
            {
              "pitch": 76,
              "velocity": 73,
              "position": 0.7729166666666667,
              "duration": 0.15625
            },
            {
              "pitch": 67,
              "velocity": 92,
              "position": 0.7770833333333333,
              "duration": 0.15625
            },
            {
              "pitch": 76,
              "velocity": 85,
              "position": 1.26875,
              "duration": 0.15625
            },
            {
              "pitch": 67,
              "velocity": 108,
              "position": 1.2770833333333333,
              "duration": 0.15625
            },
            {
              "pitch": 70,
              "velocity": 106,
              "position": 1.2770833333333333,
              "duration": 0.15625
            },
            {
              "pitch": 74,
              "velocity": 105,
              "position": 1.2770833333333333,
              "duration": 0.15625
            },
            {
              "pitch": 24,
              "velocity": 127,
              "position": 1.7708333333333333,
              "duration": 0.10416666666666667
            },
            {
              "pitch": 31,
              "velocity": 33,
              "position": 1.7791666666666666,
              "duration": 0.10416666666666667
            },
            {
              "pitch": 74,
              "velocity": 122,
              "position": 1.9895833333333333,
              "duration": 0.4791666666666667
            },
            {
              "pitch": 70,
              "velocity": 118,
              "position": 1.9958333333333333,
              "duration": 0.49166666666666664
            },
            {
              "pitch": 76,
              "velocity": 97,
              "position": 2.004166666666667,
              "duration": 0.48333333333333334
            },
            {
              "pitch": 67,
              "velocity": 122,
              "position": 2.0083333333333333,
              "duration": 0.48333333333333334
            },
            {
              "pitch": 31,
              "velocity": 33,
              "position": 2.5,
              "duration": 0.10416666666666667
            },
            {
              "pitch": 24,
              "velocity": 127,
              "position": 2.50625,
              "duration": 0.10416666666666667
            },
            {
              "pitch": 67,
              "velocity": 97,
              "position": 2.7666666666666666,
              "duration": 0.15625
            },
            {
              "pitch": 76,
              "velocity": 75,
              "position": 2.7666666666666666,
              "duration": 0.15625
            },
            {
              "pitch": 74,
              "velocity": 98,
              "position": 2.76875,
              "duration": 0.15625
            },
            {
              "pitch": 70,
              "velocity": 92,
              "position": 2.777083333333333,
              "duration": 0.15625
            },
            {
              "pitch": 70,
              "velocity": 102,
              "position": 3.2625,
              "duration": 0.15625
            },
            {
              "pitch": 76,
              "velocity": 85,
              "position": 3.2625,
              "duration": 0.15625
            },
            {
              "pitch": 67,
              "velocity": 103,
              "position": 3.2666666666666666,
              "duration": 0.15625
            },
            {
              "pitch": 74,
              "velocity": 104,
              "position": 3.275,
              "duration": 0.15625
            },
            {
              "pitch": 31,
              "velocity": 33,
              "position": 3.7729166666666667,
              "duration": 0.10416666666666667
            },
            {
              "pitch": 24,
              "velocity": 127,
              "position": 3.779166666666667,
              "duration": 0.10416666666666667
            },
            {
              "pitch": 74,
              "velocity": 121,
              "position": 4.010416666666667,
              "duration": 0.4791666666666667
            },
            {
              "pitch": 67,
              "velocity": 122,
              "position": 4.010416666666667,
              "duration": 0.48333333333333334
            },
            {
              "pitch": 76,
              "velocity": 97,
              "position": 4.010416666666667,
              "duration": 0.48333333333333334
            },
            {
              "pitch": 70,
              "velocity": 120,
              "position": 4.010416666666667,
              "duration": 0.49166666666666664
            },
            {
              "pitch": 31,
              "velocity": 33,
              "position": 4.502083333333333,
              "duration": 0.10416666666666667
            },
            {
              "pitch": 24,
              "velocity": 127,
              "position": 4.504166666666666,
              "duration": 0.10416666666666667
            },
            {
              "pitch": 76,
              "velocity": 76,
              "position": 4.760416666666667,
              "duration": 0.15625
            },
            {
              "pitch": 70,
              "velocity": 97,
              "position": 4.7625,
              "duration": 0.15625
            },
            {
              "pitch": 74,
              "velocity": 98,
              "position": 4.76875,
              "duration": 0.15625
            },
            {
              "pitch": 67,
              "velocity": 98,
              "position": 4.775,
              "duration": 0.15625
            },
            {
              "pitch": 70,
              "velocity": 108,
              "position": 5.266666666666667,
              "duration": 0.15625
            },
            {
              "pitch": 67,
              "velocity": 106,
              "position": 5.275,
              "duration": 0.15625
            },
            {
              "pitch": 74,
              "velocity": 103,
              "position": 5.275,
              "duration": 0.15625
            },
            {
              "pitch": 76,
              "velocity": 86,
              "position": 5.277083333333334,
              "duration": 0.15625
            },
            {
              "pitch": 24,
              "velocity": 127,
              "position": 5.76875,
              "duration": 0.10416666666666667
            },
            {
              "pitch": 31,
              "velocity": 33,
              "position": 5.76875,
              "duration": 0.10416666666666667
            },
            {
              "pitch": 70,
              "velocity": 122,
              "position": 6.002083333333333,
              "duration": 0.7291666666666666
            },
            {
              "pitch": 76,
              "velocity": 94,
              "position": 5.99375,
              "duration": 0.7375
            },
            {
              "pitch": 67,
              "velocity": 122,
              "position": 6.00625,
              "duration": 0.7354166666666667
            },
            {
              "pitch": 74,
              "velocity": 122,
              "position": 6.008333333333334,
              "duration": 0.7375
            },
            {
              "pitch": 24,
              "velocity": 127,
              "position": 6.775,
              "duration": 0.10416666666666667
            },
            {
              "pitch": 31,
              "velocity": 33,
              "position": 6.777083333333334,
              "duration": 0.10416666666666667
            },
            {
              "pitch": 70,
              "velocity": 122,
              "position": 6.995833333333334,
              "duration": 0.74375
            },
            {
              "pitch": 67,
              "velocity": 120,
              "position": 6.99375,
              "duration": 0.7479166666666667
            },
            {
              "pitch": 76,
              "velocity": 97,
              "position": 7.004166666666666,
              "duration": 0.7375
            },
            {
              "pitch": 74,
              "velocity": 122,
              "position": 6.995833333333334,
              "duration": 0.7520833333333333
            },
            {
              "pitch": 24,
              "velocity": 127,
              "position": 7.764583333333333,
              "duration": 0.10416666666666667
            },
            {
              "pitch": 31,
              "velocity": 33,
              "position": 7.770833333333333,
              "duration": 0.10416666666666667
            },
            {
              "pitch": 74,
              "velocity": 122,
              "position": 8.010416666666666,
              "duration": 0.4791666666666667
            },
            {
              "pitch": 67,
              "velocity": 118,
              "position": 8.010416666666666,
              "duration": 0.48333333333333334
            },
            {
              "pitch": 76,
              "velocity": 97,
              "position": 8.010416666666666,
              "duration": 0.48333333333333334
            },
            {
              "pitch": 70,
              "velocity": 122,
              "position": 8.010416666666666,
              "duration": 0.49166666666666664
            },
            {
              "pitch": 31,
              "velocity": 33,
              "position": 8.497916666666667,
              "duration": 0.10416666666666667
            },
            {
              "pitch": 24,
              "velocity": 127,
              "position": 8.50625,
              "duration": 0.10416666666666667
            },
            {
              "pitch": 70,
              "velocity": 94,
              "position": 8.7625,
              "duration": 0.15625
            },
            {
              "pitch": 67,
              "velocity": 94,
              "position": 8.76875,
              "duration": 0.15625
            },
            {
              "pitch": 76,
              "velocity": 76,
              "position": 8.76875,
              "duration": 0.15625
            },
            {
              "pitch": 74,
              "velocity": 97,
              "position": 8.772916666666667,
              "duration": 0.15625
            },
            {
              "pitch": 74,
              "velocity": 106,
              "position": 9.266666666666667,
              "duration": 0.15625
            },
            {
              "pitch": 76,
              "velocity": 86,
              "position": 9.26875,
              "duration": 0.15625
            },
            {
              "pitch": 70,
              "velocity": 102,
              "position": 9.270833333333334,
              "duration": 0.15625
            },
            {
              "pitch": 67,
              "velocity": 106,
              "position": 9.272916666666667,
              "duration": 0.15625
            },
            {
              "pitch": 31,
              "velocity": 33,
              "position": 9.764583333333333,
              "duration": 0.10416666666666667
            },
            {
              "pitch": 24,
              "velocity": 127,
              "position": 9.772916666666667,
              "duration": 0.10416666666666667
            },
            {
              "pitch": 74,
              "velocity": 122,
              "position": 9.997916666666667,
              "duration": 0.4791666666666667
            },
            {
              "pitch": 67,
              "velocity": 118,
              "position": 10.002083333333333,
              "duration": 0.48333333333333334
            },
            {
              "pitch": 76,
              "velocity": 96,
              "position": 10.002083333333333,
              "duration": 0.48333333333333334
            },
            {
              "pitch": 70,
              "velocity": 122,
              "position": 10.004166666666666,
              "duration": 0.49166666666666664
            },
            {
              "pitch": 31,
              "velocity": 33,
              "position": 10.5,
              "duration": 0.10416666666666667
            },
            {
              "pitch": 24,
              "velocity": 127,
              "position": 10.504166666666666,
              "duration": 0.10416666666666667
            },
            {
              "pitch": 76,
              "velocity": 76,
              "position": 10.7625,
              "duration": 0.15625
            },
            {
              "pitch": 70,
              "velocity": 99,
              "position": 10.766666666666667,
              "duration": 0.15625
            },
            {
              "pitch": 74,
              "velocity": 97,
              "position": 10.772916666666667,
              "duration": 0.15625
            },
            {
              "pitch": 67,
              "velocity": 97,
              "position": 10.777083333333334,
              "duration": 0.15625
            },
            {
              "pitch": 67,
              "velocity": 103,
              "position": 11.2625,
              "duration": 0.15625
            },
            {
              "pitch": 76,
              "velocity": 86,
              "position": 11.2625,
              "duration": 0.15625
            },
            {
              "pitch": 74,
              "velocity": 106,
              "position": 11.264583333333333,
              "duration": 0.15625
            },
            {
              "pitch": 70,
              "velocity": 108,
              "position": 11.272916666666667,
              "duration": 0.15625
            },
            {
              "pitch": 24,
              "velocity": 127,
              "position": 11.7625,
              "duration": 0.10416666666666667
            },
            {
              "pitch": 31,
              "velocity": 33,
              "position": 11.779166666666667,
              "duration": 0.10416666666666667
            },
            {
              "pitch": 74,
              "velocity": 122,
              "position": 12.010416666666666,
              "duration": 0.4791666666666667
            },
            {
              "pitch": 67,
              "velocity": 122,
              "position": 12.010416666666666,
              "duration": 0.48333333333333334
            },
            {
              "pitch": 76,
              "velocity": 97,
              "position": 12.010416666666666,
              "duration": 0.48333333333333334
            },
            {
              "pitch": 70,
              "velocity": 118,
              "position": 12.010416666666666,
              "duration": 0.49166666666666664
            },
            {
              "pitch": 24,
              "velocity": 127,
              "position": 12.504166666666666,
              "duration": 0.10416666666666667
            },
            {
              "pitch": 31,
              "velocity": 33,
              "position": 12.504166666666666,
              "duration": 0.10416666666666667
            },
            {
              "pitch": 67,
              "velocity": 92,
              "position": 12.766666666666667,
              "duration": 0.15625
            },
            {
              "pitch": 70,
              "velocity": 97,
              "position": 12.770833333333334,
              "duration": 0.15625
            },
            {
              "pitch": 74,
              "velocity": 96,
              "position": 12.770833333333334,
              "duration": 0.15625
            },
            {
              "pitch": 76,
              "velocity": 79,
              "position": 12.775,
              "duration": 0.15625
            },
            {
              "pitch": 74,
              "velocity": 106,
              "position": 13.264583333333333,
              "duration": 0.15625
            },
            {
              "pitch": 67,
              "velocity": 106,
              "position": 13.270833333333334,
              "duration": 0.15625
            },
            {
              "pitch": 70,
              "velocity": 106,
              "position": 13.277083333333334,
              "duration": 0.15625
            },
            {
              "pitch": 76,
              "velocity": 81,
              "position": 13.277083333333334,
              "duration": 0.15625
            },
            {
              "pitch": 24,
              "velocity": 127,
              "position": 13.770833333333334,
              "duration": 0.10416666666666667
            },
            {
              "pitch": 31,
              "velocity": 33,
              "position": 13.772916666666667,
              "duration": 0.10416666666666667
            },
            {
              "pitch": 70,
              "velocity": 118,
              "position": 13.99375,
              "duration": 0.7291666666666666
            },
            {
              "pitch": 76,
              "velocity": 97,
              "position": 13.991666666666667,
              "duration": 0.7375
            },
            {
              "pitch": 74,
              "velocity": 120,
              "position": 13.995833333333334,
              "duration": 0.7375
            },
            {
              "pitch": 67,
              "velocity": 122,
              "position": 14,
              "duration": 0.7354166666666667
            },
            {
              "pitch": 24,
              "velocity": 122,
              "position": 14.772916666666667,
              "duration": 0.10416666666666667
            },
            {
              "pitch": 31,
              "velocity": 26,
              "position": 14.779166666666667,
              "duration": 0.10416666666666667
            },
            {
              "pitch": 76,
              "velocity": 96,
              "position": 15,
              "duration": 0.7375
            },
            {
              "pitch": 70,
              "velocity": 120,
              "position": 15.002083333333333,
              "duration": 0.7458333333333333
            },
            {
              "pitch": 74,
              "velocity": 121,
              "position": 15,
              "duration": 0.75
            },
            {
              "pitch": 67,
              "velocity": 122,
              "position": 15.004166666666666,
              "duration": 0.7479166666666667
            },
            {
              "pitch": 31,
              "velocity": 26,
              "position": 15.770833333333334,
              "duration": 0.10416666666666667
            },
            {
              "pitch": 24,
              "velocity": 122,
              "position": 15.779166666666667,
              "duration": 0.10416666666666667
            },
            {
              "pitch": 74,
              "velocity": 122,
              "position": 16.010416666666668,
              "duration": 0.4791666666666667
            },
            {
              "pitch": 67,
              "velocity": 118,
              "position": 16.010416666666668,
              "duration": 0.48333333333333334
            },
            {
              "pitch": 76,
              "velocity": 94,
              "position": 16.010416666666668,
              "duration": 0.48333333333333334
            },
            {
              "pitch": 70,
              "velocity": 122,
              "position": 16.010416666666668,
              "duration": 0.49166666666666664
            },
            {
              "pitch": 31,
              "velocity": 26,
              "position": 16.495833333333334,
              "duration": 0.10416666666666667
            },
            {
              "pitch": 24,
              "velocity": 122,
              "position": 16.50625,
              "duration": 0.10416666666666667
            },
            {
              "pitch": 74,
              "velocity": 99,
              "position": 16.770833333333332,
              "duration": 0.15625
            },
            {
              "pitch": 70,
              "velocity": 96,
              "position": 16.772916666666667,
              "duration": 0.15625
            },
            {
              "pitch": 76,
              "velocity": 73,
              "position": 16.772916666666667,
              "duration": 0.15625
            },
            {
              "pitch": 67,
              "velocity": 92,
              "position": 16.777083333333334,
              "duration": 0.15625
            },
            {
              "pitch": 76,
              "velocity": 85,
              "position": 17.26875,
              "duration": 0.15625
            },
            {
              "pitch": 67,
              "velocity": 108,
              "position": 17.277083333333334,
              "duration": 0.15625
            },
            {
              "pitch": 70,
              "velocity": 106,
              "position": 17.277083333333334,
              "duration": 0.15625
            },
            {
              "pitch": 74,
              "velocity": 105,
              "position": 17.277083333333334,
              "duration": 0.15625
            },
            {
              "pitch": 24,
              "velocity": 122,
              "position": 17.770833333333332,
              "duration": 0.10416666666666667
            },
            {
              "pitch": 31,
              "velocity": 26,
              "position": 17.779166666666665,
              "duration": 0.10416666666666667
            },
            {
              "pitch": 74,
              "velocity": 122,
              "position": 17.989583333333332,
              "duration": 0.4791666666666667
            },
            {
              "pitch": 70,
              "velocity": 118,
              "position": 17.995833333333334,
              "duration": 0.49166666666666664
            },
            {
              "pitch": 76,
              "velocity": 97,
              "position": 18.004166666666666,
              "duration": 0.48333333333333334
            },
            {
              "pitch": 67,
              "velocity": 122,
              "position": 18.008333333333333,
              "duration": 0.48333333333333334
            },
            {
              "pitch": 31,
              "velocity": 26,
              "position": 18.5,
              "duration": 0.10416666666666667
            },
            {
              "pitch": 24,
              "velocity": 122,
              "position": 18.50625,
              "duration": 0.10416666666666667
            },
            {
              "pitch": 67,
              "velocity": 97,
              "position": 18.766666666666666,
              "duration": 0.15625
            },
            {
              "pitch": 76,
              "velocity": 75,
              "position": 18.766666666666666,
              "duration": 0.15625
            },
            {
              "pitch": 74,
              "velocity": 98,
              "position": 18.76875,
              "duration": 0.15625
            },
            {
              "pitch": 70,
              "velocity": 92,
              "position": 18.777083333333334,
              "duration": 0.15625
            },
            {
              "pitch": 70,
              "velocity": 102,
              "position": 19.2625,
              "duration": 0.15625
            },
            {
              "pitch": 76,
              "velocity": 85,
              "position": 19.2625,
              "duration": 0.15625
            },
            {
              "pitch": 67,
              "velocity": 103,
              "position": 19.266666666666666,
              "duration": 0.15625
            },
            {
              "pitch": 74,
              "velocity": 104,
              "position": 19.275,
              "duration": 0.15625
            },
            {
              "pitch": 31,
              "velocity": 26,
              "position": 19.772916666666667,
              "duration": 0.10416666666666667
            },
            {
              "pitch": 24,
              "velocity": 122,
              "position": 19.779166666666665,
              "duration": 0.10416666666666667
            },
            {
              "pitch": 74,
              "velocity": 121,
              "position": 20.010416666666668,
              "duration": 0.4791666666666667
            },
            {
              "pitch": 67,
              "velocity": 122,
              "position": 20.010416666666668,
              "duration": 0.48333333333333334
            },
            {
              "pitch": 76,
              "velocity": 97,
              "position": 20.010416666666668,
              "duration": 0.48333333333333334
            },
            {
              "pitch": 70,
              "velocity": 120,
              "position": 20.010416666666668,
              "duration": 0.49166666666666664
            },
            {
              "pitch": 31,
              "velocity": 26,
              "position": 20.502083333333335,
              "duration": 0.10416666666666667
            },
            {
              "pitch": 24,
              "velocity": 122,
              "position": 20.504166666666666,
              "duration": 0.10416666666666667
            },
            {
              "pitch": 76,
              "velocity": 76,
              "position": 20.760416666666668,
              "duration": 0.15625
            },
            {
              "pitch": 70,
              "velocity": 97,
              "position": 20.7625,
              "duration": 0.15625
            },
            {
              "pitch": 74,
              "velocity": 98,
              "position": 20.76875,
              "duration": 0.15625
            },
            {
              "pitch": 67,
              "velocity": 98,
              "position": 20.775,
              "duration": 0.15625
            },
            {
              "pitch": 70,
              "velocity": 108,
              "position": 21.266666666666666,
              "duration": 0.15625
            },
            {
              "pitch": 67,
              "velocity": 106,
              "position": 21.275,
              "duration": 0.15625
            },
            {
              "pitch": 74,
              "velocity": 103,
              "position": 21.275,
              "duration": 0.15625
            },
            {
              "pitch": 76,
              "velocity": 86,
              "position": 21.277083333333334,
              "duration": 0.15625
            },
            {
              "pitch": 24,
              "velocity": 122,
              "position": 21.76875,
              "duration": 0.10416666666666667
            },
            {
              "pitch": 31,
              "velocity": 26,
              "position": 21.76875,
              "duration": 0.10416666666666667
            },
            {
              "pitch": 70,
              "velocity": 122,
              "position": 22.002083333333335,
              "duration": 0.7291666666666666
            },
            {
              "pitch": 76,
              "velocity": 94,
              "position": 21.99375,
              "duration": 0.7375
            },
            {
              "pitch": 67,
              "velocity": 122,
              "position": 22.00625,
              "duration": 0.7354166666666667
            },
            {
              "pitch": 74,
              "velocity": 122,
              "position": 22.008333333333333,
              "duration": 0.7375
            },
            {
              "pitch": 24,
              "velocity": 122,
              "position": 22.775,
              "duration": 0.10416666666666667
            },
            {
              "pitch": 31,
              "velocity": 26,
              "position": 22.777083333333334,
              "duration": 0.10416666666666667
            },
            {
              "pitch": 70,
              "velocity": 122,
              "position": 22.995833333333334,
              "duration": 0.74375
            },
            {
              "pitch": 67,
              "velocity": 120,
              "position": 22.99375,
              "duration": 0.7479166666666667
            },
            {
              "pitch": 76,
              "velocity": 97,
              "position": 23.004166666666666,
              "duration": 0.7375
            },
            {
              "pitch": 74,
              "velocity": 122,
              "position": 22.995833333333334,
              "duration": 0.7520833333333333
            },
            {
              "pitch": 24,
              "velocity": 122,
              "position": 23.764583333333334,
              "duration": 0.10416666666666667
            },
            {
              "pitch": 31,
              "velocity": 26,
              "position": 23.770833333333332,
              "duration": 0.10416666666666667
            },
            {
              "pitch": 74,
              "velocity": 122,
              "position": 24.010416666666668,
              "duration": 0.4791666666666667
            },
            {
              "pitch": 67,
              "velocity": 118,
              "position": 24.010416666666668,
              "duration": 0.48333333333333334
            },
            {
              "pitch": 76,
              "velocity": 97,
              "position": 24.010416666666668,
              "duration": 0.48333333333333334
            },
            {
              "pitch": 70,
              "velocity": 122,
              "position": 24.010416666666668,
              "duration": 0.49166666666666664
            },
            {
              "pitch": 31,
              "velocity": 26,
              "position": 24.497916666666665,
              "duration": 0.10416666666666667
            },
            {
              "pitch": 24,
              "velocity": 122,
              "position": 24.50625,
              "duration": 0.10416666666666667
            },
            {
              "pitch": 70,
              "velocity": 94,
              "position": 24.7625,
              "duration": 0.15625
            },
            {
              "pitch": 67,
              "velocity": 94,
              "position": 24.76875,
              "duration": 0.15625
            },
            {
              "pitch": 76,
              "velocity": 76,
              "position": 24.76875,
              "duration": 0.15625
            },
            {
              "pitch": 74,
              "velocity": 97,
              "position": 24.772916666666667,
              "duration": 0.15625
            },
            {
              "pitch": 74,
              "velocity": 106,
              "position": 25.266666666666666,
              "duration": 0.15625
            },
            {
              "pitch": 76,
              "velocity": 86,
              "position": 25.26875,
              "duration": 0.15625
            },
            {
              "pitch": 70,
              "velocity": 102,
              "position": 25.270833333333332,
              "duration": 0.15625
            },
            {
              "pitch": 67,
              "velocity": 106,
              "position": 25.272916666666667,
              "duration": 0.15625
            },
            {
              "pitch": 31,
              "velocity": 26,
              "position": 25.764583333333334,
              "duration": 0.10416666666666667
            },
            {
              "pitch": 24,
              "velocity": 122,
              "position": 25.772916666666667,
              "duration": 0.10416666666666667
            },
            {
              "pitch": 74,
              "velocity": 122,
              "position": 25.997916666666665,
              "duration": 0.4791666666666667
            },
            {
              "pitch": 67,
              "velocity": 118,
              "position": 26.002083333333335,
              "duration": 0.48333333333333334
            },
            {
              "pitch": 76,
              "velocity": 96,
              "position": 26.002083333333335,
              "duration": 0.48333333333333334
            },
            {
              "pitch": 70,
              "velocity": 122,
              "position": 26.004166666666666,
              "duration": 0.49166666666666664
            },
            {
              "pitch": 31,
              "velocity": 26,
              "position": 26.5,
              "duration": 0.10416666666666667
            },
            {
              "pitch": 24,
              "velocity": 122,
              "position": 26.504166666666666,
              "duration": 0.10416666666666667
            },
            {
              "pitch": 76,
              "velocity": 76,
              "position": 26.7625,
              "duration": 0.15625
            },
            {
              "pitch": 70,
              "velocity": 99,
              "position": 26.766666666666666,
              "duration": 0.15625
            },
            {
              "pitch": 74,
              "velocity": 97,
              "position": 26.772916666666667,
              "duration": 0.15625
            },
            {
              "pitch": 67,
              "velocity": 97,
              "position": 26.777083333333334,
              "duration": 0.15625
            },
            {
              "pitch": 67,
              "velocity": 103,
              "position": 27.2625,
              "duration": 0.15625
            },
            {
              "pitch": 76,
              "velocity": 86,
              "position": 27.2625,
              "duration": 0.15625
            },
            {
              "pitch": 74,
              "velocity": 106,
              "position": 27.264583333333334,
              "duration": 0.15625
            },
            {
              "pitch": 70,
              "velocity": 108,
              "position": 27.272916666666667,
              "duration": 0.15625
            },
            {
              "pitch": 24,
              "velocity": 122,
              "position": 27.7625,
              "duration": 0.10416666666666667
            },
            {
              "pitch": 31,
              "velocity": 26,
              "position": 27.779166666666665,
              "duration": 0.10416666666666667
            },
            {
              "pitch": 74,
              "velocity": 122,
              "position": 28.010416666666668,
              "duration": 0.4791666666666667
            },
            {
              "pitch": 67,
              "velocity": 122,
              "position": 28.010416666666668,
              "duration": 0.48333333333333334
            },
            {
              "pitch": 76,
              "velocity": 97,
              "position": 28.010416666666668,
              "duration": 0.48333333333333334
            },
            {
              "pitch": 70,
              "velocity": 118,
              "position": 28.010416666666668,
              "duration": 0.49166666666666664
            },
            {
              "pitch": 24,
              "velocity": 122,
              "position": 28.504166666666666,
              "duration": 0.10416666666666667
            },
            {
              "pitch": 31,
              "velocity": 26,
              "position": 28.504166666666666,
              "duration": 0.10416666666666667
            },
            {
              "pitch": 67,
              "velocity": 92,
              "position": 28.766666666666666,
              "duration": 0.15625
            },
            {
              "pitch": 70,
              "velocity": 97,
              "position": 28.770833333333332,
              "duration": 0.15625
            },
            {
              "pitch": 74,
              "velocity": 96,
              "position": 28.770833333333332,
              "duration": 0.15625
            },
            {
              "pitch": 76,
              "velocity": 79,
              "position": 28.775,
              "duration": 0.15625
            },
            {
              "pitch": 74,
              "velocity": 106,
              "position": 29.264583333333334,
              "duration": 0.15625
            },
            {
              "pitch": 67,
              "velocity": 106,
              "position": 29.270833333333332,
              "duration": 0.15625
            },
            {
              "pitch": 70,
              "velocity": 106,
              "position": 29.277083333333334,
              "duration": 0.15625
            },
            {
              "pitch": 76,
              "velocity": 81,
              "position": 29.277083333333334,
              "duration": 0.15625
            },
            {
              "pitch": 24,
              "velocity": 122,
              "position": 29.770833333333332,
              "duration": 0.10416666666666667
            },
            {
              "pitch": 31,
              "velocity": 26,
              "position": 29.772916666666667,
              "duration": 0.10416666666666667
            },
            {
              "pitch": 70,
              "velocity": 118,
              "position": 29.99375,
              "duration": 0.7291666666666666
            },
            {
              "pitch": 76,
              "velocity": 97,
              "position": 29.991666666666667,
              "duration": 0.7375
            },
            {
              "pitch": 74,
              "velocity": 120,
              "position": 29.995833333333334,
              "duration": 0.7375
            },
            {
              "pitch": 67,
              "velocity": 122,
              "position": 30,
              "duration": 0.7354166666666667
            },
            {
              "pitch": 24,
              "velocity": 122,
              "position": 30.772916666666667,
              "duration": 0.10416666666666667
            },
            {
              "pitch": 31,
              "velocity": 26,
              "position": 30.779166666666665,
              "duration": 0.10416666666666667
            },
            {
              "pitch": 76,
              "velocity": 96,
              "position": 31,
              "duration": 0.7375
            },
            {
              "pitch": 70,
              "velocity": 120,
              "position": 31.002083333333335,
              "duration": 0.7458333333333333
            },
            {
              "pitch": 74,
              "velocity": 121,
              "position": 31,
              "duration": 0.75
            },
            {
              "pitch": 67,
              "velocity": 122,
              "position": 31.004166666666666,
              "duration": 0.7479166666666667
            },
            {
              "pitch": 31,
              "velocity": 26,
              "position": 31.770833333333332,
              "duration": 0.10416666666666667
            },
            {
              "pitch": 24,
              "velocity": 122,
              "position": 31.779166666666665,
              "duration": 0.10416666666666667
            }
          ]
        },
        "14": {
          "ctab": {
            "srcChannel": 14,
            "name": "EP Min",
            "accType": "CHORD2",
            "editable": false,
            "mutedNotes": [],
            "mutedChords": [
              "1+2+5",
              "sus4",
              "1+5",
              "1+8",
              "7aug",
              "Maj7aug",
              "7(#9)",
              "7(b13)",
              "7(b9)",
              "7(13)",
              "7#11",
              "7(9)",
              "7b5",
              "7sus4",
              "7th",
              "dim7",
              "dim",
              "minMaj7(9)",
              "minMaj7",
              "min7(11)",
              "min7(9)",
              "min(9)",
              "m7b5",
              "min7",
              "min6",
              "aug",
              "Maj6(9)",
              "Maj7(9)",
              "Maj(9)",
              "Maj7#11",
              "Maj7",
              "Maj6",
              "Maj"
            ],
            "autoStart": false,
            "sourceChordNote": 0,
            "sourceChordType": "min7",
            "ctb2Low": null,
            "ctb2Main": {
              "ntr": "ROOT_TRANSPOSITION",
              "ntt": "MELODIC_MINOR_5",
              "bassOn": false,
              "chordRootUpperLimit": 8,
              "noteLowLimit": 40,
              "noteHighLimit": 66,
              "rtr": "PITCH_SHIFT"
            },
            "ctb2High": null
          },
          "notes": [
            {
              "pitch": 74,
              "velocity": 127,
              "position": 0.010416666666666666,
              "duration": 0.4791666666666667
            },
            {
              "pitch": 67,
              "velocity": 123,
              "position": 0.010416666666666666,
              "duration": 0.48333333333333334
            },
            {
              "pitch": 75,
              "velocity": 98,
              "position": 0.010416666666666666,
              "duration": 0.48333333333333334
            },
            {
              "pitch": 70,
              "velocity": 127,
              "position": 0.010416666666666666,
              "duration": 0.49166666666666664
            },
            {
              "pitch": 31,
              "velocity": 28,
              "position": 0.49583333333333335,
              "duration": 0.10416666666666667
            },
            {
              "pitch": 24,
              "velocity": 127,
              "position": 0.50625,
              "duration": 0.10416666666666667
            },
            {
              "pitch": 74,
              "velocity": 104,
              "position": 0.7708333333333334,
              "duration": 0.15625
            },
            {
              "pitch": 70,
              "velocity": 99,
              "position": 0.7729166666666667,
              "duration": 0.15625
            },
            {
              "pitch": 75,
              "velocity": 76,
              "position": 0.7729166666666667,
              "duration": 0.15625
            },
            {
              "pitch": 67,
              "velocity": 96,
              "position": 0.7770833333333333,
              "duration": 0.15625
            },
            {
              "pitch": 75,
              "velocity": 88,
              "position": 1.26875,
              "duration": 0.15625
            },
            {
              "pitch": 67,
              "velocity": 112,
              "position": 1.2770833333333333,
              "duration": 0.15625
            },
            {
              "pitch": 70,
              "velocity": 110,
              "position": 1.2770833333333333,
              "duration": 0.15625
            },
            {
              "pitch": 74,
              "velocity": 109,
              "position": 1.2770833333333333,
              "duration": 0.15625
            },
            {
              "pitch": 24,
              "velocity": 127,
              "position": 1.7708333333333333,
              "duration": 0.10416666666666667
            },
            {
              "pitch": 31,
              "velocity": 28,
              "position": 1.7791666666666666,
              "duration": 0.10416666666666667
            },
            {
              "pitch": 74,
              "velocity": 127,
              "position": 1.9895833333333333,
              "duration": 0.4791666666666667
            },
            {
              "pitch": 70,
              "velocity": 123,
              "position": 1.9958333333333333,
              "duration": 0.49166666666666664
            },
            {
              "pitch": 75,
              "velocity": 101,
              "position": 2.004166666666667,
              "duration": 0.48333333333333334
            },
            {
              "pitch": 67,
              "velocity": 127,
              "position": 2.0083333333333333,
              "duration": 0.48333333333333334
            },
            {
              "pitch": 31,
              "velocity": 28,
              "position": 2.5,
              "duration": 0.10416666666666667
            },
            {
              "pitch": 24,
              "velocity": 127,
              "position": 2.50625,
              "duration": 0.10416666666666667
            },
            {
              "pitch": 67,
              "velocity": 100,
              "position": 2.7666666666666666,
              "duration": 0.15625
            },
            {
              "pitch": 75,
              "velocity": 78,
              "position": 2.7666666666666666,
              "duration": 0.15625
            },
            {
              "pitch": 74,
              "velocity": 103,
              "position": 2.76875,
              "duration": 0.15625
            },
            {
              "pitch": 70,
              "velocity": 96,
              "position": 2.777083333333333,
              "duration": 0.15625
            },
            {
              "pitch": 70,
              "velocity": 106,
              "position": 3.2625,
              "duration": 0.15625
            },
            {
              "pitch": 75,
              "velocity": 88,
              "position": 3.2625,
              "duration": 0.15625
            },
            {
              "pitch": 67,
              "velocity": 107,
              "position": 3.2666666666666666,
              "duration": 0.15625
            },
            {
              "pitch": 74,
              "velocity": 108,
              "position": 3.275,
              "duration": 0.15625
            },
            {
              "pitch": 31,
              "velocity": 28,
              "position": 3.7729166666666667,
              "duration": 0.10416666666666667
            },
            {
              "pitch": 24,
              "velocity": 127,
              "position": 3.779166666666667,
              "duration": 0.10416666666666667
            },
            {
              "pitch": 74,
              "velocity": 126,
              "position": 4.010416666666667,
              "duration": 0.4791666666666667
            },
            {
              "pitch": 67,
              "velocity": 127,
              "position": 4.010416666666667,
              "duration": 0.48333333333333334
            },
            {
              "pitch": 75,
              "velocity": 100,
              "position": 4.010416666666667,
              "duration": 0.48333333333333334
            },
            {
              "pitch": 70,
              "velocity": 125,
              "position": 4.010416666666667,
              "duration": 0.49166666666666664
            },
            {
              "pitch": 31,
              "velocity": 28,
              "position": 4.502083333333333,
              "duration": 0.10416666666666667
            },
            {
              "pitch": 24,
              "velocity": 127,
              "position": 4.504166666666666,
              "duration": 0.10416666666666667
            },
            {
              "pitch": 75,
              "velocity": 80,
              "position": 4.760416666666667,
              "duration": 0.15625
            },
            {
              "pitch": 70,
              "velocity": 102,
              "position": 4.7625,
              "duration": 0.15625
            },
            {
              "pitch": 74,
              "velocity": 103,
              "position": 4.76875,
              "duration": 0.15625
            },
            {
              "pitch": 67,
              "velocity": 103,
              "position": 4.775,
              "duration": 0.15625
            },
            {
              "pitch": 70,
              "velocity": 112,
              "position": 5.266666666666667,
              "duration": 0.15625
            },
            {
              "pitch": 67,
              "velocity": 110,
              "position": 5.275,
              "duration": 0.15625
            },
            {
              "pitch": 74,
              "velocity": 107,
              "position": 5.275,
              "duration": 0.15625
            },
            {
              "pitch": 75,
              "velocity": 90,
              "position": 5.277083333333334,
              "duration": 0.15625
            },
            {
              "pitch": 24,
              "velocity": 127,
              "position": 5.76875,
              "duration": 0.10416666666666667
            },
            {
              "pitch": 31,
              "velocity": 28,
              "position": 5.76875,
              "duration": 0.10416666666666667
            },
            {
              "pitch": 70,
              "velocity": 127,
              "position": 6.002083333333333,
              "duration": 0.7291666666666666
            },
            {
              "pitch": 75,
              "velocity": 98,
              "position": 5.99375,
              "duration": 0.7375
            },
            {
              "pitch": 67,
              "velocity": 127,
              "position": 6.00625,
              "duration": 0.7354166666666667
            },
            {
              "pitch": 74,
              "velocity": 127,
              "position": 6.008333333333334,
              "duration": 0.7375
            },
            {
              "pitch": 24,
              "velocity": 127,
              "position": 6.775,
              "duration": 0.10416666666666667
            },
            {
              "pitch": 31,
              "velocity": 28,
              "position": 6.777083333333334,
              "duration": 0.10416666666666667
            },
            {
              "pitch": 70,
              "velocity": 127,
              "position": 6.995833333333334,
              "duration": 0.74375
            },
            {
              "pitch": 67,
              "velocity": 125,
              "position": 6.99375,
              "duration": 0.7479166666666667
            },
            {
              "pitch": 75,
              "velocity": 101,
              "position": 7.004166666666666,
              "duration": 0.7375
            },
            {
              "pitch": 74,
              "velocity": 127,
              "position": 6.995833333333334,
              "duration": 0.7520833333333333
            },
            {
              "pitch": 24,
              "velocity": 127,
              "position": 7.764583333333333,
              "duration": 0.10416666666666667
            },
            {
              "pitch": 31,
              "velocity": 28,
              "position": 7.770833333333333,
              "duration": 0.10416666666666667
            },
            {
              "pitch": 74,
              "velocity": 127,
              "position": 8.010416666666666,
              "duration": 0.4791666666666667
            },
            {
              "pitch": 67,
              "velocity": 123,
              "position": 8.010416666666666,
              "duration": 0.48333333333333334
            },
            {
              "pitch": 75,
              "velocity": 101,
              "position": 8.010416666666666,
              "duration": 0.48333333333333334
            },
            {
              "pitch": 70,
              "velocity": 127,
              "position": 8.010416666666666,
              "duration": 0.49166666666666664
            },
            {
              "pitch": 31,
              "velocity": 28,
              "position": 8.497916666666667,
              "duration": 0.10416666666666667
            },
            {
              "pitch": 24,
              "velocity": 127,
              "position": 8.50625,
              "duration": 0.10416666666666667
            },
            {
              "pitch": 70,
              "velocity": 98,
              "position": 8.7625,
              "duration": 0.15625
            },
            {
              "pitch": 67,
              "velocity": 98,
              "position": 8.76875,
              "duration": 0.15625
            },
            {
              "pitch": 75,
              "velocity": 80,
              "position": 8.76875,
              "duration": 0.15625
            },
            {
              "pitch": 74,
              "velocity": 100,
              "position": 8.772916666666667,
              "duration": 0.15625
            },
            {
              "pitch": 74,
              "velocity": 111,
              "position": 9.266666666666667,
              "duration": 0.15625
            },
            {
              "pitch": 75,
              "velocity": 89,
              "position": 9.26875,
              "duration": 0.15625
            },
            {
              "pitch": 70,
              "velocity": 106,
              "position": 9.270833333333334,
              "duration": 0.15625
            },
            {
              "pitch": 67,
              "velocity": 111,
              "position": 9.272916666666667,
              "duration": 0.15625
            },
            {
              "pitch": 31,
              "velocity": 28,
              "position": 9.764583333333333,
              "duration": 0.10416666666666667
            },
            {
              "pitch": 24,
              "velocity": 127,
              "position": 9.772916666666667,
              "duration": 0.10416666666666667
            },
            {
              "pitch": 74,
              "velocity": 127,
              "position": 9.997916666666667,
              "duration": 0.4791666666666667
            },
            {
              "pitch": 67,
              "velocity": 123,
              "position": 10.002083333333333,
              "duration": 0.48333333333333334
            },
            {
              "pitch": 75,
              "velocity": 99,
              "position": 10.002083333333333,
              "duration": 0.48333333333333334
            },
            {
              "pitch": 70,
              "velocity": 127,
              "position": 10.004166666666666,
              "duration": 0.49166666666666664
            },
            {
              "pitch": 31,
              "velocity": 28,
              "position": 10.5,
              "duration": 0.10416666666666667
            },
            {
              "pitch": 24,
              "velocity": 127,
              "position": 10.504166666666666,
              "duration": 0.10416666666666667
            },
            {
              "pitch": 75,
              "velocity": 81,
              "position": 10.7625,
              "duration": 0.15625
            },
            {
              "pitch": 70,
              "velocity": 104,
              "position": 10.766666666666667,
              "duration": 0.15625
            },
            {
              "pitch": 74,
              "velocity": 100,
              "position": 10.772916666666667,
              "duration": 0.15625
            },
            {
              "pitch": 67,
              "velocity": 101,
              "position": 10.777083333333334,
              "duration": 0.15625
            },
            {
              "pitch": 67,
              "velocity": 107,
              "position": 11.2625,
              "duration": 0.15625
            },
            {
              "pitch": 75,
              "velocity": 91,
              "position": 11.2625,
              "duration": 0.15625
            },
            {
              "pitch": 74,
              "velocity": 110,
              "position": 11.264583333333333,
              "duration": 0.15625
            },
            {
              "pitch": 70,
              "velocity": 112,
              "position": 11.272916666666667,
              "duration": 0.15625
            },
            {
              "pitch": 24,
              "velocity": 127,
              "position": 11.7625,
              "duration": 0.10416666666666667
            },
            {
              "pitch": 31,
              "velocity": 28,
              "position": 11.779166666666667,
              "duration": 0.10416666666666667
            },
            {
              "pitch": 74,
              "velocity": 127,
              "position": 12.010416666666666,
              "duration": 0.4791666666666667
            },
            {
              "pitch": 67,
              "velocity": 127,
              "position": 12.010416666666666,
              "duration": 0.48333333333333334
            },
            {
              "pitch": 75,
              "velocity": 101,
              "position": 12.010416666666666,
              "duration": 0.48333333333333334
            },
            {
              "pitch": 70,
              "velocity": 123,
              "position": 12.010416666666666,
              "duration": 0.49166666666666664
            },
            {
              "pitch": 24,
              "velocity": 127,
              "position": 12.504166666666666,
              "duration": 0.10416666666666667
            },
            {
              "pitch": 31,
              "velocity": 28,
              "position": 12.504166666666666,
              "duration": 0.10416666666666667
            },
            {
              "pitch": 67,
              "velocity": 96,
              "position": 12.766666666666667,
              "duration": 0.15625
            },
            {
              "pitch": 70,
              "velocity": 101,
              "position": 12.770833333333334,
              "duration": 0.15625
            },
            {
              "pitch": 74,
              "velocity": 99,
              "position": 12.770833333333334,
              "duration": 0.15625
            },
            {
              "pitch": 75,
              "velocity": 83,
              "position": 12.775,
              "duration": 0.15625
            },
            {
              "pitch": 74,
              "velocity": 110,
              "position": 13.264583333333333,
              "duration": 0.15625
            },
            {
              "pitch": 67,
              "velocity": 110,
              "position": 13.270833333333334,
              "duration": 0.15625
            },
            {
              "pitch": 70,
              "velocity": 110,
              "position": 13.277083333333334,
              "duration": 0.15625
            },
            {
              "pitch": 75,
              "velocity": 85,
              "position": 13.277083333333334,
              "duration": 0.15625
            },
            {
              "pitch": 24,
              "velocity": 127,
              "position": 13.770833333333334,
              "duration": 0.10416666666666667
            },
            {
              "pitch": 31,
              "velocity": 28,
              "position": 13.772916666666667,
              "duration": 0.10416666666666667
            },
            {
              "pitch": 70,
              "velocity": 124,
              "position": 13.99375,
              "duration": 0.7291666666666666
            },
            {
              "pitch": 75,
              "velocity": 101,
              "position": 13.991666666666667,
              "duration": 0.7375
            },
            {
              "pitch": 74,
              "velocity": 125,
              "position": 13.995833333333334,
              "duration": 0.7375
            },
            {
              "pitch": 67,
              "velocity": 127,
              "position": 14,
              "duration": 0.7354166666666667
            },
            {
              "pitch": 24,
              "velocity": 127,
              "position": 14.772916666666667,
              "duration": 0.10416666666666667
            },
            {
              "pitch": 31,
              "velocity": 28,
              "position": 14.779166666666667,
              "duration": 0.10416666666666667
            },
            {
              "pitch": 75,
              "velocity": 99,
              "position": 15,
              "duration": 0.7375
            },
            {
              "pitch": 70,
              "velocity": 125,
              "position": 15.002083333333333,
              "duration": 0.7458333333333333
            },
            {
              "pitch": 74,
              "velocity": 126,
              "position": 15,
              "duration": 0.75
            },
            {
              "pitch": 67,
              "velocity": 127,
              "position": 15.004166666666666,
              "duration": 0.7479166666666667
            },
            {
              "pitch": 31,
              "velocity": 28,
              "position": 15.770833333333334,
              "duration": 0.10416666666666667
            },
            {
              "pitch": 24,
              "velocity": 127,
              "position": 15.779166666666667,
              "duration": 0.10416666666666667
            },
            {
              "pitch": 74,
              "velocity": 127,
              "position": 16.010416666666668,
              "duration": 0.4791666666666667
            },
            {
              "pitch": 67,
              "velocity": 123,
              "position": 16.010416666666668,
              "duration": 0.48333333333333334
            },
            {
              "pitch": 75,
              "velocity": 98,
              "position": 16.010416666666668,
              "duration": 0.48333333333333334
            },
            {
              "pitch": 70,
              "velocity": 127,
              "position": 16.010416666666668,
              "duration": 0.49166666666666664
            },
            {
              "pitch": 31,
              "velocity": 28,
              "position": 16.495833333333334,
              "duration": 0.10416666666666667
            },
            {
              "pitch": 24,
              "velocity": 127,
              "position": 16.50625,
              "duration": 0.10416666666666667
            },
            {
              "pitch": 74,
              "velocity": 104,
              "position": 16.770833333333332,
              "duration": 0.15625
            },
            {
              "pitch": 70,
              "velocity": 99,
              "position": 16.772916666666667,
              "duration": 0.15625
            },
            {
              "pitch": 75,
              "velocity": 76,
              "position": 16.772916666666667,
              "duration": 0.15625
            },
            {
              "pitch": 67,
              "velocity": 96,
              "position": 16.777083333333334,
              "duration": 0.15625
            },
            {
              "pitch": 75,
              "velocity": 88,
              "position": 17.26875,
              "duration": 0.15625
            },
            {
              "pitch": 67,
              "velocity": 112,
              "position": 17.277083333333334,
              "duration": 0.15625
            },
            {
              "pitch": 70,
              "velocity": 110,
              "position": 17.277083333333334,
              "duration": 0.15625
            },
            {
              "pitch": 74,
              "velocity": 109,
              "position": 17.277083333333334,
              "duration": 0.15625
            },
            {
              "pitch": 24,
              "velocity": 127,
              "position": 17.770833333333332,
              "duration": 0.10416666666666667
            },
            {
              "pitch": 31,
              "velocity": 28,
              "position": 17.779166666666665,
              "duration": 0.10416666666666667
            },
            {
              "pitch": 74,
              "velocity": 127,
              "position": 17.989583333333332,
              "duration": 0.4791666666666667
            },
            {
              "pitch": 70,
              "velocity": 123,
              "position": 17.995833333333334,
              "duration": 0.49166666666666664
            },
            {
              "pitch": 75,
              "velocity": 101,
              "position": 18.004166666666666,
              "duration": 0.48333333333333334
            },
            {
              "pitch": 67,
              "velocity": 127,
              "position": 18.008333333333333,
              "duration": 0.48333333333333334
            },
            {
              "pitch": 31,
              "velocity": 28,
              "position": 18.5,
              "duration": 0.10416666666666667
            },
            {
              "pitch": 24,
              "velocity": 127,
              "position": 18.50625,
              "duration": 0.10416666666666667
            },
            {
              "pitch": 67,
              "velocity": 100,
              "position": 18.766666666666666,
              "duration": 0.15625
            },
            {
              "pitch": 75,
              "velocity": 78,
              "position": 18.766666666666666,
              "duration": 0.15625
            },
            {
              "pitch": 74,
              "velocity": 103,
              "position": 18.76875,
              "duration": 0.15625
            },
            {
              "pitch": 70,
              "velocity": 96,
              "position": 18.777083333333334,
              "duration": 0.15625
            },
            {
              "pitch": 70,
              "velocity": 106,
              "position": 19.2625,
              "duration": 0.15625
            },
            {
              "pitch": 75,
              "velocity": 88,
              "position": 19.2625,
              "duration": 0.15625
            },
            {
              "pitch": 67,
              "velocity": 107,
              "position": 19.266666666666666,
              "duration": 0.15625
            },
            {
              "pitch": 74,
              "velocity": 108,
              "position": 19.275,
              "duration": 0.15625
            },
            {
              "pitch": 31,
              "velocity": 28,
              "position": 19.772916666666667,
              "duration": 0.10416666666666667
            },
            {
              "pitch": 24,
              "velocity": 127,
              "position": 19.779166666666665,
              "duration": 0.10416666666666667
            },
            {
              "pitch": 74,
              "velocity": 126,
              "position": 20.010416666666668,
              "duration": 0.4791666666666667
            },
            {
              "pitch": 67,
              "velocity": 127,
              "position": 20.010416666666668,
              "duration": 0.48333333333333334
            },
            {
              "pitch": 75,
              "velocity": 100,
              "position": 20.010416666666668,
              "duration": 0.48333333333333334
            },
            {
              "pitch": 70,
              "velocity": 125,
              "position": 20.010416666666668,
              "duration": 0.49166666666666664
            },
            {
              "pitch": 31,
              "velocity": 28,
              "position": 20.502083333333335,
              "duration": 0.10416666666666667
            },
            {
              "pitch": 24,
              "velocity": 127,
              "position": 20.504166666666666,
              "duration": 0.10416666666666667
            },
            {
              "pitch": 75,
              "velocity": 80,
              "position": 20.760416666666668,
              "duration": 0.15625
            },
            {
              "pitch": 70,
              "velocity": 102,
              "position": 20.7625,
              "duration": 0.15625
            },
            {
              "pitch": 74,
              "velocity": 103,
              "position": 20.76875,
              "duration": 0.15625
            },
            {
              "pitch": 67,
              "velocity": 103,
              "position": 20.775,
              "duration": 0.15625
            },
            {
              "pitch": 70,
              "velocity": 112,
              "position": 21.266666666666666,
              "duration": 0.15625
            },
            {
              "pitch": 67,
              "velocity": 110,
              "position": 21.275,
              "duration": 0.15625
            },
            {
              "pitch": 74,
              "velocity": 107,
              "position": 21.275,
              "duration": 0.15625
            },
            {
              "pitch": 75,
              "velocity": 90,
              "position": 21.277083333333334,
              "duration": 0.15625
            },
            {
              "pitch": 24,
              "velocity": 127,
              "position": 21.76875,
              "duration": 0.10416666666666667
            },
            {
              "pitch": 31,
              "velocity": 28,
              "position": 21.76875,
              "duration": 0.10416666666666667
            },
            {
              "pitch": 70,
              "velocity": 127,
              "position": 22.002083333333335,
              "duration": 0.7291666666666666
            },
            {
              "pitch": 75,
              "velocity": 98,
              "position": 21.99375,
              "duration": 0.7375
            },
            {
              "pitch": 67,
              "velocity": 127,
              "position": 22.00625,
              "duration": 0.7354166666666667
            },
            {
              "pitch": 74,
              "velocity": 127,
              "position": 22.008333333333333,
              "duration": 0.7375
            },
            {
              "pitch": 24,
              "velocity": 127,
              "position": 22.775,
              "duration": 0.10416666666666667
            },
            {
              "pitch": 31,
              "velocity": 28,
              "position": 22.777083333333334,
              "duration": 0.10416666666666667
            },
            {
              "pitch": 70,
              "velocity": 127,
              "position": 22.995833333333334,
              "duration": 0.74375
            },
            {
              "pitch": 67,
              "velocity": 125,
              "position": 22.99375,
              "duration": 0.7479166666666667
            },
            {
              "pitch": 75,
              "velocity": 101,
              "position": 23.004166666666666,
              "duration": 0.7375
            },
            {
              "pitch": 74,
              "velocity": 127,
              "position": 22.995833333333334,
              "duration": 0.7520833333333333
            },
            {
              "pitch": 24,
              "velocity": 127,
              "position": 23.764583333333334,
              "duration": 0.10416666666666667
            },
            {
              "pitch": 31,
              "velocity": 28,
              "position": 23.770833333333332,
              "duration": 0.10416666666666667
            },
            {
              "pitch": 74,
              "velocity": 127,
              "position": 24.010416666666668,
              "duration": 0.4791666666666667
            },
            {
              "pitch": 67,
              "velocity": 123,
              "position": 24.010416666666668,
              "duration": 0.48333333333333334
            },
            {
              "pitch": 75,
              "velocity": 101,
              "position": 24.010416666666668,
              "duration": 0.48333333333333334
            },
            {
              "pitch": 70,
              "velocity": 127,
              "position": 24.010416666666668,
              "duration": 0.49166666666666664
            },
            {
              "pitch": 31,
              "velocity": 28,
              "position": 24.497916666666665,
              "duration": 0.10416666666666667
            },
            {
              "pitch": 24,
              "velocity": 127,
              "position": 24.50625,
              "duration": 0.10416666666666667
            },
            {
              "pitch": 70,
              "velocity": 98,
              "position": 24.7625,
              "duration": 0.15625
            },
            {
              "pitch": 67,
              "velocity": 98,
              "position": 24.76875,
              "duration": 0.15625
            },
            {
              "pitch": 75,
              "velocity": 80,
              "position": 24.76875,
              "duration": 0.15625
            },
            {
              "pitch": 74,
              "velocity": 100,
              "position": 24.772916666666667,
              "duration": 0.15625
            },
            {
              "pitch": 74,
              "velocity": 111,
              "position": 25.266666666666666,
              "duration": 0.15625
            },
            {
              "pitch": 75,
              "velocity": 89,
              "position": 25.26875,
              "duration": 0.15625
            },
            {
              "pitch": 70,
              "velocity": 106,
              "position": 25.270833333333332,
              "duration": 0.15625
            },
            {
              "pitch": 67,
              "velocity": 111,
              "position": 25.272916666666667,
              "duration": 0.15625
            },
            {
              "pitch": 31,
              "velocity": 28,
              "position": 25.764583333333334,
              "duration": 0.10416666666666667
            },
            {
              "pitch": 24,
              "velocity": 127,
              "position": 25.772916666666667,
              "duration": 0.10416666666666667
            },
            {
              "pitch": 74,
              "velocity": 127,
              "position": 25.997916666666665,
              "duration": 0.4791666666666667
            },
            {
              "pitch": 67,
              "velocity": 123,
              "position": 26.002083333333335,
              "duration": 0.48333333333333334
            },
            {
              "pitch": 75,
              "velocity": 99,
              "position": 26.002083333333335,
              "duration": 0.48333333333333334
            },
            {
              "pitch": 70,
              "velocity": 127,
              "position": 26.004166666666666,
              "duration": 0.49166666666666664
            },
            {
              "pitch": 31,
              "velocity": 28,
              "position": 26.5,
              "duration": 0.10416666666666667
            },
            {
              "pitch": 24,
              "velocity": 127,
              "position": 26.504166666666666,
              "duration": 0.10416666666666667
            },
            {
              "pitch": 75,
              "velocity": 81,
              "position": 26.7625,
              "duration": 0.15625
            },
            {
              "pitch": 70,
              "velocity": 104,
              "position": 26.766666666666666,
              "duration": 0.15625
            },
            {
              "pitch": 74,
              "velocity": 100,
              "position": 26.772916666666667,
              "duration": 0.15625
            },
            {
              "pitch": 67,
              "velocity": 101,
              "position": 26.777083333333334,
              "duration": 0.15625
            },
            {
              "pitch": 67,
              "velocity": 107,
              "position": 27.2625,
              "duration": 0.15625
            },
            {
              "pitch": 75,
              "velocity": 91,
              "position": 27.2625,
              "duration": 0.15625
            },
            {
              "pitch": 74,
              "velocity": 110,
              "position": 27.264583333333334,
              "duration": 0.15625
            },
            {
              "pitch": 70,
              "velocity": 112,
              "position": 27.272916666666667,
              "duration": 0.15625
            },
            {
              "pitch": 24,
              "velocity": 127,
              "position": 27.7625,
              "duration": 0.10416666666666667
            },
            {
              "pitch": 31,
              "velocity": 28,
              "position": 27.779166666666665,
              "duration": 0.10416666666666667
            },
            {
              "pitch": 74,
              "velocity": 127,
              "position": 28.010416666666668,
              "duration": 0.4791666666666667
            },
            {
              "pitch": 67,
              "velocity": 127,
              "position": 28.010416666666668,
              "duration": 0.48333333333333334
            },
            {
              "pitch": 75,
              "velocity": 101,
              "position": 28.010416666666668,
              "duration": 0.48333333333333334
            },
            {
              "pitch": 70,
              "velocity": 123,
              "position": 28.010416666666668,
              "duration": 0.49166666666666664
            },
            {
              "pitch": 24,
              "velocity": 127,
              "position": 28.504166666666666,
              "duration": 0.10416666666666667
            },
            {
              "pitch": 31,
              "velocity": 28,
              "position": 28.504166666666666,
              "duration": 0.10416666666666667
            },
            {
              "pitch": 67,
              "velocity": 96,
              "position": 28.766666666666666,
              "duration": 0.15625
            },
            {
              "pitch": 70,
              "velocity": 101,
              "position": 28.770833333333332,
              "duration": 0.15625
            },
            {
              "pitch": 74,
              "velocity": 99,
              "position": 28.770833333333332,
              "duration": 0.15625
            },
            {
              "pitch": 75,
              "velocity": 83,
              "position": 28.775,
              "duration": 0.15625
            },
            {
              "pitch": 74,
              "velocity": 110,
              "position": 29.264583333333334,
              "duration": 0.15625
            },
            {
              "pitch": 67,
              "velocity": 110,
              "position": 29.270833333333332,
              "duration": 0.15625
            },
            {
              "pitch": 70,
              "velocity": 110,
              "position": 29.277083333333334,
              "duration": 0.15625
            },
            {
              "pitch": 75,
              "velocity": 85,
              "position": 29.277083333333334,
              "duration": 0.15625
            },
            {
              "pitch": 24,
              "velocity": 127,
              "position": 29.770833333333332,
              "duration": 0.10416666666666667
            },
            {
              "pitch": 31,
              "velocity": 28,
              "position": 29.772916666666667,
              "duration": 0.10416666666666667
            },
            {
              "pitch": 70,
              "velocity": 124,
              "position": 29.99375,
              "duration": 0.7291666666666666
            },
            {
              "pitch": 75,
              "velocity": 101,
              "position": 29.991666666666667,
              "duration": 0.7375
            },
            {
              "pitch": 74,
              "velocity": 125,
              "position": 29.995833333333334,
              "duration": 0.7375
            },
            {
              "pitch": 67,
              "velocity": 127,
              "position": 30,
              "duration": 0.7354166666666667
            },
            {
              "pitch": 24,
              "velocity": 127,
              "position": 30.772916666666667,
              "duration": 0.10416666666666667
            },
            {
              "pitch": 31,
              "velocity": 28,
              "position": 30.779166666666665,
              "duration": 0.10416666666666667
            },
            {
              "pitch": 75,
              "velocity": 99,
              "position": 31,
              "duration": 0.7375
            },
            {
              "pitch": 70,
              "velocity": 125,
              "position": 31.002083333333335,
              "duration": 0.7458333333333333
            },
            {
              "pitch": 74,
              "velocity": 126,
              "position": 31,
              "duration": 0.75
            },
            {
              "pitch": 67,
              "velocity": 127,
              "position": 31.004166666666666,
              "duration": 0.7479166666666667
            },
            {
              "pitch": 31,
              "velocity": 28,
              "position": 31.770833333333332,
              "duration": 0.10416666666666667
            },
            {
              "pitch": 24,
              "velocity": 127,
              "position": 31.779166666666665,
              "duration": 0.10416666666666667
            }
          ]
        },
        "15": {
          "ctab": {
            "srcChannel": 15,
            "name": "EP",
            "accType": "CHORD2",
            "editable": false,
            "mutedNotes": [],
            "mutedChords": [
              "7th",
              "min",
              "Maj"
            ],
            "autoStart": false,
            "sourceChordNote": 0,
            "sourceChordType": "Maj7",
            "ctb2Low": null,
            "ctb2Main": {
              "ntr": "ROOT_TRANSPOSITION",
              "ntt": "CHORD",
              "bassOn": false,
              "chordRootUpperLimit": 8,
              "noteLowLimit": 40,
              "noteHighLimit": 66,
              "rtr": "PITCH_SHIFT"
            },
            "ctb2High": null
          },
          "notes": [
            {
              "pitch": 76,
              "velocity": 127,
              "position": 0.010416666666666666,
              "duration": 0.4791666666666667
            },
            {
              "pitch": 67,
              "velocity": 123,
              "position": 0.010416666666666666,
              "duration": 0.48333333333333334
            },
            {
              "pitch": 71,
              "velocity": 127,
              "position": 0.010416666666666666,
              "duration": 0.49166666666666664
            },
            {
              "pitch": 24,
              "velocity": 127,
              "position": 0.50625,
              "duration": 0.10416666666666667
            },
            {
              "pitch": 76,
              "velocity": 104,
              "position": 0.7708333333333334,
              "duration": 0.15625
            },
            {
              "pitch": 71,
              "velocity": 99,
              "position": 0.7729166666666667,
              "duration": 0.15625
            },
            {
              "pitch": 67,
              "velocity": 96,
              "position": 0.7770833333333333,
              "duration": 0.15625
            },
            {
              "pitch": 67,
              "velocity": 112,
              "position": 1.2770833333333333,
              "duration": 0.15625
            },
            {
              "pitch": 71,
              "velocity": 110,
              "position": 1.2770833333333333,
              "duration": 0.15625
            },
            {
              "pitch": 76,
              "velocity": 109,
              "position": 1.2770833333333333,
              "duration": 0.15625
            },
            {
              "pitch": 24,
              "velocity": 127,
              "position": 1.7708333333333333,
              "duration": 0.10416666666666667
            },
            {
              "pitch": 76,
              "velocity": 127,
              "position": 1.9895833333333333,
              "duration": 0.4791666666666667
            },
            {
              "pitch": 71,
              "velocity": 123,
              "position": 1.9958333333333333,
              "duration": 0.49166666666666664
            },
            {
              "pitch": 67,
              "velocity": 127,
              "position": 2.0083333333333333,
              "duration": 0.48333333333333334
            },
            {
              "pitch": 24,
              "velocity": 127,
              "position": 2.50625,
              "duration": 0.10416666666666667
            },
            {
              "pitch": 67,
              "velocity": 100,
              "position": 2.7666666666666666,
              "duration": 0.15625
            },
            {
              "pitch": 76,
              "velocity": 103,
              "position": 2.76875,
              "duration": 0.15625
            },
            {
              "pitch": 71,
              "velocity": 96,
              "position": 2.777083333333333,
              "duration": 0.15625
            },
            {
              "pitch": 71,
              "velocity": 106,
              "position": 3.2625,
              "duration": 0.15625
            },
            {
              "pitch": 67,
              "velocity": 107,
              "position": 3.2666666666666666,
              "duration": 0.15625
            },
            {
              "pitch": 76,
              "velocity": 108,
              "position": 3.275,
              "duration": 0.15625
            },
            {
              "pitch": 24,
              "velocity": 127,
              "position": 3.779166666666667,
              "duration": 0.10416666666666667
            },
            {
              "pitch": 76,
              "velocity": 126,
              "position": 4.010416666666667,
              "duration": 0.4791666666666667
            },
            {
              "pitch": 67,
              "velocity": 127,
              "position": 4.010416666666667,
              "duration": 0.48333333333333334
            },
            {
              "pitch": 71,
              "velocity": 125,
              "position": 4.010416666666667,
              "duration": 0.49166666666666664
            },
            {
              "pitch": 24,
              "velocity": 127,
              "position": 4.504166666666666,
              "duration": 0.10416666666666667
            },
            {
              "pitch": 71,
              "velocity": 102,
              "position": 4.7625,
              "duration": 0.15625
            },
            {
              "pitch": 76,
              "velocity": 103,
              "position": 4.76875,
              "duration": 0.15625
            },
            {
              "pitch": 67,
              "velocity": 103,
              "position": 4.775,
              "duration": 0.15625
            },
            {
              "pitch": 71,
              "velocity": 112,
              "position": 5.266666666666667,
              "duration": 0.15625
            },
            {
              "pitch": 67,
              "velocity": 110,
              "position": 5.275,
              "duration": 0.15625
            },
            {
              "pitch": 76,
              "velocity": 107,
              "position": 5.275,
              "duration": 0.15625
            },
            {
              "pitch": 24,
              "velocity": 127,
              "position": 5.76875,
              "duration": 0.10416666666666667
            },
            {
              "pitch": 71,
              "velocity": 127,
              "position": 6.002083333333333,
              "duration": 0.7291666666666666
            },
            {
              "pitch": 67,
              "velocity": 127,
              "position": 6.00625,
              "duration": 0.7354166666666667
            },
            {
              "pitch": 76,
              "velocity": 127,
              "position": 6.008333333333334,
              "duration": 0.7375
            },
            {
              "pitch": 24,
              "velocity": 127,
              "position": 6.775,
              "duration": 0.10416666666666667
            },
            {
              "pitch": 71,
              "velocity": 127,
              "position": 6.995833333333334,
              "duration": 0.74375
            },
            {
              "pitch": 67,
              "velocity": 125,
              "position": 6.99375,
              "duration": 0.7479166666666667
            },
            {
              "pitch": 76,
              "velocity": 127,
              "position": 6.995833333333334,
              "duration": 0.7520833333333333
            },
            {
              "pitch": 24,
              "velocity": 127,
              "position": 7.764583333333333,
              "duration": 0.10416666666666667
            },
            {
              "pitch": 76,
              "velocity": 127,
              "position": 8.010416666666666,
              "duration": 0.4791666666666667
            },
            {
              "pitch": 67,
              "velocity": 123,
              "position": 8.010416666666666,
              "duration": 0.48333333333333334
            },
            {
              "pitch": 71,
              "velocity": 127,
              "position": 8.010416666666666,
              "duration": 0.49166666666666664
            },
            {
              "pitch": 24,
              "velocity": 127,
              "position": 8.50625,
              "duration": 0.10416666666666667
            },
            {
              "pitch": 71,
              "velocity": 98,
              "position": 8.7625,
              "duration": 0.15625
            },
            {
              "pitch": 67,
              "velocity": 98,
              "position": 8.76875,
              "duration": 0.15625
            },
            {
              "pitch": 76,
              "velocity": 100,
              "position": 8.772916666666667,
              "duration": 0.15625
            },
            {
              "pitch": 76,
              "velocity": 111,
              "position": 9.266666666666667,
              "duration": 0.15625
            },
            {
              "pitch": 71,
              "velocity": 106,
              "position": 9.270833333333334,
              "duration": 0.15625
            },
            {
              "pitch": 67,
              "velocity": 111,
              "position": 9.272916666666667,
              "duration": 0.15625
            },
            {
              "pitch": 24,
              "velocity": 127,
              "position": 9.772916666666667,
              "duration": 0.10416666666666667
            },
            {
              "pitch": 76,
              "velocity": 127,
              "position": 9.997916666666667,
              "duration": 0.4791666666666667
            },
            {
              "pitch": 67,
              "velocity": 123,
              "position": 10.002083333333333,
              "duration": 0.48333333333333334
            },
            {
              "pitch": 71,
              "velocity": 127,
              "position": 10.004166666666666,
              "duration": 0.49166666666666664
            },
            {
              "pitch": 24,
              "velocity": 127,
              "position": 10.504166666666666,
              "duration": 0.10416666666666667
            },
            {
              "pitch": 71,
              "velocity": 104,
              "position": 10.766666666666667,
              "duration": 0.15625
            },
            {
              "pitch": 76,
              "velocity": 100,
              "position": 10.772916666666667,
              "duration": 0.15625
            },
            {
              "pitch": 67,
              "velocity": 101,
              "position": 10.777083333333334,
              "duration": 0.15625
            },
            {
              "pitch": 67,
              "velocity": 107,
              "position": 11.2625,
              "duration": 0.15625
            },
            {
              "pitch": 76,
              "velocity": 110,
              "position": 11.264583333333333,
              "duration": 0.15625
            },
            {
              "pitch": 71,
              "velocity": 112,
              "position": 11.272916666666667,
              "duration": 0.15625
            },
            {
              "pitch": 24,
              "velocity": 127,
              "position": 11.7625,
              "duration": 0.10416666666666667
            },
            {
              "pitch": 76,
              "velocity": 127,
              "position": 12.010416666666666,
              "duration": 0.4791666666666667
            },
            {
              "pitch": 67,
              "velocity": 127,
              "position": 12.010416666666666,
              "duration": 0.48333333333333334
            },
            {
              "pitch": 71,
              "velocity": 123,
              "position": 12.010416666666666,
              "duration": 0.49166666666666664
            },
            {
              "pitch": 24,
              "velocity": 127,
              "position": 12.504166666666666,
              "duration": 0.10416666666666667
            },
            {
              "pitch": 67,
              "velocity": 96,
              "position": 12.766666666666667,
              "duration": 0.15625
            },
            {
              "pitch": 71,
              "velocity": 101,
              "position": 12.770833333333334,
              "duration": 0.15625
            },
            {
              "pitch": 76,
              "velocity": 99,
              "position": 12.770833333333334,
              "duration": 0.15625
            },
            {
              "pitch": 76,
              "velocity": 110,
              "position": 13.264583333333333,
              "duration": 0.15625
            },
            {
              "pitch": 67,
              "velocity": 110,
              "position": 13.270833333333334,
              "duration": 0.15625
            },
            {
              "pitch": 71,
              "velocity": 110,
              "position": 13.277083333333334,
              "duration": 0.15625
            },
            {
              "pitch": 24,
              "velocity": 127,
              "position": 13.770833333333334,
              "duration": 0.10416666666666667
            },
            {
              "pitch": 71,
              "velocity": 124,
              "position": 13.99375,
              "duration": 0.7291666666666666
            },
            {
              "pitch": 76,
              "velocity": 125,
              "position": 13.995833333333334,
              "duration": 0.7375
            },
            {
              "pitch": 67,
              "velocity": 127,
              "position": 14,
              "duration": 0.7354166666666667
            },
            {
              "pitch": 24,
              "velocity": 127,
              "position": 14.772916666666667,
              "duration": 0.10416666666666667
            },
            {
              "pitch": 71,
              "velocity": 125,
              "position": 15.002083333333333,
              "duration": 0.7458333333333333
            },
            {
              "pitch": 76,
              "velocity": 126,
              "position": 15,
              "duration": 0.75
            },
            {
              "pitch": 67,
              "velocity": 127,
              "position": 15.004166666666666,
              "duration": 0.7479166666666667
            },
            {
              "pitch": 24,
              "velocity": 127,
              "position": 15.779166666666667,
              "duration": 0.10416666666666667
            },
            {
              "pitch": 76,
              "velocity": 127,
              "position": 16.010416666666668,
              "duration": 0.4791666666666667
            },
            {
              "pitch": 67,
              "velocity": 123,
              "position": 16.010416666666668,
              "duration": 0.48333333333333334
            },
            {
              "pitch": 71,
              "velocity": 127,
              "position": 16.010416666666668,
              "duration": 0.49166666666666664
            },
            {
              "pitch": 24,
              "velocity": 127,
              "position": 16.50625,
              "duration": 0.10416666666666667
            },
            {
              "pitch": 76,
              "velocity": 104,
              "position": 16.770833333333332,
              "duration": 0.15625
            },
            {
              "pitch": 71,
              "velocity": 99,
              "position": 16.772916666666667,
              "duration": 0.15625
            },
            {
              "pitch": 67,
              "velocity": 96,
              "position": 16.777083333333334,
              "duration": 0.15625
            },
            {
              "pitch": 67,
              "velocity": 112,
              "position": 17.277083333333334,
              "duration": 0.15625
            },
            {
              "pitch": 71,
              "velocity": 110,
              "position": 17.277083333333334,
              "duration": 0.15625
            },
            {
              "pitch": 76,
              "velocity": 109,
              "position": 17.277083333333334,
              "duration": 0.15625
            },
            {
              "pitch": 24,
              "velocity": 127,
              "position": 17.770833333333332,
              "duration": 0.10416666666666667
            },
            {
              "pitch": 76,
              "velocity": 127,
              "position": 17.989583333333332,
              "duration": 0.4791666666666667
            },
            {
              "pitch": 71,
              "velocity": 123,
              "position": 17.995833333333334,
              "duration": 0.49166666666666664
            },
            {
              "pitch": 67,
              "velocity": 127,
              "position": 18.008333333333333,
              "duration": 0.48333333333333334
            },
            {
              "pitch": 24,
              "velocity": 127,
              "position": 18.50625,
              "duration": 0.10416666666666667
            },
            {
              "pitch": 67,
              "velocity": 100,
              "position": 18.766666666666666,
              "duration": 0.15625
            },
            {
              "pitch": 76,
              "velocity": 103,
              "position": 18.76875,
              "duration": 0.15625
            },
            {
              "pitch": 71,
              "velocity": 96,
              "position": 18.777083333333334,
              "duration": 0.15625
            },
            {
              "pitch": 71,
              "velocity": 106,
              "position": 19.2625,
              "duration": 0.15625
            },
            {
              "pitch": 67,
              "velocity": 107,
              "position": 19.266666666666666,
              "duration": 0.15625
            },
            {
              "pitch": 76,
              "velocity": 108,
              "position": 19.275,
              "duration": 0.15625
            },
            {
              "pitch": 24,
              "velocity": 127,
              "position": 19.779166666666665,
              "duration": 0.10416666666666667
            },
            {
              "pitch": 76,
              "velocity": 126,
              "position": 20.010416666666668,
              "duration": 0.4791666666666667
            },
            {
              "pitch": 67,
              "velocity": 127,
              "position": 20.010416666666668,
              "duration": 0.48333333333333334
            },
            {
              "pitch": 71,
              "velocity": 125,
              "position": 20.010416666666668,
              "duration": 0.49166666666666664
            },
            {
              "pitch": 24,
              "velocity": 127,
              "position": 20.504166666666666,
              "duration": 0.10416666666666667
            },
            {
              "pitch": 71,
              "velocity": 102,
              "position": 20.7625,
              "duration": 0.15625
            },
            {
              "pitch": 76,
              "velocity": 103,
              "position": 20.76875,
              "duration": 0.15625
            },
            {
              "pitch": 67,
              "velocity": 103,
              "position": 20.775,
              "duration": 0.15625
            },
            {
              "pitch": 71,
              "velocity": 112,
              "position": 21.266666666666666,
              "duration": 0.15625
            },
            {
              "pitch": 67,
              "velocity": 110,
              "position": 21.275,
              "duration": 0.15625
            },
            {
              "pitch": 76,
              "velocity": 107,
              "position": 21.275,
              "duration": 0.15625
            },
            {
              "pitch": 24,
              "velocity": 127,
              "position": 21.76875,
              "duration": 0.10416666666666667
            },
            {
              "pitch": 71,
              "velocity": 127,
              "position": 22.002083333333335,
              "duration": 0.7291666666666666
            },
            {
              "pitch": 67,
              "velocity": 127,
              "position": 22.00625,
              "duration": 0.7354166666666667
            },
            {
              "pitch": 76,
              "velocity": 127,
              "position": 22.008333333333333,
              "duration": 0.7375
            },
            {
              "pitch": 24,
              "velocity": 127,
              "position": 22.775,
              "duration": 0.10416666666666667
            },
            {
              "pitch": 71,
              "velocity": 127,
              "position": 22.995833333333334,
              "duration": 0.74375
            },
            {
              "pitch": 67,
              "velocity": 125,
              "position": 22.99375,
              "duration": 0.7479166666666667
            },
            {
              "pitch": 76,
              "velocity": 127,
              "position": 22.995833333333334,
              "duration": 0.7520833333333333
            },
            {
              "pitch": 24,
              "velocity": 127,
              "position": 23.764583333333334,
              "duration": 0.10416666666666667
            },
            {
              "pitch": 76,
              "velocity": 127,
              "position": 24.010416666666668,
              "duration": 0.4791666666666667
            },
            {
              "pitch": 67,
              "velocity": 123,
              "position": 24.010416666666668,
              "duration": 0.48333333333333334
            },
            {
              "pitch": 71,
              "velocity": 127,
              "position": 24.010416666666668,
              "duration": 0.49166666666666664
            },
            {
              "pitch": 24,
              "velocity": 127,
              "position": 24.50625,
              "duration": 0.10416666666666667
            },
            {
              "pitch": 71,
              "velocity": 98,
              "position": 24.7625,
              "duration": 0.15625
            },
            {
              "pitch": 67,
              "velocity": 98,
              "position": 24.76875,
              "duration": 0.15625
            },
            {
              "pitch": 76,
              "velocity": 100,
              "position": 24.772916666666667,
              "duration": 0.15625
            },
            {
              "pitch": 76,
              "velocity": 111,
              "position": 25.266666666666666,
              "duration": 0.15625
            },
            {
              "pitch": 71,
              "velocity": 106,
              "position": 25.270833333333332,
              "duration": 0.15625
            },
            {
              "pitch": 67,
              "velocity": 111,
              "position": 25.272916666666667,
              "duration": 0.15625
            },
            {
              "pitch": 24,
              "velocity": 127,
              "position": 25.772916666666667,
              "duration": 0.10416666666666667
            },
            {
              "pitch": 76,
              "velocity": 127,
              "position": 25.997916666666665,
              "duration": 0.4791666666666667
            },
            {
              "pitch": 67,
              "velocity": 123,
              "position": 26.002083333333335,
              "duration": 0.48333333333333334
            },
            {
              "pitch": 71,
              "velocity": 127,
              "position": 26.004166666666666,
              "duration": 0.49166666666666664
            },
            {
              "pitch": 24,
              "velocity": 127,
              "position": 26.504166666666666,
              "duration": 0.10416666666666667
            },
            {
              "pitch": 71,
              "velocity": 104,
              "position": 26.766666666666666,
              "duration": 0.15625
            },
            {
              "pitch": 76,
              "velocity": 100,
              "position": 26.772916666666667,
              "duration": 0.15625
            },
            {
              "pitch": 67,
              "velocity": 101,
              "position": 26.777083333333334,
              "duration": 0.15625
            },
            {
              "pitch": 67,
              "velocity": 107,
              "position": 27.2625,
              "duration": 0.15625
            },
            {
              "pitch": 76,
              "velocity": 110,
              "position": 27.264583333333334,
              "duration": 0.15625
            },
            {
              "pitch": 71,
              "velocity": 112,
              "position": 27.272916666666667,
              "duration": 0.15625
            },
            {
              "pitch": 24,
              "velocity": 127,
              "position": 27.7625,
              "duration": 0.10416666666666667
            },
            {
              "pitch": 76,
              "velocity": 127,
              "position": 28.010416666666668,
              "duration": 0.4791666666666667
            },
            {
              "pitch": 67,
              "velocity": 127,
              "position": 28.010416666666668,
              "duration": 0.48333333333333334
            },
            {
              "pitch": 71,
              "velocity": 123,
              "position": 28.010416666666668,
              "duration": 0.49166666666666664
            },
            {
              "pitch": 24,
              "velocity": 127,
              "position": 28.504166666666666,
              "duration": 0.10416666666666667
            },
            {
              "pitch": 67,
              "velocity": 96,
              "position": 28.766666666666666,
              "duration": 0.15625
            },
            {
              "pitch": 71,
              "velocity": 101,
              "position": 28.770833333333332,
              "duration": 0.15625
            },
            {
              "pitch": 76,
              "velocity": 99,
              "position": 28.770833333333332,
              "duration": 0.15625
            },
            {
              "pitch": 76,
              "velocity": 110,
              "position": 29.264583333333334,
              "duration": 0.15625
            },
            {
              "pitch": 67,
              "velocity": 110,
              "position": 29.270833333333332,
              "duration": 0.15625
            },
            {
              "pitch": 71,
              "velocity": 110,
              "position": 29.277083333333334,
              "duration": 0.15625
            },
            {
              "pitch": 24,
              "velocity": 127,
              "position": 29.770833333333332,
              "duration": 0.10416666666666667
            },
            {
              "pitch": 71,
              "velocity": 124,
              "position": 29.99375,
              "duration": 0.7291666666666666
            },
            {
              "pitch": 76,
              "velocity": 125,
              "position": 29.995833333333334,
              "duration": 0.7375
            },
            {
              "pitch": 67,
              "velocity": 127,
              "position": 30,
              "duration": 0.7354166666666667
            },
            {
              "pitch": 24,
              "velocity": 127,
              "position": 30.772916666666667,
              "duration": 0.10416666666666667
            },
            {
              "pitch": 71,
              "velocity": 125,
              "position": 31.002083333333335,
              "duration": 0.7458333333333333
            },
            {
              "pitch": 76,
              "velocity": 126,
              "position": 31,
              "duration": 0.75
            },
            {
              "pitch": 67,
              "velocity": 127,
              "position": 31.004166666666666,
              "duration": 0.7479166666666667
            },
            {
              "pitch": 24,
              "velocity": 127,
              "position": 31.779166666666665,
              "duration": 0.10416666666666667
            }
          ]
        }
      }
    },
    "Fill_In_BB": {
      "type": "Fill_In_BB",
      "sizeInBeats": 4,
      "channels": {
        "1": {
          "ctab": {
            "srcChannel": 1,
            "name": "Gt Maj",
            "accType": "CHORD1",
            "editable": false,
            "mutedNotes": [],
            "mutedChords": [
              "1+2+5",
              "sus4",
              "1+5",
              "1+8",
              "7aug",
              "Maj7aug",
              "7(#9)",
              "7(b13)",
              "7(b9)",
              "7(13)",
              "7#11",
              "7(9)",
              "7b5",
              "7sus4",
              "dim7",
              "dim",
              "minMaj7(9)",
              "minMaj7",
              "min7(11)",
              "min7(9)",
              "min(9)",
              "m7b5",
              "min7",
              "min6",
              "min",
              "aug",
              "Maj6(9)",
              "Maj7(9)",
              "Maj(9)",
              "Maj7#11",
              "Maj7",
              "Maj6"
            ],
            "autoStart": false,
            "sourceChordNote": 0,
            "sourceChordType": "7th",
            "ctb2Low": null,
            "ctb2Main": {
              "ntr": "ROOT_TRANSPOSITION",
              "ntt": "MELODIC_MINOR_5",
              "bassOn": false,
              "chordRootUpperLimit": 7,
              "noteLowLimit": 55,
              "noteHighLimit": 77,
              "rtr": "PITCH_SHIFT"
            },
            "ctb2High": null
          },
          "notes": [
            {
              "pitch": 108,
              "velocity": 42,
              "position": 0.010416666666666666,
              "duration": 0.24166666666666667
            },
            {
              "pitch": 107,
              "velocity": 42,
              "position": 0.25,
              "duration": 0.22083333333333333
            },
            {
              "pitch": 106,
              "velocity": 42,
              "position": 0.5,
              "duration": 0.24166666666666667
            },
            {
              "pitch": 105,
              "velocity": 60,
              "position": 0.75,
              "duration": 0.22083333333333333
            },
            {
              "pitch": 108,
              "velocity": 42,
              "position": 1,
              "duration": 0.24166666666666667
            },
            {
              "pitch": 107,
              "velocity": 42,
              "position": 1.25,
              "duration": 0.22083333333333333
            },
            {
              "pitch": 106,
              "velocity": 60,
              "position": 1.5,
              "duration": 0.24166666666666667
            },
            {
              "pitch": 105,
              "velocity": 42,
              "position": 1.75,
              "duration": 0.22083333333333333
            },
            {
              "pitch": 108,
              "velocity": 60,
              "position": 2,
              "duration": 0.24166666666666667
            },
            {
              "pitch": 82,
              "velocity": 26,
              "position": 2.0208333333333335,
              "duration": 0.24166666666666667
            },
            {
              "pitch": 79,
              "velocity": 26,
              "position": 2,
              "duration": 0.2833333333333333
            },
            {
              "pitch": 107,
              "velocity": 42,
              "position": 2.25,
              "duration": 0.22083333333333333
            },
            {
              "pitch": 79,
              "velocity": 34,
              "position": 2.2916666666666665,
              "duration": 0.2
            },
            {
              "pitch": 82,
              "velocity": 34,
              "position": 2.2708333333333335,
              "duration": 0.24166666666666667
            },
            {
              "pitch": 88,
              "velocity": 26,
              "position": 2.0416666666666665,
              "duration": 0.49166666666666664
            },
            {
              "pitch": 79,
              "velocity": 34,
              "position": 2.5,
              "duration": 0.20416666666666666
            },
            {
              "pitch": 82,
              "velocity": 34,
              "position": 2.5208333333333335,
              "duration": 0.20416666666666666
            },
            {
              "pitch": 106,
              "velocity": 42,
              "position": 2.5,
              "duration": 0.24166666666666667
            },
            {
              "pitch": 88,
              "velocity": 34,
              "position": 2.5416666666666665,
              "duration": 0.20416666666666666
            },
            {
              "pitch": 105,
              "velocity": 42,
              "position": 2.75,
              "duration": 0.22083333333333333
            },
            {
              "pitch": 108,
              "velocity": 60,
              "position": 3,
              "duration": 0.24166666666666667
            },
            {
              "pitch": 79,
              "velocity": 42,
              "position": 3,
              "duration": 0.28541666666666665
            },
            {
              "pitch": 82,
              "velocity": 42,
              "position": 3.0208333333333335,
              "duration": 0.28541666666666665
            },
            {
              "pitch": 88,
              "velocity": 42,
              "position": 3.0416666666666665,
              "duration": 0.28541666666666665
            },
            {
              "pitch": 107,
              "velocity": 42,
              "position": 3.25,
              "duration": 0.22083333333333333
            },
            {
              "pitch": 106,
              "velocity": 42,
              "position": 3.5,
              "duration": 0.24166666666666667
            },
            {
              "pitch": 105,
              "velocity": 42,
              "position": 3.75,
              "duration": 0.22083333333333333
            }
          ]
        },
        "2": {
          "ctab": {
            "srcChannel": 2,
            "name": "Gt Min",
            "accType": "CHORD1",
            "editable": false,
            "mutedNotes": [],
            "mutedChords": [
              "1+2+5",
              "sus4",
              "1+5",
              "1+8",
              "7aug",
              "Maj7aug",
              "7(#9)",
              "7(b13)",
              "7(b9)",
              "7(13)",
              "7#11",
              "7(9)",
              "7b5",
              "7sus4",
              "7th",
              "dim7",
              "dim",
              "minMaj7(9)",
              "minMaj7",
              "min7(11)",
              "min7(9)",
              "min(9)",
              "m7b5",
              "min7",
              "min6",
              "aug",
              "Maj6(9)",
              "Maj7(9)",
              "Maj(9)",
              "Maj7#11",
              "Maj7",
              "Maj6",
              "Maj"
            ],
            "autoStart": false,
            "sourceChordNote": 0,
            "sourceChordType": "min7",
            "ctb2Low": null,
            "ctb2Main": {
              "ntr": "ROOT_TRANSPOSITION",
              "ntt": "MELODIC_MINOR_5",
              "bassOn": false,
              "chordRootUpperLimit": 7,
              "noteLowLimit": 55,
              "noteHighLimit": 77,
              "rtr": "PITCH_SHIFT"
            },
            "ctb2High": null
          },
          "notes": [
            {
              "pitch": 108,
              "velocity": 42,
              "position": 0.010416666666666666,
              "duration": 0.24166666666666667
            },
            {
              "pitch": 107,
              "velocity": 42,
              "position": 0.25,
              "duration": 0.22083333333333333
            },
            {
              "pitch": 106,
              "velocity": 42,
              "position": 0.5,
              "duration": 0.24166666666666667
            },
            {
              "pitch": 105,
              "velocity": 60,
              "position": 0.75,
              "duration": 0.22083333333333333
            },
            {
              "pitch": 108,
              "velocity": 42,
              "position": 1,
              "duration": 0.24166666666666667
            },
            {
              "pitch": 107,
              "velocity": 42,
              "position": 1.25,
              "duration": 0.22083333333333333
            },
            {
              "pitch": 106,
              "velocity": 60,
              "position": 1.5,
              "duration": 0.24166666666666667
            },
            {
              "pitch": 105,
              "velocity": 42,
              "position": 1.75,
              "duration": 0.22083333333333333
            },
            {
              "pitch": 108,
              "velocity": 60,
              "position": 2,
              "duration": 0.24166666666666667
            },
            {
              "pitch": 82,
              "velocity": 26,
              "position": 2.0208333333333335,
              "duration": 0.24166666666666667
            },
            {
              "pitch": 79,
              "velocity": 26,
              "position": 2,
              "duration": 0.2833333333333333
            },
            {
              "pitch": 107,
              "velocity": 42,
              "position": 2.25,
              "duration": 0.22083333333333333
            },
            {
              "pitch": 79,
              "velocity": 34,
              "position": 2.2916666666666665,
              "duration": 0.2
            },
            {
              "pitch": 82,
              "velocity": 34,
              "position": 2.2708333333333335,
              "duration": 0.24166666666666667
            },
            {
              "pitch": 87,
              "velocity": 26,
              "position": 2.0416666666666665,
              "duration": 0.49166666666666664
            },
            {
              "pitch": 79,
              "velocity": 34,
              "position": 2.5,
              "duration": 0.20416666666666666
            },
            {
              "pitch": 82,
              "velocity": 34,
              "position": 2.5208333333333335,
              "duration": 0.20416666666666666
            },
            {
              "pitch": 106,
              "velocity": 42,
              "position": 2.5,
              "duration": 0.24166666666666667
            },
            {
              "pitch": 87,
              "velocity": 34,
              "position": 2.5416666666666665,
              "duration": 0.20416666666666666
            },
            {
              "pitch": 105,
              "velocity": 42,
              "position": 2.75,
              "duration": 0.22083333333333333
            },
            {
              "pitch": 108,
              "velocity": 60,
              "position": 3,
              "duration": 0.24166666666666667
            },
            {
              "pitch": 79,
              "velocity": 42,
              "position": 3,
              "duration": 0.28541666666666665
            },
            {
              "pitch": 82,
              "velocity": 42,
              "position": 3.0208333333333335,
              "duration": 0.28541666666666665
            },
            {
              "pitch": 87,
              "velocity": 42,
              "position": 3.0416666666666665,
              "duration": 0.28541666666666665
            },
            {
              "pitch": 107,
              "velocity": 42,
              "position": 3.25,
              "duration": 0.22083333333333333
            },
            {
              "pitch": 106,
              "velocity": 42,
              "position": 3.5,
              "duration": 0.24166666666666667
            },
            {
              "pitch": 105,
              "velocity": 42,
              "position": 3.75,
              "duration": 0.22083333333333333
            }
          ]
        },
        "3": {
          "ctab": {
            "srcChannel": 3,
            "name": "Gt",
            "accType": "CHORD1",
            "editable": false,
            "mutedNotes": [],
            "mutedChords": [
              "7th",
              "min",
              "Maj"
            ],
            "autoStart": false,
            "sourceChordNote": 0,
            "sourceChordType": "Maj7",
            "ctb2Low": null,
            "ctb2Main": {
              "ntr": "ROOT_FIXED",
              "ntt": "CHORD",
              "bassOn": false,
              "chordRootUpperLimit": 7,
              "noteLowLimit": 55,
              "noteHighLimit": 77,
              "rtr": "PITCH_SHIFT"
            },
            "ctb2High": null
          },
          "notes": [
            {
              "pitch": 108,
              "velocity": 42,
              "position": 0.010416666666666666,
              "duration": 0.24166666666666667
            },
            {
              "pitch": 107,
              "velocity": 42,
              "position": 0.25,
              "duration": 0.22083333333333333
            },
            {
              "pitch": 106,
              "velocity": 42,
              "position": 0.5,
              "duration": 0.24166666666666667
            },
            {
              "pitch": 105,
              "velocity": 60,
              "position": 0.75,
              "duration": 0.22083333333333333
            },
            {
              "pitch": 108,
              "velocity": 42,
              "position": 1,
              "duration": 0.24166666666666667
            },
            {
              "pitch": 107,
              "velocity": 42,
              "position": 1.25,
              "duration": 0.22083333333333333
            },
            {
              "pitch": 106,
              "velocity": 60,
              "position": 1.5,
              "duration": 0.24166666666666667
            },
            {
              "pitch": 105,
              "velocity": 42,
              "position": 1.75,
              "duration": 0.22083333333333333
            },
            {
              "pitch": 108,
              "velocity": 60,
              "position": 2,
              "duration": 0.24166666666666667
            },
            {
              "pitch": 83,
              "velocity": 26,
              "position": 2.0208333333333335,
              "duration": 0.24166666666666667
            },
            {
              "pitch": 79,
              "velocity": 26,
              "position": 2,
              "duration": 0.2833333333333333
            },
            {
              "pitch": 107,
              "velocity": 42,
              "position": 2.25,
              "duration": 0.22083333333333333
            },
            {
              "pitch": 79,
              "velocity": 34,
              "position": 2.2916666666666665,
              "duration": 0.2
            },
            {
              "pitch": 83,
              "velocity": 34,
              "position": 2.2708333333333335,
              "duration": 0.24166666666666667
            },
            {
              "pitch": 88,
              "velocity": 26,
              "position": 2.0416666666666665,
              "duration": 0.49166666666666664
            },
            {
              "pitch": 79,
              "velocity": 34,
              "position": 2.5,
              "duration": 0.20416666666666666
            },
            {
              "pitch": 83,
              "velocity": 34,
              "position": 2.5208333333333335,
              "duration": 0.20416666666666666
            },
            {
              "pitch": 106,
              "velocity": 42,
              "position": 2.5,
              "duration": 0.24166666666666667
            },
            {
              "pitch": 88,
              "velocity": 34,
              "position": 2.5416666666666665,
              "duration": 0.20416666666666666
            },
            {
              "pitch": 105,
              "velocity": 42,
              "position": 2.75,
              "duration": 0.22083333333333333
            },
            {
              "pitch": 108,
              "velocity": 60,
              "position": 3,
              "duration": 0.24166666666666667
            },
            {
              "pitch": 79,
              "velocity": 42,
              "position": 3,
              "duration": 0.28541666666666665
            },
            {
              "pitch": 83,
              "velocity": 42,
              "position": 3.0208333333333335,
              "duration": 0.28541666666666665
            },
            {
              "pitch": 88,
              "velocity": 42,
              "position": 3.0416666666666665,
              "duration": 0.28541666666666665
            },
            {
              "pitch": 107,
              "velocity": 42,
              "position": 3.25,
              "duration": 0.22083333333333333
            },
            {
              "pitch": 106,
              "velocity": 42,
              "position": 3.5,
              "duration": 0.24166666666666667
            },
            {
              "pitch": 105,
              "velocity": 42,
              "position": 3.75,
              "duration": 0.22083333333333333
            }
          ]
        },
        "4": {
          "ctab": {
            "srcChannel": 4,
            "name": "Brs a",
            "accType": "PHRASE1",
            "editable": false,
            "mutedNotes": [],
            "mutedChords": [
              "dim7",
              "minMaj7(9)",
              "minMaj7",
              "min6",
              "Maj6(9)",
              "Maj7(9)",
              "Maj(9)",
              "Maj7#11",
              "Maj7",
              "Maj6"
            ],
            "autoStart": false,
            "sourceChordNote": 0,
            "sourceChordType": "7th",
            "ctb2Low": null,
            "ctb2Main": {
              "ntr": "ROOT_TRANSPOSITION",
              "ntt": "MELODIC_MINOR_5",
              "bassOn": false,
              "chordRootUpperLimit": 5,
              "noteLowLimit": 34,
              "noteHighLimit": 127,
              "rtr": "PITCH_SHIFT"
            },
            "ctb2High": null
          },
          "notes": [
            {
              "pitch": 72,
              "velocity": 87,
              "position": 2.4895833333333335,
              "duration": 0.22291666666666668
            },
            {
              "pitch": 84,
              "velocity": 87,
              "position": 2.5104166666666665,
              "duration": 0.22916666666666666
            },
            {
              "pitch": 60,
              "velocity": 87,
              "position": 2.5083333333333333,
              "duration": 0.24166666666666667
            },
            {
              "pitch": 72,
              "velocity": 87,
              "position": 2.98125,
              "duration": 0.9916666666666667
            },
            {
              "pitch": 60,
              "velocity": 87,
              "position": 3.0145833333333334,
              "duration": 0.9770833333333333
            },
            {
              "pitch": 48,
              "velocity": 87,
              "position": 3.002083333333333,
              "duration": 0.9916666666666667
            }
          ]
        },
        "5": {
          "ctab": {
            "srcChannel": 5,
            "name": "Brs b",
            "accType": "PHRASE1",
            "editable": false,
            "mutedNotes": [],
            "mutedChords": [
              "1+2+5",
              "sus4",
              "1+5",
              "1+8",
              "7aug",
              "Maj7aug",
              "7(#9)",
              "7(b13)",
              "7(b9)",
              "7(13)",
              "7#11",
              "7(9)",
              "7b5",
              "7sus4",
              "7th",
              "dim",
              "min7(11)",
              "min7(9)",
              "min(9)",
              "m7b5",
              "min7",
              "min",
              "aug",
              "Maj"
            ],
            "autoStart": false,
            "sourceChordNote": 0,
            "sourceChordType": "Maj7",
            "ctb2Low": null,
            "ctb2Main": {
              "ntr": "ROOT_TRANSPOSITION",
              "ntt": "MELODIC_MINOR_5",
              "bassOn": false,
              "chordRootUpperLimit": 5,
              "noteLowLimit": 34,
              "noteHighLimit": 127,
              "rtr": "PITCH_SHIFT"
            },
            "ctb2High": null
          },
          "notes": [
            {
              "pitch": 72,
              "velocity": 82,
              "position": 2.4895833333333335,
              "duration": 0.22291666666666668
            },
            {
              "pitch": 84,
              "velocity": 82,
              "position": 2.5104166666666665,
              "duration": 0.22916666666666666
            },
            {
              "pitch": 60,
              "velocity": 82,
              "position": 2.5083333333333333,
              "duration": 0.24166666666666667
            },
            {
              "pitch": 72,
              "velocity": 87,
              "position": 2.98125,
              "duration": 0.9916666666666667
            },
            {
              "pitch": 60,
              "velocity": 85,
              "position": 3.0145833333333334,
              "duration": 0.975
            },
            {
              "pitch": 48,
              "velocity": 85,
              "position": 3.002083333333333,
              "duration": 0.9916666666666667
            }
          ]
        },
        "6": {
          "ctab": {
            "srcChannel": 6,
            "name": "Hns a",
            "accType": "PHRASE2",
            "editable": false,
            "mutedNotes": [],
            "mutedChords": [
              "dim7",
              "minMaj7(9)",
              "minMaj7",
              "min6",
              "Maj6(9)",
              "Maj7(9)",
              "Maj(9)",
              "Maj7#11",
              "Maj7",
              "Maj6"
            ],
            "autoStart": false,
            "sourceChordNote": 0,
            "sourceChordType": "7th",
            "ctb2Low": null,
            "ctb2Main": {
              "ntr": "ROOT_TRANSPOSITION",
              "ntt": "MELODIC_MINOR_5",
              "bassOn": false,
              "chordRootUpperLimit": 0,
              "noteLowLimit": 34,
              "noteHighLimit": 127,
              "rtr": "PITCH_SHIFT"
            },
            "ctb2High": null
          },
          "notes": [
            {
              "pitch": 72,
              "velocity": 124,
              "position": 2.4895833333333335,
              "duration": 0.22291666666666668
            },
            {
              "pitch": 84,
              "velocity": 127,
              "position": 2.5104166666666665,
              "duration": 0.22916666666666666
            },
            {
              "pitch": 60,
              "velocity": 124,
              "position": 2.5083333333333333,
              "duration": 0.24166666666666667
            },
            {
              "pitch": 48,
              "velocity": 125,
              "position": 3.002083333333333,
              "duration": 0.35208333333333336
            },
            {
              "pitch": 46,
              "velocity": 56,
              "position": 3.3333333333333335,
              "duration": 0.10833333333333334
            },
            {
              "pitch": 72,
              "velocity": 125,
              "position": 2.98125,
              "duration": 0.4625
            },
            {
              "pitch": 45,
              "velocity": 51,
              "position": 3.4166666666666665,
              "duration": 0.10833333333333334
            },
            {
              "pitch": 70,
              "velocity": 56,
              "position": 3.4375,
              "duration": 0.08958333333333333
            },
            {
              "pitch": 60,
              "velocity": 123,
              "position": 3.0145833333333334,
              "duration": 0.5541666666666667
            },
            {
              "pitch": 69,
              "velocity": 51,
              "position": 3.5,
              "duration": 0.08958333333333333
            },
            {
              "pitch": 58,
              "velocity": 56,
              "position": 3.5416666666666665,
              "duration": 0.058333333333333334
            },
            {
              "pitch": 43,
              "velocity": 45,
              "position": 3.5,
              "duration": 0.10833333333333334
            },
            {
              "pitch": 57,
              "velocity": 51,
              "position": 3.5833333333333335,
              "duration": 0.058333333333333334
            },
            {
              "pitch": 67,
              "velocity": 45,
              "position": 3.5625,
              "duration": 0.08958333333333333
            },
            {
              "pitch": 55,
              "velocity": 45,
              "position": 3.625,
              "duration": 0.058333333333333334
            },
            {
              "pitch": 41,
              "velocity": 40,
              "position": 3.5833333333333335,
              "duration": 0.10833333333333334
            },
            {
              "pitch": 65,
              "velocity": 40,
              "position": 3.625,
              "duration": 0.08958333333333333
            },
            {
              "pitch": 53,
              "velocity": 40,
              "position": 3.6666666666666665,
              "duration": 0.058333333333333334
            },
            {
              "pitch": 52,
              "velocity": 35,
              "position": 3.7083333333333335,
              "duration": 0.058333333333333334
            },
            {
              "pitch": 40,
              "velocity": 35,
              "position": 3.6666666666666665,
              "duration": 0.10833333333333334
            },
            {
              "pitch": 64,
              "velocity": 35,
              "position": 3.6875,
              "duration": 0.08958333333333333
            },
            {
              "pitch": 50,
              "velocity": 30,
              "position": 3.75,
              "duration": 0.058333333333333334
            },
            {
              "pitch": 62,
              "velocity": 30,
              "position": 3.75,
              "duration": 0.08958333333333333
            },
            {
              "pitch": 38,
              "velocity": 30,
              "position": 3.75,
              "duration": 0.10833333333333334
            }
          ]
        },
        "7": {
          "ctab": {
            "srcChannel": 7,
            "name": "Hns b",
            "accType": "PHRASE2",
            "editable": false,
            "mutedNotes": [],
            "mutedChords": [
              "1+2+5",
              "sus4",
              "1+5",
              "1+8",
              "7aug",
              "Maj7aug",
              "7(#9)",
              "7(b13)",
              "7(b9)",
              "7(13)",
              "7#11",
              "7(9)",
              "7b5",
              "7sus4",
              "7th",
              "dim",
              "min7(11)",
              "min7(9)",
              "min(9)",
              "m7b5",
              "min7",
              "min",
              "aug",
              "Maj"
            ],
            "autoStart": false,
            "sourceChordNote": 0,
            "sourceChordType": "Maj7",
            "ctb2Low": null,
            "ctb2Main": {
              "ntr": "ROOT_TRANSPOSITION",
              "ntt": "MELODIC_MINOR_5",
              "bassOn": false,
              "chordRootUpperLimit": 0,
              "noteLowLimit": 34,
              "noteHighLimit": 127,
              "rtr": "PITCH_SHIFT"
            },
            "ctb2High": null
          },
          "notes": [
            {
              "pitch": 72,
              "velocity": 124,
              "position": 2.4895833333333335,
              "duration": 0.22291666666666668
            },
            {
              "pitch": 84,
              "velocity": 127,
              "position": 2.5104166666666665,
              "duration": 0.22916666666666666
            },
            {
              "pitch": 60,
              "velocity": 124,
              "position": 2.5083333333333333,
              "duration": 0.24166666666666667
            },
            {
              "pitch": 48,
              "velocity": 125,
              "position": 3.002083333333333,
              "duration": 0.35208333333333336
            },
            {
              "pitch": 47,
              "velocity": 56,
              "position": 3.3333333333333335,
              "duration": 0.10833333333333334
            },
            {
              "pitch": 72,
              "velocity": 125,
              "position": 2.98125,
              "duration": 0.4625
            },
            {
              "pitch": 45,
              "velocity": 51,
              "position": 3.4166666666666665,
              "duration": 0.10833333333333334
            },
            {
              "pitch": 71,
              "velocity": 56,
              "position": 3.4375,
              "duration": 0.08958333333333333
            },
            {
              "pitch": 60,
              "velocity": 123,
              "position": 3.0145833333333334,
              "duration": 0.5541666666666667
            },
            {
              "pitch": 69,
              "velocity": 51,
              "position": 3.5,
              "duration": 0.08958333333333333
            },
            {
              "pitch": 59,
              "velocity": 56,
              "position": 3.5416666666666665,
              "duration": 0.058333333333333334
            },
            {
              "pitch": 43,
              "velocity": 45,
              "position": 3.5,
              "duration": 0.10833333333333334
            },
            {
              "pitch": 57,
              "velocity": 51,
              "position": 3.5833333333333335,
              "duration": 0.058333333333333334
            },
            {
              "pitch": 67,
              "velocity": 45,
              "position": 3.5625,
              "duration": 0.08958333333333333
            },
            {
              "pitch": 55,
              "velocity": 45,
              "position": 3.625,
              "duration": 0.058333333333333334
            },
            {
              "pitch": 41,
              "velocity": 40,
              "position": 3.5833333333333335,
              "duration": 0.10833333333333334
            },
            {
              "pitch": 65,
              "velocity": 40,
              "position": 3.625,
              "duration": 0.08958333333333333
            },
            {
              "pitch": 53,
              "velocity": 40,
              "position": 3.6666666666666665,
              "duration": 0.058333333333333334
            },
            {
              "pitch": 52,
              "velocity": 35,
              "position": 3.7083333333333335,
              "duration": 0.058333333333333334
            },
            {
              "pitch": 40,
              "velocity": 35,
              "position": 3.6666666666666665,
              "duration": 0.10833333333333334
            },
            {
              "pitch": 64,
              "velocity": 35,
              "position": 3.6875,
              "duration": 0.08958333333333333
            },
            {
              "pitch": 50,
              "velocity": 30,
              "position": 3.75,
              "duration": 0.058333333333333334
            },
            {
              "pitch": 62,
              "velocity": 30,
              "position": 3.75,
              "duration": 0.08958333333333333
            },
            {
              "pitch": 38,
              "velocity": 30,
              "position": 3.75,
              "duration": 0.10833333333333334
            }
          ]
        },
        "8": {
          "ctab": {
            "srcChannel": 8,
            "name": "Perc.",
            "accType": "SUBRHYTHM",
            "editable": false,
            "mutedNotes": [],
            "mutedChords": [],
            "autoStart": true,
            "sourceChordNote": 0,
            "sourceChordType": "Maj7",
            "ctb2Low": null,
            "ctb2Main": {
              "ntr": "ROOT_FIXED",
              "ntt": "BYPASS",
              "bassOn": false,
              "chordRootUpperLimit": 6,
              "noteLowLimit": 0,
              "noteHighLimit": 127,
              "rtr": "PITCH_SHIFT"
            },
            "ctb2High": null
          },
          "notes": [
            {
              "pitch": 60,
              "velocity": 80,
              "position": 0,
              "duration": 0.010416666666666666
            },
            {
              "pitch": 23,
              "velocity": 98,
              "position": 0.010416666666666666,
              "duration": 0.010416666666666666
            },
            {
              "pitch": 68,
              "velocity": 77,
              "position": 0.010416666666666666,
              "duration": 0.010416666666666666
            },
            {
              "pitch": 73,
              "velocity": 80,
              "position": 0.010416666666666666,
              "duration": 0.010416666666666666
            },
            {
              "pitch": 68,
              "velocity": 40,
              "position": 0.25,
              "duration": 0.010416666666666666
            },
            {
              "pitch": 22,
              "velocity": 50,
              "position": 0.26666666666666666,
              "duration": 0.010416666666666666
            },
            {
              "pitch": 68,
              "velocity": 60,
              "position": 0.4895833333333333,
              "duration": 0.010416666666666666
            },
            {
              "pitch": 73,
              "velocity": 70,
              "position": 0.4895833333333333,
              "duration": 0.010416666666666666
            },
            {
              "pitch": 28,
              "velocity": 93,
              "position": 0.49375,
              "duration": 0.010416666666666666
            },
            {
              "pitch": 68,
              "velocity": 36,
              "position": 0.7520833333333333,
              "duration": 0.010416666666666666
            },
            {
              "pitch": 22,
              "velocity": 50,
              "position": 0.76875,
              "duration": 0.010416666666666666
            },
            {
              "pitch": 23,
              "velocity": 100,
              "position": 1,
              "duration": 0.010416666666666666
            },
            {
              "pitch": 60,
              "velocity": 80,
              "position": 1,
              "duration": 0.010416666666666666
            },
            {
              "pitch": 68,
              "velocity": 82,
              "position": 1.0041666666666667,
              "duration": 0.010416666666666666
            },
            {
              "pitch": 73,
              "velocity": 82,
              "position": 1.0083333333333333,
              "duration": 0.010416666666666666
            },
            {
              "pitch": 18,
              "velocity": 84,
              "position": 1.0166666666666666,
              "duration": 0.010416666666666666
            },
            {
              "pitch": 68,
              "velocity": 39,
              "position": 1.2354166666666666,
              "duration": 0.010416666666666666
            },
            {
              "pitch": 22,
              "velocity": 50,
              "position": 1.2729166666666667,
              "duration": 0.010416666666666666
            },
            {
              "pitch": 24,
              "velocity": 99,
              "position": 1.4916666666666667,
              "duration": 0.010416666666666666
            },
            {
              "pitch": 68,
              "velocity": 62,
              "position": 1.5,
              "duration": 0.010416666666666666
            },
            {
              "pitch": 73,
              "velocity": 70,
              "position": 1.5020833333333334,
              "duration": 0.010416666666666666
            },
            {
              "pitch": 68,
              "velocity": 40,
              "position": 1.7479166666666666,
              "duration": 0.010416666666666666
            },
            {
              "pitch": 25,
              "velocity": 98,
              "position": 1.7625,
              "duration": 0.010416666666666666
            },
            {
              "pitch": 60,
              "velocity": 80,
              "position": 2,
              "duration": 0.010416666666666666
            },
            {
              "pitch": 68,
              "velocity": 80,
              "position": 2.002083333333333,
              "duration": 0.010416666666666666
            },
            {
              "pitch": 23,
              "velocity": 101,
              "position": 2.00625,
              "duration": 0.010416666666666666
            },
            {
              "pitch": 73,
              "velocity": 82,
              "position": 2.00625,
              "duration": 0.010416666666666666
            },
            {
              "pitch": 68,
              "velocity": 40,
              "position": 2.2375,
              "duration": 0.010416666666666666
            },
            {
              "pitch": 22,
              "velocity": 50,
              "position": 2.275,
              "duration": 0.010416666666666666
            },
            {
              "pitch": 28,
              "velocity": 99,
              "position": 2.504166666666667,
              "duration": 0.010416666666666666
            },
            {
              "pitch": 68,
              "velocity": 58,
              "position": 2.504166666666667,
              "duration": 0.010416666666666666
            },
            {
              "pitch": 73,
              "velocity": 71,
              "position": 2.5083333333333333,
              "duration": 0.010416666666666666
            },
            {
              "pitch": 18,
              "velocity": 84,
              "position": 2.5208333333333335,
              "duration": 0.010416666666666666
            },
            {
              "pitch": 68,
              "velocity": 39,
              "position": 2.75625,
              "duration": 0.010416666666666666
            },
            {
              "pitch": 22,
              "velocity": 50,
              "position": 2.7708333333333335,
              "duration": 0.010416666666666666
            },
            {
              "pitch": 18,
              "velocity": 84,
              "position": 2.99375,
              "duration": 0.010416666666666666
            },
            {
              "pitch": 73,
              "velocity": 81,
              "position": 2.995833333333333,
              "duration": 0.010416666666666666
            },
            {
              "pitch": 60,
              "velocity": 80,
              "position": 3,
              "duration": 0.010416666666666666
            },
            {
              "pitch": 23,
              "velocity": 100,
              "position": 3.00625,
              "duration": 0.010416666666666666
            },
            {
              "pitch": 68,
              "velocity": 81,
              "position": 3.0125,
              "duration": 0.010416666666666666
            },
            {
              "pitch": 68,
              "velocity": 44,
              "position": 3.2333333333333334,
              "duration": 0.010416666666666666
            },
            {
              "pitch": 22,
              "velocity": 50,
              "position": 3.2708333333333335,
              "duration": 0.010416666666666666
            },
            {
              "pitch": 31,
              "velocity": 93,
              "position": 3.49375,
              "duration": 0.010416666666666666
            },
            {
              "pitch": 68,
              "velocity": 64,
              "position": 3.504166666666667,
              "duration": 0.010416666666666666
            },
            {
              "pitch": 73,
              "velocity": 70,
              "position": 3.5104166666666665,
              "duration": 0.010416666666666666
            },
            {
              "pitch": 68,
              "velocity": 39,
              "position": 3.7395833333333335,
              "duration": 0.010416666666666666
            },
            {
              "pitch": 31,
              "velocity": 64,
              "position": 3.775,
              "duration": 0.010416666666666666
            }
          ]
        },
        "9": {
          "ctab": {
            "srcChannel": 9,
            "name": "Drums",
            "accType": "RHYTHM",
            "editable": false,
            "mutedNotes": [],
            "mutedChords": [],
            "autoStart": true,
            "sourceChordNote": 0,
            "sourceChordType": "Maj7",
            "ctb2Low": null,
            "ctb2Main": {
              "ntr": "ROOT_FIXED",
              "ntt": "BYPASS",
              "bassOn": false,
              "chordRootUpperLimit": 6,
              "noteLowLimit": 0,
              "noteHighLimit": 127,
              "rtr": "PITCH_SHIFT"
            },
            "ctb2High": null
          },
          "notes": [
            {
              "pitch": 35,
              "velocity": 100,
              "position": 0,
              "duration": 0.010416666666666666
            },
            {
              "pitch": 42,
              "velocity": 80,
              "position": 0,
              "duration": 0.010416666666666666
            },
            {
              "pitch": 42,
              "velocity": 52,
              "position": 0.5,
              "duration": 0.010416666666666666
            },
            {
              "pitch": 35,
              "velocity": 64,
              "position": 0.75,
              "duration": 0.010416666666666666
            },
            {
              "pitch": 46,
              "velocity": 45,
              "position": 0.7708333333333334,
              "duration": 0.010416666666666666
            },
            {
              "pitch": 42,
              "velocity": 80,
              "position": 1,
              "duration": 0.010416666666666666
            },
            {
              "pitch": 35,
              "velocity": 100,
              "position": 1.25,
              "duration": 0.010416666666666666
            },
            {
              "pitch": 46,
              "velocity": 71,
              "position": 1.2708333333333333,
              "duration": 0.010416666666666666
            },
            {
              "pitch": 38,
              "velocity": 35,
              "position": 1.5,
              "duration": 0.010416666666666666
            },
            {
              "pitch": 42,
              "velocity": 52,
              "position": 1.5,
              "duration": 0.010416666666666666
            },
            {
              "pitch": 38,
              "velocity": 65,
              "position": 1.75,
              "duration": 0.010416666666666666
            },
            {
              "pitch": 35,
              "velocity": 100,
              "position": 2,
              "duration": 0.010416666666666666
            },
            {
              "pitch": 38,
              "velocity": 121,
              "position": 2,
              "duration": 0.010416666666666666
            },
            {
              "pitch": 42,
              "velocity": 80,
              "position": 2,
              "duration": 0.010416666666666666
            },
            {
              "pitch": 38,
              "velocity": 35,
              "position": 2.25,
              "duration": 0.010416666666666666
            },
            {
              "pitch": 35,
              "velocity": 86,
              "position": 2.5,
              "duration": 0.010416666666666666
            },
            {
              "pitch": 38,
              "velocity": 105,
              "position": 2.5,
              "duration": 0.010416666666666666
            },
            {
              "pitch": 42,
              "velocity": 52,
              "position": 2.5,
              "duration": 0.010416666666666666
            },
            {
              "pitch": 38,
              "velocity": 35,
              "position": 2.75,
              "duration": 0.010416666666666666
            },
            {
              "pitch": 35,
              "velocity": 100,
              "position": 3,
              "duration": 0.010416666666666666
            },
            {
              "pitch": 38,
              "velocity": 121,
              "position": 3,
              "duration": 0.010416666666666666
            },
            {
              "pitch": 42,
              "velocity": 80,
              "position": 3,
              "duration": 0.010416666666666666
            },
            {
              "pitch": 38,
              "velocity": 65,
              "position": 3.25,
              "duration": 0.010416666666666666
            },
            {
              "pitch": 35,
              "velocity": 86,
              "position": 3.5,
              "duration": 0.010416666666666666
            },
            {
              "pitch": 46,
              "velocity": 65,
              "position": 3.5,
              "duration": 0.010416666666666666
            },
            {
              "pitch": 38,
              "velocity": 35,
              "position": 3.75,
              "duration": 0.010416666666666666
            },
            {
              "pitch": 49,
              "velocity": 71,
              "position": 3.9895833333333335,
              "duration": 0.010416666666666666
            }
          ]
        },
        "10": {
          "ctab": {
            "srcChannel": 10,
            "name": "Bass FX",
            "accType": "BASS",
            "editable": false,
            "mutedNotes": [],
            "mutedChords": [],
            "autoStart": false,
            "sourceChordNote": 0,
            "sourceChordType": "7th",
            "ctb2Low": null,
            "ctb2Main": {
              "ntr": "ROOT_FIXED",
              "ntt": "BYPASS",
              "bassOn": false,
              "chordRootUpperLimit": 7,
              "noteLowLimit": 0,
              "noteHighLimit": 127,
              "rtr": "PITCH_SHIFT"
            },
            "ctb2High": null
          },
          "notes": [
            {
              "pitch": 96,
              "velocity": 100,
              "position": 3,
              "duration": 0.9895833333333334
            }
          ]
        },
        "11": {
          "ctab": {
            "srcChannel": 11,
            "name": "Bass a",
            "accType": "BASS",
            "editable": false,
            "mutedNotes": [],
            "mutedChords": [
              "1+2+5",
              "sus4",
              "1+5",
              "1+8",
              "7aug",
              "Maj7aug",
              "7(#9)",
              "7(b13)",
              "7(b9)",
              "7(13)",
              "7#11",
              "7(9)",
              "7b5",
              "7sus4",
              "dim7",
              "dim",
              "minMaj7(9)",
              "minMaj7",
              "min7(11)",
              "min7(9)",
              "min(9)",
              "m7b5",
              "min7",
              "min6",
              "aug",
              "Maj6(9)",
              "Maj7(9)",
              "Maj(9)",
              "Maj7#11",
              "Maj7",
              "Maj6"
            ],
            "autoStart": false,
            "sourceChordNote": 0,
            "sourceChordType": "7th",
            "ctb2Low": null,
            "ctb2Main": {
              "ntr": "ROOT_TRANSPOSITION",
              "ntt": "MELODIC_MINOR_5",
              "bassOn": true,
              "chordRootUpperLimit": 8,
              "noteLowLimit": 28,
              "noteHighLimit": 127,
              "rtr": "PITCH_SHIFT_TO_ROOT"
            },
            "ctb2High": null
          },
          "notes": [
            {
              "pitch": 31,
              "velocity": 70,
              "position": 0,
              "duration": 0.30833333333333335
            },
            {
              "pitch": 24,
              "velocity": 99,
              "position": 0.5,
              "duration": 0.2625
            },
            {
              "pitch": 33,
              "velocity": 70,
              "position": 0.75,
              "duration": 0.30833333333333335
            },
            {
              "pitch": 24,
              "velocity": 99,
              "position": 1.2708333333333333,
              "duration": 0.22083333333333333
            },
            {
              "pitch": 24,
              "velocity": 70,
              "position": 1.5,
              "duration": 0.09375
            },
            {
              "pitch": 24,
              "velocity": 60,
              "position": 1.7708333333333333,
              "duration": 0.09375
            },
            {
              "pitch": 34,
              "velocity": 70,
              "position": 2,
              "duration": 0.2625
            },
            {
              "pitch": 36,
              "velocity": 60,
              "position": 2.2708333333333335,
              "duration": 0.22083333333333333
            },
            {
              "pitch": 24,
              "velocity": 70,
              "position": 2.5,
              "duration": 0.2875
            },
            {
              "pitch": 24,
              "velocity": 70,
              "position": 3,
              "duration": 0.11041666666666666
            }
          ]
        },
        "12": {
          "ctab": {
            "srcChannel": 12,
            "name": "Bass b",
            "accType": "BASS",
            "editable": false,
            "mutedNotes": [],
            "mutedChords": [
              "7th",
              "min",
              "Maj"
            ],
            "autoStart": false,
            "sourceChordNote": 0,
            "sourceChordType": "Maj7",
            "ctb2Low": null,
            "ctb2Main": {
              "ntr": "ROOT_TRANSPOSITION",
              "ntt": "MELODY",
              "bassOn": true,
              "chordRootUpperLimit": 8,
              "noteLowLimit": 28,
              "noteHighLimit": 127,
              "rtr": "PITCH_SHIFT_TO_ROOT"
            },
            "ctb2High": null
          },
          "notes": [
            {
              "pitch": 24,
              "velocity": 70,
              "position": 0,
              "duration": 0.30833333333333335
            },
            {
              "pitch": 24,
              "velocity": 99,
              "position": 0.5,
              "duration": 0.24791666666666667
            },
            {
              "pitch": 24,
              "velocity": 70,
              "position": 0.75,
              "duration": 0.30833333333333335
            },
            {
              "pitch": 24,
              "velocity": 99,
              "position": 1.2708333333333333,
              "duration": 0.22083333333333333
            },
            {
              "pitch": 24,
              "velocity": 70,
              "position": 1.5,
              "duration": 0.09375
            },
            {
              "pitch": 31,
              "velocity": 60,
              "position": 1.7708333333333333,
              "duration": 0.09375
            },
            {
              "pitch": 36,
              "velocity": 70,
              "position": 2,
              "duration": 0.2875
            },
            {
              "pitch": 24,
              "velocity": 70,
              "position": 2.5,
              "duration": 0.2875
            },
            {
              "pitch": 24,
              "velocity": 70,
              "position": 3,
              "duration": 0.11041666666666666
            }
          ]
        },
        "13": {
          "ctab": {
            "srcChannel": 13,
            "name": "EP Maj",
            "accType": "CHORD2",
            "editable": false,
            "mutedNotes": [],
            "mutedChords": [
              "1+2+5",
              "sus4",
              "1+5",
              "1+8",
              "7aug",
              "Maj7aug",
              "7(#9)",
              "7(b13)",
              "7(b9)",
              "7(13)",
              "7#11",
              "7(9)",
              "7b5",
              "7sus4",
              "dim7",
              "dim",
              "minMaj7(9)",
              "minMaj7",
              "min7(11)",
              "min7(9)",
              "min(9)",
              "m7b5",
              "min7",
              "min6",
              "min",
              "aug",
              "Maj6(9)",
              "Maj7(9)",
              "Maj(9)",
              "Maj7#11",
              "Maj7",
              "Maj6"
            ],
            "autoStart": false,
            "sourceChordNote": 0,
            "sourceChordType": "7th",
            "ctb2Low": null,
            "ctb2Main": {
              "ntr": "ROOT_TRANSPOSITION",
              "ntt": "MELODIC_MINOR_5",
              "bassOn": false,
              "chordRootUpperLimit": 8,
              "noteLowLimit": 40,
              "noteHighLimit": 66,
              "rtr": "PITCH_SHIFT"
            },
            "ctb2High": null
          },
          "notes": [
            {
              "pitch": 70,
              "velocity": 101,
              "position": 0.010416666666666666,
              "duration": 0.22708333333333333
            },
            {
              "pitch": 76,
              "velocity": 101,
              "position": 0.010416666666666666,
              "duration": 0.25
            },
            {
              "pitch": 67,
              "velocity": 99,
              "position": 0.010416666666666666,
              "duration": 0.2625
            },
            {
              "pitch": 70,
              "velocity": 73,
              "position": 0.28541666666666665,
              "duration": 0.12083333333333333
            },
            {
              "pitch": 76,
              "velocity": 74,
              "position": 0.2875,
              "duration": 0.13541666666666666
            },
            {
              "pitch": 67,
              "velocity": 72,
              "position": 0.28541666666666665,
              "duration": 0.14375
            },
            {
              "pitch": 36,
              "velocity": 84,
              "position": 0.4979166666666667,
              "duration": 0.07083333333333333
            },
            {
              "pitch": 70,
              "velocity": 101,
              "position": 0.79375,
              "duration": 0.11666666666666667
            },
            {
              "pitch": 76,
              "velocity": 101,
              "position": 0.7916666666666666,
              "duration": 0.12916666666666668
            },
            {
              "pitch": 67,
              "velocity": 100,
              "position": 0.7916666666666666,
              "duration": 0.15208333333333332
            },
            {
              "pitch": 36,
              "velocity": 86,
              "position": 0.9979166666666667,
              "duration": 0.0625
            },
            {
              "pitch": 76,
              "velocity": 80,
              "position": 1.2895833333333333,
              "duration": 0.18541666666666667
            },
            {
              "pitch": 67,
              "velocity": 85,
              "position": 1.2979166666666666,
              "duration": 0.20416666666666666
            },
            {
              "pitch": 70,
              "velocity": 69,
              "position": 1.49375,
              "duration": 0.12916666666666668
            },
            {
              "pitch": 36,
              "velocity": 64,
              "position": 1.79375,
              "duration": 0.06458333333333334
            },
            {
              "pitch": 76,
              "velocity": 101,
              "position": 2,
              "duration": 0.20416666666666666
            },
            {
              "pitch": 67,
              "velocity": 101,
              "position": 2,
              "duration": 0.23958333333333334
            },
            {
              "pitch": 70,
              "velocity": 80,
              "position": 2,
              "duration": 0.27708333333333335
            },
            {
              "pitch": 74,
              "velocity": 81,
              "position": 2.00625,
              "duration": 0.2708333333333333
            },
            {
              "pitch": 58,
              "velocity": 83,
              "position": 2.2916666666666665,
              "duration": 0.07083333333333333
            },
            {
              "pitch": 36,
              "velocity": 86,
              "position": 2.28125,
              "duration": 0.08333333333333333
            },
            {
              "pitch": 69,
              "velocity": 105,
              "position": 2.504166666666667,
              "duration": 0.27291666666666664
            },
            {
              "pitch": 72,
              "velocity": 108,
              "position": 2.4916666666666667,
              "duration": 0.29583333333333334
            },
            {
              "pitch": 76,
              "velocity": 107,
              "position": 2.495833333333333,
              "duration": 0.29583333333333334
            },
            {
              "pitch": 74,
              "velocity": 81,
              "position": 2.997916666666667,
              "duration": 0.26875
            },
            {
              "pitch": 67,
              "velocity": 80,
              "position": 3,
              "duration": 0.27708333333333335
            },
            {
              "pitch": 70,
              "velocity": 81,
              "position": 3.00625,
              "duration": 0.2708333333333333
            },
            {
              "pitch": 36,
              "velocity": 86,
              "position": 3.28125,
              "duration": 0.08333333333333333
            },
            {
              "pitch": 69,
              "velocity": 95,
              "position": 3.504166666666667,
              "duration": 0.27291666666666664
            },
            {
              "pitch": 72,
              "velocity": 98,
              "position": 3.4916666666666667,
              "duration": 0.29583333333333334
            },
            {
              "pitch": 76,
              "velocity": 97,
              "position": 3.495833333333333,
              "duration": 0.29583333333333334
            }
          ]
        },
        "14": {
          "ctab": {
            "srcChannel": 14,
            "name": "EP Min",
            "accType": "CHORD2",
            "editable": false,
            "mutedNotes": [],
            "mutedChords": [
              "1+2+5",
              "sus4",
              "1+5",
              "1+8",
              "7aug",
              "Maj7aug",
              "7(#9)",
              "7(b13)",
              "7(b9)",
              "7(13)",
              "7#11",
              "7(9)",
              "7b5",
              "7sus4",
              "7th",
              "dim7",
              "dim",
              "minMaj7(9)",
              "minMaj7",
              "min7(11)",
              "min7(9)",
              "min(9)",
              "m7b5",
              "min7",
              "min6",
              "aug",
              "Maj6(9)",
              "Maj7(9)",
              "Maj(9)",
              "Maj7#11",
              "Maj7",
              "Maj6",
              "Maj"
            ],
            "autoStart": false,
            "sourceChordNote": 0,
            "sourceChordType": "min7",
            "ctb2Low": null,
            "ctb2Main": {
              "ntr": "ROOT_TRANSPOSITION",
              "ntt": "MELODIC_MINOR_5",
              "bassOn": false,
              "chordRootUpperLimit": 8,
              "noteLowLimit": 40,
              "noteHighLimit": 66,
              "rtr": "PITCH_SHIFT"
            },
            "ctb2High": null
          },
          "notes": [
            {
              "pitch": 66,
              "velocity": 101,
              "position": 0.010416666666666666,
              "duration": 0.22708333333333333
            },
            {
              "pitch": 74,
              "velocity": 101,
              "position": 0.010416666666666666,
              "duration": 0.25
            },
            {
              "pitch": 69,
              "velocity": 99,
              "position": 0.010416666666666666,
              "duration": 0.2625
            },
            {
              "pitch": 70,
              "velocity": 73,
              "position": 0.28541666666666665,
              "duration": 0.12083333333333333
            },
            {
              "pitch": 75,
              "velocity": 74,
              "position": 0.2875,
              "duration": 0.13541666666666666
            },
            {
              "pitch": 67,
              "velocity": 72,
              "position": 0.28541666666666665,
              "duration": 0.14375
            },
            {
              "pitch": 36,
              "velocity": 84,
              "position": 0.4979166666666667,
              "duration": 0.07083333333333333
            },
            {
              "pitch": 70,
              "velocity": 101,
              "position": 0.79375,
              "duration": 0.11666666666666667
            },
            {
              "pitch": 75,
              "velocity": 101,
              "position": 0.7916666666666666,
              "duration": 0.12916666666666668
            },
            {
              "pitch": 67,
              "velocity": 100,
              "position": 0.7916666666666666,
              "duration": 0.15208333333333332
            },
            {
              "pitch": 36,
              "velocity": 86,
              "position": 0.9979166666666667,
              "duration": 0.0625
            },
            {
              "pitch": 75,
              "velocity": 80,
              "position": 1.2895833333333333,
              "duration": 0.18541666666666667
            },
            {
              "pitch": 67,
              "velocity": 85,
              "position": 1.2979166666666666,
              "duration": 0.20416666666666666
            },
            {
              "pitch": 70,
              "velocity": 69,
              "position": 1.49375,
              "duration": 0.12916666666666668
            },
            {
              "pitch": 36,
              "velocity": 64,
              "position": 1.79375,
              "duration": 0.06458333333333334
            },
            {
              "pitch": 75,
              "velocity": 101,
              "position": 1.9979166666666666,
              "duration": 0.20416666666666666
            },
            {
              "pitch": 70,
              "velocity": 101,
              "position": 1.9979166666666666,
              "duration": 0.21666666666666667
            },
            {
              "pitch": 67,
              "velocity": 101,
              "position": 1.99375,
              "duration": 0.23958333333333334
            },
            {
              "pitch": 36,
              "velocity": 81,
              "position": 2.28125,
              "duration": 0.08333333333333333
            },
            {
              "pitch": 69,
              "velocity": 102,
              "position": 2.5,
              "duration": 0.22916666666666666
            },
            {
              "pitch": 77,
              "velocity": 101,
              "position": 2.49375,
              "duration": 0.23541666666666666
            },
            {
              "pitch": 72,
              "velocity": 101,
              "position": 2.50625,
              "duration": 0.23333333333333334
            },
            {
              "pitch": 79,
              "velocity": 88,
              "position": 2.9916666666666667,
              "duration": 0.29791666666666666
            },
            {
              "pitch": 72,
              "velocity": 85,
              "position": 3,
              "duration": 0.31666666666666665
            },
            {
              "pitch": 70,
              "velocity": 85,
              "position": 2.9916666666666667,
              "duration": 0.32708333333333334
            },
            {
              "pitch": 36,
              "velocity": 81,
              "position": 3.28125,
              "duration": 0.08333333333333333
            },
            {
              "pitch": 69,
              "velocity": 102,
              "position": 3.5,
              "duration": 0.22916666666666666
            },
            {
              "pitch": 77,
              "velocity": 101,
              "position": 3.49375,
              "duration": 0.23541666666666666
            },
            {
              "pitch": 72,
              "velocity": 101,
              "position": 3.50625,
              "duration": 0.23333333333333334
            }
          ]
        },
        "15": {
          "ctab": {
            "srcChannel": 15,
            "name": "EP",
            "accType": "CHORD2",
            "editable": false,
            "mutedNotes": [],
            "mutedChords": [
              "7th",
              "min",
              "Maj"
            ],
            "autoStart": false,
            "sourceChordNote": 0,
            "sourceChordType": "Maj7",
            "ctb2Low": null,
            "ctb2Main": {
              "ntr": "ROOT_TRANSPOSITION",
              "ntt": "CHORD",
              "bassOn": false,
              "chordRootUpperLimit": 8,
              "noteLowLimit": 40,
              "noteHighLimit": 66,
              "rtr": "PITCH_SHIFT"
            },
            "ctb2High": null
          },
          "notes": [
            {
              "pitch": 71,
              "velocity": 101,
              "position": 0.010416666666666666,
              "duration": 0.22708333333333333
            },
            {
              "pitch": 76,
              "velocity": 101,
              "position": 0.010416666666666666,
              "duration": 0.25
            },
            {
              "pitch": 67,
              "velocity": 99,
              "position": 0.010416666666666666,
              "duration": 0.2625
            },
            {
              "pitch": 71,
              "velocity": 73,
              "position": 0.28541666666666665,
              "duration": 0.12083333333333333
            },
            {
              "pitch": 76,
              "velocity": 74,
              "position": 0.2875,
              "duration": 0.13541666666666666
            },
            {
              "pitch": 67,
              "velocity": 72,
              "position": 0.28541666666666665,
              "duration": 0.14375
            },
            {
              "pitch": 36,
              "velocity": 84,
              "position": 0.4979166666666667,
              "duration": 0.07083333333333333
            },
            {
              "pitch": 71,
              "velocity": 101,
              "position": 0.79375,
              "duration": 0.11666666666666667
            },
            {
              "pitch": 76,
              "velocity": 101,
              "position": 0.7916666666666666,
              "duration": 0.12916666666666668
            },
            {
              "pitch": 67,
              "velocity": 100,
              "position": 0.7916666666666666,
              "duration": 0.15208333333333332
            },
            {
              "pitch": 36,
              "velocity": 86,
              "position": 0.9979166666666667,
              "duration": 0.0625
            },
            {
              "pitch": 76,
              "velocity": 80,
              "position": 1.2895833333333333,
              "duration": 0.18541666666666667
            },
            {
              "pitch": 67,
              "velocity": 85,
              "position": 1.2979166666666666,
              "duration": 0.20416666666666666
            },
            {
              "pitch": 71,
              "velocity": 69,
              "position": 1.49375,
              "duration": 0.12916666666666668
            },
            {
              "pitch": 36,
              "velocity": 64,
              "position": 1.79375,
              "duration": 0.06458333333333334
            },
            {
              "pitch": 76,
              "velocity": 101,
              "position": 1.9979166666666666,
              "duration": 0.20416666666666666
            },
            {
              "pitch": 71,
              "velocity": 101,
              "position": 1.9979166666666666,
              "duration": 0.21666666666666667
            },
            {
              "pitch": 67,
              "velocity": 101,
              "position": 1.99375,
              "duration": 0.23958333333333334
            },
            {
              "pitch": 36,
              "velocity": 81,
              "position": 2.28125,
              "duration": 0.08333333333333333
            },
            {
              "pitch": 67,
              "velocity": 79,
              "position": 2.5,
              "duration": 0.22916666666666666
            },
            {
              "pitch": 71,
              "velocity": 78,
              "position": 2.50625,
              "duration": 0.23333333333333334
            },
            {
              "pitch": 76,
              "velocity": 101,
              "position": 2.9916666666666667,
              "duration": 0.29791666666666666
            },
            {
              "pitch": 71,
              "velocity": 98,
              "position": 3,
              "duration": 0.31666666666666665
            },
            {
              "pitch": 67,
              "velocity": 98,
              "position": 2.9916666666666667,
              "duration": 0.32708333333333334
            },
            {
              "pitch": 36,
              "velocity": 81,
              "position": 3.28125,
              "duration": 0.08333333333333333
            },
            {
              "pitch": 67,
              "velocity": 79,
              "position": 3.5,
              "duration": 0.22916666666666666
            },
            {
              "pitch": 71,
              "velocity": 78,
              "position": 3.50625,
              "duration": 0.23333333333333334
            }
          ]
        }
      }
    },
    "Fill_In_CC": {
      "type": "Fill_In_CC",
      "sizeInBeats": 4,
      "channels": {
        "1": {
          "ctab": {
            "srcChannel": 1,
            "name": "Gt Maj",
            "accType": "CHORD1",
            "editable": false,
            "mutedNotes": [],
            "mutedChords": [
              "1+2+5",
              "sus4",
              "1+5",
              "1+8",
              "7aug",
              "Maj7aug",
              "7(#9)",
              "7(b13)",
              "7(b9)",
              "7(13)",
              "7#11",
              "7(9)",
              "7b5",
              "7sus4",
              "dim7",
              "dim",
              "minMaj7(9)",
              "minMaj7",
              "min7(11)",
              "min7(9)",
              "min(9)",
              "m7b5",
              "min7",
              "min6",
              "min",
              "aug",
              "Maj6(9)",
              "Maj7(9)",
              "Maj(9)",
              "Maj7#11",
              "Maj7",
              "Maj6"
            ],
            "autoStart": false,
            "sourceChordNote": 0,
            "sourceChordType": "7th",
            "ctb2Low": null,
            "ctb2Main": {
              "ntr": "ROOT_TRANSPOSITION",
              "ntt": "MELODIC_MINOR_5",
              "bassOn": false,
              "chordRootUpperLimit": 7,
              "noteLowLimit": 55,
              "noteHighLimit": 77,
              "rtr": "PITCH_SHIFT"
            },
            "ctb2High": null
          },
          "notes": [
            {
              "pitch": 108,
              "velocity": 84,
              "position": 0.010416666666666666,
              "duration": 0.23125
            },
            {
              "pitch": 79,
              "velocity": 42,
              "position": 0.010416666666666666,
              "duration": 0.2833333333333333
            },
            {
              "pitch": 82,
              "velocity": 42,
              "position": 0.03125,
              "duration": 0.2625
            },
            {
              "pitch": 86,
              "velocity": 42,
              "position": 0.052083333333333336,
              "duration": 0.24166666666666667
            },
            {
              "pitch": 103,
              "velocity": 84,
              "position": 0.25,
              "duration": 0.23958333333333334
            },
            {
              "pitch": 108,
              "velocity": 84,
              "position": 0.5,
              "duration": 0.23958333333333334
            },
            {
              "pitch": 79,
              "velocity": 42,
              "position": 0.5,
              "duration": 0.2833333333333333
            },
            {
              "pitch": 82,
              "velocity": 42,
              "position": 0.5208333333333334,
              "duration": 0.2625
            },
            {
              "pitch": 86,
              "velocity": 42,
              "position": 0.5416666666666666,
              "duration": 0.24166666666666667
            },
            {
              "pitch": 103,
              "velocity": 84,
              "position": 0.75,
              "duration": 0.23958333333333334
            },
            {
              "pitch": 108,
              "velocity": 84,
              "position": 1,
              "duration": 0.23958333333333334
            },
            {
              "pitch": 79,
              "velocity": 42,
              "position": 1,
              "duration": 0.2833333333333333
            },
            {
              "pitch": 82,
              "velocity": 42,
              "position": 1.0208333333333333,
              "duration": 0.2625
            },
            {
              "pitch": 86,
              "velocity": 42,
              "position": 1.0416666666666667,
              "duration": 0.24166666666666667
            },
            {
              "pitch": 103,
              "velocity": 84,
              "position": 1.25,
              "duration": 0.23958333333333334
            },
            {
              "pitch": 102,
              "velocity": 84,
              "position": 1.5,
              "duration": 0.23958333333333334
            },
            {
              "pitch": 103,
              "velocity": 84,
              "position": 1.75,
              "duration": 0.23958333333333334
            },
            {
              "pitch": 102,
              "velocity": 84,
              "position": 2,
              "duration": 0.23958333333333334
            },
            {
              "pitch": 103,
              "velocity": 84,
              "position": 2.25,
              "duration": 0.23958333333333334
            },
            {
              "pitch": 106,
              "velocity": 84,
              "position": 2.5,
              "duration": 0.23958333333333334
            },
            {
              "pitch": 70,
              "velocity": 42,
              "position": 2.5208333333333335,
              "duration": 0.24166666666666667
            },
            {
              "pitch": 67,
              "velocity": 42,
              "position": 2.5,
              "duration": 0.2833333333333333
            },
            {
              "pitch": 72,
              "velocity": 100,
              "position": 2.7708333333333335,
              "duration": 0.15833333333333333
            },
            {
              "pitch": 69,
              "velocity": 100,
              "position": 2.7916666666666665,
              "duration": 0.17916666666666667
            },
            {
              "pitch": 108,
              "velocity": 84,
              "position": 2.75,
              "duration": 0.23958333333333334
            },
            {
              "pitch": 102,
              "velocity": 84,
              "position": 3,
              "duration": 0.23958333333333334
            },
            {
              "pitch": 70,
              "velocity": 34,
              "position": 3.2708333333333335,
              "duration": 0.15833333333333333
            },
            {
              "pitch": 67,
              "velocity": 34,
              "position": 3.2916666666666665,
              "duration": 0.17916666666666667
            },
            {
              "pitch": 106,
              "velocity": 84,
              "position": 3.25,
              "duration": 0.23958333333333334
            },
            {
              "pitch": 102,
              "velocity": 84,
              "position": 3.5,
              "duration": 0.23958333333333334
            },
            {
              "pitch": 103,
              "velocity": 84,
              "position": 3.75,
              "duration": 0.23958333333333334
            }
          ]
        },
        "2": {
          "ctab": {
            "srcChannel": 2,
            "name": "Gt Min",
            "accType": "CHORD1",
            "editable": false,
            "mutedNotes": [],
            "mutedChords": [
              "1+2+5",
              "sus4",
              "1+5",
              "1+8",
              "7aug",
              "Maj7aug",
              "7(#9)",
              "7(b13)",
              "7(b9)",
              "7(13)",
              "7#11",
              "7(9)",
              "7b5",
              "7sus4",
              "7th",
              "dim7",
              "dim",
              "minMaj7(9)",
              "minMaj7",
              "min7(11)",
              "min7(9)",
              "min(9)",
              "m7b5",
              "min7",
              "min6",
              "aug",
              "Maj6(9)",
              "Maj7(9)",
              "Maj(9)",
              "Maj7#11",
              "Maj7",
              "Maj6",
              "Maj"
            ],
            "autoStart": false,
            "sourceChordNote": 0,
            "sourceChordType": "min7",
            "ctb2Low": null,
            "ctb2Main": {
              "ntr": "ROOT_TRANSPOSITION",
              "ntt": "MELODIC_MINOR_5",
              "bassOn": false,
              "chordRootUpperLimit": 7,
              "noteLowLimit": 55,
              "noteHighLimit": 77,
              "rtr": "PITCH_SHIFT"
            },
            "ctb2High": null
          },
          "notes": [
            {
              "pitch": 108,
              "velocity": 84,
              "position": 0.010416666666666666,
              "duration": 0.23125
            },
            {
              "pitch": 79,
              "velocity": 42,
              "position": 0.010416666666666666,
              "duration": 0.2833333333333333
            },
            {
              "pitch": 82,
              "velocity": 42,
              "position": 0.03125,
              "duration": 0.2625
            },
            {
              "pitch": 87,
              "velocity": 42,
              "position": 0.052083333333333336,
              "duration": 0.24166666666666667
            },
            {
              "pitch": 103,
              "velocity": 84,
              "position": 0.25,
              "duration": 0.23958333333333334
            },
            {
              "pitch": 108,
              "velocity": 84,
              "position": 0.5,
              "duration": 0.23958333333333334
            },
            {
              "pitch": 79,
              "velocity": 42,
              "position": 0.5,
              "duration": 0.2833333333333333
            },
            {
              "pitch": 82,
              "velocity": 42,
              "position": 0.5208333333333334,
              "duration": 0.2625
            },
            {
              "pitch": 87,
              "velocity": 42,
              "position": 0.5416666666666666,
              "duration": 0.24166666666666667
            },
            {
              "pitch": 103,
              "velocity": 84,
              "position": 0.75,
              "duration": 0.23958333333333334
            },
            {
              "pitch": 108,
              "velocity": 84,
              "position": 1,
              "duration": 0.23958333333333334
            },
            {
              "pitch": 79,
              "velocity": 42,
              "position": 1,
              "duration": 0.2833333333333333
            },
            {
              "pitch": 82,
              "velocity": 42,
              "position": 1.0208333333333333,
              "duration": 0.2625
            },
            {
              "pitch": 87,
              "velocity": 42,
              "position": 1.0416666666666667,
              "duration": 0.24166666666666667
            },
            {
              "pitch": 103,
              "velocity": 84,
              "position": 1.25,
              "duration": 0.23958333333333334
            },
            {
              "pitch": 102,
              "velocity": 84,
              "position": 1.5,
              "duration": 0.23958333333333334
            },
            {
              "pitch": 103,
              "velocity": 84,
              "position": 1.75,
              "duration": 0.23958333333333334
            },
            {
              "pitch": 102,
              "velocity": 84,
              "position": 2,
              "duration": 0.23958333333333334
            },
            {
              "pitch": 103,
              "velocity": 84,
              "position": 2.25,
              "duration": 0.23958333333333334
            },
            {
              "pitch": 106,
              "velocity": 84,
              "position": 2.5,
              "duration": 0.23958333333333334
            },
            {
              "pitch": 70,
              "velocity": 42,
              "position": 2.5208333333333335,
              "duration": 0.24166666666666667
            },
            {
              "pitch": 67,
              "velocity": 42,
              "position": 2.5,
              "duration": 0.2833333333333333
            },
            {
              "pitch": 69,
              "velocity": 100,
              "position": 2.7708333333333335,
              "duration": 0.15833333333333333
            },
            {
              "pitch": 65,
              "velocity": 100,
              "position": 2.7916666666666665,
              "duration": 0.17916666666666667
            },
            {
              "pitch": 108,
              "velocity": 84,
              "position": 2.75,
              "duration": 0.23958333333333334
            },
            {
              "pitch": 102,
              "velocity": 84,
              "position": 3,
              "duration": 0.23958333333333334
            },
            {
              "pitch": 67,
              "velocity": 34,
              "position": 3.2708333333333335,
              "duration": 0.15833333333333333
            },
            {
              "pitch": 63,
              "velocity": 34,
              "position": 3.2916666666666665,
              "duration": 0.17916666666666667
            },
            {
              "pitch": 106,
              "velocity": 84,
              "position": 3.25,
              "duration": 0.23958333333333334
            },
            {
              "pitch": 102,
              "velocity": 84,
              "position": 3.5,
              "duration": 0.23958333333333334
            },
            {
              "pitch": 103,
              "velocity": 84,
              "position": 3.75,
              "duration": 0.23958333333333334
            }
          ]
        },
        "3": {
          "ctab": {
            "srcChannel": 3,
            "name": "Gt",
            "accType": "CHORD1",
            "editable": false,
            "mutedNotes": [],
            "mutedChords": [
              "7th",
              "min",
              "Maj"
            ],
            "autoStart": false,
            "sourceChordNote": 0,
            "sourceChordType": "Maj7",
            "ctb2Low": null,
            "ctb2Main": {
              "ntr": "ROOT_FIXED",
              "ntt": "CHORD",
              "bassOn": false,
              "chordRootUpperLimit": 7,
              "noteLowLimit": 55,
              "noteHighLimit": 77,
              "rtr": "PITCH_SHIFT"
            },
            "ctb2High": null
          },
          "notes": [
            {
              "pitch": 108,
              "velocity": 84,
              "position": 0.010416666666666666,
              "duration": 0.23125
            },
            {
              "pitch": 79,
              "velocity": 42,
              "position": 0.010416666666666666,
              "duration": 0.2833333333333333
            },
            {
              "pitch": 83,
              "velocity": 42,
              "position": 0.03125,
              "duration": 0.2625
            },
            {
              "pitch": 88,
              "velocity": 42,
              "position": 0.052083333333333336,
              "duration": 0.24166666666666667
            },
            {
              "pitch": 103,
              "velocity": 84,
              "position": 0.25,
              "duration": 0.23958333333333334
            },
            {
              "pitch": 108,
              "velocity": 84,
              "position": 0.5,
              "duration": 0.23958333333333334
            },
            {
              "pitch": 79,
              "velocity": 42,
              "position": 0.5,
              "duration": 0.2833333333333333
            },
            {
              "pitch": 83,
              "velocity": 42,
              "position": 0.5208333333333334,
              "duration": 0.2625
            },
            {
              "pitch": 88,
              "velocity": 42,
              "position": 0.5416666666666666,
              "duration": 0.24166666666666667
            },
            {
              "pitch": 103,
              "velocity": 84,
              "position": 0.75,
              "duration": 0.23958333333333334
            },
            {
              "pitch": 108,
              "velocity": 84,
              "position": 1,
              "duration": 0.23958333333333334
            },
            {
              "pitch": 79,
              "velocity": 42,
              "position": 1,
              "duration": 0.2833333333333333
            },
            {
              "pitch": 83,
              "velocity": 42,
              "position": 1.0208333333333333,
              "duration": 0.2625
            },
            {
              "pitch": 88,
              "velocity": 42,
              "position": 1.0416666666666667,
              "duration": 0.24166666666666667
            },
            {
              "pitch": 103,
              "velocity": 84,
              "position": 1.25,
              "duration": 0.23958333333333334
            },
            {
              "pitch": 102,
              "velocity": 84,
              "position": 1.5,
              "duration": 0.23958333333333334
            },
            {
              "pitch": 103,
              "velocity": 84,
              "position": 1.75,
              "duration": 0.23958333333333334
            },
            {
              "pitch": 102,
              "velocity": 84,
              "position": 2,
              "duration": 0.23958333333333334
            },
            {
              "pitch": 103,
              "velocity": 84,
              "position": 2.25,
              "duration": 0.23958333333333334
            },
            {
              "pitch": 106,
              "velocity": 84,
              "position": 2.5,
              "duration": 0.23958333333333334
            },
            {
              "pitch": 71,
              "velocity": 42,
              "position": 2.5208333333333335,
              "duration": 0.24166666666666667
            },
            {
              "pitch": 67,
              "velocity": 42,
              "position": 2.5,
              "duration": 0.2833333333333333
            },
            {
              "pitch": 71,
              "velocity": 100,
              "position": 2.7708333333333335,
              "duration": 0.15833333333333333
            },
            {
              "pitch": 67,
              "velocity": 100,
              "position": 2.7916666666666665,
              "duration": 0.17916666666666667
            },
            {
              "pitch": 108,
              "velocity": 84,
              "position": 2.75,
              "duration": 0.23958333333333334
            },
            {
              "pitch": 102,
              "velocity": 84,
              "position": 3,
              "duration": 0.23958333333333334
            },
            {
              "pitch": 67,
              "velocity": 34,
              "position": 3.2708333333333335,
              "duration": 0.15833333333333333
            },
            {
              "pitch": 64,
              "velocity": 34,
              "position": 3.2916666666666665,
              "duration": 0.17916666666666667
            },
            {
              "pitch": 106,
              "velocity": 84,
              "position": 3.25,
              "duration": 0.23958333333333334
            },
            {
              "pitch": 102,
              "velocity": 84,
              "position": 3.5,
              "duration": 0.23958333333333334
            },
            {
              "pitch": 103,
              "velocity": 84,
              "position": 3.75,
              "duration": 0.23958333333333334
            }
          ]
        },
        "4": {
          "ctab": {
            "srcChannel": 4,
            "name": "Brs a",
            "accType": "PHRASE1",
            "editable": false,
            "mutedNotes": [],
            "mutedChords": [
              "dim7",
              "minMaj7(9)",
              "minMaj7",
              "min6",
              "Maj6(9)",
              "Maj7(9)",
              "Maj(9)",
              "Maj7#11",
              "Maj7",
              "Maj6"
            ],
            "autoStart": false,
            "sourceChordNote": 0,
            "sourceChordType": "7th",
            "ctb2Low": null,
            "ctb2Main": {
              "ntr": "ROOT_TRANSPOSITION",
              "ntt": "MELODIC_MINOR_5",
              "bassOn": false,
              "chordRootUpperLimit": 5,
              "noteLowLimit": 34,
              "noteHighLimit": 127,
              "rtr": "PITCH_SHIFT"
            },
            "ctb2High": null
          },
          "notes": [
            {
              "pitch": 58,
              "velocity": 82,
              "position": 2.4875,
              "duration": 0.28958333333333336
            },
            {
              "pitch": 70,
              "velocity": 82,
              "position": 2.4916666666666667,
              "duration": 0.29791666666666666
            },
            {
              "pitch": 82,
              "velocity": 82,
              "position": 2.5,
              "duration": 0.29375
            },
            {
              "pitch": 84,
              "velocity": 82,
              "position": 2.752083333333333,
              "duration": 0.24166666666666667
            },
            {
              "pitch": 60,
              "velocity": 82,
              "position": 2.7895833333333333,
              "duration": 0.24583333333333332
            },
            {
              "pitch": 72,
              "velocity": 82,
              "position": 2.783333333333333,
              "duration": 0.25833333333333336
            },
            {
              "pitch": 87,
              "velocity": 82,
              "position": 3,
              "duration": 0.29791666666666666
            },
            {
              "pitch": 63,
              "velocity": 82,
              "position": 3.0125,
              "duration": 0.3125
            },
            {
              "pitch": 75,
              "velocity": 82,
              "position": 3.00625,
              "duration": 0.32083333333333336
            },
            {
              "pitch": 82,
              "velocity": 82,
              "position": 3.252083333333333,
              "duration": 0.25416666666666665
            },
            {
              "pitch": 70,
              "velocity": 82,
              "position": 3.279166666666667,
              "duration": 0.25625
            },
            {
              "pitch": 58,
              "velocity": 82,
              "position": 3.2895833333333333,
              "duration": 0.2708333333333333
            },
            {
              "pitch": 84,
              "velocity": 82,
              "position": 3.4895833333333335,
              "duration": 0.25416666666666665
            },
            {
              "pitch": 72,
              "velocity": 82,
              "position": 3.48125,
              "duration": 0.27291666666666664
            },
            {
              "pitch": 60,
              "velocity": 82,
              "position": 3.49375,
              "duration": 0.2875
            }
          ]
        },
        "5": {
          "ctab": {
            "srcChannel": 5,
            "name": "Brs b",
            "accType": "PHRASE1",
            "editable": false,
            "mutedNotes": [],
            "mutedChords": [
              "1+2+5",
              "sus4",
              "1+5",
              "1+8",
              "7aug",
              "Maj7aug",
              "7(#9)",
              "7(b13)",
              "7(b9)",
              "7(13)",
              "7#11",
              "7(9)",
              "7b5",
              "7sus4",
              "7th",
              "dim",
              "min7(11)",
              "min7(9)",
              "min(9)",
              "m7b5",
              "min7",
              "min",
              "aug",
              "Maj"
            ],
            "autoStart": false,
            "sourceChordNote": 0,
            "sourceChordType": "Maj7",
            "ctb2Low": null,
            "ctb2Main": {
              "ntr": "ROOT_TRANSPOSITION",
              "ntt": "MELODIC_MINOR_5",
              "bassOn": false,
              "chordRootUpperLimit": 5,
              "noteLowLimit": 34,
              "noteHighLimit": 127,
              "rtr": "PITCH_SHIFT"
            },
            "ctb2High": null
          },
          "notes": [
            {
              "pitch": 57,
              "velocity": 82,
              "position": 2.4875,
              "duration": 0.28958333333333336
            },
            {
              "pitch": 69,
              "velocity": 82,
              "position": 2.4916666666666667,
              "duration": 0.29791666666666666
            },
            {
              "pitch": 81,
              "velocity": 82,
              "position": 2.5,
              "duration": 0.29375
            },
            {
              "pitch": 84,
              "velocity": 85,
              "position": 2.752083333333333,
              "duration": 0.24166666666666667
            },
            {
              "pitch": 60,
              "velocity": 85,
              "position": 2.7895833333333333,
              "duration": 0.24583333333333332
            },
            {
              "pitch": 72,
              "velocity": 85,
              "position": 2.783333333333333,
              "duration": 0.25833333333333336
            },
            {
              "pitch": 86,
              "velocity": 85,
              "position": 3,
              "duration": 0.29791666666666666
            },
            {
              "pitch": 62,
              "velocity": 85,
              "position": 3.0125,
              "duration": 0.3125
            },
            {
              "pitch": 74,
              "velocity": 85,
              "position": 3.00625,
              "duration": 0.32083333333333336
            },
            {
              "pitch": 81,
              "velocity": 85,
              "position": 3.252083333333333,
              "duration": 0.25416666666666665
            },
            {
              "pitch": 69,
              "velocity": 85,
              "position": 3.279166666666667,
              "duration": 0.25625
            },
            {
              "pitch": 57,
              "velocity": 85,
              "position": 3.2895833333333333,
              "duration": 0.2708333333333333
            },
            {
              "pitch": 84,
              "velocity": 85,
              "position": 3.4895833333333335,
              "duration": 0.25416666666666665
            },
            {
              "pitch": 72,
              "velocity": 85,
              "position": 3.48125,
              "duration": 0.27291666666666664
            },
            {
              "pitch": 60,
              "velocity": 85,
              "position": 3.49375,
              "duration": 0.2875
            }
          ]
        },
        "6": {
          "ctab": {
            "srcChannel": 6,
            "name": "Hns a",
            "accType": "PHRASE2",
            "editable": false,
            "mutedNotes": [],
            "mutedChords": [
              "dim7",
              "minMaj7(9)",
              "minMaj7",
              "min6",
              "Maj6(9)",
              "Maj7(9)",
              "Maj(9)",
              "Maj7#11",
              "Maj7",
              "Maj6"
            ],
            "autoStart": false,
            "sourceChordNote": 0,
            "sourceChordType": "7th",
            "ctb2Low": null,
            "ctb2Main": {
              "ntr": "ROOT_TRANSPOSITION",
              "ntt": "MELODIC_MINOR_5",
              "bassOn": false,
              "chordRootUpperLimit": 0,
              "noteLowLimit": 34,
              "noteHighLimit": 127,
              "rtr": "PITCH_SHIFT"
            },
            "ctb2High": null
          },
          "notes": [
            {
              "pitch": 58,
              "velocity": 49,
              "position": 2.4875,
              "duration": 0.28958333333333336
            },
            {
              "pitch": 70,
              "velocity": 52,
              "position": 2.4916666666666667,
              "duration": 0.29791666666666666
            },
            {
              "pitch": 82,
              "velocity": 52,
              "position": 2.5,
              "duration": 0.29375
            },
            {
              "pitch": 84,
              "velocity": 64,
              "position": 2.752083333333333,
              "duration": 0.24166666666666667
            },
            {
              "pitch": 60,
              "velocity": 66,
              "position": 2.7895833333333333,
              "duration": 0.24583333333333332
            },
            {
              "pitch": 72,
              "velocity": 62,
              "position": 2.783333333333333,
              "duration": 0.25833333333333336
            },
            {
              "pitch": 87,
              "velocity": 127,
              "position": 3,
              "duration": 0.29791666666666666
            },
            {
              "pitch": 63,
              "velocity": 126,
              "position": 3.0125,
              "duration": 0.3125
            },
            {
              "pitch": 75,
              "velocity": 127,
              "position": 3.00625,
              "duration": 0.32083333333333336
            },
            {
              "pitch": 82,
              "velocity": 64,
              "position": 3.252083333333333,
              "duration": 0.25416666666666665
            },
            {
              "pitch": 70,
              "velocity": 64,
              "position": 3.279166666666667,
              "duration": 0.25625
            },
            {
              "pitch": 58,
              "velocity": 66,
              "position": 3.2895833333333333,
              "duration": 0.2708333333333333
            },
            {
              "pitch": 84,
              "velocity": 119,
              "position": 3.4895833333333335,
              "duration": 0.25416666666666665
            },
            {
              "pitch": 72,
              "velocity": 123,
              "position": 3.48125,
              "duration": 0.27291666666666664
            },
            {
              "pitch": 60,
              "velocity": 122,
              "position": 3.49375,
              "duration": 0.2875
            }
          ]
        },
        "7": {
          "ctab": {
            "srcChannel": 7,
            "name": "Hns b",
            "accType": "PHRASE2",
            "editable": false,
            "mutedNotes": [],
            "mutedChords": [
              "1+2+5",
              "sus4",
              "1+5",
              "1+8",
              "7aug",
              "Maj7aug",
              "7(#9)",
              "7(b13)",
              "7(b9)",
              "7(13)",
              "7#11",
              "7(9)",
              "7b5",
              "7sus4",
              "7th",
              "dim",
              "min7(11)",
              "min7(9)",
              "min(9)",
              "m7b5",
              "min7",
              "min",
              "aug",
              "Maj"
            ],
            "autoStart": false,
            "sourceChordNote": 0,
            "sourceChordType": "Maj7",
            "ctb2Low": null,
            "ctb2Main": {
              "ntr": "ROOT_TRANSPOSITION",
              "ntt": "MELODIC_MINOR_5",
              "bassOn": false,
              "chordRootUpperLimit": 0,
              "noteLowLimit": 34,
              "noteHighLimit": 127,
              "rtr": "PITCH_SHIFT"
            },
            "ctb2High": null
          },
          "notes": [
            {
              "pitch": 57,
              "velocity": 49,
              "position": 2.4875,
              "duration": 0.28958333333333336
            },
            {
              "pitch": 69,
              "velocity": 52,
              "position": 2.4916666666666667,
              "duration": 0.29791666666666666
            },
            {
              "pitch": 81,
              "velocity": 52,
              "position": 2.5,
              "duration": 0.29375
            },
            {
              "pitch": 84,
              "velocity": 64,
              "position": 2.752083333333333,
              "duration": 0.24166666666666667
            },
            {
              "pitch": 60,
              "velocity": 66,
              "position": 2.7895833333333333,
              "duration": 0.24583333333333332
            },
            {
              "pitch": 72,
              "velocity": 62,
              "position": 2.783333333333333,
              "duration": 0.25833333333333336
            },
            {
              "pitch": 86,
              "velocity": 127,
              "position": 3,
              "duration": 0.29791666666666666
            },
            {
              "pitch": 62,
              "velocity": 126,
              "position": 3.0125,
              "duration": 0.3125
            },
            {
              "pitch": 74,
              "velocity": 127,
              "position": 3.00625,
              "duration": 0.32083333333333336
            },
            {
              "pitch": 81,
              "velocity": 64,
              "position": 3.252083333333333,
              "duration": 0.25416666666666665
            },
            {
              "pitch": 69,
              "velocity": 64,
              "position": 3.279166666666667,
              "duration": 0.25625
            },
            {
              "pitch": 57,
              "velocity": 66,
              "position": 3.2895833333333333,
              "duration": 0.2708333333333333
            },
            {
              "pitch": 84,
              "velocity": 119,
              "position": 3.4895833333333335,
              "duration": 0.25416666666666665
            },
            {
              "pitch": 72,
              "velocity": 123,
              "position": 3.48125,
              "duration": 0.27291666666666664
            },
            {
              "pitch": 60,
              "velocity": 122,
              "position": 3.49375,
              "duration": 0.2875
            }
          ]
        },
        "8": {
          "ctab": {
            "srcChannel": 8,
            "name": "Perc.",
            "accType": "SUBRHYTHM",
            "editable": false,
            "mutedNotes": [],
            "mutedChords": [],
            "autoStart": true,
            "sourceChordNote": 0,
            "sourceChordType": "Maj7",
            "ctb2Low": null,
            "ctb2Main": {
              "ntr": "ROOT_FIXED",
              "ntt": "BYPASS",
              "bassOn": false,
              "chordRootUpperLimit": 6,
              "noteLowLimit": 0,
              "noteHighLimit": 127,
              "rtr": "PITCH_SHIFT"
            },
            "ctb2High": null
          },
          "notes": [
            {
              "pitch": 60,
              "velocity": 80,
              "position": 0,
              "duration": 0.010416666666666666
            },
            {
              "pitch": 23,
              "velocity": 98,
              "position": 0.010416666666666666,
              "duration": 0.010416666666666666
            },
            {
              "pitch": 68,
              "velocity": 77,
              "position": 0.010416666666666666,
              "duration": 0.010416666666666666
            },
            {
              "pitch": 73,
              "velocity": 99,
              "position": 0.010416666666666666,
              "duration": 0.010416666666666666
            },
            {
              "pitch": 73,
              "velocity": 43,
              "position": 0.2375,
              "duration": 0.010416666666666666
            },
            {
              "pitch": 68,
              "velocity": 40,
              "position": 0.25,
              "duration": 0.010416666666666666
            },
            {
              "pitch": 22,
              "velocity": 50,
              "position": 0.26666666666666666,
              "duration": 0.010416666666666666
            },
            {
              "pitch": 68,
              "velocity": 60,
              "position": 0.4895833333333333,
              "duration": 0.010416666666666666
            },
            {
              "pitch": 73,
              "velocity": 74,
              "position": 0.49166666666666664,
              "duration": 0.010416666666666666
            },
            {
              "pitch": 28,
              "velocity": 93,
              "position": 0.49375,
              "duration": 0.010416666666666666
            },
            {
              "pitch": 68,
              "velocity": 36,
              "position": 0.7520833333333333,
              "duration": 0.010416666666666666
            },
            {
              "pitch": 73,
              "velocity": 50,
              "position": 0.7541666666666667,
              "duration": 0.010416666666666666
            },
            {
              "pitch": 22,
              "velocity": 50,
              "position": 0.76875,
              "duration": 0.010416666666666666
            },
            {
              "pitch": 23,
              "velocity": 100,
              "position": 1,
              "duration": 0.010416666666666666
            },
            {
              "pitch": 60,
              "velocity": 80,
              "position": 1,
              "duration": 0.010416666666666666
            },
            {
              "pitch": 73,
              "velocity": 99,
              "position": 1.0020833333333334,
              "duration": 0.010416666666666666
            },
            {
              "pitch": 68,
              "velocity": 82,
              "position": 1.0041666666666667,
              "duration": 0.010416666666666666
            },
            {
              "pitch": 18,
              "velocity": 82,
              "position": 1.0166666666666666,
              "duration": 0.010416666666666666
            },
            {
              "pitch": 73,
              "velocity": 51,
              "position": 1.2333333333333334,
              "duration": 0.010416666666666666
            },
            {
              "pitch": 68,
              "velocity": 39,
              "position": 1.2354166666666666,
              "duration": 0.010416666666666666
            },
            {
              "pitch": 22,
              "velocity": 50,
              "position": 1.2729166666666667,
              "duration": 0.010416666666666666
            },
            {
              "pitch": 24,
              "velocity": 99,
              "position": 1.4916666666666667,
              "duration": 0.010416666666666666
            },
            {
              "pitch": 73,
              "velocity": 79,
              "position": 1.4916666666666667,
              "duration": 0.010416666666666666
            },
            {
              "pitch": 68,
              "velocity": 62,
              "position": 1.5,
              "duration": 0.010416666666666666
            },
            {
              "pitch": 68,
              "velocity": 40,
              "position": 1.7479166666666666,
              "duration": 0.010416666666666666
            },
            {
              "pitch": 73,
              "velocity": 46,
              "position": 1.75625,
              "duration": 0.010416666666666666
            },
            {
              "pitch": 25,
              "velocity": 98,
              "position": 1.7625,
              "duration": 0.010416666666666666
            },
            {
              "pitch": 60,
              "velocity": 80,
              "position": 2,
              "duration": 0.010416666666666666
            },
            {
              "pitch": 68,
              "velocity": 80,
              "position": 2.002083333333333,
              "duration": 0.010416666666666666
            },
            {
              "pitch": 23,
              "velocity": 101,
              "position": 2.00625,
              "duration": 0.010416666666666666
            },
            {
              "pitch": 73,
              "velocity": 93,
              "position": 2.0104166666666665,
              "duration": 0.010416666666666666
            },
            {
              "pitch": 68,
              "velocity": 40,
              "position": 2.2375,
              "duration": 0.010416666666666666
            },
            {
              "pitch": 73,
              "velocity": 43,
              "position": 2.24375,
              "duration": 0.010416666666666666
            },
            {
              "pitch": 22,
              "velocity": 50,
              "position": 2.275,
              "duration": 0.010416666666666666
            },
            {
              "pitch": 73,
              "velocity": 78,
              "position": 2.4875,
              "duration": 0.010416666666666666
            },
            {
              "pitch": 28,
              "velocity": 99,
              "position": 2.504166666666667,
              "duration": 0.010416666666666666
            },
            {
              "pitch": 68,
              "velocity": 58,
              "position": 2.504166666666667,
              "duration": 0.010416666666666666
            },
            {
              "pitch": 73,
              "velocity": 44,
              "position": 2.754166666666667,
              "duration": 0.010416666666666666
            },
            {
              "pitch": 68,
              "velocity": 39,
              "position": 2.75625,
              "duration": 0.010416666666666666
            },
            {
              "pitch": 22,
              "velocity": 50,
              "position": 2.7708333333333335,
              "duration": 0.010416666666666666
            },
            {
              "pitch": 18,
              "velocity": 82,
              "position": 2.99375,
              "duration": 0.010416666666666666
            },
            {
              "pitch": 60,
              "velocity": 80,
              "position": 3,
              "duration": 0.010416666666666666
            },
            {
              "pitch": 23,
              "velocity": 100,
              "position": 3.00625,
              "duration": 0.010416666666666666
            },
            {
              "pitch": 68,
              "velocity": 81,
              "position": 3.0125,
              "duration": 0.010416666666666666
            },
            {
              "pitch": 73,
              "velocity": 97,
              "position": 3.0125,
              "duration": 0.010416666666666666
            },
            {
              "pitch": 73,
              "velocity": 47,
              "position": 3.2291666666666665,
              "duration": 0.010416666666666666
            },
            {
              "pitch": 68,
              "velocity": 44,
              "position": 3.2333333333333334,
              "duration": 0.010416666666666666
            },
            {
              "pitch": 22,
              "velocity": 50,
              "position": 3.2708333333333335,
              "duration": 0.010416666666666666
            },
            {
              "pitch": 31,
              "velocity": 93,
              "position": 3.49375,
              "duration": 0.010416666666666666
            },
            {
              "pitch": 73,
              "velocity": 79,
              "position": 3.497916666666667,
              "duration": 0.010416666666666666
            },
            {
              "pitch": 68,
              "velocity": 64,
              "position": 3.504166666666667,
              "duration": 0.010416666666666666
            },
            {
              "pitch": 68,
              "velocity": 39,
              "position": 3.7395833333333335,
              "duration": 0.010416666666666666
            },
            {
              "pitch": 73,
              "velocity": 44,
              "position": 3.747916666666667,
              "duration": 0.010416666666666666
            },
            {
              "pitch": 31,
              "velocity": 64,
              "position": 3.775,
              "duration": 0.010416666666666666
            }
          ]
        },
        "9": {
          "ctab": {
            "srcChannel": 9,
            "name": "Drums",
            "accType": "RHYTHM",
            "editable": false,
            "mutedNotes": [],
            "mutedChords": [],
            "autoStart": true,
            "sourceChordNote": 0,
            "sourceChordType": "Maj7",
            "ctb2Low": null,
            "ctb2Main": {
              "ntr": "ROOT_FIXED",
              "ntt": "BYPASS",
              "bassOn": false,
              "chordRootUpperLimit": 6,
              "noteLowLimit": 0,
              "noteHighLimit": 127,
              "rtr": "PITCH_SHIFT"
            },
            "ctb2High": null
          },
          "notes": [
            {
              "pitch": 35,
              "velocity": 100,
              "position": 0,
              "duration": 0.010416666666666666
            },
            {
              "pitch": 42,
              "velocity": 80,
              "position": 0,
              "duration": 0.010416666666666666
            },
            {
              "pitch": 46,
              "velocity": 51,
              "position": 0.5,
              "duration": 0.010416666666666666
            },
            {
              "pitch": 38,
              "velocity": 105,
              "position": 1,
              "duration": 0.010416666666666666
            },
            {
              "pitch": 46,
              "velocity": 69,
              "position": 1,
              "duration": 0.010416666666666666
            },
            {
              "pitch": 46,
              "velocity": 69,
              "position": 1.5,
              "duration": 0.010416666666666666
            },
            {
              "pitch": 38,
              "velocity": 32,
              "position": 1.625,
              "duration": 0.010416666666666666
            },
            {
              "pitch": 38,
              "velocity": 42,
              "position": 1.75,
              "duration": 0.010416666666666666
            },
            {
              "pitch": 38,
              "velocity": 85,
              "position": 1.875,
              "duration": 0.010416666666666666
            },
            {
              "pitch": 35,
              "velocity": 100,
              "position": 2,
              "duration": 0.010416666666666666
            },
            {
              "pitch": 38,
              "velocity": 121,
              "position": 2,
              "duration": 0.010416666666666666
            },
            {
              "pitch": 38,
              "velocity": 55,
              "position": 2.2708333333333335,
              "duration": 0.010416666666666666
            },
            {
              "pitch": 38,
              "velocity": 121,
              "position": 2.5,
              "duration": 0.010416666666666666
            },
            {
              "pitch": 44,
              "velocity": 60,
              "position": 2.5,
              "duration": 0.010416666666666666
            },
            {
              "pitch": 38,
              "velocity": 55,
              "position": 2.7708333333333335,
              "duration": 0.010416666666666666
            },
            {
              "pitch": 38,
              "velocity": 121,
              "position": 3,
              "duration": 0.010416666666666666
            },
            {
              "pitch": 44,
              "velocity": 80,
              "position": 3,
              "duration": 0.010416666666666666
            },
            {
              "pitch": 35,
              "velocity": 100,
              "position": 3.0104166666666665,
              "duration": 0.010416666666666666
            },
            {
              "pitch": 38,
              "velocity": 101,
              "position": 3.2708333333333335,
              "duration": 0.010416666666666666
            },
            {
              "pitch": 38,
              "velocity": 121,
              "position": 3.5,
              "duration": 0.010416666666666666
            },
            {
              "pitch": 44,
              "velocity": 60,
              "position": 3.5,
              "duration": 0.010416666666666666
            },
            {
              "pitch": 38,
              "velocity": 101,
              "position": 3.7708333333333335,
              "duration": 0.010416666666666666
            },
            {
              "pitch": 49,
              "velocity": 71,
              "position": 3.9895833333333335,
              "duration": 0.010416666666666666
            }
          ]
        },
        "10": {
          "ctab": {
            "srcChannel": 10,
            "name": "Bass FX",
            "accType": "BASS",
            "editable": false,
            "mutedNotes": [],
            "mutedChords": [],
            "autoStart": false,
            "sourceChordNote": 0,
            "sourceChordType": "7th",
            "ctb2Low": null,
            "ctb2Main": {
              "ntr": "ROOT_FIXED",
              "ntt": "BYPASS",
              "bassOn": false,
              "chordRootUpperLimit": 7,
              "noteLowLimit": 0,
              "noteHighLimit": 127,
              "rtr": "PITCH_SHIFT"
            },
            "ctb2High": null
          },
          "notes": []
        },
        "11": {
          "ctab": {
            "srcChannel": 11,
            "name": "Bass a",
            "accType": "BASS",
            "editable": false,
            "mutedNotes": [],
            "mutedChords": [
              "1+2+5",
              "sus4",
              "1+5",
              "1+8",
              "7aug",
              "Maj7aug",
              "7(#9)",
              "7(b13)",
              "7(b9)",
              "7(13)",
              "7#11",
              "7(9)",
              "7b5",
              "7sus4",
              "dim7",
              "dim",
              "minMaj7(9)",
              "minMaj7",
              "min7(11)",
              "min7(9)",
              "min(9)",
              "m7b5",
              "min7",
              "min6",
              "aug",
              "Maj6(9)",
              "Maj7(9)",
              "Maj(9)",
              "Maj7#11",
              "Maj7",
              "Maj6"
            ],
            "autoStart": false,
            "sourceChordNote": 0,
            "sourceChordType": "7th",
            "ctb2Low": null,
            "ctb2Main": {
              "ntr": "ROOT_TRANSPOSITION",
              "ntt": "MELODIC_MINOR_5",
              "bassOn": true,
              "chordRootUpperLimit": 8,
              "noteLowLimit": 28,
              "noteHighLimit": 127,
              "rtr": "PITCH_SHIFT_TO_ROOT"
            },
            "ctb2High": null
          },
          "notes": [
            {
              "pitch": 24,
              "velocity": 70,
              "position": 0,
              "duration": 0.2875
            },
            {
              "pitch": 24,
              "velocity": 100,
              "position": 0.5,
              "duration": 0.2625
            },
            {
              "pitch": 34,
              "velocity": 70,
              "position": 0.7708333333333334,
              "duration": 0.20416666666666666
            },
            {
              "pitch": 24,
              "velocity": 100,
              "position": 1.2708333333333333,
              "duration": 0.22083333333333333
            },
            {
              "pitch": 34,
              "velocity": 70,
              "position": 1.5,
              "duration": 0.2625
            },
            {
              "pitch": 36,
              "velocity": 53,
              "position": 1.7708333333333333,
              "duration": 0.17291666666666666
            },
            {
              "pitch": 43,
              "velocity": 70,
              "position": 2,
              "duration": 0.3416666666666667
            },
            {
              "pitch": 41,
              "velocity": 50,
              "position": 2.5,
              "duration": 0.3416666666666667
            },
            {
              "pitch": 41,
              "velocity": 70,
              "position": 3,
              "duration": 0.24166666666666667
            },
            {
              "pitch": 41,
              "velocity": 49,
              "position": 3.25,
              "duration": 0.24166666666666667
            },
            {
              "pitch": 36,
              "velocity": 60,
              "position": 3.5,
              "duration": 0.49166666666666664
            }
          ]
        },
        "12": {
          "ctab": {
            "srcChannel": 12,
            "name": "Bass b",
            "accType": "BASS",
            "editable": false,
            "mutedNotes": [],
            "mutedChords": [
              "7th",
              "min",
              "Maj"
            ],
            "autoStart": false,
            "sourceChordNote": 0,
            "sourceChordType": "Maj7",
            "ctb2Low": null,
            "ctb2Main": {
              "ntr": "ROOT_TRANSPOSITION",
              "ntt": "MELODY",
              "bassOn": true,
              "chordRootUpperLimit": 8,
              "noteLowLimit": 28,
              "noteHighLimit": 127,
              "rtr": "PITCH_SHIFT_TO_ROOT"
            },
            "ctb2High": null
          },
          "notes": [
            {
              "pitch": 24,
              "velocity": 70,
              "position": 0,
              "duration": 0.2875
            },
            {
              "pitch": 24,
              "velocity": 100,
              "position": 0.5,
              "duration": 0.2625
            },
            {
              "pitch": 24,
              "velocity": 70,
              "position": 0.7708333333333334,
              "duration": 0.20416666666666666
            },
            {
              "pitch": 24,
              "velocity": 100,
              "position": 1.2708333333333333,
              "duration": 0.22083333333333333
            },
            {
              "pitch": 24,
              "velocity": 70,
              "position": 1.5,
              "duration": 0.3416666666666667
            },
            {
              "pitch": 43,
              "velocity": 70,
              "position": 2,
              "duration": 0.3416666666666667
            },
            {
              "pitch": 40,
              "velocity": 50,
              "position": 2.5,
              "duration": 0.49166666666666664
            },
            {
              "pitch": 36,
              "velocity": 70,
              "position": 3,
              "duration": 0.24166666666666667
            },
            {
              "pitch": 36,
              "velocity": 49,
              "position": 3.25,
              "duration": 0.24166666666666667
            },
            {
              "pitch": 31,
              "velocity": 60,
              "position": 3.5,
              "duration": 0.49166666666666664
            }
          ]
        },
        "13": {
          "ctab": {
            "srcChannel": 13,
            "name": "EP Maj",
            "accType": "CHORD2",
            "editable": false,
            "mutedNotes": [],
            "mutedChords": [
              "1+2+5",
              "sus4",
              "1+5",
              "1+8",
              "7aug",
              "Maj7aug",
              "7(#9)",
              "7(b13)",
              "7(b9)",
              "7(13)",
              "7#11",
              "7(9)",
              "7b5",
              "7sus4",
              "dim7",
              "dim",
              "minMaj7(9)",
              "minMaj7",
              "min7(11)",
              "min7(9)",
              "min(9)",
              "m7b5",
              "min7",
              "min6",
              "min",
              "aug",
              "Maj6(9)",
              "Maj7(9)",
              "Maj(9)",
              "Maj7#11",
              "Maj7",
              "Maj6"
            ],
            "autoStart": false,
            "sourceChordNote": 0,
            "sourceChordType": "7th",
            "ctb2Low": null,
            "ctb2Main": {
              "ntr": "ROOT_TRANSPOSITION",
              "ntt": "MELODIC_MINOR_5",
              "bassOn": false,
              "chordRootUpperLimit": 8,
              "noteLowLimit": 40,
              "noteHighLimit": 66,
              "rtr": "PITCH_SHIFT"
            },
            "ctb2High": null
          },
          "notes": [
            {
              "pitch": 70,
              "velocity": 121,
              "position": 0.010416666666666666,
              "duration": 0.23333333333333334
            },
            {
              "pitch": 67,
              "velocity": 122,
              "position": 0.010416666666666666,
              "duration": 0.2520833333333333
            },
            {
              "pitch": 74,
              "velocity": 120,
              "position": 0.010416666666666666,
              "duration": 0.25833333333333336
            },
            {
              "pitch": 24,
              "velocity": 101,
              "position": 0.49583333333333335,
              "duration": 0.13333333333333333
            },
            {
              "pitch": 69,
              "velocity": 121,
              "position": 0.7833333333333333,
              "duration": 0.25
            },
            {
              "pitch": 76,
              "velocity": 122,
              "position": 0.7854166666666667,
              "duration": 0.2625
            },
            {
              "pitch": 72,
              "velocity": 122,
              "position": 0.7958333333333333,
              "duration": 0.2625
            },
            {
              "pitch": 24,
              "velocity": 97,
              "position": 1.2916666666666667,
              "duration": 0.1375
            },
            {
              "pitch": 69,
              "velocity": 96,
              "position": 1.4916666666666667,
              "duration": 0.21666666666666667
            },
            {
              "pitch": 72,
              "velocity": 97,
              "position": 1.50625,
              "duration": 0.2125
            },
            {
              "pitch": 76,
              "velocity": 93,
              "position": 1.5041666666666667,
              "duration": 0.22291666666666668
            },
            {
              "pitch": 67,
              "velocity": 120,
              "position": 1.7916666666666667,
              "duration": 0.6458333333333334
            },
            {
              "pitch": 74,
              "velocity": 122,
              "position": 1.7854166666666667,
              "duration": 0.6625
            },
            {
              "pitch": 70,
              "velocity": 122,
              "position": 1.7979166666666666,
              "duration": 0.6645833333333333
            },
            {
              "pitch": 69,
              "velocity": 108,
              "position": 2.497916666666667,
              "duration": 0.23958333333333334
            },
            {
              "pitch": 72,
              "velocity": 108,
              "position": 2.497916666666667,
              "duration": 0.24166666666666667
            },
            {
              "pitch": 76,
              "velocity": 109,
              "position": 2.5083333333333333,
              "duration": 0.23541666666666666
            },
            {
              "pitch": 24,
              "velocity": 102,
              "position": 2.8,
              "duration": 0.12708333333333333
            },
            {
              "pitch": 70,
              "velocity": 122,
              "position": 2.99375,
              "duration": 0.24166666666666667
            },
            {
              "pitch": 74,
              "velocity": 122,
              "position": 3.0083333333333333,
              "duration": 0.22708333333333333
            },
            {
              "pitch": 67,
              "velocity": 122,
              "position": 3,
              "duration": 0.25625
            },
            {
              "pitch": 69,
              "velocity": 109,
              "position": 3.49375,
              "duration": 0.22916666666666666
            },
            {
              "pitch": 72,
              "velocity": 111,
              "position": 3.5083333333333333,
              "duration": 0.23125
            },
            {
              "pitch": 76,
              "velocity": 109,
              "position": 3.4916666666666667,
              "duration": 0.25625
            },
            {
              "pitch": 24,
              "velocity": 102,
              "position": 3.7979166666666666,
              "duration": 0.14791666666666667
            }
          ]
        },
        "14": {
          "ctab": {
            "srcChannel": 14,
            "name": "EP Min",
            "accType": "CHORD2",
            "editable": false,
            "mutedNotes": [],
            "mutedChords": [
              "1+2+5",
              "sus4",
              "1+5",
              "1+8",
              "7aug",
              "Maj7aug",
              "7(#9)",
              "7(b13)",
              "7(b9)",
              "7(13)",
              "7#11",
              "7(9)",
              "7b5",
              "7sus4",
              "7th",
              "dim7",
              "dim",
              "minMaj7(9)",
              "minMaj7",
              "min7(11)",
              "min7(9)",
              "min(9)",
              "m7b5",
              "min7",
              "min6",
              "aug",
              "Maj6(9)",
              "Maj7(9)",
              "Maj(9)",
              "Maj7#11",
              "Maj7",
              "Maj6",
              "Maj"
            ],
            "autoStart": false,
            "sourceChordNote": 0,
            "sourceChordType": "min7",
            "ctb2Low": null,
            "ctb2Main": {
              "ntr": "ROOT_TRANSPOSITION",
              "ntt": "MELODIC_MINOR_5",
              "bassOn": false,
              "chordRootUpperLimit": 8,
              "noteLowLimit": 40,
              "noteHighLimit": 66,
              "rtr": "PITCH_SHIFT"
            },
            "ctb2High": null
          },
          "notes": [
            {
              "pitch": 70,
              "velocity": 126,
              "position": 0.010416666666666666,
              "duration": 0.23333333333333334
            },
            {
              "pitch": 67,
              "velocity": 127,
              "position": 0.010416666666666666,
              "duration": 0.2520833333333333
            },
            {
              "pitch": 75,
              "velocity": 125,
              "position": 0.010416666666666666,
              "duration": 0.25833333333333336
            },
            {
              "pitch": 24,
              "velocity": 98,
              "position": 0.010416666666666666,
              "duration": 0.4895833333333333
            },
            {
              "pitch": 36,
              "velocity": 79,
              "position": 0.49583333333333335,
              "duration": 0.1875
            },
            {
              "pitch": 69,
              "velocity": 126,
              "position": 0.7833333333333333,
              "duration": 0.25
            },
            {
              "pitch": 77,
              "velocity": 127,
              "position": 0.7854166666666667,
              "duration": 0.2625
            },
            {
              "pitch": 72,
              "velocity": 127,
              "position": 0.7958333333333333,
              "duration": 0.2625
            },
            {
              "pitch": 36,
              "velocity": 76,
              "position": 1.2916666666666667,
              "duration": 0.19166666666666668
            },
            {
              "pitch": 69,
              "velocity": 107,
              "position": 1.4916666666666667,
              "duration": 0.21666666666666667
            },
            {
              "pitch": 72,
              "velocity": 108,
              "position": 1.50625,
              "duration": 0.2125
            },
            {
              "pitch": 77,
              "velocity": 105,
              "position": 1.5041666666666667,
              "duration": 0.22291666666666668
            },
            {
              "pitch": 67,
              "velocity": 125,
              "position": 1.7916666666666667,
              "duration": 0.6458333333333334
            },
            {
              "pitch": 75,
              "velocity": 127,
              "position": 1.7854166666666667,
              "duration": 0.6625
            },
            {
              "pitch": 70,
              "velocity": 127,
              "position": 1.7979166666666666,
              "duration": 0.6645833333333333
            },
            {
              "pitch": 24,
              "velocity": 100,
              "position": 1.9979166666666666,
              "duration": 0.47708333333333336
            },
            {
              "pitch": 69,
              "velocity": 113,
              "position": 2.497916666666667,
              "duration": 0.23958333333333334
            },
            {
              "pitch": 72,
              "velocity": 112,
              "position": 2.497916666666667,
              "duration": 0.24166666666666667
            },
            {
              "pitch": 77,
              "velocity": 114,
              "position": 2.5083333333333333,
              "duration": 0.23541666666666666
            },
            {
              "pitch": 36,
              "velocity": 83,
              "position": 2.8,
              "duration": 0.18333333333333332
            },
            {
              "pitch": 72,
              "velocity": 127,
              "position": 2.99375,
              "duration": 0.24166666666666667
            },
            {
              "pitch": 79,
              "velocity": 127,
              "position": 3.0083333333333333,
              "duration": 0.22708333333333333
            },
            {
              "pitch": 70,
              "velocity": 127,
              "position": 3,
              "duration": 0.25625
            },
            {
              "pitch": 69,
              "velocity": 114,
              "position": 3.49375,
              "duration": 0.22916666666666666
            },
            {
              "pitch": 72,
              "velocity": 116,
              "position": 3.5083333333333333,
              "duration": 0.23125
            },
            {
              "pitch": 77,
              "velocity": 114,
              "position": 3.4916666666666667,
              "duration": 0.25625
            },
            {
              "pitch": 36,
              "velocity": 80,
              "position": 3.7979166666666666,
              "duration": 0.20208333333333334
            }
          ]
        },
        "15": {
          "ctab": {
            "srcChannel": 15,
            "name": "EP",
            "accType": "CHORD2",
            "editable": false,
            "mutedNotes": [],
            "mutedChords": [
              "7th",
              "min",
              "Maj"
            ],
            "autoStart": false,
            "sourceChordNote": 0,
            "sourceChordType": "Maj7",
            "ctb2Low": null,
            "ctb2Main": {
              "ntr": "ROOT_TRANSPOSITION",
              "ntt": "CHORD",
              "bassOn": false,
              "chordRootUpperLimit": 8,
              "noteLowLimit": 40,
              "noteHighLimit": 66,
              "rtr": "PITCH_SHIFT"
            },
            "ctb2High": null
          },
          "notes": [
            {
              "pitch": 71,
              "velocity": 126,
              "position": 0.010416666666666666,
              "duration": 0.23333333333333334
            },
            {
              "pitch": 67,
              "velocity": 127,
              "position": 0.010416666666666666,
              "duration": 0.2520833333333333
            },
            {
              "pitch": 76,
              "velocity": 125,
              "position": 0.010416666666666666,
              "duration": 0.25833333333333336
            },
            {
              "pitch": 24,
              "velocity": 98,
              "position": 0.010416666666666666,
              "duration": 0.4895833333333333
            },
            {
              "pitch": 36,
              "velocity": 79,
              "position": 0.49583333333333335,
              "duration": 0.1875
            },
            {
              "pitch": 67,
              "velocity": 126,
              "position": 0.7833333333333333,
              "duration": 0.25
            },
            {
              "pitch": 76,
              "velocity": 127,
              "position": 0.7854166666666667,
              "duration": 0.2625
            },
            {
              "pitch": 71,
              "velocity": 127,
              "position": 0.7958333333333333,
              "duration": 0.2625
            },
            {
              "pitch": 36,
              "velocity": 76,
              "position": 1.2916666666666667,
              "duration": 0.19166666666666668
            },
            {
              "pitch": 67,
              "velocity": 107,
              "position": 1.4916666666666667,
              "duration": 0.21666666666666667
            },
            {
              "pitch": 71,
              "velocity": 108,
              "position": 1.50625,
              "duration": 0.2125
            },
            {
              "pitch": 76,
              "velocity": 105,
              "position": 1.5041666666666667,
              "duration": 0.22291666666666668
            },
            {
              "pitch": 67,
              "velocity": 125,
              "position": 1.7916666666666667,
              "duration": 0.6458333333333334
            },
            {
              "pitch": 76,
              "velocity": 127,
              "position": 1.7854166666666667,
              "duration": 0.6625
            },
            {
              "pitch": 71,
              "velocity": 127,
              "position": 1.7979166666666666,
              "duration": 0.6645833333333333
            },
            {
              "pitch": 24,
              "velocity": 100,
              "position": 1.9979166666666666,
              "duration": 0.47708333333333336
            },
            {
              "pitch": 67,
              "velocity": 113,
              "position": 2.497916666666667,
              "duration": 0.23958333333333334
            },
            {
              "pitch": 71,
              "velocity": 112,
              "position": 2.497916666666667,
              "duration": 0.24166666666666667
            },
            {
              "pitch": 36,
              "velocity": 83,
              "position": 2.8,
              "duration": 0.18333333333333332
            },
            {
              "pitch": 71,
              "velocity": 127,
              "position": 2.99375,
              "duration": 0.24166666666666667
            },
            {
              "pitch": 76,
              "velocity": 127,
              "position": 3.0083333333333333,
              "duration": 0.22708333333333333
            },
            {
              "pitch": 67,
              "velocity": 127,
              "position": 3,
              "duration": 0.25625
            },
            {
              "pitch": 67,
              "velocity": 114,
              "position": 3.49375,
              "duration": 0.22916666666666666
            },
            {
              "pitch": 71,
              "velocity": 116,
              "position": 3.5083333333333333,
              "duration": 0.23125
            },
            {
              "pitch": 36,
              "velocity": 80,
              "position": 3.7979166666666666,
              "duration": 0.20208333333333334
            }
          ]
        }
      }
    },
    "Ending_A": {
      "type": "Ending_A",
      "sizeInBeats": 8,
      "channels": {
        "1": {
          "ctab": {
            "srcChannel": 1,
            "name": "Gt Maj",
            "accType": "CHORD1",
            "editable": false,
            "mutedNotes": [],
            "mutedChords": [
              "1+2+5",
              "sus4",
              "1+5",
              "1+8",
              "7aug",
              "Maj7aug",
              "7(#9)",
              "7(b13)",
              "7(b9)",
              "7(13)",
              "7#11",
              "7(9)",
              "7b5",
              "7sus4",
              "dim7",
              "dim",
              "minMaj7(9)",
              "minMaj7",
              "min7(11)",
              "min7(9)",
              "min(9)",
              "m7b5",
              "min7",
              "min6",
              "min",
              "aug",
              "Maj6(9)",
              "Maj7(9)",
              "Maj(9)",
              "Maj7#11",
              "Maj7",
              "Maj6"
            ],
            "autoStart": false,
            "sourceChordNote": 0,
            "sourceChordType": "7th",
            "ctb2Low": null,
            "ctb2Main": {
              "ntr": "ROOT_TRANSPOSITION",
              "ntt": "MELODIC_MINOR_5",
              "bassOn": false,
              "chordRootUpperLimit": 7,
              "noteLowLimit": 55,
              "noteHighLimit": 77,
              "rtr": "PITCH_SHIFT"
            },
            "ctb2High": null
          },
          "notes": [
            {
              "pitch": 106,
              "velocity": 78,
              "position": 0.010416666666666666,
              "duration": 0.2625
            },
            {
              "pitch": 79,
              "velocity": 42,
              "position": 0.010416666666666666,
              "duration": 4.98125
            },
            {
              "pitch": 82,
              "velocity": 42,
              "position": 0.03125,
              "duration": 4.960416666666666
            },
            {
              "pitch": 86,
              "velocity": 42,
              "position": 0.052083333333333336,
              "duration": 4.939583333333333
            }
          ]
        },
        "2": {
          "ctab": {
            "srcChannel": 2,
            "name": "Gt Min",
            "accType": "CHORD1",
            "editable": false,
            "mutedNotes": [],
            "mutedChords": [
              "1+2+5",
              "sus4",
              "1+5",
              "1+8",
              "7aug",
              "Maj7aug",
              "7(#9)",
              "7(b13)",
              "7(b9)",
              "7(13)",
              "7#11",
              "7(9)",
              "7b5",
              "7sus4",
              "7th",
              "dim7",
              "dim",
              "minMaj7(9)",
              "minMaj7",
              "min7(11)",
              "min7(9)",
              "min(9)",
              "m7b5",
              "min7",
              "min6",
              "aug",
              "Maj6(9)",
              "Maj7(9)",
              "Maj(9)",
              "Maj7#11",
              "Maj7",
              "Maj6",
              "Maj"
            ],
            "autoStart": false,
            "sourceChordNote": 0,
            "sourceChordType": "min7",
            "ctb2Low": null,
            "ctb2Main": {
              "ntr": "ROOT_TRANSPOSITION",
              "ntt": "MELODIC_MINOR_5",
              "bassOn": false,
              "chordRootUpperLimit": 7,
              "noteLowLimit": 55,
              "noteHighLimit": 77,
              "rtr": "PITCH_SHIFT"
            },
            "ctb2High": null
          },
          "notes": [
            {
              "pitch": 106,
              "velocity": 78,
              "position": 0.010416666666666666,
              "duration": 0.2625
            },
            {
              "pitch": 79,
              "velocity": 42,
              "position": 0.010416666666666666,
              "duration": 4.98125
            },
            {
              "pitch": 82,
              "velocity": 42,
              "position": 0.03125,
              "duration": 4.960416666666666
            },
            {
              "pitch": 86,
              "velocity": 42,
              "position": 0.052083333333333336,
              "duration": 4.939583333333333
            }
          ]
        },
        "3": {
          "ctab": {
            "srcChannel": 3,
            "name": "Gt",
            "accType": "CHORD1",
            "editable": false,
            "mutedNotes": [],
            "mutedChords": [
              "7th",
              "min",
              "Maj"
            ],
            "autoStart": false,
            "sourceChordNote": 0,
            "sourceChordType": "Maj7",
            "ctb2Low": null,
            "ctb2Main": {
              "ntr": "ROOT_FIXED",
              "ntt": "CHORD",
              "bassOn": false,
              "chordRootUpperLimit": 7,
              "noteLowLimit": 55,
              "noteHighLimit": 77,
              "rtr": "PITCH_SHIFT"
            },
            "ctb2High": null
          },
          "notes": [
            {
              "pitch": 106,
              "velocity": 78,
              "position": 0.010416666666666666,
              "duration": 0.2625
            },
            {
              "pitch": 79,
              "velocity": 42,
              "position": 0.010416666666666666,
              "duration": 4.98125
            },
            {
              "pitch": 83,
              "velocity": 42,
              "position": 0.03125,
              "duration": 4.960416666666666
            },
            {
              "pitch": 88,
              "velocity": 42,
              "position": 0.052083333333333336,
              "duration": 4.939583333333333
            }
          ]
        },
        "4": {
          "ctab": {
            "srcChannel": 4,
            "name": "Brs a",
            "accType": "PHRASE1",
            "editable": false,
            "mutedNotes": [],
            "mutedChords": [
              "dim7",
              "minMaj7(9)",
              "minMaj7",
              "min6",
              "Maj6(9)",
              "Maj7(9)",
              "Maj(9)",
              "Maj7#11",
              "Maj7",
              "Maj6"
            ],
            "autoStart": false,
            "sourceChordNote": 0,
            "sourceChordType": "7th",
            "ctb2Low": null,
            "ctb2Main": {
              "ntr": "ROOT_TRANSPOSITION",
              "ntt": "MELODIC_MINOR_5",
              "bassOn": false,
              "chordRootUpperLimit": 5,
              "noteLowLimit": 34,
              "noteHighLimit": 127,
              "rtr": "PITCH_SHIFT"
            },
            "ctb2High": null
          },
          "notes": [
            {
              "pitch": 72,
              "velocity": 85,
              "position": 0,
              "duration": 4.633333333333334
            },
            {
              "pitch": 60,
              "velocity": 85,
              "position": 0.029166666666666667,
              "duration": 4.658333333333333
            },
            {
              "pitch": 36,
              "velocity": 85,
              "position": 0.027083333333333334,
              "duration": 4.710416666666666
            },
            {
              "pitch": 84,
              "velocity": 90,
              "position": 0.027083333333333334,
              "duration": 4.710416666666666
            },
            {
              "pitch": 60,
              "velocity": 82,
              "position": 4.6875,
              "duration": 0.08333333333333333
            },
            {
              "pitch": 76,
              "velocity": 85,
              "position": 0.016666666666666666,
              "duration": 4.825
            }
          ]
        },
        "5": {
          "ctab": {
            "srcChannel": 5,
            "name": "Brs b",
            "accType": "PHRASE1",
            "editable": false,
            "mutedNotes": [],
            "mutedChords": [
              "1+2+5",
              "sus4",
              "1+5",
              "1+8",
              "7aug",
              "Maj7aug",
              "7(#9)",
              "7(b13)",
              "7(b9)",
              "7(13)",
              "7#11",
              "7(9)",
              "7b5",
              "7sus4",
              "7th",
              "dim",
              "min7(11)",
              "min7(9)",
              "min(9)",
              "m7b5",
              "min7",
              "min",
              "aug",
              "Maj"
            ],
            "autoStart": false,
            "sourceChordNote": 0,
            "sourceChordType": "Maj7",
            "ctb2Low": null,
            "ctb2Main": {
              "ntr": "ROOT_TRANSPOSITION",
              "ntt": "MELODIC_MINOR_5",
              "bassOn": false,
              "chordRootUpperLimit": 5,
              "noteLowLimit": 34,
              "noteHighLimit": 127,
              "rtr": "PITCH_SHIFT"
            },
            "ctb2High": null
          },
          "notes": [
            {
              "pitch": 72,
              "velocity": 85,
              "position": 0,
              "duration": 4.633333333333334
            },
            {
              "pitch": 60,
              "velocity": 85,
              "position": 0.029166666666666667,
              "duration": 4.658333333333333
            },
            {
              "pitch": 36,
              "velocity": 85,
              "position": 0.027083333333333334,
              "duration": 4.710416666666666
            },
            {
              "pitch": 84,
              "velocity": 90,
              "position": 0.027083333333333334,
              "duration": 4.710416666666666
            },
            {
              "pitch": 76,
              "velocity": 85,
              "position": 0.016666666666666666,
              "duration": 4.825
            }
          ]
        },
        "6": {
          "ctab": {
            "srcChannel": 6,
            "name": "Hns a",
            "accType": "PHRASE2",
            "editable": false,
            "mutedNotes": [],
            "mutedChords": [
              "dim7",
              "minMaj7(9)",
              "minMaj7",
              "min6",
              "Maj6(9)",
              "Maj7(9)",
              "Maj(9)",
              "Maj7#11",
              "Maj7",
              "Maj6"
            ],
            "autoStart": false,
            "sourceChordNote": 0,
            "sourceChordType": "7th",
            "ctb2Low": null,
            "ctb2Main": {
              "ntr": "ROOT_TRANSPOSITION",
              "ntt": "MELODIC_MINOR_5",
              "bassOn": false,
              "chordRootUpperLimit": 0,
              "noteLowLimit": 34,
              "noteHighLimit": 127,
              "rtr": "PITCH_SHIFT"
            },
            "ctb2High": null
          },
          "notes": [
            {
              "pitch": 70,
              "velocity": 109,
              "position": 0.010416666666666666,
              "duration": 4.595833333333333
            },
            {
              "pitch": 60,
              "velocity": 102,
              "position": 0.03958333333333333,
              "duration": 4.647916666666666
            },
            {
              "pitch": 69,
              "velocity": 56,
              "position": 4.583333333333333,
              "duration": 0.10833333333333334
            },
            {
              "pitch": 36,
              "velocity": 127,
              "position": 0.0375,
              "duration": 4.727083333333334
            },
            {
              "pitch": 84,
              "velocity": 127,
              "position": 0.0375,
              "duration": 4.727083333333334
            },
            {
              "pitch": 67,
              "velocity": 51,
              "position": 4.666666666666667,
              "duration": 0.10833333333333334
            },
            {
              "pitch": 60,
              "velocity": 56,
              "position": 4.6875,
              "duration": 0.08958333333333333
            },
            {
              "pitch": 82,
              "velocity": 56,
              "position": 4.6875,
              "duration": 0.08958333333333333
            },
            {
              "pitch": 58,
              "velocity": 51,
              "position": 4.75,
              "duration": 0.08958333333333333
            },
            {
              "pitch": 76,
              "velocity": 106,
              "position": 0.027083333333333334,
              "duration": 4.8125
            },
            {
              "pitch": 81,
              "velocity": 51,
              "position": 4.75,
              "duration": 0.08958333333333333
            },
            {
              "pitch": 74,
              "velocity": 56,
              "position": 4.791666666666667,
              "duration": 0.058333333333333334
            },
            {
              "pitch": 65,
              "velocity": 45,
              "position": 4.75,
              "duration": 0.10833333333333334
            },
            {
              "pitch": 72,
              "velocity": 51,
              "position": 4.833333333333333,
              "duration": 0.058333333333333334
            },
            {
              "pitch": 57,
              "velocity": 45,
              "position": 4.8125,
              "duration": 0.08958333333333333
            },
            {
              "pitch": 79,
              "velocity": 45,
              "position": 4.8125,
              "duration": 0.08958333333333333
            },
            {
              "pitch": 70,
              "velocity": 45,
              "position": 4.875,
              "duration": 0.058333333333333334
            },
            {
              "pitch": 64,
              "velocity": 40,
              "position": 4.833333333333333,
              "duration": 0.10833333333333334
            },
            {
              "pitch": 55,
              "velocity": 40,
              "position": 4.875,
              "duration": 0.08958333333333333
            },
            {
              "pitch": 77,
              "velocity": 40,
              "position": 4.875,
              "duration": 0.08958333333333333
            },
            {
              "pitch": 69,
              "velocity": 40,
              "position": 4.916666666666667,
              "duration": 0.058333333333333334
            },
            {
              "pitch": 67,
              "velocity": 35,
              "position": 4.958333333333333,
              "duration": 0.058333333333333334
            },
            {
              "pitch": 62,
              "velocity": 35,
              "position": 4.916666666666667,
              "duration": 0.10833333333333334
            },
            {
              "pitch": 53,
              "velocity": 35,
              "position": 4.9375,
              "duration": 0.08958333333333333
            },
            {
              "pitch": 76,
              "velocity": 35,
              "position": 4.9375,
              "duration": 0.08958333333333333
            },
            {
              "pitch": 65,
              "velocity": 30,
              "position": 5,
              "duration": 0.058333333333333334
            },
            {
              "pitch": 52,
              "velocity": 30,
              "position": 5,
              "duration": 0.08958333333333333
            },
            {
              "pitch": 74,
              "velocity": 30,
              "position": 5,
              "duration": 0.08958333333333333
            },
            {
              "pitch": 60,
              "velocity": 30,
              "position": 5,
              "duration": 0.10833333333333334
            }
          ]
        },
        "7": {
          "ctab": {
            "srcChannel": 7,
            "name": "Hns b",
            "accType": "PHRASE2",
            "editable": false,
            "mutedNotes": [],
            "mutedChords": [
              "1+2+5",
              "sus4",
              "1+5",
              "1+8",
              "7aug",
              "Maj7aug",
              "7(#9)",
              "7(b13)",
              "7(b9)",
              "7(13)",
              "7#11",
              "7(9)",
              "7b5",
              "7sus4",
              "7th",
              "dim",
              "min7(11)",
              "min7(9)",
              "min(9)",
              "m7b5",
              "min7",
              "min",
              "aug",
              "Maj"
            ],
            "autoStart": false,
            "sourceChordNote": 0,
            "sourceChordType": "Maj7",
            "ctb2Low": null,
            "ctb2Main": {
              "ntr": "ROOT_TRANSPOSITION",
              "ntt": "MELODIC_MINOR_5",
              "bassOn": false,
              "chordRootUpperLimit": 0,
              "noteLowLimit": 34,
              "noteHighLimit": 127,
              "rtr": "PITCH_SHIFT"
            },
            "ctb2High": null
          },
          "notes": [
            {
              "pitch": 72,
              "velocity": 109,
              "position": 0.010416666666666666,
              "duration": 4.595833333333333
            },
            {
              "pitch": 60,
              "velocity": 102,
              "position": 0.03958333333333333,
              "duration": 4.647916666666666
            },
            {
              "pitch": 69,
              "velocity": 56,
              "position": 4.583333333333333,
              "duration": 0.10833333333333334
            },
            {
              "pitch": 36,
              "velocity": 127,
              "position": 0.0375,
              "duration": 4.727083333333334
            },
            {
              "pitch": 84,
              "velocity": 127,
              "position": 0.0375,
              "duration": 4.727083333333334
            },
            {
              "pitch": 67,
              "velocity": 51,
              "position": 4.666666666666667,
              "duration": 0.10833333333333334
            },
            {
              "pitch": 60,
              "velocity": 56,
              "position": 4.6875,
              "duration": 0.08958333333333333
            },
            {
              "pitch": 83,
              "velocity": 56,
              "position": 4.6875,
              "duration": 0.08958333333333333
            },
            {
              "pitch": 59,
              "velocity": 51,
              "position": 4.75,
              "duration": 0.08958333333333333
            },
            {
              "pitch": 76,
              "velocity": 106,
              "position": 0.027083333333333334,
              "duration": 4.8125
            },
            {
              "pitch": 81,
              "velocity": 51,
              "position": 4.75,
              "duration": 0.08958333333333333
            },
            {
              "pitch": 74,
              "velocity": 56,
              "position": 4.791666666666667,
              "duration": 0.058333333333333334
            },
            {
              "pitch": 65,
              "velocity": 45,
              "position": 4.75,
              "duration": 0.10833333333333334
            },
            {
              "pitch": 72,
              "velocity": 51,
              "position": 4.833333333333333,
              "duration": 0.058333333333333334
            },
            {
              "pitch": 57,
              "velocity": 45,
              "position": 4.8125,
              "duration": 0.08958333333333333
            },
            {
              "pitch": 79,
              "velocity": 45,
              "position": 4.8125,
              "duration": 0.08958333333333333
            },
            {
              "pitch": 71,
              "velocity": 45,
              "position": 4.875,
              "duration": 0.058333333333333334
            },
            {
              "pitch": 64,
              "velocity": 40,
              "position": 4.833333333333333,
              "duration": 0.10833333333333334
            },
            {
              "pitch": 55,
              "velocity": 40,
              "position": 4.875,
              "duration": 0.08958333333333333
            },
            {
              "pitch": 77,
              "velocity": 40,
              "position": 4.875,
              "duration": 0.08958333333333333
            },
            {
              "pitch": 69,
              "velocity": 40,
              "position": 4.916666666666667,
              "duration": 0.058333333333333334
            },
            {
              "pitch": 67,
              "velocity": 35,
              "position": 4.958333333333333,
              "duration": 0.058333333333333334
            },
            {
              "pitch": 62,
              "velocity": 35,
              "position": 4.916666666666667,
              "duration": 0.10833333333333334
            },
            {
              "pitch": 53,
              "velocity": 35,
              "position": 4.9375,
              "duration": 0.08958333333333333
            },
            {
              "pitch": 76,
              "velocity": 35,
              "position": 4.9375,
              "duration": 0.08958333333333333
            },
            {
              "pitch": 65,
              "velocity": 30,
              "position": 5,
              "duration": 0.058333333333333334
            },
            {
              "pitch": 52,
              "velocity": 30,
              "position": 5,
              "duration": 0.08958333333333333
            },
            {
              "pitch": 74,
              "velocity": 30,
              "position": 5,
              "duration": 0.08958333333333333
            },
            {
              "pitch": 60,
              "velocity": 30,
              "position": 5,
              "duration": 0.10833333333333334
            }
          ]
        },
        "8": {
          "ctab": {
            "srcChannel": 8,
            "name": "Perc.",
            "accType": "SUBRHYTHM",
            "editable": false,
            "mutedNotes": [],
            "mutedChords": [],
            "autoStart": true,
            "sourceChordNote": 0,
            "sourceChordType": "Maj7",
            "ctb2Low": null,
            "ctb2Main": {
              "ntr": "ROOT_FIXED",
              "ntt": "BYPASS",
              "bassOn": false,
              "chordRootUpperLimit": 6,
              "noteLowLimit": 0,
              "noteHighLimit": 127,
              "rtr": "PITCH_SHIFT"
            },
            "ctb2High": null
          },
          "notes": []
        },
        "9": {
          "ctab": {
            "srcChannel": 9,
            "name": "Drums",
            "accType": "RHYTHM",
            "editable": false,
            "mutedNotes": [],
            "mutedChords": [],
            "autoStart": true,
            "sourceChordNote": 0,
            "sourceChordType": "Maj7",
            "ctb2Low": null,
            "ctb2Main": {
              "ntr": "ROOT_FIXED",
              "ntt": "BYPASS",
              "bassOn": false,
              "chordRootUpperLimit": 6,
              "noteLowLimit": 0,
              "noteHighLimit": 127,
              "rtr": "PITCH_SHIFT"
            },
            "ctb2High": null
          },
          "notes": [
            {
              "pitch": 35,
              "velocity": 100,
              "position": 0,
              "duration": 0.010416666666666666
            },
            {
              "pitch": 52,
              "velocity": 70,
              "position": 0,
              "duration": 0.010416666666666666
            },
            {
              "pitch": 57,
              "velocity": 5,
              "position": 0.9979166666666667,
              "duration": 0.010416666666666666
            },
            {
              "pitch": 49,
              "velocity": 16,
              "position": 1.1270833333333334,
              "duration": 0.010416666666666666
            },
            {
              "pitch": 57,
              "velocity": 8,
              "position": 1.25,
              "duration": 0.010416666666666666
            },
            {
              "pitch": 49,
              "velocity": 21,
              "position": 1.3729166666666666,
              "duration": 0.010416666666666666
            },
            {
              "pitch": 57,
              "velocity": 15,
              "position": 1.5,
              "duration": 0.010416666666666666
            },
            {
              "pitch": 49,
              "velocity": 26,
              "position": 1.625,
              "duration": 0.010416666666666666
            },
            {
              "pitch": 57,
              "velocity": 16,
              "position": 1.7458333333333333,
              "duration": 0.010416666666666666
            },
            {
              "pitch": 49,
              "velocity": 28,
              "position": 1.8770833333333334,
              "duration": 0.010416666666666666
            },
            {
              "pitch": 57,
              "velocity": 21,
              "position": 1.9979166666666666,
              "duration": 0.010416666666666666
            },
            {
              "pitch": 49,
              "velocity": 34,
              "position": 2.122916666666667,
              "duration": 0.010416666666666666
            },
            {
              "pitch": 57,
              "velocity": 27,
              "position": 2.247916666666667,
              "duration": 0.010416666666666666
            },
            {
              "pitch": 49,
              "velocity": 40,
              "position": 2.372916666666667,
              "duration": 0.010416666666666666
            },
            {
              "pitch": 57,
              "velocity": 29,
              "position": 2.5,
              "duration": 0.010416666666666666
            },
            {
              "pitch": 49,
              "velocity": 43,
              "position": 2.622916666666667,
              "duration": 0.010416666666666666
            },
            {
              "pitch": 57,
              "velocity": 35,
              "position": 2.752083333333333,
              "duration": 0.010416666666666666
            },
            {
              "pitch": 49,
              "velocity": 52,
              "position": 2.872916666666667,
              "duration": 0.010416666666666666
            },
            {
              "pitch": 57,
              "velocity": 47,
              "position": 2.995833333333333,
              "duration": 0.010416666666666666
            },
            {
              "pitch": 49,
              "velocity": 67,
              "position": 3.125,
              "duration": 0.010416666666666666
            },
            {
              "pitch": 57,
              "velocity": 66,
              "position": 3.252083333333333,
              "duration": 0.010416666666666666
            },
            {
              "pitch": 57,
              "velocity": 5,
              "position": 3.747916666666667,
              "duration": 0.010416666666666666
            },
            {
              "pitch": 49,
              "velocity": 26,
              "position": 3.875,
              "duration": 0.010416666666666666
            },
            {
              "pitch": 57,
              "velocity": 23,
              "position": 3.997916666666667,
              "duration": 0.010416666666666666
            },
            {
              "pitch": 49,
              "velocity": 47,
              "position": 4.122916666666667,
              "duration": 0.010416666666666666
            },
            {
              "pitch": 57,
              "velocity": 43,
              "position": 4.252083333333333,
              "duration": 0.010416666666666666
            },
            {
              "pitch": 49,
              "velocity": 65,
              "position": 4.377083333333333,
              "duration": 0.010416666666666666
            },
            {
              "pitch": 57,
              "velocity": 67,
              "position": 4.497916666666667,
              "duration": 0.010416666666666666
            },
            {
              "pitch": 35,
              "velocity": 100,
              "position": 4.5,
              "duration": 0.010416666666666666
            }
          ]
        },
        "10": {
          "ctab": {
            "srcChannel": 10,
            "name": "Bass FX",
            "accType": "BASS",
            "editable": false,
            "mutedNotes": [],
            "mutedChords": [],
            "autoStart": false,
            "sourceChordNote": 0,
            "sourceChordType": "7th",
            "ctb2Low": null,
            "ctb2Main": {
              "ntr": "ROOT_FIXED",
              "ntt": "BYPASS",
              "bassOn": false,
              "chordRootUpperLimit": 7,
              "noteLowLimit": 0,
              "noteHighLimit": 127,
              "rtr": "PITCH_SHIFT"
            },
            "ctb2High": null
          },
          "notes": [
            {
              "pitch": 97,
              "velocity": 100,
              "position": 4.25,
              "duration": 1.9895833333333333
            }
          ]
        },
        "11": {
          "ctab": {
            "srcChannel": 11,
            "name": "Bass a",
            "accType": "BASS",
            "editable": false,
            "mutedNotes": [],
            "mutedChords": [
              "1+2+5",
              "sus4",
              "1+5",
              "1+8",
              "7aug",
              "Maj7aug",
              "7(#9)",
              "7(b13)",
              "7(b9)",
              "7(13)",
              "7#11",
              "7(9)",
              "7b5",
              "7sus4",
              "dim7",
              "dim",
              "minMaj7(9)",
              "minMaj7",
              "min7(11)",
              "min7(9)",
              "min(9)",
              "m7b5",
              "min7",
              "min6",
              "aug",
              "Maj6(9)",
              "Maj7(9)",
              "Maj(9)",
              "Maj7#11",
              "Maj7",
              "Maj6"
            ],
            "autoStart": false,
            "sourceChordNote": 0,
            "sourceChordType": "7th",
            "ctb2Low": null,
            "ctb2Main": {
              "ntr": "ROOT_TRANSPOSITION",
              "ntt": "MELODIC_MINOR_5",
              "bassOn": true,
              "chordRootUpperLimit": 8,
              "noteLowLimit": 28,
              "noteHighLimit": 127,
              "rtr": "PITCH_SHIFT_TO_ROOT"
            },
            "ctb2High": null
          },
          "notes": [
            {
              "pitch": 36,
              "velocity": 70,
              "position": 0,
              "duration": 4.241666666666666
            }
          ]
        },
        "12": {
          "ctab": {
            "srcChannel": 12,
            "name": "Bass b",
            "accType": "BASS",
            "editable": false,
            "mutedNotes": [],
            "mutedChords": [
              "7th",
              "min",
              "Maj"
            ],
            "autoStart": false,
            "sourceChordNote": 0,
            "sourceChordType": "Maj7",
            "ctb2Low": null,
            "ctb2Main": {
              "ntr": "ROOT_TRANSPOSITION",
              "ntt": "MELODY",
              "bassOn": true,
              "chordRootUpperLimit": 8,
              "noteLowLimit": 28,
              "noteHighLimit": 127,
              "rtr": "PITCH_SHIFT_TO_ROOT"
            },
            "ctb2High": null
          },
          "notes": [
            {
              "pitch": 24,
              "velocity": 70,
              "position": 0,
              "duration": 4.241666666666666
            }
          ]
        },
        "13": {
          "ctab": {
            "srcChannel": 13,
            "name": "EP Maj",
            "accType": "CHORD2",
            "editable": false,
            "mutedNotes": [],
            "mutedChords": [
              "1+2+5",
              "sus4",
              "1+5",
              "1+8",
              "7aug",
              "Maj7aug",
              "7(#9)",
              "7(b13)",
              "7(b9)",
              "7(13)",
              "7#11",
              "7(9)",
              "7b5",
              "7sus4",
              "dim7",
              "dim",
              "minMaj7(9)",
              "minMaj7",
              "min7(11)",
              "min7(9)",
              "min(9)",
              "m7b5",
              "min7",
              "min6",
              "min",
              "aug",
              "Maj6(9)",
              "Maj7(9)",
              "Maj(9)",
              "Maj7#11",
              "Maj7",
              "Maj6"
            ],
            "autoStart": false,
            "sourceChordNote": 0,
            "sourceChordType": "7th",
            "ctb2Low": null,
            "ctb2Main": {
              "ntr": "ROOT_TRANSPOSITION",
              "ntt": "MELODIC_MINOR_5",
              "bassOn": false,
              "chordRootUpperLimit": 8,
              "noteLowLimit": 40,
              "noteHighLimit": 66,
              "rtr": "PITCH_SHIFT"
            },
            "ctb2High": null
          },
          "notes": [
            {
              "pitch": 74,
              "velocity": 122,
              "position": 0.010416666666666666,
              "duration": 4.479166666666667
            },
            {
              "pitch": 67,
              "velocity": 122,
              "position": 0.010416666666666666,
              "duration": 4.483333333333333
            },
            {
              "pitch": 76,
              "velocity": 97,
              "position": 0.010416666666666666,
              "duration": 4.483333333333333
            },
            {
              "pitch": 70,
              "velocity": 118,
              "position": 0.010416666666666666,
              "duration": 4.491666666666666
            },
            {
              "pitch": 31,
              "velocity": 26,
              "position": 0.020833333333333332,
              "duration": 4.604166666666667
            },
            {
              "pitch": 24,
              "velocity": 122,
              "position": 0.029166666666666667,
              "duration": 4.604166666666667
            }
          ]
        },
        "14": {
          "ctab": {
            "srcChannel": 14,
            "name": "EP Min",
            "accType": "CHORD2",
            "editable": false,
            "mutedNotes": [],
            "mutedChords": [
              "1+2+5",
              "sus4",
              "1+5",
              "1+8",
              "7aug",
              "Maj7aug",
              "7(#9)",
              "7(b13)",
              "7(b9)",
              "7(13)",
              "7#11",
              "7(9)",
              "7b5",
              "7sus4",
              "7th",
              "dim7",
              "dim",
              "minMaj7(9)",
              "minMaj7",
              "min7(11)",
              "min7(9)",
              "min(9)",
              "m7b5",
              "min7",
              "min6",
              "aug",
              "Maj6(9)",
              "Maj7(9)",
              "Maj(9)",
              "Maj7#11",
              "Maj7",
              "Maj6",
              "Maj"
            ],
            "autoStart": false,
            "sourceChordNote": 0,
            "sourceChordType": "min7",
            "ctb2Low": null,
            "ctb2Main": {
              "ntr": "ROOT_TRANSPOSITION",
              "ntt": "MELODIC_MINOR_5",
              "bassOn": false,
              "chordRootUpperLimit": 8,
              "noteLowLimit": 40,
              "noteHighLimit": 66,
              "rtr": "PITCH_SHIFT"
            },
            "ctb2High": null
          },
          "notes": [
            {
              "pitch": 74,
              "velocity": 127,
              "position": 0.010416666666666666,
              "duration": 4.479166666666667
            },
            {
              "pitch": 67,
              "velocity": 127,
              "position": 0.010416666666666666,
              "duration": 4.483333333333333
            },
            {
              "pitch": 75,
              "velocity": 101,
              "position": 0.010416666666666666,
              "duration": 4.483333333333333
            },
            {
              "pitch": 70,
              "velocity": 123,
              "position": 0.010416666666666666,
              "duration": 4.491666666666666
            },
            {
              "pitch": 31,
              "velocity": 28,
              "position": 0.020833333333333332,
              "duration": 4.604166666666667
            },
            {
              "pitch": 24,
              "velocity": 127,
              "position": 0.029166666666666667,
              "duration": 4.604166666666667
            }
          ]
        },
        "15": {
          "ctab": {
            "srcChannel": 15,
            "name": "EP",
            "accType": "CHORD2",
            "editable": false,
            "mutedNotes": [],
            "mutedChords": [
              "7th",
              "min",
              "Maj"
            ],
            "autoStart": false,
            "sourceChordNote": 0,
            "sourceChordType": "Maj7",
            "ctb2Low": null,
            "ctb2Main": {
              "ntr": "ROOT_TRANSPOSITION",
              "ntt": "CHORD",
              "bassOn": false,
              "chordRootUpperLimit": 8,
              "noteLowLimit": 40,
              "noteHighLimit": 66,
              "rtr": "PITCH_SHIFT"
            },
            "ctb2High": null
          },
          "notes": [
            {
              "pitch": 76,
              "velocity": 127,
              "position": 0.010416666666666666,
              "duration": 4.479166666666667
            },
            {
              "pitch": 67,
              "velocity": 127,
              "position": 0.010416666666666666,
              "duration": 4.483333333333333
            },
            {
              "pitch": 71,
              "velocity": 123,
              "position": 0.010416666666666666,
              "duration": 4.491666666666666
            },
            {
              "pitch": 24,
              "velocity": 127,
              "position": 0.029166666666666667,
              "duration": 4.604166666666667
            }
          ]
        }
      }
    },
    "Fill_In_BA": {
      "type": "Fill_In_BA",
      "sizeInBeats": 4,
      "channels": {
        "1": {
          "ctab": {
            "srcChannel": 1,
            "name": "Gt Maj",
            "accType": "CHORD1",
            "editable": false,
            "mutedNotes": [],
            "mutedChords": [
              "1+2+5",
              "sus4",
              "1+5",
              "1+8",
              "7aug",
              "Maj7aug",
              "7(#9)",
              "7(b13)",
              "7(b9)",
              "7(13)",
              "7#11",
              "7(9)",
              "7b5",
              "7sus4",
              "dim7",
              "dim",
              "minMaj7(9)",
              "minMaj7",
              "min7(11)",
              "min7(9)",
              "min(9)",
              "m7b5",
              "min7",
              "min6",
              "min",
              "aug",
              "Maj6(9)",
              "Maj7(9)",
              "Maj(9)",
              "Maj7#11",
              "Maj7",
              "Maj6"
            ],
            "autoStart": false,
            "sourceChordNote": 0,
            "sourceChordType": "7th",
            "ctb2Low": null,
            "ctb2Main": {
              "ntr": "ROOT_TRANSPOSITION",
              "ntt": "MELODIC_MINOR_5",
              "bassOn": false,
              "chordRootUpperLimit": 7,
              "noteLowLimit": 55,
              "noteHighLimit": 77,
              "rtr": "PITCH_SHIFT"
            },
            "ctb2High": null
          },
          "notes": [
            {
              "pitch": 82,
              "velocity": 42,
              "position": 0.020833333333333332,
              "duration": 0.24166666666666667
            },
            {
              "pitch": 106,
              "velocity": 78,
              "position": 0,
              "duration": 0.2625
            },
            {
              "pitch": 79,
              "velocity": 42,
              "position": 0,
              "duration": 0.2833333333333333
            },
            {
              "pitch": 86,
              "velocity": 42,
              "position": 0.041666666666666664,
              "duration": 0.45
            },
            {
              "pitch": 105,
              "velocity": 78,
              "position": 0.2708333333333333,
              "duration": 0.22083333333333333
            },
            {
              "pitch": 82,
              "velocity": 26,
              "position": 0.2708333333333333,
              "duration": 0.49166666666666664
            },
            {
              "pitch": 107,
              "velocity": 78,
              "position": 0.5,
              "duration": 0.2625
            },
            {
              "pitch": 79,
              "velocity": 26,
              "position": 0.2916666666666667,
              "duration": 0.49166666666666664
            },
            {
              "pitch": 79,
              "velocity": 26,
              "position": 0.7916666666666666,
              "duration": 0.2
            },
            {
              "pitch": 108,
              "velocity": 78,
              "position": 0.7708333333333334,
              "duration": 0.22083333333333333
            },
            {
              "pitch": 82,
              "velocity": 26,
              "position": 0.7708333333333334,
              "duration": 0.24166666666666667
            },
            {
              "pitch": 86,
              "velocity": 34,
              "position": 0.5,
              "duration": 0.5333333333333333
            },
            {
              "pitch": 79,
              "velocity": 42,
              "position": 1,
              "duration": 0.23333333333333334
            },
            {
              "pitch": 82,
              "velocity": 42,
              "position": 1.0208333333333333,
              "duration": 0.23333333333333334
            },
            {
              "pitch": 86,
              "velocity": 42,
              "position": 1.0416666666666667,
              "duration": 0.23333333333333334
            },
            {
              "pitch": 104,
              "velocity": 78,
              "position": 1,
              "duration": 0.49166666666666664
            },
            {
              "pitch": 104,
              "velocity": 78,
              "position": 3.5,
              "duration": 0.2625
            },
            {
              "pitch": 103,
              "velocity": 78,
              "position": 3.7708333333333335,
              "duration": 0.22083333333333333
            }
          ]
        },
        "2": {
          "ctab": {
            "srcChannel": 2,
            "name": "Gt Min",
            "accType": "CHORD1",
            "editable": false,
            "mutedNotes": [],
            "mutedChords": [
              "1+2+5",
              "sus4",
              "1+5",
              "1+8",
              "7aug",
              "Maj7aug",
              "7(#9)",
              "7(b13)",
              "7(b9)",
              "7(13)",
              "7#11",
              "7(9)",
              "7b5",
              "7sus4",
              "7th",
              "dim7",
              "dim",
              "minMaj7(9)",
              "minMaj7",
              "min7(11)",
              "min7(9)",
              "min(9)",
              "m7b5",
              "min7",
              "min6",
              "aug",
              "Maj6(9)",
              "Maj7(9)",
              "Maj(9)",
              "Maj7#11",
              "Maj7",
              "Maj6",
              "Maj"
            ],
            "autoStart": false,
            "sourceChordNote": 0,
            "sourceChordType": "min7",
            "ctb2Low": null,
            "ctb2Main": {
              "ntr": "ROOT_TRANSPOSITION",
              "ntt": "MELODIC_MINOR_5",
              "bassOn": false,
              "chordRootUpperLimit": 7,
              "noteLowLimit": 55,
              "noteHighLimit": 77,
              "rtr": "PITCH_SHIFT"
            },
            "ctb2High": null
          },
          "notes": [
            {
              "pitch": 82,
              "velocity": 42,
              "position": 0.020833333333333332,
              "duration": 0.24166666666666667
            },
            {
              "pitch": 106,
              "velocity": 78,
              "position": 0,
              "duration": 0.2625
            },
            {
              "pitch": 79,
              "velocity": 42,
              "position": 0,
              "duration": 0.2833333333333333
            },
            {
              "pitch": 86,
              "velocity": 42,
              "position": 0.041666666666666664,
              "duration": 0.45
            },
            {
              "pitch": 105,
              "velocity": 78,
              "position": 0.2708333333333333,
              "duration": 0.22083333333333333
            },
            {
              "pitch": 82,
              "velocity": 26,
              "position": 0.2708333333333333,
              "duration": 0.49166666666666664
            },
            {
              "pitch": 107,
              "velocity": 78,
              "position": 0.5,
              "duration": 0.2625
            },
            {
              "pitch": 79,
              "velocity": 26,
              "position": 0.2916666666666667,
              "duration": 0.49166666666666664
            },
            {
              "pitch": 79,
              "velocity": 26,
              "position": 0.7916666666666666,
              "duration": 0.2
            },
            {
              "pitch": 108,
              "velocity": 78,
              "position": 0.7708333333333334,
              "duration": 0.22083333333333333
            },
            {
              "pitch": 82,
              "velocity": 26,
              "position": 0.7708333333333334,
              "duration": 0.24166666666666667
            },
            {
              "pitch": 86,
              "velocity": 34,
              "position": 0.5,
              "duration": 0.5333333333333333
            },
            {
              "pitch": 79,
              "velocity": 42,
              "position": 1,
              "duration": 0.23333333333333334
            },
            {
              "pitch": 82,
              "velocity": 42,
              "position": 1.0208333333333333,
              "duration": 0.23333333333333334
            },
            {
              "pitch": 86,
              "velocity": 42,
              "position": 1.0416666666666667,
              "duration": 0.23333333333333334
            },
            {
              "pitch": 104,
              "velocity": 78,
              "position": 1,
              "duration": 0.49166666666666664
            },
            {
              "pitch": 104,
              "velocity": 78,
              "position": 3.5,
              "duration": 0.2625
            },
            {
              "pitch": 103,
              "velocity": 78,
              "position": 3.7708333333333335,
              "duration": 0.22083333333333333
            }
          ]
        },
        "3": {
          "ctab": {
            "srcChannel": 3,
            "name": "Gt",
            "accType": "CHORD1",
            "editable": false,
            "mutedNotes": [],
            "mutedChords": [
              "7th",
              "min",
              "Maj"
            ],
            "autoStart": false,
            "sourceChordNote": 0,
            "sourceChordType": "Maj7",
            "ctb2Low": null,
            "ctb2Main": {
              "ntr": "ROOT_FIXED",
              "ntt": "CHORD",
              "bassOn": false,
              "chordRootUpperLimit": 7,
              "noteLowLimit": 55,
              "noteHighLimit": 77,
              "rtr": "PITCH_SHIFT"
            },
            "ctb2High": null
          },
          "notes": [
            {
              "pitch": 83,
              "velocity": 42,
              "position": 0.020833333333333332,
              "duration": 0.24166666666666667
            },
            {
              "pitch": 106,
              "velocity": 78,
              "position": 0,
              "duration": 0.2625
            },
            {
              "pitch": 79,
              "velocity": 42,
              "position": 0,
              "duration": 0.2833333333333333
            },
            {
              "pitch": 88,
              "velocity": 42,
              "position": 0.041666666666666664,
              "duration": 0.45
            },
            {
              "pitch": 105,
              "velocity": 78,
              "position": 0.2708333333333333,
              "duration": 0.22083333333333333
            },
            {
              "pitch": 83,
              "velocity": 26,
              "position": 0.2708333333333333,
              "duration": 0.49166666666666664
            },
            {
              "pitch": 107,
              "velocity": 78,
              "position": 0.5,
              "duration": 0.2625
            },
            {
              "pitch": 79,
              "velocity": 26,
              "position": 0.2916666666666667,
              "duration": 0.49166666666666664
            },
            {
              "pitch": 79,
              "velocity": 26,
              "position": 0.7916666666666666,
              "duration": 0.2
            },
            {
              "pitch": 108,
              "velocity": 78,
              "position": 0.7708333333333334,
              "duration": 0.22083333333333333
            },
            {
              "pitch": 83,
              "velocity": 26,
              "position": 0.7708333333333334,
              "duration": 0.24166666666666667
            },
            {
              "pitch": 88,
              "velocity": 34,
              "position": 0.5,
              "duration": 0.5333333333333333
            },
            {
              "pitch": 79,
              "velocity": 42,
              "position": 1,
              "duration": 0.23333333333333334
            },
            {
              "pitch": 83,
              "velocity": 42,
              "position": 1.0208333333333333,
              "duration": 0.23333333333333334
            },
            {
              "pitch": 88,
              "velocity": 42,
              "position": 1.0416666666666667,
              "duration": 0.23333333333333334
            },
            {
              "pitch": 104,
              "velocity": 78,
              "position": 1,
              "duration": 0.49166666666666664
            },
            {
              "pitch": 104,
              "velocity": 78,
              "position": 3.5,
              "duration": 0.2625
            },
            {
              "pitch": 103,
              "velocity": 78,
              "position": 3.7708333333333335,
              "duration": 0.22083333333333333
            }
          ]
        },
        "4": {
          "ctab": {
            "srcChannel": 4,
            "name": "Brs a",
            "accType": "PHRASE1",
            "editable": false,
            "mutedNotes": [],
            "mutedChords": [
              "dim7",
              "minMaj7(9)",
              "minMaj7",
              "min6",
              "Maj6(9)",
              "Maj7(9)",
              "Maj(9)",
              "Maj7#11",
              "Maj7",
              "Maj6"
            ],
            "autoStart": false,
            "sourceChordNote": 0,
            "sourceChordType": "7th",
            "ctb2Low": null,
            "ctb2Main": {
              "ntr": "ROOT_TRANSPOSITION",
              "ntt": "MELODIC_MINOR_5",
              "bassOn": false,
              "chordRootUpperLimit": 5,
              "noteLowLimit": 34,
              "noteHighLimit": 127,
              "rtr": "PITCH_SHIFT"
            },
            "ctb2High": null
          },
          "notes": []
        },
        "5": {
          "ctab": {
            "srcChannel": 5,
            "name": "Brs b",
            "accType": "PHRASE1",
            "editable": false,
            "mutedNotes": [],
            "mutedChords": [
              "1+2+5",
              "sus4",
              "1+5",
              "1+8",
              "7aug",
              "Maj7aug",
              "7(#9)",
              "7(b13)",
              "7(b9)",
              "7(13)",
              "7#11",
              "7(9)",
              "7b5",
              "7sus4",
              "7th",
              "dim",
              "min7(11)",
              "min7(9)",
              "min(9)",
              "m7b5",
              "min7",
              "min",
              "aug",
              "Maj"
            ],
            "autoStart": false,
            "sourceChordNote": 0,
            "sourceChordType": "Maj7",
            "ctb2Low": null,
            "ctb2Main": {
              "ntr": "ROOT_TRANSPOSITION",
              "ntt": "MELODIC_MINOR_5",
              "bassOn": false,
              "chordRootUpperLimit": 5,
              "noteLowLimit": 34,
              "noteHighLimit": 127,
              "rtr": "PITCH_SHIFT"
            },
            "ctb2High": null
          },
          "notes": []
        },
        "6": {
          "ctab": {
            "srcChannel": 6,
            "name": "Hns a",
            "accType": "PHRASE2",
            "editable": false,
            "mutedNotes": [],
            "mutedChords": [
              "dim7",
              "minMaj7(9)",
              "minMaj7",
              "min6",
              "Maj6(9)",
              "Maj7(9)",
              "Maj(9)",
              "Maj7#11",
              "Maj7",
              "Maj6"
            ],
            "autoStart": false,
            "sourceChordNote": 0,
            "sourceChordType": "7th",
            "ctb2Low": null,
            "ctb2Main": {
              "ntr": "ROOT_TRANSPOSITION",
              "ntt": "MELODIC_MINOR_5",
              "bassOn": false,
              "chordRootUpperLimit": 0,
              "noteLowLimit": 34,
              "noteHighLimit": 127,
              "rtr": "PITCH_SHIFT"
            },
            "ctb2High": null
          },
          "notes": [
            {
              "pitch": 70,
              "velocity": 100,
              "position": 1.0083333333333333,
              "duration": 0.3645833333333333
            },
            {
              "pitch": 84,
              "velocity": 115,
              "position": 0.98125,
              "duration": 0.44583333333333336
            },
            {
              "pitch": 60,
              "velocity": 100,
              "position": 1.0145833333333334,
              "duration": 0.42291666666666666
            },
            {
              "pitch": 69,
              "velocity": 56,
              "position": 1.3333333333333333,
              "duration": 0.10833333333333334
            },
            {
              "pitch": 67,
              "velocity": 51,
              "position": 1.4166666666666667,
              "duration": 0.10833333333333334
            },
            {
              "pitch": 60,
              "velocity": 56,
              "position": 1.4375,
              "duration": 0.08958333333333333
            },
            {
              "pitch": 82,
              "velocity": 56,
              "position": 1.4375,
              "duration": 0.08958333333333333
            },
            {
              "pitch": 76,
              "velocity": 100,
              "position": 1.0145833333333334,
              "duration": 0.5666666666666667
            },
            {
              "pitch": 58,
              "velocity": 51,
              "position": 1.5,
              "duration": 0.08958333333333333
            },
            {
              "pitch": 81,
              "velocity": 51,
              "position": 1.5,
              "duration": 0.08958333333333333
            },
            {
              "pitch": 74,
              "velocity": 56,
              "position": 1.5416666666666667,
              "duration": 0.058333333333333334
            },
            {
              "pitch": 65,
              "velocity": 45,
              "position": 1.5,
              "duration": 0.10833333333333334
            },
            {
              "pitch": 72,
              "velocity": 51,
              "position": 1.5833333333333333,
              "duration": 0.058333333333333334
            },
            {
              "pitch": 57,
              "velocity": 45,
              "position": 1.5625,
              "duration": 0.08958333333333333
            },
            {
              "pitch": 79,
              "velocity": 45,
              "position": 1.5625,
              "duration": 0.08958333333333333
            },
            {
              "pitch": 70,
              "velocity": 45,
              "position": 1.625,
              "duration": 0.058333333333333334
            },
            {
              "pitch": 64,
              "velocity": 40,
              "position": 1.5833333333333333,
              "duration": 0.10833333333333334
            },
            {
              "pitch": 55,
              "velocity": 40,
              "position": 1.625,
              "duration": 0.08958333333333333
            },
            {
              "pitch": 77,
              "velocity": 40,
              "position": 1.625,
              "duration": 0.08958333333333333
            },
            {
              "pitch": 69,
              "velocity": 40,
              "position": 1.6666666666666667,
              "duration": 0.058333333333333334
            },
            {
              "pitch": 67,
              "velocity": 35,
              "position": 1.7083333333333333,
              "duration": 0.058333333333333334
            },
            {
              "pitch": 62,
              "velocity": 35,
              "position": 1.6666666666666667,
              "duration": 0.10833333333333334
            },
            {
              "pitch": 53,
              "velocity": 35,
              "position": 1.6875,
              "duration": 0.08958333333333333
            },
            {
              "pitch": 76,
              "velocity": 35,
              "position": 1.6875,
              "duration": 0.08958333333333333
            },
            {
              "pitch": 65,
              "velocity": 30,
              "position": 1.75,
              "duration": 0.058333333333333334
            },
            {
              "pitch": 52,
              "velocity": 30,
              "position": 1.75,
              "duration": 0.08958333333333333
            },
            {
              "pitch": 74,
              "velocity": 30,
              "position": 1.75,
              "duration": 0.08958333333333333
            },
            {
              "pitch": 60,
              "velocity": 30,
              "position": 1.75,
              "duration": 0.10833333333333334
            }
          ]
        },
        "7": {
          "ctab": {
            "srcChannel": 7,
            "name": "Hns b",
            "accType": "PHRASE2",
            "editable": false,
            "mutedNotes": [],
            "mutedChords": [
              "1+2+5",
              "sus4",
              "1+5",
              "1+8",
              "7aug",
              "Maj7aug",
              "7(#9)",
              "7(b13)",
              "7(b9)",
              "7(13)",
              "7#11",
              "7(9)",
              "7b5",
              "7sus4",
              "7th",
              "dim",
              "min7(11)",
              "min7(9)",
              "min(9)",
              "m7b5",
              "min7",
              "min",
              "aug",
              "Maj"
            ],
            "autoStart": false,
            "sourceChordNote": 0,
            "sourceChordType": "Maj7",
            "ctb2Low": null,
            "ctb2Main": {
              "ntr": "ROOT_TRANSPOSITION",
              "ntt": "MELODIC_MINOR_5",
              "bassOn": false,
              "chordRootUpperLimit": 0,
              "noteLowLimit": 34,
              "noteHighLimit": 127,
              "rtr": "PITCH_SHIFT"
            },
            "ctb2High": null
          },
          "notes": [
            {
              "pitch": 72,
              "velocity": 109,
              "position": 0.9875,
              "duration": 0.3416666666666667
            },
            {
              "pitch": 71,
              "velocity": 56,
              "position": 1.3333333333333333,
              "duration": 0.10833333333333334
            },
            {
              "pitch": 64,
              "velocity": 102,
              "position": 1.0166666666666666,
              "duration": 0.4666666666666667
            },
            {
              "pitch": 84,
              "velocity": 127,
              "position": 1.0145833333333334,
              "duration": 0.47291666666666665
            },
            {
              "pitch": 69,
              "velocity": 51,
              "position": 1.4166666666666667,
              "duration": 0.10833333333333334
            },
            {
              "pitch": 62,
              "velocity": 56,
              "position": 1.4375,
              "duration": 0.08958333333333333
            },
            {
              "pitch": 83,
              "velocity": 56,
              "position": 1.4375,
              "duration": 0.08958333333333333
            },
            {
              "pitch": 79,
              "velocity": 106,
              "position": 1.0041666666666667,
              "duration": 0.5583333333333333
            },
            {
              "pitch": 60,
              "velocity": 51,
              "position": 1.5,
              "duration": 0.08958333333333333
            },
            {
              "pitch": 81,
              "velocity": 51,
              "position": 1.5,
              "duration": 0.08958333333333333
            },
            {
              "pitch": 77,
              "velocity": 56,
              "position": 1.5416666666666667,
              "duration": 0.058333333333333334
            },
            {
              "pitch": 67,
              "velocity": 45,
              "position": 1.5,
              "duration": 0.10833333333333334
            },
            {
              "pitch": 76,
              "velocity": 51,
              "position": 1.5833333333333333,
              "duration": 0.058333333333333334
            },
            {
              "pitch": 59,
              "velocity": 45,
              "position": 1.5625,
              "duration": 0.08958333333333333
            },
            {
              "pitch": 79,
              "velocity": 45,
              "position": 1.5625,
              "duration": 0.08958333333333333
            },
            {
              "pitch": 74,
              "velocity": 45,
              "position": 1.625,
              "duration": 0.058333333333333334
            },
            {
              "pitch": 65,
              "velocity": 40,
              "position": 1.5833333333333333,
              "duration": 0.10833333333333334
            },
            {
              "pitch": 57,
              "velocity": 40,
              "position": 1.625,
              "duration": 0.08958333333333333
            },
            {
              "pitch": 77,
              "velocity": 40,
              "position": 1.625,
              "duration": 0.08958333333333333
            },
            {
              "pitch": 72,
              "velocity": 40,
              "position": 1.6666666666666667,
              "duration": 0.058333333333333334
            },
            {
              "pitch": 71,
              "velocity": 35,
              "position": 1.7083333333333333,
              "duration": 0.058333333333333334
            },
            {
              "pitch": 64,
              "velocity": 35,
              "position": 1.6666666666666667,
              "duration": 0.10833333333333334
            },
            {
              "pitch": 55,
              "velocity": 35,
              "position": 1.6875,
              "duration": 0.08958333333333333
            },
            {
              "pitch": 76,
              "velocity": 35,
              "position": 1.6875,
              "duration": 0.08958333333333333
            },
            {
              "pitch": 69,
              "velocity": 30,
              "position": 1.75,
              "duration": 0.058333333333333334
            },
            {
              "pitch": 53,
              "velocity": 30,
              "position": 1.75,
              "duration": 0.08958333333333333
            },
            {
              "pitch": 74,
              "velocity": 30,
              "position": 1.75,
              "duration": 0.08958333333333333
            },
            {
              "pitch": 62,
              "velocity": 30,
              "position": 1.75,
              "duration": 0.10833333333333334
            }
          ]
        },
        "8": {
          "ctab": {
            "srcChannel": 8,
            "name": "Perc.",
            "accType": "SUBRHYTHM",
            "editable": false,
            "mutedNotes": [],
            "mutedChords": [],
            "autoStart": true,
            "sourceChordNote": 0,
            "sourceChordType": "Maj7",
            "ctb2Low": null,
            "ctb2Main": {
              "ntr": "ROOT_FIXED",
              "ntt": "BYPASS",
              "bassOn": false,
              "chordRootUpperLimit": 6,
              "noteLowLimit": 0,
              "noteHighLimit": 127,
              "rtr": "PITCH_SHIFT"
            },
            "ctb2High": null
          },
          "notes": []
        },
        "9": {
          "ctab": {
            "srcChannel": 9,
            "name": "Drums",
            "accType": "RHYTHM",
            "editable": false,
            "mutedNotes": [],
            "mutedChords": [],
            "autoStart": true,
            "sourceChordNote": 0,
            "sourceChordType": "Maj7",
            "ctb2Low": null,
            "ctb2Main": {
              "ntr": "ROOT_FIXED",
              "ntt": "BYPASS",
              "bassOn": false,
              "chordRootUpperLimit": 6,
              "noteLowLimit": 0,
              "noteHighLimit": 127,
              "rtr": "PITCH_SHIFT"
            },
            "ctb2High": null
          },
          "notes": [
            {
              "pitch": 35,
              "velocity": 100,
              "position": 0,
              "duration": 0.010416666666666666
            },
            {
              "pitch": 38,
              "velocity": 121,
              "position": 0,
              "duration": 0.010416666666666666
            },
            {
              "pitch": 38,
              "velocity": 70,
              "position": 0.2708333333333333,
              "duration": 0.010416666666666666
            },
            {
              "pitch": 38,
              "velocity": 100,
              "position": 0.5,
              "duration": 0.010416666666666666
            },
            {
              "pitch": 35,
              "velocity": 68,
              "position": 0.7479166666666667,
              "duration": 0.010416666666666666
            },
            {
              "pitch": 38,
              "velocity": 121,
              "position": 1,
              "duration": 0.010416666666666666
            },
            {
              "pitch": 44,
              "velocity": 60,
              "position": 1,
              "duration": 0.010416666666666666
            },
            {
              "pitch": 38,
              "velocity": 30,
              "position": 1.6229166666666666,
              "duration": 0.010416666666666666
            },
            {
              "pitch": 38,
              "velocity": 46,
              "position": 1.7416666666666667,
              "duration": 0.010416666666666666
            },
            {
              "pitch": 38,
              "velocity": 70,
              "position": 1.8729166666666666,
              "duration": 0.010416666666666666
            },
            {
              "pitch": 38,
              "velocity": 121,
              "position": 2,
              "duration": 0.010416666666666666
            },
            {
              "pitch": 44,
              "velocity": 60,
              "position": 2,
              "duration": 0.010416666666666666
            },
            {
              "pitch": 38,
              "velocity": 70,
              "position": 2.25,
              "duration": 0.010416666666666666
            },
            {
              "pitch": 38,
              "velocity": 100,
              "position": 2.5,
              "duration": 0.010416666666666666
            },
            {
              "pitch": 35,
              "velocity": 43,
              "position": 2.7708333333333335,
              "duration": 0.010416666666666666
            },
            {
              "pitch": 38,
              "velocity": 121,
              "position": 3,
              "duration": 0.010416666666666666
            },
            {
              "pitch": 35,
              "velocity": 100,
              "position": 3.2708333333333335,
              "duration": 0.010416666666666666
            },
            {
              "pitch": 46,
              "velocity": 69,
              "position": 3.2708333333333335,
              "duration": 0.010416666666666666
            },
            {
              "pitch": 44,
              "velocity": 1,
              "position": 3.5,
              "duration": 0.010416666666666666
            },
            {
              "pitch": 35,
              "velocity": 60,
              "position": 3.7708333333333335,
              "duration": 0.010416666666666666
            },
            {
              "pitch": 49,
              "velocity": 71,
              "position": 3.9895833333333335,
              "duration": 0.010416666666666666
            }
          ]
        },
        "10": {
          "ctab": {
            "srcChannel": 10,
            "name": "Bass FX",
            "accType": "BASS",
            "editable": false,
            "mutedNotes": [],
            "mutedChords": [],
            "autoStart": false,
            "sourceChordNote": 0,
            "sourceChordType": "7th",
            "ctb2Low": null,
            "ctb2Main": {
              "ntr": "ROOT_FIXED",
              "ntt": "BYPASS",
              "bassOn": false,
              "chordRootUpperLimit": 7,
              "noteLowLimit": 0,
              "noteHighLimit": 127,
              "rtr": "PITCH_SHIFT"
            },
            "ctb2High": null
          },
          "notes": [
            {
              "pitch": 96,
              "velocity": 100,
              "position": 1,
              "duration": 1.9895833333333333
            }
          ]
        },
        "11": {
          "ctab": {
            "srcChannel": 11,
            "name": "Bass a",
            "accType": "BASS",
            "editable": false,
            "mutedNotes": [],
            "mutedChords": [
              "1+2+5",
              "sus4",
              "1+5",
              "1+8",
              "7aug",
              "Maj7aug",
              "7(#9)",
              "7(b13)",
              "7(b9)",
              "7(13)",
              "7#11",
              "7(9)",
              "7b5",
              "7sus4",
              "dim7",
              "dim",
              "minMaj7(9)",
              "minMaj7",
              "min7(11)",
              "min7(9)",
              "min(9)",
              "m7b5",
              "min7",
              "min6",
              "aug",
              "Maj6(9)",
              "Maj7(9)",
              "Maj(9)",
              "Maj7#11",
              "Maj7",
              "Maj6"
            ],
            "autoStart": false,
            "sourceChordNote": 0,
            "sourceChordType": "7th",
            "ctb2Low": null,
            "ctb2Main": {
              "ntr": "ROOT_TRANSPOSITION",
              "ntt": "MELODIC_MINOR_5",
              "bassOn": true,
              "chordRootUpperLimit": 8,
              "noteLowLimit": 28,
              "noteHighLimit": 127,
              "rtr": "PITCH_SHIFT_TO_ROOT"
            },
            "ctb2High": null
          },
          "notes": [
            {
              "pitch": 36,
              "velocity": 70,
              "position": 0,
              "duration": 0.28958333333333336
            },
            {
              "pitch": 34,
              "velocity": 70,
              "position": 0.5,
              "duration": 0.28958333333333336
            },
            {
              "pitch": 36,
              "velocity": 60,
              "position": 1,
              "duration": 0.2875
            }
          ]
        },
        "12": {
          "ctab": {
            "srcChannel": 12,
            "name": "Bass b",
            "accType": "BASS",
            "editable": false,
            "mutedNotes": [],
            "mutedChords": [
              "7th",
              "min",
              "Maj"
            ],
            "autoStart": false,
            "sourceChordNote": 0,
            "sourceChordType": "Maj7",
            "ctb2Low": null,
            "ctb2Main": {
              "ntr": "ROOT_TRANSPOSITION",
              "ntt": "MELODY",
              "bassOn": true,
              "chordRootUpperLimit": 8,
              "noteLowLimit": 28,
              "noteHighLimit": 127,
              "rtr": "PITCH_SHIFT_TO_ROOT"
            },
            "ctb2High": null
          },
          "notes": [
            {
              "pitch": 24,
              "velocity": 70,
              "position": 0,
              "duration": 0.28958333333333336
            },
            {
              "pitch": 24,
              "velocity": 70,
              "position": 0.5,
              "duration": 0.28958333333333336
            },
            {
              "pitch": 24,
              "velocity": 60,
              "position": 1,
              "duration": 0.2875
            }
          ]
        },
        "13": {
          "ctab": {
            "srcChannel": 13,
            "name": "EP Maj",
            "accType": "CHORD2",
            "editable": false,
            "mutedNotes": [],
            "mutedChords": [
              "1+2+5",
              "sus4",
              "1+5",
              "1+8",
              "7aug",
              "Maj7aug",
              "7(#9)",
              "7(b13)",
              "7(b9)",
              "7(13)",
              "7#11",
              "7(9)",
              "7b5",
              "7sus4",
              "dim7",
              "dim",
              "minMaj7(9)",
              "minMaj7",
              "min7(11)",
              "min7(9)",
              "min(9)",
              "m7b5",
              "min7",
              "min6",
              "min",
              "aug",
              "Maj6(9)",
              "Maj7(9)",
              "Maj(9)",
              "Maj7#11",
              "Maj7",
              "Maj6"
            ],
            "autoStart": false,
            "sourceChordNote": 0,
            "sourceChordType": "7th",
            "ctb2Low": null,
            "ctb2Main": {
              "ntr": "ROOT_TRANSPOSITION",
              "ntt": "MELODIC_MINOR_5",
              "bassOn": false,
              "chordRootUpperLimit": 8,
              "noteLowLimit": 40,
              "noteHighLimit": 66,
              "rtr": "PITCH_SHIFT"
            },
            "ctb2High": null
          },
          "notes": [
            {
              "pitch": 74,
              "velocity": 122,
              "position": 0.010416666666666666,
              "duration": 0.7291666666666666
            },
            {
              "pitch": 67,
              "velocity": 122,
              "position": 0.010416666666666666,
              "duration": 0.7333333333333333
            },
            {
              "pitch": 76,
              "velocity": 97,
              "position": 0.010416666666666666,
              "duration": 0.7333333333333333
            },
            {
              "pitch": 70,
              "velocity": 118,
              "position": 0.010416666666666666,
              "duration": 0.7416666666666667
            },
            {
              "pitch": 74,
              "velocity": 122,
              "position": 1.0104166666666667,
              "duration": 0.4791666666666667
            },
            {
              "pitch": 67,
              "velocity": 122,
              "position": 1.0104166666666667,
              "duration": 0.48333333333333334
            },
            {
              "pitch": 76,
              "velocity": 97,
              "position": 1.0104166666666667,
              "duration": 0.48333333333333334
            },
            {
              "pitch": 70,
              "velocity": 118,
              "position": 1.0104166666666667,
              "duration": 0.49166666666666664
            }
          ]
        },
        "14": {
          "ctab": {
            "srcChannel": 14,
            "name": "EP Min",
            "accType": "CHORD2",
            "editable": false,
            "mutedNotes": [],
            "mutedChords": [
              "1+2+5",
              "sus4",
              "1+5",
              "1+8",
              "7aug",
              "Maj7aug",
              "7(#9)",
              "7(b13)",
              "7(b9)",
              "7(13)",
              "7#11",
              "7(9)",
              "7b5",
              "7sus4",
              "7th",
              "dim7",
              "dim",
              "minMaj7(9)",
              "minMaj7",
              "min7(11)",
              "min7(9)",
              "min(9)",
              "m7b5",
              "min7",
              "min6",
              "aug",
              "Maj6(9)",
              "Maj7(9)",
              "Maj(9)",
              "Maj7#11",
              "Maj7",
              "Maj6",
              "Maj"
            ],
            "autoStart": false,
            "sourceChordNote": 0,
            "sourceChordType": "min7",
            "ctb2Low": null,
            "ctb2Main": {
              "ntr": "ROOT_TRANSPOSITION",
              "ntt": "MELODIC_MINOR_5",
              "bassOn": false,
              "chordRootUpperLimit": 8,
              "noteLowLimit": 40,
              "noteHighLimit": 66,
              "rtr": "PITCH_SHIFT"
            },
            "ctb2High": null
          },
          "notes": [
            {
              "pitch": 74,
              "velocity": 127,
              "position": 0.010416666666666666,
              "duration": 0.7291666666666666
            },
            {
              "pitch": 67,
              "velocity": 127,
              "position": 0.010416666666666666,
              "duration": 0.7333333333333333
            },
            {
              "pitch": 75,
              "velocity": 101,
              "position": 0.010416666666666666,
              "duration": 0.7333333333333333
            },
            {
              "pitch": 70,
              "velocity": 123,
              "position": 0.010416666666666666,
              "duration": 0.7416666666666667
            },
            {
              "pitch": 74,
              "velocity": 127,
              "position": 1.0104166666666667,
              "duration": 0.4791666666666667
            },
            {
              "pitch": 67,
              "velocity": 127,
              "position": 1.0104166666666667,
              "duration": 0.48333333333333334
            },
            {
              "pitch": 75,
              "velocity": 101,
              "position": 1.0104166666666667,
              "duration": 0.48333333333333334
            },
            {
              "pitch": 70,
              "velocity": 123,
              "position": 1.0104166666666667,
              "duration": 0.49166666666666664
            }
          ]
        },
        "15": {
          "ctab": {
            "srcChannel": 15,
            "name": "EP",
            "accType": "CHORD2",
            "editable": false,
            "mutedNotes": [],
            "mutedChords": [
              "7th",
              "min",
              "Maj"
            ],
            "autoStart": false,
            "sourceChordNote": 0,
            "sourceChordType": "Maj7",
            "ctb2Low": null,
            "ctb2Main": {
              "ntr": "ROOT_TRANSPOSITION",
              "ntt": "CHORD",
              "bassOn": false,
              "chordRootUpperLimit": 8,
              "noteLowLimit": 40,
              "noteHighLimit": 66,
              "rtr": "PITCH_SHIFT"
            },
            "ctb2High": null
          },
          "notes": [
            {
              "pitch": 76,
              "velocity": 127,
              "position": 0.010416666666666666,
              "duration": 0.7291666666666666
            },
            {
              "pitch": 67,
              "velocity": 127,
              "position": 0.010416666666666666,
              "duration": 0.7333333333333333
            },
            {
              "pitch": 71,
              "velocity": 123,
              "position": 0.010416666666666666,
              "duration": 0.7416666666666667
            },
            {
              "pitch": 76,
              "velocity": 127,
              "position": 1.0104166666666667,
              "duration": 0.4791666666666667
            },
            {
              "pitch": 67,
              "velocity": 127,
              "position": 1.0104166666666667,
              "duration": 0.48333333333333334
            },
            {
              "pitch": 71,
              "velocity": 123,
              "position": 1.0104166666666667,
              "duration": 0.49166666666666664
            }
          ]
        }
      }
    },
    "Main_C": {
      "type": "Main_C",
      "sizeInBeats": 32,
      "channels": {
        "1": {
          "ctab": {
            "srcChannel": 1,
            "name": "Gt Maj",
            "accType": "CHORD1",
            "editable": false,
            "mutedNotes": [],
            "mutedChords": [
              "1+2+5",
              "sus4",
              "1+5",
              "1+8",
              "7aug",
              "Maj7aug",
              "7(#9)",
              "7(b13)",
              "7(b9)",
              "7(13)",
              "7#11",
              "7(9)",
              "7b5",
              "7sus4",
              "dim7",
              "dim",
              "minMaj7(9)",
              "minMaj7",
              "min7(11)",
              "min7(9)",
              "min(9)",
              "m7b5",
              "min7",
              "min6",
              "min",
              "aug",
              "Maj6(9)",
              "Maj7(9)",
              "Maj(9)",
              "Maj7#11",
              "Maj7",
              "Maj6"
            ],
            "autoStart": false,
            "sourceChordNote": 0,
            "sourceChordType": "7th",
            "ctb2Low": null,
            "ctb2Main": {
              "ntr": "ROOT_TRANSPOSITION",
              "ntt": "MELODIC_MINOR_5",
              "bassOn": false,
              "chordRootUpperLimit": 7,
              "noteLowLimit": 55,
              "noteHighLimit": 77,
              "rtr": "PITCH_SHIFT"
            },
            "ctb2High": null
          },
          "notes": [
            {
              "pitch": 108,
              "velocity": 84,
              "position": 0.010416666666666666,
              "duration": 0.23125
            },
            {
              "pitch": 79,
              "velocity": 42,
              "position": 0.010416666666666666,
              "duration": 0.2833333333333333
            },
            {
              "pitch": 82,
              "velocity": 42,
              "position": 0.03125,
              "duration": 0.2625
            },
            {
              "pitch": 86,
              "velocity": 42,
              "position": 0.052083333333333336,
              "duration": 0.24166666666666667
            },
            {
              "pitch": 103,
              "velocity": 84,
              "position": 0.25,
              "duration": 0.23958333333333334
            },
            {
              "pitch": 108,
              "velocity": 84,
              "position": 0.5,
              "duration": 0.23958333333333334
            },
            {
              "pitch": 79,
              "velocity": 37,
              "position": 0.5,
              "duration": 0.2833333333333333
            },
            {
              "pitch": 82,
              "velocity": 37,
              "position": 0.5208333333333334,
              "duration": 0.2625
            },
            {
              "pitch": 86,
              "velocity": 37,
              "position": 0.5416666666666666,
              "duration": 0.24166666666666667
            },
            {
              "pitch": 103,
              "velocity": 84,
              "position": 0.75,
              "duration": 0.23958333333333334
            },
            {
              "pitch": 108,
              "velocity": 84,
              "position": 1,
              "duration": 0.23958333333333334
            },
            {
              "pitch": 79,
              "velocity": 42,
              "position": 1,
              "duration": 0.2833333333333333
            },
            {
              "pitch": 82,
              "velocity": 42,
              "position": 1.0208333333333333,
              "duration": 0.2625
            },
            {
              "pitch": 86,
              "velocity": 42,
              "position": 1.0416666666666667,
              "duration": 0.24166666666666667
            },
            {
              "pitch": 103,
              "velocity": 84,
              "position": 1.25,
              "duration": 0.23958333333333334
            },
            {
              "pitch": 106,
              "velocity": 84,
              "position": 1.5,
              "duration": 0.23958333333333334
            },
            {
              "pitch": 86,
              "velocity": 34,
              "position": 1.5416666666666667,
              "duration": 0.22083333333333333
            },
            {
              "pitch": 82,
              "velocity": 34,
              "position": 1.5208333333333333,
              "duration": 0.2625
            },
            {
              "pitch": 79,
              "velocity": 34,
              "position": 1.5,
              "duration": 0.30416666666666664
            },
            {
              "pitch": 79,
              "velocity": 42,
              "position": 1.8125,
              "duration": 0.15833333333333333
            },
            {
              "pitch": 82,
              "velocity": 42,
              "position": 1.7916666666666667,
              "duration": 0.17916666666666667
            },
            {
              "pitch": 86,
              "velocity": 42,
              "position": 1.7708333333333333,
              "duration": 0.2
            },
            {
              "pitch": 108,
              "velocity": 84,
              "position": 1.75,
              "duration": 0.23958333333333334
            },
            {
              "pitch": 102,
              "velocity": 84,
              "position": 2,
              "duration": 0.23958333333333334
            },
            {
              "pitch": 103,
              "velocity": 84,
              "position": 2.25,
              "duration": 0.23958333333333334
            },
            {
              "pitch": 108,
              "velocity": 84,
              "position": 2.5,
              "duration": 0.23958333333333334
            },
            {
              "pitch": 76,
              "velocity": 42,
              "position": 2.5208333333333335,
              "duration": 0.24166666666666667
            },
            {
              "pitch": 107,
              "velocity": 84,
              "position": 2.75,
              "duration": 0.23958333333333334
            },
            {
              "pitch": 70,
              "velocity": 42,
              "position": 2.5,
              "duration": 0.49166666666666664
            },
            {
              "pitch": 106,
              "velocity": 84,
              "position": 3,
              "duration": 0.23958333333333334
            },
            {
              "pitch": 76,
              "velocity": 34,
              "position": 2.7708333333333335,
              "duration": 0.49166666666666664
            },
            {
              "pitch": 70,
              "velocity": 26,
              "position": 3,
              "duration": 0.2833333333333333
            },
            {
              "pitch": 105,
              "velocity": 84,
              "position": 3.25,
              "duration": 0.23958333333333334
            },
            {
              "pitch": 70,
              "velocity": 34,
              "position": 3.2916666666666665,
              "duration": 0.2
            },
            {
              "pitch": 76,
              "velocity": 34,
              "position": 3.2708333333333335,
              "duration": 0.24166666666666667
            },
            {
              "pitch": 108,
              "velocity": 84,
              "position": 3.5,
              "duration": 0.23958333333333334
            },
            {
              "pitch": 70,
              "velocity": 42,
              "position": 3.5,
              "duration": 0.2833333333333333
            },
            {
              "pitch": 76,
              "velocity": 42,
              "position": 3.5208333333333335,
              "duration": 0.2625
            },
            {
              "pitch": 103,
              "velocity": 84,
              "position": 3.75,
              "duration": 0.23958333333333334
            },
            {
              "pitch": 108,
              "velocity": 84,
              "position": 4,
              "duration": 0.23958333333333334
            },
            {
              "pitch": 79,
              "velocity": 42,
              "position": 4,
              "duration": 0.2833333333333333
            },
            {
              "pitch": 82,
              "velocity": 42,
              "position": 4.020833333333333,
              "duration": 0.2625
            },
            {
              "pitch": 86,
              "velocity": 42,
              "position": 4.041666666666667,
              "duration": 0.24166666666666667
            },
            {
              "pitch": 103,
              "velocity": 84,
              "position": 4.25,
              "duration": 0.23958333333333334
            },
            {
              "pitch": 108,
              "velocity": 84,
              "position": 4.5,
              "duration": 0.23958333333333334
            },
            {
              "pitch": 79,
              "velocity": 42,
              "position": 4.5,
              "duration": 0.2833333333333333
            },
            {
              "pitch": 82,
              "velocity": 42,
              "position": 4.520833333333333,
              "duration": 0.2625
            },
            {
              "pitch": 86,
              "velocity": 42,
              "position": 4.541666666666667,
              "duration": 0.24166666666666667
            },
            {
              "pitch": 103,
              "velocity": 84,
              "position": 4.75,
              "duration": 0.23958333333333334
            },
            {
              "pitch": 108,
              "velocity": 84,
              "position": 5,
              "duration": 0.23958333333333334
            },
            {
              "pitch": 79,
              "velocity": 42,
              "position": 5,
              "duration": 0.2833333333333333
            },
            {
              "pitch": 82,
              "velocity": 42,
              "position": 5.020833333333333,
              "duration": 0.2625
            },
            {
              "pitch": 86,
              "velocity": 42,
              "position": 5.041666666666667,
              "duration": 0.24166666666666667
            },
            {
              "pitch": 103,
              "velocity": 84,
              "position": 5.25,
              "duration": 0.23958333333333334
            },
            {
              "pitch": 102,
              "velocity": 84,
              "position": 5.5,
              "duration": 0.23958333333333334
            },
            {
              "pitch": 103,
              "velocity": 84,
              "position": 5.75,
              "duration": 0.23958333333333334
            },
            {
              "pitch": 102,
              "velocity": 84,
              "position": 6,
              "duration": 0.23958333333333334
            },
            {
              "pitch": 103,
              "velocity": 84,
              "position": 6.25,
              "duration": 0.23958333333333334
            },
            {
              "pitch": 106,
              "velocity": 84,
              "position": 6.5,
              "duration": 0.23958333333333334
            },
            {
              "pitch": 70,
              "velocity": 42,
              "position": 6.520833333333333,
              "duration": 0.24166666666666667
            },
            {
              "pitch": 67,
              "velocity": 42,
              "position": 6.5,
              "duration": 0.2833333333333333
            },
            {
              "pitch": 72,
              "velocity": 100,
              "position": 6.770833333333333,
              "duration": 0.15833333333333333
            },
            {
              "pitch": 69,
              "velocity": 100,
              "position": 6.791666666666667,
              "duration": 0.17916666666666667
            },
            {
              "pitch": 108,
              "velocity": 84,
              "position": 6.75,
              "duration": 0.23958333333333334
            },
            {
              "pitch": 102,
              "velocity": 84,
              "position": 7,
              "duration": 0.23958333333333334
            },
            {
              "pitch": 70,
              "velocity": 34,
              "position": 7.270833333333333,
              "duration": 0.15833333333333333
            },
            {
              "pitch": 67,
              "velocity": 34,
              "position": 7.291666666666667,
              "duration": 0.17916666666666667
            },
            {
              "pitch": 106,
              "velocity": 84,
              "position": 7.25,
              "duration": 0.23958333333333334
            },
            {
              "pitch": 102,
              "velocity": 84,
              "position": 7.5,
              "duration": 0.23958333333333334
            },
            {
              "pitch": 103,
              "velocity": 84,
              "position": 7.75,
              "duration": 0.23958333333333334
            },
            {
              "pitch": 108,
              "velocity": 84,
              "position": 8,
              "duration": 0.23958333333333334
            },
            {
              "pitch": 79,
              "velocity": 42,
              "position": 8,
              "duration": 0.2833333333333333
            },
            {
              "pitch": 82,
              "velocity": 42,
              "position": 8.020833333333334,
              "duration": 0.2625
            },
            {
              "pitch": 86,
              "velocity": 42,
              "position": 8.041666666666666,
              "duration": 0.24166666666666667
            },
            {
              "pitch": 103,
              "velocity": 84,
              "position": 8.25,
              "duration": 0.23958333333333334
            },
            {
              "pitch": 108,
              "velocity": 84,
              "position": 8.5,
              "duration": 0.23958333333333334
            },
            {
              "pitch": 79,
              "velocity": 37,
              "position": 8.5,
              "duration": 0.2833333333333333
            },
            {
              "pitch": 82,
              "velocity": 37,
              "position": 8.520833333333334,
              "duration": 0.2625
            },
            {
              "pitch": 86,
              "velocity": 37,
              "position": 8.541666666666666,
              "duration": 0.24166666666666667
            },
            {
              "pitch": 103,
              "velocity": 84,
              "position": 8.75,
              "duration": 0.23958333333333334
            },
            {
              "pitch": 108,
              "velocity": 84,
              "position": 9,
              "duration": 0.23958333333333334
            },
            {
              "pitch": 79,
              "velocity": 42,
              "position": 9,
              "duration": 0.2833333333333333
            },
            {
              "pitch": 82,
              "velocity": 42,
              "position": 9.020833333333334,
              "duration": 0.2625
            },
            {
              "pitch": 86,
              "velocity": 42,
              "position": 9.041666666666666,
              "duration": 0.24166666666666667
            },
            {
              "pitch": 103,
              "velocity": 84,
              "position": 9.25,
              "duration": 0.23958333333333334
            },
            {
              "pitch": 106,
              "velocity": 84,
              "position": 9.5,
              "duration": 0.23958333333333334
            },
            {
              "pitch": 86,
              "velocity": 34,
              "position": 9.541666666666666,
              "duration": 0.22083333333333333
            },
            {
              "pitch": 82,
              "velocity": 34,
              "position": 9.520833333333334,
              "duration": 0.2625
            },
            {
              "pitch": 79,
              "velocity": 34,
              "position": 9.5,
              "duration": 0.30416666666666664
            },
            {
              "pitch": 79,
              "velocity": 42,
              "position": 9.8125,
              "duration": 0.15833333333333333
            },
            {
              "pitch": 82,
              "velocity": 42,
              "position": 9.791666666666666,
              "duration": 0.17916666666666667
            },
            {
              "pitch": 86,
              "velocity": 42,
              "position": 9.770833333333334,
              "duration": 0.2
            },
            {
              "pitch": 108,
              "velocity": 84,
              "position": 9.75,
              "duration": 0.23958333333333334
            },
            {
              "pitch": 102,
              "velocity": 84,
              "position": 10,
              "duration": 0.23958333333333334
            },
            {
              "pitch": 103,
              "velocity": 84,
              "position": 10.25,
              "duration": 0.23958333333333334
            },
            {
              "pitch": 108,
              "velocity": 84,
              "position": 10.5,
              "duration": 0.23958333333333334
            },
            {
              "pitch": 76,
              "velocity": 42,
              "position": 10.520833333333334,
              "duration": 0.24166666666666667
            },
            {
              "pitch": 107,
              "velocity": 84,
              "position": 10.75,
              "duration": 0.23958333333333334
            },
            {
              "pitch": 70,
              "velocity": 42,
              "position": 10.5,
              "duration": 0.49166666666666664
            },
            {
              "pitch": 106,
              "velocity": 84,
              "position": 11,
              "duration": 0.23958333333333334
            },
            {
              "pitch": 76,
              "velocity": 34,
              "position": 10.770833333333334,
              "duration": 0.49166666666666664
            },
            {
              "pitch": 70,
              "velocity": 26,
              "position": 11,
              "duration": 0.2833333333333333
            },
            {
              "pitch": 105,
              "velocity": 84,
              "position": 11.25,
              "duration": 0.23958333333333334
            },
            {
              "pitch": 70,
              "velocity": 34,
              "position": 11.291666666666666,
              "duration": 0.2
            },
            {
              "pitch": 76,
              "velocity": 34,
              "position": 11.270833333333334,
              "duration": 0.24166666666666667
            },
            {
              "pitch": 108,
              "velocity": 84,
              "position": 11.5,
              "duration": 0.23958333333333334
            },
            {
              "pitch": 70,
              "velocity": 42,
              "position": 11.5,
              "duration": 0.2833333333333333
            },
            {
              "pitch": 76,
              "velocity": 42,
              "position": 11.520833333333334,
              "duration": 0.2625
            },
            {
              "pitch": 103,
              "velocity": 84,
              "position": 11.75,
              "duration": 0.23958333333333334
            },
            {
              "pitch": 108,
              "velocity": 84,
              "position": 12,
              "duration": 0.23958333333333334
            },
            {
              "pitch": 79,
              "velocity": 42,
              "position": 12,
              "duration": 0.2833333333333333
            },
            {
              "pitch": 82,
              "velocity": 42,
              "position": 12.020833333333334,
              "duration": 0.2625
            },
            {
              "pitch": 86,
              "velocity": 42,
              "position": 12.041666666666666,
              "duration": 0.24166666666666667
            },
            {
              "pitch": 103,
              "velocity": 84,
              "position": 12.25,
              "duration": 0.23958333333333334
            },
            {
              "pitch": 108,
              "velocity": 84,
              "position": 12.5,
              "duration": 0.23958333333333334
            },
            {
              "pitch": 79,
              "velocity": 42,
              "position": 12.5,
              "duration": 0.2833333333333333
            },
            {
              "pitch": 82,
              "velocity": 42,
              "position": 12.520833333333334,
              "duration": 0.2625
            },
            {
              "pitch": 86,
              "velocity": 42,
              "position": 12.541666666666666,
              "duration": 0.24166666666666667
            },
            {
              "pitch": 103,
              "velocity": 84,
              "position": 12.75,
              "duration": 0.23958333333333334
            },
            {
              "pitch": 108,
              "velocity": 84,
              "position": 13,
              "duration": 0.23958333333333334
            },
            {
              "pitch": 79,
              "velocity": 42,
              "position": 13,
              "duration": 0.2833333333333333
            },
            {
              "pitch": 82,
              "velocity": 42,
              "position": 13.020833333333334,
              "duration": 0.2625
            },
            {
              "pitch": 86,
              "velocity": 42,
              "position": 13.041666666666666,
              "duration": 0.24166666666666667
            },
            {
              "pitch": 103,
              "velocity": 84,
              "position": 13.25,
              "duration": 0.23958333333333334
            },
            {
              "pitch": 102,
              "velocity": 84,
              "position": 13.5,
              "duration": 0.23958333333333334
            },
            {
              "pitch": 103,
              "velocity": 84,
              "position": 13.75,
              "duration": 0.23958333333333334
            },
            {
              "pitch": 102,
              "velocity": 84,
              "position": 14,
              "duration": 0.23958333333333334
            },
            {
              "pitch": 103,
              "velocity": 84,
              "position": 14.25,
              "duration": 0.23958333333333334
            },
            {
              "pitch": 106,
              "velocity": 84,
              "position": 14.5,
              "duration": 0.23958333333333334
            },
            {
              "pitch": 70,
              "velocity": 42,
              "position": 14.520833333333334,
              "duration": 0.24166666666666667
            },
            {
              "pitch": 67,
              "velocity": 42,
              "position": 14.5,
              "duration": 0.2833333333333333
            },
            {
              "pitch": 72,
              "velocity": 100,
              "position": 14.770833333333334,
              "duration": 0.15833333333333333
            },
            {
              "pitch": 69,
              "velocity": 100,
              "position": 14.791666666666666,
              "duration": 0.17916666666666667
            },
            {
              "pitch": 108,
              "velocity": 84,
              "position": 14.75,
              "duration": 0.23958333333333334
            },
            {
              "pitch": 102,
              "velocity": 84,
              "position": 15,
              "duration": 0.23958333333333334
            },
            {
              "pitch": 70,
              "velocity": 34,
              "position": 15.270833333333334,
              "duration": 0.15833333333333333
            },
            {
              "pitch": 67,
              "velocity": 34,
              "position": 15.291666666666666,
              "duration": 0.17916666666666667
            },
            {
              "pitch": 106,
              "velocity": 84,
              "position": 15.25,
              "duration": 0.23958333333333334
            },
            {
              "pitch": 102,
              "velocity": 84,
              "position": 15.5,
              "duration": 0.23958333333333334
            },
            {
              "pitch": 103,
              "velocity": 84,
              "position": 15.75,
              "duration": 0.23958333333333334
            },
            {
              "pitch": 108,
              "velocity": 84,
              "position": 16,
              "duration": 0.23958333333333334
            },
            {
              "pitch": 79,
              "velocity": 42,
              "position": 16,
              "duration": 0.2833333333333333
            },
            {
              "pitch": 82,
              "velocity": 42,
              "position": 16.020833333333332,
              "duration": 0.2625
            },
            {
              "pitch": 86,
              "velocity": 42,
              "position": 16.041666666666668,
              "duration": 0.24166666666666667
            },
            {
              "pitch": 103,
              "velocity": 84,
              "position": 16.25,
              "duration": 0.23958333333333334
            },
            {
              "pitch": 108,
              "velocity": 84,
              "position": 16.5,
              "duration": 0.23958333333333334
            },
            {
              "pitch": 79,
              "velocity": 37,
              "position": 16.5,
              "duration": 0.2833333333333333
            },
            {
              "pitch": 82,
              "velocity": 37,
              "position": 16.520833333333332,
              "duration": 0.2625
            },
            {
              "pitch": 86,
              "velocity": 37,
              "position": 16.541666666666668,
              "duration": 0.24166666666666667
            },
            {
              "pitch": 103,
              "velocity": 84,
              "position": 16.75,
              "duration": 0.23958333333333334
            },
            {
              "pitch": 108,
              "velocity": 84,
              "position": 17,
              "duration": 0.23958333333333334
            },
            {
              "pitch": 79,
              "velocity": 42,
              "position": 17,
              "duration": 0.2833333333333333
            },
            {
              "pitch": 82,
              "velocity": 42,
              "position": 17.020833333333332,
              "duration": 0.2625
            },
            {
              "pitch": 86,
              "velocity": 42,
              "position": 17.041666666666668,
              "duration": 0.24166666666666667
            },
            {
              "pitch": 103,
              "velocity": 84,
              "position": 17.25,
              "duration": 0.23958333333333334
            },
            {
              "pitch": 106,
              "velocity": 84,
              "position": 17.5,
              "duration": 0.23958333333333334
            },
            {
              "pitch": 86,
              "velocity": 34,
              "position": 17.541666666666668,
              "duration": 0.22083333333333333
            },
            {
              "pitch": 82,
              "velocity": 34,
              "position": 17.520833333333332,
              "duration": 0.2625
            },
            {
              "pitch": 79,
              "velocity": 34,
              "position": 17.5,
              "duration": 0.30416666666666664
            },
            {
              "pitch": 79,
              "velocity": 42,
              "position": 17.8125,
              "duration": 0.15833333333333333
            },
            {
              "pitch": 82,
              "velocity": 42,
              "position": 17.791666666666668,
              "duration": 0.17916666666666667
            },
            {
              "pitch": 86,
              "velocity": 42,
              "position": 17.770833333333332,
              "duration": 0.2
            },
            {
              "pitch": 108,
              "velocity": 84,
              "position": 17.75,
              "duration": 0.23958333333333334
            },
            {
              "pitch": 102,
              "velocity": 84,
              "position": 18,
              "duration": 0.23958333333333334
            },
            {
              "pitch": 103,
              "velocity": 84,
              "position": 18.25,
              "duration": 0.23958333333333334
            },
            {
              "pitch": 108,
              "velocity": 84,
              "position": 18.5,
              "duration": 0.23958333333333334
            },
            {
              "pitch": 76,
              "velocity": 42,
              "position": 18.520833333333332,
              "duration": 0.24166666666666667
            },
            {
              "pitch": 107,
              "velocity": 84,
              "position": 18.75,
              "duration": 0.23958333333333334
            },
            {
              "pitch": 70,
              "velocity": 42,
              "position": 18.5,
              "duration": 0.49166666666666664
            },
            {
              "pitch": 106,
              "velocity": 84,
              "position": 19,
              "duration": 0.23958333333333334
            },
            {
              "pitch": 76,
              "velocity": 34,
              "position": 18.770833333333332,
              "duration": 0.49166666666666664
            },
            {
              "pitch": 70,
              "velocity": 26,
              "position": 19,
              "duration": 0.2833333333333333
            },
            {
              "pitch": 105,
              "velocity": 84,
              "position": 19.25,
              "duration": 0.23958333333333334
            },
            {
              "pitch": 70,
              "velocity": 34,
              "position": 19.291666666666668,
              "duration": 0.2
            },
            {
              "pitch": 76,
              "velocity": 34,
              "position": 19.270833333333332,
              "duration": 0.24166666666666667
            },
            {
              "pitch": 108,
              "velocity": 84,
              "position": 19.5,
              "duration": 0.23958333333333334
            },
            {
              "pitch": 70,
              "velocity": 42,
              "position": 19.5,
              "duration": 0.2833333333333333
            },
            {
              "pitch": 76,
              "velocity": 42,
              "position": 19.520833333333332,
              "duration": 0.2625
            },
            {
              "pitch": 103,
              "velocity": 84,
              "position": 19.75,
              "duration": 0.23958333333333334
            },
            {
              "pitch": 108,
              "velocity": 84,
              "position": 20,
              "duration": 0.23958333333333334
            },
            {
              "pitch": 79,
              "velocity": 42,
              "position": 20,
              "duration": 0.2833333333333333
            },
            {
              "pitch": 82,
              "velocity": 42,
              "position": 20.020833333333332,
              "duration": 0.2625
            },
            {
              "pitch": 86,
              "velocity": 42,
              "position": 20.041666666666668,
              "duration": 0.24166666666666667
            },
            {
              "pitch": 103,
              "velocity": 84,
              "position": 20.25,
              "duration": 0.23958333333333334
            },
            {
              "pitch": 108,
              "velocity": 84,
              "position": 20.5,
              "duration": 0.23958333333333334
            },
            {
              "pitch": 79,
              "velocity": 42,
              "position": 20.5,
              "duration": 0.2833333333333333
            },
            {
              "pitch": 82,
              "velocity": 42,
              "position": 20.520833333333332,
              "duration": 0.2625
            },
            {
              "pitch": 86,
              "velocity": 42,
              "position": 20.541666666666668,
              "duration": 0.24166666666666667
            },
            {
              "pitch": 103,
              "velocity": 84,
              "position": 20.75,
              "duration": 0.23958333333333334
            },
            {
              "pitch": 108,
              "velocity": 84,
              "position": 21,
              "duration": 0.23958333333333334
            },
            {
              "pitch": 79,
              "velocity": 42,
              "position": 21,
              "duration": 0.2833333333333333
            },
            {
              "pitch": 82,
              "velocity": 42,
              "position": 21.020833333333332,
              "duration": 0.2625
            },
            {
              "pitch": 86,
              "velocity": 42,
              "position": 21.041666666666668,
              "duration": 0.24166666666666667
            },
            {
              "pitch": 103,
              "velocity": 84,
              "position": 21.25,
              "duration": 0.23958333333333334
            },
            {
              "pitch": 102,
              "velocity": 84,
              "position": 21.5,
              "duration": 0.23958333333333334
            },
            {
              "pitch": 103,
              "velocity": 84,
              "position": 21.75,
              "duration": 0.23958333333333334
            },
            {
              "pitch": 102,
              "velocity": 84,
              "position": 22,
              "duration": 0.23958333333333334
            },
            {
              "pitch": 103,
              "velocity": 84,
              "position": 22.25,
              "duration": 0.23958333333333334
            },
            {
              "pitch": 106,
              "velocity": 84,
              "position": 22.5,
              "duration": 0.23958333333333334
            },
            {
              "pitch": 70,
              "velocity": 42,
              "position": 22.520833333333332,
              "duration": 0.24166666666666667
            },
            {
              "pitch": 67,
              "velocity": 42,
              "position": 22.5,
              "duration": 0.2833333333333333
            },
            {
              "pitch": 72,
              "velocity": 100,
              "position": 22.770833333333332,
              "duration": 0.15833333333333333
            },
            {
              "pitch": 69,
              "velocity": 100,
              "position": 22.791666666666668,
              "duration": 0.17916666666666667
            },
            {
              "pitch": 108,
              "velocity": 84,
              "position": 22.75,
              "duration": 0.23958333333333334
            },
            {
              "pitch": 102,
              "velocity": 84,
              "position": 23,
              "duration": 0.23958333333333334
            },
            {
              "pitch": 70,
              "velocity": 34,
              "position": 23.270833333333332,
              "duration": 0.15833333333333333
            },
            {
              "pitch": 67,
              "velocity": 34,
              "position": 23.291666666666668,
              "duration": 0.17916666666666667
            },
            {
              "pitch": 106,
              "velocity": 84,
              "position": 23.25,
              "duration": 0.23958333333333334
            },
            {
              "pitch": 102,
              "velocity": 84,
              "position": 23.5,
              "duration": 0.23958333333333334
            },
            {
              "pitch": 103,
              "velocity": 84,
              "position": 23.75,
              "duration": 0.23958333333333334
            },
            {
              "pitch": 108,
              "velocity": 84,
              "position": 24,
              "duration": 0.23958333333333334
            },
            {
              "pitch": 79,
              "velocity": 42,
              "position": 24,
              "duration": 0.2833333333333333
            },
            {
              "pitch": 82,
              "velocity": 42,
              "position": 24.020833333333332,
              "duration": 0.2625
            },
            {
              "pitch": 86,
              "velocity": 42,
              "position": 24.041666666666668,
              "duration": 0.24166666666666667
            },
            {
              "pitch": 103,
              "velocity": 84,
              "position": 24.25,
              "duration": 0.23958333333333334
            },
            {
              "pitch": 108,
              "velocity": 84,
              "position": 24.5,
              "duration": 0.23958333333333334
            },
            {
              "pitch": 79,
              "velocity": 37,
              "position": 24.5,
              "duration": 0.2833333333333333
            },
            {
              "pitch": 82,
              "velocity": 37,
              "position": 24.520833333333332,
              "duration": 0.2625
            },
            {
              "pitch": 86,
              "velocity": 37,
              "position": 24.541666666666668,
              "duration": 0.24166666666666667
            },
            {
              "pitch": 103,
              "velocity": 84,
              "position": 24.75,
              "duration": 0.23958333333333334
            },
            {
              "pitch": 108,
              "velocity": 84,
              "position": 25,
              "duration": 0.23958333333333334
            },
            {
              "pitch": 79,
              "velocity": 42,
              "position": 25,
              "duration": 0.2833333333333333
            },
            {
              "pitch": 82,
              "velocity": 42,
              "position": 25.020833333333332,
              "duration": 0.2625
            },
            {
              "pitch": 86,
              "velocity": 42,
              "position": 25.041666666666668,
              "duration": 0.24166666666666667
            },
            {
              "pitch": 103,
              "velocity": 84,
              "position": 25.25,
              "duration": 0.23958333333333334
            },
            {
              "pitch": 106,
              "velocity": 84,
              "position": 25.5,
              "duration": 0.23958333333333334
            },
            {
              "pitch": 86,
              "velocity": 34,
              "position": 25.541666666666668,
              "duration": 0.22083333333333333
            },
            {
              "pitch": 82,
              "velocity": 34,
              "position": 25.520833333333332,
              "duration": 0.2625
            },
            {
              "pitch": 79,
              "velocity": 34,
              "position": 25.5,
              "duration": 0.30416666666666664
            },
            {
              "pitch": 79,
              "velocity": 42,
              "position": 25.8125,
              "duration": 0.15833333333333333
            },
            {
              "pitch": 82,
              "velocity": 42,
              "position": 25.791666666666668,
              "duration": 0.17916666666666667
            },
            {
              "pitch": 86,
              "velocity": 42,
              "position": 25.770833333333332,
              "duration": 0.2
            },
            {
              "pitch": 108,
              "velocity": 84,
              "position": 25.75,
              "duration": 0.23958333333333334
            },
            {
              "pitch": 102,
              "velocity": 84,
              "position": 26,
              "duration": 0.23958333333333334
            },
            {
              "pitch": 103,
              "velocity": 84,
              "position": 26.25,
              "duration": 0.23958333333333334
            },
            {
              "pitch": 108,
              "velocity": 84,
              "position": 26.5,
              "duration": 0.23958333333333334
            },
            {
              "pitch": 76,
              "velocity": 42,
              "position": 26.520833333333332,
              "duration": 0.24166666666666667
            },
            {
              "pitch": 107,
              "velocity": 84,
              "position": 26.75,
              "duration": 0.23958333333333334
            },
            {
              "pitch": 70,
              "velocity": 42,
              "position": 26.5,
              "duration": 0.49166666666666664
            },
            {
              "pitch": 106,
              "velocity": 84,
              "position": 27,
              "duration": 0.23958333333333334
            },
            {
              "pitch": 76,
              "velocity": 34,
              "position": 26.770833333333332,
              "duration": 0.49166666666666664
            },
            {
              "pitch": 70,
              "velocity": 26,
              "position": 27,
              "duration": 0.2833333333333333
            },
            {
              "pitch": 105,
              "velocity": 84,
              "position": 27.25,
              "duration": 0.23958333333333334
            },
            {
              "pitch": 70,
              "velocity": 34,
              "position": 27.291666666666668,
              "duration": 0.2
            },
            {
              "pitch": 76,
              "velocity": 34,
              "position": 27.270833333333332,
              "duration": 0.24166666666666667
            },
            {
              "pitch": 108,
              "velocity": 84,
              "position": 27.5,
              "duration": 0.23958333333333334
            },
            {
              "pitch": 70,
              "velocity": 42,
              "position": 27.5,
              "duration": 0.2833333333333333
            },
            {
              "pitch": 76,
              "velocity": 42,
              "position": 27.520833333333332,
              "duration": 0.2625
            },
            {
              "pitch": 103,
              "velocity": 84,
              "position": 27.75,
              "duration": 0.23958333333333334
            },
            {
              "pitch": 108,
              "velocity": 84,
              "position": 28,
              "duration": 0.23958333333333334
            },
            {
              "pitch": 79,
              "velocity": 42,
              "position": 28,
              "duration": 0.2833333333333333
            },
            {
              "pitch": 82,
              "velocity": 42,
              "position": 28.020833333333332,
              "duration": 0.2625
            },
            {
              "pitch": 86,
              "velocity": 42,
              "position": 28.041666666666668,
              "duration": 0.24166666666666667
            },
            {
              "pitch": 103,
              "velocity": 84,
              "position": 28.25,
              "duration": 0.23958333333333334
            },
            {
              "pitch": 108,
              "velocity": 84,
              "position": 28.5,
              "duration": 0.23958333333333334
            },
            {
              "pitch": 79,
              "velocity": 42,
              "position": 28.5,
              "duration": 0.2833333333333333
            },
            {
              "pitch": 82,
              "velocity": 42,
              "position": 28.520833333333332,
              "duration": 0.2625
            },
            {
              "pitch": 86,
              "velocity": 42,
              "position": 28.541666666666668,
              "duration": 0.24166666666666667
            },
            {
              "pitch": 103,
              "velocity": 84,
              "position": 28.75,
              "duration": 0.23958333333333334
            },
            {
              "pitch": 108,
              "velocity": 84,
              "position": 29,
              "duration": 0.23958333333333334
            },
            {
              "pitch": 79,
              "velocity": 42,
              "position": 29,
              "duration": 0.2833333333333333
            },
            {
              "pitch": 82,
              "velocity": 42,
              "position": 29.020833333333332,
              "duration": 0.2625
            },
            {
              "pitch": 86,
              "velocity": 42,
              "position": 29.041666666666668,
              "duration": 0.24166666666666667
            },
            {
              "pitch": 103,
              "velocity": 84,
              "position": 29.25,
              "duration": 0.23958333333333334
            },
            {
              "pitch": 102,
              "velocity": 84,
              "position": 29.5,
              "duration": 0.23958333333333334
            },
            {
              "pitch": 103,
              "velocity": 84,
              "position": 29.75,
              "duration": 0.23958333333333334
            },
            {
              "pitch": 102,
              "velocity": 84,
              "position": 30,
              "duration": 0.23958333333333334
            },
            {
              "pitch": 103,
              "velocity": 84,
              "position": 30.25,
              "duration": 0.23958333333333334
            },
            {
              "pitch": 106,
              "velocity": 84,
              "position": 30.5,
              "duration": 0.23958333333333334
            },
            {
              "pitch": 70,
              "velocity": 42,
              "position": 30.520833333333332,
              "duration": 0.24166666666666667
            },
            {
              "pitch": 67,
              "velocity": 42,
              "position": 30.5,
              "duration": 0.2833333333333333
            },
            {
              "pitch": 72,
              "velocity": 100,
              "position": 30.770833333333332,
              "duration": 0.15833333333333333
            },
            {
              "pitch": 69,
              "velocity": 100,
              "position": 30.791666666666668,
              "duration": 0.17916666666666667
            },
            {
              "pitch": 108,
              "velocity": 84,
              "position": 30.75,
              "duration": 0.23958333333333334
            },
            {
              "pitch": 102,
              "velocity": 84,
              "position": 31,
              "duration": 0.23958333333333334
            },
            {
              "pitch": 70,
              "velocity": 34,
              "position": 31.270833333333332,
              "duration": 0.15833333333333333
            },
            {
              "pitch": 67,
              "velocity": 34,
              "position": 31.291666666666668,
              "duration": 0.17916666666666667
            },
            {
              "pitch": 106,
              "velocity": 84,
              "position": 31.25,
              "duration": 0.23958333333333334
            },
            {
              "pitch": 102,
              "velocity": 84,
              "position": 31.5,
              "duration": 0.23958333333333334
            },
            {
              "pitch": 103,
              "velocity": 84,
              "position": 31.75,
              "duration": 0.23958333333333334
            }
          ]
        },
        "2": {
          "ctab": {
            "srcChannel": 2,
            "name": "Gt Min",
            "accType": "CHORD1",
            "editable": false,
            "mutedNotes": [],
            "mutedChords": [
              "1+2+5",
              "sus4",
              "1+5",
              "1+8",
              "7aug",
              "Maj7aug",
              "7(#9)",
              "7(b13)",
              "7(b9)",
              "7(13)",
              "7#11",
              "7(9)",
              "7b5",
              "7sus4",
              "7th",
              "dim7",
              "dim",
              "minMaj7(9)",
              "minMaj7",
              "min7(11)",
              "min7(9)",
              "min(9)",
              "m7b5",
              "min7",
              "min6",
              "aug",
              "Maj6(9)",
              "Maj7(9)",
              "Maj(9)",
              "Maj7#11",
              "Maj7",
              "Maj6",
              "Maj"
            ],
            "autoStart": false,
            "sourceChordNote": 0,
            "sourceChordType": "min7",
            "ctb2Low": null,
            "ctb2Main": {
              "ntr": "ROOT_TRANSPOSITION",
              "ntt": "MELODIC_MINOR_5",
              "bassOn": false,
              "chordRootUpperLimit": 7,
              "noteLowLimit": 55,
              "noteHighLimit": 77,
              "rtr": "PITCH_SHIFT"
            },
            "ctb2High": null
          },
          "notes": [
            {
              "pitch": 108,
              "velocity": 84,
              "position": 0.010416666666666666,
              "duration": 0.23125
            },
            {
              "pitch": 79,
              "velocity": 42,
              "position": 0.010416666666666666,
              "duration": 0.2833333333333333
            },
            {
              "pitch": 82,
              "velocity": 42,
              "position": 0.03125,
              "duration": 0.2625
            },
            {
              "pitch": 87,
              "velocity": 42,
              "position": 0.052083333333333336,
              "duration": 0.24166666666666667
            },
            {
              "pitch": 103,
              "velocity": 84,
              "position": 0.25,
              "duration": 0.23958333333333334
            },
            {
              "pitch": 108,
              "velocity": 84,
              "position": 0.5,
              "duration": 0.23958333333333334
            },
            {
              "pitch": 79,
              "velocity": 37,
              "position": 0.5,
              "duration": 0.2833333333333333
            },
            {
              "pitch": 82,
              "velocity": 37,
              "position": 0.5208333333333334,
              "duration": 0.2625
            },
            {
              "pitch": 87,
              "velocity": 37,
              "position": 0.5416666666666666,
              "duration": 0.24166666666666667
            },
            {
              "pitch": 103,
              "velocity": 84,
              "position": 0.75,
              "duration": 0.23958333333333334
            },
            {
              "pitch": 108,
              "velocity": 84,
              "position": 1,
              "duration": 0.23958333333333334
            },
            {
              "pitch": 79,
              "velocity": 42,
              "position": 1,
              "duration": 0.2833333333333333
            },
            {
              "pitch": 82,
              "velocity": 42,
              "position": 1.0208333333333333,
              "duration": 0.2625
            },
            {
              "pitch": 87,
              "velocity": 42,
              "position": 1.0416666666666667,
              "duration": 0.24166666666666667
            },
            {
              "pitch": 103,
              "velocity": 84,
              "position": 1.25,
              "duration": 0.23958333333333334
            },
            {
              "pitch": 106,
              "velocity": 84,
              "position": 1.5,
              "duration": 0.23958333333333334
            },
            {
              "pitch": 87,
              "velocity": 34,
              "position": 1.5416666666666667,
              "duration": 0.22083333333333333
            },
            {
              "pitch": 82,
              "velocity": 34,
              "position": 1.5208333333333333,
              "duration": 0.2625
            },
            {
              "pitch": 79,
              "velocity": 34,
              "position": 1.5,
              "duration": 0.30416666666666664
            },
            {
              "pitch": 79,
              "velocity": 42,
              "position": 1.8125,
              "duration": 0.15833333333333333
            },
            {
              "pitch": 82,
              "velocity": 42,
              "position": 1.7916666666666667,
              "duration": 0.17916666666666667
            },
            {
              "pitch": 87,
              "velocity": 42,
              "position": 1.7708333333333333,
              "duration": 0.2
            },
            {
              "pitch": 108,
              "velocity": 84,
              "position": 1.75,
              "duration": 0.23958333333333334
            },
            {
              "pitch": 102,
              "velocity": 84,
              "position": 2,
              "duration": 0.23958333333333334
            },
            {
              "pitch": 103,
              "velocity": 84,
              "position": 2.25,
              "duration": 0.23958333333333334
            },
            {
              "pitch": 108,
              "velocity": 84,
              "position": 2.5,
              "duration": 0.23958333333333334
            },
            {
              "pitch": 75,
              "velocity": 42,
              "position": 2.5208333333333335,
              "duration": 0.24166666666666667
            },
            {
              "pitch": 107,
              "velocity": 84,
              "position": 2.75,
              "duration": 0.23958333333333334
            },
            {
              "pitch": 70,
              "velocity": 42,
              "position": 2.5,
              "duration": 0.49166666666666664
            },
            {
              "pitch": 106,
              "velocity": 84,
              "position": 3,
              "duration": 0.23958333333333334
            },
            {
              "pitch": 75,
              "velocity": 34,
              "position": 2.7708333333333335,
              "duration": 0.49166666666666664
            },
            {
              "pitch": 70,
              "velocity": 26,
              "position": 3,
              "duration": 0.2833333333333333
            },
            {
              "pitch": 105,
              "velocity": 84,
              "position": 3.25,
              "duration": 0.23958333333333334
            },
            {
              "pitch": 70,
              "velocity": 34,
              "position": 3.2916666666666665,
              "duration": 0.2
            },
            {
              "pitch": 75,
              "velocity": 34,
              "position": 3.2708333333333335,
              "duration": 0.24166666666666667
            },
            {
              "pitch": 108,
              "velocity": 84,
              "position": 3.5,
              "duration": 0.23958333333333334
            },
            {
              "pitch": 70,
              "velocity": 42,
              "position": 3.5,
              "duration": 0.2833333333333333
            },
            {
              "pitch": 75,
              "velocity": 42,
              "position": 3.5208333333333335,
              "duration": 0.2625
            },
            {
              "pitch": 103,
              "velocity": 84,
              "position": 3.75,
              "duration": 0.23958333333333334
            },
            {
              "pitch": 108,
              "velocity": 84,
              "position": 4,
              "duration": 0.23958333333333334
            },
            {
              "pitch": 79,
              "velocity": 42,
              "position": 4,
              "duration": 0.2833333333333333
            },
            {
              "pitch": 82,
              "velocity": 42,
              "position": 4.020833333333333,
              "duration": 0.2625
            },
            {
              "pitch": 87,
              "velocity": 42,
              "position": 4.041666666666667,
              "duration": 0.24166666666666667
            },
            {
              "pitch": 103,
              "velocity": 84,
              "position": 4.25,
              "duration": 0.23958333333333334
            },
            {
              "pitch": 108,
              "velocity": 84,
              "position": 4.5,
              "duration": 0.23958333333333334
            },
            {
              "pitch": 79,
              "velocity": 42,
              "position": 4.5,
              "duration": 0.2833333333333333
            },
            {
              "pitch": 82,
              "velocity": 42,
              "position": 4.520833333333333,
              "duration": 0.2625
            },
            {
              "pitch": 87,
              "velocity": 42,
              "position": 4.541666666666667,
              "duration": 0.24166666666666667
            },
            {
              "pitch": 103,
              "velocity": 84,
              "position": 4.75,
              "duration": 0.23958333333333334
            },
            {
              "pitch": 108,
              "velocity": 84,
              "position": 5,
              "duration": 0.23958333333333334
            },
            {
              "pitch": 79,
              "velocity": 42,
              "position": 5,
              "duration": 0.2833333333333333
            },
            {
              "pitch": 82,
              "velocity": 42,
              "position": 5.020833333333333,
              "duration": 0.2625
            },
            {
              "pitch": 87,
              "velocity": 42,
              "position": 5.041666666666667,
              "duration": 0.24166666666666667
            },
            {
              "pitch": 103,
              "velocity": 84,
              "position": 5.25,
              "duration": 0.23958333333333334
            },
            {
              "pitch": 102,
              "velocity": 84,
              "position": 5.5,
              "duration": 0.23958333333333334
            },
            {
              "pitch": 103,
              "velocity": 84,
              "position": 5.75,
              "duration": 0.23958333333333334
            },
            {
              "pitch": 102,
              "velocity": 84,
              "position": 6,
              "duration": 0.23958333333333334
            },
            {
              "pitch": 103,
              "velocity": 84,
              "position": 6.25,
              "duration": 0.23958333333333334
            },
            {
              "pitch": 106,
              "velocity": 84,
              "position": 6.5,
              "duration": 0.23958333333333334
            },
            {
              "pitch": 70,
              "velocity": 42,
              "position": 6.520833333333333,
              "duration": 0.24166666666666667
            },
            {
              "pitch": 67,
              "velocity": 42,
              "position": 6.5,
              "duration": 0.2833333333333333
            },
            {
              "pitch": 69,
              "velocity": 100,
              "position": 6.770833333333333,
              "duration": 0.15833333333333333
            },
            {
              "pitch": 65,
              "velocity": 100,
              "position": 6.791666666666667,
              "duration": 0.17916666666666667
            },
            {
              "pitch": 108,
              "velocity": 84,
              "position": 6.75,
              "duration": 0.23958333333333334
            },
            {
              "pitch": 102,
              "velocity": 84,
              "position": 7,
              "duration": 0.23958333333333334
            },
            {
              "pitch": 67,
              "velocity": 34,
              "position": 7.270833333333333,
              "duration": 0.15833333333333333
            },
            {
              "pitch": 63,
              "velocity": 34,
              "position": 7.291666666666667,
              "duration": 0.17916666666666667
            },
            {
              "pitch": 106,
              "velocity": 84,
              "position": 7.25,
              "duration": 0.23958333333333334
            },
            {
              "pitch": 102,
              "velocity": 84,
              "position": 7.5,
              "duration": 0.23958333333333334
            },
            {
              "pitch": 103,
              "velocity": 84,
              "position": 7.75,
              "duration": 0.23958333333333334
            },
            {
              "pitch": 108,
              "velocity": 84,
              "position": 8,
              "duration": 0.23958333333333334
            },
            {
              "pitch": 79,
              "velocity": 42,
              "position": 8,
              "duration": 0.2833333333333333
            },
            {
              "pitch": 82,
              "velocity": 42,
              "position": 8.020833333333334,
              "duration": 0.2625
            },
            {
              "pitch": 87,
              "velocity": 42,
              "position": 8.041666666666666,
              "duration": 0.24166666666666667
            },
            {
              "pitch": 103,
              "velocity": 84,
              "position": 8.25,
              "duration": 0.23958333333333334
            },
            {
              "pitch": 108,
              "velocity": 84,
              "position": 8.5,
              "duration": 0.23958333333333334
            },
            {
              "pitch": 79,
              "velocity": 37,
              "position": 8.5,
              "duration": 0.2833333333333333
            },
            {
              "pitch": 82,
              "velocity": 37,
              "position": 8.520833333333334,
              "duration": 0.2625
            },
            {
              "pitch": 87,
              "velocity": 37,
              "position": 8.541666666666666,
              "duration": 0.24166666666666667
            },
            {
              "pitch": 103,
              "velocity": 84,
              "position": 8.75,
              "duration": 0.23958333333333334
            },
            {
              "pitch": 108,
              "velocity": 84,
              "position": 9,
              "duration": 0.23958333333333334
            },
            {
              "pitch": 79,
              "velocity": 42,
              "position": 9,
              "duration": 0.2833333333333333
            },
            {
              "pitch": 82,
              "velocity": 42,
              "position": 9.020833333333334,
              "duration": 0.2625
            },
            {
              "pitch": 87,
              "velocity": 42,
              "position": 9.041666666666666,
              "duration": 0.24166666666666667
            },
            {
              "pitch": 103,
              "velocity": 84,
              "position": 9.25,
              "duration": 0.23958333333333334
            },
            {
              "pitch": 106,
              "velocity": 84,
              "position": 9.5,
              "duration": 0.23958333333333334
            },
            {
              "pitch": 87,
              "velocity": 34,
              "position": 9.541666666666666,
              "duration": 0.22083333333333333
            },
            {
              "pitch": 82,
              "velocity": 34,
              "position": 9.520833333333334,
              "duration": 0.2625
            },
            {
              "pitch": 79,
              "velocity": 34,
              "position": 9.5,
              "duration": 0.30416666666666664
            },
            {
              "pitch": 79,
              "velocity": 42,
              "position": 9.8125,
              "duration": 0.15833333333333333
            },
            {
              "pitch": 82,
              "velocity": 42,
              "position": 9.791666666666666,
              "duration": 0.17916666666666667
            },
            {
              "pitch": 87,
              "velocity": 42,
              "position": 9.770833333333334,
              "duration": 0.2
            },
            {
              "pitch": 108,
              "velocity": 84,
              "position": 9.75,
              "duration": 0.23958333333333334
            },
            {
              "pitch": 102,
              "velocity": 84,
              "position": 10,
              "duration": 0.23958333333333334
            },
            {
              "pitch": 103,
              "velocity": 84,
              "position": 10.25,
              "duration": 0.23958333333333334
            },
            {
              "pitch": 108,
              "velocity": 84,
              "position": 10.5,
              "duration": 0.23958333333333334
            },
            {
              "pitch": 75,
              "velocity": 42,
              "position": 10.520833333333334,
              "duration": 0.24166666666666667
            },
            {
              "pitch": 107,
              "velocity": 84,
              "position": 10.75,
              "duration": 0.23958333333333334
            },
            {
              "pitch": 70,
              "velocity": 42,
              "position": 10.5,
              "duration": 0.49166666666666664
            },
            {
              "pitch": 106,
              "velocity": 84,
              "position": 11,
              "duration": 0.23958333333333334
            },
            {
              "pitch": 75,
              "velocity": 34,
              "position": 10.770833333333334,
              "duration": 0.49166666666666664
            },
            {
              "pitch": 70,
              "velocity": 26,
              "position": 11,
              "duration": 0.2833333333333333
            },
            {
              "pitch": 105,
              "velocity": 84,
              "position": 11.25,
              "duration": 0.23958333333333334
            },
            {
              "pitch": 70,
              "velocity": 34,
              "position": 11.291666666666666,
              "duration": 0.2
            },
            {
              "pitch": 75,
              "velocity": 34,
              "position": 11.270833333333334,
              "duration": 0.24166666666666667
            },
            {
              "pitch": 108,
              "velocity": 84,
              "position": 11.5,
              "duration": 0.23958333333333334
            },
            {
              "pitch": 70,
              "velocity": 42,
              "position": 11.5,
              "duration": 0.2833333333333333
            },
            {
              "pitch": 75,
              "velocity": 42,
              "position": 11.520833333333334,
              "duration": 0.2625
            },
            {
              "pitch": 103,
              "velocity": 84,
              "position": 11.75,
              "duration": 0.23958333333333334
            },
            {
              "pitch": 108,
              "velocity": 84,
              "position": 12,
              "duration": 0.23958333333333334
            },
            {
              "pitch": 79,
              "velocity": 42,
              "position": 12,
              "duration": 0.2833333333333333
            },
            {
              "pitch": 82,
              "velocity": 42,
              "position": 12.020833333333334,
              "duration": 0.2625
            },
            {
              "pitch": 87,
              "velocity": 42,
              "position": 12.041666666666666,
              "duration": 0.24166666666666667
            },
            {
              "pitch": 103,
              "velocity": 84,
              "position": 12.25,
              "duration": 0.23958333333333334
            },
            {
              "pitch": 108,
              "velocity": 84,
              "position": 12.5,
              "duration": 0.23958333333333334
            },
            {
              "pitch": 79,
              "velocity": 42,
              "position": 12.5,
              "duration": 0.2833333333333333
            },
            {
              "pitch": 82,
              "velocity": 42,
              "position": 12.520833333333334,
              "duration": 0.2625
            },
            {
              "pitch": 87,
              "velocity": 42,
              "position": 12.541666666666666,
              "duration": 0.24166666666666667
            },
            {
              "pitch": 103,
              "velocity": 84,
              "position": 12.75,
              "duration": 0.23958333333333334
            },
            {
              "pitch": 108,
              "velocity": 84,
              "position": 13,
              "duration": 0.23958333333333334
            },
            {
              "pitch": 79,
              "velocity": 42,
              "position": 13,
              "duration": 0.2833333333333333
            },
            {
              "pitch": 82,
              "velocity": 42,
              "position": 13.020833333333334,
              "duration": 0.2625
            },
            {
              "pitch": 87,
              "velocity": 42,
              "position": 13.041666666666666,
              "duration": 0.24166666666666667
            },
            {
              "pitch": 103,
              "velocity": 84,
              "position": 13.25,
              "duration": 0.23958333333333334
            },
            {
              "pitch": 102,
              "velocity": 84,
              "position": 13.5,
              "duration": 0.23958333333333334
            },
            {
              "pitch": 103,
              "velocity": 84,
              "position": 13.75,
              "duration": 0.23958333333333334
            },
            {
              "pitch": 102,
              "velocity": 84,
              "position": 14,
              "duration": 0.23958333333333334
            },
            {
              "pitch": 103,
              "velocity": 84,
              "position": 14.25,
              "duration": 0.23958333333333334
            },
            {
              "pitch": 106,
              "velocity": 84,
              "position": 14.5,
              "duration": 0.23958333333333334
            },
            {
              "pitch": 70,
              "velocity": 42,
              "position": 14.520833333333334,
              "duration": 0.24166666666666667
            },
            {
              "pitch": 67,
              "velocity": 42,
              "position": 14.5,
              "duration": 0.2833333333333333
            },
            {
              "pitch": 69,
              "velocity": 100,
              "position": 14.770833333333334,
              "duration": 0.15833333333333333
            },
            {
              "pitch": 65,
              "velocity": 100,
              "position": 14.791666666666666,
              "duration": 0.17916666666666667
            },
            {
              "pitch": 108,
              "velocity": 84,
              "position": 14.75,
              "duration": 0.23958333333333334
            },
            {
              "pitch": 102,
              "velocity": 84,
              "position": 15,
              "duration": 0.23958333333333334
            },
            {
              "pitch": 67,
              "velocity": 34,
              "position": 15.270833333333334,
              "duration": 0.15833333333333333
            },
            {
              "pitch": 63,
              "velocity": 34,
              "position": 15.291666666666666,
              "duration": 0.17916666666666667
            },
            {
              "pitch": 106,
              "velocity": 84,
              "position": 15.25,
              "duration": 0.23958333333333334
            },
            {
              "pitch": 102,
              "velocity": 84,
              "position": 15.5,
              "duration": 0.23958333333333334
            },
            {
              "pitch": 103,
              "velocity": 84,
              "position": 15.75,
              "duration": 0.23958333333333334
            },
            {
              "pitch": 108,
              "velocity": 84,
              "position": 16,
              "duration": 0.23958333333333334
            },
            {
              "pitch": 79,
              "velocity": 42,
              "position": 16,
              "duration": 0.2833333333333333
            },
            {
              "pitch": 82,
              "velocity": 42,
              "position": 16.020833333333332,
              "duration": 0.2625
            },
            {
              "pitch": 87,
              "velocity": 42,
              "position": 16.041666666666668,
              "duration": 0.24166666666666667
            },
            {
              "pitch": 103,
              "velocity": 84,
              "position": 16.25,
              "duration": 0.23958333333333334
            },
            {
              "pitch": 108,
              "velocity": 84,
              "position": 16.5,
              "duration": 0.23958333333333334
            },
            {
              "pitch": 79,
              "velocity": 37,
              "position": 16.5,
              "duration": 0.2833333333333333
            },
            {
              "pitch": 82,
              "velocity": 37,
              "position": 16.520833333333332,
              "duration": 0.2625
            },
            {
              "pitch": 87,
              "velocity": 37,
              "position": 16.541666666666668,
              "duration": 0.24166666666666667
            },
            {
              "pitch": 103,
              "velocity": 84,
              "position": 16.75,
              "duration": 0.23958333333333334
            },
            {
              "pitch": 108,
              "velocity": 84,
              "position": 17,
              "duration": 0.23958333333333334
            },
            {
              "pitch": 79,
              "velocity": 42,
              "position": 17,
              "duration": 0.2833333333333333
            },
            {
              "pitch": 82,
              "velocity": 42,
              "position": 17.020833333333332,
              "duration": 0.2625
            },
            {
              "pitch": 87,
              "velocity": 42,
              "position": 17.041666666666668,
              "duration": 0.24166666666666667
            },
            {
              "pitch": 103,
              "velocity": 84,
              "position": 17.25,
              "duration": 0.23958333333333334
            },
            {
              "pitch": 106,
              "velocity": 84,
              "position": 17.5,
              "duration": 0.23958333333333334
            },
            {
              "pitch": 87,
              "velocity": 34,
              "position": 17.541666666666668,
              "duration": 0.22083333333333333
            },
            {
              "pitch": 82,
              "velocity": 34,
              "position": 17.520833333333332,
              "duration": 0.2625
            },
            {
              "pitch": 79,
              "velocity": 34,
              "position": 17.5,
              "duration": 0.30416666666666664
            },
            {
              "pitch": 79,
              "velocity": 42,
              "position": 17.8125,
              "duration": 0.15833333333333333
            },
            {
              "pitch": 82,
              "velocity": 42,
              "position": 17.791666666666668,
              "duration": 0.17916666666666667
            },
            {
              "pitch": 87,
              "velocity": 42,
              "position": 17.770833333333332,
              "duration": 0.2
            },
            {
              "pitch": 108,
              "velocity": 84,
              "position": 17.75,
              "duration": 0.23958333333333334
            },
            {
              "pitch": 102,
              "velocity": 84,
              "position": 18,
              "duration": 0.23958333333333334
            },
            {
              "pitch": 103,
              "velocity": 84,
              "position": 18.25,
              "duration": 0.23958333333333334
            },
            {
              "pitch": 108,
              "velocity": 84,
              "position": 18.5,
              "duration": 0.23958333333333334
            },
            {
              "pitch": 75,
              "velocity": 42,
              "position": 18.520833333333332,
              "duration": 0.24166666666666667
            },
            {
              "pitch": 107,
              "velocity": 84,
              "position": 18.75,
              "duration": 0.23958333333333334
            },
            {
              "pitch": 70,
              "velocity": 42,
              "position": 18.5,
              "duration": 0.49166666666666664
            },
            {
              "pitch": 106,
              "velocity": 84,
              "position": 19,
              "duration": 0.23958333333333334
            },
            {
              "pitch": 75,
              "velocity": 34,
              "position": 18.770833333333332,
              "duration": 0.49166666666666664
            },
            {
              "pitch": 70,
              "velocity": 26,
              "position": 19,
              "duration": 0.2833333333333333
            },
            {
              "pitch": 105,
              "velocity": 84,
              "position": 19.25,
              "duration": 0.23958333333333334
            },
            {
              "pitch": 70,
              "velocity": 34,
              "position": 19.291666666666668,
              "duration": 0.2
            },
            {
              "pitch": 75,
              "velocity": 34,
              "position": 19.270833333333332,
              "duration": 0.24166666666666667
            },
            {
              "pitch": 108,
              "velocity": 84,
              "position": 19.5,
              "duration": 0.23958333333333334
            },
            {
              "pitch": 70,
              "velocity": 42,
              "position": 19.5,
              "duration": 0.2833333333333333
            },
            {
              "pitch": 75,
              "velocity": 42,
              "position": 19.520833333333332,
              "duration": 0.2625
            },
            {
              "pitch": 103,
              "velocity": 84,
              "position": 19.75,
              "duration": 0.23958333333333334
            },
            {
              "pitch": 108,
              "velocity": 84,
              "position": 20,
              "duration": 0.23958333333333334
            },
            {
              "pitch": 79,
              "velocity": 42,
              "position": 20,
              "duration": 0.2833333333333333
            },
            {
              "pitch": 82,
              "velocity": 42,
              "position": 20.020833333333332,
              "duration": 0.2625
            },
            {
              "pitch": 87,
              "velocity": 42,
              "position": 20.041666666666668,
              "duration": 0.24166666666666667
            },
            {
              "pitch": 103,
              "velocity": 84,
              "position": 20.25,
              "duration": 0.23958333333333334
            },
            {
              "pitch": 108,
              "velocity": 84,
              "position": 20.5,
              "duration": 0.23958333333333334
            },
            {
              "pitch": 79,
              "velocity": 42,
              "position": 20.5,
              "duration": 0.2833333333333333
            },
            {
              "pitch": 82,
              "velocity": 42,
              "position": 20.520833333333332,
              "duration": 0.2625
            },
            {
              "pitch": 87,
              "velocity": 42,
              "position": 20.541666666666668,
              "duration": 0.24166666666666667
            },
            {
              "pitch": 103,
              "velocity": 84,
              "position": 20.75,
              "duration": 0.23958333333333334
            },
            {
              "pitch": 108,
              "velocity": 84,
              "position": 21,
              "duration": 0.23958333333333334
            },
            {
              "pitch": 79,
              "velocity": 42,
              "position": 21,
              "duration": 0.2833333333333333
            },
            {
              "pitch": 82,
              "velocity": 42,
              "position": 21.020833333333332,
              "duration": 0.2625
            },
            {
              "pitch": 87,
              "velocity": 42,
              "position": 21.041666666666668,
              "duration": 0.24166666666666667
            },
            {
              "pitch": 103,
              "velocity": 84,
              "position": 21.25,
              "duration": 0.23958333333333334
            },
            {
              "pitch": 102,
              "velocity": 84,
              "position": 21.5,
              "duration": 0.23958333333333334
            },
            {
              "pitch": 103,
              "velocity": 84,
              "position": 21.75,
              "duration": 0.23958333333333334
            },
            {
              "pitch": 102,
              "velocity": 84,
              "position": 22,
              "duration": 0.23958333333333334
            },
            {
              "pitch": 103,
              "velocity": 84,
              "position": 22.25,
              "duration": 0.23958333333333334
            },
            {
              "pitch": 106,
              "velocity": 84,
              "position": 22.5,
              "duration": 0.23958333333333334
            },
            {
              "pitch": 70,
              "velocity": 42,
              "position": 22.520833333333332,
              "duration": 0.24166666666666667
            },
            {
              "pitch": 67,
              "velocity": 42,
              "position": 22.5,
              "duration": 0.2833333333333333
            },
            {
              "pitch": 69,
              "velocity": 100,
              "position": 22.770833333333332,
              "duration": 0.15833333333333333
            },
            {
              "pitch": 65,
              "velocity": 100,
              "position": 22.791666666666668,
              "duration": 0.17916666666666667
            },
            {
              "pitch": 108,
              "velocity": 84,
              "position": 22.75,
              "duration": 0.23958333333333334
            },
            {
              "pitch": 102,
              "velocity": 84,
              "position": 23,
              "duration": 0.23958333333333334
            },
            {
              "pitch": 67,
              "velocity": 34,
              "position": 23.270833333333332,
              "duration": 0.15833333333333333
            },
            {
              "pitch": 63,
              "velocity": 34,
              "position": 23.291666666666668,
              "duration": 0.17916666666666667
            },
            {
              "pitch": 106,
              "velocity": 84,
              "position": 23.25,
              "duration": 0.23958333333333334
            },
            {
              "pitch": 102,
              "velocity": 84,
              "position": 23.5,
              "duration": 0.23958333333333334
            },
            {
              "pitch": 103,
              "velocity": 84,
              "position": 23.75,
              "duration": 0.23958333333333334
            },
            {
              "pitch": 108,
              "velocity": 84,
              "position": 24,
              "duration": 0.23958333333333334
            },
            {
              "pitch": 79,
              "velocity": 42,
              "position": 24,
              "duration": 0.2833333333333333
            },
            {
              "pitch": 82,
              "velocity": 42,
              "position": 24.020833333333332,
              "duration": 0.2625
            },
            {
              "pitch": 87,
              "velocity": 42,
              "position": 24.041666666666668,
              "duration": 0.24166666666666667
            },
            {
              "pitch": 103,
              "velocity": 84,
              "position": 24.25,
              "duration": 0.23958333333333334
            },
            {
              "pitch": 108,
              "velocity": 84,
              "position": 24.5,
              "duration": 0.23958333333333334
            },
            {
              "pitch": 79,
              "velocity": 37,
              "position": 24.5,
              "duration": 0.2833333333333333
            },
            {
              "pitch": 82,
              "velocity": 37,
              "position": 24.520833333333332,
              "duration": 0.2625
            },
            {
              "pitch": 87,
              "velocity": 37,
              "position": 24.541666666666668,
              "duration": 0.24166666666666667
            },
            {
              "pitch": 103,
              "velocity": 84,
              "position": 24.75,
              "duration": 0.23958333333333334
            },
            {
              "pitch": 108,
              "velocity": 84,
              "position": 25,
              "duration": 0.23958333333333334
            },
            {
              "pitch": 79,
              "velocity": 42,
              "position": 25,
              "duration": 0.2833333333333333
            },
            {
              "pitch": 82,
              "velocity": 42,
              "position": 25.020833333333332,
              "duration": 0.2625
            },
            {
              "pitch": 87,
              "velocity": 42,
              "position": 25.041666666666668,
              "duration": 0.24166666666666667
            },
            {
              "pitch": 103,
              "velocity": 84,
              "position": 25.25,
              "duration": 0.23958333333333334
            },
            {
              "pitch": 106,
              "velocity": 84,
              "position": 25.5,
              "duration": 0.23958333333333334
            },
            {
              "pitch": 87,
              "velocity": 34,
              "position": 25.541666666666668,
              "duration": 0.22083333333333333
            },
            {
              "pitch": 82,
              "velocity": 34,
              "position": 25.520833333333332,
              "duration": 0.2625
            },
            {
              "pitch": 79,
              "velocity": 34,
              "position": 25.5,
              "duration": 0.30416666666666664
            },
            {
              "pitch": 79,
              "velocity": 42,
              "position": 25.8125,
              "duration": 0.15833333333333333
            },
            {
              "pitch": 82,
              "velocity": 42,
              "position": 25.791666666666668,
              "duration": 0.17916666666666667
            },
            {
              "pitch": 87,
              "velocity": 42,
              "position": 25.770833333333332,
              "duration": 0.2
            },
            {
              "pitch": 108,
              "velocity": 84,
              "position": 25.75,
              "duration": 0.23958333333333334
            },
            {
              "pitch": 102,
              "velocity": 84,
              "position": 26,
              "duration": 0.23958333333333334
            },
            {
              "pitch": 103,
              "velocity": 84,
              "position": 26.25,
              "duration": 0.23958333333333334
            },
            {
              "pitch": 108,
              "velocity": 84,
              "position": 26.5,
              "duration": 0.23958333333333334
            },
            {
              "pitch": 75,
              "velocity": 42,
              "position": 26.520833333333332,
              "duration": 0.24166666666666667
            },
            {
              "pitch": 107,
              "velocity": 84,
              "position": 26.75,
              "duration": 0.23958333333333334
            },
            {
              "pitch": 70,
              "velocity": 42,
              "position": 26.5,
              "duration": 0.49166666666666664
            },
            {
              "pitch": 106,
              "velocity": 84,
              "position": 27,
              "duration": 0.23958333333333334
            },
            {
              "pitch": 75,
              "velocity": 34,
              "position": 26.770833333333332,
              "duration": 0.49166666666666664
            },
            {
              "pitch": 70,
              "velocity": 26,
              "position": 27,
              "duration": 0.2833333333333333
            },
            {
              "pitch": 105,
              "velocity": 84,
              "position": 27.25,
              "duration": 0.23958333333333334
            },
            {
              "pitch": 70,
              "velocity": 34,
              "position": 27.291666666666668,
              "duration": 0.2
            },
            {
              "pitch": 75,
              "velocity": 34,
              "position": 27.270833333333332,
              "duration": 0.24166666666666667
            },
            {
              "pitch": 108,
              "velocity": 84,
              "position": 27.5,
              "duration": 0.23958333333333334
            },
            {
              "pitch": 70,
              "velocity": 42,
              "position": 27.5,
              "duration": 0.2833333333333333
            },
            {
              "pitch": 75,
              "velocity": 42,
              "position": 27.520833333333332,
              "duration": 0.2625
            },
            {
              "pitch": 103,
              "velocity": 84,
              "position": 27.75,
              "duration": 0.23958333333333334
            },
            {
              "pitch": 108,
              "velocity": 84,
              "position": 28,
              "duration": 0.23958333333333334
            },
            {
              "pitch": 79,
              "velocity": 42,
              "position": 28,
              "duration": 0.2833333333333333
            },
            {
              "pitch": 82,
              "velocity": 42,
              "position": 28.020833333333332,
              "duration": 0.2625
            },
            {
              "pitch": 87,
              "velocity": 42,
              "position": 28.041666666666668,
              "duration": 0.24166666666666667
            },
            {
              "pitch": 103,
              "velocity": 84,
              "position": 28.25,
              "duration": 0.23958333333333334
            },
            {
              "pitch": 108,
              "velocity": 84,
              "position": 28.5,
              "duration": 0.23958333333333334
            },
            {
              "pitch": 79,
              "velocity": 42,
              "position": 28.5,
              "duration": 0.2833333333333333
            },
            {
              "pitch": 82,
              "velocity": 42,
              "position": 28.520833333333332,
              "duration": 0.2625
            },
            {
              "pitch": 87,
              "velocity": 42,
              "position": 28.541666666666668,
              "duration": 0.24166666666666667
            },
            {
              "pitch": 103,
              "velocity": 84,
              "position": 28.75,
              "duration": 0.23958333333333334
            },
            {
              "pitch": 108,
              "velocity": 84,
              "position": 29,
              "duration": 0.23958333333333334
            },
            {
              "pitch": 79,
              "velocity": 42,
              "position": 29,
              "duration": 0.2833333333333333
            },
            {
              "pitch": 82,
              "velocity": 42,
              "position": 29.020833333333332,
              "duration": 0.2625
            },
            {
              "pitch": 87,
              "velocity": 42,
              "position": 29.041666666666668,
              "duration": 0.24166666666666667
            },
            {
              "pitch": 103,
              "velocity": 84,
              "position": 29.25,
              "duration": 0.23958333333333334
            },
            {
              "pitch": 102,
              "velocity": 84,
              "position": 29.5,
              "duration": 0.23958333333333334
            },
            {
              "pitch": 103,
              "velocity": 84,
              "position": 29.75,
              "duration": 0.23958333333333334
            },
            {
              "pitch": 102,
              "velocity": 84,
              "position": 30,
              "duration": 0.23958333333333334
            },
            {
              "pitch": 103,
              "velocity": 84,
              "position": 30.25,
              "duration": 0.23958333333333334
            },
            {
              "pitch": 106,
              "velocity": 84,
              "position": 30.5,
              "duration": 0.23958333333333334
            },
            {
              "pitch": 70,
              "velocity": 42,
              "position": 30.520833333333332,
              "duration": 0.24166666666666667
            },
            {
              "pitch": 67,
              "velocity": 42,
              "position": 30.5,
              "duration": 0.2833333333333333
            },
            {
              "pitch": 69,
              "velocity": 100,
              "position": 30.770833333333332,
              "duration": 0.15833333333333333
            },
            {
              "pitch": 65,
              "velocity": 100,
              "position": 30.791666666666668,
              "duration": 0.17916666666666667
            },
            {
              "pitch": 108,
              "velocity": 84,
              "position": 30.75,
              "duration": 0.23958333333333334
            },
            {
              "pitch": 102,
              "velocity": 84,
              "position": 31,
              "duration": 0.23958333333333334
            },
            {
              "pitch": 67,
              "velocity": 34,
              "position": 31.270833333333332,
              "duration": 0.15833333333333333
            },
            {
              "pitch": 63,
              "velocity": 34,
              "position": 31.291666666666668,
              "duration": 0.17916666666666667
            },
            {
              "pitch": 106,
              "velocity": 84,
              "position": 31.25,
              "duration": 0.23958333333333334
            },
            {
              "pitch": 102,
              "velocity": 84,
              "position": 31.5,
              "duration": 0.23958333333333334
            },
            {
              "pitch": 103,
              "velocity": 84,
              "position": 31.75,
              "duration": 0.23958333333333334
            }
          ]
        },
        "3": {
          "ctab": {
            "srcChannel": 3,
            "name": "Gt",
            "accType": "CHORD1",
            "editable": false,
            "mutedNotes": [],
            "mutedChords": [
              "7th",
              "min",
              "Maj"
            ],
            "autoStart": false,
            "sourceChordNote": 0,
            "sourceChordType": "Maj7",
            "ctb2Low": null,
            "ctb2Main": {
              "ntr": "ROOT_FIXED",
              "ntt": "CHORD",
              "bassOn": false,
              "chordRootUpperLimit": 7,
              "noteLowLimit": 55,
              "noteHighLimit": 77,
              "rtr": "PITCH_SHIFT"
            },
            "ctb2High": null
          },
          "notes": [
            {
              "pitch": 108,
              "velocity": 84,
              "position": 0.010416666666666666,
              "duration": 0.23125
            },
            {
              "pitch": 79,
              "velocity": 42,
              "position": 0.010416666666666666,
              "duration": 0.2833333333333333
            },
            {
              "pitch": 83,
              "velocity": 42,
              "position": 0.03125,
              "duration": 0.2625
            },
            {
              "pitch": 88,
              "velocity": 42,
              "position": 0.052083333333333336,
              "duration": 0.24166666666666667
            },
            {
              "pitch": 103,
              "velocity": 84,
              "position": 0.25,
              "duration": 0.23958333333333334
            },
            {
              "pitch": 108,
              "velocity": 84,
              "position": 0.5,
              "duration": 0.23958333333333334
            },
            {
              "pitch": 79,
              "velocity": 37,
              "position": 0.5,
              "duration": 0.2833333333333333
            },
            {
              "pitch": 83,
              "velocity": 37,
              "position": 0.5208333333333334,
              "duration": 0.2625
            },
            {
              "pitch": 88,
              "velocity": 37,
              "position": 0.5416666666666666,
              "duration": 0.24166666666666667
            },
            {
              "pitch": 103,
              "velocity": 84,
              "position": 0.75,
              "duration": 0.23958333333333334
            },
            {
              "pitch": 108,
              "velocity": 84,
              "position": 1,
              "duration": 0.23958333333333334
            },
            {
              "pitch": 79,
              "velocity": 42,
              "position": 1,
              "duration": 0.2833333333333333
            },
            {
              "pitch": 83,
              "velocity": 42,
              "position": 1.0208333333333333,
              "duration": 0.2625
            },
            {
              "pitch": 88,
              "velocity": 42,
              "position": 1.0416666666666667,
              "duration": 0.24166666666666667
            },
            {
              "pitch": 103,
              "velocity": 84,
              "position": 1.25,
              "duration": 0.23958333333333334
            },
            {
              "pitch": 106,
              "velocity": 84,
              "position": 1.5,
              "duration": 0.23958333333333334
            },
            {
              "pitch": 88,
              "velocity": 34,
              "position": 1.5416666666666667,
              "duration": 0.22083333333333333
            },
            {
              "pitch": 83,
              "velocity": 34,
              "position": 1.5208333333333333,
              "duration": 0.2625
            },
            {
              "pitch": 79,
              "velocity": 34,
              "position": 1.5,
              "duration": 0.30416666666666664
            },
            {
              "pitch": 79,
              "velocity": 42,
              "position": 1.8125,
              "duration": 0.15833333333333333
            },
            {
              "pitch": 83,
              "velocity": 42,
              "position": 1.7916666666666667,
              "duration": 0.17916666666666667
            },
            {
              "pitch": 88,
              "velocity": 42,
              "position": 1.7708333333333333,
              "duration": 0.2
            },
            {
              "pitch": 108,
              "velocity": 84,
              "position": 1.75,
              "duration": 0.23958333333333334
            },
            {
              "pitch": 102,
              "velocity": 84,
              "position": 2,
              "duration": 0.23958333333333334
            },
            {
              "pitch": 103,
              "velocity": 84,
              "position": 2.25,
              "duration": 0.23958333333333334
            },
            {
              "pitch": 108,
              "velocity": 84,
              "position": 2.5,
              "duration": 0.23958333333333334
            },
            {
              "pitch": 76,
              "velocity": 42,
              "position": 2.5208333333333335,
              "duration": 0.24166666666666667
            },
            {
              "pitch": 107,
              "velocity": 84,
              "position": 2.75,
              "duration": 0.23958333333333334
            },
            {
              "pitch": 71,
              "velocity": 42,
              "position": 2.5,
              "duration": 0.49166666666666664
            },
            {
              "pitch": 106,
              "velocity": 84,
              "position": 3,
              "duration": 0.23958333333333334
            },
            {
              "pitch": 76,
              "velocity": 34,
              "position": 2.7708333333333335,
              "duration": 0.49166666666666664
            },
            {
              "pitch": 71,
              "velocity": 26,
              "position": 3,
              "duration": 0.2833333333333333
            },
            {
              "pitch": 105,
              "velocity": 84,
              "position": 3.25,
              "duration": 0.23958333333333334
            },
            {
              "pitch": 71,
              "velocity": 34,
              "position": 3.2916666666666665,
              "duration": 0.2
            },
            {
              "pitch": 76,
              "velocity": 34,
              "position": 3.2708333333333335,
              "duration": 0.24166666666666667
            },
            {
              "pitch": 108,
              "velocity": 84,
              "position": 3.5,
              "duration": 0.23958333333333334
            },
            {
              "pitch": 71,
              "velocity": 42,
              "position": 3.5,
              "duration": 0.2833333333333333
            },
            {
              "pitch": 76,
              "velocity": 42,
              "position": 3.5208333333333335,
              "duration": 0.2625
            },
            {
              "pitch": 103,
              "velocity": 84,
              "position": 3.75,
              "duration": 0.23958333333333334
            },
            {
              "pitch": 108,
              "velocity": 84,
              "position": 4,
              "duration": 0.23958333333333334
            },
            {
              "pitch": 79,
              "velocity": 42,
              "position": 4,
              "duration": 0.2833333333333333
            },
            {
              "pitch": 83,
              "velocity": 42,
              "position": 4.020833333333333,
              "duration": 0.2625
            },
            {
              "pitch": 88,
              "velocity": 42,
              "position": 4.041666666666667,
              "duration": 0.24166666666666667
            },
            {
              "pitch": 103,
              "velocity": 84,
              "position": 4.25,
              "duration": 0.23958333333333334
            },
            {
              "pitch": 108,
              "velocity": 84,
              "position": 4.5,
              "duration": 0.23958333333333334
            },
            {
              "pitch": 79,
              "velocity": 42,
              "position": 4.5,
              "duration": 0.2833333333333333
            },
            {
              "pitch": 83,
              "velocity": 42,
              "position": 4.520833333333333,
              "duration": 0.2625
            },
            {
              "pitch": 88,
              "velocity": 42,
              "position": 4.541666666666667,
              "duration": 0.24166666666666667
            },
            {
              "pitch": 103,
              "velocity": 84,
              "position": 4.75,
              "duration": 0.23958333333333334
            },
            {
              "pitch": 108,
              "velocity": 84,
              "position": 5,
              "duration": 0.23958333333333334
            },
            {
              "pitch": 79,
              "velocity": 42,
              "position": 5,
              "duration": 0.2833333333333333
            },
            {
              "pitch": 83,
              "velocity": 42,
              "position": 5.020833333333333,
              "duration": 0.2625
            },
            {
              "pitch": 88,
              "velocity": 42,
              "position": 5.041666666666667,
              "duration": 0.24166666666666667
            },
            {
              "pitch": 103,
              "velocity": 84,
              "position": 5.25,
              "duration": 0.23958333333333334
            },
            {
              "pitch": 102,
              "velocity": 84,
              "position": 5.5,
              "duration": 0.23958333333333334
            },
            {
              "pitch": 103,
              "velocity": 84,
              "position": 5.75,
              "duration": 0.23958333333333334
            },
            {
              "pitch": 102,
              "velocity": 84,
              "position": 6,
              "duration": 0.23958333333333334
            },
            {
              "pitch": 103,
              "velocity": 84,
              "position": 6.25,
              "duration": 0.23958333333333334
            },
            {
              "pitch": 106,
              "velocity": 84,
              "position": 6.5,
              "duration": 0.23958333333333334
            },
            {
              "pitch": 71,
              "velocity": 42,
              "position": 6.520833333333333,
              "duration": 0.24166666666666667
            },
            {
              "pitch": 67,
              "velocity": 42,
              "position": 6.5,
              "duration": 0.2833333333333333
            },
            {
              "pitch": 71,
              "velocity": 100,
              "position": 6.770833333333333,
              "duration": 0.15833333333333333
            },
            {
              "pitch": 67,
              "velocity": 100,
              "position": 6.791666666666667,
              "duration": 0.17916666666666667
            },
            {
              "pitch": 108,
              "velocity": 84,
              "position": 6.75,
              "duration": 0.23958333333333334
            },
            {
              "pitch": 102,
              "velocity": 84,
              "position": 7,
              "duration": 0.23958333333333334
            },
            {
              "pitch": 67,
              "velocity": 34,
              "position": 7.270833333333333,
              "duration": 0.15833333333333333
            },
            {
              "pitch": 64,
              "velocity": 34,
              "position": 7.291666666666667,
              "duration": 0.17916666666666667
            },
            {
              "pitch": 106,
              "velocity": 84,
              "position": 7.25,
              "duration": 0.23958333333333334
            },
            {
              "pitch": 102,
              "velocity": 84,
              "position": 7.5,
              "duration": 0.23958333333333334
            },
            {
              "pitch": 103,
              "velocity": 84,
              "position": 7.75,
              "duration": 0.23958333333333334
            },
            {
              "pitch": 108,
              "velocity": 84,
              "position": 8,
              "duration": 0.23958333333333334
            },
            {
              "pitch": 79,
              "velocity": 42,
              "position": 8,
              "duration": 0.2833333333333333
            },
            {
              "pitch": 83,
              "velocity": 42,
              "position": 8.020833333333334,
              "duration": 0.2625
            },
            {
              "pitch": 88,
              "velocity": 42,
              "position": 8.041666666666666,
              "duration": 0.24166666666666667
            },
            {
              "pitch": 103,
              "velocity": 84,
              "position": 8.25,
              "duration": 0.23958333333333334
            },
            {
              "pitch": 108,
              "velocity": 84,
              "position": 8.5,
              "duration": 0.23958333333333334
            },
            {
              "pitch": 79,
              "velocity": 37,
              "position": 8.5,
              "duration": 0.2833333333333333
            },
            {
              "pitch": 83,
              "velocity": 37,
              "position": 8.520833333333334,
              "duration": 0.2625
            },
            {
              "pitch": 88,
              "velocity": 37,
              "position": 8.541666666666666,
              "duration": 0.24166666666666667
            },
            {
              "pitch": 103,
              "velocity": 84,
              "position": 8.75,
              "duration": 0.23958333333333334
            },
            {
              "pitch": 108,
              "velocity": 84,
              "position": 9,
              "duration": 0.23958333333333334
            },
            {
              "pitch": 79,
              "velocity": 42,
              "position": 9,
              "duration": 0.2833333333333333
            },
            {
              "pitch": 83,
              "velocity": 42,
              "position": 9.020833333333334,
              "duration": 0.2625
            },
            {
              "pitch": 88,
              "velocity": 42,
              "position": 9.041666666666666,
              "duration": 0.24166666666666667
            },
            {
              "pitch": 103,
              "velocity": 84,
              "position": 9.25,
              "duration": 0.23958333333333334
            },
            {
              "pitch": 106,
              "velocity": 84,
              "position": 9.5,
              "duration": 0.23958333333333334
            },
            {
              "pitch": 88,
              "velocity": 34,
              "position": 9.541666666666666,
              "duration": 0.22083333333333333
            },
            {
              "pitch": 83,
              "velocity": 34,
              "position": 9.520833333333334,
              "duration": 0.2625
            },
            {
              "pitch": 79,
              "velocity": 34,
              "position": 9.5,
              "duration": 0.30416666666666664
            },
            {
              "pitch": 79,
              "velocity": 42,
              "position": 9.8125,
              "duration": 0.15833333333333333
            },
            {
              "pitch": 83,
              "velocity": 42,
              "position": 9.791666666666666,
              "duration": 0.17916666666666667
            },
            {
              "pitch": 88,
              "velocity": 42,
              "position": 9.770833333333334,
              "duration": 0.2
            },
            {
              "pitch": 108,
              "velocity": 84,
              "position": 9.75,
              "duration": 0.23958333333333334
            },
            {
              "pitch": 102,
              "velocity": 84,
              "position": 10,
              "duration": 0.23958333333333334
            },
            {
              "pitch": 103,
              "velocity": 84,
              "position": 10.25,
              "duration": 0.23958333333333334
            },
            {
              "pitch": 108,
              "velocity": 84,
              "position": 10.5,
              "duration": 0.23958333333333334
            },
            {
              "pitch": 76,
              "velocity": 42,
              "position": 10.520833333333334,
              "duration": 0.24166666666666667
            },
            {
              "pitch": 107,
              "velocity": 84,
              "position": 10.75,
              "duration": 0.23958333333333334
            },
            {
              "pitch": 71,
              "velocity": 42,
              "position": 10.5,
              "duration": 0.49166666666666664
            },
            {
              "pitch": 106,
              "velocity": 84,
              "position": 11,
              "duration": 0.23958333333333334
            },
            {
              "pitch": 76,
              "velocity": 34,
              "position": 10.770833333333334,
              "duration": 0.49166666666666664
            },
            {
              "pitch": 71,
              "velocity": 26,
              "position": 11,
              "duration": 0.2833333333333333
            },
            {
              "pitch": 105,
              "velocity": 84,
              "position": 11.25,
              "duration": 0.23958333333333334
            },
            {
              "pitch": 71,
              "velocity": 34,
              "position": 11.291666666666666,
              "duration": 0.2
            },
            {
              "pitch": 76,
              "velocity": 34,
              "position": 11.270833333333334,
              "duration": 0.24166666666666667
            },
            {
              "pitch": 108,
              "velocity": 84,
              "position": 11.5,
              "duration": 0.23958333333333334
            },
            {
              "pitch": 71,
              "velocity": 42,
              "position": 11.5,
              "duration": 0.2833333333333333
            },
            {
              "pitch": 76,
              "velocity": 42,
              "position": 11.520833333333334,
              "duration": 0.2625
            },
            {
              "pitch": 103,
              "velocity": 84,
              "position": 11.75,
              "duration": 0.23958333333333334
            },
            {
              "pitch": 108,
              "velocity": 84,
              "position": 12,
              "duration": 0.23958333333333334
            },
            {
              "pitch": 79,
              "velocity": 42,
              "position": 12,
              "duration": 0.2833333333333333
            },
            {
              "pitch": 83,
              "velocity": 42,
              "position": 12.020833333333334,
              "duration": 0.2625
            },
            {
              "pitch": 88,
              "velocity": 42,
              "position": 12.041666666666666,
              "duration": 0.24166666666666667
            },
            {
              "pitch": 103,
              "velocity": 84,
              "position": 12.25,
              "duration": 0.23958333333333334
            },
            {
              "pitch": 108,
              "velocity": 84,
              "position": 12.5,
              "duration": 0.23958333333333334
            },
            {
              "pitch": 79,
              "velocity": 42,
              "position": 12.5,
              "duration": 0.2833333333333333
            },
            {
              "pitch": 83,
              "velocity": 42,
              "position": 12.520833333333334,
              "duration": 0.2625
            },
            {
              "pitch": 88,
              "velocity": 42,
              "position": 12.541666666666666,
              "duration": 0.24166666666666667
            },
            {
              "pitch": 103,
              "velocity": 84,
              "position": 12.75,
              "duration": 0.23958333333333334
            },
            {
              "pitch": 108,
              "velocity": 84,
              "position": 13,
              "duration": 0.23958333333333334
            },
            {
              "pitch": 79,
              "velocity": 42,
              "position": 13,
              "duration": 0.2833333333333333
            },
            {
              "pitch": 83,
              "velocity": 42,
              "position": 13.020833333333334,
              "duration": 0.2625
            },
            {
              "pitch": 88,
              "velocity": 42,
              "position": 13.041666666666666,
              "duration": 0.24166666666666667
            },
            {
              "pitch": 103,
              "velocity": 84,
              "position": 13.25,
              "duration": 0.23958333333333334
            },
            {
              "pitch": 102,
              "velocity": 84,
              "position": 13.5,
              "duration": 0.23958333333333334
            },
            {
              "pitch": 103,
              "velocity": 84,
              "position": 13.75,
              "duration": 0.23958333333333334
            },
            {
              "pitch": 102,
              "velocity": 84,
              "position": 14,
              "duration": 0.23958333333333334
            },
            {
              "pitch": 103,
              "velocity": 84,
              "position": 14.25,
              "duration": 0.23958333333333334
            },
            {
              "pitch": 106,
              "velocity": 84,
              "position": 14.5,
              "duration": 0.23958333333333334
            },
            {
              "pitch": 71,
              "velocity": 42,
              "position": 14.520833333333334,
              "duration": 0.24166666666666667
            },
            {
              "pitch": 67,
              "velocity": 42,
              "position": 14.5,
              "duration": 0.2833333333333333
            },
            {
              "pitch": 71,
              "velocity": 100,
              "position": 14.770833333333334,
              "duration": 0.15833333333333333
            },
            {
              "pitch": 67,
              "velocity": 100,
              "position": 14.791666666666666,
              "duration": 0.17916666666666667
            },
            {
              "pitch": 108,
              "velocity": 84,
              "position": 14.75,
              "duration": 0.23958333333333334
            },
            {
              "pitch": 102,
              "velocity": 84,
              "position": 15,
              "duration": 0.23958333333333334
            },
            {
              "pitch": 67,
              "velocity": 34,
              "position": 15.270833333333334,
              "duration": 0.15833333333333333
            },
            {
              "pitch": 64,
              "velocity": 34,
              "position": 15.291666666666666,
              "duration": 0.17916666666666667
            },
            {
              "pitch": 106,
              "velocity": 84,
              "position": 15.25,
              "duration": 0.23958333333333334
            },
            {
              "pitch": 102,
              "velocity": 84,
              "position": 15.5,
              "duration": 0.23958333333333334
            },
            {
              "pitch": 103,
              "velocity": 84,
              "position": 15.75,
              "duration": 0.23958333333333334
            },
            {
              "pitch": 108,
              "velocity": 84,
              "position": 16,
              "duration": 0.23958333333333334
            },
            {
              "pitch": 79,
              "velocity": 42,
              "position": 16,
              "duration": 0.2833333333333333
            },
            {
              "pitch": 83,
              "velocity": 42,
              "position": 16.020833333333332,
              "duration": 0.2625
            },
            {
              "pitch": 88,
              "velocity": 42,
              "position": 16.041666666666668,
              "duration": 0.24166666666666667
            },
            {
              "pitch": 103,
              "velocity": 84,
              "position": 16.25,
              "duration": 0.23958333333333334
            },
            {
              "pitch": 108,
              "velocity": 84,
              "position": 16.5,
              "duration": 0.23958333333333334
            },
            {
              "pitch": 79,
              "velocity": 37,
              "position": 16.5,
              "duration": 0.2833333333333333
            },
            {
              "pitch": 83,
              "velocity": 37,
              "position": 16.520833333333332,
              "duration": 0.2625
            },
            {
              "pitch": 88,
              "velocity": 37,
              "position": 16.541666666666668,
              "duration": 0.24166666666666667
            },
            {
              "pitch": 103,
              "velocity": 84,
              "position": 16.75,
              "duration": 0.23958333333333334
            },
            {
              "pitch": 108,
              "velocity": 84,
              "position": 17,
              "duration": 0.23958333333333334
            },
            {
              "pitch": 79,
              "velocity": 42,
              "position": 17,
              "duration": 0.2833333333333333
            },
            {
              "pitch": 83,
              "velocity": 42,
              "position": 17.020833333333332,
              "duration": 0.2625
            },
            {
              "pitch": 88,
              "velocity": 42,
              "position": 17.041666666666668,
              "duration": 0.24166666666666667
            },
            {
              "pitch": 103,
              "velocity": 84,
              "position": 17.25,
              "duration": 0.23958333333333334
            },
            {
              "pitch": 106,
              "velocity": 84,
              "position": 17.5,
              "duration": 0.23958333333333334
            },
            {
              "pitch": 88,
              "velocity": 34,
              "position": 17.541666666666668,
              "duration": 0.22083333333333333
            },
            {
              "pitch": 83,
              "velocity": 34,
              "position": 17.520833333333332,
              "duration": 0.2625
            },
            {
              "pitch": 79,
              "velocity": 34,
              "position": 17.5,
              "duration": 0.30416666666666664
            },
            {
              "pitch": 79,
              "velocity": 42,
              "position": 17.8125,
              "duration": 0.15833333333333333
            },
            {
              "pitch": 83,
              "velocity": 42,
              "position": 17.791666666666668,
              "duration": 0.17916666666666667
            },
            {
              "pitch": 88,
              "velocity": 42,
              "position": 17.770833333333332,
              "duration": 0.2
            },
            {
              "pitch": 108,
              "velocity": 84,
              "position": 17.75,
              "duration": 0.23958333333333334
            },
            {
              "pitch": 102,
              "velocity": 84,
              "position": 18,
              "duration": 0.23958333333333334
            },
            {
              "pitch": 103,
              "velocity": 84,
              "position": 18.25,
              "duration": 0.23958333333333334
            },
            {
              "pitch": 108,
              "velocity": 84,
              "position": 18.5,
              "duration": 0.23958333333333334
            },
            {
              "pitch": 76,
              "velocity": 42,
              "position": 18.520833333333332,
              "duration": 0.24166666666666667
            },
            {
              "pitch": 107,
              "velocity": 84,
              "position": 18.75,
              "duration": 0.23958333333333334
            },
            {
              "pitch": 71,
              "velocity": 42,
              "position": 18.5,
              "duration": 0.49166666666666664
            },
            {
              "pitch": 106,
              "velocity": 84,
              "position": 19,
              "duration": 0.23958333333333334
            },
            {
              "pitch": 76,
              "velocity": 34,
              "position": 18.770833333333332,
              "duration": 0.49166666666666664
            },
            {
              "pitch": 71,
              "velocity": 26,
              "position": 19,
              "duration": 0.2833333333333333
            },
            {
              "pitch": 105,
              "velocity": 84,
              "position": 19.25,
              "duration": 0.23958333333333334
            },
            {
              "pitch": 71,
              "velocity": 34,
              "position": 19.291666666666668,
              "duration": 0.2
            },
            {
              "pitch": 76,
              "velocity": 34,
              "position": 19.270833333333332,
              "duration": 0.24166666666666667
            },
            {
              "pitch": 108,
              "velocity": 84,
              "position": 19.5,
              "duration": 0.23958333333333334
            },
            {
              "pitch": 71,
              "velocity": 42,
              "position": 19.5,
              "duration": 0.2833333333333333
            },
            {
              "pitch": 76,
              "velocity": 42,
              "position": 19.520833333333332,
              "duration": 0.2625
            },
            {
              "pitch": 103,
              "velocity": 84,
              "position": 19.75,
              "duration": 0.23958333333333334
            },
            {
              "pitch": 108,
              "velocity": 84,
              "position": 20,
              "duration": 0.23958333333333334
            },
            {
              "pitch": 79,
              "velocity": 42,
              "position": 20,
              "duration": 0.2833333333333333
            },
            {
              "pitch": 83,
              "velocity": 42,
              "position": 20.020833333333332,
              "duration": 0.2625
            },
            {
              "pitch": 88,
              "velocity": 42,
              "position": 20.041666666666668,
              "duration": 0.24166666666666667
            },
            {
              "pitch": 103,
              "velocity": 84,
              "position": 20.25,
              "duration": 0.23958333333333334
            },
            {
              "pitch": 108,
              "velocity": 84,
              "position": 20.5,
              "duration": 0.23958333333333334
            },
            {
              "pitch": 79,
              "velocity": 42,
              "position": 20.5,
              "duration": 0.2833333333333333
            },
            {
              "pitch": 83,
              "velocity": 42,
              "position": 20.520833333333332,
              "duration": 0.2625
            },
            {
              "pitch": 88,
              "velocity": 42,
              "position": 20.541666666666668,
              "duration": 0.24166666666666667
            },
            {
              "pitch": 103,
              "velocity": 84,
              "position": 20.75,
              "duration": 0.23958333333333334
            },
            {
              "pitch": 108,
              "velocity": 84,
              "position": 21,
              "duration": 0.23958333333333334
            },
            {
              "pitch": 79,
              "velocity": 42,
              "position": 21,
              "duration": 0.2833333333333333
            },
            {
              "pitch": 83,
              "velocity": 42,
              "position": 21.020833333333332,
              "duration": 0.2625
            },
            {
              "pitch": 88,
              "velocity": 42,
              "position": 21.041666666666668,
              "duration": 0.24166666666666667
            },
            {
              "pitch": 103,
              "velocity": 84,
              "position": 21.25,
              "duration": 0.23958333333333334
            },
            {
              "pitch": 102,
              "velocity": 84,
              "position": 21.5,
              "duration": 0.23958333333333334
            },
            {
              "pitch": 103,
              "velocity": 84,
              "position": 21.75,
              "duration": 0.23958333333333334
            },
            {
              "pitch": 102,
              "velocity": 84,
              "position": 22,
              "duration": 0.23958333333333334
            },
            {
              "pitch": 103,
              "velocity": 84,
              "position": 22.25,
              "duration": 0.23958333333333334
            },
            {
              "pitch": 106,
              "velocity": 84,
              "position": 22.5,
              "duration": 0.23958333333333334
            },
            {
              "pitch": 71,
              "velocity": 42,
              "position": 22.520833333333332,
              "duration": 0.24166666666666667
            },
            {
              "pitch": 67,
              "velocity": 42,
              "position": 22.5,
              "duration": 0.2833333333333333
            },
            {
              "pitch": 71,
              "velocity": 100,
              "position": 22.770833333333332,
              "duration": 0.15833333333333333
            },
            {
              "pitch": 67,
              "velocity": 100,
              "position": 22.791666666666668,
              "duration": 0.17916666666666667
            },
            {
              "pitch": 108,
              "velocity": 84,
              "position": 22.75,
              "duration": 0.23958333333333334
            },
            {
              "pitch": 102,
              "velocity": 84,
              "position": 23,
              "duration": 0.23958333333333334
            },
            {
              "pitch": 67,
              "velocity": 34,
              "position": 23.270833333333332,
              "duration": 0.15833333333333333
            },
            {
              "pitch": 64,
              "velocity": 34,
              "position": 23.291666666666668,
              "duration": 0.17916666666666667
            },
            {
              "pitch": 106,
              "velocity": 84,
              "position": 23.25,
              "duration": 0.23958333333333334
            },
            {
              "pitch": 102,
              "velocity": 84,
              "position": 23.5,
              "duration": 0.23958333333333334
            },
            {
              "pitch": 103,
              "velocity": 84,
              "position": 23.75,
              "duration": 0.23958333333333334
            },
            {
              "pitch": 108,
              "velocity": 84,
              "position": 24,
              "duration": 0.23958333333333334
            },
            {
              "pitch": 79,
              "velocity": 42,
              "position": 24,
              "duration": 0.2833333333333333
            },
            {
              "pitch": 83,
              "velocity": 42,
              "position": 24.020833333333332,
              "duration": 0.2625
            },
            {
              "pitch": 88,
              "velocity": 42,
              "position": 24.041666666666668,
              "duration": 0.24166666666666667
            },
            {
              "pitch": 103,
              "velocity": 84,
              "position": 24.25,
              "duration": 0.23958333333333334
            },
            {
              "pitch": 108,
              "velocity": 84,
              "position": 24.5,
              "duration": 0.23958333333333334
            },
            {
              "pitch": 79,
              "velocity": 37,
              "position": 24.5,
              "duration": 0.2833333333333333
            },
            {
              "pitch": 83,
              "velocity": 37,
              "position": 24.520833333333332,
              "duration": 0.2625
            },
            {
              "pitch": 88,
              "velocity": 37,
              "position": 24.541666666666668,
              "duration": 0.24166666666666667
            },
            {
              "pitch": 103,
              "velocity": 84,
              "position": 24.75,
              "duration": 0.23958333333333334
            },
            {
              "pitch": 108,
              "velocity": 84,
              "position": 25,
              "duration": 0.23958333333333334
            },
            {
              "pitch": 79,
              "velocity": 42,
              "position": 25,
              "duration": 0.2833333333333333
            },
            {
              "pitch": 83,
              "velocity": 42,
              "position": 25.020833333333332,
              "duration": 0.2625
            },
            {
              "pitch": 88,
              "velocity": 42,
              "position": 25.041666666666668,
              "duration": 0.24166666666666667
            },
            {
              "pitch": 103,
              "velocity": 84,
              "position": 25.25,
              "duration": 0.23958333333333334
            },
            {
              "pitch": 106,
              "velocity": 84,
              "position": 25.5,
              "duration": 0.23958333333333334
            },
            {
              "pitch": 88,
              "velocity": 34,
              "position": 25.541666666666668,
              "duration": 0.22083333333333333
            },
            {
              "pitch": 83,
              "velocity": 34,
              "position": 25.520833333333332,
              "duration": 0.2625
            },
            {
              "pitch": 79,
              "velocity": 34,
              "position": 25.5,
              "duration": 0.30416666666666664
            },
            {
              "pitch": 79,
              "velocity": 42,
              "position": 25.8125,
              "duration": 0.15833333333333333
            },
            {
              "pitch": 83,
              "velocity": 42,
              "position": 25.791666666666668,
              "duration": 0.17916666666666667
            },
            {
              "pitch": 88,
              "velocity": 42,
              "position": 25.770833333333332,
              "duration": 0.2
            },
            {
              "pitch": 108,
              "velocity": 84,
              "position": 25.75,
              "duration": 0.23958333333333334
            },
            {
              "pitch": 102,
              "velocity": 84,
              "position": 26,
              "duration": 0.23958333333333334
            },
            {
              "pitch": 103,
              "velocity": 84,
              "position": 26.25,
              "duration": 0.23958333333333334
            },
            {
              "pitch": 108,
              "velocity": 84,
              "position": 26.5,
              "duration": 0.23958333333333334
            },
            {
              "pitch": 76,
              "velocity": 42,
              "position": 26.520833333333332,
              "duration": 0.24166666666666667
            },
            {
              "pitch": 107,
              "velocity": 84,
              "position": 26.75,
              "duration": 0.23958333333333334
            },
            {
              "pitch": 71,
              "velocity": 42,
              "position": 26.5,
              "duration": 0.49166666666666664
            },
            {
              "pitch": 106,
              "velocity": 84,
              "position": 27,
              "duration": 0.23958333333333334
            },
            {
              "pitch": 76,
              "velocity": 34,
              "position": 26.770833333333332,
              "duration": 0.49166666666666664
            },
            {
              "pitch": 71,
              "velocity": 26,
              "position": 27,
              "duration": 0.2833333333333333
            },
            {
              "pitch": 105,
              "velocity": 84,
              "position": 27.25,
              "duration": 0.23958333333333334
            },
            {
              "pitch": 71,
              "velocity": 34,
              "position": 27.291666666666668,
              "duration": 0.2
            },
            {
              "pitch": 76,
              "velocity": 34,
              "position": 27.270833333333332,
              "duration": 0.24166666666666667
            },
            {
              "pitch": 108,
              "velocity": 84,
              "position": 27.5,
              "duration": 0.23958333333333334
            },
            {
              "pitch": 71,
              "velocity": 42,
              "position": 27.5,
              "duration": 0.2833333333333333
            },
            {
              "pitch": 76,
              "velocity": 42,
              "position": 27.520833333333332,
              "duration": 0.2625
            },
            {
              "pitch": 103,
              "velocity": 84,
              "position": 27.75,
              "duration": 0.23958333333333334
            },
            {
              "pitch": 108,
              "velocity": 84,
              "position": 28,
              "duration": 0.23958333333333334
            },
            {
              "pitch": 79,
              "velocity": 42,
              "position": 28,
              "duration": 0.2833333333333333
            },
            {
              "pitch": 83,
              "velocity": 42,
              "position": 28.020833333333332,
              "duration": 0.2625
            },
            {
              "pitch": 88,
              "velocity": 42,
              "position": 28.041666666666668,
              "duration": 0.24166666666666667
            },
            {
              "pitch": 103,
              "velocity": 84,
              "position": 28.25,
              "duration": 0.23958333333333334
            },
            {
              "pitch": 108,
              "velocity": 84,
              "position": 28.5,
              "duration": 0.23958333333333334
            },
            {
              "pitch": 79,
              "velocity": 42,
              "position": 28.5,
              "duration": 0.2833333333333333
            },
            {
              "pitch": 83,
              "velocity": 42,
              "position": 28.520833333333332,
              "duration": 0.2625
            },
            {
              "pitch": 88,
              "velocity": 42,
              "position": 28.541666666666668,
              "duration": 0.24166666666666667
            },
            {
              "pitch": 103,
              "velocity": 84,
              "position": 28.75,
              "duration": 0.23958333333333334
            },
            {
              "pitch": 108,
              "velocity": 84,
              "position": 29,
              "duration": 0.23958333333333334
            },
            {
              "pitch": 79,
              "velocity": 42,
              "position": 29,
              "duration": 0.2833333333333333
            },
            {
              "pitch": 83,
              "velocity": 42,
              "position": 29.020833333333332,
              "duration": 0.2625
            },
            {
              "pitch": 88,
              "velocity": 42,
              "position": 29.041666666666668,
              "duration": 0.24166666666666667
            },
            {
              "pitch": 103,
              "velocity": 84,
              "position": 29.25,
              "duration": 0.23958333333333334
            },
            {
              "pitch": 102,
              "velocity": 84,
              "position": 29.5,
              "duration": 0.23958333333333334
            },
            {
              "pitch": 103,
              "velocity": 84,
              "position": 29.75,
              "duration": 0.23958333333333334
            },
            {
              "pitch": 102,
              "velocity": 84,
              "position": 30,
              "duration": 0.23958333333333334
            },
            {
              "pitch": 103,
              "velocity": 84,
              "position": 30.25,
              "duration": 0.23958333333333334
            },
            {
              "pitch": 106,
              "velocity": 84,
              "position": 30.5,
              "duration": 0.23958333333333334
            },
            {
              "pitch": 71,
              "velocity": 42,
              "position": 30.520833333333332,
              "duration": 0.24166666666666667
            },
            {
              "pitch": 67,
              "velocity": 42,
              "position": 30.5,
              "duration": 0.2833333333333333
            },
            {
              "pitch": 71,
              "velocity": 100,
              "position": 30.770833333333332,
              "duration": 0.15833333333333333
            },
            {
              "pitch": 67,
              "velocity": 100,
              "position": 30.791666666666668,
              "duration": 0.17916666666666667
            },
            {
              "pitch": 108,
              "velocity": 84,
              "position": 30.75,
              "duration": 0.23958333333333334
            },
            {
              "pitch": 102,
              "velocity": 84,
              "position": 31,
              "duration": 0.23958333333333334
            },
            {
              "pitch": 67,
              "velocity": 34,
              "position": 31.270833333333332,
              "duration": 0.15833333333333333
            },
            {
              "pitch": 64,
              "velocity": 34,
              "position": 31.291666666666668,
              "duration": 0.17916666666666667
            },
            {
              "pitch": 106,
              "velocity": 84,
              "position": 31.25,
              "duration": 0.23958333333333334
            },
            {
              "pitch": 102,
              "velocity": 84,
              "position": 31.5,
              "duration": 0.23958333333333334
            },
            {
              "pitch": 103,
              "velocity": 84,
              "position": 31.75,
              "duration": 0.23958333333333334
            }
          ]
        },
        "4": {
          "ctab": {
            "srcChannel": 4,
            "name": "Brs a",
            "accType": "PHRASE1",
            "editable": false,
            "mutedNotes": [],
            "mutedChords": [
              "7(b9)",
              "dim7",
              "minMaj7(9)",
              "minMaj7",
              "min6",
              "Maj6(9)",
              "Maj7(9)",
              "Maj(9)",
              "Maj7#11",
              "Maj7",
              "Maj6"
            ],
            "autoStart": false,
            "sourceChordNote": 0,
            "sourceChordType": "7th",
            "ctb2Low": null,
            "ctb2Main": {
              "ntr": "ROOT_TRANSPOSITION",
              "ntt": "MELODIC_MINOR_5",
              "bassOn": false,
              "chordRootUpperLimit": 5,
              "noteLowLimit": 34,
              "noteHighLimit": 127,
              "rtr": "PITCH_SHIFT"
            },
            "ctb2High": null
          },
          "notes": [
            {
              "pitch": 70,
              "velocity": 82,
              "position": 6.489583333333333,
              "duration": 0.28541666666666665
            },
            {
              "pitch": 58,
              "velocity": 82,
              "position": 6.508333333333334,
              "duration": 0.2833333333333333
            },
            {
              "pitch": 82,
              "velocity": 82,
              "position": 6.504166666666666,
              "duration": 0.30625
            },
            {
              "pitch": 72,
              "velocity": 82,
              "position": 6.752083333333333,
              "duration": 0.21041666666666667
            },
            {
              "pitch": 84,
              "velocity": 82,
              "position": 6.764583333333333,
              "duration": 0.20833333333333334
            },
            {
              "pitch": 60,
              "velocity": 82,
              "position": 6.789583333333334,
              "duration": 0.1875
            },
            {
              "pitch": 84,
              "velocity": 82,
              "position": 6.98125,
              "duration": 0.2833333333333333
            },
            {
              "pitch": 72,
              "velocity": 82,
              "position": 6.989583333333333,
              "duration": 0.3020833333333333
            },
            {
              "pitch": 60,
              "velocity": 82,
              "position": 6.985416666666667,
              "duration": 0.3125
            },
            {
              "pitch": 82,
              "velocity": 82,
              "position": 7.25625,
              "duration": 0.275
            },
            {
              "pitch": 58,
              "velocity": 82,
              "position": 7.272916666666666,
              "duration": 0.27291666666666664
            },
            {
              "pitch": 70,
              "velocity": 82,
              "position": 7.283333333333333,
              "duration": 0.2791666666666667
            },
            {
              "pitch": 84,
              "velocity": 82,
              "position": 7.50625,
              "duration": 0.2604166666666667
            },
            {
              "pitch": 60,
              "velocity": 82,
              "position": 7.50625,
              "duration": 0.26666666666666666
            },
            {
              "pitch": 72,
              "velocity": 82,
              "position": 7.514583333333333,
              "duration": 0.275
            },
            {
              "pitch": 58,
              "velocity": 82,
              "position": 14.50625,
              "duration": 0.2875
            },
            {
              "pitch": 70,
              "velocity": 82,
              "position": 14.516666666666667,
              "duration": 0.28125
            },
            {
              "pitch": 82,
              "velocity": 82,
              "position": 14.508333333333333,
              "duration": 0.29791666666666666
            },
            {
              "pitch": 72,
              "velocity": 82,
              "position": 14.7625,
              "duration": 0.23958333333333334
            },
            {
              "pitch": 84,
              "velocity": 82,
              "position": 14.770833333333334,
              "duration": 0.24791666666666667
            },
            {
              "pitch": 60,
              "velocity": 82,
              "position": 14.783333333333333,
              "duration": 0.25
            },
            {
              "pitch": 63,
              "velocity": 82,
              "position": 14.991666666666667,
              "duration": 0.28958333333333336
            },
            {
              "pitch": 87,
              "velocity": 82,
              "position": 15,
              "duration": 0.28541666666666665
            },
            {
              "pitch": 75,
              "velocity": 82,
              "position": 14.985416666666667,
              "duration": 0.3145833333333333
            },
            {
              "pitch": 82,
              "velocity": 82,
              "position": 15.275,
              "duration": 0.2604166666666667
            },
            {
              "pitch": 70,
              "velocity": 82,
              "position": 15.2875,
              "duration": 0.26875
            },
            {
              "pitch": 58,
              "velocity": 82,
              "position": 15.283333333333333,
              "duration": 0.27708333333333335
            },
            {
              "pitch": 60,
              "velocity": 82,
              "position": 15.495833333333334,
              "duration": 0.25833333333333336
            },
            {
              "pitch": 72,
              "velocity": 82,
              "position": 15.508333333333333,
              "duration": 0.2625
            },
            {
              "pitch": 84,
              "velocity": 82,
              "position": 15.508333333333333,
              "duration": 0.28125
            },
            {
              "pitch": 58,
              "velocity": 82,
              "position": 22.48125,
              "duration": 0.2875
            },
            {
              "pitch": 70,
              "velocity": 82,
              "position": 22.5125,
              "duration": 0.28541666666666665
            },
            {
              "pitch": 82,
              "velocity": 82,
              "position": 22.502083333333335,
              "duration": 0.3145833333333333
            },
            {
              "pitch": 84,
              "velocity": 82,
              "position": 22.76875,
              "duration": 0.20416666666666666
            },
            {
              "pitch": 60,
              "velocity": 82,
              "position": 22.770833333333332,
              "duration": 0.20416666666666666
            },
            {
              "pitch": 72,
              "velocity": 82,
              "position": 22.789583333333333,
              "duration": 0.20208333333333334
            },
            {
              "pitch": 84,
              "velocity": 82,
              "position": 22.98125,
              "duration": 0.2916666666666667
            },
            {
              "pitch": 60,
              "velocity": 82,
              "position": 22.997916666666665,
              "duration": 0.28125
            },
            {
              "pitch": 72,
              "velocity": 82,
              "position": 23,
              "duration": 0.28958333333333336
            },
            {
              "pitch": 58,
              "velocity": 82,
              "position": 23.277083333333334,
              "duration": 0.2625
            },
            {
              "pitch": 82,
              "velocity": 82,
              "position": 23.277083333333334,
              "duration": 0.2791666666666667
            },
            {
              "pitch": 70,
              "velocity": 82,
              "position": 23.289583333333333,
              "duration": 0.26875
            },
            {
              "pitch": 84,
              "velocity": 82,
              "position": 23.4875,
              "duration": 0.25
            },
            {
              "pitch": 60,
              "velocity": 82,
              "position": 23.491666666666667,
              "duration": 0.26458333333333334
            },
            {
              "pitch": 72,
              "velocity": 82,
              "position": 23.497916666666665,
              "duration": 0.2708333333333333
            },
            {
              "pitch": 70,
              "velocity": 82,
              "position": 30.49375,
              "duration": 0.29375
            },
            {
              "pitch": 58,
              "velocity": 82,
              "position": 30.491666666666667,
              "duration": 0.3125
            },
            {
              "pitch": 82,
              "velocity": 82,
              "position": 30.516666666666666,
              "duration": 0.33125
            },
            {
              "pitch": 84,
              "velocity": 82,
              "position": 30.764583333333334,
              "duration": 0.2625
            },
            {
              "pitch": 72,
              "velocity": 82,
              "position": 30.789583333333333,
              "duration": 0.2520833333333333
            },
            {
              "pitch": 60,
              "velocity": 82,
              "position": 30.7875,
              "duration": 0.2625
            },
            {
              "pitch": 87,
              "velocity": 82,
              "position": 31.002083333333335,
              "duration": 0.32083333333333336
            },
            {
              "pitch": 63,
              "velocity": 82,
              "position": 31.014583333333334,
              "duration": 0.3125
            },
            {
              "pitch": 75,
              "velocity": 82,
              "position": 31.027083333333334,
              "duration": 0.32083333333333336
            },
            {
              "pitch": 84,
              "velocity": 82,
              "position": 31.304166666666667,
              "duration": 0.21666666666666667
            },
            {
              "pitch": 72,
              "velocity": 82,
              "position": 31.30625,
              "duration": 0.24166666666666667
            },
            {
              "pitch": 60,
              "velocity": 82,
              "position": 31.31875,
              "duration": 0.23958333333333334
            },
            {
              "pitch": 82,
              "velocity": 82,
              "position": 31.489583333333332,
              "duration": 0.27708333333333335
            },
            {
              "pitch": 58,
              "velocity": 82,
              "position": 31.502083333333335,
              "duration": 0.275
            },
            {
              "pitch": 70,
              "velocity": 82,
              "position": 31.510416666666668,
              "duration": 0.2708333333333333
            }
          ]
        },
        "5": {
          "ctab": {
            "srcChannel": 5,
            "name": "Brs b",
            "accType": "PHRASE1",
            "editable": false,
            "mutedNotes": [],
            "mutedChords": [
              "1+2+5",
              "sus4",
              "1+5",
              "1+8",
              "7aug",
              "Maj7aug",
              "7(#9)",
              "7(b13)",
              "7(13)",
              "7#11",
              "7(9)",
              "7b5",
              "7sus4",
              "7th",
              "dim",
              "min7(11)",
              "min7(9)",
              "min(9)",
              "m7b5",
              "min7",
              "min",
              "aug",
              "Maj"
            ],
            "autoStart": false,
            "sourceChordNote": 0,
            "sourceChordType": "Maj7",
            "ctb2Low": null,
            "ctb2Main": {
              "ntr": "ROOT_TRANSPOSITION",
              "ntt": "MELODIC_MINOR_5",
              "bassOn": false,
              "chordRootUpperLimit": 5,
              "noteLowLimit": 34,
              "noteHighLimit": 127,
              "rtr": "PITCH_SHIFT"
            },
            "ctb2High": null
          },
          "notes": [
            {
              "pitch": 67,
              "velocity": 82,
              "position": 6.489583333333333,
              "duration": 0.28541666666666665
            },
            {
              "pitch": 55,
              "velocity": 82,
              "position": 6.508333333333334,
              "duration": 0.2833333333333333
            },
            {
              "pitch": 79,
              "velocity": 82,
              "position": 6.504166666666666,
              "duration": 0.30625
            },
            {
              "pitch": 69,
              "velocity": 82,
              "position": 6.752083333333333,
              "duration": 0.21041666666666667
            },
            {
              "pitch": 81,
              "velocity": 82,
              "position": 6.764583333333333,
              "duration": 0.20833333333333334
            },
            {
              "pitch": 57,
              "velocity": 82,
              "position": 6.789583333333334,
              "duration": 0.1875
            },
            {
              "pitch": 84,
              "velocity": 87,
              "position": 6.98125,
              "duration": 0.2833333333333333
            },
            {
              "pitch": 72,
              "velocity": 87,
              "position": 6.989583333333333,
              "duration": 0.3020833333333333
            },
            {
              "pitch": 60,
              "velocity": 87,
              "position": 6.985416666666667,
              "duration": 0.3125
            },
            {
              "pitch": 81,
              "velocity": 82,
              "position": 7.25625,
              "duration": 0.275
            },
            {
              "pitch": 57,
              "velocity": 82,
              "position": 7.272916666666666,
              "duration": 0.27291666666666664
            },
            {
              "pitch": 69,
              "velocity": 82,
              "position": 7.283333333333333,
              "duration": 0.2791666666666667
            },
            {
              "pitch": 84,
              "velocity": 82,
              "position": 7.50625,
              "duration": 0.2604166666666667
            },
            {
              "pitch": 60,
              "velocity": 82,
              "position": 7.50625,
              "duration": 0.26666666666666666
            },
            {
              "pitch": 72,
              "velocity": 82,
              "position": 7.514583333333333,
              "duration": 0.275
            },
            {
              "pitch": 57,
              "velocity": 82,
              "position": 14.50625,
              "duration": 0.2875
            },
            {
              "pitch": 69,
              "velocity": 82,
              "position": 14.516666666666667,
              "duration": 0.28125
            },
            {
              "pitch": 81,
              "velocity": 82,
              "position": 14.508333333333333,
              "duration": 0.29791666666666666
            },
            {
              "pitch": 72,
              "velocity": 82,
              "position": 14.7625,
              "duration": 0.23958333333333334
            },
            {
              "pitch": 84,
              "velocity": 82,
              "position": 14.770833333333334,
              "duration": 0.24791666666666667
            },
            {
              "pitch": 60,
              "velocity": 82,
              "position": 14.783333333333333,
              "duration": 0.25
            },
            {
              "pitch": 62,
              "velocity": 85,
              "position": 14.991666666666667,
              "duration": 0.28958333333333336
            },
            {
              "pitch": 86,
              "velocity": 85,
              "position": 15,
              "duration": 0.28541666666666665
            },
            {
              "pitch": 74,
              "velocity": 85,
              "position": 14.985416666666667,
              "duration": 0.3145833333333333
            },
            {
              "pitch": 81,
              "velocity": 82,
              "position": 15.275,
              "duration": 0.2604166666666667
            },
            {
              "pitch": 69,
              "velocity": 82,
              "position": 15.2875,
              "duration": 0.26875
            },
            {
              "pitch": 57,
              "velocity": 82,
              "position": 15.283333333333333,
              "duration": 0.27708333333333335
            },
            {
              "pitch": 60,
              "velocity": 82,
              "position": 15.495833333333334,
              "duration": 0.25833333333333336
            },
            {
              "pitch": 72,
              "velocity": 82,
              "position": 15.508333333333333,
              "duration": 0.2625
            },
            {
              "pitch": 84,
              "velocity": 82,
              "position": 15.508333333333333,
              "duration": 0.28125
            },
            {
              "pitch": 55,
              "velocity": 82,
              "position": 22.48125,
              "duration": 0.2875
            },
            {
              "pitch": 67,
              "velocity": 82,
              "position": 22.5125,
              "duration": 0.28541666666666665
            },
            {
              "pitch": 79,
              "velocity": 82,
              "position": 22.502083333333335,
              "duration": 0.3145833333333333
            },
            {
              "pitch": 81,
              "velocity": 82,
              "position": 22.76875,
              "duration": 0.20416666666666666
            },
            {
              "pitch": 57,
              "velocity": 82,
              "position": 22.770833333333332,
              "duration": 0.20416666666666666
            },
            {
              "pitch": 69,
              "velocity": 82,
              "position": 22.789583333333333,
              "duration": 0.20208333333333334
            },
            {
              "pitch": 84,
              "velocity": 87,
              "position": 22.98125,
              "duration": 0.2916666666666667
            },
            {
              "pitch": 60,
              "velocity": 87,
              "position": 22.997916666666665,
              "duration": 0.28125
            },
            {
              "pitch": 72,
              "velocity": 87,
              "position": 23,
              "duration": 0.28958333333333336
            },
            {
              "pitch": 57,
              "velocity": 82,
              "position": 23.277083333333334,
              "duration": 0.2625
            },
            {
              "pitch": 81,
              "velocity": 82,
              "position": 23.277083333333334,
              "duration": 0.2791666666666667
            },
            {
              "pitch": 69,
              "velocity": 82,
              "position": 23.289583333333333,
              "duration": 0.26875
            },
            {
              "pitch": 84,
              "velocity": 82,
              "position": 23.4875,
              "duration": 0.25
            },
            {
              "pitch": 60,
              "velocity": 82,
              "position": 23.491666666666667,
              "duration": 0.26458333333333334
            },
            {
              "pitch": 72,
              "velocity": 82,
              "position": 23.497916666666665,
              "duration": 0.2708333333333333
            },
            {
              "pitch": 69,
              "velocity": 82,
              "position": 30.49375,
              "duration": 0.29375
            },
            {
              "pitch": 57,
              "velocity": 82,
              "position": 30.491666666666667,
              "duration": 0.3125
            },
            {
              "pitch": 81,
              "velocity": 82,
              "position": 30.516666666666666,
              "duration": 0.33125
            },
            {
              "pitch": 84,
              "velocity": 82,
              "position": 30.764583333333334,
              "duration": 0.2625
            },
            {
              "pitch": 72,
              "velocity": 82,
              "position": 30.789583333333333,
              "duration": 0.2520833333333333
            },
            {
              "pitch": 60,
              "velocity": 82,
              "position": 30.7875,
              "duration": 0.2625
            },
            {
              "pitch": 86,
              "velocity": 87,
              "position": 31.002083333333335,
              "duration": 0.32083333333333336
            },
            {
              "pitch": 62,
              "velocity": 87,
              "position": 31.014583333333334,
              "duration": 0.3125
            },
            {
              "pitch": 74,
              "velocity": 87,
              "position": 31.027083333333334,
              "duration": 0.32083333333333336
            },
            {
              "pitch": 84,
              "velocity": 82,
              "position": 31.304166666666667,
              "duration": 0.21666666666666667
            },
            {
              "pitch": 72,
              "velocity": 82,
              "position": 31.30625,
              "duration": 0.24166666666666667
            },
            {
              "pitch": 60,
              "velocity": 82,
              "position": 31.31875,
              "duration": 0.23958333333333334
            },
            {
              "pitch": 81,
              "velocity": 82,
              "position": 31.489583333333332,
              "duration": 0.27708333333333335
            },
            {
              "pitch": 57,
              "velocity": 82,
              "position": 31.502083333333335,
              "duration": 0.275
            },
            {
              "pitch": 69,
              "velocity": 82,
              "position": 31.510416666666668,
              "duration": 0.2708333333333333
            }
          ]
        },
        "6": {
          "ctab": {
            "srcChannel": 6,
            "name": "Hns a",
            "accType": "PHRASE2",
            "editable": false,
            "mutedNotes": [],
            "mutedChords": [
              "7(b9)",
              "dim7",
              "minMaj7(9)",
              "minMaj7",
              "min6",
              "Maj6(9)",
              "Maj7(9)",
              "Maj(9)",
              "Maj7#11",
              "Maj7",
              "Maj6"
            ],
            "autoStart": false,
            "sourceChordNote": 0,
            "sourceChordType": "7th",
            "ctb2Low": null,
            "ctb2Main": {
              "ntr": "ROOT_TRANSPOSITION",
              "ntt": "MELODIC_MINOR_5",
              "bassOn": false,
              "chordRootUpperLimit": 0,
              "noteLowLimit": 34,
              "noteHighLimit": 127,
              "rtr": "PITCH_SHIFT"
            },
            "ctb2High": null
          },
          "notes": [
            {
              "pitch": 70,
              "velocity": 108,
              "position": 0.9895833333333334,
              "duration": 0.34791666666666665
            },
            {
              "pitch": 60,
              "velocity": 98,
              "position": 0.98125,
              "duration": 0.45625
            },
            {
              "pitch": 69,
              "velocity": 56,
              "position": 1.3333333333333333,
              "duration": 0.10833333333333334
            },
            {
              "pitch": 84,
              "velocity": 127,
              "position": 0.9916666666666667,
              "duration": 0.45208333333333334
            },
            {
              "pitch": 67,
              "velocity": 51,
              "position": 1.4166666666666667,
              "duration": 0.10833333333333334
            },
            {
              "pitch": 60,
              "velocity": 56,
              "position": 1.4375,
              "duration": 0.08958333333333333
            },
            {
              "pitch": 82,
              "velocity": 56,
              "position": 1.4375,
              "duration": 0.08958333333333333
            },
            {
              "pitch": 76,
              "velocity": 110,
              "position": 0.9895833333333334,
              "duration": 0.5625
            },
            {
              "pitch": 58,
              "velocity": 51,
              "position": 1.5,
              "duration": 0.08958333333333333
            },
            {
              "pitch": 81,
              "velocity": 51,
              "position": 1.5,
              "duration": 0.08958333333333333
            },
            {
              "pitch": 74,
              "velocity": 56,
              "position": 1.5416666666666667,
              "duration": 0.058333333333333334
            },
            {
              "pitch": 65,
              "velocity": 45,
              "position": 1.5,
              "duration": 0.10833333333333334
            },
            {
              "pitch": 72,
              "velocity": 51,
              "position": 1.5833333333333333,
              "duration": 0.058333333333333334
            },
            {
              "pitch": 57,
              "velocity": 45,
              "position": 1.5625,
              "duration": 0.08958333333333333
            },
            {
              "pitch": 79,
              "velocity": 45,
              "position": 1.5625,
              "duration": 0.08958333333333333
            },
            {
              "pitch": 70,
              "velocity": 45,
              "position": 1.625,
              "duration": 0.058333333333333334
            },
            {
              "pitch": 64,
              "velocity": 40,
              "position": 1.5833333333333333,
              "duration": 0.10833333333333334
            },
            {
              "pitch": 55,
              "velocity": 40,
              "position": 1.625,
              "duration": 0.08958333333333333
            },
            {
              "pitch": 77,
              "velocity": 40,
              "position": 1.625,
              "duration": 0.08958333333333333
            },
            {
              "pitch": 69,
              "velocity": 40,
              "position": 1.6666666666666667,
              "duration": 0.058333333333333334
            },
            {
              "pitch": 67,
              "velocity": 35,
              "position": 1.7083333333333333,
              "duration": 0.058333333333333334
            },
            {
              "pitch": 62,
              "velocity": 35,
              "position": 1.6666666666666667,
              "duration": 0.10833333333333334
            },
            {
              "pitch": 53,
              "velocity": 35,
              "position": 1.6875,
              "duration": 0.08958333333333333
            },
            {
              "pitch": 76,
              "velocity": 35,
              "position": 1.6875,
              "duration": 0.08958333333333333
            },
            {
              "pitch": 65,
              "velocity": 30,
              "position": 1.75,
              "duration": 0.058333333333333334
            },
            {
              "pitch": 52,
              "velocity": 30,
              "position": 1.75,
              "duration": 0.08958333333333333
            },
            {
              "pitch": 74,
              "velocity": 30,
              "position": 1.75,
              "duration": 0.08958333333333333
            },
            {
              "pitch": 60,
              "velocity": 30,
              "position": 1.75,
              "duration": 0.10833333333333334
            },
            {
              "pitch": 70,
              "velocity": 53,
              "position": 6.489583333333333,
              "duration": 0.28541666666666665
            },
            {
              "pitch": 58,
              "velocity": 49,
              "position": 6.508333333333334,
              "duration": 0.2833333333333333
            },
            {
              "pitch": 82,
              "velocity": 51,
              "position": 6.504166666666666,
              "duration": 0.30625
            },
            {
              "pitch": 72,
              "velocity": 63,
              "position": 6.752083333333333,
              "duration": 0.21041666666666667
            },
            {
              "pitch": 84,
              "velocity": 64,
              "position": 6.764583333333333,
              "duration": 0.20833333333333334
            },
            {
              "pitch": 60,
              "velocity": 65,
              "position": 6.789583333333334,
              "duration": 0.1875
            },
            {
              "pitch": 84,
              "velocity": 127,
              "position": 6.98125,
              "duration": 0.2833333333333333
            },
            {
              "pitch": 72,
              "velocity": 127,
              "position": 6.989583333333333,
              "duration": 0.3020833333333333
            },
            {
              "pitch": 60,
              "velocity": 126,
              "position": 6.985416666666667,
              "duration": 0.3125
            },
            {
              "pitch": 82,
              "velocity": 60,
              "position": 7.25625,
              "duration": 0.275
            },
            {
              "pitch": 58,
              "velocity": 64,
              "position": 7.272916666666666,
              "duration": 0.27291666666666664
            },
            {
              "pitch": 70,
              "velocity": 64,
              "position": 7.283333333333333,
              "duration": 0.2791666666666667
            },
            {
              "pitch": 84,
              "velocity": 121,
              "position": 7.50625,
              "duration": 0.2604166666666667
            },
            {
              "pitch": 60,
              "velocity": 122,
              "position": 7.50625,
              "duration": 0.26666666666666666
            },
            {
              "pitch": 72,
              "velocity": 123,
              "position": 7.514583333333333,
              "duration": 0.275
            },
            {
              "pitch": 70,
              "velocity": 107,
              "position": 9.01875,
              "duration": 0.35625
            },
            {
              "pitch": 60,
              "velocity": 97,
              "position": 9.002083333333333,
              "duration": 0.4354166666666667
            },
            {
              "pitch": 69,
              "velocity": 56,
              "position": 9.333333333333334,
              "duration": 0.10833333333333334
            },
            {
              "pitch": 84,
              "velocity": 124,
              "position": 9.00625,
              "duration": 0.475
            },
            {
              "pitch": 67,
              "velocity": 51,
              "position": 9.416666666666666,
              "duration": 0.10833333333333334
            },
            {
              "pitch": 60,
              "velocity": 56,
              "position": 9.4375,
              "duration": 0.08958333333333333
            },
            {
              "pitch": 82,
              "velocity": 56,
              "position": 9.4375,
              "duration": 0.08958333333333333
            },
            {
              "pitch": 76,
              "velocity": 107,
              "position": 8.989583333333334,
              "duration": 0.5479166666666667
            },
            {
              "pitch": 58,
              "velocity": 51,
              "position": 9.5,
              "duration": 0.08958333333333333
            },
            {
              "pitch": 81,
              "velocity": 51,
              "position": 9.5,
              "duration": 0.08958333333333333
            },
            {
              "pitch": 74,
              "velocity": 56,
              "position": 9.541666666666666,
              "duration": 0.058333333333333334
            },
            {
              "pitch": 65,
              "velocity": 45,
              "position": 9.5,
              "duration": 0.10833333333333334
            },
            {
              "pitch": 72,
              "velocity": 51,
              "position": 9.583333333333334,
              "duration": 0.058333333333333334
            },
            {
              "pitch": 57,
              "velocity": 45,
              "position": 9.5625,
              "duration": 0.08958333333333333
            },
            {
              "pitch": 79,
              "velocity": 45,
              "position": 9.5625,
              "duration": 0.08958333333333333
            },
            {
              "pitch": 70,
              "velocity": 45,
              "position": 9.625,
              "duration": 0.058333333333333334
            },
            {
              "pitch": 64,
              "velocity": 40,
              "position": 9.583333333333334,
              "duration": 0.10833333333333334
            },
            {
              "pitch": 55,
              "velocity": 40,
              "position": 9.625,
              "duration": 0.08958333333333333
            },
            {
              "pitch": 77,
              "velocity": 40,
              "position": 9.625,
              "duration": 0.08958333333333333
            },
            {
              "pitch": 69,
              "velocity": 40,
              "position": 9.666666666666666,
              "duration": 0.058333333333333334
            },
            {
              "pitch": 67,
              "velocity": 35,
              "position": 9.708333333333334,
              "duration": 0.058333333333333334
            },
            {
              "pitch": 62,
              "velocity": 35,
              "position": 9.666666666666666,
              "duration": 0.10833333333333334
            },
            {
              "pitch": 53,
              "velocity": 35,
              "position": 9.6875,
              "duration": 0.08958333333333333
            },
            {
              "pitch": 76,
              "velocity": 35,
              "position": 9.6875,
              "duration": 0.08958333333333333
            },
            {
              "pitch": 65,
              "velocity": 30,
              "position": 9.75,
              "duration": 0.058333333333333334
            },
            {
              "pitch": 52,
              "velocity": 30,
              "position": 9.75,
              "duration": 0.08958333333333333
            },
            {
              "pitch": 74,
              "velocity": 30,
              "position": 9.75,
              "duration": 0.08958333333333333
            },
            {
              "pitch": 60,
              "velocity": 30,
              "position": 9.75,
              "duration": 0.10833333333333334
            },
            {
              "pitch": 58,
              "velocity": 52,
              "position": 14.50625,
              "duration": 0.2875
            },
            {
              "pitch": 70,
              "velocity": 51,
              "position": 14.516666666666667,
              "duration": 0.28125
            },
            {
              "pitch": 82,
              "velocity": 51,
              "position": 14.508333333333333,
              "duration": 0.29791666666666666
            },
            {
              "pitch": 72,
              "velocity": 62,
              "position": 14.7625,
              "duration": 0.23958333333333334
            },
            {
              "pitch": 84,
              "velocity": 60,
              "position": 14.770833333333334,
              "duration": 0.24791666666666667
            },
            {
              "pitch": 60,
              "velocity": 98,
              "position": 14.783333333333333,
              "duration": 0.25
            },
            {
              "pitch": 63,
              "velocity": 124,
              "position": 14.991666666666667,
              "duration": 0.28958333333333336
            },
            {
              "pitch": 87,
              "velocity": 126,
              "position": 15,
              "duration": 0.28541666666666665
            },
            {
              "pitch": 75,
              "velocity": 127,
              "position": 14.985416666666667,
              "duration": 0.3145833333333333
            },
            {
              "pitch": 82,
              "velocity": 62,
              "position": 15.275,
              "duration": 0.2604166666666667
            },
            {
              "pitch": 70,
              "velocity": 66,
              "position": 15.2875,
              "duration": 0.26875
            },
            {
              "pitch": 58,
              "velocity": 64,
              "position": 15.283333333333333,
              "duration": 0.27708333333333335
            },
            {
              "pitch": 60,
              "velocity": 116,
              "position": 15.495833333333334,
              "duration": 0.25833333333333336
            },
            {
              "pitch": 72,
              "velocity": 120,
              "position": 15.508333333333333,
              "duration": 0.2625
            },
            {
              "pitch": 84,
              "velocity": 123,
              "position": 15.508333333333333,
              "duration": 0.28125
            },
            {
              "pitch": 70,
              "velocity": 109,
              "position": 17.0125,
              "duration": 0.32083333333333336
            },
            {
              "pitch": 60,
              "velocity": 97,
              "position": 16.989583333333332,
              "duration": 0.4479166666666667
            },
            {
              "pitch": 69,
              "velocity": 56,
              "position": 17.333333333333332,
              "duration": 0.10833333333333334
            },
            {
              "pitch": 84,
              "velocity": 127,
              "position": 17.002083333333335,
              "duration": 0.4708333333333333
            },
            {
              "pitch": 67,
              "velocity": 51,
              "position": 17.416666666666668,
              "duration": 0.10833333333333334
            },
            {
              "pitch": 60,
              "velocity": 56,
              "position": 17.4375,
              "duration": 0.08958333333333333
            },
            {
              "pitch": 82,
              "velocity": 56,
              "position": 17.4375,
              "duration": 0.08958333333333333
            },
            {
              "pitch": 76,
              "velocity": 108,
              "position": 16.991666666666667,
              "duration": 0.5520833333333334
            },
            {
              "pitch": 58,
              "velocity": 51,
              "position": 17.5,
              "duration": 0.08958333333333333
            },
            {
              "pitch": 81,
              "velocity": 51,
              "position": 17.5,
              "duration": 0.08958333333333333
            },
            {
              "pitch": 74,
              "velocity": 56,
              "position": 17.541666666666668,
              "duration": 0.058333333333333334
            },
            {
              "pitch": 65,
              "velocity": 45,
              "position": 17.5,
              "duration": 0.10833333333333334
            },
            {
              "pitch": 72,
              "velocity": 51,
              "position": 17.583333333333332,
              "duration": 0.058333333333333334
            },
            {
              "pitch": 57,
              "velocity": 45,
              "position": 17.5625,
              "duration": 0.08958333333333333
            },
            {
              "pitch": 79,
              "velocity": 45,
              "position": 17.5625,
              "duration": 0.08958333333333333
            },
            {
              "pitch": 70,
              "velocity": 45,
              "position": 17.625,
              "duration": 0.058333333333333334
            },
            {
              "pitch": 64,
              "velocity": 40,
              "position": 17.583333333333332,
              "duration": 0.10833333333333334
            },
            {
              "pitch": 55,
              "velocity": 40,
              "position": 17.625,
              "duration": 0.08958333333333333
            },
            {
              "pitch": 77,
              "velocity": 40,
              "position": 17.625,
              "duration": 0.08958333333333333
            },
            {
              "pitch": 69,
              "velocity": 40,
              "position": 17.666666666666668,
              "duration": 0.058333333333333334
            },
            {
              "pitch": 67,
              "velocity": 35,
              "position": 17.708333333333332,
              "duration": 0.058333333333333334
            },
            {
              "pitch": 62,
              "velocity": 35,
              "position": 17.666666666666668,
              "duration": 0.10833333333333334
            },
            {
              "pitch": 53,
              "velocity": 35,
              "position": 17.6875,
              "duration": 0.08958333333333333
            },
            {
              "pitch": 76,
              "velocity": 35,
              "position": 17.6875,
              "duration": 0.08958333333333333
            },
            {
              "pitch": 65,
              "velocity": 30,
              "position": 17.75,
              "duration": 0.058333333333333334
            },
            {
              "pitch": 52,
              "velocity": 30,
              "position": 17.75,
              "duration": 0.08958333333333333
            },
            {
              "pitch": 74,
              "velocity": 30,
              "position": 17.75,
              "duration": 0.08958333333333333
            },
            {
              "pitch": 60,
              "velocity": 30,
              "position": 17.75,
              "duration": 0.10833333333333334
            },
            {
              "pitch": 58,
              "velocity": 51,
              "position": 22.48125,
              "duration": 0.2875
            },
            {
              "pitch": 70,
              "velocity": 51,
              "position": 22.5125,
              "duration": 0.28541666666666665
            },
            {
              "pitch": 82,
              "velocity": 48,
              "position": 22.502083333333335,
              "duration": 0.3145833333333333
            },
            {
              "pitch": 84,
              "velocity": 60,
              "position": 22.76875,
              "duration": 0.20416666666666666
            },
            {
              "pitch": 60,
              "velocity": 60,
              "position": 22.770833333333332,
              "duration": 0.20416666666666666
            },
            {
              "pitch": 72,
              "velocity": 64,
              "position": 22.789583333333333,
              "duration": 0.20208333333333334
            },
            {
              "pitch": 84,
              "velocity": 127,
              "position": 22.98125,
              "duration": 0.2916666666666667
            },
            {
              "pitch": 60,
              "velocity": 124,
              "position": 22.997916666666665,
              "duration": 0.28125
            },
            {
              "pitch": 72,
              "velocity": 127,
              "position": 23,
              "duration": 0.28958333333333336
            },
            {
              "pitch": 58,
              "velocity": 64,
              "position": 23.277083333333334,
              "duration": 0.2625
            },
            {
              "pitch": 82,
              "velocity": 60,
              "position": 23.277083333333334,
              "duration": 0.2791666666666667
            },
            {
              "pitch": 70,
              "velocity": 62,
              "position": 23.289583333333333,
              "duration": 0.26875
            },
            {
              "pitch": 84,
              "velocity": 120,
              "position": 23.4875,
              "duration": 0.25
            },
            {
              "pitch": 60,
              "velocity": 121,
              "position": 23.491666666666667,
              "duration": 0.26458333333333334
            },
            {
              "pitch": 72,
              "velocity": 119,
              "position": 23.497916666666665,
              "duration": 0.2708333333333333
            },
            {
              "pitch": 70,
              "velocity": 100,
              "position": 25.008333333333333,
              "duration": 0.325
            },
            {
              "pitch": 84,
              "velocity": 115,
              "position": 24.98125,
              "duration": 0.44583333333333336
            },
            {
              "pitch": 60,
              "velocity": 100,
              "position": 25.014583333333334,
              "duration": 0.42291666666666666
            },
            {
              "pitch": 69,
              "velocity": 56,
              "position": 25.333333333333332,
              "duration": 0.10833333333333334
            },
            {
              "pitch": 67,
              "velocity": 51,
              "position": 25.416666666666668,
              "duration": 0.10833333333333334
            },
            {
              "pitch": 60,
              "velocity": 56,
              "position": 25.4375,
              "duration": 0.08958333333333333
            },
            {
              "pitch": 82,
              "velocity": 56,
              "position": 25.4375,
              "duration": 0.08958333333333333
            },
            {
              "pitch": 76,
              "velocity": 100,
              "position": 25.014583333333334,
              "duration": 0.5666666666666667
            },
            {
              "pitch": 58,
              "velocity": 51,
              "position": 25.5,
              "duration": 0.08958333333333333
            },
            {
              "pitch": 81,
              "velocity": 51,
              "position": 25.5,
              "duration": 0.08958333333333333
            },
            {
              "pitch": 74,
              "velocity": 56,
              "position": 25.541666666666668,
              "duration": 0.058333333333333334
            },
            {
              "pitch": 65,
              "velocity": 45,
              "position": 25.5,
              "duration": 0.10833333333333334
            },
            {
              "pitch": 72,
              "velocity": 51,
              "position": 25.583333333333332,
              "duration": 0.058333333333333334
            },
            {
              "pitch": 57,
              "velocity": 45,
              "position": 25.5625,
              "duration": 0.08958333333333333
            },
            {
              "pitch": 79,
              "velocity": 45,
              "position": 25.5625,
              "duration": 0.08958333333333333
            },
            {
              "pitch": 70,
              "velocity": 45,
              "position": 25.625,
              "duration": 0.058333333333333334
            },
            {
              "pitch": 64,
              "velocity": 40,
              "position": 25.583333333333332,
              "duration": 0.10833333333333334
            },
            {
              "pitch": 55,
              "velocity": 40,
              "position": 25.625,
              "duration": 0.08958333333333333
            },
            {
              "pitch": 77,
              "velocity": 40,
              "position": 25.625,
              "duration": 0.08958333333333333
            },
            {
              "pitch": 69,
              "velocity": 40,
              "position": 25.666666666666668,
              "duration": 0.058333333333333334
            },
            {
              "pitch": 67,
              "velocity": 35,
              "position": 25.708333333333332,
              "duration": 0.058333333333333334
            },
            {
              "pitch": 62,
              "velocity": 35,
              "position": 25.666666666666668,
              "duration": 0.10833333333333334
            },
            {
              "pitch": 53,
              "velocity": 35,
              "position": 25.6875,
              "duration": 0.08958333333333333
            },
            {
              "pitch": 76,
              "velocity": 35,
              "position": 25.6875,
              "duration": 0.08958333333333333
            },
            {
              "pitch": 65,
              "velocity": 30,
              "position": 25.75,
              "duration": 0.058333333333333334
            },
            {
              "pitch": 52,
              "velocity": 30,
              "position": 25.75,
              "duration": 0.08958333333333333
            },
            {
              "pitch": 74,
              "velocity": 30,
              "position": 25.75,
              "duration": 0.08958333333333333
            },
            {
              "pitch": 60,
              "velocity": 30,
              "position": 25.75,
              "duration": 0.10833333333333334
            },
            {
              "pitch": 70,
              "velocity": 48,
              "position": 30.49375,
              "duration": 0.29375
            },
            {
              "pitch": 58,
              "velocity": 51,
              "position": 30.491666666666667,
              "duration": 0.3125
            },
            {
              "pitch": 82,
              "velocity": 50,
              "position": 30.516666666666666,
              "duration": 0.33125
            },
            {
              "pitch": 84,
              "velocity": 60,
              "position": 30.764583333333334,
              "duration": 0.2625
            },
            {
              "pitch": 72,
              "velocity": 100,
              "position": 30.789583333333333,
              "duration": 0.2520833333333333
            },
            {
              "pitch": 60,
              "velocity": 61,
              "position": 30.7875,
              "duration": 0.2625
            },
            {
              "pitch": 87,
              "velocity": 127,
              "position": 31.002083333333335,
              "duration": 0.32083333333333336
            },
            {
              "pitch": 63,
              "velocity": 125,
              "position": 31.014583333333334,
              "duration": 0.3125
            },
            {
              "pitch": 75,
              "velocity": 127,
              "position": 31.027083333333334,
              "duration": 0.32083333333333336
            },
            {
              "pitch": 84,
              "velocity": 61,
              "position": 31.304166666666667,
              "duration": 0.21666666666666667
            },
            {
              "pitch": 72,
              "velocity": 65,
              "position": 31.30625,
              "duration": 0.24166666666666667
            },
            {
              "pitch": 60,
              "velocity": 64,
              "position": 31.31875,
              "duration": 0.23958333333333334
            },
            {
              "pitch": 82,
              "velocity": 117,
              "position": 31.489583333333332,
              "duration": 0.27708333333333335
            },
            {
              "pitch": 58,
              "velocity": 116,
              "position": 31.502083333333335,
              "duration": 0.275
            },
            {
              "pitch": 70,
              "velocity": 124,
              "position": 31.510416666666668,
              "duration": 0.2708333333333333
            }
          ]
        },
        "7": {
          "ctab": {
            "srcChannel": 7,
            "name": "Hns b",
            "accType": "PHRASE2",
            "editable": false,
            "mutedNotes": [],
            "mutedChords": [
              "1+2+5",
              "sus4",
              "1+5",
              "1+8",
              "7aug",
              "Maj7aug",
              "7(#9)",
              "7(b13)",
              "7(13)",
              "7#11",
              "7(9)",
              "7b5",
              "7sus4",
              "7th",
              "dim",
              "min7(11)",
              "min7(9)",
              "min(9)",
              "m7b5",
              "min7",
              "min",
              "aug",
              "Maj"
            ],
            "autoStart": false,
            "sourceChordNote": 0,
            "sourceChordType": "Maj7",
            "ctb2Low": null,
            "ctb2Main": {
              "ntr": "ROOT_TRANSPOSITION",
              "ntt": "MELODIC_MINOR_5",
              "bassOn": false,
              "chordRootUpperLimit": 0,
              "noteLowLimit": 34,
              "noteHighLimit": 127,
              "rtr": "PITCH_SHIFT"
            },
            "ctb2High": null
          },
          "notes": [
            {
              "pitch": 72,
              "velocity": 109,
              "position": 0.9875,
              "duration": 0.3416666666666667
            },
            {
              "pitch": 71,
              "velocity": 56,
              "position": 1.3333333333333333,
              "duration": 0.10833333333333334
            },
            {
              "pitch": 64,
              "velocity": 102,
              "position": 1.0166666666666666,
              "duration": 0.4666666666666667
            },
            {
              "pitch": 84,
              "velocity": 127,
              "position": 1.0145833333333334,
              "duration": 0.47291666666666665
            },
            {
              "pitch": 69,
              "velocity": 51,
              "position": 1.4166666666666667,
              "duration": 0.10833333333333334
            },
            {
              "pitch": 62,
              "velocity": 56,
              "position": 1.4375,
              "duration": 0.08958333333333333
            },
            {
              "pitch": 83,
              "velocity": 56,
              "position": 1.4375,
              "duration": 0.08958333333333333
            },
            {
              "pitch": 79,
              "velocity": 106,
              "position": 1.0041666666666667,
              "duration": 0.5583333333333333
            },
            {
              "pitch": 60,
              "velocity": 51,
              "position": 1.5,
              "duration": 0.08958333333333333
            },
            {
              "pitch": 81,
              "velocity": 51,
              "position": 1.5,
              "duration": 0.08958333333333333
            },
            {
              "pitch": 77,
              "velocity": 56,
              "position": 1.5416666666666667,
              "duration": 0.058333333333333334
            },
            {
              "pitch": 67,
              "velocity": 45,
              "position": 1.5,
              "duration": 0.10833333333333334
            },
            {
              "pitch": 76,
              "velocity": 51,
              "position": 1.5833333333333333,
              "duration": 0.058333333333333334
            },
            {
              "pitch": 59,
              "velocity": 45,
              "position": 1.5625,
              "duration": 0.08958333333333333
            },
            {
              "pitch": 79,
              "velocity": 45,
              "position": 1.5625,
              "duration": 0.08958333333333333
            },
            {
              "pitch": 74,
              "velocity": 45,
              "position": 1.625,
              "duration": 0.058333333333333334
            },
            {
              "pitch": 65,
              "velocity": 40,
              "position": 1.5833333333333333,
              "duration": 0.10833333333333334
            },
            {
              "pitch": 57,
              "velocity": 40,
              "position": 1.625,
              "duration": 0.08958333333333333
            },
            {
              "pitch": 77,
              "velocity": 40,
              "position": 1.625,
              "duration": 0.08958333333333333
            },
            {
              "pitch": 72,
              "velocity": 40,
              "position": 1.6666666666666667,
              "duration": 0.058333333333333334
            },
            {
              "pitch": 71,
              "velocity": 35,
              "position": 1.7083333333333333,
              "duration": 0.058333333333333334
            },
            {
              "pitch": 64,
              "velocity": 35,
              "position": 1.6666666666666667,
              "duration": 0.10833333333333334
            },
            {
              "pitch": 55,
              "velocity": 35,
              "position": 1.6875,
              "duration": 0.08958333333333333
            },
            {
              "pitch": 76,
              "velocity": 35,
              "position": 1.6875,
              "duration": 0.08958333333333333
            },
            {
              "pitch": 69,
              "velocity": 30,
              "position": 1.75,
              "duration": 0.058333333333333334
            },
            {
              "pitch": 53,
              "velocity": 30,
              "position": 1.75,
              "duration": 0.08958333333333333
            },
            {
              "pitch": 74,
              "velocity": 30,
              "position": 1.75,
              "duration": 0.08958333333333333
            },
            {
              "pitch": 62,
              "velocity": 30,
              "position": 1.75,
              "duration": 0.10833333333333334
            },
            {
              "pitch": 67,
              "velocity": 53,
              "position": 6.489583333333333,
              "duration": 0.28541666666666665
            },
            {
              "pitch": 55,
              "velocity": 49,
              "position": 6.508333333333334,
              "duration": 0.2833333333333333
            },
            {
              "pitch": 79,
              "velocity": 51,
              "position": 6.504166666666666,
              "duration": 0.30625
            },
            {
              "pitch": 69,
              "velocity": 63,
              "position": 6.752083333333333,
              "duration": 0.21041666666666667
            },
            {
              "pitch": 81,
              "velocity": 64,
              "position": 6.764583333333333,
              "duration": 0.20833333333333334
            },
            {
              "pitch": 57,
              "velocity": 65,
              "position": 6.789583333333334,
              "duration": 0.1875
            },
            {
              "pitch": 84,
              "velocity": 127,
              "position": 6.98125,
              "duration": 0.2833333333333333
            },
            {
              "pitch": 72,
              "velocity": 127,
              "position": 6.989583333333333,
              "duration": 0.3020833333333333
            },
            {
              "pitch": 60,
              "velocity": 126,
              "position": 6.985416666666667,
              "duration": 0.3125
            },
            {
              "pitch": 81,
              "velocity": 60,
              "position": 7.25625,
              "duration": 0.275
            },
            {
              "pitch": 57,
              "velocity": 64,
              "position": 7.272916666666666,
              "duration": 0.27291666666666664
            },
            {
              "pitch": 69,
              "velocity": 64,
              "position": 7.283333333333333,
              "duration": 0.2791666666666667
            },
            {
              "pitch": 84,
              "velocity": 121,
              "position": 7.50625,
              "duration": 0.2604166666666667
            },
            {
              "pitch": 60,
              "velocity": 122,
              "position": 7.50625,
              "duration": 0.26666666666666666
            },
            {
              "pitch": 72,
              "velocity": 123,
              "position": 7.514583333333333,
              "duration": 0.275
            },
            {
              "pitch": 72,
              "velocity": 109,
              "position": 8.9875,
              "duration": 0.3416666666666667
            },
            {
              "pitch": 71,
              "velocity": 56,
              "position": 9.333333333333334,
              "duration": 0.10833333333333334
            },
            {
              "pitch": 64,
              "velocity": 102,
              "position": 9.016666666666667,
              "duration": 0.4666666666666667
            },
            {
              "pitch": 84,
              "velocity": 127,
              "position": 9.014583333333333,
              "duration": 0.47291666666666665
            },
            {
              "pitch": 69,
              "velocity": 51,
              "position": 9.416666666666666,
              "duration": 0.10833333333333334
            },
            {
              "pitch": 62,
              "velocity": 56,
              "position": 9.4375,
              "duration": 0.08958333333333333
            },
            {
              "pitch": 83,
              "velocity": 56,
              "position": 9.4375,
              "duration": 0.08958333333333333
            },
            {
              "pitch": 79,
              "velocity": 106,
              "position": 9.004166666666666,
              "duration": 0.5583333333333333
            },
            {
              "pitch": 60,
              "velocity": 51,
              "position": 9.5,
              "duration": 0.08958333333333333
            },
            {
              "pitch": 81,
              "velocity": 51,
              "position": 9.5,
              "duration": 0.08958333333333333
            },
            {
              "pitch": 77,
              "velocity": 56,
              "position": 9.541666666666666,
              "duration": 0.058333333333333334
            },
            {
              "pitch": 67,
              "velocity": 45,
              "position": 9.5,
              "duration": 0.10833333333333334
            },
            {
              "pitch": 76,
              "velocity": 51,
              "position": 9.583333333333334,
              "duration": 0.058333333333333334
            },
            {
              "pitch": 59,
              "velocity": 45,
              "position": 9.5625,
              "duration": 0.08958333333333333
            },
            {
              "pitch": 79,
              "velocity": 45,
              "position": 9.5625,
              "duration": 0.08958333333333333
            },
            {
              "pitch": 74,
              "velocity": 45,
              "position": 9.625,
              "duration": 0.058333333333333334
            },
            {
              "pitch": 65,
              "velocity": 40,
              "position": 9.583333333333334,
              "duration": 0.10833333333333334
            },
            {
              "pitch": 57,
              "velocity": 40,
              "position": 9.625,
              "duration": 0.08958333333333333
            },
            {
              "pitch": 77,
              "velocity": 40,
              "position": 9.625,
              "duration": 0.08958333333333333
            },
            {
              "pitch": 72,
              "velocity": 40,
              "position": 9.666666666666666,
              "duration": 0.058333333333333334
            },
            {
              "pitch": 71,
              "velocity": 35,
              "position": 9.708333333333334,
              "duration": 0.058333333333333334
            },
            {
              "pitch": 64,
              "velocity": 35,
              "position": 9.666666666666666,
              "duration": 0.10833333333333334
            },
            {
              "pitch": 55,
              "velocity": 35,
              "position": 9.6875,
              "duration": 0.08958333333333333
            },
            {
              "pitch": 76,
              "velocity": 35,
              "position": 9.6875,
              "duration": 0.08958333333333333
            },
            {
              "pitch": 69,
              "velocity": 30,
              "position": 9.75,
              "duration": 0.058333333333333334
            },
            {
              "pitch": 53,
              "velocity": 30,
              "position": 9.75,
              "duration": 0.08958333333333333
            },
            {
              "pitch": 74,
              "velocity": 30,
              "position": 9.75,
              "duration": 0.08958333333333333
            },
            {
              "pitch": 62,
              "velocity": 30,
              "position": 9.75,
              "duration": 0.10833333333333334
            },
            {
              "pitch": 57,
              "velocity": 52,
              "position": 14.50625,
              "duration": 0.2875
            },
            {
              "pitch": 69,
              "velocity": 51,
              "position": 14.516666666666667,
              "duration": 0.28125
            },
            {
              "pitch": 81,
              "velocity": 51,
              "position": 14.508333333333333,
              "duration": 0.29791666666666666
            },
            {
              "pitch": 72,
              "velocity": 62,
              "position": 14.7625,
              "duration": 0.23958333333333334
            },
            {
              "pitch": 84,
              "velocity": 60,
              "position": 14.770833333333334,
              "duration": 0.24791666666666667
            },
            {
              "pitch": 60,
              "velocity": 98,
              "position": 14.783333333333333,
              "duration": 0.25
            },
            {
              "pitch": 62,
              "velocity": 124,
              "position": 14.991666666666667,
              "duration": 0.28958333333333336
            },
            {
              "pitch": 86,
              "velocity": 126,
              "position": 15,
              "duration": 0.28541666666666665
            },
            {
              "pitch": 74,
              "velocity": 127,
              "position": 14.985416666666667,
              "duration": 0.3145833333333333
            },
            {
              "pitch": 81,
              "velocity": 62,
              "position": 15.275,
              "duration": 0.2604166666666667
            },
            {
              "pitch": 69,
              "velocity": 66,
              "position": 15.2875,
              "duration": 0.26875
            },
            {
              "pitch": 57,
              "velocity": 64,
              "position": 15.283333333333333,
              "duration": 0.27708333333333335
            },
            {
              "pitch": 60,
              "velocity": 116,
              "position": 15.495833333333334,
              "duration": 0.25833333333333336
            },
            {
              "pitch": 72,
              "velocity": 120,
              "position": 15.508333333333333,
              "duration": 0.2625
            },
            {
              "pitch": 84,
              "velocity": 123,
              "position": 15.508333333333333,
              "duration": 0.28125
            },
            {
              "pitch": 72,
              "velocity": 109,
              "position": 16.9875,
              "duration": 0.3416666666666667
            },
            {
              "pitch": 71,
              "velocity": 56,
              "position": 17.333333333333332,
              "duration": 0.10833333333333334
            },
            {
              "pitch": 64,
              "velocity": 102,
              "position": 17.016666666666666,
              "duration": 0.4666666666666667
            },
            {
              "pitch": 84,
              "velocity": 127,
              "position": 17.014583333333334,
              "duration": 0.47291666666666665
            },
            {
              "pitch": 69,
              "velocity": 51,
              "position": 17.416666666666668,
              "duration": 0.10833333333333334
            },
            {
              "pitch": 62,
              "velocity": 56,
              "position": 17.4375,
              "duration": 0.08958333333333333
            },
            {
              "pitch": 83,
              "velocity": 56,
              "position": 17.4375,
              "duration": 0.08958333333333333
            },
            {
              "pitch": 79,
              "velocity": 106,
              "position": 17.004166666666666,
              "duration": 0.5583333333333333
            },
            {
              "pitch": 60,
              "velocity": 51,
              "position": 17.5,
              "duration": 0.08958333333333333
            },
            {
              "pitch": 81,
              "velocity": 51,
              "position": 17.5,
              "duration": 0.08958333333333333
            },
            {
              "pitch": 77,
              "velocity": 56,
              "position": 17.541666666666668,
              "duration": 0.058333333333333334
            },
            {
              "pitch": 67,
              "velocity": 45,
              "position": 17.5,
              "duration": 0.10833333333333334
            },
            {
              "pitch": 76,
              "velocity": 51,
              "position": 17.583333333333332,
              "duration": 0.058333333333333334
            },
            {
              "pitch": 59,
              "velocity": 45,
              "position": 17.5625,
              "duration": 0.08958333333333333
            },
            {
              "pitch": 79,
              "velocity": 45,
              "position": 17.5625,
              "duration": 0.08958333333333333
            },
            {
              "pitch": 74,
              "velocity": 45,
              "position": 17.625,
              "duration": 0.058333333333333334
            },
            {
              "pitch": 65,
              "velocity": 40,
              "position": 17.583333333333332,
              "duration": 0.10833333333333334
            },
            {
              "pitch": 57,
              "velocity": 40,
              "position": 17.625,
              "duration": 0.08958333333333333
            },
            {
              "pitch": 77,
              "velocity": 40,
              "position": 17.625,
              "duration": 0.08958333333333333
            },
            {
              "pitch": 72,
              "velocity": 40,
              "position": 17.666666666666668,
              "duration": 0.058333333333333334
            },
            {
              "pitch": 71,
              "velocity": 35,
              "position": 17.708333333333332,
              "duration": 0.058333333333333334
            },
            {
              "pitch": 64,
              "velocity": 35,
              "position": 17.666666666666668,
              "duration": 0.10833333333333334
            },
            {
              "pitch": 55,
              "velocity": 35,
              "position": 17.6875,
              "duration": 0.08958333333333333
            },
            {
              "pitch": 76,
              "velocity": 35,
              "position": 17.6875,
              "duration": 0.08958333333333333
            },
            {
              "pitch": 69,
              "velocity": 30,
              "position": 17.75,
              "duration": 0.058333333333333334
            },
            {
              "pitch": 53,
              "velocity": 30,
              "position": 17.75,
              "duration": 0.08958333333333333
            },
            {
              "pitch": 74,
              "velocity": 30,
              "position": 17.75,
              "duration": 0.08958333333333333
            },
            {
              "pitch": 62,
              "velocity": 30,
              "position": 17.75,
              "duration": 0.10833333333333334
            },
            {
              "pitch": 55,
              "velocity": 51,
              "position": 22.48125,
              "duration": 0.2875
            },
            {
              "pitch": 67,
              "velocity": 51,
              "position": 22.5125,
              "duration": 0.28541666666666665
            },
            {
              "pitch": 79,
              "velocity": 48,
              "position": 22.502083333333335,
              "duration": 0.3145833333333333
            },
            {
              "pitch": 81,
              "velocity": 60,
              "position": 22.76875,
              "duration": 0.20416666666666666
            },
            {
              "pitch": 57,
              "velocity": 60,
              "position": 22.770833333333332,
              "duration": 0.20416666666666666
            },
            {
              "pitch": 69,
              "velocity": 64,
              "position": 22.789583333333333,
              "duration": 0.20208333333333334
            },
            {
              "pitch": 84,
              "velocity": 127,
              "position": 22.98125,
              "duration": 0.2916666666666667
            },
            {
              "pitch": 60,
              "velocity": 124,
              "position": 22.997916666666665,
              "duration": 0.28125
            },
            {
              "pitch": 72,
              "velocity": 127,
              "position": 23,
              "duration": 0.28958333333333336
            },
            {
              "pitch": 57,
              "velocity": 64,
              "position": 23.277083333333334,
              "duration": 0.2625
            },
            {
              "pitch": 81,
              "velocity": 60,
              "position": 23.277083333333334,
              "duration": 0.2791666666666667
            },
            {
              "pitch": 69,
              "velocity": 62,
              "position": 23.289583333333333,
              "duration": 0.26875
            },
            {
              "pitch": 84,
              "velocity": 120,
              "position": 23.4875,
              "duration": 0.25
            },
            {
              "pitch": 60,
              "velocity": 121,
              "position": 23.491666666666667,
              "duration": 0.26458333333333334
            },
            {
              "pitch": 72,
              "velocity": 119,
              "position": 23.497916666666665,
              "duration": 0.2708333333333333
            },
            {
              "pitch": 72,
              "velocity": 109,
              "position": 24.9875,
              "duration": 0.3416666666666667
            },
            {
              "pitch": 71,
              "velocity": 56,
              "position": 25.333333333333332,
              "duration": 0.10833333333333334
            },
            {
              "pitch": 64,
              "velocity": 102,
              "position": 25.016666666666666,
              "duration": 0.4666666666666667
            },
            {
              "pitch": 84,
              "velocity": 127,
              "position": 25.014583333333334,
              "duration": 0.47291666666666665
            },
            {
              "pitch": 69,
              "velocity": 51,
              "position": 25.416666666666668,
              "duration": 0.10833333333333334
            },
            {
              "pitch": 62,
              "velocity": 56,
              "position": 25.4375,
              "duration": 0.08958333333333333
            },
            {
              "pitch": 83,
              "velocity": 56,
              "position": 25.4375,
              "duration": 0.08958333333333333
            },
            {
              "pitch": 79,
              "velocity": 106,
              "position": 25.004166666666666,
              "duration": 0.5583333333333333
            },
            {
              "pitch": 60,
              "velocity": 51,
              "position": 25.5,
              "duration": 0.08958333333333333
            },
            {
              "pitch": 81,
              "velocity": 51,
              "position": 25.5,
              "duration": 0.08958333333333333
            },
            {
              "pitch": 77,
              "velocity": 56,
              "position": 25.541666666666668,
              "duration": 0.058333333333333334
            },
            {
              "pitch": 67,
              "velocity": 45,
              "position": 25.5,
              "duration": 0.10833333333333334
            },
            {
              "pitch": 76,
              "velocity": 51,
              "position": 25.583333333333332,
              "duration": 0.058333333333333334
            },
            {
              "pitch": 59,
              "velocity": 45,
              "position": 25.5625,
              "duration": 0.08958333333333333
            },
            {
              "pitch": 79,
              "velocity": 45,
              "position": 25.5625,
              "duration": 0.08958333333333333
            },
            {
              "pitch": 74,
              "velocity": 45,
              "position": 25.625,
              "duration": 0.058333333333333334
            },
            {
              "pitch": 65,
              "velocity": 40,
              "position": 25.583333333333332,
              "duration": 0.10833333333333334
            },
            {
              "pitch": 57,
              "velocity": 40,
              "position": 25.625,
              "duration": 0.08958333333333333
            },
            {
              "pitch": 77,
              "velocity": 40,
              "position": 25.625,
              "duration": 0.08958333333333333
            },
            {
              "pitch": 72,
              "velocity": 40,
              "position": 25.666666666666668,
              "duration": 0.058333333333333334
            },
            {
              "pitch": 71,
              "velocity": 35,
              "position": 25.708333333333332,
              "duration": 0.058333333333333334
            },
            {
              "pitch": 64,
              "velocity": 35,
              "position": 25.666666666666668,
              "duration": 0.10833333333333334
            },
            {
              "pitch": 55,
              "velocity": 35,
              "position": 25.6875,
              "duration": 0.08958333333333333
            },
            {
              "pitch": 76,
              "velocity": 35,
              "position": 25.6875,
              "duration": 0.08958333333333333
            },
            {
              "pitch": 69,
              "velocity": 30,
              "position": 25.75,
              "duration": 0.058333333333333334
            },
            {
              "pitch": 53,
              "velocity": 30,
              "position": 25.75,
              "duration": 0.08958333333333333
            },
            {
              "pitch": 74,
              "velocity": 30,
              "position": 25.75,
              "duration": 0.08958333333333333
            },
            {
              "pitch": 62,
              "velocity": 30,
              "position": 25.75,
              "duration": 0.10833333333333334
            },
            {
              "pitch": 69,
              "velocity": 48,
              "position": 30.49375,
              "duration": 0.29375
            },
            {
              "pitch": 57,
              "velocity": 51,
              "position": 30.491666666666667,
              "duration": 0.3125
            },
            {
              "pitch": 81,
              "velocity": 50,
              "position": 30.516666666666666,
              "duration": 0.33125
            },
            {
              "pitch": 84,
              "velocity": 60,
              "position": 30.764583333333334,
              "duration": 0.2625
            },
            {
              "pitch": 72,
              "velocity": 100,
              "position": 30.789583333333333,
              "duration": 0.2520833333333333
            },
            {
              "pitch": 60,
              "velocity": 61,
              "position": 30.7875,
              "duration": 0.2625
            },
            {
              "pitch": 86,
              "velocity": 127,
              "position": 31.002083333333335,
              "duration": 0.32083333333333336
            },
            {
              "pitch": 62,
              "velocity": 125,
              "position": 31.014583333333334,
              "duration": 0.3125
            },
            {
              "pitch": 74,
              "velocity": 127,
              "position": 31.027083333333334,
              "duration": 0.32083333333333336
            },
            {
              "pitch": 84,
              "velocity": 61,
              "position": 31.304166666666667,
              "duration": 0.21666666666666667
            },
            {
              "pitch": 72,
              "velocity": 65,
              "position": 31.30625,
              "duration": 0.24166666666666667
            },
            {
              "pitch": 60,
              "velocity": 64,
              "position": 31.31875,
              "duration": 0.23958333333333334
            },
            {
              "pitch": 81,
              "velocity": 117,
              "position": 31.489583333333332,
              "duration": 0.27708333333333335
            },
            {
              "pitch": 57,
              "velocity": 116,
              "position": 31.502083333333335,
              "duration": 0.275
            },
            {
              "pitch": 69,
              "velocity": 124,
              "position": 31.510416666666668,
              "duration": 0.2708333333333333
            }
          ]
        },
        "8": {
          "ctab": {
            "srcChannel": 8,
            "name": "Perc.",
            "accType": "SUBRHYTHM",
            "editable": false,
            "mutedNotes": [],
            "mutedChords": [],
            "autoStart": true,
            "sourceChordNote": 0,
            "sourceChordType": "Maj7",
            "ctb2Low": null,
            "ctb2Main": {
              "ntr": "ROOT_FIXED",
              "ntt": "BYPASS",
              "bassOn": false,
              "chordRootUpperLimit": 6,
              "noteLowLimit": 0,
              "noteHighLimit": 127,
              "rtr": "PITCH_SHIFT"
            },
            "ctb2High": null
          },
          "notes": [
            {
              "pitch": 60,
              "velocity": 80,
              "position": 0,
              "duration": 0.010416666666666666
            },
            {
              "pitch": 23,
              "velocity": 98,
              "position": 0.010416666666666666,
              "duration": 0.010416666666666666
            },
            {
              "pitch": 68,
              "velocity": 79,
              "position": 0.010416666666666666,
              "duration": 0.010416666666666666
            },
            {
              "pitch": 73,
              "velocity": 95,
              "position": 0.010416666666666666,
              "duration": 0.010416666666666666
            },
            {
              "pitch": 73,
              "velocity": 43,
              "position": 0.24166666666666667,
              "duration": 0.010416666666666666
            },
            {
              "pitch": 68,
              "velocity": 44,
              "position": 0.24791666666666667,
              "duration": 0.010416666666666666
            },
            {
              "pitch": 22,
              "velocity": 50,
              "position": 0.27291666666666664,
              "duration": 0.010416666666666666
            },
            {
              "pitch": 73,
              "velocity": 73,
              "position": 0.49375,
              "duration": 0.010416666666666666
            },
            {
              "pitch": 68,
              "velocity": 58,
              "position": 0.5020833333333333,
              "duration": 0.010416666666666666
            },
            {
              "pitch": 28,
              "velocity": 96,
              "position": 0.5083333333333333,
              "duration": 0.010416666666666666
            },
            {
              "pitch": 68,
              "velocity": 44,
              "position": 0.7416666666666667,
              "duration": 0.010416666666666666
            },
            {
              "pitch": 73,
              "velocity": 46,
              "position": 0.7479166666666667,
              "duration": 0.010416666666666666
            },
            {
              "pitch": 22,
              "velocity": 50,
              "position": 0.7666666666666667,
              "duration": 0.010416666666666666
            },
            {
              "pitch": 60,
              "velocity": 80,
              "position": 1,
              "duration": 0.010416666666666666
            },
            {
              "pitch": 23,
              "velocity": 99,
              "position": 1.0041666666666667,
              "duration": 0.010416666666666666
            },
            {
              "pitch": 68,
              "velocity": 84,
              "position": 1.00625,
              "duration": 0.010416666666666666
            },
            {
              "pitch": 73,
              "velocity": 95,
              "position": 1.0145833333333334,
              "duration": 0.010416666666666666
            },
            {
              "pitch": 18,
              "velocity": 82,
              "position": 1.0208333333333333,
              "duration": 0.010416666666666666
            },
            {
              "pitch": 68,
              "velocity": 43,
              "position": 1.2333333333333334,
              "duration": 0.010416666666666666
            },
            {
              "pitch": 73,
              "velocity": 51,
              "position": 1.2375,
              "duration": 0.010416666666666666
            },
            {
              "pitch": 22,
              "velocity": 50,
              "position": 1.2604166666666667,
              "duration": 0.010416666666666666
            },
            {
              "pitch": 68,
              "velocity": 60,
              "position": 1.4916666666666667,
              "duration": 0.010416666666666666
            },
            {
              "pitch": 73,
              "velocity": 78,
              "position": 1.4958333333333333,
              "duration": 0.010416666666666666
            },
            {
              "pitch": 24,
              "velocity": 95,
              "position": 1.50625,
              "duration": 0.010416666666666666
            },
            {
              "pitch": 73,
              "velocity": 50,
              "position": 1.75,
              "duration": 0.010416666666666666
            },
            {
              "pitch": 68,
              "velocity": 40,
              "position": 1.7541666666666667,
              "duration": 0.010416666666666666
            },
            {
              "pitch": 25,
              "velocity": 92,
              "position": 1.7791666666666666,
              "duration": 0.010416666666666666
            },
            {
              "pitch": 23,
              "velocity": 101,
              "position": 1.9895833333333333,
              "duration": 0.010416666666666666
            },
            {
              "pitch": 60,
              "velocity": 80,
              "position": 2,
              "duration": 0.010416666666666666
            },
            {
              "pitch": 68,
              "velocity": 82,
              "position": 2.004166666666667,
              "duration": 0.010416666666666666
            },
            {
              "pitch": 73,
              "velocity": 97,
              "position": 2.004166666666667,
              "duration": 0.010416666666666666
            },
            {
              "pitch": 68,
              "velocity": 36,
              "position": 2.2354166666666666,
              "duration": 0.010416666666666666
            },
            {
              "pitch": 73,
              "velocity": 43,
              "position": 2.247916666666667,
              "duration": 0.010416666666666666
            },
            {
              "pitch": 22,
              "velocity": 50,
              "position": 2.2625,
              "duration": 0.010416666666666666
            },
            {
              "pitch": 73,
              "velocity": 77,
              "position": 2.4895833333333335,
              "duration": 0.010416666666666666
            },
            {
              "pitch": 68,
              "velocity": 64,
              "position": 2.497916666666667,
              "duration": 0.010416666666666666
            },
            {
              "pitch": 28,
              "velocity": 95,
              "position": 2.5,
              "duration": 0.010416666666666666
            },
            {
              "pitch": 68,
              "velocity": 39,
              "position": 2.74375,
              "duration": 0.010416666666666666
            },
            {
              "pitch": 73,
              "velocity": 47,
              "position": 2.747916666666667,
              "duration": 0.010416666666666666
            },
            {
              "pitch": 22,
              "velocity": 50,
              "position": 2.7708333333333335,
              "duration": 0.010416666666666666
            },
            {
              "pitch": 18,
              "velocity": 82,
              "position": 2.9770833333333333,
              "duration": 0.010416666666666666
            },
            {
              "pitch": 23,
              "velocity": 99,
              "position": 2.9916666666666667,
              "duration": 0.010416666666666666
            },
            {
              "pitch": 68,
              "velocity": 84,
              "position": 2.995833333333333,
              "duration": 0.010416666666666666
            },
            {
              "pitch": 60,
              "velocity": 80,
              "position": 3,
              "duration": 0.010416666666666666
            },
            {
              "pitch": 73,
              "velocity": 101,
              "position": 3.00625,
              "duration": 0.010416666666666666
            },
            {
              "pitch": 73,
              "velocity": 47,
              "position": 3.2333333333333334,
              "duration": 0.010416666666666666
            },
            {
              "pitch": 68,
              "velocity": 40,
              "position": 3.25,
              "duration": 0.010416666666666666
            },
            {
              "pitch": 22,
              "velocity": 50,
              "position": 3.279166666666667,
              "duration": 0.010416666666666666
            },
            {
              "pitch": 73,
              "velocity": 79,
              "position": 3.48125,
              "duration": 0.010416666666666666
            },
            {
              "pitch": 68,
              "velocity": 61,
              "position": 3.497916666666667,
              "duration": 0.010416666666666666
            },
            {
              "pitch": 31,
              "velocity": 96,
              "position": 3.50625,
              "duration": 0.010416666666666666
            },
            {
              "pitch": 73,
              "velocity": 47,
              "position": 3.7416666666666667,
              "duration": 0.010416666666666666
            },
            {
              "pitch": 68,
              "velocity": 39,
              "position": 3.747916666666667,
              "duration": 0.010416666666666666
            },
            {
              "pitch": 31,
              "velocity": 64,
              "position": 3.7729166666666667,
              "duration": 0.010416666666666666
            },
            {
              "pitch": 60,
              "velocity": 80,
              "position": 4,
              "duration": 0.010416666666666666
            },
            {
              "pitch": 23,
              "velocity": 98,
              "position": 4.010416666666667,
              "duration": 0.010416666666666666
            },
            {
              "pitch": 68,
              "velocity": 78,
              "position": 4.010416666666667,
              "duration": 0.010416666666666666
            },
            {
              "pitch": 73,
              "velocity": 99,
              "position": 4.010416666666667,
              "duration": 0.010416666666666666
            },
            {
              "pitch": 73,
              "velocity": 43,
              "position": 4.233333333333333,
              "duration": 0.010416666666666666
            },
            {
              "pitch": 68,
              "velocity": 37,
              "position": 4.241666666666666,
              "duration": 0.010416666666666666
            },
            {
              "pitch": 22,
              "velocity": 50,
              "position": 4.270833333333333,
              "duration": 0.010416666666666666
            },
            {
              "pitch": 73,
              "velocity": 73,
              "position": 4.4875,
              "duration": 0.010416666666666666
            },
            {
              "pitch": 28,
              "velocity": 93,
              "position": 4.489583333333333,
              "duration": 0.010416666666666666
            },
            {
              "pitch": 68,
              "velocity": 61,
              "position": 4.491666666666666,
              "duration": 0.010416666666666666
            },
            {
              "pitch": 68,
              "velocity": 41,
              "position": 4.745833333333334,
              "duration": 0.010416666666666666
            },
            {
              "pitch": 73,
              "velocity": 50,
              "position": 4.75,
              "duration": 0.010416666666666666
            },
            {
              "pitch": 22,
              "velocity": 50,
              "position": 4.772916666666666,
              "duration": 0.010416666666666666
            },
            {
              "pitch": 18,
              "velocity": 82,
              "position": 4.997916666666667,
              "duration": 0.010416666666666666
            },
            {
              "pitch": 23,
              "velocity": 99,
              "position": 4.997916666666667,
              "duration": 0.010416666666666666
            },
            {
              "pitch": 60,
              "velocity": 80,
              "position": 5,
              "duration": 0.010416666666666666
            },
            {
              "pitch": 68,
              "velocity": 83,
              "position": 5.00625,
              "duration": 0.010416666666666666
            },
            {
              "pitch": 73,
              "velocity": 99,
              "position": 5.016666666666667,
              "duration": 0.010416666666666666
            },
            {
              "pitch": 73,
              "velocity": 51,
              "position": 5.229166666666667,
              "duration": 0.010416666666666666
            },
            {
              "pitch": 68,
              "velocity": 36,
              "position": 5.247916666666667,
              "duration": 0.010416666666666666
            },
            {
              "pitch": 22,
              "velocity": 50,
              "position": 5.277083333333334,
              "duration": 0.010416666666666666
            },
            {
              "pitch": 73,
              "velocity": 79,
              "position": 5.4875,
              "duration": 0.010416666666666666
            },
            {
              "pitch": 68,
              "velocity": 63,
              "position": 5.5,
              "duration": 0.010416666666666666
            },
            {
              "pitch": 24,
              "velocity": 99,
              "position": 5.508333333333334,
              "duration": 0.010416666666666666
            },
            {
              "pitch": 68,
              "velocity": 38,
              "position": 5.739583333333333,
              "duration": 0.010416666666666666
            },
            {
              "pitch": 73,
              "velocity": 46,
              "position": 5.752083333333333,
              "duration": 0.010416666666666666
            },
            {
              "pitch": 25,
              "velocity": 95,
              "position": 5.766666666666667,
              "duration": 0.010416666666666666
            },
            {
              "pitch": 60,
              "velocity": 80,
              "position": 6,
              "duration": 0.010416666666666666
            },
            {
              "pitch": 23,
              "velocity": 101,
              "position": 6.002083333333333,
              "duration": 0.010416666666666666
            },
            {
              "pitch": 68,
              "velocity": 82,
              "position": 6.004166666666666,
              "duration": 0.010416666666666666
            },
            {
              "pitch": 73,
              "velocity": 101,
              "position": 6.00625,
              "duration": 0.010416666666666666
            },
            {
              "pitch": 73,
              "velocity": 43,
              "position": 6.239583333333333,
              "duration": 0.010416666666666666
            },
            {
              "pitch": 68,
              "velocity": 37,
              "position": 6.247916666666667,
              "duration": 0.010416666666666666
            },
            {
              "pitch": 22,
              "velocity": 50,
              "position": 6.279166666666667,
              "duration": 0.010416666666666666
            },
            {
              "pitch": 73,
              "velocity": 77,
              "position": 6.483333333333333,
              "duration": 0.010416666666666666
            },
            {
              "pitch": 28,
              "velocity": 99,
              "position": 6.5,
              "duration": 0.010416666666666666
            },
            {
              "pitch": 68,
              "velocity": 59,
              "position": 6.50625,
              "duration": 0.010416666666666666
            },
            {
              "pitch": 68,
              "velocity": 44,
              "position": 6.747916666666667,
              "duration": 0.010416666666666666
            },
            {
              "pitch": 73,
              "velocity": 43,
              "position": 6.75,
              "duration": 0.010416666666666666
            },
            {
              "pitch": 22,
              "velocity": 50,
              "position": 6.777083333333334,
              "duration": 0.010416666666666666
            },
            {
              "pitch": 18,
              "velocity": 82,
              "position": 6.977083333333334,
              "duration": 0.010416666666666666
            },
            {
              "pitch": 60,
              "velocity": 80,
              "position": 7,
              "duration": 0.010416666666666666
            },
            {
              "pitch": 23,
              "velocity": 99,
              "position": 7.002083333333333,
              "duration": 0.010416666666666666
            },
            {
              "pitch": 73,
              "velocity": 97,
              "position": 7.008333333333334,
              "duration": 0.010416666666666666
            },
            {
              "pitch": 68,
              "velocity": 83,
              "position": 7.014583333333333,
              "duration": 0.010416666666666666
            },
            {
              "pitch": 68,
              "velocity": 41,
              "position": 7.24375,
              "duration": 0.010416666666666666
            },
            {
              "pitch": 73,
              "velocity": 47,
              "position": 7.245833333333334,
              "duration": 0.010416666666666666
            },
            {
              "pitch": 22,
              "velocity": 50,
              "position": 7.277083333333334,
              "duration": 0.010416666666666666
            },
            {
              "pitch": 73,
              "velocity": 79,
              "position": 7.49375,
              "duration": 0.010416666666666666
            },
            {
              "pitch": 68,
              "velocity": 56,
              "position": 7.50625,
              "duration": 0.010416666666666666
            },
            {
              "pitch": 31,
              "velocity": 93,
              "position": 7.508333333333334,
              "duration": 0.010416666666666666
            },
            {
              "pitch": 73,
              "velocity": 43,
              "position": 7.74375,
              "duration": 0.010416666666666666
            },
            {
              "pitch": 68,
              "velocity": 36,
              "position": 7.75,
              "duration": 0.010416666666666666
            },
            {
              "pitch": 31,
              "velocity": 67,
              "position": 7.760416666666667,
              "duration": 0.010416666666666666
            },
            {
              "pitch": 60,
              "velocity": 80,
              "position": 8,
              "duration": 0.010416666666666666
            },
            {
              "pitch": 23,
              "velocity": 98,
              "position": 8.010416666666666,
              "duration": 0.010416666666666666
            },
            {
              "pitch": 68,
              "velocity": 77,
              "position": 8.010416666666666,
              "duration": 0.010416666666666666
            },
            {
              "pitch": 73,
              "velocity": 95,
              "position": 8.010416666666666,
              "duration": 0.010416666666666666
            },
            {
              "pitch": 68,
              "velocity": 38,
              "position": 8.235416666666667,
              "duration": 0.010416666666666666
            },
            {
              "pitch": 73,
              "velocity": 43,
              "position": 8.245833333333334,
              "duration": 0.010416666666666666
            },
            {
              "pitch": 22,
              "velocity": 50,
              "position": 8.26875,
              "duration": 0.010416666666666666
            },
            {
              "pitch": 73,
              "velocity": 73,
              "position": 8.479166666666666,
              "duration": 0.010416666666666666
            },
            {
              "pitch": 28,
              "velocity": 96,
              "position": 8.491666666666667,
              "duration": 0.010416666666666666
            },
            {
              "pitch": 68,
              "velocity": 56,
              "position": 8.5,
              "duration": 0.010416666666666666
            },
            {
              "pitch": 68,
              "velocity": 39,
              "position": 8.747916666666667,
              "duration": 0.010416666666666666
            },
            {
              "pitch": 73,
              "velocity": 46,
              "position": 8.752083333333333,
              "duration": 0.010416666666666666
            },
            {
              "pitch": 22,
              "velocity": 50,
              "position": 8.779166666666667,
              "duration": 0.010416666666666666
            },
            {
              "pitch": 18,
              "velocity": 82,
              "position": 9,
              "duration": 0.010416666666666666
            },
            {
              "pitch": 60,
              "velocity": 80,
              "position": 9,
              "duration": 0.010416666666666666
            },
            {
              "pitch": 68,
              "velocity": 82,
              "position": 9.00625,
              "duration": 0.010416666666666666
            },
            {
              "pitch": 23,
              "velocity": 99,
              "position": 9.008333333333333,
              "duration": 0.010416666666666666
            },
            {
              "pitch": 73,
              "velocity": 95,
              "position": 9.01875,
              "duration": 0.010416666666666666
            },
            {
              "pitch": 68,
              "velocity": 37,
              "position": 9.241666666666667,
              "duration": 0.010416666666666666
            },
            {
              "pitch": 73,
              "velocity": 51,
              "position": 9.241666666666667,
              "duration": 0.010416666666666666
            },
            {
              "pitch": 22,
              "velocity": 50,
              "position": 9.275,
              "duration": 0.010416666666666666
            },
            {
              "pitch": 73,
              "velocity": 79,
              "position": 9.479166666666666,
              "duration": 0.010416666666666666
            },
            {
              "pitch": 24,
              "velocity": 96,
              "position": 9.489583333333334,
              "duration": 0.010416666666666666
            },
            {
              "pitch": 68,
              "velocity": 59,
              "position": 9.489583333333334,
              "duration": 0.010416666666666666
            },
            {
              "pitch": 68,
              "velocity": 43,
              "position": 9.74375,
              "duration": 0.010416666666666666
            },
            {
              "pitch": 73,
              "velocity": 50,
              "position": 9.754166666666666,
              "duration": 0.010416666666666666
            },
            {
              "pitch": 25,
              "velocity": 96,
              "position": 9.775,
              "duration": 0.010416666666666666
            },
            {
              "pitch": 23,
              "velocity": 101,
              "position": 9.995833333333334,
              "duration": 0.010416666666666666
            },
            {
              "pitch": 60,
              "velocity": 80,
              "position": 10,
              "duration": 0.010416666666666666
            },
            {
              "pitch": 68,
              "velocity": 81,
              "position": 10.002083333333333,
              "duration": 0.010416666666666666
            },
            {
              "pitch": 73,
              "velocity": 97,
              "position": 10.008333333333333,
              "duration": 0.010416666666666666
            },
            {
              "pitch": 73,
              "velocity": 43,
              "position": 10.23125,
              "duration": 0.010416666666666666
            },
            {
              "pitch": 68,
              "velocity": 39,
              "position": 10.241666666666667,
              "duration": 0.010416666666666666
            },
            {
              "pitch": 22,
              "velocity": 50,
              "position": 10.277083333333334,
              "duration": 0.010416666666666666
            },
            {
              "pitch": 68,
              "velocity": 62,
              "position": 10.495833333333334,
              "duration": 0.010416666666666666
            },
            {
              "pitch": 73,
              "velocity": 78,
              "position": 10.495833333333334,
              "duration": 0.010416666666666666
            },
            {
              "pitch": 28,
              "velocity": 96,
              "position": 10.502083333333333,
              "duration": 0.010416666666666666
            },
            {
              "pitch": 68,
              "velocity": 41,
              "position": 10.75,
              "duration": 0.010416666666666666
            },
            {
              "pitch": 73,
              "velocity": 47,
              "position": 10.752083333333333,
              "duration": 0.010416666666666666
            },
            {
              "pitch": 22,
              "velocity": 50,
              "position": 10.764583333333333,
              "duration": 0.010416666666666666
            },
            {
              "pitch": 23,
              "velocity": 100,
              "position": 10.995833333333334,
              "duration": 0.010416666666666666
            },
            {
              "pitch": 60,
              "velocity": 80,
              "position": 11,
              "duration": 0.010416666666666666
            },
            {
              "pitch": 73,
              "velocity": 93,
              "position": 11.010416666666666,
              "duration": 0.010416666666666666
            },
            {
              "pitch": 68,
              "velocity": 82,
              "position": 11.014583333333333,
              "duration": 0.010416666666666666
            },
            {
              "pitch": 18,
              "velocity": 82,
              "position": 11.01875,
              "duration": 0.010416666666666666
            },
            {
              "pitch": 73,
              "velocity": 47,
              "position": 11.2375,
              "duration": 0.010416666666666666
            },
            {
              "pitch": 68,
              "velocity": 42,
              "position": 11.239583333333334,
              "duration": 0.010416666666666666
            },
            {
              "pitch": 22,
              "velocity": 50,
              "position": 11.272916666666667,
              "duration": 0.010416666666666666
            },
            {
              "pitch": 73,
              "velocity": 79,
              "position": 11.485416666666667,
              "duration": 0.010416666666666666
            },
            {
              "pitch": 31,
              "velocity": 96,
              "position": 11.491666666666667,
              "duration": 0.010416666666666666
            },
            {
              "pitch": 68,
              "velocity": 60,
              "position": 11.495833333333334,
              "duration": 0.010416666666666666
            },
            {
              "pitch": 73,
              "velocity": 48,
              "position": 11.745833333333334,
              "duration": 0.010416666666666666
            },
            {
              "pitch": 68,
              "velocity": 42,
              "position": 11.754166666666666,
              "duration": 0.010416666666666666
            },
            {
              "pitch": 31,
              "velocity": 62,
              "position": 11.76875,
              "duration": 0.010416666666666666
            },
            {
              "pitch": 60,
              "velocity": 80,
              "position": 12,
              "duration": 0.010416666666666666
            },
            {
              "pitch": 23,
              "velocity": 98,
              "position": 12.010416666666666,
              "duration": 0.010416666666666666
            },
            {
              "pitch": 68,
              "velocity": 77,
              "position": 12.010416666666666,
              "duration": 0.010416666666666666
            },
            {
              "pitch": 73,
              "velocity": 99,
              "position": 12.010416666666666,
              "duration": 0.010416666666666666
            },
            {
              "pitch": 73,
              "velocity": 43,
              "position": 12.2375,
              "duration": 0.010416666666666666
            },
            {
              "pitch": 68,
              "velocity": 40,
              "position": 12.25,
              "duration": 0.010416666666666666
            },
            {
              "pitch": 22,
              "velocity": 50,
              "position": 12.266666666666667,
              "duration": 0.010416666666666666
            },
            {
              "pitch": 68,
              "velocity": 60,
              "position": 12.489583333333334,
              "duration": 0.010416666666666666
            },
            {
              "pitch": 73,
              "velocity": 74,
              "position": 12.491666666666667,
              "duration": 0.010416666666666666
            },
            {
              "pitch": 28,
              "velocity": 93,
              "position": 12.49375,
              "duration": 0.010416666666666666
            },
            {
              "pitch": 68,
              "velocity": 36,
              "position": 12.752083333333333,
              "duration": 0.010416666666666666
            },
            {
              "pitch": 73,
              "velocity": 50,
              "position": 12.754166666666666,
              "duration": 0.010416666666666666
            },
            {
              "pitch": 22,
              "velocity": 50,
              "position": 12.76875,
              "duration": 0.010416666666666666
            },
            {
              "pitch": 23,
              "velocity": 100,
              "position": 13,
              "duration": 0.010416666666666666
            },
            {
              "pitch": 60,
              "velocity": 80,
              "position": 13,
              "duration": 0.010416666666666666
            },
            {
              "pitch": 73,
              "velocity": 99,
              "position": 13.002083333333333,
              "duration": 0.010416666666666666
            },
            {
              "pitch": 68,
              "velocity": 82,
              "position": 13.004166666666666,
              "duration": 0.010416666666666666
            },
            {
              "pitch": 18,
              "velocity": 82,
              "position": 13.016666666666667,
              "duration": 0.010416666666666666
            },
            {
              "pitch": 73,
              "velocity": 51,
              "position": 13.233333333333333,
              "duration": 0.010416666666666666
            },
            {
              "pitch": 68,
              "velocity": 39,
              "position": 13.235416666666667,
              "duration": 0.010416666666666666
            },
            {
              "pitch": 22,
              "velocity": 50,
              "position": 13.272916666666667,
              "duration": 0.010416666666666666
            },
            {
              "pitch": 24,
              "velocity": 99,
              "position": 13.491666666666667,
              "duration": 0.010416666666666666
            },
            {
              "pitch": 73,
              "velocity": 79,
              "position": 13.491666666666667,
              "duration": 0.010416666666666666
            },
            {
              "pitch": 68,
              "velocity": 62,
              "position": 13.5,
              "duration": 0.010416666666666666
            },
            {
              "pitch": 68,
              "velocity": 40,
              "position": 13.747916666666667,
              "duration": 0.010416666666666666
            },
            {
              "pitch": 73,
              "velocity": 46,
              "position": 13.75625,
              "duration": 0.010416666666666666
            },
            {
              "pitch": 25,
              "velocity": 98,
              "position": 13.7625,
              "duration": 0.010416666666666666
            },
            {
              "pitch": 60,
              "velocity": 80,
              "position": 14,
              "duration": 0.010416666666666666
            },
            {
              "pitch": 68,
              "velocity": 80,
              "position": 14.002083333333333,
              "duration": 0.010416666666666666
            },
            {
              "pitch": 23,
              "velocity": 101,
              "position": 14.00625,
              "duration": 0.010416666666666666
            },
            {
              "pitch": 73,
              "velocity": 93,
              "position": 14.010416666666666,
              "duration": 0.010416666666666666
            },
            {
              "pitch": 68,
              "velocity": 40,
              "position": 14.2375,
              "duration": 0.010416666666666666
            },
            {
              "pitch": 73,
              "velocity": 43,
              "position": 14.24375,
              "duration": 0.010416666666666666
            },
            {
              "pitch": 22,
              "velocity": 50,
              "position": 14.275,
              "duration": 0.010416666666666666
            },
            {
              "pitch": 73,
              "velocity": 78,
              "position": 14.4875,
              "duration": 0.010416666666666666
            },
            {
              "pitch": 28,
              "velocity": 99,
              "position": 14.504166666666666,
              "duration": 0.010416666666666666
            },
            {
              "pitch": 68,
              "velocity": 58,
              "position": 14.504166666666666,
              "duration": 0.010416666666666666
            },
            {
              "pitch": 73,
              "velocity": 44,
              "position": 14.754166666666666,
              "duration": 0.010416666666666666
            },
            {
              "pitch": 68,
              "velocity": 39,
              "position": 14.75625,
              "duration": 0.010416666666666666
            },
            {
              "pitch": 22,
              "velocity": 50,
              "position": 14.770833333333334,
              "duration": 0.010416666666666666
            },
            {
              "pitch": 18,
              "velocity": 82,
              "position": 14.99375,
              "duration": 0.010416666666666666
            },
            {
              "pitch": 60,
              "velocity": 80,
              "position": 15,
              "duration": 0.010416666666666666
            },
            {
              "pitch": 23,
              "velocity": 100,
              "position": 15.00625,
              "duration": 0.010416666666666666
            },
            {
              "pitch": 68,
              "velocity": 81,
              "position": 15.0125,
              "duration": 0.010416666666666666
            },
            {
              "pitch": 73,
              "velocity": 97,
              "position": 15.0125,
              "duration": 0.010416666666666666
            },
            {
              "pitch": 73,
              "velocity": 47,
              "position": 15.229166666666666,
              "duration": 0.010416666666666666
            },
            {
              "pitch": 68,
              "velocity": 44,
              "position": 15.233333333333333,
              "duration": 0.010416666666666666
            },
            {
              "pitch": 22,
              "velocity": 50,
              "position": 15.270833333333334,
              "duration": 0.010416666666666666
            },
            {
              "pitch": 31,
              "velocity": 93,
              "position": 15.49375,
              "duration": 0.010416666666666666
            },
            {
              "pitch": 73,
              "velocity": 79,
              "position": 15.497916666666667,
              "duration": 0.010416666666666666
            },
            {
              "pitch": 68,
              "velocity": 64,
              "position": 15.504166666666666,
              "duration": 0.010416666666666666
            },
            {
              "pitch": 68,
              "velocity": 39,
              "position": 15.739583333333334,
              "duration": 0.010416666666666666
            },
            {
              "pitch": 73,
              "velocity": 44,
              "position": 15.747916666666667,
              "duration": 0.010416666666666666
            },
            {
              "pitch": 31,
              "velocity": 64,
              "position": 15.775,
              "duration": 0.010416666666666666
            },
            {
              "pitch": 60,
              "velocity": 80,
              "position": 16,
              "duration": 0.010416666666666666
            },
            {
              "pitch": 23,
              "velocity": 98,
              "position": 16.010416666666668,
              "duration": 0.010416666666666666
            },
            {
              "pitch": 68,
              "velocity": 79,
              "position": 16.010416666666668,
              "duration": 0.010416666666666666
            },
            {
              "pitch": 73,
              "velocity": 95,
              "position": 16.010416666666668,
              "duration": 0.010416666666666666
            },
            {
              "pitch": 73,
              "velocity": 43,
              "position": 16.241666666666667,
              "duration": 0.010416666666666666
            },
            {
              "pitch": 68,
              "velocity": 44,
              "position": 16.247916666666665,
              "duration": 0.010416666666666666
            },
            {
              "pitch": 22,
              "velocity": 50,
              "position": 16.272916666666667,
              "duration": 0.010416666666666666
            },
            {
              "pitch": 73,
              "velocity": 73,
              "position": 16.49375,
              "duration": 0.010416666666666666
            },
            {
              "pitch": 68,
              "velocity": 58,
              "position": 16.502083333333335,
              "duration": 0.010416666666666666
            },
            {
              "pitch": 28,
              "velocity": 96,
              "position": 16.508333333333333,
              "duration": 0.010416666666666666
            },
            {
              "pitch": 68,
              "velocity": 44,
              "position": 16.741666666666667,
              "duration": 0.010416666666666666
            },
            {
              "pitch": 73,
              "velocity": 46,
              "position": 16.747916666666665,
              "duration": 0.010416666666666666
            },
            {
              "pitch": 22,
              "velocity": 50,
              "position": 16.766666666666666,
              "duration": 0.010416666666666666
            },
            {
              "pitch": 60,
              "velocity": 80,
              "position": 17,
              "duration": 0.010416666666666666
            },
            {
              "pitch": 23,
              "velocity": 99,
              "position": 17.004166666666666,
              "duration": 0.010416666666666666
            },
            {
              "pitch": 68,
              "velocity": 84,
              "position": 17.00625,
              "duration": 0.010416666666666666
            },
            {
              "pitch": 73,
              "velocity": 95,
              "position": 17.014583333333334,
              "duration": 0.010416666666666666
            },
            {
              "pitch": 18,
              "velocity": 82,
              "position": 17.020833333333332,
              "duration": 0.010416666666666666
            },
            {
              "pitch": 68,
              "velocity": 43,
              "position": 17.233333333333334,
              "duration": 0.010416666666666666
            },
            {
              "pitch": 73,
              "velocity": 51,
              "position": 17.2375,
              "duration": 0.010416666666666666
            },
            {
              "pitch": 22,
              "velocity": 50,
              "position": 17.260416666666668,
              "duration": 0.010416666666666666
            },
            {
              "pitch": 68,
              "velocity": 60,
              "position": 17.491666666666667,
              "duration": 0.010416666666666666
            },
            {
              "pitch": 73,
              "velocity": 78,
              "position": 17.495833333333334,
              "duration": 0.010416666666666666
            },
            {
              "pitch": 24,
              "velocity": 95,
              "position": 17.50625,
              "duration": 0.010416666666666666
            },
            {
              "pitch": 73,
              "velocity": 50,
              "position": 17.75,
              "duration": 0.010416666666666666
            },
            {
              "pitch": 68,
              "velocity": 40,
              "position": 17.754166666666666,
              "duration": 0.010416666666666666
            },
            {
              "pitch": 25,
              "velocity": 92,
              "position": 17.779166666666665,
              "duration": 0.010416666666666666
            },
            {
              "pitch": 23,
              "velocity": 101,
              "position": 17.989583333333332,
              "duration": 0.010416666666666666
            },
            {
              "pitch": 60,
              "velocity": 80,
              "position": 18,
              "duration": 0.010416666666666666
            },
            {
              "pitch": 68,
              "velocity": 82,
              "position": 18.004166666666666,
              "duration": 0.010416666666666666
            },
            {
              "pitch": 73,
              "velocity": 97,
              "position": 18.004166666666666,
              "duration": 0.010416666666666666
            },
            {
              "pitch": 68,
              "velocity": 36,
              "position": 18.235416666666666,
              "duration": 0.010416666666666666
            },
            {
              "pitch": 73,
              "velocity": 43,
              "position": 18.247916666666665,
              "duration": 0.010416666666666666
            },
            {
              "pitch": 22,
              "velocity": 50,
              "position": 18.2625,
              "duration": 0.010416666666666666
            },
            {
              "pitch": 73,
              "velocity": 77,
              "position": 18.489583333333332,
              "duration": 0.010416666666666666
            },
            {
              "pitch": 68,
              "velocity": 64,
              "position": 18.497916666666665,
              "duration": 0.010416666666666666
            },
            {
              "pitch": 28,
              "velocity": 95,
              "position": 18.5,
              "duration": 0.010416666666666666
            },
            {
              "pitch": 68,
              "velocity": 39,
              "position": 18.74375,
              "duration": 0.010416666666666666
            },
            {
              "pitch": 73,
              "velocity": 47,
              "position": 18.747916666666665,
              "duration": 0.010416666666666666
            },
            {
              "pitch": 22,
              "velocity": 50,
              "position": 18.770833333333332,
              "duration": 0.010416666666666666
            },
            {
              "pitch": 18,
              "velocity": 82,
              "position": 18.977083333333333,
              "duration": 0.010416666666666666
            },
            {
              "pitch": 23,
              "velocity": 99,
              "position": 18.991666666666667,
              "duration": 0.010416666666666666
            },
            {
              "pitch": 68,
              "velocity": 84,
              "position": 18.995833333333334,
              "duration": 0.010416666666666666
            },
            {
              "pitch": 60,
              "velocity": 80,
              "position": 19,
              "duration": 0.010416666666666666
            },
            {
              "pitch": 73,
              "velocity": 101,
              "position": 19.00625,
              "duration": 0.010416666666666666
            },
            {
              "pitch": 73,
              "velocity": 47,
              "position": 19.233333333333334,
              "duration": 0.010416666666666666
            },
            {
              "pitch": 68,
              "velocity": 40,
              "position": 19.25,
              "duration": 0.010416666666666666
            },
            {
              "pitch": 22,
              "velocity": 50,
              "position": 19.279166666666665,
              "duration": 0.010416666666666666
            },
            {
              "pitch": 73,
              "velocity": 79,
              "position": 19.48125,
              "duration": 0.010416666666666666
            },
            {
              "pitch": 68,
              "velocity": 61,
              "position": 19.497916666666665,
              "duration": 0.010416666666666666
            },
            {
              "pitch": 31,
              "velocity": 96,
              "position": 19.50625,
              "duration": 0.010416666666666666
            },
            {
              "pitch": 73,
              "velocity": 47,
              "position": 19.741666666666667,
              "duration": 0.010416666666666666
            },
            {
              "pitch": 68,
              "velocity": 39,
              "position": 19.747916666666665,
              "duration": 0.010416666666666666
            },
            {
              "pitch": 31,
              "velocity": 64,
              "position": 19.772916666666667,
              "duration": 0.010416666666666666
            },
            {
              "pitch": 60,
              "velocity": 80,
              "position": 20,
              "duration": 0.010416666666666666
            },
            {
              "pitch": 23,
              "velocity": 98,
              "position": 20.010416666666668,
              "duration": 0.010416666666666666
            },
            {
              "pitch": 68,
              "velocity": 78,
              "position": 20.010416666666668,
              "duration": 0.010416666666666666
            },
            {
              "pitch": 73,
              "velocity": 99,
              "position": 20.010416666666668,
              "duration": 0.010416666666666666
            },
            {
              "pitch": 73,
              "velocity": 43,
              "position": 20.233333333333334,
              "duration": 0.010416666666666666
            },
            {
              "pitch": 68,
              "velocity": 37,
              "position": 20.241666666666667,
              "duration": 0.010416666666666666
            },
            {
              "pitch": 22,
              "velocity": 50,
              "position": 20.270833333333332,
              "duration": 0.010416666666666666
            },
            {
              "pitch": 73,
              "velocity": 73,
              "position": 20.4875,
              "duration": 0.010416666666666666
            },
            {
              "pitch": 28,
              "velocity": 93,
              "position": 20.489583333333332,
              "duration": 0.010416666666666666
            },
            {
              "pitch": 68,
              "velocity": 61,
              "position": 20.491666666666667,
              "duration": 0.010416666666666666
            },
            {
              "pitch": 68,
              "velocity": 41,
              "position": 20.745833333333334,
              "duration": 0.010416666666666666
            },
            {
              "pitch": 73,
              "velocity": 50,
              "position": 20.75,
              "duration": 0.010416666666666666
            },
            {
              "pitch": 22,
              "velocity": 50,
              "position": 20.772916666666667,
              "duration": 0.010416666666666666
            },
            {
              "pitch": 18,
              "velocity": 82,
              "position": 20.997916666666665,
              "duration": 0.010416666666666666
            },
            {
              "pitch": 23,
              "velocity": 99,
              "position": 20.997916666666665,
              "duration": 0.010416666666666666
            },
            {
              "pitch": 60,
              "velocity": 80,
              "position": 21,
              "duration": 0.010416666666666666
            },
            {
              "pitch": 68,
              "velocity": 83,
              "position": 21.00625,
              "duration": 0.010416666666666666
            },
            {
              "pitch": 73,
              "velocity": 99,
              "position": 21.016666666666666,
              "duration": 0.010416666666666666
            },
            {
              "pitch": 73,
              "velocity": 51,
              "position": 21.229166666666668,
              "duration": 0.010416666666666666
            },
            {
              "pitch": 68,
              "velocity": 36,
              "position": 21.247916666666665,
              "duration": 0.010416666666666666
            },
            {
              "pitch": 22,
              "velocity": 50,
              "position": 21.277083333333334,
              "duration": 0.010416666666666666
            },
            {
              "pitch": 73,
              "velocity": 79,
              "position": 21.4875,
              "duration": 0.010416666666666666
            },
            {
              "pitch": 68,
              "velocity": 63,
              "position": 21.5,
              "duration": 0.010416666666666666
            },
            {
              "pitch": 24,
              "velocity": 99,
              "position": 21.508333333333333,
              "duration": 0.010416666666666666
            },
            {
              "pitch": 68,
              "velocity": 38,
              "position": 21.739583333333332,
              "duration": 0.010416666666666666
            },
            {
              "pitch": 73,
              "velocity": 46,
              "position": 21.752083333333335,
              "duration": 0.010416666666666666
            },
            {
              "pitch": 25,
              "velocity": 95,
              "position": 21.766666666666666,
              "duration": 0.010416666666666666
            },
            {
              "pitch": 60,
              "velocity": 80,
              "position": 22,
              "duration": 0.010416666666666666
            },
            {
              "pitch": 23,
              "velocity": 101,
              "position": 22.002083333333335,
              "duration": 0.010416666666666666
            },
            {
              "pitch": 68,
              "velocity": 82,
              "position": 22.004166666666666,
              "duration": 0.010416666666666666
            },
            {
              "pitch": 73,
              "velocity": 101,
              "position": 22.00625,
              "duration": 0.010416666666666666
            },
            {
              "pitch": 73,
              "velocity": 43,
              "position": 22.239583333333332,
              "duration": 0.010416666666666666
            },
            {
              "pitch": 68,
              "velocity": 37,
              "position": 22.247916666666665,
              "duration": 0.010416666666666666
            },
            {
              "pitch": 22,
              "velocity": 50,
              "position": 22.279166666666665,
              "duration": 0.010416666666666666
            },
            {
              "pitch": 73,
              "velocity": 77,
              "position": 22.483333333333334,
              "duration": 0.010416666666666666
            },
            {
              "pitch": 28,
              "velocity": 99,
              "position": 22.5,
              "duration": 0.010416666666666666
            },
            {
              "pitch": 68,
              "velocity": 59,
              "position": 22.50625,
              "duration": 0.010416666666666666
            },
            {
              "pitch": 68,
              "velocity": 44,
              "position": 22.747916666666665,
              "duration": 0.010416666666666666
            },
            {
              "pitch": 73,
              "velocity": 43,
              "position": 22.75,
              "duration": 0.010416666666666666
            },
            {
              "pitch": 22,
              "velocity": 50,
              "position": 22.777083333333334,
              "duration": 0.010416666666666666
            },
            {
              "pitch": 18,
              "velocity": 82,
              "position": 22.977083333333333,
              "duration": 0.010416666666666666
            },
            {
              "pitch": 60,
              "velocity": 80,
              "position": 23,
              "duration": 0.010416666666666666
            },
            {
              "pitch": 23,
              "velocity": 99,
              "position": 23.002083333333335,
              "duration": 0.010416666666666666
            },
            {
              "pitch": 73,
              "velocity": 97,
              "position": 23.008333333333333,
              "duration": 0.010416666666666666
            },
            {
              "pitch": 68,
              "velocity": 83,
              "position": 23.014583333333334,
              "duration": 0.010416666666666666
            },
            {
              "pitch": 68,
              "velocity": 41,
              "position": 23.24375,
              "duration": 0.010416666666666666
            },
            {
              "pitch": 73,
              "velocity": 47,
              "position": 23.245833333333334,
              "duration": 0.010416666666666666
            },
            {
              "pitch": 22,
              "velocity": 50,
              "position": 23.277083333333334,
              "duration": 0.010416666666666666
            },
            {
              "pitch": 73,
              "velocity": 79,
              "position": 23.49375,
              "duration": 0.010416666666666666
            },
            {
              "pitch": 68,
              "velocity": 56,
              "position": 23.50625,
              "duration": 0.010416666666666666
            },
            {
              "pitch": 31,
              "velocity": 93,
              "position": 23.508333333333333,
              "duration": 0.010416666666666666
            },
            {
              "pitch": 73,
              "velocity": 43,
              "position": 23.74375,
              "duration": 0.010416666666666666
            },
            {
              "pitch": 68,
              "velocity": 36,
              "position": 23.75,
              "duration": 0.010416666666666666
            },
            {
              "pitch": 31,
              "velocity": 67,
              "position": 23.760416666666668,
              "duration": 0.010416666666666666
            },
            {
              "pitch": 60,
              "velocity": 80,
              "position": 24,
              "duration": 0.010416666666666666
            },
            {
              "pitch": 23,
              "velocity": 98,
              "position": 24.010416666666668,
              "duration": 0.010416666666666666
            },
            {
              "pitch": 68,
              "velocity": 77,
              "position": 24.010416666666668,
              "duration": 0.010416666666666666
            },
            {
              "pitch": 73,
              "velocity": 95,
              "position": 24.010416666666668,
              "duration": 0.010416666666666666
            },
            {
              "pitch": 68,
              "velocity": 38,
              "position": 24.235416666666666,
              "duration": 0.010416666666666666
            },
            {
              "pitch": 73,
              "velocity": 43,
              "position": 24.245833333333334,
              "duration": 0.010416666666666666
            },
            {
              "pitch": 22,
              "velocity": 50,
              "position": 24.26875,
              "duration": 0.010416666666666666
            },
            {
              "pitch": 73,
              "velocity": 73,
              "position": 24.479166666666668,
              "duration": 0.010416666666666666
            },
            {
              "pitch": 28,
              "velocity": 96,
              "position": 24.491666666666667,
              "duration": 0.010416666666666666
            },
            {
              "pitch": 68,
              "velocity": 56,
              "position": 24.5,
              "duration": 0.010416666666666666
            },
            {
              "pitch": 68,
              "velocity": 39,
              "position": 24.747916666666665,
              "duration": 0.010416666666666666
            },
            {
              "pitch": 73,
              "velocity": 46,
              "position": 24.752083333333335,
              "duration": 0.010416666666666666
            },
            {
              "pitch": 22,
              "velocity": 50,
              "position": 24.779166666666665,
              "duration": 0.010416666666666666
            },
            {
              "pitch": 18,
              "velocity": 82,
              "position": 25,
              "duration": 0.010416666666666666
            },
            {
              "pitch": 60,
              "velocity": 80,
              "position": 25,
              "duration": 0.010416666666666666
            },
            {
              "pitch": 68,
              "velocity": 82,
              "position": 25.00625,
              "duration": 0.010416666666666666
            },
            {
              "pitch": 23,
              "velocity": 99,
              "position": 25.008333333333333,
              "duration": 0.010416666666666666
            },
            {
              "pitch": 73,
              "velocity": 95,
              "position": 25.01875,
              "duration": 0.010416666666666666
            },
            {
              "pitch": 68,
              "velocity": 37,
              "position": 25.241666666666667,
              "duration": 0.010416666666666666
            },
            {
              "pitch": 73,
              "velocity": 51,
              "position": 25.241666666666667,
              "duration": 0.010416666666666666
            },
            {
              "pitch": 22,
              "velocity": 50,
              "position": 25.275,
              "duration": 0.010416666666666666
            },
            {
              "pitch": 73,
              "velocity": 79,
              "position": 25.479166666666668,
              "duration": 0.010416666666666666
            },
            {
              "pitch": 24,
              "velocity": 96,
              "position": 25.489583333333332,
              "duration": 0.010416666666666666
            },
            {
              "pitch": 68,
              "velocity": 59,
              "position": 25.489583333333332,
              "duration": 0.010416666666666666
            },
            {
              "pitch": 68,
              "velocity": 43,
              "position": 25.74375,
              "duration": 0.010416666666666666
            },
            {
              "pitch": 73,
              "velocity": 50,
              "position": 25.754166666666666,
              "duration": 0.010416666666666666
            },
            {
              "pitch": 25,
              "velocity": 96,
              "position": 25.775,
              "duration": 0.010416666666666666
            },
            {
              "pitch": 23,
              "velocity": 101,
              "position": 25.995833333333334,
              "duration": 0.010416666666666666
            },
            {
              "pitch": 60,
              "velocity": 80,
              "position": 26,
              "duration": 0.010416666666666666
            },
            {
              "pitch": 68,
              "velocity": 81,
              "position": 26.002083333333335,
              "duration": 0.010416666666666666
            },
            {
              "pitch": 73,
              "velocity": 97,
              "position": 26.008333333333333,
              "duration": 0.010416666666666666
            },
            {
              "pitch": 73,
              "velocity": 43,
              "position": 26.23125,
              "duration": 0.010416666666666666
            },
            {
              "pitch": 68,
              "velocity": 39,
              "position": 26.241666666666667,
              "duration": 0.010416666666666666
            },
            {
              "pitch": 22,
              "velocity": 50,
              "position": 26.277083333333334,
              "duration": 0.010416666666666666
            },
            {
              "pitch": 68,
              "velocity": 62,
              "position": 26.495833333333334,
              "duration": 0.010416666666666666
            },
            {
              "pitch": 73,
              "velocity": 78,
              "position": 26.495833333333334,
              "duration": 0.010416666666666666
            },
            {
              "pitch": 28,
              "velocity": 96,
              "position": 26.502083333333335,
              "duration": 0.010416666666666666
            },
            {
              "pitch": 68,
              "velocity": 41,
              "position": 26.75,
              "duration": 0.010416666666666666
            },
            {
              "pitch": 73,
              "velocity": 47,
              "position": 26.752083333333335,
              "duration": 0.010416666666666666
            },
            {
              "pitch": 22,
              "velocity": 50,
              "position": 26.764583333333334,
              "duration": 0.010416666666666666
            },
            {
              "pitch": 23,
              "velocity": 100,
              "position": 26.995833333333334,
              "duration": 0.010416666666666666
            },
            {
              "pitch": 60,
              "velocity": 80,
              "position": 27,
              "duration": 0.010416666666666666
            },
            {
              "pitch": 73,
              "velocity": 93,
              "position": 27.010416666666668,
              "duration": 0.010416666666666666
            },
            {
              "pitch": 68,
              "velocity": 82,
              "position": 27.014583333333334,
              "duration": 0.010416666666666666
            },
            {
              "pitch": 18,
              "velocity": 82,
              "position": 27.01875,
              "duration": 0.010416666666666666
            },
            {
              "pitch": 73,
              "velocity": 47,
              "position": 27.2375,
              "duration": 0.010416666666666666
            },
            {
              "pitch": 68,
              "velocity": 42,
              "position": 27.239583333333332,
              "duration": 0.010416666666666666
            },
            {
              "pitch": 22,
              "velocity": 50,
              "position": 27.272916666666667,
              "duration": 0.010416666666666666
            },
            {
              "pitch": 73,
              "velocity": 79,
              "position": 27.485416666666666,
              "duration": 0.010416666666666666
            },
            {
              "pitch": 31,
              "velocity": 96,
              "position": 27.491666666666667,
              "duration": 0.010416666666666666
            },
            {
              "pitch": 68,
              "velocity": 60,
              "position": 27.495833333333334,
              "duration": 0.010416666666666666
            },
            {
              "pitch": 73,
              "velocity": 48,
              "position": 27.745833333333334,
              "duration": 0.010416666666666666
            },
            {
              "pitch": 68,
              "velocity": 42,
              "position": 27.754166666666666,
              "duration": 0.010416666666666666
            },
            {
              "pitch": 31,
              "velocity": 62,
              "position": 27.76875,
              "duration": 0.010416666666666666
            },
            {
              "pitch": 60,
              "velocity": 80,
              "position": 28,
              "duration": 0.010416666666666666
            },
            {
              "pitch": 23,
              "velocity": 98,
              "position": 28.010416666666668,
              "duration": 0.010416666666666666
            },
            {
              "pitch": 68,
              "velocity": 77,
              "position": 28.010416666666668,
              "duration": 0.010416666666666666
            },
            {
              "pitch": 73,
              "velocity": 99,
              "position": 28.010416666666668,
              "duration": 0.010416666666666666
            },
            {
              "pitch": 73,
              "velocity": 43,
              "position": 28.2375,
              "duration": 0.010416666666666666
            },
            {
              "pitch": 68,
              "velocity": 40,
              "position": 28.25,
              "duration": 0.010416666666666666
            },
            {
              "pitch": 22,
              "velocity": 50,
              "position": 28.266666666666666,
              "duration": 0.010416666666666666
            },
            {
              "pitch": 68,
              "velocity": 60,
              "position": 28.489583333333332,
              "duration": 0.010416666666666666
            },
            {
              "pitch": 73,
              "velocity": 74,
              "position": 28.491666666666667,
              "duration": 0.010416666666666666
            },
            {
              "pitch": 28,
              "velocity": 93,
              "position": 28.49375,
              "duration": 0.010416666666666666
            },
            {
              "pitch": 68,
              "velocity": 36,
              "position": 28.752083333333335,
              "duration": 0.010416666666666666
            },
            {
              "pitch": 73,
              "velocity": 50,
              "position": 28.754166666666666,
              "duration": 0.010416666666666666
            },
            {
              "pitch": 22,
              "velocity": 50,
              "position": 28.76875,
              "duration": 0.010416666666666666
            },
            {
              "pitch": 23,
              "velocity": 100,
              "position": 29,
              "duration": 0.010416666666666666
            },
            {
              "pitch": 60,
              "velocity": 80,
              "position": 29,
              "duration": 0.010416666666666666
            },
            {
              "pitch": 73,
              "velocity": 99,
              "position": 29.002083333333335,
              "duration": 0.010416666666666666
            },
            {
              "pitch": 68,
              "velocity": 82,
              "position": 29.004166666666666,
              "duration": 0.010416666666666666
            },
            {
              "pitch": 18,
              "velocity": 82,
              "position": 29.016666666666666,
              "duration": 0.010416666666666666
            },
            {
              "pitch": 73,
              "velocity": 51,
              "position": 29.233333333333334,
              "duration": 0.010416666666666666
            },
            {
              "pitch": 68,
              "velocity": 39,
              "position": 29.235416666666666,
              "duration": 0.010416666666666666
            },
            {
              "pitch": 22,
              "velocity": 50,
              "position": 29.272916666666667,
              "duration": 0.010416666666666666
            },
            {
              "pitch": 24,
              "velocity": 99,
              "position": 29.491666666666667,
              "duration": 0.010416666666666666
            },
            {
              "pitch": 73,
              "velocity": 79,
              "position": 29.491666666666667,
              "duration": 0.010416666666666666
            },
            {
              "pitch": 68,
              "velocity": 62,
              "position": 29.5,
              "duration": 0.010416666666666666
            },
            {
              "pitch": 68,
              "velocity": 40,
              "position": 29.747916666666665,
              "duration": 0.010416666666666666
            },
            {
              "pitch": 73,
              "velocity": 46,
              "position": 29.75625,
              "duration": 0.010416666666666666
            },
            {
              "pitch": 25,
              "velocity": 98,
              "position": 29.7625,
              "duration": 0.010416666666666666
            },
            {
              "pitch": 60,
              "velocity": 80,
              "position": 30,
              "duration": 0.010416666666666666
            },
            {
              "pitch": 68,
              "velocity": 80,
              "position": 30.002083333333335,
              "duration": 0.010416666666666666
            },
            {
              "pitch": 23,
              "velocity": 101,
              "position": 30.00625,
              "duration": 0.010416666666666666
            },
            {
              "pitch": 73,
              "velocity": 93,
              "position": 30.010416666666668,
              "duration": 0.010416666666666666
            },
            {
              "pitch": 68,
              "velocity": 40,
              "position": 30.2375,
              "duration": 0.010416666666666666
            },
            {
              "pitch": 73,
              "velocity": 43,
              "position": 30.24375,
              "duration": 0.010416666666666666
            },
            {
              "pitch": 22,
              "velocity": 50,
              "position": 30.275,
              "duration": 0.010416666666666666
            },
            {
              "pitch": 73,
              "velocity": 78,
              "position": 30.4875,
              "duration": 0.010416666666666666
            },
            {
              "pitch": 28,
              "velocity": 99,
              "position": 30.504166666666666,
              "duration": 0.010416666666666666
            },
            {
              "pitch": 68,
              "velocity": 58,
              "position": 30.504166666666666,
              "duration": 0.010416666666666666
            },
            {
              "pitch": 73,
              "velocity": 44,
              "position": 30.754166666666666,
              "duration": 0.010416666666666666
            },
            {
              "pitch": 68,
              "velocity": 39,
              "position": 30.75625,
              "duration": 0.010416666666666666
            },
            {
              "pitch": 22,
              "velocity": 50,
              "position": 30.770833333333332,
              "duration": 0.010416666666666666
            },
            {
              "pitch": 18,
              "velocity": 82,
              "position": 30.99375,
              "duration": 0.010416666666666666
            },
            {
              "pitch": 60,
              "velocity": 80,
              "position": 31,
              "duration": 0.010416666666666666
            },
            {
              "pitch": 23,
              "velocity": 100,
              "position": 31.00625,
              "duration": 0.010416666666666666
            },
            {
              "pitch": 68,
              "velocity": 81,
              "position": 31.0125,
              "duration": 0.010416666666666666
            },
            {
              "pitch": 73,
              "velocity": 97,
              "position": 31.0125,
              "duration": 0.010416666666666666
            },
            {
              "pitch": 73,
              "velocity": 47,
              "position": 31.229166666666668,
              "duration": 0.010416666666666666
            },
            {
              "pitch": 68,
              "velocity": 44,
              "position": 31.233333333333334,
              "duration": 0.010416666666666666
            },
            {
              "pitch": 22,
              "velocity": 50,
              "position": 31.270833333333332,
              "duration": 0.010416666666666666
            },
            {
              "pitch": 31,
              "velocity": 93,
              "position": 31.49375,
              "duration": 0.010416666666666666
            },
            {
              "pitch": 73,
              "velocity": 79,
              "position": 31.497916666666665,
              "duration": 0.010416666666666666
            },
            {
              "pitch": 68,
              "velocity": 64,
              "position": 31.504166666666666,
              "duration": 0.010416666666666666
            },
            {
              "pitch": 68,
              "velocity": 39,
              "position": 31.739583333333332,
              "duration": 0.010416666666666666
            },
            {
              "pitch": 73,
              "velocity": 44,
              "position": 31.747916666666665,
              "duration": 0.010416666666666666
            },
            {
              "pitch": 31,
              "velocity": 64,
              "position": 31.775,
              "duration": 0.010416666666666666
            }
          ]
        },
        "9": {
          "ctab": {
            "srcChannel": 9,
            "name": "Drums",
            "accType": "RHYTHM",
            "editable": false,
            "mutedNotes": [],
            "mutedChords": [],
            "autoStart": true,
            "sourceChordNote": 0,
            "sourceChordType": "Maj7",
            "ctb2Low": null,
            "ctb2Main": {
              "ntr": "ROOT_FIXED",
              "ntt": "BYPASS",
              "bassOn": false,
              "chordRootUpperLimit": 6,
              "noteLowLimit": 0,
              "noteHighLimit": 127,
              "rtr": "PITCH_SHIFT"
            },
            "ctb2High": null
          },
          "notes": [
            {
              "pitch": 35,
              "velocity": 100,
              "position": 0,
              "duration": 0.010416666666666666
            },
            {
              "pitch": 42,
              "velocity": 80,
              "position": 0,
              "duration": 0.010416666666666666
            },
            {
              "pitch": 42,
              "velocity": 52,
              "position": 0.5,
              "duration": 0.010416666666666666
            },
            {
              "pitch": 38,
              "velocity": 105,
              "position": 1,
              "duration": 0.010416666666666666
            },
            {
              "pitch": 42,
              "velocity": 80,
              "position": 1,
              "duration": 0.010416666666666666
            },
            {
              "pitch": 55,
              "velocity": 72,
              "position": 1,
              "duration": 0.010416666666666666
            },
            {
              "pitch": 42,
              "velocity": 52,
              "position": 1.5,
              "duration": 0.010416666666666666
            },
            {
              "pitch": 38,
              "velocity": 30,
              "position": 1.7708333333333333,
              "duration": 0.010416666666666666
            },
            {
              "pitch": 38,
              "velocity": 65,
              "position": 2,
              "duration": 0.010416666666666666
            },
            {
              "pitch": 35,
              "velocity": 86,
              "position": 2.2708333333333335,
              "duration": 0.010416666666666666
            },
            {
              "pitch": 46,
              "velocity": 65,
              "position": 2.2708333333333335,
              "duration": 0.010416666666666666
            },
            {
              "pitch": 38,
              "velocity": 30,
              "position": 2.5,
              "duration": 0.010416666666666666
            },
            {
              "pitch": 44,
              "velocity": 60,
              "position": 2.5,
              "duration": 0.010416666666666666
            },
            {
              "pitch": 38,
              "velocity": 30,
              "position": 2.7708333333333335,
              "duration": 0.010416666666666666
            },
            {
              "pitch": 38,
              "velocity": 90,
              "position": 3,
              "duration": 0.010416666666666666
            },
            {
              "pitch": 35,
              "velocity": 86,
              "position": 3.2708333333333335,
              "duration": 0.010416666666666666
            },
            {
              "pitch": 46,
              "velocity": 65,
              "position": 3.2708333333333335,
              "duration": 0.010416666666666666
            },
            {
              "pitch": 44,
              "velocity": 60,
              "position": 3.5,
              "duration": 0.010416666666666666
            },
            {
              "pitch": 35,
              "velocity": 100,
              "position": 4,
              "duration": 0.010416666666666666
            },
            {
              "pitch": 42,
              "velocity": 80,
              "position": 4,
              "duration": 0.010416666666666666
            },
            {
              "pitch": 42,
              "velocity": 52,
              "position": 4.5,
              "duration": 0.010416666666666666
            },
            {
              "pitch": 38,
              "velocity": 105,
              "position": 5,
              "duration": 0.010416666666666666
            },
            {
              "pitch": 42,
              "velocity": 80,
              "position": 5,
              "duration": 0.010416666666666666
            },
            {
              "pitch": 42,
              "velocity": 52,
              "position": 5.5,
              "duration": 0.010416666666666666
            },
            {
              "pitch": 35,
              "velocity": 86,
              "position": 5.770833333333333,
              "duration": 0.010416666666666666
            },
            {
              "pitch": 42,
              "velocity": 80,
              "position": 6,
              "duration": 0.010416666666666666
            },
            {
              "pitch": 35,
              "velocity": 32,
              "position": 6.270833333333333,
              "duration": 0.010416666666666666
            },
            {
              "pitch": 38,
              "velocity": 30,
              "position": 6.270833333333333,
              "duration": 0.010416666666666666
            },
            {
              "pitch": 35,
              "velocity": 72,
              "position": 6.5,
              "duration": 0.010416666666666666
            },
            {
              "pitch": 42,
              "velocity": 52,
              "position": 6.5,
              "duration": 0.010416666666666666
            },
            {
              "pitch": 38,
              "velocity": 105,
              "position": 7,
              "duration": 0.010416666666666666
            },
            {
              "pitch": 46,
              "velocity": 69,
              "position": 7,
              "duration": 0.010416666666666666
            },
            {
              "pitch": 35,
              "velocity": 57,
              "position": 7.5,
              "duration": 0.010416666666666666
            },
            {
              "pitch": 35,
              "velocity": 100,
              "position": 8,
              "duration": 0.010416666666666666
            },
            {
              "pitch": 42,
              "velocity": 80,
              "position": 8,
              "duration": 0.010416666666666666
            },
            {
              "pitch": 46,
              "velocity": 65,
              "position": 8.5,
              "duration": 0.010416666666666666
            },
            {
              "pitch": 38,
              "velocity": 105,
              "position": 9,
              "duration": 0.010416666666666666
            },
            {
              "pitch": 55,
              "velocity": 72,
              "position": 9,
              "duration": 0.010416666666666666
            },
            {
              "pitch": 42,
              "velocity": 52,
              "position": 9.5,
              "duration": 0.010416666666666666
            },
            {
              "pitch": 38,
              "velocity": 30,
              "position": 9.770833333333334,
              "duration": 0.010416666666666666
            },
            {
              "pitch": 38,
              "velocity": 65,
              "position": 10,
              "duration": 0.010416666666666666
            },
            {
              "pitch": 35,
              "velocity": 86,
              "position": 10.270833333333334,
              "duration": 0.010416666666666666
            },
            {
              "pitch": 46,
              "velocity": 65,
              "position": 10.270833333333334,
              "duration": 0.010416666666666666
            },
            {
              "pitch": 38,
              "velocity": 30,
              "position": 10.5,
              "duration": 0.010416666666666666
            },
            {
              "pitch": 44,
              "velocity": 60,
              "position": 10.5,
              "duration": 0.010416666666666666
            },
            {
              "pitch": 38,
              "velocity": 30,
              "position": 10.770833333333334,
              "duration": 0.010416666666666666
            },
            {
              "pitch": 38,
              "velocity": 90,
              "position": 11,
              "duration": 0.010416666666666666
            },
            {
              "pitch": 35,
              "velocity": 86,
              "position": 11.270833333333334,
              "duration": 0.010416666666666666
            },
            {
              "pitch": 46,
              "velocity": 65,
              "position": 11.270833333333334,
              "duration": 0.010416666666666666
            },
            {
              "pitch": 44,
              "velocity": 60,
              "position": 11.5,
              "duration": 0.010416666666666666
            },
            {
              "pitch": 35,
              "velocity": 100,
              "position": 12,
              "duration": 0.010416666666666666
            },
            {
              "pitch": 42,
              "velocity": 80,
              "position": 12,
              "duration": 0.010416666666666666
            },
            {
              "pitch": 42,
              "velocity": 52,
              "position": 12.5,
              "duration": 0.010416666666666666
            },
            {
              "pitch": 38,
              "velocity": 105,
              "position": 13,
              "duration": 0.010416666666666666
            },
            {
              "pitch": 42,
              "velocity": 80,
              "position": 13,
              "duration": 0.010416666666666666
            },
            {
              "pitch": 42,
              "velocity": 52,
              "position": 13.5,
              "duration": 0.010416666666666666
            },
            {
              "pitch": 35,
              "velocity": 86,
              "position": 13.770833333333334,
              "duration": 0.010416666666666666
            },
            {
              "pitch": 42,
              "velocity": 80,
              "position": 14,
              "duration": 0.010416666666666666
            },
            {
              "pitch": 38,
              "velocity": 55,
              "position": 14.270833333333334,
              "duration": 0.010416666666666666
            },
            {
              "pitch": 35,
              "velocity": 32,
              "position": 14.5,
              "duration": 0.010416666666666666
            },
            {
              "pitch": 42,
              "velocity": 52,
              "position": 14.5,
              "duration": 0.010416666666666666
            },
            {
              "pitch": 35,
              "velocity": 72,
              "position": 14.770833333333334,
              "duration": 0.010416666666666666
            },
            {
              "pitch": 38,
              "velocity": 105,
              "position": 15,
              "duration": 0.010416666666666666
            },
            {
              "pitch": 35,
              "velocity": 57,
              "position": 15.5,
              "duration": 0.010416666666666666
            },
            {
              "pitch": 46,
              "velocity": 69,
              "position": 15.5,
              "duration": 0.010416666666666666
            },
            {
              "pitch": 35,
              "velocity": 100,
              "position": 16,
              "duration": 0.010416666666666666
            },
            {
              "pitch": 42,
              "velocity": 80,
              "position": 16,
              "duration": 0.010416666666666666
            },
            {
              "pitch": 46,
              "velocity": 65,
              "position": 16.5,
              "duration": 0.010416666666666666
            },
            {
              "pitch": 38,
              "velocity": 105,
              "position": 17,
              "duration": 0.010416666666666666
            },
            {
              "pitch": 55,
              "velocity": 72,
              "position": 17,
              "duration": 0.010416666666666666
            },
            {
              "pitch": 42,
              "velocity": 52,
              "position": 17.5,
              "duration": 0.010416666666666666
            },
            {
              "pitch": 38,
              "velocity": 30,
              "position": 17.770833333333332,
              "duration": 0.010416666666666666
            },
            {
              "pitch": 38,
              "velocity": 65,
              "position": 18,
              "duration": 0.010416666666666666
            },
            {
              "pitch": 35,
              "velocity": 86,
              "position": 18.270833333333332,
              "duration": 0.010416666666666666
            },
            {
              "pitch": 46,
              "velocity": 65,
              "position": 18.270833333333332,
              "duration": 0.010416666666666666
            },
            {
              "pitch": 38,
              "velocity": 30,
              "position": 18.5,
              "duration": 0.010416666666666666
            },
            {
              "pitch": 44,
              "velocity": 60,
              "position": 18.5,
              "duration": 0.010416666666666666
            },
            {
              "pitch": 38,
              "velocity": 30,
              "position": 18.770833333333332,
              "duration": 0.010416666666666666
            },
            {
              "pitch": 38,
              "velocity": 90,
              "position": 19,
              "duration": 0.010416666666666666
            },
            {
              "pitch": 35,
              "velocity": 86,
              "position": 19.270833333333332,
              "duration": 0.010416666666666666
            },
            {
              "pitch": 46,
              "velocity": 65,
              "position": 19.270833333333332,
              "duration": 0.010416666666666666
            },
            {
              "pitch": 44,
              "velocity": 60,
              "position": 19.5,
              "duration": 0.010416666666666666
            },
            {
              "pitch": 35,
              "velocity": 100,
              "position": 20,
              "duration": 0.010416666666666666
            },
            {
              "pitch": 42,
              "velocity": 80,
              "position": 20,
              "duration": 0.010416666666666666
            },
            {
              "pitch": 42,
              "velocity": 52,
              "position": 20.5,
              "duration": 0.010416666666666666
            },
            {
              "pitch": 38,
              "velocity": 105,
              "position": 21,
              "duration": 0.010416666666666666
            },
            {
              "pitch": 42,
              "velocity": 80,
              "position": 21,
              "duration": 0.010416666666666666
            },
            {
              "pitch": 42,
              "velocity": 52,
              "position": 21.5,
              "duration": 0.010416666666666666
            },
            {
              "pitch": 35,
              "velocity": 86,
              "position": 21.770833333333332,
              "duration": 0.010416666666666666
            },
            {
              "pitch": 42,
              "velocity": 80,
              "position": 22,
              "duration": 0.010416666666666666
            },
            {
              "pitch": 35,
              "velocity": 32,
              "position": 22.270833333333332,
              "duration": 0.010416666666666666
            },
            {
              "pitch": 38,
              "velocity": 30,
              "position": 22.270833333333332,
              "duration": 0.010416666666666666
            },
            {
              "pitch": 35,
              "velocity": 72,
              "position": 22.5,
              "duration": 0.010416666666666666
            },
            {
              "pitch": 42,
              "velocity": 52,
              "position": 22.5,
              "duration": 0.010416666666666666
            },
            {
              "pitch": 38,
              "velocity": 105,
              "position": 23,
              "duration": 0.010416666666666666
            },
            {
              "pitch": 46,
              "velocity": 69,
              "position": 23,
              "duration": 0.010416666666666666
            },
            {
              "pitch": 35,
              "velocity": 57,
              "position": 23.5,
              "duration": 0.010416666666666666
            },
            {
              "pitch": 38,
              "velocity": 65,
              "position": 23.770833333333332,
              "duration": 0.010416666666666666
            },
            {
              "pitch": 38,
              "velocity": 56,
              "position": 23.875,
              "duration": 0.010416666666666666
            },
            {
              "pitch": 35,
              "velocity": 100,
              "position": 24,
              "duration": 0.010416666666666666
            },
            {
              "pitch": 46,
              "velocity": 67,
              "position": 24,
              "duration": 0.010416666666666666
            },
            {
              "pitch": 38,
              "velocity": 65,
              "position": 24.270833333333332,
              "duration": 0.010416666666666666
            },
            {
              "pitch": 35,
              "velocity": 100,
              "position": 24.5,
              "duration": 0.010416666666666666
            },
            {
              "pitch": 46,
              "velocity": 65,
              "position": 24.5,
              "duration": 0.010416666666666666
            },
            {
              "pitch": 38,
              "velocity": 105,
              "position": 25,
              "duration": 0.010416666666666666
            },
            {
              "pitch": 55,
              "velocity": 72,
              "position": 25,
              "duration": 0.010416666666666666
            },
            {
              "pitch": 42,
              "velocity": 52,
              "position": 25.5,
              "duration": 0.010416666666666666
            },
            {
              "pitch": 38,
              "velocity": 30,
              "position": 25.770833333333332,
              "duration": 0.010416666666666666
            },
            {
              "pitch": 38,
              "velocity": 65,
              "position": 26,
              "duration": 0.010416666666666666
            },
            {
              "pitch": 35,
              "velocity": 86,
              "position": 26.270833333333332,
              "duration": 0.010416666666666666
            },
            {
              "pitch": 46,
              "velocity": 65,
              "position": 26.270833333333332,
              "duration": 0.010416666666666666
            },
            {
              "pitch": 38,
              "velocity": 30,
              "position": 26.5,
              "duration": 0.010416666666666666
            },
            {
              "pitch": 44,
              "velocity": 60,
              "position": 26.5,
              "duration": 0.010416666666666666
            },
            {
              "pitch": 38,
              "velocity": 30,
              "position": 26.770833333333332,
              "duration": 0.010416666666666666
            },
            {
              "pitch": 38,
              "velocity": 90,
              "position": 27,
              "duration": 0.010416666666666666
            },
            {
              "pitch": 35,
              "velocity": 86,
              "position": 27.270833333333332,
              "duration": 0.010416666666666666
            },
            {
              "pitch": 46,
              "velocity": 65,
              "position": 27.270833333333332,
              "duration": 0.010416666666666666
            },
            {
              "pitch": 44,
              "velocity": 60,
              "position": 27.5,
              "duration": 0.010416666666666666
            },
            {
              "pitch": 35,
              "velocity": 100,
              "position": 28,
              "duration": 0.010416666666666666
            },
            {
              "pitch": 42,
              "velocity": 80,
              "position": 28,
              "duration": 0.010416666666666666
            },
            {
              "pitch": 42,
              "velocity": 52,
              "position": 28.5,
              "duration": 0.010416666666666666
            },
            {
              "pitch": 35,
              "velocity": 86,
              "position": 28.770833333333332,
              "duration": 0.010416666666666666
            },
            {
              "pitch": 38,
              "velocity": 105,
              "position": 29,
              "duration": 0.010416666666666666
            },
            {
              "pitch": 42,
              "velocity": 80,
              "position": 29,
              "duration": 0.010416666666666666
            },
            {
              "pitch": 42,
              "velocity": 52,
              "position": 29.5,
              "duration": 0.010416666666666666
            },
            {
              "pitch": 35,
              "velocity": 86,
              "position": 29.520833333333332,
              "duration": 0.010416666666666666
            },
            {
              "pitch": 42,
              "velocity": 80,
              "position": 30,
              "duration": 0.010416666666666666
            },
            {
              "pitch": 35,
              "velocity": 32,
              "position": 30.270833333333332,
              "duration": 0.010416666666666666
            },
            {
              "pitch": 38,
              "velocity": 30,
              "position": 30.270833333333332,
              "duration": 0.010416666666666666
            },
            {
              "pitch": 35,
              "velocity": 72,
              "position": 30.5,
              "duration": 0.010416666666666666
            },
            {
              "pitch": 42,
              "velocity": 52,
              "position": 30.5,
              "duration": 0.010416666666666666
            },
            {
              "pitch": 38,
              "velocity": 105,
              "position": 31,
              "duration": 0.010416666666666666
            },
            {
              "pitch": 46,
              "velocity": 69,
              "position": 31,
              "duration": 0.010416666666666666
            },
            {
              "pitch": 35,
              "velocity": 57,
              "position": 31.5,
              "duration": 0.010416666666666666
            },
            {
              "pitch": 38,
              "velocity": 65,
              "position": 31.770833333333332,
              "duration": 0.010416666666666666
            },
            {
              "pitch": 38,
              "velocity": 56,
              "position": 31.875,
              "duration": 0.010416666666666666
            }
          ]
        },
        "10": {
          "ctab": {
            "srcChannel": 10,
            "name": "Bass FX",
            "accType": "BASS",
            "editable": false,
            "mutedNotes": [],
            "mutedChords": [],
            "autoStart": false,
            "sourceChordNote": 0,
            "sourceChordType": "7th",
            "ctb2Low": null,
            "ctb2Main": {
              "ntr": "ROOT_FIXED",
              "ntt": "BYPASS",
              "bassOn": false,
              "chordRootUpperLimit": 7,
              "noteLowLimit": 0,
              "noteHighLimit": 127,
              "rtr": "PITCH_SHIFT"
            },
            "ctb2High": null
          },
          "notes": [
            {
              "pitch": 102,
              "velocity": 100,
              "position": 14.5,
              "duration": 0.23958333333333334
            },
            {
              "pitch": 100,
              "velocity": 100,
              "position": 15,
              "duration": 0.9895833333333334
            },
            {
              "pitch": 102,
              "velocity": 100,
              "position": 30.770833333333332,
              "duration": 0.4708333333333333
            },
            {
              "pitch": 96,
              "velocity": 100,
              "position": 31.25,
              "duration": 0.7395833333333334
            }
          ]
        },
        "11": {
          "ctab": {
            "srcChannel": 11,
            "name": "Bass a",
            "accType": "BASS",
            "editable": false,
            "mutedNotes": [],
            "mutedChords": [
              "1+2+5",
              "sus4",
              "1+5",
              "1+8",
              "7aug",
              "Maj7aug",
              "7(#9)",
              "7(b13)",
              "7(b9)",
              "7(13)",
              "7#11",
              "7(9)",
              "7b5",
              "7sus4",
              "dim7",
              "dim",
              "minMaj7(9)",
              "minMaj7",
              "min7(11)",
              "min7(9)",
              "min(9)",
              "m7b5",
              "min7",
              "min6",
              "aug",
              "Maj6(9)",
              "Maj7(9)",
              "Maj(9)",
              "Maj7#11",
              "Maj7",
              "Maj6"
            ],
            "autoStart": false,
            "sourceChordNote": 0,
            "sourceChordType": "7th",
            "ctb2Low": null,
            "ctb2Main": {
              "ntr": "ROOT_TRANSPOSITION",
              "ntt": "MELODIC_MINOR_5",
              "bassOn": true,
              "chordRootUpperLimit": 8,
              "noteLowLimit": 28,
              "noteHighLimit": 127,
              "rtr": "PITCH_SHIFT_TO_ROOT"
            },
            "ctb2High": null
          },
          "notes": [
            {
              "pitch": 24,
              "velocity": 70,
              "position": 0,
              "duration": 0.2875
            },
            {
              "pitch": 24,
              "velocity": 100,
              "position": 0.5,
              "duration": 0.2625
            },
            {
              "pitch": 34,
              "velocity": 70,
              "position": 0.7708333333333334,
              "duration": 0.20416666666666666
            },
            {
              "pitch": 24,
              "velocity": 100,
              "position": 1.2708333333333333,
              "duration": 0.22083333333333333
            },
            {
              "pitch": 36,
              "velocity": 70,
              "position": 1.5,
              "duration": 0.3416666666666667
            },
            {
              "pitch": 31,
              "velocity": 50,
              "position": 2,
              "duration": 0.24166666666666667
            },
            {
              "pitch": 34,
              "velocity": 70,
              "position": 2.2708333333333335,
              "duration": 0.7416666666666667
            },
            {
              "pitch": 31,
              "velocity": 50,
              "position": 3,
              "duration": 0.24166666666666667
            },
            {
              "pitch": 34,
              "velocity": 70,
              "position": 3.2708333333333335,
              "duration": 0.7416666666666667
            },
            {
              "pitch": 24,
              "velocity": 70,
              "position": 4,
              "duration": 0.2875
            },
            {
              "pitch": 24,
              "velocity": 100,
              "position": 4.5,
              "duration": 0.2625
            },
            {
              "pitch": 34,
              "velocity": 70,
              "position": 4.770833333333333,
              "duration": 0.20416666666666666
            },
            {
              "pitch": 24,
              "velocity": 100,
              "position": 5.270833333333333,
              "duration": 0.22083333333333333
            },
            {
              "pitch": 36,
              "velocity": 70,
              "position": 5.5,
              "duration": 0.3416666666666667
            },
            {
              "pitch": 24,
              "velocity": 60,
              "position": 7.5,
              "duration": 0.49166666666666664
            },
            {
              "pitch": 24,
              "velocity": 70,
              "position": 8,
              "duration": 0.2875
            },
            {
              "pitch": 24,
              "velocity": 100,
              "position": 8.5,
              "duration": 0.2625
            },
            {
              "pitch": 34,
              "velocity": 70,
              "position": 8.770833333333334,
              "duration": 0.20416666666666666
            },
            {
              "pitch": 24,
              "velocity": 100,
              "position": 9.270833333333334,
              "duration": 0.22083333333333333
            },
            {
              "pitch": 36,
              "velocity": 70,
              "position": 9.5,
              "duration": 0.3416666666666667
            },
            {
              "pitch": 31,
              "velocity": 50,
              "position": 10,
              "duration": 0.24166666666666667
            },
            {
              "pitch": 34,
              "velocity": 70,
              "position": 10.270833333333334,
              "duration": 0.7416666666666667
            },
            {
              "pitch": 31,
              "velocity": 50,
              "position": 11,
              "duration": 0.24166666666666667
            },
            {
              "pitch": 34,
              "velocity": 70,
              "position": 11.270833333333334,
              "duration": 0.7416666666666667
            },
            {
              "pitch": 24,
              "velocity": 70,
              "position": 12,
              "duration": 0.2875
            },
            {
              "pitch": 24,
              "velocity": 100,
              "position": 12.5,
              "duration": 0.2625
            },
            {
              "pitch": 34,
              "velocity": 70,
              "position": 12.770833333333334,
              "duration": 0.20416666666666666
            },
            {
              "pitch": 24,
              "velocity": 100,
              "position": 13.270833333333334,
              "duration": 0.22083333333333333
            },
            {
              "pitch": 36,
              "velocity": 70,
              "position": 13.5,
              "duration": 0.3416666666666667
            },
            {
              "pitch": 24,
              "velocity": 70,
              "position": 16,
              "duration": 0.2875
            },
            {
              "pitch": 24,
              "velocity": 100,
              "position": 16.5,
              "duration": 0.2625
            },
            {
              "pitch": 34,
              "velocity": 70,
              "position": 16.770833333333332,
              "duration": 0.20416666666666666
            },
            {
              "pitch": 24,
              "velocity": 100,
              "position": 17.270833333333332,
              "duration": 0.22083333333333333
            },
            {
              "pitch": 36,
              "velocity": 70,
              "position": 17.5,
              "duration": 0.3416666666666667
            },
            {
              "pitch": 31,
              "velocity": 50,
              "position": 18,
              "duration": 0.24166666666666667
            },
            {
              "pitch": 34,
              "velocity": 70,
              "position": 18.270833333333332,
              "duration": 0.7416666666666667
            },
            {
              "pitch": 31,
              "velocity": 50,
              "position": 19,
              "duration": 0.24166666666666667
            },
            {
              "pitch": 34,
              "velocity": 70,
              "position": 19.270833333333332,
              "duration": 0.7416666666666667
            },
            {
              "pitch": 24,
              "velocity": 70,
              "position": 20,
              "duration": 0.2875
            },
            {
              "pitch": 24,
              "velocity": 100,
              "position": 20.5,
              "duration": 0.2625
            },
            {
              "pitch": 34,
              "velocity": 70,
              "position": 20.770833333333332,
              "duration": 0.20416666666666666
            },
            {
              "pitch": 24,
              "velocity": 100,
              "position": 21.270833333333332,
              "duration": 0.22083333333333333
            },
            {
              "pitch": 36,
              "velocity": 70,
              "position": 21.5,
              "duration": 0.3416666666666667
            },
            {
              "pitch": 24,
              "velocity": 60,
              "position": 23.5,
              "duration": 0.49166666666666664
            },
            {
              "pitch": 24,
              "velocity": 70,
              "position": 24,
              "duration": 0.2875
            },
            {
              "pitch": 24,
              "velocity": 100,
              "position": 24.5,
              "duration": 0.2625
            },
            {
              "pitch": 34,
              "velocity": 70,
              "position": 24.770833333333332,
              "duration": 0.20416666666666666
            },
            {
              "pitch": 24,
              "velocity": 100,
              "position": 25.270833333333332,
              "duration": 0.22083333333333333
            },
            {
              "pitch": 36,
              "velocity": 70,
              "position": 25.5,
              "duration": 0.3416666666666667
            },
            {
              "pitch": 31,
              "velocity": 50,
              "position": 26,
              "duration": 0.24166666666666667
            },
            {
              "pitch": 34,
              "velocity": 70,
              "position": 26.270833333333332,
              "duration": 0.7416666666666667
            },
            {
              "pitch": 31,
              "velocity": 50,
              "position": 27,
              "duration": 0.24166666666666667
            },
            {
              "pitch": 34,
              "velocity": 70,
              "position": 27.270833333333332,
              "duration": 0.7416666666666667
            },
            {
              "pitch": 24,
              "velocity": 70,
              "position": 28,
              "duration": 0.2875
            },
            {
              "pitch": 24,
              "velocity": 100,
              "position": 28.5,
              "duration": 0.2625
            },
            {
              "pitch": 34,
              "velocity": 70,
              "position": 28.770833333333332,
              "duration": 0.20416666666666666
            },
            {
              "pitch": 24,
              "velocity": 100,
              "position": 29.270833333333332,
              "duration": 0.22083333333333333
            },
            {
              "pitch": 36,
              "velocity": 70,
              "position": 29.5,
              "duration": 0.3416666666666667
            }
          ]
        },
        "12": {
          "ctab": {
            "srcChannel": 12,
            "name": "Bass b",
            "accType": "BASS",
            "editable": false,
            "mutedNotes": [],
            "mutedChords": [
              "7th",
              "min",
              "Maj"
            ],
            "autoStart": false,
            "sourceChordNote": 0,
            "sourceChordType": "Maj7",
            "ctb2Low": null,
            "ctb2Main": {
              "ntr": "ROOT_TRANSPOSITION",
              "ntt": "MELODY",
              "bassOn": true,
              "chordRootUpperLimit": 8,
              "noteLowLimit": 28,
              "noteHighLimit": 127,
              "rtr": "PITCH_SHIFT_TO_ROOT"
            },
            "ctb2High": null
          },
          "notes": [
            {
              "pitch": 24,
              "velocity": 70,
              "position": 0,
              "duration": 0.2875
            },
            {
              "pitch": 24,
              "velocity": 100,
              "position": 0.5,
              "duration": 0.2625
            },
            {
              "pitch": 24,
              "velocity": 70,
              "position": 0.7708333333333334,
              "duration": 0.20416666666666666
            },
            {
              "pitch": 24,
              "velocity": 100,
              "position": 1.2708333333333333,
              "duration": 0.22083333333333333
            },
            {
              "pitch": 24,
              "velocity": 70,
              "position": 1.5,
              "duration": 0.3416666666666667
            },
            {
              "pitch": 31,
              "velocity": 50,
              "position": 2,
              "duration": 0.24166666666666667
            },
            {
              "pitch": 33,
              "velocity": 70,
              "position": 2.2708333333333335,
              "duration": 0.7416666666666667
            },
            {
              "pitch": 31,
              "velocity": 50,
              "position": 3,
              "duration": 0.24166666666666667
            },
            {
              "pitch": 33,
              "velocity": 70,
              "position": 3.2708333333333335,
              "duration": 0.7416666666666667
            },
            {
              "pitch": 24,
              "velocity": 70,
              "position": 4,
              "duration": 0.2875
            },
            {
              "pitch": 24,
              "velocity": 100,
              "position": 4.5,
              "duration": 0.2625
            },
            {
              "pitch": 24,
              "velocity": 70,
              "position": 4.770833333333333,
              "duration": 0.20416666666666666
            },
            {
              "pitch": 24,
              "velocity": 100,
              "position": 5.270833333333333,
              "duration": 0.22083333333333333
            },
            {
              "pitch": 24,
              "velocity": 70,
              "position": 5.5,
              "duration": 0.3416666666666667
            },
            {
              "pitch": 24,
              "velocity": 60,
              "position": 7.5,
              "duration": 0.49166666666666664
            },
            {
              "pitch": 24,
              "velocity": 70,
              "position": 8,
              "duration": 0.2875
            },
            {
              "pitch": 24,
              "velocity": 100,
              "position": 8.5,
              "duration": 0.2625
            },
            {
              "pitch": 24,
              "velocity": 70,
              "position": 8.770833333333334,
              "duration": 0.20416666666666666
            },
            {
              "pitch": 24,
              "velocity": 100,
              "position": 9.270833333333334,
              "duration": 0.22083333333333333
            },
            {
              "pitch": 24,
              "velocity": 70,
              "position": 9.5,
              "duration": 0.3416666666666667
            },
            {
              "pitch": 31,
              "velocity": 50,
              "position": 10,
              "duration": 0.24166666666666667
            },
            {
              "pitch": 33,
              "velocity": 70,
              "position": 10.270833333333334,
              "duration": 0.7416666666666667
            },
            {
              "pitch": 31,
              "velocity": 50,
              "position": 11,
              "duration": 0.24166666666666667
            },
            {
              "pitch": 33,
              "velocity": 70,
              "position": 11.270833333333334,
              "duration": 0.7416666666666667
            },
            {
              "pitch": 24,
              "velocity": 70,
              "position": 12,
              "duration": 0.2875
            },
            {
              "pitch": 24,
              "velocity": 100,
              "position": 12.5,
              "duration": 0.2625
            },
            {
              "pitch": 24,
              "velocity": 70,
              "position": 12.770833333333334,
              "duration": 0.20416666666666666
            },
            {
              "pitch": 24,
              "velocity": 100,
              "position": 13.270833333333334,
              "duration": 0.22083333333333333
            },
            {
              "pitch": 24,
              "velocity": 70,
              "position": 13.5,
              "duration": 0.3416666666666667
            },
            {
              "pitch": 24,
              "velocity": 70,
              "position": 16,
              "duration": 0.2875
            },
            {
              "pitch": 24,
              "velocity": 100,
              "position": 16.5,
              "duration": 0.2625
            },
            {
              "pitch": 24,
              "velocity": 70,
              "position": 16.770833333333332,
              "duration": 0.20416666666666666
            },
            {
              "pitch": 24,
              "velocity": 100,
              "position": 17.270833333333332,
              "duration": 0.22083333333333333
            },
            {
              "pitch": 24,
              "velocity": 70,
              "position": 17.5,
              "duration": 0.3416666666666667
            },
            {
              "pitch": 31,
              "velocity": 50,
              "position": 18,
              "duration": 0.24166666666666667
            },
            {
              "pitch": 33,
              "velocity": 70,
              "position": 18.270833333333332,
              "duration": 0.7416666666666667
            },
            {
              "pitch": 31,
              "velocity": 50,
              "position": 19,
              "duration": 0.24166666666666667
            },
            {
              "pitch": 33,
              "velocity": 70,
              "position": 19.270833333333332,
              "duration": 0.7416666666666667
            },
            {
              "pitch": 24,
              "velocity": 70,
              "position": 20,
              "duration": 0.2875
            },
            {
              "pitch": 24,
              "velocity": 100,
              "position": 20.5,
              "duration": 0.2625
            },
            {
              "pitch": 24,
              "velocity": 70,
              "position": 20.770833333333332,
              "duration": 0.20416666666666666
            },
            {
              "pitch": 24,
              "velocity": 100,
              "position": 21.270833333333332,
              "duration": 0.22083333333333333
            },
            {
              "pitch": 24,
              "velocity": 70,
              "position": 21.5,
              "duration": 0.3416666666666667
            },
            {
              "pitch": 24,
              "velocity": 60,
              "position": 23.5,
              "duration": 0.49166666666666664
            },
            {
              "pitch": 24,
              "velocity": 70,
              "position": 24,
              "duration": 0.2875
            },
            {
              "pitch": 24,
              "velocity": 100,
              "position": 24.5,
              "duration": 0.2625
            },
            {
              "pitch": 24,
              "velocity": 70,
              "position": 24.770833333333332,
              "duration": 0.20416666666666666
            },
            {
              "pitch": 24,
              "velocity": 100,
              "position": 25.270833333333332,
              "duration": 0.22083333333333333
            },
            {
              "pitch": 24,
              "velocity": 70,
              "position": 25.5,
              "duration": 0.3416666666666667
            },
            {
              "pitch": 31,
              "velocity": 50,
              "position": 26,
              "duration": 0.24166666666666667
            },
            {
              "pitch": 33,
              "velocity": 70,
              "position": 26.270833333333332,
              "duration": 0.7416666666666667
            },
            {
              "pitch": 31,
              "velocity": 50,
              "position": 27,
              "duration": 0.24166666666666667
            },
            {
              "pitch": 33,
              "velocity": 70,
              "position": 27.270833333333332,
              "duration": 0.7416666666666667
            },
            {
              "pitch": 24,
              "velocity": 70,
              "position": 28,
              "duration": 0.2875
            },
            {
              "pitch": 24,
              "velocity": 100,
              "position": 28.5,
              "duration": 0.2625
            },
            {
              "pitch": 24,
              "velocity": 70,
              "position": 28.770833333333332,
              "duration": 0.20416666666666666
            },
            {
              "pitch": 24,
              "velocity": 100,
              "position": 29.270833333333332,
              "duration": 0.22083333333333333
            },
            {
              "pitch": 24,
              "velocity": 70,
              "position": 29.5,
              "duration": 0.3416666666666667
            }
          ]
        },
        "13": {
          "ctab": {
            "srcChannel": 13,
            "name": "EP Maj",
            "accType": "CHORD2",
            "editable": false,
            "mutedNotes": [],
            "mutedChords": [
              "1+2+5",
              "sus4",
              "1+5",
              "1+8",
              "7aug",
              "Maj7aug",
              "7(#9)",
              "7(b13)",
              "7(b9)",
              "7(13)",
              "7#11",
              "7(9)",
              "7b5",
              "7sus4",
              "dim7",
              "dim",
              "minMaj7(9)",
              "minMaj7",
              "min7(11)",
              "min7(9)",
              "min(9)",
              "m7b5",
              "min7",
              "min6",
              "min",
              "aug",
              "Maj6(9)",
              "Maj7(9)",
              "Maj(9)",
              "Maj7#11",
              "Maj7",
              "Maj6"
            ],
            "autoStart": false,
            "sourceChordNote": 0,
            "sourceChordType": "7th",
            "ctb2Low": null,
            "ctb2Main": {
              "ntr": "ROOT_TRANSPOSITION",
              "ntt": "MELODIC_MINOR_5",
              "bassOn": false,
              "chordRootUpperLimit": 8,
              "noteLowLimit": 40,
              "noteHighLimit": 66,
              "rtr": "PITCH_SHIFT"
            },
            "ctb2High": null
          },
          "notes": [
            {
              "pitch": 74,
              "velocity": 122,
              "position": 0.010416666666666666,
              "duration": 0.22916666666666666
            },
            {
              "pitch": 70,
              "velocity": 122,
              "position": 0.010416666666666666,
              "duration": 0.23333333333333334
            },
            {
              "pitch": 67,
              "velocity": 122,
              "position": 0.010416666666666666,
              "duration": 0.24583333333333332
            },
            {
              "pitch": 24,
              "velocity": 99,
              "position": 0.49166666666666664,
              "duration": 0.13958333333333334
            },
            {
              "pitch": 72,
              "velocity": 122,
              "position": 0.79375,
              "duration": 0.23125
            },
            {
              "pitch": 69,
              "velocity": 120,
              "position": 0.8,
              "duration": 0.23125
            },
            {
              "pitch": 76,
              "velocity": 121,
              "position": 0.7833333333333333,
              "duration": 0.25
            },
            {
              "pitch": 24,
              "velocity": 102,
              "position": 1.3,
              "duration": 0.1375
            },
            {
              "pitch": 73,
              "velocity": 121,
              "position": 1.50625,
              "duration": 0.20416666666666666
            },
            {
              "pitch": 66,
              "velocity": 122,
              "position": 1.4916666666666667,
              "duration": 0.22083333333333333
            },
            {
              "pitch": 69,
              "velocity": 120,
              "position": 1.50625,
              "duration": 0.225
            },
            {
              "pitch": 74,
              "velocity": 97,
              "position": 1.7875,
              "duration": 0.1875
            },
            {
              "pitch": 70,
              "velocity": 97,
              "position": 1.7833333333333334,
              "duration": 0.2
            },
            {
              "pitch": 67,
              "velocity": 94,
              "position": 1.8,
              "duration": 0.2
            },
            {
              "pitch": 67,
              "velocity": 105,
              "position": 2.497916666666667,
              "duration": 0.24583333333333332
            },
            {
              "pitch": 74,
              "velocity": 103,
              "position": 2.5083333333333333,
              "duration": 0.24375
            },
            {
              "pitch": 70,
              "velocity": 100,
              "position": 2.502083333333333,
              "duration": 0.2708333333333333
            },
            {
              "pitch": 24,
              "velocity": 101,
              "position": 2.7958333333333334,
              "duration": 0.15625
            },
            {
              "pitch": 69,
              "velocity": 122,
              "position": 2.9916666666666667,
              "duration": 0.2
            },
            {
              "pitch": 72,
              "velocity": 118,
              "position": 3,
              "duration": 0.21041666666666667
            },
            {
              "pitch": 76,
              "velocity": 118,
              "position": 3.004166666666667,
              "duration": 0.2125
            },
            {
              "pitch": 74,
              "velocity": 106,
              "position": 3.5,
              "duration": 0.2
            },
            {
              "pitch": 67,
              "velocity": 109,
              "position": 3.502083333333333,
              "duration": 0.23541666666666666
            },
            {
              "pitch": 70,
              "velocity": 106,
              "position": 3.497916666666667,
              "duration": 0.23958333333333334
            },
            {
              "pitch": 24,
              "velocity": 99,
              "position": 3.783333333333333,
              "duration": 0.12708333333333333
            },
            {
              "pitch": 70,
              "velocity": 121,
              "position": 4.010416666666667,
              "duration": 0.23333333333333334
            },
            {
              "pitch": 67,
              "velocity": 122,
              "position": 4.010416666666667,
              "duration": 0.2520833333333333
            },
            {
              "pitch": 74,
              "velocity": 120,
              "position": 4.010416666666667,
              "duration": 0.25833333333333336
            },
            {
              "pitch": 24,
              "velocity": 101,
              "position": 4.495833333333334,
              "duration": 0.13333333333333333
            },
            {
              "pitch": 69,
              "velocity": 121,
              "position": 4.783333333333333,
              "duration": 0.25
            },
            {
              "pitch": 76,
              "velocity": 122,
              "position": 4.785416666666666,
              "duration": 0.2625
            },
            {
              "pitch": 72,
              "velocity": 122,
              "position": 4.795833333333333,
              "duration": 0.2625
            },
            {
              "pitch": 24,
              "velocity": 97,
              "position": 5.291666666666667,
              "duration": 0.1375
            },
            {
              "pitch": 69,
              "velocity": 96,
              "position": 5.491666666666666,
              "duration": 0.21666666666666667
            },
            {
              "pitch": 72,
              "velocity": 97,
              "position": 5.50625,
              "duration": 0.2125
            },
            {
              "pitch": 76,
              "velocity": 93,
              "position": 5.504166666666666,
              "duration": 0.22291666666666668
            },
            {
              "pitch": 67,
              "velocity": 120,
              "position": 5.791666666666667,
              "duration": 0.6458333333333334
            },
            {
              "pitch": 74,
              "velocity": 122,
              "position": 5.785416666666666,
              "duration": 0.6625
            },
            {
              "pitch": 70,
              "velocity": 122,
              "position": 5.797916666666667,
              "duration": 0.6645833333333333
            },
            {
              "pitch": 69,
              "velocity": 108,
              "position": 6.497916666666667,
              "duration": 0.23958333333333334
            },
            {
              "pitch": 72,
              "velocity": 108,
              "position": 6.497916666666667,
              "duration": 0.24166666666666667
            },
            {
              "pitch": 76,
              "velocity": 109,
              "position": 6.508333333333334,
              "duration": 0.23541666666666666
            },
            {
              "pitch": 24,
              "velocity": 102,
              "position": 6.8,
              "duration": 0.12708333333333333
            },
            {
              "pitch": 70,
              "velocity": 122,
              "position": 6.99375,
              "duration": 0.24166666666666667
            },
            {
              "pitch": 74,
              "velocity": 122,
              "position": 7.008333333333334,
              "duration": 0.22708333333333333
            },
            {
              "pitch": 67,
              "velocity": 122,
              "position": 7,
              "duration": 0.25625
            },
            {
              "pitch": 69,
              "velocity": 109,
              "position": 7.49375,
              "duration": 0.22916666666666666
            },
            {
              "pitch": 72,
              "velocity": 111,
              "position": 7.508333333333334,
              "duration": 0.23125
            },
            {
              "pitch": 76,
              "velocity": 109,
              "position": 7.491666666666666,
              "duration": 0.25625
            },
            {
              "pitch": 24,
              "velocity": 102,
              "position": 7.797916666666667,
              "duration": 0.1375
            },
            {
              "pitch": 74,
              "velocity": 122,
              "position": 8.010416666666666,
              "duration": 0.22916666666666666
            },
            {
              "pitch": 70,
              "velocity": 122,
              "position": 8.010416666666666,
              "duration": 0.23333333333333334
            },
            {
              "pitch": 67,
              "velocity": 122,
              "position": 8.010416666666666,
              "duration": 0.24583333333333332
            },
            {
              "pitch": 24,
              "velocity": 99,
              "position": 8.491666666666667,
              "duration": 0.13958333333333334
            },
            {
              "pitch": 72,
              "velocity": 122,
              "position": 8.79375,
              "duration": 0.23125
            },
            {
              "pitch": 69,
              "velocity": 120,
              "position": 8.8,
              "duration": 0.23125
            },
            {
              "pitch": 76,
              "velocity": 121,
              "position": 8.783333333333333,
              "duration": 0.25
            },
            {
              "pitch": 24,
              "velocity": 102,
              "position": 9.3,
              "duration": 0.1375
            },
            {
              "pitch": 73,
              "velocity": 121,
              "position": 9.50625,
              "duration": 0.20416666666666666
            },
            {
              "pitch": 66,
              "velocity": 122,
              "position": 9.491666666666667,
              "duration": 0.22083333333333333
            },
            {
              "pitch": 69,
              "velocity": 120,
              "position": 9.50625,
              "duration": 0.225
            },
            {
              "pitch": 74,
              "velocity": 97,
              "position": 9.7875,
              "duration": 0.1875
            },
            {
              "pitch": 70,
              "velocity": 97,
              "position": 9.783333333333333,
              "duration": 0.2
            },
            {
              "pitch": 67,
              "velocity": 94,
              "position": 9.8,
              "duration": 0.2
            },
            {
              "pitch": 67,
              "velocity": 105,
              "position": 10.497916666666667,
              "duration": 0.24583333333333332
            },
            {
              "pitch": 74,
              "velocity": 103,
              "position": 10.508333333333333,
              "duration": 0.24375
            },
            {
              "pitch": 70,
              "velocity": 100,
              "position": 10.502083333333333,
              "duration": 0.2708333333333333
            },
            {
              "pitch": 24,
              "velocity": 101,
              "position": 10.795833333333333,
              "duration": 0.15625
            },
            {
              "pitch": 69,
              "velocity": 122,
              "position": 10.991666666666667,
              "duration": 0.2
            },
            {
              "pitch": 72,
              "velocity": 118,
              "position": 11,
              "duration": 0.21041666666666667
            },
            {
              "pitch": 76,
              "velocity": 118,
              "position": 11.004166666666666,
              "duration": 0.2125
            },
            {
              "pitch": 74,
              "velocity": 106,
              "position": 11.5,
              "duration": 0.2
            },
            {
              "pitch": 67,
              "velocity": 109,
              "position": 11.502083333333333,
              "duration": 0.23541666666666666
            },
            {
              "pitch": 70,
              "velocity": 106,
              "position": 11.497916666666667,
              "duration": 0.23958333333333334
            },
            {
              "pitch": 24,
              "velocity": 99,
              "position": 11.783333333333333,
              "duration": 0.12708333333333333
            },
            {
              "pitch": 70,
              "velocity": 121,
              "position": 12.010416666666666,
              "duration": 0.23333333333333334
            },
            {
              "pitch": 67,
              "velocity": 122,
              "position": 12.010416666666666,
              "duration": 0.2520833333333333
            },
            {
              "pitch": 74,
              "velocity": 120,
              "position": 12.010416666666666,
              "duration": 0.25833333333333336
            },
            {
              "pitch": 24,
              "velocity": 101,
              "position": 12.495833333333334,
              "duration": 0.13333333333333333
            },
            {
              "pitch": 69,
              "velocity": 121,
              "position": 12.783333333333333,
              "duration": 0.25
            },
            {
              "pitch": 76,
              "velocity": 122,
              "position": 12.785416666666666,
              "duration": 0.2625
            },
            {
              "pitch": 72,
              "velocity": 122,
              "position": 12.795833333333333,
              "duration": 0.2625
            },
            {
              "pitch": 24,
              "velocity": 97,
              "position": 13.291666666666666,
              "duration": 0.1375
            },
            {
              "pitch": 69,
              "velocity": 96,
              "position": 13.491666666666667,
              "duration": 0.21666666666666667
            },
            {
              "pitch": 72,
              "velocity": 97,
              "position": 13.50625,
              "duration": 0.2125
            },
            {
              "pitch": 76,
              "velocity": 93,
              "position": 13.504166666666666,
              "duration": 0.22291666666666668
            },
            {
              "pitch": 67,
              "velocity": 120,
              "position": 13.791666666666666,
              "duration": 0.6458333333333334
            },
            {
              "pitch": 74,
              "velocity": 122,
              "position": 13.785416666666666,
              "duration": 0.6625
            },
            {
              "pitch": 70,
              "velocity": 122,
              "position": 13.797916666666667,
              "duration": 0.6645833333333333
            },
            {
              "pitch": 69,
              "velocity": 108,
              "position": 14.497916666666667,
              "duration": 0.23958333333333334
            },
            {
              "pitch": 72,
              "velocity": 108,
              "position": 14.497916666666667,
              "duration": 0.24166666666666667
            },
            {
              "pitch": 76,
              "velocity": 109,
              "position": 14.508333333333333,
              "duration": 0.23541666666666666
            },
            {
              "pitch": 24,
              "velocity": 102,
              "position": 14.8,
              "duration": 0.12708333333333333
            },
            {
              "pitch": 70,
              "velocity": 122,
              "position": 14.99375,
              "duration": 0.24166666666666667
            },
            {
              "pitch": 74,
              "velocity": 122,
              "position": 15.008333333333333,
              "duration": 0.22708333333333333
            },
            {
              "pitch": 67,
              "velocity": 122,
              "position": 15,
              "duration": 0.25625
            },
            {
              "pitch": 69,
              "velocity": 109,
              "position": 15.49375,
              "duration": 0.22916666666666666
            },
            {
              "pitch": 72,
              "velocity": 111,
              "position": 15.508333333333333,
              "duration": 0.23125
            },
            {
              "pitch": 76,
              "velocity": 109,
              "position": 15.491666666666667,
              "duration": 0.25625
            },
            {
              "pitch": 24,
              "velocity": 102,
              "position": 15.797916666666667,
              "duration": 0.14791666666666667
            },
            {
              "pitch": 74,
              "velocity": 122,
              "position": 16.010416666666668,
              "duration": 0.22916666666666666
            },
            {
              "pitch": 70,
              "velocity": 122,
              "position": 16.010416666666668,
              "duration": 0.23333333333333334
            },
            {
              "pitch": 67,
              "velocity": 122,
              "position": 16.010416666666668,
              "duration": 0.24583333333333332
            },
            {
              "pitch": 24,
              "velocity": 99,
              "position": 16.491666666666667,
              "duration": 0.13958333333333334
            },
            {
              "pitch": 72,
              "velocity": 122,
              "position": 16.79375,
              "duration": 0.23125
            },
            {
              "pitch": 69,
              "velocity": 120,
              "position": 16.8,
              "duration": 0.23125
            },
            {
              "pitch": 76,
              "velocity": 121,
              "position": 16.783333333333335,
              "duration": 0.25
            },
            {
              "pitch": 24,
              "velocity": 102,
              "position": 17.3,
              "duration": 0.1375
            },
            {
              "pitch": 73,
              "velocity": 121,
              "position": 17.50625,
              "duration": 0.20416666666666666
            },
            {
              "pitch": 66,
              "velocity": 122,
              "position": 17.491666666666667,
              "duration": 0.22083333333333333
            },
            {
              "pitch": 69,
              "velocity": 120,
              "position": 17.50625,
              "duration": 0.225
            },
            {
              "pitch": 74,
              "velocity": 97,
              "position": 17.7875,
              "duration": 0.1875
            },
            {
              "pitch": 70,
              "velocity": 97,
              "position": 17.783333333333335,
              "duration": 0.2
            },
            {
              "pitch": 67,
              "velocity": 94,
              "position": 17.8,
              "duration": 0.2
            },
            {
              "pitch": 67,
              "velocity": 105,
              "position": 18.497916666666665,
              "duration": 0.24583333333333332
            },
            {
              "pitch": 74,
              "velocity": 103,
              "position": 18.508333333333333,
              "duration": 0.24375
            },
            {
              "pitch": 70,
              "velocity": 100,
              "position": 18.502083333333335,
              "duration": 0.2708333333333333
            },
            {
              "pitch": 24,
              "velocity": 101,
              "position": 18.795833333333334,
              "duration": 0.15625
            },
            {
              "pitch": 69,
              "velocity": 122,
              "position": 18.991666666666667,
              "duration": 0.2
            },
            {
              "pitch": 72,
              "velocity": 118,
              "position": 19,
              "duration": 0.21041666666666667
            },
            {
              "pitch": 76,
              "velocity": 118,
              "position": 19.004166666666666,
              "duration": 0.2125
            },
            {
              "pitch": 74,
              "velocity": 106,
              "position": 19.5,
              "duration": 0.2
            },
            {
              "pitch": 67,
              "velocity": 109,
              "position": 19.502083333333335,
              "duration": 0.23541666666666666
            },
            {
              "pitch": 70,
              "velocity": 106,
              "position": 19.497916666666665,
              "duration": 0.23958333333333334
            },
            {
              "pitch": 24,
              "velocity": 99,
              "position": 19.783333333333335,
              "duration": 0.12708333333333333
            },
            {
              "pitch": 70,
              "velocity": 121,
              "position": 20.010416666666668,
              "duration": 0.23333333333333334
            },
            {
              "pitch": 67,
              "velocity": 122,
              "position": 20.010416666666668,
              "duration": 0.2520833333333333
            },
            {
              "pitch": 74,
              "velocity": 120,
              "position": 20.010416666666668,
              "duration": 0.25833333333333336
            },
            {
              "pitch": 24,
              "velocity": 101,
              "position": 20.495833333333334,
              "duration": 0.13333333333333333
            },
            {
              "pitch": 69,
              "velocity": 121,
              "position": 20.783333333333335,
              "duration": 0.25
            },
            {
              "pitch": 76,
              "velocity": 122,
              "position": 20.785416666666666,
              "duration": 0.2625
            },
            {
              "pitch": 72,
              "velocity": 122,
              "position": 20.795833333333334,
              "duration": 0.2625
            },
            {
              "pitch": 24,
              "velocity": 97,
              "position": 21.291666666666668,
              "duration": 0.1375
            },
            {
              "pitch": 69,
              "velocity": 96,
              "position": 21.491666666666667,
              "duration": 0.21666666666666667
            },
            {
              "pitch": 72,
              "velocity": 97,
              "position": 21.50625,
              "duration": 0.2125
            },
            {
              "pitch": 76,
              "velocity": 93,
              "position": 21.504166666666666,
              "duration": 0.22291666666666668
            },
            {
              "pitch": 67,
              "velocity": 120,
              "position": 21.791666666666668,
              "duration": 0.6458333333333334
            },
            {
              "pitch": 74,
              "velocity": 122,
              "position": 21.785416666666666,
              "duration": 0.6625
            },
            {
              "pitch": 70,
              "velocity": 122,
              "position": 21.797916666666666,
              "duration": 0.6645833333333333
            },
            {
              "pitch": 69,
              "velocity": 108,
              "position": 22.497916666666665,
              "duration": 0.23958333333333334
            },
            {
              "pitch": 72,
              "velocity": 108,
              "position": 22.497916666666665,
              "duration": 0.24166666666666667
            },
            {
              "pitch": 76,
              "velocity": 109,
              "position": 22.508333333333333,
              "duration": 0.23541666666666666
            },
            {
              "pitch": 24,
              "velocity": 102,
              "position": 22.8,
              "duration": 0.12708333333333333
            },
            {
              "pitch": 70,
              "velocity": 122,
              "position": 22.99375,
              "duration": 0.24166666666666667
            },
            {
              "pitch": 74,
              "velocity": 122,
              "position": 23.008333333333333,
              "duration": 0.22708333333333333
            },
            {
              "pitch": 67,
              "velocity": 122,
              "position": 23,
              "duration": 0.25625
            },
            {
              "pitch": 69,
              "velocity": 109,
              "position": 23.49375,
              "duration": 0.22916666666666666
            },
            {
              "pitch": 72,
              "velocity": 111,
              "position": 23.508333333333333,
              "duration": 0.23125
            },
            {
              "pitch": 76,
              "velocity": 109,
              "position": 23.491666666666667,
              "duration": 0.25625
            },
            {
              "pitch": 24,
              "velocity": 102,
              "position": 23.797916666666666,
              "duration": 0.1375
            },
            {
              "pitch": 74,
              "velocity": 122,
              "position": 24.010416666666668,
              "duration": 0.22916666666666666
            },
            {
              "pitch": 70,
              "velocity": 122,
              "position": 24.010416666666668,
              "duration": 0.23333333333333334
            },
            {
              "pitch": 67,
              "velocity": 122,
              "position": 24.010416666666668,
              "duration": 0.24583333333333332
            },
            {
              "pitch": 24,
              "velocity": 99,
              "position": 24.491666666666667,
              "duration": 0.13958333333333334
            },
            {
              "pitch": 72,
              "velocity": 122,
              "position": 24.79375,
              "duration": 0.23125
            },
            {
              "pitch": 69,
              "velocity": 120,
              "position": 24.8,
              "duration": 0.23125
            },
            {
              "pitch": 76,
              "velocity": 121,
              "position": 24.783333333333335,
              "duration": 0.25
            },
            {
              "pitch": 24,
              "velocity": 102,
              "position": 25.3,
              "duration": 0.1375
            },
            {
              "pitch": 73,
              "velocity": 121,
              "position": 25.50625,
              "duration": 0.20416666666666666
            },
            {
              "pitch": 66,
              "velocity": 122,
              "position": 25.491666666666667,
              "duration": 0.22083333333333333
            },
            {
              "pitch": 69,
              "velocity": 120,
              "position": 25.50625,
              "duration": 0.225
            },
            {
              "pitch": 74,
              "velocity": 97,
              "position": 25.7875,
              "duration": 0.1875
            },
            {
              "pitch": 70,
              "velocity": 97,
              "position": 25.783333333333335,
              "duration": 0.2
            },
            {
              "pitch": 67,
              "velocity": 94,
              "position": 25.8,
              "duration": 0.2
            },
            {
              "pitch": 67,
              "velocity": 105,
              "position": 26.497916666666665,
              "duration": 0.24583333333333332
            },
            {
              "pitch": 74,
              "velocity": 103,
              "position": 26.508333333333333,
              "duration": 0.24375
            },
            {
              "pitch": 70,
              "velocity": 100,
              "position": 26.502083333333335,
              "duration": 0.2708333333333333
            },
            {
              "pitch": 24,
              "velocity": 101,
              "position": 26.795833333333334,
              "duration": 0.15625
            },
            {
              "pitch": 69,
              "velocity": 122,
              "position": 26.991666666666667,
              "duration": 0.2
            },
            {
              "pitch": 72,
              "velocity": 118,
              "position": 27,
              "duration": 0.21041666666666667
            },
            {
              "pitch": 76,
              "velocity": 118,
              "position": 27.004166666666666,
              "duration": 0.2125
            },
            {
              "pitch": 74,
              "velocity": 106,
              "position": 27.5,
              "duration": 0.2
            },
            {
              "pitch": 67,
              "velocity": 109,
              "position": 27.502083333333335,
              "duration": 0.23541666666666666
            },
            {
              "pitch": 70,
              "velocity": 106,
              "position": 27.497916666666665,
              "duration": 0.23958333333333334
            },
            {
              "pitch": 24,
              "velocity": 99,
              "position": 27.783333333333335,
              "duration": 0.12708333333333333
            },
            {
              "pitch": 70,
              "velocity": 121,
              "position": 28.010416666666668,
              "duration": 0.23333333333333334
            },
            {
              "pitch": 67,
              "velocity": 122,
              "position": 28.010416666666668,
              "duration": 0.2520833333333333
            },
            {
              "pitch": 74,
              "velocity": 120,
              "position": 28.010416666666668,
              "duration": 0.25833333333333336
            },
            {
              "pitch": 24,
              "velocity": 101,
              "position": 28.495833333333334,
              "duration": 0.13333333333333333
            },
            {
              "pitch": 69,
              "velocity": 121,
              "position": 28.783333333333335,
              "duration": 0.25
            },
            {
              "pitch": 76,
              "velocity": 122,
              "position": 28.785416666666666,
              "duration": 0.2625
            },
            {
              "pitch": 72,
              "velocity": 122,
              "position": 28.795833333333334,
              "duration": 0.2625
            },
            {
              "pitch": 24,
              "velocity": 97,
              "position": 29.291666666666668,
              "duration": 0.1375
            },
            {
              "pitch": 69,
              "velocity": 96,
              "position": 29.491666666666667,
              "duration": 0.21666666666666667
            },
            {
              "pitch": 72,
              "velocity": 97,
              "position": 29.50625,
              "duration": 0.2125
            },
            {
              "pitch": 76,
              "velocity": 93,
              "position": 29.504166666666666,
              "duration": 0.22291666666666668
            },
            {
              "pitch": 67,
              "velocity": 120,
              "position": 29.791666666666668,
              "duration": 0.6458333333333334
            },
            {
              "pitch": 74,
              "velocity": 122,
              "position": 29.785416666666666,
              "duration": 0.6625
            },
            {
              "pitch": 70,
              "velocity": 122,
              "position": 29.797916666666666,
              "duration": 0.6645833333333333
            },
            {
              "pitch": 69,
              "velocity": 108,
              "position": 30.497916666666665,
              "duration": 0.23958333333333334
            },
            {
              "pitch": 72,
              "velocity": 108,
              "position": 30.497916666666665,
              "duration": 0.24166666666666667
            },
            {
              "pitch": 76,
              "velocity": 109,
              "position": 30.508333333333333,
              "duration": 0.23541666666666666
            },
            {
              "pitch": 24,
              "velocity": 102,
              "position": 30.8,
              "duration": 0.12708333333333333
            },
            {
              "pitch": 70,
              "velocity": 122,
              "position": 30.99375,
              "duration": 0.24166666666666667
            },
            {
              "pitch": 74,
              "velocity": 122,
              "position": 31.008333333333333,
              "duration": 0.22708333333333333
            },
            {
              "pitch": 67,
              "velocity": 122,
              "position": 31,
              "duration": 0.25625
            },
            {
              "pitch": 69,
              "velocity": 109,
              "position": 31.49375,
              "duration": 0.22916666666666666
            },
            {
              "pitch": 72,
              "velocity": 111,
              "position": 31.508333333333333,
              "duration": 0.23125
            },
            {
              "pitch": 76,
              "velocity": 109,
              "position": 31.491666666666667,
              "duration": 0.25625
            },
            {
              "pitch": 24,
              "velocity": 102,
              "position": 31.797916666666666,
              "duration": 0.14791666666666667
            }
          ]
        },
        "14": {
          "ctab": {
            "srcChannel": 14,
            "name": "EP Min",
            "accType": "CHORD2",
            "editable": false,
            "mutedNotes": [],
            "mutedChords": [
              "1+2+5",
              "sus4",
              "1+5",
              "1+8",
              "7aug",
              "Maj7aug",
              "7(#9)",
              "7(b13)",
              "7(b9)",
              "7(13)",
              "7#11",
              "7(9)",
              "7b5",
              "7sus4",
              "7th",
              "dim7",
              "dim",
              "minMaj7(9)",
              "minMaj7",
              "min7(11)",
              "min7(9)",
              "min(9)",
              "m7b5",
              "min7",
              "min6",
              "aug",
              "Maj6(9)",
              "Maj7(9)",
              "Maj(9)",
              "Maj7#11",
              "Maj7",
              "Maj6",
              "Maj"
            ],
            "autoStart": false,
            "sourceChordNote": 0,
            "sourceChordType": "min7",
            "ctb2Low": null,
            "ctb2Main": {
              "ntr": "ROOT_TRANSPOSITION",
              "ntt": "MELODIC_MINOR_5",
              "bassOn": false,
              "chordRootUpperLimit": 8,
              "noteLowLimit": 40,
              "noteHighLimit": 66,
              "rtr": "PITCH_SHIFT"
            },
            "ctb2High": null
          },
          "notes": [
            {
              "pitch": 75,
              "velocity": 127,
              "position": 0.010416666666666666,
              "duration": 0.22916666666666666
            },
            {
              "pitch": 70,
              "velocity": 127,
              "position": 0.010416666666666666,
              "duration": 0.23333333333333334
            },
            {
              "pitch": 67,
              "velocity": 127,
              "position": 0.010416666666666666,
              "duration": 0.24583333333333332
            },
            {
              "pitch": 24,
              "velocity": 100,
              "position": 0.010416666666666666,
              "duration": 0.47291666666666665
            },
            {
              "pitch": 36,
              "velocity": 78,
              "position": 0.49166666666666664,
              "duration": 0.19375
            },
            {
              "pitch": 72,
              "velocity": 127,
              "position": 0.79375,
              "duration": 0.23125
            },
            {
              "pitch": 69,
              "velocity": 125,
              "position": 0.8,
              "duration": 0.23125
            },
            {
              "pitch": 77,
              "velocity": 126,
              "position": 0.7833333333333333,
              "duration": 0.25
            },
            {
              "pitch": 36,
              "velocity": 80,
              "position": 1.3,
              "duration": 0.19375
            },
            {
              "pitch": 74,
              "velocity": 126,
              "position": 1.50625,
              "duration": 0.20416666666666666
            },
            {
              "pitch": 66,
              "velocity": 127,
              "position": 1.4916666666666667,
              "duration": 0.22083333333333333
            },
            {
              "pitch": 69,
              "velocity": 125,
              "position": 1.50625,
              "duration": 0.225
            },
            {
              "pitch": 75,
              "velocity": 100,
              "position": 1.7875,
              "duration": 0.1875
            },
            {
              "pitch": 70,
              "velocity": 100,
              "position": 1.7833333333333334,
              "duration": 0.2
            },
            {
              "pitch": 67,
              "velocity": 98,
              "position": 1.8,
              "duration": 0.2
            },
            {
              "pitch": 24,
              "velocity": 98,
              "position": 1.9958333333333333,
              "duration": 0.5104166666666666
            },
            {
              "pitch": 67,
              "velocity": 117,
              "position": 2.497916666666667,
              "duration": 0.24583333333333332
            },
            {
              "pitch": 75,
              "velocity": 115,
              "position": 2.5083333333333333,
              "duration": 0.24375
            },
            {
              "pitch": 70,
              "velocity": 113,
              "position": 2.502083333333333,
              "duration": 0.2708333333333333
            },
            {
              "pitch": 36,
              "velocity": 79,
              "position": 2.7958333333333334,
              "duration": 0.2125
            },
            {
              "pitch": 69,
              "velocity": 127,
              "position": 2.9916666666666667,
              "duration": 0.2
            },
            {
              "pitch": 72,
              "velocity": 124,
              "position": 3,
              "duration": 0.21041666666666667
            },
            {
              "pitch": 77,
              "velocity": 124,
              "position": 3.004166666666667,
              "duration": 0.2125
            },
            {
              "pitch": 75,
              "velocity": 110,
              "position": 3.5,
              "duration": 0.2
            },
            {
              "pitch": 67,
              "velocity": 114,
              "position": 3.502083333333333,
              "duration": 0.23541666666666666
            },
            {
              "pitch": 70,
              "velocity": 110,
              "position": 3.497916666666667,
              "duration": 0.23958333333333334
            },
            {
              "pitch": 36,
              "velocity": 78,
              "position": 3.783333333333333,
              "duration": 0.18125
            },
            {
              "pitch": 70,
              "velocity": 126,
              "position": 4.010416666666667,
              "duration": 0.23333333333333334
            },
            {
              "pitch": 67,
              "velocity": 127,
              "position": 4.010416666666667,
              "duration": 0.2520833333333333
            },
            {
              "pitch": 75,
              "velocity": 125,
              "position": 4.010416666666667,
              "duration": 0.25833333333333336
            },
            {
              "pitch": 24,
              "velocity": 98,
              "position": 4.010416666666667,
              "duration": 0.4895833333333333
            },
            {
              "pitch": 36,
              "velocity": 79,
              "position": 4.495833333333334,
              "duration": 0.1875
            },
            {
              "pitch": 69,
              "velocity": 126,
              "position": 4.783333333333333,
              "duration": 0.25
            },
            {
              "pitch": 77,
              "velocity": 127,
              "position": 4.785416666666666,
              "duration": 0.2625
            },
            {
              "pitch": 72,
              "velocity": 127,
              "position": 4.795833333333333,
              "duration": 0.2625
            },
            {
              "pitch": 36,
              "velocity": 76,
              "position": 5.291666666666667,
              "duration": 0.19166666666666668
            },
            {
              "pitch": 69,
              "velocity": 107,
              "position": 5.491666666666666,
              "duration": 0.21666666666666667
            },
            {
              "pitch": 72,
              "velocity": 108,
              "position": 5.50625,
              "duration": 0.2125
            },
            {
              "pitch": 77,
              "velocity": 105,
              "position": 5.504166666666666,
              "duration": 0.22291666666666668
            },
            {
              "pitch": 67,
              "velocity": 125,
              "position": 5.791666666666667,
              "duration": 0.6458333333333334
            },
            {
              "pitch": 75,
              "velocity": 127,
              "position": 5.785416666666666,
              "duration": 0.6625
            },
            {
              "pitch": 70,
              "velocity": 127,
              "position": 5.797916666666667,
              "duration": 0.6645833333333333
            },
            {
              "pitch": 24,
              "velocity": 100,
              "position": 5.997916666666667,
              "duration": 0.47708333333333336
            },
            {
              "pitch": 69,
              "velocity": 113,
              "position": 6.497916666666667,
              "duration": 0.23958333333333334
            },
            {
              "pitch": 72,
              "velocity": 112,
              "position": 6.497916666666667,
              "duration": 0.24166666666666667
            },
            {
              "pitch": 77,
              "velocity": 114,
              "position": 6.508333333333334,
              "duration": 0.23541666666666666
            },
            {
              "pitch": 36,
              "velocity": 83,
              "position": 6.8,
              "duration": 0.18333333333333332
            },
            {
              "pitch": 70,
              "velocity": 127,
              "position": 6.99375,
              "duration": 0.24166666666666667
            },
            {
              "pitch": 75,
              "velocity": 127,
              "position": 7.008333333333334,
              "duration": 0.22708333333333333
            },
            {
              "pitch": 67,
              "velocity": 127,
              "position": 7,
              "duration": 0.25625
            },
            {
              "pitch": 69,
              "velocity": 114,
              "position": 7.49375,
              "duration": 0.22916666666666666
            },
            {
              "pitch": 72,
              "velocity": 116,
              "position": 7.508333333333334,
              "duration": 0.23125
            },
            {
              "pitch": 77,
              "velocity": 114,
              "position": 7.491666666666666,
              "duration": 0.25625
            },
            {
              "pitch": 36,
              "velocity": 80,
              "position": 7.797916666666667,
              "duration": 0.19375
            },
            {
              "pitch": 75,
              "velocity": 127,
              "position": 8.010416666666666,
              "duration": 0.22916666666666666
            },
            {
              "pitch": 70,
              "velocity": 127,
              "position": 8.010416666666666,
              "duration": 0.23333333333333334
            },
            {
              "pitch": 67,
              "velocity": 127,
              "position": 8.010416666666666,
              "duration": 0.24583333333333332
            },
            {
              "pitch": 24,
              "velocity": 100,
              "position": 8.010416666666666,
              "duration": 0.48333333333333334
            },
            {
              "pitch": 36,
              "velocity": 78,
              "position": 8.491666666666667,
              "duration": 0.19375
            },
            {
              "pitch": 72,
              "velocity": 127,
              "position": 8.79375,
              "duration": 0.23125
            },
            {
              "pitch": 69,
              "velocity": 125,
              "position": 8.8,
              "duration": 0.23125
            },
            {
              "pitch": 77,
              "velocity": 126,
              "position": 8.783333333333333,
              "duration": 0.25
            },
            {
              "pitch": 36,
              "velocity": 80,
              "position": 9.3,
              "duration": 0.19375
            },
            {
              "pitch": 74,
              "velocity": 126,
              "position": 9.50625,
              "duration": 0.20416666666666666
            },
            {
              "pitch": 66,
              "velocity": 127,
              "position": 9.491666666666667,
              "duration": 0.22083333333333333
            },
            {
              "pitch": 69,
              "velocity": 125,
              "position": 9.50625,
              "duration": 0.225
            },
            {
              "pitch": 75,
              "velocity": 100,
              "position": 9.7875,
              "duration": 0.1875
            },
            {
              "pitch": 70,
              "velocity": 100,
              "position": 9.783333333333333,
              "duration": 0.2
            },
            {
              "pitch": 67,
              "velocity": 98,
              "position": 9.8,
              "duration": 0.2
            },
            {
              "pitch": 24,
              "velocity": 98,
              "position": 9.995833333333334,
              "duration": 0.5104166666666666
            },
            {
              "pitch": 67,
              "velocity": 117,
              "position": 10.497916666666667,
              "duration": 0.24583333333333332
            },
            {
              "pitch": 75,
              "velocity": 115,
              "position": 10.508333333333333,
              "duration": 0.24375
            },
            {
              "pitch": 70,
              "velocity": 113,
              "position": 10.502083333333333,
              "duration": 0.2708333333333333
            },
            {
              "pitch": 36,
              "velocity": 79,
              "position": 10.795833333333333,
              "duration": 0.2125
            },
            {
              "pitch": 69,
              "velocity": 127,
              "position": 10.991666666666667,
              "duration": 0.2
            },
            {
              "pitch": 72,
              "velocity": 124,
              "position": 11,
              "duration": 0.21041666666666667
            },
            {
              "pitch": 77,
              "velocity": 124,
              "position": 11.004166666666666,
              "duration": 0.2125
            },
            {
              "pitch": 75,
              "velocity": 110,
              "position": 11.5,
              "duration": 0.2
            },
            {
              "pitch": 67,
              "velocity": 114,
              "position": 11.502083333333333,
              "duration": 0.23541666666666666
            },
            {
              "pitch": 70,
              "velocity": 110,
              "position": 11.497916666666667,
              "duration": 0.23958333333333334
            },
            {
              "pitch": 36,
              "velocity": 78,
              "position": 11.783333333333333,
              "duration": 0.18125
            },
            {
              "pitch": 70,
              "velocity": 126,
              "position": 12.010416666666666,
              "duration": 0.23333333333333334
            },
            {
              "pitch": 67,
              "velocity": 127,
              "position": 12.010416666666666,
              "duration": 0.2520833333333333
            },
            {
              "pitch": 75,
              "velocity": 125,
              "position": 12.010416666666666,
              "duration": 0.25833333333333336
            },
            {
              "pitch": 24,
              "velocity": 98,
              "position": 12.010416666666666,
              "duration": 0.4895833333333333
            },
            {
              "pitch": 36,
              "velocity": 79,
              "position": 12.495833333333334,
              "duration": 0.1875
            },
            {
              "pitch": 69,
              "velocity": 126,
              "position": 12.783333333333333,
              "duration": 0.25
            },
            {
              "pitch": 77,
              "velocity": 127,
              "position": 12.785416666666666,
              "duration": 0.2625
            },
            {
              "pitch": 72,
              "velocity": 127,
              "position": 12.795833333333333,
              "duration": 0.2625
            },
            {
              "pitch": 36,
              "velocity": 76,
              "position": 13.291666666666666,
              "duration": 0.19166666666666668
            },
            {
              "pitch": 69,
              "velocity": 107,
              "position": 13.491666666666667,
              "duration": 0.21666666666666667
            },
            {
              "pitch": 72,
              "velocity": 108,
              "position": 13.50625,
              "duration": 0.2125
            },
            {
              "pitch": 77,
              "velocity": 105,
              "position": 13.504166666666666,
              "duration": 0.22291666666666668
            },
            {
              "pitch": 67,
              "velocity": 125,
              "position": 13.791666666666666,
              "duration": 0.6458333333333334
            },
            {
              "pitch": 75,
              "velocity": 127,
              "position": 13.785416666666666,
              "duration": 0.6625
            },
            {
              "pitch": 70,
              "velocity": 127,
              "position": 13.797916666666667,
              "duration": 0.6645833333333333
            },
            {
              "pitch": 24,
              "velocity": 100,
              "position": 13.997916666666667,
              "duration": 0.47708333333333336
            },
            {
              "pitch": 69,
              "velocity": 113,
              "position": 14.497916666666667,
              "duration": 0.23958333333333334
            },
            {
              "pitch": 72,
              "velocity": 112,
              "position": 14.497916666666667,
              "duration": 0.24166666666666667
            },
            {
              "pitch": 77,
              "velocity": 114,
              "position": 14.508333333333333,
              "duration": 0.23541666666666666
            },
            {
              "pitch": 36,
              "velocity": 83,
              "position": 14.8,
              "duration": 0.18333333333333332
            },
            {
              "pitch": 72,
              "velocity": 127,
              "position": 14.99375,
              "duration": 0.24166666666666667
            },
            {
              "pitch": 79,
              "velocity": 127,
              "position": 15.008333333333333,
              "duration": 0.22708333333333333
            },
            {
              "pitch": 70,
              "velocity": 127,
              "position": 15,
              "duration": 0.25625
            },
            {
              "pitch": 69,
              "velocity": 114,
              "position": 15.49375,
              "duration": 0.22916666666666666
            },
            {
              "pitch": 72,
              "velocity": 116,
              "position": 15.508333333333333,
              "duration": 0.23125
            },
            {
              "pitch": 77,
              "velocity": 114,
              "position": 15.491666666666667,
              "duration": 0.25625
            },
            {
              "pitch": 36,
              "velocity": 80,
              "position": 15.797916666666667,
              "duration": 0.20208333333333334
            },
            {
              "pitch": 75,
              "velocity": 127,
              "position": 16.010416666666668,
              "duration": 0.22916666666666666
            },
            {
              "pitch": 70,
              "velocity": 127,
              "position": 16.010416666666668,
              "duration": 0.23333333333333334
            },
            {
              "pitch": 67,
              "velocity": 127,
              "position": 16.010416666666668,
              "duration": 0.24583333333333332
            },
            {
              "pitch": 24,
              "velocity": 100,
              "position": 16.010416666666668,
              "duration": 0.47291666666666665
            },
            {
              "pitch": 36,
              "velocity": 78,
              "position": 16.491666666666667,
              "duration": 0.19375
            },
            {
              "pitch": 72,
              "velocity": 127,
              "position": 16.79375,
              "duration": 0.23125
            },
            {
              "pitch": 69,
              "velocity": 125,
              "position": 16.8,
              "duration": 0.23125
            },
            {
              "pitch": 77,
              "velocity": 126,
              "position": 16.783333333333335,
              "duration": 0.25
            },
            {
              "pitch": 36,
              "velocity": 80,
              "position": 17.3,
              "duration": 0.19375
            },
            {
              "pitch": 74,
              "velocity": 126,
              "position": 17.50625,
              "duration": 0.20416666666666666
            },
            {
              "pitch": 66,
              "velocity": 127,
              "position": 17.491666666666667,
              "duration": 0.22083333333333333
            },
            {
              "pitch": 69,
              "velocity": 125,
              "position": 17.50625,
              "duration": 0.225
            },
            {
              "pitch": 75,
              "velocity": 100,
              "position": 17.7875,
              "duration": 0.1875
            },
            {
              "pitch": 70,
              "velocity": 100,
              "position": 17.783333333333335,
              "duration": 0.2
            },
            {
              "pitch": 67,
              "velocity": 98,
              "position": 17.8,
              "duration": 0.2
            },
            {
              "pitch": 24,
              "velocity": 98,
              "position": 17.995833333333334,
              "duration": 0.5104166666666666
            },
            {
              "pitch": 67,
              "velocity": 117,
              "position": 18.497916666666665,
              "duration": 0.24583333333333332
            },
            {
              "pitch": 75,
              "velocity": 115,
              "position": 18.508333333333333,
              "duration": 0.24375
            },
            {
              "pitch": 70,
              "velocity": 113,
              "position": 18.502083333333335,
              "duration": 0.2708333333333333
            },
            {
              "pitch": 36,
              "velocity": 79,
              "position": 18.795833333333334,
              "duration": 0.2125
            },
            {
              "pitch": 69,
              "velocity": 127,
              "position": 18.991666666666667,
              "duration": 0.2
            },
            {
              "pitch": 72,
              "velocity": 124,
              "position": 19,
              "duration": 0.21041666666666667
            },
            {
              "pitch": 77,
              "velocity": 124,
              "position": 19.004166666666666,
              "duration": 0.2125
            },
            {
              "pitch": 75,
              "velocity": 110,
              "position": 19.5,
              "duration": 0.2
            },
            {
              "pitch": 67,
              "velocity": 114,
              "position": 19.502083333333335,
              "duration": 0.23541666666666666
            },
            {
              "pitch": 70,
              "velocity": 110,
              "position": 19.497916666666665,
              "duration": 0.23958333333333334
            },
            {
              "pitch": 36,
              "velocity": 78,
              "position": 19.783333333333335,
              "duration": 0.18125
            },
            {
              "pitch": 70,
              "velocity": 126,
              "position": 20.010416666666668,
              "duration": 0.23333333333333334
            },
            {
              "pitch": 67,
              "velocity": 127,
              "position": 20.010416666666668,
              "duration": 0.2520833333333333
            },
            {
              "pitch": 75,
              "velocity": 125,
              "position": 20.010416666666668,
              "duration": 0.25833333333333336
            },
            {
              "pitch": 24,
              "velocity": 98,
              "position": 20.010416666666668,
              "duration": 0.4895833333333333
            },
            {
              "pitch": 36,
              "velocity": 79,
              "position": 20.495833333333334,
              "duration": 0.1875
            },
            {
              "pitch": 69,
              "velocity": 126,
              "position": 20.783333333333335,
              "duration": 0.25
            },
            {
              "pitch": 77,
              "velocity": 127,
              "position": 20.785416666666666,
              "duration": 0.2625
            },
            {
              "pitch": 72,
              "velocity": 127,
              "position": 20.795833333333334,
              "duration": 0.2625
            },
            {
              "pitch": 36,
              "velocity": 76,
              "position": 21.291666666666668,
              "duration": 0.19166666666666668
            },
            {
              "pitch": 69,
              "velocity": 107,
              "position": 21.491666666666667,
              "duration": 0.21666666666666667
            },
            {
              "pitch": 72,
              "velocity": 108,
              "position": 21.50625,
              "duration": 0.2125
            },
            {
              "pitch": 77,
              "velocity": 105,
              "position": 21.504166666666666,
              "duration": 0.22291666666666668
            },
            {
              "pitch": 67,
              "velocity": 125,
              "position": 21.791666666666668,
              "duration": 0.6458333333333334
            },
            {
              "pitch": 75,
              "velocity": 127,
              "position": 21.785416666666666,
              "duration": 0.6625
            },
            {
              "pitch": 70,
              "velocity": 127,
              "position": 21.797916666666666,
              "duration": 0.6645833333333333
            },
            {
              "pitch": 24,
              "velocity": 100,
              "position": 21.997916666666665,
              "duration": 0.47708333333333336
            },
            {
              "pitch": 69,
              "velocity": 113,
              "position": 22.497916666666665,
              "duration": 0.23958333333333334
            },
            {
              "pitch": 72,
              "velocity": 112,
              "position": 22.497916666666665,
              "duration": 0.24166666666666667
            },
            {
              "pitch": 77,
              "velocity": 114,
              "position": 22.508333333333333,
              "duration": 0.23541666666666666
            },
            {
              "pitch": 36,
              "velocity": 83,
              "position": 22.8,
              "duration": 0.18333333333333332
            },
            {
              "pitch": 70,
              "velocity": 127,
              "position": 22.99375,
              "duration": 0.24166666666666667
            },
            {
              "pitch": 75,
              "velocity": 127,
              "position": 23.008333333333333,
              "duration": 0.22708333333333333
            },
            {
              "pitch": 67,
              "velocity": 127,
              "position": 23,
              "duration": 0.25625
            },
            {
              "pitch": 69,
              "velocity": 114,
              "position": 23.49375,
              "duration": 0.22916666666666666
            },
            {
              "pitch": 72,
              "velocity": 116,
              "position": 23.508333333333333,
              "duration": 0.23125
            },
            {
              "pitch": 77,
              "velocity": 114,
              "position": 23.491666666666667,
              "duration": 0.25625
            },
            {
              "pitch": 36,
              "velocity": 80,
              "position": 23.797916666666666,
              "duration": 0.19375
            },
            {
              "pitch": 75,
              "velocity": 127,
              "position": 24.010416666666668,
              "duration": 0.22916666666666666
            },
            {
              "pitch": 70,
              "velocity": 127,
              "position": 24.010416666666668,
              "duration": 0.23333333333333334
            },
            {
              "pitch": 67,
              "velocity": 127,
              "position": 24.010416666666668,
              "duration": 0.24583333333333332
            },
            {
              "pitch": 24,
              "velocity": 100,
              "position": 24.010416666666668,
              "duration": 0.48333333333333334
            },
            {
              "pitch": 36,
              "velocity": 78,
              "position": 24.491666666666667,
              "duration": 0.19375
            },
            {
              "pitch": 72,
              "velocity": 127,
              "position": 24.79375,
              "duration": 0.23125
            },
            {
              "pitch": 69,
              "velocity": 125,
              "position": 24.8,
              "duration": 0.23125
            },
            {
              "pitch": 77,
              "velocity": 126,
              "position": 24.783333333333335,
              "duration": 0.25
            },
            {
              "pitch": 36,
              "velocity": 80,
              "position": 25.3,
              "duration": 0.19375
            },
            {
              "pitch": 74,
              "velocity": 126,
              "position": 25.50625,
              "duration": 0.20416666666666666
            },
            {
              "pitch": 66,
              "velocity": 127,
              "position": 25.491666666666667,
              "duration": 0.22083333333333333
            },
            {
              "pitch": 69,
              "velocity": 125,
              "position": 25.50625,
              "duration": 0.225
            },
            {
              "pitch": 75,
              "velocity": 100,
              "position": 25.7875,
              "duration": 0.1875
            },
            {
              "pitch": 70,
              "velocity": 100,
              "position": 25.783333333333335,
              "duration": 0.2
            },
            {
              "pitch": 67,
              "velocity": 98,
              "position": 25.8,
              "duration": 0.2
            },
            {
              "pitch": 24,
              "velocity": 98,
              "position": 25.995833333333334,
              "duration": 0.5104166666666666
            },
            {
              "pitch": 67,
              "velocity": 117,
              "position": 26.497916666666665,
              "duration": 0.24583333333333332
            },
            {
              "pitch": 75,
              "velocity": 115,
              "position": 26.508333333333333,
              "duration": 0.24375
            },
            {
              "pitch": 70,
              "velocity": 113,
              "position": 26.502083333333335,
              "duration": 0.2708333333333333
            },
            {
              "pitch": 36,
              "velocity": 79,
              "position": 26.795833333333334,
              "duration": 0.2125
            },
            {
              "pitch": 69,
              "velocity": 127,
              "position": 26.991666666666667,
              "duration": 0.2
            },
            {
              "pitch": 72,
              "velocity": 124,
              "position": 27,
              "duration": 0.21041666666666667
            },
            {
              "pitch": 77,
              "velocity": 124,
              "position": 27.004166666666666,
              "duration": 0.2125
            },
            {
              "pitch": 75,
              "velocity": 110,
              "position": 27.5,
              "duration": 0.2
            },
            {
              "pitch": 67,
              "velocity": 114,
              "position": 27.502083333333335,
              "duration": 0.23541666666666666
            },
            {
              "pitch": 70,
              "velocity": 110,
              "position": 27.497916666666665,
              "duration": 0.23958333333333334
            },
            {
              "pitch": 36,
              "velocity": 78,
              "position": 27.783333333333335,
              "duration": 0.18125
            },
            {
              "pitch": 70,
              "velocity": 126,
              "position": 28.010416666666668,
              "duration": 0.23333333333333334
            },
            {
              "pitch": 67,
              "velocity": 127,
              "position": 28.010416666666668,
              "duration": 0.2520833333333333
            },
            {
              "pitch": 75,
              "velocity": 125,
              "position": 28.010416666666668,
              "duration": 0.25833333333333336
            },
            {
              "pitch": 24,
              "velocity": 98,
              "position": 28.010416666666668,
              "duration": 0.4895833333333333
            },
            {
              "pitch": 36,
              "velocity": 79,
              "position": 28.495833333333334,
              "duration": 0.1875
            },
            {
              "pitch": 69,
              "velocity": 126,
              "position": 28.783333333333335,
              "duration": 0.25
            },
            {
              "pitch": 77,
              "velocity": 127,
              "position": 28.785416666666666,
              "duration": 0.2625
            },
            {
              "pitch": 72,
              "velocity": 127,
              "position": 28.795833333333334,
              "duration": 0.2625
            },
            {
              "pitch": 36,
              "velocity": 76,
              "position": 29.291666666666668,
              "duration": 0.19166666666666668
            },
            {
              "pitch": 69,
              "velocity": 107,
              "position": 29.491666666666667,
              "duration": 0.21666666666666667
            },
            {
              "pitch": 72,
              "velocity": 108,
              "position": 29.50625,
              "duration": 0.2125
            },
            {
              "pitch": 77,
              "velocity": 105,
              "position": 29.504166666666666,
              "duration": 0.22291666666666668
            },
            {
              "pitch": 67,
              "velocity": 125,
              "position": 29.791666666666668,
              "duration": 0.6458333333333334
            },
            {
              "pitch": 75,
              "velocity": 127,
              "position": 29.785416666666666,
              "duration": 0.6625
            },
            {
              "pitch": 70,
              "velocity": 127,
              "position": 29.797916666666666,
              "duration": 0.6645833333333333
            },
            {
              "pitch": 24,
              "velocity": 100,
              "position": 29.997916666666665,
              "duration": 0.47708333333333336
            },
            {
              "pitch": 69,
              "velocity": 113,
              "position": 30.497916666666665,
              "duration": 0.23958333333333334
            },
            {
              "pitch": 72,
              "velocity": 112,
              "position": 30.497916666666665,
              "duration": 0.24166666666666667
            },
            {
              "pitch": 77,
              "velocity": 114,
              "position": 30.508333333333333,
              "duration": 0.23541666666666666
            },
            {
              "pitch": 36,
              "velocity": 83,
              "position": 30.8,
              "duration": 0.18333333333333332
            },
            {
              "pitch": 72,
              "velocity": 127,
              "position": 30.99375,
              "duration": 0.24166666666666667
            },
            {
              "pitch": 79,
              "velocity": 127,
              "position": 31.008333333333333,
              "duration": 0.22708333333333333
            },
            {
              "pitch": 70,
              "velocity": 127,
              "position": 31,
              "duration": 0.25625
            },
            {
              "pitch": 69,
              "velocity": 114,
              "position": 31.49375,
              "duration": 0.22916666666666666
            },
            {
              "pitch": 72,
              "velocity": 116,
              "position": 31.508333333333333,
              "duration": 0.23125
            },
            {
              "pitch": 77,
              "velocity": 114,
              "position": 31.491666666666667,
              "duration": 0.25625
            },
            {
              "pitch": 36,
              "velocity": 80,
              "position": 31.797916666666666,
              "duration": 0.20208333333333334
            }
          ]
        },
        "15": {
          "ctab": {
            "srcChannel": 15,
            "name": "EP",
            "accType": "CHORD2",
            "editable": false,
            "mutedNotes": [],
            "mutedChords": [
              "7th",
              "min",
              "Maj"
            ],
            "autoStart": false,
            "sourceChordNote": 0,
            "sourceChordType": "Maj7",
            "ctb2Low": null,
            "ctb2Main": {
              "ntr": "ROOT_TRANSPOSITION",
              "ntt": "CHORD",
              "bassOn": false,
              "chordRootUpperLimit": 8,
              "noteLowLimit": 40,
              "noteHighLimit": 66,
              "rtr": "PITCH_SHIFT"
            },
            "ctb2High": null
          },
          "notes": [
            {
              "pitch": 76,
              "velocity": 121,
              "position": 0.010416666666666666,
              "duration": 0.22916666666666666
            },
            {
              "pitch": 71,
              "velocity": 121,
              "position": 0.010416666666666666,
              "duration": 0.23333333333333334
            },
            {
              "pitch": 67,
              "velocity": 121,
              "position": 0.010416666666666666,
              "duration": 0.24583333333333332
            },
            {
              "pitch": 24,
              "velocity": 100,
              "position": 0.010416666666666666,
              "duration": 0.47291666666666665
            },
            {
              "pitch": 36,
              "velocity": 78,
              "position": 0.49166666666666664,
              "duration": 0.19375
            },
            {
              "pitch": 71,
              "velocity": 121,
              "position": 0.79375,
              "duration": 0.23125
            },
            {
              "pitch": 67,
              "velocity": 119,
              "position": 0.8,
              "duration": 0.23125
            },
            {
              "pitch": 76,
              "velocity": 120,
              "position": 0.7833333333333333,
              "duration": 0.25
            },
            {
              "pitch": 36,
              "velocity": 80,
              "position": 1.3,
              "duration": 0.19375
            },
            {
              "pitch": 76,
              "velocity": 120,
              "position": 1.5145833333333334,
              "duration": 0.20416666666666666
            },
            {
              "pitch": 67,
              "velocity": 121,
              "position": 1.5,
              "duration": 0.22083333333333333
            },
            {
              "pitch": 71,
              "velocity": 119,
              "position": 1.5145833333333334,
              "duration": 0.225
            },
            {
              "pitch": 76,
              "velocity": 94,
              "position": 1.7875,
              "duration": 0.1875
            },
            {
              "pitch": 71,
              "velocity": 94,
              "position": 1.7833333333333334,
              "duration": 0.2
            },
            {
              "pitch": 67,
              "velocity": 92,
              "position": 1.8,
              "duration": 0.2
            },
            {
              "pitch": 24,
              "velocity": 98,
              "position": 1.9958333333333333,
              "duration": 0.5104166666666666
            },
            {
              "pitch": 67,
              "velocity": 111,
              "position": 2.497916666666667,
              "duration": 0.24583333333333332
            },
            {
              "pitch": 76,
              "velocity": 109,
              "position": 2.5083333333333333,
              "duration": 0.24375
            },
            {
              "pitch": 71,
              "velocity": 107,
              "position": 2.502083333333333,
              "duration": 0.2708333333333333
            },
            {
              "pitch": 36,
              "velocity": 79,
              "position": 2.7958333333333334,
              "duration": 0.2125
            },
            {
              "pitch": 67,
              "velocity": 121,
              "position": 2.9916666666666667,
              "duration": 0.2
            },
            {
              "pitch": 71,
              "velocity": 118,
              "position": 3,
              "duration": 0.21041666666666667
            },
            {
              "pitch": 76,
              "velocity": 118,
              "position": 3.004166666666667,
              "duration": 0.2125
            },
            {
              "pitch": 67,
              "velocity": 108,
              "position": 3.502083333333333,
              "duration": 0.23541666666666666
            },
            {
              "pitch": 71,
              "velocity": 104,
              "position": 3.497916666666667,
              "duration": 0.23958333333333334
            },
            {
              "pitch": 36,
              "velocity": 78,
              "position": 3.783333333333333,
              "duration": 0.18125
            },
            {
              "pitch": 71,
              "velocity": 120,
              "position": 4.010416666666667,
              "duration": 0.23333333333333334
            },
            {
              "pitch": 67,
              "velocity": 121,
              "position": 4.010416666666667,
              "duration": 0.2520833333333333
            },
            {
              "pitch": 76,
              "velocity": 119,
              "position": 4.010416666666667,
              "duration": 0.25833333333333336
            },
            {
              "pitch": 24,
              "velocity": 98,
              "position": 4.010416666666667,
              "duration": 0.4895833333333333
            },
            {
              "pitch": 36,
              "velocity": 79,
              "position": 4.495833333333334,
              "duration": 0.1875
            },
            {
              "pitch": 67,
              "velocity": 120,
              "position": 4.783333333333333,
              "duration": 0.25
            },
            {
              "pitch": 76,
              "velocity": 121,
              "position": 4.785416666666666,
              "duration": 0.2625
            },
            {
              "pitch": 71,
              "velocity": 121,
              "position": 4.795833333333333,
              "duration": 0.2625
            },
            {
              "pitch": 36,
              "velocity": 76,
              "position": 5.291666666666667,
              "duration": 0.19166666666666668
            },
            {
              "pitch": 67,
              "velocity": 101,
              "position": 5.491666666666666,
              "duration": 0.21666666666666667
            },
            {
              "pitch": 71,
              "velocity": 102,
              "position": 5.50625,
              "duration": 0.2125
            },
            {
              "pitch": 76,
              "velocity": 99,
              "position": 5.504166666666666,
              "duration": 0.22291666666666668
            },
            {
              "pitch": 67,
              "velocity": 119,
              "position": 5.791666666666667,
              "duration": 0.6458333333333334
            },
            {
              "pitch": 76,
              "velocity": 121,
              "position": 5.785416666666666,
              "duration": 0.6625
            },
            {
              "pitch": 71,
              "velocity": 121,
              "position": 5.797916666666667,
              "duration": 0.6645833333333333
            },
            {
              "pitch": 24,
              "velocity": 100,
              "position": 5.997916666666667,
              "duration": 0.47708333333333336
            },
            {
              "pitch": 67,
              "velocity": 107,
              "position": 6.497916666666667,
              "duration": 0.23958333333333334
            },
            {
              "pitch": 71,
              "velocity": 106,
              "position": 6.497916666666667,
              "duration": 0.24166666666666667
            },
            {
              "pitch": 36,
              "velocity": 83,
              "position": 6.8,
              "duration": 0.18333333333333332
            },
            {
              "pitch": 71,
              "velocity": 121,
              "position": 6.99375,
              "duration": 0.24166666666666667
            },
            {
              "pitch": 76,
              "velocity": 121,
              "position": 7.008333333333334,
              "duration": 0.22708333333333333
            },
            {
              "pitch": 67,
              "velocity": 121,
              "position": 7,
              "duration": 0.25625
            },
            {
              "pitch": 67,
              "velocity": 108,
              "position": 7.49375,
              "duration": 0.22916666666666666
            },
            {
              "pitch": 71,
              "velocity": 110,
              "position": 7.508333333333334,
              "duration": 0.23125
            },
            {
              "pitch": 36,
              "velocity": 80,
              "position": 7.797916666666667,
              "duration": 0.19375
            },
            {
              "pitch": 76,
              "velocity": 121,
              "position": 8.010416666666666,
              "duration": 0.22916666666666666
            },
            {
              "pitch": 71,
              "velocity": 121,
              "position": 8.010416666666666,
              "duration": 0.23333333333333334
            },
            {
              "pitch": 67,
              "velocity": 121,
              "position": 8.010416666666666,
              "duration": 0.24583333333333332
            },
            {
              "pitch": 24,
              "velocity": 100,
              "position": 8.010416666666666,
              "duration": 0.48333333333333334
            },
            {
              "pitch": 36,
              "velocity": 78,
              "position": 8.491666666666667,
              "duration": 0.19375
            },
            {
              "pitch": 71,
              "velocity": 121,
              "position": 8.79375,
              "duration": 0.23125
            },
            {
              "pitch": 67,
              "velocity": 119,
              "position": 8.8,
              "duration": 0.23125
            },
            {
              "pitch": 76,
              "velocity": 120,
              "position": 8.783333333333333,
              "duration": 0.25
            },
            {
              "pitch": 36,
              "velocity": 80,
              "position": 9.3,
              "duration": 0.19375
            },
            {
              "pitch": 76,
              "velocity": 120,
              "position": 9.50625,
              "duration": 0.20416666666666666
            },
            {
              "pitch": 67,
              "velocity": 121,
              "position": 9.491666666666667,
              "duration": 0.22083333333333333
            },
            {
              "pitch": 71,
              "velocity": 119,
              "position": 9.50625,
              "duration": 0.225
            },
            {
              "pitch": 76,
              "velocity": 94,
              "position": 9.7875,
              "duration": 0.1875
            },
            {
              "pitch": 71,
              "velocity": 94,
              "position": 9.783333333333333,
              "duration": 0.2
            },
            {
              "pitch": 67,
              "velocity": 92,
              "position": 9.8,
              "duration": 0.2
            },
            {
              "pitch": 24,
              "velocity": 98,
              "position": 9.995833333333334,
              "duration": 0.5104166666666666
            },
            {
              "pitch": 67,
              "velocity": 111,
              "position": 10.497916666666667,
              "duration": 0.24583333333333332
            },
            {
              "pitch": 76,
              "velocity": 109,
              "position": 10.508333333333333,
              "duration": 0.24375
            },
            {
              "pitch": 71,
              "velocity": 107,
              "position": 10.502083333333333,
              "duration": 0.2708333333333333
            },
            {
              "pitch": 36,
              "velocity": 79,
              "position": 10.795833333333333,
              "duration": 0.2125
            },
            {
              "pitch": 67,
              "velocity": 121,
              "position": 10.991666666666667,
              "duration": 0.2
            },
            {
              "pitch": 71,
              "velocity": 118,
              "position": 11,
              "duration": 0.21041666666666667
            },
            {
              "pitch": 76,
              "velocity": 118,
              "position": 11.004166666666666,
              "duration": 0.2125
            },
            {
              "pitch": 67,
              "velocity": 108,
              "position": 11.502083333333333,
              "duration": 0.23541666666666666
            },
            {
              "pitch": 71,
              "velocity": 104,
              "position": 11.497916666666667,
              "duration": 0.23958333333333334
            },
            {
              "pitch": 36,
              "velocity": 78,
              "position": 11.783333333333333,
              "duration": 0.18125
            },
            {
              "pitch": 71,
              "velocity": 120,
              "position": 12.010416666666666,
              "duration": 0.23333333333333334
            },
            {
              "pitch": 67,
              "velocity": 121,
              "position": 12.010416666666666,
              "duration": 0.2520833333333333
            },
            {
              "pitch": 76,
              "velocity": 119,
              "position": 12.010416666666666,
              "duration": 0.25833333333333336
            },
            {
              "pitch": 24,
              "velocity": 98,
              "position": 12.010416666666666,
              "duration": 0.4895833333333333
            },
            {
              "pitch": 36,
              "velocity": 79,
              "position": 12.495833333333334,
              "duration": 0.1875
            },
            {
              "pitch": 67,
              "velocity": 120,
              "position": 12.783333333333333,
              "duration": 0.25
            },
            {
              "pitch": 76,
              "velocity": 121,
              "position": 12.785416666666666,
              "duration": 0.2625
            },
            {
              "pitch": 71,
              "velocity": 121,
              "position": 12.795833333333333,
              "duration": 0.2625
            },
            {
              "pitch": 36,
              "velocity": 76,
              "position": 13.291666666666666,
              "duration": 0.19166666666666668
            },
            {
              "pitch": 67,
              "velocity": 101,
              "position": 13.491666666666667,
              "duration": 0.21666666666666667
            },
            {
              "pitch": 71,
              "velocity": 102,
              "position": 13.50625,
              "duration": 0.2125
            },
            {
              "pitch": 76,
              "velocity": 99,
              "position": 13.504166666666666,
              "duration": 0.22291666666666668
            },
            {
              "pitch": 67,
              "velocity": 119,
              "position": 13.791666666666666,
              "duration": 0.6458333333333334
            },
            {
              "pitch": 76,
              "velocity": 121,
              "position": 13.785416666666666,
              "duration": 0.6625
            },
            {
              "pitch": 71,
              "velocity": 121,
              "position": 13.797916666666667,
              "duration": 0.6645833333333333
            },
            {
              "pitch": 24,
              "velocity": 100,
              "position": 13.997916666666667,
              "duration": 0.47708333333333336
            },
            {
              "pitch": 67,
              "velocity": 107,
              "position": 14.497916666666667,
              "duration": 0.23958333333333334
            },
            {
              "pitch": 71,
              "velocity": 106,
              "position": 14.497916666666667,
              "duration": 0.24166666666666667
            },
            {
              "pitch": 36,
              "velocity": 83,
              "position": 14.8,
              "duration": 0.18333333333333332
            },
            {
              "pitch": 71,
              "velocity": 121,
              "position": 14.99375,
              "duration": 0.24166666666666667
            },
            {
              "pitch": 76,
              "velocity": 121,
              "position": 15.008333333333333,
              "duration": 0.22708333333333333
            },
            {
              "pitch": 67,
              "velocity": 121,
              "position": 15,
              "duration": 0.25625
            },
            {
              "pitch": 67,
              "velocity": 108,
              "position": 15.49375,
              "duration": 0.22916666666666666
            },
            {
              "pitch": 71,
              "velocity": 110,
              "position": 15.508333333333333,
              "duration": 0.23125
            },
            {
              "pitch": 36,
              "velocity": 80,
              "position": 15.797916666666667,
              "duration": 0.20208333333333334
            },
            {
              "pitch": 76,
              "velocity": 121,
              "position": 16.010416666666668,
              "duration": 0.22916666666666666
            },
            {
              "pitch": 71,
              "velocity": 121,
              "position": 16.010416666666668,
              "duration": 0.23333333333333334
            },
            {
              "pitch": 67,
              "velocity": 121,
              "position": 16.010416666666668,
              "duration": 0.24583333333333332
            },
            {
              "pitch": 24,
              "velocity": 100,
              "position": 16.010416666666668,
              "duration": 0.47291666666666665
            },
            {
              "pitch": 36,
              "velocity": 78,
              "position": 16.491666666666667,
              "duration": 0.19375
            },
            {
              "pitch": 71,
              "velocity": 121,
              "position": 16.79375,
              "duration": 0.23125
            },
            {
              "pitch": 67,
              "velocity": 119,
              "position": 16.8,
              "duration": 0.23125
            },
            {
              "pitch": 76,
              "velocity": 120,
              "position": 16.783333333333335,
              "duration": 0.25
            },
            {
              "pitch": 36,
              "velocity": 80,
              "position": 17.3,
              "duration": 0.19375
            },
            {
              "pitch": 76,
              "velocity": 120,
              "position": 17.514583333333334,
              "duration": 0.20416666666666666
            },
            {
              "pitch": 67,
              "velocity": 121,
              "position": 17.5,
              "duration": 0.22083333333333333
            },
            {
              "pitch": 71,
              "velocity": 119,
              "position": 17.514583333333334,
              "duration": 0.225
            },
            {
              "pitch": 76,
              "velocity": 94,
              "position": 17.7875,
              "duration": 0.1875
            },
            {
              "pitch": 71,
              "velocity": 94,
              "position": 17.783333333333335,
              "duration": 0.2
            },
            {
              "pitch": 67,
              "velocity": 92,
              "position": 17.8,
              "duration": 0.2
            },
            {
              "pitch": 24,
              "velocity": 98,
              "position": 17.995833333333334,
              "duration": 0.5104166666666666
            },
            {
              "pitch": 67,
              "velocity": 111,
              "position": 18.497916666666665,
              "duration": 0.24583333333333332
            },
            {
              "pitch": 76,
              "velocity": 109,
              "position": 18.508333333333333,
              "duration": 0.24375
            },
            {
              "pitch": 71,
              "velocity": 107,
              "position": 18.502083333333335,
              "duration": 0.2708333333333333
            },
            {
              "pitch": 36,
              "velocity": 79,
              "position": 18.795833333333334,
              "duration": 0.2125
            },
            {
              "pitch": 67,
              "velocity": 121,
              "position": 18.991666666666667,
              "duration": 0.2
            },
            {
              "pitch": 71,
              "velocity": 118,
              "position": 19,
              "duration": 0.21041666666666667
            },
            {
              "pitch": 76,
              "velocity": 118,
              "position": 19.004166666666666,
              "duration": 0.2125
            },
            {
              "pitch": 67,
              "velocity": 108,
              "position": 19.502083333333335,
              "duration": 0.23541666666666666
            },
            {
              "pitch": 71,
              "velocity": 104,
              "position": 19.497916666666665,
              "duration": 0.23958333333333334
            },
            {
              "pitch": 36,
              "velocity": 78,
              "position": 19.783333333333335,
              "duration": 0.18125
            },
            {
              "pitch": 71,
              "velocity": 120,
              "position": 20.010416666666668,
              "duration": 0.23333333333333334
            },
            {
              "pitch": 67,
              "velocity": 121,
              "position": 20.010416666666668,
              "duration": 0.2520833333333333
            },
            {
              "pitch": 76,
              "velocity": 119,
              "position": 20.010416666666668,
              "duration": 0.25833333333333336
            },
            {
              "pitch": 24,
              "velocity": 98,
              "position": 20.010416666666668,
              "duration": 0.4895833333333333
            },
            {
              "pitch": 36,
              "velocity": 79,
              "position": 20.495833333333334,
              "duration": 0.1875
            },
            {
              "pitch": 67,
              "velocity": 120,
              "position": 20.783333333333335,
              "duration": 0.25
            },
            {
              "pitch": 76,
              "velocity": 121,
              "position": 20.785416666666666,
              "duration": 0.2625
            },
            {
              "pitch": 71,
              "velocity": 121,
              "position": 20.795833333333334,
              "duration": 0.2625
            },
            {
              "pitch": 36,
              "velocity": 76,
              "position": 21.291666666666668,
              "duration": 0.19166666666666668
            },
            {
              "pitch": 67,
              "velocity": 101,
              "position": 21.491666666666667,
              "duration": 0.21666666666666667
            },
            {
              "pitch": 71,
              "velocity": 102,
              "position": 21.50625,
              "duration": 0.2125
            },
            {
              "pitch": 76,
              "velocity": 99,
              "position": 21.504166666666666,
              "duration": 0.22291666666666668
            },
            {
              "pitch": 67,
              "velocity": 119,
              "position": 21.791666666666668,
              "duration": 0.6458333333333334
            },
            {
              "pitch": 76,
              "velocity": 121,
              "position": 21.785416666666666,
              "duration": 0.6625
            },
            {
              "pitch": 71,
              "velocity": 121,
              "position": 21.797916666666666,
              "duration": 0.6645833333333333
            },
            {
              "pitch": 24,
              "velocity": 100,
              "position": 21.997916666666665,
              "duration": 0.47708333333333336
            },
            {
              "pitch": 67,
              "velocity": 107,
              "position": 22.497916666666665,
              "duration": 0.23958333333333334
            },
            {
              "pitch": 71,
              "velocity": 106,
              "position": 22.497916666666665,
              "duration": 0.24166666666666667
            },
            {
              "pitch": 36,
              "velocity": 83,
              "position": 22.8,
              "duration": 0.18333333333333332
            },
            {
              "pitch": 71,
              "velocity": 121,
              "position": 22.99375,
              "duration": 0.24166666666666667
            },
            {
              "pitch": 76,
              "velocity": 121,
              "position": 23.008333333333333,
              "duration": 0.22708333333333333
            },
            {
              "pitch": 67,
              "velocity": 121,
              "position": 23,
              "duration": 0.25625
            },
            {
              "pitch": 67,
              "velocity": 108,
              "position": 23.49375,
              "duration": 0.22916666666666666
            },
            {
              "pitch": 71,
              "velocity": 110,
              "position": 23.508333333333333,
              "duration": 0.23125
            },
            {
              "pitch": 36,
              "velocity": 80,
              "position": 23.797916666666666,
              "duration": 0.19375
            },
            {
              "pitch": 76,
              "velocity": 121,
              "position": 24.010416666666668,
              "duration": 0.22916666666666666
            },
            {
              "pitch": 71,
              "velocity": 121,
              "position": 24.010416666666668,
              "duration": 0.23333333333333334
            },
            {
              "pitch": 67,
              "velocity": 121,
              "position": 24.010416666666668,
              "duration": 0.24583333333333332
            },
            {
              "pitch": 24,
              "velocity": 100,
              "position": 24.010416666666668,
              "duration": 0.48333333333333334
            },
            {
              "pitch": 36,
              "velocity": 78,
              "position": 24.491666666666667,
              "duration": 0.19375
            },
            {
              "pitch": 71,
              "velocity": 121,
              "position": 24.79375,
              "duration": 0.23125
            },
            {
              "pitch": 67,
              "velocity": 119,
              "position": 24.8,
              "duration": 0.23125
            },
            {
              "pitch": 76,
              "velocity": 120,
              "position": 24.783333333333335,
              "duration": 0.25
            },
            {
              "pitch": 36,
              "velocity": 80,
              "position": 25.3,
              "duration": 0.19375
            },
            {
              "pitch": 76,
              "velocity": 120,
              "position": 25.50625,
              "duration": 0.20416666666666666
            },
            {
              "pitch": 67,
              "velocity": 121,
              "position": 25.491666666666667,
              "duration": 0.22083333333333333
            },
            {
              "pitch": 71,
              "velocity": 119,
              "position": 25.50625,
              "duration": 0.225
            },
            {
              "pitch": 76,
              "velocity": 94,
              "position": 25.7875,
              "duration": 0.1875
            },
            {
              "pitch": 71,
              "velocity": 94,
              "position": 25.783333333333335,
              "duration": 0.2
            },
            {
              "pitch": 67,
              "velocity": 92,
              "position": 25.8,
              "duration": 0.2
            },
            {
              "pitch": 24,
              "velocity": 98,
              "position": 25.995833333333334,
              "duration": 0.5104166666666666
            },
            {
              "pitch": 67,
              "velocity": 111,
              "position": 26.497916666666665,
              "duration": 0.24583333333333332
            },
            {
              "pitch": 76,
              "velocity": 109,
              "position": 26.508333333333333,
              "duration": 0.24375
            },
            {
              "pitch": 71,
              "velocity": 107,
              "position": 26.502083333333335,
              "duration": 0.2708333333333333
            },
            {
              "pitch": 36,
              "velocity": 79,
              "position": 26.795833333333334,
              "duration": 0.2125
            },
            {
              "pitch": 67,
              "velocity": 121,
              "position": 26.991666666666667,
              "duration": 0.2
            },
            {
              "pitch": 71,
              "velocity": 118,
              "position": 27,
              "duration": 0.21041666666666667
            },
            {
              "pitch": 76,
              "velocity": 118,
              "position": 27.004166666666666,
              "duration": 0.2125
            },
            {
              "pitch": 67,
              "velocity": 108,
              "position": 27.502083333333335,
              "duration": 0.23541666666666666
            },
            {
              "pitch": 71,
              "velocity": 104,
              "position": 27.497916666666665,
              "duration": 0.23958333333333334
            },
            {
              "pitch": 36,
              "velocity": 78,
              "position": 27.783333333333335,
              "duration": 0.18125
            },
            {
              "pitch": 71,
              "velocity": 120,
              "position": 28.010416666666668,
              "duration": 0.23333333333333334
            },
            {
              "pitch": 67,
              "velocity": 121,
              "position": 28.010416666666668,
              "duration": 0.2520833333333333
            },
            {
              "pitch": 76,
              "velocity": 119,
              "position": 28.010416666666668,
              "duration": 0.25833333333333336
            },
            {
              "pitch": 24,
              "velocity": 98,
              "position": 28.010416666666668,
              "duration": 0.4895833333333333
            },
            {
              "pitch": 36,
              "velocity": 79,
              "position": 28.495833333333334,
              "duration": 0.1875
            },
            {
              "pitch": 67,
              "velocity": 120,
              "position": 28.783333333333335,
              "duration": 0.25
            },
            {
              "pitch": 76,
              "velocity": 121,
              "position": 28.785416666666666,
              "duration": 0.2625
            },
            {
              "pitch": 71,
              "velocity": 121,
              "position": 28.795833333333334,
              "duration": 0.2625
            },
            {
              "pitch": 36,
              "velocity": 76,
              "position": 29.291666666666668,
              "duration": 0.19166666666666668
            },
            {
              "pitch": 67,
              "velocity": 101,
              "position": 29.491666666666667,
              "duration": 0.21666666666666667
            },
            {
              "pitch": 71,
              "velocity": 102,
              "position": 29.50625,
              "duration": 0.2125
            },
            {
              "pitch": 76,
              "velocity": 99,
              "position": 29.504166666666666,
              "duration": 0.22291666666666668
            },
            {
              "pitch": 67,
              "velocity": 119,
              "position": 29.791666666666668,
              "duration": 0.6458333333333334
            },
            {
              "pitch": 76,
              "velocity": 121,
              "position": 29.785416666666666,
              "duration": 0.6625
            },
            {
              "pitch": 71,
              "velocity": 121,
              "position": 29.797916666666666,
              "duration": 0.6645833333333333
            },
            {
              "pitch": 24,
              "velocity": 100,
              "position": 29.997916666666665,
              "duration": 0.47708333333333336
            },
            {
              "pitch": 67,
              "velocity": 107,
              "position": 30.497916666666665,
              "duration": 0.23958333333333334
            },
            {
              "pitch": 71,
              "velocity": 106,
              "position": 30.497916666666665,
              "duration": 0.24166666666666667
            },
            {
              "pitch": 36,
              "velocity": 83,
              "position": 30.8,
              "duration": 0.18333333333333332
            },
            {
              "pitch": 71,
              "velocity": 121,
              "position": 30.99375,
              "duration": 0.24166666666666667
            },
            {
              "pitch": 76,
              "velocity": 121,
              "position": 31.008333333333333,
              "duration": 0.22708333333333333
            },
            {
              "pitch": 67,
              "velocity": 121,
              "position": 31,
              "duration": 0.25625
            },
            {
              "pitch": 67,
              "velocity": 108,
              "position": 31.49375,
              "duration": 0.22916666666666666
            },
            {
              "pitch": 71,
              "velocity": 110,
              "position": 31.508333333333333,
              "duration": 0.23125
            },
            {
              "pitch": 36,
              "velocity": 80,
              "position": 31.797916666666666,
              "duration": 0.20208333333333334
            }
          ]
        }
      }
    },
    "Fill_In_DD": {
      "type": "Fill_In_DD",
      "sizeInBeats": 4,
      "channels": {
        "1": {
          "ctab": {
            "srcChannel": 1,
            "name": "Gt Maj",
            "accType": "CHORD1",
            "editable": false,
            "mutedNotes": [],
            "mutedChords": [
              "1+2+5",
              "sus4",
              "1+5",
              "1+8",
              "7aug",
              "Maj7aug",
              "7(#9)",
              "7(b13)",
              "7(b9)",
              "7(13)",
              "7#11",
              "7(9)",
              "7b5",
              "7sus4",
              "dim7",
              "dim",
              "minMaj7(9)",
              "minMaj7",
              "min7(11)",
              "min7(9)",
              "min(9)",
              "m7b5",
              "min7",
              "min6",
              "min",
              "aug",
              "Maj6(9)",
              "Maj7(9)",
              "Maj(9)",
              "Maj7#11",
              "Maj7",
              "Maj6"
            ],
            "autoStart": false,
            "sourceChordNote": 0,
            "sourceChordType": "7th",
            "ctb2Low": null,
            "ctb2Main": {
              "ntr": "ROOT_TRANSPOSITION",
              "ntt": "MELODIC_MINOR_5",
              "bassOn": false,
              "chordRootUpperLimit": 7,
              "noteLowLimit": 55,
              "noteHighLimit": 77,
              "rtr": "PITCH_SHIFT"
            },
            "ctb2High": null
          },
          "notes": [
            {
              "pitch": 82,
              "velocity": 34,
              "position": 0.03125,
              "duration": 0.23125
            },
            {
              "pitch": 106,
              "velocity": 78,
              "position": 0.010416666666666666,
              "duration": 0.2520833333333333
            },
            {
              "pitch": 79,
              "velocity": 34,
              "position": 0.010416666666666666,
              "duration": 0.27291666666666664
            },
            {
              "pitch": 105,
              "velocity": 78,
              "position": 0.2708333333333333,
              "duration": 0.2
            },
            {
              "pitch": 86,
              "velocity": 34,
              "position": 0.052083333333333336,
              "duration": 0.4395833333333333
            },
            {
              "pitch": 86,
              "velocity": 34,
              "position": 0.5,
              "duration": 0.2625
            },
            {
              "pitch": 107,
              "velocity": 78,
              "position": 0.5,
              "duration": 0.2625
            },
            {
              "pitch": 82,
              "velocity": 26,
              "position": 0.2708333333333333,
              "duration": 0.5125
            },
            {
              "pitch": 79,
              "velocity": 26,
              "position": 0.2916666666666667,
              "duration": 0.5125
            },
            {
              "pitch": 108,
              "velocity": 78,
              "position": 0.7708333333333334,
              "duration": 0.2
            },
            {
              "pitch": 86,
              "velocity": 42,
              "position": 0.7708333333333334,
              "duration": 0.20416666666666666
            },
            {
              "pitch": 82,
              "velocity": 42,
              "position": 0.7916666666666666,
              "duration": 0.20416666666666666
            },
            {
              "pitch": 79,
              "velocity": 42,
              "position": 0.8125,
              "duration": 0.20416666666666666
            },
            {
              "pitch": 104,
              "velocity": 78,
              "position": 1,
              "duration": 0.2625
            },
            {
              "pitch": 106,
              "velocity": 78,
              "position": 1.2708333333333333,
              "duration": 0.2
            },
            {
              "pitch": 86,
              "velocity": 42,
              "position": 1.2708333333333333,
              "duration": 0.20416666666666666
            },
            {
              "pitch": 82,
              "velocity": 42,
              "position": 1.2916666666666667,
              "duration": 0.20416666666666666
            },
            {
              "pitch": 79,
              "velocity": 42,
              "position": 1.3125,
              "duration": 0.20416666666666666
            },
            {
              "pitch": 104,
              "velocity": 78,
              "position": 1.5,
              "duration": 0.2625
            },
            {
              "pitch": 103,
              "velocity": 78,
              "position": 1.7708333333333333,
              "duration": 0.22083333333333333
            },
            {
              "pitch": 79,
              "velocity": 42,
              "position": 2,
              "duration": 0.23333333333333334
            },
            {
              "pitch": 106,
              "velocity": 78,
              "position": 2,
              "duration": 0.24166666666666667
            },
            {
              "pitch": 82,
              "velocity": 42,
              "position": 2.0208333333333335,
              "duration": 0.23333333333333334
            },
            {
              "pitch": 86,
              "velocity": 42,
              "position": 2.0416666666666665,
              "duration": 0.23333333333333334
            },
            {
              "pitch": 124,
              "velocity": 10,
              "position": 2.2708333333333335,
              "duration": 0.22083333333333333
            },
            {
              "pitch": 76,
              "velocity": 34,
              "position": 2.5,
              "duration": 0.23333333333333334
            },
            {
              "pitch": 108,
              "velocity": 78,
              "position": 2.5,
              "duration": 0.24166666666666667
            },
            {
              "pitch": 81,
              "velocity": 34,
              "position": 2.5208333333333335,
              "duration": 0.23333333333333334
            },
            {
              "pitch": 84,
              "velocity": 34,
              "position": 2.5416666666666665,
              "duration": 0.23333333333333334
            },
            {
              "pitch": 122,
              "velocity": 10,
              "position": 2.7708333333333335,
              "duration": 0.22083333333333333
            },
            {
              "pitch": 79,
              "velocity": 42,
              "position": 3,
              "duration": 0.23333333333333334
            },
            {
              "pitch": 82,
              "velocity": 42,
              "position": 3.0208333333333335,
              "duration": 0.23333333333333334
            },
            {
              "pitch": 106,
              "velocity": 78,
              "position": 3,
              "duration": 0.2625
            },
            {
              "pitch": 86,
              "velocity": 42,
              "position": 3.0416666666666665,
              "duration": 0.23333333333333334
            },
            {
              "pitch": 105,
              "velocity": 78,
              "position": 3.2708333333333335,
              "duration": 0.22083333333333333
            },
            {
              "pitch": 104,
              "velocity": 78,
              "position": 3.5,
              "duration": 0.2625
            },
            {
              "pitch": 103,
              "velocity": 78,
              "position": 3.7708333333333335,
              "duration": 0.22083333333333333
            }
          ]
        },
        "2": {
          "ctab": {
            "srcChannel": 2,
            "name": "Gt Min",
            "accType": "CHORD1",
            "editable": false,
            "mutedNotes": [],
            "mutedChords": [
              "1+2+5",
              "sus4",
              "1+5",
              "1+8",
              "7aug",
              "Maj7aug",
              "7(#9)",
              "7(b13)",
              "7(b9)",
              "7(13)",
              "7#11",
              "7(9)",
              "7b5",
              "7sus4",
              "7th",
              "dim7",
              "dim",
              "minMaj7(9)",
              "minMaj7",
              "min7(11)",
              "min7(9)",
              "min(9)",
              "m7b5",
              "min7",
              "min6",
              "aug",
              "Maj6(9)",
              "Maj7(9)",
              "Maj(9)",
              "Maj7#11",
              "Maj7",
              "Maj6",
              "Maj"
            ],
            "autoStart": false,
            "sourceChordNote": 0,
            "sourceChordType": "min7",
            "ctb2Low": null,
            "ctb2Main": {
              "ntr": "ROOT_TRANSPOSITION",
              "ntt": "MELODIC_MINOR_5",
              "bassOn": false,
              "chordRootUpperLimit": 7,
              "noteLowLimit": 55,
              "noteHighLimit": 77,
              "rtr": "PITCH_SHIFT"
            },
            "ctb2High": null
          },
          "notes": [
            {
              "pitch": 82,
              "velocity": 34,
              "position": 0.03125,
              "duration": 0.23125
            },
            {
              "pitch": 106,
              "velocity": 78,
              "position": 0.010416666666666666,
              "duration": 0.2520833333333333
            },
            {
              "pitch": 79,
              "velocity": 34,
              "position": 0.010416666666666666,
              "duration": 0.27291666666666664
            },
            {
              "pitch": 105,
              "velocity": 78,
              "position": 0.2708333333333333,
              "duration": 0.2
            },
            {
              "pitch": 86,
              "velocity": 34,
              "position": 0.052083333333333336,
              "duration": 0.4395833333333333
            },
            {
              "pitch": 86,
              "velocity": 34,
              "position": 0.5,
              "duration": 0.2625
            },
            {
              "pitch": 107,
              "velocity": 78,
              "position": 0.5,
              "duration": 0.2625
            },
            {
              "pitch": 82,
              "velocity": 26,
              "position": 0.2708333333333333,
              "duration": 0.5125
            },
            {
              "pitch": 79,
              "velocity": 26,
              "position": 0.2916666666666667,
              "duration": 0.5125
            },
            {
              "pitch": 108,
              "velocity": 78,
              "position": 0.7708333333333334,
              "duration": 0.2
            },
            {
              "pitch": 86,
              "velocity": 42,
              "position": 0.7708333333333334,
              "duration": 0.20416666666666666
            },
            {
              "pitch": 82,
              "velocity": 42,
              "position": 0.7916666666666666,
              "duration": 0.20416666666666666
            },
            {
              "pitch": 79,
              "velocity": 42,
              "position": 0.8125,
              "duration": 0.20416666666666666
            },
            {
              "pitch": 104,
              "velocity": 78,
              "position": 1,
              "duration": 0.2625
            },
            {
              "pitch": 106,
              "velocity": 78,
              "position": 1.2708333333333333,
              "duration": 0.2
            },
            {
              "pitch": 86,
              "velocity": 42,
              "position": 1.2708333333333333,
              "duration": 0.20416666666666666
            },
            {
              "pitch": 82,
              "velocity": 42,
              "position": 1.2916666666666667,
              "duration": 0.20416666666666666
            },
            {
              "pitch": 79,
              "velocity": 42,
              "position": 1.3125,
              "duration": 0.20416666666666666
            },
            {
              "pitch": 104,
              "velocity": 78,
              "position": 1.5,
              "duration": 0.2625
            },
            {
              "pitch": 103,
              "velocity": 78,
              "position": 1.7708333333333333,
              "duration": 0.22083333333333333
            },
            {
              "pitch": 79,
              "velocity": 42,
              "position": 2,
              "duration": 0.23333333333333334
            },
            {
              "pitch": 106,
              "velocity": 78,
              "position": 2,
              "duration": 0.24166666666666667
            },
            {
              "pitch": 82,
              "velocity": 42,
              "position": 2.0208333333333335,
              "duration": 0.23333333333333334
            },
            {
              "pitch": 86,
              "velocity": 42,
              "position": 2.0416666666666665,
              "duration": 0.23333333333333334
            },
            {
              "pitch": 124,
              "velocity": 10,
              "position": 2.2708333333333335,
              "duration": 0.22083333333333333
            },
            {
              "pitch": 82,
              "velocity": 34,
              "position": 2.5,
              "duration": 0.23333333333333334
            },
            {
              "pitch": 108,
              "velocity": 78,
              "position": 2.5,
              "duration": 0.24166666666666667
            },
            {
              "pitch": 86,
              "velocity": 34,
              "position": 2.5208333333333335,
              "duration": 0.23333333333333334
            },
            {
              "pitch": 89,
              "velocity": 34,
              "position": 2.5416666666666665,
              "duration": 0.23333333333333334
            },
            {
              "pitch": 122,
              "velocity": 10,
              "position": 2.7708333333333335,
              "duration": 0.22083333333333333
            },
            {
              "pitch": 79,
              "velocity": 42,
              "position": 3,
              "duration": 0.23333333333333334
            },
            {
              "pitch": 82,
              "velocity": 42,
              "position": 3.0208333333333335,
              "duration": 0.23333333333333334
            },
            {
              "pitch": 106,
              "velocity": 78,
              "position": 3,
              "duration": 0.2625
            },
            {
              "pitch": 86,
              "velocity": 42,
              "position": 3.0416666666666665,
              "duration": 0.23333333333333334
            },
            {
              "pitch": 105,
              "velocity": 78,
              "position": 3.2708333333333335,
              "duration": 0.22083333333333333
            },
            {
              "pitch": 104,
              "velocity": 78,
              "position": 3.5,
              "duration": 0.2625
            },
            {
              "pitch": 103,
              "velocity": 78,
              "position": 3.7708333333333335,
              "duration": 0.22083333333333333
            }
          ]
        },
        "3": {
          "ctab": {
            "srcChannel": 3,
            "name": "Gt",
            "accType": "CHORD1",
            "editable": false,
            "mutedNotes": [],
            "mutedChords": [
              "7th",
              "min",
              "Maj"
            ],
            "autoStart": false,
            "sourceChordNote": 0,
            "sourceChordType": "Maj7",
            "ctb2Low": null,
            "ctb2Main": {
              "ntr": "ROOT_FIXED",
              "ntt": "CHORD",
              "bassOn": false,
              "chordRootUpperLimit": 7,
              "noteLowLimit": 55,
              "noteHighLimit": 77,
              "rtr": "PITCH_SHIFT"
            },
            "ctb2High": null
          },
          "notes": [
            {
              "pitch": 83,
              "velocity": 34,
              "position": 0.03125,
              "duration": 0.23125
            },
            {
              "pitch": 106,
              "velocity": 78,
              "position": 0.010416666666666666,
              "duration": 0.2520833333333333
            },
            {
              "pitch": 79,
              "velocity": 34,
              "position": 0.010416666666666666,
              "duration": 0.27291666666666664
            },
            {
              "pitch": 105,
              "velocity": 78,
              "position": 0.2708333333333333,
              "duration": 0.2
            },
            {
              "pitch": 88,
              "velocity": 34,
              "position": 0.052083333333333336,
              "duration": 0.4395833333333333
            },
            {
              "pitch": 88,
              "velocity": 34,
              "position": 0.5,
              "duration": 0.2625
            },
            {
              "pitch": 107,
              "velocity": 78,
              "position": 0.5,
              "duration": 0.2625
            },
            {
              "pitch": 83,
              "velocity": 26,
              "position": 0.2708333333333333,
              "duration": 0.5125
            },
            {
              "pitch": 79,
              "velocity": 26,
              "position": 0.2916666666666667,
              "duration": 0.5125
            },
            {
              "pitch": 108,
              "velocity": 78,
              "position": 0.7708333333333334,
              "duration": 0.2
            },
            {
              "pitch": 88,
              "velocity": 42,
              "position": 0.7708333333333334,
              "duration": 0.20416666666666666
            },
            {
              "pitch": 83,
              "velocity": 42,
              "position": 0.7916666666666666,
              "duration": 0.20416666666666666
            },
            {
              "pitch": 79,
              "velocity": 42,
              "position": 0.8125,
              "duration": 0.20416666666666666
            },
            {
              "pitch": 104,
              "velocity": 78,
              "position": 1,
              "duration": 0.2625
            },
            {
              "pitch": 106,
              "velocity": 78,
              "position": 1.2708333333333333,
              "duration": 0.2
            },
            {
              "pitch": 88,
              "velocity": 42,
              "position": 1.2708333333333333,
              "duration": 0.20416666666666666
            },
            {
              "pitch": 83,
              "velocity": 42,
              "position": 1.2916666666666667,
              "duration": 0.20416666666666666
            },
            {
              "pitch": 79,
              "velocity": 42,
              "position": 1.3125,
              "duration": 0.20416666666666666
            },
            {
              "pitch": 104,
              "velocity": 78,
              "position": 1.5,
              "duration": 0.2625
            },
            {
              "pitch": 103,
              "velocity": 78,
              "position": 1.7708333333333333,
              "duration": 0.22083333333333333
            },
            {
              "pitch": 79,
              "velocity": 42,
              "position": 2,
              "duration": 0.23333333333333334
            },
            {
              "pitch": 106,
              "velocity": 78,
              "position": 2,
              "duration": 0.24166666666666667
            },
            {
              "pitch": 83,
              "velocity": 42,
              "position": 2.0208333333333335,
              "duration": 0.23333333333333334
            },
            {
              "pitch": 88,
              "velocity": 42,
              "position": 2.0416666666666665,
              "duration": 0.23333333333333334
            },
            {
              "pitch": 124,
              "velocity": 10,
              "position": 2.2708333333333335,
              "duration": 0.22083333333333333
            },
            {
              "pitch": 79,
              "velocity": 34,
              "position": 2.5,
              "duration": 0.23333333333333334
            },
            {
              "pitch": 108,
              "velocity": 78,
              "position": 2.5,
              "duration": 0.24166666666666667
            },
            {
              "pitch": 83,
              "velocity": 34,
              "position": 2.5208333333333335,
              "duration": 0.23333333333333334
            },
            {
              "pitch": 88,
              "velocity": 34,
              "position": 2.5416666666666665,
              "duration": 0.23333333333333334
            },
            {
              "pitch": 122,
              "velocity": 10,
              "position": 2.7708333333333335,
              "duration": 0.22083333333333333
            },
            {
              "pitch": 79,
              "velocity": 42,
              "position": 3,
              "duration": 0.23333333333333334
            },
            {
              "pitch": 83,
              "velocity": 42,
              "position": 3.0208333333333335,
              "duration": 0.23333333333333334
            },
            {
              "pitch": 106,
              "velocity": 78,
              "position": 3,
              "duration": 0.2625
            },
            {
              "pitch": 88,
              "velocity": 42,
              "position": 3.0416666666666665,
              "duration": 0.23333333333333334
            },
            {
              "pitch": 105,
              "velocity": 78,
              "position": 3.2708333333333335,
              "duration": 0.22083333333333333
            },
            {
              "pitch": 104,
              "velocity": 78,
              "position": 3.5,
              "duration": 0.2625
            },
            {
              "pitch": 103,
              "velocity": 78,
              "position": 3.7708333333333335,
              "duration": 0.22083333333333333
            }
          ]
        },
        "4": {
          "ctab": {
            "srcChannel": 4,
            "name": "Brs a",
            "accType": "PHRASE1",
            "editable": false,
            "mutedNotes": [],
            "mutedChords": [
              "7(b9)",
              "dim7",
              "minMaj7(9)",
              "minMaj7",
              "min6",
              "Maj6(9)",
              "Maj7(9)",
              "Maj(9)",
              "Maj7#11",
              "Maj7",
              "Maj6"
            ],
            "autoStart": false,
            "sourceChordNote": 0,
            "sourceChordType": "7th",
            "ctb2Low": null,
            "ctb2Main": {
              "ntr": "ROOT_TRANSPOSITION",
              "ntt": "MELODIC_MINOR_5",
              "bassOn": false,
              "chordRootUpperLimit": 5,
              "noteLowLimit": 34,
              "noteHighLimit": 127,
              "rtr": "PITCH_SHIFT"
            },
            "ctb2High": null
          },
          "notes": [
            {
              "pitch": 74,
              "velocity": 82,
              "position": 2,
              "duration": 0.22708333333333333
            },
            {
              "pitch": 75,
              "velocity": 82,
              "position": 2.091666666666667,
              "duration": 0.3854166666666667
            },
            {
              "pitch": 63,
              "velocity": 82,
              "position": 2.0104166666666665,
              "duration": 0.4791666666666667
            },
            {
              "pitch": 64,
              "velocity": 82,
              "position": 2.35,
              "duration": 0.20208333333333334
            },
            {
              "pitch": 84,
              "velocity": 82,
              "position": 3,
              "duration": 0.5333333333333333
            },
            {
              "pitch": 72,
              "velocity": 82,
              "position": 3,
              "duration": 0.54375
            },
            {
              "pitch": 60,
              "velocity": 82,
              "position": 3.0083333333333333,
              "duration": 0.55625
            }
          ]
        },
        "5": {
          "ctab": {
            "srcChannel": 5,
            "name": "Brs b",
            "accType": "PHRASE1",
            "editable": false,
            "mutedNotes": [],
            "mutedChords": [
              "1+2+5",
              "sus4",
              "1+5",
              "1+8",
              "7aug",
              "Maj7aug",
              "7(#9)",
              "7(b13)",
              "7(13)",
              "7#11",
              "7(9)",
              "7b5",
              "7sus4",
              "7th",
              "dim",
              "min7(11)",
              "min7(9)",
              "min(9)",
              "m7b5",
              "min7",
              "min",
              "aug",
              "Maj"
            ],
            "autoStart": false,
            "sourceChordNote": 0,
            "sourceChordType": "Maj7",
            "ctb2Low": null,
            "ctb2Main": {
              "ntr": "ROOT_TRANSPOSITION",
              "ntt": "MELODIC_MINOR_5",
              "bassOn": false,
              "chordRootUpperLimit": 5,
              "noteLowLimit": 34,
              "noteHighLimit": 127,
              "rtr": "PITCH_SHIFT"
            },
            "ctb2High": null
          },
          "notes": [
            {
              "pitch": 72,
              "velocity": 85,
              "position": 2,
              "duration": 0.46875
            },
            {
              "pitch": 60,
              "velocity": 85,
              "position": 2.0083333333333333,
              "duration": 0.48125
            },
            {
              "pitch": 84,
              "velocity": 88,
              "position": 3,
              "duration": 0.5270833333333333
            },
            {
              "pitch": 72,
              "velocity": 85,
              "position": 3,
              "duration": 0.5375
            },
            {
              "pitch": 60,
              "velocity": 85,
              "position": 3.0083333333333333,
              "duration": 0.55
            }
          ]
        },
        "6": {
          "ctab": {
            "srcChannel": 6,
            "name": "Hns a",
            "accType": "PHRASE2",
            "editable": false,
            "mutedNotes": [],
            "mutedChords": [
              "7(b9)",
              "dim7",
              "minMaj7(9)",
              "minMaj7",
              "min6",
              "Maj6(9)",
              "Maj7(9)",
              "Maj(9)",
              "Maj7#11",
              "Maj7",
              "Maj6"
            ],
            "autoStart": false,
            "sourceChordNote": 0,
            "sourceChordType": "7th",
            "ctb2Low": null,
            "ctb2Main": {
              "ntr": "ROOT_TRANSPOSITION",
              "ntt": "MELODIC_MINOR_5",
              "bassOn": false,
              "chordRootUpperLimit": 0,
              "noteLowLimit": 34,
              "noteHighLimit": 127,
              "rtr": "PITCH_SHIFT"
            },
            "ctb2High": null
          },
          "notes": [
            {
              "pitch": 74,
              "velocity": 51,
              "position": 2,
              "duration": 0.22708333333333333
            },
            {
              "pitch": 75,
              "velocity": 127,
              "position": 2.091666666666667,
              "duration": 0.3854166666666667
            },
            {
              "pitch": 87,
              "velocity": 123,
              "position": 2,
              "duration": 0.48125
            },
            {
              "pitch": 63,
              "velocity": 127,
              "position": 2.0104166666666665,
              "duration": 0.4791666666666667
            },
            {
              "pitch": 64,
              "velocity": 51,
              "position": 2.35,
              "duration": 0.20208333333333334
            },
            {
              "pitch": 84,
              "velocity": 123,
              "position": 3,
              "duration": 0.53125
            },
            {
              "pitch": 72,
              "velocity": 127,
              "position": 3,
              "duration": 0.54375
            },
            {
              "pitch": 60,
              "velocity": 127,
              "position": 3.0083333333333333,
              "duration": 0.55625
            }
          ]
        },
        "7": {
          "ctab": {
            "srcChannel": 7,
            "name": "Hns b",
            "accType": "PHRASE2",
            "editable": false,
            "mutedNotes": [],
            "mutedChords": [
              "1+2+5",
              "sus4",
              "1+5",
              "1+8",
              "7aug",
              "Maj7aug",
              "7(#9)",
              "7(b13)",
              "7(13)",
              "7#11",
              "7(9)",
              "7b5",
              "7sus4",
              "7th",
              "dim",
              "min7(11)",
              "min7(9)",
              "min(9)",
              "m7b5",
              "min7",
              "min",
              "aug",
              "Maj"
            ],
            "autoStart": false,
            "sourceChordNote": 0,
            "sourceChordType": "Maj7",
            "ctb2Low": null,
            "ctb2Main": {
              "ntr": "ROOT_TRANSPOSITION",
              "ntt": "MELODIC_MINOR_5",
              "bassOn": false,
              "chordRootUpperLimit": 0,
              "noteLowLimit": 34,
              "noteHighLimit": 127,
              "rtr": "PITCH_SHIFT"
            },
            "ctb2High": null
          },
          "notes": [
            {
              "pitch": 84,
              "velocity": 123,
              "position": 2,
              "duration": 0.4583333333333333
            },
            {
              "pitch": 72,
              "velocity": 127,
              "position": 2,
              "duration": 0.46875
            },
            {
              "pitch": 60,
              "velocity": 127,
              "position": 2.0083333333333333,
              "duration": 0.48125
            },
            {
              "pitch": 84,
              "velocity": 123,
              "position": 3,
              "duration": 0.5333333333333333
            },
            {
              "pitch": 72,
              "velocity": 127,
              "position": 3,
              "duration": 0.54375
            },
            {
              "pitch": 60,
              "velocity": 127,
              "position": 3.0083333333333333,
              "duration": 0.55625
            }
          ]
        },
        "8": {
          "ctab": {
            "srcChannel": 8,
            "name": "Perc.",
            "accType": "SUBRHYTHM",
            "editable": false,
            "mutedNotes": [],
            "mutedChords": [],
            "autoStart": true,
            "sourceChordNote": 0,
            "sourceChordType": "Maj7",
            "ctb2Low": null,
            "ctb2Main": {
              "ntr": "ROOT_FIXED",
              "ntt": "BYPASS",
              "bassOn": false,
              "chordRootUpperLimit": 6,
              "noteLowLimit": 0,
              "noteHighLimit": 127,
              "rtr": "PITCH_SHIFT"
            },
            "ctb2High": null
          },
          "notes": [
            {
              "pitch": 23,
              "velocity": 98,
              "position": 0.010416666666666666,
              "duration": 0.010416666666666666
            },
            {
              "pitch": 36,
              "velocity": 127,
              "position": 0.010416666666666666,
              "duration": 0.010416666666666666
            },
            {
              "pitch": 68,
              "velocity": 82,
              "position": 0.010416666666666666,
              "duration": 0.010416666666666666
            },
            {
              "pitch": 73,
              "velocity": 99,
              "position": 0.010416666666666666,
              "duration": 0.010416666666666666
            },
            {
              "pitch": 73,
              "velocity": 43,
              "position": 0.2375,
              "duration": 0.010416666666666666
            },
            {
              "pitch": 22,
              "velocity": 50,
              "position": 0.24583333333333332,
              "duration": 0.010416666666666666
            },
            {
              "pitch": 68,
              "velocity": 53,
              "position": 0.25,
              "duration": 0.010416666666666666
            },
            {
              "pitch": 40,
              "velocity": 40,
              "position": 0.2520833333333333,
              "duration": 0.010416666666666666
            },
            {
              "pitch": 73,
              "velocity": 74,
              "position": 0.49166666666666664,
              "duration": 0.010416666666666666
            },
            {
              "pitch": 39,
              "velocity": 70,
              "position": 0.5020833333333333,
              "duration": 0.010416666666666666
            },
            {
              "pitch": 28,
              "velocity": 93,
              "position": 0.5041666666666667,
              "duration": 0.010416666666666666
            },
            {
              "pitch": 68,
              "velocity": 102,
              "position": 0.5125,
              "duration": 0.010416666666666666
            },
            {
              "pitch": 68,
              "velocity": 48,
              "position": 0.7395833333333334,
              "duration": 0.010416666666666666
            },
            {
              "pitch": 22,
              "velocity": 50,
              "position": 0.7479166666666667,
              "duration": 0.010416666666666666
            },
            {
              "pitch": 37,
              "velocity": 50,
              "position": 0.7520833333333333,
              "duration": 0.010416666666666666
            },
            {
              "pitch": 73,
              "velocity": 50,
              "position": 0.7541666666666667,
              "duration": 0.010416666666666666
            },
            {
              "pitch": 68,
              "velocity": 83,
              "position": 0.99375,
              "duration": 0.010416666666666666
            },
            {
              "pitch": 38,
              "velocity": 127,
              "position": 1.0020833333333334,
              "duration": 0.010416666666666666
            },
            {
              "pitch": 73,
              "velocity": 99,
              "position": 1.0020833333333334,
              "duration": 0.010416666666666666
            },
            {
              "pitch": 23,
              "velocity": 100,
              "position": 1.0104166666666667,
              "duration": 0.010416666666666666
            },
            {
              "pitch": 18,
              "velocity": 82,
              "position": 1.0166666666666666,
              "duration": 0.010416666666666666
            },
            {
              "pitch": 73,
              "velocity": 51,
              "position": 1.2333333333333334,
              "duration": 0.010416666666666666
            },
            {
              "pitch": 22,
              "velocity": 50,
              "position": 1.2520833333333334,
              "duration": 0.010416666666666666
            },
            {
              "pitch": 40,
              "velocity": 30,
              "position": 1.2520833333333334,
              "duration": 0.010416666666666666
            },
            {
              "pitch": 68,
              "velocity": 53,
              "position": 1.2541666666666667,
              "duration": 0.010416666666666666
            },
            {
              "pitch": 73,
              "velocity": 79,
              "position": 1.4916666666666667,
              "duration": 0.010416666666666666
            },
            {
              "pitch": 24,
              "velocity": 99,
              "position": 1.5020833333333334,
              "duration": 0.010416666666666666
            },
            {
              "pitch": 42,
              "velocity": 127,
              "position": 1.5020833333333334,
              "duration": 0.010416666666666666
            },
            {
              "pitch": 68,
              "velocity": 99,
              "position": 1.5020833333333334,
              "duration": 0.010416666666666666
            },
            {
              "pitch": 68,
              "velocity": 52,
              "position": 1.7333333333333334,
              "duration": 0.010416666666666666
            },
            {
              "pitch": 25,
              "velocity": 98,
              "position": 1.7520833333333334,
              "duration": 0.010416666666666666
            },
            {
              "pitch": 40,
              "velocity": 30,
              "position": 1.7520833333333334,
              "duration": 0.010416666666666666
            },
            {
              "pitch": 73,
              "velocity": 46,
              "position": 1.75625,
              "duration": 0.010416666666666666
            },
            {
              "pitch": 68,
              "velocity": 86,
              "position": 1.9895833333333333,
              "duration": 0.010416666666666666
            },
            {
              "pitch": 36,
              "velocity": 127,
              "position": 2.002083333333333,
              "duration": 0.010416666666666666
            },
            {
              "pitch": 73,
              "velocity": 93,
              "position": 2.0104166666666665,
              "duration": 0.010416666666666666
            },
            {
              "pitch": 23,
              "velocity": 101,
              "position": 2.0166666666666666,
              "duration": 0.010416666666666666
            },
            {
              "pitch": 73,
              "velocity": 43,
              "position": 2.24375,
              "duration": 0.010416666666666666
            },
            {
              "pitch": 40,
              "velocity": 40,
              "position": 2.252083333333333,
              "duration": 0.010416666666666666
            },
            {
              "pitch": 22,
              "velocity": 50,
              "position": 2.254166666666667,
              "duration": 0.010416666666666666
            },
            {
              "pitch": 68,
              "velocity": 55,
              "position": 2.254166666666667,
              "duration": 0.010416666666666666
            },
            {
              "pitch": 73,
              "velocity": 78,
              "position": 2.4875,
              "duration": 0.010416666666666666
            },
            {
              "pitch": 39,
              "velocity": 70,
              "position": 2.502083333333333,
              "duration": 0.010416666666666666
            },
            {
              "pitch": 68,
              "velocity": 98,
              "position": 2.50625,
              "duration": 0.010416666666666666
            },
            {
              "pitch": 28,
              "velocity": 99,
              "position": 2.5145833333333334,
              "duration": 0.010416666666666666
            },
            {
              "pitch": 18,
              "velocity": 82,
              "position": 2.5208333333333335,
              "duration": 0.010416666666666666
            },
            {
              "pitch": 68,
              "velocity": 51,
              "position": 2.7395833333333335,
              "duration": 0.010416666666666666
            },
            {
              "pitch": 22,
              "velocity": 50,
              "position": 2.75,
              "duration": 0.010416666666666666
            },
            {
              "pitch": 37,
              "velocity": 50,
              "position": 2.752083333333333,
              "duration": 0.010416666666666666
            },
            {
              "pitch": 73,
              "velocity": 44,
              "position": 2.754166666666667,
              "duration": 0.010416666666666666
            },
            {
              "pitch": 68,
              "velocity": 82,
              "position": 2.98125,
              "duration": 0.010416666666666666
            },
            {
              "pitch": 18,
              "velocity": 82,
              "position": 2.99375,
              "duration": 0.010416666666666666
            },
            {
              "pitch": 38,
              "velocity": 127,
              "position": 3.002083333333333,
              "duration": 0.010416666666666666
            },
            {
              "pitch": 73,
              "velocity": 97,
              "position": 3.0125,
              "duration": 0.010416666666666666
            },
            {
              "pitch": 23,
              "velocity": 100,
              "position": 3.0166666666666666,
              "duration": 0.010416666666666666
            },
            {
              "pitch": 73,
              "velocity": 47,
              "position": 3.2291666666666665,
              "duration": 0.010416666666666666
            },
            {
              "pitch": 68,
              "velocity": 50,
              "position": 3.247916666666667,
              "duration": 0.010416666666666666
            },
            {
              "pitch": 22,
              "velocity": 50,
              "position": 3.25,
              "duration": 0.010416666666666666
            },
            {
              "pitch": 36,
              "velocity": 69,
              "position": 3.252083333333333,
              "duration": 0.010416666666666666
            },
            {
              "pitch": 73,
              "velocity": 79,
              "position": 3.497916666666667,
              "duration": 0.010416666666666666
            },
            {
              "pitch": 43,
              "velocity": 127,
              "position": 3.502083333333333,
              "duration": 0.010416666666666666
            },
            {
              "pitch": 31,
              "velocity": 93,
              "position": 3.504166666666667,
              "duration": 0.010416666666666666
            },
            {
              "pitch": 68,
              "velocity": 100,
              "position": 3.50625,
              "duration": 0.010416666666666666
            },
            {
              "pitch": 68,
              "velocity": 52,
              "position": 3.7416666666666667,
              "duration": 0.010416666666666666
            },
            {
              "pitch": 73,
              "velocity": 44,
              "position": 3.747916666666667,
              "duration": 0.010416666666666666
            },
            {
              "pitch": 40,
              "velocity": 30,
              "position": 3.752083333333333,
              "duration": 0.010416666666666666
            },
            {
              "pitch": 31,
              "velocity": 64,
              "position": 3.7645833333333334,
              "duration": 0.010416666666666666
            }
          ]
        },
        "9": {
          "ctab": {
            "srcChannel": 9,
            "name": "Drums",
            "accType": "RHYTHM",
            "editable": false,
            "mutedNotes": [],
            "mutedChords": [],
            "autoStart": true,
            "sourceChordNote": 0,
            "sourceChordType": "Maj7",
            "ctb2Low": null,
            "ctb2Main": {
              "ntr": "ROOT_FIXED",
              "ntt": "BYPASS",
              "bassOn": false,
              "chordRootUpperLimit": 6,
              "noteLowLimit": 0,
              "noteHighLimit": 127,
              "rtr": "PITCH_SHIFT"
            },
            "ctb2High": null
          },
          "notes": [
            {
              "pitch": 35,
              "velocity": 100,
              "position": 0,
              "duration": 0.010416666666666666
            },
            {
              "pitch": 44,
              "velocity": 38,
              "position": 0.0020833333333333333,
              "duration": 0.010416666666666666
            },
            {
              "pitch": 46,
              "velocity": 63,
              "position": 0.5083333333333333,
              "duration": 0.010416666666666666
            },
            {
              "pitch": 38,
              "velocity": 33,
              "position": 0.6166666666666667,
              "duration": 0.010416666666666666
            },
            {
              "pitch": 38,
              "velocity": 50,
              "position": 0.75,
              "duration": 0.010416666666666666
            },
            {
              "pitch": 38,
              "velocity": 73,
              "position": 0.875,
              "duration": 0.010416666666666666
            },
            {
              "pitch": 38,
              "velocity": 105,
              "position": 1,
              "duration": 0.010416666666666666
            },
            {
              "pitch": 46,
              "velocity": 69,
              "position": 1.2479166666666666,
              "duration": 0.010416666666666666
            },
            {
              "pitch": 35,
              "velocity": 100,
              "position": 1.25,
              "duration": 0.010416666666666666
            },
            {
              "pitch": 38,
              "velocity": 45,
              "position": 1.4916666666666667,
              "duration": 0.010416666666666666
            },
            {
              "pitch": 44,
              "velocity": 41,
              "position": 1.4916666666666667,
              "duration": 0.010416666666666666
            },
            {
              "pitch": 38,
              "velocity": 85,
              "position": 1.75,
              "duration": 0.010416666666666666
            },
            {
              "pitch": 38,
              "velocity": 105,
              "position": 2,
              "duration": 0.010416666666666666
            },
            {
              "pitch": 35,
              "velocity": 100,
              "position": 2.25,
              "duration": 0.010416666666666666
            },
            {
              "pitch": 46,
              "velocity": 60,
              "position": 2.25,
              "duration": 0.010416666666666666
            },
            {
              "pitch": 38,
              "velocity": 45,
              "position": 2.4916666666666667,
              "duration": 0.010416666666666666
            },
            {
              "pitch": 44,
              "velocity": 40,
              "position": 2.49375,
              "duration": 0.010416666666666666
            },
            {
              "pitch": 38,
              "velocity": 85,
              "position": 2.75,
              "duration": 0.010416666666666666
            },
            {
              "pitch": 38,
              "velocity": 105,
              "position": 3,
              "duration": 0.010416666666666666
            },
            {
              "pitch": 35,
              "velocity": 100,
              "position": 3.25,
              "duration": 0.010416666666666666
            },
            {
              "pitch": 46,
              "velocity": 63,
              "position": 3.25,
              "duration": 0.010416666666666666
            },
            {
              "pitch": 49,
              "velocity": 73,
              "position": 3.9895833333333335,
              "duration": 0.010416666666666666
            }
          ]
        },
        "10": {
          "ctab": {
            "srcChannel": 10,
            "name": "Bass FX",
            "accType": "BASS",
            "editable": false,
            "mutedNotes": [],
            "mutedChords": [],
            "autoStart": false,
            "sourceChordNote": 0,
            "sourceChordType": "7th",
            "ctb2Low": null,
            "ctb2Main": {
              "ntr": "ROOT_FIXED",
              "ntt": "BYPASS",
              "bassOn": false,
              "chordRootUpperLimit": 7,
              "noteLowLimit": 0,
              "noteHighLimit": 127,
              "rtr": "PITCH_SHIFT"
            },
            "ctb2High": null
          },
          "notes": [
            {
              "pitch": 96,
              "velocity": 84,
              "position": 2.2708333333333335,
              "duration": 0.4708333333333333
            },
            {
              "pitch": 102,
              "velocity": 100,
              "position": 2.7708333333333335,
              "duration": 0.4708333333333333
            },
            {
              "pitch": 96,
              "velocity": 100,
              "position": 3.25,
              "duration": 0.7395833333333334
            }
          ]
        },
        "11": {
          "ctab": {
            "srcChannel": 11,
            "name": "Bass a",
            "accType": "BASS",
            "editable": false,
            "mutedNotes": [],
            "mutedChords": [
              "1+2+5",
              "sus4",
              "1+5",
              "1+8",
              "7aug",
              "Maj7aug",
              "7(#9)",
              "7(b13)",
              "7(b9)",
              "7(13)",
              "7#11",
              "7(9)",
              "7b5",
              "7sus4",
              "dim7",
              "dim",
              "minMaj7(9)",
              "minMaj7",
              "min7(11)",
              "min7(9)",
              "min(9)",
              "m7b5",
              "min7",
              "min6",
              "aug",
              "Maj6(9)",
              "Maj7(9)",
              "Maj(9)",
              "Maj7#11",
              "Maj7",
              "Maj6"
            ],
            "autoStart": false,
            "sourceChordNote": 0,
            "sourceChordType": "7th",
            "ctb2Low": null,
            "ctb2Main": {
              "ntr": "ROOT_TRANSPOSITION",
              "ntt": "MELODIC_MINOR_5",
              "bassOn": true,
              "chordRootUpperLimit": 8,
              "noteLowLimit": 28,
              "noteHighLimit": 127,
              "rtr": "PITCH_SHIFT_TO_ROOT"
            },
            "ctb2High": null
          },
          "notes": [
            {
              "pitch": 36,
              "velocity": 70,
              "position": 0,
              "duration": 0.4479166666666667
            },
            {
              "pitch": 36,
              "velocity": 100,
              "position": 0.5208333333333334,
              "duration": 0.21875
            },
            {
              "pitch": 36,
              "velocity": 70,
              "position": 0.7708333333333334,
              "duration": 0.21875
            },
            {
              "pitch": 43,
              "velocity": 100,
              "position": 1.0208333333333333,
              "duration": 0.21875
            },
            {
              "pitch": 48,
              "velocity": 100,
              "position": 1.0208333333333333,
              "duration": 0.21875
            },
            {
              "pitch": 36,
              "velocity": 39,
              "position": 1.2708333333333333,
              "duration": 0.041666666666666664
            },
            {
              "pitch": 31,
              "velocity": 60,
              "position": 1.5,
              "duration": 0.17291666666666666
            },
            {
              "pitch": 34,
              "velocity": 50,
              "position": 1.7708333333333333,
              "duration": 0.17291666666666666
            },
            {
              "pitch": 36,
              "velocity": 70,
              "position": 2,
              "duration": 0.20416666666666666
            },
            {
              "pitch": 31,
              "velocity": 38,
              "position": 2.25,
              "duration": 0.49166666666666664
            }
          ]
        },
        "12": {
          "ctab": {
            "srcChannel": 12,
            "name": "Bass b",
            "accType": "BASS",
            "editable": false,
            "mutedNotes": [],
            "mutedChords": [
              "7th",
              "min",
              "Maj"
            ],
            "autoStart": false,
            "sourceChordNote": 0,
            "sourceChordType": "Maj7",
            "ctb2Low": null,
            "ctb2Main": {
              "ntr": "ROOT_TRANSPOSITION",
              "ntt": "MELODY",
              "bassOn": true,
              "chordRootUpperLimit": 8,
              "noteLowLimit": 28,
              "noteHighLimit": 127,
              "rtr": "PITCH_SHIFT_TO_ROOT"
            },
            "ctb2High": null
          },
          "notes": [
            {
              "pitch": 24,
              "velocity": 70,
              "position": 0,
              "duration": 0.4479166666666667
            },
            {
              "pitch": 24,
              "velocity": 100,
              "position": 0.5208333333333334,
              "duration": 0.21875
            },
            {
              "pitch": 24,
              "velocity": 70,
              "position": 0.7708333333333334,
              "duration": 0.21875
            },
            {
              "pitch": 43,
              "velocity": 100,
              "position": 1.0208333333333333,
              "duration": 0.21875
            },
            {
              "pitch": 48,
              "velocity": 100,
              "position": 1.0208333333333333,
              "duration": 0.21875
            },
            {
              "pitch": 24,
              "velocity": 39,
              "position": 1.2708333333333333,
              "duration": 0.041666666666666664
            },
            {
              "pitch": 24,
              "velocity": 60,
              "position": 1.5,
              "duration": 0.17291666666666666
            },
            {
              "pitch": 24,
              "velocity": 50,
              "position": 1.7708333333333333,
              "duration": 0.17291666666666666
            },
            {
              "pitch": 24,
              "velocity": 70,
              "position": 2,
              "duration": 0.24166666666666667
            },
            {
              "pitch": 31,
              "velocity": 38,
              "position": 2.25,
              "duration": 0.49166666666666664
            }
          ]
        },
        "13": {
          "ctab": {
            "srcChannel": 13,
            "name": "EP Maj",
            "accType": "CHORD2",
            "editable": false,
            "mutedNotes": [],
            "mutedChords": [
              "1+2+5",
              "sus4",
              "1+5",
              "1+8",
              "7aug",
              "Maj7aug",
              "7(#9)",
              "7(b13)",
              "7(b9)",
              "7(13)",
              "7#11",
              "7(9)",
              "7b5",
              "7sus4",
              "dim7",
              "dim",
              "minMaj7(9)",
              "minMaj7",
              "min7(11)",
              "min7(9)",
              "min(9)",
              "m7b5",
              "min7",
              "min6",
              "min",
              "aug",
              "Maj6(9)",
              "Maj7(9)",
              "Maj(9)",
              "Maj7#11",
              "Maj7",
              "Maj6"
            ],
            "autoStart": false,
            "sourceChordNote": 0,
            "sourceChordType": "7th",
            "ctb2Low": null,
            "ctb2Main": {
              "ntr": "ROOT_TRANSPOSITION",
              "ntt": "MELODIC_MINOR_5",
              "bassOn": false,
              "chordRootUpperLimit": 8,
              "noteLowLimit": 40,
              "noteHighLimit": 66,
              "rtr": "PITCH_SHIFT"
            },
            "ctb2High": null
          },
          "notes": [
            {
              "pitch": 74,
              "velocity": 122,
              "position": 0.010416666666666666,
              "duration": 0.4791666666666667
            },
            {
              "pitch": 67,
              "velocity": 122,
              "position": 0.010416666666666666,
              "duration": 0.48333333333333334
            },
            {
              "pitch": 76,
              "velocity": 97,
              "position": 0.010416666666666666,
              "duration": 0.48333333333333334
            },
            {
              "pitch": 70,
              "velocity": 118,
              "position": 0.010416666666666666,
              "duration": 0.49166666666666664
            },
            {
              "pitch": 24,
              "velocity": 127,
              "position": 0.5041666666666667,
              "duration": 0.10416666666666667
            },
            {
              "pitch": 31,
              "velocity": 33,
              "position": 0.5041666666666667,
              "duration": 0.10416666666666667
            },
            {
              "pitch": 67,
              "velocity": 92,
              "position": 0.7666666666666667,
              "duration": 0.15625
            },
            {
              "pitch": 70,
              "velocity": 97,
              "position": 0.7708333333333334,
              "duration": 0.15625
            },
            {
              "pitch": 74,
              "velocity": 96,
              "position": 0.7708333333333334,
              "duration": 0.15625
            },
            {
              "pitch": 76,
              "velocity": 79,
              "position": 0.775,
              "duration": 0.15625
            },
            {
              "pitch": 74,
              "velocity": 106,
              "position": 1.2645833333333334,
              "duration": 0.15625
            },
            {
              "pitch": 67,
              "velocity": 106,
              "position": 1.2708333333333333,
              "duration": 0.15625
            },
            {
              "pitch": 70,
              "velocity": 106,
              "position": 1.2770833333333333,
              "duration": 0.15625
            },
            {
              "pitch": 76,
              "velocity": 81,
              "position": 1.2770833333333333,
              "duration": 0.15625
            },
            {
              "pitch": 24,
              "velocity": 127,
              "position": 1.7708333333333333,
              "duration": 0.10416666666666667
            },
            {
              "pitch": 31,
              "velocity": 33,
              "position": 1.7729166666666667,
              "duration": 0.10416666666666667
            },
            {
              "pitch": 70,
              "velocity": 118,
              "position": 1.99375,
              "duration": 0.7291666666666666
            },
            {
              "pitch": 76,
              "velocity": 97,
              "position": 1.9916666666666667,
              "duration": 0.7375
            },
            {
              "pitch": 74,
              "velocity": 120,
              "position": 1.9958333333333333,
              "duration": 0.7375
            },
            {
              "pitch": 67,
              "velocity": 122,
              "position": 2,
              "duration": 0.7354166666666667
            },
            {
              "pitch": 24,
              "velocity": 127,
              "position": 2.7729166666666667,
              "duration": 0.10416666666666667
            },
            {
              "pitch": 31,
              "velocity": 33,
              "position": 2.779166666666667,
              "duration": 0.10416666666666667
            },
            {
              "pitch": 76,
              "velocity": 96,
              "position": 3,
              "duration": 0.7375
            },
            {
              "pitch": 70,
              "velocity": 120,
              "position": 3.002083333333333,
              "duration": 0.7458333333333333
            },
            {
              "pitch": 74,
              "velocity": 121,
              "position": 3,
              "duration": 0.75
            },
            {
              "pitch": 67,
              "velocity": 122,
              "position": 3.004166666666667,
              "duration": 0.7479166666666667
            },
            {
              "pitch": 31,
              "velocity": 33,
              "position": 3.7708333333333335,
              "duration": 0.10416666666666667
            },
            {
              "pitch": 24,
              "velocity": 127,
              "position": 3.779166666666667,
              "duration": 0.10416666666666667
            }
          ]
        },
        "14": {
          "ctab": {
            "srcChannel": 14,
            "name": "EP Min",
            "accType": "CHORD2",
            "editable": false,
            "mutedNotes": [],
            "mutedChords": [
              "1+2+5",
              "sus4",
              "1+5",
              "1+8",
              "7aug",
              "Maj7aug",
              "7(#9)",
              "7(b13)",
              "7(b9)",
              "7(13)",
              "7#11",
              "7(9)",
              "7b5",
              "7sus4",
              "7th",
              "dim7",
              "dim",
              "minMaj7(9)",
              "minMaj7",
              "min7(11)",
              "min7(9)",
              "min(9)",
              "m7b5",
              "min7",
              "min6",
              "aug",
              "Maj6(9)",
              "Maj7(9)",
              "Maj(9)",
              "Maj7#11",
              "Maj7",
              "Maj6",
              "Maj"
            ],
            "autoStart": false,
            "sourceChordNote": 0,
            "sourceChordType": "min7",
            "ctb2Low": null,
            "ctb2Main": {
              "ntr": "ROOT_TRANSPOSITION",
              "ntt": "MELODIC_MINOR_5",
              "bassOn": false,
              "chordRootUpperLimit": 8,
              "noteLowLimit": 40,
              "noteHighLimit": 66,
              "rtr": "PITCH_SHIFT"
            },
            "ctb2High": null
          },
          "notes": [
            {
              "pitch": 74,
              "velocity": 127,
              "position": 0.010416666666666666,
              "duration": 0.4791666666666667
            },
            {
              "pitch": 67,
              "velocity": 127,
              "position": 0.010416666666666666,
              "duration": 0.48333333333333334
            },
            {
              "pitch": 75,
              "velocity": 101,
              "position": 0.010416666666666666,
              "duration": 0.48333333333333334
            },
            {
              "pitch": 70,
              "velocity": 123,
              "position": 0.010416666666666666,
              "duration": 0.49166666666666664
            },
            {
              "pitch": 24,
              "velocity": 127,
              "position": 0.5041666666666667,
              "duration": 0.10416666666666667
            },
            {
              "pitch": 31,
              "velocity": 28,
              "position": 0.5041666666666667,
              "duration": 0.10416666666666667
            },
            {
              "pitch": 67,
              "velocity": 96,
              "position": 0.7666666666666667,
              "duration": 0.15625
            },
            {
              "pitch": 70,
              "velocity": 101,
              "position": 0.7708333333333334,
              "duration": 0.15625
            },
            {
              "pitch": 74,
              "velocity": 99,
              "position": 0.7708333333333334,
              "duration": 0.15625
            },
            {
              "pitch": 75,
              "velocity": 83,
              "position": 0.775,
              "duration": 0.15625
            },
            {
              "pitch": 74,
              "velocity": 110,
              "position": 1.2645833333333334,
              "duration": 0.15625
            },
            {
              "pitch": 67,
              "velocity": 110,
              "position": 1.2708333333333333,
              "duration": 0.15625
            },
            {
              "pitch": 70,
              "velocity": 110,
              "position": 1.2770833333333333,
              "duration": 0.15625
            },
            {
              "pitch": 75,
              "velocity": 85,
              "position": 1.2770833333333333,
              "duration": 0.15625
            },
            {
              "pitch": 24,
              "velocity": 127,
              "position": 1.7708333333333333,
              "duration": 0.10416666666666667
            },
            {
              "pitch": 31,
              "velocity": 28,
              "position": 1.7729166666666667,
              "duration": 0.10416666666666667
            },
            {
              "pitch": 70,
              "velocity": 124,
              "position": 1.99375,
              "duration": 0.7291666666666666
            },
            {
              "pitch": 75,
              "velocity": 101,
              "position": 1.9916666666666667,
              "duration": 0.7375
            },
            {
              "pitch": 74,
              "velocity": 125,
              "position": 1.9958333333333333,
              "duration": 0.7375
            },
            {
              "pitch": 67,
              "velocity": 127,
              "position": 2,
              "duration": 0.7354166666666667
            },
            {
              "pitch": 24,
              "velocity": 127,
              "position": 2.7729166666666667,
              "duration": 0.10416666666666667
            },
            {
              "pitch": 31,
              "velocity": 28,
              "position": 2.779166666666667,
              "duration": 0.10416666666666667
            },
            {
              "pitch": 75,
              "velocity": 99,
              "position": 3,
              "duration": 0.7375
            },
            {
              "pitch": 70,
              "velocity": 125,
              "position": 3.002083333333333,
              "duration": 0.7458333333333333
            },
            {
              "pitch": 74,
              "velocity": 126,
              "position": 3,
              "duration": 0.75
            },
            {
              "pitch": 67,
              "velocity": 127,
              "position": 3.004166666666667,
              "duration": 0.7479166666666667
            },
            {
              "pitch": 31,
              "velocity": 28,
              "position": 3.7708333333333335,
              "duration": 0.10416666666666667
            },
            {
              "pitch": 24,
              "velocity": 127,
              "position": 3.779166666666667,
              "duration": 0.10416666666666667
            }
          ]
        },
        "15": {
          "ctab": {
            "srcChannel": 15,
            "name": "EP",
            "accType": "CHORD2",
            "editable": false,
            "mutedNotes": [],
            "mutedChords": [
              "7th",
              "min",
              "Maj"
            ],
            "autoStart": false,
            "sourceChordNote": 0,
            "sourceChordType": "Maj7",
            "ctb2Low": null,
            "ctb2Main": {
              "ntr": "ROOT_TRANSPOSITION",
              "ntt": "CHORD",
              "bassOn": false,
              "chordRootUpperLimit": 8,
              "noteLowLimit": 40,
              "noteHighLimit": 66,
              "rtr": "PITCH_SHIFT"
            },
            "ctb2High": null
          },
          "notes": [
            {
              "pitch": 76,
              "velocity": 127,
              "position": 0.010416666666666666,
              "duration": 0.4791666666666667
            },
            {
              "pitch": 67,
              "velocity": 127,
              "position": 0.010416666666666666,
              "duration": 0.48333333333333334
            },
            {
              "pitch": 71,
              "velocity": 123,
              "position": 0.010416666666666666,
              "duration": 0.49166666666666664
            },
            {
              "pitch": 24,
              "velocity": 127,
              "position": 0.5041666666666667,
              "duration": 0.10416666666666667
            },
            {
              "pitch": 67,
              "velocity": 96,
              "position": 0.7666666666666667,
              "duration": 0.15625
            },
            {
              "pitch": 71,
              "velocity": 101,
              "position": 0.7708333333333334,
              "duration": 0.15625
            },
            {
              "pitch": 76,
              "velocity": 99,
              "position": 0.7708333333333334,
              "duration": 0.15625
            },
            {
              "pitch": 76,
              "velocity": 110,
              "position": 1.2645833333333334,
              "duration": 0.15625
            },
            {
              "pitch": 67,
              "velocity": 110,
              "position": 1.2708333333333333,
              "duration": 0.15625
            },
            {
              "pitch": 71,
              "velocity": 110,
              "position": 1.2770833333333333,
              "duration": 0.15625
            },
            {
              "pitch": 24,
              "velocity": 127,
              "position": 1.7708333333333333,
              "duration": 0.10416666666666667
            },
            {
              "pitch": 71,
              "velocity": 124,
              "position": 1.99375,
              "duration": 0.7291666666666666
            },
            {
              "pitch": 76,
              "velocity": 125,
              "position": 1.9958333333333333,
              "duration": 0.7375
            },
            {
              "pitch": 67,
              "velocity": 127,
              "position": 2,
              "duration": 0.7354166666666667
            },
            {
              "pitch": 24,
              "velocity": 127,
              "position": 2.7729166666666667,
              "duration": 0.10416666666666667
            },
            {
              "pitch": 71,
              "velocity": 125,
              "position": 3.002083333333333,
              "duration": 0.7458333333333333
            },
            {
              "pitch": 76,
              "velocity": 126,
              "position": 3,
              "duration": 0.75
            },
            {
              "pitch": 67,
              "velocity": 127,
              "position": 3.004166666666667,
              "duration": 0.7479166666666667
            },
            {
              "pitch": 24,
              "velocity": 127,
              "position": 3.779166666666667,
              "duration": 0.10416666666666667
            }
          ]
        }
      }
    },
    "Intro_B": {
      "type": "Intro_B",
      "sizeInBeats": 32,
      "channels": {
        "1": {
          "ctab": {
            "srcChannel": 1,
            "name": "Gtr  Maj",
            "accType": "CHORD1",
            "editable": false,
            "mutedNotes": [],
            "mutedChords": [
              "dim7",
              "dim",
              "minMaj7(9)",
              "minMaj7",
              "min7(11)",
              "min7(9)",
              "min(9)",
              "m7b5",
              "min7",
              "min6",
              "min"
            ],
            "autoStart": false,
            "sourceChordNote": 0,
            "sourceChordType": "Maj",
            "ctb2Low": null,
            "ctb2Main": {
              "ntr": "ROOT_TRANSPOSITION",
              "ntt": "BYPASS",
              "bassOn": false,
              "chordRootUpperLimit": 3,
              "noteLowLimit": 54,
              "noteHighLimit": 77,
              "rtr": "PITCH_SHIFT"
            },
            "ctb2High": null
          },
          "notes": [
            {
              "pitch": 43,
              "velocity": 30,
              "position": 16,
              "duration": 3.7416666666666667
            },
            {
              "pitch": 46,
              "velocity": 30,
              "position": 16,
              "duration": 3.7416666666666667
            },
            {
              "pitch": 48,
              "velocity": 30,
              "position": 16,
              "duration": 3.7416666666666667
            },
            {
              "pitch": 53,
              "velocity": 30,
              "position": 16,
              "duration": 3.7416666666666667
            },
            {
              "pitch": 43,
              "velocity": 30,
              "position": 20,
              "duration": 3.7416666666666667
            },
            {
              "pitch": 46,
              "velocity": 30,
              "position": 20,
              "duration": 3.7416666666666667
            },
            {
              "pitch": 48,
              "velocity": 30,
              "position": 20,
              "duration": 3.7416666666666667
            },
            {
              "pitch": 52,
              "velocity": 30,
              "position": 20,
              "duration": 3.7416666666666667
            },
            {
              "pitch": 43,
              "velocity": 30,
              "position": 24,
              "duration": 3.7416666666666667
            },
            {
              "pitch": 46,
              "velocity": 30,
              "position": 24,
              "duration": 3.7416666666666667
            },
            {
              "pitch": 48,
              "velocity": 30,
              "position": 24,
              "duration": 3.7416666666666667
            },
            {
              "pitch": 53,
              "velocity": 30,
              "position": 24,
              "duration": 3.7416666666666667
            },
            {
              "pitch": 43,
              "velocity": 30,
              "position": 28,
              "duration": 3.745833333333333
            },
            {
              "pitch": 46,
              "velocity": 30,
              "position": 28,
              "duration": 3.745833333333333
            },
            {
              "pitch": 48,
              "velocity": 30,
              "position": 28,
              "duration": 3.745833333333333
            },
            {
              "pitch": 52,
              "velocity": 30,
              "position": 28,
              "duration": 3.745833333333333
            }
          ]
        },
        "2": {
          "ctab": {
            "srcChannel": 2,
            "name": "Gtr  min",
            "accType": "CHORD1",
            "editable": false,
            "mutedNotes": [],
            "mutedChords": [
              "1+2+5",
              "sus4",
              "1+5",
              "1+8",
              "7aug",
              "Maj7aug",
              "7(#9)",
              "7(b13)",
              "7(b9)",
              "7(13)",
              "7#11",
              "7(9)",
              "7b5",
              "7sus4",
              "7th",
              "aug",
              "Maj6(9)",
              "Maj7(9)",
              "Maj(9)",
              "Maj7#11",
              "Maj7",
              "Maj6",
              "Maj"
            ],
            "autoStart": false,
            "sourceChordNote": 0,
            "sourceChordType": "min",
            "ctb2Low": null,
            "ctb2Main": {
              "ntr": "ROOT_TRANSPOSITION",
              "ntt": "BYPASS",
              "bassOn": false,
              "chordRootUpperLimit": 3,
              "noteLowLimit": 54,
              "noteHighLimit": 77,
              "rtr": "PITCH_SHIFT"
            },
            "ctb2High": null
          },
          "notes": [
            {
              "pitch": 58,
              "velocity": 30,
              "position": 16,
              "duration": 3.7416666666666667
            },
            {
              "pitch": 60,
              "velocity": 30,
              "position": 16,
              "duration": 3.7416666666666667
            },
            {
              "pitch": 63,
              "velocity": 30,
              "position": 16,
              "duration": 3.7416666666666667
            },
            {
              "pitch": 67,
              "velocity": 30,
              "position": 16,
              "duration": 3.7416666666666667
            },
            {
              "pitch": 57,
              "velocity": 30,
              "position": 20,
              "duration": 3.7416666666666667
            },
            {
              "pitch": 60,
              "velocity": 30,
              "position": 20,
              "duration": 3.7416666666666667
            },
            {
              "pitch": 65,
              "velocity": 30,
              "position": 20,
              "duration": 3.7416666666666667
            },
            {
              "pitch": 67,
              "velocity": 30,
              "position": 20,
              "duration": 3.7416666666666667
            },
            {
              "pitch": 58,
              "velocity": 30,
              "position": 24,
              "duration": 3.7416666666666667
            },
            {
              "pitch": 60,
              "velocity": 30,
              "position": 24,
              "duration": 3.7416666666666667
            },
            {
              "pitch": 63,
              "velocity": 30,
              "position": 24,
              "duration": 3.7416666666666667
            },
            {
              "pitch": 67,
              "velocity": 30,
              "position": 24,
              "duration": 3.7416666666666667
            },
            {
              "pitch": 57,
              "velocity": 30,
              "position": 28,
              "duration": 3.745833333333333
            },
            {
              "pitch": 60,
              "velocity": 30,
              "position": 28,
              "duration": 3.745833333333333
            },
            {
              "pitch": 65,
              "velocity": 30,
              "position": 28,
              "duration": 3.745833333333333
            },
            {
              "pitch": 67,
              "velocity": 30,
              "position": 28,
              "duration": 3.745833333333333
            }
          ]
        },
        "4": {
          "ctab": {
            "srcChannel": 4,
            "name": "Brs  Maj",
            "accType": "PHRASE1",
            "editable": false,
            "mutedNotes": [],
            "mutedChords": [
              "dim7",
              "dim",
              "minMaj7(9)",
              "minMaj7",
              "min7(11)",
              "min7(9)",
              "min(9)",
              "m7b5",
              "min7",
              "min6",
              "min"
            ],
            "autoStart": false,
            "sourceChordNote": 0,
            "sourceChordType": "Maj",
            "ctb2Low": null,
            "ctb2Main": {
              "ntr": "ROOT_TRANSPOSITION",
              "ntt": "BYPASS",
              "bassOn": false,
              "chordRootUpperLimit": 4,
              "noteLowLimit": 34,
              "noteHighLimit": 127,
              "rtr": "PITCH_SHIFT"
            },
            "ctb2High": null
          },
          "notes": [
            {
              "pitch": 72,
              "velocity": 87,
              "position": 31.0125,
              "duration": 0.3416666666666667
            },
            {
              "pitch": 60,
              "velocity": 87,
              "position": 31.041666666666668,
              "duration": 0.36666666666666664
            },
            {
              "pitch": 84,
              "velocity": 90,
              "position": 31.041666666666668,
              "duration": 0.4708333333333333
            },
            {
              "pitch": 76,
              "velocity": 87,
              "position": 31.029166666666665,
              "duration": 0.5583333333333333
            }
          ]
        },
        "5": {
          "ctab": {
            "srcChannel": 5,
            "name": "Brs  min",
            "accType": "PHRASE1",
            "editable": false,
            "mutedNotes": [],
            "mutedChords": [
              "1+2+5",
              "sus4",
              "1+5",
              "1+8",
              "7aug",
              "Maj7aug",
              "7(#9)",
              "7(b13)",
              "7(b9)",
              "7(13)",
              "7#11",
              "7(9)",
              "7b5",
              "7sus4",
              "7th",
              "aug",
              "Maj6(9)",
              "Maj7(9)",
              "Maj(9)",
              "Maj7#11",
              "Maj7",
              "Maj6",
              "Maj"
            ],
            "autoStart": false,
            "sourceChordNote": 0,
            "sourceChordType": "min",
            "ctb2Low": null,
            "ctb2Main": {
              "ntr": "ROOT_TRANSPOSITION",
              "ntt": "BYPASS",
              "bassOn": false,
              "chordRootUpperLimit": 4,
              "noteLowLimit": 34,
              "noteHighLimit": 127,
              "rtr": "PITCH_SHIFT"
            },
            "ctb2High": null
          },
          "notes": [
            {
              "pitch": 60,
              "velocity": 87,
              "position": 31.041666666666668,
              "duration": 0.44166666666666665
            },
            {
              "pitch": 72,
              "velocity": 87,
              "position": 31.029166666666665,
              "duration": 0.45416666666666666
            },
            {
              "pitch": 84,
              "velocity": 90,
              "position": 31.041666666666668,
              "duration": 0.44166666666666665
            }
          ]
        },
        "6": {
          "ctab": {
            "srcChannel": 6,
            "name": "Hns  Maj",
            "accType": "PHRASE2",
            "editable": false,
            "mutedNotes": [],
            "mutedChords": [
              "dim7",
              "dim",
              "minMaj7(9)",
              "minMaj7",
              "min7(11)",
              "min7(9)",
              "min(9)",
              "m7b5",
              "min7",
              "min6",
              "min"
            ],
            "autoStart": false,
            "sourceChordNote": 0,
            "sourceChordType": "Maj",
            "ctb2Low": null,
            "ctb2Main": {
              "ntr": "ROOT_TRANSPOSITION",
              "ntt": "BYPASS",
              "bassOn": false,
              "chordRootUpperLimit": 2,
              "noteLowLimit": 34,
              "noteHighLimit": 74,
              "rtr": "PITCH_SHIFT"
            },
            "ctb2High": null
          },
          "notes": [
            {
              "pitch": 70,
              "velocity": 109,
              "position": 31.0125,
              "duration": 0.3416666666666667
            },
            {
              "pitch": 60,
              "velocity": 102,
              "position": 31.041666666666668,
              "duration": 0.36666666666666664
            },
            {
              "pitch": 69,
              "velocity": 56,
              "position": 31.333333333333332,
              "duration": 0.10833333333333334
            },
            {
              "pitch": 67,
              "velocity": 51,
              "position": 31.395833333333332,
              "duration": 0.10833333333333334
            },
            {
              "pitch": 60,
              "velocity": 56,
              "position": 31.416666666666668,
              "duration": 0.08958333333333333
            },
            {
              "pitch": 82,
              "velocity": 56,
              "position": 31.416666666666668,
              "duration": 0.08958333333333333
            },
            {
              "pitch": 84,
              "velocity": 127,
              "position": 31.041666666666668,
              "duration": 0.4708333333333333
            },
            {
              "pitch": 65,
              "velocity": 45,
              "position": 31.458333333333332,
              "duration": 0.10833333333333334
            },
            {
              "pitch": 58,
              "velocity": 51,
              "position": 31.479166666666668,
              "duration": 0.08958333333333333
            },
            {
              "pitch": 81,
              "velocity": 51,
              "position": 31.479166666666668,
              "duration": 0.08958333333333333
            },
            {
              "pitch": 76,
              "velocity": 106,
              "position": 31.029166666666665,
              "duration": 0.5583333333333333
            },
            {
              "pitch": 74,
              "velocity": 56,
              "position": 31.541666666666668,
              "duration": 0.058333333333333334
            },
            {
              "pitch": 57,
              "velocity": 45,
              "position": 31.541666666666668,
              "duration": 0.08958333333333333
            },
            {
              "pitch": 79,
              "velocity": 45,
              "position": 31.541666666666668,
              "duration": 0.08958333333333333
            },
            {
              "pitch": 72,
              "velocity": 51,
              "position": 31.604166666666668,
              "duration": 0.058333333333333334
            },
            {
              "pitch": 70,
              "velocity": 45,
              "position": 31.625,
              "duration": 0.058333333333333334
            },
            {
              "pitch": 55,
              "velocity": 40,
              "position": 31.604166666666668,
              "duration": 0.08958333333333333
            },
            {
              "pitch": 77,
              "velocity": 40,
              "position": 31.604166666666668,
              "duration": 0.08958333333333333
            },
            {
              "pitch": 64,
              "velocity": 40,
              "position": 31.604166666666668,
              "duration": 0.10833333333333334
            },
            {
              "pitch": 69,
              "velocity": 40,
              "position": 31.6875,
              "duration": 0.058333333333333334
            },
            {
              "pitch": 53,
              "velocity": 36,
              "position": 31.666666666666668,
              "duration": 0.08958333333333333
            },
            {
              "pitch": 76,
              "velocity": 36,
              "position": 31.666666666666668,
              "duration": 0.08958333333333333
            },
            {
              "pitch": 67,
              "velocity": 36,
              "position": 31.708333333333332,
              "duration": 0.058333333333333334
            },
            {
              "pitch": 62,
              "velocity": 36,
              "position": 31.666666666666668,
              "duration": 0.10833333333333334
            },
            {
              "pitch": 52,
              "velocity": 30,
              "position": 31.729166666666668,
              "duration": 0.08958333333333333
            },
            {
              "pitch": 74,
              "velocity": 30,
              "position": 31.729166666666668,
              "duration": 0.08958333333333333
            },
            {
              "pitch": 65,
              "velocity": 30,
              "position": 31.770833333333332,
              "duration": 0.058333333333333334
            },
            {
              "pitch": 60,
              "velocity": 30,
              "position": 31.729166666666668,
              "duration": 0.10833333333333334
            }
          ]
        },
        "7": {
          "ctab": {
            "srcChannel": 7,
            "name": "Hns  min",
            "accType": "PHRASE2",
            "editable": false,
            "mutedNotes": [],
            "mutedChords": [
              "1+2+5",
              "sus4",
              "1+5",
              "1+8",
              "7aug",
              "Maj7aug",
              "7(#9)",
              "7(b13)",
              "7(b9)",
              "7(13)",
              "7#11",
              "7(9)",
              "7b5",
              "7sus4",
              "7th",
              "aug",
              "Maj6(9)",
              "Maj7(9)",
              "Maj(9)",
              "Maj7#11",
              "Maj7",
              "Maj6",
              "Maj"
            ],
            "autoStart": false,
            "sourceChordNote": 0,
            "sourceChordType": "min",
            "ctb2Low": null,
            "ctb2Main": {
              "ntr": "ROOT_TRANSPOSITION",
              "ntt": "BYPASS",
              "bassOn": false,
              "chordRootUpperLimit": 2,
              "noteLowLimit": 34,
              "noteHighLimit": 74,
              "rtr": "PITCH_SHIFT"
            },
            "ctb2High": null
          },
          "notes": [
            {
              "pitch": 60,
              "velocity": 102,
              "position": 31.041666666666668,
              "duration": 0.375
            },
            {
              "pitch": 69,
              "velocity": 71,
              "position": 31.333333333333332,
              "duration": 0.10833333333333334
            },
            {
              "pitch": 67,
              "velocity": 64,
              "position": 31.395833333333332,
              "duration": 0.10833333333333334
            },
            {
              "pitch": 82,
              "velocity": 71,
              "position": 31.416666666666668,
              "duration": 0.08958333333333333
            },
            {
              "pitch": 60,
              "velocity": 71,
              "position": 31.416666666666668,
              "duration": 0.09375
            },
            {
              "pitch": 84,
              "velocity": 127,
              "position": 31.041666666666668,
              "duration": 0.4708333333333333
            },
            {
              "pitch": 65,
              "velocity": 57,
              "position": 31.458333333333332,
              "duration": 0.10833333333333334
            },
            {
              "pitch": 58,
              "velocity": 64,
              "position": 31.479166666666668,
              "duration": 0.08958333333333333
            },
            {
              "pitch": 81,
              "velocity": 64,
              "position": 31.479166666666668,
              "duration": 0.08958333333333333
            },
            {
              "pitch": 72,
              "velocity": 106,
              "position": 31.029166666666665,
              "duration": 0.5583333333333333
            },
            {
              "pitch": 74,
              "velocity": 71,
              "position": 31.541666666666668,
              "duration": 0.058333333333333334
            },
            {
              "pitch": 57,
              "velocity": 57,
              "position": 31.541666666666668,
              "duration": 0.08958333333333333
            },
            {
              "pitch": 79,
              "velocity": 57,
              "position": 31.541666666666668,
              "duration": 0.08958333333333333
            },
            {
              "pitch": 72,
              "velocity": 64,
              "position": 31.604166666666668,
              "duration": 0.058333333333333334
            },
            {
              "pitch": 70,
              "velocity": 57,
              "position": 31.625,
              "duration": 0.058333333333333334
            },
            {
              "pitch": 55,
              "velocity": 51,
              "position": 31.604166666666668,
              "duration": 0.08958333333333333
            },
            {
              "pitch": 77,
              "velocity": 51,
              "position": 31.604166666666668,
              "duration": 0.08958333333333333
            },
            {
              "pitch": 63,
              "velocity": 51,
              "position": 31.604166666666668,
              "duration": 0.10833333333333334
            },
            {
              "pitch": 69,
              "velocity": 51,
              "position": 31.6875,
              "duration": 0.058333333333333334
            },
            {
              "pitch": 53,
              "velocity": 45,
              "position": 31.666666666666668,
              "duration": 0.08958333333333333
            },
            {
              "pitch": 75,
              "velocity": 45,
              "position": 31.666666666666668,
              "duration": 0.08958333333333333
            },
            {
              "pitch": 67,
              "velocity": 45,
              "position": 31.708333333333332,
              "duration": 0.058333333333333334
            },
            {
              "pitch": 62,
              "velocity": 45,
              "position": 31.666666666666668,
              "duration": 0.10833333333333334
            },
            {
              "pitch": 51,
              "velocity": 38,
              "position": 31.729166666666668,
              "duration": 0.08958333333333333
            },
            {
              "pitch": 74,
              "velocity": 38,
              "position": 31.729166666666668,
              "duration": 0.08958333333333333
            },
            {
              "pitch": 65,
              "velocity": 38,
              "position": 31.770833333333332,
              "duration": 0.058333333333333334
            },
            {
              "pitch": 60,
              "velocity": 38,
              "position": 31.729166666666668,
              "duration": 0.10833333333333334
            }
          ]
        },
        "8": {
          "ctab": {
            "srcChannel": 8,
            "name": "Perc.",
            "accType": "SUBRHYTHM",
            "editable": false,
            "mutedNotes": [],
            "mutedChords": [],
            "autoStart": true,
            "sourceChordNote": 0,
            "sourceChordType": "Maj7",
            "ctb2Low": null,
            "ctb2Main": {
              "ntr": "ROOT_FIXED",
              "ntt": "BYPASS",
              "bassOn": false,
              "chordRootUpperLimit": 6,
              "noteLowLimit": 0,
              "noteHighLimit": 127,
              "rtr": "PITCH_SHIFT"
            },
            "ctb2High": null
          },
          "notes": [
            {
              "pitch": 18,
              "velocity": 94,
              "position": 1.0020833333333334,
              "duration": 0.010416666666666666
            },
            {
              "pitch": 18,
              "velocity": 94,
              "position": 3.01875,
              "duration": 0.010416666666666666
            },
            {
              "pitch": 18,
              "velocity": 94,
              "position": 5.0125,
              "duration": 0.010416666666666666
            },
            {
              "pitch": 18,
              "velocity": 71,
              "position": 5.76875,
              "duration": 0.010416666666666666
            },
            {
              "pitch": 18,
              "velocity": 94,
              "position": 5.9875,
              "duration": 0.010416666666666666
            },
            {
              "pitch": 18,
              "velocity": 94,
              "position": 6.495833333333334,
              "duration": 0.010416666666666666
            },
            {
              "pitch": 18,
              "velocity": 94,
              "position": 6.991666666666666,
              "duration": 0.010416666666666666
            },
            {
              "pitch": 18,
              "velocity": 94,
              "position": 8.9875,
              "duration": 0.010416666666666666
            },
            {
              "pitch": 18,
              "velocity": 94,
              "position": 11,
              "duration": 0.010416666666666666
            },
            {
              "pitch": 18,
              "velocity": 94,
              "position": 13,
              "duration": 0.010416666666666666
            },
            {
              "pitch": 18,
              "velocity": 75,
              "position": 13.76875,
              "duration": 0.010416666666666666
            },
            {
              "pitch": 18,
              "velocity": 94,
              "position": 14.00625,
              "duration": 0.010416666666666666
            },
            {
              "pitch": 18,
              "velocity": 94,
              "position": 14.5,
              "duration": 0.010416666666666666
            },
            {
              "pitch": 18,
              "velocity": 94,
              "position": 14.991666666666667,
              "duration": 0.010416666666666666
            },
            {
              "pitch": 73,
              "velocity": 64,
              "position": 16.010416666666668,
              "duration": 0.010416666666666666
            },
            {
              "pitch": 73,
              "velocity": 56,
              "position": 16.497916666666665,
              "duration": 0.010416666666666666
            },
            {
              "pitch": 18,
              "velocity": 94,
              "position": 16.989583333333332,
              "duration": 0.010416666666666666
            },
            {
              "pitch": 73,
              "velocity": 66,
              "position": 17.002083333333335,
              "duration": 0.010416666666666666
            },
            {
              "pitch": 73,
              "velocity": 56,
              "position": 17.495833333333334,
              "duration": 0.010416666666666666
            },
            {
              "pitch": 73,
              "velocity": 61,
              "position": 17.995833333333334,
              "duration": 0.010416666666666666
            },
            {
              "pitch": 73,
              "velocity": 56,
              "position": 18.485416666666666,
              "duration": 0.010416666666666666
            },
            {
              "pitch": 73,
              "velocity": 62,
              "position": 19.002083333333335,
              "duration": 0.010416666666666666
            },
            {
              "pitch": 18,
              "velocity": 94,
              "position": 19.0125,
              "duration": 0.010416666666666666
            },
            {
              "pitch": 73,
              "velocity": 56,
              "position": 19.510416666666668,
              "duration": 0.010416666666666666
            },
            {
              "pitch": 73,
              "velocity": 61,
              "position": 20.010416666666668,
              "duration": 0.010416666666666666
            },
            {
              "pitch": 73,
              "velocity": 56,
              "position": 20.5,
              "duration": 0.010416666666666666
            },
            {
              "pitch": 18,
              "velocity": 94,
              "position": 20.9875,
              "duration": 0.010416666666666666
            },
            {
              "pitch": 73,
              "velocity": 66,
              "position": 21.0125,
              "duration": 0.010416666666666666
            },
            {
              "pitch": 73,
              "velocity": 56,
              "position": 21.516666666666666,
              "duration": 0.010416666666666666
            },
            {
              "pitch": 18,
              "velocity": 73,
              "position": 21.78125,
              "duration": 0.010416666666666666
            },
            {
              "pitch": 73,
              "velocity": 63,
              "position": 22.008333333333333,
              "duration": 0.010416666666666666
            },
            {
              "pitch": 18,
              "velocity": 94,
              "position": 22.010416666666668,
              "duration": 0.010416666666666666
            },
            {
              "pitch": 18,
              "velocity": 94,
              "position": 22.504166666666666,
              "duration": 0.010416666666666666
            },
            {
              "pitch": 73,
              "velocity": 59,
              "position": 22.504166666666666,
              "duration": 0.010416666666666666
            },
            {
              "pitch": 73,
              "velocity": 65,
              "position": 22.995833333333334,
              "duration": 0.010416666666666666
            },
            {
              "pitch": 18,
              "velocity": 94,
              "position": 23.002083333333335,
              "duration": 0.010416666666666666
            },
            {
              "pitch": 73,
              "velocity": 56,
              "position": 23.489583333333332,
              "duration": 0.010416666666666666
            },
            {
              "pitch": 73,
              "velocity": 66,
              "position": 24.010416666666668,
              "duration": 0.010416666666666666
            },
            {
              "pitch": 73,
              "velocity": 57,
              "position": 24.497916666666665,
              "duration": 0.010416666666666666
            },
            {
              "pitch": 73,
              "velocity": 66,
              "position": 24.989583333333332,
              "duration": 0.010416666666666666
            },
            {
              "pitch": 18,
              "velocity": 94,
              "position": 25.016666666666666,
              "duration": 0.010416666666666666
            },
            {
              "pitch": 73,
              "velocity": 58,
              "position": 25.510416666666668,
              "duration": 0.010416666666666666
            },
            {
              "pitch": 73,
              "velocity": 64,
              "position": 26.004166666666666,
              "duration": 0.010416666666666666
            },
            {
              "pitch": 73,
              "velocity": 57,
              "position": 26.5,
              "duration": 0.010416666666666666
            },
            {
              "pitch": 18,
              "velocity": 94,
              "position": 26.979166666666668,
              "duration": 0.010416666666666666
            },
            {
              "pitch": 73,
              "velocity": 61,
              "position": 27.0125,
              "duration": 0.010416666666666666
            },
            {
              "pitch": 73,
              "velocity": 56,
              "position": 27.502083333333335,
              "duration": 0.010416666666666666
            },
            {
              "pitch": 73,
              "velocity": 64,
              "position": 28.010416666666668,
              "duration": 0.010416666666666666
            },
            {
              "pitch": 73,
              "velocity": 56,
              "position": 28.489583333333332,
              "duration": 0.010416666666666666
            },
            {
              "pitch": 18,
              "velocity": 94,
              "position": 28.985416666666666,
              "duration": 0.010416666666666666
            },
            {
              "pitch": 73,
              "velocity": 65,
              "position": 29.008333333333333,
              "duration": 0.010416666666666666
            },
            {
              "pitch": 73,
              "velocity": 56,
              "position": 29.502083333333335,
              "duration": 0.010416666666666666
            },
            {
              "pitch": 18,
              "velocity": 74,
              "position": 29.775,
              "duration": 0.010416666666666666
            },
            {
              "pitch": 73,
              "velocity": 65,
              "position": 30.00625,
              "duration": 0.010416666666666666
            },
            {
              "pitch": 18,
              "velocity": 94,
              "position": 30.010416666666668,
              "duration": 0.010416666666666666
            },
            {
              "pitch": 73,
              "velocity": 56,
              "position": 30.508333333333333,
              "duration": 0.010416666666666666
            },
            {
              "pitch": 18,
              "velocity": 94,
              "position": 30.516666666666666,
              "duration": 0.010416666666666666
            },
            {
              "pitch": 18,
              "velocity": 94,
              "position": 30.99375,
              "duration": 0.010416666666666666
            },
            {
              "pitch": 73,
              "velocity": 64,
              "position": 30.995833333333334,
              "duration": 0.010416666666666666
            },
            {
              "pitch": 73,
              "velocity": 56,
              "position": 31.510416666666668,
              "duration": 0.010416666666666666
            }
          ]
        },
        "9": {
          "ctab": {
            "srcChannel": 9,
            "name": "Drums",
            "accType": "RHYTHM",
            "editable": false,
            "mutedNotes": [],
            "mutedChords": [],
            "autoStart": true,
            "sourceChordNote": 0,
            "sourceChordType": "Maj7",
            "ctb2Low": null,
            "ctb2Main": {
              "ntr": "ROOT_FIXED",
              "ntt": "BYPASS",
              "bassOn": false,
              "chordRootUpperLimit": 6,
              "noteLowLimit": 0,
              "noteHighLimit": 127,
              "rtr": "PITCH_SHIFT"
            },
            "ctb2High": null
          },
          "notes": [
            {
              "pitch": 35,
              "velocity": 100,
              "position": 0,
              "duration": 0.010416666666666666
            },
            {
              "pitch": 49,
              "velocity": 81,
              "position": 0,
              "duration": 0.010416666666666666
            },
            {
              "pitch": 35,
              "velocity": 100,
              "position": 1,
              "duration": 0.010416666666666666
            },
            {
              "pitch": 35,
              "velocity": 100,
              "position": 2,
              "duration": 0.010416666666666666
            },
            {
              "pitch": 35,
              "velocity": 100,
              "position": 3,
              "duration": 0.010416666666666666
            },
            {
              "pitch": 35,
              "velocity": 100,
              "position": 4,
              "duration": 0.010416666666666666
            },
            {
              "pitch": 35,
              "velocity": 100,
              "position": 5,
              "duration": 0.010416666666666666
            },
            {
              "pitch": 35,
              "velocity": 100,
              "position": 6,
              "duration": 0.010416666666666666
            },
            {
              "pitch": 35,
              "velocity": 100,
              "position": 7,
              "duration": 0.010416666666666666
            },
            {
              "pitch": 35,
              "velocity": 100,
              "position": 8,
              "duration": 0.010416666666666666
            },
            {
              "pitch": 35,
              "velocity": 100,
              "position": 9,
              "duration": 0.010416666666666666
            },
            {
              "pitch": 35,
              "velocity": 100,
              "position": 10,
              "duration": 0.010416666666666666
            },
            {
              "pitch": 35,
              "velocity": 100,
              "position": 11,
              "duration": 0.010416666666666666
            },
            {
              "pitch": 35,
              "velocity": 100,
              "position": 12,
              "duration": 0.010416666666666666
            },
            {
              "pitch": 35,
              "velocity": 100,
              "position": 13,
              "duration": 0.010416666666666666
            },
            {
              "pitch": 35,
              "velocity": 100,
              "position": 14,
              "duration": 0.010416666666666666
            },
            {
              "pitch": 35,
              "velocity": 100,
              "position": 15,
              "duration": 0.010416666666666666
            },
            {
              "pitch": 42,
              "velocity": 80,
              "position": 15.5,
              "duration": 0.010416666666666666
            },
            {
              "pitch": 42,
              "velocity": 43,
              "position": 15.770833333333334,
              "duration": 0.010416666666666666
            },
            {
              "pitch": 35,
              "velocity": 100,
              "position": 16,
              "duration": 0.010416666666666666
            },
            {
              "pitch": 35,
              "velocity": 100,
              "position": 17,
              "duration": 0.010416666666666666
            },
            {
              "pitch": 42,
              "velocity": 81,
              "position": 17,
              "duration": 0.010416666666666666
            },
            {
              "pitch": 35,
              "velocity": 100,
              "position": 18,
              "duration": 0.010416666666666666
            },
            {
              "pitch": 35,
              "velocity": 100,
              "position": 19,
              "duration": 0.010416666666666666
            },
            {
              "pitch": 42,
              "velocity": 89,
              "position": 19,
              "duration": 0.010416666666666666
            },
            {
              "pitch": 35,
              "velocity": 100,
              "position": 20,
              "duration": 0.010416666666666666
            },
            {
              "pitch": 35,
              "velocity": 100,
              "position": 21,
              "duration": 0.010416666666666666
            },
            {
              "pitch": 42,
              "velocity": 87,
              "position": 21,
              "duration": 0.010416666666666666
            },
            {
              "pitch": 42,
              "velocity": 42,
              "position": 21.770833333333332,
              "duration": 0.010416666666666666
            },
            {
              "pitch": 35,
              "velocity": 100,
              "position": 22,
              "duration": 0.010416666666666666
            },
            {
              "pitch": 42,
              "velocity": 87,
              "position": 22,
              "duration": 0.010416666666666666
            },
            {
              "pitch": 42,
              "velocity": 67,
              "position": 22.5,
              "duration": 0.010416666666666666
            },
            {
              "pitch": 35,
              "velocity": 100,
              "position": 23,
              "duration": 0.010416666666666666
            },
            {
              "pitch": 42,
              "velocity": 87,
              "position": 23,
              "duration": 0.010416666666666666
            },
            {
              "pitch": 35,
              "velocity": 100,
              "position": 24,
              "duration": 0.010416666666666666
            },
            {
              "pitch": 35,
              "velocity": 100,
              "position": 25,
              "duration": 0.010416666666666666
            },
            {
              "pitch": 42,
              "velocity": 81,
              "position": 25,
              "duration": 0.010416666666666666
            },
            {
              "pitch": 35,
              "velocity": 100,
              "position": 26,
              "duration": 0.010416666666666666
            },
            {
              "pitch": 35,
              "velocity": 100,
              "position": 27,
              "duration": 0.010416666666666666
            },
            {
              "pitch": 42,
              "velocity": 89,
              "position": 27,
              "duration": 0.010416666666666666
            },
            {
              "pitch": 35,
              "velocity": 100,
              "position": 28.020833333333332,
              "duration": 0.010416666666666666
            },
            {
              "pitch": 35,
              "velocity": 100,
              "position": 29,
              "duration": 0.010416666666666666
            },
            {
              "pitch": 42,
              "velocity": 87,
              "position": 29,
              "duration": 0.010416666666666666
            },
            {
              "pitch": 42,
              "velocity": 42,
              "position": 29.770833333333332,
              "duration": 0.010416666666666666
            },
            {
              "pitch": 42,
              "velocity": 87,
              "position": 30,
              "duration": 0.010416666666666666
            },
            {
              "pitch": 35,
              "velocity": 100,
              "position": 30.020833333333332,
              "duration": 0.010416666666666666
            },
            {
              "pitch": 42,
              "velocity": 67,
              "position": 30.5,
              "duration": 0.010416666666666666
            },
            {
              "pitch": 35,
              "velocity": 100,
              "position": 31,
              "duration": 0.010416666666666666
            },
            {
              "pitch": 42,
              "velocity": 87,
              "position": 31,
              "duration": 0.010416666666666666
            },
            {
              "pitch": 49,
              "velocity": 71,
              "position": 31.989583333333332,
              "duration": 0.010416666666666666
            }
          ]
        },
        "10": {
          "ctab": {
            "srcChannel": 10,
            "name": "Bass FX",
            "accType": "BASS",
            "editable": false,
            "mutedNotes": [],
            "mutedChords": [],
            "autoStart": false,
            "sourceChordNote": 0,
            "sourceChordType": "Maj7",
            "ctb2Low": null,
            "ctb2Main": {
              "ntr": "ROOT_FIXED",
              "ntt": "BYPASS",
              "bassOn": false,
              "chordRootUpperLimit": 7,
              "noteLowLimit": 0,
              "noteHighLimit": 127,
              "rtr": "PITCH_SHIFT"
            },
            "ctb2High": null
          },
          "notes": [
            {
              "pitch": 102,
              "velocity": 76,
              "position": 14.25,
              "duration": 0.49166666666666664
            },
            {
              "pitch": 100,
              "velocity": 96,
              "position": 15,
              "duration": 2.9916666666666667
            },
            {
              "pitch": 100,
              "velocity": 90,
              "position": 31,
              "duration": 0.9916666666666667
            }
          ]
        },
        "13": {
          "ctab": {
            "srcChannel": 13,
            "name": "E.P  Maj",
            "accType": "CHORD2",
            "editable": false,
            "mutedNotes": [],
            "mutedChords": [
              "dim7",
              "dim",
              "minMaj7(9)",
              "minMaj7",
              "min7(11)",
              "min7(9)",
              "min(9)",
              "m7b5",
              "min7",
              "min6",
              "min"
            ],
            "autoStart": false,
            "sourceChordNote": 0,
            "sourceChordType": "Maj",
            "ctb2Low": null,
            "ctb2Main": {
              "ntr": "ROOT_TRANSPOSITION",
              "ntt": "BYPASS",
              "bassOn": false,
              "chordRootUpperLimit": 1,
              "noteLowLimit": 54,
              "noteHighLimit": 127,
              "rtr": "PITCH_SHIFT"
            },
            "ctb2High": null
          },
          "notes": [
            {
              "pitch": 43,
              "velocity": 91,
              "position": 0.010416666666666666,
              "duration": 0.14791666666666667
            },
            {
              "pitch": 46,
              "velocity": 92,
              "position": 0.014583333333333334,
              "duration": 0.14583333333333334
            },
            {
              "pitch": 48,
              "velocity": 88,
              "position": 0.020833333333333332,
              "duration": 0.14791666666666667
            },
            {
              "pitch": 65,
              "velocity": 100,
              "position": 0.022916666666666665,
              "duration": 0.15208333333333332
            },
            {
              "pitch": 65,
              "velocity": 100,
              "position": 0.4979166666666667,
              "duration": 0.14583333333333334
            },
            {
              "pitch": 48,
              "velocity": 91,
              "position": 0.49583333333333335,
              "duration": 0.15625
            },
            {
              "pitch": 46,
              "velocity": 92,
              "position": 0.50625,
              "duration": 0.15
            },
            {
              "pitch": 43,
              "velocity": 90,
              "position": 0.49166666666666664,
              "duration": 0.17708333333333334
            },
            {
              "pitch": 65,
              "velocity": 106,
              "position": 0.9916666666666667,
              "duration": 0.14583333333333334
            },
            {
              "pitch": 43,
              "velocity": 91,
              "position": 0.99375,
              "duration": 0.15
            },
            {
              "pitch": 46,
              "velocity": 92,
              "position": 0.9895833333333334,
              "duration": 0.17708333333333334
            },
            {
              "pitch": 48,
              "velocity": 90,
              "position": 1,
              "duration": 0.17083333333333334
            },
            {
              "pitch": 43,
              "velocity": 93,
              "position": 1.4979166666666666,
              "duration": 0.14791666666666667
            },
            {
              "pitch": 48,
              "velocity": 94,
              "position": 1.49375,
              "duration": 0.15416666666666667
            },
            {
              "pitch": 46,
              "velocity": 93,
              "position": 1.5041666666666667,
              "duration": 0.14791666666666667
            },
            {
              "pitch": 65,
              "velocity": 99,
              "position": 1.50625,
              "duration": 0.15208333333333332
            },
            {
              "pitch": 46,
              "velocity": 95,
              "position": 1.99375,
              "duration": 0.14166666666666666
            },
            {
              "pitch": 65,
              "velocity": 106,
              "position": 2.00625,
              "duration": 0.15833333333333333
            },
            {
              "pitch": 43,
              "velocity": 88,
              "position": 2.002083333333333,
              "duration": 0.17291666666666666
            },
            {
              "pitch": 48,
              "velocity": 96,
              "position": 2,
              "duration": 0.17916666666666667
            },
            {
              "pitch": 43,
              "velocity": 92,
              "position": 2.5083333333333333,
              "duration": 0.14583333333333334
            },
            {
              "pitch": 46,
              "velocity": 89,
              "position": 2.495833333333333,
              "duration": 0.16041666666666668
            },
            {
              "pitch": 48,
              "velocity": 95,
              "position": 2.5,
              "duration": 0.17291666666666666
            },
            {
              "pitch": 65,
              "velocity": 101,
              "position": 2.5083333333333333,
              "duration": 0.17083333333333334
            },
            {
              "pitch": 65,
              "velocity": 101,
              "position": 2.99375,
              "duration": 0.14583333333333334
            },
            {
              "pitch": 43,
              "velocity": 90,
              "position": 2.997916666666667,
              "duration": 0.14375
            },
            {
              "pitch": 46,
              "velocity": 92,
              "position": 2.9895833333333335,
              "duration": 0.1625
            },
            {
              "pitch": 48,
              "velocity": 91,
              "position": 3.0083333333333333,
              "duration": 0.175
            },
            {
              "pitch": 46,
              "velocity": 89,
              "position": 3.497916666666667,
              "duration": 0.14791666666666667
            },
            {
              "pitch": 65,
              "velocity": 105,
              "position": 3.502083333333333,
              "duration": 0.16458333333333333
            },
            {
              "pitch": 48,
              "velocity": 92,
              "position": 3.4916666666666667,
              "duration": 0.18125
            },
            {
              "pitch": 43,
              "velocity": 89,
              "position": 3.5083333333333333,
              "duration": 0.16875
            },
            {
              "pitch": 64,
              "velocity": 98,
              "position": 3.995833333333333,
              "duration": 0.14791666666666667
            },
            {
              "pitch": 46,
              "velocity": 94,
              "position": 3.997916666666667,
              "duration": 0.15833333333333333
            },
            {
              "pitch": 48,
              "velocity": 91,
              "position": 4.00625,
              "duration": 0.15208333333333332
            },
            {
              "pitch": 43,
              "velocity": 90,
              "position": 4,
              "duration": 0.17916666666666667
            },
            {
              "pitch": 46,
              "velocity": 91,
              "position": 4.491666666666666,
              "duration": 0.15208333333333332
            },
            {
              "pitch": 48,
              "velocity": 95,
              "position": 4.491666666666666,
              "duration": 0.17291666666666666
            },
            {
              "pitch": 64,
              "velocity": 105,
              "position": 4.489583333333333,
              "duration": 0.175
            },
            {
              "pitch": 43,
              "velocity": 91,
              "position": 4.495833333333334,
              "duration": 0.17708333333333334
            },
            {
              "pitch": 48,
              "velocity": 96,
              "position": 4.989583333333333,
              "duration": 0.15833333333333333
            },
            {
              "pitch": 43,
              "velocity": 94,
              "position": 4.991666666666666,
              "duration": 0.16041666666666668
            },
            {
              "pitch": 46,
              "velocity": 89,
              "position": 5,
              "duration": 0.16875
            },
            {
              "pitch": 64,
              "velocity": 100,
              "position": 5.008333333333334,
              "duration": 0.16458333333333333
            },
            {
              "pitch": 48,
              "velocity": 94,
              "position": 5.5,
              "duration": 0.14791666666666667
            },
            {
              "pitch": 43,
              "velocity": 90,
              "position": 5.489583333333333,
              "duration": 0.16875
            },
            {
              "pitch": 46,
              "velocity": 88,
              "position": 5.5,
              "duration": 0.16875
            },
            {
              "pitch": 64,
              "velocity": 99,
              "position": 5.508333333333334,
              "duration": 0.16041666666666668
            },
            {
              "pitch": 46,
              "velocity": 88,
              "position": 5.99375,
              "duration": 0.15416666666666667
            },
            {
              "pitch": 48,
              "velocity": 90,
              "position": 6.002083333333333,
              "duration": 0.14583333333333334
            },
            {
              "pitch": 64,
              "velocity": 104,
              "position": 5.99375,
              "duration": 0.15625
            },
            {
              "pitch": 43,
              "velocity": 95,
              "position": 5.991666666666666,
              "duration": 0.1625
            },
            {
              "pitch": 43,
              "velocity": 94,
              "position": 6.49375,
              "duration": 0.14583333333333334
            },
            {
              "pitch": 48,
              "velocity": 91,
              "position": 6.495833333333334,
              "duration": 0.14791666666666667
            },
            {
              "pitch": 64,
              "velocity": 105,
              "position": 6.5,
              "duration": 0.15833333333333333
            },
            {
              "pitch": 46,
              "velocity": 89,
              "position": 6.5,
              "duration": 0.1625
            },
            {
              "pitch": 43,
              "velocity": 93,
              "position": 6.995833333333334,
              "duration": 0.15416666666666667
            },
            {
              "pitch": 46,
              "velocity": 90,
              "position": 7,
              "duration": 0.15416666666666667
            },
            {
              "pitch": 64,
              "velocity": 103,
              "position": 6.991666666666666,
              "duration": 0.1625
            },
            {
              "pitch": 48,
              "velocity": 89,
              "position": 7,
              "duration": 0.16041666666666668
            },
            {
              "pitch": 43,
              "velocity": 95,
              "position": 7.502083333333333,
              "duration": 0.14791666666666667
            },
            {
              "pitch": 46,
              "velocity": 92,
              "position": 7.49375,
              "duration": 0.17083333333333334
            },
            {
              "pitch": 48,
              "velocity": 92,
              "position": 7.497916666666667,
              "duration": 0.17708333333333334
            },
            {
              "pitch": 64,
              "velocity": 106,
              "position": 7.50625,
              "duration": 0.17083333333333334
            },
            {
              "pitch": 65,
              "velocity": 105,
              "position": 8.002083333333333,
              "duration": 0.14583333333333334
            },
            {
              "pitch": 43,
              "velocity": 88,
              "position": 7.989583333333333,
              "duration": 0.16875
            },
            {
              "pitch": 48,
              "velocity": 93,
              "position": 8.00625,
              "duration": 0.15833333333333333
            },
            {
              "pitch": 46,
              "velocity": 95,
              "position": 8,
              "duration": 0.16875
            },
            {
              "pitch": 46,
              "velocity": 91,
              "position": 8.497916666666667,
              "duration": 0.15416666666666667
            },
            {
              "pitch": 48,
              "velocity": 91,
              "position": 8.508333333333333,
              "duration": 0.14583333333333334
            },
            {
              "pitch": 65,
              "velocity": 102,
              "position": 8.502083333333333,
              "duration": 0.1625
            },
            {
              "pitch": 43,
              "velocity": 92,
              "position": 8.5,
              "duration": 0.175
            },
            {
              "pitch": 48,
              "velocity": 94,
              "position": 9,
              "duration": 0.14166666666666666
            },
            {
              "pitch": 65,
              "velocity": 102,
              "position": 9.00625,
              "duration": 0.14166666666666666
            },
            {
              "pitch": 46,
              "velocity": 95,
              "position": 8.989583333333334,
              "duration": 0.1625
            },
            {
              "pitch": 43,
              "velocity": 89,
              "position": 8.991666666666667,
              "duration": 0.16875
            },
            {
              "pitch": 46,
              "velocity": 92,
              "position": 9.495833333333334,
              "duration": 0.15208333333333332
            },
            {
              "pitch": 48,
              "velocity": 94,
              "position": 9.50625,
              "duration": 0.14166666666666666
            },
            {
              "pitch": 43,
              "velocity": 95,
              "position": 9.504166666666666,
              "duration": 0.14791666666666667
            },
            {
              "pitch": 65,
              "velocity": 100,
              "position": 9.491666666666667,
              "duration": 0.16666666666666666
            },
            {
              "pitch": 43,
              "velocity": 94,
              "position": 10,
              "duration": 0.15416666666666667
            },
            {
              "pitch": 48,
              "velocity": 92,
              "position": 10.002083333333333,
              "duration": 0.15208333333333332
            },
            {
              "pitch": 65,
              "velocity": 102,
              "position": 10.002083333333333,
              "duration": 0.15416666666666667
            },
            {
              "pitch": 46,
              "velocity": 90,
              "position": 9.99375,
              "duration": 0.16666666666666666
            },
            {
              "pitch": 65,
              "velocity": 102,
              "position": 10.49375,
              "duration": 0.14583333333333334
            },
            {
              "pitch": 43,
              "velocity": 95,
              "position": 10.495833333333334,
              "duration": 0.14583333333333334
            },
            {
              "pitch": 48,
              "velocity": 95,
              "position": 10.491666666666667,
              "duration": 0.16458333333333333
            },
            {
              "pitch": 46,
              "velocity": 88,
              "position": 10.504166666666666,
              "duration": 0.16458333333333333
            },
            {
              "pitch": 46,
              "velocity": 96,
              "position": 10.989583333333334,
              "duration": 0.14791666666666667
            },
            {
              "pitch": 48,
              "velocity": 95,
              "position": 10.991666666666667,
              "duration": 0.14583333333333334
            },
            {
              "pitch": 43,
              "velocity": 88,
              "position": 10.995833333333334,
              "duration": 0.16458333333333333
            },
            {
              "pitch": 65,
              "velocity": 106,
              "position": 10.989583333333334,
              "duration": 0.18125
            },
            {
              "pitch": 46,
              "velocity": 96,
              "position": 11.508333333333333,
              "duration": 0.15208333333333332
            },
            {
              "pitch": 43,
              "velocity": 92,
              "position": 11.495833333333334,
              "duration": 0.16875
            },
            {
              "pitch": 48,
              "velocity": 92,
              "position": 11.504166666666666,
              "duration": 0.17083333333333334
            },
            {
              "pitch": 65,
              "velocity": 98,
              "position": 11.508333333333333,
              "duration": 0.17916666666666667
            },
            {
              "pitch": 64,
              "velocity": 103,
              "position": 11.989583333333334,
              "duration": 0.14166666666666666
            },
            {
              "pitch": 46,
              "velocity": 88,
              "position": 12,
              "duration": 0.14166666666666666
            },
            {
              "pitch": 43,
              "velocity": 96,
              "position": 11.997916666666667,
              "duration": 0.16041666666666668
            },
            {
              "pitch": 48,
              "velocity": 95,
              "position": 12.008333333333333,
              "duration": 0.1625
            },
            {
              "pitch": 64,
              "velocity": 106,
              "position": 12.495833333333334,
              "duration": 0.14791666666666667
            },
            {
              "pitch": 46,
              "velocity": 90,
              "position": 12.502083333333333,
              "duration": 0.15625
            },
            {
              "pitch": 48,
              "velocity": 95,
              "position": 12.504166666666666,
              "duration": 0.16041666666666668
            },
            {
              "pitch": 43,
              "velocity": 93,
              "position": 12.502083333333333,
              "duration": 0.17708333333333334
            },
            {
              "pitch": 46,
              "velocity": 92,
              "position": 13,
              "duration": 0.15208333333333332
            },
            {
              "pitch": 48,
              "velocity": 92,
              "position": 12.991666666666667,
              "duration": 0.16666666666666666
            },
            {
              "pitch": 64,
              "velocity": 105,
              "position": 13.002083333333333,
              "duration": 0.16041666666666668
            },
            {
              "pitch": 43,
              "velocity": 92,
              "position": 13.008333333333333,
              "duration": 0.18125
            },
            {
              "pitch": 46,
              "velocity": 96,
              "position": 13.489583333333334,
              "duration": 0.175
            },
            {
              "pitch": 43,
              "velocity": 92,
              "position": 13.497916666666667,
              "duration": 0.16875
            },
            {
              "pitch": 64,
              "velocity": 100,
              "position": 13.495833333333334,
              "duration": 0.17291666666666666
            },
            {
              "pitch": 48,
              "velocity": 94,
              "position": 13.491666666666667,
              "duration": 0.17916666666666667
            },
            {
              "pitch": 43,
              "velocity": 93,
              "position": 14.008333333333333,
              "duration": 0.14375
            },
            {
              "pitch": 48,
              "velocity": 94,
              "position": 14.004166666666666,
              "duration": 0.15625
            },
            {
              "pitch": 64,
              "velocity": 101,
              "position": 14.008333333333333,
              "duration": 0.15208333333333332
            },
            {
              "pitch": 46,
              "velocity": 92,
              "position": 13.99375,
              "duration": 0.17916666666666667
            },
            {
              "pitch": 43,
              "velocity": 96,
              "position": 14.5,
              "duration": 0.14583333333333334
            },
            {
              "pitch": 46,
              "velocity": 96,
              "position": 14.489583333333334,
              "duration": 0.16666666666666666
            },
            {
              "pitch": 64,
              "velocity": 106,
              "position": 14.50625,
              "duration": 0.17291666666666666
            },
            {
              "pitch": 48,
              "velocity": 91,
              "position": 14.50625,
              "duration": 0.18125
            },
            {
              "pitch": 64,
              "velocity": 100,
              "position": 15.00625,
              "duration": 0.15833333333333333
            },
            {
              "pitch": 43,
              "velocity": 92,
              "position": 14.99375,
              "duration": 0.175
            },
            {
              "pitch": 48,
              "velocity": 93,
              "position": 15.002083333333333,
              "duration": 0.17083333333333334
            },
            {
              "pitch": 46,
              "velocity": 93,
              "position": 15,
              "duration": 0.17916666666666667
            },
            {
              "pitch": 64,
              "velocity": 98,
              "position": 15.491666666666667,
              "duration": 0.14583333333333334
            },
            {
              "pitch": 48,
              "velocity": 92,
              "position": 15.489583333333334,
              "duration": 0.16666666666666666
            },
            {
              "pitch": 43,
              "velocity": 88,
              "position": 15.508333333333333,
              "duration": 0.15
            },
            {
              "pitch": 46,
              "velocity": 91,
              "position": 15.502083333333333,
              "duration": 0.175
            },
            {
              "pitch": 43,
              "velocity": 91,
              "position": 16.010416666666668,
              "duration": 0.14791666666666667
            },
            {
              "pitch": 46,
              "velocity": 92,
              "position": 16.014583333333334,
              "duration": 0.14583333333333334
            },
            {
              "pitch": 48,
              "velocity": 88,
              "position": 16.020833333333332,
              "duration": 0.14791666666666667
            },
            {
              "pitch": 65,
              "velocity": 100,
              "position": 16.022916666666667,
              "duration": 0.15208333333333332
            },
            {
              "pitch": 65,
              "velocity": 100,
              "position": 16.497916666666665,
              "duration": 0.14583333333333334
            },
            {
              "pitch": 48,
              "velocity": 91,
              "position": 16.495833333333334,
              "duration": 0.15625
            },
            {
              "pitch": 46,
              "velocity": 92,
              "position": 16.50625,
              "duration": 0.15
            },
            {
              "pitch": 43,
              "velocity": 90,
              "position": 16.491666666666667,
              "duration": 0.17708333333333334
            },
            {
              "pitch": 65,
              "velocity": 106,
              "position": 16.991666666666667,
              "duration": 0.14583333333333334
            },
            {
              "pitch": 43,
              "velocity": 91,
              "position": 16.99375,
              "duration": 0.15
            },
            {
              "pitch": 46,
              "velocity": 92,
              "position": 16.989583333333332,
              "duration": 0.17708333333333334
            },
            {
              "pitch": 48,
              "velocity": 90,
              "position": 17,
              "duration": 0.17083333333333334
            },
            {
              "pitch": 43,
              "velocity": 93,
              "position": 17.497916666666665,
              "duration": 0.14791666666666667
            },
            {
              "pitch": 48,
              "velocity": 94,
              "position": 17.49375,
              "duration": 0.15416666666666667
            },
            {
              "pitch": 46,
              "velocity": 93,
              "position": 17.504166666666666,
              "duration": 0.14791666666666667
            },
            {
              "pitch": 65,
              "velocity": 99,
              "position": 17.50625,
              "duration": 0.15208333333333332
            },
            {
              "pitch": 46,
              "velocity": 95,
              "position": 17.99375,
              "duration": 0.14166666666666666
            },
            {
              "pitch": 65,
              "velocity": 106,
              "position": 18.00625,
              "duration": 0.15833333333333333
            },
            {
              "pitch": 43,
              "velocity": 88,
              "position": 18.002083333333335,
              "duration": 0.17291666666666666
            },
            {
              "pitch": 48,
              "velocity": 96,
              "position": 18,
              "duration": 0.17916666666666667
            },
            {
              "pitch": 43,
              "velocity": 92,
              "position": 18.508333333333333,
              "duration": 0.14583333333333334
            },
            {
              "pitch": 46,
              "velocity": 89,
              "position": 18.495833333333334,
              "duration": 0.16041666666666668
            },
            {
              "pitch": 48,
              "velocity": 95,
              "position": 18.5,
              "duration": 0.17291666666666666
            },
            {
              "pitch": 65,
              "velocity": 101,
              "position": 18.508333333333333,
              "duration": 0.17083333333333334
            },
            {
              "pitch": 65,
              "velocity": 101,
              "position": 18.99375,
              "duration": 0.14583333333333334
            },
            {
              "pitch": 43,
              "velocity": 90,
              "position": 18.997916666666665,
              "duration": 0.14375
            },
            {
              "pitch": 46,
              "velocity": 92,
              "position": 18.989583333333332,
              "duration": 0.1625
            },
            {
              "pitch": 48,
              "velocity": 91,
              "position": 19.008333333333333,
              "duration": 0.175
            },
            {
              "pitch": 46,
              "velocity": 89,
              "position": 19.497916666666665,
              "duration": 0.14791666666666667
            },
            {
              "pitch": 65,
              "velocity": 105,
              "position": 19.502083333333335,
              "duration": 0.16458333333333333
            },
            {
              "pitch": 48,
              "velocity": 92,
              "position": 19.491666666666667,
              "duration": 0.18125
            },
            {
              "pitch": 43,
              "velocity": 89,
              "position": 19.508333333333333,
              "duration": 0.16875
            },
            {
              "pitch": 64,
              "velocity": 98,
              "position": 19.995833333333334,
              "duration": 0.14791666666666667
            },
            {
              "pitch": 46,
              "velocity": 94,
              "position": 19.997916666666665,
              "duration": 0.15833333333333333
            },
            {
              "pitch": 48,
              "velocity": 91,
              "position": 20.00625,
              "duration": 0.15208333333333332
            },
            {
              "pitch": 43,
              "velocity": 90,
              "position": 20,
              "duration": 0.17916666666666667
            },
            {
              "pitch": 46,
              "velocity": 91,
              "position": 20.491666666666667,
              "duration": 0.15208333333333332
            },
            {
              "pitch": 48,
              "velocity": 95,
              "position": 20.491666666666667,
              "duration": 0.17291666666666666
            },
            {
              "pitch": 64,
              "velocity": 105,
              "position": 20.489583333333332,
              "duration": 0.175
            },
            {
              "pitch": 43,
              "velocity": 91,
              "position": 20.495833333333334,
              "duration": 0.17708333333333334
            },
            {
              "pitch": 48,
              "velocity": 96,
              "position": 20.989583333333332,
              "duration": 0.15833333333333333
            },
            {
              "pitch": 43,
              "velocity": 94,
              "position": 20.991666666666667,
              "duration": 0.16041666666666668
            },
            {
              "pitch": 46,
              "velocity": 89,
              "position": 21,
              "duration": 0.16875
            },
            {
              "pitch": 64,
              "velocity": 100,
              "position": 21.008333333333333,
              "duration": 0.16458333333333333
            },
            {
              "pitch": 48,
              "velocity": 94,
              "position": 21.5,
              "duration": 0.14791666666666667
            },
            {
              "pitch": 43,
              "velocity": 90,
              "position": 21.489583333333332,
              "duration": 0.16875
            },
            {
              "pitch": 46,
              "velocity": 88,
              "position": 21.5,
              "duration": 0.16875
            },
            {
              "pitch": 64,
              "velocity": 99,
              "position": 21.508333333333333,
              "duration": 0.16041666666666668
            },
            {
              "pitch": 46,
              "velocity": 88,
              "position": 21.99375,
              "duration": 0.15416666666666667
            },
            {
              "pitch": 48,
              "velocity": 90,
              "position": 22.002083333333335,
              "duration": 0.14583333333333334
            },
            {
              "pitch": 64,
              "velocity": 104,
              "position": 21.99375,
              "duration": 0.15625
            },
            {
              "pitch": 43,
              "velocity": 95,
              "position": 21.991666666666667,
              "duration": 0.1625
            },
            {
              "pitch": 43,
              "velocity": 94,
              "position": 22.49375,
              "duration": 0.14583333333333334
            },
            {
              "pitch": 48,
              "velocity": 91,
              "position": 22.495833333333334,
              "duration": 0.14791666666666667
            },
            {
              "pitch": 64,
              "velocity": 105,
              "position": 22.5,
              "duration": 0.15833333333333333
            },
            {
              "pitch": 46,
              "velocity": 89,
              "position": 22.5,
              "duration": 0.1625
            },
            {
              "pitch": 43,
              "velocity": 93,
              "position": 22.995833333333334,
              "duration": 0.15416666666666667
            },
            {
              "pitch": 46,
              "velocity": 90,
              "position": 23,
              "duration": 0.15416666666666667
            },
            {
              "pitch": 64,
              "velocity": 103,
              "position": 22.991666666666667,
              "duration": 0.1625
            },
            {
              "pitch": 48,
              "velocity": 89,
              "position": 23,
              "duration": 0.16041666666666668
            },
            {
              "pitch": 43,
              "velocity": 95,
              "position": 23.502083333333335,
              "duration": 0.14791666666666667
            },
            {
              "pitch": 46,
              "velocity": 92,
              "position": 23.49375,
              "duration": 0.17083333333333334
            },
            {
              "pitch": 48,
              "velocity": 92,
              "position": 23.497916666666665,
              "duration": 0.17708333333333334
            },
            {
              "pitch": 64,
              "velocity": 106,
              "position": 23.50625,
              "duration": 0.17083333333333334
            },
            {
              "pitch": 65,
              "velocity": 105,
              "position": 24.002083333333335,
              "duration": 0.14583333333333334
            },
            {
              "pitch": 43,
              "velocity": 88,
              "position": 23.989583333333332,
              "duration": 0.16875
            },
            {
              "pitch": 48,
              "velocity": 93,
              "position": 24.00625,
              "duration": 0.15833333333333333
            },
            {
              "pitch": 46,
              "velocity": 95,
              "position": 24,
              "duration": 0.16875
            },
            {
              "pitch": 46,
              "velocity": 91,
              "position": 24.497916666666665,
              "duration": 0.15416666666666667
            },
            {
              "pitch": 48,
              "velocity": 91,
              "position": 24.508333333333333,
              "duration": 0.14583333333333334
            },
            {
              "pitch": 65,
              "velocity": 102,
              "position": 24.502083333333335,
              "duration": 0.1625
            },
            {
              "pitch": 43,
              "velocity": 92,
              "position": 24.5,
              "duration": 0.175
            },
            {
              "pitch": 48,
              "velocity": 94,
              "position": 25,
              "duration": 0.14166666666666666
            },
            {
              "pitch": 65,
              "velocity": 102,
              "position": 25.00625,
              "duration": 0.14166666666666666
            },
            {
              "pitch": 46,
              "velocity": 95,
              "position": 24.989583333333332,
              "duration": 0.1625
            },
            {
              "pitch": 43,
              "velocity": 89,
              "position": 24.991666666666667,
              "duration": 0.16875
            },
            {
              "pitch": 46,
              "velocity": 92,
              "position": 25.495833333333334,
              "duration": 0.15208333333333332
            },
            {
              "pitch": 48,
              "velocity": 94,
              "position": 25.50625,
              "duration": 0.14166666666666666
            },
            {
              "pitch": 43,
              "velocity": 95,
              "position": 25.504166666666666,
              "duration": 0.14791666666666667
            },
            {
              "pitch": 65,
              "velocity": 100,
              "position": 25.491666666666667,
              "duration": 0.16666666666666666
            },
            {
              "pitch": 43,
              "velocity": 94,
              "position": 26,
              "duration": 0.15416666666666667
            },
            {
              "pitch": 48,
              "velocity": 92,
              "position": 26.002083333333335,
              "duration": 0.15208333333333332
            },
            {
              "pitch": 65,
              "velocity": 102,
              "position": 26.002083333333335,
              "duration": 0.15416666666666667
            },
            {
              "pitch": 46,
              "velocity": 90,
              "position": 25.99375,
              "duration": 0.16666666666666666
            },
            {
              "pitch": 65,
              "velocity": 102,
              "position": 26.49375,
              "duration": 0.14583333333333334
            },
            {
              "pitch": 43,
              "velocity": 95,
              "position": 26.495833333333334,
              "duration": 0.14583333333333334
            },
            {
              "pitch": 48,
              "velocity": 95,
              "position": 26.491666666666667,
              "duration": 0.16458333333333333
            },
            {
              "pitch": 46,
              "velocity": 88,
              "position": 26.504166666666666,
              "duration": 0.16458333333333333
            },
            {
              "pitch": 46,
              "velocity": 96,
              "position": 26.989583333333332,
              "duration": 0.14791666666666667
            },
            {
              "pitch": 48,
              "velocity": 95,
              "position": 26.991666666666667,
              "duration": 0.14583333333333334
            },
            {
              "pitch": 43,
              "velocity": 88,
              "position": 26.995833333333334,
              "duration": 0.16458333333333333
            },
            {
              "pitch": 65,
              "velocity": 106,
              "position": 26.989583333333332,
              "duration": 0.18125
            },
            {
              "pitch": 46,
              "velocity": 96,
              "position": 27.508333333333333,
              "duration": 0.15208333333333332
            },
            {
              "pitch": 43,
              "velocity": 92,
              "position": 27.495833333333334,
              "duration": 0.16875
            },
            {
              "pitch": 48,
              "velocity": 92,
              "position": 27.504166666666666,
              "duration": 0.17083333333333334
            },
            {
              "pitch": 65,
              "velocity": 98,
              "position": 27.508333333333333,
              "duration": 0.17916666666666667
            },
            {
              "pitch": 64,
              "velocity": 103,
              "position": 27.989583333333332,
              "duration": 0.14166666666666666
            },
            {
              "pitch": 46,
              "velocity": 88,
              "position": 28,
              "duration": 0.14166666666666666
            },
            {
              "pitch": 43,
              "velocity": 96,
              "position": 27.997916666666665,
              "duration": 0.16041666666666668
            },
            {
              "pitch": 48,
              "velocity": 95,
              "position": 28.008333333333333,
              "duration": 0.1625
            },
            {
              "pitch": 64,
              "velocity": 106,
              "position": 28.495833333333334,
              "duration": 0.14791666666666667
            },
            {
              "pitch": 46,
              "velocity": 90,
              "position": 28.502083333333335,
              "duration": 0.15625
            },
            {
              "pitch": 48,
              "velocity": 95,
              "position": 28.504166666666666,
              "duration": 0.16041666666666668
            },
            {
              "pitch": 43,
              "velocity": 93,
              "position": 28.502083333333335,
              "duration": 0.17708333333333334
            },
            {
              "pitch": 46,
              "velocity": 92,
              "position": 29,
              "duration": 0.15208333333333332
            },
            {
              "pitch": 48,
              "velocity": 92,
              "position": 28.991666666666667,
              "duration": 0.16666666666666666
            },
            {
              "pitch": 64,
              "velocity": 105,
              "position": 29.002083333333335,
              "duration": 0.16041666666666668
            },
            {
              "pitch": 43,
              "velocity": 92,
              "position": 29.008333333333333,
              "duration": 0.18125
            },
            {
              "pitch": 46,
              "velocity": 96,
              "position": 29.489583333333332,
              "duration": 0.175
            },
            {
              "pitch": 43,
              "velocity": 92,
              "position": 29.497916666666665,
              "duration": 0.16875
            },
            {
              "pitch": 64,
              "velocity": 100,
              "position": 29.495833333333334,
              "duration": 0.17291666666666666
            },
            {
              "pitch": 48,
              "velocity": 94,
              "position": 29.491666666666667,
              "duration": 0.17916666666666667
            },
            {
              "pitch": 43,
              "velocity": 93,
              "position": 30.008333333333333,
              "duration": 0.14375
            },
            {
              "pitch": 48,
              "velocity": 94,
              "position": 30.004166666666666,
              "duration": 0.15625
            },
            {
              "pitch": 64,
              "velocity": 101,
              "position": 30.008333333333333,
              "duration": 0.15208333333333332
            },
            {
              "pitch": 46,
              "velocity": 92,
              "position": 29.99375,
              "duration": 0.17916666666666667
            },
            {
              "pitch": 43,
              "velocity": 96,
              "position": 30.5,
              "duration": 0.14583333333333334
            },
            {
              "pitch": 46,
              "velocity": 96,
              "position": 30.489583333333332,
              "duration": 0.16666666666666666
            },
            {
              "pitch": 64,
              "velocity": 106,
              "position": 30.50625,
              "duration": 0.17291666666666666
            },
            {
              "pitch": 48,
              "velocity": 91,
              "position": 30.50625,
              "duration": 0.18125
            },
            {
              "pitch": 65,
              "velocity": 100,
              "position": 31.00625,
              "duration": 0.15833333333333333
            },
            {
              "pitch": 43,
              "velocity": 92,
              "position": 30.99375,
              "duration": 0.175
            },
            {
              "pitch": 48,
              "velocity": 93,
              "position": 31.002083333333335,
              "duration": 0.17083333333333334
            },
            {
              "pitch": 46,
              "velocity": 93,
              "position": 31,
              "duration": 0.17916666666666667
            },
            {
              "pitch": 65,
              "velocity": 98,
              "position": 31.491666666666667,
              "duration": 0.14583333333333334
            },
            {
              "pitch": 48,
              "velocity": 92,
              "position": 31.489583333333332,
              "duration": 0.16666666666666666
            },
            {
              "pitch": 43,
              "velocity": 88,
              "position": 31.508333333333333,
              "duration": 0.15
            },
            {
              "pitch": 46,
              "velocity": 91,
              "position": 31.502083333333335,
              "duration": 0.175
            }
          ]
        },
        "14": {
          "ctab": {
            "srcChannel": 14,
            "name": "E.P  min",
            "accType": "CHORD2",
            "editable": false,
            "mutedNotes": [],
            "mutedChords": [
              "1+2+5",
              "sus4",
              "1+5",
              "1+8",
              "7aug",
              "Maj7aug",
              "7(#9)",
              "7(b13)",
              "7(b9)",
              "7(13)",
              "7#11",
              "7(9)",
              "7b5",
              "7sus4",
              "7th",
              "aug",
              "Maj6(9)",
              "Maj7(9)",
              "Maj(9)",
              "Maj7#11",
              "Maj7",
              "Maj6",
              "Maj"
            ],
            "autoStart": false,
            "sourceChordNote": 0,
            "sourceChordType": "min",
            "ctb2Low": null,
            "ctb2Main": {
              "ntr": "ROOT_TRANSPOSITION",
              "ntt": "BYPASS",
              "bassOn": false,
              "chordRootUpperLimit": 8,
              "noteLowLimit": 54,
              "noteHighLimit": 127,
              "rtr": "PITCH_SHIFT"
            },
            "ctb2High": null
          },
          "notes": [
            {
              "pitch": 58,
              "velocity": 100,
              "position": 0,
              "duration": 0.14583333333333334
            },
            {
              "pitch": 55,
              "velocity": 89,
              "position": 0.010416666666666666,
              "duration": 0.14791666666666667
            },
            {
              "pitch": 48,
              "velocity": 86,
              "position": 0.020833333333333332,
              "duration": 0.14791666666666667
            },
            {
              "pitch": 51,
              "velocity": 88,
              "position": 0.022916666666666665,
              "duration": 0.15208333333333332
            },
            {
              "pitch": 51,
              "velocity": 88,
              "position": 0.4979166666666667,
              "duration": 0.14583333333333334
            },
            {
              "pitch": 48,
              "velocity": 89,
              "position": 0.49583333333333335,
              "duration": 0.15625
            },
            {
              "pitch": 58,
              "velocity": 100,
              "position": 0.50625,
              "duration": 0.15
            },
            {
              "pitch": 55,
              "velocity": 88,
              "position": 0.49166666666666664,
              "duration": 0.17708333333333334
            },
            {
              "pitch": 51,
              "velocity": 94,
              "position": 0.9916666666666667,
              "duration": 0.14583333333333334
            },
            {
              "pitch": 55,
              "velocity": 89,
              "position": 0.99375,
              "duration": 0.15
            },
            {
              "pitch": 58,
              "velocity": 100,
              "position": 0.9895833333333334,
              "duration": 0.17708333333333334
            },
            {
              "pitch": 48,
              "velocity": 88,
              "position": 1,
              "duration": 0.17083333333333334
            },
            {
              "pitch": 55,
              "velocity": 91,
              "position": 1.4979166666666666,
              "duration": 0.14791666666666667
            },
            {
              "pitch": 48,
              "velocity": 92,
              "position": 1.49375,
              "duration": 0.15416666666666667
            },
            {
              "pitch": 58,
              "velocity": 101,
              "position": 1.5041666666666667,
              "duration": 0.14791666666666667
            },
            {
              "pitch": 51,
              "velocity": 87,
              "position": 1.50625,
              "duration": 0.15208333333333332
            },
            {
              "pitch": 58,
              "velocity": 103,
              "position": 1.99375,
              "duration": 0.14166666666666666
            },
            {
              "pitch": 51,
              "velocity": 94,
              "position": 2.00625,
              "duration": 0.15833333333333333
            },
            {
              "pitch": 55,
              "velocity": 86,
              "position": 2.002083333333333,
              "duration": 0.17291666666666666
            },
            {
              "pitch": 48,
              "velocity": 94,
              "position": 2,
              "duration": 0.17916666666666667
            },
            {
              "pitch": 55,
              "velocity": 90,
              "position": 2.5083333333333333,
              "duration": 0.14583333333333334
            },
            {
              "pitch": 58,
              "velocity": 97,
              "position": 2.495833333333333,
              "duration": 0.16041666666666668
            },
            {
              "pitch": 48,
              "velocity": 93,
              "position": 2.5,
              "duration": 0.17291666666666666
            },
            {
              "pitch": 51,
              "velocity": 89,
              "position": 2.5083333333333333,
              "duration": 0.17083333333333334
            },
            {
              "pitch": 51,
              "velocity": 89,
              "position": 2.99375,
              "duration": 0.14583333333333334
            },
            {
              "pitch": 55,
              "velocity": 88,
              "position": 2.997916666666667,
              "duration": 0.14375
            },
            {
              "pitch": 58,
              "velocity": 100,
              "position": 2.9895833333333335,
              "duration": 0.1625
            },
            {
              "pitch": 48,
              "velocity": 89,
              "position": 3.0083333333333333,
              "duration": 0.175
            },
            {
              "pitch": 58,
              "velocity": 97,
              "position": 3.497916666666667,
              "duration": 0.14791666666666667
            },
            {
              "pitch": 51,
              "velocity": 93,
              "position": 3.502083333333333,
              "duration": 0.16458333333333333
            },
            {
              "pitch": 48,
              "velocity": 90,
              "position": 3.4916666666666667,
              "duration": 0.18125
            },
            {
              "pitch": 55,
              "velocity": 87,
              "position": 3.5083333333333333,
              "duration": 0.16875
            },
            {
              "pitch": 53,
              "velocity": 86,
              "position": 3.995833333333333,
              "duration": 0.14791666666666667
            },
            {
              "pitch": 57,
              "velocity": 102,
              "position": 3.997916666666667,
              "duration": 0.15833333333333333
            },
            {
              "pitch": 48,
              "velocity": 89,
              "position": 4.00625,
              "duration": 0.15208333333333332
            },
            {
              "pitch": 55,
              "velocity": 88,
              "position": 4,
              "duration": 0.17916666666666667
            },
            {
              "pitch": 57,
              "velocity": 99,
              "position": 4.491666666666666,
              "duration": 0.15208333333333332
            },
            {
              "pitch": 48,
              "velocity": 93,
              "position": 4.491666666666666,
              "duration": 0.17291666666666666
            },
            {
              "pitch": 53,
              "velocity": 93,
              "position": 4.489583333333333,
              "duration": 0.175
            },
            {
              "pitch": 55,
              "velocity": 89,
              "position": 4.495833333333334,
              "duration": 0.17708333333333334
            },
            {
              "pitch": 48,
              "velocity": 94,
              "position": 4.989583333333333,
              "duration": 0.15833333333333333
            },
            {
              "pitch": 55,
              "velocity": 92,
              "position": 4.991666666666666,
              "duration": 0.16041666666666668
            },
            {
              "pitch": 57,
              "velocity": 97,
              "position": 5,
              "duration": 0.16875
            },
            {
              "pitch": 53,
              "velocity": 88,
              "position": 5.008333333333334,
              "duration": 0.16458333333333333
            },
            {
              "pitch": 48,
              "velocity": 92,
              "position": 5.5,
              "duration": 0.14791666666666667
            },
            {
              "pitch": 55,
              "velocity": 88,
              "position": 5.489583333333333,
              "duration": 0.16875
            },
            {
              "pitch": 53,
              "velocity": 87,
              "position": 5.508333333333334,
              "duration": 0.16041666666666668
            },
            {
              "pitch": 57,
              "velocity": 96,
              "position": 5.5,
              "duration": 0.16875
            },
            {
              "pitch": 48,
              "velocity": 88,
              "position": 6.002083333333333,
              "duration": 0.14583333333333334
            },
            {
              "pitch": 57,
              "velocity": 96,
              "position": 5.99375,
              "duration": 0.15416666666666667
            },
            {
              "pitch": 53,
              "velocity": 92,
              "position": 5.99375,
              "duration": 0.15625
            },
            {
              "pitch": 55,
              "velocity": 93,
              "position": 5.991666666666666,
              "duration": 0.1625
            },
            {
              "pitch": 55,
              "velocity": 92,
              "position": 6.49375,
              "duration": 0.14583333333333334
            },
            {
              "pitch": 48,
              "velocity": 89,
              "position": 6.495833333333334,
              "duration": 0.14791666666666667
            },
            {
              "pitch": 53,
              "velocity": 93,
              "position": 6.5,
              "duration": 0.15833333333333333
            },
            {
              "pitch": 57,
              "velocity": 97,
              "position": 6.5,
              "duration": 0.1625
            },
            {
              "pitch": 55,
              "velocity": 91,
              "position": 6.995833333333334,
              "duration": 0.15416666666666667
            },
            {
              "pitch": 53,
              "velocity": 91,
              "position": 6.991666666666666,
              "duration": 0.1625
            },
            {
              "pitch": 57,
              "velocity": 98,
              "position": 7,
              "duration": 0.15416666666666667
            },
            {
              "pitch": 48,
              "velocity": 87,
              "position": 7,
              "duration": 0.16041666666666668
            },
            {
              "pitch": 55,
              "velocity": 93,
              "position": 7.502083333333333,
              "duration": 0.14791666666666667
            },
            {
              "pitch": 57,
              "velocity": 100,
              "position": 7.49375,
              "duration": 0.17083333333333334
            },
            {
              "pitch": 48,
              "velocity": 90,
              "position": 7.497916666666667,
              "duration": 0.17708333333333334
            },
            {
              "pitch": 53,
              "velocity": 94,
              "position": 7.50625,
              "duration": 0.17083333333333334
            },
            {
              "pitch": 51,
              "velocity": 93,
              "position": 8.002083333333333,
              "duration": 0.14583333333333334
            },
            {
              "pitch": 55,
              "velocity": 86,
              "position": 7.989583333333333,
              "duration": 0.16875
            },
            {
              "pitch": 48,
              "velocity": 91,
              "position": 8.00625,
              "duration": 0.15833333333333333
            },
            {
              "pitch": 58,
              "velocity": 103,
              "position": 8,
              "duration": 0.16875
            },
            {
              "pitch": 58,
              "velocity": 99,
              "position": 8.497916666666667,
              "duration": 0.15416666666666667
            },
            {
              "pitch": 48,
              "velocity": 89,
              "position": 8.508333333333333,
              "duration": 0.14583333333333334
            },
            {
              "pitch": 51,
              "velocity": 90,
              "position": 8.502083333333333,
              "duration": 0.1625
            },
            {
              "pitch": 55,
              "velocity": 90,
              "position": 8.5,
              "duration": 0.175
            },
            {
              "pitch": 48,
              "velocity": 92,
              "position": 9,
              "duration": 0.14166666666666666
            },
            {
              "pitch": 51,
              "velocity": 90,
              "position": 9.00625,
              "duration": 0.14166666666666666
            },
            {
              "pitch": 58,
              "velocity": 103,
              "position": 8.989583333333334,
              "duration": 0.1625
            },
            {
              "pitch": 55,
              "velocity": 87,
              "position": 8.991666666666667,
              "duration": 0.16875
            },
            {
              "pitch": 48,
              "velocity": 92,
              "position": 9.50625,
              "duration": 0.14166666666666666
            },
            {
              "pitch": 58,
              "velocity": 100,
              "position": 9.495833333333334,
              "duration": 0.15208333333333332
            },
            {
              "pitch": 55,
              "velocity": 93,
              "position": 9.504166666666666,
              "duration": 0.14791666666666667
            },
            {
              "pitch": 51,
              "velocity": 88,
              "position": 9.491666666666667,
              "duration": 0.16666666666666666
            },
            {
              "pitch": 48,
              "velocity": 90,
              "position": 10.002083333333333,
              "duration": 0.15208333333333332
            },
            {
              "pitch": 55,
              "velocity": 92,
              "position": 10,
              "duration": 0.15416666666666667
            },
            {
              "pitch": 51,
              "velocity": 90,
              "position": 10.002083333333333,
              "duration": 0.15416666666666667
            },
            {
              "pitch": 58,
              "velocity": 98,
              "position": 9.99375,
              "duration": 0.16666666666666666
            },
            {
              "pitch": 51,
              "velocity": 90,
              "position": 10.49375,
              "duration": 0.14583333333333334
            },
            {
              "pitch": 55,
              "velocity": 93,
              "position": 10.495833333333334,
              "duration": 0.14583333333333334
            },
            {
              "pitch": 48,
              "velocity": 93,
              "position": 10.491666666666667,
              "duration": 0.16458333333333333
            },
            {
              "pitch": 58,
              "velocity": 96,
              "position": 10.504166666666666,
              "duration": 0.16458333333333333
            },
            {
              "pitch": 48,
              "velocity": 93,
              "position": 10.991666666666667,
              "duration": 0.14583333333333334
            },
            {
              "pitch": 58,
              "velocity": 104,
              "position": 10.989583333333334,
              "duration": 0.14791666666666667
            },
            {
              "pitch": 55,
              "velocity": 86,
              "position": 10.995833333333334,
              "duration": 0.16458333333333333
            },
            {
              "pitch": 51,
              "velocity": 94,
              "position": 10.989583333333334,
              "duration": 0.18125
            },
            {
              "pitch": 58,
              "velocity": 104,
              "position": 11.508333333333333,
              "duration": 0.15208333333333332
            },
            {
              "pitch": 55,
              "velocity": 90,
              "position": 11.495833333333334,
              "duration": 0.16875
            },
            {
              "pitch": 48,
              "velocity": 90,
              "position": 11.504166666666666,
              "duration": 0.17083333333333334
            },
            {
              "pitch": 51,
              "velocity": 86,
              "position": 11.508333333333333,
              "duration": 0.17916666666666667
            },
            {
              "pitch": 53,
              "velocity": 91,
              "position": 11.989583333333334,
              "duration": 0.14166666666666666
            },
            {
              "pitch": 57,
              "velocity": 96,
              "position": 12,
              "duration": 0.14166666666666666
            },
            {
              "pitch": 55,
              "velocity": 94,
              "position": 11.997916666666667,
              "duration": 0.16041666666666668
            },
            {
              "pitch": 48,
              "velocity": 93,
              "position": 12.008333333333333,
              "duration": 0.1625
            },
            {
              "pitch": 53,
              "velocity": 94,
              "position": 12.495833333333334,
              "duration": 0.14791666666666667
            },
            {
              "pitch": 57,
              "velocity": 98,
              "position": 12.502083333333333,
              "duration": 0.15625
            },
            {
              "pitch": 48,
              "velocity": 93,
              "position": 12.504166666666666,
              "duration": 0.16041666666666668
            },
            {
              "pitch": 55,
              "velocity": 91,
              "position": 12.502083333333333,
              "duration": 0.17708333333333334
            },
            {
              "pitch": 57,
              "velocity": 100,
              "position": 13,
              "duration": 0.15208333333333332
            },
            {
              "pitch": 48,
              "velocity": 90,
              "position": 12.991666666666667,
              "duration": 0.16666666666666666
            },
            {
              "pitch": 53,
              "velocity": 93,
              "position": 13.002083333333333,
              "duration": 0.16041666666666668
            },
            {
              "pitch": 55,
              "velocity": 90,
              "position": 13.008333333333333,
              "duration": 0.18125
            },
            {
              "pitch": 57,
              "velocity": 104,
              "position": 13.489583333333334,
              "duration": 0.175
            },
            {
              "pitch": 55,
              "velocity": 90,
              "position": 13.497916666666667,
              "duration": 0.16875
            },
            {
              "pitch": 53,
              "velocity": 88,
              "position": 13.495833333333334,
              "duration": 0.17291666666666666
            },
            {
              "pitch": 48,
              "velocity": 92,
              "position": 13.491666666666667,
              "duration": 0.17916666666666667
            },
            {
              "pitch": 55,
              "velocity": 91,
              "position": 14.008333333333333,
              "duration": 0.14375
            },
            {
              "pitch": 48,
              "velocity": 92,
              "position": 14.004166666666666,
              "duration": 0.15625
            },
            {
              "pitch": 53,
              "velocity": 89,
              "position": 14.008333333333333,
              "duration": 0.15208333333333332
            },
            {
              "pitch": 57,
              "velocity": 100,
              "position": 13.99375,
              "duration": 0.17916666666666667
            },
            {
              "pitch": 55,
              "velocity": 94,
              "position": 14.5,
              "duration": 0.14583333333333334
            },
            {
              "pitch": 57,
              "velocity": 104,
              "position": 14.489583333333334,
              "duration": 0.16666666666666666
            },
            {
              "pitch": 53,
              "velocity": 94,
              "position": 14.50625,
              "duration": 0.17291666666666666
            },
            {
              "pitch": 48,
              "velocity": 89,
              "position": 14.50625,
              "duration": 0.18125
            },
            {
              "pitch": 53,
              "velocity": 88,
              "position": 15.00625,
              "duration": 0.15833333333333333
            },
            {
              "pitch": 55,
              "velocity": 90,
              "position": 14.99375,
              "duration": 0.175
            },
            {
              "pitch": 48,
              "velocity": 91,
              "position": 15.002083333333333,
              "duration": 0.17083333333333334
            },
            {
              "pitch": 57,
              "velocity": 101,
              "position": 15,
              "duration": 0.17916666666666667
            },
            {
              "pitch": 53,
              "velocity": 86,
              "position": 15.491666666666667,
              "duration": 0.14583333333333334
            },
            {
              "pitch": 48,
              "velocity": 90,
              "position": 15.489583333333334,
              "duration": 0.16666666666666666
            },
            {
              "pitch": 55,
              "velocity": 86,
              "position": 15.508333333333333,
              "duration": 0.15
            },
            {
              "pitch": 57,
              "velocity": 99,
              "position": 15.502083333333333,
              "duration": 0.175
            },
            {
              "pitch": 55,
              "velocity": 89,
              "position": 16.010416666666668,
              "duration": 0.14791666666666667
            },
            {
              "pitch": 58,
              "velocity": 100,
              "position": 16.014583333333334,
              "duration": 0.14583333333333334
            },
            {
              "pitch": 48,
              "velocity": 86,
              "position": 16.020833333333332,
              "duration": 0.14791666666666667
            },
            {
              "pitch": 51,
              "velocity": 88,
              "position": 16.022916666666667,
              "duration": 0.15208333333333332
            },
            {
              "pitch": 51,
              "velocity": 88,
              "position": 16.497916666666665,
              "duration": 0.14583333333333334
            },
            {
              "pitch": 48,
              "velocity": 89,
              "position": 16.495833333333334,
              "duration": 0.15625
            },
            {
              "pitch": 58,
              "velocity": 100,
              "position": 16.50625,
              "duration": 0.15
            },
            {
              "pitch": 55,
              "velocity": 88,
              "position": 16.491666666666667,
              "duration": 0.17708333333333334
            },
            {
              "pitch": 51,
              "velocity": 94,
              "position": 16.991666666666667,
              "duration": 0.14583333333333334
            },
            {
              "pitch": 55,
              "velocity": 89,
              "position": 16.99375,
              "duration": 0.15
            },
            {
              "pitch": 58,
              "velocity": 100,
              "position": 16.989583333333332,
              "duration": 0.17708333333333334
            },
            {
              "pitch": 48,
              "velocity": 88,
              "position": 17,
              "duration": 0.17083333333333334
            },
            {
              "pitch": 55,
              "velocity": 91,
              "position": 17.497916666666665,
              "duration": 0.14791666666666667
            },
            {
              "pitch": 48,
              "velocity": 92,
              "position": 17.49375,
              "duration": 0.15416666666666667
            },
            {
              "pitch": 58,
              "velocity": 101,
              "position": 17.504166666666666,
              "duration": 0.14791666666666667
            },
            {
              "pitch": 51,
              "velocity": 87,
              "position": 17.50625,
              "duration": 0.15208333333333332
            },
            {
              "pitch": 58,
              "velocity": 103,
              "position": 17.99375,
              "duration": 0.14166666666666666
            },
            {
              "pitch": 51,
              "velocity": 94,
              "position": 18.00625,
              "duration": 0.15833333333333333
            },
            {
              "pitch": 55,
              "velocity": 86,
              "position": 18.002083333333335,
              "duration": 0.17291666666666666
            },
            {
              "pitch": 48,
              "velocity": 94,
              "position": 18,
              "duration": 0.17916666666666667
            },
            {
              "pitch": 55,
              "velocity": 90,
              "position": 18.508333333333333,
              "duration": 0.14583333333333334
            },
            {
              "pitch": 58,
              "velocity": 97,
              "position": 18.495833333333334,
              "duration": 0.16041666666666668
            },
            {
              "pitch": 48,
              "velocity": 93,
              "position": 18.5,
              "duration": 0.17291666666666666
            },
            {
              "pitch": 51,
              "velocity": 89,
              "position": 18.508333333333333,
              "duration": 0.17083333333333334
            },
            {
              "pitch": 51,
              "velocity": 89,
              "position": 18.99375,
              "duration": 0.14583333333333334
            },
            {
              "pitch": 55,
              "velocity": 88,
              "position": 18.997916666666665,
              "duration": 0.14375
            },
            {
              "pitch": 58,
              "velocity": 100,
              "position": 18.989583333333332,
              "duration": 0.1625
            },
            {
              "pitch": 48,
              "velocity": 89,
              "position": 19.008333333333333,
              "duration": 0.175
            },
            {
              "pitch": 58,
              "velocity": 97,
              "position": 19.497916666666665,
              "duration": 0.14791666666666667
            },
            {
              "pitch": 51,
              "velocity": 93,
              "position": 19.502083333333335,
              "duration": 0.16458333333333333
            },
            {
              "pitch": 48,
              "velocity": 90,
              "position": 19.491666666666667,
              "duration": 0.18125
            },
            {
              "pitch": 55,
              "velocity": 87,
              "position": 19.508333333333333,
              "duration": 0.16875
            },
            {
              "pitch": 53,
              "velocity": 86,
              "position": 19.995833333333334,
              "duration": 0.14791666666666667
            },
            {
              "pitch": 57,
              "velocity": 102,
              "position": 19.997916666666665,
              "duration": 0.15833333333333333
            },
            {
              "pitch": 48,
              "velocity": 89,
              "position": 20.00625,
              "duration": 0.15208333333333332
            },
            {
              "pitch": 55,
              "velocity": 88,
              "position": 20,
              "duration": 0.17916666666666667
            },
            {
              "pitch": 57,
              "velocity": 99,
              "position": 20.491666666666667,
              "duration": 0.15208333333333332
            },
            {
              "pitch": 48,
              "velocity": 93,
              "position": 20.491666666666667,
              "duration": 0.17291666666666666
            },
            {
              "pitch": 53,
              "velocity": 93,
              "position": 20.489583333333332,
              "duration": 0.175
            },
            {
              "pitch": 55,
              "velocity": 89,
              "position": 20.495833333333334,
              "duration": 0.17708333333333334
            },
            {
              "pitch": 48,
              "velocity": 94,
              "position": 20.989583333333332,
              "duration": 0.15833333333333333
            },
            {
              "pitch": 55,
              "velocity": 92,
              "position": 20.991666666666667,
              "duration": 0.16041666666666668
            },
            {
              "pitch": 57,
              "velocity": 97,
              "position": 21,
              "duration": 0.16875
            },
            {
              "pitch": 53,
              "velocity": 88,
              "position": 21.008333333333333,
              "duration": 0.16458333333333333
            },
            {
              "pitch": 48,
              "velocity": 92,
              "position": 21.5,
              "duration": 0.14791666666666667
            },
            {
              "pitch": 55,
              "velocity": 88,
              "position": 21.489583333333332,
              "duration": 0.16875
            },
            {
              "pitch": 53,
              "velocity": 87,
              "position": 21.508333333333333,
              "duration": 0.16041666666666668
            },
            {
              "pitch": 57,
              "velocity": 96,
              "position": 21.5,
              "duration": 0.16875
            },
            {
              "pitch": 48,
              "velocity": 88,
              "position": 22.002083333333335,
              "duration": 0.14583333333333334
            },
            {
              "pitch": 57,
              "velocity": 96,
              "position": 21.99375,
              "duration": 0.15416666666666667
            },
            {
              "pitch": 53,
              "velocity": 92,
              "position": 21.99375,
              "duration": 0.15625
            },
            {
              "pitch": 55,
              "velocity": 93,
              "position": 21.991666666666667,
              "duration": 0.1625
            },
            {
              "pitch": 55,
              "velocity": 92,
              "position": 22.49375,
              "duration": 0.14583333333333334
            },
            {
              "pitch": 48,
              "velocity": 89,
              "position": 22.495833333333334,
              "duration": 0.14791666666666667
            },
            {
              "pitch": 53,
              "velocity": 93,
              "position": 22.5,
              "duration": 0.15833333333333333
            },
            {
              "pitch": 57,
              "velocity": 97,
              "position": 22.5,
              "duration": 0.1625
            },
            {
              "pitch": 55,
              "velocity": 91,
              "position": 22.995833333333334,
              "duration": 0.15416666666666667
            },
            {
              "pitch": 53,
              "velocity": 91,
              "position": 22.991666666666667,
              "duration": 0.1625
            },
            {
              "pitch": 57,
              "velocity": 98,
              "position": 23,
              "duration": 0.15416666666666667
            },
            {
              "pitch": 48,
              "velocity": 87,
              "position": 23,
              "duration": 0.16041666666666668
            },
            {
              "pitch": 55,
              "velocity": 93,
              "position": 23.502083333333335,
              "duration": 0.14791666666666667
            },
            {
              "pitch": 57,
              "velocity": 100,
              "position": 23.49375,
              "duration": 0.17083333333333334
            },
            {
              "pitch": 48,
              "velocity": 90,
              "position": 23.497916666666665,
              "duration": 0.17708333333333334
            },
            {
              "pitch": 53,
              "velocity": 94,
              "position": 23.50625,
              "duration": 0.17083333333333334
            },
            {
              "pitch": 51,
              "velocity": 93,
              "position": 24.002083333333335,
              "duration": 0.14583333333333334
            },
            {
              "pitch": 55,
              "velocity": 86,
              "position": 23.989583333333332,
              "duration": 0.16875
            },
            {
              "pitch": 48,
              "velocity": 91,
              "position": 24.00625,
              "duration": 0.15833333333333333
            },
            {
              "pitch": 58,
              "velocity": 103,
              "position": 24,
              "duration": 0.16875
            },
            {
              "pitch": 58,
              "velocity": 99,
              "position": 24.497916666666665,
              "duration": 0.15416666666666667
            },
            {
              "pitch": 48,
              "velocity": 89,
              "position": 24.508333333333333,
              "duration": 0.14583333333333334
            },
            {
              "pitch": 51,
              "velocity": 90,
              "position": 24.502083333333335,
              "duration": 0.1625
            },
            {
              "pitch": 55,
              "velocity": 90,
              "position": 24.5,
              "duration": 0.175
            },
            {
              "pitch": 48,
              "velocity": 92,
              "position": 25,
              "duration": 0.14166666666666666
            },
            {
              "pitch": 51,
              "velocity": 90,
              "position": 25.00625,
              "duration": 0.14166666666666666
            },
            {
              "pitch": 58,
              "velocity": 103,
              "position": 24.989583333333332,
              "duration": 0.1625
            },
            {
              "pitch": 55,
              "velocity": 87,
              "position": 24.991666666666667,
              "duration": 0.16875
            },
            {
              "pitch": 48,
              "velocity": 92,
              "position": 25.50625,
              "duration": 0.14166666666666666
            },
            {
              "pitch": 58,
              "velocity": 100,
              "position": 25.495833333333334,
              "duration": 0.15208333333333332
            },
            {
              "pitch": 55,
              "velocity": 93,
              "position": 25.504166666666666,
              "duration": 0.14791666666666667
            },
            {
              "pitch": 51,
              "velocity": 88,
              "position": 25.491666666666667,
              "duration": 0.16666666666666666
            },
            {
              "pitch": 48,
              "velocity": 90,
              "position": 26.002083333333335,
              "duration": 0.15208333333333332
            },
            {
              "pitch": 55,
              "velocity": 92,
              "position": 26,
              "duration": 0.15416666666666667
            },
            {
              "pitch": 51,
              "velocity": 90,
              "position": 26.002083333333335,
              "duration": 0.15416666666666667
            },
            {
              "pitch": 58,
              "velocity": 98,
              "position": 25.99375,
              "duration": 0.16666666666666666
            },
            {
              "pitch": 51,
              "velocity": 90,
              "position": 26.49375,
              "duration": 0.14583333333333334
            },
            {
              "pitch": 55,
              "velocity": 93,
              "position": 26.495833333333334,
              "duration": 0.14583333333333334
            },
            {
              "pitch": 48,
              "velocity": 93,
              "position": 26.491666666666667,
              "duration": 0.16458333333333333
            },
            {
              "pitch": 58,
              "velocity": 96,
              "position": 26.504166666666666,
              "duration": 0.16458333333333333
            },
            {
              "pitch": 48,
              "velocity": 93,
              "position": 26.991666666666667,
              "duration": 0.14583333333333334
            },
            {
              "pitch": 58,
              "velocity": 104,
              "position": 26.989583333333332,
              "duration": 0.14791666666666667
            },
            {
              "pitch": 55,
              "velocity": 86,
              "position": 26.995833333333334,
              "duration": 0.16458333333333333
            },
            {
              "pitch": 51,
              "velocity": 94,
              "position": 26.989583333333332,
              "duration": 0.18125
            },
            {
              "pitch": 58,
              "velocity": 104,
              "position": 27.508333333333333,
              "duration": 0.15208333333333332
            },
            {
              "pitch": 55,
              "velocity": 90,
              "position": 27.495833333333334,
              "duration": 0.16875
            },
            {
              "pitch": 48,
              "velocity": 90,
              "position": 27.504166666666666,
              "duration": 0.17083333333333334
            },
            {
              "pitch": 51,
              "velocity": 86,
              "position": 27.508333333333333,
              "duration": 0.17916666666666667
            },
            {
              "pitch": 53,
              "velocity": 92,
              "position": 27.989583333333332,
              "duration": 0.14166666666666666
            },
            {
              "pitch": 57,
              "velocity": 96,
              "position": 28,
              "duration": 0.14166666666666666
            },
            {
              "pitch": 55,
              "velocity": 94,
              "position": 27.997916666666665,
              "duration": 0.16041666666666668
            },
            {
              "pitch": 48,
              "velocity": 93,
              "position": 28.008333333333333,
              "duration": 0.1625
            },
            {
              "pitch": 53,
              "velocity": 95,
              "position": 28.495833333333334,
              "duration": 0.14791666666666667
            },
            {
              "pitch": 57,
              "velocity": 98,
              "position": 28.502083333333335,
              "duration": 0.15625
            },
            {
              "pitch": 48,
              "velocity": 93,
              "position": 28.504166666666666,
              "duration": 0.16041666666666668
            },
            {
              "pitch": 55,
              "velocity": 91,
              "position": 28.502083333333335,
              "duration": 0.17708333333333334
            },
            {
              "pitch": 57,
              "velocity": 100,
              "position": 29,
              "duration": 0.15208333333333332
            },
            {
              "pitch": 48,
              "velocity": 90,
              "position": 28.991666666666667,
              "duration": 0.16666666666666666
            },
            {
              "pitch": 53,
              "velocity": 94,
              "position": 29.002083333333335,
              "duration": 0.16041666666666668
            },
            {
              "pitch": 55,
              "velocity": 90,
              "position": 29.008333333333333,
              "duration": 0.18125
            },
            {
              "pitch": 57,
              "velocity": 104,
              "position": 29.489583333333332,
              "duration": 0.175
            },
            {
              "pitch": 55,
              "velocity": 90,
              "position": 29.497916666666665,
              "duration": 0.16875
            },
            {
              "pitch": 53,
              "velocity": 89,
              "position": 29.495833333333334,
              "duration": 0.17291666666666666
            },
            {
              "pitch": 48,
              "velocity": 92,
              "position": 29.491666666666667,
              "duration": 0.17916666666666667
            },
            {
              "pitch": 55,
              "velocity": 91,
              "position": 30.008333333333333,
              "duration": 0.14375
            },
            {
              "pitch": 48,
              "velocity": 92,
              "position": 30.004166666666666,
              "duration": 0.15625
            },
            {
              "pitch": 53,
              "velocity": 90,
              "position": 30.008333333333333,
              "duration": 0.15208333333333332
            },
            {
              "pitch": 57,
              "velocity": 100,
              "position": 29.99375,
              "duration": 0.17916666666666667
            },
            {
              "pitch": 55,
              "velocity": 94,
              "position": 30.5,
              "duration": 0.14583333333333334
            },
            {
              "pitch": 57,
              "velocity": 104,
              "position": 30.489583333333332,
              "duration": 0.16666666666666666
            },
            {
              "pitch": 53,
              "velocity": 95,
              "position": 30.50625,
              "duration": 0.17291666666666666
            },
            {
              "pitch": 48,
              "velocity": 89,
              "position": 30.50625,
              "duration": 0.18125
            },
            {
              "pitch": 53,
              "velocity": 89,
              "position": 31.00625,
              "duration": 0.15833333333333333
            },
            {
              "pitch": 55,
              "velocity": 90,
              "position": 30.99375,
              "duration": 0.175
            },
            {
              "pitch": 48,
              "velocity": 91,
              "position": 31.002083333333335,
              "duration": 0.17083333333333334
            },
            {
              "pitch": 57,
              "velocity": 101,
              "position": 31,
              "duration": 0.17916666666666667
            },
            {
              "pitch": 53,
              "velocity": 87,
              "position": 31.491666666666667,
              "duration": 0.14583333333333334
            },
            {
              "pitch": 48,
              "velocity": 90,
              "position": 31.489583333333332,
              "duration": 0.16666666666666666
            },
            {
              "pitch": 55,
              "velocity": 86,
              "position": 31.508333333333333,
              "duration": 0.15
            },
            {
              "pitch": 57,
              "velocity": 99,
              "position": 31.502083333333335,
              "duration": 0.175
            }
          ]
        }
      }
    },
    "Intro_C": {
      "type": "Intro_C",
      "sizeInBeats": 20,
      "channels": {
        "1": {
          "ctab": {
            "srcChannel": 1,
            "name": "Gtr  Maj",
            "accType": "CHORD1",
            "editable": false,
            "mutedNotes": [],
            "mutedChords": [
              "dim7",
              "dim",
              "minMaj7(9)",
              "minMaj7",
              "min7(11)",
              "min7(9)",
              "min(9)",
              "m7b5",
              "min7",
              "min6",
              "min"
            ],
            "autoStart": false,
            "sourceChordNote": 0,
            "sourceChordType": "Maj",
            "ctb2Low": null,
            "ctb2Main": {
              "ntr": "ROOT_TRANSPOSITION",
              "ntt": "BYPASS",
              "bassOn": false,
              "chordRootUpperLimit": 3,
              "noteLowLimit": 0,
              "noteHighLimit": 77,
              "rtr": "PITCH_SHIFT"
            },
            "ctb2High": null
          },
          "notes": [
            {
              "pitch": 108,
              "velocity": 97,
              "position": 4,
              "duration": 0.2833333333333333
            },
            {
              "pitch": 64,
              "velocity": 40,
              "position": 4.010416666666667,
              "duration": 0.2833333333333333
            },
            {
              "pitch": 79,
              "velocity": 50,
              "position": 4.010416666666667,
              "duration": 0.2833333333333333
            },
            {
              "pitch": 82,
              "velocity": 50,
              "position": 4.03125,
              "duration": 0.2625
            },
            {
              "pitch": 86,
              "velocity": 50,
              "position": 4.052083333333333,
              "duration": 0.24166666666666667
            },
            {
              "pitch": 107,
              "velocity": 30,
              "position": 4.291666666666667,
              "duration": 0.2
            },
            {
              "pitch": 79,
              "velocity": 50,
              "position": 4.5,
              "duration": 0.2833333333333333
            },
            {
              "pitch": 82,
              "velocity": 50,
              "position": 4.520833333333333,
              "duration": 0.2625
            },
            {
              "pitch": 86,
              "velocity": 50,
              "position": 4.541666666666667,
              "duration": 0.24166666666666667
            },
            {
              "pitch": 106,
              "velocity": 77,
              "position": 4.5,
              "duration": 0.2833333333333333
            },
            {
              "pitch": 107,
              "velocity": 30,
              "position": 4.791666666666667,
              "duration": 0.2
            },
            {
              "pitch": 79,
              "velocity": 40,
              "position": 5,
              "duration": 0.2833333333333333
            },
            {
              "pitch": 82,
              "velocity": 40,
              "position": 5.020833333333333,
              "duration": 0.2625
            },
            {
              "pitch": 86,
              "velocity": 40,
              "position": 5.041666666666667,
              "duration": 0.24166666666666667
            },
            {
              "pitch": 108,
              "velocity": 67,
              "position": 5,
              "duration": 0.2833333333333333
            },
            {
              "pitch": 107,
              "velocity": 30,
              "position": 5.291666666666667,
              "duration": 0.2
            },
            {
              "pitch": 86,
              "velocity": 50,
              "position": 5.541666666666667,
              "duration": 0.24166666666666667
            },
            {
              "pitch": 106,
              "velocity": 77,
              "position": 5.5,
              "duration": 0.2833333333333333
            },
            {
              "pitch": 82,
              "velocity": 50,
              "position": 5.520833333333333,
              "duration": 0.2833333333333333
            },
            {
              "pitch": 79,
              "velocity": 50,
              "position": 5.5,
              "duration": 0.325
            },
            {
              "pitch": 79,
              "velocity": 40,
              "position": 5.833333333333333,
              "duration": 0.15833333333333333
            },
            {
              "pitch": 82,
              "velocity": 40,
              "position": 5.8125,
              "duration": 0.17916666666666667
            },
            {
              "pitch": 86,
              "velocity": 40,
              "position": 5.791666666666667,
              "duration": 0.2
            },
            {
              "pitch": 108,
              "velocity": 67,
              "position": 5.791666666666667,
              "duration": 0.2
            },
            {
              "pitch": 104,
              "velocity": 30,
              "position": 6,
              "duration": 0.2833333333333333
            },
            {
              "pitch": 107,
              "velocity": 67,
              "position": 6.291666666666667,
              "duration": 0.2
            },
            {
              "pitch": 74,
              "velocity": 60,
              "position": 6.520833333333333,
              "duration": 0.2625
            },
            {
              "pitch": 108,
              "velocity": 97,
              "position": 6.5,
              "duration": 0.2833333333333333
            },
            {
              "pitch": 70,
              "velocity": 60,
              "position": 6.5,
              "duration": 0.49166666666666664
            },
            {
              "pitch": 107,
              "velocity": 67,
              "position": 6.791666666666667,
              "duration": 0.2
            },
            {
              "pitch": 74,
              "velocity": 30,
              "position": 6.791666666666667,
              "duration": 0.49166666666666664
            },
            {
              "pitch": 106,
              "velocity": 67,
              "position": 7,
              "duration": 0.2833333333333333
            },
            {
              "pitch": 70,
              "velocity": 30,
              "position": 7,
              "duration": 0.30416666666666664
            },
            {
              "pitch": 64,
              "velocity": 40,
              "position": 6.5,
              "duration": 0.9916666666666667
            },
            {
              "pitch": 70,
              "velocity": 20,
              "position": 7.3125,
              "duration": 0.17916666666666667
            },
            {
              "pitch": 105,
              "velocity": 57,
              "position": 7.291666666666667,
              "duration": 0.2
            },
            {
              "pitch": 74,
              "velocity": 20,
              "position": 7.291666666666667,
              "duration": 0.22083333333333333
            },
            {
              "pitch": 64,
              "velocity": 40,
              "position": 7.5,
              "duration": 0.2833333333333333
            },
            {
              "pitch": 70,
              "velocity": 60,
              "position": 7.5,
              "duration": 0.2833333333333333
            },
            {
              "pitch": 74,
              "velocity": 60,
              "position": 7.520833333333333,
              "duration": 0.2625
            },
            {
              "pitch": 108,
              "velocity": 97,
              "position": 7.5,
              "duration": 0.2833333333333333
            },
            {
              "pitch": 107,
              "velocity": 30,
              "position": 7.791666666666667,
              "duration": 0.2
            },
            {
              "pitch": 64,
              "velocity": 30,
              "position": 8,
              "duration": 0.2833333333333333
            },
            {
              "pitch": 79,
              "velocity": 40,
              "position": 8,
              "duration": 0.2833333333333333
            },
            {
              "pitch": 82,
              "velocity": 40,
              "position": 8.020833333333334,
              "duration": 0.2625
            },
            {
              "pitch": 86,
              "velocity": 40,
              "position": 8.041666666666666,
              "duration": 0.24166666666666667
            },
            {
              "pitch": 108,
              "velocity": 67,
              "position": 8,
              "duration": 0.2833333333333333
            },
            {
              "pitch": 107,
              "velocity": 30,
              "position": 8.291666666666666,
              "duration": 0.2
            },
            {
              "pitch": 79,
              "velocity": 50,
              "position": 8.5,
              "duration": 0.2833333333333333
            },
            {
              "pitch": 82,
              "velocity": 50,
              "position": 8.520833333333334,
              "duration": 0.2625
            },
            {
              "pitch": 86,
              "velocity": 50,
              "position": 8.541666666666666,
              "duration": 0.24166666666666667
            },
            {
              "pitch": 106,
              "velocity": 77,
              "position": 8.5,
              "duration": 0.2833333333333333
            },
            {
              "pitch": 107,
              "velocity": 30,
              "position": 8.791666666666666,
              "duration": 0.2
            },
            {
              "pitch": 79,
              "velocity": 40,
              "position": 9,
              "duration": 0.2833333333333333
            },
            {
              "pitch": 82,
              "velocity": 40,
              "position": 9.020833333333334,
              "duration": 0.2625
            },
            {
              "pitch": 86,
              "velocity": 40,
              "position": 9.041666666666666,
              "duration": 0.24166666666666667
            },
            {
              "pitch": 108,
              "velocity": 67,
              "position": 9,
              "duration": 0.2833333333333333
            },
            {
              "pitch": 107,
              "velocity": 30,
              "position": 9.291666666666666,
              "duration": 0.9916666666666667
            },
            {
              "pitch": 107,
              "velocity": 67,
              "position": 10.291666666666666,
              "duration": 0.2
            },
            {
              "pitch": 70,
              "velocity": 60,
              "position": 10.520833333333334,
              "duration": 0.2625
            },
            {
              "pitch": 108,
              "velocity": 97,
              "position": 10.5,
              "duration": 0.2833333333333333
            },
            {
              "pitch": 67,
              "velocity": 60,
              "position": 10.5,
              "duration": 0.30416666666666664
            },
            {
              "pitch": 72,
              "velocity": 100,
              "position": 10.791666666666666,
              "duration": 0.15833333333333333
            },
            {
              "pitch": 69,
              "velocity": 100,
              "position": 10.8125,
              "duration": 0.17916666666666667
            },
            {
              "pitch": 120,
              "velocity": 67,
              "position": 10.791666666666666,
              "duration": 0.2
            },
            {
              "pitch": 104,
              "velocity": 30,
              "position": 11,
              "duration": 0.2833333333333333
            },
            {
              "pitch": 70,
              "velocity": 60,
              "position": 11.291666666666666,
              "duration": 0.15833333333333333
            },
            {
              "pitch": 67,
              "velocity": 60,
              "position": 11.3125,
              "duration": 0.17916666666666667
            },
            {
              "pitch": 107,
              "velocity": 97,
              "position": 11.291666666666666,
              "duration": 0.2
            },
            {
              "pitch": 104,
              "velocity": 30,
              "position": 11.5,
              "duration": 0.2833333333333333
            },
            {
              "pitch": 107,
              "velocity": 67,
              "position": 11.791666666666666,
              "duration": 0.2
            },
            {
              "pitch": 108,
              "velocity": 97,
              "position": 12,
              "duration": 0.2833333333333333
            },
            {
              "pitch": 64,
              "velocity": 40,
              "position": 12.010416666666666,
              "duration": 0.2833333333333333
            },
            {
              "pitch": 79,
              "velocity": 50,
              "position": 12.010416666666666,
              "duration": 0.2833333333333333
            },
            {
              "pitch": 82,
              "velocity": 50,
              "position": 12.03125,
              "duration": 0.2625
            },
            {
              "pitch": 86,
              "velocity": 50,
              "position": 12.052083333333334,
              "duration": 0.24166666666666667
            },
            {
              "pitch": 107,
              "velocity": 30,
              "position": 12.291666666666666,
              "duration": 0.2
            },
            {
              "pitch": 79,
              "velocity": 50,
              "position": 12.5,
              "duration": 0.2833333333333333
            },
            {
              "pitch": 82,
              "velocity": 50,
              "position": 12.520833333333334,
              "duration": 0.2625
            },
            {
              "pitch": 86,
              "velocity": 50,
              "position": 12.541666666666666,
              "duration": 0.24166666666666667
            },
            {
              "pitch": 106,
              "velocity": 77,
              "position": 12.5,
              "duration": 0.2833333333333333
            },
            {
              "pitch": 107,
              "velocity": 30,
              "position": 12.791666666666666,
              "duration": 0.2
            },
            {
              "pitch": 79,
              "velocity": 40,
              "position": 13,
              "duration": 0.2833333333333333
            },
            {
              "pitch": 82,
              "velocity": 40,
              "position": 13.020833333333334,
              "duration": 0.2625
            },
            {
              "pitch": 86,
              "velocity": 40,
              "position": 13.041666666666666,
              "duration": 0.24166666666666667
            },
            {
              "pitch": 108,
              "velocity": 67,
              "position": 13,
              "duration": 0.2833333333333333
            },
            {
              "pitch": 107,
              "velocity": 30,
              "position": 13.291666666666666,
              "duration": 0.2
            },
            {
              "pitch": 86,
              "velocity": 50,
              "position": 13.541666666666666,
              "duration": 0.24166666666666667
            },
            {
              "pitch": 106,
              "velocity": 77,
              "position": 13.5,
              "duration": 0.2833333333333333
            },
            {
              "pitch": 82,
              "velocity": 50,
              "position": 13.520833333333334,
              "duration": 0.2833333333333333
            },
            {
              "pitch": 79,
              "velocity": 50,
              "position": 13.5,
              "duration": 0.325
            },
            {
              "pitch": 79,
              "velocity": 40,
              "position": 13.833333333333334,
              "duration": 0.15833333333333333
            },
            {
              "pitch": 82,
              "velocity": 40,
              "position": 13.8125,
              "duration": 0.17916666666666667
            },
            {
              "pitch": 86,
              "velocity": 40,
              "position": 13.791666666666666,
              "duration": 0.2
            },
            {
              "pitch": 108,
              "velocity": 67,
              "position": 13.791666666666666,
              "duration": 0.2
            },
            {
              "pitch": 104,
              "velocity": 30,
              "position": 14,
              "duration": 0.2833333333333333
            },
            {
              "pitch": 107,
              "velocity": 67,
              "position": 14.291666666666666,
              "duration": 0.2
            },
            {
              "pitch": 74,
              "velocity": 60,
              "position": 14.520833333333334,
              "duration": 0.2625
            },
            {
              "pitch": 108,
              "velocity": 97,
              "position": 14.5,
              "duration": 0.2833333333333333
            },
            {
              "pitch": 70,
              "velocity": 60,
              "position": 14.5,
              "duration": 0.49166666666666664
            },
            {
              "pitch": 107,
              "velocity": 67,
              "position": 14.791666666666666,
              "duration": 0.2
            },
            {
              "pitch": 74,
              "velocity": 30,
              "position": 14.791666666666666,
              "duration": 0.49166666666666664
            },
            {
              "pitch": 106,
              "velocity": 67,
              "position": 15,
              "duration": 0.2833333333333333
            },
            {
              "pitch": 70,
              "velocity": 30,
              "position": 15,
              "duration": 0.30416666666666664
            },
            {
              "pitch": 64,
              "velocity": 40,
              "position": 14.5,
              "duration": 0.9916666666666667
            },
            {
              "pitch": 70,
              "velocity": 20,
              "position": 15.3125,
              "duration": 0.17916666666666667
            },
            {
              "pitch": 105,
              "velocity": 57,
              "position": 15.291666666666666,
              "duration": 0.2
            },
            {
              "pitch": 74,
              "velocity": 20,
              "position": 15.291666666666666,
              "duration": 0.22083333333333333
            },
            {
              "pitch": 64,
              "velocity": 40,
              "position": 15.5,
              "duration": 0.2833333333333333
            },
            {
              "pitch": 70,
              "velocity": 60,
              "position": 15.5,
              "duration": 0.2833333333333333
            },
            {
              "pitch": 74,
              "velocity": 60,
              "position": 15.520833333333334,
              "duration": 0.2625
            },
            {
              "pitch": 108,
              "velocity": 97,
              "position": 15.5,
              "duration": 0.2833333333333333
            },
            {
              "pitch": 107,
              "velocity": 30,
              "position": 15.791666666666666,
              "duration": 0.2
            },
            {
              "pitch": 64,
              "velocity": 30,
              "position": 16,
              "duration": 0.2833333333333333
            },
            {
              "pitch": 79,
              "velocity": 40,
              "position": 16,
              "duration": 0.2833333333333333
            },
            {
              "pitch": 82,
              "velocity": 40,
              "position": 16.020833333333332,
              "duration": 0.2625
            },
            {
              "pitch": 86,
              "velocity": 40,
              "position": 16.041666666666668,
              "duration": 0.24166666666666667
            },
            {
              "pitch": 108,
              "velocity": 67,
              "position": 16,
              "duration": 0.2833333333333333
            },
            {
              "pitch": 107,
              "velocity": 30,
              "position": 16.291666666666668,
              "duration": 0.2
            },
            {
              "pitch": 79,
              "velocity": 50,
              "position": 16.5,
              "duration": 0.2833333333333333
            },
            {
              "pitch": 82,
              "velocity": 50,
              "position": 16.520833333333332,
              "duration": 0.2625
            },
            {
              "pitch": 86,
              "velocity": 50,
              "position": 16.541666666666668,
              "duration": 0.24166666666666667
            },
            {
              "pitch": 106,
              "velocity": 77,
              "position": 16.5,
              "duration": 0.2833333333333333
            },
            {
              "pitch": 107,
              "velocity": 30,
              "position": 16.791666666666668,
              "duration": 0.2
            },
            {
              "pitch": 79,
              "velocity": 40,
              "position": 17,
              "duration": 0.2833333333333333
            },
            {
              "pitch": 82,
              "velocity": 40,
              "position": 17.020833333333332,
              "duration": 0.2625
            },
            {
              "pitch": 86,
              "velocity": 40,
              "position": 17.041666666666668,
              "duration": 0.24166666666666667
            },
            {
              "pitch": 108,
              "velocity": 67,
              "position": 17,
              "duration": 0.2833333333333333
            },
            {
              "pitch": 107,
              "velocity": 30,
              "position": 17.291666666666668,
              "duration": 0.2
            },
            {
              "pitch": 105,
              "velocity": 30,
              "position": 17.5,
              "duration": 0.2833333333333333
            },
            {
              "pitch": 107,
              "velocity": 67,
              "position": 17.791666666666668,
              "duration": 0.2
            },
            {
              "pitch": 108,
              "velocity": 97,
              "position": 18,
              "duration": 0.49166666666666664
            },
            {
              "pitch": 105,
              "velocity": 30,
              "position": 18.5,
              "duration": 0.2833333333333333
            },
            {
              "pitch": 107,
              "velocity": 67,
              "position": 18.791666666666668,
              "duration": 0.2
            },
            {
              "pitch": 108,
              "velocity": 97,
              "position": 19,
              "duration": 0.49166666666666664
            },
            {
              "pitch": 105,
              "velocity": 30,
              "position": 19.5,
              "duration": 0.2833333333333333
            },
            {
              "pitch": 107,
              "velocity": 67,
              "position": 19.791666666666668,
              "duration": 0.2
            }
          ]
        },
        "2": {
          "ctab": {
            "srcChannel": 2,
            "name": "Gtr  min",
            "accType": "CHORD1",
            "editable": false,
            "mutedNotes": [],
            "mutedChords": [
              "1+2+5",
              "sus4",
              "1+5",
              "1+8",
              "7aug",
              "Maj7aug",
              "7(#9)",
              "7(b13)",
              "7(b9)",
              "7(13)",
              "7#11",
              "7(9)",
              "7b5",
              "7sus4",
              "7th",
              "aug",
              "Maj6(9)",
              "Maj7(9)",
              "Maj(9)",
              "Maj7#11",
              "Maj7",
              "Maj6",
              "Maj"
            ],
            "autoStart": false,
            "sourceChordNote": 0,
            "sourceChordType": "min",
            "ctb2Low": null,
            "ctb2Main": {
              "ntr": "ROOT_TRANSPOSITION",
              "ntt": "BYPASS",
              "bassOn": false,
              "chordRootUpperLimit": 3,
              "noteLowLimit": 0,
              "noteHighLimit": 77,
              "rtr": "PITCH_SHIFT"
            },
            "ctb2High": null
          },
          "notes": [
            {
              "pitch": 63,
              "velocity": 30,
              "position": 4,
              "duration": 0.2833333333333333
            },
            {
              "pitch": 108,
              "velocity": 97,
              "position": 4,
              "duration": 0.2833333333333333
            },
            {
              "pitch": 79,
              "velocity": 50,
              "position": 4.010416666666667,
              "duration": 0.2833333333333333
            },
            {
              "pitch": 82,
              "velocity": 50,
              "position": 4.03125,
              "duration": 0.2625
            },
            {
              "pitch": 86,
              "velocity": 50,
              "position": 4.052083333333333,
              "duration": 0.24166666666666667
            },
            {
              "pitch": 107,
              "velocity": 30,
              "position": 4.291666666666667,
              "duration": 0.2
            },
            {
              "pitch": 79,
              "velocity": 50,
              "position": 4.541666666666667,
              "duration": 0.24166666666666667
            },
            {
              "pitch": 82,
              "velocity": 50,
              "position": 4.520833333333333,
              "duration": 0.2625
            },
            {
              "pitch": 89,
              "velocity": 42,
              "position": 4.5,
              "duration": 0.2833333333333333
            },
            {
              "pitch": 106,
              "velocity": 77,
              "position": 4.5,
              "duration": 0.2833333333333333
            },
            {
              "pitch": 107,
              "velocity": 30,
              "position": 4.791666666666667,
              "duration": 0.2
            },
            {
              "pitch": 79,
              "velocity": 40,
              "position": 5,
              "duration": 0.2833333333333333
            },
            {
              "pitch": 82,
              "velocity": 40,
              "position": 5.020833333333333,
              "duration": 0.2625
            },
            {
              "pitch": 86,
              "velocity": 40,
              "position": 5.041666666666667,
              "duration": 0.24166666666666667
            },
            {
              "pitch": 108,
              "velocity": 67,
              "position": 5,
              "duration": 0.2833333333333333
            },
            {
              "pitch": 107,
              "velocity": 30,
              "position": 5.291666666666667,
              "duration": 0.2
            },
            {
              "pitch": 86,
              "velocity": 50,
              "position": 5.541666666666667,
              "duration": 0.24166666666666667
            },
            {
              "pitch": 106,
              "velocity": 77,
              "position": 5.5,
              "duration": 0.2833333333333333
            },
            {
              "pitch": 82,
              "velocity": 50,
              "position": 5.520833333333333,
              "duration": 0.2833333333333333
            },
            {
              "pitch": 79,
              "velocity": 50,
              "position": 5.5,
              "duration": 0.325
            },
            {
              "pitch": 79,
              "velocity": 40,
              "position": 5.833333333333333,
              "duration": 0.15833333333333333
            },
            {
              "pitch": 82,
              "velocity": 40,
              "position": 5.8125,
              "duration": 0.17916666666666667
            },
            {
              "pitch": 86,
              "velocity": 40,
              "position": 5.791666666666667,
              "duration": 0.2
            },
            {
              "pitch": 108,
              "velocity": 67,
              "position": 5.791666666666667,
              "duration": 0.2
            },
            {
              "pitch": 104,
              "velocity": 30,
              "position": 6,
              "duration": 0.2833333333333333
            },
            {
              "pitch": 107,
              "velocity": 67,
              "position": 6.291666666666667,
              "duration": 0.2
            },
            {
              "pitch": 75,
              "velocity": 50,
              "position": 6.520833333333333,
              "duration": 0.2625
            },
            {
              "pitch": 108,
              "velocity": 97,
              "position": 6.5,
              "duration": 0.2833333333333333
            },
            {
              "pitch": 70,
              "velocity": 60,
              "position": 6.5,
              "duration": 0.49166666666666664
            },
            {
              "pitch": 107,
              "velocity": 67,
              "position": 6.791666666666667,
              "duration": 0.2
            },
            {
              "pitch": 75,
              "velocity": 40,
              "position": 6.791666666666667,
              "duration": 0.49166666666666664
            },
            {
              "pitch": 106,
              "velocity": 67,
              "position": 7,
              "duration": 0.2833333333333333
            },
            {
              "pitch": 70,
              "velocity": 30,
              "position": 7,
              "duration": 0.30416666666666664
            },
            {
              "pitch": 65,
              "velocity": 30,
              "position": 6.5,
              "duration": 0.9916666666666667
            },
            {
              "pitch": 70,
              "velocity": 20,
              "position": 7.3125,
              "duration": 0.17916666666666667
            },
            {
              "pitch": 105,
              "velocity": 57,
              "position": 7.291666666666667,
              "duration": 0.2
            },
            {
              "pitch": 75,
              "velocity": 30,
              "position": 7.291666666666667,
              "duration": 0.22083333333333333
            },
            {
              "pitch": 65,
              "velocity": 30,
              "position": 7.5,
              "duration": 0.2833333333333333
            },
            {
              "pitch": 70,
              "velocity": 60,
              "position": 7.5,
              "duration": 0.2833333333333333
            },
            {
              "pitch": 75,
              "velocity": 50,
              "position": 7.520833333333333,
              "duration": 0.2625
            },
            {
              "pitch": 108,
              "velocity": 97,
              "position": 7.5,
              "duration": 0.2833333333333333
            },
            {
              "pitch": 107,
              "velocity": 30,
              "position": 7.791666666666667,
              "duration": 0.2
            },
            {
              "pitch": 63,
              "velocity": 20,
              "position": 8,
              "duration": 0.2833333333333333
            },
            {
              "pitch": 79,
              "velocity": 40,
              "position": 8,
              "duration": 0.2833333333333333
            },
            {
              "pitch": 82,
              "velocity": 40,
              "position": 8.020833333333334,
              "duration": 0.2625
            },
            {
              "pitch": 86,
              "velocity": 40,
              "position": 8.041666666666666,
              "duration": 0.24166666666666667
            },
            {
              "pitch": 108,
              "velocity": 67,
              "position": 8,
              "duration": 0.2833333333333333
            },
            {
              "pitch": 107,
              "velocity": 30,
              "position": 8.291666666666666,
              "duration": 0.2
            },
            {
              "pitch": 79,
              "velocity": 50,
              "position": 8.541666666666666,
              "duration": 0.24166666666666667
            },
            {
              "pitch": 82,
              "velocity": 50,
              "position": 8.520833333333334,
              "duration": 0.2625
            },
            {
              "pitch": 89,
              "velocity": 42,
              "position": 8.5,
              "duration": 0.2833333333333333
            },
            {
              "pitch": 106,
              "velocity": 77,
              "position": 8.5,
              "duration": 0.2833333333333333
            },
            {
              "pitch": 107,
              "velocity": 30,
              "position": 8.791666666666666,
              "duration": 0.2
            },
            {
              "pitch": 79,
              "velocity": 40,
              "position": 9,
              "duration": 0.2833333333333333
            },
            {
              "pitch": 82,
              "velocity": 40,
              "position": 9.020833333333334,
              "duration": 0.2625
            },
            {
              "pitch": 86,
              "velocity": 40,
              "position": 9.041666666666666,
              "duration": 0.24166666666666667
            },
            {
              "pitch": 108,
              "velocity": 67,
              "position": 9,
              "duration": 0.2833333333333333
            },
            {
              "pitch": 107,
              "velocity": 30,
              "position": 9.291666666666666,
              "duration": 0.9916666666666667
            },
            {
              "pitch": 107,
              "velocity": 67,
              "position": 10.291666666666666,
              "duration": 0.2
            },
            {
              "pitch": 70,
              "velocity": 60,
              "position": 10.520833333333334,
              "duration": 0.2625
            },
            {
              "pitch": 108,
              "velocity": 97,
              "position": 10.5,
              "duration": 0.2833333333333333
            },
            {
              "pitch": 67,
              "velocity": 60,
              "position": 10.5,
              "duration": 0.30416666666666664
            },
            {
              "pitch": 72,
              "velocity": 100,
              "position": 10.791666666666666,
              "duration": 0.15833333333333333
            },
            {
              "pitch": 69,
              "velocity": 100,
              "position": 10.8125,
              "duration": 0.17916666666666667
            },
            {
              "pitch": 120,
              "velocity": 67,
              "position": 10.791666666666666,
              "duration": 0.2
            },
            {
              "pitch": 104,
              "velocity": 30,
              "position": 11,
              "duration": 0.2833333333333333
            },
            {
              "pitch": 70,
              "velocity": 60,
              "position": 11.291666666666666,
              "duration": 0.15833333333333333
            },
            {
              "pitch": 67,
              "velocity": 60,
              "position": 11.3125,
              "duration": 0.17916666666666667
            },
            {
              "pitch": 107,
              "velocity": 97,
              "position": 11.291666666666666,
              "duration": 0.2
            },
            {
              "pitch": 104,
              "velocity": 30,
              "position": 11.5,
              "duration": 0.2833333333333333
            },
            {
              "pitch": 107,
              "velocity": 67,
              "position": 11.791666666666666,
              "duration": 0.2
            },
            {
              "pitch": 108,
              "velocity": 97,
              "position": 12,
              "duration": 0.2833333333333333
            },
            {
              "pitch": 63,
              "velocity": 30,
              "position": 12.010416666666666,
              "duration": 0.2833333333333333
            },
            {
              "pitch": 79,
              "velocity": 50,
              "position": 12.010416666666666,
              "duration": 0.2833333333333333
            },
            {
              "pitch": 82,
              "velocity": 50,
              "position": 12.03125,
              "duration": 0.2625
            },
            {
              "pitch": 86,
              "velocity": 50,
              "position": 12.052083333333334,
              "duration": 0.24166666666666667
            },
            {
              "pitch": 107,
              "velocity": 30,
              "position": 12.291666666666666,
              "duration": 0.2
            },
            {
              "pitch": 79,
              "velocity": 50,
              "position": 12.541666666666666,
              "duration": 0.24166666666666667
            },
            {
              "pitch": 82,
              "velocity": 50,
              "position": 12.520833333333334,
              "duration": 0.2625
            },
            {
              "pitch": 89,
              "velocity": 42,
              "position": 12.5,
              "duration": 0.2833333333333333
            },
            {
              "pitch": 106,
              "velocity": 77,
              "position": 12.5,
              "duration": 0.2833333333333333
            },
            {
              "pitch": 107,
              "velocity": 30,
              "position": 12.791666666666666,
              "duration": 0.2
            },
            {
              "pitch": 79,
              "velocity": 40,
              "position": 13,
              "duration": 0.2833333333333333
            },
            {
              "pitch": 82,
              "velocity": 40,
              "position": 13.020833333333334,
              "duration": 0.2625
            },
            {
              "pitch": 86,
              "velocity": 40,
              "position": 13.041666666666666,
              "duration": 0.24166666666666667
            },
            {
              "pitch": 108,
              "velocity": 67,
              "position": 13,
              "duration": 0.2833333333333333
            },
            {
              "pitch": 107,
              "velocity": 30,
              "position": 13.291666666666666,
              "duration": 0.2
            },
            {
              "pitch": 86,
              "velocity": 50,
              "position": 13.541666666666666,
              "duration": 0.24166666666666667
            },
            {
              "pitch": 106,
              "velocity": 77,
              "position": 13.5,
              "duration": 0.2833333333333333
            },
            {
              "pitch": 82,
              "velocity": 50,
              "position": 13.520833333333334,
              "duration": 0.2833333333333333
            },
            {
              "pitch": 79,
              "velocity": 50,
              "position": 13.5,
              "duration": 0.325
            },
            {
              "pitch": 79,
              "velocity": 40,
              "position": 13.833333333333334,
              "duration": 0.15833333333333333
            },
            {
              "pitch": 82,
              "velocity": 40,
              "position": 13.8125,
              "duration": 0.17916666666666667
            },
            {
              "pitch": 86,
              "velocity": 40,
              "position": 13.791666666666666,
              "duration": 0.2
            },
            {
              "pitch": 108,
              "velocity": 67,
              "position": 13.791666666666666,
              "duration": 0.2
            },
            {
              "pitch": 104,
              "velocity": 30,
              "position": 14,
              "duration": 0.2833333333333333
            },
            {
              "pitch": 107,
              "velocity": 67,
              "position": 14.291666666666666,
              "duration": 0.2
            },
            {
              "pitch": 75,
              "velocity": 50,
              "position": 14.520833333333334,
              "duration": 0.2625
            },
            {
              "pitch": 108,
              "velocity": 97,
              "position": 14.5,
              "duration": 0.2833333333333333
            },
            {
              "pitch": 70,
              "velocity": 60,
              "position": 14.5,
              "duration": 0.49166666666666664
            },
            {
              "pitch": 107,
              "velocity": 67,
              "position": 14.791666666666666,
              "duration": 0.2
            },
            {
              "pitch": 75,
              "velocity": 40,
              "position": 14.791666666666666,
              "duration": 0.49166666666666664
            },
            {
              "pitch": 106,
              "velocity": 67,
              "position": 15,
              "duration": 0.2833333333333333
            },
            {
              "pitch": 70,
              "velocity": 30,
              "position": 15,
              "duration": 0.30416666666666664
            },
            {
              "pitch": 65,
              "velocity": 30,
              "position": 14.5,
              "duration": 0.9916666666666667
            },
            {
              "pitch": 70,
              "velocity": 20,
              "position": 15.3125,
              "duration": 0.17916666666666667
            },
            {
              "pitch": 105,
              "velocity": 57,
              "position": 15.291666666666666,
              "duration": 0.2
            },
            {
              "pitch": 75,
              "velocity": 30,
              "position": 15.291666666666666,
              "duration": 0.22083333333333333
            },
            {
              "pitch": 65,
              "velocity": 30,
              "position": 15.5,
              "duration": 0.2833333333333333
            },
            {
              "pitch": 70,
              "velocity": 60,
              "position": 15.5,
              "duration": 0.2833333333333333
            },
            {
              "pitch": 75,
              "velocity": 50,
              "position": 15.520833333333334,
              "duration": 0.2625
            },
            {
              "pitch": 108,
              "velocity": 97,
              "position": 15.5,
              "duration": 0.2833333333333333
            },
            {
              "pitch": 107,
              "velocity": 30,
              "position": 15.791666666666666,
              "duration": 0.2
            },
            {
              "pitch": 65,
              "velocity": 20,
              "position": 16,
              "duration": 0.2833333333333333
            },
            {
              "pitch": 77,
              "velocity": 40,
              "position": 16,
              "duration": 0.2833333333333333
            },
            {
              "pitch": 82,
              "velocity": 40,
              "position": 16.020833333333332,
              "duration": 0.2625
            },
            {
              "pitch": 86,
              "velocity": 40,
              "position": 16.041666666666668,
              "duration": 0.24166666666666667
            },
            {
              "pitch": 108,
              "velocity": 67,
              "position": 16,
              "duration": 0.2833333333333333
            },
            {
              "pitch": 107,
              "velocity": 30,
              "position": 16.291666666666668,
              "duration": 0.2
            },
            {
              "pitch": 82,
              "velocity": 50,
              "position": 16.520833333333332,
              "duration": 0.2625
            },
            {
              "pitch": 86,
              "velocity": 50,
              "position": 16.541666666666668,
              "duration": 0.24166666666666667
            },
            {
              "pitch": 89,
              "velocity": 42,
              "position": 16.5,
              "duration": 0.2833333333333333
            },
            {
              "pitch": 106,
              "velocity": 77,
              "position": 16.5,
              "duration": 0.2833333333333333
            },
            {
              "pitch": 107,
              "velocity": 30,
              "position": 16.791666666666668,
              "duration": 0.2
            },
            {
              "pitch": 77,
              "velocity": 40,
              "position": 17,
              "duration": 0.2833333333333333
            },
            {
              "pitch": 82,
              "velocity": 40,
              "position": 17.020833333333332,
              "duration": 0.2625
            },
            {
              "pitch": 86,
              "velocity": 40,
              "position": 17.041666666666668,
              "duration": 0.24166666666666667
            },
            {
              "pitch": 108,
              "velocity": 67,
              "position": 17,
              "duration": 0.2833333333333333
            },
            {
              "pitch": 107,
              "velocity": 30,
              "position": 17.291666666666668,
              "duration": 0.2
            },
            {
              "pitch": 105,
              "velocity": 30,
              "position": 17.5,
              "duration": 0.2833333333333333
            },
            {
              "pitch": 107,
              "velocity": 67,
              "position": 17.791666666666668,
              "duration": 0.2
            },
            {
              "pitch": 108,
              "velocity": 97,
              "position": 18,
              "duration": 0.49166666666666664
            },
            {
              "pitch": 105,
              "velocity": 30,
              "position": 18.5,
              "duration": 0.2833333333333333
            },
            {
              "pitch": 107,
              "velocity": 67,
              "position": 18.791666666666668,
              "duration": 0.2
            },
            {
              "pitch": 108,
              "velocity": 97,
              "position": 19,
              "duration": 0.49166666666666664
            },
            {
              "pitch": 105,
              "velocity": 30,
              "position": 19.5,
              "duration": 0.2833333333333333
            },
            {
              "pitch": 107,
              "velocity": 67,
              "position": 19.791666666666668,
              "duration": 0.2
            }
          ]
        },
        "4": {
          "ctab": {
            "srcChannel": 4,
            "name": "Brs  Maj",
            "accType": "PHRASE1",
            "editable": false,
            "mutedNotes": [],
            "mutedChords": [
              "dim7",
              "dim",
              "minMaj7(9)",
              "minMaj7",
              "min7(11)",
              "min7(9)",
              "min(9)",
              "m7b5",
              "min7",
              "min6",
              "min"
            ],
            "autoStart": false,
            "sourceChordNote": 0,
            "sourceChordType": "Maj",
            "ctb2Low": null,
            "ctb2Main": {
              "ntr": "ROOT_TRANSPOSITION",
              "ntt": "BYPASS",
              "bassOn": false,
              "chordRootUpperLimit": 4,
              "noteLowLimit": 34,
              "noteHighLimit": 127,
              "rtr": "PITCH_SHIFT"
            },
            "ctb2High": null
          },
          "notes": [
            {
              "pitch": 36,
              "velocity": 52,
              "position": 4.010416666666667,
              "duration": 7.977083333333334
            },
            {
              "pitch": 48,
              "velocity": 55,
              "position": 4.010416666666667,
              "duration": 7.977083333333334
            },
            {
              "pitch": 60,
              "velocity": 55,
              "position": 4.010416666666667,
              "duration": 7.977083333333334
            },
            {
              "pitch": 72,
              "velocity": 85,
              "position": 11.995833333333334,
              "duration": 5.639583333333333
            },
            {
              "pitch": 48,
              "velocity": 85,
              "position": 11.995833333333334,
              "duration": 5.677083333333333
            },
            {
              "pitch": 60,
              "velocity": 85,
              "position": 11.995833333333334,
              "duration": 5.677083333333333
            },
            {
              "pitch": 74,
              "velocity": 82,
              "position": 18,
              "duration": 0.22708333333333333
            },
            {
              "pitch": 63,
              "velocity": 82,
              "position": 18.010416666666668,
              "duration": 0.33125
            },
            {
              "pitch": 75,
              "velocity": 82,
              "position": 18.091666666666665,
              "duration": 0.3854166666666667
            },
            {
              "pitch": 63,
              "velocity": 82,
              "position": 18.35,
              "duration": 0.20208333333333334
            }
          ]
        },
        "5": {
          "ctab": {
            "srcChannel": 5,
            "name": "Brs  min",
            "accType": "PHRASE1",
            "editable": false,
            "mutedNotes": [],
            "mutedChords": [
              "1+2+5",
              "sus4",
              "1+5",
              "1+8",
              "7aug",
              "Maj7aug",
              "7(#9)",
              "7(b13)",
              "7(b9)",
              "7(13)",
              "7#11",
              "7(9)",
              "7b5",
              "7sus4",
              "7th",
              "aug",
              "Maj6(9)",
              "Maj7(9)",
              "Maj(9)",
              "Maj7#11",
              "Maj7",
              "Maj6",
              "Maj"
            ],
            "autoStart": false,
            "sourceChordNote": 0,
            "sourceChordType": "min",
            "ctb2Low": null,
            "ctb2Main": {
              "ntr": "ROOT_TRANSPOSITION",
              "ntt": "BYPASS",
              "bassOn": false,
              "chordRootUpperLimit": 4,
              "noteLowLimit": 34,
              "noteHighLimit": 127,
              "rtr": "PITCH_SHIFT"
            },
            "ctb2High": null
          },
          "notes": [
            {
              "pitch": 36,
              "velocity": 52,
              "position": 4.010416666666667,
              "duration": 7.977083333333334
            },
            {
              "pitch": 48,
              "velocity": 52,
              "position": 4.010416666666667,
              "duration": 7.977083333333334
            },
            {
              "pitch": 60,
              "velocity": 52,
              "position": 4.010416666666667,
              "duration": 7.977083333333334
            },
            {
              "pitch": 72,
              "velocity": 87,
              "position": 11.995833333333334,
              "duration": 5.639583333333333
            },
            {
              "pitch": 48,
              "velocity": 88,
              "position": 11.995833333333334,
              "duration": 5.677083333333333
            },
            {
              "pitch": 60,
              "velocity": 88,
              "position": 11.995833333333334,
              "duration": 5.677083333333333
            },
            {
              "pitch": 74,
              "velocity": 82,
              "position": 18,
              "duration": 0.22708333333333333
            },
            {
              "pitch": 63,
              "velocity": 82,
              "position": 18.010416666666668,
              "duration": 0.33958333333333335
            },
            {
              "pitch": 75,
              "velocity": 82,
              "position": 18.091666666666665,
              "duration": 0.3854166666666667
            }
          ]
        },
        "6": {
          "ctab": {
            "srcChannel": 6,
            "name": "Hns  Maj",
            "accType": "PHRASE2",
            "editable": false,
            "mutedNotes": [],
            "mutedChords": [
              "dim7",
              "dim",
              "minMaj7(9)",
              "minMaj7",
              "min7(11)",
              "min7(9)",
              "min(9)",
              "m7b5",
              "min7",
              "min6",
              "min"
            ],
            "autoStart": false,
            "sourceChordNote": 0,
            "sourceChordType": "Maj",
            "ctb2Low": null,
            "ctb2Main": {
              "ntr": "ROOT_TRANSPOSITION",
              "ntt": "BYPASS",
              "bassOn": false,
              "chordRootUpperLimit": 2,
              "noteLowLimit": 34,
              "noteHighLimit": 74,
              "rtr": "PITCH_SHIFT"
            },
            "ctb2High": null
          },
          "notes": [
            {
              "pitch": 60,
              "velocity": 110,
              "position": 4.010416666666667,
              "duration": 7.658333333333333
            },
            {
              "pitch": 48,
              "velocity": 110,
              "position": 4.010416666666667,
              "duration": 7.7
            },
            {
              "pitch": 62,
              "velocity": 30,
              "position": 11.625,
              "duration": 0.08958333333333333
            },
            {
              "pitch": 50,
              "velocity": 30,
              "position": 11.666666666666666,
              "duration": 0.10833333333333334
            },
            {
              "pitch": 64,
              "velocity": 35,
              "position": 11.6875,
              "duration": 0.08958333333333333
            },
            {
              "pitch": 65,
              "velocity": 40,
              "position": 11.75,
              "duration": 0.08958333333333333
            },
            {
              "pitch": 52,
              "velocity": 35,
              "position": 11.75,
              "duration": 0.10833333333333334
            },
            {
              "pitch": 67,
              "velocity": 45,
              "position": 11.8125,
              "duration": 0.08958333333333333
            },
            {
              "pitch": 53,
              "velocity": 40,
              "position": 11.833333333333334,
              "duration": 0.10833333333333334
            },
            {
              "pitch": 69,
              "velocity": 51,
              "position": 11.875,
              "duration": 0.08958333333333333
            },
            {
              "pitch": 36,
              "velocity": 110,
              "position": 4.010416666666667,
              "duration": 7.991666666666666
            },
            {
              "pitch": 55,
              "velocity": 45,
              "position": 11.916666666666666,
              "duration": 0.10833333333333334
            },
            {
              "pitch": 70,
              "velocity": 56,
              "position": 11.9375,
              "duration": 0.08958333333333333
            },
            {
              "pitch": 57,
              "velocity": 51,
              "position": 12,
              "duration": 0.10833333333333334
            },
            {
              "pitch": 58,
              "velocity": 56,
              "position": 12.083333333333334,
              "duration": 0.10833333333333334
            },
            {
              "pitch": 72,
              "velocity": 118,
              "position": 11.995833333333334,
              "duration": 5.639583333333333
            },
            {
              "pitch": 48,
              "velocity": 114,
              "position": 11.995833333333334,
              "duration": 5.677083333333333
            },
            {
              "pitch": 60,
              "velocity": 114,
              "position": 12.1625,
              "duration": 5.677083333333333
            },
            {
              "pitch": 74,
              "velocity": 51,
              "position": 18,
              "duration": 0.22708333333333333
            },
            {
              "pitch": 75,
              "velocity": 127,
              "position": 18.091666666666665,
              "duration": 0.3854166666666667
            },
            {
              "pitch": 87,
              "velocity": 123,
              "position": 18,
              "duration": 0.48125
            },
            {
              "pitch": 63,
              "velocity": 127,
              "position": 18.010416666666668,
              "duration": 0.4791666666666667
            },
            {
              "pitch": 64,
              "velocity": 51,
              "position": 18.35,
              "duration": 0.20208333333333334
            },
            {
              "pitch": 70,
              "velocity": 109,
              "position": 18.9875,
              "duration": 0.3416666666666667
            },
            {
              "pitch": 69,
              "velocity": 56,
              "position": 19.333333333333332,
              "duration": 0.10833333333333334
            },
            {
              "pitch": 62,
              "velocity": 102,
              "position": 19.016666666666666,
              "duration": 0.4666666666666667
            },
            {
              "pitch": 84,
              "velocity": 127,
              "position": 19.014583333333334,
              "duration": 0.47291666666666665
            },
            {
              "pitch": 67,
              "velocity": 51,
              "position": 19.416666666666668,
              "duration": 0.10833333333333334
            },
            {
              "pitch": 60,
              "velocity": 56,
              "position": 19.4375,
              "duration": 0.08958333333333333
            },
            {
              "pitch": 82,
              "velocity": 56,
              "position": 19.4375,
              "duration": 0.08958333333333333
            },
            {
              "pitch": 76,
              "velocity": 106,
              "position": 19.004166666666666,
              "duration": 0.5583333333333333
            },
            {
              "pitch": 58,
              "velocity": 51,
              "position": 19.5,
              "duration": 0.08958333333333333
            },
            {
              "pitch": 81,
              "velocity": 51,
              "position": 19.5,
              "duration": 0.08958333333333333
            },
            {
              "pitch": 74,
              "velocity": 56,
              "position": 19.541666666666668,
              "duration": 0.058333333333333334
            },
            {
              "pitch": 65,
              "velocity": 45,
              "position": 19.5,
              "duration": 0.10833333333333334
            },
            {
              "pitch": 72,
              "velocity": 51,
              "position": 19.583333333333332,
              "duration": 0.058333333333333334
            },
            {
              "pitch": 57,
              "velocity": 45,
              "position": 19.5625,
              "duration": 0.08958333333333333
            },
            {
              "pitch": 79,
              "velocity": 45,
              "position": 19.5625,
              "duration": 0.08958333333333333
            },
            {
              "pitch": 70,
              "velocity": 45,
              "position": 19.625,
              "duration": 0.058333333333333334
            },
            {
              "pitch": 64,
              "velocity": 40,
              "position": 19.583333333333332,
              "duration": 0.10833333333333334
            },
            {
              "pitch": 55,
              "velocity": 40,
              "position": 19.625,
              "duration": 0.08958333333333333
            },
            {
              "pitch": 77,
              "velocity": 40,
              "position": 19.625,
              "duration": 0.08958333333333333
            },
            {
              "pitch": 69,
              "velocity": 40,
              "position": 19.666666666666668,
              "duration": 0.058333333333333334
            },
            {
              "pitch": 67,
              "velocity": 35,
              "position": 19.708333333333332,
              "duration": 0.058333333333333334
            },
            {
              "pitch": 62,
              "velocity": 35,
              "position": 19.666666666666668,
              "duration": 0.10833333333333334
            },
            {
              "pitch": 53,
              "velocity": 35,
              "position": 19.6875,
              "duration": 0.08958333333333333
            },
            {
              "pitch": 76,
              "velocity": 35,
              "position": 19.6875,
              "duration": 0.08958333333333333
            },
            {
              "pitch": 65,
              "velocity": 30,
              "position": 19.75,
              "duration": 0.058333333333333334
            },
            {
              "pitch": 52,
              "velocity": 30,
              "position": 19.75,
              "duration": 0.08958333333333333
            },
            {
              "pitch": 74,
              "velocity": 30,
              "position": 19.75,
              "duration": 0.08958333333333333
            },
            {
              "pitch": 60,
              "velocity": 30,
              "position": 19.75,
              "duration": 0.10833333333333334
            }
          ]
        },
        "7": {
          "ctab": {
            "srcChannel": 7,
            "name": "Hns  min",
            "accType": "PHRASE2",
            "editable": false,
            "mutedNotes": [],
            "mutedChords": [
              "1+2+5",
              "sus4",
              "1+5",
              "1+8",
              "7aug",
              "Maj7aug",
              "7(#9)",
              "7(b13)",
              "7(b9)",
              "7(13)",
              "7#11",
              "7(9)",
              "7b5",
              "7sus4",
              "7th",
              "aug",
              "Maj6(9)",
              "Maj7(9)",
              "Maj(9)",
              "Maj7#11",
              "Maj7",
              "Maj6",
              "Maj"
            ],
            "autoStart": false,
            "sourceChordNote": 0,
            "sourceChordType": "min",
            "ctb2Low": null,
            "ctb2Main": {
              "ntr": "ROOT_TRANSPOSITION",
              "ntt": "BYPASS",
              "bassOn": false,
              "chordRootUpperLimit": 2,
              "noteLowLimit": 34,
              "noteHighLimit": 74,
              "rtr": "PITCH_SHIFT"
            },
            "ctb2High": null
          },
          "notes": [
            {
              "pitch": 60,
              "velocity": 110,
              "position": 4.010416666666667,
              "duration": 7.658333333333333
            },
            {
              "pitch": 48,
              "velocity": 110,
              "position": 4.010416666666667,
              "duration": 7.7
            },
            {
              "pitch": 62,
              "velocity": 30,
              "position": 11.625,
              "duration": 0.08958333333333333
            },
            {
              "pitch": 50,
              "velocity": 30,
              "position": 11.666666666666666,
              "duration": 0.10833333333333334
            },
            {
              "pitch": 63,
              "velocity": 35,
              "position": 11.6875,
              "duration": 0.08958333333333333
            },
            {
              "pitch": 65,
              "velocity": 40,
              "position": 11.75,
              "duration": 0.08958333333333333
            },
            {
              "pitch": 51,
              "velocity": 35,
              "position": 11.75,
              "duration": 0.10833333333333334
            },
            {
              "pitch": 67,
              "velocity": 45,
              "position": 11.8125,
              "duration": 0.08958333333333333
            },
            {
              "pitch": 53,
              "velocity": 40,
              "position": 11.833333333333334,
              "duration": 0.10833333333333334
            },
            {
              "pitch": 69,
              "velocity": 51,
              "position": 11.875,
              "duration": 0.08958333333333333
            },
            {
              "pitch": 36,
              "velocity": 110,
              "position": 4.010416666666667,
              "duration": 7.991666666666666
            },
            {
              "pitch": 55,
              "velocity": 45,
              "position": 11.916666666666666,
              "duration": 0.10833333333333334
            },
            {
              "pitch": 70,
              "velocity": 56,
              "position": 11.9375,
              "duration": 0.08958333333333333
            },
            {
              "pitch": 57,
              "velocity": 51,
              "position": 12,
              "duration": 0.10833333333333334
            },
            {
              "pitch": 58,
              "velocity": 56,
              "position": 12.083333333333334,
              "duration": 0.10833333333333334
            },
            {
              "pitch": 72,
              "velocity": 118,
              "position": 11.995833333333334,
              "duration": 5.639583333333333
            },
            {
              "pitch": 48,
              "velocity": 114,
              "position": 11.995833333333334,
              "duration": 5.677083333333333
            },
            {
              "pitch": 60,
              "velocity": 114,
              "position": 12.1625,
              "duration": 5.677083333333333
            },
            {
              "pitch": 74,
              "velocity": 51,
              "position": 18,
              "duration": 0.22708333333333333
            },
            {
              "pitch": 63,
              "velocity": 127,
              "position": 18.010416666666668,
              "duration": 0.33958333333333335
            },
            {
              "pitch": 75,
              "velocity": 127,
              "position": 18.091666666666665,
              "duration": 0.3854166666666667
            },
            {
              "pitch": 87,
              "velocity": 123,
              "position": 18,
              "duration": 0.48125
            },
            {
              "pitch": 63,
              "velocity": 51,
              "position": 18.35,
              "duration": 0.20208333333333334
            },
            {
              "pitch": 70,
              "velocity": 109,
              "position": 18.9875,
              "duration": 0.3416666666666667
            },
            {
              "pitch": 60,
              "velocity": 102,
              "position": 19.016666666666666,
              "duration": 0.42083333333333334
            },
            {
              "pitch": 69,
              "velocity": 56,
              "position": 19.333333333333332,
              "duration": 0.10833333333333334
            },
            {
              "pitch": 84,
              "velocity": 127,
              "position": 19.014583333333334,
              "duration": 0.47291666666666665
            },
            {
              "pitch": 67,
              "velocity": 51,
              "position": 19.416666666666668,
              "duration": 0.10833333333333334
            },
            {
              "pitch": 60,
              "velocity": 56,
              "position": 19.4375,
              "duration": 0.08958333333333333
            },
            {
              "pitch": 82,
              "velocity": 56,
              "position": 19.4375,
              "duration": 0.08958333333333333
            },
            {
              "pitch": 75,
              "velocity": 106,
              "position": 19.004166666666666,
              "duration": 0.5583333333333333
            },
            {
              "pitch": 58,
              "velocity": 51,
              "position": 19.5,
              "duration": 0.08958333333333333
            },
            {
              "pitch": 81,
              "velocity": 51,
              "position": 19.5,
              "duration": 0.08958333333333333
            },
            {
              "pitch": 74,
              "velocity": 56,
              "position": 19.541666666666668,
              "duration": 0.058333333333333334
            },
            {
              "pitch": 65,
              "velocity": 45,
              "position": 19.5,
              "duration": 0.10833333333333334
            },
            {
              "pitch": 72,
              "velocity": 51,
              "position": 19.583333333333332,
              "duration": 0.058333333333333334
            },
            {
              "pitch": 57,
              "velocity": 45,
              "position": 19.5625,
              "duration": 0.08958333333333333
            },
            {
              "pitch": 79,
              "velocity": 45,
              "position": 19.5625,
              "duration": 0.08958333333333333
            },
            {
              "pitch": 70,
              "velocity": 45,
              "position": 19.625,
              "duration": 0.058333333333333334
            },
            {
              "pitch": 63,
              "velocity": 40,
              "position": 19.583333333333332,
              "duration": 0.10833333333333334
            },
            {
              "pitch": 55,
              "velocity": 40,
              "position": 19.625,
              "duration": 0.08958333333333333
            },
            {
              "pitch": 77,
              "velocity": 40,
              "position": 19.625,
              "duration": 0.08958333333333333
            },
            {
              "pitch": 69,
              "velocity": 40,
              "position": 19.666666666666668,
              "duration": 0.058333333333333334
            },
            {
              "pitch": 67,
              "velocity": 35,
              "position": 19.708333333333332,
              "duration": 0.058333333333333334
            },
            {
              "pitch": 62,
              "velocity": 35,
              "position": 19.666666666666668,
              "duration": 0.10833333333333334
            },
            {
              "pitch": 53,
              "velocity": 35,
              "position": 19.6875,
              "duration": 0.08958333333333333
            },
            {
              "pitch": 75,
              "velocity": 35,
              "position": 19.6875,
              "duration": 0.08958333333333333
            },
            {
              "pitch": 65,
              "velocity": 30,
              "position": 19.75,
              "duration": 0.058333333333333334
            },
            {
              "pitch": 51,
              "velocity": 30,
              "position": 19.75,
              "duration": 0.08958333333333333
            },
            {
              "pitch": 74,
              "velocity": 30,
              "position": 19.75,
              "duration": 0.08958333333333333
            },
            {
              "pitch": 60,
              "velocity": 30,
              "position": 19.75,
              "duration": 0.10833333333333334
            }
          ]
        },
        "8": {
          "ctab": {
            "srcChannel": 8,
            "name": "Perc.",
            "accType": "SUBRHYTHM",
            "editable": false,
            "mutedNotes": [],
            "mutedChords": [],
            "autoStart": true,
            "sourceChordNote": 0,
            "sourceChordType": "Maj7",
            "ctb2Low": null,
            "ctb2Main": {
              "ntr": "ROOT_FIXED",
              "ntt": "BYPASS",
              "bassOn": false,
              "chordRootUpperLimit": 6,
              "noteLowLimit": 0,
              "noteHighLimit": 127,
              "rtr": "PITCH_SHIFT"
            },
            "ctb2High": null
          },
          "notes": [
            {
              "pitch": 68,
              "velocity": 120,
              "position": 4,
              "duration": 0.010416666666666666
            },
            {
              "pitch": 23,
              "velocity": 98,
              "position": 4.010416666666667,
              "duration": 0.010416666666666666
            },
            {
              "pitch": 22,
              "velocity": 50,
              "position": 4.272916666666666,
              "duration": 0.010416666666666666
            },
            {
              "pitch": 68,
              "velocity": 60,
              "position": 4.291666666666667,
              "duration": 0.010416666666666666
            },
            {
              "pitch": 68,
              "velocity": 74,
              "position": 4.5,
              "duration": 0.010416666666666666
            },
            {
              "pitch": 28,
              "velocity": 96,
              "position": 4.508333333333334,
              "duration": 0.010416666666666666
            },
            {
              "pitch": 22,
              "velocity": 50,
              "position": 4.766666666666667,
              "duration": 0.010416666666666666
            },
            {
              "pitch": 68,
              "velocity": 63,
              "position": 4.791666666666667,
              "duration": 0.010416666666666666
            },
            {
              "pitch": 68,
              "velocity": 124,
              "position": 5,
              "duration": 0.010416666666666666
            },
            {
              "pitch": 23,
              "velocity": 99,
              "position": 5.004166666666666,
              "duration": 0.010416666666666666
            },
            {
              "pitch": 18,
              "velocity": 90,
              "position": 5.020833333333333,
              "duration": 0.010416666666666666
            },
            {
              "pitch": 22,
              "velocity": 50,
              "position": 5.260416666666667,
              "duration": 0.010416666666666666
            },
            {
              "pitch": 68,
              "velocity": 39,
              "position": 5.291666666666667,
              "duration": 0.010416666666666666
            },
            {
              "pitch": 68,
              "velocity": 76,
              "position": 5.5,
              "duration": 0.010416666666666666
            },
            {
              "pitch": 24,
              "velocity": 95,
              "position": 5.50625,
              "duration": 0.010416666666666666
            },
            {
              "pitch": 25,
              "velocity": 92,
              "position": 5.779166666666667,
              "duration": 0.010416666666666666
            },
            {
              "pitch": 68,
              "velocity": 68,
              "position": 5.791666666666667,
              "duration": 0.010416666666666666
            },
            {
              "pitch": 23,
              "velocity": 101,
              "position": 5.989583333333333,
              "duration": 0.010416666666666666
            },
            {
              "pitch": 68,
              "velocity": 120,
              "position": 6,
              "duration": 0.010416666666666666
            },
            {
              "pitch": 22,
              "velocity": 50,
              "position": 6.2625,
              "duration": 0.010416666666666666
            },
            {
              "pitch": 68,
              "velocity": 64,
              "position": 6.291666666666667,
              "duration": 0.010416666666666666
            },
            {
              "pitch": 28,
              "velocity": 95,
              "position": 6.5,
              "duration": 0.010416666666666666
            },
            {
              "pitch": 68,
              "velocity": 59,
              "position": 6.5,
              "duration": 0.010416666666666666
            },
            {
              "pitch": 22,
              "velocity": 50,
              "position": 6.770833333333333,
              "duration": 0.010416666666666666
            },
            {
              "pitch": 68,
              "velocity": 70,
              "position": 6.791666666666667,
              "duration": 0.010416666666666666
            },
            {
              "pitch": 18,
              "velocity": 90,
              "position": 6.977083333333334,
              "duration": 0.010416666666666666
            },
            {
              "pitch": 23,
              "velocity": 99,
              "position": 6.991666666666666,
              "duration": 0.010416666666666666
            },
            {
              "pitch": 68,
              "velocity": 120,
              "position": 7,
              "duration": 0.010416666666666666
            },
            {
              "pitch": 22,
              "velocity": 50,
              "position": 7.279166666666667,
              "duration": 0.010416666666666666
            },
            {
              "pitch": 68,
              "velocity": 68,
              "position": 7.291666666666667,
              "duration": 0.010416666666666666
            },
            {
              "pitch": 68,
              "velocity": 74,
              "position": 7.5,
              "duration": 0.010416666666666666
            },
            {
              "pitch": 31,
              "velocity": 96,
              "position": 7.50625,
              "duration": 0.010416666666666666
            },
            {
              "pitch": 31,
              "velocity": 64,
              "position": 7.772916666666666,
              "duration": 0.010416666666666666
            },
            {
              "pitch": 68,
              "velocity": 42,
              "position": 7.791666666666667,
              "duration": 0.010416666666666666
            },
            {
              "pitch": 68,
              "velocity": 120,
              "position": 8,
              "duration": 0.010416666666666666
            },
            {
              "pitch": 23,
              "velocity": 98,
              "position": 8.010416666666666,
              "duration": 0.010416666666666666
            },
            {
              "pitch": 22,
              "velocity": 50,
              "position": 8.270833333333334,
              "duration": 0.010416666666666666
            },
            {
              "pitch": 68,
              "velocity": 64,
              "position": 8.291666666666666,
              "duration": 0.010416666666666666
            },
            {
              "pitch": 28,
              "velocity": 93,
              "position": 8.489583333333334,
              "duration": 0.010416666666666666
            },
            {
              "pitch": 68,
              "velocity": 81,
              "position": 8.5,
              "duration": 0.010416666666666666
            },
            {
              "pitch": 22,
              "velocity": 50,
              "position": 8.772916666666667,
              "duration": 0.010416666666666666
            },
            {
              "pitch": 68,
              "velocity": 52,
              "position": 8.791666666666666,
              "duration": 0.010416666666666666
            },
            {
              "pitch": 18,
              "velocity": 90,
              "position": 8.997916666666667,
              "duration": 0.010416666666666666
            },
            {
              "pitch": 23,
              "velocity": 99,
              "position": 8.997916666666667,
              "duration": 0.010416666666666666
            },
            {
              "pitch": 68,
              "velocity": 114,
              "position": 9,
              "duration": 0.010416666666666666
            },
            {
              "pitch": 22,
              "velocity": 50,
              "position": 9.277083333333334,
              "duration": 0.010416666666666666
            },
            {
              "pitch": 68,
              "velocity": 59,
              "position": 9.291666666666666,
              "duration": 0.010416666666666666
            },
            {
              "pitch": 68,
              "velocity": 82,
              "position": 9.5,
              "duration": 0.010416666666666666
            },
            {
              "pitch": 24,
              "velocity": 99,
              "position": 9.508333333333333,
              "duration": 0.010416666666666666
            },
            {
              "pitch": 25,
              "velocity": 95,
              "position": 9.766666666666667,
              "duration": 0.010416666666666666
            },
            {
              "pitch": 68,
              "velocity": 53,
              "position": 9.791666666666666,
              "duration": 0.010416666666666666
            },
            {
              "pitch": 68,
              "velocity": 114,
              "position": 10,
              "duration": 0.010416666666666666
            },
            {
              "pitch": 23,
              "velocity": 101,
              "position": 10.002083333333333,
              "duration": 0.010416666666666666
            },
            {
              "pitch": 22,
              "velocity": 50,
              "position": 10.279166666666667,
              "duration": 0.010416666666666666
            },
            {
              "pitch": 68,
              "velocity": 72,
              "position": 10.291666666666666,
              "duration": 0.010416666666666666
            },
            {
              "pitch": 28,
              "velocity": 99,
              "position": 10.5,
              "duration": 0.010416666666666666
            },
            {
              "pitch": 68,
              "velocity": 93,
              "position": 10.5,
              "duration": 0.010416666666666666
            },
            {
              "pitch": 22,
              "velocity": 50,
              "position": 10.777083333333334,
              "duration": 0.010416666666666666
            },
            {
              "pitch": 68,
              "velocity": 60,
              "position": 10.791666666666666,
              "duration": 0.010416666666666666
            },
            {
              "pitch": 18,
              "velocity": 90,
              "position": 10.977083333333333,
              "duration": 0.010416666666666666
            },
            {
              "pitch": 68,
              "velocity": 112,
              "position": 11,
              "duration": 0.010416666666666666
            },
            {
              "pitch": 23,
              "velocity": 99,
              "position": 11.002083333333333,
              "duration": 0.010416666666666666
            },
            {
              "pitch": 22,
              "velocity": 50,
              "position": 11.277083333333334,
              "duration": 0.010416666666666666
            },
            {
              "pitch": 68,
              "velocity": 63,
              "position": 11.291666666666666,
              "duration": 0.010416666666666666
            },
            {
              "pitch": 68,
              "velocity": 84,
              "position": 11.5,
              "duration": 0.010416666666666666
            },
            {
              "pitch": 31,
              "velocity": 93,
              "position": 11.508333333333333,
              "duration": 0.010416666666666666
            },
            {
              "pitch": 31,
              "velocity": 67,
              "position": 11.760416666666666,
              "duration": 0.010416666666666666
            },
            {
              "pitch": 68,
              "velocity": 60,
              "position": 11.791666666666666,
              "duration": 0.010416666666666666
            },
            {
              "pitch": 68,
              "velocity": 112,
              "position": 12,
              "duration": 0.010416666666666666
            },
            {
              "pitch": 23,
              "velocity": 98,
              "position": 12.010416666666666,
              "duration": 0.010416666666666666
            },
            {
              "pitch": 22,
              "velocity": 50,
              "position": 12.26875,
              "duration": 0.010416666666666666
            },
            {
              "pitch": 68,
              "velocity": 55,
              "position": 12.291666666666666,
              "duration": 0.010416666666666666
            },
            {
              "pitch": 28,
              "velocity": 96,
              "position": 12.491666666666667,
              "duration": 0.010416666666666666
            },
            {
              "pitch": 68,
              "velocity": 81,
              "position": 12.5,
              "duration": 0.010416666666666666
            },
            {
              "pitch": 22,
              "velocity": 50,
              "position": 12.779166666666667,
              "duration": 0.010416666666666666
            },
            {
              "pitch": 68,
              "velocity": 68,
              "position": 12.791666666666666,
              "duration": 0.010416666666666666
            },
            {
              "pitch": 18,
              "velocity": 90,
              "position": 13,
              "duration": 0.010416666666666666
            },
            {
              "pitch": 68,
              "velocity": 122,
              "position": 13,
              "duration": 0.010416666666666666
            },
            {
              "pitch": 23,
              "velocity": 99,
              "position": 13.008333333333333,
              "duration": 0.010416666666666666
            },
            {
              "pitch": 22,
              "velocity": 50,
              "position": 13.275,
              "duration": 0.010416666666666666
            },
            {
              "pitch": 68,
              "velocity": 53,
              "position": 13.291666666666666,
              "duration": 0.010416666666666666
            },
            {
              "pitch": 24,
              "velocity": 96,
              "position": 13.489583333333334,
              "duration": 0.010416666666666666
            },
            {
              "pitch": 68,
              "velocity": 93,
              "position": 13.5,
              "duration": 0.010416666666666666
            },
            {
              "pitch": 25,
              "velocity": 96,
              "position": 13.775,
              "duration": 0.010416666666666666
            },
            {
              "pitch": 68,
              "velocity": 66,
              "position": 13.791666666666666,
              "duration": 0.010416666666666666
            },
            {
              "pitch": 23,
              "velocity": 101,
              "position": 13.995833333333334,
              "duration": 0.010416666666666666
            },
            {
              "pitch": 68,
              "velocity": 107,
              "position": 14,
              "duration": 0.010416666666666666
            },
            {
              "pitch": 22,
              "velocity": 50,
              "position": 14.277083333333334,
              "duration": 0.010416666666666666
            },
            {
              "pitch": 68,
              "velocity": 45,
              "position": 14.291666666666666,
              "duration": 0.010416666666666666
            },
            {
              "pitch": 68,
              "velocity": 100,
              "position": 14.5,
              "duration": 0.010416666666666666
            },
            {
              "pitch": 28,
              "velocity": 96,
              "position": 14.502083333333333,
              "duration": 0.010416666666666666
            },
            {
              "pitch": 22,
              "velocity": 50,
              "position": 14.764583333333333,
              "duration": 0.010416666666666666
            },
            {
              "pitch": 68,
              "velocity": 55,
              "position": 14.791666666666666,
              "duration": 0.010416666666666666
            },
            {
              "pitch": 23,
              "velocity": 100,
              "position": 14.995833333333334,
              "duration": 0.010416666666666666
            },
            {
              "pitch": 68,
              "velocity": 112,
              "position": 15,
              "duration": 0.010416666666666666
            },
            {
              "pitch": 18,
              "velocity": 90,
              "position": 15.01875,
              "duration": 0.010416666666666666
            },
            {
              "pitch": 22,
              "velocity": 50,
              "position": 15.272916666666667,
              "duration": 0.010416666666666666
            },
            {
              "pitch": 68,
              "velocity": 42,
              "position": 15.291666666666666,
              "duration": 0.010416666666666666
            },
            {
              "pitch": 31,
              "velocity": 96,
              "position": 15.491666666666667,
              "duration": 0.010416666666666666
            },
            {
              "pitch": 68,
              "velocity": 103,
              "position": 15.5,
              "duration": 0.010416666666666666
            },
            {
              "pitch": 31,
              "velocity": 62,
              "position": 15.76875,
              "duration": 0.010416666666666666
            },
            {
              "pitch": 68,
              "velocity": 63,
              "position": 15.791666666666666,
              "duration": 0.010416666666666666
            },
            {
              "pitch": 68,
              "velocity": 114,
              "position": 16,
              "duration": 0.010416666666666666
            },
            {
              "pitch": 23,
              "velocity": 98,
              "position": 16.010416666666668,
              "duration": 0.010416666666666666
            },
            {
              "pitch": 22,
              "velocity": 50,
              "position": 16.266666666666666,
              "duration": 0.010416666666666666
            },
            {
              "pitch": 68,
              "velocity": 45,
              "position": 16.291666666666668,
              "duration": 0.010416666666666666
            },
            {
              "pitch": 28,
              "velocity": 93,
              "position": 16.49375,
              "duration": 0.010416666666666666
            },
            {
              "pitch": 68,
              "velocity": 100,
              "position": 16.5,
              "duration": 0.010416666666666666
            },
            {
              "pitch": 22,
              "velocity": 50,
              "position": 16.76875,
              "duration": 0.010416666666666666
            },
            {
              "pitch": 68,
              "velocity": 60,
              "position": 16.791666666666668,
              "duration": 0.010416666666666666
            },
            {
              "pitch": 23,
              "velocity": 100,
              "position": 17,
              "duration": 0.010416666666666666
            },
            {
              "pitch": 68,
              "velocity": 114,
              "position": 17,
              "duration": 0.010416666666666666
            },
            {
              "pitch": 18,
              "velocity": 90,
              "position": 17.016666666666666,
              "duration": 0.010416666666666666
            },
            {
              "pitch": 22,
              "velocity": 50,
              "position": 17.272916666666667,
              "duration": 0.010416666666666666
            },
            {
              "pitch": 68,
              "velocity": 56,
              "position": 17.291666666666668,
              "duration": 0.010416666666666666
            },
            {
              "pitch": 24,
              "velocity": 99,
              "position": 17.491666666666667,
              "duration": 0.010416666666666666
            },
            {
              "pitch": 68,
              "velocity": 103,
              "position": 17.5,
              "duration": 0.010416666666666666
            },
            {
              "pitch": 25,
              "velocity": 98,
              "position": 17.7625,
              "duration": 0.010416666666666666
            },
            {
              "pitch": 68,
              "velocity": 55,
              "position": 17.791666666666668,
              "duration": 0.010416666666666666
            },
            {
              "pitch": 68,
              "velocity": 114,
              "position": 18,
              "duration": 0.010416666666666666
            },
            {
              "pitch": 23,
              "velocity": 101,
              "position": 18.00625,
              "duration": 0.010416666666666666
            },
            {
              "pitch": 22,
              "velocity": 50,
              "position": 18.275,
              "duration": 0.010416666666666666
            },
            {
              "pitch": 68,
              "velocity": 76,
              "position": 18.291666666666668,
              "duration": 0.010416666666666666
            },
            {
              "pitch": 68,
              "velocity": 103,
              "position": 18.5,
              "duration": 0.010416666666666666
            },
            {
              "pitch": 28,
              "velocity": 99,
              "position": 18.504166666666666,
              "duration": 0.010416666666666666
            },
            {
              "pitch": 18,
              "velocity": 90,
              "position": 18.520833333333332,
              "duration": 0.010416666666666666
            },
            {
              "pitch": 22,
              "velocity": 50,
              "position": 18.770833333333332,
              "duration": 0.010416666666666666
            },
            {
              "pitch": 68,
              "velocity": 66,
              "position": 18.791666666666668,
              "duration": 0.010416666666666666
            },
            {
              "pitch": 18,
              "velocity": 90,
              "position": 18.99375,
              "duration": 0.010416666666666666
            },
            {
              "pitch": 68,
              "velocity": 118,
              "position": 19,
              "duration": 0.010416666666666666
            },
            {
              "pitch": 23,
              "velocity": 100,
              "position": 19.00625,
              "duration": 0.010416666666666666
            },
            {
              "pitch": 22,
              "velocity": 50,
              "position": 19.270833333333332,
              "duration": 0.010416666666666666
            },
            {
              "pitch": 68,
              "velocity": 59,
              "position": 19.291666666666668,
              "duration": 0.010416666666666666
            },
            {
              "pitch": 31,
              "velocity": 93,
              "position": 19.49375,
              "duration": 0.010416666666666666
            },
            {
              "pitch": 68,
              "velocity": 110,
              "position": 19.5,
              "duration": 0.010416666666666666
            },
            {
              "pitch": 31,
              "velocity": 64,
              "position": 19.775,
              "duration": 0.010416666666666666
            },
            {
              "pitch": 68,
              "velocity": 78,
              "position": 19.791666666666668,
              "duration": 0.010416666666666666
            }
          ]
        },
        "9": {
          "ctab": {
            "srcChannel": 9,
            "name": "Drums",
            "accType": "RHYTHM",
            "editable": false,
            "mutedNotes": [],
            "mutedChords": [],
            "autoStart": true,
            "sourceChordNote": 0,
            "sourceChordType": "Maj7",
            "ctb2Low": null,
            "ctb2Main": {
              "ntr": "ROOT_FIXED",
              "ntt": "BYPASS",
              "bassOn": false,
              "chordRootUpperLimit": 6,
              "noteLowLimit": 0,
              "noteHighLimit": 127,
              "rtr": "PITCH_SHIFT"
            },
            "ctb2High": null
          },
          "notes": [
            {
              "pitch": 42,
              "velocity": 80,
              "position": 0,
              "duration": 0.010416666666666666
            },
            {
              "pitch": 42,
              "velocity": 80,
              "position": 1,
              "duration": 0.010416666666666666
            },
            {
              "pitch": 42,
              "velocity": 10,
              "position": 1.625,
              "duration": 0.010416666666666666
            },
            {
              "pitch": 42,
              "velocity": 20,
              "position": 1.75,
              "duration": 0.010416666666666666
            },
            {
              "pitch": 42,
              "velocity": 30,
              "position": 1.875,
              "duration": 0.010416666666666666
            },
            {
              "pitch": 42,
              "velocity": 52,
              "position": 2,
              "duration": 0.010416666666666666
            },
            {
              "pitch": 42,
              "velocity": 20,
              "position": 2.1666666666666665,
              "duration": 0.010416666666666666
            },
            {
              "pitch": 42,
              "velocity": 30,
              "position": 2.3333333333333335,
              "duration": 0.010416666666666666
            },
            {
              "pitch": 42,
              "velocity": 64,
              "position": 2.5,
              "duration": 0.010416666666666666
            },
            {
              "pitch": 46,
              "velocity": 39,
              "position": 2.6458333333333335,
              "duration": 0.010416666666666666
            },
            {
              "pitch": 46,
              "velocity": 59,
              "position": 2.7916666666666665,
              "duration": 0.010416666666666666
            },
            {
              "pitch": 46,
              "velocity": 69,
              "position": 3,
              "duration": 0.010416666666666666
            },
            {
              "pitch": 44,
              "velocity": 80,
              "position": 4,
              "duration": 0.010416666666666666
            },
            {
              "pitch": 42,
              "velocity": 52,
              "position": 4.5,
              "duration": 0.010416666666666666
            },
            {
              "pitch": 42,
              "velocity": 80,
              "position": 5,
              "duration": 0.010416666666666666
            },
            {
              "pitch": 35,
              "velocity": 100,
              "position": 5.002083333333333,
              "duration": 0.010416666666666666
            },
            {
              "pitch": 42,
              "velocity": 52,
              "position": 5.5,
              "duration": 0.010416666666666666
            },
            {
              "pitch": 42,
              "velocity": 40,
              "position": 5.791666666666667,
              "duration": 0.010416666666666666
            },
            {
              "pitch": 42,
              "velocity": 52,
              "position": 6,
              "duration": 0.010416666666666666
            },
            {
              "pitch": 42,
              "velocity": 80,
              "position": 6.291666666666667,
              "duration": 0.010416666666666666
            },
            {
              "pitch": 42,
              "velocity": 40,
              "position": 6.5,
              "duration": 0.010416666666666666
            },
            {
              "pitch": 35,
              "velocity": 100,
              "position": 7,
              "duration": 0.010416666666666666
            },
            {
              "pitch": 42,
              "velocity": 80,
              "position": 7,
              "duration": 0.010416666666666666
            },
            {
              "pitch": 42,
              "velocity": 52,
              "position": 7.5,
              "duration": 0.010416666666666666
            },
            {
              "pitch": 42,
              "velocity": 30,
              "position": 7.645833333333333,
              "duration": 0.010416666666666666
            },
            {
              "pitch": 42,
              "velocity": 50,
              "position": 7.808333333333334,
              "duration": 0.010416666666666666
            },
            {
              "pitch": 42,
              "velocity": 80,
              "position": 8,
              "duration": 0.010416666666666666
            },
            {
              "pitch": 42,
              "velocity": 30,
              "position": 8.291666666666666,
              "duration": 0.010416666666666666
            },
            {
              "pitch": 42,
              "velocity": 52,
              "position": 8.5,
              "duration": 0.010416666666666666
            },
            {
              "pitch": 35,
              "velocity": 100,
              "position": 9,
              "duration": 0.010416666666666666
            },
            {
              "pitch": 42,
              "velocity": 80,
              "position": 9,
              "duration": 0.010416666666666666
            },
            {
              "pitch": 42,
              "velocity": 52,
              "position": 9.5,
              "duration": 0.010416666666666666
            },
            {
              "pitch": 42,
              "velocity": 80,
              "position": 9.791666666666666,
              "duration": 0.010416666666666666
            },
            {
              "pitch": 42,
              "velocity": 40,
              "position": 10,
              "duration": 0.010416666666666666
            },
            {
              "pitch": 42,
              "velocity": 30,
              "position": 10.291666666666666,
              "duration": 0.010416666666666666
            },
            {
              "pitch": 42,
              "velocity": 52,
              "position": 10.5,
              "duration": 0.010416666666666666
            },
            {
              "pitch": 42,
              "velocity": 20,
              "position": 10.791666666666666,
              "duration": 0.010416666666666666
            },
            {
              "pitch": 42,
              "velocity": 80,
              "position": 11,
              "duration": 0.010416666666666666
            },
            {
              "pitch": 35,
              "velocity": 100,
              "position": 11.002083333333333,
              "duration": 0.010416666666666666
            },
            {
              "pitch": 42,
              "velocity": 30,
              "position": 11.291666666666666,
              "duration": 0.010416666666666666
            },
            {
              "pitch": 42,
              "velocity": 52,
              "position": 11.5,
              "duration": 0.010416666666666666
            },
            {
              "pitch": 46,
              "velocity": 69,
              "position": 11.791666666666666,
              "duration": 0.010416666666666666
            },
            {
              "pitch": 44,
              "velocity": 60,
              "position": 12.5,
              "duration": 0.010416666666666666
            },
            {
              "pitch": 35,
              "velocity": 100,
              "position": 13,
              "duration": 0.010416666666666666
            },
            {
              "pitch": 42,
              "velocity": 80,
              "position": 13,
              "duration": 0.010416666666666666
            },
            {
              "pitch": 42,
              "velocity": 52,
              "position": 13.5,
              "duration": 0.010416666666666666
            },
            {
              "pitch": 42,
              "velocity": 40,
              "position": 13.791666666666666,
              "duration": 0.010416666666666666
            },
            {
              "pitch": 42,
              "velocity": 80,
              "position": 14,
              "duration": 0.010416666666666666
            },
            {
              "pitch": 42,
              "velocity": 40,
              "position": 14.291666666666666,
              "duration": 0.010416666666666666
            },
            {
              "pitch": 42,
              "velocity": 52,
              "position": 14.5,
              "duration": 0.010416666666666666
            },
            {
              "pitch": 42,
              "velocity": 40,
              "position": 14.791666666666666,
              "duration": 0.010416666666666666
            },
            {
              "pitch": 35,
              "velocity": 100,
              "position": 15,
              "duration": 0.010416666666666666
            },
            {
              "pitch": 42,
              "velocity": 80,
              "position": 15,
              "duration": 0.010416666666666666
            },
            {
              "pitch": 42,
              "velocity": 30,
              "position": 15.291666666666666,
              "duration": 0.010416666666666666
            },
            {
              "pitch": 42,
              "velocity": 40,
              "position": 15.5,
              "duration": 0.010416666666666666
            },
            {
              "pitch": 42,
              "velocity": 30,
              "position": 15.666666666666666,
              "duration": 0.010416666666666666
            },
            {
              "pitch": 42,
              "velocity": 52,
              "position": 15.833333333333334,
              "duration": 0.010416666666666666
            },
            {
              "pitch": 42,
              "velocity": 80,
              "position": 16,
              "duration": 0.010416666666666666
            },
            {
              "pitch": 42,
              "velocity": 40,
              "position": 16.291666666666668,
              "duration": 0.010416666666666666
            },
            {
              "pitch": 42,
              "velocity": 52,
              "position": 16.5,
              "duration": 0.010416666666666666
            },
            {
              "pitch": 35,
              "velocity": 100,
              "position": 17,
              "duration": 0.010416666666666666
            },
            {
              "pitch": 42,
              "velocity": 80,
              "position": 17,
              "duration": 0.010416666666666666
            },
            {
              "pitch": 35,
              "velocity": 52,
              "position": 17.291666666666668,
              "duration": 0.010416666666666666
            },
            {
              "pitch": 42,
              "velocity": 52,
              "position": 17.5,
              "duration": 0.010416666666666666
            },
            {
              "pitch": 35,
              "velocity": 44,
              "position": 17.791666666666668,
              "duration": 0.010416666666666666
            },
            {
              "pitch": 38,
              "velocity": 121,
              "position": 17.983333333333334,
              "duration": 0.010416666666666666
            },
            {
              "pitch": 38,
              "velocity": 65,
              "position": 18.052083333333332,
              "duration": 0.010416666666666666
            },
            {
              "pitch": 35,
              "velocity": 100,
              "position": 18.5,
              "duration": 0.010416666666666666
            },
            {
              "pitch": 46,
              "velocity": 69,
              "position": 18.5,
              "duration": 0.010416666666666666
            },
            {
              "pitch": 38,
              "velocity": 121,
              "position": 19,
              "duration": 0.010416666666666666
            },
            {
              "pitch": 44,
              "velocity": 80,
              "position": 19,
              "duration": 0.010416666666666666
            },
            {
              "pitch": 38,
              "velocity": 90,
              "position": 19.291666666666668,
              "duration": 0.010416666666666666
            },
            {
              "pitch": 45,
              "velocity": 50,
              "position": 19.5,
              "duration": 0.010416666666666666
            },
            {
              "pitch": 49,
              "velocity": 71,
              "position": 19.989583333333332,
              "duration": 0.010416666666666666
            }
          ]
        },
        "10": {
          "ctab": {
            "srcChannel": 10,
            "name": "Bass FX",
            "accType": "BASS",
            "editable": false,
            "mutedNotes": [],
            "mutedChords": [],
            "autoStart": false,
            "sourceChordNote": 0,
            "sourceChordType": "Maj7",
            "ctb2Low": null,
            "ctb2Main": {
              "ntr": "ROOT_FIXED",
              "ntt": "BYPASS",
              "bassOn": false,
              "chordRootUpperLimit": 7,
              "noteLowLimit": 0,
              "noteHighLimit": 127,
              "rtr": "PITCH_SHIFT"
            },
            "ctb2High": null
          },
          "notes": [
            {
              "pitch": 99,
              "velocity": 80,
              "position": 18.727083333333333,
              "duration": 1.2645833333333334
            }
          ]
        },
        "11": {
          "ctab": {
            "srcChannel": 11,
            "name": "Bass Maj",
            "accType": "BASS",
            "editable": false,
            "mutedNotes": [],
            "mutedChords": [
              "dim7",
              "dim",
              "minMaj7(9)",
              "minMaj7",
              "min7(11)",
              "min7(9)",
              "min(9)",
              "m7b5",
              "min7",
              "min6",
              "min"
            ],
            "autoStart": false,
            "sourceChordNote": 0,
            "sourceChordType": "Maj",
            "ctb2Low": null,
            "ctb2Main": {
              "ntr": "ROOT_TRANSPOSITION",
              "ntt": "BYPASS",
              "bassOn": false,
              "chordRootUpperLimit": 8,
              "noteLowLimit": 28,
              "noteHighLimit": 127,
              "rtr": "PITCH_SHIFT"
            },
            "ctb2High": null
          },
          "notes": [
            {
              "pitch": 43,
              "velocity": 111,
              "position": 2.7916666666666665,
              "duration": 0.17916666666666667
            },
            {
              "pitch": 51,
              "velocity": 61,
              "position": 3,
              "duration": 0.2833333333333333
            },
            {
              "pitch": 52,
              "velocity": 40,
              "position": 3.2916666666666665,
              "duration": 0.17916666666666667
            },
            {
              "pitch": 36,
              "velocity": 70,
              "position": 3.5,
              "duration": 14.4125
            }
          ]
        },
        "12": {
          "ctab": {
            "srcChannel": 12,
            "name": "Bass min",
            "accType": "BASS",
            "editable": false,
            "mutedNotes": [],
            "mutedChords": [
              "1+2+5",
              "sus4",
              "1+5",
              "1+8",
              "7aug",
              "Maj7aug",
              "7(#9)",
              "7(b13)",
              "7(b9)",
              "7(13)",
              "7#11",
              "7(9)",
              "7b5",
              "7sus4",
              "7th",
              "aug",
              "Maj6(9)",
              "Maj7(9)",
              "Maj(9)",
              "Maj7#11",
              "Maj7",
              "Maj6",
              "Maj"
            ],
            "autoStart": false,
            "sourceChordNote": 0,
            "sourceChordType": "min",
            "ctb2Low": null,
            "ctb2Main": {
              "ntr": "ROOT_TRANSPOSITION",
              "ntt": "BYPASS",
              "bassOn": false,
              "chordRootUpperLimit": 8,
              "noteLowLimit": 28,
              "noteHighLimit": 127,
              "rtr": "PITCH_SHIFT"
            },
            "ctb2High": null
          },
          "notes": [
            {
              "pitch": 53,
              "velocity": 61,
              "position": 2.7916666666666665,
              "duration": 0.49166666666666664
            },
            {
              "pitch": 51,
              "velocity": 30,
              "position": 3.2916666666666665,
              "duration": 0.2
            },
            {
              "pitch": 48,
              "velocity": 36,
              "position": 3.5,
              "duration": 0.49166666666666664
            },
            {
              "pitch": 36,
              "velocity": 70,
              "position": 4,
              "duration": 13.9125
            }
          ]
        },
        "13": {
          "ctab": {
            "srcChannel": 13,
            "name": "E.P  Maj",
            "accType": "CHORD2",
            "editable": false,
            "mutedNotes": [],
            "mutedChords": [
              "dim7",
              "dim",
              "minMaj7(9)",
              "minMaj7",
              "min7(11)",
              "min7(9)",
              "min(9)",
              "m7b5",
              "min7",
              "min6",
              "min"
            ],
            "autoStart": false,
            "sourceChordNote": 0,
            "sourceChordType": "Maj",
            "ctb2Low": null,
            "ctb2Main": {
              "ntr": "ROOT_TRANSPOSITION",
              "ntt": "BYPASS",
              "bassOn": false,
              "chordRootUpperLimit": 3,
              "noteLowLimit": 54,
              "noteHighLimit": 79,
              "rtr": "PITCH_SHIFT"
            },
            "ctb2High": null
          },
          "notes": [
            {
              "pitch": 86,
              "velocity": 89,
              "position": 3.589583333333333,
              "duration": 5.466666666666667
            },
            {
              "pitch": 79,
              "velocity": 93,
              "position": 3.7958333333333334,
              "duration": 5.26875
            },
            {
              "pitch": 52,
              "velocity": 63,
              "position": 3.9916666666666667,
              "duration": 5.1
            },
            {
              "pitch": 43,
              "velocity": 72,
              "position": 3.9833333333333334,
              "duration": 5.13125
            },
            {
              "pitch": 76,
              "velocity": 91,
              "position": 3.88125,
              "duration": 5.24375
            },
            {
              "pitch": 50,
              "velocity": 76,
              "position": 4,
              "duration": 5.13125
            },
            {
              "pitch": 46,
              "velocity": 47,
              "position": 3.9875,
              "duration": 5.16875
            },
            {
              "pitch": 82,
              "velocity": 72,
              "position": 3.6666666666666665,
              "duration": 5.491666666666666
            },
            {
              "pitch": 45,
              "velocity": 36,
              "position": 10.10625,
              "duration": 0.56875
            },
            {
              "pitch": 50,
              "velocity": 56,
              "position": 10.1,
              "duration": 0.5770833333333333
            },
            {
              "pitch": 46,
              "velocity": 53,
              "position": 10.08125,
              "duration": 0.60625
            },
            {
              "pitch": 53,
              "velocity": 64,
              "position": 10.075,
              "duration": 0.6229166666666667
            },
            {
              "pitch": 81,
              "velocity": 66,
              "position": 10.070833333333333,
              "duration": 0.6416666666666667
            },
            {
              "pitch": 77,
              "velocity": 78,
              "position": 10.077083333333333,
              "duration": 0.6375
            },
            {
              "pitch": 84,
              "velocity": 82,
              "position": 10.064583333333333,
              "duration": 0.65
            },
            {
              "pitch": 72,
              "velocity": 66,
              "position": 10.095833333333333,
              "duration": 0.6208333333333333
            },
            {
              "pitch": 45,
              "velocity": 52,
              "position": 11.08125,
              "duration": 0.4583333333333333
            },
            {
              "pitch": 81,
              "velocity": 66,
              "position": 11.060416666666667,
              "duration": 0.5020833333333333
            },
            {
              "pitch": 53,
              "velocity": 68,
              "position": 11.077083333333333,
              "duration": 0.5
            },
            {
              "pitch": 50,
              "velocity": 55,
              "position": 11.091666666666667,
              "duration": 0.49375
            },
            {
              "pitch": 84,
              "velocity": 91,
              "position": 11.05,
              "duration": 0.5416666666666666
            },
            {
              "pitch": 77,
              "velocity": 81,
              "position": 11.066666666666666,
              "duration": 0.53125
            },
            {
              "pitch": 46,
              "velocity": 60,
              "position": 11.085416666666667,
              "duration": 0.55625
            },
            {
              "pitch": 72,
              "velocity": 86,
              "position": 11.070833333333333,
              "duration": 0.6208333333333333
            },
            {
              "pitch": 76,
              "velocity": 82,
              "position": 12.052083333333334,
              "duration": 4.39375
            },
            {
              "pitch": 43,
              "velocity": 70,
              "position": 12.06875,
              "duration": 4.472916666666666
            },
            {
              "pitch": 52,
              "velocity": 60,
              "position": 12.066666666666666,
              "duration": 4.475
            },
            {
              "pitch": 50,
              "velocity": 64,
              "position": 12.054166666666667,
              "duration": 4.545833333333333
            },
            {
              "pitch": 79,
              "velocity": 81,
              "position": 12.060416666666667,
              "duration": 4.585416666666666
            },
            {
              "pitch": 84,
              "velocity": 70,
              "position": 12.064583333333333,
              "duration": 4.6125
            },
            {
              "pitch": 72,
              "velocity": 63,
              "position": 12.054166666666667,
              "duration": 4.654166666666667
            },
            {
              "pitch": 46,
              "velocity": 60,
              "position": 12.072916666666666,
              "duration": 4.75625
            },
            {
              "pitch": 64,
              "velocity": 53,
              "position": 16.791666666666668,
              "duration": 0.05416666666666667
            },
            {
              "pitch": 67,
              "velocity": 27,
              "position": 16.8125,
              "duration": 0.05625
            },
            {
              "pitch": 78,
              "velocity": 122,
              "position": 17.033333333333335,
              "duration": 0.17916666666666667
            },
            {
              "pitch": 84,
              "velocity": 120,
              "position": 17.041666666666668,
              "duration": 0.2833333333333333
            },
            {
              "pitch": 79,
              "velocity": 93,
              "position": 17.202083333333334,
              "duration": 0.23541666666666666
            },
            {
              "pitch": 67,
              "velocity": 38,
              "position": 17.61875,
              "duration": 0.05416666666666667
            },
            {
              "pitch": 78,
              "velocity": 112,
              "position": 17.8375,
              "duration": 0.17708333333333334
            },
            {
              "pitch": 77,
              "velocity": 122,
              "position": 18.314583333333335,
              "duration": 0.1625
            },
            {
              "pitch": 75,
              "velocity": 98,
              "position": 18.55,
              "duration": 0.16041666666666668
            },
            {
              "pitch": 72,
              "velocity": 84,
              "position": 18.802083333333332,
              "duration": 0.13958333333333334
            },
            {
              "pitch": 70,
              "velocity": 84,
              "position": 19.020833333333332,
              "duration": 0.26875
            },
            {
              "pitch": 67,
              "velocity": 91,
              "position": 19.304166666666667,
              "duration": 0.21041666666666667
            },
            {
              "pitch": 65,
              "velocity": 105,
              "position": 19.535416666666666,
              "duration": 0.09166666666666666
            }
          ]
        },
        "14": {
          "ctab": {
            "srcChannel": 14,
            "name": "E.P  min",
            "accType": "CHORD2",
            "editable": false,
            "mutedNotes": [],
            "mutedChords": [
              "1+2+5",
              "sus4",
              "1+5",
              "1+8",
              "7aug",
              "Maj7aug",
              "7(#9)",
              "7(b13)",
              "7(b9)",
              "7(13)",
              "7#11",
              "7(9)",
              "7b5",
              "7sus4",
              "7th",
              "aug",
              "Maj6(9)",
              "Maj7(9)",
              "Maj(9)",
              "Maj7#11",
              "Maj7",
              "Maj6",
              "Maj"
            ],
            "autoStart": false,
            "sourceChordNote": 0,
            "sourceChordType": "min",
            "ctb2Low": null,
            "ctb2Main": {
              "ntr": "ROOT_TRANSPOSITION",
              "ntt": "BYPASS",
              "bassOn": false,
              "chordRootUpperLimit": 3,
              "noteLowLimit": 54,
              "noteHighLimit": 79,
              "rtr": "PITCH_SHIFT"
            },
            "ctb2High": null
          },
          "notes": [
            {
              "pitch": 86,
              "velocity": 89,
              "position": 3.589583333333333,
              "duration": 5.466666666666667
            },
            {
              "pitch": 79,
              "velocity": 93,
              "position": 3.7958333333333334,
              "duration": 5.26875
            },
            {
              "pitch": 51,
              "velocity": 63,
              "position": 3.9916666666666667,
              "duration": 5.1
            },
            {
              "pitch": 43,
              "velocity": 72,
              "position": 3.9833333333333334,
              "duration": 5.13125
            },
            {
              "pitch": 75,
              "velocity": 91,
              "position": 3.88125,
              "duration": 5.24375
            },
            {
              "pitch": 48,
              "velocity": 76,
              "position": 4,
              "duration": 5.13125
            },
            {
              "pitch": 46,
              "velocity": 47,
              "position": 3.9875,
              "duration": 5.16875
            },
            {
              "pitch": 82,
              "velocity": 72,
              "position": 3.6666666666666665,
              "duration": 5.491666666666666
            },
            {
              "pitch": 45,
              "velocity": 36,
              "position": 10.10625,
              "duration": 0.56875
            },
            {
              "pitch": 48,
              "velocity": 56,
              "position": 10.1,
              "duration": 0.5770833333333333
            },
            {
              "pitch": 46,
              "velocity": 53,
              "position": 10.08125,
              "duration": 0.60625
            },
            {
              "pitch": 53,
              "velocity": 64,
              "position": 10.075,
              "duration": 0.6229166666666667
            },
            {
              "pitch": 81,
              "velocity": 66,
              "position": 10.070833333333333,
              "duration": 0.6416666666666667
            },
            {
              "pitch": 77,
              "velocity": 78,
              "position": 10.077083333333333,
              "duration": 0.6375
            },
            {
              "pitch": 84,
              "velocity": 82,
              "position": 10.064583333333333,
              "duration": 0.65
            },
            {
              "pitch": 45,
              "velocity": 52,
              "position": 11.08125,
              "duration": 0.4583333333333333
            },
            {
              "pitch": 81,
              "velocity": 66,
              "position": 11.060416666666667,
              "duration": 0.5020833333333333
            },
            {
              "pitch": 53,
              "velocity": 68,
              "position": 11.077083333333333,
              "duration": 0.5
            },
            {
              "pitch": 48,
              "velocity": 55,
              "position": 11.091666666666667,
              "duration": 0.49375
            },
            {
              "pitch": 84,
              "velocity": 91,
              "position": 11.05,
              "duration": 0.5416666666666666
            },
            {
              "pitch": 77,
              "velocity": 81,
              "position": 11.066666666666666,
              "duration": 0.53125
            },
            {
              "pitch": 46,
              "velocity": 60,
              "position": 11.085416666666667,
              "duration": 0.55625
            },
            {
              "pitch": 75,
              "velocity": 82,
              "position": 12.052083333333334,
              "duration": 4.39375
            },
            {
              "pitch": 43,
              "velocity": 70,
              "position": 12.06875,
              "duration": 4.472916666666666
            },
            {
              "pitch": 51,
              "velocity": 60,
              "position": 12.066666666666666,
              "duration": 4.475
            },
            {
              "pitch": 48,
              "velocity": 64,
              "position": 12.054166666666667,
              "duration": 4.545833333333333
            },
            {
              "pitch": 79,
              "velocity": 81,
              "position": 12.060416666666667,
              "duration": 4.585416666666666
            },
            {
              "pitch": 84,
              "velocity": 70,
              "position": 12.064583333333333,
              "duration": 4.6125
            },
            {
              "pitch": 46,
              "velocity": 60,
              "position": 12.072916666666666,
              "duration": 4.75625
            },
            {
              "pitch": 64,
              "velocity": 53,
              "position": 16.791666666666668,
              "duration": 0.05416666666666667
            },
            {
              "pitch": 67,
              "velocity": 27,
              "position": 16.8125,
              "duration": 0.05625
            },
            {
              "pitch": 78,
              "velocity": 122,
              "position": 17.033333333333335,
              "duration": 0.17916666666666667
            },
            {
              "pitch": 84,
              "velocity": 120,
              "position": 17.041666666666668,
              "duration": 0.2833333333333333
            },
            {
              "pitch": 79,
              "velocity": 93,
              "position": 17.202083333333334,
              "duration": 0.23541666666666666
            },
            {
              "pitch": 67,
              "velocity": 38,
              "position": 17.61875,
              "duration": 0.05416666666666667
            },
            {
              "pitch": 78,
              "velocity": 112,
              "position": 17.8375,
              "duration": 0.17708333333333334
            },
            {
              "pitch": 77,
              "velocity": 122,
              "position": 18.314583333333335,
              "duration": 0.1625
            },
            {
              "pitch": 75,
              "velocity": 98,
              "position": 18.55,
              "duration": 0.16041666666666668
            },
            {
              "pitch": 72,
              "velocity": 84,
              "position": 18.802083333333332,
              "duration": 0.13958333333333334
            },
            {
              "pitch": 70,
              "velocity": 84,
              "position": 19.020833333333332,
              "duration": 0.26875
            },
            {
              "pitch": 67,
              "velocity": 91,
              "position": 19.304166666666667,
              "duration": 0.21041666666666667
            },
            {
              "pitch": 65,
              "velocity": 105,
              "position": 19.535416666666666,
              "duration": 0.09166666666666666
            }
          ]
        }
      }
    },
    "Ending_B": {
      "type": "Ending_B",
      "sizeInBeats": 28,
      "channels": {
        "1": {
          "ctab": {
            "srcChannel": 1,
            "name": "Gtr  Maj",
            "accType": "CHORD1",
            "editable": false,
            "mutedNotes": [],
            "mutedChords": [
              "dim7",
              "dim",
              "minMaj7(9)",
              "minMaj7",
              "min7(11)",
              "min7(9)",
              "min(9)",
              "m7b5",
              "min7",
              "min6",
              "min"
            ],
            "autoStart": false,
            "sourceChordNote": 0,
            "sourceChordType": "Maj",
            "ctb2Low": null,
            "ctb2Main": {
              "ntr": "ROOT_TRANSPOSITION",
              "ntt": "BYPASS",
              "bassOn": false,
              "chordRootUpperLimit": 3,
              "noteLowLimit": 0,
              "noteHighLimit": 77,
              "rtr": "PITCH_SHIFT"
            },
            "ctb2High": null
          },
          "notes": [
            {
              "pitch": 48,
              "velocity": 20,
              "position": 0.008333333333333333,
              "duration": 0.2708333333333333
            },
            {
              "pitch": 55,
              "velocity": 20,
              "position": 0.004166666666666667,
              "duration": 0.3375
            },
            {
              "pitch": 48,
              "velocity": 22,
              "position": 0.5145833333333333,
              "duration": 0.18333333333333332
            },
            {
              "pitch": 55,
              "velocity": 22,
              "position": 0.5125,
              "duration": 0.2625
            },
            {
              "pitch": 48,
              "velocity": 25,
              "position": 1.0104166666666667,
              "duration": 0.23125
            },
            {
              "pitch": 55,
              "velocity": 25,
              "position": 1.0104166666666667,
              "duration": 0.24166666666666667
            },
            {
              "pitch": 48,
              "velocity": 27,
              "position": 1.5083333333333333,
              "duration": 0.2520833333333333
            },
            {
              "pitch": 55,
              "velocity": 27,
              "position": 1.5104166666666667,
              "duration": 0.26875
            },
            {
              "pitch": 48,
              "velocity": 30,
              "position": 2.00625,
              "duration": 0.25416666666666665
            },
            {
              "pitch": 55,
              "velocity": 30,
              "position": 2.00625,
              "duration": 0.27708333333333335
            },
            {
              "pitch": 55,
              "velocity": 32,
              "position": 2.502083333333333,
              "duration": 0.3020833333333333
            },
            {
              "pitch": 48,
              "velocity": 32,
              "position": 2.502083333333333,
              "duration": 0.33958333333333335
            },
            {
              "pitch": 48,
              "velocity": 35,
              "position": 3.004166666666667,
              "duration": 0.3333333333333333
            },
            {
              "pitch": 55,
              "velocity": 35,
              "position": 3.004166666666667,
              "duration": 0.35
            },
            {
              "pitch": 48,
              "velocity": 37,
              "position": 3.50625,
              "duration": 0.3020833333333333
            },
            {
              "pitch": 55,
              "velocity": 37,
              "position": 3.50625,
              "duration": 0.3458333333333333
            },
            {
              "pitch": 48,
              "velocity": 40,
              "position": 4.00625,
              "duration": 0.3333333333333333
            },
            {
              "pitch": 60,
              "velocity": 40,
              "position": 4.00625,
              "duration": 0.33958333333333335
            },
            {
              "pitch": 55,
              "velocity": 40,
              "position": 4.00625,
              "duration": 0.3625
            },
            {
              "pitch": 60,
              "velocity": 42,
              "position": 4.504166666666666,
              "duration": 0.3125
            },
            {
              "pitch": 48,
              "velocity": 42,
              "position": 4.504166666666666,
              "duration": 0.3145833333333333
            },
            {
              "pitch": 55,
              "velocity": 42,
              "position": 4.50625,
              "duration": 0.35833333333333334
            },
            {
              "pitch": 48,
              "velocity": 45,
              "position": 5.004166666666666,
              "duration": 0.28958333333333336
            },
            {
              "pitch": 60,
              "velocity": 45,
              "position": 5.004166666666666,
              "duration": 0.31875
            },
            {
              "pitch": 55,
              "velocity": 45,
              "position": 5.004166666666666,
              "duration": 0.3645833333333333
            },
            {
              "pitch": 48,
              "velocity": 47,
              "position": 5.504166666666666,
              "duration": 0.34375
            },
            {
              "pitch": 60,
              "velocity": 47,
              "position": 5.504166666666666,
              "duration": 0.35833333333333334
            },
            {
              "pitch": 55,
              "velocity": 47,
              "position": 5.504166666666666,
              "duration": 0.3958333333333333
            },
            {
              "pitch": 48,
              "velocity": 50,
              "position": 6.00625,
              "duration": 0.3854166666666667
            },
            {
              "pitch": 60,
              "velocity": 50,
              "position": 6.00625,
              "duration": 0.4270833333333333
            },
            {
              "pitch": 55,
              "velocity": 50,
              "position": 6.00625,
              "duration": 0.43125
            },
            {
              "pitch": 48,
              "velocity": 50,
              "position": 9.9875,
              "duration": 14.416666666666666
            },
            {
              "pitch": 60,
              "velocity": 50,
              "position": 9.985416666666667,
              "duration": 14.4375
            },
            {
              "pitch": 55,
              "velocity": 50,
              "position": 9.9875,
              "duration": 14.46875
            },
            {
              "pitch": 48,
              "velocity": 50,
              "position": 25,
              "duration": 0.96875
            },
            {
              "pitch": 60,
              "velocity": 50,
              "position": 25,
              "duration": 0.9729166666666667
            },
            {
              "pitch": 55,
              "velocity": 50,
              "position": 25,
              "duration": 0.975
            }
          ]
        },
        "2": {
          "ctab": {
            "srcChannel": 2,
            "name": "Gtr  min",
            "accType": "CHORD1",
            "editable": false,
            "mutedNotes": [],
            "mutedChords": [
              "1+2+5",
              "sus4",
              "1+5",
              "1+8",
              "7aug",
              "Maj7aug",
              "7(#9)",
              "7(b13)",
              "7(b9)",
              "7(13)",
              "7#11",
              "7(9)",
              "7b5",
              "7sus4",
              "7th",
              "aug",
              "Maj6(9)",
              "Maj7(9)",
              "Maj(9)",
              "Maj7#11",
              "Maj7",
              "Maj6",
              "Maj"
            ],
            "autoStart": false,
            "sourceChordNote": 0,
            "sourceChordType": "min",
            "ctb2Low": null,
            "ctb2Main": {
              "ntr": "ROOT_TRANSPOSITION",
              "ntt": "BYPASS",
              "bassOn": false,
              "chordRootUpperLimit": 3,
              "noteLowLimit": 0,
              "noteHighLimit": 77,
              "rtr": "PITCH_SHIFT"
            },
            "ctb2High": null
          },
          "notes": [
            {
              "pitch": 48,
              "velocity": 20,
              "position": 0.008333333333333333,
              "duration": 0.2708333333333333
            },
            {
              "pitch": 55,
              "velocity": 20,
              "position": 0.004166666666666667,
              "duration": 0.3375
            },
            {
              "pitch": 48,
              "velocity": 22,
              "position": 0.5145833333333333,
              "duration": 0.18333333333333332
            },
            {
              "pitch": 55,
              "velocity": 22,
              "position": 0.5125,
              "duration": 0.2625
            },
            {
              "pitch": 48,
              "velocity": 25,
              "position": 1.0104166666666667,
              "duration": 0.23125
            },
            {
              "pitch": 55,
              "velocity": 25,
              "position": 1.0104166666666667,
              "duration": 0.24166666666666667
            },
            {
              "pitch": 48,
              "velocity": 27,
              "position": 1.5083333333333333,
              "duration": 0.2520833333333333
            },
            {
              "pitch": 55,
              "velocity": 27,
              "position": 1.5104166666666667,
              "duration": 0.26875
            },
            {
              "pitch": 48,
              "velocity": 30,
              "position": 2.00625,
              "duration": 0.25416666666666665
            },
            {
              "pitch": 55,
              "velocity": 30,
              "position": 2.00625,
              "duration": 0.27708333333333335
            },
            {
              "pitch": 55,
              "velocity": 32,
              "position": 2.502083333333333,
              "duration": 0.3020833333333333
            },
            {
              "pitch": 48,
              "velocity": 32,
              "position": 2.502083333333333,
              "duration": 0.33958333333333335
            },
            {
              "pitch": 48,
              "velocity": 35,
              "position": 3.004166666666667,
              "duration": 0.3333333333333333
            },
            {
              "pitch": 55,
              "velocity": 35,
              "position": 3.004166666666667,
              "duration": 0.35
            },
            {
              "pitch": 48,
              "velocity": 37,
              "position": 3.50625,
              "duration": 0.3020833333333333
            },
            {
              "pitch": 55,
              "velocity": 37,
              "position": 3.50625,
              "duration": 0.3458333333333333
            },
            {
              "pitch": 48,
              "velocity": 40,
              "position": 4.00625,
              "duration": 0.3333333333333333
            },
            {
              "pitch": 60,
              "velocity": 40,
              "position": 4.00625,
              "duration": 0.33958333333333335
            },
            {
              "pitch": 55,
              "velocity": 40,
              "position": 4.00625,
              "duration": 0.3625
            },
            {
              "pitch": 60,
              "velocity": 42,
              "position": 4.504166666666666,
              "duration": 0.3125
            },
            {
              "pitch": 48,
              "velocity": 42,
              "position": 4.504166666666666,
              "duration": 0.3145833333333333
            },
            {
              "pitch": 55,
              "velocity": 42,
              "position": 4.50625,
              "duration": 0.35833333333333334
            },
            {
              "pitch": 48,
              "velocity": 45,
              "position": 5.004166666666666,
              "duration": 0.28958333333333336
            },
            {
              "pitch": 60,
              "velocity": 45,
              "position": 5.004166666666666,
              "duration": 0.31875
            },
            {
              "pitch": 55,
              "velocity": 45,
              "position": 5.004166666666666,
              "duration": 0.3645833333333333
            },
            {
              "pitch": 48,
              "velocity": 47,
              "position": 5.504166666666666,
              "duration": 0.34375
            },
            {
              "pitch": 60,
              "velocity": 47,
              "position": 5.504166666666666,
              "duration": 0.35833333333333334
            },
            {
              "pitch": 55,
              "velocity": 47,
              "position": 5.504166666666666,
              "duration": 0.3958333333333333
            },
            {
              "pitch": 48,
              "velocity": 50,
              "position": 6.00625,
              "duration": 0.3854166666666667
            },
            {
              "pitch": 60,
              "velocity": 50,
              "position": 6.00625,
              "duration": 0.4270833333333333
            },
            {
              "pitch": 55,
              "velocity": 50,
              "position": 6.00625,
              "duration": 0.43125
            },
            {
              "pitch": 48,
              "velocity": 50,
              "position": 9.9875,
              "duration": 14.416666666666666
            },
            {
              "pitch": 60,
              "velocity": 50,
              "position": 9.985416666666667,
              "duration": 14.4375
            },
            {
              "pitch": 55,
              "velocity": 50,
              "position": 9.9875,
              "duration": 14.46875
            },
            {
              "pitch": 48,
              "velocity": 50,
              "position": 25,
              "duration": 0.96875
            },
            {
              "pitch": 60,
              "velocity": 50,
              "position": 25,
              "duration": 0.9729166666666667
            },
            {
              "pitch": 55,
              "velocity": 50,
              "position": 25,
              "duration": 0.975
            }
          ]
        },
        "4": {
          "ctab": {
            "srcChannel": 4,
            "name": "Brs  Maj",
            "accType": "PHRASE1",
            "editable": false,
            "mutedNotes": [],
            "mutedChords": [
              "dim7",
              "dim",
              "minMaj7(9)",
              "minMaj7",
              "min7(11)",
              "min7(9)",
              "min(9)",
              "m7b5",
              "min7",
              "min6",
              "min"
            ],
            "autoStart": false,
            "sourceChordNote": 0,
            "sourceChordType": "Maj",
            "ctb2Low": null,
            "ctb2Main": {
              "ntr": "ROOT_TRANSPOSITION",
              "ntt": "BYPASS",
              "bassOn": false,
              "chordRootUpperLimit": 4,
              "noteLowLimit": 34,
              "noteHighLimit": 127,
              "rtr": "PITCH_SHIFT"
            },
            "ctb2High": null
          },
          "notes": [
            {
              "pitch": 24,
              "velocity": 82,
              "position": 0.010416666666666666,
              "duration": 0.24791666666666667
            },
            {
              "pitch": 72,
              "velocity": 85,
              "position": 0.0125,
              "duration": 0.25833333333333336
            },
            {
              "pitch": 24,
              "velocity": 82,
              "position": 0.5,
              "duration": 0.26458333333333334
            },
            {
              "pitch": 72,
              "velocity": 85,
              "position": 0.5166666666666667,
              "duration": 0.24791666666666667
            },
            {
              "pitch": 24,
              "velocity": 82,
              "position": 0.9791666666666666,
              "duration": 0.22916666666666666
            },
            {
              "pitch": 72,
              "velocity": 85,
              "position": 0.9895833333333334,
              "duration": 0.25
            },
            {
              "pitch": 72,
              "velocity": 85,
              "position": 1.4958333333333333,
              "duration": 0.2604166666666667
            },
            {
              "pitch": 24,
              "velocity": 82,
              "position": 1.5104166666666667,
              "duration": 0.2625
            },
            {
              "pitch": 72,
              "velocity": 85,
              "position": 1.9895833333333333,
              "duration": 0.24166666666666667
            },
            {
              "pitch": 24,
              "velocity": 82,
              "position": 2.0104166666666665,
              "duration": 0.24791666666666667
            },
            {
              "pitch": 24,
              "velocity": 82,
              "position": 2.48125,
              "duration": 0.2625
            },
            {
              "pitch": 72,
              "velocity": 85,
              "position": 2.5125,
              "duration": 0.23125
            },
            {
              "pitch": 72,
              "velocity": 85,
              "position": 2.9875,
              "duration": 0.23333333333333334
            },
            {
              "pitch": 24,
              "velocity": 82,
              "position": 3.002083333333333,
              "duration": 0.225
            },
            {
              "pitch": 72,
              "velocity": 85,
              "position": 3.4916666666666667,
              "duration": 0.24375
            },
            {
              "pitch": 24,
              "velocity": 82,
              "position": 3.49375,
              "duration": 0.2604166666666667
            },
            {
              "pitch": 24,
              "velocity": 82,
              "position": 3.99375,
              "duration": 0.24375
            },
            {
              "pitch": 72,
              "velocity": 85,
              "position": 3.9854166666666666,
              "duration": 0.26458333333333334
            },
            {
              "pitch": 84,
              "velocity": 85,
              "position": 4.004166666666666,
              "duration": 0.25833333333333336
            },
            {
              "pitch": 84,
              "velocity": 85,
              "position": 4.485416666666667,
              "duration": 0.25416666666666665
            },
            {
              "pitch": 72,
              "velocity": 85,
              "position": 4.485416666666667,
              "duration": 0.2625
            },
            {
              "pitch": 24,
              "velocity": 82,
              "position": 4.510416666666667,
              "duration": 0.25416666666666665
            },
            {
              "pitch": 72,
              "velocity": 85,
              "position": 4.989583333333333,
              "duration": 0.26666666666666666
            },
            {
              "pitch": 84,
              "velocity": 85,
              "position": 5.016666666666667,
              "duration": 0.24166666666666667
            },
            {
              "pitch": 24,
              "velocity": 82,
              "position": 5.014583333333333,
              "duration": 0.25833333333333336
            },
            {
              "pitch": 24,
              "velocity": 82,
              "position": 5.483333333333333,
              "duration": 0.24583333333333332
            },
            {
              "pitch": 72,
              "velocity": 85,
              "position": 5.4875,
              "duration": 0.25625
            },
            {
              "pitch": 84,
              "velocity": 85,
              "position": 5.508333333333334,
              "duration": 0.23541666666666666
            },
            {
              "pitch": 72,
              "velocity": 85,
              "position": 5.983333333333333,
              "duration": 0.43333333333333335
            },
            {
              "pitch": 84,
              "velocity": 85,
              "position": 5.997916666666667,
              "duration": 0.45208333333333334
            },
            {
              "pitch": 24,
              "velocity": 82,
              "position": 6.00625,
              "duration": 0.4583333333333333
            },
            {
              "pitch": 24,
              "velocity": 82,
              "position": 9.9875,
              "duration": 14.15625
            },
            {
              "pitch": 62,
              "velocity": 85,
              "position": 9.997916666666667,
              "duration": 14.99375
            },
            {
              "pitch": 70,
              "velocity": 85,
              "position": 9.997916666666667,
              "duration": 14.99375
            },
            {
              "pitch": 76,
              "velocity": 85,
              "position": 9.98125,
              "duration": 15.010416666666666
            },
            {
              "pitch": 84,
              "velocity": 90,
              "position": 10.008333333333333,
              "duration": 14.983333333333333
            }
          ]
        },
        "5": {
          "ctab": {
            "srcChannel": 5,
            "name": "Brs  min",
            "accType": "PHRASE1",
            "editable": false,
            "mutedNotes": [],
            "mutedChords": [
              "1+2+5",
              "sus4",
              "1+5",
              "1+8",
              "7aug",
              "Maj7aug",
              "7(#9)",
              "7(b13)",
              "7(b9)",
              "7(13)",
              "7#11",
              "7(9)",
              "7b5",
              "7sus4",
              "7th",
              "aug",
              "Maj6(9)",
              "Maj7(9)",
              "Maj(9)",
              "Maj7#11",
              "Maj7",
              "Maj6",
              "Maj"
            ],
            "autoStart": false,
            "sourceChordNote": 0,
            "sourceChordType": "min",
            "ctb2Low": null,
            "ctb2Main": {
              "ntr": "ROOT_TRANSPOSITION",
              "ntt": "BYPASS",
              "bassOn": false,
              "chordRootUpperLimit": 4,
              "noteLowLimit": 34,
              "noteHighLimit": 127,
              "rtr": "PITCH_SHIFT"
            },
            "ctb2High": null
          },
          "notes": [
            {
              "pitch": 24,
              "velocity": 82,
              "position": 0.010416666666666666,
              "duration": 0.24791666666666667
            },
            {
              "pitch": 72,
              "velocity": 85,
              "position": 0.0125,
              "duration": 0.25416666666666665
            },
            {
              "pitch": 72,
              "velocity": 85,
              "position": 0.5166666666666667,
              "duration": 0.24375
            },
            {
              "pitch": 24,
              "velocity": 82,
              "position": 0.5,
              "duration": 0.26458333333333334
            },
            {
              "pitch": 24,
              "velocity": 82,
              "position": 0.9791666666666666,
              "duration": 0.22916666666666666
            },
            {
              "pitch": 72,
              "velocity": 85,
              "position": 0.9895833333333334,
              "duration": 0.24583333333333332
            },
            {
              "pitch": 72,
              "velocity": 85,
              "position": 1.4958333333333333,
              "duration": 0.25625
            },
            {
              "pitch": 24,
              "velocity": 82,
              "position": 1.5104166666666667,
              "duration": 0.2625
            },
            {
              "pitch": 72,
              "velocity": 85,
              "position": 1.9895833333333333,
              "duration": 0.2375
            },
            {
              "pitch": 24,
              "velocity": 82,
              "position": 2.0104166666666665,
              "duration": 0.24791666666666667
            },
            {
              "pitch": 72,
              "velocity": 85,
              "position": 2.5125,
              "duration": 0.22708333333333333
            },
            {
              "pitch": 24,
              "velocity": 82,
              "position": 2.48125,
              "duration": 0.2625
            },
            {
              "pitch": 72,
              "velocity": 85,
              "position": 2.9875,
              "duration": 0.22916666666666666
            },
            {
              "pitch": 24,
              "velocity": 82,
              "position": 3.002083333333333,
              "duration": 0.225
            },
            {
              "pitch": 72,
              "velocity": 85,
              "position": 3.4916666666666667,
              "duration": 0.23958333333333334
            },
            {
              "pitch": 24,
              "velocity": 82,
              "position": 3.49375,
              "duration": 0.2604166666666667
            },
            {
              "pitch": 24,
              "velocity": 82,
              "position": 3.99375,
              "duration": 0.24375
            },
            {
              "pitch": 72,
              "velocity": 85,
              "position": 3.9854166666666666,
              "duration": 0.2604166666666667
            },
            {
              "pitch": 84,
              "velocity": 85,
              "position": 4.004166666666666,
              "duration": 0.25416666666666665
            },
            {
              "pitch": 84,
              "velocity": 85,
              "position": 4.485416666666667,
              "duration": 0.25
            },
            {
              "pitch": 72,
              "velocity": 85,
              "position": 4.485416666666667,
              "duration": 0.25833333333333336
            },
            {
              "pitch": 24,
              "velocity": 82,
              "position": 4.510416666666667,
              "duration": 0.25416666666666665
            },
            {
              "pitch": 72,
              "velocity": 85,
              "position": 4.989583333333333,
              "duration": 0.2625
            },
            {
              "pitch": 84,
              "velocity": 85,
              "position": 5.016666666666667,
              "duration": 0.2375
            },
            {
              "pitch": 24,
              "velocity": 82,
              "position": 5.014583333333333,
              "duration": 0.25833333333333336
            },
            {
              "pitch": 24,
              "velocity": 82,
              "position": 5.483333333333333,
              "duration": 0.24583333333333332
            },
            {
              "pitch": 72,
              "velocity": 85,
              "position": 5.4875,
              "duration": 0.2520833333333333
            },
            {
              "pitch": 84,
              "velocity": 85,
              "position": 5.508333333333334,
              "duration": 0.23125
            },
            {
              "pitch": 72,
              "velocity": 85,
              "position": 5.983333333333333,
              "duration": 0.36041666666666666
            },
            {
              "pitch": 84,
              "velocity": 88,
              "position": 5.997916666666667,
              "duration": 0.37916666666666665
            },
            {
              "pitch": 24,
              "velocity": 84,
              "position": 9.9875,
              "duration": 14.997916666666667
            },
            {
              "pitch": 64,
              "velocity": 88,
              "position": 9.997916666666667,
              "duration": 14.9875
            },
            {
              "pitch": 70,
              "velocity": 88,
              "position": 9.997916666666667,
              "duration": 14.9875
            },
            {
              "pitch": 75,
              "velocity": 88,
              "position": 9.98125,
              "duration": 15.004166666666666
            },
            {
              "pitch": 84,
              "velocity": 93,
              "position": 10.008333333333333,
              "duration": 14.977083333333333
            }
          ]
        },
        "6": {
          "ctab": {
            "srcChannel": 6,
            "name": "Hns  Maj",
            "accType": "PHRASE2",
            "editable": false,
            "mutedNotes": [],
            "mutedChords": [
              "dim7",
              "dim",
              "minMaj7(9)",
              "minMaj7",
              "min7(11)",
              "min7(9)",
              "min(9)",
              "m7b5",
              "min7",
              "min6",
              "min"
            ],
            "autoStart": false,
            "sourceChordNote": 0,
            "sourceChordType": "Maj",
            "ctb2Low": null,
            "ctb2Main": {
              "ntr": "ROOT_TRANSPOSITION",
              "ntt": "BYPASS",
              "bassOn": false,
              "chordRootUpperLimit": 2,
              "noteLowLimit": 34,
              "noteHighLimit": 74,
              "rtr": "PITCH_SHIFT"
            },
            "ctb2High": null
          },
          "notes": [
            {
              "pitch": 24,
              "velocity": 127,
              "position": 0.010416666666666666,
              "duration": 0.24791666666666667
            },
            {
              "pitch": 60,
              "velocity": 126,
              "position": 0.0125,
              "duration": 0.25833333333333336
            },
            {
              "pitch": 24,
              "velocity": 127,
              "position": 0.5,
              "duration": 0.26458333333333334
            },
            {
              "pitch": 60,
              "velocity": 126,
              "position": 0.5166666666666667,
              "duration": 0.24791666666666667
            },
            {
              "pitch": 24,
              "velocity": 127,
              "position": 0.9791666666666666,
              "duration": 0.22916666666666666
            },
            {
              "pitch": 60,
              "velocity": 127,
              "position": 0.9895833333333334,
              "duration": 0.25
            },
            {
              "pitch": 60,
              "velocity": 124,
              "position": 1.4958333333333333,
              "duration": 0.2604166666666667
            },
            {
              "pitch": 24,
              "velocity": 124,
              "position": 1.5104166666666667,
              "duration": 0.2625
            },
            {
              "pitch": 60,
              "velocity": 127,
              "position": 1.9895833333333333,
              "duration": 0.24166666666666667
            },
            {
              "pitch": 24,
              "velocity": 127,
              "position": 2.0104166666666665,
              "duration": 0.24791666666666667
            },
            {
              "pitch": 24,
              "velocity": 127,
              "position": 2.48125,
              "duration": 0.2625
            },
            {
              "pitch": 60,
              "velocity": 127,
              "position": 2.5125,
              "duration": 0.23125
            },
            {
              "pitch": 60,
              "velocity": 124,
              "position": 2.9875,
              "duration": 0.23333333333333334
            },
            {
              "pitch": 24,
              "velocity": 127,
              "position": 3.002083333333333,
              "duration": 0.225
            },
            {
              "pitch": 60,
              "velocity": 127,
              "position": 3.4916666666666667,
              "duration": 0.24375
            },
            {
              "pitch": 24,
              "velocity": 123,
              "position": 3.49375,
              "duration": 0.2604166666666667
            },
            {
              "pitch": 24,
              "velocity": 127,
              "position": 3.99375,
              "duration": 0.24375
            },
            {
              "pitch": 60,
              "velocity": 127,
              "position": 3.9854166666666666,
              "duration": 0.26458333333333334
            },
            {
              "pitch": 72,
              "velocity": 66,
              "position": 4.004166666666666,
              "duration": 0.25833333333333336
            },
            {
              "pitch": 72,
              "velocity": 82,
              "position": 4.485416666666667,
              "duration": 0.25416666666666665
            },
            {
              "pitch": 60,
              "velocity": 127,
              "position": 4.485416666666667,
              "duration": 0.2625
            },
            {
              "pitch": 24,
              "velocity": 127,
              "position": 4.510416666666667,
              "duration": 0.25416666666666665
            },
            {
              "pitch": 60,
              "velocity": 125,
              "position": 4.989583333333333,
              "duration": 0.26666666666666666
            },
            {
              "pitch": 72,
              "velocity": 98,
              "position": 5.016666666666667,
              "duration": 0.24166666666666667
            },
            {
              "pitch": 24,
              "velocity": 123,
              "position": 5.014583333333333,
              "duration": 0.25833333333333336
            },
            {
              "pitch": 24,
              "velocity": 122,
              "position": 5.483333333333333,
              "duration": 0.24583333333333332
            },
            {
              "pitch": 60,
              "velocity": 127,
              "position": 5.4875,
              "duration": 0.25625
            },
            {
              "pitch": 72,
              "velocity": 110,
              "position": 5.508333333333334,
              "duration": 0.23541666666666666
            },
            {
              "pitch": 60,
              "velocity": 126,
              "position": 5.983333333333333,
              "duration": 0.45625
            },
            {
              "pitch": 72,
              "velocity": 122,
              "position": 5.997916666666667,
              "duration": 0.475
            },
            {
              "pitch": 24,
              "velocity": 127,
              "position": 6.00625,
              "duration": 0.48125
            },
            {
              "pitch": 70,
              "velocity": 104,
              "position": 9.98125,
              "duration": 14.110416666666667
            },
            {
              "pitch": 24,
              "velocity": 122,
              "position": 9.9875,
              "duration": 14.15625
            },
            {
              "pitch": 64,
              "velocity": 109,
              "position": 9.997916666666667,
              "duration": 14.204166666666667
            },
            {
              "pitch": 79,
              "velocity": 109,
              "position": 9.997916666666667,
              "duration": 14.204166666666667
            },
            {
              "pitch": 72,
              "velocity": 124,
              "position": 10.008333333333333,
              "duration": 14.220833333333333
            },
            {
              "pitch": 60,
              "velocity": 74,
              "position": 24.458333333333332,
              "duration": 0.19583333333333333
            },
            {
              "pitch": 62,
              "velocity": 74,
              "position": 24.583333333333332,
              "duration": 0.13333333333333333
            },
            {
              "pitch": 64,
              "velocity": 74,
              "position": 24.708333333333332,
              "duration": 0.13333333333333333
            },
            {
              "pitch": 65,
              "velocity": 74,
              "position": 24.770833333333332,
              "duration": 0.13333333333333333
            },
            {
              "pitch": 67,
              "velocity": 74,
              "position": 24.833333333333332,
              "duration": 0.13333333333333333
            },
            {
              "pitch": 69,
              "velocity": 74,
              "position": 24.895833333333332,
              "duration": 0.13333333333333333
            },
            {
              "pitch": 70,
              "velocity": 100,
              "position": 24.95,
              "duration": 0.22291666666666668
            },
            {
              "pitch": 74,
              "velocity": 110,
              "position": 25.01875,
              "duration": 0.35625
            },
            {
              "pitch": 57,
              "velocity": 80,
              "position": 25.404166666666665,
              "duration": 0.08958333333333333
            },
            {
              "pitch": 70,
              "velocity": 80,
              "position": 25.404166666666665,
              "duration": 0.08958333333333333
            },
            {
              "pitch": 72,
              "velocity": 107,
              "position": 25.022916666666667,
              "duration": 0.47291666666666665
            },
            {
              "pitch": 60,
              "velocity": 127,
              "position": 25.020833333333332,
              "duration": 0.48541666666666666
            },
            {
              "pitch": 55,
              "velocity": 76,
              "position": 25.483333333333334,
              "duration": 0.08958333333333333
            },
            {
              "pitch": 69,
              "velocity": 76,
              "position": 25.483333333333334,
              "duration": 0.08958333333333333
            },
            {
              "pitch": 79,
              "velocity": 105,
              "position": 25.020833333333332,
              "duration": 0.5708333333333333
            },
            {
              "pitch": 53,
              "velocity": 73,
              "position": 25.54375,
              "duration": 0.09166666666666666
            },
            {
              "pitch": 67,
              "velocity": 73,
              "position": 25.54375,
              "duration": 0.09166666666666666
            },
            {
              "pitch": 52,
              "velocity": 71,
              "position": 25.59375,
              "duration": 0.08958333333333333
            },
            {
              "pitch": 65,
              "velocity": 71,
              "position": 25.59375,
              "duration": 0.08958333333333333
            },
            {
              "pitch": 50,
              "velocity": 69,
              "position": 25.64375,
              "duration": 0.09166666666666666
            },
            {
              "pitch": 64,
              "velocity": 69,
              "position": 25.64375,
              "duration": 0.09166666666666666
            },
            {
              "pitch": 48,
              "velocity": 66,
              "position": 25.695833333333333,
              "duration": 0.08958333333333333
            },
            {
              "pitch": 62,
              "velocity": 66,
              "position": 25.695833333333333,
              "duration": 0.08958333333333333
            },
            {
              "pitch": 46,
              "velocity": 64,
              "position": 25.75,
              "duration": 0.09166666666666666
            },
            {
              "pitch": 60,
              "velocity": 64,
              "position": 25.75,
              "duration": 0.09166666666666666
            },
            {
              "pitch": 45,
              "velocity": 61,
              "position": 25.808333333333334,
              "duration": 0.09166666666666666
            },
            {
              "pitch": 58,
              "velocity": 61,
              "position": 25.808333333333334,
              "duration": 0.09166666666666666
            },
            {
              "pitch": 43,
              "velocity": 59,
              "position": 25.864583333333332,
              "duration": 0.08958333333333333
            },
            {
              "pitch": 57,
              "velocity": 59,
              "position": 25.864583333333332,
              "duration": 0.08958333333333333
            },
            {
              "pitch": 41,
              "velocity": 56,
              "position": 25.91875,
              "duration": 0.09166666666666666
            },
            {
              "pitch": 55,
              "velocity": 56,
              "position": 25.91875,
              "duration": 0.09166666666666666
            },
            {
              "pitch": 40,
              "velocity": 54,
              "position": 25.977083333333333,
              "duration": 0.08958333333333333
            },
            {
              "pitch": 53,
              "velocity": 54,
              "position": 25.977083333333333,
              "duration": 0.08958333333333333
            },
            {
              "pitch": 38,
              "velocity": 51,
              "position": 26.039583333333333,
              "duration": 0.09166666666666666
            },
            {
              "pitch": 52,
              "velocity": 51,
              "position": 26.039583333333333,
              "duration": 0.09166666666666666
            },
            {
              "pitch": 36,
              "velocity": 48,
              "position": 26.097916666666666,
              "duration": 0.09166666666666666
            },
            {
              "pitch": 50,
              "velocity": 48,
              "position": 26.097916666666666,
              "duration": 0.09166666666666666
            },
            {
              "pitch": 34,
              "velocity": 45,
              "position": 26.160416666666666,
              "duration": 0.08958333333333333
            },
            {
              "pitch": 48,
              "velocity": 45,
              "position": 26.160416666666666,
              "duration": 0.08958333333333333
            },
            {
              "pitch": 33,
              "velocity": 42,
              "position": 26.227083333333333,
              "duration": 0.09166666666666666
            },
            {
              "pitch": 46,
              "velocity": 42,
              "position": 26.227083333333333,
              "duration": 0.09166666666666666
            },
            {
              "pitch": 31,
              "velocity": 39,
              "position": 26.295833333333334,
              "duration": 0.09166666666666666
            },
            {
              "pitch": 45,
              "velocity": 39,
              "position": 26.295833333333334,
              "duration": 0.09166666666666666
            },
            {
              "pitch": 29,
              "velocity": 36,
              "position": 26.366666666666667,
              "duration": 0.09166666666666666
            },
            {
              "pitch": 43,
              "velocity": 36,
              "position": 26.366666666666667,
              "duration": 0.09166666666666666
            },
            {
              "pitch": 28,
              "velocity": 32,
              "position": 26.44375,
              "duration": 0.09166666666666666
            },
            {
              "pitch": 41,
              "velocity": 32,
              "position": 26.44375,
              "duration": 0.09166666666666666
            }
          ]
        },
        "7": {
          "ctab": {
            "srcChannel": 7,
            "name": "Hns  min",
            "accType": "PHRASE2",
            "editable": false,
            "mutedNotes": [],
            "mutedChords": [
              "1+2+5",
              "sus4",
              "1+5",
              "1+8",
              "7aug",
              "Maj7aug",
              "7(#9)",
              "7(b13)",
              "7(b9)",
              "7(13)",
              "7#11",
              "7(9)",
              "7b5",
              "7sus4",
              "7th",
              "aug",
              "Maj6(9)",
              "Maj7(9)",
              "Maj(9)",
              "Maj7#11",
              "Maj7",
              "Maj6",
              "Maj"
            ],
            "autoStart": false,
            "sourceChordNote": 0,
            "sourceChordType": "min",
            "ctb2Low": null,
            "ctb2Main": {
              "ntr": "ROOT_TRANSPOSITION",
              "ntt": "BYPASS",
              "bassOn": false,
              "chordRootUpperLimit": 2,
              "noteLowLimit": 34,
              "noteHighLimit": 74,
              "rtr": "PITCH_SHIFT"
            },
            "ctb2High": null
          },
          "notes": [
            {
              "pitch": 24,
              "velocity": 127,
              "position": 0.010416666666666666,
              "duration": 0.24791666666666667
            },
            {
              "pitch": 60,
              "velocity": 126,
              "position": 0.0125,
              "duration": 0.25833333333333336
            },
            {
              "pitch": 24,
              "velocity": 127,
              "position": 0.5,
              "duration": 0.26458333333333334
            },
            {
              "pitch": 60,
              "velocity": 126,
              "position": 0.5166666666666667,
              "duration": 0.24791666666666667
            },
            {
              "pitch": 24,
              "velocity": 127,
              "position": 0.9791666666666666,
              "duration": 0.22916666666666666
            },
            {
              "pitch": 60,
              "velocity": 127,
              "position": 0.9895833333333334,
              "duration": 0.25
            },
            {
              "pitch": 60,
              "velocity": 124,
              "position": 1.4958333333333333,
              "duration": 0.2604166666666667
            },
            {
              "pitch": 24,
              "velocity": 124,
              "position": 1.5104166666666667,
              "duration": 0.2625
            },
            {
              "pitch": 60,
              "velocity": 127,
              "position": 1.9895833333333333,
              "duration": 0.24166666666666667
            },
            {
              "pitch": 24,
              "velocity": 127,
              "position": 2.0104166666666665,
              "duration": 0.24791666666666667
            },
            {
              "pitch": 24,
              "velocity": 127,
              "position": 2.48125,
              "duration": 0.2625
            },
            {
              "pitch": 60,
              "velocity": 127,
              "position": 2.5125,
              "duration": 0.23125
            },
            {
              "pitch": 60,
              "velocity": 124,
              "position": 2.9875,
              "duration": 0.23333333333333334
            },
            {
              "pitch": 24,
              "velocity": 127,
              "position": 3.002083333333333,
              "duration": 0.225
            },
            {
              "pitch": 60,
              "velocity": 127,
              "position": 3.4916666666666667,
              "duration": 0.24375
            },
            {
              "pitch": 24,
              "velocity": 123,
              "position": 3.49375,
              "duration": 0.2604166666666667
            },
            {
              "pitch": 24,
              "velocity": 127,
              "position": 3.99375,
              "duration": 0.24375
            },
            {
              "pitch": 60,
              "velocity": 127,
              "position": 3.9854166666666666,
              "duration": 0.26458333333333334
            },
            {
              "pitch": 72,
              "velocity": 66,
              "position": 4.004166666666666,
              "duration": 0.25833333333333336
            },
            {
              "pitch": 72,
              "velocity": 82,
              "position": 4.485416666666667,
              "duration": 0.25416666666666665
            },
            {
              "pitch": 60,
              "velocity": 127,
              "position": 4.485416666666667,
              "duration": 0.2625
            },
            {
              "pitch": 24,
              "velocity": 127,
              "position": 4.510416666666667,
              "duration": 0.25416666666666665
            },
            {
              "pitch": 60,
              "velocity": 125,
              "position": 4.989583333333333,
              "duration": 0.26666666666666666
            },
            {
              "pitch": 72,
              "velocity": 98,
              "position": 5.016666666666667,
              "duration": 0.24166666666666667
            },
            {
              "pitch": 24,
              "velocity": 123,
              "position": 5.014583333333333,
              "duration": 0.25833333333333336
            },
            {
              "pitch": 24,
              "velocity": 122,
              "position": 5.483333333333333,
              "duration": 0.24583333333333332
            },
            {
              "pitch": 60,
              "velocity": 127,
              "position": 5.4875,
              "duration": 0.25625
            },
            {
              "pitch": 72,
              "velocity": 110,
              "position": 5.508333333333334,
              "duration": 0.23541666666666666
            },
            {
              "pitch": 60,
              "velocity": 126,
              "position": 5.983333333333333,
              "duration": 0.45625
            },
            {
              "pitch": 72,
              "velocity": 122,
              "position": 5.997916666666667,
              "duration": 0.475
            },
            {
              "pitch": 24,
              "velocity": 127,
              "position": 6.00625,
              "duration": 0.48125
            },
            {
              "pitch": 70,
              "velocity": 104,
              "position": 9.98125,
              "duration": 14.110416666666667
            },
            {
              "pitch": 24,
              "velocity": 122,
              "position": 9.9875,
              "duration": 14.15625
            },
            {
              "pitch": 64,
              "velocity": 109,
              "position": 9.997916666666667,
              "duration": 14.204166666666667
            },
            {
              "pitch": 79,
              "velocity": 109,
              "position": 9.997916666666667,
              "duration": 14.204166666666667
            },
            {
              "pitch": 75,
              "velocity": 124,
              "position": 10.008333333333333,
              "duration": 14.220833333333333
            },
            {
              "pitch": 60,
              "velocity": 74,
              "position": 24.458333333333332,
              "duration": 0.19583333333333333
            },
            {
              "pitch": 62,
              "velocity": 74,
              "position": 24.583333333333332,
              "duration": 0.13333333333333333
            },
            {
              "pitch": 63,
              "velocity": 74,
              "position": 24.708333333333332,
              "duration": 0.13333333333333333
            },
            {
              "pitch": 65,
              "velocity": 74,
              "position": 24.770833333333332,
              "duration": 0.13333333333333333
            },
            {
              "pitch": 67,
              "velocity": 74,
              "position": 24.833333333333332,
              "duration": 0.13333333333333333
            },
            {
              "pitch": 70,
              "velocity": 100,
              "position": 24.95,
              "duration": 0.07083333333333333
            },
            {
              "pitch": 69,
              "velocity": 74,
              "position": 24.895833333333332,
              "duration": 0.13333333333333333
            },
            {
              "pitch": 70,
              "velocity": 107,
              "position": 25.022916666666667,
              "duration": 0.38125
            },
            {
              "pitch": 57,
              "velocity": 80,
              "position": 25.404166666666665,
              "duration": 0.08958333333333333
            },
            {
              "pitch": 70,
              "velocity": 80,
              "position": 25.404166666666665,
              "duration": 0.09166666666666666
            },
            {
              "pitch": 64,
              "velocity": 127,
              "position": 25.020833333333332,
              "duration": 0.48541666666666666
            },
            {
              "pitch": 55,
              "velocity": 76,
              "position": 25.483333333333334,
              "duration": 0.08958333333333333
            },
            {
              "pitch": 69,
              "velocity": 76,
              "position": 25.483333333333334,
              "duration": 0.08958333333333333
            },
            {
              "pitch": 84,
              "velocity": 105,
              "position": 25,
              "duration": 0.5916666666666667
            },
            {
              "pitch": 53,
              "velocity": 73,
              "position": 25.54375,
              "duration": 0.09166666666666666
            },
            {
              "pitch": 67,
              "velocity": 73,
              "position": 25.54375,
              "duration": 0.09166666666666666
            },
            {
              "pitch": 51,
              "velocity": 71,
              "position": 25.59375,
              "duration": 0.08958333333333333
            },
            {
              "pitch": 65,
              "velocity": 71,
              "position": 25.59375,
              "duration": 0.08958333333333333
            },
            {
              "pitch": 50,
              "velocity": 69,
              "position": 25.64375,
              "duration": 0.09166666666666666
            },
            {
              "pitch": 63,
              "velocity": 69,
              "position": 25.64375,
              "duration": 0.09166666666666666
            },
            {
              "pitch": 48,
              "velocity": 66,
              "position": 25.695833333333333,
              "duration": 0.08958333333333333
            },
            {
              "pitch": 62,
              "velocity": 66,
              "position": 25.695833333333333,
              "duration": 0.08958333333333333
            },
            {
              "pitch": 46,
              "velocity": 64,
              "position": 25.75,
              "duration": 0.09166666666666666
            },
            {
              "pitch": 60,
              "velocity": 64,
              "position": 25.75,
              "duration": 0.09166666666666666
            },
            {
              "pitch": 45,
              "velocity": 61,
              "position": 25.808333333333334,
              "duration": 0.09166666666666666
            },
            {
              "pitch": 58,
              "velocity": 61,
              "position": 25.808333333333334,
              "duration": 0.09166666666666666
            },
            {
              "pitch": 43,
              "velocity": 59,
              "position": 25.864583333333332,
              "duration": 0.08958333333333333
            },
            {
              "pitch": 57,
              "velocity": 59,
              "position": 25.864583333333332,
              "duration": 0.08958333333333333
            },
            {
              "pitch": 41,
              "velocity": 56,
              "position": 25.91875,
              "duration": 0.09166666666666666
            },
            {
              "pitch": 55,
              "velocity": 56,
              "position": 25.91875,
              "duration": 0.09166666666666666
            },
            {
              "pitch": 39,
              "velocity": 54,
              "position": 25.977083333333333,
              "duration": 0.08958333333333333
            },
            {
              "pitch": 53,
              "velocity": 54,
              "position": 25.977083333333333,
              "duration": 0.08958333333333333
            },
            {
              "pitch": 38,
              "velocity": 51,
              "position": 26.039583333333333,
              "duration": 0.09166666666666666
            },
            {
              "pitch": 51,
              "velocity": 51,
              "position": 26.039583333333333,
              "duration": 0.09166666666666666
            },
            {
              "pitch": 36,
              "velocity": 48,
              "position": 26.097916666666666,
              "duration": 0.09166666666666666
            },
            {
              "pitch": 50,
              "velocity": 48,
              "position": 26.097916666666666,
              "duration": 0.09166666666666666
            },
            {
              "pitch": 34,
              "velocity": 45,
              "position": 26.160416666666666,
              "duration": 0.08958333333333333
            },
            {
              "pitch": 48,
              "velocity": 45,
              "position": 26.160416666666666,
              "duration": 0.08958333333333333
            },
            {
              "pitch": 33,
              "velocity": 42,
              "position": 26.227083333333333,
              "duration": 0.09166666666666666
            },
            {
              "pitch": 46,
              "velocity": 42,
              "position": 26.227083333333333,
              "duration": 0.09166666666666666
            },
            {
              "pitch": 31,
              "velocity": 39,
              "position": 26.295833333333334,
              "duration": 0.09166666666666666
            },
            {
              "pitch": 45,
              "velocity": 39,
              "position": 26.295833333333334,
              "duration": 0.09166666666666666
            },
            {
              "pitch": 29,
              "velocity": 36,
              "position": 26.366666666666667,
              "duration": 0.09166666666666666
            },
            {
              "pitch": 43,
              "velocity": 36,
              "position": 26.366666666666667,
              "duration": 0.09166666666666666
            },
            {
              "pitch": 27,
              "velocity": 32,
              "position": 26.44375,
              "duration": 0.09166666666666666
            },
            {
              "pitch": 41,
              "velocity": 32,
              "position": 26.44375,
              "duration": 0.09166666666666666
            }
          ]
        },
        "8": {
          "ctab": {
            "srcChannel": 8,
            "name": "Perc.",
            "accType": "SUBRHYTHM",
            "editable": false,
            "mutedNotes": [],
            "mutedChords": [],
            "autoStart": true,
            "sourceChordNote": 0,
            "sourceChordType": "Maj7",
            "ctb2Low": null,
            "ctb2Main": {
              "ntr": "ROOT_FIXED",
              "ntt": "BYPASS",
              "bassOn": false,
              "chordRootUpperLimit": 6,
              "noteLowLimit": 0,
              "noteHighLimit": 127,
              "rtr": "PITCH_SHIFT"
            },
            "ctb2High": null
          },
          "notes": [
            {
              "pitch": 24,
              "velocity": 59,
              "position": 0.06666666666666667,
              "duration": 0.010416666666666666
            },
            {
              "pitch": 23,
              "velocity": 33,
              "position": 0.06875,
              "duration": 0.010416666666666666
            },
            {
              "pitch": 23,
              "velocity": 40,
              "position": 0.51875,
              "duration": 0.010416666666666666
            },
            {
              "pitch": 24,
              "velocity": 82,
              "position": 0.5208333333333334,
              "duration": 0.010416666666666666
            },
            {
              "pitch": 23,
              "velocity": 81,
              "position": 1.0791666666666666,
              "duration": 0.010416666666666666
            },
            {
              "pitch": 24,
              "velocity": 93,
              "position": 1.0854166666666667,
              "duration": 0.010416666666666666
            },
            {
              "pitch": 24,
              "velocity": 95,
              "position": 1.56875,
              "duration": 0.010416666666666666
            },
            {
              "pitch": 23,
              "velocity": 91,
              "position": 1.5729166666666667,
              "duration": 0.010416666666666666
            },
            {
              "pitch": 23,
              "velocity": 100,
              "position": 2.066666666666667,
              "duration": 0.010416666666666666
            },
            {
              "pitch": 24,
              "velocity": 105,
              "position": 2.0791666666666666,
              "duration": 0.010416666666666666
            },
            {
              "pitch": 23,
              "velocity": 107,
              "position": 2.591666666666667,
              "duration": 0.010416666666666666
            },
            {
              "pitch": 24,
              "velocity": 120,
              "position": 2.6020833333333333,
              "duration": 0.010416666666666666
            },
            {
              "pitch": 23,
              "velocity": 112,
              "position": 3.08125,
              "duration": 0.010416666666666666
            },
            {
              "pitch": 24,
              "velocity": 120,
              "position": 3.089583333333333,
              "duration": 0.010416666666666666
            },
            {
              "pitch": 23,
              "velocity": 120,
              "position": 3.58125,
              "duration": 0.010416666666666666
            },
            {
              "pitch": 24,
              "velocity": 124,
              "position": 3.589583333333333,
              "duration": 0.010416666666666666
            },
            {
              "pitch": 23,
              "velocity": 114,
              "position": 4.075,
              "duration": 0.010416666666666666
            },
            {
              "pitch": 24,
              "velocity": 124,
              "position": 4.08125,
              "duration": 0.010416666666666666
            },
            {
              "pitch": 23,
              "velocity": 120,
              "position": 4.55,
              "duration": 0.010416666666666666
            },
            {
              "pitch": 24,
              "velocity": 127,
              "position": 4.560416666666667,
              "duration": 0.010416666666666666
            },
            {
              "pitch": 23,
              "velocity": 120,
              "position": 5.064583333333333,
              "duration": 0.010416666666666666
            },
            {
              "pitch": 24,
              "velocity": 124,
              "position": 5.072916666666667,
              "duration": 0.010416666666666666
            },
            {
              "pitch": 23,
              "velocity": 120,
              "position": 5.58125,
              "duration": 0.010416666666666666
            },
            {
              "pitch": 24,
              "velocity": 124,
              "position": 5.589583333333334,
              "duration": 0.010416666666666666
            },
            {
              "pitch": 23,
              "velocity": 120,
              "position": 6.104166666666667,
              "duration": 0.010416666666666666
            },
            {
              "pitch": 24,
              "velocity": 127,
              "position": 6.108333333333333,
              "duration": 0.010416666666666666
            },
            {
              "pitch": 24,
              "velocity": 81,
              "position": 10.03125,
              "duration": 0.010416666666666666
            },
            {
              "pitch": 23,
              "velocity": 84,
              "position": 10.160416666666666,
              "duration": 0.010416666666666666
            },
            {
              "pitch": 24,
              "velocity": 68,
              "position": 10.329166666666667,
              "duration": 0.010416666666666666
            },
            {
              "pitch": 23,
              "velocity": 93,
              "position": 10.447916666666666,
              "duration": 0.010416666666666666
            },
            {
              "pitch": 24,
              "velocity": 52,
              "position": 10.63125,
              "duration": 0.010416666666666666
            },
            {
              "pitch": 23,
              "velocity": 89,
              "position": 10.729166666666666,
              "duration": 0.010416666666666666
            },
            {
              "pitch": 24,
              "velocity": 81,
              "position": 10.872916666666667,
              "duration": 0.010416666666666666
            },
            {
              "pitch": 23,
              "velocity": 89,
              "position": 11.004166666666666,
              "duration": 0.010416666666666666
            },
            {
              "pitch": 24,
              "velocity": 81,
              "position": 11.16875,
              "duration": 0.010416666666666666
            },
            {
              "pitch": 23,
              "velocity": 89,
              "position": 11.291666666666666,
              "duration": 0.010416666666666666
            },
            {
              "pitch": 24,
              "velocity": 72,
              "position": 11.458333333333334,
              "duration": 0.010416666666666666
            },
            {
              "pitch": 23,
              "velocity": 91,
              "position": 11.5625,
              "duration": 0.010416666666666666
            },
            {
              "pitch": 24,
              "velocity": 81,
              "position": 11.720833333333333,
              "duration": 0.010416666666666666
            },
            {
              "pitch": 23,
              "velocity": 89,
              "position": 11.85,
              "duration": 0.010416666666666666
            },
            {
              "pitch": 24,
              "velocity": 81,
              "position": 12.010416666666666,
              "duration": 0.010416666666666666
            },
            {
              "pitch": 23,
              "velocity": 93,
              "position": 12.129166666666666,
              "duration": 0.010416666666666666
            },
            {
              "pitch": 24,
              "velocity": 86,
              "position": 12.272916666666667,
              "duration": 0.010416666666666666
            },
            {
              "pitch": 23,
              "velocity": 100,
              "position": 12.416666666666666,
              "duration": 0.010416666666666666
            },
            {
              "pitch": 24,
              "velocity": 81,
              "position": 12.579166666666667,
              "duration": 0.010416666666666666
            },
            {
              "pitch": 23,
              "velocity": 89,
              "position": 12.708333333333334,
              "duration": 0.010416666666666666
            },
            {
              "pitch": 24,
              "velocity": 81,
              "position": 12.854166666666666,
              "duration": 0.010416666666666666
            },
            {
              "pitch": 23,
              "velocity": 100,
              "position": 12.983333333333333,
              "duration": 0.010416666666666666
            },
            {
              "pitch": 24,
              "velocity": 76,
              "position": 13.147916666666667,
              "duration": 0.010416666666666666
            },
            {
              "pitch": 23,
              "velocity": 93,
              "position": 13.260416666666666,
              "duration": 0.010416666666666666
            },
            {
              "pitch": 24,
              "velocity": 76,
              "position": 13.41875,
              "duration": 0.010416666666666666
            },
            {
              "pitch": 23,
              "velocity": 93,
              "position": 13.558333333333334,
              "duration": 0.010416666666666666
            },
            {
              "pitch": 24,
              "velocity": 55,
              "position": 13.720833333333333,
              "duration": 0.010416666666666666
            },
            {
              "pitch": 23,
              "velocity": 100,
              "position": 13.84375,
              "duration": 0.010416666666666666
            },
            {
              "pitch": 24,
              "velocity": 68,
              "position": 14.008333333333333,
              "duration": 0.010416666666666666
            },
            {
              "pitch": 23,
              "velocity": 103,
              "position": 14.135416666666666,
              "duration": 0.010416666666666666
            },
            {
              "pitch": 24,
              "velocity": 68,
              "position": 14.316666666666666,
              "duration": 0.010416666666666666
            },
            {
              "pitch": 23,
              "velocity": 98,
              "position": 14.427083333333334,
              "duration": 0.010416666666666666
            },
            {
              "pitch": 24,
              "velocity": 72,
              "position": 14.6,
              "duration": 0.010416666666666666
            },
            {
              "pitch": 23,
              "velocity": 100,
              "position": 14.716666666666667,
              "duration": 0.010416666666666666
            },
            {
              "pitch": 24,
              "velocity": 76,
              "position": 14.88125,
              "duration": 0.010416666666666666
            },
            {
              "pitch": 23,
              "velocity": 98,
              "position": 14.995833333333334,
              "duration": 0.010416666666666666
            },
            {
              "pitch": 24,
              "velocity": 76,
              "position": 15.15625,
              "duration": 0.010416666666666666
            },
            {
              "pitch": 23,
              "velocity": 91,
              "position": 15.291666666666666,
              "duration": 0.010416666666666666
            },
            {
              "pitch": 24,
              "velocity": 76,
              "position": 15.433333333333334,
              "duration": 0.010416666666666666
            },
            {
              "pitch": 23,
              "velocity": 93,
              "position": 15.560416666666667,
              "duration": 0.010416666666666666
            },
            {
              "pitch": 24,
              "velocity": 68,
              "position": 15.735416666666667,
              "duration": 0.010416666666666666
            },
            {
              "pitch": 23,
              "velocity": 95,
              "position": 15.854166666666666,
              "duration": 0.010416666666666666
            },
            {
              "pitch": 24,
              "velocity": 68,
              "position": 16.010416666666668,
              "duration": 0.010416666666666666
            },
            {
              "pitch": 23,
              "velocity": 98,
              "position": 16.15,
              "duration": 0.010416666666666666
            },
            {
              "pitch": 24,
              "velocity": 76,
              "position": 16.316666666666666,
              "duration": 0.010416666666666666
            },
            {
              "pitch": 23,
              "velocity": 84,
              "position": 16.45625,
              "duration": 0.010416666666666666
            },
            {
              "pitch": 24,
              "velocity": 84,
              "position": 16.658333333333335,
              "duration": 0.010416666666666666
            },
            {
              "pitch": 23,
              "velocity": 93,
              "position": 16.7875,
              "duration": 0.010416666666666666
            },
            {
              "pitch": 24,
              "velocity": 72,
              "position": 16.970833333333335,
              "duration": 0.010416666666666666
            },
            {
              "pitch": 23,
              "velocity": 95,
              "position": 17.09375,
              "duration": 0.010416666666666666
            },
            {
              "pitch": 24,
              "velocity": 81,
              "position": 17.260416666666668,
              "duration": 0.010416666666666666
            },
            {
              "pitch": 23,
              "velocity": 98,
              "position": 17.402083333333334,
              "duration": 0.010416666666666666
            },
            {
              "pitch": 24,
              "velocity": 84,
              "position": 17.572916666666668,
              "duration": 0.010416666666666666
            },
            {
              "pitch": 23,
              "velocity": 98,
              "position": 17.702083333333334,
              "duration": 0.010416666666666666
            },
            {
              "pitch": 24,
              "velocity": 84,
              "position": 17.8625,
              "duration": 0.010416666666666666
            },
            {
              "pitch": 23,
              "velocity": 103,
              "position": 18.008333333333333,
              "duration": 0.010416666666666666
            },
            {
              "pitch": 24,
              "velocity": 81,
              "position": 18.179166666666667,
              "duration": 0.010416666666666666
            },
            {
              "pitch": 23,
              "velocity": 103,
              "position": 18.31875,
              "duration": 0.010416666666666666
            },
            {
              "pitch": 24,
              "velocity": 76,
              "position": 18.48125,
              "duration": 0.010416666666666666
            },
            {
              "pitch": 23,
              "velocity": 103,
              "position": 18.625,
              "duration": 0.010416666666666666
            },
            {
              "pitch": 24,
              "velocity": 78,
              "position": 18.78125,
              "duration": 0.010416666666666666
            },
            {
              "pitch": 23,
              "velocity": 103,
              "position": 18.933333333333334,
              "duration": 0.010416666666666666
            },
            {
              "pitch": 24,
              "velocity": 89,
              "position": 19.108333333333334,
              "duration": 0.010416666666666666
            },
            {
              "pitch": 23,
              "velocity": 95,
              "position": 19.264583333333334,
              "duration": 0.010416666666666666
            },
            {
              "pitch": 24,
              "velocity": 84,
              "position": 19.41875,
              "duration": 0.010416666666666666
            },
            {
              "pitch": 23,
              "velocity": 103,
              "position": 19.552083333333332,
              "duration": 0.010416666666666666
            },
            {
              "pitch": 24,
              "velocity": 84,
              "position": 19.722916666666666,
              "duration": 0.010416666666666666
            },
            {
              "pitch": 23,
              "velocity": 103,
              "position": 19.860416666666666,
              "duration": 0.010416666666666666
            },
            {
              "pitch": 24,
              "velocity": 84,
              "position": 20.010416666666668,
              "duration": 0.010416666666666666
            },
            {
              "pitch": 23,
              "velocity": 100,
              "position": 20.18125,
              "duration": 0.010416666666666666
            },
            {
              "pitch": 24,
              "velocity": 89,
              "position": 20.360416666666666,
              "duration": 0.010416666666666666
            },
            {
              "pitch": 23,
              "velocity": 103,
              "position": 20.483333333333334,
              "duration": 0.010416666666666666
            },
            {
              "pitch": 24,
              "velocity": 93,
              "position": 20.68125,
              "duration": 0.010416666666666666
            },
            {
              "pitch": 23,
              "velocity": 84,
              "position": 20.80625,
              "duration": 0.010416666666666666
            },
            {
              "pitch": 24,
              "velocity": 81,
              "position": 20.997916666666665,
              "duration": 0.010416666666666666
            },
            {
              "pitch": 23,
              "velocity": 93,
              "position": 21.1375,
              "duration": 0.010416666666666666
            },
            {
              "pitch": 24,
              "velocity": 86,
              "position": 21.335416666666667,
              "duration": 0.010416666666666666
            },
            {
              "pitch": 23,
              "velocity": 76,
              "position": 21.4375,
              "duration": 0.010416666666666666
            },
            {
              "pitch": 24,
              "velocity": 89,
              "position": 21.641666666666666,
              "duration": 0.010416666666666666
            },
            {
              "pitch": 23,
              "velocity": 100,
              "position": 21.795833333333334,
              "duration": 0.010416666666666666
            },
            {
              "pitch": 24,
              "velocity": 84,
              "position": 21.970833333333335,
              "duration": 0.010416666666666666
            },
            {
              "pitch": 23,
              "velocity": 98,
              "position": 22.135416666666668,
              "duration": 0.010416666666666666
            },
            {
              "pitch": 24,
              "velocity": 84,
              "position": 22.304166666666667,
              "duration": 0.010416666666666666
            },
            {
              "pitch": 23,
              "velocity": 103,
              "position": 22.464583333333334,
              "duration": 0.010416666666666666
            },
            {
              "pitch": 24,
              "velocity": 81,
              "position": 22.65,
              "duration": 0.010416666666666666
            },
            {
              "pitch": 23,
              "velocity": 86,
              "position": 22.766666666666666,
              "duration": 0.010416666666666666
            },
            {
              "pitch": 24,
              "velocity": 84,
              "position": 22.954166666666666,
              "duration": 0.010416666666666666
            },
            {
              "pitch": 23,
              "velocity": 93,
              "position": 23.102083333333333,
              "duration": 0.010416666666666666
            },
            {
              "pitch": 24,
              "velocity": 82,
              "position": 23.279166666666665,
              "duration": 0.010416666666666666
            },
            {
              "pitch": 23,
              "velocity": 103,
              "position": 23.425,
              "duration": 0.010416666666666666
            },
            {
              "pitch": 24,
              "velocity": 89,
              "position": 23.6,
              "duration": 0.010416666666666666
            },
            {
              "pitch": 23,
              "velocity": 93,
              "position": 23.714583333333334,
              "duration": 0.010416666666666666
            },
            {
              "pitch": 24,
              "velocity": 124,
              "position": 25,
              "duration": 0.010416666666666666
            },
            {
              "pitch": 23,
              "velocity": 125,
              "position": 25.002083333333335,
              "duration": 0.010416666666666666
            }
          ]
        },
        "9": {
          "ctab": {
            "srcChannel": 9,
            "name": "Drums",
            "accType": "RHYTHM",
            "editable": false,
            "mutedNotes": [],
            "mutedChords": [],
            "autoStart": true,
            "sourceChordNote": 0,
            "sourceChordType": "Maj7",
            "ctb2Low": null,
            "ctb2Main": {
              "ntr": "ROOT_FIXED",
              "ntt": "BYPASS",
              "bassOn": false,
              "chordRootUpperLimit": 6,
              "noteLowLimit": 0,
              "noteHighLimit": 127,
              "rtr": "PITCH_SHIFT"
            },
            "ctb2High": null
          },
          "notes": [
            {
              "pitch": 35,
              "velocity": 48,
              "position": 0,
              "duration": 0.010416666666666666
            },
            {
              "pitch": 57,
              "velocity": 71,
              "position": 0,
              "duration": 0.010416666666666666
            },
            {
              "pitch": 35,
              "velocity": 32,
              "position": 0.5,
              "duration": 0.010416666666666666
            },
            {
              "pitch": 38,
              "velocity": 30,
              "position": 0.5,
              "duration": 0.010416666666666666
            },
            {
              "pitch": 41,
              "velocity": 12,
              "position": 0.5,
              "duration": 0.010416666666666666
            },
            {
              "pitch": 35,
              "velocity": 32,
              "position": 1,
              "duration": 0.010416666666666666
            },
            {
              "pitch": 38,
              "velocity": 30,
              "position": 1,
              "duration": 0.010416666666666666
            },
            {
              "pitch": 41,
              "velocity": 18,
              "position": 1,
              "duration": 0.010416666666666666
            },
            {
              "pitch": 35,
              "velocity": 32,
              "position": 1.5,
              "duration": 0.010416666666666666
            },
            {
              "pitch": 38,
              "velocity": 30,
              "position": 1.5,
              "duration": 0.010416666666666666
            },
            {
              "pitch": 41,
              "velocity": 24,
              "position": 1.5,
              "duration": 0.010416666666666666
            },
            {
              "pitch": 35,
              "velocity": 32,
              "position": 2,
              "duration": 0.010416666666666666
            },
            {
              "pitch": 38,
              "velocity": 34,
              "position": 2,
              "duration": 0.010416666666666666
            },
            {
              "pitch": 41,
              "velocity": 29,
              "position": 2,
              "duration": 0.010416666666666666
            },
            {
              "pitch": 35,
              "velocity": 32,
              "position": 2.5,
              "duration": 0.010416666666666666
            },
            {
              "pitch": 38,
              "velocity": 40,
              "position": 2.5,
              "duration": 0.010416666666666666
            },
            {
              "pitch": 41,
              "velocity": 35,
              "position": 2.5,
              "duration": 0.010416666666666666
            },
            {
              "pitch": 35,
              "velocity": 32,
              "position": 3,
              "duration": 0.010416666666666666
            },
            {
              "pitch": 38,
              "velocity": 45,
              "position": 3,
              "duration": 0.010416666666666666
            },
            {
              "pitch": 41,
              "velocity": 40,
              "position": 3,
              "duration": 0.010416666666666666
            },
            {
              "pitch": 35,
              "velocity": 36,
              "position": 3.5,
              "duration": 0.010416666666666666
            },
            {
              "pitch": 38,
              "velocity": 51,
              "position": 3.5,
              "duration": 0.010416666666666666
            },
            {
              "pitch": 41,
              "velocity": 46,
              "position": 3.5,
              "duration": 0.010416666666666666
            },
            {
              "pitch": 35,
              "velocity": 41,
              "position": 4,
              "duration": 0.010416666666666666
            },
            {
              "pitch": 38,
              "velocity": 57,
              "position": 4,
              "duration": 0.010416666666666666
            },
            {
              "pitch": 41,
              "velocity": 52,
              "position": 4,
              "duration": 0.010416666666666666
            },
            {
              "pitch": 35,
              "velocity": 60,
              "position": 4.5,
              "duration": 0.010416666666666666
            },
            {
              "pitch": 38,
              "velocity": 80,
              "position": 4.5,
              "duration": 0.010416666666666666
            },
            {
              "pitch": 41,
              "velocity": 62,
              "position": 4.5,
              "duration": 0.010416666666666666
            },
            {
              "pitch": 35,
              "velocity": 73,
              "position": 5,
              "duration": 0.010416666666666666
            },
            {
              "pitch": 38,
              "velocity": 97,
              "position": 5,
              "duration": 0.010416666666666666
            },
            {
              "pitch": 41,
              "velocity": 68,
              "position": 5,
              "duration": 0.010416666666666666
            },
            {
              "pitch": 35,
              "velocity": 87,
              "position": 5.5,
              "duration": 0.010416666666666666
            },
            {
              "pitch": 38,
              "velocity": 114,
              "position": 5.5,
              "duration": 0.010416666666666666
            },
            {
              "pitch": 41,
              "velocity": 71,
              "position": 5.5,
              "duration": 0.010416666666666666
            },
            {
              "pitch": 38,
              "velocity": 121,
              "position": 5.979166666666667,
              "duration": 0.010416666666666666
            },
            {
              "pitch": 41,
              "velocity": 83,
              "position": 5.979166666666667,
              "duration": 0.010416666666666666
            },
            {
              "pitch": 35,
              "velocity": 100,
              "position": 6,
              "duration": 0.010416666666666666
            },
            {
              "pitch": 38,
              "velocity": 71,
              "position": 6.066666666666666,
              "duration": 0.010416666666666666
            },
            {
              "pitch": 35,
              "velocity": 32,
              "position": 7.552083333333333,
              "duration": 0.010416666666666666
            },
            {
              "pitch": 35,
              "velocity": 55,
              "position": 7.695833333333334,
              "duration": 0.010416666666666666
            },
            {
              "pitch": 38,
              "velocity": 121,
              "position": 7.858333333333333,
              "duration": 0.010416666666666666
            },
            {
              "pitch": 38,
              "velocity": 65,
              "position": 7.91875,
              "duration": 0.010416666666666666
            },
            {
              "pitch": 35,
              "velocity": 32,
              "position": 8.120833333333334,
              "duration": 0.010416666666666666
            },
            {
              "pitch": 35,
              "velocity": 55,
              "position": 8.2625,
              "duration": 0.010416666666666666
            },
            {
              "pitch": 38,
              "velocity": 121,
              "position": 8.425,
              "duration": 0.010416666666666666
            },
            {
              "pitch": 38,
              "velocity": 65,
              "position": 8.485416666666667,
              "duration": 0.010416666666666666
            },
            {
              "pitch": 35,
              "velocity": 32,
              "position": 9.8125,
              "duration": 0.010416666666666666
            },
            {
              "pitch": 35,
              "velocity": 100,
              "position": 10,
              "duration": 0.010416666666666666
            },
            {
              "pitch": 49,
              "velocity": 72,
              "position": 10,
              "duration": 0.010416666666666666
            },
            {
              "pitch": 38,
              "velocity": 55,
              "position": 10.1875,
              "duration": 0.010416666666666666
            },
            {
              "pitch": 35,
              "velocity": 40,
              "position": 10.375,
              "duration": 0.010416666666666666
            },
            {
              "pitch": 49,
              "velocity": 43,
              "position": 10.375,
              "duration": 0.010416666666666666
            },
            {
              "pitch": 35,
              "velocity": 100,
              "position": 10.5625,
              "duration": 0.010416666666666666
            },
            {
              "pitch": 49,
              "velocity": 72,
              "position": 10.5625,
              "duration": 0.010416666666666666
            },
            {
              "pitch": 38,
              "velocity": 55,
              "position": 10.75,
              "duration": 0.010416666666666666
            },
            {
              "pitch": 35,
              "velocity": 32,
              "position": 10.9375,
              "duration": 0.010416666666666666
            },
            {
              "pitch": 49,
              "velocity": 46,
              "position": 10.9375,
              "duration": 0.010416666666666666
            },
            {
              "pitch": 35,
              "velocity": 47,
              "position": 11.125,
              "duration": 0.010416666666666666
            },
            {
              "pitch": 49,
              "velocity": 70,
              "position": 11.125,
              "duration": 0.010416666666666666
            },
            {
              "pitch": 38,
              "velocity": 113,
              "position": 11.3125,
              "duration": 0.010416666666666666
            },
            {
              "pitch": 35,
              "velocity": 32,
              "position": 11.5,
              "duration": 0.010416666666666666
            },
            {
              "pitch": 35,
              "velocity": 40,
              "position": 11.6875,
              "duration": 0.010416666666666666
            },
            {
              "pitch": 49,
              "velocity": 46,
              "position": 11.6875,
              "duration": 0.010416666666666666
            },
            {
              "pitch": 35,
              "velocity": 100,
              "position": 11.875,
              "duration": 0.010416666666666666
            },
            {
              "pitch": 49,
              "velocity": 71,
              "position": 11.875,
              "duration": 0.010416666666666666
            },
            {
              "pitch": 38,
              "velocity": 38,
              "position": 12.020833333333334,
              "duration": 0.010416666666666666
            },
            {
              "pitch": 38,
              "velocity": 57,
              "position": 12.166666666666666,
              "duration": 0.010416666666666666
            },
            {
              "pitch": 35,
              "velocity": 68,
              "position": 12.3125,
              "duration": 0.010416666666666666
            },
            {
              "pitch": 52,
              "velocity": 53,
              "position": 12.3125,
              "duration": 0.010416666666666666
            },
            {
              "pitch": 38,
              "velocity": 33,
              "position": 12.458333333333334,
              "duration": 0.010416666666666666
            },
            {
              "pitch": 38,
              "velocity": 47,
              "position": 12.604166666666666,
              "duration": 0.010416666666666666
            },
            {
              "pitch": 35,
              "velocity": 72,
              "position": 12.75,
              "duration": 0.010416666666666666
            },
            {
              "pitch": 55,
              "velocity": 80,
              "position": 12.75,
              "duration": 0.010416666666666666
            },
            {
              "pitch": 38,
              "velocity": 41,
              "position": 12.895833333333334,
              "duration": 0.010416666666666666
            },
            {
              "pitch": 38,
              "velocity": 59,
              "position": 13.041666666666666,
              "duration": 0.010416666666666666
            },
            {
              "pitch": 35,
              "velocity": 78,
              "position": 13.1875,
              "duration": 0.010416666666666666
            },
            {
              "pitch": 49,
              "velocity": 66,
              "position": 13.1875,
              "duration": 0.010416666666666666
            },
            {
              "pitch": 38,
              "velocity": 30,
              "position": 13.333333333333334,
              "duration": 0.010416666666666666
            },
            {
              "pitch": 38,
              "velocity": 57,
              "position": 13.479166666666666,
              "duration": 0.010416666666666666
            },
            {
              "pitch": 35,
              "velocity": 100,
              "position": 13.625,
              "duration": 0.010416666666666666
            },
            {
              "pitch": 57,
              "velocity": 60,
              "position": 13.625,
              "duration": 0.010416666666666666
            },
            {
              "pitch": 38,
              "velocity": 44,
              "position": 13.770833333333334,
              "duration": 0.010416666666666666
            },
            {
              "pitch": 38,
              "velocity": 42,
              "position": 13.916666666666666,
              "duration": 0.010416666666666666
            },
            {
              "pitch": 35,
              "velocity": 68,
              "position": 14.0625,
              "duration": 0.010416666666666666
            },
            {
              "pitch": 52,
              "velocity": 53,
              "position": 14.0625,
              "duration": 0.010416666666666666
            },
            {
              "pitch": 38,
              "velocity": 38,
              "position": 14.208333333333334,
              "duration": 0.010416666666666666
            },
            {
              "pitch": 38,
              "velocity": 50,
              "position": 14.354166666666666,
              "duration": 0.010416666666666666
            },
            {
              "pitch": 35,
              "velocity": 72,
              "position": 14.5,
              "duration": 0.010416666666666666
            },
            {
              "pitch": 55,
              "velocity": 80,
              "position": 14.5,
              "duration": 0.010416666666666666
            },
            {
              "pitch": 38,
              "velocity": 30,
              "position": 14.645833333333334,
              "duration": 0.010416666666666666
            },
            {
              "pitch": 38,
              "velocity": 44,
              "position": 14.791666666666666,
              "duration": 0.010416666666666666
            },
            {
              "pitch": 35,
              "velocity": 32,
              "position": 14.9375,
              "duration": 0.010416666666666666
            },
            {
              "pitch": 49,
              "velocity": 61,
              "position": 14.9375,
              "duration": 0.010416666666666666
            },
            {
              "pitch": 35,
              "velocity": 61,
              "position": 15.104166666666666,
              "duration": 0.010416666666666666
            },
            {
              "pitch": 38,
              "velocity": 107,
              "position": 15.25,
              "duration": 0.010416666666666666
            },
            {
              "pitch": 38,
              "velocity": 61,
              "position": 15.329166666666667,
              "duration": 0.010416666666666666
            },
            {
              "pitch": 48,
              "velocity": 30,
              "position": 15.5,
              "duration": 0.010416666666666666
            },
            {
              "pitch": 48,
              "velocity": 48,
              "position": 15.625,
              "duration": 0.010416666666666666
            },
            {
              "pitch": 48,
              "velocity": 56,
              "position": 15.75,
              "duration": 0.010416666666666666
            },
            {
              "pitch": 35,
              "velocity": 100,
              "position": 15.875,
              "duration": 0.010416666666666666
            },
            {
              "pitch": 49,
              "velocity": 94,
              "position": 15.875,
              "duration": 0.010416666666666666
            },
            {
              "pitch": 35,
              "velocity": 72,
              "position": 16.0625,
              "duration": 0.010416666666666666
            },
            {
              "pitch": 38,
              "velocity": 95,
              "position": 16.25,
              "duration": 0.010416666666666666
            },
            {
              "pitch": 35,
              "velocity": 100,
              "position": 16.4375,
              "duration": 0.010416666666666666
            },
            {
              "pitch": 48,
              "velocity": 64,
              "position": 16.645833333333332,
              "duration": 0.010416666666666666
            },
            {
              "pitch": 48,
              "velocity": 39,
              "position": 16.770833333333332,
              "duration": 0.010416666666666666
            },
            {
              "pitch": 35,
              "velocity": 100,
              "position": 16.895833333333332,
              "duration": 0.010416666666666666
            },
            {
              "pitch": 48,
              "velocity": 72,
              "position": 17.045833333333334,
              "duration": 0.010416666666666666
            },
            {
              "pitch": 48,
              "velocity": 45,
              "position": 17.175,
              "duration": 0.010416666666666666
            },
            {
              "pitch": 47,
              "velocity": 44,
              "position": 17.289583333333333,
              "duration": 0.010416666666666666
            },
            {
              "pitch": 47,
              "velocity": 45,
              "position": 17.472916666666666,
              "duration": 0.010416666666666666
            },
            {
              "pitch": 47,
              "velocity": 48,
              "position": 17.597916666666666,
              "duration": 0.010416666666666666
            },
            {
              "pitch": 47,
              "velocity": 71,
              "position": 17.695833333333333,
              "duration": 0.010416666666666666
            },
            {
              "pitch": 47,
              "velocity": 75,
              "position": 17.802083333333332,
              "duration": 0.010416666666666666
            },
            {
              "pitch": 47,
              "velocity": 84,
              "position": 17.927083333333332,
              "duration": 0.010416666666666666
            },
            {
              "pitch": 45,
              "velocity": 29,
              "position": 18.189583333333335,
              "duration": 0.010416666666666666
            },
            {
              "pitch": 45,
              "velocity": 36,
              "position": 18.283333333333335,
              "duration": 0.010416666666666666
            },
            {
              "pitch": 45,
              "velocity": 32,
              "position": 18.377083333333335,
              "duration": 0.010416666666666666
            },
            {
              "pitch": 45,
              "velocity": 46,
              "position": 18.497916666666665,
              "duration": 0.010416666666666666
            },
            {
              "pitch": 45,
              "velocity": 38,
              "position": 18.595833333333335,
              "duration": 0.010416666666666666
            },
            {
              "pitch": 45,
              "velocity": 48,
              "position": 18.71875,
              "duration": 0.010416666666666666
            },
            {
              "pitch": 45,
              "velocity": 70,
              "position": 18.814583333333335,
              "duration": 0.010416666666666666
            },
            {
              "pitch": 45,
              "velocity": 80,
              "position": 18.927083333333332,
              "duration": 0.010416666666666666
            },
            {
              "pitch": 43,
              "velocity": 48,
              "position": 19.039583333333333,
              "duration": 0.010416666666666666
            },
            {
              "pitch": 43,
              "velocity": 50,
              "position": 19.147916666666667,
              "duration": 0.010416666666666666
            },
            {
              "pitch": 43,
              "velocity": 54,
              "position": 19.264583333333334,
              "duration": 0.010416666666666666
            },
            {
              "pitch": 43,
              "velocity": 61,
              "position": 19.41875,
              "duration": 0.010416666666666666
            },
            {
              "pitch": 43,
              "velocity": 67,
              "position": 19.591666666666665,
              "duration": 0.010416666666666666
            },
            {
              "pitch": 43,
              "velocity": 72,
              "position": 19.74375,
              "duration": 0.010416666666666666
            },
            {
              "pitch": 43,
              "velocity": 72,
              "position": 20.11875,
              "duration": 0.010416666666666666
            },
            {
              "pitch": 43,
              "velocity": 58,
              "position": 20.508333333333333,
              "duration": 0.010416666666666666
            },
            {
              "pitch": 43,
              "velocity": 76,
              "position": 20.845833333333335,
              "duration": 0.010416666666666666
            },
            {
              "pitch": 47,
              "velocity": 80,
              "position": 21.2,
              "duration": 0.010416666666666666
            },
            {
              "pitch": 47,
              "velocity": 70,
              "position": 21.560416666666665,
              "duration": 0.010416666666666666
            },
            {
              "pitch": 48,
              "velocity": 72,
              "position": 21.922916666666666,
              "duration": 0.010416666666666666
            },
            {
              "pitch": 48,
              "velocity": 79,
              "position": 22.295833333333334,
              "duration": 0.010416666666666666
            },
            {
              "pitch": 48,
              "velocity": 91,
              "position": 22.679166666666667,
              "duration": 0.010416666666666666
            },
            {
              "pitch": 35,
              "velocity": 55,
              "position": 23.3,
              "duration": 0.010416666666666666
            },
            {
              "pitch": 38,
              "velocity": 106,
              "position": 23.4625,
              "duration": 0.010416666666666666
            },
            {
              "pitch": 38,
              "velocity": 47,
              "position": 23.522916666666667,
              "duration": 0.010416666666666666
            },
            {
              "pitch": 35,
              "velocity": 32,
              "position": 23.725,
              "duration": 0.010416666666666666
            },
            {
              "pitch": 35,
              "velocity": 55,
              "position": 23.866666666666667,
              "duration": 0.010416666666666666
            },
            {
              "pitch": 38,
              "velocity": 121,
              "position": 24.029166666666665,
              "duration": 0.010416666666666666
            },
            {
              "pitch": 38,
              "velocity": 65,
              "position": 24.089583333333334,
              "duration": 0.010416666666666666
            },
            {
              "pitch": 35,
              "velocity": 32,
              "position": 24.752083333333335,
              "duration": 0.010416666666666666
            },
            {
              "pitch": 35,
              "velocity": 100,
              "position": 25,
              "duration": 0.010416666666666666
            },
            {
              "pitch": 49,
              "velocity": 86,
              "position": 25.014583333333334,
              "duration": 0.010416666666666666
            }
          ]
        },
        "10": {
          "ctab": {
            "srcChannel": 10,
            "name": "Bass FX",
            "accType": "BASS",
            "editable": false,
            "mutedNotes": [],
            "mutedChords": [],
            "autoStart": false,
            "sourceChordNote": 0,
            "sourceChordType": "Maj7",
            "ctb2Low": null,
            "ctb2Main": {
              "ntr": "ROOT_FIXED",
              "ntt": "BYPASS",
              "bassOn": false,
              "chordRootUpperLimit": 7,
              "noteLowLimit": 0,
              "noteHighLimit": 127,
              "rtr": "PITCH_SHIFT"
            },
            "ctb2High": null
          },
          "notes": [
            {
              "pitch": 97,
              "velocity": 80,
              "position": 24.575,
              "duration": 0.4666666666666667
            },
            {
              "pitch": 96,
              "velocity": 50,
              "position": 25.7,
              "duration": 2.2916666666666665
            }
          ]
        },
        "11": {
          "ctab": {
            "srcChannel": 11,
            "name": "Bass Maj",
            "accType": "BASS",
            "editable": false,
            "mutedNotes": [],
            "mutedChords": [
              "dim7",
              "dim",
              "minMaj7(9)",
              "minMaj7",
              "min7(11)",
              "min7(9)",
              "min(9)",
              "m7b5",
              "min7",
              "min6",
              "min"
            ],
            "autoStart": false,
            "sourceChordNote": 0,
            "sourceChordType": "Maj",
            "ctb2Low": null,
            "ctb2Main": {
              "ntr": "ROOT_TRANSPOSITION",
              "ntt": "BYPASS",
              "bassOn": false,
              "chordRootUpperLimit": 8,
              "noteLowLimit": 28,
              "noteHighLimit": 127,
              "rtr": "PITCH_SHIFT"
            },
            "ctb2High": null
          },
          "notes": [
            {
              "pitch": 24,
              "velocity": 50,
              "position": 0,
              "duration": 0.24375
            },
            {
              "pitch": 24,
              "velocity": 52,
              "position": 0.5,
              "duration": 0.23125
            },
            {
              "pitch": 24,
              "velocity": 55,
              "position": 1,
              "duration": 0.25
            },
            {
              "pitch": 24,
              "velocity": 57,
              "position": 1.5,
              "duration": 0.28125
            },
            {
              "pitch": 24,
              "velocity": 60,
              "position": 2,
              "duration": 0.2916666666666667
            },
            {
              "pitch": 24,
              "velocity": 62,
              "position": 2.5,
              "duration": 0.2833333333333333
            },
            {
              "pitch": 24,
              "velocity": 65,
              "position": 3,
              "duration": 0.25416666666666665
            },
            {
              "pitch": 24,
              "velocity": 67,
              "position": 3.5,
              "duration": 0.24166666666666667
            },
            {
              "pitch": 24,
              "velocity": 70,
              "position": 4,
              "duration": 0.3104166666666667
            },
            {
              "pitch": 24,
              "velocity": 72,
              "position": 4.5,
              "duration": 0.3020833333333333
            },
            {
              "pitch": 24,
              "velocity": 75,
              "position": 5,
              "duration": 0.32083333333333336
            },
            {
              "pitch": 24,
              "velocity": 77,
              "position": 5.5,
              "duration": 0.3229166666666667
            },
            {
              "pitch": 24,
              "velocity": 80,
              "position": 6,
              "duration": 0.35
            },
            {
              "pitch": 24,
              "velocity": 80,
              "position": 10,
              "duration": 6.289583333333334
            },
            {
              "pitch": 24,
              "velocity": 24,
              "position": 16.297916666666666,
              "duration": 0.17916666666666667
            },
            {
              "pitch": 24,
              "velocity": 37,
              "position": 16.495833333333334,
              "duration": 0.14375
            },
            {
              "pitch": 24,
              "velocity": 24,
              "position": 16.647916666666667,
              "duration": 0.15833333333333333
            },
            {
              "pitch": 24,
              "velocity": 42,
              "position": 16.814583333333335,
              "duration": 0.14791666666666667
            },
            {
              "pitch": 24,
              "velocity": 33,
              "position": 16.970833333333335,
              "duration": 0.17291666666666666
            },
            {
              "pitch": 24,
              "velocity": 45,
              "position": 17.15625,
              "duration": 0.13333333333333333
            },
            {
              "pitch": 24,
              "velocity": 20,
              "position": 17.3,
              "duration": 0.17916666666666667
            },
            {
              "pitch": 24,
              "velocity": 42,
              "position": 17.491666666666667,
              "duration": 0.11041666666666666
            },
            {
              "pitch": 24,
              "velocity": 13,
              "position": 17.6125,
              "duration": 0.17083333333333334
            },
            {
              "pitch": 24,
              "velocity": 42,
              "position": 17.79375,
              "duration": 0.1375
            },
            {
              "pitch": 24,
              "velocity": 13,
              "position": 17.941666666666666,
              "duration": 0.1625
            },
            {
              "pitch": 24,
              "velocity": 45,
              "position": 18.114583333333332,
              "duration": 0.1375
            },
            {
              "pitch": 24,
              "velocity": 13,
              "position": 18.2625,
              "duration": 0.16875
            },
            {
              "pitch": 24,
              "velocity": 31,
              "position": 18.441666666666666,
              "duration": 0.11041666666666666
            },
            {
              "pitch": 24,
              "velocity": 13,
              "position": 18.5625,
              "duration": 0.17291666666666666
            },
            {
              "pitch": 24,
              "velocity": 45,
              "position": 18.745833333333334,
              "duration": 0.15416666666666667
            },
            {
              "pitch": 24,
              "velocity": 33,
              "position": 18.910416666666666,
              "duration": 0.17916666666666667
            },
            {
              "pitch": 24,
              "velocity": 50,
              "position": 19.102083333333333,
              "duration": 0.15
            },
            {
              "pitch": 24,
              "velocity": 39,
              "position": 19.2625,
              "duration": 0.16666666666666666
            },
            {
              "pitch": 24,
              "velocity": 45,
              "position": 19.439583333333335,
              "duration": 0.15416666666666667
            },
            {
              "pitch": 24,
              "velocity": 37,
              "position": 19.604166666666668,
              "duration": 0.17916666666666667
            },
            {
              "pitch": 24,
              "velocity": 50,
              "position": 19.797916666666666,
              "duration": 0.15416666666666667
            },
            {
              "pitch": 24,
              "velocity": 27,
              "position": 19.9625,
              "duration": 0.17708333333333334
            },
            {
              "pitch": 24,
              "velocity": 42,
              "position": 20.152083333333334,
              "duration": 0.1625
            },
            {
              "pitch": 24,
              "velocity": 31,
              "position": 20.325,
              "duration": 0.17916666666666667
            },
            {
              "pitch": 24,
              "velocity": 50,
              "position": 20.516666666666666,
              "duration": 0.14583333333333334
            },
            {
              "pitch": 24,
              "velocity": 29,
              "position": 20.672916666666666,
              "duration": 0.17916666666666667
            },
            {
              "pitch": 24,
              "velocity": 45,
              "position": 20.870833333333334,
              "duration": 0.14583333333333334
            },
            {
              "pitch": 24,
              "velocity": 37,
              "position": 21.027083333333334,
              "duration": 0.17916666666666667
            },
            {
              "pitch": 24,
              "velocity": 54,
              "position": 21.227083333333333,
              "duration": 0.17916666666666667
            },
            {
              "pitch": 24,
              "velocity": 17,
              "position": 21.420833333333334,
              "duration": 0.17916666666666667
            },
            {
              "pitch": 24,
              "velocity": 50,
              "position": 21.6125,
              "duration": 0.17916666666666667
            },
            {
              "pitch": 24,
              "velocity": 33,
              "position": 21.802083333333332,
              "duration": 0.17916666666666667
            },
            {
              "pitch": 24,
              "velocity": 54,
              "position": 22.00625,
              "duration": 2.0625
            },
            {
              "pitch": 24,
              "velocity": 80,
              "position": 25.0125,
              "duration": 1.1541666666666666
            }
          ]
        },
        "12": {
          "ctab": {
            "srcChannel": 12,
            "name": "Bass min",
            "accType": "BASS",
            "editable": false,
            "mutedNotes": [],
            "mutedChords": [
              "1+2+5",
              "sus4",
              "1+5",
              "1+8",
              "7aug",
              "Maj7aug",
              "7(#9)",
              "7(b13)",
              "7(b9)",
              "7(13)",
              "7#11",
              "7(9)",
              "7b5",
              "7sus4",
              "7th",
              "aug",
              "Maj6(9)",
              "Maj7(9)",
              "Maj(9)",
              "Maj7#11",
              "Maj7",
              "Maj6",
              "Maj"
            ],
            "autoStart": false,
            "sourceChordNote": 0,
            "sourceChordType": "min",
            "ctb2Low": null,
            "ctb2Main": {
              "ntr": "ROOT_TRANSPOSITION",
              "ntt": "BYPASS",
              "bassOn": false,
              "chordRootUpperLimit": 8,
              "noteLowLimit": 28,
              "noteHighLimit": 127,
              "rtr": "PITCH_SHIFT"
            },
            "ctb2High": null
          },
          "notes": [
            {
              "pitch": 24,
              "velocity": 50,
              "position": 0,
              "duration": 0.24375
            },
            {
              "pitch": 24,
              "velocity": 52,
              "position": 0.5,
              "duration": 0.23125
            },
            {
              "pitch": 24,
              "velocity": 55,
              "position": 1,
              "duration": 0.25
            },
            {
              "pitch": 24,
              "velocity": 57,
              "position": 1.5,
              "duration": 0.28125
            },
            {
              "pitch": 24,
              "velocity": 60,
              "position": 2,
              "duration": 0.2916666666666667
            },
            {
              "pitch": 24,
              "velocity": 62,
              "position": 2.5,
              "duration": 0.2833333333333333
            },
            {
              "pitch": 24,
              "velocity": 65,
              "position": 3,
              "duration": 0.25416666666666665
            },
            {
              "pitch": 24,
              "velocity": 67,
              "position": 3.5,
              "duration": 0.24166666666666667
            },
            {
              "pitch": 24,
              "velocity": 70,
              "position": 4,
              "duration": 0.3104166666666667
            },
            {
              "pitch": 24,
              "velocity": 72,
              "position": 4.5,
              "duration": 0.3020833333333333
            },
            {
              "pitch": 24,
              "velocity": 75,
              "position": 5,
              "duration": 0.32083333333333336
            },
            {
              "pitch": 24,
              "velocity": 77,
              "position": 5.5,
              "duration": 0.3229166666666667
            },
            {
              "pitch": 24,
              "velocity": 80,
              "position": 6,
              "duration": 0.35
            },
            {
              "pitch": 24,
              "velocity": 80,
              "position": 10,
              "duration": 6.289583333333334
            },
            {
              "pitch": 24,
              "velocity": 24,
              "position": 16.297916666666666,
              "duration": 0.17916666666666667
            },
            {
              "pitch": 24,
              "velocity": 37,
              "position": 16.495833333333334,
              "duration": 0.14375
            },
            {
              "pitch": 24,
              "velocity": 24,
              "position": 16.647916666666667,
              "duration": 0.15833333333333333
            },
            {
              "pitch": 24,
              "velocity": 42,
              "position": 16.814583333333335,
              "duration": 0.14791666666666667
            },
            {
              "pitch": 24,
              "velocity": 33,
              "position": 16.970833333333335,
              "duration": 0.17291666666666666
            },
            {
              "pitch": 24,
              "velocity": 45,
              "position": 17.15625,
              "duration": 0.13333333333333333
            },
            {
              "pitch": 24,
              "velocity": 20,
              "position": 17.3,
              "duration": 0.17916666666666667
            },
            {
              "pitch": 24,
              "velocity": 42,
              "position": 17.491666666666667,
              "duration": 0.11041666666666666
            },
            {
              "pitch": 24,
              "velocity": 13,
              "position": 17.6125,
              "duration": 0.17083333333333334
            },
            {
              "pitch": 24,
              "velocity": 42,
              "position": 17.79375,
              "duration": 0.1375
            },
            {
              "pitch": 24,
              "velocity": 13,
              "position": 17.941666666666666,
              "duration": 0.1625
            },
            {
              "pitch": 24,
              "velocity": 45,
              "position": 18.114583333333332,
              "duration": 0.1375
            },
            {
              "pitch": 24,
              "velocity": 13,
              "position": 18.2625,
              "duration": 0.16875
            },
            {
              "pitch": 24,
              "velocity": 31,
              "position": 18.441666666666666,
              "duration": 0.11041666666666666
            },
            {
              "pitch": 24,
              "velocity": 13,
              "position": 18.5625,
              "duration": 0.17291666666666666
            },
            {
              "pitch": 24,
              "velocity": 45,
              "position": 18.745833333333334,
              "duration": 0.15416666666666667
            },
            {
              "pitch": 24,
              "velocity": 33,
              "position": 18.910416666666666,
              "duration": 0.17916666666666667
            },
            {
              "pitch": 24,
              "velocity": 50,
              "position": 19.102083333333333,
              "duration": 0.15
            },
            {
              "pitch": 24,
              "velocity": 39,
              "position": 19.2625,
              "duration": 0.16666666666666666
            },
            {
              "pitch": 24,
              "velocity": 45,
              "position": 19.439583333333335,
              "duration": 0.15416666666666667
            },
            {
              "pitch": 24,
              "velocity": 37,
              "position": 19.604166666666668,
              "duration": 0.17916666666666667
            },
            {
              "pitch": 24,
              "velocity": 50,
              "position": 19.797916666666666,
              "duration": 0.15416666666666667
            },
            {
              "pitch": 24,
              "velocity": 27,
              "position": 19.9625,
              "duration": 0.17708333333333334
            },
            {
              "pitch": 24,
              "velocity": 42,
              "position": 20.152083333333334,
              "duration": 0.1625
            },
            {
              "pitch": 24,
              "velocity": 31,
              "position": 20.325,
              "duration": 0.17916666666666667
            },
            {
              "pitch": 24,
              "velocity": 50,
              "position": 20.516666666666666,
              "duration": 0.14583333333333334
            },
            {
              "pitch": 24,
              "velocity": 29,
              "position": 20.672916666666666,
              "duration": 0.17916666666666667
            },
            {
              "pitch": 24,
              "velocity": 45,
              "position": 20.870833333333334,
              "duration": 0.14583333333333334
            },
            {
              "pitch": 24,
              "velocity": 37,
              "position": 21.027083333333334,
              "duration": 0.17916666666666667
            },
            {
              "pitch": 24,
              "velocity": 54,
              "position": 21.227083333333333,
              "duration": 0.17916666666666667
            },
            {
              "pitch": 24,
              "velocity": 17,
              "position": 21.420833333333334,
              "duration": 0.17916666666666667
            },
            {
              "pitch": 24,
              "velocity": 50,
              "position": 21.6125,
              "duration": 0.17916666666666667
            },
            {
              "pitch": 24,
              "velocity": 33,
              "position": 21.802083333333332,
              "duration": 0.17916666666666667
            },
            {
              "pitch": 24,
              "velocity": 54,
              "position": 22.00625,
              "duration": 2.0625
            },
            {
              "pitch": 24,
              "velocity": 80,
              "position": 25.0125,
              "duration": 1.1541666666666666
            }
          ]
        },
        "13": {
          "ctab": {
            "srcChannel": 13,
            "name": "E.P  Maj",
            "accType": "CHORD2",
            "editable": false,
            "mutedNotes": [],
            "mutedChords": [
              "dim7",
              "dim",
              "minMaj7(9)",
              "minMaj7",
              "min7(11)",
              "min7(9)",
              "min(9)",
              "m7b5",
              "min7",
              "min6",
              "min"
            ],
            "autoStart": false,
            "sourceChordNote": 0,
            "sourceChordType": "Maj",
            "ctb2Low": null,
            "ctb2Main": {
              "ntr": "ROOT_TRANSPOSITION",
              "ntt": "BYPASS",
              "bassOn": false,
              "chordRootUpperLimit": 3,
              "noteLowLimit": 54,
              "noteHighLimit": 79,
              "rtr": "PITCH_SHIFT"
            },
            "ctb2High": null
          },
          "notes": [
            {
              "pitch": 52,
              "velocity": 24,
              "position": 0.004166666666666667,
              "duration": 0.175
            },
            {
              "pitch": 43,
              "velocity": 25,
              "position": 0.004166666666666667,
              "duration": 0.17916666666666667
            },
            {
              "pitch": 48,
              "velocity": 27,
              "position": 0.00625,
              "duration": 0.20833333333333334
            },
            {
              "pitch": 46,
              "velocity": 39,
              "position": 0.0020833333333333333,
              "duration": 0.26875
            },
            {
              "pitch": 46,
              "velocity": 28,
              "position": 0.5104166666666666,
              "duration": 0.17708333333333334
            },
            {
              "pitch": 52,
              "velocity": 26,
              "position": 0.5083333333333333,
              "duration": 0.17916666666666667
            },
            {
              "pitch": 48,
              "velocity": 28,
              "position": 0.5104166666666666,
              "duration": 0.17916666666666667
            },
            {
              "pitch": 43,
              "velocity": 34,
              "position": 0.50625,
              "duration": 0.21458333333333332
            },
            {
              "pitch": 52,
              "velocity": 39,
              "position": 1.00625,
              "duration": 0.17916666666666667
            },
            {
              "pitch": 46,
              "velocity": 39,
              "position": 1.00625,
              "duration": 0.21666666666666667
            },
            {
              "pitch": 48,
              "velocity": 45,
              "position": 1.0083333333333333,
              "duration": 0.22083333333333333
            },
            {
              "pitch": 43,
              "velocity": 50,
              "position": 1.00625,
              "duration": 0.22916666666666666
            },
            {
              "pitch": 52,
              "velocity": 45,
              "position": 1.50625,
              "duration": 0.17916666666666667
            },
            {
              "pitch": 43,
              "velocity": 63,
              "position": 1.5041666666666667,
              "duration": 0.21875
            },
            {
              "pitch": 46,
              "velocity": 55,
              "position": 1.5041666666666667,
              "duration": 0.23541666666666666
            },
            {
              "pitch": 48,
              "velocity": 55,
              "position": 1.50625,
              "duration": 0.2375
            },
            {
              "pitch": 46,
              "velocity": 60,
              "position": 2.004166666666667,
              "duration": 0.21875
            },
            {
              "pitch": 43,
              "velocity": 74,
              "position": 2.004166666666667,
              "duration": 0.22708333333333333
            },
            {
              "pitch": 52,
              "velocity": 78,
              "position": 2.002083333333333,
              "duration": 0.23958333333333334
            },
            {
              "pitch": 48,
              "velocity": 59,
              "position": 2.004166666666667,
              "duration": 0.26875
            },
            {
              "pitch": 43,
              "velocity": 84,
              "position": 2.504166666666667,
              "duration": 0.21875
            },
            {
              "pitch": 46,
              "velocity": 70,
              "position": 2.504166666666667,
              "duration": 0.22291666666666668
            },
            {
              "pitch": 52,
              "velocity": 76,
              "position": 2.504166666666667,
              "duration": 0.225
            },
            {
              "pitch": 48,
              "velocity": 72,
              "position": 2.504166666666667,
              "duration": 0.28958333333333336
            },
            {
              "pitch": 43,
              "velocity": 105,
              "position": 3.00625,
              "duration": 0.225
            },
            {
              "pitch": 52,
              "velocity": 100,
              "position": 3.004166666666667,
              "duration": 0.2520833333333333
            },
            {
              "pitch": 46,
              "velocity": 84,
              "position": 3.004166666666667,
              "duration": 0.26666666666666666
            },
            {
              "pitch": 48,
              "velocity": 86,
              "position": 3.00625,
              "duration": 0.28125
            },
            {
              "pitch": 52,
              "velocity": 100,
              "position": 3.504166666666667,
              "duration": 0.22916666666666666
            },
            {
              "pitch": 46,
              "velocity": 86,
              "position": 3.504166666666667,
              "duration": 0.23541666666666666
            },
            {
              "pitch": 43,
              "velocity": 100,
              "position": 3.50625,
              "duration": 0.23958333333333334
            },
            {
              "pitch": 48,
              "velocity": 89,
              "position": 3.50625,
              "duration": 0.25
            },
            {
              "pitch": 52,
              "velocity": 114,
              "position": 4.004166666666666,
              "duration": 0.23333333333333334
            },
            {
              "pitch": 46,
              "velocity": 103,
              "position": 4.004166666666666,
              "duration": 0.24166666666666667
            },
            {
              "pitch": 43,
              "velocity": 107,
              "position": 4.004166666666666,
              "duration": 0.24375
            },
            {
              "pitch": 48,
              "velocity": 95,
              "position": 4.004166666666666,
              "duration": 0.2520833333333333
            },
            {
              "pitch": 52,
              "velocity": 122,
              "position": 4.50625,
              "duration": 0.23125
            },
            {
              "pitch": 43,
              "velocity": 112,
              "position": 4.508333333333334,
              "duration": 0.24166666666666667
            },
            {
              "pitch": 46,
              "velocity": 107,
              "position": 4.50625,
              "duration": 0.24791666666666667
            },
            {
              "pitch": 48,
              "velocity": 107,
              "position": 4.50625,
              "duration": 0.25
            },
            {
              "pitch": 52,
              "velocity": 120,
              "position": 5.00625,
              "duration": 0.22916666666666666
            },
            {
              "pitch": 43,
              "velocity": 118,
              "position": 5.008333333333334,
              "duration": 0.23541666666666666
            },
            {
              "pitch": 46,
              "velocity": 110,
              "position": 5.00625,
              "duration": 0.23958333333333334
            },
            {
              "pitch": 48,
              "velocity": 107,
              "position": 5.008333333333334,
              "duration": 0.25416666666666665
            },
            {
              "pitch": 46,
              "velocity": 103,
              "position": 5.504166666666666,
              "duration": 0.2375
            },
            {
              "pitch": 43,
              "velocity": 118,
              "position": 5.504166666666666,
              "duration": 0.2708333333333333
            },
            {
              "pitch": 52,
              "velocity": 124,
              "position": 5.502083333333333,
              "duration": 0.28125
            },
            {
              "pitch": 48,
              "velocity": 112,
              "position": 5.504166666666666,
              "duration": 0.2833333333333333
            },
            {
              "pitch": 52,
              "velocity": 125,
              "position": 6.004166666666666,
              "duration": 0.4
            },
            {
              "pitch": 43,
              "velocity": 120,
              "position": 6.00625,
              "duration": 0.4166666666666667
            },
            {
              "pitch": 46,
              "velocity": 103,
              "position": 6.00625,
              "duration": 0.44166666666666665
            },
            {
              "pitch": 48,
              "velocity": 103,
              "position": 6.00625,
              "duration": 0.46875
            },
            {
              "pitch": 50,
              "velocity": 125,
              "position": 9.977083333333333,
              "duration": 2.0229166666666667
            },
            {
              "pitch": 46,
              "velocity": 124,
              "position": 9.977083333333333,
              "duration": 3.7291666666666665
            },
            {
              "pitch": 52,
              "velocity": 122,
              "position": 9.977083333333333,
              "duration": 3.8541666666666665
            },
            {
              "pitch": 46,
              "velocity": 89,
              "position": 13.714583333333334,
              "duration": 0.2708333333333333
            },
            {
              "pitch": 52,
              "velocity": 63,
              "position": 13.839583333333334,
              "duration": 0.2604166666666667
            },
            {
              "pitch": 46,
              "velocity": 81,
              "position": 13.99375,
              "duration": 0.24791666666666667
            },
            {
              "pitch": 52,
              "velocity": 76,
              "position": 14.108333333333333,
              "duration": 0.2125
            },
            {
              "pitch": 46,
              "velocity": 55,
              "position": 14.25,
              "duration": 0.21666666666666667
            },
            {
              "pitch": 52,
              "velocity": 89,
              "position": 14.329166666666667,
              "duration": 0.24583333333333332
            },
            {
              "pitch": 46,
              "velocity": 81,
              "position": 14.475,
              "duration": 0.22916666666666666
            },
            {
              "pitch": 52,
              "velocity": 84,
              "position": 14.583333333333334,
              "duration": 0.23541666666666666
            },
            {
              "pitch": 46,
              "velocity": 76,
              "position": 14.7125,
              "duration": 0.20416666666666666
            },
            {
              "pitch": 52,
              "velocity": 89,
              "position": 14.827083333333333,
              "duration": 0.23125
            },
            {
              "pitch": 46,
              "velocity": 89,
              "position": 14.925,
              "duration": 0.24791666666666667
            },
            {
              "pitch": 52,
              "velocity": 84,
              "position": 15.066666666666666,
              "duration": 0.23958333333333334
            },
            {
              "pitch": 46,
              "velocity": 81,
              "position": 15.18125,
              "duration": 0.24583333333333332
            },
            {
              "pitch": 52,
              "velocity": 78,
              "position": 15.314583333333333,
              "duration": 0.24166666666666667
            },
            {
              "pitch": 46,
              "velocity": 84,
              "position": 15.435416666666667,
              "duration": 0.21875
            },
            {
              "pitch": 52,
              "velocity": 84,
              "position": 15.564583333333333,
              "duration": 0.2125
            },
            {
              "pitch": 46,
              "velocity": 82,
              "position": 15.6625,
              "duration": 0.20416666666666666
            },
            {
              "pitch": 50,
              "velocity": 81,
              "position": 12.008333333333333,
              "duration": 3.95
            },
            {
              "pitch": 52,
              "velocity": 72,
              "position": 15.785416666666666,
              "duration": 0.21458333333333332
            },
            {
              "pitch": 46,
              "velocity": 51,
              "position": 15.875,
              "duration": 0.25416666666666665
            },
            {
              "pitch": 50,
              "velocity": 9,
              "position": 15.966666666666667,
              "duration": 0.4
            },
            {
              "pitch": 50,
              "velocity": 98,
              "position": 16.375,
              "duration": 0.29583333333333334
            },
            {
              "pitch": 55,
              "velocity": 103,
              "position": 16.55,
              "duration": 0.2833333333333333
            },
            {
              "pitch": 50,
              "velocity": 47,
              "position": 16.679166666666667,
              "duration": 0.24583333333333332
            },
            {
              "pitch": 55,
              "velocity": 64,
              "position": 16.841666666666665,
              "duration": 0.21458333333333332
            },
            {
              "pitch": 50,
              "velocity": 51,
              "position": 16.933333333333334,
              "duration": 0.2520833333333333
            },
            {
              "pitch": 55,
              "velocity": 84,
              "position": 17.064583333333335,
              "duration": 0.2375
            },
            {
              "pitch": 50,
              "velocity": 56,
              "position": 17.19375,
              "duration": 0.23125
            },
            {
              "pitch": 55,
              "velocity": 81,
              "position": 17.310416666666665,
              "duration": 0.22708333333333333
            },
            {
              "pitch": 50,
              "velocity": 64,
              "position": 17.433333333333334,
              "duration": 0.21666666666666667
            },
            {
              "pitch": 55,
              "velocity": 78,
              "position": 17.545833333333334,
              "duration": 0.21875
            },
            {
              "pitch": 50,
              "velocity": 72,
              "position": 17.658333333333335,
              "duration": 0.24166666666666667
            },
            {
              "pitch": 55,
              "velocity": 70,
              "position": 17.772916666666667,
              "duration": 0.23541666666666666
            },
            {
              "pitch": 50,
              "velocity": 68,
              "position": 17.908333333333335,
              "duration": 0.23125
            },
            {
              "pitch": 55,
              "velocity": 81,
              "position": 18.016666666666666,
              "duration": 0.22708333333333333
            },
            {
              "pitch": 50,
              "velocity": 72,
              "position": 18.147916666666667,
              "duration": 0.21875
            },
            {
              "pitch": 55,
              "velocity": 64,
              "position": 18.252083333333335,
              "duration": 0.23125
            },
            {
              "pitch": 50,
              "velocity": 68,
              "position": 18.375,
              "duration": 0.25625
            },
            {
              "pitch": 55,
              "velocity": 74,
              "position": 18.491666666666667,
              "duration": 0.23333333333333334
            },
            {
              "pitch": 50,
              "velocity": 84,
              "position": 18.639583333333334,
              "duration": 0.21041666666666667
            },
            {
              "pitch": 55,
              "velocity": 78,
              "position": 18.733333333333334,
              "duration": 0.24791666666666667
            },
            {
              "pitch": 50,
              "velocity": 81,
              "position": 18.858333333333334,
              "duration": 0.25625
            },
            {
              "pitch": 55,
              "velocity": 89,
              "position": 18.989583333333332,
              "duration": 0.24375
            },
            {
              "pitch": 50,
              "velocity": 89,
              "position": 19.122916666666665,
              "duration": 0.24791666666666667
            },
            {
              "pitch": 55,
              "velocity": 86,
              "position": 19.241666666666667,
              "duration": 0.22916666666666666
            },
            {
              "pitch": 50,
              "velocity": 74,
              "position": 19.379166666666666,
              "duration": 0.2604166666666667
            },
            {
              "pitch": 55,
              "velocity": 89,
              "position": 19.479166666666668,
              "duration": 0.2375
            },
            {
              "pitch": 50,
              "velocity": 55,
              "position": 19.647916666666667,
              "duration": 0.17916666666666667
            },
            {
              "pitch": 55,
              "velocity": 68,
              "position": 19.725,
              "duration": 0.2791666666666667
            },
            {
              "pitch": 50,
              "velocity": 42,
              "position": 19.835416666666667,
              "duration": 0.2604166666666667
            },
            {
              "pitch": 55,
              "velocity": 81,
              "position": 20.0125,
              "duration": 0.21041666666666667
            },
            {
              "pitch": 50,
              "velocity": 39,
              "position": 20.104166666666668,
              "duration": 0.2791666666666667
            },
            {
              "pitch": 55,
              "velocity": 95,
              "position": 20.23125,
              "duration": 0.25416666666666665
            },
            {
              "pitch": 50,
              "velocity": 51,
              "position": 20.391666666666666,
              "duration": 0.20208333333333334
            },
            {
              "pitch": 55,
              "velocity": 89,
              "position": 20.49375,
              "duration": 0.225
            },
            {
              "pitch": 50,
              "velocity": 52,
              "position": 20.602083333333333,
              "duration": 0.2604166666666667
            },
            {
              "pitch": 55,
              "velocity": 86,
              "position": 20.727083333333333,
              "duration": 0.2375
            },
            {
              "pitch": 50,
              "velocity": 42,
              "position": 20.870833333333334,
              "duration": 0.23541666666666666
            },
            {
              "pitch": 55,
              "velocity": 82,
              "position": 20.972916666666666,
              "duration": 0.25416666666666665
            },
            {
              "pitch": 50,
              "velocity": 51,
              "position": 21.114583333333332,
              "duration": 0.22083333333333333
            },
            {
              "pitch": 55,
              "velocity": 81,
              "position": 21.235416666666666,
              "duration": 0.23958333333333334
            },
            {
              "pitch": 50,
              "velocity": 56,
              "position": 21.34375,
              "duration": 0.24583333333333332
            },
            {
              "pitch": 55,
              "velocity": 76,
              "position": 21.483333333333334,
              "duration": 0.22291666666666668
            },
            {
              "pitch": 50,
              "velocity": 59,
              "position": 21.597916666666666,
              "duration": 0.22916666666666666
            },
            {
              "pitch": 55,
              "velocity": 72,
              "position": 21.714583333333334,
              "duration": 0.24791666666666667
            },
            {
              "pitch": 50,
              "velocity": 68,
              "position": 21.835416666666667,
              "duration": 0.23958333333333334
            },
            {
              "pitch": 55,
              "velocity": 82,
              "position": 21.970833333333335,
              "duration": 0.23333333333333334
            },
            {
              "pitch": 50,
              "velocity": 53,
              "position": 22.083333333333332,
              "duration": 0.22916666666666666
            },
            {
              "pitch": 55,
              "velocity": 47,
              "position": 22.2125,
              "duration": 0.2375
            },
            {
              "pitch": 50,
              "velocity": 42,
              "position": 22.320833333333333,
              "duration": 0.19583333333333333
            },
            {
              "pitch": 55,
              "velocity": 42,
              "position": 22.458333333333332,
              "duration": 0.21875
            },
            {
              "pitch": 50,
              "velocity": 53,
              "position": 22.525,
              "duration": 0.2604166666666667
            },
            {
              "pitch": 55,
              "velocity": 50,
              "position": 22.685416666666665,
              "duration": 0.20416666666666666
            },
            {
              "pitch": 50,
              "velocity": 53,
              "position": 22.79375,
              "duration": 0.23125
            },
            {
              "pitch": 55,
              "velocity": 76,
              "position": 22.897916666666667,
              "duration": 0.23541666666666666
            },
            {
              "pitch": 50,
              "velocity": 47,
              "position": 23.033333333333335,
              "duration": 0.28125
            },
            {
              "pitch": 55,
              "velocity": 56,
              "position": 23.141666666666666,
              "duration": 0.22708333333333333
            },
            {
              "pitch": 50,
              "velocity": 23,
              "position": 23.322916666666668,
              "duration": 0.15833333333333333
            },
            {
              "pitch": 55,
              "velocity": 68,
              "position": 23.377083333333335,
              "duration": 0.2520833333333333
            },
            {
              "pitch": 52,
              "velocity": 51,
              "position": 16.008333333333333,
              "duration": 7.68125
            },
            {
              "pitch": 50,
              "velocity": 59,
              "position": 23.489583333333332,
              "duration": 0.2375
            },
            {
              "pitch": 46,
              "velocity": 68,
              "position": 16.1375,
              "duration": 7.68125
            },
            {
              "pitch": 50,
              "velocity": 50,
              "position": 23.735416666666666,
              "duration": 0.21875
            },
            {
              "pitch": 55,
              "velocity": 42,
              "position": 23.6375,
              "duration": 0.45208333333333334
            },
            {
              "pitch": 36,
              "velocity": 122,
              "position": 9.979166666666666,
              "duration": 14.320833333333333
            },
            {
              "pitch": 36,
              "velocity": 127,
              "position": 25.002083333333335,
              "duration": 0.6208333333333333
            },
            {
              "pitch": 46,
              "velocity": 122,
              "position": 25.002083333333335,
              "duration": 0.625
            },
            {
              "pitch": 50,
              "velocity": 122,
              "position": 25.002083333333335,
              "duration": 0.625
            },
            {
              "pitch": 52,
              "velocity": 122,
              "position": 25.002083333333335,
              "duration": 0.625
            },
            {
              "pitch": 55,
              "velocity": 122,
              "position": 25.002083333333335,
              "duration": 0.625
            }
          ]
        },
        "14": {
          "ctab": {
            "srcChannel": 14,
            "name": "E.P  min",
            "accType": "CHORD2",
            "editable": false,
            "mutedNotes": [],
            "mutedChords": [
              "1+2+5",
              "sus4",
              "1+5",
              "1+8",
              "7aug",
              "Maj7aug",
              "7(#9)",
              "7(b13)",
              "7(b9)",
              "7(13)",
              "7#11",
              "7(9)",
              "7b5",
              "7sus4",
              "7th",
              "aug",
              "Maj6(9)",
              "Maj7(9)",
              "Maj(9)",
              "Maj7#11",
              "Maj7",
              "Maj6",
              "Maj"
            ],
            "autoStart": false,
            "sourceChordNote": 0,
            "sourceChordType": "min",
            "ctb2Low": null,
            "ctb2Main": {
              "ntr": "ROOT_TRANSPOSITION",
              "ntt": "BYPASS",
              "bassOn": false,
              "chordRootUpperLimit": 3,
              "noteLowLimit": 54,
              "noteHighLimit": 79,
              "rtr": "PITCH_SHIFT"
            },
            "ctb2High": null
          },
          "notes": [
            {
              "pitch": 51,
              "velocity": 24,
              "position": 0.004166666666666667,
              "duration": 0.175
            },
            {
              "pitch": 43,
              "velocity": 25,
              "position": 0.004166666666666667,
              "duration": 0.17916666666666667
            },
            {
              "pitch": 48,
              "velocity": 27,
              "position": 0.00625,
              "duration": 0.20833333333333334
            },
            {
              "pitch": 46,
              "velocity": 39,
              "position": 0.0020833333333333333,
              "duration": 0.26875
            },
            {
              "pitch": 46,
              "velocity": 28,
              "position": 0.5104166666666666,
              "duration": 0.17708333333333334
            },
            {
              "pitch": 51,
              "velocity": 26,
              "position": 0.5083333333333333,
              "duration": 0.17916666666666667
            },
            {
              "pitch": 48,
              "velocity": 28,
              "position": 0.5104166666666666,
              "duration": 0.17916666666666667
            },
            {
              "pitch": 43,
              "velocity": 34,
              "position": 0.50625,
              "duration": 0.21458333333333332
            },
            {
              "pitch": 51,
              "velocity": 39,
              "position": 1.00625,
              "duration": 0.17916666666666667
            },
            {
              "pitch": 46,
              "velocity": 39,
              "position": 1.00625,
              "duration": 0.21666666666666667
            },
            {
              "pitch": 48,
              "velocity": 45,
              "position": 1.0083333333333333,
              "duration": 0.22083333333333333
            },
            {
              "pitch": 43,
              "velocity": 50,
              "position": 1.00625,
              "duration": 0.22916666666666666
            },
            {
              "pitch": 51,
              "velocity": 45,
              "position": 1.50625,
              "duration": 0.17916666666666667
            },
            {
              "pitch": 43,
              "velocity": 63,
              "position": 1.5041666666666667,
              "duration": 0.21875
            },
            {
              "pitch": 46,
              "velocity": 55,
              "position": 1.5041666666666667,
              "duration": 0.23541666666666666
            },
            {
              "pitch": 48,
              "velocity": 55,
              "position": 1.50625,
              "duration": 0.2375
            },
            {
              "pitch": 46,
              "velocity": 60,
              "position": 2.004166666666667,
              "duration": 0.21875
            },
            {
              "pitch": 43,
              "velocity": 74,
              "position": 2.004166666666667,
              "duration": 0.22708333333333333
            },
            {
              "pitch": 51,
              "velocity": 78,
              "position": 2.002083333333333,
              "duration": 0.23958333333333334
            },
            {
              "pitch": 48,
              "velocity": 59,
              "position": 2.004166666666667,
              "duration": 0.26875
            },
            {
              "pitch": 43,
              "velocity": 84,
              "position": 2.504166666666667,
              "duration": 0.21875
            },
            {
              "pitch": 46,
              "velocity": 70,
              "position": 2.504166666666667,
              "duration": 0.22291666666666668
            },
            {
              "pitch": 51,
              "velocity": 76,
              "position": 2.504166666666667,
              "duration": 0.225
            },
            {
              "pitch": 48,
              "velocity": 72,
              "position": 2.504166666666667,
              "duration": 0.28958333333333336
            },
            {
              "pitch": 43,
              "velocity": 105,
              "position": 3.00625,
              "duration": 0.225
            },
            {
              "pitch": 51,
              "velocity": 100,
              "position": 3.004166666666667,
              "duration": 0.2520833333333333
            },
            {
              "pitch": 46,
              "velocity": 84,
              "position": 3.004166666666667,
              "duration": 0.26666666666666666
            },
            {
              "pitch": 48,
              "velocity": 86,
              "position": 3.00625,
              "duration": 0.28125
            },
            {
              "pitch": 51,
              "velocity": 100,
              "position": 3.504166666666667,
              "duration": 0.22916666666666666
            },
            {
              "pitch": 46,
              "velocity": 86,
              "position": 3.504166666666667,
              "duration": 0.23541666666666666
            },
            {
              "pitch": 43,
              "velocity": 100,
              "position": 3.50625,
              "duration": 0.23958333333333334
            },
            {
              "pitch": 48,
              "velocity": 89,
              "position": 3.50625,
              "duration": 0.25
            },
            {
              "pitch": 51,
              "velocity": 114,
              "position": 4.004166666666666,
              "duration": 0.23333333333333334
            },
            {
              "pitch": 46,
              "velocity": 103,
              "position": 4.004166666666666,
              "duration": 0.24166666666666667
            },
            {
              "pitch": 43,
              "velocity": 107,
              "position": 4.004166666666666,
              "duration": 0.24375
            },
            {
              "pitch": 48,
              "velocity": 95,
              "position": 4.004166666666666,
              "duration": 0.2520833333333333
            },
            {
              "pitch": 51,
              "velocity": 122,
              "position": 4.50625,
              "duration": 0.23125
            },
            {
              "pitch": 43,
              "velocity": 112,
              "position": 4.508333333333334,
              "duration": 0.24166666666666667
            },
            {
              "pitch": 46,
              "velocity": 107,
              "position": 4.50625,
              "duration": 0.24791666666666667
            },
            {
              "pitch": 48,
              "velocity": 107,
              "position": 4.50625,
              "duration": 0.25
            },
            {
              "pitch": 51,
              "velocity": 120,
              "position": 5.00625,
              "duration": 0.22916666666666666
            },
            {
              "pitch": 43,
              "velocity": 118,
              "position": 5.008333333333334,
              "duration": 0.23541666666666666
            },
            {
              "pitch": 46,
              "velocity": 110,
              "position": 5.00625,
              "duration": 0.23958333333333334
            },
            {
              "pitch": 48,
              "velocity": 107,
              "position": 5.008333333333334,
              "duration": 0.25416666666666665
            },
            {
              "pitch": 46,
              "velocity": 103,
              "position": 5.504166666666666,
              "duration": 0.2375
            },
            {
              "pitch": 43,
              "velocity": 118,
              "position": 5.504166666666666,
              "duration": 0.2708333333333333
            },
            {
              "pitch": 51,
              "velocity": 124,
              "position": 5.502083333333333,
              "duration": 0.28125
            },
            {
              "pitch": 48,
              "velocity": 112,
              "position": 5.504166666666666,
              "duration": 0.2833333333333333
            },
            {
              "pitch": 51,
              "velocity": 125,
              "position": 6.004166666666666,
              "duration": 0.4
            },
            {
              "pitch": 43,
              "velocity": 120,
              "position": 6.00625,
              "duration": 0.4166666666666667
            },
            {
              "pitch": 46,
              "velocity": 103,
              "position": 6.00625,
              "duration": 0.44166666666666665
            },
            {
              "pitch": 48,
              "velocity": 103,
              "position": 6.00625,
              "duration": 0.46875
            },
            {
              "pitch": 63,
              "velocity": 125,
              "position": 9.977083333333333,
              "duration": 2.0229166666666667
            },
            {
              "pitch": 52,
              "velocity": 124,
              "position": 9.977083333333333,
              "duration": 3.7291666666666665
            },
            {
              "pitch": 58,
              "velocity": 122,
              "position": 9.977083333333333,
              "duration": 3.8541666666666665
            },
            {
              "pitch": 52,
              "velocity": 89,
              "position": 13.714583333333334,
              "duration": 0.2708333333333333
            },
            {
              "pitch": 58,
              "velocity": 63,
              "position": 13.839583333333334,
              "duration": 0.2604166666666667
            },
            {
              "pitch": 52,
              "velocity": 81,
              "position": 13.99375,
              "duration": 0.24791666666666667
            },
            {
              "pitch": 58,
              "velocity": 76,
              "position": 14.108333333333333,
              "duration": 0.2125
            },
            {
              "pitch": 52,
              "velocity": 55,
              "position": 14.25,
              "duration": 0.21666666666666667
            },
            {
              "pitch": 58,
              "velocity": 89,
              "position": 14.329166666666667,
              "duration": 0.24583333333333332
            },
            {
              "pitch": 52,
              "velocity": 81,
              "position": 14.475,
              "duration": 0.22916666666666666
            },
            {
              "pitch": 58,
              "velocity": 84,
              "position": 14.583333333333334,
              "duration": 0.23541666666666666
            },
            {
              "pitch": 52,
              "velocity": 76,
              "position": 14.7125,
              "duration": 0.20416666666666666
            },
            {
              "pitch": 58,
              "velocity": 89,
              "position": 14.827083333333333,
              "duration": 0.23125
            },
            {
              "pitch": 52,
              "velocity": 89,
              "position": 14.925,
              "duration": 0.24791666666666667
            },
            {
              "pitch": 58,
              "velocity": 84,
              "position": 15.066666666666666,
              "duration": 0.23958333333333334
            },
            {
              "pitch": 52,
              "velocity": 81,
              "position": 15.18125,
              "duration": 0.24583333333333332
            },
            {
              "pitch": 58,
              "velocity": 78,
              "position": 15.314583333333333,
              "duration": 0.24166666666666667
            },
            {
              "pitch": 52,
              "velocity": 84,
              "position": 15.435416666666667,
              "duration": 0.21875
            },
            {
              "pitch": 58,
              "velocity": 84,
              "position": 15.564583333333333,
              "duration": 0.2125
            },
            {
              "pitch": 52,
              "velocity": 82,
              "position": 15.6625,
              "duration": 0.20416666666666666
            },
            {
              "pitch": 58,
              "velocity": 72,
              "position": 15.785416666666666,
              "duration": 0.17291666666666666
            },
            {
              "pitch": 52,
              "velocity": 51,
              "position": 15.875,
              "duration": 0.25416666666666665
            },
            {
              "pitch": 58,
              "velocity": 9,
              "position": 15.966666666666667,
              "duration": 0.4
            },
            {
              "pitch": 63,
              "velocity": 81,
              "position": 12.008333333333333,
              "duration": 4.533333333333333
            },
            {
              "pitch": 58,
              "velocity": 98,
              "position": 16.375,
              "duration": 0.29583333333333334
            },
            {
              "pitch": 63,
              "velocity": 103,
              "position": 16.55,
              "duration": 0.2833333333333333
            },
            {
              "pitch": 58,
              "velocity": 47,
              "position": 16.679166666666667,
              "duration": 0.24583333333333332
            },
            {
              "pitch": 63,
              "velocity": 64,
              "position": 16.841666666666665,
              "duration": 0.21458333333333332
            },
            {
              "pitch": 58,
              "velocity": 51,
              "position": 16.933333333333334,
              "duration": 0.2520833333333333
            },
            {
              "pitch": 63,
              "velocity": 84,
              "position": 17.064583333333335,
              "duration": 0.2375
            },
            {
              "pitch": 58,
              "velocity": 56,
              "position": 17.19375,
              "duration": 0.23125
            },
            {
              "pitch": 63,
              "velocity": 81,
              "position": 17.310416666666665,
              "duration": 0.22708333333333333
            },
            {
              "pitch": 58,
              "velocity": 64,
              "position": 17.433333333333334,
              "duration": 0.21666666666666667
            },
            {
              "pitch": 63,
              "velocity": 78,
              "position": 17.545833333333334,
              "duration": 0.21875
            },
            {
              "pitch": 58,
              "velocity": 72,
              "position": 17.658333333333335,
              "duration": 0.24166666666666667
            },
            {
              "pitch": 63,
              "velocity": 70,
              "position": 17.772916666666667,
              "duration": 0.23541666666666666
            },
            {
              "pitch": 58,
              "velocity": 68,
              "position": 17.908333333333335,
              "duration": 0.23125
            },
            {
              "pitch": 63,
              "velocity": 81,
              "position": 18.016666666666666,
              "duration": 0.22708333333333333
            },
            {
              "pitch": 58,
              "velocity": 72,
              "position": 18.147916666666667,
              "duration": 0.21875
            },
            {
              "pitch": 63,
              "velocity": 64,
              "position": 18.252083333333335,
              "duration": 0.23125
            },
            {
              "pitch": 58,
              "velocity": 68,
              "position": 18.375,
              "duration": 0.25625
            },
            {
              "pitch": 63,
              "velocity": 74,
              "position": 18.491666666666667,
              "duration": 0.23333333333333334
            },
            {
              "pitch": 58,
              "velocity": 84,
              "position": 18.639583333333334,
              "duration": 0.21041666666666667
            },
            {
              "pitch": 63,
              "velocity": 78,
              "position": 18.733333333333334,
              "duration": 0.24791666666666667
            },
            {
              "pitch": 58,
              "velocity": 81,
              "position": 18.858333333333334,
              "duration": 0.25625
            },
            {
              "pitch": 63,
              "velocity": 89,
              "position": 18.989583333333332,
              "duration": 0.24375
            },
            {
              "pitch": 58,
              "velocity": 89,
              "position": 19.122916666666665,
              "duration": 0.24791666666666667
            },
            {
              "pitch": 63,
              "velocity": 86,
              "position": 19.241666666666667,
              "duration": 0.22916666666666666
            },
            {
              "pitch": 58,
              "velocity": 74,
              "position": 19.379166666666666,
              "duration": 0.2604166666666667
            },
            {
              "pitch": 63,
              "velocity": 89,
              "position": 19.479166666666668,
              "duration": 0.2375
            },
            {
              "pitch": 58,
              "velocity": 55,
              "position": 19.647916666666667,
              "duration": 0.17916666666666667
            },
            {
              "pitch": 63,
              "velocity": 68,
              "position": 19.725,
              "duration": 0.2791666666666667
            },
            {
              "pitch": 58,
              "velocity": 42,
              "position": 19.835416666666667,
              "duration": 0.2604166666666667
            },
            {
              "pitch": 63,
              "velocity": 81,
              "position": 20.0125,
              "duration": 0.21041666666666667
            },
            {
              "pitch": 58,
              "velocity": 39,
              "position": 20.104166666666668,
              "duration": 0.2791666666666667
            },
            {
              "pitch": 63,
              "velocity": 95,
              "position": 20.23125,
              "duration": 0.25416666666666665
            },
            {
              "pitch": 58,
              "velocity": 51,
              "position": 20.391666666666666,
              "duration": 0.20208333333333334
            },
            {
              "pitch": 63,
              "velocity": 89,
              "position": 20.49375,
              "duration": 0.225
            },
            {
              "pitch": 58,
              "velocity": 52,
              "position": 20.602083333333333,
              "duration": 0.2604166666666667
            },
            {
              "pitch": 63,
              "velocity": 86,
              "position": 20.727083333333333,
              "duration": 0.2375
            },
            {
              "pitch": 58,
              "velocity": 42,
              "position": 20.870833333333334,
              "duration": 0.23541666666666666
            },
            {
              "pitch": 63,
              "velocity": 82,
              "position": 20.972916666666666,
              "duration": 0.25416666666666665
            },
            {
              "pitch": 58,
              "velocity": 51,
              "position": 21.114583333333332,
              "duration": 0.22083333333333333
            },
            {
              "pitch": 63,
              "velocity": 81,
              "position": 21.235416666666666,
              "duration": 0.23958333333333334
            },
            {
              "pitch": 58,
              "velocity": 56,
              "position": 21.34375,
              "duration": 0.24583333333333332
            },
            {
              "pitch": 63,
              "velocity": 76,
              "position": 21.483333333333334,
              "duration": 0.22291666666666668
            },
            {
              "pitch": 58,
              "velocity": 59,
              "position": 21.597916666666666,
              "duration": 0.22916666666666666
            },
            {
              "pitch": 63,
              "velocity": 72,
              "position": 21.714583333333334,
              "duration": 0.24791666666666667
            },
            {
              "pitch": 58,
              "velocity": 68,
              "position": 21.835416666666667,
              "duration": 0.23958333333333334
            },
            {
              "pitch": 63,
              "velocity": 82,
              "position": 21.970833333333335,
              "duration": 0.23333333333333334
            },
            {
              "pitch": 58,
              "velocity": 53,
              "position": 22.083333333333332,
              "duration": 0.22916666666666666
            },
            {
              "pitch": 63,
              "velocity": 47,
              "position": 22.2125,
              "duration": 0.2375
            },
            {
              "pitch": 58,
              "velocity": 42,
              "position": 22.320833333333333,
              "duration": 0.19583333333333333
            },
            {
              "pitch": 63,
              "velocity": 42,
              "position": 22.458333333333332,
              "duration": 0.21875
            },
            {
              "pitch": 58,
              "velocity": 53,
              "position": 22.525,
              "duration": 0.2604166666666667
            },
            {
              "pitch": 63,
              "velocity": 50,
              "position": 22.685416666666665,
              "duration": 0.20416666666666666
            },
            {
              "pitch": 58,
              "velocity": 53,
              "position": 22.79375,
              "duration": 0.23125
            },
            {
              "pitch": 63,
              "velocity": 76,
              "position": 22.897916666666667,
              "duration": 0.23541666666666666
            },
            {
              "pitch": 58,
              "velocity": 47,
              "position": 23.033333333333335,
              "duration": 0.28125
            },
            {
              "pitch": 63,
              "velocity": 56,
              "position": 23.141666666666666,
              "duration": 0.22708333333333333
            },
            {
              "pitch": 58,
              "velocity": 23,
              "position": 23.322916666666668,
              "duration": 0.15833333333333333
            },
            {
              "pitch": 63,
              "velocity": 68,
              "position": 23.377083333333335,
              "duration": 0.2520833333333333
            },
            {
              "pitch": 58,
              "velocity": 59,
              "position": 23.489583333333332,
              "duration": 0.2375
            },
            {
              "pitch": 52,
              "velocity": 68,
              "position": 16.1375,
              "duration": 7.68125
            },
            {
              "pitch": 58,
              "velocity": 50,
              "position": 23.735416666666666,
              "duration": 0.21875
            },
            {
              "pitch": 63,
              "velocity": 42,
              "position": 23.6375,
              "duration": 0.45208333333333334
            },
            {
              "pitch": 36,
              "velocity": 122,
              "position": 9.979166666666666,
              "duration": 14.320833333333333
            },
            {
              "pitch": 36,
              "velocity": 127,
              "position": 25.002083333333335,
              "duration": 0.6208333333333333
            },
            {
              "pitch": 52,
              "velocity": 122,
              "position": 25.002083333333335,
              "duration": 0.625
            },
            {
              "pitch": 58,
              "velocity": 122,
              "position": 25.002083333333335,
              "duration": 0.625
            },
            {
              "pitch": 63,
              "velocity": 122,
              "position": 25.002083333333335,
              "duration": 0.625
            }
          ]
        }
      }
    },
    "Ending_C": {
      "type": "Ending_C",
      "sizeInBeats": 20,
      "channels": {
        "1": {
          "ctab": {
            "srcChannel": 1,
            "name": "Gtr  Maj",
            "accType": "CHORD1",
            "editable": false,
            "mutedNotes": [],
            "mutedChords": [
              "dim7",
              "dim",
              "minMaj7(9)",
              "minMaj7",
              "min7(11)",
              "min7(9)",
              "min(9)",
              "m7b5",
              "min7",
              "min6",
              "min"
            ],
            "autoStart": false,
            "sourceChordNote": 0,
            "sourceChordType": "Maj",
            "ctb2Low": null,
            "ctb2Main": {
              "ntr": "ROOT_TRANSPOSITION",
              "ntt": "BYPASS",
              "bassOn": false,
              "chordRootUpperLimit": 3,
              "noteLowLimit": 0,
              "noteHighLimit": 77,
              "rtr": "PITCH_SHIFT"
            },
            "ctb2High": null
          },
          "notes": [
            {
              "pitch": 108,
              "velocity": 97,
              "position": 0,
              "duration": 0.2833333333333333
            },
            {
              "pitch": 64,
              "velocity": 40,
              "position": 0.010416666666666666,
              "duration": 0.2833333333333333
            },
            {
              "pitch": 79,
              "velocity": 50,
              "position": 0.010416666666666666,
              "duration": 0.2833333333333333
            },
            {
              "pitch": 82,
              "velocity": 50,
              "position": 0.03125,
              "duration": 0.2625
            },
            {
              "pitch": 86,
              "velocity": 50,
              "position": 0.052083333333333336,
              "duration": 0.24166666666666667
            },
            {
              "pitch": 107,
              "velocity": 30,
              "position": 0.2916666666666667,
              "duration": 0.2
            },
            {
              "pitch": 79,
              "velocity": 50,
              "position": 0.5,
              "duration": 0.2833333333333333
            },
            {
              "pitch": 82,
              "velocity": 50,
              "position": 0.5208333333333334,
              "duration": 0.2625
            },
            {
              "pitch": 86,
              "velocity": 50,
              "position": 0.5416666666666666,
              "duration": 0.24166666666666667
            },
            {
              "pitch": 106,
              "velocity": 77,
              "position": 0.5,
              "duration": 0.2833333333333333
            },
            {
              "pitch": 107,
              "velocity": 30,
              "position": 0.7916666666666666,
              "duration": 0.2
            },
            {
              "pitch": 79,
              "velocity": 40,
              "position": 1,
              "duration": 0.2833333333333333
            },
            {
              "pitch": 82,
              "velocity": 40,
              "position": 1.0208333333333333,
              "duration": 0.2625
            },
            {
              "pitch": 86,
              "velocity": 40,
              "position": 1.0416666666666667,
              "duration": 0.24166666666666667
            },
            {
              "pitch": 108,
              "velocity": 67,
              "position": 1,
              "duration": 0.2833333333333333
            },
            {
              "pitch": 107,
              "velocity": 30,
              "position": 1.2916666666666667,
              "duration": 0.2
            },
            {
              "pitch": 86,
              "velocity": 50,
              "position": 1.5416666666666667,
              "duration": 0.24166666666666667
            },
            {
              "pitch": 106,
              "velocity": 77,
              "position": 1.5,
              "duration": 0.2833333333333333
            },
            {
              "pitch": 82,
              "velocity": 50,
              "position": 1.5208333333333333,
              "duration": 0.2833333333333333
            },
            {
              "pitch": 79,
              "velocity": 50,
              "position": 1.5,
              "duration": 0.325
            },
            {
              "pitch": 79,
              "velocity": 40,
              "position": 1.8333333333333333,
              "duration": 0.15833333333333333
            },
            {
              "pitch": 82,
              "velocity": 40,
              "position": 1.8125,
              "duration": 0.17916666666666667
            },
            {
              "pitch": 86,
              "velocity": 40,
              "position": 1.7916666666666667,
              "duration": 0.2
            },
            {
              "pitch": 108,
              "velocity": 67,
              "position": 1.7916666666666667,
              "duration": 0.2
            },
            {
              "pitch": 104,
              "velocity": 30,
              "position": 2,
              "duration": 0.2833333333333333
            },
            {
              "pitch": 107,
              "velocity": 67,
              "position": 2.2916666666666665,
              "duration": 0.2
            },
            {
              "pitch": 74,
              "velocity": 60,
              "position": 2.5208333333333335,
              "duration": 0.2625
            },
            {
              "pitch": 108,
              "velocity": 97,
              "position": 2.5,
              "duration": 0.2833333333333333
            },
            {
              "pitch": 70,
              "velocity": 60,
              "position": 2.5,
              "duration": 0.49166666666666664
            },
            {
              "pitch": 107,
              "velocity": 67,
              "position": 2.7916666666666665,
              "duration": 0.2
            },
            {
              "pitch": 74,
              "velocity": 30,
              "position": 2.7916666666666665,
              "duration": 0.49166666666666664
            },
            {
              "pitch": 106,
              "velocity": 67,
              "position": 3,
              "duration": 0.2833333333333333
            },
            {
              "pitch": 70,
              "velocity": 30,
              "position": 3,
              "duration": 0.30416666666666664
            },
            {
              "pitch": 64,
              "velocity": 40,
              "position": 2.5,
              "duration": 0.9916666666666667
            },
            {
              "pitch": 70,
              "velocity": 20,
              "position": 3.3125,
              "duration": 0.17916666666666667
            },
            {
              "pitch": 105,
              "velocity": 57,
              "position": 3.2916666666666665,
              "duration": 0.2
            },
            {
              "pitch": 74,
              "velocity": 20,
              "position": 3.2916666666666665,
              "duration": 0.22083333333333333
            },
            {
              "pitch": 64,
              "velocity": 40,
              "position": 3.5,
              "duration": 0.2833333333333333
            },
            {
              "pitch": 70,
              "velocity": 60,
              "position": 3.5,
              "duration": 0.2833333333333333
            },
            {
              "pitch": 74,
              "velocity": 60,
              "position": 3.5208333333333335,
              "duration": 0.2625
            },
            {
              "pitch": 108,
              "velocity": 97,
              "position": 3.5,
              "duration": 0.2833333333333333
            },
            {
              "pitch": 107,
              "velocity": 30,
              "position": 3.7916666666666665,
              "duration": 0.2
            },
            {
              "pitch": 108,
              "velocity": 67,
              "position": 4,
              "duration": 0.2833333333333333
            },
            {
              "pitch": 64,
              "velocity": 40,
              "position": 4.010416666666667,
              "duration": 0.2833333333333333
            },
            {
              "pitch": 79,
              "velocity": 50,
              "position": 4.010416666666667,
              "duration": 0.2833333333333333
            },
            {
              "pitch": 82,
              "velocity": 50,
              "position": 4.03125,
              "duration": 0.2625
            },
            {
              "pitch": 86,
              "velocity": 50,
              "position": 4.052083333333333,
              "duration": 0.24166666666666667
            },
            {
              "pitch": 107,
              "velocity": 30,
              "position": 4.291666666666667,
              "duration": 0.2
            },
            {
              "pitch": 79,
              "velocity": 50,
              "position": 4.5,
              "duration": 0.2833333333333333
            },
            {
              "pitch": 82,
              "velocity": 50,
              "position": 4.520833333333333,
              "duration": 0.2625
            },
            {
              "pitch": 86,
              "velocity": 50,
              "position": 4.541666666666667,
              "duration": 0.24166666666666667
            },
            {
              "pitch": 106,
              "velocity": 77,
              "position": 4.5,
              "duration": 0.2833333333333333
            },
            {
              "pitch": 107,
              "velocity": 30,
              "position": 4.791666666666667,
              "duration": 0.2
            },
            {
              "pitch": 79,
              "velocity": 40,
              "position": 5,
              "duration": 0.2833333333333333
            },
            {
              "pitch": 82,
              "velocity": 40,
              "position": 5.020833333333333,
              "duration": 0.2625
            },
            {
              "pitch": 86,
              "velocity": 40,
              "position": 5.041666666666667,
              "duration": 0.24166666666666667
            },
            {
              "pitch": 108,
              "velocity": 67,
              "position": 5,
              "duration": 0.2833333333333333
            },
            {
              "pitch": 86,
              "velocity": 50,
              "position": 5.541666666666667,
              "duration": 0.24166666666666667
            },
            {
              "pitch": 82,
              "velocity": 50,
              "position": 5.520833333333333,
              "duration": 0.2833333333333333
            },
            {
              "pitch": 79,
              "velocity": 50,
              "position": 5.5,
              "duration": 0.325
            },
            {
              "pitch": 79,
              "velocity": 40,
              "position": 5.833333333333333,
              "duration": 0.15833333333333333
            },
            {
              "pitch": 82,
              "velocity": 40,
              "position": 5.8125,
              "duration": 0.17916666666666667
            },
            {
              "pitch": 86,
              "velocity": 40,
              "position": 5.791666666666667,
              "duration": 0.2
            },
            {
              "pitch": 107,
              "velocity": 30,
              "position": 5.291666666666667,
              "duration": 0.9916666666666667
            },
            {
              "pitch": 107,
              "velocity": 67,
              "position": 6.291666666666667,
              "duration": 0.2
            },
            {
              "pitch": 70,
              "velocity": 60,
              "position": 6.520833333333333,
              "duration": 0.2625
            },
            {
              "pitch": 108,
              "velocity": 97,
              "position": 6.5,
              "duration": 0.2833333333333333
            },
            {
              "pitch": 67,
              "velocity": 60,
              "position": 6.5,
              "duration": 0.30416666666666664
            },
            {
              "pitch": 72,
              "velocity": 100,
              "position": 6.791666666666667,
              "duration": 0.15833333333333333
            },
            {
              "pitch": 69,
              "velocity": 100,
              "position": 6.8125,
              "duration": 0.17916666666666667
            },
            {
              "pitch": 120,
              "velocity": 67,
              "position": 6.791666666666667,
              "duration": 0.2
            },
            {
              "pitch": 104,
              "velocity": 30,
              "position": 7,
              "duration": 0.2833333333333333
            },
            {
              "pitch": 70,
              "velocity": 60,
              "position": 7.291666666666667,
              "duration": 0.15833333333333333
            },
            {
              "pitch": 67,
              "velocity": 60,
              "position": 7.3125,
              "duration": 0.17916666666666667
            },
            {
              "pitch": 107,
              "velocity": 97,
              "position": 7.291666666666667,
              "duration": 0.2
            },
            {
              "pitch": 104,
              "velocity": 30,
              "position": 7.5,
              "duration": 0.2833333333333333
            },
            {
              "pitch": 107,
              "velocity": 67,
              "position": 7.791666666666667,
              "duration": 0.2
            },
            {
              "pitch": 108,
              "velocity": 97,
              "position": 8,
              "duration": 0.2833333333333333
            },
            {
              "pitch": 64,
              "velocity": 40,
              "position": 8.010416666666666,
              "duration": 0.2833333333333333
            },
            {
              "pitch": 79,
              "velocity": 50,
              "position": 8.010416666666666,
              "duration": 0.2833333333333333
            },
            {
              "pitch": 82,
              "velocity": 50,
              "position": 8.03125,
              "duration": 0.2625
            },
            {
              "pitch": 86,
              "velocity": 50,
              "position": 8.052083333333334,
              "duration": 0.24166666666666667
            },
            {
              "pitch": 107,
              "velocity": 30,
              "position": 8.291666666666666,
              "duration": 0.2
            },
            {
              "pitch": 79,
              "velocity": 50,
              "position": 8.5,
              "duration": 0.2833333333333333
            },
            {
              "pitch": 82,
              "velocity": 50,
              "position": 8.520833333333334,
              "duration": 0.2625
            },
            {
              "pitch": 86,
              "velocity": 50,
              "position": 8.541666666666666,
              "duration": 0.24166666666666667
            },
            {
              "pitch": 106,
              "velocity": 77,
              "position": 8.5,
              "duration": 0.2833333333333333
            },
            {
              "pitch": 107,
              "velocity": 30,
              "position": 8.791666666666666,
              "duration": 0.2
            },
            {
              "pitch": 79,
              "velocity": 40,
              "position": 9,
              "duration": 0.2833333333333333
            },
            {
              "pitch": 82,
              "velocity": 40,
              "position": 9.020833333333334,
              "duration": 0.2625
            },
            {
              "pitch": 86,
              "velocity": 40,
              "position": 9.041666666666666,
              "duration": 0.24166666666666667
            },
            {
              "pitch": 108,
              "velocity": 67,
              "position": 9,
              "duration": 0.2833333333333333
            },
            {
              "pitch": 107,
              "velocity": 30,
              "position": 9.291666666666666,
              "duration": 0.2
            },
            {
              "pitch": 86,
              "velocity": 50,
              "position": 9.541666666666666,
              "duration": 0.24166666666666667
            },
            {
              "pitch": 106,
              "velocity": 77,
              "position": 9.5,
              "duration": 0.2833333333333333
            },
            {
              "pitch": 82,
              "velocity": 50,
              "position": 9.520833333333334,
              "duration": 0.2833333333333333
            },
            {
              "pitch": 79,
              "velocity": 50,
              "position": 9.5,
              "duration": 0.325
            },
            {
              "pitch": 79,
              "velocity": 40,
              "position": 9.833333333333334,
              "duration": 0.15833333333333333
            },
            {
              "pitch": 82,
              "velocity": 40,
              "position": 9.8125,
              "duration": 0.17916666666666667
            },
            {
              "pitch": 86,
              "velocity": 40,
              "position": 9.791666666666666,
              "duration": 0.2
            },
            {
              "pitch": 108,
              "velocity": 67,
              "position": 9.791666666666666,
              "duration": 0.2
            },
            {
              "pitch": 104,
              "velocity": 30,
              "position": 10,
              "duration": 0.2833333333333333
            },
            {
              "pitch": 107,
              "velocity": 67,
              "position": 10.291666666666666,
              "duration": 0.2
            },
            {
              "pitch": 74,
              "velocity": 60,
              "position": 10.520833333333334,
              "duration": 0.2625
            },
            {
              "pitch": 108,
              "velocity": 97,
              "position": 10.5,
              "duration": 0.2833333333333333
            },
            {
              "pitch": 70,
              "velocity": 60,
              "position": 10.5,
              "duration": 0.49166666666666664
            },
            {
              "pitch": 107,
              "velocity": 67,
              "position": 10.791666666666666,
              "duration": 0.2
            },
            {
              "pitch": 74,
              "velocity": 30,
              "position": 10.791666666666666,
              "duration": 0.49166666666666664
            },
            {
              "pitch": 106,
              "velocity": 67,
              "position": 11,
              "duration": 0.2833333333333333
            },
            {
              "pitch": 70,
              "velocity": 30,
              "position": 11,
              "duration": 0.30416666666666664
            },
            {
              "pitch": 64,
              "velocity": 40,
              "position": 10.5,
              "duration": 0.9916666666666667
            },
            {
              "pitch": 70,
              "velocity": 20,
              "position": 11.3125,
              "duration": 0.17916666666666667
            },
            {
              "pitch": 105,
              "velocity": 57,
              "position": 11.291666666666666,
              "duration": 0.2
            },
            {
              "pitch": 74,
              "velocity": 20,
              "position": 11.291666666666666,
              "duration": 0.22083333333333333
            },
            {
              "pitch": 64,
              "velocity": 40,
              "position": 11.5,
              "duration": 0.2833333333333333
            },
            {
              "pitch": 70,
              "velocity": 60,
              "position": 11.5,
              "duration": 0.2833333333333333
            },
            {
              "pitch": 74,
              "velocity": 60,
              "position": 11.520833333333334,
              "duration": 0.2625
            },
            {
              "pitch": 108,
              "velocity": 97,
              "position": 11.5,
              "duration": 0.2833333333333333
            },
            {
              "pitch": 107,
              "velocity": 30,
              "position": 11.791666666666666,
              "duration": 0.2
            },
            {
              "pitch": 106,
              "velocity": 90,
              "position": 12.010416666666666,
              "duration": 0.2625
            },
            {
              "pitch": 79,
              "velocity": 42,
              "position": 12.010416666666666,
              "duration": 4.98125
            },
            {
              "pitch": 82,
              "velocity": 42,
              "position": 12.03125,
              "duration": 4.960416666666666
            },
            {
              "pitch": 86,
              "velocity": 42,
              "position": 12.052083333333334,
              "duration": 4.939583333333333
            }
          ]
        },
        "2": {
          "ctab": {
            "srcChannel": 2,
            "name": "Gtr  min",
            "accType": "CHORD1",
            "editable": false,
            "mutedNotes": [],
            "mutedChords": [
              "1+2+5",
              "sus4",
              "1+5",
              "1+8",
              "7aug",
              "Maj7aug",
              "7(#9)",
              "7(b13)",
              "7(b9)",
              "7(13)",
              "7#11",
              "7(9)",
              "7b5",
              "7sus4",
              "7th",
              "aug",
              "Maj6(9)",
              "Maj7(9)",
              "Maj(9)",
              "Maj7#11",
              "Maj7",
              "Maj6",
              "Maj"
            ],
            "autoStart": false,
            "sourceChordNote": 0,
            "sourceChordType": "min",
            "ctb2Low": null,
            "ctb2Main": {
              "ntr": "ROOT_TRANSPOSITION",
              "ntt": "BYPASS",
              "bassOn": false,
              "chordRootUpperLimit": 3,
              "noteLowLimit": 0,
              "noteHighLimit": 77,
              "rtr": "PITCH_SHIFT"
            },
            "ctb2High": null
          },
          "notes": [
            {
              "pitch": 108,
              "velocity": 97,
              "position": 0,
              "duration": 0.2833333333333333
            },
            {
              "pitch": 63,
              "velocity": 30,
              "position": 0.010416666666666666,
              "duration": 0.2833333333333333
            },
            {
              "pitch": 79,
              "velocity": 50,
              "position": 0.010416666666666666,
              "duration": 0.2833333333333333
            },
            {
              "pitch": 82,
              "velocity": 50,
              "position": 0.03125,
              "duration": 0.2625
            },
            {
              "pitch": 86,
              "velocity": 50,
              "position": 0.052083333333333336,
              "duration": 0.24166666666666667
            },
            {
              "pitch": 107,
              "velocity": 30,
              "position": 0.2916666666666667,
              "duration": 0.2
            },
            {
              "pitch": 79,
              "velocity": 50,
              "position": 0.5416666666666666,
              "duration": 0.24166666666666667
            },
            {
              "pitch": 82,
              "velocity": 50,
              "position": 0.5208333333333334,
              "duration": 0.2625
            },
            {
              "pitch": 89,
              "velocity": 42,
              "position": 0.5,
              "duration": 0.2833333333333333
            },
            {
              "pitch": 106,
              "velocity": 77,
              "position": 0.5,
              "duration": 0.2833333333333333
            },
            {
              "pitch": 107,
              "velocity": 30,
              "position": 0.7916666666666666,
              "duration": 0.2
            },
            {
              "pitch": 79,
              "velocity": 40,
              "position": 1,
              "duration": 0.2833333333333333
            },
            {
              "pitch": 82,
              "velocity": 40,
              "position": 1.0208333333333333,
              "duration": 0.2625
            },
            {
              "pitch": 86,
              "velocity": 40,
              "position": 1.0416666666666667,
              "duration": 0.24166666666666667
            },
            {
              "pitch": 108,
              "velocity": 67,
              "position": 1,
              "duration": 0.2833333333333333
            },
            {
              "pitch": 107,
              "velocity": 30,
              "position": 1.2916666666666667,
              "duration": 0.2
            },
            {
              "pitch": 86,
              "velocity": 50,
              "position": 1.5416666666666667,
              "duration": 0.24166666666666667
            },
            {
              "pitch": 106,
              "velocity": 77,
              "position": 1.5,
              "duration": 0.2833333333333333
            },
            {
              "pitch": 82,
              "velocity": 50,
              "position": 1.5208333333333333,
              "duration": 0.2833333333333333
            },
            {
              "pitch": 79,
              "velocity": 50,
              "position": 1.5,
              "duration": 0.325
            },
            {
              "pitch": 79,
              "velocity": 40,
              "position": 1.8333333333333333,
              "duration": 0.15833333333333333
            },
            {
              "pitch": 82,
              "velocity": 40,
              "position": 1.8125,
              "duration": 0.17916666666666667
            },
            {
              "pitch": 86,
              "velocity": 40,
              "position": 1.7916666666666667,
              "duration": 0.2
            },
            {
              "pitch": 108,
              "velocity": 67,
              "position": 1.7916666666666667,
              "duration": 0.2
            },
            {
              "pitch": 104,
              "velocity": 30,
              "position": 2,
              "duration": 0.2833333333333333
            },
            {
              "pitch": 107,
              "velocity": 67,
              "position": 2.2916666666666665,
              "duration": 0.2
            },
            {
              "pitch": 75,
              "velocity": 50,
              "position": 2.5208333333333335,
              "duration": 0.2625
            },
            {
              "pitch": 108,
              "velocity": 97,
              "position": 2.5,
              "duration": 0.2833333333333333
            },
            {
              "pitch": 70,
              "velocity": 60,
              "position": 2.5,
              "duration": 0.49166666666666664
            },
            {
              "pitch": 107,
              "velocity": 67,
              "position": 2.7916666666666665,
              "duration": 0.2
            },
            {
              "pitch": 75,
              "velocity": 40,
              "position": 2.7916666666666665,
              "duration": 0.49166666666666664
            },
            {
              "pitch": 106,
              "velocity": 67,
              "position": 3,
              "duration": 0.2833333333333333
            },
            {
              "pitch": 70,
              "velocity": 30,
              "position": 3,
              "duration": 0.30416666666666664
            },
            {
              "pitch": 65,
              "velocity": 30,
              "position": 2.5,
              "duration": 0.9916666666666667
            },
            {
              "pitch": 70,
              "velocity": 20,
              "position": 3.3125,
              "duration": 0.17916666666666667
            },
            {
              "pitch": 105,
              "velocity": 57,
              "position": 3.2916666666666665,
              "duration": 0.2
            },
            {
              "pitch": 75,
              "velocity": 30,
              "position": 3.2916666666666665,
              "duration": 0.22083333333333333
            },
            {
              "pitch": 65,
              "velocity": 30,
              "position": 3.5,
              "duration": 0.2833333333333333
            },
            {
              "pitch": 70,
              "velocity": 60,
              "position": 3.5,
              "duration": 0.2833333333333333
            },
            {
              "pitch": 75,
              "velocity": 50,
              "position": 3.5208333333333335,
              "duration": 0.2625
            },
            {
              "pitch": 108,
              "velocity": 97,
              "position": 3.5,
              "duration": 0.2833333333333333
            },
            {
              "pitch": 107,
              "velocity": 30,
              "position": 3.7916666666666665,
              "duration": 0.2
            },
            {
              "pitch": 108,
              "velocity": 67,
              "position": 4,
              "duration": 0.2833333333333333
            },
            {
              "pitch": 63,
              "velocity": 30,
              "position": 4.010416666666667,
              "duration": 0.2833333333333333
            },
            {
              "pitch": 79,
              "velocity": 50,
              "position": 4.010416666666667,
              "duration": 0.2833333333333333
            },
            {
              "pitch": 82,
              "velocity": 50,
              "position": 4.03125,
              "duration": 0.2625
            },
            {
              "pitch": 86,
              "velocity": 50,
              "position": 4.052083333333333,
              "duration": 0.24166666666666667
            },
            {
              "pitch": 107,
              "velocity": 30,
              "position": 4.291666666666667,
              "duration": 0.2
            },
            {
              "pitch": 79,
              "velocity": 50,
              "position": 4.541666666666667,
              "duration": 0.24166666666666667
            },
            {
              "pitch": 82,
              "velocity": 50,
              "position": 4.520833333333333,
              "duration": 0.2625
            },
            {
              "pitch": 89,
              "velocity": 42,
              "position": 4.5,
              "duration": 0.2833333333333333
            },
            {
              "pitch": 106,
              "velocity": 77,
              "position": 4.5,
              "duration": 0.2833333333333333
            },
            {
              "pitch": 107,
              "velocity": 30,
              "position": 4.791666666666667,
              "duration": 0.2
            },
            {
              "pitch": 79,
              "velocity": 40,
              "position": 5,
              "duration": 0.2833333333333333
            },
            {
              "pitch": 82,
              "velocity": 40,
              "position": 5.020833333333333,
              "duration": 0.2625
            },
            {
              "pitch": 86,
              "velocity": 40,
              "position": 5.041666666666667,
              "duration": 0.24166666666666667
            },
            {
              "pitch": 108,
              "velocity": 67,
              "position": 5,
              "duration": 0.2833333333333333
            },
            {
              "pitch": 86,
              "velocity": 50,
              "position": 5.541666666666667,
              "duration": 0.24166666666666667
            },
            {
              "pitch": 82,
              "velocity": 50,
              "position": 5.520833333333333,
              "duration": 0.2833333333333333
            },
            {
              "pitch": 79,
              "velocity": 50,
              "position": 5.5,
              "duration": 0.325
            },
            {
              "pitch": 79,
              "velocity": 40,
              "position": 5.833333333333333,
              "duration": 0.15833333333333333
            },
            {
              "pitch": 82,
              "velocity": 40,
              "position": 5.8125,
              "duration": 0.17916666666666667
            },
            {
              "pitch": 86,
              "velocity": 40,
              "position": 5.791666666666667,
              "duration": 0.2
            },
            {
              "pitch": 107,
              "velocity": 30,
              "position": 5.291666666666667,
              "duration": 0.9916666666666667
            },
            {
              "pitch": 107,
              "velocity": 67,
              "position": 6.291666666666667,
              "duration": 0.2
            },
            {
              "pitch": 70,
              "velocity": 60,
              "position": 6.520833333333333,
              "duration": 0.2625
            },
            {
              "pitch": 108,
              "velocity": 97,
              "position": 6.5,
              "duration": 0.2833333333333333
            },
            {
              "pitch": 67,
              "velocity": 60,
              "position": 6.5,
              "duration": 0.30416666666666664
            },
            {
              "pitch": 72,
              "velocity": 100,
              "position": 6.791666666666667,
              "duration": 0.15833333333333333
            },
            {
              "pitch": 69,
              "velocity": 100,
              "position": 6.8125,
              "duration": 0.17916666666666667
            },
            {
              "pitch": 120,
              "velocity": 67,
              "position": 6.791666666666667,
              "duration": 0.2
            },
            {
              "pitch": 104,
              "velocity": 30,
              "position": 7,
              "duration": 0.2833333333333333
            },
            {
              "pitch": 70,
              "velocity": 60,
              "position": 7.291666666666667,
              "duration": 0.15833333333333333
            },
            {
              "pitch": 67,
              "velocity": 60,
              "position": 7.3125,
              "duration": 0.17916666666666667
            },
            {
              "pitch": 107,
              "velocity": 97,
              "position": 7.291666666666667,
              "duration": 0.2
            },
            {
              "pitch": 104,
              "velocity": 30,
              "position": 7.5,
              "duration": 0.2833333333333333
            },
            {
              "pitch": 107,
              "velocity": 67,
              "position": 7.791666666666667,
              "duration": 0.2
            },
            {
              "pitch": 108,
              "velocity": 97,
              "position": 8,
              "duration": 0.2833333333333333
            },
            {
              "pitch": 63,
              "velocity": 30,
              "position": 8.010416666666666,
              "duration": 0.2833333333333333
            },
            {
              "pitch": 79,
              "velocity": 50,
              "position": 8.010416666666666,
              "duration": 0.2833333333333333
            },
            {
              "pitch": 82,
              "velocity": 50,
              "position": 8.03125,
              "duration": 0.2625
            },
            {
              "pitch": 86,
              "velocity": 50,
              "position": 8.052083333333334,
              "duration": 0.24166666666666667
            },
            {
              "pitch": 107,
              "velocity": 30,
              "position": 8.291666666666666,
              "duration": 0.2
            },
            {
              "pitch": 79,
              "velocity": 50,
              "position": 8.541666666666666,
              "duration": 0.24166666666666667
            },
            {
              "pitch": 82,
              "velocity": 50,
              "position": 8.520833333333334,
              "duration": 0.2625
            },
            {
              "pitch": 89,
              "velocity": 42,
              "position": 8.5,
              "duration": 0.2833333333333333
            },
            {
              "pitch": 106,
              "velocity": 77,
              "position": 8.5,
              "duration": 0.2833333333333333
            },
            {
              "pitch": 107,
              "velocity": 30,
              "position": 8.791666666666666,
              "duration": 0.2
            },
            {
              "pitch": 79,
              "velocity": 40,
              "position": 9,
              "duration": 0.2833333333333333
            },
            {
              "pitch": 82,
              "velocity": 40,
              "position": 9.020833333333334,
              "duration": 0.2625
            },
            {
              "pitch": 86,
              "velocity": 40,
              "position": 9.041666666666666,
              "duration": 0.24166666666666667
            },
            {
              "pitch": 108,
              "velocity": 67,
              "position": 9,
              "duration": 0.2833333333333333
            },
            {
              "pitch": 107,
              "velocity": 30,
              "position": 9.291666666666666,
              "duration": 0.2
            },
            {
              "pitch": 86,
              "velocity": 50,
              "position": 9.541666666666666,
              "duration": 0.24166666666666667
            },
            {
              "pitch": 106,
              "velocity": 77,
              "position": 9.5,
              "duration": 0.2833333333333333
            },
            {
              "pitch": 82,
              "velocity": 50,
              "position": 9.520833333333334,
              "duration": 0.2833333333333333
            },
            {
              "pitch": 79,
              "velocity": 50,
              "position": 9.5,
              "duration": 0.325
            },
            {
              "pitch": 79,
              "velocity": 40,
              "position": 9.833333333333334,
              "duration": 0.15833333333333333
            },
            {
              "pitch": 82,
              "velocity": 40,
              "position": 9.8125,
              "duration": 0.17916666666666667
            },
            {
              "pitch": 86,
              "velocity": 40,
              "position": 9.791666666666666,
              "duration": 0.2
            },
            {
              "pitch": 108,
              "velocity": 67,
              "position": 9.791666666666666,
              "duration": 0.2
            },
            {
              "pitch": 104,
              "velocity": 30,
              "position": 10,
              "duration": 0.2833333333333333
            },
            {
              "pitch": 107,
              "velocity": 67,
              "position": 10.291666666666666,
              "duration": 0.2
            },
            {
              "pitch": 75,
              "velocity": 50,
              "position": 10.520833333333334,
              "duration": 0.2625
            },
            {
              "pitch": 108,
              "velocity": 97,
              "position": 10.5,
              "duration": 0.2833333333333333
            },
            {
              "pitch": 70,
              "velocity": 60,
              "position": 10.5,
              "duration": 0.49166666666666664
            },
            {
              "pitch": 107,
              "velocity": 67,
              "position": 10.791666666666666,
              "duration": 0.2
            },
            {
              "pitch": 75,
              "velocity": 40,
              "position": 10.791666666666666,
              "duration": 0.49166666666666664
            },
            {
              "pitch": 106,
              "velocity": 67,
              "position": 11,
              "duration": 0.2833333333333333
            },
            {
              "pitch": 70,
              "velocity": 30,
              "position": 11,
              "duration": 0.30416666666666664
            },
            {
              "pitch": 65,
              "velocity": 30,
              "position": 10.5,
              "duration": 0.9916666666666667
            },
            {
              "pitch": 70,
              "velocity": 20,
              "position": 11.3125,
              "duration": 0.17916666666666667
            },
            {
              "pitch": 105,
              "velocity": 57,
              "position": 11.291666666666666,
              "duration": 0.2
            },
            {
              "pitch": 75,
              "velocity": 30,
              "position": 11.291666666666666,
              "duration": 0.22083333333333333
            },
            {
              "pitch": 65,
              "velocity": 30,
              "position": 11.5,
              "duration": 0.2833333333333333
            },
            {
              "pitch": 70,
              "velocity": 60,
              "position": 11.5,
              "duration": 0.2833333333333333
            },
            {
              "pitch": 75,
              "velocity": 50,
              "position": 11.520833333333334,
              "duration": 0.2625
            },
            {
              "pitch": 108,
              "velocity": 97,
              "position": 11.5,
              "duration": 0.2833333333333333
            },
            {
              "pitch": 107,
              "velocity": 30,
              "position": 11.791666666666666,
              "duration": 0.2
            },
            {
              "pitch": 106,
              "velocity": 90,
              "position": 12.010416666666666,
              "duration": 0.2625
            },
            {
              "pitch": 79,
              "velocity": 42,
              "position": 12.010416666666666,
              "duration": 4.98125
            },
            {
              "pitch": 82,
              "velocity": 42,
              "position": 12.03125,
              "duration": 4.960416666666666
            },
            {
              "pitch": 87,
              "velocity": 42,
              "position": 12.052083333333334,
              "duration": 4.939583333333333
            }
          ]
        },
        "4": {
          "ctab": {
            "srcChannel": 4,
            "name": "Brs  Maj",
            "accType": "PHRASE1",
            "editable": false,
            "mutedNotes": [],
            "mutedChords": [
              "dim7",
              "dim",
              "minMaj7(9)",
              "minMaj7",
              "min7(11)",
              "min7(9)",
              "min(9)",
              "m7b5",
              "min7",
              "min6",
              "min"
            ],
            "autoStart": false,
            "sourceChordNote": 0,
            "sourceChordType": "Maj",
            "ctb2Low": null,
            "ctb2Main": {
              "ntr": "ROOT_TRANSPOSITION",
              "ntt": "BYPASS",
              "bassOn": false,
              "chordRootUpperLimit": 4,
              "noteLowLimit": 34,
              "noteHighLimit": 127,
              "rtr": "PITCH_SHIFT"
            },
            "ctb2High": null
          },
          "notes": [
            {
              "pitch": 62,
              "velocity": 82,
              "position": 12,
              "duration": 4.239583333333333
            },
            {
              "pitch": 70,
              "velocity": 82,
              "position": 12,
              "duration": 4.239583333333333
            },
            {
              "pitch": 76,
              "velocity": 82,
              "position": 12,
              "duration": 4.239583333333333
            },
            {
              "pitch": 84,
              "velocity": 87,
              "position": 12,
              "duration": 4.239583333333333
            },
            {
              "pitch": 36,
              "velocity": 82,
              "position": 12,
              "duration": 4.739583333333333
            }
          ]
        },
        "5": {
          "ctab": {
            "srcChannel": 5,
            "name": "Brs  min",
            "accType": "PHRASE1",
            "editable": false,
            "mutedNotes": [],
            "mutedChords": [
              "1+2+5",
              "sus4",
              "1+5",
              "1+8",
              "7aug",
              "Maj7aug",
              "7(#9)",
              "7(b13)",
              "7(b9)",
              "7(13)",
              "7#11",
              "7(9)",
              "7b5",
              "7sus4",
              "7th",
              "aug",
              "Maj6(9)",
              "Maj7(9)",
              "Maj(9)",
              "Maj7#11",
              "Maj7",
              "Maj6",
              "Maj"
            ],
            "autoStart": false,
            "sourceChordNote": 0,
            "sourceChordType": "min",
            "ctb2Low": null,
            "ctb2Main": {
              "ntr": "ROOT_TRANSPOSITION",
              "ntt": "BYPASS",
              "bassOn": false,
              "chordRootUpperLimit": 4,
              "noteLowLimit": 34,
              "noteHighLimit": 127,
              "rtr": "PITCH_SHIFT"
            },
            "ctb2High": null
          },
          "notes": [
            {
              "pitch": 60,
              "velocity": 85,
              "position": 12.029166666666667,
              "duration": 4.2125
            },
            {
              "pitch": 70,
              "velocity": 85,
              "position": 12,
              "duration": 4.241666666666666
            },
            {
              "pitch": 75,
              "velocity": 85,
              "position": 12.016666666666667,
              "duration": 4.225
            },
            {
              "pitch": 84,
              "velocity": 88,
              "position": 12.027083333333334,
              "duration": 4.214583333333334
            }
          ]
        },
        "6": {
          "ctab": {
            "srcChannel": 6,
            "name": "Hns  Maj",
            "accType": "PHRASE2",
            "editable": false,
            "mutedNotes": [],
            "mutedChords": [
              "dim7",
              "dim",
              "minMaj7(9)",
              "minMaj7",
              "min7(11)",
              "min7(9)",
              "min(9)",
              "m7b5",
              "min7",
              "min6",
              "min"
            ],
            "autoStart": false,
            "sourceChordNote": 0,
            "sourceChordType": "Maj",
            "ctb2Low": null,
            "ctb2Main": {
              "ntr": "ROOT_TRANSPOSITION",
              "ntt": "BYPASS",
              "bassOn": false,
              "chordRootUpperLimit": 2,
              "noteLowLimit": 34,
              "noteHighLimit": 74,
              "rtr": "PITCH_SHIFT"
            },
            "ctb2High": null
          },
          "notes": [
            {
              "pitch": 70,
              "velocity": 109,
              "position": 0,
              "duration": 0.3416666666666667
            },
            {
              "pitch": 69,
              "velocity": 56,
              "position": 0.3333333333333333,
              "duration": 0.10833333333333334
            },
            {
              "pitch": 62,
              "velocity": 102,
              "position": 0.016666666666666666,
              "duration": 0.4666666666666667
            },
            {
              "pitch": 84,
              "velocity": 127,
              "position": 0.014583333333333334,
              "duration": 0.47291666666666665
            },
            {
              "pitch": 67,
              "velocity": 51,
              "position": 0.4166666666666667,
              "duration": 0.10833333333333334
            },
            {
              "pitch": 60,
              "velocity": 56,
              "position": 0.4375,
              "duration": 0.08958333333333333
            },
            {
              "pitch": 82,
              "velocity": 56,
              "position": 0.4375,
              "duration": 0.08958333333333333
            },
            {
              "pitch": 76,
              "velocity": 106,
              "position": 0.004166666666666667,
              "duration": 0.5583333333333333
            },
            {
              "pitch": 58,
              "velocity": 51,
              "position": 0.5,
              "duration": 0.08958333333333333
            },
            {
              "pitch": 81,
              "velocity": 51,
              "position": 0.5,
              "duration": 0.08958333333333333
            },
            {
              "pitch": 74,
              "velocity": 56,
              "position": 0.5416666666666666,
              "duration": 0.058333333333333334
            },
            {
              "pitch": 65,
              "velocity": 45,
              "position": 0.5,
              "duration": 0.10833333333333334
            },
            {
              "pitch": 72,
              "velocity": 51,
              "position": 0.5833333333333334,
              "duration": 0.058333333333333334
            },
            {
              "pitch": 57,
              "velocity": 45,
              "position": 0.5625,
              "duration": 0.08958333333333333
            },
            {
              "pitch": 79,
              "velocity": 45,
              "position": 0.5625,
              "duration": 0.08958333333333333
            },
            {
              "pitch": 70,
              "velocity": 45,
              "position": 0.625,
              "duration": 0.058333333333333334
            },
            {
              "pitch": 64,
              "velocity": 40,
              "position": 0.5833333333333334,
              "duration": 0.10833333333333334
            },
            {
              "pitch": 55,
              "velocity": 40,
              "position": 0.625,
              "duration": 0.08958333333333333
            },
            {
              "pitch": 77,
              "velocity": 40,
              "position": 0.625,
              "duration": 0.08958333333333333
            },
            {
              "pitch": 69,
              "velocity": 40,
              "position": 0.6666666666666666,
              "duration": 0.058333333333333334
            },
            {
              "pitch": 67,
              "velocity": 35,
              "position": 0.7083333333333334,
              "duration": 0.058333333333333334
            },
            {
              "pitch": 62,
              "velocity": 35,
              "position": 0.6666666666666666,
              "duration": 0.10833333333333334
            },
            {
              "pitch": 53,
              "velocity": 35,
              "position": 0.6875,
              "duration": 0.08958333333333333
            },
            {
              "pitch": 76,
              "velocity": 35,
              "position": 0.6875,
              "duration": 0.08958333333333333
            },
            {
              "pitch": 65,
              "velocity": 30,
              "position": 0.75,
              "duration": 0.058333333333333334
            },
            {
              "pitch": 52,
              "velocity": 30,
              "position": 0.75,
              "duration": 0.08958333333333333
            },
            {
              "pitch": 74,
              "velocity": 30,
              "position": 0.75,
              "duration": 0.08958333333333333
            },
            {
              "pitch": 60,
              "velocity": 30,
              "position": 0.75,
              "duration": 0.10833333333333334
            },
            {
              "pitch": 70,
              "velocity": 109,
              "position": 3.9875,
              "duration": 0.3416666666666667
            },
            {
              "pitch": 69,
              "velocity": 56,
              "position": 4.333333333333333,
              "duration": 0.10833333333333334
            },
            {
              "pitch": 62,
              "velocity": 102,
              "position": 4.016666666666667,
              "duration": 0.4666666666666667
            },
            {
              "pitch": 84,
              "velocity": 127,
              "position": 4.014583333333333,
              "duration": 0.47291666666666665
            },
            {
              "pitch": 67,
              "velocity": 51,
              "position": 4.416666666666667,
              "duration": 0.10833333333333334
            },
            {
              "pitch": 60,
              "velocity": 56,
              "position": 4.4375,
              "duration": 0.08958333333333333
            },
            {
              "pitch": 82,
              "velocity": 56,
              "position": 4.4375,
              "duration": 0.08958333333333333
            },
            {
              "pitch": 76,
              "velocity": 106,
              "position": 4.004166666666666,
              "duration": 0.5583333333333333
            },
            {
              "pitch": 58,
              "velocity": 51,
              "position": 4.5,
              "duration": 0.08958333333333333
            },
            {
              "pitch": 81,
              "velocity": 51,
              "position": 4.5,
              "duration": 0.08958333333333333
            },
            {
              "pitch": 74,
              "velocity": 56,
              "position": 4.541666666666667,
              "duration": 0.058333333333333334
            },
            {
              "pitch": 65,
              "velocity": 45,
              "position": 4.5,
              "duration": 0.10833333333333334
            },
            {
              "pitch": 72,
              "velocity": 51,
              "position": 4.583333333333333,
              "duration": 0.058333333333333334
            },
            {
              "pitch": 57,
              "velocity": 45,
              "position": 4.5625,
              "duration": 0.08958333333333333
            },
            {
              "pitch": 79,
              "velocity": 45,
              "position": 4.5625,
              "duration": 0.08958333333333333
            },
            {
              "pitch": 70,
              "velocity": 45,
              "position": 4.625,
              "duration": 0.058333333333333334
            },
            {
              "pitch": 64,
              "velocity": 40,
              "position": 4.583333333333333,
              "duration": 0.10833333333333334
            },
            {
              "pitch": 55,
              "velocity": 40,
              "position": 4.625,
              "duration": 0.08958333333333333
            },
            {
              "pitch": 77,
              "velocity": 40,
              "position": 4.625,
              "duration": 0.08958333333333333
            },
            {
              "pitch": 69,
              "velocity": 40,
              "position": 4.666666666666667,
              "duration": 0.058333333333333334
            },
            {
              "pitch": 67,
              "velocity": 35,
              "position": 4.708333333333333,
              "duration": 0.058333333333333334
            },
            {
              "pitch": 62,
              "velocity": 35,
              "position": 4.666666666666667,
              "duration": 0.10833333333333334
            },
            {
              "pitch": 53,
              "velocity": 35,
              "position": 4.6875,
              "duration": 0.08958333333333333
            },
            {
              "pitch": 76,
              "velocity": 35,
              "position": 4.6875,
              "duration": 0.08958333333333333
            },
            {
              "pitch": 65,
              "velocity": 30,
              "position": 4.75,
              "duration": 0.058333333333333334
            },
            {
              "pitch": 52,
              "velocity": 30,
              "position": 4.75,
              "duration": 0.08958333333333333
            },
            {
              "pitch": 74,
              "velocity": 30,
              "position": 4.75,
              "duration": 0.08958333333333333
            },
            {
              "pitch": 60,
              "velocity": 30,
              "position": 4.75,
              "duration": 0.10833333333333334
            },
            {
              "pitch": 70,
              "velocity": 109,
              "position": 7.9875,
              "duration": 0.3416666666666667
            },
            {
              "pitch": 69,
              "velocity": 56,
              "position": 8.333333333333334,
              "duration": 0.10833333333333334
            },
            {
              "pitch": 62,
              "velocity": 102,
              "position": 8.016666666666667,
              "duration": 0.4666666666666667
            },
            {
              "pitch": 84,
              "velocity": 127,
              "position": 8.014583333333333,
              "duration": 0.47291666666666665
            },
            {
              "pitch": 67,
              "velocity": 51,
              "position": 8.416666666666666,
              "duration": 0.10833333333333334
            },
            {
              "pitch": 60,
              "velocity": 56,
              "position": 8.4375,
              "duration": 0.08958333333333333
            },
            {
              "pitch": 82,
              "velocity": 56,
              "position": 8.4375,
              "duration": 0.08958333333333333
            },
            {
              "pitch": 76,
              "velocity": 106,
              "position": 8.004166666666666,
              "duration": 0.5583333333333333
            },
            {
              "pitch": 58,
              "velocity": 51,
              "position": 8.5,
              "duration": 0.08958333333333333
            },
            {
              "pitch": 81,
              "velocity": 51,
              "position": 8.5,
              "duration": 0.08958333333333333
            },
            {
              "pitch": 74,
              "velocity": 56,
              "position": 8.541666666666666,
              "duration": 0.058333333333333334
            },
            {
              "pitch": 65,
              "velocity": 45,
              "position": 8.5,
              "duration": 0.10833333333333334
            },
            {
              "pitch": 72,
              "velocity": 51,
              "position": 8.583333333333334,
              "duration": 0.058333333333333334
            },
            {
              "pitch": 57,
              "velocity": 45,
              "position": 8.5625,
              "duration": 0.08958333333333333
            },
            {
              "pitch": 79,
              "velocity": 45,
              "position": 8.5625,
              "duration": 0.08958333333333333
            },
            {
              "pitch": 70,
              "velocity": 45,
              "position": 8.625,
              "duration": 0.058333333333333334
            },
            {
              "pitch": 64,
              "velocity": 40,
              "position": 8.583333333333334,
              "duration": 0.10833333333333334
            },
            {
              "pitch": 55,
              "velocity": 40,
              "position": 8.625,
              "duration": 0.08958333333333333
            },
            {
              "pitch": 77,
              "velocity": 40,
              "position": 8.625,
              "duration": 0.08958333333333333
            },
            {
              "pitch": 69,
              "velocity": 40,
              "position": 8.666666666666666,
              "duration": 0.058333333333333334
            },
            {
              "pitch": 67,
              "velocity": 35,
              "position": 8.708333333333334,
              "duration": 0.058333333333333334
            },
            {
              "pitch": 62,
              "velocity": 35,
              "position": 8.666666666666666,
              "duration": 0.10833333333333334
            },
            {
              "pitch": 53,
              "velocity": 35,
              "position": 8.6875,
              "duration": 0.08958333333333333
            },
            {
              "pitch": 76,
              "velocity": 35,
              "position": 8.6875,
              "duration": 0.08958333333333333
            },
            {
              "pitch": 65,
              "velocity": 30,
              "position": 8.75,
              "duration": 0.058333333333333334
            },
            {
              "pitch": 52,
              "velocity": 30,
              "position": 8.75,
              "duration": 0.08958333333333333
            },
            {
              "pitch": 74,
              "velocity": 30,
              "position": 8.75,
              "duration": 0.08958333333333333
            },
            {
              "pitch": 60,
              "velocity": 30,
              "position": 8.75,
              "duration": 0.10833333333333334
            },
            {
              "pitch": 70,
              "velocity": 109,
              "position": 12.010416666666666,
              "duration": 4.595833333333333
            },
            {
              "pitch": 69,
              "velocity": 56,
              "position": 16.583333333333332,
              "duration": 0.10833333333333334
            },
            {
              "pitch": 62,
              "velocity": 102,
              "position": 12.039583333333333,
              "duration": 4.720833333333333
            },
            {
              "pitch": 36,
              "velocity": 127,
              "position": 12.0375,
              "duration": 4.727083333333334
            },
            {
              "pitch": 84,
              "velocity": 127,
              "position": 12.0375,
              "duration": 4.727083333333334
            },
            {
              "pitch": 67,
              "velocity": 51,
              "position": 16.666666666666668,
              "duration": 0.10833333333333334
            },
            {
              "pitch": 60,
              "velocity": 56,
              "position": 16.6875,
              "duration": 0.08958333333333333
            },
            {
              "pitch": 82,
              "velocity": 56,
              "position": 16.6875,
              "duration": 0.08958333333333333
            },
            {
              "pitch": 58,
              "velocity": 51,
              "position": 16.75,
              "duration": 0.08958333333333333
            },
            {
              "pitch": 76,
              "velocity": 106,
              "position": 12.027083333333334,
              "duration": 4.8125
            },
            {
              "pitch": 81,
              "velocity": 51,
              "position": 16.75,
              "duration": 0.08958333333333333
            },
            {
              "pitch": 74,
              "velocity": 56,
              "position": 16.791666666666668,
              "duration": 0.058333333333333334
            },
            {
              "pitch": 65,
              "velocity": 45,
              "position": 16.75,
              "duration": 0.10833333333333334
            },
            {
              "pitch": 72,
              "velocity": 51,
              "position": 16.833333333333332,
              "duration": 0.058333333333333334
            },
            {
              "pitch": 57,
              "velocity": 45,
              "position": 16.8125,
              "duration": 0.08958333333333333
            },
            {
              "pitch": 79,
              "velocity": 45,
              "position": 16.8125,
              "duration": 0.08958333333333333
            },
            {
              "pitch": 70,
              "velocity": 45,
              "position": 16.875,
              "duration": 0.058333333333333334
            },
            {
              "pitch": 64,
              "velocity": 40,
              "position": 16.833333333333332,
              "duration": 0.10833333333333334
            },
            {
              "pitch": 55,
              "velocity": 40,
              "position": 16.875,
              "duration": 0.08958333333333333
            },
            {
              "pitch": 77,
              "velocity": 40,
              "position": 16.875,
              "duration": 0.08958333333333333
            },
            {
              "pitch": 69,
              "velocity": 40,
              "position": 16.916666666666668,
              "duration": 0.058333333333333334
            },
            {
              "pitch": 67,
              "velocity": 35,
              "position": 16.958333333333332,
              "duration": 0.058333333333333334
            },
            {
              "pitch": 62,
              "velocity": 35,
              "position": 16.916666666666668,
              "duration": 0.10833333333333334
            },
            {
              "pitch": 53,
              "velocity": 35,
              "position": 16.9375,
              "duration": 0.08958333333333333
            },
            {
              "pitch": 76,
              "velocity": 35,
              "position": 16.9375,
              "duration": 0.08958333333333333
            },
            {
              "pitch": 65,
              "velocity": 30,
              "position": 17,
              "duration": 0.058333333333333334
            },
            {
              "pitch": 52,
              "velocity": 30,
              "position": 17,
              "duration": 0.08958333333333333
            },
            {
              "pitch": 74,
              "velocity": 30,
              "position": 17,
              "duration": 0.08958333333333333
            },
            {
              "pitch": 60,
              "velocity": 30,
              "position": 17,
              "duration": 0.10833333333333334
            }
          ]
        },
        "7": {
          "ctab": {
            "srcChannel": 7,
            "name": "Hns  min",
            "accType": "PHRASE2",
            "editable": false,
            "mutedNotes": [],
            "mutedChords": [
              "1+2+5",
              "sus4",
              "1+5",
              "1+8",
              "7aug",
              "Maj7aug",
              "7(#9)",
              "7(b13)",
              "7(b9)",
              "7(13)",
              "7#11",
              "7(9)",
              "7b5",
              "7sus4",
              "7th",
              "aug",
              "Maj6(9)",
              "Maj7(9)",
              "Maj(9)",
              "Maj7#11",
              "Maj7",
              "Maj6",
              "Maj"
            ],
            "autoStart": false,
            "sourceChordNote": 0,
            "sourceChordType": "min",
            "ctb2Low": null,
            "ctb2Main": {
              "ntr": "ROOT_TRANSPOSITION",
              "ntt": "BYPASS",
              "bassOn": false,
              "chordRootUpperLimit": 2,
              "noteLowLimit": 34,
              "noteHighLimit": 74,
              "rtr": "PITCH_SHIFT"
            },
            "ctb2High": null
          },
          "notes": [
            {
              "pitch": 70,
              "velocity": 109,
              "position": 0,
              "duration": 0.3416666666666667
            },
            {
              "pitch": 60,
              "velocity": 102,
              "position": 0.016666666666666666,
              "duration": 0.42083333333333334
            },
            {
              "pitch": 69,
              "velocity": 56,
              "position": 0.3333333333333333,
              "duration": 0.10833333333333334
            },
            {
              "pitch": 84,
              "velocity": 127,
              "position": 0.014583333333333334,
              "duration": 0.47291666666666665
            },
            {
              "pitch": 67,
              "velocity": 51,
              "position": 0.4166666666666667,
              "duration": 0.10833333333333334
            },
            {
              "pitch": 60,
              "velocity": 56,
              "position": 0.4375,
              "duration": 0.08958333333333333
            },
            {
              "pitch": 82,
              "velocity": 56,
              "position": 0.4375,
              "duration": 0.08958333333333333
            },
            {
              "pitch": 75,
              "velocity": 106,
              "position": 0.004166666666666667,
              "duration": 0.5583333333333333
            },
            {
              "pitch": 58,
              "velocity": 51,
              "position": 0.5,
              "duration": 0.08958333333333333
            },
            {
              "pitch": 81,
              "velocity": 51,
              "position": 0.5,
              "duration": 0.08958333333333333
            },
            {
              "pitch": 74,
              "velocity": 56,
              "position": 0.5416666666666666,
              "duration": 0.058333333333333334
            },
            {
              "pitch": 65,
              "velocity": 45,
              "position": 0.5,
              "duration": 0.10833333333333334
            },
            {
              "pitch": 72,
              "velocity": 51,
              "position": 0.5833333333333334,
              "duration": 0.058333333333333334
            },
            {
              "pitch": 57,
              "velocity": 45,
              "position": 0.5625,
              "duration": 0.08958333333333333
            },
            {
              "pitch": 79,
              "velocity": 45,
              "position": 0.5625,
              "duration": 0.08958333333333333
            },
            {
              "pitch": 70,
              "velocity": 45,
              "position": 0.625,
              "duration": 0.058333333333333334
            },
            {
              "pitch": 63,
              "velocity": 40,
              "position": 0.5833333333333334,
              "duration": 0.10833333333333334
            },
            {
              "pitch": 55,
              "velocity": 40,
              "position": 0.625,
              "duration": 0.08958333333333333
            },
            {
              "pitch": 77,
              "velocity": 40,
              "position": 0.625,
              "duration": 0.08958333333333333
            },
            {
              "pitch": 69,
              "velocity": 40,
              "position": 0.6666666666666666,
              "duration": 0.058333333333333334
            },
            {
              "pitch": 67,
              "velocity": 35,
              "position": 0.7083333333333334,
              "duration": 0.058333333333333334
            },
            {
              "pitch": 62,
              "velocity": 35,
              "position": 0.6666666666666666,
              "duration": 0.10833333333333334
            },
            {
              "pitch": 53,
              "velocity": 35,
              "position": 0.6875,
              "duration": 0.08958333333333333
            },
            {
              "pitch": 75,
              "velocity": 35,
              "position": 0.6875,
              "duration": 0.08958333333333333
            },
            {
              "pitch": 65,
              "velocity": 30,
              "position": 0.75,
              "duration": 0.058333333333333334
            },
            {
              "pitch": 51,
              "velocity": 30,
              "position": 0.75,
              "duration": 0.08958333333333333
            },
            {
              "pitch": 74,
              "velocity": 30,
              "position": 0.75,
              "duration": 0.08958333333333333
            },
            {
              "pitch": 60,
              "velocity": 30,
              "position": 0.75,
              "duration": 0.10833333333333334
            },
            {
              "pitch": 70,
              "velocity": 109,
              "position": 4,
              "duration": 0.3416666666666667
            },
            {
              "pitch": 60,
              "velocity": 102,
              "position": 4.016666666666667,
              "duration": 0.42083333333333334
            },
            {
              "pitch": 69,
              "velocity": 56,
              "position": 4.333333333333333,
              "duration": 0.10833333333333334
            },
            {
              "pitch": 84,
              "velocity": 127,
              "position": 4.014583333333333,
              "duration": 0.47291666666666665
            },
            {
              "pitch": 67,
              "velocity": 51,
              "position": 4.416666666666667,
              "duration": 0.10833333333333334
            },
            {
              "pitch": 60,
              "velocity": 56,
              "position": 4.4375,
              "duration": 0.08958333333333333
            },
            {
              "pitch": 82,
              "velocity": 56,
              "position": 4.4375,
              "duration": 0.08958333333333333
            },
            {
              "pitch": 75,
              "velocity": 106,
              "position": 4.004166666666666,
              "duration": 0.5583333333333333
            },
            {
              "pitch": 58,
              "velocity": 51,
              "position": 4.5,
              "duration": 0.08958333333333333
            },
            {
              "pitch": 81,
              "velocity": 51,
              "position": 4.5,
              "duration": 0.08958333333333333
            },
            {
              "pitch": 74,
              "velocity": 56,
              "position": 4.541666666666667,
              "duration": 0.058333333333333334
            },
            {
              "pitch": 65,
              "velocity": 45,
              "position": 4.5,
              "duration": 0.10833333333333334
            },
            {
              "pitch": 72,
              "velocity": 51,
              "position": 4.583333333333333,
              "duration": 0.058333333333333334
            },
            {
              "pitch": 57,
              "velocity": 45,
              "position": 4.5625,
              "duration": 0.08958333333333333
            },
            {
              "pitch": 79,
              "velocity": 45,
              "position": 4.5625,
              "duration": 0.08958333333333333
            },
            {
              "pitch": 70,
              "velocity": 45,
              "position": 4.625,
              "duration": 0.058333333333333334
            },
            {
              "pitch": 63,
              "velocity": 40,
              "position": 4.583333333333333,
              "duration": 0.10833333333333334
            },
            {
              "pitch": 55,
              "velocity": 40,
              "position": 4.625,
              "duration": 0.08958333333333333
            },
            {
              "pitch": 77,
              "velocity": 40,
              "position": 4.625,
              "duration": 0.08958333333333333
            },
            {
              "pitch": 69,
              "velocity": 40,
              "position": 4.666666666666667,
              "duration": 0.058333333333333334
            },
            {
              "pitch": 67,
              "velocity": 35,
              "position": 4.708333333333333,
              "duration": 0.058333333333333334
            },
            {
              "pitch": 62,
              "velocity": 35,
              "position": 4.666666666666667,
              "duration": 0.10833333333333334
            },
            {
              "pitch": 53,
              "velocity": 35,
              "position": 4.6875,
              "duration": 0.08958333333333333
            },
            {
              "pitch": 75,
              "velocity": 35,
              "position": 4.6875,
              "duration": 0.08958333333333333
            },
            {
              "pitch": 65,
              "velocity": 30,
              "position": 4.75,
              "duration": 0.058333333333333334
            },
            {
              "pitch": 51,
              "velocity": 30,
              "position": 4.75,
              "duration": 0.08958333333333333
            },
            {
              "pitch": 74,
              "velocity": 30,
              "position": 4.75,
              "duration": 0.08958333333333333
            },
            {
              "pitch": 60,
              "velocity": 30,
              "position": 4.75,
              "duration": 0.10833333333333334
            },
            {
              "pitch": 70,
              "velocity": 109,
              "position": 8,
              "duration": 0.3416666666666667
            },
            {
              "pitch": 60,
              "velocity": 102,
              "position": 8.016666666666667,
              "duration": 0.42083333333333334
            },
            {
              "pitch": 69,
              "velocity": 56,
              "position": 8.333333333333334,
              "duration": 0.10833333333333334
            },
            {
              "pitch": 84,
              "velocity": 127,
              "position": 8.014583333333333,
              "duration": 0.47291666666666665
            },
            {
              "pitch": 67,
              "velocity": 51,
              "position": 8.416666666666666,
              "duration": 0.10833333333333334
            },
            {
              "pitch": 60,
              "velocity": 56,
              "position": 8.4375,
              "duration": 0.08958333333333333
            },
            {
              "pitch": 82,
              "velocity": 56,
              "position": 8.4375,
              "duration": 0.08958333333333333
            },
            {
              "pitch": 75,
              "velocity": 106,
              "position": 8.004166666666666,
              "duration": 0.5583333333333333
            },
            {
              "pitch": 58,
              "velocity": 51,
              "position": 8.5,
              "duration": 0.08958333333333333
            },
            {
              "pitch": 81,
              "velocity": 51,
              "position": 8.5,
              "duration": 0.08958333333333333
            },
            {
              "pitch": 74,
              "velocity": 56,
              "position": 8.541666666666666,
              "duration": 0.058333333333333334
            },
            {
              "pitch": 65,
              "velocity": 45,
              "position": 8.5,
              "duration": 0.10833333333333334
            },
            {
              "pitch": 72,
              "velocity": 51,
              "position": 8.583333333333334,
              "duration": 0.058333333333333334
            },
            {
              "pitch": 57,
              "velocity": 45,
              "position": 8.5625,
              "duration": 0.08958333333333333
            },
            {
              "pitch": 79,
              "velocity": 45,
              "position": 8.5625,
              "duration": 0.08958333333333333
            },
            {
              "pitch": 70,
              "velocity": 45,
              "position": 8.625,
              "duration": 0.058333333333333334
            },
            {
              "pitch": 63,
              "velocity": 40,
              "position": 8.583333333333334,
              "duration": 0.10833333333333334
            },
            {
              "pitch": 55,
              "velocity": 40,
              "position": 8.625,
              "duration": 0.08958333333333333
            },
            {
              "pitch": 77,
              "velocity": 40,
              "position": 8.625,
              "duration": 0.08958333333333333
            },
            {
              "pitch": 69,
              "velocity": 40,
              "position": 8.666666666666666,
              "duration": 0.058333333333333334
            },
            {
              "pitch": 67,
              "velocity": 35,
              "position": 8.708333333333334,
              "duration": 0.058333333333333334
            },
            {
              "pitch": 62,
              "velocity": 35,
              "position": 8.666666666666666,
              "duration": 0.10833333333333334
            },
            {
              "pitch": 53,
              "velocity": 35,
              "position": 8.6875,
              "duration": 0.08958333333333333
            },
            {
              "pitch": 75,
              "velocity": 35,
              "position": 8.6875,
              "duration": 0.08958333333333333
            },
            {
              "pitch": 65,
              "velocity": 30,
              "position": 8.75,
              "duration": 0.058333333333333334
            },
            {
              "pitch": 51,
              "velocity": 30,
              "position": 8.75,
              "duration": 0.08958333333333333
            },
            {
              "pitch": 74,
              "velocity": 30,
              "position": 8.75,
              "duration": 0.08958333333333333
            },
            {
              "pitch": 60,
              "velocity": 30,
              "position": 8.75,
              "duration": 0.10833333333333334
            },
            {
              "pitch": 70,
              "velocity": 109,
              "position": 12.010416666666666,
              "duration": 4.595833333333333
            },
            {
              "pitch": 60,
              "velocity": 102,
              "position": 12.039583333333333,
              "duration": 4.647916666666666
            },
            {
              "pitch": 69,
              "velocity": 56,
              "position": 16.583333333333332,
              "duration": 0.10833333333333334
            },
            {
              "pitch": 36,
              "velocity": 127,
              "position": 12.0375,
              "duration": 4.727083333333334
            },
            {
              "pitch": 84,
              "velocity": 127,
              "position": 12.0375,
              "duration": 4.727083333333334
            },
            {
              "pitch": 60,
              "velocity": 56,
              "position": 16.6875,
              "duration": 0.08333333333333333
            },
            {
              "pitch": 67,
              "velocity": 51,
              "position": 16.666666666666668,
              "duration": 0.10833333333333334
            },
            {
              "pitch": 82,
              "velocity": 56,
              "position": 16.6875,
              "duration": 0.08958333333333333
            },
            {
              "pitch": 58,
              "velocity": 51,
              "position": 16.75,
              "duration": 0.08958333333333333
            },
            {
              "pitch": 75,
              "velocity": 106,
              "position": 12.027083333333334,
              "duration": 4.8125
            },
            {
              "pitch": 81,
              "velocity": 51,
              "position": 16.75,
              "duration": 0.08958333333333333
            },
            {
              "pitch": 74,
              "velocity": 56,
              "position": 16.791666666666668,
              "duration": 0.058333333333333334
            },
            {
              "pitch": 65,
              "velocity": 45,
              "position": 16.75,
              "duration": 0.10833333333333334
            },
            {
              "pitch": 72,
              "velocity": 51,
              "position": 16.833333333333332,
              "duration": 0.058333333333333334
            },
            {
              "pitch": 57,
              "velocity": 45,
              "position": 16.8125,
              "duration": 0.08958333333333333
            },
            {
              "pitch": 79,
              "velocity": 45,
              "position": 16.8125,
              "duration": 0.08958333333333333
            },
            {
              "pitch": 70,
              "velocity": 45,
              "position": 16.875,
              "duration": 0.058333333333333334
            },
            {
              "pitch": 63,
              "velocity": 40,
              "position": 16.833333333333332,
              "duration": 0.10833333333333334
            },
            {
              "pitch": 55,
              "velocity": 40,
              "position": 16.875,
              "duration": 0.08958333333333333
            },
            {
              "pitch": 77,
              "velocity": 40,
              "position": 16.875,
              "duration": 0.08958333333333333
            },
            {
              "pitch": 69,
              "velocity": 40,
              "position": 16.916666666666668,
              "duration": 0.058333333333333334
            },
            {
              "pitch": 67,
              "velocity": 35,
              "position": 16.958333333333332,
              "duration": 0.058333333333333334
            },
            {
              "pitch": 62,
              "velocity": 35,
              "position": 16.916666666666668,
              "duration": 0.10833333333333334
            },
            {
              "pitch": 53,
              "velocity": 35,
              "position": 16.9375,
              "duration": 0.08958333333333333
            },
            {
              "pitch": 75,
              "velocity": 35,
              "position": 16.9375,
              "duration": 0.08958333333333333
            },
            {
              "pitch": 65,
              "velocity": 30,
              "position": 17,
              "duration": 0.058333333333333334
            },
            {
              "pitch": 51,
              "velocity": 30,
              "position": 17,
              "duration": 0.08958333333333333
            },
            {
              "pitch": 74,
              "velocity": 30,
              "position": 17,
              "duration": 0.08958333333333333
            },
            {
              "pitch": 60,
              "velocity": 30,
              "position": 17,
              "duration": 0.10833333333333334
            }
          ]
        },
        "8": {
          "ctab": {
            "srcChannel": 8,
            "name": "Perc.",
            "accType": "SUBRHYTHM",
            "editable": false,
            "mutedNotes": [],
            "mutedChords": [],
            "autoStart": true,
            "sourceChordNote": 0,
            "sourceChordType": "Maj7",
            "ctb2Low": null,
            "ctb2Main": {
              "ntr": "ROOT_FIXED",
              "ntt": "BYPASS",
              "bassOn": false,
              "chordRootUpperLimit": 6,
              "noteLowLimit": 0,
              "noteHighLimit": 127,
              "rtr": "PITCH_SHIFT"
            },
            "ctb2High": null
          },
          "notes": []
        },
        "9": {
          "ctab": {
            "srcChannel": 9,
            "name": "Drums",
            "accType": "RHYTHM",
            "editable": false,
            "mutedNotes": [],
            "mutedChords": [],
            "autoStart": true,
            "sourceChordNote": 0,
            "sourceChordType": "Maj7",
            "ctb2Low": null,
            "ctb2Main": {
              "ntr": "ROOT_FIXED",
              "ntt": "BYPASS",
              "bassOn": false,
              "chordRootUpperLimit": 6,
              "noteLowLimit": 0,
              "noteHighLimit": 127,
              "rtr": "PITCH_SHIFT"
            },
            "ctb2High": null
          },
          "notes": [
            {
              "pitch": 35,
              "velocity": 100,
              "position": 0,
              "duration": 0.010416666666666666
            },
            {
              "pitch": 38,
              "velocity": 107,
              "position": 0,
              "duration": 0.010416666666666666
            },
            {
              "pitch": 46,
              "velocity": 69,
              "position": 0,
              "duration": 0.010416666666666666
            },
            {
              "pitch": 44,
              "velocity": 1,
              "position": 0.2916666666666667,
              "duration": 0.010416666666666666
            },
            {
              "pitch": 42,
              "velocity": 52,
              "position": 0.5,
              "duration": 0.010416666666666666
            },
            {
              "pitch": 35,
              "velocity": 100,
              "position": 1,
              "duration": 0.010416666666666666
            },
            {
              "pitch": 42,
              "velocity": 80,
              "position": 1,
              "duration": 0.010416666666666666
            },
            {
              "pitch": 42,
              "velocity": 52,
              "position": 1.5,
              "duration": 0.010416666666666666
            },
            {
              "pitch": 42,
              "velocity": 80,
              "position": 1.7916666666666667,
              "duration": 0.010416666666666666
            },
            {
              "pitch": 35,
              "velocity": 100,
              "position": 2,
              "duration": 0.010416666666666666
            },
            {
              "pitch": 42,
              "velocity": 52,
              "position": 2.5,
              "duration": 0.010416666666666666
            },
            {
              "pitch": 35,
              "velocity": 100,
              "position": 3,
              "duration": 0.010416666666666666
            },
            {
              "pitch": 42,
              "velocity": 80,
              "position": 3,
              "duration": 0.010416666666666666
            },
            {
              "pitch": 42,
              "velocity": 52,
              "position": 3.5,
              "duration": 0.010416666666666666
            },
            {
              "pitch": 35,
              "velocity": 100,
              "position": 4,
              "duration": 0.010416666666666666
            },
            {
              "pitch": 38,
              "velocity": 109,
              "position": 4,
              "duration": 0.010416666666666666
            },
            {
              "pitch": 46,
              "velocity": 69,
              "position": 4,
              "duration": 0.010416666666666666
            },
            {
              "pitch": 44,
              "velocity": 1,
              "position": 4.291666666666667,
              "duration": 0.010416666666666666
            },
            {
              "pitch": 42,
              "velocity": 52,
              "position": 4.5,
              "duration": 0.010416666666666666
            },
            {
              "pitch": 35,
              "velocity": 100,
              "position": 5,
              "duration": 0.010416666666666666
            },
            {
              "pitch": 42,
              "velocity": 80,
              "position": 5,
              "duration": 0.010416666666666666
            },
            {
              "pitch": 42,
              "velocity": 30,
              "position": 5.5,
              "duration": 0.010416666666666666
            },
            {
              "pitch": 42,
              "velocity": 40,
              "position": 5.666666666666667,
              "duration": 0.010416666666666666
            },
            {
              "pitch": 42,
              "velocity": 50,
              "position": 5.833333333333333,
              "duration": 0.010416666666666666
            },
            {
              "pitch": 35,
              "velocity": 100,
              "position": 6,
              "duration": 0.010416666666666666
            },
            {
              "pitch": 42,
              "velocity": 80,
              "position": 6,
              "duration": 0.010416666666666666
            },
            {
              "pitch": 42,
              "velocity": 20,
              "position": 6.166666666666667,
              "duration": 0.010416666666666666
            },
            {
              "pitch": 42,
              "velocity": 30,
              "position": 6.333333333333333,
              "duration": 0.010416666666666666
            },
            {
              "pitch": 42,
              "velocity": 56,
              "position": 6.5,
              "duration": 0.010416666666666666
            },
            {
              "pitch": 46,
              "velocity": 41,
              "position": 6.645833333333333,
              "duration": 0.010416666666666666
            },
            {
              "pitch": 46,
              "velocity": 61,
              "position": 6.791666666666667,
              "duration": 0.010416666666666666
            },
            {
              "pitch": 35,
              "velocity": 100,
              "position": 7,
              "duration": 0.010416666666666666
            },
            {
              "pitch": 46,
              "velocity": 69,
              "position": 7,
              "duration": 0.010416666666666666
            },
            {
              "pitch": 35,
              "velocity": 100,
              "position": 8,
              "duration": 0.010416666666666666
            },
            {
              "pitch": 38,
              "velocity": 109,
              "position": 8,
              "duration": 0.010416666666666666
            },
            {
              "pitch": 44,
              "velocity": 86,
              "position": 8,
              "duration": 0.010416666666666666
            },
            {
              "pitch": 42,
              "velocity": 52,
              "position": 8.5,
              "duration": 0.010416666666666666
            },
            {
              "pitch": 35,
              "velocity": 100,
              "position": 9,
              "duration": 0.010416666666666666
            },
            {
              "pitch": 42,
              "velocity": 80,
              "position": 9,
              "duration": 0.010416666666666666
            },
            {
              "pitch": 42,
              "velocity": 52,
              "position": 9.5,
              "duration": 0.010416666666666666
            },
            {
              "pitch": 35,
              "velocity": 75,
              "position": 9.791666666666666,
              "duration": 0.010416666666666666
            },
            {
              "pitch": 46,
              "velocity": 69,
              "position": 9.791666666666666,
              "duration": 0.010416666666666666
            },
            {
              "pitch": 38,
              "velocity": 109,
              "position": 10,
              "duration": 0.010416666666666666
            },
            {
              "pitch": 44,
              "velocity": 74,
              "position": 10,
              "duration": 0.010416666666666666
            },
            {
              "pitch": 38,
              "velocity": 65,
              "position": 10.0625,
              "duration": 0.010416666666666666
            },
            {
              "pitch": 38,
              "velocity": 30,
              "position": 10.291666666666666,
              "duration": 0.010416666666666666
            },
            {
              "pitch": 35,
              "velocity": 100,
              "position": 10.5,
              "duration": 0.010416666666666666
            },
            {
              "pitch": 47,
              "velocity": 76,
              "position": 10.5,
              "duration": 0.010416666666666666
            },
            {
              "pitch": 38,
              "velocity": 109,
              "position": 11,
              "duration": 0.010416666666666666
            },
            {
              "pitch": 38,
              "velocity": 65,
              "position": 11.0625,
              "duration": 0.010416666666666666
            },
            {
              "pitch": 45,
              "velocity": 40,
              "position": 11.291666666666666,
              "duration": 0.010416666666666666
            },
            {
              "pitch": 35,
              "velocity": 100,
              "position": 11.5,
              "duration": 0.010416666666666666
            },
            {
              "pitch": 45,
              "velocity": 80,
              "position": 11.5,
              "duration": 0.010416666666666666
            },
            {
              "pitch": 35,
              "velocity": 80,
              "position": 12,
              "duration": 0.010416666666666666
            },
            {
              "pitch": 52,
              "velocity": 70,
              "position": 12,
              "duration": 0.010416666666666666
            },
            {
              "pitch": 57,
              "velocity": 4,
              "position": 13,
              "duration": 0.010416666666666666
            },
            {
              "pitch": 49,
              "velocity": 17,
              "position": 13.13125,
              "duration": 0.010416666666666666
            },
            {
              "pitch": 57,
              "velocity": 8,
              "position": 13.25,
              "duration": 0.010416666666666666
            },
            {
              "pitch": 49,
              "velocity": 21,
              "position": 13.383333333333333,
              "duration": 0.010416666666666666
            },
            {
              "pitch": 57,
              "velocity": 12,
              "position": 13.502083333333333,
              "duration": 0.010416666666666666
            },
            {
              "pitch": 49,
              "velocity": 25,
              "position": 13.61875,
              "duration": 0.010416666666666666
            },
            {
              "pitch": 57,
              "velocity": 16,
              "position": 13.745833333333334,
              "duration": 0.010416666666666666
            },
            {
              "pitch": 49,
              "velocity": 29,
              "position": 13.872916666666667,
              "duration": 0.010416666666666666
            },
            {
              "pitch": 57,
              "velocity": 20,
              "position": 14.004166666666666,
              "duration": 0.010416666666666666
            },
            {
              "pitch": 49,
              "velocity": 33,
              "position": 14.133333333333333,
              "duration": 0.010416666666666666
            },
            {
              "pitch": 57,
              "velocity": 24,
              "position": 14.24375,
              "duration": 0.010416666666666666
            },
            {
              "pitch": 49,
              "velocity": 37,
              "position": 14.370833333333334,
              "duration": 0.010416666666666666
            },
            {
              "pitch": 57,
              "velocity": 28,
              "position": 14.495833333333334,
              "duration": 0.010416666666666666
            },
            {
              "pitch": 49,
              "velocity": 40,
              "position": 14.620833333333334,
              "duration": 0.010416666666666666
            },
            {
              "pitch": 57,
              "velocity": 34,
              "position": 14.74375,
              "duration": 0.010416666666666666
            },
            {
              "pitch": 49,
              "velocity": 50,
              "position": 14.870833333333334,
              "duration": 0.010416666666666666
            },
            {
              "pitch": 57,
              "velocity": 44,
              "position": 15.002083333333333,
              "duration": 0.010416666666666666
            },
            {
              "pitch": 49,
              "velocity": 65,
              "position": 15.125,
              "duration": 0.010416666666666666
            },
            {
              "pitch": 57,
              "velocity": 59,
              "position": 15.25,
              "duration": 0.010416666666666666
            },
            {
              "pitch": 38,
              "velocity": 117,
              "position": 16.25,
              "duration": 0.010416666666666666
            },
            {
              "pitch": 38,
              "velocity": 75,
              "position": 16.3375,
              "duration": 0.010416666666666666
            },
            {
              "pitch": 35,
              "velocity": 80,
              "position": 16.5,
              "duration": 0.010416666666666666
            },
            {
              "pitch": 46,
              "velocity": 69,
              "position": 16.5,
              "duration": 0.010416666666666666
            },
            {
              "pitch": 44,
              "velocity": 1,
              "position": 16.75,
              "duration": 0.010416666666666666
            }
          ]
        },
        "10": {
          "ctab": {
            "srcChannel": 10,
            "name": "Bass FX",
            "accType": "BASS",
            "editable": false,
            "mutedNotes": [],
            "mutedChords": [],
            "autoStart": false,
            "sourceChordNote": 0,
            "sourceChordType": "Maj7",
            "ctb2Low": null,
            "ctb2Main": {
              "ntr": "ROOT_FIXED",
              "ntt": "BYPASS",
              "bassOn": false,
              "chordRootUpperLimit": 7,
              "noteLowLimit": 0,
              "noteHighLimit": 127,
              "rtr": "PITCH_SHIFT"
            },
            "ctb2High": null
          },
          "notes": [
            {
              "pitch": 96,
              "velocity": 82,
              "position": 0,
              "duration": 3.9916666666666667
            },
            {
              "pitch": 96,
              "velocity": 82,
              "position": 4,
              "duration": 3.4916666666666667
            },
            {
              "pitch": 99,
              "velocity": 82,
              "position": 7.620833333333334,
              "duration": 0.37083333333333335
            },
            {
              "pitch": 96,
              "velocity": 82,
              "position": 8,
              "duration": 3.9916666666666667
            },
            {
              "pitch": 97,
              "velocity": 100,
              "position": 16.25,
              "duration": 1.9895833333333333
            }
          ]
        },
        "11": {
          "ctab": {
            "srcChannel": 11,
            "name": "Bass Maj",
            "accType": "BASS",
            "editable": false,
            "mutedNotes": [],
            "mutedChords": [
              "dim7",
              "dim",
              "minMaj7(9)",
              "minMaj7",
              "min7(11)",
              "min7(9)",
              "min(9)",
              "m7b5",
              "min7",
              "min6",
              "min"
            ],
            "autoStart": false,
            "sourceChordNote": 0,
            "sourceChordType": "Maj",
            "ctb2Low": null,
            "ctb2Main": {
              "ntr": "ROOT_TRANSPOSITION",
              "ntt": "BYPASS",
              "bassOn": false,
              "chordRootUpperLimit": 8,
              "noteLowLimit": 28,
              "noteHighLimit": 127,
              "rtr": "PITCH_SHIFT"
            },
            "ctb2High": null
          },
          "notes": [
            {
              "pitch": 24,
              "velocity": 80,
              "position": 0,
              "duration": 0.35208333333333336
            },
            {
              "pitch": 24,
              "velocity": 80,
              "position": 4,
              "duration": 0.35208333333333336
            },
            {
              "pitch": 24,
              "velocity": 80,
              "position": 8,
              "duration": 0.35208333333333336
            },
            {
              "pitch": 24,
              "velocity": 70,
              "position": 12,
              "duration": 4.241666666666666
            }
          ]
        },
        "12": {
          "ctab": {
            "srcChannel": 12,
            "name": "Bass min",
            "accType": "BASS",
            "editable": false,
            "mutedNotes": [],
            "mutedChords": [
              "1+2+5",
              "sus4",
              "1+5",
              "1+8",
              "7aug",
              "Maj7aug",
              "7(#9)",
              "7(b13)",
              "7(b9)",
              "7(13)",
              "7#11",
              "7(9)",
              "7b5",
              "7sus4",
              "7th",
              "aug",
              "Maj6(9)",
              "Maj7(9)",
              "Maj(9)",
              "Maj7#11",
              "Maj7",
              "Maj6",
              "Maj"
            ],
            "autoStart": false,
            "sourceChordNote": 0,
            "sourceChordType": "min",
            "ctb2Low": null,
            "ctb2Main": {
              "ntr": "ROOT_TRANSPOSITION",
              "ntt": "BYPASS",
              "bassOn": false,
              "chordRootUpperLimit": 8,
              "noteLowLimit": 28,
              "noteHighLimit": 127,
              "rtr": "PITCH_SHIFT"
            },
            "ctb2High": null
          },
          "notes": [
            {
              "pitch": 24,
              "velocity": 80,
              "position": 0,
              "duration": 0.35208333333333336
            },
            {
              "pitch": 24,
              "velocity": 80,
              "position": 4,
              "duration": 0.35208333333333336
            },
            {
              "pitch": 24,
              "velocity": 80,
              "position": 8,
              "duration": 0.35208333333333336
            },
            {
              "pitch": 24,
              "velocity": 70,
              "position": 12,
              "duration": 4.241666666666666
            }
          ]
        },
        "13": {
          "ctab": {
            "srcChannel": 13,
            "name": "E.P  Maj",
            "accType": "CHORD2",
            "editable": false,
            "mutedNotes": [],
            "mutedChords": [
              "dim7",
              "dim",
              "minMaj7(9)",
              "minMaj7",
              "min7(11)",
              "min7(9)",
              "min(9)",
              "m7b5",
              "min7",
              "min6",
              "min"
            ],
            "autoStart": false,
            "sourceChordNote": 0,
            "sourceChordType": "Maj",
            "ctb2Low": null,
            "ctb2Main": {
              "ntr": "ROOT_TRANSPOSITION",
              "ntt": "BYPASS",
              "bassOn": false,
              "chordRootUpperLimit": 3,
              "noteLowLimit": 54,
              "noteHighLimit": 79,
              "rtr": "PITCH_SHIFT"
            },
            "ctb2High": null
          },
          "notes": [
            {
              "pitch": 48,
              "velocity": 120,
              "position": 0.10416666666666667,
              "duration": 0.7770833333333333
            },
            {
              "pitch": 52,
              "velocity": 114,
              "position": 0.10625,
              "duration": 0.7791666666666667
            },
            {
              "pitch": 43,
              "velocity": 105,
              "position": 0.12291666666666666,
              "duration": 0.7666666666666667
            },
            {
              "pitch": 46,
              "velocity": 114,
              "position": 0.10625,
              "duration": 0.8
            },
            {
              "pitch": 46,
              "velocity": 114,
              "position": 4,
              "duration": 0.6666666666666666
            },
            {
              "pitch": 48,
              "velocity": 114,
              "position": 3.997916666666667,
              "duration": 0.6708333333333333
            },
            {
              "pitch": 52,
              "velocity": 114,
              "position": 4.004166666666666,
              "duration": 0.66875
            },
            {
              "pitch": 43,
              "velocity": 100,
              "position": 4.016666666666667,
              "duration": 0.6708333333333333
            },
            {
              "pitch": 46,
              "velocity": 114,
              "position": 8.01875,
              "duration": 0.6333333333333333
            },
            {
              "pitch": 48,
              "velocity": 120,
              "position": 8.020833333333334,
              "duration": 0.65625
            },
            {
              "pitch": 43,
              "velocity": 107,
              "position": 8.033333333333333,
              "duration": 0.6479166666666667
            },
            {
              "pitch": 52,
              "velocity": 114,
              "position": 8.022916666666667,
              "duration": 0.6708333333333333
            },
            {
              "pitch": 48,
              "velocity": 122,
              "position": 12.010416666666666,
              "duration": 4.479166666666667
            },
            {
              "pitch": 43,
              "velocity": 122,
              "position": 12.010416666666666,
              "duration": 4.483333333333333
            },
            {
              "pitch": 52,
              "velocity": 97,
              "position": 12.010416666666666,
              "duration": 4.483333333333333
            },
            {
              "pitch": 46,
              "velocity": 118,
              "position": 12.010416666666666,
              "duration": 4.491666666666666
            }
          ]
        },
        "14": {
          "ctab": {
            "srcChannel": 14,
            "name": "E.P  min",
            "accType": "CHORD2",
            "editable": false,
            "mutedNotes": [],
            "mutedChords": [
              "1+2+5",
              "sus4",
              "1+5",
              "1+8",
              "7aug",
              "Maj7aug",
              "7(#9)",
              "7(b13)",
              "7(b9)",
              "7(13)",
              "7#11",
              "7(9)",
              "7b5",
              "7sus4",
              "7th",
              "aug",
              "Maj6(9)",
              "Maj7(9)",
              "Maj(9)",
              "Maj7#11",
              "Maj7",
              "Maj6",
              "Maj"
            ],
            "autoStart": false,
            "sourceChordNote": 0,
            "sourceChordType": "min",
            "ctb2Low": null,
            "ctb2Main": {
              "ntr": "ROOT_TRANSPOSITION",
              "ntt": "BYPASS",
              "bassOn": false,
              "chordRootUpperLimit": 3,
              "noteLowLimit": 54,
              "noteHighLimit": 79,
              "rtr": "PITCH_SHIFT"
            },
            "ctb2High": null
          },
          "notes": [
            {
              "pitch": 48,
              "velocity": 120,
              "position": 0.10416666666666667,
              "duration": 0.7770833333333333
            },
            {
              "pitch": 51,
              "velocity": 114,
              "position": 0.10625,
              "duration": 0.7791666666666667
            },
            {
              "pitch": 43,
              "velocity": 105,
              "position": 0.12291666666666666,
              "duration": 0.7666666666666667
            },
            {
              "pitch": 46,
              "velocity": 114,
              "position": 0.10625,
              "duration": 0.8
            },
            {
              "pitch": 46,
              "velocity": 114,
              "position": 4,
              "duration": 0.6666666666666666
            },
            {
              "pitch": 48,
              "velocity": 114,
              "position": 3.997916666666667,
              "duration": 0.6708333333333333
            },
            {
              "pitch": 51,
              "velocity": 114,
              "position": 4.004166666666666,
              "duration": 0.66875
            },
            {
              "pitch": 43,
              "velocity": 100,
              "position": 4.016666666666667,
              "duration": 0.6708333333333333
            },
            {
              "pitch": 46,
              "velocity": 114,
              "position": 8.01875,
              "duration": 0.6333333333333333
            },
            {
              "pitch": 48,
              "velocity": 120,
              "position": 8.020833333333334,
              "duration": 0.65625
            },
            {
              "pitch": 43,
              "velocity": 107,
              "position": 8.033333333333333,
              "duration": 0.6479166666666667
            },
            {
              "pitch": 51,
              "velocity": 114,
              "position": 8.022916666666667,
              "duration": 0.6708333333333333
            },
            {
              "pitch": 48,
              "velocity": 122,
              "position": 12.010416666666666,
              "duration": 4.479166666666667
            },
            {
              "pitch": 43,
              "velocity": 122,
              "position": 12.010416666666666,
              "duration": 4.483333333333333
            },
            {
              "pitch": 51,
              "velocity": 97,
              "position": 12.010416666666666,
              "duration": 4.483333333333333
            },
            {
              "pitch": 46,
              "velocity": 118,
              "position": 12.010416666666666,
              "duration": 4.491666666666666
            }
          ]
        }
      }
    }
  }
}