{
  "name": "SoulShuffle.S343.STY",
  "tempo": 98,
  "timeSignature": "4/4",
  "ticksPerQuarter": 1920,
  "sffType": "SFF1",
  "division": "BINARY",
  "parts": {
    "Main_A": {
      "type": "Main_A",
      "sizeInBeats": 16,
      "channels": {
        "2": {
          "ctab": {
            "srcChannel": 2,
            "name": "ClaviBs",
            "accType": "CHORD1",
            "editable": false,
            "mutedNotes": [],
            "mutedChords": [],
            "autoStart": false,
            "sourceChordNote": 0,
            "sourceChordType": "Maj7",
            "ctb2Low": null,
            "ctb2Main": {
              "ntr": "ROOT_TRANSPOSITION",
              "ntt": "MELODY",
              "bassOn": true,
              "chordRootUpperLimit": 8,
              "noteLowLimit": 28,
              "noteHighLimit": 127,
              "rtr": "PITCH_SHIFT_TO_ROOT"
            },
            "ctb2High": null
          },
          "notes": [
            {
              "pitch": 36,
              "velocity": 101,
              "position": 0,
              "duration": 0.4895833333333333
            },
            {
              "pitch": 36,
              "velocity": 104,
              "position": 1.8125,
              "duration": 0.17916666666666667
            },
            {
              "pitch": 36,
              "velocity": 104,
              "position": 5.520833333333333,
              "duration": 0.24791666666666667
            },
            {
              "pitch": 36,
              "velocity": 90,
              "position": 7.8125,
              "duration": 0.052083333333333336
            },
            {
              "pitch": 36,
              "velocity": 99,
              "position": 8,
              "duration": 0.4895833333333333
            },
            {
              "pitch": 36,
              "velocity": 104,
              "position": 9.8125,
              "duration": 0.09375
            },
            {
              "pitch": 36,
              "velocity": 104,
              "position": 13.8125,
              "duration": 0.09375
            },
            {
              "pitch": 36,
              "velocity": 67,
              "position": 14.320833333333333,
              "duration": 0.10208333333333333
            },
            {
              "pitch": 36,
              "velocity": 90,
              "position": 15.8125,
              "duration": 0.052083333333333336
            }
          ]
        },
        "4": {
          "ctab": {
            "srcChannel": 4,
            "name": "E.P  rt",
            "accType": "PAD",
            "editable": false,
            "mutedNotes": [],
            "mutedChords": [
              "1+2+5",
              "sus4",
              "1+5",
              "1+8",
              "Maj7aug",
              "dim",
              "minMaj7(9)",
              "minMaj7",
              "min6",
              "min",
              "aug",
              "Maj7(9)",
              "Maj7#11",
              "Maj7",
              "Maj6",
              "Maj"
            ],
            "autoStart": false,
            "sourceChordNote": 0,
            "sourceChordType": "Maj7",
            "ctb2Low": null,
            "ctb2Main": {
              "ntr": "ROOT_TRANSPOSITION",
              "ntt": "CHORD",
              "bassOn": false,
              "chordRootUpperLimit": 6,
              "noteLowLimit": 0,
              "noteHighLimit": 127,
              "rtr": "PITCH_SHIFT"
            },
            "ctb2High": null
          },
          "notes": [
            {
              "pitch": 60,
              "velocity": 84,
              "position": 0,
              "duration": 7.989583333333333
            },
            {
              "pitch": 60,
              "velocity": 84,
              "position": 8,
              "duration": 7.989583333333333
            }
          ]
        },
        "8": {
          "ctab": {
            "srcChannel": 8,
            "name": "AddDrum",
            "accType": "SUBRHYTHM",
            "editable": false,
            "mutedNotes": [],
            "mutedChords": [],
            "autoStart": true,
            "sourceChordNote": 0,
            "sourceChordType": "Maj7",
            "ctb2Low": null,
            "ctb2Main": {
              "ntr": "ROOT_FIXED",
              "ntt": "BYPASS",
              "bassOn": false,
              "chordRootUpperLimit": 6,
              "noteLowLimit": 0,
              "noteHighLimit": 127,
              "rtr": "PITCH_SHIFT"
            },
            "ctb2High": null
          },
          "notes": [
            {
              "pitch": 69,
              "velocity": 41,
              "position": 0,
              "duration": 0.010416666666666666
            },
            {
              "pitch": 69,
              "velocity": 64,
              "position": 0.5,
              "duration": 0.010416666666666666
            },
            {
              "pitch": 69,
              "velocity": 41,
              "position": 1,
              "duration": 0.010416666666666666
            },
            {
              "pitch": 69,
              "velocity": 64,
              "position": 1.5,
              "duration": 0.010416666666666666
            },
            {
              "pitch": 69,
              "velocity": 41,
              "position": 2,
              "duration": 0.010416666666666666
            },
            {
              "pitch": 69,
              "velocity": 64,
              "position": 2.5,
              "duration": 0.010416666666666666
            },
            {
              "pitch": 69,
              "velocity": 41,
              "position": 3,
              "duration": 0.010416666666666666
            },
            {
              "pitch": 69,
              "velocity": 64,
              "position": 3.5,
              "duration": 0.010416666666666666
            },
            {
              "pitch": 69,
              "velocity": 33,
              "position": 3.8333333333333335,
              "duration": 0.010416666666666666
            },
            {
              "pitch": 69,
              "velocity": 41,
              "position": 4,
              "duration": 0.010416666666666666
            },
            {
              "pitch": 69,
              "velocity": 64,
              "position": 4.5,
              "duration": 0.010416666666666666
            },
            {
              "pitch": 69,
              "velocity": 41,
              "position": 5,
              "duration": 0.010416666666666666
            },
            {
              "pitch": 69,
              "velocity": 64,
              "position": 5.5,
              "duration": 0.010416666666666666
            },
            {
              "pitch": 69,
              "velocity": 41,
              "position": 6,
              "duration": 0.010416666666666666
            },
            {
              "pitch": 69,
              "velocity": 64,
              "position": 6.5,
              "duration": 0.010416666666666666
            },
            {
              "pitch": 69,
              "velocity": 41,
              "position": 7,
              "duration": 0.010416666666666666
            },
            {
              "pitch": 69,
              "velocity": 64,
              "position": 7.5,
              "duration": 0.010416666666666666
            },
            {
              "pitch": 69,
              "velocity": 33,
              "position": 7.833333333333333,
              "duration": 0.010416666666666666
            },
            {
              "pitch": 69,
              "velocity": 41,
              "position": 8,
              "duration": 0.010416666666666666
            },
            {
              "pitch": 69,
              "velocity": 64,
              "position": 8.5,
              "duration": 0.010416666666666666
            },
            {
              "pitch": 69,
              "velocity": 41,
              "position": 9,
              "duration": 0.010416666666666666
            },
            {
              "pitch": 69,
              "velocity": 64,
              "position": 9.5,
              "duration": 0.010416666666666666
            },
            {
              "pitch": 69,
              "velocity": 41,
              "position": 10,
              "duration": 0.010416666666666666
            },
            {
              "pitch": 69,
              "velocity": 64,
              "position": 10.5,
              "duration": 0.010416666666666666
            },
            {
              "pitch": 69,
              "velocity": 41,
              "position": 11,
              "duration": 0.010416666666666666
            },
            {
              "pitch": 69,
              "velocity": 64,
              "position": 11.5,
              "duration": 0.010416666666666666
            },
            {
              "pitch": 69,
              "velocity": 33,
              "position": 11.833333333333334,
              "duration": 0.010416666666666666
            },
            {
              "pitch": 69,
              "velocity": 41,
              "position": 12,
              "duration": 0.010416666666666666
            },
            {
              "pitch": 69,
              "velocity": 64,
              "position": 12.5,
              "duration": 0.010416666666666666
            },
            {
              "pitch": 69,
              "velocity": 41,
              "position": 13,
              "duration": 0.010416666666666666
            },
            {
              "pitch": 69,
              "velocity": 64,
              "position": 13.5,
              "duration": 0.010416666666666666
            },
            {
              "pitch": 69,
              "velocity": 41,
              "position": 14,
              "duration": 0.010416666666666666
            },
            {
              "pitch": 69,
              "velocity": 64,
              "position": 14.5,
              "duration": 0.010416666666666666
            },
            {
              "pitch": 69,
              "velocity": 41,
              "position": 15,
              "duration": 0.010416666666666666
            },
            {
              "pitch": 69,
              "velocity": 64,
              "position": 15.5,
              "duration": 0.010416666666666666
            },
            {
              "pitch": 69,
              "velocity": 33,
              "position": 15.833333333333334,
              "duration": 0.010416666666666666
            }
          ]
        },
        "9": {
          "ctab": {
            "srcChannel": 9,
            "name": "MainDrum",
            "accType": "RHYTHM",
            "editable": false,
            "mutedNotes": [],
            "mutedChords": [],
            "autoStart": true,
            "sourceChordNote": 0,
            "sourceChordType": "Maj7",
            "ctb2Low": null,
            "ctb2Main": {
              "ntr": "ROOT_FIXED",
              "ntt": "BYPASS",
              "bassOn": false,
              "chordRootUpperLimit": 6,
              "noteLowLimit": 0,
              "noteHighLimit": 127,
              "rtr": "PITCH_SHIFT"
            },
            "ctb2High": null
          },
          "notes": [
            {
              "pitch": 35,
              "velocity": 90,
              "position": 0,
              "duration": 0.010416666666666666
            },
            {
              "pitch": 42,
              "velocity": 116,
              "position": 0,
              "duration": 0.010416666666666666
            },
            {
              "pitch": 42,
              "velocity": 88,
              "position": 0.5,
              "duration": 0.010416666666666666
            },
            {
              "pitch": 40,
              "velocity": 114,
              "position": 1,
              "duration": 0.010416666666666666
            },
            {
              "pitch": 42,
              "velocity": 116,
              "position": 1,
              "duration": 0.010416666666666666
            },
            {
              "pitch": 42,
              "velocity": 94,
              "position": 1.5,
              "duration": 0.010416666666666666
            },
            {
              "pitch": 42,
              "velocity": 54,
              "position": 1.8333333333333333,
              "duration": 0.010416666666666666
            },
            {
              "pitch": 35,
              "velocity": 90,
              "position": 2,
              "duration": 0.010416666666666666
            },
            {
              "pitch": 42,
              "velocity": 116,
              "position": 2,
              "duration": 0.010416666666666666
            },
            {
              "pitch": 42,
              "velocity": 85,
              "position": 2.5,
              "duration": 0.010416666666666666
            },
            {
              "pitch": 40,
              "velocity": 114,
              "position": 3,
              "duration": 0.010416666666666666
            },
            {
              "pitch": 42,
              "velocity": 116,
              "position": 3,
              "duration": 0.010416666666666666
            },
            {
              "pitch": 42,
              "velocity": 90,
              "position": 3.5,
              "duration": 0.010416666666666666
            },
            {
              "pitch": 42,
              "velocity": 51,
              "position": 3.8333333333333335,
              "duration": 0.010416666666666666
            },
            {
              "pitch": 35,
              "velocity": 90,
              "position": 4,
              "duration": 0.010416666666666666
            },
            {
              "pitch": 42,
              "velocity": 116,
              "position": 4,
              "duration": 0.010416666666666666
            },
            {
              "pitch": 42,
              "velocity": 88,
              "position": 4.5,
              "duration": 0.010416666666666666
            },
            {
              "pitch": 40,
              "velocity": 114,
              "position": 5,
              "duration": 0.010416666666666666
            },
            {
              "pitch": 42,
              "velocity": 116,
              "position": 5,
              "duration": 0.010416666666666666
            },
            {
              "pitch": 42,
              "velocity": 94,
              "position": 5.5,
              "duration": 0.010416666666666666
            },
            {
              "pitch": 42,
              "velocity": 54,
              "position": 5.833333333333333,
              "duration": 0.010416666666666666
            },
            {
              "pitch": 35,
              "velocity": 90,
              "position": 6,
              "duration": 0.010416666666666666
            },
            {
              "pitch": 42,
              "velocity": 116,
              "position": 6,
              "duration": 0.010416666666666666
            },
            {
              "pitch": 42,
              "velocity": 48,
              "position": 6.333333333333333,
              "duration": 0.010416666666666666
            },
            {
              "pitch": 42,
              "velocity": 116,
              "position": 6.5,
              "duration": 0.010416666666666666
            },
            {
              "pitch": 40,
              "velocity": 114,
              "position": 7,
              "duration": 0.010416666666666666
            },
            {
              "pitch": 42,
              "velocity": 116,
              "position": 7,
              "duration": 0.010416666666666666
            },
            {
              "pitch": 42,
              "velocity": 90,
              "position": 7.5,
              "duration": 0.010416666666666666
            },
            {
              "pitch": 42,
              "velocity": 51,
              "position": 7.833333333333333,
              "duration": 0.010416666666666666
            },
            {
              "pitch": 35,
              "velocity": 90,
              "position": 8,
              "duration": 0.010416666666666666
            },
            {
              "pitch": 42,
              "velocity": 116,
              "position": 8,
              "duration": 0.010416666666666666
            },
            {
              "pitch": 42,
              "velocity": 88,
              "position": 8.5,
              "duration": 0.010416666666666666
            },
            {
              "pitch": 40,
              "velocity": 114,
              "position": 9,
              "duration": 0.010416666666666666
            },
            {
              "pitch": 42,
              "velocity": 116,
              "position": 9,
              "duration": 0.010416666666666666
            },
            {
              "pitch": 42,
              "velocity": 94,
              "position": 9.5,
              "duration": 0.010416666666666666
            },
            {
              "pitch": 42,
              "velocity": 54,
              "position": 9.833333333333334,
              "duration": 0.010416666666666666
            },
            {
              "pitch": 35,
              "velocity": 90,
              "position": 10,
              "duration": 0.010416666666666666
            },
            {
              "pitch": 42,
              "velocity": 116,
              "position": 10,
              "duration": 0.010416666666666666
            },
            {
              "pitch": 42,
              "velocity": 85,
              "position": 10.5,
              "duration": 0.010416666666666666
            },
            {
              "pitch": 40,
              "velocity": 114,
              "position": 11,
              "duration": 0.010416666666666666
            },
            {
              "pitch": 42,
              "velocity": 116,
              "position": 11,
              "duration": 0.010416666666666666
            },
            {
              "pitch": 42,
              "velocity": 90,
              "position": 11.5,
              "duration": 0.010416666666666666
            },
            {
              "pitch": 42,
              "velocity": 51,
              "position": 11.833333333333334,
              "duration": 0.010416666666666666
            },
            {
              "pitch": 35,
              "velocity": 90,
              "position": 12,
              "duration": 0.010416666666666666
            },
            {
              "pitch": 42,
              "velocity": 116,
              "position": 12,
              "duration": 0.010416666666666666
            },
            {
              "pitch": 42,
              "velocity": 88,
              "position": 12.5,
              "duration": 0.010416666666666666
            },
            {
              "pitch": 40,
              "velocity": 114,
              "position": 13,
              "duration": 0.010416666666666666
            },
            {
              "pitch": 42,
              "velocity": 116,
              "position": 13,
              "duration": 0.010416666666666666
            },
            {
              "pitch": 42,
              "velocity": 94,
              "position": 13.5,
              "duration": 0.010416666666666666
            },
            {
              "pitch": 42,
              "velocity": 54,
              "position": 13.833333333333334,
              "duration": 0.010416666666666666
            },
            {
              "pitch": 35,
              "velocity": 90,
              "position": 14,
              "duration": 0.010416666666666666
            },
            {
              "pitch": 42,
              "velocity": 116,
              "position": 14,
              "duration": 0.010416666666666666
            },
            {
              "pitch": 42,
              "velocity": 85,
              "position": 14.5,
              "duration": 0.010416666666666666
            },
            {
              "pitch": 40,
              "velocity": 114,
              "position": 15,
              "duration": 0.010416666666666666
            },
            {
              "pitch": 42,
              "velocity": 116,
              "position": 15,
              "duration": 0.010416666666666666
            },
            {
              "pitch": 42,
              "velocity": 27,
              "position": 15.333333333333334,
              "duration": 0.010416666666666666
            },
            {
              "pitch": 42,
              "velocity": 90,
              "position": 15.5,
              "duration": 0.010416666666666666
            },
            {
              "pitch": 42,
              "velocity": 51,
              "position": 15.833333333333334,
              "duration": 0.010416666666666666
            }
          ]
        },
        "10": {
          "ctab": {
            "srcChannel": 10,
            "name": "Bass",
            "accType": "BASS",
            "editable": false,
            "mutedNotes": [],
            "mutedChords": [],
            "autoStart": false,
            "sourceChordNote": 0,
            "sourceChordType": "Maj7",
            "ctb2Low": null,
            "ctb2Main": {
              "ntr": "ROOT_TRANSPOSITION",
              "ntt": "MELODY",
              "bassOn": true,
              "chordRootUpperLimit": 8,
              "noteLowLimit": 28,
              "noteHighLimit": 127,
              "rtr": "PITCH_SHIFT_TO_ROOT"
            },
            "ctb2High": null
          },
          "notes": [
            {
              "pitch": 24,
              "velocity": 70,
              "position": 0,
              "duration": 0.48125
            },
            {
              "pitch": 24,
              "velocity": 111,
              "position": 0.5,
              "duration": 0.3145833333333333
            },
            {
              "pitch": 36,
              "velocity": 111,
              "position": 1,
              "duration": 0.3145833333333333
            },
            {
              "pitch": 24,
              "velocity": 46,
              "position": 1.8333333333333333,
              "duration": 0.14791666666666667
            },
            {
              "pitch": 24,
              "velocity": 70,
              "position": 2,
              "duration": 0.48125
            },
            {
              "pitch": 24,
              "velocity": 111,
              "position": 2.5,
              "duration": 0.3145833333333333
            },
            {
              "pitch": 36,
              "velocity": 112,
              "position": 3,
              "duration": 0.3145833333333333
            },
            {
              "pitch": 24,
              "velocity": 70,
              "position": 4,
              "duration": 0.48125
            },
            {
              "pitch": 24,
              "velocity": 111,
              "position": 4.5,
              "duration": 0.3145833333333333
            },
            {
              "pitch": 36,
              "velocity": 111,
              "position": 5,
              "duration": 0.3145833333333333
            },
            {
              "pitch": 24,
              "velocity": 46,
              "position": 5.833333333333333,
              "duration": 0.14791666666666667
            },
            {
              "pitch": 24,
              "velocity": 70,
              "position": 6,
              "duration": 0.48125
            },
            {
              "pitch": 24,
              "velocity": 111,
              "position": 6.5,
              "duration": 0.3145833333333333
            },
            {
              "pitch": 31,
              "velocity": 70,
              "position": 7,
              "duration": 0.3145833333333333
            },
            {
              "pitch": 31,
              "velocity": 111,
              "position": 7.333333333333333,
              "duration": 0.14791666666666667
            },
            {
              "pitch": 28,
              "velocity": 70,
              "position": 7.5,
              "duration": 0.48125
            },
            {
              "pitch": 24,
              "velocity": 70,
              "position": 8,
              "duration": 0.48125
            },
            {
              "pitch": 24,
              "velocity": 111,
              "position": 8.5,
              "duration": 0.3145833333333333
            },
            {
              "pitch": 36,
              "velocity": 111,
              "position": 9,
              "duration": 0.3145833333333333
            },
            {
              "pitch": 24,
              "velocity": 46,
              "position": 9.833333333333334,
              "duration": 0.14791666666666667
            },
            {
              "pitch": 24,
              "velocity": 70,
              "position": 10,
              "duration": 0.48125
            },
            {
              "pitch": 24,
              "velocity": 111,
              "position": 10.5,
              "duration": 0.3145833333333333
            },
            {
              "pitch": 36,
              "velocity": 112,
              "position": 11,
              "duration": 0.3145833333333333
            },
            {
              "pitch": 24,
              "velocity": 70,
              "position": 12,
              "duration": 0.48125
            },
            {
              "pitch": 24,
              "velocity": 111,
              "position": 12.5,
              "duration": 0.3145833333333333
            },
            {
              "pitch": 36,
              "velocity": 111,
              "position": 13,
              "duration": 0.3145833333333333
            },
            {
              "pitch": 24,
              "velocity": 46,
              "position": 13.833333333333334,
              "duration": 0.14791666666666667
            },
            {
              "pitch": 24,
              "velocity": 70,
              "position": 14,
              "duration": 0.48125
            },
            {
              "pitch": 24,
              "velocity": 111,
              "position": 14.5,
              "duration": 0.3145833333333333
            },
            {
              "pitch": 31,
              "velocity": 70,
              "position": 15,
              "duration": 0.3145833333333333
            },
            {
              "pitch": 31,
              "velocity": 111,
              "position": 15.333333333333334,
              "duration": 0.14791666666666667
            },
            {
              "pitch": 28,
              "velocity": 70,
              "position": 15.5,
              "duration": 0.48125
            }
          ]
        },
        "11": {
          "ctab": {
            "srcChannel": 11,
            "name": "Clavi",
            "accType": "CHORD1",
            "editable": false,
            "mutedNotes": [],
            "mutedChords": [],
            "autoStart": false,
            "sourceChordNote": 0,
            "sourceChordType": "Maj7",
            "ctb2Low": null,
            "ctb2Main": {
              "ntr": "ROOT_TRANSPOSITION",
              "ntt": "CHORD",
              "bassOn": false,
              "chordRootUpperLimit": 7,
              "noteLowLimit": 0,
              "noteHighLimit": 127,
              "rtr": "PITCH_SHIFT"
            },
            "ctb2High": null
          },
          "notes": [
            {
              "pitch": 47,
              "velocity": 110,
              "position": 0.5,
              "duration": 0.3125
            },
            {
              "pitch": 48,
              "velocity": 110,
              "position": 1,
              "duration": 0.3125
            },
            {
              "pitch": 52,
              "velocity": 110,
              "position": 2,
              "duration": 0.225
            },
            {
              "pitch": 47,
              "velocity": 110,
              "position": 2.8354166666666667,
              "duration": 0.14583333333333334
            },
            {
              "pitch": 48,
              "velocity": 110,
              "position": 3.5,
              "duration": 0.3125
            },
            {
              "pitch": 47,
              "velocity": 67,
              "position": 4.333333333333333,
              "duration": 0.0625
            },
            {
              "pitch": 47,
              "velocity": 110,
              "position": 4.5,
              "duration": 0.3125
            },
            {
              "pitch": 48,
              "velocity": 110,
              "position": 5,
              "duration": 0.3125
            },
            {
              "pitch": 52,
              "velocity": 110,
              "position": 6,
              "duration": 0.225
            },
            {
              "pitch": 47,
              "velocity": 110,
              "position": 6.841666666666667,
              "duration": 0.15
            },
            {
              "pitch": 47,
              "velocity": 54,
              "position": 7.252083333333333,
              "duration": 0.0625
            },
            {
              "pitch": 48,
              "velocity": 110,
              "position": 7.5,
              "duration": 0.3125
            },
            {
              "pitch": 47,
              "velocity": 110,
              "position": 8.5,
              "duration": 0.3125
            },
            {
              "pitch": 48,
              "velocity": 110,
              "position": 9,
              "duration": 0.3125
            },
            {
              "pitch": 52,
              "velocity": 110,
              "position": 10,
              "duration": 0.225
            },
            {
              "pitch": 47,
              "velocity": 110,
              "position": 10.8125,
              "duration": 0.1875
            },
            {
              "pitch": 48,
              "velocity": 110,
              "position": 11.5,
              "duration": 0.3125
            },
            {
              "pitch": 47,
              "velocity": 67,
              "position": 12.333333333333334,
              "duration": 0.0625
            },
            {
              "pitch": 47,
              "velocity": 110,
              "position": 12.5,
              "duration": 0.3125
            },
            {
              "pitch": 48,
              "velocity": 110,
              "position": 13,
              "duration": 0.3125
            },
            {
              "pitch": 48,
              "velocity": 110,
              "position": 13.5,
              "duration": 0.3125
            },
            {
              "pitch": 52,
              "velocity": 110,
              "position": 14,
              "duration": 0.225
            },
            {
              "pitch": 47,
              "velocity": 110,
              "position": 14.841666666666667,
              "duration": 0.17916666666666667
            },
            {
              "pitch": 47,
              "velocity": 73,
              "position": 15.3125,
              "duration": 0.0625
            },
            {
              "pitch": 48,
              "velocity": 110,
              "position": 15.5,
              "duration": 0.3125
            }
          ]
        },
        "12": {
          "ctab": {
            "srcChannel": 12,
            "name": "SolidGtr",
            "accType": "CHORD2",
            "editable": false,
            "mutedNotes": [],
            "mutedChords": [],
            "autoStart": false,
            "sourceChordNote": 0,
            "sourceChordType": "Maj7",
            "ctb2Low": null,
            "ctb2Main": {
              "ntr": "ROOT_TRANSPOSITION",
              "ntt": "CHORD",
              "bassOn": true,
              "chordRootUpperLimit": 7,
              "noteLowLimit": 0,
              "noteHighLimit": 127,
              "rtr": "PITCH_SHIFT"
            },
            "ctb2High": null
          },
          "notes": [
            {
              "pitch": 48,
              "velocity": 88,
              "position": 0,
              "duration": 0.16666666666666666
            },
            {
              "pitch": 48,
              "velocity": 88,
              "position": 0.5,
              "duration": 0.16666666666666666
            },
            {
              "pitch": 55,
              "velocity": 55,
              "position": 1,
              "duration": 0.10416666666666667
            },
            {
              "pitch": 59,
              "velocity": 55,
              "position": 1,
              "duration": 0.10416666666666667
            },
            {
              "pitch": 60,
              "velocity": 55,
              "position": 1.0104166666666667,
              "duration": 0.10416666666666667
            },
            {
              "pitch": 64,
              "velocity": 55,
              "position": 1.0208333333333333,
              "duration": 0.10416666666666667
            },
            {
              "pitch": 55,
              "velocity": 55,
              "position": 3,
              "duration": 0.10416666666666667
            },
            {
              "pitch": 59,
              "velocity": 55,
              "position": 3,
              "duration": 0.10416666666666667
            },
            {
              "pitch": 60,
              "velocity": 55,
              "position": 3.0104166666666665,
              "duration": 0.10416666666666667
            },
            {
              "pitch": 64,
              "velocity": 55,
              "position": 3.0208333333333335,
              "duration": 0.10416666666666667
            },
            {
              "pitch": 0,
              "velocity": 87,
              "position": 3.8333333333333335,
              "duration": 0.16666666666666666
            },
            {
              "pitch": 48,
              "velocity": 85,
              "position": 4,
              "duration": 0.16666666666666666
            },
            {
              "pitch": 48,
              "velocity": 70,
              "position": 4.333333333333333,
              "duration": 0.15625
            },
            {
              "pitch": 48,
              "velocity": 85,
              "position": 4.5,
              "duration": 0.16666666666666666
            },
            {
              "pitch": 55,
              "velocity": 55,
              "position": 5,
              "duration": 0.10416666666666667
            },
            {
              "pitch": 59,
              "velocity": 55,
              "position": 5,
              "duration": 0.10416666666666667
            },
            {
              "pitch": 60,
              "velocity": 55,
              "position": 5.010416666666667,
              "duration": 0.10416666666666667
            },
            {
              "pitch": 64,
              "velocity": 55,
              "position": 5.020833333333333,
              "duration": 0.10416666666666667
            },
            {
              "pitch": 55,
              "velocity": 55,
              "position": 7,
              "duration": 0.10416666666666667
            },
            {
              "pitch": 59,
              "velocity": 55,
              "position": 7,
              "duration": 0.10416666666666667
            },
            {
              "pitch": 60,
              "velocity": 55,
              "position": 7.010416666666667,
              "duration": 0.10416666666666667
            },
            {
              "pitch": 64,
              "velocity": 55,
              "position": 7.020833333333333,
              "duration": 0.10416666666666667
            },
            {
              "pitch": 48,
              "velocity": 88,
              "position": 8,
              "duration": 0.16666666666666666
            },
            {
              "pitch": 48,
              "velocity": 88,
              "position": 8.5,
              "duration": 0.16666666666666666
            },
            {
              "pitch": 55,
              "velocity": 55,
              "position": 9,
              "duration": 0.10416666666666667
            },
            {
              "pitch": 59,
              "velocity": 55,
              "position": 9,
              "duration": 0.10416666666666667
            },
            {
              "pitch": 60,
              "velocity": 55,
              "position": 9.010416666666666,
              "duration": 0.10416666666666667
            },
            {
              "pitch": 64,
              "velocity": 55,
              "position": 9.020833333333334,
              "duration": 0.10416666666666667
            },
            {
              "pitch": 55,
              "velocity": 55,
              "position": 11,
              "duration": 0.10416666666666667
            },
            {
              "pitch": 59,
              "velocity": 55,
              "position": 11,
              "duration": 0.10416666666666667
            },
            {
              "pitch": 60,
              "velocity": 55,
              "position": 11.010416666666666,
              "duration": 0.10416666666666667
            },
            {
              "pitch": 64,
              "velocity": 55,
              "position": 11.020833333333334,
              "duration": 0.10416666666666667
            },
            {
              "pitch": 0,
              "velocity": 87,
              "position": 11.833333333333334,
              "duration": 0.16666666666666666
            },
            {
              "pitch": 48,
              "velocity": 85,
              "position": 12,
              "duration": 0.16666666666666666
            },
            {
              "pitch": 48,
              "velocity": 70,
              "position": 12.333333333333334,
              "duration": 0.15625
            },
            {
              "pitch": 48,
              "velocity": 85,
              "position": 12.5,
              "duration": 0.16666666666666666
            },
            {
              "pitch": 55,
              "velocity": 55,
              "position": 13,
              "duration": 0.10416666666666667
            },
            {
              "pitch": 59,
              "velocity": 55,
              "position": 13,
              "duration": 0.10416666666666667
            },
            {
              "pitch": 60,
              "velocity": 55,
              "position": 13.010416666666666,
              "duration": 0.10416666666666667
            },
            {
              "pitch": 64,
              "velocity": 55,
              "position": 13.020833333333334,
              "duration": 0.10416666666666667
            },
            {
              "pitch": 55,
              "velocity": 55,
              "position": 15,
              "duration": 0.10416666666666667
            },
            {
              "pitch": 59,
              "velocity": 55,
              "position": 15,
              "duration": 0.10416666666666667
            },
            {
              "pitch": 60,
              "velocity": 55,
              "position": 15.010416666666666,
              "duration": 0.10416666666666667
            },
            {
              "pitch": 64,
              "velocity": 55,
              "position": 15.020833333333334,
              "duration": 0.10416666666666667
            }
          ]
        },
        "13": {
          "ctab": {
            "srcChannel": 13,
            "name": "E.Piano",
            "accType": "PAD",
            "editable": false,
            "mutedNotes": [],
            "mutedChords": [],
            "autoStart": false,
            "sourceChordNote": 0,
            "sourceChordType": "Maj7",
            "ctb2Low": null,
            "ctb2Main": {
              "ntr": "ROOT_FIXED",
              "ntt": "CHORD",
              "bassOn": false,
              "chordRootUpperLimit": 7,
              "noteLowLimit": 0,
              "noteHighLimit": 127,
              "rtr": "PITCH_SHIFT"
            },
            "ctb2High": null
          },
          "notes": [
            {
              "pitch": 55,
              "velocity": 84,
              "position": 0,
              "duration": 7.989583333333333
            },
            {
              "pitch": 64,
              "velocity": 84,
              "position": 0,
              "duration": 7.989583333333333
            },
            {
              "pitch": 59,
              "velocity": 84,
              "position": 0,
              "duration": 7.989583333333333
            },
            {
              "pitch": 55,
              "velocity": 84,
              "position": 8,
              "duration": 7.989583333333333
            },
            {
              "pitch": 64,
              "velocity": 84,
              "position": 8,
              "duration": 7.989583333333333
            },
            {
              "pitch": 59,
              "velocity": 84,
              "position": 8,
              "duration": 7.989583333333333
            }
          ]
        },
        "14": {
          "ctab": {
            "srcChannel": 14,
            "name": "TenorSax",
            "accType": "PHRASE1",
            "editable": false,
            "mutedNotes": [],
            "mutedChords": [],
            "autoStart": false,
            "sourceChordNote": 0,
            "sourceChordType": "Maj7",
            "ctb2Low": null,
            "ctb2Main": {
              "ntr": "ROOT_TRANSPOSITION",
              "ntt": "MELODY",
              "bassOn": false,
              "chordRootUpperLimit": 7,
              "noteLowLimit": 0,
              "noteHighLimit": 127,
              "rtr": "PITCH_SHIFT"
            },
            "ctb2High": null
          },
          "notes": []
        },
        "15": {
          "ctab": {
            "srcChannel": 15,
            "name": "Brass",
            "accType": "PHRASE2",
            "editable": false,
            "mutedNotes": [],
            "mutedChords": [],
            "autoStart": false,
            "sourceChordNote": 0,
            "sourceChordType": "Maj7",
            "ctb2Low": null,
            "ctb2Main": {
              "ntr": "ROOT_FIXED",
              "ntt": "CHORD",
              "bassOn": false,
              "chordRootUpperLimit": 7,
              "noteLowLimit": 0,
              "noteHighLimit": 127,
              "rtr": "PITCH_SHIFT"
            },
            "ctb2High": null
          },
          "notes": []
        }
      }
    },
    "Main_B": {
      "type": "Main_B",
      "sizeInBeats": 16,
      "channels": {
        "2": {
          "ctab": {
            "srcChannel": 2,
            "name": "ClaviBs",
            "accType": "CHORD1",
            "editable": false,
            "mutedNotes": [],
            "mutedChords": [],
            "autoStart": false,
            "sourceChordNote": 0,
            "sourceChordType": "Maj7",
            "ctb2Low": null,
            "ctb2Main": {
              "ntr": "ROOT_TRANSPOSITION",
              "ntt": "MELODY",
              "bassOn": true,
              "chordRootUpperLimit": 8,
              "noteLowLimit": 28,
              "noteHighLimit": 127,
              "rtr": "PITCH_SHIFT_TO_ROOT"
            },
            "ctb2High": null
          },
          "notes": [
            {
              "pitch": 36,
              "velocity": 101,
              "position": 0,
              "duration": 0.4895833333333333
            },
            {
              "pitch": 36,
              "velocity": 104,
              "position": 1.8333333333333333,
              "duration": 0.09375
            },
            {
              "pitch": 36,
              "velocity": 101,
              "position": 4,
              "duration": 0.3229166666666667
            },
            {
              "pitch": 36,
              "velocity": 101,
              "position": 4.333333333333333,
              "duration": 0.15625
            },
            {
              "pitch": 36,
              "velocity": 104,
              "position": 5.833333333333333,
              "duration": 0.09375
            },
            {
              "pitch": 36,
              "velocity": 90,
              "position": 7.833333333333333,
              "duration": 0.052083333333333336
            },
            {
              "pitch": 36,
              "velocity": 99,
              "position": 8,
              "duration": 0.4895833333333333
            },
            {
              "pitch": 36,
              "velocity": 104,
              "position": 9.833333333333334,
              "duration": 0.07291666666666667
            },
            {
              "pitch": 43,
              "velocity": 104,
              "position": 11.833333333333334,
              "duration": 0.07291666666666667
            },
            {
              "pitch": 36,
              "velocity": 60,
              "position": 12.166666666666666,
              "duration": 0.07291666666666667
            },
            {
              "pitch": 36,
              "velocity": 104,
              "position": 13.833333333333334,
              "duration": 0.09375
            },
            {
              "pitch": 36,
              "velocity": 67,
              "position": 14.320833333333333,
              "duration": 0.10208333333333333
            },
            {
              "pitch": 48,
              "velocity": 60,
              "position": 15.666666666666666,
              "duration": 0.07291666666666667
            },
            {
              "pitch": 43,
              "velocity": 90,
              "position": 15.833333333333334,
              "duration": 0.052083333333333336
            }
          ]
        },
        "4": {
          "ctab": {
            "srcChannel": 4,
            "name": "E.P  rt",
            "accType": "PAD",
            "editable": false,
            "mutedNotes": [],
            "mutedChords": [
              "1+2+5",
              "sus4",
              "1+5",
              "1+8",
              "Maj7aug",
              "dim",
              "minMaj7(9)",
              "minMaj7",
              "min6",
              "min",
              "aug",
              "Maj7(9)",
              "Maj7#11",
              "Maj7",
              "Maj6",
              "Maj"
            ],
            "autoStart": false,
            "sourceChordNote": 0,
            "sourceChordType": "Maj7",
            "ctb2Low": null,
            "ctb2Main": {
              "ntr": "ROOT_TRANSPOSITION",
              "ntt": "CHORD",
              "bassOn": false,
              "chordRootUpperLimit": 6,
              "noteLowLimit": 0,
              "noteHighLimit": 127,
              "rtr": "PITCH_SHIFT"
            },
            "ctb2High": null
          },
          "notes": [
            {
              "pitch": 60,
              "velocity": 85,
              "position": 0,
              "duration": 2.9895833333333335
            },
            {
              "pitch": 60,
              "velocity": 85,
              "position": 3,
              "duration": 0.15625
            },
            {
              "pitch": 60,
              "velocity": 85,
              "position": 5,
              "duration": 0.15625
            },
            {
              "pitch": 60,
              "velocity": 85,
              "position": 7,
              "duration": 0.9895833333333334
            },
            {
              "pitch": 60,
              "velocity": 85,
              "position": 8,
              "duration": 2.9895833333333335
            },
            {
              "pitch": 60,
              "velocity": 85,
              "position": 11,
              "duration": 0.15625
            },
            {
              "pitch": 60,
              "velocity": 85,
              "position": 13,
              "duration": 0.15625
            },
            {
              "pitch": 60,
              "velocity": 85,
              "position": 14,
              "duration": 0.4895833333333333
            },
            {
              "pitch": 60,
              "velocity": 85,
              "position": 15,
              "duration": 0.4895833333333333
            }
          ]
        },
        "8": {
          "ctab": {
            "srcChannel": 8,
            "name": "AddDrum",
            "accType": "SUBRHYTHM",
            "editable": false,
            "mutedNotes": [],
            "mutedChords": [],
            "autoStart": true,
            "sourceChordNote": 0,
            "sourceChordType": "Maj7",
            "ctb2Low": null,
            "ctb2Main": {
              "ntr": "ROOT_FIXED",
              "ntt": "BYPASS",
              "bassOn": false,
              "chordRootUpperLimit": 6,
              "noteLowLimit": 0,
              "noteHighLimit": 127,
              "rtr": "PITCH_SHIFT"
            },
            "ctb2High": null
          },
          "notes": [
            {
              "pitch": 69,
              "velocity": 41,
              "position": 0,
              "duration": 0.010416666666666666
            },
            {
              "pitch": 69,
              "velocity": 64,
              "position": 0.5,
              "duration": 0.010416666666666666
            },
            {
              "pitch": 54,
              "velocity": 80,
              "position": 1,
              "duration": 0.010416666666666666
            },
            {
              "pitch": 69,
              "velocity": 41,
              "position": 1,
              "duration": 0.010416666666666666
            },
            {
              "pitch": 69,
              "velocity": 64,
              "position": 1.5,
              "duration": 0.010416666666666666
            },
            {
              "pitch": 69,
              "velocity": 41,
              "position": 2,
              "duration": 0.010416666666666666
            },
            {
              "pitch": 69,
              "velocity": 64,
              "position": 2.5,
              "duration": 0.010416666666666666
            },
            {
              "pitch": 54,
              "velocity": 80,
              "position": 3,
              "duration": 0.010416666666666666
            },
            {
              "pitch": 69,
              "velocity": 41,
              "position": 3,
              "duration": 0.010416666666666666
            },
            {
              "pitch": 69,
              "velocity": 64,
              "position": 3.5,
              "duration": 0.010416666666666666
            },
            {
              "pitch": 69,
              "velocity": 33,
              "position": 3.8333333333333335,
              "duration": 0.010416666666666666
            },
            {
              "pitch": 69,
              "velocity": 41,
              "position": 4,
              "duration": 0.010416666666666666
            },
            {
              "pitch": 69,
              "velocity": 64,
              "position": 4.5,
              "duration": 0.010416666666666666
            },
            {
              "pitch": 54,
              "velocity": 80,
              "position": 5,
              "duration": 0.010416666666666666
            },
            {
              "pitch": 69,
              "velocity": 41,
              "position": 5,
              "duration": 0.010416666666666666
            },
            {
              "pitch": 69,
              "velocity": 64,
              "position": 5.5,
              "duration": 0.010416666666666666
            },
            {
              "pitch": 69,
              "velocity": 41,
              "position": 6,
              "duration": 0.010416666666666666
            },
            {
              "pitch": 69,
              "velocity": 64,
              "position": 6.5,
              "duration": 0.010416666666666666
            },
            {
              "pitch": 54,
              "velocity": 80,
              "position": 7,
              "duration": 0.010416666666666666
            },
            {
              "pitch": 69,
              "velocity": 41,
              "position": 7,
              "duration": 0.010416666666666666
            },
            {
              "pitch": 69,
              "velocity": 64,
              "position": 7.5,
              "duration": 0.010416666666666666
            },
            {
              "pitch": 69,
              "velocity": 33,
              "position": 7.833333333333333,
              "duration": 0.010416666666666666
            },
            {
              "pitch": 69,
              "velocity": 41,
              "position": 8,
              "duration": 0.010416666666666666
            },
            {
              "pitch": 69,
              "velocity": 64,
              "position": 8.5,
              "duration": 0.010416666666666666
            },
            {
              "pitch": 54,
              "velocity": 80,
              "position": 9,
              "duration": 0.010416666666666666
            },
            {
              "pitch": 69,
              "velocity": 41,
              "position": 9,
              "duration": 0.010416666666666666
            },
            {
              "pitch": 69,
              "velocity": 64,
              "position": 9.5,
              "duration": 0.010416666666666666
            },
            {
              "pitch": 69,
              "velocity": 41,
              "position": 10,
              "duration": 0.010416666666666666
            },
            {
              "pitch": 69,
              "velocity": 64,
              "position": 10.5,
              "duration": 0.010416666666666666
            },
            {
              "pitch": 54,
              "velocity": 80,
              "position": 11,
              "duration": 0.010416666666666666
            },
            {
              "pitch": 69,
              "velocity": 41,
              "position": 11,
              "duration": 0.010416666666666666
            },
            {
              "pitch": 69,
              "velocity": 64,
              "position": 11.5,
              "duration": 0.010416666666666666
            },
            {
              "pitch": 69,
              "velocity": 33,
              "position": 11.833333333333334,
              "duration": 0.010416666666666666
            },
            {
              "pitch": 69,
              "velocity": 41,
              "position": 12,
              "duration": 0.010416666666666666
            },
            {
              "pitch": 69,
              "velocity": 64,
              "position": 12.5,
              "duration": 0.010416666666666666
            },
            {
              "pitch": 54,
              "velocity": 80,
              "position": 13,
              "duration": 0.010416666666666666
            },
            {
              "pitch": 69,
              "velocity": 41,
              "position": 13,
              "duration": 0.010416666666666666
            },
            {
              "pitch": 69,
              "velocity": 64,
              "position": 13.5,
              "duration": 0.010416666666666666
            },
            {
              "pitch": 69,
              "velocity": 41,
              "position": 14,
              "duration": 0.010416666666666666
            },
            {
              "pitch": 69,
              "velocity": 64,
              "position": 14.5,
              "duration": 0.010416666666666666
            },
            {
              "pitch": 54,
              "velocity": 80,
              "position": 15,
              "duration": 0.010416666666666666
            },
            {
              "pitch": 69,
              "velocity": 41,
              "position": 15,
              "duration": 0.010416666666666666
            },
            {
              "pitch": 69,
              "velocity": 64,
              "position": 15.5,
              "duration": 0.010416666666666666
            },
            {
              "pitch": 69,
              "velocity": 33,
              "position": 15.833333333333334,
              "duration": 0.010416666666666666
            }
          ]
        },
        "9": {
          "ctab": {
            "srcChannel": 9,
            "name": "MainDrum",
            "accType": "RHYTHM",
            "editable": false,
            "mutedNotes": [],
            "mutedChords": [],
            "autoStart": true,
            "sourceChordNote": 0,
            "sourceChordType": "Maj7",
            "ctb2Low": null,
            "ctb2Main": {
              "ntr": "ROOT_FIXED",
              "ntt": "BYPASS",
              "bassOn": false,
              "chordRootUpperLimit": 6,
              "noteLowLimit": 0,
              "noteHighLimit": 127,
              "rtr": "PITCH_SHIFT"
            },
            "ctb2High": null
          },
          "notes": [
            {
              "pitch": 35,
              "velocity": 90,
              "position": 0,
              "duration": 0.010416666666666666
            },
            {
              "pitch": 42,
              "velocity": 116,
              "position": 0,
              "duration": 0.010416666666666666
            },
            {
              "pitch": 42,
              "velocity": 88,
              "position": 0.5,
              "duration": 0.010416666666666666
            },
            {
              "pitch": 40,
              "velocity": 114,
              "position": 1,
              "duration": 0.010416666666666666
            },
            {
              "pitch": 42,
              "velocity": 116,
              "position": 1,
              "duration": 0.010416666666666666
            },
            {
              "pitch": 42,
              "velocity": 94,
              "position": 1.5,
              "duration": 0.010416666666666666
            },
            {
              "pitch": 35,
              "velocity": 66,
              "position": 1.8333333333333333,
              "duration": 0.010416666666666666
            },
            {
              "pitch": 42,
              "velocity": 54,
              "position": 1.8333333333333333,
              "duration": 0.010416666666666666
            },
            {
              "pitch": 35,
              "velocity": 95,
              "position": 2,
              "duration": 0.010416666666666666
            },
            {
              "pitch": 42,
              "velocity": 116,
              "position": 2,
              "duration": 0.010416666666666666
            },
            {
              "pitch": 42,
              "velocity": 85,
              "position": 2.5,
              "duration": 0.010416666666666666
            },
            {
              "pitch": 40,
              "velocity": 114,
              "position": 3,
              "duration": 0.010416666666666666
            },
            {
              "pitch": 42,
              "velocity": 116,
              "position": 3,
              "duration": 0.010416666666666666
            },
            {
              "pitch": 42,
              "velocity": 38,
              "position": 3.3333333333333335,
              "duration": 0.010416666666666666
            },
            {
              "pitch": 46,
              "velocity": 84,
              "position": 3.5,
              "duration": 0.010416666666666666
            },
            {
              "pitch": 35,
              "velocity": 90,
              "position": 4,
              "duration": 0.010416666666666666
            },
            {
              "pitch": 42,
              "velocity": 116,
              "position": 4,
              "duration": 0.010416666666666666
            },
            {
              "pitch": 42,
              "velocity": 88,
              "position": 4.5,
              "duration": 0.010416666666666666
            },
            {
              "pitch": 40,
              "velocity": 114,
              "position": 5,
              "duration": 0.010416666666666666
            },
            {
              "pitch": 42,
              "velocity": 116,
              "position": 5,
              "duration": 0.010416666666666666
            },
            {
              "pitch": 42,
              "velocity": 94,
              "position": 5.5,
              "duration": 0.010416666666666666
            },
            {
              "pitch": 35,
              "velocity": 40,
              "position": 5.833333333333333,
              "duration": 0.010416666666666666
            },
            {
              "pitch": 42,
              "velocity": 54,
              "position": 5.833333333333333,
              "duration": 0.010416666666666666
            },
            {
              "pitch": 35,
              "velocity": 95,
              "position": 6,
              "duration": 0.010416666666666666
            },
            {
              "pitch": 42,
              "velocity": 116,
              "position": 6,
              "duration": 0.010416666666666666
            },
            {
              "pitch": 42,
              "velocity": 48,
              "position": 6.333333333333333,
              "duration": 0.010416666666666666
            },
            {
              "pitch": 35,
              "velocity": 95,
              "position": 6.5,
              "duration": 0.010416666666666666
            },
            {
              "pitch": 42,
              "velocity": 116,
              "position": 6.5,
              "duration": 0.010416666666666666
            },
            {
              "pitch": 40,
              "velocity": 114,
              "position": 7,
              "duration": 0.010416666666666666
            },
            {
              "pitch": 42,
              "velocity": 116,
              "position": 7,
              "duration": 0.010416666666666666
            },
            {
              "pitch": 35,
              "velocity": 95,
              "position": 7.333333333333333,
              "duration": 0.010416666666666666
            },
            {
              "pitch": 42,
              "velocity": 31,
              "position": 7.333333333333333,
              "duration": 0.010416666666666666
            },
            {
              "pitch": 46,
              "velocity": 84,
              "position": 7.5,
              "duration": 0.010416666666666666
            },
            {
              "pitch": 40,
              "velocity": 62,
              "position": 7.833333333333333,
              "duration": 0.010416666666666666
            },
            {
              "pitch": 35,
              "velocity": 90,
              "position": 8,
              "duration": 0.010416666666666666
            },
            {
              "pitch": 42,
              "velocity": 116,
              "position": 8,
              "duration": 0.010416666666666666
            },
            {
              "pitch": 42,
              "velocity": 88,
              "position": 8.5,
              "duration": 0.010416666666666666
            },
            {
              "pitch": 40,
              "velocity": 114,
              "position": 9,
              "duration": 0.010416666666666666
            },
            {
              "pitch": 42,
              "velocity": 116,
              "position": 9,
              "duration": 0.010416666666666666
            },
            {
              "pitch": 42,
              "velocity": 94,
              "position": 9.5,
              "duration": 0.010416666666666666
            },
            {
              "pitch": 42,
              "velocity": 54,
              "position": 9.833333333333334,
              "duration": 0.010416666666666666
            },
            {
              "pitch": 35,
              "velocity": 90,
              "position": 10,
              "duration": 0.010416666666666666
            },
            {
              "pitch": 42,
              "velocity": 116,
              "position": 10,
              "duration": 0.010416666666666666
            },
            {
              "pitch": 42,
              "velocity": 85,
              "position": 10.5,
              "duration": 0.010416666666666666
            },
            {
              "pitch": 40,
              "velocity": 114,
              "position": 11,
              "duration": 0.010416666666666666
            },
            {
              "pitch": 42,
              "velocity": 116,
              "position": 11,
              "duration": 0.010416666666666666
            },
            {
              "pitch": 42,
              "velocity": 90,
              "position": 11.5,
              "duration": 0.010416666666666666
            },
            {
              "pitch": 35,
              "velocity": 42,
              "position": 11.833333333333334,
              "duration": 0.010416666666666666
            },
            {
              "pitch": 42,
              "velocity": 51,
              "position": 11.833333333333334,
              "duration": 0.010416666666666666
            },
            {
              "pitch": 35,
              "velocity": 90,
              "position": 12,
              "duration": 0.010416666666666666
            },
            {
              "pitch": 42,
              "velocity": 116,
              "position": 12,
              "duration": 0.010416666666666666
            },
            {
              "pitch": 35,
              "velocity": 95,
              "position": 12.5,
              "duration": 0.010416666666666666
            },
            {
              "pitch": 42,
              "velocity": 88,
              "position": 12.5,
              "duration": 0.010416666666666666
            },
            {
              "pitch": 40,
              "velocity": 114,
              "position": 13,
              "duration": 0.010416666666666666
            },
            {
              "pitch": 42,
              "velocity": 116,
              "position": 13,
              "duration": 0.010416666666666666
            },
            {
              "pitch": 42,
              "velocity": 94,
              "position": 13.5,
              "duration": 0.010416666666666666
            },
            {
              "pitch": 35,
              "velocity": 54,
              "position": 13.833333333333334,
              "duration": 0.010416666666666666
            },
            {
              "pitch": 42,
              "velocity": 54,
              "position": 13.833333333333334,
              "duration": 0.010416666666666666
            },
            {
              "pitch": 35,
              "velocity": 95,
              "position": 14,
              "duration": 0.010416666666666666
            },
            {
              "pitch": 42,
              "velocity": 116,
              "position": 14,
              "duration": 0.010416666666666666
            },
            {
              "pitch": 35,
              "velocity": 95,
              "position": 14.5,
              "duration": 0.010416666666666666
            },
            {
              "pitch": 42,
              "velocity": 85,
              "position": 14.5,
              "duration": 0.010416666666666666
            },
            {
              "pitch": 40,
              "velocity": 114,
              "position": 15,
              "duration": 0.010416666666666666
            },
            {
              "pitch": 42,
              "velocity": 116,
              "position": 15,
              "duration": 0.010416666666666666
            },
            {
              "pitch": 35,
              "velocity": 48,
              "position": 15.333333333333334,
              "duration": 0.010416666666666666
            },
            {
              "pitch": 42,
              "velocity": 27,
              "position": 15.333333333333334,
              "duration": 0.010416666666666666
            },
            {
              "pitch": 35,
              "velocity": 95,
              "position": 15.5,
              "duration": 0.010416666666666666
            },
            {
              "pitch": 42,
              "velocity": 90,
              "position": 15.5,
              "duration": 0.010416666666666666
            },
            {
              "pitch": 42,
              "velocity": 51,
              "position": 15.833333333333334,
              "duration": 0.010416666666666666
            }
          ]
        },
        "10": {
          "ctab": {
            "srcChannel": 10,
            "name": "Bass",
            "accType": "BASS",
            "editable": false,
            "mutedNotes": [],
            "mutedChords": [],
            "autoStart": false,
            "sourceChordNote": 0,
            "sourceChordType": "Maj7",
            "ctb2Low": null,
            "ctb2Main": {
              "ntr": "ROOT_TRANSPOSITION",
              "ntt": "MELODY",
              "bassOn": true,
              "chordRootUpperLimit": 8,
              "noteLowLimit": 28,
              "noteHighLimit": 127,
              "rtr": "PITCH_SHIFT_TO_ROOT"
            },
            "ctb2High": null
          },
          "notes": [
            {
              "pitch": 24,
              "velocity": 70,
              "position": 0,
              "duration": 0.48125
            },
            {
              "pitch": 24,
              "velocity": 111,
              "position": 0.5,
              "duration": 0.3145833333333333
            },
            {
              "pitch": 36,
              "velocity": 111,
              "position": 1,
              "duration": 0.3145833333333333
            },
            {
              "pitch": 24,
              "velocity": 46,
              "position": 1.8333333333333333,
              "duration": 0.14791666666666667
            },
            {
              "pitch": 24,
              "velocity": 70,
              "position": 2,
              "duration": 0.48125
            },
            {
              "pitch": 24,
              "velocity": 111,
              "position": 2.5,
              "duration": 0.3145833333333333
            },
            {
              "pitch": 36,
              "velocity": 112,
              "position": 3,
              "duration": 0.3145833333333333
            },
            {
              "pitch": 24,
              "velocity": 70,
              "position": 4,
              "duration": 0.48125
            },
            {
              "pitch": 24,
              "velocity": 111,
              "position": 4.5,
              "duration": 0.3145833333333333
            },
            {
              "pitch": 36,
              "velocity": 111,
              "position": 5,
              "duration": 0.3145833333333333
            },
            {
              "pitch": 24,
              "velocity": 46,
              "position": 5.833333333333333,
              "duration": 0.14791666666666667
            },
            {
              "pitch": 24,
              "velocity": 70,
              "position": 6,
              "duration": 0.48125
            },
            {
              "pitch": 24,
              "velocity": 70,
              "position": 6.5,
              "duration": 0.5
            },
            {
              "pitch": 31,
              "velocity": 70,
              "position": 7,
              "duration": 0.14791666666666667
            },
            {
              "pitch": 28,
              "velocity": 70,
              "position": 7.333333333333333,
              "duration": 0.6479166666666667
            },
            {
              "pitch": 24,
              "velocity": 70,
              "position": 8,
              "duration": 0.48125
            },
            {
              "pitch": 24,
              "velocity": 111,
              "position": 8.5,
              "duration": 0.3145833333333333
            },
            {
              "pitch": 36,
              "velocity": 111,
              "position": 9,
              "duration": 0.3145833333333333
            },
            {
              "pitch": 24,
              "velocity": 46,
              "position": 9.833333333333334,
              "duration": 0.14791666666666667
            },
            {
              "pitch": 24,
              "velocity": 70,
              "position": 10,
              "duration": 0.48125
            },
            {
              "pitch": 24,
              "velocity": 111,
              "position": 10.5,
              "duration": 0.3145833333333333
            },
            {
              "pitch": 36,
              "velocity": 112,
              "position": 11,
              "duration": 0.3145833333333333
            },
            {
              "pitch": 31,
              "velocity": 110,
              "position": 11.833333333333334,
              "duration": 0.16666666666666666
            },
            {
              "pitch": 24,
              "velocity": 70,
              "position": 12,
              "duration": 0.48125
            },
            {
              "pitch": 24,
              "velocity": 71,
              "position": 12.5,
              "duration": 0.3145833333333333
            },
            {
              "pitch": 36,
              "velocity": 111,
              "position": 13,
              "duration": 0.3145833333333333
            },
            {
              "pitch": 24,
              "velocity": 46,
              "position": 13.833333333333334,
              "duration": 0.14791666666666667
            },
            {
              "pitch": 24,
              "velocity": 70,
              "position": 14,
              "duration": 0.48125
            },
            {
              "pitch": 24,
              "velocity": 111,
              "position": 14.5,
              "duration": 0.3145833333333333
            },
            {
              "pitch": 28,
              "velocity": 70,
              "position": 15,
              "duration": 0.3145833333333333
            },
            {
              "pitch": 28,
              "velocity": 111,
              "position": 15.333333333333334,
              "duration": 0.14791666666666667
            },
            {
              "pitch": 31,
              "velocity": 70,
              "position": 15.5,
              "duration": 0.48125
            }
          ]
        },
        "11": {
          "ctab": {
            "srcChannel": 11,
            "name": "Clavi",
            "accType": "CHORD1",
            "editable": false,
            "mutedNotes": [],
            "mutedChords": [],
            "autoStart": false,
            "sourceChordNote": 0,
            "sourceChordType": "Maj7",
            "ctb2Low": null,
            "ctb2Main": {
              "ntr": "ROOT_TRANSPOSITION",
              "ntt": "CHORD",
              "bassOn": false,
              "chordRootUpperLimit": 7,
              "noteLowLimit": 0,
              "noteHighLimit": 127,
              "rtr": "PITCH_SHIFT"
            },
            "ctb2High": null
          },
          "notes": [
            {
              "pitch": 52,
              "velocity": 55,
              "position": 0,
              "duration": 0.3125
            },
            {
              "pitch": 59,
              "velocity": 55,
              "position": 0,
              "duration": 0.3125
            },
            {
              "pitch": 55,
              "velocity": 55,
              "position": 0,
              "duration": 0.3125
            },
            {
              "pitch": 52,
              "velocity": 85,
              "position": 0.3333333333333333,
              "duration": 0.14583333333333334
            },
            {
              "pitch": 59,
              "velocity": 85,
              "position": 0.3333333333333333,
              "duration": 0.14583333333333334
            },
            {
              "pitch": 55,
              "velocity": 85,
              "position": 0.3333333333333333,
              "duration": 0.14583333333333334
            },
            {
              "pitch": 47,
              "velocity": 110,
              "position": 0.5,
              "duration": 0.3125
            },
            {
              "pitch": 48,
              "velocity": 110,
              "position": 1,
              "duration": 0.3125
            },
            {
              "pitch": 47,
              "velocity": 110,
              "position": 1.5,
              "duration": 0.3125
            },
            {
              "pitch": 52,
              "velocity": 110,
              "position": 2,
              "duration": 0.3125
            },
            {
              "pitch": 47,
              "velocity": 110,
              "position": 2.8125,
              "duration": 0.1875
            },
            {
              "pitch": 48,
              "velocity": 110,
              "position": 3.5,
              "duration": 0.3125
            },
            {
              "pitch": 48,
              "velocity": 67,
              "position": 4.333333333333333,
              "duration": 0.0625
            },
            {
              "pitch": 47,
              "velocity": 110,
              "position": 4.5,
              "duration": 0.3125
            },
            {
              "pitch": 48,
              "velocity": 110,
              "position": 5,
              "duration": 0.3125
            },
            {
              "pitch": 47,
              "velocity": 110,
              "position": 5.5,
              "duration": 0.21875
            },
            {
              "pitch": 52,
              "velocity": 110,
              "position": 6,
              "duration": 0.3125
            },
            {
              "pitch": 47,
              "velocity": 110,
              "position": 6.845833333333333,
              "duration": 0.1875
            },
            {
              "pitch": 47,
              "velocity": 73,
              "position": 7.270833333333333,
              "duration": 0.0625
            },
            {
              "pitch": 48,
              "velocity": 110,
              "position": 7.5,
              "duration": 0.3125
            },
            {
              "pitch": 52,
              "velocity": 55,
              "position": 8,
              "duration": 0.3125
            },
            {
              "pitch": 59,
              "velocity": 55,
              "position": 8,
              "duration": 0.3125
            },
            {
              "pitch": 55,
              "velocity": 55,
              "position": 8,
              "duration": 0.3125
            },
            {
              "pitch": 52,
              "velocity": 85,
              "position": 8.333333333333334,
              "duration": 0.14583333333333334
            },
            {
              "pitch": 59,
              "velocity": 85,
              "position": 8.333333333333334,
              "duration": 0.14583333333333334
            },
            {
              "pitch": 55,
              "velocity": 85,
              "position": 8.333333333333334,
              "duration": 0.14583333333333334
            },
            {
              "pitch": 47,
              "velocity": 110,
              "position": 8.5,
              "duration": 0.3125
            },
            {
              "pitch": 48,
              "velocity": 110,
              "position": 9,
              "duration": 0.3125
            },
            {
              "pitch": 47,
              "velocity": 110,
              "position": 9.5,
              "duration": 0.3125
            },
            {
              "pitch": 52,
              "velocity": 110,
              "position": 10,
              "duration": 0.3125
            },
            {
              "pitch": 47,
              "velocity": 110,
              "position": 10.8125,
              "duration": 0.1875
            },
            {
              "pitch": 48,
              "velocity": 110,
              "position": 11.5,
              "duration": 0.3125
            },
            {
              "pitch": 52,
              "velocity": 90,
              "position": 12.333333333333334,
              "duration": 0.08333333333333333
            },
            {
              "pitch": 59,
              "velocity": 90,
              "position": 12.333333333333334,
              "duration": 0.08333333333333333
            },
            {
              "pitch": 55,
              "velocity": 90,
              "position": 12.333333333333334,
              "duration": 0.08333333333333333
            },
            {
              "pitch": 47,
              "velocity": 110,
              "position": 12.5,
              "duration": 0.3125
            },
            {
              "pitch": 48,
              "velocity": 110,
              "position": 13,
              "duration": 0.3125
            },
            {
              "pitch": 52,
              "velocity": 110,
              "position": 14,
              "duration": 0.3125
            },
            {
              "pitch": 47,
              "velocity": 110,
              "position": 14.845833333333333,
              "duration": 0.1875
            },
            {
              "pitch": 47,
              "velocity": 73,
              "position": 15.3125,
              "duration": 0.0625
            },
            {
              "pitch": 48,
              "velocity": 110,
              "position": 15.5,
              "duration": 0.3125
            }
          ]
        },
        "12": {
          "ctab": {
            "srcChannel": 12,
            "name": "SolidGtr",
            "accType": "CHORD2",
            "editable": false,
            "mutedNotes": [],
            "mutedChords": [],
            "autoStart": false,
            "sourceChordNote": 0,
            "sourceChordType": "Maj7",
            "ctb2Low": null,
            "ctb2Main": {
              "ntr": "ROOT_TRANSPOSITION",
              "ntt": "CHORD",
              "bassOn": true,
              "chordRootUpperLimit": 7,
              "noteLowLimit": 0,
              "noteHighLimit": 127,
              "rtr": "PITCH_SHIFT"
            },
            "ctb2High": null
          },
          "notes": [
            {
              "pitch": 48,
              "velocity": 77,
              "position": 0,
              "duration": 0.03125
            },
            {
              "pitch": 55,
              "velocity": 82,
              "position": 0,
              "duration": 0.03125
            },
            {
              "pitch": 59,
              "velocity": 82,
              "position": 0,
              "duration": 0.03125
            },
            {
              "pitch": 60,
              "velocity": 82,
              "position": 0.010416666666666666,
              "duration": 0.03333333333333333
            },
            {
              "pitch": 64,
              "velocity": 82,
              "position": 0.020833333333333332,
              "duration": 0.052083333333333336
            },
            {
              "pitch": 60,
              "velocity": 68,
              "position": 0.34375,
              "duration": 0.1375
            },
            {
              "pitch": 55,
              "velocity": 68,
              "position": 0.3541666666666667,
              "duration": 0.13541666666666666
            },
            {
              "pitch": 59,
              "velocity": 68,
              "position": 0.3541666666666667,
              "duration": 0.13541666666666666
            },
            {
              "pitch": 48,
              "velocity": 63,
              "position": 0.3541666666666667,
              "duration": 0.13541666666666666
            },
            {
              "pitch": 64,
              "velocity": 68,
              "position": 0.3333333333333333,
              "duration": 0.15625
            },
            {
              "pitch": 64,
              "velocity": 40,
              "position": 0.5208333333333334,
              "duration": 0.2916666666666667
            },
            {
              "pitch": 60,
              "velocity": 40,
              "position": 0.5104166666666666,
              "duration": 0.3020833333333333
            },
            {
              "pitch": 48,
              "velocity": 35,
              "position": 0.5,
              "duration": 0.3125
            },
            {
              "pitch": 55,
              "velocity": 40,
              "position": 0.5,
              "duration": 0.3125
            },
            {
              "pitch": 59,
              "velocity": 40,
              "position": 0.5,
              "duration": 0.3125
            },
            {
              "pitch": 60,
              "velocity": 55,
              "position": 0.84375,
              "duration": 0.1375
            },
            {
              "pitch": 55,
              "velocity": 55,
              "position": 0.8541666666666666,
              "duration": 0.13541666666666666
            },
            {
              "pitch": 59,
              "velocity": 55,
              "position": 0.8541666666666666,
              "duration": 0.13541666666666666
            },
            {
              "pitch": 48,
              "velocity": 50,
              "position": 0.8541666666666666,
              "duration": 0.13541666666666666
            },
            {
              "pitch": 64,
              "velocity": 55,
              "position": 0.8333333333333334,
              "duration": 0.15625
            },
            {
              "pitch": 48,
              "velocity": 67,
              "position": 1,
              "duration": 0.03125
            },
            {
              "pitch": 55,
              "velocity": 72,
              "position": 1,
              "duration": 0.03125
            },
            {
              "pitch": 59,
              "velocity": 72,
              "position": 1,
              "duration": 0.03125
            },
            {
              "pitch": 60,
              "velocity": 72,
              "position": 1.0104166666666667,
              "duration": 0.03333333333333333
            },
            {
              "pitch": 64,
              "velocity": 72,
              "position": 1.0208333333333333,
              "duration": 0.052083333333333336
            },
            {
              "pitch": 60,
              "velocity": 55,
              "position": 1.34375,
              "duration": 0.13541666666666666
            },
            {
              "pitch": 55,
              "velocity": 55,
              "position": 1.3541666666666667,
              "duration": 0.12708333333333333
            },
            {
              "pitch": 59,
              "velocity": 55,
              "position": 1.3541666666666667,
              "duration": 0.12708333333333333
            },
            {
              "pitch": 48,
              "velocity": 50,
              "position": 1.3541666666666667,
              "duration": 0.12708333333333333
            },
            {
              "pitch": 64,
              "velocity": 55,
              "position": 1.3333333333333333,
              "duration": 0.14791666666666667
            },
            {
              "pitch": 60,
              "velocity": 82,
              "position": 1.5,
              "duration": 0.03333333333333333
            },
            {
              "pitch": 55,
              "velocity": 82,
              "position": 1.5104166666666667,
              "duration": 0.03125
            },
            {
              "pitch": 59,
              "velocity": 82,
              "position": 1.5104166666666667,
              "duration": 0.03125
            },
            {
              "pitch": 48,
              "velocity": 77,
              "position": 1.5104166666666667,
              "duration": 0.03125
            },
            {
              "pitch": 64,
              "velocity": 82,
              "position": 1.5104166666666667,
              "duration": 0.052083333333333336
            },
            {
              "pitch": 60,
              "velocity": 68,
              "position": 1.84375,
              "duration": 0.1375
            },
            {
              "pitch": 55,
              "velocity": 68,
              "position": 1.8541666666666667,
              "duration": 0.13541666666666666
            },
            {
              "pitch": 59,
              "velocity": 68,
              "position": 1.8541666666666667,
              "duration": 0.13541666666666666
            },
            {
              "pitch": 48,
              "velocity": 63,
              "position": 1.8541666666666667,
              "duration": 0.13541666666666666
            },
            {
              "pitch": 64,
              "velocity": 68,
              "position": 1.8333333333333333,
              "duration": 0.15625
            },
            {
              "pitch": 60,
              "velocity": 55,
              "position": 2.0104166666666665,
              "duration": 0.14791666666666667
            },
            {
              "pitch": 55,
              "velocity": 55,
              "position": 2,
              "duration": 0.16666666666666666
            },
            {
              "pitch": 59,
              "velocity": 55,
              "position": 2,
              "duration": 0.16666666666666666
            },
            {
              "pitch": 48,
              "velocity": 50,
              "position": 2,
              "duration": 0.16666666666666666
            },
            {
              "pitch": 64,
              "velocity": 55,
              "position": 2.0208333333333335,
              "duration": 0.14583333333333334
            },
            {
              "pitch": 60,
              "velocity": 82,
              "position": 2.5,
              "duration": 0.03333333333333333
            },
            {
              "pitch": 55,
              "velocity": 82,
              "position": 2.5104166666666665,
              "duration": 0.03125
            },
            {
              "pitch": 59,
              "velocity": 82,
              "position": 2.5104166666666665,
              "duration": 0.03125
            },
            {
              "pitch": 48,
              "velocity": 77,
              "position": 2.5104166666666665,
              "duration": 0.03125
            },
            {
              "pitch": 64,
              "velocity": 82,
              "position": 2.5104166666666665,
              "duration": 0.052083333333333336
            },
            {
              "pitch": 60,
              "velocity": 55,
              "position": 2.84375,
              "duration": 0.1375
            },
            {
              "pitch": 55,
              "velocity": 55,
              "position": 2.8541666666666665,
              "duration": 0.13541666666666666
            },
            {
              "pitch": 59,
              "velocity": 55,
              "position": 2.8541666666666665,
              "duration": 0.13541666666666666
            },
            {
              "pitch": 48,
              "velocity": 50,
              "position": 2.8541666666666665,
              "duration": 0.13541666666666666
            },
            {
              "pitch": 64,
              "velocity": 55,
              "position": 2.8333333333333335,
              "duration": 0.15625
            },
            {
              "pitch": 60,
              "velocity": 82,
              "position": 3,
              "duration": 0.03333333333333333
            },
            {
              "pitch": 55,
              "velocity": 82,
              "position": 3.0104166666666665,
              "duration": 0.03125
            },
            {
              "pitch": 59,
              "velocity": 82,
              "position": 3.0104166666666665,
              "duration": 0.03125
            },
            {
              "pitch": 48,
              "velocity": 77,
              "position": 3.0104166666666665,
              "duration": 0.03125
            },
            {
              "pitch": 64,
              "velocity": 82,
              "position": 3.0104166666666665,
              "duration": 0.052083333333333336
            },
            {
              "pitch": 60,
              "velocity": 68,
              "position": 3.34375,
              "duration": 0.1375
            },
            {
              "pitch": 55,
              "velocity": 68,
              "position": 3.3541666666666665,
              "duration": 0.13541666666666666
            },
            {
              "pitch": 59,
              "velocity": 68,
              "position": 3.3541666666666665,
              "duration": 0.13541666666666666
            },
            {
              "pitch": 48,
              "velocity": 63,
              "position": 3.3541666666666665,
              "duration": 0.13541666666666666
            },
            {
              "pitch": 64,
              "velocity": 68,
              "position": 3.3333333333333335,
              "duration": 0.15625
            },
            {
              "pitch": 60,
              "velocity": 116,
              "position": 3.5104166666666665,
              "duration": 0.8041666666666667
            },
            {
              "pitch": 55,
              "velocity": 116,
              "position": 3.5,
              "duration": 0.8229166666666666
            },
            {
              "pitch": 59,
              "velocity": 116,
              "position": 3.5,
              "duration": 0.8229166666666666
            },
            {
              "pitch": 48,
              "velocity": 111,
              "position": 3.5,
              "duration": 0.8229166666666666
            },
            {
              "pitch": 64,
              "velocity": 118,
              "position": 3.5208333333333335,
              "duration": 0.8020833333333334
            },
            {
              "pitch": 60,
              "velocity": 68,
              "position": 4.34375,
              "duration": 0.1375
            },
            {
              "pitch": 55,
              "velocity": 68,
              "position": 4.354166666666667,
              "duration": 0.13541666666666666
            },
            {
              "pitch": 59,
              "velocity": 68,
              "position": 4.354166666666667,
              "duration": 0.13541666666666666
            },
            {
              "pitch": 48,
              "velocity": 63,
              "position": 4.354166666666667,
              "duration": 0.13541666666666666
            },
            {
              "pitch": 64,
              "velocity": 68,
              "position": 4.333333333333333,
              "duration": 0.15625
            },
            {
              "pitch": 64,
              "velocity": 40,
              "position": 4.520833333333333,
              "duration": 0.2916666666666667
            },
            {
              "pitch": 60,
              "velocity": 40,
              "position": 4.510416666666667,
              "duration": 0.3020833333333333
            },
            {
              "pitch": 48,
              "velocity": 35,
              "position": 4.5,
              "duration": 0.3125
            },
            {
              "pitch": 55,
              "velocity": 40,
              "position": 4.5,
              "duration": 0.3125
            },
            {
              "pitch": 59,
              "velocity": 40,
              "position": 4.5,
              "duration": 0.3125
            },
            {
              "pitch": 60,
              "velocity": 55,
              "position": 4.84375,
              "duration": 0.14583333333333334
            },
            {
              "pitch": 48,
              "velocity": 50,
              "position": 4.854166666666667,
              "duration": 0.14583333333333334
            },
            {
              "pitch": 55,
              "velocity": 55,
              "position": 4.854166666666667,
              "duration": 0.14583333333333334
            },
            {
              "pitch": 59,
              "velocity": 55,
              "position": 4.854166666666667,
              "duration": 0.14583333333333334
            },
            {
              "pitch": 64,
              "velocity": 55,
              "position": 4.833333333333333,
              "duration": 0.16666666666666666
            },
            {
              "pitch": 60,
              "velocity": 82,
              "position": 5,
              "duration": 0.03333333333333333
            },
            {
              "pitch": 55,
              "velocity": 82,
              "position": 5.010416666666667,
              "duration": 0.03125
            },
            {
              "pitch": 59,
              "velocity": 82,
              "position": 5.010416666666667,
              "duration": 0.03125
            },
            {
              "pitch": 48,
              "velocity": 77,
              "position": 5.010416666666667,
              "duration": 0.03125
            },
            {
              "pitch": 64,
              "velocity": 82,
              "position": 5.010416666666667,
              "duration": 0.052083333333333336
            },
            {
              "pitch": 60,
              "velocity": 55,
              "position": 5.34375,
              "duration": 0.14791666666666667
            },
            {
              "pitch": 48,
              "velocity": 50,
              "position": 5.354166666666667,
              "duration": 0.14583333333333334
            },
            {
              "pitch": 55,
              "velocity": 55,
              "position": 5.354166666666667,
              "duration": 0.14583333333333334
            },
            {
              "pitch": 59,
              "velocity": 55,
              "position": 5.354166666666667,
              "duration": 0.14583333333333334
            },
            {
              "pitch": 64,
              "velocity": 55,
              "position": 5.333333333333333,
              "duration": 0.16666666666666666
            },
            {
              "pitch": 60,
              "velocity": 68,
              "position": 5.84375,
              "duration": 0.1375
            },
            {
              "pitch": 55,
              "velocity": 68,
              "position": 5.854166666666667,
              "duration": 0.13541666666666666
            },
            {
              "pitch": 59,
              "velocity": 68,
              "position": 5.854166666666667,
              "duration": 0.13541666666666666
            },
            {
              "pitch": 48,
              "velocity": 63,
              "position": 5.854166666666667,
              "duration": 0.13541666666666666
            },
            {
              "pitch": 64,
              "velocity": 68,
              "position": 5.833333333333333,
              "duration": 0.15625
            },
            {
              "pitch": 60,
              "velocity": 55,
              "position": 6.010416666666667,
              "duration": 0.14791666666666667
            },
            {
              "pitch": 55,
              "velocity": 55,
              "position": 6,
              "duration": 0.16666666666666666
            },
            {
              "pitch": 59,
              "velocity": 55,
              "position": 6,
              "duration": 0.16666666666666666
            },
            {
              "pitch": 48,
              "velocity": 50,
              "position": 6,
              "duration": 0.16666666666666666
            },
            {
              "pitch": 64,
              "velocity": 55,
              "position": 6.020833333333333,
              "duration": 0.14583333333333334
            },
            {
              "pitch": 60,
              "velocity": 82,
              "position": 6.5,
              "duration": 0.03333333333333333
            },
            {
              "pitch": 48,
              "velocity": 77,
              "position": 6.510416666666667,
              "duration": 0.03125
            },
            {
              "pitch": 55,
              "velocity": 82,
              "position": 6.510416666666667,
              "duration": 0.03125
            },
            {
              "pitch": 59,
              "velocity": 82,
              "position": 6.510416666666667,
              "duration": 0.03125
            },
            {
              "pitch": 64,
              "velocity": 82,
              "position": 6.510416666666667,
              "duration": 0.052083333333333336
            },
            {
              "pitch": 60,
              "velocity": 55,
              "position": 6.84375,
              "duration": 0.14583333333333334
            },
            {
              "pitch": 48,
              "velocity": 50,
              "position": 6.854166666666667,
              "duration": 0.14583333333333334
            },
            {
              "pitch": 55,
              "velocity": 55,
              "position": 6.854166666666667,
              "duration": 0.14583333333333334
            },
            {
              "pitch": 59,
              "velocity": 55,
              "position": 6.854166666666667,
              "duration": 0.14583333333333334
            },
            {
              "pitch": 64,
              "velocity": 55,
              "position": 6.833333333333333,
              "duration": 0.16666666666666666
            },
            {
              "pitch": 60,
              "velocity": 82,
              "position": 7,
              "duration": 0.03333333333333333
            },
            {
              "pitch": 55,
              "velocity": 82,
              "position": 7.010416666666667,
              "duration": 0.03125
            },
            {
              "pitch": 59,
              "velocity": 82,
              "position": 7.010416666666667,
              "duration": 0.03125
            },
            {
              "pitch": 48,
              "velocity": 77,
              "position": 7.010416666666667,
              "duration": 0.03125
            },
            {
              "pitch": 64,
              "velocity": 82,
              "position": 7.010416666666667,
              "duration": 0.052083333333333336
            },
            {
              "pitch": 60,
              "velocity": 68,
              "position": 7.34375,
              "duration": 0.1375
            },
            {
              "pitch": 55,
              "velocity": 68,
              "position": 7.354166666666667,
              "duration": 0.13541666666666666
            },
            {
              "pitch": 59,
              "velocity": 68,
              "position": 7.354166666666667,
              "duration": 0.13541666666666666
            },
            {
              "pitch": 48,
              "velocity": 63,
              "position": 7.354166666666667,
              "duration": 0.13541666666666666
            },
            {
              "pitch": 64,
              "velocity": 68,
              "position": 7.333333333333333,
              "duration": 0.15625
            },
            {
              "pitch": 64,
              "velocity": 55,
              "position": 7.520833333333333,
              "duration": 0.3020833333333333
            },
            {
              "pitch": 60,
              "velocity": 55,
              "position": 7.510416666666667,
              "duration": 0.3145833333333333
            },
            {
              "pitch": 48,
              "velocity": 50,
              "position": 7.5,
              "duration": 0.3333333333333333
            },
            {
              "pitch": 55,
              "velocity": 55,
              "position": 7.5,
              "duration": 0.3333333333333333
            },
            {
              "pitch": 59,
              "velocity": 55,
              "position": 7.5,
              "duration": 0.3333333333333333
            },
            {
              "pitch": 60,
              "velocity": 55,
              "position": 7.84375,
              "duration": 0.14583333333333334
            },
            {
              "pitch": 48,
              "velocity": 50,
              "position": 7.854166666666667,
              "duration": 0.14583333333333334
            },
            {
              "pitch": 55,
              "velocity": 55,
              "position": 7.854166666666667,
              "duration": 0.14583333333333334
            },
            {
              "pitch": 59,
              "velocity": 55,
              "position": 7.854166666666667,
              "duration": 0.14583333333333334
            },
            {
              "pitch": 64,
              "velocity": 55,
              "position": 7.833333333333333,
              "duration": 0.16666666666666666
            },
            {
              "pitch": 60,
              "velocity": 82,
              "position": 8,
              "duration": 0.03333333333333333
            },
            {
              "pitch": 55,
              "velocity": 82,
              "position": 8.010416666666666,
              "duration": 0.03125
            },
            {
              "pitch": 59,
              "velocity": 82,
              "position": 8.010416666666666,
              "duration": 0.03125
            },
            {
              "pitch": 48,
              "velocity": 77,
              "position": 8.010416666666666,
              "duration": 0.03125
            },
            {
              "pitch": 64,
              "velocity": 82,
              "position": 8.010416666666666,
              "duration": 0.052083333333333336
            },
            {
              "pitch": 60,
              "velocity": 68,
              "position": 8.333333333333334,
              "duration": 0.1375
            },
            {
              "pitch": 55,
              "velocity": 68,
              "position": 8.34375,
              "duration": 0.13541666666666666
            },
            {
              "pitch": 59,
              "velocity": 68,
              "position": 8.34375,
              "duration": 0.13541666666666666
            },
            {
              "pitch": 48,
              "velocity": 63,
              "position": 8.34375,
              "duration": 0.13541666666666666
            },
            {
              "pitch": 64,
              "velocity": 68,
              "position": 8.322916666666666,
              "duration": 0.15625
            },
            {
              "pitch": 64,
              "velocity": 40,
              "position": 8.510416666666666,
              "duration": 0.2916666666666667
            },
            {
              "pitch": 55,
              "velocity": 40,
              "position": 8.489583333333334,
              "duration": 0.3125
            },
            {
              "pitch": 59,
              "velocity": 40,
              "position": 8.489583333333334,
              "duration": 0.3125
            },
            {
              "pitch": 60,
              "velocity": 40,
              "position": 8.5,
              "duration": 0.3020833333333333
            },
            {
              "pitch": 48,
              "velocity": 35,
              "position": 8.489583333333334,
              "duration": 0.3125
            },
            {
              "pitch": 60,
              "velocity": 55,
              "position": 8.833333333333334,
              "duration": 0.1375
            },
            {
              "pitch": 55,
              "velocity": 55,
              "position": 8.84375,
              "duration": 0.13541666666666666
            },
            {
              "pitch": 59,
              "velocity": 55,
              "position": 8.84375,
              "duration": 0.13541666666666666
            },
            {
              "pitch": 48,
              "velocity": 50,
              "position": 8.84375,
              "duration": 0.13541666666666666
            },
            {
              "pitch": 64,
              "velocity": 55,
              "position": 8.822916666666666,
              "duration": 0.15625
            },
            {
              "pitch": 60,
              "velocity": 72,
              "position": 9,
              "duration": 0.03333333333333333
            },
            {
              "pitch": 55,
              "velocity": 72,
              "position": 9.010416666666666,
              "duration": 0.03125
            },
            {
              "pitch": 59,
              "velocity": 72,
              "position": 9.010416666666666,
              "duration": 0.03125
            },
            {
              "pitch": 48,
              "velocity": 67,
              "position": 9.010416666666666,
              "duration": 0.03125
            },
            {
              "pitch": 64,
              "velocity": 72,
              "position": 9.010416666666666,
              "duration": 0.052083333333333336
            },
            {
              "pitch": 60,
              "velocity": 55,
              "position": 9.333333333333334,
              "duration": 0.13541666666666666
            },
            {
              "pitch": 55,
              "velocity": 55,
              "position": 9.34375,
              "duration": 0.12708333333333333
            },
            {
              "pitch": 59,
              "velocity": 55,
              "position": 9.34375,
              "duration": 0.12708333333333333
            },
            {
              "pitch": 48,
              "velocity": 50,
              "position": 9.34375,
              "duration": 0.12708333333333333
            },
            {
              "pitch": 64,
              "velocity": 55,
              "position": 9.322916666666666,
              "duration": 0.14791666666666667
            },
            {
              "pitch": 48,
              "velocity": 77,
              "position": 9.5,
              "duration": 0.03125
            },
            {
              "pitch": 55,
              "velocity": 82,
              "position": 9.5,
              "duration": 0.03125
            },
            {
              "pitch": 59,
              "velocity": 82,
              "position": 9.5,
              "duration": 0.03125
            },
            {
              "pitch": 60,
              "velocity": 82,
              "position": 9.5,
              "duration": 0.03333333333333333
            },
            {
              "pitch": 64,
              "velocity": 82,
              "position": 9.5,
              "duration": 0.052083333333333336
            },
            {
              "pitch": 60,
              "velocity": 68,
              "position": 9.833333333333334,
              "duration": 0.1375
            },
            {
              "pitch": 55,
              "velocity": 68,
              "position": 9.84375,
              "duration": 0.13541666666666666
            },
            {
              "pitch": 59,
              "velocity": 68,
              "position": 9.84375,
              "duration": 0.13541666666666666
            },
            {
              "pitch": 48,
              "velocity": 63,
              "position": 9.84375,
              "duration": 0.13541666666666666
            },
            {
              "pitch": 64,
              "velocity": 68,
              "position": 9.822916666666666,
              "duration": 0.15625
            },
            {
              "pitch": 60,
              "velocity": 55,
              "position": 10,
              "duration": 0.14791666666666667
            },
            {
              "pitch": 64,
              "velocity": 55,
              "position": 10.010416666666666,
              "duration": 0.14583333333333334
            },
            {
              "pitch": 48,
              "velocity": 50,
              "position": 9.989583333333334,
              "duration": 0.16666666666666666
            },
            {
              "pitch": 55,
              "velocity": 55,
              "position": 9.989583333333334,
              "duration": 0.16666666666666666
            },
            {
              "pitch": 59,
              "velocity": 55,
              "position": 9.989583333333334,
              "duration": 0.16666666666666666
            },
            {
              "pitch": 48,
              "velocity": 77,
              "position": 10.5,
              "duration": 0.03125
            },
            {
              "pitch": 55,
              "velocity": 82,
              "position": 10.5,
              "duration": 0.03125
            },
            {
              "pitch": 59,
              "velocity": 82,
              "position": 10.5,
              "duration": 0.03125
            },
            {
              "pitch": 60,
              "velocity": 82,
              "position": 10.5,
              "duration": 0.03333333333333333
            },
            {
              "pitch": 64,
              "velocity": 82,
              "position": 10.5,
              "duration": 0.052083333333333336
            },
            {
              "pitch": 60,
              "velocity": 55,
              "position": 10.833333333333334,
              "duration": 0.1375
            },
            {
              "pitch": 55,
              "velocity": 55,
              "position": 10.84375,
              "duration": 0.13541666666666666
            },
            {
              "pitch": 59,
              "velocity": 55,
              "position": 10.84375,
              "duration": 0.13541666666666666
            },
            {
              "pitch": 48,
              "velocity": 50,
              "position": 10.84375,
              "duration": 0.13541666666666666
            },
            {
              "pitch": 64,
              "velocity": 55,
              "position": 10.822916666666666,
              "duration": 0.15625
            },
            {
              "pitch": 48,
              "velocity": 77,
              "position": 11,
              "duration": 0.03125
            },
            {
              "pitch": 55,
              "velocity": 82,
              "position": 11,
              "duration": 0.03125
            },
            {
              "pitch": 59,
              "velocity": 82,
              "position": 11,
              "duration": 0.03125
            },
            {
              "pitch": 60,
              "velocity": 82,
              "position": 11,
              "duration": 0.03333333333333333
            },
            {
              "pitch": 64,
              "velocity": 82,
              "position": 11,
              "duration": 0.052083333333333336
            },
            {
              "pitch": 60,
              "velocity": 68,
              "position": 11.333333333333334,
              "duration": 0.1375
            },
            {
              "pitch": 55,
              "velocity": 68,
              "position": 11.34375,
              "duration": 0.13541666666666666
            },
            {
              "pitch": 59,
              "velocity": 68,
              "position": 11.34375,
              "duration": 0.13541666666666666
            },
            {
              "pitch": 48,
              "velocity": 63,
              "position": 11.34375,
              "duration": 0.13541666666666666
            },
            {
              "pitch": 64,
              "velocity": 68,
              "position": 11.322916666666666,
              "duration": 0.15625
            },
            {
              "pitch": 60,
              "velocity": 116,
              "position": 11.5,
              "duration": 0.8041666666666667
            },
            {
              "pitch": 55,
              "velocity": 116,
              "position": 11.489583333333334,
              "duration": 0.8229166666666666
            },
            {
              "pitch": 59,
              "velocity": 116,
              "position": 11.489583333333334,
              "duration": 0.8229166666666666
            },
            {
              "pitch": 48,
              "velocity": 111,
              "position": 11.489583333333334,
              "duration": 0.8229166666666666
            },
            {
              "pitch": 64,
              "velocity": 118,
              "position": 11.510416666666666,
              "duration": 0.8020833333333334
            },
            {
              "pitch": 60,
              "velocity": 68,
              "position": 12.333333333333334,
              "duration": 0.1375
            },
            {
              "pitch": 55,
              "velocity": 68,
              "position": 12.34375,
              "duration": 0.13541666666666666
            },
            {
              "pitch": 59,
              "velocity": 68,
              "position": 12.34375,
              "duration": 0.13541666666666666
            },
            {
              "pitch": 48,
              "velocity": 63,
              "position": 12.34375,
              "duration": 0.13541666666666666
            },
            {
              "pitch": 64,
              "velocity": 68,
              "position": 12.322916666666666,
              "duration": 0.15625
            },
            {
              "pitch": 64,
              "velocity": 40,
              "position": 12.510416666666666,
              "duration": 0.2916666666666667
            },
            {
              "pitch": 55,
              "velocity": 40,
              "position": 12.489583333333334,
              "duration": 0.3125
            },
            {
              "pitch": 59,
              "velocity": 40,
              "position": 12.489583333333334,
              "duration": 0.3125
            },
            {
              "pitch": 60,
              "velocity": 40,
              "position": 12.5,
              "duration": 0.3020833333333333
            },
            {
              "pitch": 48,
              "velocity": 35,
              "position": 12.489583333333334,
              "duration": 0.3125
            },
            {
              "pitch": 60,
              "velocity": 55,
              "position": 12.833333333333334,
              "duration": 0.14791666666666667
            },
            {
              "pitch": 55,
              "velocity": 55,
              "position": 12.84375,
              "duration": 0.14583333333333334
            },
            {
              "pitch": 59,
              "velocity": 55,
              "position": 12.84375,
              "duration": 0.14583333333333334
            },
            {
              "pitch": 48,
              "velocity": 50,
              "position": 12.84375,
              "duration": 0.14583333333333334
            },
            {
              "pitch": 64,
              "velocity": 55,
              "position": 12.822916666666666,
              "duration": 0.16666666666666666
            },
            {
              "pitch": 48,
              "velocity": 77,
              "position": 13,
              "duration": 0.03125
            },
            {
              "pitch": 55,
              "velocity": 82,
              "position": 13,
              "duration": 0.03125
            },
            {
              "pitch": 59,
              "velocity": 82,
              "position": 13,
              "duration": 0.03125
            },
            {
              "pitch": 60,
              "velocity": 82,
              "position": 13,
              "duration": 0.03333333333333333
            },
            {
              "pitch": 64,
              "velocity": 82,
              "position": 13,
              "duration": 0.052083333333333336
            },
            {
              "pitch": 60,
              "velocity": 55,
              "position": 13.333333333333334,
              "duration": 0.14791666666666667
            },
            {
              "pitch": 55,
              "velocity": 55,
              "position": 13.34375,
              "duration": 0.14583333333333334
            },
            {
              "pitch": 59,
              "velocity": 55,
              "position": 13.34375,
              "duration": 0.14583333333333334
            },
            {
              "pitch": 48,
              "velocity": 50,
              "position": 13.34375,
              "duration": 0.14583333333333334
            },
            {
              "pitch": 64,
              "velocity": 55,
              "position": 13.322916666666666,
              "duration": 0.16666666666666666
            },
            {
              "pitch": 60,
              "velocity": 68,
              "position": 13.833333333333334,
              "duration": 0.1375
            },
            {
              "pitch": 55,
              "velocity": 68,
              "position": 13.84375,
              "duration": 0.13541666666666666
            },
            {
              "pitch": 59,
              "velocity": 68,
              "position": 13.84375,
              "duration": 0.13541666666666666
            },
            {
              "pitch": 48,
              "velocity": 63,
              "position": 13.84375,
              "duration": 0.13541666666666666
            },
            {
              "pitch": 64,
              "velocity": 68,
              "position": 13.822916666666666,
              "duration": 0.15625
            },
            {
              "pitch": 60,
              "velocity": 55,
              "position": 14,
              "duration": 0.14791666666666667
            },
            {
              "pitch": 64,
              "velocity": 55,
              "position": 14.010416666666666,
              "duration": 0.14583333333333334
            },
            {
              "pitch": 48,
              "velocity": 50,
              "position": 13.989583333333334,
              "duration": 0.16666666666666666
            },
            {
              "pitch": 55,
              "velocity": 55,
              "position": 13.989583333333334,
              "duration": 0.16666666666666666
            },
            {
              "pitch": 59,
              "velocity": 55,
              "position": 13.989583333333334,
              "duration": 0.16666666666666666
            },
            {
              "pitch": 48,
              "velocity": 77,
              "position": 14.5,
              "duration": 0.03125
            },
            {
              "pitch": 55,
              "velocity": 82,
              "position": 14.5,
              "duration": 0.03125
            },
            {
              "pitch": 59,
              "velocity": 82,
              "position": 14.5,
              "duration": 0.03125
            },
            {
              "pitch": 60,
              "velocity": 82,
              "position": 14.5,
              "duration": 0.03333333333333333
            },
            {
              "pitch": 64,
              "velocity": 82,
              "position": 14.5,
              "duration": 0.052083333333333336
            },
            {
              "pitch": 60,
              "velocity": 55,
              "position": 14.833333333333334,
              "duration": 0.14791666666666667
            },
            {
              "pitch": 55,
              "velocity": 55,
              "position": 14.84375,
              "duration": 0.14583333333333334
            },
            {
              "pitch": 59,
              "velocity": 55,
              "position": 14.84375,
              "duration": 0.14583333333333334
            },
            {
              "pitch": 48,
              "velocity": 50,
              "position": 14.84375,
              "duration": 0.14583333333333334
            },
            {
              "pitch": 64,
              "velocity": 55,
              "position": 14.822916666666666,
              "duration": 0.16666666666666666
            },
            {
              "pitch": 48,
              "velocity": 77,
              "position": 15,
              "duration": 0.03125
            },
            {
              "pitch": 55,
              "velocity": 82,
              "position": 15,
              "duration": 0.03125
            },
            {
              "pitch": 59,
              "velocity": 82,
              "position": 15,
              "duration": 0.03125
            },
            {
              "pitch": 60,
              "velocity": 82,
              "position": 15,
              "duration": 0.03333333333333333
            },
            {
              "pitch": 64,
              "velocity": 82,
              "position": 15,
              "duration": 0.052083333333333336
            },
            {
              "pitch": 60,
              "velocity": 68,
              "position": 15.333333333333334,
              "duration": 0.1375
            },
            {
              "pitch": 55,
              "velocity": 68,
              "position": 15.34375,
              "duration": 0.13541666666666666
            },
            {
              "pitch": 59,
              "velocity": 68,
              "position": 15.34375,
              "duration": 0.13541666666666666
            },
            {
              "pitch": 48,
              "velocity": 63,
              "position": 15.34375,
              "duration": 0.13541666666666666
            },
            {
              "pitch": 64,
              "velocity": 68,
              "position": 15.322916666666666,
              "duration": 0.15625
            },
            {
              "pitch": 64,
              "velocity": 55,
              "position": 15.510416666666666,
              "duration": 0.30416666666666664
            },
            {
              "pitch": 60,
              "velocity": 55,
              "position": 15.5,
              "duration": 0.3145833333333333
            },
            {
              "pitch": 48,
              "velocity": 50,
              "position": 15.489583333333334,
              "duration": 0.3333333333333333
            },
            {
              "pitch": 55,
              "velocity": 55,
              "position": 15.489583333333334,
              "duration": 0.3333333333333333
            },
            {
              "pitch": 59,
              "velocity": 55,
              "position": 15.489583333333334,
              "duration": 0.3333333333333333
            },
            {
              "pitch": 60,
              "velocity": 55,
              "position": 15.833333333333334,
              "duration": 0.14791666666666667
            },
            {
              "pitch": 55,
              "velocity": 55,
              "position": 15.84375,
              "duration": 0.14583333333333334
            },
            {
              "pitch": 59,
              "velocity": 55,
              "position": 15.84375,
              "duration": 0.14583333333333334
            },
            {
              "pitch": 48,
              "velocity": 50,
              "position": 15.84375,
              "duration": 0.14583333333333334
            },
            {
              "pitch": 64,
              "velocity": 55,
              "position": 15.822916666666666,
              "duration": 0.16666666666666666
            }
          ]
        },
        "13": {
          "ctab": {
            "srcChannel": 13,
            "name": "E.Piano",
            "accType": "PAD",
            "editable": false,
            "mutedNotes": [],
            "mutedChords": [],
            "autoStart": false,
            "sourceChordNote": 0,
            "sourceChordType": "Maj7",
            "ctb2Low": null,
            "ctb2Main": {
              "ntr": "ROOT_FIXED",
              "ntt": "CHORD",
              "bassOn": false,
              "chordRootUpperLimit": 7,
              "noteLowLimit": 0,
              "noteHighLimit": 127,
              "rtr": "PITCH_SHIFT"
            },
            "ctb2High": null
          },
          "notes": [
            {
              "pitch": 55,
              "velocity": 85,
              "position": 0,
              "duration": 2.9895833333333335
            },
            {
              "pitch": 64,
              "velocity": 85,
              "position": 0,
              "duration": 2.9895833333333335
            },
            {
              "pitch": 59,
              "velocity": 85,
              "position": 0,
              "duration": 2.9895833333333335
            },
            {
              "pitch": 55,
              "velocity": 85,
              "position": 3,
              "duration": 0.15625
            },
            {
              "pitch": 64,
              "velocity": 85,
              "position": 3,
              "duration": 0.15625
            },
            {
              "pitch": 59,
              "velocity": 85,
              "position": 3,
              "duration": 0.15625
            },
            {
              "pitch": 55,
              "velocity": 85,
              "position": 5,
              "duration": 0.15625
            },
            {
              "pitch": 64,
              "velocity": 85,
              "position": 5,
              "duration": 0.15625
            },
            {
              "pitch": 59,
              "velocity": 85,
              "position": 5,
              "duration": 0.15625
            },
            {
              "pitch": 55,
              "velocity": 85,
              "position": 7,
              "duration": 0.9895833333333334
            },
            {
              "pitch": 64,
              "velocity": 85,
              "position": 7,
              "duration": 0.9895833333333334
            },
            {
              "pitch": 59,
              "velocity": 85,
              "position": 7,
              "duration": 0.9895833333333334
            },
            {
              "pitch": 55,
              "velocity": 85,
              "position": 8,
              "duration": 2.9895833333333335
            },
            {
              "pitch": 64,
              "velocity": 85,
              "position": 8,
              "duration": 2.9895833333333335
            },
            {
              "pitch": 59,
              "velocity": 85,
              "position": 8,
              "duration": 2.9895833333333335
            },
            {
              "pitch": 55,
              "velocity": 85,
              "position": 11,
              "duration": 0.15625
            },
            {
              "pitch": 64,
              "velocity": 85,
              "position": 11,
              "duration": 0.15625
            },
            {
              "pitch": 59,
              "velocity": 85,
              "position": 11,
              "duration": 0.15625
            },
            {
              "pitch": 55,
              "velocity": 85,
              "position": 13,
              "duration": 0.15625
            },
            {
              "pitch": 64,
              "velocity": 85,
              "position": 13,
              "duration": 0.15625
            },
            {
              "pitch": 59,
              "velocity": 85,
              "position": 13,
              "duration": 0.15625
            },
            {
              "pitch": 55,
              "velocity": 85,
              "position": 14,
              "duration": 0.4895833333333333
            },
            {
              "pitch": 64,
              "velocity": 85,
              "position": 14,
              "duration": 0.4895833333333333
            },
            {
              "pitch": 59,
              "velocity": 85,
              "position": 14,
              "duration": 0.4895833333333333
            },
            {
              "pitch": 55,
              "velocity": 85,
              "position": 15,
              "duration": 0.4895833333333333
            },
            {
              "pitch": 64,
              "velocity": 85,
              "position": 15,
              "duration": 0.4895833333333333
            },
            {
              "pitch": 59,
              "velocity": 85,
              "position": 15,
              "duration": 0.4895833333333333
            }
          ]
        },
        "14": {
          "ctab": {
            "srcChannel": 14,
            "name": "TenorSax",
            "accType": "PHRASE1",
            "editable": false,
            "mutedNotes": [],
            "mutedChords": [],
            "autoStart": false,
            "sourceChordNote": 0,
            "sourceChordType": "Maj7",
            "ctb2Low": null,
            "ctb2Main": {
              "ntr": "ROOT_TRANSPOSITION",
              "ntt": "MELODY",
              "bassOn": false,
              "chordRootUpperLimit": 7,
              "noteLowLimit": 0,
              "noteHighLimit": 127,
              "rtr": "PITCH_SHIFT"
            },
            "ctb2High": null
          },
          "notes": [
            {
              "pitch": 60,
              "velocity": 81,
              "position": 0,
              "duration": 0.9916666666666667
            },
            {
              "pitch": 60,
              "velocity": 81,
              "position": 7,
              "duration": 0.325
            },
            {
              "pitch": 60,
              "velocity": 84,
              "position": 7.333333333333333,
              "duration": 0.16666666666666666
            },
            {
              "pitch": 48,
              "velocity": 81,
              "position": 8,
              "duration": 1
            },
            {
              "pitch": 67,
              "velocity": 81,
              "position": 15,
              "duration": 0.3333333333333333
            }
          ]
        },
        "15": {
          "ctab": {
            "srcChannel": 15,
            "name": "Brass",
            "accType": "PHRASE2",
            "editable": false,
            "mutedNotes": [],
            "mutedChords": [],
            "autoStart": false,
            "sourceChordNote": 0,
            "sourceChordType": "Maj7",
            "ctb2Low": null,
            "ctb2Main": {
              "ntr": "ROOT_FIXED",
              "ntt": "CHORD",
              "bassOn": false,
              "chordRootUpperLimit": 7,
              "noteLowLimit": 0,
              "noteHighLimit": 127,
              "rtr": "PITCH_SHIFT"
            },
            "ctb2High": null
          },
          "notes": [
            {
              "pitch": 59,
              "velocity": 84,
              "position": 1.3333333333333333,
              "duration": 0.16666666666666666
            },
            {
              "pitch": 67,
              "velocity": 84,
              "position": 1.3333333333333333,
              "duration": 0.16666666666666666
            },
            {
              "pitch": 64,
              "velocity": 84,
              "position": 1.3333333333333333,
              "duration": 0.16666666666666666
            },
            {
              "pitch": 59,
              "velocity": 84,
              "position": 2.0083333333333333,
              "duration": 0.16666666666666666
            },
            {
              "pitch": 67,
              "velocity": 84,
              "position": 2.0083333333333333,
              "duration": 0.16666666666666666
            },
            {
              "pitch": 64,
              "velocity": 84,
              "position": 2.0083333333333333,
              "duration": 0.16666666666666666
            },
            {
              "pitch": 59,
              "velocity": 49,
              "position": 7,
              "duration": 0.3229166666666667
            },
            {
              "pitch": 67,
              "velocity": 49,
              "position": 7,
              "duration": 0.3229166666666667
            },
            {
              "pitch": 64,
              "velocity": 49,
              "position": 7,
              "duration": 0.3229166666666667
            },
            {
              "pitch": 59,
              "velocity": 84,
              "position": 7.333333333333333,
              "duration": 0.16666666666666666
            },
            {
              "pitch": 67,
              "velocity": 84,
              "position": 7.333333333333333,
              "duration": 0.16666666666666666
            },
            {
              "pitch": 64,
              "velocity": 84,
              "position": 7.333333333333333,
              "duration": 0.16666666666666666
            },
            {
              "pitch": 59,
              "velocity": 84,
              "position": 9.333333333333334,
              "duration": 0.16666666666666666
            },
            {
              "pitch": 67,
              "velocity": 84,
              "position": 9.333333333333334,
              "duration": 0.16666666666666666
            },
            {
              "pitch": 64,
              "velocity": 84,
              "position": 9.333333333333334,
              "duration": 0.16666666666666666
            },
            {
              "pitch": 59,
              "velocity": 84,
              "position": 10.008333333333333,
              "duration": 0.16666666666666666
            },
            {
              "pitch": 67,
              "velocity": 84,
              "position": 10.008333333333333,
              "duration": 0.16666666666666666
            },
            {
              "pitch": 64,
              "velocity": 84,
              "position": 10.008333333333333,
              "duration": 0.16666666666666666
            },
            {
              "pitch": 64,
              "velocity": 49,
              "position": 15,
              "duration": 0.3229166666666667
            },
            {
              "pitch": 71,
              "velocity": 49,
              "position": 15,
              "duration": 0.3229166666666667
            },
            {
              "pitch": 67,
              "velocity": 49,
              "position": 15,
              "duration": 0.3229166666666667
            },
            {
              "pitch": 64,
              "velocity": 84,
              "position": 15.333333333333334,
              "duration": 0.16666666666666666
            },
            {
              "pitch": 71,
              "velocity": 84,
              "position": 15.333333333333334,
              "duration": 0.16666666666666666
            },
            {
              "pitch": 67,
              "velocity": 84,
              "position": 15.333333333333334,
              "duration": 0.16666666666666666
            }
          ]
        }
      }
    },
    "Fill_In_AA": {
      "type": "Fill_In_AA",
      "sizeInBeats": 4,
      "channels": {
        "2": {
          "ctab": {
            "srcChannel": 2,
            "name": "ClaviBs",
            "accType": "CHORD1",
            "editable": false,
            "mutedNotes": [],
            "mutedChords": [],
            "autoStart": false,
            "sourceChordNote": 0,
            "sourceChordType": "Maj7",
            "ctb2Low": null,
            "ctb2Main": {
              "ntr": "ROOT_TRANSPOSITION",
              "ntt": "MELODY",
              "bassOn": true,
              "chordRootUpperLimit": 8,
              "noteLowLimit": 28,
              "noteHighLimit": 127,
              "rtr": "PITCH_SHIFT_TO_ROOT"
            },
            "ctb2High": null
          },
          "notes": [
            {
              "pitch": 36,
              "velocity": 104,
              "position": 1.8125,
              "duration": 0.09375
            },
            {
              "pitch": 43,
              "velocity": 98,
              "position": 3,
              "duration": 0.3333333333333333
            },
            {
              "pitch": 40,
              "velocity": 98,
              "position": 3.3333333333333335,
              "duration": 0.65625
            }
          ]
        },
        "4": {
          "ctab": {
            "srcChannel": 4,
            "name": "E.P  rt",
            "accType": "PAD",
            "editable": false,
            "mutedNotes": [],
            "mutedChords": [
              "1+2+5",
              "sus4",
              "1+5",
              "1+8",
              "Maj7aug",
              "dim",
              "minMaj7(9)",
              "minMaj7",
              "min6",
              "min",
              "aug",
              "Maj7(9)",
              "Maj7#11",
              "Maj7",
              "Maj6",
              "Maj"
            ],
            "autoStart": false,
            "sourceChordNote": 0,
            "sourceChordType": "Maj7",
            "ctb2Low": null,
            "ctb2Main": {
              "ntr": "ROOT_TRANSPOSITION",
              "ntt": "CHORD",
              "bassOn": false,
              "chordRootUpperLimit": 6,
              "noteLowLimit": 0,
              "noteHighLimit": 127,
              "rtr": "PITCH_SHIFT"
            },
            "ctb2High": null
          },
          "notes": []
        },
        "8": {
          "ctab": {
            "srcChannel": 8,
            "name": "AddDrum",
            "accType": "SUBRHYTHM",
            "editable": false,
            "mutedNotes": [],
            "mutedChords": [],
            "autoStart": true,
            "sourceChordNote": 0,
            "sourceChordType": "Maj7",
            "ctb2Low": null,
            "ctb2Main": {
              "ntr": "ROOT_FIXED",
              "ntt": "BYPASS",
              "bassOn": false,
              "chordRootUpperLimit": 6,
              "noteLowLimit": 0,
              "noteHighLimit": 127,
              "rtr": "PITCH_SHIFT"
            },
            "ctb2High": null
          },
          "notes": [
            {
              "pitch": 69,
              "velocity": 41,
              "position": 0,
              "duration": 0.010416666666666666
            },
            {
              "pitch": 69,
              "velocity": 64,
              "position": 0.5,
              "duration": 0.010416666666666666
            },
            {
              "pitch": 69,
              "velocity": 41,
              "position": 1,
              "duration": 0.010416666666666666
            },
            {
              "pitch": 69,
              "velocity": 64,
              "position": 1.5,
              "duration": 0.010416666666666666
            },
            {
              "pitch": 69,
              "velocity": 41,
              "position": 2,
              "duration": 0.010416666666666666
            },
            {
              "pitch": 69,
              "velocity": 64,
              "position": 2.5,
              "duration": 0.010416666666666666
            },
            {
              "pitch": 69,
              "velocity": 41,
              "position": 3,
              "duration": 0.010416666666666666
            },
            {
              "pitch": 69,
              "velocity": 64,
              "position": 3.5,
              "duration": 0.010416666666666666
            },
            {
              "pitch": 69,
              "velocity": 33,
              "position": 3.8333333333333335,
              "duration": 0.010416666666666666
            }
          ]
        },
        "9": {
          "ctab": {
            "srcChannel": 9,
            "name": "MainDrum",
            "accType": "RHYTHM",
            "editable": false,
            "mutedNotes": [],
            "mutedChords": [],
            "autoStart": true,
            "sourceChordNote": 0,
            "sourceChordType": "Maj7",
            "ctb2Low": null,
            "ctb2Main": {
              "ntr": "ROOT_FIXED",
              "ntt": "BYPASS",
              "bassOn": false,
              "chordRootUpperLimit": 6,
              "noteLowLimit": 0,
              "noteHighLimit": 127,
              "rtr": "PITCH_SHIFT"
            },
            "ctb2High": null
          },
          "notes": [
            {
              "pitch": 35,
              "velocity": 90,
              "position": 0,
              "duration": 0.010416666666666666
            },
            {
              "pitch": 42,
              "velocity": 85,
              "position": 0,
              "duration": 0.010416666666666666
            },
            {
              "pitch": 40,
              "velocity": 64,
              "position": 0.3333333333333333,
              "duration": 0.010416666666666666
            },
            {
              "pitch": 42,
              "velocity": 100,
              "position": 0.3333333333333333,
              "duration": 0.010416666666666666
            },
            {
              "pitch": 46,
              "velocity": 71,
              "position": 0.5,
              "duration": 0.010416666666666666
            },
            {
              "pitch": 40,
              "velocity": 114,
              "position": 1,
              "duration": 0.010416666666666666
            },
            {
              "pitch": 42,
              "velocity": 87,
              "position": 1,
              "duration": 0.010416666666666666
            },
            {
              "pitch": 35,
              "velocity": 86,
              "position": 1.3333333333333333,
              "duration": 0.010416666666666666
            },
            {
              "pitch": 42,
              "velocity": 108,
              "position": 1.3333333333333333,
              "duration": 0.010416666666666666
            },
            {
              "pitch": 46,
              "velocity": 84,
              "position": 1.5,
              "duration": 0.010416666666666666
            },
            {
              "pitch": 35,
              "velocity": 90,
              "position": 2,
              "duration": 0.010416666666666666
            },
            {
              "pitch": 42,
              "velocity": 116,
              "position": 2,
              "duration": 0.010416666666666666
            },
            {
              "pitch": 40,
              "velocity": 108,
              "position": 2.3333333333333335,
              "duration": 0.010416666666666666
            },
            {
              "pitch": 42,
              "velocity": 85,
              "position": 2.5,
              "duration": 0.010416666666666666
            },
            {
              "pitch": 40,
              "velocity": 70,
              "position": 2.8333333333333335,
              "duration": 0.010416666666666666
            },
            {
              "pitch": 35,
              "velocity": 92,
              "position": 3,
              "duration": 0.010416666666666666
            },
            {
              "pitch": 42,
              "velocity": 116,
              "position": 3,
              "duration": 0.010416666666666666
            },
            {
              "pitch": 40,
              "velocity": 100,
              "position": 3,
              "duration": 0.010416666666666666
            },
            {
              "pitch": 40,
              "velocity": 127,
              "position": 3.3333333333333335,
              "duration": 0.010416666666666666
            },
            {
              "pitch": 42,
              "velocity": 27,
              "position": 3.3333333333333335,
              "duration": 0.010416666666666666
            },
            {
              "pitch": 35,
              "velocity": 91,
              "position": 3.5,
              "duration": 0.010416666666666666
            },
            {
              "pitch": 47,
              "velocity": 86,
              "position": 3.5,
              "duration": 0.010416666666666666
            },
            {
              "pitch": 42,
              "velocity": 51,
              "position": 3.8333333333333335,
              "duration": 0.010416666666666666
            },
            {
              "pitch": 52,
              "velocity": 54,
              "position": 3.8333333333333335,
              "duration": 0.010416666666666666
            },
            {
              "pitch": 49,
              "velocity": 74,
              "position": 3.9895833333333335,
              "duration": 0.010416666666666666
            }
          ]
        },
        "10": {
          "ctab": {
            "srcChannel": 10,
            "name": "Bass",
            "accType": "BASS",
            "editable": false,
            "mutedNotes": [],
            "mutedChords": [],
            "autoStart": false,
            "sourceChordNote": 0,
            "sourceChordType": "Maj7",
            "ctb2Low": null,
            "ctb2Main": {
              "ntr": "ROOT_TRANSPOSITION",
              "ntt": "MELODY",
              "bassOn": true,
              "chordRootUpperLimit": 8,
              "noteLowLimit": 28,
              "noteHighLimit": 127,
              "rtr": "PITCH_SHIFT_TO_ROOT"
            },
            "ctb2High": null
          },
          "notes": [
            {
              "pitch": 24,
              "velocity": 70,
              "position": 0,
              "duration": 0.48125
            },
            {
              "pitch": 24,
              "velocity": 111,
              "position": 0.5,
              "duration": 0.3145833333333333
            },
            {
              "pitch": 36,
              "velocity": 111,
              "position": 1,
              "duration": 0.3145833333333333
            },
            {
              "pitch": 24,
              "velocity": 46,
              "position": 1.8333333333333333,
              "duration": 0.14791666666666667
            },
            {
              "pitch": 28,
              "velocity": 70,
              "position": 2,
              "duration": 0.48125
            },
            {
              "pitch": 24,
              "velocity": 70,
              "position": 2.5,
              "duration": 0.3145833333333333
            },
            {
              "pitch": 31,
              "velocity": 70,
              "position": 3,
              "duration": 0.3145833333333333
            },
            {
              "pitch": 28,
              "velocity": 70,
              "position": 3.3333333333333335,
              "duration": 0.6479166666666667
            }
          ]
        },
        "11": {
          "ctab": {
            "srcChannel": 11,
            "name": "Clavi",
            "accType": "CHORD1",
            "editable": false,
            "mutedNotes": [],
            "mutedChords": [],
            "autoStart": false,
            "sourceChordNote": 0,
            "sourceChordType": "Maj7",
            "ctb2Low": null,
            "ctb2Main": {
              "ntr": "ROOT_TRANSPOSITION",
              "ntt": "CHORD",
              "bassOn": false,
              "chordRootUpperLimit": 7,
              "noteLowLimit": 0,
              "noteHighLimit": 127,
              "rtr": "PITCH_SHIFT"
            },
            "ctb2High": null
          },
          "notes": [
            {
              "pitch": 47,
              "velocity": 67,
              "position": 0.3333333333333333,
              "duration": 0.0625
            },
            {
              "pitch": 47,
              "velocity": 110,
              "position": 0.5,
              "duration": 0.3125
            },
            {
              "pitch": 48,
              "velocity": 110,
              "position": 1,
              "duration": 0.3125
            },
            {
              "pitch": 52,
              "velocity": 110,
              "position": 2,
              "duration": 0.225
            },
            {
              "pitch": 48,
              "velocity": 110,
              "position": 2.5,
              "duration": 0.1875
            }
          ]
        },
        "12": {
          "ctab": {
            "srcChannel": 12,
            "name": "SolidGtr",
            "accType": "CHORD2",
            "editable": false,
            "mutedNotes": [],
            "mutedChords": [],
            "autoStart": false,
            "sourceChordNote": 0,
            "sourceChordType": "Maj7",
            "ctb2Low": null,
            "ctb2Main": {
              "ntr": "ROOT_TRANSPOSITION",
              "ntt": "CHORD",
              "bassOn": true,
              "chordRootUpperLimit": 7,
              "noteLowLimit": 0,
              "noteHighLimit": 127,
              "rtr": "PITCH_SHIFT"
            },
            "ctb2High": null
          },
          "notes": [
            {
              "pitch": 48,
              "velocity": 85,
              "position": 0,
              "duration": 0.16666666666666666
            },
            {
              "pitch": 48,
              "velocity": 70,
              "position": 0.3333333333333333,
              "duration": 0.15625
            },
            {
              "pitch": 48,
              "velocity": 85,
              "position": 0.5,
              "duration": 0.16666666666666666
            },
            {
              "pitch": 55,
              "velocity": 55,
              "position": 1,
              "duration": 0.10416666666666667
            },
            {
              "pitch": 59,
              "velocity": 55,
              "position": 1,
              "duration": 0.10416666666666667
            },
            {
              "pitch": 60,
              "velocity": 55,
              "position": 1.0104166666666667,
              "duration": 0.10416666666666667
            },
            {
              "pitch": 64,
              "velocity": 55,
              "position": 1.0208333333333333,
              "duration": 0.10416666666666667
            },
            {
              "pitch": 55,
              "velocity": 55,
              "position": 3,
              "duration": 0.10416666666666667
            },
            {
              "pitch": 59,
              "velocity": 55,
              "position": 3,
              "duration": 0.10416666666666667
            },
            {
              "pitch": 60,
              "velocity": 55,
              "position": 3.0104166666666665,
              "duration": 0.10416666666666667
            },
            {
              "pitch": 64,
              "velocity": 55,
              "position": 3.0208333333333335,
              "duration": 0.10416666666666667
            }
          ]
        },
        "13": {
          "ctab": {
            "srcChannel": 13,
            "name": "E.Piano",
            "accType": "PAD",
            "editable": false,
            "mutedNotes": [],
            "mutedChords": [],
            "autoStart": false,
            "sourceChordNote": 0,
            "sourceChordType": "Maj7",
            "ctb2Low": null,
            "ctb2Main": {
              "ntr": "ROOT_FIXED",
              "ntt": "CHORD",
              "bassOn": false,
              "chordRootUpperLimit": 7,
              "noteLowLimit": 0,
              "noteHighLimit": 127,
              "rtr": "PITCH_SHIFT"
            },
            "ctb2High": null
          },
          "notes": []
        },
        "14": {
          "ctab": {
            "srcChannel": 14,
            "name": "TenorSax",
            "accType": "PHRASE1",
            "editable": false,
            "mutedNotes": [],
            "mutedChords": [],
            "autoStart": false,
            "sourceChordNote": 0,
            "sourceChordType": "Maj7",
            "ctb2Low": null,
            "ctb2Main": {
              "ntr": "ROOT_TRANSPOSITION",
              "ntt": "MELODY",
              "bassOn": false,
              "chordRootUpperLimit": 7,
              "noteLowLimit": 0,
              "noteHighLimit": 127,
              "rtr": "PITCH_SHIFT"
            },
            "ctb2High": null
          },
          "notes": []
        },
        "15": {
          "ctab": {
            "srcChannel": 15,
            "name": "Brass",
            "accType": "PHRASE2",
            "editable": false,
            "mutedNotes": [],
            "mutedChords": [],
            "autoStart": false,
            "sourceChordNote": 0,
            "sourceChordType": "Maj7",
            "ctb2Low": null,
            "ctb2Main": {
              "ntr": "ROOT_FIXED",
              "ntt": "CHORD",
              "bassOn": false,
              "chordRootUpperLimit": 7,
              "noteLowLimit": 0,
              "noteHighLimit": 127,
              "rtr": "PITCH_SHIFT"
            },
            "ctb2High": null
          },
          "notes": []
        }
      }
    },
    "Fill_In_BB": {
      "type": "Fill_In_BB",
      "sizeInBeats": 4,
      "channels": {
        "2": {
          "ctab": {
            "srcChannel": 2,
            "name": "ClaviBs",
            "accType": "CHORD1",
            "editable": false,
            "mutedNotes": [],
            "mutedChords": [],
            "autoStart": false,
            "sourceChordNote": 0,
            "sourceChordType": "Maj7",
            "ctb2Low": null,
            "ctb2Main": {
              "ntr": "ROOT_TRANSPOSITION",
              "ntt": "MELODY",
              "bassOn": true,
              "chordRootUpperLimit": 8,
              "noteLowLimit": 28,
              "noteHighLimit": 127,
              "rtr": "PITCH_SHIFT_TO_ROOT"
            },
            "ctb2High": null
          },
          "notes": [
            {
              "pitch": 36,
              "velocity": 101,
              "position": 0,
              "duration": 0.4895833333333333
            },
            {
              "pitch": 36,
              "velocity": 104,
              "position": 1.8333333333333333,
              "duration": 0.09375
            }
          ]
        },
        "4": {
          "ctab": {
            "srcChannel": 4,
            "name": "E.P  rt",
            "accType": "PAD",
            "editable": false,
            "mutedNotes": [],
            "mutedChords": [
              "1+2+5",
              "sus4",
              "1+5",
              "1+8",
              "Maj7aug",
              "dim",
              "minMaj7(9)",
              "minMaj7",
              "min6",
              "min",
              "aug",
              "Maj7(9)",
              "Maj7#11",
              "Maj7",
              "Maj6",
              "Maj"
            ],
            "autoStart": false,
            "sourceChordNote": 0,
            "sourceChordType": "Maj7",
            "ctb2Low": null,
            "ctb2Main": {
              "ntr": "ROOT_TRANSPOSITION",
              "ntt": "CHORD",
              "bassOn": false,
              "chordRootUpperLimit": 6,
              "noteLowLimit": 0,
              "noteHighLimit": 127,
              "rtr": "PITCH_SHIFT"
            },
            "ctb2High": null
          },
          "notes": [
            {
              "pitch": 60,
              "velocity": 85,
              "position": 0,
              "duration": 1.9895833333333333
            },
            {
              "pitch": 60,
              "velocity": 85,
              "position": 2,
              "duration": 0.15625
            },
            {
              "pitch": 60,
              "velocity": 85,
              "position": 3,
              "duration": 0.15625
            }
          ]
        },
        "8": {
          "ctab": {
            "srcChannel": 8,
            "name": "AddDrum",
            "accType": "SUBRHYTHM",
            "editable": false,
            "mutedNotes": [],
            "mutedChords": [],
            "autoStart": true,
            "sourceChordNote": 0,
            "sourceChordType": "Maj7",
            "ctb2Low": null,
            "ctb2Main": {
              "ntr": "ROOT_FIXED",
              "ntt": "BYPASS",
              "bassOn": false,
              "chordRootUpperLimit": 6,
              "noteLowLimit": 0,
              "noteHighLimit": 127,
              "rtr": "PITCH_SHIFT"
            },
            "ctb2High": null
          },
          "notes": [
            {
              "pitch": 69,
              "velocity": 41,
              "position": 0,
              "duration": 0.010416666666666666
            },
            {
              "pitch": 69,
              "velocity": 64,
              "position": 0.5,
              "duration": 0.010416666666666666
            },
            {
              "pitch": 54,
              "velocity": 80,
              "position": 1,
              "duration": 0.010416666666666666
            },
            {
              "pitch": 69,
              "velocity": 41,
              "position": 1,
              "duration": 0.010416666666666666
            },
            {
              "pitch": 69,
              "velocity": 64,
              "position": 1.5,
              "duration": 0.010416666666666666
            },
            {
              "pitch": 69,
              "velocity": 41,
              "position": 2,
              "duration": 0.010416666666666666
            },
            {
              "pitch": 69,
              "velocity": 64,
              "position": 2.5,
              "duration": 0.010416666666666666
            },
            {
              "pitch": 54,
              "velocity": 80,
              "position": 3,
              "duration": 0.010416666666666666
            },
            {
              "pitch": 69,
              "velocity": 41,
              "position": 3,
              "duration": 0.010416666666666666
            },
            {
              "pitch": 69,
              "velocity": 64,
              "position": 3.5,
              "duration": 0.010416666666666666
            },
            {
              "pitch": 69,
              "velocity": 33,
              "position": 3.8333333333333335,
              "duration": 0.010416666666666666
            }
          ]
        },
        "9": {
          "ctab": {
            "srcChannel": 9,
            "name": "MainDrum",
            "accType": "RHYTHM",
            "editable": false,
            "mutedNotes": [],
            "mutedChords": [],
            "autoStart": true,
            "sourceChordNote": 0,
            "sourceChordType": "Maj7",
            "ctb2Low": null,
            "ctb2Main": {
              "ntr": "ROOT_FIXED",
              "ntt": "BYPASS",
              "bassOn": false,
              "chordRootUpperLimit": 6,
              "noteLowLimit": 0,
              "noteHighLimit": 127,
              "rtr": "PITCH_SHIFT"
            },
            "ctb2High": null
          },
          "notes": [
            {
              "pitch": 35,
              "velocity": 90,
              "position": 0,
              "duration": 0.010416666666666666
            },
            {
              "pitch": 42,
              "velocity": 116,
              "position": 0,
              "duration": 0.010416666666666666
            },
            {
              "pitch": 42,
              "velocity": 88,
              "position": 0.5,
              "duration": 0.010416666666666666
            },
            {
              "pitch": 40,
              "velocity": 59,
              "position": 0.8333333333333334,
              "duration": 0.010416666666666666
            },
            {
              "pitch": 40,
              "velocity": 114,
              "position": 1,
              "duration": 0.010416666666666666
            },
            {
              "pitch": 42,
              "velocity": 116,
              "position": 1,
              "duration": 0.010416666666666666
            },
            {
              "pitch": 35,
              "velocity": 77,
              "position": 1.5,
              "duration": 0.010416666666666666
            },
            {
              "pitch": 42,
              "velocity": 94,
              "position": 1.5,
              "duration": 0.010416666666666666
            },
            {
              "pitch": 42,
              "velocity": 54,
              "position": 1.8333333333333333,
              "duration": 0.010416666666666666
            },
            {
              "pitch": 35,
              "velocity": 95,
              "position": 2,
              "duration": 0.010416666666666666
            },
            {
              "pitch": 52,
              "velocity": 60,
              "position": 2,
              "duration": 0.010416666666666666
            },
            {
              "pitch": 42,
              "velocity": 116,
              "position": 2,
              "duration": 0.010416666666666666
            },
            {
              "pitch": 40,
              "velocity": 80,
              "position": 2,
              "duration": 0.010416666666666666
            },
            {
              "pitch": 35,
              "velocity": 70,
              "position": 2.5,
              "duration": 0.010416666666666666
            },
            {
              "pitch": 42,
              "velocity": 85,
              "position": 2.5,
              "duration": 0.010416666666666666
            },
            {
              "pitch": 40,
              "velocity": 114,
              "position": 3,
              "duration": 0.010416666666666666
            },
            {
              "pitch": 55,
              "velocity": 66,
              "position": 3,
              "duration": 0.010416666666666666
            },
            {
              "pitch": 42,
              "velocity": 116,
              "position": 3,
              "duration": 0.010416666666666666
            },
            {
              "pitch": 35,
              "velocity": 70,
              "position": 3.3333333333333335,
              "duration": 0.010416666666666666
            },
            {
              "pitch": 42,
              "velocity": 38,
              "position": 3.3333333333333335,
              "duration": 0.010416666666666666
            },
            {
              "pitch": 35,
              "velocity": 98,
              "position": 3.5,
              "duration": 0.010416666666666666
            },
            {
              "pitch": 46,
              "velocity": 84,
              "position": 3.5,
              "duration": 0.010416666666666666
            },
            {
              "pitch": 49,
              "velocity": 70,
              "position": 3.9895833333333335,
              "duration": 0.010416666666666666
            }
          ]
        },
        "10": {
          "ctab": {
            "srcChannel": 10,
            "name": "Bass",
            "accType": "BASS",
            "editable": false,
            "mutedNotes": [],
            "mutedChords": [],
            "autoStart": false,
            "sourceChordNote": 0,
            "sourceChordType": "Maj7",
            "ctb2Low": null,
            "ctb2Main": {
              "ntr": "ROOT_TRANSPOSITION",
              "ntt": "MELODY",
              "bassOn": true,
              "chordRootUpperLimit": 8,
              "noteLowLimit": 28,
              "noteHighLimit": 127,
              "rtr": "PITCH_SHIFT_TO_ROOT"
            },
            "ctb2High": null
          },
          "notes": [
            {
              "pitch": 24,
              "velocity": 70,
              "position": 0,
              "duration": 0.48125
            },
            {
              "pitch": 24,
              "velocity": 111,
              "position": 0.5,
              "duration": 0.3145833333333333
            },
            {
              "pitch": 36,
              "velocity": 111,
              "position": 1,
              "duration": 0.3145833333333333
            },
            {
              "pitch": 24,
              "velocity": 46,
              "position": 1.8333333333333333,
              "duration": 0.14791666666666667
            },
            {
              "pitch": 24,
              "velocity": 70,
              "position": 2,
              "duration": 0.48125
            },
            {
              "pitch": 24,
              "velocity": 111,
              "position": 2.8333333333333335,
              "duration": 0.14791666666666667
            },
            {
              "pitch": 24,
              "velocity": 70,
              "position": 3,
              "duration": 0.48125
            },
            {
              "pitch": 24,
              "velocity": 111,
              "position": 3.8333333333333335,
              "duration": 0.14791666666666667
            }
          ]
        },
        "11": {
          "ctab": {
            "srcChannel": 11,
            "name": "Clavi",
            "accType": "CHORD1",
            "editable": false,
            "mutedNotes": [],
            "mutedChords": [],
            "autoStart": false,
            "sourceChordNote": 0,
            "sourceChordType": "Maj7",
            "ctb2Low": null,
            "ctb2Main": {
              "ntr": "ROOT_TRANSPOSITION",
              "ntt": "CHORD",
              "bassOn": false,
              "chordRootUpperLimit": 7,
              "noteLowLimit": 0,
              "noteHighLimit": 127,
              "rtr": "PITCH_SHIFT"
            },
            "ctb2High": null
          },
          "notes": [
            {
              "pitch": 52,
              "velocity": 55,
              "position": 0,
              "duration": 0.3125
            },
            {
              "pitch": 59,
              "velocity": 55,
              "position": 0,
              "duration": 0.3125
            },
            {
              "pitch": 55,
              "velocity": 55,
              "position": 0,
              "duration": 0.3125
            },
            {
              "pitch": 52,
              "velocity": 85,
              "position": 0.3333333333333333,
              "duration": 0.14583333333333334
            },
            {
              "pitch": 59,
              "velocity": 85,
              "position": 0.3333333333333333,
              "duration": 0.14583333333333334
            },
            {
              "pitch": 55,
              "velocity": 85,
              "position": 0.3333333333333333,
              "duration": 0.14583333333333334
            },
            {
              "pitch": 47,
              "velocity": 110,
              "position": 0.5,
              "duration": 0.3125
            },
            {
              "pitch": 48,
              "velocity": 110,
              "position": 1,
              "duration": 0.3125
            },
            {
              "pitch": 47,
              "velocity": 110,
              "position": 1.5,
              "duration": 0.3125
            },
            {
              "pitch": 48,
              "velocity": 110,
              "position": 2,
              "duration": 0.3125
            },
            {
              "pitch": 48,
              "velocity": 110,
              "position": 3,
              "duration": 0.3125
            }
          ]
        },
        "12": {
          "ctab": {
            "srcChannel": 12,
            "name": "SolidGtr",
            "accType": "CHORD2",
            "editable": false,
            "mutedNotes": [],
            "mutedChords": [],
            "autoStart": false,
            "sourceChordNote": 0,
            "sourceChordType": "Maj7",
            "ctb2Low": null,
            "ctb2Main": {
              "ntr": "ROOT_TRANSPOSITION",
              "ntt": "CHORD",
              "bassOn": true,
              "chordRootUpperLimit": 7,
              "noteLowLimit": 0,
              "noteHighLimit": 127,
              "rtr": "PITCH_SHIFT"
            },
            "ctb2High": null
          },
          "notes": [
            {
              "pitch": 48,
              "velocity": 77,
              "position": 0,
              "duration": 0.03125
            },
            {
              "pitch": 55,
              "velocity": 82,
              "position": 0,
              "duration": 0.03125
            },
            {
              "pitch": 59,
              "velocity": 82,
              "position": 0,
              "duration": 0.03125
            },
            {
              "pitch": 60,
              "velocity": 82,
              "position": 0.010416666666666666,
              "duration": 0.03333333333333333
            },
            {
              "pitch": 64,
              "velocity": 82,
              "position": 0.020833333333333332,
              "duration": 0.052083333333333336
            },
            {
              "pitch": 60,
              "velocity": 68,
              "position": 0.34375,
              "duration": 0.1375
            },
            {
              "pitch": 55,
              "velocity": 68,
              "position": 0.3541666666666667,
              "duration": 0.13541666666666666
            },
            {
              "pitch": 59,
              "velocity": 68,
              "position": 0.3541666666666667,
              "duration": 0.13541666666666666
            },
            {
              "pitch": 48,
              "velocity": 63,
              "position": 0.3541666666666667,
              "duration": 0.13541666666666666
            },
            {
              "pitch": 64,
              "velocity": 68,
              "position": 0.3333333333333333,
              "duration": 0.15625
            },
            {
              "pitch": 64,
              "velocity": 40,
              "position": 0.5208333333333334,
              "duration": 0.2916666666666667
            },
            {
              "pitch": 60,
              "velocity": 40,
              "position": 0.5104166666666666,
              "duration": 0.3020833333333333
            },
            {
              "pitch": 48,
              "velocity": 35,
              "position": 0.5,
              "duration": 0.3125
            },
            {
              "pitch": 55,
              "velocity": 40,
              "position": 0.5,
              "duration": 0.3125
            },
            {
              "pitch": 59,
              "velocity": 40,
              "position": 0.5,
              "duration": 0.3125
            },
            {
              "pitch": 60,
              "velocity": 55,
              "position": 0.84375,
              "duration": 0.1375
            },
            {
              "pitch": 55,
              "velocity": 55,
              "position": 0.8541666666666666,
              "duration": 0.13541666666666666
            },
            {
              "pitch": 59,
              "velocity": 55,
              "position": 0.8541666666666666,
              "duration": 0.13541666666666666
            },
            {
              "pitch": 48,
              "velocity": 50,
              "position": 0.8541666666666666,
              "duration": 0.13541666666666666
            },
            {
              "pitch": 64,
              "velocity": 55,
              "position": 0.8333333333333334,
              "duration": 0.15625
            },
            {
              "pitch": 48,
              "velocity": 67,
              "position": 1,
              "duration": 0.03125
            },
            {
              "pitch": 55,
              "velocity": 72,
              "position": 1,
              "duration": 0.03125
            },
            {
              "pitch": 59,
              "velocity": 72,
              "position": 1,
              "duration": 0.03125
            },
            {
              "pitch": 60,
              "velocity": 72,
              "position": 1.0104166666666667,
              "duration": 0.03333333333333333
            },
            {
              "pitch": 64,
              "velocity": 72,
              "position": 1.0208333333333333,
              "duration": 0.052083333333333336
            },
            {
              "pitch": 60,
              "velocity": 55,
              "position": 1.34375,
              "duration": 0.13541666666666666
            },
            {
              "pitch": 55,
              "velocity": 55,
              "position": 1.3541666666666667,
              "duration": 0.12708333333333333
            },
            {
              "pitch": 59,
              "velocity": 55,
              "position": 1.3541666666666667,
              "duration": 0.12708333333333333
            },
            {
              "pitch": 48,
              "velocity": 50,
              "position": 1.3541666666666667,
              "duration": 0.12708333333333333
            },
            {
              "pitch": 64,
              "velocity": 55,
              "position": 1.3333333333333333,
              "duration": 0.14791666666666667
            },
            {
              "pitch": 60,
              "velocity": 82,
              "position": 1.5,
              "duration": 0.03333333333333333
            },
            {
              "pitch": 55,
              "velocity": 82,
              "position": 1.5104166666666667,
              "duration": 0.03125
            },
            {
              "pitch": 59,
              "velocity": 82,
              "position": 1.5104166666666667,
              "duration": 0.03125
            },
            {
              "pitch": 48,
              "velocity": 77,
              "position": 1.5104166666666667,
              "duration": 0.03125
            },
            {
              "pitch": 64,
              "velocity": 82,
              "position": 1.5104166666666667,
              "duration": 0.052083333333333336
            },
            {
              "pitch": 60,
              "velocity": 68,
              "position": 1.84375,
              "duration": 0.1375
            },
            {
              "pitch": 55,
              "velocity": 68,
              "position": 1.8541666666666667,
              "duration": 0.13541666666666666
            },
            {
              "pitch": 59,
              "velocity": 68,
              "position": 1.8541666666666667,
              "duration": 0.13541666666666666
            },
            {
              "pitch": 48,
              "velocity": 63,
              "position": 1.8541666666666667,
              "duration": 0.13541666666666666
            },
            {
              "pitch": 64,
              "velocity": 68,
              "position": 1.8333333333333333,
              "duration": 0.15625
            },
            {
              "pitch": 60,
              "velocity": 55,
              "position": 2.0104166666666665,
              "duration": 0.14791666666666667
            },
            {
              "pitch": 55,
              "velocity": 55,
              "position": 2,
              "duration": 0.16666666666666666
            },
            {
              "pitch": 59,
              "velocity": 55,
              "position": 2,
              "duration": 0.16666666666666666
            },
            {
              "pitch": 48,
              "velocity": 50,
              "position": 2,
              "duration": 0.16666666666666666
            },
            {
              "pitch": 64,
              "velocity": 55,
              "position": 2.0208333333333335,
              "duration": 0.14583333333333334
            },
            {
              "pitch": 60,
              "velocity": 116,
              "position": 3.0104166666666665,
              "duration": 0.8041666666666667
            },
            {
              "pitch": 55,
              "velocity": 116,
              "position": 3,
              "duration": 0.8229166666666666
            },
            {
              "pitch": 59,
              "velocity": 116,
              "position": 3,
              "duration": 0.8229166666666666
            },
            {
              "pitch": 48,
              "velocity": 111,
              "position": 3,
              "duration": 0.8229166666666666
            },
            {
              "pitch": 64,
              "velocity": 118,
              "position": 3.0208333333333335,
              "duration": 0.8020833333333334
            }
          ]
        },
        "13": {
          "ctab": {
            "srcChannel": 13,
            "name": "E.Piano",
            "accType": "PAD",
            "editable": false,
            "mutedNotes": [],
            "mutedChords": [],
            "autoStart": false,
            "sourceChordNote": 0,
            "sourceChordType": "Maj7",
            "ctb2Low": null,
            "ctb2Main": {
              "ntr": "ROOT_FIXED",
              "ntt": "CHORD",
              "bassOn": false,
              "chordRootUpperLimit": 7,
              "noteLowLimit": 0,
              "noteHighLimit": 127,
              "rtr": "PITCH_SHIFT"
            },
            "ctb2High": null
          },
          "notes": [
            {
              "pitch": 55,
              "velocity": 85,
              "position": 0,
              "duration": 1.9895833333333333
            },
            {
              "pitch": 64,
              "velocity": 85,
              "position": 0,
              "duration": 1.9895833333333333
            },
            {
              "pitch": 59,
              "velocity": 85,
              "position": 0,
              "duration": 1.9895833333333333
            },
            {
              "pitch": 55,
              "velocity": 85,
              "position": 2,
              "duration": 0.15625
            },
            {
              "pitch": 64,
              "velocity": 85,
              "position": 2,
              "duration": 0.15625
            },
            {
              "pitch": 59,
              "velocity": 85,
              "position": 2,
              "duration": 0.15625
            },
            {
              "pitch": 55,
              "velocity": 85,
              "position": 3,
              "duration": 0.15625
            },
            {
              "pitch": 64,
              "velocity": 85,
              "position": 3,
              "duration": 0.15625
            },
            {
              "pitch": 59,
              "velocity": 85,
              "position": 3,
              "duration": 0.15625
            }
          ]
        },
        "14": {
          "ctab": {
            "srcChannel": 14,
            "name": "TenorSax",
            "accType": "PHRASE1",
            "editable": false,
            "mutedNotes": [],
            "mutedChords": [],
            "autoStart": false,
            "sourceChordNote": 0,
            "sourceChordType": "Maj7",
            "ctb2Low": null,
            "ctb2Main": {
              "ntr": "ROOT_TRANSPOSITION",
              "ntt": "MELODY",
              "bassOn": false,
              "chordRootUpperLimit": 7,
              "noteLowLimit": 0,
              "noteHighLimit": 127,
              "rtr": "PITCH_SHIFT"
            },
            "ctb2High": null
          },
          "notes": [
            {
              "pitch": 60,
              "velocity": 81,
              "position": 0,
              "duration": 2
            }
          ]
        },
        "15": {
          "ctab": {
            "srcChannel": 15,
            "name": "Brass",
            "accType": "PHRASE2",
            "editable": false,
            "mutedNotes": [],
            "mutedChords": [],
            "autoStart": false,
            "sourceChordNote": 0,
            "sourceChordType": "Maj7",
            "ctb2Low": null,
            "ctb2Main": {
              "ntr": "ROOT_FIXED",
              "ntt": "CHORD",
              "bassOn": false,
              "chordRootUpperLimit": 7,
              "noteLowLimit": 0,
              "noteHighLimit": 127,
              "rtr": "PITCH_SHIFT"
            },
            "ctb2High": null
          },
          "notes": [
            {
              "pitch": 71,
              "velocity": 84,
              "position": 2,
              "duration": 0.3333333333333333
            },
            {
              "pitch": 84,
              "velocity": 85,
              "position": 2,
              "duration": 0.3333333333333333
            },
            {
              "pitch": 79,
              "velocity": 84,
              "position": 2,
              "duration": 0.3333333333333333
            },
            {
              "pitch": 76,
              "velocity": 84,
              "position": 2,
              "duration": 0.3333333333333333
            },
            {
              "pitch": 71,
              "velocity": 84,
              "position": 3,
              "duration": 0.3333333333333333
            },
            {
              "pitch": 84,
              "velocity": 85,
              "position": 3,
              "duration": 0.3333333333333333
            },
            {
              "pitch": 79,
              "velocity": 84,
              "position": 3,
              "duration": 0.3333333333333333
            },
            {
              "pitch": 76,
              "velocity": 84,
              "position": 3,
              "duration": 0.3333333333333333
            }
          ]
        }
      }
    },
    "Intro_A": {
      "type": "Intro_A",
      "sizeInBeats": 4,
      "channels": {
        "2": {
          "ctab": {
            "srcChannel": 2,
            "name": "ClaviBs",
            "accType": "CHORD1",
            "editable": false,
            "mutedNotes": [],
            "mutedChords": [],
            "autoStart": false,
            "sourceChordNote": 0,
            "sourceChordType": "Maj7",
            "ctb2Low": null,
            "ctb2Main": {
              "ntr": "ROOT_TRANSPOSITION",
              "ntt": "MELODY",
              "bassOn": true,
              "chordRootUpperLimit": 8,
              "noteLowLimit": 28,
              "noteHighLimit": 127,
              "rtr": "PITCH_SHIFT_TO_ROOT"
            },
            "ctb2High": null
          },
          "notes": []
        },
        "4": {
          "ctab": {
            "srcChannel": 4,
            "name": "E.P  rt",
            "accType": "PAD",
            "editable": false,
            "mutedNotes": [],
            "mutedChords": [
              "1+2+5",
              "sus4",
              "1+5",
              "1+8",
              "Maj7aug",
              "dim",
              "minMaj7(9)",
              "minMaj7",
              "min6",
              "min",
              "aug",
              "Maj7(9)",
              "Maj7#11",
              "Maj7",
              "Maj6",
              "Maj"
            ],
            "autoStart": false,
            "sourceChordNote": 0,
            "sourceChordType": "Maj7",
            "ctb2Low": null,
            "ctb2Main": {
              "ntr": "ROOT_TRANSPOSITION",
              "ntt": "CHORD",
              "bassOn": false,
              "chordRootUpperLimit": 6,
              "noteLowLimit": 0,
              "noteHighLimit": 127,
              "rtr": "PITCH_SHIFT"
            },
            "ctb2High": null
          },
          "notes": []
        },
        "8": {
          "ctab": {
            "srcChannel": 8,
            "name": "AddDrum",
            "accType": "SUBRHYTHM",
            "editable": false,
            "mutedNotes": [],
            "mutedChords": [],
            "autoStart": true,
            "sourceChordNote": 0,
            "sourceChordType": "Maj7",
            "ctb2Low": null,
            "ctb2Main": {
              "ntr": "ROOT_FIXED",
              "ntt": "BYPASS",
              "bassOn": false,
              "chordRootUpperLimit": 6,
              "noteLowLimit": 0,
              "noteHighLimit": 127,
              "rtr": "PITCH_SHIFT"
            },
            "ctb2High": null
          },
          "notes": []
        },
        "9": {
          "ctab": {
            "srcChannel": 9,
            "name": "MainDrum",
            "accType": "RHYTHM",
            "editable": false,
            "mutedNotes": [],
            "mutedChords": [],
            "autoStart": true,
            "sourceChordNote": 0,
            "sourceChordType": "Maj7",
            "ctb2Low": null,
            "ctb2Main": {
              "ntr": "ROOT_FIXED",
              "ntt": "BYPASS",
              "bassOn": false,
              "chordRootUpperLimit": 6,
              "noteLowLimit": 0,
              "noteHighLimit": 127,
              "rtr": "PITCH_SHIFT"
            },
            "ctb2High": null
          },
          "notes": [
            {
              "pitch": 32,
              "velocity": 80,
              "position": 0,
              "duration": 0.010416666666666666
            },
            {
              "pitch": 32,
              "velocity": 80,
              "position": 1,
              "duration": 0.010416666666666666
            },
            {
              "pitch": 40,
              "velocity": 86,
              "position": 2,
              "duration": 0.010416666666666666
            },
            {
              "pitch": 40,
              "velocity": 101,
              "position": 3,
              "duration": 0.010416666666666666
            },
            {
              "pitch": 40,
              "velocity": 57,
              "position": 3.5,
              "duration": 0.010416666666666666
            },
            {
              "pitch": 40,
              "velocity": 111,
              "position": 3.8125,
              "duration": 0.010416666666666666
            },
            {
              "pitch": 49,
              "velocity": 74,
              "position": 3.9895833333333335,
              "duration": 0.010416666666666666
            }
          ]
        },
        "10": {
          "ctab": {
            "srcChannel": 10,
            "name": "Bass",
            "accType": "BASS",
            "editable": false,
            "mutedNotes": [],
            "mutedChords": [],
            "autoStart": false,
            "sourceChordNote": 0,
            "sourceChordType": "Maj7",
            "ctb2Low": null,
            "ctb2Main": {
              "ntr": "ROOT_TRANSPOSITION",
              "ntt": "MELODY",
              "bassOn": true,
              "chordRootUpperLimit": 8,
              "noteLowLimit": 28,
              "noteHighLimit": 127,
              "rtr": "PITCH_SHIFT_TO_ROOT"
            },
            "ctb2High": null
          },
          "notes": []
        },
        "11": {
          "ctab": {
            "srcChannel": 11,
            "name": "Clavi",
            "accType": "CHORD1",
            "editable": false,
            "mutedNotes": [],
            "mutedChords": [],
            "autoStart": false,
            "sourceChordNote": 0,
            "sourceChordType": "Maj7",
            "ctb2Low": null,
            "ctb2Main": {
              "ntr": "ROOT_TRANSPOSITION",
              "ntt": "CHORD",
              "bassOn": false,
              "chordRootUpperLimit": 7,
              "noteLowLimit": 0,
              "noteHighLimit": 127,
              "rtr": "PITCH_SHIFT"
            },
            "ctb2High": null
          },
          "notes": []
        },
        "12": {
          "ctab": {
            "srcChannel": 12,
            "name": "SolidGtr",
            "accType": "CHORD2",
            "editable": false,
            "mutedNotes": [],
            "mutedChords": [],
            "autoStart": false,
            "sourceChordNote": 0,
            "sourceChordType": "Maj7",
            "ctb2Low": null,
            "ctb2Main": {
              "ntr": "ROOT_TRANSPOSITION",
              "ntt": "CHORD",
              "bassOn": true,
              "chordRootUpperLimit": 7,
              "noteLowLimit": 0,
              "noteHighLimit": 127,
              "rtr": "PITCH_SHIFT"
            },
            "ctb2High": null
          },
          "notes": []
        },
        "13": {
          "ctab": {
            "srcChannel": 13,
            "name": "E.Piano",
            "accType": "PAD",
            "editable": false,
            "mutedNotes": [],
            "mutedChords": [],
            "autoStart": false,
            "sourceChordNote": 0,
            "sourceChordType": "Maj7",
            "ctb2Low": null,
            "ctb2Main": {
              "ntr": "ROOT_FIXED",
              "ntt": "CHORD",
              "bassOn": false,
              "chordRootUpperLimit": 7,
              "noteLowLimit": 0,
              "noteHighLimit": 127,
              "rtr": "PITCH_SHIFT"
            },
            "ctb2High": null
          },
          "notes": []
        },
        "14": {
          "ctab": {
            "srcChannel": 14,
            "name": "TenorSax",
            "accType": "PHRASE1",
            "editable": false,
            "mutedNotes": [],
            "mutedChords": [],
            "autoStart": false,
            "sourceChordNote": 0,
            "sourceChordType": "Maj7",
            "ctb2Low": null,
            "ctb2Main": {
              "ntr": "ROOT_TRANSPOSITION",
              "ntt": "MELODY",
              "bassOn": false,
              "chordRootUpperLimit": 7,
              "noteLowLimit": 0,
              "noteHighLimit": 127,
              "rtr": "PITCH_SHIFT"
            },
            "ctb2High": null
          },
          "notes": []
        },
        "15": {
          "ctab": {
            "srcChannel": 15,
            "name": "Brass",
            "accType": "PHRASE2",
            "editable": false,
            "mutedNotes": [],
            "mutedChords": [],
            "autoStart": false,
            "sourceChordNote": 0,
            "sourceChordType": "Maj7",
            "ctb2Low": null,
            "ctb2Main": {
              "ntr": "ROOT_FIXED",
              "ntt": "CHORD",
              "bassOn": false,
              "chordRootUpperLimit": 7,
              "noteLowLimit": 0,
              "noteHighLimit": 127,
              "rtr": "PITCH_SHIFT"
            },
            "ctb2High": null
          },
          "notes": []
        }
      }
    },
    "Ending_A": {
      "type": "Ending_A",
      "sizeInBeats": 4,
      "channels": {
        "2": {
          "ctab": {
            "srcChannel": 2,
            "name": "ClaviBs",
            "accType": "CHORD1",
            "editable": false,
            "mutedNotes": [],
            "mutedChords": [],
            "autoStart": false,
            "sourceChordNote": 0,
            "sourceChordType": "Maj7",
            "ctb2Low": null,
            "ctb2Main": {
              "ntr": "ROOT_TRANSPOSITION",
              "ntt": "MELODY",
              "bassOn": true,
              "chordRootUpperLimit": 8,
              "noteLowLimit": 28,
              "noteHighLimit": 127,
              "rtr": "PITCH_SHIFT_TO_ROOT"
            },
            "ctb2High": null
          },
          "notes": [
            {
              "pitch": 36,
              "velocity": 101,
              "position": 0,
              "duration": 2.9895833333333335
            }
          ]
        },
        "4": {
          "ctab": {
            "srcChannel": 4,
            "name": "E.P  rt",
            "accType": "PAD",
            "editable": false,
            "mutedNotes": [],
            "mutedChords": [
              "1+2+5",
              "sus4",
              "1+5",
              "1+8",
              "Maj7aug",
              "dim",
              "minMaj7(9)",
              "minMaj7",
              "min6",
              "min",
              "aug",
              "Maj7(9)",
              "Maj7#11",
              "Maj7",
              "Maj6",
              "Maj"
            ],
            "autoStart": false,
            "sourceChordNote": 0,
            "sourceChordType": "Maj7",
            "ctb2Low": null,
            "ctb2Main": {
              "ntr": "ROOT_TRANSPOSITION",
              "ntt": "CHORD",
              "bassOn": false,
              "chordRootUpperLimit": 6,
              "noteLowLimit": 0,
              "noteHighLimit": 127,
              "rtr": "PITCH_SHIFT"
            },
            "ctb2High": null
          },
          "notes": [
            {
              "pitch": 60,
              "velocity": 94,
              "position": 0,
              "duration": 2.9895833333333335
            }
          ]
        },
        "8": {
          "ctab": {
            "srcChannel": 8,
            "name": "AddDrum",
            "accType": "SUBRHYTHM",
            "editable": false,
            "mutedNotes": [],
            "mutedChords": [],
            "autoStart": true,
            "sourceChordNote": 0,
            "sourceChordType": "Maj7",
            "ctb2Low": null,
            "ctb2Main": {
              "ntr": "ROOT_FIXED",
              "ntt": "BYPASS",
              "bassOn": false,
              "chordRootUpperLimit": 6,
              "noteLowLimit": 0,
              "noteHighLimit": 127,
              "rtr": "PITCH_SHIFT"
            },
            "ctb2High": null
          },
          "notes": []
        },
        "9": {
          "ctab": {
            "srcChannel": 9,
            "name": "MainDrum",
            "accType": "RHYTHM",
            "editable": false,
            "mutedNotes": [],
            "mutedChords": [],
            "autoStart": true,
            "sourceChordNote": 0,
            "sourceChordType": "Maj7",
            "ctb2Low": null,
            "ctb2Main": {
              "ntr": "ROOT_FIXED",
              "ntt": "BYPASS",
              "bassOn": false,
              "chordRootUpperLimit": 6,
              "noteLowLimit": 0,
              "noteHighLimit": 127,
              "rtr": "PITCH_SHIFT"
            },
            "ctb2High": null
          },
          "notes": [
            {
              "pitch": 35,
              "velocity": 90,
              "position": 0,
              "duration": 0.010416666666666666
            },
            {
              "pitch": 52,
              "velocity": 69,
              "position": 0,
              "duration": 0.010416666666666666
            },
            {
              "pitch": 42,
              "velocity": 116,
              "position": 0,
              "duration": 0.010416666666666666
            },
            {
              "pitch": 49,
              "velocity": 35,
              "position": 0.375,
              "duration": 0.010416666666666666
            },
            {
              "pitch": 57,
              "velocity": 24,
              "position": 0.5041666666666667,
              "duration": 0.010416666666666666
            },
            {
              "pitch": 49,
              "velocity": 37,
              "position": 0.6208333333333333,
              "duration": 0.010416666666666666
            },
            {
              "pitch": 57,
              "velocity": 29,
              "position": 0.7604166666666666,
              "duration": 0.010416666666666666
            },
            {
              "pitch": 49,
              "velocity": 34,
              "position": 0.8854166666666666,
              "duration": 0.010416666666666666
            },
            {
              "pitch": 57,
              "velocity": 28,
              "position": 0.9875,
              "duration": 0.010416666666666666
            },
            {
              "pitch": 49,
              "velocity": 44,
              "position": 1.1229166666666666,
              "duration": 0.010416666666666666
            },
            {
              "pitch": 57,
              "velocity": 38,
              "position": 1.24375,
              "duration": 0.010416666666666666
            },
            {
              "pitch": 49,
              "velocity": 49,
              "position": 1.3833333333333333,
              "duration": 0.010416666666666666
            },
            {
              "pitch": 57,
              "velocity": 41,
              "position": 1.5,
              "duration": 0.010416666666666666
            },
            {
              "pitch": 49,
              "velocity": 53,
              "position": 1.6166666666666667,
              "duration": 0.010416666666666666
            },
            {
              "pitch": 57,
              "velocity": 48,
              "position": 1.74375,
              "duration": 0.010416666666666666
            },
            {
              "pitch": 49,
              "velocity": 66,
              "position": 1.8770833333333334,
              "duration": 0.010416666666666666
            },
            {
              "pitch": 57,
              "velocity": 62,
              "position": 2.00625,
              "duration": 0.010416666666666666
            },
            {
              "pitch": 49,
              "velocity": 68,
              "position": 2.129166666666667,
              "duration": 0.010416666666666666
            },
            {
              "pitch": 57,
              "velocity": 69,
              "position": 2.252083333333333,
              "duration": 0.010416666666666666
            },
            {
              "pitch": 49,
              "velocity": 86,
              "position": 2.375,
              "duration": 0.010416666666666666
            },
            {
              "pitch": 40,
              "velocity": 97,
              "position": 2.75,
              "duration": 0.010416666666666666
            },
            {
              "pitch": 43,
              "velocity": 82,
              "position": 2.875,
              "duration": 0.010416666666666666
            },
            {
              "pitch": 35,
              "velocity": 100,
              "position": 3,
              "duration": 0.010416666666666666
            }
          ]
        },
        "10": {
          "ctab": {
            "srcChannel": 10,
            "name": "Bass",
            "accType": "BASS",
            "editable": false,
            "mutedNotes": [],
            "mutedChords": [],
            "autoStart": false,
            "sourceChordNote": 0,
            "sourceChordType": "Maj7",
            "ctb2Low": null,
            "ctb2Main": {
              "ntr": "ROOT_TRANSPOSITION",
              "ntt": "MELODY",
              "bassOn": true,
              "chordRootUpperLimit": 8,
              "noteLowLimit": 28,
              "noteHighLimit": 127,
              "rtr": "PITCH_SHIFT_TO_ROOT"
            },
            "ctb2High": null
          },
          "notes": [
            {
              "pitch": 24,
              "velocity": 70,
              "position": 0,
              "duration": 2.9895833333333335
            }
          ]
        },
        "11": {
          "ctab": {
            "srcChannel": 11,
            "name": "Clavi",
            "accType": "CHORD1",
            "editable": false,
            "mutedNotes": [],
            "mutedChords": [],
            "autoStart": false,
            "sourceChordNote": 0,
            "sourceChordType": "Maj7",
            "ctb2Low": null,
            "ctb2Main": {
              "ntr": "ROOT_TRANSPOSITION",
              "ntt": "CHORD",
              "bassOn": false,
              "chordRootUpperLimit": 7,
              "noteLowLimit": 0,
              "noteHighLimit": 127,
              "rtr": "PITCH_SHIFT"
            },
            "ctb2High": null
          },
          "notes": [
            {
              "pitch": 55,
              "velocity": 55,
              "position": 0,
              "duration": 2.9791666666666665
            },
            {
              "pitch": 64,
              "velocity": 55,
              "position": 0,
              "duration": 2.9791666666666665
            },
            {
              "pitch": 59,
              "velocity": 55,
              "position": 0,
              "duration": 2.9791666666666665
            }
          ]
        },
        "12": {
          "ctab": {
            "srcChannel": 12,
            "name": "SolidGtr",
            "accType": "CHORD2",
            "editable": false,
            "mutedNotes": [],
            "mutedChords": [],
            "autoStart": false,
            "sourceChordNote": 0,
            "sourceChordType": "Maj7",
            "ctb2Low": null,
            "ctb2Main": {
              "ntr": "ROOT_TRANSPOSITION",
              "ntt": "CHORD",
              "bassOn": true,
              "chordRootUpperLimit": 7,
              "noteLowLimit": 0,
              "noteHighLimit": 127,
              "rtr": "PITCH_SHIFT"
            },
            "ctb2High": null
          },
          "notes": [
            {
              "pitch": 48,
              "velocity": 55,
              "position": 0,
              "duration": 2.96875
            },
            {
              "pitch": 55,
              "velocity": 55,
              "position": 0.020833333333333332,
              "duration": 2.96875
            },
            {
              "pitch": 59,
              "velocity": 55,
              "position": 0.020833333333333332,
              "duration": 2.96875
            },
            {
              "pitch": 60,
              "velocity": 55,
              "position": 0.010416666666666666,
              "duration": 2.9791666666666665
            },
            {
              "pitch": 64,
              "velocity": 55,
              "position": 0.020833333333333332,
              "duration": 2.96875
            }
          ]
        },
        "13": {
          "ctab": {
            "srcChannel": 13,
            "name": "E.Piano",
            "accType": "PAD",
            "editable": false,
            "mutedNotes": [],
            "mutedChords": [],
            "autoStart": false,
            "sourceChordNote": 0,
            "sourceChordType": "Maj7",
            "ctb2Low": null,
            "ctb2Main": {
              "ntr": "ROOT_FIXED",
              "ntt": "CHORD",
              "bassOn": false,
              "chordRootUpperLimit": 7,
              "noteLowLimit": 0,
              "noteHighLimit": 127,
              "rtr": "PITCH_SHIFT"
            },
            "ctb2High": null
          },
          "notes": [
            {
              "pitch": 59,
              "velocity": 98,
              "position": 0,
              "duration": 2.9895833333333335
            },
            {
              "pitch": 67,
              "velocity": 98,
              "position": 0,
              "duration": 2.9895833333333335
            },
            {
              "pitch": 64,
              "velocity": 98,
              "position": 0,
              "duration": 2.9895833333333335
            }
          ]
        },
        "14": {
          "ctab": {
            "srcChannel": 14,
            "name": "TenorSax",
            "accType": "PHRASE1",
            "editable": false,
            "mutedNotes": [],
            "mutedChords": [],
            "autoStart": false,
            "sourceChordNote": 0,
            "sourceChordType": "Maj7",
            "ctb2Low": null,
            "ctb2Main": {
              "ntr": "ROOT_TRANSPOSITION",
              "ntt": "MELODY",
              "bassOn": false,
              "chordRootUpperLimit": 7,
              "noteLowLimit": 0,
              "noteHighLimit": 127,
              "rtr": "PITCH_SHIFT"
            },
            "ctb2High": null
          },
          "notes": [
            {
              "pitch": 60,
              "velocity": 87,
              "position": 0,
              "duration": 2.9895833333333335
            }
          ]
        },
        "15": {
          "ctab": {
            "srcChannel": 15,
            "name": "Brass",
            "accType": "PHRASE2",
            "editable": false,
            "mutedNotes": [],
            "mutedChords": [],
            "autoStart": false,
            "sourceChordNote": 0,
            "sourceChordType": "Maj7",
            "ctb2Low": null,
            "ctb2Main": {
              "ntr": "ROOT_FIXED",
              "ntt": "CHORD",
              "bassOn": false,
              "chordRootUpperLimit": 7,
              "noteLowLimit": 0,
              "noteHighLimit": 127,
              "rtr": "PITCH_SHIFT"
            },
            "ctb2High": null
          },
          "notes": [
            {
              "pitch": 67,
              "velocity": 85,
              "position": 0,
              "duration": 2.9895833333333335
            },
            {
              "pitch": 79,
              "velocity": 85,
              "position": 0,
              "duration": 2.9895833333333335
            }
          ]
        }
      }
    },
    "Fill_In_BA": {
      "type": "Fill_In_BA",
      "sizeInBeats": 4,
      "channels": {
        "2": {
          "ctab": {
            "srcChannel": 2,
            "name": "ClaviBs",
            "accType": "CHORD1",
            "editable": false,
            "mutedNotes": [],
            "mutedChords": [],
            "autoStart": false,
            "sourceChordNote": 0,
            "sourceChordType": "Maj7",
            "ctb2Low": null,
            "ctb2Main": {
              "ntr": "ROOT_TRANSPOSITION",
              "ntt": "MELODY",
              "bassOn": true,
              "chordRootUpperLimit": 8,
              "noteLowLimit": 28,
              "noteHighLimit": 127,
              "rtr": "PITCH_SHIFT_TO_ROOT"
            },
            "ctb2High": null
          },
          "notes": [
            {
              "pitch": 36,
              "velocity": 101,
              "position": 0,
              "duration": 0.4895833333333333
            }
          ]
        },
        "4": {
          "ctab": {
            "srcChannel": 4,
            "name": "E.P  rt",
            "accType": "PAD",
            "editable": false,
            "mutedNotes": [],
            "mutedChords": [
              "1+2+5",
              "sus4",
              "1+5",
              "1+8",
              "Maj7aug",
              "dim",
              "minMaj7(9)",
              "minMaj7",
              "min6",
              "min",
              "aug",
              "Maj7(9)",
              "Maj7#11",
              "Maj7",
              "Maj6",
              "Maj"
            ],
            "autoStart": false,
            "sourceChordNote": 0,
            "sourceChordType": "Maj7",
            "ctb2Low": null,
            "ctb2Main": {
              "ntr": "ROOT_TRANSPOSITION",
              "ntt": "CHORD",
              "bassOn": false,
              "chordRootUpperLimit": 6,
              "noteLowLimit": 0,
              "noteHighLimit": 127,
              "rtr": "PITCH_SHIFT"
            },
            "ctb2High": null
          },
          "notes": [
            {
              "pitch": 60,
              "velocity": 101,
              "position": 0,
              "duration": 0.3229166666666667
            },
            {
              "pitch": 60,
              "velocity": 94,
              "position": 0.3333333333333333,
              "duration": 0.15625
            },
            {
              "pitch": 60,
              "velocity": 94,
              "position": 3,
              "duration": 0.9895833333333334
            }
          ]
        },
        "8": {
          "ctab": {
            "srcChannel": 8,
            "name": "AddDrum",
            "accType": "SUBRHYTHM",
            "editable": false,
            "mutedNotes": [],
            "mutedChords": [],
            "autoStart": true,
            "sourceChordNote": 0,
            "sourceChordType": "Maj7",
            "ctb2Low": null,
            "ctb2Main": {
              "ntr": "ROOT_FIXED",
              "ntt": "BYPASS",
              "bassOn": false,
              "chordRootUpperLimit": 6,
              "noteLowLimit": 0,
              "noteHighLimit": 127,
              "rtr": "PITCH_SHIFT"
            },
            "ctb2High": null
          },
          "notes": [
            {
              "pitch": 54,
              "velocity": 70,
              "position": 0,
              "duration": 0.010416666666666666
            },
            {
              "pitch": 69,
              "velocity": 41,
              "position": 0,
              "duration": 0.010416666666666666
            },
            {
              "pitch": 64,
              "velocity": 80,
              "position": 0,
              "duration": 0.010416666666666666
            },
            {
              "pitch": 54,
              "velocity": 18,
              "position": 0.3333333333333333,
              "duration": 0.010416666666666666
            },
            {
              "pitch": 69,
              "velocity": 64,
              "position": 0.3333333333333333,
              "duration": 0.010416666666666666
            },
            {
              "pitch": 54,
              "velocity": 82,
              "position": 3,
              "duration": 0.010416666666666666
            },
            {
              "pitch": 69,
              "velocity": 77,
              "position": 3,
              "duration": 0.010416666666666666
            },
            {
              "pitch": 62,
              "velocity": 80,
              "position": 3,
              "duration": 0.010416666666666666
            },
            {
              "pitch": 54,
              "velocity": 18,
              "position": 3.3333333333333335,
              "duration": 0.010416666666666666
            },
            {
              "pitch": 54,
              "velocity": 42,
              "position": 3.5,
              "duration": 0.010416666666666666
            },
            {
              "pitch": 69,
              "velocity": 64,
              "position": 3.5,
              "duration": 0.010416666666666666
            },
            {
              "pitch": 64,
              "velocity": 80,
              "position": 3.5,
              "duration": 0.010416666666666666
            },
            {
              "pitch": 54,
              "velocity": 16,
              "position": 3.8333333333333335,
              "duration": 0.010416666666666666
            },
            {
              "pitch": 69,
              "velocity": 33,
              "position": 3.8333333333333335,
              "duration": 0.010416666666666666
            }
          ]
        },
        "9": {
          "ctab": {
            "srcChannel": 9,
            "name": "MainDrum",
            "accType": "RHYTHM",
            "editable": false,
            "mutedNotes": [],
            "mutedChords": [],
            "autoStart": true,
            "sourceChordNote": 0,
            "sourceChordType": "Maj7",
            "ctb2Low": null,
            "ctb2Main": {
              "ntr": "ROOT_FIXED",
              "ntt": "BYPASS",
              "bassOn": false,
              "chordRootUpperLimit": 6,
              "noteLowLimit": 0,
              "noteHighLimit": 127,
              "rtr": "PITCH_SHIFT"
            },
            "ctb2High": null
          },
          "notes": [
            {
              "pitch": 35,
              "velocity": 90,
              "position": 0,
              "duration": 0.010416666666666666
            },
            {
              "pitch": 51,
              "velocity": 70,
              "position": 0,
              "duration": 0.010416666666666666
            },
            {
              "pitch": 42,
              "velocity": 116,
              "position": 0,
              "duration": 0.010416666666666666
            },
            {
              "pitch": 40,
              "velocity": 124,
              "position": 0.3333333333333333,
              "duration": 0.010416666666666666
            },
            {
              "pitch": 55,
              "velocity": 85,
              "position": 0.3333333333333333,
              "duration": 0.010416666666666666
            },
            {
              "pitch": 42,
              "velocity": 88,
              "position": 0.5,
              "duration": 0.010416666666666666
            },
            {
              "pitch": 35,
              "velocity": 100,
              "position": 0.8333333333333334,
              "duration": 0.010416666666666666
            },
            {
              "pitch": 41,
              "velocity": 78,
              "position": 0.8333333333333334,
              "duration": 0.010416666666666666
            },
            {
              "pitch": 44,
              "velocity": 18,
              "position": 1,
              "duration": 0.010416666666666666
            },
            {
              "pitch": 44,
              "velocity": 90,
              "position": 1.5,
              "duration": 0.010416666666666666
            },
            {
              "pitch": 40,
              "velocity": 51,
              "position": 1.6666666666666667,
              "duration": 0.010416666666666666
            },
            {
              "pitch": 40,
              "velocity": 69,
              "position": 1.8333333333333333,
              "duration": 0.010416666666666666
            },
            {
              "pitch": 40,
              "velocity": 124,
              "position": 2,
              "duration": 0.010416666666666666
            },
            {
              "pitch": 44,
              "velocity": 24,
              "position": 2,
              "duration": 0.010416666666666666
            },
            {
              "pitch": 35,
              "velocity": 100,
              "position": 2.3333333333333335,
              "duration": 0.010416666666666666
            },
            {
              "pitch": 44,
              "velocity": 90,
              "position": 2.5,
              "duration": 0.010416666666666666
            },
            {
              "pitch": 40,
              "velocity": 64,
              "position": 2.8333333333333335,
              "duration": 0.010416666666666666
            },
            {
              "pitch": 35,
              "velocity": 98,
              "position": 3,
              "duration": 0.010416666666666666
            },
            {
              "pitch": 42,
              "velocity": 116,
              "position": 3,
              "duration": 0.010416666666666666
            },
            {
              "pitch": 40,
              "velocity": 124,
              "position": 3,
              "duration": 0.010416666666666666
            },
            {
              "pitch": 42,
              "velocity": 38,
              "position": 3.3333333333333335,
              "duration": 0.010416666666666666
            },
            {
              "pitch": 47,
              "velocity": 82,
              "position": 3.3333333333333335,
              "duration": 0.010416666666666666
            },
            {
              "pitch": 43,
              "velocity": 78,
              "position": 3.3333333333333335,
              "duration": 0.010416666666666666
            },
            {
              "pitch": 40,
              "velocity": 124,
              "position": 3.8333333333333335,
              "duration": 0.010416666666666666
            },
            {
              "pitch": 49,
              "velocity": 70,
              "position": 3.9895833333333335,
              "duration": 0.010416666666666666
            }
          ]
        },
        "10": {
          "ctab": {
            "srcChannel": 10,
            "name": "Bass",
            "accType": "BASS",
            "editable": false,
            "mutedNotes": [],
            "mutedChords": [],
            "autoStart": false,
            "sourceChordNote": 0,
            "sourceChordType": "Maj7",
            "ctb2Low": null,
            "ctb2Main": {
              "ntr": "ROOT_TRANSPOSITION",
              "ntt": "MELODY",
              "bassOn": true,
              "chordRootUpperLimit": 8,
              "noteLowLimit": 28,
              "noteHighLimit": 127,
              "rtr": "PITCH_SHIFT_TO_ROOT"
            },
            "ctb2High": null
          },
          "notes": [
            {
              "pitch": 24,
              "velocity": 70,
              "position": 0,
              "duration": 0.3229166666666667
            },
            {
              "pitch": 36,
              "velocity": 100,
              "position": 0.3333333333333333,
              "duration": 0.15625
            },
            {
              "pitch": 24,
              "velocity": 105,
              "position": 2.8333333333333335,
              "duration": 0.15625
            },
            {
              "pitch": 28,
              "velocity": 60,
              "position": 3,
              "duration": 0.3229166666666667
            },
            {
              "pitch": 28,
              "velocity": 105,
              "position": 3.3333333333333335,
              "duration": 0.15625
            },
            {
              "pitch": 31,
              "velocity": 70,
              "position": 3.5,
              "duration": 0.4895833333333333
            }
          ]
        },
        "11": {
          "ctab": {
            "srcChannel": 11,
            "name": "Clavi",
            "accType": "CHORD1",
            "editable": false,
            "mutedNotes": [],
            "mutedChords": [],
            "autoStart": false,
            "sourceChordNote": 0,
            "sourceChordType": "Maj7",
            "ctb2Low": null,
            "ctb2Main": {
              "ntr": "ROOT_TRANSPOSITION",
              "ntt": "CHORD",
              "bassOn": false,
              "chordRootUpperLimit": 7,
              "noteLowLimit": 0,
              "noteHighLimit": 127,
              "rtr": "PITCH_SHIFT"
            },
            "ctb2High": null
          },
          "notes": [
            {
              "pitch": 55,
              "velocity": 55,
              "position": 0,
              "duration": 0.3125
            },
            {
              "pitch": 64,
              "velocity": 55,
              "position": 0,
              "duration": 0.3125
            },
            {
              "pitch": 59,
              "velocity": 55,
              "position": 0,
              "duration": 0.3125
            },
            {
              "pitch": 48,
              "velocity": 110,
              "position": 0.3333333333333333,
              "duration": 0.14583333333333334
            },
            {
              "pitch": 64,
              "velocity": 85,
              "position": 0.3333333333333333,
              "duration": 0.14583333333333334
            },
            {
              "pitch": 59,
              "velocity": 85,
              "position": 0.3333333333333333,
              "duration": 0.14583333333333334
            },
            {
              "pitch": 55,
              "velocity": 85,
              "position": 0.3333333333333333,
              "duration": 0.14583333333333334
            },
            {
              "pitch": 47,
              "velocity": 110,
              "position": 2.8125,
              "duration": 0.1875
            },
            {
              "pitch": 55,
              "velocity": 55,
              "position": 3,
              "duration": 0.3125
            },
            {
              "pitch": 64,
              "velocity": 55,
              "position": 3,
              "duration": 0.3125
            },
            {
              "pitch": 59,
              "velocity": 55,
              "position": 3,
              "duration": 0.3125
            }
          ]
        },
        "12": {
          "ctab": {
            "srcChannel": 12,
            "name": "SolidGtr",
            "accType": "CHORD2",
            "editable": false,
            "mutedNotes": [],
            "mutedChords": [],
            "autoStart": false,
            "sourceChordNote": 0,
            "sourceChordType": "Maj7",
            "ctb2Low": null,
            "ctb2Main": {
              "ntr": "ROOT_TRANSPOSITION",
              "ntt": "CHORD",
              "bassOn": true,
              "chordRootUpperLimit": 7,
              "noteLowLimit": 0,
              "noteHighLimit": 127,
              "rtr": "PITCH_SHIFT"
            },
            "ctb2High": null
          },
          "notes": [
            {
              "pitch": 48,
              "velocity": 55,
              "position": 0,
              "duration": 0.3020833333333333
            },
            {
              "pitch": 60,
              "velocity": 55,
              "position": 0.010416666666666666,
              "duration": 0.30416666666666664
            },
            {
              "pitch": 55,
              "velocity": 55,
              "position": 0.020833333333333332,
              "duration": 0.3020833333333333
            },
            {
              "pitch": 59,
              "velocity": 55,
              "position": 0.020833333333333332,
              "duration": 0.3020833333333333
            },
            {
              "pitch": 64,
              "velocity": 55,
              "position": 0.020833333333333332,
              "duration": 0.3020833333333333
            },
            {
              "pitch": 48,
              "velocity": 55,
              "position": 0.3333333333333333,
              "duration": 0.13541666666666666
            },
            {
              "pitch": 60,
              "velocity": 55,
              "position": 0.34375,
              "duration": 0.1375
            },
            {
              "pitch": 64,
              "velocity": 55,
              "position": 0.3333333333333333,
              "duration": 0.15625
            },
            {
              "pitch": 55,
              "velocity": 55,
              "position": 0.3541666666666667,
              "duration": 0.13541666666666666
            },
            {
              "pitch": 59,
              "velocity": 55,
              "position": 0.3541666666666667,
              "duration": 0.13541666666666666
            },
            {
              "pitch": 60,
              "velocity": 116,
              "position": 3.0104166666666665,
              "duration": 0.9708333333333333
            },
            {
              "pitch": 55,
              "velocity": 116,
              "position": 3,
              "duration": 0.9895833333333334
            },
            {
              "pitch": 59,
              "velocity": 116,
              "position": 3,
              "duration": 0.9895833333333334
            },
            {
              "pitch": 48,
              "velocity": 116,
              "position": 3,
              "duration": 0.9895833333333334
            },
            {
              "pitch": 64,
              "velocity": 118,
              "position": 3.0208333333333335,
              "duration": 0.96875
            }
          ]
        },
        "13": {
          "ctab": {
            "srcChannel": 13,
            "name": "E.Piano",
            "accType": "PAD",
            "editable": false,
            "mutedNotes": [],
            "mutedChords": [],
            "autoStart": false,
            "sourceChordNote": 0,
            "sourceChordType": "Maj7",
            "ctb2Low": null,
            "ctb2Main": {
              "ntr": "ROOT_FIXED",
              "ntt": "CHORD",
              "bassOn": false,
              "chordRootUpperLimit": 7,
              "noteLowLimit": 0,
              "noteHighLimit": 127,
              "rtr": "PITCH_SHIFT"
            },
            "ctb2High": null
          },
          "notes": [
            {
              "pitch": 59,
              "velocity": 105,
              "position": 0,
              "duration": 0.3229166666666667
            },
            {
              "pitch": 67,
              "velocity": 105,
              "position": 0,
              "duration": 0.3229166666666667
            },
            {
              "pitch": 64,
              "velocity": 105,
              "position": 0,
              "duration": 0.3229166666666667
            },
            {
              "pitch": 59,
              "velocity": 98,
              "position": 0.3333333333333333,
              "duration": 0.15625
            },
            {
              "pitch": 67,
              "velocity": 98,
              "position": 0.3333333333333333,
              "duration": 0.15625
            },
            {
              "pitch": 64,
              "velocity": 98,
              "position": 0.3333333333333333,
              "duration": 0.15625
            },
            {
              "pitch": 59,
              "velocity": 98,
              "position": 3,
              "duration": 0.9895833333333334
            },
            {
              "pitch": 67,
              "velocity": 98,
              "position": 3,
              "duration": 0.9895833333333334
            },
            {
              "pitch": 64,
              "velocity": 98,
              "position": 3,
              "duration": 0.9895833333333334
            }
          ]
        },
        "14": {
          "ctab": {
            "srcChannel": 14,
            "name": "TenorSax",
            "accType": "PHRASE1",
            "editable": false,
            "mutedNotes": [],
            "mutedChords": [],
            "autoStart": false,
            "sourceChordNote": 0,
            "sourceChordType": "Maj7",
            "ctb2Low": null,
            "ctb2Main": {
              "ntr": "ROOT_TRANSPOSITION",
              "ntt": "MELODY",
              "bassOn": false,
              "chordRootUpperLimit": 7,
              "noteLowLimit": 0,
              "noteHighLimit": 127,
              "rtr": "PITCH_SHIFT"
            },
            "ctb2High": null
          },
          "notes": [
            {
              "pitch": 60,
              "velocity": 88,
              "position": 0,
              "duration": 0.3229166666666667
            }
          ]
        },
        "15": {
          "ctab": {
            "srcChannel": 15,
            "name": "Brass",
            "accType": "PHRASE2",
            "editable": false,
            "mutedNotes": [],
            "mutedChords": [],
            "autoStart": false,
            "sourceChordNote": 0,
            "sourceChordType": "Maj7",
            "ctb2Low": null,
            "ctb2Main": {
              "ntr": "ROOT_FIXED",
              "ntt": "CHORD",
              "bassOn": false,
              "chordRootUpperLimit": 7,
              "noteLowLimit": 0,
              "noteHighLimit": 127,
              "rtr": "PITCH_SHIFT"
            },
            "ctb2High": null
          },
          "notes": [
            {
              "pitch": 67,
              "velocity": 82,
              "position": 0,
              "duration": 0.3125
            },
            {
              "pitch": 79,
              "velocity": 88,
              "position": 0,
              "duration": 0.3125
            },
            {
              "pitch": 76,
              "velocity": 82,
              "position": 0,
              "duration": 0.3125
            },
            {
              "pitch": 72,
              "velocity": 82,
              "position": 0,
              "duration": 0.3125
            },
            {
              "pitch": 67,
              "velocity": 82,
              "position": 0.3333333333333333,
              "duration": 0.15625
            },
            {
              "pitch": 79,
              "velocity": 88,
              "position": 0.3333333333333333,
              "duration": 0.15625
            },
            {
              "pitch": 76,
              "velocity": 82,
              "position": 0.3333333333333333,
              "duration": 0.15625
            },
            {
              "pitch": 72,
              "velocity": 82,
              "position": 0.3333333333333333,
              "duration": 0.15625
            }
          ]
        }
      }
    },
    "Main_C": {
      "type": "Main_C",
      "sizeInBeats": 16,
      "channels": {
        "2": {
          "ctab": {
            "srcChannel": 2,
            "name": "ClaviBs",
            "accType": "CHORD1",
            "editable": false,
            "mutedNotes": [],
            "mutedChords": [],
            "autoStart": false,
            "sourceChordNote": 0,
            "sourceChordType": "Maj7",
            "ctb2Low": null,
            "ctb2Main": {
              "ntr": "ROOT_TRANSPOSITION",
              "ntt": "MELODY",
              "bassOn": true,
              "chordRootUpperLimit": 8,
              "noteLowLimit": 28,
              "noteHighLimit": 127,
              "rtr": "PITCH_SHIFT_TO_ROOT"
            },
            "ctb2High": null
          },
          "notes": [
            {
              "pitch": 36,
              "velocity": 101,
              "position": 0,
              "duration": 0.4895833333333333
            },
            {
              "pitch": 36,
              "velocity": 104,
              "position": 1.8333333333333333,
              "duration": 0.09375
            },
            {
              "pitch": 36,
              "velocity": 101,
              "position": 4,
              "duration": 0.3125
            },
            {
              "pitch": 36,
              "velocity": 101,
              "position": 4.333333333333333,
              "duration": 0.15625
            },
            {
              "pitch": 36,
              "velocity": 104,
              "position": 5.833333333333333,
              "duration": 0.09375
            },
            {
              "pitch": 36,
              "velocity": 90,
              "position": 7.833333333333333,
              "duration": 0.052083333333333336
            },
            {
              "pitch": 36,
              "velocity": 99,
              "position": 8,
              "duration": 0.4895833333333333
            },
            {
              "pitch": 36,
              "velocity": 104,
              "position": 9.833333333333334,
              "duration": 0.07291666666666667
            },
            {
              "pitch": 43,
              "velocity": 104,
              "position": 11.833333333333334,
              "duration": 0.07291666666666667
            },
            {
              "pitch": 36,
              "velocity": 60,
              "position": 12.166666666666666,
              "duration": 0.07291666666666667
            },
            {
              "pitch": 36,
              "velocity": 104,
              "position": 13.833333333333334,
              "duration": 0.09375
            },
            {
              "pitch": 48,
              "velocity": 60,
              "position": 15.666666666666666,
              "duration": 0.07291666666666667
            },
            {
              "pitch": 43,
              "velocity": 90,
              "position": 15.833333333333334,
              "duration": 0.052083333333333336
            }
          ]
        },
        "4": {
          "ctab": {
            "srcChannel": 4,
            "name": "E.P  rt",
            "accType": "PAD",
            "editable": false,
            "mutedNotes": [],
            "mutedChords": [
              "1+2+5",
              "sus4",
              "1+5",
              "1+8",
              "Maj7aug",
              "dim",
              "minMaj7(9)",
              "minMaj7",
              "min6",
              "min",
              "aug",
              "Maj7(9)",
              "Maj7#11",
              "Maj7",
              "Maj6",
              "Maj"
            ],
            "autoStart": false,
            "sourceChordNote": 0,
            "sourceChordType": "Maj7",
            "ctb2Low": null,
            "ctb2Main": {
              "ntr": "ROOT_TRANSPOSITION",
              "ntt": "CHORD",
              "bassOn": false,
              "chordRootUpperLimit": 10,
              "noteLowLimit": 0,
              "noteHighLimit": 127,
              "rtr": "PITCH_SHIFT"
            },
            "ctb2High": null
          },
          "notes": [
            {
              "pitch": 60,
              "velocity": 90,
              "position": 0,
              "duration": 0.16666666666666666
            },
            {
              "pitch": 60,
              "velocity": 60,
              "position": 0.5,
              "duration": 0.16666666666666666
            },
            {
              "pitch": 60,
              "velocity": 110,
              "position": 1,
              "duration": 1.9895833333333333
            },
            {
              "pitch": 60,
              "velocity": 75,
              "position": 3,
              "duration": 0.16666666666666666
            },
            {
              "pitch": 60,
              "velocity": 90,
              "position": 4,
              "duration": 0.16666666666666666
            },
            {
              "pitch": 60,
              "velocity": 68,
              "position": 5,
              "duration": 0.16666666666666666
            },
            {
              "pitch": 60,
              "velocity": 90,
              "position": 6,
              "duration": 0.16666666666666666
            },
            {
              "pitch": 60,
              "velocity": 75,
              "position": 7,
              "duration": 0.16666666666666666
            },
            {
              "pitch": 60,
              "velocity": 60,
              "position": 7.5,
              "duration": 0.16666666666666666
            },
            {
              "pitch": 60,
              "velocity": 90,
              "position": 8,
              "duration": 0.16666666666666666
            },
            {
              "pitch": 60,
              "velocity": 60,
              "position": 8.5,
              "duration": 0.16666666666666666
            },
            {
              "pitch": 60,
              "velocity": 110,
              "position": 9,
              "duration": 1.9895833333333333
            },
            {
              "pitch": 60,
              "velocity": 75,
              "position": 11,
              "duration": 0.16666666666666666
            },
            {
              "pitch": 60,
              "velocity": 90,
              "position": 12,
              "duration": 0.16666666666666666
            },
            {
              "pitch": 60,
              "velocity": 68,
              "position": 13,
              "duration": 0.16666666666666666
            },
            {
              "pitch": 60,
              "velocity": 90,
              "position": 14,
              "duration": 0.16666666666666666
            },
            {
              "pitch": 60,
              "velocity": 75,
              "position": 15,
              "duration": 0.16666666666666666
            },
            {
              "pitch": 60,
              "velocity": 60,
              "position": 15.5,
              "duration": 0.16666666666666666
            }
          ]
        },
        "8": {
          "ctab": {
            "srcChannel": 8,
            "name": "AddDrum",
            "accType": "SUBRHYTHM",
            "editable": false,
            "mutedNotes": [],
            "mutedChords": [],
            "autoStart": true,
            "sourceChordNote": 0,
            "sourceChordType": "Maj7",
            "ctb2Low": null,
            "ctb2Main": {
              "ntr": "ROOT_FIXED",
              "ntt": "BYPASS",
              "bassOn": false,
              "chordRootUpperLimit": 6,
              "noteLowLimit": 0,
              "noteHighLimit": 127,
              "rtr": "PITCH_SHIFT"
            },
            "ctb2High": null
          },
          "notes": [
            {
              "pitch": 64,
              "velocity": 80,
              "position": 0,
              "duration": 0.010416666666666666
            },
            {
              "pitch": 69,
              "velocity": 41,
              "position": 0,
              "duration": 0.010416666666666666
            },
            {
              "pitch": 69,
              "velocity": 64,
              "position": 0.5,
              "duration": 0.010416666666666666
            },
            {
              "pitch": 62,
              "velocity": 14,
              "position": 0.8333333333333334,
              "duration": 0.010416666666666666
            },
            {
              "pitch": 69,
              "velocity": 23,
              "position": 0.8333333333333334,
              "duration": 0.010416666666666666
            },
            {
              "pitch": 54,
              "velocity": 100,
              "position": 1,
              "duration": 0.010416666666666666
            },
            {
              "pitch": 69,
              "velocity": 41,
              "position": 1,
              "duration": 0.010416666666666666
            },
            {
              "pitch": 62,
              "velocity": 80,
              "position": 1,
              "duration": 0.010416666666666666
            },
            {
              "pitch": 63,
              "velocity": 80,
              "position": 1.5,
              "duration": 0.010416666666666666
            },
            {
              "pitch": 69,
              "velocity": 64,
              "position": 1.5,
              "duration": 0.010416666666666666
            },
            {
              "pitch": 69,
              "velocity": 40,
              "position": 1.8333333333333333,
              "duration": 0.010416666666666666
            },
            {
              "pitch": 69,
              "velocity": 73,
              "position": 2,
              "duration": 0.010416666666666666
            },
            {
              "pitch": 69,
              "velocity": 16,
              "position": 2.3333333333333335,
              "duration": 0.010416666666666666
            },
            {
              "pitch": 63,
              "velocity": 31,
              "position": 2.5,
              "duration": 0.010416666666666666
            },
            {
              "pitch": 69,
              "velocity": 49,
              "position": 2.5,
              "duration": 0.010416666666666666
            },
            {
              "pitch": 62,
              "velocity": 44,
              "position": 2.8333333333333335,
              "duration": 0.010416666666666666
            },
            {
              "pitch": 69,
              "velocity": 18,
              "position": 2.8333333333333335,
              "duration": 0.010416666666666666
            },
            {
              "pitch": 54,
              "velocity": 100,
              "position": 3,
              "duration": 0.010416666666666666
            },
            {
              "pitch": 69,
              "velocity": 77,
              "position": 3,
              "duration": 0.010416666666666666
            },
            {
              "pitch": 62,
              "velocity": 80,
              "position": 3,
              "duration": 0.010416666666666666
            },
            {
              "pitch": 64,
              "velocity": 80,
              "position": 3.5,
              "duration": 0.010416666666666666
            },
            {
              "pitch": 69,
              "velocity": 64,
              "position": 3.5,
              "duration": 0.010416666666666666
            },
            {
              "pitch": 69,
              "velocity": 33,
              "position": 3.8333333333333335,
              "duration": 0.010416666666666666
            },
            {
              "pitch": 69,
              "velocity": 41,
              "position": 4,
              "duration": 0.010416666666666666
            },
            {
              "pitch": 69,
              "velocity": 64,
              "position": 4.5,
              "duration": 0.010416666666666666
            },
            {
              "pitch": 62,
              "velocity": 14,
              "position": 4.833333333333333,
              "duration": 0.010416666666666666
            },
            {
              "pitch": 69,
              "velocity": 23,
              "position": 4.833333333333333,
              "duration": 0.010416666666666666
            },
            {
              "pitch": 54,
              "velocity": 100,
              "position": 5,
              "duration": 0.010416666666666666
            },
            {
              "pitch": 69,
              "velocity": 41,
              "position": 5,
              "duration": 0.010416666666666666
            },
            {
              "pitch": 62,
              "velocity": 80,
              "position": 5,
              "duration": 0.010416666666666666
            },
            {
              "pitch": 63,
              "velocity": 80,
              "position": 5.5,
              "duration": 0.010416666666666666
            },
            {
              "pitch": 69,
              "velocity": 64,
              "position": 5.5,
              "duration": 0.010416666666666666
            },
            {
              "pitch": 69,
              "velocity": 40,
              "position": 5.833333333333333,
              "duration": 0.010416666666666666
            },
            {
              "pitch": 69,
              "velocity": 73,
              "position": 6,
              "duration": 0.010416666666666666
            },
            {
              "pitch": 69,
              "velocity": 16,
              "position": 6.333333333333333,
              "duration": 0.010416666666666666
            },
            {
              "pitch": 63,
              "velocity": 31,
              "position": 6.5,
              "duration": 0.010416666666666666
            },
            {
              "pitch": 69,
              "velocity": 49,
              "position": 6.5,
              "duration": 0.010416666666666666
            },
            {
              "pitch": 62,
              "velocity": 44,
              "position": 6.833333333333333,
              "duration": 0.010416666666666666
            },
            {
              "pitch": 69,
              "velocity": 18,
              "position": 6.833333333333333,
              "duration": 0.010416666666666666
            },
            {
              "pitch": 54,
              "velocity": 100,
              "position": 7,
              "duration": 0.010416666666666666
            },
            {
              "pitch": 69,
              "velocity": 77,
              "position": 7,
              "duration": 0.010416666666666666
            },
            {
              "pitch": 62,
              "velocity": 80,
              "position": 7,
              "duration": 0.010416666666666666
            },
            {
              "pitch": 64,
              "velocity": 80,
              "position": 7.5,
              "duration": 0.010416666666666666
            },
            {
              "pitch": 69,
              "velocity": 64,
              "position": 7.5,
              "duration": 0.010416666666666666
            },
            {
              "pitch": 69,
              "velocity": 33,
              "position": 7.833333333333333,
              "duration": 0.010416666666666666
            },
            {
              "pitch": 64,
              "velocity": 80,
              "position": 8,
              "duration": 0.010416666666666666
            },
            {
              "pitch": 69,
              "velocity": 41,
              "position": 8,
              "duration": 0.010416666666666666
            },
            {
              "pitch": 69,
              "velocity": 64,
              "position": 8.5,
              "duration": 0.010416666666666666
            },
            {
              "pitch": 62,
              "velocity": 14,
              "position": 8.833333333333334,
              "duration": 0.010416666666666666
            },
            {
              "pitch": 69,
              "velocity": 23,
              "position": 8.833333333333334,
              "duration": 0.010416666666666666
            },
            {
              "pitch": 54,
              "velocity": 100,
              "position": 9,
              "duration": 0.010416666666666666
            },
            {
              "pitch": 69,
              "velocity": 41,
              "position": 9,
              "duration": 0.010416666666666666
            },
            {
              "pitch": 62,
              "velocity": 80,
              "position": 9,
              "duration": 0.010416666666666666
            },
            {
              "pitch": 63,
              "velocity": 80,
              "position": 9.5,
              "duration": 0.010416666666666666
            },
            {
              "pitch": 69,
              "velocity": 64,
              "position": 9.5,
              "duration": 0.010416666666666666
            },
            {
              "pitch": 69,
              "velocity": 40,
              "position": 9.833333333333334,
              "duration": 0.010416666666666666
            },
            {
              "pitch": 69,
              "velocity": 73,
              "position": 10,
              "duration": 0.010416666666666666
            },
            {
              "pitch": 69,
              "velocity": 16,
              "position": 10.333333333333334,
              "duration": 0.010416666666666666
            },
            {
              "pitch": 63,
              "velocity": 31,
              "position": 10.5,
              "duration": 0.010416666666666666
            },
            {
              "pitch": 69,
              "velocity": 49,
              "position": 10.5,
              "duration": 0.010416666666666666
            },
            {
              "pitch": 62,
              "velocity": 44,
              "position": 10.833333333333334,
              "duration": 0.010416666666666666
            },
            {
              "pitch": 69,
              "velocity": 18,
              "position": 10.833333333333334,
              "duration": 0.010416666666666666
            },
            {
              "pitch": 54,
              "velocity": 100,
              "position": 11,
              "duration": 0.010416666666666666
            },
            {
              "pitch": 69,
              "velocity": 77,
              "position": 11,
              "duration": 0.010416666666666666
            },
            {
              "pitch": 62,
              "velocity": 80,
              "position": 11,
              "duration": 0.010416666666666666
            },
            {
              "pitch": 64,
              "velocity": 80,
              "position": 11.5,
              "duration": 0.010416666666666666
            },
            {
              "pitch": 69,
              "velocity": 64,
              "position": 11.5,
              "duration": 0.010416666666666666
            },
            {
              "pitch": 69,
              "velocity": 33,
              "position": 11.833333333333334,
              "duration": 0.010416666666666666
            },
            {
              "pitch": 69,
              "velocity": 41,
              "position": 12,
              "duration": 0.010416666666666666
            },
            {
              "pitch": 69,
              "velocity": 64,
              "position": 12.5,
              "duration": 0.010416666666666666
            },
            {
              "pitch": 62,
              "velocity": 14,
              "position": 12.833333333333334,
              "duration": 0.010416666666666666
            },
            {
              "pitch": 69,
              "velocity": 23,
              "position": 12.833333333333334,
              "duration": 0.010416666666666666
            },
            {
              "pitch": 54,
              "velocity": 100,
              "position": 13,
              "duration": 0.010416666666666666
            },
            {
              "pitch": 69,
              "velocity": 41,
              "position": 13,
              "duration": 0.010416666666666666
            },
            {
              "pitch": 62,
              "velocity": 80,
              "position": 13,
              "duration": 0.010416666666666666
            },
            {
              "pitch": 63,
              "velocity": 80,
              "position": 13.5,
              "duration": 0.010416666666666666
            },
            {
              "pitch": 69,
              "velocity": 64,
              "position": 13.5,
              "duration": 0.010416666666666666
            },
            {
              "pitch": 69,
              "velocity": 40,
              "position": 13.833333333333334,
              "duration": 0.010416666666666666
            },
            {
              "pitch": 69,
              "velocity": 73,
              "position": 14,
              "duration": 0.010416666666666666
            },
            {
              "pitch": 69,
              "velocity": 16,
              "position": 14.333333333333334,
              "duration": 0.010416666666666666
            },
            {
              "pitch": 63,
              "velocity": 31,
              "position": 14.5,
              "duration": 0.010416666666666666
            },
            {
              "pitch": 69,
              "velocity": 49,
              "position": 14.5,
              "duration": 0.010416666666666666
            },
            {
              "pitch": 62,
              "velocity": 44,
              "position": 14.833333333333334,
              "duration": 0.010416666666666666
            },
            {
              "pitch": 69,
              "velocity": 18,
              "position": 14.833333333333334,
              "duration": 0.010416666666666666
            },
            {
              "pitch": 54,
              "velocity": 100,
              "position": 15,
              "duration": 0.010416666666666666
            },
            {
              "pitch": 69,
              "velocity": 77,
              "position": 15,
              "duration": 0.010416666666666666
            },
            {
              "pitch": 62,
              "velocity": 80,
              "position": 15,
              "duration": 0.010416666666666666
            },
            {
              "pitch": 64,
              "velocity": 80,
              "position": 15.5,
              "duration": 0.010416666666666666
            },
            {
              "pitch": 69,
              "velocity": 64,
              "position": 15.5,
              "duration": 0.010416666666666666
            },
            {
              "pitch": 69,
              "velocity": 33,
              "position": 15.833333333333334,
              "duration": 0.010416666666666666
            }
          ]
        },
        "9": {
          "ctab": {
            "srcChannel": 9,
            "name": "MainDrum",
            "accType": "RHYTHM",
            "editable": false,
            "mutedNotes": [],
            "mutedChords": [],
            "autoStart": true,
            "sourceChordNote": 0,
            "sourceChordType": "Maj7",
            "ctb2Low": null,
            "ctb2Main": {
              "ntr": "ROOT_FIXED",
              "ntt": "BYPASS",
              "bassOn": false,
              "chordRootUpperLimit": 6,
              "noteLowLimit": 0,
              "noteHighLimit": 127,
              "rtr": "PITCH_SHIFT"
            },
            "ctb2High": null
          },
          "notes": [
            {
              "pitch": 35,
              "velocity": 90,
              "position": 0,
              "duration": 0.010416666666666666
            },
            {
              "pitch": 51,
              "velocity": 60,
              "position": 0,
              "duration": 0.010416666666666666
            },
            {
              "pitch": 42,
              "velocity": 116,
              "position": 0,
              "duration": 0.010416666666666666
            },
            {
              "pitch": 42,
              "velocity": 88,
              "position": 0.5,
              "duration": 0.010416666666666666
            },
            {
              "pitch": 51,
              "velocity": 88,
              "position": 0.5,
              "duration": 0.010416666666666666
            },
            {
              "pitch": 40,
              "velocity": 114,
              "position": 1,
              "duration": 0.010416666666666666
            },
            {
              "pitch": 51,
              "velocity": 60,
              "position": 1,
              "duration": 0.010416666666666666
            },
            {
              "pitch": 42,
              "velocity": 116,
              "position": 1,
              "duration": 0.010416666666666666
            },
            {
              "pitch": 35,
              "velocity": 78,
              "position": 1.5,
              "duration": 0.010416666666666666
            },
            {
              "pitch": 51,
              "velocity": 88,
              "position": 1.5,
              "duration": 0.010416666666666666
            },
            {
              "pitch": 42,
              "velocity": 94,
              "position": 1.5,
              "duration": 0.010416666666666666
            },
            {
              "pitch": 40,
              "velocity": 47,
              "position": 1.8333333333333333,
              "duration": 0.010416666666666666
            },
            {
              "pitch": 42,
              "velocity": 54,
              "position": 1.8333333333333333,
              "duration": 0.010416666666666666
            },
            {
              "pitch": 35,
              "velocity": 95,
              "position": 2,
              "duration": 0.010416666666666666
            },
            {
              "pitch": 51,
              "velocity": 60,
              "position": 2,
              "duration": 0.010416666666666666
            },
            {
              "pitch": 42,
              "velocity": 116,
              "position": 2,
              "duration": 0.010416666666666666
            },
            {
              "pitch": 42,
              "velocity": 85,
              "position": 2.5,
              "duration": 0.010416666666666666
            },
            {
              "pitch": 51,
              "velocity": 88,
              "position": 2.5,
              "duration": 0.010416666666666666
            },
            {
              "pitch": 40,
              "velocity": 114,
              "position": 3,
              "duration": 0.010416666666666666
            },
            {
              "pitch": 51,
              "velocity": 60,
              "position": 3,
              "duration": 0.010416666666666666
            },
            {
              "pitch": 42,
              "velocity": 116,
              "position": 3,
              "duration": 0.010416666666666666
            },
            {
              "pitch": 42,
              "velocity": 38,
              "position": 3.3333333333333335,
              "duration": 0.010416666666666666
            },
            {
              "pitch": 46,
              "velocity": 84,
              "position": 3.5,
              "duration": 0.010416666666666666
            },
            {
              "pitch": 51,
              "velocity": 88,
              "position": 3.5,
              "duration": 0.010416666666666666
            },
            {
              "pitch": 35,
              "velocity": 26,
              "position": 3.8333333333333335,
              "duration": 0.010416666666666666
            },
            {
              "pitch": 35,
              "velocity": 90,
              "position": 4,
              "duration": 0.010416666666666666
            },
            {
              "pitch": 51,
              "velocity": 60,
              "position": 4,
              "duration": 0.010416666666666666
            },
            {
              "pitch": 42,
              "velocity": 116,
              "position": 4,
              "duration": 0.010416666666666666
            },
            {
              "pitch": 42,
              "velocity": 88,
              "position": 4.5,
              "duration": 0.010416666666666666
            },
            {
              "pitch": 51,
              "velocity": 88,
              "position": 4.5,
              "duration": 0.010416666666666666
            },
            {
              "pitch": 40,
              "velocity": 114,
              "position": 5,
              "duration": 0.010416666666666666
            },
            {
              "pitch": 51,
              "velocity": 60,
              "position": 5,
              "duration": 0.010416666666666666
            },
            {
              "pitch": 42,
              "velocity": 116,
              "position": 5,
              "duration": 0.010416666666666666
            },
            {
              "pitch": 42,
              "velocity": 94,
              "position": 5.5,
              "duration": 0.010416666666666666
            },
            {
              "pitch": 51,
              "velocity": 88,
              "position": 5.5,
              "duration": 0.010416666666666666
            },
            {
              "pitch": 35,
              "velocity": 40,
              "position": 5.833333333333333,
              "duration": 0.010416666666666666
            },
            {
              "pitch": 42,
              "velocity": 54,
              "position": 5.833333333333333,
              "duration": 0.010416666666666666
            },
            {
              "pitch": 35,
              "velocity": 95,
              "position": 6,
              "duration": 0.010416666666666666
            },
            {
              "pitch": 51,
              "velocity": 60,
              "position": 6,
              "duration": 0.010416666666666666
            },
            {
              "pitch": 42,
              "velocity": 116,
              "position": 6,
              "duration": 0.010416666666666666
            },
            {
              "pitch": 42,
              "velocity": 48,
              "position": 6.333333333333333,
              "duration": 0.010416666666666666
            },
            {
              "pitch": 35,
              "velocity": 95,
              "position": 6.5,
              "duration": 0.010416666666666666
            },
            {
              "pitch": 51,
              "velocity": 88,
              "position": 6.5,
              "duration": 0.010416666666666666
            },
            {
              "pitch": 42,
              "velocity": 116,
              "position": 6.5,
              "duration": 0.010416666666666666
            },
            {
              "pitch": 40,
              "velocity": 114,
              "position": 7,
              "duration": 0.010416666666666666
            },
            {
              "pitch": 51,
              "velocity": 60,
              "position": 7,
              "duration": 0.010416666666666666
            },
            {
              "pitch": 42,
              "velocity": 116,
              "position": 7,
              "duration": 0.010416666666666666
            },
            {
              "pitch": 35,
              "velocity": 41,
              "position": 7.333333333333333,
              "duration": 0.010416666666666666
            },
            {
              "pitch": 42,
              "velocity": 31,
              "position": 7.333333333333333,
              "duration": 0.010416666666666666
            },
            {
              "pitch": 35,
              "velocity": 90,
              "position": 7.5,
              "duration": 0.010416666666666666
            },
            {
              "pitch": 51,
              "velocity": 88,
              "position": 7.5,
              "duration": 0.010416666666666666
            },
            {
              "pitch": 46,
              "velocity": 84,
              "position": 7.5,
              "duration": 0.010416666666666666
            },
            {
              "pitch": 40,
              "velocity": 62,
              "position": 7.833333333333333,
              "duration": 0.010416666666666666
            },
            {
              "pitch": 35,
              "velocity": 90,
              "position": 8,
              "duration": 0.010416666666666666
            },
            {
              "pitch": 51,
              "velocity": 60,
              "position": 8,
              "duration": 0.010416666666666666
            },
            {
              "pitch": 42,
              "velocity": 116,
              "position": 8,
              "duration": 0.010416666666666666
            },
            {
              "pitch": 42,
              "velocity": 88,
              "position": 8.5,
              "duration": 0.010416666666666666
            },
            {
              "pitch": 51,
              "velocity": 88,
              "position": 8.5,
              "duration": 0.010416666666666666
            },
            {
              "pitch": 40,
              "velocity": 114,
              "position": 9,
              "duration": 0.010416666666666666
            },
            {
              "pitch": 51,
              "velocity": 60,
              "position": 9,
              "duration": 0.010416666666666666
            },
            {
              "pitch": 42,
              "velocity": 116,
              "position": 9,
              "duration": 0.010416666666666666
            },
            {
              "pitch": 42,
              "velocity": 94,
              "position": 9.5,
              "duration": 0.010416666666666666
            },
            {
              "pitch": 51,
              "velocity": 88,
              "position": 9.5,
              "duration": 0.010416666666666666
            },
            {
              "pitch": 35,
              "velocity": 39,
              "position": 9.833333333333334,
              "duration": 0.010416666666666666
            },
            {
              "pitch": 42,
              "velocity": 54,
              "position": 9.833333333333334,
              "duration": 0.010416666666666666
            },
            {
              "pitch": 35,
              "velocity": 90,
              "position": 10,
              "duration": 0.010416666666666666
            },
            {
              "pitch": 51,
              "velocity": 60,
              "position": 10,
              "duration": 0.010416666666666666
            },
            {
              "pitch": 42,
              "velocity": 116,
              "position": 10,
              "duration": 0.010416666666666666
            },
            {
              "pitch": 42,
              "velocity": 85,
              "position": 10.5,
              "duration": 0.010416666666666666
            },
            {
              "pitch": 51,
              "velocity": 88,
              "position": 10.5,
              "duration": 0.010416666666666666
            },
            {
              "pitch": 40,
              "velocity": 114,
              "position": 11,
              "duration": 0.010416666666666666
            },
            {
              "pitch": 51,
              "velocity": 60,
              "position": 11,
              "duration": 0.010416666666666666
            },
            {
              "pitch": 42,
              "velocity": 116,
              "position": 11,
              "duration": 0.010416666666666666
            },
            {
              "pitch": 42,
              "velocity": 37,
              "position": 11.333333333333334,
              "duration": 0.010416666666666666
            },
            {
              "pitch": 46,
              "velocity": 84,
              "position": 11.5,
              "duration": 0.010416666666666666
            },
            {
              "pitch": 51,
              "velocity": 88,
              "position": 11.5,
              "duration": 0.010416666666666666
            },
            {
              "pitch": 35,
              "velocity": 42,
              "position": 11.833333333333334,
              "duration": 0.010416666666666666
            },
            {
              "pitch": 35,
              "velocity": 90,
              "position": 12,
              "duration": 0.010416666666666666
            },
            {
              "pitch": 51,
              "velocity": 60,
              "position": 12,
              "duration": 0.010416666666666666
            },
            {
              "pitch": 42,
              "velocity": 116,
              "position": 12,
              "duration": 0.010416666666666666
            },
            {
              "pitch": 42,
              "velocity": 88,
              "position": 12.5,
              "duration": 0.010416666666666666
            },
            {
              "pitch": 51,
              "velocity": 88,
              "position": 12.5,
              "duration": 0.010416666666666666
            },
            {
              "pitch": 40,
              "velocity": 114,
              "position": 13,
              "duration": 0.010416666666666666
            },
            {
              "pitch": 51,
              "velocity": 60,
              "position": 13,
              "duration": 0.010416666666666666
            },
            {
              "pitch": 42,
              "velocity": 116,
              "position": 13,
              "duration": 0.010416666666666666
            },
            {
              "pitch": 35,
              "velocity": 37,
              "position": 13.333333333333334,
              "duration": 0.010416666666666666
            },
            {
              "pitch": 35,
              "velocity": 90,
              "position": 13.5,
              "duration": 0.010416666666666666
            },
            {
              "pitch": 51,
              "velocity": 88,
              "position": 13.5,
              "duration": 0.010416666666666666
            },
            {
              "pitch": 42,
              "velocity": 94,
              "position": 13.5,
              "duration": 0.010416666666666666
            },
            {
              "pitch": 40,
              "velocity": 51,
              "position": 13.833333333333334,
              "duration": 0.010416666666666666
            },
            {
              "pitch": 42,
              "velocity": 54,
              "position": 13.833333333333334,
              "duration": 0.010416666666666666
            },
            {
              "pitch": 35,
              "velocity": 95,
              "position": 14,
              "duration": 0.010416666666666666
            },
            {
              "pitch": 51,
              "velocity": 60,
              "position": 14,
              "duration": 0.010416666666666666
            },
            {
              "pitch": 42,
              "velocity": 116,
              "position": 14,
              "duration": 0.010416666666666666
            },
            {
              "pitch": 35,
              "velocity": 98,
              "position": 14.5,
              "duration": 0.010416666666666666
            },
            {
              "pitch": 51,
              "velocity": 88,
              "position": 14.5,
              "duration": 0.010416666666666666
            },
            {
              "pitch": 42,
              "velocity": 85,
              "position": 14.5,
              "duration": 0.010416666666666666
            },
            {
              "pitch": 40,
              "velocity": 114,
              "position": 15,
              "duration": 0.010416666666666666
            },
            {
              "pitch": 51,
              "velocity": 60,
              "position": 15,
              "duration": 0.010416666666666666
            },
            {
              "pitch": 42,
              "velocity": 116,
              "position": 15,
              "duration": 0.010416666666666666
            },
            {
              "pitch": 42,
              "velocity": 27,
              "position": 15.333333333333334,
              "duration": 0.010416666666666666
            },
            {
              "pitch": 35,
              "velocity": 95,
              "position": 15.5,
              "duration": 0.010416666666666666
            },
            {
              "pitch": 51,
              "velocity": 88,
              "position": 15.5,
              "duration": 0.010416666666666666
            },
            {
              "pitch": 46,
              "velocity": 84,
              "position": 15.5,
              "duration": 0.010416666666666666
            },
            {
              "pitch": 40,
              "velocity": 52,
              "position": 15.833333333333334,
              "duration": 0.010416666666666666
            },
            {
              "pitch": 42,
              "velocity": 51,
              "position": 15.833333333333334,
              "duration": 0.010416666666666666
            }
          ]
        },
        "10": {
          "ctab": {
            "srcChannel": 10,
            "name": "Bass",
            "accType": "BASS",
            "editable": false,
            "mutedNotes": [],
            "mutedChords": [],
            "autoStart": false,
            "sourceChordNote": 0,
            "sourceChordType": "Maj7",
            "ctb2Low": null,
            "ctb2Main": {
              "ntr": "ROOT_TRANSPOSITION",
              "ntt": "MELODY",
              "bassOn": true,
              "chordRootUpperLimit": 8,
              "noteLowLimit": 28,
              "noteHighLimit": 127,
              "rtr": "PITCH_SHIFT_TO_ROOT"
            },
            "ctb2High": null
          },
          "notes": [
            {
              "pitch": 24,
              "velocity": 70,
              "position": 0,
              "duration": 0.48125
            },
            {
              "pitch": 24,
              "velocity": 111,
              "position": 0.5,
              "duration": 0.3145833333333333
            },
            {
              "pitch": 36,
              "velocity": 111,
              "position": 1,
              "duration": 0.3145833333333333
            },
            {
              "pitch": 24,
              "velocity": 111,
              "position": 1.3333333333333333,
              "duration": 0.14791666666666667
            },
            {
              "pitch": 24,
              "velocity": 65,
              "position": 1.5,
              "duration": 0.46875
            },
            {
              "pitch": 24,
              "velocity": 70,
              "position": 2,
              "duration": 0.48125
            },
            {
              "pitch": 24,
              "velocity": 111,
              "position": 2.5,
              "duration": 0.3145833333333333
            },
            {
              "pitch": 36,
              "velocity": 112,
              "position": 3,
              "duration": 0.3145833333333333
            },
            {
              "pitch": 24,
              "velocity": 70,
              "position": 4,
              "duration": 0.48125
            },
            {
              "pitch": 24,
              "velocity": 111,
              "position": 4.5,
              "duration": 0.3145833333333333
            },
            {
              "pitch": 36,
              "velocity": 111,
              "position": 5,
              "duration": 0.3145833333333333
            },
            {
              "pitch": 24,
              "velocity": 46,
              "position": 5.833333333333333,
              "duration": 0.14791666666666667
            },
            {
              "pitch": 24,
              "velocity": 70,
              "position": 6,
              "duration": 0.48125
            },
            {
              "pitch": 24,
              "velocity": 70,
              "position": 6.5,
              "duration": 0.5
            },
            {
              "pitch": 31,
              "velocity": 70,
              "position": 7,
              "duration": 0.14791666666666667
            },
            {
              "pitch": 28,
              "velocity": 64,
              "position": 7.333333333333333,
              "duration": 0.6479166666666667
            },
            {
              "pitch": 24,
              "velocity": 70,
              "position": 8,
              "duration": 0.48125
            },
            {
              "pitch": 24,
              "velocity": 111,
              "position": 8.5,
              "duration": 0.3145833333333333
            },
            {
              "pitch": 36,
              "velocity": 111,
              "position": 9,
              "duration": 0.3145833333333333
            },
            {
              "pitch": 24,
              "velocity": 46,
              "position": 9.833333333333334,
              "duration": 0.14791666666666667
            },
            {
              "pitch": 24,
              "velocity": 70,
              "position": 10,
              "duration": 0.48125
            },
            {
              "pitch": 24,
              "velocity": 111,
              "position": 10.5,
              "duration": 0.3145833333333333
            },
            {
              "pitch": 36,
              "velocity": 112,
              "position": 11,
              "duration": 0.3145833333333333
            },
            {
              "pitch": 31,
              "velocity": 110,
              "position": 11.833333333333334,
              "duration": 0.16666666666666666
            },
            {
              "pitch": 24,
              "velocity": 70,
              "position": 12,
              "duration": 0.48125
            },
            {
              "pitch": 24,
              "velocity": 71,
              "position": 12.5,
              "duration": 0.3145833333333333
            },
            {
              "pitch": 36,
              "velocity": 111,
              "position": 13,
              "duration": 0.3145833333333333
            },
            {
              "pitch": 24,
              "velocity": 111,
              "position": 13.333333333333334,
              "duration": 0.14791666666666667
            },
            {
              "pitch": 24,
              "velocity": 60,
              "position": 13.5,
              "duration": 0.48125
            },
            {
              "pitch": 24,
              "velocity": 70,
              "position": 14,
              "duration": 0.48125
            },
            {
              "pitch": 24,
              "velocity": 111,
              "position": 14.5,
              "duration": 0.3145833333333333
            },
            {
              "pitch": 28,
              "velocity": 70,
              "position": 15,
              "duration": 0.3145833333333333
            },
            {
              "pitch": 28,
              "velocity": 111,
              "position": 15.333333333333334,
              "duration": 0.14791666666666667
            },
            {
              "pitch": 31,
              "velocity": 70,
              "position": 15.5,
              "duration": 0.48125
            }
          ]
        },
        "11": {
          "ctab": {
            "srcChannel": 11,
            "name": "Clavi",
            "accType": "CHORD1",
            "editable": false,
            "mutedNotes": [],
            "mutedChords": [],
            "autoStart": false,
            "sourceChordNote": 0,
            "sourceChordType": "Maj7",
            "ctb2Low": null,
            "ctb2Main": {
              "ntr": "ROOT_TRANSPOSITION",
              "ntt": "CHORD",
              "bassOn": false,
              "chordRootUpperLimit": 7,
              "noteLowLimit": 0,
              "noteHighLimit": 127,
              "rtr": "PITCH_SHIFT"
            },
            "ctb2High": null
          },
          "notes": [
            {
              "pitch": 55,
              "velocity": 55,
              "position": 0,
              "duration": 0.3125
            },
            {
              "pitch": 64,
              "velocity": 55,
              "position": 0,
              "duration": 0.3125
            },
            {
              "pitch": 59,
              "velocity": 55,
              "position": 0,
              "duration": 0.3125
            },
            {
              "pitch": 55,
              "velocity": 85,
              "position": 0.5,
              "duration": 0.14583333333333334
            },
            {
              "pitch": 64,
              "velocity": 85,
              "position": 0.5,
              "duration": 0.14583333333333334
            },
            {
              "pitch": 59,
              "velocity": 85,
              "position": 0.5,
              "duration": 0.14583333333333334
            },
            {
              "pitch": 47,
              "velocity": 110,
              "position": 0.5,
              "duration": 0.3125
            },
            {
              "pitch": 48,
              "velocity": 110,
              "position": 1,
              "duration": 0.3125
            },
            {
              "pitch": 55,
              "velocity": 55,
              "position": 1.3333333333333333,
              "duration": 0.3125
            },
            {
              "pitch": 59,
              "velocity": 55,
              "position": 1.3333333333333333,
              "duration": 0.3125
            },
            {
              "pitch": 64,
              "velocity": 55,
              "position": 1.3333333333333333,
              "duration": 0.3125
            },
            {
              "pitch": 47,
              "velocity": 110,
              "position": 1.5,
              "duration": 0.3125
            },
            {
              "pitch": 55,
              "velocity": 85,
              "position": 2,
              "duration": 0.14583333333333334
            },
            {
              "pitch": 64,
              "velocity": 85,
              "position": 2,
              "duration": 0.14583333333333334
            },
            {
              "pitch": 59,
              "velocity": 85,
              "position": 2,
              "duration": 0.14583333333333334
            },
            {
              "pitch": 52,
              "velocity": 110,
              "position": 2,
              "duration": 0.3125
            },
            {
              "pitch": 47,
              "velocity": 110,
              "position": 2.8125,
              "duration": 0.1875
            },
            {
              "pitch": 64,
              "velocity": 55,
              "position": 2.8333333333333335,
              "duration": 0.3125
            },
            {
              "pitch": 59,
              "velocity": 55,
              "position": 2.8333333333333335,
              "duration": 0.3125
            },
            {
              "pitch": 55,
              "velocity": 55,
              "position": 2.8333333333333335,
              "duration": 0.3125
            },
            {
              "pitch": 55,
              "velocity": 85,
              "position": 3.5,
              "duration": 0.14583333333333334
            },
            {
              "pitch": 64,
              "velocity": 85,
              "position": 3.5,
              "duration": 0.14583333333333334
            },
            {
              "pitch": 59,
              "velocity": 85,
              "position": 3.5,
              "duration": 0.14583333333333334
            },
            {
              "pitch": 48,
              "velocity": 110,
              "position": 3.5,
              "duration": 0.3125
            },
            {
              "pitch": 55,
              "velocity": 55,
              "position": 4,
              "duration": 0.3125
            },
            {
              "pitch": 64,
              "velocity": 55,
              "position": 4,
              "duration": 0.3125
            },
            {
              "pitch": 59,
              "velocity": 55,
              "position": 4,
              "duration": 0.3125
            },
            {
              "pitch": 48,
              "velocity": 67,
              "position": 4.333333333333333,
              "duration": 0.0625
            },
            {
              "pitch": 55,
              "velocity": 85,
              "position": 4.5,
              "duration": 0.14583333333333334
            },
            {
              "pitch": 64,
              "velocity": 85,
              "position": 4.5,
              "duration": 0.14583333333333334
            },
            {
              "pitch": 59,
              "velocity": 85,
              "position": 4.5,
              "duration": 0.14583333333333334
            },
            {
              "pitch": 47,
              "velocity": 110,
              "position": 4.5,
              "duration": 0.3125
            },
            {
              "pitch": 48,
              "velocity": 110,
              "position": 5,
              "duration": 0.3125
            },
            {
              "pitch": 55,
              "velocity": 55,
              "position": 5.333333333333333,
              "duration": 0.3125
            },
            {
              "pitch": 59,
              "velocity": 55,
              "position": 5.333333333333333,
              "duration": 0.3125
            },
            {
              "pitch": 64,
              "velocity": 55,
              "position": 5.333333333333333,
              "duration": 0.3125
            },
            {
              "pitch": 47,
              "velocity": 110,
              "position": 5.5,
              "duration": 0.3125
            },
            {
              "pitch": 55,
              "velocity": 85,
              "position": 6,
              "duration": 0.14583333333333334
            },
            {
              "pitch": 64,
              "velocity": 85,
              "position": 6,
              "duration": 0.14583333333333334
            },
            {
              "pitch": 59,
              "velocity": 85,
              "position": 6,
              "duration": 0.14583333333333334
            },
            {
              "pitch": 52,
              "velocity": 110,
              "position": 6,
              "duration": 0.3125
            },
            {
              "pitch": 47,
              "velocity": 110,
              "position": 6.8125,
              "duration": 0.1875
            },
            {
              "pitch": 64,
              "velocity": 55,
              "position": 6.833333333333333,
              "duration": 0.3125
            },
            {
              "pitch": 59,
              "velocity": 55,
              "position": 6.833333333333333,
              "duration": 0.3125
            },
            {
              "pitch": 55,
              "velocity": 55,
              "position": 6.833333333333333,
              "duration": 0.3125
            },
            {
              "pitch": 47,
              "velocity": 73,
              "position": 7.3125,
              "duration": 0.0625
            },
            {
              "pitch": 55,
              "velocity": 85,
              "position": 7.5,
              "duration": 0.14583333333333334
            },
            {
              "pitch": 64,
              "velocity": 85,
              "position": 7.5,
              "duration": 0.14583333333333334
            },
            {
              "pitch": 59,
              "velocity": 85,
              "position": 7.5,
              "duration": 0.14583333333333334
            },
            {
              "pitch": 48,
              "velocity": 110,
              "position": 7.5,
              "duration": 0.3125
            },
            {
              "pitch": 55,
              "velocity": 55,
              "position": 8,
              "duration": 0.3125
            },
            {
              "pitch": 64,
              "velocity": 55,
              "position": 8,
              "duration": 0.3125
            },
            {
              "pitch": 59,
              "velocity": 55,
              "position": 8,
              "duration": 0.3125
            },
            {
              "pitch": 55,
              "velocity": 85,
              "position": 8.5,
              "duration": 0.14583333333333334
            },
            {
              "pitch": 64,
              "velocity": 85,
              "position": 8.5,
              "duration": 0.14583333333333334
            },
            {
              "pitch": 59,
              "velocity": 85,
              "position": 8.5,
              "duration": 0.14583333333333334
            },
            {
              "pitch": 47,
              "velocity": 110,
              "position": 8.5,
              "duration": 0.3125
            },
            {
              "pitch": 48,
              "velocity": 110,
              "position": 9,
              "duration": 0.3125
            },
            {
              "pitch": 55,
              "velocity": 55,
              "position": 9.333333333333334,
              "duration": 0.3125
            },
            {
              "pitch": 59,
              "velocity": 55,
              "position": 9.333333333333334,
              "duration": 0.3125
            },
            {
              "pitch": 64,
              "velocity": 55,
              "position": 9.333333333333334,
              "duration": 0.3125
            },
            {
              "pitch": 47,
              "velocity": 110,
              "position": 9.5,
              "duration": 0.3125
            },
            {
              "pitch": 55,
              "velocity": 85,
              "position": 10,
              "duration": 0.14583333333333334
            },
            {
              "pitch": 64,
              "velocity": 85,
              "position": 10,
              "duration": 0.14583333333333334
            },
            {
              "pitch": 59,
              "velocity": 85,
              "position": 10,
              "duration": 0.14583333333333334
            },
            {
              "pitch": 52,
              "velocity": 110,
              "position": 10,
              "duration": 0.3125
            },
            {
              "pitch": 47,
              "velocity": 110,
              "position": 10.8125,
              "duration": 0.1875
            },
            {
              "pitch": 64,
              "velocity": 55,
              "position": 10.833333333333334,
              "duration": 0.3125
            },
            {
              "pitch": 59,
              "velocity": 55,
              "position": 10.833333333333334,
              "duration": 0.3125
            },
            {
              "pitch": 55,
              "velocity": 55,
              "position": 10.833333333333334,
              "duration": 0.3125
            },
            {
              "pitch": 55,
              "velocity": 85,
              "position": 11.5,
              "duration": 0.14583333333333334
            },
            {
              "pitch": 64,
              "velocity": 85,
              "position": 11.5,
              "duration": 0.14583333333333334
            },
            {
              "pitch": 59,
              "velocity": 85,
              "position": 11.5,
              "duration": 0.14583333333333334
            },
            {
              "pitch": 48,
              "velocity": 110,
              "position": 11.5,
              "duration": 0.3125
            },
            {
              "pitch": 55,
              "velocity": 55,
              "position": 12,
              "duration": 0.3125
            },
            {
              "pitch": 64,
              "velocity": 55,
              "position": 12,
              "duration": 0.3125
            },
            {
              "pitch": 59,
              "velocity": 55,
              "position": 12,
              "duration": 0.3125
            },
            {
              "pitch": 55,
              "velocity": 85,
              "position": 12.5,
              "duration": 0.14583333333333334
            },
            {
              "pitch": 64,
              "velocity": 85,
              "position": 12.5,
              "duration": 0.14583333333333334
            },
            {
              "pitch": 59,
              "velocity": 85,
              "position": 12.5,
              "duration": 0.14583333333333334
            },
            {
              "pitch": 47,
              "velocity": 110,
              "position": 12.5,
              "duration": 0.3125
            },
            {
              "pitch": 48,
              "velocity": 110,
              "position": 13,
              "duration": 0.3125
            },
            {
              "pitch": 55,
              "velocity": 55,
              "position": 13.333333333333334,
              "duration": 0.3125
            },
            {
              "pitch": 64,
              "velocity": 55,
              "position": 13.333333333333334,
              "duration": 0.3125
            },
            {
              "pitch": 59,
              "velocity": 55,
              "position": 13.333333333333334,
              "duration": 0.3125
            },
            {
              "pitch": 55,
              "velocity": 85,
              "position": 14,
              "duration": 0.14583333333333334
            },
            {
              "pitch": 64,
              "velocity": 85,
              "position": 14,
              "duration": 0.14583333333333334
            },
            {
              "pitch": 59,
              "velocity": 85,
              "position": 14,
              "duration": 0.14583333333333334
            },
            {
              "pitch": 52,
              "velocity": 110,
              "position": 14,
              "duration": 0.3125
            },
            {
              "pitch": 47,
              "velocity": 110,
              "position": 14.8125,
              "duration": 0.1875
            },
            {
              "pitch": 64,
              "velocity": 55,
              "position": 14.833333333333334,
              "duration": 0.3125
            },
            {
              "pitch": 59,
              "velocity": 55,
              "position": 14.833333333333334,
              "duration": 0.3125
            },
            {
              "pitch": 55,
              "velocity": 55,
              "position": 14.833333333333334,
              "duration": 0.3125
            },
            {
              "pitch": 47,
              "velocity": 73,
              "position": 15.3125,
              "duration": 0.0625
            },
            {
              "pitch": 55,
              "velocity": 85,
              "position": 15.5,
              "duration": 0.14583333333333334
            },
            {
              "pitch": 64,
              "velocity": 85,
              "position": 15.5,
              "duration": 0.14583333333333334
            },
            {
              "pitch": 59,
              "velocity": 85,
              "position": 15.5,
              "duration": 0.14583333333333334
            },
            {
              "pitch": 48,
              "velocity": 110,
              "position": 15.5,
              "duration": 0.3125
            }
          ]
        },
        "12": {
          "ctab": {
            "srcChannel": 12,
            "name": "SolidGtr",
            "accType": "CHORD2",
            "editable": false,
            "mutedNotes": [],
            "mutedChords": [],
            "autoStart": false,
            "sourceChordNote": 0,
            "sourceChordType": "Maj7",
            "ctb2Low": null,
            "ctb2Main": {
              "ntr": "ROOT_TRANSPOSITION",
              "ntt": "MELODY",
              "bassOn": true,
              "chordRootUpperLimit": 7,
              "noteLowLimit": 0,
              "noteHighLimit": 127,
              "rtr": "PITCH_SHIFT"
            },
            "ctb2High": null
          },
          "notes": [
            {
              "pitch": 60,
              "velocity": 55,
              "position": 0,
              "duration": 0.3020833333333333
            },
            {
              "pitch": 48,
              "velocity": 50,
              "position": 0,
              "duration": 0.3020833333333333
            },
            {
              "pitch": 64,
              "velocity": 55,
              "position": 0.010416666666666666,
              "duration": 0.30416666666666664
            },
            {
              "pitch": 67,
              "velocity": 55,
              "position": 0.020833333333333332,
              "duration": 0.3020833333333333
            },
            {
              "pitch": 71,
              "velocity": 55,
              "position": 0.020833333333333332,
              "duration": 0.3020833333333333
            },
            {
              "pitch": 64,
              "velocity": 55,
              "position": 0.34375,
              "duration": 0.1375
            },
            {
              "pitch": 60,
              "velocity": 55,
              "position": 0.3541666666666667,
              "duration": 0.13541666666666666
            },
            {
              "pitch": 48,
              "velocity": 50,
              "position": 0.3541666666666667,
              "duration": 0.13541666666666666
            },
            {
              "pitch": 67,
              "velocity": 55,
              "position": 0.3333333333333333,
              "duration": 0.15625
            },
            {
              "pitch": 71,
              "velocity": 55,
              "position": 0.3333333333333333,
              "duration": 0.15625
            },
            {
              "pitch": 48,
              "velocity": 77,
              "position": 0.5,
              "duration": 0.14583333333333334
            },
            {
              "pitch": 67,
              "velocity": 82,
              "position": 0.5208333333333334,
              "duration": 0.125
            },
            {
              "pitch": 71,
              "velocity": 82,
              "position": 0.5208333333333334,
              "duration": 0.125
            },
            {
              "pitch": 64,
              "velocity": 82,
              "position": 0.5104166666666666,
              "duration": 0.13541666666666666
            },
            {
              "pitch": 60,
              "velocity": 82,
              "position": 0.5,
              "duration": 0.14583333333333334
            },
            {
              "pitch": 64,
              "velocity": 55,
              "position": 0.84375,
              "duration": 0.1375
            },
            {
              "pitch": 60,
              "velocity": 55,
              "position": 0.8541666666666666,
              "duration": 0.13541666666666666
            },
            {
              "pitch": 48,
              "velocity": 50,
              "position": 0.8541666666666666,
              "duration": 0.13541666666666666
            },
            {
              "pitch": 67,
              "velocity": 55,
              "position": 0.8333333333333334,
              "duration": 0.15625
            },
            {
              "pitch": 71,
              "velocity": 55,
              "position": 0.8333333333333334,
              "duration": 0.15625
            },
            {
              "pitch": 64,
              "velocity": 72,
              "position": 1.0104166666666667,
              "duration": 0.03333333333333333
            },
            {
              "pitch": 60,
              "velocity": 72,
              "position": 1.0208333333333333,
              "duration": 0.03125
            },
            {
              "pitch": 48,
              "velocity": 67,
              "position": 1.0208333333333333,
              "duration": 0.03125
            },
            {
              "pitch": 67,
              "velocity": 72,
              "position": 1.0208333333333333,
              "duration": 0.052083333333333336
            },
            {
              "pitch": 71,
              "velocity": 72,
              "position": 1.0208333333333333,
              "duration": 0.052083333333333336
            },
            {
              "pitch": 64,
              "velocity": 55,
              "position": 1.34375,
              "duration": 0.13541666666666666
            },
            {
              "pitch": 60,
              "velocity": 55,
              "position": 1.3541666666666667,
              "duration": 0.12708333333333333
            },
            {
              "pitch": 48,
              "velocity": 50,
              "position": 1.3541666666666667,
              "duration": 0.12708333333333333
            },
            {
              "pitch": 67,
              "velocity": 55,
              "position": 1.3333333333333333,
              "duration": 0.14791666666666667
            },
            {
              "pitch": 71,
              "velocity": 55,
              "position": 1.3333333333333333,
              "duration": 0.14791666666666667
            },
            {
              "pitch": 64,
              "velocity": 82,
              "position": 1.5,
              "duration": 0.03333333333333333
            },
            {
              "pitch": 60,
              "velocity": 82,
              "position": 1.5104166666666667,
              "duration": 0.03125
            },
            {
              "pitch": 48,
              "velocity": 77,
              "position": 1.5104166666666667,
              "duration": 0.03125
            },
            {
              "pitch": 67,
              "velocity": 82,
              "position": 1.5104166666666667,
              "duration": 0.052083333333333336
            },
            {
              "pitch": 71,
              "velocity": 82,
              "position": 1.5104166666666667,
              "duration": 0.052083333333333336
            },
            {
              "pitch": 64,
              "velocity": 40,
              "position": 1.84375,
              "duration": 0.1375
            },
            {
              "pitch": 60,
              "velocity": 40,
              "position": 1.8541666666666667,
              "duration": 0.13541666666666666
            },
            {
              "pitch": 48,
              "velocity": 35,
              "position": 1.8541666666666667,
              "duration": 0.13541666666666666
            },
            {
              "pitch": 67,
              "velocity": 40,
              "position": 1.8333333333333333,
              "duration": 0.15625
            },
            {
              "pitch": 71,
              "velocity": 40,
              "position": 1.8333333333333333,
              "duration": 0.15625
            },
            {
              "pitch": 64,
              "velocity": 55,
              "position": 2.0104166666666665,
              "duration": 0.14791666666666667
            },
            {
              "pitch": 60,
              "velocity": 55,
              "position": 2,
              "duration": 0.16666666666666666
            },
            {
              "pitch": 48,
              "velocity": 50,
              "position": 2,
              "duration": 0.16666666666666666
            },
            {
              "pitch": 67,
              "velocity": 55,
              "position": 2.0208333333333335,
              "duration": 0.14583333333333334
            },
            {
              "pitch": 71,
              "velocity": 55,
              "position": 2.0208333333333335,
              "duration": 0.14583333333333334
            },
            {
              "pitch": 64,
              "velocity": 82,
              "position": 2.5,
              "duration": 0.03333333333333333
            },
            {
              "pitch": 60,
              "velocity": 82,
              "position": 2.5104166666666665,
              "duration": 0.03125
            },
            {
              "pitch": 48,
              "velocity": 77,
              "position": 2.5104166666666665,
              "duration": 0.03125
            },
            {
              "pitch": 67,
              "velocity": 82,
              "position": 2.5104166666666665,
              "duration": 0.052083333333333336
            },
            {
              "pitch": 71,
              "velocity": 82,
              "position": 2.5104166666666665,
              "duration": 0.052083333333333336
            },
            {
              "pitch": 64,
              "velocity": 55,
              "position": 2.84375,
              "duration": 0.1375
            },
            {
              "pitch": 60,
              "velocity": 55,
              "position": 2.8541666666666665,
              "duration": 0.13541666666666666
            },
            {
              "pitch": 48,
              "velocity": 50,
              "position": 2.8541666666666665,
              "duration": 0.13541666666666666
            },
            {
              "pitch": 67,
              "velocity": 55,
              "position": 2.8333333333333335,
              "duration": 0.15625
            },
            {
              "pitch": 71,
              "velocity": 55,
              "position": 2.8333333333333335,
              "duration": 0.15625
            },
            {
              "pitch": 64,
              "velocity": 82,
              "position": 3,
              "duration": 0.03333333333333333
            },
            {
              "pitch": 60,
              "velocity": 82,
              "position": 3.0104166666666665,
              "duration": 0.03125
            },
            {
              "pitch": 48,
              "velocity": 77,
              "position": 3.0104166666666665,
              "duration": 0.03125
            },
            {
              "pitch": 67,
              "velocity": 82,
              "position": 3.0104166666666665,
              "duration": 0.052083333333333336
            },
            {
              "pitch": 71,
              "velocity": 82,
              "position": 3.0104166666666665,
              "duration": 0.052083333333333336
            },
            {
              "pitch": 64,
              "velocity": 68,
              "position": 3.34375,
              "duration": 0.1375
            },
            {
              "pitch": 60,
              "velocity": 68,
              "position": 3.3541666666666665,
              "duration": 0.13541666666666666
            },
            {
              "pitch": 48,
              "velocity": 63,
              "position": 3.3541666666666665,
              "duration": 0.13541666666666666
            },
            {
              "pitch": 67,
              "velocity": 68,
              "position": 3.3333333333333335,
              "duration": 0.15625
            },
            {
              "pitch": 71,
              "velocity": 68,
              "position": 3.3333333333333335,
              "duration": 0.15625
            },
            {
              "pitch": 64,
              "velocity": 116,
              "position": 3.5104166666666665,
              "duration": 0.8041666666666667
            },
            {
              "pitch": 60,
              "velocity": 116,
              "position": 3.5,
              "duration": 0.8229166666666666
            },
            {
              "pitch": 48,
              "velocity": 111,
              "position": 3.5,
              "duration": 0.8229166666666666
            },
            {
              "pitch": 67,
              "velocity": 118,
              "position": 3.5208333333333335,
              "duration": 0.8020833333333334
            },
            {
              "pitch": 71,
              "velocity": 118,
              "position": 3.5208333333333335,
              "duration": 0.8020833333333334
            },
            {
              "pitch": 64,
              "velocity": 68,
              "position": 4.34375,
              "duration": 0.1375
            },
            {
              "pitch": 60,
              "velocity": 68,
              "position": 4.354166666666667,
              "duration": 0.13541666666666666
            },
            {
              "pitch": 48,
              "velocity": 63,
              "position": 4.354166666666667,
              "duration": 0.13541666666666666
            },
            {
              "pitch": 67,
              "velocity": 68,
              "position": 4.333333333333333,
              "duration": 0.15625
            },
            {
              "pitch": 71,
              "velocity": 68,
              "position": 4.333333333333333,
              "duration": 0.15625
            },
            {
              "pitch": 67,
              "velocity": 40,
              "position": 4.520833333333333,
              "duration": 0.2916666666666667
            },
            {
              "pitch": 71,
              "velocity": 40,
              "position": 4.520833333333333,
              "duration": 0.2916666666666667
            },
            {
              "pitch": 64,
              "velocity": 40,
              "position": 4.510416666666667,
              "duration": 0.3020833333333333
            },
            {
              "pitch": 48,
              "velocity": 35,
              "position": 4.5,
              "duration": 0.3125
            },
            {
              "pitch": 60,
              "velocity": 40,
              "position": 4.5,
              "duration": 0.3125
            },
            {
              "pitch": 64,
              "velocity": 55,
              "position": 4.84375,
              "duration": 0.14583333333333334
            },
            {
              "pitch": 48,
              "velocity": 50,
              "position": 4.854166666666667,
              "duration": 0.14583333333333334
            },
            {
              "pitch": 60,
              "velocity": 55,
              "position": 4.854166666666667,
              "duration": 0.14583333333333334
            },
            {
              "pitch": 67,
              "velocity": 55,
              "position": 4.833333333333333,
              "duration": 0.16666666666666666
            },
            {
              "pitch": 71,
              "velocity": 55,
              "position": 4.833333333333333,
              "duration": 0.16666666666666666
            },
            {
              "pitch": 64,
              "velocity": 82,
              "position": 5,
              "duration": 0.03333333333333333
            },
            {
              "pitch": 60,
              "velocity": 82,
              "position": 5.010416666666667,
              "duration": 0.03125
            },
            {
              "pitch": 48,
              "velocity": 77,
              "position": 5.010416666666667,
              "duration": 0.03125
            },
            {
              "pitch": 67,
              "velocity": 82,
              "position": 5.010416666666667,
              "duration": 0.052083333333333336
            },
            {
              "pitch": 71,
              "velocity": 82,
              "position": 5.010416666666667,
              "duration": 0.052083333333333336
            },
            {
              "pitch": 64,
              "velocity": 55,
              "position": 5.34375,
              "duration": 0.14791666666666667
            },
            {
              "pitch": 48,
              "velocity": 50,
              "position": 5.354166666666667,
              "duration": 0.14583333333333334
            },
            {
              "pitch": 60,
              "velocity": 55,
              "position": 5.354166666666667,
              "duration": 0.14583333333333334
            },
            {
              "pitch": 67,
              "velocity": 55,
              "position": 5.333333333333333,
              "duration": 0.16666666666666666
            },
            {
              "pitch": 71,
              "velocity": 55,
              "position": 5.333333333333333,
              "duration": 0.16666666666666666
            },
            {
              "pitch": 64,
              "velocity": 40,
              "position": 5.84375,
              "duration": 0.1375
            },
            {
              "pitch": 60,
              "velocity": 40,
              "position": 5.854166666666667,
              "duration": 0.13541666666666666
            },
            {
              "pitch": 48,
              "velocity": 35,
              "position": 5.854166666666667,
              "duration": 0.13541666666666666
            },
            {
              "pitch": 67,
              "velocity": 40,
              "position": 5.833333333333333,
              "duration": 0.15625
            },
            {
              "pitch": 71,
              "velocity": 40,
              "position": 5.833333333333333,
              "duration": 0.15625
            },
            {
              "pitch": 64,
              "velocity": 55,
              "position": 6.010416666666667,
              "duration": 0.14791666666666667
            },
            {
              "pitch": 60,
              "velocity": 55,
              "position": 6,
              "duration": 0.16666666666666666
            },
            {
              "pitch": 48,
              "velocity": 50,
              "position": 6,
              "duration": 0.16666666666666666
            },
            {
              "pitch": 67,
              "velocity": 55,
              "position": 6.020833333333333,
              "duration": 0.14583333333333334
            },
            {
              "pitch": 71,
              "velocity": 55,
              "position": 6.020833333333333,
              "duration": 0.14583333333333334
            },
            {
              "pitch": 64,
              "velocity": 82,
              "position": 6.5,
              "duration": 0.03333333333333333
            },
            {
              "pitch": 48,
              "velocity": 77,
              "position": 6.510416666666667,
              "duration": 0.03125
            },
            {
              "pitch": 60,
              "velocity": 82,
              "position": 6.510416666666667,
              "duration": 0.03125
            },
            {
              "pitch": 67,
              "velocity": 82,
              "position": 6.510416666666667,
              "duration": 0.052083333333333336
            },
            {
              "pitch": 71,
              "velocity": 82,
              "position": 6.510416666666667,
              "duration": 0.052083333333333336
            },
            {
              "pitch": 67,
              "velocity": 82,
              "position": 6.833333333333333,
              "duration": 0.14583333333333334
            },
            {
              "pitch": 71,
              "velocity": 82,
              "position": 6.833333333333333,
              "duration": 0.14583333333333334
            },
            {
              "pitch": 64,
              "velocity": 82,
              "position": 6.84375,
              "duration": 0.14583333333333334
            },
            {
              "pitch": 48,
              "velocity": 77,
              "position": 6.854166666666667,
              "duration": 0.14583333333333334
            },
            {
              "pitch": 60,
              "velocity": 82,
              "position": 6.854166666666667,
              "duration": 0.14583333333333334
            },
            {
              "pitch": 64,
              "velocity": 55,
              "position": 7,
              "duration": 0.2916666666666667
            },
            {
              "pitch": 60,
              "velocity": 55,
              "position": 7.010416666666667,
              "duration": 0.28125
            },
            {
              "pitch": 67,
              "velocity": 55,
              "position": 7.010416666666667,
              "duration": 0.3020833333333333
            },
            {
              "pitch": 71,
              "velocity": 55,
              "position": 7.010416666666667,
              "duration": 0.3020833333333333
            },
            {
              "pitch": 64,
              "velocity": 68,
              "position": 7.34375,
              "duration": 0.1375
            },
            {
              "pitch": 60,
              "velocity": 68,
              "position": 7.354166666666667,
              "duration": 0.13541666666666666
            },
            {
              "pitch": 67,
              "velocity": 68,
              "position": 7.333333333333333,
              "duration": 0.15625
            },
            {
              "pitch": 71,
              "velocity": 68,
              "position": 7.333333333333333,
              "duration": 0.15625
            },
            {
              "pitch": 67,
              "velocity": 55,
              "position": 7.520833333333333,
              "duration": 0.2916666666666667
            },
            {
              "pitch": 71,
              "velocity": 55,
              "position": 7.520833333333333,
              "duration": 0.2916666666666667
            },
            {
              "pitch": 64,
              "velocity": 55,
              "position": 7.510416666666667,
              "duration": 0.3145833333333333
            },
            {
              "pitch": 60,
              "velocity": 55,
              "position": 7.5,
              "duration": 0.3333333333333333
            },
            {
              "pitch": 67,
              "velocity": 82,
              "position": 7.833333333333333,
              "duration": 0.15625
            },
            {
              "pitch": 71,
              "velocity": 82,
              "position": 7.833333333333333,
              "duration": 0.15625
            },
            {
              "pitch": 60,
              "velocity": 82,
              "position": 7.854166666666667,
              "duration": 0.13541666666666666
            },
            {
              "pitch": 64,
              "velocity": 82,
              "position": 7.84375,
              "duration": 0.14583333333333334
            },
            {
              "pitch": 67,
              "velocity": 55,
              "position": 8.010416666666666,
              "duration": 0.3020833333333333
            },
            {
              "pitch": 71,
              "velocity": 55,
              "position": 8.010416666666666,
              "duration": 0.3020833333333333
            },
            {
              "pitch": 60,
              "velocity": 55,
              "position": 8.010416666666666,
              "duration": 0.3125
            },
            {
              "pitch": 48,
              "velocity": 50,
              "position": 8.010416666666666,
              "duration": 0.3125
            },
            {
              "pitch": 64,
              "velocity": 55,
              "position": 8,
              "duration": 0.3229166666666667
            },
            {
              "pitch": 64,
              "velocity": 68,
              "position": 8.333333333333334,
              "duration": 0.1375
            },
            {
              "pitch": 60,
              "velocity": 68,
              "position": 8.34375,
              "duration": 0.13541666666666666
            },
            {
              "pitch": 48,
              "velocity": 63,
              "position": 8.34375,
              "duration": 0.13541666666666666
            },
            {
              "pitch": 67,
              "velocity": 68,
              "position": 8.322916666666666,
              "duration": 0.15625
            },
            {
              "pitch": 71,
              "velocity": 68,
              "position": 8.322916666666666,
              "duration": 0.15625
            },
            {
              "pitch": 67,
              "velocity": 40,
              "position": 8.510416666666666,
              "duration": 0.2916666666666667
            },
            {
              "pitch": 71,
              "velocity": 40,
              "position": 8.510416666666666,
              "duration": 0.2916666666666667
            },
            {
              "pitch": 60,
              "velocity": 40,
              "position": 8.489583333333334,
              "duration": 0.3125
            },
            {
              "pitch": 64,
              "velocity": 40,
              "position": 8.5,
              "duration": 0.3020833333333333
            },
            {
              "pitch": 48,
              "velocity": 35,
              "position": 8.489583333333334,
              "duration": 0.3125
            },
            {
              "pitch": 64,
              "velocity": 55,
              "position": 8.833333333333334,
              "duration": 0.1375
            },
            {
              "pitch": 60,
              "velocity": 55,
              "position": 8.84375,
              "duration": 0.13541666666666666
            },
            {
              "pitch": 48,
              "velocity": 50,
              "position": 8.84375,
              "duration": 0.13541666666666666
            },
            {
              "pitch": 67,
              "velocity": 55,
              "position": 8.822916666666666,
              "duration": 0.15625
            },
            {
              "pitch": 71,
              "velocity": 55,
              "position": 8.822916666666666,
              "duration": 0.15625
            },
            {
              "pitch": 64,
              "velocity": 72,
              "position": 9,
              "duration": 0.03333333333333333
            },
            {
              "pitch": 60,
              "velocity": 72,
              "position": 9.010416666666666,
              "duration": 0.03125
            },
            {
              "pitch": 48,
              "velocity": 67,
              "position": 9.010416666666666,
              "duration": 0.03125
            },
            {
              "pitch": 67,
              "velocity": 72,
              "position": 9.010416666666666,
              "duration": 0.052083333333333336
            },
            {
              "pitch": 71,
              "velocity": 72,
              "position": 9.010416666666666,
              "duration": 0.052083333333333336
            },
            {
              "pitch": 64,
              "velocity": 55,
              "position": 9.333333333333334,
              "duration": 0.13541666666666666
            },
            {
              "pitch": 60,
              "velocity": 55,
              "position": 9.34375,
              "duration": 0.12708333333333333
            },
            {
              "pitch": 48,
              "velocity": 50,
              "position": 9.34375,
              "duration": 0.12708333333333333
            },
            {
              "pitch": 67,
              "velocity": 55,
              "position": 9.322916666666666,
              "duration": 0.14791666666666667
            },
            {
              "pitch": 71,
              "velocity": 55,
              "position": 9.322916666666666,
              "duration": 0.14791666666666667
            },
            {
              "pitch": 64,
              "velocity": 82,
              "position": 9.489583333333334,
              "duration": 0.03333333333333333
            },
            {
              "pitch": 48,
              "velocity": 77,
              "position": 9.5,
              "duration": 0.03125
            },
            {
              "pitch": 60,
              "velocity": 82,
              "position": 9.5,
              "duration": 0.03125
            },
            {
              "pitch": 67,
              "velocity": 82,
              "position": 9.5,
              "duration": 0.052083333333333336
            },
            {
              "pitch": 71,
              "velocity": 82,
              "position": 9.5,
              "duration": 0.052083333333333336
            },
            {
              "pitch": 64,
              "velocity": 40,
              "position": 9.833333333333334,
              "duration": 0.1375
            },
            {
              "pitch": 60,
              "velocity": 40,
              "position": 9.84375,
              "duration": 0.13541666666666666
            },
            {
              "pitch": 48,
              "velocity": 35,
              "position": 9.84375,
              "duration": 0.13541666666666666
            },
            {
              "pitch": 67,
              "velocity": 40,
              "position": 9.822916666666666,
              "duration": 0.15625
            },
            {
              "pitch": 71,
              "velocity": 40,
              "position": 9.822916666666666,
              "duration": 0.15625
            },
            {
              "pitch": 64,
              "velocity": 55,
              "position": 10.010416666666666,
              "duration": 0.14791666666666667
            },
            {
              "pitch": 60,
              "velocity": 55,
              "position": 10,
              "duration": 0.16666666666666666
            },
            {
              "pitch": 48,
              "velocity": 50,
              "position": 10,
              "duration": 0.16666666666666666
            },
            {
              "pitch": 67,
              "velocity": 55,
              "position": 10.020833333333334,
              "duration": 0.14583333333333334
            },
            {
              "pitch": 71,
              "velocity": 55,
              "position": 10.020833333333334,
              "duration": 0.14583333333333334
            },
            {
              "pitch": 64,
              "velocity": 82,
              "position": 10.489583333333334,
              "duration": 0.03333333333333333
            },
            {
              "pitch": 48,
              "velocity": 77,
              "position": 10.5,
              "duration": 0.03125
            },
            {
              "pitch": 60,
              "velocity": 82,
              "position": 10.5,
              "duration": 0.03125
            },
            {
              "pitch": 67,
              "velocity": 82,
              "position": 10.5,
              "duration": 0.052083333333333336
            },
            {
              "pitch": 71,
              "velocity": 82,
              "position": 10.5,
              "duration": 0.052083333333333336
            },
            {
              "pitch": 64,
              "velocity": 55,
              "position": 10.833333333333334,
              "duration": 0.1375
            },
            {
              "pitch": 60,
              "velocity": 55,
              "position": 10.84375,
              "duration": 0.13541666666666666
            },
            {
              "pitch": 48,
              "velocity": 50,
              "position": 10.84375,
              "duration": 0.13541666666666666
            },
            {
              "pitch": 67,
              "velocity": 55,
              "position": 10.822916666666666,
              "duration": 0.15625
            },
            {
              "pitch": 71,
              "velocity": 55,
              "position": 10.822916666666666,
              "duration": 0.15625
            },
            {
              "pitch": 64,
              "velocity": 82,
              "position": 11,
              "duration": 0.03333333333333333
            },
            {
              "pitch": 60,
              "velocity": 82,
              "position": 11.010416666666666,
              "duration": 0.03125
            },
            {
              "pitch": 48,
              "velocity": 77,
              "position": 11.010416666666666,
              "duration": 0.03125
            },
            {
              "pitch": 67,
              "velocity": 82,
              "position": 11.010416666666666,
              "duration": 0.052083333333333336
            },
            {
              "pitch": 71,
              "velocity": 82,
              "position": 11.010416666666666,
              "duration": 0.052083333333333336
            },
            {
              "pitch": 64,
              "velocity": 40,
              "position": 11.34375,
              "duration": 0.1375
            },
            {
              "pitch": 60,
              "velocity": 40,
              "position": 11.354166666666666,
              "duration": 0.13541666666666666
            },
            {
              "pitch": 48,
              "velocity": 35,
              "position": 11.354166666666666,
              "duration": 0.13541666666666666
            },
            {
              "pitch": 67,
              "velocity": 40,
              "position": 11.333333333333334,
              "duration": 0.15625
            },
            {
              "pitch": 71,
              "velocity": 40,
              "position": 11.333333333333334,
              "duration": 0.15625
            },
            {
              "pitch": 64,
              "velocity": 116,
              "position": 11.510416666666666,
              "duration": 0.8041666666666667
            },
            {
              "pitch": 60,
              "velocity": 116,
              "position": 11.5,
              "duration": 0.8229166666666666
            },
            {
              "pitch": 48,
              "velocity": 111,
              "position": 11.5,
              "duration": 0.8229166666666666
            },
            {
              "pitch": 67,
              "velocity": 118,
              "position": 11.520833333333334,
              "duration": 0.8020833333333334
            },
            {
              "pitch": 71,
              "velocity": 118,
              "position": 11.520833333333334,
              "duration": 0.8020833333333334
            },
            {
              "pitch": 64,
              "velocity": 68,
              "position": 12.34375,
              "duration": 0.1375
            },
            {
              "pitch": 60,
              "velocity": 68,
              "position": 12.354166666666666,
              "duration": 0.13541666666666666
            },
            {
              "pitch": 48,
              "velocity": 63,
              "position": 12.354166666666666,
              "duration": 0.13541666666666666
            },
            {
              "pitch": 67,
              "velocity": 68,
              "position": 12.333333333333334,
              "duration": 0.15625
            },
            {
              "pitch": 71,
              "velocity": 68,
              "position": 12.333333333333334,
              "duration": 0.15625
            },
            {
              "pitch": 67,
              "velocity": 40,
              "position": 12.520833333333334,
              "duration": 0.2916666666666667
            },
            {
              "pitch": 71,
              "velocity": 40,
              "position": 12.520833333333334,
              "duration": 0.2916666666666667
            },
            {
              "pitch": 64,
              "velocity": 40,
              "position": 12.510416666666666,
              "duration": 0.3020833333333333
            },
            {
              "pitch": 48,
              "velocity": 35,
              "position": 12.5,
              "duration": 0.3125
            },
            {
              "pitch": 60,
              "velocity": 40,
              "position": 12.5,
              "duration": 0.3125
            },
            {
              "pitch": 60,
              "velocity": 55,
              "position": 12.854166666666666,
              "duration": 0.13541666666666666
            },
            {
              "pitch": 48,
              "velocity": 50,
              "position": 12.854166666666666,
              "duration": 0.13541666666666666
            },
            {
              "pitch": 64,
              "velocity": 55,
              "position": 12.84375,
              "duration": 0.14583333333333334
            },
            {
              "pitch": 67,
              "velocity": 55,
              "position": 12.833333333333334,
              "duration": 0.16666666666666666
            },
            {
              "pitch": 71,
              "velocity": 55,
              "position": 12.833333333333334,
              "duration": 0.16666666666666666
            },
            {
              "pitch": 64,
              "velocity": 82,
              "position": 13,
              "duration": 0.03333333333333333
            },
            {
              "pitch": 60,
              "velocity": 82,
              "position": 13.010416666666666,
              "duration": 0.03125
            },
            {
              "pitch": 48,
              "velocity": 77,
              "position": 13.010416666666666,
              "duration": 0.03125
            },
            {
              "pitch": 67,
              "velocity": 82,
              "position": 13.010416666666666,
              "duration": 0.052083333333333336
            },
            {
              "pitch": 71,
              "velocity": 82,
              "position": 13.010416666666666,
              "duration": 0.052083333333333336
            },
            {
              "pitch": 64,
              "velocity": 55,
              "position": 13.34375,
              "duration": 0.14791666666666667
            },
            {
              "pitch": 48,
              "velocity": 50,
              "position": 13.354166666666666,
              "duration": 0.14583333333333334
            },
            {
              "pitch": 60,
              "velocity": 55,
              "position": 13.354166666666666,
              "duration": 0.14583333333333334
            },
            {
              "pitch": 67,
              "velocity": 55,
              "position": 13.333333333333334,
              "duration": 0.16666666666666666
            },
            {
              "pitch": 71,
              "velocity": 55,
              "position": 13.333333333333334,
              "duration": 0.16666666666666666
            },
            {
              "pitch": 64,
              "velocity": 40,
              "position": 13.84375,
              "duration": 0.1375
            },
            {
              "pitch": 60,
              "velocity": 40,
              "position": 13.854166666666666,
              "duration": 0.13541666666666666
            },
            {
              "pitch": 48,
              "velocity": 35,
              "position": 13.854166666666666,
              "duration": 0.13541666666666666
            },
            {
              "pitch": 67,
              "velocity": 40,
              "position": 13.833333333333334,
              "duration": 0.15625
            },
            {
              "pitch": 71,
              "velocity": 40,
              "position": 13.833333333333334,
              "duration": 0.15625
            },
            {
              "pitch": 64,
              "velocity": 55,
              "position": 14.010416666666666,
              "duration": 0.14791666666666667
            },
            {
              "pitch": 60,
              "velocity": 55,
              "position": 14,
              "duration": 0.16666666666666666
            },
            {
              "pitch": 48,
              "velocity": 50,
              "position": 14,
              "duration": 0.16666666666666666
            },
            {
              "pitch": 67,
              "velocity": 55,
              "position": 14.020833333333334,
              "duration": 0.14583333333333334
            },
            {
              "pitch": 71,
              "velocity": 55,
              "position": 14.020833333333334,
              "duration": 0.14583333333333334
            },
            {
              "pitch": 64,
              "velocity": 82,
              "position": 14.5,
              "duration": 0.03333333333333333
            },
            {
              "pitch": 48,
              "velocity": 77,
              "position": 14.510416666666666,
              "duration": 0.03125
            },
            {
              "pitch": 60,
              "velocity": 82,
              "position": 14.510416666666666,
              "duration": 0.03125
            },
            {
              "pitch": 67,
              "velocity": 82,
              "position": 14.510416666666666,
              "duration": 0.052083333333333336
            },
            {
              "pitch": 71,
              "velocity": 82,
              "position": 14.510416666666666,
              "duration": 0.052083333333333336
            },
            {
              "pitch": 64,
              "velocity": 82,
              "position": 14.84375,
              "duration": 0.14583333333333334
            },
            {
              "pitch": 48,
              "velocity": 77,
              "position": 14.854166666666666,
              "duration": 0.14583333333333334
            },
            {
              "pitch": 60,
              "velocity": 82,
              "position": 14.854166666666666,
              "duration": 0.14583333333333334
            },
            {
              "pitch": 67,
              "velocity": 82,
              "position": 14.833333333333334,
              "duration": 0.16666666666666666
            },
            {
              "pitch": 71,
              "velocity": 82,
              "position": 14.833333333333334,
              "duration": 0.16666666666666666
            },
            {
              "pitch": 64,
              "velocity": 55,
              "position": 15,
              "duration": 0.2916666666666667
            },
            {
              "pitch": 60,
              "velocity": 55,
              "position": 15.010416666666666,
              "duration": 0.28125
            },
            {
              "pitch": 67,
              "velocity": 55,
              "position": 15.010416666666666,
              "duration": 0.3020833333333333
            },
            {
              "pitch": 71,
              "velocity": 55,
              "position": 15.010416666666666,
              "duration": 0.3020833333333333
            },
            {
              "pitch": 64,
              "velocity": 68,
              "position": 15.34375,
              "duration": 0.1375
            },
            {
              "pitch": 60,
              "velocity": 68,
              "position": 15.354166666666666,
              "duration": 0.13541666666666666
            },
            {
              "pitch": 67,
              "velocity": 68,
              "position": 15.333333333333334,
              "duration": 0.15625
            },
            {
              "pitch": 71,
              "velocity": 68,
              "position": 15.333333333333334,
              "duration": 0.15625
            },
            {
              "pitch": 67,
              "velocity": 55,
              "position": 15.520833333333334,
              "duration": 0.3020833333333333
            },
            {
              "pitch": 71,
              "velocity": 55,
              "position": 15.520833333333334,
              "duration": 0.3020833333333333
            },
            {
              "pitch": 64,
              "velocity": 55,
              "position": 15.510416666666666,
              "duration": 0.3145833333333333
            },
            {
              "pitch": 60,
              "velocity": 55,
              "position": 15.5,
              "duration": 0.3333333333333333
            },
            {
              "pitch": 64,
              "velocity": 82,
              "position": 15.84375,
              "duration": 0.14791666666666667
            },
            {
              "pitch": 60,
              "velocity": 82,
              "position": 15.854166666666666,
              "duration": 0.14583333333333334
            },
            {
              "pitch": 67,
              "velocity": 82,
              "position": 15.833333333333334,
              "duration": 0.16666666666666666
            },
            {
              "pitch": 71,
              "velocity": 82,
              "position": 15.833333333333334,
              "duration": 0.16666666666666666
            }
          ]
        },
        "13": {
          "ctab": {
            "srcChannel": 13,
            "name": "E.Piano",
            "accType": "PAD",
            "editable": false,
            "mutedNotes": [],
            "mutedChords": [],
            "autoStart": false,
            "sourceChordNote": 0,
            "sourceChordType": "Maj7",
            "ctb2Low": null,
            "ctb2Main": {
              "ntr": "ROOT_FIXED",
              "ntt": "CHORD",
              "bassOn": false,
              "chordRootUpperLimit": 7,
              "noteLowLimit": 0,
              "noteHighLimit": 127,
              "rtr": "PITCH_SHIFT"
            },
            "ctb2High": null
          },
          "notes": [
            {
              "pitch": 59,
              "velocity": 90,
              "position": 0,
              "duration": 0.16666666666666666
            },
            {
              "pitch": 67,
              "velocity": 90,
              "position": 0,
              "duration": 0.16666666666666666
            },
            {
              "pitch": 64,
              "velocity": 90,
              "position": 0,
              "duration": 0.16666666666666666
            },
            {
              "pitch": 59,
              "velocity": 60,
              "position": 0.5,
              "duration": 0.16666666666666666
            },
            {
              "pitch": 67,
              "velocity": 60,
              "position": 0.5,
              "duration": 0.16666666666666666
            },
            {
              "pitch": 64,
              "velocity": 60,
              "position": 0.5,
              "duration": 0.16666666666666666
            },
            {
              "pitch": 59,
              "velocity": 106,
              "position": 1,
              "duration": 1.9895833333333333
            },
            {
              "pitch": 67,
              "velocity": 106,
              "position": 1,
              "duration": 1.9895833333333333
            },
            {
              "pitch": 64,
              "velocity": 106,
              "position": 1,
              "duration": 1.9895833333333333
            },
            {
              "pitch": 59,
              "velocity": 75,
              "position": 3,
              "duration": 0.16666666666666666
            },
            {
              "pitch": 67,
              "velocity": 75,
              "position": 3,
              "duration": 0.16666666666666666
            },
            {
              "pitch": 64,
              "velocity": 75,
              "position": 3,
              "duration": 0.16666666666666666
            },
            {
              "pitch": 59,
              "velocity": 90,
              "position": 4,
              "duration": 0.16666666666666666
            },
            {
              "pitch": 67,
              "velocity": 90,
              "position": 4,
              "duration": 0.16666666666666666
            },
            {
              "pitch": 64,
              "velocity": 90,
              "position": 4,
              "duration": 0.16666666666666666
            },
            {
              "pitch": 59,
              "velocity": 68,
              "position": 5,
              "duration": 0.16666666666666666
            },
            {
              "pitch": 67,
              "velocity": 68,
              "position": 5,
              "duration": 0.16666666666666666
            },
            {
              "pitch": 64,
              "velocity": 68,
              "position": 5,
              "duration": 0.16666666666666666
            },
            {
              "pitch": 59,
              "velocity": 90,
              "position": 6,
              "duration": 0.16666666666666666
            },
            {
              "pitch": 67,
              "velocity": 90,
              "position": 6,
              "duration": 0.16666666666666666
            },
            {
              "pitch": 64,
              "velocity": 90,
              "position": 6,
              "duration": 0.16666666666666666
            },
            {
              "pitch": 59,
              "velocity": 75,
              "position": 7,
              "duration": 0.16666666666666666
            },
            {
              "pitch": 67,
              "velocity": 75,
              "position": 7,
              "duration": 0.16666666666666666
            },
            {
              "pitch": 64,
              "velocity": 75,
              "position": 7,
              "duration": 0.16666666666666666
            },
            {
              "pitch": 59,
              "velocity": 60,
              "position": 7.5,
              "duration": 0.16666666666666666
            },
            {
              "pitch": 67,
              "velocity": 60,
              "position": 7.5,
              "duration": 0.16666666666666666
            },
            {
              "pitch": 64,
              "velocity": 60,
              "position": 7.5,
              "duration": 0.16666666666666666
            },
            {
              "pitch": 59,
              "velocity": 90,
              "position": 8,
              "duration": 0.16666666666666666
            },
            {
              "pitch": 67,
              "velocity": 90,
              "position": 8,
              "duration": 0.16666666666666666
            },
            {
              "pitch": 64,
              "velocity": 90,
              "position": 8,
              "duration": 0.16666666666666666
            },
            {
              "pitch": 59,
              "velocity": 60,
              "position": 8.5,
              "duration": 0.16666666666666666
            },
            {
              "pitch": 67,
              "velocity": 60,
              "position": 8.5,
              "duration": 0.16666666666666666
            },
            {
              "pitch": 64,
              "velocity": 60,
              "position": 8.5,
              "duration": 0.16666666666666666
            },
            {
              "pitch": 59,
              "velocity": 106,
              "position": 9,
              "duration": 1.9895833333333333
            },
            {
              "pitch": 67,
              "velocity": 106,
              "position": 9,
              "duration": 1.9895833333333333
            },
            {
              "pitch": 64,
              "velocity": 106,
              "position": 9,
              "duration": 1.9895833333333333
            },
            {
              "pitch": 59,
              "velocity": 75,
              "position": 11,
              "duration": 0.16666666666666666
            },
            {
              "pitch": 67,
              "velocity": 75,
              "position": 11,
              "duration": 0.16666666666666666
            },
            {
              "pitch": 64,
              "velocity": 75,
              "position": 11,
              "duration": 0.16666666666666666
            },
            {
              "pitch": 59,
              "velocity": 90,
              "position": 12,
              "duration": 0.16666666666666666
            },
            {
              "pitch": 67,
              "velocity": 90,
              "position": 12,
              "duration": 0.16666666666666666
            },
            {
              "pitch": 64,
              "velocity": 90,
              "position": 12,
              "duration": 0.16666666666666666
            },
            {
              "pitch": 59,
              "velocity": 68,
              "position": 13,
              "duration": 0.16666666666666666
            },
            {
              "pitch": 67,
              "velocity": 68,
              "position": 13,
              "duration": 0.16666666666666666
            },
            {
              "pitch": 64,
              "velocity": 68,
              "position": 13,
              "duration": 0.16666666666666666
            },
            {
              "pitch": 59,
              "velocity": 90,
              "position": 14,
              "duration": 0.16666666666666666
            },
            {
              "pitch": 67,
              "velocity": 90,
              "position": 14,
              "duration": 0.16666666666666666
            },
            {
              "pitch": 64,
              "velocity": 90,
              "position": 14,
              "duration": 0.16666666666666666
            },
            {
              "pitch": 59,
              "velocity": 75,
              "position": 15,
              "duration": 0.16666666666666666
            },
            {
              "pitch": 67,
              "velocity": 75,
              "position": 15,
              "duration": 0.16666666666666666
            },
            {
              "pitch": 64,
              "velocity": 75,
              "position": 15,
              "duration": 0.16666666666666666
            },
            {
              "pitch": 59,
              "velocity": 60,
              "position": 15.5,
              "duration": 0.16666666666666666
            },
            {
              "pitch": 67,
              "velocity": 60,
              "position": 15.5,
              "duration": 0.16666666666666666
            },
            {
              "pitch": 64,
              "velocity": 60,
              "position": 15.5,
              "duration": 0.16666666666666666
            }
          ]
        },
        "14": {
          "ctab": {
            "srcChannel": 14,
            "name": "TenorSax",
            "accType": "PHRASE1",
            "editable": false,
            "mutedNotes": [],
            "mutedChords": [],
            "autoStart": false,
            "sourceChordNote": 0,
            "sourceChordType": "Maj7",
            "ctb2Low": null,
            "ctb2Main": {
              "ntr": "ROOT_TRANSPOSITION",
              "ntt": "MELODY",
              "bassOn": false,
              "chordRootUpperLimit": 7,
              "noteLowLimit": 0,
              "noteHighLimit": 127,
              "rtr": "PITCH_SHIFT"
            },
            "ctb2High": null
          },
          "notes": [
            {
              "pitch": 48,
              "velocity": 81,
              "position": 1,
              "duration": 0.7416666666666667
            },
            {
              "pitch": 60,
              "velocity": 54,
              "position": 8.5,
              "duration": 0.825
            },
            {
              "pitch": 60,
              "velocity": 85,
              "position": 9.333333333333334,
              "duration": 0.16666666666666666
            },
            {
              "pitch": 60,
              "velocity": 54,
              "position": 10.833333333333334,
              "duration": 0.6583333333333333
            },
            {
              "pitch": 60,
              "velocity": 84,
              "position": 11.5,
              "duration": 0.16666666666666666
            }
          ]
        },
        "15": {
          "ctab": {
            "srcChannel": 15,
            "name": "Brass",
            "accType": "PHRASE2",
            "editable": false,
            "mutedNotes": [],
            "mutedChords": [],
            "autoStart": false,
            "sourceChordNote": 0,
            "sourceChordType": "Maj7",
            "ctb2Low": null,
            "ctb2Main": {
              "ntr": "ROOT_FIXED",
              "ntt": "CHORD",
              "bassOn": false,
              "chordRootUpperLimit": 7,
              "noteLowLimit": 0,
              "noteHighLimit": 127,
              "rtr": "PITCH_SHIFT"
            },
            "ctb2High": null
          },
          "notes": [
            {
              "pitch": 59,
              "velocity": 84,
              "position": 1.7583333333333333,
              "duration": 0.16666666666666666
            },
            {
              "pitch": 67,
              "velocity": 84,
              "position": 1.7583333333333333,
              "duration": 0.16666666666666666
            },
            {
              "pitch": 64,
              "velocity": 84,
              "position": 1.7583333333333333,
              "duration": 0.16666666666666666
            },
            {
              "pitch": 59,
              "velocity": 84,
              "position": 5.333333333333333,
              "duration": 0.16666666666666666
            },
            {
              "pitch": 67,
              "velocity": 84,
              "position": 5.333333333333333,
              "duration": 0.16666666666666666
            },
            {
              "pitch": 64,
              "velocity": 84,
              "position": 5.333333333333333,
              "duration": 0.16666666666666666
            },
            {
              "pitch": 59,
              "velocity": 84,
              "position": 6.008333333333334,
              "duration": 0.16666666666666666
            },
            {
              "pitch": 67,
              "velocity": 84,
              "position": 6.008333333333334,
              "duration": 0.16666666666666666
            },
            {
              "pitch": 64,
              "velocity": 84,
              "position": 6.008333333333334,
              "duration": 0.16666666666666666
            },
            {
              "pitch": 71,
              "velocity": 85,
              "position": 9.333333333333334,
              "duration": 0.16666666666666666
            },
            {
              "pitch": 79,
              "velocity": 85,
              "position": 9.333333333333334,
              "duration": 0.16666666666666666
            },
            {
              "pitch": 76,
              "velocity": 87,
              "position": 9.333333333333334,
              "duration": 0.16666666666666666
            },
            {
              "pitch": 79,
              "velocity": 85,
              "position": 10.833333333333334,
              "duration": 0.65625
            },
            {
              "pitch": 71,
              "velocity": 85,
              "position": 11.5,
              "duration": 0.16666666666666666
            },
            {
              "pitch": 79,
              "velocity": 88,
              "position": 11.5,
              "duration": 0.16666666666666666
            },
            {
              "pitch": 76,
              "velocity": 87,
              "position": 11.5,
              "duration": 0.16666666666666666
            },
            {
              "pitch": 59,
              "velocity": 84,
              "position": 13.333333333333334,
              "duration": 0.16666666666666666
            },
            {
              "pitch": 67,
              "velocity": 84,
              "position": 13.333333333333334,
              "duration": 0.16666666666666666
            },
            {
              "pitch": 64,
              "velocity": 84,
              "position": 13.333333333333334,
              "duration": 0.16666666666666666
            },
            {
              "pitch": 59,
              "velocity": 84,
              "position": 14.008333333333333,
              "duration": 0.16666666666666666
            },
            {
              "pitch": 67,
              "velocity": 84,
              "position": 14.008333333333333,
              "duration": 0.16666666666666666
            },
            {
              "pitch": 64,
              "velocity": 84,
              "position": 14.008333333333333,
              "duration": 0.16666666666666666
            }
          ]
        }
      }
    },
    "Fill_In_CC": {
      "type": "Fill_In_CC",
      "sizeInBeats": 4,
      "channels": {
        "2": {
          "ctab": {
            "srcChannel": 2,
            "name": "ClaviBs",
            "accType": "CHORD1",
            "editable": false,
            "mutedNotes": [],
            "mutedChords": [],
            "autoStart": false,
            "sourceChordNote": 0,
            "sourceChordType": "Maj7",
            "ctb2Low": null,
            "ctb2Main": {
              "ntr": "ROOT_TRANSPOSITION",
              "ntt": "MELODY",
              "bassOn": true,
              "chordRootUpperLimit": 8,
              "noteLowLimit": 28,
              "noteHighLimit": 127,
              "rtr": "PITCH_SHIFT_TO_ROOT"
            },
            "ctb2High": null
          },
          "notes": [
            {
              "pitch": 36,
              "velocity": 99,
              "position": 0,
              "duration": 0.4895833333333333
            },
            {
              "pitch": 36,
              "velocity": 104,
              "position": 1.8333333333333333,
              "duration": 0.07291666666666667
            },
            {
              "pitch": 43,
              "velocity": 104,
              "position": 3.8333333333333335,
              "duration": 0.07291666666666667
            }
          ]
        },
        "4": {
          "ctab": {
            "srcChannel": 4,
            "name": "E.P  rt",
            "accType": "PAD",
            "editable": false,
            "mutedNotes": [],
            "mutedChords": [
              "1+2+5",
              "sus4",
              "1+5",
              "1+8",
              "Maj7aug",
              "dim",
              "minMaj7(9)",
              "minMaj7",
              "min6",
              "min",
              "aug",
              "Maj7(9)",
              "Maj7#11",
              "Maj7",
              "Maj6",
              "Maj"
            ],
            "autoStart": false,
            "sourceChordNote": 0,
            "sourceChordType": "Maj7",
            "ctb2Low": null,
            "ctb2Main": {
              "ntr": "ROOT_TRANSPOSITION",
              "ntt": "CHORD",
              "bassOn": false,
              "chordRootUpperLimit": 10,
              "noteLowLimit": 0,
              "noteHighLimit": 127,
              "rtr": "PITCH_SHIFT"
            },
            "ctb2High": null
          },
          "notes": [
            {
              "pitch": 60,
              "velocity": 90,
              "position": 0,
              "duration": 0.16666666666666666
            },
            {
              "pitch": 60,
              "velocity": 60,
              "position": 0.5,
              "duration": 0.16666666666666666
            },
            {
              "pitch": 60,
              "velocity": 110,
              "position": 1,
              "duration": 1.9895833333333333
            },
            {
              "pitch": 60,
              "velocity": 75,
              "position": 3,
              "duration": 0.16666666666666666
            }
          ]
        },
        "8": {
          "ctab": {
            "srcChannel": 8,
            "name": "AddDrum",
            "accType": "SUBRHYTHM",
            "editable": false,
            "mutedNotes": [],
            "mutedChords": [],
            "autoStart": true,
            "sourceChordNote": 0,
            "sourceChordType": "Maj7",
            "ctb2Low": null,
            "ctb2Main": {
              "ntr": "ROOT_FIXED",
              "ntt": "BYPASS",
              "bassOn": false,
              "chordRootUpperLimit": 6,
              "noteLowLimit": 0,
              "noteHighLimit": 127,
              "rtr": "PITCH_SHIFT"
            },
            "ctb2High": null
          },
          "notes": [
            {
              "pitch": 64,
              "velocity": 80,
              "position": 0,
              "duration": 0.010416666666666666
            },
            {
              "pitch": 69,
              "velocity": 41,
              "position": 0,
              "duration": 0.010416666666666666
            },
            {
              "pitch": 69,
              "velocity": 64,
              "position": 0.5,
              "duration": 0.010416666666666666
            },
            {
              "pitch": 62,
              "velocity": 14,
              "position": 0.8333333333333334,
              "duration": 0.010416666666666666
            },
            {
              "pitch": 69,
              "velocity": 23,
              "position": 0.8333333333333334,
              "duration": 0.010416666666666666
            },
            {
              "pitch": 54,
              "velocity": 100,
              "position": 1,
              "duration": 0.010416666666666666
            },
            {
              "pitch": 69,
              "velocity": 41,
              "position": 1,
              "duration": 0.010416666666666666
            },
            {
              "pitch": 62,
              "velocity": 80,
              "position": 1,
              "duration": 0.010416666666666666
            },
            {
              "pitch": 63,
              "velocity": 80,
              "position": 1.5,
              "duration": 0.010416666666666666
            },
            {
              "pitch": 69,
              "velocity": 64,
              "position": 1.5,
              "duration": 0.010416666666666666
            },
            {
              "pitch": 69,
              "velocity": 40,
              "position": 1.8333333333333333,
              "duration": 0.010416666666666666
            },
            {
              "pitch": 69,
              "velocity": 73,
              "position": 2,
              "duration": 0.010416666666666666
            },
            {
              "pitch": 69,
              "velocity": 16,
              "position": 2.3333333333333335,
              "duration": 0.010416666666666666
            },
            {
              "pitch": 63,
              "velocity": 31,
              "position": 2.5,
              "duration": 0.010416666666666666
            },
            {
              "pitch": 69,
              "velocity": 49,
              "position": 2.5,
              "duration": 0.010416666666666666
            },
            {
              "pitch": 62,
              "velocity": 44,
              "position": 2.8333333333333335,
              "duration": 0.010416666666666666
            },
            {
              "pitch": 69,
              "velocity": 18,
              "position": 2.8333333333333335,
              "duration": 0.010416666666666666
            },
            {
              "pitch": 54,
              "velocity": 100,
              "position": 3,
              "duration": 0.010416666666666666
            },
            {
              "pitch": 69,
              "velocity": 77,
              "position": 3,
              "duration": 0.010416666666666666
            },
            {
              "pitch": 62,
              "velocity": 80,
              "position": 3,
              "duration": 0.010416666666666666
            },
            {
              "pitch": 64,
              "velocity": 80,
              "position": 3.5,
              "duration": 0.010416666666666666
            },
            {
              "pitch": 69,
              "velocity": 64,
              "position": 3.5,
              "duration": 0.010416666666666666
            },
            {
              "pitch": 69,
              "velocity": 33,
              "position": 3.8333333333333335,
              "duration": 0.010416666666666666
            }
          ]
        },
        "9": {
          "ctab": {
            "srcChannel": 9,
            "name": "MainDrum",
            "accType": "RHYTHM",
            "editable": false,
            "mutedNotes": [],
            "mutedChords": [],
            "autoStart": true,
            "sourceChordNote": 0,
            "sourceChordType": "Maj7",
            "ctb2Low": null,
            "ctb2Main": {
              "ntr": "ROOT_FIXED",
              "ntt": "BYPASS",
              "bassOn": false,
              "chordRootUpperLimit": 6,
              "noteLowLimit": 0,
              "noteHighLimit": 127,
              "rtr": "PITCH_SHIFT"
            },
            "ctb2High": null
          },
          "notes": [
            {
              "pitch": 35,
              "velocity": 90,
              "position": 0,
              "duration": 0.010416666666666666
            },
            {
              "pitch": 51,
              "velocity": 60,
              "position": 0,
              "duration": 0.010416666666666666
            },
            {
              "pitch": 42,
              "velocity": 116,
              "position": 0,
              "duration": 0.010416666666666666
            },
            {
              "pitch": 40,
              "velocity": 80,
              "position": 0.5,
              "duration": 0.010416666666666666
            },
            {
              "pitch": 51,
              "velocity": 88,
              "position": 0.5,
              "duration": 0.010416666666666666
            },
            {
              "pitch": 42,
              "velocity": 88,
              "position": 0.5,
              "duration": 0.010416666666666666
            },
            {
              "pitch": 40,
              "velocity": 80,
              "position": 0.8333333333333334,
              "duration": 0.010416666666666666
            },
            {
              "pitch": 40,
              "velocity": 114,
              "position": 1,
              "duration": 0.010416666666666666
            },
            {
              "pitch": 51,
              "velocity": 60,
              "position": 1,
              "duration": 0.010416666666666666
            },
            {
              "pitch": 42,
              "velocity": 116,
              "position": 1,
              "duration": 0.010416666666666666
            },
            {
              "pitch": 35,
              "velocity": 91,
              "position": 1.3333333333333333,
              "duration": 0.010416666666666666
            },
            {
              "pitch": 42,
              "velocity": 94,
              "position": 1.5,
              "duration": 0.010416666666666666
            },
            {
              "pitch": 51,
              "velocity": 88,
              "position": 1.5,
              "duration": 0.010416666666666666
            },
            {
              "pitch": 42,
              "velocity": 54,
              "position": 1.8333333333333333,
              "duration": 0.010416666666666666
            },
            {
              "pitch": 35,
              "velocity": 70,
              "position": 2,
              "duration": 0.010416666666666666
            },
            {
              "pitch": 42,
              "velocity": 116,
              "position": 2,
              "duration": 0.010416666666666666
            },
            {
              "pitch": 40,
              "velocity": 60,
              "position": 2,
              "duration": 0.010416666666666666
            },
            {
              "pitch": 40,
              "velocity": 39,
              "position": 2.1666666666666665,
              "duration": 0.010416666666666666
            },
            {
              "pitch": 40,
              "velocity": 49,
              "position": 2.3333333333333335,
              "duration": 0.010416666666666666
            },
            {
              "pitch": 40,
              "velocity": 50,
              "position": 2.5,
              "duration": 0.010416666666666666
            },
            {
              "pitch": 42,
              "velocity": 85,
              "position": 2.5,
              "duration": 0.010416666666666666
            },
            {
              "pitch": 40,
              "velocity": 65,
              "position": 2.6666666666666665,
              "duration": 0.010416666666666666
            },
            {
              "pitch": 35,
              "velocity": 70,
              "position": 2.8333333333333335,
              "duration": 0.010416666666666666
            },
            {
              "pitch": 40,
              "velocity": 60,
              "position": 2.8333333333333335,
              "duration": 0.010416666666666666
            },
            {
              "pitch": 40,
              "velocity": 65,
              "position": 3,
              "duration": 0.010416666666666666
            },
            {
              "pitch": 42,
              "velocity": 116,
              "position": 3,
              "duration": 0.010416666666666666
            },
            {
              "pitch": 40,
              "velocity": 80,
              "position": 3.1666666666666665,
              "duration": 0.010416666666666666
            },
            {
              "pitch": 40,
              "velocity": 101,
              "position": 3.3333333333333335,
              "duration": 0.010416666666666666
            },
            {
              "pitch": 42,
              "velocity": 37,
              "position": 3.3333333333333335,
              "duration": 0.010416666666666666
            },
            {
              "pitch": 35,
              "velocity": 70,
              "position": 3.5,
              "duration": 0.010416666666666666
            },
            {
              "pitch": 52,
              "velocity": 85,
              "position": 3.5,
              "duration": 0.010416666666666666
            },
            {
              "pitch": 43,
              "velocity": 80,
              "position": 3.5,
              "duration": 0.010416666666666666
            },
            {
              "pitch": 49,
              "velocity": 76,
              "position": 3.9895833333333335,
              "duration": 0.010416666666666666
            }
          ]
        },
        "10": {
          "ctab": {
            "srcChannel": 10,
            "name": "Bass",
            "accType": "BASS",
            "editable": false,
            "mutedNotes": [],
            "mutedChords": [],
            "autoStart": false,
            "sourceChordNote": 0,
            "sourceChordType": "Maj7",
            "ctb2Low": null,
            "ctb2Main": {
              "ntr": "ROOT_TRANSPOSITION",
              "ntt": "MELODY",
              "bassOn": true,
              "chordRootUpperLimit": 8,
              "noteLowLimit": 28,
              "noteHighLimit": 127,
              "rtr": "PITCH_SHIFT_TO_ROOT"
            },
            "ctb2High": null
          },
          "notes": [
            {
              "pitch": 24,
              "velocity": 70,
              "position": 0,
              "duration": 0.48125
            },
            {
              "pitch": 24,
              "velocity": 111,
              "position": 0.5,
              "duration": 0.3145833333333333
            },
            {
              "pitch": 36,
              "velocity": 111,
              "position": 1,
              "duration": 0.3145833333333333
            },
            {
              "pitch": 24,
              "velocity": 46,
              "position": 1.8333333333333333,
              "duration": 0.14791666666666667
            },
            {
              "pitch": 24,
              "velocity": 70,
              "position": 2,
              "duration": 0.48125
            },
            {
              "pitch": 24,
              "velocity": 111,
              "position": 2.5,
              "duration": 0.3145833333333333
            },
            {
              "pitch": 36,
              "velocity": 112,
              "position": 3,
              "duration": 0.3145833333333333
            },
            {
              "pitch": 31,
              "velocity": 110,
              "position": 3.8333333333333335,
              "duration": 0.16666666666666666
            }
          ]
        },
        "11": {
          "ctab": {
            "srcChannel": 11,
            "name": "Clavi",
            "accType": "CHORD1",
            "editable": false,
            "mutedNotes": [],
            "mutedChords": [],
            "autoStart": false,
            "sourceChordNote": 0,
            "sourceChordType": "Maj7",
            "ctb2Low": null,
            "ctb2Main": {
              "ntr": "ROOT_TRANSPOSITION",
              "ntt": "CHORD",
              "bassOn": false,
              "chordRootUpperLimit": 7,
              "noteLowLimit": 0,
              "noteHighLimit": 127,
              "rtr": "PITCH_SHIFT"
            },
            "ctb2High": null
          },
          "notes": [
            {
              "pitch": 55,
              "velocity": 55,
              "position": 0,
              "duration": 0.3125
            },
            {
              "pitch": 64,
              "velocity": 55,
              "position": 0,
              "duration": 0.3125
            },
            {
              "pitch": 59,
              "velocity": 55,
              "position": 0,
              "duration": 0.3125
            },
            {
              "pitch": 55,
              "velocity": 85,
              "position": 0.5,
              "duration": 0.14583333333333334
            },
            {
              "pitch": 64,
              "velocity": 85,
              "position": 0.5,
              "duration": 0.14583333333333334
            },
            {
              "pitch": 59,
              "velocity": 85,
              "position": 0.5,
              "duration": 0.14583333333333334
            },
            {
              "pitch": 47,
              "velocity": 110,
              "position": 0.5,
              "duration": 0.3125
            },
            {
              "pitch": 48,
              "velocity": 110,
              "position": 1,
              "duration": 0.3125
            },
            {
              "pitch": 55,
              "velocity": 55,
              "position": 1.3333333333333333,
              "duration": 0.3125
            },
            {
              "pitch": 59,
              "velocity": 55,
              "position": 1.3333333333333333,
              "duration": 0.3125
            },
            {
              "pitch": 64,
              "velocity": 55,
              "position": 1.3333333333333333,
              "duration": 0.3125
            },
            {
              "pitch": 47,
              "velocity": 110,
              "position": 1.5,
              "duration": 0.3125
            },
            {
              "pitch": 55,
              "velocity": 85,
              "position": 2,
              "duration": 0.14583333333333334
            },
            {
              "pitch": 64,
              "velocity": 85,
              "position": 2,
              "duration": 0.14583333333333334
            },
            {
              "pitch": 59,
              "velocity": 85,
              "position": 2,
              "duration": 0.14583333333333334
            },
            {
              "pitch": 52,
              "velocity": 110,
              "position": 2,
              "duration": 0.3125
            },
            {
              "pitch": 47,
              "velocity": 110,
              "position": 2.8125,
              "duration": 0.1875
            },
            {
              "pitch": 64,
              "velocity": 55,
              "position": 2.8333333333333335,
              "duration": 0.3125
            },
            {
              "pitch": 59,
              "velocity": 55,
              "position": 2.8333333333333335,
              "duration": 0.3125
            },
            {
              "pitch": 55,
              "velocity": 55,
              "position": 2.8333333333333335,
              "duration": 0.3125
            },
            {
              "pitch": 55,
              "velocity": 85,
              "position": 3.5,
              "duration": 0.14583333333333334
            },
            {
              "pitch": 64,
              "velocity": 85,
              "position": 3.5,
              "duration": 0.14583333333333334
            },
            {
              "pitch": 59,
              "velocity": 85,
              "position": 3.5,
              "duration": 0.14583333333333334
            },
            {
              "pitch": 48,
              "velocity": 110,
              "position": 3.5,
              "duration": 0.3125
            }
          ]
        },
        "12": {
          "ctab": {
            "srcChannel": 12,
            "name": "SolidGtr",
            "accType": "CHORD2",
            "editable": false,
            "mutedNotes": [],
            "mutedChords": [],
            "autoStart": false,
            "sourceChordNote": 0,
            "sourceChordType": "Maj7",
            "ctb2Low": null,
            "ctb2Main": {
              "ntr": "ROOT_TRANSPOSITION",
              "ntt": "MELODY",
              "bassOn": true,
              "chordRootUpperLimit": 7,
              "noteLowLimit": 0,
              "noteHighLimit": 127,
              "rtr": "PITCH_SHIFT"
            },
            "ctb2High": null
          },
          "notes": [
            {
              "pitch": 67,
              "velocity": 55,
              "position": 0.010416666666666666,
              "duration": 0.3020833333333333
            },
            {
              "pitch": 71,
              "velocity": 55,
              "position": 0.010416666666666666,
              "duration": 0.3020833333333333
            },
            {
              "pitch": 60,
              "velocity": 55,
              "position": 0.010416666666666666,
              "duration": 0.3125
            },
            {
              "pitch": 48,
              "velocity": 50,
              "position": 0.010416666666666666,
              "duration": 0.3125
            },
            {
              "pitch": 64,
              "velocity": 55,
              "position": 0,
              "duration": 0.3229166666666667
            },
            {
              "pitch": 64,
              "velocity": 68,
              "position": 0.3333333333333333,
              "duration": 0.1375
            },
            {
              "pitch": 60,
              "velocity": 68,
              "position": 0.34375,
              "duration": 0.13541666666666666
            },
            {
              "pitch": 48,
              "velocity": 63,
              "position": 0.34375,
              "duration": 0.13541666666666666
            },
            {
              "pitch": 67,
              "velocity": 68,
              "position": 0.3229166666666667,
              "duration": 0.15625
            },
            {
              "pitch": 71,
              "velocity": 68,
              "position": 0.3229166666666667,
              "duration": 0.15625
            },
            {
              "pitch": 67,
              "velocity": 40,
              "position": 0.5104166666666666,
              "duration": 0.2916666666666667
            },
            {
              "pitch": 71,
              "velocity": 40,
              "position": 0.5104166666666666,
              "duration": 0.2916666666666667
            },
            {
              "pitch": 60,
              "velocity": 40,
              "position": 0.4895833333333333,
              "duration": 0.3125
            },
            {
              "pitch": 64,
              "velocity": 40,
              "position": 0.5,
              "duration": 0.3020833333333333
            },
            {
              "pitch": 48,
              "velocity": 35,
              "position": 0.4895833333333333,
              "duration": 0.3125
            },
            {
              "pitch": 64,
              "velocity": 55,
              "position": 0.8333333333333334,
              "duration": 0.1375
            },
            {
              "pitch": 60,
              "velocity": 55,
              "position": 0.84375,
              "duration": 0.13541666666666666
            },
            {
              "pitch": 48,
              "velocity": 50,
              "position": 0.84375,
              "duration": 0.13541666666666666
            },
            {
              "pitch": 67,
              "velocity": 55,
              "position": 0.8229166666666666,
              "duration": 0.15625
            },
            {
              "pitch": 71,
              "velocity": 55,
              "position": 0.8229166666666666,
              "duration": 0.15625
            },
            {
              "pitch": 64,
              "velocity": 72,
              "position": 1,
              "duration": 0.03333333333333333
            },
            {
              "pitch": 60,
              "velocity": 72,
              "position": 1.0104166666666667,
              "duration": 0.03125
            },
            {
              "pitch": 48,
              "velocity": 67,
              "position": 1.0104166666666667,
              "duration": 0.03125
            },
            {
              "pitch": 67,
              "velocity": 72,
              "position": 1.0104166666666667,
              "duration": 0.052083333333333336
            },
            {
              "pitch": 71,
              "velocity": 72,
              "position": 1.0104166666666667,
              "duration": 0.052083333333333336
            },
            {
              "pitch": 64,
              "velocity": 55,
              "position": 1.3333333333333333,
              "duration": 0.13541666666666666
            },
            {
              "pitch": 60,
              "velocity": 55,
              "position": 1.34375,
              "duration": 0.12708333333333333
            },
            {
              "pitch": 48,
              "velocity": 50,
              "position": 1.34375,
              "duration": 0.12708333333333333
            },
            {
              "pitch": 67,
              "velocity": 55,
              "position": 1.3229166666666667,
              "duration": 0.14791666666666667
            },
            {
              "pitch": 71,
              "velocity": 55,
              "position": 1.3229166666666667,
              "duration": 0.14791666666666667
            },
            {
              "pitch": 64,
              "velocity": 82,
              "position": 1.4895833333333333,
              "duration": 0.03333333333333333
            },
            {
              "pitch": 48,
              "velocity": 77,
              "position": 1.5,
              "duration": 0.03125
            },
            {
              "pitch": 60,
              "velocity": 82,
              "position": 1.5,
              "duration": 0.03125
            },
            {
              "pitch": 67,
              "velocity": 82,
              "position": 1.5,
              "duration": 0.052083333333333336
            },
            {
              "pitch": 71,
              "velocity": 82,
              "position": 1.5,
              "duration": 0.052083333333333336
            },
            {
              "pitch": 64,
              "velocity": 40,
              "position": 1.8333333333333333,
              "duration": 0.1375
            },
            {
              "pitch": 60,
              "velocity": 40,
              "position": 1.84375,
              "duration": 0.13541666666666666
            },
            {
              "pitch": 48,
              "velocity": 35,
              "position": 1.84375,
              "duration": 0.13541666666666666
            },
            {
              "pitch": 67,
              "velocity": 40,
              "position": 1.8229166666666667,
              "duration": 0.15625
            },
            {
              "pitch": 71,
              "velocity": 40,
              "position": 1.8229166666666667,
              "duration": 0.15625
            },
            {
              "pitch": 64,
              "velocity": 55,
              "position": 2,
              "duration": 0.14791666666666667
            },
            {
              "pitch": 67,
              "velocity": 55,
              "position": 2.0104166666666665,
              "duration": 0.14583333333333334
            },
            {
              "pitch": 71,
              "velocity": 55,
              "position": 2.0104166666666665,
              "duration": 0.14583333333333334
            },
            {
              "pitch": 48,
              "velocity": 50,
              "position": 2,
              "duration": 0.16666666666666666
            },
            {
              "pitch": 60,
              "velocity": 55,
              "position": 2,
              "duration": 0.16666666666666666
            },
            {
              "pitch": 64,
              "velocity": 82,
              "position": 2.4895833333333335,
              "duration": 0.03333333333333333
            },
            {
              "pitch": 48,
              "velocity": 77,
              "position": 2.5,
              "duration": 0.03125
            },
            {
              "pitch": 60,
              "velocity": 82,
              "position": 2.5,
              "duration": 0.03125
            },
            {
              "pitch": 67,
              "velocity": 82,
              "position": 2.5,
              "duration": 0.052083333333333336
            },
            {
              "pitch": 71,
              "velocity": 82,
              "position": 2.5,
              "duration": 0.052083333333333336
            },
            {
              "pitch": 64,
              "velocity": 55,
              "position": 2.8333333333333335,
              "duration": 0.1375
            },
            {
              "pitch": 60,
              "velocity": 55,
              "position": 2.84375,
              "duration": 0.13541666666666666
            },
            {
              "pitch": 48,
              "velocity": 50,
              "position": 2.84375,
              "duration": 0.13541666666666666
            },
            {
              "pitch": 67,
              "velocity": 55,
              "position": 2.8229166666666665,
              "duration": 0.15625
            },
            {
              "pitch": 71,
              "velocity": 55,
              "position": 2.8229166666666665,
              "duration": 0.15625
            },
            {
              "pitch": 64,
              "velocity": 82,
              "position": 2.9895833333333335,
              "duration": 0.03333333333333333
            },
            {
              "pitch": 48,
              "velocity": 77,
              "position": 3,
              "duration": 0.03125
            },
            {
              "pitch": 60,
              "velocity": 82,
              "position": 3,
              "duration": 0.03125
            },
            {
              "pitch": 67,
              "velocity": 82,
              "position": 3,
              "duration": 0.052083333333333336
            },
            {
              "pitch": 71,
              "velocity": 82,
              "position": 3,
              "duration": 0.052083333333333336
            },
            {
              "pitch": 64,
              "velocity": 40,
              "position": 3.3333333333333335,
              "duration": 0.1375
            },
            {
              "pitch": 60,
              "velocity": 40,
              "position": 3.34375,
              "duration": 0.13541666666666666
            },
            {
              "pitch": 48,
              "velocity": 35,
              "position": 3.34375,
              "duration": 0.13541666666666666
            },
            {
              "pitch": 67,
              "velocity": 40,
              "position": 3.3229166666666665,
              "duration": 0.15625
            },
            {
              "pitch": 71,
              "velocity": 40,
              "position": 3.3229166666666665,
              "duration": 0.15625
            },
            {
              "pitch": 64,
              "velocity": 116,
              "position": 3.5,
              "duration": 0.48125
            },
            {
              "pitch": 60,
              "velocity": 116,
              "position": 3.4895833333333335,
              "duration": 0.5
            },
            {
              "pitch": 48,
              "velocity": 111,
              "position": 3.4895833333333335,
              "duration": 0.5
            },
            {
              "pitch": 67,
              "velocity": 118,
              "position": 3.5104166666666665,
              "duration": 0.4791666666666667
            },
            {
              "pitch": 71,
              "velocity": 118,
              "position": 3.5104166666666665,
              "duration": 0.4791666666666667
            }
          ]
        },
        "13": {
          "ctab": {
            "srcChannel": 13,
            "name": "E.Piano",
            "accType": "PAD",
            "editable": false,
            "mutedNotes": [],
            "mutedChords": [],
            "autoStart": false,
            "sourceChordNote": 0,
            "sourceChordType": "Maj7",
            "ctb2Low": null,
            "ctb2Main": {
              "ntr": "ROOT_FIXED",
              "ntt": "CHORD",
              "bassOn": false,
              "chordRootUpperLimit": 7,
              "noteLowLimit": 0,
              "noteHighLimit": 127,
              "rtr": "PITCH_SHIFT"
            },
            "ctb2High": null
          },
          "notes": [
            {
              "pitch": 59,
              "velocity": 90,
              "position": 0,
              "duration": 0.16666666666666666
            },
            {
              "pitch": 67,
              "velocity": 90,
              "position": 0,
              "duration": 0.16666666666666666
            },
            {
              "pitch": 64,
              "velocity": 90,
              "position": 0,
              "duration": 0.16666666666666666
            },
            {
              "pitch": 59,
              "velocity": 60,
              "position": 0.5,
              "duration": 0.16666666666666666
            },
            {
              "pitch": 67,
              "velocity": 60,
              "position": 0.5,
              "duration": 0.16666666666666666
            },
            {
              "pitch": 64,
              "velocity": 60,
              "position": 0.5,
              "duration": 0.16666666666666666
            },
            {
              "pitch": 59,
              "velocity": 106,
              "position": 1,
              "duration": 1.9895833333333333
            },
            {
              "pitch": 67,
              "velocity": 106,
              "position": 1,
              "duration": 1.9895833333333333
            },
            {
              "pitch": 64,
              "velocity": 106,
              "position": 1,
              "duration": 1.9895833333333333
            },
            {
              "pitch": 59,
              "velocity": 75,
              "position": 3,
              "duration": 0.16666666666666666
            },
            {
              "pitch": 67,
              "velocity": 75,
              "position": 3,
              "duration": 0.16666666666666666
            },
            {
              "pitch": 64,
              "velocity": 75,
              "position": 3,
              "duration": 0.16666666666666666
            }
          ]
        },
        "14": {
          "ctab": {
            "srcChannel": 14,
            "name": "TenorSax",
            "accType": "PHRASE1",
            "editable": false,
            "mutedNotes": [],
            "mutedChords": [],
            "autoStart": false,
            "sourceChordNote": 0,
            "sourceChordType": "Maj7",
            "ctb2Low": null,
            "ctb2Main": {
              "ntr": "ROOT_TRANSPOSITION",
              "ntt": "MELODY",
              "bassOn": false,
              "chordRootUpperLimit": 7,
              "noteLowLimit": 0,
              "noteHighLimit": 127,
              "rtr": "PITCH_SHIFT"
            },
            "ctb2High": null
          },
          "notes": [
            {
              "pitch": 60,
              "velocity": 55,
              "position": 0.5,
              "duration": 0.825
            },
            {
              "pitch": 60,
              "velocity": 87,
              "position": 1.3333333333333333,
              "duration": 0.16666666666666666
            },
            {
              "pitch": 60,
              "velocity": 57,
              "position": 2.8333333333333335,
              "duration": 0.6583333333333333
            }
          ]
        },
        "15": {
          "ctab": {
            "srcChannel": 15,
            "name": "Brass",
            "accType": "PHRASE2",
            "editable": false,
            "mutedNotes": [],
            "mutedChords": [],
            "autoStart": false,
            "sourceChordNote": 0,
            "sourceChordType": "Maj7",
            "ctb2Low": null,
            "ctb2Main": {
              "ntr": "ROOT_FIXED",
              "ntt": "CHORD",
              "bassOn": false,
              "chordRootUpperLimit": 7,
              "noteLowLimit": 0,
              "noteHighLimit": 127,
              "rtr": "PITCH_SHIFT"
            },
            "ctb2High": null
          },
          "notes": [
            {
              "pitch": 71,
              "velocity": 84,
              "position": 1.3333333333333333,
              "duration": 0.16666666666666666
            },
            {
              "pitch": 79,
              "velocity": 87,
              "position": 1.3333333333333333,
              "duration": 0.16666666666666666
            },
            {
              "pitch": 76,
              "velocity": 85,
              "position": 1.3333333333333333,
              "duration": 0.16666666666666666
            },
            {
              "pitch": 79,
              "velocity": 82,
              "position": 2.8333333333333335,
              "duration": 0.65625
            }
          ]
        }
      }
    },
    "Main_D": {
      "type": "Main_D",
      "sizeInBeats": 16,
      "channels": {
        "2": {
          "ctab": {
            "srcChannel": 2,
            "name": "ClaviBs",
            "accType": "CHORD1",
            "editable": false,
            "mutedNotes": [],
            "mutedChords": [],
            "autoStart": false,
            "sourceChordNote": 0,
            "sourceChordType": "Maj7",
            "ctb2Low": null,
            "ctb2Main": {
              "ntr": "ROOT_TRANSPOSITION",
              "ntt": "MELODY",
              "bassOn": true,
              "chordRootUpperLimit": 8,
              "noteLowLimit": 28,
              "noteHighLimit": 127,
              "rtr": "PITCH_SHIFT_TO_ROOT"
            },
            "ctb2High": null
          },
          "notes": [
            {
              "pitch": 36,
              "velocity": 101,
              "position": 0,
              "duration": 0.4895833333333333
            },
            {
              "pitch": 36,
              "velocity": 101,
              "position": 1,
              "duration": 0.4895833333333333
            },
            {
              "pitch": 36,
              "velocity": 104,
              "position": 1.8333333333333333,
              "duration": 0.09375
            },
            {
              "pitch": 36,
              "velocity": 101,
              "position": 4,
              "duration": 0.3020833333333333
            },
            {
              "pitch": 36,
              "velocity": 101,
              "position": 4.333333333333333,
              "duration": 0.15625
            },
            {
              "pitch": 36,
              "velocity": 104,
              "position": 5.833333333333333,
              "duration": 0.09375
            },
            {
              "pitch": 36,
              "velocity": 90,
              "position": 7.833333333333333,
              "duration": 0.052083333333333336
            },
            {
              "pitch": 36,
              "velocity": 99,
              "position": 8,
              "duration": 0.4895833333333333
            },
            {
              "pitch": 36,
              "velocity": 104,
              "position": 9.833333333333334,
              "duration": 0.07291666666666667
            },
            {
              "pitch": 43,
              "velocity": 104,
              "position": 11.833333333333334,
              "duration": 0.07291666666666667
            },
            {
              "pitch": 36,
              "velocity": 60,
              "position": 12.166666666666666,
              "duration": 0.07291666666666667
            },
            {
              "pitch": 36,
              "velocity": 104,
              "position": 13.833333333333334,
              "duration": 0.09375
            },
            {
              "pitch": 48,
              "velocity": 60,
              "position": 15.666666666666666,
              "duration": 0.07291666666666667
            },
            {
              "pitch": 43,
              "velocity": 90,
              "position": 15.833333333333334,
              "duration": 0.052083333333333336
            }
          ]
        },
        "4": {
          "ctab": {
            "srcChannel": 4,
            "name": "E.P  rt",
            "accType": "PAD",
            "editable": false,
            "mutedNotes": [],
            "mutedChords": [
              "1+2+5",
              "sus4",
              "1+5",
              "1+8",
              "Maj7aug",
              "dim",
              "minMaj7(9)",
              "minMaj7",
              "min6",
              "min",
              "aug",
              "Maj7(9)",
              "Maj7#11",
              "Maj7",
              "Maj6",
              "Maj"
            ],
            "autoStart": false,
            "sourceChordNote": 0,
            "sourceChordType": "Maj7",
            "ctb2Low": null,
            "ctb2Main": {
              "ntr": "ROOT_TRANSPOSITION",
              "ntt": "CHORD",
              "bassOn": false,
              "chordRootUpperLimit": 10,
              "noteLowLimit": 0,
              "noteHighLimit": 127,
              "rtr": "PITCH_SHIFT"
            },
            "ctb2High": null
          },
          "notes": [
            {
              "pitch": 60,
              "velocity": 98,
              "position": 0.5,
              "duration": 0.15625
            },
            {
              "pitch": 60,
              "velocity": 98,
              "position": 1.3333333333333333,
              "duration": 0.15625
            },
            {
              "pitch": 60,
              "velocity": 98,
              "position": 2,
              "duration": 0.15625
            },
            {
              "pitch": 60,
              "velocity": 105,
              "position": 2.8333333333333335,
              "duration": 0.4895833333333333
            },
            {
              "pitch": 60,
              "velocity": 98,
              "position": 3.5,
              "duration": 0.15625
            },
            {
              "pitch": 60,
              "velocity": 98,
              "position": 4.5,
              "duration": 0.15625
            },
            {
              "pitch": 60,
              "velocity": 98,
              "position": 5.333333333333333,
              "duration": 0.15625
            },
            {
              "pitch": 60,
              "velocity": 98,
              "position": 6,
              "duration": 0.15625
            },
            {
              "pitch": 60,
              "velocity": 105,
              "position": 6.833333333333333,
              "duration": 0.4895833333333333
            },
            {
              "pitch": 60,
              "velocity": 98,
              "position": 7.5,
              "duration": 0.15625
            },
            {
              "pitch": 60,
              "velocity": 98,
              "position": 8.5,
              "duration": 0.15625
            },
            {
              "pitch": 60,
              "velocity": 98,
              "position": 9.333333333333334,
              "duration": 0.15625
            },
            {
              "pitch": 60,
              "velocity": 98,
              "position": 10,
              "duration": 0.15625
            },
            {
              "pitch": 60,
              "velocity": 105,
              "position": 10.833333333333334,
              "duration": 0.4895833333333333
            },
            {
              "pitch": 60,
              "velocity": 98,
              "position": 11.5,
              "duration": 0.15625
            },
            {
              "pitch": 60,
              "velocity": 98,
              "position": 12.5,
              "duration": 0.15625
            },
            {
              "pitch": 60,
              "velocity": 98,
              "position": 13.333333333333334,
              "duration": 0.15625
            },
            {
              "pitch": 60,
              "velocity": 98,
              "position": 14,
              "duration": 0.15625
            },
            {
              "pitch": 60,
              "velocity": 105,
              "position": 14.833333333333334,
              "duration": 0.4895833333333333
            },
            {
              "pitch": 60,
              "velocity": 98,
              "position": 15.5,
              "duration": 0.15625
            }
          ]
        },
        "8": {
          "ctab": {
            "srcChannel": 8,
            "name": "AddDrum",
            "accType": "SUBRHYTHM",
            "editable": false,
            "mutedNotes": [],
            "mutedChords": [],
            "autoStart": true,
            "sourceChordNote": 0,
            "sourceChordType": "Maj7",
            "ctb2Low": null,
            "ctb2Main": {
              "ntr": "ROOT_FIXED",
              "ntt": "BYPASS",
              "bassOn": false,
              "chordRootUpperLimit": 6,
              "noteLowLimit": 0,
              "noteHighLimit": 127,
              "rtr": "PITCH_SHIFT"
            },
            "ctb2High": null
          },
          "notes": [
            {
              "pitch": 54,
              "velocity": 70,
              "position": 0,
              "duration": 0.010416666666666666
            },
            {
              "pitch": 69,
              "velocity": 41,
              "position": 0,
              "duration": 0.010416666666666666
            },
            {
              "pitch": 64,
              "velocity": 80,
              "position": 0,
              "duration": 0.010416666666666666
            },
            {
              "pitch": 54,
              "velocity": 18,
              "position": 0.3333333333333333,
              "duration": 0.010416666666666666
            },
            {
              "pitch": 54,
              "velocity": 42,
              "position": 0.5,
              "duration": 0.010416666666666666
            },
            {
              "pitch": 69,
              "velocity": 64,
              "position": 0.5,
              "duration": 0.010416666666666666
            },
            {
              "pitch": 54,
              "velocity": 16,
              "position": 0.8333333333333334,
              "duration": 0.010416666666666666
            },
            {
              "pitch": 69,
              "velocity": 23,
              "position": 0.8333333333333334,
              "duration": 0.010416666666666666
            },
            {
              "pitch": 62,
              "velocity": 14,
              "position": 0.8333333333333334,
              "duration": 0.010416666666666666
            },
            {
              "pitch": 54,
              "velocity": 82,
              "position": 1,
              "duration": 0.010416666666666666
            },
            {
              "pitch": 69,
              "velocity": 41,
              "position": 1,
              "duration": 0.010416666666666666
            },
            {
              "pitch": 62,
              "velocity": 80,
              "position": 1,
              "duration": 0.010416666666666666
            },
            {
              "pitch": 54,
              "velocity": 18,
              "position": 1.3333333333333333,
              "duration": 0.010416666666666666
            },
            {
              "pitch": 54,
              "velocity": 42,
              "position": 1.5,
              "duration": 0.010416666666666666
            },
            {
              "pitch": 69,
              "velocity": 64,
              "position": 1.5,
              "duration": 0.010416666666666666
            },
            {
              "pitch": 63,
              "velocity": 80,
              "position": 1.5,
              "duration": 0.010416666666666666
            },
            {
              "pitch": 54,
              "velocity": 16,
              "position": 1.8333333333333333,
              "duration": 0.010416666666666666
            },
            {
              "pitch": 69,
              "velocity": 40,
              "position": 1.8333333333333333,
              "duration": 0.010416666666666666
            },
            {
              "pitch": 54,
              "velocity": 70,
              "position": 2,
              "duration": 0.010416666666666666
            },
            {
              "pitch": 69,
              "velocity": 73,
              "position": 2,
              "duration": 0.010416666666666666
            },
            {
              "pitch": 54,
              "velocity": 18,
              "position": 2.3333333333333335,
              "duration": 0.010416666666666666
            },
            {
              "pitch": 69,
              "velocity": 16,
              "position": 2.3333333333333335,
              "duration": 0.010416666666666666
            },
            {
              "pitch": 54,
              "velocity": 42,
              "position": 2.5,
              "duration": 0.010416666666666666
            },
            {
              "pitch": 69,
              "velocity": 49,
              "position": 2.5,
              "duration": 0.010416666666666666
            },
            {
              "pitch": 63,
              "velocity": 31,
              "position": 2.5,
              "duration": 0.010416666666666666
            },
            {
              "pitch": 54,
              "velocity": 16,
              "position": 2.8333333333333335,
              "duration": 0.010416666666666666
            },
            {
              "pitch": 69,
              "velocity": 18,
              "position": 2.8333333333333335,
              "duration": 0.010416666666666666
            },
            {
              "pitch": 62,
              "velocity": 44,
              "position": 2.8333333333333335,
              "duration": 0.010416666666666666
            },
            {
              "pitch": 54,
              "velocity": 82,
              "position": 3,
              "duration": 0.010416666666666666
            },
            {
              "pitch": 69,
              "velocity": 77,
              "position": 3,
              "duration": 0.010416666666666666
            },
            {
              "pitch": 62,
              "velocity": 80,
              "position": 3,
              "duration": 0.010416666666666666
            },
            {
              "pitch": 54,
              "velocity": 18,
              "position": 3.3333333333333335,
              "duration": 0.010416666666666666
            },
            {
              "pitch": 54,
              "velocity": 42,
              "position": 3.5,
              "duration": 0.010416666666666666
            },
            {
              "pitch": 69,
              "velocity": 64,
              "position": 3.5,
              "duration": 0.010416666666666666
            },
            {
              "pitch": 64,
              "velocity": 80,
              "position": 3.5,
              "duration": 0.010416666666666666
            },
            {
              "pitch": 54,
              "velocity": 16,
              "position": 3.8333333333333335,
              "duration": 0.010416666666666666
            },
            {
              "pitch": 69,
              "velocity": 33,
              "position": 3.8333333333333335,
              "duration": 0.010416666666666666
            },
            {
              "pitch": 54,
              "velocity": 70,
              "position": 4,
              "duration": 0.010416666666666666
            },
            {
              "pitch": 69,
              "velocity": 41,
              "position": 4,
              "duration": 0.010416666666666666
            },
            {
              "pitch": 54,
              "velocity": 18,
              "position": 4.333333333333333,
              "duration": 0.010416666666666666
            },
            {
              "pitch": 54,
              "velocity": 42,
              "position": 4.5,
              "duration": 0.010416666666666666
            },
            {
              "pitch": 69,
              "velocity": 64,
              "position": 4.5,
              "duration": 0.010416666666666666
            },
            {
              "pitch": 54,
              "velocity": 16,
              "position": 4.833333333333333,
              "duration": 0.010416666666666666
            },
            {
              "pitch": 69,
              "velocity": 23,
              "position": 4.833333333333333,
              "duration": 0.010416666666666666
            },
            {
              "pitch": 62,
              "velocity": 14,
              "position": 4.833333333333333,
              "duration": 0.010416666666666666
            },
            {
              "pitch": 54,
              "velocity": 82,
              "position": 5,
              "duration": 0.010416666666666666
            },
            {
              "pitch": 69,
              "velocity": 41,
              "position": 5,
              "duration": 0.010416666666666666
            },
            {
              "pitch": 62,
              "velocity": 80,
              "position": 5,
              "duration": 0.010416666666666666
            },
            {
              "pitch": 54,
              "velocity": 18,
              "position": 5.333333333333333,
              "duration": 0.010416666666666666
            },
            {
              "pitch": 54,
              "velocity": 42,
              "position": 5.5,
              "duration": 0.010416666666666666
            },
            {
              "pitch": 69,
              "velocity": 64,
              "position": 5.5,
              "duration": 0.010416666666666666
            },
            {
              "pitch": 63,
              "velocity": 80,
              "position": 5.5,
              "duration": 0.010416666666666666
            },
            {
              "pitch": 54,
              "velocity": 16,
              "position": 5.833333333333333,
              "duration": 0.010416666666666666
            },
            {
              "pitch": 69,
              "velocity": 40,
              "position": 5.833333333333333,
              "duration": 0.010416666666666666
            },
            {
              "pitch": 54,
              "velocity": 70,
              "position": 6,
              "duration": 0.010416666666666666
            },
            {
              "pitch": 69,
              "velocity": 73,
              "position": 6,
              "duration": 0.010416666666666666
            },
            {
              "pitch": 54,
              "velocity": 18,
              "position": 6.333333333333333,
              "duration": 0.010416666666666666
            },
            {
              "pitch": 69,
              "velocity": 16,
              "position": 6.333333333333333,
              "duration": 0.010416666666666666
            },
            {
              "pitch": 54,
              "velocity": 42,
              "position": 6.5,
              "duration": 0.010416666666666666
            },
            {
              "pitch": 69,
              "velocity": 49,
              "position": 6.5,
              "duration": 0.010416666666666666
            },
            {
              "pitch": 63,
              "velocity": 31,
              "position": 6.5,
              "duration": 0.010416666666666666
            },
            {
              "pitch": 54,
              "velocity": 16,
              "position": 6.833333333333333,
              "duration": 0.010416666666666666
            },
            {
              "pitch": 69,
              "velocity": 18,
              "position": 6.833333333333333,
              "duration": 0.010416666666666666
            },
            {
              "pitch": 62,
              "velocity": 44,
              "position": 6.833333333333333,
              "duration": 0.010416666666666666
            },
            {
              "pitch": 54,
              "velocity": 82,
              "position": 7,
              "duration": 0.010416666666666666
            },
            {
              "pitch": 69,
              "velocity": 77,
              "position": 7,
              "duration": 0.010416666666666666
            },
            {
              "pitch": 62,
              "velocity": 80,
              "position": 7,
              "duration": 0.010416666666666666
            },
            {
              "pitch": 54,
              "velocity": 18,
              "position": 7.333333333333333,
              "duration": 0.010416666666666666
            },
            {
              "pitch": 54,
              "velocity": 42,
              "position": 7.5,
              "duration": 0.010416666666666666
            },
            {
              "pitch": 69,
              "velocity": 64,
              "position": 7.5,
              "duration": 0.010416666666666666
            },
            {
              "pitch": 64,
              "velocity": 80,
              "position": 7.5,
              "duration": 0.010416666666666666
            },
            {
              "pitch": 54,
              "velocity": 16,
              "position": 7.833333333333333,
              "duration": 0.010416666666666666
            },
            {
              "pitch": 69,
              "velocity": 33,
              "position": 7.833333333333333,
              "duration": 0.010416666666666666
            },
            {
              "pitch": 54,
              "velocity": 70,
              "position": 8,
              "duration": 0.010416666666666666
            },
            {
              "pitch": 69,
              "velocity": 41,
              "position": 8,
              "duration": 0.010416666666666666
            },
            {
              "pitch": 64,
              "velocity": 80,
              "position": 8,
              "duration": 0.010416666666666666
            },
            {
              "pitch": 54,
              "velocity": 18,
              "position": 8.333333333333334,
              "duration": 0.010416666666666666
            },
            {
              "pitch": 54,
              "velocity": 42,
              "position": 8.5,
              "duration": 0.010416666666666666
            },
            {
              "pitch": 69,
              "velocity": 64,
              "position": 8.5,
              "duration": 0.010416666666666666
            },
            {
              "pitch": 54,
              "velocity": 16,
              "position": 8.833333333333334,
              "duration": 0.010416666666666666
            },
            {
              "pitch": 69,
              "velocity": 23,
              "position": 8.833333333333334,
              "duration": 0.010416666666666666
            },
            {
              "pitch": 62,
              "velocity": 14,
              "position": 8.833333333333334,
              "duration": 0.010416666666666666
            },
            {
              "pitch": 54,
              "velocity": 82,
              "position": 9,
              "duration": 0.010416666666666666
            },
            {
              "pitch": 69,
              "velocity": 41,
              "position": 9,
              "duration": 0.010416666666666666
            },
            {
              "pitch": 62,
              "velocity": 80,
              "position": 9,
              "duration": 0.010416666666666666
            },
            {
              "pitch": 54,
              "velocity": 18,
              "position": 9.333333333333334,
              "duration": 0.010416666666666666
            },
            {
              "pitch": 54,
              "velocity": 42,
              "position": 9.5,
              "duration": 0.010416666666666666
            },
            {
              "pitch": 69,
              "velocity": 64,
              "position": 9.5,
              "duration": 0.010416666666666666
            },
            {
              "pitch": 63,
              "velocity": 80,
              "position": 9.5,
              "duration": 0.010416666666666666
            },
            {
              "pitch": 54,
              "velocity": 16,
              "position": 9.833333333333334,
              "duration": 0.010416666666666666
            },
            {
              "pitch": 69,
              "velocity": 40,
              "position": 9.833333333333334,
              "duration": 0.010416666666666666
            },
            {
              "pitch": 54,
              "velocity": 70,
              "position": 10,
              "duration": 0.010416666666666666
            },
            {
              "pitch": 69,
              "velocity": 73,
              "position": 10,
              "duration": 0.010416666666666666
            },
            {
              "pitch": 54,
              "velocity": 18,
              "position": 10.333333333333334,
              "duration": 0.010416666666666666
            },
            {
              "pitch": 69,
              "velocity": 16,
              "position": 10.333333333333334,
              "duration": 0.010416666666666666
            },
            {
              "pitch": 54,
              "velocity": 42,
              "position": 10.5,
              "duration": 0.010416666666666666
            },
            {
              "pitch": 69,
              "velocity": 49,
              "position": 10.5,
              "duration": 0.010416666666666666
            },
            {
              "pitch": 63,
              "velocity": 31,
              "position": 10.5,
              "duration": 0.010416666666666666
            },
            {
              "pitch": 54,
              "velocity": 16,
              "position": 10.833333333333334,
              "duration": 0.010416666666666666
            },
            {
              "pitch": 69,
              "velocity": 18,
              "position": 10.833333333333334,
              "duration": 0.010416666666666666
            },
            {
              "pitch": 62,
              "velocity": 44,
              "position": 10.833333333333334,
              "duration": 0.010416666666666666
            },
            {
              "pitch": 54,
              "velocity": 82,
              "position": 11,
              "duration": 0.010416666666666666
            },
            {
              "pitch": 69,
              "velocity": 77,
              "position": 11,
              "duration": 0.010416666666666666
            },
            {
              "pitch": 62,
              "velocity": 80,
              "position": 11,
              "duration": 0.010416666666666666
            },
            {
              "pitch": 54,
              "velocity": 18,
              "position": 11.333333333333334,
              "duration": 0.010416666666666666
            },
            {
              "pitch": 54,
              "velocity": 42,
              "position": 11.5,
              "duration": 0.010416666666666666
            },
            {
              "pitch": 69,
              "velocity": 64,
              "position": 11.5,
              "duration": 0.010416666666666666
            },
            {
              "pitch": 64,
              "velocity": 80,
              "position": 11.5,
              "duration": 0.010416666666666666
            },
            {
              "pitch": 54,
              "velocity": 16,
              "position": 11.833333333333334,
              "duration": 0.010416666666666666
            },
            {
              "pitch": 69,
              "velocity": 33,
              "position": 11.833333333333334,
              "duration": 0.010416666666666666
            },
            {
              "pitch": 54,
              "velocity": 70,
              "position": 12,
              "duration": 0.010416666666666666
            },
            {
              "pitch": 69,
              "velocity": 41,
              "position": 12,
              "duration": 0.010416666666666666
            },
            {
              "pitch": 54,
              "velocity": 18,
              "position": 12.333333333333334,
              "duration": 0.010416666666666666
            },
            {
              "pitch": 54,
              "velocity": 42,
              "position": 12.5,
              "duration": 0.010416666666666666
            },
            {
              "pitch": 69,
              "velocity": 64,
              "position": 12.5,
              "duration": 0.010416666666666666
            },
            {
              "pitch": 54,
              "velocity": 16,
              "position": 12.833333333333334,
              "duration": 0.010416666666666666
            },
            {
              "pitch": 69,
              "velocity": 23,
              "position": 12.833333333333334,
              "duration": 0.010416666666666666
            },
            {
              "pitch": 62,
              "velocity": 14,
              "position": 12.833333333333334,
              "duration": 0.010416666666666666
            },
            {
              "pitch": 54,
              "velocity": 82,
              "position": 13,
              "duration": 0.010416666666666666
            },
            {
              "pitch": 69,
              "velocity": 41,
              "position": 13,
              "duration": 0.010416666666666666
            },
            {
              "pitch": 62,
              "velocity": 80,
              "position": 13,
              "duration": 0.010416666666666666
            },
            {
              "pitch": 54,
              "velocity": 18,
              "position": 13.333333333333334,
              "duration": 0.010416666666666666
            },
            {
              "pitch": 54,
              "velocity": 42,
              "position": 13.5,
              "duration": 0.010416666666666666
            },
            {
              "pitch": 69,
              "velocity": 64,
              "position": 13.5,
              "duration": 0.010416666666666666
            },
            {
              "pitch": 63,
              "velocity": 80,
              "position": 13.5,
              "duration": 0.010416666666666666
            },
            {
              "pitch": 54,
              "velocity": 16,
              "position": 13.833333333333334,
              "duration": 0.010416666666666666
            },
            {
              "pitch": 69,
              "velocity": 40,
              "position": 13.833333333333334,
              "duration": 0.010416666666666666
            },
            {
              "pitch": 54,
              "velocity": 70,
              "position": 14,
              "duration": 0.010416666666666666
            },
            {
              "pitch": 69,
              "velocity": 73,
              "position": 14,
              "duration": 0.010416666666666666
            },
            {
              "pitch": 54,
              "velocity": 18,
              "position": 14.333333333333334,
              "duration": 0.010416666666666666
            },
            {
              "pitch": 69,
              "velocity": 16,
              "position": 14.333333333333334,
              "duration": 0.010416666666666666
            },
            {
              "pitch": 54,
              "velocity": 42,
              "position": 14.5,
              "duration": 0.010416666666666666
            },
            {
              "pitch": 69,
              "velocity": 49,
              "position": 14.5,
              "duration": 0.010416666666666666
            },
            {
              "pitch": 63,
              "velocity": 31,
              "position": 14.5,
              "duration": 0.010416666666666666
            },
            {
              "pitch": 54,
              "velocity": 16,
              "position": 14.833333333333334,
              "duration": 0.010416666666666666
            },
            {
              "pitch": 69,
              "velocity": 18,
              "position": 14.833333333333334,
              "duration": 0.010416666666666666
            },
            {
              "pitch": 62,
              "velocity": 44,
              "position": 14.833333333333334,
              "duration": 0.010416666666666666
            },
            {
              "pitch": 54,
              "velocity": 82,
              "position": 15,
              "duration": 0.010416666666666666
            },
            {
              "pitch": 69,
              "velocity": 77,
              "position": 15,
              "duration": 0.010416666666666666
            },
            {
              "pitch": 62,
              "velocity": 80,
              "position": 15,
              "duration": 0.010416666666666666
            },
            {
              "pitch": 54,
              "velocity": 18,
              "position": 15.333333333333334,
              "duration": 0.010416666666666666
            },
            {
              "pitch": 54,
              "velocity": 42,
              "position": 15.5,
              "duration": 0.010416666666666666
            },
            {
              "pitch": 69,
              "velocity": 64,
              "position": 15.5,
              "duration": 0.010416666666666666
            },
            {
              "pitch": 64,
              "velocity": 80,
              "position": 15.5,
              "duration": 0.010416666666666666
            },
            {
              "pitch": 54,
              "velocity": 16,
              "position": 15.833333333333334,
              "duration": 0.010416666666666666
            },
            {
              "pitch": 69,
              "velocity": 33,
              "position": 15.833333333333334,
              "duration": 0.010416666666666666
            }
          ]
        },
        "9": {
          "ctab": {
            "srcChannel": 9,
            "name": "MainDrum",
            "accType": "RHYTHM",
            "editable": false,
            "mutedNotes": [],
            "mutedChords": [],
            "autoStart": true,
            "sourceChordNote": 0,
            "sourceChordType": "Maj7",
            "ctb2Low": null,
            "ctb2Main": {
              "ntr": "ROOT_FIXED",
              "ntt": "BYPASS",
              "bassOn": false,
              "chordRootUpperLimit": 6,
              "noteLowLimit": 0,
              "noteHighLimit": 127,
              "rtr": "PITCH_SHIFT"
            },
            "ctb2High": null
          },
          "notes": [
            {
              "pitch": 35,
              "velocity": 90,
              "position": 0,
              "duration": 0.010416666666666666
            },
            {
              "pitch": 51,
              "velocity": 70,
              "position": 0,
              "duration": 0.010416666666666666
            },
            {
              "pitch": 42,
              "velocity": 116,
              "position": 0,
              "duration": 0.010416666666666666
            },
            {
              "pitch": 42,
              "velocity": 88,
              "position": 0.5,
              "duration": 0.010416666666666666
            },
            {
              "pitch": 53,
              "velocity": 87,
              "position": 0.5,
              "duration": 0.010416666666666666
            },
            {
              "pitch": 35,
              "velocity": 98,
              "position": 1,
              "duration": 0.010416666666666666
            },
            {
              "pitch": 51,
              "velocity": 70,
              "position": 1,
              "duration": 0.010416666666666666
            },
            {
              "pitch": 42,
              "velocity": 116,
              "position": 1,
              "duration": 0.010416666666666666
            },
            {
              "pitch": 40,
              "velocity": 114,
              "position": 1,
              "duration": 0.010416666666666666
            },
            {
              "pitch": 35,
              "velocity": 78,
              "position": 1.5,
              "duration": 0.010416666666666666
            },
            {
              "pitch": 53,
              "velocity": 87,
              "position": 1.5,
              "duration": 0.010416666666666666
            },
            {
              "pitch": 42,
              "velocity": 94,
              "position": 1.5,
              "duration": 0.010416666666666666
            },
            {
              "pitch": 40,
              "velocity": 47,
              "position": 1.8333333333333333,
              "duration": 0.010416666666666666
            },
            {
              "pitch": 42,
              "velocity": 54,
              "position": 1.8333333333333333,
              "duration": 0.010416666666666666
            },
            {
              "pitch": 35,
              "velocity": 95,
              "position": 2,
              "duration": 0.010416666666666666
            },
            {
              "pitch": 51,
              "velocity": 70,
              "position": 2,
              "duration": 0.010416666666666666
            },
            {
              "pitch": 42,
              "velocity": 116,
              "position": 2,
              "duration": 0.010416666666666666
            },
            {
              "pitch": 42,
              "velocity": 85,
              "position": 2.5,
              "duration": 0.010416666666666666
            },
            {
              "pitch": 53,
              "velocity": 87,
              "position": 2.5,
              "duration": 0.010416666666666666
            },
            {
              "pitch": 35,
              "velocity": 98,
              "position": 3,
              "duration": 0.010416666666666666
            },
            {
              "pitch": 51,
              "velocity": 70,
              "position": 3,
              "duration": 0.010416666666666666
            },
            {
              "pitch": 42,
              "velocity": 116,
              "position": 3,
              "duration": 0.010416666666666666
            },
            {
              "pitch": 40,
              "velocity": 114,
              "position": 3,
              "duration": 0.010416666666666666
            },
            {
              "pitch": 42,
              "velocity": 38,
              "position": 3.3333333333333335,
              "duration": 0.010416666666666666
            },
            {
              "pitch": 46,
              "velocity": 84,
              "position": 3.5,
              "duration": 0.010416666666666666
            },
            {
              "pitch": 53,
              "velocity": 87,
              "position": 3.5,
              "duration": 0.010416666666666666
            },
            {
              "pitch": 35,
              "velocity": 26,
              "position": 3.8333333333333335,
              "duration": 0.010416666666666666
            },
            {
              "pitch": 35,
              "velocity": 90,
              "position": 4,
              "duration": 0.010416666666666666
            },
            {
              "pitch": 51,
              "velocity": 70,
              "position": 4,
              "duration": 0.010416666666666666
            },
            {
              "pitch": 42,
              "velocity": 116,
              "position": 4,
              "duration": 0.010416666666666666
            },
            {
              "pitch": 42,
              "velocity": 88,
              "position": 4.5,
              "duration": 0.010416666666666666
            },
            {
              "pitch": 53,
              "velocity": 87,
              "position": 4.5,
              "duration": 0.010416666666666666
            },
            {
              "pitch": 35,
              "velocity": 98,
              "position": 5,
              "duration": 0.010416666666666666
            },
            {
              "pitch": 51,
              "velocity": 70,
              "position": 5,
              "duration": 0.010416666666666666
            },
            {
              "pitch": 42,
              "velocity": 116,
              "position": 5,
              "duration": 0.010416666666666666
            },
            {
              "pitch": 40,
              "velocity": 114,
              "position": 5,
              "duration": 0.010416666666666666
            },
            {
              "pitch": 42,
              "velocity": 94,
              "position": 5.5,
              "duration": 0.010416666666666666
            },
            {
              "pitch": 53,
              "velocity": 87,
              "position": 5.5,
              "duration": 0.010416666666666666
            },
            {
              "pitch": 35,
              "velocity": 40,
              "position": 5.833333333333333,
              "duration": 0.010416666666666666
            },
            {
              "pitch": 42,
              "velocity": 54,
              "position": 5.833333333333333,
              "duration": 0.010416666666666666
            },
            {
              "pitch": 35,
              "velocity": 95,
              "position": 6,
              "duration": 0.010416666666666666
            },
            {
              "pitch": 51,
              "velocity": 70,
              "position": 6,
              "duration": 0.010416666666666666
            },
            {
              "pitch": 42,
              "velocity": 116,
              "position": 6,
              "duration": 0.010416666666666666
            },
            {
              "pitch": 42,
              "velocity": 48,
              "position": 6.333333333333333,
              "duration": 0.010416666666666666
            },
            {
              "pitch": 35,
              "velocity": 95,
              "position": 6.5,
              "duration": 0.010416666666666666
            },
            {
              "pitch": 53,
              "velocity": 87,
              "position": 6.5,
              "duration": 0.010416666666666666
            },
            {
              "pitch": 42,
              "velocity": 116,
              "position": 6.5,
              "duration": 0.010416666666666666
            },
            {
              "pitch": 35,
              "velocity": 98,
              "position": 7,
              "duration": 0.010416666666666666
            },
            {
              "pitch": 51,
              "velocity": 70,
              "position": 7,
              "duration": 0.010416666666666666
            },
            {
              "pitch": 42,
              "velocity": 116,
              "position": 7,
              "duration": 0.010416666666666666
            },
            {
              "pitch": 40,
              "velocity": 114,
              "position": 7,
              "duration": 0.010416666666666666
            },
            {
              "pitch": 35,
              "velocity": 41,
              "position": 7.333333333333333,
              "duration": 0.010416666666666666
            },
            {
              "pitch": 42,
              "velocity": 31,
              "position": 7.333333333333333,
              "duration": 0.010416666666666666
            },
            {
              "pitch": 35,
              "velocity": 90,
              "position": 7.5,
              "duration": 0.010416666666666666
            },
            {
              "pitch": 53,
              "velocity": 87,
              "position": 7.5,
              "duration": 0.010416666666666666
            },
            {
              "pitch": 46,
              "velocity": 84,
              "position": 7.5,
              "duration": 0.010416666666666666
            },
            {
              "pitch": 40,
              "velocity": 62,
              "position": 7.833333333333333,
              "duration": 0.010416666666666666
            },
            {
              "pitch": 35,
              "velocity": 90,
              "position": 8,
              "duration": 0.010416666666666666
            },
            {
              "pitch": 51,
              "velocity": 70,
              "position": 8,
              "duration": 0.010416666666666666
            },
            {
              "pitch": 42,
              "velocity": 116,
              "position": 8,
              "duration": 0.010416666666666666
            },
            {
              "pitch": 42,
              "velocity": 88,
              "position": 8.5,
              "duration": 0.010416666666666666
            },
            {
              "pitch": 53,
              "velocity": 87,
              "position": 8.5,
              "duration": 0.010416666666666666
            },
            {
              "pitch": 35,
              "velocity": 98,
              "position": 9,
              "duration": 0.010416666666666666
            },
            {
              "pitch": 51,
              "velocity": 70,
              "position": 9,
              "duration": 0.010416666666666666
            },
            {
              "pitch": 42,
              "velocity": 116,
              "position": 9,
              "duration": 0.010416666666666666
            },
            {
              "pitch": 40,
              "velocity": 114,
              "position": 9,
              "duration": 0.010416666666666666
            },
            {
              "pitch": 42,
              "velocity": 94,
              "position": 9.5,
              "duration": 0.010416666666666666
            },
            {
              "pitch": 53,
              "velocity": 87,
              "position": 9.5,
              "duration": 0.010416666666666666
            },
            {
              "pitch": 35,
              "velocity": 39,
              "position": 9.833333333333334,
              "duration": 0.010416666666666666
            },
            {
              "pitch": 42,
              "velocity": 54,
              "position": 9.833333333333334,
              "duration": 0.010416666666666666
            },
            {
              "pitch": 35,
              "velocity": 90,
              "position": 10,
              "duration": 0.010416666666666666
            },
            {
              "pitch": 51,
              "velocity": 70,
              "position": 10,
              "duration": 0.010416666666666666
            },
            {
              "pitch": 42,
              "velocity": 116,
              "position": 10,
              "duration": 0.010416666666666666
            },
            {
              "pitch": 42,
              "velocity": 85,
              "position": 10.5,
              "duration": 0.010416666666666666
            },
            {
              "pitch": 53,
              "velocity": 87,
              "position": 10.5,
              "duration": 0.010416666666666666
            },
            {
              "pitch": 35,
              "velocity": 98,
              "position": 11,
              "duration": 0.010416666666666666
            },
            {
              "pitch": 51,
              "velocity": 70,
              "position": 11,
              "duration": 0.010416666666666666
            },
            {
              "pitch": 42,
              "velocity": 116,
              "position": 11,
              "duration": 0.010416666666666666
            },
            {
              "pitch": 40,
              "velocity": 114,
              "position": 11,
              "duration": 0.010416666666666666
            },
            {
              "pitch": 42,
              "velocity": 37,
              "position": 11.333333333333334,
              "duration": 0.010416666666666666
            },
            {
              "pitch": 46,
              "velocity": 84,
              "position": 11.5,
              "duration": 0.010416666666666666
            },
            {
              "pitch": 53,
              "velocity": 87,
              "position": 11.5,
              "duration": 0.010416666666666666
            },
            {
              "pitch": 35,
              "velocity": 42,
              "position": 11.833333333333334,
              "duration": 0.010416666666666666
            },
            {
              "pitch": 35,
              "velocity": 90,
              "position": 12,
              "duration": 0.010416666666666666
            },
            {
              "pitch": 51,
              "velocity": 70,
              "position": 12,
              "duration": 0.010416666666666666
            },
            {
              "pitch": 42,
              "velocity": 116,
              "position": 12,
              "duration": 0.010416666666666666
            },
            {
              "pitch": 42,
              "velocity": 88,
              "position": 12.5,
              "duration": 0.010416666666666666
            },
            {
              "pitch": 53,
              "velocity": 87,
              "position": 12.5,
              "duration": 0.010416666666666666
            },
            {
              "pitch": 35,
              "velocity": 98,
              "position": 13,
              "duration": 0.010416666666666666
            },
            {
              "pitch": 51,
              "velocity": 70,
              "position": 13,
              "duration": 0.010416666666666666
            },
            {
              "pitch": 42,
              "velocity": 116,
              "position": 13,
              "duration": 0.010416666666666666
            },
            {
              "pitch": 40,
              "velocity": 114,
              "position": 13,
              "duration": 0.010416666666666666
            },
            {
              "pitch": 35,
              "velocity": 37,
              "position": 13.333333333333334,
              "duration": 0.010416666666666666
            },
            {
              "pitch": 35,
              "velocity": 90,
              "position": 13.5,
              "duration": 0.010416666666666666
            },
            {
              "pitch": 53,
              "velocity": 87,
              "position": 13.5,
              "duration": 0.010416666666666666
            },
            {
              "pitch": 42,
              "velocity": 94,
              "position": 13.5,
              "duration": 0.010416666666666666
            },
            {
              "pitch": 40,
              "velocity": 51,
              "position": 13.833333333333334,
              "duration": 0.010416666666666666
            },
            {
              "pitch": 42,
              "velocity": 54,
              "position": 13.833333333333334,
              "duration": 0.010416666666666666
            },
            {
              "pitch": 35,
              "velocity": 95,
              "position": 14,
              "duration": 0.010416666666666666
            },
            {
              "pitch": 51,
              "velocity": 70,
              "position": 14,
              "duration": 0.010416666666666666
            },
            {
              "pitch": 42,
              "velocity": 116,
              "position": 14,
              "duration": 0.010416666666666666
            },
            {
              "pitch": 35,
              "velocity": 98,
              "position": 14.5,
              "duration": 0.010416666666666666
            },
            {
              "pitch": 53,
              "velocity": 87,
              "position": 14.5,
              "duration": 0.010416666666666666
            },
            {
              "pitch": 42,
              "velocity": 85,
              "position": 14.5,
              "duration": 0.010416666666666666
            },
            {
              "pitch": 35,
              "velocity": 98,
              "position": 15,
              "duration": 0.010416666666666666
            },
            {
              "pitch": 51,
              "velocity": 70,
              "position": 15,
              "duration": 0.010416666666666666
            },
            {
              "pitch": 42,
              "velocity": 116,
              "position": 15,
              "duration": 0.010416666666666666
            },
            {
              "pitch": 40,
              "velocity": 114,
              "position": 15,
              "duration": 0.010416666666666666
            },
            {
              "pitch": 42,
              "velocity": 27,
              "position": 15.333333333333334,
              "duration": 0.010416666666666666
            },
            {
              "pitch": 35,
              "velocity": 95,
              "position": 15.5,
              "duration": 0.010416666666666666
            },
            {
              "pitch": 53,
              "velocity": 87,
              "position": 15.5,
              "duration": 0.010416666666666666
            },
            {
              "pitch": 46,
              "velocity": 84,
              "position": 15.5,
              "duration": 0.010416666666666666
            },
            {
              "pitch": 40,
              "velocity": 52,
              "position": 15.833333333333334,
              "duration": 0.010416666666666666
            },
            {
              "pitch": 42,
              "velocity": 51,
              "position": 15.833333333333334,
              "duration": 0.010416666666666666
            }
          ]
        },
        "10": {
          "ctab": {
            "srcChannel": 10,
            "name": "Bass",
            "accType": "BASS",
            "editable": false,
            "mutedNotes": [],
            "mutedChords": [],
            "autoStart": false,
            "sourceChordNote": 0,
            "sourceChordType": "Maj7",
            "ctb2Low": null,
            "ctb2Main": {
              "ntr": "ROOT_TRANSPOSITION",
              "ntt": "MELODY",
              "bassOn": true,
              "chordRootUpperLimit": 8,
              "noteLowLimit": 28,
              "noteHighLimit": 127,
              "rtr": "PITCH_SHIFT_TO_ROOT"
            },
            "ctb2High": null
          },
          "notes": [
            {
              "pitch": 24,
              "velocity": 112,
              "position": 0.3333333333333333,
              "duration": 0.15625
            },
            {
              "pitch": 24,
              "velocity": 70,
              "position": 0.5,
              "duration": 0.3229166666666667
            },
            {
              "pitch": 33,
              "velocity": 70,
              "position": 1,
              "duration": 0.3229166666666667
            },
            {
              "pitch": 36,
              "velocity": 70,
              "position": 1.3333333333333333,
              "duration": 0.15625
            },
            {
              "pitch": 28,
              "velocity": 70,
              "position": 2,
              "duration": 0.3229166666666667
            },
            {
              "pitch": 28,
              "velocity": 57,
              "position": 2.3333333333333335,
              "duration": 0.15625
            },
            {
              "pitch": 31,
              "velocity": 70,
              "position": 2.5,
              "duration": 0.3229166666666667
            },
            {
              "pitch": 36,
              "velocity": 70,
              "position": 2.8333333333333335,
              "duration": 0.4895833333333333
            },
            {
              "pitch": 33,
              "velocity": 59,
              "position": 3.3333333333333335,
              "duration": 0.15625
            },
            {
              "pitch": 36,
              "velocity": 70,
              "position": 3.5,
              "duration": 0.3229166666666667
            },
            {
              "pitch": 36,
              "velocity": 70,
              "position": 3.8333333333333335,
              "duration": 0.15625
            },
            {
              "pitch": 24,
              "velocity": 112,
              "position": 4.333333333333333,
              "duration": 0.15625
            },
            {
              "pitch": 24,
              "velocity": 70,
              "position": 4.5,
              "duration": 0.3229166666666667
            },
            {
              "pitch": 21,
              "velocity": 70,
              "position": 5,
              "duration": 0.3229166666666667
            },
            {
              "pitch": 24,
              "velocity": 70,
              "position": 5.333333333333333,
              "duration": 0.15625
            },
            {
              "pitch": 33,
              "velocity": 70,
              "position": 5.833333333333333,
              "duration": 0.15625
            },
            {
              "pitch": 36,
              "velocity": 70,
              "position": 6,
              "duration": 0.4895833333333333
            },
            {
              "pitch": 36,
              "velocity": 99,
              "position": 6.5,
              "duration": 0.15625
            },
            {
              "pitch": 36,
              "velocity": 66,
              "position": 7,
              "duration": 1.4791666666666667
            },
            {
              "pitch": 24,
              "velocity": 70,
              "position": 8.5,
              "duration": 0.3229166666666667
            },
            {
              "pitch": 33,
              "velocity": 70,
              "position": 9,
              "duration": 0.3229166666666667
            },
            {
              "pitch": 36,
              "velocity": 70,
              "position": 9.333333333333334,
              "duration": 0.15625
            },
            {
              "pitch": 28,
              "velocity": 70,
              "position": 10,
              "duration": 0.3229166666666667
            },
            {
              "pitch": 24,
              "velocity": 57,
              "position": 10.333333333333334,
              "duration": 0.15625
            },
            {
              "pitch": 31,
              "velocity": 70,
              "position": 10.5,
              "duration": 0.3229166666666667
            },
            {
              "pitch": 36,
              "velocity": 70,
              "position": 10.833333333333334,
              "duration": 0.4895833333333333
            },
            {
              "pitch": 33,
              "velocity": 59,
              "position": 11.333333333333334,
              "duration": 0.15625
            },
            {
              "pitch": 36,
              "velocity": 70,
              "position": 11.5,
              "duration": 0.3229166666666667
            },
            {
              "pitch": 36,
              "velocity": 70,
              "position": 11.833333333333334,
              "duration": 0.15625
            },
            {
              "pitch": 24,
              "velocity": 115,
              "position": 12.333333333333334,
              "duration": 0.15625
            },
            {
              "pitch": 24,
              "velocity": 70,
              "position": 12.5,
              "duration": 0.3229166666666667
            },
            {
              "pitch": 21,
              "velocity": 70,
              "position": 13,
              "duration": 0.3229166666666667
            },
            {
              "pitch": 24,
              "velocity": 70,
              "position": 13.333333333333334,
              "duration": 0.15625
            },
            {
              "pitch": 33,
              "velocity": 70,
              "position": 13.833333333333334,
              "duration": 0.15625
            },
            {
              "pitch": 36,
              "velocity": 70,
              "position": 14,
              "duration": 0.3229166666666667
            },
            {
              "pitch": 36,
              "velocity": 85,
              "position": 14.333333333333334,
              "duration": 0.15625
            },
            {
              "pitch": 40,
              "velocity": 70,
              "position": 14.5,
              "duration": 0.4895833333333333
            },
            {
              "pitch": 31,
              "velocity": 70,
              "position": 15,
              "duration": 0.3229166666666667
            },
            {
              "pitch": 43,
              "velocity": 111,
              "position": 15.333333333333334,
              "duration": 0.15625
            },
            {
              "pitch": 33,
              "velocity": 70,
              "position": 15.5,
              "duration": 0.3229166666666667
            },
            {
              "pitch": 36,
              "velocity": 70,
              "position": 15.833333333333334,
              "duration": 0.15625
            }
          ]
        },
        "11": {
          "ctab": {
            "srcChannel": 11,
            "name": "Clavi",
            "accType": "CHORD1",
            "editable": false,
            "mutedNotes": [],
            "mutedChords": [],
            "autoStart": false,
            "sourceChordNote": 0,
            "sourceChordType": "Maj7",
            "ctb2Low": null,
            "ctb2Main": {
              "ntr": "ROOT_TRANSPOSITION",
              "ntt": "CHORD",
              "bassOn": false,
              "chordRootUpperLimit": 7,
              "noteLowLimit": 0,
              "noteHighLimit": 127,
              "rtr": "PITCH_SHIFT"
            },
            "ctb2High": null
          },
          "notes": [
            {
              "pitch": 55,
              "velocity": 55,
              "position": 0,
              "duration": 0.3125
            },
            {
              "pitch": 64,
              "velocity": 55,
              "position": 0,
              "duration": 0.3125
            },
            {
              "pitch": 59,
              "velocity": 55,
              "position": 0,
              "duration": 0.3125
            },
            {
              "pitch": 55,
              "velocity": 85,
              "position": 0.5,
              "duration": 0.14583333333333334
            },
            {
              "pitch": 64,
              "velocity": 85,
              "position": 0.5,
              "duration": 0.14583333333333334
            },
            {
              "pitch": 59,
              "velocity": 85,
              "position": 0.5,
              "duration": 0.14583333333333334
            },
            {
              "pitch": 48,
              "velocity": 110,
              "position": 0.5,
              "duration": 0.3125
            },
            {
              "pitch": 48,
              "velocity": 110,
              "position": 1.3333333333333333,
              "duration": 0.3125
            },
            {
              "pitch": 64,
              "velocity": 55,
              "position": 1.3333333333333333,
              "duration": 0.3125
            },
            {
              "pitch": 59,
              "velocity": 55,
              "position": 1.3333333333333333,
              "duration": 0.3125
            },
            {
              "pitch": 55,
              "velocity": 55,
              "position": 1.3333333333333333,
              "duration": 0.3125
            },
            {
              "pitch": 48,
              "velocity": 127,
              "position": 2,
              "duration": 0.14583333333333334
            },
            {
              "pitch": 64,
              "velocity": 85,
              "position": 2,
              "duration": 0.14583333333333334
            },
            {
              "pitch": 59,
              "velocity": 85,
              "position": 2,
              "duration": 0.14583333333333334
            },
            {
              "pitch": 55,
              "velocity": 85,
              "position": 2,
              "duration": 0.14583333333333334
            },
            {
              "pitch": 47,
              "velocity": 110,
              "position": 2.8125,
              "duration": 0.1875
            },
            {
              "pitch": 64,
              "velocity": 55,
              "position": 2.8333333333333335,
              "duration": 0.3125
            },
            {
              "pitch": 59,
              "velocity": 55,
              "position": 2.8333333333333335,
              "duration": 0.3125
            },
            {
              "pitch": 55,
              "velocity": 55,
              "position": 2.8333333333333335,
              "duration": 0.3125
            },
            {
              "pitch": 55,
              "velocity": 85,
              "position": 3.5,
              "duration": 0.14583333333333334
            },
            {
              "pitch": 64,
              "velocity": 85,
              "position": 3.5,
              "duration": 0.14583333333333334
            },
            {
              "pitch": 59,
              "velocity": 85,
              "position": 3.5,
              "duration": 0.14583333333333334
            },
            {
              "pitch": 48,
              "velocity": 110,
              "position": 3.5,
              "duration": 0.3125
            },
            {
              "pitch": 55,
              "velocity": 55,
              "position": 4,
              "duration": 0.3125
            },
            {
              "pitch": 64,
              "velocity": 55,
              "position": 4,
              "duration": 0.3125
            },
            {
              "pitch": 59,
              "velocity": 55,
              "position": 4,
              "duration": 0.3125
            },
            {
              "pitch": 47,
              "velocity": 67,
              "position": 4.333333333333333,
              "duration": 0.0625
            },
            {
              "pitch": 55,
              "velocity": 85,
              "position": 4.5,
              "duration": 0.14583333333333334
            },
            {
              "pitch": 64,
              "velocity": 85,
              "position": 4.5,
              "duration": 0.14583333333333334
            },
            {
              "pitch": 59,
              "velocity": 85,
              "position": 4.5,
              "duration": 0.14583333333333334
            },
            {
              "pitch": 48,
              "velocity": 110,
              "position": 4.5,
              "duration": 0.3125
            },
            {
              "pitch": 47,
              "velocity": 110,
              "position": 5,
              "duration": 0.3125
            },
            {
              "pitch": 48,
              "velocity": 110,
              "position": 5.333333333333333,
              "duration": 0.3125
            },
            {
              "pitch": 64,
              "velocity": 55,
              "position": 5.333333333333333,
              "duration": 0.3125
            },
            {
              "pitch": 59,
              "velocity": 55,
              "position": 5.333333333333333,
              "duration": 0.3125
            },
            {
              "pitch": 55,
              "velocity": 55,
              "position": 5.333333333333333,
              "duration": 0.3125
            },
            {
              "pitch": 48,
              "velocity": 127,
              "position": 6,
              "duration": 0.14583333333333334
            },
            {
              "pitch": 64,
              "velocity": 85,
              "position": 6,
              "duration": 0.14583333333333334
            },
            {
              "pitch": 59,
              "velocity": 85,
              "position": 6,
              "duration": 0.14583333333333334
            },
            {
              "pitch": 55,
              "velocity": 85,
              "position": 6,
              "duration": 0.14583333333333334
            },
            {
              "pitch": 47,
              "velocity": 110,
              "position": 6.8125,
              "duration": 0.1875
            },
            {
              "pitch": 64,
              "velocity": 55,
              "position": 6.833333333333333,
              "duration": 0.3125
            },
            {
              "pitch": 59,
              "velocity": 55,
              "position": 6.833333333333333,
              "duration": 0.3125
            },
            {
              "pitch": 55,
              "velocity": 55,
              "position": 6.833333333333333,
              "duration": 0.3125
            },
            {
              "pitch": 47,
              "velocity": 73,
              "position": 7.3125,
              "duration": 0.0625
            },
            {
              "pitch": 55,
              "velocity": 85,
              "position": 7.5,
              "duration": 0.14583333333333334
            },
            {
              "pitch": 64,
              "velocity": 85,
              "position": 7.5,
              "duration": 0.14583333333333334
            },
            {
              "pitch": 59,
              "velocity": 85,
              "position": 7.5,
              "duration": 0.14583333333333334
            },
            {
              "pitch": 48,
              "velocity": 110,
              "position": 7.5,
              "duration": 0.3125
            },
            {
              "pitch": 55,
              "velocity": 55,
              "position": 8,
              "duration": 0.3125
            },
            {
              "pitch": 64,
              "velocity": 55,
              "position": 8,
              "duration": 0.3125
            },
            {
              "pitch": 59,
              "velocity": 55,
              "position": 8,
              "duration": 0.3125
            },
            {
              "pitch": 55,
              "velocity": 85,
              "position": 8.5,
              "duration": 0.14583333333333334
            },
            {
              "pitch": 64,
              "velocity": 85,
              "position": 8.5,
              "duration": 0.14583333333333334
            },
            {
              "pitch": 59,
              "velocity": 85,
              "position": 8.5,
              "duration": 0.14583333333333334
            },
            {
              "pitch": 48,
              "velocity": 110,
              "position": 8.5,
              "duration": 0.3125
            },
            {
              "pitch": 47,
              "velocity": 110,
              "position": 9,
              "duration": 0.3125
            },
            {
              "pitch": 48,
              "velocity": 110,
              "position": 9.333333333333334,
              "duration": 0.3125
            },
            {
              "pitch": 64,
              "velocity": 55,
              "position": 9.333333333333334,
              "duration": 0.3125
            },
            {
              "pitch": 59,
              "velocity": 55,
              "position": 9.333333333333334,
              "duration": 0.3125
            },
            {
              "pitch": 55,
              "velocity": 55,
              "position": 9.333333333333334,
              "duration": 0.3125
            },
            {
              "pitch": 48,
              "velocity": 127,
              "position": 10,
              "duration": 0.14583333333333334
            },
            {
              "pitch": 64,
              "velocity": 85,
              "position": 10,
              "duration": 0.14583333333333334
            },
            {
              "pitch": 59,
              "velocity": 85,
              "position": 10,
              "duration": 0.14583333333333334
            },
            {
              "pitch": 55,
              "velocity": 85,
              "position": 10,
              "duration": 0.14583333333333334
            },
            {
              "pitch": 47,
              "velocity": 110,
              "position": 10.8125,
              "duration": 0.1875
            },
            {
              "pitch": 64,
              "velocity": 55,
              "position": 10.833333333333334,
              "duration": 0.3125
            },
            {
              "pitch": 59,
              "velocity": 55,
              "position": 10.833333333333334,
              "duration": 0.3125
            },
            {
              "pitch": 55,
              "velocity": 55,
              "position": 10.833333333333334,
              "duration": 0.3125
            },
            {
              "pitch": 55,
              "velocity": 85,
              "position": 11.5,
              "duration": 0.14583333333333334
            },
            {
              "pitch": 64,
              "velocity": 85,
              "position": 11.5,
              "duration": 0.14583333333333334
            },
            {
              "pitch": 59,
              "velocity": 85,
              "position": 11.5,
              "duration": 0.14583333333333334
            },
            {
              "pitch": 48,
              "velocity": 110,
              "position": 11.5,
              "duration": 0.3125
            },
            {
              "pitch": 55,
              "velocity": 55,
              "position": 12,
              "duration": 0.3125
            },
            {
              "pitch": 64,
              "velocity": 55,
              "position": 12,
              "duration": 0.3125
            },
            {
              "pitch": 59,
              "velocity": 55,
              "position": 12,
              "duration": 0.3125
            },
            {
              "pitch": 47,
              "velocity": 67,
              "position": 12.333333333333334,
              "duration": 0.0625
            },
            {
              "pitch": 55,
              "velocity": 85,
              "position": 12.5,
              "duration": 0.14583333333333334
            },
            {
              "pitch": 64,
              "velocity": 85,
              "position": 12.5,
              "duration": 0.14583333333333334
            },
            {
              "pitch": 59,
              "velocity": 85,
              "position": 12.5,
              "duration": 0.14583333333333334
            },
            {
              "pitch": 48,
              "velocity": 110,
              "position": 12.5,
              "duration": 0.3125
            },
            {
              "pitch": 47,
              "velocity": 110,
              "position": 13,
              "duration": 0.3125
            },
            {
              "pitch": 48,
              "velocity": 110,
              "position": 13.333333333333334,
              "duration": 0.3125
            },
            {
              "pitch": 64,
              "velocity": 55,
              "position": 13.333333333333334,
              "duration": 0.3125
            },
            {
              "pitch": 59,
              "velocity": 55,
              "position": 13.333333333333334,
              "duration": 0.3125
            },
            {
              "pitch": 55,
              "velocity": 55,
              "position": 13.333333333333334,
              "duration": 0.3125
            },
            {
              "pitch": 48,
              "velocity": 127,
              "position": 14,
              "duration": 0.14583333333333334
            },
            {
              "pitch": 64,
              "velocity": 85,
              "position": 14,
              "duration": 0.14583333333333334
            },
            {
              "pitch": 59,
              "velocity": 85,
              "position": 14,
              "duration": 0.14583333333333334
            },
            {
              "pitch": 55,
              "velocity": 85,
              "position": 14,
              "duration": 0.14583333333333334
            },
            {
              "pitch": 47,
              "velocity": 110,
              "position": 14.8125,
              "duration": 0.1875
            },
            {
              "pitch": 64,
              "velocity": 55,
              "position": 14.833333333333334,
              "duration": 0.3125
            },
            {
              "pitch": 59,
              "velocity": 55,
              "position": 14.833333333333334,
              "duration": 0.3125
            },
            {
              "pitch": 55,
              "velocity": 55,
              "position": 14.833333333333334,
              "duration": 0.3125
            },
            {
              "pitch": 47,
              "velocity": 73,
              "position": 15.3125,
              "duration": 0.0625
            },
            {
              "pitch": 55,
              "velocity": 85,
              "position": 15.5,
              "duration": 0.14583333333333334
            },
            {
              "pitch": 64,
              "velocity": 85,
              "position": 15.5,
              "duration": 0.14583333333333334
            },
            {
              "pitch": 59,
              "velocity": 85,
              "position": 15.5,
              "duration": 0.14583333333333334
            },
            {
              "pitch": 48,
              "velocity": 110,
              "position": 15.5,
              "duration": 0.3125
            }
          ]
        },
        "12": {
          "ctab": {
            "srcChannel": 12,
            "name": "SolidGtr",
            "accType": "CHORD2",
            "editable": false,
            "mutedNotes": [],
            "mutedChords": [],
            "autoStart": false,
            "sourceChordNote": 0,
            "sourceChordType": "Maj7",
            "ctb2Low": null,
            "ctb2Main": {
              "ntr": "ROOT_TRANSPOSITION",
              "ntt": "MELODY",
              "bassOn": true,
              "chordRootUpperLimit": 7,
              "noteLowLimit": 0,
              "noteHighLimit": 127,
              "rtr": "PITCH_SHIFT"
            },
            "ctb2High": null
          },
          "notes": [
            {
              "pitch": 48,
              "velocity": 55,
              "position": 0,
              "duration": 0.3020833333333333
            },
            {
              "pitch": 64,
              "velocity": 55,
              "position": 0,
              "duration": 0.30416666666666664
            },
            {
              "pitch": 67,
              "velocity": 55,
              "position": 0.010416666666666666,
              "duration": 0.3020833333333333
            },
            {
              "pitch": 71,
              "velocity": 55,
              "position": 0.010416666666666666,
              "duration": 0.3020833333333333
            },
            {
              "pitch": 60,
              "velocity": 55,
              "position": 0.010416666666666666,
              "duration": 0.3020833333333333
            },
            {
              "pitch": 48,
              "velocity": 55,
              "position": 0.3333333333333333,
              "duration": 0.13541666666666666
            },
            {
              "pitch": 64,
              "velocity": 55,
              "position": 0.3541666666666667,
              "duration": 0.1375
            },
            {
              "pitch": 67,
              "velocity": 55,
              "position": 0.34375,
              "duration": 0.15625
            },
            {
              "pitch": 71,
              "velocity": 55,
              "position": 0.34375,
              "duration": 0.15625
            },
            {
              "pitch": 60,
              "velocity": 55,
              "position": 0.3645833333333333,
              "duration": 0.13541666666666666
            },
            {
              "pitch": 48,
              "velocity": 82,
              "position": 0.5,
              "duration": 0.14583333333333334
            },
            {
              "pitch": 67,
              "velocity": 82,
              "position": 0.53125,
              "duration": 0.125
            },
            {
              "pitch": 71,
              "velocity": 82,
              "position": 0.53125,
              "duration": 0.125
            },
            {
              "pitch": 64,
              "velocity": 82,
              "position": 0.5208333333333334,
              "duration": 0.13541666666666666
            },
            {
              "pitch": 60,
              "velocity": 82,
              "position": 0.5104166666666666,
              "duration": 0.14583333333333334
            },
            {
              "pitch": 48,
              "velocity": 55,
              "position": 0.8333333333333334,
              "duration": 0.13541666666666666
            },
            {
              "pitch": 64,
              "velocity": 55,
              "position": 0.8541666666666666,
              "duration": 0.1375
            },
            {
              "pitch": 67,
              "velocity": 55,
              "position": 0.84375,
              "duration": 0.15625
            },
            {
              "pitch": 71,
              "velocity": 55,
              "position": 0.84375,
              "duration": 0.15625
            },
            {
              "pitch": 60,
              "velocity": 55,
              "position": 0.8645833333333334,
              "duration": 0.13541666666666666
            },
            {
              "pitch": 48,
              "velocity": 72,
              "position": 1,
              "duration": 0.03125
            },
            {
              "pitch": 64,
              "velocity": 72,
              "position": 1.0208333333333333,
              "duration": 0.03333333333333333
            },
            {
              "pitch": 60,
              "velocity": 72,
              "position": 1.03125,
              "duration": 0.03125
            },
            {
              "pitch": 67,
              "velocity": 72,
              "position": 1.03125,
              "duration": 0.052083333333333336
            },
            {
              "pitch": 71,
              "velocity": 72,
              "position": 1.03125,
              "duration": 0.052083333333333336
            },
            {
              "pitch": 48,
              "velocity": 55,
              "position": 1.3333333333333333,
              "duration": 0.12708333333333333
            },
            {
              "pitch": 64,
              "velocity": 55,
              "position": 1.3541666666666667,
              "duration": 0.13541666666666666
            },
            {
              "pitch": 67,
              "velocity": 55,
              "position": 1.34375,
              "duration": 0.14791666666666667
            },
            {
              "pitch": 71,
              "velocity": 55,
              "position": 1.34375,
              "duration": 0.14791666666666667
            },
            {
              "pitch": 60,
              "velocity": 55,
              "position": 1.3645833333333333,
              "duration": 0.12708333333333333
            },
            {
              "pitch": 48,
              "velocity": 82,
              "position": 1.5,
              "duration": 0.03125
            },
            {
              "pitch": 64,
              "velocity": 82,
              "position": 1.5104166666666667,
              "duration": 0.03333333333333333
            },
            {
              "pitch": 60,
              "velocity": 82,
              "position": 1.5208333333333333,
              "duration": 0.03125
            },
            {
              "pitch": 67,
              "velocity": 82,
              "position": 1.5208333333333333,
              "duration": 0.052083333333333336
            },
            {
              "pitch": 71,
              "velocity": 82,
              "position": 1.5208333333333333,
              "duration": 0.052083333333333336
            },
            {
              "pitch": 48,
              "velocity": 40,
              "position": 1.8333333333333333,
              "duration": 0.13541666666666666
            },
            {
              "pitch": 64,
              "velocity": 40,
              "position": 1.8541666666666667,
              "duration": 0.1375
            },
            {
              "pitch": 67,
              "velocity": 40,
              "position": 1.84375,
              "duration": 0.15625
            },
            {
              "pitch": 71,
              "velocity": 40,
              "position": 1.84375,
              "duration": 0.15625
            },
            {
              "pitch": 60,
              "velocity": 40,
              "position": 1.8645833333333333,
              "duration": 0.13541666666666666
            },
            {
              "pitch": 48,
              "velocity": 55,
              "position": 2,
              "duration": 0.16666666666666666
            },
            {
              "pitch": 64,
              "velocity": 55,
              "position": 2.0208333333333335,
              "duration": 0.14791666666666667
            },
            {
              "pitch": 60,
              "velocity": 55,
              "position": 2.0104166666666665,
              "duration": 0.16666666666666666
            },
            {
              "pitch": 67,
              "velocity": 55,
              "position": 2.03125,
              "duration": 0.14583333333333334
            },
            {
              "pitch": 71,
              "velocity": 55,
              "position": 2.03125,
              "duration": 0.14583333333333334
            },
            {
              "pitch": 48,
              "velocity": 82,
              "position": 2.5,
              "duration": 0.03125
            },
            {
              "pitch": 64,
              "velocity": 82,
              "position": 2.5104166666666665,
              "duration": 0.03333333333333333
            },
            {
              "pitch": 60,
              "velocity": 82,
              "position": 2.5208333333333335,
              "duration": 0.03125
            },
            {
              "pitch": 67,
              "velocity": 82,
              "position": 2.5208333333333335,
              "duration": 0.052083333333333336
            },
            {
              "pitch": 71,
              "velocity": 82,
              "position": 2.5208333333333335,
              "duration": 0.052083333333333336
            },
            {
              "pitch": 48,
              "velocity": 55,
              "position": 2.8333333333333335,
              "duration": 0.13541666666666666
            },
            {
              "pitch": 64,
              "velocity": 55,
              "position": 2.8541666666666665,
              "duration": 0.1375
            },
            {
              "pitch": 67,
              "velocity": 55,
              "position": 2.84375,
              "duration": 0.15625
            },
            {
              "pitch": 71,
              "velocity": 55,
              "position": 2.84375,
              "duration": 0.15625
            },
            {
              "pitch": 60,
              "velocity": 55,
              "position": 2.8645833333333335,
              "duration": 0.13541666666666666
            },
            {
              "pitch": 48,
              "velocity": 82,
              "position": 3,
              "duration": 0.03125
            },
            {
              "pitch": 64,
              "velocity": 82,
              "position": 3.0104166666666665,
              "duration": 0.03333333333333333
            },
            {
              "pitch": 60,
              "velocity": 82,
              "position": 3.0208333333333335,
              "duration": 0.03125
            },
            {
              "pitch": 67,
              "velocity": 82,
              "position": 3.0208333333333335,
              "duration": 0.052083333333333336
            },
            {
              "pitch": 71,
              "velocity": 82,
              "position": 3.0208333333333335,
              "duration": 0.052083333333333336
            },
            {
              "pitch": 48,
              "velocity": 68,
              "position": 3.3333333333333335,
              "duration": 0.13541666666666666
            },
            {
              "pitch": 64,
              "velocity": 68,
              "position": 3.3541666666666665,
              "duration": 0.1375
            },
            {
              "pitch": 67,
              "velocity": 68,
              "position": 3.34375,
              "duration": 0.15625
            },
            {
              "pitch": 71,
              "velocity": 68,
              "position": 3.34375,
              "duration": 0.15625
            },
            {
              "pitch": 60,
              "velocity": 68,
              "position": 3.3645833333333335,
              "duration": 0.13541666666666666
            },
            {
              "pitch": 48,
              "velocity": 116,
              "position": 3.5,
              "duration": 0.8229166666666666
            },
            {
              "pitch": 64,
              "velocity": 116,
              "position": 3.5208333333333335,
              "duration": 0.8041666666666667
            },
            {
              "pitch": 60,
              "velocity": 116,
              "position": 3.5104166666666665,
              "duration": 0.8229166666666666
            },
            {
              "pitch": 67,
              "velocity": 118,
              "position": 3.53125,
              "duration": 0.8020833333333334
            },
            {
              "pitch": 71,
              "velocity": 118,
              "position": 3.53125,
              "duration": 0.8020833333333334
            },
            {
              "pitch": 48,
              "velocity": 68,
              "position": 4.333333333333333,
              "duration": 0.13541666666666666
            },
            {
              "pitch": 64,
              "velocity": 68,
              "position": 4.354166666666667,
              "duration": 0.1375
            },
            {
              "pitch": 67,
              "velocity": 68,
              "position": 4.34375,
              "duration": 0.15625
            },
            {
              "pitch": 71,
              "velocity": 68,
              "position": 4.34375,
              "duration": 0.15625
            },
            {
              "pitch": 60,
              "velocity": 68,
              "position": 4.364583333333333,
              "duration": 0.13541666666666666
            },
            {
              "pitch": 48,
              "velocity": 40,
              "position": 4.5,
              "duration": 0.3125
            },
            {
              "pitch": 64,
              "velocity": 40,
              "position": 4.520833333333333,
              "duration": 0.3020833333333333
            },
            {
              "pitch": 60,
              "velocity": 40,
              "position": 4.510416666666667,
              "duration": 0.3125
            },
            {
              "pitch": 67,
              "velocity": 40,
              "position": 4.53125,
              "duration": 0.2916666666666667
            },
            {
              "pitch": 71,
              "velocity": 40,
              "position": 4.53125,
              "duration": 0.2916666666666667
            },
            {
              "pitch": 48,
              "velocity": 55,
              "position": 4.833333333333333,
              "duration": 0.14583333333333334
            },
            {
              "pitch": 64,
              "velocity": 55,
              "position": 4.854166666666667,
              "duration": 0.14791666666666667
            },
            {
              "pitch": 60,
              "velocity": 55,
              "position": 4.864583333333333,
              "duration": 0.14583333333333334
            },
            {
              "pitch": 67,
              "velocity": 55,
              "position": 4.84375,
              "duration": 0.16666666666666666
            },
            {
              "pitch": 71,
              "velocity": 55,
              "position": 4.84375,
              "duration": 0.16666666666666666
            },
            {
              "pitch": 48,
              "velocity": 82,
              "position": 5,
              "duration": 0.03125
            },
            {
              "pitch": 64,
              "velocity": 82,
              "position": 5.010416666666667,
              "duration": 0.03333333333333333
            },
            {
              "pitch": 60,
              "velocity": 82,
              "position": 5.020833333333333,
              "duration": 0.03125
            },
            {
              "pitch": 67,
              "velocity": 82,
              "position": 5.020833333333333,
              "duration": 0.052083333333333336
            },
            {
              "pitch": 71,
              "velocity": 82,
              "position": 5.020833333333333,
              "duration": 0.052083333333333336
            },
            {
              "pitch": 48,
              "velocity": 55,
              "position": 5.333333333333333,
              "duration": 0.14583333333333334
            },
            {
              "pitch": 64,
              "velocity": 55,
              "position": 5.354166666666667,
              "duration": 0.14791666666666667
            },
            {
              "pitch": 60,
              "velocity": 55,
              "position": 5.364583333333333,
              "duration": 0.14583333333333334
            },
            {
              "pitch": 67,
              "velocity": 55,
              "position": 5.34375,
              "duration": 0.16666666666666666
            },
            {
              "pitch": 71,
              "velocity": 55,
              "position": 5.34375,
              "duration": 0.16666666666666666
            },
            {
              "pitch": 48,
              "velocity": 40,
              "position": 5.833333333333333,
              "duration": 0.13541666666666666
            },
            {
              "pitch": 64,
              "velocity": 40,
              "position": 5.854166666666667,
              "duration": 0.1375
            },
            {
              "pitch": 67,
              "velocity": 40,
              "position": 5.84375,
              "duration": 0.15625
            },
            {
              "pitch": 71,
              "velocity": 40,
              "position": 5.84375,
              "duration": 0.15625
            },
            {
              "pitch": 60,
              "velocity": 40,
              "position": 5.864583333333333,
              "duration": 0.13541666666666666
            },
            {
              "pitch": 48,
              "velocity": 55,
              "position": 6,
              "duration": 0.16666666666666666
            },
            {
              "pitch": 64,
              "velocity": 55,
              "position": 6.020833333333333,
              "duration": 0.14791666666666667
            },
            {
              "pitch": 60,
              "velocity": 55,
              "position": 6.010416666666667,
              "duration": 0.16666666666666666
            },
            {
              "pitch": 67,
              "velocity": 55,
              "position": 6.03125,
              "duration": 0.14583333333333334
            },
            {
              "pitch": 71,
              "velocity": 55,
              "position": 6.03125,
              "duration": 0.14583333333333334
            },
            {
              "pitch": 48,
              "velocity": 82,
              "position": 6.5,
              "duration": 0.03125
            },
            {
              "pitch": 64,
              "velocity": 82,
              "position": 6.510416666666667,
              "duration": 0.03333333333333333
            },
            {
              "pitch": 60,
              "velocity": 82,
              "position": 6.520833333333333,
              "duration": 0.03125
            },
            {
              "pitch": 67,
              "velocity": 82,
              "position": 6.520833333333333,
              "duration": 0.052083333333333336
            },
            {
              "pitch": 71,
              "velocity": 82,
              "position": 6.520833333333333,
              "duration": 0.052083333333333336
            },
            {
              "pitch": 48,
              "velocity": 82,
              "position": 6.833333333333333,
              "duration": 0.14583333333333334
            },
            {
              "pitch": 67,
              "velocity": 82,
              "position": 6.84375,
              "duration": 0.14583333333333334
            },
            {
              "pitch": 71,
              "velocity": 82,
              "position": 6.84375,
              "duration": 0.14583333333333334
            },
            {
              "pitch": 64,
              "velocity": 82,
              "position": 6.854166666666667,
              "duration": 0.14791666666666667
            },
            {
              "pitch": 60,
              "velocity": 82,
              "position": 6.864583333333333,
              "duration": 0.14583333333333334
            },
            {
              "pitch": 64,
              "velocity": 55,
              "position": 7.010416666666667,
              "duration": 0.2916666666666667
            },
            {
              "pitch": 60,
              "velocity": 55,
              "position": 7.020833333333333,
              "duration": 0.28125
            },
            {
              "pitch": 67,
              "velocity": 55,
              "position": 7.020833333333333,
              "duration": 0.3020833333333333
            },
            {
              "pitch": 71,
              "velocity": 55,
              "position": 7.020833333333333,
              "duration": 0.3020833333333333
            },
            {
              "pitch": 64,
              "velocity": 68,
              "position": 7.354166666666667,
              "duration": 0.1375
            },
            {
              "pitch": 60,
              "velocity": 68,
              "position": 7.364583333333333,
              "duration": 0.13541666666666666
            },
            {
              "pitch": 67,
              "velocity": 68,
              "position": 7.34375,
              "duration": 0.15625
            },
            {
              "pitch": 71,
              "velocity": 68,
              "position": 7.34375,
              "duration": 0.15625
            },
            {
              "pitch": 67,
              "velocity": 55,
              "position": 7.53125,
              "duration": 0.2916666666666667
            },
            {
              "pitch": 71,
              "velocity": 55,
              "position": 7.53125,
              "duration": 0.2916666666666667
            },
            {
              "pitch": 64,
              "velocity": 55,
              "position": 7.520833333333333,
              "duration": 0.3145833333333333
            },
            {
              "pitch": 60,
              "velocity": 55,
              "position": 7.510416666666667,
              "duration": 0.3333333333333333
            },
            {
              "pitch": 64,
              "velocity": 82,
              "position": 7.854166666666667,
              "duration": 0.14583333333333334
            },
            {
              "pitch": 60,
              "velocity": 82,
              "position": 7.864583333333333,
              "duration": 0.14583333333333334
            },
            {
              "pitch": 67,
              "velocity": 82,
              "position": 7.84375,
              "duration": 0.16666666666666666
            },
            {
              "pitch": 71,
              "velocity": 82,
              "position": 7.84375,
              "duration": 0.16666666666666666
            },
            {
              "pitch": 48,
              "velocity": 55,
              "position": 8,
              "duration": 0.3125
            },
            {
              "pitch": 67,
              "velocity": 55,
              "position": 8.020833333333334,
              "duration": 0.3020833333333333
            },
            {
              "pitch": 71,
              "velocity": 55,
              "position": 8.020833333333334,
              "duration": 0.3020833333333333
            },
            {
              "pitch": 64,
              "velocity": 55,
              "position": 8.010416666666666,
              "duration": 0.3229166666666667
            },
            {
              "pitch": 60,
              "velocity": 55,
              "position": 8.020833333333334,
              "duration": 0.3125
            },
            {
              "pitch": 48,
              "velocity": 68,
              "position": 8.333333333333334,
              "duration": 0.13541666666666666
            },
            {
              "pitch": 64,
              "velocity": 68,
              "position": 8.34375,
              "duration": 0.1375
            },
            {
              "pitch": 67,
              "velocity": 68,
              "position": 8.333333333333334,
              "duration": 0.15625
            },
            {
              "pitch": 71,
              "velocity": 68,
              "position": 8.333333333333334,
              "duration": 0.15625
            },
            {
              "pitch": 60,
              "velocity": 68,
              "position": 8.354166666666666,
              "duration": 0.13541666666666666
            },
            {
              "pitch": 67,
              "velocity": 40,
              "position": 8.520833333333334,
              "duration": 0.2916666666666667
            },
            {
              "pitch": 71,
              "velocity": 40,
              "position": 8.520833333333334,
              "duration": 0.2916666666666667
            },
            {
              "pitch": 64,
              "velocity": 40,
              "position": 8.510416666666666,
              "duration": 0.3020833333333333
            },
            {
              "pitch": 48,
              "velocity": 40,
              "position": 8.5,
              "duration": 0.3125
            },
            {
              "pitch": 60,
              "velocity": 40,
              "position": 8.5,
              "duration": 0.3125
            },
            {
              "pitch": 48,
              "velocity": 55,
              "position": 8.833333333333334,
              "duration": 0.13541666666666666
            },
            {
              "pitch": 64,
              "velocity": 55,
              "position": 8.84375,
              "duration": 0.1375
            },
            {
              "pitch": 67,
              "velocity": 55,
              "position": 8.833333333333334,
              "duration": 0.15625
            },
            {
              "pitch": 71,
              "velocity": 55,
              "position": 8.833333333333334,
              "duration": 0.15625
            },
            {
              "pitch": 60,
              "velocity": 55,
              "position": 8.854166666666666,
              "duration": 0.13541666666666666
            },
            {
              "pitch": 48,
              "velocity": 72,
              "position": 9,
              "duration": 0.03125
            },
            {
              "pitch": 64,
              "velocity": 72,
              "position": 9.010416666666666,
              "duration": 0.03333333333333333
            },
            {
              "pitch": 60,
              "velocity": 72,
              "position": 9.020833333333334,
              "duration": 0.03125
            },
            {
              "pitch": 67,
              "velocity": 72,
              "position": 9.020833333333334,
              "duration": 0.052083333333333336
            },
            {
              "pitch": 71,
              "velocity": 72,
              "position": 9.020833333333334,
              "duration": 0.052083333333333336
            },
            {
              "pitch": 48,
              "velocity": 55,
              "position": 9.333333333333334,
              "duration": 0.12708333333333333
            },
            {
              "pitch": 64,
              "velocity": 55,
              "position": 9.34375,
              "duration": 0.13541666666666666
            },
            {
              "pitch": 67,
              "velocity": 55,
              "position": 9.333333333333334,
              "duration": 0.14791666666666667
            },
            {
              "pitch": 71,
              "velocity": 55,
              "position": 9.333333333333334,
              "duration": 0.14791666666666667
            },
            {
              "pitch": 60,
              "velocity": 55,
              "position": 9.354166666666666,
              "duration": 0.12708333333333333
            },
            {
              "pitch": 48,
              "velocity": 82,
              "position": 9.5,
              "duration": 0.03125
            },
            {
              "pitch": 64,
              "velocity": 82,
              "position": 9.5,
              "duration": 0.03333333333333333
            },
            {
              "pitch": 60,
              "velocity": 82,
              "position": 9.510416666666666,
              "duration": 0.03125
            },
            {
              "pitch": 67,
              "velocity": 82,
              "position": 9.510416666666666,
              "duration": 0.052083333333333336
            },
            {
              "pitch": 71,
              "velocity": 82,
              "position": 9.510416666666666,
              "duration": 0.052083333333333336
            },
            {
              "pitch": 48,
              "velocity": 40,
              "position": 9.833333333333334,
              "duration": 0.13541666666666666
            },
            {
              "pitch": 64,
              "velocity": 40,
              "position": 9.84375,
              "duration": 0.1375
            },
            {
              "pitch": 67,
              "velocity": 40,
              "position": 9.833333333333334,
              "duration": 0.15625
            },
            {
              "pitch": 71,
              "velocity": 40,
              "position": 9.833333333333334,
              "duration": 0.15625
            },
            {
              "pitch": 60,
              "velocity": 40,
              "position": 9.854166666666666,
              "duration": 0.13541666666666666
            },
            {
              "pitch": 64,
              "velocity": 55,
              "position": 10.010416666666666,
              "duration": 0.14791666666666667
            },
            {
              "pitch": 60,
              "velocity": 55,
              "position": 10,
              "duration": 0.16666666666666666
            },
            {
              "pitch": 48,
              "velocity": 55,
              "position": 10,
              "duration": 0.16666666666666666
            },
            {
              "pitch": 67,
              "velocity": 55,
              "position": 10.020833333333334,
              "duration": 0.14583333333333334
            },
            {
              "pitch": 71,
              "velocity": 55,
              "position": 10.020833333333334,
              "duration": 0.14583333333333334
            },
            {
              "pitch": 48,
              "velocity": 82,
              "position": 10.5,
              "duration": 0.03125
            },
            {
              "pitch": 64,
              "velocity": 82,
              "position": 10.5,
              "duration": 0.03333333333333333
            },
            {
              "pitch": 60,
              "velocity": 82,
              "position": 10.510416666666666,
              "duration": 0.03125
            },
            {
              "pitch": 67,
              "velocity": 82,
              "position": 10.510416666666666,
              "duration": 0.052083333333333336
            },
            {
              "pitch": 71,
              "velocity": 82,
              "position": 10.510416666666666,
              "duration": 0.052083333333333336
            },
            {
              "pitch": 48,
              "velocity": 55,
              "position": 10.833333333333334,
              "duration": 0.13541666666666666
            },
            {
              "pitch": 64,
              "velocity": 55,
              "position": 10.84375,
              "duration": 0.1375
            },
            {
              "pitch": 67,
              "velocity": 55,
              "position": 10.833333333333334,
              "duration": 0.15625
            },
            {
              "pitch": 71,
              "velocity": 55,
              "position": 10.833333333333334,
              "duration": 0.15625
            },
            {
              "pitch": 60,
              "velocity": 55,
              "position": 10.854166666666666,
              "duration": 0.13541666666666666
            },
            {
              "pitch": 48,
              "velocity": 82,
              "position": 11,
              "duration": 0.03125
            },
            {
              "pitch": 64,
              "velocity": 82,
              "position": 11,
              "duration": 0.03333333333333333
            },
            {
              "pitch": 60,
              "velocity": 82,
              "position": 11.010416666666666,
              "duration": 0.03125
            },
            {
              "pitch": 67,
              "velocity": 82,
              "position": 11.010416666666666,
              "duration": 0.052083333333333336
            },
            {
              "pitch": 71,
              "velocity": 82,
              "position": 11.010416666666666,
              "duration": 0.052083333333333336
            },
            {
              "pitch": 48,
              "velocity": 40,
              "position": 11.333333333333334,
              "duration": 0.13541666666666666
            },
            {
              "pitch": 64,
              "velocity": 40,
              "position": 11.34375,
              "duration": 0.1375
            },
            {
              "pitch": 67,
              "velocity": 40,
              "position": 11.333333333333334,
              "duration": 0.15625
            },
            {
              "pitch": 71,
              "velocity": 40,
              "position": 11.333333333333334,
              "duration": 0.15625
            },
            {
              "pitch": 60,
              "velocity": 40,
              "position": 11.354166666666666,
              "duration": 0.13541666666666666
            },
            {
              "pitch": 64,
              "velocity": 116,
              "position": 11.510416666666666,
              "duration": 0.8041666666666667
            },
            {
              "pitch": 60,
              "velocity": 116,
              "position": 11.5,
              "duration": 0.8229166666666666
            },
            {
              "pitch": 48,
              "velocity": 116,
              "position": 11.5,
              "duration": 0.8229166666666666
            },
            {
              "pitch": 67,
              "velocity": 118,
              "position": 11.520833333333334,
              "duration": 0.8020833333333334
            },
            {
              "pitch": 71,
              "velocity": 118,
              "position": 11.520833333333334,
              "duration": 0.8020833333333334
            },
            {
              "pitch": 48,
              "velocity": 68,
              "position": 12.333333333333334,
              "duration": 0.13541666666666666
            },
            {
              "pitch": 64,
              "velocity": 68,
              "position": 12.34375,
              "duration": 0.1375
            },
            {
              "pitch": 67,
              "velocity": 68,
              "position": 12.333333333333334,
              "duration": 0.15625
            },
            {
              "pitch": 71,
              "velocity": 68,
              "position": 12.333333333333334,
              "duration": 0.15625
            },
            {
              "pitch": 60,
              "velocity": 68,
              "position": 12.354166666666666,
              "duration": 0.13541666666666666
            },
            {
              "pitch": 67,
              "velocity": 40,
              "position": 12.520833333333334,
              "duration": 0.2916666666666667
            },
            {
              "pitch": 71,
              "velocity": 40,
              "position": 12.520833333333334,
              "duration": 0.2916666666666667
            },
            {
              "pitch": 64,
              "velocity": 40,
              "position": 12.510416666666666,
              "duration": 0.3020833333333333
            },
            {
              "pitch": 48,
              "velocity": 40,
              "position": 12.5,
              "duration": 0.3125
            },
            {
              "pitch": 60,
              "velocity": 40,
              "position": 12.5,
              "duration": 0.3125
            },
            {
              "pitch": 48,
              "velocity": 55,
              "position": 12.833333333333334,
              "duration": 0.14583333333333334
            },
            {
              "pitch": 64,
              "velocity": 55,
              "position": 12.84375,
              "duration": 0.14791666666666667
            },
            {
              "pitch": 60,
              "velocity": 55,
              "position": 12.854166666666666,
              "duration": 0.14583333333333334
            },
            {
              "pitch": 67,
              "velocity": 55,
              "position": 12.833333333333334,
              "duration": 0.16666666666666666
            },
            {
              "pitch": 71,
              "velocity": 55,
              "position": 12.833333333333334,
              "duration": 0.16666666666666666
            },
            {
              "pitch": 48,
              "velocity": 82,
              "position": 13,
              "duration": 0.03125
            },
            {
              "pitch": 64,
              "velocity": 82,
              "position": 13,
              "duration": 0.03333333333333333
            },
            {
              "pitch": 60,
              "velocity": 82,
              "position": 13.010416666666666,
              "duration": 0.03125
            },
            {
              "pitch": 67,
              "velocity": 82,
              "position": 13.010416666666666,
              "duration": 0.052083333333333336
            },
            {
              "pitch": 71,
              "velocity": 82,
              "position": 13.010416666666666,
              "duration": 0.052083333333333336
            },
            {
              "pitch": 48,
              "velocity": 55,
              "position": 13.333333333333334,
              "duration": 0.14583333333333334
            },
            {
              "pitch": 64,
              "velocity": 55,
              "position": 13.34375,
              "duration": 0.14791666666666667
            },
            {
              "pitch": 60,
              "velocity": 55,
              "position": 13.354166666666666,
              "duration": 0.14583333333333334
            },
            {
              "pitch": 67,
              "velocity": 55,
              "position": 13.333333333333334,
              "duration": 0.16666666666666666
            },
            {
              "pitch": 71,
              "velocity": 55,
              "position": 13.333333333333334,
              "duration": 0.16666666666666666
            },
            {
              "pitch": 48,
              "velocity": 40,
              "position": 13.833333333333334,
              "duration": 0.13541666666666666
            },
            {
              "pitch": 64,
              "velocity": 40,
              "position": 13.833333333333334,
              "duration": 0.1375
            },
            {
              "pitch": 67,
              "velocity": 40,
              "position": 13.822916666666666,
              "duration": 0.15625
            },
            {
              "pitch": 71,
              "velocity": 40,
              "position": 13.822916666666666,
              "duration": 0.15625
            },
            {
              "pitch": 60,
              "velocity": 40,
              "position": 13.84375,
              "duration": 0.13541666666666666
            },
            {
              "pitch": 64,
              "velocity": 55,
              "position": 14,
              "duration": 0.14791666666666667
            },
            {
              "pitch": 67,
              "velocity": 55,
              "position": 14.010416666666666,
              "duration": 0.14583333333333334
            },
            {
              "pitch": 71,
              "velocity": 55,
              "position": 14.010416666666666,
              "duration": 0.14583333333333334
            },
            {
              "pitch": 60,
              "velocity": 55,
              "position": 13.989583333333334,
              "duration": 0.16666666666666666
            },
            {
              "pitch": 48,
              "velocity": 55,
              "position": 14,
              "duration": 0.16666666666666666
            },
            {
              "pitch": 64,
              "velocity": 82,
              "position": 14.489583333333334,
              "duration": 0.03333333333333333
            },
            {
              "pitch": 48,
              "velocity": 82,
              "position": 14.5,
              "duration": 0.03125
            },
            {
              "pitch": 60,
              "velocity": 82,
              "position": 14.5,
              "duration": 0.03125
            },
            {
              "pitch": 67,
              "velocity": 82,
              "position": 14.5,
              "duration": 0.052083333333333336
            },
            {
              "pitch": 71,
              "velocity": 82,
              "position": 14.5,
              "duration": 0.052083333333333336
            },
            {
              "pitch": 48,
              "velocity": 82,
              "position": 14.833333333333334,
              "duration": 0.14583333333333334
            },
            {
              "pitch": 64,
              "velocity": 82,
              "position": 14.833333333333334,
              "duration": 0.14791666666666667
            },
            {
              "pitch": 60,
              "velocity": 82,
              "position": 14.84375,
              "duration": 0.14583333333333334
            },
            {
              "pitch": 67,
              "velocity": 82,
              "position": 14.822916666666666,
              "duration": 0.16666666666666666
            },
            {
              "pitch": 71,
              "velocity": 82,
              "position": 14.822916666666666,
              "duration": 0.16666666666666666
            },
            {
              "pitch": 60,
              "velocity": 55,
              "position": 15,
              "duration": 0.28125
            },
            {
              "pitch": 64,
              "velocity": 55,
              "position": 14.989583333333334,
              "duration": 0.2916666666666667
            },
            {
              "pitch": 67,
              "velocity": 55,
              "position": 15,
              "duration": 0.3020833333333333
            },
            {
              "pitch": 71,
              "velocity": 55,
              "position": 15,
              "duration": 0.3020833333333333
            },
            {
              "pitch": 64,
              "velocity": 68,
              "position": 15.333333333333334,
              "duration": 0.1375
            },
            {
              "pitch": 60,
              "velocity": 68,
              "position": 15.34375,
              "duration": 0.13541666666666666
            },
            {
              "pitch": 67,
              "velocity": 68,
              "position": 15.322916666666666,
              "duration": 0.15625
            },
            {
              "pitch": 71,
              "velocity": 68,
              "position": 15.322916666666666,
              "duration": 0.15625
            },
            {
              "pitch": 67,
              "velocity": 55,
              "position": 15.510416666666666,
              "duration": 0.30416666666666664
            },
            {
              "pitch": 71,
              "velocity": 55,
              "position": 15.510416666666666,
              "duration": 0.30416666666666664
            },
            {
              "pitch": 64,
              "velocity": 55,
              "position": 15.5,
              "duration": 0.3145833333333333
            },
            {
              "pitch": 60,
              "velocity": 55,
              "position": 15.489583333333334,
              "duration": 0.3333333333333333
            },
            {
              "pitch": 64,
              "velocity": 82,
              "position": 15.833333333333334,
              "duration": 0.14791666666666667
            },
            {
              "pitch": 60,
              "velocity": 82,
              "position": 15.84375,
              "duration": 0.14583333333333334
            },
            {
              "pitch": 67,
              "velocity": 82,
              "position": 15.822916666666666,
              "duration": 0.16666666666666666
            },
            {
              "pitch": 71,
              "velocity": 82,
              "position": 15.822916666666666,
              "duration": 0.16666666666666666
            }
          ]
        },
        "13": {
          "ctab": {
            "srcChannel": 13,
            "name": "E.Piano",
            "accType": "PAD",
            "editable": false,
            "mutedNotes": [],
            "mutedChords": [],
            "autoStart": false,
            "sourceChordNote": 0,
            "sourceChordType": "Maj7",
            "ctb2Low": null,
            "ctb2Main": {
              "ntr": "ROOT_FIXED",
              "ntt": "CHORD",
              "bassOn": false,
              "chordRootUpperLimit": 7,
              "noteLowLimit": 0,
              "noteHighLimit": 127,
              "rtr": "PITCH_SHIFT"
            },
            "ctb2High": null
          },
          "notes": [
            {
              "pitch": 59,
              "velocity": 98,
              "position": 0.5,
              "duration": 0.15625
            },
            {
              "pitch": 67,
              "velocity": 98,
              "position": 0.5,
              "duration": 0.15625
            },
            {
              "pitch": 64,
              "velocity": 98,
              "position": 0.5,
              "duration": 0.15625
            },
            {
              "pitch": 59,
              "velocity": 98,
              "position": 1.3333333333333333,
              "duration": 0.15625
            },
            {
              "pitch": 67,
              "velocity": 98,
              "position": 1.3333333333333333,
              "duration": 0.15625
            },
            {
              "pitch": 64,
              "velocity": 98,
              "position": 1.3333333333333333,
              "duration": 0.15625
            },
            {
              "pitch": 59,
              "velocity": 98,
              "position": 2,
              "duration": 0.15625
            },
            {
              "pitch": 67,
              "velocity": 98,
              "position": 2,
              "duration": 0.15625
            },
            {
              "pitch": 64,
              "velocity": 98,
              "position": 2,
              "duration": 0.15625
            },
            {
              "pitch": 59,
              "velocity": 105,
              "position": 2.8333333333333335,
              "duration": 0.4895833333333333
            },
            {
              "pitch": 67,
              "velocity": 105,
              "position": 2.8333333333333335,
              "duration": 0.4895833333333333
            },
            {
              "pitch": 64,
              "velocity": 105,
              "position": 2.8333333333333335,
              "duration": 0.4895833333333333
            },
            {
              "pitch": 59,
              "velocity": 98,
              "position": 3.5,
              "duration": 0.15625
            },
            {
              "pitch": 67,
              "velocity": 98,
              "position": 3.5,
              "duration": 0.15625
            },
            {
              "pitch": 64,
              "velocity": 98,
              "position": 3.5,
              "duration": 0.15625
            },
            {
              "pitch": 59,
              "velocity": 98,
              "position": 4.5,
              "duration": 0.15625
            },
            {
              "pitch": 67,
              "velocity": 98,
              "position": 4.5,
              "duration": 0.15625
            },
            {
              "pitch": 64,
              "velocity": 98,
              "position": 4.5,
              "duration": 0.15625
            },
            {
              "pitch": 59,
              "velocity": 98,
              "position": 5.333333333333333,
              "duration": 0.15625
            },
            {
              "pitch": 67,
              "velocity": 98,
              "position": 5.333333333333333,
              "duration": 0.15625
            },
            {
              "pitch": 64,
              "velocity": 98,
              "position": 5.333333333333333,
              "duration": 0.15625
            },
            {
              "pitch": 59,
              "velocity": 98,
              "position": 6,
              "duration": 0.15625
            },
            {
              "pitch": 67,
              "velocity": 98,
              "position": 6,
              "duration": 0.15625
            },
            {
              "pitch": 64,
              "velocity": 98,
              "position": 6,
              "duration": 0.15625
            },
            {
              "pitch": 59,
              "velocity": 105,
              "position": 6.833333333333333,
              "duration": 0.4895833333333333
            },
            {
              "pitch": 67,
              "velocity": 105,
              "position": 6.833333333333333,
              "duration": 0.4895833333333333
            },
            {
              "pitch": 64,
              "velocity": 105,
              "position": 6.833333333333333,
              "duration": 0.4895833333333333
            },
            {
              "pitch": 59,
              "velocity": 98,
              "position": 7.5,
              "duration": 0.15625
            },
            {
              "pitch": 67,
              "velocity": 98,
              "position": 7.5,
              "duration": 0.15625
            },
            {
              "pitch": 64,
              "velocity": 98,
              "position": 7.5,
              "duration": 0.15625
            },
            {
              "pitch": 59,
              "velocity": 98,
              "position": 8.5,
              "duration": 0.15625
            },
            {
              "pitch": 67,
              "velocity": 98,
              "position": 8.5,
              "duration": 0.15625
            },
            {
              "pitch": 64,
              "velocity": 98,
              "position": 8.5,
              "duration": 0.15625
            },
            {
              "pitch": 59,
              "velocity": 98,
              "position": 9.333333333333334,
              "duration": 0.15625
            },
            {
              "pitch": 67,
              "velocity": 98,
              "position": 9.333333333333334,
              "duration": 0.15625
            },
            {
              "pitch": 64,
              "velocity": 98,
              "position": 9.333333333333334,
              "duration": 0.15625
            },
            {
              "pitch": 59,
              "velocity": 98,
              "position": 10,
              "duration": 0.15625
            },
            {
              "pitch": 67,
              "velocity": 98,
              "position": 10,
              "duration": 0.15625
            },
            {
              "pitch": 64,
              "velocity": 98,
              "position": 10,
              "duration": 0.15625
            },
            {
              "pitch": 59,
              "velocity": 105,
              "position": 10.833333333333334,
              "duration": 0.4895833333333333
            },
            {
              "pitch": 67,
              "velocity": 105,
              "position": 10.833333333333334,
              "duration": 0.4895833333333333
            },
            {
              "pitch": 64,
              "velocity": 105,
              "position": 10.833333333333334,
              "duration": 0.4895833333333333
            },
            {
              "pitch": 59,
              "velocity": 98,
              "position": 11.5,
              "duration": 0.15625
            },
            {
              "pitch": 67,
              "velocity": 98,
              "position": 11.5,
              "duration": 0.15625
            },
            {
              "pitch": 64,
              "velocity": 98,
              "position": 11.5,
              "duration": 0.15625
            },
            {
              "pitch": 59,
              "velocity": 98,
              "position": 12.5,
              "duration": 0.15625
            },
            {
              "pitch": 67,
              "velocity": 98,
              "position": 12.5,
              "duration": 0.15625
            },
            {
              "pitch": 64,
              "velocity": 98,
              "position": 12.5,
              "duration": 0.15625
            },
            {
              "pitch": 59,
              "velocity": 98,
              "position": 13.333333333333334,
              "duration": 0.15625
            },
            {
              "pitch": 67,
              "velocity": 98,
              "position": 13.333333333333334,
              "duration": 0.15625
            },
            {
              "pitch": 64,
              "velocity": 98,
              "position": 13.333333333333334,
              "duration": 0.15625
            },
            {
              "pitch": 59,
              "velocity": 98,
              "position": 14,
              "duration": 0.15625
            },
            {
              "pitch": 67,
              "velocity": 98,
              "position": 14,
              "duration": 0.15625
            },
            {
              "pitch": 64,
              "velocity": 98,
              "position": 14,
              "duration": 0.15625
            },
            {
              "pitch": 59,
              "velocity": 105,
              "position": 14.833333333333334,
              "duration": 0.4895833333333333
            },
            {
              "pitch": 67,
              "velocity": 105,
              "position": 14.833333333333334,
              "duration": 0.4895833333333333
            },
            {
              "pitch": 64,
              "velocity": 105,
              "position": 14.833333333333334,
              "duration": 0.4895833333333333
            },
            {
              "pitch": 59,
              "velocity": 98,
              "position": 15.5,
              "duration": 0.15625
            },
            {
              "pitch": 67,
              "velocity": 98,
              "position": 15.5,
              "duration": 0.15625
            },
            {
              "pitch": 64,
              "velocity": 98,
              "position": 15.5,
              "duration": 0.15625
            }
          ]
        },
        "14": {
          "ctab": {
            "srcChannel": 14,
            "name": "TenorSax",
            "accType": "PHRASE1",
            "editable": false,
            "mutedNotes": [],
            "mutedChords": [],
            "autoStart": false,
            "sourceChordNote": 0,
            "sourceChordType": "Maj7",
            "ctb2Low": null,
            "ctb2Main": {
              "ntr": "ROOT_TRANSPOSITION",
              "ntt": "CHORD",
              "bassOn": false,
              "chordRootUpperLimit": 7,
              "noteLowLimit": 0,
              "noteHighLimit": 127,
              "rtr": "PITCH_SHIFT"
            },
            "ctb2High": null
          },
          "notes": [
            {
              "pitch": 60,
              "velocity": 87,
              "position": 0.5,
              "duration": 0.15625
            },
            {
              "pitch": 59,
              "velocity": 57,
              "position": 1,
              "duration": 0.3125
            },
            {
              "pitch": 59,
              "velocity": 87,
              "position": 2,
              "duration": 0.3333333333333333
            },
            {
              "pitch": 60,
              "velocity": 87,
              "position": 2.3333333333333335,
              "duration": 0.16666666666666666
            },
            {
              "pitch": 59,
              "velocity": 87,
              "position": 3.3333333333333335,
              "duration": 0.16666666666666666
            },
            {
              "pitch": 60,
              "velocity": 87,
              "position": 3.5,
              "duration": 0.75
            },
            {
              "pitch": 60,
              "velocity": 84,
              "position": 7,
              "duration": 1.1666666666666667
            },
            {
              "pitch": 60,
              "velocity": 87,
              "position": 8.5,
              "duration": 0.15625
            },
            {
              "pitch": 59,
              "velocity": 57,
              "position": 9,
              "duration": 0.3125
            },
            {
              "pitch": 59,
              "velocity": 87,
              "position": 10,
              "duration": 0.3333333333333333
            },
            {
              "pitch": 60,
              "velocity": 87,
              "position": 10.333333333333334,
              "duration": 0.16666666666666666
            },
            {
              "pitch": 59,
              "velocity": 87,
              "position": 11.333333333333334,
              "duration": 0.16666666666666666
            },
            {
              "pitch": 60,
              "velocity": 87,
              "position": 11.5,
              "duration": 0.75
            },
            {
              "pitch": 60,
              "velocity": 87,
              "position": 15.5,
              "duration": 0.325
            }
          ]
        },
        "15": {
          "ctab": {
            "srcChannel": 15,
            "name": "Brass",
            "accType": "PHRASE2",
            "editable": false,
            "mutedNotes": [],
            "mutedChords": [],
            "autoStart": false,
            "sourceChordNote": 0,
            "sourceChordType": "Maj7",
            "ctb2Low": null,
            "ctb2Main": {
              "ntr": "ROOT_TRANSPOSITION",
              "ntt": "CHORD",
              "bassOn": false,
              "chordRootUpperLimit": 7,
              "noteLowLimit": 0,
              "noteHighLimit": 127,
              "rtr": "PITCH_SHIFT"
            },
            "ctb2High": null
          },
          "notes": [
            {
              "pitch": 67,
              "velocity": 84,
              "position": 0.5,
              "duration": 0.15625
            },
            {
              "pitch": 79,
              "velocity": 90,
              "position": 0.5,
              "duration": 0.15625
            },
            {
              "pitch": 76,
              "velocity": 84,
              "position": 0.5,
              "duration": 0.15625
            },
            {
              "pitch": 72,
              "velocity": 84,
              "position": 0.5,
              "duration": 0.15625
            },
            {
              "pitch": 67,
              "velocity": 82,
              "position": 1,
              "duration": 0.3125
            },
            {
              "pitch": 79,
              "velocity": 90,
              "position": 1,
              "duration": 0.3125
            },
            {
              "pitch": 76,
              "velocity": 82,
              "position": 1,
              "duration": 0.3125
            },
            {
              "pitch": 71,
              "velocity": 82,
              "position": 1,
              "duration": 0.3125
            },
            {
              "pitch": 67,
              "velocity": 82,
              "position": 1.3333333333333333,
              "duration": 0.15625
            },
            {
              "pitch": 79,
              "velocity": 90,
              "position": 1.3333333333333333,
              "duration": 0.15625
            },
            {
              "pitch": 76,
              "velocity": 82,
              "position": 1.3333333333333333,
              "duration": 0.15625
            },
            {
              "pitch": 72,
              "velocity": 82,
              "position": 1.3333333333333333,
              "duration": 0.15625
            },
            {
              "pitch": 79,
              "velocity": 85,
              "position": 2.8333333333333335,
              "duration": 0.6458333333333334
            },
            {
              "pitch": 76,
              "velocity": 84,
              "position": 2.8333333333333335,
              "duration": 0.6458333333333334
            },
            {
              "pitch": 67,
              "velocity": 84,
              "position": 8.5,
              "duration": 0.15625
            },
            {
              "pitch": 79,
              "velocity": 90,
              "position": 8.5,
              "duration": 0.15625
            },
            {
              "pitch": 76,
              "velocity": 84,
              "position": 8.5,
              "duration": 0.15625
            },
            {
              "pitch": 72,
              "velocity": 84,
              "position": 8.5,
              "duration": 0.15625
            },
            {
              "pitch": 67,
              "velocity": 82,
              "position": 9,
              "duration": 0.3125
            },
            {
              "pitch": 79,
              "velocity": 90,
              "position": 9,
              "duration": 0.3125
            },
            {
              "pitch": 76,
              "velocity": 82,
              "position": 9,
              "duration": 0.3125
            },
            {
              "pitch": 71,
              "velocity": 82,
              "position": 9,
              "duration": 0.3125
            },
            {
              "pitch": 67,
              "velocity": 82,
              "position": 9.333333333333334,
              "duration": 0.15625
            },
            {
              "pitch": 79,
              "velocity": 90,
              "position": 9.333333333333334,
              "duration": 0.15625
            },
            {
              "pitch": 76,
              "velocity": 82,
              "position": 9.333333333333334,
              "duration": 0.15625
            },
            {
              "pitch": 72,
              "velocity": 82,
              "position": 9.333333333333334,
              "duration": 0.15625
            },
            {
              "pitch": 79,
              "velocity": 85,
              "position": 10.833333333333334,
              "duration": 0.6458333333333334
            },
            {
              "pitch": 76,
              "velocity": 84,
              "position": 10.833333333333334,
              "duration": 0.6458333333333334
            },
            {
              "pitch": 71,
              "velocity": 78,
              "position": 15.5,
              "duration": 0.3229166666666667
            },
            {
              "pitch": 84,
              "velocity": 88,
              "position": 15.5,
              "duration": 0.3229166666666667
            },
            {
              "pitch": 79,
              "velocity": 78,
              "position": 15.5,
              "duration": 0.3229166666666667
            },
            {
              "pitch": 76,
              "velocity": 78,
              "position": 15.5,
              "duration": 0.3229166666666667
            },
            {
              "pitch": 71,
              "velocity": 85,
              "position": 15.833333333333334,
              "duration": 0.14583333333333334
            },
            {
              "pitch": 84,
              "velocity": 90,
              "position": 15.833333333333334,
              "duration": 0.14583333333333334
            },
            {
              "pitch": 79,
              "velocity": 85,
              "position": 15.833333333333334,
              "duration": 0.14583333333333334
            },
            {
              "pitch": 76,
              "velocity": 85,
              "position": 15.833333333333334,
              "duration": 0.14583333333333334
            }
          ]
        }
      }
    },
    "Fill_In_DD": {
      "type": "Fill_In_DD",
      "sizeInBeats": 4,
      "channels": {
        "2": {
          "ctab": {
            "srcChannel": 2,
            "name": "ClaviBs",
            "accType": "CHORD1",
            "editable": false,
            "mutedNotes": [],
            "mutedChords": [],
            "autoStart": false,
            "sourceChordNote": 0,
            "sourceChordType": "Maj7",
            "ctb2Low": null,
            "ctb2Main": {
              "ntr": "ROOT_TRANSPOSITION",
              "ntt": "MELODY",
              "bassOn": true,
              "chordRootUpperLimit": 8,
              "noteLowLimit": 28,
              "noteHighLimit": 127,
              "rtr": "PITCH_SHIFT_TO_ROOT"
            },
            "ctb2High": null
          },
          "notes": [
            {
              "pitch": 36,
              "velocity": 60,
              "position": 0.16666666666666666,
              "duration": 0.07291666666666667
            },
            {
              "pitch": 36,
              "velocity": 104,
              "position": 1.8333333333333333,
              "duration": 0.09375
            },
            {
              "pitch": 48,
              "velocity": 60,
              "position": 3.6666666666666665,
              "duration": 0.07291666666666667
            },
            {
              "pitch": 43,
              "velocity": 90,
              "position": 3.8333333333333335,
              "duration": 0.052083333333333336
            }
          ]
        },
        "4": {
          "ctab": {
            "srcChannel": 4,
            "name": "E.P  rt",
            "accType": "PAD",
            "editable": false,
            "mutedNotes": [],
            "mutedChords": [
              "1+2+5",
              "sus4",
              "1+5",
              "1+8",
              "Maj7aug",
              "dim",
              "minMaj7(9)",
              "minMaj7",
              "min6",
              "min",
              "aug",
              "Maj7(9)",
              "Maj7#11",
              "Maj7",
              "Maj6",
              "Maj"
            ],
            "autoStart": false,
            "sourceChordNote": 0,
            "sourceChordType": "Maj7",
            "ctb2Low": null,
            "ctb2Main": {
              "ntr": "ROOT_TRANSPOSITION",
              "ntt": "CHORD",
              "bassOn": false,
              "chordRootUpperLimit": 10,
              "noteLowLimit": 0,
              "noteHighLimit": 127,
              "rtr": "PITCH_SHIFT"
            },
            "ctb2High": null
          },
          "notes": [
            {
              "pitch": 60,
              "velocity": 98,
              "position": 0.5,
              "duration": 0.15625
            },
            {
              "pitch": 60,
              "velocity": 98,
              "position": 1.3333333333333333,
              "duration": 0.15625
            },
            {
              "pitch": 60,
              "velocity": 98,
              "position": 2,
              "duration": 0.15625
            },
            {
              "pitch": 60,
              "velocity": 105,
              "position": 2.8333333333333335,
              "duration": 0.4895833333333333
            },
            {
              "pitch": 60,
              "velocity": 98,
              "position": 3.5,
              "duration": 0.15625
            }
          ]
        },
        "8": {
          "ctab": {
            "srcChannel": 8,
            "name": "AddDrum",
            "accType": "SUBRHYTHM",
            "editable": false,
            "mutedNotes": [],
            "mutedChords": [],
            "autoStart": true,
            "sourceChordNote": 0,
            "sourceChordType": "Maj7",
            "ctb2Low": null,
            "ctb2Main": {
              "ntr": "ROOT_FIXED",
              "ntt": "BYPASS",
              "bassOn": false,
              "chordRootUpperLimit": 6,
              "noteLowLimit": 0,
              "noteHighLimit": 127,
              "rtr": "PITCH_SHIFT"
            },
            "ctb2High": null
          },
          "notes": [
            {
              "pitch": 54,
              "velocity": 70,
              "position": 0,
              "duration": 0.010416666666666666
            },
            {
              "pitch": 69,
              "velocity": 41,
              "position": 0,
              "duration": 0.010416666666666666
            },
            {
              "pitch": 54,
              "velocity": 18,
              "position": 0.3333333333333333,
              "duration": 0.010416666666666666
            },
            {
              "pitch": 54,
              "velocity": 42,
              "position": 0.5,
              "duration": 0.010416666666666666
            },
            {
              "pitch": 69,
              "velocity": 64,
              "position": 0.5,
              "duration": 0.010416666666666666
            },
            {
              "pitch": 54,
              "velocity": 16,
              "position": 0.8333333333333334,
              "duration": 0.010416666666666666
            },
            {
              "pitch": 69,
              "velocity": 23,
              "position": 0.8333333333333334,
              "duration": 0.010416666666666666
            },
            {
              "pitch": 62,
              "velocity": 14,
              "position": 0.8333333333333334,
              "duration": 0.010416666666666666
            },
            {
              "pitch": 54,
              "velocity": 82,
              "position": 1,
              "duration": 0.010416666666666666
            },
            {
              "pitch": 69,
              "velocity": 41,
              "position": 1,
              "duration": 0.010416666666666666
            },
            {
              "pitch": 62,
              "velocity": 80,
              "position": 1,
              "duration": 0.010416666666666666
            },
            {
              "pitch": 54,
              "velocity": 18,
              "position": 1.3333333333333333,
              "duration": 0.010416666666666666
            },
            {
              "pitch": 54,
              "velocity": 42,
              "position": 1.5,
              "duration": 0.010416666666666666
            },
            {
              "pitch": 69,
              "velocity": 64,
              "position": 1.5,
              "duration": 0.010416666666666666
            },
            {
              "pitch": 63,
              "velocity": 80,
              "position": 1.5,
              "duration": 0.010416666666666666
            },
            {
              "pitch": 54,
              "velocity": 16,
              "position": 1.8333333333333333,
              "duration": 0.010416666666666666
            },
            {
              "pitch": 69,
              "velocity": 40,
              "position": 1.8333333333333333,
              "duration": 0.010416666666666666
            },
            {
              "pitch": 54,
              "velocity": 70,
              "position": 2,
              "duration": 0.010416666666666666
            },
            {
              "pitch": 69,
              "velocity": 73,
              "position": 2,
              "duration": 0.010416666666666666
            },
            {
              "pitch": 54,
              "velocity": 18,
              "position": 2.3333333333333335,
              "duration": 0.010416666666666666
            },
            {
              "pitch": 69,
              "velocity": 16,
              "position": 2.3333333333333335,
              "duration": 0.010416666666666666
            },
            {
              "pitch": 54,
              "velocity": 42,
              "position": 2.5,
              "duration": 0.010416666666666666
            },
            {
              "pitch": 69,
              "velocity": 49,
              "position": 2.5,
              "duration": 0.010416666666666666
            },
            {
              "pitch": 63,
              "velocity": 31,
              "position": 2.5,
              "duration": 0.010416666666666666
            },
            {
              "pitch": 54,
              "velocity": 16,
              "position": 2.8333333333333335,
              "duration": 0.010416666666666666
            },
            {
              "pitch": 69,
              "velocity": 18,
              "position": 2.8333333333333335,
              "duration": 0.010416666666666666
            },
            {
              "pitch": 62,
              "velocity": 44,
              "position": 2.8333333333333335,
              "duration": 0.010416666666666666
            },
            {
              "pitch": 54,
              "velocity": 82,
              "position": 3,
              "duration": 0.010416666666666666
            },
            {
              "pitch": 69,
              "velocity": 77,
              "position": 3,
              "duration": 0.010416666666666666
            },
            {
              "pitch": 62,
              "velocity": 80,
              "position": 3,
              "duration": 0.010416666666666666
            },
            {
              "pitch": 54,
              "velocity": 18,
              "position": 3.3333333333333335,
              "duration": 0.010416666666666666
            },
            {
              "pitch": 54,
              "velocity": 42,
              "position": 3.5,
              "duration": 0.010416666666666666
            },
            {
              "pitch": 69,
              "velocity": 64,
              "position": 3.5,
              "duration": 0.010416666666666666
            },
            {
              "pitch": 64,
              "velocity": 80,
              "position": 3.5,
              "duration": 0.010416666666666666
            },
            {
              "pitch": 54,
              "velocity": 16,
              "position": 3.8333333333333335,
              "duration": 0.010416666666666666
            },
            {
              "pitch": 69,
              "velocity": 33,
              "position": 3.8333333333333335,
              "duration": 0.010416666666666666
            }
          ]
        },
        "9": {
          "ctab": {
            "srcChannel": 9,
            "name": "MainDrum",
            "accType": "RHYTHM",
            "editable": false,
            "mutedNotes": [],
            "mutedChords": [],
            "autoStart": true,
            "sourceChordNote": 0,
            "sourceChordType": "Maj7",
            "ctb2Low": null,
            "ctb2Main": {
              "ntr": "ROOT_FIXED",
              "ntt": "BYPASS",
              "bassOn": false,
              "chordRootUpperLimit": 6,
              "noteLowLimit": 0,
              "noteHighLimit": 127,
              "rtr": "PITCH_SHIFT"
            },
            "ctb2High": null
          },
          "notes": [
            {
              "pitch": 35,
              "velocity": 90,
              "position": 0,
              "duration": 0.010416666666666666
            },
            {
              "pitch": 51,
              "velocity": 70,
              "position": 0,
              "duration": 0.010416666666666666
            },
            {
              "pitch": 42,
              "velocity": 116,
              "position": 0,
              "duration": 0.010416666666666666
            },
            {
              "pitch": 40,
              "velocity": 80,
              "position": 0.3333333333333333,
              "duration": 0.010416666666666666
            },
            {
              "pitch": 42,
              "velocity": 88,
              "position": 0.5,
              "duration": 0.010416666666666666
            },
            {
              "pitch": 53,
              "velocity": 87,
              "position": 0.5,
              "duration": 0.010416666666666666
            },
            {
              "pitch": 35,
              "velocity": 98,
              "position": 0.8333333333333334,
              "duration": 0.010416666666666666
            },
            {
              "pitch": 40,
              "velocity": 114,
              "position": 1,
              "duration": 0.010416666666666666
            },
            {
              "pitch": 51,
              "velocity": 70,
              "position": 1,
              "duration": 0.010416666666666666
            },
            {
              "pitch": 42,
              "velocity": 116,
              "position": 1,
              "duration": 0.010416666666666666
            },
            {
              "pitch": 35,
              "velocity": 37,
              "position": 1.3333333333333333,
              "duration": 0.010416666666666666
            },
            {
              "pitch": 35,
              "velocity": 90,
              "position": 1.5,
              "duration": 0.010416666666666666
            },
            {
              "pitch": 53,
              "velocity": 87,
              "position": 1.5,
              "duration": 0.010416666666666666
            },
            {
              "pitch": 42,
              "velocity": 94,
              "position": 1.5,
              "duration": 0.010416666666666666
            },
            {
              "pitch": 40,
              "velocity": 97,
              "position": 1.8333333333333333,
              "duration": 0.010416666666666666
            },
            {
              "pitch": 42,
              "velocity": 54,
              "position": 1.8333333333333333,
              "duration": 0.010416666666666666
            },
            {
              "pitch": 42,
              "velocity": 116,
              "position": 2,
              "duration": 0.010416666666666666
            },
            {
              "pitch": 51,
              "velocity": 70,
              "position": 2,
              "duration": 0.010416666666666666
            },
            {
              "pitch": 35,
              "velocity": 70,
              "position": 2.3333333333333335,
              "duration": 0.010416666666666666
            },
            {
              "pitch": 35,
              "velocity": 95,
              "position": 2.5,
              "duration": 0.010416666666666666
            },
            {
              "pitch": 53,
              "velocity": 87,
              "position": 2.5,
              "duration": 0.010416666666666666
            },
            {
              "pitch": 42,
              "velocity": 85,
              "position": 2.5,
              "duration": 0.010416666666666666
            },
            {
              "pitch": 40,
              "velocity": 57,
              "position": 2.6666666666666665,
              "duration": 0.010416666666666666
            },
            {
              "pitch": 40,
              "velocity": 80,
              "position": 2.8333333333333335,
              "duration": 0.010416666666666666
            },
            {
              "pitch": 35,
              "velocity": 98,
              "position": 3,
              "duration": 0.010416666666666666
            },
            {
              "pitch": 51,
              "velocity": 70,
              "position": 3,
              "duration": 0.010416666666666666
            },
            {
              "pitch": 42,
              "velocity": 116,
              "position": 3,
              "duration": 0.010416666666666666
            },
            {
              "pitch": 40,
              "velocity": 108,
              "position": 3,
              "duration": 0.010416666666666666
            },
            {
              "pitch": 42,
              "velocity": 27,
              "position": 3.3333333333333335,
              "duration": 0.010416666666666666
            },
            {
              "pitch": 35,
              "velocity": 95,
              "position": 3.5,
              "duration": 0.010416666666666666
            },
            {
              "pitch": 53,
              "velocity": 87,
              "position": 3.5,
              "duration": 0.010416666666666666
            },
            {
              "pitch": 46,
              "velocity": 84,
              "position": 3.5,
              "duration": 0.010416666666666666
            },
            {
              "pitch": 40,
              "velocity": 52,
              "position": 3.8333333333333335,
              "duration": 0.010416666666666666
            },
            {
              "pitch": 42,
              "velocity": 51,
              "position": 3.8333333333333335,
              "duration": 0.010416666666666666
            },
            {
              "pitch": 49,
              "velocity": 78,
              "position": 3.9895833333333335,
              "duration": 0.010416666666666666
            }
          ]
        },
        "10": {
          "ctab": {
            "srcChannel": 10,
            "name": "Bass",
            "accType": "BASS",
            "editable": false,
            "mutedNotes": [],
            "mutedChords": [],
            "autoStart": false,
            "sourceChordNote": 0,
            "sourceChordType": "Maj7",
            "ctb2Low": null,
            "ctb2Main": {
              "ntr": "ROOT_TRANSPOSITION",
              "ntt": "MELODY",
              "bassOn": true,
              "chordRootUpperLimit": 8,
              "noteLowLimit": 28,
              "noteHighLimit": 127,
              "rtr": "PITCH_SHIFT_TO_ROOT"
            },
            "ctb2High": null
          },
          "notes": [
            {
              "pitch": 24,
              "velocity": 115,
              "position": 0.3333333333333333,
              "duration": 0.15625
            },
            {
              "pitch": 24,
              "velocity": 70,
              "position": 0.5,
              "duration": 0.3229166666666667
            },
            {
              "pitch": 28,
              "velocity": 70,
              "position": 1,
              "duration": 0.3229166666666667
            },
            {
              "pitch": 24,
              "velocity": 70,
              "position": 1.3333333333333333,
              "duration": 0.15625
            },
            {
              "pitch": 33,
              "velocity": 70,
              "position": 1.8333333333333333,
              "duration": 0.15625
            },
            {
              "pitch": 43,
              "velocity": 64,
              "position": 2,
              "duration": 0.4895833333333333
            },
            {
              "pitch": 43,
              "velocity": 64,
              "position": 2.5,
              "duration": 0.4895833333333333
            },
            {
              "pitch": 38,
              "velocity": 70,
              "position": 3,
              "duration": 0.15625
            },
            {
              "pitch": 28,
              "velocity": 105,
              "position": 3.1666666666666665,
              "duration": 0.15625
            },
            {
              "pitch": 31,
              "velocity": 110,
              "position": 3.3333333333333335,
              "duration": 0.15625
            },
            {
              "pitch": 36,
              "velocity": 70,
              "position": 3.5,
              "duration": 0.3229166666666667
            }
          ]
        },
        "11": {
          "ctab": {
            "srcChannel": 11,
            "name": "Clavi",
            "accType": "CHORD1",
            "editable": false,
            "mutedNotes": [],
            "mutedChords": [],
            "autoStart": false,
            "sourceChordNote": 0,
            "sourceChordType": "Maj7",
            "ctb2Low": null,
            "ctb2Main": {
              "ntr": "ROOT_TRANSPOSITION",
              "ntt": "CHORD",
              "bassOn": false,
              "chordRootUpperLimit": 7,
              "noteLowLimit": 0,
              "noteHighLimit": 127,
              "rtr": "PITCH_SHIFT"
            },
            "ctb2High": null
          },
          "notes": [
            {
              "pitch": 55,
              "velocity": 55,
              "position": 0,
              "duration": 0.3125
            },
            {
              "pitch": 64,
              "velocity": 55,
              "position": 0,
              "duration": 0.3125
            },
            {
              "pitch": 59,
              "velocity": 55,
              "position": 0,
              "duration": 0.3125
            },
            {
              "pitch": 47,
              "velocity": 67,
              "position": 0.3333333333333333,
              "duration": 0.0625
            },
            {
              "pitch": 55,
              "velocity": 85,
              "position": 0.5,
              "duration": 0.14583333333333334
            },
            {
              "pitch": 64,
              "velocity": 85,
              "position": 0.5,
              "duration": 0.14583333333333334
            },
            {
              "pitch": 59,
              "velocity": 85,
              "position": 0.5,
              "duration": 0.14583333333333334
            },
            {
              "pitch": 48,
              "velocity": 110,
              "position": 0.5,
              "duration": 0.3125
            },
            {
              "pitch": 47,
              "velocity": 110,
              "position": 1,
              "duration": 0.3125
            },
            {
              "pitch": 48,
              "velocity": 110,
              "position": 1.3333333333333333,
              "duration": 0.3125
            },
            {
              "pitch": 64,
              "velocity": 55,
              "position": 1.3333333333333333,
              "duration": 0.3125
            },
            {
              "pitch": 59,
              "velocity": 55,
              "position": 1.3333333333333333,
              "duration": 0.3125
            },
            {
              "pitch": 55,
              "velocity": 55,
              "position": 1.3333333333333333,
              "duration": 0.3125
            },
            {
              "pitch": 55,
              "velocity": 85,
              "position": 2,
              "duration": 0.14583333333333334
            },
            {
              "pitch": 64,
              "velocity": 85,
              "position": 2,
              "duration": 0.14583333333333334
            },
            {
              "pitch": 59,
              "velocity": 85,
              "position": 2,
              "duration": 0.14583333333333334
            },
            {
              "pitch": 52,
              "velocity": 110,
              "position": 2,
              "duration": 0.3125
            },
            {
              "pitch": 47,
              "velocity": 110,
              "position": 2.8125,
              "duration": 0.1875
            },
            {
              "pitch": 64,
              "velocity": 55,
              "position": 2.8333333333333335,
              "duration": 0.3125
            },
            {
              "pitch": 59,
              "velocity": 55,
              "position": 2.8333333333333335,
              "duration": 0.3125
            },
            {
              "pitch": 55,
              "velocity": 55,
              "position": 2.8333333333333335,
              "duration": 0.3125
            },
            {
              "pitch": 47,
              "velocity": 73,
              "position": 3.3125,
              "duration": 0.0625
            },
            {
              "pitch": 55,
              "velocity": 85,
              "position": 3.5,
              "duration": 0.14583333333333334
            },
            {
              "pitch": 64,
              "velocity": 85,
              "position": 3.5,
              "duration": 0.14583333333333334
            },
            {
              "pitch": 59,
              "velocity": 85,
              "position": 3.5,
              "duration": 0.14583333333333334
            },
            {
              "pitch": 48,
              "velocity": 110,
              "position": 3.5,
              "duration": 0.3125
            }
          ]
        },
        "12": {
          "ctab": {
            "srcChannel": 12,
            "name": "SolidGtr",
            "accType": "CHORD2",
            "editable": false,
            "mutedNotes": [],
            "mutedChords": [],
            "autoStart": false,
            "sourceChordNote": 0,
            "sourceChordType": "Maj7",
            "ctb2Low": null,
            "ctb2Main": {
              "ntr": "ROOT_TRANSPOSITION",
              "ntt": "MELODY",
              "bassOn": true,
              "chordRootUpperLimit": 7,
              "noteLowLimit": 0,
              "noteHighLimit": 127,
              "rtr": "PITCH_SHIFT"
            },
            "ctb2High": null
          },
          "notes": [
            {
              "pitch": 48,
              "velocity": 68,
              "position": 0.3333333333333333,
              "duration": 0.13541666666666666
            },
            {
              "pitch": 64,
              "velocity": 68,
              "position": 0.34375,
              "duration": 0.1375
            },
            {
              "pitch": 67,
              "velocity": 68,
              "position": 0.3333333333333333,
              "duration": 0.15625
            },
            {
              "pitch": 71,
              "velocity": 68,
              "position": 0.3333333333333333,
              "duration": 0.15625
            },
            {
              "pitch": 60,
              "velocity": 68,
              "position": 0.3541666666666667,
              "duration": 0.13541666666666666
            },
            {
              "pitch": 67,
              "velocity": 40,
              "position": 0.5208333333333334,
              "duration": 0.2916666666666667
            },
            {
              "pitch": 71,
              "velocity": 40,
              "position": 0.5208333333333334,
              "duration": 0.2916666666666667
            },
            {
              "pitch": 64,
              "velocity": 40,
              "position": 0.5104166666666666,
              "duration": 0.3020833333333333
            },
            {
              "pitch": 48,
              "velocity": 40,
              "position": 0.5,
              "duration": 0.3125
            },
            {
              "pitch": 60,
              "velocity": 40,
              "position": 0.5,
              "duration": 0.3125
            },
            {
              "pitch": 48,
              "velocity": 55,
              "position": 0.8333333333333334,
              "duration": 0.14583333333333334
            },
            {
              "pitch": 64,
              "velocity": 55,
              "position": 0.84375,
              "duration": 0.14791666666666667
            },
            {
              "pitch": 60,
              "velocity": 55,
              "position": 0.8541666666666666,
              "duration": 0.14583333333333334
            },
            {
              "pitch": 67,
              "velocity": 55,
              "position": 0.8333333333333334,
              "duration": 0.16666666666666666
            },
            {
              "pitch": 71,
              "velocity": 55,
              "position": 0.8333333333333334,
              "duration": 0.16666666666666666
            },
            {
              "pitch": 48,
              "velocity": 82,
              "position": 1,
              "duration": 0.03125
            },
            {
              "pitch": 64,
              "velocity": 82,
              "position": 1,
              "duration": 0.03333333333333333
            },
            {
              "pitch": 60,
              "velocity": 82,
              "position": 1.0104166666666667,
              "duration": 0.03125
            },
            {
              "pitch": 67,
              "velocity": 82,
              "position": 1.0104166666666667,
              "duration": 0.052083333333333336
            },
            {
              "pitch": 71,
              "velocity": 82,
              "position": 1.0104166666666667,
              "duration": 0.052083333333333336
            },
            {
              "pitch": 48,
              "velocity": 55,
              "position": 1.3333333333333333,
              "duration": 0.14583333333333334
            },
            {
              "pitch": 64,
              "velocity": 55,
              "position": 1.34375,
              "duration": 0.14791666666666667
            },
            {
              "pitch": 60,
              "velocity": 55,
              "position": 1.3541666666666667,
              "duration": 0.14583333333333334
            },
            {
              "pitch": 67,
              "velocity": 55,
              "position": 1.3333333333333333,
              "duration": 0.16666666666666666
            },
            {
              "pitch": 71,
              "velocity": 55,
              "position": 1.3333333333333333,
              "duration": 0.16666666666666666
            },
            {
              "pitch": 48,
              "velocity": 40,
              "position": 1.8333333333333333,
              "duration": 0.13541666666666666
            },
            {
              "pitch": 64,
              "velocity": 40,
              "position": 1.84375,
              "duration": 0.1375
            },
            {
              "pitch": 67,
              "velocity": 40,
              "position": 1.8333333333333333,
              "duration": 0.15625
            },
            {
              "pitch": 71,
              "velocity": 40,
              "position": 1.8333333333333333,
              "duration": 0.15625
            },
            {
              "pitch": 60,
              "velocity": 40,
              "position": 1.8541666666666667,
              "duration": 0.13541666666666666
            },
            {
              "pitch": 64,
              "velocity": 55,
              "position": 2.0104166666666665,
              "duration": 0.14791666666666667
            },
            {
              "pitch": 60,
              "velocity": 55,
              "position": 2,
              "duration": 0.16666666666666666
            },
            {
              "pitch": 48,
              "velocity": 55,
              "position": 2,
              "duration": 0.16666666666666666
            },
            {
              "pitch": 67,
              "velocity": 55,
              "position": 2.0208333333333335,
              "duration": 0.14583333333333334
            },
            {
              "pitch": 71,
              "velocity": 55,
              "position": 2.0208333333333335,
              "duration": 0.14583333333333334
            },
            {
              "pitch": 48,
              "velocity": 82,
              "position": 2.5,
              "duration": 0.03125
            },
            {
              "pitch": 64,
              "velocity": 82,
              "position": 2.5,
              "duration": 0.03333333333333333
            },
            {
              "pitch": 60,
              "velocity": 82,
              "position": 2.5104166666666665,
              "duration": 0.03125
            },
            {
              "pitch": 67,
              "velocity": 82,
              "position": 2.5104166666666665,
              "duration": 0.052083333333333336
            },
            {
              "pitch": 71,
              "velocity": 82,
              "position": 2.5104166666666665,
              "duration": 0.052083333333333336
            },
            {
              "pitch": 48,
              "velocity": 82,
              "position": 2.8333333333333335,
              "duration": 0.14583333333333334
            },
            {
              "pitch": 60,
              "velocity": 82,
              "position": 2.8541666666666665,
              "duration": 0.13541666666666666
            },
            {
              "pitch": 64,
              "velocity": 82,
              "position": 2.84375,
              "duration": 0.14583333333333334
            },
            {
              "pitch": 67,
              "velocity": 82,
              "position": 2.8333333333333335,
              "duration": 0.15625
            },
            {
              "pitch": 71,
              "velocity": 82,
              "position": 2.8333333333333335,
              "duration": 0.15625
            },
            {
              "pitch": 48,
              "velocity": 55,
              "position": 3,
              "duration": 0.28125
            },
            {
              "pitch": 60,
              "velocity": 55,
              "position": 3.0104166666666665,
              "duration": 0.28125
            },
            {
              "pitch": 64,
              "velocity": 55,
              "position": 3,
              "duration": 0.2916666666666667
            },
            {
              "pitch": 67,
              "velocity": 55,
              "position": 3.0104166666666665,
              "duration": 0.3020833333333333
            },
            {
              "pitch": 71,
              "velocity": 55,
              "position": 3.0104166666666665,
              "duration": 0.3020833333333333
            },
            {
              "pitch": 48,
              "velocity": 68,
              "position": 3.3333333333333335,
              "duration": 0.13541666666666666
            },
            {
              "pitch": 64,
              "velocity": 68,
              "position": 3.34375,
              "duration": 0.1375
            },
            {
              "pitch": 67,
              "velocity": 68,
              "position": 3.3333333333333335,
              "duration": 0.15625
            },
            {
              "pitch": 71,
              "velocity": 68,
              "position": 3.3333333333333335,
              "duration": 0.15625
            },
            {
              "pitch": 60,
              "velocity": 68,
              "position": 3.3541666666666665,
              "duration": 0.13541666666666666
            },
            {
              "pitch": 48,
              "velocity": 55,
              "position": 3.5,
              "duration": 0.3229166666666667
            },
            {
              "pitch": 64,
              "velocity": 55,
              "position": 3.5104166666666665,
              "duration": 0.3145833333333333
            },
            {
              "pitch": 67,
              "velocity": 55,
              "position": 3.5208333333333335,
              "duration": 0.30416666666666664
            },
            {
              "pitch": 71,
              "velocity": 55,
              "position": 3.5208333333333335,
              "duration": 0.30416666666666664
            },
            {
              "pitch": 60,
              "velocity": 55,
              "position": 3.5,
              "duration": 0.3333333333333333
            },
            {
              "pitch": 48,
              "velocity": 82,
              "position": 3.8333333333333335,
              "duration": 0.14583333333333334
            },
            {
              "pitch": 64,
              "velocity": 82,
              "position": 3.84375,
              "duration": 0.1375
            },
            {
              "pitch": 67,
              "velocity": 82,
              "position": 3.8333333333333335,
              "duration": 0.15625
            },
            {
              "pitch": 71,
              "velocity": 82,
              "position": 3.8333333333333335,
              "duration": 0.15625
            },
            {
              "pitch": 60,
              "velocity": 82,
              "position": 3.8541666666666665,
              "duration": 0.13541666666666666
            }
          ]
        },
        "13": {
          "ctab": {
            "srcChannel": 13,
            "name": "E.Piano",
            "accType": "PAD",
            "editable": false,
            "mutedNotes": [],
            "mutedChords": [],
            "autoStart": false,
            "sourceChordNote": 0,
            "sourceChordType": "Maj7",
            "ctb2Low": null,
            "ctb2Main": {
              "ntr": "ROOT_FIXED",
              "ntt": "CHORD",
              "bassOn": false,
              "chordRootUpperLimit": 7,
              "noteLowLimit": 0,
              "noteHighLimit": 127,
              "rtr": "PITCH_SHIFT"
            },
            "ctb2High": null
          },
          "notes": [
            {
              "pitch": 59,
              "velocity": 98,
              "position": 0.5,
              "duration": 0.15625
            },
            {
              "pitch": 67,
              "velocity": 98,
              "position": 0.5,
              "duration": 0.15625
            },
            {
              "pitch": 64,
              "velocity": 98,
              "position": 0.5,
              "duration": 0.15625
            },
            {
              "pitch": 59,
              "velocity": 98,
              "position": 1.3333333333333333,
              "duration": 0.15625
            },
            {
              "pitch": 67,
              "velocity": 98,
              "position": 1.3333333333333333,
              "duration": 0.15625
            },
            {
              "pitch": 64,
              "velocity": 98,
              "position": 1.3333333333333333,
              "duration": 0.15625
            },
            {
              "pitch": 59,
              "velocity": 98,
              "position": 2,
              "duration": 0.15625
            },
            {
              "pitch": 67,
              "velocity": 98,
              "position": 2,
              "duration": 0.15625
            },
            {
              "pitch": 64,
              "velocity": 98,
              "position": 2,
              "duration": 0.15625
            },
            {
              "pitch": 59,
              "velocity": 105,
              "position": 2.8333333333333335,
              "duration": 0.4895833333333333
            },
            {
              "pitch": 67,
              "velocity": 105,
              "position": 2.8333333333333335,
              "duration": 0.4895833333333333
            },
            {
              "pitch": 64,
              "velocity": 105,
              "position": 2.8333333333333335,
              "duration": 0.4895833333333333
            },
            {
              "pitch": 59,
              "velocity": 98,
              "position": 3.5,
              "duration": 0.15625
            },
            {
              "pitch": 67,
              "velocity": 98,
              "position": 3.5,
              "duration": 0.15625
            },
            {
              "pitch": 64,
              "velocity": 98,
              "position": 3.5,
              "duration": 0.15625
            }
          ]
        },
        "14": {
          "ctab": {
            "srcChannel": 14,
            "name": "TenorSax",
            "accType": "PHRASE1",
            "editable": false,
            "mutedNotes": [],
            "mutedChords": [],
            "autoStart": false,
            "sourceChordNote": 0,
            "sourceChordType": "Maj7",
            "ctb2Low": null,
            "ctb2Main": {
              "ntr": "ROOT_TRANSPOSITION",
              "ntt": "CHORD",
              "bassOn": false,
              "chordRootUpperLimit": 7,
              "noteLowLimit": 0,
              "noteHighLimit": 127,
              "rtr": "PITCH_SHIFT"
            },
            "ctb2High": null
          },
          "notes": [
            {
              "pitch": 60,
              "velocity": 87,
              "position": 0.5,
              "duration": 0.15625
            },
            {
              "pitch": 64,
              "velocity": 87,
              "position": 1,
              "duration": 0.3125
            },
            {
              "pitch": 60,
              "velocity": 87,
              "position": 1.3333333333333333,
              "duration": 0.15625
            },
            {
              "pitch": 59,
              "velocity": 87,
              "position": 1.8333333333333333,
              "duration": 0.15625
            },
            {
              "pitch": 62,
              "velocity": 87,
              "position": 3,
              "duration": 0.5
            },
            {
              "pitch": 60,
              "velocity": 87,
              "position": 3.5,
              "duration": 0.3333333333333333
            }
          ]
        },
        "15": {
          "ctab": {
            "srcChannel": 15,
            "name": "Brass",
            "accType": "PHRASE2",
            "editable": false,
            "mutedNotes": [],
            "mutedChords": [],
            "autoStart": false,
            "sourceChordNote": 0,
            "sourceChordType": "Maj7",
            "ctb2Low": null,
            "ctb2Main": {
              "ntr": "ROOT_TRANSPOSITION",
              "ntt": "CHORD",
              "bassOn": false,
              "chordRootUpperLimit": 7,
              "noteLowLimit": 0,
              "noteHighLimit": 127,
              "rtr": "PITCH_SHIFT"
            },
            "ctb2High": null
          },
          "notes": [
            {
              "pitch": 60,
              "velocity": 87,
              "position": 0.5,
              "duration": 0.15625
            },
            {
              "pitch": 72,
              "velocity": 87,
              "position": 0.5,
              "duration": 0.15625
            },
            {
              "pitch": 64,
              "velocity": 87,
              "position": 1,
              "duration": 0.3125
            },
            {
              "pitch": 76,
              "velocity": 87,
              "position": 1,
              "duration": 0.3125
            },
            {
              "pitch": 60,
              "velocity": 87,
              "position": 1.3333333333333333,
              "duration": 0.15625
            },
            {
              "pitch": 72,
              "velocity": 87,
              "position": 1.3333333333333333,
              "duration": 0.15625
            },
            {
              "pitch": 59,
              "velocity": 87,
              "position": 1.8333333333333333,
              "duration": 0.15625
            },
            {
              "pitch": 71,
              "velocity": 87,
              "position": 1.8333333333333333,
              "duration": 0.15625
            },
            {
              "pitch": 64,
              "velocity": 85,
              "position": 3,
              "duration": 0.4895833333333333
            },
            {
              "pitch": 76,
              "velocity": 85,
              "position": 3,
              "duration": 0.4895833333333333
            },
            {
              "pitch": 60,
              "velocity": 87,
              "position": 3.5,
              "duration": 0.4895833333333333
            },
            {
              "pitch": 72,
              "velocity": 87,
              "position": 3.5,
              "duration": 0.4895833333333333
            }
          ]
        }
      }
    },
    "Intro_B": {
      "type": "Intro_B",
      "sizeInBeats": 16,
      "channels": {
        "1": {
          "ctab": {
            "srcChannel": 1,
            "name": "Bass",
            "accType": "BASS",
            "editable": false,
            "mutedNotes": [],
            "mutedChords": [
              "1+2+5",
              "sus4",
              "1+5",
              "1+8",
              "7aug",
              "Maj7aug",
              "7(#9)",
              "7(b13)",
              "7(b9)",
              "7(13)",
              "7#11",
              "7(9)",
              "7b5",
              "7sus4",
              "7th",
              "aug",
              "Maj6(9)",
              "Maj7(9)",
              "Maj(9)",
              "Maj7#11",
              "Maj7",
              "Maj6",
              "Maj"
            ],
            "autoStart": false,
            "sourceChordNote": 0,
            "sourceChordType": "min",
            "ctb2Low": null,
            "ctb2Main": {
              "ntr": "ROOT_TRANSPOSITION",
              "ntt": "BYPASS",
              "bassOn": false,
              "chordRootUpperLimit": 8,
              "noteLowLimit": 28,
              "noteHighLimit": 127,
              "rtr": "PITCH_SHIFT"
            },
            "ctb2High": null
          },
          "notes": [
            {
              "pitch": 24,
              "velocity": 70,
              "position": 0,
              "duration": 0.4895833333333333
            },
            {
              "pitch": 36,
              "velocity": 100,
              "position": 0.5,
              "duration": 0.15625
            },
            {
              "pitch": 27,
              "velocity": 70,
              "position": 5,
              "duration": 0.3229166666666667
            },
            {
              "pitch": 27,
              "velocity": 105,
              "position": 5.333333333333333,
              "duration": 0.14583333333333334
            },
            {
              "pitch": 29,
              "velocity": 70,
              "position": 5.5,
              "duration": 0.3229166666666667
            },
            {
              "pitch": 29,
              "velocity": 107,
              "position": 5.833333333333333,
              "duration": 0.13541666666666666
            },
            {
              "pitch": 30,
              "velocity": 70,
              "position": 6,
              "duration": 0.4895833333333333
            },
            {
              "pitch": 31,
              "velocity": 70,
              "position": 6.5,
              "duration": 0.15625
            },
            {
              "pitch": 31,
              "velocity": 105,
              "position": 6.666666666666667,
              "duration": 0.15625
            },
            {
              "pitch": 34,
              "velocity": 70,
              "position": 6.833333333333333,
              "duration": 0.3229166666666667
            },
            {
              "pitch": 48,
              "velocity": 70,
              "position": 7.833333333333333,
              "duration": 0.15625
            },
            {
              "pitch": 24,
              "velocity": 70,
              "position": 8,
              "duration": 0.3229166666666667
            },
            {
              "pitch": 36,
              "velocity": 70,
              "position": 8.333333333333334,
              "duration": 0.15625
            },
            {
              "pitch": 36,
              "velocity": 100,
              "position": 8.5,
              "duration": 0.15625
            },
            {
              "pitch": 34,
              "velocity": 100,
              "position": 10.833333333333334,
              "duration": 0.3229166666666667
            },
            {
              "pitch": 51,
              "velocity": 70,
              "position": 11.833333333333334,
              "duration": 0.15625
            },
            {
              "pitch": 27,
              "velocity": 70,
              "position": 12,
              "duration": 0.3229166666666667
            },
            {
              "pitch": 28,
              "velocity": 70,
              "position": 12.5,
              "duration": 0.3229166666666667
            },
            {
              "pitch": 29,
              "velocity": 70,
              "position": 13,
              "duration": 0.3229166666666667
            },
            {
              "pitch": 31,
              "velocity": 70,
              "position": 13.833333333333334,
              "duration": 0.15625
            },
            {
              "pitch": 34,
              "velocity": 70,
              "position": 14,
              "duration": 0.3229166666666667
            },
            {
              "pitch": 35,
              "velocity": 70,
              "position": 14.5,
              "duration": 0.3229166666666667
            },
            {
              "pitch": 36,
              "velocity": 70,
              "position": 15,
              "duration": 0.4895833333333333
            }
          ]
        },
        "2": {
          "ctab": {
            "srcChannel": 2,
            "name": "Clavi",
            "accType": "CHORD1",
            "editable": false,
            "mutedNotes": [],
            "mutedChords": [
              "1+2+5",
              "sus4",
              "1+5",
              "1+8",
              "7aug",
              "Maj7aug",
              "7(#9)",
              "7(b13)",
              "7(b9)",
              "7(13)",
              "7#11",
              "7(9)",
              "7b5",
              "7sus4",
              "7th",
              "aug",
              "Maj6(9)",
              "Maj7(9)",
              "Maj(9)",
              "Maj7#11",
              "Maj7",
              "Maj6",
              "Maj"
            ],
            "autoStart": false,
            "sourceChordNote": 0,
            "sourceChordType": "min",
            "ctb2Low": null,
            "ctb2Main": {
              "ntr": "ROOT_TRANSPOSITION",
              "ntt": "BYPASS",
              "bassOn": false,
              "chordRootUpperLimit": 10,
              "noteLowLimit": 0,
              "noteHighLimit": 127,
              "rtr": "PITCH_SHIFT"
            },
            "ctb2High": null
          },
          "notes": [
            {
              "pitch": 36,
              "velocity": 108,
              "position": 0.010416666666666666,
              "duration": 0.23958333333333334
            },
            {
              "pitch": 48,
              "velocity": 79,
              "position": 0.3333333333333333,
              "duration": 0.13541666666666666
            },
            {
              "pitch": 36,
              "velocity": 97,
              "position": 0.5,
              "duration": 0.23958333333333334
            },
            {
              "pitch": 48,
              "velocity": 97,
              "position": 0.8333333333333334,
              "duration": 0.08541666666666667
            },
            {
              "pitch": 54,
              "velocity": 107,
              "position": 1,
              "duration": 0.14583333333333334
            },
            {
              "pitch": 58,
              "velocity": 102,
              "position": 1,
              "duration": 0.2
            },
            {
              "pitch": 55,
              "velocity": 99,
              "position": 1.1666666666666667,
              "duration": 0.08541666666666667
            },
            {
              "pitch": 53,
              "velocity": 123,
              "position": 1.5,
              "duration": 0.20833333333333334
            },
            {
              "pitch": 57,
              "velocity": 114,
              "position": 1.5,
              "duration": 0.21875
            },
            {
              "pitch": 50,
              "velocity": 102,
              "position": 2,
              "duration": 0.08541666666666667
            },
            {
              "pitch": 55,
              "velocity": 105,
              "position": 2,
              "duration": 0.18958333333333333
            },
            {
              "pitch": 51,
              "velocity": 86,
              "position": 2.1666666666666665,
              "duration": 0.1875
            },
            {
              "pitch": 36,
              "velocity": 81,
              "position": 2.5,
              "duration": 0.08333333333333333
            },
            {
              "pitch": 46,
              "velocity": 107,
              "position": 2.8333333333333335,
              "duration": 0.17916666666666667
            },
            {
              "pitch": 48,
              "velocity": 117,
              "position": 3.3333333333333335,
              "duration": 0.11458333333333333
            },
            {
              "pitch": 36,
              "velocity": 89,
              "position": 3.8333333333333335,
              "duration": 0.09791666666666667
            },
            {
              "pitch": 46,
              "velocity": 86,
              "position": 4,
              "duration": 0.32708333333333334
            },
            {
              "pitch": 48,
              "velocity": 97,
              "position": 4.333333333333333,
              "duration": 0.08333333333333333
            },
            {
              "pitch": 51,
              "velocity": 89,
              "position": 4.5,
              "duration": 0.21041666666666667
            },
            {
              "pitch": 53,
              "velocity": 74,
              "position": 5,
              "duration": 0.14583333333333334
            },
            {
              "pitch": 27,
              "velocity": 95,
              "position": 5,
              "duration": 0.22083333333333333
            },
            {
              "pitch": 54,
              "velocity": 125,
              "position": 5.083333333333333,
              "duration": 0.20833333333333334
            },
            {
              "pitch": 40,
              "velocity": 71,
              "position": 5.333333333333333,
              "duration": 0.13541666666666666
            },
            {
              "pitch": 52,
              "velocity": 74,
              "position": 5.5,
              "duration": 0.14583333333333334
            },
            {
              "pitch": 29,
              "velocity": 119,
              "position": 5.5,
              "duration": 0.19791666666666666
            },
            {
              "pitch": 53,
              "velocity": 110,
              "position": 5.583333333333333,
              "duration": 0.22916666666666666
            },
            {
              "pitch": 30,
              "velocity": 102,
              "position": 6,
              "duration": 0.23958333333333334
            },
            {
              "pitch": 51,
              "velocity": 107,
              "position": 6,
              "duration": 0.2520833333333333
            },
            {
              "pitch": 31,
              "velocity": 54,
              "position": 6.5,
              "duration": 0.09583333333333334
            },
            {
              "pitch": 34,
              "velocity": 119,
              "position": 6.833333333333333,
              "duration": 0.22916666666666666
            },
            {
              "pitch": 46,
              "velocity": 86,
              "position": 7,
              "duration": 0.2125
            },
            {
              "pitch": 48,
              "velocity": 107,
              "position": 7.333333333333333,
              "duration": 0.1875
            },
            {
              "pitch": 48,
              "velocity": 117,
              "position": 7.833333333333333,
              "duration": 0.13541666666666666
            },
            {
              "pitch": 24,
              "velocity": 107,
              "position": 8,
              "duration": 0.2604166666666667
            },
            {
              "pitch": 48,
              "velocity": 105,
              "position": 8.333333333333334,
              "duration": 0.125
            },
            {
              "pitch": 36,
              "velocity": 117,
              "position": 8.5,
              "duration": 0.17708333333333334
            },
            {
              "pitch": 58,
              "velocity": 66,
              "position": 9,
              "duration": 0.16666666666666666
            },
            {
              "pitch": 54,
              "velocity": 127,
              "position": 9,
              "duration": 0.17708333333333334
            },
            {
              "pitch": 55,
              "velocity": 100,
              "position": 9.166666666666666,
              "duration": 0.10416666666666667
            },
            {
              "pitch": 53,
              "velocity": 114,
              "position": 9.5,
              "duration": 0.16666666666666666
            },
            {
              "pitch": 57,
              "velocity": 126,
              "position": 9.5,
              "duration": 0.19791666666666666
            },
            {
              "pitch": 50,
              "velocity": 114,
              "position": 10,
              "duration": 0.07708333333333334
            },
            {
              "pitch": 55,
              "velocity": 117,
              "position": 10,
              "duration": 0.19791666666666666
            },
            {
              "pitch": 51,
              "velocity": 81,
              "position": 10.166666666666666,
              "duration": 0.16041666666666668
            },
            {
              "pitch": 39,
              "velocity": 66,
              "position": 10.5,
              "duration": 0.0625
            },
            {
              "pitch": 46,
              "velocity": 114,
              "position": 10.833333333333334,
              "duration": 0.16666666666666666
            },
            {
              "pitch": 48,
              "velocity": 102,
              "position": 11.333333333333334,
              "duration": 0.11458333333333333
            },
            {
              "pitch": 40,
              "velocity": 105,
              "position": 11.833333333333334,
              "duration": 0.15625
            },
            {
              "pitch": 48,
              "velocity": 95,
              "position": 12,
              "duration": 0.11458333333333333
            },
            {
              "pitch": 51,
              "velocity": 47,
              "position": 12.166666666666666,
              "duration": 0.06666666666666667
            },
            {
              "pitch": 54,
              "velocity": 107,
              "position": 12.333333333333334,
              "duration": 0.11666666666666667
            },
            {
              "pitch": 53,
              "velocity": 114,
              "position": 12.5,
              "duration": 0.20833333333333334
            },
            {
              "pitch": 51,
              "velocity": 107,
              "position": 13,
              "duration": 0.19791666666666666
            },
            {
              "pitch": 48,
              "velocity": 112,
              "position": 13.333333333333334,
              "duration": 0.14583333333333334
            },
            {
              "pitch": 46,
              "velocity": 85,
              "position": 13.5,
              "duration": 0.20833333333333334
            },
            {
              "pitch": 31,
              "velocity": 102,
              "position": 13.833333333333334,
              "duration": 0.17708333333333334
            },
            {
              "pitch": 34,
              "velocity": 58,
              "position": 14,
              "duration": 0.05416666666666667
            },
            {
              "pitch": 46,
              "velocity": 127,
              "position": 14,
              "duration": 0.21875
            },
            {
              "pitch": 47,
              "velocity": 110,
              "position": 14.5,
              "duration": 0.22916666666666666
            },
            {
              "pitch": 35,
              "velocity": 114,
              "position": 14.5,
              "duration": 0.28125
            },
            {
              "pitch": 36,
              "velocity": 123,
              "position": 15,
              "duration": 0.23958333333333334
            },
            {
              "pitch": 48,
              "velocity": 126,
              "position": 15,
              "duration": 0.25
            },
            {
              "pitch": 47,
              "velocity": 55,
              "position": 15.325,
              "duration": 0.07083333333333333
            },
            {
              "pitch": 45,
              "velocity": 24,
              "position": 15.395833333333334,
              "duration": 0.0625
            }
          ]
        },
        "3": {
          "ctab": {
            "srcChannel": 3,
            "name": "SolidGtr",
            "accType": "CHORD2",
            "editable": false,
            "mutedNotes": [],
            "mutedChords": [
              "1+2+5",
              "sus4",
              "1+5",
              "1+8",
              "7aug",
              "Maj7aug",
              "7(#9)",
              "7(b13)",
              "7(b9)",
              "7(13)",
              "7#11",
              "7(9)",
              "7b5",
              "7sus4",
              "7th",
              "aug",
              "Maj6(9)",
              "Maj7(9)",
              "Maj(9)",
              "Maj7#11",
              "Maj7",
              "Maj6",
              "Maj"
            ],
            "autoStart": false,
            "sourceChordNote": 0,
            "sourceChordType": "min",
            "ctb2Low": null,
            "ctb2Main": {
              "ntr": "ROOT_TRANSPOSITION",
              "ntt": "BYPASS",
              "bassOn": false,
              "chordRootUpperLimit": 8,
              "noteLowLimit": 0,
              "noteHighLimit": 79,
              "rtr": "PITCH_SHIFT"
            },
            "ctb2High": null
          },
          "notes": [
            {
              "pitch": 119,
              "velocity": 66,
              "position": 0,
              "duration": 0.08333333333333333
            },
            {
              "pitch": 48,
              "velocity": 88,
              "position": 0,
              "duration": 0.16666666666666666
            },
            {
              "pitch": 118,
              "velocity": 66,
              "position": 0.5,
              "duration": 0.08333333333333333
            },
            {
              "pitch": 48,
              "velocity": 88,
              "position": 0.5,
              "duration": 0.16666666666666666
            },
            {
              "pitch": 109,
              "velocity": 50,
              "position": 0.8333333333333334,
              "duration": 0.15625
            },
            {
              "pitch": 58,
              "velocity": 55,
              "position": 1,
              "duration": 0.10416666666666667
            },
            {
              "pitch": 63,
              "velocity": 55,
              "position": 1.0104166666666667,
              "duration": 0.10416666666666667
            },
            {
              "pitch": 67,
              "velocity": 55,
              "position": 1.0208333333333333,
              "duration": 0.10416666666666667
            },
            {
              "pitch": 108,
              "velocity": 100,
              "position": 1,
              "duration": 0.15625
            },
            {
              "pitch": 105,
              "velocity": 95,
              "position": 2.8333333333333335,
              "duration": 0.15625
            },
            {
              "pitch": 58,
              "velocity": 55,
              "position": 3,
              "duration": 0.10416666666666667
            },
            {
              "pitch": 63,
              "velocity": 55,
              "position": 3.0104166666666665,
              "duration": 0.10416666666666667
            },
            {
              "pitch": 67,
              "velocity": 55,
              "position": 3.0208333333333335,
              "duration": 0.10416666666666667
            },
            {
              "pitch": 106,
              "velocity": 100,
              "position": 3,
              "duration": 0.15625
            },
            {
              "pitch": 123,
              "velocity": 95,
              "position": 3.3333333333333335,
              "duration": 0.3854166666666667
            },
            {
              "pitch": 118,
              "velocity": 65,
              "position": 3.8333333333333335,
              "duration": 0.08333333333333333
            },
            {
              "pitch": 55,
              "velocity": 87,
              "position": 3.8333333333333335,
              "duration": 0.16666666666666666
            },
            {
              "pitch": 119,
              "velocity": 63,
              "position": 4,
              "duration": 0.08333333333333333
            },
            {
              "pitch": 53,
              "velocity": 85,
              "position": 4,
              "duration": 0.16666666666666666
            },
            {
              "pitch": 118,
              "velocity": 48,
              "position": 4.333333333333333,
              "duration": 0.08333333333333333
            },
            {
              "pitch": 53,
              "velocity": 70,
              "position": 4.333333333333333,
              "duration": 0.15625
            },
            {
              "pitch": 119,
              "velocity": 63,
              "position": 4.5,
              "duration": 0.08333333333333333
            },
            {
              "pitch": 53,
              "velocity": 85,
              "position": 4.5,
              "duration": 0.16666666666666666
            },
            {
              "pitch": 109,
              "velocity": 62,
              "position": 4.833333333333333,
              "duration": 0.15625
            },
            {
              "pitch": 57,
              "velocity": 55,
              "position": 5,
              "duration": 0.10416666666666667
            },
            {
              "pitch": 63,
              "velocity": 55,
              "position": 5.010416666666667,
              "duration": 0.10416666666666667
            },
            {
              "pitch": 65,
              "velocity": 55,
              "position": 5.020833333333333,
              "duration": 0.10416666666666667
            },
            {
              "pitch": 108,
              "velocity": 100,
              "position": 5,
              "duration": 0.15625
            },
            {
              "pitch": 105,
              "velocity": 95,
              "position": 6.833333333333333,
              "duration": 0.15625
            },
            {
              "pitch": 57,
              "velocity": 55,
              "position": 7,
              "duration": 0.10416666666666667
            },
            {
              "pitch": 63,
              "velocity": 55,
              "position": 7.010416666666667,
              "duration": 0.10416666666666667
            },
            {
              "pitch": 65,
              "velocity": 55,
              "position": 7.020833333333333,
              "duration": 0.10416666666666667
            },
            {
              "pitch": 106,
              "velocity": 100,
              "position": 7,
              "duration": 0.15625
            },
            {
              "pitch": 124,
              "velocity": 95,
              "position": 7.333333333333333,
              "duration": 0.4166666666666667
            },
            {
              "pitch": 118,
              "velocity": 66,
              "position": 8,
              "duration": 0.08333333333333333
            },
            {
              "pitch": 48,
              "velocity": 88,
              "position": 8,
              "duration": 0.16666666666666666
            },
            {
              "pitch": 119,
              "velocity": 66,
              "position": 8.5,
              "duration": 0.08333333333333333
            },
            {
              "pitch": 48,
              "velocity": 88,
              "position": 8.5,
              "duration": 0.16666666666666666
            },
            {
              "pitch": 109,
              "velocity": 50,
              "position": 8.833333333333334,
              "duration": 0.15625
            },
            {
              "pitch": 58,
              "velocity": 55,
              "position": 9,
              "duration": 0.10416666666666667
            },
            {
              "pitch": 63,
              "velocity": 55,
              "position": 9.010416666666666,
              "duration": 0.10416666666666667
            },
            {
              "pitch": 67,
              "velocity": 55,
              "position": 9.020833333333334,
              "duration": 0.10416666666666667
            },
            {
              "pitch": 108,
              "velocity": 100,
              "position": 9,
              "duration": 0.15625
            },
            {
              "pitch": 105,
              "velocity": 95,
              "position": 10.833333333333334,
              "duration": 0.15625
            },
            {
              "pitch": 58,
              "velocity": 55,
              "position": 11,
              "duration": 0.10416666666666667
            },
            {
              "pitch": 63,
              "velocity": 55,
              "position": 11.010416666666666,
              "duration": 0.10416666666666667
            },
            {
              "pitch": 67,
              "velocity": 55,
              "position": 11.020833333333334,
              "duration": 0.10416666666666667
            },
            {
              "pitch": 106,
              "velocity": 100,
              "position": 11,
              "duration": 0.15625
            },
            {
              "pitch": 119,
              "velocity": 65,
              "position": 11.833333333333334,
              "duration": 0.08333333333333333
            },
            {
              "pitch": 55,
              "velocity": 87,
              "position": 11.833333333333334,
              "duration": 0.16666666666666666
            },
            {
              "pitch": 118,
              "velocity": 63,
              "position": 12,
              "duration": 0.08333333333333333
            },
            {
              "pitch": 119,
              "velocity": 48,
              "position": 12.333333333333334,
              "duration": 0.08333333333333333
            },
            {
              "pitch": 118,
              "velocity": 63,
              "position": 12.5,
              "duration": 0.08333333333333333
            },
            {
              "pitch": 109,
              "velocity": 62,
              "position": 12.833333333333334,
              "duration": 0.15625
            },
            {
              "pitch": 57,
              "velocity": 55,
              "position": 13,
              "duration": 0.10416666666666667
            },
            {
              "pitch": 63,
              "velocity": 55,
              "position": 13.010416666666666,
              "duration": 0.10416666666666667
            },
            {
              "pitch": 65,
              "velocity": 55,
              "position": 13.020833333333334,
              "duration": 0.10416666666666667
            },
            {
              "pitch": 108,
              "velocity": 100,
              "position": 13,
              "duration": 0.15625
            },
            {
              "pitch": 121,
              "velocity": 95,
              "position": 13.583333333333334,
              "duration": 0.4166666666666667
            },
            {
              "pitch": 100,
              "velocity": 85,
              "position": 14,
              "duration": 0.15625
            },
            {
              "pitch": 56,
              "velocity": 52,
              "position": 14,
              "duration": 0.4375
            },
            {
              "pitch": 62,
              "velocity": 52,
              "position": 14.010416666666666,
              "duration": 0.4375
            },
            {
              "pitch": 65,
              "velocity": 52,
              "position": 14.020833333333334,
              "duration": 0.4375
            },
            {
              "pitch": 125,
              "velocity": 95,
              "position": 14.375,
              "duration": 0.125
            },
            {
              "pitch": 106,
              "velocity": 100,
              "position": 14.5,
              "duration": 0.15625
            },
            {
              "pitch": 57,
              "velocity": 52,
              "position": 14.5,
              "duration": 0.4375
            },
            {
              "pitch": 63,
              "velocity": 52,
              "position": 14.510416666666666,
              "duration": 0.4375
            },
            {
              "pitch": 66,
              "velocity": 52,
              "position": 14.520833333333334,
              "duration": 0.4375
            },
            {
              "pitch": 122,
              "velocity": 95,
              "position": 14.895833333333334,
              "duration": 0.125
            },
            {
              "pitch": 108,
              "velocity": 100,
              "position": 15,
              "duration": 0.15625
            },
            {
              "pitch": 58,
              "velocity": 58,
              "position": 15,
              "duration": 0.3541666666666667
            },
            {
              "pitch": 63,
              "velocity": 58,
              "position": 15.010416666666666,
              "duration": 0.3541666666666667
            },
            {
              "pitch": 67,
              "velocity": 58,
              "position": 15.020833333333334,
              "duration": 0.3541666666666667
            }
          ]
        },
        "4": {
          "ctab": {
            "srcChannel": 4,
            "name": "E.Piano",
            "accType": "PAD",
            "editable": false,
            "mutedNotes": [],
            "mutedChords": [
              "1+2+5",
              "sus4",
              "1+5",
              "1+8",
              "7aug",
              "Maj7aug",
              "7(#9)",
              "7(b13)",
              "7(b9)",
              "7(13)",
              "7#11",
              "7(9)",
              "7b5",
              "7sus4",
              "7th",
              "aug",
              "Maj6(9)",
              "Maj7(9)",
              "Maj(9)",
              "Maj7#11",
              "Maj7",
              "Maj6",
              "Maj"
            ],
            "autoStart": false,
            "sourceChordNote": 0,
            "sourceChordType": "min",
            "ctb2Low": null,
            "ctb2Main": {
              "ntr": "ROOT_TRANSPOSITION",
              "ntt": "BYPASS",
              "bassOn": false,
              "chordRootUpperLimit": 8,
              "noteLowLimit": 54,
              "noteHighLimit": 65,
              "rtr": "PITCH_SHIFT"
            },
            "ctb2High": null
          },
          "notes": [
            {
              "pitch": 55,
              "velocity": 83,
              "position": 0,
              "duration": 0.16666666666666666
            },
            {
              "pitch": 63,
              "velocity": 101,
              "position": 0,
              "duration": 0.16666666666666666
            },
            {
              "pitch": 60,
              "velocity": 101,
              "position": 0,
              "duration": 0.16666666666666666
            },
            {
              "pitch": 58,
              "velocity": 98,
              "position": 0,
              "duration": 0.16666666666666666
            },
            {
              "pitch": 55,
              "velocity": 77,
              "position": 0.5,
              "duration": 0.16666666666666666
            },
            {
              "pitch": 63,
              "velocity": 67,
              "position": 0.5,
              "duration": 0.16666666666666666
            },
            {
              "pitch": 60,
              "velocity": 28,
              "position": 0.5,
              "duration": 0.16666666666666666
            },
            {
              "pitch": 58,
              "velocity": 82,
              "position": 0.5,
              "duration": 0.16666666666666666
            },
            {
              "pitch": 55,
              "velocity": 101,
              "position": 1,
              "duration": 0.16666666666666666
            },
            {
              "pitch": 63,
              "velocity": 91,
              "position": 1,
              "duration": 0.16666666666666666
            },
            {
              "pitch": 60,
              "velocity": 93,
              "position": 1,
              "duration": 0.16666666666666666
            },
            {
              "pitch": 58,
              "velocity": 105,
              "position": 1,
              "duration": 0.16666666666666666
            },
            {
              "pitch": 55,
              "velocity": 64,
              "position": 1.5,
              "duration": 0.16666666666666666
            },
            {
              "pitch": 63,
              "velocity": 46,
              "position": 1.5,
              "duration": 0.16666666666666666
            },
            {
              "pitch": 60,
              "velocity": 49,
              "position": 1.5,
              "duration": 0.16666666666666666
            },
            {
              "pitch": 58,
              "velocity": 49,
              "position": 1.5,
              "duration": 0.16666666666666666
            },
            {
              "pitch": 55,
              "velocity": 91,
              "position": 2,
              "duration": 0.16666666666666666
            },
            {
              "pitch": 63,
              "velocity": 80,
              "position": 2,
              "duration": 0.16666666666666666
            },
            {
              "pitch": 60,
              "velocity": 69,
              "position": 2,
              "duration": 0.16666666666666666
            },
            {
              "pitch": 58,
              "velocity": 88,
              "position": 2,
              "duration": 0.16666666666666666
            },
            {
              "pitch": 55,
              "velocity": 61,
              "position": 2.5,
              "duration": 0.16666666666666666
            },
            {
              "pitch": 63,
              "velocity": 48,
              "position": 2.5,
              "duration": 0.16666666666666666
            },
            {
              "pitch": 60,
              "velocity": 38,
              "position": 2.5,
              "duration": 0.16666666666666666
            },
            {
              "pitch": 58,
              "velocity": 70,
              "position": 2.5,
              "duration": 0.16666666666666666
            },
            {
              "pitch": 55,
              "velocity": 103,
              "position": 3,
              "duration": 0.16666666666666666
            },
            {
              "pitch": 63,
              "velocity": 103,
              "position": 3,
              "duration": 0.16666666666666666
            },
            {
              "pitch": 60,
              "velocity": 103,
              "position": 3,
              "duration": 0.16666666666666666
            },
            {
              "pitch": 58,
              "velocity": 103,
              "position": 3,
              "duration": 0.16666666666666666
            },
            {
              "pitch": 55,
              "velocity": 86,
              "position": 3.5,
              "duration": 0.16666666666666666
            },
            {
              "pitch": 63,
              "velocity": 48,
              "position": 3.5,
              "duration": 0.16666666666666666
            },
            {
              "pitch": 60,
              "velocity": 49,
              "position": 3.5,
              "duration": 0.16666666666666666
            },
            {
              "pitch": 58,
              "velocity": 88,
              "position": 3.5,
              "duration": 0.16666666666666666
            },
            {
              "pitch": 53,
              "velocity": 86,
              "position": 4,
              "duration": 0.16666666666666666
            },
            {
              "pitch": 63,
              "velocity": 70,
              "position": 4,
              "duration": 0.16666666666666666
            },
            {
              "pitch": 60,
              "velocity": 77,
              "position": 4,
              "duration": 0.16666666666666666
            },
            {
              "pitch": 57,
              "velocity": 88,
              "position": 4,
              "duration": 0.16666666666666666
            },
            {
              "pitch": 53,
              "velocity": 72,
              "position": 4.5,
              "duration": 0.16666666666666666
            },
            {
              "pitch": 63,
              "velocity": 57,
              "position": 4.5,
              "duration": 0.16666666666666666
            },
            {
              "pitch": 60,
              "velocity": 40,
              "position": 4.5,
              "duration": 0.16666666666666666
            },
            {
              "pitch": 57,
              "velocity": 62,
              "position": 4.5,
              "duration": 0.16666666666666666
            },
            {
              "pitch": 53,
              "velocity": 103,
              "position": 5,
              "duration": 0.16666666666666666
            },
            {
              "pitch": 63,
              "velocity": 67,
              "position": 5,
              "duration": 0.16666666666666666
            },
            {
              "pitch": 60,
              "velocity": 77,
              "position": 5,
              "duration": 0.16666666666666666
            },
            {
              "pitch": 57,
              "velocity": 96,
              "position": 5,
              "duration": 0.16666666666666666
            },
            {
              "pitch": 53,
              "velocity": 49,
              "position": 5.5,
              "duration": 0.16666666666666666
            },
            {
              "pitch": 63,
              "velocity": 48,
              "position": 5.5,
              "duration": 0.16666666666666666
            },
            {
              "pitch": 60,
              "velocity": 40,
              "position": 5.5,
              "duration": 0.16666666666666666
            },
            {
              "pitch": 57,
              "velocity": 59,
              "position": 5.5,
              "duration": 0.16666666666666666
            },
            {
              "pitch": 53,
              "velocity": 77,
              "position": 6,
              "duration": 0.16666666666666666
            },
            {
              "pitch": 63,
              "velocity": 67,
              "position": 6,
              "duration": 0.16666666666666666
            },
            {
              "pitch": 60,
              "velocity": 62,
              "position": 6,
              "duration": 0.16666666666666666
            },
            {
              "pitch": 57,
              "velocity": 82,
              "position": 6,
              "duration": 0.16666666666666666
            },
            {
              "pitch": 53,
              "velocity": 70,
              "position": 6.5,
              "duration": 0.16666666666666666
            },
            {
              "pitch": 63,
              "velocity": 54,
              "position": 6.5,
              "duration": 0.16666666666666666
            },
            {
              "pitch": 60,
              "velocity": 40,
              "position": 6.5,
              "duration": 0.16666666666666666
            },
            {
              "pitch": 57,
              "velocity": 69,
              "position": 6.5,
              "duration": 0.16666666666666666
            },
            {
              "pitch": 53,
              "velocity": 103,
              "position": 7,
              "duration": 0.16666666666666666
            },
            {
              "pitch": 63,
              "velocity": 103,
              "position": 7,
              "duration": 0.16666666666666666
            },
            {
              "pitch": 60,
              "velocity": 103,
              "position": 7,
              "duration": 0.16666666666666666
            },
            {
              "pitch": 57,
              "velocity": 103,
              "position": 7,
              "duration": 0.16666666666666666
            },
            {
              "pitch": 53,
              "velocity": 73,
              "position": 7.5,
              "duration": 0.16666666666666666
            },
            {
              "pitch": 63,
              "velocity": 53,
              "position": 7.5,
              "duration": 0.16666666666666666
            },
            {
              "pitch": 60,
              "velocity": 45,
              "position": 7.5,
              "duration": 0.16666666666666666
            },
            {
              "pitch": 57,
              "velocity": 67,
              "position": 7.5,
              "duration": 0.16666666666666666
            },
            {
              "pitch": 55,
              "velocity": 77,
              "position": 8,
              "duration": 0.16666666666666666
            },
            {
              "pitch": 63,
              "velocity": 77,
              "position": 8,
              "duration": 0.16666666666666666
            },
            {
              "pitch": 60,
              "velocity": 77,
              "position": 8,
              "duration": 0.16666666666666666
            },
            {
              "pitch": 58,
              "velocity": 77,
              "position": 8,
              "duration": 0.16666666666666666
            },
            {
              "pitch": 55,
              "velocity": 58,
              "position": 8.5,
              "duration": 0.16666666666666666
            },
            {
              "pitch": 63,
              "velocity": 58,
              "position": 8.5,
              "duration": 0.16666666666666666
            },
            {
              "pitch": 60,
              "velocity": 58,
              "position": 8.5,
              "duration": 0.16666666666666666
            },
            {
              "pitch": 58,
              "velocity": 58,
              "position": 8.5,
              "duration": 0.16666666666666666
            },
            {
              "pitch": 55,
              "velocity": 95,
              "position": 9,
              "duration": 0.16666666666666666
            },
            {
              "pitch": 63,
              "velocity": 95,
              "position": 9,
              "duration": 0.16666666666666666
            },
            {
              "pitch": 60,
              "velocity": 95,
              "position": 9,
              "duration": 0.16666666666666666
            },
            {
              "pitch": 58,
              "velocity": 95,
              "position": 9,
              "duration": 0.16666666666666666
            },
            {
              "pitch": 55,
              "velocity": 49,
              "position": 9.5,
              "duration": 0.16666666666666666
            },
            {
              "pitch": 63,
              "velocity": 49,
              "position": 9.5,
              "duration": 0.16666666666666666
            },
            {
              "pitch": 60,
              "velocity": 49,
              "position": 9.5,
              "duration": 0.16666666666666666
            },
            {
              "pitch": 58,
              "velocity": 49,
              "position": 9.5,
              "duration": 0.16666666666666666
            },
            {
              "pitch": 55,
              "velocity": 82,
              "position": 10,
              "duration": 0.16666666666666666
            },
            {
              "pitch": 63,
              "velocity": 51,
              "position": 10,
              "duration": 0.16666666666666666
            },
            {
              "pitch": 60,
              "velocity": 53,
              "position": 10,
              "duration": 0.16666666666666666
            },
            {
              "pitch": 58,
              "velocity": 86,
              "position": 10,
              "duration": 0.16666666666666666
            },
            {
              "pitch": 55,
              "velocity": 54,
              "position": 10.5,
              "duration": 0.16666666666666666
            },
            {
              "pitch": 63,
              "velocity": 54,
              "position": 10.5,
              "duration": 0.16666666666666666
            },
            {
              "pitch": 60,
              "velocity": 54,
              "position": 10.5,
              "duration": 0.16666666666666666
            },
            {
              "pitch": 58,
              "velocity": 54,
              "position": 10.5,
              "duration": 0.16666666666666666
            },
            {
              "pitch": 55,
              "velocity": 101,
              "position": 11,
              "duration": 0.16666666666666666
            },
            {
              "pitch": 63,
              "velocity": 101,
              "position": 11,
              "duration": 0.16666666666666666
            },
            {
              "pitch": 60,
              "velocity": 101,
              "position": 11,
              "duration": 0.16666666666666666
            },
            {
              "pitch": 58,
              "velocity": 101,
              "position": 11,
              "duration": 0.16666666666666666
            },
            {
              "pitch": 55,
              "velocity": 82,
              "position": 11.5,
              "duration": 0.16666666666666666
            },
            {
              "pitch": 63,
              "velocity": 88,
              "position": 11.5,
              "duration": 0.16666666666666666
            },
            {
              "pitch": 60,
              "velocity": 59,
              "position": 11.5,
              "duration": 0.16666666666666666
            },
            {
              "pitch": 58,
              "velocity": 82,
              "position": 11.5,
              "duration": 0.16666666666666666
            },
            {
              "pitch": 55,
              "velocity": 76,
              "position": 12,
              "duration": 0.16666666666666666
            },
            {
              "pitch": 63,
              "velocity": 72,
              "position": 12,
              "duration": 0.16666666666666666
            },
            {
              "pitch": 60,
              "velocity": 67,
              "position": 12,
              "duration": 0.16666666666666666
            },
            {
              "pitch": 58,
              "velocity": 86,
              "position": 12,
              "duration": 0.16666666666666666
            },
            {
              "pitch": 55,
              "velocity": 88,
              "position": 12.5,
              "duration": 0.16666666666666666
            },
            {
              "pitch": 63,
              "velocity": 91,
              "position": 12.5,
              "duration": 0.16666666666666666
            },
            {
              "pitch": 60,
              "velocity": 80,
              "position": 12.5,
              "duration": 0.16666666666666666
            },
            {
              "pitch": 58,
              "velocity": 91,
              "position": 12.5,
              "duration": 0.16666666666666666
            },
            {
              "pitch": 53,
              "velocity": 91,
              "position": 13,
              "duration": 0.16666666666666666
            },
            {
              "pitch": 63,
              "velocity": 82,
              "position": 13,
              "duration": 0.16666666666666666
            },
            {
              "pitch": 60,
              "velocity": 96,
              "position": 13,
              "duration": 0.16666666666666666
            },
            {
              "pitch": 57,
              "velocity": 96,
              "position": 13,
              "duration": 0.16666666666666666
            },
            {
              "pitch": 53,
              "velocity": 59,
              "position": 13.5,
              "duration": 0.16666666666666666
            },
            {
              "pitch": 63,
              "velocity": 53,
              "position": 13.5,
              "duration": 0.16666666666666666
            },
            {
              "pitch": 60,
              "velocity": 44,
              "position": 13.5,
              "duration": 0.16666666666666666
            },
            {
              "pitch": 57,
              "velocity": 49,
              "position": 13.5,
              "duration": 0.16666666666666666
            },
            {
              "pitch": 53,
              "velocity": 104,
              "position": 14,
              "duration": 0.3333333333333333
            },
            {
              "pitch": 62,
              "velocity": 91,
              "position": 14,
              "duration": 0.3333333333333333
            },
            {
              "pitch": 58,
              "velocity": 95,
              "position": 14,
              "duration": 0.3333333333333333
            },
            {
              "pitch": 56,
              "velocity": 95,
              "position": 14,
              "duration": 0.3333333333333333
            },
            {
              "pitch": 54,
              "velocity": 88,
              "position": 14.5,
              "duration": 0.3333333333333333
            },
            {
              "pitch": 63,
              "velocity": 78,
              "position": 14.5,
              "duration": 0.3333333333333333
            },
            {
              "pitch": 59,
              "velocity": 46,
              "position": 14.5,
              "duration": 0.3333333333333333
            },
            {
              "pitch": 57,
              "velocity": 46,
              "position": 14.5,
              "duration": 0.3333333333333333
            },
            {
              "pitch": 55,
              "velocity": 104,
              "position": 15,
              "duration": 0.3333333333333333
            },
            {
              "pitch": 63,
              "velocity": 100,
              "position": 15,
              "duration": 0.3333333333333333
            },
            {
              "pitch": 60,
              "velocity": 98,
              "position": 15,
              "duration": 0.3333333333333333
            },
            {
              "pitch": 58,
              "velocity": 95,
              "position": 15,
              "duration": 0.3333333333333333
            }
          ]
        },
        "5": {
          "ctab": {
            "srcChannel": 5,
            "name": "TenorSax",
            "accType": "PHRASE1",
            "editable": false,
            "mutedNotes": [],
            "mutedChords": [
              "1+2+5",
              "sus4",
              "1+5",
              "1+8",
              "7aug",
              "Maj7aug",
              "7(#9)",
              "7(b13)",
              "7(b9)",
              "7(13)",
              "7#11",
              "7(9)",
              "7b5",
              "7sus4",
              "7th",
              "aug",
              "Maj6(9)",
              "Maj7(9)",
              "Maj(9)",
              "Maj7#11",
              "Maj7",
              "Maj6",
              "Maj"
            ],
            "autoStart": false,
            "sourceChordNote": 0,
            "sourceChordType": "min",
            "ctb2Low": null,
            "ctb2Main": {
              "ntr": "ROOT_TRANSPOSITION",
              "ntt": "BYPASS",
              "bassOn": false,
              "chordRootUpperLimit": 8,
              "noteLowLimit": 0,
              "noteHighLimit": 127,
              "rtr": "PITCH_SHIFT"
            },
            "ctb2High": null
          },
          "notes": []
        },
        "6": {
          "ctab": {
            "srcChannel": 6,
            "name": "Brass",
            "accType": "PHRASE2",
            "editable": false,
            "mutedNotes": [],
            "mutedChords": [
              "1+2+5",
              "sus4",
              "1+5",
              "1+8",
              "7aug",
              "Maj7aug",
              "7(#9)",
              "7(b13)",
              "7(b9)",
              "7(13)",
              "7#11",
              "7(9)",
              "7b5",
              "7sus4",
              "7th",
              "aug",
              "Maj6(9)",
              "Maj7(9)",
              "Maj(9)",
              "Maj7#11",
              "Maj7",
              "Maj6",
              "Maj"
            ],
            "autoStart": false,
            "sourceChordNote": 0,
            "sourceChordType": "min",
            "ctb2Low": null,
            "ctb2Main": {
              "ntr": "ROOT_TRANSPOSITION",
              "ntt": "BYPASS",
              "bassOn": false,
              "chordRootUpperLimit": 5,
              "noteLowLimit": 0,
              "noteHighLimit": 127,
              "rtr": "PITCH_SHIFT"
            },
            "ctb2High": null
          },
          "notes": []
        },
        "8": {
          "ctab": {
            "srcChannel": 8,
            "name": "AddDrum",
            "accType": "SUBRHYTHM",
            "editable": false,
            "mutedNotes": [],
            "mutedChords": [],
            "autoStart": true,
            "sourceChordNote": 0,
            "sourceChordType": "Maj7",
            "ctb2Low": null,
            "ctb2Main": {
              "ntr": "ROOT_FIXED",
              "ntt": "BYPASS",
              "bassOn": false,
              "chordRootUpperLimit": 6,
              "noteLowLimit": 0,
              "noteHighLimit": 127,
              "rtr": "PITCH_SHIFT"
            },
            "ctb2High": null
          },
          "notes": [
            {
              "pitch": 69,
              "velocity": 41,
              "position": 0,
              "duration": 0.010416666666666666
            },
            {
              "pitch": 69,
              "velocity": 64,
              "position": 0.5,
              "duration": 0.010416666666666666
            },
            {
              "pitch": 69,
              "velocity": 41,
              "position": 1,
              "duration": 0.010416666666666666
            },
            {
              "pitch": 69,
              "velocity": 64,
              "position": 1.5,
              "duration": 0.010416666666666666
            },
            {
              "pitch": 69,
              "velocity": 41,
              "position": 2,
              "duration": 0.010416666666666666
            },
            {
              "pitch": 69,
              "velocity": 64,
              "position": 2.5,
              "duration": 0.010416666666666666
            },
            {
              "pitch": 69,
              "velocity": 41,
              "position": 3,
              "duration": 0.010416666666666666
            },
            {
              "pitch": 69,
              "velocity": 64,
              "position": 3.5,
              "duration": 0.010416666666666666
            },
            {
              "pitch": 69,
              "velocity": 33,
              "position": 3.8333333333333335,
              "duration": 0.010416666666666666
            },
            {
              "pitch": 69,
              "velocity": 41,
              "position": 4,
              "duration": 0.010416666666666666
            },
            {
              "pitch": 69,
              "velocity": 64,
              "position": 4.5,
              "duration": 0.010416666666666666
            },
            {
              "pitch": 69,
              "velocity": 41,
              "position": 5,
              "duration": 0.010416666666666666
            },
            {
              "pitch": 69,
              "velocity": 64,
              "position": 5.5,
              "duration": 0.010416666666666666
            },
            {
              "pitch": 69,
              "velocity": 41,
              "position": 6,
              "duration": 0.010416666666666666
            },
            {
              "pitch": 69,
              "velocity": 64,
              "position": 6.5,
              "duration": 0.010416666666666666
            },
            {
              "pitch": 69,
              "velocity": 41,
              "position": 7,
              "duration": 0.010416666666666666
            },
            {
              "pitch": 69,
              "velocity": 64,
              "position": 7.5,
              "duration": 0.010416666666666666
            },
            {
              "pitch": 69,
              "velocity": 33,
              "position": 7.833333333333333,
              "duration": 0.010416666666666666
            },
            {
              "pitch": 69,
              "velocity": 41,
              "position": 8,
              "duration": 0.010416666666666666
            },
            {
              "pitch": 69,
              "velocity": 64,
              "position": 8.5,
              "duration": 0.010416666666666666
            },
            {
              "pitch": 69,
              "velocity": 41,
              "position": 9,
              "duration": 0.010416666666666666
            },
            {
              "pitch": 69,
              "velocity": 64,
              "position": 9.5,
              "duration": 0.010416666666666666
            },
            {
              "pitch": 69,
              "velocity": 41,
              "position": 10,
              "duration": 0.010416666666666666
            },
            {
              "pitch": 69,
              "velocity": 64,
              "position": 10.5,
              "duration": 0.010416666666666666
            },
            {
              "pitch": 69,
              "velocity": 41,
              "position": 11,
              "duration": 0.010416666666666666
            },
            {
              "pitch": 69,
              "velocity": 64,
              "position": 11.5,
              "duration": 0.010416666666666666
            },
            {
              "pitch": 69,
              "velocity": 33,
              "position": 11.833333333333334,
              "duration": 0.010416666666666666
            },
            {
              "pitch": 69,
              "velocity": 41,
              "position": 12,
              "duration": 0.010416666666666666
            },
            {
              "pitch": 69,
              "velocity": 64,
              "position": 12.5,
              "duration": 0.010416666666666666
            },
            {
              "pitch": 69,
              "velocity": 41,
              "position": 13,
              "duration": 0.010416666666666666
            },
            {
              "pitch": 69,
              "velocity": 64,
              "position": 13.5,
              "duration": 0.010416666666666666
            },
            {
              "pitch": 69,
              "velocity": 41,
              "position": 14,
              "duration": 0.010416666666666666
            },
            {
              "pitch": 69,
              "velocity": 64,
              "position": 14.5,
              "duration": 0.010416666666666666
            },
            {
              "pitch": 69,
              "velocity": 41,
              "position": 15,
              "duration": 0.010416666666666666
            },
            {
              "pitch": 69,
              "velocity": 64,
              "position": 15.5,
              "duration": 0.010416666666666666
            },
            {
              "pitch": 69,
              "velocity": 33,
              "position": 15.833333333333334,
              "duration": 0.010416666666666666
            }
          ]
        },
        "9": {
          "ctab": {
            "srcChannel": 9,
            "name": "MainDrum",
            "accType": "RHYTHM",
            "editable": false,
            "mutedNotes": [],
            "mutedChords": [],
            "autoStart": true,
            "sourceChordNote": 0,
            "sourceChordType": "Maj7",
            "ctb2Low": null,
            "ctb2Main": {
              "ntr": "ROOT_FIXED",
              "ntt": "BYPASS",
              "bassOn": false,
              "chordRootUpperLimit": 6,
              "noteLowLimit": 0,
              "noteHighLimit": 127,
              "rtr": "PITCH_SHIFT"
            },
            "ctb2High": null
          },
          "notes": [
            {
              "pitch": 35,
              "velocity": 90,
              "position": 0,
              "duration": 0.010416666666666666
            },
            {
              "pitch": 49,
              "velocity": 80,
              "position": 0,
              "duration": 0.010416666666666666
            },
            {
              "pitch": 42,
              "velocity": 120,
              "position": 0,
              "duration": 0.010416666666666666
            },
            {
              "pitch": 42,
              "velocity": 92,
              "position": 0.5,
              "duration": 0.010416666666666666
            },
            {
              "pitch": 40,
              "velocity": 114,
              "position": 1,
              "duration": 0.010416666666666666
            },
            {
              "pitch": 42,
              "velocity": 120,
              "position": 1,
              "duration": 0.010416666666666666
            },
            {
              "pitch": 42,
              "velocity": 98,
              "position": 1.5,
              "duration": 0.010416666666666666
            },
            {
              "pitch": 35,
              "velocity": 90,
              "position": 2,
              "duration": 0.010416666666666666
            },
            {
              "pitch": 42,
              "velocity": 120,
              "position": 2,
              "duration": 0.010416666666666666
            },
            {
              "pitch": 42,
              "velocity": 89,
              "position": 2.5,
              "duration": 0.010416666666666666
            },
            {
              "pitch": 40,
              "velocity": 114,
              "position": 3,
              "duration": 0.010416666666666666
            },
            {
              "pitch": 42,
              "velocity": 120,
              "position": 3,
              "duration": 0.010416666666666666
            },
            {
              "pitch": 42,
              "velocity": 94,
              "position": 3.5,
              "duration": 0.010416666666666666
            },
            {
              "pitch": 42,
              "velocity": 55,
              "position": 3.8333333333333335,
              "duration": 0.010416666666666666
            },
            {
              "pitch": 35,
              "velocity": 90,
              "position": 4,
              "duration": 0.010416666666666666
            },
            {
              "pitch": 42,
              "velocity": 120,
              "position": 4,
              "duration": 0.010416666666666666
            },
            {
              "pitch": 42,
              "velocity": 92,
              "position": 4.5,
              "duration": 0.010416666666666666
            },
            {
              "pitch": 40,
              "velocity": 114,
              "position": 5,
              "duration": 0.010416666666666666
            },
            {
              "pitch": 42,
              "velocity": 120,
              "position": 5,
              "duration": 0.010416666666666666
            },
            {
              "pitch": 42,
              "velocity": 98,
              "position": 5.5,
              "duration": 0.010416666666666666
            },
            {
              "pitch": 42,
              "velocity": 58,
              "position": 5.833333333333333,
              "duration": 0.010416666666666666
            },
            {
              "pitch": 35,
              "velocity": 90,
              "position": 6,
              "duration": 0.010416666666666666
            },
            {
              "pitch": 42,
              "velocity": 120,
              "position": 6,
              "duration": 0.010416666666666666
            },
            {
              "pitch": 42,
              "velocity": 52,
              "position": 6.333333333333333,
              "duration": 0.010416666666666666
            },
            {
              "pitch": 42,
              "velocity": 120,
              "position": 6.5,
              "duration": 0.010416666666666666
            },
            {
              "pitch": 40,
              "velocity": 114,
              "position": 7,
              "duration": 0.010416666666666666
            },
            {
              "pitch": 42,
              "velocity": 120,
              "position": 7,
              "duration": 0.010416666666666666
            },
            {
              "pitch": 42,
              "velocity": 94,
              "position": 7.5,
              "duration": 0.010416666666666666
            },
            {
              "pitch": 42,
              "velocity": 55,
              "position": 7.833333333333333,
              "duration": 0.010416666666666666
            },
            {
              "pitch": 35,
              "velocity": 90,
              "position": 8,
              "duration": 0.010416666666666666
            },
            {
              "pitch": 42,
              "velocity": 120,
              "position": 8,
              "duration": 0.010416666666666666
            },
            {
              "pitch": 42,
              "velocity": 92,
              "position": 8.5,
              "duration": 0.010416666666666666
            },
            {
              "pitch": 40,
              "velocity": 114,
              "position": 9,
              "duration": 0.010416666666666666
            },
            {
              "pitch": 42,
              "velocity": 120,
              "position": 9,
              "duration": 0.010416666666666666
            },
            {
              "pitch": 42,
              "velocity": 98,
              "position": 9.5,
              "duration": 0.010416666666666666
            },
            {
              "pitch": 42,
              "velocity": 58,
              "position": 9.833333333333334,
              "duration": 0.010416666666666666
            },
            {
              "pitch": 35,
              "velocity": 90,
              "position": 10,
              "duration": 0.010416666666666666
            },
            {
              "pitch": 42,
              "velocity": 120,
              "position": 10,
              "duration": 0.010416666666666666
            },
            {
              "pitch": 42,
              "velocity": 89,
              "position": 10.5,
              "duration": 0.010416666666666666
            },
            {
              "pitch": 40,
              "velocity": 114,
              "position": 11,
              "duration": 0.010416666666666666
            },
            {
              "pitch": 42,
              "velocity": 120,
              "position": 11,
              "duration": 0.010416666666666666
            },
            {
              "pitch": 42,
              "velocity": 94,
              "position": 11.5,
              "duration": 0.010416666666666666
            },
            {
              "pitch": 42,
              "velocity": 55,
              "position": 11.833333333333334,
              "duration": 0.010416666666666666
            },
            {
              "pitch": 35,
              "velocity": 90,
              "position": 12,
              "duration": 0.010416666666666666
            },
            {
              "pitch": 42,
              "velocity": 120,
              "position": 12,
              "duration": 0.010416666666666666
            },
            {
              "pitch": 42,
              "velocity": 92,
              "position": 12.5,
              "duration": 0.010416666666666666
            },
            {
              "pitch": 40,
              "velocity": 114,
              "position": 13,
              "duration": 0.010416666666666666
            },
            {
              "pitch": 42,
              "velocity": 120,
              "position": 13,
              "duration": 0.010416666666666666
            },
            {
              "pitch": 42,
              "velocity": 98,
              "position": 13.5,
              "duration": 0.010416666666666666
            },
            {
              "pitch": 42,
              "velocity": 58,
              "position": 13.833333333333334,
              "duration": 0.010416666666666666
            },
            {
              "pitch": 35,
              "velocity": 90,
              "position": 14,
              "duration": 0.010416666666666666
            },
            {
              "pitch": 42,
              "velocity": 120,
              "position": 14,
              "duration": 0.010416666666666666
            },
            {
              "pitch": 35,
              "velocity": 80,
              "position": 14.5,
              "duration": 0.010416666666666666
            },
            {
              "pitch": 42,
              "velocity": 89,
              "position": 14.5,
              "duration": 0.010416666666666666
            },
            {
              "pitch": 40,
              "velocity": 38,
              "position": 14.666666666666666,
              "duration": 0.010416666666666666
            },
            {
              "pitch": 40,
              "velocity": 53,
              "position": 14.833333333333334,
              "duration": 0.010416666666666666
            },
            {
              "pitch": 35,
              "velocity": 80,
              "position": 15,
              "duration": 0.010416666666666666
            },
            {
              "pitch": 42,
              "velocity": 120,
              "position": 15,
              "duration": 0.010416666666666666
            },
            {
              "pitch": 40,
              "velocity": 103,
              "position": 15,
              "duration": 0.010416666666666666
            },
            {
              "pitch": 40,
              "velocity": 90,
              "position": 15.333333333333334,
              "duration": 0.010416666666666666
            },
            {
              "pitch": 42,
              "velocity": 31,
              "position": 15.333333333333334,
              "duration": 0.010416666666666666
            },
            {
              "pitch": 42,
              "velocity": 94,
              "position": 15.5,
              "duration": 0.010416666666666666
            },
            {
              "pitch": 43,
              "velocity": 74,
              "position": 15.5,
              "duration": 0.010416666666666666
            },
            {
              "pitch": 42,
              "velocity": 55,
              "position": 15.833333333333334,
              "duration": 0.010416666666666666
            },
            {
              "pitch": 49,
              "velocity": 78,
              "position": 15.989583333333334,
              "duration": 0.010416666666666666
            }
          ]
        },
        "10": {
          "ctab": {
            "srcChannel": 10,
            "name": "Bass",
            "accType": "BASS",
            "editable": false,
            "mutedNotes": [],
            "mutedChords": [
              "dim7",
              "dim",
              "minMaj7(9)",
              "minMaj7",
              "min7(11)",
              "min7(9)",
              "min(9)",
              "m7b5",
              "min7",
              "min6",
              "min"
            ],
            "autoStart": false,
            "sourceChordNote": 0,
            "sourceChordType": "Maj",
            "ctb2Low": null,
            "ctb2Main": {
              "ntr": "ROOT_TRANSPOSITION",
              "ntt": "BYPASS",
              "bassOn": false,
              "chordRootUpperLimit": 8,
              "noteLowLimit": 28,
              "noteHighLimit": 127,
              "rtr": "PITCH_SHIFT"
            },
            "ctb2High": null
          },
          "notes": [
            {
              "pitch": 24,
              "velocity": 70,
              "position": 0,
              "duration": 0.4895833333333333
            },
            {
              "pitch": 48,
              "velocity": 120,
              "position": 0.5,
              "duration": 0.15625
            },
            {
              "pitch": 28,
              "velocity": 70,
              "position": 5,
              "duration": 0.3229166666666667
            },
            {
              "pitch": 28,
              "velocity": 105,
              "position": 5.333333333333333,
              "duration": 0.14583333333333334
            },
            {
              "pitch": 29,
              "velocity": 70,
              "position": 5.5,
              "duration": 0.3229166666666667
            },
            {
              "pitch": 29,
              "velocity": 107,
              "position": 5.833333333333333,
              "duration": 0.13541666666666666
            },
            {
              "pitch": 30,
              "velocity": 70,
              "position": 6,
              "duration": 0.4895833333333333
            },
            {
              "pitch": 31,
              "velocity": 70,
              "position": 6.5,
              "duration": 0.15625
            },
            {
              "pitch": 31,
              "velocity": 105,
              "position": 6.666666666666667,
              "duration": 0.15625
            },
            {
              "pitch": 34,
              "velocity": 70,
              "position": 6.833333333333333,
              "duration": 0.3229166666666667
            },
            {
              "pitch": 36,
              "velocity": 44,
              "position": 7.833333333333333,
              "duration": 0.15625
            },
            {
              "pitch": 24,
              "velocity": 70,
              "position": 8,
              "duration": 0.3229166666666667
            },
            {
              "pitch": 36,
              "velocity": 70,
              "position": 8.333333333333334,
              "duration": 0.15625
            },
            {
              "pitch": 36,
              "velocity": 100,
              "position": 8.5,
              "duration": 0.15625
            },
            {
              "pitch": 46,
              "velocity": 110,
              "position": 10.833333333333334,
              "duration": 0.3229166666666667
            },
            {
              "pitch": 40,
              "velocity": 70,
              "position": 11.833333333333334,
              "duration": 0.15625
            },
            {
              "pitch": 28,
              "velocity": 70,
              "position": 12,
              "duration": 0.3229166666666667
            },
            {
              "pitch": 29,
              "velocity": 70,
              "position": 12.5,
              "duration": 0.3229166666666667
            },
            {
              "pitch": 31,
              "velocity": 70,
              "position": 13,
              "duration": 0.3229166666666667
            },
            {
              "pitch": 31,
              "velocity": 70,
              "position": 13.833333333333334,
              "duration": 0.15625
            },
            {
              "pitch": 34,
              "velocity": 70,
              "position": 14,
              "duration": 0.3229166666666667
            },
            {
              "pitch": 35,
              "velocity": 70,
              "position": 14.5,
              "duration": 0.3229166666666667
            },
            {
              "pitch": 36,
              "velocity": 70,
              "position": 15,
              "duration": 0.4895833333333333
            }
          ]
        },
        "11": {
          "ctab": {
            "srcChannel": 11,
            "name": "Clavi",
            "accType": "CHORD1",
            "editable": false,
            "mutedNotes": [],
            "mutedChords": [
              "dim7",
              "dim",
              "minMaj7(9)",
              "minMaj7",
              "min7(11)",
              "min7(9)",
              "min(9)",
              "m7b5",
              "min7",
              "min6",
              "min"
            ],
            "autoStart": false,
            "sourceChordNote": 0,
            "sourceChordType": "Maj",
            "ctb2Low": null,
            "ctb2Main": {
              "ntr": "ROOT_TRANSPOSITION",
              "ntt": "BYPASS",
              "bassOn": false,
              "chordRootUpperLimit": 10,
              "noteLowLimit": 0,
              "noteHighLimit": 127,
              "rtr": "PITCH_SHIFT"
            },
            "ctb2High": null
          },
          "notes": [
            {
              "pitch": 36,
              "velocity": 108,
              "position": 0.010416666666666666,
              "duration": 0.22916666666666666
            },
            {
              "pitch": 48,
              "velocity": 79,
              "position": 0.3333333333333333,
              "duration": 0.13541666666666666
            },
            {
              "pitch": 36,
              "velocity": 97,
              "position": 0.5,
              "duration": 0.23958333333333334
            },
            {
              "pitch": 48,
              "velocity": 97,
              "position": 0.8333333333333334,
              "duration": 0.08541666666666667
            },
            {
              "pitch": 54,
              "velocity": 107,
              "position": 1,
              "duration": 0.14583333333333334
            },
            {
              "pitch": 58,
              "velocity": 102,
              "position": 1,
              "duration": 0.2
            },
            {
              "pitch": 55,
              "velocity": 99,
              "position": 1.1666666666666667,
              "duration": 0.08541666666666667
            },
            {
              "pitch": 53,
              "velocity": 123,
              "position": 1.5,
              "duration": 0.20833333333333334
            },
            {
              "pitch": 57,
              "velocity": 114,
              "position": 1.5,
              "duration": 0.21875
            },
            {
              "pitch": 51,
              "velocity": 102,
              "position": 2,
              "duration": 0.08541666666666667
            },
            {
              "pitch": 55,
              "velocity": 105,
              "position": 2,
              "duration": 0.18958333333333333
            },
            {
              "pitch": 52,
              "velocity": 86,
              "position": 2.1666666666666665,
              "duration": 0.1875
            },
            {
              "pitch": 36,
              "velocity": 81,
              "position": 2.5,
              "duration": 0.08333333333333333
            },
            {
              "pitch": 46,
              "velocity": 107,
              "position": 2.8333333333333335,
              "duration": 0.17916666666666667
            },
            {
              "pitch": 48,
              "velocity": 117,
              "position": 3.3333333333333335,
              "duration": 0.11458333333333333
            },
            {
              "pitch": 36,
              "velocity": 89,
              "position": 3.8333333333333335,
              "duration": 0.09791666666666667
            },
            {
              "pitch": 46,
              "velocity": 86,
              "position": 4,
              "duration": 0.32708333333333334
            },
            {
              "pitch": 48,
              "velocity": 97,
              "position": 4.333333333333333,
              "duration": 0.08333333333333333
            },
            {
              "pitch": 51,
              "velocity": 89,
              "position": 4.5,
              "duration": 0.21041666666666667
            },
            {
              "pitch": 53,
              "velocity": 74,
              "position": 5,
              "duration": 0.14583333333333334
            },
            {
              "pitch": 28,
              "velocity": 95,
              "position": 5,
              "duration": 0.22083333333333333
            },
            {
              "pitch": 54,
              "velocity": 125,
              "position": 5.083333333333333,
              "duration": 0.20833333333333334
            },
            {
              "pitch": 40,
              "velocity": 71,
              "position": 5.333333333333333,
              "duration": 0.13541666666666666
            },
            {
              "pitch": 52,
              "velocity": 74,
              "position": 5.5,
              "duration": 0.14583333333333334
            },
            {
              "pitch": 29,
              "velocity": 119,
              "position": 5.5,
              "duration": 0.19791666666666666
            },
            {
              "pitch": 53,
              "velocity": 110,
              "position": 5.583333333333333,
              "duration": 0.22916666666666666
            },
            {
              "pitch": 30,
              "velocity": 102,
              "position": 6,
              "duration": 0.23958333333333334
            },
            {
              "pitch": 51,
              "velocity": 107,
              "position": 6,
              "duration": 0.2520833333333333
            },
            {
              "pitch": 31,
              "velocity": 54,
              "position": 6.5,
              "duration": 0.09583333333333334
            },
            {
              "pitch": 34,
              "velocity": 119,
              "position": 6.833333333333333,
              "duration": 0.22916666666666666
            },
            {
              "pitch": 46,
              "velocity": 86,
              "position": 7,
              "duration": 0.2125
            },
            {
              "pitch": 48,
              "velocity": 107,
              "position": 7.333333333333333,
              "duration": 0.1875
            },
            {
              "pitch": 48,
              "velocity": 117,
              "position": 7.833333333333333,
              "duration": 0.13541666666666666
            },
            {
              "pitch": 24,
              "velocity": 107,
              "position": 8,
              "duration": 0.2604166666666667
            },
            {
              "pitch": 48,
              "velocity": 105,
              "position": 8.333333333333334,
              "duration": 0.125
            },
            {
              "pitch": 36,
              "velocity": 117,
              "position": 8.5,
              "duration": 0.17708333333333334
            },
            {
              "pitch": 58,
              "velocity": 66,
              "position": 9,
              "duration": 0.16666666666666666
            },
            {
              "pitch": 54,
              "velocity": 127,
              "position": 9,
              "duration": 0.17708333333333334
            },
            {
              "pitch": 55,
              "velocity": 100,
              "position": 9.166666666666666,
              "duration": 0.10416666666666667
            },
            {
              "pitch": 53,
              "velocity": 114,
              "position": 9.5,
              "duration": 0.16666666666666666
            },
            {
              "pitch": 57,
              "velocity": 126,
              "position": 9.5,
              "duration": 0.19791666666666666
            },
            {
              "pitch": 51,
              "velocity": 114,
              "position": 10,
              "duration": 0.07708333333333334
            },
            {
              "pitch": 55,
              "velocity": 117,
              "position": 10,
              "duration": 0.19791666666666666
            },
            {
              "pitch": 52,
              "velocity": 81,
              "position": 10.166666666666666,
              "duration": 0.16041666666666668
            },
            {
              "pitch": 40,
              "velocity": 66,
              "position": 10.5,
              "duration": 0.0625
            },
            {
              "pitch": 46,
              "velocity": 114,
              "position": 10.833333333333334,
              "duration": 0.16666666666666666
            },
            {
              "pitch": 48,
              "velocity": 102,
              "position": 11.333333333333334,
              "duration": 0.11458333333333333
            },
            {
              "pitch": 40,
              "velocity": 105,
              "position": 11.833333333333334,
              "duration": 0.15625
            },
            {
              "pitch": 48,
              "velocity": 95,
              "position": 12,
              "duration": 0.11458333333333333
            },
            {
              "pitch": 51,
              "velocity": 47,
              "position": 12.166666666666666,
              "duration": 0.06666666666666667
            },
            {
              "pitch": 54,
              "velocity": 107,
              "position": 12.333333333333334,
              "duration": 0.11666666666666667
            },
            {
              "pitch": 53,
              "velocity": 114,
              "position": 12.5,
              "duration": 0.20833333333333334
            },
            {
              "pitch": 51,
              "velocity": 107,
              "position": 13,
              "duration": 0.19791666666666666
            },
            {
              "pitch": 48,
              "velocity": 112,
              "position": 13.333333333333334,
              "duration": 0.14583333333333334
            },
            {
              "pitch": 46,
              "velocity": 85,
              "position": 13.5,
              "duration": 0.20833333333333334
            },
            {
              "pitch": 31,
              "velocity": 102,
              "position": 13.833333333333334,
              "duration": 0.17708333333333334
            },
            {
              "pitch": 34,
              "velocity": 58,
              "position": 14,
              "duration": 0.05416666666666667
            },
            {
              "pitch": 46,
              "velocity": 127,
              "position": 14,
              "duration": 0.21875
            },
            {
              "pitch": 47,
              "velocity": 110,
              "position": 14.5,
              "duration": 0.22916666666666666
            },
            {
              "pitch": 35,
              "velocity": 114,
              "position": 14.5,
              "duration": 0.28125
            },
            {
              "pitch": 36,
              "velocity": 123,
              "position": 15,
              "duration": 0.23958333333333334
            },
            {
              "pitch": 48,
              "velocity": 126,
              "position": 15,
              "duration": 0.25
            },
            {
              "pitch": 47,
              "velocity": 85,
              "position": 15.325,
              "duration": 0.07083333333333333
            },
            {
              "pitch": 45,
              "velocity": 54,
              "position": 15.395833333333334,
              "duration": 0.0625
            }
          ]
        },
        "12": {
          "ctab": {
            "srcChannel": 12,
            "name": "SolidGtr",
            "accType": "CHORD2",
            "editable": false,
            "mutedNotes": [],
            "mutedChords": [
              "dim7",
              "dim",
              "minMaj7(9)",
              "minMaj7",
              "min7(11)",
              "min7(9)",
              "min(9)",
              "m7b5",
              "min7",
              "min6",
              "min"
            ],
            "autoStart": false,
            "sourceChordNote": 0,
            "sourceChordType": "Maj",
            "ctb2Low": null,
            "ctb2Main": {
              "ntr": "ROOT_TRANSPOSITION",
              "ntt": "BYPASS",
              "bassOn": false,
              "chordRootUpperLimit": 8,
              "noteLowLimit": 0,
              "noteHighLimit": 79,
              "rtr": "PITCH_SHIFT"
            },
            "ctb2High": null
          },
          "notes": [
            {
              "pitch": 119,
              "velocity": 66,
              "position": 0,
              "duration": 0.08333333333333333
            },
            {
              "pitch": 48,
              "velocity": 88,
              "position": 0,
              "duration": 0.16666666666666666
            },
            {
              "pitch": 118,
              "velocity": 66,
              "position": 0.5,
              "duration": 0.08333333333333333
            },
            {
              "pitch": 48,
              "velocity": 88,
              "position": 0.5,
              "duration": 0.16666666666666666
            },
            {
              "pitch": 109,
              "velocity": 50,
              "position": 0.8333333333333334,
              "duration": 0.15625
            },
            {
              "pitch": 58,
              "velocity": 55,
              "position": 1,
              "duration": 0.10416666666666667
            },
            {
              "pitch": 64,
              "velocity": 55,
              "position": 1.0104166666666667,
              "duration": 0.10416666666666667
            },
            {
              "pitch": 67,
              "velocity": 55,
              "position": 1.0208333333333333,
              "duration": 0.10416666666666667
            },
            {
              "pitch": 108,
              "velocity": 100,
              "position": 1,
              "duration": 0.15625
            },
            {
              "pitch": 105,
              "velocity": 95,
              "position": 2.8333333333333335,
              "duration": 0.15625
            },
            {
              "pitch": 58,
              "velocity": 55,
              "position": 3,
              "duration": 0.10416666666666667
            },
            {
              "pitch": 64,
              "velocity": 55,
              "position": 3.0104166666666665,
              "duration": 0.10416666666666667
            },
            {
              "pitch": 67,
              "velocity": 55,
              "position": 3.0208333333333335,
              "duration": 0.10416666666666667
            },
            {
              "pitch": 106,
              "velocity": 100,
              "position": 3,
              "duration": 0.15625
            },
            {
              "pitch": 123,
              "velocity": 95,
              "position": 3.3333333333333335,
              "duration": 0.3854166666666667
            },
            {
              "pitch": 118,
              "velocity": 65,
              "position": 3.8333333333333335,
              "duration": 0.08333333333333333
            },
            {
              "pitch": 55,
              "velocity": 87,
              "position": 3.8333333333333335,
              "duration": 0.16666666666666666
            },
            {
              "pitch": 119,
              "velocity": 63,
              "position": 4,
              "duration": 0.08333333333333333
            },
            {
              "pitch": 53,
              "velocity": 85,
              "position": 4,
              "duration": 0.16666666666666666
            },
            {
              "pitch": 118,
              "velocity": 48,
              "position": 4.333333333333333,
              "duration": 0.08333333333333333
            },
            {
              "pitch": 53,
              "velocity": 70,
              "position": 4.333333333333333,
              "duration": 0.15625
            },
            {
              "pitch": 119,
              "velocity": 63,
              "position": 4.5,
              "duration": 0.08333333333333333
            },
            {
              "pitch": 53,
              "velocity": 85,
              "position": 4.5,
              "duration": 0.16666666666666666
            },
            {
              "pitch": 109,
              "velocity": 62,
              "position": 4.833333333333333,
              "duration": 0.15625
            },
            {
              "pitch": 57,
              "velocity": 55,
              "position": 5,
              "duration": 0.10416666666666667
            },
            {
              "pitch": 63,
              "velocity": 55,
              "position": 5.010416666666667,
              "duration": 0.10416666666666667
            },
            {
              "pitch": 65,
              "velocity": 55,
              "position": 5.020833333333333,
              "duration": 0.10416666666666667
            },
            {
              "pitch": 108,
              "velocity": 100,
              "position": 5,
              "duration": 0.15625
            },
            {
              "pitch": 105,
              "velocity": 95,
              "position": 6.833333333333333,
              "duration": 0.15625
            },
            {
              "pitch": 57,
              "velocity": 55,
              "position": 7,
              "duration": 0.10416666666666667
            },
            {
              "pitch": 63,
              "velocity": 55,
              "position": 7.010416666666667,
              "duration": 0.10416666666666667
            },
            {
              "pitch": 65,
              "velocity": 55,
              "position": 7.020833333333333,
              "duration": 0.10416666666666667
            },
            {
              "pitch": 106,
              "velocity": 100,
              "position": 7,
              "duration": 0.15625
            },
            {
              "pitch": 124,
              "velocity": 95,
              "position": 7.333333333333333,
              "duration": 0.4166666666666667
            },
            {
              "pitch": 118,
              "velocity": 66,
              "position": 8,
              "duration": 0.08333333333333333
            },
            {
              "pitch": 48,
              "velocity": 88,
              "position": 8,
              "duration": 0.16666666666666666
            },
            {
              "pitch": 119,
              "velocity": 66,
              "position": 8.5,
              "duration": 0.08333333333333333
            },
            {
              "pitch": 48,
              "velocity": 88,
              "position": 8.5,
              "duration": 0.16666666666666666
            },
            {
              "pitch": 109,
              "velocity": 50,
              "position": 8.833333333333334,
              "duration": 0.15625
            },
            {
              "pitch": 58,
              "velocity": 55,
              "position": 9,
              "duration": 0.10416666666666667
            },
            {
              "pitch": 64,
              "velocity": 55,
              "position": 9.010416666666666,
              "duration": 0.10416666666666667
            },
            {
              "pitch": 67,
              "velocity": 55,
              "position": 9.020833333333334,
              "duration": 0.10416666666666667
            },
            {
              "pitch": 108,
              "velocity": 100,
              "position": 9,
              "duration": 0.15625
            },
            {
              "pitch": 105,
              "velocity": 95,
              "position": 10.833333333333334,
              "duration": 0.15625
            },
            {
              "pitch": 58,
              "velocity": 55,
              "position": 11,
              "duration": 0.10416666666666667
            },
            {
              "pitch": 64,
              "velocity": 55,
              "position": 11.010416666666666,
              "duration": 0.10416666666666667
            },
            {
              "pitch": 67,
              "velocity": 55,
              "position": 11.020833333333334,
              "duration": 0.10416666666666667
            },
            {
              "pitch": 106,
              "velocity": 100,
              "position": 11,
              "duration": 0.15625
            },
            {
              "pitch": 119,
              "velocity": 65,
              "position": 11.833333333333334,
              "duration": 0.08333333333333333
            },
            {
              "pitch": 55,
              "velocity": 87,
              "position": 11.833333333333334,
              "duration": 0.16666666666666666
            },
            {
              "pitch": 118,
              "velocity": 63,
              "position": 12,
              "duration": 0.08333333333333333
            },
            {
              "pitch": 119,
              "velocity": 48,
              "position": 12.333333333333334,
              "duration": 0.08333333333333333
            },
            {
              "pitch": 118,
              "velocity": 63,
              "position": 12.5,
              "duration": 0.08333333333333333
            },
            {
              "pitch": 109,
              "velocity": 62,
              "position": 12.833333333333334,
              "duration": 0.15625
            },
            {
              "pitch": 58,
              "velocity": 55,
              "position": 13,
              "duration": 0.10416666666666667
            },
            {
              "pitch": 64,
              "velocity": 55,
              "position": 13.010416666666666,
              "duration": 0.10416666666666667
            },
            {
              "pitch": 67,
              "velocity": 55,
              "position": 13.020833333333334,
              "duration": 0.10416666666666667
            },
            {
              "pitch": 108,
              "velocity": 100,
              "position": 13,
              "duration": 0.15625
            },
            {
              "pitch": 121,
              "velocity": 95,
              "position": 13.583333333333334,
              "duration": 0.4166666666666667
            },
            {
              "pitch": 100,
              "velocity": 85,
              "position": 14,
              "duration": 0.15625
            },
            {
              "pitch": 56,
              "velocity": 52,
              "position": 14,
              "duration": 0.4375
            },
            {
              "pitch": 62,
              "velocity": 52,
              "position": 14.010416666666666,
              "duration": 0.4375
            },
            {
              "pitch": 65,
              "velocity": 52,
              "position": 14.020833333333334,
              "duration": 0.4375
            },
            {
              "pitch": 125,
              "velocity": 95,
              "position": 14.375,
              "duration": 0.125
            },
            {
              "pitch": 106,
              "velocity": 100,
              "position": 14.5,
              "duration": 0.15625
            },
            {
              "pitch": 57,
              "velocity": 52,
              "position": 14.5,
              "duration": 0.4375
            },
            {
              "pitch": 63,
              "velocity": 52,
              "position": 14.510416666666666,
              "duration": 0.4375
            },
            {
              "pitch": 66,
              "velocity": 52,
              "position": 14.520833333333334,
              "duration": 0.4375
            },
            {
              "pitch": 122,
              "velocity": 95,
              "position": 14.895833333333334,
              "duration": 0.125
            },
            {
              "pitch": 108,
              "velocity": 100,
              "position": 15,
              "duration": 0.15625
            },
            {
              "pitch": 58,
              "velocity": 58,
              "position": 15,
              "duration": 0.3541666666666667
            },
            {
              "pitch": 64,
              "velocity": 58,
              "position": 15.010416666666666,
              "duration": 0.3541666666666667
            },
            {
              "pitch": 67,
              "velocity": 58,
              "position": 15.020833333333334,
              "duration": 0.3541666666666667
            }
          ]
        },
        "13": {
          "ctab": {
            "srcChannel": 13,
            "name": "E.Piano",
            "accType": "PAD",
            "editable": false,
            "mutedNotes": [],
            "mutedChords": [
              "dim7",
              "dim",
              "minMaj7(9)",
              "minMaj7",
              "min7(11)",
              "min7(9)",
              "min(9)",
              "m7b5",
              "min7",
              "min6",
              "min"
            ],
            "autoStart": false,
            "sourceChordNote": 0,
            "sourceChordType": "Maj",
            "ctb2Low": null,
            "ctb2Main": {
              "ntr": "ROOT_TRANSPOSITION",
              "ntt": "BYPASS",
              "bassOn": false,
              "chordRootUpperLimit": 8,
              "noteLowLimit": 54,
              "noteHighLimit": 65,
              "rtr": "PITCH_SHIFT"
            },
            "ctb2High": null
          },
          "notes": [
            {
              "pitch": 55,
              "velocity": 83,
              "position": 0,
              "duration": 0.16666666666666666
            },
            {
              "pitch": 64,
              "velocity": 101,
              "position": 0,
              "duration": 0.16666666666666666
            },
            {
              "pitch": 60,
              "velocity": 101,
              "position": 0,
              "duration": 0.16666666666666666
            },
            {
              "pitch": 58,
              "velocity": 98,
              "position": 0,
              "duration": 0.16666666666666666
            },
            {
              "pitch": 55,
              "velocity": 77,
              "position": 0.5,
              "duration": 0.16666666666666666
            },
            {
              "pitch": 64,
              "velocity": 67,
              "position": 0.5,
              "duration": 0.16666666666666666
            },
            {
              "pitch": 60,
              "velocity": 28,
              "position": 0.5,
              "duration": 0.16666666666666666
            },
            {
              "pitch": 58,
              "velocity": 82,
              "position": 0.5,
              "duration": 0.16666666666666666
            },
            {
              "pitch": 55,
              "velocity": 101,
              "position": 1,
              "duration": 0.16666666666666666
            },
            {
              "pitch": 64,
              "velocity": 91,
              "position": 1,
              "duration": 0.16666666666666666
            },
            {
              "pitch": 60,
              "velocity": 93,
              "position": 1,
              "duration": 0.16666666666666666
            },
            {
              "pitch": 58,
              "velocity": 105,
              "position": 1,
              "duration": 0.16666666666666666
            },
            {
              "pitch": 55,
              "velocity": 64,
              "position": 1.5,
              "duration": 0.16666666666666666
            },
            {
              "pitch": 64,
              "velocity": 46,
              "position": 1.5,
              "duration": 0.16666666666666666
            },
            {
              "pitch": 60,
              "velocity": 49,
              "position": 1.5,
              "duration": 0.16666666666666666
            },
            {
              "pitch": 58,
              "velocity": 49,
              "position": 1.5,
              "duration": 0.16666666666666666
            },
            {
              "pitch": 55,
              "velocity": 91,
              "position": 2,
              "duration": 0.16666666666666666
            },
            {
              "pitch": 64,
              "velocity": 80,
              "position": 2,
              "duration": 0.16666666666666666
            },
            {
              "pitch": 60,
              "velocity": 69,
              "position": 2,
              "duration": 0.16666666666666666
            },
            {
              "pitch": 58,
              "velocity": 88,
              "position": 2,
              "duration": 0.16666666666666666
            },
            {
              "pitch": 55,
              "velocity": 61,
              "position": 2.5,
              "duration": 0.16666666666666666
            },
            {
              "pitch": 64,
              "velocity": 48,
              "position": 2.5,
              "duration": 0.16666666666666666
            },
            {
              "pitch": 60,
              "velocity": 38,
              "position": 2.5,
              "duration": 0.16666666666666666
            },
            {
              "pitch": 58,
              "velocity": 70,
              "position": 2.5,
              "duration": 0.16666666666666666
            },
            {
              "pitch": 55,
              "velocity": 103,
              "position": 3,
              "duration": 0.16666666666666666
            },
            {
              "pitch": 64,
              "velocity": 103,
              "position": 3,
              "duration": 0.16666666666666666
            },
            {
              "pitch": 60,
              "velocity": 103,
              "position": 3,
              "duration": 0.16666666666666666
            },
            {
              "pitch": 58,
              "velocity": 103,
              "position": 3,
              "duration": 0.16666666666666666
            },
            {
              "pitch": 55,
              "velocity": 86,
              "position": 3.5,
              "duration": 0.16666666666666666
            },
            {
              "pitch": 64,
              "velocity": 48,
              "position": 3.5,
              "duration": 0.16666666666666666
            },
            {
              "pitch": 60,
              "velocity": 49,
              "position": 3.5,
              "duration": 0.16666666666666666
            },
            {
              "pitch": 58,
              "velocity": 88,
              "position": 3.5,
              "duration": 0.16666666666666666
            },
            {
              "pitch": 53,
              "velocity": 86,
              "position": 4,
              "duration": 0.16666666666666666
            },
            {
              "pitch": 63,
              "velocity": 70,
              "position": 4,
              "duration": 0.16666666666666666
            },
            {
              "pitch": 60,
              "velocity": 77,
              "position": 4,
              "duration": 0.16666666666666666
            },
            {
              "pitch": 57,
              "velocity": 88,
              "position": 4,
              "duration": 0.16666666666666666
            },
            {
              "pitch": 53,
              "velocity": 72,
              "position": 4.5,
              "duration": 0.16666666666666666
            },
            {
              "pitch": 63,
              "velocity": 57,
              "position": 4.5,
              "duration": 0.16666666666666666
            },
            {
              "pitch": 60,
              "velocity": 40,
              "position": 4.5,
              "duration": 0.16666666666666666
            },
            {
              "pitch": 57,
              "velocity": 62,
              "position": 4.5,
              "duration": 0.16666666666666666
            },
            {
              "pitch": 53,
              "velocity": 103,
              "position": 5,
              "duration": 0.16666666666666666
            },
            {
              "pitch": 63,
              "velocity": 67,
              "position": 5,
              "duration": 0.16666666666666666
            },
            {
              "pitch": 60,
              "velocity": 77,
              "position": 5,
              "duration": 0.16666666666666666
            },
            {
              "pitch": 57,
              "velocity": 96,
              "position": 5,
              "duration": 0.16666666666666666
            },
            {
              "pitch": 53,
              "velocity": 49,
              "position": 5.5,
              "duration": 0.16666666666666666
            },
            {
              "pitch": 63,
              "velocity": 48,
              "position": 5.5,
              "duration": 0.16666666666666666
            },
            {
              "pitch": 60,
              "velocity": 40,
              "position": 5.5,
              "duration": 0.16666666666666666
            },
            {
              "pitch": 57,
              "velocity": 59,
              "position": 5.5,
              "duration": 0.16666666666666666
            },
            {
              "pitch": 53,
              "velocity": 77,
              "position": 6,
              "duration": 0.16666666666666666
            },
            {
              "pitch": 63,
              "velocity": 67,
              "position": 6,
              "duration": 0.16666666666666666
            },
            {
              "pitch": 60,
              "velocity": 62,
              "position": 6,
              "duration": 0.16666666666666666
            },
            {
              "pitch": 57,
              "velocity": 82,
              "position": 6,
              "duration": 0.16666666666666666
            },
            {
              "pitch": 53,
              "velocity": 70,
              "position": 6.5,
              "duration": 0.16666666666666666
            },
            {
              "pitch": 63,
              "velocity": 54,
              "position": 6.5,
              "duration": 0.16666666666666666
            },
            {
              "pitch": 60,
              "velocity": 40,
              "position": 6.5,
              "duration": 0.16666666666666666
            },
            {
              "pitch": 57,
              "velocity": 69,
              "position": 6.5,
              "duration": 0.16666666666666666
            },
            {
              "pitch": 53,
              "velocity": 103,
              "position": 7,
              "duration": 0.16666666666666666
            },
            {
              "pitch": 63,
              "velocity": 103,
              "position": 7,
              "duration": 0.16666666666666666
            },
            {
              "pitch": 60,
              "velocity": 103,
              "position": 7,
              "duration": 0.16666666666666666
            },
            {
              "pitch": 57,
              "velocity": 103,
              "position": 7,
              "duration": 0.16666666666666666
            },
            {
              "pitch": 53,
              "velocity": 73,
              "position": 7.5,
              "duration": 0.16666666666666666
            },
            {
              "pitch": 63,
              "velocity": 53,
              "position": 7.5,
              "duration": 0.16666666666666666
            },
            {
              "pitch": 60,
              "velocity": 45,
              "position": 7.5,
              "duration": 0.16666666666666666
            },
            {
              "pitch": 57,
              "velocity": 67,
              "position": 7.5,
              "duration": 0.16666666666666666
            },
            {
              "pitch": 55,
              "velocity": 77,
              "position": 8,
              "duration": 0.16666666666666666
            },
            {
              "pitch": 64,
              "velocity": 77,
              "position": 8,
              "duration": 0.16666666666666666
            },
            {
              "pitch": 60,
              "velocity": 77,
              "position": 8,
              "duration": 0.16666666666666666
            },
            {
              "pitch": 58,
              "velocity": 77,
              "position": 8,
              "duration": 0.16666666666666666
            },
            {
              "pitch": 55,
              "velocity": 58,
              "position": 8.5,
              "duration": 0.16666666666666666
            },
            {
              "pitch": 64,
              "velocity": 58,
              "position": 8.5,
              "duration": 0.16666666666666666
            },
            {
              "pitch": 60,
              "velocity": 58,
              "position": 8.5,
              "duration": 0.16666666666666666
            },
            {
              "pitch": 58,
              "velocity": 58,
              "position": 8.5,
              "duration": 0.16666666666666666
            },
            {
              "pitch": 55,
              "velocity": 95,
              "position": 9,
              "duration": 0.16666666666666666
            },
            {
              "pitch": 64,
              "velocity": 95,
              "position": 9,
              "duration": 0.16666666666666666
            },
            {
              "pitch": 60,
              "velocity": 95,
              "position": 9,
              "duration": 0.16666666666666666
            },
            {
              "pitch": 58,
              "velocity": 95,
              "position": 9,
              "duration": 0.16666666666666666
            },
            {
              "pitch": 55,
              "velocity": 49,
              "position": 9.5,
              "duration": 0.16666666666666666
            },
            {
              "pitch": 64,
              "velocity": 49,
              "position": 9.5,
              "duration": 0.16666666666666666
            },
            {
              "pitch": 60,
              "velocity": 49,
              "position": 9.5,
              "duration": 0.16666666666666666
            },
            {
              "pitch": 58,
              "velocity": 49,
              "position": 9.5,
              "duration": 0.16666666666666666
            },
            {
              "pitch": 55,
              "velocity": 82,
              "position": 10,
              "duration": 0.16666666666666666
            },
            {
              "pitch": 64,
              "velocity": 51,
              "position": 10,
              "duration": 0.16666666666666666
            },
            {
              "pitch": 60,
              "velocity": 53,
              "position": 10,
              "duration": 0.16666666666666666
            },
            {
              "pitch": 58,
              "velocity": 86,
              "position": 10,
              "duration": 0.16666666666666666
            },
            {
              "pitch": 55,
              "velocity": 54,
              "position": 10.5,
              "duration": 0.16666666666666666
            },
            {
              "pitch": 64,
              "velocity": 54,
              "position": 10.5,
              "duration": 0.16666666666666666
            },
            {
              "pitch": 60,
              "velocity": 54,
              "position": 10.5,
              "duration": 0.16666666666666666
            },
            {
              "pitch": 58,
              "velocity": 54,
              "position": 10.5,
              "duration": 0.16666666666666666
            },
            {
              "pitch": 55,
              "velocity": 101,
              "position": 11,
              "duration": 0.16666666666666666
            },
            {
              "pitch": 64,
              "velocity": 101,
              "position": 11,
              "duration": 0.16666666666666666
            },
            {
              "pitch": 60,
              "velocity": 101,
              "position": 11,
              "duration": 0.16666666666666666
            },
            {
              "pitch": 58,
              "velocity": 101,
              "position": 11,
              "duration": 0.16666666666666666
            },
            {
              "pitch": 55,
              "velocity": 82,
              "position": 11.5,
              "duration": 0.16666666666666666
            },
            {
              "pitch": 64,
              "velocity": 88,
              "position": 11.5,
              "duration": 0.16666666666666666
            },
            {
              "pitch": 60,
              "velocity": 59,
              "position": 11.5,
              "duration": 0.16666666666666666
            },
            {
              "pitch": 58,
              "velocity": 82,
              "position": 11.5,
              "duration": 0.16666666666666666
            },
            {
              "pitch": 55,
              "velocity": 76,
              "position": 12,
              "duration": 0.16666666666666666
            },
            {
              "pitch": 64,
              "velocity": 72,
              "position": 12,
              "duration": 0.16666666666666666
            },
            {
              "pitch": 60,
              "velocity": 67,
              "position": 12,
              "duration": 0.16666666666666666
            },
            {
              "pitch": 58,
              "velocity": 86,
              "position": 12,
              "duration": 0.16666666666666666
            },
            {
              "pitch": 55,
              "velocity": 88,
              "position": 12.5,
              "duration": 0.16666666666666666
            },
            {
              "pitch": 64,
              "velocity": 91,
              "position": 12.5,
              "duration": 0.16666666666666666
            },
            {
              "pitch": 60,
              "velocity": 80,
              "position": 12.5,
              "duration": 0.16666666666666666
            },
            {
              "pitch": 58,
              "velocity": 91,
              "position": 12.5,
              "duration": 0.16666666666666666
            },
            {
              "pitch": 55,
              "velocity": 91,
              "position": 13,
              "duration": 0.16666666666666666
            },
            {
              "pitch": 64,
              "velocity": 82,
              "position": 13,
              "duration": 0.16666666666666666
            },
            {
              "pitch": 60,
              "velocity": 96,
              "position": 13,
              "duration": 0.16666666666666666
            },
            {
              "pitch": 58,
              "velocity": 96,
              "position": 13,
              "duration": 0.16666666666666666
            },
            {
              "pitch": 55,
              "velocity": 59,
              "position": 13.5,
              "duration": 0.16666666666666666
            },
            {
              "pitch": 64,
              "velocity": 53,
              "position": 13.5,
              "duration": 0.16666666666666666
            },
            {
              "pitch": 60,
              "velocity": 44,
              "position": 13.5,
              "duration": 0.16666666666666666
            },
            {
              "pitch": 58,
              "velocity": 49,
              "position": 13.5,
              "duration": 0.16666666666666666
            },
            {
              "pitch": 53,
              "velocity": 104,
              "position": 14,
              "duration": 0.3333333333333333
            },
            {
              "pitch": 62,
              "velocity": 91,
              "position": 14,
              "duration": 0.3333333333333333
            },
            {
              "pitch": 58,
              "velocity": 95,
              "position": 14,
              "duration": 0.3333333333333333
            },
            {
              "pitch": 56,
              "velocity": 95,
              "position": 14,
              "duration": 0.3333333333333333
            },
            {
              "pitch": 54,
              "velocity": 88,
              "position": 14.5,
              "duration": 0.3333333333333333
            },
            {
              "pitch": 63,
              "velocity": 78,
              "position": 14.5,
              "duration": 0.3333333333333333
            },
            {
              "pitch": 59,
              "velocity": 46,
              "position": 14.5,
              "duration": 0.3333333333333333
            },
            {
              "pitch": 57,
              "velocity": 46,
              "position": 14.5,
              "duration": 0.3333333333333333
            },
            {
              "pitch": 55,
              "velocity": 104,
              "position": 15,
              "duration": 0.3333333333333333
            },
            {
              "pitch": 64,
              "velocity": 100,
              "position": 15,
              "duration": 0.3333333333333333
            },
            {
              "pitch": 60,
              "velocity": 98,
              "position": 15,
              "duration": 0.3333333333333333
            },
            {
              "pitch": 58,
              "velocity": 95,
              "position": 15,
              "duration": 0.3333333333333333
            }
          ]
        },
        "14": {
          "ctab": {
            "srcChannel": 14,
            "name": "TenorSax",
            "accType": "PHRASE1",
            "editable": false,
            "mutedNotes": [],
            "mutedChords": [
              "dim7",
              "dim",
              "minMaj7(9)",
              "minMaj7",
              "min7(11)",
              "min7(9)",
              "min(9)",
              "m7b5",
              "min7",
              "min6",
              "min"
            ],
            "autoStart": false,
            "sourceChordNote": 0,
            "sourceChordType": "Maj",
            "ctb2Low": null,
            "ctb2Main": {
              "ntr": "ROOT_TRANSPOSITION",
              "ntt": "BYPASS",
              "bassOn": false,
              "chordRootUpperLimit": 8,
              "noteLowLimit": 0,
              "noteHighLimit": 127,
              "rtr": "PITCH_SHIFT"
            },
            "ctb2High": null
          },
          "notes": []
        },
        "15": {
          "ctab": {
            "srcChannel": 15,
            "name": "Brass",
            "accType": "PHRASE2",
            "editable": false,
            "mutedNotes": [],
            "mutedChords": [
              "dim7",
              "dim",
              "minMaj7(9)",
              "minMaj7",
              "min7(11)",
              "min7(9)",
              "min(9)",
              "m7b5",
              "min7",
              "min6",
              "min"
            ],
            "autoStart": false,
            "sourceChordNote": 0,
            "sourceChordType": "Maj",
            "ctb2Low": null,
            "ctb2Main": {
              "ntr": "ROOT_TRANSPOSITION",
              "ntt": "BYPASS",
              "bassOn": false,
              "chordRootUpperLimit": 5,
              "noteLowLimit": 0,
              "noteHighLimit": 127,
              "rtr": "PITCH_SHIFT"
            },
            "ctb2High": null
          },
          "notes": []
        }
      }
    },
    "Ending_B": {
      "type": "Ending_B",
      "sizeInBeats": 8,
      "channels": {
        "1": {
          "ctab": {
            "srcChannel": 1,
            "name": "Bass",
            "accType": "BASS",
            "editable": false,
            "mutedNotes": [],
            "mutedChords": [
              "1+2+5",
              "sus4",
              "1+5",
              "1+8",
              "7aug",
              "Maj7aug",
              "7(#9)",
              "7(b13)",
              "7(b9)",
              "7(13)",
              "7#11",
              "7(9)",
              "7b5",
              "7sus4",
              "7th",
              "aug",
              "Maj6(9)",
              "Maj7(9)",
              "Maj(9)",
              "Maj7#11",
              "Maj7",
              "Maj6",
              "Maj"
            ],
            "autoStart": false,
            "sourceChordNote": 0,
            "sourceChordType": "min",
            "ctb2Low": null,
            "ctb2Main": {
              "ntr": "ROOT_TRANSPOSITION",
              "ntt": "BYPASS",
              "bassOn": false,
              "chordRootUpperLimit": 8,
              "noteLowLimit": 28,
              "noteHighLimit": 127,
              "rtr": "PITCH_SHIFT"
            },
            "ctb2High": null
          },
          "notes": [
            {
              "pitch": 24,
              "velocity": 70,
              "position": 0,
              "duration": 0.5
            },
            {
              "pitch": 46,
              "velocity": 70,
              "position": 0.5,
              "duration": 3.4895833333333335
            },
            {
              "pitch": 46,
              "velocity": 110,
              "position": 4,
              "duration": 0.16666666666666666
            },
            {
              "pitch": 41,
              "velocity": 105,
              "position": 4.25,
              "duration": 0.16666666666666666
            },
            {
              "pitch": 34,
              "velocity": 70,
              "position": 4.5,
              "duration": 0.4895833333333333
            },
            {
              "pitch": 35,
              "velocity": 114,
              "position": 5,
              "duration": 0.15625
            },
            {
              "pitch": 35,
              "velocity": 70,
              "position": 5.333333333333333,
              "duration": 0.65625
            },
            {
              "pitch": 36,
              "velocity": 70,
              "position": 6,
              "duration": 0.5
            }
          ]
        },
        "2": {
          "ctab": {
            "srcChannel": 2,
            "name": "Clavi",
            "accType": "CHORD1",
            "editable": false,
            "mutedNotes": [],
            "mutedChords": [
              "1+2+5",
              "sus4",
              "1+5",
              "1+8",
              "7aug",
              "Maj7aug",
              "7(#9)",
              "7(b13)",
              "7(b9)",
              "7(13)",
              "7#11",
              "7(9)",
              "7b5",
              "7sus4",
              "7th",
              "aug",
              "Maj6(9)",
              "Maj7(9)",
              "Maj(9)",
              "Maj7#11",
              "Maj7",
              "Maj6",
              "Maj"
            ],
            "autoStart": false,
            "sourceChordNote": 0,
            "sourceChordType": "min",
            "ctb2Low": null,
            "ctb2Main": {
              "ntr": "ROOT_TRANSPOSITION",
              "ntt": "BYPASS",
              "bassOn": false,
              "chordRootUpperLimit": 10,
              "noteLowLimit": 0,
              "noteHighLimit": 127,
              "rtr": "PITCH_SHIFT"
            },
            "ctb2High": null
          },
          "notes": [
            {
              "pitch": 36,
              "velocity": 108,
              "position": 0.010416666666666666,
              "duration": 0.34375
            },
            {
              "pitch": 50,
              "velocity": 123,
              "position": 0.5,
              "duration": 0.20833333333333334
            },
            {
              "pitch": 51,
              "velocity": 81,
              "position": 0.6666666666666666,
              "duration": 0.15625
            },
            {
              "pitch": 55,
              "velocity": 108,
              "position": 0.5,
              "duration": 0.3854166666666667
            },
            {
              "pitch": 53,
              "velocity": 123,
              "position": 1.3333333333333333,
              "duration": 0.16875
            },
            {
              "pitch": 57,
              "velocity": 96,
              "position": 1.3333333333333333,
              "duration": 0.19791666666666666
            },
            {
              "pitch": 54,
              "velocity": 101,
              "position": 2,
              "duration": 0.09375
            },
            {
              "pitch": 58,
              "velocity": 101,
              "position": 2,
              "duration": 0.21875
            },
            {
              "pitch": 55,
              "velocity": 86,
              "position": 2.1666666666666665,
              "duration": 0.16666666666666666
            },
            {
              "pitch": 53,
              "velocity": 101,
              "position": 2.25,
              "duration": 0.23958333333333334
            },
            {
              "pitch": 51,
              "velocity": 89,
              "position": 2.5,
              "duration": 0.17708333333333334
            },
            {
              "pitch": 48,
              "velocity": 75,
              "position": 2.75,
              "duration": 0.0625
            },
            {
              "pitch": 53,
              "velocity": 117,
              "position": 3,
              "duration": 0.1875
            },
            {
              "pitch": 58,
              "velocity": 101,
              "position": 3,
              "duration": 0.19791666666666666
            },
            {
              "pitch": 51,
              "velocity": 85,
              "position": 3.25,
              "duration": 0.19791666666666666
            },
            {
              "pitch": 48,
              "velocity": 42,
              "position": 3.5,
              "duration": 0.15625
            },
            {
              "pitch": 46,
              "velocity": 96,
              "position": 3.75,
              "duration": 0.14791666666666667
            },
            {
              "pitch": 41,
              "velocity": 60,
              "position": 4.333333333333333,
              "duration": 0.21875
            },
            {
              "pitch": 56,
              "velocity": 119,
              "position": 4.5,
              "duration": 0.2708333333333333
            },
            {
              "pitch": 58,
              "velocity": 119,
              "position": 4.5,
              "duration": 0.28125
            },
            {
              "pitch": 46,
              "velocity": 119,
              "position": 4.5,
              "duration": 0.34375
            },
            {
              "pitch": 50,
              "velocity": 119,
              "position": 4.5,
              "duration": 0.3958333333333333
            },
            {
              "pitch": 34,
              "velocity": 119,
              "position": 4.5,
              "duration": 0.40625
            },
            {
              "pitch": 35,
              "velocity": 108,
              "position": 5.333333333333333,
              "duration": 0.3229166666666667
            },
            {
              "pitch": 59,
              "velocity": 113,
              "position": 5.333333333333333,
              "duration": 0.375
            },
            {
              "pitch": 57,
              "velocity": 111,
              "position": 5.333333333333333,
              "duration": 0.3958333333333333
            },
            {
              "pitch": 47,
              "velocity": 117,
              "position": 5.333333333333333,
              "duration": 0.4166666666666667
            },
            {
              "pitch": 51,
              "velocity": 101,
              "position": 5.333333333333333,
              "duration": 0.48333333333333334
            },
            {
              "pitch": 48,
              "velocity": 101,
              "position": 6,
              "duration": 0.2604166666666667
            },
            {
              "pitch": 60,
              "velocity": 111,
              "position": 6,
              "duration": 0.2916666666666667
            },
            {
              "pitch": 36,
              "velocity": 83,
              "position": 6,
              "duration": 0.3020833333333333
            },
            {
              "pitch": 58,
              "velocity": 79,
              "position": 6,
              "duration": 0.325
            },
            {
              "pitch": 51,
              "velocity": 117,
              "position": 6,
              "duration": 0.3333333333333333
            }
          ]
        },
        "3": {
          "ctab": {
            "srcChannel": 3,
            "name": "SolidGtr",
            "accType": "CHORD2",
            "editable": false,
            "mutedNotes": [],
            "mutedChords": [
              "1+2+5",
              "sus4",
              "1+5",
              "1+8",
              "7aug",
              "Maj7aug",
              "7(#9)",
              "7(b13)",
              "7(b9)",
              "7(13)",
              "7#11",
              "7(9)",
              "7b5",
              "7sus4",
              "7th",
              "aug",
              "Maj6(9)",
              "Maj7(9)",
              "Maj(9)",
              "Maj7#11",
              "Maj7",
              "Maj6",
              "Maj"
            ],
            "autoStart": false,
            "sourceChordNote": 0,
            "sourceChordType": "min",
            "ctb2Low": null,
            "ctb2Main": {
              "ntr": "ROOT_TRANSPOSITION",
              "ntt": "BYPASS",
              "bassOn": false,
              "chordRootUpperLimit": 8,
              "noteLowLimit": 0,
              "noteHighLimit": 79,
              "rtr": "PITCH_SHIFT"
            },
            "ctb2High": null
          },
          "notes": [
            {
              "pitch": 106,
              "velocity": 100,
              "position": 0,
              "duration": 0.15625
            },
            {
              "pitch": 58,
              "velocity": 55,
              "position": 0,
              "duration": 0.6041666666666666
            },
            {
              "pitch": 63,
              "velocity": 55,
              "position": 0.010416666666666666,
              "duration": 0.6041666666666666
            },
            {
              "pitch": 67,
              "velocity": 55,
              "position": 0.020833333333333332,
              "duration": 0.6041666666666666
            },
            {
              "pitch": 56,
              "velocity": 55,
              "position": 4.25,
              "duration": 0.052083333333333336
            },
            {
              "pitch": 62,
              "velocity": 55,
              "position": 4.260416666666667,
              "duration": 0.052083333333333336
            },
            {
              "pitch": 65,
              "velocity": 55,
              "position": 4.270833333333333,
              "duration": 0.052083333333333336
            },
            {
              "pitch": 108,
              "velocity": 66,
              "position": 4.25,
              "duration": 0.15625
            },
            {
              "pitch": 106,
              "velocity": 96,
              "position": 4.5,
              "duration": 0.15625
            },
            {
              "pitch": 56,
              "velocity": 50,
              "position": 4.5,
              "duration": 0.4375
            },
            {
              "pitch": 62,
              "velocity": 50,
              "position": 4.510416666666667,
              "duration": 0.4375
            },
            {
              "pitch": 65,
              "velocity": 50,
              "position": 4.520833333333333,
              "duration": 0.4375
            },
            {
              "pitch": 56,
              "velocity": 85,
              "position": 5,
              "duration": 0.052083333333333336
            },
            {
              "pitch": 62,
              "velocity": 85,
              "position": 5.010416666666667,
              "duration": 0.052083333333333336
            },
            {
              "pitch": 65,
              "velocity": 85,
              "position": 5.020833333333333,
              "duration": 0.052083333333333336
            },
            {
              "pitch": 117,
              "velocity": 98,
              "position": 5,
              "duration": 0.15625
            },
            {
              "pitch": 120,
              "velocity": 95,
              "position": 5.104166666666667,
              "duration": 0.19791666666666666
            },
            {
              "pitch": 100,
              "velocity": 106,
              "position": 5.333333333333333,
              "duration": 0.15625
            },
            {
              "pitch": 57,
              "velocity": 50,
              "position": 5.333333333333333,
              "duration": 0.40625
            },
            {
              "pitch": 63,
              "velocity": 50,
              "position": 5.34375,
              "duration": 0.40625
            },
            {
              "pitch": 66,
              "velocity": 50,
              "position": 5.354166666666667,
              "duration": 0.40625
            },
            {
              "pitch": 57,
              "velocity": 86,
              "position": 5.75,
              "duration": 0.052083333333333336
            },
            {
              "pitch": 63,
              "velocity": 86,
              "position": 5.760416666666667,
              "duration": 0.052083333333333336
            },
            {
              "pitch": 66,
              "velocity": 86,
              "position": 5.770833333333333,
              "duration": 0.052083333333333336
            },
            {
              "pitch": 116,
              "velocity": 88,
              "position": 5.75,
              "duration": 0.15625
            },
            {
              "pitch": 122,
              "velocity": 95,
              "position": 5.833333333333333,
              "duration": 0.19791666666666666
            },
            {
              "pitch": 106,
              "velocity": 106,
              "position": 6,
              "duration": 0.15625
            },
            {
              "pitch": 58,
              "velocity": 58,
              "position": 6,
              "duration": 0.6041666666666666
            },
            {
              "pitch": 63,
              "velocity": 58,
              "position": 6.010416666666667,
              "duration": 0.6041666666666666
            },
            {
              "pitch": 67,
              "velocity": 58,
              "position": 6.020833333333333,
              "duration": 0.6041666666666666
            }
          ]
        },
        "4": {
          "ctab": {
            "srcChannel": 4,
            "name": "E.Piano",
            "accType": "PAD",
            "editable": false,
            "mutedNotes": [],
            "mutedChords": [
              "1+2+5",
              "sus4",
              "1+5",
              "1+8",
              "7aug",
              "Maj7aug",
              "7(#9)",
              "7(b13)",
              "7(b9)",
              "7(13)",
              "7#11",
              "7(9)",
              "7b5",
              "7sus4",
              "7th",
              "aug",
              "Maj6(9)",
              "Maj7(9)",
              "Maj(9)",
              "Maj7#11",
              "Maj7",
              "Maj6",
              "Maj"
            ],
            "autoStart": false,
            "sourceChordNote": 0,
            "sourceChordType": "min",
            "ctb2Low": null,
            "ctb2Main": {
              "ntr": "ROOT_TRANSPOSITION",
              "ntt": "BYPASS",
              "bassOn": false,
              "chordRootUpperLimit": 8,
              "noteLowLimit": 54,
              "noteHighLimit": 65,
              "rtr": "PITCH_SHIFT"
            },
            "ctb2High": null
          },
          "notes": [
            {
              "pitch": 55,
              "velocity": 106,
              "position": 0,
              "duration": 0.3229166666666667
            },
            {
              "pitch": 63,
              "velocity": 106,
              "position": 0,
              "duration": 0.3229166666666667
            },
            {
              "pitch": 58,
              "velocity": 106,
              "position": 0,
              "duration": 0.3229166666666667
            },
            {
              "pitch": 53,
              "velocity": 93,
              "position": 4.5,
              "duration": 0.4895833333333333
            },
            {
              "pitch": 62,
              "velocity": 93,
              "position": 4.5,
              "duration": 0.4895833333333333
            },
            {
              "pitch": 58,
              "velocity": 93,
              "position": 4.5,
              "duration": 0.4895833333333333
            },
            {
              "pitch": 56,
              "velocity": 93,
              "position": 4.5,
              "duration": 0.4895833333333333
            },
            {
              "pitch": 54,
              "velocity": 97,
              "position": 5.333333333333333,
              "duration": 0.4895833333333333
            },
            {
              "pitch": 63,
              "velocity": 97,
              "position": 5.333333333333333,
              "duration": 0.4895833333333333
            },
            {
              "pitch": 59,
              "velocity": 97,
              "position": 5.333333333333333,
              "duration": 0.4895833333333333
            },
            {
              "pitch": 57,
              "velocity": 97,
              "position": 5.333333333333333,
              "duration": 0.4895833333333333
            },
            {
              "pitch": 55,
              "velocity": 107,
              "position": 6,
              "duration": 0.3229166666666667
            },
            {
              "pitch": 63,
              "velocity": 107,
              "position": 6,
              "duration": 0.3229166666666667
            },
            {
              "pitch": 60,
              "velocity": 107,
              "position": 6,
              "duration": 0.3229166666666667
            },
            {
              "pitch": 58,
              "velocity": 107,
              "position": 6,
              "duration": 0.3229166666666667
            }
          ]
        },
        "5": {
          "ctab": {
            "srcChannel": 5,
            "name": "TenorSax",
            "accType": "PHRASE1",
            "editable": false,
            "mutedNotes": [],
            "mutedChords": [
              "1+2+5",
              "sus4",
              "1+5",
              "1+8",
              "7aug",
              "Maj7aug",
              "7(#9)",
              "7(b13)",
              "7(b9)",
              "7(13)",
              "7#11",
              "7(9)",
              "7b5",
              "7sus4",
              "7th",
              "aug",
              "Maj6(9)",
              "Maj7(9)",
              "Maj(9)",
              "Maj7#11",
              "Maj7",
              "Maj6",
              "Maj"
            ],
            "autoStart": false,
            "sourceChordNote": 0,
            "sourceChordType": "min",
            "ctb2Low": null,
            "ctb2Main": {
              "ntr": "ROOT_TRANSPOSITION",
              "ntt": "BYPASS",
              "bassOn": false,
              "chordRootUpperLimit": 8,
              "noteLowLimit": 0,
              "noteHighLimit": 127,
              "rtr": "PITCH_SHIFT"
            },
            "ctb2High": null
          },
          "notes": [
            {
              "pitch": 58,
              "velocity": 88,
              "position": 4.5,
              "duration": 0.5
            },
            {
              "pitch": 59,
              "velocity": 88,
              "position": 5.333333333333333,
              "duration": 0.6666666666666666
            }
          ]
        },
        "6": {
          "ctab": {
            "srcChannel": 6,
            "name": "Brass",
            "accType": "PHRASE2",
            "editable": false,
            "mutedNotes": [],
            "mutedChords": [
              "1+2+5",
              "sus4",
              "1+5",
              "1+8",
              "7aug",
              "Maj7aug",
              "7(#9)",
              "7(b13)",
              "7(b9)",
              "7(13)",
              "7#11",
              "7(9)",
              "7b5",
              "7sus4",
              "7th",
              "aug",
              "Maj6(9)",
              "Maj7(9)",
              "Maj(9)",
              "Maj7#11",
              "Maj7",
              "Maj6",
              "Maj"
            ],
            "autoStart": false,
            "sourceChordNote": 0,
            "sourceChordType": "min",
            "ctb2Low": null,
            "ctb2Main": {
              "ntr": "ROOT_TRANSPOSITION",
              "ntt": "BYPASS",
              "bassOn": false,
              "chordRootUpperLimit": 5,
              "noteLowLimit": 0,
              "noteHighLimit": 127,
              "rtr": "PITCH_SHIFT"
            },
            "ctb2High": null
          },
          "notes": [
            {
              "pitch": 58,
              "velocity": 82,
              "position": 4.5,
              "duration": 0.8333333333333334
            },
            {
              "pitch": 77,
              "velocity": 88,
              "position": 4.5,
              "duration": 0.8333333333333334
            },
            {
              "pitch": 74,
              "velocity": 82,
              "position": 4.5,
              "duration": 0.8333333333333334
            },
            {
              "pitch": 68,
              "velocity": 82,
              "position": 4.5,
              "duration": 0.8333333333333334
            }
          ]
        },
        "8": {
          "ctab": {
            "srcChannel": 8,
            "name": "AddDrum",
            "accType": "SUBRHYTHM",
            "editable": false,
            "mutedNotes": [],
            "mutedChords": [],
            "autoStart": true,
            "sourceChordNote": 0,
            "sourceChordType": "Maj7",
            "ctb2Low": null,
            "ctb2Main": {
              "ntr": "ROOT_FIXED",
              "ntt": "BYPASS",
              "bassOn": false,
              "chordRootUpperLimit": 6,
              "noteLowLimit": 0,
              "noteHighLimit": 127,
              "rtr": "PITCH_SHIFT"
            },
            "ctb2High": null
          },
          "notes": []
        },
        "9": {
          "ctab": {
            "srcChannel": 9,
            "name": "MainDrum",
            "accType": "RHYTHM",
            "editable": false,
            "mutedNotes": [],
            "mutedChords": [],
            "autoStart": true,
            "sourceChordNote": 0,
            "sourceChordType": "Maj7",
            "ctb2Low": null,
            "ctb2Main": {
              "ntr": "ROOT_FIXED",
              "ntt": "BYPASS",
              "bassOn": false,
              "chordRootUpperLimit": 6,
              "noteLowLimit": 0,
              "noteHighLimit": 127,
              "rtr": "PITCH_SHIFT"
            },
            "ctb2High": null
          },
          "notes": [
            {
              "pitch": 35,
              "velocity": 90,
              "position": 0,
              "duration": 0.010416666666666666
            },
            {
              "pitch": 49,
              "velocity": 90,
              "position": 0,
              "duration": 0.010416666666666666
            },
            {
              "pitch": 46,
              "velocity": 80,
              "position": 0,
              "duration": 0.010416666666666666
            },
            {
              "pitch": 40,
              "velocity": 124,
              "position": 0,
              "duration": 0.010416666666666666
            },
            {
              "pitch": 44,
              "velocity": 25,
              "position": 0.5,
              "duration": 0.010416666666666666
            },
            {
              "pitch": 44,
              "velocity": 60,
              "position": 1,
              "duration": 0.010416666666666666
            },
            {
              "pitch": 44,
              "velocity": 14,
              "position": 1.5,
              "duration": 0.010416666666666666
            },
            {
              "pitch": 44,
              "velocity": 60,
              "position": 2,
              "duration": 0.010416666666666666
            },
            {
              "pitch": 44,
              "velocity": 21,
              "position": 2.5,
              "duration": 0.010416666666666666
            },
            {
              "pitch": 44,
              "velocity": 60,
              "position": 3,
              "duration": 0.010416666666666666
            },
            {
              "pitch": 44,
              "velocity": 12,
              "position": 3.5,
              "duration": 0.010416666666666666
            },
            {
              "pitch": 40,
              "velocity": 52,
              "position": 3.8333333333333335,
              "duration": 0.010416666666666666
            },
            {
              "pitch": 40,
              "velocity": 114,
              "position": 4,
              "duration": 0.010416666666666666
            },
            {
              "pitch": 44,
              "velocity": 60,
              "position": 4,
              "duration": 0.010416666666666666
            },
            {
              "pitch": 35,
              "velocity": 98,
              "position": 4.5,
              "duration": 0.010416666666666666
            },
            {
              "pitch": 57,
              "velocity": 80,
              "position": 4.5,
              "duration": 0.010416666666666666
            },
            {
              "pitch": 42,
              "velocity": 88,
              "position": 4.5,
              "duration": 0.010416666666666666
            },
            {
              "pitch": 40,
              "velocity": 114,
              "position": 5,
              "duration": 0.010416666666666666
            },
            {
              "pitch": 42,
              "velocity": 116,
              "position": 5,
              "duration": 0.010416666666666666
            },
            {
              "pitch": 35,
              "velocity": 103,
              "position": 5.333333333333333,
              "duration": 0.010416666666666666
            },
            {
              "pitch": 55,
              "velocity": 80,
              "position": 5.333333333333333,
              "duration": 0.010416666666666666
            },
            {
              "pitch": 42,
              "velocity": 94,
              "position": 5.5,
              "duration": 0.010416666666666666
            },
            {
              "pitch": 40,
              "velocity": 49,
              "position": 5.666666666666667,
              "duration": 0.010416666666666666
            },
            {
              "pitch": 40,
              "velocity": 63,
              "position": 5.833333333333333,
              "duration": 0.010416666666666666
            },
            {
              "pitch": 42,
              "velocity": 54,
              "position": 5.833333333333333,
              "duration": 0.010416666666666666
            },
            {
              "pitch": 35,
              "velocity": 103,
              "position": 6,
              "duration": 0.010416666666666666
            },
            {
              "pitch": 49,
              "velocity": 80,
              "position": 6,
              "duration": 0.010416666666666666
            },
            {
              "pitch": 42,
              "velocity": 116,
              "position": 6,
              "duration": 0.010416666666666666
            },
            {
              "pitch": 40,
              "velocity": 114,
              "position": 6,
              "duration": 0.010416666666666666
            }
          ]
        },
        "10": {
          "ctab": {
            "srcChannel": 10,
            "name": "Bass",
            "accType": "BASS",
            "editable": false,
            "mutedNotes": [],
            "mutedChords": [
              "dim7",
              "dim",
              "minMaj7(9)",
              "minMaj7",
              "min7(11)",
              "min7(9)",
              "min(9)",
              "m7b5",
              "min7",
              "min6",
              "min"
            ],
            "autoStart": false,
            "sourceChordNote": 0,
            "sourceChordType": "Maj",
            "ctb2Low": null,
            "ctb2Main": {
              "ntr": "ROOT_TRANSPOSITION",
              "ntt": "BYPASS",
              "bassOn": false,
              "chordRootUpperLimit": 8,
              "noteLowLimit": 28,
              "noteHighLimit": 127,
              "rtr": "PITCH_SHIFT"
            },
            "ctb2High": null
          },
          "notes": [
            {
              "pitch": 24,
              "velocity": 70,
              "position": 0,
              "duration": 0.5
            },
            {
              "pitch": 46,
              "velocity": 69,
              "position": 0.5,
              "duration": 3.4895833333333335
            },
            {
              "pitch": 46,
              "velocity": 110,
              "position": 4,
              "duration": 0.16666666666666666
            },
            {
              "pitch": 41,
              "velocity": 105,
              "position": 4.25,
              "duration": 0.16666666666666666
            },
            {
              "pitch": 34,
              "velocity": 70,
              "position": 4.5,
              "duration": 0.4895833333333333
            },
            {
              "pitch": 35,
              "velocity": 114,
              "position": 5,
              "duration": 0.16666666666666666
            },
            {
              "pitch": 35,
              "velocity": 70,
              "position": 5.333333333333333,
              "duration": 0.65625
            },
            {
              "pitch": 36,
              "velocity": 70,
              "position": 6,
              "duration": 0.5
            }
          ]
        },
        "11": {
          "ctab": {
            "srcChannel": 11,
            "name": "Clavi",
            "accType": "CHORD1",
            "editable": false,
            "mutedNotes": [],
            "mutedChords": [
              "dim7",
              "dim",
              "minMaj7(9)",
              "minMaj7",
              "min7(11)",
              "min7(9)",
              "min(9)",
              "m7b5",
              "min7",
              "min6",
              "min"
            ],
            "autoStart": false,
            "sourceChordNote": 0,
            "sourceChordType": "Maj",
            "ctb2Low": null,
            "ctb2Main": {
              "ntr": "ROOT_TRANSPOSITION",
              "ntt": "BYPASS",
              "bassOn": false,
              "chordRootUpperLimit": 10,
              "noteLowLimit": 0,
              "noteHighLimit": 127,
              "rtr": "PITCH_SHIFT"
            },
            "ctb2High": null
          },
          "notes": [
            {
              "pitch": 36,
              "velocity": 108,
              "position": 0.010416666666666666,
              "duration": 0.3333333333333333
            },
            {
              "pitch": 51,
              "velocity": 123,
              "position": 0.5,
              "duration": 0.20833333333333334
            },
            {
              "pitch": 52,
              "velocity": 81,
              "position": 0.6666666666666666,
              "duration": 0.15625
            },
            {
              "pitch": 58,
              "velocity": 108,
              "position": 0.5,
              "duration": 0.3854166666666667
            },
            {
              "pitch": 53,
              "velocity": 123,
              "position": 1.3333333333333333,
              "duration": 0.16875
            },
            {
              "pitch": 58,
              "velocity": 96,
              "position": 1.3333333333333333,
              "duration": 0.19791666666666666
            },
            {
              "pitch": 54,
              "velocity": 101,
              "position": 2,
              "duration": 0.09375
            },
            {
              "pitch": 58,
              "velocity": 101,
              "position": 2,
              "duration": 0.21875
            },
            {
              "pitch": 55,
              "velocity": 86,
              "position": 2.1666666666666665,
              "duration": 0.16666666666666666
            },
            {
              "pitch": 53,
              "velocity": 101,
              "position": 2.25,
              "duration": 0.23958333333333334
            },
            {
              "pitch": 51,
              "velocity": 89,
              "position": 2.5,
              "duration": 0.17708333333333334
            },
            {
              "pitch": 48,
              "velocity": 75,
              "position": 2.75,
              "duration": 0.0625
            },
            {
              "pitch": 53,
              "velocity": 117,
              "position": 3,
              "duration": 0.1875
            },
            {
              "pitch": 58,
              "velocity": 101,
              "position": 3,
              "duration": 0.19791666666666666
            },
            {
              "pitch": 51,
              "velocity": 85,
              "position": 3.25,
              "duration": 0.19791666666666666
            },
            {
              "pitch": 48,
              "velocity": 42,
              "position": 3.5,
              "duration": 0.15625
            },
            {
              "pitch": 46,
              "velocity": 96,
              "position": 3.75,
              "duration": 0.14791666666666667
            },
            {
              "pitch": 41,
              "velocity": 60,
              "position": 4.333333333333333,
              "duration": 0.21875
            },
            {
              "pitch": 56,
              "velocity": 119,
              "position": 4.5,
              "duration": 0.2708333333333333
            },
            {
              "pitch": 58,
              "velocity": 119,
              "position": 4.5,
              "duration": 0.28125
            },
            {
              "pitch": 46,
              "velocity": 119,
              "position": 4.5,
              "duration": 0.34375
            },
            {
              "pitch": 50,
              "velocity": 119,
              "position": 4.5,
              "duration": 0.3958333333333333
            },
            {
              "pitch": 34,
              "velocity": 119,
              "position": 4.5,
              "duration": 0.40625
            },
            {
              "pitch": 35,
              "velocity": 108,
              "position": 5.333333333333333,
              "duration": 0.3229166666666667
            },
            {
              "pitch": 59,
              "velocity": 113,
              "position": 5.333333333333333,
              "duration": 0.375
            },
            {
              "pitch": 57,
              "velocity": 111,
              "position": 5.333333333333333,
              "duration": 0.3958333333333333
            },
            {
              "pitch": 47,
              "velocity": 117,
              "position": 5.333333333333333,
              "duration": 0.4166666666666667
            },
            {
              "pitch": 51,
              "velocity": 101,
              "position": 5.333333333333333,
              "duration": 0.48333333333333334
            },
            {
              "pitch": 48,
              "velocity": 101,
              "position": 6,
              "duration": 0.2604166666666667
            },
            {
              "pitch": 60,
              "velocity": 111,
              "position": 6,
              "duration": 0.2916666666666667
            },
            {
              "pitch": 36,
              "velocity": 83,
              "position": 6,
              "duration": 0.3020833333333333
            },
            {
              "pitch": 58,
              "velocity": 79,
              "position": 6,
              "duration": 0.325
            },
            {
              "pitch": 52,
              "velocity": 117,
              "position": 6,
              "duration": 0.3333333333333333
            }
          ]
        },
        "12": {
          "ctab": {
            "srcChannel": 12,
            "name": "SolidGtr",
            "accType": "CHORD2",
            "editable": false,
            "mutedNotes": [],
            "mutedChords": [
              "dim7",
              "dim",
              "minMaj7(9)",
              "minMaj7",
              "min7(11)",
              "min7(9)",
              "min(9)",
              "m7b5",
              "min7",
              "min6",
              "min"
            ],
            "autoStart": false,
            "sourceChordNote": 0,
            "sourceChordType": "Maj",
            "ctb2Low": null,
            "ctb2Main": {
              "ntr": "ROOT_TRANSPOSITION",
              "ntt": "BYPASS",
              "bassOn": false,
              "chordRootUpperLimit": 8,
              "noteLowLimit": 0,
              "noteHighLimit": 79,
              "rtr": "PITCH_SHIFT"
            },
            "ctb2High": null
          },
          "notes": [
            {
              "pitch": 106,
              "velocity": 100,
              "position": 0,
              "duration": 0.15625
            },
            {
              "pitch": 58,
              "velocity": 55,
              "position": 0,
              "duration": 0.6041666666666666
            },
            {
              "pitch": 64,
              "velocity": 55,
              "position": 0.010416666666666666,
              "duration": 0.6041666666666666
            },
            {
              "pitch": 67,
              "velocity": 55,
              "position": 0.020833333333333332,
              "duration": 0.6041666666666666
            },
            {
              "pitch": 56,
              "velocity": 55,
              "position": 4.25,
              "duration": 0.052083333333333336
            },
            {
              "pitch": 62,
              "velocity": 55,
              "position": 4.260416666666667,
              "duration": 0.052083333333333336
            },
            {
              "pitch": 65,
              "velocity": 55,
              "position": 4.270833333333333,
              "duration": 0.052083333333333336
            },
            {
              "pitch": 108,
              "velocity": 66,
              "position": 4.25,
              "duration": 0.15625
            },
            {
              "pitch": 106,
              "velocity": 96,
              "position": 4.5,
              "duration": 0.15625
            },
            {
              "pitch": 56,
              "velocity": 50,
              "position": 4.5,
              "duration": 0.4375
            },
            {
              "pitch": 62,
              "velocity": 50,
              "position": 4.510416666666667,
              "duration": 0.4375
            },
            {
              "pitch": 65,
              "velocity": 50,
              "position": 4.520833333333333,
              "duration": 0.4375
            },
            {
              "pitch": 56,
              "velocity": 85,
              "position": 5,
              "duration": 0.052083333333333336
            },
            {
              "pitch": 62,
              "velocity": 85,
              "position": 5.010416666666667,
              "duration": 0.052083333333333336
            },
            {
              "pitch": 65,
              "velocity": 85,
              "position": 5.020833333333333,
              "duration": 0.052083333333333336
            },
            {
              "pitch": 117,
              "velocity": 98,
              "position": 5,
              "duration": 0.15625
            },
            {
              "pitch": 120,
              "velocity": 95,
              "position": 5.104166666666667,
              "duration": 0.19791666666666666
            },
            {
              "pitch": 100,
              "velocity": 106,
              "position": 5.333333333333333,
              "duration": 0.15625
            },
            {
              "pitch": 57,
              "velocity": 50,
              "position": 5.333333333333333,
              "duration": 0.40625
            },
            {
              "pitch": 63,
              "velocity": 50,
              "position": 5.34375,
              "duration": 0.40625
            },
            {
              "pitch": 66,
              "velocity": 50,
              "position": 5.354166666666667,
              "duration": 0.40625
            },
            {
              "pitch": 57,
              "velocity": 86,
              "position": 5.75,
              "duration": 0.052083333333333336
            },
            {
              "pitch": 63,
              "velocity": 86,
              "position": 5.760416666666667,
              "duration": 0.052083333333333336
            },
            {
              "pitch": 66,
              "velocity": 86,
              "position": 5.770833333333333,
              "duration": 0.052083333333333336
            },
            {
              "pitch": 116,
              "velocity": 88,
              "position": 5.75,
              "duration": 0.15625
            },
            {
              "pitch": 122,
              "velocity": 95,
              "position": 5.833333333333333,
              "duration": 0.19791666666666666
            },
            {
              "pitch": 106,
              "velocity": 106,
              "position": 6,
              "duration": 0.15625
            },
            {
              "pitch": 58,
              "velocity": 58,
              "position": 6,
              "duration": 0.6041666666666666
            },
            {
              "pitch": 64,
              "velocity": 58,
              "position": 6.010416666666667,
              "duration": 0.6041666666666666
            },
            {
              "pitch": 67,
              "velocity": 58,
              "position": 6.020833333333333,
              "duration": 0.6041666666666666
            }
          ]
        },
        "13": {
          "ctab": {
            "srcChannel": 13,
            "name": "E.Piano",
            "accType": "PAD",
            "editable": false,
            "mutedNotes": [],
            "mutedChords": [
              "dim7",
              "dim",
              "minMaj7(9)",
              "minMaj7",
              "min7(11)",
              "min7(9)",
              "min(9)",
              "m7b5",
              "min7",
              "min6",
              "min"
            ],
            "autoStart": false,
            "sourceChordNote": 0,
            "sourceChordType": "Maj",
            "ctb2Low": null,
            "ctb2Main": {
              "ntr": "ROOT_TRANSPOSITION",
              "ntt": "BYPASS",
              "bassOn": false,
              "chordRootUpperLimit": 8,
              "noteLowLimit": 54,
              "noteHighLimit": 65,
              "rtr": "PITCH_SHIFT"
            },
            "ctb2High": null
          },
          "notes": [
            {
              "pitch": 55,
              "velocity": 106,
              "position": 0,
              "duration": 0.3229166666666667
            },
            {
              "pitch": 64,
              "velocity": 106,
              "position": 0,
              "duration": 0.3229166666666667
            },
            {
              "pitch": 58,
              "velocity": 106,
              "position": 0,
              "duration": 0.3229166666666667
            },
            {
              "pitch": 53,
              "velocity": 93,
              "position": 4.5,
              "duration": 0.4895833333333333
            },
            {
              "pitch": 62,
              "velocity": 93,
              "position": 4.5,
              "duration": 0.4895833333333333
            },
            {
              "pitch": 58,
              "velocity": 93,
              "position": 4.5,
              "duration": 0.4895833333333333
            },
            {
              "pitch": 56,
              "velocity": 93,
              "position": 4.5,
              "duration": 0.4895833333333333
            },
            {
              "pitch": 54,
              "velocity": 97,
              "position": 5.333333333333333,
              "duration": 0.4895833333333333
            },
            {
              "pitch": 63,
              "velocity": 97,
              "position": 5.333333333333333,
              "duration": 0.4895833333333333
            },
            {
              "pitch": 59,
              "velocity": 97,
              "position": 5.333333333333333,
              "duration": 0.4895833333333333
            },
            {
              "pitch": 57,
              "velocity": 97,
              "position": 5.333333333333333,
              "duration": 0.4895833333333333
            },
            {
              "pitch": 55,
              "velocity": 107,
              "position": 6,
              "duration": 0.3229166666666667
            },
            {
              "pitch": 64,
              "velocity": 107,
              "position": 6,
              "duration": 0.3229166666666667
            },
            {
              "pitch": 60,
              "velocity": 107,
              "position": 6,
              "duration": 0.3229166666666667
            },
            {
              "pitch": 58,
              "velocity": 107,
              "position": 6,
              "duration": 0.3229166666666667
            }
          ]
        },
        "14": {
          "ctab": {
            "srcChannel": 14,
            "name": "TenorSax",
            "accType": "PHRASE1",
            "editable": false,
            "mutedNotes": [],
            "mutedChords": [
              "dim7",
              "dim",
              "minMaj7(9)",
              "minMaj7",
              "min7(11)",
              "min7(9)",
              "min(9)",
              "m7b5",
              "min7",
              "min6",
              "min"
            ],
            "autoStart": false,
            "sourceChordNote": 0,
            "sourceChordType": "Maj",
            "ctb2Low": null,
            "ctb2Main": {
              "ntr": "ROOT_TRANSPOSITION",
              "ntt": "BYPASS",
              "bassOn": false,
              "chordRootUpperLimit": 8,
              "noteLowLimit": 0,
              "noteHighLimit": 127,
              "rtr": "PITCH_SHIFT"
            },
            "ctb2High": null
          },
          "notes": [
            {
              "pitch": 58,
              "velocity": 88,
              "position": 4.5,
              "duration": 0.5
            },
            {
              "pitch": 59,
              "velocity": 88,
              "position": 5.333333333333333,
              "duration": 0.6666666666666666
            }
          ]
        },
        "15": {
          "ctab": {
            "srcChannel": 15,
            "name": "Brass",
            "accType": "PHRASE2",
            "editable": false,
            "mutedNotes": [],
            "mutedChords": [
              "dim7",
              "dim",
              "minMaj7(9)",
              "minMaj7",
              "min7(11)",
              "min7(9)",
              "min(9)",
              "m7b5",
              "min7",
              "min6",
              "min"
            ],
            "autoStart": false,
            "sourceChordNote": 0,
            "sourceChordType": "Maj",
            "ctb2Low": null,
            "ctb2Main": {
              "ntr": "ROOT_TRANSPOSITION",
              "ntt": "BYPASS",
              "bassOn": false,
              "chordRootUpperLimit": 5,
              "noteLowLimit": 0,
              "noteHighLimit": 127,
              "rtr": "PITCH_SHIFT"
            },
            "ctb2High": null
          },
          "notes": [
            {
              "pitch": 58,
              "velocity": 82,
              "position": 4.5,
              "duration": 0.8333333333333334
            },
            {
              "pitch": 77,
              "velocity": 88,
              "position": 4.5,
              "duration": 0.8333333333333334
            },
            {
              "pitch": 74,
              "velocity": 82,
              "position": 4.5,
              "duration": 0.8333333333333334
            },
            {
              "pitch": 68,
              "velocity": 82,
              "position": 4.5,
              "duration": 0.8333333333333334
            }
          ]
        }
      }
    },
    "Intro_C": {
      "type": "Intro_C",
      "sizeInBeats": 16,
      "channels": {
        "1": {
          "ctab": {
            "srcChannel": 1,
            "name": "Bass",
            "accType": "BASS",
            "editable": false,
            "mutedNotes": [],
            "mutedChords": [
              "1+2+5",
              "sus4",
              "1+5",
              "1+8",
              "7aug",
              "Maj7aug",
              "7(#9)",
              "7(b13)",
              "7(b9)",
              "7(13)",
              "7#11",
              "7(9)",
              "7b5",
              "7sus4",
              "7th",
              "aug",
              "Maj6(9)",
              "Maj7(9)",
              "Maj(9)",
              "Maj7#11",
              "Maj7",
              "Maj6",
              "Maj"
            ],
            "autoStart": false,
            "sourceChordNote": 0,
            "sourceChordType": "min",
            "ctb2Low": null,
            "ctb2Main": {
              "ntr": "ROOT_TRANSPOSITION",
              "ntt": "BYPASS",
              "bassOn": false,
              "chordRootUpperLimit": 8,
              "noteLowLimit": 28,
              "noteHighLimit": 127,
              "rtr": "PITCH_SHIFT"
            },
            "ctb2High": null
          },
          "notes": [
            {
              "pitch": 24,
              "velocity": 70,
              "position": 0,
              "duration": 0.48125
            },
            {
              "pitch": 24,
              "velocity": 111,
              "position": 0.5,
              "duration": 0.3145833333333333
            },
            {
              "pitch": 36,
              "velocity": 111,
              "position": 1,
              "duration": 0.3145833333333333
            },
            {
              "pitch": 24,
              "velocity": 111,
              "position": 1.3333333333333333,
              "duration": 0.14791666666666667
            },
            {
              "pitch": 24,
              "velocity": 65,
              "position": 1.5,
              "duration": 0.46875
            },
            {
              "pitch": 25,
              "velocity": 70,
              "position": 2,
              "duration": 0.48125
            },
            {
              "pitch": 25,
              "velocity": 111,
              "position": 2.5,
              "duration": 0.3145833333333333
            },
            {
              "pitch": 37,
              "velocity": 112,
              "position": 3,
              "duration": 0.3145833333333333
            },
            {
              "pitch": 24,
              "velocity": 70,
              "position": 4,
              "duration": 0.48125
            },
            {
              "pitch": 24,
              "velocity": 111,
              "position": 4.5,
              "duration": 0.3145833333333333
            },
            {
              "pitch": 36,
              "velocity": 111,
              "position": 5,
              "duration": 0.3145833333333333
            },
            {
              "pitch": 24,
              "velocity": 46,
              "position": 5.833333333333333,
              "duration": 0.14791666666666667
            },
            {
              "pitch": 30,
              "velocity": 70,
              "position": 6,
              "duration": 0.48125
            },
            {
              "pitch": 30,
              "velocity": 70,
              "position": 6.5,
              "duration": 0.5
            },
            {
              "pitch": 37,
              "velocity": 70,
              "position": 7,
              "duration": 0.14791666666666667
            },
            {
              "pitch": 34,
              "velocity": 70,
              "position": 7.333333333333333,
              "duration": 0.6479166666666667
            },
            {
              "pitch": 29,
              "velocity": 70,
              "position": 8,
              "duration": 0.48125
            },
            {
              "pitch": 29,
              "velocity": 111,
              "position": 8.5,
              "duration": 0.3145833333333333
            },
            {
              "pitch": 41,
              "velocity": 111,
              "position": 9,
              "duration": 0.3145833333333333
            },
            {
              "pitch": 29,
              "velocity": 46,
              "position": 9.833333333333334,
              "duration": 0.14791666666666667
            },
            {
              "pitch": 29,
              "velocity": 70,
              "position": 10,
              "duration": 0.48125
            },
            {
              "pitch": 29,
              "velocity": 111,
              "position": 10.5,
              "duration": 0.3145833333333333
            },
            {
              "pitch": 41,
              "velocity": 112,
              "position": 11,
              "duration": 0.3145833333333333
            },
            {
              "pitch": 36,
              "velocity": 110,
              "position": 11.833333333333334,
              "duration": 0.16666666666666666
            },
            {
              "pitch": 31,
              "velocity": 70,
              "position": 12,
              "duration": 0.3145833333333333
            },
            {
              "pitch": 31,
              "velocity": 71,
              "position": 12.5,
              "duration": 0.3145833333333333
            },
            {
              "pitch": 31,
              "velocity": 71,
              "position": 13,
              "duration": 0.3145833333333333
            },
            {
              "pitch": 31,
              "velocity": 60,
              "position": 13.5,
              "duration": 0.3145833333333333
            },
            {
              "pitch": 31,
              "velocity": 70,
              "position": 14,
              "duration": 0.48125
            }
          ]
        },
        "2": {
          "ctab": {
            "srcChannel": 2,
            "name": "Clavi",
            "accType": "CHORD1",
            "editable": false,
            "mutedNotes": [],
            "mutedChords": [
              "1+2+5",
              "sus4",
              "1+5",
              "1+8",
              "7aug",
              "Maj7aug",
              "7(#9)",
              "7(b13)",
              "7(b9)",
              "7(13)",
              "7#11",
              "7(9)",
              "7b5",
              "7sus4",
              "7th",
              "aug",
              "Maj6(9)",
              "Maj7(9)",
              "Maj(9)",
              "Maj7#11",
              "Maj7",
              "Maj6",
              "Maj"
            ],
            "autoStart": false,
            "sourceChordNote": 0,
            "sourceChordType": "min",
            "ctb2Low": null,
            "ctb2Main": {
              "ntr": "ROOT_TRANSPOSITION",
              "ntt": "BYPASS",
              "bassOn": false,
              "chordRootUpperLimit": 10,
              "noteLowLimit": 0,
              "noteHighLimit": 127,
              "rtr": "PITCH_SHIFT"
            },
            "ctb2High": null
          },
          "notes": [
            {
              "pitch": 36,
              "velocity": 70,
              "position": 0.010416666666666666,
              "duration": 0.17708333333333334
            },
            {
              "pitch": 51,
              "velocity": 95,
              "position": 0.3333333333333333,
              "duration": 0.07708333333333334
            },
            {
              "pitch": 58,
              "velocity": 116,
              "position": 0.3333333333333333,
              "duration": 0.13541666666666666
            },
            {
              "pitch": 60,
              "velocity": 88,
              "position": 0.3333333333333333,
              "duration": 0.14583333333333334
            },
            {
              "pitch": 48,
              "velocity": 60,
              "position": 0.8333333333333334,
              "duration": 0.052083333333333336
            },
            {
              "pitch": 51,
              "velocity": 83,
              "position": 1,
              "duration": 0.125
            },
            {
              "pitch": 58,
              "velocity": 110,
              "position": 1,
              "duration": 0.29375
            },
            {
              "pitch": 60,
              "velocity": 95,
              "position": 1,
              "duration": 0.33541666666666664
            },
            {
              "pitch": 49,
              "velocity": 66,
              "position": 1.8333333333333333,
              "duration": 0.08333333333333333
            },
            {
              "pitch": 53,
              "velocity": 107,
              "position": 2,
              "duration": 0.14791666666666667
            },
            {
              "pitch": 59,
              "velocity": 110,
              "position": 2,
              "duration": 0.19791666666666666
            },
            {
              "pitch": 63,
              "velocity": 88,
              "position": 2,
              "duration": 0.20833333333333334
            },
            {
              "pitch": 53,
              "velocity": 107,
              "position": 2.8333333333333335,
              "duration": 0.10416666666666667
            },
            {
              "pitch": 59,
              "velocity": 113,
              "position": 2.8333333333333335,
              "duration": 0.10416666666666667
            },
            {
              "pitch": 63,
              "velocity": 110,
              "position": 2.8333333333333335,
              "duration": 0.11458333333333333
            },
            {
              "pitch": 49,
              "velocity": 83,
              "position": 3.3333333333333335,
              "duration": 0.15
            },
            {
              "pitch": 59,
              "velocity": 93,
              "position": 3.5,
              "duration": 0.3020833333333333
            },
            {
              "pitch": 63,
              "velocity": 67,
              "position": 3.5,
              "duration": 0.3020833333333333
            },
            {
              "pitch": 53,
              "velocity": 107,
              "position": 3.5,
              "duration": 0.3125
            },
            {
              "pitch": 43,
              "velocity": 78,
              "position": 3.8333333333333335,
              "duration": 0.23958333333333334
            },
            {
              "pitch": 36,
              "velocity": 70,
              "position": 4,
              "duration": 0.18958333333333333
            },
            {
              "pitch": 51,
              "velocity": 93,
              "position": 4.333333333333333,
              "duration": 0.09583333333333334
            },
            {
              "pitch": 58,
              "velocity": 78,
              "position": 4.333333333333333,
              "duration": 0.125
            },
            {
              "pitch": 60,
              "velocity": 93,
              "position": 4.333333333333333,
              "duration": 0.14583333333333334
            },
            {
              "pitch": 48,
              "velocity": 93,
              "position": 4.833333333333333,
              "duration": 0.12708333333333333
            },
            {
              "pitch": 51,
              "velocity": 110,
              "position": 5,
              "duration": 0.17708333333333334
            },
            {
              "pitch": 60,
              "velocity": 110,
              "position": 5,
              "duration": 0.23958333333333334
            },
            {
              "pitch": 58,
              "velocity": 66,
              "position": 5,
              "duration": 0.23958333333333334
            },
            {
              "pitch": 51,
              "velocity": 73,
              "position": 5.5,
              "duration": 0.19791666666666666
            },
            {
              "pitch": 58,
              "velocity": 81,
              "position": 5.5,
              "duration": 0.2708333333333333
            },
            {
              "pitch": 60,
              "velocity": 67,
              "position": 5.5,
              "duration": 0.27291666666666664
            },
            {
              "pitch": 42,
              "velocity": 78,
              "position": 6,
              "duration": 0.11458333333333333
            },
            {
              "pitch": 52,
              "velocity": 93,
              "position": 6,
              "duration": 0.125
            },
            {
              "pitch": 58,
              "velocity": 110,
              "position": 6,
              "duration": 0.19791666666666666
            },
            {
              "pitch": 56,
              "velocity": 83,
              "position": 6,
              "duration": 0.19791666666666666
            },
            {
              "pitch": 61,
              "velocity": 116,
              "position": 6,
              "duration": 0.22916666666666666
            },
            {
              "pitch": 30,
              "velocity": 81,
              "position": 6,
              "duration": 0.22916666666666666
            },
            {
              "pitch": 52,
              "velocity": 104,
              "position": 6.5,
              "duration": 0.09375
            },
            {
              "pitch": 56,
              "velocity": 127,
              "position": 6.5,
              "duration": 0.11458333333333333
            },
            {
              "pitch": 58,
              "velocity": 116,
              "position": 6.5,
              "duration": 0.12916666666666668
            },
            {
              "pitch": 61,
              "velocity": 124,
              "position": 6.5,
              "duration": 0.17708333333333334
            },
            {
              "pitch": 42,
              "velocity": 78,
              "position": 6.833333333333333,
              "duration": 0.16666666666666666
            },
            {
              "pitch": 30,
              "velocity": 88,
              "position": 7,
              "duration": 0.19791666666666666
            },
            {
              "pitch": 61,
              "velocity": 110,
              "position": 7.333333333333333,
              "duration": 0.3333333333333333
            },
            {
              "pitch": 58,
              "velocity": 95,
              "position": 7.333333333333333,
              "duration": 0.40625
            },
            {
              "pitch": 52,
              "velocity": 95,
              "position": 7.333333333333333,
              "duration": 0.4375
            },
            {
              "pitch": 56,
              "velocity": 120,
              "position": 7.333333333333333,
              "duration": 0.46875
            },
            {
              "pitch": 36,
              "velocity": 45,
              "position": 7.833333333333333,
              "duration": 0.14583333333333334
            },
            {
              "pitch": 29,
              "velocity": 95,
              "position": 8,
              "duration": 0.3020833333333333
            },
            {
              "pitch": 57,
              "velocity": 110,
              "position": 8.333333333333334,
              "duration": 0.11458333333333333
            },
            {
              "pitch": 67,
              "velocity": 63,
              "position": 8.333333333333334,
              "duration": 0.13541666666666666
            },
            {
              "pitch": 63,
              "velocity": 110,
              "position": 8.333333333333334,
              "duration": 0.14791666666666667
            },
            {
              "pitch": 41,
              "velocity": 83,
              "position": 8.833333333333334,
              "duration": 0.11666666666666667
            },
            {
              "pitch": 61,
              "velocity": 47,
              "position": 9,
              "duration": 0.04375
            },
            {
              "pitch": 57,
              "velocity": 98,
              "position": 9,
              "duration": 0.11666666666666667
            },
            {
              "pitch": 67,
              "velocity": 93,
              "position": 9,
              "duration": 0.16666666666666666
            },
            {
              "pitch": 63,
              "velocity": 88,
              "position": 9,
              "duration": 0.21041666666666667
            },
            {
              "pitch": 41,
              "velocity": 40,
              "position": 9.333333333333334,
              "duration": 0.0625
            },
            {
              "pitch": 66,
              "velocity": 72,
              "position": 9.5,
              "duration": 0.2
            },
            {
              "pitch": 72,
              "velocity": 83,
              "position": 9.5,
              "duration": 0.41875
            },
            {
              "pitch": 67,
              "velocity": 78,
              "position": 9.666666666666666,
              "duration": 0.3020833333333333
            },
            {
              "pitch": 72,
              "velocity": 104,
              "position": 10,
              "duration": 0.23958333333333334
            },
            {
              "pitch": 65,
              "velocity": 98,
              "position": 10,
              "duration": 0.24375
            },
            {
              "pitch": 63,
              "velocity": 76,
              "position": 10.5,
              "duration": 0.22916666666666666
            },
            {
              "pitch": 56,
              "velocity": 78,
              "position": 11,
              "duration": 0.1375
            },
            {
              "pitch": 60,
              "velocity": 95,
              "position": 11,
              "duration": 0.3145833333333333
            },
            {
              "pitch": 57,
              "velocity": 66,
              "position": 11.166666666666666,
              "duration": 0.19791666666666666
            },
            {
              "pitch": 41,
              "velocity": 78,
              "position": 11.333333333333334,
              "duration": 0.1375
            },
            {
              "pitch": 55,
              "velocity": 100,
              "position": 11.5,
              "duration": 0.23958333333333334
            },
            {
              "pitch": 60,
              "velocity": 95,
              "position": 11.5,
              "duration": 0.3854166666666667
            },
            {
              "pitch": 38,
              "velocity": 63,
              "position": 11.833333333333334,
              "duration": 0.17916666666666667
            },
            {
              "pitch": 58,
              "velocity": 70,
              "position": 12,
              "duration": 0.15625
            },
            {
              "pitch": 53,
              "velocity": 104,
              "position": 12,
              "duration": 0.19791666666666666
            },
            {
              "pitch": 59,
              "velocity": 63,
              "position": 12.166666666666666,
              "duration": 0.08333333333333333
            },
            {
              "pitch": 31,
              "velocity": 88,
              "position": 12,
              "duration": 0.2708333333333333
            },
            {
              "pitch": 62,
              "velocity": 100,
              "position": 12,
              "duration": 0.27291666666666664
            },
            {
              "pitch": 53,
              "velocity": 110,
              "position": 12.5,
              "duration": 0.16666666666666666
            },
            {
              "pitch": 59,
              "velocity": 104,
              "position": 12.5,
              "duration": 0.19791666666666666
            },
            {
              "pitch": 31,
              "velocity": 100,
              "position": 12.5,
              "duration": 0.2125
            },
            {
              "pitch": 43,
              "velocity": 78,
              "position": 13,
              "duration": 0.1375
            },
            {
              "pitch": 53,
              "velocity": 104,
              "position": 13,
              "duration": 0.15833333333333333
            },
            {
              "pitch": 59,
              "velocity": 100,
              "position": 13,
              "duration": 0.20833333333333334
            },
            {
              "pitch": 31,
              "velocity": 98,
              "position": 13,
              "duration": 0.22291666666666668
            },
            {
              "pitch": 53,
              "velocity": 110,
              "position": 13.5,
              "duration": 0.14583333333333334
            },
            {
              "pitch": 43,
              "velocity": 86,
              "position": 13.5,
              "duration": 0.16666666666666666
            },
            {
              "pitch": 59,
              "velocity": 113,
              "position": 13.5,
              "duration": 0.18958333333333333
            },
            {
              "pitch": 31,
              "velocity": 104,
              "position": 13.5,
              "duration": 0.22916666666666666
            },
            {
              "pitch": 31,
              "velocity": 107,
              "position": 14,
              "duration": 0.24375
            },
            {
              "pitch": 43,
              "velocity": 91,
              "position": 14,
              "duration": 0.25
            },
            {
              "pitch": 53,
              "velocity": 104,
              "position": 14,
              "duration": 0.2604166666666667
            },
            {
              "pitch": 59,
              "velocity": 104,
              "position": 14,
              "duration": 0.2708333333333333
            }
          ]
        },
        "3": {
          "ctab": {
            "srcChannel": 3,
            "name": "SolidGtr",
            "accType": "CHORD2",
            "editable": false,
            "mutedNotes": [],
            "mutedChords": [
              "1+2+5",
              "sus4",
              "1+5",
              "1+8",
              "7aug",
              "Maj7aug",
              "7(#9)",
              "7(b13)",
              "7(b9)",
              "7(13)",
              "7#11",
              "7(9)",
              "7b5",
              "7sus4",
              "7th",
              "aug",
              "Maj6(9)",
              "Maj7(9)",
              "Maj(9)",
              "Maj7#11",
              "Maj7",
              "Maj6",
              "Maj"
            ],
            "autoStart": false,
            "sourceChordNote": 0,
            "sourceChordType": "min",
            "ctb2Low": null,
            "ctb2Main": {
              "ntr": "ROOT_TRANSPOSITION",
              "ntt": "BYPASS",
              "bassOn": false,
              "chordRootUpperLimit": 8,
              "noteLowLimit": 58,
              "noteHighLimit": 69,
              "rtr": "PITCH_SHIFT"
            },
            "ctb2High": null
          },
          "notes": [
            {
              "pitch": 106,
              "velocity": 110,
              "position": 0,
              "duration": 0.15625
            },
            {
              "pitch": 58,
              "velocity": 53,
              "position": 0,
              "duration": 0.3020833333333333
            },
            {
              "pitch": 63,
              "velocity": 53,
              "position": 0.010416666666666666,
              "duration": 0.30416666666666664
            },
            {
              "pitch": 67,
              "velocity": 53,
              "position": 0.020833333333333332,
              "duration": 0.3020833333333333
            },
            {
              "pitch": 63,
              "velocity": 55,
              "position": 0.34375,
              "duration": 0.1375
            },
            {
              "pitch": 58,
              "velocity": 55,
              "position": 0.3541666666666667,
              "duration": 0.13541666666666666
            },
            {
              "pitch": 67,
              "velocity": 55,
              "position": 0.3333333333333333,
              "duration": 0.15625
            },
            {
              "pitch": 107,
              "velocity": 110,
              "position": 0.3333333333333333,
              "duration": 0.15625
            },
            {
              "pitch": 58,
              "velocity": 82,
              "position": 0.5,
              "duration": 0.14583333333333334
            },
            {
              "pitch": 67,
              "velocity": 82,
              "position": 0.5208333333333334,
              "duration": 0.125
            },
            {
              "pitch": 63,
              "velocity": 82,
              "position": 0.5104166666666666,
              "duration": 0.13541666666666666
            },
            {
              "pitch": 108,
              "velocity": 50,
              "position": 0.5,
              "duration": 0.15625
            },
            {
              "pitch": 63,
              "velocity": 55,
              "position": 0.84375,
              "duration": 0.1375
            },
            {
              "pitch": 58,
              "velocity": 55,
              "position": 0.8541666666666666,
              "duration": 0.13541666666666666
            },
            {
              "pitch": 67,
              "velocity": 55,
              "position": 0.8333333333333334,
              "duration": 0.15625
            },
            {
              "pitch": 100,
              "velocity": 100,
              "position": 0.8333333333333334,
              "duration": 0.15625
            },
            {
              "pitch": 63,
              "velocity": 72,
              "position": 1.0104166666666667,
              "duration": 0.03333333333333333
            },
            {
              "pitch": 58,
              "velocity": 72,
              "position": 1.0208333333333333,
              "duration": 0.03125
            },
            {
              "pitch": 67,
              "velocity": 72,
              "position": 1.0208333333333333,
              "duration": 0.052083333333333336
            },
            {
              "pitch": 111,
              "velocity": 98,
              "position": 1,
              "duration": 0.15625
            },
            {
              "pitch": 63,
              "velocity": 55,
              "position": 1.34375,
              "duration": 0.13541666666666666
            },
            {
              "pitch": 58,
              "velocity": 55,
              "position": 1.3541666666666667,
              "duration": 0.12708333333333333
            },
            {
              "pitch": 67,
              "velocity": 55,
              "position": 1.3333333333333333,
              "duration": 0.14791666666666667
            },
            {
              "pitch": 108,
              "velocity": 106,
              "position": 1.3333333333333333,
              "duration": 0.15625
            },
            {
              "pitch": 63,
              "velocity": 82,
              "position": 1.5,
              "duration": 0.03333333333333333
            },
            {
              "pitch": 58,
              "velocity": 82,
              "position": 1.5104166666666667,
              "duration": 0.03125
            },
            {
              "pitch": 67,
              "velocity": 82,
              "position": 1.5104166666666667,
              "duration": 0.052083333333333336
            },
            {
              "pitch": 112,
              "velocity": 109,
              "position": 1.5,
              "duration": 0.15625
            },
            {
              "pitch": 63,
              "velocity": 40,
              "position": 1.84375,
              "duration": 0.1375
            },
            {
              "pitch": 105,
              "velocity": 68,
              "position": 1.8333333333333333,
              "duration": 0.15625
            },
            {
              "pitch": 58,
              "velocity": 40,
              "position": 1.8541666666666667,
              "duration": 0.13541666666666666
            },
            {
              "pitch": 67,
              "velocity": 40,
              "position": 1.8333333333333333,
              "duration": 0.15625
            },
            {
              "pitch": 120,
              "velocity": 99,
              "position": 1.8541666666666667,
              "duration": 0.21875
            },
            {
              "pitch": 106,
              "velocity": 107,
              "position": 2,
              "duration": 0.15625
            },
            {
              "pitch": 65,
              "velocity": 55,
              "position": 2.0104166666666665,
              "duration": 0.14791666666666667
            },
            {
              "pitch": 68,
              "velocity": 55,
              "position": 2.0208333333333335,
              "duration": 0.14583333333333334
            },
            {
              "pitch": 59,
              "velocity": 55,
              "position": 2,
              "duration": 0.16666666666666666
            },
            {
              "pitch": 65,
              "velocity": 82,
              "position": 2.5,
              "duration": 0.03333333333333333
            },
            {
              "pitch": 59,
              "velocity": 82,
              "position": 2.5104166666666665,
              "duration": 0.03125
            },
            {
              "pitch": 68,
              "velocity": 82,
              "position": 2.5104166666666665,
              "duration": 0.052083333333333336
            },
            {
              "pitch": 115,
              "velocity": 92,
              "position": 2.5,
              "duration": 0.15625
            },
            {
              "pitch": 65,
              "velocity": 55,
              "position": 2.84375,
              "duration": 0.1375
            },
            {
              "pitch": 59,
              "velocity": 55,
              "position": 2.8541666666666665,
              "duration": 0.13541666666666666
            },
            {
              "pitch": 68,
              "velocity": 55,
              "position": 2.8333333333333335,
              "duration": 0.15625
            },
            {
              "pitch": 107,
              "velocity": 108,
              "position": 2.8333333333333335,
              "duration": 0.15625
            },
            {
              "pitch": 65,
              "velocity": 82,
              "position": 3,
              "duration": 0.03333333333333333
            },
            {
              "pitch": 59,
              "velocity": 82,
              "position": 3.0104166666666665,
              "duration": 0.03125
            },
            {
              "pitch": 68,
              "velocity": 82,
              "position": 3.0104166666666665,
              "duration": 0.052083333333333336
            },
            {
              "pitch": 111,
              "velocity": 98,
              "position": 3,
              "duration": 0.15625
            },
            {
              "pitch": 65,
              "velocity": 68,
              "position": 3.34375,
              "duration": 0.1375
            },
            {
              "pitch": 59,
              "velocity": 68,
              "position": 3.3541666666666665,
              "duration": 0.13541666666666666
            },
            {
              "pitch": 68,
              "velocity": 68,
              "position": 3.3333333333333335,
              "duration": 0.15625
            },
            {
              "pitch": 99,
              "velocity": 52,
              "position": 3.3333333333333335,
              "duration": 0.15625
            },
            {
              "pitch": 122,
              "velocity": 99,
              "position": 3.3020833333333335,
              "duration": 0.21875
            },
            {
              "pitch": 100,
              "velocity": 110,
              "position": 3.5,
              "duration": 0.15625
            },
            {
              "pitch": 63,
              "velocity": 116,
              "position": 3.5104166666666665,
              "duration": 0.8041666666666667
            },
            {
              "pitch": 58,
              "velocity": 116,
              "position": 3.5,
              "duration": 0.8229166666666666
            },
            {
              "pitch": 67,
              "velocity": 118,
              "position": 3.5208333333333335,
              "duration": 0.8020833333333334
            },
            {
              "pitch": 63,
              "velocity": 68,
              "position": 4.34375,
              "duration": 0.1375
            },
            {
              "pitch": 58,
              "velocity": 68,
              "position": 4.354166666666667,
              "duration": 0.13541666666666666
            },
            {
              "pitch": 67,
              "velocity": 68,
              "position": 4.333333333333333,
              "duration": 0.15625
            },
            {
              "pitch": 111,
              "velocity": 88,
              "position": 4.333333333333333,
              "duration": 0.15625
            },
            {
              "pitch": 106,
              "velocity": 68,
              "position": 4.5,
              "duration": 0.15625
            },
            {
              "pitch": 67,
              "velocity": 40,
              "position": 4.520833333333333,
              "duration": 0.2916666666666667
            },
            {
              "pitch": 63,
              "velocity": 40,
              "position": 4.510416666666667,
              "duration": 0.3020833333333333
            },
            {
              "pitch": 58,
              "velocity": 40,
              "position": 4.5,
              "duration": 0.3125
            },
            {
              "pitch": 107,
              "velocity": 104,
              "position": 4.833333333333333,
              "duration": 0.15625
            },
            {
              "pitch": 63,
              "velocity": 55,
              "position": 4.84375,
              "duration": 0.14791666666666667
            },
            {
              "pitch": 58,
              "velocity": 55,
              "position": 4.854166666666667,
              "duration": 0.14583333333333334
            },
            {
              "pitch": 67,
              "velocity": 55,
              "position": 4.833333333333333,
              "duration": 0.16666666666666666
            },
            {
              "pitch": 63,
              "velocity": 82,
              "position": 5,
              "duration": 0.03333333333333333
            },
            {
              "pitch": 58,
              "velocity": 82,
              "position": 5.010416666666667,
              "duration": 0.03125
            },
            {
              "pitch": 67,
              "velocity": 82,
              "position": 5.010416666666667,
              "duration": 0.052083333333333336
            },
            {
              "pitch": 102,
              "velocity": 70,
              "position": 5,
              "duration": 0.15625
            },
            {
              "pitch": 109,
              "velocity": 106,
              "position": 5.333333333333333,
              "duration": 0.15625
            },
            {
              "pitch": 63,
              "velocity": 55,
              "position": 5.34375,
              "duration": 0.14791666666666667
            },
            {
              "pitch": 58,
              "velocity": 55,
              "position": 5.354166666666667,
              "duration": 0.14583333333333334
            },
            {
              "pitch": 67,
              "velocity": 55,
              "position": 5.333333333333333,
              "duration": 0.16666666666666666
            },
            {
              "pitch": 108,
              "velocity": 53,
              "position": 5.5,
              "duration": 0.15625
            },
            {
              "pitch": 63,
              "velocity": 40,
              "position": 5.84375,
              "duration": 0.1375
            },
            {
              "pitch": 58,
              "velocity": 40,
              "position": 5.854166666666667,
              "duration": 0.13541666666666666
            },
            {
              "pitch": 67,
              "velocity": 40,
              "position": 5.833333333333333,
              "duration": 0.15625
            },
            {
              "pitch": 99,
              "velocity": 49,
              "position": 5.833333333333333,
              "duration": 0.15625
            },
            {
              "pitch": 121,
              "velocity": 99,
              "position": 5.802083333333333,
              "duration": 0.21875
            },
            {
              "pitch": 100,
              "velocity": 107,
              "position": 6,
              "duration": 0.15625
            },
            {
              "pitch": 64,
              "velocity": 55,
              "position": 6.010416666666667,
              "duration": 0.14791666666666667
            },
            {
              "pitch": 58,
              "velocity": 55,
              "position": 6,
              "duration": 0.16666666666666666
            },
            {
              "pitch": 66,
              "velocity": 55,
              "position": 6.020833333333333,
              "duration": 0.14583333333333334
            },
            {
              "pitch": 64,
              "velocity": 82,
              "position": 6.5,
              "duration": 0.03333333333333333
            },
            {
              "pitch": 58,
              "velocity": 82,
              "position": 6.510416666666667,
              "duration": 0.03125
            },
            {
              "pitch": 66,
              "velocity": 82,
              "position": 6.510416666666667,
              "duration": 0.052083333333333336
            },
            {
              "pitch": 118,
              "velocity": 72,
              "position": 6.510416666666667,
              "duration": 0.15625
            },
            {
              "pitch": 66,
              "velocity": 82,
              "position": 6.833333333333333,
              "duration": 0.14583333333333334
            },
            {
              "pitch": 58,
              "velocity": 82,
              "position": 6.854166666666667,
              "duration": 0.13541666666666666
            },
            {
              "pitch": 64,
              "velocity": 82,
              "position": 6.84375,
              "duration": 0.14583333333333334
            },
            {
              "pitch": 107,
              "velocity": 70,
              "position": 6.833333333333333,
              "duration": 0.15625
            },
            {
              "pitch": 108,
              "velocity": 102,
              "position": 7,
              "duration": 0.15625
            },
            {
              "pitch": 64,
              "velocity": 55,
              "position": 7,
              "duration": 0.2916666666666667
            },
            {
              "pitch": 58,
              "velocity": 55,
              "position": 7.010416666666667,
              "duration": 0.28125
            },
            {
              "pitch": 66,
              "velocity": 55,
              "position": 7.010416666666667,
              "duration": 0.3020833333333333
            },
            {
              "pitch": 64,
              "velocity": 68,
              "position": 7.34375,
              "duration": 0.1375
            },
            {
              "pitch": 58,
              "velocity": 68,
              "position": 7.354166666666667,
              "duration": 0.13541666666666666
            },
            {
              "pitch": 66,
              "velocity": 68,
              "position": 7.333333333333333,
              "duration": 0.15625
            },
            {
              "pitch": 105,
              "velocity": 64,
              "position": 7.333333333333333,
              "duration": 0.15625
            },
            {
              "pitch": 106,
              "velocity": 102,
              "position": 7.5,
              "duration": 0.15625
            },
            {
              "pitch": 66,
              "velocity": 55,
              "position": 7.520833333333333,
              "duration": 0.2916666666666667
            },
            {
              "pitch": 64,
              "velocity": 55,
              "position": 7.510416666666667,
              "duration": 0.3145833333333333
            },
            {
              "pitch": 58,
              "velocity": 55,
              "position": 7.5,
              "duration": 0.3333333333333333
            },
            {
              "pitch": 103,
              "velocity": 70,
              "position": 7.833333333333333,
              "duration": 0.15625
            },
            {
              "pitch": 64,
              "velocity": 82,
              "position": 7.84375,
              "duration": 0.14791666666666667
            },
            {
              "pitch": 58,
              "velocity": 82,
              "position": 7.854166666666667,
              "duration": 0.14583333333333334
            },
            {
              "pitch": 66,
              "velocity": 82,
              "position": 7.833333333333333,
              "duration": 0.16666666666666666
            },
            {
              "pitch": 123,
              "velocity": 99,
              "position": 7.802083333333333,
              "duration": 0.21875
            },
            {
              "pitch": 106,
              "velocity": 110,
              "position": 8,
              "duration": 0.15625
            },
            {
              "pitch": 67,
              "velocity": 55,
              "position": 8.010416666666666,
              "duration": 0.3020833333333333
            },
            {
              "pitch": 63,
              "velocity": 55,
              "position": 8,
              "duration": 0.3229166666666667
            },
            {
              "pitch": 57,
              "velocity": 55,
              "position": 8.010416666666666,
              "duration": 0.3125
            },
            {
              "pitch": 63,
              "velocity": 68,
              "position": 8.333333333333334,
              "duration": 0.1375
            },
            {
              "pitch": 57,
              "velocity": 68,
              "position": 8.34375,
              "duration": 0.13541666666666666
            },
            {
              "pitch": 67,
              "velocity": 68,
              "position": 8.322916666666666,
              "duration": 0.15625
            },
            {
              "pitch": 107,
              "velocity": 110,
              "position": 8.333333333333334,
              "duration": 0.15625
            },
            {
              "pitch": 108,
              "velocity": 50,
              "position": 8.5,
              "duration": 0.15625
            },
            {
              "pitch": 67,
              "velocity": 40,
              "position": 8.510416666666666,
              "duration": 0.2916666666666667
            },
            {
              "pitch": 57,
              "velocity": 40,
              "position": 8.489583333333334,
              "duration": 0.3125
            },
            {
              "pitch": 63,
              "velocity": 40,
              "position": 8.5,
              "duration": 0.3020833333333333
            },
            {
              "pitch": 63,
              "velocity": 55,
              "position": 8.833333333333334,
              "duration": 0.1375
            },
            {
              "pitch": 57,
              "velocity": 55,
              "position": 8.84375,
              "duration": 0.13541666666666666
            },
            {
              "pitch": 67,
              "velocity": 55,
              "position": 8.822916666666666,
              "duration": 0.15625
            },
            {
              "pitch": 100,
              "velocity": 100,
              "position": 8.833333333333334,
              "duration": 0.15625
            },
            {
              "pitch": 63,
              "velocity": 72,
              "position": 9,
              "duration": 0.03333333333333333
            },
            {
              "pitch": 57,
              "velocity": 72,
              "position": 9.010416666666666,
              "duration": 0.03125
            },
            {
              "pitch": 67,
              "velocity": 72,
              "position": 9.010416666666666,
              "duration": 0.052083333333333336
            },
            {
              "pitch": 111,
              "velocity": 98,
              "position": 9,
              "duration": 0.15625
            },
            {
              "pitch": 63,
              "velocity": 55,
              "position": 9.333333333333334,
              "duration": 0.13541666666666666
            },
            {
              "pitch": 57,
              "velocity": 55,
              "position": 9.34375,
              "duration": 0.12708333333333333
            },
            {
              "pitch": 67,
              "velocity": 55,
              "position": 9.322916666666666,
              "duration": 0.14791666666666667
            },
            {
              "pitch": 108,
              "velocity": 106,
              "position": 9.333333333333334,
              "duration": 0.15625
            },
            {
              "pitch": 63,
              "velocity": 82,
              "position": 9.489583333333334,
              "duration": 0.03333333333333333
            },
            {
              "pitch": 57,
              "velocity": 82,
              "position": 9.5,
              "duration": 0.03125
            },
            {
              "pitch": 67,
              "velocity": 82,
              "position": 9.5,
              "duration": 0.052083333333333336
            },
            {
              "pitch": 112,
              "velocity": 109,
              "position": 9.5,
              "duration": 0.15625
            },
            {
              "pitch": 63,
              "velocity": 40,
              "position": 9.833333333333334,
              "duration": 0.1375
            },
            {
              "pitch": 57,
              "velocity": 40,
              "position": 9.84375,
              "duration": 0.13541666666666666
            },
            {
              "pitch": 67,
              "velocity": 40,
              "position": 9.822916666666666,
              "duration": 0.15625
            },
            {
              "pitch": 105,
              "velocity": 68,
              "position": 9.833333333333334,
              "duration": 0.15625
            },
            {
              "pitch": 63,
              "velocity": 55,
              "position": 10,
              "duration": 0.14791666666666667
            },
            {
              "pitch": 67,
              "velocity": 55,
              "position": 10.010416666666666,
              "duration": 0.14583333333333334
            },
            {
              "pitch": 106,
              "velocity": 107,
              "position": 10,
              "duration": 0.15625
            },
            {
              "pitch": 57,
              "velocity": 55,
              "position": 9.989583333333334,
              "duration": 0.16666666666666666
            },
            {
              "pitch": 63,
              "velocity": 82,
              "position": 10.489583333333334,
              "duration": 0.03333333333333333
            },
            {
              "pitch": 57,
              "velocity": 82,
              "position": 10.5,
              "duration": 0.03125
            },
            {
              "pitch": 67,
              "velocity": 82,
              "position": 10.5,
              "duration": 0.052083333333333336
            },
            {
              "pitch": 115,
              "velocity": 92,
              "position": 10.5,
              "duration": 0.15625
            },
            {
              "pitch": 63,
              "velocity": 55,
              "position": 10.833333333333334,
              "duration": 0.1375
            },
            {
              "pitch": 57,
              "velocity": 55,
              "position": 10.84375,
              "duration": 0.13541666666666666
            },
            {
              "pitch": 67,
              "velocity": 55,
              "position": 10.822916666666666,
              "duration": 0.15625
            },
            {
              "pitch": 107,
              "velocity": 108,
              "position": 10.833333333333334,
              "duration": 0.15625
            },
            {
              "pitch": 63,
              "velocity": 82,
              "position": 10.989583333333334,
              "duration": 0.03333333333333333
            },
            {
              "pitch": 57,
              "velocity": 82,
              "position": 11,
              "duration": 0.03125
            },
            {
              "pitch": 67,
              "velocity": 82,
              "position": 11,
              "duration": 0.052083333333333336
            },
            {
              "pitch": 111,
              "velocity": 98,
              "position": 11,
              "duration": 0.15625
            },
            {
              "pitch": 63,
              "velocity": 40,
              "position": 11.333333333333334,
              "duration": 0.1375
            },
            {
              "pitch": 57,
              "velocity": 40,
              "position": 11.34375,
              "duration": 0.13541666666666666
            },
            {
              "pitch": 67,
              "velocity": 40,
              "position": 11.322916666666666,
              "duration": 0.15625
            },
            {
              "pitch": 99,
              "velocity": 52,
              "position": 11.333333333333334,
              "duration": 0.15625
            },
            {
              "pitch": 100,
              "velocity": 110,
              "position": 11.5,
              "duration": 0.15625
            },
            {
              "pitch": 67,
              "velocity": 55,
              "position": 11.510416666666666,
              "duration": 0.3020833333333333
            },
            {
              "pitch": 57,
              "velocity": 55,
              "position": 11.510416666666666,
              "duration": 0.3125
            },
            {
              "pitch": 63,
              "velocity": 55,
              "position": 11.5,
              "duration": 0.3229166666666667
            },
            {
              "pitch": 63,
              "velocity": 68,
              "position": 11.833333333333334,
              "duration": 0.1375
            },
            {
              "pitch": 67,
              "velocity": 68,
              "position": 11.822916666666666,
              "duration": 0.15625
            },
            {
              "pitch": 57,
              "velocity": 68,
              "position": 11.84375,
              "duration": 0.13541666666666666
            },
            {
              "pitch": 122,
              "velocity": 99,
              "position": 11.84375,
              "duration": 0.21875
            },
            {
              "pitch": 106,
              "velocity": 110,
              "position": 12,
              "duration": 0.15625
            },
            {
              "pitch": 59,
              "velocity": 55,
              "position": 12.010416666666666,
              "duration": 0.28125
            },
            {
              "pitch": 63,
              "velocity": 55,
              "position": 12,
              "duration": 0.2916666666666667
            },
            {
              "pitch": 67,
              "velocity": 55,
              "position": 12.010416666666666,
              "duration": 0.3020833333333333
            },
            {
              "pitch": 63,
              "velocity": 68,
              "position": 12.34375,
              "duration": 0.1375
            },
            {
              "pitch": 59,
              "velocity": 68,
              "position": 12.354166666666666,
              "duration": 0.13541666666666666
            },
            {
              "pitch": 67,
              "velocity": 68,
              "position": 12.333333333333334,
              "duration": 0.15625
            },
            {
              "pitch": 107,
              "velocity": 72,
              "position": 12.333333333333334,
              "duration": 0.15625
            },
            {
              "pitch": 108,
              "velocity": 98,
              "position": 12.5,
              "duration": 0.15625
            },
            {
              "pitch": 63,
              "velocity": 55,
              "position": 12.510416666666666,
              "duration": 0.3145833333333333
            },
            {
              "pitch": 67,
              "velocity": 55,
              "position": 12.520833333333334,
              "duration": 0.3125
            },
            {
              "pitch": 59,
              "velocity": 55,
              "position": 12.5,
              "duration": 0.3333333333333333
            },
            {
              "pitch": 101,
              "velocity": 46,
              "position": 12.833333333333334,
              "duration": 0.15625
            },
            {
              "pitch": 100,
              "velocity": 98,
              "position": 13,
              "duration": 0.15625
            },
            {
              "pitch": 63,
              "velocity": 55,
              "position": 13,
              "duration": 0.2916666666666667
            },
            {
              "pitch": 59,
              "velocity": 55,
              "position": 13.010416666666666,
              "duration": 0.28125
            },
            {
              "pitch": 67,
              "velocity": 55,
              "position": 13.010416666666666,
              "duration": 0.3020833333333333
            },
            {
              "pitch": 63,
              "velocity": 68,
              "position": 13.34375,
              "duration": 0.1375
            },
            {
              "pitch": 59,
              "velocity": 68,
              "position": 13.354166666666666,
              "duration": 0.13541666666666666
            },
            {
              "pitch": 67,
              "velocity": 68,
              "position": 13.333333333333334,
              "duration": 0.15625
            },
            {
              "pitch": 99,
              "velocity": 66,
              "position": 13.333333333333334,
              "duration": 0.15625
            },
            {
              "pitch": 98,
              "velocity": 109,
              "position": 13.5,
              "duration": 0.15625
            },
            {
              "pitch": 63,
              "velocity": 55,
              "position": 13.510416666666666,
              "duration": 0.3145833333333333
            },
            {
              "pitch": 59,
              "velocity": 55,
              "position": 13.5,
              "duration": 0.3333333333333333
            },
            {
              "pitch": 67,
              "velocity": 55,
              "position": 13.520833333333334,
              "duration": 0.3125
            },
            {
              "pitch": 121,
              "velocity": 99,
              "position": 13.791666666666666,
              "duration": 0.1875
            },
            {
              "pitch": 105,
              "velocity": 68,
              "position": 13.833333333333334,
              "duration": 0.15625
            },
            {
              "pitch": 106,
              "velocity": 107,
              "position": 14,
              "duration": 0.15625
            },
            {
              "pitch": 61,
              "velocity": 55,
              "position": 14,
              "duration": 0.98125
            },
            {
              "pitch": 65,
              "velocity": 55,
              "position": 14.010416666666666,
              "duration": 0.9791666666666666
            },
            {
              "pitch": 57,
              "velocity": 55,
              "position": 13.989583333333334,
              "duration": 1
            },
            {
              "pitch": 99,
              "velocity": 52,
              "position": 15.333333333333334,
              "duration": 0.15625
            },
            {
              "pitch": 100,
              "velocity": 110,
              "position": 15.5,
              "duration": 0.15625
            }
          ]
        },
        "5": {
          "ctab": {
            "srcChannel": 5,
            "name": "TenorSax",
            "accType": "PHRASE1",
            "editable": false,
            "mutedNotes": [],
            "mutedChords": [
              "1+2+5",
              "sus4",
              "1+5",
              "1+8",
              "7aug",
              "Maj7aug",
              "7(#9)",
              "7(b13)",
              "7(b9)",
              "7(13)",
              "7#11",
              "7(9)",
              "7b5",
              "7sus4",
              "7th",
              "aug",
              "Maj6(9)",
              "Maj7(9)",
              "Maj(9)",
              "Maj7#11",
              "Maj7",
              "Maj6",
              "Maj"
            ],
            "autoStart": false,
            "sourceChordNote": 0,
            "sourceChordType": "min",
            "ctb2Low": null,
            "ctb2Main": {
              "ntr": "ROOT_TRANSPOSITION",
              "ntt": "BYPASS",
              "bassOn": false,
              "chordRootUpperLimit": 4,
              "noteLowLimit": 0,
              "noteHighLimit": 127,
              "rtr": "PITCH_SHIFT"
            },
            "ctb2High": null
          },
          "notes": [
            {
              "pitch": 72,
              "velocity": 90,
              "position": 0.375,
              "duration": 0.3333333333333333
            },
            {
              "pitch": 73,
              "velocity": 112,
              "position": 0.7083333333333334,
              "duration": 0.08333333333333333
            },
            {
              "pitch": 72,
              "velocity": 114,
              "position": 0.7916666666666666,
              "duration": 0.08333333333333333
            },
            {
              "pitch": 72,
              "velocity": 90,
              "position": 1.0416666666666667,
              "duration": 0.6666666666666666
            },
            {
              "pitch": 70,
              "velocity": 115,
              "position": 1.7083333333333333,
              "duration": 0.16666666666666666
            },
            {
              "pitch": 70,
              "velocity": 90,
              "position": 2.0416666666666665,
              "duration": 0.75
            },
            {
              "pitch": 65,
              "velocity": 118,
              "position": 2.875,
              "duration": 0.08333333333333333
            },
            {
              "pitch": 64,
              "velocity": 117,
              "position": 2.9583333333333335,
              "duration": 0.08333333333333333
            },
            {
              "pitch": 63,
              "velocity": 90,
              "position": 3.0416666666666665,
              "duration": 0.3125
            },
            {
              "pitch": 65,
              "velocity": 60,
              "position": 3.3541666666666665,
              "duration": 0.1875
            },
            {
              "pitch": 66,
              "velocity": 90,
              "position": 3.5416666666666665,
              "duration": 0.3125
            },
            {
              "pitch": 67,
              "velocity": 60,
              "position": 3.8541666666666665,
              "duration": 0.1875
            },
            {
              "pitch": 63,
              "velocity": 90,
              "position": 4.041666666666667,
              "duration": 0.3125
            },
            {
              "pitch": 62,
              "velocity": 118,
              "position": 4.375,
              "duration": 0.08333333333333333
            },
            {
              "pitch": 61,
              "velocity": 115,
              "position": 4.458333333333333,
              "duration": 0.08333333333333333
            },
            {
              "pitch": 60,
              "velocity": 90,
              "position": 4.541666666666667,
              "duration": 0.3125
            },
            {
              "pitch": 62,
              "velocity": 58,
              "position": 4.854166666666667,
              "duration": 0.1875
            },
            {
              "pitch": 63,
              "velocity": 90,
              "position": 5.041666666666667,
              "duration": 0.3125
            },
            {
              "pitch": 67,
              "velocity": 58,
              "position": 5.354166666666667,
              "duration": 0.1875
            },
            {
              "pitch": 69,
              "velocity": 90,
              "position": 5.541666666666667,
              "duration": 0.08333333333333333
            },
            {
              "pitch": 70,
              "velocity": 118,
              "position": 5.625,
              "duration": 0.08333333333333333
            },
            {
              "pitch": 69,
              "velocity": 117,
              "position": 5.708333333333333,
              "duration": 0.08333333333333333
            },
            {
              "pitch": 67,
              "velocity": 90,
              "position": 5.791666666666667,
              "duration": 0.25
            },
            {
              "pitch": 75,
              "velocity": 90,
              "position": 7.0625,
              "duration": 0.3333333333333333
            },
            {
              "pitch": 74,
              "velocity": 90,
              "position": 7.395833333333333,
              "duration": 0.3333333333333333
            },
            {
              "pitch": 72,
              "velocity": 90,
              "position": 7.729166666666667,
              "duration": 0.16666666666666666
            },
            {
              "pitch": 69,
              "velocity": 90,
              "position": 7.895833333333333,
              "duration": 0.16666666666666666
            },
            {
              "pitch": 53,
              "velocity": 90,
              "position": 11,
              "duration": 0.16666666666666666
            },
            {
              "pitch": 57,
              "velocity": 118,
              "position": 11.125,
              "duration": 0.16666666666666666
            },
            {
              "pitch": 60,
              "velocity": 118,
              "position": 11.25,
              "duration": 0.16666666666666666
            },
            {
              "pitch": 65,
              "velocity": 118,
              "position": 11.375,
              "duration": 0.16666666666666666
            },
            {
              "pitch": 59,
              "velocity": 90,
              "position": 11.5,
              "duration": 0.16666666666666666
            },
            {
              "pitch": 63,
              "velocity": 118,
              "position": 11.625,
              "duration": 0.16666666666666666
            },
            {
              "pitch": 66,
              "velocity": 118,
              "position": 11.75,
              "duration": 0.16666666666666666
            },
            {
              "pitch": 71,
              "velocity": 118,
              "position": 11.875,
              "duration": 0.16666666666666666
            },
            {
              "pitch": 67,
              "velocity": 90,
              "position": 12,
              "duration": 0.20833333333333334
            },
            {
              "pitch": 67,
              "velocity": 60,
              "position": 12.5,
              "duration": 0.20833333333333334
            },
            {
              "pitch": 67,
              "velocity": 90,
              "position": 13,
              "duration": 0.20833333333333334
            }
          ]
        },
        "6": {
          "ctab": {
            "srcChannel": 6,
            "name": "Brass",
            "accType": "PHRASE2",
            "editable": false,
            "mutedNotes": [],
            "mutedChords": [
              "1+2+5",
              "sus4",
              "1+5",
              "1+8",
              "7aug",
              "Maj7aug",
              "7(#9)",
              "7(b13)",
              "7(b9)",
              "7(13)",
              "7#11",
              "7(9)",
              "7b5",
              "7sus4",
              "7th",
              "aug",
              "Maj6(9)",
              "Maj7(9)",
              "Maj(9)",
              "Maj7#11",
              "Maj7",
              "Maj6",
              "Maj"
            ],
            "autoStart": false,
            "sourceChordNote": 0,
            "sourceChordType": "min",
            "ctb2Low": null,
            "ctb2Main": {
              "ntr": "ROOT_TRANSPOSITION",
              "ntt": "BYPASS",
              "bassOn": false,
              "chordRootUpperLimit": 6,
              "noteLowLimit": 0,
              "noteHighLimit": 87,
              "rtr": "PITCH_SHIFT"
            },
            "ctb2High": null
          },
          "notes": [
            {
              "pitch": 58,
              "velocity": 79,
              "position": 0.010416666666666666,
              "duration": 1.9791666666666667
            },
            {
              "pitch": 72,
              "velocity": 84,
              "position": 0.010416666666666666,
              "duration": 1.9791666666666667
            },
            {
              "pitch": 67,
              "velocity": 81,
              "position": 0.010416666666666666,
              "duration": 1.9791666666666667
            },
            {
              "pitch": 63,
              "velocity": 81,
              "position": 0.010416666666666666,
              "duration": 1.9791666666666667
            },
            {
              "pitch": 58,
              "velocity": 79,
              "position": 4,
              "duration": 1.9895833333333333
            },
            {
              "pitch": 72,
              "velocity": 84,
              "position": 4,
              "duration": 1.9895833333333333
            },
            {
              "pitch": 67,
              "velocity": 81,
              "position": 4,
              "duration": 1.9895833333333333
            },
            {
              "pitch": 63,
              "velocity": 81,
              "position": 4,
              "duration": 1.9895833333333333
            },
            {
              "pitch": 55,
              "velocity": 88,
              "position": 12,
              "duration": 0.25
            },
            {
              "pitch": 82,
              "velocity": 91,
              "position": 12,
              "duration": 0.25
            },
            {
              "pitch": 75,
              "velocity": 88,
              "position": 12,
              "duration": 0.25
            },
            {
              "pitch": 71,
              "velocity": 88,
              "position": 12,
              "duration": 0.25
            },
            {
              "pitch": 65,
              "velocity": 88,
              "position": 12,
              "duration": 0.25
            },
            {
              "pitch": 55,
              "velocity": 78,
              "position": 12.5,
              "duration": 0.25
            },
            {
              "pitch": 82,
              "velocity": 81,
              "position": 12.5,
              "duration": 0.25
            },
            {
              "pitch": 75,
              "velocity": 78,
              "position": 12.5,
              "duration": 0.25
            },
            {
              "pitch": 71,
              "velocity": 78,
              "position": 12.5,
              "duration": 0.25
            },
            {
              "pitch": 65,
              "velocity": 78,
              "position": 12.5,
              "duration": 0.25
            },
            {
              "pitch": 55,
              "velocity": 85,
              "position": 13,
              "duration": 0.25
            },
            {
              "pitch": 82,
              "velocity": 85,
              "position": 13,
              "duration": 0.25
            },
            {
              "pitch": 75,
              "velocity": 85,
              "position": 13,
              "duration": 0.25
            },
            {
              "pitch": 71,
              "velocity": 85,
              "position": 13,
              "duration": 0.25
            },
            {
              "pitch": 65,
              "velocity": 85,
              "position": 13,
              "duration": 0.25
            },
            {
              "pitch": 55,
              "velocity": 88,
              "position": 13.5,
              "duration": 0.25
            },
            {
              "pitch": 82,
              "velocity": 90,
              "position": 13.5,
              "duration": 0.25
            },
            {
              "pitch": 75,
              "velocity": 88,
              "position": 13.5,
              "duration": 0.25
            },
            {
              "pitch": 71,
              "velocity": 88,
              "position": 13.5,
              "duration": 0.25
            },
            {
              "pitch": 65,
              "velocity": 88,
              "position": 13.5,
              "duration": 0.25
            }
          ]
        },
        "8": {
          "ctab": {
            "srcChannel": 8,
            "name": "AddDrum",
            "accType": "SUBRHYTHM",
            "editable": false,
            "mutedNotes": [],
            "mutedChords": [],
            "autoStart": true,
            "sourceChordNote": 0,
            "sourceChordType": "Maj7",
            "ctb2Low": null,
            "ctb2Main": {
              "ntr": "ROOT_FIXED",
              "ntt": "BYPASS",
              "bassOn": false,
              "chordRootUpperLimit": 6,
              "noteLowLimit": 0,
              "noteHighLimit": 127,
              "rtr": "PITCH_SHIFT"
            },
            "ctb2High": null
          },
          "notes": [
            {
              "pitch": 54,
              "velocity": 70,
              "position": 0,
              "duration": 0.010416666666666666
            },
            {
              "pitch": 69,
              "velocity": 41,
              "position": 0,
              "duration": 0.010416666666666666
            },
            {
              "pitch": 64,
              "velocity": 80,
              "position": 0,
              "duration": 0.010416666666666666
            },
            {
              "pitch": 54,
              "velocity": 18,
              "position": 0.3333333333333333,
              "duration": 0.010416666666666666
            },
            {
              "pitch": 54,
              "velocity": 42,
              "position": 0.5,
              "duration": 0.010416666666666666
            },
            {
              "pitch": 69,
              "velocity": 64,
              "position": 0.5,
              "duration": 0.010416666666666666
            },
            {
              "pitch": 54,
              "velocity": 16,
              "position": 0.8333333333333334,
              "duration": 0.010416666666666666
            },
            {
              "pitch": 69,
              "velocity": 23,
              "position": 0.8333333333333334,
              "duration": 0.010416666666666666
            },
            {
              "pitch": 62,
              "velocity": 14,
              "position": 0.8333333333333334,
              "duration": 0.010416666666666666
            },
            {
              "pitch": 54,
              "velocity": 82,
              "position": 1,
              "duration": 0.010416666666666666
            },
            {
              "pitch": 69,
              "velocity": 41,
              "position": 1,
              "duration": 0.010416666666666666
            },
            {
              "pitch": 62,
              "velocity": 80,
              "position": 1,
              "duration": 0.010416666666666666
            },
            {
              "pitch": 54,
              "velocity": 18,
              "position": 1.3333333333333333,
              "duration": 0.010416666666666666
            },
            {
              "pitch": 54,
              "velocity": 42,
              "position": 1.5,
              "duration": 0.010416666666666666
            },
            {
              "pitch": 69,
              "velocity": 64,
              "position": 1.5,
              "duration": 0.010416666666666666
            },
            {
              "pitch": 63,
              "velocity": 80,
              "position": 1.5,
              "duration": 0.010416666666666666
            },
            {
              "pitch": 54,
              "velocity": 16,
              "position": 1.8333333333333333,
              "duration": 0.010416666666666666
            },
            {
              "pitch": 69,
              "velocity": 40,
              "position": 1.8333333333333333,
              "duration": 0.010416666666666666
            },
            {
              "pitch": 54,
              "velocity": 70,
              "position": 2,
              "duration": 0.010416666666666666
            },
            {
              "pitch": 69,
              "velocity": 73,
              "position": 2,
              "duration": 0.010416666666666666
            },
            {
              "pitch": 54,
              "velocity": 18,
              "position": 2.3333333333333335,
              "duration": 0.010416666666666666
            },
            {
              "pitch": 69,
              "velocity": 16,
              "position": 2.3333333333333335,
              "duration": 0.010416666666666666
            },
            {
              "pitch": 54,
              "velocity": 42,
              "position": 2.5,
              "duration": 0.010416666666666666
            },
            {
              "pitch": 69,
              "velocity": 49,
              "position": 2.5,
              "duration": 0.010416666666666666
            },
            {
              "pitch": 63,
              "velocity": 31,
              "position": 2.5,
              "duration": 0.010416666666666666
            },
            {
              "pitch": 54,
              "velocity": 16,
              "position": 2.8333333333333335,
              "duration": 0.010416666666666666
            },
            {
              "pitch": 69,
              "velocity": 18,
              "position": 2.8333333333333335,
              "duration": 0.010416666666666666
            },
            {
              "pitch": 62,
              "velocity": 44,
              "position": 2.8333333333333335,
              "duration": 0.010416666666666666
            },
            {
              "pitch": 54,
              "velocity": 82,
              "position": 3,
              "duration": 0.010416666666666666
            },
            {
              "pitch": 69,
              "velocity": 77,
              "position": 3,
              "duration": 0.010416666666666666
            },
            {
              "pitch": 62,
              "velocity": 80,
              "position": 3,
              "duration": 0.010416666666666666
            },
            {
              "pitch": 54,
              "velocity": 18,
              "position": 3.3333333333333335,
              "duration": 0.010416666666666666
            },
            {
              "pitch": 54,
              "velocity": 42,
              "position": 3.5,
              "duration": 0.010416666666666666
            },
            {
              "pitch": 69,
              "velocity": 64,
              "position": 3.5,
              "duration": 0.010416666666666666
            },
            {
              "pitch": 64,
              "velocity": 80,
              "position": 3.5,
              "duration": 0.010416666666666666
            },
            {
              "pitch": 54,
              "velocity": 16,
              "position": 3.8333333333333335,
              "duration": 0.010416666666666666
            },
            {
              "pitch": 69,
              "velocity": 33,
              "position": 3.8333333333333335,
              "duration": 0.010416666666666666
            },
            {
              "pitch": 54,
              "velocity": 70,
              "position": 4,
              "duration": 0.010416666666666666
            },
            {
              "pitch": 69,
              "velocity": 41,
              "position": 4,
              "duration": 0.010416666666666666
            },
            {
              "pitch": 54,
              "velocity": 18,
              "position": 4.333333333333333,
              "duration": 0.010416666666666666
            },
            {
              "pitch": 54,
              "velocity": 42,
              "position": 4.5,
              "duration": 0.010416666666666666
            },
            {
              "pitch": 69,
              "velocity": 64,
              "position": 4.5,
              "duration": 0.010416666666666666
            },
            {
              "pitch": 54,
              "velocity": 16,
              "position": 4.833333333333333,
              "duration": 0.010416666666666666
            },
            {
              "pitch": 69,
              "velocity": 23,
              "position": 4.833333333333333,
              "duration": 0.010416666666666666
            },
            {
              "pitch": 62,
              "velocity": 14,
              "position": 4.833333333333333,
              "duration": 0.010416666666666666
            },
            {
              "pitch": 54,
              "velocity": 82,
              "position": 5,
              "duration": 0.010416666666666666
            },
            {
              "pitch": 69,
              "velocity": 41,
              "position": 5,
              "duration": 0.010416666666666666
            },
            {
              "pitch": 62,
              "velocity": 80,
              "position": 5,
              "duration": 0.010416666666666666
            },
            {
              "pitch": 54,
              "velocity": 18,
              "position": 5.333333333333333,
              "duration": 0.010416666666666666
            },
            {
              "pitch": 54,
              "velocity": 42,
              "position": 5.5,
              "duration": 0.010416666666666666
            },
            {
              "pitch": 69,
              "velocity": 64,
              "position": 5.5,
              "duration": 0.010416666666666666
            },
            {
              "pitch": 63,
              "velocity": 80,
              "position": 5.5,
              "duration": 0.010416666666666666
            },
            {
              "pitch": 54,
              "velocity": 16,
              "position": 5.833333333333333,
              "duration": 0.010416666666666666
            },
            {
              "pitch": 69,
              "velocity": 40,
              "position": 5.833333333333333,
              "duration": 0.010416666666666666
            },
            {
              "pitch": 54,
              "velocity": 70,
              "position": 6,
              "duration": 0.010416666666666666
            },
            {
              "pitch": 69,
              "velocity": 73,
              "position": 6,
              "duration": 0.010416666666666666
            },
            {
              "pitch": 54,
              "velocity": 18,
              "position": 6.333333333333333,
              "duration": 0.010416666666666666
            },
            {
              "pitch": 69,
              "velocity": 16,
              "position": 6.333333333333333,
              "duration": 0.010416666666666666
            },
            {
              "pitch": 54,
              "velocity": 42,
              "position": 6.5,
              "duration": 0.010416666666666666
            },
            {
              "pitch": 69,
              "velocity": 49,
              "position": 6.5,
              "duration": 0.010416666666666666
            },
            {
              "pitch": 63,
              "velocity": 31,
              "position": 6.5,
              "duration": 0.010416666666666666
            },
            {
              "pitch": 54,
              "velocity": 16,
              "position": 6.833333333333333,
              "duration": 0.010416666666666666
            },
            {
              "pitch": 69,
              "velocity": 18,
              "position": 6.833333333333333,
              "duration": 0.010416666666666666
            },
            {
              "pitch": 62,
              "velocity": 44,
              "position": 6.833333333333333,
              "duration": 0.010416666666666666
            },
            {
              "pitch": 54,
              "velocity": 82,
              "position": 7,
              "duration": 0.010416666666666666
            },
            {
              "pitch": 69,
              "velocity": 77,
              "position": 7,
              "duration": 0.010416666666666666
            },
            {
              "pitch": 62,
              "velocity": 80,
              "position": 7,
              "duration": 0.010416666666666666
            },
            {
              "pitch": 54,
              "velocity": 18,
              "position": 7.333333333333333,
              "duration": 0.010416666666666666
            },
            {
              "pitch": 54,
              "velocity": 42,
              "position": 7.5,
              "duration": 0.010416666666666666
            },
            {
              "pitch": 69,
              "velocity": 64,
              "position": 7.5,
              "duration": 0.010416666666666666
            },
            {
              "pitch": 64,
              "velocity": 80,
              "position": 7.5,
              "duration": 0.010416666666666666
            },
            {
              "pitch": 54,
              "velocity": 16,
              "position": 7.833333333333333,
              "duration": 0.010416666666666666
            },
            {
              "pitch": 69,
              "velocity": 33,
              "position": 7.833333333333333,
              "duration": 0.010416666666666666
            },
            {
              "pitch": 54,
              "velocity": 70,
              "position": 8,
              "duration": 0.010416666666666666
            },
            {
              "pitch": 69,
              "velocity": 41,
              "position": 8,
              "duration": 0.010416666666666666
            },
            {
              "pitch": 64,
              "velocity": 80,
              "position": 8,
              "duration": 0.010416666666666666
            },
            {
              "pitch": 54,
              "velocity": 18,
              "position": 8.333333333333334,
              "duration": 0.010416666666666666
            },
            {
              "pitch": 54,
              "velocity": 42,
              "position": 8.5,
              "duration": 0.010416666666666666
            },
            {
              "pitch": 69,
              "velocity": 64,
              "position": 8.5,
              "duration": 0.010416666666666666
            },
            {
              "pitch": 54,
              "velocity": 16,
              "position": 8.833333333333334,
              "duration": 0.010416666666666666
            },
            {
              "pitch": 69,
              "velocity": 23,
              "position": 8.833333333333334,
              "duration": 0.010416666666666666
            },
            {
              "pitch": 62,
              "velocity": 14,
              "position": 8.833333333333334,
              "duration": 0.010416666666666666
            },
            {
              "pitch": 54,
              "velocity": 82,
              "position": 9,
              "duration": 0.010416666666666666
            },
            {
              "pitch": 69,
              "velocity": 41,
              "position": 9,
              "duration": 0.010416666666666666
            },
            {
              "pitch": 62,
              "velocity": 80,
              "position": 9,
              "duration": 0.010416666666666666
            },
            {
              "pitch": 54,
              "velocity": 18,
              "position": 9.333333333333334,
              "duration": 0.010416666666666666
            },
            {
              "pitch": 54,
              "velocity": 42,
              "position": 9.5,
              "duration": 0.010416666666666666
            },
            {
              "pitch": 69,
              "velocity": 64,
              "position": 9.5,
              "duration": 0.010416666666666666
            },
            {
              "pitch": 63,
              "velocity": 80,
              "position": 9.5,
              "duration": 0.010416666666666666
            },
            {
              "pitch": 54,
              "velocity": 16,
              "position": 9.833333333333334,
              "duration": 0.010416666666666666
            },
            {
              "pitch": 69,
              "velocity": 40,
              "position": 9.833333333333334,
              "duration": 0.010416666666666666
            },
            {
              "pitch": 54,
              "velocity": 70,
              "position": 10,
              "duration": 0.010416666666666666
            },
            {
              "pitch": 69,
              "velocity": 73,
              "position": 10,
              "duration": 0.010416666666666666
            },
            {
              "pitch": 54,
              "velocity": 18,
              "position": 10.333333333333334,
              "duration": 0.010416666666666666
            },
            {
              "pitch": 69,
              "velocity": 16,
              "position": 10.333333333333334,
              "duration": 0.010416666666666666
            },
            {
              "pitch": 54,
              "velocity": 42,
              "position": 10.5,
              "duration": 0.010416666666666666
            },
            {
              "pitch": 69,
              "velocity": 49,
              "position": 10.5,
              "duration": 0.010416666666666666
            },
            {
              "pitch": 63,
              "velocity": 31,
              "position": 10.5,
              "duration": 0.010416666666666666
            },
            {
              "pitch": 54,
              "velocity": 16,
              "position": 10.833333333333334,
              "duration": 0.010416666666666666
            },
            {
              "pitch": 69,
              "velocity": 18,
              "position": 10.833333333333334,
              "duration": 0.010416666666666666
            },
            {
              "pitch": 62,
              "velocity": 44,
              "position": 10.833333333333334,
              "duration": 0.010416666666666666
            },
            {
              "pitch": 54,
              "velocity": 82,
              "position": 11,
              "duration": 0.010416666666666666
            },
            {
              "pitch": 69,
              "velocity": 77,
              "position": 11,
              "duration": 0.010416666666666666
            },
            {
              "pitch": 62,
              "velocity": 80,
              "position": 11,
              "duration": 0.010416666666666666
            },
            {
              "pitch": 54,
              "velocity": 18,
              "position": 11.333333333333334,
              "duration": 0.010416666666666666
            },
            {
              "pitch": 54,
              "velocity": 42,
              "position": 11.5,
              "duration": 0.010416666666666666
            },
            {
              "pitch": 69,
              "velocity": 64,
              "position": 11.5,
              "duration": 0.010416666666666666
            },
            {
              "pitch": 64,
              "velocity": 80,
              "position": 11.5,
              "duration": 0.010416666666666666
            },
            {
              "pitch": 54,
              "velocity": 16,
              "position": 11.833333333333334,
              "duration": 0.010416666666666666
            },
            {
              "pitch": 69,
              "velocity": 33,
              "position": 11.833333333333334,
              "duration": 0.010416666666666666
            },
            {
              "pitch": 54,
              "velocity": 70,
              "position": 12,
              "duration": 0.010416666666666666
            },
            {
              "pitch": 69,
              "velocity": 41,
              "position": 12,
              "duration": 0.010416666666666666
            },
            {
              "pitch": 54,
              "velocity": 18,
              "position": 12.333333333333334,
              "duration": 0.010416666666666666
            },
            {
              "pitch": 54,
              "velocity": 42,
              "position": 12.5,
              "duration": 0.010416666666666666
            },
            {
              "pitch": 69,
              "velocity": 64,
              "position": 12.5,
              "duration": 0.010416666666666666
            },
            {
              "pitch": 54,
              "velocity": 16,
              "position": 12.833333333333334,
              "duration": 0.010416666666666666
            },
            {
              "pitch": 69,
              "velocity": 23,
              "position": 12.833333333333334,
              "duration": 0.010416666666666666
            },
            {
              "pitch": 62,
              "velocity": 14,
              "position": 12.833333333333334,
              "duration": 0.010416666666666666
            },
            {
              "pitch": 54,
              "velocity": 82,
              "position": 13,
              "duration": 0.010416666666666666
            },
            {
              "pitch": 69,
              "velocity": 41,
              "position": 13,
              "duration": 0.010416666666666666
            },
            {
              "pitch": 62,
              "velocity": 80,
              "position": 13,
              "duration": 0.010416666666666666
            },
            {
              "pitch": 54,
              "velocity": 18,
              "position": 13.333333333333334,
              "duration": 0.010416666666666666
            },
            {
              "pitch": 54,
              "velocity": 42,
              "position": 13.5,
              "duration": 0.010416666666666666
            },
            {
              "pitch": 69,
              "velocity": 64,
              "position": 13.5,
              "duration": 0.010416666666666666
            },
            {
              "pitch": 63,
              "velocity": 80,
              "position": 13.5,
              "duration": 0.010416666666666666
            },
            {
              "pitch": 54,
              "velocity": 16,
              "position": 13.833333333333334,
              "duration": 0.010416666666666666
            },
            {
              "pitch": 69,
              "velocity": 40,
              "position": 13.833333333333334,
              "duration": 0.010416666666666666
            },
            {
              "pitch": 54,
              "velocity": 70,
              "position": 14,
              "duration": 0.010416666666666666
            },
            {
              "pitch": 69,
              "velocity": 73,
              "position": 14,
              "duration": 0.010416666666666666
            }
          ]
        },
        "9": {
          "ctab": {
            "srcChannel": 9,
            "name": "MainDrum",
            "accType": "RHYTHM",
            "editable": false,
            "mutedNotes": [],
            "mutedChords": [],
            "autoStart": true,
            "sourceChordNote": 0,
            "sourceChordType": "Maj7",
            "ctb2Low": null,
            "ctb2Main": {
              "ntr": "ROOT_FIXED",
              "ntt": "BYPASS",
              "bassOn": false,
              "chordRootUpperLimit": 6,
              "noteLowLimit": 0,
              "noteHighLimit": 127,
              "rtr": "PITCH_SHIFT"
            },
            "ctb2High": null
          },
          "notes": [
            {
              "pitch": 35,
              "velocity": 90,
              "position": 0,
              "duration": 0.010416666666666666
            },
            {
              "pitch": 51,
              "velocity": 70,
              "position": 0,
              "duration": 0.010416666666666666
            },
            {
              "pitch": 42,
              "velocity": 116,
              "position": 0,
              "duration": 0.010416666666666666
            },
            {
              "pitch": 42,
              "velocity": 88,
              "position": 0.5,
              "duration": 0.010416666666666666
            },
            {
              "pitch": 53,
              "velocity": 87,
              "position": 0.5,
              "duration": 0.010416666666666666
            },
            {
              "pitch": 35,
              "velocity": 98,
              "position": 1,
              "duration": 0.010416666666666666
            },
            {
              "pitch": 51,
              "velocity": 70,
              "position": 1,
              "duration": 0.010416666666666666
            },
            {
              "pitch": 42,
              "velocity": 116,
              "position": 1,
              "duration": 0.010416666666666666
            },
            {
              "pitch": 40,
              "velocity": 114,
              "position": 1,
              "duration": 0.010416666666666666
            },
            {
              "pitch": 35,
              "velocity": 78,
              "position": 1.5,
              "duration": 0.010416666666666666
            },
            {
              "pitch": 53,
              "velocity": 87,
              "position": 1.5,
              "duration": 0.010416666666666666
            },
            {
              "pitch": 42,
              "velocity": 94,
              "position": 1.5,
              "duration": 0.010416666666666666
            },
            {
              "pitch": 40,
              "velocity": 47,
              "position": 1.8333333333333333,
              "duration": 0.010416666666666666
            },
            {
              "pitch": 42,
              "velocity": 54,
              "position": 1.8333333333333333,
              "duration": 0.010416666666666666
            },
            {
              "pitch": 35,
              "velocity": 95,
              "position": 2,
              "duration": 0.010416666666666666
            },
            {
              "pitch": 51,
              "velocity": 70,
              "position": 2,
              "duration": 0.010416666666666666
            },
            {
              "pitch": 42,
              "velocity": 116,
              "position": 2,
              "duration": 0.010416666666666666
            },
            {
              "pitch": 42,
              "velocity": 85,
              "position": 2.5,
              "duration": 0.010416666666666666
            },
            {
              "pitch": 53,
              "velocity": 87,
              "position": 2.5,
              "duration": 0.010416666666666666
            },
            {
              "pitch": 35,
              "velocity": 98,
              "position": 3,
              "duration": 0.010416666666666666
            },
            {
              "pitch": 51,
              "velocity": 70,
              "position": 3,
              "duration": 0.010416666666666666
            },
            {
              "pitch": 42,
              "velocity": 116,
              "position": 3,
              "duration": 0.010416666666666666
            },
            {
              "pitch": 40,
              "velocity": 114,
              "position": 3,
              "duration": 0.010416666666666666
            },
            {
              "pitch": 42,
              "velocity": 38,
              "position": 3.3333333333333335,
              "duration": 0.010416666666666666
            },
            {
              "pitch": 46,
              "velocity": 84,
              "position": 3.5,
              "duration": 0.010416666666666666
            },
            {
              "pitch": 53,
              "velocity": 87,
              "position": 3.5,
              "duration": 0.010416666666666666
            },
            {
              "pitch": 35,
              "velocity": 26,
              "position": 3.8333333333333335,
              "duration": 0.010416666666666666
            },
            {
              "pitch": 35,
              "velocity": 90,
              "position": 4,
              "duration": 0.010416666666666666
            },
            {
              "pitch": 51,
              "velocity": 70,
              "position": 4,
              "duration": 0.010416666666666666
            },
            {
              "pitch": 42,
              "velocity": 116,
              "position": 4,
              "duration": 0.010416666666666666
            },
            {
              "pitch": 42,
              "velocity": 88,
              "position": 4.5,
              "duration": 0.010416666666666666
            },
            {
              "pitch": 53,
              "velocity": 87,
              "position": 4.5,
              "duration": 0.010416666666666666
            },
            {
              "pitch": 35,
              "velocity": 98,
              "position": 5,
              "duration": 0.010416666666666666
            },
            {
              "pitch": 51,
              "velocity": 70,
              "position": 5,
              "duration": 0.010416666666666666
            },
            {
              "pitch": 42,
              "velocity": 116,
              "position": 5,
              "duration": 0.010416666666666666
            },
            {
              "pitch": 40,
              "velocity": 114,
              "position": 5,
              "duration": 0.010416666666666666
            },
            {
              "pitch": 42,
              "velocity": 94,
              "position": 5.5,
              "duration": 0.010416666666666666
            },
            {
              "pitch": 53,
              "velocity": 87,
              "position": 5.5,
              "duration": 0.010416666666666666
            },
            {
              "pitch": 35,
              "velocity": 40,
              "position": 5.833333333333333,
              "duration": 0.010416666666666666
            },
            {
              "pitch": 42,
              "velocity": 54,
              "position": 5.833333333333333,
              "duration": 0.010416666666666666
            },
            {
              "pitch": 35,
              "velocity": 95,
              "position": 6,
              "duration": 0.010416666666666666
            },
            {
              "pitch": 51,
              "velocity": 70,
              "position": 6,
              "duration": 0.010416666666666666
            },
            {
              "pitch": 42,
              "velocity": 116,
              "position": 6,
              "duration": 0.010416666666666666
            },
            {
              "pitch": 42,
              "velocity": 48,
              "position": 6.333333333333333,
              "duration": 0.010416666666666666
            },
            {
              "pitch": 35,
              "velocity": 95,
              "position": 6.5,
              "duration": 0.010416666666666666
            },
            {
              "pitch": 53,
              "velocity": 87,
              "position": 6.5,
              "duration": 0.010416666666666666
            },
            {
              "pitch": 42,
              "velocity": 116,
              "position": 6.5,
              "duration": 0.010416666666666666
            },
            {
              "pitch": 35,
              "velocity": 98,
              "position": 7,
              "duration": 0.010416666666666666
            },
            {
              "pitch": 51,
              "velocity": 70,
              "position": 7,
              "duration": 0.010416666666666666
            },
            {
              "pitch": 42,
              "velocity": 116,
              "position": 7,
              "duration": 0.010416666666666666
            },
            {
              "pitch": 40,
              "velocity": 114,
              "position": 7,
              "duration": 0.010416666666666666
            },
            {
              "pitch": 35,
              "velocity": 41,
              "position": 7.333333333333333,
              "duration": 0.010416666666666666
            },
            {
              "pitch": 42,
              "velocity": 31,
              "position": 7.333333333333333,
              "duration": 0.010416666666666666
            },
            {
              "pitch": 35,
              "velocity": 90,
              "position": 7.5,
              "duration": 0.010416666666666666
            },
            {
              "pitch": 53,
              "velocity": 87,
              "position": 7.5,
              "duration": 0.010416666666666666
            },
            {
              "pitch": 46,
              "velocity": 84,
              "position": 7.5,
              "duration": 0.010416666666666666
            },
            {
              "pitch": 40,
              "velocity": 62,
              "position": 7.833333333333333,
              "duration": 0.010416666666666666
            },
            {
              "pitch": 35,
              "velocity": 90,
              "position": 8,
              "duration": 0.010416666666666666
            },
            {
              "pitch": 51,
              "velocity": 70,
              "position": 8,
              "duration": 0.010416666666666666
            },
            {
              "pitch": 42,
              "velocity": 116,
              "position": 8,
              "duration": 0.010416666666666666
            },
            {
              "pitch": 42,
              "velocity": 88,
              "position": 8.5,
              "duration": 0.010416666666666666
            },
            {
              "pitch": 53,
              "velocity": 87,
              "position": 8.5,
              "duration": 0.010416666666666666
            },
            {
              "pitch": 35,
              "velocity": 98,
              "position": 9,
              "duration": 0.010416666666666666
            },
            {
              "pitch": 51,
              "velocity": 70,
              "position": 9,
              "duration": 0.010416666666666666
            },
            {
              "pitch": 42,
              "velocity": 116,
              "position": 9,
              "duration": 0.010416666666666666
            },
            {
              "pitch": 40,
              "velocity": 114,
              "position": 9,
              "duration": 0.010416666666666666
            },
            {
              "pitch": 42,
              "velocity": 94,
              "position": 9.5,
              "duration": 0.010416666666666666
            },
            {
              "pitch": 53,
              "velocity": 87,
              "position": 9.5,
              "duration": 0.010416666666666666
            },
            {
              "pitch": 35,
              "velocity": 39,
              "position": 9.833333333333334,
              "duration": 0.010416666666666666
            },
            {
              "pitch": 42,
              "velocity": 54,
              "position": 9.833333333333334,
              "duration": 0.010416666666666666
            },
            {
              "pitch": 35,
              "velocity": 90,
              "position": 10,
              "duration": 0.010416666666666666
            },
            {
              "pitch": 51,
              "velocity": 70,
              "position": 10,
              "duration": 0.010416666666666666
            },
            {
              "pitch": 42,
              "velocity": 116,
              "position": 10,
              "duration": 0.010416666666666666
            },
            {
              "pitch": 42,
              "velocity": 85,
              "position": 10.5,
              "duration": 0.010416666666666666
            },
            {
              "pitch": 53,
              "velocity": 87,
              "position": 10.5,
              "duration": 0.010416666666666666
            },
            {
              "pitch": 35,
              "velocity": 98,
              "position": 11,
              "duration": 0.010416666666666666
            },
            {
              "pitch": 51,
              "velocity": 70,
              "position": 11,
              "duration": 0.010416666666666666
            },
            {
              "pitch": 42,
              "velocity": 116,
              "position": 11,
              "duration": 0.010416666666666666
            },
            {
              "pitch": 40,
              "velocity": 114,
              "position": 11,
              "duration": 0.010416666666666666
            },
            {
              "pitch": 42,
              "velocity": 37,
              "position": 11.333333333333334,
              "duration": 0.010416666666666666
            },
            {
              "pitch": 46,
              "velocity": 84,
              "position": 11.5,
              "duration": 0.010416666666666666
            },
            {
              "pitch": 53,
              "velocity": 87,
              "position": 11.5,
              "duration": 0.010416666666666666
            },
            {
              "pitch": 35,
              "velocity": 42,
              "position": 11.833333333333334,
              "duration": 0.010416666666666666
            },
            {
              "pitch": 35,
              "velocity": 90,
              "position": 12,
              "duration": 0.010416666666666666
            },
            {
              "pitch": 55,
              "velocity": 66,
              "position": 12,
              "duration": 0.010416666666666666
            },
            {
              "pitch": 42,
              "velocity": 116,
              "position": 12,
              "duration": 0.010416666666666666
            },
            {
              "pitch": 40,
              "velocity": 117,
              "position": 12,
              "duration": 0.010416666666666666
            },
            {
              "pitch": 40,
              "velocity": 80,
              "position": 12.5,
              "duration": 0.010416666666666666
            },
            {
              "pitch": 42,
              "velocity": 88,
              "position": 12.5,
              "duration": 0.010416666666666666
            },
            {
              "pitch": 35,
              "velocity": 98,
              "position": 13,
              "duration": 0.010416666666666666
            },
            {
              "pitch": 42,
              "velocity": 116,
              "position": 13,
              "duration": 0.010416666666666666
            },
            {
              "pitch": 40,
              "velocity": 114,
              "position": 13,
              "duration": 0.010416666666666666
            },
            {
              "pitch": 35,
              "velocity": 37,
              "position": 13.333333333333334,
              "duration": 0.010416666666666666
            },
            {
              "pitch": 35,
              "velocity": 90,
              "position": 13.5,
              "duration": 0.010416666666666666
            },
            {
              "pitch": 42,
              "velocity": 94,
              "position": 13.5,
              "duration": 0.010416666666666666
            },
            {
              "pitch": 40,
              "velocity": 80,
              "position": 13.5,
              "duration": 0.010416666666666666
            },
            {
              "pitch": 40,
              "velocity": 51,
              "position": 13.833333333333334,
              "duration": 0.010416666666666666
            },
            {
              "pitch": 42,
              "velocity": 54,
              "position": 13.833333333333334,
              "duration": 0.010416666666666666
            },
            {
              "pitch": 35,
              "velocity": 95,
              "position": 14,
              "duration": 0.010416666666666666
            },
            {
              "pitch": 42,
              "velocity": 116,
              "position": 14,
              "duration": 0.010416666666666666
            },
            {
              "pitch": 40,
              "velocity": 119,
              "position": 14,
              "duration": 0.010416666666666666
            },
            {
              "pitch": 35,
              "velocity": 98,
              "position": 14.5,
              "duration": 0.010416666666666666
            },
            {
              "pitch": 42,
              "velocity": 85,
              "position": 14.5,
              "duration": 0.010416666666666666
            },
            {
              "pitch": 45,
              "velocity": 76,
              "position": 14.833333333333334,
              "duration": 0.010416666666666666
            },
            {
              "pitch": 35,
              "velocity": 98,
              "position": 15,
              "duration": 0.010416666666666666
            },
            {
              "pitch": 43,
              "velocity": 86,
              "position": 15,
              "duration": 0.010416666666666666
            },
            {
              "pitch": 42,
              "velocity": 116,
              "position": 15,
              "duration": 0.010416666666666666
            },
            {
              "pitch": 40,
              "velocity": 114,
              "position": 15,
              "duration": 0.010416666666666666
            },
            {
              "pitch": 42,
              "velocity": 27,
              "position": 15.333333333333334,
              "duration": 0.010416666666666666
            },
            {
              "pitch": 35,
              "velocity": 95,
              "position": 15.5,
              "duration": 0.010416666666666666
            },
            {
              "pitch": 46,
              "velocity": 84,
              "position": 15.5,
              "duration": 0.010416666666666666
            },
            {
              "pitch": 41,
              "velocity": 76,
              "position": 15.5,
              "duration": 0.010416666666666666
            },
            {
              "pitch": 40,
              "velocity": 52,
              "position": 15.833333333333334,
              "duration": 0.010416666666666666
            },
            {
              "pitch": 42,
              "velocity": 51,
              "position": 15.833333333333334,
              "duration": 0.010416666666666666
            },
            {
              "pitch": 49,
              "velocity": 74,
              "position": 15.989583333333334,
              "duration": 0.010416666666666666
            }
          ]
        },
        "10": {
          "ctab": {
            "srcChannel": 10,
            "name": "Bass",
            "accType": "BASS",
            "editable": false,
            "mutedNotes": [],
            "mutedChords": [
              "dim7",
              "dim",
              "minMaj7(9)",
              "minMaj7",
              "min7(11)",
              "min7(9)",
              "min(9)",
              "m7b5",
              "min7",
              "min6",
              "min"
            ],
            "autoStart": false,
            "sourceChordNote": 0,
            "sourceChordType": "Maj",
            "ctb2Low": null,
            "ctb2Main": {
              "ntr": "ROOT_TRANSPOSITION",
              "ntt": "BYPASS",
              "bassOn": false,
              "chordRootUpperLimit": 8,
              "noteLowLimit": 28,
              "noteHighLimit": 127,
              "rtr": "PITCH_SHIFT"
            },
            "ctb2High": null
          },
          "notes": [
            {
              "pitch": 24,
              "velocity": 70,
              "position": 0,
              "duration": 0.48125
            },
            {
              "pitch": 24,
              "velocity": 111,
              "position": 0.5,
              "duration": 0.3145833333333333
            },
            {
              "pitch": 36,
              "velocity": 111,
              "position": 1,
              "duration": 0.3145833333333333
            },
            {
              "pitch": 24,
              "velocity": 111,
              "position": 1.3333333333333333,
              "duration": 0.14791666666666667
            },
            {
              "pitch": 24,
              "velocity": 65,
              "position": 1.5,
              "duration": 0.46875
            },
            {
              "pitch": 25,
              "velocity": 70,
              "position": 2,
              "duration": 0.48125
            },
            {
              "pitch": 25,
              "velocity": 111,
              "position": 2.5,
              "duration": 0.3145833333333333
            },
            {
              "pitch": 37,
              "velocity": 112,
              "position": 3,
              "duration": 0.3145833333333333
            },
            {
              "pitch": 24,
              "velocity": 70,
              "position": 4,
              "duration": 0.48125
            },
            {
              "pitch": 24,
              "velocity": 111,
              "position": 4.5,
              "duration": 0.3145833333333333
            },
            {
              "pitch": 36,
              "velocity": 111,
              "position": 5,
              "duration": 0.3145833333333333
            },
            {
              "pitch": 24,
              "velocity": 46,
              "position": 5.833333333333333,
              "duration": 0.14791666666666667
            },
            {
              "pitch": 30,
              "velocity": 70,
              "position": 6,
              "duration": 0.48125
            },
            {
              "pitch": 30,
              "velocity": 70,
              "position": 6.5,
              "duration": 0.5
            },
            {
              "pitch": 37,
              "velocity": 70,
              "position": 7,
              "duration": 0.14791666666666667
            },
            {
              "pitch": 34,
              "velocity": 70,
              "position": 7.333333333333333,
              "duration": 0.6479166666666667
            },
            {
              "pitch": 29,
              "velocity": 70,
              "position": 8,
              "duration": 0.48125
            },
            {
              "pitch": 29,
              "velocity": 111,
              "position": 8.5,
              "duration": 0.3145833333333333
            },
            {
              "pitch": 41,
              "velocity": 111,
              "position": 9,
              "duration": 0.3145833333333333
            },
            {
              "pitch": 29,
              "velocity": 46,
              "position": 9.833333333333334,
              "duration": 0.14791666666666667
            },
            {
              "pitch": 29,
              "velocity": 70,
              "position": 10,
              "duration": 0.48125
            },
            {
              "pitch": 29,
              "velocity": 111,
              "position": 10.5,
              "duration": 0.3145833333333333
            },
            {
              "pitch": 41,
              "velocity": 112,
              "position": 11,
              "duration": 0.3145833333333333
            },
            {
              "pitch": 36,
              "velocity": 110,
              "position": 11.833333333333334,
              "duration": 0.16666666666666666
            },
            {
              "pitch": 31,
              "velocity": 70,
              "position": 12,
              "duration": 0.3145833333333333
            },
            {
              "pitch": 31,
              "velocity": 71,
              "position": 12.5,
              "duration": 0.3145833333333333
            },
            {
              "pitch": 31,
              "velocity": 71,
              "position": 13,
              "duration": 0.3145833333333333
            },
            {
              "pitch": 31,
              "velocity": 60,
              "position": 13.5,
              "duration": 0.3145833333333333
            },
            {
              "pitch": 31,
              "velocity": 70,
              "position": 14,
              "duration": 0.48125
            }
          ]
        },
        "11": {
          "ctab": {
            "srcChannel": 11,
            "name": "Clavi",
            "accType": "CHORD1",
            "editable": false,
            "mutedNotes": [],
            "mutedChords": [
              "dim7",
              "dim",
              "minMaj7(9)",
              "minMaj7",
              "min7(11)",
              "min7(9)",
              "min(9)",
              "m7b5",
              "min7",
              "min6",
              "min"
            ],
            "autoStart": false,
            "sourceChordNote": 0,
            "sourceChordType": "Maj",
            "ctb2Low": null,
            "ctb2Main": {
              "ntr": "ROOT_TRANSPOSITION",
              "ntt": "BYPASS",
              "bassOn": false,
              "chordRootUpperLimit": 10,
              "noteLowLimit": 0,
              "noteHighLimit": 127,
              "rtr": "PITCH_SHIFT"
            },
            "ctb2High": null
          },
          "notes": [
            {
              "pitch": 36,
              "velocity": 70,
              "position": 0.010416666666666666,
              "duration": 0.17708333333333334
            },
            {
              "pitch": 52,
              "velocity": 95,
              "position": 0.3333333333333333,
              "duration": 0.07708333333333334
            },
            {
              "pitch": 58,
              "velocity": 116,
              "position": 0.3333333333333333,
              "duration": 0.13541666666666666
            },
            {
              "pitch": 62,
              "velocity": 88,
              "position": 0.3333333333333333,
              "duration": 0.14583333333333334
            },
            {
              "pitch": 48,
              "velocity": 60,
              "position": 0.8333333333333334,
              "duration": 0.052083333333333336
            },
            {
              "pitch": 52,
              "velocity": 83,
              "position": 1,
              "duration": 0.125
            },
            {
              "pitch": 58,
              "velocity": 110,
              "position": 1,
              "duration": 0.29375
            },
            {
              "pitch": 62,
              "velocity": 95,
              "position": 1,
              "duration": 0.33541666666666664
            },
            {
              "pitch": 49,
              "velocity": 66,
              "position": 1.8333333333333333,
              "duration": 0.08333333333333333
            },
            {
              "pitch": 53,
              "velocity": 107,
              "position": 2,
              "duration": 0.14791666666666667
            },
            {
              "pitch": 59,
              "velocity": 110,
              "position": 2,
              "duration": 0.19791666666666666
            },
            {
              "pitch": 63,
              "velocity": 88,
              "position": 2,
              "duration": 0.20833333333333334
            },
            {
              "pitch": 53,
              "velocity": 107,
              "position": 2.8333333333333335,
              "duration": 0.10416666666666667
            },
            {
              "pitch": 59,
              "velocity": 113,
              "position": 2.8333333333333335,
              "duration": 0.10416666666666667
            },
            {
              "pitch": 63,
              "velocity": 110,
              "position": 2.8333333333333335,
              "duration": 0.11458333333333333
            },
            {
              "pitch": 49,
              "velocity": 83,
              "position": 3.3333333333333335,
              "duration": 0.15
            },
            {
              "pitch": 59,
              "velocity": 93,
              "position": 3.5,
              "duration": 0.3020833333333333
            },
            {
              "pitch": 63,
              "velocity": 67,
              "position": 3.5,
              "duration": 0.3020833333333333
            },
            {
              "pitch": 53,
              "velocity": 107,
              "position": 3.5,
              "duration": 0.3125
            },
            {
              "pitch": 43,
              "velocity": 78,
              "position": 3.8333333333333335,
              "duration": 0.23958333333333334
            },
            {
              "pitch": 36,
              "velocity": 70,
              "position": 4,
              "duration": 0.18958333333333333
            },
            {
              "pitch": 52,
              "velocity": 93,
              "position": 4.333333333333333,
              "duration": 0.09583333333333334
            },
            {
              "pitch": 58,
              "velocity": 78,
              "position": 4.333333333333333,
              "duration": 0.125
            },
            {
              "pitch": 62,
              "velocity": 93,
              "position": 4.333333333333333,
              "duration": 0.14583333333333334
            },
            {
              "pitch": 48,
              "velocity": 93,
              "position": 4.833333333333333,
              "duration": 0.12708333333333333
            },
            {
              "pitch": 52,
              "velocity": 110,
              "position": 5,
              "duration": 0.17708333333333334
            },
            {
              "pitch": 62,
              "velocity": 110,
              "position": 5,
              "duration": 0.23958333333333334
            },
            {
              "pitch": 58,
              "velocity": 66,
              "position": 5,
              "duration": 0.23958333333333334
            },
            {
              "pitch": 52,
              "velocity": 73,
              "position": 5.5,
              "duration": 0.19791666666666666
            },
            {
              "pitch": 58,
              "velocity": 81,
              "position": 5.5,
              "duration": 0.2708333333333333
            },
            {
              "pitch": 62,
              "velocity": 67,
              "position": 5.5,
              "duration": 0.27291666666666664
            },
            {
              "pitch": 42,
              "velocity": 78,
              "position": 6,
              "duration": 0.11458333333333333
            },
            {
              "pitch": 52,
              "velocity": 93,
              "position": 6,
              "duration": 0.125
            },
            {
              "pitch": 58,
              "velocity": 110,
              "position": 6,
              "duration": 0.19791666666666666
            },
            {
              "pitch": 56,
              "velocity": 83,
              "position": 6,
              "duration": 0.19791666666666666
            },
            {
              "pitch": 61,
              "velocity": 116,
              "position": 6,
              "duration": 0.22916666666666666
            },
            {
              "pitch": 30,
              "velocity": 81,
              "position": 6,
              "duration": 0.22916666666666666
            },
            {
              "pitch": 52,
              "velocity": 104,
              "position": 6.5,
              "duration": 0.09375
            },
            {
              "pitch": 56,
              "velocity": 127,
              "position": 6.5,
              "duration": 0.11458333333333333
            },
            {
              "pitch": 58,
              "velocity": 116,
              "position": 6.5,
              "duration": 0.12916666666666668
            },
            {
              "pitch": 61,
              "velocity": 124,
              "position": 6.5,
              "duration": 0.17708333333333334
            },
            {
              "pitch": 42,
              "velocity": 78,
              "position": 6.833333333333333,
              "duration": 0.16666666666666666
            },
            {
              "pitch": 30,
              "velocity": 88,
              "position": 7,
              "duration": 0.19791666666666666
            },
            {
              "pitch": 61,
              "velocity": 110,
              "position": 7.333333333333333,
              "duration": 0.3333333333333333
            },
            {
              "pitch": 58,
              "velocity": 95,
              "position": 7.333333333333333,
              "duration": 0.40625
            },
            {
              "pitch": 52,
              "velocity": 95,
              "position": 7.333333333333333,
              "duration": 0.4375
            },
            {
              "pitch": 56,
              "velocity": 120,
              "position": 7.333333333333333,
              "duration": 0.46875
            },
            {
              "pitch": 36,
              "velocity": 45,
              "position": 7.833333333333333,
              "duration": 0.14583333333333334
            },
            {
              "pitch": 29,
              "velocity": 95,
              "position": 8,
              "duration": 0.3020833333333333
            },
            {
              "pitch": 57,
              "velocity": 110,
              "position": 8.333333333333334,
              "duration": 0.11458333333333333
            },
            {
              "pitch": 67,
              "velocity": 63,
              "position": 8.333333333333334,
              "duration": 0.13541666666666666
            },
            {
              "pitch": 63,
              "velocity": 110,
              "position": 8.333333333333334,
              "duration": 0.14791666666666667
            },
            {
              "pitch": 41,
              "velocity": 83,
              "position": 8.833333333333334,
              "duration": 0.11666666666666667
            },
            {
              "pitch": 61,
              "velocity": 47,
              "position": 9,
              "duration": 0.04375
            },
            {
              "pitch": 57,
              "velocity": 98,
              "position": 9,
              "duration": 0.11666666666666667
            },
            {
              "pitch": 67,
              "velocity": 93,
              "position": 9,
              "duration": 0.16666666666666666
            },
            {
              "pitch": 63,
              "velocity": 88,
              "position": 9,
              "duration": 0.21041666666666667
            },
            {
              "pitch": 41,
              "velocity": 40,
              "position": 9.333333333333334,
              "duration": 0.0625
            },
            {
              "pitch": 66,
              "velocity": 72,
              "position": 9.5,
              "duration": 0.2
            },
            {
              "pitch": 72,
              "velocity": 83,
              "position": 9.5,
              "duration": 0.41875
            },
            {
              "pitch": 67,
              "velocity": 78,
              "position": 9.666666666666666,
              "duration": 0.3020833333333333
            },
            {
              "pitch": 72,
              "velocity": 104,
              "position": 10,
              "duration": 0.23958333333333334
            },
            {
              "pitch": 65,
              "velocity": 98,
              "position": 10,
              "duration": 0.24375
            },
            {
              "pitch": 63,
              "velocity": 76,
              "position": 10.5,
              "duration": 0.22916666666666666
            },
            {
              "pitch": 56,
              "velocity": 78,
              "position": 11,
              "duration": 0.1375
            },
            {
              "pitch": 60,
              "velocity": 95,
              "position": 11,
              "duration": 0.3145833333333333
            },
            {
              "pitch": 57,
              "velocity": 66,
              "position": 11.166666666666666,
              "duration": 0.19791666666666666
            },
            {
              "pitch": 41,
              "velocity": 78,
              "position": 11.333333333333334,
              "duration": 0.1375
            },
            {
              "pitch": 55,
              "velocity": 100,
              "position": 11.5,
              "duration": 0.23958333333333334
            },
            {
              "pitch": 60,
              "velocity": 95,
              "position": 11.5,
              "duration": 0.3854166666666667
            },
            {
              "pitch": 38,
              "velocity": 63,
              "position": 11.833333333333334,
              "duration": 0.17916666666666667
            },
            {
              "pitch": 58,
              "velocity": 70,
              "position": 12,
              "duration": 0.15625
            },
            {
              "pitch": 53,
              "velocity": 104,
              "position": 12,
              "duration": 0.19791666666666666
            },
            {
              "pitch": 59,
              "velocity": 63,
              "position": 12.166666666666666,
              "duration": 0.08333333333333333
            },
            {
              "pitch": 31,
              "velocity": 88,
              "position": 12,
              "duration": 0.2708333333333333
            },
            {
              "pitch": 62,
              "velocity": 100,
              "position": 12,
              "duration": 0.27291666666666664
            },
            {
              "pitch": 53,
              "velocity": 110,
              "position": 12.5,
              "duration": 0.16666666666666666
            },
            {
              "pitch": 59,
              "velocity": 104,
              "position": 12.5,
              "duration": 0.19791666666666666
            },
            {
              "pitch": 31,
              "velocity": 100,
              "position": 12.5,
              "duration": 0.2125
            },
            {
              "pitch": 43,
              "velocity": 78,
              "position": 13,
              "duration": 0.1375
            },
            {
              "pitch": 53,
              "velocity": 104,
              "position": 13,
              "duration": 0.15833333333333333
            },
            {
              "pitch": 59,
              "velocity": 100,
              "position": 13,
              "duration": 0.20833333333333334
            },
            {
              "pitch": 31,
              "velocity": 98,
              "position": 13,
              "duration": 0.22291666666666668
            },
            {
              "pitch": 53,
              "velocity": 110,
              "position": 13.5,
              "duration": 0.14583333333333334
            },
            {
              "pitch": 43,
              "velocity": 86,
              "position": 13.5,
              "duration": 0.16666666666666666
            },
            {
              "pitch": 59,
              "velocity": 113,
              "position": 13.5,
              "duration": 0.18958333333333333
            },
            {
              "pitch": 31,
              "velocity": 104,
              "position": 13.5,
              "duration": 0.22916666666666666
            },
            {
              "pitch": 31,
              "velocity": 107,
              "position": 14,
              "duration": 0.24375
            },
            {
              "pitch": 43,
              "velocity": 91,
              "position": 14,
              "duration": 0.25
            },
            {
              "pitch": 53,
              "velocity": 104,
              "position": 14,
              "duration": 0.2604166666666667
            },
            {
              "pitch": 59,
              "velocity": 104,
              "position": 14,
              "duration": 0.2708333333333333
            }
          ]
        },
        "12": {
          "ctab": {
            "srcChannel": 12,
            "name": "SolidGtr",
            "accType": "CHORD2",
            "editable": false,
            "mutedNotes": [],
            "mutedChords": [
              "dim7",
              "dim",
              "minMaj7(9)",
              "minMaj7",
              "min7(11)",
              "min7(9)",
              "min(9)",
              "m7b5",
              "min7",
              "min6",
              "min"
            ],
            "autoStart": false,
            "sourceChordNote": 0,
            "sourceChordType": "Maj",
            "ctb2Low": null,
            "ctb2Main": {
              "ntr": "ROOT_TRANSPOSITION",
              "ntt": "BYPASS",
              "bassOn": false,
              "chordRootUpperLimit": 8,
              "noteLowLimit": 58,
              "noteHighLimit": 69,
              "rtr": "PITCH_SHIFT"
            },
            "ctb2High": null
          },
          "notes": [
            {
              "pitch": 106,
              "velocity": 110,
              "position": 0,
              "duration": 0.15625
            },
            {
              "pitch": 58,
              "velocity": 55,
              "position": 0,
              "duration": 0.3020833333333333
            },
            {
              "pitch": 64,
              "velocity": 55,
              "position": 0.010416666666666666,
              "duration": 0.30416666666666664
            },
            {
              "pitch": 67,
              "velocity": 55,
              "position": 0.020833333333333332,
              "duration": 0.3020833333333333
            },
            {
              "pitch": 64,
              "velocity": 55,
              "position": 0.34375,
              "duration": 0.1375
            },
            {
              "pitch": 58,
              "velocity": 55,
              "position": 0.3541666666666667,
              "duration": 0.13541666666666666
            },
            {
              "pitch": 67,
              "velocity": 55,
              "position": 0.3333333333333333,
              "duration": 0.15625
            },
            {
              "pitch": 107,
              "velocity": 110,
              "position": 0.3333333333333333,
              "duration": 0.15625
            },
            {
              "pitch": 58,
              "velocity": 82,
              "position": 0.5,
              "duration": 0.14583333333333334
            },
            {
              "pitch": 67,
              "velocity": 82,
              "position": 0.5208333333333334,
              "duration": 0.125
            },
            {
              "pitch": 64,
              "velocity": 82,
              "position": 0.5104166666666666,
              "duration": 0.13541666666666666
            },
            {
              "pitch": 108,
              "velocity": 50,
              "position": 0.5,
              "duration": 0.15625
            },
            {
              "pitch": 64,
              "velocity": 55,
              "position": 0.84375,
              "duration": 0.1375
            },
            {
              "pitch": 58,
              "velocity": 55,
              "position": 0.8541666666666666,
              "duration": 0.13541666666666666
            },
            {
              "pitch": 67,
              "velocity": 55,
              "position": 0.8333333333333334,
              "duration": 0.15625
            },
            {
              "pitch": 100,
              "velocity": 100,
              "position": 0.8333333333333334,
              "duration": 0.15625
            },
            {
              "pitch": 64,
              "velocity": 72,
              "position": 1.0104166666666667,
              "duration": 0.03333333333333333
            },
            {
              "pitch": 58,
              "velocity": 72,
              "position": 1.0208333333333333,
              "duration": 0.03125
            },
            {
              "pitch": 67,
              "velocity": 72,
              "position": 1.0208333333333333,
              "duration": 0.052083333333333336
            },
            {
              "pitch": 111,
              "velocity": 98,
              "position": 1,
              "duration": 0.15625
            },
            {
              "pitch": 64,
              "velocity": 55,
              "position": 1.34375,
              "duration": 0.13541666666666666
            },
            {
              "pitch": 58,
              "velocity": 55,
              "position": 1.3541666666666667,
              "duration": 0.12708333333333333
            },
            {
              "pitch": 67,
              "velocity": 55,
              "position": 1.3333333333333333,
              "duration": 0.14791666666666667
            },
            {
              "pitch": 108,
              "velocity": 106,
              "position": 1.3333333333333333,
              "duration": 0.15625
            },
            {
              "pitch": 64,
              "velocity": 82,
              "position": 1.5,
              "duration": 0.03333333333333333
            },
            {
              "pitch": 58,
              "velocity": 82,
              "position": 1.5104166666666667,
              "duration": 0.03125
            },
            {
              "pitch": 67,
              "velocity": 82,
              "position": 1.5104166666666667,
              "duration": 0.052083333333333336
            },
            {
              "pitch": 112,
              "velocity": 109,
              "position": 1.5,
              "duration": 0.15625
            },
            {
              "pitch": 64,
              "velocity": 40,
              "position": 1.84375,
              "duration": 0.1375
            },
            {
              "pitch": 105,
              "velocity": 68,
              "position": 1.8333333333333333,
              "duration": 0.15625
            },
            {
              "pitch": 58,
              "velocity": 40,
              "position": 1.8541666666666667,
              "duration": 0.13541666666666666
            },
            {
              "pitch": 67,
              "velocity": 40,
              "position": 1.8333333333333333,
              "duration": 0.15625
            },
            {
              "pitch": 120,
              "velocity": 99,
              "position": 1.8541666666666667,
              "duration": 0.21875
            },
            {
              "pitch": 106,
              "velocity": 107,
              "position": 2,
              "duration": 0.15625
            },
            {
              "pitch": 65,
              "velocity": 55,
              "position": 2.0104166666666665,
              "duration": 0.14791666666666667
            },
            {
              "pitch": 68,
              "velocity": 55,
              "position": 2.0208333333333335,
              "duration": 0.14583333333333334
            },
            {
              "pitch": 59,
              "velocity": 55,
              "position": 2,
              "duration": 0.16666666666666666
            },
            {
              "pitch": 65,
              "velocity": 82,
              "position": 2.5,
              "duration": 0.03333333333333333
            },
            {
              "pitch": 59,
              "velocity": 82,
              "position": 2.5104166666666665,
              "duration": 0.03125
            },
            {
              "pitch": 68,
              "velocity": 82,
              "position": 2.5104166666666665,
              "duration": 0.052083333333333336
            },
            {
              "pitch": 115,
              "velocity": 92,
              "position": 2.5,
              "duration": 0.15625
            },
            {
              "pitch": 65,
              "velocity": 55,
              "position": 2.84375,
              "duration": 0.1375
            },
            {
              "pitch": 59,
              "velocity": 55,
              "position": 2.8541666666666665,
              "duration": 0.13541666666666666
            },
            {
              "pitch": 68,
              "velocity": 55,
              "position": 2.8333333333333335,
              "duration": 0.15625
            },
            {
              "pitch": 107,
              "velocity": 108,
              "position": 2.8333333333333335,
              "duration": 0.15625
            },
            {
              "pitch": 65,
              "velocity": 82,
              "position": 3,
              "duration": 0.03333333333333333
            },
            {
              "pitch": 59,
              "velocity": 82,
              "position": 3.0104166666666665,
              "duration": 0.03125
            },
            {
              "pitch": 68,
              "velocity": 82,
              "position": 3.0104166666666665,
              "duration": 0.052083333333333336
            },
            {
              "pitch": 111,
              "velocity": 98,
              "position": 3,
              "duration": 0.15625
            },
            {
              "pitch": 65,
              "velocity": 68,
              "position": 3.34375,
              "duration": 0.1375
            },
            {
              "pitch": 59,
              "velocity": 68,
              "position": 3.3541666666666665,
              "duration": 0.13541666666666666
            },
            {
              "pitch": 68,
              "velocity": 68,
              "position": 3.3333333333333335,
              "duration": 0.15625
            },
            {
              "pitch": 99,
              "velocity": 52,
              "position": 3.3333333333333335,
              "duration": 0.15625
            },
            {
              "pitch": 122,
              "velocity": 99,
              "position": 3.3020833333333335,
              "duration": 0.21875
            },
            {
              "pitch": 100,
              "velocity": 110,
              "position": 3.5,
              "duration": 0.15625
            },
            {
              "pitch": 64,
              "velocity": 116,
              "position": 3.5104166666666665,
              "duration": 0.8041666666666667
            },
            {
              "pitch": 58,
              "velocity": 116,
              "position": 3.5,
              "duration": 0.8229166666666666
            },
            {
              "pitch": 67,
              "velocity": 118,
              "position": 3.5208333333333335,
              "duration": 0.8020833333333334
            },
            {
              "pitch": 64,
              "velocity": 68,
              "position": 4.34375,
              "duration": 0.1375
            },
            {
              "pitch": 58,
              "velocity": 68,
              "position": 4.354166666666667,
              "duration": 0.13541666666666666
            },
            {
              "pitch": 67,
              "velocity": 68,
              "position": 4.333333333333333,
              "duration": 0.15625
            },
            {
              "pitch": 111,
              "velocity": 88,
              "position": 4.333333333333333,
              "duration": 0.15625
            },
            {
              "pitch": 106,
              "velocity": 68,
              "position": 4.5,
              "duration": 0.15625
            },
            {
              "pitch": 67,
              "velocity": 40,
              "position": 4.520833333333333,
              "duration": 0.2916666666666667
            },
            {
              "pitch": 64,
              "velocity": 40,
              "position": 4.510416666666667,
              "duration": 0.3020833333333333
            },
            {
              "pitch": 58,
              "velocity": 40,
              "position": 4.5,
              "duration": 0.3125
            },
            {
              "pitch": 64,
              "velocity": 55,
              "position": 4.84375,
              "duration": 0.1375
            },
            {
              "pitch": 58,
              "velocity": 55,
              "position": 4.854166666666667,
              "duration": 0.13541666666666666
            },
            {
              "pitch": 67,
              "velocity": 55,
              "position": 4.833333333333333,
              "duration": 0.15625
            },
            {
              "pitch": 107,
              "velocity": 104,
              "position": 4.833333333333333,
              "duration": 0.15625
            },
            {
              "pitch": 64,
              "velocity": 82,
              "position": 5,
              "duration": 0.03333333333333333
            },
            {
              "pitch": 58,
              "velocity": 82,
              "position": 5.010416666666667,
              "duration": 0.03125
            },
            {
              "pitch": 67,
              "velocity": 82,
              "position": 5.010416666666667,
              "duration": 0.052083333333333336
            },
            {
              "pitch": 102,
              "velocity": 70,
              "position": 5,
              "duration": 0.15625
            },
            {
              "pitch": 109,
              "velocity": 106,
              "position": 5.333333333333333,
              "duration": 0.15625
            },
            {
              "pitch": 64,
              "velocity": 55,
              "position": 5.34375,
              "duration": 0.14791666666666667
            },
            {
              "pitch": 58,
              "velocity": 55,
              "position": 5.354166666666667,
              "duration": 0.14583333333333334
            },
            {
              "pitch": 67,
              "velocity": 55,
              "position": 5.333333333333333,
              "duration": 0.16666666666666666
            },
            {
              "pitch": 108,
              "velocity": 53,
              "position": 5.5,
              "duration": 0.15625
            },
            {
              "pitch": 64,
              "velocity": 40,
              "position": 5.84375,
              "duration": 0.1375
            },
            {
              "pitch": 58,
              "velocity": 40,
              "position": 5.854166666666667,
              "duration": 0.13541666666666666
            },
            {
              "pitch": 67,
              "velocity": 40,
              "position": 5.833333333333333,
              "duration": 0.15625
            },
            {
              "pitch": 99,
              "velocity": 49,
              "position": 5.833333333333333,
              "duration": 0.15625
            },
            {
              "pitch": 121,
              "velocity": 99,
              "position": 5.802083333333333,
              "duration": 0.21875
            },
            {
              "pitch": 100,
              "velocity": 107,
              "position": 6,
              "duration": 0.15625
            },
            {
              "pitch": 64,
              "velocity": 55,
              "position": 6.010416666666667,
              "duration": 0.14791666666666667
            },
            {
              "pitch": 58,
              "velocity": 55,
              "position": 6,
              "duration": 0.16666666666666666
            },
            {
              "pitch": 66,
              "velocity": 55,
              "position": 6.020833333333333,
              "duration": 0.14583333333333334
            },
            {
              "pitch": 64,
              "velocity": 82,
              "position": 6.5,
              "duration": 0.03333333333333333
            },
            {
              "pitch": 58,
              "velocity": 82,
              "position": 6.510416666666667,
              "duration": 0.03125
            },
            {
              "pitch": 66,
              "velocity": 82,
              "position": 6.510416666666667,
              "duration": 0.052083333333333336
            },
            {
              "pitch": 118,
              "velocity": 72,
              "position": 6.510416666666667,
              "duration": 0.15625
            },
            {
              "pitch": 66,
              "velocity": 82,
              "position": 6.833333333333333,
              "duration": 0.14583333333333334
            },
            {
              "pitch": 58,
              "velocity": 82,
              "position": 6.854166666666667,
              "duration": 0.13541666666666666
            },
            {
              "pitch": 64,
              "velocity": 82,
              "position": 6.84375,
              "duration": 0.14583333333333334
            },
            {
              "pitch": 107,
              "velocity": 70,
              "position": 6.833333333333333,
              "duration": 0.15625
            },
            {
              "pitch": 108,
              "velocity": 102,
              "position": 7,
              "duration": 0.15625
            },
            {
              "pitch": 64,
              "velocity": 55,
              "position": 7,
              "duration": 0.2916666666666667
            },
            {
              "pitch": 58,
              "velocity": 55,
              "position": 7.010416666666667,
              "duration": 0.28125
            },
            {
              "pitch": 66,
              "velocity": 55,
              "position": 7.010416666666667,
              "duration": 0.3020833333333333
            },
            {
              "pitch": 64,
              "velocity": 68,
              "position": 7.34375,
              "duration": 0.1375
            },
            {
              "pitch": 58,
              "velocity": 68,
              "position": 7.354166666666667,
              "duration": 0.13541666666666666
            },
            {
              "pitch": 66,
              "velocity": 68,
              "position": 7.333333333333333,
              "duration": 0.15625
            },
            {
              "pitch": 105,
              "velocity": 64,
              "position": 7.333333333333333,
              "duration": 0.15625
            },
            {
              "pitch": 106,
              "velocity": 102,
              "position": 7.5,
              "duration": 0.15625
            },
            {
              "pitch": 66,
              "velocity": 55,
              "position": 7.520833333333333,
              "duration": 0.2916666666666667
            },
            {
              "pitch": 64,
              "velocity": 55,
              "position": 7.510416666666667,
              "duration": 0.3145833333333333
            },
            {
              "pitch": 58,
              "velocity": 55,
              "position": 7.5,
              "duration": 0.3333333333333333
            },
            {
              "pitch": 64,
              "velocity": 82,
              "position": 7.84375,
              "duration": 0.1375
            },
            {
              "pitch": 58,
              "velocity": 82,
              "position": 7.854166666666667,
              "duration": 0.13541666666666666
            },
            {
              "pitch": 66,
              "velocity": 82,
              "position": 7.833333333333333,
              "duration": 0.15625
            },
            {
              "pitch": 103,
              "velocity": 70,
              "position": 7.833333333333333,
              "duration": 0.15625
            },
            {
              "pitch": 123,
              "velocity": 99,
              "position": 7.802083333333333,
              "duration": 0.21875
            },
            {
              "pitch": 106,
              "velocity": 110,
              "position": 8,
              "duration": 0.15625
            },
            {
              "pitch": 67,
              "velocity": 55,
              "position": 8.010416666666666,
              "duration": 0.3020833333333333
            },
            {
              "pitch": 63,
              "velocity": 55,
              "position": 8,
              "duration": 0.3229166666666667
            },
            {
              "pitch": 57,
              "velocity": 55,
              "position": 8.010416666666666,
              "duration": 0.3125
            },
            {
              "pitch": 63,
              "velocity": 68,
              "position": 8.333333333333334,
              "duration": 0.1375
            },
            {
              "pitch": 57,
              "velocity": 68,
              "position": 8.34375,
              "duration": 0.13541666666666666
            },
            {
              "pitch": 67,
              "velocity": 68,
              "position": 8.322916666666666,
              "duration": 0.15625
            },
            {
              "pitch": 107,
              "velocity": 110,
              "position": 8.333333333333334,
              "duration": 0.15625
            },
            {
              "pitch": 108,
              "velocity": 50,
              "position": 8.5,
              "duration": 0.15625
            },
            {
              "pitch": 67,
              "velocity": 40,
              "position": 8.510416666666666,
              "duration": 0.2916666666666667
            },
            {
              "pitch": 57,
              "velocity": 40,
              "position": 8.489583333333334,
              "duration": 0.3125
            },
            {
              "pitch": 63,
              "velocity": 40,
              "position": 8.5,
              "duration": 0.3020833333333333
            },
            {
              "pitch": 63,
              "velocity": 55,
              "position": 8.833333333333334,
              "duration": 0.1375
            },
            {
              "pitch": 57,
              "velocity": 55,
              "position": 8.84375,
              "duration": 0.13541666666666666
            },
            {
              "pitch": 67,
              "velocity": 55,
              "position": 8.822916666666666,
              "duration": 0.15625
            },
            {
              "pitch": 100,
              "velocity": 100,
              "position": 8.833333333333334,
              "duration": 0.15625
            },
            {
              "pitch": 63,
              "velocity": 72,
              "position": 9,
              "duration": 0.03333333333333333
            },
            {
              "pitch": 57,
              "velocity": 72,
              "position": 9.010416666666666,
              "duration": 0.03125
            },
            {
              "pitch": 67,
              "velocity": 72,
              "position": 9.010416666666666,
              "duration": 0.052083333333333336
            },
            {
              "pitch": 111,
              "velocity": 98,
              "position": 9,
              "duration": 0.15625
            },
            {
              "pitch": 63,
              "velocity": 55,
              "position": 9.333333333333334,
              "duration": 0.13541666666666666
            },
            {
              "pitch": 57,
              "velocity": 55,
              "position": 9.34375,
              "duration": 0.12708333333333333
            },
            {
              "pitch": 67,
              "velocity": 55,
              "position": 9.322916666666666,
              "duration": 0.14791666666666667
            },
            {
              "pitch": 108,
              "velocity": 106,
              "position": 9.333333333333334,
              "duration": 0.15625
            },
            {
              "pitch": 63,
              "velocity": 82,
              "position": 9.489583333333334,
              "duration": 0.03333333333333333
            },
            {
              "pitch": 57,
              "velocity": 82,
              "position": 9.5,
              "duration": 0.03125
            },
            {
              "pitch": 67,
              "velocity": 82,
              "position": 9.5,
              "duration": 0.052083333333333336
            },
            {
              "pitch": 112,
              "velocity": 109,
              "position": 9.5,
              "duration": 0.15625
            },
            {
              "pitch": 63,
              "velocity": 40,
              "position": 9.833333333333334,
              "duration": 0.1375
            },
            {
              "pitch": 57,
              "velocity": 40,
              "position": 9.84375,
              "duration": 0.13541666666666666
            },
            {
              "pitch": 67,
              "velocity": 40,
              "position": 9.822916666666666,
              "duration": 0.15625
            },
            {
              "pitch": 105,
              "velocity": 68,
              "position": 9.833333333333334,
              "duration": 0.15625
            },
            {
              "pitch": 63,
              "velocity": 55,
              "position": 10,
              "duration": 0.14791666666666667
            },
            {
              "pitch": 67,
              "velocity": 55,
              "position": 10.010416666666666,
              "duration": 0.14583333333333334
            },
            {
              "pitch": 106,
              "velocity": 107,
              "position": 10,
              "duration": 0.15625
            },
            {
              "pitch": 57,
              "velocity": 55,
              "position": 9.989583333333334,
              "duration": 0.16666666666666666
            },
            {
              "pitch": 63,
              "velocity": 82,
              "position": 10.489583333333334,
              "duration": 0.03333333333333333
            },
            {
              "pitch": 57,
              "velocity": 82,
              "position": 10.5,
              "duration": 0.03125
            },
            {
              "pitch": 67,
              "velocity": 82,
              "position": 10.5,
              "duration": 0.052083333333333336
            },
            {
              "pitch": 115,
              "velocity": 92,
              "position": 10.5,
              "duration": 0.15625
            },
            {
              "pitch": 63,
              "velocity": 55,
              "position": 10.833333333333334,
              "duration": 0.1375
            },
            {
              "pitch": 57,
              "velocity": 55,
              "position": 10.84375,
              "duration": 0.13541666666666666
            },
            {
              "pitch": 67,
              "velocity": 55,
              "position": 10.822916666666666,
              "duration": 0.15625
            },
            {
              "pitch": 107,
              "velocity": 108,
              "position": 10.833333333333334,
              "duration": 0.15625
            },
            {
              "pitch": 63,
              "velocity": 82,
              "position": 10.989583333333334,
              "duration": 0.03333333333333333
            },
            {
              "pitch": 57,
              "velocity": 82,
              "position": 11,
              "duration": 0.03125
            },
            {
              "pitch": 67,
              "velocity": 82,
              "position": 11,
              "duration": 0.052083333333333336
            },
            {
              "pitch": 111,
              "velocity": 98,
              "position": 11,
              "duration": 0.15625
            },
            {
              "pitch": 63,
              "velocity": 40,
              "position": 11.333333333333334,
              "duration": 0.1375
            },
            {
              "pitch": 57,
              "velocity": 40,
              "position": 11.34375,
              "duration": 0.13541666666666666
            },
            {
              "pitch": 67,
              "velocity": 40,
              "position": 11.322916666666666,
              "duration": 0.15625
            },
            {
              "pitch": 99,
              "velocity": 52,
              "position": 11.333333333333334,
              "duration": 0.15625
            },
            {
              "pitch": 100,
              "velocity": 110,
              "position": 11.5,
              "duration": 0.15625
            },
            {
              "pitch": 67,
              "velocity": 55,
              "position": 11.510416666666666,
              "duration": 0.3020833333333333
            },
            {
              "pitch": 57,
              "velocity": 55,
              "position": 11.510416666666666,
              "duration": 0.3125
            },
            {
              "pitch": 63,
              "velocity": 55,
              "position": 11.5,
              "duration": 0.3229166666666667
            },
            {
              "pitch": 63,
              "velocity": 68,
              "position": 11.833333333333334,
              "duration": 0.1375
            },
            {
              "pitch": 67,
              "velocity": 68,
              "position": 11.822916666666666,
              "duration": 0.15625
            },
            {
              "pitch": 57,
              "velocity": 68,
              "position": 11.84375,
              "duration": 0.13541666666666666
            },
            {
              "pitch": 122,
              "velocity": 99,
              "position": 11.84375,
              "duration": 0.21875
            },
            {
              "pitch": 106,
              "velocity": 110,
              "position": 12,
              "duration": 0.15625
            },
            {
              "pitch": 59,
              "velocity": 55,
              "position": 12.010416666666666,
              "duration": 0.28125
            },
            {
              "pitch": 63,
              "velocity": 55,
              "position": 12,
              "duration": 0.2916666666666667
            },
            {
              "pitch": 67,
              "velocity": 55,
              "position": 12.010416666666666,
              "duration": 0.3020833333333333
            },
            {
              "pitch": 63,
              "velocity": 68,
              "position": 12.34375,
              "duration": 0.1375
            },
            {
              "pitch": 59,
              "velocity": 68,
              "position": 12.354166666666666,
              "duration": 0.13541666666666666
            },
            {
              "pitch": 67,
              "velocity": 68,
              "position": 12.333333333333334,
              "duration": 0.15625
            },
            {
              "pitch": 107,
              "velocity": 72,
              "position": 12.333333333333334,
              "duration": 0.15625
            },
            {
              "pitch": 108,
              "velocity": 98,
              "position": 12.5,
              "duration": 0.15625
            },
            {
              "pitch": 63,
              "velocity": 55,
              "position": 12.510416666666666,
              "duration": 0.3145833333333333
            },
            {
              "pitch": 67,
              "velocity": 55,
              "position": 12.520833333333334,
              "duration": 0.3125
            },
            {
              "pitch": 59,
              "velocity": 55,
              "position": 12.5,
              "duration": 0.3333333333333333
            },
            {
              "pitch": 101,
              "velocity": 46,
              "position": 12.833333333333334,
              "duration": 0.15625
            },
            {
              "pitch": 100,
              "velocity": 98,
              "position": 13,
              "duration": 0.15625
            },
            {
              "pitch": 63,
              "velocity": 55,
              "position": 13,
              "duration": 0.2916666666666667
            },
            {
              "pitch": 59,
              "velocity": 55,
              "position": 13.010416666666666,
              "duration": 0.28125
            },
            {
              "pitch": 67,
              "velocity": 55,
              "position": 13.010416666666666,
              "duration": 0.3020833333333333
            },
            {
              "pitch": 63,
              "velocity": 68,
              "position": 13.34375,
              "duration": 0.1375
            },
            {
              "pitch": 59,
              "velocity": 68,
              "position": 13.354166666666666,
              "duration": 0.13541666666666666
            },
            {
              "pitch": 67,
              "velocity": 68,
              "position": 13.333333333333334,
              "duration": 0.15625
            },
            {
              "pitch": 99,
              "velocity": 66,
              "position": 13.333333333333334,
              "duration": 0.15625
            },
            {
              "pitch": 98,
              "velocity": 109,
              "position": 13.5,
              "duration": 0.15625
            },
            {
              "pitch": 63,
              "velocity": 55,
              "position": 13.510416666666666,
              "duration": 0.3145833333333333
            },
            {
              "pitch": 59,
              "velocity": 55,
              "position": 13.5,
              "duration": 0.3333333333333333
            },
            {
              "pitch": 67,
              "velocity": 55,
              "position": 13.520833333333334,
              "duration": 0.3125
            },
            {
              "pitch": 121,
              "velocity": 99,
              "position": 13.791666666666666,
              "duration": 0.1875
            },
            {
              "pitch": 105,
              "velocity": 68,
              "position": 13.833333333333334,
              "duration": 0.15625
            },
            {
              "pitch": 106,
              "velocity": 107,
              "position": 14,
              "duration": 0.15625
            },
            {
              "pitch": 61,
              "velocity": 55,
              "position": 14,
              "duration": 0.98125
            },
            {
              "pitch": 65,
              "velocity": 55,
              "position": 14.010416666666666,
              "duration": 0.9791666666666666
            },
            {
              "pitch": 57,
              "velocity": 55,
              "position": 13.989583333333334,
              "duration": 1
            },
            {
              "pitch": 99,
              "velocity": 52,
              "position": 15.333333333333334,
              "duration": 0.15625
            },
            {
              "pitch": 100,
              "velocity": 110,
              "position": 15.5,
              "duration": 0.15625
            }
          ]
        },
        "14": {
          "ctab": {
            "srcChannel": 14,
            "name": "TenorSax",
            "accType": "PHRASE1",
            "editable": false,
            "mutedNotes": [],
            "mutedChords": [
              "dim7",
              "dim",
              "minMaj7(9)",
              "minMaj7",
              "min7(11)",
              "min7(9)",
              "min(9)",
              "m7b5",
              "min7",
              "min6",
              "min"
            ],
            "autoStart": false,
            "sourceChordNote": 0,
            "sourceChordType": "Maj",
            "ctb2Low": null,
            "ctb2Main": {
              "ntr": "ROOT_TRANSPOSITION",
              "ntt": "BYPASS",
              "bassOn": false,
              "chordRootUpperLimit": 4,
              "noteLowLimit": 0,
              "noteHighLimit": 127,
              "rtr": "PITCH_SHIFT"
            },
            "ctb2High": null
          },
          "notes": [
            {
              "pitch": 72,
              "velocity": 90,
              "position": 0.375,
              "duration": 0.3333333333333333
            },
            {
              "pitch": 73,
              "velocity": 112,
              "position": 0.7083333333333334,
              "duration": 0.08333333333333333
            },
            {
              "pitch": 72,
              "velocity": 114,
              "position": 0.7916666666666666,
              "duration": 0.08333333333333333
            },
            {
              "pitch": 72,
              "velocity": 90,
              "position": 1.0416666666666667,
              "duration": 0.6666666666666666
            },
            {
              "pitch": 70,
              "velocity": 115,
              "position": 1.7083333333333333,
              "duration": 0.16666666666666666
            },
            {
              "pitch": 70,
              "velocity": 90,
              "position": 2.0416666666666665,
              "duration": 0.75
            },
            {
              "pitch": 66,
              "velocity": 118,
              "position": 2.875,
              "duration": 0.08333333333333333
            },
            {
              "pitch": 65,
              "velocity": 117,
              "position": 2.9583333333333335,
              "duration": 0.08333333333333333
            },
            {
              "pitch": 64,
              "velocity": 90,
              "position": 3.0416666666666665,
              "duration": 0.3125
            },
            {
              "pitch": 65,
              "velocity": 60,
              "position": 3.3541666666666665,
              "duration": 0.1875
            },
            {
              "pitch": 66,
              "velocity": 90,
              "position": 3.5416666666666665,
              "duration": 0.3125
            },
            {
              "pitch": 67,
              "velocity": 60,
              "position": 3.8541666666666665,
              "duration": 0.1875
            },
            {
              "pitch": 64,
              "velocity": 90,
              "position": 4.041666666666667,
              "duration": 0.3125
            },
            {
              "pitch": 62,
              "velocity": 118,
              "position": 4.375,
              "duration": 0.08333333333333333
            },
            {
              "pitch": 61,
              "velocity": 115,
              "position": 4.458333333333333,
              "duration": 0.08333333333333333
            },
            {
              "pitch": 60,
              "velocity": 90,
              "position": 4.541666666666667,
              "duration": 0.3125
            },
            {
              "pitch": 62,
              "velocity": 58,
              "position": 4.854166666666667,
              "duration": 0.1875
            },
            {
              "pitch": 64,
              "velocity": 90,
              "position": 5.041666666666667,
              "duration": 0.3125
            },
            {
              "pitch": 67,
              "velocity": 85,
              "position": 5.354166666666667,
              "duration": 0.1875
            },
            {
              "pitch": 69,
              "velocity": 90,
              "position": 5.541666666666667,
              "duration": 0.08333333333333333
            },
            {
              "pitch": 69,
              "velocity": 118,
              "position": 5.708333333333333,
              "duration": 0.08333333333333333
            },
            {
              "pitch": 67,
              "velocity": 90,
              "position": 5.791666666666667,
              "duration": 0.25
            },
            {
              "pitch": 75,
              "velocity": 90,
              "position": 7.0625,
              "duration": 0.3333333333333333
            },
            {
              "pitch": 74,
              "velocity": 90,
              "position": 7.395833333333333,
              "duration": 0.3333333333333333
            },
            {
              "pitch": 72,
              "velocity": 90,
              "position": 7.729166666666667,
              "duration": 0.16666666666666666
            },
            {
              "pitch": 69,
              "velocity": 90,
              "position": 7.895833333333333,
              "duration": 0.16666666666666666
            },
            {
              "pitch": 53,
              "velocity": 90,
              "position": 11,
              "duration": 0.16666666666666666
            },
            {
              "pitch": 57,
              "velocity": 118,
              "position": 11.125,
              "duration": 0.16666666666666666
            },
            {
              "pitch": 60,
              "velocity": 118,
              "position": 11.25,
              "duration": 0.16666666666666666
            },
            {
              "pitch": 65,
              "velocity": 118,
              "position": 11.375,
              "duration": 0.16666666666666666
            },
            {
              "pitch": 59,
              "velocity": 90,
              "position": 11.5,
              "duration": 0.16666666666666666
            },
            {
              "pitch": 63,
              "velocity": 118,
              "position": 11.625,
              "duration": 0.16666666666666666
            },
            {
              "pitch": 66,
              "velocity": 118,
              "position": 11.75,
              "duration": 0.16666666666666666
            },
            {
              "pitch": 71,
              "velocity": 118,
              "position": 11.875,
              "duration": 0.16666666666666666
            },
            {
              "pitch": 67,
              "velocity": 90,
              "position": 12,
              "duration": 0.20833333333333334
            },
            {
              "pitch": 67,
              "velocity": 60,
              "position": 12.5,
              "duration": 0.20833333333333334
            },
            {
              "pitch": 67,
              "velocity": 90,
              "position": 13,
              "duration": 0.20833333333333334
            }
          ]
        },
        "15": {
          "ctab": {
            "srcChannel": 15,
            "name": "Brass",
            "accType": "PHRASE2",
            "editable": false,
            "mutedNotes": [],
            "mutedChords": [
              "dim7",
              "dim",
              "minMaj7(9)",
              "minMaj7",
              "min7(11)",
              "min7(9)",
              "min(9)",
              "m7b5",
              "min7",
              "min6",
              "min"
            ],
            "autoStart": false,
            "sourceChordNote": 0,
            "sourceChordType": "Maj",
            "ctb2Low": null,
            "ctb2Main": {
              "ntr": "ROOT_TRANSPOSITION",
              "ntt": "BYPASS",
              "bassOn": false,
              "chordRootUpperLimit": 6,
              "noteLowLimit": 0,
              "noteHighLimit": 87,
              "rtr": "PITCH_SHIFT"
            },
            "ctb2High": null
          },
          "notes": [
            {
              "pitch": 58,
              "velocity": 79,
              "position": 0.010416666666666666,
              "duration": 1.9791666666666667
            },
            {
              "pitch": 72,
              "velocity": 84,
              "position": 0.010416666666666666,
              "duration": 1.9791666666666667
            },
            {
              "pitch": 69,
              "velocity": 81,
              "position": 0.010416666666666666,
              "duration": 1.9791666666666667
            },
            {
              "pitch": 64,
              "velocity": 81,
              "position": 0.010416666666666666,
              "duration": 1.9791666666666667
            },
            {
              "pitch": 58,
              "velocity": 79,
              "position": 4,
              "duration": 1.9895833333333333
            },
            {
              "pitch": 72,
              "velocity": 84,
              "position": 4,
              "duration": 1.9895833333333333
            },
            {
              "pitch": 69,
              "velocity": 81,
              "position": 4,
              "duration": 1.9895833333333333
            },
            {
              "pitch": 64,
              "velocity": 81,
              "position": 4,
              "duration": 1.9895833333333333
            },
            {
              "pitch": 55,
              "velocity": 88,
              "position": 12,
              "duration": 0.25
            },
            {
              "pitch": 82,
              "velocity": 91,
              "position": 12,
              "duration": 0.25
            },
            {
              "pitch": 75,
              "velocity": 88,
              "position": 12,
              "duration": 0.25
            },
            {
              "pitch": 71,
              "velocity": 88,
              "position": 12,
              "duration": 0.25
            },
            {
              "pitch": 65,
              "velocity": 88,
              "position": 12,
              "duration": 0.25
            },
            {
              "pitch": 55,
              "velocity": 78,
              "position": 12.5,
              "duration": 0.25
            },
            {
              "pitch": 82,
              "velocity": 81,
              "position": 12.5,
              "duration": 0.25
            },
            {
              "pitch": 75,
              "velocity": 78,
              "position": 12.5,
              "duration": 0.25
            },
            {
              "pitch": 71,
              "velocity": 78,
              "position": 12.5,
              "duration": 0.25
            },
            {
              "pitch": 65,
              "velocity": 78,
              "position": 12.5,
              "duration": 0.25
            },
            {
              "pitch": 55,
              "velocity": 85,
              "position": 13,
              "duration": 0.25
            },
            {
              "pitch": 82,
              "velocity": 85,
              "position": 13,
              "duration": 0.25
            },
            {
              "pitch": 75,
              "velocity": 85,
              "position": 13,
              "duration": 0.25
            },
            {
              "pitch": 71,
              "velocity": 85,
              "position": 13,
              "duration": 0.25
            },
            {
              "pitch": 65,
              "velocity": 85,
              "position": 13,
              "duration": 0.25
            },
            {
              "pitch": 55,
              "velocity": 88,
              "position": 13.5,
              "duration": 0.25
            },
            {
              "pitch": 82,
              "velocity": 90,
              "position": 13.5,
              "duration": 0.25
            },
            {
              "pitch": 75,
              "velocity": 88,
              "position": 13.5,
              "duration": 0.25
            },
            {
              "pitch": 71,
              "velocity": 88,
              "position": 13.5,
              "duration": 0.25
            },
            {
              "pitch": 65,
              "velocity": 88,
              "position": 13.5,
              "duration": 0.25
            }
          ]
        }
      }
    },
    "Ending_C": {
      "type": "Ending_C",
      "sizeInBeats": 12,
      "channels": {
        "1": {
          "ctab": {
            "srcChannel": 1,
            "name": "Bass",
            "accType": "BASS",
            "editable": false,
            "mutedNotes": [],
            "mutedChords": [
              "1+2+5",
              "sus4",
              "1+5",
              "1+8",
              "7aug",
              "Maj7aug",
              "7(#9)",
              "7(b13)",
              "7(b9)",
              "7(13)",
              "7#11",
              "7(9)",
              "7b5",
              "7sus4",
              "7th",
              "aug",
              "Maj6(9)",
              "Maj7(9)",
              "Maj(9)",
              "Maj7#11",
              "Maj7",
              "Maj6",
              "Maj"
            ],
            "autoStart": false,
            "sourceChordNote": 0,
            "sourceChordType": "min",
            "ctb2Low": null,
            "ctb2Main": {
              "ntr": "ROOT_TRANSPOSITION",
              "ntt": "BYPASS",
              "bassOn": false,
              "chordRootUpperLimit": 8,
              "noteLowLimit": 28,
              "noteHighLimit": 127,
              "rtr": "PITCH_SHIFT"
            },
            "ctb2High": null
          },
          "notes": [
            {
              "pitch": 24,
              "velocity": 70,
              "position": 0,
              "duration": 0.4895833333333333
            },
            {
              "pitch": 48,
              "velocity": 70,
              "position": 0.5,
              "duration": 0.15625
            },
            {
              "pitch": 34,
              "velocity": 70,
              "position": 1.5,
              "duration": 0.3229166666666667
            },
            {
              "pitch": 35,
              "velocity": 70,
              "position": 1.8333333333333333,
              "duration": 0.15625
            },
            {
              "pitch": 36,
              "velocity": 70,
              "position": 2,
              "duration": 0.3229166666666667
            },
            {
              "pitch": 36,
              "velocity": 108,
              "position": 2.3333333333333335,
              "duration": 0.15625
            },
            {
              "pitch": 48,
              "velocity": 70,
              "position": 2.5,
              "duration": 0.15625
            },
            {
              "pitch": 35,
              "velocity": 70,
              "position": 2.8333333333333335,
              "duration": 0.4895833333333333
            },
            {
              "pitch": 47,
              "velocity": 70,
              "position": 3.3333333333333335,
              "duration": 0.15625
            },
            {
              "pitch": 34,
              "velocity": 70,
              "position": 3.5,
              "duration": 0.8229166666666666
            },
            {
              "pitch": 46,
              "velocity": 70,
              "position": 4.5,
              "duration": 0.15625
            },
            {
              "pitch": 32,
              "velocity": 70,
              "position": 5.5,
              "duration": 0.3229166666666667
            },
            {
              "pitch": 33,
              "velocity": 70,
              "position": 5.833333333333333,
              "duration": 0.15625
            },
            {
              "pitch": 34,
              "velocity": 70,
              "position": 6,
              "duration": 0.3229166666666667
            },
            {
              "pitch": 34,
              "velocity": 110,
              "position": 6.333333333333333,
              "duration": 0.15625
            },
            {
              "pitch": 46,
              "velocity": 70,
              "position": 6.5,
              "duration": 0.15625
            },
            {
              "pitch": 33,
              "velocity": 70,
              "position": 6.833333333333333,
              "duration": 0.4895833333333333
            },
            {
              "pitch": 45,
              "velocity": 70,
              "position": 7.333333333333333,
              "duration": 0.15625
            },
            {
              "pitch": 32,
              "velocity": 70,
              "position": 7.5,
              "duration": 0.65625
            },
            {
              "pitch": 32,
              "velocity": 70,
              "position": 8.5,
              "duration": 0.4895833333333333
            },
            {
              "pitch": 32,
              "velocity": 70,
              "position": 9,
              "duration": 0.3333333333333333
            },
            {
              "pitch": 27,
              "velocity": 70,
              "position": 9.5,
              "duration": 0.5
            },
            {
              "pitch": 26,
              "velocity": 70,
              "position": 10,
              "duration": 0.65625
            },
            {
              "pitch": 25,
              "velocity": 70,
              "position": 10.833333333333334,
              "duration": 0.4895833333333333
            },
            {
              "pitch": 24,
              "velocity": 70,
              "position": 11.5,
              "duration": 0.3229166666666667
            }
          ]
        },
        "2": {
          "ctab": {
            "srcChannel": 2,
            "name": "Clavi",
            "accType": "CHORD1",
            "editable": false,
            "mutedNotes": [],
            "mutedChords": [
              "1+2+5",
              "sus4",
              "1+5",
              "1+8",
              "7aug",
              "Maj7aug",
              "7(#9)",
              "7(b13)",
              "7(b9)",
              "7(13)",
              "7#11",
              "7(9)",
              "7b5",
              "7sus4",
              "7th",
              "aug",
              "Maj6(9)",
              "Maj7(9)",
              "Maj(9)",
              "Maj7#11",
              "Maj7",
              "Maj6",
              "Maj"
            ],
            "autoStart": false,
            "sourceChordNote": 0,
            "sourceChordType": "min",
            "ctb2Low": null,
            "ctb2Main": {
              "ntr": "ROOT_TRANSPOSITION",
              "ntt": "BYPASS",
              "bassOn": false,
              "chordRootUpperLimit": 10,
              "noteLowLimit": 0,
              "noteHighLimit": 127,
              "rtr": "PITCH_SHIFT"
            },
            "ctb2High": null
          },
          "notes": [
            {
              "pitch": 36,
              "velocity": 66,
              "position": 0.010416666666666666,
              "duration": 0.3125
            },
            {
              "pitch": 48,
              "velocity": 109,
              "position": 0.3333333333333333,
              "duration": 0.14583333333333334
            },
            {
              "pitch": 58,
              "velocity": 111,
              "position": 0.5,
              "duration": 0.14583333333333334
            },
            {
              "pitch": 60,
              "velocity": 111,
              "position": 1,
              "duration": 0.14583333333333334
            },
            {
              "pitch": 48,
              "velocity": 37,
              "position": 1.3333333333333333,
              "duration": 0.14583333333333334
            },
            {
              "pitch": 58,
              "velocity": 90,
              "position": 1.5,
              "duration": 0.14583333333333334
            },
            {
              "pitch": 48,
              "velocity": 53,
              "position": 1.8333333333333333,
              "duration": 0.14583333333333334
            },
            {
              "pitch": 63,
              "velocity": 95,
              "position": 2,
              "duration": 0.3125
            },
            {
              "pitch": 48,
              "velocity": 80,
              "position": 2.5,
              "duration": 0.14583333333333334
            },
            {
              "pitch": 58,
              "velocity": 118,
              "position": 2.8333333333333335,
              "duration": 0.14583333333333334
            },
            {
              "pitch": 46,
              "velocity": 85,
              "position": 3.3333333333333335,
              "duration": 0.14583333333333334
            },
            {
              "pitch": 34,
              "velocity": 90,
              "position": 3.5,
              "duration": 0.14583333333333334
            },
            {
              "pitch": 55,
              "velocity": 121,
              "position": 3.5,
              "duration": 0.14583333333333334
            },
            {
              "pitch": 60,
              "velocity": 118,
              "position": 3.5,
              "duration": 0.3125
            },
            {
              "pitch": 46,
              "velocity": 77,
              "position": 4.333333333333333,
              "duration": 0.041666666666666664
            },
            {
              "pitch": 58,
              "velocity": 106,
              "position": 4.5,
              "duration": 0.14583333333333334
            },
            {
              "pitch": 46,
              "velocity": 77,
              "position": 4.833333333333333,
              "duration": 0.041666666666666664
            },
            {
              "pitch": 60,
              "velocity": 118,
              "position": 5,
              "duration": 0.14583333333333334
            },
            {
              "pitch": 46,
              "velocity": 80,
              "position": 5.333333333333333,
              "duration": 0.041666666666666664
            },
            {
              "pitch": 58,
              "velocity": 118,
              "position": 5.5,
              "duration": 0.14583333333333334
            },
            {
              "pitch": 46,
              "velocity": 77,
              "position": 5.833333333333333,
              "duration": 0.041666666666666664
            },
            {
              "pitch": 63,
              "velocity": 104,
              "position": 6,
              "duration": 0.3125
            },
            {
              "pitch": 46,
              "velocity": 77,
              "position": 6.5,
              "duration": 0.041666666666666664
            },
            {
              "pitch": 58,
              "velocity": 83,
              "position": 6.833333333333333,
              "duration": 0.3125
            },
            {
              "pitch": 46,
              "velocity": 82,
              "position": 7.333333333333333,
              "duration": 0.041666666666666664
            },
            {
              "pitch": 32,
              "velocity": 109,
              "position": 7.5,
              "duration": 0.3125
            },
            {
              "pitch": 60,
              "velocity": 121,
              "position": 7.5,
              "duration": 0.3125
            },
            {
              "pitch": 55,
              "velocity": 127,
              "position": 7.5,
              "duration": 0.3125
            },
            {
              "pitch": 44,
              "velocity": 104,
              "position": 7.5,
              "duration": 0.3125
            },
            {
              "pitch": 45,
              "velocity": 73,
              "position": 8.333333333333334,
              "duration": 0.041666666666666664
            },
            {
              "pitch": 58,
              "velocity": 78,
              "position": 8.5,
              "duration": 0.14583333333333334
            },
            {
              "pitch": 45,
              "velocity": 75,
              "position": 8.833333333333334,
              "duration": 0.041666666666666664
            },
            {
              "pitch": 60,
              "velocity": 127,
              "position": 9,
              "duration": 0.14583333333333334
            },
            {
              "pitch": 45,
              "velocity": 99,
              "position": 9.333333333333334,
              "duration": 0.041666666666666664
            },
            {
              "pitch": 58,
              "velocity": 106,
              "position": 9.5,
              "duration": 0.14583333333333334
            },
            {
              "pitch": 26,
              "velocity": 114,
              "position": 10,
              "duration": 0.3125
            },
            {
              "pitch": 38,
              "velocity": 114,
              "position": 10,
              "duration": 0.3125
            },
            {
              "pitch": 55,
              "velocity": 111,
              "position": 10,
              "duration": 0.3125
            },
            {
              "pitch": 60,
              "velocity": 116,
              "position": 10,
              "duration": 0.4791666666666667
            },
            {
              "pitch": 63,
              "velocity": 118,
              "position": 10,
              "duration": 0.4791666666666667
            },
            {
              "pitch": 25,
              "velocity": 111,
              "position": 10.833333333333334,
              "duration": 0.4791666666666667
            },
            {
              "pitch": 58,
              "velocity": 114,
              "position": 10.833333333333334,
              "duration": 0.4791666666666667
            },
            {
              "pitch": 53,
              "velocity": 118,
              "position": 10.833333333333334,
              "duration": 0.4791666666666667
            },
            {
              "pitch": 37,
              "velocity": 104,
              "position": 10.833333333333334,
              "duration": 0.4791666666666667
            },
            {
              "pitch": 50,
              "velocity": 82,
              "position": 11.5,
              "duration": 0.14583333333333334
            },
            {
              "pitch": 51,
              "velocity": 97,
              "position": 11.5,
              "duration": 0.14583333333333334
            },
            {
              "pitch": 55,
              "velocity": 90,
              "position": 11.5,
              "duration": 0.3125
            },
            {
              "pitch": 36,
              "velocity": 121,
              "position": 11.5,
              "duration": 0.3125
            },
            {
              "pitch": 24,
              "velocity": 127,
              "position": 11.5,
              "duration": 0.3125
            },
            {
              "pitch": 60,
              "velocity": 77,
              "position": 11.5,
              "duration": 0.4791666666666667
            }
          ]
        },
        "3": {
          "ctab": {
            "srcChannel": 3,
            "name": "SolidGtr",
            "accType": "CHORD2",
            "editable": false,
            "mutedNotes": [],
            "mutedChords": [
              "1+2+5",
              "sus4",
              "1+5",
              "1+8",
              "7aug",
              "Maj7aug",
              "7(#9)",
              "7(b13)",
              "7(b9)",
              "7(13)",
              "7#11",
              "7(9)",
              "7b5",
              "7sus4",
              "7th",
              "aug",
              "Maj6(9)",
              "Maj7(9)",
              "Maj(9)",
              "Maj7#11",
              "Maj7",
              "Maj6",
              "Maj"
            ],
            "autoStart": false,
            "sourceChordNote": 0,
            "sourceChordType": "min",
            "ctb2Low": null,
            "ctb2Main": {
              "ntr": "ROOT_TRANSPOSITION",
              "ntt": "BYPASS",
              "bassOn": false,
              "chordRootUpperLimit": 8,
              "noteLowLimit": 58,
              "noteHighLimit": 69,
              "rtr": "PITCH_SHIFT"
            },
            "ctb2High": null
          },
          "notes": [
            {
              "pitch": 106,
              "velocity": 110,
              "position": 0,
              "duration": 0.15625
            },
            {
              "pitch": 58,
              "velocity": 55,
              "position": 0,
              "duration": 0.3020833333333333
            },
            {
              "pitch": 63,
              "velocity": 55,
              "position": 0.010416666666666666,
              "duration": 0.30416666666666664
            },
            {
              "pitch": 67,
              "velocity": 55,
              "position": 0.020833333333333332,
              "duration": 0.3020833333333333
            },
            {
              "pitch": 63,
              "velocity": 55,
              "position": 0.34375,
              "duration": 0.1375
            },
            {
              "pitch": 58,
              "velocity": 55,
              "position": 0.3541666666666667,
              "duration": 0.13541666666666666
            },
            {
              "pitch": 67,
              "velocity": 55,
              "position": 0.3333333333333333,
              "duration": 0.15625
            },
            {
              "pitch": 107,
              "velocity": 110,
              "position": 0.3333333333333333,
              "duration": 0.15625
            },
            {
              "pitch": 58,
              "velocity": 82,
              "position": 0.5,
              "duration": 0.14583333333333334
            },
            {
              "pitch": 67,
              "velocity": 82,
              "position": 0.5208333333333334,
              "duration": 0.125
            },
            {
              "pitch": 63,
              "velocity": 82,
              "position": 0.5104166666666666,
              "duration": 0.13541666666666666
            },
            {
              "pitch": 108,
              "velocity": 50,
              "position": 0.5,
              "duration": 0.15625
            },
            {
              "pitch": 63,
              "velocity": 55,
              "position": 0.84375,
              "duration": 0.1375
            },
            {
              "pitch": 58,
              "velocity": 55,
              "position": 0.8541666666666666,
              "duration": 0.13541666666666666
            },
            {
              "pitch": 67,
              "velocity": 55,
              "position": 0.8333333333333334,
              "duration": 0.15625
            },
            {
              "pitch": 100,
              "velocity": 100,
              "position": 0.8333333333333334,
              "duration": 0.15625
            },
            {
              "pitch": 63,
              "velocity": 72,
              "position": 1.0104166666666667,
              "duration": 0.03333333333333333
            },
            {
              "pitch": 58,
              "velocity": 72,
              "position": 1.0208333333333333,
              "duration": 0.03125
            },
            {
              "pitch": 67,
              "velocity": 72,
              "position": 1.0208333333333333,
              "duration": 0.052083333333333336
            },
            {
              "pitch": 111,
              "velocity": 98,
              "position": 1,
              "duration": 0.15625
            },
            {
              "pitch": 63,
              "velocity": 55,
              "position": 1.34375,
              "duration": 0.13541666666666666
            },
            {
              "pitch": 58,
              "velocity": 55,
              "position": 1.3541666666666667,
              "duration": 0.12708333333333333
            },
            {
              "pitch": 67,
              "velocity": 55,
              "position": 1.3333333333333333,
              "duration": 0.14791666666666667
            },
            {
              "pitch": 108,
              "velocity": 106,
              "position": 1.3333333333333333,
              "duration": 0.15625
            },
            {
              "pitch": 63,
              "velocity": 82,
              "position": 1.5,
              "duration": 0.03333333333333333
            },
            {
              "pitch": 58,
              "velocity": 82,
              "position": 1.5104166666666667,
              "duration": 0.03125
            },
            {
              "pitch": 67,
              "velocity": 82,
              "position": 1.5104166666666667,
              "duration": 0.052083333333333336
            },
            {
              "pitch": 112,
              "velocity": 109,
              "position": 1.5,
              "duration": 0.15625
            },
            {
              "pitch": 63,
              "velocity": 40,
              "position": 1.84375,
              "duration": 0.1375
            },
            {
              "pitch": 58,
              "velocity": 40,
              "position": 1.8541666666666667,
              "duration": 0.13541666666666666
            },
            {
              "pitch": 67,
              "velocity": 40,
              "position": 1.8333333333333333,
              "duration": 0.15625
            },
            {
              "pitch": 105,
              "velocity": 68,
              "position": 1.8333333333333333,
              "duration": 0.15625
            },
            {
              "pitch": 106,
              "velocity": 107,
              "position": 2,
              "duration": 0.15625
            },
            {
              "pitch": 63,
              "velocity": 55,
              "position": 2.0104166666666665,
              "duration": 0.14791666666666667
            },
            {
              "pitch": 67,
              "velocity": 55,
              "position": 2.0208333333333335,
              "duration": 0.14583333333333334
            },
            {
              "pitch": 58,
              "velocity": 55,
              "position": 2,
              "duration": 0.16666666666666666
            },
            {
              "pitch": 63,
              "velocity": 82,
              "position": 2.5,
              "duration": 0.03333333333333333
            },
            {
              "pitch": 58,
              "velocity": 82,
              "position": 2.5104166666666665,
              "duration": 0.03125
            },
            {
              "pitch": 67,
              "velocity": 82,
              "position": 2.5104166666666665,
              "duration": 0.052083333333333336
            },
            {
              "pitch": 115,
              "velocity": 92,
              "position": 2.5,
              "duration": 0.15625
            },
            {
              "pitch": 63,
              "velocity": 55,
              "position": 2.84375,
              "duration": 0.1375
            },
            {
              "pitch": 58,
              "velocity": 55,
              "position": 2.8541666666666665,
              "duration": 0.13541666666666666
            },
            {
              "pitch": 67,
              "velocity": 55,
              "position": 2.8333333333333335,
              "duration": 0.15625
            },
            {
              "pitch": 107,
              "velocity": 108,
              "position": 2.8333333333333335,
              "duration": 0.15625
            },
            {
              "pitch": 63,
              "velocity": 82,
              "position": 3,
              "duration": 0.03333333333333333
            },
            {
              "pitch": 58,
              "velocity": 82,
              "position": 3.0104166666666665,
              "duration": 0.03125
            },
            {
              "pitch": 67,
              "velocity": 82,
              "position": 3.0104166666666665,
              "duration": 0.052083333333333336
            },
            {
              "pitch": 111,
              "velocity": 98,
              "position": 3,
              "duration": 0.15625
            },
            {
              "pitch": 63,
              "velocity": 68,
              "position": 3.34375,
              "duration": 0.1375
            },
            {
              "pitch": 58,
              "velocity": 68,
              "position": 3.3541666666666665,
              "duration": 0.13541666666666666
            },
            {
              "pitch": 67,
              "velocity": 68,
              "position": 3.3333333333333335,
              "duration": 0.15625
            },
            {
              "pitch": 99,
              "velocity": 52,
              "position": 3.3333333333333335,
              "duration": 0.15625
            },
            {
              "pitch": 122,
              "velocity": 99,
              "position": 3.3020833333333335,
              "duration": 0.21875
            },
            {
              "pitch": 100,
              "velocity": 110,
              "position": 3.5,
              "duration": 0.15625
            },
            {
              "pitch": 63,
              "velocity": 116,
              "position": 3.5104166666666665,
              "duration": 0.8041666666666667
            },
            {
              "pitch": 58,
              "velocity": 116,
              "position": 3.5,
              "duration": 0.8229166666666666
            },
            {
              "pitch": 67,
              "velocity": 118,
              "position": 3.5208333333333335,
              "duration": 0.8020833333333334
            },
            {
              "pitch": 63,
              "velocity": 68,
              "position": 4.34375,
              "duration": 0.1375
            },
            {
              "pitch": 58,
              "velocity": 68,
              "position": 4.354166666666667,
              "duration": 0.13541666666666666
            },
            {
              "pitch": 67,
              "velocity": 68,
              "position": 4.333333333333333,
              "duration": 0.15625
            },
            {
              "pitch": 111,
              "velocity": 88,
              "position": 4.333333333333333,
              "duration": 0.15625
            },
            {
              "pitch": 106,
              "velocity": 68,
              "position": 4.5,
              "duration": 0.15625
            },
            {
              "pitch": 67,
              "velocity": 40,
              "position": 4.520833333333333,
              "duration": 0.2916666666666667
            },
            {
              "pitch": 63,
              "velocity": 40,
              "position": 4.510416666666667,
              "duration": 0.3020833333333333
            },
            {
              "pitch": 58,
              "velocity": 40,
              "position": 4.5,
              "duration": 0.3125
            },
            {
              "pitch": 63,
              "velocity": 55,
              "position": 4.84375,
              "duration": 0.1375
            },
            {
              "pitch": 58,
              "velocity": 55,
              "position": 4.854166666666667,
              "duration": 0.13541666666666666
            },
            {
              "pitch": 67,
              "velocity": 55,
              "position": 4.833333333333333,
              "duration": 0.15625
            },
            {
              "pitch": 107,
              "velocity": 104,
              "position": 4.833333333333333,
              "duration": 0.15625
            },
            {
              "pitch": 63,
              "velocity": 82,
              "position": 5,
              "duration": 0.03333333333333333
            },
            {
              "pitch": 58,
              "velocity": 82,
              "position": 5.010416666666667,
              "duration": 0.03125
            },
            {
              "pitch": 67,
              "velocity": 82,
              "position": 5.010416666666667,
              "duration": 0.052083333333333336
            },
            {
              "pitch": 102,
              "velocity": 70,
              "position": 5,
              "duration": 0.15625
            },
            {
              "pitch": 109,
              "velocity": 106,
              "position": 5.333333333333333,
              "duration": 0.15625
            },
            {
              "pitch": 63,
              "velocity": 55,
              "position": 5.34375,
              "duration": 0.14791666666666667
            },
            {
              "pitch": 58,
              "velocity": 55,
              "position": 5.354166666666667,
              "duration": 0.14583333333333334
            },
            {
              "pitch": 67,
              "velocity": 55,
              "position": 5.333333333333333,
              "duration": 0.16666666666666666
            },
            {
              "pitch": 108,
              "velocity": 53,
              "position": 5.5,
              "duration": 0.15625
            },
            {
              "pitch": 63,
              "velocity": 40,
              "position": 5.84375,
              "duration": 0.1375
            },
            {
              "pitch": 58,
              "velocity": 40,
              "position": 5.854166666666667,
              "duration": 0.13541666666666666
            },
            {
              "pitch": 67,
              "velocity": 40,
              "position": 5.833333333333333,
              "duration": 0.15625
            },
            {
              "pitch": 99,
              "velocity": 49,
              "position": 5.833333333333333,
              "duration": 0.15625
            },
            {
              "pitch": 100,
              "velocity": 107,
              "position": 6,
              "duration": 0.15625
            },
            {
              "pitch": 63,
              "velocity": 55,
              "position": 6.010416666666667,
              "duration": 0.14791666666666667
            },
            {
              "pitch": 67,
              "velocity": 55,
              "position": 6.020833333333333,
              "duration": 0.14583333333333334
            },
            {
              "pitch": 58,
              "velocity": 55,
              "position": 6,
              "duration": 0.16666666666666666
            },
            {
              "pitch": 63,
              "velocity": 82,
              "position": 6.5,
              "duration": 0.03333333333333333
            },
            {
              "pitch": 58,
              "velocity": 82,
              "position": 6.510416666666667,
              "duration": 0.03125
            },
            {
              "pitch": 67,
              "velocity": 82,
              "position": 6.510416666666667,
              "duration": 0.052083333333333336
            },
            {
              "pitch": 116,
              "velocity": 92,
              "position": 6.5,
              "duration": 0.15625
            },
            {
              "pitch": 63,
              "velocity": 55,
              "position": 6.84375,
              "duration": 0.1375
            },
            {
              "pitch": 58,
              "velocity": 55,
              "position": 6.854166666666667,
              "duration": 0.13541666666666666
            },
            {
              "pitch": 67,
              "velocity": 55,
              "position": 6.833333333333333,
              "duration": 0.15625
            },
            {
              "pitch": 107,
              "velocity": 108,
              "position": 6.833333333333333,
              "duration": 0.15625
            },
            {
              "pitch": 63,
              "velocity": 82,
              "position": 7,
              "duration": 0.03333333333333333
            },
            {
              "pitch": 58,
              "velocity": 82,
              "position": 7.010416666666667,
              "duration": 0.03125
            },
            {
              "pitch": 67,
              "velocity": 82,
              "position": 7.010416666666667,
              "duration": 0.052083333333333336
            },
            {
              "pitch": 111,
              "velocity": 98,
              "position": 7,
              "duration": 0.15625
            },
            {
              "pitch": 63,
              "velocity": 68,
              "position": 7.34375,
              "duration": 0.1375
            },
            {
              "pitch": 58,
              "velocity": 68,
              "position": 7.354166666666667,
              "duration": 0.13541666666666666
            },
            {
              "pitch": 67,
              "velocity": 68,
              "position": 7.333333333333333,
              "duration": 0.15625
            },
            {
              "pitch": 99,
              "velocity": 52,
              "position": 7.333333333333333,
              "duration": 0.15625
            },
            {
              "pitch": 123,
              "velocity": 99,
              "position": 7.302083333333333,
              "duration": 0.21875
            },
            {
              "pitch": 100,
              "velocity": 110,
              "position": 7.5,
              "duration": 0.15625
            },
            {
              "pitch": 63,
              "velocity": 116,
              "position": 7.510416666666667,
              "duration": 0.8041666666666667
            },
            {
              "pitch": 60,
              "velocity": 116,
              "position": 7.5,
              "duration": 0.8229166666666666
            },
            {
              "pitch": 67,
              "velocity": 118,
              "position": 7.520833333333333,
              "duration": 0.8020833333333334
            },
            {
              "pitch": 63,
              "velocity": 68,
              "position": 8.34375,
              "duration": 0.1375
            },
            {
              "pitch": 60,
              "velocity": 68,
              "position": 8.354166666666666,
              "duration": 0.13541666666666666
            },
            {
              "pitch": 67,
              "velocity": 68,
              "position": 8.333333333333334,
              "duration": 0.15625
            },
            {
              "pitch": 111,
              "velocity": 88,
              "position": 8.333333333333334,
              "duration": 0.15625
            },
            {
              "pitch": 106,
              "velocity": 68,
              "position": 8.5,
              "duration": 0.15625
            },
            {
              "pitch": 67,
              "velocity": 40,
              "position": 8.520833333333334,
              "duration": 0.2916666666666667
            },
            {
              "pitch": 63,
              "velocity": 40,
              "position": 8.510416666666666,
              "duration": 0.3020833333333333
            },
            {
              "pitch": 60,
              "velocity": 40,
              "position": 8.5,
              "duration": 0.3125
            },
            {
              "pitch": 63,
              "velocity": 55,
              "position": 8.84375,
              "duration": 0.1375
            },
            {
              "pitch": 60,
              "velocity": 55,
              "position": 8.854166666666666,
              "duration": 0.13541666666666666
            },
            {
              "pitch": 67,
              "velocity": 55,
              "position": 8.833333333333334,
              "duration": 0.15625
            },
            {
              "pitch": 107,
              "velocity": 104,
              "position": 8.833333333333334,
              "duration": 0.15625
            },
            {
              "pitch": 63,
              "velocity": 82,
              "position": 9,
              "duration": 0.03333333333333333
            },
            {
              "pitch": 60,
              "velocity": 82,
              "position": 9.010416666666666,
              "duration": 0.03125
            },
            {
              "pitch": 67,
              "velocity": 82,
              "position": 9.010416666666666,
              "duration": 0.052083333333333336
            },
            {
              "pitch": 102,
              "velocity": 70,
              "position": 9,
              "duration": 0.15625
            },
            {
              "pitch": 109,
              "velocity": 106,
              "position": 9.333333333333334,
              "duration": 0.15625
            },
            {
              "pitch": 63,
              "velocity": 55,
              "position": 9.34375,
              "duration": 0.14791666666666667
            },
            {
              "pitch": 60,
              "velocity": 55,
              "position": 9.354166666666666,
              "duration": 0.14583333333333334
            },
            {
              "pitch": 67,
              "velocity": 55,
              "position": 9.333333333333334,
              "duration": 0.16666666666666666
            },
            {
              "pitch": 108,
              "velocity": 53,
              "position": 9.5,
              "duration": 0.15625
            },
            {
              "pitch": 63,
              "velocity": 40,
              "position": 9.84375,
              "duration": 0.1375
            },
            {
              "pitch": 60,
              "velocity": 40,
              "position": 9.854166666666666,
              "duration": 0.13541666666666666
            },
            {
              "pitch": 67,
              "velocity": 40,
              "position": 9.833333333333334,
              "duration": 0.15625
            },
            {
              "pitch": 99,
              "velocity": 49,
              "position": 9.833333333333334,
              "duration": 0.15625
            },
            {
              "pitch": 121,
              "velocity": 99,
              "position": 9.802083333333334,
              "duration": 0.21875
            },
            {
              "pitch": 100,
              "velocity": 107,
              "position": 10,
              "duration": 0.15625
            },
            {
              "pitch": 66,
              "velocity": 55,
              "position": 10.010416666666666,
              "duration": 0.14791666666666667
            },
            {
              "pitch": 60,
              "velocity": 55,
              "position": 10,
              "duration": 0.16666666666666666
            },
            {
              "pitch": 69,
              "velocity": 55,
              "position": 10.020833333333334,
              "duration": 0.14583333333333334
            },
            {
              "pitch": 66,
              "velocity": 82,
              "position": 10.5,
              "duration": 0.03333333333333333
            },
            {
              "pitch": 60,
              "velocity": 82,
              "position": 10.510416666666666,
              "duration": 0.03125
            },
            {
              "pitch": 69,
              "velocity": 82,
              "position": 10.510416666666666,
              "duration": 0.052083333333333336
            },
            {
              "pitch": 117,
              "velocity": 92,
              "position": 10.5,
              "duration": 0.15625
            },
            {
              "pitch": 120,
              "velocity": 78,
              "position": 10.604166666666666,
              "duration": 0.21875
            },
            {
              "pitch": 65,
              "velocity": 55,
              "position": 10.84375,
              "duration": 0.1375
            },
            {
              "pitch": 60,
              "velocity": 55,
              "position": 10.854166666666666,
              "duration": 0.13541666666666666
            },
            {
              "pitch": 68,
              "velocity": 55,
              "position": 10.833333333333334,
              "duration": 0.15625
            },
            {
              "pitch": 107,
              "velocity": 108,
              "position": 10.833333333333334,
              "duration": 0.15625
            },
            {
              "pitch": 65,
              "velocity": 82,
              "position": 11,
              "duration": 0.03333333333333333
            },
            {
              "pitch": 60,
              "velocity": 82,
              "position": 11.010416666666666,
              "duration": 0.03125
            },
            {
              "pitch": 68,
              "velocity": 82,
              "position": 11.010416666666666,
              "duration": 0.052083333333333336
            },
            {
              "pitch": 111,
              "velocity": 98,
              "position": 11,
              "duration": 0.15625
            },
            {
              "pitch": 122,
              "velocity": 78,
              "position": 11.104166666666666,
              "duration": 0.1875
            },
            {
              "pitch": 65,
              "velocity": 68,
              "position": 11.34375,
              "duration": 0.1375
            },
            {
              "pitch": 60,
              "velocity": 68,
              "position": 11.354166666666666,
              "duration": 0.13541666666666666
            },
            {
              "pitch": 68,
              "velocity": 68,
              "position": 11.333333333333334,
              "duration": 0.15625
            },
            {
              "pitch": 99,
              "velocity": 52,
              "position": 11.333333333333334,
              "duration": 0.15625
            },
            {
              "pitch": 100,
              "velocity": 110,
              "position": 11.5,
              "duration": 0.15625
            },
            {
              "pitch": 63,
              "velocity": 55,
              "position": 11.510416666666666,
              "duration": 0.30416666666666664
            },
            {
              "pitch": 67,
              "velocity": 57,
              "position": 11.520833333333334,
              "duration": 0.3020833333333333
            },
            {
              "pitch": 60,
              "velocity": 55,
              "position": 11.5,
              "duration": 0.3229166666666667
            }
          ]
        },
        "4": {
          "ctab": {
            "srcChannel": 4,
            "name": "E.Piano",
            "accType": "PAD",
            "editable": false,
            "mutedNotes": [],
            "mutedChords": [
              "1+2+5",
              "sus4",
              "1+5",
              "1+8",
              "7aug",
              "Maj7aug",
              "7(#9)",
              "7(b13)",
              "7(b9)",
              "7(13)",
              "7#11",
              "7(9)",
              "7b5",
              "7sus4",
              "7th",
              "aug",
              "Maj6(9)",
              "Maj7(9)",
              "Maj(9)",
              "Maj7#11",
              "Maj7",
              "Maj6",
              "Maj"
            ],
            "autoStart": false,
            "sourceChordNote": 0,
            "sourceChordType": "min",
            "ctb2Low": null,
            "ctb2Main": {
              "ntr": "ROOT_TRANSPOSITION",
              "ntt": "BYPASS",
              "bassOn": false,
              "chordRootUpperLimit": 8,
              "noteLowLimit": 54,
              "noteHighLimit": 65,
              "rtr": "PITCH_SHIFT"
            },
            "ctb2High": null
          },
          "notes": [
            {
              "pitch": 55,
              "velocity": 101,
              "position": 0,
              "duration": 0.3145833333333333
            },
            {
              "pitch": 63,
              "velocity": 101,
              "position": 0,
              "duration": 0.3145833333333333
            },
            {
              "pitch": 60,
              "velocity": 101,
              "position": 0,
              "duration": 0.3145833333333333
            },
            {
              "pitch": 58,
              "velocity": 101,
              "position": 0,
              "duration": 0.3145833333333333
            },
            {
              "pitch": 55,
              "velocity": 74,
              "position": 2,
              "duration": 0.14791666666666667
            },
            {
              "pitch": 63,
              "velocity": 74,
              "position": 2,
              "duration": 0.14791666666666667
            },
            {
              "pitch": 60,
              "velocity": 74,
              "position": 2,
              "duration": 0.14791666666666667
            },
            {
              "pitch": 58,
              "velocity": 74,
              "position": 2,
              "duration": 0.14791666666666667
            },
            {
              "pitch": 55,
              "velocity": 89,
              "position": 2.8333333333333335,
              "duration": 0.14791666666666667
            },
            {
              "pitch": 63,
              "velocity": 89,
              "position": 2.8333333333333335,
              "duration": 0.14791666666666667
            },
            {
              "pitch": 60,
              "velocity": 89,
              "position": 2.8333333333333335,
              "duration": 0.14791666666666667
            },
            {
              "pitch": 58,
              "velocity": 89,
              "position": 2.8333333333333335,
              "duration": 0.14791666666666667
            },
            {
              "pitch": 55,
              "velocity": 106,
              "position": 3.5,
              "duration": 0.48125
            },
            {
              "pitch": 63,
              "velocity": 106,
              "position": 3.5,
              "duration": 0.48125
            },
            {
              "pitch": 60,
              "velocity": 106,
              "position": 3.5,
              "duration": 0.48125
            },
            {
              "pitch": 58,
              "velocity": 106,
              "position": 3.5,
              "duration": 0.48125
            },
            {
              "pitch": 55,
              "velocity": 66,
              "position": 6,
              "duration": 0.14791666666666667
            },
            {
              "pitch": 63,
              "velocity": 66,
              "position": 6,
              "duration": 0.14791666666666667
            },
            {
              "pitch": 60,
              "velocity": 66,
              "position": 6,
              "duration": 0.14791666666666667
            },
            {
              "pitch": 58,
              "velocity": 66,
              "position": 6,
              "duration": 0.14791666666666667
            },
            {
              "pitch": 55,
              "velocity": 89,
              "position": 6.833333333333333,
              "duration": 0.14791666666666667
            },
            {
              "pitch": 63,
              "velocity": 89,
              "position": 6.833333333333333,
              "duration": 0.14791666666666667
            },
            {
              "pitch": 60,
              "velocity": 89,
              "position": 6.833333333333333,
              "duration": 0.14791666666666667
            },
            {
              "pitch": 58,
              "velocity": 89,
              "position": 6.833333333333333,
              "duration": 0.14791666666666667
            },
            {
              "pitch": 55,
              "velocity": 105,
              "position": 7.5,
              "duration": 0.4791666666666667
            },
            {
              "pitch": 63,
              "velocity": 105,
              "position": 7.5,
              "duration": 0.4791666666666667
            },
            {
              "pitch": 60,
              "velocity": 105,
              "position": 7.5,
              "duration": 0.4791666666666667
            },
            {
              "pitch": 56,
              "velocity": 105,
              "position": 7.5,
              "duration": 0.4791666666666667
            },
            {
              "pitch": 55,
              "velocity": 71,
              "position": 9.5,
              "duration": 0.14791666666666667
            },
            {
              "pitch": 63,
              "velocity": 71,
              "position": 9.5,
              "duration": 0.14791666666666667
            },
            {
              "pitch": 60,
              "velocity": 71,
              "position": 9.5,
              "duration": 0.14791666666666667
            },
            {
              "pitch": 56,
              "velocity": 71,
              "position": 9.5,
              "duration": 0.14791666666666667
            },
            {
              "pitch": 54,
              "velocity": 73,
              "position": 10,
              "duration": 0.48125
            },
            {
              "pitch": 62,
              "velocity": 73,
              "position": 10,
              "duration": 0.48125
            },
            {
              "pitch": 60,
              "velocity": 73,
              "position": 10,
              "duration": 0.48125
            },
            {
              "pitch": 57,
              "velocity": 73,
              "position": 10,
              "duration": 0.48125
            },
            {
              "pitch": 56,
              "velocity": 84,
              "position": 10.833333333333334,
              "duration": 0.3145833333333333
            },
            {
              "pitch": 61,
              "velocity": 84,
              "position": 10.833333333333334,
              "duration": 0.48125
            },
            {
              "pitch": 59,
              "velocity": 84,
              "position": 10.833333333333334,
              "duration": 0.48125
            },
            {
              "pitch": 53,
              "velocity": 84,
              "position": 10.833333333333334,
              "duration": 0.48125
            },
            {
              "pitch": 51,
              "velocity": 93,
              "position": 11.5,
              "duration": 0.3145833333333333
            },
            {
              "pitch": 60,
              "velocity": 93,
              "position": 11.5,
              "duration": 0.3145833333333333
            },
            {
              "pitch": 58,
              "velocity": 93,
              "position": 11.5,
              "duration": 0.3145833333333333
            },
            {
              "pitch": 55,
              "velocity": 93,
              "position": 11.5,
              "duration": 0.3145833333333333
            }
          ]
        },
        "5": {
          "ctab": {
            "srcChannel": 5,
            "name": "TenorSax",
            "accType": "PHRASE1",
            "editable": false,
            "mutedNotes": [],
            "mutedChords": [
              "1+2+5",
              "sus4",
              "1+5",
              "1+8",
              "7aug",
              "Maj7aug",
              "7(#9)",
              "7(b13)",
              "7(b9)",
              "7(13)",
              "7#11",
              "7(9)",
              "7b5",
              "7sus4",
              "7th",
              "aug",
              "Maj6(9)",
              "Maj7(9)",
              "Maj(9)",
              "Maj7#11",
              "Maj7",
              "Maj6",
              "Maj"
            ],
            "autoStart": false,
            "sourceChordNote": 0,
            "sourceChordType": "min",
            "ctb2Low": null,
            "ctb2Main": {
              "ntr": "ROOT_TRANSPOSITION",
              "ntt": "BYPASS",
              "bassOn": false,
              "chordRootUpperLimit": 7,
              "noteLowLimit": 0,
              "noteHighLimit": 127,
              "rtr": "PITCH_SHIFT"
            },
            "ctb2High": null
          },
          "notes": [
            {
              "pitch": 58,
              "velocity": 90,
              "position": 0.5,
              "duration": 0.15625
            },
            {
              "pitch": 60,
              "velocity": 90,
              "position": 1,
              "duration": 0.4895833333333333
            },
            {
              "pitch": 58,
              "velocity": 90,
              "position": 1.5,
              "duration": 0.15625
            },
            {
              "pitch": 58,
              "velocity": 90,
              "position": 2.8333333333333335,
              "duration": 0.65625
            },
            {
              "pitch": 60,
              "velocity": 90,
              "position": 3.5,
              "duration": 0.15625
            },
            {
              "pitch": 58,
              "velocity": 90,
              "position": 4.49375,
              "duration": 0.15625
            },
            {
              "pitch": 60,
              "velocity": 90,
              "position": 4.99375,
              "duration": 0.4895833333333333
            },
            {
              "pitch": 58,
              "velocity": 90,
              "position": 5.49375,
              "duration": 0.15625
            },
            {
              "pitch": 58,
              "velocity": 90,
              "position": 6.827083333333333,
              "duration": 0.65625
            },
            {
              "pitch": 60,
              "velocity": 90,
              "position": 7.49375,
              "duration": 0.15625
            },
            {
              "pitch": 70,
              "velocity": 90,
              "position": 8.5,
              "duration": 0.15625
            },
            {
              "pitch": 72,
              "velocity": 90,
              "position": 9,
              "duration": 0.4895833333333333
            },
            {
              "pitch": 70,
              "velocity": 90,
              "position": 9.5,
              "duration": 0.15625
            },
            {
              "pitch": 70,
              "velocity": 90,
              "position": 10.833333333333334,
              "duration": 0.65625
            },
            {
              "pitch": 72,
              "velocity": 90,
              "position": 11.5,
              "duration": 0.15625
            }
          ]
        },
        "6": {
          "ctab": {
            "srcChannel": 6,
            "name": "Brass",
            "accType": "PHRASE2",
            "editable": false,
            "mutedNotes": [],
            "mutedChords": [
              "1+2+5",
              "sus4",
              "1+5",
              "1+8",
              "7aug",
              "Maj7aug",
              "7(#9)",
              "7(b13)",
              "7(b9)",
              "7(13)",
              "7#11",
              "7(9)",
              "7b5",
              "7sus4",
              "7th",
              "aug",
              "Maj6(9)",
              "Maj7(9)",
              "Maj(9)",
              "Maj7#11",
              "Maj7",
              "Maj6",
              "Maj"
            ],
            "autoStart": false,
            "sourceChordNote": 0,
            "sourceChordType": "min",
            "ctb2Low": null,
            "ctb2Main": {
              "ntr": "ROOT_TRANSPOSITION",
              "ntt": "BYPASS",
              "bassOn": false,
              "chordRootUpperLimit": 3,
              "noteLowLimit": 0,
              "noteHighLimit": 127,
              "rtr": "PITCH_SHIFT"
            },
            "ctb2High": null
          },
          "notes": [
            {
              "pitch": 58,
              "velocity": 90,
              "position": 4.5,
              "duration": 0.15625
            },
            {
              "pitch": 70,
              "velocity": 90,
              "position": 4.5,
              "duration": 0.15625
            },
            {
              "pitch": 60,
              "velocity": 90,
              "position": 5,
              "duration": 0.4895833333333333
            },
            {
              "pitch": 72,
              "velocity": 90,
              "position": 5,
              "duration": 0.4895833333333333
            },
            {
              "pitch": 58,
              "velocity": 90,
              "position": 5.5,
              "duration": 0.15625
            },
            {
              "pitch": 70,
              "velocity": 90,
              "position": 5.5,
              "duration": 0.15625
            },
            {
              "pitch": 70,
              "velocity": 90,
              "position": 8.5,
              "duration": 0.15625
            },
            {
              "pitch": 82,
              "velocity": 90,
              "position": 8.5,
              "duration": 0.15625
            },
            {
              "pitch": 70,
              "velocity": 90,
              "position": 9.5,
              "duration": 0.3229166666666667
            },
            {
              "pitch": 82,
              "velocity": 90,
              "position": 9.5,
              "duration": 0.3229166666666667
            },
            {
              "pitch": 59,
              "velocity": 85,
              "position": 10.833333333333334,
              "duration": 0.65625
            },
            {
              "pitch": 82,
              "velocity": 90,
              "position": 10.833333333333334,
              "duration": 0.65625
            },
            {
              "pitch": 70,
              "velocity": 90,
              "position": 10.833333333333334,
              "duration": 0.65625
            },
            {
              "pitch": 68,
              "velocity": 85,
              "position": 10.833333333333334,
              "duration": 0.65625
            },
            {
              "pitch": 65,
              "velocity": 85,
              "position": 10.833333333333334,
              "duration": 0.65625
            }
          ]
        },
        "8": {
          "ctab": {
            "srcChannel": 8,
            "name": "AddDrum",
            "accType": "SUBRHYTHM",
            "editable": false,
            "mutedNotes": [],
            "mutedChords": [],
            "autoStart": true,
            "sourceChordNote": 0,
            "sourceChordType": "Maj7",
            "ctb2Low": null,
            "ctb2Main": {
              "ntr": "ROOT_FIXED",
              "ntt": "BYPASS",
              "bassOn": false,
              "chordRootUpperLimit": 6,
              "noteLowLimit": 0,
              "noteHighLimit": 127,
              "rtr": "PITCH_SHIFT"
            },
            "ctb2High": null
          },
          "notes": [
            {
              "pitch": 54,
              "velocity": 70,
              "position": 0,
              "duration": 0.010416666666666666
            },
            {
              "pitch": 69,
              "velocity": 41,
              "position": 0,
              "duration": 0.010416666666666666
            },
            {
              "pitch": 64,
              "velocity": 80,
              "position": 0,
              "duration": 0.010416666666666666
            },
            {
              "pitch": 54,
              "velocity": 18,
              "position": 0.3333333333333333,
              "duration": 0.010416666666666666
            },
            {
              "pitch": 54,
              "velocity": 42,
              "position": 0.5,
              "duration": 0.010416666666666666
            },
            {
              "pitch": 69,
              "velocity": 64,
              "position": 0.5,
              "duration": 0.010416666666666666
            },
            {
              "pitch": 54,
              "velocity": 16,
              "position": 0.8333333333333334,
              "duration": 0.010416666666666666
            },
            {
              "pitch": 69,
              "velocity": 23,
              "position": 0.8333333333333334,
              "duration": 0.010416666666666666
            },
            {
              "pitch": 62,
              "velocity": 14,
              "position": 0.8333333333333334,
              "duration": 0.010416666666666666
            },
            {
              "pitch": 54,
              "velocity": 82,
              "position": 1,
              "duration": 0.010416666666666666
            },
            {
              "pitch": 69,
              "velocity": 41,
              "position": 1,
              "duration": 0.010416666666666666
            },
            {
              "pitch": 62,
              "velocity": 80,
              "position": 1,
              "duration": 0.010416666666666666
            },
            {
              "pitch": 54,
              "velocity": 18,
              "position": 1.3333333333333333,
              "duration": 0.010416666666666666
            },
            {
              "pitch": 54,
              "velocity": 42,
              "position": 1.5,
              "duration": 0.010416666666666666
            },
            {
              "pitch": 69,
              "velocity": 64,
              "position": 1.5,
              "duration": 0.010416666666666666
            },
            {
              "pitch": 63,
              "velocity": 80,
              "position": 1.5,
              "duration": 0.010416666666666666
            },
            {
              "pitch": 54,
              "velocity": 16,
              "position": 1.8333333333333333,
              "duration": 0.010416666666666666
            },
            {
              "pitch": 69,
              "velocity": 40,
              "position": 1.8333333333333333,
              "duration": 0.010416666666666666
            },
            {
              "pitch": 54,
              "velocity": 70,
              "position": 2,
              "duration": 0.010416666666666666
            },
            {
              "pitch": 69,
              "velocity": 73,
              "position": 2,
              "duration": 0.010416666666666666
            },
            {
              "pitch": 54,
              "velocity": 18,
              "position": 2.3333333333333335,
              "duration": 0.010416666666666666
            },
            {
              "pitch": 69,
              "velocity": 16,
              "position": 2.3333333333333335,
              "duration": 0.010416666666666666
            },
            {
              "pitch": 54,
              "velocity": 42,
              "position": 2.5,
              "duration": 0.010416666666666666
            },
            {
              "pitch": 69,
              "velocity": 49,
              "position": 2.5,
              "duration": 0.010416666666666666
            },
            {
              "pitch": 63,
              "velocity": 31,
              "position": 2.5,
              "duration": 0.010416666666666666
            },
            {
              "pitch": 54,
              "velocity": 16,
              "position": 2.8333333333333335,
              "duration": 0.010416666666666666
            },
            {
              "pitch": 69,
              "velocity": 18,
              "position": 2.8333333333333335,
              "duration": 0.010416666666666666
            },
            {
              "pitch": 62,
              "velocity": 44,
              "position": 2.8333333333333335,
              "duration": 0.010416666666666666
            },
            {
              "pitch": 54,
              "velocity": 82,
              "position": 3,
              "duration": 0.010416666666666666
            },
            {
              "pitch": 69,
              "velocity": 77,
              "position": 3,
              "duration": 0.010416666666666666
            },
            {
              "pitch": 62,
              "velocity": 80,
              "position": 3,
              "duration": 0.010416666666666666
            },
            {
              "pitch": 54,
              "velocity": 18,
              "position": 3.3333333333333335,
              "duration": 0.010416666666666666
            },
            {
              "pitch": 54,
              "velocity": 42,
              "position": 3.5,
              "duration": 0.010416666666666666
            },
            {
              "pitch": 69,
              "velocity": 64,
              "position": 3.5,
              "duration": 0.010416666666666666
            },
            {
              "pitch": 64,
              "velocity": 80,
              "position": 3.5,
              "duration": 0.010416666666666666
            },
            {
              "pitch": 54,
              "velocity": 16,
              "position": 3.8333333333333335,
              "duration": 0.010416666666666666
            },
            {
              "pitch": 69,
              "velocity": 33,
              "position": 3.8333333333333335,
              "duration": 0.010416666666666666
            },
            {
              "pitch": 54,
              "velocity": 70,
              "position": 4,
              "duration": 0.010416666666666666
            },
            {
              "pitch": 69,
              "velocity": 41,
              "position": 4,
              "duration": 0.010416666666666666
            },
            {
              "pitch": 64,
              "velocity": 80,
              "position": 4,
              "duration": 0.010416666666666666
            },
            {
              "pitch": 54,
              "velocity": 18,
              "position": 4.333333333333333,
              "duration": 0.010416666666666666
            },
            {
              "pitch": 54,
              "velocity": 42,
              "position": 4.5,
              "duration": 0.010416666666666666
            },
            {
              "pitch": 69,
              "velocity": 64,
              "position": 4.5,
              "duration": 0.010416666666666666
            },
            {
              "pitch": 54,
              "velocity": 16,
              "position": 4.833333333333333,
              "duration": 0.010416666666666666
            },
            {
              "pitch": 69,
              "velocity": 23,
              "position": 4.833333333333333,
              "duration": 0.010416666666666666
            },
            {
              "pitch": 62,
              "velocity": 14,
              "position": 4.833333333333333,
              "duration": 0.010416666666666666
            },
            {
              "pitch": 54,
              "velocity": 82,
              "position": 5,
              "duration": 0.010416666666666666
            },
            {
              "pitch": 69,
              "velocity": 41,
              "position": 5,
              "duration": 0.010416666666666666
            },
            {
              "pitch": 62,
              "velocity": 80,
              "position": 5,
              "duration": 0.010416666666666666
            },
            {
              "pitch": 54,
              "velocity": 18,
              "position": 5.333333333333333,
              "duration": 0.010416666666666666
            },
            {
              "pitch": 54,
              "velocity": 42,
              "position": 5.5,
              "duration": 0.010416666666666666
            },
            {
              "pitch": 69,
              "velocity": 64,
              "position": 5.5,
              "duration": 0.010416666666666666
            },
            {
              "pitch": 63,
              "velocity": 80,
              "position": 5.5,
              "duration": 0.010416666666666666
            },
            {
              "pitch": 54,
              "velocity": 16,
              "position": 5.833333333333333,
              "duration": 0.010416666666666666
            },
            {
              "pitch": 69,
              "velocity": 40,
              "position": 5.833333333333333,
              "duration": 0.010416666666666666
            },
            {
              "pitch": 54,
              "velocity": 70,
              "position": 6,
              "duration": 0.010416666666666666
            },
            {
              "pitch": 69,
              "velocity": 73,
              "position": 6,
              "duration": 0.010416666666666666
            },
            {
              "pitch": 54,
              "velocity": 18,
              "position": 6.333333333333333,
              "duration": 0.010416666666666666
            },
            {
              "pitch": 69,
              "velocity": 16,
              "position": 6.333333333333333,
              "duration": 0.010416666666666666
            },
            {
              "pitch": 54,
              "velocity": 42,
              "position": 6.5,
              "duration": 0.010416666666666666
            },
            {
              "pitch": 69,
              "velocity": 49,
              "position": 6.5,
              "duration": 0.010416666666666666
            },
            {
              "pitch": 63,
              "velocity": 31,
              "position": 6.5,
              "duration": 0.010416666666666666
            },
            {
              "pitch": 54,
              "velocity": 16,
              "position": 6.833333333333333,
              "duration": 0.010416666666666666
            },
            {
              "pitch": 69,
              "velocity": 18,
              "position": 6.833333333333333,
              "duration": 0.010416666666666666
            },
            {
              "pitch": 62,
              "velocity": 44,
              "position": 6.833333333333333,
              "duration": 0.010416666666666666
            },
            {
              "pitch": 54,
              "velocity": 82,
              "position": 7,
              "duration": 0.010416666666666666
            },
            {
              "pitch": 69,
              "velocity": 77,
              "position": 7,
              "duration": 0.010416666666666666
            },
            {
              "pitch": 62,
              "velocity": 80,
              "position": 7,
              "duration": 0.010416666666666666
            },
            {
              "pitch": 54,
              "velocity": 18,
              "position": 7.333333333333333,
              "duration": 0.010416666666666666
            },
            {
              "pitch": 54,
              "velocity": 42,
              "position": 7.5,
              "duration": 0.010416666666666666
            },
            {
              "pitch": 69,
              "velocity": 64,
              "position": 7.5,
              "duration": 0.010416666666666666
            },
            {
              "pitch": 64,
              "velocity": 80,
              "position": 7.5,
              "duration": 0.010416666666666666
            },
            {
              "pitch": 54,
              "velocity": 16,
              "position": 7.833333333333333,
              "duration": 0.010416666666666666
            },
            {
              "pitch": 69,
              "velocity": 33,
              "position": 7.833333333333333,
              "duration": 0.010416666666666666
            },
            {
              "pitch": 54,
              "velocity": 70,
              "position": 8,
              "duration": 0.010416666666666666
            },
            {
              "pitch": 69,
              "velocity": 41,
              "position": 8,
              "duration": 0.010416666666666666
            },
            {
              "pitch": 64,
              "velocity": 80,
              "position": 8,
              "duration": 0.010416666666666666
            },
            {
              "pitch": 54,
              "velocity": 18,
              "position": 8.333333333333334,
              "duration": 0.010416666666666666
            },
            {
              "pitch": 54,
              "velocity": 42,
              "position": 8.5,
              "duration": 0.010416666666666666
            },
            {
              "pitch": 69,
              "velocity": 64,
              "position": 8.5,
              "duration": 0.010416666666666666
            },
            {
              "pitch": 54,
              "velocity": 16,
              "position": 8.833333333333334,
              "duration": 0.010416666666666666
            },
            {
              "pitch": 69,
              "velocity": 23,
              "position": 8.833333333333334,
              "duration": 0.010416666666666666
            },
            {
              "pitch": 62,
              "velocity": 14,
              "position": 8.833333333333334,
              "duration": 0.010416666666666666
            },
            {
              "pitch": 54,
              "velocity": 82,
              "position": 9,
              "duration": 0.010416666666666666
            },
            {
              "pitch": 69,
              "velocity": 41,
              "position": 9,
              "duration": 0.010416666666666666
            },
            {
              "pitch": 62,
              "velocity": 80,
              "position": 9,
              "duration": 0.010416666666666666
            },
            {
              "pitch": 54,
              "velocity": 18,
              "position": 9.333333333333334,
              "duration": 0.010416666666666666
            },
            {
              "pitch": 54,
              "velocity": 42,
              "position": 9.5,
              "duration": 0.010416666666666666
            },
            {
              "pitch": 69,
              "velocity": 64,
              "position": 9.5,
              "duration": 0.010416666666666666
            },
            {
              "pitch": 63,
              "velocity": 80,
              "position": 9.5,
              "duration": 0.010416666666666666
            },
            {
              "pitch": 54,
              "velocity": 16,
              "position": 9.833333333333334,
              "duration": 0.010416666666666666
            },
            {
              "pitch": 69,
              "velocity": 40,
              "position": 9.833333333333334,
              "duration": 0.010416666666666666
            },
            {
              "pitch": 54,
              "velocity": 70,
              "position": 10,
              "duration": 0.010416666666666666
            },
            {
              "pitch": 69,
              "velocity": 73,
              "position": 10,
              "duration": 0.010416666666666666
            },
            {
              "pitch": 54,
              "velocity": 18,
              "position": 10.333333333333334,
              "duration": 0.010416666666666666
            },
            {
              "pitch": 69,
              "velocity": 16,
              "position": 10.333333333333334,
              "duration": 0.010416666666666666
            },
            {
              "pitch": 54,
              "velocity": 42,
              "position": 10.5,
              "duration": 0.010416666666666666
            },
            {
              "pitch": 69,
              "velocity": 49,
              "position": 10.5,
              "duration": 0.010416666666666666
            },
            {
              "pitch": 63,
              "velocity": 31,
              "position": 10.5,
              "duration": 0.010416666666666666
            },
            {
              "pitch": 54,
              "velocity": 16,
              "position": 10.833333333333334,
              "duration": 0.010416666666666666
            },
            {
              "pitch": 69,
              "velocity": 18,
              "position": 10.833333333333334,
              "duration": 0.010416666666666666
            },
            {
              "pitch": 62,
              "velocity": 44,
              "position": 10.833333333333334,
              "duration": 0.010416666666666666
            },
            {
              "pitch": 54,
              "velocity": 82,
              "position": 11,
              "duration": 0.010416666666666666
            },
            {
              "pitch": 69,
              "velocity": 77,
              "position": 11,
              "duration": 0.010416666666666666
            },
            {
              "pitch": 62,
              "velocity": 80,
              "position": 11,
              "duration": 0.010416666666666666
            },
            {
              "pitch": 54,
              "velocity": 18,
              "position": 11.333333333333334,
              "duration": 0.010416666666666666
            },
            {
              "pitch": 54,
              "velocity": 42,
              "position": 11.5,
              "duration": 0.010416666666666666
            },
            {
              "pitch": 69,
              "velocity": 64,
              "position": 11.5,
              "duration": 0.010416666666666666
            },
            {
              "pitch": 64,
              "velocity": 80,
              "position": 11.5,
              "duration": 0.010416666666666666
            }
          ]
        },
        "9": {
          "ctab": {
            "srcChannel": 9,
            "name": "MainDrum",
            "accType": "RHYTHM",
            "editable": false,
            "mutedNotes": [],
            "mutedChords": [],
            "autoStart": true,
            "sourceChordNote": 0,
            "sourceChordType": "Maj7",
            "ctb2Low": null,
            "ctb2Main": {
              "ntr": "ROOT_FIXED",
              "ntt": "BYPASS",
              "bassOn": false,
              "chordRootUpperLimit": 6,
              "noteLowLimit": 0,
              "noteHighLimit": 127,
              "rtr": "PITCH_SHIFT"
            },
            "ctb2High": null
          },
          "notes": [
            {
              "pitch": 35,
              "velocity": 90,
              "position": 0,
              "duration": 0.010416666666666666
            },
            {
              "pitch": 51,
              "velocity": 70,
              "position": 0,
              "duration": 0.010416666666666666
            },
            {
              "pitch": 49,
              "velocity": 74,
              "position": 0,
              "duration": 0.010416666666666666
            },
            {
              "pitch": 42,
              "velocity": 116,
              "position": 0,
              "duration": 0.010416666666666666
            },
            {
              "pitch": 42,
              "velocity": 88,
              "position": 0.5,
              "duration": 0.010416666666666666
            },
            {
              "pitch": 53,
              "velocity": 87,
              "position": 0.5,
              "duration": 0.010416666666666666
            },
            {
              "pitch": 35,
              "velocity": 98,
              "position": 1,
              "duration": 0.010416666666666666
            },
            {
              "pitch": 51,
              "velocity": 70,
              "position": 1,
              "duration": 0.010416666666666666
            },
            {
              "pitch": 42,
              "velocity": 116,
              "position": 1,
              "duration": 0.010416666666666666
            },
            {
              "pitch": 40,
              "velocity": 114,
              "position": 1,
              "duration": 0.010416666666666666
            },
            {
              "pitch": 35,
              "velocity": 78,
              "position": 1.5,
              "duration": 0.010416666666666666
            },
            {
              "pitch": 53,
              "velocity": 87,
              "position": 1.5,
              "duration": 0.010416666666666666
            },
            {
              "pitch": 42,
              "velocity": 94,
              "position": 1.5,
              "duration": 0.010416666666666666
            },
            {
              "pitch": 40,
              "velocity": 47,
              "position": 1.8333333333333333,
              "duration": 0.010416666666666666
            },
            {
              "pitch": 42,
              "velocity": 54,
              "position": 1.8333333333333333,
              "duration": 0.010416666666666666
            },
            {
              "pitch": 35,
              "velocity": 95,
              "position": 2,
              "duration": 0.010416666666666666
            },
            {
              "pitch": 51,
              "velocity": 70,
              "position": 2,
              "duration": 0.010416666666666666
            },
            {
              "pitch": 42,
              "velocity": 116,
              "position": 2,
              "duration": 0.010416666666666666
            },
            {
              "pitch": 42,
              "velocity": 85,
              "position": 2.5,
              "duration": 0.010416666666666666
            },
            {
              "pitch": 53,
              "velocity": 87,
              "position": 2.5,
              "duration": 0.010416666666666666
            },
            {
              "pitch": 40,
              "velocity": 114,
              "position": 2.8333333333333335,
              "duration": 0.010416666666666666
            },
            {
              "pitch": 42,
              "velocity": 116,
              "position": 3,
              "duration": 0.010416666666666666
            },
            {
              "pitch": 51,
              "velocity": 70,
              "position": 3,
              "duration": 0.010416666666666666
            },
            {
              "pitch": 42,
              "velocity": 38,
              "position": 3.3333333333333335,
              "duration": 0.010416666666666666
            },
            {
              "pitch": 35,
              "velocity": 94,
              "position": 3.5,
              "duration": 0.010416666666666666
            },
            {
              "pitch": 55,
              "velocity": 80,
              "position": 3.5,
              "duration": 0.010416666666666666
            },
            {
              "pitch": 53,
              "velocity": 87,
              "position": 3.5,
              "duration": 0.010416666666666666
            },
            {
              "pitch": 46,
              "velocity": 84,
              "position": 3.5,
              "duration": 0.010416666666666666
            },
            {
              "pitch": 42,
              "velocity": 88,
              "position": 4.5,
              "duration": 0.010416666666666666
            },
            {
              "pitch": 53,
              "velocity": 87,
              "position": 4.5,
              "duration": 0.010416666666666666
            },
            {
              "pitch": 35,
              "velocity": 98,
              "position": 5,
              "duration": 0.010416666666666666
            },
            {
              "pitch": 51,
              "velocity": 70,
              "position": 5,
              "duration": 0.010416666666666666
            },
            {
              "pitch": 42,
              "velocity": 116,
              "position": 5,
              "duration": 0.010416666666666666
            },
            {
              "pitch": 40,
              "velocity": 114,
              "position": 5,
              "duration": 0.010416666666666666
            },
            {
              "pitch": 35,
              "velocity": 78,
              "position": 5.5,
              "duration": 0.010416666666666666
            },
            {
              "pitch": 53,
              "velocity": 87,
              "position": 5.5,
              "duration": 0.010416666666666666
            },
            {
              "pitch": 42,
              "velocity": 94,
              "position": 5.5,
              "duration": 0.010416666666666666
            },
            {
              "pitch": 40,
              "velocity": 47,
              "position": 5.833333333333333,
              "duration": 0.010416666666666666
            },
            {
              "pitch": 42,
              "velocity": 54,
              "position": 5.833333333333333,
              "duration": 0.010416666666666666
            },
            {
              "pitch": 35,
              "velocity": 95,
              "position": 6,
              "duration": 0.010416666666666666
            },
            {
              "pitch": 51,
              "velocity": 70,
              "position": 6,
              "duration": 0.010416666666666666
            },
            {
              "pitch": 42,
              "velocity": 116,
              "position": 6,
              "duration": 0.010416666666666666
            },
            {
              "pitch": 40,
              "velocity": 80,
              "position": 6.333333333333333,
              "duration": 0.010416666666666666
            },
            {
              "pitch": 42,
              "velocity": 85,
              "position": 6.5,
              "duration": 0.010416666666666666
            },
            {
              "pitch": 53,
              "velocity": 87,
              "position": 6.5,
              "duration": 0.010416666666666666
            },
            {
              "pitch": 35,
              "velocity": 70,
              "position": 6.833333333333333,
              "duration": 0.010416666666666666
            },
            {
              "pitch": 40,
              "velocity": 114,
              "position": 7,
              "duration": 0.010416666666666666
            },
            {
              "pitch": 51,
              "velocity": 70,
              "position": 7,
              "duration": 0.010416666666666666
            },
            {
              "pitch": 42,
              "velocity": 116,
              "position": 7,
              "duration": 0.010416666666666666
            },
            {
              "pitch": 42,
              "velocity": 38,
              "position": 7.333333333333333,
              "duration": 0.010416666666666666
            },
            {
              "pitch": 35,
              "velocity": 93,
              "position": 7.5,
              "duration": 0.010416666666666666
            },
            {
              "pitch": 52,
              "velocity": 82,
              "position": 7.5,
              "duration": 0.010416666666666666
            },
            {
              "pitch": 46,
              "velocity": 84,
              "position": 7.5,
              "duration": 0.010416666666666666
            },
            {
              "pitch": 40,
              "velocity": 80,
              "position": 8.5,
              "duration": 0.010416666666666666
            },
            {
              "pitch": 53,
              "velocity": 87,
              "position": 8.5,
              "duration": 0.010416666666666666
            },
            {
              "pitch": 42,
              "velocity": 88,
              "position": 8.5,
              "duration": 0.010416666666666666
            },
            {
              "pitch": 40,
              "velocity": 125,
              "position": 9,
              "duration": 0.010416666666666666
            },
            {
              "pitch": 51,
              "velocity": 70,
              "position": 9,
              "duration": 0.010416666666666666
            },
            {
              "pitch": 42,
              "velocity": 116,
              "position": 9,
              "duration": 0.010416666666666666
            },
            {
              "pitch": 35,
              "velocity": 78,
              "position": 9.5,
              "duration": 0.010416666666666666
            },
            {
              "pitch": 53,
              "velocity": 87,
              "position": 9.5,
              "duration": 0.010416666666666666
            },
            {
              "pitch": 42,
              "velocity": 94,
              "position": 9.5,
              "duration": 0.010416666666666666
            },
            {
              "pitch": 41,
              "velocity": 60,
              "position": 9.5,
              "duration": 0.010416666666666666
            },
            {
              "pitch": 40,
              "velocity": 47,
              "position": 9.833333333333334,
              "duration": 0.010416666666666666
            },
            {
              "pitch": 42,
              "velocity": 54,
              "position": 9.833333333333334,
              "duration": 0.010416666666666666
            },
            {
              "pitch": 35,
              "velocity": 95,
              "position": 10,
              "duration": 0.010416666666666666
            },
            {
              "pitch": 51,
              "velocity": 70,
              "position": 10,
              "duration": 0.010416666666666666
            },
            {
              "pitch": 47,
              "velocity": 60,
              "position": 10,
              "duration": 0.010416666666666666
            },
            {
              "pitch": 42,
              "velocity": 116,
              "position": 10,
              "duration": 0.010416666666666666
            },
            {
              "pitch": 40,
              "velocity": 49,
              "position": 10.166666666666666,
              "duration": 0.010416666666666666
            },
            {
              "pitch": 40,
              "velocity": 65,
              "position": 10.333333333333334,
              "duration": 0.010416666666666666
            },
            {
              "pitch": 40,
              "velocity": 101,
              "position": 10.5,
              "duration": 0.010416666666666666
            },
            {
              "pitch": 53,
              "velocity": 87,
              "position": 10.5,
              "duration": 0.010416666666666666
            },
            {
              "pitch": 42,
              "velocity": 85,
              "position": 10.5,
              "duration": 0.010416666666666666
            },
            {
              "pitch": 35,
              "velocity": 70,
              "position": 10.833333333333334,
              "duration": 0.010416666666666666
            },
            {
              "pitch": 45,
              "velocity": 80,
              "position": 10.833333333333334,
              "duration": 0.010416666666666666
            },
            {
              "pitch": 40,
              "velocity": 118,
              "position": 11,
              "duration": 0.010416666666666666
            },
            {
              "pitch": 51,
              "velocity": 70,
              "position": 11,
              "duration": 0.010416666666666666
            },
            {
              "pitch": 42,
              "velocity": 116,
              "position": 11,
              "duration": 0.010416666666666666
            },
            {
              "pitch": 40,
              "velocity": 49,
              "position": 11.166666666666666,
              "duration": 0.010416666666666666
            },
            {
              "pitch": 40,
              "velocity": 79,
              "position": 11.333333333333334,
              "duration": 0.010416666666666666
            },
            {
              "pitch": 35,
              "velocity": 104,
              "position": 11.5,
              "duration": 0.010416666666666666
            },
            {
              "pitch": 55,
              "velocity": 74,
              "position": 11.5,
              "duration": 0.010416666666666666
            }
          ]
        },
        "10": {
          "ctab": {
            "srcChannel": 10,
            "name": "Bass",
            "accType": "BASS",
            "editable": false,
            "mutedNotes": [],
            "mutedChords": [
              "dim7",
              "dim",
              "minMaj7(9)",
              "minMaj7",
              "min7(11)",
              "min7(9)",
              "min(9)",
              "m7b5",
              "min7",
              "min6",
              "min"
            ],
            "autoStart": false,
            "sourceChordNote": 0,
            "sourceChordType": "Maj",
            "ctb2Low": null,
            "ctb2Main": {
              "ntr": "ROOT_TRANSPOSITION",
              "ntt": "BYPASS",
              "bassOn": false,
              "chordRootUpperLimit": 8,
              "noteLowLimit": 28,
              "noteHighLimit": 127,
              "rtr": "PITCH_SHIFT"
            },
            "ctb2High": null
          },
          "notes": [
            {
              "pitch": 24,
              "velocity": 70,
              "position": 0,
              "duration": 0.4895833333333333
            },
            {
              "pitch": 48,
              "velocity": 70,
              "position": 0.5,
              "duration": 0.15625
            },
            {
              "pitch": 34,
              "velocity": 70,
              "position": 1.5,
              "duration": 0.3229166666666667
            },
            {
              "pitch": 35,
              "velocity": 70,
              "position": 1.8333333333333333,
              "duration": 0.15625
            },
            {
              "pitch": 36,
              "velocity": 70,
              "position": 2,
              "duration": 0.3229166666666667
            },
            {
              "pitch": 36,
              "velocity": 108,
              "position": 2.3333333333333335,
              "duration": 0.15625
            },
            {
              "pitch": 48,
              "velocity": 70,
              "position": 2.5,
              "duration": 0.15625
            },
            {
              "pitch": 35,
              "velocity": 70,
              "position": 2.8333333333333335,
              "duration": 0.4895833333333333
            },
            {
              "pitch": 47,
              "velocity": 70,
              "position": 3.3333333333333335,
              "duration": 0.15625
            },
            {
              "pitch": 34,
              "velocity": 70,
              "position": 3.5,
              "duration": 0.8229166666666666
            },
            {
              "pitch": 46,
              "velocity": 70,
              "position": 4.5,
              "duration": 0.15625
            },
            {
              "pitch": 32,
              "velocity": 70,
              "position": 5.5,
              "duration": 0.3229166666666667
            },
            {
              "pitch": 33,
              "velocity": 70,
              "position": 5.833333333333333,
              "duration": 0.15625
            },
            {
              "pitch": 34,
              "velocity": 70,
              "position": 6,
              "duration": 0.3229166666666667
            },
            {
              "pitch": 34,
              "velocity": 110,
              "position": 6.333333333333333,
              "duration": 0.15625
            },
            {
              "pitch": 46,
              "velocity": 70,
              "position": 6.5,
              "duration": 0.15625
            },
            {
              "pitch": 34,
              "velocity": 70,
              "position": 6.833333333333333,
              "duration": 0.4895833333333333
            },
            {
              "pitch": 46,
              "velocity": 70,
              "position": 7.333333333333333,
              "duration": 0.15625
            },
            {
              "pitch": 33,
              "velocity": 70,
              "position": 7.5,
              "duration": 0.65625
            },
            {
              "pitch": 33,
              "velocity": 70,
              "position": 8.5,
              "duration": 0.4895833333333333
            },
            {
              "pitch": 33,
              "velocity": 70,
              "position": 9,
              "duration": 0.3333333333333333
            },
            {
              "pitch": 27,
              "velocity": 70,
              "position": 9.5,
              "duration": 0.5
            },
            {
              "pitch": 26,
              "velocity": 70,
              "position": 10,
              "duration": 0.65625
            },
            {
              "pitch": 25,
              "velocity": 70,
              "position": 10.833333333333334,
              "duration": 0.4895833333333333
            },
            {
              "pitch": 24,
              "velocity": 70,
              "position": 11.5,
              "duration": 0.3229166666666667
            }
          ]
        },
        "11": {
          "ctab": {
            "srcChannel": 11,
            "name": "Clavi",
            "accType": "CHORD1",
            "editable": false,
            "mutedNotes": [],
            "mutedChords": [
              "dim7",
              "dim",
              "minMaj7(9)",
              "minMaj7",
              "min7(11)",
              "min7(9)",
              "min(9)",
              "m7b5",
              "min7",
              "min6",
              "min"
            ],
            "autoStart": false,
            "sourceChordNote": 0,
            "sourceChordType": "Maj",
            "ctb2Low": null,
            "ctb2Main": {
              "ntr": "ROOT_TRANSPOSITION",
              "ntt": "BYPASS",
              "bassOn": false,
              "chordRootUpperLimit": 10,
              "noteLowLimit": 0,
              "noteHighLimit": 127,
              "rtr": "PITCH_SHIFT"
            },
            "ctb2High": null
          },
          "notes": [
            {
              "pitch": 36,
              "velocity": 66,
              "position": 0.010416666666666666,
              "duration": 0.3125
            },
            {
              "pitch": 48,
              "velocity": 109,
              "position": 0.3333333333333333,
              "duration": 0.14583333333333334
            },
            {
              "pitch": 58,
              "velocity": 111,
              "position": 0.5,
              "duration": 0.14583333333333334
            },
            {
              "pitch": 60,
              "velocity": 111,
              "position": 1,
              "duration": 0.14583333333333334
            },
            {
              "pitch": 48,
              "velocity": 37,
              "position": 1.3333333333333333,
              "duration": 0.14583333333333334
            },
            {
              "pitch": 58,
              "velocity": 90,
              "position": 1.5,
              "duration": 0.14583333333333334
            },
            {
              "pitch": 48,
              "velocity": 53,
              "position": 1.8333333333333333,
              "duration": 0.14583333333333334
            },
            {
              "pitch": 63,
              "velocity": 95,
              "position": 2,
              "duration": 0.3125
            },
            {
              "pitch": 48,
              "velocity": 80,
              "position": 2.5,
              "duration": 0.14583333333333334
            },
            {
              "pitch": 58,
              "velocity": 118,
              "position": 2.8333333333333335,
              "duration": 0.14583333333333334
            },
            {
              "pitch": 46,
              "velocity": 85,
              "position": 3.3333333333333335,
              "duration": 0.14583333333333334
            },
            {
              "pitch": 34,
              "velocity": 90,
              "position": 3.5,
              "duration": 0.14583333333333334
            },
            {
              "pitch": 55,
              "velocity": 121,
              "position": 3.5,
              "duration": 0.14583333333333334
            },
            {
              "pitch": 60,
              "velocity": 118,
              "position": 3.5,
              "duration": 0.3125
            },
            {
              "pitch": 46,
              "velocity": 77,
              "position": 4.333333333333333,
              "duration": 0.041666666666666664
            },
            {
              "pitch": 58,
              "velocity": 106,
              "position": 4.5,
              "duration": 0.14583333333333334
            },
            {
              "pitch": 46,
              "velocity": 77,
              "position": 4.833333333333333,
              "duration": 0.041666666666666664
            },
            {
              "pitch": 60,
              "velocity": 118,
              "position": 5,
              "duration": 0.14583333333333334
            },
            {
              "pitch": 46,
              "velocity": 80,
              "position": 5.333333333333333,
              "duration": 0.041666666666666664
            },
            {
              "pitch": 58,
              "velocity": 118,
              "position": 5.5,
              "duration": 0.14583333333333334
            },
            {
              "pitch": 46,
              "velocity": 77,
              "position": 5.833333333333333,
              "duration": 0.041666666666666664
            },
            {
              "pitch": 63,
              "velocity": 104,
              "position": 6,
              "duration": 0.3125
            },
            {
              "pitch": 46,
              "velocity": 77,
              "position": 6.5,
              "duration": 0.041666666666666664
            },
            {
              "pitch": 58,
              "velocity": 83,
              "position": 6.833333333333333,
              "duration": 0.3125
            },
            {
              "pitch": 46,
              "velocity": 82,
              "position": 7.333333333333333,
              "duration": 0.041666666666666664
            },
            {
              "pitch": 33,
              "velocity": 109,
              "position": 7.5,
              "duration": 0.3125
            },
            {
              "pitch": 60,
              "velocity": 121,
              "position": 7.5,
              "duration": 0.3125
            },
            {
              "pitch": 55,
              "velocity": 127,
              "position": 7.5,
              "duration": 0.3125
            },
            {
              "pitch": 45,
              "velocity": 104,
              "position": 7.5,
              "duration": 0.3125
            },
            {
              "pitch": 45,
              "velocity": 73,
              "position": 8.333333333333334,
              "duration": 0.041666666666666664
            },
            {
              "pitch": 58,
              "velocity": 78,
              "position": 8.5,
              "duration": 0.14583333333333334
            },
            {
              "pitch": 45,
              "velocity": 75,
              "position": 8.833333333333334,
              "duration": 0.041666666666666664
            },
            {
              "pitch": 60,
              "velocity": 127,
              "position": 9,
              "duration": 0.14583333333333334
            },
            {
              "pitch": 45,
              "velocity": 99,
              "position": 9.333333333333334,
              "duration": 0.041666666666666664
            },
            {
              "pitch": 58,
              "velocity": 106,
              "position": 9.5,
              "duration": 0.14583333333333334
            },
            {
              "pitch": 26,
              "velocity": 114,
              "position": 10,
              "duration": 0.3125
            },
            {
              "pitch": 38,
              "velocity": 114,
              "position": 10,
              "duration": 0.3125
            },
            {
              "pitch": 55,
              "velocity": 111,
              "position": 10,
              "duration": 0.3125
            },
            {
              "pitch": 60,
              "velocity": 116,
              "position": 10,
              "duration": 0.4791666666666667
            },
            {
              "pitch": 63,
              "velocity": 118,
              "position": 10,
              "duration": 0.4791666666666667
            },
            {
              "pitch": 25,
              "velocity": 111,
              "position": 10.833333333333334,
              "duration": 0.4791666666666667
            },
            {
              "pitch": 58,
              "velocity": 114,
              "position": 10.833333333333334,
              "duration": 0.4791666666666667
            },
            {
              "pitch": 53,
              "velocity": 118,
              "position": 10.833333333333334,
              "duration": 0.4791666666666667
            },
            {
              "pitch": 37,
              "velocity": 104,
              "position": 10.833333333333334,
              "duration": 0.4791666666666667
            },
            {
              "pitch": 52,
              "velocity": 97,
              "position": 11.5,
              "duration": 0.14583333333333334
            },
            {
              "pitch": 36,
              "velocity": 121,
              "position": 11.5,
              "duration": 0.3125
            },
            {
              "pitch": 55,
              "velocity": 90,
              "position": 11.5,
              "duration": 0.3125
            },
            {
              "pitch": 24,
              "velocity": 127,
              "position": 11.5,
              "duration": 0.3125
            },
            {
              "pitch": 60,
              "velocity": 77,
              "position": 11.5,
              "duration": 0.4791666666666667
            }
          ]
        },
        "12": {
          "ctab": {
            "srcChannel": 12,
            "name": "SolidGtr",
            "accType": "CHORD2",
            "editable": false,
            "mutedNotes": [],
            "mutedChords": [
              "dim7",
              "dim",
              "minMaj7(9)",
              "minMaj7",
              "min7(11)",
              "min7(9)",
              "min(9)",
              "m7b5",
              "min7",
              "min6",
              "min"
            ],
            "autoStart": false,
            "sourceChordNote": 0,
            "sourceChordType": "Maj",
            "ctb2Low": null,
            "ctb2Main": {
              "ntr": "ROOT_TRANSPOSITION",
              "ntt": "BYPASS",
              "bassOn": false,
              "chordRootUpperLimit": 8,
              "noteLowLimit": 58,
              "noteHighLimit": 69,
              "rtr": "PITCH_SHIFT"
            },
            "ctb2High": null
          },
          "notes": [
            {
              "pitch": 106,
              "velocity": 110,
              "position": 0,
              "duration": 0.15625
            },
            {
              "pitch": 58,
              "velocity": 55,
              "position": 0,
              "duration": 0.3020833333333333
            },
            {
              "pitch": 64,
              "velocity": 55,
              "position": 0.010416666666666666,
              "duration": 0.30416666666666664
            },
            {
              "pitch": 67,
              "velocity": 55,
              "position": 0.020833333333333332,
              "duration": 0.3020833333333333
            },
            {
              "pitch": 64,
              "velocity": 55,
              "position": 0.34375,
              "duration": 0.1375
            },
            {
              "pitch": 58,
              "velocity": 55,
              "position": 0.3541666666666667,
              "duration": 0.13541666666666666
            },
            {
              "pitch": 67,
              "velocity": 55,
              "position": 0.3333333333333333,
              "duration": 0.15625
            },
            {
              "pitch": 107,
              "velocity": 110,
              "position": 0.3333333333333333,
              "duration": 0.15625
            },
            {
              "pitch": 58,
              "velocity": 82,
              "position": 0.5,
              "duration": 0.14583333333333334
            },
            {
              "pitch": 67,
              "velocity": 82,
              "position": 0.5208333333333334,
              "duration": 0.125
            },
            {
              "pitch": 64,
              "velocity": 82,
              "position": 0.5104166666666666,
              "duration": 0.13541666666666666
            },
            {
              "pitch": 108,
              "velocity": 50,
              "position": 0.5,
              "duration": 0.15625
            },
            {
              "pitch": 64,
              "velocity": 55,
              "position": 0.84375,
              "duration": 0.1375
            },
            {
              "pitch": 58,
              "velocity": 55,
              "position": 0.8541666666666666,
              "duration": 0.13541666666666666
            },
            {
              "pitch": 67,
              "velocity": 55,
              "position": 0.8333333333333334,
              "duration": 0.15625
            },
            {
              "pitch": 100,
              "velocity": 100,
              "position": 0.8333333333333334,
              "duration": 0.15625
            },
            {
              "pitch": 64,
              "velocity": 72,
              "position": 1.0104166666666667,
              "duration": 0.03333333333333333
            },
            {
              "pitch": 58,
              "velocity": 72,
              "position": 1.0208333333333333,
              "duration": 0.03125
            },
            {
              "pitch": 67,
              "velocity": 72,
              "position": 1.0208333333333333,
              "duration": 0.052083333333333336
            },
            {
              "pitch": 111,
              "velocity": 98,
              "position": 1,
              "duration": 0.15625
            },
            {
              "pitch": 64,
              "velocity": 55,
              "position": 1.34375,
              "duration": 0.13541666666666666
            },
            {
              "pitch": 58,
              "velocity": 55,
              "position": 1.3541666666666667,
              "duration": 0.12708333333333333
            },
            {
              "pitch": 67,
              "velocity": 55,
              "position": 1.3333333333333333,
              "duration": 0.14791666666666667
            },
            {
              "pitch": 108,
              "velocity": 106,
              "position": 1.3333333333333333,
              "duration": 0.15625
            },
            {
              "pitch": 64,
              "velocity": 82,
              "position": 1.5,
              "duration": 0.03333333333333333
            },
            {
              "pitch": 58,
              "velocity": 82,
              "position": 1.5104166666666667,
              "duration": 0.03125
            },
            {
              "pitch": 67,
              "velocity": 82,
              "position": 1.5104166666666667,
              "duration": 0.052083333333333336
            },
            {
              "pitch": 112,
              "velocity": 109,
              "position": 1.5,
              "duration": 0.15625
            },
            {
              "pitch": 64,
              "velocity": 40,
              "position": 1.84375,
              "duration": 0.1375
            },
            {
              "pitch": 58,
              "velocity": 40,
              "position": 1.8541666666666667,
              "duration": 0.13541666666666666
            },
            {
              "pitch": 67,
              "velocity": 40,
              "position": 1.8333333333333333,
              "duration": 0.15625
            },
            {
              "pitch": 105,
              "velocity": 68,
              "position": 1.8333333333333333,
              "duration": 0.15625
            },
            {
              "pitch": 106,
              "velocity": 107,
              "position": 2,
              "duration": 0.15625
            },
            {
              "pitch": 64,
              "velocity": 55,
              "position": 2.0104166666666665,
              "duration": 0.14791666666666667
            },
            {
              "pitch": 67,
              "velocity": 55,
              "position": 2.0208333333333335,
              "duration": 0.14583333333333334
            },
            {
              "pitch": 58,
              "velocity": 55,
              "position": 2,
              "duration": 0.16666666666666666
            },
            {
              "pitch": 64,
              "velocity": 82,
              "position": 2.5,
              "duration": 0.03333333333333333
            },
            {
              "pitch": 58,
              "velocity": 82,
              "position": 2.5104166666666665,
              "duration": 0.03125
            },
            {
              "pitch": 67,
              "velocity": 82,
              "position": 2.5104166666666665,
              "duration": 0.052083333333333336
            },
            {
              "pitch": 115,
              "velocity": 92,
              "position": 2.5,
              "duration": 0.15625
            },
            {
              "pitch": 64,
              "velocity": 55,
              "position": 2.84375,
              "duration": 0.1375
            },
            {
              "pitch": 58,
              "velocity": 55,
              "position": 2.8541666666666665,
              "duration": 0.13541666666666666
            },
            {
              "pitch": 67,
              "velocity": 55,
              "position": 2.8333333333333335,
              "duration": 0.15625
            },
            {
              "pitch": 107,
              "velocity": 108,
              "position": 2.8333333333333335,
              "duration": 0.15625
            },
            {
              "pitch": 64,
              "velocity": 82,
              "position": 3,
              "duration": 0.03333333333333333
            },
            {
              "pitch": 58,
              "velocity": 82,
              "position": 3.0104166666666665,
              "duration": 0.03125
            },
            {
              "pitch": 67,
              "velocity": 82,
              "position": 3.0104166666666665,
              "duration": 0.052083333333333336
            },
            {
              "pitch": 111,
              "velocity": 98,
              "position": 3,
              "duration": 0.15625
            },
            {
              "pitch": 64,
              "velocity": 68,
              "position": 3.34375,
              "duration": 0.1375
            },
            {
              "pitch": 58,
              "velocity": 68,
              "position": 3.3541666666666665,
              "duration": 0.13541666666666666
            },
            {
              "pitch": 67,
              "velocity": 68,
              "position": 3.3333333333333335,
              "duration": 0.15625
            },
            {
              "pitch": 99,
              "velocity": 52,
              "position": 3.3333333333333335,
              "duration": 0.15625
            },
            {
              "pitch": 122,
              "velocity": 99,
              "position": 3.3020833333333335,
              "duration": 0.21875
            },
            {
              "pitch": 100,
              "velocity": 110,
              "position": 3.5,
              "duration": 0.15625
            },
            {
              "pitch": 63,
              "velocity": 116,
              "position": 3.5104166666666665,
              "duration": 0.8041666666666667
            },
            {
              "pitch": 58,
              "velocity": 116,
              "position": 3.5,
              "duration": 0.8229166666666666
            },
            {
              "pitch": 67,
              "velocity": 118,
              "position": 3.5208333333333335,
              "duration": 0.8020833333333334
            },
            {
              "pitch": 63,
              "velocity": 68,
              "position": 4.34375,
              "duration": 0.1375
            },
            {
              "pitch": 58,
              "velocity": 68,
              "position": 4.354166666666667,
              "duration": 0.13541666666666666
            },
            {
              "pitch": 67,
              "velocity": 68,
              "position": 4.333333333333333,
              "duration": 0.15625
            },
            {
              "pitch": 111,
              "velocity": 88,
              "position": 4.333333333333333,
              "duration": 0.15625
            },
            {
              "pitch": 106,
              "velocity": 68,
              "position": 4.5,
              "duration": 0.15625
            },
            {
              "pitch": 67,
              "velocity": 40,
              "position": 4.520833333333333,
              "duration": 0.2916666666666667
            },
            {
              "pitch": 63,
              "velocity": 40,
              "position": 4.510416666666667,
              "duration": 0.3020833333333333
            },
            {
              "pitch": 58,
              "velocity": 40,
              "position": 4.5,
              "duration": 0.3125
            },
            {
              "pitch": 63,
              "velocity": 55,
              "position": 4.84375,
              "duration": 0.1375
            },
            {
              "pitch": 58,
              "velocity": 55,
              "position": 4.854166666666667,
              "duration": 0.13541666666666666
            },
            {
              "pitch": 67,
              "velocity": 55,
              "position": 4.833333333333333,
              "duration": 0.15625
            },
            {
              "pitch": 107,
              "velocity": 104,
              "position": 4.833333333333333,
              "duration": 0.15625
            },
            {
              "pitch": 63,
              "velocity": 82,
              "position": 5,
              "duration": 0.03333333333333333
            },
            {
              "pitch": 58,
              "velocity": 82,
              "position": 5.010416666666667,
              "duration": 0.03125
            },
            {
              "pitch": 67,
              "velocity": 82,
              "position": 5.010416666666667,
              "duration": 0.052083333333333336
            },
            {
              "pitch": 102,
              "velocity": 70,
              "position": 5,
              "duration": 0.15625
            },
            {
              "pitch": 109,
              "velocity": 106,
              "position": 5.333333333333333,
              "duration": 0.15625
            },
            {
              "pitch": 63,
              "velocity": 55,
              "position": 5.34375,
              "duration": 0.14791666666666667
            },
            {
              "pitch": 58,
              "velocity": 55,
              "position": 5.354166666666667,
              "duration": 0.14583333333333334
            },
            {
              "pitch": 67,
              "velocity": 55,
              "position": 5.333333333333333,
              "duration": 0.16666666666666666
            },
            {
              "pitch": 108,
              "velocity": 53,
              "position": 5.5,
              "duration": 0.15625
            },
            {
              "pitch": 63,
              "velocity": 40,
              "position": 5.84375,
              "duration": 0.1375
            },
            {
              "pitch": 58,
              "velocity": 40,
              "position": 5.854166666666667,
              "duration": 0.13541666666666666
            },
            {
              "pitch": 67,
              "velocity": 40,
              "position": 5.833333333333333,
              "duration": 0.15625
            },
            {
              "pitch": 99,
              "velocity": 49,
              "position": 5.833333333333333,
              "duration": 0.15625
            },
            {
              "pitch": 100,
              "velocity": 107,
              "position": 6,
              "duration": 0.15625
            },
            {
              "pitch": 63,
              "velocity": 55,
              "position": 6.010416666666667,
              "duration": 0.14791666666666667
            },
            {
              "pitch": 67,
              "velocity": 55,
              "position": 6.020833333333333,
              "duration": 0.14583333333333334
            },
            {
              "pitch": 58,
              "velocity": 55,
              "position": 6,
              "duration": 0.16666666666666666
            },
            {
              "pitch": 63,
              "velocity": 82,
              "position": 6.5,
              "duration": 0.03333333333333333
            },
            {
              "pitch": 58,
              "velocity": 82,
              "position": 6.510416666666667,
              "duration": 0.03125
            },
            {
              "pitch": 67,
              "velocity": 82,
              "position": 6.510416666666667,
              "duration": 0.052083333333333336
            },
            {
              "pitch": 116,
              "velocity": 92,
              "position": 6.5,
              "duration": 0.15625
            },
            {
              "pitch": 63,
              "velocity": 55,
              "position": 6.84375,
              "duration": 0.1375
            },
            {
              "pitch": 58,
              "velocity": 55,
              "position": 6.854166666666667,
              "duration": 0.13541666666666666
            },
            {
              "pitch": 67,
              "velocity": 55,
              "position": 6.833333333333333,
              "duration": 0.15625
            },
            {
              "pitch": 107,
              "velocity": 108,
              "position": 6.833333333333333,
              "duration": 0.15625
            },
            {
              "pitch": 63,
              "velocity": 82,
              "position": 7,
              "duration": 0.03333333333333333
            },
            {
              "pitch": 58,
              "velocity": 82,
              "position": 7.010416666666667,
              "duration": 0.03125
            },
            {
              "pitch": 67,
              "velocity": 82,
              "position": 7.010416666666667,
              "duration": 0.052083333333333336
            },
            {
              "pitch": 111,
              "velocity": 98,
              "position": 7,
              "duration": 0.15625
            },
            {
              "pitch": 63,
              "velocity": 68,
              "position": 7.34375,
              "duration": 0.1375
            },
            {
              "pitch": 58,
              "velocity": 68,
              "position": 7.354166666666667,
              "duration": 0.13541666666666666
            },
            {
              "pitch": 67,
              "velocity": 68,
              "position": 7.333333333333333,
              "duration": 0.15625
            },
            {
              "pitch": 99,
              "velocity": 52,
              "position": 7.333333333333333,
              "duration": 0.15625
            },
            {
              "pitch": 123,
              "velocity": 99,
              "position": 7.302083333333333,
              "duration": 0.21875
            },
            {
              "pitch": 100,
              "velocity": 110,
              "position": 7.5,
              "duration": 0.15625
            },
            {
              "pitch": 63,
              "velocity": 116,
              "position": 7.510416666666667,
              "duration": 0.8041666666666667
            },
            {
              "pitch": 60,
              "velocity": 116,
              "position": 7.5,
              "duration": 0.8229166666666666
            },
            {
              "pitch": 67,
              "velocity": 118,
              "position": 7.520833333333333,
              "duration": 0.8020833333333334
            },
            {
              "pitch": 63,
              "velocity": 68,
              "position": 8.34375,
              "duration": 0.1375
            },
            {
              "pitch": 60,
              "velocity": 68,
              "position": 8.354166666666666,
              "duration": 0.13541666666666666
            },
            {
              "pitch": 67,
              "velocity": 68,
              "position": 8.333333333333334,
              "duration": 0.15625
            },
            {
              "pitch": 111,
              "velocity": 88,
              "position": 8.333333333333334,
              "duration": 0.15625
            },
            {
              "pitch": 106,
              "velocity": 68,
              "position": 8.5,
              "duration": 0.15625
            },
            {
              "pitch": 67,
              "velocity": 40,
              "position": 8.520833333333334,
              "duration": 0.2916666666666667
            },
            {
              "pitch": 63,
              "velocity": 40,
              "position": 8.510416666666666,
              "duration": 0.3020833333333333
            },
            {
              "pitch": 60,
              "velocity": 40,
              "position": 8.5,
              "duration": 0.3125
            },
            {
              "pitch": 63,
              "velocity": 55,
              "position": 8.84375,
              "duration": 0.1375
            },
            {
              "pitch": 60,
              "velocity": 55,
              "position": 8.854166666666666,
              "duration": 0.13541666666666666
            },
            {
              "pitch": 67,
              "velocity": 55,
              "position": 8.833333333333334,
              "duration": 0.15625
            },
            {
              "pitch": 107,
              "velocity": 104,
              "position": 8.833333333333334,
              "duration": 0.15625
            },
            {
              "pitch": 63,
              "velocity": 82,
              "position": 9,
              "duration": 0.03333333333333333
            },
            {
              "pitch": 60,
              "velocity": 82,
              "position": 9.010416666666666,
              "duration": 0.03125
            },
            {
              "pitch": 67,
              "velocity": 82,
              "position": 9.010416666666666,
              "duration": 0.052083333333333336
            },
            {
              "pitch": 102,
              "velocity": 70,
              "position": 9,
              "duration": 0.15625
            },
            {
              "pitch": 109,
              "velocity": 106,
              "position": 9.333333333333334,
              "duration": 0.15625
            },
            {
              "pitch": 63,
              "velocity": 55,
              "position": 9.34375,
              "duration": 0.14791666666666667
            },
            {
              "pitch": 60,
              "velocity": 55,
              "position": 9.354166666666666,
              "duration": 0.14583333333333334
            },
            {
              "pitch": 67,
              "velocity": 55,
              "position": 9.333333333333334,
              "duration": 0.16666666666666666
            },
            {
              "pitch": 108,
              "velocity": 53,
              "position": 9.5,
              "duration": 0.15625
            },
            {
              "pitch": 63,
              "velocity": 40,
              "position": 9.84375,
              "duration": 0.1375
            },
            {
              "pitch": 60,
              "velocity": 40,
              "position": 9.854166666666666,
              "duration": 0.13541666666666666
            },
            {
              "pitch": 67,
              "velocity": 40,
              "position": 9.833333333333334,
              "duration": 0.15625
            },
            {
              "pitch": 99,
              "velocity": 49,
              "position": 9.833333333333334,
              "duration": 0.15625
            },
            {
              "pitch": 121,
              "velocity": 99,
              "position": 9.802083333333334,
              "duration": 0.21875
            },
            {
              "pitch": 100,
              "velocity": 107,
              "position": 10,
              "duration": 0.15625
            },
            {
              "pitch": 66,
              "velocity": 55,
              "position": 10.010416666666666,
              "duration": 0.14791666666666667
            },
            {
              "pitch": 60,
              "velocity": 55,
              "position": 10,
              "duration": 0.16666666666666666
            },
            {
              "pitch": 69,
              "velocity": 55,
              "position": 10.020833333333334,
              "duration": 0.14583333333333334
            },
            {
              "pitch": 66,
              "velocity": 82,
              "position": 10.5,
              "duration": 0.03333333333333333
            },
            {
              "pitch": 60,
              "velocity": 82,
              "position": 10.510416666666666,
              "duration": 0.03125
            },
            {
              "pitch": 69,
              "velocity": 82,
              "position": 10.510416666666666,
              "duration": 0.052083333333333336
            },
            {
              "pitch": 117,
              "velocity": 92,
              "position": 10.5,
              "duration": 0.15625
            },
            {
              "pitch": 120,
              "velocity": 78,
              "position": 10.604166666666666,
              "duration": 0.21875
            },
            {
              "pitch": 65,
              "velocity": 55,
              "position": 10.84375,
              "duration": 0.1375
            },
            {
              "pitch": 60,
              "velocity": 55,
              "position": 10.854166666666666,
              "duration": 0.13541666666666666
            },
            {
              "pitch": 68,
              "velocity": 55,
              "position": 10.833333333333334,
              "duration": 0.15625
            },
            {
              "pitch": 107,
              "velocity": 108,
              "position": 10.833333333333334,
              "duration": 0.15625
            },
            {
              "pitch": 65,
              "velocity": 82,
              "position": 11,
              "duration": 0.03333333333333333
            },
            {
              "pitch": 60,
              "velocity": 82,
              "position": 11.010416666666666,
              "duration": 0.03125
            },
            {
              "pitch": 68,
              "velocity": 82,
              "position": 11.010416666666666,
              "duration": 0.052083333333333336
            },
            {
              "pitch": 111,
              "velocity": 98,
              "position": 11,
              "duration": 0.15625
            },
            {
              "pitch": 122,
              "velocity": 78,
              "position": 11.104166666666666,
              "duration": 0.1875
            },
            {
              "pitch": 65,
              "velocity": 68,
              "position": 11.34375,
              "duration": 0.1375
            },
            {
              "pitch": 60,
              "velocity": 68,
              "position": 11.354166666666666,
              "duration": 0.13541666666666666
            },
            {
              "pitch": 68,
              "velocity": 68,
              "position": 11.333333333333334,
              "duration": 0.15625
            },
            {
              "pitch": 99,
              "velocity": 52,
              "position": 11.333333333333334,
              "duration": 0.15625
            },
            {
              "pitch": 100,
              "velocity": 110,
              "position": 11.5,
              "duration": 0.15625
            },
            {
              "pitch": 64,
              "velocity": 55,
              "position": 11.510416666666666,
              "duration": 0.30416666666666664
            },
            {
              "pitch": 67,
              "velocity": 57,
              "position": 11.520833333333334,
              "duration": 0.3020833333333333
            },
            {
              "pitch": 60,
              "velocity": 55,
              "position": 11.5,
              "duration": 0.3229166666666667
            }
          ]
        },
        "13": {
          "ctab": {
            "srcChannel": 13,
            "name": "E.Piano",
            "accType": "PAD",
            "editable": false,
            "mutedNotes": [],
            "mutedChords": [
              "dim7",
              "dim",
              "minMaj7(9)",
              "minMaj7",
              "min7(11)",
              "min7(9)",
              "min(9)",
              "m7b5",
              "min7",
              "min6",
              "min"
            ],
            "autoStart": false,
            "sourceChordNote": 0,
            "sourceChordType": "Maj",
            "ctb2Low": null,
            "ctb2Main": {
              "ntr": "ROOT_TRANSPOSITION",
              "ntt": "BYPASS",
              "bassOn": false,
              "chordRootUpperLimit": 8,
              "noteLowLimit": 54,
              "noteHighLimit": 65,
              "rtr": "PITCH_SHIFT"
            },
            "ctb2High": null
          },
          "notes": [
            {
              "pitch": 55,
              "velocity": 101,
              "position": 0,
              "duration": 0.3145833333333333
            },
            {
              "pitch": 64,
              "velocity": 101,
              "position": 0,
              "duration": 0.3145833333333333
            },
            {
              "pitch": 60,
              "velocity": 101,
              "position": 0,
              "duration": 0.3145833333333333
            },
            {
              "pitch": 58,
              "velocity": 101,
              "position": 0,
              "duration": 0.3145833333333333
            },
            {
              "pitch": 55,
              "velocity": 74,
              "position": 2,
              "duration": 0.14791666666666667
            },
            {
              "pitch": 64,
              "velocity": 74,
              "position": 2,
              "duration": 0.14791666666666667
            },
            {
              "pitch": 60,
              "velocity": 74,
              "position": 2,
              "duration": 0.14791666666666667
            },
            {
              "pitch": 58,
              "velocity": 74,
              "position": 2,
              "duration": 0.14791666666666667
            },
            {
              "pitch": 55,
              "velocity": 89,
              "position": 2.8333333333333335,
              "duration": 0.14791666666666667
            },
            {
              "pitch": 64,
              "velocity": 89,
              "position": 2.8333333333333335,
              "duration": 0.14791666666666667
            },
            {
              "pitch": 60,
              "velocity": 89,
              "position": 2.8333333333333335,
              "duration": 0.14791666666666667
            },
            {
              "pitch": 58,
              "velocity": 89,
              "position": 2.8333333333333335,
              "duration": 0.14791666666666667
            },
            {
              "pitch": 55,
              "velocity": 106,
              "position": 3.5,
              "duration": 0.48125
            },
            {
              "pitch": 63,
              "velocity": 106,
              "position": 3.5,
              "duration": 0.48125
            },
            {
              "pitch": 60,
              "velocity": 106,
              "position": 3.5,
              "duration": 0.48125
            },
            {
              "pitch": 58,
              "velocity": 106,
              "position": 3.5,
              "duration": 0.48125
            },
            {
              "pitch": 55,
              "velocity": 66,
              "position": 6,
              "duration": 0.14791666666666667
            },
            {
              "pitch": 63,
              "velocity": 66,
              "position": 6,
              "duration": 0.14791666666666667
            },
            {
              "pitch": 60,
              "velocity": 66,
              "position": 6,
              "duration": 0.14791666666666667
            },
            {
              "pitch": 58,
              "velocity": 66,
              "position": 6,
              "duration": 0.14791666666666667
            },
            {
              "pitch": 55,
              "velocity": 89,
              "position": 6.833333333333333,
              "duration": 0.14791666666666667
            },
            {
              "pitch": 63,
              "velocity": 89,
              "position": 6.833333333333333,
              "duration": 0.14791666666666667
            },
            {
              "pitch": 60,
              "velocity": 89,
              "position": 6.833333333333333,
              "duration": 0.14791666666666667
            },
            {
              "pitch": 58,
              "velocity": 89,
              "position": 6.833333333333333,
              "duration": 0.14791666666666667
            },
            {
              "pitch": 55,
              "velocity": 105,
              "position": 7.5,
              "duration": 0.4791666666666667
            },
            {
              "pitch": 63,
              "velocity": 105,
              "position": 7.5,
              "duration": 0.4791666666666667
            },
            {
              "pitch": 60,
              "velocity": 105,
              "position": 7.5,
              "duration": 0.4791666666666667
            },
            {
              "pitch": 57,
              "velocity": 105,
              "position": 7.5,
              "duration": 0.4791666666666667
            },
            {
              "pitch": 55,
              "velocity": 71,
              "position": 9.5,
              "duration": 0.14791666666666667
            },
            {
              "pitch": 63,
              "velocity": 71,
              "position": 9.5,
              "duration": 0.14791666666666667
            },
            {
              "pitch": 60,
              "velocity": 71,
              "position": 9.5,
              "duration": 0.14791666666666667
            },
            {
              "pitch": 57,
              "velocity": 71,
              "position": 9.5,
              "duration": 0.14791666666666667
            },
            {
              "pitch": 54,
              "velocity": 73,
              "position": 10,
              "duration": 0.48125
            },
            {
              "pitch": 62,
              "velocity": 73,
              "position": 10,
              "duration": 0.48125
            },
            {
              "pitch": 60,
              "velocity": 73,
              "position": 10,
              "duration": 0.48125
            },
            {
              "pitch": 57,
              "velocity": 73,
              "position": 10,
              "duration": 0.48125
            },
            {
              "pitch": 56,
              "velocity": 84,
              "position": 10.833333333333334,
              "duration": 0.3145833333333333
            },
            {
              "pitch": 61,
              "velocity": 84,
              "position": 10.833333333333334,
              "duration": 0.48125
            },
            {
              "pitch": 59,
              "velocity": 84,
              "position": 10.833333333333334,
              "duration": 0.48125
            },
            {
              "pitch": 53,
              "velocity": 84,
              "position": 10.833333333333334,
              "duration": 0.48125
            },
            {
              "pitch": 52,
              "velocity": 93,
              "position": 11.5,
              "duration": 0.3145833333333333
            },
            {
              "pitch": 60,
              "velocity": 93,
              "position": 11.5,
              "duration": 0.3145833333333333
            },
            {
              "pitch": 58,
              "velocity": 93,
              "position": 11.5,
              "duration": 0.3145833333333333
            },
            {
              "pitch": 55,
              "velocity": 93,
              "position": 11.5,
              "duration": 0.3145833333333333
            }
          ]
        },
        "14": {
          "ctab": {
            "srcChannel": 14,
            "name": "TenorSax",
            "accType": "PHRASE1",
            "editable": false,
            "mutedNotes": [],
            "mutedChords": [
              "dim7",
              "dim",
              "minMaj7(9)",
              "minMaj7",
              "min7(11)",
              "min7(9)",
              "min(9)",
              "m7b5",
              "min7",
              "min6",
              "min"
            ],
            "autoStart": false,
            "sourceChordNote": 0,
            "sourceChordType": "Maj",
            "ctb2Low": null,
            "ctb2Main": {
              "ntr": "ROOT_TRANSPOSITION",
              "ntt": "BYPASS",
              "bassOn": false,
              "chordRootUpperLimit": 7,
              "noteLowLimit": 0,
              "noteHighLimit": 127,
              "rtr": "PITCH_SHIFT"
            },
            "ctb2High": null
          },
          "notes": [
            {
              "pitch": 58,
              "velocity": 90,
              "position": 0.5,
              "duration": 0.15625
            },
            {
              "pitch": 60,
              "velocity": 90,
              "position": 1,
              "duration": 0.4895833333333333
            },
            {
              "pitch": 58,
              "velocity": 90,
              "position": 1.5,
              "duration": 0.15625
            },
            {
              "pitch": 58,
              "velocity": 90,
              "position": 2.8333333333333335,
              "duration": 0.65625
            },
            {
              "pitch": 60,
              "velocity": 90,
              "position": 3.5,
              "duration": 0.15625
            },
            {
              "pitch": 58,
              "velocity": 90,
              "position": 4.49375,
              "duration": 0.15625
            },
            {
              "pitch": 60,
              "velocity": 90,
              "position": 4.99375,
              "duration": 0.4895833333333333
            },
            {
              "pitch": 58,
              "velocity": 90,
              "position": 5.49375,
              "duration": 0.15625
            },
            {
              "pitch": 58,
              "velocity": 90,
              "position": 6.827083333333333,
              "duration": 0.65625
            },
            {
              "pitch": 60,
              "velocity": 90,
              "position": 7.49375,
              "duration": 0.15625
            },
            {
              "pitch": 70,
              "velocity": 90,
              "position": 8.5,
              "duration": 0.15625
            },
            {
              "pitch": 72,
              "velocity": 90,
              "position": 9,
              "duration": 0.4895833333333333
            },
            {
              "pitch": 70,
              "velocity": 90,
              "position": 9.5,
              "duration": 0.15625
            },
            {
              "pitch": 70,
              "velocity": 90,
              "position": 10.833333333333334,
              "duration": 0.65625
            },
            {
              "pitch": 72,
              "velocity": 90,
              "position": 11.5,
              "duration": 0.15625
            }
          ]
        },
        "15": {
          "ctab": {
            "srcChannel": 15,
            "name": "Brass",
            "accType": "PHRASE2",
            "editable": false,
            "mutedNotes": [],
            "mutedChords": [
              "dim7",
              "dim",
              "minMaj7(9)",
              "minMaj7",
              "min7(11)",
              "min7(9)",
              "min(9)",
              "m7b5",
              "min7",
              "min6",
              "min"
            ],
            "autoStart": false,
            "sourceChordNote": 0,
            "sourceChordType": "Maj",
            "ctb2Low": null,
            "ctb2Main": {
              "ntr": "ROOT_TRANSPOSITION",
              "ntt": "BYPASS",
              "bassOn": false,
              "chordRootUpperLimit": 3,
              "noteLowLimit": 0,
              "noteHighLimit": 127,
              "rtr": "PITCH_SHIFT"
            },
            "ctb2High": null
          },
          "notes": [
            {
              "pitch": 58,
              "velocity": 90,
              "position": 4.5,
              "duration": 0.15625
            },
            {
              "pitch": 70,
              "velocity": 90,
              "position": 4.5,
              "duration": 0.15625
            },
            {
              "pitch": 60,
              "velocity": 90,
              "position": 5,
              "duration": 0.4895833333333333
            },
            {
              "pitch": 72,
              "velocity": 90,
              "position": 5,
              "duration": 0.4895833333333333
            },
            {
              "pitch": 58,
              "velocity": 90,
              "position": 5.5,
              "duration": 0.15625
            },
            {
              "pitch": 70,
              "velocity": 90,
              "position": 5.5,
              "duration": 0.15625
            },
            {
              "pitch": 70,
              "velocity": 90,
              "position": 8.5,
              "duration": 0.15625
            },
            {
              "pitch": 82,
              "velocity": 90,
              "position": 8.5,
              "duration": 0.15625
            },
            {
              "pitch": 70,
              "velocity": 90,
              "position": 9.5,
              "duration": 0.3229166666666667
            },
            {
              "pitch": 82,
              "velocity": 90,
              "position": 9.5,
              "duration": 0.3229166666666667
            },
            {
              "pitch": 59,
              "velocity": 85,
              "position": 10.833333333333334,
              "duration": 0.65625
            },
            {
              "pitch": 82,
              "velocity": 90,
              "position": 10.833333333333334,
              "duration": 0.65625
            },
            {
              "pitch": 70,
              "velocity": 90,
              "position": 10.833333333333334,
              "duration": 0.65625
            },
            {
              "pitch": 68,
              "velocity": 85,
              "position": 10.833333333333334,
              "duration": 0.65625
            },
            {
              "pitch": 65,
              "velocity": 85,
              "position": 10.833333333333334,
              "duration": 0.65625
            }
          ]
        }
      }
    }
  }
}