{
  "name": "SlowBlues.S594.sst",
  "tempo": 49,
  "timeSignature": "4/4",
  "ticksPerQuarter": 1920,
  "sffType": "SFF1",
  "division": "EIGHTH_TRIPLET",
  "parts": {
    "Main_A": {
      "type": "Main_A",
      "sizeInBeats": 8,
      "channels": {
        "0": {
          "ctab": {
            "srcChannel": 0,
            "name": "Pno LH",
            "accType": "CHORD2",
            "editable": false,
            "mutedNotes": [],
            "mutedChords": [],
            "autoStart": false,
            "sourceChordNote": 0,
            "sourceChordType": "Maj7",
            "ctb2Low": null,
            "ctb2Main": {
              "ntr": "ROOT_TRANSPOSITION",
              "ntt": "DORIAN_5",
              "bassOn": true,
              "chordRootUpperLimit": 8,
              "noteLowLimit": 0,
              "noteHighLimit": 127,
              "rtr": "PITCH_SHIFT_TO_ROOT"
            },
            "ctb2High": null
          },
          "notes": []
        },
        "1": {
          "ctab": {
            "srcChannel": 1,
            "name": "BassAlt",
            "accType": "BASS",
            "editable": false,
            "mutedNotes": [],
            "mutedChords": [
              "1+2+5",
              "sus4",
              "1+5",
              "1+8",
              "Maj7aug",
              "7(#9)",
              "7(b13)",
              "7(b9)",
              "7(13)",
              "7#11",
              "7(9)",
              "7b5",
              "7sus4",
              "7th",
              "dim7",
              "min7(11)",
              "min7(9)",
              "min7",
              "min6",
              "Maj6(9)",
              "Maj7(9)",
              "Maj(9)",
              "Maj7#11",
              "Maj7",
              "Maj6",
              "Maj"
            ],
            "autoStart": false,
            "sourceChordNote": 0,
            "sourceChordType": "Maj7",
            "ctb2Low": null,
            "ctb2Main": {
              "ntr": "ROOT_TRANSPOSITION",
              "ntt": "MELODY",
              "bassOn": true,
              "chordRootUpperLimit": 8,
              "noteLowLimit": 28,
              "noteHighLimit": 127,
              "rtr": "PITCH_SHIFT_TO_ROOT"
            },
            "ctb2High": null
          },
          "notes": [
            {
              "pitch": 24,
              "velocity": 95,
              "position": 0,
              "duration": 1.65625
            },
            {
              "pitch": 24,
              "velocity": 80,
              "position": 1.6666666666666667,
              "duration": 0.3229166666666667
            },
            {
              "pitch": 24,
              "velocity": 95,
              "position": 2,
              "duration": 1.9895833333333333
            },
            {
              "pitch": 24,
              "velocity": 95,
              "position": 4,
              "duration": 1.65625
            },
            {
              "pitch": 24,
              "velocity": 80,
              "position": 5.666666666666667,
              "duration": 0.3229166666666667
            },
            {
              "pitch": 24,
              "velocity": 95,
              "position": 6,
              "duration": 1.9895833333333333
            }
          ]
        },
        "2": {
          "ctab": {
            "srcChannel": 2,
            "name": "60cCln S",
            "accType": "CHORD1",
            "editable": false,
            "mutedNotes": [],
            "mutedChords": [
              "1+2+5",
              "sus4",
              "1+5",
              "1+8",
              "7aug",
              "Maj7aug",
              "7(#9)",
              "7(b13)",
              "7(b9)",
              "7(13)",
              "7#11",
              "7(9)",
              "7b5",
              "7sus4",
              "7th",
              "dim7",
              "dim",
              "minMaj7(9)",
              "minMaj7",
              "min7(11)",
              "min7(9)",
              "min(9)",
              "m7b5",
              "min7",
              "min6",
              "aug",
              "Maj6(9)",
              "Maj7(9)",
              "Maj(9)",
              "Maj7#11",
              "Maj7",
              "Maj6"
            ],
            "autoStart": false,
            "sourceChordNote": 0,
            "sourceChordType": "Maj7",
            "ctb2Low": null,
            "ctb2Main": {
              "ntr": "ROOT_TRANSPOSITION",
              "ntt": "DORIAN_5",
              "bassOn": false,
              "chordRootUpperLimit": 4,
              "noteLowLimit": 54,
              "noteHighLimit": 127,
              "rtr": "PITCH_SHIFT"
            },
            "ctb2High": null
          },
          "notes": [
            {
              "pitch": 58,
              "velocity": 100,
              "position": 1,
              "duration": 0.08333333333333333
            },
            {
              "pitch": 64,
              "velocity": 100,
              "position": 1,
              "duration": 0.08333333333333333
            },
            {
              "pitch": 67,
              "velocity": 100,
              "position": 1.0104166666666667,
              "duration": 0.08333333333333333
            },
            {
              "pitch": 72,
              "velocity": 100,
              "position": 1.0208333333333333,
              "duration": 0.08333333333333333
            },
            {
              "pitch": 58,
              "velocity": 100,
              "position": 3,
              "duration": 0.08333333333333333
            },
            {
              "pitch": 64,
              "velocity": 100,
              "position": 3,
              "duration": 0.08333333333333333
            },
            {
              "pitch": 67,
              "velocity": 100,
              "position": 3.0104166666666665,
              "duration": 0.08333333333333333
            },
            {
              "pitch": 72,
              "velocity": 100,
              "position": 3.0208333333333335,
              "duration": 0.08333333333333333
            },
            {
              "pitch": 58,
              "velocity": 100,
              "position": 5,
              "duration": 0.08333333333333333
            },
            {
              "pitch": 64,
              "velocity": 100,
              "position": 5,
              "duration": 0.08333333333333333
            },
            {
              "pitch": 67,
              "velocity": 100,
              "position": 5.010416666666667,
              "duration": 0.08333333333333333
            },
            {
              "pitch": 72,
              "velocity": 100,
              "position": 5.020833333333333,
              "duration": 0.08333333333333333
            },
            {
              "pitch": 58,
              "velocity": 100,
              "position": 7,
              "duration": 0.08333333333333333
            },
            {
              "pitch": 64,
              "velocity": 100,
              "position": 7,
              "duration": 0.08333333333333333
            },
            {
              "pitch": 67,
              "velocity": 100,
              "position": 7.010416666666667,
              "duration": 0.08333333333333333
            },
            {
              "pitch": 72,
              "velocity": 100,
              "position": 7.020833333333333,
              "duration": 0.08333333333333333
            }
          ]
        },
        "3": {
          "ctab": {
            "srcChannel": 3,
            "name": "PnoRH S",
            "accType": "CHORD2",
            "editable": false,
            "mutedNotes": [],
            "mutedChords": [
              "1+2+5",
              "sus4",
              "1+5",
              "1+8",
              "7aug",
              "Maj7aug",
              "7(#9)",
              "7(b13)",
              "7(b9)",
              "7(13)",
              "7#11",
              "7(9)",
              "7b5",
              "7sus4",
              "7th",
              "dim7",
              "dim",
              "minMaj7(9)",
              "minMaj7",
              "min7(11)",
              "min7(9)",
              "min(9)",
              "m7b5",
              "min7",
              "min6",
              "aug",
              "Maj6(9)",
              "Maj7(9)",
              "Maj(9)",
              "Maj7#11",
              "Maj7",
              "Maj6"
            ],
            "autoStart": false,
            "sourceChordNote": 0,
            "sourceChordType": "Maj7",
            "ctb2Low": null,
            "ctb2Main": {
              "ntr": "ROOT_TRANSPOSITION",
              "ntt": "DORIAN_5",
              "bassOn": false,
              "chordRootUpperLimit": 11,
              "noteLowLimit": 54,
              "noteHighLimit": 79,
              "rtr": "PITCH_SHIFT"
            },
            "ctb2High": null
          },
          "notes": [
            {
              "pitch": 43,
              "velocity": 45,
              "position": 0,
              "duration": 0.3229166666666667
            },
            {
              "pitch": 46,
              "velocity": 22,
              "position": 0,
              "duration": 0.3229166666666667
            },
            {
              "pitch": 48,
              "velocity": 22,
              "position": 0,
              "duration": 0.3229166666666667
            },
            {
              "pitch": 52,
              "velocity": 29,
              "position": 0,
              "duration": 0.3229166666666667
            },
            {
              "pitch": 43,
              "velocity": 51,
              "position": 0.3333333333333333,
              "duration": 0.3229166666666667
            },
            {
              "pitch": 46,
              "velocity": 54,
              "position": 0.3333333333333333,
              "duration": 0.3229166666666667
            },
            {
              "pitch": 48,
              "velocity": 54,
              "position": 0.3333333333333333,
              "duration": 0.3229166666666667
            },
            {
              "pitch": 52,
              "velocity": 44,
              "position": 0.3333333333333333,
              "duration": 0.3229166666666667
            },
            {
              "pitch": 43,
              "velocity": 55,
              "position": 0.6666666666666666,
              "duration": 0.3229166666666667
            },
            {
              "pitch": 46,
              "velocity": 27,
              "position": 0.6666666666666666,
              "duration": 0.3229166666666667
            },
            {
              "pitch": 48,
              "velocity": 27,
              "position": 0.6666666666666666,
              "duration": 0.3229166666666667
            },
            {
              "pitch": 52,
              "velocity": 34,
              "position": 0.6666666666666666,
              "duration": 0.3229166666666667
            },
            {
              "pitch": 43,
              "velocity": 45,
              "position": 1,
              "duration": 0.3229166666666667
            },
            {
              "pitch": 46,
              "velocity": 22,
              "position": 1,
              "duration": 0.3229166666666667
            },
            {
              "pitch": 48,
              "velocity": 22,
              "position": 1,
              "duration": 0.3229166666666667
            },
            {
              "pitch": 52,
              "velocity": 29,
              "position": 1,
              "duration": 0.3229166666666667
            },
            {
              "pitch": 43,
              "velocity": 39,
              "position": 1.3333333333333333,
              "duration": 0.3229166666666667
            },
            {
              "pitch": 46,
              "velocity": 17,
              "position": 1.3333333333333333,
              "duration": 0.3229166666666667
            },
            {
              "pitch": 48,
              "velocity": 17,
              "position": 1.3333333333333333,
              "duration": 0.3229166666666667
            },
            {
              "pitch": 52,
              "velocity": 31,
              "position": 1.3333333333333333,
              "duration": 0.3229166666666667
            },
            {
              "pitch": 43,
              "velocity": 40,
              "position": 1.6666666666666667,
              "duration": 0.3229166666666667
            },
            {
              "pitch": 46,
              "velocity": 15,
              "position": 1.6666666666666667,
              "duration": 0.3229166666666667
            },
            {
              "pitch": 48,
              "velocity": 15,
              "position": 1.6666666666666667,
              "duration": 0.3229166666666667
            },
            {
              "pitch": 52,
              "velocity": 43,
              "position": 1.6666666666666667,
              "duration": 0.3229166666666667
            },
            {
              "pitch": 43,
              "velocity": 49,
              "position": 2,
              "duration": 0.3229166666666667
            },
            {
              "pitch": 46,
              "velocity": 43,
              "position": 2,
              "duration": 0.3229166666666667
            },
            {
              "pitch": 48,
              "velocity": 43,
              "position": 2,
              "duration": 0.3229166666666667
            },
            {
              "pitch": 52,
              "velocity": 36,
              "position": 2,
              "duration": 0.3229166666666667
            },
            {
              "pitch": 43,
              "velocity": 41,
              "position": 2.3333333333333335,
              "duration": 0.3229166666666667
            },
            {
              "pitch": 46,
              "velocity": 19,
              "position": 2.3333333333333335,
              "duration": 0.3229166666666667
            },
            {
              "pitch": 48,
              "velocity": 19,
              "position": 2.3333333333333335,
              "duration": 0.3229166666666667
            },
            {
              "pitch": 52,
              "velocity": 29,
              "position": 2.3333333333333335,
              "duration": 0.3229166666666667
            },
            {
              "pitch": 43,
              "velocity": 19,
              "position": 2.6666666666666665,
              "duration": 0.3229166666666667
            },
            {
              "pitch": 46,
              "velocity": 22,
              "position": 2.6666666666666665,
              "duration": 0.3229166666666667
            },
            {
              "pitch": 48,
              "velocity": 22,
              "position": 2.6666666666666665,
              "duration": 0.3229166666666667
            },
            {
              "pitch": 52,
              "velocity": 41,
              "position": 2.6666666666666665,
              "duration": 0.3229166666666667
            },
            {
              "pitch": 43,
              "velocity": 59,
              "position": 3,
              "duration": 0.3229166666666667
            },
            {
              "pitch": 46,
              "velocity": 40,
              "position": 3,
              "duration": 0.3229166666666667
            },
            {
              "pitch": 48,
              "velocity": 40,
              "position": 3,
              "duration": 0.3229166666666667
            },
            {
              "pitch": 52,
              "velocity": 52,
              "position": 3,
              "duration": 0.3229166666666667
            },
            {
              "pitch": 43,
              "velocity": 34,
              "position": 3.3333333333333335,
              "duration": 0.3229166666666667
            },
            {
              "pitch": 46,
              "velocity": 34,
              "position": 3.3333333333333335,
              "duration": 0.3229166666666667
            },
            {
              "pitch": 48,
              "velocity": 34,
              "position": 3.3333333333333335,
              "duration": 0.3229166666666667
            },
            {
              "pitch": 52,
              "velocity": 40,
              "position": 3.3333333333333335,
              "duration": 0.3229166666666667
            },
            {
              "pitch": 45,
              "velocity": 87,
              "position": 3.6666666666666665,
              "duration": 0.3229166666666667
            },
            {
              "pitch": 48,
              "velocity": 75,
              "position": 3.6666666666666665,
              "duration": 0.3229166666666667
            },
            {
              "pitch": 53,
              "velocity": 73,
              "position": 3.6666666666666665,
              "duration": 0.3229166666666667
            },
            {
              "pitch": 43,
              "velocity": 63,
              "position": 4,
              "duration": 0.3229166666666667
            },
            {
              "pitch": 46,
              "velocity": 50,
              "position": 4,
              "duration": 0.3229166666666667
            },
            {
              "pitch": 48,
              "velocity": 50,
              "position": 4,
              "duration": 0.3229166666666667
            },
            {
              "pitch": 52,
              "velocity": 47,
              "position": 4,
              "duration": 0.3229166666666667
            },
            {
              "pitch": 43,
              "velocity": 41,
              "position": 4.333333333333333,
              "duration": 0.3229166666666667
            },
            {
              "pitch": 46,
              "velocity": 23,
              "position": 4.333333333333333,
              "duration": 0.3229166666666667
            },
            {
              "pitch": 48,
              "velocity": 23,
              "position": 4.333333333333333,
              "duration": 0.3229166666666667
            },
            {
              "pitch": 52,
              "velocity": 44,
              "position": 4.333333333333333,
              "duration": 0.3229166666666667
            },
            {
              "pitch": 43,
              "velocity": 29,
              "position": 4.666666666666667,
              "duration": 0.3229166666666667
            },
            {
              "pitch": 46,
              "velocity": 25,
              "position": 4.666666666666667,
              "duration": 0.3229166666666667
            },
            {
              "pitch": 48,
              "velocity": 25,
              "position": 4.666666666666667,
              "duration": 0.3229166666666667
            },
            {
              "pitch": 52,
              "velocity": 29,
              "position": 4.666666666666667,
              "duration": 0.3229166666666667
            },
            {
              "pitch": 43,
              "velocity": 45,
              "position": 5,
              "duration": 0.3229166666666667
            },
            {
              "pitch": 46,
              "velocity": 31,
              "position": 5,
              "duration": 0.3229166666666667
            },
            {
              "pitch": 48,
              "velocity": 31,
              "position": 5,
              "duration": 0.3229166666666667
            },
            {
              "pitch": 52,
              "velocity": 49,
              "position": 5,
              "duration": 0.3229166666666667
            },
            {
              "pitch": 43,
              "velocity": 25,
              "position": 5.333333333333333,
              "duration": 0.3229166666666667
            },
            {
              "pitch": 46,
              "velocity": 17,
              "position": 5.333333333333333,
              "duration": 0.3229166666666667
            },
            {
              "pitch": 48,
              "velocity": 17,
              "position": 5.333333333333333,
              "duration": 0.3229166666666667
            },
            {
              "pitch": 52,
              "velocity": 24,
              "position": 5.333333333333333,
              "duration": 0.3229166666666667
            },
            {
              "pitch": 43,
              "velocity": 36,
              "position": 5.666666666666667,
              "duration": 0.3229166666666667
            },
            {
              "pitch": 46,
              "velocity": 38,
              "position": 5.666666666666667,
              "duration": 0.3229166666666667
            },
            {
              "pitch": 48,
              "velocity": 38,
              "position": 5.666666666666667,
              "duration": 0.3229166666666667
            },
            {
              "pitch": 52,
              "velocity": 45,
              "position": 5.666666666666667,
              "duration": 0.3229166666666667
            },
            {
              "pitch": 43,
              "velocity": 34,
              "position": 6,
              "duration": 0.3229166666666667
            },
            {
              "pitch": 46,
              "velocity": 31,
              "position": 6,
              "duration": 0.3229166666666667
            },
            {
              "pitch": 48,
              "velocity": 31,
              "position": 6,
              "duration": 0.3229166666666667
            },
            {
              "pitch": 52,
              "velocity": 25,
              "position": 6,
              "duration": 0.3229166666666667
            },
            {
              "pitch": 43,
              "velocity": 34,
              "position": 6.333333333333333,
              "duration": 0.3229166666666667
            },
            {
              "pitch": 46,
              "velocity": 20,
              "position": 6.333333333333333,
              "duration": 0.3229166666666667
            },
            {
              "pitch": 48,
              "velocity": 20,
              "position": 6.333333333333333,
              "duration": 0.3229166666666667
            },
            {
              "pitch": 52,
              "velocity": 17,
              "position": 6.333333333333333,
              "duration": 0.3229166666666667
            },
            {
              "pitch": 43,
              "velocity": 38,
              "position": 6.666666666666667,
              "duration": 0.3229166666666667
            },
            {
              "pitch": 46,
              "velocity": 25,
              "position": 6.666666666666667,
              "duration": 0.3229166666666667
            },
            {
              "pitch": 48,
              "velocity": 25,
              "position": 6.666666666666667,
              "duration": 0.3229166666666667
            },
            {
              "pitch": 52,
              "velocity": 27,
              "position": 6.666666666666667,
              "duration": 0.3229166666666667
            },
            {
              "pitch": 43,
              "velocity": 50,
              "position": 7,
              "duration": 0.3229166666666667
            },
            {
              "pitch": 46,
              "velocity": 38,
              "position": 7,
              "duration": 0.3229166666666667
            },
            {
              "pitch": 48,
              "velocity": 38,
              "position": 7,
              "duration": 0.3229166666666667
            },
            {
              "pitch": 52,
              "velocity": 29,
              "position": 7,
              "duration": 0.3229166666666667
            },
            {
              "pitch": 45,
              "velocity": 84,
              "position": 7.333333333333333,
              "duration": 0.3229166666666667
            },
            {
              "pitch": 48,
              "velocity": 77,
              "position": 7.333333333333333,
              "duration": 0.3229166666666667
            },
            {
              "pitch": 53,
              "velocity": 59,
              "position": 7.333333333333333,
              "duration": 0.3229166666666667
            },
            {
              "pitch": 43,
              "velocity": 38,
              "position": 7.666666666666667,
              "duration": 0.3229166666666667
            },
            {
              "pitch": 48,
              "velocity": 41,
              "position": 7.666666666666667,
              "duration": 0.3229166666666667
            },
            {
              "pitch": 52,
              "velocity": 31,
              "position": 7.666666666666667,
              "duration": 0.3229166666666667
            }
          ]
        },
        "4": {
          "ctab": {
            "srcChannel": 4,
            "name": "Org S",
            "accType": "PAD",
            "editable": false,
            "mutedNotes": [],
            "mutedChords": [
              "1+2+5",
              "sus4",
              "1+5",
              "1+8",
              "7aug",
              "Maj7aug",
              "7(#9)",
              "7(b13)",
              "7(b9)",
              "7(13)",
              "7#11",
              "7(9)",
              "7b5",
              "7sus4",
              "7th",
              "dim7",
              "dim",
              "minMaj7(9)",
              "minMaj7",
              "min7(11)",
              "min7(9)",
              "min(9)",
              "m7b5",
              "min7",
              "min6",
              "aug",
              "Maj6(9)",
              "Maj7(9)",
              "Maj(9)",
              "Maj7#11",
              "Maj7",
              "Maj6"
            ],
            "autoStart": false,
            "sourceChordNote": 0,
            "sourceChordType": "Maj7",
            "ctb2Low": null,
            "ctb2Main": {
              "ntr": "ROOT_TRANSPOSITION",
              "ntt": "DORIAN_5",
              "bassOn": false,
              "chordRootUpperLimit": 8,
              "noteLowLimit": 54,
              "noteHighLimit": 79,
              "rtr": "PITCH_SHIFT"
            },
            "ctb2High": null
          },
          "notes": [
            {
              "pitch": 94,
              "velocity": 80,
              "position": 0,
              "duration": 7.989583333333333
            },
            {
              "pitch": 96,
              "velocity": 80,
              "position": 0,
              "duration": 7.989583333333333
            },
            {
              "pitch": 100,
              "velocity": 80,
              "position": 0,
              "duration": 7.989583333333333
            },
            {
              "pitch": 103,
              "velocity": 80,
              "position": 0,
              "duration": 7.989583333333333
            }
          ]
        },
        "5": {
          "ctab": {
            "srcChannel": 5,
            "name": "ClGtSMaj",
            "accType": "PHRASE1",
            "editable": false,
            "mutedNotes": [],
            "mutedChords": [
              "1+2+5",
              "sus4",
              "1+5",
              "1+8",
              "7aug",
              "Maj7aug",
              "7(#9)",
              "7(b13)",
              "7(b9)",
              "7(13)",
              "7#11",
              "7(9)",
              "7b5",
              "7sus4",
              "7th",
              "dim7",
              "dim",
              "minMaj7(9)",
              "minMaj7",
              "min7(11)",
              "min7(9)",
              "min(9)",
              "m7b5",
              "min7",
              "min6",
              "min",
              "aug",
              "Maj6(9)",
              "Maj7(9)",
              "Maj(9)",
              "Maj7#11",
              "Maj7",
              "Maj6"
            ],
            "autoStart": false,
            "sourceChordNote": 0,
            "sourceChordType": "Maj7",
            "ctb2Low": null,
            "ctb2Main": {
              "ntr": "ROOT_TRANSPOSITION",
              "ntt": "DORIAN_5",
              "bassOn": false,
              "chordRootUpperLimit": 2,
              "noteLowLimit": 0,
              "noteHighLimit": 127,
              "rtr": "PITCH_SHIFT"
            },
            "ctb2High": null
          },
          "notes": []
        },
        "7": {
          "ctab": {
            "srcChannel": 7,
            "name": "ClGtSmin",
            "accType": "PHRASE1",
            "editable": false,
            "mutedNotes": [],
            "mutedChords": [
              "1+2+5",
              "sus4",
              "1+5",
              "1+8",
              "7aug",
              "Maj7aug",
              "7(#9)",
              "7(b13)",
              "7(b9)",
              "7(13)",
              "7#11",
              "7(9)",
              "7b5",
              "7sus4",
              "7th",
              "dim7",
              "dim",
              "minMaj7(9)",
              "minMaj7",
              "min7(11)",
              "min7(9)",
              "min(9)",
              "m7b5",
              "min7",
              "min6",
              "aug",
              "Maj6(9)",
              "Maj7(9)",
              "Maj(9)",
              "Maj7#11",
              "Maj7",
              "Maj6",
              "Maj"
            ],
            "autoStart": false,
            "sourceChordNote": 0,
            "sourceChordType": "Maj7",
            "ctb2Low": null,
            "ctb2Main": {
              "ntr": "ROOT_TRANSPOSITION",
              "ntt": "DORIAN_5",
              "bassOn": false,
              "chordRootUpperLimit": 2,
              "noteLowLimit": 0,
              "noteHighLimit": 127,
              "rtr": "PITCH_SHIFT"
            },
            "ctb2High": null
          },
          "notes": []
        },
        "8": {
          "ctab": {
            "srcChannel": 8,
            "name": "Perc",
            "accType": "SUBRHYTHM",
            "editable": false,
            "mutedNotes": [],
            "mutedChords": [],
            "autoStart": true,
            "sourceChordNote": 0,
            "sourceChordType": "Maj7",
            "ctb2Low": null,
            "ctb2Main": {
              "ntr": "ROOT_FIXED",
              "ntt": "BYPASS",
              "bassOn": false,
              "chordRootUpperLimit": 6,
              "noteLowLimit": 0,
              "noteHighLimit": 127,
              "rtr": "PITCH_SHIFT"
            },
            "ctb2High": null
          },
          "notes": [
            {
              "pitch": 54,
              "velocity": 70,
              "position": 3,
              "duration": 0.010416666666666666
            },
            {
              "pitch": 54,
              "velocity": 70,
              "position": 7,
              "duration": 0.010416666666666666
            }
          ]
        },
        "9": {
          "ctab": {
            "srcChannel": 9,
            "name": "Drs",
            "accType": "RHYTHM",
            "editable": false,
            "mutedNotes": [],
            "mutedChords": [],
            "autoStart": true,
            "sourceChordNote": 0,
            "sourceChordType": "Maj7",
            "ctb2Low": null,
            "ctb2Main": {
              "ntr": "ROOT_FIXED",
              "ntt": "BYPASS",
              "bassOn": false,
              "chordRootUpperLimit": 6,
              "noteLowLimit": 0,
              "noteHighLimit": 127,
              "rtr": "PITCH_SHIFT"
            },
            "ctb2High": null
          },
          "notes": [
            {
              "pitch": 36,
              "velocity": 90,
              "position": 0,
              "duration": 0.010416666666666666
            },
            {
              "pitch": 42,
              "velocity": 80,
              "position": 0,
              "duration": 0.010416666666666666
            },
            {
              "pitch": 42,
              "velocity": 51,
              "position": 0.3333333333333333,
              "duration": 0.010416666666666666
            },
            {
              "pitch": 42,
              "velocity": 61,
              "position": 0.6666666666666666,
              "duration": 0.010416666666666666
            },
            {
              "pitch": 37,
              "velocity": 96,
              "position": 1,
              "duration": 0.010416666666666666
            },
            {
              "pitch": 42,
              "velocity": 80,
              "position": 1,
              "duration": 0.010416666666666666
            },
            {
              "pitch": 42,
              "velocity": 51,
              "position": 1.3333333333333333,
              "duration": 0.010416666666666666
            },
            {
              "pitch": 36,
              "velocity": 50,
              "position": 1.6666666666666667,
              "duration": 0.010416666666666666
            },
            {
              "pitch": 42,
              "velocity": 61,
              "position": 1.6666666666666667,
              "duration": 0.010416666666666666
            },
            {
              "pitch": 36,
              "velocity": 90,
              "position": 2,
              "duration": 0.010416666666666666
            },
            {
              "pitch": 42,
              "velocity": 80,
              "position": 2,
              "duration": 0.010416666666666666
            },
            {
              "pitch": 42,
              "velocity": 51,
              "position": 2.3333333333333335,
              "duration": 0.010416666666666666
            },
            {
              "pitch": 42,
              "velocity": 61,
              "position": 2.6666666666666665,
              "duration": 0.010416666666666666
            },
            {
              "pitch": 37,
              "velocity": 96,
              "position": 3,
              "duration": 0.010416666666666666
            },
            {
              "pitch": 42,
              "velocity": 80,
              "position": 3,
              "duration": 0.010416666666666666
            },
            {
              "pitch": 42,
              "velocity": 51,
              "position": 3.3333333333333335,
              "duration": 0.010416666666666666
            },
            {
              "pitch": 42,
              "velocity": 61,
              "position": 3.6666666666666665,
              "duration": 0.010416666666666666
            },
            {
              "pitch": 36,
              "velocity": 90,
              "position": 4,
              "duration": 0.010416666666666666
            },
            {
              "pitch": 42,
              "velocity": 80,
              "position": 4,
              "duration": 0.010416666666666666
            },
            {
              "pitch": 42,
              "velocity": 51,
              "position": 4.333333333333333,
              "duration": 0.010416666666666666
            },
            {
              "pitch": 42,
              "velocity": 61,
              "position": 4.666666666666667,
              "duration": 0.010416666666666666
            },
            {
              "pitch": 37,
              "velocity": 96,
              "position": 5,
              "duration": 0.010416666666666666
            },
            {
              "pitch": 42,
              "velocity": 80,
              "position": 5,
              "duration": 0.010416666666666666
            },
            {
              "pitch": 42,
              "velocity": 51,
              "position": 5.333333333333333,
              "duration": 0.010416666666666666
            },
            {
              "pitch": 36,
              "velocity": 50,
              "position": 5.666666666666667,
              "duration": 0.010416666666666666
            },
            {
              "pitch": 42,
              "velocity": 61,
              "position": 5.666666666666667,
              "duration": 0.010416666666666666
            },
            {
              "pitch": 36,
              "velocity": 90,
              "position": 6,
              "duration": 0.010416666666666666
            },
            {
              "pitch": 42,
              "velocity": 80,
              "position": 6,
              "duration": 0.010416666666666666
            },
            {
              "pitch": 42,
              "velocity": 51,
              "position": 6.333333333333333,
              "duration": 0.010416666666666666
            },
            {
              "pitch": 42,
              "velocity": 61,
              "position": 6.666666666666667,
              "duration": 0.010416666666666666
            },
            {
              "pitch": 37,
              "velocity": 96,
              "position": 7,
              "duration": 0.010416666666666666
            },
            {
              "pitch": 42,
              "velocity": 80,
              "position": 7,
              "duration": 0.010416666666666666
            },
            {
              "pitch": 42,
              "velocity": 51,
              "position": 7.333333333333333,
              "duration": 0.010416666666666666
            },
            {
              "pitch": 42,
              "velocity": 61,
              "position": 7.666666666666667,
              "duration": 0.010416666666666666
            }
          ]
        },
        "10": {
          "ctab": {
            "srcChannel": 10,
            "name": "BassMain",
            "accType": "BASS",
            "editable": false,
            "mutedNotes": [],
            "mutedChords": [
              "7aug",
              "dim",
              "minMaj7(9)",
              "minMaj7",
              "min(9)",
              "m7b5",
              "min",
              "aug"
            ],
            "autoStart": false,
            "sourceChordNote": 0,
            "sourceChordType": "Maj7",
            "ctb2Low": null,
            "ctb2Main": {
              "ntr": "ROOT_TRANSPOSITION",
              "ntt": "MELODY",
              "bassOn": true,
              "chordRootUpperLimit": 8,
              "noteLowLimit": 28,
              "noteHighLimit": 127,
              "rtr": "PITCH_SHIFT_TO_ROOT"
            },
            "ctb2High": null
          },
          "notes": [
            {
              "pitch": 24,
              "velocity": 95,
              "position": 0,
              "duration": 1.65625
            },
            {
              "pitch": 24,
              "velocity": 80,
              "position": 1.6666666666666667,
              "duration": 0.3229166666666667
            },
            {
              "pitch": 24,
              "velocity": 95,
              "position": 2,
              "duration": 1.9895833333333333
            },
            {
              "pitch": 24,
              "velocity": 94,
              "position": 4,
              "duration": 1.65625
            },
            {
              "pitch": 24,
              "velocity": 80,
              "position": 5.666666666666667,
              "duration": 0.3229166666666667
            },
            {
              "pitch": 24,
              "velocity": 94,
              "position": 6,
              "duration": 1.9895833333333333
            }
          ]
        },
        "11": {
          "ctab": {
            "srcChannel": 11,
            "name": "60cCln",
            "accType": "CHORD1",
            "editable": false,
            "mutedNotes": [],
            "mutedChords": [
              "min",
              "Maj"
            ],
            "autoStart": false,
            "sourceChordNote": 0,
            "sourceChordType": "Maj7",
            "ctb2Low": null,
            "ctb2Main": {
              "ntr": "ROOT_FIXED",
              "ntt": "CHORD",
              "bassOn": false,
              "chordRootUpperLimit": 7,
              "noteLowLimit": 0,
              "noteHighLimit": 127,
              "rtr": "PITCH_SHIFT"
            },
            "ctb2High": null
          },
          "notes": [
            {
              "pitch": 59,
              "velocity": 100,
              "position": 1,
              "duration": 0.08333333333333333
            },
            {
              "pitch": 64,
              "velocity": 100,
              "position": 1.0104166666666667,
              "duration": 0.08333333333333333
            },
            {
              "pitch": 67,
              "velocity": 100,
              "position": 1.0208333333333333,
              "duration": 0.08333333333333333
            },
            {
              "pitch": 59,
              "velocity": 100,
              "position": 3,
              "duration": 0.08333333333333333
            },
            {
              "pitch": 64,
              "velocity": 100,
              "position": 3.0104166666666665,
              "duration": 0.08333333333333333
            },
            {
              "pitch": 67,
              "velocity": 100,
              "position": 3.0208333333333335,
              "duration": 0.08333333333333333
            },
            {
              "pitch": 59,
              "velocity": 100,
              "position": 5,
              "duration": 0.08333333333333333
            },
            {
              "pitch": 64,
              "velocity": 100,
              "position": 5.010416666666667,
              "duration": 0.08333333333333333
            },
            {
              "pitch": 67,
              "velocity": 100,
              "position": 5.020833333333333,
              "duration": 0.08333333333333333
            },
            {
              "pitch": 59,
              "velocity": 100,
              "position": 7,
              "duration": 0.08333333333333333
            },
            {
              "pitch": 64,
              "velocity": 100,
              "position": 7.010416666666667,
              "duration": 0.08333333333333333
            },
            {
              "pitch": 67,
              "velocity": 100,
              "position": 7.020833333333333,
              "duration": 0.08333333333333333
            }
          ]
        },
        "12": {
          "ctab": {
            "srcChannel": 12,
            "name": "Pno RH",
            "accType": "CHORD2",
            "editable": false,
            "mutedNotes": [],
            "mutedChords": [
              "min",
              "Maj"
            ],
            "autoStart": false,
            "sourceChordNote": 0,
            "sourceChordType": "Maj7",
            "ctb2Low": null,
            "ctb2Main": {
              "ntr": "ROOT_FIXED",
              "ntt": "CHORD",
              "bassOn": false,
              "chordRootUpperLimit": 7,
              "noteLowLimit": 0,
              "noteHighLimit": 127,
              "rtr": "PITCH_SHIFT"
            },
            "ctb2High": null
          },
          "notes": [
            {
              "pitch": 55,
              "velocity": 22,
              "position": 0,
              "duration": 0.3229166666666667
            },
            {
              "pitch": 59,
              "velocity": 22,
              "position": 0,
              "duration": 0.3229166666666667
            },
            {
              "pitch": 64,
              "velocity": 29,
              "position": 0,
              "duration": 0.3229166666666667
            },
            {
              "pitch": 55,
              "velocity": 47,
              "position": 0.3333333333333333,
              "duration": 0.3229166666666667
            },
            {
              "pitch": 59,
              "velocity": 47,
              "position": 0.3333333333333333,
              "duration": 0.3229166666666667
            },
            {
              "pitch": 64,
              "velocity": 44,
              "position": 0.3333333333333333,
              "duration": 0.3229166666666667
            },
            {
              "pitch": 55,
              "velocity": 27,
              "position": 0.6666666666666666,
              "duration": 0.3229166666666667
            },
            {
              "pitch": 59,
              "velocity": 27,
              "position": 0.6666666666666666,
              "duration": 0.3229166666666667
            },
            {
              "pitch": 64,
              "velocity": 34,
              "position": 0.6666666666666666,
              "duration": 0.3229166666666667
            },
            {
              "pitch": 55,
              "velocity": 22,
              "position": 1,
              "duration": 0.3229166666666667
            },
            {
              "pitch": 59,
              "velocity": 22,
              "position": 1,
              "duration": 0.3229166666666667
            },
            {
              "pitch": 64,
              "velocity": 29,
              "position": 1,
              "duration": 0.3229166666666667
            },
            {
              "pitch": 55,
              "velocity": 17,
              "position": 1.3333333333333333,
              "duration": 0.3229166666666667
            },
            {
              "pitch": 59,
              "velocity": 17,
              "position": 1.3333333333333333,
              "duration": 0.3229166666666667
            },
            {
              "pitch": 64,
              "velocity": 31,
              "position": 1.3333333333333333,
              "duration": 0.3229166666666667
            },
            {
              "pitch": 55,
              "velocity": 15,
              "position": 1.6666666666666667,
              "duration": 0.3229166666666667
            },
            {
              "pitch": 59,
              "velocity": 15,
              "position": 1.6666666666666667,
              "duration": 0.3229166666666667
            },
            {
              "pitch": 64,
              "velocity": 43,
              "position": 1.6666666666666667,
              "duration": 0.3229166666666667
            },
            {
              "pitch": 55,
              "velocity": 43,
              "position": 2,
              "duration": 0.3229166666666667
            },
            {
              "pitch": 59,
              "velocity": 43,
              "position": 2,
              "duration": 0.3229166666666667
            },
            {
              "pitch": 64,
              "velocity": 36,
              "position": 2,
              "duration": 0.3229166666666667
            },
            {
              "pitch": 55,
              "velocity": 19,
              "position": 2.3333333333333335,
              "duration": 0.3229166666666667
            },
            {
              "pitch": 59,
              "velocity": 19,
              "position": 2.3333333333333335,
              "duration": 0.3229166666666667
            },
            {
              "pitch": 64,
              "velocity": 29,
              "position": 2.3333333333333335,
              "duration": 0.3229166666666667
            },
            {
              "pitch": 55,
              "velocity": 22,
              "position": 2.6666666666666665,
              "duration": 0.3229166666666667
            },
            {
              "pitch": 59,
              "velocity": 22,
              "position": 2.6666666666666665,
              "duration": 0.3229166666666667
            },
            {
              "pitch": 64,
              "velocity": 41,
              "position": 2.6666666666666665,
              "duration": 0.3229166666666667
            },
            {
              "pitch": 55,
              "velocity": 40,
              "position": 3,
              "duration": 0.3229166666666667
            },
            {
              "pitch": 59,
              "velocity": 40,
              "position": 3,
              "duration": 0.3229166666666667
            },
            {
              "pitch": 64,
              "velocity": 52,
              "position": 3,
              "duration": 0.3229166666666667
            },
            {
              "pitch": 55,
              "velocity": 34,
              "position": 3.3333333333333335,
              "duration": 0.3229166666666667
            },
            {
              "pitch": 59,
              "velocity": 34,
              "position": 3.3333333333333335,
              "duration": 0.3229166666666667
            },
            {
              "pitch": 64,
              "velocity": 40,
              "position": 3.3333333333333335,
              "duration": 0.3229166666666667
            },
            {
              "pitch": 55,
              "velocity": 58,
              "position": 3.6666666666666665,
              "duration": 0.3229166666666667
            },
            {
              "pitch": 59,
              "velocity": 58,
              "position": 3.6666666666666665,
              "duration": 0.3229166666666667
            },
            {
              "pitch": 64,
              "velocity": 56,
              "position": 3.6666666666666665,
              "duration": 0.3229166666666667
            },
            {
              "pitch": 55,
              "velocity": 50,
              "position": 4,
              "duration": 0.3229166666666667
            },
            {
              "pitch": 59,
              "velocity": 50,
              "position": 4,
              "duration": 0.3229166666666667
            },
            {
              "pitch": 64,
              "velocity": 47,
              "position": 4,
              "duration": 0.3229166666666667
            },
            {
              "pitch": 55,
              "velocity": 23,
              "position": 4.333333333333333,
              "duration": 0.3229166666666667
            },
            {
              "pitch": 59,
              "velocity": 23,
              "position": 4.333333333333333,
              "duration": 0.3229166666666667
            },
            {
              "pitch": 64,
              "velocity": 44,
              "position": 4.333333333333333,
              "duration": 0.3229166666666667
            },
            {
              "pitch": 55,
              "velocity": 25,
              "position": 4.666666666666667,
              "duration": 0.3229166666666667
            },
            {
              "pitch": 59,
              "velocity": 25,
              "position": 4.666666666666667,
              "duration": 0.3229166666666667
            },
            {
              "pitch": 64,
              "velocity": 29,
              "position": 4.666666666666667,
              "duration": 0.3229166666666667
            },
            {
              "pitch": 55,
              "velocity": 31,
              "position": 5,
              "duration": 0.3229166666666667
            },
            {
              "pitch": 59,
              "velocity": 31,
              "position": 5,
              "duration": 0.3229166666666667
            },
            {
              "pitch": 64,
              "velocity": 49,
              "position": 5,
              "duration": 0.3229166666666667
            },
            {
              "pitch": 55,
              "velocity": 17,
              "position": 5.333333333333333,
              "duration": 0.3229166666666667
            },
            {
              "pitch": 59,
              "velocity": 17,
              "position": 5.333333333333333,
              "duration": 0.3229166666666667
            },
            {
              "pitch": 64,
              "velocity": 24,
              "position": 5.333333333333333,
              "duration": 0.3229166666666667
            },
            {
              "pitch": 55,
              "velocity": 38,
              "position": 5.666666666666667,
              "duration": 0.3229166666666667
            },
            {
              "pitch": 59,
              "velocity": 38,
              "position": 5.666666666666667,
              "duration": 0.3229166666666667
            },
            {
              "pitch": 64,
              "velocity": 45,
              "position": 5.666666666666667,
              "duration": 0.3229166666666667
            },
            {
              "pitch": 55,
              "velocity": 31,
              "position": 6,
              "duration": 0.3229166666666667
            },
            {
              "pitch": 59,
              "velocity": 31,
              "position": 6,
              "duration": 0.3229166666666667
            },
            {
              "pitch": 64,
              "velocity": 25,
              "position": 6,
              "duration": 0.3229166666666667
            },
            {
              "pitch": 55,
              "velocity": 20,
              "position": 6.333333333333333,
              "duration": 0.3229166666666667
            },
            {
              "pitch": 59,
              "velocity": 20,
              "position": 6.333333333333333,
              "duration": 0.3229166666666667
            },
            {
              "pitch": 64,
              "velocity": 17,
              "position": 6.333333333333333,
              "duration": 0.3229166666666667
            },
            {
              "pitch": 55,
              "velocity": 25,
              "position": 6.666666666666667,
              "duration": 0.3229166666666667
            },
            {
              "pitch": 59,
              "velocity": 25,
              "position": 6.666666666666667,
              "duration": 0.3229166666666667
            },
            {
              "pitch": 64,
              "velocity": 27,
              "position": 6.666666666666667,
              "duration": 0.3229166666666667
            },
            {
              "pitch": 55,
              "velocity": 38,
              "position": 7,
              "duration": 0.3229166666666667
            },
            {
              "pitch": 59,
              "velocity": 38,
              "position": 7,
              "duration": 0.3229166666666667
            },
            {
              "pitch": 64,
              "velocity": 29,
              "position": 7,
              "duration": 0.3229166666666667
            },
            {
              "pitch": 55,
              "velocity": 41,
              "position": 7.333333333333333,
              "duration": 0.3229166666666667
            },
            {
              "pitch": 59,
              "velocity": 41,
              "position": 7.333333333333333,
              "duration": 0.3229166666666667
            },
            {
              "pitch": 64,
              "velocity": 31,
              "position": 7.333333333333333,
              "duration": 0.3229166666666667
            },
            {
              "pitch": 55,
              "velocity": 54,
              "position": 7.666666666666667,
              "duration": 0.3229166666666667
            },
            {
              "pitch": 59,
              "velocity": 54,
              "position": 7.666666666666667,
              "duration": 0.3229166666666667
            },
            {
              "pitch": 64,
              "velocity": 54,
              "position": 7.666666666666667,
              "duration": 0.3229166666666667
            }
          ]
        },
        "13": {
          "ctab": {
            "srcChannel": 13,
            "name": "Org",
            "accType": "PAD",
            "editable": false,
            "mutedNotes": [],
            "mutedChords": [
              "min",
              "Maj"
            ],
            "autoStart": false,
            "sourceChordNote": 0,
            "sourceChordType": "Maj7",
            "ctb2Low": null,
            "ctb2Main": {
              "ntr": "ROOT_FIXED",
              "ntt": "CHORD",
              "bassOn": false,
              "chordRootUpperLimit": 7,
              "noteLowLimit": 0,
              "noteHighLimit": 127,
              "rtr": "PITCH_SHIFT"
            },
            "ctb2High": null
          },
          "notes": [
            {
              "pitch": 71,
              "velocity": 80,
              "position": 0,
              "duration": 7.989583333333333
            },
            {
              "pitch": 76,
              "velocity": 80,
              "position": 0,
              "duration": 7.989583333333333
            },
            {
              "pitch": 79,
              "velocity": 80,
              "position": 0,
              "duration": 7.989583333333333
            }
          ]
        },
        "14": {
          "ctab": {
            "srcChannel": 14,
            "name": "ClGt",
            "accType": "PHRASE1",
            "editable": false,
            "mutedNotes": [],
            "mutedChords": [
              "min",
              "Maj"
            ],
            "autoStart": false,
            "sourceChordNote": 0,
            "sourceChordType": "Maj7",
            "ctb2Low": null,
            "ctb2Main": {
              "ntr": "ROOT_TRANSPOSITION",
              "ntt": "MELODY",
              "bassOn": false,
              "chordRootUpperLimit": 8,
              "noteLowLimit": 53,
              "noteHighLimit": 76,
              "rtr": "PITCH_SHIFT"
            },
            "ctb2High": null
          },
          "notes": []
        }
      }
    },
    "Main_B": {
      "type": "Main_B",
      "sizeInBeats": 8,
      "channels": {
        "0": {
          "ctab": {
            "srcChannel": 0,
            "name": "Pno LH",
            "accType": "CHORD2",
            "editable": false,
            "mutedNotes": [],
            "mutedChords": [],
            "autoStart": false,
            "sourceChordNote": 0,
            "sourceChordType": "Maj7",
            "ctb2Low": null,
            "ctb2Main": {
              "ntr": "ROOT_TRANSPOSITION",
              "ntt": "DORIAN_5",
              "bassOn": true,
              "chordRootUpperLimit": 8,
              "noteLowLimit": 0,
              "noteHighLimit": 127,
              "rtr": "PITCH_SHIFT_TO_ROOT"
            },
            "ctb2High": null
          },
          "notes": []
        },
        "1": {
          "ctab": {
            "srcChannel": 1,
            "name": "BassAlt",
            "accType": "BASS",
            "editable": false,
            "mutedNotes": [],
            "mutedChords": [
              "1+2+5",
              "sus4",
              "1+5",
              "1+8",
              "Maj7aug",
              "7(#9)",
              "7(b13)",
              "7(b9)",
              "7(13)",
              "7#11",
              "7(9)",
              "7b5",
              "7sus4",
              "7th",
              "dim7",
              "min7(11)",
              "min7(9)",
              "min7",
              "min6",
              "Maj6(9)",
              "Maj7(9)",
              "Maj(9)",
              "Maj7#11",
              "Maj7",
              "Maj6",
              "Maj"
            ],
            "autoStart": false,
            "sourceChordNote": 0,
            "sourceChordType": "Maj7",
            "ctb2Low": null,
            "ctb2Main": {
              "ntr": "ROOT_TRANSPOSITION",
              "ntt": "MELODY",
              "bassOn": true,
              "chordRootUpperLimit": 8,
              "noteLowLimit": 28,
              "noteHighLimit": 127,
              "rtr": "PITCH_SHIFT_TO_ROOT"
            },
            "ctb2High": null
          },
          "notes": [
            {
              "pitch": 24,
              "velocity": 100,
              "position": 0,
              "duration": 1.65625
            },
            {
              "pitch": 28,
              "velocity": 80,
              "position": 1.6666666666666667,
              "duration": 0.3229166666666667
            },
            {
              "pitch": 31,
              "velocity": 100,
              "position": 2,
              "duration": 0.9895833333333334
            },
            {
              "pitch": 28,
              "velocity": 100,
              "position": 3,
              "duration": 0.65625
            },
            {
              "pitch": 31,
              "velocity": 80,
              "position": 3.6666666666666665,
              "duration": 0.3229166666666667
            },
            {
              "pitch": 24,
              "velocity": 100,
              "position": 4,
              "duration": 1.65625
            },
            {
              "pitch": 28,
              "velocity": 80,
              "position": 5.666666666666667,
              "duration": 0.3229166666666667
            },
            {
              "pitch": 31,
              "velocity": 100,
              "position": 6,
              "duration": 0.9895833333333334
            },
            {
              "pitch": 28,
              "velocity": 100,
              "position": 7,
              "duration": 0.65625
            },
            {
              "pitch": 31,
              "velocity": 80,
              "position": 7.666666666666667,
              "duration": 0.3229166666666667
            }
          ]
        },
        "2": {
          "ctab": {
            "srcChannel": 2,
            "name": "60cCln S",
            "accType": "CHORD1",
            "editable": false,
            "mutedNotes": [],
            "mutedChords": [
              "1+2+5",
              "sus4",
              "1+5",
              "1+8",
              "7aug",
              "Maj7aug",
              "7(#9)",
              "7(b13)",
              "7(b9)",
              "7(13)",
              "7#11",
              "7(9)",
              "7b5",
              "7sus4",
              "7th",
              "dim7",
              "dim",
              "minMaj7(9)",
              "minMaj7",
              "min7(11)",
              "min7(9)",
              "min(9)",
              "m7b5",
              "min7",
              "min6",
              "aug",
              "Maj6(9)",
              "Maj7(9)",
              "Maj(9)",
              "Maj7#11",
              "Maj7",
              "Maj6"
            ],
            "autoStart": false,
            "sourceChordNote": 0,
            "sourceChordType": "Maj7",
            "ctb2Low": null,
            "ctb2Main": {
              "ntr": "ROOT_TRANSPOSITION",
              "ntt": "DORIAN_5",
              "bassOn": false,
              "chordRootUpperLimit": 4,
              "noteLowLimit": 54,
              "noteHighLimit": 127,
              "rtr": "PITCH_SHIFT"
            },
            "ctb2High": null
          },
          "notes": [
            {
              "pitch": 58,
              "velocity": 100,
              "position": 1,
              "duration": 0.08333333333333333
            },
            {
              "pitch": 64,
              "velocity": 100,
              "position": 1,
              "duration": 0.08333333333333333
            },
            {
              "pitch": 67,
              "velocity": 100,
              "position": 1.0104166666666667,
              "duration": 0.08333333333333333
            },
            {
              "pitch": 72,
              "velocity": 100,
              "position": 1.0208333333333333,
              "duration": 0.08333333333333333
            },
            {
              "pitch": 58,
              "velocity": 40,
              "position": 2.3333333333333335,
              "duration": 0.3229166666666667
            },
            {
              "pitch": 64,
              "velocity": 40,
              "position": 2.3333333333333335,
              "duration": 0.32916666666666666
            },
            {
              "pitch": 67,
              "velocity": 40,
              "position": 2.34375,
              "duration": 0.3229166666666667
            },
            {
              "pitch": 72,
              "velocity": 40,
              "position": 2.3541666666666665,
              "duration": 0.3229166666666667
            },
            {
              "pitch": 58,
              "velocity": 60,
              "position": 2.6666666666666665,
              "duration": 0.3229166666666667
            },
            {
              "pitch": 64,
              "velocity": 60,
              "position": 2.6666666666666665,
              "duration": 0.32916666666666666
            },
            {
              "pitch": 67,
              "velocity": 60,
              "position": 2.6770833333333335,
              "duration": 0.3229166666666667
            },
            {
              "pitch": 72,
              "velocity": 60,
              "position": 2.6875,
              "duration": 0.3229166666666667
            },
            {
              "pitch": 58,
              "velocity": 100,
              "position": 3,
              "duration": 0.08333333333333333
            },
            {
              "pitch": 64,
              "velocity": 100,
              "position": 3,
              "duration": 0.08333333333333333
            },
            {
              "pitch": 67,
              "velocity": 100,
              "position": 3.0104166666666665,
              "duration": 0.08333333333333333
            },
            {
              "pitch": 72,
              "velocity": 100,
              "position": 3.0208333333333335,
              "duration": 0.08333333333333333
            },
            {
              "pitch": 58,
              "velocity": 100,
              "position": 5,
              "duration": 0.08333333333333333
            },
            {
              "pitch": 64,
              "velocity": 100,
              "position": 5,
              "duration": 0.08333333333333333
            },
            {
              "pitch": 67,
              "velocity": 100,
              "position": 5.010416666666667,
              "duration": 0.08333333333333333
            },
            {
              "pitch": 72,
              "velocity": 100,
              "position": 5.020833333333333,
              "duration": 0.08333333333333333
            },
            {
              "pitch": 58,
              "velocity": 40,
              "position": 6.333333333333333,
              "duration": 0.3229166666666667
            },
            {
              "pitch": 64,
              "velocity": 40,
              "position": 6.333333333333333,
              "duration": 0.32916666666666666
            },
            {
              "pitch": 67,
              "velocity": 40,
              "position": 6.34375,
              "duration": 0.3229166666666667
            },
            {
              "pitch": 72,
              "velocity": 40,
              "position": 6.354166666666667,
              "duration": 0.3229166666666667
            },
            {
              "pitch": 58,
              "velocity": 60,
              "position": 6.666666666666667,
              "duration": 0.3229166666666667
            },
            {
              "pitch": 64,
              "velocity": 60,
              "position": 6.666666666666667,
              "duration": 0.32916666666666666
            },
            {
              "pitch": 67,
              "velocity": 60,
              "position": 6.677083333333333,
              "duration": 0.3229166666666667
            },
            {
              "pitch": 72,
              "velocity": 60,
              "position": 6.6875,
              "duration": 0.3229166666666667
            },
            {
              "pitch": 58,
              "velocity": 100,
              "position": 7,
              "duration": 0.08333333333333333
            },
            {
              "pitch": 64,
              "velocity": 100,
              "position": 7,
              "duration": 0.08333333333333333
            },
            {
              "pitch": 67,
              "velocity": 100,
              "position": 7.010416666666667,
              "duration": 0.08333333333333333
            },
            {
              "pitch": 72,
              "velocity": 100,
              "position": 7.020833333333333,
              "duration": 0.08333333333333333
            }
          ]
        },
        "3": {
          "ctab": {
            "srcChannel": 3,
            "name": "PnoRH S",
            "accType": "CHORD2",
            "editable": false,
            "mutedNotes": [],
            "mutedChords": [
              "1+2+5",
              "sus4",
              "1+5",
              "1+8",
              "7aug",
              "Maj7aug",
              "7(#9)",
              "7(b13)",
              "7(b9)",
              "7(13)",
              "7#11",
              "7(9)",
              "7b5",
              "7sus4",
              "7th",
              "dim7",
              "dim",
              "minMaj7(9)",
              "minMaj7",
              "min7(11)",
              "min7(9)",
              "min(9)",
              "m7b5",
              "min7",
              "min6",
              "aug",
              "Maj6(9)",
              "Maj7(9)",
              "Maj(9)",
              "Maj7#11",
              "Maj7",
              "Maj6"
            ],
            "autoStart": false,
            "sourceChordNote": 0,
            "sourceChordType": "Maj7",
            "ctb2Low": null,
            "ctb2Main": {
              "ntr": "ROOT_TRANSPOSITION",
              "ntt": "DORIAN_5",
              "bassOn": false,
              "chordRootUpperLimit": 11,
              "noteLowLimit": 54,
              "noteHighLimit": 79,
              "rtr": "PITCH_SHIFT"
            },
            "ctb2High": null
          },
          "notes": [
            {
              "pitch": 43,
              "velocity": 61,
              "position": 0,
              "duration": 0.3229166666666667
            },
            {
              "pitch": 46,
              "velocity": 38,
              "position": 0,
              "duration": 0.3229166666666667
            },
            {
              "pitch": 48,
              "velocity": 38,
              "position": 0,
              "duration": 0.3229166666666667
            },
            {
              "pitch": 52,
              "velocity": 45,
              "position": 0,
              "duration": 0.3229166666666667
            },
            {
              "pitch": 43,
              "velocity": 51,
              "position": 0.3333333333333333,
              "duration": 0.3229166666666667
            },
            {
              "pitch": 46,
              "velocity": 54,
              "position": 0.3333333333333333,
              "duration": 0.3229166666666667
            },
            {
              "pitch": 48,
              "velocity": 54,
              "position": 0.3333333333333333,
              "duration": 0.3229166666666667
            },
            {
              "pitch": 52,
              "velocity": 44,
              "position": 0.3333333333333333,
              "duration": 0.3229166666666667
            },
            {
              "pitch": 43,
              "velocity": 55,
              "position": 0.6666666666666666,
              "duration": 0.3229166666666667
            },
            {
              "pitch": 46,
              "velocity": 27,
              "position": 0.6666666666666666,
              "duration": 0.3229166666666667
            },
            {
              "pitch": 48,
              "velocity": 27,
              "position": 0.6666666666666666,
              "duration": 0.3229166666666667
            },
            {
              "pitch": 52,
              "velocity": 34,
              "position": 0.6666666666666666,
              "duration": 0.3229166666666667
            },
            {
              "pitch": 43,
              "velocity": 45,
              "position": 1,
              "duration": 0.3229166666666667
            },
            {
              "pitch": 46,
              "velocity": 22,
              "position": 1,
              "duration": 0.3229166666666667
            },
            {
              "pitch": 48,
              "velocity": 22,
              "position": 1,
              "duration": 0.3229166666666667
            },
            {
              "pitch": 52,
              "velocity": 29,
              "position": 1,
              "duration": 0.3229166666666667
            },
            {
              "pitch": 43,
              "velocity": 39,
              "position": 1.3333333333333333,
              "duration": 0.3229166666666667
            },
            {
              "pitch": 46,
              "velocity": 17,
              "position": 1.3333333333333333,
              "duration": 0.3229166666666667
            },
            {
              "pitch": 48,
              "velocity": 17,
              "position": 1.3333333333333333,
              "duration": 0.3229166666666667
            },
            {
              "pitch": 52,
              "velocity": 31,
              "position": 1.3333333333333333,
              "duration": 0.3229166666666667
            },
            {
              "pitch": 43,
              "velocity": 40,
              "position": 1.6666666666666667,
              "duration": 0.3229166666666667
            },
            {
              "pitch": 46,
              "velocity": 15,
              "position": 1.6666666666666667,
              "duration": 0.3229166666666667
            },
            {
              "pitch": 48,
              "velocity": 15,
              "position": 1.6666666666666667,
              "duration": 0.3229166666666667
            },
            {
              "pitch": 52,
              "velocity": 43,
              "position": 1.6666666666666667,
              "duration": 0.3229166666666667
            },
            {
              "pitch": 43,
              "velocity": 49,
              "position": 2,
              "duration": 0.3229166666666667
            },
            {
              "pitch": 46,
              "velocity": 43,
              "position": 2,
              "duration": 0.3229166666666667
            },
            {
              "pitch": 48,
              "velocity": 43,
              "position": 2,
              "duration": 0.3229166666666667
            },
            {
              "pitch": 52,
              "velocity": 36,
              "position": 2,
              "duration": 0.3229166666666667
            },
            {
              "pitch": 43,
              "velocity": 41,
              "position": 2.3333333333333335,
              "duration": 0.3229166666666667
            },
            {
              "pitch": 46,
              "velocity": 19,
              "position": 2.3333333333333335,
              "duration": 0.3229166666666667
            },
            {
              "pitch": 48,
              "velocity": 19,
              "position": 2.3333333333333335,
              "duration": 0.3229166666666667
            },
            {
              "pitch": 52,
              "velocity": 29,
              "position": 2.3333333333333335,
              "duration": 0.3229166666666667
            },
            {
              "pitch": 43,
              "velocity": 19,
              "position": 2.6666666666666665,
              "duration": 0.3229166666666667
            },
            {
              "pitch": 46,
              "velocity": 22,
              "position": 2.6666666666666665,
              "duration": 0.3229166666666667
            },
            {
              "pitch": 48,
              "velocity": 22,
              "position": 2.6666666666666665,
              "duration": 0.3229166666666667
            },
            {
              "pitch": 52,
              "velocity": 41,
              "position": 2.6666666666666665,
              "duration": 0.3229166666666667
            },
            {
              "pitch": 43,
              "velocity": 59,
              "position": 3,
              "duration": 0.3229166666666667
            },
            {
              "pitch": 46,
              "velocity": 40,
              "position": 3,
              "duration": 0.3229166666666667
            },
            {
              "pitch": 48,
              "velocity": 40,
              "position": 3,
              "duration": 0.3229166666666667
            },
            {
              "pitch": 52,
              "velocity": 52,
              "position": 3,
              "duration": 0.3229166666666667
            },
            {
              "pitch": 43,
              "velocity": 34,
              "position": 3.3333333333333335,
              "duration": 0.21458333333333332
            },
            {
              "pitch": 46,
              "velocity": 34,
              "position": 3.3333333333333335,
              "duration": 0.3229166666666667
            },
            {
              "pitch": 48,
              "velocity": 34,
              "position": 3.3333333333333335,
              "duration": 0.3229166666666667
            },
            {
              "pitch": 52,
              "velocity": 40,
              "position": 3.3333333333333335,
              "duration": 0.3229166666666667
            },
            {
              "pitch": 43,
              "velocity": 57,
              "position": 3.5520833333333335,
              "duration": 0.4375
            },
            {
              "pitch": 45,
              "velocity": 87,
              "position": 3.6666666666666665,
              "duration": 0.3229166666666667
            },
            {
              "pitch": 48,
              "velocity": 75,
              "position": 3.6666666666666665,
              "duration": 0.3229166666666667
            },
            {
              "pitch": 53,
              "velocity": 73,
              "position": 3.6666666666666665,
              "duration": 0.3229166666666667
            },
            {
              "pitch": 43,
              "velocity": 63,
              "position": 4,
              "duration": 0.3229166666666667
            },
            {
              "pitch": 46,
              "velocity": 50,
              "position": 4,
              "duration": 0.3229166666666667
            },
            {
              "pitch": 48,
              "velocity": 50,
              "position": 4,
              "duration": 0.3229166666666667
            },
            {
              "pitch": 52,
              "velocity": 47,
              "position": 4,
              "duration": 0.3229166666666667
            },
            {
              "pitch": 43,
              "velocity": 41,
              "position": 4.333333333333333,
              "duration": 0.3229166666666667
            },
            {
              "pitch": 46,
              "velocity": 23,
              "position": 4.333333333333333,
              "duration": 0.3229166666666667
            },
            {
              "pitch": 48,
              "velocity": 23,
              "position": 4.333333333333333,
              "duration": 0.3229166666666667
            },
            {
              "pitch": 52,
              "velocity": 44,
              "position": 4.333333333333333,
              "duration": 0.3229166666666667
            },
            {
              "pitch": 43,
              "velocity": 29,
              "position": 4.666666666666667,
              "duration": 0.3229166666666667
            },
            {
              "pitch": 46,
              "velocity": 25,
              "position": 4.666666666666667,
              "duration": 0.3229166666666667
            },
            {
              "pitch": 48,
              "velocity": 25,
              "position": 4.666666666666667,
              "duration": 0.3229166666666667
            },
            {
              "pitch": 52,
              "velocity": 29,
              "position": 4.666666666666667,
              "duration": 0.3229166666666667
            },
            {
              "pitch": 43,
              "velocity": 45,
              "position": 5,
              "duration": 0.3229166666666667
            },
            {
              "pitch": 46,
              "velocity": 31,
              "position": 5,
              "duration": 0.3229166666666667
            },
            {
              "pitch": 48,
              "velocity": 31,
              "position": 5,
              "duration": 0.3229166666666667
            },
            {
              "pitch": 52,
              "velocity": 49,
              "position": 5,
              "duration": 0.3229166666666667
            },
            {
              "pitch": 43,
              "velocity": 25,
              "position": 5.333333333333333,
              "duration": 0.3229166666666667
            },
            {
              "pitch": 46,
              "velocity": 17,
              "position": 5.333333333333333,
              "duration": 0.3229166666666667
            },
            {
              "pitch": 48,
              "velocity": 17,
              "position": 5.333333333333333,
              "duration": 0.3229166666666667
            },
            {
              "pitch": 52,
              "velocity": 24,
              "position": 5.333333333333333,
              "duration": 0.3229166666666667
            },
            {
              "pitch": 43,
              "velocity": 36,
              "position": 5.666666666666667,
              "duration": 0.3229166666666667
            },
            {
              "pitch": 46,
              "velocity": 38,
              "position": 5.666666666666667,
              "duration": 0.3229166666666667
            },
            {
              "pitch": 48,
              "velocity": 38,
              "position": 5.666666666666667,
              "duration": 0.3229166666666667
            },
            {
              "pitch": 52,
              "velocity": 45,
              "position": 5.666666666666667,
              "duration": 0.3229166666666667
            },
            {
              "pitch": 43,
              "velocity": 34,
              "position": 6,
              "duration": 0.3229166666666667
            },
            {
              "pitch": 46,
              "velocity": 31,
              "position": 6,
              "duration": 0.3229166666666667
            },
            {
              "pitch": 48,
              "velocity": 31,
              "position": 6,
              "duration": 0.3229166666666667
            },
            {
              "pitch": 52,
              "velocity": 25,
              "position": 6,
              "duration": 0.3229166666666667
            },
            {
              "pitch": 43,
              "velocity": 34,
              "position": 6.333333333333333,
              "duration": 0.3229166666666667
            },
            {
              "pitch": 46,
              "velocity": 20,
              "position": 6.333333333333333,
              "duration": 0.3229166666666667
            },
            {
              "pitch": 48,
              "velocity": 20,
              "position": 6.333333333333333,
              "duration": 0.3229166666666667
            },
            {
              "pitch": 52,
              "velocity": 17,
              "position": 6.333333333333333,
              "duration": 0.3229166666666667
            },
            {
              "pitch": 46,
              "velocity": 25,
              "position": 6.666666666666667,
              "duration": 0.3229166666666667
            },
            {
              "pitch": 48,
              "velocity": 25,
              "position": 6.666666666666667,
              "duration": 0.3229166666666667
            },
            {
              "pitch": 52,
              "velocity": 27,
              "position": 6.666666666666667,
              "duration": 0.3229166666666667
            },
            {
              "pitch": 43,
              "velocity": 38,
              "position": 6.666666666666667,
              "duration": 0.5479166666666667
            },
            {
              "pitch": 46,
              "velocity": 38,
              "position": 7,
              "duration": 0.3229166666666667
            },
            {
              "pitch": 48,
              "velocity": 38,
              "position": 7,
              "duration": 0.3229166666666667
            },
            {
              "pitch": 52,
              "velocity": 29,
              "position": 7,
              "duration": 0.3229166666666667
            },
            {
              "pitch": 43,
              "velocity": 53,
              "position": 7.21875,
              "duration": 0.3229166666666667
            },
            {
              "pitch": 45,
              "velocity": 69,
              "position": 7.333333333333333,
              "duration": 0.3229166666666667
            },
            {
              "pitch": 48,
              "velocity": 69,
              "position": 7.333333333333333,
              "duration": 0.3229166666666667
            },
            {
              "pitch": 53,
              "velocity": 59,
              "position": 7.333333333333333,
              "duration": 0.3229166666666667
            },
            {
              "pitch": 43,
              "velocity": 59,
              "position": 7.552083333333333,
              "duration": 0.4375
            },
            {
              "pitch": 48,
              "velocity": 77,
              "position": 7.666666666666667,
              "duration": 0.3229166666666667
            },
            {
              "pitch": 52,
              "velocity": 59,
              "position": 7.666666666666667,
              "duration": 0.3229166666666667
            }
          ]
        },
        "4": {
          "ctab": {
            "srcChannel": 4,
            "name": "Org S",
            "accType": "PAD",
            "editable": false,
            "mutedNotes": [],
            "mutedChords": [
              "1+2+5",
              "sus4",
              "1+5",
              "1+8",
              "7aug",
              "Maj7aug",
              "7(#9)",
              "7(b13)",
              "7(b9)",
              "7(13)",
              "7#11",
              "7(9)",
              "7b5",
              "7sus4",
              "7th",
              "dim7",
              "dim",
              "minMaj7(9)",
              "minMaj7",
              "min7(11)",
              "min7(9)",
              "min(9)",
              "m7b5",
              "min7",
              "min6",
              "aug",
              "Maj6(9)",
              "Maj7(9)",
              "Maj(9)",
              "Maj7#11",
              "Maj7",
              "Maj6"
            ],
            "autoStart": false,
            "sourceChordNote": 0,
            "sourceChordType": "Maj7",
            "ctb2Low": null,
            "ctb2Main": {
              "ntr": "ROOT_TRANSPOSITION",
              "ntt": "DORIAN_5",
              "bassOn": false,
              "chordRootUpperLimit": 8,
              "noteLowLimit": 54,
              "noteHighLimit": 79,
              "rtr": "PITCH_SHIFT"
            },
            "ctb2High": null
          },
          "notes": [
            {
              "pitch": 43,
              "velocity": 100,
              "position": 0,
              "duration": 7.989583333333333
            },
            {
              "pitch": 46,
              "velocity": 100,
              "position": 0,
              "duration": 7.989583333333333
            },
            {
              "pitch": 48,
              "velocity": 100,
              "position": 0,
              "duration": 7.989583333333333
            },
            {
              "pitch": 52,
              "velocity": 100,
              "position": 0,
              "duration": 7.989583333333333
            }
          ]
        },
        "5": {
          "ctab": {
            "srcChannel": 5,
            "name": "ClGtSMaj",
            "accType": "PHRASE1",
            "editable": false,
            "mutedNotes": [],
            "mutedChords": [
              "1+2+5",
              "sus4",
              "1+5",
              "1+8",
              "7aug",
              "Maj7aug",
              "7(#9)",
              "7(b13)",
              "7(b9)",
              "7(13)",
              "7#11",
              "7(9)",
              "7b5",
              "7sus4",
              "7th",
              "dim7",
              "dim",
              "minMaj7(9)",
              "minMaj7",
              "min7(11)",
              "min7(9)",
              "min(9)",
              "m7b5",
              "min7",
              "min6",
              "min",
              "aug",
              "Maj6(9)",
              "Maj7(9)",
              "Maj(9)",
              "Maj7#11",
              "Maj7",
              "Maj6"
            ],
            "autoStart": false,
            "sourceChordNote": 0,
            "sourceChordType": "Maj7",
            "ctb2Low": null,
            "ctb2Main": {
              "ntr": "ROOT_TRANSPOSITION",
              "ntt": "DORIAN_5",
              "bassOn": false,
              "chordRootUpperLimit": 2,
              "noteLowLimit": 0,
              "noteHighLimit": 127,
              "rtr": "PITCH_SHIFT"
            },
            "ctb2High": null
          },
          "notes": [
            {
              "pitch": 64,
              "velocity": 116,
              "position": 0.3333333333333333,
              "duration": 3.6145833333333335
            },
            {
              "pitch": 72,
              "velocity": 22,
              "position": 0.6666666666666666,
              "duration": 3.28125
            },
            {
              "pitch": 62,
              "velocity": 30,
              "position": 4.333333333333333,
              "duration": 0.3229166666666667
            },
            {
              "pitch": 60,
              "velocity": 16,
              "position": 4.666666666666667,
              "duration": 3.28125
            }
          ]
        },
        "7": {
          "ctab": {
            "srcChannel": 7,
            "name": "ClGtSmin",
            "accType": "PHRASE1",
            "editable": false,
            "mutedNotes": [],
            "mutedChords": [
              "1+2+5",
              "sus4",
              "1+5",
              "1+8",
              "7aug",
              "Maj7aug",
              "7(#9)",
              "7(b13)",
              "7(b9)",
              "7(13)",
              "7#11",
              "7(9)",
              "7b5",
              "7sus4",
              "7th",
              "dim7",
              "dim",
              "minMaj7(9)",
              "minMaj7",
              "min7(11)",
              "min7(9)",
              "min(9)",
              "m7b5",
              "min7",
              "min6",
              "aug",
              "Maj6(9)",
              "Maj7(9)",
              "Maj(9)",
              "Maj7#11",
              "Maj7",
              "Maj6",
              "Maj"
            ],
            "autoStart": false,
            "sourceChordNote": 0,
            "sourceChordType": "Maj7",
            "ctb2Low": null,
            "ctb2Main": {
              "ntr": "ROOT_TRANSPOSITION",
              "ntt": "DORIAN_5",
              "bassOn": false,
              "chordRootUpperLimit": 2,
              "noteLowLimit": 0,
              "noteHighLimit": 127,
              "rtr": "PITCH_SHIFT"
            },
            "ctb2High": null
          },
          "notes": [
            {
              "pitch": 64,
              "velocity": 116,
              "position": 0.3333333333333333,
              "duration": 3.6145833333333335
            },
            {
              "pitch": 72,
              "velocity": 22,
              "position": 0.6666666666666666,
              "duration": 3.28125
            },
            {
              "pitch": 62,
              "velocity": 30,
              "position": 4.333333333333333,
              "duration": 0.3229166666666667
            },
            {
              "pitch": 60,
              "velocity": 16,
              "position": 4.666666666666667,
              "duration": 3.28125
            }
          ]
        },
        "8": {
          "ctab": {
            "srcChannel": 8,
            "name": "Perc",
            "accType": "SUBRHYTHM",
            "editable": false,
            "mutedNotes": [],
            "mutedChords": [],
            "autoStart": true,
            "sourceChordNote": 0,
            "sourceChordType": "Maj7",
            "ctb2Low": null,
            "ctb2Main": {
              "ntr": "ROOT_FIXED",
              "ntt": "BYPASS",
              "bassOn": false,
              "chordRootUpperLimit": 6,
              "noteLowLimit": 0,
              "noteHighLimit": 127,
              "rtr": "PITCH_SHIFT"
            },
            "ctb2High": null
          },
          "notes": [
            {
              "pitch": 54,
              "velocity": 70,
              "position": 1,
              "duration": 0.010416666666666666
            },
            {
              "pitch": 54,
              "velocity": 70,
              "position": 3,
              "duration": 0.010416666666666666
            },
            {
              "pitch": 54,
              "velocity": 70,
              "position": 5,
              "duration": 0.010416666666666666
            },
            {
              "pitch": 54,
              "velocity": 70,
              "position": 7,
              "duration": 0.010416666666666666
            }
          ]
        },
        "9": {
          "ctab": {
            "srcChannel": 9,
            "name": "Drs",
            "accType": "RHYTHM",
            "editable": false,
            "mutedNotes": [],
            "mutedChords": [],
            "autoStart": true,
            "sourceChordNote": 0,
            "sourceChordType": "Maj7",
            "ctb2Low": null,
            "ctb2Main": {
              "ntr": "ROOT_FIXED",
              "ntt": "BYPASS",
              "bassOn": false,
              "chordRootUpperLimit": 6,
              "noteLowLimit": 0,
              "noteHighLimit": 127,
              "rtr": "PITCH_SHIFT"
            },
            "ctb2High": null
          },
          "notes": [
            {
              "pitch": 36,
              "velocity": 90,
              "position": 0,
              "duration": 0.010416666666666666
            },
            {
              "pitch": 42,
              "velocity": 80,
              "position": 0,
              "duration": 0.010416666666666666
            },
            {
              "pitch": 42,
              "velocity": 60,
              "position": 0.3333333333333333,
              "duration": 0.010416666666666666
            },
            {
              "pitch": 42,
              "velocity": 70,
              "position": 0.6666666666666666,
              "duration": 0.010416666666666666
            },
            {
              "pitch": 40,
              "velocity": 84,
              "position": 1,
              "duration": 0.010416666666666666
            },
            {
              "pitch": 42,
              "velocity": 80,
              "position": 1,
              "duration": 0.010416666666666666
            },
            {
              "pitch": 42,
              "velocity": 60,
              "position": 1.3333333333333333,
              "duration": 0.010416666666666666
            },
            {
              "pitch": 36,
              "velocity": 50,
              "position": 1.6666666666666667,
              "duration": 0.010416666666666666
            },
            {
              "pitch": 42,
              "velocity": 70,
              "position": 1.6666666666666667,
              "duration": 0.010416666666666666
            },
            {
              "pitch": 42,
              "velocity": 30,
              "position": 1.8854166666666667,
              "duration": 0.010416666666666666
            },
            {
              "pitch": 36,
              "velocity": 90,
              "position": 2,
              "duration": 0.010416666666666666
            },
            {
              "pitch": 42,
              "velocity": 80,
              "position": 2,
              "duration": 0.010416666666666666
            },
            {
              "pitch": 42,
              "velocity": 60,
              "position": 2.3333333333333335,
              "duration": 0.010416666666666666
            },
            {
              "pitch": 42,
              "velocity": 70,
              "position": 2.6666666666666665,
              "duration": 0.010416666666666666
            },
            {
              "pitch": 40,
              "velocity": 84,
              "position": 3,
              "duration": 0.010416666666666666
            },
            {
              "pitch": 42,
              "velocity": 80,
              "position": 3,
              "duration": 0.010416666666666666
            },
            {
              "pitch": 42,
              "velocity": 60,
              "position": 3.3333333333333335,
              "duration": 0.010416666666666666
            },
            {
              "pitch": 42,
              "velocity": 30,
              "position": 3.5520833333333335,
              "duration": 0.010416666666666666
            },
            {
              "pitch": 36,
              "velocity": 50,
              "position": 3.6666666666666665,
              "duration": 0.010416666666666666
            },
            {
              "pitch": 42,
              "velocity": 70,
              "position": 3.6666666666666665,
              "duration": 0.010416666666666666
            },
            {
              "pitch": 36,
              "velocity": 90,
              "position": 4,
              "duration": 0.010416666666666666
            },
            {
              "pitch": 42,
              "velocity": 80,
              "position": 4,
              "duration": 0.010416666666666666
            },
            {
              "pitch": 42,
              "velocity": 60,
              "position": 4.333333333333333,
              "duration": 0.010416666666666666
            },
            {
              "pitch": 42,
              "velocity": 70,
              "position": 4.666666666666667,
              "duration": 0.010416666666666666
            },
            {
              "pitch": 40,
              "velocity": 84,
              "position": 5,
              "duration": 0.010416666666666666
            },
            {
              "pitch": 42,
              "velocity": 80,
              "position": 5,
              "duration": 0.010416666666666666
            },
            {
              "pitch": 42,
              "velocity": 60,
              "position": 5.333333333333333,
              "duration": 0.010416666666666666
            },
            {
              "pitch": 36,
              "velocity": 50,
              "position": 5.666666666666667,
              "duration": 0.010416666666666666
            },
            {
              "pitch": 42,
              "velocity": 70,
              "position": 5.666666666666667,
              "duration": 0.010416666666666666
            },
            {
              "pitch": 42,
              "velocity": 30,
              "position": 5.885416666666667,
              "duration": 0.010416666666666666
            },
            {
              "pitch": 36,
              "velocity": 90,
              "position": 6,
              "duration": 0.010416666666666666
            },
            {
              "pitch": 42,
              "velocity": 80,
              "position": 6,
              "duration": 0.010416666666666666
            },
            {
              "pitch": 42,
              "velocity": 60,
              "position": 6.333333333333333,
              "duration": 0.010416666666666666
            },
            {
              "pitch": 42,
              "velocity": 70,
              "position": 6.666666666666667,
              "duration": 0.010416666666666666
            },
            {
              "pitch": 40,
              "velocity": 84,
              "position": 7,
              "duration": 0.010416666666666666
            },
            {
              "pitch": 42,
              "velocity": 80,
              "position": 7,
              "duration": 0.010416666666666666
            },
            {
              "pitch": 42,
              "velocity": 60,
              "position": 7.333333333333333,
              "duration": 0.010416666666666666
            },
            {
              "pitch": 42,
              "velocity": 30,
              "position": 7.552083333333333,
              "duration": 0.010416666666666666
            },
            {
              "pitch": 36,
              "velocity": 50,
              "position": 7.666666666666667,
              "duration": 0.010416666666666666
            },
            {
              "pitch": 42,
              "velocity": 70,
              "position": 7.666666666666667,
              "duration": 0.010416666666666666
            }
          ]
        },
        "10": {
          "ctab": {
            "srcChannel": 10,
            "name": "BassMain",
            "accType": "BASS",
            "editable": false,
            "mutedNotes": [],
            "mutedChords": [
              "7aug",
              "dim",
              "minMaj7(9)",
              "minMaj7",
              "min(9)",
              "m7b5",
              "min",
              "aug"
            ],
            "autoStart": false,
            "sourceChordNote": 0,
            "sourceChordType": "Maj7",
            "ctb2Low": null,
            "ctb2Main": {
              "ntr": "ROOT_TRANSPOSITION",
              "ntt": "MELODY",
              "bassOn": true,
              "chordRootUpperLimit": 8,
              "noteLowLimit": 28,
              "noteHighLimit": 127,
              "rtr": "PITCH_SHIFT_TO_ROOT"
            },
            "ctb2High": null
          },
          "notes": [
            {
              "pitch": 24,
              "velocity": 100,
              "position": 0,
              "duration": 1.65625
            },
            {
              "pitch": 28,
              "velocity": 80,
              "position": 1.6666666666666667,
              "duration": 0.3229166666666667
            },
            {
              "pitch": 31,
              "velocity": 100,
              "position": 2,
              "duration": 0.9895833333333334
            },
            {
              "pitch": 28,
              "velocity": 100,
              "position": 3,
              "duration": 0.65625
            },
            {
              "pitch": 31,
              "velocity": 80,
              "position": 3.6666666666666665,
              "duration": 0.3229166666666667
            },
            {
              "pitch": 24,
              "velocity": 100,
              "position": 4,
              "duration": 1.65625
            },
            {
              "pitch": 28,
              "velocity": 80,
              "position": 5.666666666666667,
              "duration": 0.3229166666666667
            },
            {
              "pitch": 31,
              "velocity": 100,
              "position": 6,
              "duration": 0.9895833333333334
            },
            {
              "pitch": 28,
              "velocity": 100,
              "position": 7,
              "duration": 0.65625
            },
            {
              "pitch": 31,
              "velocity": 80,
              "position": 7.666666666666667,
              "duration": 0.3229166666666667
            }
          ]
        },
        "11": {
          "ctab": {
            "srcChannel": 11,
            "name": "60cCln",
            "accType": "CHORD1",
            "editable": false,
            "mutedNotes": [],
            "mutedChords": [
              "min",
              "Maj"
            ],
            "autoStart": false,
            "sourceChordNote": 0,
            "sourceChordType": "Maj7",
            "ctb2Low": null,
            "ctb2Main": {
              "ntr": "ROOT_FIXED",
              "ntt": "CHORD",
              "bassOn": false,
              "chordRootUpperLimit": 7,
              "noteLowLimit": 0,
              "noteHighLimit": 127,
              "rtr": "PITCH_SHIFT"
            },
            "ctb2High": null
          },
          "notes": [
            {
              "pitch": 59,
              "velocity": 100,
              "position": 1,
              "duration": 0.08333333333333333
            },
            {
              "pitch": 64,
              "velocity": 100,
              "position": 1,
              "duration": 0.08333333333333333
            },
            {
              "pitch": 67,
              "velocity": 100,
              "position": 1.0104166666666667,
              "duration": 0.08333333333333333
            },
            {
              "pitch": 59,
              "velocity": 40,
              "position": 2.3333333333333335,
              "duration": 0.3229166666666667
            },
            {
              "pitch": 64,
              "velocity": 40,
              "position": 2.3333333333333335,
              "duration": 0.32916666666666666
            },
            {
              "pitch": 67,
              "velocity": 40,
              "position": 2.34375,
              "duration": 0.3229166666666667
            },
            {
              "pitch": 59,
              "velocity": 60,
              "position": 2.6666666666666665,
              "duration": 0.3229166666666667
            },
            {
              "pitch": 64,
              "velocity": 60,
              "position": 2.6666666666666665,
              "duration": 0.32916666666666666
            },
            {
              "pitch": 67,
              "velocity": 60,
              "position": 2.6770833333333335,
              "duration": 0.3229166666666667
            },
            {
              "pitch": 59,
              "velocity": 100,
              "position": 3,
              "duration": 0.08333333333333333
            },
            {
              "pitch": 64,
              "velocity": 100,
              "position": 3,
              "duration": 0.08333333333333333
            },
            {
              "pitch": 67,
              "velocity": 100,
              "position": 3.0104166666666665,
              "duration": 0.08333333333333333
            },
            {
              "pitch": 59,
              "velocity": 100,
              "position": 5,
              "duration": 0.08333333333333333
            },
            {
              "pitch": 64,
              "velocity": 100,
              "position": 5,
              "duration": 0.08333333333333333
            },
            {
              "pitch": 67,
              "velocity": 100,
              "position": 5.010416666666667,
              "duration": 0.08333333333333333
            },
            {
              "pitch": 59,
              "velocity": 40,
              "position": 6.333333333333333,
              "duration": 0.3229166666666667
            },
            {
              "pitch": 64,
              "velocity": 40,
              "position": 6.333333333333333,
              "duration": 0.32916666666666666
            },
            {
              "pitch": 67,
              "velocity": 40,
              "position": 6.34375,
              "duration": 0.3229166666666667
            },
            {
              "pitch": 59,
              "velocity": 60,
              "position": 6.666666666666667,
              "duration": 0.3229166666666667
            },
            {
              "pitch": 64,
              "velocity": 60,
              "position": 6.666666666666667,
              "duration": 0.32916666666666666
            },
            {
              "pitch": 67,
              "velocity": 60,
              "position": 6.677083333333333,
              "duration": 0.3229166666666667
            },
            {
              "pitch": 59,
              "velocity": 100,
              "position": 7,
              "duration": 0.08333333333333333
            },
            {
              "pitch": 64,
              "velocity": 100,
              "position": 7,
              "duration": 0.08333333333333333
            },
            {
              "pitch": 67,
              "velocity": 100,
              "position": 7.010416666666667,
              "duration": 0.08333333333333333
            }
          ]
        },
        "12": {
          "ctab": {
            "srcChannel": 12,
            "name": "Pno RH",
            "accType": "CHORD2",
            "editable": false,
            "mutedNotes": [],
            "mutedChords": [
              "min",
              "Maj"
            ],
            "autoStart": false,
            "sourceChordNote": 0,
            "sourceChordType": "Maj7",
            "ctb2Low": null,
            "ctb2Main": {
              "ntr": "ROOT_FIXED",
              "ntt": "CHORD",
              "bassOn": false,
              "chordRootUpperLimit": 7,
              "noteLowLimit": 0,
              "noteHighLimit": 127,
              "rtr": "PITCH_SHIFT"
            },
            "ctb2High": null
          },
          "notes": [
            {
              "pitch": 55,
              "velocity": 38,
              "position": 0,
              "duration": 0.3229166666666667
            },
            {
              "pitch": 59,
              "velocity": 38,
              "position": 0,
              "duration": 0.3229166666666667
            },
            {
              "pitch": 64,
              "velocity": 45,
              "position": 0,
              "duration": 0.3229166666666667
            },
            {
              "pitch": 55,
              "velocity": 54,
              "position": 0.3333333333333333,
              "duration": 0.3229166666666667
            },
            {
              "pitch": 59,
              "velocity": 54,
              "position": 0.3333333333333333,
              "duration": 0.3229166666666667
            },
            {
              "pitch": 64,
              "velocity": 44,
              "position": 0.3333333333333333,
              "duration": 0.3229166666666667
            },
            {
              "pitch": 55,
              "velocity": 27,
              "position": 0.6666666666666666,
              "duration": 0.3229166666666667
            },
            {
              "pitch": 59,
              "velocity": 27,
              "position": 0.6666666666666666,
              "duration": 0.3229166666666667
            },
            {
              "pitch": 64,
              "velocity": 34,
              "position": 0.6666666666666666,
              "duration": 0.3229166666666667
            },
            {
              "pitch": 55,
              "velocity": 22,
              "position": 1,
              "duration": 0.3229166666666667
            },
            {
              "pitch": 59,
              "velocity": 22,
              "position": 1,
              "duration": 0.3229166666666667
            },
            {
              "pitch": 64,
              "velocity": 29,
              "position": 1,
              "duration": 0.3229166666666667
            },
            {
              "pitch": 55,
              "velocity": 17,
              "position": 1.3333333333333333,
              "duration": 0.3229166666666667
            },
            {
              "pitch": 59,
              "velocity": 17,
              "position": 1.3333333333333333,
              "duration": 0.3229166666666667
            },
            {
              "pitch": 64,
              "velocity": 31,
              "position": 1.3333333333333333,
              "duration": 0.3229166666666667
            },
            {
              "pitch": 55,
              "velocity": 15,
              "position": 1.6666666666666667,
              "duration": 0.3229166666666667
            },
            {
              "pitch": 59,
              "velocity": 15,
              "position": 1.6666666666666667,
              "duration": 0.3229166666666667
            },
            {
              "pitch": 64,
              "velocity": 43,
              "position": 1.6666666666666667,
              "duration": 0.3229166666666667
            },
            {
              "pitch": 55,
              "velocity": 43,
              "position": 2,
              "duration": 0.3229166666666667
            },
            {
              "pitch": 59,
              "velocity": 43,
              "position": 2,
              "duration": 0.3229166666666667
            },
            {
              "pitch": 64,
              "velocity": 36,
              "position": 2,
              "duration": 0.3229166666666667
            },
            {
              "pitch": 55,
              "velocity": 19,
              "position": 2.3333333333333335,
              "duration": 0.3229166666666667
            },
            {
              "pitch": 59,
              "velocity": 19,
              "position": 2.3333333333333335,
              "duration": 0.3229166666666667
            },
            {
              "pitch": 64,
              "velocity": 29,
              "position": 2.3333333333333335,
              "duration": 0.3229166666666667
            },
            {
              "pitch": 55,
              "velocity": 22,
              "position": 2.6666666666666665,
              "duration": 0.3229166666666667
            },
            {
              "pitch": 59,
              "velocity": 22,
              "position": 2.6666666666666665,
              "duration": 0.3229166666666667
            },
            {
              "pitch": 64,
              "velocity": 41,
              "position": 2.6666666666666665,
              "duration": 0.3229166666666667
            },
            {
              "pitch": 55,
              "velocity": 40,
              "position": 3,
              "duration": 0.3229166666666667
            },
            {
              "pitch": 59,
              "velocity": 40,
              "position": 3,
              "duration": 0.3229166666666667
            },
            {
              "pitch": 64,
              "velocity": 52,
              "position": 3,
              "duration": 0.3229166666666667
            },
            {
              "pitch": 55,
              "velocity": 34,
              "position": 3.3333333333333335,
              "duration": 0.3229166666666667
            },
            {
              "pitch": 59,
              "velocity": 34,
              "position": 3.3333333333333335,
              "duration": 0.3229166666666667
            },
            {
              "pitch": 64,
              "velocity": 40,
              "position": 3.3333333333333335,
              "duration": 0.3229166666666667
            },
            {
              "pitch": 55,
              "velocity": 75,
              "position": 3.6666666666666665,
              "duration": 0.3229166666666667
            },
            {
              "pitch": 59,
              "velocity": 75,
              "position": 3.6666666666666665,
              "duration": 0.3229166666666667
            },
            {
              "pitch": 64,
              "velocity": 73,
              "position": 3.6666666666666665,
              "duration": 0.3229166666666667
            },
            {
              "pitch": 55,
              "velocity": 50,
              "position": 4,
              "duration": 0.3229166666666667
            },
            {
              "pitch": 59,
              "velocity": 50,
              "position": 4,
              "duration": 0.3229166666666667
            },
            {
              "pitch": 64,
              "velocity": 47,
              "position": 4,
              "duration": 0.3229166666666667
            },
            {
              "pitch": 55,
              "velocity": 23,
              "position": 4.333333333333333,
              "duration": 0.3229166666666667
            },
            {
              "pitch": 59,
              "velocity": 23,
              "position": 4.333333333333333,
              "duration": 0.3229166666666667
            },
            {
              "pitch": 64,
              "velocity": 44,
              "position": 4.333333333333333,
              "duration": 0.3229166666666667
            },
            {
              "pitch": 55,
              "velocity": 25,
              "position": 4.666666666666667,
              "duration": 0.3229166666666667
            },
            {
              "pitch": 59,
              "velocity": 25,
              "position": 4.666666666666667,
              "duration": 0.3229166666666667
            },
            {
              "pitch": 64,
              "velocity": 29,
              "position": 4.666666666666667,
              "duration": 0.3229166666666667
            },
            {
              "pitch": 55,
              "velocity": 31,
              "position": 5,
              "duration": 0.3229166666666667
            },
            {
              "pitch": 59,
              "velocity": 31,
              "position": 5,
              "duration": 0.3229166666666667
            },
            {
              "pitch": 64,
              "velocity": 49,
              "position": 5,
              "duration": 0.3229166666666667
            },
            {
              "pitch": 55,
              "velocity": 17,
              "position": 5.333333333333333,
              "duration": 0.3229166666666667
            },
            {
              "pitch": 59,
              "velocity": 17,
              "position": 5.333333333333333,
              "duration": 0.3229166666666667
            },
            {
              "pitch": 64,
              "velocity": 24,
              "position": 5.333333333333333,
              "duration": 0.3229166666666667
            },
            {
              "pitch": 55,
              "velocity": 38,
              "position": 5.666666666666667,
              "duration": 0.3229166666666667
            },
            {
              "pitch": 59,
              "velocity": 38,
              "position": 5.666666666666667,
              "duration": 0.3229166666666667
            },
            {
              "pitch": 64,
              "velocity": 45,
              "position": 5.666666666666667,
              "duration": 0.3229166666666667
            },
            {
              "pitch": 55,
              "velocity": 31,
              "position": 6,
              "duration": 0.3229166666666667
            },
            {
              "pitch": 59,
              "velocity": 31,
              "position": 6,
              "duration": 0.3229166666666667
            },
            {
              "pitch": 64,
              "velocity": 25,
              "position": 6,
              "duration": 0.3229166666666667
            },
            {
              "pitch": 55,
              "velocity": 20,
              "position": 6.333333333333333,
              "duration": 0.3229166666666667
            },
            {
              "pitch": 59,
              "velocity": 20,
              "position": 6.333333333333333,
              "duration": 0.3229166666666667
            },
            {
              "pitch": 64,
              "velocity": 17,
              "position": 6.333333333333333,
              "duration": 0.3229166666666667
            },
            {
              "pitch": 55,
              "velocity": 25,
              "position": 6.666666666666667,
              "duration": 0.3229166666666667
            },
            {
              "pitch": 59,
              "velocity": 25,
              "position": 6.666666666666667,
              "duration": 0.3229166666666667
            },
            {
              "pitch": 64,
              "velocity": 27,
              "position": 6.666666666666667,
              "duration": 0.3229166666666667
            },
            {
              "pitch": 55,
              "velocity": 38,
              "position": 7,
              "duration": 0.3229166666666667
            },
            {
              "pitch": 59,
              "velocity": 38,
              "position": 7,
              "duration": 0.3229166666666667
            },
            {
              "pitch": 64,
              "velocity": 29,
              "position": 7,
              "duration": 0.3229166666666667
            },
            {
              "pitch": 55,
              "velocity": 69,
              "position": 7.333333333333333,
              "duration": 0.3229166666666667
            },
            {
              "pitch": 59,
              "velocity": 69,
              "position": 7.333333333333333,
              "duration": 0.3229166666666667
            },
            {
              "pitch": 64,
              "velocity": 59,
              "position": 7.333333333333333,
              "duration": 0.3229166666666667
            },
            {
              "pitch": 55,
              "velocity": 77,
              "position": 7.666666666666667,
              "duration": 0.3229166666666667
            },
            {
              "pitch": 59,
              "velocity": 77,
              "position": 7.666666666666667,
              "duration": 0.3229166666666667
            },
            {
              "pitch": 64,
              "velocity": 59,
              "position": 7.666666666666667,
              "duration": 0.3229166666666667
            }
          ]
        },
        "13": {
          "ctab": {
            "srcChannel": 13,
            "name": "Org",
            "accType": "PAD",
            "editable": false,
            "mutedNotes": [],
            "mutedChords": [
              "min",
              "Maj"
            ],
            "autoStart": false,
            "sourceChordNote": 0,
            "sourceChordType": "Maj7",
            "ctb2Low": null,
            "ctb2Main": {
              "ntr": "ROOT_FIXED",
              "ntt": "CHORD",
              "bassOn": false,
              "chordRootUpperLimit": 7,
              "noteLowLimit": 0,
              "noteHighLimit": 127,
              "rtr": "PITCH_SHIFT"
            },
            "ctb2High": null
          },
          "notes": [
            {
              "pitch": 55,
              "velocity": 100,
              "position": 0,
              "duration": 7.989583333333333
            },
            {
              "pitch": 59,
              "velocity": 100,
              "position": 0,
              "duration": 7.989583333333333
            },
            {
              "pitch": 64,
              "velocity": 100,
              "position": 0,
              "duration": 7.989583333333333
            }
          ]
        },
        "14": {
          "ctab": {
            "srcChannel": 14,
            "name": "ClGt",
            "accType": "PHRASE1",
            "editable": false,
            "mutedNotes": [],
            "mutedChords": [
              "min",
              "Maj"
            ],
            "autoStart": false,
            "sourceChordNote": 0,
            "sourceChordType": "Maj7",
            "ctb2Low": null,
            "ctb2Main": {
              "ntr": "ROOT_TRANSPOSITION",
              "ntt": "MELODY",
              "bassOn": false,
              "chordRootUpperLimit": 8,
              "noteLowLimit": 53,
              "noteHighLimit": 76,
              "rtr": "PITCH_SHIFT"
            },
            "ctb2High": null
          },
          "notes": [
            {
              "pitch": 52,
              "velocity": 116,
              "position": 0.3333333333333333,
              "duration": 3.6145833333333335
            },
            {
              "pitch": 55,
              "velocity": 16,
              "position": 0.6666666666666666,
              "duration": 3.28125
            },
            {
              "pitch": 55,
              "velocity": 116,
              "position": 4.333333333333333,
              "duration": 3.6145833333333335
            },
            {
              "pitch": 52,
              "velocity": 16,
              "position": 4.666666666666667,
              "duration": 3.28125
            }
          ]
        }
      }
    },
    "Fill_In_AA": {
      "type": "Fill_In_AA",
      "sizeInBeats": 4,
      "channels": {
        "0": {
          "ctab": {
            "srcChannel": 0,
            "name": "Pno LH",
            "accType": "CHORD2",
            "editable": false,
            "mutedNotes": [],
            "mutedChords": [],
            "autoStart": false,
            "sourceChordNote": 0,
            "sourceChordType": "Maj7",
            "ctb2Low": null,
            "ctb2Main": {
              "ntr": "ROOT_TRANSPOSITION",
              "ntt": "DORIAN_5",
              "bassOn": true,
              "chordRootUpperLimit": 8,
              "noteLowLimit": 0,
              "noteHighLimit": 127,
              "rtr": "PITCH_SHIFT_TO_ROOT"
            },
            "ctb2High": null
          },
          "notes": [
            {
              "pitch": 36,
              "velocity": 77,
              "position": 3.21875,
              "duration": 0.7708333333333334
            }
          ]
        },
        "1": {
          "ctab": {
            "srcChannel": 1,
            "name": "BassAlt",
            "accType": "BASS",
            "editable": false,
            "mutedNotes": [],
            "mutedChords": [
              "1+2+5",
              "sus4",
              "1+5",
              "1+8",
              "Maj7aug",
              "7(#9)",
              "7(b13)",
              "7(b9)",
              "7(13)",
              "7#11",
              "7(9)",
              "7b5",
              "7sus4",
              "7th",
              "dim7",
              "min7(11)",
              "min7(9)",
              "min7",
              "min6",
              "Maj6(9)",
              "Maj7(9)",
              "Maj(9)",
              "Maj7#11",
              "Maj7",
              "Maj6",
              "Maj"
            ],
            "autoStart": false,
            "sourceChordNote": 0,
            "sourceChordType": "Maj7",
            "ctb2Low": null,
            "ctb2Main": {
              "ntr": "ROOT_TRANSPOSITION",
              "ntt": "MELODY",
              "bassOn": true,
              "chordRootUpperLimit": 8,
              "noteLowLimit": 28,
              "noteHighLimit": 127,
              "rtr": "PITCH_SHIFT_TO_ROOT"
            },
            "ctb2High": null
          },
          "notes": [
            {
              "pitch": 24,
              "velocity": 95,
              "position": 0,
              "duration": 1.65625
            },
            {
              "pitch": 24,
              "velocity": 80,
              "position": 1.6666666666666667,
              "duration": 0.3229166666666667
            },
            {
              "pitch": 24,
              "velocity": 95,
              "position": 2,
              "duration": 0.9895833333333334
            },
            {
              "pitch": 36,
              "velocity": 100,
              "position": 3,
              "duration": 0.3229166666666667
            },
            {
              "pitch": 28,
              "velocity": 80,
              "position": 3.3333333333333335,
              "duration": 0.3229166666666667
            },
            {
              "pitch": 31,
              "velocity": 80,
              "position": 3.6666666666666665,
              "duration": 0.3229166666666667
            }
          ]
        },
        "2": {
          "ctab": {
            "srcChannel": 2,
            "name": "60cCln S",
            "accType": "CHORD1",
            "editable": false,
            "mutedNotes": [],
            "mutedChords": [
              "1+2+5",
              "sus4",
              "1+5",
              "1+8",
              "7aug",
              "Maj7aug",
              "7(#9)",
              "7(b13)",
              "7(b9)",
              "7(13)",
              "7#11",
              "7(9)",
              "7b5",
              "7sus4",
              "7th",
              "dim7",
              "dim",
              "minMaj7(9)",
              "minMaj7",
              "min7(11)",
              "min7(9)",
              "min(9)",
              "m7b5",
              "min7",
              "min6",
              "aug",
              "Maj6(9)",
              "Maj7(9)",
              "Maj(9)",
              "Maj7#11",
              "Maj7",
              "Maj6"
            ],
            "autoStart": false,
            "sourceChordNote": 0,
            "sourceChordType": "Maj7",
            "ctb2Low": null,
            "ctb2Main": {
              "ntr": "ROOT_TRANSPOSITION",
              "ntt": "DORIAN_5",
              "bassOn": false,
              "chordRootUpperLimit": 4,
              "noteLowLimit": 54,
              "noteHighLimit": 127,
              "rtr": "PITCH_SHIFT"
            },
            "ctb2High": null
          },
          "notes": [
            {
              "pitch": 58,
              "velocity": 100,
              "position": 1,
              "duration": 0.08333333333333333
            },
            {
              "pitch": 64,
              "velocity": 100,
              "position": 1,
              "duration": 0.08333333333333333
            },
            {
              "pitch": 67,
              "velocity": 100,
              "position": 1.0104166666666667,
              "duration": 0.08333333333333333
            },
            {
              "pitch": 72,
              "velocity": 100,
              "position": 1.0208333333333333,
              "duration": 0.08333333333333333
            },
            {
              "pitch": 58,
              "velocity": 40,
              "position": 2.3333333333333335,
              "duration": 0.3229166666666667
            },
            {
              "pitch": 64,
              "velocity": 40,
              "position": 2.3333333333333335,
              "duration": 0.32916666666666666
            },
            {
              "pitch": 67,
              "velocity": 40,
              "position": 2.34375,
              "duration": 0.3229166666666667
            },
            {
              "pitch": 72,
              "velocity": 40,
              "position": 2.3541666666666665,
              "duration": 0.3229166666666667
            },
            {
              "pitch": 58,
              "velocity": 60,
              "position": 2.6666666666666665,
              "duration": 0.3229166666666667
            },
            {
              "pitch": 64,
              "velocity": 60,
              "position": 2.6666666666666665,
              "duration": 0.32916666666666666
            },
            {
              "pitch": 67,
              "velocity": 60,
              "position": 2.6770833333333335,
              "duration": 0.3229166666666667
            },
            {
              "pitch": 72,
              "velocity": 60,
              "position": 2.6875,
              "duration": 0.3229166666666667
            },
            {
              "pitch": 58,
              "velocity": 100,
              "position": 3,
              "duration": 0.08333333333333333
            },
            {
              "pitch": 64,
              "velocity": 100,
              "position": 3,
              "duration": 0.08333333333333333
            },
            {
              "pitch": 67,
              "velocity": 100,
              "position": 3.0104166666666665,
              "duration": 0.08333333333333333
            },
            {
              "pitch": 72,
              "velocity": 100,
              "position": 3.0208333333333335,
              "duration": 0.08333333333333333
            }
          ]
        },
        "3": {
          "ctab": {
            "srcChannel": 3,
            "name": "PnoRH S",
            "accType": "CHORD2",
            "editable": false,
            "mutedNotes": [],
            "mutedChords": [
              "1+2+5",
              "sus4",
              "1+5",
              "1+8",
              "7aug",
              "Maj7aug",
              "7(#9)",
              "7(b13)",
              "7(b9)",
              "7(13)",
              "7#11",
              "7(9)",
              "7b5",
              "7sus4",
              "7th",
              "dim7",
              "dim",
              "minMaj7(9)",
              "minMaj7",
              "min7(11)",
              "min7(9)",
              "min(9)",
              "m7b5",
              "min7",
              "min6",
              "aug",
              "Maj6(9)",
              "Maj7(9)",
              "Maj(9)",
              "Maj7#11",
              "Maj7",
              "Maj6"
            ],
            "autoStart": false,
            "sourceChordNote": 0,
            "sourceChordType": "Maj7",
            "ctb2Low": null,
            "ctb2Main": {
              "ntr": "ROOT_TRANSPOSITION",
              "ntt": "DORIAN_5",
              "bassOn": false,
              "chordRootUpperLimit": 11,
              "noteLowLimit": 54,
              "noteHighLimit": 79,
              "rtr": "PITCH_SHIFT"
            },
            "ctb2High": null
          },
          "notes": [
            {
              "pitch": 43,
              "velocity": 63,
              "position": 0,
              "duration": 0.3229166666666667
            },
            {
              "pitch": 46,
              "velocity": 50,
              "position": 0,
              "duration": 0.3229166666666667
            },
            {
              "pitch": 48,
              "velocity": 50,
              "position": 0,
              "duration": 0.3229166666666667
            },
            {
              "pitch": 52,
              "velocity": 47,
              "position": 0,
              "duration": 0.3229166666666667
            },
            {
              "pitch": 43,
              "velocity": 41,
              "position": 0.3333333333333333,
              "duration": 0.3229166666666667
            },
            {
              "pitch": 46,
              "velocity": 23,
              "position": 0.3333333333333333,
              "duration": 0.3229166666666667
            },
            {
              "pitch": 48,
              "velocity": 23,
              "position": 0.3333333333333333,
              "duration": 0.3229166666666667
            },
            {
              "pitch": 52,
              "velocity": 44,
              "position": 0.3333333333333333,
              "duration": 0.3229166666666667
            },
            {
              "pitch": 43,
              "velocity": 29,
              "position": 0.6666666666666666,
              "duration": 0.3229166666666667
            },
            {
              "pitch": 46,
              "velocity": 25,
              "position": 0.6666666666666666,
              "duration": 0.3229166666666667
            },
            {
              "pitch": 48,
              "velocity": 25,
              "position": 0.6666666666666666,
              "duration": 0.3229166666666667
            },
            {
              "pitch": 52,
              "velocity": 29,
              "position": 0.6666666666666666,
              "duration": 0.3229166666666667
            },
            {
              "pitch": 43,
              "velocity": 45,
              "position": 1,
              "duration": 0.3229166666666667
            },
            {
              "pitch": 46,
              "velocity": 31,
              "position": 1,
              "duration": 0.3229166666666667
            },
            {
              "pitch": 48,
              "velocity": 31,
              "position": 1,
              "duration": 0.3229166666666667
            },
            {
              "pitch": 52,
              "velocity": 49,
              "position": 1,
              "duration": 0.3229166666666667
            },
            {
              "pitch": 43,
              "velocity": 25,
              "position": 1.3333333333333333,
              "duration": 0.3229166666666667
            },
            {
              "pitch": 46,
              "velocity": 17,
              "position": 1.3333333333333333,
              "duration": 0.3229166666666667
            },
            {
              "pitch": 48,
              "velocity": 17,
              "position": 1.3333333333333333,
              "duration": 0.3229166666666667
            },
            {
              "pitch": 52,
              "velocity": 24,
              "position": 1.3333333333333333,
              "duration": 0.3229166666666667
            },
            {
              "pitch": 43,
              "velocity": 36,
              "position": 1.6666666666666667,
              "duration": 0.3229166666666667
            },
            {
              "pitch": 46,
              "velocity": 38,
              "position": 1.6666666666666667,
              "duration": 0.3229166666666667
            },
            {
              "pitch": 48,
              "velocity": 38,
              "position": 1.6666666666666667,
              "duration": 0.3229166666666667
            },
            {
              "pitch": 52,
              "velocity": 45,
              "position": 1.6666666666666667,
              "duration": 0.3229166666666667
            },
            {
              "pitch": 66,
              "velocity": 93,
              "position": 2.3333333333333335,
              "duration": 0.03125
            },
            {
              "pitch": 62,
              "velocity": 75,
              "position": 2.3333333333333335,
              "duration": 0.21875
            },
            {
              "pitch": 67,
              "velocity": 75,
              "position": 2.375,
              "duration": 0.17708333333333334
            },
            {
              "pitch": 70,
              "velocity": 72,
              "position": 2.3333333333333335,
              "duration": 0.21875
            },
            {
              "pitch": 60,
              "velocity": 44,
              "position": 2.6666666666666665,
              "duration": 0.21875
            },
            {
              "pitch": 65,
              "velocity": 44,
              "position": 2.6666666666666665,
              "duration": 0.21875
            },
            {
              "pitch": 69,
              "velocity": 46,
              "position": 2.6666666666666665,
              "duration": 0.21875
            },
            {
              "pitch": 58,
              "velocity": 57,
              "position": 3,
              "duration": 0.23958333333333334
            },
            {
              "pitch": 64,
              "velocity": 57,
              "position": 3,
              "duration": 0.23958333333333334
            },
            {
              "pitch": 67,
              "velocity": 48,
              "position": 3,
              "duration": 0.23958333333333334
            },
            {
              "pitch": 43,
              "velocity": 34,
              "position": 2,
              "duration": 1.3229166666666667
            },
            {
              "pitch": 46,
              "velocity": 31,
              "position": 2,
              "duration": 1.3229166666666667
            },
            {
              "pitch": 48,
              "velocity": 31,
              "position": 2,
              "duration": 1.3229166666666667
            },
            {
              "pitch": 52,
              "velocity": 25,
              "position": 2,
              "duration": 1.3229166666666667
            },
            {
              "pitch": 61,
              "velocity": 86,
              "position": 3.3333333333333335,
              "duration": 0.03125
            },
            {
              "pitch": 57,
              "velocity": 77,
              "position": 3.3333333333333335,
              "duration": 0.3229166666666667
            },
            {
              "pitch": 62,
              "velocity": 77,
              "position": 3.375,
              "duration": 0.28125
            },
            {
              "pitch": 65,
              "velocity": 77,
              "position": 3.3333333333333335,
              "duration": 0.3229166666666667
            },
            {
              "pitch": 55,
              "velocity": 64,
              "position": 3.6666666666666665,
              "duration": 0.3229166666666667
            },
            {
              "pitch": 60,
              "velocity": 64,
              "position": 3.6666666666666665,
              "duration": 0.3229166666666667
            },
            {
              "pitch": 64,
              "velocity": 57,
              "position": 3.6666666666666665,
              "duration": 0.3229166666666667
            }
          ]
        },
        "4": {
          "ctab": {
            "srcChannel": 4,
            "name": "Org S",
            "accType": "PAD",
            "editable": false,
            "mutedNotes": [],
            "mutedChords": [
              "1+2+5",
              "sus4",
              "1+5",
              "1+8",
              "7aug",
              "Maj7aug",
              "7(#9)",
              "7(b13)",
              "7(b9)",
              "7(13)",
              "7#11",
              "7(9)",
              "7b5",
              "7sus4",
              "7th",
              "dim7",
              "dim",
              "minMaj7(9)",
              "minMaj7",
              "min7(11)",
              "min7(9)",
              "min(9)",
              "m7b5",
              "min7",
              "min6",
              "aug",
              "Maj6(9)",
              "Maj7(9)",
              "Maj(9)",
              "Maj7#11",
              "Maj7",
              "Maj6"
            ],
            "autoStart": false,
            "sourceChordNote": 0,
            "sourceChordType": "Maj7",
            "ctb2Low": null,
            "ctb2Main": {
              "ntr": "ROOT_TRANSPOSITION",
              "ntt": "DORIAN_5",
              "bassOn": false,
              "chordRootUpperLimit": 8,
              "noteLowLimit": 54,
              "noteHighLimit": 79,
              "rtr": "PITCH_SHIFT"
            },
            "ctb2High": null
          },
          "notes": [
            {
              "pitch": 103,
              "velocity": 80,
              "position": 0,
              "duration": 1.9895833333333333
            },
            {
              "pitch": 91,
              "velocity": 80,
              "position": 2,
              "duration": 0.9895833333333334
            },
            {
              "pitch": 94,
              "velocity": 80,
              "position": 0,
              "duration": 3.9895833333333335
            },
            {
              "pitch": 96,
              "velocity": 80,
              "position": 0,
              "duration": 3.9895833333333335
            },
            {
              "pitch": 100,
              "velocity": 80,
              "position": 0,
              "duration": 3.9895833333333335
            },
            {
              "pitch": 91,
              "velocity": 80,
              "position": 3,
              "duration": 0.9895833333333334
            }
          ]
        },
        "5": {
          "ctab": {
            "srcChannel": 5,
            "name": "ClGtSMaj",
            "accType": "PHRASE1",
            "editable": false,
            "mutedNotes": [],
            "mutedChords": [
              "1+2+5",
              "sus4",
              "1+5",
              "1+8",
              "7aug",
              "Maj7aug",
              "7(#9)",
              "7(b13)",
              "7(b9)",
              "7(13)",
              "7#11",
              "7(9)",
              "7b5",
              "7sus4",
              "7th",
              "dim7",
              "dim",
              "minMaj7(9)",
              "minMaj7",
              "min7(11)",
              "min7(9)",
              "min(9)",
              "m7b5",
              "min7",
              "min6",
              "min",
              "aug",
              "Maj6(9)",
              "Maj7(9)",
              "Maj(9)",
              "Maj7#11",
              "Maj7",
              "Maj6"
            ],
            "autoStart": false,
            "sourceChordNote": 0,
            "sourceChordType": "Maj7",
            "ctb2Low": null,
            "ctb2Main": {
              "ntr": "ROOT_TRANSPOSITION",
              "ntt": "DORIAN_5",
              "bassOn": false,
              "chordRootUpperLimit": 2,
              "noteLowLimit": 0,
              "noteHighLimit": 127,
              "rtr": "PITCH_SHIFT"
            },
            "ctb2High": null
          },
          "notes": []
        },
        "7": {
          "ctab": {
            "srcChannel": 7,
            "name": "ClGtSmin",
            "accType": "PHRASE1",
            "editable": false,
            "mutedNotes": [],
            "mutedChords": [
              "1+2+5",
              "sus4",
              "1+5",
              "1+8",
              "7aug",
              "Maj7aug",
              "7(#9)",
              "7(b13)",
              "7(b9)",
              "7(13)",
              "7#11",
              "7(9)",
              "7b5",
              "7sus4",
              "7th",
              "dim7",
              "dim",
              "minMaj7(9)",
              "minMaj7",
              "min7(11)",
              "min7(9)",
              "min(9)",
              "m7b5",
              "min7",
              "min6",
              "aug",
              "Maj6(9)",
              "Maj7(9)",
              "Maj(9)",
              "Maj7#11",
              "Maj7",
              "Maj6",
              "Maj"
            ],
            "autoStart": false,
            "sourceChordNote": 0,
            "sourceChordType": "Maj7",
            "ctb2Low": null,
            "ctb2Main": {
              "ntr": "ROOT_TRANSPOSITION",
              "ntt": "DORIAN_5",
              "bassOn": false,
              "chordRootUpperLimit": 2,
              "noteLowLimit": 0,
              "noteHighLimit": 127,
              "rtr": "PITCH_SHIFT"
            },
            "ctb2High": null
          },
          "notes": []
        },
        "8": {
          "ctab": {
            "srcChannel": 8,
            "name": "Perc",
            "accType": "SUBRHYTHM",
            "editable": false,
            "mutedNotes": [],
            "mutedChords": [],
            "autoStart": true,
            "sourceChordNote": 0,
            "sourceChordType": "Maj7",
            "ctb2Low": null,
            "ctb2Main": {
              "ntr": "ROOT_FIXED",
              "ntt": "BYPASS",
              "bassOn": false,
              "chordRootUpperLimit": 6,
              "noteLowLimit": 0,
              "noteHighLimit": 127,
              "rtr": "PITCH_SHIFT"
            },
            "ctb2High": null
          },
          "notes": [
            {
              "pitch": 54,
              "velocity": 70,
              "position": 3,
              "duration": 0.010416666666666666
            }
          ]
        },
        "9": {
          "ctab": {
            "srcChannel": 9,
            "name": "Drs",
            "accType": "RHYTHM",
            "editable": false,
            "mutedNotes": [],
            "mutedChords": [],
            "autoStart": true,
            "sourceChordNote": 0,
            "sourceChordType": "Maj7",
            "ctb2Low": null,
            "ctb2Main": {
              "ntr": "ROOT_FIXED",
              "ntt": "BYPASS",
              "bassOn": false,
              "chordRootUpperLimit": 6,
              "noteLowLimit": 0,
              "noteHighLimit": 127,
              "rtr": "PITCH_SHIFT"
            },
            "ctb2High": null
          },
          "notes": [
            {
              "pitch": 36,
              "velocity": 90,
              "position": 0,
              "duration": 0.010416666666666666
            },
            {
              "pitch": 42,
              "velocity": 80,
              "position": 0,
              "duration": 0.010416666666666666
            },
            {
              "pitch": 42,
              "velocity": 60,
              "position": 0.3333333333333333,
              "duration": 0.010416666666666666
            },
            {
              "pitch": 42,
              "velocity": 70,
              "position": 0.6666666666666666,
              "duration": 0.010416666666666666
            },
            {
              "pitch": 37,
              "velocity": 96,
              "position": 1,
              "duration": 0.010416666666666666
            },
            {
              "pitch": 42,
              "velocity": 80,
              "position": 1,
              "duration": 0.010416666666666666
            },
            {
              "pitch": 46,
              "velocity": 30,
              "position": 1.3333333333333333,
              "duration": 0.010416666666666666
            },
            {
              "pitch": 36,
              "velocity": 50,
              "position": 1.6666666666666667,
              "duration": 0.010416666666666666
            },
            {
              "pitch": 46,
              "velocity": 40,
              "position": 1.6666666666666667,
              "duration": 0.010416666666666666
            },
            {
              "pitch": 36,
              "velocity": 90,
              "position": 2,
              "duration": 0.010416666666666666
            },
            {
              "pitch": 46,
              "velocity": 80,
              "position": 2,
              "duration": 0.010416666666666666
            },
            {
              "pitch": 45,
              "velocity": 20,
              "position": 2.3333333333333335,
              "duration": 0.010416666666666666
            },
            {
              "pitch": 45,
              "velocity": 30,
              "position": 2.6666666666666665,
              "duration": 0.010416666666666666
            },
            {
              "pitch": 37,
              "velocity": 96,
              "position": 3,
              "duration": 0.010416666666666666
            },
            {
              "pitch": 42,
              "velocity": 80,
              "position": 3,
              "duration": 0.010416666666666666
            },
            {
              "pitch": 45,
              "velocity": 80,
              "position": 3,
              "duration": 0.010416666666666666
            },
            {
              "pitch": 36,
              "velocity": 50,
              "position": 3.3333333333333335,
              "duration": 0.010416666666666666
            },
            {
              "pitch": 43,
              "velocity": 30,
              "position": 3.3333333333333335,
              "duration": 0.010416666666666666
            },
            {
              "pitch": 36,
              "velocity": 50,
              "position": 3.6666666666666665,
              "duration": 0.010416666666666666
            },
            {
              "pitch": 41,
              "velocity": 60,
              "position": 3.6666666666666665,
              "duration": 0.010416666666666666
            }
          ]
        },
        "10": {
          "ctab": {
            "srcChannel": 10,
            "name": "BassMain",
            "accType": "BASS",
            "editable": false,
            "mutedNotes": [],
            "mutedChords": [
              "7aug",
              "dim",
              "minMaj7(9)",
              "minMaj7",
              "min(9)",
              "m7b5",
              "min",
              "aug"
            ],
            "autoStart": false,
            "sourceChordNote": 0,
            "sourceChordType": "Maj7",
            "ctb2Low": null,
            "ctb2Main": {
              "ntr": "ROOT_TRANSPOSITION",
              "ntt": "MELODY",
              "bassOn": true,
              "chordRootUpperLimit": 8,
              "noteLowLimit": 28,
              "noteHighLimit": 127,
              "rtr": "PITCH_SHIFT_TO_ROOT"
            },
            "ctb2High": null
          },
          "notes": [
            {
              "pitch": 24,
              "velocity": 95,
              "position": 0,
              "duration": 1.65625
            },
            {
              "pitch": 24,
              "velocity": 80,
              "position": 1.6666666666666667,
              "duration": 0.3229166666666667
            },
            {
              "pitch": 24,
              "velocity": 95,
              "position": 2,
              "duration": 0.9895833333333334
            },
            {
              "pitch": 36,
              "velocity": 100,
              "position": 3,
              "duration": 0.3229166666666667
            },
            {
              "pitch": 28,
              "velocity": 80,
              "position": 3.3333333333333335,
              "duration": 0.3229166666666667
            },
            {
              "pitch": 31,
              "velocity": 80,
              "position": 3.6666666666666665,
              "duration": 0.3229166666666667
            }
          ]
        },
        "11": {
          "ctab": {
            "srcChannel": 11,
            "name": "60cCln",
            "accType": "CHORD1",
            "editable": false,
            "mutedNotes": [],
            "mutedChords": [
              "min",
              "Maj"
            ],
            "autoStart": false,
            "sourceChordNote": 0,
            "sourceChordType": "Maj7",
            "ctb2Low": null,
            "ctb2Main": {
              "ntr": "ROOT_FIXED",
              "ntt": "CHORD",
              "bassOn": false,
              "chordRootUpperLimit": 7,
              "noteLowLimit": 0,
              "noteHighLimit": 127,
              "rtr": "PITCH_SHIFT"
            },
            "ctb2High": null
          },
          "notes": [
            {
              "pitch": 59,
              "velocity": 100,
              "position": 1,
              "duration": 0.08333333333333333
            },
            {
              "pitch": 64,
              "velocity": 100,
              "position": 1.0104166666666667,
              "duration": 0.08333333333333333
            },
            {
              "pitch": 67,
              "velocity": 100,
              "position": 1.0208333333333333,
              "duration": 0.08333333333333333
            },
            {
              "pitch": 59,
              "velocity": 40,
              "position": 2.3333333333333335,
              "duration": 0.3229166666666667
            },
            {
              "pitch": 64,
              "velocity": 40,
              "position": 2.3333333333333335,
              "duration": 0.32916666666666666
            },
            {
              "pitch": 67,
              "velocity": 40,
              "position": 2.34375,
              "duration": 0.3229166666666667
            },
            {
              "pitch": 59,
              "velocity": 60,
              "position": 2.6666666666666665,
              "duration": 0.32916666666666666
            },
            {
              "pitch": 64,
              "velocity": 60,
              "position": 2.6666666666666665,
              "duration": 0.3333333333333333
            },
            {
              "pitch": 67,
              "velocity": 60,
              "position": 2.6770833333333335,
              "duration": 0.3333333333333333
            },
            {
              "pitch": 59,
              "velocity": 100,
              "position": 3,
              "duration": 0.08333333333333333
            },
            {
              "pitch": 64,
              "velocity": 100,
              "position": 3.0104166666666665,
              "duration": 0.08333333333333333
            },
            {
              "pitch": 67,
              "velocity": 100,
              "position": 3.0208333333333335,
              "duration": 0.08333333333333333
            }
          ]
        },
        "12": {
          "ctab": {
            "srcChannel": 12,
            "name": "Pno RH",
            "accType": "CHORD2",
            "editable": false,
            "mutedNotes": [],
            "mutedChords": [
              "min",
              "Maj"
            ],
            "autoStart": false,
            "sourceChordNote": 0,
            "sourceChordType": "Maj7",
            "ctb2Low": null,
            "ctb2Main": {
              "ntr": "ROOT_FIXED",
              "ntt": "CHORD",
              "bassOn": false,
              "chordRootUpperLimit": 7,
              "noteLowLimit": 0,
              "noteHighLimit": 127,
              "rtr": "PITCH_SHIFT"
            },
            "ctb2High": null
          },
          "notes": [
            {
              "pitch": 55,
              "velocity": 50,
              "position": 0,
              "duration": 0.3229166666666667
            },
            {
              "pitch": 59,
              "velocity": 50,
              "position": 0,
              "duration": 0.3229166666666667
            },
            {
              "pitch": 64,
              "velocity": 47,
              "position": 0,
              "duration": 0.3229166666666667
            },
            {
              "pitch": 55,
              "velocity": 23,
              "position": 0.3333333333333333,
              "duration": 0.3229166666666667
            },
            {
              "pitch": 59,
              "velocity": 23,
              "position": 0.3333333333333333,
              "duration": 0.3229166666666667
            },
            {
              "pitch": 64,
              "velocity": 44,
              "position": 0.3333333333333333,
              "duration": 0.3229166666666667
            },
            {
              "pitch": 55,
              "velocity": 25,
              "position": 0.6666666666666666,
              "duration": 0.3229166666666667
            },
            {
              "pitch": 59,
              "velocity": 25,
              "position": 0.6666666666666666,
              "duration": 0.3229166666666667
            },
            {
              "pitch": 64,
              "velocity": 29,
              "position": 0.6666666666666666,
              "duration": 0.3229166666666667
            },
            {
              "pitch": 55,
              "velocity": 31,
              "position": 1,
              "duration": 0.3229166666666667
            },
            {
              "pitch": 59,
              "velocity": 31,
              "position": 1,
              "duration": 0.3229166666666667
            },
            {
              "pitch": 64,
              "velocity": 49,
              "position": 1,
              "duration": 0.3229166666666667
            },
            {
              "pitch": 55,
              "velocity": 17,
              "position": 1.3333333333333333,
              "duration": 0.3229166666666667
            },
            {
              "pitch": 59,
              "velocity": 17,
              "position": 1.3333333333333333,
              "duration": 0.3229166666666667
            },
            {
              "pitch": 64,
              "velocity": 24,
              "position": 1.3333333333333333,
              "duration": 0.3229166666666667
            },
            {
              "pitch": 55,
              "velocity": 38,
              "position": 1.6666666666666667,
              "duration": 0.3229166666666667
            },
            {
              "pitch": 59,
              "velocity": 38,
              "position": 1.6666666666666667,
              "duration": 0.3229166666666667
            },
            {
              "pitch": 64,
              "velocity": 45,
              "position": 1.6666666666666667,
              "duration": 0.3229166666666667
            },
            {
              "pitch": 55,
              "velocity": 31,
              "position": 2,
              "duration": 0.3229166666666667
            },
            {
              "pitch": 59,
              "velocity": 31,
              "position": 2,
              "duration": 0.3229166666666667
            },
            {
              "pitch": 64,
              "velocity": 25,
              "position": 2,
              "duration": 0.3229166666666667
            },
            {
              "pitch": 55,
              "velocity": 20,
              "position": 2.3333333333333335,
              "duration": 0.3229166666666667
            },
            {
              "pitch": 59,
              "velocity": 20,
              "position": 2.3333333333333335,
              "duration": 0.3229166666666667
            },
            {
              "pitch": 64,
              "velocity": 17,
              "position": 2.3333333333333335,
              "duration": 0.3229166666666667
            },
            {
              "pitch": 55,
              "velocity": 25,
              "position": 2.6666666666666665,
              "duration": 0.3229166666666667
            },
            {
              "pitch": 59,
              "velocity": 25,
              "position": 2.6666666666666665,
              "duration": 0.3229166666666667
            },
            {
              "pitch": 64,
              "velocity": 27,
              "position": 2.6666666666666665,
              "duration": 0.3229166666666667
            },
            {
              "pitch": 55,
              "velocity": 38,
              "position": 3,
              "duration": 0.3229166666666667
            },
            {
              "pitch": 59,
              "velocity": 38,
              "position": 3,
              "duration": 0.3229166666666667
            },
            {
              "pitch": 64,
              "velocity": 29,
              "position": 3,
              "duration": 0.3229166666666667
            },
            {
              "pitch": 55,
              "velocity": 41,
              "position": 3.3333333333333335,
              "duration": 0.3229166666666667
            },
            {
              "pitch": 59,
              "velocity": 41,
              "position": 3.3333333333333335,
              "duration": 0.3229166666666667
            },
            {
              "pitch": 64,
              "velocity": 31,
              "position": 3.3333333333333335,
              "duration": 0.3229166666666667
            },
            {
              "pitch": 55,
              "velocity": 77,
              "position": 3.6666666666666665,
              "duration": 0.3229166666666667
            },
            {
              "pitch": 59,
              "velocity": 77,
              "position": 3.6666666666666665,
              "duration": 0.3229166666666667
            },
            {
              "pitch": 64,
              "velocity": 59,
              "position": 3.6666666666666665,
              "duration": 0.3229166666666667
            }
          ]
        },
        "13": {
          "ctab": {
            "srcChannel": 13,
            "name": "Org",
            "accType": "PAD",
            "editable": false,
            "mutedNotes": [],
            "mutedChords": [
              "min",
              "Maj"
            ],
            "autoStart": false,
            "sourceChordNote": 0,
            "sourceChordType": "Maj7",
            "ctb2Low": null,
            "ctb2Main": {
              "ntr": "ROOT_FIXED",
              "ntt": "CHORD",
              "bassOn": false,
              "chordRootUpperLimit": 7,
              "noteLowLimit": 0,
              "noteHighLimit": 127,
              "rtr": "PITCH_SHIFT"
            },
            "ctb2High": null
          },
          "notes": [
            {
              "pitch": 79,
              "velocity": 80,
              "position": 0,
              "duration": 1.9895833333333333
            },
            {
              "pitch": 67,
              "velocity": 80,
              "position": 2,
              "duration": 0.9895833333333334
            },
            {
              "pitch": 71,
              "velocity": 80,
              "position": 0,
              "duration": 3.9895833333333335
            },
            {
              "pitch": 76,
              "velocity": 80,
              "position": 0,
              "duration": 3.9895833333333335
            },
            {
              "pitch": 67,
              "velocity": 80,
              "position": 3,
              "duration": 0.9895833333333334
            }
          ]
        },
        "14": {
          "ctab": {
            "srcChannel": 14,
            "name": "ClGt",
            "accType": "PHRASE1",
            "editable": false,
            "mutedNotes": [],
            "mutedChords": [
              "min",
              "Maj"
            ],
            "autoStart": false,
            "sourceChordNote": 0,
            "sourceChordType": "Maj7",
            "ctb2Low": null,
            "ctb2Main": {
              "ntr": "ROOT_TRANSPOSITION",
              "ntt": "MELODY",
              "bassOn": false,
              "chordRootUpperLimit": 8,
              "noteLowLimit": 53,
              "noteHighLimit": 76,
              "rtr": "PITCH_SHIFT"
            },
            "ctb2High": null
          },
          "notes": []
        }
      }
    },
    "Fill_In_BB": {
      "type": "Fill_In_BB",
      "sizeInBeats": 4,
      "channels": {
        "0": {
          "ctab": {
            "srcChannel": 0,
            "name": "Pno LH",
            "accType": "CHORD2",
            "editable": false,
            "mutedNotes": [],
            "mutedChords": [],
            "autoStart": false,
            "sourceChordNote": 0,
            "sourceChordType": "Maj7",
            "ctb2Low": null,
            "ctb2Main": {
              "ntr": "ROOT_TRANSPOSITION",
              "ntt": "DORIAN_5",
              "bassOn": true,
              "chordRootUpperLimit": 8,
              "noteLowLimit": 0,
              "noteHighLimit": 127,
              "rtr": "PITCH_SHIFT_TO_ROOT"
            },
            "ctb2High": null
          },
          "notes": []
        },
        "1": {
          "ctab": {
            "srcChannel": 1,
            "name": "BassAlt",
            "accType": "BASS",
            "editable": false,
            "mutedNotes": [],
            "mutedChords": [
              "1+2+5",
              "sus4",
              "1+5",
              "1+8",
              "Maj7aug",
              "7(#9)",
              "7(b13)",
              "7(b9)",
              "7(13)",
              "7#11",
              "7(9)",
              "7b5",
              "7sus4",
              "7th",
              "dim7",
              "min7(11)",
              "min7(9)",
              "min7",
              "min6",
              "Maj6(9)",
              "Maj7(9)",
              "Maj(9)",
              "Maj7#11",
              "Maj7",
              "Maj6",
              "Maj"
            ],
            "autoStart": false,
            "sourceChordNote": 0,
            "sourceChordType": "Maj7",
            "ctb2Low": null,
            "ctb2Main": {
              "ntr": "ROOT_TRANSPOSITION",
              "ntt": "MELODY",
              "bassOn": true,
              "chordRootUpperLimit": 8,
              "noteLowLimit": 28,
              "noteHighLimit": 127,
              "rtr": "PITCH_SHIFT_TO_ROOT"
            },
            "ctb2High": null
          },
          "notes": [
            {
              "pitch": 24,
              "velocity": 100,
              "position": 0,
              "duration": 1.65625
            },
            {
              "pitch": 28,
              "velocity": 80,
              "position": 1.6666666666666667,
              "duration": 0.3229166666666667
            },
            {
              "pitch": 31,
              "velocity": 100,
              "position": 2,
              "duration": 0.65625
            },
            {
              "pitch": 31,
              "velocity": 80,
              "position": 2.6666666666666665,
              "duration": 0.3229166666666667
            },
            {
              "pitch": 36,
              "velocity": 100,
              "position": 3,
              "duration": 0.3229166666666667
            },
            {
              "pitch": 31,
              "velocity": 80,
              "position": 3.3333333333333335,
              "duration": 0.3229166666666667
            },
            {
              "pitch": 28,
              "velocity": 80,
              "position": 3.6666666666666665,
              "duration": 0.3229166666666667
            }
          ]
        },
        "2": {
          "ctab": {
            "srcChannel": 2,
            "name": "60cCln S",
            "accType": "CHORD1",
            "editable": false,
            "mutedNotes": [],
            "mutedChords": [
              "1+2+5",
              "sus4",
              "1+5",
              "1+8",
              "7aug",
              "Maj7aug",
              "7(#9)",
              "7(b13)",
              "7(b9)",
              "7(13)",
              "7#11",
              "7(9)",
              "7b5",
              "7sus4",
              "7th",
              "dim7",
              "dim",
              "minMaj7(9)",
              "minMaj7",
              "min7(11)",
              "min7(9)",
              "min(9)",
              "m7b5",
              "min7",
              "min6",
              "aug",
              "Maj6(9)",
              "Maj7(9)",
              "Maj(9)",
              "Maj7#11",
              "Maj7",
              "Maj6"
            ],
            "autoStart": false,
            "sourceChordNote": 0,
            "sourceChordType": "Maj7",
            "ctb2Low": null,
            "ctb2Main": {
              "ntr": "ROOT_TRANSPOSITION",
              "ntt": "DORIAN_5",
              "bassOn": false,
              "chordRootUpperLimit": 4,
              "noteLowLimit": 54,
              "noteHighLimit": 127,
              "rtr": "PITCH_SHIFT"
            },
            "ctb2High": null
          },
          "notes": [
            {
              "pitch": 58,
              "velocity": 100,
              "position": 1,
              "duration": 0.08333333333333333
            },
            {
              "pitch": 64,
              "velocity": 100,
              "position": 1,
              "duration": 0.08333333333333333
            },
            {
              "pitch": 67,
              "velocity": 100,
              "position": 1.0104166666666667,
              "duration": 0.08333333333333333
            },
            {
              "pitch": 72,
              "velocity": 100,
              "position": 1.0208333333333333,
              "duration": 0.08333333333333333
            },
            {
              "pitch": 58,
              "velocity": 40,
              "position": 2.3333333333333335,
              "duration": 0.3229166666666667
            },
            {
              "pitch": 64,
              "velocity": 40,
              "position": 2.3333333333333335,
              "duration": 0.32916666666666666
            },
            {
              "pitch": 67,
              "velocity": 40,
              "position": 2.34375,
              "duration": 0.3229166666666667
            },
            {
              "pitch": 72,
              "velocity": 40,
              "position": 2.3541666666666665,
              "duration": 0.3229166666666667
            },
            {
              "pitch": 58,
              "velocity": 60,
              "position": 2.6666666666666665,
              "duration": 0.3229166666666667
            },
            {
              "pitch": 64,
              "velocity": 60,
              "position": 2.6666666666666665,
              "duration": 0.32916666666666666
            },
            {
              "pitch": 67,
              "velocity": 60,
              "position": 2.6770833333333335,
              "duration": 0.3229166666666667
            },
            {
              "pitch": 72,
              "velocity": 60,
              "position": 2.6875,
              "duration": 0.3229166666666667
            },
            {
              "pitch": 58,
              "velocity": 100,
              "position": 3,
              "duration": 0.9583333333333334
            },
            {
              "pitch": 64,
              "velocity": 100,
              "position": 3,
              "duration": 0.9583333333333334
            },
            {
              "pitch": 67,
              "velocity": 100,
              "position": 3.0104166666666665,
              "duration": 0.9583333333333334
            },
            {
              "pitch": 72,
              "velocity": 100,
              "position": 3.0208333333333335,
              "duration": 0.9583333333333334
            }
          ]
        },
        "3": {
          "ctab": {
            "srcChannel": 3,
            "name": "PnoRH S",
            "accType": "CHORD2",
            "editable": false,
            "mutedNotes": [],
            "mutedChords": [
              "1+2+5",
              "sus4",
              "1+5",
              "1+8",
              "7aug",
              "Maj7aug",
              "7(#9)",
              "7(b13)",
              "7(b9)",
              "7(13)",
              "7#11",
              "7(9)",
              "7b5",
              "7sus4",
              "7th",
              "dim7",
              "dim",
              "minMaj7(9)",
              "minMaj7",
              "min7(11)",
              "min7(9)",
              "min(9)",
              "m7b5",
              "min7",
              "min6",
              "aug",
              "Maj6(9)",
              "Maj7(9)",
              "Maj(9)",
              "Maj7#11",
              "Maj7",
              "Maj6"
            ],
            "autoStart": false,
            "sourceChordNote": 0,
            "sourceChordType": "Maj7",
            "ctb2Low": null,
            "ctb2Main": {
              "ntr": "ROOT_TRANSPOSITION",
              "ntt": "DORIAN_5",
              "bassOn": false,
              "chordRootUpperLimit": 11,
              "noteLowLimit": 54,
              "noteHighLimit": 79,
              "rtr": "PITCH_SHIFT"
            },
            "ctb2High": null
          },
          "notes": [
            {
              "pitch": 43,
              "velocity": 63,
              "position": 0,
              "duration": 0.3229166666666667
            },
            {
              "pitch": 46,
              "velocity": 50,
              "position": 0,
              "duration": 0.3229166666666667
            },
            {
              "pitch": 48,
              "velocity": 50,
              "position": 0,
              "duration": 0.3229166666666667
            },
            {
              "pitch": 52,
              "velocity": 47,
              "position": 0,
              "duration": 0.3229166666666667
            },
            {
              "pitch": 43,
              "velocity": 41,
              "position": 0.3333333333333333,
              "duration": 0.3229166666666667
            },
            {
              "pitch": 46,
              "velocity": 23,
              "position": 0.3333333333333333,
              "duration": 0.3229166666666667
            },
            {
              "pitch": 48,
              "velocity": 23,
              "position": 0.3333333333333333,
              "duration": 0.3229166666666667
            },
            {
              "pitch": 52,
              "velocity": 44,
              "position": 0.3333333333333333,
              "duration": 0.3229166666666667
            },
            {
              "pitch": 43,
              "velocity": 29,
              "position": 0.6666666666666666,
              "duration": 0.3229166666666667
            },
            {
              "pitch": 46,
              "velocity": 25,
              "position": 0.6666666666666666,
              "duration": 0.3229166666666667
            },
            {
              "pitch": 48,
              "velocity": 25,
              "position": 0.6666666666666666,
              "duration": 0.3229166666666667
            },
            {
              "pitch": 52,
              "velocity": 29,
              "position": 0.6666666666666666,
              "duration": 0.3229166666666667
            },
            {
              "pitch": 43,
              "velocity": 45,
              "position": 1,
              "duration": 0.3229166666666667
            },
            {
              "pitch": 46,
              "velocity": 31,
              "position": 1,
              "duration": 0.3229166666666667
            },
            {
              "pitch": 48,
              "velocity": 31,
              "position": 1,
              "duration": 0.3229166666666667
            },
            {
              "pitch": 52,
              "velocity": 49,
              "position": 1,
              "duration": 0.3229166666666667
            },
            {
              "pitch": 43,
              "velocity": 25,
              "position": 1.3333333333333333,
              "duration": 0.3229166666666667
            },
            {
              "pitch": 46,
              "velocity": 17,
              "position": 1.3333333333333333,
              "duration": 0.3229166666666667
            },
            {
              "pitch": 48,
              "velocity": 17,
              "position": 1.3333333333333333,
              "duration": 0.3229166666666667
            },
            {
              "pitch": 52,
              "velocity": 24,
              "position": 1.3333333333333333,
              "duration": 0.3229166666666667
            },
            {
              "pitch": 43,
              "velocity": 36,
              "position": 1.6666666666666667,
              "duration": 0.3229166666666667
            },
            {
              "pitch": 46,
              "velocity": 38,
              "position": 1.6666666666666667,
              "duration": 0.3229166666666667
            },
            {
              "pitch": 48,
              "velocity": 38,
              "position": 1.6666666666666667,
              "duration": 0.3229166666666667
            },
            {
              "pitch": 52,
              "velocity": 45,
              "position": 1.6666666666666667,
              "duration": 0.3229166666666667
            },
            {
              "pitch": 43,
              "velocity": 34,
              "position": 2,
              "duration": 0.3229166666666667
            },
            {
              "pitch": 46,
              "velocity": 31,
              "position": 2,
              "duration": 0.3229166666666667
            },
            {
              "pitch": 48,
              "velocity": 31,
              "position": 2,
              "duration": 0.3229166666666667
            },
            {
              "pitch": 52,
              "velocity": 25,
              "position": 2,
              "duration": 0.3229166666666667
            },
            {
              "pitch": 78,
              "velocity": 93,
              "position": 2.3333333333333335,
              "duration": 0.03125
            },
            {
              "pitch": 43,
              "velocity": 34,
              "position": 2.3333333333333335,
              "duration": 0.3229166666666667
            },
            {
              "pitch": 46,
              "velocity": 20,
              "position": 2.3333333333333335,
              "duration": 0.3229166666666667
            },
            {
              "pitch": 48,
              "velocity": 20,
              "position": 2.3333333333333335,
              "duration": 0.3229166666666667
            },
            {
              "pitch": 52,
              "velocity": 17,
              "position": 2.3333333333333335,
              "duration": 0.3229166666666667
            },
            {
              "pitch": 79,
              "velocity": 74,
              "position": 2.375,
              "duration": 0.5729166666666666
            },
            {
              "pitch": 84,
              "velocity": 74,
              "position": 2.3333333333333335,
              "duration": 0.6145833333333334
            },
            {
              "pitch": 46,
              "velocity": 25,
              "position": 2.6666666666666665,
              "duration": 0.3229166666666667
            },
            {
              "pitch": 48,
              "velocity": 25,
              "position": 2.6666666666666665,
              "duration": 0.3229166666666667
            },
            {
              "pitch": 52,
              "velocity": 27,
              "position": 2.6666666666666665,
              "duration": 0.3229166666666667
            },
            {
              "pitch": 78,
              "velocity": 98,
              "position": 3,
              "duration": 0.03125
            },
            {
              "pitch": 43,
              "velocity": 38,
              "position": 2.6666666666666665,
              "duration": 0.5479166666666667
            },
            {
              "pitch": 46,
              "velocity": 38,
              "position": 3,
              "duration": 0.3229166666666667
            },
            {
              "pitch": 48,
              "velocity": 38,
              "position": 3,
              "duration": 0.3229166666666667
            },
            {
              "pitch": 52,
              "velocity": 29,
              "position": 3,
              "duration": 0.3229166666666667
            },
            {
              "pitch": 77,
              "velocity": 79,
              "position": 3.0416666666666665,
              "duration": 0.28125
            },
            {
              "pitch": 84,
              "velocity": 79,
              "position": 3,
              "duration": 0.3229166666666667
            },
            {
              "pitch": 75,
              "velocity": 79,
              "position": 3.3333333333333335,
              "duration": 0.19791666666666666
            },
            {
              "pitch": 43,
              "velocity": 53,
              "position": 3.21875,
              "duration": 0.3229166666666667
            },
            {
              "pitch": 45,
              "velocity": 69,
              "position": 3.3333333333333335,
              "duration": 0.3229166666666667
            },
            {
              "pitch": 48,
              "velocity": 69,
              "position": 3.3333333333333335,
              "duration": 0.3229166666666667
            },
            {
              "pitch": 53,
              "velocity": 59,
              "position": 3.3333333333333335,
              "duration": 0.3229166666666667
            },
            {
              "pitch": 43,
              "velocity": 59,
              "position": 3.5520833333333335,
              "duration": 0.4375
            },
            {
              "pitch": 48,
              "velocity": 77,
              "position": 3.6666666666666665,
              "duration": 0.3229166666666667
            },
            {
              "pitch": 52,
              "velocity": 59,
              "position": 3.6666666666666665,
              "duration": 0.3229166666666667
            },
            {
              "pitch": 72,
              "velocity": 92,
              "position": 3.6666666666666665,
              "duration": 0.3229166666666667
            }
          ]
        },
        "4": {
          "ctab": {
            "srcChannel": 4,
            "name": "Org S",
            "accType": "PAD",
            "editable": false,
            "mutedNotes": [],
            "mutedChords": [
              "1+2+5",
              "sus4",
              "1+5",
              "1+8",
              "7aug",
              "Maj7aug",
              "7(#9)",
              "7(b13)",
              "7(b9)",
              "7(13)",
              "7#11",
              "7(9)",
              "7b5",
              "7sus4",
              "7th",
              "dim7",
              "dim",
              "minMaj7(9)",
              "minMaj7",
              "min7(11)",
              "min7(9)",
              "min(9)",
              "m7b5",
              "min7",
              "min6",
              "aug",
              "Maj6(9)",
              "Maj7(9)",
              "Maj(9)",
              "Maj7#11",
              "Maj7",
              "Maj6"
            ],
            "autoStart": false,
            "sourceChordNote": 0,
            "sourceChordType": "Maj7",
            "ctb2Low": null,
            "ctb2Main": {
              "ntr": "ROOT_TRANSPOSITION",
              "ntt": "DORIAN_5",
              "bassOn": false,
              "chordRootUpperLimit": 8,
              "noteLowLimit": 54,
              "noteHighLimit": 79,
              "rtr": "PITCH_SHIFT"
            },
            "ctb2High": null
          },
          "notes": [
            {
              "pitch": 43,
              "velocity": 100,
              "position": 0,
              "duration": 1.9895833333333333
            },
            {
              "pitch": 55,
              "velocity": 100,
              "position": 2,
              "duration": 0.9895833333333334
            },
            {
              "pitch": 55,
              "velocity": 100,
              "position": 3,
              "duration": 0.9895833333333334
            },
            {
              "pitch": 46,
              "velocity": 100,
              "position": 0,
              "duration": 3.9895833333333335
            },
            {
              "pitch": 48,
              "velocity": 100,
              "position": 0,
              "duration": 3.9895833333333335
            },
            {
              "pitch": 52,
              "velocity": 100,
              "position": 0,
              "duration": 3.9895833333333335
            }
          ]
        },
        "5": {
          "ctab": {
            "srcChannel": 5,
            "name": "ClGtSMaj",
            "accType": "PHRASE1",
            "editable": false,
            "mutedNotes": [],
            "mutedChords": [
              "1+2+5",
              "sus4",
              "1+5",
              "1+8",
              "7aug",
              "Maj7aug",
              "7(#9)",
              "7(b13)",
              "7(b9)",
              "7(13)",
              "7#11",
              "7(9)",
              "7b5",
              "7sus4",
              "7th",
              "dim7",
              "dim",
              "minMaj7(9)",
              "minMaj7",
              "min7(11)",
              "min7(9)",
              "min(9)",
              "m7b5",
              "min7",
              "min6",
              "min",
              "aug",
              "Maj6(9)",
              "Maj7(9)",
              "Maj(9)",
              "Maj7#11",
              "Maj7",
              "Maj6"
            ],
            "autoStart": false,
            "sourceChordNote": 0,
            "sourceChordType": "Maj7",
            "ctb2Low": null,
            "ctb2Main": {
              "ntr": "ROOT_TRANSPOSITION",
              "ntt": "DORIAN_5",
              "bassOn": false,
              "chordRootUpperLimit": 2,
              "noteLowLimit": 0,
              "noteHighLimit": 127,
              "rtr": "PITCH_SHIFT"
            },
            "ctb2High": null
          },
          "notes": [
            {
              "pitch": 57,
              "velocity": 116,
              "position": 0.3333333333333333,
              "duration": 0.3229166666666667
            },
            {
              "pitch": 60,
              "velocity": 17,
              "position": 0.6666666666666666,
              "duration": 0.15625
            },
            {
              "pitch": 62,
              "velocity": 36,
              "position": 1,
              "duration": 0.3229166666666667
            },
            {
              "pitch": 57,
              "velocity": 2,
              "position": 1.3333333333333333,
              "duration": 0.3229166666666667
            },
            {
              "pitch": 60,
              "velocity": 26,
              "position": 1.6666666666666667,
              "duration": 2.28125
            }
          ]
        },
        "7": {
          "ctab": {
            "srcChannel": 7,
            "name": "ClGtSmin",
            "accType": "PHRASE1",
            "editable": false,
            "mutedNotes": [],
            "mutedChords": [
              "1+2+5",
              "sus4",
              "1+5",
              "1+8",
              "7aug",
              "Maj7aug",
              "7(#9)",
              "7(b13)",
              "7(b9)",
              "7(13)",
              "7#11",
              "7(9)",
              "7b5",
              "7sus4",
              "7th",
              "dim7",
              "dim",
              "minMaj7(9)",
              "minMaj7",
              "min7(11)",
              "min7(9)",
              "min(9)",
              "m7b5",
              "min7",
              "min6",
              "aug",
              "Maj6(9)",
              "Maj7(9)",
              "Maj(9)",
              "Maj7#11",
              "Maj7",
              "Maj6",
              "Maj"
            ],
            "autoStart": false,
            "sourceChordNote": 0,
            "sourceChordType": "Maj7",
            "ctb2Low": null,
            "ctb2Main": {
              "ntr": "ROOT_TRANSPOSITION",
              "ntt": "DORIAN_5",
              "bassOn": false,
              "chordRootUpperLimit": 2,
              "noteLowLimit": 0,
              "noteHighLimit": 127,
              "rtr": "PITCH_SHIFT"
            },
            "ctb2High": null
          },
          "notes": [
            {
              "pitch": 58,
              "velocity": 116,
              "position": 0.3333333333333333,
              "duration": 0.3229166666666667
            },
            {
              "pitch": 60,
              "velocity": 17,
              "position": 0.6666666666666666,
              "duration": 0.15625
            },
            {
              "pitch": 63,
              "velocity": 36,
              "position": 1,
              "duration": 0.3229166666666667
            },
            {
              "pitch": 58,
              "velocity": 3,
              "position": 1.3333333333333333,
              "duration": 0.3229166666666667
            },
            {
              "pitch": 60,
              "velocity": 26,
              "position": 1.6666666666666667,
              "duration": 2.28125
            }
          ]
        },
        "8": {
          "ctab": {
            "srcChannel": 8,
            "name": "Perc",
            "accType": "SUBRHYTHM",
            "editable": false,
            "mutedNotes": [],
            "mutedChords": [],
            "autoStart": true,
            "sourceChordNote": 0,
            "sourceChordType": "Maj7",
            "ctb2Low": null,
            "ctb2Main": {
              "ntr": "ROOT_FIXED",
              "ntt": "BYPASS",
              "bassOn": false,
              "chordRootUpperLimit": 6,
              "noteLowLimit": 0,
              "noteHighLimit": 127,
              "rtr": "PITCH_SHIFT"
            },
            "ctb2High": null
          },
          "notes": [
            {
              "pitch": 54,
              "velocity": 70,
              "position": 1,
              "duration": 0.010416666666666666
            },
            {
              "pitch": 54,
              "velocity": 70,
              "position": 3,
              "duration": 0.010416666666666666
            }
          ]
        },
        "9": {
          "ctab": {
            "srcChannel": 9,
            "name": "Drs",
            "accType": "RHYTHM",
            "editable": false,
            "mutedNotes": [],
            "mutedChords": [],
            "autoStart": true,
            "sourceChordNote": 0,
            "sourceChordType": "Maj7",
            "ctb2Low": null,
            "ctb2Main": {
              "ntr": "ROOT_FIXED",
              "ntt": "BYPASS",
              "bassOn": false,
              "chordRootUpperLimit": 6,
              "noteLowLimit": 0,
              "noteHighLimit": 127,
              "rtr": "PITCH_SHIFT"
            },
            "ctb2High": null
          },
          "notes": [
            {
              "pitch": 36,
              "velocity": 90,
              "position": 0,
              "duration": 0.010416666666666666
            },
            {
              "pitch": 42,
              "velocity": 80,
              "position": 0,
              "duration": 0.010416666666666666
            },
            {
              "pitch": 42,
              "velocity": 60,
              "position": 0.3333333333333333,
              "duration": 0.010416666666666666
            },
            {
              "pitch": 42,
              "velocity": 70,
              "position": 0.6666666666666666,
              "duration": 0.010416666666666666
            },
            {
              "pitch": 40,
              "velocity": 84,
              "position": 1,
              "duration": 0.010416666666666666
            },
            {
              "pitch": 42,
              "velocity": 80,
              "position": 1,
              "duration": 0.010416666666666666
            },
            {
              "pitch": 42,
              "velocity": 60,
              "position": 1.3333333333333333,
              "duration": 0.010416666666666666
            },
            {
              "pitch": 36,
              "velocity": 50,
              "position": 1.6666666666666667,
              "duration": 0.010416666666666666
            },
            {
              "pitch": 42,
              "velocity": 70,
              "position": 1.6666666666666667,
              "duration": 0.010416666666666666
            },
            {
              "pitch": 42,
              "velocity": 30,
              "position": 1.8854166666666667,
              "duration": 0.010416666666666666
            },
            {
              "pitch": 36,
              "velocity": 90,
              "position": 2,
              "duration": 0.010416666666666666
            },
            {
              "pitch": 42,
              "velocity": 80,
              "position": 2,
              "duration": 0.010416666666666666
            },
            {
              "pitch": 46,
              "velocity": 30,
              "position": 2.3333333333333335,
              "duration": 0.010416666666666666
            },
            {
              "pitch": 46,
              "velocity": 40,
              "position": 2.6666666666666665,
              "duration": 0.010416666666666666
            },
            {
              "pitch": 36,
              "velocity": 50,
              "position": 2.8854166666666665,
              "duration": 0.010416666666666666
            },
            {
              "pitch": 40,
              "velocity": 110,
              "position": 3,
              "duration": 0.010416666666666666
            },
            {
              "pitch": 36,
              "velocity": 50,
              "position": 3.3333333333333335,
              "duration": 0.010416666666666666
            },
            {
              "pitch": 45,
              "velocity": 80,
              "position": 3.3333333333333335,
              "duration": 0.010416666666666666
            },
            {
              "pitch": 36,
              "velocity": 50,
              "position": 3.6666666666666665,
              "duration": 0.010416666666666666
            },
            {
              "pitch": 43,
              "velocity": 82,
              "position": 3.6666666666666665,
              "duration": 0.010416666666666666
            }
          ]
        },
        "10": {
          "ctab": {
            "srcChannel": 10,
            "name": "BassMain",
            "accType": "BASS",
            "editable": false,
            "mutedNotes": [],
            "mutedChords": [
              "7aug",
              "dim",
              "minMaj7(9)",
              "minMaj7",
              "min(9)",
              "m7b5",
              "min",
              "aug"
            ],
            "autoStart": false,
            "sourceChordNote": 0,
            "sourceChordType": "Maj7",
            "ctb2Low": null,
            "ctb2Main": {
              "ntr": "ROOT_TRANSPOSITION",
              "ntt": "MELODY",
              "bassOn": true,
              "chordRootUpperLimit": 8,
              "noteLowLimit": 28,
              "noteHighLimit": 127,
              "rtr": "PITCH_SHIFT_TO_ROOT"
            },
            "ctb2High": null
          },
          "notes": [
            {
              "pitch": 24,
              "velocity": 100,
              "position": 0,
              "duration": 1.65625
            },
            {
              "pitch": 28,
              "velocity": 80,
              "position": 1.6666666666666667,
              "duration": 0.3229166666666667
            },
            {
              "pitch": 31,
              "velocity": 100,
              "position": 2,
              "duration": 0.65625
            },
            {
              "pitch": 31,
              "velocity": 80,
              "position": 2.6666666666666665,
              "duration": 0.3229166666666667
            },
            {
              "pitch": 33,
              "velocity": 100,
              "position": 3,
              "duration": 0.3229166666666667
            },
            {
              "pitch": 31,
              "velocity": 80,
              "position": 3.3333333333333335,
              "duration": 0.3229166666666667
            },
            {
              "pitch": 28,
              "velocity": 80,
              "position": 3.6666666666666665,
              "duration": 0.3229166666666667
            }
          ]
        },
        "11": {
          "ctab": {
            "srcChannel": 11,
            "name": "60cCln",
            "accType": "CHORD1",
            "editable": false,
            "mutedNotes": [],
            "mutedChords": [
              "min",
              "Maj"
            ],
            "autoStart": false,
            "sourceChordNote": 0,
            "sourceChordType": "Maj7",
            "ctb2Low": null,
            "ctb2Main": {
              "ntr": "ROOT_FIXED",
              "ntt": "CHORD",
              "bassOn": false,
              "chordRootUpperLimit": 7,
              "noteLowLimit": 0,
              "noteHighLimit": 127,
              "rtr": "PITCH_SHIFT"
            },
            "ctb2High": null
          },
          "notes": [
            {
              "pitch": 59,
              "velocity": 100,
              "position": 1,
              "duration": 0.08333333333333333
            },
            {
              "pitch": 64,
              "velocity": 100,
              "position": 1,
              "duration": 0.08333333333333333
            },
            {
              "pitch": 67,
              "velocity": 100,
              "position": 1.0104166666666667,
              "duration": 0.08333333333333333
            },
            {
              "pitch": 59,
              "velocity": 40,
              "position": 2.3333333333333335,
              "duration": 0.3229166666666667
            },
            {
              "pitch": 64,
              "velocity": 40,
              "position": 2.3333333333333335,
              "duration": 0.32916666666666666
            },
            {
              "pitch": 67,
              "velocity": 40,
              "position": 2.34375,
              "duration": 0.3229166666666667
            },
            {
              "pitch": 59,
              "velocity": 60,
              "position": 2.6666666666666665,
              "duration": 0.3229166666666667
            },
            {
              "pitch": 64,
              "velocity": 60,
              "position": 2.6666666666666665,
              "duration": 0.32916666666666666
            },
            {
              "pitch": 67,
              "velocity": 60,
              "position": 2.6770833333333335,
              "duration": 0.3229166666666667
            },
            {
              "pitch": 59,
              "velocity": 100,
              "position": 3,
              "duration": 0.9583333333333334
            },
            {
              "pitch": 64,
              "velocity": 100,
              "position": 3,
              "duration": 0.9583333333333334
            },
            {
              "pitch": 67,
              "velocity": 100,
              "position": 3.0104166666666665,
              "duration": 0.9583333333333334
            }
          ]
        },
        "12": {
          "ctab": {
            "srcChannel": 12,
            "name": "Pno RH",
            "accType": "CHORD2",
            "editable": false,
            "mutedNotes": [],
            "mutedChords": [
              "min",
              "Maj"
            ],
            "autoStart": false,
            "sourceChordNote": 0,
            "sourceChordType": "Maj7",
            "ctb2Low": null,
            "ctb2Main": {
              "ntr": "ROOT_FIXED",
              "ntt": "CHORD",
              "bassOn": false,
              "chordRootUpperLimit": 7,
              "noteLowLimit": 0,
              "noteHighLimit": 127,
              "rtr": "PITCH_SHIFT"
            },
            "ctb2High": null
          },
          "notes": [
            {
              "pitch": 55,
              "velocity": 50,
              "position": 0,
              "duration": 0.3229166666666667
            },
            {
              "pitch": 59,
              "velocity": 50,
              "position": 0,
              "duration": 0.3229166666666667
            },
            {
              "pitch": 64,
              "velocity": 47,
              "position": 0,
              "duration": 0.3229166666666667
            },
            {
              "pitch": 55,
              "velocity": 23,
              "position": 0.3333333333333333,
              "duration": 0.3229166666666667
            },
            {
              "pitch": 59,
              "velocity": 23,
              "position": 0.3333333333333333,
              "duration": 0.3229166666666667
            },
            {
              "pitch": 64,
              "velocity": 44,
              "position": 0.3333333333333333,
              "duration": 0.3229166666666667
            },
            {
              "pitch": 55,
              "velocity": 25,
              "position": 0.6666666666666666,
              "duration": 0.3229166666666667
            },
            {
              "pitch": 59,
              "velocity": 25,
              "position": 0.6666666666666666,
              "duration": 0.3229166666666667
            },
            {
              "pitch": 64,
              "velocity": 29,
              "position": 0.6666666666666666,
              "duration": 0.3229166666666667
            },
            {
              "pitch": 55,
              "velocity": 31,
              "position": 1,
              "duration": 0.3229166666666667
            },
            {
              "pitch": 59,
              "velocity": 31,
              "position": 1,
              "duration": 0.3229166666666667
            },
            {
              "pitch": 64,
              "velocity": 49,
              "position": 1,
              "duration": 0.3229166666666667
            },
            {
              "pitch": 55,
              "velocity": 17,
              "position": 1.3333333333333333,
              "duration": 0.3229166666666667
            },
            {
              "pitch": 59,
              "velocity": 17,
              "position": 1.3333333333333333,
              "duration": 0.3229166666666667
            },
            {
              "pitch": 64,
              "velocity": 24,
              "position": 1.3333333333333333,
              "duration": 0.3229166666666667
            },
            {
              "pitch": 55,
              "velocity": 38,
              "position": 1.6666666666666667,
              "duration": 0.3229166666666667
            },
            {
              "pitch": 59,
              "velocity": 38,
              "position": 1.6666666666666667,
              "duration": 0.3229166666666667
            },
            {
              "pitch": 64,
              "velocity": 45,
              "position": 1.6666666666666667,
              "duration": 0.3229166666666667
            },
            {
              "pitch": 55,
              "velocity": 31,
              "position": 2,
              "duration": 0.3229166666666667
            },
            {
              "pitch": 59,
              "velocity": 31,
              "position": 2,
              "duration": 0.3229166666666667
            },
            {
              "pitch": 64,
              "velocity": 25,
              "position": 2,
              "duration": 0.3229166666666667
            },
            {
              "pitch": 55,
              "velocity": 20,
              "position": 2.3333333333333335,
              "duration": 0.3229166666666667
            },
            {
              "pitch": 59,
              "velocity": 20,
              "position": 2.3333333333333335,
              "duration": 0.3229166666666667
            },
            {
              "pitch": 64,
              "velocity": 17,
              "position": 2.3333333333333335,
              "duration": 0.3229166666666667
            },
            {
              "pitch": 67,
              "velocity": 27,
              "position": 2.3333333333333335,
              "duration": 0.3229166666666667
            },
            {
              "pitch": 71,
              "velocity": 30,
              "position": 2.3333333333333335,
              "duration": 0.3229166666666667
            },
            {
              "pitch": 76,
              "velocity": 30,
              "position": 2.3333333333333335,
              "duration": 0.3229166666666667
            },
            {
              "pitch": 55,
              "velocity": 25,
              "position": 2.6666666666666665,
              "duration": 0.3229166666666667
            },
            {
              "pitch": 59,
              "velocity": 25,
              "position": 2.6666666666666665,
              "duration": 0.3229166666666667
            },
            {
              "pitch": 64,
              "velocity": 27,
              "position": 2.6666666666666665,
              "duration": 0.3229166666666667
            },
            {
              "pitch": 67,
              "velocity": 48,
              "position": 2.6666666666666665,
              "duration": 0.3229166666666667
            },
            {
              "pitch": 71,
              "velocity": 51,
              "position": 2.6666666666666665,
              "duration": 0.3229166666666667
            },
            {
              "pitch": 76,
              "velocity": 51,
              "position": 2.6666666666666665,
              "duration": 0.3229166666666667
            },
            {
              "pitch": 55,
              "velocity": 38,
              "position": 3,
              "duration": 0.3229166666666667
            },
            {
              "pitch": 59,
              "velocity": 38,
              "position": 3,
              "duration": 0.3229166666666667
            },
            {
              "pitch": 64,
              "velocity": 29,
              "position": 3,
              "duration": 0.3229166666666667
            },
            {
              "pitch": 67,
              "velocity": 78,
              "position": 3,
              "duration": 0.3229166666666667
            },
            {
              "pitch": 71,
              "velocity": 81,
              "position": 3,
              "duration": 0.3229166666666667
            },
            {
              "pitch": 76,
              "velocity": 81,
              "position": 3,
              "duration": 0.3229166666666667
            },
            {
              "pitch": 64,
              "velocity": 59,
              "position": 3.3333333333333335,
              "duration": 0.3229166666666667
            },
            {
              "pitch": 67,
              "velocity": 59,
              "position": 3.3333333333333335,
              "duration": 0.3229166666666667
            },
            {
              "pitch": 71,
              "velocity": 72,
              "position": 3.3333333333333335,
              "duration": 0.3229166666666667
            },
            {
              "pitch": 55,
              "velocity": 59,
              "position": 3.6666666666666665,
              "duration": 0.3229166666666667
            },
            {
              "pitch": 59,
              "velocity": 59,
              "position": 3.6666666666666665,
              "duration": 0.3229166666666667
            },
            {
              "pitch": 64,
              "velocity": 59,
              "position": 3.6666666666666665,
              "duration": 0.3229166666666667
            },
            {
              "pitch": 67,
              "velocity": 77,
              "position": 3.6666666666666665,
              "duration": 0.3229166666666667
            }
          ]
        },
        "13": {
          "ctab": {
            "srcChannel": 13,
            "name": "Org",
            "accType": "PAD",
            "editable": false,
            "mutedNotes": [],
            "mutedChords": [
              "min",
              "Maj"
            ],
            "autoStart": false,
            "sourceChordNote": 0,
            "sourceChordType": "Maj7",
            "ctb2Low": null,
            "ctb2Main": {
              "ntr": "ROOT_FIXED",
              "ntt": "CHORD",
              "bassOn": false,
              "chordRootUpperLimit": 7,
              "noteLowLimit": 0,
              "noteHighLimit": 127,
              "rtr": "PITCH_SHIFT"
            },
            "ctb2High": null
          },
          "notes": [
            {
              "pitch": 55,
              "velocity": 100,
              "position": 0,
              "duration": 1.9895833333333333
            },
            {
              "pitch": 67,
              "velocity": 100,
              "position": 2,
              "duration": 0.9895833333333334
            },
            {
              "pitch": 67,
              "velocity": 100,
              "position": 3,
              "duration": 0.9895833333333334
            },
            {
              "pitch": 59,
              "velocity": 100,
              "position": 0,
              "duration": 3.9895833333333335
            },
            {
              "pitch": 64,
              "velocity": 100,
              "position": 0,
              "duration": 3.9895833333333335
            }
          ]
        },
        "14": {
          "ctab": {
            "srcChannel": 14,
            "name": "ClGt",
            "accType": "PHRASE1",
            "editable": false,
            "mutedNotes": [],
            "mutedChords": [
              "min",
              "Maj"
            ],
            "autoStart": false,
            "sourceChordNote": 0,
            "sourceChordType": "Maj7",
            "ctb2Low": null,
            "ctb2Main": {
              "ntr": "ROOT_TRANSPOSITION",
              "ntt": "MELODY",
              "bassOn": false,
              "chordRootUpperLimit": 8,
              "noteLowLimit": 53,
              "noteHighLimit": 76,
              "rtr": "PITCH_SHIFT"
            },
            "ctb2High": null
          },
          "notes": [
            {
              "pitch": 55,
              "velocity": 116,
              "position": 0.3333333333333333,
              "duration": 3.6145833333333335
            },
            {
              "pitch": 52,
              "velocity": 16,
              "position": 0.6666666666666666,
              "duration": 3.28125
            }
          ]
        }
      }
    },
    "Main_C": {
      "type": "Main_C",
      "sizeInBeats": 8,
      "channels": {
        "0": {
          "ctab": {
            "srcChannel": 0,
            "name": "Pno LH",
            "accType": "CHORD2",
            "editable": false,
            "mutedNotes": [],
            "mutedChords": [],
            "autoStart": false,
            "sourceChordNote": 0,
            "sourceChordType": "Maj7",
            "ctb2Low": null,
            "ctb2Main": {
              "ntr": "ROOT_TRANSPOSITION",
              "ntt": "MELODY",
              "bassOn": true,
              "chordRootUpperLimit": 8,
              "noteLowLimit": 0,
              "noteHighLimit": 127,
              "rtr": "PITCH_SHIFT_TO_ROOT"
            },
            "ctb2High": null
          },
          "notes": [
            {
              "pitch": 36,
              "velocity": 100,
              "position": 0,
              "duration": 0.9895833333333334
            },
            {
              "pitch": 40,
              "velocity": 70,
              "position": 1,
              "duration": 0.9895833333333334
            },
            {
              "pitch": 43,
              "velocity": 40,
              "position": 2,
              "duration": 0.9895833333333334
            },
            {
              "pitch": 36,
              "velocity": 100,
              "position": 4,
              "duration": 0.9895833333333334
            },
            {
              "pitch": 40,
              "velocity": 70,
              "position": 5,
              "duration": 0.9895833333333334
            },
            {
              "pitch": 43,
              "velocity": 40,
              "position": 6,
              "duration": 0.9895833333333334
            }
          ]
        },
        "1": {
          "ctab": {
            "srcChannel": 1,
            "name": "BassAlt",
            "accType": "BASS",
            "editable": false,
            "mutedNotes": [],
            "mutedChords": [
              "1+2+5",
              "sus4",
              "1+5",
              "1+8",
              "Maj7aug",
              "7(#9)",
              "7(b13)",
              "7(b9)",
              "7(13)",
              "7#11",
              "7(9)",
              "7b5",
              "7sus4",
              "7th",
              "dim7",
              "min7(11)",
              "min7(9)",
              "min7",
              "min6",
              "Maj6(9)",
              "Maj7(9)",
              "Maj(9)",
              "Maj7#11",
              "Maj7",
              "Maj6",
              "Maj"
            ],
            "autoStart": false,
            "sourceChordNote": 0,
            "sourceChordType": "Maj7",
            "ctb2Low": null,
            "ctb2Main": {
              "ntr": "ROOT_TRANSPOSITION",
              "ntt": "MELODY",
              "bassOn": true,
              "chordRootUpperLimit": 8,
              "noteLowLimit": 28,
              "noteHighLimit": 127,
              "rtr": "PITCH_SHIFT_TO_ROOT"
            },
            "ctb2High": null
          },
          "notes": [
            {
              "pitch": 24,
              "velocity": 100,
              "position": 0,
              "duration": 0.6041666666666666
            },
            {
              "pitch": 24,
              "velocity": 89,
              "position": 0.6666666666666666,
              "duration": 0.2708333333333333
            },
            {
              "pitch": 28,
              "velocity": 100,
              "position": 1,
              "duration": 0.6041666666666666
            },
            {
              "pitch": 28,
              "velocity": 89,
              "position": 1.6666666666666667,
              "duration": 0.2708333333333333
            },
            {
              "pitch": 31,
              "velocity": 100,
              "position": 2,
              "duration": 0.6041666666666666
            },
            {
              "pitch": 31,
              "velocity": 89,
              "position": 2.6666666666666665,
              "duration": 0.2708333333333333
            },
            {
              "pitch": 28,
              "velocity": 100,
              "position": 3,
              "duration": 0.6041666666666666
            },
            {
              "pitch": 31,
              "velocity": 89,
              "position": 3.6666666666666665,
              "duration": 0.2708333333333333
            },
            {
              "pitch": 24,
              "velocity": 100,
              "position": 4,
              "duration": 0.6041666666666666
            },
            {
              "pitch": 24,
              "velocity": 89,
              "position": 4.666666666666667,
              "duration": 0.2708333333333333
            },
            {
              "pitch": 28,
              "velocity": 100,
              "position": 5,
              "duration": 0.6041666666666666
            },
            {
              "pitch": 28,
              "velocity": 89,
              "position": 5.666666666666667,
              "duration": 0.2708333333333333
            },
            {
              "pitch": 31,
              "velocity": 100,
              "position": 6,
              "duration": 0.6041666666666666
            },
            {
              "pitch": 31,
              "velocity": 89,
              "position": 6.666666666666667,
              "duration": 0.2708333333333333
            },
            {
              "pitch": 36,
              "velocity": 100,
              "position": 7,
              "duration": 0.3229166666666667
            },
            {
              "pitch": 31,
              "velocity": 89,
              "position": 7.333333333333333,
              "duration": 0.3229166666666667
            },
            {
              "pitch": 28,
              "velocity": 89,
              "position": 7.666666666666667,
              "duration": 0.3229166666666667
            }
          ]
        },
        "2": {
          "ctab": {
            "srcChannel": 2,
            "name": "60cCln S",
            "accType": "CHORD1",
            "editable": false,
            "mutedNotes": [],
            "mutedChords": [
              "1+2+5",
              "sus4",
              "1+5",
              "1+8",
              "7aug",
              "Maj7aug",
              "7(#9)",
              "7(b13)",
              "7(b9)",
              "7(13)",
              "7#11",
              "7(9)",
              "7b5",
              "7sus4",
              "7th",
              "dim7",
              "dim",
              "minMaj7(9)",
              "minMaj7",
              "min7(11)",
              "min7(9)",
              "min(9)",
              "m7b5",
              "min7",
              "min6",
              "aug",
              "Maj6(9)",
              "Maj7(9)",
              "Maj(9)",
              "Maj7#11",
              "Maj7",
              "Maj6"
            ],
            "autoStart": false,
            "sourceChordNote": 0,
            "sourceChordType": "Maj7",
            "ctb2Low": null,
            "ctb2Main": {
              "ntr": "ROOT_TRANSPOSITION",
              "ntt": "DORIAN_5",
              "bassOn": false,
              "chordRootUpperLimit": 4,
              "noteLowLimit": 54,
              "noteHighLimit": 127,
              "rtr": "PITCH_SHIFT"
            },
            "ctb2High": null
          },
          "notes": [
            {
              "pitch": 58,
              "velocity": 80,
              "position": 0,
              "duration": 0.3229166666666667
            },
            {
              "pitch": 64,
              "velocity": 80,
              "position": 0,
              "duration": 0.32916666666666666
            },
            {
              "pitch": 67,
              "velocity": 80,
              "position": 0.010416666666666666,
              "duration": 0.3229166666666667
            },
            {
              "pitch": 72,
              "velocity": 80,
              "position": 0.020833333333333332,
              "duration": 0.3229166666666667
            },
            {
              "pitch": 58,
              "velocity": 40,
              "position": 0.3333333333333333,
              "duration": 0.3229166666666667
            },
            {
              "pitch": 64,
              "velocity": 40,
              "position": 0.3333333333333333,
              "duration": 0.32916666666666666
            },
            {
              "pitch": 67,
              "velocity": 40,
              "position": 0.34375,
              "duration": 0.3229166666666667
            },
            {
              "pitch": 72,
              "velocity": 40,
              "position": 0.3541666666666667,
              "duration": 0.3229166666666667
            },
            {
              "pitch": 58,
              "velocity": 60,
              "position": 0.6666666666666666,
              "duration": 0.3229166666666667
            },
            {
              "pitch": 64,
              "velocity": 60,
              "position": 0.6666666666666666,
              "duration": 0.32916666666666666
            },
            {
              "pitch": 67,
              "velocity": 60,
              "position": 0.6770833333333334,
              "duration": 0.3229166666666667
            },
            {
              "pitch": 72,
              "velocity": 60,
              "position": 0.6875,
              "duration": 0.3229166666666667
            },
            {
              "pitch": 58,
              "velocity": 100,
              "position": 1,
              "duration": 0.08333333333333333
            },
            {
              "pitch": 64,
              "velocity": 100,
              "position": 1,
              "duration": 0.08333333333333333
            },
            {
              "pitch": 67,
              "velocity": 100,
              "position": 1.0104166666666667,
              "duration": 0.08333333333333333
            },
            {
              "pitch": 72,
              "velocity": 100,
              "position": 1.0208333333333333,
              "duration": 0.08333333333333333
            },
            {
              "pitch": 58,
              "velocity": 60,
              "position": 1.3333333333333333,
              "duration": 0.010416666666666666
            },
            {
              "pitch": 64,
              "velocity": 60,
              "position": 1.3333333333333333,
              "duration": 0.010416666666666666
            },
            {
              "pitch": 67,
              "velocity": 60,
              "position": 1.34375,
              "duration": 0.010416666666666666
            },
            {
              "pitch": 72,
              "velocity": 60,
              "position": 1.3541666666666667,
              "duration": 0.010416666666666666
            },
            {
              "pitch": 58,
              "velocity": 80,
              "position": 1.6666666666666667,
              "duration": 0.65625
            },
            {
              "pitch": 64,
              "velocity": 80,
              "position": 1.6666666666666667,
              "duration": 0.6625
            },
            {
              "pitch": 67,
              "velocity": 80,
              "position": 1.6770833333333333,
              "duration": 0.65625
            },
            {
              "pitch": 72,
              "velocity": 80,
              "position": 1.6875,
              "duration": 0.65625
            },
            {
              "pitch": 58,
              "velocity": 40,
              "position": 2.3333333333333335,
              "duration": 0.3229166666666667
            },
            {
              "pitch": 64,
              "velocity": 40,
              "position": 2.3333333333333335,
              "duration": 0.32916666666666666
            },
            {
              "pitch": 67,
              "velocity": 40,
              "position": 2.34375,
              "duration": 0.3229166666666667
            },
            {
              "pitch": 72,
              "velocity": 40,
              "position": 2.3541666666666665,
              "duration": 0.3229166666666667
            },
            {
              "pitch": 58,
              "velocity": 60,
              "position": 2.6666666666666665,
              "duration": 0.3229166666666667
            },
            {
              "pitch": 64,
              "velocity": 60,
              "position": 2.6666666666666665,
              "duration": 0.32916666666666666
            },
            {
              "pitch": 67,
              "velocity": 60,
              "position": 2.6770833333333335,
              "duration": 0.3229166666666667
            },
            {
              "pitch": 72,
              "velocity": 60,
              "position": 2.6875,
              "duration": 0.3229166666666667
            },
            {
              "pitch": 58,
              "velocity": 100,
              "position": 3,
              "duration": 0.08333333333333333
            },
            {
              "pitch": 64,
              "velocity": 100,
              "position": 3,
              "duration": 0.08333333333333333
            },
            {
              "pitch": 67,
              "velocity": 100,
              "position": 3.0104166666666665,
              "duration": 0.08333333333333333
            },
            {
              "pitch": 72,
              "velocity": 100,
              "position": 3.0208333333333335,
              "duration": 0.08333333333333333
            },
            {
              "pitch": 58,
              "velocity": 60,
              "position": 3.3333333333333335,
              "duration": 0.010416666666666666
            },
            {
              "pitch": 64,
              "velocity": 60,
              "position": 3.3333333333333335,
              "duration": 0.010416666666666666
            },
            {
              "pitch": 67,
              "velocity": 60,
              "position": 3.34375,
              "duration": 0.010416666666666666
            },
            {
              "pitch": 72,
              "velocity": 60,
              "position": 3.3541666666666665,
              "duration": 0.010416666666666666
            },
            {
              "pitch": 58,
              "velocity": 80,
              "position": 3.6666666666666665,
              "duration": 0.010416666666666666
            },
            {
              "pitch": 64,
              "velocity": 80,
              "position": 3.6666666666666665,
              "duration": 0.010416666666666666
            },
            {
              "pitch": 67,
              "velocity": 80,
              "position": 3.6770833333333335,
              "duration": 0.010416666666666666
            },
            {
              "pitch": 72,
              "velocity": 80,
              "position": 3.6875,
              "duration": 0.010416666666666666
            },
            {
              "pitch": 58,
              "velocity": 80,
              "position": 4,
              "duration": 0.3229166666666667
            },
            {
              "pitch": 64,
              "velocity": 80,
              "position": 4,
              "duration": 0.32916666666666666
            },
            {
              "pitch": 67,
              "velocity": 80,
              "position": 4.010416666666667,
              "duration": 0.3229166666666667
            },
            {
              "pitch": 72,
              "velocity": 80,
              "position": 4.020833333333333,
              "duration": 0.3229166666666667
            },
            {
              "pitch": 58,
              "velocity": 40,
              "position": 4.333333333333333,
              "duration": 0.3229166666666667
            },
            {
              "pitch": 64,
              "velocity": 40,
              "position": 4.333333333333333,
              "duration": 0.32916666666666666
            },
            {
              "pitch": 67,
              "velocity": 40,
              "position": 4.34375,
              "duration": 0.3229166666666667
            },
            {
              "pitch": 72,
              "velocity": 40,
              "position": 4.354166666666667,
              "duration": 0.3229166666666667
            },
            {
              "pitch": 58,
              "velocity": 60,
              "position": 4.666666666666667,
              "duration": 0.3229166666666667
            },
            {
              "pitch": 64,
              "velocity": 60,
              "position": 4.666666666666667,
              "duration": 0.32916666666666666
            },
            {
              "pitch": 67,
              "velocity": 60,
              "position": 4.677083333333333,
              "duration": 0.3229166666666667
            },
            {
              "pitch": 72,
              "velocity": 60,
              "position": 4.6875,
              "duration": 0.3229166666666667
            },
            {
              "pitch": 58,
              "velocity": 100,
              "position": 5,
              "duration": 0.08333333333333333
            },
            {
              "pitch": 64,
              "velocity": 100,
              "position": 5,
              "duration": 0.08333333333333333
            },
            {
              "pitch": 67,
              "velocity": 100,
              "position": 5.010416666666667,
              "duration": 0.08333333333333333
            },
            {
              "pitch": 72,
              "velocity": 100,
              "position": 5.020833333333333,
              "duration": 0.08333333333333333
            },
            {
              "pitch": 58,
              "velocity": 60,
              "position": 5.333333333333333,
              "duration": 0.010416666666666666
            },
            {
              "pitch": 64,
              "velocity": 60,
              "position": 5.333333333333333,
              "duration": 0.010416666666666666
            },
            {
              "pitch": 67,
              "velocity": 60,
              "position": 5.34375,
              "duration": 0.010416666666666666
            },
            {
              "pitch": 72,
              "velocity": 60,
              "position": 5.354166666666667,
              "duration": 0.010416666666666666
            },
            {
              "pitch": 58,
              "velocity": 80,
              "position": 5.666666666666667,
              "duration": 0.65625
            },
            {
              "pitch": 64,
              "velocity": 80,
              "position": 5.666666666666667,
              "duration": 0.6625
            },
            {
              "pitch": 67,
              "velocity": 80,
              "position": 5.677083333333333,
              "duration": 0.65625
            },
            {
              "pitch": 72,
              "velocity": 80,
              "position": 5.6875,
              "duration": 0.65625
            },
            {
              "pitch": 58,
              "velocity": 40,
              "position": 6.333333333333333,
              "duration": 0.3229166666666667
            },
            {
              "pitch": 64,
              "velocity": 40,
              "position": 6.333333333333333,
              "duration": 0.32916666666666666
            },
            {
              "pitch": 67,
              "velocity": 40,
              "position": 6.34375,
              "duration": 0.3229166666666667
            },
            {
              "pitch": 72,
              "velocity": 40,
              "position": 6.354166666666667,
              "duration": 0.3229166666666667
            },
            {
              "pitch": 58,
              "velocity": 60,
              "position": 6.666666666666667,
              "duration": 0.3229166666666667
            },
            {
              "pitch": 64,
              "velocity": 60,
              "position": 6.666666666666667,
              "duration": 0.32916666666666666
            },
            {
              "pitch": 67,
              "velocity": 60,
              "position": 6.677083333333333,
              "duration": 0.3229166666666667
            },
            {
              "pitch": 72,
              "velocity": 60,
              "position": 6.6875,
              "duration": 0.3229166666666667
            },
            {
              "pitch": 58,
              "velocity": 100,
              "position": 7,
              "duration": 0.08333333333333333
            },
            {
              "pitch": 64,
              "velocity": 100,
              "position": 7,
              "duration": 0.08333333333333333
            },
            {
              "pitch": 67,
              "velocity": 100,
              "position": 7.010416666666667,
              "duration": 0.08333333333333333
            },
            {
              "pitch": 72,
              "velocity": 100,
              "position": 7.020833333333333,
              "duration": 0.08333333333333333
            },
            {
              "pitch": 58,
              "velocity": 60,
              "position": 7.333333333333333,
              "duration": 0.010416666666666666
            },
            {
              "pitch": 64,
              "velocity": 60,
              "position": 7.333333333333333,
              "duration": 0.010416666666666666
            },
            {
              "pitch": 67,
              "velocity": 60,
              "position": 7.34375,
              "duration": 0.010416666666666666
            },
            {
              "pitch": 72,
              "velocity": 60,
              "position": 7.354166666666667,
              "duration": 0.010416666666666666
            },
            {
              "pitch": 58,
              "velocity": 80,
              "position": 7.666666666666667,
              "duration": 0.010416666666666666
            },
            {
              "pitch": 64,
              "velocity": 80,
              "position": 7.666666666666667,
              "duration": 0.010416666666666666
            },
            {
              "pitch": 67,
              "velocity": 80,
              "position": 7.677083333333333,
              "duration": 0.010416666666666666
            },
            {
              "pitch": 72,
              "velocity": 80,
              "position": 7.6875,
              "duration": 0.010416666666666666
            }
          ]
        },
        "3": {
          "ctab": {
            "srcChannel": 3,
            "name": "PnoRH S",
            "accType": "CHORD2",
            "editable": false,
            "mutedNotes": [],
            "mutedChords": [
              "1+2+5",
              "sus4",
              "1+5",
              "1+8",
              "7aug",
              "Maj7aug",
              "7(#9)",
              "7(b13)",
              "7(b9)",
              "7(13)",
              "7#11",
              "7(9)",
              "7b5",
              "7sus4",
              "7th",
              "dim7",
              "dim",
              "minMaj7(9)",
              "minMaj7",
              "min7(11)",
              "min7(9)",
              "min(9)",
              "m7b5",
              "min7",
              "min6",
              "aug",
              "Maj6(9)",
              "Maj7(9)",
              "Maj(9)",
              "Maj7#11",
              "Maj7",
              "Maj6"
            ],
            "autoStart": false,
            "sourceChordNote": 0,
            "sourceChordType": "Maj7",
            "ctb2Low": null,
            "ctb2Main": {
              "ntr": "ROOT_TRANSPOSITION",
              "ntt": "DORIAN_5",
              "bassOn": false,
              "chordRootUpperLimit": 11,
              "noteLowLimit": 58,
              "noteHighLimit": 79,
              "rtr": "PITCH_SHIFT"
            },
            "ctb2High": null
          },
          "notes": [
            {
              "pitch": 46,
              "velocity": 70,
              "position": 0,
              "duration": 0.3229166666666667
            },
            {
              "pitch": 48,
              "velocity": 72,
              "position": 0,
              "duration": 0.3229166666666667
            },
            {
              "pitch": 52,
              "velocity": 70,
              "position": 0,
              "duration": 0.3229166666666667
            },
            {
              "pitch": 55,
              "velocity": 67,
              "position": 0,
              "duration": 0.3229166666666667
            },
            {
              "pitch": 46,
              "velocity": 60,
              "position": 0.3333333333333333,
              "duration": 0.3229166666666667
            },
            {
              "pitch": 48,
              "velocity": 53,
              "position": 0.3333333333333333,
              "duration": 0.3229166666666667
            },
            {
              "pitch": 52,
              "velocity": 60,
              "position": 0.3333333333333333,
              "duration": 0.3229166666666667
            },
            {
              "pitch": 55,
              "velocity": 58,
              "position": 0.3333333333333333,
              "duration": 0.3229166666666667
            },
            {
              "pitch": 46,
              "velocity": 50,
              "position": 0.6666666666666666,
              "duration": 0.3229166666666667
            },
            {
              "pitch": 48,
              "velocity": 49,
              "position": 0.6666666666666666,
              "duration": 0.3229166666666667
            },
            {
              "pitch": 52,
              "velocity": 50,
              "position": 0.6666666666666666,
              "duration": 0.3229166666666667
            },
            {
              "pitch": 55,
              "velocity": 48,
              "position": 0.6666666666666666,
              "duration": 0.3229166666666667
            },
            {
              "pitch": 46,
              "velocity": 55,
              "position": 1,
              "duration": 0.3229166666666667
            },
            {
              "pitch": 48,
              "velocity": 58,
              "position": 1,
              "duration": 0.3229166666666667
            },
            {
              "pitch": 52,
              "velocity": 55,
              "position": 1,
              "duration": 0.3229166666666667
            },
            {
              "pitch": 55,
              "velocity": 52,
              "position": 1,
              "duration": 0.3229166666666667
            },
            {
              "pitch": 48,
              "velocity": 60,
              "position": 1.3333333333333333,
              "duration": 0.21458333333333332
            },
            {
              "pitch": 46,
              "velocity": 55,
              "position": 1.3333333333333333,
              "duration": 0.3229166666666667
            },
            {
              "pitch": 52,
              "velocity": 55,
              "position": 1.3333333333333333,
              "duration": 0.3229166666666667
            },
            {
              "pitch": 55,
              "velocity": 48,
              "position": 1.3333333333333333,
              "duration": 0.3229166666666667
            },
            {
              "pitch": 53,
              "velocity": 85,
              "position": 1.6666666666666667,
              "duration": 0.3229166666666667
            },
            {
              "pitch": 48,
              "velocity": 79,
              "position": 1.5520833333333333,
              "duration": 0.4375
            },
            {
              "pitch": 57,
              "velocity": 93,
              "position": 1.6666666666666667,
              "duration": 0.3229166666666667
            },
            {
              "pitch": 46,
              "velocity": 50,
              "position": 2,
              "duration": 0.3229166666666667
            },
            {
              "pitch": 48,
              "velocity": 64,
              "position": 2,
              "duration": 0.3229166666666667
            },
            {
              "pitch": 52,
              "velocity": 50,
              "position": 2,
              "duration": 0.3229166666666667
            },
            {
              "pitch": 55,
              "velocity": 55,
              "position": 2,
              "duration": 0.3229166666666667
            },
            {
              "pitch": 46,
              "velocity": 48,
              "position": 2.3333333333333335,
              "duration": 0.3229166666666667
            },
            {
              "pitch": 48,
              "velocity": 54,
              "position": 2.3333333333333335,
              "duration": 0.3229166666666667
            },
            {
              "pitch": 52,
              "velocity": 48,
              "position": 2.3333333333333335,
              "duration": 0.3229166666666667
            },
            {
              "pitch": 55,
              "velocity": 58,
              "position": 2.3333333333333335,
              "duration": 0.3229166666666667
            },
            {
              "pitch": 46,
              "velocity": 47,
              "position": 2.6666666666666665,
              "duration": 0.3229166666666667
            },
            {
              "pitch": 48,
              "velocity": 58,
              "position": 2.6666666666666665,
              "duration": 0.3229166666666667
            },
            {
              "pitch": 52,
              "velocity": 47,
              "position": 2.6666666666666665,
              "duration": 0.3229166666666667
            },
            {
              "pitch": 55,
              "velocity": 52,
              "position": 2.6666666666666665,
              "duration": 0.3229166666666667
            },
            {
              "pitch": 46,
              "velocity": 64,
              "position": 3,
              "duration": 0.3229166666666667
            },
            {
              "pitch": 48,
              "velocity": 63,
              "position": 3,
              "duration": 0.3229166666666667
            },
            {
              "pitch": 52,
              "velocity": 64,
              "position": 3,
              "duration": 0.3229166666666667
            },
            {
              "pitch": 55,
              "velocity": 58,
              "position": 3,
              "duration": 0.3229166666666667
            },
            {
              "pitch": 48,
              "velocity": 60,
              "position": 3.3333333333333335,
              "duration": 0.21458333333333332
            },
            {
              "pitch": 46,
              "velocity": 47,
              "position": 3.3333333333333335,
              "duration": 0.3229166666666667
            },
            {
              "pitch": 52,
              "velocity": 47,
              "position": 3.3333333333333335,
              "duration": 0.3229166666666667
            },
            {
              "pitch": 55,
              "velocity": 48,
              "position": 3.3333333333333335,
              "duration": 0.3229166666666667
            },
            {
              "pitch": 48,
              "velocity": 82,
              "position": 3.5520833333333335,
              "duration": 0.3229166666666667
            },
            {
              "pitch": 53,
              "velocity": 90,
              "position": 3.6666666666666665,
              "duration": 0.3229166666666667
            },
            {
              "pitch": 57,
              "velocity": 101,
              "position": 3.6666666666666665,
              "duration": 0.3229166666666667
            },
            {
              "pitch": 46,
              "velocity": 66,
              "position": 4,
              "duration": 0.3229166666666667
            },
            {
              "pitch": 48,
              "velocity": 71,
              "position": 3.8854166666666665,
              "duration": 0.4375
            },
            {
              "pitch": 52,
              "velocity": 66,
              "position": 4,
              "duration": 0.3229166666666667
            },
            {
              "pitch": 55,
              "velocity": 75,
              "position": 4,
              "duration": 0.3229166666666667
            },
            {
              "pitch": 46,
              "velocity": 55,
              "position": 4.333333333333333,
              "duration": 0.3229166666666667
            },
            {
              "pitch": 48,
              "velocity": 54,
              "position": 4.333333333333333,
              "duration": 0.3229166666666667
            },
            {
              "pitch": 52,
              "velocity": 55,
              "position": 4.333333333333333,
              "duration": 0.3229166666666667
            },
            {
              "pitch": 55,
              "velocity": 60,
              "position": 4.333333333333333,
              "duration": 0.3229166666666667
            },
            {
              "pitch": 46,
              "velocity": 50,
              "position": 4.666666666666667,
              "duration": 0.3229166666666667
            },
            {
              "pitch": 48,
              "velocity": 58,
              "position": 4.666666666666667,
              "duration": 0.3229166666666667
            },
            {
              "pitch": 52,
              "velocity": 50,
              "position": 4.666666666666667,
              "duration": 0.3229166666666667
            },
            {
              "pitch": 55,
              "velocity": 48,
              "position": 4.666666666666667,
              "duration": 0.3229166666666667
            },
            {
              "pitch": 46,
              "velocity": 68,
              "position": 5,
              "duration": 0.3229166666666667
            },
            {
              "pitch": 48,
              "velocity": 68,
              "position": 5,
              "duration": 0.3229166666666667
            },
            {
              "pitch": 52,
              "velocity": 68,
              "position": 5,
              "duration": 0.3229166666666667
            },
            {
              "pitch": 55,
              "velocity": 75,
              "position": 5,
              "duration": 0.3229166666666667
            },
            {
              "pitch": 48,
              "velocity": 60,
              "position": 5.333333333333333,
              "duration": 0.21458333333333332
            },
            {
              "pitch": 46,
              "velocity": 47,
              "position": 5.333333333333333,
              "duration": 0.3229166666666667
            },
            {
              "pitch": 52,
              "velocity": 47,
              "position": 5.333333333333333,
              "duration": 0.3229166666666667
            },
            {
              "pitch": 55,
              "velocity": 50,
              "position": 5.333333333333333,
              "duration": 0.3229166666666667
            },
            {
              "pitch": 48,
              "velocity": 73,
              "position": 5.552083333333333,
              "duration": 0.3229166666666667
            },
            {
              "pitch": 53,
              "velocity": 98,
              "position": 5.666666666666667,
              "duration": 0.3229166666666667
            },
            {
              "pitch": 57,
              "velocity": 91,
              "position": 5.666666666666667,
              "duration": 0.3229166666666667
            },
            {
              "pitch": 46,
              "velocity": 79,
              "position": 6,
              "duration": 0.3229166666666667
            },
            {
              "pitch": 48,
              "velocity": 68,
              "position": 5.885416666666667,
              "duration": 0.4375
            },
            {
              "pitch": 52,
              "velocity": 79,
              "position": 6,
              "duration": 0.3229166666666667
            },
            {
              "pitch": 55,
              "velocity": 82,
              "position": 6,
              "duration": 0.3229166666666667
            },
            {
              "pitch": 46,
              "velocity": 55,
              "position": 6.333333333333333,
              "duration": 0.3229166666666667
            },
            {
              "pitch": 48,
              "velocity": 68,
              "position": 6.333333333333333,
              "duration": 0.3229166666666667
            },
            {
              "pitch": 52,
              "velocity": 55,
              "position": 6.333333333333333,
              "duration": 0.3229166666666667
            },
            {
              "pitch": 55,
              "velocity": 68,
              "position": 6.333333333333333,
              "duration": 0.3229166666666667
            },
            {
              "pitch": 46,
              "velocity": 50,
              "position": 6.666666666666667,
              "duration": 0.3229166666666667
            },
            {
              "pitch": 48,
              "velocity": 63,
              "position": 6.666666666666667,
              "duration": 0.3229166666666667
            },
            {
              "pitch": 52,
              "velocity": 50,
              "position": 6.666666666666667,
              "duration": 0.3229166666666667
            },
            {
              "pitch": 55,
              "velocity": 54,
              "position": 6.666666666666667,
              "duration": 0.3229166666666667
            },
            {
              "pitch": 50,
              "velocity": 73,
              "position": 7,
              "duration": 0.21875
            },
            {
              "pitch": 46,
              "velocity": 50,
              "position": 7,
              "duration": 0.3229166666666667
            },
            {
              "pitch": 53,
              "velocity": 50,
              "position": 7,
              "duration": 0.3229166666666667
            },
            {
              "pitch": 57,
              "velocity": 70,
              "position": 7,
              "duration": 0.3229166666666667
            },
            {
              "pitch": 46,
              "velocity": 58,
              "position": 7.333333333333333,
              "duration": 0.3229166666666667
            },
            {
              "pitch": 52,
              "velocity": 58,
              "position": 7.333333333333333,
              "duration": 0.3229166666666667
            },
            {
              "pitch": 55,
              "velocity": 58,
              "position": 7.333333333333333,
              "duration": 0.3229166666666667
            },
            {
              "pitch": 48,
              "velocity": 73,
              "position": 7.21875,
              "duration": 0.4375
            },
            {
              "pitch": 46,
              "velocity": 81,
              "position": 7.666666666666667,
              "duration": 0.3229166666666667
            },
            {
              "pitch": 48,
              "velocity": 81,
              "position": 7.666666666666667,
              "duration": 0.3229166666666667
            },
            {
              "pitch": 52,
              "velocity": 93,
              "position": 7.666666666666667,
              "duration": 0.3229166666666667
            },
            {
              "pitch": 55,
              "velocity": 98,
              "position": 7.666666666666667,
              "duration": 0.3229166666666667
            }
          ]
        },
        "4": {
          "ctab": {
            "srcChannel": 4,
            "name": "Org S",
            "accType": "PAD",
            "editable": false,
            "mutedNotes": [],
            "mutedChords": [
              "1+2+5",
              "sus4",
              "1+5",
              "1+8",
              "7aug",
              "Maj7aug",
              "7(#9)",
              "7(b13)",
              "7(b9)",
              "7(13)",
              "7#11",
              "7(9)",
              "7b5",
              "7sus4",
              "7th",
              "dim7",
              "dim",
              "minMaj7(9)",
              "minMaj7",
              "min7(11)",
              "min7(9)",
              "min(9)",
              "m7b5",
              "min7",
              "min6",
              "aug",
              "Maj6(9)",
              "Maj7(9)",
              "Maj(9)",
              "Maj7#11",
              "Maj7",
              "Maj6"
            ],
            "autoStart": false,
            "sourceChordNote": 0,
            "sourceChordType": "Maj7",
            "ctb2Low": null,
            "ctb2Main": {
              "ntr": "ROOT_TRANSPOSITION",
              "ntt": "DORIAN_5",
              "bassOn": false,
              "chordRootUpperLimit": 5,
              "noteLowLimit": 58,
              "noteHighLimit": 79,
              "rtr": "PITCH_SHIFT"
            },
            "ctb2High": null
          },
          "notes": [
            {
              "pitch": 46,
              "velocity": 120,
              "position": 0,
              "duration": 7.989583333333333
            },
            {
              "pitch": 48,
              "velocity": 120,
              "position": 0,
              "duration": 7.989583333333333
            },
            {
              "pitch": 52,
              "velocity": 120,
              "position": 0,
              "duration": 7.989583333333333
            },
            {
              "pitch": 55,
              "velocity": 120,
              "position": 0,
              "duration": 7.989583333333333
            }
          ]
        },
        "5": {
          "ctab": {
            "srcChannel": 5,
            "name": "ClGtSMaj",
            "accType": "PHRASE1",
            "editable": false,
            "mutedNotes": [],
            "mutedChords": [
              "1+2+5",
              "sus4",
              "1+5",
              "1+8",
              "7aug",
              "Maj7aug",
              "7(#9)",
              "7(b13)",
              "7(b9)",
              "7(13)",
              "7#11",
              "7(9)",
              "7b5",
              "7sus4",
              "7th",
              "dim7",
              "dim",
              "minMaj7(9)",
              "minMaj7",
              "min7(11)",
              "min7(9)",
              "min(9)",
              "m7b5",
              "min7",
              "min6",
              "min",
              "aug",
              "Maj6(9)",
              "Maj7(9)",
              "Maj(9)",
              "Maj7#11",
              "Maj7",
              "Maj6"
            ],
            "autoStart": false,
            "sourceChordNote": 0,
            "sourceChordType": "Maj7",
            "ctb2Low": null,
            "ctb2Main": {
              "ntr": "ROOT_TRANSPOSITION",
              "ntt": "DORIAN_5",
              "bassOn": false,
              "chordRootUpperLimit": 4,
              "noteLowLimit": 0,
              "noteHighLimit": 127,
              "rtr": "PITCH_SHIFT"
            },
            "ctb2High": null
          },
          "notes": [
            {
              "pitch": 64,
              "velocity": 116,
              "position": 0,
              "duration": 2.9895833333333335
            },
            {
              "pitch": 62,
              "velocity": 30,
              "position": 3,
              "duration": 0.3229166666666667
            },
            {
              "pitch": 60,
              "velocity": 16,
              "position": 3.3333333333333335,
              "duration": 0.3229166666666667
            },
            {
              "pitch": 57,
              "velocity": 16,
              "position": 3.6666666666666665,
              "duration": 0.3229166666666667
            },
            {
              "pitch": 60,
              "velocity": 116,
              "position": 4,
              "duration": 2.9895833333333335
            },
            {
              "pitch": 57,
              "velocity": 116,
              "position": 7,
              "duration": 0.3229166666666667
            },
            {
              "pitch": 60,
              "velocity": 16,
              "position": 7.333333333333333,
              "duration": 0.3229166666666667
            },
            {
              "pitch": 62,
              "velocity": 16,
              "position": 7.666666666666667,
              "duration": 0.3229166666666667
            }
          ]
        },
        "6": {
          "ctab": {
            "srcChannel": 6,
            "name": "EP S",
            "accType": "PHRASE2",
            "editable": false,
            "mutedNotes": [],
            "mutedChords": [
              "1+2+5",
              "sus4",
              "1+5",
              "1+8",
              "7aug",
              "Maj7aug",
              "7(#9)",
              "7(b13)",
              "7(b9)",
              "7(13)",
              "7#11",
              "7(9)",
              "7b5",
              "7sus4",
              "7th",
              "dim7",
              "dim",
              "minMaj7(9)",
              "minMaj7",
              "min7(11)",
              "min7(9)",
              "min(9)",
              "m7b5",
              "min7",
              "min6",
              "aug",
              "Maj6(9)",
              "Maj7(9)",
              "Maj(9)",
              "Maj7#11",
              "Maj7",
              "Maj6"
            ],
            "autoStart": false,
            "sourceChordNote": 0,
            "sourceChordType": "Maj7",
            "ctb2Low": null,
            "ctb2Main": {
              "ntr": "ROOT_TRANSPOSITION",
              "ntt": "DORIAN_5",
              "bassOn": false,
              "chordRootUpperLimit": 4,
              "noteLowLimit": 0,
              "noteHighLimit": 127,
              "rtr": "PITCH_SHIFT"
            },
            "ctb2High": null
          },
          "notes": [
            {
              "pitch": 58,
              "velocity": 88,
              "position": 0,
              "duration": 3.1979166666666665
            },
            {
              "pitch": 60,
              "velocity": 88,
              "position": 0,
              "duration": 3.1979166666666665
            },
            {
              "pitch": 64,
              "velocity": 71,
              "position": 0,
              "duration": 3.1979166666666665
            },
            {
              "pitch": 67,
              "velocity": 63,
              "position": 0,
              "duration": 3.1979166666666665
            },
            {
              "pitch": 60,
              "velocity": 88,
              "position": 3.21875,
              "duration": 0.10416666666666667
            },
            {
              "pitch": 66,
              "velocity": 88,
              "position": 3.3333333333333335,
              "duration": 0.10416666666666667
            },
            {
              "pitch": 62,
              "velocity": 103,
              "position": 3.3333333333333335,
              "duration": 0.21875
            },
            {
              "pitch": 70,
              "velocity": 95,
              "position": 3.3333333333333335,
              "duration": 0.21875
            },
            {
              "pitch": 67,
              "velocity": 114,
              "position": 3.3541666666666665,
              "duration": 0.21875
            },
            {
              "pitch": 60,
              "velocity": 69,
              "position": 3.6666666666666665,
              "duration": 0.21875
            },
            {
              "pitch": 65,
              "velocity": 59,
              "position": 3.6666666666666665,
              "duration": 0.21875
            },
            {
              "pitch": 69,
              "velocity": 54,
              "position": 3.6666666666666665,
              "duration": 0.21875
            },
            {
              "pitch": 58,
              "velocity": 67,
              "position": 4,
              "duration": 2.9895833333333335
            },
            {
              "pitch": 60,
              "velocity": 67,
              "position": 4,
              "duration": 2.9895833333333335
            },
            {
              "pitch": 64,
              "velocity": 69,
              "position": 4,
              "duration": 2.9895833333333335
            },
            {
              "pitch": 67,
              "velocity": 67,
              "position": 4,
              "duration": 2.9895833333333335
            },
            {
              "pitch": 60,
              "velocity": 71,
              "position": 7.333333333333333,
              "duration": 0.3229166666666667
            },
            {
              "pitch": 65,
              "velocity": 65,
              "position": 7.333333333333333,
              "duration": 0.3229166666666667
            },
            {
              "pitch": 69,
              "velocity": 53,
              "position": 7.333333333333333,
              "duration": 0.3229166666666667
            },
            {
              "pitch": 58,
              "velocity": 71,
              "position": 7.666666666666667,
              "duration": 0.3229166666666667
            },
            {
              "pitch": 60,
              "velocity": 71,
              "position": 7.666666666666667,
              "duration": 0.3229166666666667
            },
            {
              "pitch": 64,
              "velocity": 65,
              "position": 7.666666666666667,
              "duration": 0.3229166666666667
            },
            {
              "pitch": 67,
              "velocity": 53,
              "position": 7.666666666666667,
              "duration": 0.3229166666666667
            }
          ]
        },
        "7": {
          "ctab": {
            "srcChannel": 7,
            "name": "ClGtSmin",
            "accType": "PHRASE1",
            "editable": false,
            "mutedNotes": [],
            "mutedChords": [
              "1+2+5",
              "sus4",
              "1+5",
              "1+8",
              "7aug",
              "Maj7aug",
              "7(#9)",
              "7(b13)",
              "7(b9)",
              "7(13)",
              "7#11",
              "7(9)",
              "7b5",
              "7sus4",
              "7th",
              "dim7",
              "dim",
              "minMaj7(9)",
              "minMaj7",
              "min7(11)",
              "min7(9)",
              "min(9)",
              "m7b5",
              "min7",
              "min6",
              "aug",
              "Maj6(9)",
              "Maj7(9)",
              "Maj(9)",
              "Maj7#11",
              "Maj7",
              "Maj6",
              "Maj"
            ],
            "autoStart": false,
            "sourceChordNote": 0,
            "sourceChordType": "Maj7",
            "ctb2Low": null,
            "ctb2Main": {
              "ntr": "ROOT_TRANSPOSITION",
              "ntt": "DORIAN_5",
              "bassOn": false,
              "chordRootUpperLimit": 4,
              "noteLowLimit": 0,
              "noteHighLimit": 127,
              "rtr": "PITCH_SHIFT"
            },
            "ctb2High": null
          },
          "notes": [
            {
              "pitch": 60,
              "velocity": 116,
              "position": 0.010416666666666666,
              "duration": 2.9791666666666665
            },
            {
              "pitch": 58,
              "velocity": 32,
              "position": 3,
              "duration": 0.3229166666666667
            },
            {
              "pitch": 60,
              "velocity": 16,
              "position": 3.3333333333333335,
              "duration": 0.3229166666666667
            },
            {
              "pitch": 63,
              "velocity": 16,
              "position": 3.6666666666666665,
              "duration": 0.3229166666666667
            },
            {
              "pitch": 60,
              "velocity": 116,
              "position": 4,
              "duration": 2.9895833333333335
            },
            {
              "pitch": 55,
              "velocity": 116,
              "position": 7,
              "duration": 0.3229166666666667
            },
            {
              "pitch": 63,
              "velocity": 16,
              "position": 7.333333333333333,
              "duration": 0.3229166666666667
            },
            {
              "pitch": 58,
              "velocity": 16,
              "position": 7.666666666666667,
              "duration": 0.3229166666666667
            }
          ]
        },
        "8": {
          "ctab": {
            "srcChannel": 8,
            "name": "Perc",
            "accType": "SUBRHYTHM",
            "editable": false,
            "mutedNotes": [],
            "mutedChords": [],
            "autoStart": true,
            "sourceChordNote": 0,
            "sourceChordType": "Maj7",
            "ctb2Low": null,
            "ctb2Main": {
              "ntr": "ROOT_FIXED",
              "ntt": "BYPASS",
              "bassOn": false,
              "chordRootUpperLimit": 6,
              "noteLowLimit": 0,
              "noteHighLimit": 127,
              "rtr": "PITCH_SHIFT"
            },
            "ctb2High": null
          },
          "notes": [
            {
              "pitch": 54,
              "velocity": 36,
              "position": 0,
              "duration": 0.010416666666666666
            },
            {
              "pitch": 54,
              "velocity": 25,
              "position": 0.3333333333333333,
              "duration": 0.010416666666666666
            },
            {
              "pitch": 54,
              "velocity": 26,
              "position": 0.6666666666666666,
              "duration": 0.010416666666666666
            },
            {
              "pitch": 54,
              "velocity": 90,
              "position": 1,
              "duration": 0.010416666666666666
            },
            {
              "pitch": 54,
              "velocity": 25,
              "position": 1.3333333333333333,
              "duration": 0.010416666666666666
            },
            {
              "pitch": 54,
              "velocity": 19,
              "position": 1.6666666666666667,
              "duration": 0.010416666666666666
            },
            {
              "pitch": 54,
              "velocity": 36,
              "position": 2,
              "duration": 0.010416666666666666
            },
            {
              "pitch": 54,
              "velocity": 25,
              "position": 2.3333333333333335,
              "duration": 0.010416666666666666
            },
            {
              "pitch": 54,
              "velocity": 26,
              "position": 2.6666666666666665,
              "duration": 0.010416666666666666
            },
            {
              "pitch": 54,
              "velocity": 90,
              "position": 3,
              "duration": 0.010416666666666666
            },
            {
              "pitch": 54,
              "velocity": 25,
              "position": 3.3333333333333335,
              "duration": 0.010416666666666666
            },
            {
              "pitch": 54,
              "velocity": 19,
              "position": 3.6666666666666665,
              "duration": 0.010416666666666666
            },
            {
              "pitch": 54,
              "velocity": 36,
              "position": 4,
              "duration": 0.010416666666666666
            },
            {
              "pitch": 54,
              "velocity": 25,
              "position": 4.333333333333333,
              "duration": 0.010416666666666666
            },
            {
              "pitch": 54,
              "velocity": 26,
              "position": 4.666666666666667,
              "duration": 0.010416666666666666
            },
            {
              "pitch": 54,
              "velocity": 90,
              "position": 5,
              "duration": 0.010416666666666666
            },
            {
              "pitch": 54,
              "velocity": 25,
              "position": 5.333333333333333,
              "duration": 0.010416666666666666
            },
            {
              "pitch": 54,
              "velocity": 19,
              "position": 5.666666666666667,
              "duration": 0.010416666666666666
            },
            {
              "pitch": 54,
              "velocity": 36,
              "position": 6,
              "duration": 0.010416666666666666
            },
            {
              "pitch": 54,
              "velocity": 25,
              "position": 6.333333333333333,
              "duration": 0.010416666666666666
            },
            {
              "pitch": 54,
              "velocity": 26,
              "position": 6.666666666666667,
              "duration": 0.010416666666666666
            },
            {
              "pitch": 54,
              "velocity": 90,
              "position": 7,
              "duration": 0.010416666666666666
            },
            {
              "pitch": 54,
              "velocity": 25,
              "position": 7.333333333333333,
              "duration": 0.010416666666666666
            },
            {
              "pitch": 54,
              "velocity": 19,
              "position": 7.666666666666667,
              "duration": 0.010416666666666666
            }
          ]
        },
        "9": {
          "ctab": {
            "srcChannel": 9,
            "name": "Drs",
            "accType": "RHYTHM",
            "editable": false,
            "mutedNotes": [],
            "mutedChords": [],
            "autoStart": true,
            "sourceChordNote": 0,
            "sourceChordType": "Maj7",
            "ctb2Low": null,
            "ctb2Main": {
              "ntr": "ROOT_FIXED",
              "ntt": "BYPASS",
              "bassOn": false,
              "chordRootUpperLimit": 6,
              "noteLowLimit": 0,
              "noteHighLimit": 127,
              "rtr": "PITCH_SHIFT"
            },
            "ctb2High": null
          },
          "notes": [
            {
              "pitch": 36,
              "velocity": 90,
              "position": 0,
              "duration": 0.010416666666666666
            },
            {
              "pitch": 42,
              "velocity": 80,
              "position": 0,
              "duration": 0.010416666666666666
            },
            {
              "pitch": 42,
              "velocity": 60,
              "position": 0.3333333333333333,
              "duration": 0.010416666666666666
            },
            {
              "pitch": 42,
              "velocity": 20,
              "position": 0.5520833333333334,
              "duration": 0.010416666666666666
            },
            {
              "pitch": 36,
              "velocity": 50,
              "position": 0.6666666666666666,
              "duration": 0.010416666666666666
            },
            {
              "pitch": 42,
              "velocity": 70,
              "position": 0.6666666666666666,
              "duration": 0.010416666666666666
            },
            {
              "pitch": 40,
              "velocity": 94,
              "position": 1,
              "duration": 0.010416666666666666
            },
            {
              "pitch": 42,
              "velocity": 80,
              "position": 1,
              "duration": 0.010416666666666666
            },
            {
              "pitch": 42,
              "velocity": 20,
              "position": 1.21875,
              "duration": 0.010416666666666666
            },
            {
              "pitch": 42,
              "velocity": 60,
              "position": 1.3333333333333333,
              "duration": 0.010416666666666666
            },
            {
              "pitch": 36,
              "velocity": 50,
              "position": 1.6666666666666667,
              "duration": 0.010416666666666666
            },
            {
              "pitch": 42,
              "velocity": 70,
              "position": 1.6666666666666667,
              "duration": 0.010416666666666666
            },
            {
              "pitch": 42,
              "velocity": 20,
              "position": 1.8854166666666667,
              "duration": 0.010416666666666666
            },
            {
              "pitch": 36,
              "velocity": 90,
              "position": 2,
              "duration": 0.010416666666666666
            },
            {
              "pitch": 42,
              "velocity": 80,
              "position": 2,
              "duration": 0.010416666666666666
            },
            {
              "pitch": 42,
              "velocity": 60,
              "position": 2.3333333333333335,
              "duration": 0.010416666666666666
            },
            {
              "pitch": 42,
              "velocity": 20,
              "position": 2.5520833333333335,
              "duration": 0.010416666666666666
            },
            {
              "pitch": 36,
              "velocity": 50,
              "position": 2.6666666666666665,
              "duration": 0.010416666666666666
            },
            {
              "pitch": 42,
              "velocity": 70,
              "position": 2.6666666666666665,
              "duration": 0.010416666666666666
            },
            {
              "pitch": 40,
              "velocity": 94,
              "position": 3,
              "duration": 0.010416666666666666
            },
            {
              "pitch": 42,
              "velocity": 80,
              "position": 3,
              "duration": 0.010416666666666666
            },
            {
              "pitch": 42,
              "velocity": 20,
              "position": 3.21875,
              "duration": 0.010416666666666666
            },
            {
              "pitch": 42,
              "velocity": 60,
              "position": 3.3333333333333335,
              "duration": 0.010416666666666666
            },
            {
              "pitch": 36,
              "velocity": 50,
              "position": 3.6666666666666665,
              "duration": 0.010416666666666666
            },
            {
              "pitch": 42,
              "velocity": 70,
              "position": 3.6666666666666665,
              "duration": 0.010416666666666666
            },
            {
              "pitch": 42,
              "velocity": 20,
              "position": 3.8854166666666665,
              "duration": 0.010416666666666666
            },
            {
              "pitch": 36,
              "velocity": 90,
              "position": 4,
              "duration": 0.010416666666666666
            },
            {
              "pitch": 42,
              "velocity": 80,
              "position": 4,
              "duration": 0.010416666666666666
            },
            {
              "pitch": 42,
              "velocity": 60,
              "position": 4.333333333333333,
              "duration": 0.010416666666666666
            },
            {
              "pitch": 42,
              "velocity": 20,
              "position": 4.552083333333333,
              "duration": 0.010416666666666666
            },
            {
              "pitch": 36,
              "velocity": 50,
              "position": 4.666666666666667,
              "duration": 0.010416666666666666
            },
            {
              "pitch": 42,
              "velocity": 70,
              "position": 4.666666666666667,
              "duration": 0.010416666666666666
            },
            {
              "pitch": 40,
              "velocity": 94,
              "position": 5,
              "duration": 0.010416666666666666
            },
            {
              "pitch": 42,
              "velocity": 80,
              "position": 5,
              "duration": 0.010416666666666666
            },
            {
              "pitch": 42,
              "velocity": 20,
              "position": 5.21875,
              "duration": 0.010416666666666666
            },
            {
              "pitch": 42,
              "velocity": 60,
              "position": 5.333333333333333,
              "duration": 0.010416666666666666
            },
            {
              "pitch": 36,
              "velocity": 50,
              "position": 5.666666666666667,
              "duration": 0.010416666666666666
            },
            {
              "pitch": 42,
              "velocity": 70,
              "position": 5.666666666666667,
              "duration": 0.010416666666666666
            },
            {
              "pitch": 42,
              "velocity": 20,
              "position": 5.885416666666667,
              "duration": 0.010416666666666666
            },
            {
              "pitch": 36,
              "velocity": 90,
              "position": 6,
              "duration": 0.010416666666666666
            },
            {
              "pitch": 42,
              "velocity": 80,
              "position": 6,
              "duration": 0.010416666666666666
            },
            {
              "pitch": 42,
              "velocity": 60,
              "position": 6.333333333333333,
              "duration": 0.010416666666666666
            },
            {
              "pitch": 42,
              "velocity": 20,
              "position": 6.552083333333333,
              "duration": 0.010416666666666666
            },
            {
              "pitch": 42,
              "velocity": 70,
              "position": 6.666666666666667,
              "duration": 0.010416666666666666
            },
            {
              "pitch": 40,
              "velocity": 94,
              "position": 7,
              "duration": 0.010416666666666666
            },
            {
              "pitch": 42,
              "velocity": 80,
              "position": 7,
              "duration": 0.010416666666666666
            },
            {
              "pitch": 42,
              "velocity": 20,
              "position": 7.21875,
              "duration": 0.010416666666666666
            },
            {
              "pitch": 36,
              "velocity": 50,
              "position": 7.333333333333333,
              "duration": 0.010416666666666666
            },
            {
              "pitch": 42,
              "velocity": 60,
              "position": 7.333333333333333,
              "duration": 0.010416666666666666
            },
            {
              "pitch": 36,
              "velocity": 50,
              "position": 7.666666666666667,
              "duration": 0.010416666666666666
            },
            {
              "pitch": 42,
              "velocity": 70,
              "position": 7.666666666666667,
              "duration": 0.010416666666666666
            },
            {
              "pitch": 42,
              "velocity": 20,
              "position": 7.885416666666667,
              "duration": 0.010416666666666666
            }
          ]
        },
        "10": {
          "ctab": {
            "srcChannel": 10,
            "name": "BassMain",
            "accType": "BASS",
            "editable": false,
            "mutedNotes": [],
            "mutedChords": [
              "7aug",
              "dim",
              "minMaj7(9)",
              "minMaj7",
              "min(9)",
              "m7b5",
              "min",
              "aug"
            ],
            "autoStart": false,
            "sourceChordNote": 0,
            "sourceChordType": "Maj7",
            "ctb2Low": null,
            "ctb2Main": {
              "ntr": "ROOT_TRANSPOSITION",
              "ntt": "MELODY",
              "bassOn": true,
              "chordRootUpperLimit": 8,
              "noteLowLimit": 28,
              "noteHighLimit": 127,
              "rtr": "PITCH_SHIFT_TO_ROOT"
            },
            "ctb2High": null
          },
          "notes": [
            {
              "pitch": 24,
              "velocity": 100,
              "position": 0,
              "duration": 0.6041666666666666
            },
            {
              "pitch": 24,
              "velocity": 89,
              "position": 0.6666666666666666,
              "duration": 0.2708333333333333
            },
            {
              "pitch": 28,
              "velocity": 100,
              "position": 1,
              "duration": 0.6041666666666666
            },
            {
              "pitch": 28,
              "velocity": 89,
              "position": 1.6666666666666667,
              "duration": 0.2708333333333333
            },
            {
              "pitch": 31,
              "velocity": 100,
              "position": 2,
              "duration": 0.6041666666666666
            },
            {
              "pitch": 31,
              "velocity": 89,
              "position": 2.6666666666666665,
              "duration": 0.2708333333333333
            },
            {
              "pitch": 28,
              "velocity": 100,
              "position": 3,
              "duration": 0.6041666666666666
            },
            {
              "pitch": 31,
              "velocity": 89,
              "position": 3.6666666666666665,
              "duration": 0.2708333333333333
            },
            {
              "pitch": 24,
              "velocity": 100,
              "position": 4,
              "duration": 0.6041666666666666
            },
            {
              "pitch": 24,
              "velocity": 89,
              "position": 4.666666666666667,
              "duration": 0.2708333333333333
            },
            {
              "pitch": 28,
              "velocity": 100,
              "position": 5,
              "duration": 0.6041666666666666
            },
            {
              "pitch": 28,
              "velocity": 89,
              "position": 5.666666666666667,
              "duration": 0.2708333333333333
            },
            {
              "pitch": 31,
              "velocity": 100,
              "position": 6,
              "duration": 0.6041666666666666
            },
            {
              "pitch": 31,
              "velocity": 89,
              "position": 6.666666666666667,
              "duration": 0.2708333333333333
            },
            {
              "pitch": 33,
              "velocity": 100,
              "position": 7,
              "duration": 0.3229166666666667
            },
            {
              "pitch": 31,
              "velocity": 89,
              "position": 7.333333333333333,
              "duration": 0.3229166666666667
            },
            {
              "pitch": 28,
              "velocity": 89,
              "position": 7.666666666666667,
              "duration": 0.3229166666666667
            }
          ]
        },
        "11": {
          "ctab": {
            "srcChannel": 11,
            "name": "60cCln",
            "accType": "CHORD1",
            "editable": false,
            "mutedNotes": [],
            "mutedChords": [
              "min",
              "Maj"
            ],
            "autoStart": false,
            "sourceChordNote": 0,
            "sourceChordType": "Maj7",
            "ctb2Low": null,
            "ctb2Main": {
              "ntr": "ROOT_FIXED",
              "ntt": "CHORD",
              "bassOn": false,
              "chordRootUpperLimit": 7,
              "noteLowLimit": 0,
              "noteHighLimit": 127,
              "rtr": "PITCH_SHIFT"
            },
            "ctb2High": null
          },
          "notes": [
            {
              "pitch": 59,
              "velocity": 80,
              "position": 0,
              "duration": 0.3229166666666667
            },
            {
              "pitch": 64,
              "velocity": 80,
              "position": 0,
              "duration": 0.32916666666666666
            },
            {
              "pitch": 67,
              "velocity": 80,
              "position": 0.010416666666666666,
              "duration": 0.3229166666666667
            },
            {
              "pitch": 59,
              "velocity": 40,
              "position": 0.3333333333333333,
              "duration": 0.3229166666666667
            },
            {
              "pitch": 64,
              "velocity": 40,
              "position": 0.3333333333333333,
              "duration": 0.32916666666666666
            },
            {
              "pitch": 67,
              "velocity": 40,
              "position": 0.34375,
              "duration": 0.3229166666666667
            },
            {
              "pitch": 59,
              "velocity": 60,
              "position": 0.6666666666666666,
              "duration": 0.3229166666666667
            },
            {
              "pitch": 64,
              "velocity": 60,
              "position": 0.6666666666666666,
              "duration": 0.32916666666666666
            },
            {
              "pitch": 67,
              "velocity": 60,
              "position": 0.6770833333333334,
              "duration": 0.3229166666666667
            },
            {
              "pitch": 59,
              "velocity": 100,
              "position": 1,
              "duration": 0.08333333333333333
            },
            {
              "pitch": 64,
              "velocity": 100,
              "position": 1,
              "duration": 0.08333333333333333
            },
            {
              "pitch": 67,
              "velocity": 100,
              "position": 1.0104166666666667,
              "duration": 0.08333333333333333
            },
            {
              "pitch": 59,
              "velocity": 60,
              "position": 1.3333333333333333,
              "duration": 0.010416666666666666
            },
            {
              "pitch": 64,
              "velocity": 60,
              "position": 1.3333333333333333,
              "duration": 0.010416666666666666
            },
            {
              "pitch": 67,
              "velocity": 60,
              "position": 1.34375,
              "duration": 0.010416666666666666
            },
            {
              "pitch": 59,
              "velocity": 80,
              "position": 1.6666666666666667,
              "duration": 0.65625
            },
            {
              "pitch": 64,
              "velocity": 80,
              "position": 1.6666666666666667,
              "duration": 0.6625
            },
            {
              "pitch": 67,
              "velocity": 80,
              "position": 1.6770833333333333,
              "duration": 0.65625
            },
            {
              "pitch": 59,
              "velocity": 40,
              "position": 2.3333333333333335,
              "duration": 0.3229166666666667
            },
            {
              "pitch": 64,
              "velocity": 40,
              "position": 2.3333333333333335,
              "duration": 0.32916666666666666
            },
            {
              "pitch": 67,
              "velocity": 40,
              "position": 2.34375,
              "duration": 0.3229166666666667
            },
            {
              "pitch": 59,
              "velocity": 60,
              "position": 2.6666666666666665,
              "duration": 0.3229166666666667
            },
            {
              "pitch": 64,
              "velocity": 60,
              "position": 2.6666666666666665,
              "duration": 0.32916666666666666
            },
            {
              "pitch": 67,
              "velocity": 60,
              "position": 2.6770833333333335,
              "duration": 0.3229166666666667
            },
            {
              "pitch": 59,
              "velocity": 100,
              "position": 3,
              "duration": 0.08333333333333333
            },
            {
              "pitch": 64,
              "velocity": 100,
              "position": 3,
              "duration": 0.08333333333333333
            },
            {
              "pitch": 67,
              "velocity": 100,
              "position": 3.0104166666666665,
              "duration": 0.08333333333333333
            },
            {
              "pitch": 59,
              "velocity": 60,
              "position": 3.3333333333333335,
              "duration": 0.010416666666666666
            },
            {
              "pitch": 64,
              "velocity": 60,
              "position": 3.3333333333333335,
              "duration": 0.010416666666666666
            },
            {
              "pitch": 67,
              "velocity": 60,
              "position": 3.34375,
              "duration": 0.010416666666666666
            },
            {
              "pitch": 59,
              "velocity": 80,
              "position": 3.6666666666666665,
              "duration": 0.010416666666666666
            },
            {
              "pitch": 64,
              "velocity": 80,
              "position": 3.6666666666666665,
              "duration": 0.010416666666666666
            },
            {
              "pitch": 67,
              "velocity": 80,
              "position": 3.6770833333333335,
              "duration": 0.010416666666666666
            },
            {
              "pitch": 59,
              "velocity": 80,
              "position": 4,
              "duration": 0.3229166666666667
            },
            {
              "pitch": 64,
              "velocity": 80,
              "position": 4,
              "duration": 0.32916666666666666
            },
            {
              "pitch": 67,
              "velocity": 80,
              "position": 4.010416666666667,
              "duration": 0.3229166666666667
            },
            {
              "pitch": 59,
              "velocity": 40,
              "position": 4.333333333333333,
              "duration": 0.3229166666666667
            },
            {
              "pitch": 64,
              "velocity": 40,
              "position": 4.333333333333333,
              "duration": 0.32916666666666666
            },
            {
              "pitch": 67,
              "velocity": 40,
              "position": 4.34375,
              "duration": 0.3229166666666667
            },
            {
              "pitch": 59,
              "velocity": 60,
              "position": 4.666666666666667,
              "duration": 0.3229166666666667
            },
            {
              "pitch": 64,
              "velocity": 60,
              "position": 4.666666666666667,
              "duration": 0.32916666666666666
            },
            {
              "pitch": 67,
              "velocity": 60,
              "position": 4.677083333333333,
              "duration": 0.3229166666666667
            },
            {
              "pitch": 59,
              "velocity": 100,
              "position": 5,
              "duration": 0.08333333333333333
            },
            {
              "pitch": 64,
              "velocity": 100,
              "position": 5,
              "duration": 0.08333333333333333
            },
            {
              "pitch": 67,
              "velocity": 100,
              "position": 5.010416666666667,
              "duration": 0.08333333333333333
            },
            {
              "pitch": 59,
              "velocity": 60,
              "position": 5.333333333333333,
              "duration": 0.010416666666666666
            },
            {
              "pitch": 64,
              "velocity": 60,
              "position": 5.333333333333333,
              "duration": 0.010416666666666666
            },
            {
              "pitch": 67,
              "velocity": 60,
              "position": 5.34375,
              "duration": 0.010416666666666666
            },
            {
              "pitch": 59,
              "velocity": 80,
              "position": 5.666666666666667,
              "duration": 0.65625
            },
            {
              "pitch": 64,
              "velocity": 80,
              "position": 5.666666666666667,
              "duration": 0.6625
            },
            {
              "pitch": 67,
              "velocity": 80,
              "position": 5.677083333333333,
              "duration": 0.65625
            },
            {
              "pitch": 59,
              "velocity": 40,
              "position": 6.333333333333333,
              "duration": 0.3229166666666667
            },
            {
              "pitch": 64,
              "velocity": 40,
              "position": 6.333333333333333,
              "duration": 0.32916666666666666
            },
            {
              "pitch": 67,
              "velocity": 40,
              "position": 6.34375,
              "duration": 0.3229166666666667
            },
            {
              "pitch": 59,
              "velocity": 60,
              "position": 6.666666666666667,
              "duration": 0.3229166666666667
            },
            {
              "pitch": 64,
              "velocity": 60,
              "position": 6.666666666666667,
              "duration": 0.32916666666666666
            },
            {
              "pitch": 67,
              "velocity": 60,
              "position": 6.677083333333333,
              "duration": 0.3229166666666667
            },
            {
              "pitch": 59,
              "velocity": 100,
              "position": 7,
              "duration": 0.08333333333333333
            },
            {
              "pitch": 64,
              "velocity": 100,
              "position": 7,
              "duration": 0.08333333333333333
            },
            {
              "pitch": 67,
              "velocity": 100,
              "position": 7.010416666666667,
              "duration": 0.08333333333333333
            },
            {
              "pitch": 59,
              "velocity": 60,
              "position": 7.333333333333333,
              "duration": 0.010416666666666666
            },
            {
              "pitch": 64,
              "velocity": 60,
              "position": 7.333333333333333,
              "duration": 0.010416666666666666
            },
            {
              "pitch": 67,
              "velocity": 60,
              "position": 7.34375,
              "duration": 0.010416666666666666
            },
            {
              "pitch": 59,
              "velocity": 80,
              "position": 7.666666666666667,
              "duration": 0.010416666666666666
            },
            {
              "pitch": 64,
              "velocity": 80,
              "position": 7.666666666666667,
              "duration": 0.010416666666666666
            },
            {
              "pitch": 67,
              "velocity": 80,
              "position": 7.677083333333333,
              "duration": 0.010416666666666666
            }
          ]
        },
        "12": {
          "ctab": {
            "srcChannel": 12,
            "name": "Pno RH",
            "accType": "CHORD2",
            "editable": false,
            "mutedNotes": [],
            "mutedChords": [
              "min",
              "Maj"
            ],
            "autoStart": false,
            "sourceChordNote": 0,
            "sourceChordType": "Maj7",
            "ctb2Low": null,
            "ctb2Main": {
              "ntr": "ROOT_FIXED",
              "ntt": "CHORD",
              "bassOn": false,
              "chordRootUpperLimit": 7,
              "noteLowLimit": 0,
              "noteHighLimit": 79,
              "rtr": "PITCH_SHIFT"
            },
            "ctb2High": null
          },
          "notes": [
            {
              "pitch": 64,
              "velocity": 69,
              "position": 0,
              "duration": 0.3229166666666667
            },
            {
              "pitch": 67,
              "velocity": 66,
              "position": 0,
              "duration": 0.3229166666666667
            },
            {
              "pitch": 71,
              "velocity": 71,
              "position": 0,
              "duration": 0.3229166666666667
            },
            {
              "pitch": 64,
              "velocity": 60,
              "position": 0.3333333333333333,
              "duration": 0.3229166666666667
            },
            {
              "pitch": 67,
              "velocity": 58,
              "position": 0.3333333333333333,
              "duration": 0.3229166666666667
            },
            {
              "pitch": 71,
              "velocity": 53,
              "position": 0.3333333333333333,
              "duration": 0.3229166666666667
            },
            {
              "pitch": 64,
              "velocity": 50,
              "position": 0.6666666666666666,
              "duration": 0.3229166666666667
            },
            {
              "pitch": 67,
              "velocity": 48,
              "position": 0.6666666666666666,
              "duration": 0.3229166666666667
            },
            {
              "pitch": 71,
              "velocity": 49,
              "position": 0.6666666666666666,
              "duration": 0.3229166666666667
            },
            {
              "pitch": 64,
              "velocity": 55,
              "position": 1,
              "duration": 0.3229166666666667
            },
            {
              "pitch": 67,
              "velocity": 52,
              "position": 1,
              "duration": 0.3229166666666667
            },
            {
              "pitch": 71,
              "velocity": 58,
              "position": 1,
              "duration": 0.3229166666666667
            },
            {
              "pitch": 64,
              "velocity": 55,
              "position": 1.3333333333333333,
              "duration": 0.21458333333333332
            },
            {
              "pitch": 67,
              "velocity": 48,
              "position": 1.3333333333333333,
              "duration": 0.3229166666666667
            },
            {
              "pitch": 71,
              "velocity": 60,
              "position": 1.3333333333333333,
              "duration": 0.3229166666666667
            },
            {
              "pitch": 64,
              "velocity": 78,
              "position": 1.5520833333333333,
              "duration": 0.4375
            },
            {
              "pitch": 67,
              "velocity": 93,
              "position": 1.6666666666666667,
              "duration": 0.3229166666666667
            },
            {
              "pitch": 71,
              "velocity": 82,
              "position": 1.6666666666666667,
              "duration": 0.3229166666666667
            },
            {
              "pitch": 64,
              "velocity": 50,
              "position": 2,
              "duration": 0.3229166666666667
            },
            {
              "pitch": 67,
              "velocity": 55,
              "position": 2,
              "duration": 0.3229166666666667
            },
            {
              "pitch": 71,
              "velocity": 64,
              "position": 2,
              "duration": 0.3229166666666667
            },
            {
              "pitch": 64,
              "velocity": 48,
              "position": 2.3333333333333335,
              "duration": 0.3229166666666667
            },
            {
              "pitch": 67,
              "velocity": 58,
              "position": 2.3333333333333335,
              "duration": 0.3229166666666667
            },
            {
              "pitch": 71,
              "velocity": 54,
              "position": 2.3333333333333335,
              "duration": 0.3229166666666667
            },
            {
              "pitch": 64,
              "velocity": 47,
              "position": 2.6666666666666665,
              "duration": 0.3229166666666667
            },
            {
              "pitch": 67,
              "velocity": 52,
              "position": 2.6666666666666665,
              "duration": 0.3229166666666667
            },
            {
              "pitch": 71,
              "velocity": 58,
              "position": 2.6666666666666665,
              "duration": 0.3229166666666667
            },
            {
              "pitch": 64,
              "velocity": 64,
              "position": 3,
              "duration": 0.3229166666666667
            },
            {
              "pitch": 67,
              "velocity": 58,
              "position": 3,
              "duration": 0.3229166666666667
            },
            {
              "pitch": 71,
              "velocity": 63,
              "position": 3,
              "duration": 0.3229166666666667
            },
            {
              "pitch": 64,
              "velocity": 47,
              "position": 3.3333333333333335,
              "duration": 0.21458333333333332
            },
            {
              "pitch": 67,
              "velocity": 48,
              "position": 3.3333333333333335,
              "duration": 0.3229166666666667
            },
            {
              "pitch": 71,
              "velocity": 60,
              "position": 3.3333333333333335,
              "duration": 0.3229166666666667
            },
            {
              "pitch": 64,
              "velocity": 81,
              "position": 3.5520833333333335,
              "duration": 0.3229166666666667
            },
            {
              "pitch": 67,
              "velocity": 101,
              "position": 3.6666666666666665,
              "duration": 0.3229166666666667
            },
            {
              "pitch": 71,
              "velocity": 77,
              "position": 3.6666666666666665,
              "duration": 0.3229166666666667
            },
            {
              "pitch": 64,
              "velocity": 70,
              "position": 3.8854166666666665,
              "duration": 0.4375
            },
            {
              "pitch": 67,
              "velocity": 75,
              "position": 4,
              "duration": 0.3229166666666667
            },
            {
              "pitch": 71,
              "velocity": 85,
              "position": 4,
              "duration": 0.3229166666666667
            },
            {
              "pitch": 64,
              "velocity": 55,
              "position": 4.333333333333333,
              "duration": 0.3229166666666667
            },
            {
              "pitch": 67,
              "velocity": 60,
              "position": 4.333333333333333,
              "duration": 0.3229166666666667
            },
            {
              "pitch": 71,
              "velocity": 54,
              "position": 4.333333333333333,
              "duration": 0.3229166666666667
            },
            {
              "pitch": 64,
              "velocity": 50,
              "position": 4.666666666666667,
              "duration": 0.3229166666666667
            },
            {
              "pitch": 67,
              "velocity": 48,
              "position": 4.666666666666667,
              "duration": 0.3229166666666667
            },
            {
              "pitch": 71,
              "velocity": 58,
              "position": 4.666666666666667,
              "duration": 0.3229166666666667
            },
            {
              "pitch": 64,
              "velocity": 68,
              "position": 5,
              "duration": 0.3229166666666667
            },
            {
              "pitch": 67,
              "velocity": 75,
              "position": 5,
              "duration": 0.3229166666666667
            },
            {
              "pitch": 71,
              "velocity": 68,
              "position": 5,
              "duration": 0.3229166666666667
            },
            {
              "pitch": 64,
              "velocity": 47,
              "position": 5.333333333333333,
              "duration": 0.21458333333333332
            },
            {
              "pitch": 67,
              "velocity": 50,
              "position": 5.333333333333333,
              "duration": 0.3229166666666667
            },
            {
              "pitch": 71,
              "velocity": 60,
              "position": 5.333333333333333,
              "duration": 0.3229166666666667
            },
            {
              "pitch": 64,
              "velocity": 72,
              "position": 5.552083333333333,
              "duration": 0.3229166666666667
            },
            {
              "pitch": 67,
              "velocity": 91,
              "position": 5.666666666666667,
              "duration": 0.3229166666666667
            },
            {
              "pitch": 71,
              "velocity": 85,
              "position": 5.666666666666667,
              "duration": 0.3229166666666667
            },
            {
              "pitch": 64,
              "velocity": 67,
              "position": 5.885416666666667,
              "duration": 0.4375
            },
            {
              "pitch": 67,
              "velocity": 82,
              "position": 6,
              "duration": 0.3229166666666667
            },
            {
              "pitch": 71,
              "velocity": 81,
              "position": 6,
              "duration": 0.3229166666666667
            },
            {
              "pitch": 64,
              "velocity": 55,
              "position": 6.333333333333333,
              "duration": 0.3229166666666667
            },
            {
              "pitch": 67,
              "velocity": 68,
              "position": 6.333333333333333,
              "duration": 0.3229166666666667
            },
            {
              "pitch": 71,
              "velocity": 68,
              "position": 6.333333333333333,
              "duration": 0.3229166666666667
            },
            {
              "pitch": 64,
              "velocity": 50,
              "position": 6.666666666666667,
              "duration": 0.3229166666666667
            },
            {
              "pitch": 67,
              "velocity": 54,
              "position": 6.666666666666667,
              "duration": 0.3229166666666667
            },
            {
              "pitch": 71,
              "velocity": 63,
              "position": 6.666666666666667,
              "duration": 0.3229166666666667
            },
            {
              "pitch": 64,
              "velocity": 50,
              "position": 7,
              "duration": 0.3229166666666667
            },
            {
              "pitch": 67,
              "velocity": 70,
              "position": 7,
              "duration": 0.3229166666666667
            },
            {
              "pitch": 71,
              "velocity": 73,
              "position": 7,
              "duration": 0.3229166666666667
            },
            {
              "pitch": 64,
              "velocity": 58,
              "position": 7.333333333333333,
              "duration": 0.21458333333333332
            },
            {
              "pitch": 67,
              "velocity": 58,
              "position": 7.333333333333333,
              "duration": 0.3229166666666667
            },
            {
              "pitch": 71,
              "velocity": 61,
              "position": 7.333333333333333,
              "duration": 0.3229166666666667
            },
            {
              "pitch": 64,
              "velocity": 72,
              "position": 7.552083333333333,
              "duration": 0.4375
            },
            {
              "pitch": 67,
              "velocity": 98,
              "position": 7.666666666666667,
              "duration": 0.3229166666666667
            },
            {
              "pitch": 71,
              "velocity": 81,
              "position": 7.666666666666667,
              "duration": 0.3229166666666667
            }
          ]
        },
        "13": {
          "ctab": {
            "srcChannel": 13,
            "name": "Org",
            "accType": "PAD",
            "editable": false,
            "mutedNotes": [],
            "mutedChords": [
              "min",
              "Maj"
            ],
            "autoStart": false,
            "sourceChordNote": 0,
            "sourceChordType": "Maj7",
            "ctb2Low": null,
            "ctb2Main": {
              "ntr": "ROOT_FIXED",
              "ntt": "CHORD",
              "bassOn": false,
              "chordRootUpperLimit": 7,
              "noteLowLimit": 0,
              "noteHighLimit": 127,
              "rtr": "PITCH_SHIFT"
            },
            "ctb2High": null
          },
          "notes": [
            {
              "pitch": 64,
              "velocity": 120,
              "position": 0,
              "duration": 7.989583333333333
            },
            {
              "pitch": 67,
              "velocity": 120,
              "position": 0,
              "duration": 7.989583333333333
            },
            {
              "pitch": 71,
              "velocity": 120,
              "position": 0,
              "duration": 7.989583333333333
            }
          ]
        },
        "14": {
          "ctab": {
            "srcChannel": 14,
            "name": "ClGt",
            "accType": "PHRASE1",
            "editable": false,
            "mutedNotes": [],
            "mutedChords": [
              "min",
              "Maj"
            ],
            "autoStart": false,
            "sourceChordNote": 0,
            "sourceChordType": "Maj7",
            "ctb2Low": null,
            "ctb2Main": {
              "ntr": "ROOT_TRANSPOSITION",
              "ntt": "MELODY",
              "bassOn": false,
              "chordRootUpperLimit": 4,
              "noteLowLimit": 0,
              "noteHighLimit": 127,
              "rtr": "PITCH_SHIFT"
            },
            "ctb2High": null
          },
          "notes": [
            {
              "pitch": 64,
              "velocity": 116,
              "position": 0,
              "duration": 2.9895833333333335
            },
            {
              "pitch": 64,
              "velocity": 116,
              "position": 3,
              "duration": 0.3229166666666667
            },
            {
              "pitch": 59,
              "velocity": 16,
              "position": 3.3333333333333335,
              "duration": 0.3229166666666667
            },
            {
              "pitch": 55,
              "velocity": 16,
              "position": 3.6666666666666665,
              "duration": 0.3229166666666667
            },
            {
              "pitch": 59,
              "velocity": 116,
              "position": 4,
              "duration": 2.9895833333333335
            },
            {
              "pitch": 55,
              "velocity": 116,
              "position": 7,
              "duration": 0.3229166666666667
            },
            {
              "pitch": 59,
              "velocity": 16,
              "position": 7.333333333333333,
              "duration": 0.3229166666666667
            },
            {
              "pitch": 55,
              "velocity": 16,
              "position": 7.666666666666667,
              "duration": 0.3229166666666667
            }
          ]
        },
        "15": {
          "ctab": {
            "srcChannel": 15,
            "name": "EP",
            "accType": "PHRASE2",
            "editable": false,
            "mutedNotes": [],
            "mutedChords": [
              "min",
              "Maj"
            ],
            "autoStart": false,
            "sourceChordNote": 0,
            "sourceChordType": "Maj7",
            "ctb2Low": null,
            "ctb2Main": {
              "ntr": "ROOT_FIXED",
              "ntt": "CHORD",
              "bassOn": false,
              "chordRootUpperLimit": 7,
              "noteLowLimit": 0,
              "noteHighLimit": 127,
              "rtr": "PITCH_SHIFT"
            },
            "ctb2High": null
          },
          "notes": [
            {
              "pitch": 59,
              "velocity": 88,
              "position": 0,
              "duration": 3.214583333333333
            },
            {
              "pitch": 64,
              "velocity": 71,
              "position": 0,
              "duration": 3.3229166666666665
            },
            {
              "pitch": 67,
              "velocity": 63,
              "position": 0,
              "duration": 3.3229166666666665
            },
            {
              "pitch": 59,
              "velocity": 88,
              "position": 3.21875,
              "duration": 0.4375
            },
            {
              "pitch": 64,
              "velocity": 114,
              "position": 3.3333333333333335,
              "duration": 0.3229166666666667
            },
            {
              "pitch": 67,
              "velocity": 95,
              "position": 3.3333333333333335,
              "duration": 0.3229166666666667
            },
            {
              "pitch": 59,
              "velocity": 69,
              "position": 3.6666666666666665,
              "duration": 0.3229166666666667
            },
            {
              "pitch": 64,
              "velocity": 59,
              "position": 3.6666666666666665,
              "duration": 0.3229166666666667
            },
            {
              "pitch": 67,
              "velocity": 54,
              "position": 3.6666666666666665,
              "duration": 0.3229166666666667
            },
            {
              "pitch": 59,
              "velocity": 67,
              "position": 4,
              "duration": 3.3229166666666665
            },
            {
              "pitch": 64,
              "velocity": 69,
              "position": 4,
              "duration": 3.3229166666666665
            },
            {
              "pitch": 67,
              "velocity": 67,
              "position": 4,
              "duration": 3.3229166666666665
            },
            {
              "pitch": 59,
              "velocity": 71,
              "position": 7.333333333333333,
              "duration": 0.3229166666666667
            },
            {
              "pitch": 64,
              "velocity": 65,
              "position": 7.333333333333333,
              "duration": 0.3229166666666667
            },
            {
              "pitch": 67,
              "velocity": 53,
              "position": 7.333333333333333,
              "duration": 0.3229166666666667
            },
            {
              "pitch": 59,
              "velocity": 71,
              "position": 7.666666666666667,
              "duration": 0.3229166666666667
            },
            {
              "pitch": 64,
              "velocity": 65,
              "position": 7.666666666666667,
              "duration": 0.3229166666666667
            },
            {
              "pitch": 67,
              "velocity": 53,
              "position": 7.666666666666667,
              "duration": 0.3229166666666667
            }
          ]
        }
      }
    },
    "Main_D": {
      "type": "Main_D",
      "sizeInBeats": 8,
      "channels": {
        "0": {
          "ctab": {
            "srcChannel": 0,
            "name": "Pno LH",
            "accType": "CHORD2",
            "editable": false,
            "mutedNotes": [],
            "mutedChords": [],
            "autoStart": false,
            "sourceChordNote": 0,
            "sourceChordType": "Maj7",
            "ctb2Low": null,
            "ctb2Main": {
              "ntr": "ROOT_TRANSPOSITION",
              "ntt": "MELODY",
              "bassOn": true,
              "chordRootUpperLimit": 8,
              "noteLowLimit": 0,
              "noteHighLimit": 127,
              "rtr": "PITCH_SHIFT_TO_ROOT"
            },
            "ctb2High": null
          },
          "notes": [
            {
              "pitch": 36,
              "velocity": 100,
              "position": 0,
              "duration": 0.9895833333333334
            },
            {
              "pitch": 40,
              "velocity": 70,
              "position": 1,
              "duration": 0.9895833333333334
            },
            {
              "pitch": 43,
              "velocity": 40,
              "position": 2,
              "duration": 0.9895833333333334
            },
            {
              "pitch": 43,
              "velocity": 100,
              "position": 3.5520833333333335,
              "duration": 0.4375
            },
            {
              "pitch": 36,
              "velocity": 100,
              "position": 4,
              "duration": 0.9895833333333334
            },
            {
              "pitch": 40,
              "velocity": 70,
              "position": 5,
              "duration": 0.9895833333333334
            },
            {
              "pitch": 43,
              "velocity": 40,
              "position": 6,
              "duration": 0.9895833333333334
            },
            {
              "pitch": 43,
              "velocity": 100,
              "position": 7.552083333333333,
              "duration": 0.4375
            }
          ]
        },
        "1": {
          "ctab": {
            "srcChannel": 1,
            "name": "BassAlt",
            "accType": "BASS",
            "editable": false,
            "mutedNotes": [],
            "mutedChords": [
              "1+2+5",
              "sus4",
              "1+5",
              "1+8",
              "Maj7aug",
              "7(#9)",
              "7(b13)",
              "7(b9)",
              "7(13)",
              "7#11",
              "7(9)",
              "7b5",
              "7sus4",
              "7th",
              "dim7",
              "min7(11)",
              "min7(9)",
              "min7",
              "min6",
              "Maj6(9)",
              "Maj7(9)",
              "Maj(9)",
              "Maj7#11",
              "Maj7",
              "Maj6",
              "Maj"
            ],
            "autoStart": false,
            "sourceChordNote": 0,
            "sourceChordType": "Maj7",
            "ctb2Low": null,
            "ctb2Main": {
              "ntr": "ROOT_TRANSPOSITION",
              "ntt": "MELODY",
              "bassOn": true,
              "chordRootUpperLimit": 8,
              "noteLowLimit": 28,
              "noteHighLimit": 127,
              "rtr": "PITCH_SHIFT_TO_ROOT"
            },
            "ctb2High": null
          },
          "notes": [
            {
              "pitch": 24,
              "velocity": 100,
              "position": 0,
              "duration": 0.88125
            },
            {
              "pitch": 24,
              "velocity": 89,
              "position": 0.8854166666666666,
              "duration": 0.10416666666666667
            },
            {
              "pitch": 28,
              "velocity": 100,
              "position": 1,
              "duration": 0.88125
            },
            {
              "pitch": 28,
              "velocity": 89,
              "position": 1.8854166666666667,
              "duration": 0.10416666666666667
            },
            {
              "pitch": 31,
              "velocity": 100,
              "position": 2,
              "duration": 0.88125
            },
            {
              "pitch": 31,
              "velocity": 89,
              "position": 2.8854166666666665,
              "duration": 0.10416666666666667
            },
            {
              "pitch": 36,
              "velocity": 100,
              "position": 3,
              "duration": 0.3229166666666667
            },
            {
              "pitch": 31,
              "velocity": 89,
              "position": 3.3333333333333335,
              "duration": 0.3229166666666667
            },
            {
              "pitch": 28,
              "velocity": 89,
              "position": 3.6666666666666665,
              "duration": 0.3229166666666667
            },
            {
              "pitch": 24,
              "velocity": 100,
              "position": 4,
              "duration": 0.88125
            },
            {
              "pitch": 24,
              "velocity": 89,
              "position": 4.885416666666667,
              "duration": 0.10416666666666667
            },
            {
              "pitch": 28,
              "velocity": 100,
              "position": 5,
              "duration": 0.88125
            },
            {
              "pitch": 28,
              "velocity": 89,
              "position": 5.885416666666667,
              "duration": 0.10416666666666667
            },
            {
              "pitch": 31,
              "velocity": 100,
              "position": 6,
              "duration": 0.88125
            },
            {
              "pitch": 31,
              "velocity": 89,
              "position": 6.885416666666667,
              "duration": 0.10416666666666667
            },
            {
              "pitch": 36,
              "velocity": 100,
              "position": 7,
              "duration": 0.3229166666666667
            },
            {
              "pitch": 31,
              "velocity": 89,
              "position": 7.333333333333333,
              "duration": 0.3229166666666667
            },
            {
              "pitch": 28,
              "velocity": 89,
              "position": 7.666666666666667,
              "duration": 0.3229166666666667
            }
          ]
        },
        "2": {
          "ctab": {
            "srcChannel": 2,
            "name": "60cCln S",
            "accType": "CHORD1",
            "editable": false,
            "mutedNotes": [],
            "mutedChords": [
              "1+2+5",
              "sus4",
              "1+5",
              "1+8",
              "7aug",
              "Maj7aug",
              "7(#9)",
              "7(b13)",
              "7(b9)",
              "7(13)",
              "7#11",
              "7(9)",
              "7b5",
              "7sus4",
              "7th",
              "dim7",
              "dim",
              "minMaj7(9)",
              "minMaj7",
              "min7(11)",
              "min7(9)",
              "min(9)",
              "m7b5",
              "min7",
              "min6",
              "aug",
              "Maj6(9)",
              "Maj7(9)",
              "Maj(9)",
              "Maj7#11",
              "Maj7",
              "Maj6"
            ],
            "autoStart": false,
            "sourceChordNote": 0,
            "sourceChordType": "Maj7",
            "ctb2Low": null,
            "ctb2Main": {
              "ntr": "ROOT_TRANSPOSITION",
              "ntt": "DORIAN_5",
              "bassOn": false,
              "chordRootUpperLimit": 4,
              "noteLowLimit": 54,
              "noteHighLimit": 127,
              "rtr": "PITCH_SHIFT"
            },
            "ctb2High": null
          },
          "notes": [
            {
              "pitch": 58,
              "velocity": 80,
              "position": 0,
              "duration": 0.3229166666666667
            },
            {
              "pitch": 64,
              "velocity": 80,
              "position": 0,
              "duration": 0.32916666666666666
            },
            {
              "pitch": 67,
              "velocity": 80,
              "position": 0.010416666666666666,
              "duration": 0.3229166666666667
            },
            {
              "pitch": 72,
              "velocity": 80,
              "position": 0.020833333333333332,
              "duration": 0.3229166666666667
            },
            {
              "pitch": 58,
              "velocity": 40,
              "position": 0.3333333333333333,
              "duration": 0.3229166666666667
            },
            {
              "pitch": 64,
              "velocity": 40,
              "position": 0.3333333333333333,
              "duration": 0.3333333333333333
            },
            {
              "pitch": 67,
              "velocity": 40,
              "position": 0.34375,
              "duration": 0.3229166666666667
            },
            {
              "pitch": 72,
              "velocity": 40,
              "position": 0.3541666666666667,
              "duration": 0.3229166666666667
            },
            {
              "pitch": 58,
              "velocity": 60,
              "position": 0.6666666666666666,
              "duration": 0.3229166666666667
            },
            {
              "pitch": 67,
              "velocity": 60,
              "position": 0.6770833333333334,
              "duration": 0.3229166666666667
            },
            {
              "pitch": 65,
              "velocity": 60,
              "position": 0.6666666666666666,
              "duration": 0.3333333333333333
            },
            {
              "pitch": 72,
              "velocity": 60,
              "position": 0.6875,
              "duration": 0.3229166666666667
            },
            {
              "pitch": 58,
              "velocity": 100,
              "position": 1,
              "duration": 0.08333333333333333
            },
            {
              "pitch": 64,
              "velocity": 100,
              "position": 1,
              "duration": 0.08333333333333333
            },
            {
              "pitch": 67,
              "velocity": 100,
              "position": 1.0104166666666667,
              "duration": 0.08333333333333333
            },
            {
              "pitch": 72,
              "velocity": 100,
              "position": 1.0208333333333333,
              "duration": 0.08333333333333333
            },
            {
              "pitch": 58,
              "velocity": 60,
              "position": 1.3333333333333333,
              "duration": 0.010416666666666666
            },
            {
              "pitch": 64,
              "velocity": 60,
              "position": 1.3333333333333333,
              "duration": 0.010416666666666666
            },
            {
              "pitch": 67,
              "velocity": 60,
              "position": 1.34375,
              "duration": 0.010416666666666666
            },
            {
              "pitch": 72,
              "velocity": 60,
              "position": 1.3541666666666667,
              "duration": 0.010416666666666666
            },
            {
              "pitch": 58,
              "velocity": 80,
              "position": 1.6666666666666667,
              "duration": 0.65625
            },
            {
              "pitch": 64,
              "velocity": 80,
              "position": 1.6666666666666667,
              "duration": 0.6625
            },
            {
              "pitch": 67,
              "velocity": 80,
              "position": 1.6770833333333333,
              "duration": 0.65625
            },
            {
              "pitch": 72,
              "velocity": 80,
              "position": 1.6875,
              "duration": 0.65625
            },
            {
              "pitch": 58,
              "velocity": 40,
              "position": 2.3333333333333335,
              "duration": 0.3229166666666667
            },
            {
              "pitch": 64,
              "velocity": 40,
              "position": 2.3333333333333335,
              "duration": 0.3333333333333333
            },
            {
              "pitch": 67,
              "velocity": 40,
              "position": 2.34375,
              "duration": 0.3229166666666667
            },
            {
              "pitch": 72,
              "velocity": 40,
              "position": 2.3541666666666665,
              "duration": 0.3229166666666667
            },
            {
              "pitch": 58,
              "velocity": 60,
              "position": 2.6666666666666665,
              "duration": 0.3229166666666667
            },
            {
              "pitch": 67,
              "velocity": 60,
              "position": 2.6770833333333335,
              "duration": 0.3229166666666667
            },
            {
              "pitch": 65,
              "velocity": 60,
              "position": 2.6666666666666665,
              "duration": 0.3333333333333333
            },
            {
              "pitch": 72,
              "velocity": 60,
              "position": 2.6875,
              "duration": 0.3229166666666667
            },
            {
              "pitch": 58,
              "velocity": 100,
              "position": 3,
              "duration": 0.08333333333333333
            },
            {
              "pitch": 64,
              "velocity": 100,
              "position": 3,
              "duration": 0.08333333333333333
            },
            {
              "pitch": 67,
              "velocity": 100,
              "position": 3.0104166666666665,
              "duration": 0.08333333333333333
            },
            {
              "pitch": 72,
              "velocity": 100,
              "position": 3.0208333333333335,
              "duration": 0.08333333333333333
            },
            {
              "pitch": 62,
              "velocity": 80,
              "position": 3.3333333333333335,
              "duration": 0.3229166666666667
            },
            {
              "pitch": 65,
              "velocity": 80,
              "position": 3.3333333333333335,
              "duration": 0.32916666666666666
            },
            {
              "pitch": 70,
              "velocity": 80,
              "position": 3.34375,
              "duration": 0.3229166666666667
            },
            {
              "pitch": 60,
              "velocity": 100,
              "position": 3.6666666666666665,
              "duration": 0.3229166666666667
            },
            {
              "pitch": 65,
              "velocity": 100,
              "position": 3.6666666666666665,
              "duration": 0.3333333333333333
            },
            {
              "pitch": 69,
              "velocity": 100,
              "position": 3.6770833333333335,
              "duration": 0.3229166666666667
            },
            {
              "pitch": 58,
              "velocity": 80,
              "position": 4,
              "duration": 0.3229166666666667
            },
            {
              "pitch": 64,
              "velocity": 80,
              "position": 4,
              "duration": 0.32916666666666666
            },
            {
              "pitch": 67,
              "velocity": 80,
              "position": 4.010416666666667,
              "duration": 0.3229166666666667
            },
            {
              "pitch": 58,
              "velocity": 40,
              "position": 4.333333333333333,
              "duration": 0.3229166666666667
            },
            {
              "pitch": 67,
              "velocity": 40,
              "position": 4.34375,
              "duration": 0.3229166666666667
            },
            {
              "pitch": 64,
              "velocity": 40,
              "position": 4.333333333333333,
              "duration": 0.3333333333333333
            },
            {
              "pitch": 72,
              "velocity": 40,
              "position": 4.354166666666667,
              "duration": 0.3229166666666667
            },
            {
              "pitch": 58,
              "velocity": 60,
              "position": 4.666666666666667,
              "duration": 0.3229166666666667
            },
            {
              "pitch": 67,
              "velocity": 60,
              "position": 4.677083333333333,
              "duration": 0.3229166666666667
            },
            {
              "pitch": 65,
              "velocity": 60,
              "position": 4.666666666666667,
              "duration": 0.3333333333333333
            },
            {
              "pitch": 72,
              "velocity": 60,
              "position": 4.6875,
              "duration": 0.3229166666666667
            },
            {
              "pitch": 58,
              "velocity": 100,
              "position": 5,
              "duration": 0.08333333333333333
            },
            {
              "pitch": 64,
              "velocity": 100,
              "position": 5,
              "duration": 0.08333333333333333
            },
            {
              "pitch": 67,
              "velocity": 100,
              "position": 5.010416666666667,
              "duration": 0.08333333333333333
            },
            {
              "pitch": 72,
              "velocity": 100,
              "position": 5.020833333333333,
              "duration": 0.08333333333333333
            },
            {
              "pitch": 58,
              "velocity": 80,
              "position": 5.333333333333333,
              "duration": 0.3229166666666667
            },
            {
              "pitch": 64,
              "velocity": 80,
              "position": 5.333333333333333,
              "duration": 0.32916666666666666
            },
            {
              "pitch": 67,
              "velocity": 80,
              "position": 5.34375,
              "duration": 0.3229166666666667
            },
            {
              "pitch": 72,
              "velocity": 80,
              "position": 5.354166666666667,
              "duration": 0.3229166666666667
            },
            {
              "pitch": 58,
              "velocity": 40,
              "position": 5.666666666666667,
              "duration": 0.3229166666666667
            },
            {
              "pitch": 64,
              "velocity": 40,
              "position": 5.666666666666667,
              "duration": 0.32916666666666666
            },
            {
              "pitch": 67,
              "velocity": 40,
              "position": 5.677083333333333,
              "duration": 0.3229166666666667
            },
            {
              "pitch": 58,
              "velocity": 100,
              "position": 6,
              "duration": 0.010416666666666666
            },
            {
              "pitch": 72,
              "velocity": 40,
              "position": 5.6875,
              "duration": 0.3229166666666667
            },
            {
              "pitch": 64,
              "velocity": 100,
              "position": 6,
              "duration": 0.020833333333333332
            },
            {
              "pitch": 67,
              "velocity": 100,
              "position": 6.010416666666667,
              "duration": 0.010416666666666666
            },
            {
              "pitch": 72,
              "velocity": 100,
              "position": 6.020833333333333,
              "duration": 0.010416666666666666
            },
            {
              "pitch": 58,
              "velocity": 40,
              "position": 6.333333333333333,
              "duration": 0.3229166666666667
            },
            {
              "pitch": 64,
              "velocity": 40,
              "position": 6.333333333333333,
              "duration": 0.3333333333333333
            },
            {
              "pitch": 67,
              "velocity": 40,
              "position": 6.34375,
              "duration": 0.3229166666666667
            },
            {
              "pitch": 72,
              "velocity": 40,
              "position": 6.354166666666667,
              "duration": 0.3229166666666667
            },
            {
              "pitch": 58,
              "velocity": 60,
              "position": 6.666666666666667,
              "duration": 0.3229166666666667
            },
            {
              "pitch": 67,
              "velocity": 60,
              "position": 6.677083333333333,
              "duration": 0.3229166666666667
            },
            {
              "pitch": 65,
              "velocity": 60,
              "position": 6.666666666666667,
              "duration": 0.3333333333333333
            },
            {
              "pitch": 72,
              "velocity": 60,
              "position": 6.6875,
              "duration": 0.3229166666666667
            },
            {
              "pitch": 58,
              "velocity": 100,
              "position": 7,
              "duration": 0.08333333333333333
            },
            {
              "pitch": 64,
              "velocity": 100,
              "position": 7,
              "duration": 0.08333333333333333
            },
            {
              "pitch": 67,
              "velocity": 100,
              "position": 7.010416666666667,
              "duration": 0.08333333333333333
            },
            {
              "pitch": 72,
              "velocity": 100,
              "position": 7.020833333333333,
              "duration": 0.08333333333333333
            },
            {
              "pitch": 58,
              "velocity": 60,
              "position": 7.21875,
              "duration": 0.010416666666666666
            },
            {
              "pitch": 64,
              "velocity": 60,
              "position": 7.229166666666667,
              "duration": 0.010416666666666666
            },
            {
              "pitch": 58,
              "velocity": 100,
              "position": 7.333333333333333,
              "duration": 0.3229166666666667
            },
            {
              "pitch": 62,
              "velocity": 100,
              "position": 7.333333333333333,
              "duration": 0.3229166666666667
            },
            {
              "pitch": 65,
              "velocity": 100,
              "position": 7.34375,
              "duration": 0.3229166666666667
            },
            {
              "pitch": 64,
              "velocity": 40,
              "position": 7.666666666666667,
              "duration": 0.3125
            },
            {
              "pitch": 58,
              "velocity": 40,
              "position": 7.666666666666667,
              "duration": 0.3229166666666667
            }
          ]
        },
        "3": {
          "ctab": {
            "srcChannel": 3,
            "name": "PnoRH S",
            "accType": "CHORD2",
            "editable": false,
            "mutedNotes": [],
            "mutedChords": [
              "1+2+5",
              "sus4",
              "1+5",
              "1+8",
              "7aug",
              "Maj7aug",
              "7(#9)",
              "7(b13)",
              "7(b9)",
              "7(13)",
              "7#11",
              "7(9)",
              "7b5",
              "7sus4",
              "7th",
              "dim7",
              "dim",
              "minMaj7(9)",
              "minMaj7",
              "min7(11)",
              "min7(9)",
              "min(9)",
              "m7b5",
              "min7",
              "min6",
              "aug",
              "Maj6(9)",
              "Maj7(9)",
              "Maj(9)",
              "Maj7#11",
              "Maj7",
              "Maj6"
            ],
            "autoStart": false,
            "sourceChordNote": 0,
            "sourceChordType": "Maj7",
            "ctb2Low": null,
            "ctb2Main": {
              "ntr": "ROOT_TRANSPOSITION",
              "ntt": "DORIAN_5",
              "bassOn": false,
              "chordRootUpperLimit": 11,
              "noteLowLimit": 58,
              "noteHighLimit": 79,
              "rtr": "PITCH_SHIFT"
            },
            "ctb2High": null
          },
          "notes": [
            {
              "pitch": 46,
              "velocity": 92,
              "position": 0,
              "duration": 0.3229166666666667
            },
            {
              "pitch": 48,
              "velocity": 92,
              "position": 0,
              "duration": 0.3229166666666667
            },
            {
              "pitch": 52,
              "velocity": 78,
              "position": 0,
              "duration": 0.3229166666666667
            },
            {
              "pitch": 55,
              "velocity": 72,
              "position": 0,
              "duration": 0.3229166666666667
            },
            {
              "pitch": 46,
              "velocity": 60,
              "position": 0.3333333333333333,
              "duration": 0.3229166666666667
            },
            {
              "pitch": 48,
              "velocity": 60,
              "position": 0.3333333333333333,
              "duration": 0.3229166666666667
            },
            {
              "pitch": 52,
              "velocity": 55,
              "position": 0.3333333333333333,
              "duration": 0.3229166666666667
            },
            {
              "pitch": 55,
              "velocity": 57,
              "position": 0.3333333333333333,
              "duration": 0.3229166666666667
            },
            {
              "pitch": 48,
              "velocity": 53,
              "position": 0.6666666666666666,
              "duration": 0.3229166666666667
            },
            {
              "pitch": 53,
              "velocity": 51,
              "position": 0.6666666666666666,
              "duration": 0.3229166666666667
            },
            {
              "pitch": 57,
              "velocity": 49,
              "position": 0.6666666666666666,
              "duration": 0.3229166666666667
            },
            {
              "pitch": 46,
              "velocity": 77,
              "position": 1,
              "duration": 0.3229166666666667
            },
            {
              "pitch": 48,
              "velocity": 77,
              "position": 1,
              "duration": 0.3229166666666667
            },
            {
              "pitch": 52,
              "velocity": 62,
              "position": 1,
              "duration": 0.3229166666666667
            },
            {
              "pitch": 55,
              "velocity": 66,
              "position": 1,
              "duration": 0.3229166666666667
            },
            {
              "pitch": 46,
              "velocity": 52,
              "position": 1.3333333333333333,
              "duration": 0.3229166666666667
            },
            {
              "pitch": 48,
              "velocity": 52,
              "position": 1.3333333333333333,
              "duration": 0.3229166666666667
            },
            {
              "pitch": 52,
              "velocity": 59,
              "position": 1.3333333333333333,
              "duration": 0.3229166666666667
            },
            {
              "pitch": 55,
              "velocity": 52,
              "position": 1.3333333333333333,
              "duration": 0.3229166666666667
            },
            {
              "pitch": 48,
              "velocity": 53,
              "position": 1.6666666666666667,
              "duration": 0.3229166666666667
            },
            {
              "pitch": 53,
              "velocity": 57,
              "position": 1.6666666666666667,
              "duration": 0.3229166666666667
            },
            {
              "pitch": 57,
              "velocity": 60,
              "position": 1.6666666666666667,
              "duration": 0.3229166666666667
            },
            {
              "pitch": 46,
              "velocity": 55,
              "position": 2,
              "duration": 0.3229166666666667
            },
            {
              "pitch": 48,
              "velocity": 55,
              "position": 2,
              "duration": 0.3229166666666667
            },
            {
              "pitch": 52,
              "velocity": 55,
              "position": 2,
              "duration": 0.3229166666666667
            },
            {
              "pitch": 55,
              "velocity": 51,
              "position": 2,
              "duration": 0.3229166666666667
            },
            {
              "pitch": 46,
              "velocity": 47,
              "position": 2.3333333333333335,
              "duration": 0.3229166666666667
            },
            {
              "pitch": 48,
              "velocity": 47,
              "position": 2.3333333333333335,
              "duration": 0.3229166666666667
            },
            {
              "pitch": 52,
              "velocity": 47,
              "position": 2.3333333333333335,
              "duration": 0.3229166666666667
            },
            {
              "pitch": 55,
              "velocity": 47,
              "position": 2.3333333333333335,
              "duration": 0.3229166666666667
            },
            {
              "pitch": 48,
              "velocity": 50,
              "position": 2.6666666666666665,
              "duration": 0.3229166666666667
            },
            {
              "pitch": 53,
              "velocity": 44,
              "position": 2.6666666666666665,
              "duration": 0.3229166666666667
            },
            {
              "pitch": 57,
              "velocity": 47,
              "position": 2.6666666666666665,
              "duration": 0.3229166666666667
            },
            {
              "pitch": 46,
              "velocity": 50,
              "position": 3,
              "duration": 0.3229166666666667
            },
            {
              "pitch": 48,
              "velocity": 50,
              "position": 3,
              "duration": 0.3229166666666667
            },
            {
              "pitch": 52,
              "velocity": 52,
              "position": 3,
              "duration": 0.3229166666666667
            },
            {
              "pitch": 55,
              "velocity": 57,
              "position": 3,
              "duration": 0.3229166666666667
            },
            {
              "pitch": 46,
              "velocity": 68,
              "position": 3.3333333333333335,
              "duration": 0.3229166666666667
            },
            {
              "pitch": 50,
              "velocity": 68,
              "position": 3.3333333333333335,
              "duration": 0.3229166666666667
            },
            {
              "pitch": 53,
              "velocity": 60,
              "position": 3.3333333333333335,
              "duration": 0.3229166666666667
            },
            {
              "pitch": 55,
              "velocity": 49,
              "position": 3.3333333333333335,
              "duration": 0.3229166666666667
            },
            {
              "pitch": 48,
              "velocity": 96,
              "position": 3.6666666666666665,
              "duration": 0.3229166666666667
            },
            {
              "pitch": 53,
              "velocity": 91,
              "position": 3.6666666666666665,
              "duration": 0.3229166666666667
            },
            {
              "pitch": 57,
              "velocity": 96,
              "position": 3.6666666666666665,
              "duration": 0.3229166666666667
            },
            {
              "pitch": 46,
              "velocity": 71,
              "position": 4,
              "duration": 0.3229166666666667
            },
            {
              "pitch": 48,
              "velocity": 71,
              "position": 4,
              "duration": 0.3229166666666667
            },
            {
              "pitch": 52,
              "velocity": 62,
              "position": 4,
              "duration": 0.3229166666666667
            },
            {
              "pitch": 55,
              "velocity": 63,
              "position": 4,
              "duration": 0.3229166666666667
            },
            {
              "pitch": 46,
              "velocity": 35,
              "position": 4.333333333333333,
              "duration": 0.3229166666666667
            },
            {
              "pitch": 48,
              "velocity": 35,
              "position": 4.333333333333333,
              "duration": 0.3229166666666667
            },
            {
              "pitch": 52,
              "velocity": 46,
              "position": 4.333333333333333,
              "duration": 0.3229166666666667
            },
            {
              "pitch": 55,
              "velocity": 49,
              "position": 4.333333333333333,
              "duration": 0.3229166666666667
            },
            {
              "pitch": 48,
              "velocity": 48,
              "position": 4.666666666666667,
              "duration": 0.3229166666666667
            },
            {
              "pitch": 53,
              "velocity": 40,
              "position": 4.666666666666667,
              "duration": 0.3229166666666667
            },
            {
              "pitch": 57,
              "velocity": 40,
              "position": 4.666666666666667,
              "duration": 0.3229166666666667
            },
            {
              "pitch": 46,
              "velocity": 64,
              "position": 5,
              "duration": 0.3229166666666667
            },
            {
              "pitch": 48,
              "velocity": 64,
              "position": 5,
              "duration": 0.3229166666666667
            },
            {
              "pitch": 52,
              "velocity": 57,
              "position": 5,
              "duration": 0.3229166666666667
            },
            {
              "pitch": 55,
              "velocity": 47,
              "position": 5,
              "duration": 0.3229166666666667
            },
            {
              "pitch": 46,
              "velocity": 24,
              "position": 5.333333333333333,
              "duration": 0.3229166666666667
            },
            {
              "pitch": 48,
              "velocity": 24,
              "position": 5.333333333333333,
              "duration": 0.3229166666666667
            },
            {
              "pitch": 52,
              "velocity": 46,
              "position": 5.333333333333333,
              "duration": 0.3229166666666667
            },
            {
              "pitch": 55,
              "velocity": 43,
              "position": 5.333333333333333,
              "duration": 0.3229166666666667
            },
            {
              "pitch": 48,
              "velocity": 60,
              "position": 5.666666666666667,
              "duration": 0.3229166666666667
            },
            {
              "pitch": 53,
              "velocity": 51,
              "position": 5.666666666666667,
              "duration": 0.3229166666666667
            },
            {
              "pitch": 57,
              "velocity": 52,
              "position": 5.666666666666667,
              "duration": 0.3229166666666667
            },
            {
              "pitch": 46,
              "velocity": 68,
              "position": 6,
              "duration": 0.3229166666666667
            },
            {
              "pitch": 48,
              "velocity": 68,
              "position": 6,
              "duration": 0.3229166666666667
            },
            {
              "pitch": 52,
              "velocity": 60,
              "position": 6,
              "duration": 0.3229166666666667
            },
            {
              "pitch": 55,
              "velocity": 57,
              "position": 6,
              "duration": 0.3229166666666667
            },
            {
              "pitch": 46,
              "velocity": 40,
              "position": 6.333333333333333,
              "duration": 0.3229166666666667
            },
            {
              "pitch": 48,
              "velocity": 40,
              "position": 6.333333333333333,
              "duration": 0.3229166666666667
            },
            {
              "pitch": 52,
              "velocity": 39,
              "position": 6.333333333333333,
              "duration": 0.3229166666666667
            },
            {
              "pitch": 55,
              "velocity": 49,
              "position": 6.333333333333333,
              "duration": 0.3229166666666667
            },
            {
              "pitch": 48,
              "velocity": 45,
              "position": 6.666666666666667,
              "duration": 0.3229166666666667
            },
            {
              "pitch": 53,
              "velocity": 46,
              "position": 6.666666666666667,
              "duration": 0.3229166666666667
            },
            {
              "pitch": 57,
              "velocity": 41,
              "position": 6.666666666666667,
              "duration": 0.3229166666666667
            },
            {
              "pitch": 46,
              "velocity": 63,
              "position": 7,
              "duration": 0.3229166666666667
            },
            {
              "pitch": 50,
              "velocity": 63,
              "position": 7,
              "duration": 0.3229166666666667
            },
            {
              "pitch": 53,
              "velocity": 57,
              "position": 7,
              "duration": 0.3229166666666667
            },
            {
              "pitch": 55,
              "velocity": 54,
              "position": 7,
              "duration": 0.3229166666666667
            },
            {
              "pitch": 48,
              "velocity": 53,
              "position": 7.333333333333333,
              "duration": 0.3229166666666667
            },
            {
              "pitch": 53,
              "velocity": 44,
              "position": 7.333333333333333,
              "duration": 0.3229166666666667
            },
            {
              "pitch": 57,
              "velocity": 44,
              "position": 7.333333333333333,
              "duration": 0.3229166666666667
            },
            {
              "pitch": 46,
              "velocity": 91,
              "position": 7.666666666666667,
              "duration": 0.3229166666666667
            },
            {
              "pitch": 48,
              "velocity": 79,
              "position": 7.666666666666667,
              "duration": 0.3229166666666667
            },
            {
              "pitch": 52,
              "velocity": 67,
              "position": 7.666666666666667,
              "duration": 0.3229166666666667
            },
            {
              "pitch": 55,
              "velocity": 67,
              "position": 7.666666666666667,
              "duration": 0.3229166666666667
            }
          ]
        },
        "4": {
          "ctab": {
            "srcChannel": 4,
            "name": "Org S",
            "accType": "PAD",
            "editable": false,
            "mutedNotes": [],
            "mutedChords": [
              "1+2+5",
              "sus4",
              "1+5",
              "1+8",
              "7aug",
              "Maj7aug",
              "7(#9)",
              "7(b13)",
              "7(b9)",
              "7(13)",
              "7#11",
              "7(9)",
              "7b5",
              "7sus4",
              "7th",
              "dim7",
              "dim",
              "minMaj7(9)",
              "minMaj7",
              "min7(11)",
              "min7(9)",
              "min(9)",
              "m7b5",
              "min7",
              "min6",
              "aug",
              "Maj6(9)",
              "Maj7(9)",
              "Maj(9)",
              "Maj7#11",
              "Maj7",
              "Maj6"
            ],
            "autoStart": false,
            "sourceChordNote": 0,
            "sourceChordType": "Maj7",
            "ctb2Low": null,
            "ctb2Main": {
              "ntr": "ROOT_TRANSPOSITION",
              "ntt": "DORIAN_5",
              "bassOn": false,
              "chordRootUpperLimit": 5,
              "noteLowLimit": 58,
              "noteHighLimit": 79,
              "rtr": "PITCH_SHIFT"
            },
            "ctb2High": null
          },
          "notes": [
            {
              "pitch": 46,
              "velocity": 120,
              "position": 0,
              "duration": 7.989583333333333
            },
            {
              "pitch": 48,
              "velocity": 120,
              "position": 0,
              "duration": 7.989583333333333
            },
            {
              "pitch": 52,
              "velocity": 120,
              "position": 0,
              "duration": 7.989583333333333
            },
            {
              "pitch": 55,
              "velocity": 120,
              "position": 0,
              "duration": 7.989583333333333
            }
          ]
        },
        "5": {
          "ctab": {
            "srcChannel": 5,
            "name": "ClGtSMaj",
            "accType": "PHRASE1",
            "editable": false,
            "mutedNotes": [],
            "mutedChords": [
              "1+2+5",
              "sus4",
              "1+5",
              "1+8",
              "7aug",
              "Maj7aug",
              "7(#9)",
              "7(b13)",
              "7(b9)",
              "7(13)",
              "7#11",
              "7(9)",
              "7b5",
              "7sus4",
              "7th",
              "dim7",
              "dim",
              "minMaj7(9)",
              "minMaj7",
              "min7(11)",
              "min7(9)",
              "min(9)",
              "m7b5",
              "min7",
              "min6",
              "min",
              "aug",
              "Maj6(9)",
              "Maj7(9)",
              "Maj(9)",
              "Maj7#11",
              "Maj7",
              "Maj6"
            ],
            "autoStart": false,
            "sourceChordNote": 0,
            "sourceChordType": "Maj7",
            "ctb2Low": null,
            "ctb2Main": {
              "ntr": "ROOT_TRANSPOSITION",
              "ntt": "DORIAN_5",
              "bassOn": false,
              "chordRootUpperLimit": 4,
              "noteLowLimit": 0,
              "noteHighLimit": 127,
              "rtr": "PITCH_SHIFT"
            },
            "ctb2High": null
          },
          "notes": [
            {
              "pitch": 64,
              "velocity": 116,
              "position": 0,
              "duration": 2.9895833333333335
            },
            {
              "pitch": 72,
              "velocity": 30,
              "position": 0.3333333333333333,
              "duration": 2.65625
            },
            {
              "pitch": 67,
              "velocity": 116,
              "position": 4,
              "duration": 2.9895833333333335
            },
            {
              "pitch": 72,
              "velocity": 26,
              "position": 4.333333333333333,
              "duration": 2.65625
            },
            {
              "pitch": 60,
              "velocity": 28,
              "position": 4.666666666666667,
              "duration": 2.3229166666666665
            }
          ]
        },
        "6": {
          "ctab": {
            "srcChannel": 6,
            "name": "EP S",
            "accType": "PHRASE2",
            "editable": false,
            "mutedNotes": [],
            "mutedChords": [
              "1+2+5",
              "sus4",
              "1+5",
              "1+8",
              "7aug",
              "Maj7aug",
              "7(#9)",
              "7(b13)",
              "7(b9)",
              "7(13)",
              "7#11",
              "7(9)",
              "7b5",
              "7sus4",
              "7th",
              "dim7",
              "dim",
              "minMaj7(9)",
              "minMaj7",
              "min7(11)",
              "min7(9)",
              "min(9)",
              "m7b5",
              "min7",
              "min6",
              "aug",
              "Maj6(9)",
              "Maj7(9)",
              "Maj(9)",
              "Maj7#11",
              "Maj7",
              "Maj6"
            ],
            "autoStart": false,
            "sourceChordNote": 0,
            "sourceChordType": "Maj7",
            "ctb2Low": null,
            "ctb2Main": {
              "ntr": "ROOT_TRANSPOSITION",
              "ntt": "DORIAN_5",
              "bassOn": false,
              "chordRootUpperLimit": 4,
              "noteLowLimit": 0,
              "noteHighLimit": 127,
              "rtr": "PITCH_SHIFT"
            },
            "ctb2High": null
          },
          "notes": [
            {
              "pitch": 60,
              "velocity": 54,
              "position": 0,
              "duration": 0.5479166666666667
            },
            {
              "pitch": 64,
              "velocity": 54,
              "position": 0,
              "duration": 0.65625
            },
            {
              "pitch": 67,
              "velocity": 54,
              "position": 0,
              "duration": 0.65625
            },
            {
              "pitch": 60,
              "velocity": 82,
              "position": 0.5520833333333334,
              "duration": 0.4375
            },
            {
              "pitch": 65,
              "velocity": 69,
              "position": 0.6666666666666666,
              "duration": 0.3229166666666667
            },
            {
              "pitch": 69,
              "velocity": 69,
              "position": 0.6666666666666666,
              "duration": 0.3229166666666667
            },
            {
              "pitch": 66,
              "velocity": 114,
              "position": 1,
              "duration": 0.010416666666666666
            },
            {
              "pitch": 60,
              "velocity": 74,
              "position": 1,
              "duration": 0.5479166666666667
            },
            {
              "pitch": 67,
              "velocity": 67,
              "position": 1.0208333333333333,
              "duration": 0.6354166666666666
            },
            {
              "pitch": 70,
              "velocity": 92,
              "position": 1,
              "duration": 0.65625
            },
            {
              "pitch": 60,
              "velocity": 43,
              "position": 1.5520833333333333,
              "duration": 0.4375
            },
            {
              "pitch": 65,
              "velocity": 55,
              "position": 1.6666666666666667,
              "duration": 0.3229166666666667
            },
            {
              "pitch": 69,
              "velocity": 65,
              "position": 1.6666666666666667,
              "duration": 0.3229166666666667
            },
            {
              "pitch": 60,
              "velocity": 53,
              "position": 2,
              "duration": 0.5479166666666667
            },
            {
              "pitch": 64,
              "velocity": 40,
              "position": 2,
              "duration": 0.65625
            },
            {
              "pitch": 67,
              "velocity": 58,
              "position": 2,
              "duration": 0.65625
            },
            {
              "pitch": 60,
              "velocity": 65,
              "position": 2.5520833333333335,
              "duration": 0.4375
            },
            {
              "pitch": 65,
              "velocity": 76,
              "position": 2.6666666666666665,
              "duration": 0.3229166666666667
            },
            {
              "pitch": 69,
              "velocity": 69,
              "position": 2.6666666666666665,
              "duration": 0.3229166666666667
            },
            {
              "pitch": 66,
              "velocity": 74,
              "position": 3,
              "duration": 0.010416666666666666
            },
            {
              "pitch": 60,
              "velocity": 74,
              "position": 3,
              "duration": 0.5479166666666667
            },
            {
              "pitch": 67,
              "velocity": 99,
              "position": 3.0208333333333335,
              "duration": 0.6354166666666666
            },
            {
              "pitch": 70,
              "velocity": 99,
              "position": 3,
              "duration": 0.65625
            },
            {
              "pitch": 60,
              "velocity": 61,
              "position": 3.5520833333333335,
              "duration": 0.3229166666666667
            },
            {
              "pitch": 65,
              "velocity": 58,
              "position": 3.6666666666666665,
              "duration": 0.3229166666666667
            },
            {
              "pitch": 69,
              "velocity": 58,
              "position": 3.6666666666666665,
              "duration": 0.3229166666666667
            },
            {
              "pitch": 60,
              "velocity": 54,
              "position": 3.8854166666666665,
              "duration": 0.65625
            },
            {
              "pitch": 64,
              "velocity": 34,
              "position": 4,
              "duration": 0.65625
            },
            {
              "pitch": 67,
              "velocity": 40,
              "position": 4,
              "duration": 0.65625
            },
            {
              "pitch": 60,
              "velocity": 54,
              "position": 4.552083333333333,
              "duration": 0.4375
            },
            {
              "pitch": 65,
              "velocity": 69,
              "position": 4.666666666666667,
              "duration": 0.3229166666666667
            },
            {
              "pitch": 69,
              "velocity": 61,
              "position": 4.666666666666667,
              "duration": 0.3229166666666667
            },
            {
              "pitch": 66,
              "velocity": 76,
              "position": 5,
              "duration": 0.010416666666666666
            },
            {
              "pitch": 60,
              "velocity": 79,
              "position": 5,
              "duration": 0.5479166666666667
            },
            {
              "pitch": 67,
              "velocity": 99,
              "position": 5.020833333333333,
              "duration": 0.6354166666666666
            },
            {
              "pitch": 70,
              "velocity": 107,
              "position": 5,
              "duration": 0.65625
            },
            {
              "pitch": 60,
              "velocity": 55,
              "position": 5.552083333333333,
              "duration": 0.4375
            },
            {
              "pitch": 65,
              "velocity": 71,
              "position": 5.666666666666667,
              "duration": 0.3229166666666667
            },
            {
              "pitch": 69,
              "velocity": 65,
              "position": 5.666666666666667,
              "duration": 0.3229166666666667
            },
            {
              "pitch": 60,
              "velocity": 53,
              "position": 6,
              "duration": 0.5479166666666667
            },
            {
              "pitch": 64,
              "velocity": 53,
              "position": 6,
              "duration": 0.65625
            },
            {
              "pitch": 67,
              "velocity": 48,
              "position": 6,
              "duration": 0.65625
            },
            {
              "pitch": 60,
              "velocity": 55,
              "position": 6.552083333333333,
              "duration": 0.3229166666666667
            },
            {
              "pitch": 65,
              "velocity": 79,
              "position": 6.666666666666667,
              "duration": 0.3229166666666667
            },
            {
              "pitch": 69,
              "velocity": 76,
              "position": 6.666666666666667,
              "duration": 0.3229166666666667
            },
            {
              "pitch": 66,
              "velocity": 92,
              "position": 7,
              "duration": 0.010416666666666666
            },
            {
              "pitch": 60,
              "velocity": 59,
              "position": 6.885416666666667,
              "duration": 0.3229166666666667
            },
            {
              "pitch": 67,
              "velocity": 95,
              "position": 7.020833333333333,
              "duration": 0.3020833333333333
            },
            {
              "pitch": 70,
              "velocity": 107,
              "position": 7,
              "duration": 0.3229166666666667
            },
            {
              "pitch": 60,
              "velocity": 54,
              "position": 7.21875,
              "duration": 0.3229166666666667
            },
            {
              "pitch": 65,
              "velocity": 56,
              "position": 7.333333333333333,
              "duration": 0.3229166666666667
            },
            {
              "pitch": 69,
              "velocity": 65,
              "position": 7.333333333333333,
              "duration": 0.3229166666666667
            },
            {
              "pitch": 60,
              "velocity": 54,
              "position": 7.552083333333333,
              "duration": 0.4375
            },
            {
              "pitch": 64,
              "velocity": 67,
              "position": 7.666666666666667,
              "duration": 0.3229166666666667
            },
            {
              "pitch": 67,
              "velocity": 61,
              "position": 7.666666666666667,
              "duration": 0.3229166666666667
            }
          ]
        },
        "7": {
          "ctab": {
            "srcChannel": 7,
            "name": "ClGtSmin",
            "accType": "PHRASE1",
            "editable": false,
            "mutedNotes": [],
            "mutedChords": [
              "1+2+5",
              "sus4",
              "1+5",
              "1+8",
              "7aug",
              "Maj7aug",
              "7(#9)",
              "7(b13)",
              "7(b9)",
              "7(13)",
              "7#11",
              "7(9)",
              "7b5",
              "7sus4",
              "7th",
              "dim7",
              "dim",
              "minMaj7(9)",
              "minMaj7",
              "min7(11)",
              "min7(9)",
              "min(9)",
              "m7b5",
              "min7",
              "min6",
              "aug",
              "Maj6(9)",
              "Maj7(9)",
              "Maj(9)",
              "Maj7#11",
              "Maj7",
              "Maj6",
              "Maj"
            ],
            "autoStart": false,
            "sourceChordNote": 0,
            "sourceChordType": "Maj7",
            "ctb2Low": null,
            "ctb2Main": {
              "ntr": "ROOT_TRANSPOSITION",
              "ntt": "DORIAN_5",
              "bassOn": false,
              "chordRootUpperLimit": 4,
              "noteLowLimit": 0,
              "noteHighLimit": 127,
              "rtr": "PITCH_SHIFT"
            },
            "ctb2High": null
          },
          "notes": [
            {
              "pitch": 64,
              "velocity": 116,
              "position": 0,
              "duration": 2.9895833333333335
            },
            {
              "pitch": 72,
              "velocity": 30,
              "position": 0.3333333333333333,
              "duration": 2.65625
            },
            {
              "pitch": 67,
              "velocity": 116,
              "position": 4,
              "duration": 2.9895833333333335
            },
            {
              "pitch": 72,
              "velocity": 26,
              "position": 4.333333333333333,
              "duration": 2.65625
            },
            {
              "pitch": 60,
              "velocity": 28,
              "position": 4.666666666666667,
              "duration": 2.3229166666666665
            }
          ]
        },
        "8": {
          "ctab": {
            "srcChannel": 8,
            "name": "Perc",
            "accType": "SUBRHYTHM",
            "editable": false,
            "mutedNotes": [],
            "mutedChords": [],
            "autoStart": true,
            "sourceChordNote": 0,
            "sourceChordType": "Maj7",
            "ctb2Low": null,
            "ctb2Main": {
              "ntr": "ROOT_FIXED",
              "ntt": "BYPASS",
              "bassOn": false,
              "chordRootUpperLimit": 6,
              "noteLowLimit": 0,
              "noteHighLimit": 127,
              "rtr": "PITCH_SHIFT"
            },
            "ctb2High": null
          },
          "notes": [
            {
              "pitch": 54,
              "velocity": 36,
              "position": 0,
              "duration": 0.010416666666666666
            },
            {
              "pitch": 54,
              "velocity": 9,
              "position": 0.21875,
              "duration": 0.010416666666666666
            },
            {
              "pitch": 54,
              "velocity": 25,
              "position": 0.3333333333333333,
              "duration": 0.010416666666666666
            },
            {
              "pitch": 54,
              "velocity": 24,
              "position": 0.5520833333333334,
              "duration": 0.010416666666666666
            },
            {
              "pitch": 54,
              "velocity": 26,
              "position": 0.6666666666666666,
              "duration": 0.010416666666666666
            },
            {
              "pitch": 54,
              "velocity": 8,
              "position": 0.8854166666666666,
              "duration": 0.010416666666666666
            },
            {
              "pitch": 54,
              "velocity": 90,
              "position": 1,
              "duration": 0.010416666666666666
            },
            {
              "pitch": 54,
              "velocity": 13,
              "position": 1.21875,
              "duration": 0.010416666666666666
            },
            {
              "pitch": 54,
              "velocity": 25,
              "position": 1.3333333333333333,
              "duration": 0.010416666666666666
            },
            {
              "pitch": 54,
              "velocity": 10,
              "position": 1.5520833333333333,
              "duration": 0.010416666666666666
            },
            {
              "pitch": 54,
              "velocity": 19,
              "position": 1.6666666666666667,
              "duration": 0.010416666666666666
            },
            {
              "pitch": 54,
              "velocity": 10,
              "position": 1.8854166666666667,
              "duration": 0.010416666666666666
            },
            {
              "pitch": 54,
              "velocity": 36,
              "position": 2,
              "duration": 0.010416666666666666
            },
            {
              "pitch": 54,
              "velocity": 9,
              "position": 2.21875,
              "duration": 0.010416666666666666
            },
            {
              "pitch": 54,
              "velocity": 25,
              "position": 2.3333333333333335,
              "duration": 0.010416666666666666
            },
            {
              "pitch": 54,
              "velocity": 24,
              "position": 2.5520833333333335,
              "duration": 0.010416666666666666
            },
            {
              "pitch": 54,
              "velocity": 26,
              "position": 2.6666666666666665,
              "duration": 0.010416666666666666
            },
            {
              "pitch": 54,
              "velocity": 8,
              "position": 2.8854166666666665,
              "duration": 0.010416666666666666
            },
            {
              "pitch": 54,
              "velocity": 90,
              "position": 3,
              "duration": 0.010416666666666666
            },
            {
              "pitch": 54,
              "velocity": 13,
              "position": 3.21875,
              "duration": 0.010416666666666666
            },
            {
              "pitch": 54,
              "velocity": 25,
              "position": 3.3333333333333335,
              "duration": 0.010416666666666666
            },
            {
              "pitch": 54,
              "velocity": 10,
              "position": 3.5520833333333335,
              "duration": 0.010416666666666666
            },
            {
              "pitch": 54,
              "velocity": 19,
              "position": 3.6666666666666665,
              "duration": 0.010416666666666666
            },
            {
              "pitch": 54,
              "velocity": 10,
              "position": 3.8854166666666665,
              "duration": 0.010416666666666666
            },
            {
              "pitch": 54,
              "velocity": 36,
              "position": 4,
              "duration": 0.010416666666666666
            },
            {
              "pitch": 54,
              "velocity": 9,
              "position": 4.21875,
              "duration": 0.010416666666666666
            },
            {
              "pitch": 54,
              "velocity": 25,
              "position": 4.333333333333333,
              "duration": 0.010416666666666666
            },
            {
              "pitch": 54,
              "velocity": 24,
              "position": 4.552083333333333,
              "duration": 0.010416666666666666
            },
            {
              "pitch": 54,
              "velocity": 26,
              "position": 4.666666666666667,
              "duration": 0.010416666666666666
            },
            {
              "pitch": 54,
              "velocity": 8,
              "position": 4.885416666666667,
              "duration": 0.010416666666666666
            },
            {
              "pitch": 54,
              "velocity": 90,
              "position": 5,
              "duration": 0.010416666666666666
            },
            {
              "pitch": 54,
              "velocity": 13,
              "position": 5.21875,
              "duration": 0.010416666666666666
            },
            {
              "pitch": 54,
              "velocity": 25,
              "position": 5.333333333333333,
              "duration": 0.010416666666666666
            },
            {
              "pitch": 54,
              "velocity": 10,
              "position": 5.552083333333333,
              "duration": 0.010416666666666666
            },
            {
              "pitch": 54,
              "velocity": 19,
              "position": 5.666666666666667,
              "duration": 0.010416666666666666
            },
            {
              "pitch": 54,
              "velocity": 10,
              "position": 5.885416666666667,
              "duration": 0.010416666666666666
            },
            {
              "pitch": 54,
              "velocity": 36,
              "position": 6,
              "duration": 0.010416666666666666
            },
            {
              "pitch": 54,
              "velocity": 9,
              "position": 6.21875,
              "duration": 0.010416666666666666
            },
            {
              "pitch": 54,
              "velocity": 25,
              "position": 6.333333333333333,
              "duration": 0.010416666666666666
            },
            {
              "pitch": 54,
              "velocity": 24,
              "position": 6.552083333333333,
              "duration": 0.010416666666666666
            },
            {
              "pitch": 54,
              "velocity": 26,
              "position": 6.666666666666667,
              "duration": 0.010416666666666666
            },
            {
              "pitch": 54,
              "velocity": 8,
              "position": 6.885416666666667,
              "duration": 0.010416666666666666
            },
            {
              "pitch": 54,
              "velocity": 90,
              "position": 7,
              "duration": 0.010416666666666666
            },
            {
              "pitch": 54,
              "velocity": 13,
              "position": 7.21875,
              "duration": 0.010416666666666666
            },
            {
              "pitch": 54,
              "velocity": 25,
              "position": 7.333333333333333,
              "duration": 0.010416666666666666
            },
            {
              "pitch": 54,
              "velocity": 10,
              "position": 7.552083333333333,
              "duration": 0.010416666666666666
            },
            {
              "pitch": 54,
              "velocity": 19,
              "position": 7.666666666666667,
              "duration": 0.010416666666666666
            },
            {
              "pitch": 54,
              "velocity": 10,
              "position": 7.885416666666667,
              "duration": 0.010416666666666666
            }
          ]
        },
        "9": {
          "ctab": {
            "srcChannel": 9,
            "name": "Drs",
            "accType": "RHYTHM",
            "editable": false,
            "mutedNotes": [],
            "mutedChords": [],
            "autoStart": true,
            "sourceChordNote": 0,
            "sourceChordType": "Maj7",
            "ctb2Low": null,
            "ctb2Main": {
              "ntr": "ROOT_FIXED",
              "ntt": "BYPASS",
              "bassOn": false,
              "chordRootUpperLimit": 6,
              "noteLowLimit": 0,
              "noteHighLimit": 127,
              "rtr": "PITCH_SHIFT"
            },
            "ctb2High": null
          },
          "notes": [
            {
              "pitch": 36,
              "velocity": 90,
              "position": 0,
              "duration": 0.010416666666666666
            },
            {
              "pitch": 59,
              "velocity": 72,
              "position": 0,
              "duration": 0.010416666666666666
            },
            {
              "pitch": 44,
              "velocity": 40,
              "position": 0.3333333333333333,
              "duration": 0.010416666666666666
            },
            {
              "pitch": 59,
              "velocity": 52,
              "position": 0.3333333333333333,
              "duration": 0.010416666666666666
            },
            {
              "pitch": 40,
              "velocity": 15,
              "position": 0.5520833333333334,
              "duration": 0.010416666666666666
            },
            {
              "pitch": 59,
              "velocity": 12,
              "position": 0.5520833333333334,
              "duration": 0.010416666666666666
            },
            {
              "pitch": 44,
              "velocity": 60,
              "position": 0.6666666666666666,
              "duration": 0.010416666666666666
            },
            {
              "pitch": 59,
              "velocity": 62,
              "position": 0.6666666666666666,
              "duration": 0.010416666666666666
            },
            {
              "pitch": 40,
              "velocity": 20,
              "position": 0.7708333333333334,
              "duration": 0.010416666666666666
            },
            {
              "pitch": 36,
              "velocity": 50,
              "position": 0.8854166666666666,
              "duration": 0.010416666666666666
            },
            {
              "pitch": 40,
              "velocity": 106,
              "position": 1,
              "duration": 0.010416666666666666
            },
            {
              "pitch": 59,
              "velocity": 72,
              "position": 1,
              "duration": 0.010416666666666666
            },
            {
              "pitch": 59,
              "velocity": 12,
              "position": 1.21875,
              "duration": 0.010416666666666666
            },
            {
              "pitch": 59,
              "velocity": 52,
              "position": 1.3333333333333333,
              "duration": 0.010416666666666666
            },
            {
              "pitch": 40,
              "velocity": 15,
              "position": 1.5520833333333333,
              "duration": 0.010416666666666666
            },
            {
              "pitch": 59,
              "velocity": 62,
              "position": 1.6666666666666667,
              "duration": 0.010416666666666666
            },
            {
              "pitch": 40,
              "velocity": 20,
              "position": 1.7708333333333333,
              "duration": 0.010416666666666666
            },
            {
              "pitch": 36,
              "velocity": 50,
              "position": 1.8854166666666667,
              "duration": 0.010416666666666666
            },
            {
              "pitch": 59,
              "velocity": 12,
              "position": 1.8854166666666667,
              "duration": 0.010416666666666666
            },
            {
              "pitch": 36,
              "velocity": 90,
              "position": 2,
              "duration": 0.010416666666666666
            },
            {
              "pitch": 59,
              "velocity": 72,
              "position": 2,
              "duration": 0.010416666666666666
            },
            {
              "pitch": 44,
              "velocity": 40,
              "position": 2.3333333333333335,
              "duration": 0.010416666666666666
            },
            {
              "pitch": 59,
              "velocity": 52,
              "position": 2.3333333333333335,
              "duration": 0.010416666666666666
            },
            {
              "pitch": 40,
              "velocity": 15,
              "position": 2.5520833333333335,
              "duration": 0.010416666666666666
            },
            {
              "pitch": 59,
              "velocity": 12,
              "position": 2.5520833333333335,
              "duration": 0.010416666666666666
            },
            {
              "pitch": 44,
              "velocity": 60,
              "position": 2.6666666666666665,
              "duration": 0.010416666666666666
            },
            {
              "pitch": 59,
              "velocity": 62,
              "position": 2.6666666666666665,
              "duration": 0.010416666666666666
            },
            {
              "pitch": 40,
              "velocity": 20,
              "position": 2.7708333333333335,
              "duration": 0.010416666666666666
            },
            {
              "pitch": 36,
              "velocity": 50,
              "position": 2.8854166666666665,
              "duration": 0.010416666666666666
            },
            {
              "pitch": 40,
              "velocity": 100,
              "position": 3,
              "duration": 0.010416666666666666
            },
            {
              "pitch": 59,
              "velocity": 72,
              "position": 3,
              "duration": 0.010416666666666666
            },
            {
              "pitch": 59,
              "velocity": 12,
              "position": 3.21875,
              "duration": 0.010416666666666666
            },
            {
              "pitch": 59,
              "velocity": 52,
              "position": 3.3333333333333335,
              "duration": 0.010416666666666666
            },
            {
              "pitch": 36,
              "velocity": 50,
              "position": 3.5520833333333335,
              "duration": 0.010416666666666666
            },
            {
              "pitch": 36,
              "velocity": 90,
              "position": 3.6666666666666665,
              "duration": 0.010416666666666666
            },
            {
              "pitch": 59,
              "velocity": 62,
              "position": 3.6666666666666665,
              "duration": 0.010416666666666666
            },
            {
              "pitch": 59,
              "velocity": 12,
              "position": 3.8854166666666665,
              "duration": 0.010416666666666666
            },
            {
              "pitch": 36,
              "velocity": 90,
              "position": 4,
              "duration": 0.010416666666666666
            },
            {
              "pitch": 59,
              "velocity": 72,
              "position": 4,
              "duration": 0.010416666666666666
            },
            {
              "pitch": 44,
              "velocity": 40,
              "position": 4.333333333333333,
              "duration": 0.010416666666666666
            },
            {
              "pitch": 59,
              "velocity": 52,
              "position": 4.333333333333333,
              "duration": 0.010416666666666666
            },
            {
              "pitch": 40,
              "velocity": 15,
              "position": 4.552083333333333,
              "duration": 0.010416666666666666
            },
            {
              "pitch": 59,
              "velocity": 12,
              "position": 4.552083333333333,
              "duration": 0.010416666666666666
            },
            {
              "pitch": 44,
              "velocity": 60,
              "position": 4.666666666666667,
              "duration": 0.010416666666666666
            },
            {
              "pitch": 59,
              "velocity": 62,
              "position": 4.666666666666667,
              "duration": 0.010416666666666666
            },
            {
              "pitch": 40,
              "velocity": 20,
              "position": 4.770833333333333,
              "duration": 0.010416666666666666
            },
            {
              "pitch": 36,
              "velocity": 50,
              "position": 4.885416666666667,
              "duration": 0.010416666666666666
            },
            {
              "pitch": 40,
              "velocity": 100,
              "position": 5,
              "duration": 0.010416666666666666
            },
            {
              "pitch": 59,
              "velocity": 72,
              "position": 5,
              "duration": 0.010416666666666666
            },
            {
              "pitch": 59,
              "velocity": 12,
              "position": 5.21875,
              "duration": 0.010416666666666666
            },
            {
              "pitch": 59,
              "velocity": 52,
              "position": 5.333333333333333,
              "duration": 0.010416666666666666
            },
            {
              "pitch": 40,
              "velocity": 15,
              "position": 5.552083333333333,
              "duration": 0.010416666666666666
            },
            {
              "pitch": 59,
              "velocity": 62,
              "position": 5.666666666666667,
              "duration": 0.010416666666666666
            },
            {
              "pitch": 40,
              "velocity": 20,
              "position": 5.770833333333333,
              "duration": 0.010416666666666666
            },
            {
              "pitch": 36,
              "velocity": 50,
              "position": 5.885416666666667,
              "duration": 0.010416666666666666
            },
            {
              "pitch": 59,
              "velocity": 12,
              "position": 5.885416666666667,
              "duration": 0.010416666666666666
            },
            {
              "pitch": 36,
              "velocity": 90,
              "position": 6,
              "duration": 0.010416666666666666
            },
            {
              "pitch": 59,
              "velocity": 72,
              "position": 6,
              "duration": 0.010416666666666666
            },
            {
              "pitch": 44,
              "velocity": 40,
              "position": 6.333333333333333,
              "duration": 0.010416666666666666
            },
            {
              "pitch": 59,
              "velocity": 52,
              "position": 6.333333333333333,
              "duration": 0.010416666666666666
            },
            {
              "pitch": 40,
              "velocity": 15,
              "position": 6.552083333333333,
              "duration": 0.010416666666666666
            },
            {
              "pitch": 59,
              "velocity": 12,
              "position": 6.552083333333333,
              "duration": 0.010416666666666666
            },
            {
              "pitch": 44,
              "velocity": 60,
              "position": 6.666666666666667,
              "duration": 0.010416666666666666
            },
            {
              "pitch": 59,
              "velocity": 62,
              "position": 6.666666666666667,
              "duration": 0.010416666666666666
            },
            {
              "pitch": 40,
              "velocity": 20,
              "position": 6.770833333333333,
              "duration": 0.010416666666666666
            },
            {
              "pitch": 36,
              "velocity": 50,
              "position": 6.885416666666667,
              "duration": 0.010416666666666666
            },
            {
              "pitch": 40,
              "velocity": 100,
              "position": 7,
              "duration": 0.010416666666666666
            },
            {
              "pitch": 59,
              "velocity": 72,
              "position": 7,
              "duration": 0.010416666666666666
            },
            {
              "pitch": 36,
              "velocity": 50,
              "position": 7.21875,
              "duration": 0.010416666666666666
            },
            {
              "pitch": 59,
              "velocity": 12,
              "position": 7.21875,
              "duration": 0.010416666666666666
            },
            {
              "pitch": 36,
              "velocity": 90,
              "position": 7.333333333333333,
              "duration": 0.010416666666666666
            },
            {
              "pitch": 59,
              "velocity": 52,
              "position": 7.333333333333333,
              "duration": 0.010416666666666666
            },
            {
              "pitch": 40,
              "velocity": 15,
              "position": 7.552083333333333,
              "duration": 0.010416666666666666
            },
            {
              "pitch": 36,
              "velocity": 70,
              "position": 7.666666666666667,
              "duration": 0.010416666666666666
            },
            {
              "pitch": 59,
              "velocity": 62,
              "position": 7.666666666666667,
              "duration": 0.010416666666666666
            },
            {
              "pitch": 40,
              "velocity": 10,
              "position": 7.885416666666667,
              "duration": 0.010416666666666666
            },
            {
              "pitch": 59,
              "velocity": 12,
              "position": 7.885416666666667,
              "duration": 0.010416666666666666
            }
          ]
        },
        "10": {
          "ctab": {
            "srcChannel": 10,
            "name": "BassMain",
            "accType": "BASS",
            "editable": false,
            "mutedNotes": [],
            "mutedChords": [
              "7aug",
              "dim",
              "minMaj7(9)",
              "minMaj7",
              "min(9)",
              "m7b5",
              "min",
              "aug"
            ],
            "autoStart": false,
            "sourceChordNote": 0,
            "sourceChordType": "Maj7",
            "ctb2Low": null,
            "ctb2Main": {
              "ntr": "ROOT_TRANSPOSITION",
              "ntt": "MELODY",
              "bassOn": true,
              "chordRootUpperLimit": 8,
              "noteLowLimit": 28,
              "noteHighLimit": 127,
              "rtr": "PITCH_SHIFT_TO_ROOT"
            },
            "ctb2High": null
          },
          "notes": [
            {
              "pitch": 24,
              "velocity": 100,
              "position": 0,
              "duration": 0.88125
            },
            {
              "pitch": 24,
              "velocity": 89,
              "position": 0.8854166666666666,
              "duration": 0.10416666666666667
            },
            {
              "pitch": 28,
              "velocity": 100,
              "position": 1,
              "duration": 0.88125
            },
            {
              "pitch": 28,
              "velocity": 89,
              "position": 1.8854166666666667,
              "duration": 0.10416666666666667
            },
            {
              "pitch": 31,
              "velocity": 100,
              "position": 2,
              "duration": 0.88125
            },
            {
              "pitch": 31,
              "velocity": 89,
              "position": 2.8854166666666665,
              "duration": 0.10416666666666667
            },
            {
              "pitch": 33,
              "velocity": 100,
              "position": 3,
              "duration": 0.3229166666666667
            },
            {
              "pitch": 31,
              "velocity": 89,
              "position": 3.3333333333333335,
              "duration": 0.3229166666666667
            },
            {
              "pitch": 28,
              "velocity": 89,
              "position": 3.6666666666666665,
              "duration": 0.3229166666666667
            },
            {
              "pitch": 24,
              "velocity": 100,
              "position": 4,
              "duration": 0.88125
            },
            {
              "pitch": 24,
              "velocity": 89,
              "position": 4.885416666666667,
              "duration": 0.10416666666666667
            },
            {
              "pitch": 28,
              "velocity": 100,
              "position": 5,
              "duration": 0.88125
            },
            {
              "pitch": 28,
              "velocity": 89,
              "position": 5.885416666666667,
              "duration": 0.10416666666666667
            },
            {
              "pitch": 31,
              "velocity": 100,
              "position": 6,
              "duration": 0.88125
            },
            {
              "pitch": 31,
              "velocity": 89,
              "position": 6.885416666666667,
              "duration": 0.10416666666666667
            },
            {
              "pitch": 33,
              "velocity": 100,
              "position": 7,
              "duration": 0.3229166666666667
            },
            {
              "pitch": 31,
              "velocity": 89,
              "position": 7.333333333333333,
              "duration": 0.3229166666666667
            },
            {
              "pitch": 28,
              "velocity": 89,
              "position": 7.666666666666667,
              "duration": 0.3229166666666667
            }
          ]
        },
        "11": {
          "ctab": {
            "srcChannel": 11,
            "name": "60cCln",
            "accType": "CHORD1",
            "editable": false,
            "mutedNotes": [],
            "mutedChords": [
              "min",
              "Maj"
            ],
            "autoStart": false,
            "sourceChordNote": 0,
            "sourceChordType": "Maj7",
            "ctb2Low": null,
            "ctb2Main": {
              "ntr": "ROOT_FIXED",
              "ntt": "CHORD",
              "bassOn": false,
              "chordRootUpperLimit": 7,
              "noteLowLimit": 0,
              "noteHighLimit": 127,
              "rtr": "PITCH_SHIFT"
            },
            "ctb2High": null
          },
          "notes": [
            {
              "pitch": 59,
              "velocity": 85,
              "position": 0,
              "duration": 0.3229166666666667
            },
            {
              "pitch": 64,
              "velocity": 85,
              "position": 0,
              "duration": 0.32916666666666666
            },
            {
              "pitch": 67,
              "velocity": 85,
              "position": 0.010416666666666666,
              "duration": 0.3229166666666667
            },
            {
              "pitch": 59,
              "velocity": 45,
              "position": 0.3333333333333333,
              "duration": 0.3229166666666667
            },
            {
              "pitch": 64,
              "velocity": 45,
              "position": 0.3333333333333333,
              "duration": 0.32916666666666666
            },
            {
              "pitch": 67,
              "velocity": 45,
              "position": 0.34375,
              "duration": 0.3229166666666667
            },
            {
              "pitch": 59,
              "velocity": 65,
              "position": 0.6666666666666666,
              "duration": 0.3229166666666667
            },
            {
              "pitch": 64,
              "velocity": 65,
              "position": 0.6666666666666666,
              "duration": 0.32916666666666666
            },
            {
              "pitch": 67,
              "velocity": 65,
              "position": 0.6770833333333334,
              "duration": 0.3229166666666667
            },
            {
              "pitch": 59,
              "velocity": 100,
              "position": 1,
              "duration": 0.08333333333333333
            },
            {
              "pitch": 64,
              "velocity": 100,
              "position": 1,
              "duration": 0.08333333333333333
            },
            {
              "pitch": 67,
              "velocity": 100,
              "position": 1.0104166666666667,
              "duration": 0.08333333333333333
            },
            {
              "pitch": 59,
              "velocity": 65,
              "position": 1.3333333333333333,
              "duration": 0.010416666666666666
            },
            {
              "pitch": 64,
              "velocity": 65,
              "position": 1.3333333333333333,
              "duration": 0.010416666666666666
            },
            {
              "pitch": 67,
              "velocity": 65,
              "position": 1.34375,
              "duration": 0.010416666666666666
            },
            {
              "pitch": 59,
              "velocity": 85,
              "position": 1.6666666666666667,
              "duration": 0.65625
            },
            {
              "pitch": 64,
              "velocity": 85,
              "position": 1.6666666666666667,
              "duration": 0.6625
            },
            {
              "pitch": 67,
              "velocity": 85,
              "position": 1.6770833333333333,
              "duration": 0.65625
            },
            {
              "pitch": 59,
              "velocity": 45,
              "position": 2.3333333333333335,
              "duration": 0.3229166666666667
            },
            {
              "pitch": 64,
              "velocity": 45,
              "position": 2.3333333333333335,
              "duration": 0.32916666666666666
            },
            {
              "pitch": 67,
              "velocity": 45,
              "position": 2.34375,
              "duration": 0.3229166666666667
            },
            {
              "pitch": 59,
              "velocity": 65,
              "position": 2.6666666666666665,
              "duration": 0.3229166666666667
            },
            {
              "pitch": 64,
              "velocity": 65,
              "position": 2.6666666666666665,
              "duration": 0.32916666666666666
            },
            {
              "pitch": 67,
              "velocity": 65,
              "position": 2.6770833333333335,
              "duration": 0.3229166666666667
            },
            {
              "pitch": 59,
              "velocity": 100,
              "position": 3,
              "duration": 0.08333333333333333
            },
            {
              "pitch": 64,
              "velocity": 100,
              "position": 3,
              "duration": 0.08333333333333333
            },
            {
              "pitch": 67,
              "velocity": 100,
              "position": 3.0104166666666665,
              "duration": 0.08333333333333333
            },
            {
              "pitch": 59,
              "velocity": 85,
              "position": 3.3333333333333335,
              "duration": 0.3229166666666667
            },
            {
              "pitch": 64,
              "velocity": 85,
              "position": 3.3333333333333335,
              "duration": 0.32916666666666666
            },
            {
              "pitch": 67,
              "velocity": 85,
              "position": 3.34375,
              "duration": 0.3229166666666667
            },
            {
              "pitch": 59,
              "velocity": 100,
              "position": 3.6666666666666665,
              "duration": 0.3229166666666667
            },
            {
              "pitch": 64,
              "velocity": 100,
              "position": 3.6666666666666665,
              "duration": 0.32916666666666666
            },
            {
              "pitch": 67,
              "velocity": 100,
              "position": 3.6770833333333335,
              "duration": 0.3229166666666667
            },
            {
              "pitch": 59,
              "velocity": 85,
              "position": 4,
              "duration": 0.3229166666666667
            },
            {
              "pitch": 64,
              "velocity": 85,
              "position": 4,
              "duration": 0.32916666666666666
            },
            {
              "pitch": 67,
              "velocity": 85,
              "position": 4.010416666666667,
              "duration": 0.3229166666666667
            },
            {
              "pitch": 59,
              "velocity": 45,
              "position": 4.333333333333333,
              "duration": 0.3229166666666667
            },
            {
              "pitch": 64,
              "velocity": 45,
              "position": 4.333333333333333,
              "duration": 0.32916666666666666
            },
            {
              "pitch": 67,
              "velocity": 45,
              "position": 4.34375,
              "duration": 0.3229166666666667
            },
            {
              "pitch": 59,
              "velocity": 65,
              "position": 4.666666666666667,
              "duration": 0.3229166666666667
            },
            {
              "pitch": 64,
              "velocity": 65,
              "position": 4.666666666666667,
              "duration": 0.32916666666666666
            },
            {
              "pitch": 67,
              "velocity": 65,
              "position": 4.677083333333333,
              "duration": 0.3229166666666667
            },
            {
              "pitch": 59,
              "velocity": 100,
              "position": 5,
              "duration": 0.08333333333333333
            },
            {
              "pitch": 64,
              "velocity": 100,
              "position": 5,
              "duration": 0.08333333333333333
            },
            {
              "pitch": 67,
              "velocity": 100,
              "position": 5.010416666666667,
              "duration": 0.08333333333333333
            },
            {
              "pitch": 59,
              "velocity": 65,
              "position": 5.333333333333333,
              "duration": 0.010416666666666666
            },
            {
              "pitch": 64,
              "velocity": 65,
              "position": 5.333333333333333,
              "duration": 0.010416666666666666
            },
            {
              "pitch": 67,
              "velocity": 65,
              "position": 5.34375,
              "duration": 0.010416666666666666
            },
            {
              "pitch": 59,
              "velocity": 85,
              "position": 5.666666666666667,
              "duration": 0.65625
            },
            {
              "pitch": 64,
              "velocity": 85,
              "position": 5.666666666666667,
              "duration": 0.6625
            },
            {
              "pitch": 67,
              "velocity": 85,
              "position": 5.677083333333333,
              "duration": 0.65625
            },
            {
              "pitch": 59,
              "velocity": 45,
              "position": 6.333333333333333,
              "duration": 0.3229166666666667
            },
            {
              "pitch": 64,
              "velocity": 45,
              "position": 6.333333333333333,
              "duration": 0.32916666666666666
            },
            {
              "pitch": 67,
              "velocity": 45,
              "position": 6.34375,
              "duration": 0.3229166666666667
            },
            {
              "pitch": 59,
              "velocity": 65,
              "position": 6.666666666666667,
              "duration": 0.3229166666666667
            },
            {
              "pitch": 64,
              "velocity": 65,
              "position": 6.666666666666667,
              "duration": 0.32916666666666666
            },
            {
              "pitch": 67,
              "velocity": 65,
              "position": 6.677083333333333,
              "duration": 0.3229166666666667
            },
            {
              "pitch": 59,
              "velocity": 100,
              "position": 7,
              "duration": 0.08333333333333333
            },
            {
              "pitch": 64,
              "velocity": 100,
              "position": 7,
              "duration": 0.08333333333333333
            },
            {
              "pitch": 67,
              "velocity": 100,
              "position": 7.010416666666667,
              "duration": 0.08333333333333333
            },
            {
              "pitch": 59,
              "velocity": 65,
              "position": 7.21875,
              "duration": 0.010416666666666666
            },
            {
              "pitch": 64,
              "velocity": 65,
              "position": 7.229166666666667,
              "duration": 0.010416666666666666
            },
            {
              "pitch": 59,
              "velocity": 100,
              "position": 7.333333333333333,
              "duration": 0.3229166666666667
            },
            {
              "pitch": 64,
              "velocity": 100,
              "position": 7.333333333333333,
              "duration": 0.32916666666666666
            },
            {
              "pitch": 67,
              "velocity": 100,
              "position": 7.34375,
              "duration": 0.3229166666666667
            },
            {
              "pitch": 59,
              "velocity": 45,
              "position": 7.666666666666667,
              "duration": 0.3229166666666667
            },
            {
              "pitch": 64,
              "velocity": 45,
              "position": 7.666666666666667,
              "duration": 0.3229166666666667
            },
            {
              "pitch": 67,
              "velocity": 45,
              "position": 7.677083333333333,
              "duration": 0.3125
            }
          ]
        },
        "12": {
          "ctab": {
            "srcChannel": 12,
            "name": "Pno RH",
            "accType": "CHORD2",
            "editable": false,
            "mutedNotes": [],
            "mutedChords": [
              "min",
              "Maj"
            ],
            "autoStart": false,
            "sourceChordNote": 0,
            "sourceChordType": "Maj7",
            "ctb2Low": null,
            "ctb2Main": {
              "ntr": "ROOT_FIXED",
              "ntt": "CHORD",
              "bassOn": false,
              "chordRootUpperLimit": 7,
              "noteLowLimit": 0,
              "noteHighLimit": 79,
              "rtr": "PITCH_SHIFT"
            },
            "ctb2High": null
          },
          "notes": [
            {
              "pitch": 64,
              "velocity": 78,
              "position": 0,
              "duration": 0.3229166666666667
            },
            {
              "pitch": 67,
              "velocity": 72,
              "position": 0,
              "duration": 0.3229166666666667
            },
            {
              "pitch": 71,
              "velocity": 92,
              "position": 0,
              "duration": 0.3229166666666667
            },
            {
              "pitch": 64,
              "velocity": 55,
              "position": 0.3333333333333333,
              "duration": 0.3229166666666667
            },
            {
              "pitch": 67,
              "velocity": 57,
              "position": 0.3333333333333333,
              "duration": 0.3229166666666667
            },
            {
              "pitch": 71,
              "velocity": 60,
              "position": 0.3333333333333333,
              "duration": 0.3229166666666667
            },
            {
              "pitch": 64,
              "velocity": 51,
              "position": 0.6666666666666666,
              "duration": 0.3229166666666667
            },
            {
              "pitch": 67,
              "velocity": 49,
              "position": 0.6666666666666666,
              "duration": 0.3229166666666667
            },
            {
              "pitch": 71,
              "velocity": 53,
              "position": 0.6666666666666666,
              "duration": 0.3229166666666667
            },
            {
              "pitch": 64,
              "velocity": 62,
              "position": 1,
              "duration": 0.3229166666666667
            },
            {
              "pitch": 67,
              "velocity": 66,
              "position": 1,
              "duration": 0.3229166666666667
            },
            {
              "pitch": 71,
              "velocity": 77,
              "position": 1,
              "duration": 0.3229166666666667
            },
            {
              "pitch": 64,
              "velocity": 59,
              "position": 1.3333333333333333,
              "duration": 0.3229166666666667
            },
            {
              "pitch": 67,
              "velocity": 52,
              "position": 1.3333333333333333,
              "duration": 0.3229166666666667
            },
            {
              "pitch": 71,
              "velocity": 52,
              "position": 1.3333333333333333,
              "duration": 0.3229166666666667
            },
            {
              "pitch": 64,
              "velocity": 57,
              "position": 1.6666666666666667,
              "duration": 0.3229166666666667
            },
            {
              "pitch": 67,
              "velocity": 60,
              "position": 1.6666666666666667,
              "duration": 0.3229166666666667
            },
            {
              "pitch": 71,
              "velocity": 53,
              "position": 1.6666666666666667,
              "duration": 0.3229166666666667
            },
            {
              "pitch": 64,
              "velocity": 55,
              "position": 2,
              "duration": 0.3229166666666667
            },
            {
              "pitch": 67,
              "velocity": 51,
              "position": 2,
              "duration": 0.3229166666666667
            },
            {
              "pitch": 71,
              "velocity": 55,
              "position": 2,
              "duration": 0.3229166666666667
            },
            {
              "pitch": 64,
              "velocity": 47,
              "position": 2.3333333333333335,
              "duration": 0.3229166666666667
            },
            {
              "pitch": 67,
              "velocity": 47,
              "position": 2.3333333333333335,
              "duration": 0.3229166666666667
            },
            {
              "pitch": 71,
              "velocity": 47,
              "position": 2.3333333333333335,
              "duration": 0.3229166666666667
            },
            {
              "pitch": 64,
              "velocity": 44,
              "position": 2.6666666666666665,
              "duration": 0.3229166666666667
            },
            {
              "pitch": 67,
              "velocity": 47,
              "position": 2.6666666666666665,
              "duration": 0.3229166666666667
            },
            {
              "pitch": 71,
              "velocity": 50,
              "position": 2.6666666666666665,
              "duration": 0.3229166666666667
            },
            {
              "pitch": 64,
              "velocity": 52,
              "position": 3,
              "duration": 0.3229166666666667
            },
            {
              "pitch": 67,
              "velocity": 57,
              "position": 3,
              "duration": 0.3229166666666667
            },
            {
              "pitch": 71,
              "velocity": 50,
              "position": 3,
              "duration": 0.3229166666666667
            },
            {
              "pitch": 64,
              "velocity": 60,
              "position": 3.3333333333333335,
              "duration": 0.3229166666666667
            },
            {
              "pitch": 67,
              "velocity": 49,
              "position": 3.3333333333333335,
              "duration": 0.3229166666666667
            },
            {
              "pitch": 71,
              "velocity": 68,
              "position": 3.3333333333333335,
              "duration": 0.3229166666666667
            },
            {
              "pitch": 64,
              "velocity": 91,
              "position": 3.6666666666666665,
              "duration": 0.3229166666666667
            },
            {
              "pitch": 67,
              "velocity": 96,
              "position": 3.6666666666666665,
              "duration": 0.3229166666666667
            },
            {
              "pitch": 71,
              "velocity": 96,
              "position": 3.6666666666666665,
              "duration": 0.3229166666666667
            },
            {
              "pitch": 64,
              "velocity": 62,
              "position": 4,
              "duration": 0.3229166666666667
            },
            {
              "pitch": 67,
              "velocity": 63,
              "position": 4,
              "duration": 0.3229166666666667
            },
            {
              "pitch": 71,
              "velocity": 71,
              "position": 4,
              "duration": 0.3229166666666667
            },
            {
              "pitch": 64,
              "velocity": 46,
              "position": 4.333333333333333,
              "duration": 0.3229166666666667
            },
            {
              "pitch": 67,
              "velocity": 49,
              "position": 4.333333333333333,
              "duration": 0.3229166666666667
            },
            {
              "pitch": 71,
              "velocity": 35,
              "position": 4.333333333333333,
              "duration": 0.3229166666666667
            },
            {
              "pitch": 64,
              "velocity": 40,
              "position": 4.666666666666667,
              "duration": 0.3229166666666667
            },
            {
              "pitch": 67,
              "velocity": 40,
              "position": 4.666666666666667,
              "duration": 0.3229166666666667
            },
            {
              "pitch": 71,
              "velocity": 48,
              "position": 4.666666666666667,
              "duration": 0.3229166666666667
            },
            {
              "pitch": 64,
              "velocity": 57,
              "position": 5,
              "duration": 0.3229166666666667
            },
            {
              "pitch": 67,
              "velocity": 47,
              "position": 5,
              "duration": 0.3229166666666667
            },
            {
              "pitch": 71,
              "velocity": 64,
              "position": 5,
              "duration": 0.3229166666666667
            },
            {
              "pitch": 64,
              "velocity": 46,
              "position": 5.333333333333333,
              "duration": 0.3229166666666667
            },
            {
              "pitch": 67,
              "velocity": 43,
              "position": 5.333333333333333,
              "duration": 0.3229166666666667
            },
            {
              "pitch": 71,
              "velocity": 24,
              "position": 5.333333333333333,
              "duration": 0.3229166666666667
            },
            {
              "pitch": 64,
              "velocity": 51,
              "position": 5.666666666666667,
              "duration": 0.3229166666666667
            },
            {
              "pitch": 67,
              "velocity": 52,
              "position": 5.666666666666667,
              "duration": 0.3229166666666667
            },
            {
              "pitch": 71,
              "velocity": 60,
              "position": 5.666666666666667,
              "duration": 0.3229166666666667
            },
            {
              "pitch": 64,
              "velocity": 60,
              "position": 6,
              "duration": 0.3229166666666667
            },
            {
              "pitch": 67,
              "velocity": 57,
              "position": 6,
              "duration": 0.3229166666666667
            },
            {
              "pitch": 71,
              "velocity": 68,
              "position": 6,
              "duration": 0.3229166666666667
            },
            {
              "pitch": 64,
              "velocity": 39,
              "position": 6.333333333333333,
              "duration": 0.3229166666666667
            },
            {
              "pitch": 67,
              "velocity": 49,
              "position": 6.333333333333333,
              "duration": 0.3229166666666667
            },
            {
              "pitch": 71,
              "velocity": 40,
              "position": 6.333333333333333,
              "duration": 0.3229166666666667
            },
            {
              "pitch": 64,
              "velocity": 46,
              "position": 6.666666666666667,
              "duration": 0.3229166666666667
            },
            {
              "pitch": 67,
              "velocity": 41,
              "position": 6.666666666666667,
              "duration": 0.3229166666666667
            },
            {
              "pitch": 71,
              "velocity": 45,
              "position": 6.666666666666667,
              "duration": 0.3229166666666667
            },
            {
              "pitch": 64,
              "velocity": 57,
              "position": 7,
              "duration": 0.3229166666666667
            },
            {
              "pitch": 67,
              "velocity": 54,
              "position": 7,
              "duration": 0.3229166666666667
            },
            {
              "pitch": 71,
              "velocity": 63,
              "position": 7,
              "duration": 0.3229166666666667
            },
            {
              "pitch": 64,
              "velocity": 44,
              "position": 7.333333333333333,
              "duration": 0.3229166666666667
            },
            {
              "pitch": 67,
              "velocity": 44,
              "position": 7.333333333333333,
              "duration": 0.3229166666666667
            },
            {
              "pitch": 71,
              "velocity": 53,
              "position": 7.333333333333333,
              "duration": 0.3229166666666667
            },
            {
              "pitch": 64,
              "velocity": 67,
              "position": 7.666666666666667,
              "duration": 0.3229166666666667
            },
            {
              "pitch": 67,
              "velocity": 91,
              "position": 7.666666666666667,
              "duration": 0.3229166666666667
            },
            {
              "pitch": 71,
              "velocity": 79,
              "position": 7.666666666666667,
              "duration": 0.3229166666666667
            }
          ]
        },
        "13": {
          "ctab": {
            "srcChannel": 13,
            "name": "Org",
            "accType": "PAD",
            "editable": false,
            "mutedNotes": [],
            "mutedChords": [
              "min",
              "Maj"
            ],
            "autoStart": false,
            "sourceChordNote": 0,
            "sourceChordType": "Maj7",
            "ctb2Low": null,
            "ctb2Main": {
              "ntr": "ROOT_FIXED",
              "ntt": "CHORD",
              "bassOn": false,
              "chordRootUpperLimit": 7,
              "noteLowLimit": 0,
              "noteHighLimit": 127,
              "rtr": "PITCH_SHIFT"
            },
            "ctb2High": null
          },
          "notes": [
            {
              "pitch": 59,
              "velocity": 120,
              "position": 0,
              "duration": 7.989583333333333
            },
            {
              "pitch": 64,
              "velocity": 120,
              "position": 0,
              "duration": 7.989583333333333
            },
            {
              "pitch": 67,
              "velocity": 120,
              "position": 0,
              "duration": 7.989583333333333
            }
          ]
        },
        "14": {
          "ctab": {
            "srcChannel": 14,
            "name": "ClGt",
            "accType": "PHRASE1",
            "editable": false,
            "mutedNotes": [],
            "mutedChords": [
              "min",
              "Maj"
            ],
            "autoStart": false,
            "sourceChordNote": 0,
            "sourceChordType": "Maj7",
            "ctb2Low": null,
            "ctb2Main": {
              "ntr": "ROOT_TRANSPOSITION",
              "ntt": "MELODY",
              "bassOn": false,
              "chordRootUpperLimit": 4,
              "noteLowLimit": 0,
              "noteHighLimit": 127,
              "rtr": "PITCH_SHIFT"
            },
            "ctb2High": null
          },
          "notes": [
            {
              "pitch": 67,
              "velocity": 116,
              "position": 0,
              "duration": 2.9895833333333335
            },
            {
              "pitch": 71,
              "velocity": 28,
              "position": 0.3333333333333333,
              "duration": 2.65625
            },
            {
              "pitch": 67,
              "velocity": 116,
              "position": 4,
              "duration": 2.9895833333333335
            },
            {
              "pitch": 71,
              "velocity": 26,
              "position": 4.333333333333333,
              "duration": 2.65625
            },
            {
              "pitch": 64,
              "velocity": 28,
              "position": 4.666666666666667,
              "duration": 2.3229166666666665
            }
          ]
        },
        "15": {
          "ctab": {
            "srcChannel": 15,
            "name": "EP",
            "accType": "PHRASE2",
            "editable": false,
            "mutedNotes": [],
            "mutedChords": [
              "min",
              "Maj"
            ],
            "autoStart": false,
            "sourceChordNote": 0,
            "sourceChordType": "Maj7",
            "ctb2Low": null,
            "ctb2Main": {
              "ntr": "ROOT_FIXED",
              "ntt": "CHORD",
              "bassOn": false,
              "chordRootUpperLimit": 7,
              "noteLowLimit": 0,
              "noteHighLimit": 127,
              "rtr": "PITCH_SHIFT"
            },
            "ctb2High": null
          },
          "notes": [
            {
              "pitch": 59,
              "velocity": 54,
              "position": 0,
              "duration": 0.5479166666666667
            },
            {
              "pitch": 64,
              "velocity": 54,
              "position": 0,
              "duration": 0.65625
            },
            {
              "pitch": 67,
              "velocity": 54,
              "position": 0,
              "duration": 0.65625
            },
            {
              "pitch": 59,
              "velocity": 82,
              "position": 0.5520833333333334,
              "duration": 0.4375
            },
            {
              "pitch": 64,
              "velocity": 69,
              "position": 0.6666666666666666,
              "duration": 0.3229166666666667
            },
            {
              "pitch": 67,
              "velocity": 69,
              "position": 0.6666666666666666,
              "duration": 0.3229166666666667
            },
            {
              "pitch": 59,
              "velocity": 74,
              "position": 1,
              "duration": 0.5479166666666667
            },
            {
              "pitch": 64,
              "velocity": 67,
              "position": 1,
              "duration": 0.65625
            },
            {
              "pitch": 67,
              "velocity": 92,
              "position": 1,
              "duration": 0.65625
            },
            {
              "pitch": 59,
              "velocity": 43,
              "position": 1.5520833333333333,
              "duration": 0.4375
            },
            {
              "pitch": 64,
              "velocity": 55,
              "position": 1.6666666666666667,
              "duration": 0.3229166666666667
            },
            {
              "pitch": 67,
              "velocity": 65,
              "position": 1.6666666666666667,
              "duration": 0.3229166666666667
            },
            {
              "pitch": 59,
              "velocity": 53,
              "position": 2,
              "duration": 0.5479166666666667
            },
            {
              "pitch": 64,
              "velocity": 40,
              "position": 2,
              "duration": 0.65625
            },
            {
              "pitch": 67,
              "velocity": 58,
              "position": 2,
              "duration": 0.65625
            },
            {
              "pitch": 59,
              "velocity": 65,
              "position": 2.5520833333333335,
              "duration": 0.4375
            },
            {
              "pitch": 64,
              "velocity": 76,
              "position": 2.6666666666666665,
              "duration": 0.3229166666666667
            },
            {
              "pitch": 67,
              "velocity": 69,
              "position": 2.6666666666666665,
              "duration": 0.3229166666666667
            },
            {
              "pitch": 59,
              "velocity": 74,
              "position": 3,
              "duration": 0.5479166666666667
            },
            {
              "pitch": 64,
              "velocity": 99,
              "position": 3,
              "duration": 0.65625
            },
            {
              "pitch": 67,
              "velocity": 99,
              "position": 3,
              "duration": 0.65625
            },
            {
              "pitch": 59,
              "velocity": 61,
              "position": 3.5520833333333335,
              "duration": 0.3229166666666667
            },
            {
              "pitch": 64,
              "velocity": 58,
              "position": 3.6666666666666665,
              "duration": 0.3229166666666667
            },
            {
              "pitch": 67,
              "velocity": 58,
              "position": 3.6666666666666665,
              "duration": 0.3229166666666667
            },
            {
              "pitch": 59,
              "velocity": 54,
              "position": 3.8854166666666665,
              "duration": 0.65625
            },
            {
              "pitch": 64,
              "velocity": 34,
              "position": 4,
              "duration": 0.65625
            },
            {
              "pitch": 67,
              "velocity": 40,
              "position": 4,
              "duration": 0.65625
            },
            {
              "pitch": 59,
              "velocity": 54,
              "position": 4.552083333333333,
              "duration": 0.4375
            },
            {
              "pitch": 64,
              "velocity": 69,
              "position": 4.666666666666667,
              "duration": 0.3229166666666667
            },
            {
              "pitch": 67,
              "velocity": 61,
              "position": 4.666666666666667,
              "duration": 0.3229166666666667
            },
            {
              "pitch": 59,
              "velocity": 79,
              "position": 5,
              "duration": 0.5479166666666667
            },
            {
              "pitch": 64,
              "velocity": 99,
              "position": 5,
              "duration": 0.65625
            },
            {
              "pitch": 67,
              "velocity": 107,
              "position": 5,
              "duration": 0.65625
            },
            {
              "pitch": 59,
              "velocity": 55,
              "position": 5.552083333333333,
              "duration": 0.4375
            },
            {
              "pitch": 64,
              "velocity": 71,
              "position": 5.666666666666667,
              "duration": 0.3229166666666667
            },
            {
              "pitch": 67,
              "velocity": 65,
              "position": 5.666666666666667,
              "duration": 0.3229166666666667
            },
            {
              "pitch": 59,
              "velocity": 53,
              "position": 6,
              "duration": 0.5479166666666667
            },
            {
              "pitch": 64,
              "velocity": 53,
              "position": 6,
              "duration": 0.65625
            },
            {
              "pitch": 67,
              "velocity": 48,
              "position": 6,
              "duration": 0.65625
            },
            {
              "pitch": 59,
              "velocity": 55,
              "position": 6.552083333333333,
              "duration": 0.3229166666666667
            },
            {
              "pitch": 64,
              "velocity": 79,
              "position": 6.666666666666667,
              "duration": 0.3229166666666667
            },
            {
              "pitch": 67,
              "velocity": 76,
              "position": 6.666666666666667,
              "duration": 0.3229166666666667
            },
            {
              "pitch": 59,
              "velocity": 59,
              "position": 6.885416666666667,
              "duration": 0.3229166666666667
            },
            {
              "pitch": 64,
              "velocity": 95,
              "position": 7,
              "duration": 0.3229166666666667
            },
            {
              "pitch": 67,
              "velocity": 107,
              "position": 7,
              "duration": 0.3229166666666667
            },
            {
              "pitch": 59,
              "velocity": 54,
              "position": 7.21875,
              "duration": 0.3229166666666667
            },
            {
              "pitch": 64,
              "velocity": 56,
              "position": 7.333333333333333,
              "duration": 0.3229166666666667
            },
            {
              "pitch": 67,
              "velocity": 65,
              "position": 7.333333333333333,
              "duration": 0.3229166666666667
            },
            {
              "pitch": 59,
              "velocity": 54,
              "position": 7.552083333333333,
              "duration": 0.4375
            },
            {
              "pitch": 64,
              "velocity": 67,
              "position": 7.666666666666667,
              "duration": 0.3229166666666667
            },
            {
              "pitch": 67,
              "velocity": 61,
              "position": 7.666666666666667,
              "duration": 0.3229166666666667
            }
          ]
        }
      }
    },
    "Fill_In_CC": {
      "type": "Fill_In_CC",
      "sizeInBeats": 4,
      "channels": {
        "0": {
          "ctab": {
            "srcChannel": 0,
            "name": "Pno LH",
            "accType": "CHORD2",
            "editable": false,
            "mutedNotes": [],
            "mutedChords": [],
            "autoStart": false,
            "sourceChordNote": 0,
            "sourceChordType": "Maj7",
            "ctb2Low": null,
            "ctb2Main": {
              "ntr": "ROOT_TRANSPOSITION",
              "ntt": "MELODY",
              "bassOn": true,
              "chordRootUpperLimit": 8,
              "noteLowLimit": 0,
              "noteHighLimit": 127,
              "rtr": "PITCH_SHIFT_TO_ROOT"
            },
            "ctb2High": null
          },
          "notes": [
            {
              "pitch": 36,
              "velocity": 100,
              "position": 1.2083333333333333,
              "duration": 1.9895833333333333
            },
            {
              "pitch": 36,
              "velocity": 75,
              "position": 3.2083333333333335,
              "duration": 0.4479166666666667
            },
            {
              "pitch": 36,
              "velocity": 75,
              "position": 3.6666666666666665,
              "duration": 0.3125
            }
          ]
        },
        "1": {
          "ctab": {
            "srcChannel": 1,
            "name": "BassAlt",
            "accType": "BASS",
            "editable": false,
            "mutedNotes": [],
            "mutedChords": [
              "1+2+5",
              "sus4",
              "1+5",
              "1+8",
              "Maj7aug",
              "7(#9)",
              "7(b13)",
              "7(b9)",
              "7(13)",
              "7#11",
              "7(9)",
              "7b5",
              "7sus4",
              "7th",
              "dim7",
              "min7(11)",
              "min7(9)",
              "min7",
              "min6",
              "Maj6(9)",
              "Maj7(9)",
              "Maj(9)",
              "Maj7#11",
              "Maj7",
              "Maj6",
              "Maj"
            ],
            "autoStart": false,
            "sourceChordNote": 0,
            "sourceChordType": "Maj7",
            "ctb2Low": null,
            "ctb2Main": {
              "ntr": "ROOT_TRANSPOSITION",
              "ntt": "MELODY",
              "bassOn": true,
              "chordRootUpperLimit": 8,
              "noteLowLimit": 28,
              "noteHighLimit": 127,
              "rtr": "PITCH_SHIFT_TO_ROOT"
            },
            "ctb2High": null
          },
          "notes": [
            {
              "pitch": 24,
              "velocity": 100,
              "position": 0,
              "duration": 0.6041666666666666
            },
            {
              "pitch": 24,
              "velocity": 89,
              "position": 0.6666666666666666,
              "duration": 0.2708333333333333
            },
            {
              "pitch": 24,
              "velocity": 100,
              "position": 1,
              "duration": 0.2708333333333333
            },
            {
              "pitch": 24,
              "velocity": 89,
              "position": 1.3333333333333333,
              "duration": 0.3229166666666667
            },
            {
              "pitch": 24,
              "velocity": 89,
              "position": 1.6666666666666667,
              "duration": 0.3229166666666667
            },
            {
              "pitch": 24,
              "velocity": 100,
              "position": 2,
              "duration": 0.3229166666666667
            },
            {
              "pitch": 24,
              "velocity": 89,
              "position": 2.3333333333333335,
              "duration": 0.3229166666666667
            },
            {
              "pitch": 31,
              "velocity": 89,
              "position": 2.6666666666666665,
              "duration": 0.3229166666666667
            },
            {
              "pitch": 36,
              "velocity": 100,
              "position": 3,
              "duration": 0.3229166666666667
            },
            {
              "pitch": 31,
              "velocity": 89,
              "position": 3.3333333333333335,
              "duration": 0.3229166666666667
            },
            {
              "pitch": 28,
              "velocity": 89,
              "position": 3.6666666666666665,
              "duration": 0.3229166666666667
            }
          ]
        },
        "2": {
          "ctab": {
            "srcChannel": 2,
            "name": "60cCln S",
            "accType": "CHORD1",
            "editable": false,
            "mutedNotes": [],
            "mutedChords": [
              "1+2+5",
              "sus4",
              "1+5",
              "1+8",
              "7aug",
              "Maj7aug",
              "7(#9)",
              "7(b13)",
              "7(b9)",
              "7(13)",
              "7#11",
              "7(9)",
              "7b5",
              "7sus4",
              "7th",
              "dim7",
              "dim",
              "minMaj7(9)",
              "minMaj7",
              "min7(11)",
              "min7(9)",
              "min(9)",
              "m7b5",
              "min7",
              "min6",
              "aug",
              "Maj6(9)",
              "Maj7(9)",
              "Maj(9)",
              "Maj7#11",
              "Maj7",
              "Maj6"
            ],
            "autoStart": false,
            "sourceChordNote": 0,
            "sourceChordType": "Maj7",
            "ctb2Low": null,
            "ctb2Main": {
              "ntr": "ROOT_TRANSPOSITION",
              "ntt": "DORIAN_5",
              "bassOn": false,
              "chordRootUpperLimit": 4,
              "noteLowLimit": 54,
              "noteHighLimit": 127,
              "rtr": "PITCH_SHIFT"
            },
            "ctb2High": null
          },
          "notes": [
            {
              "pitch": 58,
              "velocity": 80,
              "position": 0,
              "duration": 0.3229166666666667
            },
            {
              "pitch": 64,
              "velocity": 80,
              "position": 0,
              "duration": 0.32916666666666666
            },
            {
              "pitch": 67,
              "velocity": 80,
              "position": 0.010416666666666666,
              "duration": 0.3229166666666667
            },
            {
              "pitch": 72,
              "velocity": 80,
              "position": 0.020833333333333332,
              "duration": 0.3229166666666667
            },
            {
              "pitch": 58,
              "velocity": 40,
              "position": 0.3333333333333333,
              "duration": 0.3229166666666667
            },
            {
              "pitch": 64,
              "velocity": 40,
              "position": 0.3333333333333333,
              "duration": 0.32916666666666666
            },
            {
              "pitch": 67,
              "velocity": 40,
              "position": 0.34375,
              "duration": 0.3229166666666667
            },
            {
              "pitch": 72,
              "velocity": 40,
              "position": 0.3541666666666667,
              "duration": 0.3229166666666667
            },
            {
              "pitch": 58,
              "velocity": 60,
              "position": 0.6666666666666666,
              "duration": 0.3229166666666667
            },
            {
              "pitch": 64,
              "velocity": 60,
              "position": 0.6666666666666666,
              "duration": 0.32916666666666666
            },
            {
              "pitch": 67,
              "velocity": 60,
              "position": 0.6770833333333334,
              "duration": 0.3229166666666667
            },
            {
              "pitch": 72,
              "velocity": 60,
              "position": 0.6875,
              "duration": 0.3229166666666667
            },
            {
              "pitch": 58,
              "velocity": 100,
              "position": 1,
              "duration": 0.08333333333333333
            },
            {
              "pitch": 64,
              "velocity": 100,
              "position": 1,
              "duration": 0.08333333333333333
            },
            {
              "pitch": 67,
              "velocity": 100,
              "position": 1.0104166666666667,
              "duration": 0.08333333333333333
            },
            {
              "pitch": 72,
              "velocity": 100,
              "position": 1.0208333333333333,
              "duration": 0.08333333333333333
            },
            {
              "pitch": 58,
              "velocity": 50,
              "position": 1.3333333333333333,
              "duration": 0.3229166666666667
            },
            {
              "pitch": 64,
              "velocity": 50,
              "position": 1.3333333333333333,
              "duration": 0.32916666666666666
            },
            {
              "pitch": 67,
              "velocity": 50,
              "position": 1.34375,
              "duration": 0.3229166666666667
            },
            {
              "pitch": 72,
              "velocity": 50,
              "position": 1.3541666666666667,
              "duration": 0.3229166666666667
            },
            {
              "pitch": 58,
              "velocity": 70,
              "position": 1.6666666666666667,
              "duration": 0.3229166666666667
            },
            {
              "pitch": 64,
              "velocity": 70,
              "position": 1.6666666666666667,
              "duration": 0.32916666666666666
            },
            {
              "pitch": 67,
              "velocity": 70,
              "position": 1.6770833333333333,
              "duration": 0.3229166666666667
            },
            {
              "pitch": 72,
              "velocity": 70,
              "position": 1.6875,
              "duration": 0.3229166666666667
            },
            {
              "pitch": 58,
              "velocity": 80,
              "position": 2,
              "duration": 0.3229166666666667
            },
            {
              "pitch": 64,
              "velocity": 80,
              "position": 2,
              "duration": 0.32916666666666666
            },
            {
              "pitch": 67,
              "velocity": 80,
              "position": 2.0104166666666665,
              "duration": 0.3229166666666667
            },
            {
              "pitch": 72,
              "velocity": 80,
              "position": 2.0208333333333335,
              "duration": 0.3229166666666667
            },
            {
              "pitch": 58,
              "velocity": 60,
              "position": 2.3333333333333335,
              "duration": 0.3229166666666667
            },
            {
              "pitch": 64,
              "velocity": 60,
              "position": 2.3333333333333335,
              "duration": 0.32916666666666666
            },
            {
              "pitch": 67,
              "velocity": 60,
              "position": 2.34375,
              "duration": 0.3229166666666667
            },
            {
              "pitch": 72,
              "velocity": 60,
              "position": 2.3541666666666665,
              "duration": 0.3229166666666667
            },
            {
              "pitch": 58,
              "velocity": 80,
              "position": 2.6666666666666665,
              "duration": 0.3229166666666667
            },
            {
              "pitch": 64,
              "velocity": 80,
              "position": 2.6666666666666665,
              "duration": 0.32916666666666666
            },
            {
              "pitch": 67,
              "velocity": 80,
              "position": 2.6770833333333335,
              "duration": 0.3229166666666667
            },
            {
              "pitch": 72,
              "velocity": 80,
              "position": 2.6875,
              "duration": 0.3229166666666667
            },
            {
              "pitch": 58,
              "velocity": 100,
              "position": 3,
              "duration": 0.3229166666666667
            },
            {
              "pitch": 64,
              "velocity": 100,
              "position": 3,
              "duration": 0.32916666666666666
            },
            {
              "pitch": 67,
              "velocity": 100,
              "position": 3.0104166666666665,
              "duration": 0.3229166666666667
            },
            {
              "pitch": 72,
              "velocity": 100,
              "position": 3.0208333333333335,
              "duration": 0.3229166666666667
            },
            {
              "pitch": 58,
              "velocity": 80,
              "position": 3.3333333333333335,
              "duration": 0.3229166666666667
            },
            {
              "pitch": 64,
              "velocity": 80,
              "position": 3.3333333333333335,
              "duration": 0.32916666666666666
            },
            {
              "pitch": 67,
              "velocity": 80,
              "position": 3.34375,
              "duration": 0.3229166666666667
            },
            {
              "pitch": 72,
              "velocity": 80,
              "position": 3.3541666666666665,
              "duration": 0.3229166666666667
            },
            {
              "pitch": 58,
              "velocity": 100,
              "position": 3.6666666666666665,
              "duration": 0.3229166666666667
            },
            {
              "pitch": 64,
              "velocity": 100,
              "position": 3.6666666666666665,
              "duration": 0.3229166666666667
            },
            {
              "pitch": 67,
              "velocity": 100,
              "position": 3.6770833333333335,
              "duration": 0.3125
            },
            {
              "pitch": 72,
              "velocity": 100,
              "position": 3.6875,
              "duration": 0.3020833333333333
            }
          ]
        },
        "3": {
          "ctab": {
            "srcChannel": 3,
            "name": "PnoRH S",
            "accType": "CHORD2",
            "editable": false,
            "mutedNotes": [],
            "mutedChords": [
              "1+2+5",
              "sus4",
              "1+5",
              "1+8",
              "7aug",
              "Maj7aug",
              "7(#9)",
              "7(b13)",
              "7(b9)",
              "7(13)",
              "7#11",
              "7(9)",
              "7b5",
              "7sus4",
              "7th",
              "dim7",
              "dim",
              "minMaj7(9)",
              "minMaj7",
              "min7(11)",
              "min7(9)",
              "min(9)",
              "m7b5",
              "min7",
              "min6",
              "aug",
              "Maj6(9)",
              "Maj7(9)",
              "Maj(9)",
              "Maj7#11",
              "Maj7",
              "Maj6"
            ],
            "autoStart": false,
            "sourceChordNote": 0,
            "sourceChordType": "Maj7",
            "ctb2Low": null,
            "ctb2Main": {
              "ntr": "ROOT_TRANSPOSITION",
              "ntt": "DORIAN_5",
              "bassOn": false,
              "chordRootUpperLimit": 11,
              "noteLowLimit": 58,
              "noteHighLimit": 79,
              "rtr": "PITCH_SHIFT"
            },
            "ctb2High": null
          },
          "notes": [
            {
              "pitch": 46,
              "velocity": 68,
              "position": 0,
              "duration": 0.3229166666666667
            },
            {
              "pitch": 48,
              "velocity": 56,
              "position": 0,
              "duration": 0.3229166666666667
            },
            {
              "pitch": 52,
              "velocity": 68,
              "position": 0,
              "duration": 0.3229166666666667
            },
            {
              "pitch": 55,
              "velocity": 77,
              "position": 0,
              "duration": 0.3229166666666667
            },
            {
              "pitch": 46,
              "velocity": 57,
              "position": 0.3333333333333333,
              "duration": 0.3229166666666667
            },
            {
              "pitch": 48,
              "velocity": 56,
              "position": 0.3333333333333333,
              "duration": 0.3229166666666667
            },
            {
              "pitch": 52,
              "velocity": 57,
              "position": 0.3333333333333333,
              "duration": 0.3229166666666667
            },
            {
              "pitch": 55,
              "velocity": 62,
              "position": 0.3333333333333333,
              "duration": 0.3229166666666667
            },
            {
              "pitch": 46,
              "velocity": 52,
              "position": 0.6666666666666666,
              "duration": 0.3229166666666667
            },
            {
              "pitch": 48,
              "velocity": 60,
              "position": 0.6666666666666666,
              "duration": 0.3229166666666667
            },
            {
              "pitch": 52,
              "velocity": 52,
              "position": 0.6666666666666666,
              "duration": 0.3229166666666667
            },
            {
              "pitch": 55,
              "velocity": 50,
              "position": 0.6666666666666666,
              "duration": 0.3229166666666667
            },
            {
              "pitch": 46,
              "velocity": 70,
              "position": 1,
              "duration": 0.3229166666666667
            },
            {
              "pitch": 48,
              "velocity": 70,
              "position": 1,
              "duration": 0.3229166666666667
            },
            {
              "pitch": 52,
              "velocity": 70,
              "position": 1,
              "duration": 0.3229166666666667
            },
            {
              "pitch": 55,
              "velocity": 77,
              "position": 1,
              "duration": 0.3229166666666667
            },
            {
              "pitch": 78,
              "velocity": 70,
              "position": 1.3333333333333333,
              "duration": 0.052083333333333336
            },
            {
              "pitch": 74,
              "velocity": 70,
              "position": 1.3333333333333333,
              "duration": 0.22916666666666666
            },
            {
              "pitch": 82,
              "velocity": 73,
              "position": 1.3333333333333333,
              "duration": 0.22916666666666666
            },
            {
              "pitch": 79,
              "velocity": 70,
              "position": 1.3854166666666667,
              "duration": 0.17708333333333334
            },
            {
              "pitch": 55,
              "velocity": 70,
              "position": 1.5520833333333333,
              "duration": 0.10416666666666667
            },
            {
              "pitch": 72,
              "velocity": 81,
              "position": 1.6666666666666667,
              "duration": 0.2708333333333333
            },
            {
              "pitch": 77,
              "velocity": 100,
              "position": 1.6666666666666667,
              "duration": 0.2708333333333333
            },
            {
              "pitch": 81,
              "velocity": 93,
              "position": 1.6666666666666667,
              "duration": 0.2708333333333333
            },
            {
              "pitch": 70,
              "velocity": 84,
              "position": 2,
              "duration": 0.22916666666666666
            },
            {
              "pitch": 76,
              "velocity": 84,
              "position": 2,
              "duration": 0.22916666666666666
            },
            {
              "pitch": 79,
              "velocity": 84,
              "position": 2,
              "duration": 0.22916666666666666
            },
            {
              "pitch": 55,
              "velocity": 70,
              "position": 2.21875,
              "duration": 0.10416666666666667
            },
            {
              "pitch": 69,
              "velocity": 57,
              "position": 2.3333333333333335,
              "duration": 0.2708333333333333
            },
            {
              "pitch": 74,
              "velocity": 70,
              "position": 2.3333333333333335,
              "duration": 0.2708333333333333
            },
            {
              "pitch": 77,
              "velocity": 70,
              "position": 2.3333333333333335,
              "duration": 0.2708333333333333
            },
            {
              "pitch": 75,
              "velocity": 96,
              "position": 2.6666666666666665,
              "duration": 0.052083333333333336
            },
            {
              "pitch": 76,
              "velocity": 78,
              "position": 2.7083333333333335,
              "duration": 0.13541666666666666
            },
            {
              "pitch": 67,
              "velocity": 79,
              "position": 2.6666666666666665,
              "duration": 0.1875
            },
            {
              "pitch": 72,
              "velocity": 83,
              "position": 2.6666666666666665,
              "duration": 0.1875
            },
            {
              "pitch": 48,
              "velocity": 70,
              "position": 2.5520833333333335,
              "duration": 0.3229166666666667
            },
            {
              "pitch": 75,
              "velocity": 96,
              "position": 3,
              "duration": 0.052083333333333336
            },
            {
              "pitch": 48,
              "velocity": 70,
              "position": 2.8854166666666665,
              "duration": 0.3229166666666667
            },
            {
              "pitch": 65,
              "velocity": 68,
              "position": 3,
              "duration": 0.3229166666666667
            },
            {
              "pitch": 70,
              "velocity": 88,
              "position": 3,
              "duration": 0.3229166666666667
            },
            {
              "pitch": 74,
              "velocity": 94,
              "position": 3.0416666666666665,
              "duration": 0.28125
            },
            {
              "pitch": 65,
              "velocity": 60,
              "position": 3.3333333333333335,
              "duration": 0.15625
            },
            {
              "pitch": 69,
              "velocity": 60,
              "position": 3.3333333333333335,
              "duration": 0.15625
            },
            {
              "pitch": 72,
              "velocity": 60,
              "position": 3.3333333333333335,
              "duration": 0.15625
            },
            {
              "pitch": 48,
              "velocity": 70,
              "position": 3.21875,
              "duration": 0.3229166666666667
            },
            {
              "pitch": 48,
              "velocity": 70,
              "position": 3.5520833333333335,
              "duration": 0.3229166666666667
            },
            {
              "pitch": 48,
              "velocity": 67,
              "position": 3.8854166666666665,
              "duration": 0.10416666666666667
            },
            {
              "pitch": 64,
              "velocity": 95,
              "position": 3.6666666666666665,
              "duration": 0.3229166666666667
            },
            {
              "pitch": 67,
              "velocity": 100,
              "position": 3.6666666666666665,
              "duration": 0.3229166666666667
            },
            {
              "pitch": 72,
              "velocity": 100,
              "position": 3.6666666666666665,
              "duration": 0.3229166666666667
            }
          ]
        },
        "4": {
          "ctab": {
            "srcChannel": 4,
            "name": "Org S",
            "accType": "PAD",
            "editable": false,
            "mutedNotes": [],
            "mutedChords": [
              "1+2+5",
              "sus4",
              "1+5",
              "1+8",
              "7aug",
              "Maj7aug",
              "7(#9)",
              "7(b13)",
              "7(b9)",
              "7(13)",
              "7#11",
              "7(9)",
              "7b5",
              "7sus4",
              "7th",
              "dim7",
              "dim",
              "minMaj7(9)",
              "minMaj7",
              "min7(11)",
              "min7(9)",
              "min(9)",
              "m7b5",
              "min7",
              "min6",
              "aug",
              "Maj6(9)",
              "Maj7(9)",
              "Maj(9)",
              "Maj7#11",
              "Maj7",
              "Maj6"
            ],
            "autoStart": false,
            "sourceChordNote": 0,
            "sourceChordType": "Maj7",
            "ctb2Low": null,
            "ctb2Main": {
              "ntr": "ROOT_TRANSPOSITION",
              "ntt": "DORIAN_5",
              "bassOn": false,
              "chordRootUpperLimit": 5,
              "noteLowLimit": 58,
              "noteHighLimit": 79,
              "rtr": "PITCH_SHIFT"
            },
            "ctb2High": null
          },
          "notes": [
            {
              "pitch": 55,
              "velocity": 120,
              "position": 0,
              "duration": 0.9895833333333334
            },
            {
              "pitch": 46,
              "velocity": 120,
              "position": 0,
              "duration": 1.9895833333333333
            },
            {
              "pitch": 55,
              "velocity": 120,
              "position": 1,
              "duration": 0.9895833333333334
            },
            {
              "pitch": 55,
              "velocity": 120,
              "position": 2,
              "duration": 0.9895833333333334
            },
            {
              "pitch": 55,
              "velocity": 120,
              "position": 3,
              "duration": 0.9895833333333334
            },
            {
              "pitch": 48,
              "velocity": 120,
              "position": 0,
              "duration": 3.9895833333333335
            },
            {
              "pitch": 52,
              "velocity": 120,
              "position": 0,
              "duration": 3.9895833333333335
            },
            {
              "pitch": 58,
              "velocity": 120,
              "position": 2,
              "duration": 1.9895833333333333
            }
          ]
        },
        "5": {
          "ctab": {
            "srcChannel": 5,
            "name": "ClGtSMaj",
            "accType": "PHRASE1",
            "editable": false,
            "mutedNotes": [],
            "mutedChords": [
              "1+2+5",
              "sus4",
              "1+5",
              "1+8",
              "7aug",
              "Maj7aug",
              "7(#9)",
              "7(b13)",
              "7(b9)",
              "7(13)",
              "7#11",
              "7(9)",
              "7b5",
              "7sus4",
              "7th",
              "dim7",
              "dim",
              "minMaj7(9)",
              "minMaj7",
              "min7(11)",
              "min7(9)",
              "min(9)",
              "m7b5",
              "min7",
              "min6",
              "min",
              "aug",
              "Maj6(9)",
              "Maj7(9)",
              "Maj(9)",
              "Maj7#11",
              "Maj7",
              "Maj6"
            ],
            "autoStart": false,
            "sourceChordNote": 0,
            "sourceChordType": "Maj7",
            "ctb2Low": null,
            "ctb2Main": {
              "ntr": "ROOT_TRANSPOSITION",
              "ntt": "DORIAN_5",
              "bassOn": false,
              "chordRootUpperLimit": 4,
              "noteLowLimit": 0,
              "noteHighLimit": 127,
              "rtr": "PITCH_SHIFT"
            },
            "ctb2High": null
          },
          "notes": [
            {
              "pitch": 60,
              "velocity": 116,
              "position": 0,
              "duration": 0.9895833333333334
            },
            {
              "pitch": 55,
              "velocity": 36,
              "position": 1,
              "duration": 0.3229166666666667
            },
            {
              "pitch": 57,
              "velocity": 16,
              "position": 1.3333333333333333,
              "duration": 0.3229166666666667
            },
            {
              "pitch": 60,
              "velocity": 36,
              "position": 1.6666666666666667,
              "duration": 1.3229166666666667
            },
            {
              "pitch": 63,
              "velocity": 116,
              "position": 3,
              "duration": 0.65625
            },
            {
              "pitch": 62,
              "velocity": 16,
              "position": 3.6666666666666665,
              "duration": 0.3229166666666667
            }
          ]
        },
        "6": {
          "ctab": {
            "srcChannel": 6,
            "name": "EP S",
            "accType": "PHRASE2",
            "editable": false,
            "mutedNotes": [],
            "mutedChords": [
              "1+2+5",
              "sus4",
              "1+5",
              "1+8",
              "7aug",
              "Maj7aug",
              "7(#9)",
              "7(b13)",
              "7(b9)",
              "7(13)",
              "7#11",
              "7(9)",
              "7b5",
              "7sus4",
              "7th",
              "dim7",
              "dim",
              "minMaj7(9)",
              "minMaj7",
              "min7(11)",
              "min7(9)",
              "min(9)",
              "m7b5",
              "min7",
              "min6",
              "aug",
              "Maj6(9)",
              "Maj7(9)",
              "Maj(9)",
              "Maj7#11",
              "Maj7",
              "Maj6"
            ],
            "autoStart": false,
            "sourceChordNote": 0,
            "sourceChordType": "Maj7",
            "ctb2Low": null,
            "ctb2Main": {
              "ntr": "ROOT_TRANSPOSITION",
              "ntt": "DORIAN_5",
              "bassOn": false,
              "chordRootUpperLimit": 4,
              "noteLowLimit": 0,
              "noteHighLimit": 127,
              "rtr": "PITCH_SHIFT"
            },
            "ctb2High": null
          },
          "notes": [
            {
              "pitch": 58,
              "velocity": 67,
              "position": 0,
              "duration": 3.3229166666666665
            },
            {
              "pitch": 60,
              "velocity": 67,
              "position": 0,
              "duration": 3.3229166666666665
            },
            {
              "pitch": 64,
              "velocity": 69,
              "position": 0,
              "duration": 3.3229166666666665
            },
            {
              "pitch": 67,
              "velocity": 67,
              "position": 0,
              "duration": 3.3229166666666665
            },
            {
              "pitch": 60,
              "velocity": 71,
              "position": 3.3333333333333335,
              "duration": 0.3229166666666667
            },
            {
              "pitch": 65,
              "velocity": 65,
              "position": 3.3333333333333335,
              "duration": 0.3229166666666667
            },
            {
              "pitch": 69,
              "velocity": 53,
              "position": 3.3333333333333335,
              "duration": 0.3229166666666667
            },
            {
              "pitch": 58,
              "velocity": 71,
              "position": 3.6666666666666665,
              "duration": 0.3229166666666667
            },
            {
              "pitch": 60,
              "velocity": 71,
              "position": 3.6666666666666665,
              "duration": 0.3229166666666667
            },
            {
              "pitch": 64,
              "velocity": 65,
              "position": 3.6666666666666665,
              "duration": 0.3229166666666667
            },
            {
              "pitch": 67,
              "velocity": 53,
              "position": 3.6666666666666665,
              "duration": 0.3229166666666667
            }
          ]
        },
        "7": {
          "ctab": {
            "srcChannel": 7,
            "name": "ClGtSmin",
            "accType": "PHRASE1",
            "editable": false,
            "mutedNotes": [],
            "mutedChords": [
              "1+2+5",
              "sus4",
              "1+5",
              "1+8",
              "7aug",
              "Maj7aug",
              "7(#9)",
              "7(b13)",
              "7(b9)",
              "7(13)",
              "7#11",
              "7(9)",
              "7b5",
              "7sus4",
              "7th",
              "dim7",
              "dim",
              "minMaj7(9)",
              "minMaj7",
              "min7(11)",
              "min7(9)",
              "min(9)",
              "m7b5",
              "min7",
              "min6",
              "aug",
              "Maj6(9)",
              "Maj7(9)",
              "Maj(9)",
              "Maj7#11",
              "Maj7",
              "Maj6",
              "Maj"
            ],
            "autoStart": false,
            "sourceChordNote": 0,
            "sourceChordType": "Maj7",
            "ctb2Low": null,
            "ctb2Main": {
              "ntr": "ROOT_TRANSPOSITION",
              "ntt": "DORIAN_5",
              "bassOn": false,
              "chordRootUpperLimit": 4,
              "noteLowLimit": 0,
              "noteHighLimit": 127,
              "rtr": "PITCH_SHIFT"
            },
            "ctb2High": null
          },
          "notes": [
            {
              "pitch": 60,
              "velocity": 116,
              "position": 0,
              "duration": 0.9895833333333334
            },
            {
              "pitch": 55,
              "velocity": 36,
              "position": 1,
              "duration": 0.3229166666666667
            },
            {
              "pitch": 58,
              "velocity": 16,
              "position": 1.3333333333333333,
              "duration": 0.3229166666666667
            },
            {
              "pitch": 60,
              "velocity": 36,
              "position": 1.6666666666666667,
              "duration": 1.3229166666666667
            },
            {
              "pitch": 66,
              "velocity": 116,
              "position": 3,
              "duration": 0.65625
            },
            {
              "pitch": 65,
              "velocity": 16,
              "position": 3.6666666666666665,
              "duration": 0.3229166666666667
            }
          ]
        },
        "8": {
          "ctab": {
            "srcChannel": 8,
            "name": "Perc",
            "accType": "SUBRHYTHM",
            "editable": false,
            "mutedNotes": [],
            "mutedChords": [],
            "autoStart": true,
            "sourceChordNote": 0,
            "sourceChordType": "Maj7",
            "ctb2Low": null,
            "ctb2Main": {
              "ntr": "ROOT_FIXED",
              "ntt": "BYPASS",
              "bassOn": false,
              "chordRootUpperLimit": 6,
              "noteLowLimit": 0,
              "noteHighLimit": 127,
              "rtr": "PITCH_SHIFT"
            },
            "ctb2High": null
          },
          "notes": [
            {
              "pitch": 54,
              "velocity": 36,
              "position": 0,
              "duration": 0.010416666666666666
            },
            {
              "pitch": 54,
              "velocity": 25,
              "position": 0.3333333333333333,
              "duration": 0.010416666666666666
            },
            {
              "pitch": 54,
              "velocity": 26,
              "position": 0.6666666666666666,
              "duration": 0.010416666666666666
            },
            {
              "pitch": 54,
              "velocity": 90,
              "position": 1,
              "duration": 0.010416666666666666
            },
            {
              "pitch": 54,
              "velocity": 25,
              "position": 1.3333333333333333,
              "duration": 0.010416666666666666
            },
            {
              "pitch": 54,
              "velocity": 19,
              "position": 1.6666666666666667,
              "duration": 0.010416666666666666
            },
            {
              "pitch": 54,
              "velocity": 36,
              "position": 2,
              "duration": 0.010416666666666666
            },
            {
              "pitch": 54,
              "velocity": 25,
              "position": 2.3333333333333335,
              "duration": 0.010416666666666666
            },
            {
              "pitch": 54,
              "velocity": 26,
              "position": 2.6666666666666665,
              "duration": 0.010416666666666666
            },
            {
              "pitch": 54,
              "velocity": 90,
              "position": 3,
              "duration": 0.010416666666666666
            },
            {
              "pitch": 54,
              "velocity": 25,
              "position": 3.3333333333333335,
              "duration": 0.010416666666666666
            },
            {
              "pitch": 54,
              "velocity": 19,
              "position": 3.6666666666666665,
              "duration": 0.010416666666666666
            }
          ]
        },
        "9": {
          "ctab": {
            "srcChannel": 9,
            "name": "Drs",
            "accType": "RHYTHM",
            "editable": false,
            "mutedNotes": [],
            "mutedChords": [],
            "autoStart": true,
            "sourceChordNote": 0,
            "sourceChordType": "Maj7",
            "ctb2Low": null,
            "ctb2Main": {
              "ntr": "ROOT_FIXED",
              "ntt": "BYPASS",
              "bassOn": false,
              "chordRootUpperLimit": 6,
              "noteLowLimit": 0,
              "noteHighLimit": 127,
              "rtr": "PITCH_SHIFT"
            },
            "ctb2High": null
          },
          "notes": [
            {
              "pitch": 36,
              "velocity": 90,
              "position": 0,
              "duration": 0.010416666666666666
            },
            {
              "pitch": 42,
              "velocity": 80,
              "position": 0,
              "duration": 0.010416666666666666
            },
            {
              "pitch": 42,
              "velocity": 20,
              "position": 0.10416666666666667,
              "duration": 0.010416666666666666
            },
            {
              "pitch": 40,
              "velocity": 16,
              "position": 0.21875,
              "duration": 0.010416666666666666
            },
            {
              "pitch": 44,
              "velocity": 60,
              "position": 0.3333333333333333,
              "duration": 0.010416666666666666
            },
            {
              "pitch": 42,
              "velocity": 20,
              "position": 0.4375,
              "duration": 0.010416666666666666
            },
            {
              "pitch": 40,
              "velocity": 57,
              "position": 0.5520833333333334,
              "duration": 0.010416666666666666
            },
            {
              "pitch": 42,
              "velocity": 70,
              "position": 0.6666666666666666,
              "duration": 0.010416666666666666
            },
            {
              "pitch": 40,
              "velocity": 20,
              "position": 0.7708333333333334,
              "duration": 0.010416666666666666
            },
            {
              "pitch": 36,
              "velocity": 50,
              "position": 0.8854166666666666,
              "duration": 0.010416666666666666
            },
            {
              "pitch": 36,
              "velocity": 90,
              "position": 1,
              "duration": 0.010416666666666666
            },
            {
              "pitch": 40,
              "velocity": 80,
              "position": 1,
              "duration": 0.010416666666666666
            },
            {
              "pitch": 44,
              "velocity": 80,
              "position": 1,
              "duration": 0.010416666666666666
            },
            {
              "pitch": 46,
              "velocity": 10,
              "position": 1.21875,
              "duration": 0.010416666666666666
            },
            {
              "pitch": 46,
              "velocity": 30,
              "position": 1.3333333333333333,
              "duration": 0.010416666666666666
            },
            {
              "pitch": 40,
              "velocity": 15,
              "position": 1.4375,
              "duration": 0.010416666666666666
            },
            {
              "pitch": 46,
              "velocity": 15,
              "position": 1.5520833333333333,
              "duration": 0.010416666666666666
            },
            {
              "pitch": 36,
              "velocity": 50,
              "position": 1.6666666666666667,
              "duration": 0.010416666666666666
            },
            {
              "pitch": 46,
              "velocity": 40,
              "position": 1.6666666666666667,
              "duration": 0.010416666666666666
            },
            {
              "pitch": 40,
              "velocity": 15,
              "position": 1.7708333333333333,
              "duration": 0.010416666666666666
            },
            {
              "pitch": 46,
              "velocity": 40,
              "position": 1.8854166666666667,
              "duration": 0.010416666666666666
            },
            {
              "pitch": 36,
              "velocity": 90,
              "position": 2,
              "duration": 0.010416666666666666
            },
            {
              "pitch": 46,
              "velocity": 80,
              "position": 2,
              "duration": 0.010416666666666666
            },
            {
              "pitch": 36,
              "velocity": 39,
              "position": 2.3333333333333335,
              "duration": 0.010416666666666666
            },
            {
              "pitch": 40,
              "velocity": 40,
              "position": 2.3333333333333335,
              "duration": 0.010416666666666666
            },
            {
              "pitch": 47,
              "velocity": 53,
              "position": 2.3333333333333335,
              "duration": 0.010416666666666666
            },
            {
              "pitch": 46,
              "velocity": 20,
              "position": 2.3645833333333335,
              "duration": 0.010416666666666666
            },
            {
              "pitch": 36,
              "velocity": 52,
              "position": 2.6666666666666665,
              "duration": 0.010416666666666666
            },
            {
              "pitch": 40,
              "velocity": 60,
              "position": 2.6666666666666665,
              "duration": 0.010416666666666666
            },
            {
              "pitch": 47,
              "velocity": 73,
              "position": 2.6666666666666665,
              "duration": 0.010416666666666666
            },
            {
              "pitch": 46,
              "velocity": 30,
              "position": 2.6979166666666665,
              "duration": 0.010416666666666666
            },
            {
              "pitch": 36,
              "velocity": 65,
              "position": 3,
              "duration": 0.010416666666666666
            },
            {
              "pitch": 40,
              "velocity": 80,
              "position": 3,
              "duration": 0.010416666666666666
            },
            {
              "pitch": 47,
              "velocity": 80,
              "position": 3,
              "duration": 0.010416666666666666
            },
            {
              "pitch": 46,
              "velocity": 40,
              "position": 3.03125,
              "duration": 0.010416666666666666
            },
            {
              "pitch": 36,
              "velocity": 78,
              "position": 3.3333333333333335,
              "duration": 0.010416666666666666
            },
            {
              "pitch": 40,
              "velocity": 100,
              "position": 3.3333333333333335,
              "duration": 0.010416666666666666
            },
            {
              "pitch": 45,
              "velocity": 80,
              "position": 3.3333333333333335,
              "duration": 0.010416666666666666
            },
            {
              "pitch": 46,
              "velocity": 50,
              "position": 3.3645833333333335,
              "duration": 0.010416666666666666
            },
            {
              "pitch": 36,
              "velocity": 90,
              "position": 3.6666666666666665,
              "duration": 0.010416666666666666
            },
            {
              "pitch": 40,
              "velocity": 106,
              "position": 3.6666666666666665,
              "duration": 0.010416666666666666
            },
            {
              "pitch": 43,
              "velocity": 90,
              "position": 3.6666666666666665,
              "duration": 0.010416666666666666
            },
            {
              "pitch": 46,
              "velocity": 70,
              "position": 3.6979166666666665,
              "duration": 0.010416666666666666
            }
          ]
        },
        "10": {
          "ctab": {
            "srcChannel": 10,
            "name": "BassMain",
            "accType": "BASS",
            "editable": false,
            "mutedNotes": [],
            "mutedChords": [
              "7aug",
              "dim",
              "minMaj7(9)",
              "minMaj7",
              "min(9)",
              "m7b5",
              "min",
              "aug"
            ],
            "autoStart": false,
            "sourceChordNote": 0,
            "sourceChordType": "Maj7",
            "ctb2Low": null,
            "ctb2Main": {
              "ntr": "ROOT_TRANSPOSITION",
              "ntt": "MELODY",
              "bassOn": true,
              "chordRootUpperLimit": 8,
              "noteLowLimit": 28,
              "noteHighLimit": 127,
              "rtr": "PITCH_SHIFT_TO_ROOT"
            },
            "ctb2High": null
          },
          "notes": [
            {
              "pitch": 24,
              "velocity": 100,
              "position": 0,
              "duration": 0.6041666666666666
            },
            {
              "pitch": 24,
              "velocity": 89,
              "position": 0.6666666666666666,
              "duration": 0.2708333333333333
            },
            {
              "pitch": 24,
              "velocity": 100,
              "position": 1,
              "duration": 0.2708333333333333
            },
            {
              "pitch": 24,
              "velocity": 89,
              "position": 1.3333333333333333,
              "duration": 0.3229166666666667
            },
            {
              "pitch": 24,
              "velocity": 89,
              "position": 1.6666666666666667,
              "duration": 0.3229166666666667
            },
            {
              "pitch": 24,
              "velocity": 100,
              "position": 2,
              "duration": 0.3229166666666667
            },
            {
              "pitch": 24,
              "velocity": 89,
              "position": 2.3333333333333335,
              "duration": 0.3229166666666667
            },
            {
              "pitch": 31,
              "velocity": 89,
              "position": 2.6666666666666665,
              "duration": 0.3229166666666667
            },
            {
              "pitch": 33,
              "velocity": 100,
              "position": 3,
              "duration": 0.3229166666666667
            },
            {
              "pitch": 36,
              "velocity": 89,
              "position": 3.3333333333333335,
              "duration": 0.3229166666666667
            },
            {
              "pitch": 33,
              "velocity": 89,
              "position": 3.6666666666666665,
              "duration": 0.3229166666666667
            }
          ]
        },
        "11": {
          "ctab": {
            "srcChannel": 11,
            "name": "60cCln",
            "accType": "CHORD1",
            "editable": false,
            "mutedNotes": [],
            "mutedChords": [
              "min",
              "Maj"
            ],
            "autoStart": false,
            "sourceChordNote": 0,
            "sourceChordType": "Maj7",
            "ctb2Low": null,
            "ctb2Main": {
              "ntr": "ROOT_FIXED",
              "ntt": "CHORD",
              "bassOn": false,
              "chordRootUpperLimit": 7,
              "noteLowLimit": 0,
              "noteHighLimit": 127,
              "rtr": "PITCH_SHIFT"
            },
            "ctb2High": null
          },
          "notes": [
            {
              "pitch": 59,
              "velocity": 80,
              "position": 0,
              "duration": 0.3229166666666667
            },
            {
              "pitch": 64,
              "velocity": 80,
              "position": 0,
              "duration": 0.32916666666666666
            },
            {
              "pitch": 67,
              "velocity": 80,
              "position": 0.010416666666666666,
              "duration": 0.3229166666666667
            },
            {
              "pitch": 59,
              "velocity": 40,
              "position": 0.3333333333333333,
              "duration": 0.3229166666666667
            },
            {
              "pitch": 64,
              "velocity": 40,
              "position": 0.3333333333333333,
              "duration": 0.32916666666666666
            },
            {
              "pitch": 67,
              "velocity": 40,
              "position": 0.34375,
              "duration": 0.3229166666666667
            },
            {
              "pitch": 59,
              "velocity": 60,
              "position": 0.6666666666666666,
              "duration": 0.3229166666666667
            },
            {
              "pitch": 64,
              "velocity": 60,
              "position": 0.6666666666666666,
              "duration": 0.32916666666666666
            },
            {
              "pitch": 67,
              "velocity": 60,
              "position": 0.6770833333333334,
              "duration": 0.3229166666666667
            },
            {
              "pitch": 59,
              "velocity": 100,
              "position": 1,
              "duration": 0.08333333333333333
            },
            {
              "pitch": 64,
              "velocity": 100,
              "position": 1,
              "duration": 0.08333333333333333
            },
            {
              "pitch": 67,
              "velocity": 100,
              "position": 1.0104166666666667,
              "duration": 0.08333333333333333
            },
            {
              "pitch": 59,
              "velocity": 50,
              "position": 1.3333333333333333,
              "duration": 0.3229166666666667
            },
            {
              "pitch": 64,
              "velocity": 50,
              "position": 1.3333333333333333,
              "duration": 0.32916666666666666
            },
            {
              "pitch": 67,
              "velocity": 50,
              "position": 1.34375,
              "duration": 0.3229166666666667
            },
            {
              "pitch": 59,
              "velocity": 70,
              "position": 1.6666666666666667,
              "duration": 0.3229166666666667
            },
            {
              "pitch": 64,
              "velocity": 70,
              "position": 1.6666666666666667,
              "duration": 0.32916666666666666
            },
            {
              "pitch": 67,
              "velocity": 70,
              "position": 1.6770833333333333,
              "duration": 0.3229166666666667
            },
            {
              "pitch": 59,
              "velocity": 80,
              "position": 2,
              "duration": 0.3229166666666667
            },
            {
              "pitch": 64,
              "velocity": 80,
              "position": 2,
              "duration": 0.32916666666666666
            },
            {
              "pitch": 67,
              "velocity": 80,
              "position": 2.0104166666666665,
              "duration": 0.3229166666666667
            },
            {
              "pitch": 59,
              "velocity": 60,
              "position": 2.3333333333333335,
              "duration": 0.3229166666666667
            },
            {
              "pitch": 64,
              "velocity": 60,
              "position": 2.3333333333333335,
              "duration": 0.32916666666666666
            },
            {
              "pitch": 67,
              "velocity": 60,
              "position": 2.34375,
              "duration": 0.3229166666666667
            },
            {
              "pitch": 59,
              "velocity": 80,
              "position": 2.6666666666666665,
              "duration": 0.3229166666666667
            },
            {
              "pitch": 64,
              "velocity": 80,
              "position": 2.6666666666666665,
              "duration": 0.32916666666666666
            },
            {
              "pitch": 67,
              "velocity": 80,
              "position": 2.6770833333333335,
              "duration": 0.3229166666666667
            },
            {
              "pitch": 59,
              "velocity": 100,
              "position": 3,
              "duration": 0.3229166666666667
            },
            {
              "pitch": 64,
              "velocity": 100,
              "position": 3,
              "duration": 0.32916666666666666
            },
            {
              "pitch": 67,
              "velocity": 100,
              "position": 3.0104166666666665,
              "duration": 0.3229166666666667
            },
            {
              "pitch": 59,
              "velocity": 80,
              "position": 3.3333333333333335,
              "duration": 0.3229166666666667
            },
            {
              "pitch": 64,
              "velocity": 80,
              "position": 3.3333333333333335,
              "duration": 0.32916666666666666
            },
            {
              "pitch": 67,
              "velocity": 80,
              "position": 3.34375,
              "duration": 0.3229166666666667
            },
            {
              "pitch": 59,
              "velocity": 100,
              "position": 3.6666666666666665,
              "duration": 0.3229166666666667
            },
            {
              "pitch": 64,
              "velocity": 100,
              "position": 3.6666666666666665,
              "duration": 0.3229166666666667
            },
            {
              "pitch": 67,
              "velocity": 100,
              "position": 3.6770833333333335,
              "duration": 0.3125
            }
          ]
        },
        "12": {
          "ctab": {
            "srcChannel": 12,
            "name": "Pno RH",
            "accType": "CHORD2",
            "editable": false,
            "mutedNotes": [],
            "mutedChords": [
              "min",
              "Maj"
            ],
            "autoStart": false,
            "sourceChordNote": 0,
            "sourceChordType": "Maj7",
            "ctb2Low": null,
            "ctb2Main": {
              "ntr": "ROOT_FIXED",
              "ntt": "CHORD",
              "bassOn": false,
              "chordRootUpperLimit": 7,
              "noteLowLimit": 0,
              "noteHighLimit": 79,
              "rtr": "PITCH_SHIFT"
            },
            "ctb2High": null
          },
          "notes": [
            {
              "pitch": 64,
              "velocity": 68,
              "position": 0,
              "duration": 0.3229166666666667
            },
            {
              "pitch": 67,
              "velocity": 77,
              "position": 0,
              "duration": 0.3229166666666667
            },
            {
              "pitch": 71,
              "velocity": 56,
              "position": 0,
              "duration": 0.3229166666666667
            },
            {
              "pitch": 64,
              "velocity": 57,
              "position": 0.3333333333333333,
              "duration": 0.3229166666666667
            },
            {
              "pitch": 67,
              "velocity": 62,
              "position": 0.3333333333333333,
              "duration": 0.3229166666666667
            },
            {
              "pitch": 71,
              "velocity": 56,
              "position": 0.3333333333333333,
              "duration": 0.3229166666666667
            },
            {
              "pitch": 64,
              "velocity": 52,
              "position": 0.6666666666666666,
              "duration": 0.3229166666666667
            },
            {
              "pitch": 67,
              "velocity": 50,
              "position": 0.6666666666666666,
              "duration": 0.3229166666666667
            },
            {
              "pitch": 71,
              "velocity": 60,
              "position": 0.6666666666666666,
              "duration": 0.3229166666666667
            },
            {
              "pitch": 64,
              "velocity": 70,
              "position": 1,
              "duration": 0.3229166666666667
            },
            {
              "pitch": 67,
              "velocity": 77,
              "position": 1,
              "duration": 0.3229166666666667
            },
            {
              "pitch": 71,
              "velocity": 70,
              "position": 1,
              "duration": 0.3229166666666667
            },
            {
              "pitch": 76,
              "velocity": 70,
              "position": 1.3333333333333333,
              "duration": 0.3229166666666667
            },
            {
              "pitch": 79,
              "velocity": 70,
              "position": 1.3333333333333333,
              "duration": 0.3229166666666667
            },
            {
              "pitch": 83,
              "velocity": 73,
              "position": 1.3333333333333333,
              "duration": 0.3229166666666667
            },
            {
              "pitch": 71,
              "velocity": 81,
              "position": 1.6666666666666667,
              "duration": 0.3229166666666667
            },
            {
              "pitch": 76,
              "velocity": 100,
              "position": 1.6666666666666667,
              "duration": 0.3229166666666667
            },
            {
              "pitch": 79,
              "velocity": 93,
              "position": 1.6666666666666667,
              "duration": 0.3229166666666667
            },
            {
              "pitch": 67,
              "velocity": 70,
              "position": 1.5520833333333333,
              "duration": 0.65625
            },
            {
              "pitch": 71,
              "velocity": 60,
              "position": 2,
              "duration": 0.3229166666666667
            },
            {
              "pitch": 76,
              "velocity": 60,
              "position": 2,
              "duration": 0.3229166666666667
            },
            {
              "pitch": 79,
              "velocity": 60,
              "position": 2,
              "duration": 0.3229166666666667
            },
            {
              "pitch": 67,
              "velocity": 70,
              "position": 2.21875,
              "duration": 0.10416666666666667
            },
            {
              "pitch": 67,
              "velocity": 81,
              "position": 2.3333333333333335,
              "duration": 0.3229166666666667
            },
            {
              "pitch": 71,
              "velocity": 94,
              "position": 2.3333333333333335,
              "duration": 0.3229166666666667
            },
            {
              "pitch": 76,
              "velocity": 94,
              "position": 2.3333333333333335,
              "duration": 0.3229166666666667
            },
            {
              "pitch": 60,
              "velocity": 70,
              "position": 2.5520833333333335,
              "duration": 0.3229166666666667
            },
            {
              "pitch": 67,
              "velocity": 79,
              "position": 2.6666666666666665,
              "duration": 0.3229166666666667
            },
            {
              "pitch": 72,
              "velocity": 83,
              "position": 2.6666666666666665,
              "duration": 0.3229166666666667
            },
            {
              "pitch": 76,
              "velocity": 96,
              "position": 2.6666666666666665,
              "duration": 0.3229166666666667
            },
            {
              "pitch": 60,
              "velocity": 70,
              "position": 2.8854166666666665,
              "duration": 0.3229166666666667
            },
            {
              "pitch": 64,
              "velocity": 68,
              "position": 3,
              "duration": 0.3229166666666667
            },
            {
              "pitch": 67,
              "velocity": 94,
              "position": 3,
              "duration": 0.3229166666666667
            },
            {
              "pitch": 71,
              "velocity": 88,
              "position": 3,
              "duration": 0.3229166666666667
            },
            {
              "pitch": 60,
              "velocity": 70,
              "position": 3.21875,
              "duration": 0.3229166666666667
            },
            {
              "pitch": 64,
              "velocity": 60,
              "position": 3.3333333333333335,
              "duration": 0.3229166666666667
            },
            {
              "pitch": 67,
              "velocity": 60,
              "position": 3.3333333333333335,
              "duration": 0.3229166666666667
            },
            {
              "pitch": 71,
              "velocity": 60,
              "position": 3.3333333333333335,
              "duration": 0.3229166666666667
            },
            {
              "pitch": 60,
              "velocity": 70,
              "position": 3.5520833333333335,
              "duration": 0.3229166666666667
            },
            {
              "pitch": 48,
              "velocity": 75,
              "position": 2.2083333333333335,
              "duration": 1.7708333333333333
            },
            {
              "pitch": 64,
              "velocity": 95,
              "position": 3.6666666666666665,
              "duration": 0.3229166666666667
            },
            {
              "pitch": 67,
              "velocity": 100,
              "position": 3.6666666666666665,
              "duration": 0.3229166666666667
            },
            {
              "pitch": 71,
              "velocity": 100,
              "position": 3.6666666666666665,
              "duration": 0.3229166666666667
            },
            {
              "pitch": 60,
              "velocity": 70,
              "position": 3.8854166666666665,
              "duration": 0.10416666666666667
            }
          ]
        },
        "13": {
          "ctab": {
            "srcChannel": 13,
            "name": "Org",
            "accType": "PAD",
            "editable": false,
            "mutedNotes": [],
            "mutedChords": [
              "min",
              "Maj"
            ],
            "autoStart": false,
            "sourceChordNote": 0,
            "sourceChordType": "Maj7",
            "ctb2Low": null,
            "ctb2Main": {
              "ntr": "ROOT_FIXED",
              "ntt": "CHORD",
              "bassOn": false,
              "chordRootUpperLimit": 7,
              "noteLowLimit": 0,
              "noteHighLimit": 127,
              "rtr": "PITCH_SHIFT"
            },
            "ctb2High": null
          },
          "notes": [
            {
              "pitch": 55,
              "velocity": 120,
              "position": 0,
              "duration": 0.9895833333333334
            },
            {
              "pitch": 67,
              "velocity": 120,
              "position": 1,
              "duration": 0.9895833333333334
            },
            {
              "pitch": 67,
              "velocity": 120,
              "position": 2,
              "duration": 0.9895833333333334
            },
            {
              "pitch": 71,
              "velocity": 120,
              "position": 2,
              "duration": 0.9895833333333334
            },
            {
              "pitch": 67,
              "velocity": 120,
              "position": 3,
              "duration": 0.9895833333333334
            },
            {
              "pitch": 59,
              "velocity": 120,
              "position": 0,
              "duration": 3.9895833333333335
            },
            {
              "pitch": 64,
              "velocity": 120,
              "position": 0,
              "duration": 3.9895833333333335
            }
          ]
        },
        "14": {
          "ctab": {
            "srcChannel": 14,
            "name": "ClGt",
            "accType": "PHRASE1",
            "editable": false,
            "mutedNotes": [],
            "mutedChords": [
              "min",
              "Maj"
            ],
            "autoStart": false,
            "sourceChordNote": 0,
            "sourceChordType": "Maj7",
            "ctb2Low": null,
            "ctb2Main": {
              "ntr": "ROOT_TRANSPOSITION",
              "ntt": "MELODY",
              "bassOn": false,
              "chordRootUpperLimit": 4,
              "noteLowLimit": 0,
              "noteHighLimit": 127,
              "rtr": "PITCH_SHIFT"
            },
            "ctb2High": null
          },
          "notes": [
            {
              "pitch": 59,
              "velocity": 116,
              "position": 0,
              "duration": 0.9895833333333334
            },
            {
              "pitch": 55,
              "velocity": 116,
              "position": 1,
              "duration": 0.3229166666666667
            },
            {
              "pitch": 59,
              "velocity": 16,
              "position": 1.3333333333333333,
              "duration": 0.3229166666666667
            },
            {
              "pitch": 59,
              "velocity": 33,
              "position": 1.6666666666666667,
              "duration": 0.65625
            },
            {
              "pitch": 59,
              "velocity": 16,
              "position": 2.3333333333333335,
              "duration": 0.3229166666666667
            },
            {
              "pitch": 59,
              "velocity": 33,
              "position": 2.6666666666666665,
              "duration": 0.3229166666666667
            },
            {
              "pitch": 64,
              "velocity": 116,
              "position": 3,
              "duration": 0.9895833333333334
            },
            {
              "pitch": 71,
              "velocity": 26,
              "position": 3.3333333333333335,
              "duration": 0.65625
            },
            {
              "pitch": 59,
              "velocity": 16,
              "position": 3.6666666666666665,
              "duration": 0.3229166666666667
            }
          ]
        },
        "15": {
          "ctab": {
            "srcChannel": 15,
            "name": "EP",
            "accType": "PHRASE2",
            "editable": false,
            "mutedNotes": [],
            "mutedChords": [
              "min",
              "Maj"
            ],
            "autoStart": false,
            "sourceChordNote": 0,
            "sourceChordType": "Maj7",
            "ctb2Low": null,
            "ctb2Main": {
              "ntr": "ROOT_FIXED",
              "ntt": "CHORD",
              "bassOn": false,
              "chordRootUpperLimit": 7,
              "noteLowLimit": 0,
              "noteHighLimit": 127,
              "rtr": "PITCH_SHIFT"
            },
            "ctb2High": null
          },
          "notes": [
            {
              "pitch": 59,
              "velocity": 67,
              "position": 0,
              "duration": 3.3229166666666665
            },
            {
              "pitch": 64,
              "velocity": 69,
              "position": 0,
              "duration": 3.3229166666666665
            },
            {
              "pitch": 67,
              "velocity": 67,
              "position": 0,
              "duration": 3.3229166666666665
            },
            {
              "pitch": 59,
              "velocity": 71,
              "position": 3.3333333333333335,
              "duration": 0.3229166666666667
            },
            {
              "pitch": 64,
              "velocity": 65,
              "position": 3.3333333333333335,
              "duration": 0.3229166666666667
            },
            {
              "pitch": 67,
              "velocity": 53,
              "position": 3.3333333333333335,
              "duration": 0.3229166666666667
            },
            {
              "pitch": 59,
              "velocity": 71,
              "position": 3.6666666666666665,
              "duration": 0.3229166666666667
            },
            {
              "pitch": 64,
              "velocity": 65,
              "position": 3.6666666666666665,
              "duration": 0.3229166666666667
            },
            {
              "pitch": 67,
              "velocity": 53,
              "position": 3.6666666666666665,
              "duration": 0.3229166666666667
            }
          ]
        }
      }
    },
    "Fill_In_DD": {
      "type": "Fill_In_DD",
      "sizeInBeats": 4,
      "channels": {
        "0": {
          "ctab": {
            "srcChannel": 0,
            "name": "Pno LH",
            "accType": "CHORD2",
            "editable": false,
            "mutedNotes": [],
            "mutedChords": [],
            "autoStart": false,
            "sourceChordNote": 0,
            "sourceChordType": "Maj7",
            "ctb2Low": null,
            "ctb2Main": {
              "ntr": "ROOT_TRANSPOSITION",
              "ntt": "MELODY",
              "bassOn": true,
              "chordRootUpperLimit": 8,
              "noteLowLimit": 0,
              "noteHighLimit": 127,
              "rtr": "PITCH_SHIFT_TO_ROOT"
            },
            "ctb2High": null
          },
          "notes": [
            {
              "pitch": 36,
              "velocity": 100,
              "position": 0,
              "duration": 0.9895833333333334
            },
            {
              "pitch": 40,
              "velocity": 70,
              "position": 1,
              "duration": 0.9895833333333334
            },
            {
              "pitch": 43,
              "velocity": 40,
              "position": 2,
              "duration": 0.9895833333333334
            },
            {
              "pitch": 43,
              "velocity": 100,
              "position": 3.5520833333333335,
              "duration": 0.4375
            }
          ]
        },
        "1": {
          "ctab": {
            "srcChannel": 1,
            "name": "BassAlt",
            "accType": "BASS",
            "editable": false,
            "mutedNotes": [],
            "mutedChords": [
              "1+2+5",
              "sus4",
              "1+5",
              "1+8",
              "Maj7aug",
              "7(#9)",
              "7(b13)",
              "7(b9)",
              "7(13)",
              "7#11",
              "7(9)",
              "7b5",
              "7sus4",
              "7th",
              "dim7",
              "min7(11)",
              "min7(9)",
              "min7",
              "min6",
              "Maj6(9)",
              "Maj7(9)",
              "Maj(9)",
              "Maj7#11",
              "Maj7",
              "Maj6",
              "Maj"
            ],
            "autoStart": false,
            "sourceChordNote": 0,
            "sourceChordType": "Maj7",
            "ctb2Low": null,
            "ctb2Main": {
              "ntr": "ROOT_TRANSPOSITION",
              "ntt": "MELODY",
              "bassOn": true,
              "chordRootUpperLimit": 8,
              "noteLowLimit": 28,
              "noteHighLimit": 127,
              "rtr": "PITCH_SHIFT_TO_ROOT"
            },
            "ctb2High": null
          },
          "notes": [
            {
              "pitch": 24,
              "velocity": 100,
              "position": 0,
              "duration": 0.5520833333333334
            },
            {
              "pitch": 36,
              "velocity": 100,
              "position": 0.5520833333333334,
              "duration": 0.3229166666666667
            },
            {
              "pitch": 24,
              "velocity": 89,
              "position": 0.8854166666666666,
              "duration": 0.10416666666666667
            },
            {
              "pitch": 28,
              "velocity": 100,
              "position": 1,
              "duration": 0.5520833333333334
            },
            {
              "pitch": 40,
              "velocity": 100,
              "position": 1.5520833333333333,
              "duration": 0.3229166666666667
            },
            {
              "pitch": 28,
              "velocity": 89,
              "position": 1.8854166666666667,
              "duration": 0.10416666666666667
            },
            {
              "pitch": 31,
              "velocity": 100,
              "position": 2,
              "duration": 0.5520833333333334
            },
            {
              "pitch": 43,
              "velocity": 100,
              "position": 2.5520833333333335,
              "duration": 0.3229166666666667
            },
            {
              "pitch": 31,
              "velocity": 89,
              "position": 2.8854166666666665,
              "duration": 0.10416666666666667
            },
            {
              "pitch": 36,
              "velocity": 100,
              "position": 3,
              "duration": 0.3229166666666667
            },
            {
              "pitch": 31,
              "velocity": 100,
              "position": 3.3333333333333335,
              "duration": 0.3229166666666667
            },
            {
              "pitch": 24,
              "velocity": 100,
              "position": 3.6666666666666665,
              "duration": 0.3229166666666667
            }
          ]
        },
        "2": {
          "ctab": {
            "srcChannel": 2,
            "name": "60cCln S",
            "accType": "CHORD1",
            "editable": false,
            "mutedNotes": [],
            "mutedChords": [
              "1+2+5",
              "sus4",
              "1+5",
              "1+8",
              "7aug",
              "Maj7aug",
              "7(#9)",
              "7(b13)",
              "7(b9)",
              "7(13)",
              "7#11",
              "7(9)",
              "7b5",
              "7sus4",
              "7th",
              "dim7",
              "dim",
              "minMaj7(9)",
              "minMaj7",
              "min7(11)",
              "min7(9)",
              "min(9)",
              "m7b5",
              "min7",
              "min6",
              "aug",
              "Maj6(9)",
              "Maj7(9)",
              "Maj(9)",
              "Maj7#11",
              "Maj7",
              "Maj6"
            ],
            "autoStart": false,
            "sourceChordNote": 0,
            "sourceChordType": "Maj7",
            "ctb2Low": null,
            "ctb2Main": {
              "ntr": "ROOT_TRANSPOSITION",
              "ntt": "DORIAN_5",
              "bassOn": false,
              "chordRootUpperLimit": 4,
              "noteLowLimit": 54,
              "noteHighLimit": 127,
              "rtr": "PITCH_SHIFT"
            },
            "ctb2High": null
          },
          "notes": [
            {
              "pitch": 58,
              "velocity": 80,
              "position": 0,
              "duration": 0.3229166666666667
            },
            {
              "pitch": 64,
              "velocity": 80,
              "position": 0,
              "duration": 0.32916666666666666
            },
            {
              "pitch": 67,
              "velocity": 80,
              "position": 0.010416666666666666,
              "duration": 0.3229166666666667
            },
            {
              "pitch": 58,
              "velocity": 40,
              "position": 0.3333333333333333,
              "duration": 0.3229166666666667
            },
            {
              "pitch": 64,
              "velocity": 40,
              "position": 0.3333333333333333,
              "duration": 0.3333333333333333
            },
            {
              "pitch": 67,
              "velocity": 40,
              "position": 0.34375,
              "duration": 0.3229166666666667
            },
            {
              "pitch": 72,
              "velocity": 40,
              "position": 0.3541666666666667,
              "duration": 0.3229166666666667
            },
            {
              "pitch": 58,
              "velocity": 60,
              "position": 0.6666666666666666,
              "duration": 0.3229166666666667
            },
            {
              "pitch": 67,
              "velocity": 60,
              "position": 0.6770833333333334,
              "duration": 0.3229166666666667
            },
            {
              "pitch": 65,
              "velocity": 60,
              "position": 0.6666666666666666,
              "duration": 0.3333333333333333
            },
            {
              "pitch": 72,
              "velocity": 60,
              "position": 0.6875,
              "duration": 0.3229166666666667
            },
            {
              "pitch": 58,
              "velocity": 100,
              "position": 1,
              "duration": 0.08333333333333333
            },
            {
              "pitch": 64,
              "velocity": 100,
              "position": 1,
              "duration": 0.08333333333333333
            },
            {
              "pitch": 67,
              "velocity": 100,
              "position": 1.0104166666666667,
              "duration": 0.08333333333333333
            },
            {
              "pitch": 72,
              "velocity": 100,
              "position": 1.0208333333333333,
              "duration": 0.08333333333333333
            },
            {
              "pitch": 58,
              "velocity": 100,
              "position": 1.3333333333333333,
              "duration": 0.010416666666666666
            },
            {
              "pitch": 64,
              "velocity": 100,
              "position": 1.3333333333333333,
              "duration": 0.010416666666666666
            },
            {
              "pitch": 67,
              "velocity": 100,
              "position": 1.34375,
              "duration": 0.010416666666666666
            },
            {
              "pitch": 72,
              "velocity": 100,
              "position": 1.3541666666666667,
              "duration": 0.010416666666666666
            },
            {
              "pitch": 58,
              "velocity": 100,
              "position": 1.6666666666666667,
              "duration": 0.65625
            },
            {
              "pitch": 64,
              "velocity": 100,
              "position": 1.6666666666666667,
              "duration": 0.65625
            },
            {
              "pitch": 67,
              "velocity": 100,
              "position": 1.6666666666666667,
              "duration": 0.65625
            },
            {
              "pitch": 72,
              "velocity": 100,
              "position": 1.6666666666666667,
              "duration": 0.65625
            },
            {
              "pitch": 58,
              "velocity": 40,
              "position": 2.3333333333333335,
              "duration": 0.3229166666666667
            },
            {
              "pitch": 64,
              "velocity": 40,
              "position": 2.3333333333333335,
              "duration": 0.3333333333333333
            },
            {
              "pitch": 67,
              "velocity": 40,
              "position": 2.34375,
              "duration": 0.3229166666666667
            },
            {
              "pitch": 72,
              "velocity": 40,
              "position": 2.3541666666666665,
              "duration": 0.3229166666666667
            },
            {
              "pitch": 58,
              "velocity": 60,
              "position": 2.6666666666666665,
              "duration": 0.3229166666666667
            },
            {
              "pitch": 67,
              "velocity": 60,
              "position": 2.6770833333333335,
              "duration": 0.3229166666666667
            },
            {
              "pitch": 65,
              "velocity": 60,
              "position": 2.6666666666666665,
              "duration": 0.3333333333333333
            },
            {
              "pitch": 72,
              "velocity": 60,
              "position": 2.6875,
              "duration": 0.3229166666666667
            },
            {
              "pitch": 58,
              "velocity": 100,
              "position": 3,
              "duration": 0.08333333333333333
            },
            {
              "pitch": 64,
              "velocity": 100,
              "position": 3,
              "duration": 0.08333333333333333
            },
            {
              "pitch": 67,
              "velocity": 100,
              "position": 3.0104166666666665,
              "duration": 0.08333333333333333
            },
            {
              "pitch": 72,
              "velocity": 100,
              "position": 3.0208333333333335,
              "duration": 0.08333333333333333
            },
            {
              "pitch": 58,
              "velocity": 60,
              "position": 3.21875,
              "duration": 0.010416666666666666
            },
            {
              "pitch": 64,
              "velocity": 60,
              "position": 3.2291666666666665,
              "duration": 0.010416666666666666
            },
            {
              "pitch": 58,
              "velocity": 100,
              "position": 3.3333333333333335,
              "duration": 0.3229166666666667
            },
            {
              "pitch": 62,
              "velocity": 100,
              "position": 3.3333333333333335,
              "duration": 0.3229166666666667
            },
            {
              "pitch": 65,
              "velocity": 100,
              "position": 3.34375,
              "duration": 0.3229166666666667
            },
            {
              "pitch": 62,
              "velocity": 40,
              "position": 3.6666666666666665,
              "duration": 0.3125
            },
            {
              "pitch": 58,
              "velocity": 40,
              "position": 3.6666666666666665,
              "duration": 0.3229166666666667
            }
          ]
        },
        "3": {
          "ctab": {
            "srcChannel": 3,
            "name": "PnoRH S",
            "accType": "CHORD2",
            "editable": false,
            "mutedNotes": [],
            "mutedChords": [
              "1+2+5",
              "sus4",
              "1+5",
              "1+8",
              "7aug",
              "Maj7aug",
              "7(#9)",
              "7(b13)",
              "7(b9)",
              "7(13)",
              "7#11",
              "7(9)",
              "7b5",
              "7sus4",
              "7th",
              "dim7",
              "dim",
              "minMaj7(9)",
              "minMaj7",
              "min7(11)",
              "min7(9)",
              "min(9)",
              "m7b5",
              "min7",
              "min6",
              "aug",
              "Maj6(9)",
              "Maj7(9)",
              "Maj(9)",
              "Maj7#11",
              "Maj7",
              "Maj6"
            ],
            "autoStart": false,
            "sourceChordNote": 0,
            "sourceChordType": "Maj7",
            "ctb2Low": null,
            "ctb2Main": {
              "ntr": "ROOT_TRANSPOSITION",
              "ntt": "DORIAN_5",
              "bassOn": false,
              "chordRootUpperLimit": 11,
              "noteLowLimit": 58,
              "noteHighLimit": 79,
              "rtr": "PITCH_SHIFT"
            },
            "ctb2High": null
          },
          "notes": [
            {
              "pitch": 46,
              "velocity": 71,
              "position": 0,
              "duration": 0.3229166666666667
            },
            {
              "pitch": 48,
              "velocity": 71,
              "position": 0,
              "duration": 0.3229166666666667
            },
            {
              "pitch": 52,
              "velocity": 62,
              "position": 0,
              "duration": 0.3229166666666667
            },
            {
              "pitch": 55,
              "velocity": 63,
              "position": 0,
              "duration": 0.3229166666666667
            },
            {
              "pitch": 46,
              "velocity": 35,
              "position": 0.3333333333333333,
              "duration": 0.3229166666666667
            },
            {
              "pitch": 48,
              "velocity": 35,
              "position": 0.3333333333333333,
              "duration": 0.3229166666666667
            },
            {
              "pitch": 52,
              "velocity": 46,
              "position": 0.3333333333333333,
              "duration": 0.3229166666666667
            },
            {
              "pitch": 55,
              "velocity": 49,
              "position": 0.3333333333333333,
              "duration": 0.3229166666666667
            },
            {
              "pitch": 78,
              "velocity": 95,
              "position": 0.6666666666666666,
              "duration": 0.125
            },
            {
              "pitch": 53,
              "velocity": 40,
              "position": 0.6666666666666666,
              "duration": 0.3229166666666667
            },
            {
              "pitch": 57,
              "velocity": 40,
              "position": 0.6666666666666666,
              "duration": 0.3229166666666667
            },
            {
              "pitch": 72,
              "velocity": 88,
              "position": 0.6666666666666666,
              "duration": 0.3333333333333333
            },
            {
              "pitch": 84,
              "velocity": 95,
              "position": 0.6770833333333334,
              "duration": 0.3541666666666667
            },
            {
              "pitch": 79,
              "velocity": 88,
              "position": 0.6770833333333334,
              "duration": 0.40625
            },
            {
              "pitch": 72,
              "velocity": 37,
              "position": 1.0625,
              "duration": 0.07291666666666667
            },
            {
              "pitch": 84,
              "velocity": 39,
              "position": 1.1666666666666667,
              "duration": 0.03125
            },
            {
              "pitch": 72,
              "velocity": 46,
              "position": 1.2083333333333333,
              "duration": 0.0625
            },
            {
              "pitch": 84,
              "velocity": 31,
              "position": 1.2708333333333333,
              "duration": 0.03125
            },
            {
              "pitch": 46,
              "velocity": 64,
              "position": 1,
              "duration": 0.3229166666666667
            },
            {
              "pitch": 48,
              "velocity": 64,
              "position": 1,
              "duration": 0.3229166666666667
            },
            {
              "pitch": 52,
              "velocity": 57,
              "position": 1,
              "duration": 0.3229166666666667
            },
            {
              "pitch": 79,
              "velocity": 17,
              "position": 1.1770833333333333,
              "duration": 0.14583333333333334
            },
            {
              "pitch": 55,
              "velocity": 47,
              "position": 1,
              "duration": 0.3229166666666667
            },
            {
              "pitch": 72,
              "velocity": 31,
              "position": 1.3333333333333333,
              "duration": 0.041666666666666664
            },
            {
              "pitch": 84,
              "velocity": 40,
              "position": 1.3854166666666667,
              "duration": 0.041666666666666664
            },
            {
              "pitch": 72,
              "velocity": 48,
              "position": 1.4270833333333333,
              "duration": 0.07291666666666667
            },
            {
              "pitch": 84,
              "velocity": 46,
              "position": 1.4791666666666667,
              "duration": 0.052083333333333336
            },
            {
              "pitch": 79,
              "velocity": 31,
              "position": 1.3645833333333333,
              "duration": 0.17708333333333334
            },
            {
              "pitch": 84,
              "velocity": 47,
              "position": 1.6041666666666667,
              "duration": 0.041666666666666664
            },
            {
              "pitch": 46,
              "velocity": 24,
              "position": 1.3333333333333333,
              "duration": 0.3229166666666667
            },
            {
              "pitch": 48,
              "velocity": 24,
              "position": 1.3333333333333333,
              "duration": 0.3229166666666667
            },
            {
              "pitch": 52,
              "velocity": 46,
              "position": 1.3333333333333333,
              "duration": 0.3229166666666667
            },
            {
              "pitch": 55,
              "velocity": 43,
              "position": 1.3333333333333333,
              "duration": 0.3229166666666667
            },
            {
              "pitch": 84,
              "velocity": 40,
              "position": 1.71875,
              "duration": 0.041666666666666664
            },
            {
              "pitch": 84,
              "velocity": 41,
              "position": 1.8229166666666667,
              "duration": 0.052083333333333336
            },
            {
              "pitch": 79,
              "velocity": 36,
              "position": 1.5833333333333333,
              "duration": 0.3020833333333333
            },
            {
              "pitch": 84,
              "velocity": 38,
              "position": 1.9375,
              "duration": 0.041666666666666664
            },
            {
              "pitch": 53,
              "velocity": 51,
              "position": 1.6666666666666667,
              "duration": 0.3229166666666667
            },
            {
              "pitch": 57,
              "velocity": 52,
              "position": 1.6666666666666667,
              "duration": 0.3229166666666667
            },
            {
              "pitch": 79,
              "velocity": 27,
              "position": 1.9166666666666667,
              "duration": 0.07291666666666667
            },
            {
              "pitch": 72,
              "velocity": 36,
              "position": 1.5520833333333333,
              "duration": 0.5
            },
            {
              "pitch": 79,
              "velocity": 30,
              "position": 2.0208333333333335,
              "duration": 0.07291666666666667
            },
            {
              "pitch": 84,
              "velocity": 45,
              "position": 2.0416666666666665,
              "duration": 0.052083333333333336
            },
            {
              "pitch": 72,
              "velocity": 46,
              "position": 2.1041666666666665,
              "duration": 0.0625
            },
            {
              "pitch": 78,
              "velocity": 91,
              "position": 2.21875,
              "duration": 0.07291666666666667
            },
            {
              "pitch": 46,
              "velocity": 68,
              "position": 2,
              "duration": 0.3229166666666667
            },
            {
              "pitch": 48,
              "velocity": 68,
              "position": 2,
              "duration": 0.3229166666666667
            },
            {
              "pitch": 52,
              "velocity": 60,
              "position": 2,
              "duration": 0.3229166666666667
            },
            {
              "pitch": 55,
              "velocity": 57,
              "position": 2,
              "duration": 0.3229166666666667
            },
            {
              "pitch": 77,
              "velocity": 79,
              "position": 2.25,
              "duration": 0.17708333333333334
            },
            {
              "pitch": 84,
              "velocity": 91,
              "position": 2.21875,
              "duration": 0.2916666666666667
            },
            {
              "pitch": 75,
              "velocity": 55,
              "position": 2.4375,
              "duration": 0.13541666666666666
            },
            {
              "pitch": 46,
              "velocity": 40,
              "position": 2.3333333333333335,
              "duration": 0.3229166666666667
            },
            {
              "pitch": 48,
              "velocity": 40,
              "position": 2.3333333333333335,
              "duration": 0.3229166666666667
            },
            {
              "pitch": 52,
              "velocity": 39,
              "position": 2.3333333333333335,
              "duration": 0.3229166666666667
            },
            {
              "pitch": 55,
              "velocity": 49,
              "position": 2.3333333333333335,
              "duration": 0.3229166666666667
            },
            {
              "pitch": 72,
              "velocity": 67,
              "position": 2.5520833333333335,
              "duration": 0.10416666666666667
            },
            {
              "pitch": 70,
              "velocity": 99,
              "position": 2.6666666666666665,
              "duration": 0.10416666666666667
            },
            {
              "pitch": 67,
              "velocity": 86,
              "position": 2.7708333333333335,
              "duration": 0.08333333333333333
            },
            {
              "pitch": 75,
              "velocity": 48,
              "position": 2.8854166666666665,
              "duration": 0.07291666666666667
            },
            {
              "pitch": 53,
              "velocity": 46,
              "position": 2.6666666666666665,
              "duration": 0.3229166666666667
            },
            {
              "pitch": 57,
              "velocity": 41,
              "position": 2.6666666666666665,
              "duration": 0.3229166666666667
            },
            {
              "pitch": 72,
              "velocity": 88,
              "position": 3,
              "duration": 0.13541666666666666
            },
            {
              "pitch": 70,
              "velocity": 63,
              "position": 3.1041666666666665,
              "duration": 0.11458333333333333
            },
            {
              "pitch": 46,
              "velocity": 63,
              "position": 3,
              "duration": 0.3229166666666667
            },
            {
              "pitch": 48,
              "velocity": 63,
              "position": 3,
              "duration": 0.3229166666666667
            },
            {
              "pitch": 52,
              "velocity": 57,
              "position": 3,
              "duration": 0.3229166666666667
            },
            {
              "pitch": 55,
              "velocity": 54,
              "position": 3,
              "duration": 0.3229166666666667
            },
            {
              "pitch": 67,
              "velocity": 88,
              "position": 3.21875,
              "duration": 0.13541666666666666
            },
            {
              "pitch": 66,
              "velocity": 99,
              "position": 3.3333333333333335,
              "duration": 0.11458333333333333
            },
            {
              "pitch": 65,
              "velocity": 48,
              "position": 3.4375,
              "duration": 0.125
            },
            {
              "pitch": 63,
              "velocity": 76,
              "position": 3.5520833333333335,
              "duration": 0.09375
            },
            {
              "pitch": 48,
              "velocity": 53,
              "position": 3.3333333333333335,
              "duration": 0.3229166666666667
            },
            {
              "pitch": 53,
              "velocity": 44,
              "position": 3.3333333333333335,
              "duration": 0.3229166666666667
            },
            {
              "pitch": 57,
              "velocity": 44,
              "position": 3.3333333333333335,
              "duration": 0.3229166666666667
            },
            {
              "pitch": 60,
              "velocity": 76,
              "position": 3.6666666666666665,
              "duration": 0.09375
            },
            {
              "pitch": 58,
              "velocity": 71,
              "position": 3.7708333333333335,
              "duration": 0.08333333333333333
            },
            {
              "pitch": 55,
              "velocity": 71,
              "position": 3.8854166666666665,
              "duration": 0.09375
            },
            {
              "pitch": 48,
              "velocity": 79,
              "position": 3.6666666666666665,
              "duration": 0.3229166666666667
            },
            {
              "pitch": 53,
              "velocity": 67,
              "position": 3.6666666666666665,
              "duration": 0.3229166666666667
            }
          ]
        },
        "4": {
          "ctab": {
            "srcChannel": 4,
            "name": "Org S",
            "accType": "PAD",
            "editable": false,
            "mutedNotes": [],
            "mutedChords": [
              "1+2+5",
              "sus4",
              "1+5",
              "1+8",
              "7aug",
              "Maj7aug",
              "7(#9)",
              "7(b13)",
              "7(b9)",
              "7(13)",
              "7#11",
              "7(9)",
              "7b5",
              "7sus4",
              "7th",
              "dim7",
              "dim",
              "minMaj7(9)",
              "minMaj7",
              "min7(11)",
              "min7(9)",
              "min(9)",
              "m7b5",
              "min7",
              "min6",
              "aug",
              "Maj6(9)",
              "Maj7(9)",
              "Maj(9)",
              "Maj7#11",
              "Maj7",
              "Maj6"
            ],
            "autoStart": false,
            "sourceChordNote": 0,
            "sourceChordType": "Maj7",
            "ctb2Low": null,
            "ctb2Main": {
              "ntr": "ROOT_TRANSPOSITION",
              "ntt": "DORIAN_5",
              "bassOn": false,
              "chordRootUpperLimit": 5,
              "noteLowLimit": 58,
              "noteHighLimit": 79,
              "rtr": "PITCH_SHIFT"
            },
            "ctb2High": null
          },
          "notes": [
            {
              "pitch": 46,
              "velocity": 127,
              "position": 0,
              "duration": 0.9895833333333334
            },
            {
              "pitch": 48,
              "velocity": 127,
              "position": 0,
              "duration": 0.9895833333333334
            },
            {
              "pitch": 52,
              "velocity": 127,
              "position": 0,
              "duration": 0.9895833333333334
            },
            {
              "pitch": 55,
              "velocity": 127,
              "position": 0,
              "duration": 0.9895833333333334
            },
            {
              "pitch": 70,
              "velocity": 127,
              "position": 1,
              "duration": 0.07291666666666667
            },
            {
              "pitch": 72,
              "velocity": 127,
              "position": 1.0416666666666667,
              "duration": 0.07291666666666667
            },
            {
              "pitch": 74,
              "velocity": 127,
              "position": 1.0833333333333333,
              "duration": 0.07291666666666667
            },
            {
              "pitch": 76,
              "velocity": 127,
              "position": 1.125,
              "duration": 0.07291666666666667
            },
            {
              "pitch": 77,
              "velocity": 127,
              "position": 1.1666666666666667,
              "duration": 0.07291666666666667
            },
            {
              "pitch": 79,
              "velocity": 127,
              "position": 1.2083333333333333,
              "duration": 0.07291666666666667
            },
            {
              "pitch": 81,
              "velocity": 127,
              "position": 1.25,
              "duration": 0.07291666666666667
            },
            {
              "pitch": 79,
              "velocity": 127,
              "position": 1.3333333333333333,
              "duration": 0.3229166666666667
            },
            {
              "pitch": 79,
              "velocity": 127,
              "position": 1.6666666666666667,
              "duration": 0.3229166666666667
            },
            {
              "pitch": 79,
              "velocity": 127,
              "position": 2,
              "duration": 0.3229166666666667
            },
            {
              "pitch": 79,
              "velocity": 127,
              "position": 2.3333333333333335,
              "duration": 0.3229166666666667
            },
            {
              "pitch": 79,
              "velocity": 127,
              "position": 2.6666666666666665,
              "duration": 0.3229166666666667
            },
            {
              "pitch": 79,
              "velocity": 127,
              "position": 3,
              "duration": 0.3229166666666667
            },
            {
              "pitch": 82,
              "velocity": 127,
              "position": 1.2916666666666667,
              "duration": 2.3645833333333335
            },
            {
              "pitch": 79,
              "velocity": 127,
              "position": 3.3333333333333335,
              "duration": 0.3229166666666667
            },
            {
              "pitch": 84,
              "velocity": 127,
              "position": 1.3333333333333333,
              "duration": 2.3229166666666665
            },
            {
              "pitch": 76,
              "velocity": 127,
              "position": 1.3333333333333333,
              "duration": 2.40625
            },
            {
              "pitch": 79,
              "velocity": 127,
              "position": 3.6666666666666665,
              "duration": 0.07291666666666667
            },
            {
              "pitch": 84,
              "velocity": 127,
              "position": 3.6666666666666665,
              "duration": 0.07291666666666667
            },
            {
              "pitch": 82,
              "velocity": 127,
              "position": 3.7083333333333335,
              "duration": 0.07291666666666667
            },
            {
              "pitch": 81,
              "velocity": 127,
              "position": 3.75,
              "duration": 0.07291666666666667
            },
            {
              "pitch": 79,
              "velocity": 127,
              "position": 3.7916666666666665,
              "duration": 0.07291666666666667
            },
            {
              "pitch": 77,
              "velocity": 127,
              "position": 3.8333333333333335,
              "duration": 0.07291666666666667
            },
            {
              "pitch": 76,
              "velocity": 127,
              "position": 3.875,
              "duration": 0.07291666666666667
            },
            {
              "pitch": 74,
              "velocity": 127,
              "position": 3.9166666666666665,
              "duration": 0.07291666666666667
            }
          ]
        },
        "5": {
          "ctab": {
            "srcChannel": 5,
            "name": "ClGtSMaj",
            "accType": "PHRASE1",
            "editable": false,
            "mutedNotes": [],
            "mutedChords": [
              "1+2+5",
              "sus4",
              "1+5",
              "1+8",
              "7aug",
              "Maj7aug",
              "7(#9)",
              "7(b13)",
              "7(b9)",
              "7(13)",
              "7#11",
              "7(9)",
              "7b5",
              "7sus4",
              "7th",
              "dim7",
              "dim",
              "minMaj7(9)",
              "minMaj7",
              "min7(11)",
              "min7(9)",
              "min(9)",
              "m7b5",
              "min7",
              "min6",
              "min",
              "aug",
              "Maj6(9)",
              "Maj7(9)",
              "Maj(9)",
              "Maj7#11",
              "Maj7",
              "Maj6"
            ],
            "autoStart": false,
            "sourceChordNote": 0,
            "sourceChordType": "Maj7",
            "ctb2Low": null,
            "ctb2Main": {
              "ntr": "ROOT_TRANSPOSITION",
              "ntt": "DORIAN_5",
              "bassOn": false,
              "chordRootUpperLimit": 4,
              "noteLowLimit": 0,
              "noteHighLimit": 127,
              "rtr": "PITCH_SHIFT"
            },
            "ctb2High": null
          },
          "notes": [
            {
              "pitch": 67,
              "velocity": 116,
              "position": 0,
              "duration": 0.65625
            },
            {
              "pitch": 72,
              "velocity": 26,
              "position": 0.3333333333333333,
              "duration": 0.65625
            },
            {
              "pitch": 67,
              "velocity": 116,
              "position": 0.6666666666666666,
              "duration": 0.65625
            },
            {
              "pitch": 67,
              "velocity": 116,
              "position": 1.3333333333333333,
              "duration": 0.3229166666666667
            },
            {
              "pitch": 72,
              "velocity": 26,
              "position": 1,
              "duration": 0.65625
            },
            {
              "pitch": 67,
              "velocity": 26,
              "position": 1.6666666666666667,
              "duration": 0.3229166666666667
            },
            {
              "pitch": 67,
              "velocity": 116,
              "position": 2,
              "duration": 0.3229166666666667
            },
            {
              "pitch": 72,
              "velocity": 26,
              "position": 1.6666666666666667,
              "duration": 0.65625
            },
            {
              "pitch": 67,
              "velocity": 26,
              "position": 2.3333333333333335,
              "duration": 0.3229166666666667
            },
            {
              "pitch": 67,
              "velocity": 116,
              "position": 2.6666666666666665,
              "duration": 0.3229166666666667
            },
            {
              "pitch": 72,
              "velocity": 26,
              "position": 2.3333333333333335,
              "duration": 0.65625
            },
            {
              "pitch": 66,
              "velocity": 36,
              "position": 3,
              "duration": 0.07291666666666667
            },
            {
              "pitch": 65,
              "velocity": 89,
              "position": 3.0833333333333335,
              "duration": 0.23958333333333334
            },
            {
              "pitch": 64,
              "velocity": 116,
              "position": 3.3333333333333335,
              "duration": 0.6145833333333334
            },
            {
              "pitch": 72,
              "velocity": 26,
              "position": 3,
              "duration": 0.9479166666666666
            },
            {
              "pitch": 60,
              "velocity": 26,
              "position": 3.6666666666666665,
              "duration": 0.28125
            }
          ]
        },
        "6": {
          "ctab": {
            "srcChannel": 6,
            "name": "EP S",
            "accType": "PHRASE2",
            "editable": false,
            "mutedNotes": [],
            "mutedChords": [
              "1+2+5",
              "sus4",
              "1+5",
              "1+8",
              "7aug",
              "Maj7aug",
              "7(#9)",
              "7(b13)",
              "7(b9)",
              "7(13)",
              "7#11",
              "7(9)",
              "7b5",
              "7sus4",
              "7th",
              "dim7",
              "dim",
              "minMaj7(9)",
              "minMaj7",
              "min7(11)",
              "min7(9)",
              "min(9)",
              "m7b5",
              "min7",
              "min6",
              "aug",
              "Maj6(9)",
              "Maj7(9)",
              "Maj(9)",
              "Maj7#11",
              "Maj7",
              "Maj6"
            ],
            "autoStart": false,
            "sourceChordNote": 0,
            "sourceChordType": "Maj7",
            "ctb2Low": null,
            "ctb2Main": {
              "ntr": "ROOT_TRANSPOSITION",
              "ntt": "DORIAN_5",
              "bassOn": false,
              "chordRootUpperLimit": 4,
              "noteLowLimit": 0,
              "noteHighLimit": 127,
              "rtr": "PITCH_SHIFT"
            },
            "ctb2High": null
          },
          "notes": [
            {
              "pitch": 60,
              "velocity": 34,
              "position": 0,
              "duration": 0.5479166666666667
            },
            {
              "pitch": 64,
              "velocity": 34,
              "position": 0,
              "duration": 0.65625
            },
            {
              "pitch": 67,
              "velocity": 40,
              "position": 0,
              "duration": 0.65625
            },
            {
              "pitch": 60,
              "velocity": 54,
              "position": 0.5520833333333334,
              "duration": 0.4375
            },
            {
              "pitch": 65,
              "velocity": 69,
              "position": 0.6666666666666666,
              "duration": 0.3229166666666667
            },
            {
              "pitch": 69,
              "velocity": 61,
              "position": 0.6666666666666666,
              "duration": 0.3229166666666667
            },
            {
              "pitch": 66,
              "velocity": 76,
              "position": 1,
              "duration": 0.010416666666666666
            },
            {
              "pitch": 60,
              "velocity": 79,
              "position": 1,
              "duration": 0.5479166666666667
            },
            {
              "pitch": 67,
              "velocity": 99,
              "position": 1.0208333333333333,
              "duration": 0.6354166666666666
            },
            {
              "pitch": 70,
              "velocity": 107,
              "position": 1,
              "duration": 0.65625
            },
            {
              "pitch": 60,
              "velocity": 55,
              "position": 1.5520833333333333,
              "duration": 0.4375
            },
            {
              "pitch": 65,
              "velocity": 71,
              "position": 1.6666666666666667,
              "duration": 0.3229166666666667
            },
            {
              "pitch": 69,
              "velocity": 65,
              "position": 1.6666666666666667,
              "duration": 0.3229166666666667
            },
            {
              "pitch": 60,
              "velocity": 53,
              "position": 2,
              "duration": 0.5479166666666667
            },
            {
              "pitch": 64,
              "velocity": 53,
              "position": 2,
              "duration": 0.65625
            },
            {
              "pitch": 67,
              "velocity": 48,
              "position": 2,
              "duration": 0.65625
            },
            {
              "pitch": 60,
              "velocity": 55,
              "position": 2.5520833333333335,
              "duration": 0.3229166666666667
            },
            {
              "pitch": 65,
              "velocity": 79,
              "position": 2.6666666666666665,
              "duration": 0.3229166666666667
            },
            {
              "pitch": 69,
              "velocity": 76,
              "position": 2.6666666666666665,
              "duration": 0.3229166666666667
            },
            {
              "pitch": 66,
              "velocity": 92,
              "position": 3,
              "duration": 0.010416666666666666
            },
            {
              "pitch": 60,
              "velocity": 59,
              "position": 2.8854166666666665,
              "duration": 0.3229166666666667
            },
            {
              "pitch": 67,
              "velocity": 95,
              "position": 3.0208333333333335,
              "duration": 0.3020833333333333
            },
            {
              "pitch": 70,
              "velocity": 107,
              "position": 3,
              "duration": 0.3229166666666667
            },
            {
              "pitch": 60,
              "velocity": 54,
              "position": 3.21875,
              "duration": 0.3229166666666667
            },
            {
              "pitch": 65,
              "velocity": 56,
              "position": 3.3333333333333335,
              "duration": 0.3229166666666667
            },
            {
              "pitch": 69,
              "velocity": 65,
              "position": 3.3333333333333335,
              "duration": 0.3229166666666667
            },
            {
              "pitch": 60,
              "velocity": 54,
              "position": 3.5520833333333335,
              "duration": 0.4375
            },
            {
              "pitch": 67,
              "velocity": 61,
              "position": 3.6666666666666665,
              "duration": 0.3229166666666667
            },
            {
              "pitch": 64,
              "velocity": 67,
              "position": 3.6666666666666665,
              "duration": 0.32916666666666666
            }
          ]
        },
        "7": {
          "ctab": {
            "srcChannel": 7,
            "name": "ClGtSmin",
            "accType": "PHRASE1",
            "editable": false,
            "mutedNotes": [],
            "mutedChords": [
              "1+2+5",
              "sus4",
              "1+5",
              "1+8",
              "7aug",
              "Maj7aug",
              "7(#9)",
              "7(b13)",
              "7(b9)",
              "7(13)",
              "7#11",
              "7(9)",
              "7b5",
              "7sus4",
              "7th",
              "dim7",
              "dim",
              "minMaj7(9)",
              "minMaj7",
              "min7(11)",
              "min7(9)",
              "min(9)",
              "m7b5",
              "min7",
              "min6",
              "aug",
              "Maj6(9)",
              "Maj7(9)",
              "Maj(9)",
              "Maj7#11",
              "Maj7",
              "Maj6",
              "Maj"
            ],
            "autoStart": false,
            "sourceChordNote": 0,
            "sourceChordType": "Maj7",
            "ctb2Low": null,
            "ctb2Main": {
              "ntr": "ROOT_TRANSPOSITION",
              "ntt": "DORIAN_5",
              "bassOn": false,
              "chordRootUpperLimit": 4,
              "noteLowLimit": 0,
              "noteHighLimit": 127,
              "rtr": "PITCH_SHIFT"
            },
            "ctb2High": null
          },
          "notes": [
            {
              "pitch": 67,
              "velocity": 116,
              "position": 0,
              "duration": 0.65625
            },
            {
              "pitch": 72,
              "velocity": 26,
              "position": 0.3333333333333333,
              "duration": 0.65625
            },
            {
              "pitch": 67,
              "velocity": 116,
              "position": 0.6666666666666666,
              "duration": 0.65625
            },
            {
              "pitch": 67,
              "velocity": 116,
              "position": 1.3333333333333333,
              "duration": 0.3229166666666667
            },
            {
              "pitch": 72,
              "velocity": 26,
              "position": 1,
              "duration": 0.65625
            },
            {
              "pitch": 67,
              "velocity": 26,
              "position": 1.6666666666666667,
              "duration": 0.3229166666666667
            },
            {
              "pitch": 67,
              "velocity": 116,
              "position": 2,
              "duration": 0.3229166666666667
            },
            {
              "pitch": 72,
              "velocity": 26,
              "position": 1.6666666666666667,
              "duration": 0.65625
            },
            {
              "pitch": 67,
              "velocity": 26,
              "position": 2.3333333333333335,
              "duration": 0.3229166666666667
            },
            {
              "pitch": 67,
              "velocity": 116,
              "position": 2.6666666666666665,
              "duration": 0.3229166666666667
            },
            {
              "pitch": 72,
              "velocity": 26,
              "position": 2.3333333333333335,
              "duration": 0.65625
            },
            {
              "pitch": 66,
              "velocity": 36,
              "position": 3,
              "duration": 0.07291666666666667
            },
            {
              "pitch": 65,
              "velocity": 89,
              "position": 3.0833333333333335,
              "duration": 0.23958333333333334
            },
            {
              "pitch": 64,
              "velocity": 116,
              "position": 3.3333333333333335,
              "duration": 0.6145833333333334
            },
            {
              "pitch": 72,
              "velocity": 26,
              "position": 3,
              "duration": 0.9479166666666666
            },
            {
              "pitch": 60,
              "velocity": 26,
              "position": 3.6666666666666665,
              "duration": 0.28125
            }
          ]
        },
        "8": {
          "ctab": {
            "srcChannel": 8,
            "name": "Perc",
            "accType": "SUBRHYTHM",
            "editable": false,
            "mutedNotes": [],
            "mutedChords": [],
            "autoStart": true,
            "sourceChordNote": 0,
            "sourceChordType": "Maj7",
            "ctb2Low": null,
            "ctb2Main": {
              "ntr": "ROOT_FIXED",
              "ntt": "BYPASS",
              "bassOn": false,
              "chordRootUpperLimit": 6,
              "noteLowLimit": 0,
              "noteHighLimit": 127,
              "rtr": "PITCH_SHIFT"
            },
            "ctb2High": null
          },
          "notes": [
            {
              "pitch": 54,
              "velocity": 36,
              "position": 0,
              "duration": 0.010416666666666666
            },
            {
              "pitch": 54,
              "velocity": 9,
              "position": 0.21875,
              "duration": 0.010416666666666666
            },
            {
              "pitch": 54,
              "velocity": 25,
              "position": 0.3333333333333333,
              "duration": 0.010416666666666666
            },
            {
              "pitch": 54,
              "velocity": 24,
              "position": 0.5520833333333334,
              "duration": 0.010416666666666666
            },
            {
              "pitch": 54,
              "velocity": 26,
              "position": 0.6666666666666666,
              "duration": 0.010416666666666666
            },
            {
              "pitch": 54,
              "velocity": 8,
              "position": 0.8854166666666666,
              "duration": 0.010416666666666666
            },
            {
              "pitch": 54,
              "velocity": 90,
              "position": 1,
              "duration": 0.010416666666666666
            },
            {
              "pitch": 54,
              "velocity": 13,
              "position": 1.21875,
              "duration": 0.010416666666666666
            },
            {
              "pitch": 54,
              "velocity": 25,
              "position": 1.3333333333333333,
              "duration": 0.010416666666666666
            },
            {
              "pitch": 54,
              "velocity": 10,
              "position": 1.5520833333333333,
              "duration": 0.010416666666666666
            },
            {
              "pitch": 54,
              "velocity": 19,
              "position": 1.6666666666666667,
              "duration": 0.010416666666666666
            },
            {
              "pitch": 54,
              "velocity": 10,
              "position": 1.8854166666666667,
              "duration": 0.010416666666666666
            },
            {
              "pitch": 54,
              "velocity": 36,
              "position": 2,
              "duration": 0.010416666666666666
            },
            {
              "pitch": 54,
              "velocity": 9,
              "position": 2.21875,
              "duration": 0.010416666666666666
            },
            {
              "pitch": 54,
              "velocity": 25,
              "position": 2.3333333333333335,
              "duration": 0.010416666666666666
            },
            {
              "pitch": 54,
              "velocity": 24,
              "position": 2.5520833333333335,
              "duration": 0.010416666666666666
            },
            {
              "pitch": 54,
              "velocity": 26,
              "position": 2.6666666666666665,
              "duration": 0.010416666666666666
            },
            {
              "pitch": 54,
              "velocity": 8,
              "position": 2.8854166666666665,
              "duration": 0.010416666666666666
            },
            {
              "pitch": 54,
              "velocity": 90,
              "position": 3,
              "duration": 0.010416666666666666
            },
            {
              "pitch": 54,
              "velocity": 13,
              "position": 3.21875,
              "duration": 0.010416666666666666
            },
            {
              "pitch": 54,
              "velocity": 25,
              "position": 3.3333333333333335,
              "duration": 0.010416666666666666
            },
            {
              "pitch": 54,
              "velocity": 10,
              "position": 3.5520833333333335,
              "duration": 0.010416666666666666
            },
            {
              "pitch": 54,
              "velocity": 19,
              "position": 3.6666666666666665,
              "duration": 0.010416666666666666
            },
            {
              "pitch": 54,
              "velocity": 10,
              "position": 3.8854166666666665,
              "duration": 0.010416666666666666
            }
          ]
        },
        "9": {
          "ctab": {
            "srcChannel": 9,
            "name": "Drs",
            "accType": "RHYTHM",
            "editable": false,
            "mutedNotes": [],
            "mutedChords": [],
            "autoStart": true,
            "sourceChordNote": 0,
            "sourceChordType": "Maj7",
            "ctb2Low": null,
            "ctb2Main": {
              "ntr": "ROOT_FIXED",
              "ntt": "BYPASS",
              "bassOn": false,
              "chordRootUpperLimit": 6,
              "noteLowLimit": 0,
              "noteHighLimit": 127,
              "rtr": "PITCH_SHIFT"
            },
            "ctb2High": null
          },
          "notes": [
            {
              "pitch": 36,
              "velocity": 90,
              "position": 0,
              "duration": 0.010416666666666666
            },
            {
              "pitch": 44,
              "velocity": 40,
              "position": 0.3333333333333333,
              "duration": 0.010416666666666666
            },
            {
              "pitch": 40,
              "velocity": 15,
              "position": 0.5520833333333334,
              "duration": 0.010416666666666666
            },
            {
              "pitch": 44,
              "velocity": 60,
              "position": 0.6666666666666666,
              "duration": 0.010416666666666666
            },
            {
              "pitch": 40,
              "velocity": 20,
              "position": 0.7708333333333334,
              "duration": 0.010416666666666666
            },
            {
              "pitch": 36,
              "velocity": 50,
              "position": 0.8854166666666666,
              "duration": 0.010416666666666666
            },
            {
              "pitch": 40,
              "velocity": 90,
              "position": 1,
              "duration": 0.010416666666666666
            },
            {
              "pitch": 40,
              "velocity": 15,
              "position": 1.5520833333333333,
              "duration": 0.010416666666666666
            },
            {
              "pitch": 40,
              "velocity": 20,
              "position": 1.7708333333333333,
              "duration": 0.010416666666666666
            },
            {
              "pitch": 36,
              "velocity": 50,
              "position": 1.8854166666666667,
              "duration": 0.010416666666666666
            },
            {
              "pitch": 36,
              "velocity": 90,
              "position": 2,
              "duration": 0.010416666666666666
            },
            {
              "pitch": 40,
              "velocity": 15,
              "position": 2.1041666666666665,
              "duration": 0.010416666666666666
            },
            {
              "pitch": 45,
              "velocity": 62,
              "position": 2.21875,
              "duration": 0.010416666666666666
            },
            {
              "pitch": 44,
              "velocity": 40,
              "position": 2.3333333333333335,
              "duration": 0.010416666666666666
            },
            {
              "pitch": 40,
              "velocity": 15,
              "position": 2.4375,
              "duration": 0.010416666666666666
            },
            {
              "pitch": 47,
              "velocity": 89,
              "position": 2.5520833333333335,
              "duration": 0.010416666666666666
            },
            {
              "pitch": 44,
              "velocity": 60,
              "position": 2.6666666666666665,
              "duration": 0.010416666666666666
            },
            {
              "pitch": 40,
              "velocity": 64,
              "position": 2.7708333333333335,
              "duration": 0.010416666666666666
            },
            {
              "pitch": 40,
              "velocity": 81,
              "position": 2.8854166666666665,
              "duration": 0.010416666666666666
            },
            {
              "pitch": 36,
              "velocity": 90,
              "position": 3,
              "duration": 0.010416666666666666
            },
            {
              "pitch": 40,
              "velocity": 90,
              "position": 3,
              "duration": 0.010416666666666666
            },
            {
              "pitch": 44,
              "velocity": 83,
              "position": 3,
              "duration": 0.010416666666666666
            },
            {
              "pitch": 40,
              "velocity": 83,
              "position": 3.1041666666666665,
              "duration": 0.010416666666666666
            },
            {
              "pitch": 47,
              "velocity": 46,
              "position": 3.21875,
              "duration": 0.010416666666666666
            },
            {
              "pitch": 40,
              "velocity": 40,
              "position": 3.3333333333333335,
              "duration": 0.010416666666666666
            },
            {
              "pitch": 44,
              "velocity": 40,
              "position": 3.3333333333333335,
              "duration": 0.010416666666666666
            },
            {
              "pitch": 45,
              "velocity": 60,
              "position": 3.4375,
              "duration": 0.010416666666666666
            },
            {
              "pitch": 40,
              "velocity": 40,
              "position": 3.5520833333333335,
              "duration": 0.010416666666666666
            },
            {
              "pitch": 36,
              "velocity": 50,
              "position": 3.6666666666666665,
              "duration": 0.010416666666666666
            },
            {
              "pitch": 43,
              "velocity": 90,
              "position": 3.6666666666666665,
              "duration": 0.010416666666666666
            },
            {
              "pitch": 44,
              "velocity": 60,
              "position": 3.6666666666666665,
              "duration": 0.010416666666666666
            },
            {
              "pitch": 40,
              "velocity": 64,
              "position": 3.7708333333333335,
              "duration": 0.010416666666666666
            },
            {
              "pitch": 40,
              "velocity": 94,
              "position": 3.8854166666666665,
              "duration": 0.010416666666666666
            }
          ]
        },
        "10": {
          "ctab": {
            "srcChannel": 10,
            "name": "BassMain",
            "accType": "BASS",
            "editable": false,
            "mutedNotes": [],
            "mutedChords": [
              "7aug",
              "dim",
              "minMaj7(9)",
              "minMaj7",
              "min(9)",
              "m7b5",
              "min",
              "aug"
            ],
            "autoStart": false,
            "sourceChordNote": 0,
            "sourceChordType": "Maj7",
            "ctb2Low": null,
            "ctb2Main": {
              "ntr": "ROOT_TRANSPOSITION",
              "ntt": "MELODY",
              "bassOn": true,
              "chordRootUpperLimit": 8,
              "noteLowLimit": 28,
              "noteHighLimit": 127,
              "rtr": "PITCH_SHIFT_TO_ROOT"
            },
            "ctb2High": null
          },
          "notes": [
            {
              "pitch": 24,
              "velocity": 100,
              "position": 0,
              "duration": 0.5520833333333334
            },
            {
              "pitch": 36,
              "velocity": 100,
              "position": 0.5520833333333334,
              "duration": 0.3229166666666667
            },
            {
              "pitch": 24,
              "velocity": 89,
              "position": 0.8854166666666666,
              "duration": 0.10416666666666667
            },
            {
              "pitch": 28,
              "velocity": 100,
              "position": 1,
              "duration": 0.5520833333333334
            },
            {
              "pitch": 40,
              "velocity": 100,
              "position": 1.5520833333333333,
              "duration": 0.3229166666666667
            },
            {
              "pitch": 28,
              "velocity": 89,
              "position": 1.8854166666666667,
              "duration": 0.10416666666666667
            },
            {
              "pitch": 31,
              "velocity": 100,
              "position": 2,
              "duration": 0.5520833333333334
            },
            {
              "pitch": 43,
              "velocity": 100,
              "position": 2.5520833333333335,
              "duration": 0.3229166666666667
            },
            {
              "pitch": 31,
              "velocity": 89,
              "position": 2.8854166666666665,
              "duration": 0.10416666666666667
            },
            {
              "pitch": 33,
              "velocity": 100,
              "position": 3,
              "duration": 0.3229166666666667
            },
            {
              "pitch": 36,
              "velocity": 100,
              "position": 3.3333333333333335,
              "duration": 0.3229166666666667
            },
            {
              "pitch": 33,
              "velocity": 100,
              "position": 3.6666666666666665,
              "duration": 0.3229166666666667
            }
          ]
        },
        "11": {
          "ctab": {
            "srcChannel": 11,
            "name": "60cCln",
            "accType": "CHORD1",
            "editable": false,
            "mutedNotes": [],
            "mutedChords": [
              "min",
              "Maj"
            ],
            "autoStart": false,
            "sourceChordNote": 0,
            "sourceChordType": "Maj7",
            "ctb2Low": null,
            "ctb2Main": {
              "ntr": "ROOT_FIXED",
              "ntt": "CHORD",
              "bassOn": false,
              "chordRootUpperLimit": 7,
              "noteLowLimit": 0,
              "noteHighLimit": 127,
              "rtr": "PITCH_SHIFT"
            },
            "ctb2High": null
          },
          "notes": [
            {
              "pitch": 59,
              "velocity": 85,
              "position": 0,
              "duration": 0.3229166666666667
            },
            {
              "pitch": 64,
              "velocity": 85,
              "position": 0,
              "duration": 0.32916666666666666
            },
            {
              "pitch": 67,
              "velocity": 85,
              "position": 0.010416666666666666,
              "duration": 0.3229166666666667
            },
            {
              "pitch": 59,
              "velocity": 45,
              "position": 0.3333333333333333,
              "duration": 0.3229166666666667
            },
            {
              "pitch": 64,
              "velocity": 45,
              "position": 0.3333333333333333,
              "duration": 0.32916666666666666
            },
            {
              "pitch": 67,
              "velocity": 45,
              "position": 0.34375,
              "duration": 0.3229166666666667
            },
            {
              "pitch": 59,
              "velocity": 65,
              "position": 0.6666666666666666,
              "duration": 0.3229166666666667
            },
            {
              "pitch": 64,
              "velocity": 65,
              "position": 0.6666666666666666,
              "duration": 0.32916666666666666
            },
            {
              "pitch": 67,
              "velocity": 65,
              "position": 0.6770833333333334,
              "duration": 0.3229166666666667
            },
            {
              "pitch": 59,
              "velocity": 100,
              "position": 1,
              "duration": 0.08333333333333333
            },
            {
              "pitch": 64,
              "velocity": 100,
              "position": 1,
              "duration": 0.08333333333333333
            },
            {
              "pitch": 67,
              "velocity": 100,
              "position": 1.0104166666666667,
              "duration": 0.08333333333333333
            },
            {
              "pitch": 59,
              "velocity": 65,
              "position": 1.3333333333333333,
              "duration": 0.010416666666666666
            },
            {
              "pitch": 64,
              "velocity": 65,
              "position": 1.3333333333333333,
              "duration": 0.010416666666666666
            },
            {
              "pitch": 67,
              "velocity": 65,
              "position": 1.34375,
              "duration": 0.010416666666666666
            },
            {
              "pitch": 59,
              "velocity": 85,
              "position": 1.6666666666666667,
              "duration": 0.65625
            },
            {
              "pitch": 64,
              "velocity": 85,
              "position": 1.6666666666666667,
              "duration": 0.6625
            },
            {
              "pitch": 67,
              "velocity": 85,
              "position": 1.6770833333333333,
              "duration": 0.65625
            },
            {
              "pitch": 59,
              "velocity": 45,
              "position": 2.3333333333333335,
              "duration": 0.3229166666666667
            },
            {
              "pitch": 64,
              "velocity": 45,
              "position": 2.3333333333333335,
              "duration": 0.32916666666666666
            },
            {
              "pitch": 67,
              "velocity": 45,
              "position": 2.34375,
              "duration": 0.3229166666666667
            },
            {
              "pitch": 59,
              "velocity": 65,
              "position": 2.6666666666666665,
              "duration": 0.3229166666666667
            },
            {
              "pitch": 64,
              "velocity": 65,
              "position": 2.6666666666666665,
              "duration": 0.32916666666666666
            },
            {
              "pitch": 67,
              "velocity": 65,
              "position": 2.6770833333333335,
              "duration": 0.3229166666666667
            },
            {
              "pitch": 59,
              "velocity": 100,
              "position": 3,
              "duration": 0.08333333333333333
            },
            {
              "pitch": 64,
              "velocity": 100,
              "position": 3,
              "duration": 0.08333333333333333
            },
            {
              "pitch": 67,
              "velocity": 100,
              "position": 3.0104166666666665,
              "duration": 0.08333333333333333
            },
            {
              "pitch": 59,
              "velocity": 65,
              "position": 3.21875,
              "duration": 0.010416666666666666
            },
            {
              "pitch": 64,
              "velocity": 65,
              "position": 3.2291666666666665,
              "duration": 0.010416666666666666
            },
            {
              "pitch": 59,
              "velocity": 100,
              "position": 3.3333333333333335,
              "duration": 0.3229166666666667
            },
            {
              "pitch": 64,
              "velocity": 100,
              "position": 3.3333333333333335,
              "duration": 0.32916666666666666
            },
            {
              "pitch": 67,
              "velocity": 100,
              "position": 3.34375,
              "duration": 0.3229166666666667
            },
            {
              "pitch": 59,
              "velocity": 45,
              "position": 3.6666666666666665,
              "duration": 0.3229166666666667
            },
            {
              "pitch": 64,
              "velocity": 45,
              "position": 3.6666666666666665,
              "duration": 0.3229166666666667
            },
            {
              "pitch": 67,
              "velocity": 45,
              "position": 3.6770833333333335,
              "duration": 0.3125
            }
          ]
        },
        "12": {
          "ctab": {
            "srcChannel": 12,
            "name": "Pno RH",
            "accType": "CHORD2",
            "editable": false,
            "mutedNotes": [],
            "mutedChords": [
              "min",
              "Maj"
            ],
            "autoStart": false,
            "sourceChordNote": 0,
            "sourceChordType": "Maj7",
            "ctb2Low": null,
            "ctb2Main": {
              "ntr": "ROOT_FIXED",
              "ntt": "CHORD",
              "bassOn": false,
              "chordRootUpperLimit": 7,
              "noteLowLimit": 0,
              "noteHighLimit": 79,
              "rtr": "PITCH_SHIFT"
            },
            "ctb2High": null
          },
          "notes": [
            {
              "pitch": 64,
              "velocity": 62,
              "position": 0,
              "duration": 0.3229166666666667
            },
            {
              "pitch": 67,
              "velocity": 63,
              "position": 0,
              "duration": 0.3229166666666667
            },
            {
              "pitch": 71,
              "velocity": 71,
              "position": 0,
              "duration": 0.3229166666666667
            },
            {
              "pitch": 64,
              "velocity": 46,
              "position": 0.3333333333333333,
              "duration": 0.3229166666666667
            },
            {
              "pitch": 67,
              "velocity": 49,
              "position": 0.3333333333333333,
              "duration": 0.3229166666666667
            },
            {
              "pitch": 71,
              "velocity": 35,
              "position": 0.3333333333333333,
              "duration": 0.3229166666666667
            },
            {
              "pitch": 78,
              "velocity": 96,
              "position": 0.6666666666666666,
              "duration": 0.125
            },
            {
              "pitch": 64,
              "velocity": 40,
              "position": 0.6666666666666666,
              "duration": 0.3229166666666667
            },
            {
              "pitch": 67,
              "velocity": 40,
              "position": 0.6666666666666666,
              "duration": 0.3229166666666667
            },
            {
              "pitch": 71,
              "velocity": 48,
              "position": 0.6666666666666666,
              "duration": 0.3229166666666667
            },
            {
              "pitch": 72,
              "velocity": 89,
              "position": 0.6666666666666666,
              "duration": 0.3333333333333333
            },
            {
              "pitch": 84,
              "velocity": 96,
              "position": 0.6770833333333334,
              "duration": 0.3541666666666667
            },
            {
              "pitch": 79,
              "velocity": 89,
              "position": 0.6770833333333334,
              "duration": 0.40625
            },
            {
              "pitch": 72,
              "velocity": 37,
              "position": 1.0625,
              "duration": 0.07291666666666667
            },
            {
              "pitch": 84,
              "velocity": 39,
              "position": 1.1666666666666667,
              "duration": 0.03125
            },
            {
              "pitch": 72,
              "velocity": 46,
              "position": 1.2083333333333333,
              "duration": 0.0625
            },
            {
              "pitch": 84,
              "velocity": 31,
              "position": 1.2708333333333333,
              "duration": 0.03125
            },
            {
              "pitch": 64,
              "velocity": 57,
              "position": 1,
              "duration": 0.3229166666666667
            },
            {
              "pitch": 67,
              "velocity": 47,
              "position": 1,
              "duration": 0.3229166666666667
            },
            {
              "pitch": 71,
              "velocity": 64,
              "position": 1,
              "duration": 0.3229166666666667
            },
            {
              "pitch": 79,
              "velocity": 17,
              "position": 1.1770833333333333,
              "duration": 0.14583333333333334
            },
            {
              "pitch": 72,
              "velocity": 31,
              "position": 1.3333333333333333,
              "duration": 0.041666666666666664
            },
            {
              "pitch": 84,
              "velocity": 40,
              "position": 1.3854166666666667,
              "duration": 0.041666666666666664
            },
            {
              "pitch": 72,
              "velocity": 48,
              "position": 1.4270833333333333,
              "duration": 0.07291666666666667
            },
            {
              "pitch": 84,
              "velocity": 46,
              "position": 1.4791666666666667,
              "duration": 0.052083333333333336
            },
            {
              "pitch": 79,
              "velocity": 31,
              "position": 1.3645833333333333,
              "duration": 0.17708333333333334
            },
            {
              "pitch": 84,
              "velocity": 47,
              "position": 1.6041666666666667,
              "duration": 0.041666666666666664
            },
            {
              "pitch": 64,
              "velocity": 46,
              "position": 1.3333333333333333,
              "duration": 0.3229166666666667
            },
            {
              "pitch": 67,
              "velocity": 43,
              "position": 1.3333333333333333,
              "duration": 0.3229166666666667
            },
            {
              "pitch": 71,
              "velocity": 24,
              "position": 1.3333333333333333,
              "duration": 0.3229166666666667
            },
            {
              "pitch": 84,
              "velocity": 40,
              "position": 1.71875,
              "duration": 0.041666666666666664
            },
            {
              "pitch": 84,
              "velocity": 41,
              "position": 1.8229166666666667,
              "duration": 0.052083333333333336
            },
            {
              "pitch": 79,
              "velocity": 36,
              "position": 1.5833333333333333,
              "duration": 0.3020833333333333
            },
            {
              "pitch": 84,
              "velocity": 38,
              "position": 1.9375,
              "duration": 0.041666666666666664
            },
            {
              "pitch": 64,
              "velocity": 51,
              "position": 1.6666666666666667,
              "duration": 0.3229166666666667
            },
            {
              "pitch": 67,
              "velocity": 52,
              "position": 1.6666666666666667,
              "duration": 0.3229166666666667
            },
            {
              "pitch": 71,
              "velocity": 60,
              "position": 1.6666666666666667,
              "duration": 0.3229166666666667
            },
            {
              "pitch": 79,
              "velocity": 27,
              "position": 1.9166666666666667,
              "duration": 0.07291666666666667
            },
            {
              "pitch": 72,
              "velocity": 36,
              "position": 1.5520833333333333,
              "duration": 0.5
            },
            {
              "pitch": 79,
              "velocity": 30,
              "position": 2.0208333333333335,
              "duration": 0.07291666666666667
            },
            {
              "pitch": 84,
              "velocity": 45,
              "position": 2.0416666666666665,
              "duration": 0.052083333333333336
            },
            {
              "pitch": 72,
              "velocity": 46,
              "position": 2.1041666666666665,
              "duration": 0.0625
            },
            {
              "pitch": 79,
              "velocity": 30,
              "position": 2.1875,
              "duration": 0.07291666666666667
            },
            {
              "pitch": 84,
              "velocity": 45,
              "position": 2.2083333333333335,
              "duration": 0.052083333333333336
            },
            {
              "pitch": 64,
              "velocity": 60,
              "position": 2,
              "duration": 0.3229166666666667
            },
            {
              "pitch": 67,
              "velocity": 57,
              "position": 2,
              "duration": 0.3229166666666667
            },
            {
              "pitch": 71,
              "velocity": 68,
              "position": 2,
              "duration": 0.3229166666666667
            },
            {
              "pitch": 64,
              "velocity": 39,
              "position": 2.3333333333333335,
              "duration": 0.3229166666666667
            },
            {
              "pitch": 67,
              "velocity": 49,
              "position": 2.3333333333333335,
              "duration": 0.3229166666666667
            },
            {
              "pitch": 71,
              "velocity": 40,
              "position": 2.3333333333333335,
              "duration": 0.3229166666666667
            },
            {
              "pitch": 72,
              "velocity": 39,
              "position": 2.3333333333333335,
              "duration": 0.3229166666666667
            },
            {
              "pitch": 79,
              "velocity": 49,
              "position": 2.3333333333333335,
              "duration": 0.3229166666666667
            },
            {
              "pitch": 84,
              "velocity": 40,
              "position": 2.3333333333333335,
              "duration": 0.3229166666666667
            },
            {
              "pitch": 64,
              "velocity": 46,
              "position": 2.6666666666666665,
              "duration": 0.3229166666666667
            },
            {
              "pitch": 67,
              "velocity": 41,
              "position": 2.6666666666666665,
              "duration": 0.3229166666666667
            },
            {
              "pitch": 71,
              "velocity": 45,
              "position": 2.6666666666666665,
              "duration": 0.3229166666666667
            },
            {
              "pitch": 72,
              "velocity": 50,
              "position": 2.6666666666666665,
              "duration": 0.3229166666666667
            },
            {
              "pitch": 79,
              "velocity": 45,
              "position": 2.6666666666666665,
              "duration": 0.3229166666666667
            },
            {
              "pitch": 84,
              "velocity": 49,
              "position": 2.6666666666666665,
              "duration": 0.3229166666666667
            },
            {
              "pitch": 64,
              "velocity": 57,
              "position": 3,
              "duration": 0.3229166666666667
            },
            {
              "pitch": 67,
              "velocity": 54,
              "position": 3,
              "duration": 0.3229166666666667
            },
            {
              "pitch": 71,
              "velocity": 63,
              "position": 3,
              "duration": 0.3229166666666667
            },
            {
              "pitch": 72,
              "velocity": 72,
              "position": 3,
              "duration": 0.3229166666666667
            },
            {
              "pitch": 79,
              "velocity": 69,
              "position": 3,
              "duration": 0.3229166666666667
            },
            {
              "pitch": 84,
              "velocity": 78,
              "position": 3,
              "duration": 0.3229166666666667
            },
            {
              "pitch": 64,
              "velocity": 44,
              "position": 3.3333333333333335,
              "duration": 0.3229166666666667
            },
            {
              "pitch": 67,
              "velocity": 44,
              "position": 3.3333333333333335,
              "duration": 0.3229166666666667
            },
            {
              "pitch": 71,
              "velocity": 53,
              "position": 3.3333333333333335,
              "duration": 0.3229166666666667
            },
            {
              "pitch": 72,
              "velocity": 72,
              "position": 3.3333333333333335,
              "duration": 0.3229166666666667
            },
            {
              "pitch": 79,
              "velocity": 72,
              "position": 3.3333333333333335,
              "duration": 0.3229166666666667
            },
            {
              "pitch": 84,
              "velocity": 69,
              "position": 3.3333333333333335,
              "duration": 0.3229166666666667
            },
            {
              "pitch": 64,
              "velocity": 67,
              "position": 3.6666666666666665,
              "duration": 0.3229166666666667
            },
            {
              "pitch": 67,
              "velocity": 91,
              "position": 3.6666666666666665,
              "duration": 0.3229166666666667
            },
            {
              "pitch": 71,
              "velocity": 79,
              "position": 3.6666666666666665,
              "duration": 0.3229166666666667
            },
            {
              "pitch": 72,
              "velocity": 76,
              "position": 3.6666666666666665,
              "duration": 0.3229166666666667
            },
            {
              "pitch": 79,
              "velocity": 88,
              "position": 3.6666666666666665,
              "duration": 0.3229166666666667
            },
            {
              "pitch": 84,
              "velocity": 88,
              "position": 3.6666666666666665,
              "duration": 0.3229166666666667
            }
          ]
        },
        "13": {
          "ctab": {
            "srcChannel": 13,
            "name": "Org",
            "accType": "PAD",
            "editable": false,
            "mutedNotes": [],
            "mutedChords": [
              "min",
              "Maj"
            ],
            "autoStart": false,
            "sourceChordNote": 0,
            "sourceChordType": "Maj7",
            "ctb2Low": null,
            "ctb2Main": {
              "ntr": "ROOT_FIXED",
              "ntt": "CHORD",
              "bassOn": false,
              "chordRootUpperLimit": 7,
              "noteLowLimit": 0,
              "noteHighLimit": 127,
              "rtr": "PITCH_SHIFT"
            },
            "ctb2High": null
          },
          "notes": [
            {
              "pitch": 59,
              "velocity": 127,
              "position": 0,
              "duration": 1.3229166666666667
            },
            {
              "pitch": 64,
              "velocity": 127,
              "position": 0,
              "duration": 1.3229166666666667
            },
            {
              "pitch": 67,
              "velocity": 127,
              "position": 0,
              "duration": 1.3229166666666667
            },
            {
              "pitch": 67,
              "velocity": 127,
              "position": 1.3333333333333333,
              "duration": 0.3229166666666667
            },
            {
              "pitch": 67,
              "velocity": 127,
              "position": 1.6666666666666667,
              "duration": 0.3229166666666667
            },
            {
              "pitch": 67,
              "velocity": 127,
              "position": 2,
              "duration": 0.3229166666666667
            },
            {
              "pitch": 67,
              "velocity": 127,
              "position": 2.3333333333333335,
              "duration": 0.3229166666666667
            },
            {
              "pitch": 67,
              "velocity": 127,
              "position": 2.6666666666666665,
              "duration": 0.3229166666666667
            },
            {
              "pitch": 67,
              "velocity": 127,
              "position": 3,
              "duration": 0.3229166666666667
            },
            {
              "pitch": 67,
              "velocity": 127,
              "position": 3.3333333333333335,
              "duration": 0.3229166666666667
            },
            {
              "pitch": 64,
              "velocity": 127,
              "position": 1.3333333333333333,
              "duration": 2.65625
            },
            {
              "pitch": 67,
              "velocity": 127,
              "position": 3.6666666666666665,
              "duration": 0.3229166666666667
            },
            {
              "pitch": 71,
              "velocity": 127,
              "position": 1.3333333333333333,
              "duration": 2.65625
            }
          ]
        },
        "14": {
          "ctab": {
            "srcChannel": 14,
            "name": "ClGt",
            "accType": "PHRASE1",
            "editable": false,
            "mutedNotes": [],
            "mutedChords": [
              "min",
              "Maj"
            ],
            "autoStart": false,
            "sourceChordNote": 0,
            "sourceChordType": "Maj7",
            "ctb2Low": null,
            "ctb2Main": {
              "ntr": "ROOT_TRANSPOSITION",
              "ntt": "MELODY",
              "bassOn": false,
              "chordRootUpperLimit": 4,
              "noteLowLimit": 0,
              "noteHighLimit": 127,
              "rtr": "PITCH_SHIFT"
            },
            "ctb2High": null
          },
          "notes": [
            {
              "pitch": 67,
              "velocity": 115,
              "position": 0,
              "duration": 0.65625
            },
            {
              "pitch": 71,
              "velocity": 26,
              "position": 0.3333333333333333,
              "duration": 0.65625
            },
            {
              "pitch": 67,
              "velocity": 116,
              "position": 0.6666666666666666,
              "duration": 0.65625
            },
            {
              "pitch": 67,
              "velocity": 116,
              "position": 1.3333333333333333,
              "duration": 0.3229166666666667
            },
            {
              "pitch": 71,
              "velocity": 26,
              "position": 1,
              "duration": 0.65625
            },
            {
              "pitch": 67,
              "velocity": 26,
              "position": 1.6666666666666667,
              "duration": 0.3229166666666667
            },
            {
              "pitch": 71,
              "velocity": 26,
              "position": 1.6666666666666667,
              "duration": 0.4895833333333333
            },
            {
              "pitch": 71,
              "velocity": 26,
              "position": 2.1666666666666665,
              "duration": 0.15625
            },
            {
              "pitch": 67,
              "velocity": 116,
              "position": 2,
              "duration": 0.4895833333333333
            },
            {
              "pitch": 71,
              "velocity": 32,
              "position": 2.3333333333333335,
              "duration": 0.3229166666666667
            },
            {
              "pitch": 71,
              "velocity": 26,
              "position": 2.6666666666666665,
              "duration": 0.15625
            },
            {
              "pitch": 67,
              "velocity": 116,
              "position": 2.5,
              "duration": 0.4895833333333333
            },
            {
              "pitch": 71,
              "velocity": 36,
              "position": 2.8333333333333335,
              "duration": 0.3229166666666667
            },
            {
              "pitch": 67,
              "velocity": 116,
              "position": 3,
              "duration": 0.3229166666666667
            },
            {
              "pitch": 71,
              "velocity": 26,
              "position": 3.1666666666666665,
              "duration": 0.3229166666666667
            },
            {
              "pitch": 67,
              "velocity": 116,
              "position": 3.3333333333333335,
              "duration": 0.3229166666666667
            },
            {
              "pitch": 67,
              "velocity": 116,
              "position": 3.6666666666666665,
              "duration": 0.3229166666666667
            },
            {
              "pitch": 71,
              "velocity": 26,
              "position": 3.5,
              "duration": 0.4895833333333333
            }
          ]
        },
        "15": {
          "ctab": {
            "srcChannel": 15,
            "name": "EP",
            "accType": "PHRASE2",
            "editable": false,
            "mutedNotes": [],
            "mutedChords": [
              "min",
              "Maj"
            ],
            "autoStart": false,
            "sourceChordNote": 0,
            "sourceChordType": "Maj7",
            "ctb2Low": null,
            "ctb2Main": {
              "ntr": "ROOT_FIXED",
              "ntt": "CHORD",
              "bassOn": false,
              "chordRootUpperLimit": 7,
              "noteLowLimit": 0,
              "noteHighLimit": 127,
              "rtr": "PITCH_SHIFT"
            },
            "ctb2High": null
          },
          "notes": [
            {
              "pitch": 59,
              "velocity": 34,
              "position": 0,
              "duration": 0.5479166666666667
            },
            {
              "pitch": 64,
              "velocity": 34,
              "position": 0,
              "duration": 0.65625
            },
            {
              "pitch": 67,
              "velocity": 40,
              "position": 0,
              "duration": 0.65625
            },
            {
              "pitch": 59,
              "velocity": 54,
              "position": 0.5520833333333334,
              "duration": 0.4375
            },
            {
              "pitch": 64,
              "velocity": 69,
              "position": 0.6666666666666666,
              "duration": 0.3229166666666667
            },
            {
              "pitch": 67,
              "velocity": 61,
              "position": 0.6666666666666666,
              "duration": 0.3229166666666667
            },
            {
              "pitch": 59,
              "velocity": 79,
              "position": 1,
              "duration": 0.5479166666666667
            },
            {
              "pitch": 64,
              "velocity": 99,
              "position": 1,
              "duration": 0.65625
            },
            {
              "pitch": 67,
              "velocity": 107,
              "position": 1,
              "duration": 0.65625
            },
            {
              "pitch": 59,
              "velocity": 55,
              "position": 1.5520833333333333,
              "duration": 0.4375
            },
            {
              "pitch": 64,
              "velocity": 71,
              "position": 1.6666666666666667,
              "duration": 0.3229166666666667
            },
            {
              "pitch": 67,
              "velocity": 65,
              "position": 1.6666666666666667,
              "duration": 0.3229166666666667
            },
            {
              "pitch": 59,
              "velocity": 53,
              "position": 2,
              "duration": 0.5479166666666667
            },
            {
              "pitch": 64,
              "velocity": 53,
              "position": 2,
              "duration": 0.65625
            },
            {
              "pitch": 67,
              "velocity": 48,
              "position": 2,
              "duration": 0.65625
            },
            {
              "pitch": 59,
              "velocity": 55,
              "position": 2.5520833333333335,
              "duration": 0.3229166666666667
            },
            {
              "pitch": 64,
              "velocity": 79,
              "position": 2.6666666666666665,
              "duration": 0.3229166666666667
            },
            {
              "pitch": 67,
              "velocity": 76,
              "position": 2.6666666666666665,
              "duration": 0.3229166666666667
            },
            {
              "pitch": 59,
              "velocity": 59,
              "position": 2.8854166666666665,
              "duration": 0.3229166666666667
            },
            {
              "pitch": 64,
              "velocity": 95,
              "position": 3,
              "duration": 0.3229166666666667
            },
            {
              "pitch": 67,
              "velocity": 107,
              "position": 3,
              "duration": 0.3229166666666667
            },
            {
              "pitch": 59,
              "velocity": 54,
              "position": 3.21875,
              "duration": 0.3229166666666667
            },
            {
              "pitch": 64,
              "velocity": 56,
              "position": 3.3333333333333335,
              "duration": 0.3229166666666667
            },
            {
              "pitch": 67,
              "velocity": 65,
              "position": 3.3333333333333335,
              "duration": 0.3229166666666667
            },
            {
              "pitch": 59,
              "velocity": 54,
              "position": 3.5520833333333335,
              "duration": 0.4375
            },
            {
              "pitch": 64,
              "velocity": 67,
              "position": 3.6666666666666665,
              "duration": 0.3229166666666667
            },
            {
              "pitch": 67,
              "velocity": 61,
              "position": 3.6666666666666665,
              "duration": 0.3229166666666667
            }
          ]
        }
      }
    },
    "Intro_A": {
      "type": "Intro_A",
      "sizeInBeats": 4,
      "channels": {
        "0": {
          "ctab": {
            "srcChannel": 0,
            "name": "Pno LH",
            "accType": "CHORD2",
            "editable": false,
            "mutedNotes": [],
            "mutedChords": [],
            "autoStart": false,
            "sourceChordNote": 0,
            "sourceChordType": "Maj7",
            "ctb2Low": null,
            "ctb2Main": {
              "ntr": "ROOT_TRANSPOSITION",
              "ntt": "MELODY",
              "bassOn": true,
              "chordRootUpperLimit": 8,
              "noteLowLimit": 0,
              "noteHighLimit": 127,
              "rtr": "PITCH_SHIFT_TO_ROOT"
            },
            "ctb2High": null
          },
          "notes": []
        },
        "1": {
          "ctab": {
            "srcChannel": 1,
            "name": "BassAlt",
            "accType": "BASS",
            "editable": false,
            "mutedNotes": [],
            "mutedChords": [
              "1+2+5",
              "sus4",
              "1+5",
              "1+8",
              "Maj7aug",
              "7(#9)",
              "7(b13)",
              "7(b9)",
              "7(13)",
              "7#11",
              "7(9)",
              "7b5",
              "7sus4",
              "7th",
              "dim7",
              "min7(11)",
              "min7(9)",
              "min7",
              "min6",
              "Maj6(9)",
              "Maj7(9)",
              "Maj(9)",
              "Maj7#11",
              "Maj7",
              "Maj6",
              "Maj"
            ],
            "autoStart": false,
            "sourceChordNote": 0,
            "sourceChordType": "Maj7",
            "ctb2Low": null,
            "ctb2Main": {
              "ntr": "ROOT_TRANSPOSITION",
              "ntt": "MELODY",
              "bassOn": true,
              "chordRootUpperLimit": 8,
              "noteLowLimit": 28,
              "noteHighLimit": 127,
              "rtr": "PITCH_SHIFT_TO_ROOT"
            },
            "ctb2High": null
          },
          "notes": []
        },
        "2": {
          "ctab": {
            "srcChannel": 2,
            "name": "60cCln S",
            "accType": "CHORD1",
            "editable": false,
            "mutedNotes": [],
            "mutedChords": [
              "1+2+5",
              "sus4",
              "1+5",
              "1+8",
              "7aug",
              "Maj7aug",
              "7(#9)",
              "7(b13)",
              "7(b9)",
              "7(13)",
              "7#11",
              "7(9)",
              "7b5",
              "7sus4",
              "7th",
              "dim7",
              "dim",
              "minMaj7(9)",
              "minMaj7",
              "min7(11)",
              "min7(9)",
              "min(9)",
              "m7b5",
              "min7",
              "min6",
              "aug",
              "Maj6(9)",
              "Maj7(9)",
              "Maj(9)",
              "Maj7#11",
              "Maj7",
              "Maj6"
            ],
            "autoStart": false,
            "sourceChordNote": 0,
            "sourceChordType": "Maj7",
            "ctb2Low": null,
            "ctb2Main": {
              "ntr": "ROOT_TRANSPOSITION",
              "ntt": "DORIAN_5",
              "bassOn": false,
              "chordRootUpperLimit": 4,
              "noteLowLimit": 54,
              "noteHighLimit": 127,
              "rtr": "PITCH_SHIFT"
            },
            "ctb2High": null
          },
          "notes": []
        },
        "3": {
          "ctab": {
            "srcChannel": 3,
            "name": "PnoRH S",
            "accType": "CHORD2",
            "editable": false,
            "mutedNotes": [],
            "mutedChords": [
              "1+2+5",
              "sus4",
              "1+5",
              "1+8",
              "7aug",
              "Maj7aug",
              "7(#9)",
              "7(b13)",
              "7(b9)",
              "7(13)",
              "7#11",
              "7(9)",
              "7b5",
              "7sus4",
              "7th",
              "dim7",
              "dim",
              "minMaj7(9)",
              "minMaj7",
              "min7(11)",
              "min7(9)",
              "min(9)",
              "m7b5",
              "min7",
              "min6",
              "aug",
              "Maj6(9)",
              "Maj7(9)",
              "Maj(9)",
              "Maj7#11",
              "Maj7",
              "Maj6"
            ],
            "autoStart": false,
            "sourceChordNote": 0,
            "sourceChordType": "Maj7",
            "ctb2Low": null,
            "ctb2Main": {
              "ntr": "ROOT_TRANSPOSITION",
              "ntt": "DORIAN_5",
              "bassOn": false,
              "chordRootUpperLimit": 11,
              "noteLowLimit": 58,
              "noteHighLimit": 79,
              "rtr": "PITCH_SHIFT"
            },
            "ctb2High": null
          },
          "notes": []
        },
        "4": {
          "ctab": {
            "srcChannel": 4,
            "name": "Org S",
            "accType": "PAD",
            "editable": false,
            "mutedNotes": [],
            "mutedChords": [
              "1+2+5",
              "sus4",
              "1+5",
              "1+8",
              "7aug",
              "Maj7aug",
              "7(#9)",
              "7(b13)",
              "7(b9)",
              "7(13)",
              "7#11",
              "7(9)",
              "7b5",
              "7sus4",
              "7th",
              "dim7",
              "dim",
              "minMaj7(9)",
              "minMaj7",
              "min7(11)",
              "min7(9)",
              "min(9)",
              "m7b5",
              "min7",
              "min6",
              "aug",
              "Maj6(9)",
              "Maj7(9)",
              "Maj(9)",
              "Maj7#11",
              "Maj7",
              "Maj6"
            ],
            "autoStart": false,
            "sourceChordNote": 0,
            "sourceChordType": "Maj7",
            "ctb2Low": null,
            "ctb2Main": {
              "ntr": "ROOT_TRANSPOSITION",
              "ntt": "DORIAN_5",
              "bassOn": false,
              "chordRootUpperLimit": 5,
              "noteLowLimit": 58,
              "noteHighLimit": 79,
              "rtr": "PITCH_SHIFT"
            },
            "ctb2High": null
          },
          "notes": []
        },
        "5": {
          "ctab": {
            "srcChannel": 5,
            "name": "ClGtSMaj",
            "accType": "PHRASE1",
            "editable": false,
            "mutedNotes": [],
            "mutedChords": [
              "1+2+5",
              "sus4",
              "1+5",
              "1+8",
              "7aug",
              "Maj7aug",
              "7(#9)",
              "7(b13)",
              "7(b9)",
              "7(13)",
              "7#11",
              "7(9)",
              "7b5",
              "7sus4",
              "7th",
              "dim7",
              "dim",
              "minMaj7(9)",
              "minMaj7",
              "min7(11)",
              "min7(9)",
              "min(9)",
              "m7b5",
              "min7",
              "min6",
              "min",
              "aug",
              "Maj6(9)",
              "Maj7(9)",
              "Maj(9)",
              "Maj7#11",
              "Maj7",
              "Maj6"
            ],
            "autoStart": false,
            "sourceChordNote": 0,
            "sourceChordType": "Maj7",
            "ctb2Low": null,
            "ctb2Main": {
              "ntr": "ROOT_TRANSPOSITION",
              "ntt": "DORIAN_5",
              "bassOn": false,
              "chordRootUpperLimit": 4,
              "noteLowLimit": 0,
              "noteHighLimit": 127,
              "rtr": "PITCH_SHIFT"
            },
            "ctb2High": null
          },
          "notes": []
        },
        "6": {
          "ctab": {
            "srcChannel": 6,
            "name": "EP S",
            "accType": "PHRASE2",
            "editable": false,
            "mutedNotes": [],
            "mutedChords": [
              "1+2+5",
              "sus4",
              "1+5",
              "1+8",
              "7aug",
              "Maj7aug",
              "7(#9)",
              "7(b13)",
              "7(b9)",
              "7(13)",
              "7#11",
              "7(9)",
              "7b5",
              "7sus4",
              "7th",
              "dim7",
              "dim",
              "minMaj7(9)",
              "minMaj7",
              "min7(11)",
              "min7(9)",
              "min(9)",
              "m7b5",
              "min7",
              "min6",
              "aug",
              "Maj6(9)",
              "Maj7(9)",
              "Maj(9)",
              "Maj7#11",
              "Maj7",
              "Maj6"
            ],
            "autoStart": false,
            "sourceChordNote": 0,
            "sourceChordType": "Maj7",
            "ctb2Low": null,
            "ctb2Main": {
              "ntr": "ROOT_TRANSPOSITION",
              "ntt": "DORIAN_5",
              "bassOn": false,
              "chordRootUpperLimit": 4,
              "noteLowLimit": 0,
              "noteHighLimit": 127,
              "rtr": "PITCH_SHIFT"
            },
            "ctb2High": null
          },
          "notes": []
        },
        "7": {
          "ctab": {
            "srcChannel": 7,
            "name": "ClGtSmin",
            "accType": "PHRASE1",
            "editable": false,
            "mutedNotes": [],
            "mutedChords": [
              "1+2+5",
              "sus4",
              "1+5",
              "1+8",
              "7aug",
              "Maj7aug",
              "7(#9)",
              "7(b13)",
              "7(b9)",
              "7(13)",
              "7#11",
              "7(9)",
              "7b5",
              "7sus4",
              "7th",
              "dim7",
              "dim",
              "minMaj7(9)",
              "minMaj7",
              "min7(11)",
              "min7(9)",
              "min(9)",
              "m7b5",
              "min7",
              "min6",
              "aug",
              "Maj6(9)",
              "Maj7(9)",
              "Maj(9)",
              "Maj7#11",
              "Maj7",
              "Maj6",
              "Maj"
            ],
            "autoStart": false,
            "sourceChordNote": 0,
            "sourceChordType": "Maj7",
            "ctb2Low": null,
            "ctb2Main": {
              "ntr": "ROOT_TRANSPOSITION",
              "ntt": "DORIAN_5",
              "bassOn": false,
              "chordRootUpperLimit": 4,
              "noteLowLimit": 0,
              "noteHighLimit": 127,
              "rtr": "PITCH_SHIFT"
            },
            "ctb2High": null
          },
          "notes": []
        },
        "8": {
          "ctab": {
            "srcChannel": 8,
            "name": "Perc",
            "accType": "SUBRHYTHM",
            "editable": false,
            "mutedNotes": [],
            "mutedChords": [],
            "autoStart": true,
            "sourceChordNote": 0,
            "sourceChordType": "Maj7",
            "ctb2Low": null,
            "ctb2Main": {
              "ntr": "ROOT_FIXED",
              "ntt": "BYPASS",
              "bassOn": false,
              "chordRootUpperLimit": 6,
              "noteLowLimit": 0,
              "noteHighLimit": 127,
              "rtr": "PITCH_SHIFT"
            },
            "ctb2High": null
          },
          "notes": []
        },
        "9": {
          "ctab": {
            "srcChannel": 9,
            "name": "Drs",
            "accType": "RHYTHM",
            "editable": false,
            "mutedNotes": [],
            "mutedChords": [],
            "autoStart": true,
            "sourceChordNote": 0,
            "sourceChordType": "Maj7",
            "ctb2Low": null,
            "ctb2Main": {
              "ntr": "ROOT_FIXED",
              "ntt": "BYPASS",
              "bassOn": false,
              "chordRootUpperLimit": 6,
              "noteLowLimit": 0,
              "noteHighLimit": 127,
              "rtr": "PITCH_SHIFT"
            },
            "ctb2High": null
          },
          "notes": [
            {
              "pitch": 32,
              "velocity": 80,
              "position": 0,
              "duration": 0.010416666666666666
            },
            {
              "pitch": 32,
              "velocity": 80,
              "position": 1,
              "duration": 0.010416666666666666
            },
            {
              "pitch": 32,
              "velocity": 80,
              "position": 2,
              "duration": 0.010416666666666666
            },
            {
              "pitch": 36,
              "velocity": 50,
              "position": 2.8854166666666665,
              "duration": 0.010416666666666666
            },
            {
              "pitch": 40,
              "velocity": 85,
              "position": 2.9895833333333335,
              "duration": 0.010416666666666666
            },
            {
              "pitch": 42,
              "velocity": 80,
              "position": 3,
              "duration": 0.010416666666666666
            },
            {
              "pitch": 40,
              "velocity": 100,
              "position": 3.0208333333333335,
              "duration": 0.010416666666666666
            },
            {
              "pitch": 45,
              "velocity": 80,
              "position": 3.3333333333333335,
              "duration": 0.010416666666666666
            },
            {
              "pitch": 43,
              "velocity": 60,
              "position": 3.6666666666666665,
              "duration": 0.010416666666666666
            }
          ]
        },
        "10": {
          "ctab": {
            "srcChannel": 10,
            "name": "BassMain",
            "accType": "BASS",
            "editable": false,
            "mutedNotes": [],
            "mutedChords": [
              "7aug",
              "dim",
              "minMaj7(9)",
              "minMaj7",
              "min(9)",
              "m7b5",
              "min",
              "aug"
            ],
            "autoStart": false,
            "sourceChordNote": 0,
            "sourceChordType": "Maj7",
            "ctb2Low": null,
            "ctb2Main": {
              "ntr": "ROOT_TRANSPOSITION",
              "ntt": "MELODY",
              "bassOn": true,
              "chordRootUpperLimit": 8,
              "noteLowLimit": 28,
              "noteHighLimit": 127,
              "rtr": "PITCH_SHIFT_TO_ROOT"
            },
            "ctb2High": null
          },
          "notes": []
        },
        "11": {
          "ctab": {
            "srcChannel": 11,
            "name": "60cCln",
            "accType": "CHORD1",
            "editable": false,
            "mutedNotes": [],
            "mutedChords": [
              "min",
              "Maj"
            ],
            "autoStart": false,
            "sourceChordNote": 0,
            "sourceChordType": "Maj7",
            "ctb2Low": null,
            "ctb2Main": {
              "ntr": "ROOT_FIXED",
              "ntt": "CHORD",
              "bassOn": false,
              "chordRootUpperLimit": 7,
              "noteLowLimit": 0,
              "noteHighLimit": 127,
              "rtr": "PITCH_SHIFT"
            },
            "ctb2High": null
          },
          "notes": []
        },
        "12": {
          "ctab": {
            "srcChannel": 12,
            "name": "Pno RH",
            "accType": "CHORD2",
            "editable": false,
            "mutedNotes": [],
            "mutedChords": [
              "min",
              "Maj"
            ],
            "autoStart": false,
            "sourceChordNote": 0,
            "sourceChordType": "Maj7",
            "ctb2Low": null,
            "ctb2Main": {
              "ntr": "ROOT_FIXED",
              "ntt": "CHORD",
              "bassOn": false,
              "chordRootUpperLimit": 7,
              "noteLowLimit": 0,
              "noteHighLimit": 79,
              "rtr": "PITCH_SHIFT"
            },
            "ctb2High": null
          },
          "notes": []
        },
        "13": {
          "ctab": {
            "srcChannel": 13,
            "name": "Org",
            "accType": "PAD",
            "editable": false,
            "mutedNotes": [],
            "mutedChords": [
              "min",
              "Maj"
            ],
            "autoStart": false,
            "sourceChordNote": 0,
            "sourceChordType": "Maj7",
            "ctb2Low": null,
            "ctb2Main": {
              "ntr": "ROOT_FIXED",
              "ntt": "CHORD",
              "bassOn": false,
              "chordRootUpperLimit": 7,
              "noteLowLimit": 0,
              "noteHighLimit": 127,
              "rtr": "PITCH_SHIFT"
            },
            "ctb2High": null
          },
          "notes": []
        },
        "14": {
          "ctab": {
            "srcChannel": 14,
            "name": "ClGt",
            "accType": "PHRASE1",
            "editable": false,
            "mutedNotes": [],
            "mutedChords": [
              "min",
              "Maj"
            ],
            "autoStart": false,
            "sourceChordNote": 0,
            "sourceChordType": "Maj7",
            "ctb2Low": null,
            "ctb2Main": {
              "ntr": "ROOT_TRANSPOSITION",
              "ntt": "MELODY",
              "bassOn": false,
              "chordRootUpperLimit": 4,
              "noteLowLimit": 0,
              "noteHighLimit": 127,
              "rtr": "PITCH_SHIFT"
            },
            "ctb2High": null
          },
          "notes": []
        },
        "15": {
          "ctab": {
            "srcChannel": 15,
            "name": "EP",
            "accType": "PHRASE2",
            "editable": false,
            "mutedNotes": [],
            "mutedChords": [
              "min",
              "Maj"
            ],
            "autoStart": false,
            "sourceChordNote": 0,
            "sourceChordType": "Maj7",
            "ctb2Low": null,
            "ctb2Main": {
              "ntr": "ROOT_FIXED",
              "ntt": "CHORD",
              "bassOn": false,
              "chordRootUpperLimit": 7,
              "noteLowLimit": 0,
              "noteHighLimit": 127,
              "rtr": "PITCH_SHIFT"
            },
            "ctb2High": null
          },
          "notes": []
        }
      }
    },
    "Ending_A": {
      "type": "Ending_A",
      "sizeInBeats": 4,
      "channels": {
        "0": {
          "ctab": {
            "srcChannel": 0,
            "name": "Pno LH",
            "accType": "CHORD2",
            "editable": false,
            "mutedNotes": [],
            "mutedChords": [],
            "autoStart": false,
            "sourceChordNote": 0,
            "sourceChordType": "Maj7",
            "ctb2Low": null,
            "ctb2Main": {
              "ntr": "ROOT_TRANSPOSITION",
              "ntt": "MELODY",
              "bassOn": true,
              "chordRootUpperLimit": 8,
              "noteLowLimit": 0,
              "noteHighLimit": 127,
              "rtr": "PITCH_SHIFT_TO_ROOT"
            },
            "ctb2High": null
          },
          "notes": [
            {
              "pitch": 36,
              "velocity": 100,
              "position": 0,
              "duration": 3.65625
            }
          ]
        },
        "1": {
          "ctab": {
            "srcChannel": 1,
            "name": "BassAlt",
            "accType": "BASS",
            "editable": false,
            "mutedNotes": [],
            "mutedChords": [
              "1+2+5",
              "sus4",
              "1+5",
              "1+8",
              "Maj7aug",
              "7(#9)",
              "7(b13)",
              "7(b9)",
              "7(13)",
              "7#11",
              "7(9)",
              "7b5",
              "7sus4",
              "7th",
              "dim7",
              "min7(11)",
              "min7(9)",
              "min7",
              "min6",
              "Maj6(9)",
              "Maj7(9)",
              "Maj(9)",
              "Maj7#11",
              "Maj7",
              "Maj6",
              "Maj"
            ],
            "autoStart": false,
            "sourceChordNote": 0,
            "sourceChordType": "Maj7",
            "ctb2Low": null,
            "ctb2Main": {
              "ntr": "ROOT_TRANSPOSITION",
              "ntt": "MELODY",
              "bassOn": true,
              "chordRootUpperLimit": 8,
              "noteLowLimit": 28,
              "noteHighLimit": 127,
              "rtr": "PITCH_SHIFT_TO_ROOT"
            },
            "ctb2High": null
          },
          "notes": [
            {
              "pitch": 24,
              "velocity": 100,
              "position": 0,
              "duration": 3.6666666666666665
            }
          ]
        },
        "2": {
          "ctab": {
            "srcChannel": 2,
            "name": "60cCln S",
            "accType": "CHORD1",
            "editable": false,
            "mutedNotes": [],
            "mutedChords": [
              "1+2+5",
              "sus4",
              "1+5",
              "1+8",
              "7aug",
              "Maj7aug",
              "7(#9)",
              "7(b13)",
              "7(b9)",
              "7(13)",
              "7#11",
              "7(9)",
              "7b5",
              "7sus4",
              "7th",
              "dim7",
              "dim",
              "minMaj7(9)",
              "minMaj7",
              "min7(11)",
              "min7(9)",
              "min(9)",
              "m7b5",
              "min7",
              "min6",
              "aug",
              "Maj6(9)",
              "Maj7(9)",
              "Maj(9)",
              "Maj7#11",
              "Maj7",
              "Maj6"
            ],
            "autoStart": false,
            "sourceChordNote": 0,
            "sourceChordType": "Maj7",
            "ctb2Low": null,
            "ctb2Main": {
              "ntr": "ROOT_TRANSPOSITION",
              "ntt": "DORIAN_5",
              "bassOn": false,
              "chordRootUpperLimit": 4,
              "noteLowLimit": 54,
              "noteHighLimit": 127,
              "rtr": "PITCH_SHIFT"
            },
            "ctb2High": null
          },
          "notes": [
            {
              "pitch": 64,
              "velocity": 100,
              "position": 0,
              "duration": 3.65625
            },
            {
              "pitch": 67,
              "velocity": 100,
              "position": 0.010416666666666666,
              "duration": 3.6458333333333335
            },
            {
              "pitch": 72,
              "velocity": 100,
              "position": 0.010416666666666666,
              "duration": 3.6458333333333335
            },
            {
              "pitch": 58,
              "velocity": 100,
              "position": 0,
              "duration": 3.6666666666666665
            }
          ]
        },
        "3": {
          "ctab": {
            "srcChannel": 3,
            "name": "PnoRH S",
            "accType": "CHORD2",
            "editable": false,
            "mutedNotes": [],
            "mutedChords": [
              "1+2+5",
              "sus4",
              "1+5",
              "1+8",
              "7aug",
              "Maj7aug",
              "7(#9)",
              "7(b13)",
              "7(b9)",
              "7(13)",
              "7#11",
              "7(9)",
              "7b5",
              "7sus4",
              "7th",
              "dim7",
              "dim",
              "minMaj7(9)",
              "minMaj7",
              "min7(11)",
              "min7(9)",
              "min(9)",
              "m7b5",
              "min7",
              "min6",
              "aug",
              "Maj6(9)",
              "Maj7(9)",
              "Maj(9)",
              "Maj7#11",
              "Maj7",
              "Maj6"
            ],
            "autoStart": false,
            "sourceChordNote": 0,
            "sourceChordType": "Maj7",
            "ctb2Low": null,
            "ctb2Main": {
              "ntr": "ROOT_TRANSPOSITION",
              "ntt": "DORIAN_5",
              "bassOn": false,
              "chordRootUpperLimit": 11,
              "noteLowLimit": 58,
              "noteHighLimit": 79,
              "rtr": "PITCH_SHIFT"
            },
            "ctb2High": null
          },
          "notes": [
            {
              "pitch": 64,
              "velocity": 76,
              "position": 0,
              "duration": 3.6666666666666665
            },
            {
              "pitch": 67,
              "velocity": 66,
              "position": 0,
              "duration": 3.6666666666666665
            },
            {
              "pitch": 70,
              "velocity": 83,
              "position": 0,
              "duration": 3.6666666666666665
            },
            {
              "pitch": 72,
              "velocity": 83,
              "position": 0,
              "duration": 3.6666666666666665
            }
          ]
        },
        "4": {
          "ctab": {
            "srcChannel": 4,
            "name": "Org S",
            "accType": "PAD",
            "editable": false,
            "mutedNotes": [],
            "mutedChords": [
              "1+2+5",
              "sus4",
              "1+5",
              "1+8",
              "7aug",
              "Maj7aug",
              "7(#9)",
              "7(b13)",
              "7(b9)",
              "7(13)",
              "7#11",
              "7(9)",
              "7b5",
              "7sus4",
              "7th",
              "dim7",
              "dim",
              "minMaj7(9)",
              "minMaj7",
              "min7(11)",
              "min7(9)",
              "min(9)",
              "m7b5",
              "min7",
              "min6",
              "aug",
              "Maj6(9)",
              "Maj7(9)",
              "Maj(9)",
              "Maj7#11",
              "Maj7",
              "Maj6"
            ],
            "autoStart": false,
            "sourceChordNote": 0,
            "sourceChordType": "Maj7",
            "ctb2Low": null,
            "ctb2Main": {
              "ntr": "ROOT_TRANSPOSITION",
              "ntt": "DORIAN_5",
              "bassOn": false,
              "chordRootUpperLimit": 5,
              "noteLowLimit": 58,
              "noteHighLimit": 79,
              "rtr": "PITCH_SHIFT"
            },
            "ctb2High": null
          },
          "notes": [
            {
              "pitch": 55,
              "velocity": 100,
              "position": 0,
              "duration": 3.6666666666666665
            },
            {
              "pitch": 58,
              "velocity": 100,
              "position": 0,
              "duration": 3.6666666666666665
            },
            {
              "pitch": 60,
              "velocity": 100,
              "position": 0,
              "duration": 3.6666666666666665
            },
            {
              "pitch": 64,
              "velocity": 100,
              "position": 0,
              "duration": 3.6666666666666665
            }
          ]
        },
        "5": {
          "ctab": {
            "srcChannel": 5,
            "name": "ClGtSMaj",
            "accType": "PHRASE1",
            "editable": false,
            "mutedNotes": [],
            "mutedChords": [
              "1+2+5",
              "sus4",
              "1+5",
              "1+8",
              "7aug",
              "Maj7aug",
              "7(#9)",
              "7(b13)",
              "7(b9)",
              "7(13)",
              "7#11",
              "7(9)",
              "7b5",
              "7sus4",
              "7th",
              "dim7",
              "dim",
              "minMaj7(9)",
              "minMaj7",
              "min7(11)",
              "min7(9)",
              "min(9)",
              "m7b5",
              "min7",
              "min6",
              "min",
              "aug",
              "Maj6(9)",
              "Maj7(9)",
              "Maj(9)",
              "Maj7#11",
              "Maj7",
              "Maj6"
            ],
            "autoStart": false,
            "sourceChordNote": 0,
            "sourceChordType": "Maj7",
            "ctb2Low": null,
            "ctb2Main": {
              "ntr": "ROOT_TRANSPOSITION",
              "ntt": "DORIAN_5",
              "bassOn": false,
              "chordRootUpperLimit": 4,
              "noteLowLimit": 0,
              "noteHighLimit": 127,
              "rtr": "PITCH_SHIFT"
            },
            "ctb2High": null
          },
          "notes": [
            {
              "pitch": 67,
              "velocity": 26,
              "position": 0,
              "duration": 3.65625
            },
            {
              "pitch": 60,
              "velocity": 116,
              "position": 0,
              "duration": 3.6666666666666665
            }
          ]
        },
        "6": {
          "ctab": {
            "srcChannel": 6,
            "name": "EP S",
            "accType": "PHRASE2",
            "editable": false,
            "mutedNotes": [],
            "mutedChords": [
              "1+2+5",
              "sus4",
              "1+5",
              "1+8",
              "7aug",
              "Maj7aug",
              "7(#9)",
              "7(b13)",
              "7(b9)",
              "7(13)",
              "7#11",
              "7(9)",
              "7b5",
              "7sus4",
              "7th",
              "dim7",
              "dim",
              "minMaj7(9)",
              "minMaj7",
              "min7(11)",
              "min7(9)",
              "min(9)",
              "m7b5",
              "min7",
              "min6",
              "aug",
              "Maj6(9)",
              "Maj7(9)",
              "Maj(9)",
              "Maj7#11",
              "Maj7",
              "Maj6"
            ],
            "autoStart": false,
            "sourceChordNote": 0,
            "sourceChordType": "Maj7",
            "ctb2Low": null,
            "ctb2Main": {
              "ntr": "ROOT_TRANSPOSITION",
              "ntt": "DORIAN_5",
              "bassOn": false,
              "chordRootUpperLimit": 4,
              "noteLowLimit": 0,
              "noteHighLimit": 127,
              "rtr": "PITCH_SHIFT"
            },
            "ctb2High": null
          },
          "notes": [
            {
              "pitch": 60,
              "velocity": 83,
              "position": 0,
              "duration": 3.6666666666666665
            },
            {
              "pitch": 64,
              "velocity": 83,
              "position": 0,
              "duration": 3.6666666666666665
            },
            {
              "pitch": 67,
              "velocity": 83,
              "position": 0,
              "duration": 3.6666666666666665
            }
          ]
        },
        "7": {
          "ctab": {
            "srcChannel": 7,
            "name": "ClGtSmin",
            "accType": "PHRASE1",
            "editable": false,
            "mutedNotes": [],
            "mutedChords": [
              "1+2+5",
              "sus4",
              "1+5",
              "1+8",
              "7aug",
              "Maj7aug",
              "7(#9)",
              "7(b13)",
              "7(b9)",
              "7(13)",
              "7#11",
              "7(9)",
              "7b5",
              "7sus4",
              "7th",
              "dim7",
              "dim",
              "minMaj7(9)",
              "minMaj7",
              "min7(11)",
              "min7(9)",
              "min(9)",
              "m7b5",
              "min7",
              "min6",
              "aug",
              "Maj6(9)",
              "Maj7(9)",
              "Maj(9)",
              "Maj7#11",
              "Maj7",
              "Maj6",
              "Maj"
            ],
            "autoStart": false,
            "sourceChordNote": 0,
            "sourceChordType": "Maj7",
            "ctb2Low": null,
            "ctb2Main": {
              "ntr": "ROOT_TRANSPOSITION",
              "ntt": "DORIAN_5",
              "bassOn": false,
              "chordRootUpperLimit": 4,
              "noteLowLimit": 0,
              "noteHighLimit": 127,
              "rtr": "PITCH_SHIFT"
            },
            "ctb2High": null
          },
          "notes": [
            {
              "pitch": 67,
              "velocity": 26,
              "position": 0,
              "duration": 3.65625
            },
            {
              "pitch": 60,
              "velocity": 116,
              "position": 0,
              "duration": 3.6666666666666665
            }
          ]
        },
        "8": {
          "ctab": {
            "srcChannel": 8,
            "name": "Perc",
            "accType": "SUBRHYTHM",
            "editable": false,
            "mutedNotes": [],
            "mutedChords": [],
            "autoStart": true,
            "sourceChordNote": 0,
            "sourceChordType": "Maj7",
            "ctb2Low": null,
            "ctb2Main": {
              "ntr": "ROOT_FIXED",
              "ntt": "BYPASS",
              "bassOn": false,
              "chordRootUpperLimit": 6,
              "noteLowLimit": 0,
              "noteHighLimit": 127,
              "rtr": "PITCH_SHIFT"
            },
            "ctb2High": null
          },
          "notes": [
            {
              "pitch": 54,
              "velocity": 59,
              "position": 0,
              "duration": 0.010416666666666666
            }
          ]
        },
        "9": {
          "ctab": {
            "srcChannel": 9,
            "name": "Drs",
            "accType": "RHYTHM",
            "editable": false,
            "mutedNotes": [],
            "mutedChords": [],
            "autoStart": true,
            "sourceChordNote": 0,
            "sourceChordType": "Maj7",
            "ctb2Low": null,
            "ctb2Main": {
              "ntr": "ROOT_FIXED",
              "ntt": "BYPASS",
              "bassOn": false,
              "chordRootUpperLimit": 6,
              "noteLowLimit": 0,
              "noteHighLimit": 127,
              "rtr": "PITCH_SHIFT"
            },
            "ctb2High": null
          },
          "notes": [
            {
              "pitch": 36,
              "velocity": 90,
              "position": 0,
              "duration": 0.010416666666666666
            }
          ]
        },
        "10": {
          "ctab": {
            "srcChannel": 10,
            "name": "BassMain",
            "accType": "BASS",
            "editable": false,
            "mutedNotes": [],
            "mutedChords": [
              "7aug",
              "dim",
              "minMaj7(9)",
              "minMaj7",
              "min(9)",
              "m7b5",
              "min",
              "aug"
            ],
            "autoStart": false,
            "sourceChordNote": 0,
            "sourceChordType": "Maj7",
            "ctb2Low": null,
            "ctb2Main": {
              "ntr": "ROOT_TRANSPOSITION",
              "ntt": "MELODY",
              "bassOn": true,
              "chordRootUpperLimit": 8,
              "noteLowLimit": 28,
              "noteHighLimit": 127,
              "rtr": "PITCH_SHIFT_TO_ROOT"
            },
            "ctb2High": null
          },
          "notes": [
            {
              "pitch": 24,
              "velocity": 100,
              "position": 0,
              "duration": 3.6666666666666665
            }
          ]
        },
        "11": {
          "ctab": {
            "srcChannel": 11,
            "name": "60cCln",
            "accType": "CHORD1",
            "editable": false,
            "mutedNotes": [],
            "mutedChords": [
              "min",
              "Maj"
            ],
            "autoStart": false,
            "sourceChordNote": 0,
            "sourceChordType": "Maj7",
            "ctb2Low": null,
            "ctb2Main": {
              "ntr": "ROOT_FIXED",
              "ntt": "CHORD",
              "bassOn": false,
              "chordRootUpperLimit": 7,
              "noteLowLimit": 0,
              "noteHighLimit": 127,
              "rtr": "PITCH_SHIFT"
            },
            "ctb2High": null
          },
          "notes": [
            {
              "pitch": 59,
              "velocity": 100,
              "position": 0,
              "duration": 3.65625
            },
            {
              "pitch": 64,
              "velocity": 100,
              "position": 0.010416666666666666,
              "duration": 3.6458333333333335
            },
            {
              "pitch": 55,
              "velocity": 100,
              "position": 0,
              "duration": 3.6666666666666665
            }
          ]
        },
        "12": {
          "ctab": {
            "srcChannel": 12,
            "name": "Pno RH",
            "accType": "CHORD2",
            "editable": false,
            "mutedNotes": [],
            "mutedChords": [
              "min",
              "Maj"
            ],
            "autoStart": false,
            "sourceChordNote": 0,
            "sourceChordType": "Maj7",
            "ctb2Low": null,
            "ctb2Main": {
              "ntr": "ROOT_FIXED",
              "ntt": "CHORD",
              "bassOn": false,
              "chordRootUpperLimit": 7,
              "noteLowLimit": 0,
              "noteHighLimit": 79,
              "rtr": "PITCH_SHIFT"
            },
            "ctb2High": null
          },
          "notes": [
            {
              "pitch": 55,
              "velocity": 80,
              "position": 0,
              "duration": 3.6666666666666665
            },
            {
              "pitch": 59,
              "velocity": 80,
              "position": 0,
              "duration": 3.6666666666666665
            },
            {
              "pitch": 64,
              "velocity": 80,
              "position": 0,
              "duration": 3.6666666666666665
            }
          ]
        },
        "13": {
          "ctab": {
            "srcChannel": 13,
            "name": "Org",
            "accType": "PAD",
            "editable": false,
            "mutedNotes": [],
            "mutedChords": [
              "min",
              "Maj"
            ],
            "autoStart": false,
            "sourceChordNote": 0,
            "sourceChordType": "Maj7",
            "ctb2Low": null,
            "ctb2Main": {
              "ntr": "ROOT_FIXED",
              "ntt": "CHORD",
              "bassOn": false,
              "chordRootUpperLimit": 7,
              "noteLowLimit": 0,
              "noteHighLimit": 127,
              "rtr": "PITCH_SHIFT"
            },
            "ctb2High": null
          },
          "notes": [
            {
              "pitch": 55,
              "velocity": 100,
              "position": 0,
              "duration": 3.6666666666666665
            },
            {
              "pitch": 59,
              "velocity": 100,
              "position": 0,
              "duration": 3.6666666666666665
            },
            {
              "pitch": 64,
              "velocity": 100,
              "position": 0,
              "duration": 3.6666666666666665
            }
          ]
        },
        "14": {
          "ctab": {
            "srcChannel": 14,
            "name": "ClGt",
            "accType": "PHRASE1",
            "editable": false,
            "mutedNotes": [],
            "mutedChords": [
              "min",
              "Maj"
            ],
            "autoStart": false,
            "sourceChordNote": 0,
            "sourceChordType": "Maj7",
            "ctb2Low": null,
            "ctb2Main": {
              "ntr": "ROOT_TRANSPOSITION",
              "ntt": "MELODY",
              "bassOn": false,
              "chordRootUpperLimit": 4,
              "noteLowLimit": 0,
              "noteHighLimit": 127,
              "rtr": "PITCH_SHIFT"
            },
            "ctb2High": null
          },
          "notes": [
            {
              "pitch": 64,
              "velocity": 116,
              "position": 0,
              "duration": 3.6666666666666665
            }
          ]
        },
        "15": {
          "ctab": {
            "srcChannel": 15,
            "name": "EP",
            "accType": "PHRASE2",
            "editable": false,
            "mutedNotes": [],
            "mutedChords": [
              "min",
              "Maj"
            ],
            "autoStart": false,
            "sourceChordNote": 0,
            "sourceChordType": "Maj7",
            "ctb2Low": null,
            "ctb2Main": {
              "ntr": "ROOT_FIXED",
              "ntt": "CHORD",
              "bassOn": false,
              "chordRootUpperLimit": 7,
              "noteLowLimit": 0,
              "noteHighLimit": 127,
              "rtr": "PITCH_SHIFT"
            },
            "ctb2High": null
          },
          "notes": [
            {
              "pitch": 55,
              "velocity": 77,
              "position": 0,
              "duration": 3.6666666666666665
            },
            {
              "pitch": 59,
              "velocity": 77,
              "position": 0,
              "duration": 3.6666666666666665
            },
            {
              "pitch": 64,
              "velocity": 77,
              "position": 0,
              "duration": 3.6666666666666665
            }
          ]
        }
      }
    },
    "Fill_In_BA": {
      "type": "Fill_In_BA",
      "sizeInBeats": 4,
      "channels": {
        "0": {
          "ctab": {
            "srcChannel": 0,
            "name": "Pno LH",
            "accType": "CHORD2",
            "editable": false,
            "mutedNotes": [],
            "mutedChords": [],
            "autoStart": false,
            "sourceChordNote": 0,
            "sourceChordType": "Maj7",
            "ctb2Low": null,
            "ctb2Main": {
              "ntr": "ROOT_TRANSPOSITION",
              "ntt": "MELODY",
              "bassOn": true,
              "chordRootUpperLimit": 8,
              "noteLowLimit": 0,
              "noteHighLimit": 127,
              "rtr": "PITCH_SHIFT_TO_ROOT"
            },
            "ctb2High": null
          },
          "notes": [
            {
              "pitch": 36,
              "velocity": 100,
              "position": 0,
              "duration": 0.3229166666666667
            },
            {
              "pitch": 36,
              "velocity": 40,
              "position": 0.3333333333333333,
              "duration": 0.3229166666666667
            },
            {
              "pitch": 36,
              "velocity": 70,
              "position": 0.6666666666666666,
              "duration": 0.3229166666666667
            },
            {
              "pitch": 36,
              "velocity": 100,
              "position": 1,
              "duration": 0.3229166666666667
            }
          ]
        },
        "1": {
          "ctab": {
            "srcChannel": 1,
            "name": "BassAlt",
            "accType": "BASS",
            "editable": false,
            "mutedNotes": [],
            "mutedChords": [
              "1+2+5",
              "sus4",
              "1+5",
              "1+8",
              "Maj7aug",
              "7(#9)",
              "7(b13)",
              "7(b9)",
              "7(13)",
              "7#11",
              "7(9)",
              "7b5",
              "7sus4",
              "7th",
              "dim7",
              "min7(11)",
              "min7(9)",
              "min7",
              "min6",
              "Maj6(9)",
              "Maj7(9)",
              "Maj(9)",
              "Maj7#11",
              "Maj7",
              "Maj6",
              "Maj"
            ],
            "autoStart": false,
            "sourceChordNote": 0,
            "sourceChordType": "Maj7",
            "ctb2Low": null,
            "ctb2Main": {
              "ntr": "ROOT_TRANSPOSITION",
              "ntt": "MELODY",
              "bassOn": true,
              "chordRootUpperLimit": 8,
              "noteLowLimit": 28,
              "noteHighLimit": 127,
              "rtr": "PITCH_SHIFT_TO_ROOT"
            },
            "ctb2High": null
          },
          "notes": [
            {
              "pitch": 24,
              "velocity": 100,
              "position": 0,
              "duration": 0.3229166666666667
            },
            {
              "pitch": 24,
              "velocity": 89,
              "position": 0.3333333333333333,
              "duration": 0.3229166666666667
            },
            {
              "pitch": 24,
              "velocity": 89,
              "position": 0.6666666666666666,
              "duration": 0.3229166666666667
            },
            {
              "pitch": 24,
              "velocity": 100,
              "position": 1,
              "duration": 0.3229166666666667
            }
          ]
        },
        "2": {
          "ctab": {
            "srcChannel": 2,
            "name": "60cCln S",
            "accType": "CHORD1",
            "editable": false,
            "mutedNotes": [],
            "mutedChords": [
              "1+2+5",
              "sus4",
              "1+5",
              "1+8",
              "7aug",
              "Maj7aug",
              "7(#9)",
              "7(b13)",
              "7(b9)",
              "7(13)",
              "7#11",
              "7(9)",
              "7b5",
              "7sus4",
              "7th",
              "dim7",
              "dim",
              "minMaj7(9)",
              "minMaj7",
              "min7(11)",
              "min7(9)",
              "min(9)",
              "m7b5",
              "min7",
              "min6",
              "aug",
              "Maj6(9)",
              "Maj7(9)",
              "Maj(9)",
              "Maj7#11",
              "Maj7",
              "Maj6"
            ],
            "autoStart": false,
            "sourceChordNote": 0,
            "sourceChordType": "Maj7",
            "ctb2Low": null,
            "ctb2Main": {
              "ntr": "ROOT_TRANSPOSITION",
              "ntt": "DORIAN_5",
              "bassOn": false,
              "chordRootUpperLimit": 4,
              "noteLowLimit": 54,
              "noteHighLimit": 127,
              "rtr": "PITCH_SHIFT"
            },
            "ctb2High": null
          },
          "notes": [
            {
              "pitch": 58,
              "velocity": 80,
              "position": 0,
              "duration": 0.3229166666666667
            },
            {
              "pitch": 64,
              "velocity": 80,
              "position": 0,
              "duration": 0.32916666666666666
            },
            {
              "pitch": 67,
              "velocity": 80,
              "position": 0.010416666666666666,
              "duration": 0.3229166666666667
            },
            {
              "pitch": 72,
              "velocity": 80,
              "position": 0.020833333333333332,
              "duration": 0.3229166666666667
            },
            {
              "pitch": 58,
              "velocity": 40,
              "position": 0.3333333333333333,
              "duration": 0.3229166666666667
            },
            {
              "pitch": 64,
              "velocity": 40,
              "position": 0.3333333333333333,
              "duration": 0.32916666666666666
            },
            {
              "pitch": 67,
              "velocity": 40,
              "position": 0.34375,
              "duration": 0.3229166666666667
            },
            {
              "pitch": 72,
              "velocity": 40,
              "position": 0.3541666666666667,
              "duration": 0.3229166666666667
            },
            {
              "pitch": 58,
              "velocity": 60,
              "position": 0.6666666666666666,
              "duration": 0.3229166666666667
            },
            {
              "pitch": 64,
              "velocity": 60,
              "position": 0.6666666666666666,
              "duration": 0.32916666666666666
            },
            {
              "pitch": 67,
              "velocity": 60,
              "position": 0.6770833333333334,
              "duration": 0.3229166666666667
            },
            {
              "pitch": 72,
              "velocity": 60,
              "position": 0.6875,
              "duration": 0.3229166666666667
            },
            {
              "pitch": 58,
              "velocity": 100,
              "position": 1,
              "duration": 0.08333333333333333
            },
            {
              "pitch": 64,
              "velocity": 100,
              "position": 1,
              "duration": 0.08333333333333333
            },
            {
              "pitch": 67,
              "velocity": 100,
              "position": 1.0104166666666667,
              "duration": 0.08333333333333333
            },
            {
              "pitch": 72,
              "velocity": 100,
              "position": 1.0208333333333333,
              "duration": 0.08333333333333333
            }
          ]
        },
        "3": {
          "ctab": {
            "srcChannel": 3,
            "name": "PnoRH S",
            "accType": "CHORD2",
            "editable": false,
            "mutedNotes": [],
            "mutedChords": [
              "1+2+5",
              "sus4",
              "1+5",
              "1+8",
              "7aug",
              "Maj7aug",
              "7(#9)",
              "7(b13)",
              "7(b9)",
              "7(13)",
              "7#11",
              "7(9)",
              "7b5",
              "7sus4",
              "7th",
              "dim7",
              "dim",
              "minMaj7(9)",
              "minMaj7",
              "min7(11)",
              "min7(9)",
              "min(9)",
              "m7b5",
              "min7",
              "min6",
              "aug",
              "Maj6(9)",
              "Maj7(9)",
              "Maj(9)",
              "Maj7#11",
              "Maj7",
              "Maj6"
            ],
            "autoStart": false,
            "sourceChordNote": 0,
            "sourceChordType": "Maj7",
            "ctb2Low": null,
            "ctb2Main": {
              "ntr": "ROOT_TRANSPOSITION",
              "ntt": "DORIAN_5",
              "bassOn": false,
              "chordRootUpperLimit": 11,
              "noteLowLimit": 58,
              "noteHighLimit": 79,
              "rtr": "PITCH_SHIFT"
            },
            "ctb2High": null
          },
          "notes": [
            {
              "pitch": 46,
              "velocity": 71,
              "position": 0,
              "duration": 0.3229166666666667
            },
            {
              "pitch": 48,
              "velocity": 71,
              "position": 0,
              "duration": 0.3229166666666667
            },
            {
              "pitch": 52,
              "velocity": 62,
              "position": 0,
              "duration": 0.3229166666666667
            },
            {
              "pitch": 55,
              "velocity": 63,
              "position": 0,
              "duration": 0.3229166666666667
            },
            {
              "pitch": 46,
              "velocity": 35,
              "position": 0.3333333333333333,
              "duration": 0.3229166666666667
            },
            {
              "pitch": 48,
              "velocity": 35,
              "position": 0.3333333333333333,
              "duration": 0.3229166666666667
            },
            {
              "pitch": 52,
              "velocity": 46,
              "position": 0.3333333333333333,
              "duration": 0.3229166666666667
            },
            {
              "pitch": 55,
              "velocity": 49,
              "position": 0.3333333333333333,
              "duration": 0.3229166666666667
            },
            {
              "pitch": 48,
              "velocity": 66,
              "position": 0.6666666666666666,
              "duration": 0.3229166666666667
            },
            {
              "pitch": 53,
              "velocity": 58,
              "position": 0.6666666666666666,
              "duration": 0.3229166666666667
            },
            {
              "pitch": 57,
              "velocity": 58,
              "position": 0.6666666666666666,
              "duration": 0.3229166666666667
            },
            {
              "pitch": 46,
              "velocity": 82,
              "position": 1,
              "duration": 0.3229166666666667
            },
            {
              "pitch": 48,
              "velocity": 82,
              "position": 1,
              "duration": 0.3229166666666667
            },
            {
              "pitch": 52,
              "velocity": 75,
              "position": 1,
              "duration": 0.3229166666666667
            },
            {
              "pitch": 55,
              "velocity": 65,
              "position": 1,
              "duration": 0.3229166666666667
            }
          ]
        },
        "4": {
          "ctab": {
            "srcChannel": 4,
            "name": "Org S",
            "accType": "PAD",
            "editable": false,
            "mutedNotes": [],
            "mutedChords": [
              "1+2+5",
              "sus4",
              "1+5",
              "1+8",
              "7aug",
              "Maj7aug",
              "7(#9)",
              "7(b13)",
              "7(b9)",
              "7(13)",
              "7#11",
              "7(9)",
              "7b5",
              "7sus4",
              "7th",
              "dim7",
              "dim",
              "minMaj7(9)",
              "minMaj7",
              "min7(11)",
              "min7(9)",
              "min(9)",
              "m7b5",
              "min7",
              "min6",
              "aug",
              "Maj6(9)",
              "Maj7(9)",
              "Maj(9)",
              "Maj7#11",
              "Maj7",
              "Maj6"
            ],
            "autoStart": false,
            "sourceChordNote": 0,
            "sourceChordType": "Maj7",
            "ctb2Low": null,
            "ctb2Main": {
              "ntr": "ROOT_TRANSPOSITION",
              "ntt": "DORIAN_5",
              "bassOn": false,
              "chordRootUpperLimit": 5,
              "noteLowLimit": 58,
              "noteHighLimit": 79,
              "rtr": "PITCH_SHIFT"
            },
            "ctb2High": null
          },
          "notes": [
            {
              "pitch": 55,
              "velocity": 100,
              "position": 0,
              "duration": 1.3229166666666667
            },
            {
              "pitch": 58,
              "velocity": 100,
              "position": 0,
              "duration": 1.3229166666666667
            },
            {
              "pitch": 60,
              "velocity": 100,
              "position": 0,
              "duration": 1.3229166666666667
            },
            {
              "pitch": 64,
              "velocity": 100,
              "position": 0,
              "duration": 1.3229166666666667
            }
          ]
        },
        "5": {
          "ctab": {
            "srcChannel": 5,
            "name": "ClGtSMaj",
            "accType": "PHRASE1",
            "editable": false,
            "mutedNotes": [],
            "mutedChords": [
              "1+2+5",
              "sus4",
              "1+5",
              "1+8",
              "7aug",
              "Maj7aug",
              "7(#9)",
              "7(b13)",
              "7(b9)",
              "7(13)",
              "7#11",
              "7(9)",
              "7b5",
              "7sus4",
              "7th",
              "dim7",
              "dim",
              "minMaj7(9)",
              "minMaj7",
              "min7(11)",
              "min7(9)",
              "min(9)",
              "m7b5",
              "min7",
              "min6",
              "min",
              "aug",
              "Maj6(9)",
              "Maj7(9)",
              "Maj(9)",
              "Maj7#11",
              "Maj7",
              "Maj6"
            ],
            "autoStart": false,
            "sourceChordNote": 0,
            "sourceChordType": "Maj7",
            "ctb2Low": null,
            "ctb2Main": {
              "ntr": "ROOT_TRANSPOSITION",
              "ntt": "DORIAN_5",
              "bassOn": false,
              "chordRootUpperLimit": 4,
              "noteLowLimit": 0,
              "noteHighLimit": 127,
              "rtr": "PITCH_SHIFT"
            },
            "ctb2High": null
          },
          "notes": [
            {
              "pitch": 64,
              "velocity": 116,
              "position": 0,
              "duration": 0.3229166666666667
            },
            {
              "pitch": 65,
              "velocity": 36,
              "position": 0.3333333333333333,
              "duration": 0.3229166666666667
            },
            {
              "pitch": 72,
              "velocity": 36,
              "position": 0.3333333333333333,
              "duration": 0.3229166666666667
            },
            {
              "pitch": 65,
              "velocity": 16,
              "position": 0.6666666666666666,
              "duration": 0.3229166666666667
            },
            {
              "pitch": 72,
              "velocity": 16,
              "position": 0.6666666666666666,
              "duration": 0.3229166666666667
            },
            {
              "pitch": 72,
              "velocity": 36,
              "position": 1,
              "duration": 0.28125
            },
            {
              "pitch": 64,
              "velocity": 116,
              "position": 1,
              "duration": 0.3229166666666667
            }
          ]
        },
        "6": {
          "ctab": {
            "srcChannel": 6,
            "name": "EP S",
            "accType": "PHRASE2",
            "editable": false,
            "mutedNotes": [],
            "mutedChords": [
              "1+2+5",
              "sus4",
              "1+5",
              "1+8",
              "7aug",
              "Maj7aug",
              "7(#9)",
              "7(b13)",
              "7(b9)",
              "7(13)",
              "7#11",
              "7(9)",
              "7b5",
              "7sus4",
              "7th",
              "dim7",
              "dim",
              "minMaj7(9)",
              "minMaj7",
              "min7(11)",
              "min7(9)",
              "min(9)",
              "m7b5",
              "min7",
              "min6",
              "aug",
              "Maj6(9)",
              "Maj7(9)",
              "Maj(9)",
              "Maj7#11",
              "Maj7",
              "Maj6"
            ],
            "autoStart": false,
            "sourceChordNote": 0,
            "sourceChordType": "Maj7",
            "ctb2Low": null,
            "ctb2Main": {
              "ntr": "ROOT_TRANSPOSITION",
              "ntt": "DORIAN_5",
              "bassOn": false,
              "chordRootUpperLimit": 4,
              "noteLowLimit": 0,
              "noteHighLimit": 127,
              "rtr": "PITCH_SHIFT"
            },
            "ctb2High": null
          },
          "notes": [
            {
              "pitch": 60,
              "velocity": 53,
              "position": 0,
              "duration": 0.5479166666666667
            },
            {
              "pitch": 64,
              "velocity": 53,
              "position": 0,
              "duration": 0.65625
            },
            {
              "pitch": 67,
              "velocity": 48,
              "position": 0,
              "duration": 0.65625
            },
            {
              "pitch": 60,
              "velocity": 55,
              "position": 0.5520833333333334,
              "duration": 0.3229166666666667
            },
            {
              "pitch": 65,
              "velocity": 79,
              "position": 0.6666666666666666,
              "duration": 0.3229166666666667
            },
            {
              "pitch": 69,
              "velocity": 76,
              "position": 0.6666666666666666,
              "duration": 0.3229166666666667
            },
            {
              "pitch": 66,
              "velocity": 92,
              "position": 1,
              "duration": 0.010416666666666666
            },
            {
              "pitch": 60,
              "velocity": 59,
              "position": 0.8854166666666666,
              "duration": 0.4375
            },
            {
              "pitch": 67,
              "velocity": 95,
              "position": 1.0208333333333333,
              "duration": 0.3020833333333333
            },
            {
              "pitch": 70,
              "velocity": 107,
              "position": 1,
              "duration": 0.3229166666666667
            }
          ]
        },
        "7": {
          "ctab": {
            "srcChannel": 7,
            "name": "ClGtSmin",
            "accType": "PHRASE1",
            "editable": false,
            "mutedNotes": [],
            "mutedChords": [
              "1+2+5",
              "sus4",
              "1+5",
              "1+8",
              "7aug",
              "Maj7aug",
              "7(#9)",
              "7(b13)",
              "7(b9)",
              "7(13)",
              "7#11",
              "7(9)",
              "7b5",
              "7sus4",
              "7th",
              "dim7",
              "dim",
              "minMaj7(9)",
              "minMaj7",
              "min7(11)",
              "min7(9)",
              "min(9)",
              "m7b5",
              "min7",
              "min6",
              "aug",
              "Maj6(9)",
              "Maj7(9)",
              "Maj(9)",
              "Maj7#11",
              "Maj7",
              "Maj6",
              "Maj"
            ],
            "autoStart": false,
            "sourceChordNote": 0,
            "sourceChordType": "Maj7",
            "ctb2Low": null,
            "ctb2Main": {
              "ntr": "ROOT_TRANSPOSITION",
              "ntt": "DORIAN_5",
              "bassOn": false,
              "chordRootUpperLimit": 4,
              "noteLowLimit": 0,
              "noteHighLimit": 127,
              "rtr": "PITCH_SHIFT"
            },
            "ctb2High": null
          },
          "notes": [
            {
              "pitch": 64,
              "velocity": 116,
              "position": 0,
              "duration": 0.3229166666666667
            },
            {
              "pitch": 65,
              "velocity": 36,
              "position": 0.3333333333333333,
              "duration": 0.3229166666666667
            },
            {
              "pitch": 72,
              "velocity": 36,
              "position": 0.3333333333333333,
              "duration": 0.3229166666666667
            },
            {
              "pitch": 65,
              "velocity": 16,
              "position": 0.6666666666666666,
              "duration": 0.3229166666666667
            },
            {
              "pitch": 72,
              "velocity": 16,
              "position": 0.6666666666666666,
              "duration": 0.3229166666666667
            },
            {
              "pitch": 72,
              "velocity": 36,
              "position": 1,
              "duration": 0.28125
            },
            {
              "pitch": 64,
              "velocity": 116,
              "position": 1,
              "duration": 0.3229166666666667
            }
          ]
        },
        "8": {
          "ctab": {
            "srcChannel": 8,
            "name": "Perc",
            "accType": "SUBRHYTHM",
            "editable": false,
            "mutedNotes": [],
            "mutedChords": [],
            "autoStart": true,
            "sourceChordNote": 0,
            "sourceChordType": "Maj7",
            "ctb2Low": null,
            "ctb2Main": {
              "ntr": "ROOT_FIXED",
              "ntt": "BYPASS",
              "bassOn": false,
              "chordRootUpperLimit": 6,
              "noteLowLimit": 0,
              "noteHighLimit": 127,
              "rtr": "PITCH_SHIFT"
            },
            "ctb2High": null
          },
          "notes": [
            {
              "pitch": 54,
              "velocity": 36,
              "position": 0,
              "duration": 0.010416666666666666
            },
            {
              "pitch": 54,
              "velocity": 9,
              "position": 0.21875,
              "duration": 0.010416666666666666
            },
            {
              "pitch": 54,
              "velocity": 25,
              "position": 0.3333333333333333,
              "duration": 0.010416666666666666
            },
            {
              "pitch": 54,
              "velocity": 24,
              "position": 0.5520833333333334,
              "duration": 0.010416666666666666
            },
            {
              "pitch": 54,
              "velocity": 26,
              "position": 0.6666666666666666,
              "duration": 0.010416666666666666
            },
            {
              "pitch": 54,
              "velocity": 8,
              "position": 0.8854166666666666,
              "duration": 0.010416666666666666
            },
            {
              "pitch": 54,
              "velocity": 90,
              "position": 1,
              "duration": 0.010416666666666666
            }
          ]
        },
        "9": {
          "ctab": {
            "srcChannel": 9,
            "name": "Drs",
            "accType": "RHYTHM",
            "editable": false,
            "mutedNotes": [],
            "mutedChords": [],
            "autoStart": true,
            "sourceChordNote": 0,
            "sourceChordType": "Maj7",
            "ctb2Low": null,
            "ctb2Main": {
              "ntr": "ROOT_FIXED",
              "ntt": "BYPASS",
              "bassOn": false,
              "chordRootUpperLimit": 6,
              "noteLowLimit": 0,
              "noteHighLimit": 127,
              "rtr": "PITCH_SHIFT"
            },
            "ctb2High": null
          },
          "notes": [
            {
              "pitch": 36,
              "velocity": 90,
              "position": 0,
              "duration": 0.010416666666666666
            },
            {
              "pitch": 59,
              "velocity": 72,
              "position": 0,
              "duration": 0.010416666666666666
            },
            {
              "pitch": 40,
              "velocity": 80,
              "position": 0.21875,
              "duration": 0.010416666666666666
            },
            {
              "pitch": 44,
              "velocity": 40,
              "position": 0.3333333333333333,
              "duration": 0.010416666666666666
            },
            {
              "pitch": 40,
              "velocity": 15,
              "position": 0.4375,
              "duration": 0.010416666666666666
            },
            {
              "pitch": 36,
              "velocity": 50,
              "position": 0.5520833333333334,
              "duration": 0.010416666666666666
            },
            {
              "pitch": 44,
              "velocity": 60,
              "position": 0.6666666666666666,
              "duration": 0.010416666666666666
            },
            {
              "pitch": 40,
              "velocity": 20,
              "position": 0.7708333333333334,
              "duration": 0.010416666666666666
            },
            {
              "pitch": 36,
              "velocity": 50,
              "position": 0.8854166666666666,
              "duration": 0.010416666666666666
            },
            {
              "pitch": 36,
              "velocity": 90,
              "position": 1,
              "duration": 0.010416666666666666
            },
            {
              "pitch": 40,
              "velocity": 100,
              "position": 1,
              "duration": 0.010416666666666666
            },
            {
              "pitch": 46,
              "velocity": 80,
              "position": 1,
              "duration": 0.010416666666666666
            },
            {
              "pitch": 44,
              "velocity": 1,
              "position": 1.21875,
              "duration": 0.010416666666666666
            },
            {
              "pitch": 44,
              "velocity": 30,
              "position": 1.3333333333333333,
              "duration": 0.010416666666666666
            },
            {
              "pitch": 40,
              "velocity": 10,
              "position": 1.4375,
              "duration": 0.010416666666666666
            },
            {
              "pitch": 40,
              "velocity": 20,
              "position": 1.5520833333333333,
              "duration": 0.010416666666666666
            },
            {
              "pitch": 40,
              "velocity": 10,
              "position": 1.6041666666666667,
              "duration": 0.010416666666666666
            },
            {
              "pitch": 44,
              "velocity": 30,
              "position": 1.6666666666666667,
              "duration": 0.010416666666666666
            },
            {
              "pitch": 40,
              "velocity": 10,
              "position": 1.7708333333333333,
              "duration": 0.010416666666666666
            },
            {
              "pitch": 36,
              "velocity": 50,
              "position": 1.8854166666666667,
              "duration": 0.010416666666666666
            },
            {
              "pitch": 45,
              "velocity": 65,
              "position": 2,
              "duration": 0.010416666666666666
            },
            {
              "pitch": 47,
              "velocity": 80,
              "position": 2.0208333333333335,
              "duration": 0.010416666666666666
            },
            {
              "pitch": 40,
              "velocity": 10,
              "position": 2.1041666666666665,
              "duration": 0.010416666666666666
            },
            {
              "pitch": 40,
              "velocity": 20,
              "position": 2.21875,
              "duration": 0.010416666666666666
            },
            {
              "pitch": 40,
              "velocity": 10,
              "position": 2.2708333333333335,
              "duration": 0.010416666666666666
            },
            {
              "pitch": 44,
              "velocity": 30,
              "position": 2.3333333333333335,
              "duration": 0.010416666666666666
            },
            {
              "pitch": 40,
              "velocity": 10,
              "position": 2.4375,
              "duration": 0.010416666666666666
            },
            {
              "pitch": 45,
              "velocity": 71,
              "position": 2.5520833333333335,
              "duration": 0.010416666666666666
            },
            {
              "pitch": 44,
              "velocity": 30,
              "position": 2.6666666666666665,
              "duration": 0.010416666666666666
            },
            {
              "pitch": 40,
              "velocity": 10,
              "position": 2.7708333333333335,
              "duration": 0.010416666666666666
            },
            {
              "pitch": 36,
              "velocity": 30,
              "position": 2.8854166666666665,
              "duration": 0.010416666666666666
            },
            {
              "pitch": 43,
              "velocity": 90,
              "position": 3,
              "duration": 0.010416666666666666
            },
            {
              "pitch": 44,
              "velocity": 30,
              "position": 3,
              "duration": 0.010416666666666666
            },
            {
              "pitch": 40,
              "velocity": 10,
              "position": 3.1041666666666665,
              "duration": 0.010416666666666666
            },
            {
              "pitch": 36,
              "velocity": 67,
              "position": 3.21875,
              "duration": 0.010416666666666666
            },
            {
              "pitch": 44,
              "velocity": 30,
              "position": 3.3333333333333335,
              "duration": 0.010416666666666666
            },
            {
              "pitch": 40,
              "velocity": 19,
              "position": 3.4375,
              "duration": 0.010416666666666666
            },
            {
              "pitch": 40,
              "velocity": 80,
              "position": 3.5520833333333335,
              "duration": 0.010416666666666666
            },
            {
              "pitch": 40,
              "velocity": 100,
              "position": 3.6666666666666665,
              "duration": 0.010416666666666666
            },
            {
              "pitch": 44,
              "velocity": 30,
              "position": 3.6666666666666665,
              "duration": 0.010416666666666666
            },
            {
              "pitch": 49,
              "velocity": 60,
              "position": 3.9895833333333335,
              "duration": 0.010416666666666666
            }
          ]
        },
        "10": {
          "ctab": {
            "srcChannel": 10,
            "name": "BassMain",
            "accType": "BASS",
            "editable": false,
            "mutedNotes": [],
            "mutedChords": [
              "7aug",
              "dim",
              "minMaj7(9)",
              "minMaj7",
              "min(9)",
              "m7b5",
              "min",
              "aug"
            ],
            "autoStart": false,
            "sourceChordNote": 0,
            "sourceChordType": "Maj7",
            "ctb2Low": null,
            "ctb2Main": {
              "ntr": "ROOT_TRANSPOSITION",
              "ntt": "MELODY",
              "bassOn": true,
              "chordRootUpperLimit": 8,
              "noteLowLimit": 28,
              "noteHighLimit": 127,
              "rtr": "PITCH_SHIFT_TO_ROOT"
            },
            "ctb2High": null
          },
          "notes": [
            {
              "pitch": 24,
              "velocity": 100,
              "position": 0,
              "duration": 0.3229166666666667
            },
            {
              "pitch": 24,
              "velocity": 89,
              "position": 0.3333333333333333,
              "duration": 0.3229166666666667
            },
            {
              "pitch": 24,
              "velocity": 89,
              "position": 0.6666666666666666,
              "duration": 0.3229166666666667
            },
            {
              "pitch": 24,
              "velocity": 100,
              "position": 1,
              "duration": 0.3229166666666667
            }
          ]
        },
        "11": {
          "ctab": {
            "srcChannel": 11,
            "name": "60cCln",
            "accType": "CHORD1",
            "editable": false,
            "mutedNotes": [],
            "mutedChords": [
              "min",
              "Maj"
            ],
            "autoStart": false,
            "sourceChordNote": 0,
            "sourceChordType": "Maj7",
            "ctb2Low": null,
            "ctb2Main": {
              "ntr": "ROOT_FIXED",
              "ntt": "CHORD",
              "bassOn": false,
              "chordRootUpperLimit": 7,
              "noteLowLimit": 0,
              "noteHighLimit": 127,
              "rtr": "PITCH_SHIFT"
            },
            "ctb2High": null
          },
          "notes": [
            {
              "pitch": 59,
              "velocity": 80,
              "position": 0,
              "duration": 0.3229166666666667
            },
            {
              "pitch": 64,
              "velocity": 80,
              "position": 0,
              "duration": 0.32916666666666666
            },
            {
              "pitch": 67,
              "velocity": 80,
              "position": 0.010416666666666666,
              "duration": 0.3229166666666667
            },
            {
              "pitch": 59,
              "velocity": 40,
              "position": 0.3333333333333333,
              "duration": 0.3229166666666667
            },
            {
              "pitch": 64,
              "velocity": 40,
              "position": 0.3333333333333333,
              "duration": 0.32916666666666666
            },
            {
              "pitch": 67,
              "velocity": 40,
              "position": 0.34375,
              "duration": 0.3229166666666667
            },
            {
              "pitch": 59,
              "velocity": 60,
              "position": 0.6666666666666666,
              "duration": 0.3229166666666667
            },
            {
              "pitch": 64,
              "velocity": 60,
              "position": 0.6666666666666666,
              "duration": 0.32916666666666666
            },
            {
              "pitch": 67,
              "velocity": 60,
              "position": 0.6770833333333334,
              "duration": 0.3229166666666667
            },
            {
              "pitch": 59,
              "velocity": 100,
              "position": 1,
              "duration": 0.3020833333333333
            },
            {
              "pitch": 64,
              "velocity": 100,
              "position": 1,
              "duration": 0.3020833333333333
            },
            {
              "pitch": 67,
              "velocity": 100,
              "position": 1.0104166666666667,
              "duration": 0.3020833333333333
            }
          ]
        },
        "12": {
          "ctab": {
            "srcChannel": 12,
            "name": "Pno RH",
            "accType": "CHORD2",
            "editable": false,
            "mutedNotes": [],
            "mutedChords": [
              "min",
              "Maj"
            ],
            "autoStart": false,
            "sourceChordNote": 0,
            "sourceChordType": "Maj7",
            "ctb2Low": null,
            "ctb2Main": {
              "ntr": "ROOT_FIXED",
              "ntt": "CHORD",
              "bassOn": false,
              "chordRootUpperLimit": 7,
              "noteLowLimit": 0,
              "noteHighLimit": 79,
              "rtr": "PITCH_SHIFT"
            },
            "ctb2High": null
          },
          "notes": [
            {
              "pitch": 64,
              "velocity": 62,
              "position": 0,
              "duration": 0.3229166666666667
            },
            {
              "pitch": 67,
              "velocity": 63,
              "position": 0,
              "duration": 0.3229166666666667
            },
            {
              "pitch": 71,
              "velocity": 71,
              "position": 0,
              "duration": 0.3229166666666667
            },
            {
              "pitch": 64,
              "velocity": 46,
              "position": 0.3333333333333333,
              "duration": 0.3229166666666667
            },
            {
              "pitch": 67,
              "velocity": 49,
              "position": 0.3333333333333333,
              "duration": 0.3229166666666667
            },
            {
              "pitch": 71,
              "velocity": 35,
              "position": 0.3333333333333333,
              "duration": 0.3229166666666667
            },
            {
              "pitch": 64,
              "velocity": 58,
              "position": 0.6666666666666666,
              "duration": 0.3229166666666667
            },
            {
              "pitch": 67,
              "velocity": 58,
              "position": 0.6666666666666666,
              "duration": 0.3229166666666667
            },
            {
              "pitch": 71,
              "velocity": 66,
              "position": 0.6666666666666666,
              "duration": 0.3229166666666667
            },
            {
              "pitch": 64,
              "velocity": 75,
              "position": 1,
              "duration": 0.3229166666666667
            },
            {
              "pitch": 67,
              "velocity": 65,
              "position": 1,
              "duration": 0.3229166666666667
            },
            {
              "pitch": 71,
              "velocity": 82,
              "position": 1,
              "duration": 0.3229166666666667
            }
          ]
        },
        "13": {
          "ctab": {
            "srcChannel": 13,
            "name": "Org",
            "accType": "PAD",
            "editable": false,
            "mutedNotes": [],
            "mutedChords": [
              "min",
              "Maj"
            ],
            "autoStart": false,
            "sourceChordNote": 0,
            "sourceChordType": "Maj7",
            "ctb2Low": null,
            "ctb2Main": {
              "ntr": "ROOT_FIXED",
              "ntt": "CHORD",
              "bassOn": false,
              "chordRootUpperLimit": 7,
              "noteLowLimit": 0,
              "noteHighLimit": 127,
              "rtr": "PITCH_SHIFT"
            },
            "ctb2High": null
          },
          "notes": [
            {
              "pitch": 55,
              "velocity": 100,
              "position": 0,
              "duration": 1.3229166666666667
            },
            {
              "pitch": 59,
              "velocity": 100,
              "position": 0,
              "duration": 1.3229166666666667
            },
            {
              "pitch": 64,
              "velocity": 100,
              "position": 0,
              "duration": 1.3229166666666667
            }
          ]
        },
        "14": {
          "ctab": {
            "srcChannel": 14,
            "name": "ClGt",
            "accType": "PHRASE1",
            "editable": false,
            "mutedNotes": [],
            "mutedChords": [
              "min",
              "Maj"
            ],
            "autoStart": false,
            "sourceChordNote": 0,
            "sourceChordType": "Maj7",
            "ctb2Low": null,
            "ctb2Main": {
              "ntr": "ROOT_TRANSPOSITION",
              "ntt": "MELODY",
              "bassOn": false,
              "chordRootUpperLimit": 4,
              "noteLowLimit": 0,
              "noteHighLimit": 127,
              "rtr": "PITCH_SHIFT"
            },
            "ctb2High": null
          },
          "notes": [
            {
              "pitch": 64,
              "velocity": 116,
              "position": 0,
              "duration": 0.3229166666666667
            },
            {
              "pitch": 64,
              "velocity": 36,
              "position": 0.3333333333333333,
              "duration": 0.3229166666666667
            },
            {
              "pitch": 71,
              "velocity": 36,
              "position": 0.3333333333333333,
              "duration": 0.3229166666666667
            },
            {
              "pitch": 64,
              "velocity": 16,
              "position": 0.6666666666666666,
              "duration": 0.3229166666666667
            },
            {
              "pitch": 71,
              "velocity": 16,
              "position": 0.6666666666666666,
              "duration": 0.3229166666666667
            },
            {
              "pitch": 71,
              "velocity": 36,
              "position": 1,
              "duration": 0.28125
            },
            {
              "pitch": 64,
              "velocity": 116,
              "position": 1,
              "duration": 0.3229166666666667
            }
          ]
        },
        "15": {
          "ctab": {
            "srcChannel": 15,
            "name": "EP",
            "accType": "PHRASE2",
            "editable": false,
            "mutedNotes": [],
            "mutedChords": [
              "min",
              "Maj"
            ],
            "autoStart": false,
            "sourceChordNote": 0,
            "sourceChordType": "Maj7",
            "ctb2Low": null,
            "ctb2Main": {
              "ntr": "ROOT_FIXED",
              "ntt": "CHORD",
              "bassOn": false,
              "chordRootUpperLimit": 7,
              "noteLowLimit": 0,
              "noteHighLimit": 127,
              "rtr": "PITCH_SHIFT"
            },
            "ctb2High": null
          },
          "notes": [
            {
              "pitch": 59,
              "velocity": 53,
              "position": 0,
              "duration": 0.5479166666666667
            },
            {
              "pitch": 64,
              "velocity": 53,
              "position": 0,
              "duration": 0.65625
            },
            {
              "pitch": 67,
              "velocity": 48,
              "position": 0,
              "duration": 0.65625
            },
            {
              "pitch": 59,
              "velocity": 55,
              "position": 0.5520833333333334,
              "duration": 0.3229166666666667
            },
            {
              "pitch": 64,
              "velocity": 79,
              "position": 0.6666666666666666,
              "duration": 0.3229166666666667
            },
            {
              "pitch": 67,
              "velocity": 76,
              "position": 0.6666666666666666,
              "duration": 0.3229166666666667
            },
            {
              "pitch": 59,
              "velocity": 59,
              "position": 0.8854166666666666,
              "duration": 0.4375
            },
            {
              "pitch": 67,
              "velocity": 107,
              "position": 1,
              "duration": 0.3229166666666667
            },
            {
              "pitch": 64,
              "velocity": 95,
              "position": 1.0208333333333333,
              "duration": 0.3020833333333333
            }
          ]
        }
      }
    },
    "Intro_B": {
      "type": "Intro_B",
      "sizeInBeats": 16,
      "channels": {
        "1": {
          "ctab": {
            "srcChannel": 1,
            "name": "Bass",
            "accType": "BASS",
            "editable": false,
            "mutedNotes": [],
            "mutedChords": [
              "1+2+5",
              "sus4",
              "1+5",
              "1+8",
              "7aug",
              "Maj7aug",
              "7(#9)",
              "7(b13)",
              "7(b9)",
              "7(13)",
              "7#11",
              "7(9)",
              "7b5",
              "7sus4",
              "7th",
              "aug",
              "Maj6(9)",
              "Maj7(9)",
              "Maj(9)",
              "Maj7#11",
              "Maj7",
              "Maj6",
              "Maj"
            ],
            "autoStart": false,
            "sourceChordNote": 0,
            "sourceChordType": "Maj7",
            "ctb2Low": null,
            "ctb2Main": {
              "ntr": "ROOT_TRANSPOSITION",
              "ntt": "BYPASS",
              "bassOn": false,
              "chordRootUpperLimit": 8,
              "noteLowLimit": 28,
              "noteHighLimit": 127,
              "rtr": "PITCH_SHIFT"
            },
            "ctb2High": null
          },
          "notes": [
            {
              "pitch": 31,
              "velocity": 90,
              "position": 3.3333333333333335,
              "duration": 0.3229166666666667
            },
            {
              "pitch": 34,
              "velocity": 80,
              "position": 3.6666666666666665,
              "duration": 0.3229166666666667
            },
            {
              "pitch": 36,
              "velocity": 100,
              "position": 4,
              "duration": 1.65625
            },
            {
              "pitch": 24,
              "velocity": 80,
              "position": 5.666666666666667,
              "duration": 0.3229166666666667
            },
            {
              "pitch": 24,
              "velocity": 100,
              "position": 6,
              "duration": 1.3229166666666667
            },
            {
              "pitch": 31,
              "velocity": 90,
              "position": 7.333333333333333,
              "duration": 0.3229166666666667
            },
            {
              "pitch": 34,
              "velocity": 80,
              "position": 7.666666666666667,
              "duration": 0.3229166666666667
            },
            {
              "pitch": 36,
              "velocity": 100,
              "position": 8,
              "duration": 1.65625
            },
            {
              "pitch": 24,
              "velocity": 80,
              "position": 9.666666666666666,
              "duration": 0.3229166666666667
            },
            {
              "pitch": 24,
              "velocity": 100,
              "position": 10,
              "duration": 0.65625
            },
            {
              "pitch": 24,
              "velocity": 80,
              "position": 10.666666666666666,
              "duration": 0.3229166666666667
            },
            {
              "pitch": 24,
              "velocity": 100,
              "position": 11,
              "duration": 0.3229166666666667
            },
            {
              "pitch": 31,
              "velocity": 90,
              "position": 11.333333333333334,
              "duration": 0.3229166666666667
            },
            {
              "pitch": 34,
              "velocity": 80,
              "position": 11.666666666666666,
              "duration": 0.3229166666666667
            },
            {
              "pitch": 36,
              "velocity": 100,
              "position": 12,
              "duration": 0.65625
            },
            {
              "pitch": 24,
              "velocity": 80,
              "position": 12.666666666666666,
              "duration": 0.3229166666666667
            },
            {
              "pitch": 24,
              "velocity": 100,
              "position": 13,
              "duration": 0.3229166666666667
            },
            {
              "pitch": 24,
              "velocity": 80,
              "position": 13.333333333333334,
              "duration": 0.3229166666666667
            },
            {
              "pitch": 24,
              "velocity": 90,
              "position": 13.666666666666666,
              "duration": 0.3229166666666667
            },
            {
              "pitch": 31,
              "velocity": 100,
              "position": 14,
              "duration": 0.3229166666666667
            },
            {
              "pitch": 31,
              "velocity": 80,
              "position": 14.333333333333334,
              "duration": 0.3229166666666667
            },
            {
              "pitch": 31,
              "velocity": 90,
              "position": 14.666666666666666,
              "duration": 0.3229166666666667
            },
            {
              "pitch": 31,
              "velocity": 100,
              "position": 15,
              "duration": 0.3229166666666667
            },
            {
              "pitch": 31,
              "velocity": 100,
              "position": 15.333333333333334,
              "duration": 0.3229166666666667
            },
            {
              "pitch": 31,
              "velocity": 100,
              "position": 15.666666666666666,
              "duration": 0.3229166666666667
            }
          ]
        },
        "2": {
          "ctab": {
            "srcChannel": 2,
            "name": "60sCln",
            "accType": "CHORD1",
            "editable": false,
            "mutedNotes": [],
            "mutedChords": [
              "1+2+5",
              "sus4",
              "1+5",
              "1+8",
              "7aug",
              "Maj7aug",
              "7(#9)",
              "7(b13)",
              "7(b9)",
              "7(13)",
              "7#11",
              "7(9)",
              "7b5",
              "7sus4",
              "7th",
              "aug",
              "Maj6(9)",
              "Maj7(9)",
              "Maj(9)",
              "Maj7#11",
              "Maj7",
              "Maj6",
              "Maj"
            ],
            "autoStart": false,
            "sourceChordNote": 0,
            "sourceChordType": "Maj7",
            "ctb2Low": null,
            "ctb2Main": {
              "ntr": "ROOT_TRANSPOSITION",
              "ntt": "BYPASS",
              "bassOn": false,
              "chordRootUpperLimit": 8,
              "noteLowLimit": 0,
              "noteHighLimit": 127,
              "rtr": "PITCH_SHIFT"
            },
            "ctb2High": null
          },
          "notes": [
            {
              "pitch": 58,
              "velocity": 45,
              "position": 8,
              "duration": 0.9895833333333334
            },
            {
              "pitch": 63,
              "velocity": 45,
              "position": 8,
              "duration": 0.9958333333333333
            },
            {
              "pitch": 67,
              "velocity": 45,
              "position": 8.010416666666666,
              "duration": 0.9895833333333334
            },
            {
              "pitch": 72,
              "velocity": 45,
              "position": 8.020833333333334,
              "duration": 0.9895833333333334
            },
            {
              "pitch": 58,
              "velocity": 92,
              "position": 9,
              "duration": 0.10416666666666667
            },
            {
              "pitch": 63,
              "velocity": 92,
              "position": 9,
              "duration": 0.11458333333333333
            },
            {
              "pitch": 67,
              "velocity": 92,
              "position": 9.010416666666666,
              "duration": 0.10416666666666667
            },
            {
              "pitch": 72,
              "velocity": 92,
              "position": 9.020833333333334,
              "duration": 0.10416666666666667
            },
            {
              "pitch": 57,
              "velocity": 45,
              "position": 10.333333333333334,
              "duration": 0.3229166666666667
            },
            {
              "pitch": 63,
              "velocity": 45,
              "position": 10.333333333333334,
              "duration": 0.32916666666666666
            },
            {
              "pitch": 67,
              "velocity": 45,
              "position": 10.34375,
              "duration": 0.3229166666666667
            },
            {
              "pitch": 72,
              "velocity": 45,
              "position": 10.354166666666666,
              "duration": 0.3229166666666667
            },
            {
              "pitch": 57,
              "velocity": 60,
              "position": 10.666666666666666,
              "duration": 0.3229166666666667
            },
            {
              "pitch": 63,
              "velocity": 60,
              "position": 10.666666666666666,
              "duration": 0.32916666666666666
            },
            {
              "pitch": 67,
              "velocity": 60,
              "position": 10.677083333333334,
              "duration": 0.3229166666666667
            },
            {
              "pitch": 72,
              "velocity": 60,
              "position": 10.6875,
              "duration": 0.3229166666666667
            },
            {
              "pitch": 57,
              "velocity": 92,
              "position": 11,
              "duration": 0.10416666666666667
            },
            {
              "pitch": 63,
              "velocity": 92,
              "position": 11,
              "duration": 0.11458333333333333
            },
            {
              "pitch": 67,
              "velocity": 92,
              "position": 11.010416666666666,
              "duration": 0.10416666666666667
            },
            {
              "pitch": 72,
              "velocity": 92,
              "position": 11.020833333333334,
              "duration": 0.10416666666666667
            },
            {
              "pitch": 58,
              "velocity": 45,
              "position": 12,
              "duration": 0.9895833333333334
            },
            {
              "pitch": 63,
              "velocity": 45,
              "position": 12,
              "duration": 0.9958333333333333
            },
            {
              "pitch": 67,
              "velocity": 45,
              "position": 12.010416666666666,
              "duration": 0.9895833333333334
            },
            {
              "pitch": 72,
              "velocity": 45,
              "position": 12.020833333333334,
              "duration": 0.9895833333333334
            },
            {
              "pitch": 58,
              "velocity": 92,
              "position": 13,
              "duration": 0.10416666666666667
            },
            {
              "pitch": 63,
              "velocity": 92,
              "position": 13,
              "duration": 0.11458333333333333
            },
            {
              "pitch": 67,
              "velocity": 92,
              "position": 13.010416666666666,
              "duration": 0.10416666666666667
            },
            {
              "pitch": 72,
              "velocity": 92,
              "position": 13.020833333333334,
              "duration": 0.10416666666666667
            },
            {
              "pitch": 53,
              "velocity": 92,
              "position": 13.666666666666666,
              "duration": 2.2708333333333335
            },
            {
              "pitch": 59,
              "velocity": 92,
              "position": 13.666666666666666,
              "duration": 2.2708333333333335
            },
            {
              "pitch": 62,
              "velocity": 92,
              "position": 13.677083333333334,
              "duration": 2.2604166666666665
            },
            {
              "pitch": 67,
              "velocity": 92,
              "position": 13.6875,
              "duration": 2.25
            }
          ]
        },
        "3": {
          "ctab": {
            "srcChannel": 3,
            "name": "Pno",
            "accType": "CHORD2",
            "editable": false,
            "mutedNotes": [],
            "mutedChords": [
              "1+2+5",
              "sus4",
              "1+5",
              "1+8",
              "7aug",
              "Maj7aug",
              "7(#9)",
              "7(b13)",
              "7(b9)",
              "7(13)",
              "7#11",
              "7(9)",
              "7b5",
              "7sus4",
              "7th",
              "aug",
              "Maj6(9)",
              "Maj7(9)",
              "Maj(9)",
              "Maj7#11",
              "Maj7",
              "Maj6",
              "Maj"
            ],
            "autoStart": false,
            "sourceChordNote": 0,
            "sourceChordType": "Maj7",
            "ctb2Low": null,
            "ctb2Main": {
              "ntr": "ROOT_TRANSPOSITION",
              "ntt": "BYPASS",
              "bassOn": false,
              "chordRootUpperLimit": 1,
              "noteLowLimit": 28,
              "noteHighLimit": 127,
              "rtr": "PITCH_SHIFT"
            },
            "ctb2High": null
          },
          "notes": [
            {
              "pitch": 62,
              "velocity": 73,
              "position": 0,
              "duration": 0.0625
            },
            {
              "pitch": 63,
              "velocity": 56,
              "position": 0.08333333333333333,
              "duration": 0.8333333333333334
            },
            {
              "pitch": 67,
              "velocity": 62,
              "position": 0,
              "duration": 0.9166666666666666
            },
            {
              "pitch": 70,
              "velocity": 57,
              "position": 0,
              "duration": 0.9166666666666666
            },
            {
              "pitch": 72,
              "velocity": 76,
              "position": 0,
              "duration": 0.9166666666666666
            },
            {
              "pitch": 62,
              "velocity": 106,
              "position": 1,
              "duration": 0.0625
            },
            {
              "pitch": 63,
              "velocity": 83,
              "position": 1.0833333333333333,
              "duration": 0.5
            },
            {
              "pitch": 67,
              "velocity": 83,
              "position": 1,
              "duration": 0.5833333333333334
            },
            {
              "pitch": 70,
              "velocity": 73,
              "position": 1,
              "duration": 0.5833333333333334
            },
            {
              "pitch": 72,
              "velocity": 83,
              "position": 1,
              "duration": 0.5833333333333334
            },
            {
              "pitch": 24,
              "velocity": 60,
              "position": 0,
              "duration": 1.9895833333333333
            },
            {
              "pitch": 60,
              "velocity": 64,
              "position": 1.3333333333333333,
              "duration": 0.7916666666666666
            },
            {
              "pitch": 60,
              "velocity": 45,
              "position": 2.3333333333333335,
              "duration": 0.16666666666666666
            },
            {
              "pitch": 65,
              "velocity": 49,
              "position": 1.6666666666666667,
              "duration": 1.25
            },
            {
              "pitch": 69,
              "velocity": 68,
              "position": 1.6666666666666667,
              "duration": 1.25
            },
            {
              "pitch": 72,
              "velocity": 71,
              "position": 1.6666666666666667,
              "duration": 1.25
            },
            {
              "pitch": 60,
              "velocity": 34,
              "position": 2.6666666666666665,
              "duration": 0.25
            },
            {
              "pitch": 36,
              "velocity": 33,
              "position": 2,
              "duration": 1.5729166666666667
            },
            {
              "pitch": 65,
              "velocity": 63,
              "position": 3,
              "duration": 0.5833333333333334
            },
            {
              "pitch": 69,
              "velocity": 63,
              "position": 3,
              "duration": 0.5833333333333334
            },
            {
              "pitch": 72,
              "velocity": 73,
              "position": 3,
              "duration": 0.5833333333333334
            },
            {
              "pitch": 60,
              "velocity": 42,
              "position": 3.3333333333333335,
              "duration": 0.2604166666666667
            },
            {
              "pitch": 62,
              "velocity": 85,
              "position": 3.6666666666666665,
              "duration": 0.1875
            },
            {
              "pitch": 36,
              "velocity": 52,
              "position": 3.5833333333333335,
              "duration": 0.40625
            },
            {
              "pitch": 63,
              "velocity": 29,
              "position": 3.75,
              "duration": 0.25
            },
            {
              "pitch": 24,
              "velocity": 42,
              "position": 4,
              "duration": 0.65625
            },
            {
              "pitch": 60,
              "velocity": 76,
              "position": 4,
              "duration": 0.9166666666666666
            },
            {
              "pitch": 67,
              "velocity": 44,
              "position": 3.6666666666666665,
              "duration": 1.25
            },
            {
              "pitch": 72,
              "velocity": 73,
              "position": 3.6666666666666665,
              "duration": 1.25
            },
            {
              "pitch": 66,
              "velocity": 78,
              "position": 5,
              "duration": 0.08333333333333333
            },
            {
              "pitch": 70,
              "velocity": 85,
              "position": 5,
              "duration": 0.5833333333333334
            },
            {
              "pitch": 72,
              "velocity": 90,
              "position": 5,
              "duration": 0.5833333333333334
            },
            {
              "pitch": 67,
              "velocity": 71,
              "position": 5.083333333333333,
              "duration": 0.5
            },
            {
              "pitch": 36,
              "velocity": 42,
              "position": 4.666666666666667,
              "duration": 1.3229166666666667
            },
            {
              "pitch": 60,
              "velocity": 54,
              "position": 5.333333333333333,
              "duration": 1.15625
            },
            {
              "pitch": 60,
              "velocity": 37,
              "position": 6.666666666666667,
              "duration": 0.25
            },
            {
              "pitch": 65,
              "velocity": 60,
              "position": 5.666666666666667,
              "duration": 1.25
            },
            {
              "pitch": 69,
              "velocity": 78,
              "position": 5.666666666666667,
              "duration": 1.25
            },
            {
              "pitch": 72,
              "velocity": 73,
              "position": 5.666666666666667,
              "duration": 1.25
            },
            {
              "pitch": 60,
              "velocity": 53,
              "position": 7.333333333333333,
              "duration": 0.11458333333333333
            },
            {
              "pitch": 36,
              "velocity": 50,
              "position": 6,
              "duration": 1.5729166666666667
            },
            {
              "pitch": 65,
              "velocity": 94,
              "position": 7,
              "duration": 0.5833333333333334
            },
            {
              "pitch": 69,
              "velocity": 88,
              "position": 7,
              "duration": 0.5833333333333334
            },
            {
              "pitch": 72,
              "velocity": 88,
              "position": 7,
              "duration": 0.5833333333333334
            },
            {
              "pitch": 36,
              "velocity": 50,
              "position": 7.583333333333333,
              "duration": 0.07291666666666667
            },
            {
              "pitch": 62,
              "velocity": 78,
              "position": 7.666666666666667,
              "duration": 0.09375
            },
            {
              "pitch": 31,
              "velocity": 73,
              "position": 7.666666666666667,
              "duration": 0.3229166666666667
            },
            {
              "pitch": 63,
              "velocity": 50,
              "position": 7.75,
              "duration": 0.2916666666666667
            },
            {
              "pitch": 60,
              "velocity": 78,
              "position": 8,
              "duration": 0.9166666666666666
            },
            {
              "pitch": 67,
              "velocity": 88,
              "position": 7.666666666666667,
              "duration": 1.25
            },
            {
              "pitch": 72,
              "velocity": 68,
              "position": 7.666666666666667,
              "duration": 1.25
            },
            {
              "pitch": 66,
              "velocity": 68,
              "position": 9,
              "duration": 0.0625
            },
            {
              "pitch": 67,
              "velocity": 55,
              "position": 9.083333333333334,
              "duration": 0.5
            },
            {
              "pitch": 70,
              "velocity": 73,
              "position": 9,
              "duration": 0.5833333333333334
            },
            {
              "pitch": 72,
              "velocity": 68,
              "position": 9,
              "duration": 0.5833333333333334
            },
            {
              "pitch": 60,
              "velocity": 53,
              "position": 9.333333333333334,
              "duration": 0.25
            },
            {
              "pitch": 24,
              "velocity": 56,
              "position": 8,
              "duration": 1.9895833333333333
            },
            {
              "pitch": 60,
              "velocity": 42,
              "position": 10.666666666666666,
              "duration": 0.23958333333333334
            },
            {
              "pitch": 65,
              "velocity": 85,
              "position": 9.666666666666666,
              "duration": 1.25
            },
            {
              "pitch": 69,
              "velocity": 83,
              "position": 9.666666666666666,
              "duration": 1.25
            },
            {
              "pitch": 72,
              "velocity": 85,
              "position": 9.666666666666666,
              "duration": 1.25
            },
            {
              "pitch": 36,
              "velocity": 83,
              "position": 10,
              "duration": 1.5729166666666667
            },
            {
              "pitch": 65,
              "velocity": 83,
              "position": 11,
              "duration": 0.5833333333333334
            },
            {
              "pitch": 69,
              "velocity": 85,
              "position": 11,
              "duration": 0.5833333333333334
            },
            {
              "pitch": 72,
              "velocity": 81,
              "position": 11,
              "duration": 0.5833333333333334
            },
            {
              "pitch": 60,
              "velocity": 47,
              "position": 11.333333333333334,
              "duration": 0.2916666666666667
            },
            {
              "pitch": 36,
              "velocity": 47,
              "position": 11.583333333333334,
              "duration": 0.07291666666666667
            },
            {
              "pitch": 62,
              "velocity": 78,
              "position": 11.666666666666666,
              "duration": 0.07291666666666667
            },
            {
              "pitch": 66,
              "velocity": 94,
              "position": 11.666666666666666,
              "duration": 0.08333333333333333
            },
            {
              "pitch": 31,
              "velocity": 62,
              "position": 11.666666666666666,
              "duration": 0.3229166666666667
            },
            {
              "pitch": 63,
              "velocity": 30,
              "position": 11.75,
              "duration": 0.28125
            },
            {
              "pitch": 60,
              "velocity": 73,
              "position": 12,
              "duration": 0.9166666666666666
            },
            {
              "pitch": 72,
              "velocity": 73,
              "position": 11.666666666666666,
              "duration": 1.25
            },
            {
              "pitch": 67,
              "velocity": 47,
              "position": 11.75,
              "duration": 1.1666666666666667
            },
            {
              "pitch": 60,
              "velocity": 39,
              "position": 13,
              "duration": 0.052083333333333336
            },
            {
              "pitch": 66,
              "velocity": 66,
              "position": 13,
              "duration": 0.07291666666666667
            },
            {
              "pitch": 67,
              "velocity": 62,
              "position": 13.083333333333334,
              "duration": 0.5
            },
            {
              "pitch": 70,
              "velocity": 73,
              "position": 13,
              "duration": 0.5833333333333334
            },
            {
              "pitch": 72,
              "velocity": 78,
              "position": 13,
              "duration": 0.5833333333333334
            },
            {
              "pitch": 24,
              "velocity": 57,
              "position": 12,
              "duration": 1.9895833333333333
            },
            {
              "pitch": 60,
              "velocity": 45,
              "position": 13.333333333333334,
              "duration": 0.75
            },
            {
              "pitch": 60,
              "velocity": 36,
              "position": 14.333333333333334,
              "duration": 0.28125
            },
            {
              "pitch": 60,
              "velocity": 29,
              "position": 14.666666666666666,
              "duration": 0.21875
            },
            {
              "pitch": 65,
              "velocity": 76,
              "position": 13.666666666666666,
              "duration": 1.25
            },
            {
              "pitch": 69,
              "velocity": 81,
              "position": 13.666666666666666,
              "duration": 1.25
            },
            {
              "pitch": 72,
              "velocity": 85,
              "position": 13.666666666666666,
              "duration": 1.25
            },
            {
              "pitch": 31,
              "velocity": 47,
              "position": 14,
              "duration": 0.9895833333333334
            },
            {
              "pitch": 60,
              "velocity": 52,
              "position": 15.333333333333334,
              "duration": 0.22916666666666666
            },
            {
              "pitch": 65,
              "velocity": 73,
              "position": 15,
              "duration": 0.5833333333333334
            },
            {
              "pitch": 69,
              "velocity": 42,
              "position": 15,
              "duration": 0.5833333333333334
            },
            {
              "pitch": 72,
              "velocity": 60,
              "position": 15,
              "duration": 0.5833333333333334
            },
            {
              "pitch": 31,
              "velocity": 44,
              "position": 15,
              "duration": 0.65625
            },
            {
              "pitch": 62,
              "velocity": 73,
              "position": 15.666666666666666,
              "duration": 0.07291666666666667
            },
            {
              "pitch": 63,
              "velocity": 49,
              "position": 15.75,
              "duration": 0.23958333333333334
            },
            {
              "pitch": 67,
              "velocity": 66,
              "position": 15.666666666666666,
              "duration": 0.3229166666666667
            },
            {
              "pitch": 72,
              "velocity": 78,
              "position": 15.666666666666666,
              "duration": 0.3229166666666667
            }
          ]
        },
        "4": {
          "ctab": {
            "srcChannel": 4,
            "name": "Org",
            "accType": "PAD",
            "editable": false,
            "mutedNotes": [],
            "mutedChords": [
              "1+2+5",
              "sus4",
              "1+5",
              "1+8",
              "7aug",
              "Maj7aug",
              "7(#9)",
              "7(b13)",
              "7(b9)",
              "7(13)",
              "7#11",
              "7(9)",
              "7b5",
              "7sus4",
              "7th",
              "aug",
              "Maj6(9)",
              "Maj7(9)",
              "Maj(9)",
              "Maj7#11",
              "Maj7",
              "Maj6",
              "Maj"
            ],
            "autoStart": false,
            "sourceChordNote": 0,
            "sourceChordType": "Maj7",
            "ctb2Low": null,
            "ctb2Main": {
              "ntr": "ROOT_TRANSPOSITION",
              "ntt": "BYPASS",
              "bassOn": false,
              "chordRootUpperLimit": 8,
              "noteLowLimit": 48,
              "noteHighLimit": 79,
              "rtr": "PITCH_SHIFT"
            },
            "ctb2High": null
          },
          "notes": [
            {
              "pitch": 60,
              "velocity": 127,
              "position": 4,
              "duration": 3.53125
            },
            {
              "pitch": 52,
              "velocity": 127,
              "position": 7.645833333333333,
              "duration": 0.07291666666666667
            },
            {
              "pitch": 53,
              "velocity": 127,
              "position": 7.666666666666667,
              "duration": 0.07291666666666667
            },
            {
              "pitch": 54,
              "velocity": 127,
              "position": 7.677083333333333,
              "duration": 0.07291666666666667
            },
            {
              "pitch": 55,
              "velocity": 127,
              "position": 7.6875,
              "duration": 0.07291666666666667
            },
            {
              "pitch": 56,
              "velocity": 127,
              "position": 7.708333333333333,
              "duration": 0.07291666666666667
            },
            {
              "pitch": 57,
              "velocity": 127,
              "position": 7.71875,
              "duration": 0.07291666666666667
            },
            {
              "pitch": 58,
              "velocity": 127,
              "position": 7.729166666666667,
              "duration": 0.07291666666666667
            },
            {
              "pitch": 59,
              "velocity": 127,
              "position": 7.75,
              "duration": 0.07291666666666667
            },
            {
              "pitch": 60,
              "velocity": 127,
              "position": 7.760416666666667,
              "duration": 0.07291666666666667
            },
            {
              "pitch": 61,
              "velocity": 127,
              "position": 7.770833333333333,
              "duration": 0.07291666666666667
            },
            {
              "pitch": 62,
              "velocity": 127,
              "position": 7.791666666666667,
              "duration": 0.07291666666666667
            },
            {
              "pitch": 63,
              "velocity": 127,
              "position": 7.802083333333333,
              "duration": 0.07291666666666667
            },
            {
              "pitch": 64,
              "velocity": 127,
              "position": 7.8125,
              "duration": 0.07291666666666667
            },
            {
              "pitch": 65,
              "velocity": 127,
              "position": 7.833333333333333,
              "duration": 0.07291666666666667
            },
            {
              "pitch": 66,
              "velocity": 127,
              "position": 7.84375,
              "duration": 0.07291666666666667
            },
            {
              "pitch": 67,
              "velocity": 127,
              "position": 7.854166666666667,
              "duration": 0.07291666666666667
            },
            {
              "pitch": 68,
              "velocity": 127,
              "position": 7.875,
              "duration": 0.07291666666666667
            },
            {
              "pitch": 69,
              "velocity": 127,
              "position": 7.885416666666667,
              "duration": 0.07291666666666667
            },
            {
              "pitch": 70,
              "velocity": 127,
              "position": 7.895833333333333,
              "duration": 0.07291666666666667
            },
            {
              "pitch": 72,
              "velocity": 127,
              "position": 7.927083333333333,
              "duration": 0.0625
            },
            {
              "pitch": 73,
              "velocity": 127,
              "position": 7.9375,
              "duration": 0.052083333333333336
            },
            {
              "pitch": 75,
              "velocity": 127,
              "position": 7.96875,
              "duration": 0.020833333333333332
            },
            {
              "pitch": 77,
              "velocity": 127,
              "position": 7.96875,
              "duration": 0.020833333333333332
            },
            {
              "pitch": 71,
              "velocity": 127,
              "position": 7.916666666666667,
              "duration": 0.08333333333333333
            },
            {
              "pitch": 74,
              "velocity": 127,
              "position": 7.958333333333333,
              "duration": 0.041666666666666664
            },
            {
              "pitch": 79,
              "velocity": 127,
              "position": 8,
              "duration": 0.11458333333333333
            },
            {
              "pitch": 82,
              "velocity": 127,
              "position": 8.104166666666666,
              "duration": 0.08333333333333333
            },
            {
              "pitch": 78,
              "velocity": 127,
              "position": 11,
              "duration": 0.11458333333333333
            },
            {
              "pitch": 79,
              "velocity": 127,
              "position": 11,
              "duration": 0.3333333333333333
            },
            {
              "pitch": 82,
              "velocity": 127,
              "position": 11,
              "duration": 0.3333333333333333
            },
            {
              "pitch": 72,
              "velocity": 127,
              "position": 11.552083333333334,
              "duration": 0.03125
            },
            {
              "pitch": 77,
              "velocity": 127,
              "position": 11.333333333333334,
              "duration": 0.3333333333333333
            },
            {
              "pitch": 81,
              "velocity": 127,
              "position": 11.333333333333334,
              "duration": 0.3333333333333333
            },
            {
              "pitch": 84,
              "velocity": 127,
              "position": 8.21875,
              "duration": 3.53125
            },
            {
              "pitch": 75,
              "velocity": 127,
              "position": 11.666666666666666,
              "duration": 0.10416666666666667
            },
            {
              "pitch": 76,
              "velocity": 127,
              "position": 11.770833333333334,
              "duration": 0.21875
            },
            {
              "pitch": 79,
              "velocity": 127,
              "position": 11.666666666666666,
              "duration": 0.3333333333333333
            },
            {
              "pitch": 63,
              "velocity": 127,
              "position": 13,
              "duration": 1
            },
            {
              "pitch": 68,
              "velocity": 127,
              "position": 14,
              "duration": 0.010416666666666666
            },
            {
              "pitch": 70,
              "velocity": 127,
              "position": 13,
              "duration": 1.0208333333333333
            },
            {
              "pitch": 72,
              "velocity": 127,
              "position": 12,
              "duration": 3.8333333333333335
            },
            {
              "pitch": 65,
              "velocity": 127,
              "position": 14,
              "duration": 1.8333333333333333
            },
            {
              "pitch": 69,
              "velocity": 127,
              "position": 14,
              "duration": 1.8333333333333333
            }
          ]
        },
        "5": {
          "ctab": {
            "srcChannel": 5,
            "name": "ClGt",
            "accType": "PHRASE1",
            "editable": false,
            "mutedNotes": [],
            "mutedChords": [
              "1+2+5",
              "sus4",
              "1+5",
              "1+8",
              "7aug",
              "Maj7aug",
              "7(#9)",
              "7(b13)",
              "7(b9)",
              "7(13)",
              "7#11",
              "7(9)",
              "7b5",
              "7sus4",
              "7th",
              "aug",
              "Maj6(9)",
              "Maj7(9)",
              "Maj(9)",
              "Maj7#11",
              "Maj7",
              "Maj6",
              "Maj"
            ],
            "autoStart": false,
            "sourceChordNote": 0,
            "sourceChordType": "Maj7",
            "ctb2Low": null,
            "ctb2Main": {
              "ntr": "ROOT_TRANSPOSITION",
              "ntt": "BYPASS",
              "bassOn": false,
              "chordRootUpperLimit": 6,
              "noteLowLimit": 0,
              "noteHighLimit": 127,
              "rtr": "PITCH_SHIFT"
            },
            "ctb2High": null
          },
          "notes": [
            {
              "pitch": 72,
              "velocity": 120,
              "position": 1,
              "duration": 2.15625
            },
            {
              "pitch": 70,
              "velocity": 93,
              "position": 3.1666666666666665,
              "duration": 0.09375
            },
            {
              "pitch": 67,
              "velocity": 20,
              "position": 3.3333333333333335,
              "duration": 0.08333333333333333
            },
            {
              "pitch": 67,
              "velocity": 20,
              "position": 3.5,
              "duration": 0.25
            },
            {
              "pitch": 63,
              "velocity": 93,
              "position": 3.75,
              "duration": 0.07291666666666667
            },
            {
              "pitch": 60,
              "velocity": 20,
              "position": 3.8333333333333335,
              "duration": 0.07291666666666667
            },
            {
              "pitch": 58,
              "velocity": 95,
              "position": 3.9166666666666665,
              "duration": 0.07291666666666667
            },
            {
              "pitch": 63,
              "velocity": 20,
              "position": 4,
              "duration": 0.13541666666666666
            },
            {
              "pitch": 58,
              "velocity": 91,
              "position": 4.145833333333333,
              "duration": 0.10416666666666667
            },
            {
              "pitch": 60,
              "velocity": 9,
              "position": 4.260416666666667,
              "duration": 2.2291666666666665
            },
            {
              "pitch": 55,
              "velocity": 90,
              "position": 6.5,
              "duration": 0.10416666666666667
            },
            {
              "pitch": 60,
              "velocity": 39,
              "position": 6.666666666666667,
              "duration": 0.25
            },
            {
              "pitch": 60,
              "velocity": 120,
              "position": 7,
              "duration": 0.9895833333333334
            },
            {
              "pitch": 65,
              "velocity": 120,
              "position": 7,
              "duration": 0.9895833333333334
            },
            {
              "pitch": 55,
              "velocity": 113,
              "position": 8,
              "duration": 1.8958333333333333
            },
            {
              "pitch": 60,
              "velocity": 113,
              "position": 8,
              "duration": 1.8958333333333333
            },
            {
              "pitch": 57,
              "velocity": 13,
              "position": 10,
              "duration": 0.15625
            },
            {
              "pitch": 60,
              "velocity": 13,
              "position": 10.166666666666666,
              "duration": 0.15625
            },
            {
              "pitch": 58,
              "velocity": 57,
              "position": 10.333333333333334,
              "duration": 0.3229166666666667
            },
            {
              "pitch": 60,
              "velocity": 13,
              "position": 10.666666666666666,
              "duration": 0.9895833333333334
            },
            {
              "pitch": 57,
              "velocity": 20,
              "position": 11.666666666666666,
              "duration": 0.4375
            },
            {
              "pitch": 62,
              "velocity": 20,
              "position": 11.666666666666666,
              "duration": 0.4375
            },
            {
              "pitch": 60,
              "velocity": 112,
              "position": 12.114583333333334,
              "duration": 0.43333333333333335
            },
            {
              "pitch": 65,
              "velocity": 112,
              "position": 12.114583333333334,
              "duration": 0.4375
            },
            {
              "pitch": 55,
              "velocity": 13,
              "position": 12.552083333333334,
              "duration": 1.1041666666666667
            },
            {
              "pitch": 60,
              "velocity": 13,
              "position": 12.552083333333334,
              "duration": 1.1041666666666667
            },
            {
              "pitch": 58,
              "velocity": 60,
              "position": 13.666666666666666,
              "duration": 0.10416666666666667
            },
            {
              "pitch": 55,
              "velocity": 35,
              "position": 13.770833333333334,
              "duration": 0.11458333333333333
            },
            {
              "pitch": 54,
              "velocity": 91,
              "position": 13.885416666666666,
              "duration": 0.10416666666666667
            },
            {
              "pitch": 53,
              "velocity": 99,
              "position": 14,
              "duration": 0.3229166666666667
            },
            {
              "pitch": 51,
              "velocity": 13,
              "position": 14.333333333333334,
              "duration": 0.3229166666666667
            },
            {
              "pitch": 55,
              "velocity": 119,
              "position": 14.666666666666666,
              "duration": 1.25
            }
          ]
        },
        "6": {
          "ctab": {
            "srcChannel": 6,
            "name": "EP",
            "accType": "PHRASE2",
            "editable": false,
            "mutedNotes": [],
            "mutedChords": [
              "1+2+5",
              "sus4",
              "1+5",
              "1+8",
              "7aug",
              "Maj7aug",
              "7(#9)",
              "7(b13)",
              "7(b9)",
              "7(13)",
              "7#11",
              "7(9)",
              "7b5",
              "7sus4",
              "7th",
              "aug",
              "Maj6(9)",
              "Maj7(9)",
              "Maj(9)",
              "Maj7#11",
              "Maj7",
              "Maj6",
              "Maj"
            ],
            "autoStart": false,
            "sourceChordNote": 0,
            "sourceChordType": "Maj7",
            "ctb2Low": null,
            "ctb2Main": {
              "ntr": "ROOT_TRANSPOSITION",
              "ntt": "BYPASS",
              "bassOn": false,
              "chordRootUpperLimit": 8,
              "noteLowLimit": 54,
              "noteHighLimit": 65,
              "rtr": "PITCH_SHIFT"
            },
            "ctb2High": null
          },
          "notes": [
            {
              "pitch": 53,
              "velocity": 30,
              "position": 2.3333333333333335,
              "duration": 0.20833333333333334
            },
            {
              "pitch": 57,
              "velocity": 30,
              "position": 2.3333333333333335,
              "duration": 0.21875
            },
            {
              "pitch": 60,
              "velocity": 30,
              "position": 2.3333333333333335,
              "duration": 0.21875
            },
            {
              "pitch": 53,
              "velocity": 36,
              "position": 2.6666666666666665,
              "duration": 0.2708333333333333
            },
            {
              "pitch": 57,
              "velocity": 36,
              "position": 2.6666666666666665,
              "duration": 0.2708333333333333
            },
            {
              "pitch": 60,
              "velocity": 36,
              "position": 2.6666666666666665,
              "duration": 0.2708333333333333
            },
            {
              "pitch": 53,
              "velocity": 43,
              "position": 3,
              "duration": 0.22916666666666666
            },
            {
              "pitch": 57,
              "velocity": 43,
              "position": 3,
              "duration": 0.25
            },
            {
              "pitch": 60,
              "velocity": 43,
              "position": 3,
              "duration": 0.2604166666666667
            },
            {
              "pitch": 53,
              "velocity": 49,
              "position": 3.3333333333333335,
              "duration": 0.21875
            },
            {
              "pitch": 57,
              "velocity": 49,
              "position": 3.3333333333333335,
              "duration": 0.25
            },
            {
              "pitch": 60,
              "velocity": 49,
              "position": 3.3333333333333335,
              "duration": 0.25
            },
            {
              "pitch": 60,
              "velocity": 56,
              "position": 3.6666666666666665,
              "duration": 0.2604166666666667
            },
            {
              "pitch": 57,
              "velocity": 56,
              "position": 3.6666666666666665,
              "duration": 0.2916666666666667
            },
            {
              "pitch": 53,
              "velocity": 56,
              "position": 3.6666666666666665,
              "duration": 0.3020833333333333
            },
            {
              "pitch": 51,
              "velocity": 52,
              "position": 4,
              "duration": 0.8333333333333334
            },
            {
              "pitch": 58,
              "velocity": 22,
              "position": 4,
              "duration": 0.8333333333333334
            },
            {
              "pitch": 60,
              "velocity": 52,
              "position": 4,
              "duration": 0.8645833333333334
            },
            {
              "pitch": 58,
              "velocity": 70,
              "position": 5,
              "duration": 0.11458333333333333
            },
            {
              "pitch": 60,
              "velocity": 62,
              "position": 5,
              "duration": 0.11458333333333333
            },
            {
              "pitch": 51,
              "velocity": 63,
              "position": 5,
              "duration": 0.125
            },
            {
              "pitch": 53,
              "velocity": 62,
              "position": 5.666666666666667,
              "duration": 0.4375
            },
            {
              "pitch": 57,
              "velocity": 44,
              "position": 5.666666666666667,
              "duration": 0.46875
            },
            {
              "pitch": 60,
              "velocity": 49,
              "position": 5.666666666666667,
              "duration": 0.4791666666666667
            },
            {
              "pitch": 53,
              "velocity": 40,
              "position": 6.333333333333333,
              "duration": 0.2604166666666667
            },
            {
              "pitch": 57,
              "velocity": 36,
              "position": 6.333333333333333,
              "duration": 0.2708333333333333
            },
            {
              "pitch": 60,
              "velocity": 40,
              "position": 6.333333333333333,
              "duration": 0.2708333333333333
            },
            {
              "pitch": 57,
              "velocity": 57,
              "position": 6.666666666666667,
              "duration": 0.25
            },
            {
              "pitch": 60,
              "velocity": 36,
              "position": 6.666666666666667,
              "duration": 0.25
            },
            {
              "pitch": 53,
              "velocity": 60,
              "position": 6.666666666666667,
              "duration": 0.2604166666666667
            },
            {
              "pitch": 57,
              "velocity": 98,
              "position": 7,
              "duration": 0.19791666666666666
            },
            {
              "pitch": 53,
              "velocity": 72,
              "position": 7,
              "duration": 0.20833333333333334
            },
            {
              "pitch": 60,
              "velocity": 78,
              "position": 7,
              "duration": 0.20833333333333334
            },
            {
              "pitch": 53,
              "velocity": 60,
              "position": 7.333333333333333,
              "duration": 0.20833333333333334
            },
            {
              "pitch": 57,
              "velocity": 38,
              "position": 7.333333333333333,
              "duration": 0.20833333333333334
            },
            {
              "pitch": 60,
              "velocity": 46,
              "position": 7.333333333333333,
              "duration": 0.22916666666666666
            },
            {
              "pitch": 60,
              "velocity": 59,
              "position": 7.666666666666667,
              "duration": 0.21875
            },
            {
              "pitch": 57,
              "velocity": 51,
              "position": 7.666666666666667,
              "duration": 0.25
            },
            {
              "pitch": 53,
              "velocity": 57,
              "position": 7.666666666666667,
              "duration": 0.2916666666666667
            },
            {
              "pitch": 51,
              "velocity": 67,
              "position": 8,
              "duration": 0.2604166666666667
            },
            {
              "pitch": 58,
              "velocity": 62,
              "position": 8,
              "duration": 0.3020833333333333
            },
            {
              "pitch": 60,
              "velocity": 70,
              "position": 8,
              "duration": 0.3125
            },
            {
              "pitch": 51,
              "velocity": 47,
              "position": 8.666666666666666,
              "duration": 0.25
            },
            {
              "pitch": 58,
              "velocity": 38,
              "position": 8.666666666666666,
              "duration": 0.25
            },
            {
              "pitch": 60,
              "velocity": 35,
              "position": 8.666666666666666,
              "duration": 0.25
            },
            {
              "pitch": 51,
              "velocity": 78,
              "position": 9,
              "duration": 0.14583333333333334
            },
            {
              "pitch": 58,
              "velocity": 88,
              "position": 9,
              "duration": 0.14583333333333334
            },
            {
              "pitch": 60,
              "velocity": 91,
              "position": 9,
              "duration": 0.14583333333333334
            },
            {
              "pitch": 53,
              "velocity": 66,
              "position": 9.666666666666666,
              "duration": 0.19791666666666666
            },
            {
              "pitch": 57,
              "velocity": 73,
              "position": 9.666666666666666,
              "duration": 0.19791666666666666
            },
            {
              "pitch": 60,
              "velocity": 60,
              "position": 9.666666666666666,
              "duration": 0.20833333333333334
            },
            {
              "pitch": 53,
              "velocity": 54,
              "position": 10,
              "duration": 0.4895833333333333
            },
            {
              "pitch": 57,
              "velocity": 36,
              "position": 10,
              "duration": 0.4895833333333333
            },
            {
              "pitch": 60,
              "velocity": 20,
              "position": 10,
              "duration": 0.5
            },
            {
              "pitch": 53,
              "velocity": 46,
              "position": 10.666666666666666,
              "duration": 0.21875
            },
            {
              "pitch": 57,
              "velocity": 25,
              "position": 10.666666666666666,
              "duration": 0.21875
            },
            {
              "pitch": 60,
              "velocity": 12,
              "position": 10.666666666666666,
              "duration": 0.22916666666666666
            },
            {
              "pitch": 53,
              "velocity": 63,
              "position": 11,
              "duration": 0.1875
            },
            {
              "pitch": 57,
              "velocity": 62,
              "position": 11,
              "duration": 0.19791666666666666
            },
            {
              "pitch": 60,
              "velocity": 63,
              "position": 11,
              "duration": 0.21875
            },
            {
              "pitch": 53,
              "velocity": 72,
              "position": 11.333333333333334,
              "duration": 0.20833333333333334
            },
            {
              "pitch": 57,
              "velocity": 55,
              "position": 11.333333333333334,
              "duration": 0.21875
            },
            {
              "pitch": 60,
              "velocity": 52,
              "position": 11.333333333333334,
              "duration": 0.21875
            },
            {
              "pitch": 60,
              "velocity": 54,
              "position": 11.666666666666666,
              "duration": 0.20833333333333334
            },
            {
              "pitch": 57,
              "velocity": 55,
              "position": 11.666666666666666,
              "duration": 0.25
            },
            {
              "pitch": 53,
              "velocity": 66,
              "position": 11.666666666666666,
              "duration": 0.2708333333333333
            },
            {
              "pitch": 51,
              "velocity": 51,
              "position": 12,
              "duration": 0.2604166666666667
            },
            {
              "pitch": 58,
              "velocity": 30,
              "position": 12,
              "duration": 0.2916666666666667
            },
            {
              "pitch": 60,
              "velocity": 47,
              "position": 12,
              "duration": 0.3125
            },
            {
              "pitch": 58,
              "velocity": 19,
              "position": 12.666666666666666,
              "duration": 0.16666666666666666
            },
            {
              "pitch": 60,
              "velocity": 30,
              "position": 12.666666666666666,
              "duration": 0.16666666666666666
            },
            {
              "pitch": 51,
              "velocity": 35,
              "position": 12.666666666666666,
              "duration": 0.17708333333333334
            },
            {
              "pitch": 51,
              "velocity": 67,
              "position": 13,
              "duration": 0.14583333333333334
            },
            {
              "pitch": 58,
              "velocity": 70,
              "position": 13,
              "duration": 0.15625
            },
            {
              "pitch": 60,
              "velocity": 60,
              "position": 13,
              "duration": 0.15625
            },
            {
              "pitch": 53,
              "velocity": 49,
              "position": 13.666666666666666,
              "duration": 0.19791666666666666
            },
            {
              "pitch": 57,
              "velocity": 44,
              "position": 13.666666666666666,
              "duration": 0.20833333333333334
            },
            {
              "pitch": 60,
              "velocity": 49,
              "position": 13.666666666666666,
              "duration": 0.20833333333333334
            },
            {
              "pitch": 53,
              "velocity": 44,
              "position": 14,
              "duration": 0.375
            },
            {
              "pitch": 57,
              "velocity": 40,
              "position": 14,
              "duration": 0.46875
            },
            {
              "pitch": 60,
              "velocity": 28,
              "position": 14,
              "duration": 0.4791666666666667
            },
            {
              "pitch": 53,
              "velocity": 47,
              "position": 14.666666666666666,
              "duration": 0.20833333333333334
            },
            {
              "pitch": 57,
              "velocity": 46,
              "position": 14.666666666666666,
              "duration": 0.20833333333333334
            },
            {
              "pitch": 60,
              "velocity": 34,
              "position": 14.666666666666666,
              "duration": 0.21875
            },
            {
              "pitch": 53,
              "velocity": 60,
              "position": 15,
              "duration": 0.20833333333333334
            },
            {
              "pitch": 57,
              "velocity": 55,
              "position": 15,
              "duration": 0.20833333333333334
            },
            {
              "pitch": 60,
              "velocity": 52,
              "position": 15,
              "duration": 0.20833333333333334
            },
            {
              "pitch": 53,
              "velocity": 59,
              "position": 15.333333333333334,
              "duration": 0.19791666666666666
            },
            {
              "pitch": 60,
              "velocity": 47,
              "position": 15.333333333333334,
              "duration": 0.21875
            },
            {
              "pitch": 57,
              "velocity": 57,
              "position": 15.333333333333334,
              "duration": 0.22916666666666666
            },
            {
              "pitch": 60,
              "velocity": 54,
              "position": 15.666666666666666,
              "duration": 0.15625
            },
            {
              "pitch": 57,
              "velocity": 60,
              "position": 15.666666666666666,
              "duration": 0.16666666666666666
            },
            {
              "pitch": 53,
              "velocity": 72,
              "position": 15.666666666666666,
              "duration": 0.17708333333333334
            }
          ]
        },
        "8": {
          "ctab": {
            "srcChannel": 8,
            "name": "Perc",
            "accType": "SUBRHYTHM",
            "editable": false,
            "mutedNotes": [],
            "mutedChords": [],
            "autoStart": true,
            "sourceChordNote": 0,
            "sourceChordType": "Maj7",
            "ctb2Low": null,
            "ctb2Main": {
              "ntr": "ROOT_FIXED",
              "ntt": "BYPASS",
              "bassOn": false,
              "chordRootUpperLimit": 6,
              "noteLowLimit": 0,
              "noteHighLimit": 127,
              "rtr": "PITCH_SHIFT"
            },
            "ctb2High": null
          },
          "notes": [
            {
              "pitch": 54,
              "velocity": 36,
              "position": 4,
              "duration": 0.010416666666666666
            },
            {
              "pitch": 54,
              "velocity": 25,
              "position": 4.333333333333333,
              "duration": 0.010416666666666666
            },
            {
              "pitch": 54,
              "velocity": 26,
              "position": 4.666666666666667,
              "duration": 0.010416666666666666
            },
            {
              "pitch": 54,
              "velocity": 90,
              "position": 5,
              "duration": 0.010416666666666666
            },
            {
              "pitch": 54,
              "velocity": 25,
              "position": 5.333333333333333,
              "duration": 0.010416666666666666
            },
            {
              "pitch": 54,
              "velocity": 19,
              "position": 5.666666666666667,
              "duration": 0.010416666666666666
            },
            {
              "pitch": 54,
              "velocity": 10,
              "position": 5.885416666666667,
              "duration": 0.010416666666666666
            },
            {
              "pitch": 54,
              "velocity": 36,
              "position": 6,
              "duration": 0.010416666666666666
            },
            {
              "pitch": 54,
              "velocity": 25,
              "position": 6.333333333333333,
              "duration": 0.010416666666666666
            },
            {
              "pitch": 54,
              "velocity": 26,
              "position": 6.666666666666667,
              "duration": 0.010416666666666666
            },
            {
              "pitch": 54,
              "velocity": 90,
              "position": 7,
              "duration": 0.010416666666666666
            },
            {
              "pitch": 54,
              "velocity": 25,
              "position": 7.333333333333333,
              "duration": 0.010416666666666666
            },
            {
              "pitch": 54,
              "velocity": 19,
              "position": 7.666666666666667,
              "duration": 0.010416666666666666
            },
            {
              "pitch": 54,
              "velocity": 10,
              "position": 7.885416666666667,
              "duration": 0.010416666666666666
            },
            {
              "pitch": 54,
              "velocity": 36,
              "position": 8,
              "duration": 0.010416666666666666
            },
            {
              "pitch": 54,
              "velocity": 25,
              "position": 8.333333333333334,
              "duration": 0.010416666666666666
            },
            {
              "pitch": 54,
              "velocity": 26,
              "position": 8.666666666666666,
              "duration": 0.010416666666666666
            },
            {
              "pitch": 54,
              "velocity": 90,
              "position": 9,
              "duration": 0.010416666666666666
            },
            {
              "pitch": 54,
              "velocity": 25,
              "position": 9.333333333333334,
              "duration": 0.010416666666666666
            },
            {
              "pitch": 54,
              "velocity": 19,
              "position": 9.666666666666666,
              "duration": 0.010416666666666666
            },
            {
              "pitch": 54,
              "velocity": 10,
              "position": 9.885416666666666,
              "duration": 0.010416666666666666
            },
            {
              "pitch": 54,
              "velocity": 36,
              "position": 10,
              "duration": 0.010416666666666666
            },
            {
              "pitch": 54,
              "velocity": 25,
              "position": 10.333333333333334,
              "duration": 0.010416666666666666
            },
            {
              "pitch": 54,
              "velocity": 26,
              "position": 10.666666666666666,
              "duration": 0.010416666666666666
            },
            {
              "pitch": 54,
              "velocity": 90,
              "position": 11,
              "duration": 0.010416666666666666
            },
            {
              "pitch": 54,
              "velocity": 25,
              "position": 11.333333333333334,
              "duration": 0.010416666666666666
            },
            {
              "pitch": 54,
              "velocity": 19,
              "position": 11.666666666666666,
              "duration": 0.010416666666666666
            },
            {
              "pitch": 54,
              "velocity": 10,
              "position": 11.885416666666666,
              "duration": 0.010416666666666666
            },
            {
              "pitch": 54,
              "velocity": 36,
              "position": 12,
              "duration": 0.010416666666666666
            },
            {
              "pitch": 54,
              "velocity": 25,
              "position": 12.333333333333334,
              "duration": 0.010416666666666666
            },
            {
              "pitch": 54,
              "velocity": 26,
              "position": 12.666666666666666,
              "duration": 0.010416666666666666
            },
            {
              "pitch": 54,
              "velocity": 90,
              "position": 13,
              "duration": 0.010416666666666666
            },
            {
              "pitch": 54,
              "velocity": 25,
              "position": 13.333333333333334,
              "duration": 0.010416666666666666
            },
            {
              "pitch": 54,
              "velocity": 19,
              "position": 13.666666666666666,
              "duration": 0.010416666666666666
            },
            {
              "pitch": 54,
              "velocity": 10,
              "position": 13.885416666666666,
              "duration": 0.010416666666666666
            },
            {
              "pitch": 54,
              "velocity": 36,
              "position": 14,
              "duration": 0.010416666666666666
            },
            {
              "pitch": 54,
              "velocity": 25,
              "position": 14.333333333333334,
              "duration": 0.010416666666666666
            },
            {
              "pitch": 54,
              "velocity": 26,
              "position": 14.666666666666666,
              "duration": 0.010416666666666666
            },
            {
              "pitch": 54,
              "velocity": 90,
              "position": 15,
              "duration": 0.010416666666666666
            },
            {
              "pitch": 54,
              "velocity": 25,
              "position": 15.333333333333334,
              "duration": 0.010416666666666666
            },
            {
              "pitch": 54,
              "velocity": 19,
              "position": 15.666666666666666,
              "duration": 0.010416666666666666
            },
            {
              "pitch": 54,
              "velocity": 10,
              "position": 15.885416666666666,
              "duration": 0.010416666666666666
            }
          ]
        },
        "9": {
          "ctab": {
            "srcChannel": 9,
            "name": "Drs",
            "accType": "RHYTHM",
            "editable": false,
            "mutedNotes": [],
            "mutedChords": [],
            "autoStart": true,
            "sourceChordNote": 0,
            "sourceChordType": "Maj7",
            "ctb2Low": null,
            "ctb2Main": {
              "ntr": "ROOT_FIXED",
              "ntt": "BYPASS",
              "bassOn": false,
              "chordRootUpperLimit": 6,
              "noteLowLimit": 0,
              "noteHighLimit": 127,
              "rtr": "PITCH_SHIFT"
            },
            "ctb2High": null
          },
          "notes": [
            {
              "pitch": 44,
              "velocity": 60,
              "position": 1,
              "duration": 0.010416666666666666
            },
            {
              "pitch": 44,
              "velocity": 60,
              "position": 3,
              "duration": 0.010416666666666666
            },
            {
              "pitch": 36,
              "velocity": 90,
              "position": 4,
              "duration": 0.010416666666666666
            },
            {
              "pitch": 44,
              "velocity": 60,
              "position": 5,
              "duration": 0.010416666666666666
            },
            {
              "pitch": 40,
              "velocity": 85,
              "position": 6,
              "duration": 0.010416666666666666
            },
            {
              "pitch": 40,
              "velocity": 104,
              "position": 6.020833333333333,
              "duration": 0.010416666666666666
            },
            {
              "pitch": 36,
              "velocity": 90,
              "position": 6.333333333333333,
              "duration": 0.010416666666666666
            },
            {
              "pitch": 36,
              "velocity": 90,
              "position": 6.666666666666667,
              "duration": 0.010416666666666666
            },
            {
              "pitch": 40,
              "velocity": 85,
              "position": 7,
              "duration": 0.010416666666666666
            },
            {
              "pitch": 40,
              "velocity": 104,
              "position": 7.020833333333333,
              "duration": 0.010416666666666666
            },
            {
              "pitch": 36,
              "velocity": 90,
              "position": 7.21875,
              "duration": 0.010416666666666666
            },
            {
              "pitch": 36,
              "velocity": 50,
              "position": 7.552083333333333,
              "duration": 0.010416666666666666
            },
            {
              "pitch": 36,
              "velocity": 90,
              "position": 7.666666666666667,
              "duration": 0.010416666666666666
            },
            {
              "pitch": 46,
              "velocity": 60,
              "position": 7.666666666666667,
              "duration": 0.010416666666666666
            },
            {
              "pitch": 36,
              "velocity": 90,
              "position": 8,
              "duration": 0.010416666666666666
            },
            {
              "pitch": 42,
              "velocity": 80,
              "position": 8,
              "duration": 0.010416666666666666
            },
            {
              "pitch": 49,
              "velocity": 60,
              "position": 8,
              "duration": 0.010416666666666666
            },
            {
              "pitch": 42,
              "velocity": 40,
              "position": 8.333333333333334,
              "duration": 0.010416666666666666
            },
            {
              "pitch": 42,
              "velocity": 40,
              "position": 8.666666666666666,
              "duration": 0.010416666666666666
            },
            {
              "pitch": 40,
              "velocity": 85,
              "position": 9,
              "duration": 0.010416666666666666
            },
            {
              "pitch": 42,
              "velocity": 80,
              "position": 9,
              "duration": 0.010416666666666666
            },
            {
              "pitch": 42,
              "velocity": 40,
              "position": 9.333333333333334,
              "duration": 0.010416666666666666
            },
            {
              "pitch": 36,
              "velocity": 50,
              "position": 9.666666666666666,
              "duration": 0.010416666666666666
            },
            {
              "pitch": 42,
              "velocity": 40,
              "position": 9.666666666666666,
              "duration": 0.010416666666666666
            },
            {
              "pitch": 36,
              "velocity": 90,
              "position": 10,
              "duration": 0.010416666666666666
            },
            {
              "pitch": 42,
              "velocity": 80,
              "position": 10,
              "duration": 0.010416666666666666
            },
            {
              "pitch": 42,
              "velocity": 40,
              "position": 10.333333333333334,
              "duration": 0.010416666666666666
            },
            {
              "pitch": 42,
              "velocity": 20,
              "position": 10.552083333333334,
              "duration": 0.010416666666666666
            },
            {
              "pitch": 42,
              "velocity": 40,
              "position": 10.666666666666666,
              "duration": 0.010416666666666666
            },
            {
              "pitch": 40,
              "velocity": 85,
              "position": 11,
              "duration": 0.010416666666666666
            },
            {
              "pitch": 42,
              "velocity": 80,
              "position": 11,
              "duration": 0.010416666666666666
            },
            {
              "pitch": 42,
              "velocity": 40,
              "position": 11.21875,
              "duration": 0.010416666666666666
            },
            {
              "pitch": 46,
              "velocity": 40,
              "position": 11.333333333333334,
              "duration": 0.010416666666666666
            },
            {
              "pitch": 36,
              "velocity": 50,
              "position": 11.666666666666666,
              "duration": 0.010416666666666666
            },
            {
              "pitch": 46,
              "velocity": 60,
              "position": 11.666666666666666,
              "duration": 0.010416666666666666
            },
            {
              "pitch": 36,
              "velocity": 90,
              "position": 12,
              "duration": 0.010416666666666666
            },
            {
              "pitch": 42,
              "velocity": 80,
              "position": 12,
              "duration": 0.010416666666666666
            },
            {
              "pitch": 42,
              "velocity": 40,
              "position": 12.333333333333334,
              "duration": 0.010416666666666666
            },
            {
              "pitch": 42,
              "velocity": 20,
              "position": 12.552083333333334,
              "duration": 0.010416666666666666
            },
            {
              "pitch": 42,
              "velocity": 40,
              "position": 12.666666666666666,
              "duration": 0.010416666666666666
            },
            {
              "pitch": 40,
              "velocity": 85,
              "position": 13,
              "duration": 0.010416666666666666
            },
            {
              "pitch": 42,
              "velocity": 80,
              "position": 13,
              "duration": 0.010416666666666666
            },
            {
              "pitch": 42,
              "velocity": 20,
              "position": 13.21875,
              "duration": 0.010416666666666666
            },
            {
              "pitch": 42,
              "velocity": 40,
              "position": 13.333333333333334,
              "duration": 0.010416666666666666
            },
            {
              "pitch": 42,
              "velocity": 40,
              "position": 13.666666666666666,
              "duration": 0.010416666666666666
            },
            {
              "pitch": 42,
              "velocity": 20,
              "position": 13.885416666666666,
              "duration": 0.010416666666666666
            },
            {
              "pitch": 36,
              "velocity": 90,
              "position": 14,
              "duration": 0.010416666666666666
            },
            {
              "pitch": 42,
              "velocity": 80,
              "position": 14,
              "duration": 0.010416666666666666
            },
            {
              "pitch": 40,
              "velocity": 20,
              "position": 14.104166666666666,
              "duration": 0.010416666666666666
            },
            {
              "pitch": 46,
              "velocity": 41,
              "position": 14.21875,
              "duration": 0.010416666666666666
            },
            {
              "pitch": 42,
              "velocity": 45,
              "position": 14.333333333333334,
              "duration": 0.010416666666666666
            },
            {
              "pitch": 40,
              "velocity": 30,
              "position": 14.4375,
              "duration": 0.010416666666666666
            },
            {
              "pitch": 36,
              "velocity": 70,
              "position": 14.552083333333334,
              "duration": 0.010416666666666666
            },
            {
              "pitch": 42,
              "velocity": 70,
              "position": 14.666666666666666,
              "duration": 0.010416666666666666
            },
            {
              "pitch": 40,
              "velocity": 20,
              "position": 14.770833333333334,
              "duration": 0.010416666666666666
            },
            {
              "pitch": 36,
              "velocity": 50,
              "position": 14.885416666666666,
              "duration": 0.010416666666666666
            },
            {
              "pitch": 40,
              "velocity": 106,
              "position": 15,
              "duration": 0.010416666666666666
            },
            {
              "pitch": 46,
              "velocity": 80,
              "position": 15,
              "duration": 0.010416666666666666
            },
            {
              "pitch": 45,
              "velocity": 80,
              "position": 15.333333333333334,
              "duration": 0.010416666666666666
            },
            {
              "pitch": 36,
              "velocity": 50,
              "position": 15.666666666666666,
              "duration": 0.010416666666666666
            },
            {
              "pitch": 43,
              "velocity": 90,
              "position": 15.666666666666666,
              "duration": 0.010416666666666666
            }
          ]
        },
        "10": {
          "ctab": {
            "srcChannel": 10,
            "name": "Bass",
            "accType": "BASS",
            "editable": false,
            "mutedNotes": [],
            "mutedChords": [
              "dim7",
              "dim",
              "minMaj7(9)",
              "minMaj7",
              "min7(11)",
              "min7(9)",
              "min(9)",
              "m7b5",
              "min7",
              "min6",
              "min"
            ],
            "autoStart": false,
            "sourceChordNote": 0,
            "sourceChordType": "Maj7",
            "ctb2Low": null,
            "ctb2Main": {
              "ntr": "ROOT_TRANSPOSITION",
              "ntt": "BYPASS",
              "bassOn": false,
              "chordRootUpperLimit": 8,
              "noteLowLimit": 28,
              "noteHighLimit": 127,
              "rtr": "PITCH_SHIFT"
            },
            "ctb2High": null
          },
          "notes": [
            {
              "pitch": 31,
              "velocity": 90,
              "position": 3.3333333333333335,
              "duration": 0.3229166666666667
            },
            {
              "pitch": 34,
              "velocity": 80,
              "position": 3.6666666666666665,
              "duration": 0.3229166666666667
            },
            {
              "pitch": 36,
              "velocity": 100,
              "position": 4,
              "duration": 1.65625
            },
            {
              "pitch": 24,
              "velocity": 80,
              "position": 5.666666666666667,
              "duration": 0.3229166666666667
            },
            {
              "pitch": 24,
              "velocity": 100,
              "position": 6,
              "duration": 1.3229166666666667
            },
            {
              "pitch": 31,
              "velocity": 90,
              "position": 7.333333333333333,
              "duration": 0.3229166666666667
            },
            {
              "pitch": 34,
              "velocity": 80,
              "position": 7.666666666666667,
              "duration": 0.3229166666666667
            },
            {
              "pitch": 36,
              "velocity": 100,
              "position": 8,
              "duration": 1.65625
            },
            {
              "pitch": 24,
              "velocity": 80,
              "position": 9.666666666666666,
              "duration": 0.3229166666666667
            },
            {
              "pitch": 24,
              "velocity": 100,
              "position": 10,
              "duration": 0.65625
            },
            {
              "pitch": 24,
              "velocity": 80,
              "position": 10.666666666666666,
              "duration": 0.3229166666666667
            },
            {
              "pitch": 24,
              "velocity": 100,
              "position": 11,
              "duration": 0.3229166666666667
            },
            {
              "pitch": 31,
              "velocity": 90,
              "position": 11.333333333333334,
              "duration": 0.3229166666666667
            },
            {
              "pitch": 34,
              "velocity": 80,
              "position": 11.666666666666666,
              "duration": 0.3229166666666667
            },
            {
              "pitch": 36,
              "velocity": 100,
              "position": 12,
              "duration": 0.65625
            },
            {
              "pitch": 24,
              "velocity": 80,
              "position": 12.666666666666666,
              "duration": 0.3229166666666667
            },
            {
              "pitch": 24,
              "velocity": 100,
              "position": 13,
              "duration": 0.3229166666666667
            },
            {
              "pitch": 24,
              "velocity": 80,
              "position": 13.333333333333334,
              "duration": 0.3229166666666667
            },
            {
              "pitch": 24,
              "velocity": 90,
              "position": 13.666666666666666,
              "duration": 0.3229166666666667
            },
            {
              "pitch": 31,
              "velocity": 100,
              "position": 14,
              "duration": 0.3229166666666667
            },
            {
              "pitch": 31,
              "velocity": 80,
              "position": 14.333333333333334,
              "duration": 0.3229166666666667
            },
            {
              "pitch": 31,
              "velocity": 90,
              "position": 14.666666666666666,
              "duration": 0.3229166666666667
            },
            {
              "pitch": 31,
              "velocity": 100,
              "position": 15,
              "duration": 0.3229166666666667
            },
            {
              "pitch": 31,
              "velocity": 100,
              "position": 15.333333333333334,
              "duration": 0.3229166666666667
            },
            {
              "pitch": 31,
              "velocity": 100,
              "position": 15.666666666666666,
              "duration": 0.3229166666666667
            }
          ]
        },
        "11": {
          "ctab": {
            "srcChannel": 11,
            "name": "60sCln",
            "accType": "CHORD1",
            "editable": false,
            "mutedNotes": [],
            "mutedChords": [
              "dim7",
              "dim",
              "minMaj7(9)",
              "minMaj7",
              "min7(11)",
              "min7(9)",
              "min(9)",
              "m7b5",
              "min7",
              "min6",
              "min"
            ],
            "autoStart": false,
            "sourceChordNote": 0,
            "sourceChordType": "Maj7",
            "ctb2Low": null,
            "ctb2Main": {
              "ntr": "ROOT_TRANSPOSITION",
              "ntt": "BYPASS",
              "bassOn": false,
              "chordRootUpperLimit": 8,
              "noteLowLimit": 0,
              "noteHighLimit": 127,
              "rtr": "PITCH_SHIFT"
            },
            "ctb2High": null
          },
          "notes": [
            {
              "pitch": 58,
              "velocity": 45,
              "position": 8,
              "duration": 0.9895833333333334
            },
            {
              "pitch": 64,
              "velocity": 45,
              "position": 8,
              "duration": 0.9958333333333333
            },
            {
              "pitch": 67,
              "velocity": 45,
              "position": 8.010416666666666,
              "duration": 0.9895833333333334
            },
            {
              "pitch": 72,
              "velocity": 45,
              "position": 8.020833333333334,
              "duration": 0.9895833333333334
            },
            {
              "pitch": 58,
              "velocity": 92,
              "position": 9,
              "duration": 0.10416666666666667
            },
            {
              "pitch": 64,
              "velocity": 92,
              "position": 9,
              "duration": 0.11458333333333333
            },
            {
              "pitch": 67,
              "velocity": 92,
              "position": 9.010416666666666,
              "duration": 0.10416666666666667
            },
            {
              "pitch": 72,
              "velocity": 92,
              "position": 9.020833333333334,
              "duration": 0.10416666666666667
            },
            {
              "pitch": 57,
              "velocity": 45,
              "position": 10.333333333333334,
              "duration": 0.3229166666666667
            },
            {
              "pitch": 63,
              "velocity": 45,
              "position": 10.333333333333334,
              "duration": 0.32916666666666666
            },
            {
              "pitch": 67,
              "velocity": 45,
              "position": 10.34375,
              "duration": 0.3229166666666667
            },
            {
              "pitch": 72,
              "velocity": 45,
              "position": 10.354166666666666,
              "duration": 0.3229166666666667
            },
            {
              "pitch": 57,
              "velocity": 60,
              "position": 10.666666666666666,
              "duration": 0.3229166666666667
            },
            {
              "pitch": 63,
              "velocity": 60,
              "position": 10.666666666666666,
              "duration": 0.32916666666666666
            },
            {
              "pitch": 67,
              "velocity": 60,
              "position": 10.677083333333334,
              "duration": 0.3229166666666667
            },
            {
              "pitch": 72,
              "velocity": 60,
              "position": 10.6875,
              "duration": 0.3229166666666667
            },
            {
              "pitch": 57,
              "velocity": 92,
              "position": 11,
              "duration": 0.10416666666666667
            },
            {
              "pitch": 63,
              "velocity": 92,
              "position": 11,
              "duration": 0.11458333333333333
            },
            {
              "pitch": 67,
              "velocity": 92,
              "position": 11.010416666666666,
              "duration": 0.10416666666666667
            },
            {
              "pitch": 72,
              "velocity": 92,
              "position": 11.020833333333334,
              "duration": 0.10416666666666667
            },
            {
              "pitch": 58,
              "velocity": 45,
              "position": 12,
              "duration": 0.9895833333333334
            },
            {
              "pitch": 64,
              "velocity": 45,
              "position": 12,
              "duration": 0.9958333333333333
            },
            {
              "pitch": 67,
              "velocity": 45,
              "position": 12.010416666666666,
              "duration": 0.9895833333333334
            },
            {
              "pitch": 72,
              "velocity": 45,
              "position": 12.020833333333334,
              "duration": 0.9895833333333334
            },
            {
              "pitch": 58,
              "velocity": 92,
              "position": 13,
              "duration": 0.10416666666666667
            },
            {
              "pitch": 64,
              "velocity": 92,
              "position": 13,
              "duration": 0.11458333333333333
            },
            {
              "pitch": 67,
              "velocity": 92,
              "position": 13.010416666666666,
              "duration": 0.10416666666666667
            },
            {
              "pitch": 72,
              "velocity": 92,
              "position": 13.020833333333334,
              "duration": 0.10416666666666667
            },
            {
              "pitch": 53,
              "velocity": 92,
              "position": 13.666666666666666,
              "duration": 2.2708333333333335
            },
            {
              "pitch": 59,
              "velocity": 92,
              "position": 13.666666666666666,
              "duration": 2.2708333333333335
            },
            {
              "pitch": 62,
              "velocity": 92,
              "position": 13.677083333333334,
              "duration": 2.2604166666666665
            },
            {
              "pitch": 67,
              "velocity": 92,
              "position": 13.6875,
              "duration": 2.25
            }
          ]
        },
        "12": {
          "ctab": {
            "srcChannel": 12,
            "name": "Pno",
            "accType": "CHORD2",
            "editable": false,
            "mutedNotes": [],
            "mutedChords": [
              "dim7",
              "dim",
              "minMaj7(9)",
              "minMaj7",
              "min7(11)",
              "min7(9)",
              "min(9)",
              "m7b5",
              "min7",
              "min6",
              "min"
            ],
            "autoStart": false,
            "sourceChordNote": 0,
            "sourceChordType": "Maj7",
            "ctb2Low": null,
            "ctb2Main": {
              "ntr": "ROOT_TRANSPOSITION",
              "ntt": "BYPASS",
              "bassOn": false,
              "chordRootUpperLimit": 1,
              "noteLowLimit": 28,
              "noteHighLimit": 127,
              "rtr": "PITCH_SHIFT"
            },
            "ctb2High": null
          },
          "notes": [
            {
              "pitch": 63,
              "velocity": 83,
              "position": 0,
              "duration": 0.0625
            },
            {
              "pitch": 64,
              "velocity": 66,
              "position": 0.08333333333333333,
              "duration": 0.8333333333333334
            },
            {
              "pitch": 67,
              "velocity": 72,
              "position": 0,
              "duration": 0.9166666666666666
            },
            {
              "pitch": 70,
              "velocity": 67,
              "position": 0,
              "duration": 0.9166666666666666
            },
            {
              "pitch": 72,
              "velocity": 86,
              "position": 0,
              "duration": 0.9166666666666666
            },
            {
              "pitch": 63,
              "velocity": 116,
              "position": 1,
              "duration": 0.0625
            },
            {
              "pitch": 64,
              "velocity": 93,
              "position": 1.0833333333333333,
              "duration": 0.5
            },
            {
              "pitch": 67,
              "velocity": 93,
              "position": 1,
              "duration": 0.5833333333333334
            },
            {
              "pitch": 70,
              "velocity": 83,
              "position": 1,
              "duration": 0.5833333333333334
            },
            {
              "pitch": 72,
              "velocity": 93,
              "position": 1,
              "duration": 0.5833333333333334
            },
            {
              "pitch": 24,
              "velocity": 70,
              "position": 0,
              "duration": 1.9895833333333333
            },
            {
              "pitch": 60,
              "velocity": 74,
              "position": 1.3333333333333333,
              "duration": 0.7916666666666666
            },
            {
              "pitch": 60,
              "velocity": 55,
              "position": 2.3333333333333335,
              "duration": 0.16666666666666666
            },
            {
              "pitch": 65,
              "velocity": 59,
              "position": 1.6666666666666667,
              "duration": 1.25
            },
            {
              "pitch": 69,
              "velocity": 78,
              "position": 1.6666666666666667,
              "duration": 1.25
            },
            {
              "pitch": 72,
              "velocity": 81,
              "position": 1.6666666666666667,
              "duration": 1.25
            },
            {
              "pitch": 60,
              "velocity": 44,
              "position": 2.6666666666666665,
              "duration": 0.25
            },
            {
              "pitch": 24,
              "velocity": 43,
              "position": 2,
              "duration": 1.5479166666666666
            },
            {
              "pitch": 65,
              "velocity": 73,
              "position": 3,
              "duration": 0.5833333333333334
            },
            {
              "pitch": 69,
              "velocity": 73,
              "position": 3,
              "duration": 0.5833333333333334
            },
            {
              "pitch": 72,
              "velocity": 83,
              "position": 3,
              "duration": 0.5833333333333334
            },
            {
              "pitch": 60,
              "velocity": 52,
              "position": 3.3333333333333335,
              "duration": 0.2604166666666667
            },
            {
              "pitch": 63,
              "velocity": 95,
              "position": 3.6666666666666665,
              "duration": 0.1875
            },
            {
              "pitch": 24,
              "velocity": 62,
              "position": 3.5520833333333335,
              "duration": 0.4375
            },
            {
              "pitch": 64,
              "velocity": 39,
              "position": 3.75,
              "duration": 0.25
            },
            {
              "pitch": 24,
              "velocity": 52,
              "position": 4,
              "duration": 0.65625
            },
            {
              "pitch": 60,
              "velocity": 86,
              "position": 4,
              "duration": 0.9166666666666666
            },
            {
              "pitch": 67,
              "velocity": 54,
              "position": 3.6666666666666665,
              "duration": 1.25
            },
            {
              "pitch": 72,
              "velocity": 83,
              "position": 3.6666666666666665,
              "duration": 1.25
            },
            {
              "pitch": 66,
              "velocity": 88,
              "position": 5,
              "duration": 0.08333333333333333
            },
            {
              "pitch": 70,
              "velocity": 95,
              "position": 5,
              "duration": 0.5833333333333334
            },
            {
              "pitch": 72,
              "velocity": 100,
              "position": 5,
              "duration": 0.5833333333333334
            },
            {
              "pitch": 67,
              "velocity": 81,
              "position": 5.083333333333333,
              "duration": 0.5
            },
            {
              "pitch": 24,
              "velocity": 52,
              "position": 4.666666666666667,
              "duration": 1.3229166666666667
            },
            {
              "pitch": 60,
              "velocity": 64,
              "position": 5.333333333333333,
              "duration": 1.15625
            },
            {
              "pitch": 60,
              "velocity": 47,
              "position": 6.666666666666667,
              "duration": 0.25
            },
            {
              "pitch": 65,
              "velocity": 70,
              "position": 5.666666666666667,
              "duration": 1.25
            },
            {
              "pitch": 69,
              "velocity": 88,
              "position": 5.666666666666667,
              "duration": 1.25
            },
            {
              "pitch": 72,
              "velocity": 83,
              "position": 5.666666666666667,
              "duration": 1.25
            },
            {
              "pitch": 60,
              "velocity": 63,
              "position": 7.333333333333333,
              "duration": 0.11458333333333333
            },
            {
              "pitch": 24,
              "velocity": 60,
              "position": 6,
              "duration": 1.5479166666666666
            },
            {
              "pitch": 65,
              "velocity": 104,
              "position": 7,
              "duration": 0.5833333333333334
            },
            {
              "pitch": 69,
              "velocity": 98,
              "position": 7,
              "duration": 0.5833333333333334
            },
            {
              "pitch": 72,
              "velocity": 98,
              "position": 7,
              "duration": 0.5833333333333334
            },
            {
              "pitch": 24,
              "velocity": 60,
              "position": 7.552083333333333,
              "duration": 0.10416666666666667
            },
            {
              "pitch": 63,
              "velocity": 88,
              "position": 7.666666666666667,
              "duration": 0.09375
            },
            {
              "pitch": 31,
              "velocity": 83,
              "position": 7.666666666666667,
              "duration": 0.3229166666666667
            },
            {
              "pitch": 64,
              "velocity": 60,
              "position": 7.75,
              "duration": 0.2916666666666667
            },
            {
              "pitch": 60,
              "velocity": 88,
              "position": 8,
              "duration": 0.9166666666666666
            },
            {
              "pitch": 67,
              "velocity": 98,
              "position": 7.666666666666667,
              "duration": 1.25
            },
            {
              "pitch": 72,
              "velocity": 78,
              "position": 7.666666666666667,
              "duration": 1.25
            },
            {
              "pitch": 66,
              "velocity": 78,
              "position": 9,
              "duration": 0.0625
            },
            {
              "pitch": 67,
              "velocity": 65,
              "position": 9.083333333333334,
              "duration": 0.5
            },
            {
              "pitch": 70,
              "velocity": 83,
              "position": 9,
              "duration": 0.5833333333333334
            },
            {
              "pitch": 72,
              "velocity": 78,
              "position": 9,
              "duration": 0.5833333333333334
            },
            {
              "pitch": 60,
              "velocity": 63,
              "position": 9.333333333333334,
              "duration": 0.25
            },
            {
              "pitch": 24,
              "velocity": 66,
              "position": 8,
              "duration": 1.9895833333333333
            },
            {
              "pitch": 60,
              "velocity": 52,
              "position": 10.666666666666666,
              "duration": 0.23958333333333334
            },
            {
              "pitch": 65,
              "velocity": 95,
              "position": 9.666666666666666,
              "duration": 1.25
            },
            {
              "pitch": 69,
              "velocity": 93,
              "position": 9.666666666666666,
              "duration": 1.25
            },
            {
              "pitch": 72,
              "velocity": 95,
              "position": 9.666666666666666,
              "duration": 1.25
            },
            {
              "pitch": 24,
              "velocity": 93,
              "position": 10,
              "duration": 1.5479166666666666
            },
            {
              "pitch": 65,
              "velocity": 93,
              "position": 11,
              "duration": 0.5833333333333334
            },
            {
              "pitch": 69,
              "velocity": 95,
              "position": 11,
              "duration": 0.5833333333333334
            },
            {
              "pitch": 72,
              "velocity": 91,
              "position": 11,
              "duration": 0.5833333333333334
            },
            {
              "pitch": 60,
              "velocity": 57,
              "position": 11.333333333333334,
              "duration": 0.2916666666666667
            },
            {
              "pitch": 24,
              "velocity": 57,
              "position": 11.552083333333334,
              "duration": 0.10416666666666667
            },
            {
              "pitch": 63,
              "velocity": 88,
              "position": 11.666666666666666,
              "duration": 0.07291666666666667
            },
            {
              "pitch": 66,
              "velocity": 104,
              "position": 11.666666666666666,
              "duration": 0.08333333333333333
            },
            {
              "pitch": 31,
              "velocity": 72,
              "position": 11.666666666666666,
              "duration": 0.3229166666666667
            },
            {
              "pitch": 64,
              "velocity": 40,
              "position": 11.75,
              "duration": 0.28125
            },
            {
              "pitch": 60,
              "velocity": 83,
              "position": 12,
              "duration": 0.9166666666666666
            },
            {
              "pitch": 72,
              "velocity": 83,
              "position": 11.666666666666666,
              "duration": 1.25
            },
            {
              "pitch": 67,
              "velocity": 57,
              "position": 11.75,
              "duration": 1.1666666666666667
            },
            {
              "pitch": 60,
              "velocity": 49,
              "position": 13,
              "duration": 0.052083333333333336
            },
            {
              "pitch": 66,
              "velocity": 76,
              "position": 13,
              "duration": 0.07291666666666667
            },
            {
              "pitch": 67,
              "velocity": 72,
              "position": 13.083333333333334,
              "duration": 0.5
            },
            {
              "pitch": 70,
              "velocity": 83,
              "position": 13,
              "duration": 0.5833333333333334
            },
            {
              "pitch": 72,
              "velocity": 88,
              "position": 13,
              "duration": 0.5833333333333334
            },
            {
              "pitch": 24,
              "velocity": 67,
              "position": 12,
              "duration": 1.9895833333333333
            },
            {
              "pitch": 60,
              "velocity": 55,
              "position": 13.333333333333334,
              "duration": 0.75
            },
            {
              "pitch": 65,
              "velocity": 86,
              "position": 13.666666666666666,
              "duration": 2.25
            },
            {
              "pitch": 69,
              "velocity": 91,
              "position": 13.666666666666666,
              "duration": 2.25
            },
            {
              "pitch": 72,
              "velocity": 95,
              "position": 13.666666666666666,
              "duration": 2.25
            },
            {
              "pitch": 31,
              "velocity": 57,
              "position": 14,
              "duration": 1.9375
            }
          ]
        },
        "13": {
          "ctab": {
            "srcChannel": 13,
            "name": "Org",
            "accType": "PAD",
            "editable": false,
            "mutedNotes": [],
            "mutedChords": [
              "dim7",
              "dim",
              "minMaj7(9)",
              "minMaj7",
              "min7(11)",
              "min7(9)",
              "min(9)",
              "m7b5",
              "min7",
              "min6",
              "min"
            ],
            "autoStart": false,
            "sourceChordNote": 0,
            "sourceChordType": "Maj7",
            "ctb2Low": null,
            "ctb2Main": {
              "ntr": "ROOT_TRANSPOSITION",
              "ntt": "BYPASS",
              "bassOn": false,
              "chordRootUpperLimit": 8,
              "noteLowLimit": 48,
              "noteHighLimit": 79,
              "rtr": "PITCH_SHIFT"
            },
            "ctb2High": null
          },
          "notes": [
            {
              "pitch": 60,
              "velocity": 127,
              "position": 4,
              "duration": 3.53125
            },
            {
              "pitch": 52,
              "velocity": 127,
              "position": 7.645833333333333,
              "duration": 0.07291666666666667
            },
            {
              "pitch": 53,
              "velocity": 127,
              "position": 7.666666666666667,
              "duration": 0.07291666666666667
            },
            {
              "pitch": 54,
              "velocity": 127,
              "position": 7.677083333333333,
              "duration": 0.07291666666666667
            },
            {
              "pitch": 55,
              "velocity": 127,
              "position": 7.6875,
              "duration": 0.07291666666666667
            },
            {
              "pitch": 56,
              "velocity": 127,
              "position": 7.708333333333333,
              "duration": 0.07291666666666667
            },
            {
              "pitch": 57,
              "velocity": 127,
              "position": 7.71875,
              "duration": 0.07291666666666667
            },
            {
              "pitch": 58,
              "velocity": 127,
              "position": 7.729166666666667,
              "duration": 0.07291666666666667
            },
            {
              "pitch": 59,
              "velocity": 127,
              "position": 7.75,
              "duration": 0.07291666666666667
            },
            {
              "pitch": 60,
              "velocity": 127,
              "position": 7.760416666666667,
              "duration": 0.07291666666666667
            },
            {
              "pitch": 61,
              "velocity": 127,
              "position": 7.770833333333333,
              "duration": 0.07291666666666667
            },
            {
              "pitch": 62,
              "velocity": 127,
              "position": 7.791666666666667,
              "duration": 0.07291666666666667
            },
            {
              "pitch": 63,
              "velocity": 127,
              "position": 7.802083333333333,
              "duration": 0.07291666666666667
            },
            {
              "pitch": 64,
              "velocity": 127,
              "position": 7.8125,
              "duration": 0.07291666666666667
            },
            {
              "pitch": 65,
              "velocity": 127,
              "position": 7.833333333333333,
              "duration": 0.07291666666666667
            },
            {
              "pitch": 66,
              "velocity": 127,
              "position": 7.84375,
              "duration": 0.07291666666666667
            },
            {
              "pitch": 67,
              "velocity": 127,
              "position": 7.854166666666667,
              "duration": 0.07291666666666667
            },
            {
              "pitch": 68,
              "velocity": 127,
              "position": 7.875,
              "duration": 0.07291666666666667
            },
            {
              "pitch": 69,
              "velocity": 127,
              "position": 7.885416666666667,
              "duration": 0.07291666666666667
            },
            {
              "pitch": 70,
              "velocity": 127,
              "position": 7.895833333333333,
              "duration": 0.07291666666666667
            },
            {
              "pitch": 72,
              "velocity": 127,
              "position": 7.927083333333333,
              "duration": 0.0625
            },
            {
              "pitch": 73,
              "velocity": 127,
              "position": 7.9375,
              "duration": 0.052083333333333336
            },
            {
              "pitch": 75,
              "velocity": 127,
              "position": 7.96875,
              "duration": 0.020833333333333332
            },
            {
              "pitch": 77,
              "velocity": 127,
              "position": 7.96875,
              "duration": 0.020833333333333332
            },
            {
              "pitch": 71,
              "velocity": 127,
              "position": 7.916666666666667,
              "duration": 0.08333333333333333
            },
            {
              "pitch": 74,
              "velocity": 127,
              "position": 7.958333333333333,
              "duration": 0.041666666666666664
            },
            {
              "pitch": 79,
              "velocity": 127,
              "position": 8,
              "duration": 0.11458333333333333
            },
            {
              "pitch": 82,
              "velocity": 127,
              "position": 8.104166666666666,
              "duration": 0.08333333333333333
            },
            {
              "pitch": 78,
              "velocity": 127,
              "position": 11,
              "duration": 0.11458333333333333
            },
            {
              "pitch": 79,
              "velocity": 127,
              "position": 11,
              "duration": 0.3333333333333333
            },
            {
              "pitch": 82,
              "velocity": 127,
              "position": 11,
              "duration": 0.3333333333333333
            },
            {
              "pitch": 72,
              "velocity": 127,
              "position": 11.552083333333334,
              "duration": 0.03125
            },
            {
              "pitch": 77,
              "velocity": 127,
              "position": 11.333333333333334,
              "duration": 0.3333333333333333
            },
            {
              "pitch": 81,
              "velocity": 127,
              "position": 11.333333333333334,
              "duration": 0.3333333333333333
            },
            {
              "pitch": 84,
              "velocity": 127,
              "position": 8.21875,
              "duration": 3.53125
            },
            {
              "pitch": 75,
              "velocity": 127,
              "position": 11.666666666666666,
              "duration": 0.10416666666666667
            },
            {
              "pitch": 76,
              "velocity": 127,
              "position": 11.770833333333334,
              "duration": 0.21875
            },
            {
              "pitch": 79,
              "velocity": 127,
              "position": 11.666666666666666,
              "duration": 0.3333333333333333
            },
            {
              "pitch": 51,
              "velocity": 127,
              "position": 13,
              "duration": 1
            },
            {
              "pitch": 68,
              "velocity": 127,
              "position": 14,
              "duration": 0.010416666666666666
            },
            {
              "pitch": 70,
              "velocity": 127,
              "position": 13,
              "duration": 1.0208333333333333
            },
            {
              "pitch": 72,
              "velocity": 127,
              "position": 12,
              "duration": 3.8333333333333335
            },
            {
              "pitch": 52,
              "velocity": 127,
              "position": 14,
              "duration": 1.8333333333333333
            },
            {
              "pitch": 69,
              "velocity": 127,
              "position": 14,
              "duration": 1.8333333333333333
            }
          ]
        },
        "14": {
          "ctab": {
            "srcChannel": 14,
            "name": "ClGt",
            "accType": "PHRASE1",
            "editable": false,
            "mutedNotes": [],
            "mutedChords": [
              "dim7",
              "dim",
              "minMaj7(9)",
              "minMaj7",
              "min7(11)",
              "min7(9)",
              "min(9)",
              "m7b5",
              "min7",
              "min6",
              "min"
            ],
            "autoStart": false,
            "sourceChordNote": 0,
            "sourceChordType": "Maj7",
            "ctb2Low": null,
            "ctb2Main": {
              "ntr": "ROOT_TRANSPOSITION",
              "ntt": "BYPASS",
              "bassOn": false,
              "chordRootUpperLimit": 6,
              "noteLowLimit": 0,
              "noteHighLimit": 127,
              "rtr": "PITCH_SHIFT"
            },
            "ctb2High": null
          },
          "notes": [
            {
              "pitch": 72,
              "velocity": 119,
              "position": 1,
              "duration": 2.15625
            },
            {
              "pitch": 70,
              "velocity": 93,
              "position": 3.1666666666666665,
              "duration": 0.09375
            },
            {
              "pitch": 67,
              "velocity": 20,
              "position": 3.3333333333333335,
              "duration": 0.08333333333333333
            },
            {
              "pitch": 67,
              "velocity": 20,
              "position": 3.5,
              "duration": 0.25
            },
            {
              "pitch": 63,
              "velocity": 93,
              "position": 3.75,
              "duration": 0.07291666666666667
            },
            {
              "pitch": 60,
              "velocity": 20,
              "position": 3.8333333333333335,
              "duration": 0.07291666666666667
            },
            {
              "pitch": 58,
              "velocity": 95,
              "position": 3.9166666666666665,
              "duration": 0.07291666666666667
            },
            {
              "pitch": 63,
              "velocity": 20,
              "position": 4,
              "duration": 0.13541666666666666
            },
            {
              "pitch": 64,
              "velocity": 95,
              "position": 4.145833333333333,
              "duration": 0.10416666666666667
            },
            {
              "pitch": 60,
              "velocity": 112,
              "position": 4.260416666666667,
              "duration": 2.2291666666666665
            },
            {
              "pitch": 55,
              "velocity": 90,
              "position": 6.5,
              "duration": 0.10416666666666667
            },
            {
              "pitch": 60,
              "velocity": 39,
              "position": 6.666666666666667,
              "duration": 0.25
            },
            {
              "pitch": 60,
              "velocity": 120,
              "position": 7,
              "duration": 0.9895833333333334
            },
            {
              "pitch": 65,
              "velocity": 120,
              "position": 7,
              "duration": 0.9895833333333334
            },
            {
              "pitch": 55,
              "velocity": 118,
              "position": 8,
              "duration": 1.8958333333333333
            },
            {
              "pitch": 60,
              "velocity": 118,
              "position": 8,
              "duration": 1.8958333333333333
            },
            {
              "pitch": 57,
              "velocity": 13,
              "position": 10,
              "duration": 0.15625
            },
            {
              "pitch": 60,
              "velocity": 13,
              "position": 10.166666666666666,
              "duration": 0.15625
            },
            {
              "pitch": 58,
              "velocity": 57,
              "position": 10.333333333333334,
              "duration": 0.3229166666666667
            },
            {
              "pitch": 60,
              "velocity": 13,
              "position": 10.666666666666666,
              "duration": 0.9895833333333334
            },
            {
              "pitch": 57,
              "velocity": 20,
              "position": 11.666666666666666,
              "duration": 0.4375
            },
            {
              "pitch": 62,
              "velocity": 20,
              "position": 11.666666666666666,
              "duration": 0.4375
            },
            {
              "pitch": 60,
              "velocity": 112,
              "position": 12.114583333333334,
              "duration": 0.43333333333333335
            },
            {
              "pitch": 65,
              "velocity": 112,
              "position": 12.114583333333334,
              "duration": 0.4375
            },
            {
              "pitch": 55,
              "velocity": 13,
              "position": 12.552083333333334,
              "duration": 1.1041666666666667
            },
            {
              "pitch": 60,
              "velocity": 13,
              "position": 12.552083333333334,
              "duration": 1.1041666666666667
            },
            {
              "pitch": 58,
              "velocity": 60,
              "position": 13.666666666666666,
              "duration": 0.10416666666666667
            },
            {
              "pitch": 55,
              "velocity": 35,
              "position": 13.770833333333334,
              "duration": 0.11458333333333333
            },
            {
              "pitch": 54,
              "velocity": 91,
              "position": 13.885416666666666,
              "duration": 0.10416666666666667
            },
            {
              "pitch": 53,
              "velocity": 99,
              "position": 14,
              "duration": 0.3229166666666667
            },
            {
              "pitch": 51,
              "velocity": 13,
              "position": 14.333333333333334,
              "duration": 0.3229166666666667
            },
            {
              "pitch": 55,
              "velocity": 119,
              "position": 14.666666666666666,
              "duration": 1.25
            }
          ]
        },
        "15": {
          "ctab": {
            "srcChannel": 15,
            "name": "EP",
            "accType": "PHRASE2",
            "editable": false,
            "mutedNotes": [],
            "mutedChords": [
              "dim7",
              "dim",
              "minMaj7(9)",
              "minMaj7",
              "min7(11)",
              "min7(9)",
              "min(9)",
              "m7b5",
              "min7",
              "min6",
              "min"
            ],
            "autoStart": false,
            "sourceChordNote": 0,
            "sourceChordType": "Maj7",
            "ctb2Low": null,
            "ctb2Main": {
              "ntr": "ROOT_TRANSPOSITION",
              "ntt": "BYPASS",
              "bassOn": false,
              "chordRootUpperLimit": 8,
              "noteLowLimit": 54,
              "noteHighLimit": 65,
              "rtr": "PITCH_SHIFT"
            },
            "ctb2High": null
          },
          "notes": [
            {
              "pitch": 65,
              "velocity": 30,
              "position": 2.3333333333333335,
              "duration": 0.20833333333333334
            },
            {
              "pitch": 57,
              "velocity": 30,
              "position": 2.3333333333333335,
              "duration": 0.21875
            },
            {
              "pitch": 60,
              "velocity": 30,
              "position": 2.3333333333333335,
              "duration": 0.21875
            },
            {
              "pitch": 57,
              "velocity": 36,
              "position": 2.6666666666666665,
              "duration": 0.2708333333333333
            },
            {
              "pitch": 60,
              "velocity": 36,
              "position": 2.6666666666666665,
              "duration": 0.2708333333333333
            },
            {
              "pitch": 65,
              "velocity": 36,
              "position": 2.6666666666666665,
              "duration": 0.2708333333333333
            },
            {
              "pitch": 65,
              "velocity": 43,
              "position": 3,
              "duration": 0.22916666666666666
            },
            {
              "pitch": 57,
              "velocity": 43,
              "position": 3,
              "duration": 0.25
            },
            {
              "pitch": 60,
              "velocity": 43,
              "position": 3,
              "duration": 0.2604166666666667
            },
            {
              "pitch": 65,
              "velocity": 49,
              "position": 3.3333333333333335,
              "duration": 0.21875
            },
            {
              "pitch": 57,
              "velocity": 49,
              "position": 3.3333333333333335,
              "duration": 0.25
            },
            {
              "pitch": 60,
              "velocity": 49,
              "position": 3.3333333333333335,
              "duration": 0.25
            },
            {
              "pitch": 60,
              "velocity": 56,
              "position": 3.6666666666666665,
              "duration": 0.2604166666666667
            },
            {
              "pitch": 57,
              "velocity": 56,
              "position": 3.6666666666666665,
              "duration": 0.2916666666666667
            },
            {
              "pitch": 65,
              "velocity": 56,
              "position": 3.6666666666666665,
              "duration": 0.3020833333333333
            },
            {
              "pitch": 58,
              "velocity": 22,
              "position": 4,
              "duration": 0.8333333333333334
            },
            {
              "pitch": 64,
              "velocity": 52,
              "position": 4,
              "duration": 0.8333333333333334
            },
            {
              "pitch": 60,
              "velocity": 52,
              "position": 4,
              "duration": 0.8645833333333334
            },
            {
              "pitch": 58,
              "velocity": 70,
              "position": 5,
              "duration": 0.11458333333333333
            },
            {
              "pitch": 60,
              "velocity": 62,
              "position": 5,
              "duration": 0.11458333333333333
            },
            {
              "pitch": 64,
              "velocity": 63,
              "position": 5,
              "duration": 0.125
            },
            {
              "pitch": 65,
              "velocity": 62,
              "position": 5.666666666666667,
              "duration": 0.4375
            },
            {
              "pitch": 57,
              "velocity": 44,
              "position": 5.666666666666667,
              "duration": 0.46875
            },
            {
              "pitch": 60,
              "velocity": 49,
              "position": 5.666666666666667,
              "duration": 0.4791666666666667
            },
            {
              "pitch": 65,
              "velocity": 40,
              "position": 6.333333333333333,
              "duration": 0.2604166666666667
            },
            {
              "pitch": 57,
              "velocity": 36,
              "position": 6.333333333333333,
              "duration": 0.2708333333333333
            },
            {
              "pitch": 60,
              "velocity": 40,
              "position": 6.333333333333333,
              "duration": 0.2708333333333333
            },
            {
              "pitch": 57,
              "velocity": 57,
              "position": 6.666666666666667,
              "duration": 0.25
            },
            {
              "pitch": 60,
              "velocity": 36,
              "position": 6.666666666666667,
              "duration": 0.25
            },
            {
              "pitch": 65,
              "velocity": 60,
              "position": 6.666666666666667,
              "duration": 0.2604166666666667
            },
            {
              "pitch": 57,
              "velocity": 98,
              "position": 7,
              "duration": 0.19791666666666666
            },
            {
              "pitch": 60,
              "velocity": 78,
              "position": 7,
              "duration": 0.20833333333333334
            },
            {
              "pitch": 65,
              "velocity": 72,
              "position": 7,
              "duration": 0.20833333333333334
            },
            {
              "pitch": 57,
              "velocity": 38,
              "position": 7.333333333333333,
              "duration": 0.20833333333333334
            },
            {
              "pitch": 65,
              "velocity": 60,
              "position": 7.333333333333333,
              "duration": 0.20833333333333334
            },
            {
              "pitch": 60,
              "velocity": 46,
              "position": 7.333333333333333,
              "duration": 0.22916666666666666
            },
            {
              "pitch": 60,
              "velocity": 59,
              "position": 7.666666666666667,
              "duration": 0.21875
            },
            {
              "pitch": 57,
              "velocity": 51,
              "position": 7.666666666666667,
              "duration": 0.25
            },
            {
              "pitch": 65,
              "velocity": 57,
              "position": 7.666666666666667,
              "duration": 0.2916666666666667
            },
            {
              "pitch": 64,
              "velocity": 67,
              "position": 8,
              "duration": 0.2604166666666667
            },
            {
              "pitch": 58,
              "velocity": 62,
              "position": 8,
              "duration": 0.3020833333333333
            },
            {
              "pitch": 60,
              "velocity": 70,
              "position": 8,
              "duration": 0.3125
            },
            {
              "pitch": 58,
              "velocity": 38,
              "position": 8.666666666666666,
              "duration": 0.25
            },
            {
              "pitch": 60,
              "velocity": 35,
              "position": 8.666666666666666,
              "duration": 0.25
            },
            {
              "pitch": 64,
              "velocity": 47,
              "position": 8.666666666666666,
              "duration": 0.25
            },
            {
              "pitch": 58,
              "velocity": 88,
              "position": 9,
              "duration": 0.14583333333333334
            },
            {
              "pitch": 60,
              "velocity": 91,
              "position": 9,
              "duration": 0.14583333333333334
            },
            {
              "pitch": 64,
              "velocity": 78,
              "position": 9,
              "duration": 0.14583333333333334
            },
            {
              "pitch": 57,
              "velocity": 73,
              "position": 9.666666666666666,
              "duration": 0.19791666666666666
            },
            {
              "pitch": 65,
              "velocity": 66,
              "position": 9.666666666666666,
              "duration": 0.19791666666666666
            },
            {
              "pitch": 60,
              "velocity": 60,
              "position": 9.666666666666666,
              "duration": 0.20833333333333334
            },
            {
              "pitch": 57,
              "velocity": 36,
              "position": 10,
              "duration": 0.4895833333333333
            },
            {
              "pitch": 65,
              "velocity": 54,
              "position": 10,
              "duration": 0.4895833333333333
            },
            {
              "pitch": 60,
              "velocity": 20,
              "position": 10,
              "duration": 0.5
            },
            {
              "pitch": 57,
              "velocity": 25,
              "position": 10.666666666666666,
              "duration": 0.21875
            },
            {
              "pitch": 65,
              "velocity": 46,
              "position": 10.666666666666666,
              "duration": 0.21875
            },
            {
              "pitch": 60,
              "velocity": 12,
              "position": 10.666666666666666,
              "duration": 0.22916666666666666
            },
            {
              "pitch": 65,
              "velocity": 63,
              "position": 11,
              "duration": 0.1875
            },
            {
              "pitch": 57,
              "velocity": 62,
              "position": 11,
              "duration": 0.19791666666666666
            },
            {
              "pitch": 60,
              "velocity": 63,
              "position": 11,
              "duration": 0.21875
            },
            {
              "pitch": 65,
              "velocity": 72,
              "position": 11.333333333333334,
              "duration": 0.20833333333333334
            },
            {
              "pitch": 57,
              "velocity": 55,
              "position": 11.333333333333334,
              "duration": 0.21875
            },
            {
              "pitch": 60,
              "velocity": 52,
              "position": 11.333333333333334,
              "duration": 0.21875
            },
            {
              "pitch": 60,
              "velocity": 54,
              "position": 11.666666666666666,
              "duration": 0.20833333333333334
            },
            {
              "pitch": 57,
              "velocity": 55,
              "position": 11.666666666666666,
              "duration": 0.25
            },
            {
              "pitch": 65,
              "velocity": 66,
              "position": 11.666666666666666,
              "duration": 0.2708333333333333
            },
            {
              "pitch": 64,
              "velocity": 51,
              "position": 12,
              "duration": 0.2604166666666667
            },
            {
              "pitch": 58,
              "velocity": 30,
              "position": 12,
              "duration": 0.2916666666666667
            },
            {
              "pitch": 60,
              "velocity": 47,
              "position": 12,
              "duration": 0.3125
            },
            {
              "pitch": 58,
              "velocity": 19,
              "position": 12.666666666666666,
              "duration": 0.16666666666666666
            },
            {
              "pitch": 60,
              "velocity": 30,
              "position": 12.666666666666666,
              "duration": 0.16666666666666666
            },
            {
              "pitch": 64,
              "velocity": 35,
              "position": 12.666666666666666,
              "duration": 0.17708333333333334
            },
            {
              "pitch": 64,
              "velocity": 67,
              "position": 13,
              "duration": 0.14583333333333334
            },
            {
              "pitch": 58,
              "velocity": 70,
              "position": 13,
              "duration": 0.15625
            },
            {
              "pitch": 60,
              "velocity": 60,
              "position": 13,
              "duration": 0.15625
            },
            {
              "pitch": 65,
              "velocity": 49,
              "position": 13.666666666666666,
              "duration": 0.19791666666666666
            },
            {
              "pitch": 57,
              "velocity": 44,
              "position": 13.666666666666666,
              "duration": 0.20833333333333334
            },
            {
              "pitch": 60,
              "velocity": 49,
              "position": 13.666666666666666,
              "duration": 0.20833333333333334
            },
            {
              "pitch": 57,
              "velocity": 40,
              "position": 14,
              "duration": 1.9895833333333333
            },
            {
              "pitch": 60,
              "velocity": 28,
              "position": 14,
              "duration": 1.9895833333333333
            },
            {
              "pitch": 65,
              "velocity": 44,
              "position": 14,
              "duration": 1.9895833333333333
            }
          ]
        }
      }
    },
    "Intro_C": {
      "type": "Intro_C",
      "sizeInBeats": 16,
      "channels": {
        "1": {
          "ctab": {
            "srcChannel": 1,
            "name": "Bass",
            "accType": "BASS",
            "editable": false,
            "mutedNotes": [],
            "mutedChords": [
              "1+2+5",
              "sus4",
              "1+5",
              "1+8",
              "7aug",
              "Maj7aug",
              "7(#9)",
              "7(b13)",
              "7(b9)",
              "7(13)",
              "7#11",
              "7(9)",
              "7b5",
              "7sus4",
              "7th",
              "aug",
              "Maj6(9)",
              "Maj7(9)",
              "Maj(9)",
              "Maj7#11",
              "Maj7",
              "Maj6",
              "Maj"
            ],
            "autoStart": false,
            "sourceChordNote": 0,
            "sourceChordType": "Maj7",
            "ctb2Low": null,
            "ctb2Main": {
              "ntr": "ROOT_TRANSPOSITION",
              "ntt": "BYPASS",
              "bassOn": false,
              "chordRootUpperLimit": 8,
              "noteLowLimit": 28,
              "noteHighLimit": 127,
              "rtr": "PITCH_SHIFT"
            },
            "ctb2High": null
          },
          "notes": [
            {
              "pitch": 24,
              "velocity": 100,
              "position": 0,
              "duration": 1.65625
            },
            {
              "pitch": 27,
              "velocity": 80,
              "position": 1.6666666666666667,
              "duration": 0.3229166666666667
            },
            {
              "pitch": 29,
              "velocity": 100,
              "position": 2,
              "duration": 1.65625
            },
            {
              "pitch": 31,
              "velocity": 80,
              "position": 3.6666666666666665,
              "duration": 0.3229166666666667
            },
            {
              "pitch": 24,
              "velocity": 100,
              "position": 4,
              "duration": 1.65625
            },
            {
              "pitch": 27,
              "velocity": 80,
              "position": 5.666666666666667,
              "duration": 0.3229166666666667
            },
            {
              "pitch": 31,
              "velocity": 100,
              "position": 6,
              "duration": 0.9895833333333334
            },
            {
              "pitch": 24,
              "velocity": 100,
              "position": 7,
              "duration": 0.3229166666666667
            },
            {
              "pitch": 27,
              "velocity": 80,
              "position": 7.333333333333333,
              "duration": 0.3229166666666667
            },
            {
              "pitch": 29,
              "velocity": 80,
              "position": 7.666666666666667,
              "duration": 0.3229166666666667
            },
            {
              "pitch": 31,
              "velocity": 100,
              "position": 8,
              "duration": 1.3229166666666667
            },
            {
              "pitch": 31,
              "velocity": 80,
              "position": 9.333333333333334,
              "duration": 0.3229166666666667
            },
            {
              "pitch": 30,
              "velocity": 80,
              "position": 9.666666666666666,
              "duration": 0.3229166666666667
            },
            {
              "pitch": 29,
              "velocity": 100,
              "position": 10,
              "duration": 1.65625
            },
            {
              "pitch": 29,
              "velocity": 80,
              "position": 11.666666666666666,
              "duration": 0.3229166666666667
            },
            {
              "pitch": 24,
              "velocity": 100,
              "position": 12,
              "duration": 0.65625
            },
            {
              "pitch": 24,
              "velocity": 80,
              "position": 12.666666666666666,
              "duration": 0.3229166666666667
            },
            {
              "pitch": 27,
              "velocity": 100,
              "position": 13,
              "duration": 0.65625
            },
            {
              "pitch": 29,
              "velocity": 80,
              "position": 13.666666666666666,
              "duration": 0.3229166666666667
            },
            {
              "pitch": 31,
              "velocity": 100,
              "position": 14,
              "duration": 0.3229166666666667
            },
            {
              "pitch": 31,
              "velocity": 80,
              "position": 14.333333333333334,
              "duration": 0.3229166666666667
            },
            {
              "pitch": 31,
              "velocity": 80,
              "position": 14.666666666666666,
              "duration": 0.3229166666666667
            },
            {
              "pitch": 31,
              "velocity": 100,
              "position": 15,
              "duration": 0.3229166666666667
            },
            {
              "pitch": 34,
              "velocity": 80,
              "position": 15.333333333333334,
              "duration": 0.3229166666666667
            },
            {
              "pitch": 36,
              "velocity": 80,
              "position": 15.666666666666666,
              "duration": 0.3229166666666667
            }
          ]
        },
        "2": {
          "ctab": {
            "srcChannel": 2,
            "name": "60sCln",
            "accType": "CHORD1",
            "editable": false,
            "mutedNotes": [],
            "mutedChords": [
              "1+2+5",
              "sus4",
              "1+5",
              "1+8",
              "7aug",
              "Maj7aug",
              "7(#9)",
              "7(b13)",
              "7(b9)",
              "7(13)",
              "7#11",
              "7(9)",
              "7b5",
              "7sus4",
              "7th",
              "aug",
              "Maj6(9)",
              "Maj7(9)",
              "Maj(9)",
              "Maj7#11",
              "Maj7",
              "Maj6",
              "Maj"
            ],
            "autoStart": false,
            "sourceChordNote": 0,
            "sourceChordType": "Maj7",
            "ctb2Low": null,
            "ctb2Main": {
              "ntr": "ROOT_TRANSPOSITION",
              "ntt": "BYPASS",
              "bassOn": false,
              "chordRootUpperLimit": 8,
              "noteLowLimit": 0,
              "noteHighLimit": 127,
              "rtr": "PITCH_SHIFT"
            },
            "ctb2High": null
          },
          "notes": [
            {
              "pitch": 58,
              "velocity": 80,
              "position": 0,
              "duration": 0.3229166666666667
            },
            {
              "pitch": 63,
              "velocity": 80,
              "position": 0,
              "duration": 0.32916666666666666
            },
            {
              "pitch": 67,
              "velocity": 80,
              "position": 0.010416666666666666,
              "duration": 0.3229166666666667
            },
            {
              "pitch": 72,
              "velocity": 80,
              "position": 0.020833333333333332,
              "duration": 0.3229166666666667
            },
            {
              "pitch": 58,
              "velocity": 40,
              "position": 0.3333333333333333,
              "duration": 0.3229166666666667
            },
            {
              "pitch": 63,
              "velocity": 40,
              "position": 0.3333333333333333,
              "duration": 0.32916666666666666
            },
            {
              "pitch": 67,
              "velocity": 40,
              "position": 0.34375,
              "duration": 0.3229166666666667
            },
            {
              "pitch": 72,
              "velocity": 40,
              "position": 0.3541666666666667,
              "duration": 0.3229166666666667
            },
            {
              "pitch": 58,
              "velocity": 60,
              "position": 0.6666666666666666,
              "duration": 0.3229166666666667
            },
            {
              "pitch": 63,
              "velocity": 60,
              "position": 0.6666666666666666,
              "duration": 0.32916666666666666
            },
            {
              "pitch": 67,
              "velocity": 60,
              "position": 0.6770833333333334,
              "duration": 0.3229166666666667
            },
            {
              "pitch": 72,
              "velocity": 60,
              "position": 0.6875,
              "duration": 0.3229166666666667
            },
            {
              "pitch": 58,
              "velocity": 100,
              "position": 1,
              "duration": 0.08333333333333333
            },
            {
              "pitch": 63,
              "velocity": 100,
              "position": 1,
              "duration": 0.08333333333333333
            },
            {
              "pitch": 67,
              "velocity": 100,
              "position": 1.0104166666666667,
              "duration": 0.08333333333333333
            },
            {
              "pitch": 72,
              "velocity": 100,
              "position": 1.0208333333333333,
              "duration": 0.08333333333333333
            },
            {
              "pitch": 58,
              "velocity": 60,
              "position": 1.3333333333333333,
              "duration": 0.010416666666666666
            },
            {
              "pitch": 63,
              "velocity": 60,
              "position": 1.3333333333333333,
              "duration": 0.010416666666666666
            },
            {
              "pitch": 67,
              "velocity": 60,
              "position": 1.34375,
              "duration": 0.010416666666666666
            },
            {
              "pitch": 72,
              "velocity": 60,
              "position": 1.3541666666666667,
              "duration": 0.010416666666666666
            },
            {
              "pitch": 58,
              "velocity": 80,
              "position": 1.6666666666666667,
              "duration": 0.3229166666666667
            },
            {
              "pitch": 63,
              "velocity": 80,
              "position": 1.6666666666666667,
              "duration": 0.32916666666666666
            },
            {
              "pitch": 57,
              "velocity": 40,
              "position": 2,
              "duration": 0.3229166666666667
            },
            {
              "pitch": 63,
              "velocity": 40,
              "position": 2,
              "duration": 0.32916666666666666
            },
            {
              "pitch": 67,
              "velocity": 80,
              "position": 1.6770833333333333,
              "duration": 0.65625
            },
            {
              "pitch": 72,
              "velocity": 80,
              "position": 1.6875,
              "duration": 0.65625
            },
            {
              "pitch": 57,
              "velocity": 40,
              "position": 2.3333333333333335,
              "duration": 0.3229166666666667
            },
            {
              "pitch": 63,
              "velocity": 40,
              "position": 2.3333333333333335,
              "duration": 0.32916666666666666
            },
            {
              "pitch": 67,
              "velocity": 40,
              "position": 2.34375,
              "duration": 0.3229166666666667
            },
            {
              "pitch": 72,
              "velocity": 40,
              "position": 2.3541666666666665,
              "duration": 0.3229166666666667
            },
            {
              "pitch": 57,
              "velocity": 60,
              "position": 2.6666666666666665,
              "duration": 0.3229166666666667
            },
            {
              "pitch": 63,
              "velocity": 60,
              "position": 2.6666666666666665,
              "duration": 0.32916666666666666
            },
            {
              "pitch": 67,
              "velocity": 60,
              "position": 2.6770833333333335,
              "duration": 0.3229166666666667
            },
            {
              "pitch": 72,
              "velocity": 60,
              "position": 2.6875,
              "duration": 0.3229166666666667
            },
            {
              "pitch": 57,
              "velocity": 100,
              "position": 3,
              "duration": 0.08333333333333333
            },
            {
              "pitch": 63,
              "velocity": 100,
              "position": 3,
              "duration": 0.08333333333333333
            },
            {
              "pitch": 67,
              "velocity": 100,
              "position": 3.0104166666666665,
              "duration": 0.08333333333333333
            },
            {
              "pitch": 72,
              "velocity": 100,
              "position": 3.0208333333333335,
              "duration": 0.08333333333333333
            },
            {
              "pitch": 56,
              "velocity": 60,
              "position": 3.3333333333333335,
              "duration": 0.010416666666666666
            },
            {
              "pitch": 62,
              "velocity": 60,
              "position": 3.3333333333333335,
              "duration": 0.010416666666666666
            },
            {
              "pitch": 66,
              "velocity": 60,
              "position": 3.34375,
              "duration": 0.010416666666666666
            },
            {
              "pitch": 71,
              "velocity": 60,
              "position": 3.3541666666666665,
              "duration": 0.010416666666666666
            },
            {
              "pitch": 57,
              "velocity": 100,
              "position": 3.6666666666666665,
              "duration": 0.3229166666666667
            },
            {
              "pitch": 63,
              "velocity": 100,
              "position": 3.6666666666666665,
              "duration": 0.32916666666666666
            },
            {
              "pitch": 67,
              "velocity": 100,
              "position": 3.6770833333333335,
              "duration": 0.3229166666666667
            },
            {
              "pitch": 72,
              "velocity": 100,
              "position": 3.6875,
              "duration": 0.3229166666666667
            },
            {
              "pitch": 58,
              "velocity": 40,
              "position": 4,
              "duration": 0.3229166666666667
            },
            {
              "pitch": 63,
              "velocity": 40,
              "position": 4,
              "duration": 0.32916666666666666
            },
            {
              "pitch": 67,
              "velocity": 40,
              "position": 4.010416666666667,
              "duration": 0.3229166666666667
            },
            {
              "pitch": 72,
              "velocity": 40,
              "position": 4.020833333333333,
              "duration": 0.3229166666666667
            },
            {
              "pitch": 58,
              "velocity": 40,
              "position": 4.333333333333333,
              "duration": 0.3229166666666667
            },
            {
              "pitch": 63,
              "velocity": 40,
              "position": 4.333333333333333,
              "duration": 0.32916666666666666
            },
            {
              "pitch": 67,
              "velocity": 40,
              "position": 4.34375,
              "duration": 0.3229166666666667
            },
            {
              "pitch": 72,
              "velocity": 40,
              "position": 4.354166666666667,
              "duration": 0.3229166666666667
            },
            {
              "pitch": 58,
              "velocity": 60,
              "position": 4.666666666666667,
              "duration": 0.3229166666666667
            },
            {
              "pitch": 63,
              "velocity": 60,
              "position": 4.666666666666667,
              "duration": 0.32916666666666666
            },
            {
              "pitch": 67,
              "velocity": 60,
              "position": 4.677083333333333,
              "duration": 0.3229166666666667
            },
            {
              "pitch": 72,
              "velocity": 60,
              "position": 4.6875,
              "duration": 0.3229166666666667
            },
            {
              "pitch": 58,
              "velocity": 100,
              "position": 5,
              "duration": 0.08333333333333333
            },
            {
              "pitch": 63,
              "velocity": 100,
              "position": 5,
              "duration": 0.08333333333333333
            },
            {
              "pitch": 67,
              "velocity": 100,
              "position": 5.010416666666667,
              "duration": 0.08333333333333333
            },
            {
              "pitch": 72,
              "velocity": 100,
              "position": 5.020833333333333,
              "duration": 0.08333333333333333
            },
            {
              "pitch": 58,
              "velocity": 60,
              "position": 5.333333333333333,
              "duration": 0.010416666666666666
            },
            {
              "pitch": 63,
              "velocity": 60,
              "position": 5.333333333333333,
              "duration": 0.010416666666666666
            },
            {
              "pitch": 67,
              "velocity": 60,
              "position": 5.34375,
              "duration": 0.010416666666666666
            },
            {
              "pitch": 72,
              "velocity": 60,
              "position": 5.354166666666667,
              "duration": 0.010416666666666666
            },
            {
              "pitch": 58,
              "velocity": 80,
              "position": 5.666666666666667,
              "duration": 0.65625
            },
            {
              "pitch": 63,
              "velocity": 80,
              "position": 5.666666666666667,
              "duration": 0.6625
            },
            {
              "pitch": 67,
              "velocity": 80,
              "position": 5.677083333333333,
              "duration": 0.65625
            },
            {
              "pitch": 72,
              "velocity": 80,
              "position": 5.6875,
              "duration": 0.65625
            },
            {
              "pitch": 58,
              "velocity": 40,
              "position": 6.333333333333333,
              "duration": 0.3229166666666667
            },
            {
              "pitch": 63,
              "velocity": 40,
              "position": 6.333333333333333,
              "duration": 0.32916666666666666
            },
            {
              "pitch": 67,
              "velocity": 40,
              "position": 6.34375,
              "duration": 0.3229166666666667
            },
            {
              "pitch": 72,
              "velocity": 40,
              "position": 6.354166666666667,
              "duration": 0.3229166666666667
            },
            {
              "pitch": 58,
              "velocity": 60,
              "position": 6.666666666666667,
              "duration": 0.3229166666666667
            },
            {
              "pitch": 63,
              "velocity": 60,
              "position": 6.666666666666667,
              "duration": 0.32916666666666666
            },
            {
              "pitch": 67,
              "velocity": 60,
              "position": 6.677083333333333,
              "duration": 0.3229166666666667
            },
            {
              "pitch": 72,
              "velocity": 60,
              "position": 6.6875,
              "duration": 0.3229166666666667
            },
            {
              "pitch": 58,
              "velocity": 100,
              "position": 7,
              "duration": 0.08333333333333333
            },
            {
              "pitch": 63,
              "velocity": 100,
              "position": 7,
              "duration": 0.08333333333333333
            },
            {
              "pitch": 67,
              "velocity": 100,
              "position": 7.010416666666667,
              "duration": 0.08333333333333333
            },
            {
              "pitch": 72,
              "velocity": 100,
              "position": 7.020833333333333,
              "duration": 0.08333333333333333
            },
            {
              "pitch": 58,
              "velocity": 60,
              "position": 7.333333333333333,
              "duration": 0.010416666666666666
            },
            {
              "pitch": 63,
              "velocity": 60,
              "position": 7.333333333333333,
              "duration": 0.010416666666666666
            },
            {
              "pitch": 67,
              "velocity": 60,
              "position": 7.34375,
              "duration": 0.010416666666666666
            },
            {
              "pitch": 72,
              "velocity": 60,
              "position": 7.354166666666667,
              "duration": 0.010416666666666666
            },
            {
              "pitch": 58,
              "velocity": 60,
              "position": 7.666666666666667,
              "duration": 0.010416666666666666
            },
            {
              "pitch": 63,
              "velocity": 60,
              "position": 7.666666666666667,
              "duration": 0.010416666666666666
            },
            {
              "pitch": 67,
              "velocity": 60,
              "position": 7.677083333333333,
              "duration": 0.010416666666666666
            },
            {
              "pitch": 72,
              "velocity": 60,
              "position": 7.6875,
              "duration": 0.010416666666666666
            },
            {
              "pitch": 53,
              "velocity": 80,
              "position": 8,
              "duration": 0.3229166666666667
            },
            {
              "pitch": 59,
              "velocity": 80,
              "position": 8,
              "duration": 0.32916666666666666
            },
            {
              "pitch": 62,
              "velocity": 80,
              "position": 8.010416666666666,
              "duration": 0.3229166666666667
            },
            {
              "pitch": 67,
              "velocity": 80,
              "position": 8.020833333333334,
              "duration": 0.3229166666666667
            },
            {
              "pitch": 53,
              "velocity": 40,
              "position": 8.333333333333334,
              "duration": 0.3229166666666667
            },
            {
              "pitch": 59,
              "velocity": 40,
              "position": 8.333333333333334,
              "duration": 0.32916666666666666
            },
            {
              "pitch": 62,
              "velocity": 40,
              "position": 8.34375,
              "duration": 0.3229166666666667
            },
            {
              "pitch": 67,
              "velocity": 40,
              "position": 8.354166666666666,
              "duration": 0.3229166666666667
            },
            {
              "pitch": 53,
              "velocity": 60,
              "position": 8.666666666666666,
              "duration": 0.3229166666666667
            },
            {
              "pitch": 59,
              "velocity": 60,
              "position": 8.666666666666666,
              "duration": 0.32916666666666666
            },
            {
              "pitch": 62,
              "velocity": 60,
              "position": 8.677083333333334,
              "duration": 0.3229166666666667
            },
            {
              "pitch": 67,
              "velocity": 60,
              "position": 8.6875,
              "duration": 0.3229166666666667
            },
            {
              "pitch": 53,
              "velocity": 100,
              "position": 9,
              "duration": 0.08333333333333333
            },
            {
              "pitch": 59,
              "velocity": 100,
              "position": 9,
              "duration": 0.08333333333333333
            },
            {
              "pitch": 62,
              "velocity": 100,
              "position": 9.010416666666666,
              "duration": 0.08333333333333333
            },
            {
              "pitch": 67,
              "velocity": 100,
              "position": 9.020833333333334,
              "duration": 0.08333333333333333
            },
            {
              "pitch": 53,
              "velocity": 60,
              "position": 9.333333333333334,
              "duration": 0.010416666666666666
            },
            {
              "pitch": 59,
              "velocity": 60,
              "position": 9.333333333333334,
              "duration": 0.010416666666666666
            },
            {
              "pitch": 62,
              "velocity": 60,
              "position": 9.34375,
              "duration": 0.010416666666666666
            },
            {
              "pitch": 67,
              "velocity": 60,
              "position": 9.354166666666666,
              "duration": 0.010416666666666666
            },
            {
              "pitch": 58,
              "velocity": 80,
              "position": 9.666666666666666,
              "duration": 0.3229166666666667
            },
            {
              "pitch": 64,
              "velocity": 80,
              "position": 9.666666666666666,
              "duration": 0.3333333333333333
            },
            {
              "pitch": 68,
              "velocity": 80,
              "position": 9.677083333333334,
              "duration": 0.3229166666666667
            },
            {
              "pitch": 57,
              "velocity": 40,
              "position": 10,
              "duration": 0.3229166666666667
            },
            {
              "pitch": 63,
              "velocity": 40,
              "position": 10,
              "duration": 0.32916666666666666
            },
            {
              "pitch": 67,
              "velocity": 40,
              "position": 10.010416666666666,
              "duration": 0.3229166666666667
            },
            {
              "pitch": 57,
              "velocity": 40,
              "position": 10.333333333333334,
              "duration": 0.3229166666666667
            },
            {
              "pitch": 63,
              "velocity": 40,
              "position": 10.333333333333334,
              "duration": 0.32916666666666666
            },
            {
              "pitch": 67,
              "velocity": 40,
              "position": 10.34375,
              "duration": 0.3229166666666667
            },
            {
              "pitch": 72,
              "velocity": 40,
              "position": 10.354166666666666,
              "duration": 0.3229166666666667
            },
            {
              "pitch": 57,
              "velocity": 60,
              "position": 10.666666666666666,
              "duration": 0.3229166666666667
            },
            {
              "pitch": 63,
              "velocity": 60,
              "position": 10.666666666666666,
              "duration": 0.32916666666666666
            },
            {
              "pitch": 67,
              "velocity": 60,
              "position": 10.677083333333334,
              "duration": 0.3229166666666667
            },
            {
              "pitch": 72,
              "velocity": 60,
              "position": 10.6875,
              "duration": 0.3229166666666667
            },
            {
              "pitch": 57,
              "velocity": 100,
              "position": 11,
              "duration": 0.08333333333333333
            },
            {
              "pitch": 63,
              "velocity": 100,
              "position": 11,
              "duration": 0.08333333333333333
            },
            {
              "pitch": 67,
              "velocity": 100,
              "position": 11.010416666666666,
              "duration": 0.08333333333333333
            },
            {
              "pitch": 72,
              "velocity": 100,
              "position": 11.020833333333334,
              "duration": 0.08333333333333333
            },
            {
              "pitch": 57,
              "velocity": 60,
              "position": 11.333333333333334,
              "duration": 0.010416666666666666
            },
            {
              "pitch": 63,
              "velocity": 60,
              "position": 11.333333333333334,
              "duration": 0.010416666666666666
            },
            {
              "pitch": 67,
              "velocity": 60,
              "position": 11.34375,
              "duration": 0.010416666666666666
            },
            {
              "pitch": 72,
              "velocity": 60,
              "position": 11.354166666666666,
              "duration": 0.010416666666666666
            },
            {
              "pitch": 57,
              "velocity": 100,
              "position": 11.666666666666666,
              "duration": 0.3229166666666667
            },
            {
              "pitch": 63,
              "velocity": 100,
              "position": 11.666666666666666,
              "duration": 0.32916666666666666
            },
            {
              "pitch": 67,
              "velocity": 100,
              "position": 11.677083333333334,
              "duration": 0.3229166666666667
            },
            {
              "pitch": 72,
              "velocity": 100,
              "position": 11.6875,
              "duration": 0.3229166666666667
            },
            {
              "pitch": 58,
              "velocity": 40,
              "position": 12,
              "duration": 0.3229166666666667
            },
            {
              "pitch": 63,
              "velocity": 40,
              "position": 12,
              "duration": 0.32916666666666666
            },
            {
              "pitch": 67,
              "velocity": 40,
              "position": 12.010416666666666,
              "duration": 0.3229166666666667
            },
            {
              "pitch": 72,
              "velocity": 40,
              "position": 12.020833333333334,
              "duration": 0.3229166666666667
            },
            {
              "pitch": 58,
              "velocity": 40,
              "position": 12.333333333333334,
              "duration": 0.3229166666666667
            },
            {
              "pitch": 63,
              "velocity": 40,
              "position": 12.333333333333334,
              "duration": 0.32916666666666666
            },
            {
              "pitch": 67,
              "velocity": 40,
              "position": 12.34375,
              "duration": 0.3229166666666667
            },
            {
              "pitch": 72,
              "velocity": 40,
              "position": 12.354166666666666,
              "duration": 0.3229166666666667
            },
            {
              "pitch": 58,
              "velocity": 60,
              "position": 12.666666666666666,
              "duration": 0.3229166666666667
            },
            {
              "pitch": 63,
              "velocity": 60,
              "position": 12.666666666666666,
              "duration": 0.32916666666666666
            },
            {
              "pitch": 67,
              "velocity": 60,
              "position": 12.677083333333334,
              "duration": 0.3229166666666667
            },
            {
              "pitch": 72,
              "velocity": 60,
              "position": 12.6875,
              "duration": 0.3229166666666667
            },
            {
              "pitch": 58,
              "velocity": 100,
              "position": 13,
              "duration": 0.08333333333333333
            },
            {
              "pitch": 63,
              "velocity": 100,
              "position": 13,
              "duration": 0.08333333333333333
            },
            {
              "pitch": 67,
              "velocity": 100,
              "position": 13.010416666666666,
              "duration": 0.08333333333333333
            },
            {
              "pitch": 72,
              "velocity": 100,
              "position": 13.020833333333334,
              "duration": 0.08333333333333333
            },
            {
              "pitch": 58,
              "velocity": 60,
              "position": 13.333333333333334,
              "duration": 0.010416666666666666
            },
            {
              "pitch": 63,
              "velocity": 60,
              "position": 13.333333333333334,
              "duration": 0.010416666666666666
            },
            {
              "pitch": 67,
              "velocity": 60,
              "position": 13.34375,
              "duration": 0.010416666666666666
            },
            {
              "pitch": 72,
              "velocity": 60,
              "position": 13.354166666666666,
              "duration": 0.010416666666666666
            },
            {
              "pitch": 55,
              "velocity": 40,
              "position": 14.333333333333334,
              "duration": 0.3229166666666667
            },
            {
              "pitch": 59,
              "velocity": 40,
              "position": 14.333333333333334,
              "duration": 0.32916666666666666
            },
            {
              "pitch": 65,
              "velocity": 40,
              "position": 14.34375,
              "duration": 0.3229166666666667
            },
            {
              "pitch": 70,
              "velocity": 40,
              "position": 14.354166666666666,
              "duration": 0.3229166666666667
            },
            {
              "pitch": 55,
              "velocity": 60,
              "position": 14.666666666666666,
              "duration": 0.3229166666666667
            },
            {
              "pitch": 59,
              "velocity": 60,
              "position": 14.666666666666666,
              "duration": 0.32916666666666666
            },
            {
              "pitch": 65,
              "velocity": 60,
              "position": 14.677083333333334,
              "duration": 0.3229166666666667
            },
            {
              "pitch": 70,
              "velocity": 60,
              "position": 14.6875,
              "duration": 0.3229166666666667
            },
            {
              "pitch": 55,
              "velocity": 100,
              "position": 15,
              "duration": 0.9895833333333334
            },
            {
              "pitch": 59,
              "velocity": 100,
              "position": 15,
              "duration": 0.9895833333333334
            },
            {
              "pitch": 65,
              "velocity": 100,
              "position": 15.010416666666666,
              "duration": 0.9791666666666666
            },
            {
              "pitch": 70,
              "velocity": 100,
              "position": 15.020833333333334,
              "duration": 0.96875
            }
          ]
        },
        "3": {
          "ctab": {
            "srcChannel": 3,
            "name": "Pno",
            "accType": "CHORD2",
            "editable": false,
            "mutedNotes": [],
            "mutedChords": [
              "1+2+5",
              "sus4",
              "1+5",
              "1+8",
              "7aug",
              "Maj7aug",
              "7(#9)",
              "7(b13)",
              "7(b9)",
              "7(13)",
              "7#11",
              "7(9)",
              "7b5",
              "7sus4",
              "7th",
              "aug",
              "Maj6(9)",
              "Maj7(9)",
              "Maj(9)",
              "Maj7#11",
              "Maj7",
              "Maj6",
              "Maj"
            ],
            "autoStart": false,
            "sourceChordNote": 0,
            "sourceChordType": "Maj7",
            "ctb2Low": null,
            "ctb2Main": {
              "ntr": "ROOT_TRANSPOSITION",
              "ntt": "BYPASS",
              "bassOn": false,
              "chordRootUpperLimit": 10,
              "noteLowLimit": 28,
              "noteHighLimit": 79,
              "rtr": "PITCH_SHIFT"
            },
            "ctb2High": null
          },
          "notes": [
            {
              "pitch": 24,
              "velocity": 66,
              "position": 0.5520833333333334,
              "duration": 0.09375
            },
            {
              "pitch": 69,
              "velocity": 93,
              "position": 0.6666666666666666,
              "duration": 0.22916666666666666
            },
            {
              "pitch": 65,
              "velocity": 80,
              "position": 0.6666666666666666,
              "duration": 0.25
            },
            {
              "pitch": 36,
              "velocity": 59,
              "position": 0.8854166666666666,
              "duration": 0.052083333333333336
            },
            {
              "pitch": 60,
              "velocity": 78,
              "position": 0.6666666666666666,
              "duration": 0.28125
            },
            {
              "pitch": 67,
              "velocity": 112,
              "position": 1,
              "duration": 1.0416666666666667
            },
            {
              "pitch": 63,
              "velocity": 76,
              "position": 1,
              "duration": 1.0729166666666667
            },
            {
              "pitch": 58,
              "velocity": 116,
              "position": 1,
              "duration": 1.09375
            },
            {
              "pitch": 29,
              "velocity": 76,
              "position": 2.5520833333333335,
              "duration": 0.08333333333333333
            },
            {
              "pitch": 56,
              "velocity": 104,
              "position": 2.6666666666666665,
              "duration": 0.09375
            },
            {
              "pitch": 62,
              "velocity": 87,
              "position": 2.6666666666666665,
              "duration": 0.20833333333333334
            },
            {
              "pitch": 57,
              "velocity": 68,
              "position": 2.7708333333333335,
              "duration": 0.16666666666666666
            },
            {
              "pitch": 39,
              "velocity": 72,
              "position": 2.8854166666666665,
              "duration": 0.052083333333333336
            },
            {
              "pitch": 65,
              "velocity": 65,
              "position": 2.6666666666666665,
              "duration": 0.3333333333333333
            },
            {
              "pitch": 55,
              "velocity": 81,
              "position": 3,
              "duration": 0.6875
            },
            {
              "pitch": 58,
              "velocity": 64,
              "position": 3,
              "duration": 0.96875
            },
            {
              "pitch": 60,
              "velocity": 73,
              "position": 3,
              "duration": 0.9791666666666666
            },
            {
              "pitch": 63,
              "velocity": 67,
              "position": 3,
              "duration": 1.0208333333333333
            },
            {
              "pitch": 74,
              "velocity": 93,
              "position": 5,
              "duration": 0.08333333333333333
            },
            {
              "pitch": 75,
              "velocity": 47,
              "position": 5.083333333333333,
              "duration": 0.08333333333333333
            },
            {
              "pitch": 84,
              "velocity": 48,
              "position": 5.166666666666667,
              "duration": 0.08333333333333333
            },
            {
              "pitch": 75,
              "velocity": 50,
              "position": 5.25,
              "duration": 0.08333333333333333
            },
            {
              "pitch": 84,
              "velocity": 50,
              "position": 5.333333333333333,
              "duration": 0.08333333333333333
            },
            {
              "pitch": 75,
              "velocity": 51,
              "position": 5.416666666666667,
              "duration": 0.08333333333333333
            },
            {
              "pitch": 84,
              "velocity": 51,
              "position": 5.5,
              "duration": 0.08333333333333333
            },
            {
              "pitch": 75,
              "velocity": 51,
              "position": 5.583333333333333,
              "duration": 0.08333333333333333
            },
            {
              "pitch": 84,
              "velocity": 51,
              "position": 5.666666666666667,
              "duration": 0.08333333333333333
            },
            {
              "pitch": 75,
              "velocity": 51,
              "position": 5.75,
              "duration": 0.08333333333333333
            },
            {
              "pitch": 84,
              "velocity": 51,
              "position": 5.833333333333333,
              "duration": 0.08333333333333333
            },
            {
              "pitch": 75,
              "velocity": 51,
              "position": 5.916666666666667,
              "duration": 0.08333333333333333
            },
            {
              "pitch": 84,
              "velocity": 51,
              "position": 6,
              "duration": 0.08333333333333333
            },
            {
              "pitch": 75,
              "velocity": 51,
              "position": 6.083333333333333,
              "duration": 0.08333333333333333
            },
            {
              "pitch": 84,
              "velocity": 52,
              "position": 6.166666666666667,
              "duration": 0.08333333333333333
            },
            {
              "pitch": 75,
              "velocity": 54,
              "position": 6.25,
              "duration": 0.08333333333333333
            },
            {
              "pitch": 84,
              "velocity": 54,
              "position": 6.333333333333333,
              "duration": 0.08333333333333333
            },
            {
              "pitch": 75,
              "velocity": 55,
              "position": 6.416666666666667,
              "duration": 0.08333333333333333
            },
            {
              "pitch": 84,
              "velocity": 56,
              "position": 6.5,
              "duration": 0.08333333333333333
            },
            {
              "pitch": 75,
              "velocity": 59,
              "position": 6.583333333333333,
              "duration": 0.08333333333333333
            },
            {
              "pitch": 84,
              "velocity": 59,
              "position": 6.666666666666667,
              "duration": 0.08333333333333333
            },
            {
              "pitch": 75,
              "velocity": 62,
              "position": 6.75,
              "duration": 0.08333333333333333
            },
            {
              "pitch": 84,
              "velocity": 62,
              "position": 6.833333333333333,
              "duration": 0.08333333333333333
            },
            {
              "pitch": 75,
              "velocity": 63,
              "position": 6.916666666666667,
              "duration": 0.08333333333333333
            },
            {
              "pitch": 84,
              "velocity": 70,
              "position": 7,
              "duration": 0.08333333333333333
            },
            {
              "pitch": 26,
              "velocity": 30,
              "position": 7.833333333333333,
              "duration": 0.10416666666666667
            },
            {
              "pitch": 84,
              "velocity": 64,
              "position": 7.166666666666667,
              "duration": 0.8333333333333334
            },
            {
              "pitch": 75,
              "velocity": 48,
              "position": 7.25,
              "duration": 0.75
            },
            {
              "pitch": 75,
              "velocity": 83,
              "position": 8.333333333333334,
              "duration": 0.052083333333333336
            },
            {
              "pitch": 70,
              "velocity": 125,
              "position": 8.333333333333334,
              "duration": 0.10416666666666667
            },
            {
              "pitch": 65,
              "velocity": 60,
              "position": 8.333333333333334,
              "duration": 0.16666666666666666
            },
            {
              "pitch": 79,
              "velocity": 91,
              "position": 8.333333333333334,
              "duration": 0.21875
            },
            {
              "pitch": 76,
              "velocity": 112,
              "position": 8.333333333333334,
              "duration": 0.2604166666666667
            },
            {
              "pitch": 71,
              "velocity": 27,
              "position": 8.5,
              "duration": 0.2604166666666667
            },
            {
              "pitch": 67,
              "velocity": 55,
              "position": 8.666666666666666,
              "duration": 0.21875
            },
            {
              "pitch": 31,
              "velocity": 66,
              "position": 8,
              "duration": 0.8958333333333334
            },
            {
              "pitch": 72,
              "velocity": 70,
              "position": 8.666666666666666,
              "duration": 0.2604166666666667
            },
            {
              "pitch": 76,
              "velocity": 70,
              "position": 8.666666666666666,
              "duration": 0.2604166666666667
            },
            {
              "pitch": 70,
              "velocity": 91,
              "position": 9,
              "duration": 0.07291666666666667
            },
            {
              "pitch": 43,
              "velocity": 64,
              "position": 8.833333333333334,
              "duration": 0.7291666666666666
            },
            {
              "pitch": 65,
              "velocity": 73,
              "position": 9,
              "duration": 0.84375
            },
            {
              "pitch": 74,
              "velocity": 83,
              "position": 9,
              "duration": 0.8541666666666666
            },
            {
              "pitch": 71,
              "velocity": 59,
              "position": 9.083333333333334,
              "duration": 0.8125
            },
            {
              "pitch": 71,
              "velocity": 99,
              "position": 10.333333333333334,
              "duration": 0.09375
            },
            {
              "pitch": 75,
              "velocity": 99,
              "position": 10.333333333333334,
              "duration": 0.23958333333333334
            },
            {
              "pitch": 67,
              "velocity": 112,
              "position": 10.333333333333334,
              "duration": 0.25
            },
            {
              "pitch": 72,
              "velocity": 112,
              "position": 10.333333333333334,
              "duration": 0.25
            },
            {
              "pitch": 65,
              "velocity": 75,
              "position": 10.666666666666666,
              "duration": 0.1875
            },
            {
              "pitch": 74,
              "velocity": 80,
              "position": 10.666666666666666,
              "duration": 0.25
            },
            {
              "pitch": 41,
              "velocity": 27,
              "position": 10.885416666666666,
              "duration": 0.08333333333333333
            },
            {
              "pitch": 70,
              "velocity": 59,
              "position": 10.666666666666666,
              "duration": 0.34375
            },
            {
              "pitch": 29,
              "velocity": 84,
              "position": 10.21875,
              "duration": 0.8333333333333334
            },
            {
              "pitch": 67,
              "velocity": 80,
              "position": 11,
              "duration": 0.4375
            },
            {
              "pitch": 63,
              "velocity": 52,
              "position": 11,
              "duration": 0.4479166666666667
            },
            {
              "pitch": 72,
              "velocity": 76,
              "position": 11,
              "duration": 0.4583333333333333
            },
            {
              "pitch": 41,
              "velocity": 93,
              "position": 11.552083333333334,
              "duration": 0.08333333333333333
            },
            {
              "pitch": 63,
              "velocity": 83,
              "position": 11.666666666666666,
              "duration": 0.16666666666666666
            },
            {
              "pitch": 33,
              "velocity": 81,
              "position": 11.666666666666666,
              "duration": 0.3229166666666667
            },
            {
              "pitch": 60,
              "velocity": 112,
              "position": 11.666666666666666,
              "duration": 0.3229166666666667
            },
            {
              "pitch": 65,
              "velocity": 114,
              "position": 11.666666666666666,
              "duration": 0.3229166666666667
            },
            {
              "pitch": 69,
              "velocity": 107,
              "position": 11.666666666666666,
              "duration": 0.3229166666666667
            },
            {
              "pitch": 24,
              "velocity": 66,
              "position": 12,
              "duration": 0.9166666666666666
            },
            {
              "pitch": 58,
              "velocity": 36,
              "position": 12,
              "duration": 0.9166666666666666
            },
            {
              "pitch": 63,
              "velocity": 70,
              "position": 12,
              "duration": 0.9166666666666666
            },
            {
              "pitch": 67,
              "velocity": 70,
              "position": 12,
              "duration": 0.9166666666666666
            },
            {
              "pitch": 58,
              "velocity": 88,
              "position": 13,
              "duration": 0.08333333333333333
            },
            {
              "pitch": 63,
              "velocity": 99,
              "position": 13,
              "duration": 0.08333333333333333
            },
            {
              "pitch": 67,
              "velocity": 88,
              "position": 13,
              "duration": 0.08333333333333333
            },
            {
              "pitch": 31,
              "velocity": 76,
              "position": 13.552083333333334,
              "duration": 0.08333333333333333
            },
            {
              "pitch": 65,
              "velocity": 81,
              "position": 13.666666666666666,
              "duration": 0.20833333333333334
            },
            {
              "pitch": 69,
              "velocity": 72,
              "position": 13.666666666666666,
              "duration": 0.3125
            },
            {
              "pitch": 72,
              "velocity": 76,
              "position": 13.666666666666666,
              "duration": 0.3333333333333333
            },
            {
              "pitch": 59,
              "velocity": 52,
              "position": 14,
              "duration": 0.9166666666666666
            },
            {
              "pitch": 63,
              "velocity": 49,
              "position": 14,
              "duration": 0.9166666666666666
            },
            {
              "pitch": 65,
              "velocity": 51,
              "position": 14,
              "duration": 0.9166666666666666
            },
            {
              "pitch": 70,
              "velocity": 52,
              "position": 14,
              "duration": 0.9166666666666666
            },
            {
              "pitch": 59,
              "velocity": 107,
              "position": 15,
              "duration": 0.08333333333333333
            },
            {
              "pitch": 63,
              "velocity": 102,
              "position": 15,
              "duration": 0.08333333333333333
            },
            {
              "pitch": 65,
              "velocity": 97,
              "position": 15,
              "duration": 0.08333333333333333
            },
            {
              "pitch": 70,
              "velocity": 102,
              "position": 15,
              "duration": 0.08333333333333333
            }
          ]
        },
        "4": {
          "ctab": {
            "srcChannel": 4,
            "name": "Org",
            "accType": "PAD",
            "editable": false,
            "mutedNotes": [],
            "mutedChords": [
              "1+2+5",
              "sus4",
              "1+5",
              "1+8",
              "7aug",
              "Maj7aug",
              "7(#9)",
              "7(b13)",
              "7(b9)",
              "7(13)",
              "7#11",
              "7(9)",
              "7b5",
              "7sus4",
              "7th",
              "aug",
              "Maj6(9)",
              "Maj7(9)",
              "Maj(9)",
              "Maj7#11",
              "Maj7",
              "Maj6",
              "Maj"
            ],
            "autoStart": false,
            "sourceChordNote": 0,
            "sourceChordType": "Maj7",
            "ctb2Low": null,
            "ctb2Main": {
              "ntr": "ROOT_TRANSPOSITION",
              "ntt": "BYPASS",
              "bassOn": false,
              "chordRootUpperLimit": 8,
              "noteLowLimit": 0,
              "noteHighLimit": 79,
              "rtr": "PITCH_SHIFT"
            },
            "ctb2High": null
          },
          "notes": [
            {
              "pitch": 82,
              "velocity": 127,
              "position": 0,
              "duration": 1.9375
            },
            {
              "pitch": 81,
              "velocity": 127,
              "position": 2,
              "duration": 2
            },
            {
              "pitch": 84,
              "velocity": 127,
              "position": 0,
              "duration": 7.53125
            },
            {
              "pitch": 48,
              "velocity": 127,
              "position": 7.541666666666667,
              "duration": 0.010416666666666666
            },
            {
              "pitch": 49,
              "velocity": 127,
              "position": 7.5625,
              "duration": 0.010416666666666666
            },
            {
              "pitch": 87,
              "velocity": 127,
              "position": 0,
              "duration": 7.583333333333333
            },
            {
              "pitch": 82,
              "velocity": 127,
              "position": 4,
              "duration": 3.5833333333333335
            },
            {
              "pitch": 50,
              "velocity": 127,
              "position": 7.583333333333333,
              "duration": 0.010416666666666666
            },
            {
              "pitch": 51,
              "velocity": 127,
              "position": 7.604166666666667,
              "duration": 0.010416666666666666
            },
            {
              "pitch": 52,
              "velocity": 127,
              "position": 7.625,
              "duration": 0.010416666666666666
            },
            {
              "pitch": 53,
              "velocity": 127,
              "position": 7.645833333333333,
              "duration": 0.010416666666666666
            },
            {
              "pitch": 54,
              "velocity": 127,
              "position": 7.666666666666667,
              "duration": 0.010416666666666666
            },
            {
              "pitch": 55,
              "velocity": 127,
              "position": 7.6875,
              "duration": 0.010416666666666666
            },
            {
              "pitch": 56,
              "velocity": 127,
              "position": 7.708333333333333,
              "duration": 0.010416666666666666
            },
            {
              "pitch": 57,
              "velocity": 127,
              "position": 7.729166666666667,
              "duration": 0.010416666666666666
            },
            {
              "pitch": 58,
              "velocity": 127,
              "position": 7.75,
              "duration": 0.010416666666666666
            },
            {
              "pitch": 59,
              "velocity": 127,
              "position": 7.770833333333333,
              "duration": 0.010416666666666666
            },
            {
              "pitch": 60,
              "velocity": 127,
              "position": 7.791666666666667,
              "duration": 0.010416666666666666
            },
            {
              "pitch": 61,
              "velocity": 127,
              "position": 7.8125,
              "duration": 0.010416666666666666
            },
            {
              "pitch": 62,
              "velocity": 127,
              "position": 7.833333333333333,
              "duration": 0.010416666666666666
            },
            {
              "pitch": 64,
              "velocity": 127,
              "position": 7.854166666666667,
              "duration": 0.010416666666666666
            },
            {
              "pitch": 65,
              "velocity": 127,
              "position": 7.875,
              "duration": 0.010416666666666666
            },
            {
              "pitch": 66,
              "velocity": 127,
              "position": 7.895833333333333,
              "duration": 0.010416666666666666
            },
            {
              "pitch": 67,
              "velocity": 127,
              "position": 7.916666666666667,
              "duration": 0.010416666666666666
            },
            {
              "pitch": 69,
              "velocity": 127,
              "position": 7.9375,
              "duration": 0.0625
            },
            {
              "pitch": 91,
              "velocity": 127,
              "position": 8,
              "duration": 1.2708333333333333
            },
            {
              "pitch": 83,
              "velocity": 127,
              "position": 8,
              "duration": 1.28125
            },
            {
              "pitch": 89,
              "velocity": 127,
              "position": 8,
              "duration": 1.3333333333333333
            },
            {
              "pitch": 83,
              "velocity": 127,
              "position": 9.333333333333334,
              "duration": 0.3229166666666667
            },
            {
              "pitch": 88,
              "velocity": 127,
              "position": 9.333333333333334,
              "duration": 0.3229166666666667
            },
            {
              "pitch": 91,
              "velocity": 127,
              "position": 9.333333333333334,
              "duration": 0.3229166666666667
            },
            {
              "pitch": 82,
              "velocity": 127,
              "position": 9.666666666666666,
              "duration": 0.3229166666666667
            },
            {
              "pitch": 87,
              "velocity": 127,
              "position": 9.666666666666666,
              "duration": 0.3229166666666667
            },
            {
              "pitch": 90,
              "velocity": 127,
              "position": 9.666666666666666,
              "duration": 0.3229166666666667
            },
            {
              "pitch": 81,
              "velocity": 127,
              "position": 10,
              "duration": 0.9895833333333334
            },
            {
              "pitch": 86,
              "velocity": 127,
              "position": 10,
              "duration": 0.9895833333333334
            },
            {
              "pitch": 89,
              "velocity": 127,
              "position": 10,
              "duration": 0.9895833333333334
            },
            {
              "pitch": 81,
              "velocity": 127,
              "position": 11,
              "duration": 0.3229166666666667
            },
            {
              "pitch": 86,
              "velocity": 127,
              "position": 11,
              "duration": 0.3229166666666667
            },
            {
              "pitch": 89,
              "velocity": 127,
              "position": 11,
              "duration": 0.3229166666666667
            },
            {
              "pitch": 84,
              "velocity": 127,
              "position": 11.333333333333334,
              "duration": 0.3229166666666667
            },
            {
              "pitch": 87,
              "velocity": 127,
              "position": 11.333333333333334,
              "duration": 0.3229166666666667
            },
            {
              "pitch": 91,
              "velocity": 127,
              "position": 11.333333333333334,
              "duration": 0.3229166666666667
            },
            {
              "pitch": 81,
              "velocity": 127,
              "position": 11.666666666666666,
              "duration": 0.3229166666666667
            },
            {
              "pitch": 89,
              "velocity": 127,
              "position": 11.666666666666666,
              "duration": 0.3229166666666667
            },
            {
              "pitch": 87,
              "velocity": 127,
              "position": 12,
              "duration": 1.9958333333333333
            },
            {
              "pitch": 82,
              "velocity": 127,
              "position": 12,
              "duration": 2
            },
            {
              "pitch": 84,
              "velocity": 127,
              "position": 11.666666666666666,
              "duration": 2.3333333333333335
            },
            {
              "pitch": 77,
              "velocity": 127,
              "position": 14,
              "duration": 1.9895833333333333
            },
            {
              "pitch": 83,
              "velocity": 127,
              "position": 14,
              "duration": 1.9895833333333333
            },
            {
              "pitch": 87,
              "velocity": 127,
              "position": 14,
              "duration": 1.9895833333333333
            }
          ]
        },
        "5": {
          "ctab": {
            "srcChannel": 5,
            "name": "ClGt",
            "accType": "PHRASE1",
            "editable": false,
            "mutedNotes": [],
            "mutedChords": [
              "1+2+5",
              "sus4",
              "1+5",
              "1+8",
              "7aug",
              "Maj7aug",
              "7(#9)",
              "7(b13)",
              "7(b9)",
              "7(13)",
              "7#11",
              "7(9)",
              "7b5",
              "7sus4",
              "7th",
              "aug",
              "Maj6(9)",
              "Maj7(9)",
              "Maj(9)",
              "Maj7#11",
              "Maj7",
              "Maj6",
              "Maj"
            ],
            "autoStart": false,
            "sourceChordNote": 0,
            "sourceChordType": "Maj7",
            "ctb2Low": null,
            "ctb2Main": {
              "ntr": "ROOT_TRANSPOSITION",
              "ntt": "BYPASS",
              "bassOn": false,
              "chordRootUpperLimit": 6,
              "noteLowLimit": 0,
              "noteHighLimit": 127,
              "rtr": "PITCH_SHIFT"
            },
            "ctb2High": null
          },
          "notes": [
            {
              "pitch": 67,
              "velocity": 118,
              "position": 0,
              "duration": 1.5
            },
            {
              "pitch": 67,
              "velocity": 120,
              "position": 1.5520833333333333,
              "duration": 0.1875
            },
            {
              "pitch": 70,
              "velocity": 98,
              "position": 1.7708333333333333,
              "duration": 0.14583333333333334
            },
            {
              "pitch": 72,
              "velocity": 81,
              "position": 1.9375,
              "duration": 0.125
            },
            {
              "pitch": 72,
              "velocity": 40,
              "position": 2.1041666666666665,
              "duration": 0.21875
            },
            {
              "pitch": 65,
              "velocity": 35,
              "position": 2.3333333333333335,
              "duration": 0.3333333333333333
            },
            {
              "pitch": 60,
              "velocity": 40,
              "position": 2.6770833333333335,
              "duration": 0.875
            },
            {
              "pitch": 55,
              "velocity": 35,
              "position": 3.5520833333333335,
              "duration": 0.10416666666666667
            },
            {
              "pitch": 63,
              "velocity": 95,
              "position": 3.6666666666666665,
              "duration": 0.3229166666666667
            },
            {
              "pitch": 60,
              "velocity": 40,
              "position": 4,
              "duration": 0.9791666666666666
            },
            {
              "pitch": 63,
              "velocity": 113,
              "position": 5,
              "duration": 0.2604166666666667
            },
            {
              "pitch": 70,
              "velocity": 113,
              "position": 5,
              "duration": 0.2604166666666667
            },
            {
              "pitch": 67,
              "velocity": 40,
              "position": 7,
              "duration": 0.3229166666666667
            },
            {
              "pitch": 72,
              "velocity": 59,
              "position": 7.333333333333333,
              "duration": 0.3229166666666667
            },
            {
              "pitch": 69,
              "velocity": 40,
              "position": 7.666666666666667,
              "duration": 0.32916666666666666
            },
            {
              "pitch": 69,
              "velocity": 40,
              "position": 8,
              "duration": 0.3333333333333333
            },
            {
              "pitch": 67,
              "velocity": 20,
              "position": 8.333333333333334,
              "duration": 1.3229166666666667
            },
            {
              "pitch": 69,
              "velocity": 40,
              "position": 9.666666666666666,
              "duration": 0.3229166666666667
            },
            {
              "pitch": 62,
              "velocity": 40,
              "position": 10,
              "duration": 0.3229166666666667
            },
            {
              "pitch": 60,
              "velocity": 40,
              "position": 10.333333333333334,
              "duration": 1.2291666666666667
            },
            {
              "pitch": 55,
              "velocity": 87,
              "position": 11.5625,
              "duration": 0.07291666666666667
            },
            {
              "pitch": 57,
              "velocity": 40,
              "position": 11.666666666666666,
              "duration": 0.3020833333333333
            },
            {
              "pitch": 60,
              "velocity": 40,
              "position": 12,
              "duration": 1.21875
            },
            {
              "pitch": 55,
              "velocity": 117,
              "position": 12.333333333333334,
              "duration": 0.8854166666666666
            },
            {
              "pitch": 58,
              "velocity": 40,
              "position": 13.21875,
              "duration": 0.10416666666666667
            },
            {
              "pitch": 55,
              "velocity": 57,
              "position": 13.333333333333334,
              "duration": 0.25
            },
            {
              "pitch": 48,
              "velocity": 55,
              "position": 13.583333333333334,
              "duration": 0.07291666666666667
            },
            {
              "pitch": 51,
              "velocity": 40,
              "position": 13.666666666666666,
              "duration": 0.3333333333333333
            },
            {
              "pitch": 55,
              "velocity": 40,
              "position": 14,
              "duration": 1.6666666666666667
            }
          ]
        },
        "6": {
          "ctab": {
            "srcChannel": 6,
            "name": "EP",
            "accType": "PHRASE2",
            "editable": false,
            "mutedNotes": [],
            "mutedChords": [
              "1+2+5",
              "sus4",
              "1+5",
              "1+8",
              "7aug",
              "Maj7aug",
              "7(#9)",
              "7(b13)",
              "7(b9)",
              "7(13)",
              "7#11",
              "7(9)",
              "7b5",
              "7sus4",
              "7th",
              "aug",
              "Maj6(9)",
              "Maj7(9)",
              "Maj(9)",
              "Maj7#11",
              "Maj7",
              "Maj6",
              "Maj"
            ],
            "autoStart": false,
            "sourceChordNote": 0,
            "sourceChordType": "Maj7",
            "ctb2Low": null,
            "ctb2Main": {
              "ntr": "ROOT_TRANSPOSITION",
              "ntt": "BYPASS",
              "bassOn": false,
              "chordRootUpperLimit": 8,
              "noteLowLimit": 48,
              "noteHighLimit": 67,
              "rtr": "PITCH_SHIFT"
            },
            "ctb2High": null
          },
          "notes": [
            {
              "pitch": 51,
              "velocity": 70,
              "position": 0,
              "duration": 1.9895833333333333
            },
            {
              "pitch": 58,
              "velocity": 72,
              "position": 0,
              "duration": 1.9895833333333333
            },
            {
              "pitch": 60,
              "velocity": 59,
              "position": 0,
              "duration": 3.8854166666666665
            },
            {
              "pitch": 51,
              "velocity": 55,
              "position": 2,
              "duration": 1.9166666666666667
            },
            {
              "pitch": 57,
              "velocity": 59,
              "position": 2,
              "duration": 1.9166666666666667
            },
            {
              "pitch": 51,
              "velocity": 55,
              "position": 4,
              "duration": 2.9166666666666665
            },
            {
              "pitch": 58,
              "velocity": 43,
              "position": 4,
              "duration": 2.9166666666666665
            },
            {
              "pitch": 60,
              "velocity": 57,
              "position": 4,
              "duration": 2.9166666666666665
            },
            {
              "pitch": 62,
              "velocity": 81,
              "position": 7,
              "duration": 0.07291666666666667
            },
            {
              "pitch": 55,
              "velocity": 67,
              "position": 7,
              "duration": 0.9166666666666666
            },
            {
              "pitch": 58,
              "velocity": 59,
              "position": 7,
              "duration": 0.9166666666666666
            },
            {
              "pitch": 63,
              "velocity": 45,
              "position": 7.083333333333333,
              "duration": 0.8333333333333334
            },
            {
              "pitch": 53,
              "velocity": 54,
              "position": 8,
              "duration": 1.25
            },
            {
              "pitch": 55,
              "velocity": 63,
              "position": 8,
              "duration": 1.25
            },
            {
              "pitch": 59,
              "velocity": 62,
              "position": 8,
              "duration": 1.25
            },
            {
              "pitch": 64,
              "velocity": 67,
              "position": 8,
              "duration": 1.25
            },
            {
              "pitch": 53,
              "velocity": 72,
              "position": 9.333333333333334,
              "duration": 0.3229166666666667
            },
            {
              "pitch": 55,
              "velocity": 59,
              "position": 9.333333333333334,
              "duration": 0.3229166666666667
            },
            {
              "pitch": 59,
              "velocity": 91,
              "position": 9.333333333333334,
              "duration": 0.3229166666666667
            },
            {
              "pitch": 64,
              "velocity": 78,
              "position": 9.333333333333334,
              "duration": 0.3229166666666667
            },
            {
              "pitch": 52,
              "velocity": 54,
              "position": 9.666666666666666,
              "duration": 0.3229166666666667
            },
            {
              "pitch": 58,
              "velocity": 57,
              "position": 9.666666666666666,
              "duration": 0.3229166666666667
            },
            {
              "pitch": 63,
              "velocity": 44,
              "position": 9.666666666666666,
              "duration": 0.3229166666666667
            },
            {
              "pitch": 51,
              "velocity": 44,
              "position": 10,
              "duration": 1.2291666666666667
            },
            {
              "pitch": 57,
              "velocity": 51,
              "position": 10,
              "duration": 1.2395833333333333
            },
            {
              "pitch": 55,
              "velocity": 43,
              "position": 10,
              "duration": 1.2604166666666667
            },
            {
              "pitch": 62,
              "velocity": 52,
              "position": 10,
              "duration": 1.2604166666666667
            },
            {
              "pitch": 53,
              "velocity": 41,
              "position": 11.333333333333334,
              "duration": 0.3229166666666667
            },
            {
              "pitch": 57,
              "velocity": 52,
              "position": 11.333333333333334,
              "duration": 0.3229166666666667
            },
            {
              "pitch": 60,
              "velocity": 60,
              "position": 11.333333333333334,
              "duration": 0.3229166666666667
            },
            {
              "pitch": 50,
              "velocity": 41,
              "position": 11.666666666666666,
              "duration": 0.3229166666666667
            },
            {
              "pitch": 53,
              "velocity": 62,
              "position": 11.666666666666666,
              "duration": 0.3229166666666667
            },
            {
              "pitch": 57,
              "velocity": 45,
              "position": 11.666666666666666,
              "duration": 0.3229166666666667
            },
            {
              "pitch": 52,
              "velocity": 54,
              "position": 12,
              "duration": 1.9895833333333333
            },
            {
              "pitch": 55,
              "velocity": 45,
              "position": 12,
              "duration": 1.9895833333333333
            },
            {
              "pitch": 58,
              "velocity": 51,
              "position": 12,
              "duration": 1.9895833333333333
            },
            {
              "pitch": 60,
              "velocity": 59,
              "position": 12,
              "duration": 1.9895833333333333
            },
            {
              "pitch": 59,
              "velocity": 51,
              "position": 14,
              "duration": 1.9895833333333333
            },
            {
              "pitch": 63,
              "velocity": 59,
              "position": 14,
              "duration": 1.9895833333333333
            },
            {
              "pitch": 65,
              "velocity": 54,
              "position": 14,
              "duration": 1.9895833333333333
            },
            {
              "pitch": 70,
              "velocity": 45,
              "position": 14,
              "duration": 1.9895833333333333
            }
          ]
        },
        "8": {
          "ctab": {
            "srcChannel": 8,
            "name": "Perc",
            "accType": "SUBRHYTHM",
            "editable": false,
            "mutedNotes": [],
            "mutedChords": [],
            "autoStart": true,
            "sourceChordNote": 0,
            "sourceChordType": "Maj7",
            "ctb2Low": null,
            "ctb2Main": {
              "ntr": "ROOT_FIXED",
              "ntt": "BYPASS",
              "bassOn": false,
              "chordRootUpperLimit": 6,
              "noteLowLimit": 0,
              "noteHighLimit": 127,
              "rtr": "PITCH_SHIFT"
            },
            "ctb2High": null
          },
          "notes": [
            {
              "pitch": 54,
              "velocity": 36,
              "position": 0,
              "duration": 0.010416666666666666
            },
            {
              "pitch": 54,
              "velocity": 9,
              "position": 0.21875,
              "duration": 0.010416666666666666
            },
            {
              "pitch": 54,
              "velocity": 25,
              "position": 0.3333333333333333,
              "duration": 0.010416666666666666
            },
            {
              "pitch": 54,
              "velocity": 24,
              "position": 0.5520833333333334,
              "duration": 0.010416666666666666
            },
            {
              "pitch": 54,
              "velocity": 26,
              "position": 0.6666666666666666,
              "duration": 0.010416666666666666
            },
            {
              "pitch": 54,
              "velocity": 8,
              "position": 0.8854166666666666,
              "duration": 0.010416666666666666
            },
            {
              "pitch": 54,
              "velocity": 90,
              "position": 1,
              "duration": 0.010416666666666666
            },
            {
              "pitch": 54,
              "velocity": 13,
              "position": 1.21875,
              "duration": 0.010416666666666666
            },
            {
              "pitch": 54,
              "velocity": 25,
              "position": 1.3333333333333333,
              "duration": 0.010416666666666666
            },
            {
              "pitch": 54,
              "velocity": 10,
              "position": 1.5520833333333333,
              "duration": 0.010416666666666666
            },
            {
              "pitch": 54,
              "velocity": 19,
              "position": 1.6666666666666667,
              "duration": 0.010416666666666666
            },
            {
              "pitch": 54,
              "velocity": 10,
              "position": 1.8854166666666667,
              "duration": 0.010416666666666666
            },
            {
              "pitch": 54,
              "velocity": 36,
              "position": 2,
              "duration": 0.010416666666666666
            },
            {
              "pitch": 54,
              "velocity": 9,
              "position": 2.21875,
              "duration": 0.010416666666666666
            },
            {
              "pitch": 54,
              "velocity": 25,
              "position": 2.3333333333333335,
              "duration": 0.010416666666666666
            },
            {
              "pitch": 54,
              "velocity": 24,
              "position": 2.5520833333333335,
              "duration": 0.010416666666666666
            },
            {
              "pitch": 54,
              "velocity": 26,
              "position": 2.6666666666666665,
              "duration": 0.010416666666666666
            },
            {
              "pitch": 54,
              "velocity": 8,
              "position": 2.8854166666666665,
              "duration": 0.010416666666666666
            },
            {
              "pitch": 54,
              "velocity": 90,
              "position": 3,
              "duration": 0.010416666666666666
            },
            {
              "pitch": 54,
              "velocity": 13,
              "position": 3.21875,
              "duration": 0.010416666666666666
            },
            {
              "pitch": 54,
              "velocity": 25,
              "position": 3.3333333333333335,
              "duration": 0.010416666666666666
            },
            {
              "pitch": 54,
              "velocity": 10,
              "position": 3.5520833333333335,
              "duration": 0.010416666666666666
            },
            {
              "pitch": 54,
              "velocity": 19,
              "position": 3.6666666666666665,
              "duration": 0.010416666666666666
            },
            {
              "pitch": 54,
              "velocity": 10,
              "position": 3.8854166666666665,
              "duration": 0.010416666666666666
            },
            {
              "pitch": 54,
              "velocity": 36,
              "position": 4,
              "duration": 0.010416666666666666
            },
            {
              "pitch": 54,
              "velocity": 9,
              "position": 4.21875,
              "duration": 0.010416666666666666
            },
            {
              "pitch": 54,
              "velocity": 25,
              "position": 4.333333333333333,
              "duration": 0.010416666666666666
            },
            {
              "pitch": 54,
              "velocity": 24,
              "position": 4.552083333333333,
              "duration": 0.010416666666666666
            },
            {
              "pitch": 54,
              "velocity": 26,
              "position": 4.666666666666667,
              "duration": 0.010416666666666666
            },
            {
              "pitch": 54,
              "velocity": 8,
              "position": 4.885416666666667,
              "duration": 0.010416666666666666
            },
            {
              "pitch": 54,
              "velocity": 90,
              "position": 5,
              "duration": 0.010416666666666666
            },
            {
              "pitch": 54,
              "velocity": 13,
              "position": 5.21875,
              "duration": 0.010416666666666666
            },
            {
              "pitch": 54,
              "velocity": 25,
              "position": 5.333333333333333,
              "duration": 0.010416666666666666
            },
            {
              "pitch": 54,
              "velocity": 10,
              "position": 5.552083333333333,
              "duration": 0.010416666666666666
            },
            {
              "pitch": 54,
              "velocity": 19,
              "position": 5.666666666666667,
              "duration": 0.010416666666666666
            },
            {
              "pitch": 54,
              "velocity": 10,
              "position": 5.885416666666667,
              "duration": 0.010416666666666666
            },
            {
              "pitch": 54,
              "velocity": 36,
              "position": 6,
              "duration": 0.010416666666666666
            },
            {
              "pitch": 54,
              "velocity": 9,
              "position": 6.21875,
              "duration": 0.010416666666666666
            },
            {
              "pitch": 54,
              "velocity": 25,
              "position": 6.333333333333333,
              "duration": 0.010416666666666666
            },
            {
              "pitch": 54,
              "velocity": 24,
              "position": 6.552083333333333,
              "duration": 0.010416666666666666
            },
            {
              "pitch": 54,
              "velocity": 26,
              "position": 6.666666666666667,
              "duration": 0.010416666666666666
            },
            {
              "pitch": 54,
              "velocity": 8,
              "position": 6.885416666666667,
              "duration": 0.010416666666666666
            },
            {
              "pitch": 54,
              "velocity": 90,
              "position": 7,
              "duration": 0.010416666666666666
            },
            {
              "pitch": 54,
              "velocity": 13,
              "position": 7.21875,
              "duration": 0.010416666666666666
            },
            {
              "pitch": 54,
              "velocity": 25,
              "position": 7.333333333333333,
              "duration": 0.010416666666666666
            },
            {
              "pitch": 54,
              "velocity": 10,
              "position": 7.552083333333333,
              "duration": 0.010416666666666666
            },
            {
              "pitch": 54,
              "velocity": 19,
              "position": 7.666666666666667,
              "duration": 0.010416666666666666
            },
            {
              "pitch": 54,
              "velocity": 10,
              "position": 7.885416666666667,
              "duration": 0.010416666666666666
            },
            {
              "pitch": 54,
              "velocity": 36,
              "position": 8,
              "duration": 0.010416666666666666
            },
            {
              "pitch": 54,
              "velocity": 9,
              "position": 8.21875,
              "duration": 0.010416666666666666
            },
            {
              "pitch": 54,
              "velocity": 25,
              "position": 8.333333333333334,
              "duration": 0.010416666666666666
            },
            {
              "pitch": 54,
              "velocity": 24,
              "position": 8.552083333333334,
              "duration": 0.010416666666666666
            },
            {
              "pitch": 54,
              "velocity": 26,
              "position": 8.666666666666666,
              "duration": 0.010416666666666666
            },
            {
              "pitch": 54,
              "velocity": 8,
              "position": 8.885416666666666,
              "duration": 0.010416666666666666
            },
            {
              "pitch": 54,
              "velocity": 90,
              "position": 9,
              "duration": 0.010416666666666666
            },
            {
              "pitch": 54,
              "velocity": 13,
              "position": 9.21875,
              "duration": 0.010416666666666666
            },
            {
              "pitch": 54,
              "velocity": 25,
              "position": 9.333333333333334,
              "duration": 0.010416666666666666
            },
            {
              "pitch": 54,
              "velocity": 10,
              "position": 9.552083333333334,
              "duration": 0.010416666666666666
            },
            {
              "pitch": 54,
              "velocity": 19,
              "position": 9.666666666666666,
              "duration": 0.010416666666666666
            },
            {
              "pitch": 54,
              "velocity": 10,
              "position": 9.885416666666666,
              "duration": 0.010416666666666666
            },
            {
              "pitch": 54,
              "velocity": 36,
              "position": 10,
              "duration": 0.010416666666666666
            },
            {
              "pitch": 54,
              "velocity": 9,
              "position": 10.21875,
              "duration": 0.010416666666666666
            },
            {
              "pitch": 54,
              "velocity": 25,
              "position": 10.333333333333334,
              "duration": 0.010416666666666666
            },
            {
              "pitch": 54,
              "velocity": 24,
              "position": 10.552083333333334,
              "duration": 0.010416666666666666
            },
            {
              "pitch": 54,
              "velocity": 26,
              "position": 10.666666666666666,
              "duration": 0.010416666666666666
            },
            {
              "pitch": 54,
              "velocity": 8,
              "position": 10.885416666666666,
              "duration": 0.010416666666666666
            },
            {
              "pitch": 54,
              "velocity": 90,
              "position": 11,
              "duration": 0.010416666666666666
            },
            {
              "pitch": 54,
              "velocity": 13,
              "position": 11.21875,
              "duration": 0.010416666666666666
            },
            {
              "pitch": 54,
              "velocity": 25,
              "position": 11.333333333333334,
              "duration": 0.010416666666666666
            },
            {
              "pitch": 54,
              "velocity": 10,
              "position": 11.552083333333334,
              "duration": 0.010416666666666666
            },
            {
              "pitch": 54,
              "velocity": 19,
              "position": 11.666666666666666,
              "duration": 0.010416666666666666
            },
            {
              "pitch": 54,
              "velocity": 10,
              "position": 11.885416666666666,
              "duration": 0.010416666666666666
            },
            {
              "pitch": 54,
              "velocity": 36,
              "position": 12,
              "duration": 0.010416666666666666
            },
            {
              "pitch": 54,
              "velocity": 9,
              "position": 12.21875,
              "duration": 0.010416666666666666
            },
            {
              "pitch": 54,
              "velocity": 25,
              "position": 12.333333333333334,
              "duration": 0.010416666666666666
            },
            {
              "pitch": 54,
              "velocity": 24,
              "position": 12.552083333333334,
              "duration": 0.010416666666666666
            },
            {
              "pitch": 54,
              "velocity": 26,
              "position": 12.666666666666666,
              "duration": 0.010416666666666666
            },
            {
              "pitch": 54,
              "velocity": 8,
              "position": 12.885416666666666,
              "duration": 0.010416666666666666
            },
            {
              "pitch": 54,
              "velocity": 90,
              "position": 13,
              "duration": 0.010416666666666666
            },
            {
              "pitch": 54,
              "velocity": 13,
              "position": 13.21875,
              "duration": 0.010416666666666666
            },
            {
              "pitch": 54,
              "velocity": 25,
              "position": 13.333333333333334,
              "duration": 0.010416666666666666
            },
            {
              "pitch": 54,
              "velocity": 10,
              "position": 13.552083333333334,
              "duration": 0.010416666666666666
            },
            {
              "pitch": 54,
              "velocity": 19,
              "position": 13.666666666666666,
              "duration": 0.010416666666666666
            },
            {
              "pitch": 54,
              "velocity": 10,
              "position": 13.885416666666666,
              "duration": 0.010416666666666666
            },
            {
              "pitch": 54,
              "velocity": 36,
              "position": 14,
              "duration": 0.010416666666666666
            },
            {
              "pitch": 54,
              "velocity": 9,
              "position": 14.21875,
              "duration": 0.010416666666666666
            },
            {
              "pitch": 54,
              "velocity": 25,
              "position": 14.333333333333334,
              "duration": 0.010416666666666666
            },
            {
              "pitch": 54,
              "velocity": 24,
              "position": 14.552083333333334,
              "duration": 0.010416666666666666
            },
            {
              "pitch": 54,
              "velocity": 26,
              "position": 14.666666666666666,
              "duration": 0.010416666666666666
            },
            {
              "pitch": 54,
              "velocity": 8,
              "position": 14.885416666666666,
              "duration": 0.010416666666666666
            },
            {
              "pitch": 54,
              "velocity": 90,
              "position": 15,
              "duration": 0.010416666666666666
            },
            {
              "pitch": 54,
              "velocity": 13,
              "position": 15.21875,
              "duration": 0.010416666666666666
            },
            {
              "pitch": 54,
              "velocity": 25,
              "position": 15.333333333333334,
              "duration": 0.010416666666666666
            },
            {
              "pitch": 54,
              "velocity": 10,
              "position": 15.552083333333334,
              "duration": 0.010416666666666666
            },
            {
              "pitch": 54,
              "velocity": 19,
              "position": 15.666666666666666,
              "duration": 0.010416666666666666
            },
            {
              "pitch": 54,
              "velocity": 10,
              "position": 15.885416666666666,
              "duration": 0.010416666666666666
            }
          ]
        },
        "9": {
          "ctab": {
            "srcChannel": 9,
            "name": "Drs",
            "accType": "RHYTHM",
            "editable": false,
            "mutedNotes": [],
            "mutedChords": [],
            "autoStart": true,
            "sourceChordNote": 0,
            "sourceChordType": "Maj7",
            "ctb2Low": null,
            "ctb2Main": {
              "ntr": "ROOT_FIXED",
              "ntt": "BYPASS",
              "bassOn": false,
              "chordRootUpperLimit": 6,
              "noteLowLimit": 0,
              "noteHighLimit": 127,
              "rtr": "PITCH_SHIFT"
            },
            "ctb2High": null
          },
          "notes": [
            {
              "pitch": 36,
              "velocity": 90,
              "position": 0,
              "duration": 0.010416666666666666
            },
            {
              "pitch": 59,
              "velocity": 72,
              "position": 0,
              "duration": 0.010416666666666666
            },
            {
              "pitch": 44,
              "velocity": 40,
              "position": 0.3333333333333333,
              "duration": 0.010416666666666666
            },
            {
              "pitch": 59,
              "velocity": 52,
              "position": 0.3333333333333333,
              "duration": 0.010416666666666666
            },
            {
              "pitch": 40,
              "velocity": 15,
              "position": 0.5520833333333334,
              "duration": 0.010416666666666666
            },
            {
              "pitch": 59,
              "velocity": 12,
              "position": 0.5520833333333334,
              "duration": 0.010416666666666666
            },
            {
              "pitch": 44,
              "velocity": 60,
              "position": 0.6666666666666666,
              "duration": 0.010416666666666666
            },
            {
              "pitch": 59,
              "velocity": 62,
              "position": 0.6666666666666666,
              "duration": 0.010416666666666666
            },
            {
              "pitch": 40,
              "velocity": 20,
              "position": 0.7708333333333334,
              "duration": 0.010416666666666666
            },
            {
              "pitch": 36,
              "velocity": 50,
              "position": 0.8854166666666666,
              "duration": 0.010416666666666666
            },
            {
              "pitch": 40,
              "velocity": 110,
              "position": 1,
              "duration": 0.010416666666666666
            },
            {
              "pitch": 59,
              "velocity": 72,
              "position": 1,
              "duration": 0.010416666666666666
            },
            {
              "pitch": 59,
              "velocity": 12,
              "position": 1.21875,
              "duration": 0.010416666666666666
            },
            {
              "pitch": 59,
              "velocity": 52,
              "position": 1.3333333333333333,
              "duration": 0.010416666666666666
            },
            {
              "pitch": 40,
              "velocity": 15,
              "position": 1.5520833333333333,
              "duration": 0.010416666666666666
            },
            {
              "pitch": 36,
              "velocity": 50,
              "position": 1.6666666666666667,
              "duration": 0.010416666666666666
            },
            {
              "pitch": 59,
              "velocity": 62,
              "position": 1.6666666666666667,
              "duration": 0.010416666666666666
            },
            {
              "pitch": 40,
              "velocity": 20,
              "position": 1.7708333333333333,
              "duration": 0.010416666666666666
            },
            {
              "pitch": 59,
              "velocity": 12,
              "position": 1.8854166666666667,
              "duration": 0.010416666666666666
            },
            {
              "pitch": 36,
              "velocity": 90,
              "position": 2,
              "duration": 0.010416666666666666
            },
            {
              "pitch": 59,
              "velocity": 72,
              "position": 2,
              "duration": 0.010416666666666666
            },
            {
              "pitch": 44,
              "velocity": 40,
              "position": 2.3333333333333335,
              "duration": 0.010416666666666666
            },
            {
              "pitch": 59,
              "velocity": 52,
              "position": 2.3333333333333335,
              "duration": 0.010416666666666666
            },
            {
              "pitch": 40,
              "velocity": 15,
              "position": 2.5520833333333335,
              "duration": 0.010416666666666666
            },
            {
              "pitch": 59,
              "velocity": 12,
              "position": 2.5520833333333335,
              "duration": 0.010416666666666666
            },
            {
              "pitch": 44,
              "velocity": 60,
              "position": 2.6666666666666665,
              "duration": 0.010416666666666666
            },
            {
              "pitch": 59,
              "velocity": 62,
              "position": 2.6666666666666665,
              "duration": 0.010416666666666666
            },
            {
              "pitch": 40,
              "velocity": 20,
              "position": 2.7708333333333335,
              "duration": 0.010416666666666666
            },
            {
              "pitch": 36,
              "velocity": 50,
              "position": 2.8854166666666665,
              "duration": 0.010416666666666666
            },
            {
              "pitch": 40,
              "velocity": 110,
              "position": 3,
              "duration": 0.010416666666666666
            },
            {
              "pitch": 59,
              "velocity": 72,
              "position": 3,
              "duration": 0.010416666666666666
            },
            {
              "pitch": 59,
              "velocity": 12,
              "position": 3.21875,
              "duration": 0.010416666666666666
            },
            {
              "pitch": 59,
              "velocity": 52,
              "position": 3.3333333333333335,
              "duration": 0.010416666666666666
            },
            {
              "pitch": 36,
              "velocity": 40,
              "position": 3.5520833333333335,
              "duration": 0.010416666666666666
            },
            {
              "pitch": 36,
              "velocity": 80,
              "position": 3.6666666666666665,
              "duration": 0.010416666666666666
            },
            {
              "pitch": 59,
              "velocity": 62,
              "position": 3.6666666666666665,
              "duration": 0.010416666666666666
            },
            {
              "pitch": 59,
              "velocity": 12,
              "position": 3.8854166666666665,
              "duration": 0.010416666666666666
            },
            {
              "pitch": 36,
              "velocity": 90,
              "position": 4,
              "duration": 0.010416666666666666
            },
            {
              "pitch": 59,
              "velocity": 72,
              "position": 4,
              "duration": 0.010416666666666666
            },
            {
              "pitch": 44,
              "velocity": 40,
              "position": 4.333333333333333,
              "duration": 0.010416666666666666
            },
            {
              "pitch": 59,
              "velocity": 52,
              "position": 4.333333333333333,
              "duration": 0.010416666666666666
            },
            {
              "pitch": 40,
              "velocity": 15,
              "position": 4.552083333333333,
              "duration": 0.010416666666666666
            },
            {
              "pitch": 59,
              "velocity": 12,
              "position": 4.552083333333333,
              "duration": 0.010416666666666666
            },
            {
              "pitch": 44,
              "velocity": 60,
              "position": 4.666666666666667,
              "duration": 0.010416666666666666
            },
            {
              "pitch": 59,
              "velocity": 62,
              "position": 4.666666666666667,
              "duration": 0.010416666666666666
            },
            {
              "pitch": 40,
              "velocity": 20,
              "position": 4.770833333333333,
              "duration": 0.010416666666666666
            },
            {
              "pitch": 36,
              "velocity": 50,
              "position": 4.885416666666667,
              "duration": 0.010416666666666666
            },
            {
              "pitch": 40,
              "velocity": 110,
              "position": 5,
              "duration": 0.010416666666666666
            },
            {
              "pitch": 59,
              "velocity": 72,
              "position": 5,
              "duration": 0.010416666666666666
            },
            {
              "pitch": 59,
              "velocity": 12,
              "position": 5.21875,
              "duration": 0.010416666666666666
            },
            {
              "pitch": 59,
              "velocity": 52,
              "position": 5.333333333333333,
              "duration": 0.010416666666666666
            },
            {
              "pitch": 40,
              "velocity": 15,
              "position": 5.552083333333333,
              "duration": 0.010416666666666666
            },
            {
              "pitch": 36,
              "velocity": 50,
              "position": 5.666666666666667,
              "duration": 0.010416666666666666
            },
            {
              "pitch": 59,
              "velocity": 62,
              "position": 5.666666666666667,
              "duration": 0.010416666666666666
            },
            {
              "pitch": 40,
              "velocity": 20,
              "position": 5.770833333333333,
              "duration": 0.010416666666666666
            },
            {
              "pitch": 59,
              "velocity": 12,
              "position": 5.885416666666667,
              "duration": 0.010416666666666666
            },
            {
              "pitch": 36,
              "velocity": 90,
              "position": 6,
              "duration": 0.010416666666666666
            },
            {
              "pitch": 59,
              "velocity": 72,
              "position": 6,
              "duration": 0.010416666666666666
            },
            {
              "pitch": 44,
              "velocity": 40,
              "position": 6.333333333333333,
              "duration": 0.010416666666666666
            },
            {
              "pitch": 59,
              "velocity": 52,
              "position": 6.333333333333333,
              "duration": 0.010416666666666666
            },
            {
              "pitch": 40,
              "velocity": 15,
              "position": 6.552083333333333,
              "duration": 0.010416666666666666
            },
            {
              "pitch": 59,
              "velocity": 12,
              "position": 6.552083333333333,
              "duration": 0.010416666666666666
            },
            {
              "pitch": 44,
              "velocity": 60,
              "position": 6.666666666666667,
              "duration": 0.010416666666666666
            },
            {
              "pitch": 59,
              "velocity": 62,
              "position": 6.666666666666667,
              "duration": 0.010416666666666666
            },
            {
              "pitch": 40,
              "velocity": 20,
              "position": 6.770833333333333,
              "duration": 0.010416666666666666
            },
            {
              "pitch": 36,
              "velocity": 50,
              "position": 6.885416666666667,
              "duration": 0.010416666666666666
            },
            {
              "pitch": 40,
              "velocity": 110,
              "position": 7,
              "duration": 0.010416666666666666
            },
            {
              "pitch": 59,
              "velocity": 72,
              "position": 7,
              "duration": 0.010416666666666666
            },
            {
              "pitch": 59,
              "velocity": 12,
              "position": 7.21875,
              "duration": 0.010416666666666666
            },
            {
              "pitch": 36,
              "velocity": 90,
              "position": 7.333333333333333,
              "duration": 0.010416666666666666
            },
            {
              "pitch": 59,
              "velocity": 52,
              "position": 7.333333333333333,
              "duration": 0.010416666666666666
            },
            {
              "pitch": 40,
              "velocity": 15,
              "position": 7.552083333333333,
              "duration": 0.010416666666666666
            },
            {
              "pitch": 36,
              "velocity": 70,
              "position": 7.666666666666667,
              "duration": 0.010416666666666666
            },
            {
              "pitch": 59,
              "velocity": 62,
              "position": 7.666666666666667,
              "duration": 0.010416666666666666
            },
            {
              "pitch": 40,
              "velocity": 10,
              "position": 7.885416666666667,
              "duration": 0.010416666666666666
            },
            {
              "pitch": 59,
              "velocity": 12,
              "position": 7.885416666666667,
              "duration": 0.010416666666666666
            },
            {
              "pitch": 36,
              "velocity": 90,
              "position": 8,
              "duration": 0.010416666666666666
            },
            {
              "pitch": 59,
              "velocity": 72,
              "position": 8,
              "duration": 0.010416666666666666
            },
            {
              "pitch": 44,
              "velocity": 40,
              "position": 8.333333333333334,
              "duration": 0.010416666666666666
            },
            {
              "pitch": 59,
              "velocity": 52,
              "position": 8.333333333333334,
              "duration": 0.010416666666666666
            },
            {
              "pitch": 40,
              "velocity": 15,
              "position": 8.552083333333334,
              "duration": 0.010416666666666666
            },
            {
              "pitch": 59,
              "velocity": 12,
              "position": 8.552083333333334,
              "duration": 0.010416666666666666
            },
            {
              "pitch": 44,
              "velocity": 60,
              "position": 8.666666666666666,
              "duration": 0.010416666666666666
            },
            {
              "pitch": 59,
              "velocity": 62,
              "position": 8.666666666666666,
              "duration": 0.010416666666666666
            },
            {
              "pitch": 40,
              "velocity": 20,
              "position": 8.770833333333334,
              "duration": 0.010416666666666666
            },
            {
              "pitch": 36,
              "velocity": 50,
              "position": 8.885416666666666,
              "duration": 0.010416666666666666
            },
            {
              "pitch": 40,
              "velocity": 110,
              "position": 9,
              "duration": 0.010416666666666666
            },
            {
              "pitch": 59,
              "velocity": 72,
              "position": 9,
              "duration": 0.010416666666666666
            },
            {
              "pitch": 59,
              "velocity": 12,
              "position": 9.21875,
              "duration": 0.010416666666666666
            },
            {
              "pitch": 59,
              "velocity": 52,
              "position": 9.333333333333334,
              "duration": 0.010416666666666666
            },
            {
              "pitch": 40,
              "velocity": 15,
              "position": 9.552083333333334,
              "duration": 0.010416666666666666
            },
            {
              "pitch": 36,
              "velocity": 50,
              "position": 9.666666666666666,
              "duration": 0.010416666666666666
            },
            {
              "pitch": 59,
              "velocity": 62,
              "position": 9.666666666666666,
              "duration": 0.010416666666666666
            },
            {
              "pitch": 40,
              "velocity": 20,
              "position": 9.770833333333334,
              "duration": 0.010416666666666666
            },
            {
              "pitch": 59,
              "velocity": 12,
              "position": 9.885416666666666,
              "duration": 0.010416666666666666
            },
            {
              "pitch": 36,
              "velocity": 90,
              "position": 10,
              "duration": 0.010416666666666666
            },
            {
              "pitch": 59,
              "velocity": 72,
              "position": 10,
              "duration": 0.010416666666666666
            },
            {
              "pitch": 44,
              "velocity": 40,
              "position": 10.333333333333334,
              "duration": 0.010416666666666666
            },
            {
              "pitch": 59,
              "velocity": 52,
              "position": 10.333333333333334,
              "duration": 0.010416666666666666
            },
            {
              "pitch": 40,
              "velocity": 15,
              "position": 10.552083333333334,
              "duration": 0.010416666666666666
            },
            {
              "pitch": 59,
              "velocity": 12,
              "position": 10.552083333333334,
              "duration": 0.010416666666666666
            },
            {
              "pitch": 44,
              "velocity": 60,
              "position": 10.666666666666666,
              "duration": 0.010416666666666666
            },
            {
              "pitch": 59,
              "velocity": 62,
              "position": 10.666666666666666,
              "duration": 0.010416666666666666
            },
            {
              "pitch": 40,
              "velocity": 20,
              "position": 10.770833333333334,
              "duration": 0.010416666666666666
            },
            {
              "pitch": 36,
              "velocity": 50,
              "position": 10.885416666666666,
              "duration": 0.010416666666666666
            },
            {
              "pitch": 40,
              "velocity": 110,
              "position": 11,
              "duration": 0.010416666666666666
            },
            {
              "pitch": 59,
              "velocity": 72,
              "position": 11,
              "duration": 0.010416666666666666
            },
            {
              "pitch": 59,
              "velocity": 12,
              "position": 11.21875,
              "duration": 0.010416666666666666
            },
            {
              "pitch": 59,
              "velocity": 52,
              "position": 11.333333333333334,
              "duration": 0.010416666666666666
            },
            {
              "pitch": 36,
              "velocity": 40,
              "position": 11.552083333333334,
              "duration": 0.010416666666666666
            },
            {
              "pitch": 36,
              "velocity": 80,
              "position": 11.666666666666666,
              "duration": 0.010416666666666666
            },
            {
              "pitch": 59,
              "velocity": 62,
              "position": 11.666666666666666,
              "duration": 0.010416666666666666
            },
            {
              "pitch": 59,
              "velocity": 12,
              "position": 11.885416666666666,
              "duration": 0.010416666666666666
            },
            {
              "pitch": 36,
              "velocity": 90,
              "position": 12,
              "duration": 0.010416666666666666
            },
            {
              "pitch": 59,
              "velocity": 72,
              "position": 12,
              "duration": 0.010416666666666666
            },
            {
              "pitch": 44,
              "velocity": 40,
              "position": 12.333333333333334,
              "duration": 0.010416666666666666
            },
            {
              "pitch": 59,
              "velocity": 52,
              "position": 12.333333333333334,
              "duration": 0.010416666666666666
            },
            {
              "pitch": 40,
              "velocity": 15,
              "position": 12.552083333333334,
              "duration": 0.010416666666666666
            },
            {
              "pitch": 59,
              "velocity": 12,
              "position": 12.552083333333334,
              "duration": 0.010416666666666666
            },
            {
              "pitch": 36,
              "velocity": 50,
              "position": 12.666666666666666,
              "duration": 0.010416666666666666
            },
            {
              "pitch": 44,
              "velocity": 60,
              "position": 12.666666666666666,
              "duration": 0.010416666666666666
            },
            {
              "pitch": 59,
              "velocity": 62,
              "position": 12.666666666666666,
              "duration": 0.010416666666666666
            },
            {
              "pitch": 40,
              "velocity": 20,
              "position": 12.770833333333334,
              "duration": 0.010416666666666666
            },
            {
              "pitch": 36,
              "velocity": 90,
              "position": 13,
              "duration": 0.010416666666666666
            },
            {
              "pitch": 40,
              "velocity": 110,
              "position": 13,
              "duration": 0.010416666666666666
            },
            {
              "pitch": 59,
              "velocity": 72,
              "position": 13,
              "duration": 0.010416666666666666
            },
            {
              "pitch": 59,
              "velocity": 12,
              "position": 13.21875,
              "duration": 0.010416666666666666
            },
            {
              "pitch": 59,
              "velocity": 52,
              "position": 13.333333333333334,
              "duration": 0.010416666666666666
            },
            {
              "pitch": 40,
              "velocity": 15,
              "position": 13.552083333333334,
              "duration": 0.010416666666666666
            },
            {
              "pitch": 36,
              "velocity": 50,
              "position": 13.666666666666666,
              "duration": 0.010416666666666666
            },
            {
              "pitch": 59,
              "velocity": 62,
              "position": 13.666666666666666,
              "duration": 0.010416666666666666
            },
            {
              "pitch": 40,
              "velocity": 20,
              "position": 13.770833333333334,
              "duration": 0.010416666666666666
            },
            {
              "pitch": 59,
              "velocity": 12,
              "position": 13.885416666666666,
              "duration": 0.010416666666666666
            },
            {
              "pitch": 36,
              "velocity": 90,
              "position": 14,
              "duration": 0.010416666666666666
            },
            {
              "pitch": 59,
              "velocity": 72,
              "position": 14,
              "duration": 0.010416666666666666
            },
            {
              "pitch": 36,
              "velocity": 50,
              "position": 14.333333333333334,
              "duration": 0.010416666666666666
            },
            {
              "pitch": 44,
              "velocity": 40,
              "position": 14.333333333333334,
              "duration": 0.010416666666666666
            },
            {
              "pitch": 59,
              "velocity": 52,
              "position": 14.333333333333334,
              "duration": 0.010416666666666666
            },
            {
              "pitch": 40,
              "velocity": 15,
              "position": 14.552083333333334,
              "duration": 0.010416666666666666
            },
            {
              "pitch": 59,
              "velocity": 12,
              "position": 14.552083333333334,
              "duration": 0.010416666666666666
            },
            {
              "pitch": 36,
              "velocity": 70,
              "position": 14.666666666666666,
              "duration": 0.010416666666666666
            },
            {
              "pitch": 44,
              "velocity": 60,
              "position": 14.666666666666666,
              "duration": 0.010416666666666666
            },
            {
              "pitch": 59,
              "velocity": 62,
              "position": 14.666666666666666,
              "duration": 0.010416666666666666
            },
            {
              "pitch": 40,
              "velocity": 20,
              "position": 14.770833333333334,
              "duration": 0.010416666666666666
            },
            {
              "pitch": 40,
              "velocity": 106,
              "position": 15,
              "duration": 0.010416666666666666
            },
            {
              "pitch": 44,
              "velocity": 80,
              "position": 15,
              "duration": 0.010416666666666666
            },
            {
              "pitch": 40,
              "velocity": 110,
              "position": 15.020833333333334,
              "duration": 0.010416666666666666
            },
            {
              "pitch": 36,
              "velocity": 90,
              "position": 15.333333333333334,
              "duration": 0.010416666666666666
            },
            {
              "pitch": 44,
              "velocity": 40,
              "position": 15.333333333333334,
              "duration": 0.010416666666666666
            },
            {
              "pitch": 45,
              "velocity": 80,
              "position": 15.333333333333334,
              "duration": 0.010416666666666666
            },
            {
              "pitch": 40,
              "velocity": 15,
              "position": 15.552083333333334,
              "duration": 0.010416666666666666
            },
            {
              "pitch": 36,
              "velocity": 70,
              "position": 15.666666666666666,
              "duration": 0.010416666666666666
            },
            {
              "pitch": 43,
              "velocity": 70,
              "position": 15.666666666666666,
              "duration": 0.010416666666666666
            },
            {
              "pitch": 44,
              "velocity": 60,
              "position": 15.666666666666666,
              "duration": 0.010416666666666666
            },
            {
              "pitch": 40,
              "velocity": 10,
              "position": 15.885416666666666,
              "duration": 0.010416666666666666
            }
          ]
        },
        "10": {
          "ctab": {
            "srcChannel": 10,
            "name": "Bass",
            "accType": "BASS",
            "editable": false,
            "mutedNotes": [],
            "mutedChords": [
              "dim7",
              "dim",
              "minMaj7(9)",
              "minMaj7",
              "min7(11)",
              "min7(9)",
              "min(9)",
              "m7b5",
              "min7",
              "min6",
              "min"
            ],
            "autoStart": false,
            "sourceChordNote": 0,
            "sourceChordType": "Maj7",
            "ctb2Low": null,
            "ctb2Main": {
              "ntr": "ROOT_TRANSPOSITION",
              "ntt": "BYPASS",
              "bassOn": false,
              "chordRootUpperLimit": 8,
              "noteLowLimit": 28,
              "noteHighLimit": 127,
              "rtr": "PITCH_SHIFT"
            },
            "ctb2High": null
          },
          "notes": [
            {
              "pitch": 24,
              "velocity": 100,
              "position": 0,
              "duration": 1.65625
            },
            {
              "pitch": 28,
              "velocity": 80,
              "position": 1.6666666666666667,
              "duration": 0.3229166666666667
            },
            {
              "pitch": 29,
              "velocity": 100,
              "position": 2,
              "duration": 1.65625
            },
            {
              "pitch": 31,
              "velocity": 80,
              "position": 3.6666666666666665,
              "duration": 0.3229166666666667
            },
            {
              "pitch": 24,
              "velocity": 100,
              "position": 4,
              "duration": 1.65625
            },
            {
              "pitch": 28,
              "velocity": 80,
              "position": 5.666666666666667,
              "duration": 0.3229166666666667
            },
            {
              "pitch": 31,
              "velocity": 100,
              "position": 6,
              "duration": 0.9895833333333334
            },
            {
              "pitch": 24,
              "velocity": 100,
              "position": 7,
              "duration": 0.3229166666666667
            },
            {
              "pitch": 28,
              "velocity": 80,
              "position": 7.333333333333333,
              "duration": 0.3229166666666667
            },
            {
              "pitch": 29,
              "velocity": 80,
              "position": 7.666666666666667,
              "duration": 0.3229166666666667
            },
            {
              "pitch": 31,
              "velocity": 100,
              "position": 8,
              "duration": 1.3229166666666667
            },
            {
              "pitch": 31,
              "velocity": 80,
              "position": 9.333333333333334,
              "duration": 0.3229166666666667
            },
            {
              "pitch": 30,
              "velocity": 80,
              "position": 9.666666666666666,
              "duration": 0.3229166666666667
            },
            {
              "pitch": 29,
              "velocity": 100,
              "position": 10,
              "duration": 1.65625
            },
            {
              "pitch": 29,
              "velocity": 80,
              "position": 11.666666666666666,
              "duration": 0.3229166666666667
            },
            {
              "pitch": 24,
              "velocity": 100,
              "position": 12,
              "duration": 0.65625
            },
            {
              "pitch": 24,
              "velocity": 80,
              "position": 12.666666666666666,
              "duration": 0.3229166666666667
            },
            {
              "pitch": 28,
              "velocity": 100,
              "position": 13,
              "duration": 0.65625
            },
            {
              "pitch": 28,
              "velocity": 80,
              "position": 13.666666666666666,
              "duration": 0.3229166666666667
            },
            {
              "pitch": 31,
              "velocity": 100,
              "position": 14,
              "duration": 0.3229166666666667
            },
            {
              "pitch": 31,
              "velocity": 80,
              "position": 14.333333333333334,
              "duration": 0.3229166666666667
            },
            {
              "pitch": 31,
              "velocity": 80,
              "position": 14.666666666666666,
              "duration": 0.3229166666666667
            },
            {
              "pitch": 31,
              "velocity": 100,
              "position": 15,
              "duration": 0.3229166666666667
            },
            {
              "pitch": 34,
              "velocity": 80,
              "position": 15.333333333333334,
              "duration": 0.3229166666666667
            },
            {
              "pitch": 36,
              "velocity": 80,
              "position": 15.666666666666666,
              "duration": 0.3229166666666667
            }
          ]
        },
        "11": {
          "ctab": {
            "srcChannel": 11,
            "name": "60sCln",
            "accType": "CHORD1",
            "editable": false,
            "mutedNotes": [],
            "mutedChords": [
              "dim7",
              "dim",
              "minMaj7(9)",
              "minMaj7",
              "min7(11)",
              "min7(9)",
              "min(9)",
              "m7b5",
              "min7",
              "min6",
              "min"
            ],
            "autoStart": false,
            "sourceChordNote": 0,
            "sourceChordType": "Maj7",
            "ctb2Low": null,
            "ctb2Main": {
              "ntr": "ROOT_TRANSPOSITION",
              "ntt": "BYPASS",
              "bassOn": false,
              "chordRootUpperLimit": 8,
              "noteLowLimit": 0,
              "noteHighLimit": 127,
              "rtr": "PITCH_SHIFT"
            },
            "ctb2High": null
          },
          "notes": [
            {
              "pitch": 58,
              "velocity": 80,
              "position": 0,
              "duration": 0.3229166666666667
            },
            {
              "pitch": 64,
              "velocity": 80,
              "position": 0,
              "duration": 0.32916666666666666
            },
            {
              "pitch": 67,
              "velocity": 80,
              "position": 0.010416666666666666,
              "duration": 0.3229166666666667
            },
            {
              "pitch": 72,
              "velocity": 80,
              "position": 0.020833333333333332,
              "duration": 0.3229166666666667
            },
            {
              "pitch": 58,
              "velocity": 40,
              "position": 0.3333333333333333,
              "duration": 0.3229166666666667
            },
            {
              "pitch": 64,
              "velocity": 40,
              "position": 0.3333333333333333,
              "duration": 0.32916666666666666
            },
            {
              "pitch": 67,
              "velocity": 40,
              "position": 0.34375,
              "duration": 0.3229166666666667
            },
            {
              "pitch": 72,
              "velocity": 40,
              "position": 0.3541666666666667,
              "duration": 0.3229166666666667
            },
            {
              "pitch": 58,
              "velocity": 60,
              "position": 0.6666666666666666,
              "duration": 0.3229166666666667
            },
            {
              "pitch": 64,
              "velocity": 60,
              "position": 0.6666666666666666,
              "duration": 0.32916666666666666
            },
            {
              "pitch": 67,
              "velocity": 60,
              "position": 0.6770833333333334,
              "duration": 0.3229166666666667
            },
            {
              "pitch": 72,
              "velocity": 60,
              "position": 0.6875,
              "duration": 0.3229166666666667
            },
            {
              "pitch": 58,
              "velocity": 100,
              "position": 1,
              "duration": 0.08333333333333333
            },
            {
              "pitch": 64,
              "velocity": 100,
              "position": 1,
              "duration": 0.08333333333333333
            },
            {
              "pitch": 67,
              "velocity": 100,
              "position": 1.0104166666666667,
              "duration": 0.08333333333333333
            },
            {
              "pitch": 72,
              "velocity": 100,
              "position": 1.0208333333333333,
              "duration": 0.08333333333333333
            },
            {
              "pitch": 58,
              "velocity": 60,
              "position": 1.3333333333333333,
              "duration": 0.010416666666666666
            },
            {
              "pitch": 64,
              "velocity": 60,
              "position": 1.3333333333333333,
              "duration": 0.010416666666666666
            },
            {
              "pitch": 67,
              "velocity": 60,
              "position": 1.34375,
              "duration": 0.010416666666666666
            },
            {
              "pitch": 72,
              "velocity": 60,
              "position": 1.3541666666666667,
              "duration": 0.010416666666666666
            },
            {
              "pitch": 58,
              "velocity": 80,
              "position": 1.6666666666666667,
              "duration": 0.3229166666666667
            },
            {
              "pitch": 64,
              "velocity": 80,
              "position": 1.6666666666666667,
              "duration": 0.3333333333333333
            },
            {
              "pitch": 57,
              "velocity": 40,
              "position": 2,
              "duration": 0.3229166666666667
            },
            {
              "pitch": 63,
              "velocity": 40,
              "position": 2,
              "duration": 0.32916666666666666
            },
            {
              "pitch": 67,
              "velocity": 80,
              "position": 1.6770833333333333,
              "duration": 0.65625
            },
            {
              "pitch": 72,
              "velocity": 80,
              "position": 1.6875,
              "duration": 0.65625
            },
            {
              "pitch": 57,
              "velocity": 40,
              "position": 2.3333333333333335,
              "duration": 0.3229166666666667
            },
            {
              "pitch": 63,
              "velocity": 40,
              "position": 2.3333333333333335,
              "duration": 0.32916666666666666
            },
            {
              "pitch": 67,
              "velocity": 40,
              "position": 2.34375,
              "duration": 0.3229166666666667
            },
            {
              "pitch": 72,
              "velocity": 40,
              "position": 2.3541666666666665,
              "duration": 0.3229166666666667
            },
            {
              "pitch": 57,
              "velocity": 60,
              "position": 2.6666666666666665,
              "duration": 0.3229166666666667
            },
            {
              "pitch": 63,
              "velocity": 60,
              "position": 2.6666666666666665,
              "duration": 0.32916666666666666
            },
            {
              "pitch": 67,
              "velocity": 60,
              "position": 2.6770833333333335,
              "duration": 0.3229166666666667
            },
            {
              "pitch": 72,
              "velocity": 60,
              "position": 2.6875,
              "duration": 0.3229166666666667
            },
            {
              "pitch": 57,
              "velocity": 100,
              "position": 3,
              "duration": 0.08333333333333333
            },
            {
              "pitch": 63,
              "velocity": 100,
              "position": 3,
              "duration": 0.08333333333333333
            },
            {
              "pitch": 67,
              "velocity": 100,
              "position": 3.0104166666666665,
              "duration": 0.08333333333333333
            },
            {
              "pitch": 72,
              "velocity": 100,
              "position": 3.0208333333333335,
              "duration": 0.08333333333333333
            },
            {
              "pitch": 56,
              "velocity": 60,
              "position": 3.3333333333333335,
              "duration": 0.010416666666666666
            },
            {
              "pitch": 62,
              "velocity": 60,
              "position": 3.3333333333333335,
              "duration": 0.010416666666666666
            },
            {
              "pitch": 66,
              "velocity": 60,
              "position": 3.34375,
              "duration": 0.010416666666666666
            },
            {
              "pitch": 71,
              "velocity": 60,
              "position": 3.3541666666666665,
              "duration": 0.010416666666666666
            },
            {
              "pitch": 57,
              "velocity": 100,
              "position": 3.6666666666666665,
              "duration": 0.3229166666666667
            },
            {
              "pitch": 63,
              "velocity": 100,
              "position": 3.6666666666666665,
              "duration": 0.3333333333333333
            },
            {
              "pitch": 67,
              "velocity": 100,
              "position": 3.6770833333333335,
              "duration": 0.3229166666666667
            },
            {
              "pitch": 72,
              "velocity": 100,
              "position": 3.6875,
              "duration": 0.3229166666666667
            },
            {
              "pitch": 58,
              "velocity": 40,
              "position": 4,
              "duration": 0.3229166666666667
            },
            {
              "pitch": 64,
              "velocity": 40,
              "position": 4,
              "duration": 0.32916666666666666
            },
            {
              "pitch": 67,
              "velocity": 40,
              "position": 4.010416666666667,
              "duration": 0.3229166666666667
            },
            {
              "pitch": 72,
              "velocity": 40,
              "position": 4.020833333333333,
              "duration": 0.3229166666666667
            },
            {
              "pitch": 58,
              "velocity": 40,
              "position": 4.333333333333333,
              "duration": 0.3229166666666667
            },
            {
              "pitch": 64,
              "velocity": 40,
              "position": 4.333333333333333,
              "duration": 0.32916666666666666
            },
            {
              "pitch": 67,
              "velocity": 40,
              "position": 4.34375,
              "duration": 0.3229166666666667
            },
            {
              "pitch": 72,
              "velocity": 40,
              "position": 4.354166666666667,
              "duration": 0.3229166666666667
            },
            {
              "pitch": 58,
              "velocity": 60,
              "position": 4.666666666666667,
              "duration": 0.3229166666666667
            },
            {
              "pitch": 64,
              "velocity": 60,
              "position": 4.666666666666667,
              "duration": 0.32916666666666666
            },
            {
              "pitch": 67,
              "velocity": 60,
              "position": 4.677083333333333,
              "duration": 0.3229166666666667
            },
            {
              "pitch": 72,
              "velocity": 60,
              "position": 4.6875,
              "duration": 0.3229166666666667
            },
            {
              "pitch": 58,
              "velocity": 100,
              "position": 5,
              "duration": 0.08333333333333333
            },
            {
              "pitch": 64,
              "velocity": 100,
              "position": 5,
              "duration": 0.08333333333333333
            },
            {
              "pitch": 67,
              "velocity": 100,
              "position": 5.010416666666667,
              "duration": 0.08333333333333333
            },
            {
              "pitch": 72,
              "velocity": 100,
              "position": 5.020833333333333,
              "duration": 0.08333333333333333
            },
            {
              "pitch": 58,
              "velocity": 60,
              "position": 5.333333333333333,
              "duration": 0.010416666666666666
            },
            {
              "pitch": 64,
              "velocity": 60,
              "position": 5.333333333333333,
              "duration": 0.010416666666666666
            },
            {
              "pitch": 67,
              "velocity": 60,
              "position": 5.34375,
              "duration": 0.010416666666666666
            },
            {
              "pitch": 72,
              "velocity": 60,
              "position": 5.354166666666667,
              "duration": 0.010416666666666666
            },
            {
              "pitch": 58,
              "velocity": 80,
              "position": 5.666666666666667,
              "duration": 0.65625
            },
            {
              "pitch": 64,
              "velocity": 80,
              "position": 5.666666666666667,
              "duration": 0.6625
            },
            {
              "pitch": 67,
              "velocity": 80,
              "position": 5.677083333333333,
              "duration": 0.65625
            },
            {
              "pitch": 72,
              "velocity": 80,
              "position": 5.6875,
              "duration": 0.65625
            },
            {
              "pitch": 58,
              "velocity": 40,
              "position": 6.333333333333333,
              "duration": 0.3229166666666667
            },
            {
              "pitch": 64,
              "velocity": 40,
              "position": 6.333333333333333,
              "duration": 0.32916666666666666
            },
            {
              "pitch": 67,
              "velocity": 40,
              "position": 6.34375,
              "duration": 0.3229166666666667
            },
            {
              "pitch": 72,
              "velocity": 40,
              "position": 6.354166666666667,
              "duration": 0.3229166666666667
            },
            {
              "pitch": 58,
              "velocity": 60,
              "position": 6.666666666666667,
              "duration": 0.3229166666666667
            },
            {
              "pitch": 64,
              "velocity": 60,
              "position": 6.666666666666667,
              "duration": 0.32916666666666666
            },
            {
              "pitch": 67,
              "velocity": 60,
              "position": 6.677083333333333,
              "duration": 0.3229166666666667
            },
            {
              "pitch": 72,
              "velocity": 60,
              "position": 6.6875,
              "duration": 0.3229166666666667
            },
            {
              "pitch": 58,
              "velocity": 100,
              "position": 7,
              "duration": 0.08333333333333333
            },
            {
              "pitch": 64,
              "velocity": 100,
              "position": 7,
              "duration": 0.08333333333333333
            },
            {
              "pitch": 67,
              "velocity": 100,
              "position": 7.010416666666667,
              "duration": 0.08333333333333333
            },
            {
              "pitch": 72,
              "velocity": 100,
              "position": 7.020833333333333,
              "duration": 0.08333333333333333
            },
            {
              "pitch": 58,
              "velocity": 60,
              "position": 7.333333333333333,
              "duration": 0.010416666666666666
            },
            {
              "pitch": 64,
              "velocity": 60,
              "position": 7.333333333333333,
              "duration": 0.010416666666666666
            },
            {
              "pitch": 67,
              "velocity": 60,
              "position": 7.34375,
              "duration": 0.010416666666666666
            },
            {
              "pitch": 72,
              "velocity": 60,
              "position": 7.354166666666667,
              "duration": 0.010416666666666666
            },
            {
              "pitch": 58,
              "velocity": 60,
              "position": 7.666666666666667,
              "duration": 0.010416666666666666
            },
            {
              "pitch": 64,
              "velocity": 60,
              "position": 7.666666666666667,
              "duration": 0.010416666666666666
            },
            {
              "pitch": 67,
              "velocity": 60,
              "position": 7.677083333333333,
              "duration": 0.010416666666666666
            },
            {
              "pitch": 72,
              "velocity": 60,
              "position": 7.6875,
              "duration": 0.010416666666666666
            },
            {
              "pitch": 53,
              "velocity": 80,
              "position": 8,
              "duration": 0.3229166666666667
            },
            {
              "pitch": 59,
              "velocity": 80,
              "position": 8,
              "duration": 0.32916666666666666
            },
            {
              "pitch": 62,
              "velocity": 80,
              "position": 8.010416666666666,
              "duration": 0.3229166666666667
            },
            {
              "pitch": 67,
              "velocity": 80,
              "position": 8.020833333333334,
              "duration": 0.3229166666666667
            },
            {
              "pitch": 53,
              "velocity": 40,
              "position": 8.333333333333334,
              "duration": 0.3229166666666667
            },
            {
              "pitch": 59,
              "velocity": 40,
              "position": 8.333333333333334,
              "duration": 0.32916666666666666
            },
            {
              "pitch": 62,
              "velocity": 40,
              "position": 8.34375,
              "duration": 0.3229166666666667
            },
            {
              "pitch": 67,
              "velocity": 40,
              "position": 8.354166666666666,
              "duration": 0.3229166666666667
            },
            {
              "pitch": 53,
              "velocity": 60,
              "position": 8.666666666666666,
              "duration": 0.3229166666666667
            },
            {
              "pitch": 59,
              "velocity": 60,
              "position": 8.666666666666666,
              "duration": 0.32916666666666666
            },
            {
              "pitch": 62,
              "velocity": 60,
              "position": 8.677083333333334,
              "duration": 0.3229166666666667
            },
            {
              "pitch": 67,
              "velocity": 60,
              "position": 8.6875,
              "duration": 0.3229166666666667
            },
            {
              "pitch": 53,
              "velocity": 100,
              "position": 9,
              "duration": 0.08333333333333333
            },
            {
              "pitch": 59,
              "velocity": 100,
              "position": 9,
              "duration": 0.08333333333333333
            },
            {
              "pitch": 62,
              "velocity": 100,
              "position": 9.010416666666666,
              "duration": 0.08333333333333333
            },
            {
              "pitch": 67,
              "velocity": 100,
              "position": 9.020833333333334,
              "duration": 0.08333333333333333
            },
            {
              "pitch": 53,
              "velocity": 60,
              "position": 9.333333333333334,
              "duration": 0.010416666666666666
            },
            {
              "pitch": 59,
              "velocity": 60,
              "position": 9.333333333333334,
              "duration": 0.010416666666666666
            },
            {
              "pitch": 62,
              "velocity": 60,
              "position": 9.34375,
              "duration": 0.010416666666666666
            },
            {
              "pitch": 67,
              "velocity": 60,
              "position": 9.354166666666666,
              "duration": 0.010416666666666666
            },
            {
              "pitch": 58,
              "velocity": 80,
              "position": 9.666666666666666,
              "duration": 0.3229166666666667
            },
            {
              "pitch": 64,
              "velocity": 80,
              "position": 9.666666666666666,
              "duration": 0.3333333333333333
            },
            {
              "pitch": 68,
              "velocity": 80,
              "position": 9.677083333333334,
              "duration": 0.3229166666666667
            },
            {
              "pitch": 57,
              "velocity": 40,
              "position": 10,
              "duration": 0.3229166666666667
            },
            {
              "pitch": 63,
              "velocity": 40,
              "position": 10,
              "duration": 0.32916666666666666
            },
            {
              "pitch": 67,
              "velocity": 40,
              "position": 10.010416666666666,
              "duration": 0.3229166666666667
            },
            {
              "pitch": 57,
              "velocity": 40,
              "position": 10.333333333333334,
              "duration": 0.3229166666666667
            },
            {
              "pitch": 63,
              "velocity": 40,
              "position": 10.333333333333334,
              "duration": 0.32916666666666666
            },
            {
              "pitch": 67,
              "velocity": 40,
              "position": 10.34375,
              "duration": 0.3229166666666667
            },
            {
              "pitch": 72,
              "velocity": 40,
              "position": 10.354166666666666,
              "duration": 0.3229166666666667
            },
            {
              "pitch": 57,
              "velocity": 60,
              "position": 10.666666666666666,
              "duration": 0.3229166666666667
            },
            {
              "pitch": 63,
              "velocity": 60,
              "position": 10.666666666666666,
              "duration": 0.32916666666666666
            },
            {
              "pitch": 67,
              "velocity": 60,
              "position": 10.677083333333334,
              "duration": 0.3229166666666667
            },
            {
              "pitch": 72,
              "velocity": 60,
              "position": 10.6875,
              "duration": 0.3229166666666667
            },
            {
              "pitch": 57,
              "velocity": 100,
              "position": 11,
              "duration": 0.08333333333333333
            },
            {
              "pitch": 63,
              "velocity": 100,
              "position": 11,
              "duration": 0.08333333333333333
            },
            {
              "pitch": 67,
              "velocity": 100,
              "position": 11.010416666666666,
              "duration": 0.08333333333333333
            },
            {
              "pitch": 72,
              "velocity": 100,
              "position": 11.020833333333334,
              "duration": 0.08333333333333333
            },
            {
              "pitch": 57,
              "velocity": 60,
              "position": 11.333333333333334,
              "duration": 0.010416666666666666
            },
            {
              "pitch": 63,
              "velocity": 60,
              "position": 11.333333333333334,
              "duration": 0.010416666666666666
            },
            {
              "pitch": 67,
              "velocity": 60,
              "position": 11.34375,
              "duration": 0.010416666666666666
            },
            {
              "pitch": 72,
              "velocity": 60,
              "position": 11.354166666666666,
              "duration": 0.010416666666666666
            },
            {
              "pitch": 57,
              "velocity": 100,
              "position": 11.666666666666666,
              "duration": 0.3229166666666667
            },
            {
              "pitch": 63,
              "velocity": 100,
              "position": 11.666666666666666,
              "duration": 0.3333333333333333
            },
            {
              "pitch": 67,
              "velocity": 100,
              "position": 11.677083333333334,
              "duration": 0.3229166666666667
            },
            {
              "pitch": 72,
              "velocity": 100,
              "position": 11.6875,
              "duration": 0.3229166666666667
            },
            {
              "pitch": 58,
              "velocity": 40,
              "position": 12,
              "duration": 0.3229166666666667
            },
            {
              "pitch": 64,
              "velocity": 40,
              "position": 12,
              "duration": 0.32916666666666666
            },
            {
              "pitch": 67,
              "velocity": 40,
              "position": 12.010416666666666,
              "duration": 0.3229166666666667
            },
            {
              "pitch": 72,
              "velocity": 40,
              "position": 12.020833333333334,
              "duration": 0.3229166666666667
            },
            {
              "pitch": 58,
              "velocity": 40,
              "position": 12.333333333333334,
              "duration": 0.3229166666666667
            },
            {
              "pitch": 64,
              "velocity": 40,
              "position": 12.333333333333334,
              "duration": 0.32916666666666666
            },
            {
              "pitch": 67,
              "velocity": 40,
              "position": 12.34375,
              "duration": 0.3229166666666667
            },
            {
              "pitch": 72,
              "velocity": 40,
              "position": 12.354166666666666,
              "duration": 0.3229166666666667
            },
            {
              "pitch": 58,
              "velocity": 60,
              "position": 12.666666666666666,
              "duration": 0.3229166666666667
            },
            {
              "pitch": 64,
              "velocity": 60,
              "position": 12.666666666666666,
              "duration": 0.32916666666666666
            },
            {
              "pitch": 67,
              "velocity": 60,
              "position": 12.677083333333334,
              "duration": 0.3229166666666667
            },
            {
              "pitch": 72,
              "velocity": 60,
              "position": 12.6875,
              "duration": 0.3229166666666667
            },
            {
              "pitch": 58,
              "velocity": 100,
              "position": 13,
              "duration": 0.08333333333333333
            },
            {
              "pitch": 64,
              "velocity": 100,
              "position": 13,
              "duration": 0.08333333333333333
            },
            {
              "pitch": 67,
              "velocity": 100,
              "position": 13.010416666666666,
              "duration": 0.08333333333333333
            },
            {
              "pitch": 72,
              "velocity": 100,
              "position": 13.020833333333334,
              "duration": 0.08333333333333333
            },
            {
              "pitch": 58,
              "velocity": 60,
              "position": 13.333333333333334,
              "duration": 0.010416666666666666
            },
            {
              "pitch": 64,
              "velocity": 60,
              "position": 13.333333333333334,
              "duration": 0.010416666666666666
            },
            {
              "pitch": 67,
              "velocity": 60,
              "position": 13.34375,
              "duration": 0.010416666666666666
            },
            {
              "pitch": 72,
              "velocity": 60,
              "position": 13.354166666666666,
              "duration": 0.010416666666666666
            },
            {
              "pitch": 53,
              "velocity": 40,
              "position": 14.333333333333334,
              "duration": 0.3229166666666667
            },
            {
              "pitch": 59,
              "velocity": 40,
              "position": 14.333333333333334,
              "duration": 0.32916666666666666
            },
            {
              "pitch": 62,
              "velocity": 40,
              "position": 14.34375,
              "duration": 0.3229166666666667
            },
            {
              "pitch": 67,
              "velocity": 40,
              "position": 14.354166666666666,
              "duration": 0.3229166666666667
            },
            {
              "pitch": 53,
              "velocity": 60,
              "position": 14.666666666666666,
              "duration": 0.3229166666666667
            },
            {
              "pitch": 59,
              "velocity": 60,
              "position": 14.666666666666666,
              "duration": 0.32916666666666666
            },
            {
              "pitch": 62,
              "velocity": 60,
              "position": 14.677083333333334,
              "duration": 0.3229166666666667
            },
            {
              "pitch": 67,
              "velocity": 60,
              "position": 14.6875,
              "duration": 0.3229166666666667
            },
            {
              "pitch": 53,
              "velocity": 100,
              "position": 15,
              "duration": 0.9895833333333334
            },
            {
              "pitch": 59,
              "velocity": 100,
              "position": 15,
              "duration": 0.9895833333333334
            },
            {
              "pitch": 62,
              "velocity": 100,
              "position": 15.010416666666666,
              "duration": 0.9791666666666666
            },
            {
              "pitch": 67,
              "velocity": 100,
              "position": 15.020833333333334,
              "duration": 0.96875
            }
          ]
        },
        "12": {
          "ctab": {
            "srcChannel": 12,
            "name": "Pno",
            "accType": "CHORD2",
            "editable": false,
            "mutedNotes": [],
            "mutedChords": [
              "dim7",
              "dim",
              "minMaj7(9)",
              "minMaj7",
              "min7(11)",
              "min7(9)",
              "min(9)",
              "m7b5",
              "min7",
              "min6",
              "min"
            ],
            "autoStart": false,
            "sourceChordNote": 0,
            "sourceChordType": "Maj7",
            "ctb2Low": null,
            "ctb2Main": {
              "ntr": "ROOT_TRANSPOSITION",
              "ntt": "BYPASS",
              "bassOn": false,
              "chordRootUpperLimit": 10,
              "noteLowLimit": 28,
              "noteHighLimit": 79,
              "rtr": "PITCH_SHIFT"
            },
            "ctb2High": null
          },
          "notes": [
            {
              "pitch": 24,
              "velocity": 66,
              "position": 0.5520833333333334,
              "duration": 0.09375
            },
            {
              "pitch": 69,
              "velocity": 93,
              "position": 0.6666666666666666,
              "duration": 0.22916666666666666
            },
            {
              "pitch": 65,
              "velocity": 80,
              "position": 0.6666666666666666,
              "duration": 0.25
            },
            {
              "pitch": 36,
              "velocity": 59,
              "position": 0.8854166666666666,
              "duration": 0.052083333333333336
            },
            {
              "pitch": 60,
              "velocity": 78,
              "position": 0.6666666666666666,
              "duration": 0.28125
            },
            {
              "pitch": 67,
              "velocity": 112,
              "position": 1,
              "duration": 1.0416666666666667
            },
            {
              "pitch": 62,
              "velocity": 76,
              "position": 1,
              "duration": 1.0729166666666667
            },
            {
              "pitch": 58,
              "velocity": 116,
              "position": 1,
              "duration": 1.09375
            },
            {
              "pitch": 29,
              "velocity": 76,
              "position": 2.5520833333333335,
              "duration": 0.08333333333333333
            },
            {
              "pitch": 56,
              "velocity": 104,
              "position": 2.6666666666666665,
              "duration": 0.09375
            },
            {
              "pitch": 62,
              "velocity": 87,
              "position": 2.6666666666666665,
              "duration": 0.20833333333333334
            },
            {
              "pitch": 57,
              "velocity": 68,
              "position": 2.7708333333333335,
              "duration": 0.16666666666666666
            },
            {
              "pitch": 39,
              "velocity": 72,
              "position": 2.8854166666666665,
              "duration": 0.052083333333333336
            },
            {
              "pitch": 65,
              "velocity": 65,
              "position": 2.6666666666666665,
              "duration": 0.3333333333333333
            },
            {
              "pitch": 55,
              "velocity": 81,
              "position": 3,
              "duration": 0.6875
            },
            {
              "pitch": 58,
              "velocity": 64,
              "position": 3,
              "duration": 0.96875
            },
            {
              "pitch": 60,
              "velocity": 73,
              "position": 3,
              "duration": 0.9791666666666666
            },
            {
              "pitch": 63,
              "velocity": 67,
              "position": 3,
              "duration": 1.0208333333333333
            },
            {
              "pitch": 75,
              "velocity": 93,
              "position": 5,
              "duration": 0.08333333333333333
            },
            {
              "pitch": 76,
              "velocity": 47,
              "position": 5.083333333333333,
              "duration": 0.08333333333333333
            },
            {
              "pitch": 84,
              "velocity": 48,
              "position": 5.166666666666667,
              "duration": 0.08333333333333333
            },
            {
              "pitch": 76,
              "velocity": 50,
              "position": 5.25,
              "duration": 0.08333333333333333
            },
            {
              "pitch": 84,
              "velocity": 50,
              "position": 5.333333333333333,
              "duration": 0.08333333333333333
            },
            {
              "pitch": 76,
              "velocity": 51,
              "position": 5.416666666666667,
              "duration": 0.08333333333333333
            },
            {
              "pitch": 84,
              "velocity": 51,
              "position": 5.5,
              "duration": 0.08333333333333333
            },
            {
              "pitch": 76,
              "velocity": 51,
              "position": 5.583333333333333,
              "duration": 0.08333333333333333
            },
            {
              "pitch": 84,
              "velocity": 51,
              "position": 5.666666666666667,
              "duration": 0.08333333333333333
            },
            {
              "pitch": 76,
              "velocity": 51,
              "position": 5.75,
              "duration": 0.08333333333333333
            },
            {
              "pitch": 84,
              "velocity": 51,
              "position": 5.833333333333333,
              "duration": 0.08333333333333333
            },
            {
              "pitch": 76,
              "velocity": 51,
              "position": 5.916666666666667,
              "duration": 0.08333333333333333
            },
            {
              "pitch": 84,
              "velocity": 51,
              "position": 6,
              "duration": 0.08333333333333333
            },
            {
              "pitch": 76,
              "velocity": 51,
              "position": 6.083333333333333,
              "duration": 0.08333333333333333
            },
            {
              "pitch": 84,
              "velocity": 52,
              "position": 6.166666666666667,
              "duration": 0.08333333333333333
            },
            {
              "pitch": 76,
              "velocity": 54,
              "position": 6.25,
              "duration": 0.08333333333333333
            },
            {
              "pitch": 84,
              "velocity": 54,
              "position": 6.333333333333333,
              "duration": 0.08333333333333333
            },
            {
              "pitch": 76,
              "velocity": 55,
              "position": 6.416666666666667,
              "duration": 0.08333333333333333
            },
            {
              "pitch": 84,
              "velocity": 56,
              "position": 6.5,
              "duration": 0.08333333333333333
            },
            {
              "pitch": 76,
              "velocity": 59,
              "position": 6.583333333333333,
              "duration": 0.08333333333333333
            },
            {
              "pitch": 84,
              "velocity": 59,
              "position": 6.666666666666667,
              "duration": 0.08333333333333333
            },
            {
              "pitch": 76,
              "velocity": 62,
              "position": 6.75,
              "duration": 0.08333333333333333
            },
            {
              "pitch": 84,
              "velocity": 62,
              "position": 6.833333333333333,
              "duration": 0.08333333333333333
            },
            {
              "pitch": 76,
              "velocity": 63,
              "position": 6.916666666666667,
              "duration": 0.08333333333333333
            },
            {
              "pitch": 84,
              "velocity": 70,
              "position": 7,
              "duration": 0.08333333333333333
            },
            {
              "pitch": 26,
              "velocity": 30,
              "position": 7.833333333333333,
              "duration": 0.10416666666666667
            },
            {
              "pitch": 84,
              "velocity": 64,
              "position": 7.166666666666667,
              "duration": 0.8333333333333334
            },
            {
              "pitch": 76,
              "velocity": 48,
              "position": 7.25,
              "duration": 0.75
            },
            {
              "pitch": 75,
              "velocity": 83,
              "position": 8.333333333333334,
              "duration": 0.052083333333333336
            },
            {
              "pitch": 70,
              "velocity": 125,
              "position": 8.333333333333334,
              "duration": 0.10416666666666667
            },
            {
              "pitch": 65,
              "velocity": 60,
              "position": 8.333333333333334,
              "duration": 0.16666666666666666
            },
            {
              "pitch": 79,
              "velocity": 91,
              "position": 8.333333333333334,
              "duration": 0.21875
            },
            {
              "pitch": 76,
              "velocity": 112,
              "position": 8.333333333333334,
              "duration": 0.2604166666666667
            },
            {
              "pitch": 71,
              "velocity": 27,
              "position": 8.5,
              "duration": 0.2604166666666667
            },
            {
              "pitch": 67,
              "velocity": 55,
              "position": 8.666666666666666,
              "duration": 0.21875
            },
            {
              "pitch": 31,
              "velocity": 66,
              "position": 8,
              "duration": 0.8958333333333334
            },
            {
              "pitch": 72,
              "velocity": 70,
              "position": 8.666666666666666,
              "duration": 0.2604166666666667
            },
            {
              "pitch": 76,
              "velocity": 70,
              "position": 8.666666666666666,
              "duration": 0.2604166666666667
            },
            {
              "pitch": 70,
              "velocity": 91,
              "position": 9,
              "duration": 0.07291666666666667
            },
            {
              "pitch": 43,
              "velocity": 64,
              "position": 8.833333333333334,
              "duration": 0.7291666666666666
            },
            {
              "pitch": 65,
              "velocity": 73,
              "position": 9,
              "duration": 0.84375
            },
            {
              "pitch": 74,
              "velocity": 83,
              "position": 9,
              "duration": 0.8541666666666666
            },
            {
              "pitch": 71,
              "velocity": 59,
              "position": 9.083333333333334,
              "duration": 0.8125
            },
            {
              "pitch": 71,
              "velocity": 99,
              "position": 10.333333333333334,
              "duration": 0.09375
            },
            {
              "pitch": 75,
              "velocity": 99,
              "position": 10.333333333333334,
              "duration": 0.23958333333333334
            },
            {
              "pitch": 67,
              "velocity": 112,
              "position": 10.333333333333334,
              "duration": 0.25
            },
            {
              "pitch": 72,
              "velocity": 112,
              "position": 10.333333333333334,
              "duration": 0.25
            },
            {
              "pitch": 65,
              "velocity": 75,
              "position": 10.666666666666666,
              "duration": 0.1875
            },
            {
              "pitch": 74,
              "velocity": 80,
              "position": 10.666666666666666,
              "duration": 0.25
            },
            {
              "pitch": 41,
              "velocity": 27,
              "position": 10.885416666666666,
              "duration": 0.08333333333333333
            },
            {
              "pitch": 70,
              "velocity": 59,
              "position": 10.666666666666666,
              "duration": 0.34375
            },
            {
              "pitch": 29,
              "velocity": 84,
              "position": 10.21875,
              "duration": 0.8333333333333334
            },
            {
              "pitch": 67,
              "velocity": 80,
              "position": 11,
              "duration": 0.4375
            },
            {
              "pitch": 63,
              "velocity": 52,
              "position": 11,
              "duration": 0.4479166666666667
            },
            {
              "pitch": 72,
              "velocity": 76,
              "position": 11,
              "duration": 0.4583333333333333
            },
            {
              "pitch": 41,
              "velocity": 93,
              "position": 11.552083333333334,
              "duration": 0.08333333333333333
            },
            {
              "pitch": 63,
              "velocity": 83,
              "position": 11.666666666666666,
              "duration": 0.16666666666666666
            },
            {
              "pitch": 33,
              "velocity": 81,
              "position": 11.666666666666666,
              "duration": 0.3229166666666667
            },
            {
              "pitch": 60,
              "velocity": 112,
              "position": 11.666666666666666,
              "duration": 0.3229166666666667
            },
            {
              "pitch": 65,
              "velocity": 114,
              "position": 11.666666666666666,
              "duration": 0.3229166666666667
            },
            {
              "pitch": 69,
              "velocity": 107,
              "position": 11.666666666666666,
              "duration": 0.3229166666666667
            },
            {
              "pitch": 24,
              "velocity": 66,
              "position": 12,
              "duration": 0.9166666666666666
            },
            {
              "pitch": 58,
              "velocity": 36,
              "position": 12,
              "duration": 0.9166666666666666
            },
            {
              "pitch": 62,
              "velocity": 70,
              "position": 12,
              "duration": 0.9166666666666666
            },
            {
              "pitch": 67,
              "velocity": 70,
              "position": 12,
              "duration": 0.9166666666666666
            },
            {
              "pitch": 58,
              "velocity": 88,
              "position": 13,
              "duration": 0.08333333333333333
            },
            {
              "pitch": 64,
              "velocity": 99,
              "position": 13,
              "duration": 0.08333333333333333
            },
            {
              "pitch": 67,
              "velocity": 88,
              "position": 13,
              "duration": 0.08333333333333333
            },
            {
              "pitch": 31,
              "velocity": 76,
              "position": 13.552083333333334,
              "duration": 0.08333333333333333
            },
            {
              "pitch": 53,
              "velocity": 81,
              "position": 13.666666666666666,
              "duration": 0.20833333333333334
            },
            {
              "pitch": 57,
              "velocity": 72,
              "position": 13.666666666666666,
              "duration": 0.3125
            },
            {
              "pitch": 60,
              "velocity": 76,
              "position": 13.666666666666666,
              "duration": 0.3333333333333333
            },
            {
              "pitch": 50,
              "velocity": 49,
              "position": 14,
              "duration": 0.9166666666666666
            },
            {
              "pitch": 53,
              "velocity": 51,
              "position": 14,
              "duration": 0.9166666666666666
            },
            {
              "pitch": 55,
              "velocity": 52,
              "position": 14,
              "duration": 0.9166666666666666
            },
            {
              "pitch": 59,
              "velocity": 52,
              "position": 14,
              "duration": 0.9166666666666666
            },
            {
              "pitch": 53,
              "velocity": 97,
              "position": 15,
              "duration": 0.08333333333333333
            },
            {
              "pitch": 55,
              "velocity": 102,
              "position": 15,
              "duration": 0.08333333333333333
            },
            {
              "pitch": 59,
              "velocity": 102,
              "position": 15,
              "duration": 0.08333333333333333
            },
            {
              "pitch": 62,
              "velocity": 107,
              "position": 15,
              "duration": 0.08333333333333333
            }
          ]
        },
        "13": {
          "ctab": {
            "srcChannel": 13,
            "name": "Org",
            "accType": "PAD",
            "editable": false,
            "mutedNotes": [],
            "mutedChords": [
              "dim7",
              "dim",
              "minMaj7(9)",
              "minMaj7",
              "min7(11)",
              "min7(9)",
              "min(9)",
              "m7b5",
              "min7",
              "min6",
              "min"
            ],
            "autoStart": false,
            "sourceChordNote": 0,
            "sourceChordType": "Maj7",
            "ctb2Low": null,
            "ctb2Main": {
              "ntr": "ROOT_TRANSPOSITION",
              "ntt": "BYPASS",
              "bassOn": false,
              "chordRootUpperLimit": 8,
              "noteLowLimit": 0,
              "noteHighLimit": 79,
              "rtr": "PITCH_SHIFT"
            },
            "ctb2High": null
          },
          "notes": [
            {
              "pitch": 82,
              "velocity": 127,
              "position": 0,
              "duration": 1.9375
            },
            {
              "pitch": 88,
              "velocity": 127,
              "position": 0,
              "duration": 1.9791666666666667
            },
            {
              "pitch": 87,
              "velocity": 127,
              "position": 2,
              "duration": 1.9895833333333333
            },
            {
              "pitch": 81,
              "velocity": 127,
              "position": 2,
              "duration": 2
            },
            {
              "pitch": 88,
              "velocity": 127,
              "position": 4,
              "duration": 3.5208333333333335
            },
            {
              "pitch": 84,
              "velocity": 127,
              "position": 0,
              "duration": 7.53125
            },
            {
              "pitch": 48,
              "velocity": 127,
              "position": 7.541666666666667,
              "duration": 0.010416666666666666
            },
            {
              "pitch": 49,
              "velocity": 127,
              "position": 7.5625,
              "duration": 0.010416666666666666
            },
            {
              "pitch": 82,
              "velocity": 127,
              "position": 4,
              "duration": 3.5833333333333335
            },
            {
              "pitch": 50,
              "velocity": 127,
              "position": 7.583333333333333,
              "duration": 0.010416666666666666
            },
            {
              "pitch": 51,
              "velocity": 127,
              "position": 7.604166666666667,
              "duration": 0.010416666666666666
            },
            {
              "pitch": 52,
              "velocity": 127,
              "position": 7.625,
              "duration": 0.010416666666666666
            },
            {
              "pitch": 53,
              "velocity": 127,
              "position": 7.645833333333333,
              "duration": 0.010416666666666666
            },
            {
              "pitch": 54,
              "velocity": 127,
              "position": 7.666666666666667,
              "duration": 0.010416666666666666
            },
            {
              "pitch": 55,
              "velocity": 127,
              "position": 7.6875,
              "duration": 0.010416666666666666
            },
            {
              "pitch": 56,
              "velocity": 127,
              "position": 7.708333333333333,
              "duration": 0.010416666666666666
            },
            {
              "pitch": 57,
              "velocity": 127,
              "position": 7.729166666666667,
              "duration": 0.010416666666666666
            },
            {
              "pitch": 58,
              "velocity": 127,
              "position": 7.75,
              "duration": 0.010416666666666666
            },
            {
              "pitch": 59,
              "velocity": 127,
              "position": 7.770833333333333,
              "duration": 0.010416666666666666
            },
            {
              "pitch": 60,
              "velocity": 127,
              "position": 7.791666666666667,
              "duration": 0.010416666666666666
            },
            {
              "pitch": 61,
              "velocity": 127,
              "position": 7.8125,
              "duration": 0.010416666666666666
            },
            {
              "pitch": 62,
              "velocity": 127,
              "position": 7.833333333333333,
              "duration": 0.010416666666666666
            },
            {
              "pitch": 64,
              "velocity": 127,
              "position": 7.854166666666667,
              "duration": 0.010416666666666666
            },
            {
              "pitch": 65,
              "velocity": 127,
              "position": 7.875,
              "duration": 0.010416666666666666
            },
            {
              "pitch": 66,
              "velocity": 127,
              "position": 7.895833333333333,
              "duration": 0.010416666666666666
            },
            {
              "pitch": 67,
              "velocity": 127,
              "position": 7.916666666666667,
              "duration": 0.010416666666666666
            },
            {
              "pitch": 69,
              "velocity": 127,
              "position": 7.9375,
              "duration": 0.0625
            },
            {
              "pitch": 91,
              "velocity": 127,
              "position": 8,
              "duration": 1.2708333333333333
            },
            {
              "pitch": 83,
              "velocity": 127,
              "position": 8,
              "duration": 1.28125
            },
            {
              "pitch": 89,
              "velocity": 127,
              "position": 8,
              "duration": 1.3333333333333333
            },
            {
              "pitch": 83,
              "velocity": 127,
              "position": 9.333333333333334,
              "duration": 0.3229166666666667
            },
            {
              "pitch": 88,
              "velocity": 127,
              "position": 9.333333333333334,
              "duration": 0.3229166666666667
            },
            {
              "pitch": 91,
              "velocity": 127,
              "position": 9.333333333333334,
              "duration": 0.3229166666666667
            },
            {
              "pitch": 82,
              "velocity": 127,
              "position": 9.666666666666666,
              "duration": 0.3229166666666667
            },
            {
              "pitch": 87,
              "velocity": 127,
              "position": 9.666666666666666,
              "duration": 0.3229166666666667
            },
            {
              "pitch": 90,
              "velocity": 127,
              "position": 9.666666666666666,
              "duration": 0.3229166666666667
            },
            {
              "pitch": 81,
              "velocity": 127,
              "position": 10,
              "duration": 0.9895833333333334
            },
            {
              "pitch": 86,
              "velocity": 127,
              "position": 10,
              "duration": 0.9895833333333334
            },
            {
              "pitch": 89,
              "velocity": 127,
              "position": 10,
              "duration": 0.9895833333333334
            },
            {
              "pitch": 81,
              "velocity": 127,
              "position": 11,
              "duration": 0.3229166666666667
            },
            {
              "pitch": 86,
              "velocity": 127,
              "position": 11,
              "duration": 0.3229166666666667
            },
            {
              "pitch": 89,
              "velocity": 127,
              "position": 11,
              "duration": 0.3229166666666667
            },
            {
              "pitch": 84,
              "velocity": 127,
              "position": 11.333333333333334,
              "duration": 0.3229166666666667
            },
            {
              "pitch": 87,
              "velocity": 127,
              "position": 11.333333333333334,
              "duration": 0.3229166666666667
            },
            {
              "pitch": 91,
              "velocity": 127,
              "position": 11.333333333333334,
              "duration": 0.3229166666666667
            },
            {
              "pitch": 81,
              "velocity": 127,
              "position": 11.666666666666666,
              "duration": 0.3229166666666667
            },
            {
              "pitch": 89,
              "velocity": 127,
              "position": 11.666666666666666,
              "duration": 0.3229166666666667
            },
            {
              "pitch": 82,
              "velocity": 127,
              "position": 12,
              "duration": 2
            },
            {
              "pitch": 84,
              "velocity": 127,
              "position": 11.666666666666666,
              "duration": 2.3333333333333335
            },
            {
              "pitch": 88,
              "velocity": 127,
              "position": 12,
              "duration": 2
            },
            {
              "pitch": 83,
              "velocity": 127,
              "position": 14,
              "duration": 1.9895833333333333
            },
            {
              "pitch": 86,
              "velocity": 127,
              "position": 14,
              "duration": 1.9895833333333333
            },
            {
              "pitch": 91,
              "velocity": 127,
              "position": 14,
              "duration": 1.9895833333333333
            }
          ]
        },
        "14": {
          "ctab": {
            "srcChannel": 14,
            "name": "ClGt",
            "accType": "PHRASE1",
            "editable": false,
            "mutedNotes": [],
            "mutedChords": [
              "dim7",
              "dim",
              "minMaj7(9)",
              "minMaj7",
              "min7(11)",
              "min7(9)",
              "min(9)",
              "m7b5",
              "min7",
              "min6",
              "min"
            ],
            "autoStart": false,
            "sourceChordNote": 0,
            "sourceChordType": "Maj7",
            "ctb2Low": null,
            "ctb2Main": {
              "ntr": "ROOT_TRANSPOSITION",
              "ntt": "BYPASS",
              "bassOn": false,
              "chordRootUpperLimit": 6,
              "noteLowLimit": 0,
              "noteHighLimit": 127,
              "rtr": "PITCH_SHIFT"
            },
            "ctb2High": null
          },
          "notes": [
            {
              "pitch": 67,
              "velocity": 118,
              "position": 0,
              "duration": 1.5
            },
            {
              "pitch": 67,
              "velocity": 120,
              "position": 1.5520833333333333,
              "duration": 0.1875
            },
            {
              "pitch": 70,
              "velocity": 98,
              "position": 1.7708333333333333,
              "duration": 0.14583333333333334
            },
            {
              "pitch": 72,
              "velocity": 81,
              "position": 1.9375,
              "duration": 0.125
            },
            {
              "pitch": 72,
              "velocity": 40,
              "position": 2.1041666666666665,
              "duration": 0.21875
            },
            {
              "pitch": 65,
              "velocity": 35,
              "position": 2.3333333333333335,
              "duration": 0.3333333333333333
            },
            {
              "pitch": 60,
              "velocity": 40,
              "position": 2.6770833333333335,
              "duration": 0.875
            },
            {
              "pitch": 55,
              "velocity": 35,
              "position": 3.5520833333333335,
              "duration": 0.10416666666666667
            },
            {
              "pitch": 57,
              "velocity": 98,
              "position": 3.6666666666666665,
              "duration": 0.3229166666666667
            },
            {
              "pitch": 60,
              "velocity": 40,
              "position": 4,
              "duration": 0.9791666666666666
            },
            {
              "pitch": 72,
              "velocity": 113,
              "position": 5,
              "duration": 0.25
            },
            {
              "pitch": 64,
              "velocity": 113,
              "position": 5,
              "duration": 0.2604166666666667
            },
            {
              "pitch": 69,
              "velocity": 113,
              "position": 5,
              "duration": 0.2604166666666667
            },
            {
              "pitch": 64,
              "velocity": 40,
              "position": 7,
              "duration": 0.3229166666666667
            },
            {
              "pitch": 67,
              "velocity": 59,
              "position": 7.333333333333333,
              "duration": 0.3229166666666667
            },
            {
              "pitch": 69,
              "velocity": 40,
              "position": 7.666666666666667,
              "duration": 0.32916666666666666
            },
            {
              "pitch": 69,
              "velocity": 40,
              "position": 8,
              "duration": 0.3333333333333333
            },
            {
              "pitch": 67,
              "velocity": 20,
              "position": 8.333333333333334,
              "duration": 1.3229166666666667
            },
            {
              "pitch": 69,
              "velocity": 40,
              "position": 9.666666666666666,
              "duration": 0.3229166666666667
            },
            {
              "pitch": 62,
              "velocity": 40,
              "position": 10,
              "duration": 0.3229166666666667
            },
            {
              "pitch": 60,
              "velocity": 40,
              "position": 10.333333333333334,
              "duration": 1.2291666666666667
            },
            {
              "pitch": 55,
              "velocity": 87,
              "position": 11.5625,
              "duration": 0.07291666666666667
            },
            {
              "pitch": 57,
              "velocity": 40,
              "position": 11.666666666666666,
              "duration": 0.3020833333333333
            },
            {
              "pitch": 60,
              "velocity": 40,
              "position": 12,
              "duration": 1.21875
            },
            {
              "pitch": 55,
              "velocity": 117,
              "position": 12.333333333333334,
              "duration": 0.8854166666666666
            },
            {
              "pitch": 58,
              "velocity": 40,
              "position": 13.21875,
              "duration": 0.10416666666666667
            },
            {
              "pitch": 55,
              "velocity": 57,
              "position": 13.333333333333334,
              "duration": 0.25
            },
            {
              "pitch": 48,
              "velocity": 55,
              "position": 13.583333333333334,
              "duration": 0.07291666666666667
            },
            {
              "pitch": 51,
              "velocity": 40,
              "position": 13.666666666666666,
              "duration": 0.3333333333333333
            },
            {
              "pitch": 55,
              "velocity": 40,
              "position": 14,
              "duration": 1.6666666666666667
            }
          ]
        },
        "15": {
          "ctab": {
            "srcChannel": 15,
            "name": "EP",
            "accType": "PHRASE2",
            "editable": false,
            "mutedNotes": [],
            "mutedChords": [
              "dim7",
              "dim",
              "minMaj7(9)",
              "minMaj7",
              "min7(11)",
              "min7(9)",
              "min(9)",
              "m7b5",
              "min7",
              "min6",
              "min"
            ],
            "autoStart": false,
            "sourceChordNote": 0,
            "sourceChordType": "Maj7",
            "ctb2Low": null,
            "ctb2Main": {
              "ntr": "ROOT_TRANSPOSITION",
              "ntt": "BYPASS",
              "bassOn": false,
              "chordRootUpperLimit": 8,
              "noteLowLimit": 48,
              "noteHighLimit": 67,
              "rtr": "PITCH_SHIFT"
            },
            "ctb2High": null
          },
          "notes": [
            {
              "pitch": 52,
              "velocity": 70,
              "position": 0,
              "duration": 1.9895833333333333
            },
            {
              "pitch": 58,
              "velocity": 72,
              "position": 0,
              "duration": 1.9895833333333333
            },
            {
              "pitch": 60,
              "velocity": 59,
              "position": 0,
              "duration": 3.8854166666666665
            },
            {
              "pitch": 51,
              "velocity": 55,
              "position": 2,
              "duration": 1.9166666666666667
            },
            {
              "pitch": 57,
              "velocity": 59,
              "position": 2,
              "duration": 1.9166666666666667
            },
            {
              "pitch": 52,
              "velocity": 55,
              "position": 4,
              "duration": 2.9166666666666665
            },
            {
              "pitch": 58,
              "velocity": 43,
              "position": 4,
              "duration": 2.9166666666666665
            },
            {
              "pitch": 60,
              "velocity": 57,
              "position": 4,
              "duration": 2.9166666666666665
            },
            {
              "pitch": 61,
              "velocity": 81,
              "position": 7,
              "duration": 0.07291666666666667
            },
            {
              "pitch": 52,
              "velocity": 46,
              "position": 7,
              "duration": 0.9166666666666666
            },
            {
              "pitch": 58,
              "velocity": 59,
              "position": 7,
              "duration": 0.9166666666666666
            },
            {
              "pitch": 62,
              "velocity": 45,
              "position": 7.083333333333333,
              "duration": 0.8333333333333334
            },
            {
              "pitch": 67,
              "velocity": 67,
              "position": 7,
              "duration": 0.9166666666666666
            },
            {
              "pitch": 53,
              "velocity": 54,
              "position": 8,
              "duration": 1.25
            },
            {
              "pitch": 55,
              "velocity": 63,
              "position": 8,
              "duration": 1.25
            },
            {
              "pitch": 59,
              "velocity": 62,
              "position": 8,
              "duration": 1.25
            },
            {
              "pitch": 64,
              "velocity": 67,
              "position": 8,
              "duration": 1.25
            },
            {
              "pitch": 53,
              "velocity": 72,
              "position": 9.333333333333334,
              "duration": 0.3229166666666667
            },
            {
              "pitch": 55,
              "velocity": 59,
              "position": 9.333333333333334,
              "duration": 0.3229166666666667
            },
            {
              "pitch": 59,
              "velocity": 91,
              "position": 9.333333333333334,
              "duration": 0.3229166666666667
            },
            {
              "pitch": 64,
              "velocity": 78,
              "position": 9.333333333333334,
              "duration": 0.3229166666666667
            },
            {
              "pitch": 52,
              "velocity": 54,
              "position": 9.666666666666666,
              "duration": 0.3229166666666667
            },
            {
              "pitch": 58,
              "velocity": 57,
              "position": 9.666666666666666,
              "duration": 0.3229166666666667
            },
            {
              "pitch": 63,
              "velocity": 44,
              "position": 9.666666666666666,
              "duration": 0.3229166666666667
            },
            {
              "pitch": 51,
              "velocity": 44,
              "position": 10,
              "duration": 1.2291666666666667
            },
            {
              "pitch": 57,
              "velocity": 51,
              "position": 10,
              "duration": 1.2395833333333333
            },
            {
              "pitch": 55,
              "velocity": 43,
              "position": 10,
              "duration": 1.2604166666666667
            },
            {
              "pitch": 62,
              "velocity": 52,
              "position": 10,
              "duration": 1.2604166666666667
            },
            {
              "pitch": 53,
              "velocity": 41,
              "position": 11.333333333333334,
              "duration": 0.3229166666666667
            },
            {
              "pitch": 57,
              "velocity": 52,
              "position": 11.333333333333334,
              "duration": 0.3229166666666667
            },
            {
              "pitch": 60,
              "velocity": 60,
              "position": 11.333333333333334,
              "duration": 0.3229166666666667
            },
            {
              "pitch": 50,
              "velocity": 41,
              "position": 11.666666666666666,
              "duration": 0.3229166666666667
            },
            {
              "pitch": 53,
              "velocity": 62,
              "position": 11.666666666666666,
              "duration": 0.3229166666666667
            },
            {
              "pitch": 57,
              "velocity": 45,
              "position": 11.666666666666666,
              "duration": 0.3229166666666667
            },
            {
              "pitch": 52,
              "velocity": 54,
              "position": 12,
              "duration": 1.9895833333333333
            },
            {
              "pitch": 55,
              "velocity": 45,
              "position": 12,
              "duration": 1.9895833333333333
            },
            {
              "pitch": 58,
              "velocity": 51,
              "position": 12,
              "duration": 1.9895833333333333
            },
            {
              "pitch": 60,
              "velocity": 59,
              "position": 12,
              "duration": 1.9895833333333333
            },
            {
              "pitch": 53,
              "velocity": 54,
              "position": 14,
              "duration": 1.9895833333333333
            },
            {
              "pitch": 55,
              "velocity": 45,
              "position": 14,
              "duration": 1.9895833333333333
            },
            {
              "pitch": 59,
              "velocity": 51,
              "position": 14,
              "duration": 1.9895833333333333
            },
            {
              "pitch": 62,
              "velocity": 59,
              "position": 14,
              "duration": 1.9895833333333333
            }
          ]
        }
      }
    },
    "Ending_C": {
      "type": "Ending_C",
      "sizeInBeats": 20,
      "channels": {
        "1": {
          "ctab": {
            "srcChannel": 1,
            "name": "Bass",
            "accType": "BASS",
            "editable": false,
            "mutedNotes": [],
            "mutedChords": [
              "1+2+5",
              "sus4",
              "1+5",
              "1+8",
              "7aug",
              "Maj7aug",
              "7(#9)",
              "7(b13)",
              "7(b9)",
              "7(13)",
              "7#11",
              "7(9)",
              "7b5",
              "7sus4",
              "7th",
              "aug",
              "Maj6(9)",
              "Maj7(9)",
              "Maj(9)",
              "Maj7#11",
              "Maj7",
              "Maj6",
              "Maj"
            ],
            "autoStart": false,
            "sourceChordNote": 0,
            "sourceChordType": "Maj7",
            "ctb2Low": null,
            "ctb2Main": {
              "ntr": "ROOT_TRANSPOSITION",
              "ntt": "BYPASS",
              "bassOn": false,
              "chordRootUpperLimit": 8,
              "noteLowLimit": 28,
              "noteHighLimit": 127,
              "rtr": "PITCH_SHIFT"
            },
            "ctb2High": null
          },
          "notes": [
            {
              "pitch": 29,
              "velocity": 100,
              "position": 0,
              "duration": 0.4895833333333333
            },
            {
              "pitch": 41,
              "velocity": 80,
              "position": 0.5520833333333334,
              "duration": 0.03125
            },
            {
              "pitch": 29,
              "velocity": 100,
              "position": 0.6666666666666666,
              "duration": 0.2708333333333333
            },
            {
              "pitch": 33,
              "velocity": 100,
              "position": 1,
              "duration": 0.4895833333333333
            },
            {
              "pitch": 41,
              "velocity": 80,
              "position": 1.5520833333333333,
              "duration": 0.03125
            },
            {
              "pitch": 33,
              "velocity": 100,
              "position": 1.6666666666666667,
              "duration": 0.2708333333333333
            },
            {
              "pitch": 36,
              "velocity": 100,
              "position": 2,
              "duration": 0.4895833333333333
            },
            {
              "pitch": 36,
              "velocity": 80,
              "position": 2.5520833333333335,
              "duration": 0.03125
            },
            {
              "pitch": 36,
              "velocity": 100,
              "position": 2.6666666666666665,
              "duration": 0.2708333333333333
            },
            {
              "pitch": 41,
              "velocity": 100,
              "position": 3,
              "duration": 0.21875
            },
            {
              "pitch": 36,
              "velocity": 80,
              "position": 3.21875,
              "duration": 0.10416666666666667
            },
            {
              "pitch": 29,
              "velocity": 100,
              "position": 3.3333333333333335,
              "duration": 0.2708333333333333
            },
            {
              "pitch": 31,
              "velocity": 100,
              "position": 3.6666666666666665,
              "duration": 0.2708333333333333
            },
            {
              "pitch": 32,
              "velocity": 100,
              "position": 4,
              "duration": 0.4895833333333333
            },
            {
              "pitch": 27,
              "velocity": 80,
              "position": 4.552083333333333,
              "duration": 0.03125
            },
            {
              "pitch": 32,
              "velocity": 100,
              "position": 4.666666666666667,
              "duration": 0.2708333333333333
            },
            {
              "pitch": 36,
              "velocity": 100,
              "position": 5,
              "duration": 0.4895833333333333
            },
            {
              "pitch": 27,
              "velocity": 80,
              "position": 5.552083333333333,
              "duration": 0.03125
            },
            {
              "pitch": 36,
              "velocity": 100,
              "position": 5.666666666666667,
              "duration": 0.2708333333333333
            },
            {
              "pitch": 39,
              "velocity": 100,
              "position": 6,
              "duration": 0.2708333333333333
            },
            {
              "pitch": 36,
              "velocity": 100,
              "position": 6.333333333333333,
              "duration": 0.2708333333333333
            },
            {
              "pitch": 34,
              "velocity": 100,
              "position": 6.666666666666667,
              "duration": 0.2708333333333333
            },
            {
              "pitch": 32,
              "velocity": 100,
              "position": 7,
              "duration": 0.15625
            },
            {
              "pitch": 27,
              "velocity": 80,
              "position": 7.21875,
              "duration": 0.03125
            },
            {
              "pitch": 34,
              "velocity": 100,
              "position": 7.333333333333333,
              "duration": 0.2708333333333333
            },
            {
              "pitch": 35,
              "velocity": 100,
              "position": 7.666666666666667,
              "duration": 0.2708333333333333
            },
            {
              "pitch": 36,
              "velocity": 100,
              "position": 8,
              "duration": 0.4895833333333333
            },
            {
              "pitch": 31,
              "velocity": 80,
              "position": 8.552083333333334,
              "duration": 0.03125
            },
            {
              "pitch": 36,
              "velocity": 100,
              "position": 8.666666666666666,
              "duration": 0.2708333333333333
            },
            {
              "pitch": 27,
              "velocity": 100,
              "position": 9,
              "duration": 0.4895833333333333
            },
            {
              "pitch": 36,
              "velocity": 80,
              "position": 9.552083333333334,
              "duration": 0.03125
            },
            {
              "pitch": 27,
              "velocity": 100,
              "position": 9.666666666666666,
              "duration": 0.2708333333333333
            },
            {
              "pitch": 29,
              "velocity": 100,
              "position": 10,
              "duration": 0.4895833333333333
            },
            {
              "pitch": 36,
              "velocity": 80,
              "position": 10.552083333333334,
              "duration": 0.03125
            },
            {
              "pitch": 29,
              "velocity": 100,
              "position": 10.666666666666666,
              "duration": 0.2708333333333333
            },
            {
              "pitch": 30,
              "velocity": 100,
              "position": 11,
              "duration": 0.4895833333333333
            },
            {
              "pitch": 36,
              "velocity": 80,
              "position": 11.552083333333334,
              "duration": 0.03125
            },
            {
              "pitch": 30,
              "velocity": 100,
              "position": 11.666666666666666,
              "duration": 0.2708333333333333
            },
            {
              "pitch": 31,
              "velocity": 100,
              "position": 12,
              "duration": 0.3229166666666667
            },
            {
              "pitch": 31,
              "velocity": 100,
              "position": 13,
              "duration": 0.6041666666666666
            },
            {
              "pitch": 24,
              "velocity": 100,
              "position": 13.666666666666666,
              "duration": 2.9895833333333335
            }
          ]
        },
        "2": {
          "ctab": {
            "srcChannel": 2,
            "name": "60sCln",
            "accType": "CHORD1",
            "editable": false,
            "mutedNotes": [],
            "mutedChords": [
              "1+2+5",
              "sus4",
              "1+5",
              "1+8",
              "7aug",
              "Maj7aug",
              "7(#9)",
              "7(b13)",
              "7(b9)",
              "7(13)",
              "7#11",
              "7(9)",
              "7b5",
              "7sus4",
              "7th",
              "aug",
              "Maj6(9)",
              "Maj7(9)",
              "Maj(9)",
              "Maj7#11",
              "Maj7",
              "Maj6",
              "Maj"
            ],
            "autoStart": false,
            "sourceChordNote": 0,
            "sourceChordType": "Maj7",
            "ctb2Low": null,
            "ctb2Main": {
              "ntr": "ROOT_TRANSPOSITION",
              "ntt": "BYPASS",
              "bassOn": false,
              "chordRootUpperLimit": 8,
              "noteLowLimit": 0,
              "noteHighLimit": 127,
              "rtr": "PITCH_SHIFT"
            },
            "ctb2High": null
          },
          "notes": [
            {
              "pitch": 57,
              "velocity": 80,
              "position": 0,
              "duration": 0.3229166666666667
            },
            {
              "pitch": 63,
              "velocity": 80,
              "position": 0,
              "duration": 0.32916666666666666
            },
            {
              "pitch": 67,
              "velocity": 80,
              "position": 0.010416666666666666,
              "duration": 0.3229166666666667
            },
            {
              "pitch": 72,
              "velocity": 80,
              "position": 0.020833333333333332,
              "duration": 0.3229166666666667
            },
            {
              "pitch": 57,
              "velocity": 40,
              "position": 0.3333333333333333,
              "duration": 0.3229166666666667
            },
            {
              "pitch": 63,
              "velocity": 40,
              "position": 0.3333333333333333,
              "duration": 0.32916666666666666
            },
            {
              "pitch": 67,
              "velocity": 40,
              "position": 0.34375,
              "duration": 0.3229166666666667
            },
            {
              "pitch": 72,
              "velocity": 40,
              "position": 0.3541666666666667,
              "duration": 0.3229166666666667
            },
            {
              "pitch": 57,
              "velocity": 60,
              "position": 0.6666666666666666,
              "duration": 0.3229166666666667
            },
            {
              "pitch": 63,
              "velocity": 60,
              "position": 0.6666666666666666,
              "duration": 0.32916666666666666
            },
            {
              "pitch": 67,
              "velocity": 60,
              "position": 0.6770833333333334,
              "duration": 0.3229166666666667
            },
            {
              "pitch": 72,
              "velocity": 60,
              "position": 0.6875,
              "duration": 0.3229166666666667
            },
            {
              "pitch": 57,
              "velocity": 100,
              "position": 1,
              "duration": 0.08333333333333333
            },
            {
              "pitch": 63,
              "velocity": 100,
              "position": 1,
              "duration": 0.08333333333333333
            },
            {
              "pitch": 67,
              "velocity": 100,
              "position": 1.0104166666666667,
              "duration": 0.08333333333333333
            },
            {
              "pitch": 72,
              "velocity": 100,
              "position": 1.0208333333333333,
              "duration": 0.08333333333333333
            },
            {
              "pitch": 57,
              "velocity": 60,
              "position": 1.3333333333333333,
              "duration": 0.010416666666666666
            },
            {
              "pitch": 63,
              "velocity": 60,
              "position": 1.3333333333333333,
              "duration": 0.010416666666666666
            },
            {
              "pitch": 67,
              "velocity": 60,
              "position": 1.34375,
              "duration": 0.010416666666666666
            },
            {
              "pitch": 72,
              "velocity": 60,
              "position": 1.3541666666666667,
              "duration": 0.010416666666666666
            },
            {
              "pitch": 57,
              "velocity": 80,
              "position": 1.6666666666666667,
              "duration": 0.65625
            },
            {
              "pitch": 63,
              "velocity": 80,
              "position": 1.6666666666666667,
              "duration": 0.6625
            },
            {
              "pitch": 67,
              "velocity": 80,
              "position": 1.6770833333333333,
              "duration": 0.65625
            },
            {
              "pitch": 72,
              "velocity": 80,
              "position": 1.6875,
              "duration": 0.65625
            },
            {
              "pitch": 57,
              "velocity": 40,
              "position": 2.3333333333333335,
              "duration": 0.3229166666666667
            },
            {
              "pitch": 63,
              "velocity": 40,
              "position": 2.3333333333333335,
              "duration": 0.32916666666666666
            },
            {
              "pitch": 67,
              "velocity": 40,
              "position": 2.34375,
              "duration": 0.3229166666666667
            },
            {
              "pitch": 72,
              "velocity": 40,
              "position": 2.3541666666666665,
              "duration": 0.3229166666666667
            },
            {
              "pitch": 57,
              "velocity": 60,
              "position": 2.6666666666666665,
              "duration": 0.3229166666666667
            },
            {
              "pitch": 63,
              "velocity": 60,
              "position": 2.6666666666666665,
              "duration": 0.32916666666666666
            },
            {
              "pitch": 67,
              "velocity": 60,
              "position": 2.6770833333333335,
              "duration": 0.3229166666666667
            },
            {
              "pitch": 72,
              "velocity": 60,
              "position": 2.6875,
              "duration": 0.3229166666666667
            },
            {
              "pitch": 57,
              "velocity": 100,
              "position": 3,
              "duration": 0.08333333333333333
            },
            {
              "pitch": 63,
              "velocity": 100,
              "position": 3,
              "duration": 0.08333333333333333
            },
            {
              "pitch": 67,
              "velocity": 100,
              "position": 3.0104166666666665,
              "duration": 0.08333333333333333
            },
            {
              "pitch": 72,
              "velocity": 100,
              "position": 3.0208333333333335,
              "duration": 0.08333333333333333
            },
            {
              "pitch": 57,
              "velocity": 80,
              "position": 3.3333333333333335,
              "duration": 0.3229166666666667
            },
            {
              "pitch": 63,
              "velocity": 80,
              "position": 3.3333333333333335,
              "duration": 0.3333333333333333
            },
            {
              "pitch": 67,
              "velocity": 80,
              "position": 3.34375,
              "duration": 0.3229166666666667
            },
            {
              "pitch": 72,
              "velocity": 80,
              "position": 3.3541666666666665,
              "duration": 0.3229166666666667
            },
            {
              "pitch": 62,
              "velocity": 80,
              "position": 3.6666666666666665,
              "duration": 0.3333333333333333
            },
            {
              "pitch": 65,
              "velocity": 80,
              "position": 3.6770833333333335,
              "duration": 0.3229166666666667
            },
            {
              "pitch": 70,
              "velocity": 80,
              "position": 3.6875,
              "duration": 0.3229166666666667
            },
            {
              "pitch": 56,
              "velocity": 80,
              "position": 4,
              "duration": 0.3229166666666667
            },
            {
              "pitch": 63,
              "velocity": 80,
              "position": 4,
              "duration": 0.32916666666666666
            },
            {
              "pitch": 66,
              "velocity": 80,
              "position": 4.010416666666667,
              "duration": 0.3229166666666667
            },
            {
              "pitch": 72,
              "velocity": 80,
              "position": 4.010416666666667,
              "duration": 0.3229166666666667
            },
            {
              "pitch": 56,
              "velocity": 40,
              "position": 4.333333333333333,
              "duration": 0.3229166666666667
            },
            {
              "pitch": 63,
              "velocity": 40,
              "position": 4.333333333333333,
              "duration": 0.32916666666666666
            },
            {
              "pitch": 66,
              "velocity": 40,
              "position": 4.34375,
              "duration": 0.3229166666666667
            },
            {
              "pitch": 72,
              "velocity": 40,
              "position": 4.354166666666667,
              "duration": 0.3229166666666667
            },
            {
              "pitch": 56,
              "velocity": 60,
              "position": 4.666666666666667,
              "duration": 0.3229166666666667
            },
            {
              "pitch": 63,
              "velocity": 60,
              "position": 4.666666666666667,
              "duration": 0.32916666666666666
            },
            {
              "pitch": 66,
              "velocity": 60,
              "position": 4.677083333333333,
              "duration": 0.3229166666666667
            },
            {
              "pitch": 72,
              "velocity": 60,
              "position": 4.6875,
              "duration": 0.3229166666666667
            },
            {
              "pitch": 56,
              "velocity": 100,
              "position": 5,
              "duration": 0.08333333333333333
            },
            {
              "pitch": 63,
              "velocity": 100,
              "position": 5,
              "duration": 0.08333333333333333
            },
            {
              "pitch": 66,
              "velocity": 100,
              "position": 5.010416666666667,
              "duration": 0.08333333333333333
            },
            {
              "pitch": 72,
              "velocity": 100,
              "position": 5.020833333333333,
              "duration": 0.08333333333333333
            },
            {
              "pitch": 56,
              "velocity": 80,
              "position": 5.333333333333333,
              "duration": 0.3229166666666667
            },
            {
              "pitch": 63,
              "velocity": 80,
              "position": 5.333333333333333,
              "duration": 0.32916666666666666
            },
            {
              "pitch": 66,
              "velocity": 80,
              "position": 5.34375,
              "duration": 0.3229166666666667
            },
            {
              "pitch": 72,
              "velocity": 80,
              "position": 5.354166666666667,
              "duration": 0.3229166666666667
            },
            {
              "pitch": 56,
              "velocity": 40,
              "position": 5.666666666666667,
              "duration": 0.3229166666666667
            },
            {
              "pitch": 63,
              "velocity": 40,
              "position": 5.666666666666667,
              "duration": 0.32916666666666666
            },
            {
              "pitch": 66,
              "velocity": 40,
              "position": 5.677083333333333,
              "duration": 0.3229166666666667
            },
            {
              "pitch": 56,
              "velocity": 100,
              "position": 6,
              "duration": 0.010416666666666666
            },
            {
              "pitch": 72,
              "velocity": 40,
              "position": 5.6875,
              "duration": 0.3229166666666667
            },
            {
              "pitch": 63,
              "velocity": 100,
              "position": 6,
              "duration": 0.020833333333333332
            },
            {
              "pitch": 66,
              "velocity": 100,
              "position": 6.010416666666667,
              "duration": 0.010416666666666666
            },
            {
              "pitch": 72,
              "velocity": 100,
              "position": 6.020833333333333,
              "duration": 0.010416666666666666
            },
            {
              "pitch": 56,
              "velocity": 40,
              "position": 6.333333333333333,
              "duration": 0.3229166666666667
            },
            {
              "pitch": 63,
              "velocity": 40,
              "position": 6.333333333333333,
              "duration": 0.32916666666666666
            },
            {
              "pitch": 66,
              "velocity": 40,
              "position": 6.34375,
              "duration": 0.3229166666666667
            },
            {
              "pitch": 72,
              "velocity": 40,
              "position": 6.354166666666667,
              "duration": 0.3229166666666667
            },
            {
              "pitch": 56,
              "velocity": 60,
              "position": 6.666666666666667,
              "duration": 0.3229166666666667
            },
            {
              "pitch": 63,
              "velocity": 60,
              "position": 6.666666666666667,
              "duration": 0.32916666666666666
            },
            {
              "pitch": 66,
              "velocity": 60,
              "position": 6.677083333333333,
              "duration": 0.3229166666666667
            },
            {
              "pitch": 72,
              "velocity": 60,
              "position": 6.6875,
              "duration": 0.3229166666666667
            },
            {
              "pitch": 56,
              "velocity": 100,
              "position": 7,
              "duration": 0.08333333333333333
            },
            {
              "pitch": 63,
              "velocity": 100,
              "position": 7,
              "duration": 0.08333333333333333
            },
            {
              "pitch": 66,
              "velocity": 100,
              "position": 7.010416666666667,
              "duration": 0.08333333333333333
            },
            {
              "pitch": 72,
              "velocity": 100,
              "position": 7.020833333333333,
              "duration": 0.08333333333333333
            },
            {
              "pitch": 58,
              "velocity": 60,
              "position": 7.21875,
              "duration": 0.010416666666666666
            },
            {
              "pitch": 64,
              "velocity": 60,
              "position": 7.229166666666667,
              "duration": 0.010416666666666666
            },
            {
              "pitch": 58,
              "velocity": 100,
              "position": 7.333333333333333,
              "duration": 0.3229166666666667
            },
            {
              "pitch": 62,
              "velocity": 100,
              "position": 7.333333333333333,
              "duration": 0.3229166666666667
            },
            {
              "pitch": 65,
              "velocity": 100,
              "position": 7.34375,
              "duration": 0.3229166666666667
            },
            {
              "pitch": 59,
              "velocity": 80,
              "position": 7.666666666666667,
              "duration": 0.3229166666666667
            },
            {
              "pitch": 63,
              "velocity": 80,
              "position": 7.666666666666667,
              "duration": 0.32916666666666666
            },
            {
              "pitch": 66,
              "velocity": 80,
              "position": 7.677083333333333,
              "duration": 0.3229166666666667
            },
            {
              "pitch": 58,
              "velocity": 80,
              "position": 8,
              "duration": 0.3229166666666667
            },
            {
              "pitch": 63,
              "velocity": 80,
              "position": 8,
              "duration": 0.32916666666666666
            },
            {
              "pitch": 67,
              "velocity": 80,
              "position": 8.010416666666666,
              "duration": 0.3229166666666667
            },
            {
              "pitch": 72,
              "velocity": 80,
              "position": 8.020833333333334,
              "duration": 0.3229166666666667
            },
            {
              "pitch": 58,
              "velocity": 40,
              "position": 8.333333333333334,
              "duration": 0.3229166666666667
            },
            {
              "pitch": 63,
              "velocity": 40,
              "position": 8.333333333333334,
              "duration": 0.32916666666666666
            },
            {
              "pitch": 67,
              "velocity": 40,
              "position": 8.34375,
              "duration": 0.3229166666666667
            },
            {
              "pitch": 72,
              "velocity": 40,
              "position": 8.354166666666666,
              "duration": 0.3229166666666667
            },
            {
              "pitch": 58,
              "velocity": 60,
              "position": 8.666666666666666,
              "duration": 0.3229166666666667
            },
            {
              "pitch": 63,
              "velocity": 60,
              "position": 8.666666666666666,
              "duration": 0.32916666666666666
            },
            {
              "pitch": 67,
              "velocity": 60,
              "position": 8.677083333333334,
              "duration": 0.3229166666666667
            },
            {
              "pitch": 72,
              "velocity": 60,
              "position": 8.6875,
              "duration": 0.3229166666666667
            },
            {
              "pitch": 58,
              "velocity": 80,
              "position": 9,
              "duration": 0.3229166666666667
            },
            {
              "pitch": 63,
              "velocity": 80,
              "position": 9,
              "duration": 0.32916666666666666
            },
            {
              "pitch": 67,
              "velocity": 80,
              "position": 9.010416666666666,
              "duration": 0.3229166666666667
            },
            {
              "pitch": 72,
              "velocity": 80,
              "position": 9.020833333333334,
              "duration": 0.3229166666666667
            },
            {
              "pitch": 58,
              "velocity": 40,
              "position": 9.333333333333334,
              "duration": 0.3229166666666667
            },
            {
              "pitch": 63,
              "velocity": 40,
              "position": 9.333333333333334,
              "duration": 0.32916666666666666
            },
            {
              "pitch": 67,
              "velocity": 40,
              "position": 9.34375,
              "duration": 0.3229166666666667
            },
            {
              "pitch": 72,
              "velocity": 40,
              "position": 9.354166666666666,
              "duration": 0.3229166666666667
            },
            {
              "pitch": 58,
              "velocity": 60,
              "position": 9.666666666666666,
              "duration": 0.3229166666666667
            },
            {
              "pitch": 63,
              "velocity": 60,
              "position": 9.666666666666666,
              "duration": 0.32916666666666666
            },
            {
              "pitch": 67,
              "velocity": 60,
              "position": 9.677083333333334,
              "duration": 0.3229166666666667
            },
            {
              "pitch": 72,
              "velocity": 60,
              "position": 9.6875,
              "duration": 0.3229166666666667
            },
            {
              "pitch": 57,
              "velocity": 80,
              "position": 10,
              "duration": 0.3229166666666667
            },
            {
              "pitch": 63,
              "velocity": 80,
              "position": 10,
              "duration": 0.32916666666666666
            },
            {
              "pitch": 67,
              "velocity": 80,
              "position": 10.010416666666666,
              "duration": 0.3229166666666667
            },
            {
              "pitch": 72,
              "velocity": 80,
              "position": 10.020833333333334,
              "duration": 0.3229166666666667
            },
            {
              "pitch": 57,
              "velocity": 40,
              "position": 10.333333333333334,
              "duration": 0.3229166666666667
            },
            {
              "pitch": 63,
              "velocity": 40,
              "position": 10.333333333333334,
              "duration": 0.32916666666666666
            },
            {
              "pitch": 67,
              "velocity": 40,
              "position": 10.34375,
              "duration": 0.3229166666666667
            },
            {
              "pitch": 72,
              "velocity": 40,
              "position": 10.354166666666666,
              "duration": 0.3229166666666667
            },
            {
              "pitch": 57,
              "velocity": 60,
              "position": 10.666666666666666,
              "duration": 0.3229166666666667
            },
            {
              "pitch": 63,
              "velocity": 60,
              "position": 10.666666666666666,
              "duration": 0.32916666666666666
            },
            {
              "pitch": 67,
              "velocity": 60,
              "position": 10.677083333333334,
              "duration": 0.3229166666666667
            },
            {
              "pitch": 72,
              "velocity": 60,
              "position": 10.6875,
              "duration": 0.3229166666666667
            },
            {
              "pitch": 57,
              "velocity": 80,
              "position": 11,
              "duration": 0.3229166666666667
            },
            {
              "pitch": 63,
              "velocity": 80,
              "position": 11,
              "duration": 0.32916666666666666
            },
            {
              "pitch": 66,
              "velocity": 80,
              "position": 11.010416666666666,
              "duration": 0.3229166666666667
            },
            {
              "pitch": 72,
              "velocity": 80,
              "position": 11.020833333333334,
              "duration": 0.3229166666666667
            },
            {
              "pitch": 57,
              "velocity": 40,
              "position": 11.333333333333334,
              "duration": 0.3229166666666667
            },
            {
              "pitch": 63,
              "velocity": 40,
              "position": 11.333333333333334,
              "duration": 0.32916666666666666
            },
            {
              "pitch": 66,
              "velocity": 40,
              "position": 11.34375,
              "duration": 0.3229166666666667
            },
            {
              "pitch": 72,
              "velocity": 40,
              "position": 11.354166666666666,
              "duration": 0.3229166666666667
            },
            {
              "pitch": 57,
              "velocity": 60,
              "position": 11.666666666666666,
              "duration": 0.3229166666666667
            },
            {
              "pitch": 63,
              "velocity": 60,
              "position": 11.666666666666666,
              "duration": 0.3333333333333333
            },
            {
              "pitch": 66,
              "velocity": 60,
              "position": 11.677083333333334,
              "duration": 0.3229166666666667
            },
            {
              "pitch": 72,
              "velocity": 60,
              "position": 11.6875,
              "duration": 0.3229166666666667
            },
            {
              "pitch": 59,
              "velocity": 80,
              "position": 12,
              "duration": 0.3229166666666667
            },
            {
              "pitch": 55,
              "velocity": 80,
              "position": 12.010416666666666,
              "duration": 0.3229166666666667
            },
            {
              "pitch": 70,
              "velocity": 80,
              "position": 12.010416666666666,
              "duration": 0.3229166666666667
            },
            {
              "pitch": 65,
              "velocity": 80,
              "position": 12,
              "duration": 0.3333333333333333
            },
            {
              "pitch": 59,
              "velocity": 80,
              "position": 13,
              "duration": 0.65625
            },
            {
              "pitch": 65,
              "velocity": 80,
              "position": 13,
              "duration": 0.65625
            },
            {
              "pitch": 70,
              "velocity": 80,
              "position": 13.010416666666666,
              "duration": 0.6458333333333334
            },
            {
              "pitch": 55,
              "velocity": 80,
              "position": 13.020833333333334,
              "duration": 0.6354166666666666
            },
            {
              "pitch": 58,
              "velocity": 80,
              "position": 13.666666666666666,
              "duration": 2.9895833333333335
            },
            {
              "pitch": 63,
              "velocity": 80,
              "position": 13.666666666666666,
              "duration": 2.9895833333333335
            },
            {
              "pitch": 67,
              "velocity": 80,
              "position": 13.677083333333334,
              "duration": 2.9791666666666665
            }
          ]
        },
        "3": {
          "ctab": {
            "srcChannel": 3,
            "name": "Pno",
            "accType": "CHORD2",
            "editable": false,
            "mutedNotes": [],
            "mutedChords": [
              "1+2+5",
              "sus4",
              "1+5",
              "1+8",
              "7aug",
              "Maj7aug",
              "7(#9)",
              "7(b13)",
              "7(b9)",
              "7(13)",
              "7#11",
              "7(9)",
              "7b5",
              "7sus4",
              "7th",
              "aug",
              "Maj6(9)",
              "Maj7(9)",
              "Maj(9)",
              "Maj7#11",
              "Maj7",
              "Maj6",
              "Maj"
            ],
            "autoStart": false,
            "sourceChordNote": 0,
            "sourceChordType": "Maj7",
            "ctb2Low": null,
            "ctb2Main": {
              "ntr": "ROOT_TRANSPOSITION",
              "ntt": "BYPASS",
              "bassOn": false,
              "chordRootUpperLimit": 10,
              "noteLowLimit": 28,
              "noteHighLimit": 79,
              "rtr": "PITCH_SHIFT"
            },
            "ctb2High": null
          },
          "notes": [
            {
              "pitch": 29,
              "velocity": 75,
              "position": 0,
              "duration": 0.6875
            },
            {
              "pitch": 33,
              "velocity": 43,
              "position": 1,
              "duration": 0.23958333333333334
            },
            {
              "pitch": 60,
              "velocity": 73,
              "position": 0,
              "duration": 1.3020833333333333
            },
            {
              "pitch": 63,
              "velocity": 84,
              "position": 0,
              "duration": 1.3333333333333333
            },
            {
              "pitch": 69,
              "velocity": 84,
              "position": 0,
              "duration": 1.3645833333333333
            },
            {
              "pitch": 72,
              "velocity": 66,
              "position": 0,
              "duration": 1.3645833333333333
            },
            {
              "pitch": 65,
              "velocity": 75,
              "position": 1.6666666666666667,
              "duration": 0.21875
            },
            {
              "pitch": 62,
              "velocity": 75,
              "position": 1.6666666666666667,
              "duration": 0.22916666666666666
            },
            {
              "pitch": 74,
              "velocity": 63,
              "position": 1.6666666666666667,
              "duration": 0.2604166666666667
            },
            {
              "pitch": 33,
              "velocity": 52,
              "position": 1.5520833333333333,
              "duration": 0.4375
            },
            {
              "pitch": 70,
              "velocity": 63,
              "position": 1.6666666666666667,
              "duration": 0.325
            },
            {
              "pitch": 66,
              "velocity": 75,
              "position": 2,
              "duration": 0.052083333333333336
            },
            {
              "pitch": 63,
              "velocity": 1,
              "position": 2,
              "duration": 1
            },
            {
              "pitch": 75,
              "velocity": 58,
              "position": 2,
              "duration": 1.0104166666666667
            },
            {
              "pitch": 36,
              "velocity": 35,
              "position": 2,
              "duration": 1.0208333333333333
            },
            {
              "pitch": 72,
              "velocity": 61,
              "position": 2,
              "duration": 1.0208333333333333
            },
            {
              "pitch": 67,
              "velocity": 37,
              "position": 2.1041666666666665,
              "duration": 0.9375
            },
            {
              "pitch": 63,
              "velocity": 100,
              "position": 3.3333333333333335,
              "duration": 0.0625
            },
            {
              "pitch": 60,
              "velocity": 91,
              "position": 3.3333333333333335,
              "duration": 0.22916666666666666
            },
            {
              "pitch": 72,
              "velocity": 82,
              "position": 3.3333333333333335,
              "duration": 0.22916666666666666
            },
            {
              "pitch": 69,
              "velocity": 94,
              "position": 3.3333333333333335,
              "duration": 0.2708333333333333
            },
            {
              "pitch": 64,
              "velocity": 66,
              "position": 3.4375,
              "duration": 0.17708333333333334
            },
            {
              "pitch": 29,
              "velocity": 87,
              "position": 3.3333333333333335,
              "duration": 0.3229166666666667
            },
            {
              "pitch": 72,
              "velocity": 56,
              "position": 3.6666666666666665,
              "duration": 0.052083333333333336
            },
            {
              "pitch": 65,
              "velocity": 96,
              "position": 3.6666666666666665,
              "duration": 0.21875
            },
            {
              "pitch": 74,
              "velocity": 53,
              "position": 3.6666666666666665,
              "duration": 0.21875
            },
            {
              "pitch": 62,
              "velocity": 66,
              "position": 3.6666666666666665,
              "duration": 0.2604166666666667
            },
            {
              "pitch": 31,
              "velocity": 54,
              "position": 3.6666666666666665,
              "duration": 0.3229166666666667
            },
            {
              "pitch": 70,
              "velocity": 72,
              "position": 3.6666666666666665,
              "duration": 0.325
            },
            {
              "pitch": 32,
              "velocity": 58,
              "position": 4,
              "duration": 1.2291666666666667
            },
            {
              "pitch": 63,
              "velocity": 84,
              "position": 4,
              "duration": 1.3125
            },
            {
              "pitch": 66,
              "velocity": 77,
              "position": 4,
              "duration": 1.3333333333333333
            },
            {
              "pitch": 72,
              "velocity": 72,
              "position": 4,
              "duration": 1.34375
            },
            {
              "pitch": 75,
              "velocity": 74,
              "position": 4,
              "duration": 1.3541666666666667
            },
            {
              "pitch": 77,
              "velocity": 66,
              "position": 5.666666666666667,
              "duration": 0.21875
            },
            {
              "pitch": 65,
              "velocity": 87,
              "position": 5.666666666666667,
              "duration": 0.22916666666666666
            },
            {
              "pitch": 24,
              "velocity": 26,
              "position": 5.552083333333333,
              "duration": 0.4270833333333333
            },
            {
              "pitch": 73,
              "velocity": 75,
              "position": 5.666666666666667,
              "duration": 0.3333333333333333
            },
            {
              "pitch": 27,
              "velocity": 15,
              "position": 6,
              "duration": 1.21875
            },
            {
              "pitch": 75,
              "velocity": 39,
              "position": 6,
              "duration": 1.2395833333333333
            },
            {
              "pitch": 78,
              "velocity": 63,
              "position": 6,
              "duration": 1.25
            },
            {
              "pitch": 70,
              "velocity": 75,
              "position": 5.666666666666667,
              "duration": 1.6145833333333333
            },
            {
              "pitch": 66,
              "velocity": 63,
              "position": 6,
              "duration": 1.3125
            },
            {
              "pitch": 74,
              "velocity": 100,
              "position": 8,
              "duration": 0.14583333333333334
            },
            {
              "pitch": 79,
              "velocity": 63,
              "position": 8,
              "duration": 0.65625
            },
            {
              "pitch": 75,
              "velocity": 29,
              "position": 8.104166666666666,
              "duration": 0.5729166666666666
            },
            {
              "pitch": 70,
              "velocity": 75,
              "position": 8,
              "duration": 0.7083333333333334
            },
            {
              "pitch": 67,
              "velocity": 78,
              "position": 8,
              "duration": 0.7291666666666666
            },
            {
              "pitch": 24,
              "velocity": 42,
              "position": 8,
              "duration": 0.9895833333333334
            },
            {
              "pitch": 72,
              "velocity": 75,
              "position": 9,
              "duration": 0.8958333333333334
            },
            {
              "pitch": 63,
              "velocity": 75,
              "position": 9,
              "duration": 0.9270833333333334
            },
            {
              "pitch": 60,
              "velocity": 75,
              "position": 9,
              "duration": 0.9375
            },
            {
              "pitch": 70,
              "velocity": 68,
              "position": 9,
              "duration": 0.9583333333333334
            },
            {
              "pitch": 27,
              "velocity": 73,
              "position": 9,
              "duration": 0.9895833333333334
            },
            {
              "pitch": 72,
              "velocity": 61,
              "position": 10,
              "duration": 0.9166666666666666
            },
            {
              "pitch": 60,
              "velocity": 46,
              "position": 10,
              "duration": 0.9375
            },
            {
              "pitch": 63,
              "velocity": 68,
              "position": 10,
              "duration": 0.9479166666666666
            },
            {
              "pitch": 69,
              "velocity": 71,
              "position": 10,
              "duration": 0.9583333333333334
            },
            {
              "pitch": 29,
              "velocity": 66,
              "position": 10,
              "duration": 0.96875
            },
            {
              "pitch": 72,
              "velocity": 63,
              "position": 11,
              "duration": 0.84375
            },
            {
              "pitch": 60,
              "velocity": 66,
              "position": 11,
              "duration": 0.8645833333333334
            },
            {
              "pitch": 63,
              "velocity": 75,
              "position": 11,
              "duration": 0.8645833333333334
            },
            {
              "pitch": 30,
              "velocity": 75,
              "position": 11,
              "duration": 0.8854166666666666
            },
            {
              "pitch": 66,
              "velocity": 84,
              "position": 11,
              "duration": 0.9166666666666666
            },
            {
              "pitch": 69,
              "velocity": 58,
              "position": 11,
              "duration": 0.9166666666666666
            },
            {
              "pitch": 31,
              "velocity": 87,
              "position": 12,
              "duration": 0.2916666666666667
            },
            {
              "pitch": 70,
              "velocity": 73,
              "position": 12,
              "duration": 0.3020833333333333
            },
            {
              "pitch": 59,
              "velocity": 73,
              "position": 12,
              "duration": 0.3125
            },
            {
              "pitch": 63,
              "velocity": 52,
              "position": 12,
              "duration": 0.3125
            },
            {
              "pitch": 65,
              "velocity": 56,
              "position": 12,
              "duration": 0.3125
            },
            {
              "pitch": 59,
              "velocity": 73,
              "position": 13,
              "duration": 0.3541666666666667
            },
            {
              "pitch": 70,
              "velocity": 78,
              "position": 13,
              "duration": 0.3541666666666667
            },
            {
              "pitch": 31,
              "velocity": 52,
              "position": 13,
              "duration": 0.375
            },
            {
              "pitch": 63,
              "velocity": 84,
              "position": 13,
              "duration": 0.375
            },
            {
              "pitch": 65,
              "velocity": 84,
              "position": 13,
              "duration": 0.375
            },
            {
              "pitch": 24,
              "velocity": 66,
              "position": 13.666666666666666,
              "duration": 2.9895833333333335
            },
            {
              "pitch": 60,
              "velocity": 73,
              "position": 13.666666666666666,
              "duration": 3
            },
            {
              "pitch": 63,
              "velocity": 68,
              "position": 13.666666666666666,
              "duration": 3
            },
            {
              "pitch": 67,
              "velocity": 61,
              "position": 13.666666666666666,
              "duration": 3
            },
            {
              "pitch": 72,
              "velocity": 71,
              "position": 13.666666666666666,
              "duration": 3
            }
          ]
        },
        "4": {
          "ctab": {
            "srcChannel": 4,
            "name": "Org",
            "accType": "PAD",
            "editable": false,
            "mutedNotes": [],
            "mutedChords": [
              "1+2+5",
              "sus4",
              "1+5",
              "1+8",
              "7aug",
              "Maj7aug",
              "7(#9)",
              "7(b13)",
              "7(b9)",
              "7(13)",
              "7#11",
              "7(9)",
              "7b5",
              "7sus4",
              "7th",
              "aug",
              "Maj6(9)",
              "Maj7(9)",
              "Maj(9)",
              "Maj7#11",
              "Maj7",
              "Maj6",
              "Maj"
            ],
            "autoStart": false,
            "sourceChordNote": 0,
            "sourceChordType": "Maj7",
            "ctb2Low": null,
            "ctb2Main": {
              "ntr": "ROOT_TRANSPOSITION",
              "ntt": "BYPASS",
              "bassOn": false,
              "chordRootUpperLimit": 8,
              "noteLowLimit": 0,
              "noteHighLimit": 79,
              "rtr": "PITCH_SHIFT"
            },
            "ctb2High": null
          },
          "notes": [
            {
              "pitch": 84,
              "velocity": 127,
              "position": 0,
              "duration": 7.0625
            },
            {
              "pitch": 90,
              "velocity": 127,
              "position": 4,
              "duration": 3.1770833333333335
            },
            {
              "pitch": 82,
              "velocity": 127,
              "position": 4,
              "duration": 3.2083333333333335
            },
            {
              "pitch": 87,
              "velocity": 127,
              "position": 4,
              "duration": 3.3020833333333335
            },
            {
              "pitch": 80,
              "velocity": 127,
              "position": 7.333333333333333,
              "duration": 0.3229166666666667
            },
            {
              "pitch": 82,
              "velocity": 127,
              "position": 7.333333333333333,
              "duration": 0.3229166666666667
            },
            {
              "pitch": 86,
              "velocity": 127,
              "position": 7.333333333333333,
              "duration": 0.3229166666666667
            },
            {
              "pitch": 89,
              "velocity": 127,
              "position": 7.333333333333333,
              "duration": 0.3229166666666667
            },
            {
              "pitch": 81,
              "velocity": 127,
              "position": 7.666666666666667,
              "duration": 0.3229166666666667
            },
            {
              "pitch": 83,
              "velocity": 127,
              "position": 7.666666666666667,
              "duration": 0.3229166666666667
            },
            {
              "pitch": 87,
              "velocity": 127,
              "position": 7.666666666666667,
              "duration": 0.3229166666666667
            },
            {
              "pitch": 90,
              "velocity": 127,
              "position": 7.666666666666667,
              "duration": 0.3229166666666667
            },
            {
              "pitch": 82,
              "velocity": 127,
              "position": 8,
              "duration": 0.9895833333333334
            },
            {
              "pitch": 84,
              "velocity": 127,
              "position": 8,
              "duration": 0.9895833333333334
            },
            {
              "pitch": 87,
              "velocity": 127,
              "position": 8,
              "duration": 0.9895833333333334
            },
            {
              "pitch": 91,
              "velocity": 127,
              "position": 8,
              "duration": 0.9895833333333334
            },
            {
              "pitch": 82,
              "velocity": 127,
              "position": 9,
              "duration": 0.9895833333333334
            },
            {
              "pitch": 87,
              "velocity": 127,
              "position": 9,
              "duration": 0.9895833333333334
            },
            {
              "pitch": 89,
              "velocity": 127,
              "position": 10,
              "duration": 0.9895833333333334
            },
            {
              "pitch": 81,
              "velocity": 127,
              "position": 10,
              "duration": 1.9166666666666667
            },
            {
              "pitch": 84,
              "velocity": 127,
              "position": 9,
              "duration": 2.9166666666666665
            },
            {
              "pitch": 87,
              "velocity": 127,
              "position": 11,
              "duration": 0.9166666666666666
            },
            {
              "pitch": 90,
              "velocity": 127,
              "position": 11,
              "duration": 0.9166666666666666
            },
            {
              "pitch": 83,
              "velocity": 127,
              "position": 12,
              "duration": 0.3020833333333333
            },
            {
              "pitch": 87,
              "velocity": 127,
              "position": 12,
              "duration": 0.3020833333333333
            },
            {
              "pitch": 89,
              "velocity": 127,
              "position": 12,
              "duration": 0.3020833333333333
            },
            {
              "pitch": 79,
              "velocity": 127,
              "position": 13,
              "duration": 0.5833333333333334
            },
            {
              "pitch": 83,
              "velocity": 127,
              "position": 13,
              "duration": 0.5833333333333334
            },
            {
              "pitch": 87,
              "velocity": 127,
              "position": 13,
              "duration": 0.5833333333333334
            },
            {
              "pitch": 89,
              "velocity": 127,
              "position": 13,
              "duration": 0.5833333333333334
            },
            {
              "pitch": 84,
              "velocity": 127,
              "position": 13.666666666666666,
              "duration": 2.9895833333333335
            },
            {
              "pitch": 87,
              "velocity": 127,
              "position": 13.666666666666666,
              "duration": 2.9895833333333335
            },
            {
              "pitch": 91,
              "velocity": 127,
              "position": 13.666666666666666,
              "duration": 2.9895833333333335
            }
          ]
        },
        "5": {
          "ctab": {
            "srcChannel": 5,
            "name": "ClGt",
            "accType": "PHRASE1",
            "editable": false,
            "mutedNotes": [],
            "mutedChords": [
              "1+2+5",
              "sus4",
              "1+5",
              "1+8",
              "7aug",
              "Maj7aug",
              "7(#9)",
              "7(b13)",
              "7(b9)",
              "7(13)",
              "7#11",
              "7(9)",
              "7b5",
              "7sus4",
              "7th",
              "aug",
              "Maj6(9)",
              "Maj7(9)",
              "Maj(9)",
              "Maj7#11",
              "Maj7",
              "Maj6",
              "Maj"
            ],
            "autoStart": false,
            "sourceChordNote": 0,
            "sourceChordType": "Maj7",
            "ctb2Low": null,
            "ctb2Main": {
              "ntr": "ROOT_TRANSPOSITION",
              "ntt": "BYPASS",
              "bassOn": false,
              "chordRootUpperLimit": 6,
              "noteLowLimit": 0,
              "noteHighLimit": 127,
              "rtr": "PITCH_SHIFT"
            },
            "ctb2High": null
          },
          "notes": [
            {
              "pitch": 72,
              "velocity": 30,
              "position": 1,
              "duration": 1.65625
            },
            {
              "pitch": 72,
              "velocity": 30,
              "position": 2.6666666666666665,
              "duration": 0.15625
            },
            {
              "pitch": 69,
              "velocity": 120,
              "position": 0.6666666666666666,
              "duration": 2.3229166666666665
            },
            {
              "pitch": 74,
              "velocity": 94,
              "position": 2.8333333333333335,
              "duration": 0.16666666666666666
            },
            {
              "pitch": 63,
              "velocity": 20,
              "position": 1,
              "duration": 2.2395833333333335
            },
            {
              "pitch": 69,
              "velocity": 119,
              "position": 3,
              "duration": 1.375
            },
            {
              "pitch": 65,
              "velocity": 30,
              "position": 3.25,
              "duration": 1.1354166666666667
            },
            {
              "pitch": 72,
              "velocity": 118,
              "position": 4.666666666666667,
              "duration": 1.5
            },
            {
              "pitch": 66,
              "velocity": 30,
              "position": 5,
              "duration": 1.1666666666666667
            },
            {
              "pitch": 75,
              "velocity": 30,
              "position": 5,
              "duration": 1.1666666666666667
            },
            {
              "pitch": 73,
              "velocity": 58,
              "position": 6.21875,
              "duration": 0.10416666666666667
            },
            {
              "pitch": 72,
              "velocity": 39,
              "position": 6.4375,
              "duration": 0.11458333333333333
            },
            {
              "pitch": 53,
              "velocity": 10,
              "position": 6.552083333333333,
              "duration": 0.020833333333333332
            },
            {
              "pitch": 58,
              "velocity": 10,
              "position": 6.604166666666667,
              "duration": 1.3645833333333333
            },
            {
              "pitch": 63,
              "velocity": 10,
              "position": 6.666666666666667,
              "duration": 1.3020833333333333
            },
            {
              "pitch": 66,
              "velocity": 30,
              "position": 6.71875,
              "duration": 1.25
            },
            {
              "pitch": 55,
              "velocity": 113,
              "position": 8.166666666666666,
              "duration": 0.5
            },
            {
              "pitch": 60,
              "velocity": 30,
              "position": 8.333333333333334,
              "duration": 0.3333333333333333
            },
            {
              "pitch": 63,
              "velocity": 40,
              "position": 8.666666666666666,
              "duration": 0.1625
            },
            {
              "pitch": 63,
              "velocity": 117,
              "position": 8.833333333333334,
              "duration": 0.9166666666666666
            },
            {
              "pitch": 72,
              "velocity": 40,
              "position": 9.083333333333334,
              "duration": 0.6875
            },
            {
              "pitch": 70,
              "velocity": 40,
              "position": 9.770833333333334,
              "duration": 0.10416666666666667
            },
            {
              "pitch": 67,
              "velocity": 40,
              "position": 9.885416666666666,
              "duration": 0.10416666666666667
            },
            {
              "pitch": 63,
              "velocity": 112,
              "position": 10,
              "duration": 0.71875
            },
            {
              "pitch": 72,
              "velocity": 120,
              "position": 10,
              "duration": 0.71875
            },
            {
              "pitch": 70,
              "velocity": 38,
              "position": 10.78125,
              "duration": 0.10416666666666667
            },
            {
              "pitch": 67,
              "velocity": 98,
              "position": 10.885416666666666,
              "duration": 0.10416666666666667
            },
            {
              "pitch": 65,
              "velocity": 53,
              "position": 11,
              "duration": 0.10416666666666667
            },
            {
              "pitch": 63,
              "velocity": 98,
              "position": 11.114583333333334,
              "duration": 0.10416666666666667
            },
            {
              "pitch": 60,
              "velocity": 36,
              "position": 11.21875,
              "duration": 0.11458333333333333
            },
            {
              "pitch": 58,
              "velocity": 98,
              "position": 11.333333333333334,
              "duration": 0.10416666666666667
            },
            {
              "pitch": 55,
              "velocity": 30,
              "position": 11.4375,
              "duration": 0.11458333333333333
            },
            {
              "pitch": 54,
              "velocity": 98,
              "position": 11.552083333333334,
              "duration": 0.10416666666666667
            },
            {
              "pitch": 53,
              "velocity": 30,
              "position": 11.666666666666666,
              "duration": 0.10416666666666667
            },
            {
              "pitch": 51,
              "velocity": 98,
              "position": 11.78125,
              "duration": 0.10416666666666667
            },
            {
              "pitch": 48,
              "velocity": 91,
              "position": 11.885416666666666,
              "duration": 0.10416666666666667
            },
            {
              "pitch": 55,
              "velocity": 119,
              "position": 12,
              "duration": 0.3020833333333333
            },
            {
              "pitch": 59,
              "velocity": 115,
              "position": 13,
              "duration": 0.65625
            },
            {
              "pitch": 65,
              "velocity": 115,
              "position": 13,
              "duration": 0.65625
            },
            {
              "pitch": 70,
              "velocity": 115,
              "position": 13,
              "duration": 0.65625
            },
            {
              "pitch": 58,
              "velocity": 113,
              "position": 13.666666666666666,
              "duration": 2.9895833333333335
            },
            {
              "pitch": 63,
              "velocity": 113,
              "position": 13.666666666666666,
              "duration": 2.9895833333333335
            },
            {
              "pitch": 67,
              "velocity": 113,
              "position": 13.666666666666666,
              "duration": 2.9895833333333335
            }
          ]
        },
        "6": {
          "ctab": {
            "srcChannel": 6,
            "name": "EP",
            "accType": "PHRASE2",
            "editable": false,
            "mutedNotes": [],
            "mutedChords": [
              "1+2+5",
              "sus4",
              "1+5",
              "1+8",
              "7aug",
              "Maj7aug",
              "7(#9)",
              "7(b13)",
              "7(b9)",
              "7(13)",
              "7#11",
              "7(9)",
              "7b5",
              "7sus4",
              "7th",
              "aug",
              "Maj6(9)",
              "Maj7(9)",
              "Maj(9)",
              "Maj7#11",
              "Maj7",
              "Maj6",
              "Maj"
            ],
            "autoStart": false,
            "sourceChordNote": 0,
            "sourceChordType": "Maj7",
            "ctb2Low": null,
            "ctb2Main": {
              "ntr": "ROOT_TRANSPOSITION",
              "ntt": "BYPASS",
              "bassOn": false,
              "chordRootUpperLimit": 8,
              "noteLowLimit": 48,
              "noteHighLimit": 67,
              "rtr": "PITCH_SHIFT"
            },
            "ctb2High": null
          },
          "notes": [
            {
              "pitch": 51,
              "velocity": 57,
              "position": 0,
              "duration": 1.2916666666666667
            },
            {
              "pitch": 57,
              "velocity": 45,
              "position": 0,
              "duration": 1.3541666666666667
            },
            {
              "pitch": 60,
              "velocity": 57,
              "position": 0,
              "duration": 1.3645833333333333
            },
            {
              "pitch": 51,
              "velocity": 52,
              "position": 1.5520833333333333,
              "duration": 0.10416666666666667
            },
            {
              "pitch": 53,
              "velocity": 70,
              "position": 1.6666666666666667,
              "duration": 0.21875
            },
            {
              "pitch": 58,
              "velocity": 66,
              "position": 1.6666666666666667,
              "duration": 0.21875
            },
            {
              "pitch": 62,
              "velocity": 63,
              "position": 1.6666666666666667,
              "duration": 0.21875
            },
            {
              "pitch": 51,
              "velocity": 23,
              "position": 1.8854166666666667,
              "duration": 0.09375
            },
            {
              "pitch": 59,
              "velocity": 60,
              "position": 2,
              "duration": 0.08333333333333333
            },
            {
              "pitch": 63,
              "velocity": 44,
              "position": 2,
              "duration": 1.0625
            },
            {
              "pitch": 55,
              "velocity": 51,
              "position": 2,
              "duration": 1.0729166666666667
            },
            {
              "pitch": 60,
              "velocity": 39,
              "position": 2,
              "duration": 1.0833333333333333
            },
            {
              "pitch": 63,
              "velocity": 14,
              "position": 3.3333333333333335,
              "duration": 0.23958333333333334
            },
            {
              "pitch": 60,
              "velocity": 63,
              "position": 3.3333333333333335,
              "duration": 0.3020833333333333
            },
            {
              "pitch": 53,
              "velocity": 73,
              "position": 3.3333333333333335,
              "duration": 0.3125
            },
            {
              "pitch": 65,
              "velocity": 22,
              "position": 3.6666666666666665,
              "duration": 0.2916666666666667
            },
            {
              "pitch": 55,
              "velocity": 57,
              "position": 3.6666666666666665,
              "duration": 0.3229166666666667
            },
            {
              "pitch": 62,
              "velocity": 67,
              "position": 3.6666666666666665,
              "duration": 0.3229166666666667
            },
            {
              "pitch": 56,
              "velocity": 52,
              "position": 4,
              "duration": 1.2291666666666667
            },
            {
              "pitch": 63,
              "velocity": 55,
              "position": 4,
              "duration": 1.3125
            },
            {
              "pitch": 66,
              "velocity": 62,
              "position": 4,
              "duration": 1.34375
            },
            {
              "pitch": 58,
              "velocity": 44,
              "position": 5.666666666666667,
              "duration": 0.3125
            },
            {
              "pitch": 54,
              "velocity": 57,
              "position": 5.552083333333333,
              "duration": 0.4375
            },
            {
              "pitch": 61,
              "velocity": 59,
              "position": 5.666666666666667,
              "duration": 0.3229166666666667
            },
            {
              "pitch": 65,
              "velocity": 41,
              "position": 5.666666666666667,
              "duration": 0.3229166666666667
            },
            {
              "pitch": 56,
              "velocity": 51,
              "position": 6,
              "duration": 0.8541666666666666
            },
            {
              "pitch": 63,
              "velocity": 60,
              "position": 6,
              "duration": 0.8541666666666666
            },
            {
              "pitch": 60,
              "velocity": 51,
              "position": 6,
              "duration": 0.8645833333333334
            },
            {
              "pitch": 54,
              "velocity": 44,
              "position": 7,
              "duration": 0.21875
            },
            {
              "pitch": 56,
              "velocity": 47,
              "position": 7,
              "duration": 0.22916666666666666
            },
            {
              "pitch": 60,
              "velocity": 51,
              "position": 7,
              "duration": 0.22916666666666666
            },
            {
              "pitch": 63,
              "velocity": 72,
              "position": 7,
              "duration": 0.23958333333333334
            },
            {
              "pitch": 58,
              "velocity": 52,
              "position": 7.333333333333333,
              "duration": 0.2604166666666667
            },
            {
              "pitch": 56,
              "velocity": 59,
              "position": 7.333333333333333,
              "duration": 0.2916666666666667
            },
            {
              "pitch": 65,
              "velocity": 41,
              "position": 7.333333333333333,
              "duration": 0.3125
            },
            {
              "pitch": 62,
              "velocity": 83,
              "position": 7.333333333333333,
              "duration": 0.3229166666666667
            },
            {
              "pitch": 57,
              "velocity": 70,
              "position": 7.666666666666667,
              "duration": 0.2604166666666667
            },
            {
              "pitch": 59,
              "velocity": 66,
              "position": 7.666666666666667,
              "duration": 0.2604166666666667
            },
            {
              "pitch": 63,
              "velocity": 66,
              "position": 7.666666666666667,
              "duration": 0.3125
            },
            {
              "pitch": 66,
              "velocity": 67,
              "position": 7.666666666666667,
              "duration": 0.3229166666666667
            },
            {
              "pitch": 58,
              "velocity": 72,
              "position": 8,
              "duration": 0.90625
            },
            {
              "pitch": 60,
              "velocity": 67,
              "position": 8,
              "duration": 0.90625
            },
            {
              "pitch": 67,
              "velocity": 76,
              "position": 8,
              "duration": 0.9166666666666666
            },
            {
              "pitch": 63,
              "velocity": 72,
              "position": 8,
              "duration": 0.9583333333333334
            },
            {
              "pitch": 63,
              "velocity": 70,
              "position": 9,
              "duration": 0.8333333333333334
            },
            {
              "pitch": 58,
              "velocity": 72,
              "position": 9,
              "duration": 0.8854166666666666
            },
            {
              "pitch": 67,
              "velocity": 67,
              "position": 9,
              "duration": 0.8958333333333334
            },
            {
              "pitch": 72,
              "velocity": 83,
              "position": 9,
              "duration": 0.9791666666666666
            },
            {
              "pitch": 60,
              "velocity": 60,
              "position": 10,
              "duration": 0.8645833333333334
            },
            {
              "pitch": 63,
              "velocity": 66,
              "position": 10,
              "duration": 0.9166666666666666
            },
            {
              "pitch": 57,
              "velocity": 67,
              "position": 10,
              "duration": 0.9375
            },
            {
              "pitch": 67,
              "velocity": 47,
              "position": 10,
              "duration": 0.96875
            },
            {
              "pitch": 57,
              "velocity": 47,
              "position": 11,
              "duration": 0.90625
            },
            {
              "pitch": 63,
              "velocity": 72,
              "position": 11,
              "duration": 0.9166666666666666
            },
            {
              "pitch": 60,
              "velocity": 54,
              "position": 11,
              "duration": 0.9375
            },
            {
              "pitch": 66,
              "velocity": 70,
              "position": 11,
              "duration": 0.9375
            },
            {
              "pitch": 58,
              "velocity": 72,
              "position": 12,
              "duration": 0.2916666666666667
            },
            {
              "pitch": 67,
              "velocity": 60,
              "position": 12,
              "duration": 0.2916666666666667
            },
            {
              "pitch": 63,
              "velocity": 59,
              "position": 12,
              "duration": 0.3020833333333333
            },
            {
              "pitch": 53,
              "velocity": 70,
              "position": 12,
              "duration": 0.3125
            },
            {
              "pitch": 59,
              "velocity": 72,
              "position": 13,
              "duration": 0.5104166666666666
            },
            {
              "pitch": 70,
              "velocity": 72,
              "position": 13,
              "duration": 0.5104166666666666
            },
            {
              "pitch": 63,
              "velocity": 86,
              "position": 13,
              "duration": 0.5729166666666666
            },
            {
              "pitch": 65,
              "velocity": 78,
              "position": 13,
              "duration": 0.6354166666666666
            },
            {
              "pitch": 58,
              "velocity": 67,
              "position": 13.666666666666666,
              "duration": 2.9895833333333335
            },
            {
              "pitch": 60,
              "velocity": 63,
              "position": 13.666666666666666,
              "duration": 2.9895833333333335
            },
            {
              "pitch": 63,
              "velocity": 52,
              "position": 13.666666666666666,
              "duration": 2.9895833333333335
            },
            {
              "pitch": 67,
              "velocity": 73,
              "position": 13.666666666666666,
              "duration": 2.9895833333333335
            }
          ]
        },
        "8": {
          "ctab": {
            "srcChannel": 8,
            "name": "Perc",
            "accType": "SUBRHYTHM",
            "editable": false,
            "mutedNotes": [],
            "mutedChords": [],
            "autoStart": true,
            "sourceChordNote": 0,
            "sourceChordType": "Maj7",
            "ctb2Low": null,
            "ctb2Main": {
              "ntr": "ROOT_FIXED",
              "ntt": "BYPASS",
              "bassOn": false,
              "chordRootUpperLimit": 6,
              "noteLowLimit": 0,
              "noteHighLimit": 127,
              "rtr": "PITCH_SHIFT"
            },
            "ctb2High": null
          },
          "notes": [
            {
              "pitch": 54,
              "velocity": 36,
              "position": 0,
              "duration": 0.010416666666666666
            },
            {
              "pitch": 54,
              "velocity": 9,
              "position": 0.21875,
              "duration": 0.010416666666666666
            },
            {
              "pitch": 54,
              "velocity": 25,
              "position": 0.3333333333333333,
              "duration": 0.010416666666666666
            },
            {
              "pitch": 54,
              "velocity": 24,
              "position": 0.5520833333333334,
              "duration": 0.010416666666666666
            },
            {
              "pitch": 54,
              "velocity": 26,
              "position": 0.6666666666666666,
              "duration": 0.010416666666666666
            },
            {
              "pitch": 54,
              "velocity": 8,
              "position": 0.8854166666666666,
              "duration": 0.010416666666666666
            },
            {
              "pitch": 54,
              "velocity": 90,
              "position": 1,
              "duration": 0.010416666666666666
            },
            {
              "pitch": 54,
              "velocity": 13,
              "position": 1.21875,
              "duration": 0.010416666666666666
            },
            {
              "pitch": 54,
              "velocity": 25,
              "position": 1.3333333333333333,
              "duration": 0.010416666666666666
            },
            {
              "pitch": 54,
              "velocity": 10,
              "position": 1.5520833333333333,
              "duration": 0.010416666666666666
            },
            {
              "pitch": 54,
              "velocity": 19,
              "position": 1.6666666666666667,
              "duration": 0.010416666666666666
            },
            {
              "pitch": 54,
              "velocity": 10,
              "position": 1.8854166666666667,
              "duration": 0.010416666666666666
            },
            {
              "pitch": 54,
              "velocity": 36,
              "position": 2,
              "duration": 0.010416666666666666
            },
            {
              "pitch": 54,
              "velocity": 9,
              "position": 2.21875,
              "duration": 0.010416666666666666
            },
            {
              "pitch": 54,
              "velocity": 25,
              "position": 2.3333333333333335,
              "duration": 0.010416666666666666
            },
            {
              "pitch": 54,
              "velocity": 24,
              "position": 2.5520833333333335,
              "duration": 0.010416666666666666
            },
            {
              "pitch": 54,
              "velocity": 26,
              "position": 2.6666666666666665,
              "duration": 0.010416666666666666
            },
            {
              "pitch": 54,
              "velocity": 8,
              "position": 2.8854166666666665,
              "duration": 0.010416666666666666
            },
            {
              "pitch": 54,
              "velocity": 90,
              "position": 3,
              "duration": 0.010416666666666666
            },
            {
              "pitch": 54,
              "velocity": 13,
              "position": 3.21875,
              "duration": 0.010416666666666666
            },
            {
              "pitch": 54,
              "velocity": 25,
              "position": 3.3333333333333335,
              "duration": 0.010416666666666666
            },
            {
              "pitch": 54,
              "velocity": 10,
              "position": 3.5520833333333335,
              "duration": 0.010416666666666666
            },
            {
              "pitch": 54,
              "velocity": 19,
              "position": 3.6666666666666665,
              "duration": 0.010416666666666666
            },
            {
              "pitch": 54,
              "velocity": 10,
              "position": 3.8854166666666665,
              "duration": 0.010416666666666666
            },
            {
              "pitch": 54,
              "velocity": 36,
              "position": 4,
              "duration": 0.010416666666666666
            },
            {
              "pitch": 54,
              "velocity": 9,
              "position": 4.21875,
              "duration": 0.010416666666666666
            },
            {
              "pitch": 54,
              "velocity": 25,
              "position": 4.333333333333333,
              "duration": 0.010416666666666666
            },
            {
              "pitch": 54,
              "velocity": 24,
              "position": 4.552083333333333,
              "duration": 0.010416666666666666
            },
            {
              "pitch": 54,
              "velocity": 26,
              "position": 4.666666666666667,
              "duration": 0.010416666666666666
            },
            {
              "pitch": 54,
              "velocity": 8,
              "position": 4.885416666666667,
              "duration": 0.010416666666666666
            },
            {
              "pitch": 54,
              "velocity": 90,
              "position": 5,
              "duration": 0.010416666666666666
            },
            {
              "pitch": 54,
              "velocity": 13,
              "position": 5.21875,
              "duration": 0.010416666666666666
            },
            {
              "pitch": 54,
              "velocity": 25,
              "position": 5.333333333333333,
              "duration": 0.010416666666666666
            },
            {
              "pitch": 54,
              "velocity": 10,
              "position": 5.552083333333333,
              "duration": 0.010416666666666666
            },
            {
              "pitch": 54,
              "velocity": 19,
              "position": 5.666666666666667,
              "duration": 0.010416666666666666
            },
            {
              "pitch": 54,
              "velocity": 10,
              "position": 5.885416666666667,
              "duration": 0.010416666666666666
            },
            {
              "pitch": 54,
              "velocity": 36,
              "position": 6,
              "duration": 0.010416666666666666
            },
            {
              "pitch": 54,
              "velocity": 9,
              "position": 6.21875,
              "duration": 0.010416666666666666
            },
            {
              "pitch": 54,
              "velocity": 25,
              "position": 6.333333333333333,
              "duration": 0.010416666666666666
            },
            {
              "pitch": 54,
              "velocity": 24,
              "position": 6.552083333333333,
              "duration": 0.010416666666666666
            },
            {
              "pitch": 54,
              "velocity": 26,
              "position": 6.666666666666667,
              "duration": 0.010416666666666666
            },
            {
              "pitch": 54,
              "velocity": 8,
              "position": 6.885416666666667,
              "duration": 0.010416666666666666
            },
            {
              "pitch": 54,
              "velocity": 90,
              "position": 7,
              "duration": 0.010416666666666666
            },
            {
              "pitch": 54,
              "velocity": 13,
              "position": 7.21875,
              "duration": 0.010416666666666666
            },
            {
              "pitch": 54,
              "velocity": 25,
              "position": 7.333333333333333,
              "duration": 0.010416666666666666
            },
            {
              "pitch": 54,
              "velocity": 10,
              "position": 7.552083333333333,
              "duration": 0.010416666666666666
            },
            {
              "pitch": 54,
              "velocity": 19,
              "position": 7.666666666666667,
              "duration": 0.010416666666666666
            },
            {
              "pitch": 54,
              "velocity": 10,
              "position": 7.885416666666667,
              "duration": 0.010416666666666666
            },
            {
              "pitch": 54,
              "velocity": 36,
              "position": 8,
              "duration": 0.010416666666666666
            },
            {
              "pitch": 54,
              "velocity": 9,
              "position": 8.21875,
              "duration": 0.010416666666666666
            },
            {
              "pitch": 54,
              "velocity": 25,
              "position": 8.333333333333334,
              "duration": 0.010416666666666666
            },
            {
              "pitch": 54,
              "velocity": 24,
              "position": 8.552083333333334,
              "duration": 0.010416666666666666
            },
            {
              "pitch": 54,
              "velocity": 26,
              "position": 8.666666666666666,
              "duration": 0.010416666666666666
            },
            {
              "pitch": 54,
              "velocity": 8,
              "position": 8.885416666666666,
              "duration": 0.010416666666666666
            },
            {
              "pitch": 54,
              "velocity": 90,
              "position": 9,
              "duration": 0.010416666666666666
            },
            {
              "pitch": 54,
              "velocity": 13,
              "position": 9.21875,
              "duration": 0.010416666666666666
            },
            {
              "pitch": 54,
              "velocity": 25,
              "position": 9.333333333333334,
              "duration": 0.010416666666666666
            },
            {
              "pitch": 54,
              "velocity": 10,
              "position": 9.552083333333334,
              "duration": 0.010416666666666666
            },
            {
              "pitch": 54,
              "velocity": 19,
              "position": 9.666666666666666,
              "duration": 0.010416666666666666
            },
            {
              "pitch": 54,
              "velocity": 10,
              "position": 9.885416666666666,
              "duration": 0.010416666666666666
            },
            {
              "pitch": 54,
              "velocity": 36,
              "position": 10,
              "duration": 0.010416666666666666
            },
            {
              "pitch": 54,
              "velocity": 9,
              "position": 10.21875,
              "duration": 0.010416666666666666
            },
            {
              "pitch": 54,
              "velocity": 25,
              "position": 10.333333333333334,
              "duration": 0.010416666666666666
            },
            {
              "pitch": 54,
              "velocity": 24,
              "position": 10.552083333333334,
              "duration": 0.010416666666666666
            },
            {
              "pitch": 54,
              "velocity": 26,
              "position": 10.666666666666666,
              "duration": 0.010416666666666666
            },
            {
              "pitch": 54,
              "velocity": 8,
              "position": 10.885416666666666,
              "duration": 0.010416666666666666
            },
            {
              "pitch": 54,
              "velocity": 90,
              "position": 11,
              "duration": 0.010416666666666666
            },
            {
              "pitch": 54,
              "velocity": 13,
              "position": 11.21875,
              "duration": 0.010416666666666666
            },
            {
              "pitch": 54,
              "velocity": 25,
              "position": 11.333333333333334,
              "duration": 0.010416666666666666
            },
            {
              "pitch": 54,
              "velocity": 10,
              "position": 11.552083333333334,
              "duration": 0.010416666666666666
            },
            {
              "pitch": 54,
              "velocity": 19,
              "position": 11.666666666666666,
              "duration": 0.010416666666666666
            },
            {
              "pitch": 54,
              "velocity": 10,
              "position": 11.885416666666666,
              "duration": 0.010416666666666666
            },
            {
              "pitch": 54,
              "velocity": 36,
              "position": 12,
              "duration": 0.010416666666666666
            },
            {
              "pitch": 54,
              "velocity": 77,
              "position": 13,
              "duration": 0.010416666666666666
            },
            {
              "pitch": 54,
              "velocity": 77,
              "position": 13.666666666666666,
              "duration": 0.010416666666666666
            }
          ]
        },
        "9": {
          "ctab": {
            "srcChannel": 9,
            "name": "Drs",
            "accType": "RHYTHM",
            "editable": false,
            "mutedNotes": [],
            "mutedChords": [],
            "autoStart": true,
            "sourceChordNote": 0,
            "sourceChordType": "Maj7",
            "ctb2Low": null,
            "ctb2Main": {
              "ntr": "ROOT_FIXED",
              "ntt": "BYPASS",
              "bassOn": false,
              "chordRootUpperLimit": 6,
              "noteLowLimit": 0,
              "noteHighLimit": 127,
              "rtr": "PITCH_SHIFT"
            },
            "ctb2High": null
          },
          "notes": [
            {
              "pitch": 36,
              "velocity": 90,
              "position": 0,
              "duration": 0.010416666666666666
            },
            {
              "pitch": 44,
              "velocity": 80,
              "position": 0,
              "duration": 0.010416666666666666
            },
            {
              "pitch": 49,
              "velocity": 75,
              "position": 0,
              "duration": 0.010416666666666666
            },
            {
              "pitch": 40,
              "velocity": 20,
              "position": 0.10416666666666667,
              "duration": 0.010416666666666666
            },
            {
              "pitch": 51,
              "velocity": 23,
              "position": 0.21875,
              "duration": 0.010416666666666666
            },
            {
              "pitch": 44,
              "velocity": 40,
              "position": 0.3333333333333333,
              "duration": 0.010416666666666666
            },
            {
              "pitch": 51,
              "velocity": 79,
              "position": 0.3333333333333333,
              "duration": 0.010416666666666666
            },
            {
              "pitch": 40,
              "velocity": 20,
              "position": 0.4375,
              "duration": 0.010416666666666666
            },
            {
              "pitch": 36,
              "velocity": 50,
              "position": 0.5520833333333334,
              "duration": 0.010416666666666666
            },
            {
              "pitch": 51,
              "velocity": 21,
              "position": 0.5520833333333334,
              "duration": 0.010416666666666666
            },
            {
              "pitch": 36,
              "velocity": 90,
              "position": 0.6666666666666666,
              "duration": 0.010416666666666666
            },
            {
              "pitch": 44,
              "velocity": 60,
              "position": 0.6666666666666666,
              "duration": 0.010416666666666666
            },
            {
              "pitch": 51,
              "velocity": 93,
              "position": 0.6666666666666666,
              "duration": 0.010416666666666666
            },
            {
              "pitch": 40,
              "velocity": 20,
              "position": 0.7708333333333334,
              "duration": 0.010416666666666666
            },
            {
              "pitch": 36,
              "velocity": 50,
              "position": 0.8854166666666666,
              "duration": 0.010416666666666666
            },
            {
              "pitch": 51,
              "velocity": 23,
              "position": 0.8854166666666666,
              "duration": 0.010416666666666666
            },
            {
              "pitch": 40,
              "velocity": 106,
              "position": 1,
              "duration": 0.010416666666666666
            },
            {
              "pitch": 44,
              "velocity": 80,
              "position": 1,
              "duration": 0.010416666666666666
            },
            {
              "pitch": 51,
              "velocity": 93,
              "position": 1,
              "duration": 0.010416666666666666
            },
            {
              "pitch": 40,
              "velocity": 20,
              "position": 1.1041666666666667,
              "duration": 0.010416666666666666
            },
            {
              "pitch": 51,
              "velocity": 21,
              "position": 1.21875,
              "duration": 0.010416666666666666
            },
            {
              "pitch": 44,
              "velocity": 40,
              "position": 1.3333333333333333,
              "duration": 0.010416666666666666
            },
            {
              "pitch": 51,
              "velocity": 79,
              "position": 1.3333333333333333,
              "duration": 0.010416666666666666
            },
            {
              "pitch": 40,
              "velocity": 20,
              "position": 1.4375,
              "duration": 0.010416666666666666
            },
            {
              "pitch": 36,
              "velocity": 50,
              "position": 1.5520833333333333,
              "duration": 0.010416666666666666
            },
            {
              "pitch": 51,
              "velocity": 23,
              "position": 1.5520833333333333,
              "duration": 0.010416666666666666
            },
            {
              "pitch": 36,
              "velocity": 90,
              "position": 1.6666666666666667,
              "duration": 0.010416666666666666
            },
            {
              "pitch": 44,
              "velocity": 60,
              "position": 1.6666666666666667,
              "duration": 0.010416666666666666
            },
            {
              "pitch": 51,
              "velocity": 93,
              "position": 1.6666666666666667,
              "duration": 0.010416666666666666
            },
            {
              "pitch": 40,
              "velocity": 20,
              "position": 1.7708333333333333,
              "duration": 0.010416666666666666
            },
            {
              "pitch": 51,
              "velocity": 21,
              "position": 1.8854166666666667,
              "duration": 0.010416666666666666
            },
            {
              "pitch": 36,
              "velocity": 90,
              "position": 2,
              "duration": 0.010416666666666666
            },
            {
              "pitch": 44,
              "velocity": 80,
              "position": 2,
              "duration": 0.010416666666666666
            },
            {
              "pitch": 51,
              "velocity": 93,
              "position": 2,
              "duration": 0.010416666666666666
            },
            {
              "pitch": 40,
              "velocity": 20,
              "position": 2.1041666666666665,
              "duration": 0.010416666666666666
            },
            {
              "pitch": 51,
              "velocity": 23,
              "position": 2.21875,
              "duration": 0.010416666666666666
            },
            {
              "pitch": 44,
              "velocity": 40,
              "position": 2.3333333333333335,
              "duration": 0.010416666666666666
            },
            {
              "pitch": 51,
              "velocity": 79,
              "position": 2.3333333333333335,
              "duration": 0.010416666666666666
            },
            {
              "pitch": 40,
              "velocity": 20,
              "position": 2.4375,
              "duration": 0.010416666666666666
            },
            {
              "pitch": 36,
              "velocity": 50,
              "position": 2.5520833333333335,
              "duration": 0.010416666666666666
            },
            {
              "pitch": 51,
              "velocity": 21,
              "position": 2.5520833333333335,
              "duration": 0.010416666666666666
            },
            {
              "pitch": 36,
              "velocity": 90,
              "position": 2.6666666666666665,
              "duration": 0.010416666666666666
            },
            {
              "pitch": 44,
              "velocity": 60,
              "position": 2.6666666666666665,
              "duration": 0.010416666666666666
            },
            {
              "pitch": 51,
              "velocity": 93,
              "position": 2.6666666666666665,
              "duration": 0.010416666666666666
            },
            {
              "pitch": 40,
              "velocity": 20,
              "position": 2.7708333333333335,
              "duration": 0.010416666666666666
            },
            {
              "pitch": 36,
              "velocity": 50,
              "position": 2.8854166666666665,
              "duration": 0.010416666666666666
            },
            {
              "pitch": 51,
              "velocity": 23,
              "position": 2.8854166666666665,
              "duration": 0.010416666666666666
            },
            {
              "pitch": 40,
              "velocity": 110,
              "position": 3,
              "duration": 0.010416666666666666
            },
            {
              "pitch": 44,
              "velocity": 80,
              "position": 3,
              "duration": 0.010416666666666666
            },
            {
              "pitch": 51,
              "velocity": 93,
              "position": 3,
              "duration": 0.010416666666666666
            },
            {
              "pitch": 45,
              "velocity": 32,
              "position": 3.1041666666666665,
              "duration": 0.010416666666666666
            },
            {
              "pitch": 45,
              "velocity": 47,
              "position": 3.21875,
              "duration": 0.010416666666666666
            },
            {
              "pitch": 36,
              "velocity": 90,
              "position": 3.3333333333333335,
              "duration": 0.010416666666666666
            },
            {
              "pitch": 44,
              "velocity": 40,
              "position": 3.3333333333333335,
              "duration": 0.010416666666666666
            },
            {
              "pitch": 45,
              "velocity": 80,
              "position": 3.3333333333333335,
              "duration": 0.010416666666666666
            },
            {
              "pitch": 43,
              "velocity": 32,
              "position": 3.4375,
              "duration": 0.010416666666666666
            },
            {
              "pitch": 43,
              "velocity": 47,
              "position": 3.5520833333333335,
              "duration": 0.010416666666666666
            },
            {
              "pitch": 36,
              "velocity": 90,
              "position": 3.6666666666666665,
              "duration": 0.010416666666666666
            },
            {
              "pitch": 43,
              "velocity": 90,
              "position": 3.6666666666666665,
              "duration": 0.010416666666666666
            },
            {
              "pitch": 44,
              "velocity": 60,
              "position": 3.6666666666666665,
              "duration": 0.010416666666666666
            },
            {
              "pitch": 43,
              "velocity": 50,
              "position": 3.7708333333333335,
              "duration": 0.010416666666666666
            },
            {
              "pitch": 36,
              "velocity": 50,
              "position": 3.8854166666666665,
              "duration": 0.010416666666666666
            },
            {
              "pitch": 55,
              "velocity": 72,
              "position": 3.8854166666666665,
              "duration": 0.010416666666666666
            },
            {
              "pitch": 36,
              "velocity": 90,
              "position": 4,
              "duration": 0.010416666666666666
            },
            {
              "pitch": 44,
              "velocity": 80,
              "position": 4,
              "duration": 0.010416666666666666
            },
            {
              "pitch": 57,
              "velocity": 81,
              "position": 4,
              "duration": 0.010416666666666666
            },
            {
              "pitch": 40,
              "velocity": 30,
              "position": 4.104166666666667,
              "duration": 0.010416666666666666
            },
            {
              "pitch": 51,
              "velocity": 23,
              "position": 4.21875,
              "duration": 0.010416666666666666
            },
            {
              "pitch": 44,
              "velocity": 40,
              "position": 4.333333333333333,
              "duration": 0.010416666666666666
            },
            {
              "pitch": 51,
              "velocity": 79,
              "position": 4.333333333333333,
              "duration": 0.010416666666666666
            },
            {
              "pitch": 40,
              "velocity": 30,
              "position": 4.4375,
              "duration": 0.010416666666666666
            },
            {
              "pitch": 36,
              "velocity": 50,
              "position": 4.552083333333333,
              "duration": 0.010416666666666666
            },
            {
              "pitch": 51,
              "velocity": 21,
              "position": 4.552083333333333,
              "duration": 0.010416666666666666
            },
            {
              "pitch": 36,
              "velocity": 90,
              "position": 4.666666666666667,
              "duration": 0.010416666666666666
            },
            {
              "pitch": 44,
              "velocity": 60,
              "position": 4.666666666666667,
              "duration": 0.010416666666666666
            },
            {
              "pitch": 51,
              "velocity": 93,
              "position": 4.666666666666667,
              "duration": 0.010416666666666666
            },
            {
              "pitch": 40,
              "velocity": 30,
              "position": 4.770833333333333,
              "duration": 0.010416666666666666
            },
            {
              "pitch": 36,
              "velocity": 50,
              "position": 4.885416666666667,
              "duration": 0.010416666666666666
            },
            {
              "pitch": 51,
              "velocity": 23,
              "position": 4.885416666666667,
              "duration": 0.010416666666666666
            },
            {
              "pitch": 40,
              "velocity": 106,
              "position": 5,
              "duration": 0.010416666666666666
            },
            {
              "pitch": 44,
              "velocity": 80,
              "position": 5,
              "duration": 0.010416666666666666
            },
            {
              "pitch": 51,
              "velocity": 93,
              "position": 5,
              "duration": 0.010416666666666666
            },
            {
              "pitch": 40,
              "velocity": 30,
              "position": 5.104166666666667,
              "duration": 0.010416666666666666
            },
            {
              "pitch": 51,
              "velocity": 21,
              "position": 5.21875,
              "duration": 0.010416666666666666
            },
            {
              "pitch": 44,
              "velocity": 40,
              "position": 5.333333333333333,
              "duration": 0.010416666666666666
            },
            {
              "pitch": 51,
              "velocity": 79,
              "position": 5.333333333333333,
              "duration": 0.010416666666666666
            },
            {
              "pitch": 40,
              "velocity": 30,
              "position": 5.4375,
              "duration": 0.010416666666666666
            },
            {
              "pitch": 36,
              "velocity": 50,
              "position": 5.552083333333333,
              "duration": 0.010416666666666666
            },
            {
              "pitch": 51,
              "velocity": 23,
              "position": 5.552083333333333,
              "duration": 0.010416666666666666
            },
            {
              "pitch": 36,
              "velocity": 90,
              "position": 5.666666666666667,
              "duration": 0.010416666666666666
            },
            {
              "pitch": 44,
              "velocity": 60,
              "position": 5.666666666666667,
              "duration": 0.010416666666666666
            },
            {
              "pitch": 51,
              "velocity": 93,
              "position": 5.666666666666667,
              "duration": 0.010416666666666666
            },
            {
              "pitch": 40,
              "velocity": 30,
              "position": 5.770833333333333,
              "duration": 0.010416666666666666
            },
            {
              "pitch": 51,
              "velocity": 21,
              "position": 5.885416666666667,
              "duration": 0.010416666666666666
            },
            {
              "pitch": 36,
              "velocity": 90,
              "position": 6,
              "duration": 0.010416666666666666
            },
            {
              "pitch": 44,
              "velocity": 80,
              "position": 6,
              "duration": 0.010416666666666666
            },
            {
              "pitch": 51,
              "velocity": 93,
              "position": 6,
              "duration": 0.010416666666666666
            },
            {
              "pitch": 40,
              "velocity": 30,
              "position": 6.104166666666667,
              "duration": 0.010416666666666666
            },
            {
              "pitch": 51,
              "velocity": 23,
              "position": 6.21875,
              "duration": 0.010416666666666666
            },
            {
              "pitch": 44,
              "velocity": 40,
              "position": 6.333333333333333,
              "duration": 0.010416666666666666
            },
            {
              "pitch": 51,
              "velocity": 79,
              "position": 6.333333333333333,
              "duration": 0.010416666666666666
            },
            {
              "pitch": 40,
              "velocity": 40,
              "position": 6.5,
              "duration": 0.010416666666666666
            },
            {
              "pitch": 51,
              "velocity": 21,
              "position": 6.552083333333333,
              "duration": 0.010416666666666666
            },
            {
              "pitch": 40,
              "velocity": 60,
              "position": 6.583333333333333,
              "duration": 0.010416666666666666
            },
            {
              "pitch": 36,
              "velocity": 90,
              "position": 6.666666666666667,
              "duration": 0.010416666666666666
            },
            {
              "pitch": 40,
              "velocity": 106,
              "position": 6.666666666666667,
              "duration": 0.010416666666666666
            },
            {
              "pitch": 44,
              "velocity": 60,
              "position": 6.666666666666667,
              "duration": 0.010416666666666666
            },
            {
              "pitch": 51,
              "velocity": 93,
              "position": 6.666666666666667,
              "duration": 0.010416666666666666
            },
            {
              "pitch": 40,
              "velocity": 80,
              "position": 6.75,
              "duration": 0.010416666666666666
            },
            {
              "pitch": 40,
              "velocity": 40,
              "position": 6.833333333333333,
              "duration": 0.010416666666666666
            },
            {
              "pitch": 40,
              "velocity": 60,
              "position": 6.916666666666667,
              "duration": 0.010416666666666666
            },
            {
              "pitch": 40,
              "velocity": 106,
              "position": 7,
              "duration": 0.010416666666666666
            },
            {
              "pitch": 44,
              "velocity": 80,
              "position": 7,
              "duration": 0.010416666666666666
            },
            {
              "pitch": 40,
              "velocity": 84,
              "position": 7.083333333333333,
              "duration": 0.010416666666666666
            },
            {
              "pitch": 47,
              "velocity": 40,
              "position": 7.166666666666667,
              "duration": 0.010416666666666666
            },
            {
              "pitch": 47,
              "velocity": 61,
              "position": 7.25,
              "duration": 0.010416666666666666
            },
            {
              "pitch": 36,
              "velocity": 90,
              "position": 7.333333333333333,
              "duration": 0.010416666666666666
            },
            {
              "pitch": 44,
              "velocity": 40,
              "position": 7.333333333333333,
              "duration": 0.010416666666666666
            },
            {
              "pitch": 47,
              "velocity": 80,
              "position": 7.333333333333333,
              "duration": 0.010416666666666666
            },
            {
              "pitch": 47,
              "velocity": 61,
              "position": 7.416666666666667,
              "duration": 0.010416666666666666
            },
            {
              "pitch": 45,
              "velocity": 30,
              "position": 7.5,
              "duration": 0.010416666666666666
            },
            {
              "pitch": 45,
              "velocity": 51,
              "position": 7.583333333333333,
              "duration": 0.010416666666666666
            },
            {
              "pitch": 36,
              "velocity": 90,
              "position": 7.666666666666667,
              "duration": 0.010416666666666666
            },
            {
              "pitch": 44,
              "velocity": 60,
              "position": 7.666666666666667,
              "duration": 0.010416666666666666
            },
            {
              "pitch": 45,
              "velocity": 80,
              "position": 7.666666666666667,
              "duration": 0.010416666666666666
            },
            {
              "pitch": 45,
              "velocity": 51,
              "position": 7.75,
              "duration": 0.010416666666666666
            },
            {
              "pitch": 43,
              "velocity": 90,
              "position": 7.833333333333333,
              "duration": 0.010416666666666666
            },
            {
              "pitch": 43,
              "velocity": 51,
              "position": 7.916666666666667,
              "duration": 0.010416666666666666
            },
            {
              "pitch": 36,
              "velocity": 90,
              "position": 8,
              "duration": 0.010416666666666666
            },
            {
              "pitch": 44,
              "velocity": 80,
              "position": 8,
              "duration": 0.010416666666666666
            },
            {
              "pitch": 49,
              "velocity": 80,
              "position": 8,
              "duration": 0.010416666666666666
            },
            {
              "pitch": 40,
              "velocity": 55,
              "position": 8.21875,
              "duration": 0.010416666666666666
            },
            {
              "pitch": 40,
              "velocity": 30,
              "position": 8.270833333333334,
              "duration": 0.010416666666666666
            },
            {
              "pitch": 44,
              "velocity": 40,
              "position": 8.333333333333334,
              "duration": 0.010416666666666666
            },
            {
              "pitch": 51,
              "velocity": 79,
              "position": 8.333333333333334,
              "duration": 0.010416666666666666
            },
            {
              "pitch": 40,
              "velocity": 30,
              "position": 8.4375,
              "duration": 0.010416666666666666
            },
            {
              "pitch": 36,
              "velocity": 50,
              "position": 8.552083333333334,
              "duration": 0.010416666666666666
            },
            {
              "pitch": 51,
              "velocity": 21,
              "position": 8.552083333333334,
              "duration": 0.010416666666666666
            },
            {
              "pitch": 36,
              "velocity": 90,
              "position": 8.666666666666666,
              "duration": 0.010416666666666666
            },
            {
              "pitch": 44,
              "velocity": 60,
              "position": 8.666666666666666,
              "duration": 0.010416666666666666
            },
            {
              "pitch": 51,
              "velocity": 93,
              "position": 8.666666666666666,
              "duration": 0.010416666666666666
            },
            {
              "pitch": 40,
              "velocity": 25,
              "position": 8.770833333333334,
              "duration": 0.010416666666666666
            },
            {
              "pitch": 36,
              "velocity": 50,
              "position": 8.885416666666666,
              "duration": 0.010416666666666666
            },
            {
              "pitch": 51,
              "velocity": 23,
              "position": 8.885416666666666,
              "duration": 0.010416666666666666
            },
            {
              "pitch": 40,
              "velocity": 106,
              "position": 9,
              "duration": 0.010416666666666666
            },
            {
              "pitch": 44,
              "velocity": 80,
              "position": 9,
              "duration": 0.010416666666666666
            },
            {
              "pitch": 57,
              "velocity": 60,
              "position": 9,
              "duration": 0.010416666666666666
            },
            {
              "pitch": 40,
              "velocity": 55,
              "position": 9.21875,
              "duration": 0.010416666666666666
            },
            {
              "pitch": 40,
              "velocity": 30,
              "position": 9.270833333333334,
              "duration": 0.010416666666666666
            },
            {
              "pitch": 44,
              "velocity": 40,
              "position": 9.333333333333334,
              "duration": 0.010416666666666666
            },
            {
              "pitch": 51,
              "velocity": 79,
              "position": 9.333333333333334,
              "duration": 0.010416666666666666
            },
            {
              "pitch": 40,
              "velocity": 30,
              "position": 9.4375,
              "duration": 0.010416666666666666
            },
            {
              "pitch": 36,
              "velocity": 50,
              "position": 9.552083333333334,
              "duration": 0.010416666666666666
            },
            {
              "pitch": 51,
              "velocity": 21,
              "position": 9.552083333333334,
              "duration": 0.010416666666666666
            },
            {
              "pitch": 36,
              "velocity": 90,
              "position": 9.666666666666666,
              "duration": 0.010416666666666666
            },
            {
              "pitch": 44,
              "velocity": 60,
              "position": 9.666666666666666,
              "duration": 0.010416666666666666
            },
            {
              "pitch": 51,
              "velocity": 93,
              "position": 9.666666666666666,
              "duration": 0.010416666666666666
            },
            {
              "pitch": 40,
              "velocity": 25,
              "position": 9.770833333333334,
              "duration": 0.010416666666666666
            },
            {
              "pitch": 36,
              "velocity": 50,
              "position": 9.885416666666666,
              "duration": 0.010416666666666666
            },
            {
              "pitch": 51,
              "velocity": 23,
              "position": 9.885416666666666,
              "duration": 0.010416666666666666
            },
            {
              "pitch": 36,
              "velocity": 90,
              "position": 10,
              "duration": 0.010416666666666666
            },
            {
              "pitch": 44,
              "velocity": 80,
              "position": 10,
              "duration": 0.010416666666666666
            },
            {
              "pitch": 49,
              "velocity": 60,
              "position": 10,
              "duration": 0.010416666666666666
            },
            {
              "pitch": 40,
              "velocity": 55,
              "position": 10.21875,
              "duration": 0.010416666666666666
            },
            {
              "pitch": 40,
              "velocity": 30,
              "position": 10.270833333333334,
              "duration": 0.010416666666666666
            },
            {
              "pitch": 44,
              "velocity": 40,
              "position": 10.333333333333334,
              "duration": 0.010416666666666666
            },
            {
              "pitch": 51,
              "velocity": 79,
              "position": 10.333333333333334,
              "duration": 0.010416666666666666
            },
            {
              "pitch": 40,
              "velocity": 30,
              "position": 10.4375,
              "duration": 0.010416666666666666
            },
            {
              "pitch": 36,
              "velocity": 50,
              "position": 10.552083333333334,
              "duration": 0.010416666666666666
            },
            {
              "pitch": 51,
              "velocity": 21,
              "position": 10.552083333333334,
              "duration": 0.010416666666666666
            },
            {
              "pitch": 36,
              "velocity": 90,
              "position": 10.666666666666666,
              "duration": 0.010416666666666666
            },
            {
              "pitch": 44,
              "velocity": 60,
              "position": 10.666666666666666,
              "duration": 0.010416666666666666
            },
            {
              "pitch": 51,
              "velocity": 93,
              "position": 10.666666666666666,
              "duration": 0.010416666666666666
            },
            {
              "pitch": 40,
              "velocity": 37,
              "position": 10.770833333333334,
              "duration": 0.010416666666666666
            },
            {
              "pitch": 36,
              "velocity": 50,
              "position": 10.885416666666666,
              "duration": 0.010416666666666666
            },
            {
              "pitch": 40,
              "velocity": 73,
              "position": 10.885416666666666,
              "duration": 0.010416666666666666
            },
            {
              "pitch": 51,
              "velocity": 23,
              "position": 10.885416666666666,
              "duration": 0.010416666666666666
            },
            {
              "pitch": 36,
              "velocity": 90,
              "position": 11,
              "duration": 0.010416666666666666
            },
            {
              "pitch": 40,
              "velocity": 106,
              "position": 11,
              "duration": 0.010416666666666666
            },
            {
              "pitch": 44,
              "velocity": 80,
              "position": 11,
              "duration": 0.010416666666666666
            },
            {
              "pitch": 57,
              "velocity": 60,
              "position": 11,
              "duration": 0.010416666666666666
            },
            {
              "pitch": 40,
              "velocity": 46,
              "position": 11.104166666666666,
              "duration": 0.010416666666666666
            },
            {
              "pitch": 40,
              "velocity": 84,
              "position": 11.21875,
              "duration": 0.010416666666666666
            },
            {
              "pitch": 36,
              "velocity": 90,
              "position": 11.333333333333334,
              "duration": 0.010416666666666666
            },
            {
              "pitch": 40,
              "velocity": 106,
              "position": 11.333333333333334,
              "duration": 0.010416666666666666
            },
            {
              "pitch": 44,
              "velocity": 40,
              "position": 11.333333333333334,
              "duration": 0.010416666666666666
            },
            {
              "pitch": 40,
              "velocity": 64,
              "position": 11.4375,
              "duration": 0.010416666666666666
            },
            {
              "pitch": 40,
              "velocity": 84,
              "position": 11.552083333333334,
              "duration": 0.010416666666666666
            },
            {
              "pitch": 36,
              "velocity": 90,
              "position": 11.666666666666666,
              "duration": 0.010416666666666666
            },
            {
              "pitch": 40,
              "velocity": 54,
              "position": 11.666666666666666,
              "duration": 0.010416666666666666
            },
            {
              "pitch": 44,
              "velocity": 60,
              "position": 11.666666666666666,
              "duration": 0.010416666666666666
            },
            {
              "pitch": 40,
              "velocity": 76,
              "position": 11.770833333333334,
              "duration": 0.010416666666666666
            },
            {
              "pitch": 40,
              "velocity": 90,
              "position": 11.885416666666666,
              "duration": 0.010416666666666666
            },
            {
              "pitch": 40,
              "velocity": 106,
              "position": 12,
              "duration": 0.010416666666666666
            },
            {
              "pitch": 44,
              "velocity": 80,
              "position": 12,
              "duration": 0.010416666666666666
            },
            {
              "pitch": 40,
              "velocity": 106,
              "position": 12.020833333333334,
              "duration": 0.010416666666666666
            },
            {
              "pitch": 36,
              "velocity": 61,
              "position": 12.333333333333334,
              "duration": 0.010416666666666666
            },
            {
              "pitch": 36,
              "velocity": 75,
              "position": 12.666666666666666,
              "duration": 0.010416666666666666
            },
            {
              "pitch": 36,
              "velocity": 90,
              "position": 13,
              "duration": 0.010416666666666666
            },
            {
              "pitch": 40,
              "velocity": 100,
              "position": 13,
              "duration": 0.010416666666666666
            },
            {
              "pitch": 44,
              "velocity": 80,
              "position": 13,
              "duration": 0.010416666666666666
            },
            {
              "pitch": 57,
              "velocity": 73,
              "position": 13,
              "duration": 0.010416666666666666
            },
            {
              "pitch": 36,
              "velocity": 91,
              "position": 13.666666666666666,
              "duration": 0.010416666666666666
            },
            {
              "pitch": 40,
              "velocity": 100,
              "position": 13.666666666666666,
              "duration": 0.010416666666666666
            },
            {
              "pitch": 44,
              "velocity": 80,
              "position": 13.666666666666666,
              "duration": 0.010416666666666666
            },
            {
              "pitch": 49,
              "velocity": 75,
              "position": 13.666666666666666,
              "duration": 0.010416666666666666
            },
            {
              "pitch": 49,
              "velocity": 10,
              "position": 14.333333333333334,
              "duration": 0.010416666666666666
            },
            {
              "pitch": 57,
              "velocity": 11,
              "position": 14.375,
              "duration": 0.010416666666666666
            },
            {
              "pitch": 49,
              "velocity": 13,
              "position": 14.416666666666666,
              "duration": 0.010416666666666666
            },
            {
              "pitch": 57,
              "velocity": 14,
              "position": 14.458333333333334,
              "duration": 0.010416666666666666
            },
            {
              "pitch": 49,
              "velocity": 15,
              "position": 14.5,
              "duration": 0.010416666666666666
            },
            {
              "pitch": 57,
              "velocity": 16,
              "position": 14.541666666666666,
              "duration": 0.010416666666666666
            },
            {
              "pitch": 49,
              "velocity": 17,
              "position": 14.583333333333334,
              "duration": 0.010416666666666666
            },
            {
              "pitch": 57,
              "velocity": 18,
              "position": 14.625,
              "duration": 0.010416666666666666
            },
            {
              "pitch": 49,
              "velocity": 20,
              "position": 14.666666666666666,
              "duration": 0.010416666666666666
            },
            {
              "pitch": 57,
              "velocity": 21,
              "position": 14.708333333333334,
              "duration": 0.010416666666666666
            },
            {
              "pitch": 49,
              "velocity": 22,
              "position": 14.75,
              "duration": 0.010416666666666666
            },
            {
              "pitch": 57,
              "velocity": 23,
              "position": 14.791666666666666,
              "duration": 0.010416666666666666
            },
            {
              "pitch": 49,
              "velocity": 24,
              "position": 14.833333333333334,
              "duration": 0.010416666666666666
            },
            {
              "pitch": 57,
              "velocity": 26,
              "position": 14.875,
              "duration": 0.010416666666666666
            },
            {
              "pitch": 49,
              "velocity": 27,
              "position": 14.916666666666666,
              "duration": 0.010416666666666666
            },
            {
              "pitch": 57,
              "velocity": 28,
              "position": 14.958333333333334,
              "duration": 0.010416666666666666
            },
            {
              "pitch": 49,
              "velocity": 29,
              "position": 15,
              "duration": 0.010416666666666666
            },
            {
              "pitch": 57,
              "velocity": 30,
              "position": 15.041666666666666,
              "duration": 0.010416666666666666
            },
            {
              "pitch": 49,
              "velocity": 31,
              "position": 15.083333333333334,
              "duration": 0.010416666666666666
            },
            {
              "pitch": 57,
              "velocity": 33,
              "position": 15.125,
              "duration": 0.010416666666666666
            },
            {
              "pitch": 49,
              "velocity": 34,
              "position": 15.166666666666666,
              "duration": 0.010416666666666666
            },
            {
              "pitch": 57,
              "velocity": 35,
              "position": 15.208333333333334,
              "duration": 0.010416666666666666
            },
            {
              "pitch": 49,
              "velocity": 36,
              "position": 15.25,
              "duration": 0.010416666666666666
            },
            {
              "pitch": 57,
              "velocity": 37,
              "position": 15.291666666666666,
              "duration": 0.010416666666666666
            },
            {
              "pitch": 49,
              "velocity": 39,
              "position": 15.333333333333334,
              "duration": 0.010416666666666666
            },
            {
              "pitch": 57,
              "velocity": 40,
              "position": 15.375,
              "duration": 0.010416666666666666
            },
            {
              "pitch": 49,
              "velocity": 41,
              "position": 15.416666666666666,
              "duration": 0.010416666666666666
            },
            {
              "pitch": 57,
              "velocity": 42,
              "position": 15.458333333333334,
              "duration": 0.010416666666666666
            },
            {
              "pitch": 49,
              "velocity": 43,
              "position": 15.5,
              "duration": 0.010416666666666666
            },
            {
              "pitch": 57,
              "velocity": 44,
              "position": 15.541666666666666,
              "duration": 0.010416666666666666
            },
            {
              "pitch": 49,
              "velocity": 46,
              "position": 15.583333333333334,
              "duration": 0.010416666666666666
            },
            {
              "pitch": 57,
              "velocity": 47,
              "position": 15.625,
              "duration": 0.010416666666666666
            },
            {
              "pitch": 49,
              "velocity": 48,
              "position": 15.666666666666666,
              "duration": 0.010416666666666666
            },
            {
              "pitch": 57,
              "velocity": 49,
              "position": 15.708333333333334,
              "duration": 0.010416666666666666
            },
            {
              "pitch": 49,
              "velocity": 50,
              "position": 15.75,
              "duration": 0.010416666666666666
            },
            {
              "pitch": 57,
              "velocity": 51,
              "position": 15.791666666666666,
              "duration": 0.010416666666666666
            },
            {
              "pitch": 40,
              "velocity": 62,
              "position": 16.5,
              "duration": 0.010416666666666666
            },
            {
              "pitch": 40,
              "velocity": 106,
              "position": 16.583333333333332,
              "duration": 0.010416666666666666
            },
            {
              "pitch": 36,
              "velocity": 90,
              "position": 16.666666666666668,
              "duration": 0.010416666666666666
            },
            {
              "pitch": 44,
              "velocity": 80,
              "position": 16.666666666666668,
              "duration": 0.010416666666666666
            }
          ]
        },
        "10": {
          "ctab": {
            "srcChannel": 10,
            "name": "Bass",
            "accType": "BASS",
            "editable": false,
            "mutedNotes": [],
            "mutedChords": [
              "dim7",
              "dim",
              "minMaj7(9)",
              "minMaj7",
              "min7(11)",
              "min7(9)",
              "min(9)",
              "m7b5",
              "min7",
              "min6",
              "min"
            ],
            "autoStart": false,
            "sourceChordNote": 0,
            "sourceChordType": "Maj7",
            "ctb2Low": null,
            "ctb2Main": {
              "ntr": "ROOT_TRANSPOSITION",
              "ntt": "BYPASS",
              "bassOn": false,
              "chordRootUpperLimit": 8,
              "noteLowLimit": 28,
              "noteHighLimit": 127,
              "rtr": "PITCH_SHIFT"
            },
            "ctb2High": null
          },
          "notes": [
            {
              "pitch": 29,
              "velocity": 100,
              "position": 0,
              "duration": 0.4895833333333333
            },
            {
              "pitch": 41,
              "velocity": 80,
              "position": 0.5520833333333334,
              "duration": 0.03125
            },
            {
              "pitch": 29,
              "velocity": 100,
              "position": 0.6666666666666666,
              "duration": 0.2708333333333333
            },
            {
              "pitch": 33,
              "velocity": 100,
              "position": 1,
              "duration": 0.4895833333333333
            },
            {
              "pitch": 41,
              "velocity": 80,
              "position": 1.5520833333333333,
              "duration": 0.03125
            },
            {
              "pitch": 33,
              "velocity": 100,
              "position": 1.6666666666666667,
              "duration": 0.2708333333333333
            },
            {
              "pitch": 36,
              "velocity": 100,
              "position": 2,
              "duration": 0.4895833333333333
            },
            {
              "pitch": 36,
              "velocity": 80,
              "position": 2.5520833333333335,
              "duration": 0.03125
            },
            {
              "pitch": 36,
              "velocity": 100,
              "position": 2.6666666666666665,
              "duration": 0.2708333333333333
            },
            {
              "pitch": 41,
              "velocity": 100,
              "position": 3,
              "duration": 0.21875
            },
            {
              "pitch": 36,
              "velocity": 80,
              "position": 3.21875,
              "duration": 0.10416666666666667
            },
            {
              "pitch": 29,
              "velocity": 100,
              "position": 3.3333333333333335,
              "duration": 0.2708333333333333
            },
            {
              "pitch": 31,
              "velocity": 100,
              "position": 3.6666666666666665,
              "duration": 0.2708333333333333
            },
            {
              "pitch": 32,
              "velocity": 100,
              "position": 4,
              "duration": 0.4895833333333333
            },
            {
              "pitch": 27,
              "velocity": 80,
              "position": 4.552083333333333,
              "duration": 0.03125
            },
            {
              "pitch": 32,
              "velocity": 100,
              "position": 4.666666666666667,
              "duration": 0.2708333333333333
            },
            {
              "pitch": 36,
              "velocity": 100,
              "position": 5,
              "duration": 0.4895833333333333
            },
            {
              "pitch": 27,
              "velocity": 80,
              "position": 5.552083333333333,
              "duration": 0.03125
            },
            {
              "pitch": 36,
              "velocity": 100,
              "position": 5.666666666666667,
              "duration": 0.2708333333333333
            },
            {
              "pitch": 39,
              "velocity": 100,
              "position": 6,
              "duration": 0.2708333333333333
            },
            {
              "pitch": 36,
              "velocity": 100,
              "position": 6.333333333333333,
              "duration": 0.2708333333333333
            },
            {
              "pitch": 34,
              "velocity": 100,
              "position": 6.666666666666667,
              "duration": 0.2708333333333333
            },
            {
              "pitch": 32,
              "velocity": 100,
              "position": 7,
              "duration": 0.15625
            },
            {
              "pitch": 27,
              "velocity": 80,
              "position": 7.21875,
              "duration": 0.03125
            },
            {
              "pitch": 34,
              "velocity": 100,
              "position": 7.333333333333333,
              "duration": 0.2708333333333333
            },
            {
              "pitch": 35,
              "velocity": 100,
              "position": 7.666666666666667,
              "duration": 0.2708333333333333
            },
            {
              "pitch": 36,
              "velocity": 100,
              "position": 8,
              "duration": 0.4895833333333333
            },
            {
              "pitch": 31,
              "velocity": 80,
              "position": 8.552083333333334,
              "duration": 0.03125
            },
            {
              "pitch": 36,
              "velocity": 100,
              "position": 8.666666666666666,
              "duration": 0.2708333333333333
            },
            {
              "pitch": 28,
              "velocity": 100,
              "position": 9,
              "duration": 0.4895833333333333
            },
            {
              "pitch": 36,
              "velocity": 80,
              "position": 9.552083333333334,
              "duration": 0.03125
            },
            {
              "pitch": 28,
              "velocity": 100,
              "position": 9.666666666666666,
              "duration": 0.2708333333333333
            },
            {
              "pitch": 29,
              "velocity": 100,
              "position": 10,
              "duration": 0.4895833333333333
            },
            {
              "pitch": 36,
              "velocity": 80,
              "position": 10.552083333333334,
              "duration": 0.03125
            },
            {
              "pitch": 29,
              "velocity": 100,
              "position": 10.666666666666666,
              "duration": 0.2708333333333333
            },
            {
              "pitch": 30,
              "velocity": 100,
              "position": 11,
              "duration": 0.4895833333333333
            },
            {
              "pitch": 36,
              "velocity": 80,
              "position": 11.552083333333334,
              "duration": 0.03125
            },
            {
              "pitch": 30,
              "velocity": 100,
              "position": 11.666666666666666,
              "duration": 0.2708333333333333
            },
            {
              "pitch": 31,
              "velocity": 100,
              "position": 12,
              "duration": 0.2708333333333333
            },
            {
              "pitch": 31,
              "velocity": 100,
              "position": 13,
              "duration": 0.6041666666666666
            },
            {
              "pitch": 24,
              "velocity": 100,
              "position": 13.666666666666666,
              "duration": 2.9895833333333335
            }
          ]
        },
        "11": {
          "ctab": {
            "srcChannel": 11,
            "name": "60sCln",
            "accType": "CHORD1",
            "editable": false,
            "mutedNotes": [],
            "mutedChords": [
              "dim7",
              "dim",
              "minMaj7(9)",
              "minMaj7",
              "min7(11)",
              "min7(9)",
              "min(9)",
              "m7b5",
              "min7",
              "min6",
              "min"
            ],
            "autoStart": false,
            "sourceChordNote": 0,
            "sourceChordType": "Maj7",
            "ctb2Low": null,
            "ctb2Main": {
              "ntr": "ROOT_TRANSPOSITION",
              "ntt": "BYPASS",
              "bassOn": false,
              "chordRootUpperLimit": 8,
              "noteLowLimit": 0,
              "noteHighLimit": 127,
              "rtr": "PITCH_SHIFT"
            },
            "ctb2High": null
          },
          "notes": [
            {
              "pitch": 57,
              "velocity": 80,
              "position": 0,
              "duration": 0.3229166666666667
            },
            {
              "pitch": 63,
              "velocity": 80,
              "position": 0,
              "duration": 0.32916666666666666
            },
            {
              "pitch": 67,
              "velocity": 80,
              "position": 0.010416666666666666,
              "duration": 0.3229166666666667
            },
            {
              "pitch": 72,
              "velocity": 80,
              "position": 0.020833333333333332,
              "duration": 0.3229166666666667
            },
            {
              "pitch": 57,
              "velocity": 40,
              "position": 0.3333333333333333,
              "duration": 0.3229166666666667
            },
            {
              "pitch": 63,
              "velocity": 40,
              "position": 0.3333333333333333,
              "duration": 0.32916666666666666
            },
            {
              "pitch": 67,
              "velocity": 40,
              "position": 0.34375,
              "duration": 0.3229166666666667
            },
            {
              "pitch": 72,
              "velocity": 40,
              "position": 0.3541666666666667,
              "duration": 0.3229166666666667
            },
            {
              "pitch": 57,
              "velocity": 60,
              "position": 0.6666666666666666,
              "duration": 0.3229166666666667
            },
            {
              "pitch": 63,
              "velocity": 60,
              "position": 0.6666666666666666,
              "duration": 0.32916666666666666
            },
            {
              "pitch": 67,
              "velocity": 60,
              "position": 0.6770833333333334,
              "duration": 0.3229166666666667
            },
            {
              "pitch": 72,
              "velocity": 60,
              "position": 0.6875,
              "duration": 0.3229166666666667
            },
            {
              "pitch": 57,
              "velocity": 100,
              "position": 1,
              "duration": 0.08333333333333333
            },
            {
              "pitch": 63,
              "velocity": 100,
              "position": 1,
              "duration": 0.08333333333333333
            },
            {
              "pitch": 67,
              "velocity": 100,
              "position": 1.0104166666666667,
              "duration": 0.08333333333333333
            },
            {
              "pitch": 72,
              "velocity": 100,
              "position": 1.0208333333333333,
              "duration": 0.08333333333333333
            },
            {
              "pitch": 57,
              "velocity": 60,
              "position": 1.3333333333333333,
              "duration": 0.010416666666666666
            },
            {
              "pitch": 63,
              "velocity": 60,
              "position": 1.3333333333333333,
              "duration": 0.010416666666666666
            },
            {
              "pitch": 67,
              "velocity": 60,
              "position": 1.34375,
              "duration": 0.010416666666666666
            },
            {
              "pitch": 72,
              "velocity": 60,
              "position": 1.3541666666666667,
              "duration": 0.010416666666666666
            },
            {
              "pitch": 57,
              "velocity": 80,
              "position": 1.6666666666666667,
              "duration": 0.65625
            },
            {
              "pitch": 63,
              "velocity": 80,
              "position": 1.6666666666666667,
              "duration": 0.6625
            },
            {
              "pitch": 67,
              "velocity": 80,
              "position": 1.6770833333333333,
              "duration": 0.65625
            },
            {
              "pitch": 72,
              "velocity": 80,
              "position": 1.6875,
              "duration": 0.65625
            },
            {
              "pitch": 57,
              "velocity": 40,
              "position": 2.3333333333333335,
              "duration": 0.3229166666666667
            },
            {
              "pitch": 63,
              "velocity": 40,
              "position": 2.3333333333333335,
              "duration": 0.32916666666666666
            },
            {
              "pitch": 67,
              "velocity": 40,
              "position": 2.34375,
              "duration": 0.3229166666666667
            },
            {
              "pitch": 72,
              "velocity": 40,
              "position": 2.3541666666666665,
              "duration": 0.3229166666666667
            },
            {
              "pitch": 57,
              "velocity": 60,
              "position": 2.6666666666666665,
              "duration": 0.3229166666666667
            },
            {
              "pitch": 63,
              "velocity": 60,
              "position": 2.6666666666666665,
              "duration": 0.32916666666666666
            },
            {
              "pitch": 67,
              "velocity": 60,
              "position": 2.6770833333333335,
              "duration": 0.3229166666666667
            },
            {
              "pitch": 72,
              "velocity": 60,
              "position": 2.6875,
              "duration": 0.3229166666666667
            },
            {
              "pitch": 57,
              "velocity": 100,
              "position": 3,
              "duration": 0.08333333333333333
            },
            {
              "pitch": 63,
              "velocity": 100,
              "position": 3,
              "duration": 0.08333333333333333
            },
            {
              "pitch": 67,
              "velocity": 100,
              "position": 3.0104166666666665,
              "duration": 0.08333333333333333
            },
            {
              "pitch": 72,
              "velocity": 100,
              "position": 3.0208333333333335,
              "duration": 0.08333333333333333
            },
            {
              "pitch": 57,
              "velocity": 80,
              "position": 3.3333333333333335,
              "duration": 0.3229166666666667
            },
            {
              "pitch": 63,
              "velocity": 80,
              "position": 3.3333333333333335,
              "duration": 0.3333333333333333
            },
            {
              "pitch": 67,
              "velocity": 80,
              "position": 3.34375,
              "duration": 0.3229166666666667
            },
            {
              "pitch": 72,
              "velocity": 80,
              "position": 3.3541666666666665,
              "duration": 0.3229166666666667
            },
            {
              "pitch": 62,
              "velocity": 80,
              "position": 3.6666666666666665,
              "duration": 0.3333333333333333
            },
            {
              "pitch": 65,
              "velocity": 80,
              "position": 3.6770833333333335,
              "duration": 0.3229166666666667
            },
            {
              "pitch": 70,
              "velocity": 80,
              "position": 3.6875,
              "duration": 0.3229166666666667
            },
            {
              "pitch": 56,
              "velocity": 80,
              "position": 4,
              "duration": 0.3229166666666667
            },
            {
              "pitch": 63,
              "velocity": 80,
              "position": 4,
              "duration": 0.32916666666666666
            },
            {
              "pitch": 66,
              "velocity": 80,
              "position": 4.010416666666667,
              "duration": 0.3229166666666667
            },
            {
              "pitch": 72,
              "velocity": 80,
              "position": 4.010416666666667,
              "duration": 0.3229166666666667
            },
            {
              "pitch": 56,
              "velocity": 40,
              "position": 4.333333333333333,
              "duration": 0.3229166666666667
            },
            {
              "pitch": 63,
              "velocity": 40,
              "position": 4.333333333333333,
              "duration": 0.32916666666666666
            },
            {
              "pitch": 66,
              "velocity": 40,
              "position": 4.34375,
              "duration": 0.3229166666666667
            },
            {
              "pitch": 72,
              "velocity": 40,
              "position": 4.354166666666667,
              "duration": 0.3229166666666667
            },
            {
              "pitch": 56,
              "velocity": 60,
              "position": 4.666666666666667,
              "duration": 0.3229166666666667
            },
            {
              "pitch": 63,
              "velocity": 60,
              "position": 4.666666666666667,
              "duration": 0.32916666666666666
            },
            {
              "pitch": 66,
              "velocity": 60,
              "position": 4.677083333333333,
              "duration": 0.3229166666666667
            },
            {
              "pitch": 72,
              "velocity": 60,
              "position": 4.6875,
              "duration": 0.3229166666666667
            },
            {
              "pitch": 56,
              "velocity": 100,
              "position": 5,
              "duration": 0.08333333333333333
            },
            {
              "pitch": 63,
              "velocity": 100,
              "position": 5,
              "duration": 0.08333333333333333
            },
            {
              "pitch": 66,
              "velocity": 100,
              "position": 5.010416666666667,
              "duration": 0.08333333333333333
            },
            {
              "pitch": 72,
              "velocity": 100,
              "position": 5.020833333333333,
              "duration": 0.08333333333333333
            },
            {
              "pitch": 56,
              "velocity": 80,
              "position": 5.333333333333333,
              "duration": 0.3229166666666667
            },
            {
              "pitch": 63,
              "velocity": 80,
              "position": 5.333333333333333,
              "duration": 0.32916666666666666
            },
            {
              "pitch": 66,
              "velocity": 80,
              "position": 5.34375,
              "duration": 0.3229166666666667
            },
            {
              "pitch": 72,
              "velocity": 80,
              "position": 5.354166666666667,
              "duration": 0.3229166666666667
            },
            {
              "pitch": 56,
              "velocity": 40,
              "position": 5.666666666666667,
              "duration": 0.3229166666666667
            },
            {
              "pitch": 63,
              "velocity": 40,
              "position": 5.666666666666667,
              "duration": 0.32916666666666666
            },
            {
              "pitch": 66,
              "velocity": 40,
              "position": 5.677083333333333,
              "duration": 0.3229166666666667
            },
            {
              "pitch": 56,
              "velocity": 100,
              "position": 6,
              "duration": 0.010416666666666666
            },
            {
              "pitch": 72,
              "velocity": 40,
              "position": 5.6875,
              "duration": 0.3229166666666667
            },
            {
              "pitch": 63,
              "velocity": 100,
              "position": 6,
              "duration": 0.020833333333333332
            },
            {
              "pitch": 66,
              "velocity": 100,
              "position": 6.010416666666667,
              "duration": 0.010416666666666666
            },
            {
              "pitch": 72,
              "velocity": 100,
              "position": 6.020833333333333,
              "duration": 0.010416666666666666
            },
            {
              "pitch": 56,
              "velocity": 40,
              "position": 6.333333333333333,
              "duration": 0.3229166666666667
            },
            {
              "pitch": 63,
              "velocity": 40,
              "position": 6.333333333333333,
              "duration": 0.32916666666666666
            },
            {
              "pitch": 66,
              "velocity": 40,
              "position": 6.34375,
              "duration": 0.3229166666666667
            },
            {
              "pitch": 72,
              "velocity": 40,
              "position": 6.354166666666667,
              "duration": 0.3229166666666667
            },
            {
              "pitch": 56,
              "velocity": 60,
              "position": 6.666666666666667,
              "duration": 0.3229166666666667
            },
            {
              "pitch": 63,
              "velocity": 60,
              "position": 6.666666666666667,
              "duration": 0.32916666666666666
            },
            {
              "pitch": 66,
              "velocity": 60,
              "position": 6.677083333333333,
              "duration": 0.3229166666666667
            },
            {
              "pitch": 72,
              "velocity": 60,
              "position": 6.6875,
              "duration": 0.3229166666666667
            },
            {
              "pitch": 56,
              "velocity": 100,
              "position": 7,
              "duration": 0.08333333333333333
            },
            {
              "pitch": 63,
              "velocity": 100,
              "position": 7,
              "duration": 0.08333333333333333
            },
            {
              "pitch": 66,
              "velocity": 100,
              "position": 7.010416666666667,
              "duration": 0.08333333333333333
            },
            {
              "pitch": 72,
              "velocity": 100,
              "position": 7.020833333333333,
              "duration": 0.08333333333333333
            },
            {
              "pitch": 58,
              "velocity": 60,
              "position": 7.21875,
              "duration": 0.010416666666666666
            },
            {
              "pitch": 64,
              "velocity": 60,
              "position": 7.229166666666667,
              "duration": 0.010416666666666666
            },
            {
              "pitch": 58,
              "velocity": 100,
              "position": 7.333333333333333,
              "duration": 0.3229166666666667
            },
            {
              "pitch": 62,
              "velocity": 100,
              "position": 7.333333333333333,
              "duration": 0.3229166666666667
            },
            {
              "pitch": 65,
              "velocity": 100,
              "position": 7.34375,
              "duration": 0.3229166666666667
            },
            {
              "pitch": 59,
              "velocity": 80,
              "position": 7.666666666666667,
              "duration": 0.3229166666666667
            },
            {
              "pitch": 63,
              "velocity": 80,
              "position": 7.666666666666667,
              "duration": 0.3333333333333333
            },
            {
              "pitch": 66,
              "velocity": 80,
              "position": 7.677083333333333,
              "duration": 0.3229166666666667
            },
            {
              "pitch": 58,
              "velocity": 80,
              "position": 8,
              "duration": 0.3229166666666667
            },
            {
              "pitch": 64,
              "velocity": 80,
              "position": 8,
              "duration": 0.32916666666666666
            },
            {
              "pitch": 67,
              "velocity": 80,
              "position": 8.010416666666666,
              "duration": 0.3229166666666667
            },
            {
              "pitch": 72,
              "velocity": 80,
              "position": 8.020833333333334,
              "duration": 0.3229166666666667
            },
            {
              "pitch": 58,
              "velocity": 40,
              "position": 8.333333333333334,
              "duration": 0.3229166666666667
            },
            {
              "pitch": 64,
              "velocity": 40,
              "position": 8.333333333333334,
              "duration": 0.32916666666666666
            },
            {
              "pitch": 67,
              "velocity": 40,
              "position": 8.34375,
              "duration": 0.3229166666666667
            },
            {
              "pitch": 72,
              "velocity": 40,
              "position": 8.354166666666666,
              "duration": 0.3229166666666667
            },
            {
              "pitch": 58,
              "velocity": 60,
              "position": 8.666666666666666,
              "duration": 0.3229166666666667
            },
            {
              "pitch": 64,
              "velocity": 60,
              "position": 8.666666666666666,
              "duration": 0.32916666666666666
            },
            {
              "pitch": 67,
              "velocity": 60,
              "position": 8.677083333333334,
              "duration": 0.3229166666666667
            },
            {
              "pitch": 72,
              "velocity": 60,
              "position": 8.6875,
              "duration": 0.3229166666666667
            },
            {
              "pitch": 58,
              "velocity": 80,
              "position": 9,
              "duration": 0.3229166666666667
            },
            {
              "pitch": 64,
              "velocity": 80,
              "position": 9,
              "duration": 0.32916666666666666
            },
            {
              "pitch": 67,
              "velocity": 80,
              "position": 9.010416666666666,
              "duration": 0.3229166666666667
            },
            {
              "pitch": 72,
              "velocity": 80,
              "position": 9.020833333333334,
              "duration": 0.3229166666666667
            },
            {
              "pitch": 58,
              "velocity": 40,
              "position": 9.333333333333334,
              "duration": 0.3229166666666667
            },
            {
              "pitch": 64,
              "velocity": 40,
              "position": 9.333333333333334,
              "duration": 0.32916666666666666
            },
            {
              "pitch": 67,
              "velocity": 40,
              "position": 9.34375,
              "duration": 0.3229166666666667
            },
            {
              "pitch": 72,
              "velocity": 40,
              "position": 9.354166666666666,
              "duration": 0.3229166666666667
            },
            {
              "pitch": 58,
              "velocity": 60,
              "position": 9.666666666666666,
              "duration": 0.3229166666666667
            },
            {
              "pitch": 67,
              "velocity": 60,
              "position": 9.677083333333334,
              "duration": 0.3229166666666667
            },
            {
              "pitch": 64,
              "velocity": 60,
              "position": 9.666666666666666,
              "duration": 0.3333333333333333
            },
            {
              "pitch": 72,
              "velocity": 60,
              "position": 9.6875,
              "duration": 0.3229166666666667
            },
            {
              "pitch": 57,
              "velocity": 80,
              "position": 10,
              "duration": 0.3229166666666667
            },
            {
              "pitch": 63,
              "velocity": 80,
              "position": 10,
              "duration": 0.32916666666666666
            },
            {
              "pitch": 67,
              "velocity": 80,
              "position": 10.010416666666666,
              "duration": 0.3229166666666667
            },
            {
              "pitch": 72,
              "velocity": 80,
              "position": 10.020833333333334,
              "duration": 0.3229166666666667
            },
            {
              "pitch": 57,
              "velocity": 40,
              "position": 10.333333333333334,
              "duration": 0.3229166666666667
            },
            {
              "pitch": 63,
              "velocity": 40,
              "position": 10.333333333333334,
              "duration": 0.32916666666666666
            },
            {
              "pitch": 67,
              "velocity": 40,
              "position": 10.34375,
              "duration": 0.3229166666666667
            },
            {
              "pitch": 72,
              "velocity": 40,
              "position": 10.354166666666666,
              "duration": 0.3229166666666667
            },
            {
              "pitch": 57,
              "velocity": 60,
              "position": 10.666666666666666,
              "duration": 0.3229166666666667
            },
            {
              "pitch": 63,
              "velocity": 60,
              "position": 10.666666666666666,
              "duration": 0.32916666666666666
            },
            {
              "pitch": 67,
              "velocity": 60,
              "position": 10.677083333333334,
              "duration": 0.3229166666666667
            },
            {
              "pitch": 72,
              "velocity": 60,
              "position": 10.6875,
              "duration": 0.3229166666666667
            },
            {
              "pitch": 57,
              "velocity": 80,
              "position": 11,
              "duration": 0.3229166666666667
            },
            {
              "pitch": 63,
              "velocity": 80,
              "position": 11,
              "duration": 0.32916666666666666
            },
            {
              "pitch": 66,
              "velocity": 80,
              "position": 11.010416666666666,
              "duration": 0.3229166666666667
            },
            {
              "pitch": 72,
              "velocity": 80,
              "position": 11.020833333333334,
              "duration": 0.3229166666666667
            },
            {
              "pitch": 57,
              "velocity": 40,
              "position": 11.333333333333334,
              "duration": 0.3229166666666667
            },
            {
              "pitch": 63,
              "velocity": 40,
              "position": 11.333333333333334,
              "duration": 0.32916666666666666
            },
            {
              "pitch": 66,
              "velocity": 40,
              "position": 11.34375,
              "duration": 0.3229166666666667
            },
            {
              "pitch": 72,
              "velocity": 40,
              "position": 11.354166666666666,
              "duration": 0.3229166666666667
            },
            {
              "pitch": 57,
              "velocity": 60,
              "position": 11.666666666666666,
              "duration": 0.3229166666666667
            },
            {
              "pitch": 66,
              "velocity": 60,
              "position": 11.677083333333334,
              "duration": 0.3229166666666667
            },
            {
              "pitch": 63,
              "velocity": 60,
              "position": 11.666666666666666,
              "duration": 0.3333333333333333
            },
            {
              "pitch": 72,
              "velocity": 60,
              "position": 11.6875,
              "duration": 0.31875
            },
            {
              "pitch": 60,
              "velocity": 80,
              "position": 12,
              "duration": 0.3229166666666667
            },
            {
              "pitch": 69,
              "velocity": 80,
              "position": 12.010416666666666,
              "duration": 0.3229166666666667
            },
            {
              "pitch": 72,
              "velocity": 80,
              "position": 12.010416666666666,
              "duration": 0.3229166666666667
            },
            {
              "pitch": 65,
              "velocity": 80,
              "position": 12,
              "duration": 0.3333333333333333
            },
            {
              "pitch": 60,
              "velocity": 80,
              "position": 13,
              "duration": 0.65625
            },
            {
              "pitch": 65,
              "velocity": 80,
              "position": 13,
              "duration": 0.65625
            },
            {
              "pitch": 69,
              "velocity": 80,
              "position": 13.010416666666666,
              "duration": 0.6458333333333334
            },
            {
              "pitch": 72,
              "velocity": 80,
              "position": 13.020833333333334,
              "duration": 0.6354166666666666
            },
            {
              "pitch": 58,
              "velocity": 80,
              "position": 13.666666666666666,
              "duration": 2.9895833333333335
            },
            {
              "pitch": 64,
              "velocity": 80,
              "position": 13.666666666666666,
              "duration": 2.9895833333333335
            },
            {
              "pitch": 67,
              "velocity": 80,
              "position": 13.677083333333334,
              "duration": 2.9791666666666665
            },
            {
              "pitch": 72,
              "velocity": 80,
              "position": 13.6875,
              "duration": 2.96875
            }
          ]
        },
        "12": {
          "ctab": {
            "srcChannel": 12,
            "name": "Pno",
            "accType": "CHORD2",
            "editable": false,
            "mutedNotes": [],
            "mutedChords": [
              "dim7",
              "dim",
              "minMaj7(9)",
              "minMaj7",
              "min7(11)",
              "min7(9)",
              "min(9)",
              "m7b5",
              "min7",
              "min6",
              "min"
            ],
            "autoStart": false,
            "sourceChordNote": 0,
            "sourceChordType": "Maj7",
            "ctb2Low": null,
            "ctb2Main": {
              "ntr": "ROOT_TRANSPOSITION",
              "ntt": "BYPASS",
              "bassOn": false,
              "chordRootUpperLimit": 10,
              "noteLowLimit": 28,
              "noteHighLimit": 79,
              "rtr": "PITCH_SHIFT"
            },
            "ctb2High": null
          },
          "notes": [
            {
              "pitch": 29,
              "velocity": 75,
              "position": 0,
              "duration": 0.6875
            },
            {
              "pitch": 33,
              "velocity": 43,
              "position": 1,
              "duration": 0.23958333333333334
            },
            {
              "pitch": 60,
              "velocity": 73,
              "position": 0,
              "duration": 1.3020833333333333
            },
            {
              "pitch": 63,
              "velocity": 84,
              "position": 0,
              "duration": 1.3333333333333333
            },
            {
              "pitch": 69,
              "velocity": 84,
              "position": 0,
              "duration": 1.3645833333333333
            },
            {
              "pitch": 72,
              "velocity": 66,
              "position": 0,
              "duration": 1.3645833333333333
            },
            {
              "pitch": 65,
              "velocity": 75,
              "position": 1.6666666666666667,
              "duration": 0.21875
            },
            {
              "pitch": 62,
              "velocity": 75,
              "position": 1.6666666666666667,
              "duration": 0.22916666666666666
            },
            {
              "pitch": 74,
              "velocity": 63,
              "position": 1.6666666666666667,
              "duration": 0.2604166666666667
            },
            {
              "pitch": 33,
              "velocity": 52,
              "position": 1.5520833333333333,
              "duration": 0.4375
            },
            {
              "pitch": 70,
              "velocity": 63,
              "position": 1.6666666666666667,
              "duration": 0.375
            },
            {
              "pitch": 66,
              "velocity": 75,
              "position": 2,
              "duration": 0.052083333333333336
            },
            {
              "pitch": 63,
              "velocity": 1,
              "position": 2,
              "duration": 1
            },
            {
              "pitch": 75,
              "velocity": 58,
              "position": 2,
              "duration": 1.0104166666666667
            },
            {
              "pitch": 36,
              "velocity": 35,
              "position": 2,
              "duration": 1.0208333333333333
            },
            {
              "pitch": 72,
              "velocity": 61,
              "position": 2,
              "duration": 1.0208333333333333
            },
            {
              "pitch": 67,
              "velocity": 37,
              "position": 2.1041666666666665,
              "duration": 0.9375
            },
            {
              "pitch": 63,
              "velocity": 84,
              "position": 3.3333333333333335,
              "duration": 0.0625
            },
            {
              "pitch": 60,
              "velocity": 75,
              "position": 3.3333333333333335,
              "duration": 0.22916666666666666
            },
            {
              "pitch": 72,
              "velocity": 66,
              "position": 3.3333333333333335,
              "duration": 0.22916666666666666
            },
            {
              "pitch": 69,
              "velocity": 78,
              "position": 3.3333333333333335,
              "duration": 0.2708333333333333
            },
            {
              "pitch": 64,
              "velocity": 50,
              "position": 3.4375,
              "duration": 0.17708333333333334
            },
            {
              "pitch": 29,
              "velocity": 80,
              "position": 3.3333333333333335,
              "duration": 0.3229166666666667
            },
            {
              "pitch": 72,
              "velocity": 40,
              "position": 3.6666666666666665,
              "duration": 0.052083333333333336
            },
            {
              "pitch": 65,
              "velocity": 80,
              "position": 3.6666666666666665,
              "duration": 0.21875
            },
            {
              "pitch": 74,
              "velocity": 37,
              "position": 3.6666666666666665,
              "duration": 0.21875
            },
            {
              "pitch": 62,
              "velocity": 50,
              "position": 3.6666666666666665,
              "duration": 0.2604166666666667
            },
            {
              "pitch": 31,
              "velocity": 47,
              "position": 3.6666666666666665,
              "duration": 0.3229166666666667
            },
            {
              "pitch": 70,
              "velocity": 56,
              "position": 3.6666666666666665,
              "duration": 0.3541666666666667
            },
            {
              "pitch": 32,
              "velocity": 58,
              "position": 4,
              "duration": 1.2291666666666667
            },
            {
              "pitch": 63,
              "velocity": 68,
              "position": 4,
              "duration": 1.3125
            },
            {
              "pitch": 66,
              "velocity": 61,
              "position": 4,
              "duration": 1.3333333333333333
            },
            {
              "pitch": 72,
              "velocity": 56,
              "position": 4,
              "duration": 1.34375
            },
            {
              "pitch": 75,
              "velocity": 58,
              "position": 4,
              "duration": 1.3541666666666667
            },
            {
              "pitch": 77,
              "velocity": 66,
              "position": 5.666666666666667,
              "duration": 0.21875
            },
            {
              "pitch": 65,
              "velocity": 87,
              "position": 5.666666666666667,
              "duration": 0.22916666666666666
            },
            {
              "pitch": 24,
              "velocity": 26,
              "position": 5.552083333333333,
              "duration": 0.4270833333333333
            },
            {
              "pitch": 73,
              "velocity": 75,
              "position": 5.666666666666667,
              "duration": 0.3333333333333333
            },
            {
              "pitch": 27,
              "velocity": 15,
              "position": 6,
              "duration": 1.21875
            },
            {
              "pitch": 75,
              "velocity": 39,
              "position": 6,
              "duration": 1.2395833333333333
            },
            {
              "pitch": 78,
              "velocity": 63,
              "position": 6,
              "duration": 1.25
            },
            {
              "pitch": 70,
              "velocity": 75,
              "position": 5.666666666666667,
              "duration": 1.6145833333333333
            },
            {
              "pitch": 66,
              "velocity": 63,
              "position": 6,
              "duration": 1.3125
            },
            {
              "pitch": 75,
              "velocity": 100,
              "position": 8,
              "duration": 0.14583333333333334
            },
            {
              "pitch": 79,
              "velocity": 63,
              "position": 8,
              "duration": 0.65625
            },
            {
              "pitch": 76,
              "velocity": 29,
              "position": 8.104166666666666,
              "duration": 0.5729166666666666
            },
            {
              "pitch": 70,
              "velocity": 75,
              "position": 8,
              "duration": 0.7083333333333334
            },
            {
              "pitch": 67,
              "velocity": 78,
              "position": 8,
              "duration": 0.7291666666666666
            },
            {
              "pitch": 24,
              "velocity": 42,
              "position": 8,
              "duration": 0.9895833333333334
            },
            {
              "pitch": 72,
              "velocity": 75,
              "position": 9,
              "duration": 0.8958333333333334
            },
            {
              "pitch": 64,
              "velocity": 75,
              "position": 9,
              "duration": 0.9270833333333334
            },
            {
              "pitch": 60,
              "velocity": 75,
              "position": 9,
              "duration": 0.9375
            },
            {
              "pitch": 70,
              "velocity": 68,
              "position": 9,
              "duration": 0.9583333333333334
            },
            {
              "pitch": 28,
              "velocity": 73,
              "position": 9,
              "duration": 0.9895833333333334
            },
            {
              "pitch": 72,
              "velocity": 61,
              "position": 10,
              "duration": 0.9166666666666666
            },
            {
              "pitch": 60,
              "velocity": 46,
              "position": 10,
              "duration": 0.9375
            },
            {
              "pitch": 63,
              "velocity": 68,
              "position": 10,
              "duration": 0.9479166666666666
            },
            {
              "pitch": 69,
              "velocity": 71,
              "position": 10,
              "duration": 0.9583333333333334
            },
            {
              "pitch": 29,
              "velocity": 66,
              "position": 10,
              "duration": 0.96875
            },
            {
              "pitch": 72,
              "velocity": 63,
              "position": 11,
              "duration": 0.84375
            },
            {
              "pitch": 60,
              "velocity": 66,
              "position": 11,
              "duration": 0.8645833333333334
            },
            {
              "pitch": 63,
              "velocity": 75,
              "position": 11,
              "duration": 0.8645833333333334
            },
            {
              "pitch": 30,
              "velocity": 75,
              "position": 11,
              "duration": 0.8854166666666666
            },
            {
              "pitch": 66,
              "velocity": 84,
              "position": 11,
              "duration": 0.9166666666666666
            },
            {
              "pitch": 69,
              "velocity": 58,
              "position": 11,
              "duration": 0.9166666666666666
            },
            {
              "pitch": 31,
              "velocity": 87,
              "position": 12,
              "duration": 0.22916666666666666
            },
            {
              "pitch": 72,
              "velocity": 73,
              "position": 12,
              "duration": 0.23958333333333334
            },
            {
              "pitch": 65,
              "velocity": 56,
              "position": 12,
              "duration": 0.25
            },
            {
              "pitch": 60,
              "velocity": 73,
              "position": 12,
              "duration": 0.2604166666666667
            },
            {
              "pitch": 69,
              "velocity": 52,
              "position": 12,
              "duration": 0.2604166666666667
            },
            {
              "pitch": 60,
              "velocity": 73,
              "position": 13,
              "duration": 0.3541666666666667
            },
            {
              "pitch": 69,
              "velocity": 78,
              "position": 13,
              "duration": 0.3541666666666667
            },
            {
              "pitch": 31,
              "velocity": 52,
              "position": 13,
              "duration": 0.375
            },
            {
              "pitch": 65,
              "velocity": 84,
              "position": 13,
              "duration": 0.375
            },
            {
              "pitch": 63,
              "velocity": 96,
              "position": 13.666666666666666,
              "duration": 0.041666666666666664
            },
            {
              "pitch": 24,
              "velocity": 66,
              "position": 13.666666666666666,
              "duration": 2.9895833333333335
            },
            {
              "pitch": 60,
              "velocity": 73,
              "position": 13.666666666666666,
              "duration": 3
            },
            {
              "pitch": 64,
              "velocity": 68,
              "position": 13.666666666666666,
              "duration": 3
            },
            {
              "pitch": 70,
              "velocity": 61,
              "position": 13.666666666666666,
              "duration": 3
            },
            {
              "pitch": 72,
              "velocity": 71,
              "position": 13.666666666666666,
              "duration": 3
            }
          ]
        },
        "13": {
          "ctab": {
            "srcChannel": 13,
            "name": "Org",
            "accType": "PAD",
            "editable": false,
            "mutedNotes": [],
            "mutedChords": [
              "dim7",
              "dim",
              "minMaj7(9)",
              "minMaj7",
              "min7(11)",
              "min7(9)",
              "min(9)",
              "m7b5",
              "min7",
              "min6",
              "min"
            ],
            "autoStart": false,
            "sourceChordNote": 0,
            "sourceChordType": "Maj7",
            "ctb2Low": null,
            "ctb2Main": {
              "ntr": "ROOT_TRANSPOSITION",
              "ntt": "BYPASS",
              "bassOn": false,
              "chordRootUpperLimit": 8,
              "noteLowLimit": 0,
              "noteHighLimit": 79,
              "rtr": "PITCH_SHIFT"
            },
            "ctb2High": null
          },
          "notes": [
            {
              "pitch": 84,
              "velocity": 127,
              "position": 0,
              "duration": 7.0625
            },
            {
              "pitch": 90,
              "velocity": 127,
              "position": 4,
              "duration": 3.1770833333333335
            },
            {
              "pitch": 82,
              "velocity": 127,
              "position": 4,
              "duration": 3.2083333333333335
            },
            {
              "pitch": 87,
              "velocity": 127,
              "position": 4,
              "duration": 3.3020833333333335
            },
            {
              "pitch": 80,
              "velocity": 127,
              "position": 7.333333333333333,
              "duration": 0.3229166666666667
            },
            {
              "pitch": 82,
              "velocity": 127,
              "position": 7.333333333333333,
              "duration": 0.3229166666666667
            },
            {
              "pitch": 86,
              "velocity": 127,
              "position": 7.333333333333333,
              "duration": 0.3229166666666667
            },
            {
              "pitch": 89,
              "velocity": 127,
              "position": 7.333333333333333,
              "duration": 0.3229166666666667
            },
            {
              "pitch": 81,
              "velocity": 127,
              "position": 7.666666666666667,
              "duration": 0.3229166666666667
            },
            {
              "pitch": 83,
              "velocity": 127,
              "position": 7.666666666666667,
              "duration": 0.3229166666666667
            },
            {
              "pitch": 87,
              "velocity": 127,
              "position": 7.666666666666667,
              "duration": 0.3229166666666667
            },
            {
              "pitch": 90,
              "velocity": 127,
              "position": 7.666666666666667,
              "duration": 0.3229166666666667
            },
            {
              "pitch": 82,
              "velocity": 127,
              "position": 8,
              "duration": 0.9895833333333334
            },
            {
              "pitch": 86,
              "velocity": 127,
              "position": 8,
              "duration": 0.9895833333333334
            },
            {
              "pitch": 88,
              "velocity": 127,
              "position": 8,
              "duration": 0.9895833333333334
            },
            {
              "pitch": 91,
              "velocity": 127,
              "position": 8,
              "duration": 0.9895833333333334
            },
            {
              "pitch": 82,
              "velocity": 127,
              "position": 9,
              "duration": 0.9895833333333334
            },
            {
              "pitch": 88,
              "velocity": 127,
              "position": 9,
              "duration": 0.9895833333333334
            },
            {
              "pitch": 89,
              "velocity": 127,
              "position": 10,
              "duration": 0.9895833333333334
            },
            {
              "pitch": 81,
              "velocity": 127,
              "position": 10,
              "duration": 1.9166666666666667
            },
            {
              "pitch": 84,
              "velocity": 127,
              "position": 9,
              "duration": 2.9166666666666665
            },
            {
              "pitch": 87,
              "velocity": 127,
              "position": 11,
              "duration": 0.9166666666666666
            },
            {
              "pitch": 90,
              "velocity": 127,
              "position": 11,
              "duration": 0.9166666666666666
            },
            {
              "pitch": 81,
              "velocity": 127,
              "position": 12,
              "duration": 0.25
            },
            {
              "pitch": 84,
              "velocity": 127,
              "position": 12,
              "duration": 0.25
            },
            {
              "pitch": 86,
              "velocity": 127,
              "position": 12,
              "duration": 0.25
            },
            {
              "pitch": 89,
              "velocity": 127,
              "position": 12,
              "duration": 0.25
            },
            {
              "pitch": 81,
              "velocity": 127,
              "position": 13,
              "duration": 0.5833333333333334
            },
            {
              "pitch": 84,
              "velocity": 127,
              "position": 13,
              "duration": 0.5833333333333334
            },
            {
              "pitch": 86,
              "velocity": 127,
              "position": 13,
              "duration": 0.5833333333333334
            },
            {
              "pitch": 89,
              "velocity": 127,
              "position": 13,
              "duration": 0.5833333333333334
            },
            {
              "pitch": 84,
              "velocity": 127,
              "position": 13.666666666666666,
              "duration": 2.9895833333333335
            },
            {
              "pitch": 88,
              "velocity": 127,
              "position": 13.666666666666666,
              "duration": 2.9895833333333335
            },
            {
              "pitch": 91,
              "velocity": 127,
              "position": 13.666666666666666,
              "duration": 2.9895833333333335
            }
          ]
        },
        "14": {
          "ctab": {
            "srcChannel": 14,
            "name": "ClGt",
            "accType": "PHRASE1",
            "editable": false,
            "mutedNotes": [],
            "mutedChords": [
              "dim7",
              "dim",
              "minMaj7(9)",
              "minMaj7",
              "min7(11)",
              "min7(9)",
              "min(9)",
              "m7b5",
              "min7",
              "min6",
              "min"
            ],
            "autoStart": false,
            "sourceChordNote": 0,
            "sourceChordType": "Maj7",
            "ctb2Low": null,
            "ctb2Main": {
              "ntr": "ROOT_TRANSPOSITION",
              "ntt": "BYPASS",
              "bassOn": false,
              "chordRootUpperLimit": 6,
              "noteLowLimit": 0,
              "noteHighLimit": 127,
              "rtr": "PITCH_SHIFT"
            },
            "ctb2High": null
          },
          "notes": [
            {
              "pitch": 72,
              "velocity": 30,
              "position": 1,
              "duration": 1.65625
            },
            {
              "pitch": 72,
              "velocity": 30,
              "position": 2.6666666666666665,
              "duration": 0.15625
            },
            {
              "pitch": 69,
              "velocity": 120,
              "position": 0.6666666666666666,
              "duration": 2.3229166666666665
            },
            {
              "pitch": 74,
              "velocity": 94,
              "position": 2.8333333333333335,
              "duration": 0.16666666666666666
            },
            {
              "pitch": 63,
              "velocity": 20,
              "position": 1,
              "duration": 2.2395833333333335
            },
            {
              "pitch": 69,
              "velocity": 119,
              "position": 3,
              "duration": 1.375
            },
            {
              "pitch": 65,
              "velocity": 30,
              "position": 3.25,
              "duration": 1.1354166666666667
            },
            {
              "pitch": 72,
              "velocity": 118,
              "position": 4.666666666666667,
              "duration": 1.5
            },
            {
              "pitch": 66,
              "velocity": 30,
              "position": 5,
              "duration": 1.1666666666666667
            },
            {
              "pitch": 75,
              "velocity": 30,
              "position": 5,
              "duration": 1.1666666666666667
            },
            {
              "pitch": 73,
              "velocity": 58,
              "position": 6.21875,
              "duration": 0.10416666666666667
            },
            {
              "pitch": 72,
              "velocity": 39,
              "position": 6.4375,
              "duration": 0.11458333333333333
            },
            {
              "pitch": 53,
              "velocity": 10,
              "position": 6.552083333333333,
              "duration": 0.020833333333333332
            },
            {
              "pitch": 58,
              "velocity": 10,
              "position": 6.604166666666667,
              "duration": 1.3645833333333333
            },
            {
              "pitch": 63,
              "velocity": 10,
              "position": 6.666666666666667,
              "duration": 1.3020833333333333
            },
            {
              "pitch": 66,
              "velocity": 30,
              "position": 6.71875,
              "duration": 1.25
            },
            {
              "pitch": 52,
              "velocity": 113,
              "position": 8.166666666666666,
              "duration": 0.5
            },
            {
              "pitch": 57,
              "velocity": 30,
              "position": 8.333333333333334,
              "duration": 0.3333333333333333
            },
            {
              "pitch": 60,
              "velocity": 40,
              "position": 8.666666666666666,
              "duration": 0.16666666666666666
            },
            {
              "pitch": 64,
              "velocity": 117,
              "position": 8.833333333333334,
              "duration": 0.9166666666666666
            },
            {
              "pitch": 72,
              "velocity": 40,
              "position": 9.083333333333334,
              "duration": 0.6875
            },
            {
              "pitch": 70,
              "velocity": 40,
              "position": 9.770833333333334,
              "duration": 0.10416666666666667
            },
            {
              "pitch": 67,
              "velocity": 40,
              "position": 9.885416666666666,
              "duration": 0.10416666666666667
            },
            {
              "pitch": 63,
              "velocity": 112,
              "position": 10,
              "duration": 0.71875
            },
            {
              "pitch": 72,
              "velocity": 120,
              "position": 10,
              "duration": 0.71875
            },
            {
              "pitch": 70,
              "velocity": 38,
              "position": 10.78125,
              "duration": 0.10416666666666667
            },
            {
              "pitch": 67,
              "velocity": 98,
              "position": 10.885416666666666,
              "duration": 0.10416666666666667
            },
            {
              "pitch": 65,
              "velocity": 53,
              "position": 11,
              "duration": 0.10416666666666667
            },
            {
              "pitch": 63,
              "velocity": 98,
              "position": 11.114583333333334,
              "duration": 0.10416666666666667
            },
            {
              "pitch": 60,
              "velocity": 36,
              "position": 11.21875,
              "duration": 0.11458333333333333
            },
            {
              "pitch": 58,
              "velocity": 98,
              "position": 11.333333333333334,
              "duration": 0.10416666666666667
            },
            {
              "pitch": 55,
              "velocity": 30,
              "position": 11.4375,
              "duration": 0.11458333333333333
            },
            {
              "pitch": 54,
              "velocity": 98,
              "position": 11.552083333333334,
              "duration": 0.10416666666666667
            },
            {
              "pitch": 53,
              "velocity": 30,
              "position": 11.666666666666666,
              "duration": 0.10416666666666667
            },
            {
              "pitch": 51,
              "velocity": 98,
              "position": 11.78125,
              "duration": 0.10416666666666667
            },
            {
              "pitch": 48,
              "velocity": 91,
              "position": 11.885416666666666,
              "duration": 0.10416666666666667
            },
            {
              "pitch": 55,
              "velocity": 119,
              "position": 12,
              "duration": 0.3020833333333333
            },
            {
              "pitch": 65,
              "velocity": 119,
              "position": 13,
              "duration": 0.65625
            },
            {
              "pitch": 72,
              "velocity": 119,
              "position": 13,
              "duration": 0.65625
            },
            {
              "pitch": 64,
              "velocity": 117,
              "position": 13.666666666666666,
              "duration": 2.9895833333333335
            },
            {
              "pitch": 69,
              "velocity": 117,
              "position": 13.666666666666666,
              "duration": 2.9895833333333335
            },
            {
              "pitch": 72,
              "velocity": 117,
              "position": 13.666666666666666,
              "duration": 2.9895833333333335
            }
          ]
        },
        "15": {
          "ctab": {
            "srcChannel": 15,
            "name": "EP",
            "accType": "PHRASE2",
            "editable": false,
            "mutedNotes": [],
            "mutedChords": [
              "dim7",
              "dim",
              "minMaj7(9)",
              "minMaj7",
              "min7(11)",
              "min7(9)",
              "min(9)",
              "m7b5",
              "min7",
              "min6",
              "min"
            ],
            "autoStart": false,
            "sourceChordNote": 0,
            "sourceChordType": "Maj7",
            "ctb2Low": null,
            "ctb2Main": {
              "ntr": "ROOT_TRANSPOSITION",
              "ntt": "BYPASS",
              "bassOn": false,
              "chordRootUpperLimit": 8,
              "noteLowLimit": 48,
              "noteHighLimit": 67,
              "rtr": "PITCH_SHIFT"
            },
            "ctb2High": null
          },
          "notes": [
            {
              "pitch": 51,
              "velocity": 57,
              "position": 0,
              "duration": 1.2916666666666667
            },
            {
              "pitch": 57,
              "velocity": 45,
              "position": 0,
              "duration": 1.3541666666666667
            },
            {
              "pitch": 60,
              "velocity": 57,
              "position": 0,
              "duration": 1.3645833333333333
            },
            {
              "pitch": 51,
              "velocity": 52,
              "position": 1.5520833333333333,
              "duration": 0.10416666666666667
            },
            {
              "pitch": 53,
              "velocity": 70,
              "position": 1.6666666666666667,
              "duration": 0.21875
            },
            {
              "pitch": 58,
              "velocity": 66,
              "position": 1.6666666666666667,
              "duration": 0.21875
            },
            {
              "pitch": 62,
              "velocity": 63,
              "position": 1.6666666666666667,
              "duration": 0.21875
            },
            {
              "pitch": 51,
              "velocity": 23,
              "position": 1.8854166666666667,
              "duration": 0.09375
            },
            {
              "pitch": 59,
              "velocity": 60,
              "position": 2,
              "duration": 0.08333333333333333
            },
            {
              "pitch": 63,
              "velocity": 44,
              "position": 2,
              "duration": 1.0625
            },
            {
              "pitch": 55,
              "velocity": 51,
              "position": 2,
              "duration": 1.0729166666666667
            },
            {
              "pitch": 60,
              "velocity": 39,
              "position": 2,
              "duration": 1.0833333333333333
            },
            {
              "pitch": 63,
              "velocity": 14,
              "position": 3.3333333333333335,
              "duration": 0.23958333333333334
            },
            {
              "pitch": 60,
              "velocity": 63,
              "position": 3.3333333333333335,
              "duration": 0.3020833333333333
            },
            {
              "pitch": 53,
              "velocity": 73,
              "position": 3.3333333333333335,
              "duration": 0.3125
            },
            {
              "pitch": 65,
              "velocity": 22,
              "position": 3.6666666666666665,
              "duration": 0.2916666666666667
            },
            {
              "pitch": 55,
              "velocity": 57,
              "position": 3.6666666666666665,
              "duration": 0.3229166666666667
            },
            {
              "pitch": 62,
              "velocity": 67,
              "position": 3.6666666666666665,
              "duration": 0.3229166666666667
            },
            {
              "pitch": 56,
              "velocity": 52,
              "position": 4,
              "duration": 1.2291666666666667
            },
            {
              "pitch": 63,
              "velocity": 55,
              "position": 4,
              "duration": 1.3125
            },
            {
              "pitch": 66,
              "velocity": 62,
              "position": 4,
              "duration": 1.34375
            },
            {
              "pitch": 58,
              "velocity": 44,
              "position": 5.666666666666667,
              "duration": 0.3125
            },
            {
              "pitch": 54,
              "velocity": 57,
              "position": 5.552083333333333,
              "duration": 0.4375
            },
            {
              "pitch": 61,
              "velocity": 59,
              "position": 5.666666666666667,
              "duration": 0.3229166666666667
            },
            {
              "pitch": 65,
              "velocity": 41,
              "position": 5.666666666666667,
              "duration": 0.3229166666666667
            },
            {
              "pitch": 56,
              "velocity": 51,
              "position": 6,
              "duration": 0.8541666666666666
            },
            {
              "pitch": 63,
              "velocity": 60,
              "position": 6,
              "duration": 0.8541666666666666
            },
            {
              "pitch": 60,
              "velocity": 51,
              "position": 6,
              "duration": 0.8645833333333334
            },
            {
              "pitch": 54,
              "velocity": 44,
              "position": 7,
              "duration": 0.21875
            },
            {
              "pitch": 56,
              "velocity": 47,
              "position": 7,
              "duration": 0.22916666666666666
            },
            {
              "pitch": 60,
              "velocity": 51,
              "position": 7,
              "duration": 0.22916666666666666
            },
            {
              "pitch": 63,
              "velocity": 72,
              "position": 7,
              "duration": 0.23958333333333334
            },
            {
              "pitch": 58,
              "velocity": 52,
              "position": 7.333333333333333,
              "duration": 0.2604166666666667
            },
            {
              "pitch": 56,
              "velocity": 59,
              "position": 7.333333333333333,
              "duration": 0.2916666666666667
            },
            {
              "pitch": 65,
              "velocity": 41,
              "position": 7.333333333333333,
              "duration": 0.3125
            },
            {
              "pitch": 62,
              "velocity": 83,
              "position": 7.333333333333333,
              "duration": 0.3229166666666667
            },
            {
              "pitch": 57,
              "velocity": 70,
              "position": 7.666666666666667,
              "duration": 0.2604166666666667
            },
            {
              "pitch": 59,
              "velocity": 66,
              "position": 7.666666666666667,
              "duration": 0.2604166666666667
            },
            {
              "pitch": 63,
              "velocity": 66,
              "position": 7.666666666666667,
              "duration": 0.3125
            },
            {
              "pitch": 66,
              "velocity": 67,
              "position": 7.666666666666667,
              "duration": 0.3229166666666667
            },
            {
              "pitch": 58,
              "velocity": 72,
              "position": 8,
              "duration": 0.90625
            },
            {
              "pitch": 60,
              "velocity": 67,
              "position": 8,
              "duration": 0.90625
            },
            {
              "pitch": 67,
              "velocity": 76,
              "position": 8,
              "duration": 0.9166666666666666
            },
            {
              "pitch": 64,
              "velocity": 72,
              "position": 8,
              "duration": 0.9583333333333334
            },
            {
              "pitch": 62,
              "velocity": 70,
              "position": 9,
              "duration": 0.8333333333333334
            },
            {
              "pitch": 58,
              "velocity": 72,
              "position": 9,
              "duration": 0.8854166666666666
            },
            {
              "pitch": 67,
              "velocity": 67,
              "position": 9,
              "duration": 0.8958333333333334
            },
            {
              "pitch": 72,
              "velocity": 83,
              "position": 9,
              "duration": 0.9791666666666666
            },
            {
              "pitch": 60,
              "velocity": 60,
              "position": 10,
              "duration": 0.8645833333333334
            },
            {
              "pitch": 63,
              "velocity": 66,
              "position": 10,
              "duration": 0.9166666666666666
            },
            {
              "pitch": 57,
              "velocity": 67,
              "position": 10,
              "duration": 0.9375
            },
            {
              "pitch": 67,
              "velocity": 47,
              "position": 10,
              "duration": 0.96875
            },
            {
              "pitch": 57,
              "velocity": 47,
              "position": 11,
              "duration": 0.90625
            },
            {
              "pitch": 63,
              "velocity": 72,
              "position": 11,
              "duration": 0.9166666666666666
            },
            {
              "pitch": 60,
              "velocity": 54,
              "position": 11,
              "duration": 0.9375
            },
            {
              "pitch": 66,
              "velocity": 70,
              "position": 11,
              "duration": 0.9375
            },
            {
              "pitch": 57,
              "velocity": 72,
              "position": 12,
              "duration": 0.17708333333333334
            },
            {
              "pitch": 60,
              "velocity": 59,
              "position": 12,
              "duration": 0.1875
            },
            {
              "pitch": 67,
              "velocity": 60,
              "position": 12,
              "duration": 0.1875
            },
            {
              "pitch": 53,
              "velocity": 70,
              "position": 12,
              "duration": 0.20833333333333334
            },
            {
              "pitch": 60,
              "velocity": 12,
              "position": 13,
              "duration": 0.5
            },
            {
              "pitch": 65,
              "velocity": 72,
              "position": 13,
              "duration": 0.5104166666666666
            },
            {
              "pitch": 55,
              "velocity": 86,
              "position": 13,
              "duration": 0.5729166666666666
            },
            {
              "pitch": 57,
              "velocity": 78,
              "position": 13,
              "duration": 0.6354166666666666
            },
            {
              "pitch": 55,
              "velocity": 67,
              "position": 13.666666666666666,
              "duration": 2.9895833333333335
            },
            {
              "pitch": 58,
              "velocity": 63,
              "position": 13.666666666666666,
              "duration": 2.9895833333333335
            },
            {
              "pitch": 60,
              "velocity": 52,
              "position": 13.666666666666666,
              "duration": 2.9895833333333335
            },
            {
              "pitch": 64,
              "velocity": 73,
              "position": 13.666666666666666,
              "duration": 2.9895833333333335
            }
          ]
        }
      }
    },
    "Ending_B": {
      "type": "Ending_B",
      "sizeInBeats": 12,
      "channels": {
        "1": {
          "ctab": {
            "srcChannel": 1,
            "name": "Bass",
            "accType": "BASS",
            "editable": false,
            "mutedNotes": [],
            "mutedChords": [
              "1+2+5",
              "sus4",
              "1+5",
              "1+8",
              "7aug",
              "Maj7aug",
              "7(#9)",
              "7(b13)",
              "7(b9)",
              "7(13)",
              "7#11",
              "7(9)",
              "7b5",
              "7sus4",
              "7th",
              "aug",
              "Maj6(9)",
              "Maj7(9)",
              "Maj(9)",
              "Maj7#11",
              "Maj7",
              "Maj6",
              "Maj"
            ],
            "autoStart": false,
            "sourceChordNote": 0,
            "sourceChordType": "Maj7",
            "ctb2Low": null,
            "ctb2Main": {
              "ntr": "ROOT_TRANSPOSITION",
              "ntt": "BYPASS",
              "bassOn": false,
              "chordRootUpperLimit": 8,
              "noteLowLimit": 28,
              "noteHighLimit": 127,
              "rtr": "PITCH_SHIFT"
            },
            "ctb2High": null
          },
          "notes": [
            {
              "pitch": 24,
              "velocity": 100,
              "position": 0,
              "duration": 0.65625
            },
            {
              "pitch": 24,
              "velocity": 100,
              "position": 0.6666666666666666,
              "duration": 0.3229166666666667
            },
            {
              "pitch": 34,
              "velocity": 100,
              "position": 1,
              "duration": 0.65625
            },
            {
              "pitch": 34,
              "velocity": 100,
              "position": 1.6666666666666667,
              "duration": 0.3229166666666667
            },
            {
              "pitch": 33,
              "velocity": 100,
              "position": 2,
              "duration": 0.65625
            },
            {
              "pitch": 33,
              "velocity": 100,
              "position": 2.6666666666666665,
              "duration": 0.3229166666666667
            },
            {
              "pitch": 32,
              "velocity": 100,
              "position": 3,
              "duration": 0.65625
            },
            {
              "pitch": 32,
              "velocity": 100,
              "position": 3.6666666666666665,
              "duration": 0.3229166666666667
            },
            {
              "pitch": 31,
              "velocity": 100,
              "position": 4,
              "duration": 0.3333333333333333
            },
            {
              "pitch": 31,
              "velocity": 100,
              "position": 5,
              "duration": 0.6666666666666666
            },
            {
              "pitch": 24,
              "velocity": 100,
              "position": 5.666666666666667,
              "duration": 3
            }
          ]
        },
        "2": {
          "ctab": {
            "srcChannel": 2,
            "name": "60sCln",
            "accType": "CHORD1",
            "editable": false,
            "mutedNotes": [],
            "mutedChords": [
              "1+2+5",
              "sus4",
              "1+5",
              "1+8",
              "7aug",
              "Maj7aug",
              "7(#9)",
              "7(b13)",
              "7(b9)",
              "7(13)",
              "7#11",
              "7(9)",
              "7b5",
              "7sus4",
              "7th",
              "aug",
              "Maj6(9)",
              "Maj7(9)",
              "Maj(9)",
              "Maj7#11",
              "Maj7",
              "Maj6",
              "Maj"
            ],
            "autoStart": false,
            "sourceChordNote": 0,
            "sourceChordType": "Maj7",
            "ctb2Low": null,
            "ctb2Main": {
              "ntr": "ROOT_TRANSPOSITION",
              "ntt": "BYPASS",
              "bassOn": false,
              "chordRootUpperLimit": 8,
              "noteLowLimit": 0,
              "noteHighLimit": 127,
              "rtr": "PITCH_SHIFT"
            },
            "ctb2High": null
          },
          "notes": [
            {
              "pitch": 58,
              "velocity": 100,
              "position": 0,
              "duration": 0.3229166666666667
            },
            {
              "pitch": 63,
              "velocity": 100,
              "position": 0,
              "duration": 0.65625
            },
            {
              "pitch": 67,
              "velocity": 100,
              "position": 0.010416666666666666,
              "duration": 0.9791666666666666
            },
            {
              "pitch": 72,
              "velocity": 100,
              "position": 0.020833333333333332,
              "duration": 0.975
            },
            {
              "pitch": 63,
              "velocity": 78,
              "position": 0.6666666666666666,
              "duration": 0.65625
            },
            {
              "pitch": 58,
              "velocity": 77,
              "position": 0.3333333333333333,
              "duration": 1.3229166666666667
            },
            {
              "pitch": 58,
              "velocity": 84,
              "position": 1.6666666666666667,
              "duration": 0.3229166666666667
            },
            {
              "pitch": 63,
              "velocity": 74,
              "position": 1.3333333333333333,
              "duration": 0.6625
            },
            {
              "pitch": 67,
              "velocity": 99,
              "position": 1,
              "duration": 1.00625
            },
            {
              "pitch": 72,
              "velocity": 99,
              "position": 1,
              "duration": 1.0104166666666667
            },
            {
              "pitch": 57,
              "velocity": 100,
              "position": 2,
              "duration": 0.3229166666666667
            },
            {
              "pitch": 63,
              "velocity": 100,
              "position": 2,
              "duration": 0.65625
            },
            {
              "pitch": 57,
              "velocity": 84,
              "position": 2.3333333333333335,
              "duration": 0.65625
            },
            {
              "pitch": 63,
              "velocity": 84,
              "position": 2.6666666666666665,
              "duration": 0.32916666666666666
            },
            {
              "pitch": 67,
              "velocity": 100,
              "position": 2.0104166666666665,
              "duration": 0.9895833333333334
            },
            {
              "pitch": 72,
              "velocity": 100,
              "position": 2.0208333333333335,
              "duration": 0.9895833333333334
            },
            {
              "pitch": 63,
              "velocity": 100,
              "position": 3,
              "duration": 0.3229166666666667
            },
            {
              "pitch": 56,
              "velocity": 100,
              "position": 3,
              "duration": 0.65625
            },
            {
              "pitch": 56,
              "velocity": 84,
              "position": 3.6666666666666665,
              "duration": 0.3229166666666667
            },
            {
              "pitch": 63,
              "velocity": 84,
              "position": 3.3333333333333335,
              "duration": 0.6666666666666666
            },
            {
              "pitch": 66,
              "velocity": 100,
              "position": 3.0104166666666665,
              "duration": 0.9895833333333334
            },
            {
              "pitch": 72,
              "velocity": 100,
              "position": 3.0208333333333335,
              "duration": 0.9895833333333334
            },
            {
              "pitch": 55,
              "velocity": 100,
              "position": 4,
              "duration": 0.3229166666666667
            },
            {
              "pitch": 65,
              "velocity": 100,
              "position": 4.010416666666667,
              "duration": 0.3229166666666667
            },
            {
              "pitch": 60,
              "velocity": 100,
              "position": 4,
              "duration": 0.3333333333333333
            },
            {
              "pitch": 72,
              "velocity": 100,
              "position": 4.020833333333333,
              "duration": 0.3229166666666667
            },
            {
              "pitch": 55,
              "velocity": 100,
              "position": 5,
              "duration": 0.6666666666666666
            },
            {
              "pitch": 59,
              "velocity": 100,
              "position": 5,
              "duration": 0.6666666666666666
            },
            {
              "pitch": 65,
              "velocity": 100,
              "position": 5,
              "duration": 0.6666666666666666
            },
            {
              "pitch": 70,
              "velocity": 100,
              "position": 5,
              "duration": 0.6666666666666666
            },
            {
              "pitch": 58,
              "velocity": 100,
              "position": 5.666666666666667,
              "duration": 3
            },
            {
              "pitch": 67,
              "velocity": 100,
              "position": 5.666666666666667,
              "duration": 3
            },
            {
              "pitch": 63,
              "velocity": 100,
              "position": 5.677083333333333,
              "duration": 3
            }
          ]
        },
        "3": {
          "ctab": {
            "srcChannel": 3,
            "name": "Pno",
            "accType": "CHORD2",
            "editable": false,
            "mutedNotes": [],
            "mutedChords": [
              "1+2+5",
              "sus4",
              "1+5",
              "1+8",
              "7aug",
              "Maj7aug",
              "7(#9)",
              "7(b13)",
              "7(b9)",
              "7(13)",
              "7#11",
              "7(9)",
              "7b5",
              "7sus4",
              "7th",
              "aug",
              "Maj6(9)",
              "Maj7(9)",
              "Maj(9)",
              "Maj7#11",
              "Maj7",
              "Maj6",
              "Maj"
            ],
            "autoStart": false,
            "sourceChordNote": 0,
            "sourceChordType": "Maj7",
            "ctb2Low": null,
            "ctb2Main": {
              "ntr": "ROOT_TRANSPOSITION",
              "ntt": "BYPASS",
              "bassOn": false,
              "chordRootUpperLimit": 1,
              "noteLowLimit": 28,
              "noteHighLimit": 127,
              "rtr": "PITCH_SHIFT"
            },
            "ctb2High": null
          },
          "notes": [
            {
              "pitch": 70,
              "velocity": 35,
              "position": 0.3333333333333333,
              "duration": 0.041666666666666664
            },
            {
              "pitch": 66,
              "velocity": 104,
              "position": 0.3333333333333333,
              "duration": 0.07291666666666667
            },
            {
              "pitch": 24,
              "velocity": 78,
              "position": 0,
              "duration": 0.65625
            },
            {
              "pitch": 67,
              "velocity": 95,
              "position": 0.3333333333333333,
              "duration": 0.6145833333333334
            },
            {
              "pitch": 72,
              "velocity": 100,
              "position": 0.3333333333333333,
              "duration": 0.625
            },
            {
              "pitch": 60,
              "velocity": 93,
              "position": 0.6666666666666666,
              "duration": 0.3125
            },
            {
              "pitch": 24,
              "velocity": 67,
              "position": 0.6666666666666666,
              "duration": 0.3229166666666667
            },
            {
              "pitch": 66,
              "velocity": 95,
              "position": 1.3333333333333333,
              "duration": 0.08333333333333333
            },
            {
              "pitch": 60,
              "velocity": 93,
              "position": 1.6666666666666667,
              "duration": 0.3125
            },
            {
              "pitch": 67,
              "velocity": 107,
              "position": 1.3333333333333333,
              "duration": 0.6458333333333334
            },
            {
              "pitch": 34,
              "velocity": 110,
              "position": 1,
              "duration": 0.9895833333333334
            },
            {
              "pitch": 72,
              "velocity": 93,
              "position": 1.3333333333333333,
              "duration": 0.65625
            },
            {
              "pitch": 33,
              "velocity": 98,
              "position": 2,
              "duration": 0.65625
            },
            {
              "pitch": 60,
              "velocity": 78,
              "position": 2.6666666666666665,
              "duration": 0.2916666666666667
            },
            {
              "pitch": 65,
              "velocity": 93,
              "position": 2.3333333333333335,
              "duration": 0.6354166666666666
            },
            {
              "pitch": 72,
              "velocity": 110,
              "position": 2.3333333333333335,
              "duration": 0.6458333333333334
            },
            {
              "pitch": 33,
              "velocity": 38,
              "position": 2.6666666666666665,
              "duration": 0.3229166666666667
            },
            {
              "pitch": 32,
              "velocity": 110,
              "position": 3,
              "duration": 0.65625
            },
            {
              "pitch": 60,
              "velocity": 70,
              "position": 3.6666666666666665,
              "duration": 0.21875
            },
            {
              "pitch": 72,
              "velocity": 100,
              "position": 3.3333333333333335,
              "duration": 0.5625
            },
            {
              "pitch": 66,
              "velocity": 116,
              "position": 3.3333333333333335,
              "duration": 0.6041666666666666
            },
            {
              "pitch": 32,
              "velocity": 81,
              "position": 3.6666666666666665,
              "duration": 0.3229166666666667
            },
            {
              "pitch": 60,
              "velocity": 95,
              "position": 4,
              "duration": 0.28125
            },
            {
              "pitch": 72,
              "velocity": 95,
              "position": 4,
              "duration": 0.28125
            },
            {
              "pitch": 67,
              "velocity": 98,
              "position": 4,
              "duration": 0.3020833333333333
            },
            {
              "pitch": 31,
              "velocity": 91,
              "position": 4,
              "duration": 0.3229166666666667
            },
            {
              "pitch": 31,
              "velocity": 110,
              "position": 5,
              "duration": 0.65625
            },
            {
              "pitch": 53,
              "velocity": 107,
              "position": 5,
              "duration": 0.6666666666666666
            },
            {
              "pitch": 59,
              "velocity": 100,
              "position": 5,
              "duration": 0.6666666666666666
            },
            {
              "pitch": 63,
              "velocity": 104,
              "position": 5,
              "duration": 0.6666666666666666
            },
            {
              "pitch": 24,
              "velocity": 66,
              "position": 5.666666666666667,
              "duration": 3
            },
            {
              "pitch": 51,
              "velocity": 100,
              "position": 5.666666666666667,
              "duration": 3
            },
            {
              "pitch": 58,
              "velocity": 78,
              "position": 5.666666666666667,
              "duration": 3
            },
            {
              "pitch": 60,
              "velocity": 91,
              "position": 5.666666666666667,
              "duration": 3
            }
          ]
        },
        "4": {
          "ctab": {
            "srcChannel": 4,
            "name": "Org",
            "accType": "PAD",
            "editable": false,
            "mutedNotes": [],
            "mutedChords": [
              "1+2+5",
              "sus4",
              "1+5",
              "1+8",
              "7aug",
              "Maj7aug",
              "7(#9)",
              "7(b13)",
              "7(b9)",
              "7(13)",
              "7#11",
              "7(9)",
              "7b5",
              "7sus4",
              "7th",
              "aug",
              "Maj6(9)",
              "Maj7(9)",
              "Maj(9)",
              "Maj7#11",
              "Maj7",
              "Maj6",
              "Maj"
            ],
            "autoStart": false,
            "sourceChordNote": 0,
            "sourceChordType": "Maj7",
            "ctb2Low": null,
            "ctb2Main": {
              "ntr": "ROOT_TRANSPOSITION",
              "ntt": "BYPASS",
              "bassOn": false,
              "chordRootUpperLimit": 8,
              "noteLowLimit": 54,
              "noteHighLimit": 79,
              "rtr": "PITCH_SHIFT"
            },
            "ctb2High": null
          },
          "notes": [
            {
              "pitch": 82,
              "velocity": 127,
              "position": 0,
              "duration": 0.0625
            },
            {
              "pitch": 84,
              "velocity": 127,
              "position": 0.041666666666666664,
              "duration": 3.9583333333333335
            },
            {
              "pitch": 79,
              "velocity": 127,
              "position": 4,
              "duration": 0.3125
            },
            {
              "pitch": 53,
              "velocity": 127,
              "position": 5,
              "duration": 0.6666666666666666
            },
            {
              "pitch": 59,
              "velocity": 127,
              "position": 5,
              "duration": 0.6666666666666666
            },
            {
              "pitch": 51,
              "velocity": 127,
              "position": 5.666666666666667,
              "duration": 3
            },
            {
              "pitch": 58,
              "velocity": 127,
              "position": 5.666666666666667,
              "duration": 3
            },
            {
              "pitch": 60,
              "velocity": 127,
              "position": 5.666666666666667,
              "duration": 3
            }
          ]
        },
        "5": {
          "ctab": {
            "srcChannel": 5,
            "name": "ClGt",
            "accType": "PHRASE1",
            "editable": false,
            "mutedNotes": [],
            "mutedChords": [
              "1+2+5",
              "sus4",
              "1+5",
              "1+8",
              "7aug",
              "Maj7aug",
              "7(#9)",
              "7(b13)",
              "7(b9)",
              "7(13)",
              "7#11",
              "7(9)",
              "7b5",
              "7sus4",
              "7th",
              "aug",
              "Maj6(9)",
              "Maj7(9)",
              "Maj(9)",
              "Maj7#11",
              "Maj7",
              "Maj6",
              "Maj"
            ],
            "autoStart": false,
            "sourceChordNote": 0,
            "sourceChordType": "Maj7",
            "ctb2Low": null,
            "ctb2Main": {
              "ntr": "ROOT_TRANSPOSITION",
              "ntt": "BYPASS",
              "bassOn": false,
              "chordRootUpperLimit": 6,
              "noteLowLimit": 0,
              "noteHighLimit": 127,
              "rtr": "PITCH_SHIFT"
            },
            "ctb2High": null
          },
          "notes": [
            {
              "pitch": 67,
              "velocity": 120,
              "position": 0.3333333333333333,
              "duration": 0.3229166666666667
            },
            {
              "pitch": 67,
              "velocity": 100,
              "position": 0.6666666666666666,
              "duration": 0.3229166666666667
            },
            {
              "pitch": 72,
              "velocity": 30,
              "position": 0.34375,
              "duration": 0.65625
            },
            {
              "pitch": 67,
              "velocity": 120,
              "position": 1,
              "duration": 0.3229166666666667
            },
            {
              "pitch": 67,
              "velocity": 100,
              "position": 1.3333333333333333,
              "duration": 0.3229166666666667
            },
            {
              "pitch": 72,
              "velocity": 30,
              "position": 1.0104166666666667,
              "duration": 0.65625
            },
            {
              "pitch": 67,
              "velocity": 120,
              "position": 1.6666666666666667,
              "duration": 0.3229166666666667
            },
            {
              "pitch": 72,
              "velocity": 30,
              "position": 1.6770833333333333,
              "duration": 0.3229166666666667
            },
            {
              "pitch": 67,
              "velocity": 100,
              "position": 2,
              "duration": 0.1625
            },
            {
              "pitch": 72,
              "velocity": 30,
              "position": 2.0104166666666665,
              "duration": 0.1625
            },
            {
              "pitch": 67,
              "velocity": 120,
              "position": 2.1666666666666665,
              "duration": 0.15625
            },
            {
              "pitch": 72,
              "velocity": 30,
              "position": 2.1770833333333335,
              "duration": 0.15625
            },
            {
              "pitch": 67,
              "velocity": 100,
              "position": 2.3333333333333335,
              "duration": 0.15625
            },
            {
              "pitch": 72,
              "velocity": 30,
              "position": 2.34375,
              "duration": 0.15625
            },
            {
              "pitch": 67,
              "velocity": 120,
              "position": 2.5,
              "duration": 0.3229166666666667
            },
            {
              "pitch": 72,
              "velocity": 30,
              "position": 2.5104166666666665,
              "duration": 0.3125
            },
            {
              "pitch": 64,
              "velocity": 91,
              "position": 2.8333333333333335,
              "duration": 0.15625
            },
            {
              "pitch": 69,
              "velocity": 103,
              "position": 2.8333333333333335,
              "duration": 0.15625
            },
            {
              "pitch": 65,
              "velocity": 40,
              "position": 3,
              "duration": 0.21875
            },
            {
              "pitch": 63,
              "velocity": 97,
              "position": 3.21875,
              "duration": 0.10416666666666667
            },
            {
              "pitch": 60,
              "velocity": 40,
              "position": 3.3333333333333335,
              "duration": 0.10416666666666667
            },
            {
              "pitch": 58,
              "velocity": 89,
              "position": 3.4375,
              "duration": 0.11458333333333333
            },
            {
              "pitch": 55,
              "velocity": 10,
              "position": 3.5520833333333335,
              "duration": 0.10416666666666667
            },
            {
              "pitch": 53,
              "velocity": 40,
              "position": 3.6666666666666665,
              "duration": 0.21875
            },
            {
              "pitch": 48,
              "velocity": 99,
              "position": 3.8854166666666665,
              "duration": 0.11458333333333333
            },
            {
              "pitch": 43,
              "velocity": 120,
              "position": 4,
              "duration": 0.1875
            },
            {
              "pitch": 42,
              "velocity": 16,
              "position": 4.166666666666667,
              "duration": 0.03125
            },
            {
              "pitch": 41,
              "velocity": 16,
              "position": 4.1875,
              "duration": 0.03125
            },
            {
              "pitch": 40,
              "velocity": 16,
              "position": 4.208333333333333,
              "duration": 0.03125
            },
            {
              "pitch": 39,
              "velocity": 16,
              "position": 4.229166666666667,
              "duration": 0.03125
            },
            {
              "pitch": 38,
              "velocity": 16,
              "position": 4.25,
              "duration": 0.03125
            },
            {
              "pitch": 37,
              "velocity": 16,
              "position": 4.270833333333333,
              "duration": 0.03125
            },
            {
              "pitch": 36,
              "velocity": 16,
              "position": 4.291666666666667,
              "duration": 0.03125
            },
            {
              "pitch": 35,
              "velocity": 16,
              "position": 4.3125,
              "duration": 0.03125
            },
            {
              "pitch": 34,
              "velocity": 16,
              "position": 4.333333333333333,
              "duration": 0.03125
            },
            {
              "pitch": 33,
              "velocity": 16,
              "position": 4.354166666666667,
              "duration": 0.03125
            },
            {
              "pitch": 32,
              "velocity": 16,
              "position": 4.375,
              "duration": 0.03125
            },
            {
              "pitch": 31,
              "velocity": 16,
              "position": 4.395833333333333,
              "duration": 0.052083333333333336
            },
            {
              "pitch": 53,
              "velocity": 14,
              "position": 5,
              "duration": 0.65625
            },
            {
              "pitch": 59,
              "velocity": 14,
              "position": 5,
              "duration": 0.65625
            },
            {
              "pitch": 63,
              "velocity": 14,
              "position": 5.010416666666667,
              "duration": 0.6458333333333334
            },
            {
              "pitch": 55,
              "velocity": 14,
              "position": 5.666666666666667,
              "duration": 2.96875
            },
            {
              "pitch": 60,
              "velocity": 14,
              "position": 5.677083333333333,
              "duration": 2.96875
            }
          ]
        },
        "6": {
          "ctab": {
            "srcChannel": 6,
            "name": "EP",
            "accType": "PHRASE2",
            "editable": false,
            "mutedNotes": [],
            "mutedChords": [
              "1+2+5",
              "sus4",
              "1+5",
              "1+8",
              "7aug",
              "Maj7aug",
              "7(#9)",
              "7(b13)",
              "7(b9)",
              "7(13)",
              "7#11",
              "7(9)",
              "7b5",
              "7sus4",
              "7th",
              "aug",
              "Maj6(9)",
              "Maj7(9)",
              "Maj(9)",
              "Maj7#11",
              "Maj7",
              "Maj6",
              "Maj"
            ],
            "autoStart": false,
            "sourceChordNote": 0,
            "sourceChordType": "Maj7",
            "ctb2Low": null,
            "ctb2Main": {
              "ntr": "ROOT_TRANSPOSITION",
              "ntt": "BYPASS",
              "bassOn": false,
              "chordRootUpperLimit": 8,
              "noteLowLimit": 54,
              "noteHighLimit": 65,
              "rtr": "PITCH_SHIFT"
            },
            "ctb2High": null
          },
          "notes": [
            {
              "pitch": 62,
              "velocity": 104,
              "position": 0,
              "duration": 0.041666666666666664
            },
            {
              "pitch": 63,
              "velocity": 91,
              "position": 0,
              "duration": 0.9270833333333334
            },
            {
              "pitch": 66,
              "velocity": 6,
              "position": 1,
              "duration": 0.010416666666666666
            },
            {
              "pitch": 72,
              "velocity": 88,
              "position": 0.6666666666666666,
              "duration": 0.34375
            },
            {
              "pitch": 60,
              "velocity": 70,
              "position": 0.3333333333333333,
              "duration": 0.7916666666666666
            },
            {
              "pitch": 67,
              "velocity": 86,
              "position": 1,
              "duration": 0.5833333333333334
            },
            {
              "pitch": 70,
              "velocity": 70,
              "position": 1,
              "duration": 0.6041666666666666
            },
            {
              "pitch": 70,
              "velocity": 83,
              "position": 1.6666666666666667,
              "duration": 0.25
            },
            {
              "pitch": 67,
              "velocity": 62,
              "position": 1.6666666666666667,
              "duration": 0.2708333333333333
            },
            {
              "pitch": 60,
              "velocity": 62,
              "position": 1.3333333333333333,
              "duration": 0.6770833333333334
            },
            {
              "pitch": 65,
              "velocity": 98,
              "position": 2,
              "duration": 0.4166666666666667
            },
            {
              "pitch": 69,
              "velocity": 86,
              "position": 2,
              "duration": 0.5625
            },
            {
              "pitch": 69,
              "velocity": 52,
              "position": 2.6666666666666665,
              "duration": 0.2708333333333333
            },
            {
              "pitch": 65,
              "velocity": 83,
              "position": 2.6666666666666665,
              "duration": 0.28125
            },
            {
              "pitch": 60,
              "velocity": 59,
              "position": 2.3333333333333335,
              "duration": 0.6354166666666666
            },
            {
              "pitch": 66,
              "velocity": 95,
              "position": 3,
              "duration": 0.3541666666666667
            },
            {
              "pitch": 68,
              "velocity": 83,
              "position": 3,
              "duration": 0.375
            },
            {
              "pitch": 68,
              "velocity": 83,
              "position": 3.6666666666666665,
              "duration": 0.2708333333333333
            },
            {
              "pitch": 60,
              "velocity": 67,
              "position": 3.3333333333333335,
              "duration": 0.6041666666666666
            },
            {
              "pitch": 66,
              "velocity": 83,
              "position": 3.6666666666666665,
              "duration": 0.2916666666666667
            },
            {
              "pitch": 60,
              "velocity": 60,
              "position": 4,
              "duration": 0.3333333333333333
            },
            {
              "pitch": 65,
              "velocity": 93,
              "position": 4,
              "duration": 0.3333333333333333
            },
            {
              "pitch": 67,
              "velocity": 95,
              "position": 4,
              "duration": 0.3333333333333333
            },
            {
              "pitch": 63,
              "velocity": 88,
              "position": 5,
              "duration": 0.6625
            },
            {
              "pitch": 59,
              "velocity": 86,
              "position": 5,
              "duration": 0.6666666666666666
            },
            {
              "pitch": 67,
              "velocity": 95,
              "position": 5,
              "duration": 0.6666666666666666
            },
            {
              "pitch": 58,
              "velocity": 60,
              "position": 5.666666666666667,
              "duration": 2.5
            },
            {
              "pitch": 60,
              "velocity": 81,
              "position": 5.666666666666667,
              "duration": 2.5
            },
            {
              "pitch": 63,
              "velocity": 78,
              "position": 5.666666666666667,
              "duration": 2.5
            }
          ]
        },
        "8": {
          "ctab": {
            "srcChannel": 8,
            "name": "Perc",
            "accType": "SUBRHYTHM",
            "editable": false,
            "mutedNotes": [],
            "mutedChords": [],
            "autoStart": true,
            "sourceChordNote": 0,
            "sourceChordType": "Maj7",
            "ctb2Low": null,
            "ctb2Main": {
              "ntr": "ROOT_FIXED",
              "ntt": "BYPASS",
              "bassOn": false,
              "chordRootUpperLimit": 6,
              "noteLowLimit": 0,
              "noteHighLimit": 127,
              "rtr": "PITCH_SHIFT"
            },
            "ctb2High": null
          },
          "notes": [
            {
              "pitch": 54,
              "velocity": 36,
              "position": 0,
              "duration": 0.010416666666666666
            },
            {
              "pitch": 54,
              "velocity": 25,
              "position": 0.3333333333333333,
              "duration": 0.010416666666666666
            },
            {
              "pitch": 54,
              "velocity": 26,
              "position": 0.6666666666666666,
              "duration": 0.010416666666666666
            },
            {
              "pitch": 54,
              "velocity": 90,
              "position": 1,
              "duration": 0.010416666666666666
            },
            {
              "pitch": 54,
              "velocity": 25,
              "position": 1.3333333333333333,
              "duration": 0.010416666666666666
            },
            {
              "pitch": 54,
              "velocity": 19,
              "position": 1.6666666666666667,
              "duration": 0.010416666666666666
            },
            {
              "pitch": 54,
              "velocity": 10,
              "position": 1.8854166666666667,
              "duration": 0.010416666666666666
            },
            {
              "pitch": 54,
              "velocity": 36,
              "position": 2,
              "duration": 0.010416666666666666
            },
            {
              "pitch": 54,
              "velocity": 25,
              "position": 2.3333333333333335,
              "duration": 0.010416666666666666
            },
            {
              "pitch": 54,
              "velocity": 26,
              "position": 2.6666666666666665,
              "duration": 0.010416666666666666
            },
            {
              "pitch": 54,
              "velocity": 90,
              "position": 3,
              "duration": 0.010416666666666666
            },
            {
              "pitch": 54,
              "velocity": 25,
              "position": 3.3333333333333335,
              "duration": 0.010416666666666666
            },
            {
              "pitch": 54,
              "velocity": 19,
              "position": 3.6666666666666665,
              "duration": 0.010416666666666666
            },
            {
              "pitch": 54,
              "velocity": 10,
              "position": 3.8854166666666665,
              "duration": 0.010416666666666666
            },
            {
              "pitch": 54,
              "velocity": 36,
              "position": 4,
              "duration": 0.010416666666666666
            },
            {
              "pitch": 54,
              "velocity": 80,
              "position": 5,
              "duration": 0.010416666666666666
            },
            {
              "pitch": 54,
              "velocity": 80,
              "position": 5.666666666666667,
              "duration": 0.010416666666666666
            }
          ]
        },
        "9": {
          "ctab": {
            "srcChannel": 9,
            "name": "Drs",
            "accType": "RHYTHM",
            "editable": false,
            "mutedNotes": [],
            "mutedChords": [],
            "autoStart": true,
            "sourceChordNote": 0,
            "sourceChordType": "Maj7",
            "ctb2Low": null,
            "ctb2Main": {
              "ntr": "ROOT_FIXED",
              "ntt": "BYPASS",
              "bassOn": false,
              "chordRootUpperLimit": 6,
              "noteLowLimit": 0,
              "noteHighLimit": 127,
              "rtr": "PITCH_SHIFT"
            },
            "ctb2High": null
          },
          "notes": [
            {
              "pitch": 36,
              "velocity": 90,
              "position": 0,
              "duration": 0.010416666666666666
            },
            {
              "pitch": 42,
              "velocity": 80,
              "position": 0,
              "duration": 0.010416666666666666
            },
            {
              "pitch": 49,
              "velocity": 70,
              "position": 0,
              "duration": 0.010416666666666666
            },
            {
              "pitch": 42,
              "velocity": 40,
              "position": 0.3333333333333333,
              "duration": 0.010416666666666666
            },
            {
              "pitch": 36,
              "velocity": 50,
              "position": 0.6666666666666666,
              "duration": 0.010416666666666666
            },
            {
              "pitch": 42,
              "velocity": 40,
              "position": 0.6666666666666666,
              "duration": 0.010416666666666666
            },
            {
              "pitch": 42,
              "velocity": 20,
              "position": 0.8854166666666666,
              "duration": 0.010416666666666666
            },
            {
              "pitch": 40,
              "velocity": 84,
              "position": 1,
              "duration": 0.010416666666666666
            },
            {
              "pitch": 42,
              "velocity": 80,
              "position": 1,
              "duration": 0.010416666666666666
            },
            {
              "pitch": 42,
              "velocity": 40,
              "position": 1.3333333333333333,
              "duration": 0.010416666666666666
            },
            {
              "pitch": 42,
              "velocity": 20,
              "position": 1.5520833333333333,
              "duration": 0.010416666666666666
            },
            {
              "pitch": 36,
              "velocity": 50,
              "position": 1.6666666666666667,
              "duration": 0.010416666666666666
            },
            {
              "pitch": 42,
              "velocity": 40,
              "position": 1.6666666666666667,
              "duration": 0.010416666666666666
            },
            {
              "pitch": 36,
              "velocity": 90,
              "position": 2,
              "duration": 0.010416666666666666
            },
            {
              "pitch": 42,
              "velocity": 80,
              "position": 2,
              "duration": 0.010416666666666666
            },
            {
              "pitch": 42,
              "velocity": 20,
              "position": 2.21875,
              "duration": 0.010416666666666666
            },
            {
              "pitch": 42,
              "velocity": 40,
              "position": 2.3333333333333335,
              "duration": 0.010416666666666666
            },
            {
              "pitch": 42,
              "velocity": 40,
              "position": 2.6666666666666665,
              "duration": 0.010416666666666666
            },
            {
              "pitch": 42,
              "velocity": 20,
              "position": 2.8854166666666665,
              "duration": 0.010416666666666666
            },
            {
              "pitch": 40,
              "velocity": 84,
              "position": 3,
              "duration": 0.010416666666666666
            },
            {
              "pitch": 42,
              "velocity": 80,
              "position": 3,
              "duration": 0.010416666666666666
            },
            {
              "pitch": 36,
              "velocity": 90,
              "position": 3.3333333333333335,
              "duration": 0.010416666666666666
            },
            {
              "pitch": 46,
              "velocity": 40,
              "position": 3.3333333333333335,
              "duration": 0.010416666666666666
            },
            {
              "pitch": 36,
              "velocity": 90,
              "position": 3.6666666666666665,
              "duration": 0.010416666666666666
            },
            {
              "pitch": 46,
              "velocity": 40,
              "position": 3.6666666666666665,
              "duration": 0.010416666666666666
            },
            {
              "pitch": 40,
              "velocity": 104,
              "position": 4,
              "duration": 0.010416666666666666
            },
            {
              "pitch": 44,
              "velocity": 55,
              "position": 4,
              "duration": 0.010416666666666666
            },
            {
              "pitch": 40,
              "velocity": 104,
              "position": 4.020833333333333,
              "duration": 0.010416666666666666
            },
            {
              "pitch": 36,
              "velocity": 90,
              "position": 4.333333333333333,
              "duration": 0.010416666666666666
            },
            {
              "pitch": 36,
              "velocity": 90,
              "position": 4.666666666666667,
              "duration": 0.010416666666666666
            },
            {
              "pitch": 40,
              "velocity": 104,
              "position": 5,
              "duration": 0.010416666666666666
            },
            {
              "pitch": 46,
              "velocity": 60,
              "position": 5,
              "duration": 0.010416666666666666
            },
            {
              "pitch": 40,
              "velocity": 104,
              "position": 5.020833333333333,
              "duration": 0.010416666666666666
            },
            {
              "pitch": 36,
              "velocity": 50,
              "position": 5.333333333333333,
              "duration": 0.010416666666666666
            },
            {
              "pitch": 36,
              "velocity": 90,
              "position": 5.666666666666667,
              "duration": 0.010416666666666666
            },
            {
              "pitch": 40,
              "velocity": 104,
              "position": 5.666666666666667,
              "duration": 0.010416666666666666
            },
            {
              "pitch": 57,
              "velocity": 80,
              "position": 5.666666666666667,
              "duration": 0.010416666666666666
            },
            {
              "pitch": 49,
              "velocity": 15,
              "position": 6.333333333333333,
              "duration": 0.010416666666666666
            },
            {
              "pitch": 57,
              "velocity": 16,
              "position": 6.375,
              "duration": 0.010416666666666666
            },
            {
              "pitch": 49,
              "velocity": 18,
              "position": 6.416666666666667,
              "duration": 0.010416666666666666
            },
            {
              "pitch": 57,
              "velocity": 19,
              "position": 6.458333333333333,
              "duration": 0.010416666666666666
            },
            {
              "pitch": 49,
              "velocity": 20,
              "position": 6.5,
              "duration": 0.010416666666666666
            },
            {
              "pitch": 57,
              "velocity": 21,
              "position": 6.541666666666667,
              "duration": 0.010416666666666666
            },
            {
              "pitch": 49,
              "velocity": 22,
              "position": 6.583333333333333,
              "duration": 0.010416666666666666
            },
            {
              "pitch": 57,
              "velocity": 23,
              "position": 6.625,
              "duration": 0.010416666666666666
            },
            {
              "pitch": 49,
              "velocity": 25,
              "position": 6.666666666666667,
              "duration": 0.010416666666666666
            },
            {
              "pitch": 57,
              "velocity": 26,
              "position": 6.708333333333333,
              "duration": 0.010416666666666666
            },
            {
              "pitch": 49,
              "velocity": 27,
              "position": 6.75,
              "duration": 0.010416666666666666
            },
            {
              "pitch": 57,
              "velocity": 28,
              "position": 6.791666666666667,
              "duration": 0.010416666666666666
            },
            {
              "pitch": 49,
              "velocity": 29,
              "position": 6.833333333333333,
              "duration": 0.010416666666666666
            },
            {
              "pitch": 57,
              "velocity": 31,
              "position": 6.875,
              "duration": 0.010416666666666666
            },
            {
              "pitch": 49,
              "velocity": 32,
              "position": 6.916666666666667,
              "duration": 0.010416666666666666
            },
            {
              "pitch": 57,
              "velocity": 33,
              "position": 6.958333333333333,
              "duration": 0.010416666666666666
            },
            {
              "pitch": 49,
              "velocity": 34,
              "position": 7,
              "duration": 0.010416666666666666
            },
            {
              "pitch": 57,
              "velocity": 35,
              "position": 7.041666666666667,
              "duration": 0.010416666666666666
            },
            {
              "pitch": 49,
              "velocity": 36,
              "position": 7.083333333333333,
              "duration": 0.010416666666666666
            },
            {
              "pitch": 57,
              "velocity": 38,
              "position": 7.125,
              "duration": 0.010416666666666666
            },
            {
              "pitch": 49,
              "velocity": 39,
              "position": 7.166666666666667,
              "duration": 0.010416666666666666
            },
            {
              "pitch": 57,
              "velocity": 40,
              "position": 7.208333333333333,
              "duration": 0.010416666666666666
            },
            {
              "pitch": 49,
              "velocity": 41,
              "position": 7.25,
              "duration": 0.010416666666666666
            },
            {
              "pitch": 57,
              "velocity": 42,
              "position": 7.291666666666667,
              "duration": 0.010416666666666666
            },
            {
              "pitch": 49,
              "velocity": 44,
              "position": 7.333333333333333,
              "duration": 0.010416666666666666
            },
            {
              "pitch": 57,
              "velocity": 45,
              "position": 7.375,
              "duration": 0.010416666666666666
            },
            {
              "pitch": 49,
              "velocity": 46,
              "position": 7.416666666666667,
              "duration": 0.010416666666666666
            },
            {
              "pitch": 57,
              "velocity": 47,
              "position": 7.458333333333333,
              "duration": 0.010416666666666666
            },
            {
              "pitch": 49,
              "velocity": 48,
              "position": 7.5,
              "duration": 0.010416666666666666
            },
            {
              "pitch": 57,
              "velocity": 49,
              "position": 7.541666666666667,
              "duration": 0.010416666666666666
            },
            {
              "pitch": 49,
              "velocity": 51,
              "position": 7.583333333333333,
              "duration": 0.010416666666666666
            },
            {
              "pitch": 57,
              "velocity": 52,
              "position": 7.625,
              "duration": 0.010416666666666666
            },
            {
              "pitch": 49,
              "velocity": 53,
              "position": 7.666666666666667,
              "duration": 0.010416666666666666
            },
            {
              "pitch": 57,
              "velocity": 54,
              "position": 7.708333333333333,
              "duration": 0.010416666666666666
            },
            {
              "pitch": 49,
              "velocity": 55,
              "position": 7.75,
              "duration": 0.010416666666666666
            },
            {
              "pitch": 57,
              "velocity": 56,
              "position": 7.791666666666667,
              "duration": 0.010416666666666666
            },
            {
              "pitch": 41,
              "velocity": 20,
              "position": 8.5,
              "duration": 0.010416666666666666
            },
            {
              "pitch": 41,
              "velocity": 40,
              "position": 8.552083333333334,
              "duration": 0.010416666666666666
            },
            {
              "pitch": 41,
              "velocity": 60,
              "position": 8.604166666666666,
              "duration": 0.010416666666666666
            },
            {
              "pitch": 36,
              "velocity": 90,
              "position": 8.666666666666666,
              "duration": 0.010416666666666666
            },
            {
              "pitch": 41,
              "velocity": 80,
              "position": 8.666666666666666,
              "duration": 0.010416666666666666
            },
            {
              "pitch": 44,
              "velocity": 80,
              "position": 8.666666666666666,
              "duration": 0.010416666666666666
            }
          ]
        },
        "10": {
          "ctab": {
            "srcChannel": 10,
            "name": "Bass",
            "accType": "BASS",
            "editable": false,
            "mutedNotes": [],
            "mutedChords": [
              "dim7",
              "dim",
              "minMaj7(9)",
              "minMaj7",
              "min7(11)",
              "min7(9)",
              "min(9)",
              "m7b5",
              "min7",
              "min6",
              "min"
            ],
            "autoStart": false,
            "sourceChordNote": 0,
            "sourceChordType": "Maj7",
            "ctb2Low": null,
            "ctb2Main": {
              "ntr": "ROOT_TRANSPOSITION",
              "ntt": "BYPASS",
              "bassOn": false,
              "chordRootUpperLimit": 8,
              "noteLowLimit": 28,
              "noteHighLimit": 127,
              "rtr": "PITCH_SHIFT"
            },
            "ctb2High": null
          },
          "notes": [
            {
              "pitch": 24,
              "velocity": 100,
              "position": 0,
              "duration": 0.65625
            },
            {
              "pitch": 24,
              "velocity": 100,
              "position": 0.6666666666666666,
              "duration": 0.3229166666666667
            },
            {
              "pitch": 34,
              "velocity": 100,
              "position": 1,
              "duration": 0.65625
            },
            {
              "pitch": 34,
              "velocity": 100,
              "position": 1.6666666666666667,
              "duration": 0.3229166666666667
            },
            {
              "pitch": 33,
              "velocity": 100,
              "position": 2,
              "duration": 0.65625
            },
            {
              "pitch": 33,
              "velocity": 100,
              "position": 2.6666666666666665,
              "duration": 0.3229166666666667
            },
            {
              "pitch": 32,
              "velocity": 100,
              "position": 3,
              "duration": 0.65625
            },
            {
              "pitch": 32,
              "velocity": 100,
              "position": 3.6666666666666665,
              "duration": 0.3229166666666667
            },
            {
              "pitch": 31,
              "velocity": 100,
              "position": 4,
              "duration": 0.3333333333333333
            },
            {
              "pitch": 25,
              "velocity": 100,
              "position": 5,
              "duration": 0.6666666666666666
            },
            {
              "pitch": 24,
              "velocity": 100,
              "position": 5.666666666666667,
              "duration": 3
            }
          ]
        },
        "11": {
          "ctab": {
            "srcChannel": 11,
            "name": "60sCln",
            "accType": "CHORD1",
            "editable": false,
            "mutedNotes": [],
            "mutedChords": [
              "dim7",
              "dim",
              "minMaj7(9)",
              "minMaj7",
              "min7(11)",
              "min7(9)",
              "min(9)",
              "m7b5",
              "min7",
              "min6",
              "min"
            ],
            "autoStart": false,
            "sourceChordNote": 0,
            "sourceChordType": "Maj7",
            "ctb2Low": null,
            "ctb2Main": {
              "ntr": "ROOT_TRANSPOSITION",
              "ntt": "BYPASS",
              "bassOn": false,
              "chordRootUpperLimit": 8,
              "noteLowLimit": 0,
              "noteHighLimit": 127,
              "rtr": "PITCH_SHIFT"
            },
            "ctb2High": null
          },
          "notes": [
            {
              "pitch": 58,
              "velocity": 100,
              "position": 0,
              "duration": 0.3229166666666667
            },
            {
              "pitch": 64,
              "velocity": 100,
              "position": 0,
              "duration": 0.65625
            },
            {
              "pitch": 67,
              "velocity": 100,
              "position": 0.010416666666666666,
              "duration": 0.9791666666666666
            },
            {
              "pitch": 72,
              "velocity": 100,
              "position": 0.020833333333333332,
              "duration": 0.975
            },
            {
              "pitch": 64,
              "velocity": 78,
              "position": 0.6666666666666666,
              "duration": 0.65625
            },
            {
              "pitch": 58,
              "velocity": 77,
              "position": 0.3333333333333333,
              "duration": 1.3229166666666667
            },
            {
              "pitch": 58,
              "velocity": 84,
              "position": 1.6666666666666667,
              "duration": 0.3229166666666667
            },
            {
              "pitch": 64,
              "velocity": 74,
              "position": 1.3333333333333333,
              "duration": 0.6666666666666666
            },
            {
              "pitch": 67,
              "velocity": 99,
              "position": 1,
              "duration": 1.00625
            },
            {
              "pitch": 72,
              "velocity": 99,
              "position": 1,
              "duration": 1.0104166666666667
            },
            {
              "pitch": 57,
              "velocity": 100,
              "position": 2,
              "duration": 0.3229166666666667
            },
            {
              "pitch": 63,
              "velocity": 100,
              "position": 2,
              "duration": 0.65625
            },
            {
              "pitch": 57,
              "velocity": 84,
              "position": 2.3333333333333335,
              "duration": 0.65625
            },
            {
              "pitch": 63,
              "velocity": 84,
              "position": 2.6666666666666665,
              "duration": 0.32916666666666666
            },
            {
              "pitch": 67,
              "velocity": 100,
              "position": 2.0104166666666665,
              "duration": 0.9895833333333334
            },
            {
              "pitch": 72,
              "velocity": 100,
              "position": 2.0208333333333335,
              "duration": 0.9895833333333334
            },
            {
              "pitch": 63,
              "velocity": 100,
              "position": 3,
              "duration": 0.3229166666666667
            },
            {
              "pitch": 56,
              "velocity": 100,
              "position": 3,
              "duration": 0.65625
            },
            {
              "pitch": 56,
              "velocity": 84,
              "position": 3.6666666666666665,
              "duration": 0.3229166666666667
            },
            {
              "pitch": 66,
              "velocity": 100,
              "position": 3.0104166666666665,
              "duration": 0.9895833333333334
            },
            {
              "pitch": 63,
              "velocity": 84,
              "position": 3.3333333333333335,
              "duration": 0.6666666666666666
            },
            {
              "pitch": 72,
              "velocity": 100,
              "position": 3.0208333333333335,
              "duration": 0.9895833333333334
            },
            {
              "pitch": 55,
              "velocity": 100,
              "position": 4,
              "duration": 0.3229166666666667
            },
            {
              "pitch": 65,
              "velocity": 100,
              "position": 4.010416666666667,
              "duration": 0.3229166666666667
            },
            {
              "pitch": 60,
              "velocity": 100,
              "position": 4,
              "duration": 0.3333333333333333
            },
            {
              "pitch": 72,
              "velocity": 100,
              "position": 4.020833333333333,
              "duration": 0.3229166666666667
            },
            {
              "pitch": 53,
              "velocity": 100,
              "position": 5,
              "duration": 0.6666666666666666
            },
            {
              "pitch": 59,
              "velocity": 100,
              "position": 5,
              "duration": 0.6666666666666666
            },
            {
              "pitch": 63,
              "velocity": 100,
              "position": 5.010416666666667,
              "duration": 0.6666666666666666
            },
            {
              "pitch": 52,
              "velocity": 100,
              "position": 5.666666666666667,
              "duration": 3
            },
            {
              "pitch": 58,
              "velocity": 100,
              "position": 5.666666666666667,
              "duration": 3
            },
            {
              "pitch": 62,
              "velocity": 100,
              "position": 5.677083333333333,
              "duration": 3
            }
          ]
        },
        "12": {
          "ctab": {
            "srcChannel": 12,
            "name": "Pno",
            "accType": "CHORD2",
            "editable": false,
            "mutedNotes": [],
            "mutedChords": [
              "dim7",
              "dim",
              "minMaj7(9)",
              "minMaj7",
              "min7(11)",
              "min7(9)",
              "min(9)",
              "m7b5",
              "min7",
              "min6",
              "min"
            ],
            "autoStart": false,
            "sourceChordNote": 0,
            "sourceChordType": "Maj7",
            "ctb2Low": null,
            "ctb2Main": {
              "ntr": "ROOT_TRANSPOSITION",
              "ntt": "BYPASS",
              "bassOn": false,
              "chordRootUpperLimit": 1,
              "noteLowLimit": 28,
              "noteHighLimit": 127,
              "rtr": "PITCH_SHIFT"
            },
            "ctb2High": null
          },
          "notes": [
            {
              "pitch": 70,
              "velocity": 35,
              "position": 0.3333333333333333,
              "duration": 0.041666666666666664
            },
            {
              "pitch": 66,
              "velocity": 104,
              "position": 0.3333333333333333,
              "duration": 0.07291666666666667
            },
            {
              "pitch": 24,
              "velocity": 78,
              "position": 0,
              "duration": 0.65625
            },
            {
              "pitch": 67,
              "velocity": 95,
              "position": 0.3333333333333333,
              "duration": 0.6145833333333334
            },
            {
              "pitch": 72,
              "velocity": 100,
              "position": 0.3333333333333333,
              "duration": 0.625
            },
            {
              "pitch": 60,
              "velocity": 93,
              "position": 0.6666666666666666,
              "duration": 0.3125
            },
            {
              "pitch": 24,
              "velocity": 67,
              "position": 0.6666666666666666,
              "duration": 0.3229166666666667
            },
            {
              "pitch": 66,
              "velocity": 95,
              "position": 1.3333333333333333,
              "duration": 0.08333333333333333
            },
            {
              "pitch": 60,
              "velocity": 93,
              "position": 1.6666666666666667,
              "duration": 0.3125
            },
            {
              "pitch": 67,
              "velocity": 107,
              "position": 1.3333333333333333,
              "duration": 0.6458333333333334
            },
            {
              "pitch": 34,
              "velocity": 110,
              "position": 1,
              "duration": 0.9895833333333334
            },
            {
              "pitch": 72,
              "velocity": 93,
              "position": 1.3333333333333333,
              "duration": 0.65625
            },
            {
              "pitch": 33,
              "velocity": 98,
              "position": 2,
              "duration": 0.65625
            },
            {
              "pitch": 60,
              "velocity": 78,
              "position": 2.6666666666666665,
              "duration": 0.2916666666666667
            },
            {
              "pitch": 65,
              "velocity": 93,
              "position": 2.3333333333333335,
              "duration": 0.6354166666666666
            },
            {
              "pitch": 72,
              "velocity": 110,
              "position": 2.3333333333333335,
              "duration": 0.6458333333333334
            },
            {
              "pitch": 33,
              "velocity": 38,
              "position": 2.6666666666666665,
              "duration": 0.3229166666666667
            },
            {
              "pitch": 32,
              "velocity": 110,
              "position": 3,
              "duration": 0.65625
            },
            {
              "pitch": 60,
              "velocity": 70,
              "position": 3.6666666666666665,
              "duration": 0.21875
            },
            {
              "pitch": 72,
              "velocity": 100,
              "position": 3.3333333333333335,
              "duration": 0.5625
            },
            {
              "pitch": 66,
              "velocity": 116,
              "position": 3.3333333333333335,
              "duration": 0.6041666666666666
            },
            {
              "pitch": 32,
              "velocity": 81,
              "position": 3.6666666666666665,
              "duration": 0.3229166666666667
            },
            {
              "pitch": 60,
              "velocity": 95,
              "position": 4,
              "duration": 0.28125
            },
            {
              "pitch": 72,
              "velocity": 95,
              "position": 4,
              "duration": 0.28125
            },
            {
              "pitch": 67,
              "velocity": 98,
              "position": 4,
              "duration": 0.3020833333333333
            },
            {
              "pitch": 31,
              "velocity": 91,
              "position": 4,
              "duration": 0.3229166666666667
            },
            {
              "pitch": 25,
              "velocity": 110,
              "position": 5,
              "duration": 0.65625
            },
            {
              "pitch": 53,
              "velocity": 107,
              "position": 5,
              "duration": 0.6666666666666666
            },
            {
              "pitch": 59,
              "velocity": 100,
              "position": 5,
              "duration": 0.6666666666666666
            },
            {
              "pitch": 63,
              "velocity": 104,
              "position": 5,
              "duration": 0.6666666666666666
            },
            {
              "pitch": 24,
              "velocity": 66,
              "position": 5.666666666666667,
              "duration": 3
            },
            {
              "pitch": 55,
              "velocity": 100,
              "position": 5.666666666666667,
              "duration": 3
            },
            {
              "pitch": 58,
              "velocity": 78,
              "position": 5.666666666666667,
              "duration": 3
            },
            {
              "pitch": 62,
              "velocity": 91,
              "position": 5.666666666666667,
              "duration": 3
            },
            {
              "pitch": 64,
              "velocity": 81,
              "position": 5.666666666666667,
              "duration": 3
            }
          ]
        },
        "13": {
          "ctab": {
            "srcChannel": 13,
            "name": "Org",
            "accType": "PAD",
            "editable": false,
            "mutedNotes": [],
            "mutedChords": [
              "dim7",
              "dim",
              "minMaj7(9)",
              "minMaj7",
              "min7(11)",
              "min7(9)",
              "min(9)",
              "m7b5",
              "min7",
              "min6",
              "min"
            ],
            "autoStart": false,
            "sourceChordNote": 0,
            "sourceChordType": "Maj7",
            "ctb2Low": null,
            "ctb2Main": {
              "ntr": "ROOT_TRANSPOSITION",
              "ntt": "BYPASS",
              "bassOn": false,
              "chordRootUpperLimit": 8,
              "noteLowLimit": 54,
              "noteHighLimit": 79,
              "rtr": "PITCH_SHIFT"
            },
            "ctb2High": null
          },
          "notes": [
            {
              "pitch": 82,
              "velocity": 127,
              "position": 0,
              "duration": 0.0625
            },
            {
              "pitch": 84,
              "velocity": 127,
              "position": 0.041666666666666664,
              "duration": 3.9583333333333335
            },
            {
              "pitch": 79,
              "velocity": 127,
              "position": 4,
              "duration": 0.3125
            },
            {
              "pitch": 53,
              "velocity": 127,
              "position": 5,
              "duration": 0.6666666666666666
            },
            {
              "pitch": 59,
              "velocity": 127,
              "position": 5,
              "duration": 0.6666666666666666
            },
            {
              "pitch": 52,
              "velocity": 127,
              "position": 5.666666666666667,
              "duration": 3
            },
            {
              "pitch": 58,
              "velocity": 127,
              "position": 5.666666666666667,
              "duration": 3
            },
            {
              "pitch": 60,
              "velocity": 127,
              "position": 5.666666666666667,
              "duration": 3
            }
          ]
        },
        "14": {
          "ctab": {
            "srcChannel": 14,
            "name": "ClGt",
            "accType": "PHRASE1",
            "editable": false,
            "mutedNotes": [],
            "mutedChords": [
              "dim7",
              "dim",
              "minMaj7(9)",
              "minMaj7",
              "min7(11)",
              "min7(9)",
              "min(9)",
              "m7b5",
              "min7",
              "min6",
              "min"
            ],
            "autoStart": false,
            "sourceChordNote": 0,
            "sourceChordType": "Maj7",
            "ctb2Low": null,
            "ctb2Main": {
              "ntr": "ROOT_TRANSPOSITION",
              "ntt": "BYPASS",
              "bassOn": false,
              "chordRootUpperLimit": 6,
              "noteLowLimit": 0,
              "noteHighLimit": 127,
              "rtr": "PITCH_SHIFT"
            },
            "ctb2High": null
          },
          "notes": [
            {
              "pitch": 67,
              "velocity": 120,
              "position": 0.3333333333333333,
              "duration": 0.3229166666666667
            },
            {
              "pitch": 67,
              "velocity": 100,
              "position": 0.6666666666666666,
              "duration": 0.3229166666666667
            },
            {
              "pitch": 72,
              "velocity": 30,
              "position": 0.34375,
              "duration": 0.65625
            },
            {
              "pitch": 67,
              "velocity": 120,
              "position": 1,
              "duration": 0.3229166666666667
            },
            {
              "pitch": 67,
              "velocity": 100,
              "position": 1.3333333333333333,
              "duration": 0.3229166666666667
            },
            {
              "pitch": 72,
              "velocity": 30,
              "position": 1.0104166666666667,
              "duration": 0.65625
            },
            {
              "pitch": 67,
              "velocity": 120,
              "position": 1.6666666666666667,
              "duration": 0.3229166666666667
            },
            {
              "pitch": 72,
              "velocity": 30,
              "position": 1.6770833333333333,
              "duration": 0.3229166666666667
            },
            {
              "pitch": 67,
              "velocity": 100,
              "position": 2,
              "duration": 0.1625
            },
            {
              "pitch": 72,
              "velocity": 30,
              "position": 2.0104166666666665,
              "duration": 0.1625
            },
            {
              "pitch": 67,
              "velocity": 120,
              "position": 2.1666666666666665,
              "duration": 0.15625
            },
            {
              "pitch": 72,
              "velocity": 30,
              "position": 2.1770833333333335,
              "duration": 0.15625
            },
            {
              "pitch": 67,
              "velocity": 100,
              "position": 2.3333333333333335,
              "duration": 0.15625
            },
            {
              "pitch": 72,
              "velocity": 30,
              "position": 2.34375,
              "duration": 0.15625
            },
            {
              "pitch": 67,
              "velocity": 120,
              "position": 2.5,
              "duration": 0.3229166666666667
            },
            {
              "pitch": 72,
              "velocity": 30,
              "position": 2.5104166666666665,
              "duration": 0.3125
            },
            {
              "pitch": 64,
              "velocity": 91,
              "position": 2.8333333333333335,
              "duration": 0.15625
            },
            {
              "pitch": 69,
              "velocity": 103,
              "position": 2.8333333333333335,
              "duration": 0.15625
            },
            {
              "pitch": 65,
              "velocity": 40,
              "position": 3,
              "duration": 0.21875
            },
            {
              "pitch": 63,
              "velocity": 97,
              "position": 3.21875,
              "duration": 0.10416666666666667
            },
            {
              "pitch": 60,
              "velocity": 40,
              "position": 3.3333333333333335,
              "duration": 0.10416666666666667
            },
            {
              "pitch": 58,
              "velocity": 89,
              "position": 3.4375,
              "duration": 0.11458333333333333
            },
            {
              "pitch": 55,
              "velocity": 10,
              "position": 3.5520833333333335,
              "duration": 0.10416666666666667
            },
            {
              "pitch": 53,
              "velocity": 40,
              "position": 3.6666666666666665,
              "duration": 0.21875
            },
            {
              "pitch": 48,
              "velocity": 99,
              "position": 3.8854166666666665,
              "duration": 0.11458333333333333
            },
            {
              "pitch": 43,
              "velocity": 120,
              "position": 4,
              "duration": 0.1875
            },
            {
              "pitch": 42,
              "velocity": 16,
              "position": 4.166666666666667,
              "duration": 0.03125
            },
            {
              "pitch": 41,
              "velocity": 16,
              "position": 4.1875,
              "duration": 0.03125
            },
            {
              "pitch": 40,
              "velocity": 16,
              "position": 4.208333333333333,
              "duration": 0.03125
            },
            {
              "pitch": 39,
              "velocity": 16,
              "position": 4.229166666666667,
              "duration": 0.03125
            },
            {
              "pitch": 38,
              "velocity": 16,
              "position": 4.25,
              "duration": 0.03125
            },
            {
              "pitch": 37,
              "velocity": 16,
              "position": 4.270833333333333,
              "duration": 0.03125
            },
            {
              "pitch": 36,
              "velocity": 16,
              "position": 4.291666666666667,
              "duration": 0.03125
            },
            {
              "pitch": 35,
              "velocity": 16,
              "position": 4.3125,
              "duration": 0.03125
            },
            {
              "pitch": 34,
              "velocity": 16,
              "position": 4.333333333333333,
              "duration": 0.03125
            },
            {
              "pitch": 33,
              "velocity": 16,
              "position": 4.354166666666667,
              "duration": 0.03125
            },
            {
              "pitch": 32,
              "velocity": 16,
              "position": 4.375,
              "duration": 0.03125
            },
            {
              "pitch": 31,
              "velocity": 16,
              "position": 4.395833333333333,
              "duration": 0.052083333333333336
            },
            {
              "pitch": 53,
              "velocity": 14,
              "position": 5,
              "duration": 0.65625
            },
            {
              "pitch": 59,
              "velocity": 14,
              "position": 5,
              "duration": 0.65625
            },
            {
              "pitch": 63,
              "velocity": 14,
              "position": 5.010416666666667,
              "duration": 0.6458333333333334
            },
            {
              "pitch": 52,
              "velocity": 14,
              "position": 5.666666666666667,
              "duration": 2.96875
            },
            {
              "pitch": 58,
              "velocity": 14,
              "position": 5.666666666666667,
              "duration": 2.96875
            },
            {
              "pitch": 62,
              "velocity": 14,
              "position": 5.677083333333333,
              "duration": 2.96875
            }
          ]
        },
        "15": {
          "ctab": {
            "srcChannel": 15,
            "name": "EP",
            "accType": "PHRASE2",
            "editable": false,
            "mutedNotes": [],
            "mutedChords": [
              "dim7",
              "dim",
              "minMaj7(9)",
              "minMaj7",
              "min7(11)",
              "min7(9)",
              "min(9)",
              "m7b5",
              "min7",
              "min6",
              "min"
            ],
            "autoStart": false,
            "sourceChordNote": 0,
            "sourceChordType": "Maj7",
            "ctb2Low": null,
            "ctb2Main": {
              "ntr": "ROOT_TRANSPOSITION",
              "ntt": "BYPASS",
              "bassOn": false,
              "chordRootUpperLimit": 8,
              "noteLowLimit": 54,
              "noteHighLimit": 65,
              "rtr": "PITCH_SHIFT"
            },
            "ctb2High": null
          },
          "notes": [
            {
              "pitch": 63,
              "velocity": 104,
              "position": 0,
              "duration": 0.041666666666666664
            },
            {
              "pitch": 64,
              "velocity": 91,
              "position": 0,
              "duration": 0.9270833333333334
            },
            {
              "pitch": 66,
              "velocity": 6,
              "position": 1,
              "duration": 0.010416666666666666
            },
            {
              "pitch": 72,
              "velocity": 88,
              "position": 0.6666666666666666,
              "duration": 0.34375
            },
            {
              "pitch": 60,
              "velocity": 70,
              "position": 0.3333333333333333,
              "duration": 0.7916666666666666
            },
            {
              "pitch": 67,
              "velocity": 86,
              "position": 1,
              "duration": 0.5833333333333334
            },
            {
              "pitch": 70,
              "velocity": 70,
              "position": 1,
              "duration": 0.6041666666666666
            },
            {
              "pitch": 70,
              "velocity": 83,
              "position": 1.6666666666666667,
              "duration": 0.25
            },
            {
              "pitch": 67,
              "velocity": 62,
              "position": 1.6666666666666667,
              "duration": 0.2708333333333333
            },
            {
              "pitch": 60,
              "velocity": 62,
              "position": 1.3333333333333333,
              "duration": 0.6770833333333334
            },
            {
              "pitch": 65,
              "velocity": 98,
              "position": 2,
              "duration": 0.4166666666666667
            },
            {
              "pitch": 69,
              "velocity": 86,
              "position": 2,
              "duration": 0.5625
            },
            {
              "pitch": 69,
              "velocity": 52,
              "position": 2.6666666666666665,
              "duration": 0.2708333333333333
            },
            {
              "pitch": 65,
              "velocity": 83,
              "position": 2.6666666666666665,
              "duration": 0.28125
            },
            {
              "pitch": 60,
              "velocity": 59,
              "position": 2.3333333333333335,
              "duration": 0.6354166666666666
            },
            {
              "pitch": 66,
              "velocity": 95,
              "position": 3,
              "duration": 0.3541666666666667
            },
            {
              "pitch": 68,
              "velocity": 83,
              "position": 3,
              "duration": 0.375
            },
            {
              "pitch": 68,
              "velocity": 83,
              "position": 3.6666666666666665,
              "duration": 0.2708333333333333
            },
            {
              "pitch": 60,
              "velocity": 67,
              "position": 3.3333333333333335,
              "duration": 0.6041666666666666
            },
            {
              "pitch": 66,
              "velocity": 83,
              "position": 3.6666666666666665,
              "duration": 0.2916666666666667
            },
            {
              "pitch": 60,
              "velocity": 60,
              "position": 4,
              "duration": 0.3333333333333333
            },
            {
              "pitch": 65,
              "velocity": 93,
              "position": 4,
              "duration": 0.3333333333333333
            },
            {
              "pitch": 67,
              "velocity": 95,
              "position": 4,
              "duration": 0.3333333333333333
            },
            {
              "pitch": 59,
              "velocity": 86,
              "position": 5,
              "duration": 0.6666666666666666
            },
            {
              "pitch": 63,
              "velocity": 88,
              "position": 5,
              "duration": 0.6666666666666666
            },
            {
              "pitch": 68,
              "velocity": 95,
              "position": 5,
              "duration": 0.6666666666666666
            },
            {
              "pitch": 58,
              "velocity": 60,
              "position": 5.666666666666667,
              "duration": 2.5
            },
            {
              "pitch": 62,
              "velocity": 81,
              "position": 5.666666666666667,
              "duration": 2.5
            },
            {
              "pitch": 64,
              "velocity": 78,
              "position": 5.666666666666667,
              "duration": 2.5
            },
            {
              "pitch": 69,
              "velocity": 70,
              "position": 5.666666666666667,
              "duration": 2.5
            }
          ]
        }
      }
    }
  }
}