{
  "name": "KoolShuffle.S503.STY",
  "tempo": 90,
  "timeSignature": "4/4",
  "ticksPerQuarter": 1920,
  "sffType": "SFF1",
  "division": "EIGHTH_TRIPLET",
  "parts": {
    "Main_A": {
      "type": "Main_A",
      "sizeInBeats": 8,
      "channels": {
        "3": {
          "ctab": {
            "srcChannel": 3,
            "name": "EP Rt",
            "accType": "CHORD2",
            "editable": true,
            "mutedNotes": [],
            "mutedChords": [
              "1+2+5",
              "sus4",
              "1+5",
              "1+8",
              "Maj7aug",
              "dim",
              "minMaj7(9)",
              "minMaj7",
              "min6",
              "min",
              "aug",
              "Maj7(9)",
              "Maj7#11",
              "Maj7",
              "Maj6",
              "Maj"
            ],
            "autoStart": false,
            "sourceChordNote": 0,
            "sourceChordType": "Maj7",
            "ctb2Low": null,
            "ctb2Main": {
              "ntr": "ROOT_TRANSPOSITION",
              "ntt": "CHORD",
              "bassOn": false,
              "chordRootUpperLimit": 7,
              "noteLowLimit": 0,
              "noteHighLimit": 127,
              "rtr": "PITCH_SHIFT"
            },
            "ctb2High": null
          },
          "notes": [
            {
              "pitch": 60,
              "velocity": 82,
              "position": 0,
              "duration": 2.7666666666666666
            },
            {
              "pitch": 60,
              "velocity": 86,
              "position": 3,
              "duration": 0.05
            },
            {
              "pitch": 60,
              "velocity": 82,
              "position": 4,
              "duration": 2.7895833333333333
            },
            {
              "pitch": 60,
              "velocity": 102,
              "position": 7,
              "duration": 0.11666666666666667
            }
          ]
        },
        "4": {
          "ctab": {
            "srcChannel": 4,
            "name": "Pad",
            "accType": "PAD",
            "editable": false,
            "mutedNotes": [],
            "mutedChords": [
              "1+2+5",
              "sus4",
              "1+5",
              "1+8",
              "Maj7aug",
              "dim",
              "minMaj7(9)",
              "minMaj7",
              "min6",
              "min",
              "aug",
              "Maj7(9)",
              "Maj7#11",
              "Maj7",
              "Maj6",
              "Maj"
            ],
            "autoStart": false,
            "sourceChordNote": 0,
            "sourceChordType": "Maj7",
            "ctb2Low": null,
            "ctb2Main": {
              "ntr": "ROOT_TRANSPOSITION",
              "ntt": "MELODY",
              "bassOn": false,
              "chordRootUpperLimit": 6,
              "noteLowLimit": 0,
              "noteHighLimit": 127,
              "rtr": "PITCH_SHIFT"
            },
            "ctb2High": null
          },
          "notes": [
            {
              "pitch": 60,
              "velocity": 42,
              "position": 0,
              "duration": 7.979166666666667
            }
          ]
        },
        "5": {
          "ctab": {
            "srcChannel": 5,
            "name": "Mute",
            "accType": "PHRASE1",
            "editable": false,
            "mutedNotes": [],
            "mutedChords": [
              "1+2+5",
              "sus4",
              "1+5",
              "1+8",
              "7aug",
              "7(#9)",
              "7(b13)",
              "7(b9)",
              "7(13)",
              "7#11",
              "7(9)",
              "7b5",
              "7sus4",
              "7th",
              "dim7",
              "dim",
              "min7(11)",
              "min7(9)",
              "min(9)",
              "m7b5",
              "min7",
              "min6",
              "min",
              "aug",
              "Maj6(9)",
              "Maj(9)",
              "Maj6",
              "Maj"
            ],
            "autoStart": false,
            "sourceChordNote": 0,
            "sourceChordType": "Maj7",
            "ctb2Low": null,
            "ctb2Main": {
              "ntr": "ROOT_TRANSPOSITION",
              "ntt": "CHORD",
              "bassOn": false,
              "chordRootUpperLimit": 3,
              "noteLowLimit": 0,
              "noteHighLimit": 127,
              "rtr": "PITCH_SHIFT"
            },
            "ctb2High": null
          },
          "notes": [
            {
              "pitch": 59,
              "velocity": 85,
              "position": 0,
              "duration": 0.3645833333333333
            },
            {
              "pitch": 115,
              "velocity": 75,
              "position": 0,
              "duration": 0.3645833333333333
            },
            {
              "pitch": 59,
              "velocity": 85,
              "position": 0.8083333333333333,
              "duration": 0.14583333333333334
            },
            {
              "pitch": 114,
              "velocity": 75,
              "position": 0.8083333333333333,
              "duration": 0.14583333333333334
            },
            {
              "pitch": 59,
              "velocity": 85,
              "position": 1.5,
              "duration": 0.17708333333333334
            },
            {
              "pitch": 115,
              "velocity": 75,
              "position": 1.5,
              "duration": 0.17708333333333334
            },
            {
              "pitch": 59,
              "velocity": 85,
              "position": 1.8083333333333333,
              "duration": 0.125
            },
            {
              "pitch": 114,
              "velocity": 75,
              "position": 1.8083333333333333,
              "duration": 0.125
            },
            {
              "pitch": 59,
              "velocity": 85,
              "position": 2.308333333333333,
              "duration": 0.125
            },
            {
              "pitch": 115,
              "velocity": 75,
              "position": 2.308333333333333,
              "duration": 0.125
            },
            {
              "pitch": 59,
              "velocity": 85,
              "position": 2.808333333333333,
              "duration": 0.010416666666666666
            },
            {
              "pitch": 114,
              "velocity": 75,
              "position": 2.808333333333333,
              "duration": 0.010416666666666666
            },
            {
              "pitch": 59,
              "velocity": 85,
              "position": 3,
              "duration": 0.14583333333333334
            },
            {
              "pitch": 115,
              "velocity": 75,
              "position": 3,
              "duration": 0.14583333333333334
            },
            {
              "pitch": 59,
              "velocity": 85,
              "position": 3.308333333333333,
              "duration": 0.125
            },
            {
              "pitch": 114,
              "velocity": 75,
              "position": 3.308333333333333,
              "duration": 0.125
            },
            {
              "pitch": 59,
              "velocity": 85,
              "position": 3.5,
              "duration": 0.010416666666666666
            },
            {
              "pitch": 115,
              "velocity": 75,
              "position": 3.5,
              "duration": 0.010416666666666666
            },
            {
              "pitch": 59,
              "velocity": 85,
              "position": 3.808333333333333,
              "duration": 0.010416666666666666
            },
            {
              "pitch": 114,
              "velocity": 75,
              "position": 3.808333333333333,
              "duration": 0.010416666666666666
            },
            {
              "pitch": 59,
              "velocity": 85,
              "position": 4,
              "duration": 0.010416666666666666
            },
            {
              "pitch": 115,
              "velocity": 75,
              "position": 4,
              "duration": 0.010416666666666666
            },
            {
              "pitch": 59,
              "velocity": 85,
              "position": 4.308333333333334,
              "duration": 0.010416666666666666
            },
            {
              "pitch": 114,
              "velocity": 75,
              "position": 4.308333333333334,
              "duration": 0.010416666666666666
            },
            {
              "pitch": 59,
              "velocity": 85,
              "position": 4.5,
              "duration": 0.16666666666666666
            },
            {
              "pitch": 115,
              "velocity": 75,
              "position": 4.5,
              "duration": 0.16666666666666666
            },
            {
              "pitch": 59,
              "velocity": 85,
              "position": 4.808333333333334,
              "duration": 0.010416666666666666
            },
            {
              "pitch": 114,
              "velocity": 75,
              "position": 4.808333333333334,
              "duration": 0.010416666666666666
            },
            {
              "pitch": 59,
              "velocity": 85,
              "position": 5,
              "duration": 0.010416666666666666
            },
            {
              "pitch": 115,
              "velocity": 75,
              "position": 5,
              "duration": 0.010416666666666666
            },
            {
              "pitch": 59,
              "velocity": 85,
              "position": 5.308333333333334,
              "duration": 0.125
            },
            {
              "pitch": 114,
              "velocity": 75,
              "position": 5.308333333333334,
              "duration": 0.125
            },
            {
              "pitch": 59,
              "velocity": 85,
              "position": 6,
              "duration": 0.19791666666666666
            },
            {
              "pitch": 115,
              "velocity": 75,
              "position": 6,
              "duration": 0.19791666666666666
            },
            {
              "pitch": 59,
              "velocity": 85,
              "position": 6.308333333333334,
              "duration": 0.010416666666666666
            },
            {
              "pitch": 114,
              "velocity": 75,
              "position": 6.308333333333334,
              "duration": 0.010416666666666666
            },
            {
              "pitch": 59,
              "velocity": 85,
              "position": 6.5,
              "duration": 0.010416666666666666
            },
            {
              "pitch": 115,
              "velocity": 75,
              "position": 6.5,
              "duration": 0.010416666666666666
            },
            {
              "pitch": 59,
              "velocity": 85,
              "position": 6.808333333333334,
              "duration": 0.15625
            },
            {
              "pitch": 114,
              "velocity": 75,
              "position": 6.808333333333334,
              "duration": 0.15625
            },
            {
              "pitch": 59,
              "velocity": 85,
              "position": 7,
              "duration": 0.010416666666666666
            },
            {
              "pitch": 115,
              "velocity": 75,
              "position": 7,
              "duration": 0.010416666666666666
            },
            {
              "pitch": 59,
              "velocity": 85,
              "position": 7.308333333333334,
              "duration": 0.010416666666666666
            },
            {
              "pitch": 114,
              "velocity": 75,
              "position": 7.308333333333334,
              "duration": 0.010416666666666666
            },
            {
              "pitch": 59,
              "velocity": 85,
              "position": 7.5,
              "duration": 0.21875
            },
            {
              "pitch": 115,
              "velocity": 75,
              "position": 7.5,
              "duration": 0.21875
            },
            {
              "pitch": 59,
              "velocity": 85,
              "position": 7.808333333333334,
              "duration": 0.010416666666666666
            },
            {
              "pitch": 114,
              "velocity": 75,
              "position": 7.808333333333334,
              "duration": 0.010416666666666666
            }
          ]
        },
        "8": {
          "ctab": {
            "srcChannel": 8,
            "name": "Rhyth1",
            "accType": "SUBRHYTHM",
            "editable": false,
            "mutedNotes": [],
            "mutedChords": [],
            "autoStart": true,
            "sourceChordNote": 0,
            "sourceChordType": "Maj7",
            "ctb2Low": null,
            "ctb2Main": {
              "ntr": "ROOT_FIXED",
              "ntt": "BYPASS",
              "bassOn": false,
              "chordRootUpperLimit": 6,
              "noteLowLimit": 0,
              "noteHighLimit": 127,
              "rtr": "PITCH_SHIFT"
            },
            "ctb2High": null
          },
          "notes": []
        },
        "9": {
          "ctab": {
            "srcChannel": 9,
            "name": "Rhyth2",
            "accType": "RHYTHM",
            "editable": false,
            "mutedNotes": [],
            "mutedChords": [],
            "autoStart": true,
            "sourceChordNote": 0,
            "sourceChordType": "Maj7",
            "ctb2Low": null,
            "ctb2Main": {
              "ntr": "ROOT_FIXED",
              "ntt": "BYPASS",
              "bassOn": false,
              "chordRootUpperLimit": 6,
              "noteLowLimit": 0,
              "noteHighLimit": 127,
              "rtr": "PITCH_SHIFT"
            },
            "ctb2High": null
          },
          "notes": [
            {
              "pitch": 36,
              "velocity": 99,
              "position": 0,
              "duration": 0.010416666666666666
            },
            {
              "pitch": 42,
              "velocity": 91,
              "position": 0,
              "duration": 0.010416666666666666
            },
            {
              "pitch": 42,
              "velocity": 41,
              "position": 0.5,
              "duration": 0.010416666666666666
            },
            {
              "pitch": 37,
              "velocity": 96,
              "position": 1,
              "duration": 0.010416666666666666
            },
            {
              "pitch": 42,
              "velocity": 123,
              "position": 1,
              "duration": 0.010416666666666666
            },
            {
              "pitch": 42,
              "velocity": 40,
              "position": 1.5,
              "duration": 0.010416666666666666
            },
            {
              "pitch": 36,
              "velocity": 60,
              "position": 1.8125,
              "duration": 0.010416666666666666
            },
            {
              "pitch": 36,
              "velocity": 85,
              "position": 2,
              "duration": 0.010416666666666666
            },
            {
              "pitch": 42,
              "velocity": 97,
              "position": 2,
              "duration": 0.010416666666666666
            },
            {
              "pitch": 42,
              "velocity": 38,
              "position": 2.5,
              "duration": 0.010416666666666666
            },
            {
              "pitch": 19,
              "velocity": 68,
              "position": 3,
              "duration": 0.010416666666666666
            },
            {
              "pitch": 42,
              "velocity": 119,
              "position": 3,
              "duration": 0.010416666666666666
            },
            {
              "pitch": 42,
              "velocity": 28,
              "position": 3.3020833333333335,
              "duration": 0.010416666666666666
            },
            {
              "pitch": 42,
              "velocity": 44,
              "position": 3.5,
              "duration": 0.010416666666666666
            },
            {
              "pitch": 36,
              "velocity": 98,
              "position": 4,
              "duration": 0.010416666666666666
            },
            {
              "pitch": 42,
              "velocity": 87,
              "position": 4,
              "duration": 0.010416666666666666
            },
            {
              "pitch": 42,
              "velocity": 46,
              "position": 4.5,
              "duration": 0.010416666666666666
            },
            {
              "pitch": 37,
              "velocity": 106,
              "position": 5,
              "duration": 0.010416666666666666
            },
            {
              "pitch": 42,
              "velocity": 117,
              "position": 5,
              "duration": 0.010416666666666666
            },
            {
              "pitch": 42,
              "velocity": 52,
              "position": 5.5,
              "duration": 0.010416666666666666
            },
            {
              "pitch": 36,
              "velocity": 40,
              "position": 5.8125,
              "duration": 0.010416666666666666
            },
            {
              "pitch": 36,
              "velocity": 90,
              "position": 6,
              "duration": 0.010416666666666666
            },
            {
              "pitch": 42,
              "velocity": 87,
              "position": 6,
              "duration": 0.010416666666666666
            },
            {
              "pitch": 42,
              "velocity": 54,
              "position": 6.5,
              "duration": 0.010416666666666666
            },
            {
              "pitch": 36,
              "velocity": 24,
              "position": 6.8125,
              "duration": 0.010416666666666666
            },
            {
              "pitch": 19,
              "velocity": 68,
              "position": 7,
              "duration": 0.010416666666666666
            },
            {
              "pitch": 42,
              "velocity": 111,
              "position": 7,
              "duration": 0.010416666666666666
            },
            {
              "pitch": 37,
              "velocity": 106,
              "position": 7,
              "duration": 0.010416666666666666
            },
            {
              "pitch": 46,
              "velocity": 74,
              "position": 7.291666666666667,
              "duration": 0.010416666666666666
            },
            {
              "pitch": 42,
              "velocity": 69,
              "position": 7.5,
              "duration": 0.010416666666666666
            }
          ]
        },
        "10": {
          "ctab": {
            "srcChannel": 10,
            "name": "Bass",
            "accType": "BASS",
            "editable": false,
            "mutedNotes": [],
            "mutedChords": [],
            "autoStart": false,
            "sourceChordNote": 0,
            "sourceChordType": "Maj7",
            "ctb2Low": null,
            "ctb2Main": {
              "ntr": "ROOT_TRANSPOSITION",
              "ntt": "MELODY",
              "bassOn": true,
              "chordRootUpperLimit": 8,
              "noteLowLimit": 28,
              "noteHighLimit": 127,
              "rtr": "PITCH_SHIFT_TO_ROOT"
            },
            "ctb2High": null
          },
          "notes": [
            {
              "pitch": 24,
              "velocity": 60,
              "position": 0,
              "duration": 0.7604166666666666
            },
            {
              "pitch": 24,
              "velocity": 100,
              "position": 0.7916666666666666,
              "duration": 0.08333333333333333
            },
            {
              "pitch": 24,
              "velocity": 100,
              "position": 1.7916666666666667,
              "duration": 0.08333333333333333
            },
            {
              "pitch": 24,
              "velocity": 60,
              "position": 2,
              "duration": 0.9791666666666666
            },
            {
              "pitch": 24,
              "velocity": 100,
              "position": 3,
              "duration": 0.08333333333333333
            },
            {
              "pitch": 24,
              "velocity": 89,
              "position": 3.7916666666666665,
              "duration": 0.08333333333333333
            },
            {
              "pitch": 24,
              "velocity": 60,
              "position": 4,
              "duration": 0.7604166666666666
            },
            {
              "pitch": 24,
              "velocity": 100,
              "position": 4.791666666666667,
              "duration": 0.08333333333333333
            },
            {
              "pitch": 24,
              "velocity": 100,
              "position": 5.791666666666667,
              "duration": 0.052083333333333336
            },
            {
              "pitch": 24,
              "velocity": 60,
              "position": 6,
              "duration": 0.9791666666666666
            },
            {
              "pitch": 24,
              "velocity": 100,
              "position": 7,
              "duration": 0.052083333333333336
            },
            {
              "pitch": 31,
              "velocity": 55,
              "position": 7.5,
              "duration": 0.4791666666666667
            }
          ]
        },
        "11": {
          "ctab": {
            "srcChannel": 11,
            "name": "Gtr",
            "accType": "CHORD1",
            "editable": false,
            "mutedNotes": [],
            "mutedChords": [],
            "autoStart": false,
            "sourceChordNote": 0,
            "sourceChordType": "Maj7",
            "ctb2Low": null,
            "ctb2Main": {
              "ntr": "ROOT_TRANSPOSITION",
              "ntt": "MELODY",
              "bassOn": false,
              "chordRootUpperLimit": 7,
              "noteLowLimit": 0,
              "noteHighLimit": 127,
              "rtr": "PITCH_SHIFT"
            },
            "ctb2High": null
          },
          "notes": [
            {
              "pitch": 55,
              "velocity": 49,
              "position": 1,
              "duration": 0.13541666666666666
            },
            {
              "pitch": 59,
              "velocity": 49,
              "position": 1,
              "duration": 0.13541666666666666
            },
            {
              "pitch": 60,
              "velocity": 60,
              "position": 1.0104166666666667,
              "duration": 0.13541666666666666
            },
            {
              "pitch": 64,
              "velocity": 60,
              "position": 1.0208333333333333,
              "duration": 0.13541666666666666
            },
            {
              "pitch": 67,
              "velocity": 60,
              "position": 1.03125,
              "duration": 0.13541666666666666
            },
            {
              "pitch": 71,
              "velocity": 60,
              "position": 1.03125,
              "duration": 0.13541666666666666
            },
            {
              "pitch": 67,
              "velocity": 46,
              "position": 2.808333333333333,
              "duration": 0.18541666666666667
            },
            {
              "pitch": 71,
              "velocity": 46,
              "position": 2.808333333333333,
              "duration": 0.18541666666666667
            },
            {
              "pitch": 55,
              "velocity": 30,
              "position": 2.839583333333333,
              "duration": 0.15416666666666667
            },
            {
              "pitch": 59,
              "velocity": 30,
              "position": 2.839583333333333,
              "duration": 0.15416666666666667
            },
            {
              "pitch": 60,
              "velocity": 46,
              "position": 2.8291666666666666,
              "duration": 0.16458333333333333
            },
            {
              "pitch": 64,
              "velocity": 46,
              "position": 2.81875,
              "duration": 0.175
            },
            {
              "pitch": 55,
              "velocity": 60,
              "position": 3,
              "duration": 0.13541666666666666
            },
            {
              "pitch": 59,
              "velocity": 60,
              "position": 3,
              "duration": 0.13541666666666666
            },
            {
              "pitch": 60,
              "velocity": 60,
              "position": 3.0104166666666665,
              "duration": 0.13541666666666666
            },
            {
              "pitch": 64,
              "velocity": 60,
              "position": 3.0208333333333335,
              "duration": 0.13541666666666666
            },
            {
              "pitch": 67,
              "velocity": 60,
              "position": 3.03125,
              "duration": 0.13541666666666666
            },
            {
              "pitch": 71,
              "velocity": 60,
              "position": 3.03125,
              "duration": 0.13541666666666666
            },
            {
              "pitch": 64,
              "velocity": 60,
              "position": 5.010416666666667,
              "duration": 0.13541666666666666
            },
            {
              "pitch": 67,
              "velocity": 60,
              "position": 5.010416666666667,
              "duration": 0.13541666666666666
            },
            {
              "pitch": 71,
              "velocity": 60,
              "position": 5.010416666666667,
              "duration": 0.13541666666666666
            },
            {
              "pitch": 60,
              "velocity": 60,
              "position": 5.020833333333333,
              "duration": 0.13541666666666666
            },
            {
              "pitch": 55,
              "velocity": 49,
              "position": 5.03125,
              "duration": 0.13541666666666666
            },
            {
              "pitch": 59,
              "velocity": 49,
              "position": 5.03125,
              "duration": 0.13541666666666666
            },
            {
              "pitch": 67,
              "velocity": 60,
              "position": 7.03125,
              "duration": 0.26875
            },
            {
              "pitch": 71,
              "velocity": 60,
              "position": 7.03125,
              "duration": 0.26875
            },
            {
              "pitch": 64,
              "velocity": 60,
              "position": 7.020833333333333,
              "duration": 0.2791666666666667
            },
            {
              "pitch": 60,
              "velocity": 60,
              "position": 7.010416666666667,
              "duration": 0.28958333333333336
            },
            {
              "pitch": 55,
              "velocity": 60,
              "position": 7,
              "duration": 0.3
            },
            {
              "pitch": 59,
              "velocity": 60,
              "position": 7,
              "duration": 0.3
            },
            {
              "pitch": 67,
              "velocity": 47,
              "position": 7.308333333333334,
              "duration": 0.08333333333333333
            },
            {
              "pitch": 71,
              "velocity": 47,
              "position": 7.308333333333334,
              "duration": 0.08333333333333333
            },
            {
              "pitch": 64,
              "velocity": 47,
              "position": 7.31875,
              "duration": 0.08333333333333333
            },
            {
              "pitch": 60,
              "velocity": 47,
              "position": 7.329166666666667,
              "duration": 0.08333333333333333
            },
            {
              "pitch": 55,
              "velocity": 40,
              "position": 7.339583333333334,
              "duration": 0.08333333333333333
            },
            {
              "pitch": 59,
              "velocity": 40,
              "position": 7.339583333333334,
              "duration": 0.08333333333333333
            }
          ]
        },
        "12": {
          "ctab": {
            "srcChannel": 12,
            "name": "EP",
            "accType": "CHORD2",
            "editable": false,
            "mutedNotes": [],
            "mutedChords": [],
            "autoStart": false,
            "sourceChordNote": 0,
            "sourceChordType": "Maj7",
            "ctb2Low": null,
            "ctb2Main": {
              "ntr": "ROOT_FIXED",
              "ntt": "CHORD",
              "bassOn": false,
              "chordRootUpperLimit": 7,
              "noteLowLimit": 0,
              "noteHighLimit": 127,
              "rtr": "PITCH_SHIFT"
            },
            "ctb2High": null
          },
          "notes": [
            {
              "pitch": 55,
              "velocity": 84,
              "position": 0,
              "duration": 2.7395833333333335
            },
            {
              "pitch": 64,
              "velocity": 91,
              "position": 0,
              "duration": 2.7395833333333335
            },
            {
              "pitch": 59,
              "velocity": 82,
              "position": 0,
              "duration": 2.7666666666666666
            },
            {
              "pitch": 59,
              "velocity": 86,
              "position": 3,
              "duration": 0.05
            },
            {
              "pitch": 55,
              "velocity": 102,
              "position": 3,
              "duration": 0.06875
            },
            {
              "pitch": 64,
              "velocity": 105,
              "position": 3,
              "duration": 0.14375
            },
            {
              "pitch": 64,
              "velocity": 76,
              "position": 4,
              "duration": 2.75
            },
            {
              "pitch": 59,
              "velocity": 82,
              "position": 4,
              "duration": 2.7895833333333333
            },
            {
              "pitch": 55,
              "velocity": 73,
              "position": 4,
              "duration": 2.7916666666666665
            },
            {
              "pitch": 59,
              "velocity": 102,
              "position": 7,
              "duration": 0.11666666666666667
            },
            {
              "pitch": 55,
              "velocity": 100,
              "position": 7,
              "duration": 0.11875
            },
            {
              "pitch": 64,
              "velocity": 102,
              "position": 7,
              "duration": 0.14166666666666666
            }
          ]
        },
        "13": {
          "ctab": {
            "srcChannel": 13,
            "name": "Pad",
            "accType": "PAD",
            "editable": false,
            "mutedNotes": [],
            "mutedChords": [],
            "autoStart": false,
            "sourceChordNote": 0,
            "sourceChordType": "Maj7",
            "ctb2Low": null,
            "ctb2Main": {
              "ntr": "ROOT_FIXED",
              "ntt": "CHORD",
              "bassOn": false,
              "chordRootUpperLimit": 7,
              "noteLowLimit": 0,
              "noteHighLimit": 127,
              "rtr": "PITCH_SHIFT"
            },
            "ctb2High": null
          },
          "notes": [
            {
              "pitch": 55,
              "velocity": 42,
              "position": 0,
              "duration": 7.979166666666667
            },
            {
              "pitch": 64,
              "velocity": 42,
              "position": 0,
              "duration": 7.979166666666667
            },
            {
              "pitch": 59,
              "velocity": 42,
              "position": 0,
              "duration": 7.979166666666667
            }
          ]
        },
        "14": {
          "ctab": {
            "srcChannel": 14,
            "name": "Mute",
            "accType": "PHRASE1",
            "editable": false,
            "mutedNotes": [],
            "mutedChords": [
              "Maj7aug",
              "minMaj7(9)",
              "minMaj7",
              "Maj7(9)",
              "Maj7#11",
              "Maj7"
            ],
            "autoStart": false,
            "sourceChordNote": 0,
            "sourceChordType": "Maj7",
            "ctb2Low": null,
            "ctb2Main": {
              "ntr": "ROOT_TRANSPOSITION",
              "ntt": "CHORD",
              "bassOn": false,
              "chordRootUpperLimit": 3,
              "noteLowLimit": 0,
              "noteHighLimit": 127,
              "rtr": "PITCH_SHIFT"
            },
            "ctb2High": null
          },
          "notes": [
            {
              "pitch": 60,
              "velocity": 85,
              "position": 0,
              "duration": 0.3645833333333333
            },
            {
              "pitch": 115,
              "velocity": 75,
              "position": 0,
              "duration": 0.3645833333333333
            },
            {
              "pitch": 60,
              "velocity": 85,
              "position": 0.8083333333333333,
              "duration": 0.14583333333333334
            },
            {
              "pitch": 114,
              "velocity": 75,
              "position": 0.8083333333333333,
              "duration": 0.14583333333333334
            },
            {
              "pitch": 60,
              "velocity": 85,
              "position": 1.5,
              "duration": 0.17708333333333334
            },
            {
              "pitch": 115,
              "velocity": 75,
              "position": 1.5,
              "duration": 0.17708333333333334
            },
            {
              "pitch": 60,
              "velocity": 85,
              "position": 1.8083333333333333,
              "duration": 0.125
            },
            {
              "pitch": 114,
              "velocity": 75,
              "position": 1.8083333333333333,
              "duration": 0.125
            },
            {
              "pitch": 60,
              "velocity": 85,
              "position": 2.308333333333333,
              "duration": 0.125
            },
            {
              "pitch": 115,
              "velocity": 75,
              "position": 2.308333333333333,
              "duration": 0.125
            },
            {
              "pitch": 60,
              "velocity": 85,
              "position": 2.808333333333333,
              "duration": 0.010416666666666666
            },
            {
              "pitch": 114,
              "velocity": 75,
              "position": 2.808333333333333,
              "duration": 0.010416666666666666
            },
            {
              "pitch": 60,
              "velocity": 85,
              "position": 3,
              "duration": 0.14583333333333334
            },
            {
              "pitch": 115,
              "velocity": 75,
              "position": 3,
              "duration": 0.14583333333333334
            },
            {
              "pitch": 60,
              "velocity": 85,
              "position": 3.308333333333333,
              "duration": 0.125
            },
            {
              "pitch": 114,
              "velocity": 75,
              "position": 3.308333333333333,
              "duration": 0.125
            },
            {
              "pitch": 60,
              "velocity": 85,
              "position": 3.5,
              "duration": 0.010416666666666666
            },
            {
              "pitch": 115,
              "velocity": 75,
              "position": 3.5,
              "duration": 0.010416666666666666
            },
            {
              "pitch": 60,
              "velocity": 85,
              "position": 3.808333333333333,
              "duration": 0.010416666666666666
            },
            {
              "pitch": 114,
              "velocity": 75,
              "position": 3.808333333333333,
              "duration": 0.010416666666666666
            },
            {
              "pitch": 60,
              "velocity": 85,
              "position": 4,
              "duration": 0.010416666666666666
            },
            {
              "pitch": 115,
              "velocity": 75,
              "position": 4,
              "duration": 0.010416666666666666
            },
            {
              "pitch": 60,
              "velocity": 85,
              "position": 4.308333333333334,
              "duration": 0.010416666666666666
            },
            {
              "pitch": 114,
              "velocity": 75,
              "position": 4.308333333333334,
              "duration": 0.010416666666666666
            },
            {
              "pitch": 60,
              "velocity": 85,
              "position": 4.5,
              "duration": 0.16666666666666666
            },
            {
              "pitch": 115,
              "velocity": 75,
              "position": 4.5,
              "duration": 0.16666666666666666
            },
            {
              "pitch": 60,
              "velocity": 85,
              "position": 4.808333333333334,
              "duration": 0.010416666666666666
            },
            {
              "pitch": 114,
              "velocity": 75,
              "position": 4.808333333333334,
              "duration": 0.010416666666666666
            },
            {
              "pitch": 60,
              "velocity": 85,
              "position": 5,
              "duration": 0.010416666666666666
            },
            {
              "pitch": 115,
              "velocity": 75,
              "position": 5,
              "duration": 0.010416666666666666
            },
            {
              "pitch": 60,
              "velocity": 85,
              "position": 5.308333333333334,
              "duration": 0.125
            },
            {
              "pitch": 114,
              "velocity": 75,
              "position": 5.308333333333334,
              "duration": 0.125
            },
            {
              "pitch": 60,
              "velocity": 85,
              "position": 6,
              "duration": 0.19791666666666666
            },
            {
              "pitch": 115,
              "velocity": 75,
              "position": 6,
              "duration": 0.19791666666666666
            },
            {
              "pitch": 60,
              "velocity": 85,
              "position": 6.308333333333334,
              "duration": 0.010416666666666666
            },
            {
              "pitch": 114,
              "velocity": 75,
              "position": 6.308333333333334,
              "duration": 0.010416666666666666
            },
            {
              "pitch": 60,
              "velocity": 85,
              "position": 6.5,
              "duration": 0.010416666666666666
            },
            {
              "pitch": 115,
              "velocity": 75,
              "position": 6.5,
              "duration": 0.010416666666666666
            },
            {
              "pitch": 60,
              "velocity": 85,
              "position": 6.808333333333334,
              "duration": 0.15625
            },
            {
              "pitch": 114,
              "velocity": 75,
              "position": 6.808333333333334,
              "duration": 0.15625
            },
            {
              "pitch": 60,
              "velocity": 85,
              "position": 7,
              "duration": 0.010416666666666666
            },
            {
              "pitch": 115,
              "velocity": 75,
              "position": 7,
              "duration": 0.010416666666666666
            },
            {
              "pitch": 60,
              "velocity": 85,
              "position": 7.308333333333334,
              "duration": 0.010416666666666666
            },
            {
              "pitch": 114,
              "velocity": 75,
              "position": 7.308333333333334,
              "duration": 0.010416666666666666
            },
            {
              "pitch": 60,
              "velocity": 85,
              "position": 7.5,
              "duration": 0.21875
            },
            {
              "pitch": 115,
              "velocity": 75,
              "position": 7.5,
              "duration": 0.21875
            },
            {
              "pitch": 60,
              "velocity": 85,
              "position": 7.808333333333334,
              "duration": 0.010416666666666666
            },
            {
              "pitch": 114,
              "velocity": 75,
              "position": 7.808333333333334,
              "duration": 0.010416666666666666
            }
          ]
        }
      }
    },
    "Main_B": {
      "type": "Main_B",
      "sizeInBeats": 8,
      "channels": {
        "3": {
          "ctab": {
            "srcChannel": 3,
            "name": "EP Rt",
            "accType": "CHORD2",
            "editable": true,
            "mutedNotes": [],
            "mutedChords": [
              "1+2+5",
              "sus4",
              "1+5",
              "1+8",
              "Maj7aug",
              "dim",
              "minMaj7(9)",
              "minMaj7",
              "min6",
              "min",
              "aug",
              "Maj7(9)",
              "Maj7#11",
              "Maj7",
              "Maj6",
              "Maj"
            ],
            "autoStart": false,
            "sourceChordNote": 0,
            "sourceChordType": "Maj7",
            "ctb2Low": null,
            "ctb2Main": {
              "ntr": "ROOT_TRANSPOSITION",
              "ntt": "CHORD",
              "bassOn": false,
              "chordRootUpperLimit": 7,
              "noteLowLimit": 0,
              "noteHighLimit": 127,
              "rtr": "PITCH_SHIFT"
            },
            "ctb2High": null
          },
          "notes": [
            {
              "pitch": 60,
              "velocity": 102,
              "position": 0,
              "duration": 2.15
            },
            {
              "pitch": 60,
              "velocity": 94,
              "position": 2.5,
              "duration": 0.10625
            },
            {
              "pitch": 60,
              "velocity": 94,
              "position": 3.308333333333333,
              "duration": 0.09583333333333334
            },
            {
              "pitch": 60,
              "velocity": 89,
              "position": 4,
              "duration": 2.747916666666667
            },
            {
              "pitch": 60,
              "velocity": 113,
              "position": 7,
              "duration": 0.12708333333333333
            }
          ]
        },
        "4": {
          "ctab": {
            "srcChannel": 4,
            "name": "Pad",
            "accType": "PAD",
            "editable": false,
            "mutedNotes": [],
            "mutedChords": [
              "1+2+5",
              "sus4",
              "1+5",
              "1+8",
              "Maj7aug",
              "dim",
              "minMaj7(9)",
              "minMaj7",
              "min6",
              "min",
              "aug",
              "Maj7(9)",
              "Maj7#11",
              "Maj7",
              "Maj6",
              "Maj"
            ],
            "autoStart": false,
            "sourceChordNote": 0,
            "sourceChordType": "Maj7",
            "ctb2Low": null,
            "ctb2Main": {
              "ntr": "ROOT_TRANSPOSITION",
              "ntt": "MELODY",
              "bassOn": false,
              "chordRootUpperLimit": 6,
              "noteLowLimit": 0,
              "noteHighLimit": 127,
              "rtr": "PITCH_SHIFT"
            },
            "ctb2High": null
          },
          "notes": [
            {
              "pitch": 60,
              "velocity": 46,
              "position": 0,
              "duration": 7.979166666666667
            }
          ]
        },
        "5": {
          "ctab": {
            "srcChannel": 5,
            "name": "Mute",
            "accType": "PHRASE1",
            "editable": false,
            "mutedNotes": [],
            "mutedChords": [
              "1+2+5",
              "sus4",
              "1+5",
              "1+8",
              "7aug",
              "7(#9)",
              "7(b13)",
              "7(b9)",
              "7(13)",
              "7#11",
              "7(9)",
              "7b5",
              "7sus4",
              "7th",
              "dim7",
              "dim",
              "min7(11)",
              "min7(9)",
              "min(9)",
              "m7b5",
              "min7",
              "min6",
              "min",
              "aug",
              "Maj6(9)",
              "Maj(9)",
              "Maj6",
              "Maj"
            ],
            "autoStart": false,
            "sourceChordNote": 0,
            "sourceChordType": "Maj7",
            "ctb2Low": null,
            "ctb2Main": {
              "ntr": "ROOT_TRANSPOSITION",
              "ntt": "CHORD",
              "bassOn": false,
              "chordRootUpperLimit": 3,
              "noteLowLimit": 0,
              "noteHighLimit": 127,
              "rtr": "PITCH_SHIFT"
            },
            "ctb2High": null
          },
          "notes": [
            {
              "pitch": 71,
              "velocity": 41,
              "position": 7.808333333333334,
              "duration": 0.17083333333333334
            },
            {
              "pitch": 115,
              "velocity": 75,
              "position": 7.808333333333334,
              "duration": 0.175
            },
            {
              "pitch": 59,
              "velocity": 41,
              "position": 7.829166666666667,
              "duration": 0.1625
            }
          ]
        },
        "8": {
          "ctab": {
            "srcChannel": 8,
            "name": "Rhyth1",
            "accType": "SUBRHYTHM",
            "editable": false,
            "mutedNotes": [],
            "mutedChords": [],
            "autoStart": true,
            "sourceChordNote": 0,
            "sourceChordType": "Maj7",
            "ctb2Low": null,
            "ctb2Main": {
              "ntr": "ROOT_FIXED",
              "ntt": "BYPASS",
              "bassOn": false,
              "chordRootUpperLimit": 6,
              "noteLowLimit": 0,
              "noteHighLimit": 127,
              "rtr": "PITCH_SHIFT"
            },
            "ctb2High": null
          },
          "notes": []
        },
        "9": {
          "ctab": {
            "srcChannel": 9,
            "name": "Rhyth2",
            "accType": "RHYTHM",
            "editable": false,
            "mutedNotes": [],
            "mutedChords": [],
            "autoStart": true,
            "sourceChordNote": 0,
            "sourceChordType": "Maj7",
            "ctb2Low": null,
            "ctb2Main": {
              "ntr": "ROOT_FIXED",
              "ntt": "BYPASS",
              "bassOn": false,
              "chordRootUpperLimit": 6,
              "noteLowLimit": 0,
              "noteHighLimit": 127,
              "rtr": "PITCH_SHIFT"
            },
            "ctb2High": null
          },
          "notes": [
            {
              "pitch": 36,
              "velocity": 99,
              "position": 0,
              "duration": 0.010416666666666666
            },
            {
              "pitch": 42,
              "velocity": 83,
              "position": 0,
              "duration": 0.010416666666666666
            },
            {
              "pitch": 42,
              "velocity": 20,
              "position": 0.3020833333333333,
              "duration": 0.010416666666666666
            },
            {
              "pitch": 42,
              "velocity": 105,
              "position": 0.5,
              "duration": 0.010416666666666666
            },
            {
              "pitch": 36,
              "velocity": 38,
              "position": 0.8125,
              "duration": 0.010416666666666666
            },
            {
              "pitch": 42,
              "velocity": 34,
              "position": 0.8125,
              "duration": 0.010416666666666666
            },
            {
              "pitch": 38,
              "velocity": 100,
              "position": 1,
              "duration": 0.010416666666666666
            },
            {
              "pitch": 42,
              "velocity": 83,
              "position": 1,
              "duration": 0.010416666666666666
            },
            {
              "pitch": 42,
              "velocity": 30,
              "position": 1.3020833333333333,
              "duration": 0.010416666666666666
            },
            {
              "pitch": 42,
              "velocity": 43,
              "position": 1.5,
              "duration": 0.010416666666666666
            },
            {
              "pitch": 42,
              "velocity": 115,
              "position": 1.8020833333333333,
              "duration": 0.010416666666666666
            },
            {
              "pitch": 36,
              "velocity": 38,
              "position": 1.8125,
              "duration": 0.010416666666666666
            },
            {
              "pitch": 36,
              "velocity": 85,
              "position": 2,
              "duration": 0.010416666666666666
            },
            {
              "pitch": 42,
              "velocity": 52,
              "position": 2,
              "duration": 0.010416666666666666
            },
            {
              "pitch": 42,
              "velocity": 49,
              "position": 2.3020833333333335,
              "duration": 0.010416666666666666
            },
            {
              "pitch": 42,
              "velocity": 99,
              "position": 2.5,
              "duration": 0.010416666666666666
            },
            {
              "pitch": 36,
              "velocity": 36,
              "position": 2.8125,
              "duration": 0.010416666666666666
            },
            {
              "pitch": 42,
              "velocity": 43,
              "position": 2.8125,
              "duration": 0.010416666666666666
            },
            {
              "pitch": 38,
              "velocity": 100,
              "position": 3,
              "duration": 0.010416666666666666
            },
            {
              "pitch": 42,
              "velocity": 79,
              "position": 3,
              "duration": 0.010416666666666666
            },
            {
              "pitch": 42,
              "velocity": 24,
              "position": 3.3020833333333335,
              "duration": 0.010416666666666666
            },
            {
              "pitch": 42,
              "velocity": 52,
              "position": 3.5,
              "duration": 0.010416666666666666
            },
            {
              "pitch": 42,
              "velocity": 115,
              "position": 3.8020833333333335,
              "duration": 0.010416666666666666
            },
            {
              "pitch": 36,
              "velocity": 98,
              "position": 4,
              "duration": 0.010416666666666666
            },
            {
              "pitch": 42,
              "velocity": 40,
              "position": 4,
              "duration": 0.010416666666666666
            },
            {
              "pitch": 42,
              "velocity": 27,
              "position": 4.302083333333333,
              "duration": 0.010416666666666666
            },
            {
              "pitch": 36,
              "velocity": 28,
              "position": 4.3125,
              "duration": 0.010416666666666666
            },
            {
              "pitch": 42,
              "velocity": 99,
              "position": 4.5,
              "duration": 0.010416666666666666
            },
            {
              "pitch": 42,
              "velocity": 34,
              "position": 4.802083333333333,
              "duration": 0.010416666666666666
            },
            {
              "pitch": 38,
              "velocity": 100,
              "position": 5,
              "duration": 0.010416666666666666
            },
            {
              "pitch": 42,
              "velocity": 83,
              "position": 5,
              "duration": 0.010416666666666666
            },
            {
              "pitch": 42,
              "velocity": 43,
              "position": 5.302083333333333,
              "duration": 0.010416666666666666
            },
            {
              "pitch": 42,
              "velocity": 43,
              "position": 5.5,
              "duration": 0.010416666666666666
            },
            {
              "pitch": 36,
              "velocity": 40,
              "position": 5.8125,
              "duration": 0.010416666666666666
            },
            {
              "pitch": 42,
              "velocity": 113,
              "position": 5.8125,
              "duration": 0.010416666666666666
            },
            {
              "pitch": 36,
              "velocity": 90,
              "position": 6,
              "duration": 0.010416666666666666
            },
            {
              "pitch": 42,
              "velocity": 52,
              "position": 6,
              "duration": 0.010416666666666666
            },
            {
              "pitch": 42,
              "velocity": 30,
              "position": 6.302083333333333,
              "duration": 0.010416666666666666
            },
            {
              "pitch": 42,
              "velocity": 109,
              "position": 6.5,
              "duration": 0.010416666666666666
            },
            {
              "pitch": 42,
              "velocity": 30,
              "position": 6.802083333333333,
              "duration": 0.010416666666666666
            },
            {
              "pitch": 38,
              "velocity": 26,
              "position": 6.8125,
              "duration": 0.010416666666666666
            },
            {
              "pitch": 38,
              "velocity": 100,
              "position": 7,
              "duration": 0.010416666666666666
            },
            {
              "pitch": 42,
              "velocity": 79,
              "position": 7,
              "duration": 0.010416666666666666
            },
            {
              "pitch": 46,
              "velocity": 74,
              "position": 7.291666666666667,
              "duration": 0.010416666666666666
            },
            {
              "pitch": 42,
              "velocity": 80,
              "position": 7.5,
              "duration": 0.010416666666666666
            },
            {
              "pitch": 42,
              "velocity": 60,
              "position": 7.802083333333333,
              "duration": 0.010416666666666666
            },
            {
              "pitch": 36,
              "velocity": 28,
              "position": 7.8125,
              "duration": 0.010416666666666666
            }
          ]
        },
        "10": {
          "ctab": {
            "srcChannel": 10,
            "name": "Bass",
            "accType": "BASS",
            "editable": false,
            "mutedNotes": [],
            "mutedChords": [],
            "autoStart": false,
            "sourceChordNote": 0,
            "sourceChordType": "Maj7",
            "ctb2Low": null,
            "ctb2Main": {
              "ntr": "ROOT_TRANSPOSITION",
              "ntt": "MELODY",
              "bassOn": true,
              "chordRootUpperLimit": 8,
              "noteLowLimit": 28,
              "noteHighLimit": 127,
              "rtr": "PITCH_SHIFT_TO_ROOT"
            },
            "ctb2High": null
          },
          "notes": [
            {
              "pitch": 24,
              "velocity": 60,
              "position": 0,
              "duration": 0.8041666666666667
            },
            {
              "pitch": 24,
              "velocity": 100,
              "position": 0.8125,
              "duration": 0.08333333333333333
            },
            {
              "pitch": 24,
              "velocity": 100,
              "position": 1.8125,
              "duration": 0.08333333333333333
            },
            {
              "pitch": 24,
              "velocity": 60,
              "position": 2,
              "duration": 0.7833333333333333
            },
            {
              "pitch": 24,
              "velocity": 100,
              "position": 2.7916666666666665,
              "duration": 0.08333333333333333
            },
            {
              "pitch": 24,
              "velocity": 100,
              "position": 3.8125,
              "duration": 0.08333333333333333
            },
            {
              "pitch": 24,
              "velocity": 60,
              "position": 4,
              "duration": 0.8041666666666667
            },
            {
              "pitch": 24,
              "velocity": 100,
              "position": 4.8125,
              "duration": 0.08333333333333333
            },
            {
              "pitch": 24,
              "velocity": 100,
              "position": 5.8125,
              "duration": 0.052083333333333336
            },
            {
              "pitch": 24,
              "velocity": 60,
              "position": 6,
              "duration": 0.8041666666666667
            },
            {
              "pitch": 24,
              "velocity": 100,
              "position": 6.8125,
              "duration": 0.08333333333333333
            },
            {
              "pitch": 31,
              "velocity": 55,
              "position": 7.5,
              "duration": 0.4791666666666667
            }
          ]
        },
        "11": {
          "ctab": {
            "srcChannel": 11,
            "name": "Gtr",
            "accType": "CHORD1",
            "editable": false,
            "mutedNotes": [],
            "mutedChords": [],
            "autoStart": false,
            "sourceChordNote": 0,
            "sourceChordType": "Maj7",
            "ctb2Low": null,
            "ctb2Main": {
              "ntr": "ROOT_TRANSPOSITION",
              "ntt": "MELODY",
              "bassOn": false,
              "chordRootUpperLimit": 7,
              "noteLowLimit": 0,
              "noteHighLimit": 127,
              "rtr": "PITCH_SHIFT"
            },
            "ctb2High": null
          },
          "notes": [
            {
              "pitch": 55,
              "velocity": 72,
              "position": 0,
              "duration": 0.010416666666666666
            },
            {
              "pitch": 59,
              "velocity": 72,
              "position": 0,
              "duration": 0.010416666666666666
            },
            {
              "pitch": 60,
              "velocity": 72,
              "position": 0.010416666666666666,
              "duration": 0.010416666666666666
            },
            {
              "pitch": 64,
              "velocity": 72,
              "position": 0.020833333333333332,
              "duration": 0.010416666666666666
            },
            {
              "pitch": 67,
              "velocity": 72,
              "position": 0.03125,
              "duration": 0.010416666666666666
            },
            {
              "pitch": 71,
              "velocity": 72,
              "position": 0.03125,
              "duration": 0.010416666666666666
            },
            {
              "pitch": 67,
              "velocity": 62,
              "position": 0.30833333333333335,
              "duration": 0.010416666666666666
            },
            {
              "pitch": 71,
              "velocity": 62,
              "position": 0.30833333333333335,
              "duration": 0.010416666666666666
            },
            {
              "pitch": 64,
              "velocity": 62,
              "position": 0.31875,
              "duration": 0.010416666666666666
            },
            {
              "pitch": 60,
              "velocity": 62,
              "position": 0.32916666666666666,
              "duration": 0.010416666666666666
            },
            {
              "pitch": 55,
              "velocity": 62,
              "position": 0.33958333333333335,
              "duration": 0.010416666666666666
            },
            {
              "pitch": 59,
              "velocity": 62,
              "position": 0.33958333333333335,
              "duration": 0.010416666666666666
            },
            {
              "pitch": 55,
              "velocity": 50,
              "position": 0.5,
              "duration": 0.7604166666666666
            },
            {
              "pitch": 59,
              "velocity": 50,
              "position": 0.5,
              "duration": 0.7604166666666666
            },
            {
              "pitch": 60,
              "velocity": 52,
              "position": 0.5104166666666666,
              "duration": 0.7604166666666666
            },
            {
              "pitch": 64,
              "velocity": 52,
              "position": 0.5208333333333334,
              "duration": 0.7604166666666666
            },
            {
              "pitch": 67,
              "velocity": 52,
              "position": 0.53125,
              "duration": 0.7604166666666666
            },
            {
              "pitch": 71,
              "velocity": 52,
              "position": 0.53125,
              "duration": 0.7604166666666666
            },
            {
              "pitch": 67,
              "velocity": 70,
              "position": 1.3083333333333333,
              "duration": 0.10416666666666667
            },
            {
              "pitch": 71,
              "velocity": 70,
              "position": 1.3083333333333333,
              "duration": 0.10416666666666667
            },
            {
              "pitch": 64,
              "velocity": 70,
              "position": 1.31875,
              "duration": 0.10416666666666667
            },
            {
              "pitch": 60,
              "velocity": 70,
              "position": 1.3291666666666666,
              "duration": 0.10416666666666667
            },
            {
              "pitch": 55,
              "velocity": 70,
              "position": 1.3395833333333333,
              "duration": 0.10416666666666667
            },
            {
              "pitch": 59,
              "velocity": 70,
              "position": 1.3395833333333333,
              "duration": 0.10416666666666667
            },
            {
              "pitch": 55,
              "velocity": 35,
              "position": 1.8395833333333333,
              "duration": 0.15625
            },
            {
              "pitch": 59,
              "velocity": 35,
              "position": 1.8395833333333333,
              "duration": 0.15625
            },
            {
              "pitch": 60,
              "velocity": 32,
              "position": 1.8291666666666666,
              "duration": 0.16666666666666666
            },
            {
              "pitch": 64,
              "velocity": 32,
              "position": 1.81875,
              "duration": 0.17708333333333334
            },
            {
              "pitch": 67,
              "velocity": 32,
              "position": 1.8083333333333333,
              "duration": 0.1875
            },
            {
              "pitch": 71,
              "velocity": 32,
              "position": 1.8083333333333333,
              "duration": 0.1875
            },
            {
              "pitch": 55,
              "velocity": 50,
              "position": 2,
              "duration": 0.78125
            },
            {
              "pitch": 59,
              "velocity": 50,
              "position": 2,
              "duration": 0.78125
            },
            {
              "pitch": 60,
              "velocity": 52,
              "position": 2.0104166666666665,
              "duration": 0.78125
            },
            {
              "pitch": 64,
              "velocity": 52,
              "position": 2.0208333333333335,
              "duration": 0.78125
            },
            {
              "pitch": 67,
              "velocity": 52,
              "position": 2.03125,
              "duration": 0.7708333333333334
            },
            {
              "pitch": 71,
              "velocity": 52,
              "position": 2.03125,
              "duration": 0.7708333333333334
            },
            {
              "pitch": 67,
              "velocity": 55,
              "position": 2.808333333333333,
              "duration": 0.11458333333333333
            },
            {
              "pitch": 71,
              "velocity": 55,
              "position": 2.808333333333333,
              "duration": 0.11458333333333333
            },
            {
              "pitch": 64,
              "velocity": 55,
              "position": 2.81875,
              "duration": 0.11458333333333333
            },
            {
              "pitch": 60,
              "velocity": 55,
              "position": 2.8291666666666666,
              "duration": 0.11458333333333333
            },
            {
              "pitch": 55,
              "velocity": 55,
              "position": 2.839583333333333,
              "duration": 0.11458333333333333
            },
            {
              "pitch": 59,
              "velocity": 55,
              "position": 2.839583333333333,
              "duration": 0.11458333333333333
            },
            {
              "pitch": 55,
              "velocity": 72,
              "position": 3,
              "duration": 0.010416666666666666
            },
            {
              "pitch": 59,
              "velocity": 72,
              "position": 3,
              "duration": 0.010416666666666666
            },
            {
              "pitch": 60,
              "velocity": 72,
              "position": 3.0104166666666665,
              "duration": 0.010416666666666666
            },
            {
              "pitch": 64,
              "velocity": 72,
              "position": 3.0208333333333335,
              "duration": 0.010416666666666666
            },
            {
              "pitch": 67,
              "velocity": 72,
              "position": 3.03125,
              "duration": 0.010416666666666666
            },
            {
              "pitch": 71,
              "velocity": 72,
              "position": 3.03125,
              "duration": 0.010416666666666666
            },
            {
              "pitch": 67,
              "velocity": 65,
              "position": 3.308333333333333,
              "duration": 0.010416666666666666
            },
            {
              "pitch": 71,
              "velocity": 65,
              "position": 3.308333333333333,
              "duration": 0.010416666666666666
            },
            {
              "pitch": 64,
              "velocity": 65,
              "position": 3.31875,
              "duration": 0.010416666666666666
            },
            {
              "pitch": 60,
              "velocity": 65,
              "position": 3.3291666666666666,
              "duration": 0.010416666666666666
            },
            {
              "pitch": 55,
              "velocity": 65,
              "position": 3.339583333333333,
              "duration": 0.010416666666666666
            },
            {
              "pitch": 59,
              "velocity": 65,
              "position": 3.339583333333333,
              "duration": 0.010416666666666666
            },
            {
              "pitch": 55,
              "velocity": 52,
              "position": 3.5,
              "duration": 0.28125
            },
            {
              "pitch": 59,
              "velocity": 52,
              "position": 3.5,
              "duration": 0.28125
            },
            {
              "pitch": 60,
              "velocity": 52,
              "position": 3.5104166666666665,
              "duration": 0.28125
            },
            {
              "pitch": 67,
              "velocity": 52,
              "position": 3.53125,
              "duration": 0.26666666666666666
            },
            {
              "pitch": 71,
              "velocity": 52,
              "position": 3.53125,
              "duration": 0.26666666666666666
            },
            {
              "pitch": 64,
              "velocity": 52,
              "position": 3.5208333333333335,
              "duration": 0.28125
            },
            {
              "pitch": 67,
              "velocity": 52,
              "position": 3.808333333333333,
              "duration": 0.10416666666666667
            },
            {
              "pitch": 71,
              "velocity": 52,
              "position": 3.808333333333333,
              "duration": 0.10416666666666667
            },
            {
              "pitch": 64,
              "velocity": 52,
              "position": 3.81875,
              "duration": 0.10416666666666667
            },
            {
              "pitch": 60,
              "velocity": 52,
              "position": 3.8291666666666666,
              "duration": 0.10416666666666667
            },
            {
              "pitch": 55,
              "velocity": 52,
              "position": 3.839583333333333,
              "duration": 0.10416666666666667
            },
            {
              "pitch": 59,
              "velocity": 52,
              "position": 3.839583333333333,
              "duration": 0.10416666666666667
            },
            {
              "pitch": 55,
              "velocity": 71,
              "position": 4,
              "duration": 0.010416666666666666
            },
            {
              "pitch": 59,
              "velocity": 71,
              "position": 4,
              "duration": 0.010416666666666666
            },
            {
              "pitch": 60,
              "velocity": 71,
              "position": 4.010416666666667,
              "duration": 0.010416666666666666
            },
            {
              "pitch": 64,
              "velocity": 71,
              "position": 4.020833333333333,
              "duration": 0.010416666666666666
            },
            {
              "pitch": 67,
              "velocity": 71,
              "position": 4.03125,
              "duration": 0.010416666666666666
            },
            {
              "pitch": 71,
              "velocity": 71,
              "position": 4.03125,
              "duration": 0.010416666666666666
            },
            {
              "pitch": 67,
              "velocity": 57,
              "position": 4.308333333333334,
              "duration": 0.10416666666666667
            },
            {
              "pitch": 71,
              "velocity": 57,
              "position": 4.308333333333334,
              "duration": 0.10416666666666667
            },
            {
              "pitch": 64,
              "velocity": 57,
              "position": 4.31875,
              "duration": 0.10416666666666667
            },
            {
              "pitch": 60,
              "velocity": 57,
              "position": 4.329166666666667,
              "duration": 0.10416666666666667
            },
            {
              "pitch": 55,
              "velocity": 57,
              "position": 4.339583333333334,
              "duration": 0.10416666666666667
            },
            {
              "pitch": 59,
              "velocity": 57,
              "position": 4.339583333333334,
              "duration": 0.10416666666666667
            },
            {
              "pitch": 67,
              "velocity": 71,
              "position": 4.808333333333334,
              "duration": 0.010416666666666666
            },
            {
              "pitch": 71,
              "velocity": 71,
              "position": 4.808333333333334,
              "duration": 0.010416666666666666
            },
            {
              "pitch": 64,
              "velocity": 71,
              "position": 4.81875,
              "duration": 0.010416666666666666
            },
            {
              "pitch": 60,
              "velocity": 71,
              "position": 4.829166666666667,
              "duration": 0.010416666666666666
            },
            {
              "pitch": 55,
              "velocity": 71,
              "position": 4.839583333333334,
              "duration": 0.010416666666666666
            },
            {
              "pitch": 59,
              "velocity": 71,
              "position": 4.839583333333334,
              "duration": 0.010416666666666666
            },
            {
              "pitch": 55,
              "velocity": 50,
              "position": 5,
              "duration": 0.28125
            },
            {
              "pitch": 59,
              "velocity": 50,
              "position": 5,
              "duration": 0.28125
            },
            {
              "pitch": 60,
              "velocity": 52,
              "position": 5.010416666666667,
              "duration": 0.28125
            },
            {
              "pitch": 64,
              "velocity": 52,
              "position": 5.020833333333333,
              "duration": 0.28125
            },
            {
              "pitch": 67,
              "velocity": 52,
              "position": 5.03125,
              "duration": 0.2708333333333333
            },
            {
              "pitch": 71,
              "velocity": 52,
              "position": 5.03125,
              "duration": 0.2708333333333333
            },
            {
              "pitch": 67,
              "velocity": 40,
              "position": 5.308333333333334,
              "duration": 0.10416666666666667
            },
            {
              "pitch": 71,
              "velocity": 40,
              "position": 5.308333333333334,
              "duration": 0.10416666666666667
            },
            {
              "pitch": 64,
              "velocity": 40,
              "position": 5.31875,
              "duration": 0.10416666666666667
            },
            {
              "pitch": 60,
              "velocity": 40,
              "position": 5.329166666666667,
              "duration": 0.10416666666666667
            },
            {
              "pitch": 55,
              "velocity": 40,
              "position": 5.339583333333334,
              "duration": 0.10416666666666667
            },
            {
              "pitch": 59,
              "velocity": 40,
              "position": 5.339583333333334,
              "duration": 0.10416666666666667
            },
            {
              "pitch": 55,
              "velocity": 71,
              "position": 5.5,
              "duration": 0.010416666666666666
            },
            {
              "pitch": 59,
              "velocity": 71,
              "position": 5.5,
              "duration": 0.010416666666666666
            },
            {
              "pitch": 60,
              "velocity": 71,
              "position": 5.510416666666667,
              "duration": 0.010416666666666666
            },
            {
              "pitch": 64,
              "velocity": 71,
              "position": 5.520833333333333,
              "duration": 0.010416666666666666
            },
            {
              "pitch": 67,
              "velocity": 71,
              "position": 5.53125,
              "duration": 0.010416666666666666
            },
            {
              "pitch": 71,
              "velocity": 71,
              "position": 5.53125,
              "duration": 0.010416666666666666
            },
            {
              "pitch": 67,
              "velocity": 69,
              "position": 5.808333333333334,
              "duration": 0.010416666666666666
            },
            {
              "pitch": 71,
              "velocity": 69,
              "position": 5.808333333333334,
              "duration": 0.010416666666666666
            },
            {
              "pitch": 64,
              "velocity": 69,
              "position": 5.81875,
              "duration": 0.010416666666666666
            },
            {
              "pitch": 60,
              "velocity": 69,
              "position": 5.829166666666667,
              "duration": 0.010416666666666666
            },
            {
              "pitch": 55,
              "velocity": 69,
              "position": 5.839583333333334,
              "duration": 0.010416666666666666
            },
            {
              "pitch": 59,
              "velocity": 69,
              "position": 5.839583333333334,
              "duration": 0.010416666666666666
            },
            {
              "pitch": 55,
              "velocity": 55,
              "position": 6,
              "duration": 0.22916666666666666
            },
            {
              "pitch": 59,
              "velocity": 55,
              "position": 6,
              "duration": 0.22916666666666666
            },
            {
              "pitch": 60,
              "velocity": 57,
              "position": 6.010416666666667,
              "duration": 0.22916666666666666
            },
            {
              "pitch": 64,
              "velocity": 57,
              "position": 6.020833333333333,
              "duration": 0.22916666666666666
            },
            {
              "pitch": 67,
              "velocity": 57,
              "position": 6.03125,
              "duration": 0.22916666666666666
            },
            {
              "pitch": 71,
              "velocity": 57,
              "position": 6.03125,
              "duration": 0.22916666666666666
            },
            {
              "pitch": 67,
              "velocity": 71,
              "position": 6.308333333333334,
              "duration": 0.010416666666666666
            },
            {
              "pitch": 71,
              "velocity": 71,
              "position": 6.308333333333334,
              "duration": 0.010416666666666666
            },
            {
              "pitch": 64,
              "velocity": 71,
              "position": 6.31875,
              "duration": 0.010416666666666666
            },
            {
              "pitch": 60,
              "velocity": 71,
              "position": 6.329166666666667,
              "duration": 0.010416666666666666
            },
            {
              "pitch": 55,
              "velocity": 71,
              "position": 6.339583333333334,
              "duration": 0.010416666666666666
            },
            {
              "pitch": 59,
              "velocity": 71,
              "position": 6.339583333333334,
              "duration": 0.010416666666666666
            },
            {
              "pitch": 55,
              "velocity": 71,
              "position": 6.5,
              "duration": 0.010416666666666666
            },
            {
              "pitch": 59,
              "velocity": 71,
              "position": 6.5,
              "duration": 0.010416666666666666
            },
            {
              "pitch": 60,
              "velocity": 71,
              "position": 6.520833333333333,
              "duration": 0.010416666666666666
            },
            {
              "pitch": 64,
              "velocity": 71,
              "position": 6.53125,
              "duration": 0.010416666666666666
            },
            {
              "pitch": 67,
              "velocity": 71,
              "position": 6.53125,
              "duration": 0.010416666666666666
            },
            {
              "pitch": 71,
              "velocity": 71,
              "position": 6.53125,
              "duration": 0.010416666666666666
            },
            {
              "pitch": 67,
              "velocity": 69,
              "position": 6.808333333333334,
              "duration": 0.15625
            },
            {
              "pitch": 71,
              "velocity": 69,
              "position": 6.808333333333334,
              "duration": 0.15625
            },
            {
              "pitch": 64,
              "velocity": 69,
              "position": 6.81875,
              "duration": 0.15625
            },
            {
              "pitch": 60,
              "velocity": 69,
              "position": 6.829166666666667,
              "duration": 0.15625
            },
            {
              "pitch": 55,
              "velocity": 69,
              "position": 6.839583333333334,
              "duration": 0.15625
            },
            {
              "pitch": 59,
              "velocity": 69,
              "position": 6.839583333333334,
              "duration": 0.15625
            },
            {
              "pitch": 55,
              "velocity": 71,
              "position": 7,
              "duration": 0.010416666666666666
            },
            {
              "pitch": 59,
              "velocity": 71,
              "position": 7,
              "duration": 0.010416666666666666
            },
            {
              "pitch": 60,
              "velocity": 71,
              "position": 7.010416666666667,
              "duration": 0.010416666666666666
            },
            {
              "pitch": 64,
              "velocity": 71,
              "position": 7.020833333333333,
              "duration": 0.010416666666666666
            },
            {
              "pitch": 67,
              "velocity": 71,
              "position": 7.03125,
              "duration": 0.010416666666666666
            },
            {
              "pitch": 71,
              "velocity": 71,
              "position": 7.03125,
              "duration": 0.010416666666666666
            },
            {
              "pitch": 55,
              "velocity": 55,
              "position": 7.339583333333334,
              "duration": 0.15208333333333332
            },
            {
              "pitch": 59,
              "velocity": 55,
              "position": 7.339583333333334,
              "duration": 0.15208333333333332
            },
            {
              "pitch": 60,
              "velocity": 57,
              "position": 7.329166666666667,
              "duration": 0.16666666666666666
            },
            {
              "pitch": 64,
              "velocity": 57,
              "position": 7.31875,
              "duration": 0.19375
            },
            {
              "pitch": 67,
              "velocity": 57,
              "position": 7.308333333333334,
              "duration": 0.21458333333333332
            },
            {
              "pitch": 71,
              "velocity": 57,
              "position": 7.308333333333334,
              "duration": 0.21458333333333332
            },
            {
              "pitch": 55,
              "velocity": 40,
              "position": 7.5,
              "duration": 0.10416666666666667
            },
            {
              "pitch": 59,
              "velocity": 40,
              "position": 7.5,
              "duration": 0.10416666666666667
            },
            {
              "pitch": 60,
              "velocity": 42,
              "position": 7.510416666666667,
              "duration": 0.10416666666666667
            },
            {
              "pitch": 64,
              "velocity": 42,
              "position": 7.520833333333333,
              "duration": 0.10416666666666667
            },
            {
              "pitch": 67,
              "velocity": 42,
              "position": 7.53125,
              "duration": 0.10416666666666667
            },
            {
              "pitch": 71,
              "velocity": 42,
              "position": 7.53125,
              "duration": 0.10416666666666667
            },
            {
              "pitch": 67,
              "velocity": 71,
              "position": 7.808333333333334,
              "duration": 0.020833333333333332
            },
            {
              "pitch": 71,
              "velocity": 71,
              "position": 7.808333333333334,
              "duration": 0.020833333333333332
            },
            {
              "pitch": 64,
              "velocity": 71,
              "position": 7.81875,
              "duration": 0.020833333333333332
            },
            {
              "pitch": 60,
              "velocity": 71,
              "position": 7.829166666666667,
              "duration": 0.020833333333333332
            },
            {
              "pitch": 55,
              "velocity": 71,
              "position": 7.839583333333334,
              "duration": 0.020833333333333332
            },
            {
              "pitch": 59,
              "velocity": 71,
              "position": 7.839583333333334,
              "duration": 0.020833333333333332
            }
          ]
        },
        "12": {
          "ctab": {
            "srcChannel": 12,
            "name": "EP",
            "accType": "CHORD2",
            "editable": false,
            "mutedNotes": [],
            "mutedChords": [],
            "autoStart": false,
            "sourceChordNote": 0,
            "sourceChordType": "Maj7",
            "ctb2Low": null,
            "ctb2Main": {
              "ntr": "ROOT_FIXED",
              "ntt": "CHORD",
              "bassOn": false,
              "chordRootUpperLimit": 7,
              "noteLowLimit": 0,
              "noteHighLimit": 127,
              "rtr": "PITCH_SHIFT"
            },
            "ctb2High": null
          },
          "notes": [
            {
              "pitch": 64,
              "velocity": 102,
              "position": 0,
              "duration": 2.0875
            },
            {
              "pitch": 55,
              "velocity": 100,
              "position": 0,
              "duration": 2.125
            },
            {
              "pitch": 59,
              "velocity": 102,
              "position": 0,
              "duration": 2.15
            },
            {
              "pitch": 55,
              "velocity": 98,
              "position": 2.5,
              "duration": 0.0625
            },
            {
              "pitch": 64,
              "velocity": 98,
              "position": 2.5,
              "duration": 0.09791666666666667
            },
            {
              "pitch": 59,
              "velocity": 94,
              "position": 2.5,
              "duration": 0.10625
            },
            {
              "pitch": 55,
              "velocity": 91,
              "position": 3.308333333333333,
              "duration": 0.05625
            },
            {
              "pitch": 59,
              "velocity": 94,
              "position": 3.308333333333333,
              "duration": 0.09583333333333334
            },
            {
              "pitch": 64,
              "velocity": 100,
              "position": 3.308333333333333,
              "duration": 0.13541666666666666
            },
            {
              "pitch": 55,
              "velocity": 94,
              "position": 4,
              "duration": 2.720833333333333
            },
            {
              "pitch": 64,
              "velocity": 98,
              "position": 4,
              "duration": 2.745833333333333
            },
            {
              "pitch": 59,
              "velocity": 89,
              "position": 4,
              "duration": 2.747916666666667
            },
            {
              "pitch": 59,
              "velocity": 113,
              "position": 7,
              "duration": 0.12708333333333333
            },
            {
              "pitch": 55,
              "velocity": 91,
              "position": 7,
              "duration": 0.13125
            },
            {
              "pitch": 64,
              "velocity": 100,
              "position": 7,
              "duration": 0.15416666666666667
            }
          ]
        },
        "13": {
          "ctab": {
            "srcChannel": 13,
            "name": "Pad",
            "accType": "PAD",
            "editable": false,
            "mutedNotes": [],
            "mutedChords": [],
            "autoStart": false,
            "sourceChordNote": 0,
            "sourceChordType": "Maj7",
            "ctb2Low": null,
            "ctb2Main": {
              "ntr": "ROOT_FIXED",
              "ntt": "CHORD",
              "bassOn": false,
              "chordRootUpperLimit": 7,
              "noteLowLimit": 0,
              "noteHighLimit": 127,
              "rtr": "PITCH_SHIFT"
            },
            "ctb2High": null
          },
          "notes": [
            {
              "pitch": 55,
              "velocity": 42,
              "position": 0,
              "duration": 7.979166666666667
            },
            {
              "pitch": 64,
              "velocity": 42,
              "position": 0,
              "duration": 7.979166666666667
            },
            {
              "pitch": 59,
              "velocity": 42,
              "position": 0,
              "duration": 7.979166666666667
            }
          ]
        },
        "14": {
          "ctab": {
            "srcChannel": 14,
            "name": "Mute",
            "accType": "PHRASE1",
            "editable": false,
            "mutedNotes": [],
            "mutedChords": [
              "Maj7aug",
              "minMaj7(9)",
              "minMaj7",
              "Maj7(9)",
              "Maj7#11",
              "Maj7"
            ],
            "autoStart": false,
            "sourceChordNote": 0,
            "sourceChordType": "Maj7",
            "ctb2Low": null,
            "ctb2Main": {
              "ntr": "ROOT_TRANSPOSITION",
              "ntt": "CHORD",
              "bassOn": false,
              "chordRootUpperLimit": 3,
              "noteLowLimit": 0,
              "noteHighLimit": 127,
              "rtr": "PITCH_SHIFT"
            },
            "ctb2High": null
          },
          "notes": [
            {
              "pitch": 72,
              "velocity": 41,
              "position": 7.808333333333334,
              "duration": 0.17083333333333334
            },
            {
              "pitch": 115,
              "velocity": 75,
              "position": 7.808333333333334,
              "duration": 0.175
            },
            {
              "pitch": 60,
              "velocity": 41,
              "position": 7.829166666666667,
              "duration": 0.1625
            }
          ]
        }
      }
    },
    "Main_C": {
      "type": "Main_C",
      "sizeInBeats": 8,
      "channels": {
        "3": {
          "ctab": {
            "srcChannel": 3,
            "name": "EP Rt",
            "accType": "CHORD2",
            "editable": true,
            "mutedNotes": [],
            "mutedChords": [
              "1+2+5",
              "sus4",
              "1+5",
              "1+8",
              "Maj7aug",
              "dim",
              "minMaj7(9)",
              "minMaj7",
              "min6",
              "min",
              "aug",
              "Maj7(9)",
              "Maj7#11",
              "Maj7",
              "Maj6",
              "Maj"
            ],
            "autoStart": false,
            "sourceChordNote": 0,
            "sourceChordType": "Maj7",
            "ctb2Low": null,
            "ctb2Main": {
              "ntr": "ROOT_TRANSPOSITION",
              "ntt": "CHORD",
              "bassOn": false,
              "chordRootUpperLimit": 7,
              "noteLowLimit": 0,
              "noteHighLimit": 127,
              "rtr": "PITCH_SHIFT"
            },
            "ctb2High": null
          },
          "notes": [
            {
              "pitch": 60,
              "velocity": 102,
              "position": 0,
              "duration": 1.2375
            },
            {
              "pitch": 60,
              "velocity": 94,
              "position": 1.5,
              "duration": 0.08958333333333333
            },
            {
              "pitch": 60,
              "velocity": 96,
              "position": 2.5,
              "duration": 0.12916666666666668
            },
            {
              "pitch": 60,
              "velocity": 96,
              "position": 3.308333333333333,
              "duration": 0.14583333333333334
            },
            {
              "pitch": 60,
              "velocity": 94,
              "position": 4,
              "duration": 1.3208333333333333
            },
            {
              "pitch": 60,
              "velocity": 91,
              "position": 5.5,
              "duration": 0.1625
            },
            {
              "pitch": 60,
              "velocity": 105,
              "position": 6.5,
              "duration": 0.14791666666666667
            },
            {
              "pitch": 60,
              "velocity": 96,
              "position": 7.308333333333334,
              "duration": 0.11041666666666666
            }
          ]
        },
        "4": {
          "ctab": {
            "srcChannel": 4,
            "name": "Pad",
            "accType": "PAD",
            "editable": false,
            "mutedNotes": [],
            "mutedChords": [
              "1+2+5",
              "sus4",
              "1+5",
              "1+8",
              "Maj7aug",
              "dim",
              "minMaj7(9)",
              "minMaj7",
              "min6",
              "min",
              "aug",
              "Maj7(9)",
              "Maj7#11",
              "Maj7",
              "Maj6",
              "Maj"
            ],
            "autoStart": false,
            "sourceChordNote": 0,
            "sourceChordType": "Maj7",
            "ctb2Low": null,
            "ctb2Main": {
              "ntr": "ROOT_TRANSPOSITION",
              "ntt": "MELODY",
              "bassOn": false,
              "chordRootUpperLimit": 6,
              "noteLowLimit": 0,
              "noteHighLimit": 127,
              "rtr": "PITCH_SHIFT"
            },
            "ctb2High": null
          },
          "notes": [
            {
              "pitch": 60,
              "velocity": 69,
              "position": 0,
              "duration": 7.979166666666667
            }
          ]
        },
        "5": {
          "ctab": {
            "srcChannel": 5,
            "name": "Mute",
            "accType": "PHRASE1",
            "editable": false,
            "mutedNotes": [],
            "mutedChords": [
              "1+2+5",
              "sus4",
              "1+5",
              "1+8",
              "7aug",
              "7(#9)",
              "7(b13)",
              "7(b9)",
              "7(13)",
              "7#11",
              "7(9)",
              "7b5",
              "7sus4",
              "7th",
              "dim7",
              "dim",
              "min7(11)",
              "min7(9)",
              "min(9)",
              "m7b5",
              "min7",
              "min6",
              "min",
              "aug",
              "Maj6(9)",
              "Maj(9)",
              "Maj6",
              "Maj"
            ],
            "autoStart": false,
            "sourceChordNote": 0,
            "sourceChordType": "Maj7",
            "ctb2Low": null,
            "ctb2Main": {
              "ntr": "ROOT_TRANSPOSITION",
              "ntt": "CHORD",
              "bassOn": false,
              "chordRootUpperLimit": 3,
              "noteLowLimit": 0,
              "noteHighLimit": 127,
              "rtr": "PITCH_SHIFT"
            },
            "ctb2High": null
          },
          "notes": [
            {
              "pitch": 59,
              "velocity": 85,
              "position": 0,
              "duration": 0.0625
            },
            {
              "pitch": 115,
              "velocity": 75,
              "position": 0,
              "duration": 0.0625
            },
            {
              "pitch": 59,
              "velocity": 85,
              "position": 0.8083333333333333,
              "duration": 0.0625
            },
            {
              "pitch": 114,
              "velocity": 75,
              "position": 0.8083333333333333,
              "duration": 0.0625
            },
            {
              "pitch": 59,
              "velocity": 85,
              "position": 1.3083333333333333,
              "duration": 0.14583333333333334
            },
            {
              "pitch": 115,
              "velocity": 75,
              "position": 1.3083333333333333,
              "duration": 0.14583333333333334
            },
            {
              "pitch": 59,
              "velocity": 85,
              "position": 1.5,
              "duration": 0.03125
            },
            {
              "pitch": 114,
              "velocity": 75,
              "position": 1.5,
              "duration": 0.03125
            },
            {
              "pitch": 59,
              "velocity": 85,
              "position": 1.8083333333333333,
              "duration": 0.125
            },
            {
              "pitch": 115,
              "velocity": 75,
              "position": 1.8083333333333333,
              "duration": 0.125
            },
            {
              "pitch": 59,
              "velocity": 85,
              "position": 2.308333333333333,
              "duration": 0.125
            },
            {
              "pitch": 115,
              "velocity": 75,
              "position": 2.308333333333333,
              "duration": 0.125
            },
            {
              "pitch": 71,
              "velocity": 41,
              "position": 3.808333333333333,
              "duration": 0.17083333333333334
            },
            {
              "pitch": 115,
              "velocity": 75,
              "position": 3.808333333333333,
              "duration": 0.175
            },
            {
              "pitch": 59,
              "velocity": 41,
              "position": 3.8291666666666666,
              "duration": 0.1625
            },
            {
              "pitch": 59,
              "velocity": 85,
              "position": 4.5,
              "duration": 0.010416666666666666
            },
            {
              "pitch": 115,
              "velocity": 75,
              "position": 4.5,
              "duration": 0.010416666666666666
            },
            {
              "pitch": 59,
              "velocity": 85,
              "position": 4.808333333333334,
              "duration": 0.0625
            },
            {
              "pitch": 114,
              "velocity": 75,
              "position": 4.808333333333334,
              "duration": 0.0625
            },
            {
              "pitch": 59,
              "velocity": 85,
              "position": 5.308333333333334,
              "duration": 0.14583333333333334
            },
            {
              "pitch": 114,
              "velocity": 75,
              "position": 5.308333333333334,
              "duration": 0.14583333333333334
            },
            {
              "pitch": 59,
              "velocity": 85,
              "position": 5.5,
              "duration": 0.03125
            },
            {
              "pitch": 115,
              "velocity": 75,
              "position": 5.5,
              "duration": 0.03125
            },
            {
              "pitch": 59,
              "velocity": 85,
              "position": 5.808333333333334,
              "duration": 0.125
            },
            {
              "pitch": 114,
              "velocity": 75,
              "position": 5.808333333333334,
              "duration": 0.125
            },
            {
              "pitch": 59,
              "velocity": 85,
              "position": 6.308333333333334,
              "duration": 0.125
            },
            {
              "pitch": 114,
              "velocity": 75,
              "position": 6.308333333333334,
              "duration": 0.125
            },
            {
              "pitch": 71,
              "velocity": 41,
              "position": 7.808333333333334,
              "duration": 0.17083333333333334
            },
            {
              "pitch": 115,
              "velocity": 75,
              "position": 7.808333333333334,
              "duration": 0.175
            },
            {
              "pitch": 59,
              "velocity": 41,
              "position": 7.829166666666667,
              "duration": 0.1625
            }
          ]
        },
        "8": {
          "ctab": {
            "srcChannel": 8,
            "name": "Rhyth1",
            "accType": "SUBRHYTHM",
            "editable": false,
            "mutedNotes": [],
            "mutedChords": [],
            "autoStart": true,
            "sourceChordNote": 0,
            "sourceChordType": "Maj7",
            "ctb2Low": null,
            "ctb2Main": {
              "ntr": "ROOT_FIXED",
              "ntt": "BYPASS",
              "bassOn": false,
              "chordRootUpperLimit": 6,
              "noteLowLimit": 0,
              "noteHighLimit": 127,
              "rtr": "PITCH_SHIFT"
            },
            "ctb2High": null
          },
          "notes": [
            {
              "pitch": 54,
              "velocity": 12,
              "position": 0,
              "duration": 0.010416666666666666
            },
            {
              "pitch": 54,
              "velocity": 72,
              "position": 0.5,
              "duration": 0.010416666666666666
            },
            {
              "pitch": 54,
              "velocity": 72,
              "position": 1.5,
              "duration": 0.010416666666666666
            },
            {
              "pitch": 54,
              "velocity": 72,
              "position": 2.5,
              "duration": 0.010416666666666666
            },
            {
              "pitch": 54,
              "velocity": 72,
              "position": 3.5,
              "duration": 0.010416666666666666
            },
            {
              "pitch": 54,
              "velocity": 12,
              "position": 4,
              "duration": 0.010416666666666666
            },
            {
              "pitch": 54,
              "velocity": 72,
              "position": 4.5,
              "duration": 0.010416666666666666
            },
            {
              "pitch": 54,
              "velocity": 72,
              "position": 5.5,
              "duration": 0.010416666666666666
            },
            {
              "pitch": 54,
              "velocity": 72,
              "position": 6.5,
              "duration": 0.010416666666666666
            },
            {
              "pitch": 54,
              "velocity": 72,
              "position": 7.5,
              "duration": 0.010416666666666666
            }
          ]
        },
        "9": {
          "ctab": {
            "srcChannel": 9,
            "name": "Rhyth2",
            "accType": "RHYTHM",
            "editable": false,
            "mutedNotes": [],
            "mutedChords": [],
            "autoStart": true,
            "sourceChordNote": 0,
            "sourceChordType": "Maj7",
            "ctb2Low": null,
            "ctb2Main": {
              "ntr": "ROOT_FIXED",
              "ntt": "BYPASS",
              "bassOn": false,
              "chordRootUpperLimit": 6,
              "noteLowLimit": 0,
              "noteHighLimit": 127,
              "rtr": "PITCH_SHIFT"
            },
            "ctb2High": null
          },
          "notes": [
            {
              "pitch": 36,
              "velocity": 99,
              "position": 0,
              "duration": 0.010416666666666666
            },
            {
              "pitch": 42,
              "velocity": 101,
              "position": 0,
              "duration": 0.010416666666666666
            },
            {
              "pitch": 42,
              "velocity": 53,
              "position": 0.5,
              "duration": 0.010416666666666666
            },
            {
              "pitch": 42,
              "velocity": 37,
              "position": 0.8125,
              "duration": 0.010416666666666666
            },
            {
              "pitch": 38,
              "velocity": 102,
              "position": 1,
              "duration": 0.010416666666666666
            },
            {
              "pitch": 42,
              "velocity": 124,
              "position": 1,
              "duration": 0.010416666666666666
            },
            {
              "pitch": 42,
              "velocity": 48,
              "position": 1.5,
              "duration": 0.010416666666666666
            },
            {
              "pitch": 36,
              "velocity": 42,
              "position": 1.8125,
              "duration": 0.010416666666666666
            },
            {
              "pitch": 36,
              "velocity": 85,
              "position": 2,
              "duration": 0.010416666666666666
            },
            {
              "pitch": 42,
              "velocity": 90,
              "position": 2,
              "duration": 0.010416666666666666
            },
            {
              "pitch": 42,
              "velocity": 57,
              "position": 2.5,
              "duration": 0.010416666666666666
            },
            {
              "pitch": 36,
              "velocity": 27,
              "position": 2.8125,
              "duration": 0.010416666666666666
            },
            {
              "pitch": 42,
              "velocity": 57,
              "position": 2.8125,
              "duration": 0.010416666666666666
            },
            {
              "pitch": 38,
              "velocity": 102,
              "position": 3,
              "duration": 0.010416666666666666
            },
            {
              "pitch": 42,
              "velocity": 121,
              "position": 3,
              "duration": 0.010416666666666666
            },
            {
              "pitch": 42,
              "velocity": 36,
              "position": 3.3020833333333335,
              "duration": 0.010416666666666666
            },
            {
              "pitch": 42,
              "velocity": 79,
              "position": 3.5,
              "duration": 0.010416666666666666
            },
            {
              "pitch": 46,
              "velocity": 82,
              "position": 3.8020833333333335,
              "duration": 0.010416666666666666
            },
            {
              "pitch": 36,
              "velocity": 98,
              "position": 4,
              "duration": 0.010416666666666666
            },
            {
              "pitch": 42,
              "velocity": 97,
              "position": 4,
              "duration": 0.010416666666666666
            },
            {
              "pitch": 42,
              "velocity": 57,
              "position": 4.5,
              "duration": 0.010416666666666666
            },
            {
              "pitch": 38,
              "velocity": 102,
              "position": 5,
              "duration": 0.010416666666666666
            },
            {
              "pitch": 42,
              "velocity": 120,
              "position": 5,
              "duration": 0.010416666666666666
            },
            {
              "pitch": 42,
              "velocity": 64,
              "position": 5.5,
              "duration": 0.010416666666666666
            },
            {
              "pitch": 36,
              "velocity": 40,
              "position": 5.8125,
              "duration": 0.010416666666666666
            },
            {
              "pitch": 42,
              "velocity": 41,
              "position": 5.8125,
              "duration": 0.010416666666666666
            },
            {
              "pitch": 36,
              "velocity": 90,
              "position": 6,
              "duration": 0.010416666666666666
            },
            {
              "pitch": 42,
              "velocity": 120,
              "position": 6,
              "duration": 0.010416666666666666
            },
            {
              "pitch": 42,
              "velocity": 66,
              "position": 6.5,
              "duration": 0.010416666666666666
            },
            {
              "pitch": 38,
              "velocity": 35,
              "position": 6.8125,
              "duration": 0.010416666666666666
            },
            {
              "pitch": 38,
              "velocity": 102,
              "position": 7,
              "duration": 0.010416666666666666
            },
            {
              "pitch": 42,
              "velocity": 116,
              "position": 7,
              "duration": 0.010416666666666666
            },
            {
              "pitch": 46,
              "velocity": 80,
              "position": 7.291666666666667,
              "duration": 0.010416666666666666
            },
            {
              "pitch": 42,
              "velocity": 96,
              "position": 7.5,
              "duration": 0.010416666666666666
            },
            {
              "pitch": 36,
              "velocity": 28,
              "position": 7.8125,
              "duration": 0.010416666666666666
            }
          ]
        },
        "10": {
          "ctab": {
            "srcChannel": 10,
            "name": "Bass",
            "accType": "BASS",
            "editable": false,
            "mutedNotes": [],
            "mutedChords": [],
            "autoStart": false,
            "sourceChordNote": 0,
            "sourceChordType": "Maj7",
            "ctb2Low": null,
            "ctb2Main": {
              "ntr": "ROOT_TRANSPOSITION",
              "ntt": "MELODY",
              "bassOn": true,
              "chordRootUpperLimit": 8,
              "noteLowLimit": 28,
              "noteHighLimit": 127,
              "rtr": "PITCH_SHIFT_TO_ROOT"
            },
            "ctb2High": null
          },
          "notes": [
            {
              "pitch": 24,
              "velocity": 60,
              "position": 0,
              "duration": 0.9875
            },
            {
              "pitch": 36,
              "velocity": 100,
              "position": 1,
              "duration": 0.09375
            },
            {
              "pitch": 24,
              "velocity": 100,
              "position": 1.8125,
              "duration": 0.08333333333333333
            },
            {
              "pitch": 24,
              "velocity": 60,
              "position": 2,
              "duration": 0.9375
            },
            {
              "pitch": 36,
              "velocity": 100,
              "position": 3,
              "duration": 0.09375
            },
            {
              "pitch": 24,
              "velocity": 42,
              "position": 3.8125,
              "duration": 0.08333333333333333
            },
            {
              "pitch": 24,
              "velocity": 60,
              "position": 4,
              "duration": 0.9875
            },
            {
              "pitch": 36,
              "velocity": 100,
              "position": 5,
              "duration": 0.09375
            },
            {
              "pitch": 24,
              "velocity": 100,
              "position": 5.8125,
              "duration": 0.052083333333333336
            },
            {
              "pitch": 24,
              "velocity": 60,
              "position": 6,
              "duration": 1
            },
            {
              "pitch": 36,
              "velocity": 100,
              "position": 7,
              "duration": 0.09375
            },
            {
              "pitch": 31,
              "velocity": 55,
              "position": 7.5,
              "duration": 0.4791666666666667
            }
          ]
        },
        "11": {
          "ctab": {
            "srcChannel": 11,
            "name": "Gtr",
            "accType": "CHORD1",
            "editable": false,
            "mutedNotes": [],
            "mutedChords": [],
            "autoStart": false,
            "sourceChordNote": 0,
            "sourceChordType": "Maj7",
            "ctb2Low": null,
            "ctb2Main": {
              "ntr": "ROOT_TRANSPOSITION",
              "ntt": "MELODY",
              "bassOn": false,
              "chordRootUpperLimit": 7,
              "noteLowLimit": 0,
              "noteHighLimit": 127,
              "rtr": "PITCH_SHIFT"
            },
            "ctb2High": null
          },
          "notes": [
            {
              "pitch": 55,
              "velocity": 39,
              "position": 0,
              "duration": 0.28125
            },
            {
              "pitch": 59,
              "velocity": 39,
              "position": 0,
              "duration": 0.28125
            },
            {
              "pitch": 60,
              "velocity": 39,
              "position": 0.010416666666666666,
              "duration": 0.28125
            },
            {
              "pitch": 67,
              "velocity": 39,
              "position": 0.03333333333333333,
              "duration": 0.26666666666666666
            },
            {
              "pitch": 71,
              "velocity": 39,
              "position": 0.03333333333333333,
              "duration": 0.26666666666666666
            },
            {
              "pitch": 64,
              "velocity": 39,
              "position": 0.020833333333333332,
              "duration": 0.28125
            },
            {
              "pitch": 67,
              "velocity": 82,
              "position": 0.30833333333333335,
              "duration": 0.03125
            },
            {
              "pitch": 71,
              "velocity": 82,
              "position": 0.30833333333333335,
              "duration": 0.03125
            },
            {
              "pitch": 64,
              "velocity": 82,
              "position": 0.31875,
              "duration": 0.03125
            },
            {
              "pitch": 60,
              "velocity": 82,
              "position": 0.32916666666666666,
              "duration": 0.03125
            },
            {
              "pitch": 55,
              "velocity": 82,
              "position": 0.33958333333333335,
              "duration": 0.03125
            },
            {
              "pitch": 59,
              "velocity": 82,
              "position": 0.33958333333333335,
              "duration": 0.03125
            },
            {
              "pitch": 55,
              "velocity": 44,
              "position": 0.5,
              "duration": 0.28125
            },
            {
              "pitch": 59,
              "velocity": 44,
              "position": 0.5,
              "duration": 0.28125
            },
            {
              "pitch": 60,
              "velocity": 44,
              "position": 0.5104166666666666,
              "duration": 0.28125
            },
            {
              "pitch": 67,
              "velocity": 44,
              "position": 0.53125,
              "duration": 0.26875
            },
            {
              "pitch": 71,
              "velocity": 44,
              "position": 0.53125,
              "duration": 0.26875
            },
            {
              "pitch": 64,
              "velocity": 44,
              "position": 0.5208333333333334,
              "duration": 0.28125
            },
            {
              "pitch": 67,
              "velocity": 70,
              "position": 0.8083333333333333,
              "duration": 0.15625
            },
            {
              "pitch": 71,
              "velocity": 70,
              "position": 0.8083333333333333,
              "duration": 0.15625
            },
            {
              "pitch": 64,
              "velocity": 70,
              "position": 0.81875,
              "duration": 0.15625
            },
            {
              "pitch": 60,
              "velocity": 70,
              "position": 0.8291666666666667,
              "duration": 0.15625
            },
            {
              "pitch": 55,
              "velocity": 70,
              "position": 0.8395833333333333,
              "duration": 0.15625
            },
            {
              "pitch": 59,
              "velocity": 70,
              "position": 0.8395833333333333,
              "duration": 0.15625
            },
            {
              "pitch": 55,
              "velocity": 70,
              "position": 1,
              "duration": 0.020833333333333332
            },
            {
              "pitch": 59,
              "velocity": 70,
              "position": 1,
              "duration": 0.020833333333333332
            },
            {
              "pitch": 60,
              "velocity": 70,
              "position": 1.0104166666666667,
              "duration": 0.020833333333333332
            },
            {
              "pitch": 64,
              "velocity": 70,
              "position": 1.0208333333333333,
              "duration": 0.020833333333333332
            },
            {
              "pitch": 67,
              "velocity": 70,
              "position": 1.03125,
              "duration": 0.020833333333333332
            },
            {
              "pitch": 71,
              "velocity": 70,
              "position": 1.03125,
              "duration": 0.020833333333333332
            },
            {
              "pitch": 67,
              "velocity": 50,
              "position": 1.3083333333333333,
              "duration": 0.16666666666666666
            },
            {
              "pitch": 71,
              "velocity": 50,
              "position": 1.3083333333333333,
              "duration": 0.16666666666666666
            },
            {
              "pitch": 64,
              "velocity": 50,
              "position": 1.31875,
              "duration": 0.16666666666666666
            },
            {
              "pitch": 60,
              "velocity": 50,
              "position": 1.3291666666666666,
              "duration": 0.16666666666666666
            },
            {
              "pitch": 55,
              "velocity": 50,
              "position": 1.3395833333333333,
              "duration": 0.15625
            },
            {
              "pitch": 59,
              "velocity": 50,
              "position": 1.3395833333333333,
              "duration": 0.15625
            },
            {
              "pitch": 55,
              "velocity": 71,
              "position": 1.5,
              "duration": 0.28125
            },
            {
              "pitch": 59,
              "velocity": 71,
              "position": 1.5,
              "duration": 0.28125
            },
            {
              "pitch": 60,
              "velocity": 71,
              "position": 1.5104166666666667,
              "duration": 0.28125
            },
            {
              "pitch": 67,
              "velocity": 71,
              "position": 1.53125,
              "duration": 0.26875
            },
            {
              "pitch": 71,
              "velocity": 71,
              "position": 1.53125,
              "duration": 0.26875
            },
            {
              "pitch": 64,
              "velocity": 71,
              "position": 1.5208333333333333,
              "duration": 0.28125
            },
            {
              "pitch": 67,
              "velocity": 37,
              "position": 1.8083333333333333,
              "duration": 0.15625
            },
            {
              "pitch": 71,
              "velocity": 37,
              "position": 1.8083333333333333,
              "duration": 0.15625
            },
            {
              "pitch": 64,
              "velocity": 37,
              "position": 1.81875,
              "duration": 0.15625
            },
            {
              "pitch": 60,
              "velocity": 37,
              "position": 1.8291666666666666,
              "duration": 0.15625
            },
            {
              "pitch": 55,
              "velocity": 37,
              "position": 1.8395833333333333,
              "duration": 0.15625
            },
            {
              "pitch": 59,
              "velocity": 37,
              "position": 1.8395833333333333,
              "duration": 0.15625
            },
            {
              "pitch": 55,
              "velocity": 52,
              "position": 2,
              "duration": 0.28125
            },
            {
              "pitch": 59,
              "velocity": 52,
              "position": 2,
              "duration": 0.28125
            },
            {
              "pitch": 60,
              "velocity": 52,
              "position": 2.0104166666666665,
              "duration": 0.28125
            },
            {
              "pitch": 64,
              "velocity": 52,
              "position": 2.0208333333333335,
              "duration": 0.28125
            },
            {
              "pitch": 67,
              "velocity": 52,
              "position": 2.03125,
              "duration": 0.2708333333333333
            },
            {
              "pitch": 71,
              "velocity": 52,
              "position": 2.03125,
              "duration": 0.2708333333333333
            },
            {
              "pitch": 67,
              "velocity": 31,
              "position": 2.308333333333333,
              "duration": 0.16666666666666666
            },
            {
              "pitch": 71,
              "velocity": 31,
              "position": 2.308333333333333,
              "duration": 0.16666666666666666
            },
            {
              "pitch": 64,
              "velocity": 31,
              "position": 2.31875,
              "duration": 0.16666666666666666
            },
            {
              "pitch": 60,
              "velocity": 31,
              "position": 2.3291666666666666,
              "duration": 0.16666666666666666
            },
            {
              "pitch": 55,
              "velocity": 31,
              "position": 2.339583333333333,
              "duration": 0.15625
            },
            {
              "pitch": 59,
              "velocity": 31,
              "position": 2.339583333333333,
              "duration": 0.15625
            },
            {
              "pitch": 55,
              "velocity": 31,
              "position": 2.5,
              "duration": 0.28125
            },
            {
              "pitch": 59,
              "velocity": 31,
              "position": 2.5,
              "duration": 0.28125
            },
            {
              "pitch": 60,
              "velocity": 31,
              "position": 2.5104166666666665,
              "duration": 0.28125
            },
            {
              "pitch": 67,
              "velocity": 31,
              "position": 2.53125,
              "duration": 0.26875
            },
            {
              "pitch": 71,
              "velocity": 31,
              "position": 2.53125,
              "duration": 0.26875
            },
            {
              "pitch": 64,
              "velocity": 31,
              "position": 2.5208333333333335,
              "duration": 0.28125
            },
            {
              "pitch": 67,
              "velocity": 51,
              "position": 2.808333333333333,
              "duration": 0.16666666666666666
            },
            {
              "pitch": 71,
              "velocity": 51,
              "position": 2.808333333333333,
              "duration": 0.16666666666666666
            },
            {
              "pitch": 64,
              "velocity": 51,
              "position": 2.81875,
              "duration": 0.16666666666666666
            },
            {
              "pitch": 60,
              "velocity": 51,
              "position": 2.8291666666666666,
              "duration": 0.16666666666666666
            },
            {
              "pitch": 55,
              "velocity": 51,
              "position": 2.839583333333333,
              "duration": 0.15625
            },
            {
              "pitch": 59,
              "velocity": 51,
              "position": 2.839583333333333,
              "duration": 0.15625
            },
            {
              "pitch": 55,
              "velocity": 63,
              "position": 3,
              "duration": 0.020833333333333332
            },
            {
              "pitch": 59,
              "velocity": 63,
              "position": 3,
              "duration": 0.020833333333333332
            },
            {
              "pitch": 60,
              "velocity": 63,
              "position": 3.0104166666666665,
              "duration": 0.020833333333333332
            },
            {
              "pitch": 64,
              "velocity": 63,
              "position": 3.0208333333333335,
              "duration": 0.020833333333333332
            },
            {
              "pitch": 67,
              "velocity": 63,
              "position": 3.03125,
              "duration": 0.020833333333333332
            },
            {
              "pitch": 71,
              "velocity": 63,
              "position": 3.03125,
              "duration": 0.020833333333333332
            },
            {
              "pitch": 67,
              "velocity": 10,
              "position": 3.308333333333333,
              "duration": 0.03125
            },
            {
              "pitch": 71,
              "velocity": 10,
              "position": 3.308333333333333,
              "duration": 0.03125
            },
            {
              "pitch": 64,
              "velocity": 10,
              "position": 3.31875,
              "duration": 0.03125
            },
            {
              "pitch": 60,
              "velocity": 10,
              "position": 3.3291666666666666,
              "duration": 0.03125
            },
            {
              "pitch": 55,
              "velocity": 10,
              "position": 3.339583333333333,
              "duration": 0.03125
            },
            {
              "pitch": 59,
              "velocity": 10,
              "position": 3.339583333333333,
              "duration": 0.03125
            },
            {
              "pitch": 55,
              "velocity": 50,
              "position": 3.5,
              "duration": 0.28125
            },
            {
              "pitch": 59,
              "velocity": 50,
              "position": 3.5,
              "duration": 0.28125
            },
            {
              "pitch": 60,
              "velocity": 50,
              "position": 3.5104166666666665,
              "duration": 0.28125
            },
            {
              "pitch": 67,
              "velocity": 50,
              "position": 3.53125,
              "duration": 0.26875
            },
            {
              "pitch": 71,
              "velocity": 50,
              "position": 3.53125,
              "duration": 0.26875
            },
            {
              "pitch": 64,
              "velocity": 50,
              "position": 3.5208333333333335,
              "duration": 0.28125
            },
            {
              "pitch": 67,
              "velocity": 41,
              "position": 3.808333333333333,
              "duration": 0.16666666666666666
            },
            {
              "pitch": 71,
              "velocity": 41,
              "position": 3.808333333333333,
              "duration": 0.16666666666666666
            },
            {
              "pitch": 64,
              "velocity": 41,
              "position": 3.81875,
              "duration": 0.16666666666666666
            },
            {
              "pitch": 60,
              "velocity": 41,
              "position": 3.8291666666666666,
              "duration": 0.16666666666666666
            },
            {
              "pitch": 55,
              "velocity": 41,
              "position": 3.839583333333333,
              "duration": 0.15625
            },
            {
              "pitch": 59,
              "velocity": 41,
              "position": 3.839583333333333,
              "duration": 0.15625
            },
            {
              "pitch": 67,
              "velocity": 77,
              "position": 4.308333333333334,
              "duration": 0.041666666666666664
            },
            {
              "pitch": 71,
              "velocity": 77,
              "position": 4.308333333333334,
              "duration": 0.041666666666666664
            },
            {
              "pitch": 64,
              "velocity": 77,
              "position": 4.31875,
              "duration": 0.041666666666666664
            },
            {
              "pitch": 60,
              "velocity": 77,
              "position": 4.329166666666667,
              "duration": 0.041666666666666664
            },
            {
              "pitch": 55,
              "velocity": 77,
              "position": 4.339583333333334,
              "duration": 0.041666666666666664
            },
            {
              "pitch": 59,
              "velocity": 77,
              "position": 4.339583333333334,
              "duration": 0.041666666666666664
            },
            {
              "pitch": 55,
              "velocity": 48,
              "position": 4.5,
              "duration": 0.28125
            },
            {
              "pitch": 59,
              "velocity": 48,
              "position": 4.5,
              "duration": 0.28125
            },
            {
              "pitch": 60,
              "velocity": 48,
              "position": 4.510416666666667,
              "duration": 0.28125
            },
            {
              "pitch": 64,
              "velocity": 48,
              "position": 4.520833333333333,
              "duration": 0.28125
            },
            {
              "pitch": 67,
              "velocity": 47,
              "position": 4.53125,
              "duration": 0.27708333333333335
            },
            {
              "pitch": 71,
              "velocity": 47,
              "position": 4.53125,
              "duration": 0.27708333333333335
            },
            {
              "pitch": 67,
              "velocity": 31,
              "position": 4.808333333333334,
              "duration": 0.16666666666666666
            },
            {
              "pitch": 71,
              "velocity": 31,
              "position": 4.808333333333334,
              "duration": 0.16666666666666666
            },
            {
              "pitch": 64,
              "velocity": 31,
              "position": 4.81875,
              "duration": 0.16666666666666666
            },
            {
              "pitch": 60,
              "velocity": 31,
              "position": 4.829166666666667,
              "duration": 0.16666666666666666
            },
            {
              "pitch": 55,
              "velocity": 31,
              "position": 4.839583333333334,
              "duration": 0.15625
            },
            {
              "pitch": 59,
              "velocity": 31,
              "position": 4.839583333333334,
              "duration": 0.15625
            },
            {
              "pitch": 55,
              "velocity": 35,
              "position": 5,
              "duration": 0.28125
            },
            {
              "pitch": 59,
              "velocity": 35,
              "position": 5,
              "duration": 0.28125
            },
            {
              "pitch": 60,
              "velocity": 35,
              "position": 5.010416666666667,
              "duration": 0.28125
            },
            {
              "pitch": 64,
              "velocity": 35,
              "position": 5.020833333333333,
              "duration": 0.28125
            },
            {
              "pitch": 67,
              "velocity": 38,
              "position": 5.03125,
              "duration": 0.2708333333333333
            },
            {
              "pitch": 71,
              "velocity": 38,
              "position": 5.03125,
              "duration": 0.2708333333333333
            },
            {
              "pitch": 67,
              "velocity": 48,
              "position": 5.308333333333334,
              "duration": 0.16666666666666666
            },
            {
              "pitch": 71,
              "velocity": 48,
              "position": 5.308333333333334,
              "duration": 0.16666666666666666
            },
            {
              "pitch": 64,
              "velocity": 48,
              "position": 5.31875,
              "duration": 0.16666666666666666
            },
            {
              "pitch": 60,
              "velocity": 48,
              "position": 5.329166666666667,
              "duration": 0.16666666666666666
            },
            {
              "pitch": 55,
              "velocity": 48,
              "position": 5.339583333333334,
              "duration": 0.15833333333333333
            },
            {
              "pitch": 59,
              "velocity": 48,
              "position": 5.339583333333334,
              "duration": 0.15833333333333333
            },
            {
              "pitch": 67,
              "velocity": 36,
              "position": 5.808333333333334,
              "duration": 0.16666666666666666
            },
            {
              "pitch": 71,
              "velocity": 36,
              "position": 5.808333333333334,
              "duration": 0.16666666666666666
            },
            {
              "pitch": 64,
              "velocity": 36,
              "position": 5.81875,
              "duration": 0.16666666666666666
            },
            {
              "pitch": 60,
              "velocity": 36,
              "position": 5.829166666666667,
              "duration": 0.16666666666666666
            },
            {
              "pitch": 55,
              "velocity": 36,
              "position": 5.839583333333334,
              "duration": 0.15625
            },
            {
              "pitch": 59,
              "velocity": 36,
              "position": 5.839583333333334,
              "duration": 0.15625
            },
            {
              "pitch": 55,
              "velocity": 49,
              "position": 6,
              "duration": 0.28125
            },
            {
              "pitch": 59,
              "velocity": 49,
              "position": 6,
              "duration": 0.28125
            },
            {
              "pitch": 60,
              "velocity": 49,
              "position": 6.010416666666667,
              "duration": 0.28125
            },
            {
              "pitch": 67,
              "velocity": 52,
              "position": 6.03125,
              "duration": 0.26666666666666666
            },
            {
              "pitch": 71,
              "velocity": 52,
              "position": 6.03125,
              "duration": 0.26666666666666666
            },
            {
              "pitch": 64,
              "velocity": 49,
              "position": 6.020833333333333,
              "duration": 0.28125
            },
            {
              "pitch": 67,
              "velocity": 27,
              "position": 6.308333333333334,
              "duration": 0.16666666666666666
            },
            {
              "pitch": 71,
              "velocity": 27,
              "position": 6.308333333333334,
              "duration": 0.16666666666666666
            },
            {
              "pitch": 64,
              "velocity": 27,
              "position": 6.31875,
              "duration": 0.16666666666666666
            },
            {
              "pitch": 60,
              "velocity": 27,
              "position": 6.329166666666667,
              "duration": 0.16666666666666666
            },
            {
              "pitch": 55,
              "velocity": 27,
              "position": 6.339583333333334,
              "duration": 0.15833333333333333
            },
            {
              "pitch": 59,
              "velocity": 27,
              "position": 6.339583333333334,
              "duration": 0.15833333333333333
            },
            {
              "pitch": 55,
              "velocity": 35,
              "position": 6.5,
              "duration": 0.28125
            },
            {
              "pitch": 59,
              "velocity": 35,
              "position": 6.5,
              "duration": 0.28125
            },
            {
              "pitch": 60,
              "velocity": 35,
              "position": 6.510416666666667,
              "duration": 0.28125
            },
            {
              "pitch": 64,
              "velocity": 35,
              "position": 6.520833333333333,
              "duration": 0.28125
            },
            {
              "pitch": 67,
              "velocity": 38,
              "position": 6.53125,
              "duration": 0.27291666666666664
            },
            {
              "pitch": 71,
              "velocity": 38,
              "position": 6.53125,
              "duration": 0.27291666666666664
            },
            {
              "pitch": 67,
              "velocity": 45,
              "position": 6.808333333333334,
              "duration": 0.16666666666666666
            },
            {
              "pitch": 71,
              "velocity": 45,
              "position": 6.808333333333334,
              "duration": 0.16666666666666666
            },
            {
              "pitch": 64,
              "velocity": 45,
              "position": 6.81875,
              "duration": 0.16666666666666666
            },
            {
              "pitch": 60,
              "velocity": 45,
              "position": 6.829166666666667,
              "duration": 0.16666666666666666
            },
            {
              "pitch": 55,
              "velocity": 45,
              "position": 6.839583333333334,
              "duration": 0.15833333333333333
            },
            {
              "pitch": 59,
              "velocity": 45,
              "position": 6.839583333333334,
              "duration": 0.15833333333333333
            },
            {
              "pitch": 55,
              "velocity": 65,
              "position": 7,
              "duration": 0.020833333333333332
            },
            {
              "pitch": 59,
              "velocity": 65,
              "position": 7,
              "duration": 0.020833333333333332
            },
            {
              "pitch": 60,
              "velocity": 65,
              "position": 7.010416666666667,
              "duration": 0.020833333333333332
            },
            {
              "pitch": 64,
              "velocity": 65,
              "position": 7.020833333333333,
              "duration": 0.020833333333333332
            },
            {
              "pitch": 67,
              "velocity": 65,
              "position": 7.03125,
              "duration": 0.020833333333333332
            },
            {
              "pitch": 71,
              "velocity": 65,
              "position": 7.03125,
              "duration": 0.020833333333333332
            },
            {
              "pitch": 67,
              "velocity": 16,
              "position": 7.308333333333334,
              "duration": 0.03125
            },
            {
              "pitch": 71,
              "velocity": 16,
              "position": 7.308333333333334,
              "duration": 0.03125
            },
            {
              "pitch": 64,
              "velocity": 16,
              "position": 7.31875,
              "duration": 0.03125
            },
            {
              "pitch": 60,
              "velocity": 16,
              "position": 7.329166666666667,
              "duration": 0.03125
            },
            {
              "pitch": 55,
              "velocity": 16,
              "position": 7.339583333333334,
              "duration": 0.03125
            },
            {
              "pitch": 59,
              "velocity": 16,
              "position": 7.339583333333334,
              "duration": 0.03125
            },
            {
              "pitch": 55,
              "velocity": 51,
              "position": 7.5,
              "duration": 0.28125
            },
            {
              "pitch": 59,
              "velocity": 51,
              "position": 7.5,
              "duration": 0.28125
            },
            {
              "pitch": 60,
              "velocity": 51,
              "position": 7.510416666666667,
              "duration": 0.28125
            },
            {
              "pitch": 64,
              "velocity": 51,
              "position": 7.520833333333333,
              "duration": 0.28125
            },
            {
              "pitch": 67,
              "velocity": 51,
              "position": 7.53125,
              "duration": 0.2708333333333333
            },
            {
              "pitch": 71,
              "velocity": 51,
              "position": 7.53125,
              "duration": 0.2708333333333333
            },
            {
              "pitch": 67,
              "velocity": 28,
              "position": 7.808333333333334,
              "duration": 0.16666666666666666
            },
            {
              "pitch": 71,
              "velocity": 28,
              "position": 7.808333333333334,
              "duration": 0.16666666666666666
            },
            {
              "pitch": 64,
              "velocity": 28,
              "position": 7.81875,
              "duration": 0.16666666666666666
            },
            {
              "pitch": 60,
              "velocity": 28,
              "position": 7.829166666666667,
              "duration": 0.16666666666666666
            },
            {
              "pitch": 55,
              "velocity": 28,
              "position": 7.839583333333334,
              "duration": 0.15625
            },
            {
              "pitch": 59,
              "velocity": 28,
              "position": 7.839583333333334,
              "duration": 0.15625
            }
          ]
        },
        "12": {
          "ctab": {
            "srcChannel": 12,
            "name": "EP",
            "accType": "CHORD2",
            "editable": false,
            "mutedNotes": [],
            "mutedChords": [],
            "autoStart": false,
            "sourceChordNote": 0,
            "sourceChordType": "Maj7",
            "ctb2Low": null,
            "ctb2Main": {
              "ntr": "ROOT_FIXED",
              "ntt": "CHORD",
              "bassOn": false,
              "chordRootUpperLimit": 7,
              "noteLowLimit": 0,
              "noteHighLimit": 127,
              "rtr": "PITCH_SHIFT"
            },
            "ctb2High": null
          },
          "notes": [
            {
              "pitch": 55,
              "velocity": 105,
              "position": 0,
              "duration": 1.2145833333333333
            },
            {
              "pitch": 59,
              "velocity": 102,
              "position": 0,
              "duration": 1.2375
            },
            {
              "pitch": 64,
              "velocity": 102,
              "position": 0,
              "duration": 1.25625
            },
            {
              "pitch": 55,
              "velocity": 89,
              "position": 1.5,
              "duration": 0.0625
            },
            {
              "pitch": 59,
              "velocity": 94,
              "position": 1.5,
              "duration": 0.08958333333333333
            },
            {
              "pitch": 64,
              "velocity": 111,
              "position": 1.5,
              "duration": 0.14166666666666666
            },
            {
              "pitch": 55,
              "velocity": 89,
              "position": 2.5,
              "duration": 0.05625
            },
            {
              "pitch": 59,
              "velocity": 96,
              "position": 2.5,
              "duration": 0.12916666666666668
            },
            {
              "pitch": 64,
              "velocity": 86,
              "position": 2.5,
              "duration": 0.15833333333333333
            },
            {
              "pitch": 55,
              "velocity": 84,
              "position": 3.308333333333333,
              "duration": 0.058333333333333334
            },
            {
              "pitch": 59,
              "velocity": 96,
              "position": 3.308333333333333,
              "duration": 0.14583333333333334
            },
            {
              "pitch": 64,
              "velocity": 94,
              "position": 3.308333333333333,
              "duration": 0.15625
            },
            {
              "pitch": 64,
              "velocity": 102,
              "position": 4,
              "duration": 1.24375
            },
            {
              "pitch": 55,
              "velocity": 100,
              "position": 4,
              "duration": 1.2916666666666667
            },
            {
              "pitch": 59,
              "velocity": 94,
              "position": 4,
              "duration": 1.3208333333333333
            },
            {
              "pitch": 55,
              "velocity": 82,
              "position": 5.5,
              "duration": 0.13541666666666666
            },
            {
              "pitch": 59,
              "velocity": 91,
              "position": 5.5,
              "duration": 0.1625
            },
            {
              "pitch": 64,
              "velocity": 102,
              "position": 5.5,
              "duration": 0.17291666666666666
            },
            {
              "pitch": 55,
              "velocity": 102,
              "position": 6.5,
              "duration": 0.08125
            },
            {
              "pitch": 59,
              "velocity": 105,
              "position": 6.5,
              "duration": 0.14791666666666667
            },
            {
              "pitch": 64,
              "velocity": 94,
              "position": 6.5,
              "duration": 0.16875
            },
            {
              "pitch": 55,
              "velocity": 84,
              "position": 7.308333333333334,
              "duration": 0.0875
            },
            {
              "pitch": 59,
              "velocity": 96,
              "position": 7.308333333333334,
              "duration": 0.11041666666666666
            },
            {
              "pitch": 64,
              "velocity": 84,
              "position": 7.308333333333334,
              "duration": 0.15
            }
          ]
        },
        "13": {
          "ctab": {
            "srcChannel": 13,
            "name": "Pad",
            "accType": "PAD",
            "editable": false,
            "mutedNotes": [],
            "mutedChords": [],
            "autoStart": false,
            "sourceChordNote": 0,
            "sourceChordType": "Maj7",
            "ctb2Low": null,
            "ctb2Main": {
              "ntr": "ROOT_FIXED",
              "ntt": "CHORD",
              "bassOn": false,
              "chordRootUpperLimit": 7,
              "noteLowLimit": 0,
              "noteHighLimit": 127,
              "rtr": "PITCH_SHIFT"
            },
            "ctb2High": null
          },
          "notes": [
            {
              "pitch": 55,
              "velocity": 68,
              "position": 0,
              "duration": 7.979166666666667
            },
            {
              "pitch": 64,
              "velocity": 68,
              "position": 0,
              "duration": 7.979166666666667
            },
            {
              "pitch": 59,
              "velocity": 68,
              "position": 0,
              "duration": 7.979166666666667
            }
          ]
        },
        "14": {
          "ctab": {
            "srcChannel": 14,
            "name": "Mute",
            "accType": "PHRASE1",
            "editable": false,
            "mutedNotes": [],
            "mutedChords": [
              "Maj7aug",
              "minMaj7(9)",
              "minMaj7",
              "Maj7(9)",
              "Maj7#11",
              "Maj7"
            ],
            "autoStart": false,
            "sourceChordNote": 0,
            "sourceChordType": "Maj7",
            "ctb2Low": null,
            "ctb2Main": {
              "ntr": "ROOT_TRANSPOSITION",
              "ntt": "CHORD",
              "bassOn": false,
              "chordRootUpperLimit": 3,
              "noteLowLimit": 0,
              "noteHighLimit": 127,
              "rtr": "PITCH_SHIFT"
            },
            "ctb2High": null
          },
          "notes": [
            {
              "pitch": 60,
              "velocity": 85,
              "position": 0,
              "duration": 0.0625
            },
            {
              "pitch": 115,
              "velocity": 75,
              "position": 0,
              "duration": 0.0625
            },
            {
              "pitch": 60,
              "velocity": 85,
              "position": 0.8083333333333333,
              "duration": 0.0625
            },
            {
              "pitch": 114,
              "velocity": 75,
              "position": 0.8083333333333333,
              "duration": 0.0625
            },
            {
              "pitch": 60,
              "velocity": 85,
              "position": 1.3083333333333333,
              "duration": 0.14583333333333334
            },
            {
              "pitch": 115,
              "velocity": 75,
              "position": 1.3083333333333333,
              "duration": 0.14583333333333334
            },
            {
              "pitch": 59,
              "velocity": 85,
              "position": 1.5,
              "duration": 0.03125
            },
            {
              "pitch": 114,
              "velocity": 75,
              "position": 1.5,
              "duration": 0.03125
            },
            {
              "pitch": 60,
              "velocity": 85,
              "position": 1.8083333333333333,
              "duration": 0.125
            },
            {
              "pitch": 115,
              "velocity": 75,
              "position": 1.8083333333333333,
              "duration": 0.125
            },
            {
              "pitch": 60,
              "velocity": 85,
              "position": 2.308333333333333,
              "duration": 0.125
            },
            {
              "pitch": 115,
              "velocity": 75,
              "position": 2.308333333333333,
              "duration": 0.125
            },
            {
              "pitch": 72,
              "velocity": 41,
              "position": 3.808333333333333,
              "duration": 0.17083333333333334
            },
            {
              "pitch": 115,
              "velocity": 75,
              "position": 3.808333333333333,
              "duration": 0.175
            },
            {
              "pitch": 60,
              "velocity": 41,
              "position": 3.8291666666666666,
              "duration": 0.1625
            },
            {
              "pitch": 60,
              "velocity": 85,
              "position": 4.5,
              "duration": 0.010416666666666666
            },
            {
              "pitch": 115,
              "velocity": 75,
              "position": 4.5,
              "duration": 0.010416666666666666
            },
            {
              "pitch": 60,
              "velocity": 85,
              "position": 4.808333333333334,
              "duration": 0.0625
            },
            {
              "pitch": 114,
              "velocity": 75,
              "position": 4.808333333333334,
              "duration": 0.0625
            },
            {
              "pitch": 60,
              "velocity": 85,
              "position": 5.308333333333334,
              "duration": 0.14583333333333334
            },
            {
              "pitch": 114,
              "velocity": 75,
              "position": 5.308333333333334,
              "duration": 0.14583333333333334
            },
            {
              "pitch": 60,
              "velocity": 85,
              "position": 5.5,
              "duration": 0.03125
            },
            {
              "pitch": 115,
              "velocity": 75,
              "position": 5.5,
              "duration": 0.03125
            },
            {
              "pitch": 60,
              "velocity": 85,
              "position": 5.808333333333334,
              "duration": 0.125
            },
            {
              "pitch": 114,
              "velocity": 75,
              "position": 5.808333333333334,
              "duration": 0.125
            },
            {
              "pitch": 60,
              "velocity": 85,
              "position": 6.308333333333334,
              "duration": 0.125
            },
            {
              "pitch": 114,
              "velocity": 75,
              "position": 6.308333333333334,
              "duration": 0.125
            },
            {
              "pitch": 72,
              "velocity": 41,
              "position": 7.808333333333334,
              "duration": 0.17083333333333334
            },
            {
              "pitch": 115,
              "velocity": 75,
              "position": 7.808333333333334,
              "duration": 0.175
            },
            {
              "pitch": 60,
              "velocity": 41,
              "position": 7.829166666666667,
              "duration": 0.1625
            }
          ]
        }
      }
    },
    "Main_D": {
      "type": "Main_D",
      "sizeInBeats": 16,
      "channels": {
        "3": {
          "ctab": {
            "srcChannel": 3,
            "name": "EP Rt",
            "accType": "CHORD2",
            "editable": true,
            "mutedNotes": [],
            "mutedChords": [
              "1+2+5",
              "sus4",
              "1+5",
              "1+8",
              "Maj7aug",
              "dim",
              "minMaj7(9)",
              "minMaj7",
              "min6",
              "min",
              "aug",
              "Maj7(9)",
              "Maj7#11",
              "Maj7",
              "Maj6",
              "Maj"
            ],
            "autoStart": false,
            "sourceChordNote": 0,
            "sourceChordType": "Maj7",
            "ctb2Low": null,
            "ctb2Main": {
              "ntr": "ROOT_TRANSPOSITION",
              "ntt": "CHORD",
              "bassOn": false,
              "chordRootUpperLimit": 7,
              "noteLowLimit": 0,
              "noteHighLimit": 127,
              "rtr": "PITCH_SHIFT"
            },
            "ctb2High": null
          },
          "notes": [
            {
              "pitch": 60,
              "velocity": 96,
              "position": 0,
              "duration": 0.45416666666666666
            },
            {
              "pitch": 60,
              "velocity": 86,
              "position": 0.8083333333333333,
              "duration": 0.0625
            },
            {
              "pitch": 60,
              "velocity": 100,
              "position": 1.5,
              "duration": 0.09791666666666667
            },
            {
              "pitch": 60,
              "velocity": 94,
              "position": 2.5,
              "duration": 0.07708333333333334
            },
            {
              "pitch": 60,
              "velocity": 91,
              "position": 3.308333333333333,
              "duration": 0.06458333333333334
            },
            {
              "pitch": 60,
              "velocity": 102,
              "position": 4,
              "duration": 0.45416666666666666
            },
            {
              "pitch": 60,
              "velocity": 94,
              "position": 4.808333333333334,
              "duration": 0.1
            },
            {
              "pitch": 60,
              "velocity": 96,
              "position": 5.5,
              "duration": 0.1125
            },
            {
              "pitch": 60,
              "velocity": 96,
              "position": 6.5,
              "duration": 0.12916666666666668
            },
            {
              "pitch": 60,
              "velocity": 94,
              "position": 7.308333333333334,
              "duration": 0.12916666666666668
            },
            {
              "pitch": 60,
              "velocity": 89,
              "position": 8,
              "duration": 0.49166666666666664
            },
            {
              "pitch": 60,
              "velocity": 94,
              "position": 8.808333333333334,
              "duration": 0.11666666666666667
            },
            {
              "pitch": 60,
              "velocity": 96,
              "position": 9.5,
              "duration": 0.11666666666666667
            },
            {
              "pitch": 60,
              "velocity": 96,
              "position": 10.5,
              "duration": 0.14583333333333334
            },
            {
              "pitch": 60,
              "velocity": 86,
              "position": 11.308333333333334,
              "duration": 0.0875
            },
            {
              "pitch": 60,
              "velocity": 91,
              "position": 12,
              "duration": 0.5395833333333333
            },
            {
              "pitch": 60,
              "velocity": 89,
              "position": 12.808333333333334,
              "duration": 0.10416666666666667
            },
            {
              "pitch": 60,
              "velocity": 86,
              "position": 13.5,
              "duration": 0.08125
            },
            {
              "pitch": 60,
              "velocity": 100,
              "position": 14.5,
              "duration": 0.14166666666666666
            },
            {
              "pitch": 60,
              "velocity": 94,
              "position": 15.308333333333334,
              "duration": 0.11458333333333333
            }
          ]
        },
        "4": {
          "ctab": {
            "srcChannel": 4,
            "name": "Pad",
            "accType": "PAD",
            "editable": false,
            "mutedNotes": [],
            "mutedChords": [
              "1+2+5",
              "sus4",
              "1+5",
              "1+8",
              "Maj7aug",
              "dim",
              "minMaj7(9)",
              "minMaj7",
              "min6",
              "min",
              "aug",
              "Maj7(9)",
              "Maj7#11",
              "Maj7",
              "Maj6",
              "Maj"
            ],
            "autoStart": false,
            "sourceChordNote": 0,
            "sourceChordType": "Maj7",
            "ctb2Low": null,
            "ctb2Main": {
              "ntr": "ROOT_TRANSPOSITION",
              "ntt": "MELODY",
              "bassOn": false,
              "chordRootUpperLimit": 6,
              "noteLowLimit": 0,
              "noteHighLimit": 127,
              "rtr": "PITCH_SHIFT"
            },
            "ctb2High": null
          },
          "notes": [
            {
              "pitch": 60,
              "velocity": 75,
              "position": 0,
              "duration": 7.979166666666667
            },
            {
              "pitch": 60,
              "velocity": 75,
              "position": 8,
              "duration": 7.979166666666667
            }
          ]
        },
        "5": {
          "ctab": {
            "srcChannel": 5,
            "name": "Mute",
            "accType": "PHRASE1",
            "editable": false,
            "mutedNotes": [],
            "mutedChords": [
              "1+2+5",
              "sus4",
              "1+5",
              "1+8",
              "7aug",
              "7(#9)",
              "7(b13)",
              "7(b9)",
              "7(13)",
              "7#11",
              "7(9)",
              "7b5",
              "7sus4",
              "7th",
              "dim7",
              "dim",
              "min7(11)",
              "min7(9)",
              "min(9)",
              "m7b5",
              "min7",
              "min6",
              "min",
              "aug",
              "Maj6(9)",
              "Maj(9)",
              "Maj6",
              "Maj"
            ],
            "autoStart": false,
            "sourceChordNote": 0,
            "sourceChordType": "Maj7",
            "ctb2Low": null,
            "ctb2Main": {
              "ntr": "ROOT_TRANSPOSITION",
              "ntt": "CHORD",
              "bassOn": false,
              "chordRootUpperLimit": 3,
              "noteLowLimit": 0,
              "noteHighLimit": 127,
              "rtr": "PITCH_SHIFT"
            },
            "ctb2High": null
          },
          "notes": [
            {
              "pitch": 59,
              "velocity": 85,
              "position": 0,
              "duration": 0.3645833333333333
            },
            {
              "pitch": 115,
              "velocity": 75,
              "position": 0,
              "duration": 0.3645833333333333
            },
            {
              "pitch": 59,
              "velocity": 85,
              "position": 0.8083333333333333,
              "duration": 0.14583333333333334
            },
            {
              "pitch": 114,
              "velocity": 75,
              "position": 0.8083333333333333,
              "duration": 0.14583333333333334
            },
            {
              "pitch": 59,
              "velocity": 85,
              "position": 1.5,
              "duration": 0.17708333333333334
            },
            {
              "pitch": 115,
              "velocity": 75,
              "position": 1.5,
              "duration": 0.17708333333333334
            },
            {
              "pitch": 59,
              "velocity": 85,
              "position": 1.8083333333333333,
              "duration": 0.125
            },
            {
              "pitch": 114,
              "velocity": 75,
              "position": 1.8083333333333333,
              "duration": 0.125
            },
            {
              "pitch": 59,
              "velocity": 85,
              "position": 2.308333333333333,
              "duration": 0.125
            },
            {
              "pitch": 114,
              "velocity": 75,
              "position": 2.308333333333333,
              "duration": 0.125
            },
            {
              "pitch": 59,
              "velocity": 85,
              "position": 2.808333333333333,
              "duration": 0.010416666666666666
            },
            {
              "pitch": 114,
              "velocity": 75,
              "position": 2.808333333333333,
              "duration": 0.010416666666666666
            },
            {
              "pitch": 59,
              "velocity": 85,
              "position": 3,
              "duration": 0.14583333333333334
            },
            {
              "pitch": 115,
              "velocity": 75,
              "position": 3,
              "duration": 0.14583333333333334
            },
            {
              "pitch": 59,
              "velocity": 85,
              "position": 3.308333333333333,
              "duration": 0.125
            },
            {
              "pitch": 114,
              "velocity": 75,
              "position": 3.308333333333333,
              "duration": 0.125
            },
            {
              "pitch": 59,
              "velocity": 85,
              "position": 3.5,
              "duration": 0.010416666666666666
            },
            {
              "pitch": 115,
              "velocity": 75,
              "position": 3.5,
              "duration": 0.010416666666666666
            },
            {
              "pitch": 114,
              "velocity": 75,
              "position": 3.808333333333333,
              "duration": 0.010416666666666666
            },
            {
              "pitch": 67,
              "velocity": 110,
              "position": 3.808333333333333,
              "duration": 0.5
            },
            {
              "pitch": 59,
              "velocity": 110,
              "position": 3.8375,
              "duration": 0.4708333333333333
            },
            {
              "pitch": 64,
              "velocity": 110,
              "position": 3.8229166666666665,
              "duration": 0.48541666666666666
            },
            {
              "pitch": 67,
              "velocity": 40,
              "position": 4.308333333333334,
              "duration": 0.19166666666666668
            },
            {
              "pitch": 59,
              "velocity": 40,
              "position": 4.3375,
              "duration": 0.1625
            },
            {
              "pitch": 64,
              "velocity": 40,
              "position": 4.322916666666667,
              "duration": 0.17708333333333334
            },
            {
              "pitch": 59,
              "velocity": 85,
              "position": 4.808333333333334,
              "duration": 0.14583333333333334
            },
            {
              "pitch": 114,
              "velocity": 75,
              "position": 4.808333333333334,
              "duration": 0.14583333333333334
            },
            {
              "pitch": 59,
              "velocity": 85,
              "position": 5.5,
              "duration": 0.17708333333333334
            },
            {
              "pitch": 115,
              "velocity": 75,
              "position": 5.5,
              "duration": 0.17708333333333334
            },
            {
              "pitch": 59,
              "velocity": 85,
              "position": 5.808333333333334,
              "duration": 0.125
            },
            {
              "pitch": 114,
              "velocity": 75,
              "position": 5.808333333333334,
              "duration": 0.125
            },
            {
              "pitch": 59,
              "velocity": 85,
              "position": 6.308333333333334,
              "duration": 0.125
            },
            {
              "pitch": 115,
              "velocity": 75,
              "position": 6.308333333333334,
              "duration": 0.125
            },
            {
              "pitch": 59,
              "velocity": 85,
              "position": 6.808333333333334,
              "duration": 0.010416666666666666
            },
            {
              "pitch": 115,
              "velocity": 75,
              "position": 6.808333333333334,
              "duration": 0.010416666666666666
            },
            {
              "pitch": 59,
              "velocity": 85,
              "position": 7,
              "duration": 0.14583333333333334
            },
            {
              "pitch": 115,
              "velocity": 75,
              "position": 7,
              "duration": 0.14583333333333334
            },
            {
              "pitch": 59,
              "velocity": 85,
              "position": 7.308333333333334,
              "duration": 0.125
            },
            {
              "pitch": 114,
              "velocity": 75,
              "position": 7.308333333333334,
              "duration": 0.125
            },
            {
              "pitch": 59,
              "velocity": 85,
              "position": 7.5,
              "duration": 0.010416666666666666
            },
            {
              "pitch": 115,
              "velocity": 75,
              "position": 7.5,
              "duration": 0.010416666666666666
            },
            {
              "pitch": 59,
              "velocity": 85,
              "position": 7.808333333333334,
              "duration": 0.052083333333333336
            },
            {
              "pitch": 114,
              "velocity": 75,
              "position": 7.808333333333334,
              "duration": 0.052083333333333336
            },
            {
              "pitch": 59,
              "velocity": 85,
              "position": 8,
              "duration": 0.3645833333333333
            },
            {
              "pitch": 115,
              "velocity": 75,
              "position": 8,
              "duration": 0.3645833333333333
            },
            {
              "pitch": 59,
              "velocity": 85,
              "position": 8.808333333333334,
              "duration": 0.14583333333333334
            },
            {
              "pitch": 114,
              "velocity": 75,
              "position": 8.808333333333334,
              "duration": 0.14583333333333334
            },
            {
              "pitch": 59,
              "velocity": 85,
              "position": 9.5,
              "duration": 0.17708333333333334
            },
            {
              "pitch": 115,
              "velocity": 75,
              "position": 9.5,
              "duration": 0.17708333333333334
            },
            {
              "pitch": 59,
              "velocity": 85,
              "position": 9.808333333333334,
              "duration": 0.125
            },
            {
              "pitch": 114,
              "velocity": 75,
              "position": 9.808333333333334,
              "duration": 0.125
            },
            {
              "pitch": 59,
              "velocity": 85,
              "position": 10.308333333333334,
              "duration": 0.125
            },
            {
              "pitch": 115,
              "velocity": 75,
              "position": 10.308333333333334,
              "duration": 0.125
            },
            {
              "pitch": 59,
              "velocity": 85,
              "position": 10.808333333333334,
              "duration": 0.010416666666666666
            },
            {
              "pitch": 114,
              "velocity": 75,
              "position": 10.808333333333334,
              "duration": 0.010416666666666666
            },
            {
              "pitch": 59,
              "velocity": 85,
              "position": 11,
              "duration": 0.14583333333333334
            },
            {
              "pitch": 115,
              "velocity": 75,
              "position": 11,
              "duration": 0.14583333333333334
            },
            {
              "pitch": 59,
              "velocity": 85,
              "position": 11.308333333333334,
              "duration": 0.125
            },
            {
              "pitch": 114,
              "velocity": 75,
              "position": 11.308333333333334,
              "duration": 0.125
            },
            {
              "pitch": 59,
              "velocity": 85,
              "position": 11.5,
              "duration": 0.010416666666666666
            },
            {
              "pitch": 115,
              "velocity": 75,
              "position": 11.5,
              "duration": 0.010416666666666666
            },
            {
              "pitch": 114,
              "velocity": 75,
              "position": 11.808333333333334,
              "duration": 0.010416666666666666
            },
            {
              "pitch": 67,
              "velocity": 109,
              "position": 11.808333333333334,
              "duration": 0.5
            },
            {
              "pitch": 59,
              "velocity": 109,
              "position": 11.8375,
              "duration": 0.4708333333333333
            },
            {
              "pitch": 64,
              "velocity": 109,
              "position": 11.822916666666666,
              "duration": 0.48541666666666666
            },
            {
              "pitch": 67,
              "velocity": 40,
              "position": 12.308333333333334,
              "duration": 0.19166666666666668
            },
            {
              "pitch": 64,
              "velocity": 40,
              "position": 12.322916666666666,
              "duration": 0.19166666666666668
            },
            {
              "pitch": 59,
              "velocity": 40,
              "position": 12.3375,
              "duration": 0.19166666666666668
            },
            {
              "pitch": 59,
              "velocity": 85,
              "position": 12.808333333333334,
              "duration": 0.14583333333333334
            },
            {
              "pitch": 114,
              "velocity": 75,
              "position": 12.808333333333334,
              "duration": 0.19166666666666668
            },
            {
              "pitch": 59,
              "velocity": 85,
              "position": 13.5,
              "duration": 0.17708333333333334
            },
            {
              "pitch": 115,
              "velocity": 75,
              "position": 13.5,
              "duration": 0.17708333333333334
            },
            {
              "pitch": 59,
              "velocity": 85,
              "position": 13.808333333333334,
              "duration": 0.125
            },
            {
              "pitch": 114,
              "velocity": 75,
              "position": 13.808333333333334,
              "duration": 0.125
            },
            {
              "pitch": 59,
              "velocity": 85,
              "position": 14.308333333333334,
              "duration": 0.125
            },
            {
              "pitch": 114,
              "velocity": 75,
              "position": 14.308333333333334,
              "duration": 0.125
            },
            {
              "pitch": 59,
              "velocity": 85,
              "position": 14.808333333333334,
              "duration": 0.010416666666666666
            },
            {
              "pitch": 114,
              "velocity": 75,
              "position": 14.808333333333334,
              "duration": 0.010416666666666666
            },
            {
              "pitch": 59,
              "velocity": 85,
              "position": 15,
              "duration": 0.14583333333333334
            },
            {
              "pitch": 115,
              "velocity": 75,
              "position": 15,
              "duration": 0.14583333333333334
            },
            {
              "pitch": 59,
              "velocity": 85,
              "position": 15.308333333333334,
              "duration": 0.125
            },
            {
              "pitch": 114,
              "velocity": 75,
              "position": 15.308333333333334,
              "duration": 0.125
            },
            {
              "pitch": 59,
              "velocity": 85,
              "position": 15.5,
              "duration": 0.010416666666666666
            },
            {
              "pitch": 115,
              "velocity": 75,
              "position": 15.5,
              "duration": 0.010416666666666666
            },
            {
              "pitch": 59,
              "velocity": 85,
              "position": 15.808333333333334,
              "duration": 0.010416666666666666
            },
            {
              "pitch": 115,
              "velocity": 75,
              "position": 15.808333333333334,
              "duration": 0.010416666666666666
            }
          ]
        },
        "8": {
          "ctab": {
            "srcChannel": 8,
            "name": "Rhyth1",
            "accType": "SUBRHYTHM",
            "editable": false,
            "mutedNotes": [],
            "mutedChords": [],
            "autoStart": true,
            "sourceChordNote": 0,
            "sourceChordType": "Maj7",
            "ctb2Low": null,
            "ctb2Main": {
              "ntr": "ROOT_FIXED",
              "ntt": "BYPASS",
              "bassOn": false,
              "chordRootUpperLimit": 6,
              "noteLowLimit": 0,
              "noteHighLimit": 127,
              "rtr": "PITCH_SHIFT"
            },
            "ctb2High": null
          },
          "notes": [
            {
              "pitch": 54,
              "velocity": 12,
              "position": 0,
              "duration": 0.010416666666666666
            },
            {
              "pitch": 54,
              "velocity": 72,
              "position": 0.5,
              "duration": 0.010416666666666666
            },
            {
              "pitch": 62,
              "velocity": 108,
              "position": 0.5,
              "duration": 0.010416666666666666
            },
            {
              "pitch": 54,
              "velocity": 72,
              "position": 1.5,
              "duration": 0.010416666666666666
            },
            {
              "pitch": 64,
              "velocity": 62,
              "position": 1.5,
              "duration": 0.010416666666666666
            },
            {
              "pitch": 64,
              "velocity": 90,
              "position": 1.8020833333333333,
              "duration": 0.010416666666666666
            },
            {
              "pitch": 54,
              "velocity": 72,
              "position": 2.5,
              "duration": 0.010416666666666666
            },
            {
              "pitch": 62,
              "velocity": 108,
              "position": 2.5,
              "duration": 0.010416666666666666
            },
            {
              "pitch": 54,
              "velocity": 72,
              "position": 3.5,
              "duration": 0.010416666666666666
            },
            {
              "pitch": 63,
              "velocity": 70,
              "position": 3.5,
              "duration": 0.010416666666666666
            },
            {
              "pitch": 63,
              "velocity": 100,
              "position": 3.8020833333333335,
              "duration": 0.010416666666666666
            },
            {
              "pitch": 54,
              "velocity": 12,
              "position": 4,
              "duration": 0.010416666666666666
            },
            {
              "pitch": 54,
              "velocity": 72,
              "position": 4.5,
              "duration": 0.010416666666666666
            },
            {
              "pitch": 62,
              "velocity": 108,
              "position": 4.5,
              "duration": 0.010416666666666666
            },
            {
              "pitch": 54,
              "velocity": 72,
              "position": 5.5,
              "duration": 0.010416666666666666
            },
            {
              "pitch": 64,
              "velocity": 62,
              "position": 5.5,
              "duration": 0.010416666666666666
            },
            {
              "pitch": 64,
              "velocity": 90,
              "position": 5.802083333333333,
              "duration": 0.010416666666666666
            },
            {
              "pitch": 54,
              "velocity": 72,
              "position": 6.5,
              "duration": 0.010416666666666666
            },
            {
              "pitch": 62,
              "velocity": 108,
              "position": 6.5,
              "duration": 0.010416666666666666
            },
            {
              "pitch": 54,
              "velocity": 72,
              "position": 7.5,
              "duration": 0.010416666666666666
            },
            {
              "pitch": 63,
              "velocity": 70,
              "position": 7.5,
              "duration": 0.010416666666666666
            },
            {
              "pitch": 63,
              "velocity": 100,
              "position": 7.802083333333333,
              "duration": 0.010416666666666666
            },
            {
              "pitch": 54,
              "velocity": 12,
              "position": 8,
              "duration": 0.010416666666666666
            },
            {
              "pitch": 54,
              "velocity": 72,
              "position": 8.5,
              "duration": 0.010416666666666666
            },
            {
              "pitch": 62,
              "velocity": 108,
              "position": 8.5,
              "duration": 0.010416666666666666
            },
            {
              "pitch": 54,
              "velocity": 72,
              "position": 9.5,
              "duration": 0.010416666666666666
            },
            {
              "pitch": 64,
              "velocity": 62,
              "position": 9.5,
              "duration": 0.010416666666666666
            },
            {
              "pitch": 64,
              "velocity": 90,
              "position": 9.802083333333334,
              "duration": 0.010416666666666666
            },
            {
              "pitch": 54,
              "velocity": 72,
              "position": 10.5,
              "duration": 0.010416666666666666
            },
            {
              "pitch": 62,
              "velocity": 108,
              "position": 10.5,
              "duration": 0.010416666666666666
            },
            {
              "pitch": 54,
              "velocity": 72,
              "position": 11.5,
              "duration": 0.010416666666666666
            },
            {
              "pitch": 63,
              "velocity": 70,
              "position": 11.5,
              "duration": 0.010416666666666666
            },
            {
              "pitch": 63,
              "velocity": 100,
              "position": 11.802083333333334,
              "duration": 0.010416666666666666
            },
            {
              "pitch": 54,
              "velocity": 12,
              "position": 12,
              "duration": 0.010416666666666666
            },
            {
              "pitch": 54,
              "velocity": 72,
              "position": 12.5,
              "duration": 0.010416666666666666
            },
            {
              "pitch": 62,
              "velocity": 108,
              "position": 12.5,
              "duration": 0.010416666666666666
            },
            {
              "pitch": 54,
              "velocity": 72,
              "position": 13.5,
              "duration": 0.010416666666666666
            },
            {
              "pitch": 64,
              "velocity": 62,
              "position": 13.5,
              "duration": 0.010416666666666666
            },
            {
              "pitch": 64,
              "velocity": 90,
              "position": 13.802083333333334,
              "duration": 0.010416666666666666
            },
            {
              "pitch": 54,
              "velocity": 72,
              "position": 14.5,
              "duration": 0.010416666666666666
            },
            {
              "pitch": 62,
              "velocity": 108,
              "position": 14.5,
              "duration": 0.010416666666666666
            },
            {
              "pitch": 54,
              "velocity": 72,
              "position": 15.5,
              "duration": 0.010416666666666666
            },
            {
              "pitch": 63,
              "velocity": 70,
              "position": 15.5,
              "duration": 0.010416666666666666
            },
            {
              "pitch": 63,
              "velocity": 100,
              "position": 15.802083333333334,
              "duration": 0.010416666666666666
            }
          ]
        },
        "9": {
          "ctab": {
            "srcChannel": 9,
            "name": "Rhyth2",
            "accType": "RHYTHM",
            "editable": false,
            "mutedNotes": [],
            "mutedChords": [],
            "autoStart": true,
            "sourceChordNote": 0,
            "sourceChordType": "Maj7",
            "ctb2Low": null,
            "ctb2Main": {
              "ntr": "ROOT_FIXED",
              "ntt": "BYPASS",
              "bassOn": false,
              "chordRootUpperLimit": 6,
              "noteLowLimit": 0,
              "noteHighLimit": 127,
              "rtr": "PITCH_SHIFT"
            },
            "ctb2High": null
          },
          "notes": [
            {
              "pitch": 36,
              "velocity": 99,
              "position": 0,
              "duration": 0.010416666666666666
            },
            {
              "pitch": 51,
              "velocity": 70,
              "position": 0,
              "duration": 0.010416666666666666
            },
            {
              "pitch": 38,
              "velocity": 19,
              "position": 0.3125,
              "duration": 0.010416666666666666
            },
            {
              "pitch": 36,
              "velocity": 34,
              "position": 0.5,
              "duration": 0.010416666666666666
            },
            {
              "pitch": 53,
              "velocity": 72,
              "position": 0.5,
              "duration": 0.010416666666666666
            },
            {
              "pitch": 44,
              "velocity": 74,
              "position": 0.5,
              "duration": 0.010416666666666666
            },
            {
              "pitch": 36,
              "velocity": 38,
              "position": 0.8125,
              "duration": 0.010416666666666666
            },
            {
              "pitch": 38,
              "velocity": 27,
              "position": 0.8125,
              "duration": 0.010416666666666666
            },
            {
              "pitch": 38,
              "velocity": 110,
              "position": 1,
              "duration": 0.010416666666666666
            },
            {
              "pitch": 51,
              "velocity": 70,
              "position": 1,
              "duration": 0.010416666666666666
            },
            {
              "pitch": 44,
              "velocity": 74,
              "position": 1.5,
              "duration": 0.010416666666666666
            },
            {
              "pitch": 53,
              "velocity": 72,
              "position": 1.5,
              "duration": 0.010416666666666666
            },
            {
              "pitch": 36,
              "velocity": 30,
              "position": 1.8125,
              "duration": 0.010416666666666666
            },
            {
              "pitch": 38,
              "velocity": 27,
              "position": 1.8125,
              "duration": 0.010416666666666666
            },
            {
              "pitch": 36,
              "velocity": 95,
              "position": 2,
              "duration": 0.010416666666666666
            },
            {
              "pitch": 51,
              "velocity": 70,
              "position": 2,
              "duration": 0.010416666666666666
            },
            {
              "pitch": 38,
              "velocity": 19,
              "position": 2.3125,
              "duration": 0.010416666666666666
            },
            {
              "pitch": 44,
              "velocity": 74,
              "position": 2.5,
              "duration": 0.010416666666666666
            },
            {
              "pitch": 53,
              "velocity": 72,
              "position": 2.5,
              "duration": 0.010416666666666666
            },
            {
              "pitch": 36,
              "velocity": 36,
              "position": 2.8125,
              "duration": 0.010416666666666666
            },
            {
              "pitch": 38,
              "velocity": 27,
              "position": 2.8125,
              "duration": 0.010416666666666666
            },
            {
              "pitch": 38,
              "velocity": 110,
              "position": 3,
              "duration": 0.010416666666666666
            },
            {
              "pitch": 51,
              "velocity": 70,
              "position": 3,
              "duration": 0.010416666666666666
            },
            {
              "pitch": 38,
              "velocity": 19,
              "position": 3.3125,
              "duration": 0.010416666666666666
            },
            {
              "pitch": 44,
              "velocity": 74,
              "position": 3.5,
              "duration": 0.010416666666666666
            },
            {
              "pitch": 53,
              "velocity": 72,
              "position": 3.5,
              "duration": 0.010416666666666666
            },
            {
              "pitch": 38,
              "velocity": 27,
              "position": 3.8125,
              "duration": 0.010416666666666666
            },
            {
              "pitch": 36,
              "velocity": 98,
              "position": 4,
              "duration": 0.010416666666666666
            },
            {
              "pitch": 51,
              "velocity": 70,
              "position": 4,
              "duration": 0.010416666666666666
            },
            {
              "pitch": 38,
              "velocity": 19,
              "position": 4.3125,
              "duration": 0.010416666666666666
            },
            {
              "pitch": 36,
              "velocity": 28,
              "position": 4.5,
              "duration": 0.010416666666666666
            },
            {
              "pitch": 53,
              "velocity": 72,
              "position": 4.5,
              "duration": 0.010416666666666666
            },
            {
              "pitch": 44,
              "velocity": 66,
              "position": 4.5,
              "duration": 0.010416666666666666
            },
            {
              "pitch": 36,
              "velocity": 64,
              "position": 4.8125,
              "duration": 0.010416666666666666
            },
            {
              "pitch": 38,
              "velocity": 37,
              "position": 4.8125,
              "duration": 0.010416666666666666
            },
            {
              "pitch": 38,
              "velocity": 110,
              "position": 5,
              "duration": 0.010416666666666666
            },
            {
              "pitch": 51,
              "velocity": 70,
              "position": 5,
              "duration": 0.010416666666666666
            },
            {
              "pitch": 38,
              "velocity": 19,
              "position": 5.3125,
              "duration": 0.010416666666666666
            },
            {
              "pitch": 44,
              "velocity": 64,
              "position": 5.5,
              "duration": 0.010416666666666666
            },
            {
              "pitch": 53,
              "velocity": 72,
              "position": 5.5,
              "duration": 0.010416666666666666
            },
            {
              "pitch": 36,
              "velocity": 32,
              "position": 5.8125,
              "duration": 0.010416666666666666
            },
            {
              "pitch": 38,
              "velocity": 60,
              "position": 5.8125,
              "duration": 0.010416666666666666
            },
            {
              "pitch": 36,
              "velocity": 90,
              "position": 6,
              "duration": 0.010416666666666666
            },
            {
              "pitch": 51,
              "velocity": 72,
              "position": 6,
              "duration": 0.010416666666666666
            },
            {
              "pitch": 38,
              "velocity": 19,
              "position": 6.3125,
              "duration": 0.010416666666666666
            },
            {
              "pitch": 44,
              "velocity": 64,
              "position": 6.5,
              "duration": 0.010416666666666666
            },
            {
              "pitch": 53,
              "velocity": 72,
              "position": 6.5,
              "duration": 0.010416666666666666
            },
            {
              "pitch": 38,
              "velocity": 34,
              "position": 6.8125,
              "duration": 0.010416666666666666
            },
            {
              "pitch": 38,
              "velocity": 110,
              "position": 7,
              "duration": 0.010416666666666666
            },
            {
              "pitch": 51,
              "velocity": 70,
              "position": 7,
              "duration": 0.010416666666666666
            },
            {
              "pitch": 38,
              "velocity": 19,
              "position": 7.3125,
              "duration": 0.010416666666666666
            },
            {
              "pitch": 53,
              "velocity": 27,
              "position": 7.322916666666667,
              "duration": 0.010416666666666666
            },
            {
              "pitch": 44,
              "velocity": 70,
              "position": 7.5,
              "duration": 0.010416666666666666
            },
            {
              "pitch": 53,
              "velocity": 72,
              "position": 7.520833333333333,
              "duration": 0.010416666666666666
            },
            {
              "pitch": 36,
              "velocity": 28,
              "position": 7.8125,
              "duration": 0.010416666666666666
            },
            {
              "pitch": 38,
              "velocity": 27,
              "position": 7.8125,
              "duration": 0.010416666666666666
            },
            {
              "pitch": 36,
              "velocity": 99,
              "position": 8,
              "duration": 0.010416666666666666
            },
            {
              "pitch": 51,
              "velocity": 70,
              "position": 8,
              "duration": 0.010416666666666666
            },
            {
              "pitch": 38,
              "velocity": 19,
              "position": 8.3125,
              "duration": 0.010416666666666666
            },
            {
              "pitch": 36,
              "velocity": 34,
              "position": 8.5,
              "duration": 0.010416666666666666
            },
            {
              "pitch": 53,
              "velocity": 72,
              "position": 8.5,
              "duration": 0.010416666666666666
            },
            {
              "pitch": 44,
              "velocity": 74,
              "position": 8.5,
              "duration": 0.010416666666666666
            },
            {
              "pitch": 36,
              "velocity": 38,
              "position": 8.8125,
              "duration": 0.010416666666666666
            },
            {
              "pitch": 38,
              "velocity": 27,
              "position": 8.8125,
              "duration": 0.010416666666666666
            },
            {
              "pitch": 38,
              "velocity": 110,
              "position": 9,
              "duration": 0.010416666666666666
            },
            {
              "pitch": 51,
              "velocity": 70,
              "position": 9,
              "duration": 0.010416666666666666
            },
            {
              "pitch": 44,
              "velocity": 74,
              "position": 9.5,
              "duration": 0.010416666666666666
            },
            {
              "pitch": 53,
              "velocity": 72,
              "position": 9.5,
              "duration": 0.010416666666666666
            },
            {
              "pitch": 36,
              "velocity": 30,
              "position": 9.8125,
              "duration": 0.010416666666666666
            },
            {
              "pitch": 38,
              "velocity": 27,
              "position": 9.8125,
              "duration": 0.010416666666666666
            },
            {
              "pitch": 36,
              "velocity": 95,
              "position": 10,
              "duration": 0.010416666666666666
            },
            {
              "pitch": 51,
              "velocity": 70,
              "position": 10,
              "duration": 0.010416666666666666
            },
            {
              "pitch": 38,
              "velocity": 19,
              "position": 10.3125,
              "duration": 0.010416666666666666
            },
            {
              "pitch": 44,
              "velocity": 74,
              "position": 10.5,
              "duration": 0.010416666666666666
            },
            {
              "pitch": 53,
              "velocity": 72,
              "position": 10.5,
              "duration": 0.010416666666666666
            },
            {
              "pitch": 36,
              "velocity": 36,
              "position": 10.8125,
              "duration": 0.010416666666666666
            },
            {
              "pitch": 38,
              "velocity": 27,
              "position": 10.8125,
              "duration": 0.010416666666666666
            },
            {
              "pitch": 38,
              "velocity": 110,
              "position": 11,
              "duration": 0.010416666666666666
            },
            {
              "pitch": 51,
              "velocity": 70,
              "position": 11,
              "duration": 0.010416666666666666
            },
            {
              "pitch": 38,
              "velocity": 19,
              "position": 11.3125,
              "duration": 0.010416666666666666
            },
            {
              "pitch": 44,
              "velocity": 74,
              "position": 11.5,
              "duration": 0.010416666666666666
            },
            {
              "pitch": 53,
              "velocity": 72,
              "position": 11.5,
              "duration": 0.010416666666666666
            },
            {
              "pitch": 38,
              "velocity": 27,
              "position": 11.8125,
              "duration": 0.010416666666666666
            },
            {
              "pitch": 36,
              "velocity": 98,
              "position": 12,
              "duration": 0.010416666666666666
            },
            {
              "pitch": 51,
              "velocity": 70,
              "position": 12,
              "duration": 0.010416666666666666
            },
            {
              "pitch": 38,
              "velocity": 19,
              "position": 12.3125,
              "duration": 0.010416666666666666
            },
            {
              "pitch": 36,
              "velocity": 28,
              "position": 12.5,
              "duration": 0.010416666666666666
            },
            {
              "pitch": 53,
              "velocity": 72,
              "position": 12.5,
              "duration": 0.010416666666666666
            },
            {
              "pitch": 44,
              "velocity": 66,
              "position": 12.5,
              "duration": 0.010416666666666666
            },
            {
              "pitch": 36,
              "velocity": 64,
              "position": 12.8125,
              "duration": 0.010416666666666666
            },
            {
              "pitch": 38,
              "velocity": 37,
              "position": 12.8125,
              "duration": 0.010416666666666666
            },
            {
              "pitch": 38,
              "velocity": 110,
              "position": 13,
              "duration": 0.010416666666666666
            },
            {
              "pitch": 51,
              "velocity": 70,
              "position": 13,
              "duration": 0.010416666666666666
            },
            {
              "pitch": 38,
              "velocity": 19,
              "position": 13.3125,
              "duration": 0.010416666666666666
            },
            {
              "pitch": 44,
              "velocity": 64,
              "position": 13.5,
              "duration": 0.010416666666666666
            },
            {
              "pitch": 53,
              "velocity": 72,
              "position": 13.5,
              "duration": 0.010416666666666666
            },
            {
              "pitch": 36,
              "velocity": 32,
              "position": 13.8125,
              "duration": 0.010416666666666666
            },
            {
              "pitch": 38,
              "velocity": 60,
              "position": 13.8125,
              "duration": 0.010416666666666666
            },
            {
              "pitch": 36,
              "velocity": 90,
              "position": 14,
              "duration": 0.010416666666666666
            },
            {
              "pitch": 51,
              "velocity": 72,
              "position": 14,
              "duration": 0.010416666666666666
            },
            {
              "pitch": 38,
              "velocity": 19,
              "position": 14.3125,
              "duration": 0.010416666666666666
            },
            {
              "pitch": 44,
              "velocity": 64,
              "position": 14.5,
              "duration": 0.010416666666666666
            },
            {
              "pitch": 53,
              "velocity": 72,
              "position": 14.5,
              "duration": 0.010416666666666666
            },
            {
              "pitch": 38,
              "velocity": 34,
              "position": 14.8125,
              "duration": 0.010416666666666666
            },
            {
              "pitch": 38,
              "velocity": 110,
              "position": 15,
              "duration": 0.010416666666666666
            },
            {
              "pitch": 51,
              "velocity": 70,
              "position": 15,
              "duration": 0.010416666666666666
            },
            {
              "pitch": 38,
              "velocity": 19,
              "position": 15.3125,
              "duration": 0.010416666666666666
            },
            {
              "pitch": 53,
              "velocity": 25,
              "position": 15.322916666666666,
              "duration": 0.010416666666666666
            },
            {
              "pitch": 44,
              "velocity": 70,
              "position": 15.5,
              "duration": 0.010416666666666666
            },
            {
              "pitch": 53,
              "velocity": 72,
              "position": 15.520833333333334,
              "duration": 0.010416666666666666
            },
            {
              "pitch": 36,
              "velocity": 28,
              "position": 15.8125,
              "duration": 0.010416666666666666
            },
            {
              "pitch": 38,
              "velocity": 27,
              "position": 15.8125,
              "duration": 0.010416666666666666
            }
          ]
        },
        "10": {
          "ctab": {
            "srcChannel": 10,
            "name": "Bass",
            "accType": "BASS",
            "editable": false,
            "mutedNotes": [],
            "mutedChords": [],
            "autoStart": false,
            "sourceChordNote": 0,
            "sourceChordType": "Maj7",
            "ctb2Low": null,
            "ctb2Main": {
              "ntr": "ROOT_TRANSPOSITION",
              "ntt": "MELODY",
              "bassOn": true,
              "chordRootUpperLimit": 8,
              "noteLowLimit": 28,
              "noteHighLimit": 127,
              "rtr": "PITCH_SHIFT_TO_ROOT"
            },
            "ctb2High": null
          },
          "notes": [
            {
              "pitch": 24,
              "velocity": 60,
              "position": 0,
              "duration": 0.49166666666666664
            },
            {
              "pitch": 24,
              "velocity": 96,
              "position": 0.5,
              "duration": 0.0625
            },
            {
              "pitch": 36,
              "velocity": 66,
              "position": 0.8125,
              "duration": 0.17708333333333334
            },
            {
              "pitch": 36,
              "velocity": 100,
              "position": 1,
              "duration": 0.09375
            },
            {
              "pitch": 35,
              "velocity": 59,
              "position": 1.8020833333333333,
              "duration": 0.6666666666666666
            },
            {
              "pitch": 36,
              "velocity": 63,
              "position": 2.5,
              "duration": 0.2916666666666667
            },
            {
              "pitch": 36,
              "velocity": 100,
              "position": 3,
              "duration": 0.09375
            },
            {
              "pitch": 31,
              "velocity": 60,
              "position": 3.3125,
              "duration": 0.17708333333333334
            },
            {
              "pitch": 35,
              "velocity": 54,
              "position": 3.4895833333333335,
              "duration": 0.4791666666666667
            },
            {
              "pitch": 24,
              "velocity": 60,
              "position": 4,
              "duration": 0.78125
            },
            {
              "pitch": 36,
              "velocity": 65,
              "position": 4.8125,
              "duration": 0.17708333333333334
            },
            {
              "pitch": 36,
              "velocity": 100,
              "position": 5,
              "duration": 0.09375
            },
            {
              "pitch": 35,
              "velocity": 59,
              "position": 5.802083333333333,
              "duration": 0.6666666666666666
            },
            {
              "pitch": 36,
              "velocity": 64,
              "position": 6.5,
              "duration": 0.2916666666666667
            },
            {
              "pitch": 36,
              "velocity": 100,
              "position": 7,
              "duration": 0.09375
            },
            {
              "pitch": 31,
              "velocity": 60,
              "position": 7.3125,
              "duration": 0.17708333333333334
            },
            {
              "pitch": 35,
              "velocity": 59,
              "position": 7.489583333333333,
              "duration": 0.4791666666666667
            },
            {
              "pitch": 24,
              "velocity": 60,
              "position": 8,
              "duration": 0.49166666666666664
            },
            {
              "pitch": 24,
              "velocity": 96,
              "position": 8.5,
              "duration": 0.0625
            },
            {
              "pitch": 36,
              "velocity": 65,
              "position": 8.8125,
              "duration": 0.17708333333333334
            },
            {
              "pitch": 36,
              "velocity": 57,
              "position": 9,
              "duration": 0.09375
            },
            {
              "pitch": 35,
              "velocity": 59,
              "position": 9.802083333333334,
              "duration": 0.6666666666666666
            },
            {
              "pitch": 36,
              "velocity": 63,
              "position": 10.5,
              "duration": 0.2916666666666667
            },
            {
              "pitch": 36,
              "velocity": 100,
              "position": 11,
              "duration": 0.09375
            },
            {
              "pitch": 31,
              "velocity": 60,
              "position": 11.3125,
              "duration": 0.17708333333333334
            },
            {
              "pitch": 35,
              "velocity": 59,
              "position": 11.489583333333334,
              "duration": 0.4791666666666667
            },
            {
              "pitch": 24,
              "velocity": 60,
              "position": 12,
              "duration": 0.78125
            },
            {
              "pitch": 36,
              "velocity": 65,
              "position": 12.8125,
              "duration": 0.17708333333333334
            },
            {
              "pitch": 36,
              "velocity": 100,
              "position": 13,
              "duration": 0.09375
            },
            {
              "pitch": 35,
              "velocity": 59,
              "position": 13.802083333333334,
              "duration": 0.6666666666666666
            },
            {
              "pitch": 36,
              "velocity": 64,
              "position": 14.5,
              "duration": 0.2916666666666667
            },
            {
              "pitch": 36,
              "velocity": 100,
              "position": 15,
              "duration": 0.09375
            },
            {
              "pitch": 31,
              "velocity": 60,
              "position": 15.3125,
              "duration": 0.17708333333333334
            },
            {
              "pitch": 35,
              "velocity": 59,
              "position": 15.489583333333334,
              "duration": 0.4791666666666667
            }
          ]
        },
        "11": {
          "ctab": {
            "srcChannel": 11,
            "name": "Gtr",
            "accType": "CHORD1",
            "editable": false,
            "mutedNotes": [],
            "mutedChords": [],
            "autoStart": false,
            "sourceChordNote": 0,
            "sourceChordType": "Maj7",
            "ctb2Low": null,
            "ctb2Main": {
              "ntr": "ROOT_TRANSPOSITION",
              "ntt": "MELODY",
              "bassOn": false,
              "chordRootUpperLimit": 7,
              "noteLowLimit": 0,
              "noteHighLimit": 127,
              "rtr": "PITCH_SHIFT"
            },
            "ctb2High": null
          },
          "notes": [
            {
              "pitch": 55,
              "velocity": 53,
              "position": 0,
              "duration": 0.78125
            },
            {
              "pitch": 59,
              "velocity": 53,
              "position": 0,
              "duration": 0.78125
            },
            {
              "pitch": 60,
              "velocity": 53,
              "position": 0.010416666666666666,
              "duration": 0.78125
            },
            {
              "pitch": 67,
              "velocity": 53,
              "position": 0.03125,
              "duration": 0.7666666666666667
            },
            {
              "pitch": 71,
              "velocity": 53,
              "position": 0.03125,
              "duration": 0.7666666666666667
            },
            {
              "pitch": 64,
              "velocity": 53,
              "position": 0.020833333333333332,
              "duration": 0.78125
            },
            {
              "pitch": 67,
              "velocity": 50,
              "position": 0.8083333333333333,
              "duration": 0.10416666666666667
            },
            {
              "pitch": 71,
              "velocity": 50,
              "position": 0.8083333333333333,
              "duration": 0.10416666666666667
            },
            {
              "pitch": 64,
              "velocity": 50,
              "position": 0.81875,
              "duration": 0.10416666666666667
            },
            {
              "pitch": 60,
              "velocity": 50,
              "position": 0.8291666666666667,
              "duration": 0.10416666666666667
            },
            {
              "pitch": 55,
              "velocity": 50,
              "position": 0.8395833333333333,
              "duration": 0.10416666666666667
            },
            {
              "pitch": 59,
              "velocity": 50,
              "position": 0.8395833333333333,
              "duration": 0.10416666666666667
            },
            {
              "pitch": 55,
              "velocity": 41,
              "position": 1.5,
              "duration": 0.78125
            },
            {
              "pitch": 59,
              "velocity": 41,
              "position": 1.5,
              "duration": 0.78125
            },
            {
              "pitch": 60,
              "velocity": 49,
              "position": 1.5104166666666667,
              "duration": 0.78125
            },
            {
              "pitch": 64,
              "velocity": 49,
              "position": 1.5208333333333333,
              "duration": 0.78125
            },
            {
              "pitch": 67,
              "velocity": 49,
              "position": 1.53125,
              "duration": 0.7729166666666667
            },
            {
              "pitch": 71,
              "velocity": 49,
              "position": 1.53125,
              "duration": 0.7729166666666667
            },
            {
              "pitch": 67,
              "velocity": 58,
              "position": 2.308333333333333,
              "duration": 0.10416666666666667
            },
            {
              "pitch": 71,
              "velocity": 58,
              "position": 2.308333333333333,
              "duration": 0.10416666666666667
            },
            {
              "pitch": 64,
              "velocity": 58,
              "position": 2.31875,
              "duration": 0.10416666666666667
            },
            {
              "pitch": 60,
              "velocity": 58,
              "position": 2.3291666666666666,
              "duration": 0.10416666666666667
            },
            {
              "pitch": 55,
              "velocity": 58,
              "position": 2.339583333333333,
              "duration": 0.10416666666666667
            },
            {
              "pitch": 59,
              "velocity": 58,
              "position": 2.339583333333333,
              "duration": 0.10416666666666667
            },
            {
              "pitch": 55,
              "velocity": 59,
              "position": 3,
              "duration": 0.28125
            },
            {
              "pitch": 59,
              "velocity": 59,
              "position": 3,
              "duration": 0.28125
            },
            {
              "pitch": 67,
              "velocity": 59,
              "position": 3.03125,
              "duration": 0.26875
            },
            {
              "pitch": 71,
              "velocity": 59,
              "position": 3.03125,
              "duration": 0.26875
            },
            {
              "pitch": 64,
              "velocity": 59,
              "position": 3.0208333333333335,
              "duration": 0.28125
            },
            {
              "pitch": 60,
              "velocity": 59,
              "position": 3.0104166666666665,
              "duration": 0.3104166666666667
            },
            {
              "pitch": 64,
              "velocity": 44,
              "position": 3.31875,
              "duration": 0.11458333333333333
            },
            {
              "pitch": 55,
              "velocity": 44,
              "position": 3.339583333333333,
              "duration": 0.11458333333333333
            },
            {
              "pitch": 59,
              "velocity": 44,
              "position": 3.339583333333333,
              "duration": 0.11458333333333333
            },
            {
              "pitch": 60,
              "velocity": 44,
              "position": 3.3291666666666666,
              "duration": 0.17291666666666666
            },
            {
              "pitch": 67,
              "velocity": 44,
              "position": 3.308333333333333,
              "duration": 0.21458333333333332
            },
            {
              "pitch": 71,
              "velocity": 44,
              "position": 3.308333333333333,
              "duration": 0.21458333333333332
            },
            {
              "pitch": 55,
              "velocity": 52,
              "position": 3.5,
              "duration": 0.11458333333333333
            },
            {
              "pitch": 59,
              "velocity": 52,
              "position": 3.5,
              "duration": 0.11458333333333333
            },
            {
              "pitch": 60,
              "velocity": 52,
              "position": 3.5104166666666665,
              "duration": 0.11458333333333333
            },
            {
              "pitch": 64,
              "velocity": 52,
              "position": 3.5208333333333335,
              "duration": 0.11458333333333333
            },
            {
              "pitch": 67,
              "velocity": 52,
              "position": 3.53125,
              "duration": 0.11458333333333333
            },
            {
              "pitch": 71,
              "velocity": 52,
              "position": 3.53125,
              "duration": 0.11458333333333333
            },
            {
              "pitch": 67,
              "velocity": 39,
              "position": 3.808333333333333,
              "duration": 0.16666666666666666
            },
            {
              "pitch": 71,
              "velocity": 39,
              "position": 3.808333333333333,
              "duration": 0.16666666666666666
            },
            {
              "pitch": 64,
              "velocity": 39,
              "position": 3.81875,
              "duration": 0.16666666666666666
            },
            {
              "pitch": 60,
              "velocity": 39,
              "position": 3.8291666666666666,
              "duration": 0.16666666666666666
            },
            {
              "pitch": 55,
              "velocity": 39,
              "position": 3.839583333333333,
              "duration": 0.15625
            },
            {
              "pitch": 59,
              "velocity": 39,
              "position": 3.839583333333333,
              "duration": 0.15625
            },
            {
              "pitch": 55,
              "velocity": 52,
              "position": 4,
              "duration": 0.28125
            },
            {
              "pitch": 59,
              "velocity": 52,
              "position": 4,
              "duration": 0.28125
            },
            {
              "pitch": 60,
              "velocity": 59,
              "position": 4.010416666666667,
              "duration": 0.28125
            },
            {
              "pitch": 64,
              "velocity": 59,
              "position": 4.020833333333333,
              "duration": 0.28125
            },
            {
              "pitch": 67,
              "velocity": 59,
              "position": 4.03125,
              "duration": 0.27291666666666664
            },
            {
              "pitch": 71,
              "velocity": 59,
              "position": 4.03125,
              "duration": 0.27291666666666664
            },
            {
              "pitch": 67,
              "velocity": 36,
              "position": 4.308333333333334,
              "duration": 0.10416666666666667
            },
            {
              "pitch": 71,
              "velocity": 36,
              "position": 4.308333333333334,
              "duration": 0.10416666666666667
            },
            {
              "pitch": 64,
              "velocity": 36,
              "position": 4.31875,
              "duration": 0.10416666666666667
            },
            {
              "pitch": 60,
              "velocity": 36,
              "position": 4.329166666666667,
              "duration": 0.10416666666666667
            },
            {
              "pitch": 55,
              "velocity": 32,
              "position": 4.339583333333334,
              "duration": 0.10416666666666667
            },
            {
              "pitch": 59,
              "velocity": 32,
              "position": 4.339583333333334,
              "duration": 0.10416666666666667
            },
            {
              "pitch": 64,
              "velocity": 55,
              "position": 4.81875,
              "duration": 0.15625
            },
            {
              "pitch": 60,
              "velocity": 55,
              "position": 4.829166666666667,
              "duration": 0.15625
            },
            {
              "pitch": 55,
              "velocity": 55,
              "position": 4.839583333333334,
              "duration": 0.15625
            },
            {
              "pitch": 59,
              "velocity": 55,
              "position": 4.839583333333334,
              "duration": 0.15625
            },
            {
              "pitch": 67,
              "velocity": 117,
              "position": 5.5,
              "duration": 0.78125
            },
            {
              "pitch": 71,
              "velocity": 117,
              "position": 5.5,
              "duration": 0.78125
            },
            {
              "pitch": 64,
              "velocity": 117,
              "position": 5.510416666666667,
              "duration": 0.78125
            },
            {
              "pitch": 60,
              "velocity": 117,
              "position": 5.520833333333333,
              "duration": 0.78125
            },
            {
              "pitch": 55,
              "velocity": 117,
              "position": 5.53125,
              "duration": 0.78125
            },
            {
              "pitch": 59,
              "velocity": 117,
              "position": 5.53125,
              "duration": 0.78125
            },
            {
              "pitch": 67,
              "velocity": 69,
              "position": 6.308333333333334,
              "duration": 0.10416666666666667
            },
            {
              "pitch": 71,
              "velocity": 69,
              "position": 6.308333333333334,
              "duration": 0.10416666666666667
            },
            {
              "pitch": 64,
              "velocity": 69,
              "position": 6.31875,
              "duration": 0.10416666666666667
            },
            {
              "pitch": 60,
              "velocity": 69,
              "position": 6.329166666666667,
              "duration": 0.10416666666666667
            },
            {
              "pitch": 55,
              "velocity": 69,
              "position": 6.339583333333334,
              "duration": 0.10416666666666667
            },
            {
              "pitch": 59,
              "velocity": 69,
              "position": 6.339583333333334,
              "duration": 0.10416666666666667
            },
            {
              "pitch": 55,
              "velocity": 82,
              "position": 6.5,
              "duration": 0.052083333333333336
            },
            {
              "pitch": 59,
              "velocity": 82,
              "position": 6.5,
              "duration": 0.052083333333333336
            },
            {
              "pitch": 60,
              "velocity": 82,
              "position": 6.510416666666667,
              "duration": 0.052083333333333336
            },
            {
              "pitch": 64,
              "velocity": 82,
              "position": 6.520833333333333,
              "duration": 0.052083333333333336
            },
            {
              "pitch": 67,
              "velocity": 82,
              "position": 6.53125,
              "duration": 0.052083333333333336
            },
            {
              "pitch": 71,
              "velocity": 82,
              "position": 6.53125,
              "duration": 0.052083333333333336
            },
            {
              "pitch": 67,
              "velocity": 66,
              "position": 6.808333333333334,
              "duration": 0.041666666666666664
            },
            {
              "pitch": 71,
              "velocity": 66,
              "position": 6.808333333333334,
              "duration": 0.041666666666666664
            },
            {
              "pitch": 64,
              "velocity": 66,
              "position": 6.81875,
              "duration": 0.041666666666666664
            },
            {
              "pitch": 60,
              "velocity": 66,
              "position": 6.829166666666667,
              "duration": 0.041666666666666664
            },
            {
              "pitch": 55,
              "velocity": 66,
              "position": 6.839583333333334,
              "duration": 0.041666666666666664
            },
            {
              "pitch": 59,
              "velocity": 66,
              "position": 6.839583333333334,
              "duration": 0.041666666666666664
            },
            {
              "pitch": 55,
              "velocity": 47,
              "position": 7,
              "duration": 0.28125
            },
            {
              "pitch": 59,
              "velocity": 47,
              "position": 7,
              "duration": 0.28125
            },
            {
              "pitch": 60,
              "velocity": 55,
              "position": 7.010416666666667,
              "duration": 0.28125
            },
            {
              "pitch": 64,
              "velocity": 55,
              "position": 7.020833333333333,
              "duration": 0.28125
            },
            {
              "pitch": 67,
              "velocity": 55,
              "position": 7.03125,
              "duration": 0.27291666666666664
            },
            {
              "pitch": 71,
              "velocity": 55,
              "position": 7.03125,
              "duration": 0.27291666666666664
            },
            {
              "pitch": 67,
              "velocity": 65,
              "position": 7.308333333333334,
              "duration": 0.11458333333333333
            },
            {
              "pitch": 71,
              "velocity": 65,
              "position": 7.308333333333334,
              "duration": 0.11458333333333333
            },
            {
              "pitch": 64,
              "velocity": 65,
              "position": 7.31875,
              "duration": 0.11458333333333333
            },
            {
              "pitch": 60,
              "velocity": 65,
              "position": 7.329166666666667,
              "duration": 0.11458333333333333
            },
            {
              "pitch": 55,
              "velocity": 65,
              "position": 7.339583333333334,
              "duration": 0.11458333333333333
            },
            {
              "pitch": 59,
              "velocity": 65,
              "position": 7.339583333333334,
              "duration": 0.11458333333333333
            },
            {
              "pitch": 55,
              "velocity": 41,
              "position": 7.5,
              "duration": 0.11458333333333333
            },
            {
              "pitch": 59,
              "velocity": 41,
              "position": 7.5,
              "duration": 0.11458333333333333
            },
            {
              "pitch": 60,
              "velocity": 41,
              "position": 7.510416666666667,
              "duration": 0.11458333333333333
            },
            {
              "pitch": 64,
              "velocity": 41,
              "position": 7.520833333333333,
              "duration": 0.11458333333333333
            },
            {
              "pitch": 67,
              "velocity": 41,
              "position": 7.53125,
              "duration": 0.11458333333333333
            },
            {
              "pitch": 71,
              "velocity": 41,
              "position": 7.53125,
              "duration": 0.11458333333333333
            },
            {
              "pitch": 67,
              "velocity": 36,
              "position": 7.808333333333334,
              "duration": 0.16666666666666666
            },
            {
              "pitch": 71,
              "velocity": 36,
              "position": 7.808333333333334,
              "duration": 0.16666666666666666
            },
            {
              "pitch": 64,
              "velocity": 36,
              "position": 7.81875,
              "duration": 0.16666666666666666
            },
            {
              "pitch": 60,
              "velocity": 36,
              "position": 7.829166666666667,
              "duration": 0.16666666666666666
            },
            {
              "pitch": 55,
              "velocity": 36,
              "position": 7.839583333333334,
              "duration": 0.15625
            },
            {
              "pitch": 59,
              "velocity": 36,
              "position": 7.839583333333334,
              "duration": 0.15625
            },
            {
              "pitch": 55,
              "velocity": 53,
              "position": 8,
              "duration": 0.78125
            },
            {
              "pitch": 59,
              "velocity": 53,
              "position": 8,
              "duration": 0.78125
            },
            {
              "pitch": 60,
              "velocity": 53,
              "position": 8.010416666666666,
              "duration": 0.78125
            },
            {
              "pitch": 67,
              "velocity": 53,
              "position": 8.03125,
              "duration": 0.7666666666666667
            },
            {
              "pitch": 71,
              "velocity": 53,
              "position": 8.03125,
              "duration": 0.7666666666666667
            },
            {
              "pitch": 64,
              "velocity": 53,
              "position": 8.020833333333334,
              "duration": 0.78125
            },
            {
              "pitch": 67,
              "velocity": 50,
              "position": 8.808333333333334,
              "duration": 0.10416666666666667
            },
            {
              "pitch": 71,
              "velocity": 50,
              "position": 8.808333333333334,
              "duration": 0.10416666666666667
            },
            {
              "pitch": 64,
              "velocity": 50,
              "position": 8.81875,
              "duration": 0.10416666666666667
            },
            {
              "pitch": 60,
              "velocity": 50,
              "position": 8.829166666666667,
              "duration": 0.10416666666666667
            },
            {
              "pitch": 55,
              "velocity": 50,
              "position": 8.839583333333334,
              "duration": 0.10416666666666667
            },
            {
              "pitch": 59,
              "velocity": 50,
              "position": 8.839583333333334,
              "duration": 0.10416666666666667
            },
            {
              "pitch": 55,
              "velocity": 41,
              "position": 9.5,
              "duration": 0.78125
            },
            {
              "pitch": 59,
              "velocity": 41,
              "position": 9.5,
              "duration": 0.78125
            },
            {
              "pitch": 60,
              "velocity": 49,
              "position": 9.510416666666666,
              "duration": 0.78125
            },
            {
              "pitch": 64,
              "velocity": 49,
              "position": 9.520833333333334,
              "duration": 0.78125
            },
            {
              "pitch": 67,
              "velocity": 49,
              "position": 9.53125,
              "duration": 0.7729166666666667
            },
            {
              "pitch": 71,
              "velocity": 49,
              "position": 9.53125,
              "duration": 0.7729166666666667
            },
            {
              "pitch": 67,
              "velocity": 58,
              "position": 10.308333333333334,
              "duration": 0.10416666666666667
            },
            {
              "pitch": 71,
              "velocity": 58,
              "position": 10.308333333333334,
              "duration": 0.10416666666666667
            },
            {
              "pitch": 64,
              "velocity": 58,
              "position": 10.31875,
              "duration": 0.10416666666666667
            },
            {
              "pitch": 60,
              "velocity": 58,
              "position": 10.329166666666667,
              "duration": 0.10416666666666667
            },
            {
              "pitch": 55,
              "velocity": 58,
              "position": 10.339583333333334,
              "duration": 0.10416666666666667
            },
            {
              "pitch": 59,
              "velocity": 58,
              "position": 10.339583333333334,
              "duration": 0.10416666666666667
            },
            {
              "pitch": 55,
              "velocity": 59,
              "position": 11,
              "duration": 0.28125
            },
            {
              "pitch": 59,
              "velocity": 59,
              "position": 11,
              "duration": 0.28125
            },
            {
              "pitch": 67,
              "velocity": 59,
              "position": 11.03125,
              "duration": 0.26875
            },
            {
              "pitch": 71,
              "velocity": 59,
              "position": 11.03125,
              "duration": 0.26875
            },
            {
              "pitch": 64,
              "velocity": 59,
              "position": 11.020833333333334,
              "duration": 0.28125
            },
            {
              "pitch": 60,
              "velocity": 59,
              "position": 11.010416666666666,
              "duration": 0.3104166666666667
            },
            {
              "pitch": 64,
              "velocity": 44,
              "position": 11.31875,
              "duration": 0.11458333333333333
            },
            {
              "pitch": 55,
              "velocity": 44,
              "position": 11.339583333333334,
              "duration": 0.11458333333333333
            },
            {
              "pitch": 59,
              "velocity": 44,
              "position": 11.339583333333334,
              "duration": 0.11458333333333333
            },
            {
              "pitch": 60,
              "velocity": 44,
              "position": 11.329166666666667,
              "duration": 0.17291666666666666
            },
            {
              "pitch": 67,
              "velocity": 44,
              "position": 11.308333333333334,
              "duration": 0.21458333333333332
            },
            {
              "pitch": 71,
              "velocity": 44,
              "position": 11.308333333333334,
              "duration": 0.21458333333333332
            },
            {
              "pitch": 55,
              "velocity": 52,
              "position": 11.5,
              "duration": 0.11458333333333333
            },
            {
              "pitch": 59,
              "velocity": 52,
              "position": 11.5,
              "duration": 0.11458333333333333
            },
            {
              "pitch": 60,
              "velocity": 52,
              "position": 11.510416666666666,
              "duration": 0.11458333333333333
            },
            {
              "pitch": 64,
              "velocity": 52,
              "position": 11.520833333333334,
              "duration": 0.11458333333333333
            },
            {
              "pitch": 67,
              "velocity": 52,
              "position": 11.53125,
              "duration": 0.11458333333333333
            },
            {
              "pitch": 71,
              "velocity": 52,
              "position": 11.53125,
              "duration": 0.11458333333333333
            },
            {
              "pitch": 67,
              "velocity": 39,
              "position": 11.808333333333334,
              "duration": 0.16666666666666666
            },
            {
              "pitch": 71,
              "velocity": 39,
              "position": 11.808333333333334,
              "duration": 0.16666666666666666
            },
            {
              "pitch": 64,
              "velocity": 39,
              "position": 11.81875,
              "duration": 0.16666666666666666
            },
            {
              "pitch": 60,
              "velocity": 39,
              "position": 11.829166666666667,
              "duration": 0.16666666666666666
            },
            {
              "pitch": 55,
              "velocity": 39,
              "position": 11.839583333333334,
              "duration": 0.15625
            },
            {
              "pitch": 59,
              "velocity": 39,
              "position": 11.839583333333334,
              "duration": 0.15625
            },
            {
              "pitch": 55,
              "velocity": 53,
              "position": 12,
              "duration": 0.78125
            },
            {
              "pitch": 59,
              "velocity": 53,
              "position": 12,
              "duration": 0.78125
            },
            {
              "pitch": 60,
              "velocity": 53,
              "position": 12.010416666666666,
              "duration": 0.78125
            },
            {
              "pitch": 67,
              "velocity": 53,
              "position": 12.03125,
              "duration": 0.7666666666666667
            },
            {
              "pitch": 71,
              "velocity": 53,
              "position": 12.03125,
              "duration": 0.7666666666666667
            },
            {
              "pitch": 64,
              "velocity": 53,
              "position": 12.020833333333334,
              "duration": 0.78125
            },
            {
              "pitch": 67,
              "velocity": 50,
              "position": 12.808333333333334,
              "duration": 0.10416666666666667
            },
            {
              "pitch": 71,
              "velocity": 50,
              "position": 12.808333333333334,
              "duration": 0.10416666666666667
            },
            {
              "pitch": 64,
              "velocity": 50,
              "position": 12.81875,
              "duration": 0.10416666666666667
            },
            {
              "pitch": 60,
              "velocity": 50,
              "position": 12.829166666666667,
              "duration": 0.10416666666666667
            },
            {
              "pitch": 55,
              "velocity": 50,
              "position": 12.839583333333334,
              "duration": 0.10416666666666667
            },
            {
              "pitch": 59,
              "velocity": 50,
              "position": 12.839583333333334,
              "duration": 0.10416666666666667
            },
            {
              "pitch": 55,
              "velocity": 41,
              "position": 13.5,
              "duration": 0.78125
            },
            {
              "pitch": 59,
              "velocity": 41,
              "position": 13.5,
              "duration": 0.78125
            },
            {
              "pitch": 60,
              "velocity": 49,
              "position": 13.510416666666666,
              "duration": 0.78125
            },
            {
              "pitch": 64,
              "velocity": 49,
              "position": 13.520833333333334,
              "duration": 0.78125
            },
            {
              "pitch": 67,
              "velocity": 49,
              "position": 13.53125,
              "duration": 0.7729166666666667
            },
            {
              "pitch": 71,
              "velocity": 49,
              "position": 13.53125,
              "duration": 0.7729166666666667
            },
            {
              "pitch": 67,
              "velocity": 69,
              "position": 14.308333333333334,
              "duration": 0.10416666666666667
            },
            {
              "pitch": 71,
              "velocity": 69,
              "position": 14.308333333333334,
              "duration": 0.10416666666666667
            },
            {
              "pitch": 64,
              "velocity": 69,
              "position": 14.31875,
              "duration": 0.10416666666666667
            },
            {
              "pitch": 60,
              "velocity": 69,
              "position": 14.329166666666667,
              "duration": 0.10416666666666667
            },
            {
              "pitch": 55,
              "velocity": 69,
              "position": 14.339583333333334,
              "duration": 0.10416666666666667
            },
            {
              "pitch": 59,
              "velocity": 69,
              "position": 14.339583333333334,
              "duration": 0.10416666666666667
            },
            {
              "pitch": 55,
              "velocity": 82,
              "position": 14.5,
              "duration": 0.052083333333333336
            },
            {
              "pitch": 59,
              "velocity": 82,
              "position": 14.5,
              "duration": 0.052083333333333336
            },
            {
              "pitch": 60,
              "velocity": 82,
              "position": 14.510416666666666,
              "duration": 0.052083333333333336
            },
            {
              "pitch": 64,
              "velocity": 82,
              "position": 14.520833333333334,
              "duration": 0.052083333333333336
            },
            {
              "pitch": 67,
              "velocity": 82,
              "position": 14.53125,
              "duration": 0.052083333333333336
            },
            {
              "pitch": 71,
              "velocity": 82,
              "position": 14.53125,
              "duration": 0.052083333333333336
            },
            {
              "pitch": 67,
              "velocity": 66,
              "position": 14.808333333333334,
              "duration": 0.041666666666666664
            },
            {
              "pitch": 71,
              "velocity": 66,
              "position": 14.808333333333334,
              "duration": 0.041666666666666664
            },
            {
              "pitch": 64,
              "velocity": 66,
              "position": 14.81875,
              "duration": 0.041666666666666664
            },
            {
              "pitch": 60,
              "velocity": 66,
              "position": 14.829166666666667,
              "duration": 0.041666666666666664
            },
            {
              "pitch": 55,
              "velocity": 66,
              "position": 14.839583333333334,
              "duration": 0.041666666666666664
            },
            {
              "pitch": 59,
              "velocity": 66,
              "position": 14.839583333333334,
              "duration": 0.041666666666666664
            },
            {
              "pitch": 55,
              "velocity": 47,
              "position": 15,
              "duration": 0.28125
            },
            {
              "pitch": 59,
              "velocity": 47,
              "position": 15,
              "duration": 0.28125
            },
            {
              "pitch": 60,
              "velocity": 55,
              "position": 15.010416666666666,
              "duration": 0.28125
            },
            {
              "pitch": 64,
              "velocity": 55,
              "position": 15.020833333333334,
              "duration": 0.28125
            },
            {
              "pitch": 67,
              "velocity": 55,
              "position": 15.03125,
              "duration": 0.27291666666666664
            },
            {
              "pitch": 71,
              "velocity": 55,
              "position": 15.03125,
              "duration": 0.27291666666666664
            },
            {
              "pitch": 67,
              "velocity": 65,
              "position": 15.308333333333334,
              "duration": 0.11458333333333333
            },
            {
              "pitch": 71,
              "velocity": 65,
              "position": 15.308333333333334,
              "duration": 0.11458333333333333
            },
            {
              "pitch": 64,
              "velocity": 65,
              "position": 15.31875,
              "duration": 0.11458333333333333
            },
            {
              "pitch": 60,
              "velocity": 65,
              "position": 15.329166666666667,
              "duration": 0.11458333333333333
            },
            {
              "pitch": 55,
              "velocity": 65,
              "position": 15.339583333333334,
              "duration": 0.11458333333333333
            },
            {
              "pitch": 59,
              "velocity": 65,
              "position": 15.339583333333334,
              "duration": 0.11458333333333333
            },
            {
              "pitch": 55,
              "velocity": 41,
              "position": 15.5,
              "duration": 0.11458333333333333
            },
            {
              "pitch": 59,
              "velocity": 41,
              "position": 15.5,
              "duration": 0.11458333333333333
            },
            {
              "pitch": 60,
              "velocity": 41,
              "position": 15.510416666666666,
              "duration": 0.11458333333333333
            },
            {
              "pitch": 64,
              "velocity": 41,
              "position": 15.520833333333334,
              "duration": 0.11458333333333333
            },
            {
              "pitch": 67,
              "velocity": 41,
              "position": 15.53125,
              "duration": 0.11458333333333333
            },
            {
              "pitch": 71,
              "velocity": 41,
              "position": 15.53125,
              "duration": 0.11458333333333333
            },
            {
              "pitch": 67,
              "velocity": 36,
              "position": 15.808333333333334,
              "duration": 0.16666666666666666
            },
            {
              "pitch": 71,
              "velocity": 36,
              "position": 15.808333333333334,
              "duration": 0.16666666666666666
            },
            {
              "pitch": 64,
              "velocity": 36,
              "position": 15.81875,
              "duration": 0.16666666666666666
            },
            {
              "pitch": 60,
              "velocity": 36,
              "position": 15.829166666666667,
              "duration": 0.16666666666666666
            },
            {
              "pitch": 55,
              "velocity": 36,
              "position": 15.839583333333334,
              "duration": 0.15625
            },
            {
              "pitch": 59,
              "velocity": 36,
              "position": 15.839583333333334,
              "duration": 0.15625
            }
          ]
        },
        "12": {
          "ctab": {
            "srcChannel": 12,
            "name": "EP",
            "accType": "CHORD2",
            "editable": false,
            "mutedNotes": [],
            "mutedChords": [],
            "autoStart": false,
            "sourceChordNote": 0,
            "sourceChordType": "Maj7",
            "ctb2Low": null,
            "ctb2Main": {
              "ntr": "ROOT_FIXED",
              "ntt": "CHORD",
              "bassOn": false,
              "chordRootUpperLimit": 7,
              "noteLowLimit": 0,
              "noteHighLimit": 127,
              "rtr": "PITCH_SHIFT"
            },
            "ctb2High": null
          },
          "notes": [
            {
              "pitch": 55,
              "velocity": 94,
              "position": 0,
              "duration": 0.4125
            },
            {
              "pitch": 64,
              "velocity": 105,
              "position": 0,
              "duration": 0.44375
            },
            {
              "pitch": 59,
              "velocity": 96,
              "position": 0,
              "duration": 0.45416666666666666
            },
            {
              "pitch": 59,
              "velocity": 86,
              "position": 0.8083333333333333,
              "duration": 0.0625
            },
            {
              "pitch": 55,
              "velocity": 73,
              "position": 0.8083333333333333,
              "duration": 0.06458333333333334
            },
            {
              "pitch": 64,
              "velocity": 86,
              "position": 0.8083333333333333,
              "duration": 0.07291666666666667
            },
            {
              "pitch": 55,
              "velocity": 102,
              "position": 1.5,
              "duration": 0.0625
            },
            {
              "pitch": 59,
              "velocity": 100,
              "position": 1.5,
              "duration": 0.09791666666666667
            },
            {
              "pitch": 64,
              "velocity": 100,
              "position": 1.5,
              "duration": 0.15416666666666667
            },
            {
              "pitch": 55,
              "velocity": 89,
              "position": 2.5,
              "duration": 0.05625
            },
            {
              "pitch": 59,
              "velocity": 94,
              "position": 2.5,
              "duration": 0.07708333333333334
            },
            {
              "pitch": 64,
              "velocity": 100,
              "position": 2.5,
              "duration": 0.10625
            },
            {
              "pitch": 55,
              "velocity": 74,
              "position": 3.308333333333333,
              "duration": 0.0625
            },
            {
              "pitch": 64,
              "velocity": 86,
              "position": 3.308333333333333,
              "duration": 0.0625
            },
            {
              "pitch": 59,
              "velocity": 91,
              "position": 3.308333333333333,
              "duration": 0.06458333333333334
            },
            {
              "pitch": 55,
              "velocity": 91,
              "position": 4,
              "duration": 0.4125
            },
            {
              "pitch": 64,
              "velocity": 105,
              "position": 4,
              "duration": 0.42083333333333334
            },
            {
              "pitch": 59,
              "velocity": 102,
              "position": 4,
              "duration": 0.45416666666666666
            },
            {
              "pitch": 55,
              "velocity": 89,
              "position": 4.808333333333334,
              "duration": 0.06875
            },
            {
              "pitch": 59,
              "velocity": 94,
              "position": 4.808333333333334,
              "duration": 0.1
            },
            {
              "pitch": 64,
              "velocity": 91,
              "position": 4.808333333333334,
              "duration": 0.14166666666666666
            },
            {
              "pitch": 55,
              "velocity": 94,
              "position": 5.5,
              "duration": 0.058333333333333334
            },
            {
              "pitch": 64,
              "velocity": 102,
              "position": 5.5,
              "duration": 0.1125
            },
            {
              "pitch": 59,
              "velocity": 96,
              "position": 5.5,
              "duration": 0.1125
            },
            {
              "pitch": 55,
              "velocity": 105,
              "position": 6.5,
              "duration": 0.075
            },
            {
              "pitch": 59,
              "velocity": 96,
              "position": 6.5,
              "duration": 0.12916666666666668
            },
            {
              "pitch": 64,
              "velocity": 96,
              "position": 6.5,
              "duration": 0.15625
            },
            {
              "pitch": 55,
              "velocity": 73,
              "position": 7.308333333333334,
              "duration": 0.0625
            },
            {
              "pitch": 59,
              "velocity": 94,
              "position": 7.308333333333334,
              "duration": 0.12916666666666668
            },
            {
              "pitch": 64,
              "velocity": 94,
              "position": 7.308333333333334,
              "duration": 0.14375
            },
            {
              "pitch": 55,
              "velocity": 81,
              "position": 8,
              "duration": 0.44166666666666665
            },
            {
              "pitch": 64,
              "velocity": 89,
              "position": 8,
              "duration": 0.45208333333333334
            },
            {
              "pitch": 59,
              "velocity": 89,
              "position": 8,
              "duration": 0.49166666666666664
            },
            {
              "pitch": 55,
              "velocity": 98,
              "position": 8.808333333333334,
              "duration": 0.07708333333333334
            },
            {
              "pitch": 59,
              "velocity": 94,
              "position": 8.808333333333334,
              "duration": 0.11666666666666667
            },
            {
              "pitch": 64,
              "velocity": 100,
              "position": 8.808333333333334,
              "duration": 0.14166666666666666
            },
            {
              "pitch": 55,
              "velocity": 96,
              "position": 9.5,
              "duration": 0.07083333333333333
            },
            {
              "pitch": 59,
              "velocity": 96,
              "position": 9.5,
              "duration": 0.11666666666666667
            },
            {
              "pitch": 64,
              "velocity": 96,
              "position": 9.5,
              "duration": 0.1625
            },
            {
              "pitch": 64,
              "velocity": 98,
              "position": 10.5,
              "duration": 0.09583333333333334
            },
            {
              "pitch": 55,
              "velocity": 94,
              "position": 10.5,
              "duration": 0.10208333333333333
            },
            {
              "pitch": 59,
              "velocity": 96,
              "position": 10.5,
              "duration": 0.14583333333333334
            },
            {
              "pitch": 55,
              "velocity": 67,
              "position": 11.308333333333334,
              "duration": 0.058333333333333334
            },
            {
              "pitch": 64,
              "velocity": 86,
              "position": 11.308333333333334,
              "duration": 0.07916666666666666
            },
            {
              "pitch": 59,
              "velocity": 86,
              "position": 11.308333333333334,
              "duration": 0.0875
            },
            {
              "pitch": 55,
              "velocity": 89,
              "position": 12,
              "duration": 0.5
            },
            {
              "pitch": 59,
              "velocity": 91,
              "position": 12,
              "duration": 0.5395833333333333
            },
            {
              "pitch": 64,
              "velocity": 89,
              "position": 12,
              "duration": 0.5458333333333333
            },
            {
              "pitch": 55,
              "velocity": 98,
              "position": 12.808333333333334,
              "duration": 0.0875
            },
            {
              "pitch": 59,
              "velocity": 89,
              "position": 12.808333333333334,
              "duration": 0.10416666666666667
            },
            {
              "pitch": 64,
              "velocity": 98,
              "position": 12.808333333333334,
              "duration": 0.12708333333333333
            },
            {
              "pitch": 59,
              "velocity": 86,
              "position": 13.5,
              "duration": 0.08125
            },
            {
              "pitch": 55,
              "velocity": 98,
              "position": 13.5,
              "duration": 0.11666666666666667
            },
            {
              "pitch": 64,
              "velocity": 102,
              "position": 13.5,
              "duration": 0.13541666666666666
            },
            {
              "pitch": 55,
              "velocity": 89,
              "position": 14.5,
              "duration": 0.09375
            },
            {
              "pitch": 59,
              "velocity": 100,
              "position": 14.5,
              "duration": 0.14166666666666666
            },
            {
              "pitch": 64,
              "velocity": 87,
              "position": 14.5,
              "duration": 0.1625
            },
            {
              "pitch": 55,
              "velocity": 109,
              "position": 15.308333333333334,
              "duration": 0.06875
            },
            {
              "pitch": 59,
              "velocity": 94,
              "position": 15.308333333333334,
              "duration": 0.11458333333333333
            },
            {
              "pitch": 64,
              "velocity": 100,
              "position": 15.308333333333334,
              "duration": 0.11875
            }
          ]
        },
        "13": {
          "ctab": {
            "srcChannel": 13,
            "name": "Pad",
            "accType": "PAD",
            "editable": false,
            "mutedNotes": [],
            "mutedChords": [],
            "autoStart": false,
            "sourceChordNote": 0,
            "sourceChordType": "Maj7",
            "ctb2Low": null,
            "ctb2Main": {
              "ntr": "ROOT_FIXED",
              "ntt": "CHORD",
              "bassOn": false,
              "chordRootUpperLimit": 7,
              "noteLowLimit": 0,
              "noteHighLimit": 127,
              "rtr": "PITCH_SHIFT"
            },
            "ctb2High": null
          },
          "notes": [
            {
              "pitch": 55,
              "velocity": 75,
              "position": 0,
              "duration": 7.979166666666667
            },
            {
              "pitch": 64,
              "velocity": 75,
              "position": 0,
              "duration": 7.979166666666667
            },
            {
              "pitch": 59,
              "velocity": 75,
              "position": 0,
              "duration": 7.979166666666667
            },
            {
              "pitch": 55,
              "velocity": 75,
              "position": 8,
              "duration": 7.979166666666667
            },
            {
              "pitch": 64,
              "velocity": 75,
              "position": 8,
              "duration": 7.979166666666667
            },
            {
              "pitch": 59,
              "velocity": 75,
              "position": 8,
              "duration": 7.979166666666667
            }
          ]
        },
        "14": {
          "ctab": {
            "srcChannel": 14,
            "name": "Mute",
            "accType": "PHRASE1",
            "editable": false,
            "mutedNotes": [],
            "mutedChords": [
              "Maj7aug",
              "minMaj7(9)",
              "minMaj7",
              "Maj7(9)",
              "Maj7#11",
              "Maj7"
            ],
            "autoStart": false,
            "sourceChordNote": 0,
            "sourceChordType": "Maj7",
            "ctb2Low": null,
            "ctb2Main": {
              "ntr": "ROOT_TRANSPOSITION",
              "ntt": "CHORD",
              "bassOn": false,
              "chordRootUpperLimit": 3,
              "noteLowLimit": 0,
              "noteHighLimit": 127,
              "rtr": "PITCH_SHIFT"
            },
            "ctb2High": null
          },
          "notes": [
            {
              "pitch": 60,
              "velocity": 85,
              "position": 0,
              "duration": 0.3645833333333333
            },
            {
              "pitch": 115,
              "velocity": 75,
              "position": 0,
              "duration": 0.3645833333333333
            },
            {
              "pitch": 60,
              "velocity": 85,
              "position": 0.8083333333333333,
              "duration": 0.14583333333333334
            },
            {
              "pitch": 114,
              "velocity": 75,
              "position": 0.8083333333333333,
              "duration": 0.14583333333333334
            },
            {
              "pitch": 60,
              "velocity": 85,
              "position": 1.5,
              "duration": 0.17708333333333334
            },
            {
              "pitch": 115,
              "velocity": 75,
              "position": 1.5,
              "duration": 0.17708333333333334
            },
            {
              "pitch": 60,
              "velocity": 85,
              "position": 1.8083333333333333,
              "duration": 0.125
            },
            {
              "pitch": 114,
              "velocity": 75,
              "position": 1.8083333333333333,
              "duration": 0.125
            },
            {
              "pitch": 60,
              "velocity": 85,
              "position": 2.308333333333333,
              "duration": 0.125
            },
            {
              "pitch": 114,
              "velocity": 75,
              "position": 2.308333333333333,
              "duration": 0.125
            },
            {
              "pitch": 60,
              "velocity": 85,
              "position": 2.808333333333333,
              "duration": 0.010416666666666666
            },
            {
              "pitch": 114,
              "velocity": 75,
              "position": 2.808333333333333,
              "duration": 0.010416666666666666
            },
            {
              "pitch": 59,
              "velocity": 85,
              "position": 3,
              "duration": 0.14583333333333334
            },
            {
              "pitch": 115,
              "velocity": 75,
              "position": 3,
              "duration": 0.14583333333333334
            },
            {
              "pitch": 60,
              "velocity": 85,
              "position": 3.308333333333333,
              "duration": 0.125
            },
            {
              "pitch": 114,
              "velocity": 75,
              "position": 3.308333333333333,
              "duration": 0.125
            },
            {
              "pitch": 60,
              "velocity": 85,
              "position": 3.5,
              "duration": 0.010416666666666666
            },
            {
              "pitch": 115,
              "velocity": 75,
              "position": 3.5,
              "duration": 0.010416666666666666
            },
            {
              "pitch": 114,
              "velocity": 75,
              "position": 3.808333333333333,
              "duration": 0.010416666666666666
            },
            {
              "pitch": 67,
              "velocity": 110,
              "position": 3.808333333333333,
              "duration": 0.5
            },
            {
              "pitch": 59,
              "velocity": 110,
              "position": 3.8375,
              "duration": 0.4708333333333333
            },
            {
              "pitch": 64,
              "velocity": 110,
              "position": 3.8229166666666665,
              "duration": 0.48541666666666666
            },
            {
              "pitch": 67,
              "velocity": 40,
              "position": 4.308333333333334,
              "duration": 0.19166666666666668
            },
            {
              "pitch": 59,
              "velocity": 40,
              "position": 4.3375,
              "duration": 0.1625
            },
            {
              "pitch": 64,
              "velocity": 40,
              "position": 4.322916666666667,
              "duration": 0.17708333333333334
            },
            {
              "pitch": 60,
              "velocity": 85,
              "position": 4.808333333333334,
              "duration": 0.14583333333333334
            },
            {
              "pitch": 114,
              "velocity": 75,
              "position": 4.808333333333334,
              "duration": 0.14583333333333334
            },
            {
              "pitch": 60,
              "velocity": 85,
              "position": 5.5,
              "duration": 0.17708333333333334
            },
            {
              "pitch": 115,
              "velocity": 75,
              "position": 5.5,
              "duration": 0.17708333333333334
            },
            {
              "pitch": 60,
              "velocity": 85,
              "position": 5.808333333333334,
              "duration": 0.125
            },
            {
              "pitch": 114,
              "velocity": 75,
              "position": 5.808333333333334,
              "duration": 0.125
            },
            {
              "pitch": 60,
              "velocity": 85,
              "position": 6.308333333333334,
              "duration": 0.125
            },
            {
              "pitch": 115,
              "velocity": 75,
              "position": 6.308333333333334,
              "duration": 0.125
            },
            {
              "pitch": 60,
              "velocity": 85,
              "position": 6.808333333333334,
              "duration": 0.010416666666666666
            },
            {
              "pitch": 115,
              "velocity": 75,
              "position": 6.808333333333334,
              "duration": 0.010416666666666666
            },
            {
              "pitch": 59,
              "velocity": 85,
              "position": 7,
              "duration": 0.14583333333333334
            },
            {
              "pitch": 115,
              "velocity": 75,
              "position": 7,
              "duration": 0.14583333333333334
            },
            {
              "pitch": 60,
              "velocity": 85,
              "position": 7.308333333333334,
              "duration": 0.125
            },
            {
              "pitch": 114,
              "velocity": 75,
              "position": 7.308333333333334,
              "duration": 0.125
            },
            {
              "pitch": 60,
              "velocity": 85,
              "position": 7.5,
              "duration": 0.010416666666666666
            },
            {
              "pitch": 115,
              "velocity": 75,
              "position": 7.5,
              "duration": 0.010416666666666666
            },
            {
              "pitch": 60,
              "velocity": 85,
              "position": 7.808333333333334,
              "duration": 0.052083333333333336
            },
            {
              "pitch": 114,
              "velocity": 75,
              "position": 7.808333333333334,
              "duration": 0.052083333333333336
            },
            {
              "pitch": 60,
              "velocity": 85,
              "position": 8,
              "duration": 0.3645833333333333
            },
            {
              "pitch": 115,
              "velocity": 75,
              "position": 8,
              "duration": 0.3645833333333333
            },
            {
              "pitch": 60,
              "velocity": 85,
              "position": 8.808333333333334,
              "duration": 0.14583333333333334
            },
            {
              "pitch": 114,
              "velocity": 75,
              "position": 8.808333333333334,
              "duration": 0.14583333333333334
            },
            {
              "pitch": 60,
              "velocity": 85,
              "position": 9.5,
              "duration": 0.17708333333333334
            },
            {
              "pitch": 115,
              "velocity": 75,
              "position": 9.5,
              "duration": 0.17708333333333334
            },
            {
              "pitch": 60,
              "velocity": 85,
              "position": 9.808333333333334,
              "duration": 0.125
            },
            {
              "pitch": 114,
              "velocity": 75,
              "position": 9.808333333333334,
              "duration": 0.125
            },
            {
              "pitch": 60,
              "velocity": 85,
              "position": 10.308333333333334,
              "duration": 0.125
            },
            {
              "pitch": 115,
              "velocity": 75,
              "position": 10.308333333333334,
              "duration": 0.125
            },
            {
              "pitch": 60,
              "velocity": 85,
              "position": 10.808333333333334,
              "duration": 0.010416666666666666
            },
            {
              "pitch": 114,
              "velocity": 75,
              "position": 10.808333333333334,
              "duration": 0.010416666666666666
            },
            {
              "pitch": 59,
              "velocity": 85,
              "position": 11,
              "duration": 0.14583333333333334
            },
            {
              "pitch": 115,
              "velocity": 75,
              "position": 11,
              "duration": 0.14583333333333334
            },
            {
              "pitch": 60,
              "velocity": 85,
              "position": 11.308333333333334,
              "duration": 0.125
            },
            {
              "pitch": 114,
              "velocity": 75,
              "position": 11.308333333333334,
              "duration": 0.125
            },
            {
              "pitch": 60,
              "velocity": 85,
              "position": 11.5,
              "duration": 0.010416666666666666
            },
            {
              "pitch": 115,
              "velocity": 75,
              "position": 11.5,
              "duration": 0.010416666666666666
            },
            {
              "pitch": 114,
              "velocity": 75,
              "position": 11.808333333333334,
              "duration": 0.010416666666666666
            },
            {
              "pitch": 67,
              "velocity": 109,
              "position": 11.808333333333334,
              "duration": 0.5
            },
            {
              "pitch": 59,
              "velocity": 109,
              "position": 11.8375,
              "duration": 0.4708333333333333
            },
            {
              "pitch": 64,
              "velocity": 109,
              "position": 11.822916666666666,
              "duration": 0.48541666666666666
            },
            {
              "pitch": 67,
              "velocity": 40,
              "position": 12.308333333333334,
              "duration": 0.19166666666666668
            },
            {
              "pitch": 64,
              "velocity": 40,
              "position": 12.322916666666666,
              "duration": 0.19166666666666668
            },
            {
              "pitch": 59,
              "velocity": 40,
              "position": 12.3375,
              "duration": 0.19166666666666668
            },
            {
              "pitch": 60,
              "velocity": 85,
              "position": 12.808333333333334,
              "duration": 0.14583333333333334
            },
            {
              "pitch": 114,
              "velocity": 75,
              "position": 12.808333333333334,
              "duration": 0.19166666666666668
            },
            {
              "pitch": 60,
              "velocity": 85,
              "position": 13.5,
              "duration": 0.17708333333333334
            },
            {
              "pitch": 115,
              "velocity": 75,
              "position": 13.5,
              "duration": 0.17708333333333334
            },
            {
              "pitch": 60,
              "velocity": 85,
              "position": 13.808333333333334,
              "duration": 0.125
            },
            {
              "pitch": 114,
              "velocity": 75,
              "position": 13.808333333333334,
              "duration": 0.125
            },
            {
              "pitch": 60,
              "velocity": 85,
              "position": 14.308333333333334,
              "duration": 0.125
            },
            {
              "pitch": 114,
              "velocity": 75,
              "position": 14.308333333333334,
              "duration": 0.125
            },
            {
              "pitch": 60,
              "velocity": 85,
              "position": 14.808333333333334,
              "duration": 0.010416666666666666
            },
            {
              "pitch": 114,
              "velocity": 75,
              "position": 14.808333333333334,
              "duration": 0.010416666666666666
            },
            {
              "pitch": 60,
              "velocity": 85,
              "position": 15,
              "duration": 0.14583333333333334
            },
            {
              "pitch": 115,
              "velocity": 75,
              "position": 15,
              "duration": 0.14583333333333334
            },
            {
              "pitch": 60,
              "velocity": 85,
              "position": 15.308333333333334,
              "duration": 0.125
            },
            {
              "pitch": 114,
              "velocity": 75,
              "position": 15.308333333333334,
              "duration": 0.125
            },
            {
              "pitch": 60,
              "velocity": 85,
              "position": 15.5,
              "duration": 0.010416666666666666
            },
            {
              "pitch": 115,
              "velocity": 75,
              "position": 15.5,
              "duration": 0.010416666666666666
            },
            {
              "pitch": 60,
              "velocity": 85,
              "position": 15.808333333333334,
              "duration": 0.010416666666666666
            },
            {
              "pitch": 115,
              "velocity": 75,
              "position": 15.808333333333334,
              "duration": 0.010416666666666666
            }
          ]
        }
      }
    },
    "Fill_In_AA": {
      "type": "Fill_In_AA",
      "sizeInBeats": 4,
      "channels": {
        "3": {
          "ctab": {
            "srcChannel": 3,
            "name": "EP Rt",
            "accType": "CHORD2",
            "editable": true,
            "mutedNotes": [],
            "mutedChords": [
              "1+2+5",
              "sus4",
              "1+5",
              "1+8",
              "Maj7aug",
              "dim",
              "minMaj7(9)",
              "minMaj7",
              "min6",
              "min",
              "aug",
              "Maj7(9)",
              "Maj7#11",
              "Maj7",
              "Maj6",
              "Maj"
            ],
            "autoStart": false,
            "sourceChordNote": 0,
            "sourceChordType": "Maj7",
            "ctb2Low": null,
            "ctb2Main": {
              "ntr": "ROOT_TRANSPOSITION",
              "ntt": "CHORD",
              "bassOn": false,
              "chordRootUpperLimit": 7,
              "noteLowLimit": 0,
              "noteHighLimit": 127,
              "rtr": "PITCH_SHIFT"
            },
            "ctb2High": null
          },
          "notes": [
            {
              "pitch": 60,
              "velocity": 94,
              "position": 0,
              "duration": 2.714583333333333
            },
            {
              "pitch": 60,
              "velocity": 105,
              "position": 3,
              "duration": 0.12083333333333333
            }
          ]
        },
        "4": {
          "ctab": {
            "srcChannel": 4,
            "name": "Pad",
            "accType": "PAD",
            "editable": false,
            "mutedNotes": [],
            "mutedChords": [
              "1+2+5",
              "sus4",
              "1+5",
              "1+8",
              "Maj7aug",
              "dim",
              "minMaj7(9)",
              "minMaj7",
              "min6",
              "min",
              "aug",
              "Maj7(9)",
              "Maj7#11",
              "Maj7",
              "Maj6",
              "Maj"
            ],
            "autoStart": false,
            "sourceChordNote": 0,
            "sourceChordType": "Maj7",
            "ctb2Low": null,
            "ctb2Main": {
              "ntr": "ROOT_TRANSPOSITION",
              "ntt": "MELODY",
              "bassOn": false,
              "chordRootUpperLimit": 6,
              "noteLowLimit": 0,
              "noteHighLimit": 127,
              "rtr": "PITCH_SHIFT"
            },
            "ctb2High": null
          },
          "notes": [
            {
              "pitch": 60,
              "velocity": 42,
              "position": 0,
              "duration": 3.9895833333333335
            }
          ]
        },
        "5": {
          "ctab": {
            "srcChannel": 5,
            "name": "Mute",
            "accType": "PHRASE1",
            "editable": false,
            "mutedNotes": [],
            "mutedChords": [
              "1+2+5",
              "sus4",
              "1+5",
              "1+8",
              "7aug",
              "7(#9)",
              "7(b13)",
              "7(b9)",
              "7(13)",
              "7#11",
              "7(9)",
              "7b5",
              "7sus4",
              "7th",
              "dim7",
              "dim",
              "min7(11)",
              "min7(9)",
              "min(9)",
              "m7b5",
              "min7",
              "min6",
              "min",
              "aug",
              "Maj6(9)",
              "Maj(9)",
              "Maj6",
              "Maj"
            ],
            "autoStart": false,
            "sourceChordNote": 0,
            "sourceChordType": "Maj7",
            "ctb2Low": null,
            "ctb2Main": {
              "ntr": "ROOT_TRANSPOSITION",
              "ntt": "CHORD",
              "bassOn": false,
              "chordRootUpperLimit": 3,
              "noteLowLimit": 0,
              "noteHighLimit": 127,
              "rtr": "PITCH_SHIFT"
            },
            "ctb2High": null
          },
          "notes": [
            {
              "pitch": 59,
              "velocity": 85,
              "position": 0,
              "duration": 0.010416666666666666
            },
            {
              "pitch": 115,
              "velocity": 75,
              "position": 0,
              "duration": 0.010416666666666666
            },
            {
              "pitch": 59,
              "velocity": 85,
              "position": 0.30833333333333335,
              "duration": 0.010416666666666666
            },
            {
              "pitch": 114,
              "velocity": 75,
              "position": 0.30833333333333335,
              "duration": 0.010416666666666666
            },
            {
              "pitch": 59,
              "velocity": 85,
              "position": 0.5,
              "duration": 0.16666666666666666
            },
            {
              "pitch": 115,
              "velocity": 75,
              "position": 0.5,
              "duration": 0.16666666666666666
            },
            {
              "pitch": 59,
              "velocity": 85,
              "position": 0.8083333333333333,
              "duration": 0.010416666666666666
            },
            {
              "pitch": 114,
              "velocity": 75,
              "position": 0.8083333333333333,
              "duration": 0.010416666666666666
            },
            {
              "pitch": 59,
              "velocity": 85,
              "position": 1,
              "duration": 0.010416666666666666
            },
            {
              "pitch": 115,
              "velocity": 75,
              "position": 1,
              "duration": 0.010416666666666666
            },
            {
              "pitch": 59,
              "velocity": 85,
              "position": 1.3083333333333333,
              "duration": 0.125
            },
            {
              "pitch": 115,
              "velocity": 75,
              "position": 1.3083333333333333,
              "duration": 0.125
            },
            {
              "pitch": 59,
              "velocity": 85,
              "position": 2,
              "duration": 0.19791666666666666
            },
            {
              "pitch": 115,
              "velocity": 75,
              "position": 2,
              "duration": 0.19791666666666666
            },
            {
              "pitch": 59,
              "velocity": 85,
              "position": 2.308333333333333,
              "duration": 0.010416666666666666
            },
            {
              "pitch": 114,
              "velocity": 75,
              "position": 2.308333333333333,
              "duration": 0.010416666666666666
            },
            {
              "pitch": 59,
              "velocity": 85,
              "position": 2.5,
              "duration": 0.010416666666666666
            },
            {
              "pitch": 115,
              "velocity": 75,
              "position": 2.5,
              "duration": 0.010416666666666666
            },
            {
              "pitch": 59,
              "velocity": 85,
              "position": 2.808333333333333,
              "duration": 0.15625
            },
            {
              "pitch": 114,
              "velocity": 75,
              "position": 2.808333333333333,
              "duration": 0.15625
            },
            {
              "pitch": 59,
              "velocity": 85,
              "position": 3,
              "duration": 0.010416666666666666
            },
            {
              "pitch": 115,
              "velocity": 75,
              "position": 3,
              "duration": 0.010416666666666666
            },
            {
              "pitch": 59,
              "velocity": 85,
              "position": 3.308333333333333,
              "duration": 0.010416666666666666
            },
            {
              "pitch": 114,
              "velocity": 75,
              "position": 3.308333333333333,
              "duration": 0.010416666666666666
            },
            {
              "pitch": 59,
              "velocity": 85,
              "position": 3.5,
              "duration": 0.21875
            },
            {
              "pitch": 115,
              "velocity": 75,
              "position": 3.5,
              "duration": 0.21875
            },
            {
              "pitch": 59,
              "velocity": 85,
              "position": 3.808333333333333,
              "duration": 0.010416666666666666
            },
            {
              "pitch": 114,
              "velocity": 75,
              "position": 3.808333333333333,
              "duration": 0.010416666666666666
            }
          ]
        },
        "8": {
          "ctab": {
            "srcChannel": 8,
            "name": "Rhyth1",
            "accType": "SUBRHYTHM",
            "editable": false,
            "mutedNotes": [],
            "mutedChords": [],
            "autoStart": true,
            "sourceChordNote": 0,
            "sourceChordType": "Maj7",
            "ctb2Low": null,
            "ctb2Main": {
              "ntr": "ROOT_FIXED",
              "ntt": "BYPASS",
              "bassOn": false,
              "chordRootUpperLimit": 6,
              "noteLowLimit": 0,
              "noteHighLimit": 127,
              "rtr": "PITCH_SHIFT"
            },
            "ctb2High": null
          },
          "notes": []
        },
        "9": {
          "ctab": {
            "srcChannel": 9,
            "name": "Rhyth2",
            "accType": "RHYTHM",
            "editable": false,
            "mutedNotes": [],
            "mutedChords": [],
            "autoStart": true,
            "sourceChordNote": 0,
            "sourceChordType": "Maj7",
            "ctb2Low": null,
            "ctb2Main": {
              "ntr": "ROOT_FIXED",
              "ntt": "BYPASS",
              "bassOn": false,
              "chordRootUpperLimit": 6,
              "noteLowLimit": 0,
              "noteHighLimit": 127,
              "rtr": "PITCH_SHIFT"
            },
            "ctb2High": null
          },
          "notes": [
            {
              "pitch": 36,
              "velocity": 98,
              "position": 0,
              "duration": 0.010416666666666666
            },
            {
              "pitch": 42,
              "velocity": 87,
              "position": 0,
              "duration": 0.010416666666666666
            },
            {
              "pitch": 42,
              "velocity": 46,
              "position": 0.5,
              "duration": 0.010416666666666666
            },
            {
              "pitch": 37,
              "velocity": 96,
              "position": 1,
              "duration": 0.010416666666666666
            },
            {
              "pitch": 42,
              "velocity": 117,
              "position": 1,
              "duration": 0.010416666666666666
            },
            {
              "pitch": 42,
              "velocity": 27,
              "position": 1.5,
              "duration": 0.010416666666666666
            },
            {
              "pitch": 42,
              "velocity": 36,
              "position": 1.6666666666666667,
              "duration": 0.010416666666666666
            },
            {
              "pitch": 36,
              "velocity": 40,
              "position": 1.7395833333333333,
              "duration": 0.010416666666666666
            },
            {
              "pitch": 42,
              "velocity": 58,
              "position": 1.8333333333333333,
              "duration": 0.010416666666666666
            },
            {
              "pitch": 36,
              "velocity": 90,
              "position": 2,
              "duration": 0.010416666666666666
            },
            {
              "pitch": 46,
              "velocity": 74,
              "position": 2,
              "duration": 0.010416666666666666
            },
            {
              "pitch": 38,
              "velocity": 62,
              "position": 2.8125,
              "duration": 0.010416666666666666
            },
            {
              "pitch": 38,
              "velocity": 110,
              "position": 3,
              "duration": 0.010416666666666666
            },
            {
              "pitch": 36,
              "velocity": 48,
              "position": 3.8125,
              "duration": 0.010416666666666666
            },
            {
              "pitch": 49,
              "velocity": 73,
              "position": 3.9895833333333335,
              "duration": 0.010416666666666666
            }
          ]
        },
        "10": {
          "ctab": {
            "srcChannel": 10,
            "name": "Bass",
            "accType": "BASS",
            "editable": false,
            "mutedNotes": [],
            "mutedChords": [],
            "autoStart": false,
            "sourceChordNote": 0,
            "sourceChordType": "Maj7",
            "ctb2Low": null,
            "ctb2Main": {
              "ntr": "ROOT_TRANSPOSITION",
              "ntt": "MELODY",
              "bassOn": true,
              "chordRootUpperLimit": 8,
              "noteLowLimit": 28,
              "noteHighLimit": 127,
              "rtr": "PITCH_SHIFT_TO_ROOT"
            },
            "ctb2High": null
          },
          "notes": [
            {
              "pitch": 24,
              "velocity": 60,
              "position": 0,
              "duration": 0.7604166666666666
            },
            {
              "pitch": 24,
              "velocity": 100,
              "position": 0.7916666666666666,
              "duration": 0.08333333333333333
            },
            {
              "pitch": 24,
              "velocity": 100,
              "position": 1.7916666666666667,
              "duration": 0.052083333333333336
            },
            {
              "pitch": 24,
              "velocity": 60,
              "position": 2,
              "duration": 0.9791666666666666
            },
            {
              "pitch": 24,
              "velocity": 100,
              "position": 3,
              "duration": 0.052083333333333336
            },
            {
              "pitch": 31,
              "velocity": 55,
              "position": 3.5,
              "duration": 0.4791666666666667
            }
          ]
        },
        "11": {
          "ctab": {
            "srcChannel": 11,
            "name": "Gtr",
            "accType": "CHORD1",
            "editable": false,
            "mutedNotes": [],
            "mutedChords": [],
            "autoStart": false,
            "sourceChordNote": 0,
            "sourceChordType": "Maj7",
            "ctb2Low": null,
            "ctb2Main": {
              "ntr": "ROOT_TRANSPOSITION",
              "ntt": "MELODY",
              "bassOn": false,
              "chordRootUpperLimit": 7,
              "noteLowLimit": 0,
              "noteHighLimit": 127,
              "rtr": "PITCH_SHIFT"
            },
            "ctb2High": null
          },
          "notes": []
        },
        "12": {
          "ctab": {
            "srcChannel": 12,
            "name": "EP",
            "accType": "CHORD2",
            "editable": false,
            "mutedNotes": [],
            "mutedChords": [],
            "autoStart": false,
            "sourceChordNote": 0,
            "sourceChordType": "Maj7",
            "ctb2Low": null,
            "ctb2Main": {
              "ntr": "ROOT_FIXED",
              "ntt": "CHORD",
              "bassOn": false,
              "chordRootUpperLimit": 7,
              "noteLowLimit": 0,
              "noteHighLimit": 127,
              "rtr": "PITCH_SHIFT"
            },
            "ctb2High": null
          },
          "notes": [
            {
              "pitch": 55,
              "velocity": 87,
              "position": 0,
              "duration": 2.68125
            },
            {
              "pitch": 64,
              "velocity": 91,
              "position": 0,
              "duration": 2.6875
            },
            {
              "pitch": 59,
              "velocity": 94,
              "position": 0,
              "duration": 2.714583333333333
            },
            {
              "pitch": 59,
              "velocity": 105,
              "position": 3,
              "duration": 0.12083333333333333
            },
            {
              "pitch": 55,
              "velocity": 117,
              "position": 3,
              "duration": 0.1375
            },
            {
              "pitch": 64,
              "velocity": 105,
              "position": 3,
              "duration": 0.14375
            }
          ]
        },
        "13": {
          "ctab": {
            "srcChannel": 13,
            "name": "Pad",
            "accType": "PAD",
            "editable": false,
            "mutedNotes": [],
            "mutedChords": [],
            "autoStart": false,
            "sourceChordNote": 0,
            "sourceChordType": "Maj7",
            "ctb2Low": null,
            "ctb2Main": {
              "ntr": "ROOT_FIXED",
              "ntt": "CHORD",
              "bassOn": false,
              "chordRootUpperLimit": 7,
              "noteLowLimit": 0,
              "noteHighLimit": 127,
              "rtr": "PITCH_SHIFT"
            },
            "ctb2High": null
          },
          "notes": [
            {
              "pitch": 55,
              "velocity": 42,
              "position": 0,
              "duration": 3.9895833333333335
            },
            {
              "pitch": 64,
              "velocity": 42,
              "position": 0,
              "duration": 3.9895833333333335
            },
            {
              "pitch": 59,
              "velocity": 42,
              "position": 0,
              "duration": 3.9895833333333335
            }
          ]
        },
        "14": {
          "ctab": {
            "srcChannel": 14,
            "name": "Mute",
            "accType": "PHRASE1",
            "editable": false,
            "mutedNotes": [],
            "mutedChords": [
              "Maj7aug",
              "minMaj7(9)",
              "minMaj7",
              "Maj7(9)",
              "Maj7#11",
              "Maj7"
            ],
            "autoStart": false,
            "sourceChordNote": 0,
            "sourceChordType": "Maj7",
            "ctb2Low": null,
            "ctb2Main": {
              "ntr": "ROOT_TRANSPOSITION",
              "ntt": "CHORD",
              "bassOn": false,
              "chordRootUpperLimit": 3,
              "noteLowLimit": 0,
              "noteHighLimit": 127,
              "rtr": "PITCH_SHIFT"
            },
            "ctb2High": null
          },
          "notes": [
            {
              "pitch": 60,
              "velocity": 85,
              "position": 0,
              "duration": 0.010416666666666666
            },
            {
              "pitch": 115,
              "velocity": 75,
              "position": 0,
              "duration": 0.010416666666666666
            },
            {
              "pitch": 60,
              "velocity": 85,
              "position": 0.30833333333333335,
              "duration": 0.010416666666666666
            },
            {
              "pitch": 114,
              "velocity": 75,
              "position": 0.30833333333333335,
              "duration": 0.010416666666666666
            },
            {
              "pitch": 60,
              "velocity": 85,
              "position": 0.5,
              "duration": 0.16666666666666666
            },
            {
              "pitch": 115,
              "velocity": 75,
              "position": 0.5,
              "duration": 0.16666666666666666
            },
            {
              "pitch": 60,
              "velocity": 85,
              "position": 0.8083333333333333,
              "duration": 0.010416666666666666
            },
            {
              "pitch": 114,
              "velocity": 75,
              "position": 0.8083333333333333,
              "duration": 0.010416666666666666
            },
            {
              "pitch": 60,
              "velocity": 85,
              "position": 1,
              "duration": 0.010416666666666666
            },
            {
              "pitch": 115,
              "velocity": 75,
              "position": 1,
              "duration": 0.010416666666666666
            },
            {
              "pitch": 60,
              "velocity": 85,
              "position": 1.3083333333333333,
              "duration": 0.125
            },
            {
              "pitch": 115,
              "velocity": 75,
              "position": 1.3083333333333333,
              "duration": 0.125
            },
            {
              "pitch": 60,
              "velocity": 85,
              "position": 2,
              "duration": 0.19791666666666666
            },
            {
              "pitch": 115,
              "velocity": 75,
              "position": 2,
              "duration": 0.19791666666666666
            },
            {
              "pitch": 60,
              "velocity": 85,
              "position": 2.308333333333333,
              "duration": 0.010416666666666666
            },
            {
              "pitch": 114,
              "velocity": 75,
              "position": 2.308333333333333,
              "duration": 0.010416666666666666
            },
            {
              "pitch": 60,
              "velocity": 85,
              "position": 2.5,
              "duration": 0.010416666666666666
            },
            {
              "pitch": 115,
              "velocity": 75,
              "position": 2.5,
              "duration": 0.010416666666666666
            },
            {
              "pitch": 60,
              "velocity": 85,
              "position": 2.808333333333333,
              "duration": 0.15625
            },
            {
              "pitch": 114,
              "velocity": 75,
              "position": 2.808333333333333,
              "duration": 0.15625
            },
            {
              "pitch": 60,
              "velocity": 85,
              "position": 3,
              "duration": 0.010416666666666666
            },
            {
              "pitch": 115,
              "velocity": 75,
              "position": 3,
              "duration": 0.010416666666666666
            },
            {
              "pitch": 60,
              "velocity": 85,
              "position": 3.308333333333333,
              "duration": 0.010416666666666666
            },
            {
              "pitch": 114,
              "velocity": 75,
              "position": 3.308333333333333,
              "duration": 0.010416666666666666
            },
            {
              "pitch": 60,
              "velocity": 85,
              "position": 3.5,
              "duration": 0.21875
            },
            {
              "pitch": 115,
              "velocity": 75,
              "position": 3.5,
              "duration": 0.21875
            },
            {
              "pitch": 60,
              "velocity": 85,
              "position": 3.808333333333333,
              "duration": 0.010416666666666666
            },
            {
              "pitch": 114,
              "velocity": 75,
              "position": 3.808333333333333,
              "duration": 0.010416666666666666
            }
          ]
        }
      }
    },
    "Fill_In_BB": {
      "type": "Fill_In_BB",
      "sizeInBeats": 4,
      "channels": {
        "3": {
          "ctab": {
            "srcChannel": 3,
            "name": "EP Rt",
            "accType": "CHORD2",
            "editable": true,
            "mutedNotes": [],
            "mutedChords": [
              "1+2+5",
              "sus4",
              "1+5",
              "1+8",
              "Maj7aug",
              "dim",
              "minMaj7(9)",
              "minMaj7",
              "min6",
              "min",
              "aug",
              "Maj7(9)",
              "Maj7#11",
              "Maj7",
              "Maj6",
              "Maj"
            ],
            "autoStart": false,
            "sourceChordNote": 0,
            "sourceChordType": "Maj7",
            "ctb2Low": null,
            "ctb2Main": {
              "ntr": "ROOT_TRANSPOSITION",
              "ntt": "CHORD",
              "bassOn": false,
              "chordRootUpperLimit": 7,
              "noteLowLimit": 0,
              "noteHighLimit": 127,
              "rtr": "PITCH_SHIFT"
            },
            "ctb2High": null
          },
          "notes": [
            {
              "pitch": 60,
              "velocity": 94,
              "position": 0,
              "duration": 2.8625
            },
            {
              "pitch": 60,
              "velocity": 96,
              "position": 3,
              "duration": 0.3625
            }
          ]
        },
        "4": {
          "ctab": {
            "srcChannel": 4,
            "name": "Pad",
            "accType": "PAD",
            "editable": false,
            "mutedNotes": [],
            "mutedChords": [
              "1+2+5",
              "sus4",
              "1+5",
              "1+8",
              "Maj7aug",
              "dim",
              "minMaj7(9)",
              "minMaj7",
              "min6",
              "min",
              "aug",
              "Maj7(9)",
              "Maj7#11",
              "Maj7",
              "Maj6",
              "Maj"
            ],
            "autoStart": false,
            "sourceChordNote": 0,
            "sourceChordType": "Maj7",
            "ctb2Low": null,
            "ctb2Main": {
              "ntr": "ROOT_TRANSPOSITION",
              "ntt": "MELODY",
              "bassOn": false,
              "chordRootUpperLimit": 6,
              "noteLowLimit": 0,
              "noteHighLimit": 127,
              "rtr": "PITCH_SHIFT"
            },
            "ctb2High": null
          },
          "notes": [
            {
              "pitch": 60,
              "velocity": 46,
              "position": 0,
              "duration": 3.9895833333333335
            }
          ]
        },
        "5": {
          "ctab": {
            "srcChannel": 5,
            "name": "Mute",
            "accType": "PHRASE1",
            "editable": false,
            "mutedNotes": [],
            "mutedChords": [
              "1+2+5",
              "sus4",
              "1+5",
              "1+8",
              "7aug",
              "7(#9)",
              "7(b13)",
              "7(b9)",
              "7(13)",
              "7#11",
              "7(9)",
              "7b5",
              "7sus4",
              "7th",
              "dim7",
              "dim",
              "min7(11)",
              "min7(9)",
              "min(9)",
              "m7b5",
              "min7",
              "min6",
              "min",
              "aug",
              "Maj6(9)",
              "Maj(9)",
              "Maj6",
              "Maj"
            ],
            "autoStart": false,
            "sourceChordNote": 0,
            "sourceChordType": "Maj7",
            "ctb2Low": null,
            "ctb2Main": {
              "ntr": "ROOT_TRANSPOSITION",
              "ntt": "CHORD",
              "bassOn": false,
              "chordRootUpperLimit": 3,
              "noteLowLimit": 0,
              "noteHighLimit": 127,
              "rtr": "PITCH_SHIFT"
            },
            "ctb2High": null
          },
          "notes": [
            {
              "pitch": 71,
              "velocity": 41,
              "position": 3.808333333333333,
              "duration": 0.17083333333333334
            },
            {
              "pitch": 115,
              "velocity": 75,
              "position": 3.808333333333333,
              "duration": 0.175
            },
            {
              "pitch": 59,
              "velocity": 41,
              "position": 3.8291666666666666,
              "duration": 0.1625
            }
          ]
        },
        "8": {
          "ctab": {
            "srcChannel": 8,
            "name": "Rhyth1",
            "accType": "SUBRHYTHM",
            "editable": false,
            "mutedNotes": [],
            "mutedChords": [],
            "autoStart": true,
            "sourceChordNote": 0,
            "sourceChordType": "Maj7",
            "ctb2Low": null,
            "ctb2Main": {
              "ntr": "ROOT_FIXED",
              "ntt": "BYPASS",
              "bassOn": false,
              "chordRootUpperLimit": 6,
              "noteLowLimit": 0,
              "noteHighLimit": 127,
              "rtr": "PITCH_SHIFT"
            },
            "ctb2High": null
          },
          "notes": []
        },
        "9": {
          "ctab": {
            "srcChannel": 9,
            "name": "Rhyth2",
            "accType": "RHYTHM",
            "editable": false,
            "mutedNotes": [],
            "mutedChords": [],
            "autoStart": true,
            "sourceChordNote": 0,
            "sourceChordType": "Maj7",
            "ctb2Low": null,
            "ctb2Main": {
              "ntr": "ROOT_FIXED",
              "ntt": "BYPASS",
              "bassOn": false,
              "chordRootUpperLimit": 6,
              "noteLowLimit": 0,
              "noteHighLimit": 127,
              "rtr": "PITCH_SHIFT"
            },
            "ctb2High": null
          },
          "notes": [
            {
              "pitch": 36,
              "velocity": 98,
              "position": 0,
              "duration": 0.010416666666666666
            },
            {
              "pitch": 42,
              "velocity": 40,
              "position": 0,
              "duration": 0.010416666666666666
            },
            {
              "pitch": 42,
              "velocity": 27,
              "position": 0.3020833333333333,
              "duration": 0.010416666666666666
            },
            {
              "pitch": 42,
              "velocity": 113,
              "position": 0.5,
              "duration": 0.010416666666666666
            },
            {
              "pitch": 42,
              "velocity": 34,
              "position": 0.8020833333333334,
              "duration": 0.010416666666666666
            },
            {
              "pitch": 36,
              "velocity": 42,
              "position": 0.8125,
              "duration": 0.010416666666666666
            },
            {
              "pitch": 38,
              "velocity": 106,
              "position": 1,
              "duration": 0.010416666666666666
            },
            {
              "pitch": 42,
              "velocity": 83,
              "position": 1,
              "duration": 0.010416666666666666
            },
            {
              "pitch": 42,
              "velocity": 43,
              "position": 1.3020833333333333,
              "duration": 0.010416666666666666
            },
            {
              "pitch": 42,
              "velocity": 43,
              "position": 1.5,
              "duration": 0.010416666666666666
            },
            {
              "pitch": 36,
              "velocity": 43,
              "position": 1.8125,
              "duration": 0.010416666666666666
            },
            {
              "pitch": 42,
              "velocity": 113,
              "position": 1.8125,
              "duration": 0.010416666666666666
            },
            {
              "pitch": 38,
              "velocity": 43,
              "position": 1.8125,
              "duration": 0.010416666666666666
            },
            {
              "pitch": 38,
              "velocity": 103,
              "position": 2,
              "duration": 0.010416666666666666
            },
            {
              "pitch": 42,
              "velocity": 52,
              "position": 2,
              "duration": 0.010416666666666666
            },
            {
              "pitch": 42,
              "velocity": 30,
              "position": 2.3020833333333335,
              "duration": 0.010416666666666666
            },
            {
              "pitch": 38,
              "velocity": 100,
              "position": 2.5,
              "duration": 0.010416666666666666
            },
            {
              "pitch": 42,
              "velocity": 109,
              "position": 2.5,
              "duration": 0.010416666666666666
            },
            {
              "pitch": 42,
              "velocity": 30,
              "position": 2.8020833333333335,
              "duration": 0.010416666666666666
            },
            {
              "pitch": 38,
              "velocity": 101,
              "position": 3,
              "duration": 0.010416666666666666
            },
            {
              "pitch": 42,
              "velocity": 79,
              "position": 3,
              "duration": 0.010416666666666666
            },
            {
              "pitch": 46,
              "velocity": 81,
              "position": 3.2916666666666665,
              "duration": 0.010416666666666666
            },
            {
              "pitch": 38,
              "velocity": 56,
              "position": 3.5,
              "duration": 0.010416666666666666
            },
            {
              "pitch": 42,
              "velocity": 80,
              "position": 3.5,
              "duration": 0.010416666666666666
            },
            {
              "pitch": 42,
              "velocity": 60,
              "position": 3.8020833333333335,
              "duration": 0.010416666666666666
            },
            {
              "pitch": 38,
              "velocity": 78,
              "position": 3.8125,
              "duration": 0.010416666666666666
            },
            {
              "pitch": 49,
              "velocity": 74,
              "position": 3.9895833333333335,
              "duration": 0.010416666666666666
            }
          ]
        },
        "10": {
          "ctab": {
            "srcChannel": 10,
            "name": "Bass",
            "accType": "BASS",
            "editable": false,
            "mutedNotes": [],
            "mutedChords": [],
            "autoStart": false,
            "sourceChordNote": 0,
            "sourceChordType": "Maj7",
            "ctb2Low": null,
            "ctb2Main": {
              "ntr": "ROOT_TRANSPOSITION",
              "ntt": "MELODY",
              "bassOn": true,
              "chordRootUpperLimit": 8,
              "noteLowLimit": 28,
              "noteHighLimit": 127,
              "rtr": "PITCH_SHIFT_TO_ROOT"
            },
            "ctb2High": null
          },
          "notes": [
            {
              "pitch": 24,
              "velocity": 60,
              "position": 0,
              "duration": 0.59375
            },
            {
              "pitch": 24,
              "velocity": 100,
              "position": 0.8125,
              "duration": 0.08333333333333333
            },
            {
              "pitch": 24,
              "velocity": 100,
              "position": 1.8125,
              "duration": 0.052083333333333336
            },
            {
              "pitch": 24,
              "velocity": 60,
              "position": 2,
              "duration": 0.7604166666666666
            },
            {
              "pitch": 24,
              "velocity": 100,
              "position": 2.8125,
              "duration": 0.08333333333333333
            },
            {
              "pitch": 31,
              "velocity": 55,
              "position": 3.5,
              "duration": 0.4791666666666667
            }
          ]
        },
        "11": {
          "ctab": {
            "srcChannel": 11,
            "name": "Gtr",
            "accType": "CHORD1",
            "editable": false,
            "mutedNotes": [],
            "mutedChords": [],
            "autoStart": false,
            "sourceChordNote": 0,
            "sourceChordType": "Maj7",
            "ctb2Low": null,
            "ctb2Main": {
              "ntr": "ROOT_TRANSPOSITION",
              "ntt": "MELODY",
              "bassOn": false,
              "chordRootUpperLimit": 7,
              "noteLowLimit": 0,
              "noteHighLimit": 127,
              "rtr": "PITCH_SHIFT"
            },
            "ctb2High": null
          },
          "notes": [
            {
              "pitch": 55,
              "velocity": 91,
              "position": 0,
              "duration": 0.010416666666666666
            },
            {
              "pitch": 59,
              "velocity": 91,
              "position": 0,
              "duration": 0.010416666666666666
            },
            {
              "pitch": 60,
              "velocity": 91,
              "position": 0.010416666666666666,
              "duration": 0.010416666666666666
            },
            {
              "pitch": 64,
              "velocity": 91,
              "position": 0.020833333333333332,
              "duration": 0.010416666666666666
            },
            {
              "pitch": 67,
              "velocity": 91,
              "position": 0.03125,
              "duration": 0.010416666666666666
            },
            {
              "pitch": 71,
              "velocity": 91,
              "position": 0.03125,
              "duration": 0.010416666666666666
            },
            {
              "pitch": 67,
              "velocity": 45,
              "position": 0.30833333333333335,
              "duration": 0.10416666666666667
            },
            {
              "pitch": 71,
              "velocity": 45,
              "position": 0.30833333333333335,
              "duration": 0.10416666666666667
            },
            {
              "pitch": 64,
              "velocity": 45,
              "position": 0.31875,
              "duration": 0.10416666666666667
            },
            {
              "pitch": 60,
              "velocity": 45,
              "position": 0.32916666666666666,
              "duration": 0.10416666666666667
            },
            {
              "pitch": 55,
              "velocity": 45,
              "position": 0.33958333333333335,
              "duration": 0.10416666666666667
            },
            {
              "pitch": 59,
              "velocity": 45,
              "position": 0.33958333333333335,
              "duration": 0.10416666666666667
            },
            {
              "pitch": 55,
              "velocity": 45,
              "position": 0.8083333333333333,
              "duration": 0.010416666666666666
            },
            {
              "pitch": 59,
              "velocity": 45,
              "position": 0.8083333333333333,
              "duration": 0.010416666666666666
            },
            {
              "pitch": 60,
              "velocity": 45,
              "position": 0.81875,
              "duration": 0.010416666666666666
            },
            {
              "pitch": 64,
              "velocity": 45,
              "position": 0.8291666666666667,
              "duration": 0.010416666666666666
            },
            {
              "pitch": 67,
              "velocity": 45,
              "position": 0.8395833333333333,
              "duration": 0.010416666666666666
            },
            {
              "pitch": 71,
              "velocity": 45,
              "position": 0.8395833333333333,
              "duration": 0.010416666666666666
            },
            {
              "pitch": 67,
              "velocity": 45,
              "position": 1.03125,
              "duration": 0.26666666666666666
            },
            {
              "pitch": 71,
              "velocity": 45,
              "position": 1.03125,
              "duration": 0.26666666666666666
            },
            {
              "pitch": 64,
              "velocity": 45,
              "position": 1.0208333333333333,
              "duration": 0.27708333333333335
            },
            {
              "pitch": 60,
              "velocity": 45,
              "position": 1.0104166666666667,
              "duration": 0.2875
            },
            {
              "pitch": 55,
              "velocity": 45,
              "position": 1,
              "duration": 0.29791666666666666
            },
            {
              "pitch": 59,
              "velocity": 45,
              "position": 1,
              "duration": 0.29791666666666666
            },
            {
              "pitch": 67,
              "velocity": 41,
              "position": 1.3083333333333333,
              "duration": 0.10416666666666667
            },
            {
              "pitch": 71,
              "velocity": 41,
              "position": 1.3083333333333333,
              "duration": 0.10416666666666667
            },
            {
              "pitch": 64,
              "velocity": 41,
              "position": 1.31875,
              "duration": 0.10416666666666667
            },
            {
              "pitch": 60,
              "velocity": 41,
              "position": 1.3291666666666666,
              "duration": 0.10416666666666667
            },
            {
              "pitch": 55,
              "velocity": 41,
              "position": 1.3395833333333333,
              "duration": 0.10416666666666667
            },
            {
              "pitch": 59,
              "velocity": 41,
              "position": 1.3395833333333333,
              "duration": 0.10416666666666667
            },
            {
              "pitch": 55,
              "velocity": 68,
              "position": 1.5,
              "duration": 0.010416666666666666
            },
            {
              "pitch": 59,
              "velocity": 68,
              "position": 1.5,
              "duration": 0.010416666666666666
            },
            {
              "pitch": 60,
              "velocity": 68,
              "position": 1.5104166666666667,
              "duration": 0.010416666666666666
            },
            {
              "pitch": 64,
              "velocity": 68,
              "position": 1.5208333333333333,
              "duration": 0.010416666666666666
            },
            {
              "pitch": 67,
              "velocity": 68,
              "position": 1.53125,
              "duration": 0.010416666666666666
            },
            {
              "pitch": 71,
              "velocity": 68,
              "position": 1.53125,
              "duration": 0.010416666666666666
            },
            {
              "pitch": 67,
              "velocity": 88,
              "position": 1.8083333333333333,
              "duration": 0.010416666666666666
            },
            {
              "pitch": 71,
              "velocity": 88,
              "position": 1.8083333333333333,
              "duration": 0.010416666666666666
            },
            {
              "pitch": 64,
              "velocity": 88,
              "position": 1.81875,
              "duration": 0.010416666666666666
            },
            {
              "pitch": 60,
              "velocity": 88,
              "position": 1.8291666666666666,
              "duration": 0.010416666666666666
            },
            {
              "pitch": 55,
              "velocity": 88,
              "position": 1.8395833333333333,
              "duration": 0.010416666666666666
            },
            {
              "pitch": 59,
              "velocity": 88,
              "position": 1.8395833333333333,
              "duration": 0.010416666666666666
            },
            {
              "pitch": 55,
              "velocity": 53,
              "position": 2,
              "duration": 0.22916666666666666
            },
            {
              "pitch": 59,
              "velocity": 53,
              "position": 2,
              "duration": 0.22916666666666666
            },
            {
              "pitch": 60,
              "velocity": 53,
              "position": 2.0104166666666665,
              "duration": 0.22916666666666666
            },
            {
              "pitch": 64,
              "velocity": 53,
              "position": 2.0208333333333335,
              "duration": 0.22916666666666666
            },
            {
              "pitch": 67,
              "velocity": 53,
              "position": 2.03125,
              "duration": 0.22916666666666666
            },
            {
              "pitch": 71,
              "velocity": 53,
              "position": 2.03125,
              "duration": 0.22916666666666666
            },
            {
              "pitch": 67,
              "velocity": 69,
              "position": 2.308333333333333,
              "duration": 0.010416666666666666
            },
            {
              "pitch": 71,
              "velocity": 69,
              "position": 2.308333333333333,
              "duration": 0.010416666666666666
            },
            {
              "pitch": 64,
              "velocity": 69,
              "position": 2.31875,
              "duration": 0.010416666666666666
            },
            {
              "pitch": 60,
              "velocity": 69,
              "position": 2.3291666666666666,
              "duration": 0.010416666666666666
            },
            {
              "pitch": 55,
              "velocity": 69,
              "position": 2.339583333333333,
              "duration": 0.010416666666666666
            },
            {
              "pitch": 59,
              "velocity": 69,
              "position": 2.339583333333333,
              "duration": 0.010416666666666666
            },
            {
              "pitch": 55,
              "velocity": 71,
              "position": 2.5,
              "duration": 0.010416666666666666
            },
            {
              "pitch": 59,
              "velocity": 71,
              "position": 2.5,
              "duration": 0.010416666666666666
            },
            {
              "pitch": 60,
              "velocity": 71,
              "position": 2.5104166666666665,
              "duration": 0.010416666666666666
            },
            {
              "pitch": 64,
              "velocity": 71,
              "position": 2.5208333333333335,
              "duration": 0.010416666666666666
            },
            {
              "pitch": 67,
              "velocity": 71,
              "position": 2.53125,
              "duration": 0.010416666666666666
            },
            {
              "pitch": 71,
              "velocity": 71,
              "position": 2.53125,
              "duration": 0.010416666666666666
            },
            {
              "pitch": 67,
              "velocity": 50,
              "position": 2.808333333333333,
              "duration": 0.15625
            },
            {
              "pitch": 71,
              "velocity": 50,
              "position": 2.808333333333333,
              "duration": 0.15625
            },
            {
              "pitch": 64,
              "velocity": 50,
              "position": 2.81875,
              "duration": 0.15625
            },
            {
              "pitch": 60,
              "velocity": 50,
              "position": 2.8291666666666666,
              "duration": 0.15625
            },
            {
              "pitch": 55,
              "velocity": 50,
              "position": 2.839583333333333,
              "duration": 0.15625
            },
            {
              "pitch": 59,
              "velocity": 50,
              "position": 2.839583333333333,
              "duration": 0.15625
            },
            {
              "pitch": 55,
              "velocity": 91,
              "position": 3,
              "duration": 0.010416666666666666
            },
            {
              "pitch": 59,
              "velocity": 91,
              "position": 3,
              "duration": 0.010416666666666666
            },
            {
              "pitch": 60,
              "velocity": 91,
              "position": 3.0104166666666665,
              "duration": 0.010416666666666666
            },
            {
              "pitch": 64,
              "velocity": 91,
              "position": 3.0208333333333335,
              "duration": 0.010416666666666666
            },
            {
              "pitch": 67,
              "velocity": 91,
              "position": 3.03125,
              "duration": 0.010416666666666666
            },
            {
              "pitch": 71,
              "velocity": 91,
              "position": 3.03125,
              "duration": 0.010416666666666666
            },
            {
              "pitch": 55,
              "velocity": 52,
              "position": 3.339583333333333,
              "duration": 0.15
            },
            {
              "pitch": 59,
              "velocity": 52,
              "position": 3.339583333333333,
              "duration": 0.15
            },
            {
              "pitch": 60,
              "velocity": 52,
              "position": 3.3291666666666666,
              "duration": 0.16041666666666668
            },
            {
              "pitch": 64,
              "velocity": 52,
              "position": 3.31875,
              "duration": 0.17083333333333334
            },
            {
              "pitch": 67,
              "velocity": 52,
              "position": 3.308333333333333,
              "duration": 0.18125
            },
            {
              "pitch": 71,
              "velocity": 52,
              "position": 3.308333333333333,
              "duration": 0.18125
            },
            {
              "pitch": 55,
              "velocity": 59,
              "position": 3.5,
              "duration": 0.10416666666666667
            },
            {
              "pitch": 59,
              "velocity": 59,
              "position": 3.5,
              "duration": 0.10416666666666667
            },
            {
              "pitch": 60,
              "velocity": 59,
              "position": 3.5104166666666665,
              "duration": 0.10416666666666667
            },
            {
              "pitch": 64,
              "velocity": 59,
              "position": 3.5208333333333335,
              "duration": 0.10416666666666667
            },
            {
              "pitch": 67,
              "velocity": 59,
              "position": 3.53125,
              "duration": 0.10416666666666667
            },
            {
              "pitch": 71,
              "velocity": 59,
              "position": 3.53125,
              "duration": 0.10416666666666667
            },
            {
              "pitch": 67,
              "velocity": 86,
              "position": 3.808333333333333,
              "duration": 0.020833333333333332
            },
            {
              "pitch": 71,
              "velocity": 86,
              "position": 3.808333333333333,
              "duration": 0.020833333333333332
            },
            {
              "pitch": 64,
              "velocity": 86,
              "position": 3.81875,
              "duration": 0.020833333333333332
            },
            {
              "pitch": 60,
              "velocity": 86,
              "position": 3.8291666666666666,
              "duration": 0.020833333333333332
            },
            {
              "pitch": 55,
              "velocity": 86,
              "position": 3.839583333333333,
              "duration": 0.020833333333333332
            },
            {
              "pitch": 59,
              "velocity": 86,
              "position": 3.839583333333333,
              "duration": 0.020833333333333332
            }
          ]
        },
        "12": {
          "ctab": {
            "srcChannel": 12,
            "name": "EP",
            "accType": "CHORD2",
            "editable": false,
            "mutedNotes": [],
            "mutedChords": [],
            "autoStart": false,
            "sourceChordNote": 0,
            "sourceChordType": "Maj7",
            "ctb2Low": null,
            "ctb2Main": {
              "ntr": "ROOT_FIXED",
              "ntt": "CHORD",
              "bassOn": false,
              "chordRootUpperLimit": 7,
              "noteLowLimit": 0,
              "noteHighLimit": 127,
              "rtr": "PITCH_SHIFT"
            },
            "ctb2High": null
          },
          "notes": [
            {
              "pitch": 64,
              "velocity": 89,
              "position": 0,
              "duration": 2.8354166666666667
            },
            {
              "pitch": 55,
              "velocity": 84,
              "position": 0,
              "duration": 2.845833333333333
            },
            {
              "pitch": 59,
              "velocity": 94,
              "position": 0,
              "duration": 2.8625
            },
            {
              "pitch": 55,
              "velocity": 94,
              "position": 3,
              "duration": 0.32916666666666666
            },
            {
              "pitch": 64,
              "velocity": 102,
              "position": 3,
              "duration": 0.34791666666666665
            },
            {
              "pitch": 59,
              "velocity": 96,
              "position": 3,
              "duration": 0.3625
            }
          ]
        },
        "13": {
          "ctab": {
            "srcChannel": 13,
            "name": "Pad",
            "accType": "PAD",
            "editable": false,
            "mutedNotes": [],
            "mutedChords": [],
            "autoStart": false,
            "sourceChordNote": 0,
            "sourceChordType": "Maj7",
            "ctb2Low": null,
            "ctb2Main": {
              "ntr": "ROOT_FIXED",
              "ntt": "CHORD",
              "bassOn": false,
              "chordRootUpperLimit": 7,
              "noteLowLimit": 0,
              "noteHighLimit": 127,
              "rtr": "PITCH_SHIFT"
            },
            "ctb2High": null
          },
          "notes": [
            {
              "pitch": 55,
              "velocity": 42,
              "position": 0,
              "duration": 3.9895833333333335
            },
            {
              "pitch": 64,
              "velocity": 42,
              "position": 0,
              "duration": 3.9895833333333335
            },
            {
              "pitch": 59,
              "velocity": 42,
              "position": 0,
              "duration": 3.9895833333333335
            }
          ]
        },
        "14": {
          "ctab": {
            "srcChannel": 14,
            "name": "Mute",
            "accType": "PHRASE1",
            "editable": false,
            "mutedNotes": [],
            "mutedChords": [
              "Maj7aug",
              "minMaj7(9)",
              "minMaj7",
              "Maj7(9)",
              "Maj7#11",
              "Maj7"
            ],
            "autoStart": false,
            "sourceChordNote": 0,
            "sourceChordType": "Maj7",
            "ctb2Low": null,
            "ctb2Main": {
              "ntr": "ROOT_TRANSPOSITION",
              "ntt": "CHORD",
              "bassOn": false,
              "chordRootUpperLimit": 3,
              "noteLowLimit": 0,
              "noteHighLimit": 127,
              "rtr": "PITCH_SHIFT"
            },
            "ctb2High": null
          },
          "notes": [
            {
              "pitch": 72,
              "velocity": 41,
              "position": 3.808333333333333,
              "duration": 0.17083333333333334
            },
            {
              "pitch": 115,
              "velocity": 75,
              "position": 3.808333333333333,
              "duration": 0.175
            },
            {
              "pitch": 60,
              "velocity": 41,
              "position": 3.8291666666666666,
              "duration": 0.1625
            }
          ]
        }
      }
    },
    "Fill_In_CC": {
      "type": "Fill_In_CC",
      "sizeInBeats": 4,
      "channels": {
        "3": {
          "ctab": {
            "srcChannel": 3,
            "name": "EP Rt",
            "accType": "CHORD2",
            "editable": true,
            "mutedNotes": [],
            "mutedChords": [
              "1+2+5",
              "sus4",
              "1+5",
              "1+8",
              "Maj7aug",
              "dim",
              "minMaj7(9)",
              "minMaj7",
              "min6",
              "min",
              "aug",
              "Maj7(9)",
              "Maj7#11",
              "Maj7",
              "Maj6",
              "Maj"
            ],
            "autoStart": false,
            "sourceChordNote": 0,
            "sourceChordType": "Maj7",
            "ctb2Low": null,
            "ctb2Main": {
              "ntr": "ROOT_TRANSPOSITION",
              "ntt": "CHORD",
              "bassOn": false,
              "chordRootUpperLimit": 7,
              "noteLowLimit": 0,
              "noteHighLimit": 127,
              "rtr": "PITCH_SHIFT"
            },
            "ctb2High": null
          },
          "notes": [
            {
              "pitch": 60,
              "velocity": 89,
              "position": 0,
              "duration": 2.222916666666667
            },
            {
              "pitch": 60,
              "velocity": 96,
              "position": 2.5,
              "duration": 0.14583333333333334
            },
            {
              "pitch": 60,
              "velocity": 102,
              "position": 3.5,
              "duration": 0.12916666666666668
            }
          ]
        },
        "4": {
          "ctab": {
            "srcChannel": 4,
            "name": "Pad",
            "accType": "PAD",
            "editable": false,
            "mutedNotes": [],
            "mutedChords": [
              "1+2+5",
              "sus4",
              "1+5",
              "1+8",
              "Maj7aug",
              "dim",
              "minMaj7(9)",
              "minMaj7",
              "min6",
              "min",
              "aug",
              "Maj7(9)",
              "Maj7#11",
              "Maj7",
              "Maj6",
              "Maj"
            ],
            "autoStart": false,
            "sourceChordNote": 0,
            "sourceChordType": "Maj7",
            "ctb2Low": null,
            "ctb2Main": {
              "ntr": "ROOT_TRANSPOSITION",
              "ntt": "MELODY",
              "bassOn": false,
              "chordRootUpperLimit": 6,
              "noteLowLimit": 0,
              "noteHighLimit": 127,
              "rtr": "PITCH_SHIFT"
            },
            "ctb2High": null
          },
          "notes": [
            {
              "pitch": 60,
              "velocity": 69,
              "position": 0,
              "duration": 3.9895833333333335
            }
          ]
        },
        "5": {
          "ctab": {
            "srcChannel": 5,
            "name": "Mute",
            "accType": "PHRASE1",
            "editable": false,
            "mutedNotes": [],
            "mutedChords": [
              "1+2+5",
              "sus4",
              "1+5",
              "1+8",
              "7aug",
              "7(#9)",
              "7(b13)",
              "7(b9)",
              "7(13)",
              "7#11",
              "7(9)",
              "7b5",
              "7sus4",
              "7th",
              "dim7",
              "dim",
              "min7(11)",
              "min7(9)",
              "min(9)",
              "m7b5",
              "min7",
              "min6",
              "min",
              "aug",
              "Maj6(9)",
              "Maj(9)",
              "Maj6",
              "Maj"
            ],
            "autoStart": false,
            "sourceChordNote": 0,
            "sourceChordType": "Maj7",
            "ctb2Low": null,
            "ctb2Main": {
              "ntr": "ROOT_TRANSPOSITION",
              "ntt": "CHORD",
              "bassOn": false,
              "chordRootUpperLimit": 3,
              "noteLowLimit": 0,
              "noteHighLimit": 127,
              "rtr": "PITCH_SHIFT"
            },
            "ctb2High": null
          },
          "notes": [
            {
              "pitch": 59,
              "velocity": 85,
              "position": 0,
              "duration": 0.03125
            },
            {
              "pitch": 115,
              "velocity": 75,
              "position": 0,
              "duration": 0.03125
            },
            {
              "pitch": 59,
              "velocity": 85,
              "position": 0.30833333333333335,
              "duration": 0.041666666666666664
            },
            {
              "pitch": 114,
              "velocity": 75,
              "position": 0.30833333333333335,
              "duration": 0.041666666666666664
            },
            {
              "pitch": 59,
              "velocity": 85,
              "position": 0.5,
              "duration": 0.16666666666666666
            },
            {
              "pitch": 115,
              "velocity": 75,
              "position": 0.5,
              "duration": 0.16666666666666666
            },
            {
              "pitch": 59,
              "velocity": 85,
              "position": 0.8083333333333333,
              "duration": 0.010416666666666666
            },
            {
              "pitch": 114,
              "velocity": 75,
              "position": 0.8083333333333333,
              "duration": 0.010416666666666666
            },
            {
              "pitch": 59,
              "velocity": 85,
              "position": 1,
              "duration": 0.010416666666666666
            },
            {
              "pitch": 115,
              "velocity": 75,
              "position": 1,
              "duration": 0.010416666666666666
            },
            {
              "pitch": 59,
              "velocity": 85,
              "position": 1.3083333333333333,
              "duration": 0.125
            },
            {
              "pitch": 114,
              "velocity": 75,
              "position": 1.3083333333333333,
              "duration": 0.125
            },
            {
              "pitch": 59,
              "velocity": 85,
              "position": 1.5,
              "duration": 0.010416666666666666
            },
            {
              "pitch": 115,
              "velocity": 75,
              "position": 1.5,
              "duration": 0.010416666666666666
            },
            {
              "pitch": 59,
              "velocity": 85,
              "position": 1.8083333333333333,
              "duration": 0.010416666666666666
            },
            {
              "pitch": 114,
              "velocity": 75,
              "position": 1.8083333333333333,
              "duration": 0.010416666666666666
            },
            {
              "pitch": 59,
              "velocity": 85,
              "position": 2,
              "duration": 0.19791666666666666
            },
            {
              "pitch": 115,
              "velocity": 75,
              "position": 2,
              "duration": 0.19791666666666666
            },
            {
              "pitch": 59,
              "velocity": 85,
              "position": 2.308333333333333,
              "duration": 0.010416666666666666
            },
            {
              "pitch": 114,
              "velocity": 75,
              "position": 2.308333333333333,
              "duration": 0.010416666666666666
            },
            {
              "pitch": 59,
              "velocity": 85,
              "position": 2.5,
              "duration": 0.010416666666666666
            },
            {
              "pitch": 115,
              "velocity": 75,
              "position": 2.5,
              "duration": 0.010416666666666666
            },
            {
              "pitch": 59,
              "velocity": 85,
              "position": 2.808333333333333,
              "duration": 0.15625
            },
            {
              "pitch": 114,
              "velocity": 75,
              "position": 2.808333333333333,
              "duration": 0.15625
            },
            {
              "pitch": 59,
              "velocity": 85,
              "position": 3,
              "duration": 0.010416666666666666
            },
            {
              "pitch": 115,
              "velocity": 75,
              "position": 3,
              "duration": 0.010416666666666666
            },
            {
              "pitch": 59,
              "velocity": 85,
              "position": 3.308333333333333,
              "duration": 0.010416666666666666
            },
            {
              "pitch": 114,
              "velocity": 75,
              "position": 3.308333333333333,
              "duration": 0.010416666666666666
            },
            {
              "pitch": 59,
              "velocity": 85,
              "position": 3.5,
              "duration": 0.21875
            },
            {
              "pitch": 115,
              "velocity": 75,
              "position": 3.5,
              "duration": 0.21875
            },
            {
              "pitch": 59,
              "velocity": 85,
              "position": 3.808333333333333,
              "duration": 0.010416666666666666
            },
            {
              "pitch": 114,
              "velocity": 75,
              "position": 3.808333333333333,
              "duration": 0.010416666666666666
            }
          ]
        },
        "8": {
          "ctab": {
            "srcChannel": 8,
            "name": "Rhyth1",
            "accType": "SUBRHYTHM",
            "editable": false,
            "mutedNotes": [],
            "mutedChords": [],
            "autoStart": true,
            "sourceChordNote": 0,
            "sourceChordType": "Maj7",
            "ctb2Low": null,
            "ctb2Main": {
              "ntr": "ROOT_FIXED",
              "ntt": "BYPASS",
              "bassOn": false,
              "chordRootUpperLimit": 6,
              "noteLowLimit": 0,
              "noteHighLimit": 127,
              "rtr": "PITCH_SHIFT"
            },
            "ctb2High": null
          },
          "notes": [
            {
              "pitch": 54,
              "velocity": 12,
              "position": 0,
              "duration": 0.010416666666666666
            },
            {
              "pitch": 54,
              "velocity": 72,
              "position": 0.5,
              "duration": 0.010416666666666666
            },
            {
              "pitch": 54,
              "velocity": 72,
              "position": 1.5,
              "duration": 0.010416666666666666
            },
            {
              "pitch": 54,
              "velocity": 72,
              "position": 2.5,
              "duration": 0.010416666666666666
            },
            {
              "pitch": 54,
              "velocity": 72,
              "position": 3.5,
              "duration": 0.010416666666666666
            }
          ]
        },
        "9": {
          "ctab": {
            "srcChannel": 9,
            "name": "Rhyth2",
            "accType": "RHYTHM",
            "editable": false,
            "mutedNotes": [],
            "mutedChords": [],
            "autoStart": true,
            "sourceChordNote": 0,
            "sourceChordType": "Maj7",
            "ctb2Low": null,
            "ctb2Main": {
              "ntr": "ROOT_FIXED",
              "ntt": "BYPASS",
              "bassOn": false,
              "chordRootUpperLimit": 6,
              "noteLowLimit": 0,
              "noteHighLimit": 127,
              "rtr": "PITCH_SHIFT"
            },
            "ctb2High": null
          },
          "notes": [
            {
              "pitch": 36,
              "velocity": 98,
              "position": 0,
              "duration": 0.010416666666666666
            },
            {
              "pitch": 42,
              "velocity": 87,
              "position": 0,
              "duration": 0.010416666666666666
            },
            {
              "pitch": 42,
              "velocity": 46,
              "position": 0.5,
              "duration": 0.010416666666666666
            },
            {
              "pitch": 38,
              "velocity": 23,
              "position": 0.8125,
              "duration": 0.010416666666666666
            },
            {
              "pitch": 38,
              "velocity": 110,
              "position": 1,
              "duration": 0.010416666666666666
            },
            {
              "pitch": 42,
              "velocity": 117,
              "position": 1,
              "duration": 0.010416666666666666
            },
            {
              "pitch": 42,
              "velocity": 52,
              "position": 1.5,
              "duration": 0.010416666666666666
            },
            {
              "pitch": 36,
              "velocity": 40,
              "position": 1.8125,
              "duration": 0.010416666666666666
            },
            {
              "pitch": 42,
              "velocity": 32,
              "position": 1.8125,
              "duration": 0.010416666666666666
            },
            {
              "pitch": 36,
              "velocity": 97,
              "position": 2,
              "duration": 0.010416666666666666
            },
            {
              "pitch": 42,
              "velocity": 116,
              "position": 2,
              "duration": 0.010416666666666666
            },
            {
              "pitch": 38,
              "velocity": 104,
              "position": 2,
              "duration": 0.010416666666666666
            },
            {
              "pitch": 38,
              "velocity": 88,
              "position": 2.3125,
              "duration": 0.010416666666666666
            },
            {
              "pitch": 46,
              "velocity": 82,
              "position": 2.5,
              "duration": 0.010416666666666666
            },
            {
              "pitch": 36,
              "velocity": 62,
              "position": 2.8125,
              "duration": 0.010416666666666666
            },
            {
              "pitch": 38,
              "velocity": 73,
              "position": 3,
              "duration": 0.010416666666666666
            },
            {
              "pitch": 42,
              "velocity": 111,
              "position": 3,
              "duration": 0.010416666666666666
            },
            {
              "pitch": 38,
              "velocity": 38,
              "position": 3.1666666666666665,
              "duration": 0.010416666666666666
            },
            {
              "pitch": 46,
              "velocity": 80,
              "position": 3.2916666666666665,
              "duration": 0.010416666666666666
            },
            {
              "pitch": 38,
              "velocity": 50,
              "position": 3.3125,
              "duration": 0.010416666666666666
            },
            {
              "pitch": 38,
              "velocity": 109,
              "position": 3.5,
              "duration": 0.010416666666666666
            },
            {
              "pitch": 42,
              "velocity": 85,
              "position": 3.5,
              "duration": 0.010416666666666666
            },
            {
              "pitch": 36,
              "velocity": 48,
              "position": 3.8125,
              "duration": 0.010416666666666666
            },
            {
              "pitch": 57,
              "velocity": 79,
              "position": 3.9895833333333335,
              "duration": 0.010416666666666666
            }
          ]
        },
        "10": {
          "ctab": {
            "srcChannel": 10,
            "name": "Bass",
            "accType": "BASS",
            "editable": false,
            "mutedNotes": [],
            "mutedChords": [],
            "autoStart": false,
            "sourceChordNote": 0,
            "sourceChordType": "Maj7",
            "ctb2Low": null,
            "ctb2Main": {
              "ntr": "ROOT_TRANSPOSITION",
              "ntt": "MELODY",
              "bassOn": true,
              "chordRootUpperLimit": 8,
              "noteLowLimit": 28,
              "noteHighLimit": 127,
              "rtr": "PITCH_SHIFT_TO_ROOT"
            },
            "ctb2High": null
          },
          "notes": [
            {
              "pitch": 24,
              "velocity": 60,
              "position": 0,
              "duration": 0.9916666666666667
            },
            {
              "pitch": 36,
              "velocity": 100,
              "position": 1,
              "duration": 0.09375
            },
            {
              "pitch": 24,
              "velocity": 100,
              "position": 1.8125,
              "duration": 0.052083333333333336
            },
            {
              "pitch": 24,
              "velocity": 60,
              "position": 2,
              "duration": 1
            },
            {
              "pitch": 36,
              "velocity": 100,
              "position": 3,
              "duration": 0.09375
            },
            {
              "pitch": 31,
              "velocity": 55,
              "position": 3.5,
              "duration": 0.4791666666666667
            }
          ]
        },
        "11": {
          "ctab": {
            "srcChannel": 11,
            "name": "Gtr",
            "accType": "CHORD1",
            "editable": false,
            "mutedNotes": [],
            "mutedChords": [],
            "autoStart": false,
            "sourceChordNote": 0,
            "sourceChordType": "Maj7",
            "ctb2Low": null,
            "ctb2Main": {
              "ntr": "ROOT_TRANSPOSITION",
              "ntt": "MELODY",
              "bassOn": false,
              "chordRootUpperLimit": 7,
              "noteLowLimit": 0,
              "noteHighLimit": 127,
              "rtr": "PITCH_SHIFT"
            },
            "ctb2High": null
          },
          "notes": [
            {
              "pitch": 67,
              "velocity": 66,
              "position": 0.30833333333333335,
              "duration": 0.041666666666666664
            },
            {
              "pitch": 71,
              "velocity": 66,
              "position": 0.30833333333333335,
              "duration": 0.041666666666666664
            },
            {
              "pitch": 64,
              "velocity": 66,
              "position": 0.31875,
              "duration": 0.041666666666666664
            },
            {
              "pitch": 60,
              "velocity": 66,
              "position": 0.32916666666666666,
              "duration": 0.041666666666666664
            },
            {
              "pitch": 55,
              "velocity": 68,
              "position": 0.33958333333333335,
              "duration": 0.041666666666666664
            },
            {
              "pitch": 59,
              "velocity": 68,
              "position": 0.33958333333333335,
              "duration": 0.041666666666666664
            },
            {
              "pitch": 55,
              "velocity": 43,
              "position": 0.5,
              "duration": 0.28125
            },
            {
              "pitch": 59,
              "velocity": 43,
              "position": 0.5,
              "duration": 0.28125
            },
            {
              "pitch": 60,
              "velocity": 47,
              "position": 0.5104166666666666,
              "duration": 0.28125
            },
            {
              "pitch": 67,
              "velocity": 47,
              "position": 0.53125,
              "duration": 0.26875
            },
            {
              "pitch": 71,
              "velocity": 47,
              "position": 0.53125,
              "duration": 0.26875
            },
            {
              "pitch": 64,
              "velocity": 47,
              "position": 0.5208333333333334,
              "duration": 0.28125
            },
            {
              "pitch": 67,
              "velocity": 31,
              "position": 0.8083333333333333,
              "duration": 0.16666666666666666
            },
            {
              "pitch": 71,
              "velocity": 31,
              "position": 0.8083333333333333,
              "duration": 0.16666666666666666
            },
            {
              "pitch": 64,
              "velocity": 31,
              "position": 0.81875,
              "duration": 0.16666666666666666
            },
            {
              "pitch": 55,
              "velocity": 33,
              "position": 0.8395833333333333,
              "duration": 0.15208333333333332
            },
            {
              "pitch": 59,
              "velocity": 33,
              "position": 0.8395833333333333,
              "duration": 0.15208333333333332
            },
            {
              "pitch": 60,
              "velocity": 31,
              "position": 0.8291666666666667,
              "duration": 0.16666666666666666
            },
            {
              "pitch": 55,
              "velocity": 48,
              "position": 1,
              "duration": 0.28125
            },
            {
              "pitch": 59,
              "velocity": 48,
              "position": 1,
              "duration": 0.28125
            },
            {
              "pitch": 60,
              "velocity": 52,
              "position": 1.0104166666666667,
              "duration": 0.28125
            },
            {
              "pitch": 67,
              "velocity": 52,
              "position": 1.03125,
              "duration": 0.26875
            },
            {
              "pitch": 71,
              "velocity": 52,
              "position": 1.03125,
              "duration": 0.26875
            },
            {
              "pitch": 64,
              "velocity": 52,
              "position": 1.0208333333333333,
              "duration": 0.28125
            },
            {
              "pitch": 67,
              "velocity": 82,
              "position": 1.3083333333333333,
              "duration": 0.16666666666666666
            },
            {
              "pitch": 71,
              "velocity": 82,
              "position": 1.3083333333333333,
              "duration": 0.16666666666666666
            },
            {
              "pitch": 64,
              "velocity": 82,
              "position": 1.31875,
              "duration": 0.16666666666666666
            },
            {
              "pitch": 55,
              "velocity": 91,
              "position": 1.3395833333333333,
              "duration": 0.15208333333333332
            },
            {
              "pitch": 59,
              "velocity": 91,
              "position": 1.3395833333333333,
              "duration": 0.15208333333333332
            },
            {
              "pitch": 60,
              "velocity": 82,
              "position": 1.3291666666666666,
              "duration": 0.16666666666666666
            },
            {
              "pitch": 55,
              "velocity": 41,
              "position": 1.5,
              "duration": 0.28125
            },
            {
              "pitch": 59,
              "velocity": 41,
              "position": 1.5,
              "duration": 0.28125
            },
            {
              "pitch": 60,
              "velocity": 48,
              "position": 1.5104166666666667,
              "duration": 0.28125
            },
            {
              "pitch": 67,
              "velocity": 48,
              "position": 1.53125,
              "duration": 0.26875
            },
            {
              "pitch": 71,
              "velocity": 48,
              "position": 1.53125,
              "duration": 0.26875
            },
            {
              "pitch": 64,
              "velocity": 48,
              "position": 1.5208333333333333,
              "duration": 0.28125
            },
            {
              "pitch": 67,
              "velocity": 56,
              "position": 1.8083333333333333,
              "duration": 0.16666666666666666
            },
            {
              "pitch": 71,
              "velocity": 56,
              "position": 1.8083333333333333,
              "duration": 0.16666666666666666
            },
            {
              "pitch": 64,
              "velocity": 56,
              "position": 1.81875,
              "duration": 0.16666666666666666
            },
            {
              "pitch": 55,
              "velocity": 49,
              "position": 1.8395833333333333,
              "duration": 0.15208333333333332
            },
            {
              "pitch": 59,
              "velocity": 49,
              "position": 1.8395833333333333,
              "duration": 0.15208333333333332
            },
            {
              "pitch": 60,
              "velocity": 56,
              "position": 1.8291666666666666,
              "duration": 0.16666666666666666
            },
            {
              "pitch": 55,
              "velocity": 77,
              "position": 2,
              "duration": 0.28125
            },
            {
              "pitch": 59,
              "velocity": 77,
              "position": 2,
              "duration": 0.28125
            },
            {
              "pitch": 60,
              "velocity": 75,
              "position": 2.0104166666666665,
              "duration": 0.28125
            },
            {
              "pitch": 67,
              "velocity": 75,
              "position": 2.03125,
              "duration": 0.26875
            },
            {
              "pitch": 71,
              "velocity": 75,
              "position": 2.03125,
              "duration": 0.26875
            },
            {
              "pitch": 64,
              "velocity": 75,
              "position": 2.0208333333333335,
              "duration": 0.28125
            },
            {
              "pitch": 67,
              "velocity": 36,
              "position": 2.308333333333333,
              "duration": 0.16666666666666666
            },
            {
              "pitch": 71,
              "velocity": 36,
              "position": 2.308333333333333,
              "duration": 0.16666666666666666
            },
            {
              "pitch": 64,
              "velocity": 36,
              "position": 2.31875,
              "duration": 0.16666666666666666
            },
            {
              "pitch": 55,
              "velocity": 38,
              "position": 2.339583333333333,
              "duration": 0.15208333333333332
            },
            {
              "pitch": 59,
              "velocity": 38,
              "position": 2.339583333333333,
              "duration": 0.15208333333333332
            },
            {
              "pitch": 60,
              "velocity": 36,
              "position": 2.3291666666666666,
              "duration": 0.16666666666666666
            },
            {
              "pitch": 55,
              "velocity": 48,
              "position": 2.5,
              "duration": 0.28125
            },
            {
              "pitch": 59,
              "velocity": 48,
              "position": 2.5,
              "duration": 0.28125
            },
            {
              "pitch": 60,
              "velocity": 50,
              "position": 2.5104166666666665,
              "duration": 0.28125
            },
            {
              "pitch": 67,
              "velocity": 50,
              "position": 2.53125,
              "duration": 0.26875
            },
            {
              "pitch": 71,
              "velocity": 50,
              "position": 2.53125,
              "duration": 0.26875
            },
            {
              "pitch": 64,
              "velocity": 50,
              "position": 2.5208333333333335,
              "duration": 0.28125
            },
            {
              "pitch": 67,
              "velocity": 80,
              "position": 2.808333333333333,
              "duration": 0.16666666666666666
            },
            {
              "pitch": 71,
              "velocity": 80,
              "position": 2.808333333333333,
              "duration": 0.16666666666666666
            },
            {
              "pitch": 64,
              "velocity": 80,
              "position": 2.81875,
              "duration": 0.16666666666666666
            },
            {
              "pitch": 55,
              "velocity": 82,
              "position": 2.839583333333333,
              "duration": 0.15208333333333332
            },
            {
              "pitch": 59,
              "velocity": 82,
              "position": 2.839583333333333,
              "duration": 0.15208333333333332
            },
            {
              "pitch": 60,
              "velocity": 80,
              "position": 2.8291666666666666,
              "duration": 0.16666666666666666
            },
            {
              "pitch": 55,
              "velocity": 72,
              "position": 3,
              "duration": 0.020833333333333332
            },
            {
              "pitch": 59,
              "velocity": 72,
              "position": 3,
              "duration": 0.020833333333333332
            },
            {
              "pitch": 60,
              "velocity": 70,
              "position": 3.0104166666666665,
              "duration": 0.020833333333333332
            },
            {
              "pitch": 64,
              "velocity": 70,
              "position": 3.0208333333333335,
              "duration": 0.020833333333333332
            },
            {
              "pitch": 67,
              "velocity": 70,
              "position": 3.03125,
              "duration": 0.020833333333333332
            },
            {
              "pitch": 71,
              "velocity": 70,
              "position": 3.03125,
              "duration": 0.020833333333333332
            },
            {
              "pitch": 67,
              "velocity": 71,
              "position": 3.308333333333333,
              "duration": 0.03125
            },
            {
              "pitch": 71,
              "velocity": 71,
              "position": 3.308333333333333,
              "duration": 0.03125
            },
            {
              "pitch": 64,
              "velocity": 71,
              "position": 3.31875,
              "duration": 0.03125
            },
            {
              "pitch": 60,
              "velocity": 71,
              "position": 3.3291666666666666,
              "duration": 0.03125
            },
            {
              "pitch": 55,
              "velocity": 76,
              "position": 3.339583333333333,
              "duration": 0.03125
            },
            {
              "pitch": 59,
              "velocity": 76,
              "position": 3.339583333333333,
              "duration": 0.03125
            },
            {
              "pitch": 55,
              "velocity": 49,
              "position": 3.5,
              "duration": 0.28125
            },
            {
              "pitch": 59,
              "velocity": 49,
              "position": 3.5,
              "duration": 0.28125
            },
            {
              "pitch": 60,
              "velocity": 51,
              "position": 3.5104166666666665,
              "duration": 0.28125
            },
            {
              "pitch": 67,
              "velocity": 51,
              "position": 3.53125,
              "duration": 0.26875
            },
            {
              "pitch": 71,
              "velocity": 51,
              "position": 3.53125,
              "duration": 0.26875
            },
            {
              "pitch": 64,
              "velocity": 51,
              "position": 3.5208333333333335,
              "duration": 0.28125
            },
            {
              "pitch": 67,
              "velocity": 30,
              "position": 3.808333333333333,
              "duration": 0.16666666666666666
            },
            {
              "pitch": 71,
              "velocity": 30,
              "position": 3.808333333333333,
              "duration": 0.16666666666666666
            },
            {
              "pitch": 64,
              "velocity": 30,
              "position": 3.81875,
              "duration": 0.16666666666666666
            },
            {
              "pitch": 55,
              "velocity": 32,
              "position": 3.839583333333333,
              "duration": 0.15208333333333332
            },
            {
              "pitch": 59,
              "velocity": 32,
              "position": 3.839583333333333,
              "duration": 0.15208333333333332
            },
            {
              "pitch": 60,
              "velocity": 30,
              "position": 3.8291666666666666,
              "duration": 0.16666666666666666
            }
          ]
        },
        "12": {
          "ctab": {
            "srcChannel": 12,
            "name": "EP",
            "accType": "CHORD2",
            "editable": false,
            "mutedNotes": [],
            "mutedChords": [],
            "autoStart": false,
            "sourceChordNote": 0,
            "sourceChordType": "Maj7",
            "ctb2Low": null,
            "ctb2Main": {
              "ntr": "ROOT_FIXED",
              "ntt": "CHORD",
              "bassOn": false,
              "chordRootUpperLimit": 7,
              "noteLowLimit": 0,
              "noteHighLimit": 127,
              "rtr": "PITCH_SHIFT"
            },
            "ctb2High": null
          },
          "notes": [
            {
              "pitch": 64,
              "velocity": 107,
              "position": 0,
              "duration": 2.16875
            },
            {
              "pitch": 55,
              "velocity": 102,
              "position": 0,
              "duration": 2.220833333333333
            },
            {
              "pitch": 59,
              "velocity": 89,
              "position": 0,
              "duration": 2.222916666666667
            },
            {
              "pitch": 64,
              "velocity": 96,
              "position": 2.5,
              "duration": 0.1375
            },
            {
              "pitch": 55,
              "velocity": 94,
              "position": 2.5,
              "duration": 0.14583333333333334
            },
            {
              "pitch": 59,
              "velocity": 96,
              "position": 2.5,
              "duration": 0.14583333333333334
            },
            {
              "pitch": 55,
              "velocity": 102,
              "position": 3.5,
              "duration": 0.07083333333333333
            },
            {
              "pitch": 59,
              "velocity": 102,
              "position": 3.5,
              "duration": 0.12916666666666668
            },
            {
              "pitch": 64,
              "velocity": 102,
              "position": 3.5,
              "duration": 0.1375
            }
          ]
        },
        "13": {
          "ctab": {
            "srcChannel": 13,
            "name": "Pad",
            "accType": "PAD",
            "editable": false,
            "mutedNotes": [],
            "mutedChords": [],
            "autoStart": false,
            "sourceChordNote": 0,
            "sourceChordType": "Maj7",
            "ctb2Low": null,
            "ctb2Main": {
              "ntr": "ROOT_FIXED",
              "ntt": "CHORD",
              "bassOn": false,
              "chordRootUpperLimit": 7,
              "noteLowLimit": 0,
              "noteHighLimit": 127,
              "rtr": "PITCH_SHIFT"
            },
            "ctb2High": null
          },
          "notes": [
            {
              "pitch": 55,
              "velocity": 68,
              "position": 0,
              "duration": 3.9895833333333335
            },
            {
              "pitch": 64,
              "velocity": 68,
              "position": 0,
              "duration": 3.9895833333333335
            },
            {
              "pitch": 59,
              "velocity": 68,
              "position": 0,
              "duration": 3.9895833333333335
            }
          ]
        },
        "14": {
          "ctab": {
            "srcChannel": 14,
            "name": "Mute",
            "accType": "PHRASE1",
            "editable": false,
            "mutedNotes": [],
            "mutedChords": [
              "Maj7aug",
              "minMaj7(9)",
              "minMaj7",
              "Maj7(9)",
              "Maj7#11",
              "Maj7"
            ],
            "autoStart": false,
            "sourceChordNote": 0,
            "sourceChordType": "Maj7",
            "ctb2Low": null,
            "ctb2Main": {
              "ntr": "ROOT_TRANSPOSITION",
              "ntt": "CHORD",
              "bassOn": false,
              "chordRootUpperLimit": 3,
              "noteLowLimit": 0,
              "noteHighLimit": 127,
              "rtr": "PITCH_SHIFT"
            },
            "ctb2High": null
          },
          "notes": [
            {
              "pitch": 60,
              "velocity": 85,
              "position": 0,
              "duration": 0.03125
            },
            {
              "pitch": 115,
              "velocity": 75,
              "position": 0,
              "duration": 0.03125
            },
            {
              "pitch": 60,
              "velocity": 85,
              "position": 0.30833333333333335,
              "duration": 0.041666666666666664
            },
            {
              "pitch": 114,
              "velocity": 75,
              "position": 0.30833333333333335,
              "duration": 0.041666666666666664
            },
            {
              "pitch": 60,
              "velocity": 85,
              "position": 0.5,
              "duration": 0.16666666666666666
            },
            {
              "pitch": 115,
              "velocity": 75,
              "position": 0.5,
              "duration": 0.16666666666666666
            },
            {
              "pitch": 60,
              "velocity": 85,
              "position": 0.8083333333333333,
              "duration": 0.010416666666666666
            },
            {
              "pitch": 114,
              "velocity": 75,
              "position": 0.8083333333333333,
              "duration": 0.010416666666666666
            },
            {
              "pitch": 60,
              "velocity": 85,
              "position": 1,
              "duration": 0.010416666666666666
            },
            {
              "pitch": 115,
              "velocity": 75,
              "position": 1,
              "duration": 0.010416666666666666
            },
            {
              "pitch": 60,
              "velocity": 85,
              "position": 1.3083333333333333,
              "duration": 0.125
            },
            {
              "pitch": 114,
              "velocity": 75,
              "position": 1.3083333333333333,
              "duration": 0.125
            },
            {
              "pitch": 60,
              "velocity": 85,
              "position": 1.5,
              "duration": 0.010416666666666666
            },
            {
              "pitch": 115,
              "velocity": 75,
              "position": 1.5,
              "duration": 0.010416666666666666
            },
            {
              "pitch": 60,
              "velocity": 85,
              "position": 1.8083333333333333,
              "duration": 0.010416666666666666
            },
            {
              "pitch": 114,
              "velocity": 75,
              "position": 1.8083333333333333,
              "duration": 0.010416666666666666
            },
            {
              "pitch": 60,
              "velocity": 85,
              "position": 2,
              "duration": 0.19791666666666666
            },
            {
              "pitch": 115,
              "velocity": 75,
              "position": 2,
              "duration": 0.19791666666666666
            },
            {
              "pitch": 60,
              "velocity": 85,
              "position": 2.308333333333333,
              "duration": 0.010416666666666666
            },
            {
              "pitch": 114,
              "velocity": 75,
              "position": 2.308333333333333,
              "duration": 0.010416666666666666
            },
            {
              "pitch": 60,
              "velocity": 85,
              "position": 2.5,
              "duration": 0.010416666666666666
            },
            {
              "pitch": 115,
              "velocity": 75,
              "position": 2.5,
              "duration": 0.010416666666666666
            },
            {
              "pitch": 60,
              "velocity": 85,
              "position": 2.808333333333333,
              "duration": 0.15625
            },
            {
              "pitch": 114,
              "velocity": 75,
              "position": 2.808333333333333,
              "duration": 0.15625
            },
            {
              "pitch": 60,
              "velocity": 85,
              "position": 3,
              "duration": 0.010416666666666666
            },
            {
              "pitch": 115,
              "velocity": 75,
              "position": 3,
              "duration": 0.010416666666666666
            },
            {
              "pitch": 60,
              "velocity": 85,
              "position": 3.308333333333333,
              "duration": 0.010416666666666666
            },
            {
              "pitch": 114,
              "velocity": 75,
              "position": 3.308333333333333,
              "duration": 0.010416666666666666
            },
            {
              "pitch": 60,
              "velocity": 85,
              "position": 3.5,
              "duration": 0.21875
            },
            {
              "pitch": 115,
              "velocity": 75,
              "position": 3.5,
              "duration": 0.21875
            },
            {
              "pitch": 60,
              "velocity": 85,
              "position": 3.808333333333333,
              "duration": 0.010416666666666666
            },
            {
              "pitch": 114,
              "velocity": 75,
              "position": 3.808333333333333,
              "duration": 0.010416666666666666
            }
          ]
        }
      }
    },
    "Fill_In_DD": {
      "type": "Fill_In_DD",
      "sizeInBeats": 4,
      "channels": {
        "3": {
          "ctab": {
            "srcChannel": 3,
            "name": "EP Rt",
            "accType": "CHORD2",
            "editable": true,
            "mutedNotes": [],
            "mutedChords": [
              "1+2+5",
              "sus4",
              "1+5",
              "1+8",
              "Maj7aug",
              "dim",
              "minMaj7(9)",
              "minMaj7",
              "min6",
              "min",
              "aug",
              "Maj7(9)",
              "Maj7#11",
              "Maj7",
              "Maj6",
              "Maj"
            ],
            "autoStart": false,
            "sourceChordNote": 0,
            "sourceChordType": "Maj7",
            "ctb2Low": null,
            "ctb2Main": {
              "ntr": "ROOT_TRANSPOSITION",
              "ntt": "CHORD",
              "bassOn": false,
              "chordRootUpperLimit": 7,
              "noteLowLimit": 0,
              "noteHighLimit": 127,
              "rtr": "PITCH_SHIFT"
            },
            "ctb2High": null
          },
          "notes": [
            {
              "pitch": 60,
              "velocity": 96,
              "position": 0,
              "duration": 2.1395833333333334
            },
            {
              "pitch": 60,
              "velocity": 102,
              "position": 2.5,
              "duration": 0.1375
            },
            {
              "pitch": 60,
              "velocity": 102,
              "position": 3,
              "duration": 0.14166666666666666
            }
          ]
        },
        "4": {
          "ctab": {
            "srcChannel": 4,
            "name": "Pad",
            "accType": "PAD",
            "editable": false,
            "mutedNotes": [],
            "mutedChords": [
              "1+2+5",
              "sus4",
              "1+5",
              "1+8",
              "Maj7aug",
              "dim",
              "minMaj7(9)",
              "minMaj7",
              "min6",
              "min",
              "aug",
              "Maj7(9)",
              "Maj7#11",
              "Maj7",
              "Maj6",
              "Maj"
            ],
            "autoStart": false,
            "sourceChordNote": 0,
            "sourceChordType": "Maj7",
            "ctb2Low": null,
            "ctb2Main": {
              "ntr": "ROOT_TRANSPOSITION",
              "ntt": "MELODY",
              "bassOn": false,
              "chordRootUpperLimit": 6,
              "noteLowLimit": 0,
              "noteHighLimit": 127,
              "rtr": "PITCH_SHIFT"
            },
            "ctb2High": null
          },
          "notes": [
            {
              "pitch": 60,
              "velocity": 75,
              "position": 0,
              "duration": 3.9895833333333335
            }
          ]
        },
        "5": {
          "ctab": {
            "srcChannel": 5,
            "name": "Mute",
            "accType": "PHRASE1",
            "editable": false,
            "mutedNotes": [],
            "mutedChords": [
              "1+2+5",
              "sus4",
              "1+5",
              "1+8",
              "7aug",
              "7(#9)",
              "7(b13)",
              "7(b9)",
              "7(13)",
              "7#11",
              "7(9)",
              "7b5",
              "7sus4",
              "7th",
              "dim7",
              "dim",
              "min7(11)",
              "min7(9)",
              "min(9)",
              "m7b5",
              "min7",
              "min6",
              "min",
              "aug",
              "Maj6(9)",
              "Maj(9)",
              "Maj6",
              "Maj"
            ],
            "autoStart": false,
            "sourceChordNote": 0,
            "sourceChordType": "Maj7",
            "ctb2Low": null,
            "ctb2Main": {
              "ntr": "ROOT_TRANSPOSITION",
              "ntt": "CHORD",
              "bassOn": false,
              "chordRootUpperLimit": 3,
              "noteLowLimit": 0,
              "noteHighLimit": 127,
              "rtr": "PITCH_SHIFT"
            },
            "ctb2High": null
          },
          "notes": [
            {
              "pitch": 59,
              "velocity": 85,
              "position": 0,
              "duration": 0.010416666666666666
            },
            {
              "pitch": 115,
              "velocity": 75,
              "position": 0,
              "duration": 0.010416666666666666
            },
            {
              "pitch": 59,
              "velocity": 85,
              "position": 0.30833333333333335,
              "duration": 0.010416666666666666
            },
            {
              "pitch": 114,
              "velocity": 75,
              "position": 0.30833333333333335,
              "duration": 0.010416666666666666
            },
            {
              "pitch": 59,
              "velocity": 85,
              "position": 0.5,
              "duration": 0.16666666666666666
            },
            {
              "pitch": 115,
              "velocity": 75,
              "position": 0.5,
              "duration": 0.16666666666666666
            },
            {
              "pitch": 59,
              "velocity": 85,
              "position": 0.8083333333333333,
              "duration": 0.010416666666666666
            },
            {
              "pitch": 114,
              "velocity": 75,
              "position": 0.8083333333333333,
              "duration": 0.010416666666666666
            },
            {
              "pitch": 59,
              "velocity": 85,
              "position": 1,
              "duration": 0.010416666666666666
            },
            {
              "pitch": 115,
              "velocity": 75,
              "position": 1,
              "duration": 0.010416666666666666
            },
            {
              "pitch": 59,
              "velocity": 85,
              "position": 1.3083333333333333,
              "duration": 0.125
            },
            {
              "pitch": 114,
              "velocity": 75,
              "position": 1.3083333333333333,
              "duration": 0.125
            },
            {
              "pitch": 55,
              "velocity": 85,
              "position": 2,
              "duration": 0.19791666666666666
            },
            {
              "pitch": 115,
              "velocity": 75,
              "position": 2,
              "duration": 0.19791666666666666
            },
            {
              "pitch": 55,
              "velocity": 85,
              "position": 2.808333333333333,
              "duration": 0.15625
            },
            {
              "pitch": 114,
              "velocity": 75,
              "position": 2.808333333333333,
              "duration": 0.15625
            },
            {
              "pitch": 55,
              "velocity": 85,
              "position": 3.5,
              "duration": 0.21875
            },
            {
              "pitch": 115,
              "velocity": 75,
              "position": 3.5,
              "duration": 0.21875
            }
          ]
        },
        "8": {
          "ctab": {
            "srcChannel": 8,
            "name": "Rhyth1",
            "accType": "SUBRHYTHM",
            "editable": false,
            "mutedNotes": [],
            "mutedChords": [],
            "autoStart": true,
            "sourceChordNote": 0,
            "sourceChordType": "Maj7",
            "ctb2Low": null,
            "ctb2Main": {
              "ntr": "ROOT_FIXED",
              "ntt": "BYPASS",
              "bassOn": false,
              "chordRootUpperLimit": 6,
              "noteLowLimit": 0,
              "noteHighLimit": 127,
              "rtr": "PITCH_SHIFT"
            },
            "ctb2High": null
          },
          "notes": [
            {
              "pitch": 54,
              "velocity": 12,
              "position": 0,
              "duration": 0.010416666666666666
            },
            {
              "pitch": 54,
              "velocity": 72,
              "position": 0.5,
              "duration": 0.010416666666666666
            },
            {
              "pitch": 62,
              "velocity": 108,
              "position": 0.5,
              "duration": 0.010416666666666666
            },
            {
              "pitch": 54,
              "velocity": 72,
              "position": 1.5,
              "duration": 0.010416666666666666
            },
            {
              "pitch": 64,
              "velocity": 62,
              "position": 1.5,
              "duration": 0.010416666666666666
            },
            {
              "pitch": 64,
              "velocity": 82,
              "position": 1.8020833333333333,
              "duration": 0.010416666666666666
            },
            {
              "pitch": 54,
              "velocity": 72,
              "position": 2.5,
              "duration": 0.010416666666666666
            },
            {
              "pitch": 62,
              "velocity": 108,
              "position": 2.5,
              "duration": 0.010416666666666666
            },
            {
              "pitch": 54,
              "velocity": 72,
              "position": 3.5,
              "duration": 0.010416666666666666
            },
            {
              "pitch": 63,
              "velocity": 70,
              "position": 3.5,
              "duration": 0.010416666666666666
            },
            {
              "pitch": 63,
              "velocity": 100,
              "position": 3.8020833333333335,
              "duration": 0.010416666666666666
            }
          ]
        },
        "9": {
          "ctab": {
            "srcChannel": 9,
            "name": "Rhyth2",
            "accType": "RHYTHM",
            "editable": false,
            "mutedNotes": [],
            "mutedChords": [],
            "autoStart": true,
            "sourceChordNote": 0,
            "sourceChordType": "Maj7",
            "ctb2Low": null,
            "ctb2Main": {
              "ntr": "ROOT_FIXED",
              "ntt": "BYPASS",
              "bassOn": false,
              "chordRootUpperLimit": 6,
              "noteLowLimit": 0,
              "noteHighLimit": 127,
              "rtr": "PITCH_SHIFT"
            },
            "ctb2High": null
          },
          "notes": [
            {
              "pitch": 38,
              "velocity": 102,
              "position": 0,
              "duration": 0.010416666666666666
            },
            {
              "pitch": 51,
              "velocity": 75,
              "position": 0,
              "duration": 0.010416666666666666
            },
            {
              "pitch": 46,
              "velocity": 88,
              "position": 0.3020833333333333,
              "duration": 0.010416666666666666
            },
            {
              "pitch": 36,
              "velocity": 80,
              "position": 0.3125,
              "duration": 0.010416666666666666
            },
            {
              "pitch": 44,
              "velocity": 66,
              "position": 0.5,
              "duration": 0.010416666666666666
            },
            {
              "pitch": 53,
              "velocity": 74,
              "position": 0.5,
              "duration": 0.010416666666666666
            },
            {
              "pitch": 38,
              "velocity": 56,
              "position": 0.8125,
              "duration": 0.010416666666666666
            },
            {
              "pitch": 38,
              "velocity": 107,
              "position": 1,
              "duration": 0.010416666666666666
            },
            {
              "pitch": 46,
              "velocity": 86,
              "position": 1.3020833333333333,
              "duration": 0.010416666666666666
            },
            {
              "pitch": 36,
              "velocity": 80,
              "position": 1.3125,
              "duration": 0.010416666666666666
            },
            {
              "pitch": 44,
              "velocity": 64,
              "position": 1.5,
              "duration": 0.010416666666666666
            },
            {
              "pitch": 38,
              "velocity": 51,
              "position": 1.8125,
              "duration": 0.010416666666666666
            },
            {
              "pitch": 38,
              "velocity": 109,
              "position": 2,
              "duration": 0.010416666666666666
            },
            {
              "pitch": 46,
              "velocity": 86,
              "position": 2.3020833333333335,
              "duration": 0.010416666666666666
            },
            {
              "pitch": 36,
              "velocity": 80,
              "position": 2.3125,
              "duration": 0.010416666666666666
            },
            {
              "pitch": 44,
              "velocity": 64,
              "position": 2.5,
              "duration": 0.010416666666666666
            },
            {
              "pitch": 36,
              "velocity": 80,
              "position": 2.8125,
              "duration": 0.010416666666666666
            },
            {
              "pitch": 38,
              "velocity": 110,
              "position": 3,
              "duration": 0.010416666666666666
            },
            {
              "pitch": 38,
              "velocity": 101,
              "position": 3.5,
              "duration": 0.010416666666666666
            },
            {
              "pitch": 44,
              "velocity": 70,
              "position": 3.5,
              "duration": 0.010416666666666666
            },
            {
              "pitch": 38,
              "velocity": 68,
              "position": 3.8125,
              "duration": 0.010416666666666666
            },
            {
              "pitch": 49,
              "velocity": 74,
              "position": 3.9895833333333335,
              "duration": 0.010416666666666666
            }
          ]
        },
        "10": {
          "ctab": {
            "srcChannel": 10,
            "name": "Bass",
            "accType": "BASS",
            "editable": false,
            "mutedNotes": [],
            "mutedChords": [],
            "autoStart": false,
            "sourceChordNote": 0,
            "sourceChordType": "Maj7",
            "ctb2Low": null,
            "ctb2Main": {
              "ntr": "ROOT_TRANSPOSITION",
              "ntt": "MELODY",
              "bassOn": true,
              "chordRootUpperLimit": 8,
              "noteLowLimit": 28,
              "noteHighLimit": 127,
              "rtr": "PITCH_SHIFT_TO_ROOT"
            },
            "ctb2High": null
          },
          "notes": [
            {
              "pitch": 24,
              "velocity": 60,
              "position": 0,
              "duration": 0.78125
            },
            {
              "pitch": 36,
              "velocity": 55,
              "position": 0.8125,
              "duration": 0.17708333333333334
            },
            {
              "pitch": 36,
              "velocity": 100,
              "position": 1,
              "duration": 0.09375
            },
            {
              "pitch": 35,
              "velocity": 54,
              "position": 1.8020833333333333,
              "duration": 0.6666666666666666
            },
            {
              "pitch": 36,
              "velocity": 55,
              "position": 2.5,
              "duration": 0.2916666666666667
            },
            {
              "pitch": 36,
              "velocity": 100,
              "position": 3,
              "duration": 0.09375
            },
            {
              "pitch": 31,
              "velocity": 55,
              "position": 3.3125,
              "duration": 0.17708333333333334
            },
            {
              "pitch": 35,
              "velocity": 54,
              "position": 3.4895833333333335,
              "duration": 0.4791666666666667
            }
          ]
        },
        "11": {
          "ctab": {
            "srcChannel": 11,
            "name": "Gtr",
            "accType": "CHORD1",
            "editable": false,
            "mutedNotes": [],
            "mutedChords": [],
            "autoStart": false,
            "sourceChordNote": 0,
            "sourceChordType": "Maj7",
            "ctb2Low": null,
            "ctb2Main": {
              "ntr": "ROOT_TRANSPOSITION",
              "ntt": "MELODY",
              "bassOn": false,
              "chordRootUpperLimit": 7,
              "noteLowLimit": 0,
              "noteHighLimit": 127,
              "rtr": "PITCH_SHIFT"
            },
            "ctb2High": null
          },
          "notes": [
            {
              "pitch": 55,
              "velocity": 115,
              "position": 0,
              "duration": 0.28125
            },
            {
              "pitch": 59,
              "velocity": 115,
              "position": 0,
              "duration": 0.28125
            },
            {
              "pitch": 67,
              "velocity": 115,
              "position": 0.03125,
              "duration": 0.25833333333333336
            },
            {
              "pitch": 71,
              "velocity": 115,
              "position": 0.03125,
              "duration": 0.25833333333333336
            },
            {
              "pitch": 60,
              "velocity": 115,
              "position": 0.010416666666666666,
              "duration": 0.28125
            },
            {
              "pitch": 64,
              "velocity": 115,
              "position": 0.020833333333333332,
              "duration": 0.28125
            },
            {
              "pitch": 67,
              "velocity": 50,
              "position": 0.30833333333333335,
              "duration": 0.10416666666666667
            },
            {
              "pitch": 71,
              "velocity": 50,
              "position": 0.30833333333333335,
              "duration": 0.10416666666666667
            },
            {
              "pitch": 64,
              "velocity": 49,
              "position": 0.31875,
              "duration": 0.10416666666666667
            },
            {
              "pitch": 60,
              "velocity": 41,
              "position": 0.32916666666666666,
              "duration": 0.10416666666666667
            },
            {
              "pitch": 55,
              "velocity": 41,
              "position": 0.33958333333333335,
              "duration": 0.10416666666666667
            },
            {
              "pitch": 59,
              "velocity": 41,
              "position": 0.33958333333333335,
              "duration": 0.10416666666666667
            },
            {
              "pitch": 55,
              "velocity": 82,
              "position": 0.5,
              "duration": 0.052083333333333336
            },
            {
              "pitch": 59,
              "velocity": 82,
              "position": 0.5,
              "duration": 0.052083333333333336
            },
            {
              "pitch": 60,
              "velocity": 82,
              "position": 0.5104166666666666,
              "duration": 0.052083333333333336
            },
            {
              "pitch": 64,
              "velocity": 82,
              "position": 0.5208333333333334,
              "duration": 0.052083333333333336
            },
            {
              "pitch": 67,
              "velocity": 82,
              "position": 0.53125,
              "duration": 0.052083333333333336
            },
            {
              "pitch": 71,
              "velocity": 82,
              "position": 0.53125,
              "duration": 0.052083333333333336
            },
            {
              "pitch": 67,
              "velocity": 39,
              "position": 0.8083333333333333,
              "duration": 0.15625
            },
            {
              "pitch": 71,
              "velocity": 39,
              "position": 0.8083333333333333,
              "duration": 0.15625
            },
            {
              "pitch": 64,
              "velocity": 39,
              "position": 0.81875,
              "duration": 0.15625
            },
            {
              "pitch": 60,
              "velocity": 39,
              "position": 0.8291666666666667,
              "duration": 0.15625
            },
            {
              "pitch": 55,
              "velocity": 39,
              "position": 0.8395833333333333,
              "duration": 0.15625
            },
            {
              "pitch": 59,
              "velocity": 39,
              "position": 0.8395833333333333,
              "duration": 0.15625
            },
            {
              "pitch": 55,
              "velocity": 86,
              "position": 1,
              "duration": 0.052083333333333336
            },
            {
              "pitch": 59,
              "velocity": 86,
              "position": 1,
              "duration": 0.052083333333333336
            },
            {
              "pitch": 60,
              "velocity": 86,
              "position": 1.0104166666666667,
              "duration": 0.052083333333333336
            },
            {
              "pitch": 64,
              "velocity": 86,
              "position": 1.0208333333333333,
              "duration": 0.052083333333333336
            },
            {
              "pitch": 67,
              "velocity": 86,
              "position": 1.03125,
              "duration": 0.052083333333333336
            },
            {
              "pitch": 71,
              "velocity": 86,
              "position": 1.03125,
              "duration": 0.052083333333333336
            },
            {
              "pitch": 67,
              "velocity": 40,
              "position": 1.3083333333333333,
              "duration": 0.16666666666666666
            },
            {
              "pitch": 71,
              "velocity": 40,
              "position": 1.3083333333333333,
              "duration": 0.16666666666666666
            },
            {
              "pitch": 64,
              "velocity": 40,
              "position": 1.31875,
              "duration": 0.16666666666666666
            },
            {
              "pitch": 55,
              "velocity": 40,
              "position": 1.3395833333333333,
              "duration": 0.14791666666666667
            },
            {
              "pitch": 59,
              "velocity": 40,
              "position": 1.3395833333333333,
              "duration": 0.14791666666666667
            },
            {
              "pitch": 60,
              "velocity": 40,
              "position": 1.3291666666666666,
              "duration": 0.16666666666666666
            },
            {
              "pitch": 55,
              "velocity": 69,
              "position": 1.5,
              "duration": 0.052083333333333336
            },
            {
              "pitch": 59,
              "velocity": 69,
              "position": 1.5,
              "duration": 0.052083333333333336
            },
            {
              "pitch": 60,
              "velocity": 69,
              "position": 1.5104166666666667,
              "duration": 0.052083333333333336
            },
            {
              "pitch": 64,
              "velocity": 69,
              "position": 1.5208333333333333,
              "duration": 0.052083333333333336
            },
            {
              "pitch": 67,
              "velocity": 69,
              "position": 1.53125,
              "duration": 0.052083333333333336
            },
            {
              "pitch": 71,
              "velocity": 69,
              "position": 1.53125,
              "duration": 0.052083333333333336
            },
            {
              "pitch": 67,
              "velocity": 51,
              "position": 1.8083333333333333,
              "duration": 0.16666666666666666
            },
            {
              "pitch": 71,
              "velocity": 51,
              "position": 1.8083333333333333,
              "duration": 0.16666666666666666
            },
            {
              "pitch": 64,
              "velocity": 51,
              "position": 1.81875,
              "duration": 0.16666666666666666
            },
            {
              "pitch": 60,
              "velocity": 51,
              "position": 1.8291666666666666,
              "duration": 0.16666666666666666
            },
            {
              "pitch": 55,
              "velocity": 51,
              "position": 1.8395833333333333,
              "duration": 0.15625
            },
            {
              "pitch": 59,
              "velocity": 51,
              "position": 1.8395833333333333,
              "duration": 0.15625
            },
            {
              "pitch": 55,
              "velocity": 83,
              "position": 2,
              "duration": 0.052083333333333336
            },
            {
              "pitch": 59,
              "velocity": 83,
              "position": 2,
              "duration": 0.052083333333333336
            },
            {
              "pitch": 60,
              "velocity": 83,
              "position": 2.0104166666666665,
              "duration": 0.052083333333333336
            },
            {
              "pitch": 64,
              "velocity": 83,
              "position": 2.0208333333333335,
              "duration": 0.052083333333333336
            },
            {
              "pitch": 67,
              "velocity": 83,
              "position": 2.03125,
              "duration": 0.052083333333333336
            },
            {
              "pitch": 71,
              "velocity": 83,
              "position": 2.03125,
              "duration": 0.052083333333333336
            },
            {
              "pitch": 67,
              "velocity": 52,
              "position": 2.308333333333333,
              "duration": 0.16666666666666666
            },
            {
              "pitch": 71,
              "velocity": 52,
              "position": 2.308333333333333,
              "duration": 0.16666666666666666
            },
            {
              "pitch": 64,
              "velocity": 52,
              "position": 2.31875,
              "duration": 0.16666666666666666
            },
            {
              "pitch": 60,
              "velocity": 52,
              "position": 2.3291666666666666,
              "duration": 0.16666666666666666
            },
            {
              "pitch": 55,
              "velocity": 52,
              "position": 2.339583333333333,
              "duration": 0.15625
            },
            {
              "pitch": 59,
              "velocity": 52,
              "position": 2.339583333333333,
              "duration": 0.15625
            },
            {
              "pitch": 55,
              "velocity": 65,
              "position": 2.5,
              "duration": 0.052083333333333336
            },
            {
              "pitch": 59,
              "velocity": 65,
              "position": 2.5,
              "duration": 0.052083333333333336
            },
            {
              "pitch": 60,
              "velocity": 65,
              "position": 2.5104166666666665,
              "duration": 0.052083333333333336
            },
            {
              "pitch": 64,
              "velocity": 65,
              "position": 2.5208333333333335,
              "duration": 0.052083333333333336
            },
            {
              "pitch": 67,
              "velocity": 65,
              "position": 2.53125,
              "duration": 0.052083333333333336
            },
            {
              "pitch": 71,
              "velocity": 65,
              "position": 2.53125,
              "duration": 0.052083333333333336
            },
            {
              "pitch": 67,
              "velocity": 64,
              "position": 2.808333333333333,
              "duration": 0.11458333333333333
            },
            {
              "pitch": 71,
              "velocity": 64,
              "position": 2.808333333333333,
              "duration": 0.11458333333333333
            },
            {
              "pitch": 64,
              "velocity": 64,
              "position": 2.81875,
              "duration": 0.11458333333333333
            },
            {
              "pitch": 60,
              "velocity": 64,
              "position": 2.8291666666666666,
              "duration": 0.11458333333333333
            },
            {
              "pitch": 55,
              "velocity": 64,
              "position": 2.839583333333333,
              "duration": 0.11458333333333333
            },
            {
              "pitch": 59,
              "velocity": 64,
              "position": 2.839583333333333,
              "duration": 0.11458333333333333
            },
            {
              "pitch": 67,
              "velocity": 40,
              "position": 3.308333333333333,
              "duration": 0.11458333333333333
            },
            {
              "pitch": 71,
              "velocity": 40,
              "position": 3.308333333333333,
              "duration": 0.11458333333333333
            },
            {
              "pitch": 64,
              "velocity": 40,
              "position": 3.31875,
              "duration": 0.11458333333333333
            },
            {
              "pitch": 60,
              "velocity": 40,
              "position": 3.3291666666666666,
              "duration": 0.11458333333333333
            },
            {
              "pitch": 55,
              "velocity": 40,
              "position": 3.339583333333333,
              "duration": 0.11458333333333333
            },
            {
              "pitch": 59,
              "velocity": 40,
              "position": 3.339583333333333,
              "duration": 0.11458333333333333
            },
            {
              "pitch": 55,
              "velocity": 56,
              "position": 3.5,
              "duration": 0.28125
            },
            {
              "pitch": 59,
              "velocity": 56,
              "position": 3.5,
              "duration": 0.28125
            },
            {
              "pitch": 60,
              "velocity": 56,
              "position": 3.5104166666666665,
              "duration": 0.28125
            },
            {
              "pitch": 64,
              "velocity": 56,
              "position": 3.5208333333333335,
              "duration": 0.28125
            },
            {
              "pitch": 67,
              "velocity": 56,
              "position": 3.53125,
              "duration": 0.2708333333333333
            },
            {
              "pitch": 71,
              "velocity": 56,
              "position": 3.53125,
              "duration": 0.2708333333333333
            },
            {
              "pitch": 67,
              "velocity": 39,
              "position": 3.808333333333333,
              "duration": 0.11458333333333333
            },
            {
              "pitch": 71,
              "velocity": 39,
              "position": 3.808333333333333,
              "duration": 0.11458333333333333
            },
            {
              "pitch": 64,
              "velocity": 39,
              "position": 3.81875,
              "duration": 0.11458333333333333
            },
            {
              "pitch": 60,
              "velocity": 39,
              "position": 3.8291666666666666,
              "duration": 0.11458333333333333
            },
            {
              "pitch": 55,
              "velocity": 39,
              "position": 3.839583333333333,
              "duration": 0.11458333333333333
            },
            {
              "pitch": 59,
              "velocity": 39,
              "position": 3.839583333333333,
              "duration": 0.11458333333333333
            }
          ]
        },
        "12": {
          "ctab": {
            "srcChannel": 12,
            "name": "EP",
            "accType": "CHORD2",
            "editable": false,
            "mutedNotes": [],
            "mutedChords": [],
            "autoStart": false,
            "sourceChordNote": 0,
            "sourceChordType": "Maj7",
            "ctb2Low": null,
            "ctb2Main": {
              "ntr": "ROOT_FIXED",
              "ntt": "CHORD",
              "bassOn": false,
              "chordRootUpperLimit": 7,
              "noteLowLimit": 0,
              "noteHighLimit": 127,
              "rtr": "PITCH_SHIFT"
            },
            "ctb2High": null
          },
          "notes": [
            {
              "pitch": 64,
              "velocity": 96,
              "position": 0,
              "duration": 2.1125
            },
            {
              "pitch": 59,
              "velocity": 96,
              "position": 0,
              "duration": 2.1395833333333334
            },
            {
              "pitch": 55,
              "velocity": 100,
              "position": 0,
              "duration": 2.1645833333333333
            },
            {
              "pitch": 55,
              "velocity": 100,
              "position": 2.5,
              "duration": 0.09583333333333334
            },
            {
              "pitch": 59,
              "velocity": 102,
              "position": 2.5,
              "duration": 0.1375
            },
            {
              "pitch": 64,
              "velocity": 102,
              "position": 2.5,
              "duration": 0.15
            },
            {
              "pitch": 55,
              "velocity": 111,
              "position": 3,
              "duration": 0.13333333333333333
            },
            {
              "pitch": 59,
              "velocity": 102,
              "position": 3,
              "duration": 0.14166666666666666
            },
            {
              "pitch": 64,
              "velocity": 96,
              "position": 3,
              "duration": 0.15
            }
          ]
        },
        "13": {
          "ctab": {
            "srcChannel": 13,
            "name": "Pad",
            "accType": "PAD",
            "editable": false,
            "mutedNotes": [],
            "mutedChords": [],
            "autoStart": false,
            "sourceChordNote": 0,
            "sourceChordType": "Maj7",
            "ctb2Low": null,
            "ctb2Main": {
              "ntr": "ROOT_FIXED",
              "ntt": "CHORD",
              "bassOn": false,
              "chordRootUpperLimit": 7,
              "noteLowLimit": 0,
              "noteHighLimit": 127,
              "rtr": "PITCH_SHIFT"
            },
            "ctb2High": null
          },
          "notes": [
            {
              "pitch": 55,
              "velocity": 75,
              "position": 0,
              "duration": 3.9895833333333335
            },
            {
              "pitch": 64,
              "velocity": 75,
              "position": 0,
              "duration": 3.9895833333333335
            },
            {
              "pitch": 59,
              "velocity": 75,
              "position": 0,
              "duration": 3.9895833333333335
            }
          ]
        },
        "14": {
          "ctab": {
            "srcChannel": 14,
            "name": "Mute",
            "accType": "PHRASE1",
            "editable": false,
            "mutedNotes": [],
            "mutedChords": [
              "Maj7aug",
              "minMaj7(9)",
              "minMaj7",
              "Maj7(9)",
              "Maj7#11",
              "Maj7"
            ],
            "autoStart": false,
            "sourceChordNote": 0,
            "sourceChordType": "Maj7",
            "ctb2Low": null,
            "ctb2Main": {
              "ntr": "ROOT_TRANSPOSITION",
              "ntt": "CHORD",
              "bassOn": false,
              "chordRootUpperLimit": 3,
              "noteLowLimit": 0,
              "noteHighLimit": 127,
              "rtr": "PITCH_SHIFT"
            },
            "ctb2High": null
          },
          "notes": [
            {
              "pitch": 60,
              "velocity": 85,
              "position": 0,
              "duration": 0.010416666666666666
            },
            {
              "pitch": 115,
              "velocity": 75,
              "position": 0,
              "duration": 0.010416666666666666
            },
            {
              "pitch": 60,
              "velocity": 85,
              "position": 0.30833333333333335,
              "duration": 0.010416666666666666
            },
            {
              "pitch": 114,
              "velocity": 75,
              "position": 0.30833333333333335,
              "duration": 0.010416666666666666
            },
            {
              "pitch": 60,
              "velocity": 85,
              "position": 0.5,
              "duration": 0.16666666666666666
            },
            {
              "pitch": 115,
              "velocity": 75,
              "position": 0.5,
              "duration": 0.16666666666666666
            },
            {
              "pitch": 60,
              "velocity": 85,
              "position": 0.8083333333333333,
              "duration": 0.010416666666666666
            },
            {
              "pitch": 114,
              "velocity": 75,
              "position": 0.8083333333333333,
              "duration": 0.010416666666666666
            },
            {
              "pitch": 60,
              "velocity": 85,
              "position": 1,
              "duration": 0.010416666666666666
            },
            {
              "pitch": 115,
              "velocity": 75,
              "position": 1,
              "duration": 0.010416666666666666
            },
            {
              "pitch": 60,
              "velocity": 85,
              "position": 1.3083333333333333,
              "duration": 0.125
            },
            {
              "pitch": 114,
              "velocity": 75,
              "position": 1.3083333333333333,
              "duration": 0.125
            },
            {
              "pitch": 55,
              "velocity": 85,
              "position": 2,
              "duration": 0.19791666666666666
            },
            {
              "pitch": 115,
              "velocity": 75,
              "position": 2,
              "duration": 0.19791666666666666
            },
            {
              "pitch": 55,
              "velocity": 85,
              "position": 2.808333333333333,
              "duration": 0.15625
            },
            {
              "pitch": 114,
              "velocity": 75,
              "position": 2.808333333333333,
              "duration": 0.15625
            },
            {
              "pitch": 55,
              "velocity": 85,
              "position": 3.5,
              "duration": 0.21875
            },
            {
              "pitch": 115,
              "velocity": 75,
              "position": 3.5,
              "duration": 0.21875
            }
          ]
        }
      }
    },
    "Intro_A": {
      "type": "Intro_A",
      "sizeInBeats": 4,
      "channels": {
        "3": {
          "ctab": {
            "srcChannel": 3,
            "name": "EP Rt",
            "accType": "CHORD2",
            "editable": true,
            "mutedNotes": [],
            "mutedChords": [
              "1+2+5",
              "sus4",
              "1+5",
              "1+8",
              "Maj7aug",
              "dim",
              "minMaj7(9)",
              "minMaj7",
              "min6",
              "min",
              "aug",
              "Maj7(9)",
              "Maj7#11",
              "Maj7",
              "Maj6",
              "Maj"
            ],
            "autoStart": false,
            "sourceChordNote": 0,
            "sourceChordType": "Maj7",
            "ctb2Low": null,
            "ctb2Main": {
              "ntr": "ROOT_TRANSPOSITION",
              "ntt": "CHORD",
              "bassOn": false,
              "chordRootUpperLimit": 7,
              "noteLowLimit": 0,
              "noteHighLimit": 127,
              "rtr": "PITCH_SHIFT"
            },
            "ctb2High": null
          },
          "notes": []
        },
        "4": {
          "ctab": {
            "srcChannel": 4,
            "name": "Pad",
            "accType": "PAD",
            "editable": false,
            "mutedNotes": [],
            "mutedChords": [
              "1+2+5",
              "sus4",
              "1+5",
              "1+8",
              "Maj7aug",
              "dim",
              "minMaj7(9)",
              "minMaj7",
              "min6",
              "min",
              "aug",
              "Maj7(9)",
              "Maj7#11",
              "Maj7",
              "Maj6",
              "Maj"
            ],
            "autoStart": false,
            "sourceChordNote": 0,
            "sourceChordType": "Maj7",
            "ctb2Low": null,
            "ctb2Main": {
              "ntr": "ROOT_TRANSPOSITION",
              "ntt": "MELODY",
              "bassOn": false,
              "chordRootUpperLimit": 6,
              "noteLowLimit": 0,
              "noteHighLimit": 127,
              "rtr": "PITCH_SHIFT"
            },
            "ctb2High": null
          },
          "notes": []
        },
        "5": {
          "ctab": {
            "srcChannel": 5,
            "name": "Mute",
            "accType": "PHRASE1",
            "editable": false,
            "mutedNotes": [],
            "mutedChords": [
              "1+2+5",
              "sus4",
              "1+5",
              "1+8",
              "7aug",
              "7(#9)",
              "7(b13)",
              "7(b9)",
              "7(13)",
              "7#11",
              "7(9)",
              "7b5",
              "7sus4",
              "7th",
              "dim7",
              "dim",
              "min7(11)",
              "min7(9)",
              "min(9)",
              "m7b5",
              "min7",
              "min6",
              "min",
              "aug",
              "Maj6(9)",
              "Maj(9)",
              "Maj6",
              "Maj"
            ],
            "autoStart": false,
            "sourceChordNote": 0,
            "sourceChordType": "Maj7",
            "ctb2Low": null,
            "ctb2Main": {
              "ntr": "ROOT_TRANSPOSITION",
              "ntt": "CHORD",
              "bassOn": false,
              "chordRootUpperLimit": 3,
              "noteLowLimit": 0,
              "noteHighLimit": 127,
              "rtr": "PITCH_SHIFT"
            },
            "ctb2High": null
          },
          "notes": []
        },
        "8": {
          "ctab": {
            "srcChannel": 8,
            "name": "Rhyth1",
            "accType": "SUBRHYTHM",
            "editable": false,
            "mutedNotes": [],
            "mutedChords": [],
            "autoStart": true,
            "sourceChordNote": 0,
            "sourceChordType": "Maj7",
            "ctb2Low": null,
            "ctb2Main": {
              "ntr": "ROOT_FIXED",
              "ntt": "BYPASS",
              "bassOn": false,
              "chordRootUpperLimit": 6,
              "noteLowLimit": 0,
              "noteHighLimit": 127,
              "rtr": "PITCH_SHIFT"
            },
            "ctb2High": null
          },
          "notes": []
        },
        "9": {
          "ctab": {
            "srcChannel": 9,
            "name": "Rhyth2",
            "accType": "RHYTHM",
            "editable": false,
            "mutedNotes": [],
            "mutedChords": [],
            "autoStart": true,
            "sourceChordNote": 0,
            "sourceChordType": "Maj7",
            "ctb2Low": null,
            "ctb2Main": {
              "ntr": "ROOT_FIXED",
              "ntt": "BYPASS",
              "bassOn": false,
              "chordRootUpperLimit": 6,
              "noteLowLimit": 0,
              "noteHighLimit": 127,
              "rtr": "PITCH_SHIFT"
            },
            "ctb2High": null
          },
          "notes": [
            {
              "pitch": 32,
              "velocity": 80,
              "position": 0,
              "duration": 0.010416666666666666
            },
            {
              "pitch": 32,
              "velocity": 75,
              "position": 1,
              "duration": 0.010416666666666666
            },
            {
              "pitch": 32,
              "velocity": 80,
              "position": 2,
              "duration": 0.010416666666666666
            },
            {
              "pitch": 38,
              "velocity": 14,
              "position": 2.5,
              "duration": 0.010416666666666666
            },
            {
              "pitch": 38,
              "velocity": 25,
              "position": 2.6458333333333335,
              "duration": 0.010416666666666666
            },
            {
              "pitch": 38,
              "velocity": 44,
              "position": 2.8125,
              "duration": 0.010416666666666666
            },
            {
              "pitch": 38,
              "velocity": 110,
              "position": 3,
              "duration": 0.010416666666666666
            },
            {
              "pitch": 36,
              "velocity": 46,
              "position": 3.3125,
              "duration": 0.010416666666666666
            },
            {
              "pitch": 36,
              "velocity": 44,
              "position": 3.8125,
              "duration": 0.010416666666666666
            },
            {
              "pitch": 49,
              "velocity": 73,
              "position": 3.9895833333333335,
              "duration": 0.010416666666666666
            }
          ]
        },
        "10": {
          "ctab": {
            "srcChannel": 10,
            "name": "Bass",
            "accType": "BASS",
            "editable": false,
            "mutedNotes": [],
            "mutedChords": [],
            "autoStart": false,
            "sourceChordNote": 0,
            "sourceChordType": "Maj7",
            "ctb2Low": null,
            "ctb2Main": {
              "ntr": "ROOT_TRANSPOSITION",
              "ntt": "MELODY",
              "bassOn": true,
              "chordRootUpperLimit": 8,
              "noteLowLimit": 28,
              "noteHighLimit": 127,
              "rtr": "PITCH_SHIFT_TO_ROOT"
            },
            "ctb2High": null
          },
          "notes": []
        },
        "11": {
          "ctab": {
            "srcChannel": 11,
            "name": "Gtr",
            "accType": "CHORD1",
            "editable": false,
            "mutedNotes": [],
            "mutedChords": [],
            "autoStart": false,
            "sourceChordNote": 0,
            "sourceChordType": "Maj7",
            "ctb2Low": null,
            "ctb2Main": {
              "ntr": "ROOT_TRANSPOSITION",
              "ntt": "MELODY",
              "bassOn": false,
              "chordRootUpperLimit": 7,
              "noteLowLimit": 0,
              "noteHighLimit": 127,
              "rtr": "PITCH_SHIFT"
            },
            "ctb2High": null
          },
          "notes": []
        },
        "12": {
          "ctab": {
            "srcChannel": 12,
            "name": "EP",
            "accType": "CHORD2",
            "editable": false,
            "mutedNotes": [],
            "mutedChords": [],
            "autoStart": false,
            "sourceChordNote": 0,
            "sourceChordType": "Maj7",
            "ctb2Low": null,
            "ctb2Main": {
              "ntr": "ROOT_FIXED",
              "ntt": "CHORD",
              "bassOn": false,
              "chordRootUpperLimit": 7,
              "noteLowLimit": 0,
              "noteHighLimit": 127,
              "rtr": "PITCH_SHIFT"
            },
            "ctb2High": null
          },
          "notes": []
        },
        "13": {
          "ctab": {
            "srcChannel": 13,
            "name": "Pad",
            "accType": "PAD",
            "editable": false,
            "mutedNotes": [],
            "mutedChords": [],
            "autoStart": false,
            "sourceChordNote": 0,
            "sourceChordType": "Maj7",
            "ctb2Low": null,
            "ctb2Main": {
              "ntr": "ROOT_FIXED",
              "ntt": "CHORD",
              "bassOn": false,
              "chordRootUpperLimit": 7,
              "noteLowLimit": 0,
              "noteHighLimit": 127,
              "rtr": "PITCH_SHIFT"
            },
            "ctb2High": null
          },
          "notes": []
        },
        "14": {
          "ctab": {
            "srcChannel": 14,
            "name": "Mute",
            "accType": "PHRASE1",
            "editable": false,
            "mutedNotes": [],
            "mutedChords": [
              "Maj7aug",
              "minMaj7(9)",
              "minMaj7",
              "Maj7(9)",
              "Maj7#11",
              "Maj7"
            ],
            "autoStart": false,
            "sourceChordNote": 0,
            "sourceChordType": "Maj7",
            "ctb2Low": null,
            "ctb2Main": {
              "ntr": "ROOT_TRANSPOSITION",
              "ntt": "CHORD",
              "bassOn": false,
              "chordRootUpperLimit": 3,
              "noteLowLimit": 0,
              "noteHighLimit": 127,
              "rtr": "PITCH_SHIFT"
            },
            "ctb2High": null
          },
          "notes": []
        }
      }
    },
    "Ending_A": {
      "type": "Ending_A",
      "sizeInBeats": 4,
      "channels": {
        "3": {
          "ctab": {
            "srcChannel": 3,
            "name": "EP Rt",
            "accType": "CHORD2",
            "editable": true,
            "mutedNotes": [],
            "mutedChords": [
              "1+2+5",
              "sus4",
              "1+5",
              "1+8",
              "Maj7aug",
              "dim",
              "minMaj7(9)",
              "minMaj7",
              "min6",
              "min",
              "aug",
              "Maj7(9)",
              "Maj7#11",
              "Maj7",
              "Maj6",
              "Maj"
            ],
            "autoStart": false,
            "sourceChordNote": 0,
            "sourceChordType": "Maj7",
            "ctb2Low": null,
            "ctb2Main": {
              "ntr": "ROOT_TRANSPOSITION",
              "ntt": "CHORD",
              "bassOn": false,
              "chordRootUpperLimit": 7,
              "noteLowLimit": 0,
              "noteHighLimit": 127,
              "rtr": "PITCH_SHIFT"
            },
            "ctb2High": null
          },
          "notes": [
            {
              "pitch": 60,
              "velocity": 62,
              "position": 0,
              "duration": 3.96875
            }
          ]
        },
        "4": {
          "ctab": {
            "srcChannel": 4,
            "name": "Pad",
            "accType": "PAD",
            "editable": false,
            "mutedNotes": [],
            "mutedChords": [
              "1+2+5",
              "sus4",
              "1+5",
              "1+8",
              "Maj7aug",
              "dim",
              "minMaj7(9)",
              "minMaj7",
              "min6",
              "min",
              "aug",
              "Maj7(9)",
              "Maj7#11",
              "Maj7",
              "Maj6",
              "Maj"
            ],
            "autoStart": false,
            "sourceChordNote": 0,
            "sourceChordType": "Maj7",
            "ctb2Low": null,
            "ctb2Main": {
              "ntr": "ROOT_TRANSPOSITION",
              "ntt": "MELODY",
              "bassOn": false,
              "chordRootUpperLimit": 6,
              "noteLowLimit": 0,
              "noteHighLimit": 127,
              "rtr": "PITCH_SHIFT"
            },
            "ctb2High": null
          },
          "notes": [
            {
              "pitch": 60,
              "velocity": 75,
              "position": 0,
              "duration": 3.7916666666666665
            }
          ]
        },
        "5": {
          "ctab": {
            "srcChannel": 5,
            "name": "Mute",
            "accType": "PHRASE1",
            "editable": false,
            "mutedNotes": [],
            "mutedChords": [
              "1+2+5",
              "sus4",
              "1+5",
              "1+8",
              "7aug",
              "7(#9)",
              "7(b13)",
              "7(b9)",
              "7(13)",
              "7#11",
              "7(9)",
              "7b5",
              "7sus4",
              "7th",
              "dim7",
              "dim",
              "min7(11)",
              "min7(9)",
              "min(9)",
              "m7b5",
              "min7",
              "min6",
              "min",
              "aug",
              "Maj6(9)",
              "Maj(9)",
              "Maj6",
              "Maj"
            ],
            "autoStart": false,
            "sourceChordNote": 0,
            "sourceChordType": "Maj7",
            "ctb2Low": null,
            "ctb2Main": {
              "ntr": "ROOT_TRANSPOSITION",
              "ntt": "CHORD",
              "bassOn": false,
              "chordRootUpperLimit": 3,
              "noteLowLimit": 0,
              "noteHighLimit": 127,
              "rtr": "PITCH_SHIFT"
            },
            "ctb2High": null
          },
          "notes": []
        },
        "8": {
          "ctab": {
            "srcChannel": 8,
            "name": "Rhyth1",
            "accType": "SUBRHYTHM",
            "editable": false,
            "mutedNotes": [],
            "mutedChords": [],
            "autoStart": true,
            "sourceChordNote": 0,
            "sourceChordType": "Maj7",
            "ctb2Low": null,
            "ctb2Main": {
              "ntr": "ROOT_FIXED",
              "ntt": "BYPASS",
              "bassOn": false,
              "chordRootUpperLimit": 6,
              "noteLowLimit": 0,
              "noteHighLimit": 127,
              "rtr": "PITCH_SHIFT"
            },
            "ctb2High": null
          },
          "notes": []
        },
        "9": {
          "ctab": {
            "srcChannel": 9,
            "name": "Rhyth2",
            "accType": "RHYTHM",
            "editable": false,
            "mutedNotes": [],
            "mutedChords": [],
            "autoStart": true,
            "sourceChordNote": 0,
            "sourceChordType": "Maj7",
            "ctb2Low": null,
            "ctb2Main": {
              "ntr": "ROOT_FIXED",
              "ntt": "BYPASS",
              "bassOn": false,
              "chordRootUpperLimit": 6,
              "noteLowLimit": 0,
              "noteHighLimit": 127,
              "rtr": "PITCH_SHIFT"
            },
            "ctb2High": null
          },
          "notes": [
            {
              "pitch": 36,
              "velocity": 100,
              "position": 0,
              "duration": 0.010416666666666666
            }
          ]
        },
        "10": {
          "ctab": {
            "srcChannel": 10,
            "name": "Bass",
            "accType": "BASS",
            "editable": false,
            "mutedNotes": [],
            "mutedChords": [],
            "autoStart": false,
            "sourceChordNote": 0,
            "sourceChordType": "Maj7",
            "ctb2Low": null,
            "ctb2Main": {
              "ntr": "ROOT_TRANSPOSITION",
              "ntt": "MELODY",
              "bassOn": true,
              "chordRootUpperLimit": 8,
              "noteLowLimit": 28,
              "noteHighLimit": 127,
              "rtr": "PITCH_SHIFT_TO_ROOT"
            },
            "ctb2High": null
          },
          "notes": [
            {
              "pitch": 24,
              "velocity": 60,
              "position": 0,
              "duration": 3.96875
            }
          ]
        },
        "11": {
          "ctab": {
            "srcChannel": 11,
            "name": "Gtr",
            "accType": "CHORD1",
            "editable": false,
            "mutedNotes": [],
            "mutedChords": [],
            "autoStart": false,
            "sourceChordNote": 0,
            "sourceChordType": "Maj7",
            "ctb2Low": null,
            "ctb2Main": {
              "ntr": "ROOT_TRANSPOSITION",
              "ntt": "MELODY",
              "bassOn": false,
              "chordRootUpperLimit": 7,
              "noteLowLimit": 0,
              "noteHighLimit": 127,
              "rtr": "PITCH_SHIFT"
            },
            "ctb2High": null
          },
          "notes": [
            {
              "pitch": 55,
              "velocity": 50,
              "position": 0,
              "duration": 3.96875
            },
            {
              "pitch": 59,
              "velocity": 50,
              "position": 0,
              "duration": 3.96875
            },
            {
              "pitch": 60,
              "velocity": 50,
              "position": 0.010416666666666666,
              "duration": 3.96875
            },
            {
              "pitch": 64,
              "velocity": 50,
              "position": 0.020833333333333332,
              "duration": 3.96875
            },
            {
              "pitch": 67,
              "velocity": 50,
              "position": 0.03125,
              "duration": 3.96875
            },
            {
              "pitch": 71,
              "velocity": 50,
              "position": 0.03125,
              "duration": 3.96875
            }
          ]
        },
        "12": {
          "ctab": {
            "srcChannel": 12,
            "name": "EP",
            "accType": "CHORD2",
            "editable": false,
            "mutedNotes": [],
            "mutedChords": [],
            "autoStart": false,
            "sourceChordNote": 0,
            "sourceChordType": "Maj7",
            "ctb2Low": null,
            "ctb2Main": {
              "ntr": "ROOT_FIXED",
              "ntt": "CHORD",
              "bassOn": false,
              "chordRootUpperLimit": 7,
              "noteLowLimit": 0,
              "noteHighLimit": 127,
              "rtr": "PITCH_SHIFT"
            },
            "ctb2High": null
          },
          "notes": [
            {
              "pitch": 55,
              "velocity": 62,
              "position": 0,
              "duration": 3.96875
            },
            {
              "pitch": 64,
              "velocity": 62,
              "position": 0,
              "duration": 3.96875
            },
            {
              "pitch": 59,
              "velocity": 62,
              "position": 0,
              "duration": 3.96875
            }
          ]
        },
        "13": {
          "ctab": {
            "srcChannel": 13,
            "name": "Pad",
            "accType": "PAD",
            "editable": false,
            "mutedNotes": [],
            "mutedChords": [],
            "autoStart": false,
            "sourceChordNote": 0,
            "sourceChordType": "Maj7",
            "ctb2Low": null,
            "ctb2Main": {
              "ntr": "ROOT_FIXED",
              "ntt": "CHORD",
              "bassOn": false,
              "chordRootUpperLimit": 7,
              "noteLowLimit": 0,
              "noteHighLimit": 127,
              "rtr": "PITCH_SHIFT"
            },
            "ctb2High": null
          },
          "notes": [
            {
              "pitch": 55,
              "velocity": 75,
              "position": 0,
              "duration": 3.7916666666666665
            },
            {
              "pitch": 64,
              "velocity": 75,
              "position": 0,
              "duration": 3.7916666666666665
            },
            {
              "pitch": 59,
              "velocity": 75,
              "position": 0,
              "duration": 3.7916666666666665
            }
          ]
        },
        "14": {
          "ctab": {
            "srcChannel": 14,
            "name": "Mute",
            "accType": "PHRASE1",
            "editable": false,
            "mutedNotes": [],
            "mutedChords": [
              "Maj7aug",
              "minMaj7(9)",
              "minMaj7",
              "Maj7(9)",
              "Maj7#11",
              "Maj7"
            ],
            "autoStart": false,
            "sourceChordNote": 0,
            "sourceChordType": "Maj7",
            "ctb2Low": null,
            "ctb2Main": {
              "ntr": "ROOT_TRANSPOSITION",
              "ntt": "CHORD",
              "bassOn": false,
              "chordRootUpperLimit": 3,
              "noteLowLimit": 0,
              "noteHighLimit": 127,
              "rtr": "PITCH_SHIFT"
            },
            "ctb2High": null
          },
          "notes": []
        }
      }
    },
    "Fill_In_BA": {
      "type": "Fill_In_BA",
      "sizeInBeats": 4,
      "channels": {
        "3": {
          "ctab": {
            "srcChannel": 3,
            "name": "EP Rt",
            "accType": "CHORD2",
            "editable": true,
            "mutedNotes": [],
            "mutedChords": [
              "1+2+5",
              "sus4",
              "1+5",
              "1+8",
              "Maj7aug",
              "dim",
              "minMaj7(9)",
              "minMaj7",
              "min6",
              "min",
              "aug",
              "Maj7(9)",
              "Maj7#11",
              "Maj7",
              "Maj6",
              "Maj"
            ],
            "autoStart": false,
            "sourceChordNote": 0,
            "sourceChordType": "Maj7",
            "ctb2Low": null,
            "ctb2Main": {
              "ntr": "ROOT_TRANSPOSITION",
              "ntt": "CHORD",
              "bassOn": false,
              "chordRootUpperLimit": 7,
              "noteLowLimit": 0,
              "noteHighLimit": 127,
              "rtr": "PITCH_SHIFT"
            },
            "ctb2High": null
          },
          "notes": [
            {
              "pitch": 60,
              "velocity": 62,
              "position": 0,
              "duration": 0.3020833333333333
            },
            {
              "pitch": 60,
              "velocity": 62,
              "position": 1,
              "duration": 0.3020833333333333
            }
          ]
        },
        "4": {
          "ctab": {
            "srcChannel": 4,
            "name": "Pad",
            "accType": "PAD",
            "editable": false,
            "mutedNotes": [],
            "mutedChords": [
              "1+2+5",
              "sus4",
              "1+5",
              "1+8",
              "Maj7aug",
              "dim",
              "minMaj7(9)",
              "minMaj7",
              "min6",
              "min",
              "aug",
              "Maj7(9)",
              "Maj7#11",
              "Maj7",
              "Maj6",
              "Maj"
            ],
            "autoStart": false,
            "sourceChordNote": 0,
            "sourceChordType": "Maj7",
            "ctb2Low": null,
            "ctb2Main": {
              "ntr": "ROOT_TRANSPOSITION",
              "ntt": "MELODY",
              "bassOn": false,
              "chordRootUpperLimit": 6,
              "noteLowLimit": 0,
              "noteHighLimit": 127,
              "rtr": "PITCH_SHIFT"
            },
            "ctb2High": null
          },
          "notes": [
            {
              "pitch": 60,
              "velocity": 75,
              "position": 0,
              "duration": 0.9895833333333334
            },
            {
              "pitch": 60,
              "velocity": 75,
              "position": 1,
              "duration": 0.25
            }
          ]
        },
        "5": {
          "ctab": {
            "srcChannel": 5,
            "name": "Mute",
            "accType": "PHRASE1",
            "editable": false,
            "mutedNotes": [],
            "mutedChords": [
              "1+2+5",
              "sus4",
              "1+5",
              "1+8",
              "7aug",
              "7(#9)",
              "7(b13)",
              "7(b9)",
              "7(13)",
              "7#11",
              "7(9)",
              "7b5",
              "7sus4",
              "7th",
              "dim7",
              "dim",
              "min7(11)",
              "min7(9)",
              "min(9)",
              "m7b5",
              "min7",
              "min6",
              "min",
              "aug",
              "Maj6(9)",
              "Maj(9)",
              "Maj6",
              "Maj"
            ],
            "autoStart": false,
            "sourceChordNote": 0,
            "sourceChordType": "Maj7",
            "ctb2Low": null,
            "ctb2Main": {
              "ntr": "ROOT_TRANSPOSITION",
              "ntt": "CHORD",
              "bassOn": false,
              "chordRootUpperLimit": 3,
              "noteLowLimit": 0,
              "noteHighLimit": 127,
              "rtr": "PITCH_SHIFT"
            },
            "ctb2High": null
          },
          "notes": [
            {
              "pitch": 59,
              "velocity": 85,
              "position": 0,
              "duration": 0.17708333333333334
            },
            {
              "pitch": 115,
              "velocity": 75,
              "position": 0,
              "duration": 0.17708333333333334
            },
            {
              "pitch": 59,
              "velocity": 85,
              "position": 1,
              "duration": 0.14583333333333334
            },
            {
              "pitch": 115,
              "velocity": 75,
              "position": 1,
              "duration": 0.14583333333333334
            }
          ]
        },
        "8": {
          "ctab": {
            "srcChannel": 8,
            "name": "Rhyth1",
            "accType": "SUBRHYTHM",
            "editable": false,
            "mutedNotes": [],
            "mutedChords": [],
            "autoStart": true,
            "sourceChordNote": 0,
            "sourceChordType": "Maj7",
            "ctb2Low": null,
            "ctb2Main": {
              "ntr": "ROOT_FIXED",
              "ntt": "BYPASS",
              "bassOn": false,
              "chordRootUpperLimit": 6,
              "noteLowLimit": 0,
              "noteHighLimit": 127,
              "rtr": "PITCH_SHIFT"
            },
            "ctb2High": null
          },
          "notes": [
            {
              "pitch": 54,
              "velocity": 12,
              "position": 0,
              "duration": 0.010416666666666666
            },
            {
              "pitch": 54,
              "velocity": 72,
              "position": 0.5,
              "duration": 0.010416666666666666
            },
            {
              "pitch": 62,
              "velocity": 108,
              "position": 0.5,
              "duration": 0.010416666666666666
            }
          ]
        },
        "9": {
          "ctab": {
            "srcChannel": 9,
            "name": "Rhyth2",
            "accType": "RHYTHM",
            "editable": false,
            "mutedNotes": [],
            "mutedChords": [],
            "autoStart": true,
            "sourceChordNote": 0,
            "sourceChordType": "Maj7",
            "ctb2Low": null,
            "ctb2Main": {
              "ntr": "ROOT_FIXED",
              "ntt": "BYPASS",
              "bassOn": false,
              "chordRootUpperLimit": 6,
              "noteLowLimit": 0,
              "noteHighLimit": 127,
              "rtr": "PITCH_SHIFT"
            },
            "ctb2High": null
          },
          "notes": [
            {
              "pitch": 36,
              "velocity": 98,
              "position": 0,
              "duration": 0.010416666666666666
            },
            {
              "pitch": 51,
              "velocity": 70,
              "position": 0,
              "duration": 0.010416666666666666
            },
            {
              "pitch": 38,
              "velocity": 106,
              "position": 0,
              "duration": 0.010416666666666666
            },
            {
              "pitch": 44,
              "velocity": 66,
              "position": 0.5,
              "duration": 0.010416666666666666
            },
            {
              "pitch": 53,
              "velocity": 72,
              "position": 0.5,
              "duration": 0.010416666666666666
            },
            {
              "pitch": 36,
              "velocity": 98,
              "position": 1,
              "duration": 0.010416666666666666
            },
            {
              "pitch": 51,
              "velocity": 70,
              "position": 1,
              "duration": 0.010416666666666666
            },
            {
              "pitch": 38,
              "velocity": 106,
              "position": 1,
              "duration": 0.010416666666666666
            },
            {
              "pitch": 44,
              "velocity": 64,
              "position": 1.5,
              "duration": 0.010416666666666666
            },
            {
              "pitch": 45,
              "velocity": 58,
              "position": 1.8125,
              "duration": 0.010416666666666666
            },
            {
              "pitch": 41,
              "velocity": 86,
              "position": 2,
              "duration": 0.010416666666666666
            },
            {
              "pitch": 44,
              "velocity": 64,
              "position": 2.5,
              "duration": 0.010416666666666666
            },
            {
              "pitch": 38,
              "velocity": 50,
              "position": 2.75,
              "duration": 0.010416666666666666
            },
            {
              "pitch": 38,
              "velocity": 22,
              "position": 2.8333333333333335,
              "duration": 0.010416666666666666
            },
            {
              "pitch": 38,
              "velocity": 34,
              "position": 2.9166666666666665,
              "duration": 0.010416666666666666
            },
            {
              "pitch": 38,
              "velocity": 110,
              "position": 3,
              "duration": 0.010416666666666666
            },
            {
              "pitch": 36,
              "velocity": 72,
              "position": 3.3125,
              "duration": 0.010416666666666666
            },
            {
              "pitch": 44,
              "velocity": 70,
              "position": 3.5,
              "duration": 0.010416666666666666
            },
            {
              "pitch": 36,
              "velocity": 98,
              "position": 3.8125,
              "duration": 0.010416666666666666
            },
            {
              "pitch": 49,
              "velocity": 74,
              "position": 3.9895833333333335,
              "duration": 0.010416666666666666
            }
          ]
        },
        "10": {
          "ctab": {
            "srcChannel": 10,
            "name": "Bass",
            "accType": "BASS",
            "editable": false,
            "mutedNotes": [],
            "mutedChords": [],
            "autoStart": false,
            "sourceChordNote": 0,
            "sourceChordType": "Maj7",
            "ctb2Low": null,
            "ctb2Main": {
              "ntr": "ROOT_TRANSPOSITION",
              "ntt": "MELODY",
              "bassOn": true,
              "chordRootUpperLimit": 8,
              "noteLowLimit": 28,
              "noteHighLimit": 127,
              "rtr": "PITCH_SHIFT_TO_ROOT"
            },
            "ctb2High": null
          },
          "notes": [
            {
              "pitch": 24,
              "velocity": 60,
              "position": 0,
              "duration": 0.9833333333333333
            },
            {
              "pitch": 24,
              "velocity": 65,
              "position": 1,
              "duration": 0.4791666666666667
            }
          ]
        },
        "11": {
          "ctab": {
            "srcChannel": 11,
            "name": "Gtr",
            "accType": "CHORD1",
            "editable": false,
            "mutedNotes": [],
            "mutedChords": [],
            "autoStart": false,
            "sourceChordNote": 0,
            "sourceChordType": "Maj7",
            "ctb2Low": null,
            "ctb2Main": {
              "ntr": "ROOT_TRANSPOSITION",
              "ntt": "MELODY",
              "bassOn": false,
              "chordRootUpperLimit": 7,
              "noteLowLimit": 0,
              "noteHighLimit": 127,
              "rtr": "PITCH_SHIFT"
            },
            "ctb2High": null
          },
          "notes": [
            {
              "pitch": 67,
              "velocity": 117,
              "position": 0.03125,
              "duration": 0.9375
            },
            {
              "pitch": 71,
              "velocity": 117,
              "position": 0.03125,
              "duration": 0.9375
            },
            {
              "pitch": 55,
              "velocity": 117,
              "position": 0,
              "duration": 0.96875
            },
            {
              "pitch": 59,
              "velocity": 117,
              "position": 0,
              "duration": 0.96875
            },
            {
              "pitch": 60,
              "velocity": 117,
              "position": 0.010416666666666666,
              "duration": 0.96875
            },
            {
              "pitch": 64,
              "velocity": 117,
              "position": 0.020833333333333332,
              "duration": 0.96875
            },
            {
              "pitch": 55,
              "velocity": 50,
              "position": 1,
              "duration": 0.28125
            },
            {
              "pitch": 59,
              "velocity": 50,
              "position": 1,
              "duration": 0.28125
            },
            {
              "pitch": 60,
              "velocity": 50,
              "position": 1.0104166666666667,
              "duration": 0.28125
            },
            {
              "pitch": 64,
              "velocity": 50,
              "position": 1.0208333333333333,
              "duration": 0.28125
            },
            {
              "pitch": 67,
              "velocity": 50,
              "position": 1.0291666666666666,
              "duration": 0.28125
            },
            {
              "pitch": 71,
              "velocity": 50,
              "position": 1.0291666666666666,
              "duration": 0.28125
            }
          ]
        },
        "12": {
          "ctab": {
            "srcChannel": 12,
            "name": "EP",
            "accType": "CHORD2",
            "editable": false,
            "mutedNotes": [],
            "mutedChords": [],
            "autoStart": false,
            "sourceChordNote": 0,
            "sourceChordType": "Maj7",
            "ctb2Low": null,
            "ctb2Main": {
              "ntr": "ROOT_FIXED",
              "ntt": "CHORD",
              "bassOn": false,
              "chordRootUpperLimit": 7,
              "noteLowLimit": 0,
              "noteHighLimit": 127,
              "rtr": "PITCH_SHIFT"
            },
            "ctb2High": null
          },
          "notes": [
            {
              "pitch": 59,
              "velocity": 62,
              "position": 0,
              "duration": 0.3020833333333333
            },
            {
              "pitch": 64,
              "velocity": 62,
              "position": 0,
              "duration": 0.3125
            },
            {
              "pitch": 55,
              "velocity": 62,
              "position": 0,
              "duration": 0.3125
            },
            {
              "pitch": 59,
              "velocity": 62,
              "position": 1,
              "duration": 0.3020833333333333
            },
            {
              "pitch": 64,
              "velocity": 62,
              "position": 1,
              "duration": 0.3125
            },
            {
              "pitch": 55,
              "velocity": 62,
              "position": 1,
              "duration": 0.3125
            }
          ]
        },
        "13": {
          "ctab": {
            "srcChannel": 13,
            "name": "Pad",
            "accType": "PAD",
            "editable": false,
            "mutedNotes": [],
            "mutedChords": [],
            "autoStart": false,
            "sourceChordNote": 0,
            "sourceChordType": "Maj7",
            "ctb2Low": null,
            "ctb2Main": {
              "ntr": "ROOT_FIXED",
              "ntt": "CHORD",
              "bassOn": false,
              "chordRootUpperLimit": 7,
              "noteLowLimit": 0,
              "noteHighLimit": 127,
              "rtr": "PITCH_SHIFT"
            },
            "ctb2High": null
          },
          "notes": [
            {
              "pitch": 55,
              "velocity": 75,
              "position": 0,
              "duration": 0.9895833333333334
            },
            {
              "pitch": 64,
              "velocity": 75,
              "position": 0,
              "duration": 0.9895833333333334
            },
            {
              "pitch": 59,
              "velocity": 75,
              "position": 0,
              "duration": 0.9895833333333334
            },
            {
              "pitch": 55,
              "velocity": 75,
              "position": 1,
              "duration": 0.25
            },
            {
              "pitch": 64,
              "velocity": 75,
              "position": 1,
              "duration": 0.25
            },
            {
              "pitch": 59,
              "velocity": 75,
              "position": 1,
              "duration": 0.25
            }
          ]
        },
        "14": {
          "ctab": {
            "srcChannel": 14,
            "name": "Mute",
            "accType": "PHRASE1",
            "editable": false,
            "mutedNotes": [],
            "mutedChords": [
              "Maj7aug",
              "minMaj7(9)",
              "minMaj7",
              "Maj7(9)",
              "Maj7#11",
              "Maj7"
            ],
            "autoStart": false,
            "sourceChordNote": 0,
            "sourceChordType": "Maj7",
            "ctb2Low": null,
            "ctb2Main": {
              "ntr": "ROOT_TRANSPOSITION",
              "ntt": "CHORD",
              "bassOn": false,
              "chordRootUpperLimit": 3,
              "noteLowLimit": 0,
              "noteHighLimit": 127,
              "rtr": "PITCH_SHIFT"
            },
            "ctb2High": null
          },
          "notes": [
            {
              "pitch": 60,
              "velocity": 85,
              "position": 0,
              "duration": 0.17708333333333334
            },
            {
              "pitch": 115,
              "velocity": 75,
              "position": 0,
              "duration": 0.17708333333333334
            },
            {
              "pitch": 60,
              "velocity": 85,
              "position": 1,
              "duration": 0.14583333333333334
            },
            {
              "pitch": 115,
              "velocity": 75,
              "position": 1,
              "duration": 0.14583333333333334
            }
          ]
        }
      }
    },
    "Intro_B": {
      "type": "Intro_B",
      "sizeInBeats": 16,
      "channels": {
        "1": {
          "ctab": {
            "srcChannel": 1,
            "name": "Bass",
            "accType": "BASS",
            "editable": false,
            "mutedNotes": [],
            "mutedChords": [
              "1+2+5",
              "sus4",
              "1+5",
              "1+8",
              "7aug",
              "Maj7aug",
              "7(#9)",
              "7(b13)",
              "7(b9)",
              "7(13)",
              "7#11",
              "7(9)",
              "7b5",
              "7sus4",
              "7th",
              "aug",
              "Maj6(9)",
              "Maj7(9)",
              "Maj(9)",
              "Maj7#11",
              "Maj7",
              "Maj6",
              "Maj"
            ],
            "autoStart": false,
            "sourceChordNote": 0,
            "sourceChordType": "min",
            "ctb2Low": null,
            "ctb2Main": {
              "ntr": "ROOT_TRANSPOSITION",
              "ntt": "BYPASS",
              "bassOn": false,
              "chordRootUpperLimit": 3,
              "noteLowLimit": 28,
              "noteHighLimit": 127,
              "rtr": "PITCH_SHIFT"
            },
            "ctb2High": null
          },
          "notes": [
            {
              "pitch": 24,
              "velocity": 64,
              "position": 0,
              "duration": 0.4166666666666667
            },
            {
              "pitch": 24,
              "velocity": 104,
              "position": 0.5,
              "duration": 0.0625
            },
            {
              "pitch": 48,
              "velocity": 66,
              "position": 0.8125,
              "duration": 0.3645833333333333
            },
            {
              "pitch": 24,
              "velocity": 63,
              "position": 1.3125,
              "duration": 0.16666666666666666
            },
            {
              "pitch": 38,
              "velocity": 98,
              "position": 1.6666666666666667,
              "duration": 0.16666666666666666
            },
            {
              "pitch": 39,
              "velocity": 110,
              "position": 1.8125,
              "duration": 0.16666666666666666
            },
            {
              "pitch": 39,
              "velocity": 56,
              "position": 2,
              "duration": 0.4791666666666667
            },
            {
              "pitch": 39,
              "velocity": 64,
              "position": 2.5,
              "duration": 0.2916666666666667
            },
            {
              "pitch": 27,
              "velocity": 60,
              "position": 3.3125,
              "duration": 0.16666666666666666
            },
            {
              "pitch": 31,
              "velocity": 54,
              "position": 3.5,
              "duration": 0.3020833333333333
            },
            {
              "pitch": 27,
              "velocity": 100,
              "position": 3.8125,
              "duration": 0.10416666666666667
            },
            {
              "pitch": 32,
              "velocity": 64,
              "position": 4,
              "duration": 0.71875
            },
            {
              "pitch": 32,
              "velocity": 104,
              "position": 4.854166666666667,
              "duration": 0.14583333333333334
            },
            {
              "pitch": 32,
              "velocity": 60,
              "position": 5.3125,
              "duration": 0.17708333333333334
            },
            {
              "pitch": 29,
              "velocity": 64,
              "position": 5.5,
              "duration": 0.3229166666666667
            },
            {
              "pitch": 30,
              "velocity": 88,
              "position": 5.833333333333333,
              "duration": 0.15625
            },
            {
              "pitch": 31,
              "velocity": 64,
              "position": 6,
              "duration": 0.71875
            },
            {
              "pitch": 31,
              "velocity": 104,
              "position": 6.854166666666667,
              "duration": 0.14583333333333334
            },
            {
              "pitch": 43,
              "velocity": 60,
              "position": 7.3125,
              "duration": 0.17708333333333334
            },
            {
              "pitch": 31,
              "velocity": 64,
              "position": 7.5,
              "duration": 0.3333333333333333
            },
            {
              "pitch": 32,
              "velocity": 88,
              "position": 7.833333333333333,
              "duration": 0.16666666666666666
            },
            {
              "pitch": 24,
              "velocity": 64,
              "position": 8,
              "duration": 0.4166666666666667
            },
            {
              "pitch": 24,
              "velocity": 104,
              "position": 8.5,
              "duration": 0.0625
            },
            {
              "pitch": 24,
              "velocity": 66,
              "position": 8.8125,
              "duration": 0.17708333333333334
            },
            {
              "pitch": 24,
              "velocity": 63,
              "position": 9.3125,
              "duration": 0.4166666666666667
            },
            {
              "pitch": 24,
              "velocity": 100,
              "position": 9.8125,
              "duration": 0.10416666666666667
            },
            {
              "pitch": 27,
              "velocity": 56,
              "position": 10,
              "duration": 0.4791666666666667
            },
            {
              "pitch": 27,
              "velocity": 64,
              "position": 10.5,
              "duration": 0.2916666666666667
            },
            {
              "pitch": 27,
              "velocity": 60,
              "position": 11.3125,
              "duration": 0.16666666666666666
            },
            {
              "pitch": 31,
              "velocity": 54,
              "position": 11.5,
              "duration": 0.3020833333333333
            },
            {
              "pitch": 34,
              "velocity": 100,
              "position": 11.8125,
              "duration": 0.10416666666666667
            },
            {
              "pitch": 32,
              "velocity": 64,
              "position": 12,
              "duration": 0.71875
            },
            {
              "pitch": 32,
              "velocity": 104,
              "position": 12.854166666666666,
              "duration": 0.14583333333333334
            },
            {
              "pitch": 32,
              "velocity": 60,
              "position": 13.3125,
              "duration": 0.17708333333333334
            },
            {
              "pitch": 31,
              "velocity": 64,
              "position": 13.5,
              "duration": 1.4895833333333333
            }
          ]
        },
        "2": {
          "ctab": {
            "srcChannel": 2,
            "name": "Gtr",
            "accType": "CHORD1",
            "editable": false,
            "mutedNotes": [],
            "mutedChords": [
              "1+2+5",
              "sus4",
              "1+5",
              "1+8",
              "7aug",
              "Maj7aug",
              "7(#9)",
              "7(b13)",
              "7(b9)",
              "7(13)",
              "7#11",
              "7(9)",
              "7b5",
              "7sus4",
              "7th",
              "aug",
              "Maj6(9)",
              "Maj7(9)",
              "Maj(9)",
              "Maj7#11",
              "Maj7",
              "Maj6",
              "Maj"
            ],
            "autoStart": false,
            "sourceChordNote": 0,
            "sourceChordType": "min",
            "ctb2Low": null,
            "ctb2Main": {
              "ntr": "ROOT_TRANSPOSITION",
              "ntt": "BYPASS",
              "bassOn": false,
              "chordRootUpperLimit": 5,
              "noteLowLimit": 59,
              "noteHighLimit": 70,
              "rtr": "PITCH_SHIFT"
            },
            "ctb2High": null
          },
          "notes": [
            {
              "pitch": 99,
              "velocity": 73,
              "position": 7.802083333333333,
              "duration": 0.10416666666666667
            },
            {
              "pitch": 108,
              "velocity": 98,
              "position": 8,
              "duration": 0.10416666666666667
            },
            {
              "pitch": 63,
              "velocity": 54,
              "position": 8,
              "duration": 0.28125
            },
            {
              "pitch": 67,
              "velocity": 54,
              "position": 8,
              "duration": 0.28125
            },
            {
              "pitch": 60,
              "velocity": 54,
              "position": 8,
              "duration": 0.28125
            },
            {
              "pitch": 101,
              "velocity": 75,
              "position": 8.291666666666666,
              "duration": 0.10416666666666667
            },
            {
              "pitch": 63,
              "velocity": 40,
              "position": 8.291666666666666,
              "duration": 0.1875
            },
            {
              "pitch": 67,
              "velocity": 40,
              "position": 8.291666666666666,
              "duration": 0.1875
            },
            {
              "pitch": 60,
              "velocity": 40,
              "position": 8.291666666666666,
              "duration": 0.1875
            },
            {
              "pitch": 100,
              "velocity": 90,
              "position": 8.489583333333334,
              "duration": 0.10416666666666667
            },
            {
              "pitch": 63,
              "velocity": 52,
              "position": 8.489583333333334,
              "duration": 0.2916666666666667
            },
            {
              "pitch": 67,
              "velocity": 52,
              "position": 8.489583333333334,
              "duration": 0.2916666666666667
            },
            {
              "pitch": 60,
              "velocity": 52,
              "position": 8.489583333333334,
              "duration": 0.2916666666666667
            },
            {
              "pitch": 60,
              "velocity": 50,
              "position": 8.791666666666666,
              "duration": 0.10416666666666667
            },
            {
              "pitch": 99,
              "velocity": 94,
              "position": 8.791666666666666,
              "duration": 0.10416666666666667
            },
            {
              "pitch": 67,
              "velocity": 50,
              "position": 8.791666666666666,
              "duration": 0.10416666666666667
            },
            {
              "pitch": 63,
              "velocity": 50,
              "position": 8.791666666666666,
              "duration": 0.10416666666666667
            },
            {
              "pitch": 60,
              "velocity": 66,
              "position": 9.291666666666666,
              "duration": 0.052083333333333336
            },
            {
              "pitch": 63,
              "velocity": 66,
              "position": 9.291666666666666,
              "duration": 0.052083333333333336
            },
            {
              "pitch": 67,
              "velocity": 66,
              "position": 9.291666666666666,
              "duration": 0.052083333333333336
            },
            {
              "pitch": 97,
              "velocity": 75,
              "position": 9.291666666666666,
              "duration": 0.10416666666666667
            },
            {
              "pitch": 108,
              "velocity": 98,
              "position": 9.5,
              "duration": 0.10416666666666667
            },
            {
              "pitch": 61,
              "velocity": 116,
              "position": 9.489583333333334,
              "duration": 0.29375
            },
            {
              "pitch": 67,
              "velocity": 116,
              "position": 9.489583333333334,
              "duration": 0.29375
            },
            {
              "pitch": 58,
              "velocity": 116,
              "position": 9.489583333333334,
              "duration": 0.29375
            },
            {
              "pitch": 101,
              "velocity": 75,
              "position": 9.791666666666666,
              "duration": 0.10416666666666667
            },
            {
              "pitch": 61,
              "velocity": 40,
              "position": 9.791666666666666,
              "duration": 0.1875
            },
            {
              "pitch": 67,
              "velocity": 40,
              "position": 9.791666666666666,
              "duration": 0.1875
            },
            {
              "pitch": 58,
              "velocity": 40,
              "position": 9.791666666666666,
              "duration": 0.1875
            },
            {
              "pitch": 100,
              "velocity": 90,
              "position": 9.989583333333334,
              "duration": 0.10416666666666667
            },
            {
              "pitch": 61,
              "velocity": 52,
              "position": 9.989583333333334,
              "duration": 0.2916666666666667
            },
            {
              "pitch": 67,
              "velocity": 52,
              "position": 9.989583333333334,
              "duration": 0.2916666666666667
            },
            {
              "pitch": 58,
              "velocity": 52,
              "position": 9.989583333333334,
              "duration": 0.2916666666666667
            },
            {
              "pitch": 58,
              "velocity": 58,
              "position": 10.291666666666666,
              "duration": 0.10416666666666667
            },
            {
              "pitch": 99,
              "velocity": 94,
              "position": 10.291666666666666,
              "duration": 0.10416666666666667
            },
            {
              "pitch": 67,
              "velocity": 58,
              "position": 10.291666666666666,
              "duration": 0.10416666666666667
            },
            {
              "pitch": 61,
              "velocity": 58,
              "position": 10.291666666666666,
              "duration": 0.10416666666666667
            },
            {
              "pitch": 58,
              "velocity": 70,
              "position": 10.489583333333334,
              "duration": 0.0625
            },
            {
              "pitch": 67,
              "velocity": 70,
              "position": 10.489583333333334,
              "duration": 0.0625
            },
            {
              "pitch": 61,
              "velocity": 70,
              "position": 10.489583333333334,
              "duration": 0.0625
            },
            {
              "pitch": 58,
              "velocity": 64,
              "position": 10.791666666666666,
              "duration": 0.052083333333333336
            },
            {
              "pitch": 61,
              "velocity": 64,
              "position": 10.791666666666666,
              "duration": 0.052083333333333336
            },
            {
              "pitch": 67,
              "velocity": 64,
              "position": 10.791666666666666,
              "duration": 0.052083333333333336
            },
            {
              "pitch": 97,
              "velocity": 73,
              "position": 10.791666666666666,
              "duration": 0.10416666666666667
            },
            {
              "pitch": 108,
              "velocity": 98,
              "position": 11,
              "duration": 0.10416666666666667
            },
            {
              "pitch": 61,
              "velocity": 58,
              "position": 10.989583333333334,
              "duration": 0.2916666666666667
            },
            {
              "pitch": 67,
              "velocity": 58,
              "position": 10.989583333333334,
              "duration": 0.2916666666666667
            },
            {
              "pitch": 58,
              "velocity": 58,
              "position": 10.989583333333334,
              "duration": 0.2916666666666667
            },
            {
              "pitch": 101,
              "velocity": 75,
              "position": 11.291666666666666,
              "duration": 0.10416666666666667
            },
            {
              "pitch": 61,
              "velocity": 44,
              "position": 11.291666666666666,
              "duration": 0.1875
            },
            {
              "pitch": 67,
              "velocity": 44,
              "position": 11.291666666666666,
              "duration": 0.1875
            },
            {
              "pitch": 58,
              "velocity": 44,
              "position": 11.291666666666666,
              "duration": 0.1875
            },
            {
              "pitch": 58,
              "velocity": 53,
              "position": 11.489583333333334,
              "duration": 0.09375
            },
            {
              "pitch": 61,
              "velocity": 53,
              "position": 11.489583333333334,
              "duration": 0.09375
            },
            {
              "pitch": 67,
              "velocity": 53,
              "position": 11.489583333333334,
              "duration": 0.09375
            },
            {
              "pitch": 100,
              "velocity": 90,
              "position": 11.489583333333334,
              "duration": 0.10416666666666667
            },
            {
              "pitch": 123,
              "velocity": 80,
              "position": 11.625,
              "duration": 0.20833333333333334
            },
            {
              "pitch": 99,
              "velocity": 73,
              "position": 11.791666666666666,
              "duration": 0.10416666666666667
            },
            {
              "pitch": 67,
              "velocity": 39,
              "position": 11.791666666666666,
              "duration": 0.1875
            },
            {
              "pitch": 61,
              "velocity": 39,
              "position": 11.791666666666666,
              "duration": 0.1875
            },
            {
              "pitch": 58,
              "velocity": 39,
              "position": 11.791666666666666,
              "duration": 0.1875
            },
            {
              "pitch": 108,
              "velocity": 106,
              "position": 12,
              "duration": 0.10416666666666667
            },
            {
              "pitch": 70,
              "velocity": 58,
              "position": 12.002083333333333,
              "duration": 0.28125
            },
            {
              "pitch": 63,
              "velocity": 58,
              "position": 12.002083333333333,
              "duration": 0.28125
            },
            {
              "pitch": 60,
              "velocity": 58,
              "position": 12.002083333333333,
              "duration": 0.28125
            },
            {
              "pitch": 101,
              "velocity": 56,
              "position": 12.291666666666666,
              "duration": 0.10416666666666667
            },
            {
              "pitch": 70,
              "velocity": 38,
              "position": 12.304166666666667,
              "duration": 0.1875
            },
            {
              "pitch": 60,
              "velocity": 38,
              "position": 12.304166666666667,
              "duration": 0.1875
            },
            {
              "pitch": 63,
              "velocity": 38,
              "position": 12.304166666666667,
              "duration": 0.1875
            },
            {
              "pitch": 100,
              "velocity": 60,
              "position": 12.489583333333334,
              "duration": 0.10416666666666667
            },
            {
              "pitch": 70,
              "velocity": 44,
              "position": 12.502083333333333,
              "duration": 0.2916666666666667
            },
            {
              "pitch": 60,
              "velocity": 44,
              "position": 12.502083333333333,
              "duration": 0.2916666666666667
            },
            {
              "pitch": 63,
              "velocity": 44,
              "position": 12.502083333333333,
              "duration": 0.2916666666666667
            },
            {
              "pitch": 99,
              "velocity": 110,
              "position": 12.791666666666666,
              "duration": 0.10416666666666667
            },
            {
              "pitch": 70,
              "velocity": 55,
              "position": 12.804166666666667,
              "duration": 0.15625
            },
            {
              "pitch": 63,
              "velocity": 55,
              "position": 12.804166666666667,
              "duration": 0.15625
            },
            {
              "pitch": 60,
              "velocity": 55,
              "position": 12.804166666666667,
              "duration": 0.15625
            },
            {
              "pitch": 59,
              "velocity": 80,
              "position": 13.291666666666666,
              "duration": 0.041666666666666664
            },
            {
              "pitch": 68,
              "velocity": 80,
              "position": 13.291666666666666,
              "duration": 0.041666666666666664
            },
            {
              "pitch": 63,
              "velocity": 80,
              "position": 13.291666666666666,
              "duration": 0.041666666666666664
            },
            {
              "pitch": 99,
              "velocity": 69,
              "position": 13.291666666666666,
              "duration": 0.10416666666666667
            },
            {
              "pitch": 125,
              "velocity": 90,
              "position": 13.25,
              "duration": 0.20833333333333334
            },
            {
              "pitch": 100,
              "velocity": 91,
              "position": 13.489583333333334,
              "duration": 0.10416666666666667
            },
            {
              "pitch": 59,
              "velocity": 58,
              "position": 13.5,
              "duration": 1.4791666666666667
            },
            {
              "pitch": 63,
              "velocity": 58,
              "position": 13.510416666666666,
              "duration": 1.4791666666666667
            },
            {
              "pitch": 67,
              "velocity": 58,
              "position": 13.520833333333334,
              "duration": 1.4791666666666667
            }
          ]
        },
        "3": {
          "ctab": {
            "srcChannel": 3,
            "name": "EP",
            "accType": "CHORD2",
            "editable": false,
            "mutedNotes": [],
            "mutedChords": [
              "1+2+5",
              "sus4",
              "1+5",
              "1+8",
              "7aug",
              "Maj7aug",
              "7(#9)",
              "7(b13)",
              "7(b9)",
              "7(13)",
              "7#11",
              "7(9)",
              "7b5",
              "7sus4",
              "7th",
              "aug",
              "Maj6(9)",
              "Maj7(9)",
              "Maj(9)",
              "Maj7#11",
              "Maj7",
              "Maj6",
              "Maj"
            ],
            "autoStart": false,
            "sourceChordNote": 0,
            "sourceChordType": "min",
            "ctb2Low": null,
            "ctb2Main": {
              "ntr": "ROOT_TRANSPOSITION",
              "ntt": "BYPASS",
              "bassOn": false,
              "chordRootUpperLimit": 10,
              "noteLowLimit": 0,
              "noteHighLimit": 79,
              "rtr": "PITCH_SHIFT"
            },
            "ctb2High": null
          },
          "notes": [
            {
              "pitch": 55,
              "velocity": 76,
              "position": 0,
              "duration": 0.925
            },
            {
              "pitch": 66,
              "velocity": 94,
              "position": 0.9354166666666667,
              "duration": 0.10208333333333333
            },
            {
              "pitch": 65,
              "velocity": 89,
              "position": 0.9166666666666666,
              "duration": 0.1375
            },
            {
              "pitch": 62,
              "velocity": 64,
              "position": 0,
              "duration": 1.1125
            },
            {
              "pitch": 51,
              "velocity": 73,
              "position": 0,
              "duration": 1.1166666666666667
            },
            {
              "pitch": 60,
              "velocity": 88,
              "position": 0.8083333333333333,
              "duration": 0.32916666666666666
            },
            {
              "pitch": 67,
              "velocity": 90,
              "position": 1.0291666666666666,
              "duration": 0.25416666666666665
            },
            {
              "pitch": 70,
              "velocity": 106,
              "position": 1.3375,
              "duration": 0.23125
            },
            {
              "pitch": 72,
              "velocity": 104,
              "position": 1.5395833333333333,
              "duration": 0.18958333333333333
            },
            {
              "pitch": 51,
              "velocity": 62,
              "position": 1.8083333333333333,
              "duration": 0.19166666666666668
            },
            {
              "pitch": 61,
              "velocity": 81,
              "position": 1.8083333333333333,
              "duration": 0.19166666666666668
            },
            {
              "pitch": 58,
              "velocity": 79,
              "position": 1.8083333333333333,
              "duration": 0.19166666666666668
            },
            {
              "pitch": 75,
              "velocity": 113,
              "position": 2.0458333333333334,
              "duration": 0.2916666666666667
            },
            {
              "pitch": 77,
              "velocity": 102,
              "position": 2.502083333333333,
              "duration": 0.23541666666666666
            },
            {
              "pitch": 77,
              "velocity": 66,
              "position": 3.1708333333333334,
              "duration": 0.075
            },
            {
              "pitch": 78,
              "velocity": 104,
              "position": 3.0375,
              "duration": 0.23541666666666666
            },
            {
              "pitch": 55,
              "velocity": 64,
              "position": 3,
              "duration": 0.30833333333333335
            },
            {
              "pitch": 61,
              "velocity": 88,
              "position": 3,
              "duration": 0.30833333333333335
            },
            {
              "pitch": 65,
              "velocity": 63,
              "position": 3,
              "duration": 0.30833333333333335
            },
            {
              "pitch": 79,
              "velocity": 97,
              "position": 3.222916666666667,
              "duration": 0.175
            },
            {
              "pitch": 82,
              "velocity": 106,
              "position": 3.4583333333333335,
              "duration": 0.2375
            },
            {
              "pitch": 77,
              "velocity": 70,
              "position": 3.814583333333333,
              "duration": 0.17708333333333334
            },
            {
              "pitch": 78,
              "velocity": 80,
              "position": 3.86875,
              "duration": 0.12708333333333333
            },
            {
              "pitch": 63,
              "velocity": 76,
              "position": 3.808333333333333,
              "duration": 0.9354166666666667
            },
            {
              "pitch": 79,
              "velocity": 92,
              "position": 4.014583333333333,
              "duration": 1.0229166666666667
            },
            {
              "pitch": 67,
              "velocity": 81,
              "position": 3.808333333333333,
              "duration": 1.3625
            },
            {
              "pitch": 60,
              "velocity": 73,
              "position": 3.808333333333333,
              "duration": 1.41875
            },
            {
              "pitch": 56,
              "velocity": 73,
              "position": 3.808333333333333,
              "duration": 1.50625
            },
            {
              "pitch": 70,
              "velocity": 102,
              "position": 5.370833333333334,
              "duration": 0.13958333333333334
            },
            {
              "pitch": 72,
              "velocity": 72,
              "position": 5.53125,
              "duration": 0.125
            },
            {
              "pitch": 75,
              "velocity": 78,
              "position": 5.7125,
              "duration": 0.18958333333333333
            },
            {
              "pitch": 77,
              "velocity": 96,
              "position": 5.833333333333333,
              "duration": 0.16666666666666666
            },
            {
              "pitch": 78,
              "velocity": 104,
              "position": 6.052083333333333,
              "duration": 0.058333333333333334
            },
            {
              "pitch": 79,
              "velocity": 127,
              "position": 6.041666666666667,
              "duration": 0.2916666666666667
            },
            {
              "pitch": 59,
              "velocity": 60,
              "position": 6,
              "duration": 0.6916666666666667
            },
            {
              "pitch": 53,
              "velocity": 73,
              "position": 6,
              "duration": 0.6916666666666667
            },
            {
              "pitch": 63,
              "velocity": 97,
              "position": 6,
              "duration": 0.6916666666666667
            },
            {
              "pitch": 77,
              "velocity": 102,
              "position": 6.597916666666666,
              "duration": 0.2375
            },
            {
              "pitch": 63,
              "velocity": 96,
              "position": 6.808333333333334,
              "duration": 0.19166666666666668
            },
            {
              "pitch": 59,
              "velocity": 96,
              "position": 6.808333333333334,
              "duration": 0.19166666666666668
            },
            {
              "pitch": 53,
              "velocity": 96,
              "position": 6.808333333333334,
              "duration": 0.19166666666666668
            },
            {
              "pitch": 75,
              "velocity": 115,
              "position": 7.104166666666667,
              "duration": 0.28541666666666665
            },
            {
              "pitch": 63,
              "velocity": 66,
              "position": 7.4,
              "duration": 0.07083333333333333
            },
            {
              "pitch": 76,
              "velocity": 79,
              "position": 7.5,
              "duration": 0.06041666666666667
            },
            {
              "pitch": 77,
              "velocity": 92,
              "position": 7.58125,
              "duration": 0.2125
            },
            {
              "pitch": 74,
              "velocity": 89,
              "position": 7.925,
              "duration": 0.5291666666666667
            },
            {
              "pitch": 75,
              "velocity": 115,
              "position": 8.35,
              "duration": 0.16458333333333333
            },
            {
              "pitch": 74,
              "velocity": 97,
              "position": 8.541666666666666,
              "duration": 0.19166666666666668
            },
            {
              "pitch": 51,
              "velocity": 81,
              "position": 8,
              "duration": 1.04375
            },
            {
              "pitch": 55,
              "velocity": 81,
              "position": 8,
              "duration": 1.0708333333333333
            },
            {
              "pitch": 62,
              "velocity": 85,
              "position": 8,
              "duration": 1.0770833333333334
            },
            {
              "pitch": 72,
              "velocity": 106,
              "position": 9.041666666666666,
              "duration": 0.18958333333333333
            },
            {
              "pitch": 58,
              "velocity": 92,
              "position": 8,
              "duration": 1.2520833333333334
            },
            {
              "pitch": 67,
              "velocity": 102,
              "position": 9.35,
              "duration": 0.20416666666666666
            },
            {
              "pitch": 63,
              "velocity": 72,
              "position": 9.541666666666666,
              "duration": 0.24791666666666667
            },
            {
              "pitch": 51,
              "velocity": 63,
              "position": 9.808333333333334,
              "duration": 0.19166666666666668
            },
            {
              "pitch": 61,
              "velocity": 106,
              "position": 9.808333333333334,
              "duration": 0.19166666666666668
            },
            {
              "pitch": 58,
              "velocity": 97,
              "position": 9.808333333333334,
              "duration": 0.19166666666666668
            },
            {
              "pitch": 70,
              "velocity": 113,
              "position": 10.041666666666666,
              "duration": 0.23958333333333334
            },
            {
              "pitch": 66,
              "velocity": 102,
              "position": 10.34375,
              "duration": 0.21666666666666667
            },
            {
              "pitch": 67,
              "velocity": 92,
              "position": 10.570833333333333,
              "duration": 0.19583333333333333
            },
            {
              "pitch": 68,
              "velocity": 113,
              "position": 10.8625,
              "duration": 0.19166666666666668
            },
            {
              "pitch": 70,
              "velocity": 113,
              "position": 11.0875,
              "duration": 0.20625
            },
            {
              "pitch": 61,
              "velocity": 95,
              "position": 11.345833333333333,
              "duration": 0.15208333333333332
            },
            {
              "pitch": 51,
              "velocity": 78,
              "position": 11.366666666666667,
              "duration": 0.22916666666666666
            },
            {
              "pitch": 72,
              "velocity": 94,
              "position": 11.389583333333333,
              "duration": 0.22916666666666666
            },
            {
              "pitch": 65,
              "velocity": 64,
              "position": 11.572916666666666,
              "duration": 0.12083333333333333
            },
            {
              "pitch": 66,
              "velocity": 94,
              "position": 11.6,
              "duration": 0.15208333333333332
            },
            {
              "pitch": 67,
              "velocity": 84,
              "position": 11.75625,
              "duration": 0.1375
            },
            {
              "pitch": 65,
              "velocity": 38,
              "position": 11.997916666666667,
              "duration": 0.08541666666666667
            },
            {
              "pitch": 55,
              "velocity": 78,
              "position": 12,
              "duration": 0.25416666666666665
            },
            {
              "pitch": 51,
              "velocity": 92,
              "position": 12,
              "duration": 0.29791666666666666
            },
            {
              "pitch": 56,
              "velocity": 90,
              "position": 12,
              "duration": 0.3375
            },
            {
              "pitch": 60,
              "velocity": 94,
              "position": 12,
              "duration": 0.35208333333333336
            },
            {
              "pitch": 63,
              "velocity": 113,
              "position": 12,
              "duration": 0.3645833333333333
            },
            {
              "pitch": 51,
              "velocity": 95,
              "position": 12.808333333333334,
              "duration": 0.19166666666666668
            },
            {
              "pitch": 55,
              "velocity": 79,
              "position": 12.808333333333334,
              "duration": 0.19166666666666668
            },
            {
              "pitch": 66,
              "velocity": 55,
              "position": 12.808333333333334,
              "duration": 0.19166666666666668
            },
            {
              "pitch": 60,
              "velocity": 99,
              "position": 12.808333333333334,
              "duration": 0.19166666666666668
            },
            {
              "pitch": 56,
              "velocity": 79,
              "position": 12.808333333333334,
              "duration": 0.19166666666666668
            },
            {
              "pitch": 67,
              "velocity": 106,
              "position": 12.9625,
              "duration": 0.2708333333333333
            },
            {
              "pitch": 63,
              "velocity": 88,
              "position": 13.5,
              "duration": 2.28125
            },
            {
              "pitch": 59,
              "velocity": 88,
              "position": 13.5,
              "duration": 2.310416666666667
            },
            {
              "pitch": 65,
              "velocity": 113,
              "position": 13.5,
              "duration": 2.341666666666667
            },
            {
              "pitch": 55,
              "velocity": 88,
              "position": 13.5,
              "duration": 2.347916666666667
            }
          ]
        },
        "4": {
          "ctab": {
            "srcChannel": 4,
            "name": "Pad",
            "accType": "PAD",
            "editable": false,
            "mutedNotes": [],
            "mutedChords": [
              "1+2+5",
              "sus4",
              "1+5",
              "1+8",
              "7aug",
              "Maj7aug",
              "7(#9)",
              "7(b13)",
              "7(b9)",
              "7(13)",
              "7#11",
              "7(9)",
              "7b5",
              "7sus4",
              "7th",
              "aug",
              "Maj6(9)",
              "Maj7(9)",
              "Maj(9)",
              "Maj7#11",
              "Maj7",
              "Maj6",
              "Maj"
            ],
            "autoStart": false,
            "sourceChordNote": 0,
            "sourceChordType": "min",
            "ctb2Low": null,
            "ctb2Main": {
              "ntr": "ROOT_TRANSPOSITION",
              "ntt": "BYPASS",
              "bassOn": false,
              "chordRootUpperLimit": 5,
              "noteLowLimit": 0,
              "noteHighLimit": 127,
              "rtr": "PITCH_SHIFT"
            },
            "ctb2High": null
          },
          "notes": [
            {
              "pitch": 67,
              "velocity": 84,
              "position": 1,
              "duration": 14
            },
            {
              "pitch": 79,
              "velocity": 88,
              "position": 8,
              "duration": 7
            }
          ]
        },
        "5": {
          "ctab": {
            "srcChannel": 5,
            "name": "Mute",
            "accType": "PHRASE1",
            "editable": false,
            "mutedNotes": [],
            "mutedChords": [
              "1+2+5",
              "sus4",
              "1+5",
              "1+8",
              "7aug",
              "Maj7aug",
              "7(#9)",
              "7(b13)",
              "7(b9)",
              "7(13)",
              "7#11",
              "7(9)",
              "7b5",
              "7sus4",
              "7th",
              "aug",
              "Maj6(9)",
              "Maj7(9)",
              "Maj(9)",
              "Maj7#11",
              "Maj7",
              "Maj6",
              "Maj"
            ],
            "autoStart": false,
            "sourceChordNote": 0,
            "sourceChordType": "min",
            "ctb2Low": null,
            "ctb2Main": {
              "ntr": "ROOT_TRANSPOSITION",
              "ntt": "BYPASS",
              "bassOn": false,
              "chordRootUpperLimit": 11,
              "noteLowLimit": 52,
              "noteHighLimit": 71,
              "rtr": "PITCH_SHIFT"
            },
            "ctb2High": null
          },
          "notes": [
            {
              "pitch": 36,
              "velocity": 85,
              "position": 0,
              "duration": 0.78125
            },
            {
              "pitch": 53,
              "velocity": 85,
              "position": 0.8083333333333333,
              "duration": 0.10416666666666667
            },
            {
              "pitch": 55,
              "velocity": 116,
              "position": 1,
              "duration": 0.5
            },
            {
              "pitch": 58,
              "velocity": 40,
              "position": 1.5,
              "duration": 0.30833333333333335
            },
            {
              "pitch": 39,
              "velocity": 85,
              "position": 2,
              "duration": 0.78125
            },
            {
              "pitch": 43,
              "velocity": 85,
              "position": 2.808333333333333,
              "duration": 0.10416666666666667
            },
            {
              "pitch": 96,
              "velocity": 88,
              "position": 4,
              "duration": 0.30833333333333335
            },
            {
              "pitch": 55,
              "velocity": 34,
              "position": 4.010416666666667,
              "duration": 0.6916666666666667
            },
            {
              "pitch": 60,
              "velocity": 34,
              "position": 4.020833333333333,
              "duration": 0.6916666666666667
            },
            {
              "pitch": 63,
              "velocity": 34,
              "position": 4.03125,
              "duration": 0.6916666666666667
            },
            {
              "pitch": 32,
              "velocity": 34,
              "position": 4,
              "duration": 0.78125
            },
            {
              "pitch": 63,
              "velocity": 34,
              "position": 4.808333333333334,
              "duration": 0.19166666666666668
            },
            {
              "pitch": 97,
              "velocity": 88,
              "position": 4.808333333333334,
              "duration": 0.19166666666666668
            },
            {
              "pitch": 32,
              "velocity": 34,
              "position": 4.839583333333334,
              "duration": 0.16666666666666666
            },
            {
              "pitch": 60,
              "velocity": 34,
              "position": 4.81875,
              "duration": 0.19166666666666668
            },
            {
              "pitch": 55,
              "velocity": 34,
              "position": 4.829166666666667,
              "duration": 0.19166666666666668
            },
            {
              "pitch": 99,
              "velocity": 88,
              "position": 5.308333333333334,
              "duration": 0.19166666666666668
            },
            {
              "pitch": 98,
              "velocity": 88,
              "position": 5.5,
              "duration": 0.30833333333333335
            },
            {
              "pitch": 67,
              "velocity": 34,
              "position": 5.53125,
              "duration": 1.2666666666666666
            },
            {
              "pitch": 63,
              "velocity": 34,
              "position": 5.520833333333333,
              "duration": 1.2770833333333333
            },
            {
              "pitch": 59,
              "velocity": 34,
              "position": 5.510416666666667,
              "duration": 1.2875
            },
            {
              "pitch": 31,
              "velocity": 34,
              "position": 5.5,
              "duration": 1.3083333333333333
            },
            {
              "pitch": 67,
              "velocity": 34,
              "position": 6.808333333333334,
              "duration": 0.19166666666666668
            },
            {
              "pitch": 31,
              "velocity": 34,
              "position": 6.839583333333334,
              "duration": 0.16041666666666668
            },
            {
              "pitch": 59,
              "velocity": 34,
              "position": 6.829166666666667,
              "duration": 0.17083333333333334
            },
            {
              "pitch": 63,
              "velocity": 34,
              "position": 6.81875,
              "duration": 0.18125
            },
            {
              "pitch": 101,
              "velocity": 88,
              "position": 6.808333333333334,
              "duration": 0.19166666666666668
            },
            {
              "pitch": 31,
              "velocity": 34,
              "position": 7,
              "duration": 0.18125
            },
            {
              "pitch": 67,
              "velocity": 34,
              "position": 7.03125,
              "duration": 0.15
            },
            {
              "pitch": 63,
              "velocity": 34,
              "position": 7.020833333333333,
              "duration": 0.16041666666666668
            },
            {
              "pitch": 59,
              "velocity": 34,
              "position": 7.010416666666667,
              "duration": 0.17083333333333334
            },
            {
              "pitch": 98,
              "velocity": 88,
              "position": 7,
              "duration": 0.30833333333333335
            },
            {
              "pitch": 31,
              "velocity": 34,
              "position": 7.5,
              "duration": 0.18125
            },
            {
              "pitch": 67,
              "velocity": 34,
              "position": 7.53125,
              "duration": 0.15
            },
            {
              "pitch": 63,
              "velocity": 34,
              "position": 7.520833333333333,
              "duration": 0.16041666666666668
            },
            {
              "pitch": 59,
              "velocity": 34,
              "position": 7.510416666666667,
              "duration": 0.17083333333333334
            },
            {
              "pitch": 100,
              "velocity": 88,
              "position": 7.5,
              "duration": 0.30833333333333335
            },
            {
              "pitch": 96,
              "velocity": 88,
              "position": 8,
              "duration": 0.30833333333333335
            },
            {
              "pitch": 67,
              "velocity": 34,
              "position": 8.020833333333334,
              "duration": 0.775
            },
            {
              "pitch": 63,
              "velocity": 34,
              "position": 8.010416666666666,
              "duration": 0.7854166666666667
            },
            {
              "pitch": 58,
              "velocity": 34,
              "position": 8,
              "duration": 0.7958333333333333
            },
            {
              "pitch": 58,
              "velocity": 85,
              "position": 8.808333333333334,
              "duration": 0.10416666666666667
            },
            {
              "pitch": 60,
              "velocity": 88,
              "position": 9,
              "duration": 0.30833333333333335
            },
            {
              "pitch": 55,
              "velocity": 88,
              "position": 9.308333333333334,
              "duration": 0.19166666666666668
            },
            {
              "pitch": 63,
              "velocity": 88,
              "position": 9.5,
              "duration": 0.30833333333333335
            },
            {
              "pitch": 58,
              "velocity": 85,
              "position": 10,
              "duration": 0.30833333333333335
            },
            {
              "pitch": 54,
              "velocity": 88,
              "position": 10.308333333333334,
              "duration": 0.19166666666666668
            },
            {
              "pitch": 55,
              "velocity": 88,
              "position": 10.5,
              "duration": 0.30833333333333335
            },
            {
              "pitch": 56,
              "velocity": 85,
              "position": 10.808333333333334,
              "duration": 0.10416666666666667
            },
            {
              "pitch": 58,
              "velocity": 116,
              "position": 11,
              "duration": 0.5
            },
            {
              "pitch": 55,
              "velocity": 32,
              "position": 11.5,
              "duration": 0.5
            },
            {
              "pitch": 98,
              "velocity": 88,
              "position": 12,
              "duration": 0.30833333333333335
            },
            {
              "pitch": 55,
              "velocity": 34,
              "position": 12.010416666666666,
              "duration": 0.6916666666666667
            },
            {
              "pitch": 60,
              "velocity": 34,
              "position": 12.020833333333334,
              "duration": 0.6916666666666667
            },
            {
              "pitch": 63,
              "velocity": 34,
              "position": 12.03125,
              "duration": 0.6916666666666667
            },
            {
              "pitch": 32,
              "velocity": 34,
              "position": 12,
              "duration": 0.78125
            },
            {
              "pitch": 100,
              "velocity": 36,
              "position": 12.5,
              "duration": 0.30833333333333335
            },
            {
              "pitch": 63,
              "velocity": 34,
              "position": 12.808333333333334,
              "duration": 0.19166666666666668
            },
            {
              "pitch": 99,
              "velocity": 88,
              "position": 12.808333333333334,
              "duration": 0.19166666666666668
            },
            {
              "pitch": 32,
              "velocity": 34,
              "position": 12.839583333333334,
              "duration": 0.16666666666666666
            },
            {
              "pitch": 60,
              "velocity": 34,
              "position": 12.81875,
              "duration": 0.19166666666666668
            },
            {
              "pitch": 55,
              "velocity": 34,
              "position": 12.829166666666667,
              "duration": 0.19166666666666668
            },
            {
              "pitch": 99,
              "velocity": 88,
              "position": 13.308333333333334,
              "duration": 0.19166666666666668
            },
            {
              "pitch": 98,
              "velocity": 88,
              "position": 13.5,
              "duration": 0.30833333333333335
            },
            {
              "pitch": 31,
              "velocity": 34,
              "position": 13.5,
              "duration": 1.3083333333333333
            },
            {
              "pitch": 59,
              "velocity": 34,
              "position": 13.520833333333334,
              "duration": 1.5854166666666667
            },
            {
              "pitch": 55,
              "velocity": 34,
              "position": 13.510416666666666,
              "duration": 1.5958333333333334
            },
            {
              "pitch": 65,
              "velocity": 34,
              "position": 13.53125,
              "duration": 1.575
            }
          ]
        },
        "8": {
          "ctab": {
            "srcChannel": 8,
            "name": "Rhyth1",
            "accType": "SUBRHYTHM",
            "editable": false,
            "mutedNotes": [],
            "mutedChords": [],
            "autoStart": true,
            "sourceChordNote": 0,
            "sourceChordType": "Maj7",
            "ctb2Low": null,
            "ctb2Main": {
              "ntr": "ROOT_FIXED",
              "ntt": "BYPASS",
              "bassOn": false,
              "chordRootUpperLimit": 6,
              "noteLowLimit": 0,
              "noteHighLimit": 127,
              "rtr": "PITCH_SHIFT"
            },
            "ctb2High": null
          },
          "notes": [
            {
              "pitch": 54,
              "velocity": 12,
              "position": 0,
              "duration": 0.010416666666666666
            },
            {
              "pitch": 54,
              "velocity": 72,
              "position": 0.5,
              "duration": 0.010416666666666666
            },
            {
              "pitch": 54,
              "velocity": 72,
              "position": 1.5,
              "duration": 0.010416666666666666
            },
            {
              "pitch": 54,
              "velocity": 72,
              "position": 2.5,
              "duration": 0.010416666666666666
            },
            {
              "pitch": 54,
              "velocity": 72,
              "position": 3.5,
              "duration": 0.010416666666666666
            },
            {
              "pitch": 54,
              "velocity": 12,
              "position": 4,
              "duration": 0.010416666666666666
            },
            {
              "pitch": 54,
              "velocity": 72,
              "position": 4.5,
              "duration": 0.010416666666666666
            },
            {
              "pitch": 54,
              "velocity": 72,
              "position": 5.5,
              "duration": 0.010416666666666666
            },
            {
              "pitch": 54,
              "velocity": 72,
              "position": 6.5,
              "duration": 0.010416666666666666
            },
            {
              "pitch": 54,
              "velocity": 72,
              "position": 7.5,
              "duration": 0.010416666666666666
            },
            {
              "pitch": 54,
              "velocity": 12,
              "position": 8,
              "duration": 0.010416666666666666
            },
            {
              "pitch": 54,
              "velocity": 72,
              "position": 8.5,
              "duration": 0.010416666666666666
            },
            {
              "pitch": 54,
              "velocity": 72,
              "position": 9.5,
              "duration": 0.010416666666666666
            },
            {
              "pitch": 54,
              "velocity": 72,
              "position": 10.5,
              "duration": 0.010416666666666666
            },
            {
              "pitch": 54,
              "velocity": 72,
              "position": 11.5,
              "duration": 0.010416666666666666
            },
            {
              "pitch": 54,
              "velocity": 72,
              "position": 12,
              "duration": 0.010416666666666666
            }
          ]
        },
        "9": {
          "ctab": {
            "srcChannel": 9,
            "name": "Rhyth2",
            "accType": "RHYTHM",
            "editable": false,
            "mutedNotes": [],
            "mutedChords": [],
            "autoStart": true,
            "sourceChordNote": 0,
            "sourceChordType": "Maj7",
            "ctb2Low": null,
            "ctb2Main": {
              "ntr": "ROOT_FIXED",
              "ntt": "BYPASS",
              "bassOn": false,
              "chordRootUpperLimit": 6,
              "noteLowLimit": 0,
              "noteHighLimit": 127,
              "rtr": "PITCH_SHIFT"
            },
            "ctb2High": null
          },
          "notes": [
            {
              "pitch": 36,
              "velocity": 99,
              "position": 0,
              "duration": 0.020833333333333332
            },
            {
              "pitch": 42,
              "velocity": 91,
              "position": 0,
              "duration": 0.020833333333333332
            },
            {
              "pitch": 42,
              "velocity": 42,
              "position": 0.5,
              "duration": 0.020833333333333332
            },
            {
              "pitch": 42,
              "velocity": 29,
              "position": 0.8125,
              "duration": 0.020833333333333332
            },
            {
              "pitch": 38,
              "velocity": 96,
              "position": 1,
              "duration": 0.020833333333333332
            },
            {
              "pitch": 42,
              "velocity": 123,
              "position": 1,
              "duration": 0.020833333333333332
            },
            {
              "pitch": 42,
              "velocity": 38,
              "position": 1.5,
              "duration": 0.020833333333333332
            },
            {
              "pitch": 36,
              "velocity": 42,
              "position": 1.8125,
              "duration": 0.020833333333333332
            },
            {
              "pitch": 36,
              "velocity": 85,
              "position": 2,
              "duration": 0.020833333333333332
            },
            {
              "pitch": 42,
              "velocity": 79,
              "position": 2,
              "duration": 0.020833333333333332
            },
            {
              "pitch": 42,
              "velocity": 46,
              "position": 2.5,
              "duration": 0.020833333333333332
            },
            {
              "pitch": 36,
              "velocity": 27,
              "position": 2.8125,
              "duration": 0.020833333333333332
            },
            {
              "pitch": 42,
              "velocity": 46,
              "position": 2.8125,
              "duration": 0.020833333333333332
            },
            {
              "pitch": 38,
              "velocity": 93,
              "position": 3,
              "duration": 0.020833333333333332
            },
            {
              "pitch": 42,
              "velocity": 119,
              "position": 3,
              "duration": 0.020833333333333332
            },
            {
              "pitch": 42,
              "velocity": 28,
              "position": 3.3020833333333335,
              "duration": 0.020833333333333332
            },
            {
              "pitch": 42,
              "velocity": 67,
              "position": 3.5,
              "duration": 0.020833333333333332
            },
            {
              "pitch": 46,
              "velocity": 83,
              "position": 3.8020833333333335,
              "duration": 0.020833333333333332
            },
            {
              "pitch": 36,
              "velocity": 99,
              "position": 4,
              "duration": 0.020833333333333332
            },
            {
              "pitch": 42,
              "velocity": 91,
              "position": 4,
              "duration": 0.020833333333333332
            },
            {
              "pitch": 42,
              "velocity": 42,
              "position": 4.5,
              "duration": 0.020833333333333332
            },
            {
              "pitch": 42,
              "velocity": 29,
              "position": 4.8125,
              "duration": 0.020833333333333332
            },
            {
              "pitch": 38,
              "velocity": 96,
              "position": 5,
              "duration": 0.020833333333333332
            },
            {
              "pitch": 42,
              "velocity": 123,
              "position": 5,
              "duration": 0.020833333333333332
            },
            {
              "pitch": 42,
              "velocity": 38,
              "position": 5.5,
              "duration": 0.020833333333333332
            },
            {
              "pitch": 36,
              "velocity": 42,
              "position": 5.8125,
              "duration": 0.020833333333333332
            },
            {
              "pitch": 36,
              "velocity": 85,
              "position": 6,
              "duration": 0.020833333333333332
            },
            {
              "pitch": 42,
              "velocity": 79,
              "position": 6,
              "duration": 0.020833333333333332
            },
            {
              "pitch": 42,
              "velocity": 46,
              "position": 6.5,
              "duration": 0.020833333333333332
            },
            {
              "pitch": 36,
              "velocity": 27,
              "position": 6.8125,
              "duration": 0.020833333333333332
            },
            {
              "pitch": 42,
              "velocity": 46,
              "position": 6.8125,
              "duration": 0.020833333333333332
            },
            {
              "pitch": 38,
              "velocity": 93,
              "position": 7,
              "duration": 0.020833333333333332
            },
            {
              "pitch": 42,
              "velocity": 119,
              "position": 7,
              "duration": 0.020833333333333332
            },
            {
              "pitch": 42,
              "velocity": 28,
              "position": 7.302083333333333,
              "duration": 0.020833333333333332
            },
            {
              "pitch": 42,
              "velocity": 67,
              "position": 7.5,
              "duration": 0.020833333333333332
            },
            {
              "pitch": 46,
              "velocity": 83,
              "position": 7.802083333333333,
              "duration": 0.020833333333333332
            },
            {
              "pitch": 38,
              "velocity": 88,
              "position": 7.808333333333334,
              "duration": 0.020833333333333332
            },
            {
              "pitch": 36,
              "velocity": 99,
              "position": 8,
              "duration": 0.020833333333333332
            },
            {
              "pitch": 49,
              "velocity": 70,
              "position": 8,
              "duration": 0.020833333333333332
            },
            {
              "pitch": 38,
              "velocity": 97,
              "position": 8.5,
              "duration": 0.020833333333333332
            },
            {
              "pitch": 42,
              "velocity": 42,
              "position": 8.5,
              "duration": 0.020833333333333332
            },
            {
              "pitch": 42,
              "velocity": 29,
              "position": 8.8125,
              "duration": 0.020833333333333332
            },
            {
              "pitch": 38,
              "velocity": 105,
              "position": 9,
              "duration": 0.020833333333333332
            },
            {
              "pitch": 42,
              "velocity": 123,
              "position": 9,
              "duration": 0.020833333333333332
            },
            {
              "pitch": 42,
              "velocity": 38,
              "position": 9.5,
              "duration": 0.020833333333333332
            },
            {
              "pitch": 36,
              "velocity": 42,
              "position": 9.8125,
              "duration": 0.020833333333333332
            },
            {
              "pitch": 36,
              "velocity": 85,
              "position": 10,
              "duration": 0.020833333333333332
            },
            {
              "pitch": 42,
              "velocity": 79,
              "position": 10,
              "duration": 0.020833333333333332
            },
            {
              "pitch": 42,
              "velocity": 46,
              "position": 10.5,
              "duration": 0.020833333333333332
            },
            {
              "pitch": 36,
              "velocity": 27,
              "position": 10.8125,
              "duration": 0.020833333333333332
            },
            {
              "pitch": 42,
              "velocity": 46,
              "position": 10.8125,
              "duration": 0.020833333333333332
            },
            {
              "pitch": 38,
              "velocity": 93,
              "position": 11,
              "duration": 0.020833333333333332
            },
            {
              "pitch": 42,
              "velocity": 119,
              "position": 11,
              "duration": 0.020833333333333332
            },
            {
              "pitch": 42,
              "velocity": 28,
              "position": 11.302083333333334,
              "duration": 0.020833333333333332
            },
            {
              "pitch": 42,
              "velocity": 67,
              "position": 11.5,
              "duration": 0.020833333333333332
            },
            {
              "pitch": 46,
              "velocity": 83,
              "position": 11.802083333333334,
              "duration": 0.020833333333333332
            },
            {
              "pitch": 36,
              "velocity": 98,
              "position": 12,
              "duration": 0.020833333333333332
            },
            {
              "pitch": 42,
              "velocity": 87,
              "position": 12,
              "duration": 0.020833333333333332
            },
            {
              "pitch": 42,
              "velocity": 46,
              "position": 12.5,
              "duration": 0.020833333333333332
            },
            {
              "pitch": 38,
              "velocity": 110,
              "position": 13,
              "duration": 0.020833333333333332
            },
            {
              "pitch": 42,
              "velocity": 117,
              "position": 13,
              "duration": 0.020833333333333332
            },
            {
              "pitch": 36,
              "velocity": 38,
              "position": 13.5,
              "duration": 0.020833333333333332
            },
            {
              "pitch": 55,
              "velocity": 78,
              "position": 13.5,
              "duration": 0.020833333333333332
            },
            {
              "pitch": 42,
              "velocity": 52,
              "position": 13.5,
              "duration": 0.020833333333333332
            },
            {
              "pitch": 38,
              "velocity": 54,
              "position": 14,
              "duration": 0.020833333333333332
            },
            {
              "pitch": 38,
              "velocity": 72,
              "position": 14.3125,
              "duration": 0.020833333333333332
            },
            {
              "pitch": 38,
              "velocity": 22,
              "position": 14.5,
              "duration": 0.020833333333333332
            },
            {
              "pitch": 44,
              "velocity": 62,
              "position": 14.5,
              "duration": 0.020833333333333332
            },
            {
              "pitch": 38,
              "velocity": 37,
              "position": 14.666666666666666,
              "duration": 0.020833333333333332
            },
            {
              "pitch": 38,
              "velocity": 58,
              "position": 14.833333333333334,
              "duration": 0.020833333333333332
            },
            {
              "pitch": 38,
              "velocity": 115,
              "position": 15,
              "duration": 0.020833333333333332
            },
            {
              "pitch": 36,
              "velocity": 59,
              "position": 15.3125,
              "duration": 0.020833333333333332
            },
            {
              "pitch": 49,
              "velocity": 74,
              "position": 15.989583333333334,
              "duration": 0.010416666666666666
            }
          ]
        },
        "10": {
          "ctab": {
            "srcChannel": 10,
            "name": "Bass",
            "accType": "BASS",
            "editable": false,
            "mutedNotes": [],
            "mutedChords": [
              "dim7",
              "dim",
              "minMaj7(9)",
              "minMaj7",
              "min7(11)",
              "min7(9)",
              "min(9)",
              "m7b5",
              "min7",
              "min6",
              "min"
            ],
            "autoStart": false,
            "sourceChordNote": 0,
            "sourceChordType": "Maj",
            "ctb2Low": null,
            "ctb2Main": {
              "ntr": "ROOT_TRANSPOSITION",
              "ntt": "BYPASS",
              "bassOn": false,
              "chordRootUpperLimit": 3,
              "noteLowLimit": 28,
              "noteHighLimit": 127,
              "rtr": "PITCH_SHIFT"
            },
            "ctb2High": null
          },
          "notes": [
            {
              "pitch": 24,
              "velocity": 60,
              "position": 0,
              "duration": 0.4166666666666667
            },
            {
              "pitch": 24,
              "velocity": 104,
              "position": 0.5,
              "duration": 0.0625
            },
            {
              "pitch": 48,
              "velocity": 66,
              "position": 0.8125,
              "duration": 0.3645833333333333
            },
            {
              "pitch": 24,
              "velocity": 63,
              "position": 1.3125,
              "duration": 0.16666666666666666
            },
            {
              "pitch": 26,
              "velocity": 98,
              "position": 1.6666666666666667,
              "duration": 0.16666666666666666
            },
            {
              "pitch": 27,
              "velocity": 110,
              "position": 1.8125,
              "duration": 0.16666666666666666
            },
            {
              "pitch": 28,
              "velocity": 60,
              "position": 2,
              "duration": 0.4791666666666667
            },
            {
              "pitch": 28,
              "velocity": 64,
              "position": 2.5,
              "duration": 0.2916666666666667
            },
            {
              "pitch": 28,
              "velocity": 60,
              "position": 3.3125,
              "duration": 0.16666666666666666
            },
            {
              "pitch": 36,
              "velocity": 54,
              "position": 3.5,
              "duration": 0.3020833333333333
            },
            {
              "pitch": 28,
              "velocity": 100,
              "position": 3.8125,
              "duration": 0.10416666666666667
            },
            {
              "pitch": 29,
              "velocity": 60,
              "position": 4,
              "duration": 0.71875
            },
            {
              "pitch": 29,
              "velocity": 104,
              "position": 4.854166666666667,
              "duration": 0.14583333333333334
            },
            {
              "pitch": 29,
              "velocity": 60,
              "position": 5.3125,
              "duration": 0.17708333333333334
            },
            {
              "pitch": 30,
              "velocity": 64,
              "position": 5.5,
              "duration": 0.3229166666666667
            },
            {
              "pitch": 30,
              "velocity": 88,
              "position": 5.833333333333333,
              "duration": 0.15625
            },
            {
              "pitch": 31,
              "velocity": 60,
              "position": 6,
              "duration": 0.71875
            },
            {
              "pitch": 31,
              "velocity": 104,
              "position": 6.854166666666667,
              "duration": 0.14583333333333334
            },
            {
              "pitch": 43,
              "velocity": 60,
              "position": 7.3125,
              "duration": 0.17708333333333334
            },
            {
              "pitch": 31,
              "velocity": 64,
              "position": 7.5,
              "duration": 0.3333333333333333
            },
            {
              "pitch": 32,
              "velocity": 88,
              "position": 7.833333333333333,
              "duration": 0.16666666666666666
            },
            {
              "pitch": 24,
              "velocity": 60,
              "position": 8,
              "duration": 0.4166666666666667
            },
            {
              "pitch": 24,
              "velocity": 104,
              "position": 8.5,
              "duration": 0.0625
            },
            {
              "pitch": 24,
              "velocity": 66,
              "position": 8.8125,
              "duration": 0.17708333333333334
            },
            {
              "pitch": 24,
              "velocity": 63,
              "position": 9.3125,
              "duration": 0.4166666666666667
            },
            {
              "pitch": 24,
              "velocity": 100,
              "position": 9.8125,
              "duration": 0.10416666666666667
            },
            {
              "pitch": 28,
              "velocity": 60,
              "position": 10,
              "duration": 0.4791666666666667
            },
            {
              "pitch": 28,
              "velocity": 64,
              "position": 10.5,
              "duration": 0.2916666666666667
            },
            {
              "pitch": 28,
              "velocity": 60,
              "position": 11.3125,
              "duration": 0.16666666666666666
            },
            {
              "pitch": 31,
              "velocity": 54,
              "position": 11.5,
              "duration": 0.3020833333333333
            },
            {
              "pitch": 32,
              "velocity": 100,
              "position": 11.8125,
              "duration": 0.10416666666666667
            },
            {
              "pitch": 32,
              "velocity": 60,
              "position": 12,
              "duration": 0.71875
            },
            {
              "pitch": 32,
              "velocity": 104,
              "position": 12.854166666666666,
              "duration": 0.14583333333333334
            },
            {
              "pitch": 32,
              "velocity": 60,
              "position": 13.3125,
              "duration": 0.17708333333333334
            },
            {
              "pitch": 31,
              "velocity": 64,
              "position": 13.5,
              "duration": 1.4895833333333333
            }
          ]
        },
        "11": {
          "ctab": {
            "srcChannel": 11,
            "name": "Gtr",
            "accType": "CHORD1",
            "editable": false,
            "mutedNotes": [],
            "mutedChords": [
              "dim7",
              "dim",
              "minMaj7(9)",
              "minMaj7",
              "min7(11)",
              "min7(9)",
              "min(9)",
              "m7b5",
              "min7",
              "min6",
              "min"
            ],
            "autoStart": false,
            "sourceChordNote": 0,
            "sourceChordType": "Maj",
            "ctb2Low": null,
            "ctb2Main": {
              "ntr": "ROOT_TRANSPOSITION",
              "ntt": "BYPASS",
              "bassOn": false,
              "chordRootUpperLimit": 5,
              "noteLowLimit": 59,
              "noteHighLimit": 70,
              "rtr": "PITCH_SHIFT"
            },
            "ctb2High": null
          },
          "notes": [
            {
              "pitch": 99,
              "velocity": 73,
              "position": 7.802083333333333,
              "duration": 0.10416666666666667
            },
            {
              "pitch": 108,
              "velocity": 98,
              "position": 8,
              "duration": 0.10416666666666667
            },
            {
              "pitch": 64,
              "velocity": 54,
              "position": 8,
              "duration": 0.28125
            },
            {
              "pitch": 67,
              "velocity": 54,
              "position": 8,
              "duration": 0.28125
            },
            {
              "pitch": 60,
              "velocity": 54,
              "position": 8,
              "duration": 0.28125
            },
            {
              "pitch": 101,
              "velocity": 75,
              "position": 8.291666666666666,
              "duration": 0.10416666666666667
            },
            {
              "pitch": 64,
              "velocity": 40,
              "position": 8.291666666666666,
              "duration": 0.1875
            },
            {
              "pitch": 67,
              "velocity": 40,
              "position": 8.291666666666666,
              "duration": 0.1875
            },
            {
              "pitch": 60,
              "velocity": 40,
              "position": 8.291666666666666,
              "duration": 0.1875
            },
            {
              "pitch": 100,
              "velocity": 90,
              "position": 8.489583333333334,
              "duration": 0.10416666666666667
            },
            {
              "pitch": 64,
              "velocity": 52,
              "position": 8.489583333333334,
              "duration": 0.2916666666666667
            },
            {
              "pitch": 67,
              "velocity": 52,
              "position": 8.489583333333334,
              "duration": 0.2916666666666667
            },
            {
              "pitch": 60,
              "velocity": 52,
              "position": 8.489583333333334,
              "duration": 0.2916666666666667
            },
            {
              "pitch": 60,
              "velocity": 50,
              "position": 8.791666666666666,
              "duration": 0.10416666666666667
            },
            {
              "pitch": 99,
              "velocity": 94,
              "position": 8.791666666666666,
              "duration": 0.10416666666666667
            },
            {
              "pitch": 67,
              "velocity": 50,
              "position": 8.791666666666666,
              "duration": 0.10416666666666667
            },
            {
              "pitch": 64,
              "velocity": 50,
              "position": 8.791666666666666,
              "duration": 0.10416666666666667
            },
            {
              "pitch": 60,
              "velocity": 66,
              "position": 9.291666666666666,
              "duration": 0.052083333333333336
            },
            {
              "pitch": 64,
              "velocity": 66,
              "position": 9.291666666666666,
              "duration": 0.052083333333333336
            },
            {
              "pitch": 67,
              "velocity": 66,
              "position": 9.291666666666666,
              "duration": 0.052083333333333336
            },
            {
              "pitch": 97,
              "velocity": 75,
              "position": 9.291666666666666,
              "duration": 0.10416666666666667
            },
            {
              "pitch": 108,
              "velocity": 98,
              "position": 9.5,
              "duration": 0.10416666666666667
            },
            {
              "pitch": 64,
              "velocity": 116,
              "position": 9.489583333333334,
              "duration": 0.29375
            },
            {
              "pitch": 67,
              "velocity": 116,
              "position": 9.489583333333334,
              "duration": 0.29375
            },
            {
              "pitch": 60,
              "velocity": 116,
              "position": 9.489583333333334,
              "duration": 0.29375
            },
            {
              "pitch": 101,
              "velocity": 75,
              "position": 9.791666666666666,
              "duration": 0.10416666666666667
            },
            {
              "pitch": 64,
              "velocity": 40,
              "position": 9.791666666666666,
              "duration": 0.1875
            },
            {
              "pitch": 67,
              "velocity": 40,
              "position": 9.791666666666666,
              "duration": 0.1875
            },
            {
              "pitch": 60,
              "velocity": 40,
              "position": 9.791666666666666,
              "duration": 0.1875
            },
            {
              "pitch": 100,
              "velocity": 90,
              "position": 9.989583333333334,
              "duration": 0.10416666666666667
            },
            {
              "pitch": 64,
              "velocity": 52,
              "position": 9.989583333333334,
              "duration": 0.2916666666666667
            },
            {
              "pitch": 67,
              "velocity": 52,
              "position": 9.989583333333334,
              "duration": 0.2916666666666667
            },
            {
              "pitch": 58,
              "velocity": 52,
              "position": 9.989583333333334,
              "duration": 0.2916666666666667
            },
            {
              "pitch": 58,
              "velocity": 58,
              "position": 10.291666666666666,
              "duration": 0.10416666666666667
            },
            {
              "pitch": 99,
              "velocity": 94,
              "position": 10.291666666666666,
              "duration": 0.10416666666666667
            },
            {
              "pitch": 67,
              "velocity": 58,
              "position": 10.291666666666666,
              "duration": 0.10416666666666667
            },
            {
              "pitch": 64,
              "velocity": 58,
              "position": 10.291666666666666,
              "duration": 0.10416666666666667
            },
            {
              "pitch": 58,
              "velocity": 70,
              "position": 10.489583333333334,
              "duration": 0.0625
            },
            {
              "pitch": 67,
              "velocity": 70,
              "position": 10.489583333333334,
              "duration": 0.0625
            },
            {
              "pitch": 64,
              "velocity": 70,
              "position": 10.489583333333334,
              "duration": 0.0625
            },
            {
              "pitch": 58,
              "velocity": 64,
              "position": 10.791666666666666,
              "duration": 0.052083333333333336
            },
            {
              "pitch": 64,
              "velocity": 64,
              "position": 10.791666666666666,
              "duration": 0.052083333333333336
            },
            {
              "pitch": 67,
              "velocity": 64,
              "position": 10.791666666666666,
              "duration": 0.052083333333333336
            },
            {
              "pitch": 97,
              "velocity": 73,
              "position": 10.791666666666666,
              "duration": 0.10416666666666667
            },
            {
              "pitch": 108,
              "velocity": 98,
              "position": 11,
              "duration": 0.10416666666666667
            },
            {
              "pitch": 64,
              "velocity": 59,
              "position": 10.989583333333334,
              "duration": 0.2916666666666667
            },
            {
              "pitch": 67,
              "velocity": 59,
              "position": 10.989583333333334,
              "duration": 0.2916666666666667
            },
            {
              "pitch": 58,
              "velocity": 59,
              "position": 10.989583333333334,
              "duration": 0.2916666666666667
            },
            {
              "pitch": 101,
              "velocity": 75,
              "position": 11.291666666666666,
              "duration": 0.10416666666666667
            },
            {
              "pitch": 64,
              "velocity": 44,
              "position": 11.291666666666666,
              "duration": 0.1875
            },
            {
              "pitch": 67,
              "velocity": 44,
              "position": 11.291666666666666,
              "duration": 0.1875
            },
            {
              "pitch": 58,
              "velocity": 44,
              "position": 11.291666666666666,
              "duration": 0.1875
            },
            {
              "pitch": 58,
              "velocity": 53,
              "position": 11.489583333333334,
              "duration": 0.09375
            },
            {
              "pitch": 64,
              "velocity": 53,
              "position": 11.489583333333334,
              "duration": 0.09375
            },
            {
              "pitch": 67,
              "velocity": 53,
              "position": 11.489583333333334,
              "duration": 0.09375
            },
            {
              "pitch": 100,
              "velocity": 90,
              "position": 11.489583333333334,
              "duration": 0.10416666666666667
            },
            {
              "pitch": 123,
              "velocity": 80,
              "position": 11.625,
              "duration": 0.20833333333333334
            },
            {
              "pitch": 99,
              "velocity": 73,
              "position": 11.791666666666666,
              "duration": 0.10416666666666667
            },
            {
              "pitch": 67,
              "velocity": 39,
              "position": 11.791666666666666,
              "duration": 0.1875
            },
            {
              "pitch": 64,
              "velocity": 39,
              "position": 11.791666666666666,
              "duration": 0.1875
            },
            {
              "pitch": 58,
              "velocity": 39,
              "position": 11.791666666666666,
              "duration": 0.1875
            },
            {
              "pitch": 108,
              "velocity": 106,
              "position": 12,
              "duration": 0.10416666666666667
            },
            {
              "pitch": 63,
              "velocity": 59,
              "position": 12,
              "duration": 0.28125
            },
            {
              "pitch": 67,
              "velocity": 59,
              "position": 12,
              "duration": 0.28125
            },
            {
              "pitch": 60,
              "velocity": 59,
              "position": 12,
              "duration": 0.28125
            },
            {
              "pitch": 101,
              "velocity": 56,
              "position": 12.291666666666666,
              "duration": 0.10416666666666667
            },
            {
              "pitch": 67,
              "velocity": 38,
              "position": 12.302083333333334,
              "duration": 0.1875
            },
            {
              "pitch": 63,
              "velocity": 38,
              "position": 12.302083333333334,
              "duration": 0.1875
            },
            {
              "pitch": 60,
              "velocity": 38,
              "position": 12.302083333333334,
              "duration": 0.1875
            },
            {
              "pitch": 100,
              "velocity": 60,
              "position": 12.489583333333334,
              "duration": 0.10416666666666667
            },
            {
              "pitch": 67,
              "velocity": 44,
              "position": 12.5,
              "duration": 0.2916666666666667
            },
            {
              "pitch": 63,
              "velocity": 44,
              "position": 12.5,
              "duration": 0.2916666666666667
            },
            {
              "pitch": 60,
              "velocity": 44,
              "position": 12.5,
              "duration": 0.2916666666666667
            },
            {
              "pitch": 99,
              "velocity": 110,
              "position": 12.791666666666666,
              "duration": 0.10416666666666667
            },
            {
              "pitch": 67,
              "velocity": 55,
              "position": 12.802083333333334,
              "duration": 0.15625
            },
            {
              "pitch": 63,
              "velocity": 55,
              "position": 12.802083333333334,
              "duration": 0.15625
            },
            {
              "pitch": 60,
              "velocity": 55,
              "position": 12.802083333333334,
              "duration": 0.15625
            },
            {
              "pitch": 60,
              "velocity": 80,
              "position": 13.291666666666666,
              "duration": 0.041666666666666664
            },
            {
              "pitch": 67,
              "velocity": 80,
              "position": 13.291666666666666,
              "duration": 0.041666666666666664
            },
            {
              "pitch": 64,
              "velocity": 80,
              "position": 13.291666666666666,
              "duration": 0.041666666666666664
            },
            {
              "pitch": 99,
              "velocity": 69,
              "position": 13.291666666666666,
              "duration": 0.10416666666666667
            },
            {
              "pitch": 125,
              "velocity": 90,
              "position": 13.25,
              "duration": 0.20833333333333334
            },
            {
              "pitch": 100,
              "velocity": 91,
              "position": 13.489583333333334,
              "duration": 0.10416666666666667
            },
            {
              "pitch": 60,
              "velocity": 58,
              "position": 13.5,
              "duration": 1.4791666666666667
            },
            {
              "pitch": 62,
              "velocity": 58,
              "position": 13.510416666666666,
              "duration": 1.4791666666666667
            },
            {
              "pitch": 67,
              "velocity": 58,
              "position": 13.520833333333334,
              "duration": 1.4791666666666667
            }
          ]
        },
        "12": {
          "ctab": {
            "srcChannel": 12,
            "name": "EP",
            "accType": "CHORD2",
            "editable": false,
            "mutedNotes": [],
            "mutedChords": [
              "dim7",
              "dim",
              "minMaj7(9)",
              "minMaj7",
              "min7(11)",
              "min7(9)",
              "min(9)",
              "m7b5",
              "min7",
              "min6",
              "min"
            ],
            "autoStart": false,
            "sourceChordNote": 0,
            "sourceChordType": "Maj",
            "ctb2Low": null,
            "ctb2Main": {
              "ntr": "ROOT_TRANSPOSITION",
              "ntt": "BYPASS",
              "bassOn": false,
              "chordRootUpperLimit": 10,
              "noteLowLimit": 0,
              "noteHighLimit": 127,
              "rtr": "PITCH_SHIFT"
            },
            "ctb2High": null
          },
          "notes": [
            {
              "pitch": 62,
              "velocity": 98,
              "position": 0,
              "duration": 0.925
            },
            {
              "pitch": 52,
              "velocity": 86,
              "position": 0,
              "duration": 0.9583333333333334
            },
            {
              "pitch": 57,
              "velocity": 86,
              "position": 0,
              "duration": 0.9729166666666667
            },
            {
              "pitch": 63,
              "velocity": 123,
              "position": 0.8208333333333333,
              "duration": 0.16666666666666666
            },
            {
              "pitch": 64,
              "velocity": 101,
              "position": 1,
              "duration": 0.17291666666666666
            },
            {
              "pitch": 67,
              "velocity": 83,
              "position": 1.3083333333333333,
              "duration": 0.15208333333333332
            },
            {
              "pitch": 69,
              "velocity": 112,
              "position": 1.5,
              "duration": 0.20416666666666666
            },
            {
              "pitch": 62,
              "velocity": 89,
              "position": 1.8083333333333333,
              "duration": 0.06875
            },
            {
              "pitch": 58,
              "velocity": 94,
              "position": 1.8083333333333333,
              "duration": 0.13958333333333334
            },
            {
              "pitch": 72,
              "velocity": 96,
              "position": 2.0541666666666667,
              "duration": 0.19166666666666668
            },
            {
              "pitch": 66,
              "velocity": 107,
              "position": 2.0208333333333335,
              "duration": 0.22708333333333333
            },
            {
              "pitch": 67,
              "velocity": 65,
              "position": 2.26875,
              "duration": 0.06875
            },
            {
              "pitch": 62,
              "velocity": 64,
              "position": 2.308333333333333,
              "duration": 0.0625
            },
            {
              "pitch": 58,
              "velocity": 89,
              "position": 2.308333333333333,
              "duration": 0.14583333333333334
            },
            {
              "pitch": 65,
              "velocity": 96,
              "position": 2.525,
              "duration": 0.20208333333333334
            },
            {
              "pitch": 69,
              "velocity": 98,
              "position": 2.5375,
              "duration": 0.29583333333333334
            },
            {
              "pitch": 63,
              "velocity": 96,
              "position": 3,
              "duration": 0.16458333333333333
            },
            {
              "pitch": 67,
              "velocity": 89,
              "position": 3,
              "duration": 0.22083333333333333
            },
            {
              "pitch": 60,
              "velocity": 98,
              "position": 3.308333333333333,
              "duration": 0.15416666666666667
            },
            {
              "pitch": 64,
              "velocity": 88,
              "position": 4.208333333333333,
              "duration": 0.16666666666666666
            },
            {
              "pitch": 65,
              "velocity": 105,
              "position": 4.375,
              "duration": 0.14583333333333334
            },
            {
              "pitch": 68,
              "velocity": 74,
              "position": 4.541666666666667,
              "duration": 0.19375
            },
            {
              "pitch": 69,
              "velocity": 88,
              "position": 4.708333333333333,
              "duration": 0.16666666666666666
            },
            {
              "pitch": 55,
              "velocity": 70,
              "position": 4,
              "duration": 0.9208333333333333
            },
            {
              "pitch": 52,
              "velocity": 81,
              "position": 4,
              "duration": 0.9208333333333333
            },
            {
              "pitch": 57,
              "velocity": 86,
              "position": 4,
              "duration": 0.975
            },
            {
              "pitch": 60,
              "velocity": 89,
              "position": 4,
              "duration": 1.0354166666666667
            },
            {
              "pitch": 71,
              "velocity": 73,
              "position": 4.875,
              "duration": 0.16666666666666666
            },
            {
              "pitch": 72,
              "velocity": 94,
              "position": 5.041666666666667,
              "duration": 0.5666666666666667
            },
            {
              "pitch": 60,
              "velocity": 89,
              "position": 5.647916666666666,
              "duration": 0.06875
            },
            {
              "pitch": 74,
              "velocity": 117,
              "position": 5.847916666666666,
              "duration": 0.16041666666666668
            },
            {
              "pitch": 75,
              "velocity": 105,
              "position": 6.06875,
              "duration": 0.11458333333333333
            },
            {
              "pitch": 76,
              "velocity": 84,
              "position": 6.197916666666667,
              "duration": 0.06875
            },
            {
              "pitch": 59,
              "velocity": 77,
              "position": 6,
              "duration": 0.34375
            },
            {
              "pitch": 53,
              "velocity": 50,
              "position": 6,
              "duration": 0.3729166666666667
            },
            {
              "pitch": 64,
              "velocity": 73,
              "position": 6,
              "duration": 0.375
            },
            {
              "pitch": 77,
              "velocity": 105,
              "position": 6.329166666666667,
              "duration": 0.12083333333333333
            },
            {
              "pitch": 76,
              "velocity": 87,
              "position": 6.572916666666667,
              "duration": 0.18333333333333332
            },
            {
              "pitch": 72,
              "velocity": 96,
              "position": 6.845833333333333,
              "duration": 0.17291666666666666
            },
            {
              "pitch": 67,
              "velocity": 89,
              "position": 7.095833333333333,
              "duration": 0.21875
            },
            {
              "pitch": 59,
              "velocity": 70,
              "position": 7.377083333333333,
              "duration": 0.07291666666666667
            },
            {
              "pitch": 64,
              "velocity": 81,
              "position": 7.335416666666666,
              "duration": 0.15625
            },
            {
              "pitch": 53,
              "velocity": 73,
              "position": 7.358333333333333,
              "duration": 0.21875
            },
            {
              "pitch": 65,
              "velocity": 86,
              "position": 7.541666666666667,
              "duration": 0.16666666666666666
            },
            {
              "pitch": 63,
              "velocity": 119,
              "position": 7.810416666666667,
              "duration": 0.15
            },
            {
              "pitch": 64,
              "velocity": 77,
              "position": 7.979166666666667,
              "duration": 0.3020833333333333
            },
            {
              "pitch": 67,
              "velocity": 86,
              "position": 8.266666666666667,
              "duration": 0.30833333333333335
            },
            {
              "pitch": 69,
              "velocity": 94,
              "position": 8.497916666666667,
              "duration": 0.1375
            },
            {
              "pitch": 62,
              "velocity": 55,
              "position": 8.85,
              "duration": 0.07291666666666667
            },
            {
              "pitch": 57,
              "velocity": 54,
              "position": 8.858333333333333,
              "duration": 0.08333333333333333
            },
            {
              "pitch": 66,
              "velocity": 107,
              "position": 8.820833333333333,
              "duration": 0.17291666666666666
            },
            {
              "pitch": 72,
              "velocity": 102,
              "position": 8.845833333333333,
              "duration": 0.1875
            },
            {
              "pitch": 65,
              "velocity": 84,
              "position": 9.33125,
              "duration": 0.14583333333333334
            },
            {
              "pitch": 69,
              "velocity": 105,
              "position": 9.327083333333333,
              "duration": 0.17708333333333334
            },
            {
              "pitch": 57,
              "velocity": 82,
              "position": 9.808333333333334,
              "duration": 0.19166666666666668
            },
            {
              "pitch": 62,
              "velocity": 82,
              "position": 9.808333333333334,
              "duration": 0.19166666666666668
            },
            {
              "pitch": 63,
              "velocity": 87,
              "position": 9.997916666666667,
              "duration": 0.16875
            },
            {
              "pitch": 64,
              "velocity": 58,
              "position": 10.189583333333333,
              "duration": 0.075
            },
            {
              "pitch": 67,
              "velocity": 47,
              "position": 10.075,
              "duration": 0.2833333333333333
            },
            {
              "pitch": 62,
              "velocity": 84,
              "position": 10.304166666666667,
              "duration": 0.12291666666666666
            },
            {
              "pitch": 57,
              "velocity": 73,
              "position": 10.3125,
              "duration": 0.14583333333333334
            },
            {
              "pitch": 65,
              "velocity": 107,
              "position": 10.491666666666667,
              "duration": 0.27708333333333335
            },
            {
              "pitch": 69,
              "velocity": 119,
              "position": 10.5,
              "duration": 0.3
            },
            {
              "pitch": 62,
              "velocity": 82,
              "position": 10.827083333333333,
              "duration": 0.0625
            },
            {
              "pitch": 57,
              "velocity": 73,
              "position": 10.839583333333334,
              "duration": 0.11666666666666667
            },
            {
              "pitch": 66,
              "velocity": 102,
              "position": 10.995833333333334,
              "duration": 0.11458333333333333
            },
            {
              "pitch": 70,
              "velocity": 105,
              "position": 11.010416666666666,
              "duration": 0.4895833333333333
            },
            {
              "pitch": 67,
              "velocity": 68,
              "position": 11.133333333333333,
              "duration": 0.36666666666666664
            },
            {
              "pitch": 69,
              "velocity": 86,
              "position": 11.5,
              "duration": 0.2625
            },
            {
              "pitch": 65,
              "velocity": 84,
              "position": 11.522916666666667,
              "duration": 0.26458333333333334
            },
            {
              "pitch": 60,
              "velocity": 87,
              "position": 11.820833333333333,
              "duration": 0.11458333333333333
            },
            {
              "pitch": 56,
              "velocity": 76,
              "position": 12,
              "duration": 0.23333333333333334
            },
            {
              "pitch": 63,
              "velocity": 105,
              "position": 12,
              "duration": 0.26458333333333334
            },
            {
              "pitch": 70,
              "velocity": 102,
              "position": 12,
              "duration": 0.29375
            },
            {
              "pitch": 60,
              "velocity": 35,
              "position": 12,
              "duration": 0.3125
            },
            {
              "pitch": 75,
              "velocity": 57,
              "position": 12,
              "duration": 0.5166666666666667
            },
            {
              "pitch": 72,
              "velocity": 88,
              "position": 12.308333333333334,
              "duration": 0.38333333333333336
            },
            {
              "pitch": 67,
              "velocity": 88,
              "position": 12.5,
              "duration": 0.30833333333333335
            },
            {
              "pitch": 63,
              "velocity": 107,
              "position": 12.808333333333334,
              "duration": 0.19375
            },
            {
              "pitch": 60,
              "velocity": 94,
              "position": 12.808333333333334,
              "duration": 0.2125
            },
            {
              "pitch": 56,
              "velocity": 87,
              "position": 12.808333333333334,
              "duration": 0.3020833333333333
            },
            {
              "pitch": 75,
              "velocity": 111,
              "position": 12.808333333333334,
              "duration": 0.32083333333333336
            },
            {
              "pitch": 70,
              "velocity": 107,
              "position": 12.808333333333334,
              "duration": 0.32916666666666666
            },
            {
              "pitch": 68,
              "velocity": 127,
              "position": 13.5,
              "duration": 0.30833333333333335
            },
            {
              "pitch": 74,
              "velocity": 100,
              "position": 13.5,
              "duration": 2.1083333333333334
            },
            {
              "pitch": 62,
              "velocity": 73,
              "position": 13.5,
              "duration": 2.1125
            },
            {
              "pitch": 60,
              "velocity": 73,
              "position": 13.5,
              "duration": 2.129166666666667
            },
            {
              "pitch": 57,
              "velocity": 74,
              "position": 13.5,
              "duration": 2.1625
            },
            {
              "pitch": 53,
              "velocity": 81,
              "position": 13.5,
              "duration": 2.183333333333333
            },
            {
              "pitch": 69,
              "velocity": 89,
              "position": 13.654166666666667,
              "duration": 2.029166666666667
            }
          ]
        },
        "13": {
          "ctab": {
            "srcChannel": 13,
            "name": "Pad",
            "accType": "PAD",
            "editable": false,
            "mutedNotes": [],
            "mutedChords": [
              "dim7",
              "dim",
              "minMaj7(9)",
              "minMaj7",
              "min7(11)",
              "min7(9)",
              "min(9)",
              "m7b5",
              "min7",
              "min6",
              "min"
            ],
            "autoStart": false,
            "sourceChordNote": 0,
            "sourceChordType": "Maj",
            "ctb2Low": null,
            "ctb2Main": {
              "ntr": "ROOT_TRANSPOSITION",
              "ntt": "BYPASS",
              "bassOn": false,
              "chordRootUpperLimit": 5,
              "noteLowLimit": 0,
              "noteHighLimit": 79,
              "rtr": "PITCH_SHIFT"
            },
            "ctb2High": null
          },
          "notes": [
            {
              "pitch": 72,
              "velocity": 84,
              "position": 1,
              "duration": 14
            },
            {
              "pitch": 84,
              "velocity": 88,
              "position": 8,
              "duration": 7
            }
          ]
        },
        "14": {
          "ctab": {
            "srcChannel": 14,
            "name": "Mute",
            "accType": "PHRASE1",
            "editable": false,
            "mutedNotes": [],
            "mutedChords": [
              "dim7",
              "dim",
              "minMaj7(9)",
              "minMaj7",
              "min7(11)",
              "min7(9)",
              "min(9)",
              "m7b5",
              "min7",
              "min6",
              "min"
            ],
            "autoStart": false,
            "sourceChordNote": 0,
            "sourceChordType": "Maj",
            "ctb2Low": null,
            "ctb2Main": {
              "ntr": "ROOT_TRANSPOSITION",
              "ntt": "BYPASS",
              "bassOn": false,
              "chordRootUpperLimit": 11,
              "noteLowLimit": 52,
              "noteHighLimit": 71,
              "rtr": "PITCH_SHIFT"
            },
            "ctb2High": null
          },
          "notes": [
            {
              "pitch": 36,
              "velocity": 85,
              "position": 0,
              "duration": 0.78125
            },
            {
              "pitch": 55,
              "velocity": 85,
              "position": 0.8083333333333333,
              "duration": 0.10416666666666667
            },
            {
              "pitch": 57,
              "velocity": 116,
              "position": 1,
              "duration": 0.5
            },
            {
              "pitch": 60,
              "velocity": 40,
              "position": 1.5,
              "duration": 0.30833333333333335
            },
            {
              "pitch": 40,
              "velocity": 85,
              "position": 2,
              "duration": 0.78125
            },
            {
              "pitch": 40,
              "velocity": 85,
              "position": 2.808333333333333,
              "duration": 0.10416666666666667
            },
            {
              "pitch": 96,
              "velocity": 88,
              "position": 4,
              "duration": 0.30833333333333335
            },
            {
              "pitch": 57,
              "velocity": 34,
              "position": 4.010416666666667,
              "duration": 0.6916666666666667
            },
            {
              "pitch": 60,
              "velocity": 34,
              "position": 4.020833333333333,
              "duration": 0.6916666666666667
            },
            {
              "pitch": 64,
              "velocity": 34,
              "position": 4.03125,
              "duration": 0.6916666666666667
            },
            {
              "pitch": 41,
              "velocity": 34,
              "position": 4,
              "duration": 0.78125
            },
            {
              "pitch": 64,
              "velocity": 34,
              "position": 4.808333333333334,
              "duration": 0.19166666666666668
            },
            {
              "pitch": 97,
              "velocity": 88,
              "position": 4.808333333333334,
              "duration": 0.19166666666666668
            },
            {
              "pitch": 41,
              "velocity": 34,
              "position": 4.839583333333334,
              "duration": 0.16666666666666666
            },
            {
              "pitch": 60,
              "velocity": 34,
              "position": 4.81875,
              "duration": 0.19166666666666668
            },
            {
              "pitch": 57,
              "velocity": 34,
              "position": 4.829166666666667,
              "duration": 0.19166666666666668
            },
            {
              "pitch": 99,
              "velocity": 88,
              "position": 5.308333333333334,
              "duration": 0.19166666666666668
            },
            {
              "pitch": 98,
              "velocity": 88,
              "position": 5.5,
              "duration": 0.30833333333333335
            },
            {
              "pitch": 65,
              "velocity": 34,
              "position": 5.53125,
              "duration": 1.2666666666666666
            },
            {
              "pitch": 60,
              "velocity": 34,
              "position": 5.520833333333333,
              "duration": 1.2770833333333333
            },
            {
              "pitch": 57,
              "velocity": 34,
              "position": 5.510416666666667,
              "duration": 1.2875
            },
            {
              "pitch": 43,
              "velocity": 34,
              "position": 5.5,
              "duration": 1.3083333333333333
            },
            {
              "pitch": 65,
              "velocity": 34,
              "position": 6.808333333333334,
              "duration": 0.19166666666666668
            },
            {
              "pitch": 43,
              "velocity": 34,
              "position": 6.839583333333334,
              "duration": 0.16041666666666668
            },
            {
              "pitch": 57,
              "velocity": 34,
              "position": 6.829166666666667,
              "duration": 0.17083333333333334
            },
            {
              "pitch": 60,
              "velocity": 34,
              "position": 6.81875,
              "duration": 0.18125
            },
            {
              "pitch": 101,
              "velocity": 88,
              "position": 6.808333333333334,
              "duration": 0.19166666666666668
            },
            {
              "pitch": 43,
              "velocity": 34,
              "position": 7,
              "duration": 0.18125
            },
            {
              "pitch": 65,
              "velocity": 34,
              "position": 7.03125,
              "duration": 0.15
            },
            {
              "pitch": 60,
              "velocity": 34,
              "position": 7.020833333333333,
              "duration": 0.16041666666666668
            },
            {
              "pitch": 57,
              "velocity": 34,
              "position": 7.010416666666667,
              "duration": 0.17083333333333334
            },
            {
              "pitch": 98,
              "velocity": 88,
              "position": 7,
              "duration": 0.30833333333333335
            },
            {
              "pitch": 43,
              "velocity": 34,
              "position": 7.5,
              "duration": 0.18125
            },
            {
              "pitch": 65,
              "velocity": 34,
              "position": 7.53125,
              "duration": 0.15
            },
            {
              "pitch": 60,
              "velocity": 34,
              "position": 7.520833333333333,
              "duration": 0.16041666666666668
            },
            {
              "pitch": 57,
              "velocity": 34,
              "position": 7.510416666666667,
              "duration": 0.17083333333333334
            },
            {
              "pitch": 100,
              "velocity": 88,
              "position": 7.5,
              "duration": 0.30833333333333335
            },
            {
              "pitch": 96,
              "velocity": 88,
              "position": 8,
              "duration": 0.30833333333333335
            },
            {
              "pitch": 67,
              "velocity": 34,
              "position": 8.020833333333334,
              "duration": 0.7791666666666667
            },
            {
              "pitch": 64,
              "velocity": 34,
              "position": 8.010416666666666,
              "duration": 0.7895833333333333
            },
            {
              "pitch": 59,
              "velocity": 34,
              "position": 8,
              "duration": 0.8
            },
            {
              "pitch": 57,
              "velocity": 85,
              "position": 8.808333333333334,
              "duration": 0.10416666666666667
            },
            {
              "pitch": 60,
              "velocity": 88,
              "position": 9,
              "duration": 0.30833333333333335
            },
            {
              "pitch": 60,
              "velocity": 88,
              "position": 9.308333333333334,
              "duration": 0.19166666666666668
            },
            {
              "pitch": 57,
              "velocity": 88,
              "position": 9.5,
              "duration": 0.30833333333333335
            },
            {
              "pitch": 52,
              "velocity": 21,
              "position": 9.808333333333334,
              "duration": 0.19166666666666668
            },
            {
              "pitch": 55,
              "velocity": 85,
              "position": 10,
              "duration": 0.30833333333333335
            },
            {
              "pitch": 52,
              "velocity": 88,
              "position": 10.308333333333334,
              "duration": 0.19166666666666668
            },
            {
              "pitch": 55,
              "velocity": 88,
              "position": 10.5,
              "duration": 0.30833333333333335
            },
            {
              "pitch": 57,
              "velocity": 85,
              "position": 10.808333333333334,
              "duration": 0.10416666666666667
            },
            {
              "pitch": 52,
              "velocity": 88,
              "position": 11,
              "duration": 0.16666666666666666
            },
            {
              "pitch": 55,
              "velocity": 71,
              "position": 11.166666666666666,
              "duration": 0.16666666666666666
            },
            {
              "pitch": 57,
              "velocity": 62,
              "position": 11.333333333333334,
              "duration": 0.16666666666666666
            },
            {
              "pitch": 55,
              "velocity": 32,
              "position": 11.5,
              "duration": 0.5
            },
            {
              "pitch": 98,
              "velocity": 88,
              "position": 12,
              "duration": 0.30833333333333335
            },
            {
              "pitch": 55,
              "velocity": 34,
              "position": 12.010416666666666,
              "duration": 0.6916666666666667
            },
            {
              "pitch": 60,
              "velocity": 34,
              "position": 12.020833333333334,
              "duration": 0.6916666666666667
            },
            {
              "pitch": 63,
              "velocity": 34,
              "position": 12.03125,
              "duration": 0.6916666666666667
            },
            {
              "pitch": 44,
              "velocity": 34,
              "position": 12,
              "duration": 0.78125
            },
            {
              "pitch": 100,
              "velocity": 88,
              "position": 12.5,
              "duration": 0.30833333333333335
            },
            {
              "pitch": 63,
              "velocity": 34,
              "position": 12.808333333333334,
              "duration": 0.19166666666666668
            },
            {
              "pitch": 99,
              "velocity": 88,
              "position": 12.808333333333334,
              "duration": 0.19166666666666668
            },
            {
              "pitch": 44,
              "velocity": 34,
              "position": 12.839583333333334,
              "duration": 0.16666666666666666
            },
            {
              "pitch": 60,
              "velocity": 34,
              "position": 12.81875,
              "duration": 0.19166666666666668
            },
            {
              "pitch": 55,
              "velocity": 34,
              "position": 12.829166666666667,
              "duration": 0.19166666666666668
            },
            {
              "pitch": 99,
              "velocity": 88,
              "position": 13.308333333333334,
              "duration": 0.19166666666666668
            },
            {
              "pitch": 98,
              "velocity": 88,
              "position": 13.5,
              "duration": 0.30833333333333335
            },
            {
              "pitch": 65,
              "velocity": 34,
              "position": 13.53125,
              "duration": 1.2666666666666666
            },
            {
              "pitch": 60,
              "velocity": 34,
              "position": 13.520833333333334,
              "duration": 1.2770833333333333
            },
            {
              "pitch": 57,
              "velocity": 34,
              "position": 13.510416666666666,
              "duration": 1.2875
            },
            {
              "pitch": 43,
              "velocity": 34,
              "position": 13.5,
              "duration": 1.3083333333333333
            }
          ]
        }
      }
    },
    "Ending_B": {
      "type": "Ending_B",
      "sizeInBeats": 16,
      "channels": {
        "1": {
          "ctab": {
            "srcChannel": 1,
            "name": "Bass",
            "accType": "BASS",
            "editable": false,
            "mutedNotes": [],
            "mutedChords": [
              "1+2+5",
              "sus4",
              "1+5",
              "1+8",
              "7aug",
              "Maj7aug",
              "7(#9)",
              "7(b13)",
              "7(b9)",
              "7(13)",
              "7#11",
              "7(9)",
              "7b5",
              "7sus4",
              "7th",
              "aug",
              "Maj6(9)",
              "Maj7(9)",
              "Maj(9)",
              "Maj7#11",
              "Maj7",
              "Maj6",
              "Maj"
            ],
            "autoStart": false,
            "sourceChordNote": 0,
            "sourceChordType": "min",
            "ctb2Low": null,
            "ctb2Main": {
              "ntr": "ROOT_TRANSPOSITION",
              "ntt": "BYPASS",
              "bassOn": false,
              "chordRootUpperLimit": 3,
              "noteLowLimit": 28,
              "noteHighLimit": 127,
              "rtr": "PITCH_SHIFT"
            },
            "ctb2High": null
          },
          "notes": [
            {
              "pitch": 29,
              "velocity": 64,
              "position": 0,
              "duration": 0.4166666666666667
            },
            {
              "pitch": 29,
              "velocity": 104,
              "position": 0.5,
              "duration": 0.0625
            },
            {
              "pitch": 29,
              "velocity": 66,
              "position": 0.8125,
              "duration": 0.17708333333333334
            },
            {
              "pitch": 29,
              "velocity": 63,
              "position": 1.3083333333333333,
              "duration": 0.19166666666666668
            },
            {
              "pitch": 31,
              "velocity": 56,
              "position": 1.5,
              "duration": 0.4791666666666667
            },
            {
              "pitch": 41,
              "velocity": 40,
              "position": 2.308333333333333,
              "duration": 0.1875
            },
            {
              "pitch": 43,
              "velocity": 64,
              "position": 2.5,
              "duration": 0.2916666666666667
            },
            {
              "pitch": 31,
              "velocity": 40,
              "position": 2.808333333333333,
              "duration": 0.19166666666666668
            },
            {
              "pitch": 36,
              "velocity": 60,
              "position": 3,
              "duration": 0.16666666666666666
            },
            {
              "pitch": 48,
              "velocity": 54,
              "position": 3.308333333333333,
              "duration": 0.49375
            },
            {
              "pitch": 34,
              "velocity": 100,
              "position": 3.8125,
              "duration": 0.10416666666666667
            },
            {
              "pitch": 29,
              "velocity": 64,
              "position": 4,
              "duration": 0.41041666666666665
            },
            {
              "pitch": 29,
              "velocity": 104,
              "position": 4.5,
              "duration": 0.30833333333333335
            },
            {
              "pitch": 39,
              "velocity": 60,
              "position": 4.808333333333334,
              "duration": 0.48125
            },
            {
              "pitch": 39,
              "velocity": 104,
              "position": 5.308333333333334,
              "duration": 0.14583333333333334
            },
            {
              "pitch": 38,
              "velocity": 64,
              "position": 5.5,
              "duration": 0.4895833333333333
            },
            {
              "pitch": 38,
              "velocity": 104,
              "position": 6,
              "duration": 0.14583333333333334
            },
            {
              "pitch": 37,
              "velocity": 64,
              "position": 6.5,
              "duration": 0.4895833333333333
            },
            {
              "pitch": 37,
              "velocity": 104,
              "position": 7,
              "duration": 0.14583333333333334
            },
            {
              "pitch": 24,
              "velocity": 64,
              "position": 7.5,
              "duration": 7.65625
            }
          ]
        },
        "2": {
          "ctab": {
            "srcChannel": 2,
            "name": "Gtr",
            "accType": "CHORD1",
            "editable": false,
            "mutedNotes": [],
            "mutedChords": [
              "1+2+5",
              "sus4",
              "1+5",
              "1+8",
              "7aug",
              "Maj7aug",
              "7(#9)",
              "7(b13)",
              "7(b9)",
              "7(13)",
              "7#11",
              "7(9)",
              "7b5",
              "7sus4",
              "7th",
              "aug",
              "Maj6(9)",
              "Maj7(9)",
              "Maj(9)",
              "Maj7#11",
              "Maj7",
              "Maj6",
              "Maj"
            ],
            "autoStart": false,
            "sourceChordNote": 0,
            "sourceChordType": "min",
            "ctb2Low": null,
            "ctb2Main": {
              "ntr": "ROOT_TRANSPOSITION",
              "ntt": "BYPASS",
              "bassOn": false,
              "chordRootUpperLimit": 5,
              "noteLowLimit": 59,
              "noteHighLimit": 70,
              "rtr": "PITCH_SHIFT"
            },
            "ctb2High": null
          },
          "notes": [
            {
              "pitch": 108,
              "velocity": 98,
              "position": 0,
              "duration": 0.10416666666666667
            },
            {
              "pitch": 60,
              "velocity": 54,
              "position": 0,
              "duration": 0.28125
            },
            {
              "pitch": 63,
              "velocity": 54,
              "position": 0,
              "duration": 0.28125
            },
            {
              "pitch": 56,
              "velocity": 54,
              "position": 0,
              "duration": 0.28125
            },
            {
              "pitch": 101,
              "velocity": 75,
              "position": 0.2916666666666667,
              "duration": 0.10416666666666667
            },
            {
              "pitch": 60,
              "velocity": 40,
              "position": 0.2916666666666667,
              "duration": 0.1875
            },
            {
              "pitch": 63,
              "velocity": 40,
              "position": 0.2916666666666667,
              "duration": 0.1875
            },
            {
              "pitch": 56,
              "velocity": 40,
              "position": 0.2916666666666667,
              "duration": 0.1875
            },
            {
              "pitch": 100,
              "velocity": 90,
              "position": 0.4895833333333333,
              "duration": 0.10416666666666667
            },
            {
              "pitch": 60,
              "velocity": 52,
              "position": 0.4895833333333333,
              "duration": 0.2916666666666667
            },
            {
              "pitch": 63,
              "velocity": 52,
              "position": 0.4895833333333333,
              "duration": 0.2916666666666667
            },
            {
              "pitch": 56,
              "velocity": 52,
              "position": 0.4895833333333333,
              "duration": 0.2916666666666667
            },
            {
              "pitch": 56,
              "velocity": 50,
              "position": 0.7916666666666666,
              "duration": 0.10416666666666667
            },
            {
              "pitch": 99,
              "velocity": 94,
              "position": 0.7916666666666666,
              "duration": 0.10416666666666667
            },
            {
              "pitch": 63,
              "velocity": 50,
              "position": 0.7916666666666666,
              "duration": 0.10416666666666667
            },
            {
              "pitch": 60,
              "velocity": 50,
              "position": 0.7916666666666666,
              "duration": 0.10416666666666667
            },
            {
              "pitch": 97,
              "velocity": 75,
              "position": 1.2916666666666667,
              "duration": 0.10416666666666667
            },
            {
              "pitch": 108,
              "velocity": 98,
              "position": 1.5,
              "duration": 0.10416666666666667
            },
            {
              "pitch": 62,
              "velocity": 54,
              "position": 1.5,
              "duration": 0.28125
            },
            {
              "pitch": 65,
              "velocity": 54,
              "position": 1.5,
              "duration": 0.28125
            },
            {
              "pitch": 58,
              "velocity": 54,
              "position": 1.5,
              "duration": 0.28125
            },
            {
              "pitch": 101,
              "velocity": 75,
              "position": 1.7916666666666667,
              "duration": 0.10416666666666667
            },
            {
              "pitch": 62,
              "velocity": 40,
              "position": 1.7916666666666667,
              "duration": 0.1875
            },
            {
              "pitch": 65,
              "velocity": 40,
              "position": 1.7916666666666667,
              "duration": 0.1875
            },
            {
              "pitch": 58,
              "velocity": 40,
              "position": 1.7916666666666667,
              "duration": 0.1875
            },
            {
              "pitch": 100,
              "velocity": 90,
              "position": 1.9895833333333333,
              "duration": 0.10416666666666667
            },
            {
              "pitch": 62,
              "velocity": 52,
              "position": 1.9895833333333333,
              "duration": 0.2916666666666667
            },
            {
              "pitch": 65,
              "velocity": 52,
              "position": 1.9895833333333333,
              "duration": 0.2916666666666667
            },
            {
              "pitch": 58,
              "velocity": 52,
              "position": 1.9895833333333333,
              "duration": 0.2916666666666667
            },
            {
              "pitch": 58,
              "velocity": 50,
              "position": 2.2916666666666665,
              "duration": 0.10416666666666667
            },
            {
              "pitch": 99,
              "velocity": 94,
              "position": 2.2916666666666665,
              "duration": 0.10416666666666667
            },
            {
              "pitch": 65,
              "velocity": 50,
              "position": 2.2916666666666665,
              "duration": 0.10416666666666667
            },
            {
              "pitch": 62,
              "velocity": 50,
              "position": 2.2916666666666665,
              "duration": 0.10416666666666667
            },
            {
              "pitch": 97,
              "velocity": 73,
              "position": 2.7916666666666665,
              "duration": 0.10416666666666667
            },
            {
              "pitch": 65,
              "velocity": 50,
              "position": 2.808333333333333,
              "duration": 0.17916666666666667
            },
            {
              "pitch": 62,
              "velocity": 50,
              "position": 2.808333333333333,
              "duration": 0.17916666666666667
            },
            {
              "pitch": 58,
              "velocity": 50,
              "position": 2.808333333333333,
              "duration": 0.17916666666666667
            },
            {
              "pitch": 108,
              "velocity": 98,
              "position": 3,
              "duration": 0.10416666666666667
            },
            {
              "pitch": 63,
              "velocity": 58,
              "position": 3,
              "duration": 0.27708333333333335
            },
            {
              "pitch": 67,
              "velocity": 58,
              "position": 3,
              "duration": 0.27708333333333335
            },
            {
              "pitch": 58,
              "velocity": 58,
              "position": 3,
              "duration": 0.27708333333333335
            },
            {
              "pitch": 101,
              "velocity": 75,
              "position": 3.2916666666666665,
              "duration": 0.10416666666666667
            },
            {
              "pitch": 63,
              "velocity": 44,
              "position": 3.2916666666666665,
              "duration": 0.1875
            },
            {
              "pitch": 67,
              "velocity": 44,
              "position": 3.2916666666666665,
              "duration": 0.1875
            },
            {
              "pitch": 58,
              "velocity": 44,
              "position": 3.2916666666666665,
              "duration": 0.1875
            },
            {
              "pitch": 58,
              "velocity": 53,
              "position": 3.4895833333333335,
              "duration": 0.09375
            },
            {
              "pitch": 63,
              "velocity": 53,
              "position": 3.4895833333333335,
              "duration": 0.09375
            },
            {
              "pitch": 67,
              "velocity": 53,
              "position": 3.4895833333333335,
              "duration": 0.09375
            },
            {
              "pitch": 100,
              "velocity": 90,
              "position": 3.4895833333333335,
              "duration": 0.10416666666666667
            },
            {
              "pitch": 123,
              "velocity": 80,
              "position": 3.625,
              "duration": 0.20833333333333334
            },
            {
              "pitch": 99,
              "velocity": 73,
              "position": 3.7916666666666665,
              "duration": 0.10416666666666667
            },
            {
              "pitch": 67,
              "velocity": 39,
              "position": 3.7916666666666665,
              "duration": 0.1875
            },
            {
              "pitch": 63,
              "velocity": 39,
              "position": 3.7916666666666665,
              "duration": 0.1875
            },
            {
              "pitch": 58,
              "velocity": 39,
              "position": 3.7916666666666665,
              "duration": 0.1875
            },
            {
              "pitch": 108,
              "velocity": 106,
              "position": 4,
              "duration": 0.10416666666666667
            },
            {
              "pitch": 68,
              "velocity": 58,
              "position": 4.002083333333333,
              "duration": 0.28125
            },
            {
              "pitch": 63,
              "velocity": 58,
              "position": 4.002083333333333,
              "duration": 0.28125
            },
            {
              "pitch": 60,
              "velocity": 58,
              "position": 4.002083333333333,
              "duration": 0.28125
            },
            {
              "pitch": 101,
              "velocity": 56,
              "position": 4.291666666666667,
              "duration": 0.10416666666666667
            },
            {
              "pitch": 68,
              "velocity": 38,
              "position": 4.304166666666666,
              "duration": 0.1875
            },
            {
              "pitch": 60,
              "velocity": 38,
              "position": 4.304166666666666,
              "duration": 0.1875
            },
            {
              "pitch": 63,
              "velocity": 38,
              "position": 4.304166666666666,
              "duration": 0.1875
            },
            {
              "pitch": 100,
              "velocity": 60,
              "position": 4.489583333333333,
              "duration": 0.10416666666666667
            },
            {
              "pitch": 68,
              "velocity": 44,
              "position": 4.502083333333333,
              "duration": 0.2916666666666667
            },
            {
              "pitch": 60,
              "velocity": 44,
              "position": 4.502083333333333,
              "duration": 0.2916666666666667
            },
            {
              "pitch": 63,
              "velocity": 44,
              "position": 4.502083333333333,
              "duration": 0.2916666666666667
            },
            {
              "pitch": 99,
              "velocity": 110,
              "position": 4.791666666666667,
              "duration": 0.10416666666666667
            },
            {
              "pitch": 68,
              "velocity": 55,
              "position": 4.804166666666666,
              "duration": 0.15625
            },
            {
              "pitch": 63,
              "velocity": 55,
              "position": 4.804166666666666,
              "duration": 0.15625
            },
            {
              "pitch": 60,
              "velocity": 55,
              "position": 4.804166666666666,
              "duration": 0.15625
            },
            {
              "pitch": 60,
              "velocity": 80,
              "position": 5.291666666666667,
              "duration": 0.041666666666666664
            },
            {
              "pitch": 69,
              "velocity": 80,
              "position": 5.291666666666667,
              "duration": 0.041666666666666664
            },
            {
              "pitch": 65,
              "velocity": 80,
              "position": 5.291666666666667,
              "duration": 0.041666666666666664
            },
            {
              "pitch": 99,
              "velocity": 69,
              "position": 5.291666666666667,
              "duration": 0.10416666666666667
            },
            {
              "pitch": 125,
              "velocity": 90,
              "position": 5.25,
              "duration": 0.20833333333333334
            },
            {
              "pitch": 100,
              "velocity": 91,
              "position": 5.489583333333333,
              "duration": 0.10416666666666667
            },
            {
              "pitch": 60,
              "velocity": 58,
              "position": 5.5,
              "duration": 0.5541666666666667
            },
            {
              "pitch": 65,
              "velocity": 58,
              "position": 5.510416666666667,
              "duration": 0.5541666666666667
            },
            {
              "pitch": 69,
              "velocity": 58,
              "position": 5.520833333333333,
              "duration": 0.5541666666666667
            },
            {
              "pitch": 60,
              "velocity": 58,
              "position": 6.5,
              "duration": 0.5541666666666667
            },
            {
              "pitch": 65,
              "velocity": 58,
              "position": 6.510416666666667,
              "duration": 0.5541666666666667
            },
            {
              "pitch": 70,
              "velocity": 58,
              "position": 6.520833333333333,
              "duration": 0.5541666666666667
            },
            {
              "pitch": 60,
              "velocity": 58,
              "position": 7.5,
              "duration": 7.3375
            },
            {
              "pitch": 63,
              "velocity": 58,
              "position": 7.510416666666667,
              "duration": 7.3375
            },
            {
              "pitch": 67,
              "velocity": 58,
              "position": 7.520833333333333,
              "duration": 7.3375
            }
          ]
        },
        "3": {
          "ctab": {
            "srcChannel": 3,
            "name": "EP",
            "accType": "CHORD2",
            "editable": false,
            "mutedNotes": [],
            "mutedChords": [
              "1+2+5",
              "sus4",
              "1+5",
              "1+8",
              "7aug",
              "Maj7aug",
              "7(#9)",
              "7(b13)",
              "7(b9)",
              "7(13)",
              "7#11",
              "7(9)",
              "7b5",
              "7sus4",
              "7th",
              "aug",
              "Maj6(9)",
              "Maj7(9)",
              "Maj(9)",
              "Maj7#11",
              "Maj7",
              "Maj6",
              "Maj"
            ],
            "autoStart": false,
            "sourceChordNote": 0,
            "sourceChordType": "min",
            "ctb2Low": null,
            "ctb2Main": {
              "ntr": "ROOT_TRANSPOSITION",
              "ntt": "BYPASS",
              "bassOn": false,
              "chordRootUpperLimit": 10,
              "noteLowLimit": 0,
              "noteHighLimit": 79,
              "rtr": "PITCH_SHIFT"
            },
            "ctb2High": null
          },
          "notes": [
            {
              "pitch": 41,
              "velocity": 111,
              "position": 0,
              "duration": 0.7979166666666667
            },
            {
              "pitch": 63,
              "velocity": 91,
              "position": 0,
              "duration": 0.7979166666666667
            },
            {
              "pitch": 60,
              "velocity": 94,
              "position": 0,
              "duration": 0.7979166666666667
            },
            {
              "pitch": 56,
              "velocity": 86,
              "position": 0,
              "duration": 0.7979166666666667
            },
            {
              "pitch": 51,
              "velocity": 98,
              "position": 0,
              "duration": 0.7979166666666667
            },
            {
              "pitch": 41,
              "velocity": 88,
              "position": 0.8083333333333333,
              "duration": 0.19166666666666668
            },
            {
              "pitch": 63,
              "velocity": 94,
              "position": 0.8083333333333333,
              "duration": 0.2125
            },
            {
              "pitch": 60,
              "velocity": 94,
              "position": 0.8083333333333333,
              "duration": 0.2125
            },
            {
              "pitch": 51,
              "velocity": 73,
              "position": 0.8083333333333333,
              "duration": 0.2625
            },
            {
              "pitch": 67,
              "velocity": 77,
              "position": 0.8083333333333333,
              "duration": 0.2875
            },
            {
              "pitch": 55,
              "velocity": 86,
              "position": 1.5,
              "duration": 0.15625
            },
            {
              "pitch": 53,
              "velocity": 68,
              "position": 1.5,
              "duration": 0.1625
            },
            {
              "pitch": 50,
              "velocity": 38,
              "position": 1.5,
              "duration": 0.23333333333333334
            },
            {
              "pitch": 58,
              "velocity": 102,
              "position": 1.5,
              "duration": 0.2791666666666667
            },
            {
              "pitch": 43,
              "velocity": 87,
              "position": 1.5,
              "duration": 0.2791666666666667
            },
            {
              "pitch": 62,
              "velocity": 94,
              "position": 1.5,
              "duration": 0.29791666666666666
            },
            {
              "pitch": 65,
              "velocity": 94,
              "position": 1.5,
              "duration": 0.3541666666666667
            },
            {
              "pitch": 36,
              "velocity": 77,
              "position": 2.5,
              "duration": 0.9229166666666667
            },
            {
              "pitch": 43,
              "velocity": 48,
              "position": 2.308333333333333,
              "duration": 1.2041666666666666
            },
            {
              "pitch": 62,
              "velocity": 98,
              "position": 2.5,
              "duration": 1.0458333333333334
            },
            {
              "pitch": 51,
              "velocity": 98,
              "position": 2.5,
              "duration": 1.2083333333333333
            },
            {
              "pitch": 67,
              "velocity": 102,
              "position": 2.5,
              "duration": 1.3145833333333334
            },
            {
              "pitch": 58,
              "velocity": 94,
              "position": 2.5,
              "duration": 1.33125
            },
            {
              "pitch": 63,
              "velocity": 100,
              "position": 2.5,
              "duration": 1.3729166666666666
            },
            {
              "pitch": 41,
              "velocity": 98,
              "position": 4,
              "duration": 0.5041666666666667
            },
            {
              "pitch": 56,
              "velocity": 111,
              "position": 4,
              "duration": 0.6041666666666666
            },
            {
              "pitch": 60,
              "velocity": 109,
              "position": 4,
              "duration": 0.6270833333333333
            },
            {
              "pitch": 51,
              "velocity": 100,
              "position": 4,
              "duration": 0.6270833333333333
            },
            {
              "pitch": 63,
              "velocity": 96,
              "position": 4,
              "duration": 0.66875
            },
            {
              "pitch": 67,
              "velocity": 102,
              "position": 4.808333333333334,
              "duration": 0.22708333333333333
            },
            {
              "pitch": 51,
              "velocity": 77,
              "position": 4.808333333333334,
              "duration": 0.26875
            },
            {
              "pitch": 60,
              "velocity": 94,
              "position": 4.808333333333334,
              "duration": 0.29791666666666666
            },
            {
              "pitch": 63,
              "velocity": 105,
              "position": 4.808333333333334,
              "duration": 0.30833333333333335
            },
            {
              "pitch": 39,
              "velocity": 109,
              "position": 4.808333333333334,
              "duration": 0.31875
            },
            {
              "pitch": 45,
              "velocity": 73,
              "position": 5.308333333333334,
              "duration": 0.36666666666666664
            },
            {
              "pitch": 38,
              "velocity": 102,
              "position": 5.5,
              "duration": 0.30625
            },
            {
              "pitch": 57,
              "velocity": 100,
              "position": 5.5,
              "duration": 0.32083333333333336
            },
            {
              "pitch": 50,
              "velocity": 111,
              "position": 5.5,
              "duration": 0.3541666666666667
            },
            {
              "pitch": 60,
              "velocity": 105,
              "position": 5.5,
              "duration": 0.3875
            },
            {
              "pitch": 65,
              "velocity": 102,
              "position": 5.5,
              "duration": 0.40208333333333335
            },
            {
              "pitch": 44,
              "velocity": 84,
              "position": 6.308333333333334,
              "duration": 0.5958333333333333
            },
            {
              "pitch": 70,
              "velocity": 107,
              "position": 6.5,
              "duration": 0.42916666666666664
            },
            {
              "pitch": 65,
              "velocity": 87,
              "position": 6.5,
              "duration": 0.46875
            },
            {
              "pitch": 59,
              "velocity": 109,
              "position": 6.5,
              "duration": 0.50625
            },
            {
              "pitch": 63,
              "velocity": 102,
              "position": 6.5,
              "duration": 0.5125
            },
            {
              "pitch": 37,
              "velocity": 98,
              "position": 6.5,
              "duration": 0.59375
            },
            {
              "pitch": 51,
              "velocity": 102,
              "position": 6.5,
              "duration": 0.7145833333333333
            },
            {
              "pitch": 36,
              "velocity": 87,
              "position": 7.5,
              "duration": 7.733333333333333
            },
            {
              "pitch": 67,
              "velocity": 98,
              "position": 7.5,
              "duration": 7.733333333333333
            },
            {
              "pitch": 63,
              "velocity": 96,
              "position": 7.5,
              "duration": 7.733333333333333
            },
            {
              "pitch": 58,
              "velocity": 98,
              "position": 7.5,
              "duration": 7.733333333333333
            },
            {
              "pitch": 55,
              "velocity": 109,
              "position": 7.5,
              "duration": 7.733333333333333
            },
            {
              "pitch": 51,
              "velocity": 105,
              "position": 7.5,
              "duration": 7.733333333333333
            },
            {
              "pitch": 43,
              "velocity": 89,
              "position": 7.5,
              "duration": 7.733333333333333
            }
          ]
        },
        "4": {
          "ctab": {
            "srcChannel": 4,
            "name": "Pad",
            "accType": "PAD",
            "editable": false,
            "mutedNotes": [],
            "mutedChords": [
              "1+2+5",
              "sus4",
              "1+5",
              "1+8",
              "7aug",
              "Maj7aug",
              "7(#9)",
              "7(b13)",
              "7(b9)",
              "7(13)",
              "7#11",
              "7(9)",
              "7b5",
              "7sus4",
              "7th",
              "aug",
              "Maj6(9)",
              "Maj7(9)",
              "Maj(9)",
              "Maj7#11",
              "Maj7",
              "Maj6",
              "Maj"
            ],
            "autoStart": false,
            "sourceChordNote": 0,
            "sourceChordType": "min",
            "ctb2Low": null,
            "ctb2Main": {
              "ntr": "ROOT_TRANSPOSITION",
              "ntt": "BYPASS",
              "bassOn": false,
              "chordRootUpperLimit": 5,
              "noteLowLimit": 0,
              "noteHighLimit": 127,
              "rtr": "PITCH_SHIFT"
            },
            "ctb2High": null
          },
          "notes": [
            {
              "pitch": 72,
              "velocity": 88,
              "position": 0,
              "duration": 4.808333333333334
            },
            {
              "pitch": 79,
              "velocity": 88,
              "position": 4.808333333333334,
              "duration": 0.38333333333333336
            },
            {
              "pitch": 77,
              "velocity": 88,
              "position": 5.5,
              "duration": 0.5
            },
            {
              "pitch": 70,
              "velocity": 88,
              "position": 6.5,
              "duration": 0.5
            },
            {
              "pitch": 67,
              "velocity": 88,
              "position": 7.5,
              "duration": 7.666666666666667
            }
          ]
        },
        "5": {
          "ctab": {
            "srcChannel": 5,
            "name": "Mute",
            "accType": "PHRASE1",
            "editable": false,
            "mutedNotes": [],
            "mutedChords": [
              "1+2+5",
              "sus4",
              "1+5",
              "1+8",
              "7aug",
              "Maj7aug",
              "7(#9)",
              "7(b13)",
              "7(b9)",
              "7(13)",
              "7#11",
              "7(9)",
              "7b5",
              "7sus4",
              "7th",
              "aug",
              "Maj6(9)",
              "Maj7(9)",
              "Maj(9)",
              "Maj7#11",
              "Maj7",
              "Maj6",
              "Maj"
            ],
            "autoStart": false,
            "sourceChordNote": 0,
            "sourceChordType": "min",
            "ctb2Low": null,
            "ctb2Main": {
              "ntr": "ROOT_TRANSPOSITION",
              "ntt": "BYPASS",
              "bassOn": false,
              "chordRootUpperLimit": 11,
              "noteLowLimit": 52,
              "noteHighLimit": 71,
              "rtr": "PITCH_SHIFT"
            },
            "ctb2High": null
          },
          "notes": [
            {
              "pitch": 63,
              "velocity": 55,
              "position": 0,
              "duration": 0.8083333333333333
            },
            {
              "pitch": 67,
              "velocity": 55,
              "position": 0.8083333333333333,
              "duration": 0.19166666666666668
            },
            {
              "pitch": 65,
              "velocity": 55,
              "position": 1.5,
              "duration": 0.30833333333333335
            },
            {
              "pitch": 58,
              "velocity": 55,
              "position": 2.5,
              "duration": 1.1666666666666667
            },
            {
              "pitch": 60,
              "velocity": 95,
              "position": 3.6666666666666665,
              "duration": 0.16666666666666666
            },
            {
              "pitch": 62,
              "velocity": 95,
              "position": 3.8333333333333335,
              "duration": 0.16666666666666666
            },
            {
              "pitch": 63,
              "velocity": 55,
              "position": 4,
              "duration": 0.8083333333333333
            },
            {
              "pitch": 67,
              "velocity": 55,
              "position": 4.808333333333334,
              "duration": 0.19166666666666668
            },
            {
              "pitch": 65,
              "velocity": 55,
              "position": 5.5,
              "duration": 0.30833333333333335
            },
            {
              "pitch": 70,
              "velocity": 55,
              "position": 6.5,
              "duration": 0.30833333333333335
            },
            {
              "pitch": 48,
              "velocity": 53,
              "position": 7.5,
              "duration": 7.5
            },
            {
              "pitch": 58,
              "velocity": 53,
              "position": 7.541666666666667,
              "duration": 7.5
            },
            {
              "pitch": 63,
              "velocity": 53,
              "position": 7.583333333333333,
              "duration": 7.5
            },
            {
              "pitch": 67,
              "velocity": 53,
              "position": 7.625,
              "duration": 7.5
            }
          ]
        },
        "8": {
          "ctab": {
            "srcChannel": 8,
            "name": "Rhyth1",
            "accType": "SUBRHYTHM",
            "editable": false,
            "mutedNotes": [],
            "mutedChords": [],
            "autoStart": true,
            "sourceChordNote": 0,
            "sourceChordType": "Maj7",
            "ctb2Low": null,
            "ctb2Main": {
              "ntr": "ROOT_FIXED",
              "ntt": "BYPASS",
              "bassOn": false,
              "chordRootUpperLimit": 6,
              "noteLowLimit": 0,
              "noteHighLimit": 127,
              "rtr": "PITCH_SHIFT"
            },
            "ctb2High": null
          },
          "notes": [
            {
              "pitch": 54,
              "velocity": 12,
              "position": 0,
              "duration": 0.010416666666666666
            },
            {
              "pitch": 54,
              "velocity": 72,
              "position": 0.5,
              "duration": 0.010416666666666666
            },
            {
              "pitch": 54,
              "velocity": 72,
              "position": 1.5,
              "duration": 0.010416666666666666
            },
            {
              "pitch": 54,
              "velocity": 72,
              "position": 2.5,
              "duration": 0.010416666666666666
            },
            {
              "pitch": 54,
              "velocity": 72,
              "position": 3.5,
              "duration": 0.010416666666666666
            },
            {
              "pitch": 54,
              "velocity": 12,
              "position": 4,
              "duration": 0.010416666666666666
            },
            {
              "pitch": 54,
              "velocity": 72,
              "position": 4.5,
              "duration": 0.010416666666666666
            },
            {
              "pitch": 54,
              "velocity": 72,
              "position": 5.5,
              "duration": 0.010416666666666666
            },
            {
              "pitch": 54,
              "velocity": 72,
              "position": 6.5,
              "duration": 0.010416666666666666
            },
            {
              "pitch": 54,
              "velocity": 72,
              "position": 7.5,
              "duration": 0.010416666666666666
            },
            {
              "pitch": 84,
              "velocity": 58,
              "position": 7.5,
              "duration": 0.19166666666666668
            }
          ]
        },
        "9": {
          "ctab": {
            "srcChannel": 9,
            "name": "Rhyth2",
            "accType": "RHYTHM",
            "editable": false,
            "mutedNotes": [],
            "mutedChords": [],
            "autoStart": true,
            "sourceChordNote": 0,
            "sourceChordType": "Maj7",
            "ctb2Low": null,
            "ctb2Main": {
              "ntr": "ROOT_FIXED",
              "ntt": "BYPASS",
              "bassOn": false,
              "chordRootUpperLimit": 6,
              "noteLowLimit": 0,
              "noteHighLimit": 127,
              "rtr": "PITCH_SHIFT"
            },
            "ctb2High": null
          },
          "notes": [
            {
              "pitch": 36,
              "velocity": 98,
              "position": 0,
              "duration": 0.020833333333333332
            },
            {
              "pitch": 57,
              "velocity": 74,
              "position": 0,
              "duration": 0.020833333333333332
            },
            {
              "pitch": 42,
              "velocity": 87,
              "position": 0,
              "duration": 0.020833333333333332
            },
            {
              "pitch": 42,
              "velocity": 46,
              "position": 0.5,
              "duration": 0.020833333333333332
            },
            {
              "pitch": 38,
              "velocity": 110,
              "position": 1,
              "duration": 0.020833333333333332
            },
            {
              "pitch": 42,
              "velocity": 117,
              "position": 1,
              "duration": 0.020833333333333332
            },
            {
              "pitch": 36,
              "velocity": 38,
              "position": 1.5,
              "duration": 0.020833333333333332
            },
            {
              "pitch": 52,
              "velocity": 81,
              "position": 1.5,
              "duration": 0.020833333333333332
            },
            {
              "pitch": 42,
              "velocity": 52,
              "position": 1.5,
              "duration": 0.020833333333333332
            },
            {
              "pitch": 41,
              "velocity": 76,
              "position": 2,
              "duration": 0.020833333333333332
            },
            {
              "pitch": 38,
              "velocity": 22,
              "position": 2.5,
              "duration": 0.020833333333333332
            },
            {
              "pitch": 44,
              "velocity": 62,
              "position": 2.5,
              "duration": 0.020833333333333332
            },
            {
              "pitch": 38,
              "velocity": 37,
              "position": 2.6666666666666665,
              "duration": 0.020833333333333332
            },
            {
              "pitch": 38,
              "velocity": 58,
              "position": 2.8333333333333335,
              "duration": 0.020833333333333332
            },
            {
              "pitch": 38,
              "velocity": 110,
              "position": 3,
              "duration": 0.020833333333333332
            },
            {
              "pitch": 36,
              "velocity": 59,
              "position": 3.3125,
              "duration": 0.020833333333333332
            },
            {
              "pitch": 38,
              "velocity": 88,
              "position": 3.808333333333333,
              "duration": 0.020833333333333332
            },
            {
              "pitch": 49,
              "velocity": 74,
              "position": 3.9895833333333335,
              "duration": 0.020833333333333332
            },
            {
              "pitch": 42,
              "velocity": 91,
              "position": 4,
              "duration": 0.020833333333333332
            },
            {
              "pitch": 36,
              "velocity": 99,
              "position": 4,
              "duration": 0.020833333333333332
            },
            {
              "pitch": 38,
              "velocity": 81,
              "position": 4.5,
              "duration": 0.020833333333333332
            },
            {
              "pitch": 42,
              "velocity": 42,
              "position": 4.5,
              "duration": 0.020833333333333332
            },
            {
              "pitch": 42,
              "velocity": 29,
              "position": 4.8125,
              "duration": 0.020833333333333332
            },
            {
              "pitch": 38,
              "velocity": 110,
              "position": 5,
              "duration": 0.020833333333333332
            },
            {
              "pitch": 42,
              "velocity": 123,
              "position": 5,
              "duration": 0.020833333333333332
            },
            {
              "pitch": 36,
              "velocity": 85,
              "position": 5.3125,
              "duration": 0.020833333333333332
            },
            {
              "pitch": 46,
              "velocity": 93,
              "position": 5.3125,
              "duration": 0.020833333333333332
            },
            {
              "pitch": 42,
              "velocity": 38,
              "position": 5.5,
              "duration": 0.020833333333333332
            },
            {
              "pitch": 36,
              "velocity": 40,
              "position": 5.8125,
              "duration": 0.020833333333333332
            },
            {
              "pitch": 38,
              "velocity": 79,
              "position": 6,
              "duration": 0.020833333333333332
            },
            {
              "pitch": 42,
              "velocity": 79,
              "position": 6,
              "duration": 0.020833333333333332
            },
            {
              "pitch": 50,
              "velocity": 76,
              "position": 6.25,
              "duration": 0.020833333333333332
            },
            {
              "pitch": 48,
              "velocity": 66,
              "position": 6.375,
              "duration": 0.020833333333333332
            },
            {
              "pitch": 47,
              "velocity": 76,
              "position": 6.5,
              "duration": 0.020833333333333332
            },
            {
              "pitch": 45,
              "velocity": 61,
              "position": 6.625,
              "duration": 0.020833333333333332
            },
            {
              "pitch": 43,
              "velocity": 76,
              "position": 6.75,
              "duration": 0.020833333333333332
            },
            {
              "pitch": 36,
              "velocity": 37,
              "position": 6.875,
              "duration": 0.020833333333333332
            },
            {
              "pitch": 38,
              "velocity": 110,
              "position": 7,
              "duration": 0.020833333333333332
            },
            {
              "pitch": 46,
              "velocity": 83,
              "position": 7,
              "duration": 0.020833333333333332
            },
            {
              "pitch": 42,
              "velocity": 38,
              "position": 7.21875,
              "duration": 0.020833333333333332
            },
            {
              "pitch": 46,
              "velocity": 85,
              "position": 7.5,
              "duration": 0.020833333333333332
            },
            {
              "pitch": 49,
              "velocity": 74,
              "position": 7.510416666666667,
              "duration": 0.020833333333333332
            },
            {
              "pitch": 36,
              "velocity": 100,
              "position": 7.510416666666667,
              "duration": 0.020833333333333332
            },
            {
              "pitch": 44,
              "velocity": 31,
              "position": 15,
              "duration": 0.0375
            }
          ]
        },
        "10": {
          "ctab": {
            "srcChannel": 10,
            "name": "Bass",
            "accType": "BASS",
            "editable": false,
            "mutedNotes": [],
            "mutedChords": [
              "dim7",
              "dim",
              "minMaj7(9)",
              "minMaj7",
              "min7(11)",
              "min7(9)",
              "min(9)",
              "m7b5",
              "min7",
              "min6",
              "min"
            ],
            "autoStart": false,
            "sourceChordNote": 0,
            "sourceChordType": "Maj",
            "ctb2Low": null,
            "ctb2Main": {
              "ntr": "ROOT_TRANSPOSITION",
              "ntt": "BYPASS",
              "bassOn": false,
              "chordRootUpperLimit": 3,
              "noteLowLimit": 28,
              "noteHighLimit": 127,
              "rtr": "PITCH_SHIFT"
            },
            "ctb2High": null
          },
          "notes": [
            {
              "pitch": 29,
              "velocity": 60,
              "position": 0,
              "duration": 0.4166666666666667
            },
            {
              "pitch": 29,
              "velocity": 104,
              "position": 0.5,
              "duration": 0.0625
            },
            {
              "pitch": 41,
              "velocity": 66,
              "position": 0.8125,
              "duration": 0.17708333333333334
            },
            {
              "pitch": 41,
              "velocity": 63,
              "position": 1.3083333333333333,
              "duration": 0.19166666666666668
            },
            {
              "pitch": 40,
              "velocity": 56,
              "position": 1.5,
              "duration": 0.4791666666666667
            },
            {
              "pitch": 40,
              "velocity": 40,
              "position": 2.308333333333333,
              "duration": 0.1875
            },
            {
              "pitch": 33,
              "velocity": 64,
              "position": 2.5,
              "duration": 0.2916666666666667
            },
            {
              "pitch": 31,
              "velocity": 40,
              "position": 2.808333333333333,
              "duration": 0.19166666666666668
            },
            {
              "pitch": 33,
              "velocity": 60,
              "position": 3,
              "duration": 0.16666666666666666
            },
            {
              "pitch": 45,
              "velocity": 54,
              "position": 3.308333333333333,
              "duration": 0.19166666666666668
            },
            {
              "pitch": 33,
              "velocity": 40,
              "position": 3.5,
              "duration": 0.30833333333333335
            },
            {
              "pitch": 40,
              "velocity": 40,
              "position": 3.808333333333333,
              "duration": 0.19166666666666668
            },
            {
              "pitch": 26,
              "velocity": 60,
              "position": 4,
              "duration": 0.41041666666666665
            },
            {
              "pitch": 26,
              "velocity": 104,
              "position": 4.5,
              "duration": 0.30833333333333335
            },
            {
              "pitch": 28,
              "velocity": 60,
              "position": 4.808333333333334,
              "duration": 0.48125
            },
            {
              "pitch": 28,
              "velocity": 104,
              "position": 5.308333333333334,
              "duration": 0.14583333333333334
            },
            {
              "pitch": 29,
              "velocity": 64,
              "position": 5.5,
              "duration": 0.4895833333333333
            },
            {
              "pitch": 29,
              "velocity": 60,
              "position": 6,
              "duration": 0.14583333333333334
            },
            {
              "pitch": 31,
              "velocity": 64,
              "position": 6.5,
              "duration": 0.4895833333333333
            },
            {
              "pitch": 31,
              "velocity": 104,
              "position": 7,
              "duration": 0.14583333333333334
            },
            {
              "pitch": 24,
              "velocity": 64,
              "position": 7.5,
              "duration": 7.65625
            }
          ]
        },
        "11": {
          "ctab": {
            "srcChannel": 11,
            "name": "Gtr",
            "accType": "CHORD1",
            "editable": false,
            "mutedNotes": [],
            "mutedChords": [
              "dim7",
              "dim",
              "minMaj7(9)",
              "minMaj7",
              "min7(11)",
              "min7(9)",
              "min(9)",
              "m7b5",
              "min7",
              "min6",
              "min"
            ],
            "autoStart": false,
            "sourceChordNote": 0,
            "sourceChordType": "Maj",
            "ctb2Low": null,
            "ctb2Main": {
              "ntr": "ROOT_TRANSPOSITION",
              "ntt": "BYPASS",
              "bassOn": false,
              "chordRootUpperLimit": 5,
              "noteLowLimit": 59,
              "noteHighLimit": 70,
              "rtr": "PITCH_SHIFT"
            },
            "ctb2High": null
          },
          "notes": [
            {
              "pitch": 108,
              "velocity": 98,
              "position": 0,
              "duration": 0.10416666666666667
            },
            {
              "pitch": 60,
              "velocity": 54,
              "position": 0,
              "duration": 0.28125
            },
            {
              "pitch": 64,
              "velocity": 54,
              "position": 0,
              "duration": 0.28125
            },
            {
              "pitch": 57,
              "velocity": 54,
              "position": 0,
              "duration": 0.28125
            },
            {
              "pitch": 101,
              "velocity": 75,
              "position": 0.2916666666666667,
              "duration": 0.10416666666666667
            },
            {
              "pitch": 60,
              "velocity": 40,
              "position": 0.2916666666666667,
              "duration": 0.1875
            },
            {
              "pitch": 64,
              "velocity": 40,
              "position": 0.2916666666666667,
              "duration": 0.1875
            },
            {
              "pitch": 57,
              "velocity": 40,
              "position": 0.2916666666666667,
              "duration": 0.1875
            },
            {
              "pitch": 100,
              "velocity": 90,
              "position": 0.4895833333333333,
              "duration": 0.10416666666666667
            },
            {
              "pitch": 60,
              "velocity": 52,
              "position": 0.4895833333333333,
              "duration": 0.2916666666666667
            },
            {
              "pitch": 64,
              "velocity": 52,
              "position": 0.4895833333333333,
              "duration": 0.2916666666666667
            },
            {
              "pitch": 57,
              "velocity": 52,
              "position": 0.4895833333333333,
              "duration": 0.2916666666666667
            },
            {
              "pitch": 57,
              "velocity": 50,
              "position": 0.7916666666666666,
              "duration": 0.10416666666666667
            },
            {
              "pitch": 99,
              "velocity": 94,
              "position": 0.7916666666666666,
              "duration": 0.10416666666666667
            },
            {
              "pitch": 64,
              "velocity": 50,
              "position": 0.7916666666666666,
              "duration": 0.10416666666666667
            },
            {
              "pitch": 60,
              "velocity": 50,
              "position": 0.7916666666666666,
              "duration": 0.10416666666666667
            },
            {
              "pitch": 97,
              "velocity": 75,
              "position": 1.2916666666666667,
              "duration": 0.10416666666666667
            },
            {
              "pitch": 108,
              "velocity": 98,
              "position": 1.5,
              "duration": 0.10416666666666667
            },
            {
              "pitch": 62,
              "velocity": 54,
              "position": 1.5,
              "duration": 0.28125
            },
            {
              "pitch": 67,
              "velocity": 54,
              "position": 1.5,
              "duration": 0.28125
            },
            {
              "pitch": 59,
              "velocity": 54,
              "position": 1.5,
              "duration": 0.28125
            },
            {
              "pitch": 101,
              "velocity": 75,
              "position": 1.7916666666666667,
              "duration": 0.10416666666666667
            },
            {
              "pitch": 62,
              "velocity": 40,
              "position": 1.7916666666666667,
              "duration": 0.1875
            },
            {
              "pitch": 67,
              "velocity": 40,
              "position": 1.7916666666666667,
              "duration": 0.1875
            },
            {
              "pitch": 59,
              "velocity": 40,
              "position": 1.7916666666666667,
              "duration": 0.1875
            },
            {
              "pitch": 100,
              "velocity": 90,
              "position": 1.9895833333333333,
              "duration": 0.10416666666666667
            },
            {
              "pitch": 62,
              "velocity": 52,
              "position": 1.9895833333333333,
              "duration": 0.2916666666666667
            },
            {
              "pitch": 67,
              "velocity": 52,
              "position": 1.9895833333333333,
              "duration": 0.2916666666666667
            },
            {
              "pitch": 59,
              "velocity": 52,
              "position": 1.9895833333333333,
              "duration": 0.2916666666666667
            },
            {
              "pitch": 59,
              "velocity": 50,
              "position": 2.2916666666666665,
              "duration": 0.10416666666666667
            },
            {
              "pitch": 99,
              "velocity": 94,
              "position": 2.2916666666666665,
              "duration": 0.10416666666666667
            },
            {
              "pitch": 67,
              "velocity": 50,
              "position": 2.2916666666666665,
              "duration": 0.10416666666666667
            },
            {
              "pitch": 62,
              "velocity": 50,
              "position": 2.2916666666666665,
              "duration": 0.10416666666666667
            },
            {
              "pitch": 97,
              "velocity": 73,
              "position": 2.7916666666666665,
              "duration": 0.10416666666666667
            },
            {
              "pitch": 67,
              "velocity": 50,
              "position": 2.808333333333333,
              "duration": 0.17083333333333334
            },
            {
              "pitch": 64,
              "velocity": 50,
              "position": 2.808333333333333,
              "duration": 0.17083333333333334
            },
            {
              "pitch": 59,
              "velocity": 50,
              "position": 2.808333333333333,
              "duration": 0.17083333333333334
            },
            {
              "pitch": 108,
              "velocity": 98,
              "position": 3,
              "duration": 0.10416666666666667
            },
            {
              "pitch": 64,
              "velocity": 59,
              "position": 3,
              "duration": 0.2791666666666667
            },
            {
              "pitch": 67,
              "velocity": 59,
              "position": 3,
              "duration": 0.2791666666666667
            },
            {
              "pitch": 59,
              "velocity": 59,
              "position": 3,
              "duration": 0.2791666666666667
            },
            {
              "pitch": 101,
              "velocity": 75,
              "position": 3.2916666666666665,
              "duration": 0.10416666666666667
            },
            {
              "pitch": 64,
              "velocity": 44,
              "position": 3.2916666666666665,
              "duration": 0.1875
            },
            {
              "pitch": 67,
              "velocity": 44,
              "position": 3.2916666666666665,
              "duration": 0.1875
            },
            {
              "pitch": 59,
              "velocity": 44,
              "position": 3.2916666666666665,
              "duration": 0.1875
            },
            {
              "pitch": 59,
              "velocity": 53,
              "position": 3.4895833333333335,
              "duration": 0.09375
            },
            {
              "pitch": 64,
              "velocity": 53,
              "position": 3.4895833333333335,
              "duration": 0.09375
            },
            {
              "pitch": 67,
              "velocity": 53,
              "position": 3.4895833333333335,
              "duration": 0.09375
            },
            {
              "pitch": 100,
              "velocity": 90,
              "position": 3.4895833333333335,
              "duration": 0.10416666666666667
            },
            {
              "pitch": 123,
              "velocity": 80,
              "position": 3.625,
              "duration": 0.20833333333333334
            },
            {
              "pitch": 99,
              "velocity": 73,
              "position": 3.7916666666666665,
              "duration": 0.10416666666666667
            },
            {
              "pitch": 67,
              "velocity": 39,
              "position": 3.7916666666666665,
              "duration": 0.1875
            },
            {
              "pitch": 64,
              "velocity": 39,
              "position": 3.7916666666666665,
              "duration": 0.1875
            },
            {
              "pitch": 59,
              "velocity": 39,
              "position": 3.7916666666666665,
              "duration": 0.1875
            },
            {
              "pitch": 108,
              "velocity": 106,
              "position": 4,
              "duration": 0.10416666666666667
            },
            {
              "pitch": 101,
              "velocity": 56,
              "position": 4.291666666666667,
              "duration": 0.10416666666666667
            },
            {
              "pitch": 100,
              "velocity": 60,
              "position": 4.489583333333333,
              "duration": 0.10416666666666667
            },
            {
              "pitch": 69,
              "velocity": 59,
              "position": 4.002083333333333,
              "duration": 0.6895833333333333
            },
            {
              "pitch": 64,
              "velocity": 59,
              "position": 4.002083333333333,
              "duration": 0.6895833333333333
            },
            {
              "pitch": 60,
              "velocity": 59,
              "position": 4.002083333333333,
              "duration": 0.6895833333333333
            },
            {
              "pitch": 99,
              "velocity": 110,
              "position": 4.791666666666667,
              "duration": 0.10416666666666667
            },
            {
              "pitch": 69,
              "velocity": 55,
              "position": 4.804166666666666,
              "duration": 0.15625
            },
            {
              "pitch": 60,
              "velocity": 55,
              "position": 4.804166666666666,
              "duration": 0.15625
            },
            {
              "pitch": 64,
              "velocity": 55,
              "position": 4.804166666666666,
              "duration": 0.19583333333333333
            },
            {
              "pitch": 60,
              "velocity": 80,
              "position": 5.291666666666667,
              "duration": 0.041666666666666664
            },
            {
              "pitch": 67,
              "velocity": 80,
              "position": 5.291666666666667,
              "duration": 0.041666666666666664
            },
            {
              "pitch": 64,
              "velocity": 80,
              "position": 5.291666666666667,
              "duration": 0.041666666666666664
            },
            {
              "pitch": 99,
              "velocity": 69,
              "position": 5.291666666666667,
              "duration": 0.10416666666666667
            },
            {
              "pitch": 125,
              "velocity": 90,
              "position": 5.25,
              "duration": 0.20833333333333334
            },
            {
              "pitch": 100,
              "velocity": 91,
              "position": 5.489583333333333,
              "duration": 0.10416666666666667
            },
            {
              "pitch": 60,
              "velocity": 58,
              "position": 5.5,
              "duration": 0.5541666666666667
            },
            {
              "pitch": 64,
              "velocity": 58,
              "position": 5.510416666666667,
              "duration": 0.5541666666666667
            },
            {
              "pitch": 67,
              "velocity": 58,
              "position": 5.520833333333333,
              "duration": 0.5541666666666667
            },
            {
              "pitch": 60,
              "velocity": 58,
              "position": 6.5,
              "duration": 0.5541666666666667
            },
            {
              "pitch": 64,
              "velocity": 58,
              "position": 6.510416666666667,
              "duration": 0.5541666666666667
            },
            {
              "pitch": 69,
              "velocity": 58,
              "position": 6.520833333333333,
              "duration": 0.5541666666666667
            },
            {
              "pitch": 59,
              "velocity": 60,
              "position": 7.5,
              "duration": 7.3375
            },
            {
              "pitch": 64,
              "velocity": 60,
              "position": 7.510416666666667,
              "duration": 7.3375
            },
            {
              "pitch": 67,
              "velocity": 60,
              "position": 7.520833333333333,
              "duration": 7.3375
            }
          ]
        },
        "12": {
          "ctab": {
            "srcChannel": 12,
            "name": "EP",
            "accType": "CHORD2",
            "editable": false,
            "mutedNotes": [],
            "mutedChords": [
              "dim7",
              "dim",
              "minMaj7(9)",
              "minMaj7",
              "min7(11)",
              "min7(9)",
              "min(9)",
              "m7b5",
              "min7",
              "min6",
              "min"
            ],
            "autoStart": false,
            "sourceChordNote": 0,
            "sourceChordType": "Maj",
            "ctb2Low": null,
            "ctb2Main": {
              "ntr": "ROOT_TRANSPOSITION",
              "ntt": "BYPASS",
              "bassOn": false,
              "chordRootUpperLimit": 10,
              "noteLowLimit": 0,
              "noteHighLimit": 127,
              "rtr": "PITCH_SHIFT"
            },
            "ctb2High": null
          },
          "notes": [
            {
              "pitch": 41,
              "velocity": 111,
              "position": 0,
              "duration": 0.7979166666666667
            },
            {
              "pitch": 64,
              "velocity": 91,
              "position": 0,
              "duration": 0.7979166666666667
            },
            {
              "pitch": 60,
              "velocity": 94,
              "position": 0,
              "duration": 0.7979166666666667
            },
            {
              "pitch": 57,
              "velocity": 86,
              "position": 0,
              "duration": 0.7979166666666667
            },
            {
              "pitch": 52,
              "velocity": 98,
              "position": 0,
              "duration": 0.7979166666666667
            },
            {
              "pitch": 41,
              "velocity": 88,
              "position": 0.8083333333333333,
              "duration": 0.19166666666666668
            },
            {
              "pitch": 64,
              "velocity": 94,
              "position": 0.8083333333333333,
              "duration": 0.2125
            },
            {
              "pitch": 60,
              "velocity": 94,
              "position": 0.8083333333333333,
              "duration": 0.2125
            },
            {
              "pitch": 52,
              "velocity": 73,
              "position": 0.8083333333333333,
              "duration": 0.2625
            },
            {
              "pitch": 69,
              "velocity": 77,
              "position": 0.8083333333333333,
              "duration": 0.2875
            },
            {
              "pitch": 52,
              "velocity": 68,
              "position": 1.5,
              "duration": 0.1625
            },
            {
              "pitch": 40,
              "velocity": 87,
              "position": 1.5,
              "duration": 0.2791666666666667
            },
            {
              "pitch": 59,
              "velocity": 102,
              "position": 1.5,
              "duration": 0.2791666666666667
            },
            {
              "pitch": 62,
              "velocity": 94,
              "position": 1.5,
              "duration": 0.29791666666666666
            },
            {
              "pitch": 67,
              "velocity": 94,
              "position": 1.5,
              "duration": 0.3541666666666667
            },
            {
              "pitch": 55,
              "velocity": 86,
              "position": 1.5,
              "duration": 0.5
            },
            {
              "pitch": 33,
              "velocity": 77,
              "position": 2.5,
              "duration": 0.9229166666666667
            },
            {
              "pitch": 45,
              "velocity": 48,
              "position": 2.308333333333333,
              "duration": 1.2041666666666666
            },
            {
              "pitch": 59,
              "velocity": 98,
              "position": 2.5,
              "duration": 1.0458333333333334
            },
            {
              "pitch": 52,
              "velocity": 98,
              "position": 2.5,
              "duration": 1.2083333333333333
            },
            {
              "pitch": 55,
              "velocity": 94,
              "position": 2.5,
              "duration": 1.33125
            },
            {
              "pitch": 62,
              "velocity": 100,
              "position": 2.5,
              "duration": 1.3729166666666666
            },
            {
              "pitch": 38,
              "velocity": 98,
              "position": 4,
              "duration": 0.5041666666666667
            },
            {
              "pitch": 57,
              "velocity": 111,
              "position": 4,
              "duration": 0.6041666666666666
            },
            {
              "pitch": 60,
              "velocity": 109,
              "position": 4,
              "duration": 0.6270833333333333
            },
            {
              "pitch": 53,
              "velocity": 100,
              "position": 4,
              "duration": 0.6270833333333333
            },
            {
              "pitch": 64,
              "velocity": 96,
              "position": 4,
              "duration": 0.66875
            },
            {
              "pitch": 69,
              "velocity": 102,
              "position": 4.808333333333334,
              "duration": 0.22708333333333333
            },
            {
              "pitch": 52,
              "velocity": 77,
              "position": 4.808333333333334,
              "duration": 0.26875
            },
            {
              "pitch": 59,
              "velocity": 94,
              "position": 4.808333333333334,
              "duration": 0.29791666666666666
            },
            {
              "pitch": 62,
              "velocity": 94,
              "position": 4.808333333333334,
              "duration": 0.29791666666666666
            },
            {
              "pitch": 55,
              "velocity": 94,
              "position": 4.808333333333334,
              "duration": 0.29791666666666666
            },
            {
              "pitch": 64,
              "velocity": 105,
              "position": 4.808333333333334,
              "duration": 0.30833333333333335
            },
            {
              "pitch": 40,
              "velocity": 109,
              "position": 4.808333333333334,
              "duration": 0.31875
            },
            {
              "pitch": 48,
              "velocity": 73,
              "position": 5.308333333333334,
              "duration": 0.36666666666666664
            },
            {
              "pitch": 41,
              "velocity": 102,
              "position": 5.5,
              "duration": 0.30625
            },
            {
              "pitch": 60,
              "velocity": 100,
              "position": 5.5,
              "duration": 0.32083333333333336
            },
            {
              "pitch": 53,
              "velocity": 111,
              "position": 5.5,
              "duration": 0.3541666666666667
            },
            {
              "pitch": 64,
              "velocity": 105,
              "position": 5.5,
              "duration": 0.3875
            },
            {
              "pitch": 67,
              "velocity": 102,
              "position": 5.5,
              "duration": 0.40208333333333335
            },
            {
              "pitch": 50,
              "velocity": 84,
              "position": 6.308333333333334,
              "duration": 0.5958333333333333
            },
            {
              "pitch": 53,
              "velocity": 102,
              "position": 6.5,
              "duration": 0.40625
            },
            {
              "pitch": 69,
              "velocity": 107,
              "position": 6.5,
              "duration": 0.42916666666666664
            },
            {
              "pitch": 64,
              "velocity": 87,
              "position": 6.5,
              "duration": 0.46875
            },
            {
              "pitch": 57,
              "velocity": 109,
              "position": 6.5,
              "duration": 0.50625
            },
            {
              "pitch": 62,
              "velocity": 102,
              "position": 6.5,
              "duration": 0.5125
            },
            {
              "pitch": 43,
              "velocity": 98,
              "position": 6.5,
              "duration": 0.59375
            },
            {
              "pitch": 36,
              "velocity": 87,
              "position": 7.5,
              "duration": 7.416666666666667
            },
            {
              "pitch": 64,
              "velocity": 98,
              "position": 7.5,
              "duration": 7.416666666666667
            },
            {
              "pitch": 62,
              "velocity": 83,
              "position": 7.5,
              "duration": 7.416666666666667
            },
            {
              "pitch": 55,
              "velocity": 79,
              "position": 7.5,
              "duration": 7.416666666666667
            },
            {
              "pitch": 52,
              "velocity": 90,
              "position": 7.5,
              "duration": 7.416666666666667
            },
            {
              "pitch": 50,
              "velocity": 86,
              "position": 7.5,
              "duration": 7.416666666666667
            },
            {
              "pitch": 43,
              "velocity": 89,
              "position": 7.5,
              "duration": 7.416666666666667
            }
          ]
        },
        "13": {
          "ctab": {
            "srcChannel": 13,
            "name": "Pad",
            "accType": "PAD",
            "editable": false,
            "mutedNotes": [],
            "mutedChords": [
              "dim7",
              "dim",
              "minMaj7(9)",
              "minMaj7",
              "min7(11)",
              "min7(9)",
              "min(9)",
              "m7b5",
              "min7",
              "min6",
              "min"
            ],
            "autoStart": false,
            "sourceChordNote": 0,
            "sourceChordType": "Maj",
            "ctb2Low": null,
            "ctb2Main": {
              "ntr": "ROOT_TRANSPOSITION",
              "ntt": "BYPASS",
              "bassOn": false,
              "chordRootUpperLimit": 5,
              "noteLowLimit": 0,
              "noteHighLimit": 79,
              "rtr": "PITCH_SHIFT"
            },
            "ctb2High": null
          },
          "notes": [
            {
              "pitch": 79,
              "velocity": 88,
              "position": 0,
              "duration": 4.808333333333334
            },
            {
              "pitch": 81,
              "velocity": 88,
              "position": 4.808333333333334,
              "duration": 0.38333333333333336
            },
            {
              "pitch": 79,
              "velocity": 88,
              "position": 5.5,
              "duration": 0.5
            },
            {
              "pitch": 81,
              "velocity": 88,
              "position": 6.5,
              "duration": 0.5
            },
            {
              "pitch": 76,
              "velocity": 88,
              "position": 7.5,
              "duration": 7.666666666666667
            }
          ]
        },
        "14": {
          "ctab": {
            "srcChannel": 14,
            "name": "Mute",
            "accType": "PHRASE1",
            "editable": false,
            "mutedNotes": [],
            "mutedChords": [
              "dim7",
              "dim",
              "minMaj7(9)",
              "minMaj7",
              "min7(11)",
              "min7(9)",
              "min(9)",
              "m7b5",
              "min7",
              "min6",
              "min"
            ],
            "autoStart": false,
            "sourceChordNote": 0,
            "sourceChordType": "Maj",
            "ctb2Low": null,
            "ctb2Main": {
              "ntr": "ROOT_TRANSPOSITION",
              "ntt": "BYPASS",
              "bassOn": false,
              "chordRootUpperLimit": 11,
              "noteLowLimit": 52,
              "noteHighLimit": 71,
              "rtr": "PITCH_SHIFT"
            },
            "ctb2High": null
          },
          "notes": [
            {
              "pitch": 64,
              "velocity": 55,
              "position": 0,
              "duration": 0.8083333333333333
            },
            {
              "pitch": 69,
              "velocity": 55,
              "position": 0.8083333333333333,
              "duration": 0.19166666666666668
            },
            {
              "pitch": 67,
              "velocity": 55,
              "position": 1.5,
              "duration": 0.30833333333333335
            },
            {
              "pitch": 62,
              "velocity": 55,
              "position": 2.5,
              "duration": 1.1666666666666667
            },
            {
              "pitch": 60,
              "velocity": 95,
              "position": 3.6666666666666665,
              "duration": 0.16666666666666666
            },
            {
              "pitch": 62,
              "velocity": 95,
              "position": 3.8333333333333335,
              "duration": 0.16666666666666666
            },
            {
              "pitch": 64,
              "velocity": 55,
              "position": 4,
              "duration": 0.8083333333333333
            },
            {
              "pitch": 69,
              "velocity": 55,
              "position": 4.808333333333334,
              "duration": 0.19166666666666668
            },
            {
              "pitch": 67,
              "velocity": 55,
              "position": 5.5,
              "duration": 0.30833333333333335
            },
            {
              "pitch": 69,
              "velocity": 55,
              "position": 6.5,
              "duration": 0.30833333333333335
            },
            {
              "pitch": 48,
              "velocity": 53,
              "position": 7.5,
              "duration": 7.5
            },
            {
              "pitch": 55,
              "velocity": 53,
              "position": 7.541666666666667,
              "duration": 7.5
            },
            {
              "pitch": 62,
              "velocity": 53,
              "position": 7.583333333333333,
              "duration": 7.5
            },
            {
              "pitch": 64,
              "velocity": 53,
              "position": 7.625,
              "duration": 7.5
            }
          ]
        }
      }
    },
    "Intro_C": {
      "type": "Intro_C",
      "sizeInBeats": 32,
      "channels": {
        "1": {
          "ctab": {
            "srcChannel": 1,
            "name": "Bass",
            "accType": "BASS",
            "editable": false,
            "mutedNotes": [],
            "mutedChords": [
              "1+2+5",
              "sus4",
              "1+5",
              "1+8",
              "7aug",
              "Maj7aug",
              "7(#9)",
              "7(b13)",
              "7(b9)",
              "7(13)",
              "7#11",
              "7(9)",
              "7b5",
              "7sus4",
              "7th",
              "aug",
              "Maj6(9)",
              "Maj7(9)",
              "Maj(9)",
              "Maj7#11",
              "Maj7",
              "Maj6",
              "Maj"
            ],
            "autoStart": false,
            "sourceChordNote": 0,
            "sourceChordType": "min",
            "ctb2Low": null,
            "ctb2Main": {
              "ntr": "ROOT_TRANSPOSITION",
              "ntt": "BYPASS",
              "bassOn": false,
              "chordRootUpperLimit": 3,
              "noteLowLimit": 28,
              "noteHighLimit": 127,
              "rtr": "PITCH_SHIFT"
            },
            "ctb2High": null
          },
          "notes": [
            {
              "pitch": 44,
              "velocity": 60,
              "position": 12,
              "duration": 0.6666666666666666
            },
            {
              "pitch": 43,
              "velocity": 60,
              "position": 12.666666666666666,
              "duration": 0.16666666666666666
            },
            {
              "pitch": 41,
              "velocity": 60,
              "position": 12.833333333333334,
              "duration": 0.16666666666666666
            },
            {
              "pitch": 39,
              "velocity": 60,
              "position": 13,
              "duration": 0.6666666666666666
            },
            {
              "pitch": 41,
              "velocity": 60,
              "position": 13.666666666666666,
              "duration": 0.16666666666666666
            },
            {
              "pitch": 39,
              "velocity": 60,
              "position": 13.833333333333334,
              "duration": 0.16666666666666666
            },
            {
              "pitch": 38,
              "velocity": 60,
              "position": 14,
              "duration": 0.6666666666666666
            },
            {
              "pitch": 33,
              "velocity": 60,
              "position": 14.666666666666666,
              "duration": 0.16666666666666666
            },
            {
              "pitch": 32,
              "velocity": 60,
              "position": 14.833333333333334,
              "duration": 0.16666666666666666
            },
            {
              "pitch": 31,
              "velocity": 60,
              "position": 15,
              "duration": 1
            },
            {
              "pitch": 24,
              "velocity": 63,
              "position": 16,
              "duration": 0.4166666666666667
            },
            {
              "pitch": 24,
              "velocity": 96,
              "position": 16.5,
              "duration": 0.0625
            },
            {
              "pitch": 48,
              "velocity": 66,
              "position": 16.833333333333332,
              "duration": 0.17708333333333334
            },
            {
              "pitch": 36,
              "velocity": 59,
              "position": 17.833333333333332,
              "duration": 0.65625
            },
            {
              "pitch": 36,
              "velocity": 63,
              "position": 18.5,
              "duration": 0.2916666666666667
            },
            {
              "pitch": 31,
              "velocity": 60,
              "position": 19.333333333333332,
              "duration": 0.17708333333333334
            },
            {
              "pitch": 33,
              "velocity": 54,
              "position": 19.5,
              "duration": 0.4791666666666667
            },
            {
              "pitch": 22,
              "velocity": 63,
              "position": 20,
              "duration": 0.78125
            },
            {
              "pitch": 46,
              "velocity": 65,
              "position": 20.833333333333332,
              "duration": 0.17708333333333334
            },
            {
              "pitch": 34,
              "velocity": 59,
              "position": 21.833333333333332,
              "duration": 0.6666666666666666
            },
            {
              "pitch": 43,
              "velocity": 64,
              "position": 22.5,
              "duration": 0.2916666666666667
            },
            {
              "pitch": 41,
              "velocity": 60,
              "position": 23,
              "duration": 0.32083333333333336
            },
            {
              "pitch": 41,
              "velocity": 60,
              "position": 23.333333333333332,
              "duration": 0.17708333333333334
            },
            {
              "pitch": 46,
              "velocity": 59,
              "position": 23.5,
              "duration": 0.4791666666666667
            },
            {
              "pitch": 33,
              "velocity": 66,
              "position": 24,
              "duration": 0.4166666666666667
            },
            {
              "pitch": 33,
              "velocity": 96,
              "position": 24.5,
              "duration": 0.0625
            },
            {
              "pitch": 45,
              "velocity": 65,
              "position": 24.833333333333332,
              "duration": 0.17708333333333334
            },
            {
              "pitch": 32,
              "velocity": 59,
              "position": 25.833333333333332,
              "duration": 0.6666666666666666
            },
            {
              "pitch": 32,
              "velocity": 63,
              "position": 26.5,
              "duration": 0.2916666666666667
            },
            {
              "pitch": 31,
              "velocity": 60,
              "position": 27.333333333333332,
              "duration": 0.17708333333333334
            },
            {
              "pitch": 32,
              "velocity": 59,
              "position": 27.5,
              "duration": 0.4791666666666667
            },
            {
              "pitch": 29,
              "velocity": 66,
              "position": 28,
              "duration": 0.78125
            },
            {
              "pitch": 26,
              "velocity": 65,
              "position": 28.833333333333332,
              "duration": 1.0104166666666667
            },
            {
              "pitch": 31,
              "velocity": 59,
              "position": 29.833333333333332,
              "duration": 0.3333333333333333
            },
            {
              "pitch": 97,
              "velocity": 90,
              "position": 30.5,
              "duration": 1.4166666666666667
            }
          ]
        },
        "2": {
          "ctab": {
            "srcChannel": 2,
            "name": "Gtr",
            "accType": "CHORD1",
            "editable": false,
            "mutedNotes": [],
            "mutedChords": [
              "1+2+5",
              "sus4",
              "1+5",
              "1+8",
              "7aug",
              "Maj7aug",
              "7(#9)",
              "7(b13)",
              "7(b9)",
              "7(13)",
              "7#11",
              "7(9)",
              "7b5",
              "7sus4",
              "7th",
              "aug",
              "Maj6(9)",
              "Maj7(9)",
              "Maj(9)",
              "Maj7#11",
              "Maj7",
              "Maj6",
              "Maj"
            ],
            "autoStart": false,
            "sourceChordNote": 0,
            "sourceChordType": "min",
            "ctb2Low": null,
            "ctb2Main": {
              "ntr": "ROOT_TRANSPOSITION",
              "ntt": "BYPASS",
              "bassOn": false,
              "chordRootUpperLimit": 2,
              "noteLowLimit": 57,
              "noteHighLimit": 79,
              "rtr": "PITCH_SHIFT"
            },
            "ctb2High": null
          },
          "notes": [
            {
              "pitch": 100,
              "velocity": 91,
              "position": 16,
              "duration": 0.15625
            },
            {
              "pitch": 58,
              "velocity": 53,
              "position": 16,
              "duration": 0.78125
            },
            {
              "pitch": 63,
              "velocity": 53,
              "position": 16.010416666666668,
              "duration": 0.78125
            },
            {
              "pitch": 72,
              "velocity": 53,
              "position": 16.03125,
              "duration": 0.7666666666666667
            },
            {
              "pitch": 67,
              "velocity": 53,
              "position": 16.020833333333332,
              "duration": 0.78125
            },
            {
              "pitch": 72,
              "velocity": 50,
              "position": 16.808333333333334,
              "duration": 0.10416666666666667
            },
            {
              "pitch": 67,
              "velocity": 50,
              "position": 16.81875,
              "duration": 0.10416666666666667
            },
            {
              "pitch": 63,
              "velocity": 50,
              "position": 16.829166666666666,
              "duration": 0.10416666666666667
            },
            {
              "pitch": 58,
              "velocity": 50,
              "position": 16.839583333333334,
              "duration": 0.10416666666666667
            },
            {
              "pitch": 99,
              "velocity": 73,
              "position": 16.808333333333334,
              "duration": 0.15625
            },
            {
              "pitch": 72,
              "velocity": 69,
              "position": 17.308333333333334,
              "duration": 0.041666666666666664
            },
            {
              "pitch": 67,
              "velocity": 69,
              "position": 17.31875,
              "duration": 0.041666666666666664
            },
            {
              "pitch": 63,
              "velocity": 69,
              "position": 17.329166666666666,
              "duration": 0.041666666666666664
            },
            {
              "pitch": 58,
              "velocity": 69,
              "position": 17.339583333333334,
              "duration": 0.041666666666666664
            },
            {
              "pitch": 99,
              "velocity": 75,
              "position": 17.308333333333334,
              "duration": 0.15625
            },
            {
              "pitch": 100,
              "velocity": 91,
              "position": 17.5,
              "duration": 0.15625
            },
            {
              "pitch": 58,
              "velocity": 41,
              "position": 17.5,
              "duration": 0.78125
            },
            {
              "pitch": 63,
              "velocity": 49,
              "position": 17.510416666666668,
              "duration": 0.78125
            },
            {
              "pitch": 67,
              "velocity": 49,
              "position": 17.520833333333332,
              "duration": 0.78125
            },
            {
              "pitch": 72,
              "velocity": 49,
              "position": 17.53125,
              "duration": 0.7729166666666667
            },
            {
              "pitch": 72,
              "velocity": 58,
              "position": 18.308333333333334,
              "duration": 0.10416666666666667
            },
            {
              "pitch": 67,
              "velocity": 58,
              "position": 18.31875,
              "duration": 0.10416666666666667
            },
            {
              "pitch": 63,
              "velocity": 58,
              "position": 18.329166666666666,
              "duration": 0.10416666666666667
            },
            {
              "pitch": 58,
              "velocity": 58,
              "position": 18.339583333333334,
              "duration": 0.10416666666666667
            },
            {
              "pitch": 99,
              "velocity": 72,
              "position": 18.308333333333334,
              "duration": 0.15625
            },
            {
              "pitch": 58,
              "velocity": 71,
              "position": 18.5,
              "duration": 0.052083333333333336
            },
            {
              "pitch": 63,
              "velocity": 71,
              "position": 18.510416666666668,
              "duration": 0.052083333333333336
            },
            {
              "pitch": 67,
              "velocity": 71,
              "position": 18.520833333333332,
              "duration": 0.052083333333333336
            },
            {
              "pitch": 72,
              "velocity": 71,
              "position": 18.53125,
              "duration": 0.052083333333333336
            },
            {
              "pitch": 100,
              "velocity": 91,
              "position": 18.5,
              "duration": 0.15625
            },
            {
              "pitch": 72,
              "velocity": 65,
              "position": 18.808333333333334,
              "duration": 0.041666666666666664
            },
            {
              "pitch": 67,
              "velocity": 65,
              "position": 18.81875,
              "duration": 0.041666666666666664
            },
            {
              "pitch": 63,
              "velocity": 65,
              "position": 18.829166666666666,
              "duration": 0.041666666666666664
            },
            {
              "pitch": 58,
              "velocity": 65,
              "position": 18.839583333333334,
              "duration": 0.041666666666666664
            },
            {
              "pitch": 99,
              "velocity": 79,
              "position": 18.808333333333334,
              "duration": 0.15625
            },
            {
              "pitch": 100,
              "velocity": 91,
              "position": 19,
              "duration": 0.15625
            },
            {
              "pitch": 58,
              "velocity": 59,
              "position": 19,
              "duration": 0.28125
            },
            {
              "pitch": 63,
              "velocity": 59,
              "position": 19.010416666666668,
              "duration": 0.28125
            },
            {
              "pitch": 67,
              "velocity": 59,
              "position": 19.020833333333332,
              "duration": 0.28125
            },
            {
              "pitch": 72,
              "velocity": 59,
              "position": 19.03125,
              "duration": 0.2708333333333333
            },
            {
              "pitch": 72,
              "velocity": 44,
              "position": 19.308333333333334,
              "duration": 0.11458333333333333
            },
            {
              "pitch": 67,
              "velocity": 44,
              "position": 19.31875,
              "duration": 0.11458333333333333
            },
            {
              "pitch": 63,
              "velocity": 44,
              "position": 19.329166666666666,
              "duration": 0.11458333333333333
            },
            {
              "pitch": 58,
              "velocity": 44,
              "position": 19.339583333333334,
              "duration": 0.11458333333333333
            },
            {
              "pitch": 99,
              "velocity": 73,
              "position": 19.308333333333334,
              "duration": 0.15625
            },
            {
              "pitch": 58,
              "velocity": 52,
              "position": 19.5,
              "duration": 0.11458333333333333
            },
            {
              "pitch": 63,
              "velocity": 52,
              "position": 19.510416666666668,
              "duration": 0.11458333333333333
            },
            {
              "pitch": 67,
              "velocity": 52,
              "position": 19.520833333333332,
              "duration": 0.11458333333333333
            },
            {
              "pitch": 72,
              "velocity": 52,
              "position": 19.53125,
              "duration": 0.11458333333333333
            },
            {
              "pitch": 100,
              "velocity": 91,
              "position": 19.5,
              "duration": 0.15625
            },
            {
              "pitch": 99,
              "velocity": 73,
              "position": 19.808333333333334,
              "duration": 0.15625
            },
            {
              "pitch": 72,
              "velocity": 39,
              "position": 19.808333333333334,
              "duration": 0.16666666666666666
            },
            {
              "pitch": 67,
              "velocity": 39,
              "position": 19.81875,
              "duration": 0.16666666666666666
            },
            {
              "pitch": 63,
              "velocity": 39,
              "position": 19.829166666666666,
              "duration": 0.16666666666666666
            },
            {
              "pitch": 58,
              "velocity": 39,
              "position": 19.839583333333334,
              "duration": 0.15625
            },
            {
              "pitch": 100,
              "velocity": 91,
              "position": 20,
              "duration": 0.15625
            },
            {
              "pitch": 58,
              "velocity": 52,
              "position": 20,
              "duration": 0.28125
            },
            {
              "pitch": 63,
              "velocity": 59,
              "position": 20.010416666666668,
              "duration": 0.28125
            },
            {
              "pitch": 67,
              "velocity": 59,
              "position": 20.020833333333332,
              "duration": 0.28125
            },
            {
              "pitch": 72,
              "velocity": 59,
              "position": 20.03125,
              "duration": 0.27291666666666664
            },
            {
              "pitch": 72,
              "velocity": 36,
              "position": 20.308333333333334,
              "duration": 0.10416666666666667
            },
            {
              "pitch": 67,
              "velocity": 36,
              "position": 20.31875,
              "duration": 0.10416666666666667
            },
            {
              "pitch": 63,
              "velocity": 36,
              "position": 20.329166666666666,
              "duration": 0.10416666666666667
            },
            {
              "pitch": 58,
              "velocity": 32,
              "position": 20.339583333333334,
              "duration": 0.10416666666666667
            },
            {
              "pitch": 99,
              "velocity": 71,
              "position": 20.308333333333334,
              "duration": 0.15625
            },
            {
              "pitch": 58,
              "velocity": 69,
              "position": 20.5,
              "duration": 0.052083333333333336
            },
            {
              "pitch": 63,
              "velocity": 69,
              "position": 20.510416666666668,
              "duration": 0.052083333333333336
            },
            {
              "pitch": 67,
              "velocity": 69,
              "position": 20.520833333333332,
              "duration": 0.052083333333333336
            },
            {
              "pitch": 72,
              "velocity": 69,
              "position": 20.53125,
              "duration": 0.052083333333333336
            },
            {
              "pitch": 100,
              "velocity": 93,
              "position": 20.5,
              "duration": 0.15625
            },
            {
              "pitch": 72,
              "velocity": 55,
              "position": 20.808333333333334,
              "duration": 0.15625
            },
            {
              "pitch": 99,
              "velocity": 72,
              "position": 20.808333333333334,
              "duration": 0.15625
            },
            {
              "pitch": 67,
              "velocity": 55,
              "position": 20.81875,
              "duration": 0.15625
            },
            {
              "pitch": 63,
              "velocity": 55,
              "position": 20.829166666666666,
              "duration": 0.15625
            },
            {
              "pitch": 58,
              "velocity": 55,
              "position": 20.839583333333334,
              "duration": 0.15625
            },
            {
              "pitch": 58,
              "velocity": 80,
              "position": 21.308333333333334,
              "duration": 0.041666666666666664
            },
            {
              "pitch": 63,
              "velocity": 80,
              "position": 21.31875,
              "duration": 0.041666666666666664
            },
            {
              "pitch": 67,
              "velocity": 80,
              "position": 21.329166666666666,
              "duration": 0.041666666666666664
            },
            {
              "pitch": 72,
              "velocity": 80,
              "position": 21.339583333333334,
              "duration": 0.041666666666666664
            },
            {
              "pitch": 99,
              "velocity": 69,
              "position": 21.308333333333334,
              "duration": 0.15625
            },
            {
              "pitch": 100,
              "velocity": 91,
              "position": 21.5,
              "duration": 0.15625
            },
            {
              "pitch": 72,
              "velocity": 115,
              "position": 21.5,
              "duration": 0.78125
            },
            {
              "pitch": 67,
              "velocity": 115,
              "position": 21.510416666666668,
              "duration": 0.78125
            },
            {
              "pitch": 63,
              "velocity": 115,
              "position": 21.520833333333332,
              "duration": 0.78125
            },
            {
              "pitch": 58,
              "velocity": 115,
              "position": 21.53125,
              "duration": 0.78125
            },
            {
              "pitch": 72,
              "velocity": 69,
              "position": 22.308333333333334,
              "duration": 0.10416666666666667
            },
            {
              "pitch": 67,
              "velocity": 69,
              "position": 22.31875,
              "duration": 0.10416666666666667
            },
            {
              "pitch": 63,
              "velocity": 69,
              "position": 22.329166666666666,
              "duration": 0.10416666666666667
            },
            {
              "pitch": 58,
              "velocity": 69,
              "position": 22.339583333333334,
              "duration": 0.10416666666666667
            },
            {
              "pitch": 99,
              "velocity": 71,
              "position": 22.308333333333334,
              "duration": 0.15625
            },
            {
              "pitch": 58,
              "velocity": 82,
              "position": 22.5,
              "duration": 0.052083333333333336
            },
            {
              "pitch": 63,
              "velocity": 82,
              "position": 22.510416666666668,
              "duration": 0.052083333333333336
            },
            {
              "pitch": 67,
              "velocity": 82,
              "position": 22.520833333333332,
              "duration": 0.052083333333333336
            },
            {
              "pitch": 72,
              "velocity": 82,
              "position": 22.53125,
              "duration": 0.052083333333333336
            },
            {
              "pitch": 100,
              "velocity": 91,
              "position": 22.5,
              "duration": 0.15625
            },
            {
              "pitch": 72,
              "velocity": 66,
              "position": 22.808333333333334,
              "duration": 0.041666666666666664
            },
            {
              "pitch": 67,
              "velocity": 66,
              "position": 22.81875,
              "duration": 0.041666666666666664
            },
            {
              "pitch": 63,
              "velocity": 66,
              "position": 22.829166666666666,
              "duration": 0.041666666666666664
            },
            {
              "pitch": 58,
              "velocity": 66,
              "position": 22.839583333333334,
              "duration": 0.041666666666666664
            },
            {
              "pitch": 99,
              "velocity": 71,
              "position": 22.808333333333334,
              "duration": 0.15625
            },
            {
              "pitch": 100,
              "velocity": 91,
              "position": 23,
              "duration": 0.15625
            },
            {
              "pitch": 58,
              "velocity": 47,
              "position": 23,
              "duration": 0.28125
            },
            {
              "pitch": 63,
              "velocity": 55,
              "position": 23.010416666666668,
              "duration": 0.28125
            },
            {
              "pitch": 67,
              "velocity": 55,
              "position": 23.020833333333332,
              "duration": 0.28125
            },
            {
              "pitch": 72,
              "velocity": 55,
              "position": 23.03125,
              "duration": 0.27291666666666664
            },
            {
              "pitch": 72,
              "velocity": 65,
              "position": 23.308333333333334,
              "duration": 0.11458333333333333
            },
            {
              "pitch": 67,
              "velocity": 65,
              "position": 23.31875,
              "duration": 0.11458333333333333
            },
            {
              "pitch": 63,
              "velocity": 65,
              "position": 23.329166666666666,
              "duration": 0.11458333333333333
            },
            {
              "pitch": 58,
              "velocity": 65,
              "position": 23.339583333333334,
              "duration": 0.11458333333333333
            },
            {
              "pitch": 99,
              "velocity": 72,
              "position": 23.308333333333334,
              "duration": 0.15625
            },
            {
              "pitch": 58,
              "velocity": 41,
              "position": 23.5,
              "duration": 0.11458333333333333
            },
            {
              "pitch": 63,
              "velocity": 41,
              "position": 23.510416666666668,
              "duration": 0.11458333333333333
            },
            {
              "pitch": 67,
              "velocity": 41,
              "position": 23.520833333333332,
              "duration": 0.11458333333333333
            },
            {
              "pitch": 72,
              "velocity": 41,
              "position": 23.53125,
              "duration": 0.11458333333333333
            },
            {
              "pitch": 100,
              "velocity": 91,
              "position": 23.5,
              "duration": 0.15625
            },
            {
              "pitch": 99,
              "velocity": 67,
              "position": 23.808333333333334,
              "duration": 0.15625
            },
            {
              "pitch": 72,
              "velocity": 36,
              "position": 23.808333333333334,
              "duration": 0.16666666666666666
            },
            {
              "pitch": 67,
              "velocity": 36,
              "position": 23.81875,
              "duration": 0.16666666666666666
            },
            {
              "pitch": 63,
              "velocity": 36,
              "position": 23.829166666666666,
              "duration": 0.16666666666666666
            },
            {
              "pitch": 58,
              "velocity": 36,
              "position": 23.839583333333334,
              "duration": 0.15625
            },
            {
              "pitch": 100,
              "velocity": 93,
              "position": 24,
              "duration": 0.15625
            },
            {
              "pitch": 57,
              "velocity": 115,
              "position": 24,
              "duration": 0.78125
            },
            {
              "pitch": 63,
              "velocity": 115,
              "position": 24.010416666666668,
              "duration": 0.78125
            },
            {
              "pitch": 67,
              "velocity": 115,
              "position": 24.020833333333332,
              "duration": 0.78125
            },
            {
              "pitch": 72,
              "velocity": 115,
              "position": 24.03125,
              "duration": 0.7708333333333334
            },
            {
              "pitch": 72,
              "velocity": 70,
              "position": 24.808333333333334,
              "duration": 0.10416666666666667
            },
            {
              "pitch": 67,
              "velocity": 70,
              "position": 24.81875,
              "duration": 0.10416666666666667
            },
            {
              "pitch": 63,
              "velocity": 70,
              "position": 24.829166666666666,
              "duration": 0.10416666666666667
            },
            {
              "pitch": 57,
              "velocity": 70,
              "position": 24.839583333333334,
              "duration": 0.10416666666666667
            },
            {
              "pitch": 99,
              "velocity": 72,
              "position": 24.808333333333334,
              "duration": 0.15625
            },
            {
              "pitch": 100,
              "velocity": 91,
              "position": 25.5,
              "duration": 0.15625
            },
            {
              "pitch": 56,
              "velocity": 46,
              "position": 25.808333333333334,
              "duration": 0.4625
            },
            {
              "pitch": 72,
              "velocity": 50,
              "position": 25.839583333333334,
              "duration": 0.43125
            },
            {
              "pitch": 67,
              "velocity": 50,
              "position": 25.829166666666666,
              "duration": 0.44166666666666665
            },
            {
              "pitch": 63,
              "velocity": 50,
              "position": 25.81875,
              "duration": 0.45208333333333334
            },
            {
              "pitch": 72,
              "velocity": 88,
              "position": 26.308333333333334,
              "duration": 0.10416666666666667
            },
            {
              "pitch": 67,
              "velocity": 88,
              "position": 26.31875,
              "duration": 0.10416666666666667
            },
            {
              "pitch": 63,
              "velocity": 88,
              "position": 26.329166666666666,
              "duration": 0.10416666666666667
            },
            {
              "pitch": 56,
              "velocity": 88,
              "position": 26.339583333333334,
              "duration": 0.10416666666666667
            },
            {
              "pitch": 99,
              "velocity": 77,
              "position": 26.308333333333334,
              "duration": 0.15625
            },
            {
              "pitch": 56,
              "velocity": 40,
              "position": 26.5,
              "duration": 0.052083333333333336
            },
            {
              "pitch": 63,
              "velocity": 40,
              "position": 26.510416666666668,
              "duration": 0.052083333333333336
            },
            {
              "pitch": 67,
              "velocity": 40,
              "position": 26.520833333333332,
              "duration": 0.052083333333333336
            },
            {
              "pitch": 72,
              "velocity": 40,
              "position": 26.53125,
              "duration": 0.052083333333333336
            },
            {
              "pitch": 100,
              "velocity": 91,
              "position": 26.5,
              "duration": 0.15625
            },
            {
              "pitch": 72,
              "velocity": 69,
              "position": 26.808333333333334,
              "duration": 0.041666666666666664
            },
            {
              "pitch": 67,
              "velocity": 69,
              "position": 26.81875,
              "duration": 0.041666666666666664
            },
            {
              "pitch": 63,
              "velocity": 69,
              "position": 26.829166666666666,
              "duration": 0.041666666666666664
            },
            {
              "pitch": 56,
              "velocity": 69,
              "position": 26.839583333333334,
              "duration": 0.041666666666666664
            },
            {
              "pitch": 99,
              "velocity": 77,
              "position": 26.808333333333334,
              "duration": 0.15625
            },
            {
              "pitch": 100,
              "velocity": 91,
              "position": 27,
              "duration": 0.15625
            },
            {
              "pitch": 56,
              "velocity": 50,
              "position": 27,
              "duration": 0.28125
            },
            {
              "pitch": 63,
              "velocity": 58,
              "position": 27.010416666666668,
              "duration": 0.28125
            },
            {
              "pitch": 67,
              "velocity": 58,
              "position": 27.020833333333332,
              "duration": 0.28125
            },
            {
              "pitch": 72,
              "velocity": 58,
              "position": 27.03125,
              "duration": 0.27291666666666664
            },
            {
              "pitch": 72,
              "velocity": 65,
              "position": 27.308333333333334,
              "duration": 0.11458333333333333
            },
            {
              "pitch": 67,
              "velocity": 65,
              "position": 27.31875,
              "duration": 0.11458333333333333
            },
            {
              "pitch": 63,
              "velocity": 65,
              "position": 27.329166666666666,
              "duration": 0.11458333333333333
            },
            {
              "pitch": 56,
              "velocity": 65,
              "position": 27.339583333333334,
              "duration": 0.11458333333333333
            },
            {
              "pitch": 101,
              "velocity": 91,
              "position": 27.308333333333334,
              "duration": 0.15625
            },
            {
              "pitch": 56,
              "velocity": 58,
              "position": 27.5,
              "duration": 0.11458333333333333
            },
            {
              "pitch": 105,
              "velocity": 94,
              "position": 27.5,
              "duration": 0.11458333333333333
            },
            {
              "pitch": 63,
              "velocity": 72,
              "position": 27.510416666666668,
              "duration": 0.13541666666666666
            },
            {
              "pitch": 67,
              "velocity": 72,
              "position": 27.520833333333332,
              "duration": 0.13541666666666666
            },
            {
              "pitch": 72,
              "velocity": 72,
              "position": 27.53125,
              "duration": 0.13541666666666666
            },
            {
              "pitch": 99,
              "velocity": 96,
              "position": 27.808333333333334,
              "duration": 0.11458333333333333
            },
            {
              "pitch": 101,
              "velocity": 80,
              "position": 27.808333333333334,
              "duration": 0.15625
            },
            {
              "pitch": 72,
              "velocity": 40,
              "position": 27.808333333333334,
              "duration": 0.16666666666666666
            },
            {
              "pitch": 67,
              "velocity": 40,
              "position": 27.81875,
              "duration": 0.16666666666666666
            },
            {
              "pitch": 63,
              "velocity": 40,
              "position": 27.829166666666666,
              "duration": 0.16666666666666666
            },
            {
              "pitch": 56,
              "velocity": 49,
              "position": 27.839583333333334,
              "duration": 0.15833333333333333
            },
            {
              "pitch": 100,
              "velocity": 91,
              "position": 28,
              "duration": 0.15625
            },
            {
              "pitch": 63,
              "velocity": 52,
              "position": 28,
              "duration": 0.28125
            },
            {
              "pitch": 65,
              "velocity": 59,
              "position": 28.010416666666668,
              "duration": 0.28125
            },
            {
              "pitch": 68,
              "velocity": 59,
              "position": 28.020833333333332,
              "duration": 0.28125
            },
            {
              "pitch": 72,
              "velocity": 59,
              "position": 28.03125,
              "duration": 0.2708333333333333
            },
            {
              "pitch": 72,
              "velocity": 71,
              "position": 28.308333333333334,
              "duration": 0.10416666666666667
            },
            {
              "pitch": 68,
              "velocity": 71,
              "position": 28.31875,
              "duration": 0.10416666666666667
            },
            {
              "pitch": 65,
              "velocity": 71,
              "position": 28.329166666666666,
              "duration": 0.10416666666666667
            },
            {
              "pitch": 63,
              "velocity": 71,
              "position": 28.339583333333334,
              "duration": 0.125
            },
            {
              "pitch": 99,
              "velocity": 77,
              "position": 28.308333333333334,
              "duration": 0.15625
            },
            {
              "pitch": 63,
              "velocity": 50,
              "position": 28.5,
              "duration": 0.052083333333333336
            },
            {
              "pitch": 65,
              "velocity": 50,
              "position": 28.510416666666668,
              "duration": 0.052083333333333336
            },
            {
              "pitch": 68,
              "velocity": 50,
              "position": 28.520833333333332,
              "duration": 0.052083333333333336
            },
            {
              "pitch": 72,
              "velocity": 50,
              "position": 28.53125,
              "duration": 0.07291666666666667
            },
            {
              "pitch": 100,
              "velocity": 91,
              "position": 28.5,
              "duration": 0.15625
            },
            {
              "pitch": 72,
              "velocity": 54,
              "position": 28.808333333333334,
              "duration": 0.15625
            },
            {
              "pitch": 99,
              "velocity": 77,
              "position": 28.808333333333334,
              "duration": 0.15625
            },
            {
              "pitch": 69,
              "velocity": 54,
              "position": 28.81875,
              "duration": 0.15625
            },
            {
              "pitch": 66,
              "velocity": 54,
              "position": 28.829166666666666,
              "duration": 0.15625
            },
            {
              "pitch": 62,
              "velocity": 54,
              "position": 28.839583333333334,
              "duration": 0.15208333333333332
            },
            {
              "pitch": 62,
              "velocity": 72,
              "position": 29,
              "duration": 0.052083333333333336
            },
            {
              "pitch": 66,
              "velocity": 72,
              "position": 29.010416666666668,
              "duration": 0.052083333333333336
            },
            {
              "pitch": 69,
              "velocity": 72,
              "position": 29.020833333333332,
              "duration": 0.052083333333333336
            },
            {
              "pitch": 72,
              "velocity": 72,
              "position": 29.03125,
              "duration": 0.07291666666666667
            },
            {
              "pitch": 100,
              "velocity": 91,
              "position": 29,
              "duration": 0.15625
            },
            {
              "pitch": 99,
              "velocity": 77,
              "position": 29.308333333333334,
              "duration": 0.15625
            },
            {
              "pitch": 72,
              "velocity": 86,
              "position": 29.308333333333334,
              "duration": 0.16666666666666666
            },
            {
              "pitch": 69,
              "velocity": 86,
              "position": 29.31875,
              "duration": 0.16666666666666666
            },
            {
              "pitch": 62,
              "velocity": 86,
              "position": 29.339583333333334,
              "duration": 0.15
            },
            {
              "pitch": 66,
              "velocity": 86,
              "position": 29.329166666666666,
              "duration": 0.16666666666666666
            },
            {
              "pitch": 62,
              "velocity": 68,
              "position": 29.5,
              "duration": 0.052083333333333336
            },
            {
              "pitch": 66,
              "velocity": 68,
              "position": 29.510416666666668,
              "duration": 0.052083333333333336
            },
            {
              "pitch": 69,
              "velocity": 68,
              "position": 29.520833333333332,
              "duration": 0.052083333333333336
            },
            {
              "pitch": 72,
              "velocity": 68,
              "position": 29.53125,
              "duration": 0.07291666666666667
            },
            {
              "pitch": 100,
              "velocity": 91,
              "position": 29.5,
              "duration": 0.15625
            },
            {
              "pitch": 99,
              "velocity": 77,
              "position": 29.808333333333334,
              "duration": 0.15625
            },
            {
              "pitch": 70,
              "velocity": 51,
              "position": 29.808333333333334,
              "duration": 0.16666666666666666
            },
            {
              "pitch": 67,
              "velocity": 51,
              "position": 29.81875,
              "duration": 0.16666666666666666
            },
            {
              "pitch": 59,
              "velocity": 51,
              "position": 29.839583333333334,
              "duration": 0.15208333333333332
            },
            {
              "pitch": 65,
              "velocity": 51,
              "position": 29.829166666666666,
              "duration": 0.16666666666666666
            },
            {
              "pitch": 59,
              "velocity": 83,
              "position": 30,
              "duration": 0.052083333333333336
            },
            {
              "pitch": 65,
              "velocity": 83,
              "position": 30.010416666666668,
              "duration": 0.052083333333333336
            },
            {
              "pitch": 67,
              "velocity": 83,
              "position": 30.020833333333332,
              "duration": 0.052083333333333336
            },
            {
              "pitch": 70,
              "velocity": 83,
              "position": 30.03125,
              "duration": 0.07291666666666667
            },
            {
              "pitch": 100,
              "velocity": 91,
              "position": 30,
              "duration": 0.15625
            },
            {
              "pitch": 99,
              "velocity": 77,
              "position": 30.308333333333334,
              "duration": 0.15625
            },
            {
              "pitch": 70,
              "velocity": 87,
              "position": 30.308333333333334,
              "duration": 0.16666666666666666
            },
            {
              "pitch": 67,
              "velocity": 87,
              "position": 30.31875,
              "duration": 0.16666666666666666
            },
            {
              "pitch": 59,
              "velocity": 87,
              "position": 30.339583333333334,
              "duration": 0.15208333333333332
            },
            {
              "pitch": 65,
              "velocity": 87,
              "position": 30.329166666666666,
              "duration": 0.16666666666666666
            },
            {
              "pitch": 59,
              "velocity": 68,
              "position": 30.5,
              "duration": 0.052083333333333336
            },
            {
              "pitch": 65,
              "velocity": 68,
              "position": 30.510416666666668,
              "duration": 0.052083333333333336
            },
            {
              "pitch": 67,
              "velocity": 68,
              "position": 30.520833333333332,
              "duration": 0.052083333333333336
            },
            {
              "pitch": 70,
              "velocity": 68,
              "position": 30.53125,
              "duration": 0.07291666666666667
            },
            {
              "pitch": 100,
              "velocity": 91,
              "position": 30.5,
              "duration": 0.15625
            },
            {
              "pitch": 70,
              "velocity": 64,
              "position": 30.808333333333334,
              "duration": 0.11458333333333333
            },
            {
              "pitch": 67,
              "velocity": 64,
              "position": 30.81875,
              "duration": 0.11458333333333333
            },
            {
              "pitch": 65,
              "velocity": 64,
              "position": 30.829166666666666,
              "duration": 0.11458333333333333
            },
            {
              "pitch": 99,
              "velocity": 77,
              "position": 30.808333333333334,
              "duration": 0.15625
            },
            {
              "pitch": 59,
              "velocity": 64,
              "position": 30.839583333333334,
              "duration": 0.13541666666666666
            },
            {
              "pitch": 100,
              "velocity": 91,
              "position": 31,
              "duration": 0.15625
            },
            {
              "pitch": 59,
              "velocity": 49,
              "position": 31,
              "duration": 0.28125
            },
            {
              "pitch": 65,
              "velocity": 57,
              "position": 31.010416666666668,
              "duration": 0.28125
            },
            {
              "pitch": 67,
              "velocity": 57,
              "position": 31.020833333333332,
              "duration": 0.28125
            },
            {
              "pitch": 70,
              "velocity": 57,
              "position": 31.03125,
              "duration": 0.2708333333333333
            },
            {
              "pitch": 70,
              "velocity": 34,
              "position": 31.308333333333334,
              "duration": 0.11458333333333333
            },
            {
              "pitch": 67,
              "velocity": 34,
              "position": 31.31875,
              "duration": 0.11458333333333333
            },
            {
              "pitch": 65,
              "velocity": 34,
              "position": 31.329166666666666,
              "duration": 0.11458333333333333
            },
            {
              "pitch": 99,
              "velocity": 77,
              "position": 31.308333333333334,
              "duration": 0.15625
            },
            {
              "pitch": 59,
              "velocity": 34,
              "position": 31.339583333333334,
              "duration": 0.13541666666666666
            },
            {
              "pitch": 100,
              "velocity": 91,
              "position": 31.5,
              "duration": 0.15625
            },
            {
              "pitch": 70,
              "velocity": 57,
              "position": 31.53125,
              "duration": 0.23958333333333334
            },
            {
              "pitch": 59,
              "velocity": 49,
              "position": 31.5,
              "duration": 0.28125
            },
            {
              "pitch": 65,
              "velocity": 57,
              "position": 31.510416666666668,
              "duration": 0.28125
            },
            {
              "pitch": 67,
              "velocity": 57,
              "position": 31.520833333333332,
              "duration": 0.28125
            },
            {
              "pitch": 70,
              "velocity": 34,
              "position": 31.808333333333334,
              "duration": 0.11458333333333333
            },
            {
              "pitch": 67,
              "velocity": 34,
              "position": 31.81875,
              "duration": 0.11458333333333333
            },
            {
              "pitch": 65,
              "velocity": 34,
              "position": 31.829166666666666,
              "duration": 0.11458333333333333
            },
            {
              "pitch": 59,
              "velocity": 34,
              "position": 31.839583333333334,
              "duration": 0.11458333333333333
            },
            {
              "pitch": 99,
              "velocity": 77,
              "position": 31.808333333333334,
              "duration": 0.15625
            }
          ]
        },
        "3": {
          "ctab": {
            "srcChannel": 3,
            "name": "EP",
            "accType": "CHORD2",
            "editable": false,
            "mutedNotes": [],
            "mutedChords": [
              "1+2+5",
              "sus4",
              "1+5",
              "1+8",
              "7aug",
              "Maj7aug",
              "7(#9)",
              "7(b13)",
              "7(b9)",
              "7(13)",
              "7#11",
              "7(9)",
              "7b5",
              "7sus4",
              "7th",
              "aug",
              "Maj6(9)",
              "Maj7(9)",
              "Maj(9)",
              "Maj7#11",
              "Maj7",
              "Maj6",
              "Maj"
            ],
            "autoStart": false,
            "sourceChordNote": 0,
            "sourceChordType": "min",
            "ctb2Low": null,
            "ctb2Main": {
              "ntr": "ROOT_TRANSPOSITION",
              "ntt": "BYPASS",
              "bassOn": false,
              "chordRootUpperLimit": 10,
              "noteLowLimit": 0,
              "noteHighLimit": 127,
              "rtr": "PITCH_SHIFT"
            },
            "ctb2High": null
          },
          "notes": [
            {
              "pitch": 60,
              "velocity": 74,
              "position": 0,
              "duration": 0.20416666666666666
            },
            {
              "pitch": 55,
              "velocity": 76,
              "position": 0,
              "duration": 0.22916666666666666
            },
            {
              "pitch": 58,
              "velocity": 86,
              "position": 0,
              "duration": 0.23958333333333334
            },
            {
              "pitch": 63,
              "velocity": 86,
              "position": 0,
              "duration": 0.24583333333333332
            },
            {
              "pitch": 55,
              "velocity": 86,
              "position": 0.30833333333333335,
              "duration": 0.08333333333333333
            },
            {
              "pitch": 63,
              "velocity": 84,
              "position": 0.30833333333333335,
              "duration": 0.09166666666666666
            },
            {
              "pitch": 60,
              "velocity": 71,
              "position": 0.30833333333333335,
              "duration": 0.10416666666666667
            },
            {
              "pitch": 58,
              "velocity": 98,
              "position": 0.30833333333333335,
              "duration": 0.12916666666666668
            },
            {
              "pitch": 55,
              "velocity": 94,
              "position": 0.5,
              "duration": 0.11875
            },
            {
              "pitch": 58,
              "velocity": 89,
              "position": 0.5,
              "duration": 0.13125
            },
            {
              "pitch": 60,
              "velocity": 96,
              "position": 0.5,
              "duration": 0.16458333333333333
            },
            {
              "pitch": 63,
              "velocity": 76,
              "position": 0.5,
              "duration": 0.17916666666666667
            },
            {
              "pitch": 55,
              "velocity": 127,
              "position": 0.8083333333333333,
              "duration": 0.125
            },
            {
              "pitch": 58,
              "velocity": 84,
              "position": 0.8083333333333333,
              "duration": 0.15
            },
            {
              "pitch": 63,
              "velocity": 84,
              "position": 0.8083333333333333,
              "duration": 0.20833333333333334
            },
            {
              "pitch": 60,
              "velocity": 77,
              "position": 0.8083333333333333,
              "duration": 0.23333333333333334
            },
            {
              "pitch": 57,
              "velocity": 91,
              "position": 1.3083333333333333,
              "duration": 0.12291666666666666
            },
            {
              "pitch": 60,
              "velocity": 91,
              "position": 1.3083333333333333,
              "duration": 0.15
            },
            {
              "pitch": 62,
              "velocity": 94,
              "position": 1.3083333333333333,
              "duration": 0.1625
            },
            {
              "pitch": 65,
              "velocity": 96,
              "position": 1.3083333333333333,
              "duration": 0.16458333333333333
            },
            {
              "pitch": 48,
              "velocity": 84,
              "position": 0,
              "duration": 1.8375
            },
            {
              "pitch": 60,
              "velocity": 89,
              "position": 1.8083333333333333,
              "duration": 0.09166666666666666
            },
            {
              "pitch": 58,
              "velocity": 84,
              "position": 1.8083333333333333,
              "duration": 0.09791666666666667
            },
            {
              "pitch": 55,
              "velocity": 94,
              "position": 1.8083333333333333,
              "duration": 0.12083333333333333
            },
            {
              "pitch": 63,
              "velocity": 94,
              "position": 1.8083333333333333,
              "duration": 0.12916666666666668
            },
            {
              "pitch": 36,
              "velocity": 86,
              "position": 0,
              "duration": 1.9708333333333334
            },
            {
              "pitch": 62,
              "velocity": 100,
              "position": 2.308333333333333,
              "duration": 0.41875
            },
            {
              "pitch": 53,
              "velocity": 107,
              "position": 2.308333333333333,
              "duration": 0.48333333333333334
            },
            {
              "pitch": 58,
              "velocity": 98,
              "position": 2.308333333333333,
              "duration": 0.49583333333333335
            },
            {
              "pitch": 55,
              "velocity": 94,
              "position": 2.308333333333333,
              "duration": 0.5208333333333334
            },
            {
              "pitch": 51,
              "velocity": 76,
              "position": 3,
              "duration": 0.14583333333333334
            },
            {
              "pitch": 53,
              "velocity": 76,
              "position": 3,
              "duration": 0.19166666666666668
            },
            {
              "pitch": 60,
              "velocity": 91,
              "position": 3,
              "duration": 0.2
            },
            {
              "pitch": 58,
              "velocity": 84,
              "position": 3,
              "duration": 0.21458333333333332
            },
            {
              "pitch": 43,
              "velocity": 70,
              "position": 3.308333333333333,
              "duration": 0.09583333333333334
            },
            {
              "pitch": 51,
              "velocity": 86,
              "position": 3.5,
              "duration": 0.2520833333333333
            },
            {
              "pitch": 62,
              "velocity": 84,
              "position": 3.5,
              "duration": 0.35625
            },
            {
              "pitch": 55,
              "velocity": 71,
              "position": 3.5,
              "duration": 0.35625
            },
            {
              "pitch": 58,
              "velocity": 84,
              "position": 3.5,
              "duration": 0.3958333333333333
            },
            {
              "pitch": 36,
              "velocity": 86,
              "position": 3.808333333333333,
              "duration": 0.19791666666666666
            },
            {
              "pitch": 58,
              "velocity": 89,
              "position": 4,
              "duration": 0.07708333333333334
            },
            {
              "pitch": 60,
              "velocity": 102,
              "position": 4,
              "duration": 0.15416666666666667
            },
            {
              "pitch": 63,
              "velocity": 94,
              "position": 4,
              "duration": 0.18958333333333333
            },
            {
              "pitch": 55,
              "velocity": 102,
              "position": 4,
              "duration": 0.34791666666666665
            },
            {
              "pitch": 63,
              "velocity": 18,
              "position": 4.308333333333334,
              "duration": 0.0875
            },
            {
              "pitch": 60,
              "velocity": 70,
              "position": 4.308333333333334,
              "duration": 0.10625
            },
            {
              "pitch": 58,
              "velocity": 67,
              "position": 4.308333333333334,
              "duration": 0.10833333333333334
            },
            {
              "pitch": 58,
              "velocity": 74,
              "position": 4.5,
              "duration": 0.06875
            },
            {
              "pitch": 60,
              "velocity": 67,
              "position": 4.5,
              "duration": 0.08125
            },
            {
              "pitch": 55,
              "velocity": 42,
              "position": 4.5,
              "duration": 0.0875
            },
            {
              "pitch": 63,
              "velocity": 31,
              "position": 4.5,
              "duration": 0.0875
            },
            {
              "pitch": 58,
              "velocity": 94,
              "position": 4.808333333333334,
              "duration": 0.07083333333333333
            },
            {
              "pitch": 55,
              "velocity": 86,
              "position": 4.808333333333334,
              "duration": 0.11458333333333333
            },
            {
              "pitch": 60,
              "velocity": 91,
              "position": 4.808333333333334,
              "duration": 0.1375
            },
            {
              "pitch": 63,
              "velocity": 65,
              "position": 4.808333333333334,
              "duration": 0.14791666666666667
            },
            {
              "pitch": 58,
              "velocity": 84,
              "position": 5.308333333333334,
              "duration": 0.06041666666666667
            },
            {
              "pitch": 65,
              "velocity": 77,
              "position": 5.308333333333334,
              "duration": 0.06666666666666667
            },
            {
              "pitch": 62,
              "velocity": 96,
              "position": 5.308333333333334,
              "duration": 0.07916666666666666
            },
            {
              "pitch": 55,
              "velocity": 98,
              "position": 5.308333333333334,
              "duration": 0.13333333333333333
            },
            {
              "pitch": 46,
              "velocity": 96,
              "position": 4,
              "duration": 1.74375
            },
            {
              "pitch": 34,
              "velocity": 76,
              "position": 4,
              "duration": 1.8604166666666666
            },
            {
              "pitch": 58,
              "velocity": 94,
              "position": 5.808333333333334,
              "duration": 0.05625
            },
            {
              "pitch": 60,
              "velocity": 98,
              "position": 5.808333333333334,
              "duration": 0.0625
            },
            {
              "pitch": 63,
              "velocity": 98,
              "position": 5.808333333333334,
              "duration": 0.07083333333333333
            },
            {
              "pitch": 55,
              "velocity": 111,
              "position": 5.808333333333334,
              "duration": 0.07083333333333333
            },
            {
              "pitch": 41,
              "velocity": 74,
              "position": 6.308333333333334,
              "duration": 0.22916666666666666
            },
            {
              "pitch": 46,
              "velocity": 70,
              "position": 6.5,
              "duration": 0.18541666666666667
            },
            {
              "pitch": 58,
              "velocity": 87,
              "position": 6.5,
              "duration": 0.20416666666666666
            },
            {
              "pitch": 34,
              "velocity": 76,
              "position": 6.5,
              "duration": 0.28541666666666665
            },
            {
              "pitch": 55,
              "velocity": 94,
              "position": 6.5,
              "duration": 0.3020833333333333
            },
            {
              "pitch": 62,
              "velocity": 100,
              "position": 6.5,
              "duration": 0.32916666666666666
            },
            {
              "pitch": 51,
              "velocity": 102,
              "position": 6.5,
              "duration": 0.3333333333333333
            },
            {
              "pitch": 41,
              "velocity": 86,
              "position": 6.808333333333334,
              "duration": 0.21041666666666667
            },
            {
              "pitch": 34,
              "velocity": 73,
              "position": 7,
              "duration": 0.17916666666666667
            },
            {
              "pitch": 46,
              "velocity": 89,
              "position": 7,
              "duration": 0.25625
            },
            {
              "pitch": 51,
              "velocity": 86,
              "position": 7,
              "duration": 0.32083333333333336
            },
            {
              "pitch": 55,
              "velocity": 96,
              "position": 7,
              "duration": 0.3729166666666667
            },
            {
              "pitch": 60,
              "velocity": 82,
              "position": 7,
              "duration": 0.3875
            },
            {
              "pitch": 58,
              "velocity": 76,
              "position": 7,
              "duration": 0.42083333333333334
            },
            {
              "pitch": 46,
              "velocity": 82,
              "position": 7.5,
              "duration": 0.2125
            },
            {
              "pitch": 34,
              "velocity": 91,
              "position": 7.5,
              "duration": 0.24583333333333332
            },
            {
              "pitch": 51,
              "velocity": 77,
              "position": 7.5,
              "duration": 0.29583333333333334
            },
            {
              "pitch": 62,
              "velocity": 89,
              "position": 7.5,
              "duration": 0.3375
            },
            {
              "pitch": 55,
              "velocity": 76,
              "position": 7.5,
              "duration": 0.37916666666666665
            },
            {
              "pitch": 58,
              "velocity": 81,
              "position": 7.5,
              "duration": 0.38333333333333336
            },
            {
              "pitch": 41,
              "velocity": 67,
              "position": 7.808333333333334,
              "duration": 0.17916666666666667
            },
            {
              "pitch": 57,
              "velocity": 94,
              "position": 8,
              "duration": 0.08333333333333333
            },
            {
              "pitch": 55,
              "velocity": 91,
              "position": 8,
              "duration": 0.15
            },
            {
              "pitch": 60,
              "velocity": 89,
              "position": 8,
              "duration": 0.15
            },
            {
              "pitch": 63,
              "velocity": 102,
              "position": 8,
              "duration": 0.17708333333333334
            },
            {
              "pitch": 57,
              "velocity": 70,
              "position": 8.308333333333334,
              "duration": 0.07083333333333333
            },
            {
              "pitch": 55,
              "velocity": 52,
              "position": 8.308333333333334,
              "duration": 0.07291666666666667
            },
            {
              "pitch": 60,
              "velocity": 84,
              "position": 8.308333333333334,
              "duration": 0.07916666666666666
            },
            {
              "pitch": 63,
              "velocity": 29,
              "position": 8.308333333333334,
              "duration": 0.09791666666666667
            },
            {
              "pitch": 63,
              "velocity": 89,
              "position": 8.5,
              "duration": 0.06875
            },
            {
              "pitch": 55,
              "velocity": 70,
              "position": 8.5,
              "duration": 0.0875
            },
            {
              "pitch": 57,
              "velocity": 76,
              "position": 8.5,
              "duration": 0.125
            },
            {
              "pitch": 60,
              "velocity": 94,
              "position": 8.5,
              "duration": 0.14375
            },
            {
              "pitch": 57,
              "velocity": 94,
              "position": 8.808333333333334,
              "duration": 0.08333333333333333
            },
            {
              "pitch": 55,
              "velocity": 91,
              "position": 8.808333333333334,
              "duration": 0.15
            },
            {
              "pitch": 60,
              "velocity": 89,
              "position": 8.808333333333334,
              "duration": 0.15
            },
            {
              "pitch": 63,
              "velocity": 102,
              "position": 8.808333333333334,
              "duration": 0.17708333333333334
            },
            {
              "pitch": 65,
              "velocity": 96,
              "position": 9.308333333333334,
              "duration": 0.07083333333333333
            },
            {
              "pitch": 60,
              "velocity": 94,
              "position": 9.308333333333334,
              "duration": 0.075
            },
            {
              "pitch": 62,
              "velocity": 100,
              "position": 9.308333333333334,
              "duration": 0.09583333333333334
            },
            {
              "pitch": 57,
              "velocity": 96,
              "position": 9.308333333333334,
              "duration": 0.14583333333333334
            },
            {
              "pitch": 45,
              "velocity": 87,
              "position": 8,
              "duration": 1.8583333333333334
            },
            {
              "pitch": 57,
              "velocity": 94,
              "position": 9.808333333333334,
              "duration": 0.06041666666666667
            },
            {
              "pitch": 55,
              "velocity": 89,
              "position": 9.808333333333334,
              "duration": 0.06041666666666667
            },
            {
              "pitch": 60,
              "velocity": 89,
              "position": 9.808333333333334,
              "duration": 0.0625
            },
            {
              "pitch": 63,
              "velocity": 89,
              "position": 9.808333333333334,
              "duration": 0.0875
            },
            {
              "pitch": 33,
              "velocity": 76,
              "position": 8,
              "duration": 1.9625
            },
            {
              "pitch": 45,
              "velocity": 67,
              "position": 10.308333333333334,
              "duration": 0.42083333333333334
            },
            {
              "pitch": 62,
              "velocity": 91,
              "position": 10.5,
              "duration": 0.2375
            },
            {
              "pitch": 55,
              "velocity": 89,
              "position": 10.5,
              "duration": 0.2708333333333333
            },
            {
              "pitch": 51,
              "velocity": 98,
              "position": 10.5,
              "duration": 0.29375
            },
            {
              "pitch": 57,
              "velocity": 89,
              "position": 10.5,
              "duration": 0.3125
            },
            {
              "pitch": 45,
              "velocity": 73,
              "position": 10.808333333333334,
              "duration": 0.21666666666666667
            },
            {
              "pitch": 51,
              "velocity": 76,
              "position": 11,
              "duration": 0.13125
            },
            {
              "pitch": 55,
              "velocity": 84,
              "position": 11,
              "duration": 0.1875
            },
            {
              "pitch": 60,
              "velocity": 94,
              "position": 11,
              "duration": 0.24166666666666667
            },
            {
              "pitch": 57,
              "velocity": 70,
              "position": 11,
              "duration": 0.3020833333333333
            },
            {
              "pitch": 45,
              "velocity": 30,
              "position": 11.5,
              "duration": 0.10208333333333333
            },
            {
              "pitch": 50,
              "velocity": 94,
              "position": 11.5,
              "duration": 0.16041666666666668
            },
            {
              "pitch": 53,
              "velocity": 86,
              "position": 11.5,
              "duration": 0.2625
            },
            {
              "pitch": 57,
              "velocity": 86,
              "position": 11.5,
              "duration": 0.28125
            },
            {
              "pitch": 60,
              "velocity": 91,
              "position": 11.5,
              "duration": 0.30416666666666664
            },
            {
              "pitch": 45,
              "velocity": 43,
              "position": 11.808333333333334,
              "duration": 0.24791666666666667
            },
            {
              "pitch": 44,
              "velocity": 86,
              "position": 12,
              "duration": 0.33958333333333335
            },
            {
              "pitch": 32,
              "velocity": 86,
              "position": 12,
              "duration": 0.5145833333333333
            },
            {
              "pitch": 58,
              "velocity": 87,
              "position": 12,
              "duration": 0.6875
            },
            {
              "pitch": 55,
              "velocity": 87,
              "position": 12,
              "duration": 0.70625
            },
            {
              "pitch": 63,
              "velocity": 102,
              "position": 12,
              "duration": 0.7708333333333334
            },
            {
              "pitch": 60,
              "velocity": 91,
              "position": 12,
              "duration": 0.8208333333333333
            },
            {
              "pitch": 34,
              "velocity": 76,
              "position": 12.808333333333334,
              "duration": 0.2791666666666667
            },
            {
              "pitch": 27,
              "velocity": 89,
              "position": 13,
              "duration": 0.44375
            },
            {
              "pitch": 39,
              "velocity": 86,
              "position": 13,
              "duration": 0.61875
            },
            {
              "pitch": 55,
              "velocity": 100,
              "position": 13,
              "duration": 0.7645833333333333
            },
            {
              "pitch": 58,
              "velocity": 98,
              "position": 13,
              "duration": 0.7833333333333333
            },
            {
              "pitch": 65,
              "velocity": 89,
              "position": 13,
              "duration": 0.88125
            },
            {
              "pitch": 39,
              "velocity": 38,
              "position": 13.808333333333334,
              "duration": 0.18541666666666667
            },
            {
              "pitch": 62,
              "velocity": 96,
              "position": 13,
              "duration": 1
            },
            {
              "pitch": 57,
              "velocity": 96,
              "position": 14,
              "duration": 0.4479166666666667
            },
            {
              "pitch": 38,
              "velocity": 94,
              "position": 14,
              "duration": 0.68125
            },
            {
              "pitch": 60,
              "velocity": 96,
              "position": 14,
              "duration": 0.7375
            },
            {
              "pitch": 67,
              "velocity": 94,
              "position": 14,
              "duration": 0.8208333333333333
            },
            {
              "pitch": 64,
              "velocity": 96,
              "position": 14,
              "duration": 0.8270833333333333
            },
            {
              "pitch": 38,
              "velocity": 86,
              "position": 14.808333333333334,
              "duration": 0.1875
            },
            {
              "pitch": 37,
              "velocity": 89,
              "position": 15,
              "duration": 0.45
            },
            {
              "pitch": 49,
              "velocity": 76,
              "position": 15,
              "duration": 0.6625
            },
            {
              "pitch": 70,
              "velocity": 94,
              "position": 15,
              "duration": 0.7291666666666666
            },
            {
              "pitch": 65,
              "velocity": 107,
              "position": 15,
              "duration": 0.7979166666666667
            },
            {
              "pitch": 63,
              "velocity": 74,
              "position": 15,
              "duration": 0.80625
            },
            {
              "pitch": 59,
              "velocity": 107,
              "position": 15,
              "duration": 0.8145833333333333
            },
            {
              "pitch": 43,
              "velocity": 68,
              "position": 15.808333333333334,
              "duration": 0.25625
            },
            {
              "pitch": 60,
              "velocity": 89,
              "position": 16,
              "duration": 0.08541666666666667
            },
            {
              "pitch": 58,
              "velocity": 94,
              "position": 16,
              "duration": 0.10625
            },
            {
              "pitch": 63,
              "velocity": 89,
              "position": 16,
              "duration": 0.15416666666666667
            },
            {
              "pitch": 55,
              "velocity": 100,
              "position": 16,
              "duration": 0.33958333333333335
            },
            {
              "pitch": 60,
              "velocity": 70,
              "position": 16.308333333333334,
              "duration": 0.07291666666666667
            },
            {
              "pitch": 58,
              "velocity": 77,
              "position": 16.308333333333334,
              "duration": 0.09375
            },
            {
              "pitch": 63,
              "velocity": 31,
              "position": 16.308333333333334,
              "duration": 0.09375
            },
            {
              "pitch": 63,
              "velocity": 70,
              "position": 16.5,
              "duration": 0.0625
            },
            {
              "pitch": 55,
              "velocity": 56,
              "position": 16.5,
              "duration": 0.0875
            },
            {
              "pitch": 58,
              "velocity": 81,
              "position": 16.5,
              "duration": 0.09583333333333334
            },
            {
              "pitch": 60,
              "velocity": 62,
              "position": 16.5,
              "duration": 0.12083333333333333
            },
            {
              "pitch": 58,
              "velocity": 84,
              "position": 16.808333333333334,
              "duration": 0.0625
            },
            {
              "pitch": 60,
              "velocity": 94,
              "position": 16.808333333333334,
              "duration": 0.06458333333333334
            },
            {
              "pitch": 36,
              "velocity": 87,
              "position": 16,
              "duration": 0.8979166666666667
            },
            {
              "pitch": 55,
              "velocity": 96,
              "position": 16.808333333333334,
              "duration": 0.09166666666666666
            },
            {
              "pitch": 48,
              "velocity": 87,
              "position": 16,
              "duration": 0.9041666666666667
            },
            {
              "pitch": 63,
              "velocity": 102,
              "position": 16.808333333333334,
              "duration": 0.11875
            },
            {
              "pitch": 58,
              "velocity": 102,
              "position": 17.308333333333334,
              "duration": 0.06041666666666667
            },
            {
              "pitch": 65,
              "velocity": 102,
              "position": 17.308333333333334,
              "duration": 0.0625
            },
            {
              "pitch": 62,
              "velocity": 89,
              "position": 17.308333333333334,
              "duration": 0.08333333333333333
            },
            {
              "pitch": 55,
              "velocity": 96,
              "position": 17.308333333333334,
              "duration": 0.08333333333333333
            },
            {
              "pitch": 58,
              "velocity": 94,
              "position": 17.808333333333334,
              "duration": 0.04791666666666667
            },
            {
              "pitch": 63,
              "velocity": 87,
              "position": 17.808333333333334,
              "duration": 0.06041666666666667
            },
            {
              "pitch": 60,
              "velocity": 102,
              "position": 17.808333333333334,
              "duration": 0.06041666666666667
            },
            {
              "pitch": 55,
              "velocity": 105,
              "position": 17.808333333333334,
              "duration": 0.06041666666666667
            },
            {
              "pitch": 43,
              "velocity": 96,
              "position": 18.308333333333334,
              "duration": 0.3
            },
            {
              "pitch": 62,
              "velocity": 82,
              "position": 18.5,
              "duration": 0.2375
            },
            {
              "pitch": 58,
              "velocity": 77,
              "position": 18.5,
              "duration": 0.24583333333333332
            },
            {
              "pitch": 55,
              "velocity": 91,
              "position": 18.5,
              "duration": 0.26875
            },
            {
              "pitch": 51,
              "velocity": 91,
              "position": 18.5,
              "duration": 0.26875
            },
            {
              "pitch": 43,
              "velocity": 52,
              "position": 18.808333333333334,
              "duration": 0.11041666666666666
            },
            {
              "pitch": 51,
              "velocity": 76,
              "position": 19,
              "duration": 0.23541666666666666
            },
            {
              "pitch": 60,
              "velocity": 65,
              "position": 19,
              "duration": 0.2708333333333333
            },
            {
              "pitch": 55,
              "velocity": 87,
              "position": 19,
              "duration": 0.29375
            },
            {
              "pitch": 58,
              "velocity": 61,
              "position": 19,
              "duration": 0.29583333333333334
            },
            {
              "pitch": 43,
              "velocity": 98,
              "position": 19.308333333333334,
              "duration": 0.16875
            },
            {
              "pitch": 51,
              "velocity": 96,
              "position": 19.5,
              "duration": 0.29791666666666666
            },
            {
              "pitch": 62,
              "velocity": 86,
              "position": 19.5,
              "duration": 0.33125
            },
            {
              "pitch": 55,
              "velocity": 102,
              "position": 19.5,
              "duration": 0.3458333333333333
            },
            {
              "pitch": 58,
              "velocity": 102,
              "position": 19.5,
              "duration": 0.36041666666666666
            },
            {
              "pitch": 43,
              "velocity": 82,
              "position": 19.808333333333334,
              "duration": 0.22291666666666668
            },
            {
              "pitch": 58,
              "velocity": 70,
              "position": 20,
              "duration": 0.07083333333333333
            },
            {
              "pitch": 60,
              "velocity": 54,
              "position": 20,
              "duration": 0.08125
            },
            {
              "pitch": 63,
              "velocity": 65,
              "position": 20,
              "duration": 0.08333333333333333
            },
            {
              "pitch": 55,
              "velocity": 89,
              "position": 20,
              "duration": 0.18333333333333332
            },
            {
              "pitch": 55,
              "velocity": 61,
              "position": 20.308333333333334,
              "duration": 0.06875
            },
            {
              "pitch": 63,
              "velocity": 39,
              "position": 20.308333333333334,
              "duration": 0.0875
            },
            {
              "pitch": 60,
              "velocity": 68,
              "position": 20.308333333333334,
              "duration": 0.11041666666666666
            },
            {
              "pitch": 58,
              "velocity": 71,
              "position": 20.308333333333334,
              "duration": 0.15208333333333332
            },
            {
              "pitch": 55,
              "velocity": 61,
              "position": 20.5,
              "duration": 0.06875
            },
            {
              "pitch": 63,
              "velocity": 39,
              "position": 20.5,
              "duration": 0.0875
            },
            {
              "pitch": 60,
              "velocity": 68,
              "position": 20.5,
              "duration": 0.11041666666666666
            },
            {
              "pitch": 58,
              "velocity": 71,
              "position": 20.5,
              "duration": 0.15208333333333332
            },
            {
              "pitch": 55,
              "velocity": 113,
              "position": 20.808333333333334,
              "duration": 0.07916666666666666
            },
            {
              "pitch": 58,
              "velocity": 84,
              "position": 20.808333333333334,
              "duration": 0.12916666666666668
            },
            {
              "pitch": 60,
              "velocity": 102,
              "position": 20.808333333333334,
              "duration": 0.14583333333333334
            },
            {
              "pitch": 63,
              "velocity": 84,
              "position": 20.808333333333334,
              "duration": 0.14791666666666667
            },
            {
              "pitch": 46,
              "velocity": 65,
              "position": 20,
              "duration": 1.05625
            },
            {
              "pitch": 34,
              "velocity": 81,
              "position": 20,
              "duration": 1.1229166666666666
            },
            {
              "pitch": 58,
              "velocity": 89,
              "position": 21.308333333333334,
              "duration": 0.058333333333333334
            },
            {
              "pitch": 65,
              "velocity": 86,
              "position": 21.308333333333334,
              "duration": 0.06458333333333334
            },
            {
              "pitch": 62,
              "velocity": 94,
              "position": 21.308333333333334,
              "duration": 0.10625
            },
            {
              "pitch": 55,
              "velocity": 86,
              "position": 21.308333333333334,
              "duration": 0.14166666666666666
            },
            {
              "pitch": 55,
              "velocity": 81,
              "position": 21.808333333333334,
              "duration": 0.052083333333333336
            },
            {
              "pitch": 58,
              "velocity": 73,
              "position": 21.808333333333334,
              "duration": 0.06458333333333334
            },
            {
              "pitch": 60,
              "velocity": 67,
              "position": 21.808333333333334,
              "duration": 0.06875
            },
            {
              "pitch": 63,
              "velocity": 65,
              "position": 21.808333333333334,
              "duration": 0.12083333333333333
            },
            {
              "pitch": 46,
              "velocity": 89,
              "position": 22.308333333333334,
              "duration": 0.1625
            },
            {
              "pitch": 55,
              "velocity": 96,
              "position": 22.5,
              "duration": 0.2875
            },
            {
              "pitch": 58,
              "velocity": 102,
              "position": 22.5,
              "duration": 0.30833333333333335
            },
            {
              "pitch": 62,
              "velocity": 102,
              "position": 22.5,
              "duration": 0.32708333333333334
            },
            {
              "pitch": 65,
              "velocity": 100,
              "position": 22.5,
              "duration": 0.33541666666666664
            },
            {
              "pitch": 41,
              "velocity": 98,
              "position": 22.808333333333334,
              "duration": 0.15416666666666667
            },
            {
              "pitch": 67,
              "velocity": 98,
              "position": 23,
              "duration": 0.23125
            },
            {
              "pitch": 58,
              "velocity": 127,
              "position": 23,
              "duration": 0.2791666666666667
            },
            {
              "pitch": 65,
              "velocity": 96,
              "position": 23,
              "duration": 0.2916666666666667
            },
            {
              "pitch": 62,
              "velocity": 94,
              "position": 23,
              "duration": 0.29583333333333334
            },
            {
              "pitch": 34,
              "velocity": 94,
              "position": 23.308333333333334,
              "duration": 0.15
            },
            {
              "pitch": 65,
              "velocity": 67,
              "position": 23.5,
              "duration": 0.2791666666666667
            },
            {
              "pitch": 58,
              "velocity": 84,
              "position": 23.5,
              "duration": 0.29583333333333334
            },
            {
              "pitch": 55,
              "velocity": 98,
              "position": 23.5,
              "duration": 0.3
            },
            {
              "pitch": 62,
              "velocity": 68,
              "position": 23.5,
              "duration": 0.3020833333333333
            },
            {
              "pitch": 46,
              "velocity": 102,
              "position": 23.808333333333334,
              "duration": 0.16458333333333333
            },
            {
              "pitch": 55,
              "velocity": 89,
              "position": 24,
              "duration": 0.17291666666666666
            },
            {
              "pitch": 60,
              "velocity": 76,
              "position": 24,
              "duration": 0.17708333333333334
            },
            {
              "pitch": 57,
              "velocity": 94,
              "position": 24,
              "duration": 0.17916666666666667
            },
            {
              "pitch": 63,
              "velocity": 84,
              "position": 24,
              "duration": 0.2
            },
            {
              "pitch": 63,
              "velocity": 84,
              "position": 24.308333333333334,
              "duration": 0.07291666666666667
            },
            {
              "pitch": 55,
              "velocity": 61,
              "position": 24.308333333333334,
              "duration": 0.07916666666666666
            },
            {
              "pitch": 60,
              "velocity": 81,
              "position": 24.308333333333334,
              "duration": 0.08541666666666667
            },
            {
              "pitch": 57,
              "velocity": 71,
              "position": 24.308333333333334,
              "duration": 0.13125
            },
            {
              "pitch": 55,
              "velocity": 50,
              "position": 24.5,
              "duration": 0.075
            },
            {
              "pitch": 63,
              "velocity": 74,
              "position": 24.5,
              "duration": 0.08125
            },
            {
              "pitch": 60,
              "velocity": 54,
              "position": 24.5,
              "duration": 0.09583333333333334
            },
            {
              "pitch": 57,
              "velocity": 77,
              "position": 24.5,
              "duration": 0.11458333333333333
            },
            {
              "pitch": 55,
              "velocity": 89,
              "position": 24.808333333333334,
              "duration": 0.0875
            },
            {
              "pitch": 60,
              "velocity": 87,
              "position": 24.808333333333334,
              "duration": 0.12916666666666668
            },
            {
              "pitch": 63,
              "velocity": 87,
              "position": 24.808333333333334,
              "duration": 0.13958333333333334
            },
            {
              "pitch": 57,
              "velocity": 89,
              "position": 24.808333333333334,
              "duration": 0.14583333333333334
            },
            {
              "pitch": 45,
              "velocity": 96,
              "position": 24,
              "duration": 1.1
            },
            {
              "pitch": 33,
              "velocity": 70,
              "position": 24,
              "duration": 1.1125
            },
            {
              "pitch": 62,
              "velocity": 94,
              "position": 25.308333333333334,
              "duration": 0.08333333333333333
            },
            {
              "pitch": 58,
              "velocity": 105,
              "position": 25.308333333333334,
              "duration": 0.0875
            },
            {
              "pitch": 55,
              "velocity": 84,
              "position": 25.308333333333334,
              "duration": 0.09583333333333334
            },
            {
              "pitch": 65,
              "velocity": 94,
              "position": 25.308333333333334,
              "duration": 0.13958333333333334
            },
            {
              "pitch": 60,
              "velocity": 91,
              "position": 25.808333333333334,
              "duration": 0.06458333333333334
            },
            {
              "pitch": 55,
              "velocity": 94,
              "position": 25.808333333333334,
              "duration": 0.0875
            },
            {
              "pitch": 63,
              "velocity": 105,
              "position": 25.808333333333334,
              "duration": 0.1375
            },
            {
              "pitch": 57,
              "velocity": 87,
              "position": 25.808333333333334,
              "duration": 0.14166666666666666
            },
            {
              "pitch": 44,
              "velocity": 94,
              "position": 26.308333333333334,
              "duration": 0.2375
            },
            {
              "pitch": 51,
              "velocity": 94,
              "position": 26.5,
              "duration": 0.3
            },
            {
              "pitch": 58,
              "velocity": 71,
              "position": 26.5,
              "duration": 0.3
            },
            {
              "pitch": 62,
              "velocity": 86,
              "position": 26.5,
              "duration": 0.30625
            },
            {
              "pitch": 55,
              "velocity": 74,
              "position": 26.5,
              "duration": 0.32916666666666666
            },
            {
              "pitch": 51,
              "velocity": 98,
              "position": 27,
              "duration": 0.15625
            },
            {
              "pitch": 55,
              "velocity": 86,
              "position": 27,
              "duration": 0.21875
            },
            {
              "pitch": 56,
              "velocity": 87,
              "position": 27,
              "duration": 0.22083333333333333
            },
            {
              "pitch": 60,
              "velocity": 73,
              "position": 27,
              "duration": 0.22916666666666666
            },
            {
              "pitch": 36,
              "velocity": 87,
              "position": 27.308333333333334,
              "duration": 0.13541666666666666
            },
            {
              "pitch": 58,
              "velocity": 91,
              "position": 27.5,
              "duration": 0.12291666666666666
            },
            {
              "pitch": 51,
              "velocity": 94,
              "position": 27.5,
              "duration": 0.13125
            },
            {
              "pitch": 55,
              "velocity": 96,
              "position": 27.5,
              "duration": 0.15416666666666667
            },
            {
              "pitch": 62,
              "velocity": 102,
              "position": 27.5,
              "duration": 0.24583333333333332
            },
            {
              "pitch": 41,
              "velocity": 96,
              "position": 28,
              "duration": 0.20416666666666666
            },
            {
              "pitch": 29,
              "velocity": 105,
              "position": 28,
              "duration": 0.3333333333333333
            },
            {
              "pitch": 56,
              "velocity": 102,
              "position": 28,
              "duration": 0.4791666666666667
            },
            {
              "pitch": 60,
              "velocity": 102,
              "position": 28,
              "duration": 0.5729166666666666
            },
            {
              "pitch": 55,
              "velocity": 109,
              "position": 28,
              "duration": 0.6083333333333333
            },
            {
              "pitch": 63,
              "velocity": 89,
              "position": 28,
              "duration": 0.61875
            },
            {
              "pitch": 26,
              "velocity": 121,
              "position": 28.808333333333334,
              "duration": 0.5125
            },
            {
              "pitch": 38,
              "velocity": 113,
              "position": 28.808333333333334,
              "duration": 0.5854166666666667
            },
            {
              "pitch": 65,
              "velocity": 113,
              "position": 28.808333333333334,
              "duration": 0.7375
            },
            {
              "pitch": 54,
              "velocity": 67,
              "position": 28.808333333333334,
              "duration": 0.8
            },
            {
              "pitch": 58,
              "velocity": 111,
              "position": 28.808333333333334,
              "duration": 0.8208333333333333
            },
            {
              "pitch": 60,
              "velocity": 98,
              "position": 28.808333333333334,
              "duration": 0.8729166666666667
            },
            {
              "pitch": 63,
              "velocity": 127,
              "position": 29.808333333333334,
              "duration": 0.25
            },
            {
              "pitch": 43,
              "velocity": 111,
              "position": 29.808333333333334,
              "duration": 0.2520833333333333
            },
            {
              "pitch": 67,
              "velocity": 125,
              "position": 29.808333333333334,
              "duration": 0.26458333333333334
            },
            {
              "pitch": 60,
              "velocity": 117,
              "position": 29.808333333333334,
              "duration": 0.28958333333333336
            },
            {
              "pitch": 53,
              "velocity": 127,
              "position": 29.808333333333334,
              "duration": 0.3145833333333333
            },
            {
              "pitch": 55,
              "velocity": 89,
              "position": 29.808333333333334,
              "duration": 0.31875
            },
            {
              "pitch": 31,
              "velocity": 102,
              "position": 29.808333333333334,
              "duration": 0.3229166666666667
            }
          ]
        },
        "4": {
          "ctab": {
            "srcChannel": 4,
            "name": "Pad",
            "accType": "PAD",
            "editable": false,
            "mutedNotes": [],
            "mutedChords": [
              "1+2+5",
              "sus4",
              "1+5",
              "1+8",
              "7aug",
              "Maj7aug",
              "7(#9)",
              "7(b13)",
              "7(b9)",
              "7(13)",
              "7#11",
              "7(9)",
              "7b5",
              "7sus4",
              "7th",
              "aug",
              "Maj6(9)",
              "Maj7(9)",
              "Maj(9)",
              "Maj7#11",
              "Maj7",
              "Maj6",
              "Maj"
            ],
            "autoStart": false,
            "sourceChordNote": 0,
            "sourceChordType": "min",
            "ctb2Low": null,
            "ctb2Main": {
              "ntr": "ROOT_TRANSPOSITION",
              "ntt": "BYPASS",
              "bassOn": false,
              "chordRootUpperLimit": 7,
              "noteLowLimit": 0,
              "noteHighLimit": 79,
              "rtr": "PITCH_SHIFT"
            },
            "ctb2High": null
          },
          "notes": [
            {
              "pitch": 79,
              "velocity": 84,
              "position": 0,
              "duration": 14
            },
            {
              "pitch": 79,
              "velocity": 84,
              "position": 16,
              "duration": 14
            }
          ]
        },
        "5": {
          "ctab": {
            "srcChannel": 5,
            "name": "MuteGtr",
            "accType": "PHRASE1",
            "editable": true,
            "mutedNotes": [],
            "mutedChords": [
              "1+2+5",
              "sus4",
              "1+5",
              "1+8",
              "7aug",
              "Maj7aug",
              "7(#9)",
              "7(b13)",
              "7(b9)",
              "7(13)",
              "7#11",
              "7(9)",
              "7b5",
              "7sus4",
              "7th",
              "aug",
              "Maj6(9)",
              "Maj7(9)",
              "Maj(9)",
              "Maj7#11",
              "Maj7",
              "Maj6",
              "Maj"
            ],
            "autoStart": false,
            "sourceChordNote": 0,
            "sourceChordType": "min",
            "ctb2Low": null,
            "ctb2Main": {
              "ntr": "ROOT_TRANSPOSITION",
              "ntt": "BYPASS",
              "bassOn": false,
              "chordRootUpperLimit": 9,
              "noteLowLimit": 0,
              "noteHighLimit": 120,
              "rtr": "PITCH_SHIFT"
            },
            "ctb2High": null
          },
          "notes": [
            {
              "pitch": 60,
              "velocity": 38,
              "position": 0,
              "duration": 0.29583333333333334
            },
            {
              "pitch": 72,
              "velocity": 40,
              "position": 0.01875,
              "duration": 0.27708333333333335
            },
            {
              "pitch": 115,
              "velocity": 75,
              "position": 0,
              "duration": 0.3645833333333333
            },
            {
              "pitch": 60,
              "velocity": 78,
              "position": 0.32708333333333334,
              "duration": 0.16041666666666668
            },
            {
              "pitch": 72,
              "velocity": 4,
              "position": 0.30833333333333335,
              "duration": 0.17916666666666667
            },
            {
              "pitch": 114,
              "velocity": 40,
              "position": 0.30833333333333335,
              "duration": 0.19166666666666668
            },
            {
              "pitch": 60,
              "velocity": 80,
              "position": 0.5,
              "duration": 0.29583333333333334
            },
            {
              "pitch": 72,
              "velocity": 82,
              "position": 0.51875,
              "duration": 0.27708333333333335
            },
            {
              "pitch": 113,
              "velocity": 40,
              "position": 0.5,
              "duration": 0.30833333333333335
            },
            {
              "pitch": 114,
              "velocity": 75,
              "position": 0.8083333333333333,
              "duration": 0.14583333333333334
            },
            {
              "pitch": 60,
              "velocity": 38,
              "position": 0.8270833333333333,
              "duration": 0.16041666666666668
            },
            {
              "pitch": 72,
              "velocity": 40,
              "position": 0.8083333333333333,
              "duration": 0.17916666666666667
            },
            {
              "pitch": 60,
              "velocity": 63,
              "position": 1,
              "duration": 0.29583333333333334
            },
            {
              "pitch": 72,
              "velocity": 65,
              "position": 1.01875,
              "duration": 0.27708333333333335
            },
            {
              "pitch": 115,
              "velocity": 40,
              "position": 1,
              "duration": 0.30833333333333335
            },
            {
              "pitch": 72,
              "velocity": 40,
              "position": 1.3083333333333333,
              "duration": 0.17916666666666667
            },
            {
              "pitch": 60,
              "velocity": 78,
              "position": 1.3270833333333334,
              "duration": 0.1625
            },
            {
              "pitch": 114,
              "velocity": 40,
              "position": 1.3083333333333333,
              "duration": 0.19166666666666668
            },
            {
              "pitch": 115,
              "velocity": 75,
              "position": 1.5,
              "duration": 0.17708333333333334
            },
            {
              "pitch": 72,
              "velocity": 80,
              "position": 1.51875,
              "duration": 0.27708333333333335
            },
            {
              "pitch": 60,
              "velocity": 78,
              "position": 1.5,
              "duration": 0.29583333333333334
            },
            {
              "pitch": 114,
              "velocity": 75,
              "position": 1.8083333333333333,
              "duration": 0.125
            },
            {
              "pitch": 60,
              "velocity": 38,
              "position": 1.8270833333333334,
              "duration": 0.16041666666666668
            },
            {
              "pitch": 72,
              "velocity": 40,
              "position": 1.8083333333333333,
              "duration": 0.17916666666666667
            },
            {
              "pitch": 60,
              "velocity": 78,
              "position": 2,
              "duration": 0.29583333333333334
            },
            {
              "pitch": 72,
              "velocity": 80,
              "position": 2.01875,
              "duration": 0.27708333333333335
            },
            {
              "pitch": 113,
              "velocity": 40,
              "position": 2,
              "duration": 0.30833333333333335
            },
            {
              "pitch": 114,
              "velocity": 75,
              "position": 2.308333333333333,
              "duration": 0.125
            },
            {
              "pitch": 72,
              "velocity": 40,
              "position": 2.308333333333333,
              "duration": 0.15625
            },
            {
              "pitch": 60,
              "velocity": 38,
              "position": 2.3270833333333334,
              "duration": 0.15625
            },
            {
              "pitch": 60,
              "velocity": 78,
              "position": 2.5,
              "duration": 0.29583333333333334
            },
            {
              "pitch": 72,
              "velocity": 80,
              "position": 2.51875,
              "duration": 0.27708333333333335
            },
            {
              "pitch": 115,
              "velocity": 40,
              "position": 2.5,
              "duration": 0.30833333333333335
            },
            {
              "pitch": 114,
              "velocity": 75,
              "position": 2.808333333333333,
              "duration": 0.010416666666666666
            },
            {
              "pitch": 72,
              "velocity": 63,
              "position": 2.808333333333333,
              "duration": 0.17916666666666667
            },
            {
              "pitch": 60,
              "velocity": 61,
              "position": 2.8270833333333334,
              "duration": 0.16041666666666668
            },
            {
              "pitch": 115,
              "velocity": 75,
              "position": 3,
              "duration": 0.14583333333333334
            },
            {
              "pitch": 72,
              "velocity": 80,
              "position": 3.01875,
              "duration": 0.27708333333333335
            },
            {
              "pitch": 60,
              "velocity": 78,
              "position": 3,
              "duration": 0.29583333333333334
            },
            {
              "pitch": 114,
              "velocity": 75,
              "position": 3.308333333333333,
              "duration": 0.125
            },
            {
              "pitch": 72,
              "velocity": 63,
              "position": 3.308333333333333,
              "duration": 0.17916666666666667
            },
            {
              "pitch": 60,
              "velocity": 61,
              "position": 3.3270833333333334,
              "duration": 0.16458333333333333
            },
            {
              "pitch": 115,
              "velocity": 75,
              "position": 3.5,
              "duration": 0.010416666666666666
            },
            {
              "pitch": 60,
              "velocity": 78,
              "position": 3.5,
              "duration": 0.29583333333333334
            },
            {
              "pitch": 72,
              "velocity": 80,
              "position": 3.51875,
              "duration": 0.27708333333333335
            },
            {
              "pitch": 114,
              "velocity": 75,
              "position": 3.808333333333333,
              "duration": 0.010416666666666666
            },
            {
              "pitch": 72,
              "velocity": 63,
              "position": 3.808333333333333,
              "duration": 0.17916666666666667
            },
            {
              "pitch": 60,
              "velocity": 61,
              "position": 3.8270833333333334,
              "duration": 0.16041666666666668
            },
            {
              "pitch": 60,
              "velocity": 38,
              "position": 4,
              "duration": 0.29583333333333334
            },
            {
              "pitch": 72,
              "velocity": 40,
              "position": 4.01875,
              "duration": 0.27708333333333335
            },
            {
              "pitch": 115,
              "velocity": 75,
              "position": 4,
              "duration": 0.3645833333333333
            },
            {
              "pitch": 60,
              "velocity": 78,
              "position": 4.327083333333333,
              "duration": 0.16041666666666668
            },
            {
              "pitch": 72,
              "velocity": 4,
              "position": 4.308333333333334,
              "duration": 0.17916666666666667
            },
            {
              "pitch": 114,
              "velocity": 40,
              "position": 4.308333333333334,
              "duration": 0.19166666666666668
            },
            {
              "pitch": 60,
              "velocity": 80,
              "position": 4.5,
              "duration": 0.29583333333333334
            },
            {
              "pitch": 72,
              "velocity": 82,
              "position": 4.51875,
              "duration": 0.27708333333333335
            },
            {
              "pitch": 113,
              "velocity": 40,
              "position": 4.5,
              "duration": 0.30833333333333335
            },
            {
              "pitch": 114,
              "velocity": 75,
              "position": 4.808333333333334,
              "duration": 0.14583333333333334
            },
            {
              "pitch": 60,
              "velocity": 38,
              "position": 4.827083333333333,
              "duration": 0.16041666666666668
            },
            {
              "pitch": 72,
              "velocity": 40,
              "position": 4.808333333333334,
              "duration": 0.17916666666666667
            },
            {
              "pitch": 60,
              "velocity": 63,
              "position": 5,
              "duration": 0.29583333333333334
            },
            {
              "pitch": 72,
              "velocity": 65,
              "position": 5.01875,
              "duration": 0.27708333333333335
            },
            {
              "pitch": 115,
              "velocity": 40,
              "position": 5,
              "duration": 0.30833333333333335
            },
            {
              "pitch": 72,
              "velocity": 40,
              "position": 5.308333333333334,
              "duration": 0.17916666666666667
            },
            {
              "pitch": 60,
              "velocity": 78,
              "position": 5.327083333333333,
              "duration": 0.1625
            },
            {
              "pitch": 114,
              "velocity": 40,
              "position": 5.308333333333334,
              "duration": 0.19166666666666668
            },
            {
              "pitch": 115,
              "velocity": 75,
              "position": 5.5,
              "duration": 0.17708333333333334
            },
            {
              "pitch": 72,
              "velocity": 80,
              "position": 5.51875,
              "duration": 0.27708333333333335
            },
            {
              "pitch": 60,
              "velocity": 78,
              "position": 5.5,
              "duration": 0.29583333333333334
            },
            {
              "pitch": 114,
              "velocity": 75,
              "position": 5.808333333333334,
              "duration": 0.125
            },
            {
              "pitch": 60,
              "velocity": 38,
              "position": 5.827083333333333,
              "duration": 0.16041666666666668
            },
            {
              "pitch": 72,
              "velocity": 40,
              "position": 5.808333333333334,
              "duration": 0.17916666666666667
            },
            {
              "pitch": 60,
              "velocity": 78,
              "position": 6,
              "duration": 0.29583333333333334
            },
            {
              "pitch": 72,
              "velocity": 80,
              "position": 6.01875,
              "duration": 0.27708333333333335
            },
            {
              "pitch": 113,
              "velocity": 40,
              "position": 6,
              "duration": 0.30833333333333335
            },
            {
              "pitch": 72,
              "velocity": 40,
              "position": 6.308333333333334,
              "duration": 0.020833333333333332
            },
            {
              "pitch": 60,
              "velocity": 38,
              "position": 6.327083333333333,
              "duration": 0.020833333333333332
            },
            {
              "pitch": 114,
              "velocity": 75,
              "position": 6.308333333333334,
              "duration": 0.125
            },
            {
              "pitch": 60,
              "velocity": 78,
              "position": 6.5,
              "duration": 0.29583333333333334
            },
            {
              "pitch": 72,
              "velocity": 80,
              "position": 6.51875,
              "duration": 0.27708333333333335
            },
            {
              "pitch": 115,
              "velocity": 40,
              "position": 6.5,
              "duration": 0.30833333333333335
            },
            {
              "pitch": 114,
              "velocity": 75,
              "position": 6.808333333333334,
              "duration": 0.010416666666666666
            },
            {
              "pitch": 72,
              "velocity": 63,
              "position": 6.808333333333334,
              "duration": 0.17916666666666667
            },
            {
              "pitch": 60,
              "velocity": 61,
              "position": 6.827083333333333,
              "duration": 0.16041666666666668
            },
            {
              "pitch": 115,
              "velocity": 75,
              "position": 7,
              "duration": 0.14583333333333334
            },
            {
              "pitch": 72,
              "velocity": 80,
              "position": 7.01875,
              "duration": 0.27708333333333335
            },
            {
              "pitch": 60,
              "velocity": 78,
              "position": 7,
              "duration": 0.29583333333333334
            },
            {
              "pitch": 114,
              "velocity": 75,
              "position": 7.308333333333334,
              "duration": 0.125
            },
            {
              "pitch": 72,
              "velocity": 63,
              "position": 7.308333333333334,
              "duration": 0.17916666666666667
            },
            {
              "pitch": 60,
              "velocity": 61,
              "position": 7.327083333333333,
              "duration": 0.1625
            },
            {
              "pitch": 115,
              "velocity": 75,
              "position": 7.5,
              "duration": 0.010416666666666666
            },
            {
              "pitch": 60,
              "velocity": 78,
              "position": 7.5,
              "duration": 0.29583333333333334
            },
            {
              "pitch": 72,
              "velocity": 80,
              "position": 7.51875,
              "duration": 0.27708333333333335
            },
            {
              "pitch": 114,
              "velocity": 75,
              "position": 7.808333333333334,
              "duration": 0.010416666666666666
            },
            {
              "pitch": 72,
              "velocity": 63,
              "position": 7.808333333333334,
              "duration": 0.17916666666666667
            },
            {
              "pitch": 60,
              "velocity": 61,
              "position": 7.827083333333333,
              "duration": 0.16041666666666668
            },
            {
              "pitch": 60,
              "velocity": 38,
              "position": 8,
              "duration": 0.29583333333333334
            },
            {
              "pitch": 72,
              "velocity": 40,
              "position": 8.01875,
              "duration": 0.27708333333333335
            },
            {
              "pitch": 115,
              "velocity": 75,
              "position": 8,
              "duration": 0.3645833333333333
            },
            {
              "pitch": 60,
              "velocity": 78,
              "position": 8.327083333333333,
              "duration": 0.16041666666666668
            },
            {
              "pitch": 72,
              "velocity": 4,
              "position": 8.308333333333334,
              "duration": 0.17916666666666667
            },
            {
              "pitch": 114,
              "velocity": 40,
              "position": 8.308333333333334,
              "duration": 0.19166666666666668
            },
            {
              "pitch": 60,
              "velocity": 80,
              "position": 8.5,
              "duration": 0.29583333333333334
            },
            {
              "pitch": 72,
              "velocity": 82,
              "position": 8.51875,
              "duration": 0.27708333333333335
            },
            {
              "pitch": 113,
              "velocity": 40,
              "position": 8.5,
              "duration": 0.30833333333333335
            },
            {
              "pitch": 114,
              "velocity": 75,
              "position": 8.808333333333334,
              "duration": 0.14583333333333334
            },
            {
              "pitch": 60,
              "velocity": 38,
              "position": 8.827083333333333,
              "duration": 0.16041666666666668
            },
            {
              "pitch": 72,
              "velocity": 40,
              "position": 8.808333333333334,
              "duration": 0.17916666666666667
            },
            {
              "pitch": 60,
              "velocity": 63,
              "position": 9,
              "duration": 0.29583333333333334
            },
            {
              "pitch": 72,
              "velocity": 65,
              "position": 9.01875,
              "duration": 0.27708333333333335
            },
            {
              "pitch": 115,
              "velocity": 40,
              "position": 9,
              "duration": 0.30833333333333335
            },
            {
              "pitch": 72,
              "velocity": 40,
              "position": 9.308333333333334,
              "duration": 0.17916666666666667
            },
            {
              "pitch": 60,
              "velocity": 78,
              "position": 9.327083333333333,
              "duration": 0.1625
            },
            {
              "pitch": 114,
              "velocity": 40,
              "position": 9.308333333333334,
              "duration": 0.19166666666666668
            },
            {
              "pitch": 115,
              "velocity": 75,
              "position": 9.5,
              "duration": 0.17708333333333334
            },
            {
              "pitch": 72,
              "velocity": 80,
              "position": 9.51875,
              "duration": 0.27708333333333335
            },
            {
              "pitch": 60,
              "velocity": 78,
              "position": 9.5,
              "duration": 0.29583333333333334
            },
            {
              "pitch": 114,
              "velocity": 75,
              "position": 9.808333333333334,
              "duration": 0.125
            },
            {
              "pitch": 60,
              "velocity": 38,
              "position": 9.827083333333333,
              "duration": 0.16041666666666668
            },
            {
              "pitch": 72,
              "velocity": 40,
              "position": 9.808333333333334,
              "duration": 0.17916666666666667
            },
            {
              "pitch": 60,
              "velocity": 78,
              "position": 10,
              "duration": 0.29583333333333334
            },
            {
              "pitch": 72,
              "velocity": 80,
              "position": 10.01875,
              "duration": 0.27708333333333335
            },
            {
              "pitch": 113,
              "velocity": 40,
              "position": 10,
              "duration": 0.30833333333333335
            },
            {
              "pitch": 114,
              "velocity": 75,
              "position": 10.308333333333334,
              "duration": 0.125
            },
            {
              "pitch": 72,
              "velocity": 40,
              "position": 10.308333333333334,
              "duration": 0.15625
            },
            {
              "pitch": 60,
              "velocity": 38,
              "position": 10.327083333333333,
              "duration": 0.15625
            },
            {
              "pitch": 60,
              "velocity": 78,
              "position": 10.5,
              "duration": 0.29583333333333334
            },
            {
              "pitch": 72,
              "velocity": 80,
              "position": 10.51875,
              "duration": 0.27708333333333335
            },
            {
              "pitch": 115,
              "velocity": 40,
              "position": 10.5,
              "duration": 0.30833333333333335
            },
            {
              "pitch": 114,
              "velocity": 75,
              "position": 10.808333333333334,
              "duration": 0.010416666666666666
            },
            {
              "pitch": 72,
              "velocity": 63,
              "position": 10.808333333333334,
              "duration": 0.17916666666666667
            },
            {
              "pitch": 60,
              "velocity": 61,
              "position": 10.827083333333333,
              "duration": 0.16041666666666668
            },
            {
              "pitch": 115,
              "velocity": 75,
              "position": 11,
              "duration": 0.14583333333333334
            },
            {
              "pitch": 72,
              "velocity": 80,
              "position": 11.01875,
              "duration": 0.27708333333333335
            },
            {
              "pitch": 60,
              "velocity": 78,
              "position": 11,
              "duration": 0.29583333333333334
            },
            {
              "pitch": 114,
              "velocity": 75,
              "position": 11.308333333333334,
              "duration": 0.125
            },
            {
              "pitch": 72,
              "velocity": 63,
              "position": 11.308333333333334,
              "duration": 0.17916666666666667
            },
            {
              "pitch": 60,
              "velocity": 61,
              "position": 11.327083333333333,
              "duration": 0.1625
            },
            {
              "pitch": 115,
              "velocity": 75,
              "position": 11.5,
              "duration": 0.010416666666666666
            },
            {
              "pitch": 60,
              "velocity": 78,
              "position": 11.5,
              "duration": 0.29583333333333334
            },
            {
              "pitch": 72,
              "velocity": 80,
              "position": 11.51875,
              "duration": 0.27708333333333335
            },
            {
              "pitch": 114,
              "velocity": 75,
              "position": 11.808333333333334,
              "duration": 0.010416666666666666
            },
            {
              "pitch": 72,
              "velocity": 63,
              "position": 11.808333333333334,
              "duration": 0.17916666666666667
            },
            {
              "pitch": 60,
              "velocity": 61,
              "position": 11.827083333333333,
              "duration": 0.16041666666666668
            },
            {
              "pitch": 60,
              "velocity": 38,
              "position": 12,
              "duration": 0.29583333333333334
            },
            {
              "pitch": 72,
              "velocity": 40,
              "position": 12.01875,
              "duration": 0.27708333333333335
            },
            {
              "pitch": 115,
              "velocity": 75,
              "position": 12,
              "duration": 0.3645833333333333
            },
            {
              "pitch": 60,
              "velocity": 78,
              "position": 12.327083333333333,
              "duration": 0.16041666666666668
            },
            {
              "pitch": 72,
              "velocity": 4,
              "position": 12.308333333333334,
              "duration": 0.17916666666666667
            },
            {
              "pitch": 114,
              "velocity": 40,
              "position": 12.308333333333334,
              "duration": 0.19166666666666668
            },
            {
              "pitch": 60,
              "velocity": 80,
              "position": 12.5,
              "duration": 0.29583333333333334
            },
            {
              "pitch": 72,
              "velocity": 82,
              "position": 12.51875,
              "duration": 0.27708333333333335
            },
            {
              "pitch": 113,
              "velocity": 40,
              "position": 12.5,
              "duration": 0.30833333333333335
            },
            {
              "pitch": 114,
              "velocity": 75,
              "position": 12.808333333333334,
              "duration": 0.14583333333333334
            },
            {
              "pitch": 60,
              "velocity": 38,
              "position": 12.827083333333333,
              "duration": 0.16041666666666668
            },
            {
              "pitch": 72,
              "velocity": 40,
              "position": 12.808333333333334,
              "duration": 0.17916666666666667
            },
            {
              "pitch": 60,
              "velocity": 63,
              "position": 13,
              "duration": 0.29583333333333334
            },
            {
              "pitch": 72,
              "velocity": 65,
              "position": 13.01875,
              "duration": 0.27708333333333335
            },
            {
              "pitch": 115,
              "velocity": 40,
              "position": 13,
              "duration": 0.30833333333333335
            },
            {
              "pitch": 72,
              "velocity": 40,
              "position": 13.308333333333334,
              "duration": 0.17916666666666667
            },
            {
              "pitch": 60,
              "velocity": 78,
              "position": 13.327083333333333,
              "duration": 0.1625
            },
            {
              "pitch": 114,
              "velocity": 40,
              "position": 13.308333333333334,
              "duration": 0.19166666666666668
            },
            {
              "pitch": 115,
              "velocity": 75,
              "position": 13.5,
              "duration": 0.17708333333333334
            },
            {
              "pitch": 72,
              "velocity": 80,
              "position": 13.51875,
              "duration": 0.27708333333333335
            },
            {
              "pitch": 60,
              "velocity": 78,
              "position": 13.5,
              "duration": 0.29583333333333334
            },
            {
              "pitch": 114,
              "velocity": 75,
              "position": 13.808333333333334,
              "duration": 0.125
            },
            {
              "pitch": 60,
              "velocity": 38,
              "position": 13.827083333333333,
              "duration": 0.16041666666666668
            },
            {
              "pitch": 72,
              "velocity": 40,
              "position": 13.808333333333334,
              "duration": 0.17916666666666667
            },
            {
              "pitch": 60,
              "velocity": 63,
              "position": 14,
              "duration": 0.29583333333333334
            },
            {
              "pitch": 72,
              "velocity": 65,
              "position": 14.01875,
              "duration": 0.27708333333333335
            },
            {
              "pitch": 113,
              "velocity": 40,
              "position": 14,
              "duration": 0.30833333333333335
            },
            {
              "pitch": 114,
              "velocity": 75,
              "position": 14.308333333333334,
              "duration": 0.125
            },
            {
              "pitch": 72,
              "velocity": 40,
              "position": 14.308333333333334,
              "duration": 0.17916666666666667
            },
            {
              "pitch": 60,
              "velocity": 78,
              "position": 14.327083333333333,
              "duration": 0.1625
            },
            {
              "pitch": 60,
              "velocity": 78,
              "position": 14.5,
              "duration": 0.29583333333333334
            },
            {
              "pitch": 72,
              "velocity": 80,
              "position": 14.51875,
              "duration": 0.27708333333333335
            },
            {
              "pitch": 115,
              "velocity": 40,
              "position": 14.5,
              "duration": 0.30833333333333335
            },
            {
              "pitch": 114,
              "velocity": 75,
              "position": 14.808333333333334,
              "duration": 0.010416666666666666
            },
            {
              "pitch": 72,
              "velocity": 40,
              "position": 14.808333333333334,
              "duration": 0.17916666666666667
            },
            {
              "pitch": 60,
              "velocity": 38,
              "position": 14.827083333333333,
              "duration": 0.16041666666666668
            },
            {
              "pitch": 115,
              "velocity": 75,
              "position": 15,
              "duration": 0.14583333333333334
            },
            {
              "pitch": 72,
              "velocity": 65,
              "position": 15.01875,
              "duration": 0.27708333333333335
            },
            {
              "pitch": 60,
              "velocity": 63,
              "position": 15,
              "duration": 0.29583333333333334
            },
            {
              "pitch": 114,
              "velocity": 75,
              "position": 15.308333333333334,
              "duration": 0.125
            },
            {
              "pitch": 72,
              "velocity": 40,
              "position": 15.308333333333334,
              "duration": 0.17916666666666667
            },
            {
              "pitch": 60,
              "velocity": 78,
              "position": 15.327083333333333,
              "duration": 0.1625
            },
            {
              "pitch": 115,
              "velocity": 75,
              "position": 15.5,
              "duration": 0.010416666666666666
            },
            {
              "pitch": 60,
              "velocity": 78,
              "position": 15.5,
              "duration": 0.29583333333333334
            },
            {
              "pitch": 72,
              "velocity": 80,
              "position": 15.51875,
              "duration": 0.27708333333333335
            },
            {
              "pitch": 114,
              "velocity": 75,
              "position": 15.808333333333334,
              "duration": 0.010416666666666666
            },
            {
              "pitch": 72,
              "velocity": 40,
              "position": 15.808333333333334,
              "duration": 0.17916666666666667
            },
            {
              "pitch": 60,
              "velocity": 38,
              "position": 15.827083333333333,
              "duration": 0.16041666666666668
            },
            {
              "pitch": 60,
              "velocity": 38,
              "position": 16,
              "duration": 0.29583333333333334
            },
            {
              "pitch": 72,
              "velocity": 40,
              "position": 16.01875,
              "duration": 0.27708333333333335
            },
            {
              "pitch": 115,
              "velocity": 75,
              "position": 16,
              "duration": 0.3645833333333333
            },
            {
              "pitch": 60,
              "velocity": 78,
              "position": 16.327083333333334,
              "duration": 0.16041666666666668
            },
            {
              "pitch": 72,
              "velocity": 4,
              "position": 16.308333333333334,
              "duration": 0.17916666666666667
            },
            {
              "pitch": 114,
              "velocity": 40,
              "position": 16.308333333333334,
              "duration": 0.19166666666666668
            },
            {
              "pitch": 60,
              "velocity": 80,
              "position": 16.5,
              "duration": 0.29583333333333334
            },
            {
              "pitch": 72,
              "velocity": 82,
              "position": 16.51875,
              "duration": 0.27708333333333335
            },
            {
              "pitch": 113,
              "velocity": 40,
              "position": 16.5,
              "duration": 0.30833333333333335
            },
            {
              "pitch": 114,
              "velocity": 75,
              "position": 16.808333333333334,
              "duration": 0.14583333333333334
            },
            {
              "pitch": 60,
              "velocity": 38,
              "position": 16.827083333333334,
              "duration": 0.16041666666666668
            },
            {
              "pitch": 72,
              "velocity": 40,
              "position": 16.808333333333334,
              "duration": 0.17916666666666667
            },
            {
              "pitch": 60,
              "velocity": 63,
              "position": 17,
              "duration": 0.29583333333333334
            },
            {
              "pitch": 72,
              "velocity": 65,
              "position": 17.01875,
              "duration": 0.27708333333333335
            },
            {
              "pitch": 115,
              "velocity": 40,
              "position": 17,
              "duration": 0.30833333333333335
            },
            {
              "pitch": 72,
              "velocity": 40,
              "position": 17.308333333333334,
              "duration": 0.17916666666666667
            },
            {
              "pitch": 60,
              "velocity": 78,
              "position": 17.327083333333334,
              "duration": 0.1625
            },
            {
              "pitch": 114,
              "velocity": 40,
              "position": 17.308333333333334,
              "duration": 0.19166666666666668
            },
            {
              "pitch": 115,
              "velocity": 75,
              "position": 17.5,
              "duration": 0.17708333333333334
            },
            {
              "pitch": 72,
              "velocity": 80,
              "position": 17.51875,
              "duration": 0.27708333333333335
            },
            {
              "pitch": 60,
              "velocity": 78,
              "position": 17.5,
              "duration": 0.29583333333333334
            },
            {
              "pitch": 114,
              "velocity": 75,
              "position": 17.808333333333334,
              "duration": 0.125
            },
            {
              "pitch": 60,
              "velocity": 38,
              "position": 17.827083333333334,
              "duration": 0.16041666666666668
            },
            {
              "pitch": 72,
              "velocity": 40,
              "position": 17.808333333333334,
              "duration": 0.17916666666666667
            },
            {
              "pitch": 60,
              "velocity": 78,
              "position": 18,
              "duration": 0.29583333333333334
            },
            {
              "pitch": 72,
              "velocity": 80,
              "position": 18.01875,
              "duration": 0.27708333333333335
            },
            {
              "pitch": 113,
              "velocity": 40,
              "position": 18,
              "duration": 0.30833333333333335
            },
            {
              "pitch": 114,
              "velocity": 75,
              "position": 18.308333333333334,
              "duration": 0.125
            },
            {
              "pitch": 72,
              "velocity": 40,
              "position": 18.308333333333334,
              "duration": 0.15625
            },
            {
              "pitch": 60,
              "velocity": 38,
              "position": 18.327083333333334,
              "duration": 0.15625
            },
            {
              "pitch": 60,
              "velocity": 78,
              "position": 18.5,
              "duration": 0.29583333333333334
            },
            {
              "pitch": 72,
              "velocity": 80,
              "position": 18.51875,
              "duration": 0.27708333333333335
            },
            {
              "pitch": 115,
              "velocity": 40,
              "position": 18.5,
              "duration": 0.30833333333333335
            },
            {
              "pitch": 114,
              "velocity": 75,
              "position": 18.808333333333334,
              "duration": 0.010416666666666666
            },
            {
              "pitch": 72,
              "velocity": 63,
              "position": 18.808333333333334,
              "duration": 0.17916666666666667
            },
            {
              "pitch": 60,
              "velocity": 61,
              "position": 18.827083333333334,
              "duration": 0.16041666666666668
            },
            {
              "pitch": 115,
              "velocity": 75,
              "position": 19,
              "duration": 0.14583333333333334
            },
            {
              "pitch": 72,
              "velocity": 80,
              "position": 19.01875,
              "duration": 0.27708333333333335
            },
            {
              "pitch": 60,
              "velocity": 78,
              "position": 19,
              "duration": 0.29583333333333334
            },
            {
              "pitch": 114,
              "velocity": 75,
              "position": 19.308333333333334,
              "duration": 0.125
            },
            {
              "pitch": 72,
              "velocity": 63,
              "position": 19.308333333333334,
              "duration": 0.17916666666666667
            },
            {
              "pitch": 60,
              "velocity": 61,
              "position": 19.327083333333334,
              "duration": 0.1625
            },
            {
              "pitch": 115,
              "velocity": 75,
              "position": 19.5,
              "duration": 0.010416666666666666
            },
            {
              "pitch": 60,
              "velocity": 78,
              "position": 19.5,
              "duration": 0.29583333333333334
            },
            {
              "pitch": 72,
              "velocity": 80,
              "position": 19.51875,
              "duration": 0.27708333333333335
            },
            {
              "pitch": 114,
              "velocity": 75,
              "position": 19.808333333333334,
              "duration": 0.010416666666666666
            },
            {
              "pitch": 72,
              "velocity": 63,
              "position": 19.808333333333334,
              "duration": 0.17916666666666667
            },
            {
              "pitch": 60,
              "velocity": 61,
              "position": 19.827083333333334,
              "duration": 0.16041666666666668
            },
            {
              "pitch": 60,
              "velocity": 38,
              "position": 20,
              "duration": 0.29583333333333334
            },
            {
              "pitch": 72,
              "velocity": 40,
              "position": 20.01875,
              "duration": 0.27708333333333335
            },
            {
              "pitch": 115,
              "velocity": 75,
              "position": 20,
              "duration": 0.3645833333333333
            },
            {
              "pitch": 60,
              "velocity": 78,
              "position": 20.327083333333334,
              "duration": 0.16041666666666668
            },
            {
              "pitch": 72,
              "velocity": 4,
              "position": 20.308333333333334,
              "duration": 0.17916666666666667
            },
            {
              "pitch": 114,
              "velocity": 40,
              "position": 20.308333333333334,
              "duration": 0.19166666666666668
            },
            {
              "pitch": 60,
              "velocity": 80,
              "position": 20.5,
              "duration": 0.29583333333333334
            },
            {
              "pitch": 72,
              "velocity": 82,
              "position": 20.51875,
              "duration": 0.27708333333333335
            },
            {
              "pitch": 113,
              "velocity": 40,
              "position": 20.5,
              "duration": 0.30833333333333335
            },
            {
              "pitch": 114,
              "velocity": 75,
              "position": 20.808333333333334,
              "duration": 0.14583333333333334
            },
            {
              "pitch": 60,
              "velocity": 38,
              "position": 20.827083333333334,
              "duration": 0.16041666666666668
            },
            {
              "pitch": 72,
              "velocity": 40,
              "position": 20.808333333333334,
              "duration": 0.17916666666666667
            },
            {
              "pitch": 60,
              "velocity": 63,
              "position": 21,
              "duration": 0.29583333333333334
            },
            {
              "pitch": 72,
              "velocity": 65,
              "position": 21.01875,
              "duration": 0.27708333333333335
            },
            {
              "pitch": 115,
              "velocity": 40,
              "position": 21,
              "duration": 0.30833333333333335
            },
            {
              "pitch": 72,
              "velocity": 40,
              "position": 21.308333333333334,
              "duration": 0.17916666666666667
            },
            {
              "pitch": 60,
              "velocity": 78,
              "position": 21.327083333333334,
              "duration": 0.1625
            },
            {
              "pitch": 114,
              "velocity": 40,
              "position": 21.308333333333334,
              "duration": 0.19166666666666668
            },
            {
              "pitch": 115,
              "velocity": 75,
              "position": 21.5,
              "duration": 0.17708333333333334
            },
            {
              "pitch": 72,
              "velocity": 80,
              "position": 21.51875,
              "duration": 0.27708333333333335
            },
            {
              "pitch": 60,
              "velocity": 78,
              "position": 21.5,
              "duration": 0.29583333333333334
            },
            {
              "pitch": 114,
              "velocity": 75,
              "position": 21.808333333333334,
              "duration": 0.125
            },
            {
              "pitch": 60,
              "velocity": 38,
              "position": 21.827083333333334,
              "duration": 0.16041666666666668
            },
            {
              "pitch": 72,
              "velocity": 40,
              "position": 21.808333333333334,
              "duration": 0.17916666666666667
            },
            {
              "pitch": 60,
              "velocity": 78,
              "position": 22,
              "duration": 0.29583333333333334
            },
            {
              "pitch": 72,
              "velocity": 80,
              "position": 22.01875,
              "duration": 0.27708333333333335
            },
            {
              "pitch": 113,
              "velocity": 40,
              "position": 22,
              "duration": 0.30833333333333335
            },
            {
              "pitch": 72,
              "velocity": 40,
              "position": 22.308333333333334,
              "duration": 0.020833333333333332
            },
            {
              "pitch": 60,
              "velocity": 38,
              "position": 22.327083333333334,
              "duration": 0.020833333333333332
            },
            {
              "pitch": 114,
              "velocity": 75,
              "position": 22.308333333333334,
              "duration": 0.125
            },
            {
              "pitch": 60,
              "velocity": 78,
              "position": 22.5,
              "duration": 0.29583333333333334
            },
            {
              "pitch": 72,
              "velocity": 80,
              "position": 22.51875,
              "duration": 0.27708333333333335
            },
            {
              "pitch": 115,
              "velocity": 40,
              "position": 22.5,
              "duration": 0.30833333333333335
            },
            {
              "pitch": 114,
              "velocity": 75,
              "position": 22.808333333333334,
              "duration": 0.010416666666666666
            },
            {
              "pitch": 72,
              "velocity": 63,
              "position": 22.808333333333334,
              "duration": 0.17916666666666667
            },
            {
              "pitch": 60,
              "velocity": 61,
              "position": 22.827083333333334,
              "duration": 0.16041666666666668
            },
            {
              "pitch": 115,
              "velocity": 75,
              "position": 23,
              "duration": 0.14583333333333334
            },
            {
              "pitch": 72,
              "velocity": 80,
              "position": 23.01875,
              "duration": 0.27708333333333335
            },
            {
              "pitch": 60,
              "velocity": 78,
              "position": 23,
              "duration": 0.29583333333333334
            },
            {
              "pitch": 114,
              "velocity": 75,
              "position": 23.308333333333334,
              "duration": 0.125
            },
            {
              "pitch": 72,
              "velocity": 63,
              "position": 23.308333333333334,
              "duration": 0.17916666666666667
            },
            {
              "pitch": 60,
              "velocity": 61,
              "position": 23.327083333333334,
              "duration": 0.1625
            },
            {
              "pitch": 115,
              "velocity": 75,
              "position": 23.5,
              "duration": 0.010416666666666666
            },
            {
              "pitch": 60,
              "velocity": 78,
              "position": 23.5,
              "duration": 0.29583333333333334
            },
            {
              "pitch": 72,
              "velocity": 80,
              "position": 23.51875,
              "duration": 0.27708333333333335
            },
            {
              "pitch": 114,
              "velocity": 75,
              "position": 23.808333333333334,
              "duration": 0.010416666666666666
            },
            {
              "pitch": 72,
              "velocity": 63,
              "position": 23.808333333333334,
              "duration": 0.17916666666666667
            },
            {
              "pitch": 60,
              "velocity": 61,
              "position": 23.827083333333334,
              "duration": 0.16041666666666668
            },
            {
              "pitch": 60,
              "velocity": 38,
              "position": 24,
              "duration": 0.29583333333333334
            },
            {
              "pitch": 72,
              "velocity": 40,
              "position": 24.01875,
              "duration": 0.27708333333333335
            },
            {
              "pitch": 115,
              "velocity": 75,
              "position": 24,
              "duration": 0.3645833333333333
            },
            {
              "pitch": 60,
              "velocity": 78,
              "position": 24.327083333333334,
              "duration": 0.16041666666666668
            },
            {
              "pitch": 72,
              "velocity": 4,
              "position": 24.308333333333334,
              "duration": 0.17916666666666667
            },
            {
              "pitch": 114,
              "velocity": 40,
              "position": 24.308333333333334,
              "duration": 0.19166666666666668
            },
            {
              "pitch": 60,
              "velocity": 80,
              "position": 24.5,
              "duration": 0.29583333333333334
            },
            {
              "pitch": 72,
              "velocity": 82,
              "position": 24.51875,
              "duration": 0.27708333333333335
            },
            {
              "pitch": 113,
              "velocity": 40,
              "position": 24.5,
              "duration": 0.30833333333333335
            },
            {
              "pitch": 114,
              "velocity": 75,
              "position": 24.808333333333334,
              "duration": 0.14583333333333334
            },
            {
              "pitch": 60,
              "velocity": 38,
              "position": 24.827083333333334,
              "duration": 0.16041666666666668
            },
            {
              "pitch": 72,
              "velocity": 40,
              "position": 24.808333333333334,
              "duration": 0.17916666666666667
            },
            {
              "pitch": 60,
              "velocity": 63,
              "position": 25,
              "duration": 0.29583333333333334
            },
            {
              "pitch": 72,
              "velocity": 65,
              "position": 25.01875,
              "duration": 0.27708333333333335
            },
            {
              "pitch": 115,
              "velocity": 40,
              "position": 25,
              "duration": 0.30833333333333335
            },
            {
              "pitch": 72,
              "velocity": 40,
              "position": 25.308333333333334,
              "duration": 0.17916666666666667
            },
            {
              "pitch": 60,
              "velocity": 78,
              "position": 25.327083333333334,
              "duration": 0.1625
            },
            {
              "pitch": 114,
              "velocity": 40,
              "position": 25.308333333333334,
              "duration": 0.19166666666666668
            },
            {
              "pitch": 115,
              "velocity": 75,
              "position": 25.5,
              "duration": 0.17708333333333334
            },
            {
              "pitch": 72,
              "velocity": 80,
              "position": 25.51875,
              "duration": 0.27708333333333335
            },
            {
              "pitch": 60,
              "velocity": 78,
              "position": 25.5,
              "duration": 0.29583333333333334
            },
            {
              "pitch": 114,
              "velocity": 75,
              "position": 25.808333333333334,
              "duration": 0.125
            },
            {
              "pitch": 60,
              "velocity": 38,
              "position": 25.827083333333334,
              "duration": 0.16041666666666668
            },
            {
              "pitch": 72,
              "velocity": 40,
              "position": 25.808333333333334,
              "duration": 0.17916666666666667
            },
            {
              "pitch": 60,
              "velocity": 78,
              "position": 26,
              "duration": 0.29583333333333334
            },
            {
              "pitch": 72,
              "velocity": 80,
              "position": 26.01875,
              "duration": 0.27708333333333335
            },
            {
              "pitch": 113,
              "velocity": 40,
              "position": 26,
              "duration": 0.30833333333333335
            },
            {
              "pitch": 114,
              "velocity": 75,
              "position": 26.308333333333334,
              "duration": 0.125
            },
            {
              "pitch": 72,
              "velocity": 40,
              "position": 26.308333333333334,
              "duration": 0.15625
            },
            {
              "pitch": 60,
              "velocity": 38,
              "position": 26.327083333333334,
              "duration": 0.15625
            },
            {
              "pitch": 60,
              "velocity": 78,
              "position": 26.5,
              "duration": 0.29583333333333334
            },
            {
              "pitch": 72,
              "velocity": 80,
              "position": 26.51875,
              "duration": 0.27708333333333335
            },
            {
              "pitch": 115,
              "velocity": 40,
              "position": 26.5,
              "duration": 0.30833333333333335
            },
            {
              "pitch": 114,
              "velocity": 75,
              "position": 26.808333333333334,
              "duration": 0.010416666666666666
            },
            {
              "pitch": 72,
              "velocity": 63,
              "position": 26.808333333333334,
              "duration": 0.17916666666666667
            },
            {
              "pitch": 60,
              "velocity": 61,
              "position": 26.827083333333334,
              "duration": 0.16041666666666668
            },
            {
              "pitch": 115,
              "velocity": 75,
              "position": 27,
              "duration": 0.14583333333333334
            },
            {
              "pitch": 72,
              "velocity": 80,
              "position": 27.01875,
              "duration": 0.27708333333333335
            },
            {
              "pitch": 60,
              "velocity": 78,
              "position": 27,
              "duration": 0.29583333333333334
            },
            {
              "pitch": 114,
              "velocity": 75,
              "position": 27.308333333333334,
              "duration": 0.125
            },
            {
              "pitch": 72,
              "velocity": 63,
              "position": 27.308333333333334,
              "duration": 0.17916666666666667
            },
            {
              "pitch": 60,
              "velocity": 61,
              "position": 27.327083333333334,
              "duration": 0.1625
            },
            {
              "pitch": 115,
              "velocity": 75,
              "position": 27.5,
              "duration": 0.010416666666666666
            },
            {
              "pitch": 60,
              "velocity": 78,
              "position": 27.5,
              "duration": 0.29583333333333334
            },
            {
              "pitch": 72,
              "velocity": 80,
              "position": 27.51875,
              "duration": 0.27708333333333335
            },
            {
              "pitch": 114,
              "velocity": 75,
              "position": 27.808333333333334,
              "duration": 0.010416666666666666
            },
            {
              "pitch": 72,
              "velocity": 63,
              "position": 27.808333333333334,
              "duration": 0.17916666666666667
            },
            {
              "pitch": 60,
              "velocity": 61,
              "position": 27.827083333333334,
              "duration": 0.16041666666666668
            },
            {
              "pitch": 60,
              "velocity": 38,
              "position": 28,
              "duration": 0.29583333333333334
            },
            {
              "pitch": 72,
              "velocity": 40,
              "position": 28.01875,
              "duration": 0.27708333333333335
            },
            {
              "pitch": 115,
              "velocity": 75,
              "position": 28,
              "duration": 0.3645833333333333
            },
            {
              "pitch": 60,
              "velocity": 78,
              "position": 28.327083333333334,
              "duration": 0.16041666666666668
            },
            {
              "pitch": 72,
              "velocity": 4,
              "position": 28.308333333333334,
              "duration": 0.17916666666666667
            },
            {
              "pitch": 114,
              "velocity": 40,
              "position": 28.308333333333334,
              "duration": 0.19166666666666668
            },
            {
              "pitch": 60,
              "velocity": 80,
              "position": 28.5,
              "duration": 0.29583333333333334
            },
            {
              "pitch": 72,
              "velocity": 82,
              "position": 28.51875,
              "duration": 0.27708333333333335
            },
            {
              "pitch": 113,
              "velocity": 40,
              "position": 28.5,
              "duration": 0.30833333333333335
            },
            {
              "pitch": 114,
              "velocity": 75,
              "position": 28.808333333333334,
              "duration": 0.14583333333333334
            },
            {
              "pitch": 60,
              "velocity": 38,
              "position": 28.827083333333334,
              "duration": 0.16041666666666668
            },
            {
              "pitch": 72,
              "velocity": 40,
              "position": 28.808333333333334,
              "duration": 0.17916666666666667
            },
            {
              "pitch": 60,
              "velocity": 63,
              "position": 29,
              "duration": 0.29583333333333334
            },
            {
              "pitch": 72,
              "velocity": 65,
              "position": 29.01875,
              "duration": 0.27708333333333335
            },
            {
              "pitch": 115,
              "velocity": 40,
              "position": 29,
              "duration": 0.30833333333333335
            },
            {
              "pitch": 72,
              "velocity": 40,
              "position": 29.308333333333334,
              "duration": 0.17916666666666667
            },
            {
              "pitch": 60,
              "velocity": 78,
              "position": 29.327083333333334,
              "duration": 0.1625
            },
            {
              "pitch": 114,
              "velocity": 40,
              "position": 29.308333333333334,
              "duration": 0.19166666666666668
            },
            {
              "pitch": 115,
              "velocity": 75,
              "position": 29.5,
              "duration": 0.17708333333333334
            },
            {
              "pitch": 72,
              "velocity": 80,
              "position": 29.51875,
              "duration": 0.27708333333333335
            },
            {
              "pitch": 60,
              "velocity": 78,
              "position": 29.5,
              "duration": 0.29583333333333334
            },
            {
              "pitch": 114,
              "velocity": 75,
              "position": 29.808333333333334,
              "duration": 0.125
            },
            {
              "pitch": 60,
              "velocity": 38,
              "position": 29.827083333333334,
              "duration": 0.16041666666666668
            },
            {
              "pitch": 72,
              "velocity": 40,
              "position": 29.808333333333334,
              "duration": 0.17916666666666667
            },
            {
              "pitch": 113,
              "velocity": 40,
              "position": 30,
              "duration": 0.30833333333333335
            },
            {
              "pitch": 114,
              "velocity": 75,
              "position": 30.308333333333334,
              "duration": 0.125
            },
            {
              "pitch": 115,
              "velocity": 40,
              "position": 30.5,
              "duration": 0.30833333333333335
            },
            {
              "pitch": 114,
              "velocity": 75,
              "position": 30.808333333333334,
              "duration": 0.010416666666666666
            },
            {
              "pitch": 115,
              "velocity": 75,
              "position": 31,
              "duration": 0.14583333333333334
            },
            {
              "pitch": 114,
              "velocity": 75,
              "position": 31.308333333333334,
              "duration": 0.125
            },
            {
              "pitch": 115,
              "velocity": 75,
              "position": 31.5,
              "duration": 0.010416666666666666
            },
            {
              "pitch": 114,
              "velocity": 75,
              "position": 31.808333333333334,
              "duration": 0.010416666666666666
            }
          ]
        },
        "6": {
          "ctab": {
            "srcChannel": 6,
            "name": "brass",
            "accType": "PHRASE2",
            "editable": false,
            "mutedNotes": [],
            "mutedChords": [
              "1+2+5",
              "sus4",
              "1+5",
              "1+8",
              "7aug",
              "Maj7aug",
              "7(#9)",
              "7(b13)",
              "7(b9)",
              "7(13)",
              "7#11",
              "7(9)",
              "7b5",
              "7sus4",
              "7th",
              "aug",
              "Maj6(9)",
              "Maj7(9)",
              "Maj(9)",
              "Maj7#11",
              "Maj7",
              "Maj6",
              "Maj"
            ],
            "autoStart": false,
            "sourceChordNote": 0,
            "sourceChordType": "min",
            "ctb2Low": null,
            "ctb2Main": {
              "ntr": "ROOT_TRANSPOSITION",
              "ntt": "BYPASS",
              "bassOn": false,
              "chordRootUpperLimit": 7,
              "noteLowLimit": 0,
              "noteHighLimit": 127,
              "rtr": "PITCH_SHIFT"
            },
            "ctb2High": null
          },
          "notes": [
            {
              "pitch": 63,
              "velocity": 19,
              "position": 11.979166666666666,
              "duration": 0.6666666666666666
            },
            {
              "pitch": 63,
              "velocity": 6,
              "position": 12.645833333333334,
              "duration": 0.16666666666666666
            },
            {
              "pitch": 60,
              "velocity": 16,
              "position": 11.979166666666666,
              "duration": 1
            },
            {
              "pitch": 64,
              "velocity": 22,
              "position": 12.8125,
              "duration": 0.16666666666666666
            },
            {
              "pitch": 55,
              "velocity": 16,
              "position": 12.979166666666666,
              "duration": 1
            },
            {
              "pitch": 65,
              "velocity": 49,
              "position": 12.979166666666666,
              "duration": 1
            },
            {
              "pitch": 62,
              "velocity": 16,
              "position": 12.979166666666666,
              "duration": 1
            },
            {
              "pitch": 58,
              "velocity": 16,
              "position": 12.979166666666666,
              "duration": 1
            },
            {
              "pitch": 57,
              "velocity": 16,
              "position": 13.979166666666666,
              "duration": 1
            },
            {
              "pitch": 67,
              "velocity": 49,
              "position": 13.979166666666666,
              "duration": 1
            },
            {
              "pitch": 64,
              "velocity": 46,
              "position": 13.979166666666666,
              "duration": 1
            },
            {
              "pitch": 60,
              "velocity": 46,
              "position": 13.979166666666666,
              "duration": 1
            },
            {
              "pitch": 59,
              "velocity": 79,
              "position": 14.979166666666666,
              "duration": 1
            },
            {
              "pitch": 70,
              "velocity": 82,
              "position": 14.979166666666666,
              "duration": 1
            },
            {
              "pitch": 65,
              "velocity": 79,
              "position": 14.979166666666666,
              "duration": 1
            },
            {
              "pitch": 63,
              "velocity": 79,
              "position": 14.979166666666666,
              "duration": 1
            },
            {
              "pitch": 63,
              "velocity": 81,
              "position": 15.979166666666666,
              "duration": 0.3020833333333333
            },
            {
              "pitch": 72,
              "velocity": 85,
              "position": 15.979166666666666,
              "duration": 0.3020833333333333
            },
            {
              "pitch": 70,
              "velocity": 81,
              "position": 15.979166666666666,
              "duration": 0.3020833333333333
            },
            {
              "pitch": 67,
              "velocity": 81,
              "position": 15.979166666666666,
              "duration": 0.3020833333333333
            },
            {
              "pitch": 63,
              "velocity": 51,
              "position": 16.2875,
              "duration": 0.18541666666666667
            },
            {
              "pitch": 72,
              "velocity": 55,
              "position": 16.2875,
              "duration": 0.18541666666666667
            },
            {
              "pitch": 70,
              "velocity": 51,
              "position": 16.2875,
              "duration": 0.18541666666666667
            },
            {
              "pitch": 67,
              "velocity": 51,
              "position": 16.2875,
              "duration": 0.18541666666666667
            },
            {
              "pitch": 63,
              "velocity": 111,
              "position": 16.479166666666668,
              "duration": 0.3020833333333333
            },
            {
              "pitch": 72,
              "velocity": 115,
              "position": 16.479166666666668,
              "duration": 0.3020833333333333
            },
            {
              "pitch": 70,
              "velocity": 111,
              "position": 16.479166666666668,
              "duration": 0.3020833333333333
            },
            {
              "pitch": 67,
              "velocity": 111,
              "position": 16.479166666666668,
              "duration": 0.3020833333333333
            },
            {
              "pitch": 63,
              "velocity": 81,
              "position": 16.7875,
              "duration": 0.21041666666666667
            },
            {
              "pitch": 72,
              "velocity": 85,
              "position": 16.7875,
              "duration": 0.21041666666666667
            },
            {
              "pitch": 70,
              "velocity": 81,
              "position": 16.7875,
              "duration": 0.21041666666666667
            },
            {
              "pitch": 67,
              "velocity": 81,
              "position": 16.7875,
              "duration": 0.21041666666666667
            },
            {
              "pitch": 63,
              "velocity": 81,
              "position": 17.2875,
              "duration": 0.21041666666666667
            },
            {
              "pitch": 74,
              "velocity": 85,
              "position": 17.2875,
              "duration": 0.21041666666666667
            },
            {
              "pitch": 70,
              "velocity": 81,
              "position": 17.2875,
              "duration": 0.21041666666666667
            },
            {
              "pitch": 67,
              "velocity": 81,
              "position": 17.2875,
              "duration": 0.21041666666666667
            },
            {
              "pitch": 70,
              "velocity": 81,
              "position": 17.7875,
              "duration": 0.16666666666666666
            },
            {
              "pitch": 75,
              "velocity": 84,
              "position": 17.7875,
              "duration": 0.21041666666666667
            },
            {
              "pitch": 72,
              "velocity": 81,
              "position": 17.7875,
              "duration": 0.21041666666666667
            },
            {
              "pitch": 67,
              "velocity": 81,
              "position": 17.7875,
              "duration": 0.21041666666666667
            },
            {
              "pitch": 67,
              "velocity": 79,
              "position": 18.2875,
              "duration": 0.18125
            },
            {
              "pitch": 75,
              "velocity": 84,
              "position": 18.2875,
              "duration": 0.18125
            },
            {
              "pitch": 72,
              "velocity": 79,
              "position": 18.2875,
              "duration": 0.18125
            },
            {
              "pitch": 70,
              "velocity": 49,
              "position": 18.2875,
              "duration": 0.18125
            },
            {
              "pitch": 74,
              "velocity": 85,
              "position": 18.479166666666668,
              "duration": 0.49375
            },
            {
              "pitch": 63,
              "velocity": 81,
              "position": 18.979166666666668,
              "duration": 0.4895833333333333
            },
            {
              "pitch": 72,
              "velocity": 85,
              "position": 18.979166666666668,
              "duration": 0.4895833333333333
            },
            {
              "pitch": 70,
              "velocity": 81,
              "position": 18.979166666666668,
              "duration": 0.4895833333333333
            },
            {
              "pitch": 67,
              "velocity": 81,
              "position": 18.979166666666668,
              "duration": 0.4895833333333333
            },
            {
              "pitch": 63,
              "velocity": 81,
              "position": 19.479166666666668,
              "duration": 0.4895833333333333
            },
            {
              "pitch": 74,
              "velocity": 85,
              "position": 19.479166666666668,
              "duration": 0.4895833333333333
            },
            {
              "pitch": 70,
              "velocity": 81,
              "position": 19.479166666666668,
              "duration": 0.4895833333333333
            },
            {
              "pitch": 67,
              "velocity": 81,
              "position": 19.479166666666668,
              "duration": 0.4895833333333333
            },
            {
              "pitch": 63,
              "velocity": 81,
              "position": 19.979166666666668,
              "duration": 0.3020833333333333
            },
            {
              "pitch": 72,
              "velocity": 85,
              "position": 19.979166666666668,
              "duration": 0.3020833333333333
            },
            {
              "pitch": 70,
              "velocity": 81,
              "position": 19.979166666666668,
              "duration": 0.3020833333333333
            },
            {
              "pitch": 67,
              "velocity": 81,
              "position": 19.979166666666668,
              "duration": 0.3020833333333333
            },
            {
              "pitch": 63,
              "velocity": 51,
              "position": 20.2875,
              "duration": 0.18541666666666667
            },
            {
              "pitch": 72,
              "velocity": 55,
              "position": 20.2875,
              "duration": 0.18541666666666667
            },
            {
              "pitch": 70,
              "velocity": 51,
              "position": 20.2875,
              "duration": 0.18541666666666667
            },
            {
              "pitch": 67,
              "velocity": 51,
              "position": 20.2875,
              "duration": 0.18541666666666667
            },
            {
              "pitch": 63,
              "velocity": 111,
              "position": 20.479166666666668,
              "duration": 0.3020833333333333
            },
            {
              "pitch": 72,
              "velocity": 115,
              "position": 20.479166666666668,
              "duration": 0.3020833333333333
            },
            {
              "pitch": 70,
              "velocity": 111,
              "position": 20.479166666666668,
              "duration": 0.3020833333333333
            },
            {
              "pitch": 67,
              "velocity": 111,
              "position": 20.479166666666668,
              "duration": 0.3020833333333333
            },
            {
              "pitch": 63,
              "velocity": 81,
              "position": 20.7875,
              "duration": 0.21041666666666667
            },
            {
              "pitch": 72,
              "velocity": 85,
              "position": 20.7875,
              "duration": 0.21041666666666667
            },
            {
              "pitch": 70,
              "velocity": 81,
              "position": 20.7875,
              "duration": 0.21041666666666667
            },
            {
              "pitch": 67,
              "velocity": 81,
              "position": 20.7875,
              "duration": 0.21041666666666667
            },
            {
              "pitch": 63,
              "velocity": 81,
              "position": 21.2875,
              "duration": 0.21041666666666667
            },
            {
              "pitch": 74,
              "velocity": 85,
              "position": 21.2875,
              "duration": 0.21041666666666667
            },
            {
              "pitch": 70,
              "velocity": 81,
              "position": 21.2875,
              "duration": 0.21041666666666667
            },
            {
              "pitch": 67,
              "velocity": 81,
              "position": 21.2875,
              "duration": 0.21041666666666667
            },
            {
              "pitch": 72,
              "velocity": 81,
              "position": 21.7875,
              "duration": 0.1875
            },
            {
              "pitch": 75,
              "velocity": 85,
              "position": 21.7875,
              "duration": 0.21041666666666667
            },
            {
              "pitch": 67,
              "velocity": 81,
              "position": 21.7875,
              "duration": 0.21041666666666667
            },
            {
              "pitch": 70,
              "velocity": 81,
              "position": 21.7875,
              "duration": 0.21041666666666667
            },
            {
              "pitch": 74,
              "velocity": 85,
              "position": 22.479166666666668,
              "duration": 0.3333333333333333
            },
            {
              "pitch": 75,
              "velocity": 118,
              "position": 22.8125,
              "duration": 0.08333333333333333
            },
            {
              "pitch": 63,
              "velocity": 81,
              "position": 22.479166666666668,
              "duration": 0.4895833333333333
            },
            {
              "pitch": 67,
              "velocity": 81,
              "position": 22.479166666666668,
              "duration": 0.4895833333333333
            },
            {
              "pitch": 70,
              "velocity": 81,
              "position": 22.479166666666668,
              "duration": 0.4895833333333333
            },
            {
              "pitch": 76,
              "velocity": 114,
              "position": 22.895833333333332,
              "duration": 0.08333333333333333
            },
            {
              "pitch": 67,
              "velocity": 81,
              "position": 22.979166666666668,
              "duration": 0.4895833333333333
            },
            {
              "pitch": 74,
              "velocity": 81,
              "position": 22.979166666666668,
              "duration": 0.4895833333333333
            },
            {
              "pitch": 70,
              "velocity": 81,
              "position": 22.979166666666668,
              "duration": 0.4895833333333333
            },
            {
              "pitch": 63,
              "velocity": 81,
              "position": 23.479166666666668,
              "duration": 0.4895833333333333
            },
            {
              "pitch": 74,
              "velocity": 85,
              "position": 23.479166666666668,
              "duration": 0.4895833333333333
            },
            {
              "pitch": 70,
              "velocity": 81,
              "position": 23.479166666666668,
              "duration": 0.4895833333333333
            },
            {
              "pitch": 67,
              "velocity": 81,
              "position": 23.479166666666668,
              "duration": 0.4895833333333333
            },
            {
              "pitch": 63,
              "velocity": 81,
              "position": 23.979166666666668,
              "duration": 0.3020833333333333
            },
            {
              "pitch": 72,
              "velocity": 85,
              "position": 23.979166666666668,
              "duration": 0.3020833333333333
            },
            {
              "pitch": 69,
              "velocity": 81,
              "position": 23.979166666666668,
              "duration": 0.3020833333333333
            },
            {
              "pitch": 67,
              "velocity": 81,
              "position": 23.979166666666668,
              "duration": 0.3020833333333333
            },
            {
              "pitch": 63,
              "velocity": 51,
              "position": 24.2875,
              "duration": 0.18541666666666667
            },
            {
              "pitch": 72,
              "velocity": 55,
              "position": 24.2875,
              "duration": 0.18541666666666667
            },
            {
              "pitch": 69,
              "velocity": 51,
              "position": 24.2875,
              "duration": 0.18541666666666667
            },
            {
              "pitch": 67,
              "velocity": 51,
              "position": 24.2875,
              "duration": 0.18541666666666667
            },
            {
              "pitch": 63,
              "velocity": 111,
              "position": 24.479166666666668,
              "duration": 0.3020833333333333
            },
            {
              "pitch": 72,
              "velocity": 115,
              "position": 24.479166666666668,
              "duration": 0.3020833333333333
            },
            {
              "pitch": 69,
              "velocity": 111,
              "position": 24.479166666666668,
              "duration": 0.3020833333333333
            },
            {
              "pitch": 67,
              "velocity": 111,
              "position": 24.479166666666668,
              "duration": 0.3020833333333333
            },
            {
              "pitch": 63,
              "velocity": 81,
              "position": 24.7875,
              "duration": 0.21041666666666667
            },
            {
              "pitch": 72,
              "velocity": 85,
              "position": 24.7875,
              "duration": 0.21041666666666667
            },
            {
              "pitch": 69,
              "velocity": 81,
              "position": 24.7875,
              "duration": 0.21041666666666667
            },
            {
              "pitch": 67,
              "velocity": 81,
              "position": 24.7875,
              "duration": 0.21041666666666667
            },
            {
              "pitch": 63,
              "velocity": 81,
              "position": 25.2875,
              "duration": 0.21041666666666667
            },
            {
              "pitch": 74,
              "velocity": 85,
              "position": 25.2875,
              "duration": 0.21041666666666667
            },
            {
              "pitch": 69,
              "velocity": 81,
              "position": 25.2875,
              "duration": 0.21041666666666667
            },
            {
              "pitch": 67,
              "velocity": 81,
              "position": 25.2875,
              "duration": 0.21041666666666667
            },
            {
              "pitch": 67,
              "velocity": 81,
              "position": 25.7875,
              "duration": 0.21041666666666667
            },
            {
              "pitch": 75,
              "velocity": 85,
              "position": 25.7875,
              "duration": 0.21041666666666667
            },
            {
              "pitch": 72,
              "velocity": 81,
              "position": 25.7875,
              "duration": 0.21041666666666667
            },
            {
              "pitch": 68,
              "velocity": 81,
              "position": 25.7875,
              "duration": 0.21041666666666667
            },
            {
              "pitch": 67,
              "velocity": 48,
              "position": 26.2875,
              "duration": 0.18541666666666667
            },
            {
              "pitch": 75,
              "velocity": 85,
              "position": 26.2875,
              "duration": 0.18541666666666667
            },
            {
              "pitch": 72,
              "velocity": 48,
              "position": 26.2875,
              "duration": 0.18541666666666667
            },
            {
              "pitch": 68,
              "velocity": 85,
              "position": 26.2875,
              "duration": 0.18541666666666667
            },
            {
              "pitch": 63,
              "velocity": 81,
              "position": 26.479166666666668,
              "duration": 0.49375
            },
            {
              "pitch": 74,
              "velocity": 85,
              "position": 26.479166666666668,
              "duration": 0.49375
            },
            {
              "pitch": 68,
              "velocity": 81,
              "position": 26.479166666666668,
              "duration": 0.49375
            },
            {
              "pitch": 67,
              "velocity": 81,
              "position": 26.479166666666668,
              "duration": 0.49375
            },
            {
              "pitch": 63,
              "velocity": 81,
              "position": 26.979166666666668,
              "duration": 0.4895833333333333
            },
            {
              "pitch": 72,
              "velocity": 85,
              "position": 26.979166666666668,
              "duration": 0.4895833333333333
            },
            {
              "pitch": 68,
              "velocity": 81,
              "position": 26.979166666666668,
              "duration": 0.4895833333333333
            },
            {
              "pitch": 67,
              "velocity": 81,
              "position": 26.979166666666668,
              "duration": 0.4895833333333333
            },
            {
              "pitch": 63,
              "velocity": 81,
              "position": 27.479166666666668,
              "duration": 0.4895833333333333
            },
            {
              "pitch": 74,
              "velocity": 85,
              "position": 27.479166666666668,
              "duration": 0.4895833333333333
            },
            {
              "pitch": 68,
              "velocity": 81,
              "position": 27.479166666666668,
              "duration": 0.4895833333333333
            },
            {
              "pitch": 67,
              "velocity": 81,
              "position": 27.479166666666668,
              "duration": 0.4895833333333333
            },
            {
              "pitch": 62,
              "velocity": 79,
              "position": 28.145833333333332,
              "duration": 0.16666666666666666
            },
            {
              "pitch": 65,
              "velocity": 85,
              "position": 28.145833333333332,
              "duration": 0.16666666666666666
            },
            {
              "pitch": 63,
              "velocity": 112,
              "position": 28.3125,
              "duration": 0.16666666666666666
            },
            {
              "pitch": 67,
              "velocity": 118,
              "position": 28.3125,
              "duration": 0.16666666666666666
            },
            {
              "pitch": 65,
              "velocity": 112,
              "position": 28.479166666666668,
              "duration": 0.16666666666666666
            },
            {
              "pitch": 68,
              "velocity": 118,
              "position": 28.479166666666668,
              "duration": 0.16666666666666666
            },
            {
              "pitch": 67,
              "velocity": 79,
              "position": 28.645833333333332,
              "duration": 0.16666666666666666
            },
            {
              "pitch": 70,
              "velocity": 85,
              "position": 28.645833333333332,
              "duration": 0.16666666666666666
            },
            {
              "pitch": 68,
              "velocity": 79,
              "position": 28.8125,
              "duration": 0.25
            },
            {
              "pitch": 72,
              "velocity": 85,
              "position": 28.8125,
              "duration": 0.25
            },
            {
              "pitch": 63,
              "velocity": 79,
              "position": 29.145833333333332,
              "duration": 0.16666666666666666
            },
            {
              "pitch": 72,
              "velocity": 85,
              "position": 29.145833333333332,
              "duration": 0.16666666666666666
            },
            {
              "pitch": 68,
              "velocity": 79,
              "position": 29.145833333333332,
              "duration": 0.16666666666666666
            },
            {
              "pitch": 65,
              "velocity": 112,
              "position": 29.3125,
              "duration": 0.16666666666666666
            },
            {
              "pitch": 74,
              "velocity": 118,
              "position": 29.3125,
              "duration": 0.16666666666666666
            },
            {
              "pitch": 70,
              "velocity": 112,
              "position": 29.3125,
              "duration": 0.16666666666666666
            },
            {
              "pitch": 67,
              "velocity": 112,
              "position": 29.479166666666668,
              "duration": 0.16666666666666666
            },
            {
              "pitch": 75,
              "velocity": 118,
              "position": 29.479166666666668,
              "duration": 0.16666666666666666
            },
            {
              "pitch": 72,
              "velocity": 112,
              "position": 29.479166666666668,
              "duration": 0.16666666666666666
            },
            {
              "pitch": 70,
              "velocity": 79,
              "position": 29.645833333333332,
              "duration": 0.16666666666666666
            },
            {
              "pitch": 77,
              "velocity": 85,
              "position": 29.645833333333332,
              "duration": 0.16666666666666666
            },
            {
              "pitch": 74,
              "velocity": 79,
              "position": 29.645833333333332,
              "duration": 0.16666666666666666
            },
            {
              "pitch": 65,
              "velocity": 84,
              "position": 29.8125,
              "duration": 0.3333333333333333
            },
            {
              "pitch": 79,
              "velocity": 90,
              "position": 29.8125,
              "duration": 0.3333333333333333
            },
            {
              "pitch": 75,
              "velocity": 84,
              "position": 29.8125,
              "duration": 0.3333333333333333
            },
            {
              "pitch": 71,
              "velocity": 84,
              "position": 29.8125,
              "duration": 0.3333333333333333
            }
          ]
        },
        "8": {
          "ctab": {
            "srcChannel": 8,
            "name": "Rhyth1",
            "accType": "SUBRHYTHM",
            "editable": false,
            "mutedNotes": [],
            "mutedChords": [],
            "autoStart": true,
            "sourceChordNote": 0,
            "sourceChordType": "Maj7",
            "ctb2Low": null,
            "ctb2Main": {
              "ntr": "ROOT_FIXED",
              "ntt": "BYPASS",
              "bassOn": false,
              "chordRootUpperLimit": 6,
              "noteLowLimit": 0,
              "noteHighLimit": 127,
              "rtr": "PITCH_SHIFT"
            },
            "ctb2High": null
          },
          "notes": [
            {
              "pitch": 54,
              "velocity": 12,
              "position": 0,
              "duration": 0.010416666666666666
            },
            {
              "pitch": 54,
              "velocity": 72,
              "position": 0.5,
              "duration": 0.010416666666666666
            },
            {
              "pitch": 62,
              "velocity": 91,
              "position": 0.5,
              "duration": 0.010416666666666666
            },
            {
              "pitch": 54,
              "velocity": 72,
              "position": 1.5,
              "duration": 0.010416666666666666
            },
            {
              "pitch": 64,
              "velocity": 78,
              "position": 1.5,
              "duration": 0.010416666666666666
            },
            {
              "pitch": 64,
              "velocity": 64,
              "position": 1.8020833333333333,
              "duration": 0.010416666666666666
            },
            {
              "pitch": 54,
              "velocity": 72,
              "position": 2.5,
              "duration": 0.010416666666666666
            },
            {
              "pitch": 62,
              "velocity": 91,
              "position": 2.5,
              "duration": 0.010416666666666666
            },
            {
              "pitch": 54,
              "velocity": 72,
              "position": 3.5,
              "duration": 0.010416666666666666
            },
            {
              "pitch": 63,
              "velocity": 88,
              "position": 3.5,
              "duration": 0.010416666666666666
            },
            {
              "pitch": 63,
              "velocity": 74,
              "position": 3.8020833333333335,
              "duration": 0.010416666666666666
            },
            {
              "pitch": 54,
              "velocity": 12,
              "position": 4,
              "duration": 0.010416666666666666
            },
            {
              "pitch": 54,
              "velocity": 72,
              "position": 4.5,
              "duration": 0.010416666666666666
            },
            {
              "pitch": 62,
              "velocity": 88,
              "position": 4.5,
              "duration": 0.010416666666666666
            },
            {
              "pitch": 54,
              "velocity": 72,
              "position": 5.5,
              "duration": 0.010416666666666666
            },
            {
              "pitch": 64,
              "velocity": 60,
              "position": 5.5,
              "duration": 0.010416666666666666
            },
            {
              "pitch": 64,
              "velocity": 55,
              "position": 5.802083333333333,
              "duration": 0.010416666666666666
            },
            {
              "pitch": 54,
              "velocity": 72,
              "position": 6.5,
              "duration": 0.010416666666666666
            },
            {
              "pitch": 62,
              "velocity": 94,
              "position": 6.5,
              "duration": 0.010416666666666666
            },
            {
              "pitch": 54,
              "velocity": 72,
              "position": 7.5,
              "duration": 0.010416666666666666
            },
            {
              "pitch": 63,
              "velocity": 83,
              "position": 7.5,
              "duration": 0.010416666666666666
            },
            {
              "pitch": 63,
              "velocity": 65,
              "position": 7.802083333333333,
              "duration": 0.010416666666666666
            },
            {
              "pitch": 54,
              "velocity": 12,
              "position": 8,
              "duration": 0.010416666666666666
            },
            {
              "pitch": 54,
              "velocity": 72,
              "position": 8.5,
              "duration": 0.010416666666666666
            },
            {
              "pitch": 62,
              "velocity": 91,
              "position": 8.5,
              "duration": 0.010416666666666666
            },
            {
              "pitch": 54,
              "velocity": 72,
              "position": 9.5,
              "duration": 0.010416666666666666
            },
            {
              "pitch": 64,
              "velocity": 78,
              "position": 9.5,
              "duration": 0.010416666666666666
            },
            {
              "pitch": 64,
              "velocity": 64,
              "position": 9.802083333333334,
              "duration": 0.010416666666666666
            },
            {
              "pitch": 54,
              "velocity": 72,
              "position": 10.5,
              "duration": 0.010416666666666666
            },
            {
              "pitch": 62,
              "velocity": 91,
              "position": 10.5,
              "duration": 0.010416666666666666
            },
            {
              "pitch": 54,
              "velocity": 72,
              "position": 11.5,
              "duration": 0.010416666666666666
            },
            {
              "pitch": 63,
              "velocity": 88,
              "position": 11.5,
              "duration": 0.010416666666666666
            },
            {
              "pitch": 63,
              "velocity": 74,
              "position": 11.802083333333334,
              "duration": 0.010416666666666666
            },
            {
              "pitch": 54,
              "velocity": 12,
              "position": 12,
              "duration": 0.010416666666666666
            },
            {
              "pitch": 54,
              "velocity": 72,
              "position": 12.5,
              "duration": 0.010416666666666666
            },
            {
              "pitch": 62,
              "velocity": 88,
              "position": 12.5,
              "duration": 0.010416666666666666
            },
            {
              "pitch": 54,
              "velocity": 72,
              "position": 13.5,
              "duration": 0.010416666666666666
            },
            {
              "pitch": 64,
              "velocity": 60,
              "position": 13.5,
              "duration": 0.010416666666666666
            },
            {
              "pitch": 64,
              "velocity": 55,
              "position": 13.802083333333334,
              "duration": 0.010416666666666666
            },
            {
              "pitch": 54,
              "velocity": 72,
              "position": 14.5,
              "duration": 0.010416666666666666
            },
            {
              "pitch": 62,
              "velocity": 94,
              "position": 14.5,
              "duration": 0.010416666666666666
            },
            {
              "pitch": 54,
              "velocity": 72,
              "position": 15.5,
              "duration": 0.010416666666666666
            },
            {
              "pitch": 63,
              "velocity": 83,
              "position": 15.5,
              "duration": 0.010416666666666666
            },
            {
              "pitch": 63,
              "velocity": 65,
              "position": 15.802083333333334,
              "duration": 0.010416666666666666
            },
            {
              "pitch": 54,
              "velocity": 12,
              "position": 16,
              "duration": 0.010416666666666666
            },
            {
              "pitch": 54,
              "velocity": 72,
              "position": 16.5,
              "duration": 0.010416666666666666
            },
            {
              "pitch": 62,
              "velocity": 91,
              "position": 16.5,
              "duration": 0.010416666666666666
            },
            {
              "pitch": 54,
              "velocity": 72,
              "position": 17.5,
              "duration": 0.010416666666666666
            },
            {
              "pitch": 64,
              "velocity": 78,
              "position": 17.5,
              "duration": 0.010416666666666666
            },
            {
              "pitch": 64,
              "velocity": 64,
              "position": 17.802083333333332,
              "duration": 0.010416666666666666
            },
            {
              "pitch": 54,
              "velocity": 72,
              "position": 18.5,
              "duration": 0.010416666666666666
            },
            {
              "pitch": 62,
              "velocity": 91,
              "position": 18.5,
              "duration": 0.010416666666666666
            },
            {
              "pitch": 54,
              "velocity": 72,
              "position": 19.5,
              "duration": 0.010416666666666666
            },
            {
              "pitch": 63,
              "velocity": 88,
              "position": 19.5,
              "duration": 0.010416666666666666
            },
            {
              "pitch": 63,
              "velocity": 74,
              "position": 19.802083333333332,
              "duration": 0.010416666666666666
            },
            {
              "pitch": 54,
              "velocity": 12,
              "position": 20,
              "duration": 0.010416666666666666
            },
            {
              "pitch": 54,
              "velocity": 72,
              "position": 20.5,
              "duration": 0.010416666666666666
            },
            {
              "pitch": 62,
              "velocity": 91,
              "position": 20.5,
              "duration": 0.010416666666666666
            },
            {
              "pitch": 54,
              "velocity": 72,
              "position": 21.5,
              "duration": 0.010416666666666666
            },
            {
              "pitch": 64,
              "velocity": 78,
              "position": 21.5,
              "duration": 0.010416666666666666
            },
            {
              "pitch": 64,
              "velocity": 64,
              "position": 21.802083333333332,
              "duration": 0.010416666666666666
            },
            {
              "pitch": 54,
              "velocity": 72,
              "position": 22.5,
              "duration": 0.010416666666666666
            },
            {
              "pitch": 62,
              "velocity": 91,
              "position": 22.5,
              "duration": 0.010416666666666666
            },
            {
              "pitch": 54,
              "velocity": 72,
              "position": 23.5,
              "duration": 0.010416666666666666
            },
            {
              "pitch": 63,
              "velocity": 88,
              "position": 23.5,
              "duration": 0.010416666666666666
            },
            {
              "pitch": 63,
              "velocity": 74,
              "position": 23.802083333333332,
              "duration": 0.010416666666666666
            },
            {
              "pitch": 54,
              "velocity": 12,
              "position": 24,
              "duration": 0.010416666666666666
            },
            {
              "pitch": 54,
              "velocity": 72,
              "position": 24.5,
              "duration": 0.010416666666666666
            },
            {
              "pitch": 62,
              "velocity": 91,
              "position": 24.5,
              "duration": 0.010416666666666666
            },
            {
              "pitch": 54,
              "velocity": 72,
              "position": 25.5,
              "duration": 0.010416666666666666
            },
            {
              "pitch": 64,
              "velocity": 78,
              "position": 25.5,
              "duration": 0.010416666666666666
            },
            {
              "pitch": 64,
              "velocity": 64,
              "position": 25.802083333333332,
              "duration": 0.010416666666666666
            },
            {
              "pitch": 54,
              "velocity": 72,
              "position": 26.5,
              "duration": 0.010416666666666666
            },
            {
              "pitch": 62,
              "velocity": 91,
              "position": 26.5,
              "duration": 0.010416666666666666
            },
            {
              "pitch": 54,
              "velocity": 72,
              "position": 27.5,
              "duration": 0.010416666666666666
            },
            {
              "pitch": 63,
              "velocity": 88,
              "position": 27.5,
              "duration": 0.010416666666666666
            },
            {
              "pitch": 63,
              "velocity": 74,
              "position": 27.802083333333332,
              "duration": 0.010416666666666666
            },
            {
              "pitch": 54,
              "velocity": 12,
              "position": 28,
              "duration": 0.010416666666666666
            },
            {
              "pitch": 54,
              "velocity": 72,
              "position": 28.5,
              "duration": 0.010416666666666666
            },
            {
              "pitch": 62,
              "velocity": 88,
              "position": 28.5,
              "duration": 0.010416666666666666
            },
            {
              "pitch": 54,
              "velocity": 72,
              "position": 29.5,
              "duration": 0.010416666666666666
            },
            {
              "pitch": 64,
              "velocity": 60,
              "position": 29.5,
              "duration": 0.010416666666666666
            },
            {
              "pitch": 64,
              "velocity": 55,
              "position": 29.802083333333332,
              "duration": 0.010416666666666666
            },
            {
              "pitch": 54,
              "velocity": 72,
              "position": 30.5,
              "duration": 0.010416666666666666
            },
            {
              "pitch": 62,
              "velocity": 94,
              "position": 30.5,
              "duration": 0.010416666666666666
            },
            {
              "pitch": 54,
              "velocity": 72,
              "position": 31.5,
              "duration": 0.010416666666666666
            },
            {
              "pitch": 63,
              "velocity": 83,
              "position": 31.5,
              "duration": 0.010416666666666666
            },
            {
              "pitch": 63,
              "velocity": 65,
              "position": 31.802083333333332,
              "duration": 0.010416666666666666
            }
          ]
        },
        "9": {
          "ctab": {
            "srcChannel": 9,
            "name": "Rhyth2",
            "accType": "RHYTHM",
            "editable": false,
            "mutedNotes": [],
            "mutedChords": [],
            "autoStart": true,
            "sourceChordNote": 0,
            "sourceChordType": "Maj7",
            "ctb2Low": null,
            "ctb2Main": {
              "ntr": "ROOT_FIXED",
              "ntt": "BYPASS",
              "bassOn": false,
              "chordRootUpperLimit": 6,
              "noteLowLimit": 0,
              "noteHighLimit": 127,
              "rtr": "PITCH_SHIFT"
            },
            "ctb2High": null
          },
          "notes": [
            {
              "pitch": 51,
              "velocity": 83,
              "position": 0,
              "duration": 0.010416666666666666
            },
            {
              "pitch": 53,
              "velocity": 74,
              "position": 0.5,
              "duration": 0.010416666666666666
            },
            {
              "pitch": 51,
              "velocity": 66,
              "position": 1,
              "duration": 0.010416666666666666
            },
            {
              "pitch": 53,
              "velocity": 74,
              "position": 1.5,
              "duration": 0.010416666666666666
            },
            {
              "pitch": 51,
              "velocity": 72,
              "position": 2,
              "duration": 0.010416666666666666
            },
            {
              "pitch": 53,
              "velocity": 74,
              "position": 2.5,
              "duration": 0.010416666666666666
            },
            {
              "pitch": 51,
              "velocity": 52,
              "position": 2.8333333333333335,
              "duration": 0.010416666666666666
            },
            {
              "pitch": 51,
              "velocity": 66,
              "position": 3,
              "duration": 0.010416666666666666
            },
            {
              "pitch": 53,
              "velocity": 74,
              "position": 3.5,
              "duration": 0.010416666666666666
            },
            {
              "pitch": 51,
              "velocity": 72,
              "position": 4,
              "duration": 0.010416666666666666
            },
            {
              "pitch": 53,
              "velocity": 74,
              "position": 4.5,
              "duration": 0.010416666666666666
            },
            {
              "pitch": 51,
              "velocity": 66,
              "position": 5,
              "duration": 0.010416666666666666
            },
            {
              "pitch": 53,
              "velocity": 74,
              "position": 5.5,
              "duration": 0.010416666666666666
            },
            {
              "pitch": 51,
              "velocity": 74,
              "position": 6,
              "duration": 0.010416666666666666
            },
            {
              "pitch": 53,
              "velocity": 74,
              "position": 6.5,
              "duration": 0.010416666666666666
            },
            {
              "pitch": 51,
              "velocity": 74,
              "position": 7,
              "duration": 0.010416666666666666
            },
            {
              "pitch": 53,
              "velocity": 74,
              "position": 7.5,
              "duration": 0.010416666666666666
            },
            {
              "pitch": 51,
              "velocity": 83,
              "position": 8,
              "duration": 0.010416666666666666
            },
            {
              "pitch": 53,
              "velocity": 74,
              "position": 8.5,
              "duration": 0.010416666666666666
            },
            {
              "pitch": 51,
              "velocity": 66,
              "position": 9,
              "duration": 0.010416666666666666
            },
            {
              "pitch": 53,
              "velocity": 74,
              "position": 9.5,
              "duration": 0.010416666666666666
            },
            {
              "pitch": 51,
              "velocity": 72,
              "position": 10,
              "duration": 0.010416666666666666
            },
            {
              "pitch": 53,
              "velocity": 74,
              "position": 10.5,
              "duration": 0.010416666666666666
            },
            {
              "pitch": 51,
              "velocity": 52,
              "position": 10.833333333333334,
              "duration": 0.010416666666666666
            },
            {
              "pitch": 51,
              "velocity": 66,
              "position": 11,
              "duration": 0.010416666666666666
            },
            {
              "pitch": 53,
              "velocity": 74,
              "position": 11.5,
              "duration": 0.010416666666666666
            },
            {
              "pitch": 51,
              "velocity": 72,
              "position": 12,
              "duration": 0.010416666666666666
            },
            {
              "pitch": 53,
              "velocity": 74,
              "position": 12.5,
              "duration": 0.010416666666666666
            },
            {
              "pitch": 51,
              "velocity": 66,
              "position": 13,
              "duration": 0.010416666666666666
            },
            {
              "pitch": 53,
              "velocity": 74,
              "position": 13.5,
              "duration": 0.010416666666666666
            },
            {
              "pitch": 51,
              "velocity": 74,
              "position": 14,
              "duration": 0.010416666666666666
            },
            {
              "pitch": 53,
              "velocity": 74,
              "position": 14.5,
              "duration": 0.010416666666666666
            },
            {
              "pitch": 36,
              "velocity": 110,
              "position": 14.8125,
              "duration": 0.010416666666666666
            },
            {
              "pitch": 38,
              "velocity": 74,
              "position": 15.010416666666666,
              "duration": 0.010416666666666666
            },
            {
              "pitch": 38,
              "velocity": 110,
              "position": 15.072916666666666,
              "duration": 0.010416666666666666
            },
            {
              "pitch": 36,
              "velocity": 52,
              "position": 15.8125,
              "duration": 0.010416666666666666
            },
            {
              "pitch": 36,
              "velocity": 99,
              "position": 16,
              "duration": 0.010416666666666666
            },
            {
              "pitch": 57,
              "velocity": 70,
              "position": 16,
              "duration": 0.010416666666666666
            },
            {
              "pitch": 38,
              "velocity": 24,
              "position": 16.3125,
              "duration": 0.010416666666666666
            },
            {
              "pitch": 36,
              "velocity": 34,
              "position": 16.5,
              "duration": 0.010416666666666666
            },
            {
              "pitch": 53,
              "velocity": 74,
              "position": 16.5,
              "duration": 0.010416666666666666
            },
            {
              "pitch": 44,
              "velocity": 64,
              "position": 16.5,
              "duration": 0.010416666666666666
            },
            {
              "pitch": 36,
              "velocity": 38,
              "position": 16.8125,
              "duration": 0.010416666666666666
            },
            {
              "pitch": 38,
              "velocity": 32,
              "position": 16.8125,
              "duration": 0.010416666666666666
            },
            {
              "pitch": 38,
              "velocity": 110,
              "position": 17,
              "duration": 0.010416666666666666
            },
            {
              "pitch": 51,
              "velocity": 72,
              "position": 17,
              "duration": 0.010416666666666666
            },
            {
              "pitch": 44,
              "velocity": 64,
              "position": 17.5,
              "duration": 0.010416666666666666
            },
            {
              "pitch": 53,
              "velocity": 74,
              "position": 17.5,
              "duration": 0.010416666666666666
            },
            {
              "pitch": 36,
              "velocity": 30,
              "position": 17.8125,
              "duration": 0.010416666666666666
            },
            {
              "pitch": 38,
              "velocity": 32,
              "position": 17.8125,
              "duration": 0.010416666666666666
            },
            {
              "pitch": 36,
              "velocity": 95,
              "position": 18,
              "duration": 0.010416666666666666
            },
            {
              "pitch": 51,
              "velocity": 72,
              "position": 18,
              "duration": 0.010416666666666666
            },
            {
              "pitch": 38,
              "velocity": 24,
              "position": 18.3125,
              "duration": 0.010416666666666666
            },
            {
              "pitch": 44,
              "velocity": 64,
              "position": 18.5,
              "duration": 0.010416666666666666
            },
            {
              "pitch": 53,
              "velocity": 74,
              "position": 18.5,
              "duration": 0.010416666666666666
            },
            {
              "pitch": 36,
              "velocity": 36,
              "position": 18.8125,
              "duration": 0.010416666666666666
            },
            {
              "pitch": 38,
              "velocity": 32,
              "position": 18.8125,
              "duration": 0.010416666666666666
            },
            {
              "pitch": 38,
              "velocity": 110,
              "position": 19,
              "duration": 0.010416666666666666
            },
            {
              "pitch": 51,
              "velocity": 72,
              "position": 19,
              "duration": 0.010416666666666666
            },
            {
              "pitch": 38,
              "velocity": 24,
              "position": 19.3125,
              "duration": 0.010416666666666666
            },
            {
              "pitch": 44,
              "velocity": 64,
              "position": 19.5,
              "duration": 0.010416666666666666
            },
            {
              "pitch": 53,
              "velocity": 74,
              "position": 19.5,
              "duration": 0.010416666666666666
            },
            {
              "pitch": 38,
              "velocity": 32,
              "position": 19.8125,
              "duration": 0.010416666666666666
            },
            {
              "pitch": 36,
              "velocity": 99,
              "position": 20,
              "duration": 0.010416666666666666
            },
            {
              "pitch": 49,
              "velocity": 70,
              "position": 20,
              "duration": 0.010416666666666666
            },
            {
              "pitch": 38,
              "velocity": 24,
              "position": 20.3125,
              "duration": 0.010416666666666666
            },
            {
              "pitch": 36,
              "velocity": 34,
              "position": 20.5,
              "duration": 0.010416666666666666
            },
            {
              "pitch": 53,
              "velocity": 74,
              "position": 20.5,
              "duration": 0.010416666666666666
            },
            {
              "pitch": 44,
              "velocity": 64,
              "position": 20.5,
              "duration": 0.010416666666666666
            },
            {
              "pitch": 36,
              "velocity": 38,
              "position": 20.8125,
              "duration": 0.010416666666666666
            },
            {
              "pitch": 38,
              "velocity": 32,
              "position": 20.8125,
              "duration": 0.010416666666666666
            },
            {
              "pitch": 38,
              "velocity": 110,
              "position": 21,
              "duration": 0.010416666666666666
            },
            {
              "pitch": 51,
              "velocity": 72,
              "position": 21,
              "duration": 0.010416666666666666
            },
            {
              "pitch": 44,
              "velocity": 64,
              "position": 21.5,
              "duration": 0.010416666666666666
            },
            {
              "pitch": 53,
              "velocity": 74,
              "position": 21.5,
              "duration": 0.010416666666666666
            },
            {
              "pitch": 36,
              "velocity": 30,
              "position": 21.8125,
              "duration": 0.010416666666666666
            },
            {
              "pitch": 38,
              "velocity": 32,
              "position": 21.8125,
              "duration": 0.010416666666666666
            },
            {
              "pitch": 36,
              "velocity": 95,
              "position": 22,
              "duration": 0.010416666666666666
            },
            {
              "pitch": 51,
              "velocity": 72,
              "position": 22,
              "duration": 0.010416666666666666
            },
            {
              "pitch": 38,
              "velocity": 24,
              "position": 22.3125,
              "duration": 0.010416666666666666
            },
            {
              "pitch": 44,
              "velocity": 64,
              "position": 22.5,
              "duration": 0.010416666666666666
            },
            {
              "pitch": 53,
              "velocity": 74,
              "position": 22.5,
              "duration": 0.010416666666666666
            },
            {
              "pitch": 36,
              "velocity": 36,
              "position": 22.8125,
              "duration": 0.010416666666666666
            },
            {
              "pitch": 38,
              "velocity": 32,
              "position": 22.8125,
              "duration": 0.010416666666666666
            },
            {
              "pitch": 38,
              "velocity": 110,
              "position": 23,
              "duration": 0.010416666666666666
            },
            {
              "pitch": 51,
              "velocity": 72,
              "position": 23,
              "duration": 0.010416666666666666
            },
            {
              "pitch": 38,
              "velocity": 24,
              "position": 23.3125,
              "duration": 0.010416666666666666
            },
            {
              "pitch": 44,
              "velocity": 64,
              "position": 23.5,
              "duration": 0.010416666666666666
            },
            {
              "pitch": 53,
              "velocity": 74,
              "position": 23.5,
              "duration": 0.010416666666666666
            },
            {
              "pitch": 38,
              "velocity": 32,
              "position": 23.8125,
              "duration": 0.010416666666666666
            },
            {
              "pitch": 36,
              "velocity": 99,
              "position": 24,
              "duration": 0.010416666666666666
            },
            {
              "pitch": 57,
              "velocity": 70,
              "position": 24,
              "duration": 0.010416666666666666
            },
            {
              "pitch": 38,
              "velocity": 24,
              "position": 24.3125,
              "duration": 0.010416666666666666
            },
            {
              "pitch": 36,
              "velocity": 34,
              "position": 24.5,
              "duration": 0.010416666666666666
            },
            {
              "pitch": 53,
              "velocity": 74,
              "position": 24.5,
              "duration": 0.010416666666666666
            },
            {
              "pitch": 44,
              "velocity": 64,
              "position": 24.5,
              "duration": 0.010416666666666666
            },
            {
              "pitch": 36,
              "velocity": 38,
              "position": 24.8125,
              "duration": 0.010416666666666666
            },
            {
              "pitch": 38,
              "velocity": 32,
              "position": 24.8125,
              "duration": 0.010416666666666666
            },
            {
              "pitch": 38,
              "velocity": 110,
              "position": 25,
              "duration": 0.010416666666666666
            },
            {
              "pitch": 51,
              "velocity": 72,
              "position": 25,
              "duration": 0.010416666666666666
            },
            {
              "pitch": 44,
              "velocity": 64,
              "position": 25.5,
              "duration": 0.010416666666666666
            },
            {
              "pitch": 53,
              "velocity": 74,
              "position": 25.5,
              "duration": 0.010416666666666666
            },
            {
              "pitch": 36,
              "velocity": 30,
              "position": 25.8125,
              "duration": 0.010416666666666666
            },
            {
              "pitch": 38,
              "velocity": 32,
              "position": 25.8125,
              "duration": 0.010416666666666666
            },
            {
              "pitch": 36,
              "velocity": 95,
              "position": 26,
              "duration": 0.010416666666666666
            },
            {
              "pitch": 51,
              "velocity": 72,
              "position": 26,
              "duration": 0.010416666666666666
            },
            {
              "pitch": 38,
              "velocity": 24,
              "position": 26.3125,
              "duration": 0.010416666666666666
            },
            {
              "pitch": 44,
              "velocity": 64,
              "position": 26.5,
              "duration": 0.010416666666666666
            },
            {
              "pitch": 53,
              "velocity": 74,
              "position": 26.5,
              "duration": 0.010416666666666666
            },
            {
              "pitch": 36,
              "velocity": 36,
              "position": 26.8125,
              "duration": 0.010416666666666666
            },
            {
              "pitch": 38,
              "velocity": 32,
              "position": 26.8125,
              "duration": 0.010416666666666666
            },
            {
              "pitch": 38,
              "velocity": 110,
              "position": 27,
              "duration": 0.010416666666666666
            },
            {
              "pitch": 51,
              "velocity": 72,
              "position": 27,
              "duration": 0.010416666666666666
            },
            {
              "pitch": 38,
              "velocity": 24,
              "position": 27.3125,
              "duration": 0.010416666666666666
            },
            {
              "pitch": 44,
              "velocity": 64,
              "position": 27.5,
              "duration": 0.010416666666666666
            },
            {
              "pitch": 53,
              "velocity": 74,
              "position": 27.5,
              "duration": 0.010416666666666666
            },
            {
              "pitch": 38,
              "velocity": 32,
              "position": 27.8125,
              "duration": 0.010416666666666666
            },
            {
              "pitch": 36,
              "velocity": 98,
              "position": 28,
              "duration": 0.010416666666666666
            },
            {
              "pitch": 51,
              "velocity": 72,
              "position": 28,
              "duration": 0.010416666666666666
            },
            {
              "pitch": 38,
              "velocity": 24,
              "position": 28.3125,
              "duration": 0.010416666666666666
            },
            {
              "pitch": 36,
              "velocity": 28,
              "position": 28.5,
              "duration": 0.010416666666666666
            },
            {
              "pitch": 53,
              "velocity": 74,
              "position": 28.5,
              "duration": 0.010416666666666666
            },
            {
              "pitch": 44,
              "velocity": 64,
              "position": 28.5,
              "duration": 0.010416666666666666
            },
            {
              "pitch": 36,
              "velocity": 64,
              "position": 28.8125,
              "duration": 0.010416666666666666
            },
            {
              "pitch": 38,
              "velocity": 37,
              "position": 28.8125,
              "duration": 0.010416666666666666
            },
            {
              "pitch": 38,
              "velocity": 110,
              "position": 29,
              "duration": 0.010416666666666666
            },
            {
              "pitch": 51,
              "velocity": 72,
              "position": 29,
              "duration": 0.010416666666666666
            },
            {
              "pitch": 38,
              "velocity": 24,
              "position": 29.3125,
              "duration": 0.010416666666666666
            },
            {
              "pitch": 44,
              "velocity": 64,
              "position": 29.5,
              "duration": 0.010416666666666666
            },
            {
              "pitch": 36,
              "velocity": 102,
              "position": 29.8125,
              "duration": 0.010416666666666666
            },
            {
              "pitch": 46,
              "velocity": 90,
              "position": 29.8125,
              "duration": 0.010416666666666666
            },
            {
              "pitch": 44,
              "velocity": 47,
              "position": 30,
              "duration": 0.010416666666666666
            },
            {
              "pitch": 44,
              "velocity": 64,
              "position": 30.5,
              "duration": 0.010416666666666666
            },
            {
              "pitch": 36,
              "velocity": 80,
              "position": 30.8125,
              "duration": 0.010416666666666666
            },
            {
              "pitch": 38,
              "velocity": 61,
              "position": 30.989583333333332,
              "duration": 0.010416666666666666
            },
            {
              "pitch": 38,
              "velocity": 109,
              "position": 31.020833333333332,
              "duration": 0.010416666666666666
            },
            {
              "pitch": 38,
              "velocity": 98,
              "position": 31.510416666666668,
              "duration": 0.010416666666666666
            },
            {
              "pitch": 44,
              "velocity": 64,
              "position": 31.510416666666668,
              "duration": 0.010416666666666666
            },
            {
              "pitch": 38,
              "velocity": 96,
              "position": 31.822916666666668,
              "duration": 0.010416666666666666
            },
            {
              "pitch": 49,
              "velocity": 74,
              "position": 31.989583333333332,
              "duration": 0.010416666666666666
            }
          ]
        },
        "10": {
          "ctab": {
            "srcChannel": 10,
            "name": "Bass",
            "accType": "BASS",
            "editable": false,
            "mutedNotes": [],
            "mutedChords": [
              "dim7",
              "dim",
              "minMaj7(9)",
              "minMaj7",
              "min7(11)",
              "min7(9)",
              "min(9)",
              "m7b5",
              "min7",
              "min6",
              "min"
            ],
            "autoStart": false,
            "sourceChordNote": 0,
            "sourceChordType": "Maj",
            "ctb2Low": null,
            "ctb2Main": {
              "ntr": "ROOT_TRANSPOSITION",
              "ntt": "BYPASS",
              "bassOn": false,
              "chordRootUpperLimit": 3,
              "noteLowLimit": 28,
              "noteHighLimit": 127,
              "rtr": "PITCH_SHIFT"
            },
            "ctb2High": null
          },
          "notes": [
            {
              "pitch": 36,
              "velocity": 60,
              "position": 12,
              "duration": 0.6666666666666666
            },
            {
              "pitch": 31,
              "velocity": 60,
              "position": 12.666666666666666,
              "duration": 0.16666666666666666
            },
            {
              "pitch": 30,
              "velocity": 60,
              "position": 12.833333333333334,
              "duration": 0.16666666666666666
            },
            {
              "pitch": 29,
              "velocity": 60,
              "position": 13,
              "duration": 0.6666666666666666
            },
            {
              "pitch": 31,
              "velocity": 60,
              "position": 13.666666666666666,
              "duration": 0.16666666666666666
            },
            {
              "pitch": 33,
              "velocity": 60,
              "position": 13.833333333333334,
              "duration": 0.16666666666666666
            },
            {
              "pitch": 34,
              "velocity": 60,
              "position": 14,
              "duration": 0.6666666666666666
            },
            {
              "pitch": 33,
              "velocity": 60,
              "position": 14.666666666666666,
              "duration": 0.16666666666666666
            },
            {
              "pitch": 32,
              "velocity": 60,
              "position": 14.833333333333334,
              "duration": 0.16666666666666666
            },
            {
              "pitch": 31,
              "velocity": 60,
              "position": 15,
              "duration": 1
            },
            {
              "pitch": 24,
              "velocity": 60,
              "position": 16,
              "duration": 0.4166666666666667
            },
            {
              "pitch": 24,
              "velocity": 96,
              "position": 16.5,
              "duration": 0.0625
            },
            {
              "pitch": 48,
              "velocity": 66,
              "position": 16.833333333333332,
              "duration": 0.17708333333333334
            },
            {
              "pitch": 36,
              "velocity": 59,
              "position": 17.833333333333332,
              "duration": 0.6541666666666667
            },
            {
              "pitch": 36,
              "velocity": 63,
              "position": 18.5,
              "duration": 0.2916666666666667
            },
            {
              "pitch": 31,
              "velocity": 60,
              "position": 19.333333333333332,
              "duration": 0.17708333333333334
            },
            {
              "pitch": 33,
              "velocity": 54,
              "position": 19.5,
              "duration": 0.4791666666666667
            },
            {
              "pitch": 24,
              "velocity": 60,
              "position": 20,
              "duration": 0.78125
            },
            {
              "pitch": 48,
              "velocity": 65,
              "position": 20.833333333333332,
              "duration": 0.17708333333333334
            },
            {
              "pitch": 36,
              "velocity": 59,
              "position": 21.833333333333332,
              "duration": 0.6666666666666666
            },
            {
              "pitch": 43,
              "velocity": 64,
              "position": 22.5,
              "duration": 0.2916666666666667
            },
            {
              "pitch": 31,
              "velocity": 60,
              "position": 23,
              "duration": 0.32083333333333336
            },
            {
              "pitch": 31,
              "velocity": 60,
              "position": 23.333333333333332,
              "duration": 0.17708333333333334
            },
            {
              "pitch": 43,
              "velocity": 59,
              "position": 23.5,
              "duration": 0.4791666666666667
            },
            {
              "pitch": 24,
              "velocity": 60,
              "position": 24,
              "duration": 0.4166666666666667
            },
            {
              "pitch": 24,
              "velocity": 96,
              "position": 24.5,
              "duration": 0.0625
            },
            {
              "pitch": 48,
              "velocity": 65,
              "position": 24.833333333333332,
              "duration": 0.17708333333333334
            },
            {
              "pitch": 36,
              "velocity": 59,
              "position": 25.833333333333332,
              "duration": 0.6583333333333333
            },
            {
              "pitch": 36,
              "velocity": 63,
              "position": 26.5,
              "duration": 0.2916666666666667
            },
            {
              "pitch": 31,
              "velocity": 60,
              "position": 27.333333333333332,
              "duration": 0.17708333333333334
            },
            {
              "pitch": 36,
              "velocity": 59,
              "position": 27.5,
              "duration": 0.4791666666666667
            },
            {
              "pitch": 32,
              "velocity": 60,
              "position": 28,
              "duration": 0.78125
            },
            {
              "pitch": 25,
              "velocity": 65,
              "position": 28.833333333333332,
              "duration": 1.0104166666666667
            },
            {
              "pitch": 31,
              "velocity": 59,
              "position": 29.833333333333332,
              "duration": 0.3333333333333333
            },
            {
              "pitch": 97,
              "velocity": 90,
              "position": 30.5,
              "duration": 1.4166666666666667
            }
          ]
        },
        "11": {
          "ctab": {
            "srcChannel": 11,
            "name": "Gtr",
            "accType": "CHORD1",
            "editable": false,
            "mutedNotes": [],
            "mutedChords": [
              "dim7",
              "dim",
              "minMaj7(9)",
              "minMaj7",
              "min7(11)",
              "min7(9)",
              "min(9)",
              "m7b5",
              "min7",
              "min6",
              "min"
            ],
            "autoStart": false,
            "sourceChordNote": 0,
            "sourceChordType": "Maj",
            "ctb2Low": null,
            "ctb2Main": {
              "ntr": "ROOT_TRANSPOSITION",
              "ntt": "BYPASS",
              "bassOn": false,
              "chordRootUpperLimit": 2,
              "noteLowLimit": 57,
              "noteHighLimit": 79,
              "rtr": "PITCH_SHIFT"
            },
            "ctb2High": null
          },
          "notes": [
            {
              "pitch": 100,
              "velocity": 91,
              "position": 16,
              "duration": 0.15625
            },
            {
              "pitch": 64,
              "velocity": 53,
              "position": 16,
              "duration": 0.78125
            },
            {
              "pitch": 67,
              "velocity": 53,
              "position": 16.010416666666668,
              "duration": 0.78125
            },
            {
              "pitch": 74,
              "velocity": 53,
              "position": 16.03125,
              "duration": 0.7666666666666667
            },
            {
              "pitch": 71,
              "velocity": 53,
              "position": 16.020833333333332,
              "duration": 0.78125
            },
            {
              "pitch": 74,
              "velocity": 50,
              "position": 16.808333333333334,
              "duration": 0.10416666666666667
            },
            {
              "pitch": 71,
              "velocity": 50,
              "position": 16.81875,
              "duration": 0.10416666666666667
            },
            {
              "pitch": 67,
              "velocity": 50,
              "position": 16.829166666666666,
              "duration": 0.10416666666666667
            },
            {
              "pitch": 64,
              "velocity": 50,
              "position": 16.839583333333334,
              "duration": 0.10416666666666667
            },
            {
              "pitch": 99,
              "velocity": 73,
              "position": 16.808333333333334,
              "duration": 0.15625
            },
            {
              "pitch": 74,
              "velocity": 69,
              "position": 17.308333333333334,
              "duration": 0.041666666666666664
            },
            {
              "pitch": 71,
              "velocity": 69,
              "position": 17.31875,
              "duration": 0.041666666666666664
            },
            {
              "pitch": 67,
              "velocity": 69,
              "position": 17.329166666666666,
              "duration": 0.041666666666666664
            },
            {
              "pitch": 64,
              "velocity": 69,
              "position": 17.339583333333334,
              "duration": 0.041666666666666664
            },
            {
              "pitch": 99,
              "velocity": 75,
              "position": 17.308333333333334,
              "duration": 0.15625
            },
            {
              "pitch": 100,
              "velocity": 91,
              "position": 17.5,
              "duration": 0.15625
            },
            {
              "pitch": 64,
              "velocity": 41,
              "position": 17.5,
              "duration": 0.78125
            },
            {
              "pitch": 67,
              "velocity": 49,
              "position": 17.510416666666668,
              "duration": 0.78125
            },
            {
              "pitch": 71,
              "velocity": 49,
              "position": 17.520833333333332,
              "duration": 0.78125
            },
            {
              "pitch": 74,
              "velocity": 49,
              "position": 17.53125,
              "duration": 0.7729166666666667
            },
            {
              "pitch": 74,
              "velocity": 58,
              "position": 18.308333333333334,
              "duration": 0.10416666666666667
            },
            {
              "pitch": 71,
              "velocity": 58,
              "position": 18.31875,
              "duration": 0.10416666666666667
            },
            {
              "pitch": 67,
              "velocity": 58,
              "position": 18.329166666666666,
              "duration": 0.10416666666666667
            },
            {
              "pitch": 64,
              "velocity": 58,
              "position": 18.339583333333334,
              "duration": 0.10416666666666667
            },
            {
              "pitch": 99,
              "velocity": 72,
              "position": 18.308333333333334,
              "duration": 0.15625
            },
            {
              "pitch": 64,
              "velocity": 71,
              "position": 18.5,
              "duration": 0.052083333333333336
            },
            {
              "pitch": 67,
              "velocity": 71,
              "position": 18.510416666666668,
              "duration": 0.052083333333333336
            },
            {
              "pitch": 71,
              "velocity": 71,
              "position": 18.520833333333332,
              "duration": 0.052083333333333336
            },
            {
              "pitch": 74,
              "velocity": 71,
              "position": 18.53125,
              "duration": 0.052083333333333336
            },
            {
              "pitch": 100,
              "velocity": 91,
              "position": 18.5,
              "duration": 0.15625
            },
            {
              "pitch": 74,
              "velocity": 65,
              "position": 18.808333333333334,
              "duration": 0.041666666666666664
            },
            {
              "pitch": 71,
              "velocity": 65,
              "position": 18.81875,
              "duration": 0.041666666666666664
            },
            {
              "pitch": 67,
              "velocity": 65,
              "position": 18.829166666666666,
              "duration": 0.041666666666666664
            },
            {
              "pitch": 64,
              "velocity": 65,
              "position": 18.839583333333334,
              "duration": 0.041666666666666664
            },
            {
              "pitch": 99,
              "velocity": 79,
              "position": 18.808333333333334,
              "duration": 0.15625
            },
            {
              "pitch": 100,
              "velocity": 91,
              "position": 19,
              "duration": 0.15625
            },
            {
              "pitch": 64,
              "velocity": 59,
              "position": 19,
              "duration": 0.28125
            },
            {
              "pitch": 67,
              "velocity": 59,
              "position": 19.010416666666668,
              "duration": 0.28125
            },
            {
              "pitch": 71,
              "velocity": 59,
              "position": 19.020833333333332,
              "duration": 0.28125
            },
            {
              "pitch": 74,
              "velocity": 59,
              "position": 19.03125,
              "duration": 0.2708333333333333
            },
            {
              "pitch": 74,
              "velocity": 44,
              "position": 19.308333333333334,
              "duration": 0.11458333333333333
            },
            {
              "pitch": 71,
              "velocity": 44,
              "position": 19.31875,
              "duration": 0.11458333333333333
            },
            {
              "pitch": 67,
              "velocity": 44,
              "position": 19.329166666666666,
              "duration": 0.11458333333333333
            },
            {
              "pitch": 64,
              "velocity": 44,
              "position": 19.339583333333334,
              "duration": 0.11458333333333333
            },
            {
              "pitch": 99,
              "velocity": 73,
              "position": 19.308333333333334,
              "duration": 0.15625
            },
            {
              "pitch": 64,
              "velocity": 52,
              "position": 19.5,
              "duration": 0.11458333333333333
            },
            {
              "pitch": 67,
              "velocity": 52,
              "position": 19.510416666666668,
              "duration": 0.11458333333333333
            },
            {
              "pitch": 71,
              "velocity": 52,
              "position": 19.520833333333332,
              "duration": 0.11458333333333333
            },
            {
              "pitch": 74,
              "velocity": 52,
              "position": 19.53125,
              "duration": 0.11458333333333333
            },
            {
              "pitch": 100,
              "velocity": 91,
              "position": 19.5,
              "duration": 0.15625
            },
            {
              "pitch": 99,
              "velocity": 73,
              "position": 19.808333333333334,
              "duration": 0.15625
            },
            {
              "pitch": 74,
              "velocity": 39,
              "position": 19.808333333333334,
              "duration": 0.16666666666666666
            },
            {
              "pitch": 71,
              "velocity": 39,
              "position": 19.81875,
              "duration": 0.16666666666666666
            },
            {
              "pitch": 67,
              "velocity": 39,
              "position": 19.829166666666666,
              "duration": 0.16666666666666666
            },
            {
              "pitch": 64,
              "velocity": 39,
              "position": 19.839583333333334,
              "duration": 0.15625
            },
            {
              "pitch": 100,
              "velocity": 91,
              "position": 20,
              "duration": 0.15625
            },
            {
              "pitch": 64,
              "velocity": 52,
              "position": 20,
              "duration": 0.28125
            },
            {
              "pitch": 67,
              "velocity": 59,
              "position": 20.010416666666668,
              "duration": 0.28125
            },
            {
              "pitch": 71,
              "velocity": 59,
              "position": 20.020833333333332,
              "duration": 0.28125
            },
            {
              "pitch": 74,
              "velocity": 59,
              "position": 20.03125,
              "duration": 0.27291666666666664
            },
            {
              "pitch": 74,
              "velocity": 36,
              "position": 20.308333333333334,
              "duration": 0.10416666666666667
            },
            {
              "pitch": 71,
              "velocity": 36,
              "position": 20.31875,
              "duration": 0.10416666666666667
            },
            {
              "pitch": 67,
              "velocity": 36,
              "position": 20.329166666666666,
              "duration": 0.10416666666666667
            },
            {
              "pitch": 64,
              "velocity": 32,
              "position": 20.339583333333334,
              "duration": 0.10416666666666667
            },
            {
              "pitch": 99,
              "velocity": 71,
              "position": 20.308333333333334,
              "duration": 0.15625
            },
            {
              "pitch": 64,
              "velocity": 69,
              "position": 20.5,
              "duration": 0.052083333333333336
            },
            {
              "pitch": 67,
              "velocity": 69,
              "position": 20.510416666666668,
              "duration": 0.052083333333333336
            },
            {
              "pitch": 71,
              "velocity": 69,
              "position": 20.520833333333332,
              "duration": 0.052083333333333336
            },
            {
              "pitch": 74,
              "velocity": 69,
              "position": 20.53125,
              "duration": 0.052083333333333336
            },
            {
              "pitch": 100,
              "velocity": 93,
              "position": 20.5,
              "duration": 0.15625
            },
            {
              "pitch": 74,
              "velocity": 55,
              "position": 20.808333333333334,
              "duration": 0.15625
            },
            {
              "pitch": 99,
              "velocity": 72,
              "position": 20.808333333333334,
              "duration": 0.15625
            },
            {
              "pitch": 71,
              "velocity": 55,
              "position": 20.81875,
              "duration": 0.15625
            },
            {
              "pitch": 67,
              "velocity": 55,
              "position": 20.829166666666666,
              "duration": 0.15625
            },
            {
              "pitch": 64,
              "velocity": 55,
              "position": 20.839583333333334,
              "duration": 0.15625
            },
            {
              "pitch": 64,
              "velocity": 80,
              "position": 21.308333333333334,
              "duration": 0.041666666666666664
            },
            {
              "pitch": 67,
              "velocity": 80,
              "position": 21.31875,
              "duration": 0.041666666666666664
            },
            {
              "pitch": 71,
              "velocity": 80,
              "position": 21.329166666666666,
              "duration": 0.041666666666666664
            },
            {
              "pitch": 74,
              "velocity": 80,
              "position": 21.339583333333334,
              "duration": 0.041666666666666664
            },
            {
              "pitch": 99,
              "velocity": 69,
              "position": 21.308333333333334,
              "duration": 0.15625
            },
            {
              "pitch": 100,
              "velocity": 91,
              "position": 21.5,
              "duration": 0.15625
            },
            {
              "pitch": 74,
              "velocity": 115,
              "position": 21.5,
              "duration": 0.78125
            },
            {
              "pitch": 71,
              "velocity": 115,
              "position": 21.510416666666668,
              "duration": 0.78125
            },
            {
              "pitch": 67,
              "velocity": 115,
              "position": 21.520833333333332,
              "duration": 0.78125
            },
            {
              "pitch": 64,
              "velocity": 115,
              "position": 21.53125,
              "duration": 0.78125
            },
            {
              "pitch": 72,
              "velocity": 69,
              "position": 22.308333333333334,
              "duration": 0.10416666666666667
            },
            {
              "pitch": 69,
              "velocity": 69,
              "position": 22.31875,
              "duration": 0.10416666666666667
            },
            {
              "pitch": 65,
              "velocity": 69,
              "position": 22.329166666666666,
              "duration": 0.10416666666666667
            },
            {
              "pitch": 60,
              "velocity": 69,
              "position": 22.339583333333334,
              "duration": 0.10416666666666667
            },
            {
              "pitch": 99,
              "velocity": 71,
              "position": 22.308333333333334,
              "duration": 0.15625
            },
            {
              "pitch": 60,
              "velocity": 82,
              "position": 22.5,
              "duration": 0.052083333333333336
            },
            {
              "pitch": 65,
              "velocity": 82,
              "position": 22.510416666666668,
              "duration": 0.052083333333333336
            },
            {
              "pitch": 69,
              "velocity": 82,
              "position": 22.520833333333332,
              "duration": 0.052083333333333336
            },
            {
              "pitch": 72,
              "velocity": 82,
              "position": 22.53125,
              "duration": 0.052083333333333336
            },
            {
              "pitch": 100,
              "velocity": 91,
              "position": 22.5,
              "duration": 0.15625
            },
            {
              "pitch": 72,
              "velocity": 66,
              "position": 22.808333333333334,
              "duration": 0.041666666666666664
            },
            {
              "pitch": 69,
              "velocity": 66,
              "position": 22.81875,
              "duration": 0.041666666666666664
            },
            {
              "pitch": 65,
              "velocity": 66,
              "position": 22.829166666666666,
              "duration": 0.041666666666666664
            },
            {
              "pitch": 60,
              "velocity": 66,
              "position": 22.839583333333334,
              "duration": 0.041666666666666664
            },
            {
              "pitch": 99,
              "velocity": 71,
              "position": 22.808333333333334,
              "duration": 0.15625
            },
            {
              "pitch": 100,
              "velocity": 91,
              "position": 23,
              "duration": 0.15625
            },
            {
              "pitch": 60,
              "velocity": 47,
              "position": 23,
              "duration": 0.28125
            },
            {
              "pitch": 65,
              "velocity": 55,
              "position": 23.010416666666668,
              "duration": 0.28125
            },
            {
              "pitch": 69,
              "velocity": 55,
              "position": 23.020833333333332,
              "duration": 0.28125
            },
            {
              "pitch": 72,
              "velocity": 55,
              "position": 23.03125,
              "duration": 0.27291666666666664
            },
            {
              "pitch": 72,
              "velocity": 65,
              "position": 23.308333333333334,
              "duration": 0.11458333333333333
            },
            {
              "pitch": 69,
              "velocity": 65,
              "position": 23.31875,
              "duration": 0.11458333333333333
            },
            {
              "pitch": 65,
              "velocity": 65,
              "position": 23.329166666666666,
              "duration": 0.11458333333333333
            },
            {
              "pitch": 60,
              "velocity": 65,
              "position": 23.339583333333334,
              "duration": 0.11458333333333333
            },
            {
              "pitch": 99,
              "velocity": 72,
              "position": 23.308333333333334,
              "duration": 0.15625
            },
            {
              "pitch": 60,
              "velocity": 41,
              "position": 23.5,
              "duration": 0.11458333333333333
            },
            {
              "pitch": 65,
              "velocity": 41,
              "position": 23.510416666666668,
              "duration": 0.11458333333333333
            },
            {
              "pitch": 69,
              "velocity": 41,
              "position": 23.520833333333332,
              "duration": 0.11458333333333333
            },
            {
              "pitch": 72,
              "velocity": 41,
              "position": 23.53125,
              "duration": 0.11458333333333333
            },
            {
              "pitch": 100,
              "velocity": 91,
              "position": 23.5,
              "duration": 0.15625
            },
            {
              "pitch": 99,
              "velocity": 67,
              "position": 23.808333333333334,
              "duration": 0.15625
            },
            {
              "pitch": 72,
              "velocity": 36,
              "position": 23.808333333333334,
              "duration": 0.16666666666666666
            },
            {
              "pitch": 69,
              "velocity": 36,
              "position": 23.81875,
              "duration": 0.16666666666666666
            },
            {
              "pitch": 65,
              "velocity": 36,
              "position": 23.829166666666666,
              "duration": 0.16666666666666666
            },
            {
              "pitch": 60,
              "velocity": 36,
              "position": 23.839583333333334,
              "duration": 0.15625
            },
            {
              "pitch": 100,
              "velocity": 91,
              "position": 24,
              "duration": 0.15625
            },
            {
              "pitch": 64,
              "velocity": 53,
              "position": 24,
              "duration": 0.78125
            },
            {
              "pitch": 67,
              "velocity": 53,
              "position": 24.010416666666668,
              "duration": 0.78125
            },
            {
              "pitch": 74,
              "velocity": 53,
              "position": 24.03125,
              "duration": 0.7666666666666667
            },
            {
              "pitch": 71,
              "velocity": 53,
              "position": 24.020833333333332,
              "duration": 0.78125
            },
            {
              "pitch": 74,
              "velocity": 50,
              "position": 24.808333333333334,
              "duration": 0.10416666666666667
            },
            {
              "pitch": 71,
              "velocity": 50,
              "position": 24.81875,
              "duration": 0.10416666666666667
            },
            {
              "pitch": 67,
              "velocity": 50,
              "position": 24.829166666666666,
              "duration": 0.10416666666666667
            },
            {
              "pitch": 64,
              "velocity": 50,
              "position": 24.839583333333334,
              "duration": 0.10416666666666667
            },
            {
              "pitch": 99,
              "velocity": 73,
              "position": 24.808333333333334,
              "duration": 0.15625
            },
            {
              "pitch": 74,
              "velocity": 69,
              "position": 25.308333333333334,
              "duration": 0.041666666666666664
            },
            {
              "pitch": 71,
              "velocity": 69,
              "position": 25.31875,
              "duration": 0.041666666666666664
            },
            {
              "pitch": 67,
              "velocity": 69,
              "position": 25.329166666666666,
              "duration": 0.041666666666666664
            },
            {
              "pitch": 64,
              "velocity": 69,
              "position": 25.339583333333334,
              "duration": 0.041666666666666664
            },
            {
              "pitch": 99,
              "velocity": 75,
              "position": 25.308333333333334,
              "duration": 0.15625
            },
            {
              "pitch": 100,
              "velocity": 91,
              "position": 25.5,
              "duration": 0.15625
            },
            {
              "pitch": 64,
              "velocity": 41,
              "position": 25.5,
              "duration": 0.78125
            },
            {
              "pitch": 67,
              "velocity": 49,
              "position": 25.510416666666668,
              "duration": 0.78125
            },
            {
              "pitch": 71,
              "velocity": 49,
              "position": 25.520833333333332,
              "duration": 0.78125
            },
            {
              "pitch": 74,
              "velocity": 49,
              "position": 25.53125,
              "duration": 0.7729166666666667
            },
            {
              "pitch": 74,
              "velocity": 58,
              "position": 26.308333333333334,
              "duration": 0.10416666666666667
            },
            {
              "pitch": 71,
              "velocity": 58,
              "position": 26.31875,
              "duration": 0.10416666666666667
            },
            {
              "pitch": 67,
              "velocity": 58,
              "position": 26.329166666666666,
              "duration": 0.10416666666666667
            },
            {
              "pitch": 64,
              "velocity": 58,
              "position": 26.339583333333334,
              "duration": 0.10416666666666667
            },
            {
              "pitch": 99,
              "velocity": 72,
              "position": 26.308333333333334,
              "duration": 0.15625
            },
            {
              "pitch": 64,
              "velocity": 71,
              "position": 26.5,
              "duration": 0.052083333333333336
            },
            {
              "pitch": 67,
              "velocity": 71,
              "position": 26.510416666666668,
              "duration": 0.052083333333333336
            },
            {
              "pitch": 71,
              "velocity": 71,
              "position": 26.520833333333332,
              "duration": 0.052083333333333336
            },
            {
              "pitch": 74,
              "velocity": 71,
              "position": 26.53125,
              "duration": 0.052083333333333336
            },
            {
              "pitch": 100,
              "velocity": 91,
              "position": 26.5,
              "duration": 0.15625
            },
            {
              "pitch": 74,
              "velocity": 65,
              "position": 26.808333333333334,
              "duration": 0.041666666666666664
            },
            {
              "pitch": 71,
              "velocity": 65,
              "position": 26.81875,
              "duration": 0.041666666666666664
            },
            {
              "pitch": 67,
              "velocity": 65,
              "position": 26.829166666666666,
              "duration": 0.041666666666666664
            },
            {
              "pitch": 64,
              "velocity": 65,
              "position": 26.839583333333334,
              "duration": 0.041666666666666664
            },
            {
              "pitch": 99,
              "velocity": 79,
              "position": 26.808333333333334,
              "duration": 0.15625
            },
            {
              "pitch": 100,
              "velocity": 91,
              "position": 27,
              "duration": 0.15625
            },
            {
              "pitch": 64,
              "velocity": 59,
              "position": 27,
              "duration": 0.28125
            },
            {
              "pitch": 67,
              "velocity": 59,
              "position": 27.010416666666668,
              "duration": 0.28125
            },
            {
              "pitch": 71,
              "velocity": 59,
              "position": 27.020833333333332,
              "duration": 0.28125
            },
            {
              "pitch": 74,
              "velocity": 59,
              "position": 27.03125,
              "duration": 0.2708333333333333
            },
            {
              "pitch": 74,
              "velocity": 44,
              "position": 27.308333333333334,
              "duration": 0.11458333333333333
            },
            {
              "pitch": 71,
              "velocity": 44,
              "position": 27.31875,
              "duration": 0.11458333333333333
            },
            {
              "pitch": 67,
              "velocity": 44,
              "position": 27.329166666666666,
              "duration": 0.11458333333333333
            },
            {
              "pitch": 64,
              "velocity": 44,
              "position": 27.339583333333334,
              "duration": 0.11458333333333333
            },
            {
              "pitch": 99,
              "velocity": 73,
              "position": 27.308333333333334,
              "duration": 0.15625
            },
            {
              "pitch": 64,
              "velocity": 52,
              "position": 27.5,
              "duration": 0.11458333333333333
            },
            {
              "pitch": 67,
              "velocity": 52,
              "position": 27.510416666666668,
              "duration": 0.11458333333333333
            },
            {
              "pitch": 71,
              "velocity": 52,
              "position": 27.520833333333332,
              "duration": 0.11458333333333333
            },
            {
              "pitch": 74,
              "velocity": 52,
              "position": 27.53125,
              "duration": 0.11458333333333333
            },
            {
              "pitch": 100,
              "velocity": 91,
              "position": 27.5,
              "duration": 0.15625
            },
            {
              "pitch": 99,
              "velocity": 73,
              "position": 27.808333333333334,
              "duration": 0.15625
            },
            {
              "pitch": 74,
              "velocity": 39,
              "position": 27.808333333333334,
              "duration": 0.16666666666666666
            },
            {
              "pitch": 71,
              "velocity": 39,
              "position": 27.81875,
              "duration": 0.16666666666666666
            },
            {
              "pitch": 67,
              "velocity": 39,
              "position": 27.829166666666666,
              "duration": 0.16666666666666666
            },
            {
              "pitch": 64,
              "velocity": 39,
              "position": 27.839583333333334,
              "duration": 0.15625
            },
            {
              "pitch": 100,
              "velocity": 91,
              "position": 28,
              "duration": 0.15625
            },
            {
              "pitch": 63,
              "velocity": 52,
              "position": 28,
              "duration": 0.28125
            },
            {
              "pitch": 67,
              "velocity": 59,
              "position": 28.010416666666668,
              "duration": 0.28125
            },
            {
              "pitch": 68,
              "velocity": 59,
              "position": 28.020833333333332,
              "duration": 0.28125
            },
            {
              "pitch": 72,
              "velocity": 59,
              "position": 28.03125,
              "duration": 0.2708333333333333
            },
            {
              "pitch": 72,
              "velocity": 71,
              "position": 28.308333333333334,
              "duration": 0.10416666666666667
            },
            {
              "pitch": 68,
              "velocity": 71,
              "position": 28.31875,
              "duration": 0.10416666666666667
            },
            {
              "pitch": 67,
              "velocity": 71,
              "position": 28.329166666666666,
              "duration": 0.10416666666666667
            },
            {
              "pitch": 63,
              "velocity": 71,
              "position": 28.339583333333334,
              "duration": 0.125
            },
            {
              "pitch": 99,
              "velocity": 77,
              "position": 28.308333333333334,
              "duration": 0.15625
            },
            {
              "pitch": 63,
              "velocity": 50,
              "position": 28.5,
              "duration": 0.052083333333333336
            },
            {
              "pitch": 67,
              "velocity": 50,
              "position": 28.510416666666668,
              "duration": 0.052083333333333336
            },
            {
              "pitch": 68,
              "velocity": 50,
              "position": 28.520833333333332,
              "duration": 0.052083333333333336
            },
            {
              "pitch": 72,
              "velocity": 50,
              "position": 28.53125,
              "duration": 0.07291666666666667
            },
            {
              "pitch": 100,
              "velocity": 91,
              "position": 28.5,
              "duration": 0.15625
            },
            {
              "pitch": 72,
              "velocity": 54,
              "position": 28.808333333333334,
              "duration": 0.15625
            },
            {
              "pitch": 99,
              "velocity": 77,
              "position": 28.808333333333334,
              "duration": 0.15625
            },
            {
              "pitch": 68,
              "velocity": 54,
              "position": 28.81875,
              "duration": 0.15625
            },
            {
              "pitch": 65,
              "velocity": 54,
              "position": 28.829166666666666,
              "duration": 0.15625
            },
            {
              "pitch": 61,
              "velocity": 54,
              "position": 28.839583333333334,
              "duration": 0.15208333333333332
            },
            {
              "pitch": 61,
              "velocity": 72,
              "position": 29,
              "duration": 0.052083333333333336
            },
            {
              "pitch": 65,
              "velocity": 72,
              "position": 29.010416666666668,
              "duration": 0.052083333333333336
            },
            {
              "pitch": 68,
              "velocity": 72,
              "position": 29.020833333333332,
              "duration": 0.052083333333333336
            },
            {
              "pitch": 72,
              "velocity": 72,
              "position": 29.03125,
              "duration": 0.07291666666666667
            },
            {
              "pitch": 100,
              "velocity": 91,
              "position": 29,
              "duration": 0.15625
            },
            {
              "pitch": 99,
              "velocity": 77,
              "position": 29.308333333333334,
              "duration": 0.15625
            },
            {
              "pitch": 72,
              "velocity": 86,
              "position": 29.308333333333334,
              "duration": 0.16666666666666666
            },
            {
              "pitch": 68,
              "velocity": 86,
              "position": 29.31875,
              "duration": 0.16666666666666666
            },
            {
              "pitch": 61,
              "velocity": 86,
              "position": 29.339583333333334,
              "duration": 0.15
            },
            {
              "pitch": 65,
              "velocity": 86,
              "position": 29.329166666666666,
              "duration": 0.16666666666666666
            },
            {
              "pitch": 61,
              "velocity": 68,
              "position": 29.5,
              "duration": 0.052083333333333336
            },
            {
              "pitch": 65,
              "velocity": 68,
              "position": 29.510416666666668,
              "duration": 0.052083333333333336
            },
            {
              "pitch": 68,
              "velocity": 68,
              "position": 29.520833333333332,
              "duration": 0.052083333333333336
            },
            {
              "pitch": 72,
              "velocity": 68,
              "position": 29.53125,
              "duration": 0.07291666666666667
            },
            {
              "pitch": 100,
              "velocity": 91,
              "position": 29.5,
              "duration": 0.15625
            },
            {
              "pitch": 99,
              "velocity": 77,
              "position": 29.808333333333334,
              "duration": 0.15625
            },
            {
              "pitch": 72,
              "velocity": 51,
              "position": 29.808333333333334,
              "duration": 0.16666666666666666
            },
            {
              "pitch": 69,
              "velocity": 51,
              "position": 29.81875,
              "duration": 0.16666666666666666
            },
            {
              "pitch": 62,
              "velocity": 51,
              "position": 29.839583333333334,
              "duration": 0.15208333333333332
            },
            {
              "pitch": 65,
              "velocity": 51,
              "position": 29.829166666666666,
              "duration": 0.16666666666666666
            },
            {
              "pitch": 62,
              "velocity": 83,
              "position": 30,
              "duration": 0.052083333333333336
            },
            {
              "pitch": 65,
              "velocity": 83,
              "position": 30.010416666666668,
              "duration": 0.052083333333333336
            },
            {
              "pitch": 69,
              "velocity": 83,
              "position": 30.020833333333332,
              "duration": 0.052083333333333336
            },
            {
              "pitch": 72,
              "velocity": 83,
              "position": 30.03125,
              "duration": 0.07291666666666667
            },
            {
              "pitch": 100,
              "velocity": 91,
              "position": 30,
              "duration": 0.15625
            },
            {
              "pitch": 99,
              "velocity": 77,
              "position": 30.308333333333334,
              "duration": 0.15625
            },
            {
              "pitch": 72,
              "velocity": 87,
              "position": 30.308333333333334,
              "duration": 0.16666666666666666
            },
            {
              "pitch": 69,
              "velocity": 87,
              "position": 30.31875,
              "duration": 0.16666666666666666
            },
            {
              "pitch": 62,
              "velocity": 87,
              "position": 30.339583333333334,
              "duration": 0.15208333333333332
            },
            {
              "pitch": 65,
              "velocity": 87,
              "position": 30.329166666666666,
              "duration": 0.16666666666666666
            },
            {
              "pitch": 62,
              "velocity": 68,
              "position": 30.5,
              "duration": 0.052083333333333336
            },
            {
              "pitch": 65,
              "velocity": 68,
              "position": 30.510416666666668,
              "duration": 0.052083333333333336
            },
            {
              "pitch": 69,
              "velocity": 68,
              "position": 30.520833333333332,
              "duration": 0.052083333333333336
            },
            {
              "pitch": 72,
              "velocity": 68,
              "position": 30.53125,
              "duration": 0.07291666666666667
            },
            {
              "pitch": 100,
              "velocity": 91,
              "position": 30.5,
              "duration": 0.15625
            },
            {
              "pitch": 72,
              "velocity": 64,
              "position": 30.808333333333334,
              "duration": 0.11458333333333333
            },
            {
              "pitch": 69,
              "velocity": 64,
              "position": 30.81875,
              "duration": 0.11458333333333333
            },
            {
              "pitch": 65,
              "velocity": 64,
              "position": 30.829166666666666,
              "duration": 0.11458333333333333
            },
            {
              "pitch": 99,
              "velocity": 77,
              "position": 30.808333333333334,
              "duration": 0.15625
            },
            {
              "pitch": 62,
              "velocity": 64,
              "position": 30.839583333333334,
              "duration": 0.13541666666666666
            },
            {
              "pitch": 100,
              "velocity": 91,
              "position": 31,
              "duration": 0.15625
            },
            {
              "pitch": 62,
              "velocity": 49,
              "position": 31,
              "duration": 0.28125
            },
            {
              "pitch": 65,
              "velocity": 57,
              "position": 31.010416666666668,
              "duration": 0.28125
            },
            {
              "pitch": 69,
              "velocity": 57,
              "position": 31.020833333333332,
              "duration": 0.28125
            },
            {
              "pitch": 72,
              "velocity": 57,
              "position": 31.03125,
              "duration": 0.2708333333333333
            },
            {
              "pitch": 72,
              "velocity": 34,
              "position": 31.308333333333334,
              "duration": 0.11458333333333333
            },
            {
              "pitch": 69,
              "velocity": 34,
              "position": 31.31875,
              "duration": 0.11458333333333333
            },
            {
              "pitch": 65,
              "velocity": 34,
              "position": 31.329166666666666,
              "duration": 0.11458333333333333
            },
            {
              "pitch": 99,
              "velocity": 77,
              "position": 31.308333333333334,
              "duration": 0.15625
            },
            {
              "pitch": 62,
              "velocity": 34,
              "position": 31.339583333333334,
              "duration": 0.13541666666666666
            },
            {
              "pitch": 100,
              "velocity": 91,
              "position": 31.5,
              "duration": 0.15625
            },
            {
              "pitch": 72,
              "velocity": 57,
              "position": 31.53125,
              "duration": 0.23958333333333334
            },
            {
              "pitch": 62,
              "velocity": 49,
              "position": 31.5,
              "duration": 0.28125
            },
            {
              "pitch": 65,
              "velocity": 57,
              "position": 31.510416666666668,
              "duration": 0.28125
            },
            {
              "pitch": 69,
              "velocity": 57,
              "position": 31.520833333333332,
              "duration": 0.28125
            },
            {
              "pitch": 72,
              "velocity": 34,
              "position": 31.808333333333334,
              "duration": 0.11458333333333333
            },
            {
              "pitch": 69,
              "velocity": 34,
              "position": 31.81875,
              "duration": 0.11458333333333333
            },
            {
              "pitch": 65,
              "velocity": 34,
              "position": 31.829166666666666,
              "duration": 0.11458333333333333
            },
            {
              "pitch": 62,
              "velocity": 34,
              "position": 31.839583333333334,
              "duration": 0.11458333333333333
            },
            {
              "pitch": 99,
              "velocity": 77,
              "position": 31.808333333333334,
              "duration": 0.15625
            }
          ]
        },
        "12": {
          "ctab": {
            "srcChannel": 12,
            "name": "EP",
            "accType": "CHORD2",
            "editable": false,
            "mutedNotes": [],
            "mutedChords": [
              "dim7",
              "dim",
              "minMaj7(9)",
              "minMaj7",
              "min7(11)",
              "min7(9)",
              "min(9)",
              "m7b5",
              "min7",
              "min6",
              "min"
            ],
            "autoStart": false,
            "sourceChordNote": 0,
            "sourceChordType": "Maj",
            "ctb2Low": null,
            "ctb2Main": {
              "ntr": "ROOT_TRANSPOSITION",
              "ntt": "BYPASS",
              "bassOn": false,
              "chordRootUpperLimit": 10,
              "noteLowLimit": 0,
              "noteHighLimit": 127,
              "rtr": "PITCH_SHIFT"
            },
            "ctb2High": null
          },
          "notes": [
            {
              "pitch": 59,
              "velocity": 74,
              "position": 0,
              "duration": 0.20416666666666666
            },
            {
              "pitch": 52,
              "velocity": 76,
              "position": 0,
              "duration": 0.22916666666666666
            },
            {
              "pitch": 55,
              "velocity": 86,
              "position": 0,
              "duration": 0.23958333333333334
            },
            {
              "pitch": 62,
              "velocity": 86,
              "position": 0,
              "duration": 0.24583333333333332
            },
            {
              "pitch": 52,
              "velocity": 86,
              "position": 0.30833333333333335,
              "duration": 0.08333333333333333
            },
            {
              "pitch": 62,
              "velocity": 84,
              "position": 0.30833333333333335,
              "duration": 0.09166666666666666
            },
            {
              "pitch": 59,
              "velocity": 71,
              "position": 0.30833333333333335,
              "duration": 0.10416666666666667
            },
            {
              "pitch": 55,
              "velocity": 98,
              "position": 0.30833333333333335,
              "duration": 0.12916666666666668
            },
            {
              "pitch": 52,
              "velocity": 94,
              "position": 0.5,
              "duration": 0.11875
            },
            {
              "pitch": 55,
              "velocity": 89,
              "position": 0.5,
              "duration": 0.13125
            },
            {
              "pitch": 59,
              "velocity": 96,
              "position": 0.5,
              "duration": 0.16458333333333333
            },
            {
              "pitch": 62,
              "velocity": 76,
              "position": 0.5,
              "duration": 0.17916666666666667
            },
            {
              "pitch": 52,
              "velocity": 127,
              "position": 0.8083333333333333,
              "duration": 0.125
            },
            {
              "pitch": 55,
              "velocity": 84,
              "position": 0.8083333333333333,
              "duration": 0.15
            },
            {
              "pitch": 62,
              "velocity": 84,
              "position": 0.8083333333333333,
              "duration": 0.20833333333333334
            },
            {
              "pitch": 59,
              "velocity": 77,
              "position": 0.8083333333333333,
              "duration": 0.23333333333333334
            },
            {
              "pitch": 57,
              "velocity": 91,
              "position": 1.3083333333333333,
              "duration": 0.06666666666666667
            },
            {
              "pitch": 53,
              "velocity": 91,
              "position": 1.3083333333333333,
              "duration": 0.12291666666666666
            },
            {
              "pitch": 60,
              "velocity": 94,
              "position": 1.3083333333333333,
              "duration": 0.1625
            },
            {
              "pitch": 64,
              "velocity": 96,
              "position": 1.3083333333333333,
              "duration": 0.16458333333333333
            },
            {
              "pitch": 48,
              "velocity": 84,
              "position": 0,
              "duration": 1.8375
            },
            {
              "pitch": 59,
              "velocity": 89,
              "position": 1.8083333333333333,
              "duration": 0.09166666666666666
            },
            {
              "pitch": 55,
              "velocity": 84,
              "position": 1.8083333333333333,
              "duration": 0.09791666666666667
            },
            {
              "pitch": 52,
              "velocity": 94,
              "position": 1.8083333333333333,
              "duration": 0.12083333333333333
            },
            {
              "pitch": 62,
              "velocity": 94,
              "position": 1.8083333333333333,
              "duration": 0.12916666666666668
            },
            {
              "pitch": 36,
              "velocity": 86,
              "position": 0,
              "duration": 1.9708333333333334
            },
            {
              "pitch": 60,
              "velocity": 100,
              "position": 2.308333333333333,
              "duration": 0.41875
            },
            {
              "pitch": 50,
              "velocity": 107,
              "position": 2.308333333333333,
              "duration": 0.48333333333333334
            },
            {
              "pitch": 57,
              "velocity": 98,
              "position": 2.308333333333333,
              "duration": 0.49583333333333335
            },
            {
              "pitch": 53,
              "velocity": 94,
              "position": 2.308333333333333,
              "duration": 0.5208333333333334
            },
            {
              "pitch": 48,
              "velocity": 76,
              "position": 3,
              "duration": 0.14583333333333334
            },
            {
              "pitch": 52,
              "velocity": 76,
              "position": 3,
              "duration": 0.19166666666666668
            },
            {
              "pitch": 59,
              "velocity": 91,
              "position": 3,
              "duration": 0.2
            },
            {
              "pitch": 55,
              "velocity": 84,
              "position": 3,
              "duration": 0.21458333333333332
            },
            {
              "pitch": 43,
              "velocity": 70,
              "position": 3.308333333333333,
              "duration": 0.09583333333333334
            },
            {
              "pitch": 50,
              "velocity": 86,
              "position": 3.5,
              "duration": 0.2520833333333333
            },
            {
              "pitch": 60,
              "velocity": 84,
              "position": 3.5,
              "duration": 0.35625
            },
            {
              "pitch": 53,
              "velocity": 71,
              "position": 3.5,
              "duration": 0.35625
            },
            {
              "pitch": 57,
              "velocity": 84,
              "position": 3.5,
              "duration": 0.3958333333333333
            },
            {
              "pitch": 43,
              "velocity": 86,
              "position": 3.808333333333333,
              "duration": 0.19791666666666666
            },
            {
              "pitch": 55,
              "velocity": 89,
              "position": 4,
              "duration": 0.07708333333333334
            },
            {
              "pitch": 59,
              "velocity": 102,
              "position": 4,
              "duration": 0.15416666666666667
            },
            {
              "pitch": 62,
              "velocity": 94,
              "position": 4,
              "duration": 0.18958333333333333
            },
            {
              "pitch": 52,
              "velocity": 102,
              "position": 4,
              "duration": 0.34791666666666665
            },
            {
              "pitch": 62,
              "velocity": 18,
              "position": 4.308333333333334,
              "duration": 0.0875
            },
            {
              "pitch": 59,
              "velocity": 70,
              "position": 4.308333333333334,
              "duration": 0.10625
            },
            {
              "pitch": 55,
              "velocity": 67,
              "position": 4.308333333333334,
              "duration": 0.10833333333333334
            },
            {
              "pitch": 55,
              "velocity": 74,
              "position": 4.5,
              "duration": 0.06875
            },
            {
              "pitch": 59,
              "velocity": 67,
              "position": 4.5,
              "duration": 0.08125
            },
            {
              "pitch": 52,
              "velocity": 42,
              "position": 4.5,
              "duration": 0.0875
            },
            {
              "pitch": 62,
              "velocity": 31,
              "position": 4.5,
              "duration": 0.0875
            },
            {
              "pitch": 55,
              "velocity": 94,
              "position": 4.808333333333334,
              "duration": 0.07083333333333333
            },
            {
              "pitch": 52,
              "velocity": 86,
              "position": 4.808333333333334,
              "duration": 0.11458333333333333
            },
            {
              "pitch": 59,
              "velocity": 91,
              "position": 4.808333333333334,
              "duration": 0.1375
            },
            {
              "pitch": 62,
              "velocity": 65,
              "position": 4.808333333333334,
              "duration": 0.14791666666666667
            },
            {
              "pitch": 57,
              "velocity": 84,
              "position": 5.308333333333334,
              "duration": 0.06041666666666667
            },
            {
              "pitch": 64,
              "velocity": 77,
              "position": 5.308333333333334,
              "duration": 0.06666666666666667
            },
            {
              "pitch": 60,
              "velocity": 96,
              "position": 5.308333333333334,
              "duration": 0.07916666666666666
            },
            {
              "pitch": 53,
              "velocity": 98,
              "position": 5.308333333333334,
              "duration": 0.13333333333333333
            },
            {
              "pitch": 48,
              "velocity": 96,
              "position": 4,
              "duration": 1.74375
            },
            {
              "pitch": 36,
              "velocity": 76,
              "position": 4,
              "duration": 1.8604166666666666
            },
            {
              "pitch": 55,
              "velocity": 94,
              "position": 5.808333333333334,
              "duration": 0.05625
            },
            {
              "pitch": 59,
              "velocity": 98,
              "position": 5.808333333333334,
              "duration": 0.0625
            },
            {
              "pitch": 62,
              "velocity": 98,
              "position": 5.808333333333334,
              "duration": 0.07083333333333333
            },
            {
              "pitch": 52,
              "velocity": 111,
              "position": 5.808333333333334,
              "duration": 0.07083333333333333
            },
            {
              "pitch": 41,
              "velocity": 74,
              "position": 6.308333333333334,
              "duration": 0.22916666666666666
            },
            {
              "pitch": 46,
              "velocity": 70,
              "position": 6.5,
              "duration": 0.18541666666666667
            },
            {
              "pitch": 57,
              "velocity": 87,
              "position": 6.5,
              "duration": 0.20416666666666666
            },
            {
              "pitch": 34,
              "velocity": 76,
              "position": 6.5,
              "duration": 0.28541666666666665
            },
            {
              "pitch": 53,
              "velocity": 94,
              "position": 6.5,
              "duration": 0.3020833333333333
            },
            {
              "pitch": 60,
              "velocity": 100,
              "position": 6.5,
              "duration": 0.32916666666666666
            },
            {
              "pitch": 50,
              "velocity": 102,
              "position": 6.5,
              "duration": 0.3333333333333333
            },
            {
              "pitch": 39,
              "velocity": 86,
              "position": 6.808333333333334,
              "duration": 0.21041666666666667
            },
            {
              "pitch": 32,
              "velocity": 73,
              "position": 7,
              "duration": 0.17916666666666667
            },
            {
              "pitch": 44,
              "velocity": 89,
              "position": 7,
              "duration": 0.25625
            },
            {
              "pitch": 48,
              "velocity": 86,
              "position": 7,
              "duration": 0.32083333333333336
            },
            {
              "pitch": 51,
              "velocity": 96,
              "position": 7,
              "duration": 0.3729166666666667
            },
            {
              "pitch": 58,
              "velocity": 82,
              "position": 7,
              "duration": 0.3875
            },
            {
              "pitch": 55,
              "velocity": 76,
              "position": 7,
              "duration": 0.42083333333333334
            },
            {
              "pitch": 41,
              "velocity": 32,
              "position": 7.5,
              "duration": 0.0875
            },
            {
              "pitch": 46,
              "velocity": 82,
              "position": 7.5,
              "duration": 0.2125
            },
            {
              "pitch": 34,
              "velocity": 91,
              "position": 7.5,
              "duration": 0.24583333333333332
            },
            {
              "pitch": 50,
              "velocity": 77,
              "position": 7.5,
              "duration": 0.29583333333333334
            },
            {
              "pitch": 60,
              "velocity": 89,
              "position": 7.5,
              "duration": 0.3375
            },
            {
              "pitch": 53,
              "velocity": 76,
              "position": 7.5,
              "duration": 0.37916666666666665
            },
            {
              "pitch": 57,
              "velocity": 81,
              "position": 7.5,
              "duration": 0.38333333333333336
            },
            {
              "pitch": 43,
              "velocity": 67,
              "position": 7.808333333333334,
              "duration": 0.17916666666666667
            },
            {
              "pitch": 55,
              "velocity": 94,
              "position": 8,
              "duration": 0.08333333333333333
            },
            {
              "pitch": 52,
              "velocity": 91,
              "position": 8,
              "duration": 0.15
            },
            {
              "pitch": 59,
              "velocity": 89,
              "position": 8,
              "duration": 0.15
            },
            {
              "pitch": 62,
              "velocity": 102,
              "position": 8,
              "duration": 0.17708333333333334
            },
            {
              "pitch": 55,
              "velocity": 70,
              "position": 8.308333333333334,
              "duration": 0.07083333333333333
            },
            {
              "pitch": 52,
              "velocity": 52,
              "position": 8.308333333333334,
              "duration": 0.07291666666666667
            },
            {
              "pitch": 59,
              "velocity": 84,
              "position": 8.308333333333334,
              "duration": 0.07916666666666666
            },
            {
              "pitch": 62,
              "velocity": 29,
              "position": 8.308333333333334,
              "duration": 0.09791666666666667
            },
            {
              "pitch": 62,
              "velocity": 89,
              "position": 8.5,
              "duration": 0.06875
            },
            {
              "pitch": 52,
              "velocity": 70,
              "position": 8.5,
              "duration": 0.0875
            },
            {
              "pitch": 55,
              "velocity": 76,
              "position": 8.5,
              "duration": 0.125
            },
            {
              "pitch": 59,
              "velocity": 94,
              "position": 8.5,
              "duration": 0.14375
            },
            {
              "pitch": 55,
              "velocity": 94,
              "position": 8.808333333333334,
              "duration": 0.08333333333333333
            },
            {
              "pitch": 52,
              "velocity": 91,
              "position": 8.808333333333334,
              "duration": 0.15
            },
            {
              "pitch": 59,
              "velocity": 89,
              "position": 8.808333333333334,
              "duration": 0.15
            },
            {
              "pitch": 62,
              "velocity": 102,
              "position": 8.808333333333334,
              "duration": 0.17708333333333334
            },
            {
              "pitch": 64,
              "velocity": 96,
              "position": 9.308333333333334,
              "duration": 0.07083333333333333
            },
            {
              "pitch": 57,
              "velocity": 94,
              "position": 9.308333333333334,
              "duration": 0.075
            },
            {
              "pitch": 60,
              "velocity": 100,
              "position": 9.308333333333334,
              "duration": 0.09583333333333334
            },
            {
              "pitch": 53,
              "velocity": 96,
              "position": 9.308333333333334,
              "duration": 0.14583333333333334
            },
            {
              "pitch": 48,
              "velocity": 87,
              "position": 8,
              "duration": 1.8583333333333334
            },
            {
              "pitch": 55,
              "velocity": 94,
              "position": 9.808333333333334,
              "duration": 0.06041666666666667
            },
            {
              "pitch": 52,
              "velocity": 89,
              "position": 9.808333333333334,
              "duration": 0.06041666666666667
            },
            {
              "pitch": 59,
              "velocity": 89,
              "position": 9.808333333333334,
              "duration": 0.0625
            },
            {
              "pitch": 62,
              "velocity": 89,
              "position": 9.808333333333334,
              "duration": 0.0875
            },
            {
              "pitch": 36,
              "velocity": 76,
              "position": 8,
              "duration": 1.9625
            },
            {
              "pitch": 43,
              "velocity": 67,
              "position": 10.308333333333334,
              "duration": 0.42083333333333334
            },
            {
              "pitch": 60,
              "velocity": 91,
              "position": 10.5,
              "duration": 0.2375
            },
            {
              "pitch": 53,
              "velocity": 89,
              "position": 10.5,
              "duration": 0.2708333333333333
            },
            {
              "pitch": 50,
              "velocity": 98,
              "position": 10.5,
              "duration": 0.29375
            },
            {
              "pitch": 57,
              "velocity": 89,
              "position": 10.5,
              "duration": 0.3125
            },
            {
              "pitch": 43,
              "velocity": 73,
              "position": 10.808333333333334,
              "duration": 0.21666666666666667
            },
            {
              "pitch": 48,
              "velocity": 76,
              "position": 11,
              "duration": 0.13125
            },
            {
              "pitch": 52,
              "velocity": 84,
              "position": 11,
              "duration": 0.1875
            },
            {
              "pitch": 59,
              "velocity": 94,
              "position": 11,
              "duration": 0.24166666666666667
            },
            {
              "pitch": 55,
              "velocity": 70,
              "position": 11,
              "duration": 0.3020833333333333
            },
            {
              "pitch": 43,
              "velocity": 30,
              "position": 11.5,
              "duration": 0.10208333333333333
            },
            {
              "pitch": 50,
              "velocity": 94,
              "position": 11.5,
              "duration": 0.16041666666666668
            },
            {
              "pitch": 53,
              "velocity": 86,
              "position": 11.5,
              "duration": 0.2625
            },
            {
              "pitch": 57,
              "velocity": 86,
              "position": 11.5,
              "duration": 0.28125
            },
            {
              "pitch": 60,
              "velocity": 91,
              "position": 11.5,
              "duration": 0.30416666666666664
            },
            {
              "pitch": 43,
              "velocity": 43,
              "position": 11.808333333333334,
              "duration": 0.24791666666666667
            },
            {
              "pitch": 48,
              "velocity": 86,
              "position": 12,
              "duration": 0.33958333333333335
            },
            {
              "pitch": 36,
              "velocity": 86,
              "position": 12,
              "duration": 0.5145833333333333
            },
            {
              "pitch": 55,
              "velocity": 87,
              "position": 12,
              "duration": 0.6875
            },
            {
              "pitch": 52,
              "velocity": 87,
              "position": 12,
              "duration": 0.70625
            },
            {
              "pitch": 62,
              "velocity": 102,
              "position": 12,
              "duration": 0.7708333333333334
            },
            {
              "pitch": 59,
              "velocity": 91,
              "position": 12,
              "duration": 0.8208333333333333
            },
            {
              "pitch": 36,
              "velocity": 76,
              "position": 12.808333333333334,
              "duration": 0.2791666666666667
            },
            {
              "pitch": 29,
              "velocity": 89,
              "position": 13,
              "duration": 0.44375
            },
            {
              "pitch": 41,
              "velocity": 86,
              "position": 13,
              "duration": 0.61875
            },
            {
              "pitch": 53,
              "velocity": 100,
              "position": 13,
              "duration": 0.7645833333333333
            },
            {
              "pitch": 57,
              "velocity": 98,
              "position": 13,
              "duration": 0.7833333333333333
            },
            {
              "pitch": 64,
              "velocity": 89,
              "position": 13,
              "duration": 0.88125
            },
            {
              "pitch": 41,
              "velocity": 38,
              "position": 13.808333333333334,
              "duration": 0.2833333333333333
            },
            {
              "pitch": 46,
              "velocity": 96,
              "position": 14,
              "duration": 0.4479166666666667
            },
            {
              "pitch": 34,
              "velocity": 94,
              "position": 14,
              "duration": 0.68125
            },
            {
              "pitch": 56,
              "velocity": 96,
              "position": 14,
              "duration": 0.7375
            },
            {
              "pitch": 63,
              "velocity": 94,
              "position": 14,
              "duration": 0.8208333333333333
            },
            {
              "pitch": 60,
              "velocity": 96,
              "position": 13,
              "duration": 1.8270833333333334
            },
            {
              "pitch": 38,
              "velocity": 86,
              "position": 14.808333333333334,
              "duration": 0.21041666666666667
            },
            {
              "pitch": 31,
              "velocity": 89,
              "position": 15,
              "duration": 0.45
            },
            {
              "pitch": 43,
              "velocity": 76,
              "position": 15,
              "duration": 0.6625
            },
            {
              "pitch": 67,
              "velocity": 94,
              "position": 15,
              "duration": 0.7291666666666666
            },
            {
              "pitch": 64,
              "velocity": 107,
              "position": 15,
              "duration": 0.7979166666666667
            },
            {
              "pitch": 60,
              "velocity": 74,
              "position": 15,
              "duration": 0.80625
            },
            {
              "pitch": 57,
              "velocity": 107,
              "position": 15,
              "duration": 0.8145833333333333
            },
            {
              "pitch": 43,
              "velocity": 68,
              "position": 15.808333333333334,
              "duration": 0.25625
            },
            {
              "pitch": 59,
              "velocity": 89,
              "position": 16,
              "duration": 0.08541666666666667
            },
            {
              "pitch": 55,
              "velocity": 94,
              "position": 16,
              "duration": 0.10625
            },
            {
              "pitch": 62,
              "velocity": 89,
              "position": 16,
              "duration": 0.15416666666666667
            },
            {
              "pitch": 52,
              "velocity": 100,
              "position": 16,
              "duration": 0.33958333333333335
            },
            {
              "pitch": 59,
              "velocity": 70,
              "position": 16.308333333333334,
              "duration": 0.07291666666666667
            },
            {
              "pitch": 55,
              "velocity": 77,
              "position": 16.308333333333334,
              "duration": 0.09375
            },
            {
              "pitch": 62,
              "velocity": 31,
              "position": 16.308333333333334,
              "duration": 0.09375
            },
            {
              "pitch": 62,
              "velocity": 70,
              "position": 16.5,
              "duration": 0.0625
            },
            {
              "pitch": 52,
              "velocity": 56,
              "position": 16.5,
              "duration": 0.0875
            },
            {
              "pitch": 55,
              "velocity": 81,
              "position": 16.5,
              "duration": 0.09583333333333334
            },
            {
              "pitch": 59,
              "velocity": 62,
              "position": 16.5,
              "duration": 0.12083333333333333
            },
            {
              "pitch": 55,
              "velocity": 84,
              "position": 16.808333333333334,
              "duration": 0.0625
            },
            {
              "pitch": 59,
              "velocity": 94,
              "position": 16.808333333333334,
              "duration": 0.06458333333333334
            },
            {
              "pitch": 36,
              "velocity": 87,
              "position": 16,
              "duration": 0.8979166666666667
            },
            {
              "pitch": 52,
              "velocity": 96,
              "position": 16.808333333333334,
              "duration": 0.09166666666666666
            },
            {
              "pitch": 48,
              "velocity": 87,
              "position": 16,
              "duration": 0.9041666666666667
            },
            {
              "pitch": 62,
              "velocity": 102,
              "position": 16.808333333333334,
              "duration": 0.11875
            },
            {
              "pitch": 57,
              "velocity": 102,
              "position": 17.308333333333334,
              "duration": 0.06041666666666667
            },
            {
              "pitch": 64,
              "velocity": 102,
              "position": 17.308333333333334,
              "duration": 0.0625
            },
            {
              "pitch": 60,
              "velocity": 89,
              "position": 17.308333333333334,
              "duration": 0.0625
            },
            {
              "pitch": 53,
              "velocity": 96,
              "position": 17.308333333333334,
              "duration": 0.08333333333333333
            },
            {
              "pitch": 55,
              "velocity": 94,
              "position": 17.808333333333334,
              "duration": 0.04791666666666667
            },
            {
              "pitch": 62,
              "velocity": 87,
              "position": 17.808333333333334,
              "duration": 0.06041666666666667
            },
            {
              "pitch": 59,
              "velocity": 102,
              "position": 17.808333333333334,
              "duration": 0.06041666666666667
            },
            {
              "pitch": 52,
              "velocity": 105,
              "position": 17.808333333333334,
              "duration": 0.06041666666666667
            },
            {
              "pitch": 43,
              "velocity": 96,
              "position": 18.308333333333334,
              "duration": 0.3
            },
            {
              "pitch": 60,
              "velocity": 82,
              "position": 18.5,
              "duration": 0.2375
            },
            {
              "pitch": 57,
              "velocity": 77,
              "position": 18.5,
              "duration": 0.24583333333333332
            },
            {
              "pitch": 53,
              "velocity": 91,
              "position": 18.5,
              "duration": 0.26875
            },
            {
              "pitch": 50,
              "velocity": 91,
              "position": 18.5,
              "duration": 0.26875
            },
            {
              "pitch": 43,
              "velocity": 52,
              "position": 18.808333333333334,
              "duration": 0.11041666666666666
            },
            {
              "pitch": 48,
              "velocity": 76,
              "position": 19,
              "duration": 0.23541666666666666
            },
            {
              "pitch": 59,
              "velocity": 65,
              "position": 19,
              "duration": 0.2708333333333333
            },
            {
              "pitch": 52,
              "velocity": 87,
              "position": 19,
              "duration": 0.29375
            },
            {
              "pitch": 55,
              "velocity": 61,
              "position": 19,
              "duration": 0.29583333333333334
            },
            {
              "pitch": 43,
              "velocity": 98,
              "position": 19.308333333333334,
              "duration": 0.16875
            },
            {
              "pitch": 50,
              "velocity": 96,
              "position": 19.5,
              "duration": 0.29791666666666666
            },
            {
              "pitch": 60,
              "velocity": 86,
              "position": 19.5,
              "duration": 0.33125
            },
            {
              "pitch": 53,
              "velocity": 102,
              "position": 19.5,
              "duration": 0.3458333333333333
            },
            {
              "pitch": 57,
              "velocity": 102,
              "position": 19.5,
              "duration": 0.36041666666666666
            },
            {
              "pitch": 43,
              "velocity": 82,
              "position": 19.808333333333334,
              "duration": 0.22291666666666668
            },
            {
              "pitch": 55,
              "velocity": 70,
              "position": 20,
              "duration": 0.07083333333333333
            },
            {
              "pitch": 59,
              "velocity": 54,
              "position": 20,
              "duration": 0.08125
            },
            {
              "pitch": 62,
              "velocity": 65,
              "position": 20,
              "duration": 0.09583333333333334
            },
            {
              "pitch": 52,
              "velocity": 89,
              "position": 20,
              "duration": 0.18333333333333332
            },
            {
              "pitch": 52,
              "velocity": 61,
              "position": 20.308333333333334,
              "duration": 0.06875
            },
            {
              "pitch": 62,
              "velocity": 39,
              "position": 20.308333333333334,
              "duration": 0.0875
            },
            {
              "pitch": 59,
              "velocity": 68,
              "position": 20.308333333333334,
              "duration": 0.11041666666666666
            },
            {
              "pitch": 55,
              "velocity": 71,
              "position": 20.308333333333334,
              "duration": 0.15208333333333332
            },
            {
              "pitch": 52,
              "velocity": 61,
              "position": 20.5,
              "duration": 0.06875
            },
            {
              "pitch": 62,
              "velocity": 39,
              "position": 20.5,
              "duration": 0.0875
            },
            {
              "pitch": 59,
              "velocity": 68,
              "position": 20.5,
              "duration": 0.11041666666666666
            },
            {
              "pitch": 55,
              "velocity": 71,
              "position": 20.5,
              "duration": 0.15208333333333332
            },
            {
              "pitch": 52,
              "velocity": 113,
              "position": 20.808333333333334,
              "duration": 0.07916666666666666
            },
            {
              "pitch": 55,
              "velocity": 84,
              "position": 20.808333333333334,
              "duration": 0.12916666666666668
            },
            {
              "pitch": 59,
              "velocity": 102,
              "position": 20.808333333333334,
              "duration": 0.14583333333333334
            },
            {
              "pitch": 62,
              "velocity": 84,
              "position": 20.808333333333334,
              "duration": 0.14791666666666667
            },
            {
              "pitch": 48,
              "velocity": 65,
              "position": 20,
              "duration": 1.05625
            },
            {
              "pitch": 36,
              "velocity": 81,
              "position": 20,
              "duration": 1.1229166666666666
            },
            {
              "pitch": 57,
              "velocity": 89,
              "position": 21.308333333333334,
              "duration": 0.058333333333333334
            },
            {
              "pitch": 64,
              "velocity": 86,
              "position": 21.308333333333334,
              "duration": 0.06458333333333334
            },
            {
              "pitch": 60,
              "velocity": 94,
              "position": 21.308333333333334,
              "duration": 0.10625
            },
            {
              "pitch": 53,
              "velocity": 86,
              "position": 21.308333333333334,
              "duration": 0.14166666666666666
            },
            {
              "pitch": 52,
              "velocity": 81,
              "position": 21.808333333333334,
              "duration": 0.052083333333333336
            },
            {
              "pitch": 55,
              "velocity": 73,
              "position": 21.808333333333334,
              "duration": 0.06458333333333334
            },
            {
              "pitch": 59,
              "velocity": 67,
              "position": 21.808333333333334,
              "duration": 0.06875
            },
            {
              "pitch": 62,
              "velocity": 65,
              "position": 21.808333333333334,
              "duration": 0.12083333333333333
            },
            {
              "pitch": 48,
              "velocity": 89,
              "position": 22.308333333333334,
              "duration": 0.1625
            },
            {
              "pitch": 53,
              "velocity": 96,
              "position": 22.5,
              "duration": 0.2875
            },
            {
              "pitch": 57,
              "velocity": 102,
              "position": 22.5,
              "duration": 0.30833333333333335
            },
            {
              "pitch": 60,
              "velocity": 102,
              "position": 22.5,
              "duration": 0.32708333333333334
            },
            {
              "pitch": 64,
              "velocity": 100,
              "position": 22.5,
              "duration": 0.33541666666666664
            },
            {
              "pitch": 43,
              "velocity": 98,
              "position": 22.808333333333334,
              "duration": 0.15416666666666667
            },
            {
              "pitch": 67,
              "velocity": 98,
              "position": 23,
              "duration": 0.23125
            },
            {
              "pitch": 57,
              "velocity": 127,
              "position": 23,
              "duration": 0.2791666666666667
            },
            {
              "pitch": 64,
              "velocity": 96,
              "position": 23,
              "duration": 0.2916666666666667
            },
            {
              "pitch": 60,
              "velocity": 94,
              "position": 23,
              "duration": 0.29583333333333334
            },
            {
              "pitch": 43,
              "velocity": 94,
              "position": 23.308333333333334,
              "duration": 0.15
            },
            {
              "pitch": 64,
              "velocity": 67,
              "position": 23.5,
              "duration": 0.2791666666666667
            },
            {
              "pitch": 57,
              "velocity": 84,
              "position": 23.5,
              "duration": 0.29583333333333334
            },
            {
              "pitch": 53,
              "velocity": 98,
              "position": 23.5,
              "duration": 0.3
            },
            {
              "pitch": 60,
              "velocity": 68,
              "position": 23.5,
              "duration": 0.3020833333333333
            },
            {
              "pitch": 43,
              "velocity": 102,
              "position": 23.808333333333334,
              "duration": 0.16458333333333333
            },
            {
              "pitch": 52,
              "velocity": 89,
              "position": 24,
              "duration": 0.17291666666666666
            },
            {
              "pitch": 59,
              "velocity": 76,
              "position": 24,
              "duration": 0.17708333333333334
            },
            {
              "pitch": 55,
              "velocity": 94,
              "position": 24,
              "duration": 0.17916666666666667
            },
            {
              "pitch": 62,
              "velocity": 84,
              "position": 24,
              "duration": 0.2
            },
            {
              "pitch": 62,
              "velocity": 84,
              "position": 24.308333333333334,
              "duration": 0.07291666666666667
            },
            {
              "pitch": 52,
              "velocity": 61,
              "position": 24.308333333333334,
              "duration": 0.07916666666666666
            },
            {
              "pitch": 59,
              "velocity": 81,
              "position": 24.308333333333334,
              "duration": 0.08541666666666667
            },
            {
              "pitch": 55,
              "velocity": 71,
              "position": 24.308333333333334,
              "duration": 0.13125
            },
            {
              "pitch": 52,
              "velocity": 50,
              "position": 24.5,
              "duration": 0.075
            },
            {
              "pitch": 62,
              "velocity": 74,
              "position": 24.5,
              "duration": 0.08125
            },
            {
              "pitch": 59,
              "velocity": 54,
              "position": 24.5,
              "duration": 0.09583333333333334
            },
            {
              "pitch": 55,
              "velocity": 77,
              "position": 24.5,
              "duration": 0.11458333333333333
            },
            {
              "pitch": 52,
              "velocity": 89,
              "position": 24.808333333333334,
              "duration": 0.0875
            },
            {
              "pitch": 59,
              "velocity": 87,
              "position": 24.808333333333334,
              "duration": 0.12916666666666668
            },
            {
              "pitch": 62,
              "velocity": 87,
              "position": 24.808333333333334,
              "duration": 0.13958333333333334
            },
            {
              "pitch": 55,
              "velocity": 89,
              "position": 24.808333333333334,
              "duration": 0.14583333333333334
            },
            {
              "pitch": 48,
              "velocity": 96,
              "position": 24,
              "duration": 1.1
            },
            {
              "pitch": 36,
              "velocity": 70,
              "position": 24,
              "duration": 1.1125
            },
            {
              "pitch": 60,
              "velocity": 94,
              "position": 25.308333333333334,
              "duration": 0.07708333333333334
            },
            {
              "pitch": 57,
              "velocity": 105,
              "position": 25.308333333333334,
              "duration": 0.0875
            },
            {
              "pitch": 53,
              "velocity": 84,
              "position": 25.308333333333334,
              "duration": 0.09583333333333334
            },
            {
              "pitch": 64,
              "velocity": 94,
              "position": 25.308333333333334,
              "duration": 0.13958333333333334
            },
            {
              "pitch": 59,
              "velocity": 91,
              "position": 25.808333333333334,
              "duration": 0.06458333333333334
            },
            {
              "pitch": 52,
              "velocity": 94,
              "position": 25.808333333333334,
              "duration": 0.0875
            },
            {
              "pitch": 62,
              "velocity": 105,
              "position": 25.808333333333334,
              "duration": 0.1375
            },
            {
              "pitch": 55,
              "velocity": 87,
              "position": 25.808333333333334,
              "duration": 0.14166666666666666
            },
            {
              "pitch": 43,
              "velocity": 94,
              "position": 26.308333333333334,
              "duration": 0.2375
            },
            {
              "pitch": 50,
              "velocity": 94,
              "position": 26.5,
              "duration": 0.3
            },
            {
              "pitch": 57,
              "velocity": 71,
              "position": 26.5,
              "duration": 0.3
            },
            {
              "pitch": 60,
              "velocity": 86,
              "position": 26.5,
              "duration": 0.30625
            },
            {
              "pitch": 53,
              "velocity": 74,
              "position": 26.5,
              "duration": 0.32916666666666666
            },
            {
              "pitch": 48,
              "velocity": 98,
              "position": 27,
              "duration": 0.15625
            },
            {
              "pitch": 52,
              "velocity": 86,
              "position": 27,
              "duration": 0.21875
            },
            {
              "pitch": 55,
              "velocity": 87,
              "position": 27,
              "duration": 0.22083333333333333
            },
            {
              "pitch": 59,
              "velocity": 73,
              "position": 27,
              "duration": 0.22916666666666666
            },
            {
              "pitch": 36,
              "velocity": 87,
              "position": 27.308333333333334,
              "duration": 0.13541666666666666
            },
            {
              "pitch": 57,
              "velocity": 91,
              "position": 27.5,
              "duration": 0.12291666666666666
            },
            {
              "pitch": 50,
              "velocity": 94,
              "position": 27.5,
              "duration": 0.13125
            },
            {
              "pitch": 53,
              "velocity": 96,
              "position": 27.5,
              "duration": 0.15416666666666667
            },
            {
              "pitch": 60,
              "velocity": 102,
              "position": 27.5,
              "duration": 0.24583333333333332
            },
            {
              "pitch": 44,
              "velocity": 96,
              "position": 28,
              "duration": 0.20416666666666666
            },
            {
              "pitch": 32,
              "velocity": 105,
              "position": 28,
              "duration": 0.3333333333333333
            },
            {
              "pitch": 56,
              "velocity": 102,
              "position": 28,
              "duration": 0.4791666666666667
            },
            {
              "pitch": 60,
              "velocity": 102,
              "position": 28,
              "duration": 0.5729166666666666
            },
            {
              "pitch": 55,
              "velocity": 109,
              "position": 28,
              "duration": 0.6083333333333333
            },
            {
              "pitch": 63,
              "velocity": 89,
              "position": 28,
              "duration": 0.61875
            },
            {
              "pitch": 37,
              "velocity": 121,
              "position": 28.808333333333334,
              "duration": 0.5125
            },
            {
              "pitch": 49,
              "velocity": 113,
              "position": 28.808333333333334,
              "duration": 0.5854166666666667
            },
            {
              "pitch": 67,
              "velocity": 113,
              "position": 28.808333333333334,
              "duration": 0.7375
            },
            {
              "pitch": 55,
              "velocity": 67,
              "position": 28.808333333333334,
              "duration": 0.8
            },
            {
              "pitch": 58,
              "velocity": 111,
              "position": 28.808333333333334,
              "duration": 0.8208333333333333
            },
            {
              "pitch": 63,
              "velocity": 98,
              "position": 28.808333333333334,
              "duration": 0.8729166666666667
            },
            {
              "pitch": 43,
              "velocity": 111,
              "position": 29.808333333333334,
              "duration": 0.2520833333333333
            },
            {
              "pitch": 67,
              "velocity": 125,
              "position": 29.808333333333334,
              "duration": 0.26458333333333334
            },
            {
              "pitch": 60,
              "velocity": 117,
              "position": 29.808333333333334,
              "duration": 0.28958333333333336
            },
            {
              "pitch": 64,
              "velocity": 127,
              "position": 29.808333333333334,
              "duration": 0.3
            },
            {
              "pitch": 53,
              "velocity": 127,
              "position": 29.808333333333334,
              "duration": 0.3145833333333333
            },
            {
              "pitch": 55,
              "velocity": 89,
              "position": 29.808333333333334,
              "duration": 0.31875
            },
            {
              "pitch": 31,
              "velocity": 102,
              "position": 29.808333333333334,
              "duration": 0.3229166666666667
            }
          ]
        },
        "13": {
          "ctab": {
            "srcChannel": 13,
            "name": "Pad",
            "accType": "PAD",
            "editable": false,
            "mutedNotes": [],
            "mutedChords": [
              "dim7",
              "dim",
              "minMaj7(9)",
              "minMaj7",
              "min7(11)",
              "min7(9)",
              "min(9)",
              "m7b5",
              "min7",
              "min6",
              "min"
            ],
            "autoStart": false,
            "sourceChordNote": 0,
            "sourceChordType": "Maj",
            "ctb2Low": null,
            "ctb2Main": {
              "ntr": "ROOT_TRANSPOSITION",
              "ntt": "BYPASS",
              "bassOn": false,
              "chordRootUpperLimit": 7,
              "noteLowLimit": 0,
              "noteHighLimit": 79,
              "rtr": "PITCH_SHIFT"
            },
            "ctb2High": null
          },
          "notes": [
            {
              "pitch": 79,
              "velocity": 84,
              "position": 0,
              "duration": 14
            },
            {
              "pitch": 79,
              "velocity": 84,
              "position": 16,
              "duration": 14
            }
          ]
        },
        "14": {
          "ctab": {
            "srcChannel": 14,
            "name": "MuteGtr",
            "accType": "PHRASE1",
            "editable": true,
            "mutedNotes": [],
            "mutedChords": [
              "dim7",
              "dim",
              "minMaj7(9)",
              "minMaj7",
              "min7(11)",
              "min7(9)",
              "min(9)",
              "m7b5",
              "min7",
              "min6",
              "min"
            ],
            "autoStart": false,
            "sourceChordNote": 0,
            "sourceChordType": "Maj",
            "ctb2Low": null,
            "ctb2Main": {
              "ntr": "ROOT_TRANSPOSITION",
              "ntt": "BYPASS",
              "bassOn": false,
              "chordRootUpperLimit": 9,
              "noteLowLimit": 0,
              "noteHighLimit": 120,
              "rtr": "PITCH_SHIFT"
            },
            "ctb2High": null
          },
          "notes": [
            {
              "pitch": 55,
              "velocity": 38,
              "position": 0,
              "duration": 0.29583333333333334
            },
            {
              "pitch": 67,
              "velocity": 40,
              "position": 0.01875,
              "duration": 0.27708333333333335
            },
            {
              "pitch": 115,
              "velocity": 75,
              "position": 0,
              "duration": 0.3645833333333333
            },
            {
              "pitch": 55,
              "velocity": 78,
              "position": 0.32708333333333334,
              "duration": 0.16041666666666668
            },
            {
              "pitch": 67,
              "velocity": 4,
              "position": 0.30833333333333335,
              "duration": 0.17916666666666667
            },
            {
              "pitch": 114,
              "velocity": 40,
              "position": 0.30833333333333335,
              "duration": 0.19166666666666668
            },
            {
              "pitch": 55,
              "velocity": 80,
              "position": 0.5,
              "duration": 0.29583333333333334
            },
            {
              "pitch": 67,
              "velocity": 82,
              "position": 0.51875,
              "duration": 0.27708333333333335
            },
            {
              "pitch": 113,
              "velocity": 40,
              "position": 0.5,
              "duration": 0.30833333333333335
            },
            {
              "pitch": 114,
              "velocity": 75,
              "position": 0.8083333333333333,
              "duration": 0.14583333333333334
            },
            {
              "pitch": 55,
              "velocity": 38,
              "position": 0.8270833333333333,
              "duration": 0.16041666666666668
            },
            {
              "pitch": 67,
              "velocity": 40,
              "position": 0.8083333333333333,
              "duration": 0.17916666666666667
            },
            {
              "pitch": 55,
              "velocity": 63,
              "position": 1,
              "duration": 0.29583333333333334
            },
            {
              "pitch": 67,
              "velocity": 65,
              "position": 1.01875,
              "duration": 0.27708333333333335
            },
            {
              "pitch": 115,
              "velocity": 40,
              "position": 1,
              "duration": 0.30833333333333335
            },
            {
              "pitch": 67,
              "velocity": 40,
              "position": 1.3083333333333333,
              "duration": 0.17916666666666667
            },
            {
              "pitch": 55,
              "velocity": 78,
              "position": 1.3270833333333334,
              "duration": 0.1625
            },
            {
              "pitch": 114,
              "velocity": 40,
              "position": 1.3083333333333333,
              "duration": 0.19166666666666668
            },
            {
              "pitch": 115,
              "velocity": 75,
              "position": 1.5,
              "duration": 0.17708333333333334
            },
            {
              "pitch": 67,
              "velocity": 80,
              "position": 1.51875,
              "duration": 0.27708333333333335
            },
            {
              "pitch": 55,
              "velocity": 78,
              "position": 1.5,
              "duration": 0.29583333333333334
            },
            {
              "pitch": 114,
              "velocity": 75,
              "position": 1.8083333333333333,
              "duration": 0.125
            },
            {
              "pitch": 55,
              "velocity": 38,
              "position": 1.8270833333333334,
              "duration": 0.16041666666666668
            },
            {
              "pitch": 67,
              "velocity": 40,
              "position": 1.8083333333333333,
              "duration": 0.17916666666666667
            },
            {
              "pitch": 55,
              "velocity": 78,
              "position": 2,
              "duration": 0.29583333333333334
            },
            {
              "pitch": 67,
              "velocity": 80,
              "position": 2.01875,
              "duration": 0.27708333333333335
            },
            {
              "pitch": 113,
              "velocity": 40,
              "position": 2,
              "duration": 0.30833333333333335
            },
            {
              "pitch": 114,
              "velocity": 75,
              "position": 2.308333333333333,
              "duration": 0.125
            },
            {
              "pitch": 67,
              "velocity": 40,
              "position": 2.308333333333333,
              "duration": 0.15625
            },
            {
              "pitch": 55,
              "velocity": 38,
              "position": 2.3270833333333334,
              "duration": 0.15625
            },
            {
              "pitch": 55,
              "velocity": 78,
              "position": 2.5,
              "duration": 0.29583333333333334
            },
            {
              "pitch": 67,
              "velocity": 80,
              "position": 2.51875,
              "duration": 0.27708333333333335
            },
            {
              "pitch": 115,
              "velocity": 40,
              "position": 2.5,
              "duration": 0.30833333333333335
            },
            {
              "pitch": 114,
              "velocity": 75,
              "position": 2.808333333333333,
              "duration": 0.010416666666666666
            },
            {
              "pitch": 67,
              "velocity": 63,
              "position": 2.808333333333333,
              "duration": 0.17916666666666667
            },
            {
              "pitch": 55,
              "velocity": 61,
              "position": 2.8270833333333334,
              "duration": 0.16041666666666668
            },
            {
              "pitch": 115,
              "velocity": 75,
              "position": 3,
              "duration": 0.14583333333333334
            },
            {
              "pitch": 67,
              "velocity": 80,
              "position": 3.01875,
              "duration": 0.27708333333333335
            },
            {
              "pitch": 55,
              "velocity": 78,
              "position": 3,
              "duration": 0.29583333333333334
            },
            {
              "pitch": 114,
              "velocity": 75,
              "position": 3.308333333333333,
              "duration": 0.125
            },
            {
              "pitch": 67,
              "velocity": 63,
              "position": 3.308333333333333,
              "duration": 0.17916666666666667
            },
            {
              "pitch": 55,
              "velocity": 61,
              "position": 3.3270833333333334,
              "duration": 0.1625
            },
            {
              "pitch": 115,
              "velocity": 75,
              "position": 3.5,
              "duration": 0.010416666666666666
            },
            {
              "pitch": 55,
              "velocity": 78,
              "position": 3.5,
              "duration": 0.29583333333333334
            },
            {
              "pitch": 67,
              "velocity": 80,
              "position": 3.51875,
              "duration": 0.27708333333333335
            },
            {
              "pitch": 114,
              "velocity": 75,
              "position": 3.808333333333333,
              "duration": 0.010416666666666666
            },
            {
              "pitch": 67,
              "velocity": 63,
              "position": 3.808333333333333,
              "duration": 0.17916666666666667
            },
            {
              "pitch": 55,
              "velocity": 61,
              "position": 3.8270833333333334,
              "duration": 0.16041666666666668
            },
            {
              "pitch": 55,
              "velocity": 38,
              "position": 4,
              "duration": 0.29583333333333334
            },
            {
              "pitch": 67,
              "velocity": 40,
              "position": 4.01875,
              "duration": 0.27708333333333335
            },
            {
              "pitch": 115,
              "velocity": 75,
              "position": 4,
              "duration": 0.3645833333333333
            },
            {
              "pitch": 55,
              "velocity": 78,
              "position": 4.327083333333333,
              "duration": 0.16041666666666668
            },
            {
              "pitch": 67,
              "velocity": 4,
              "position": 4.308333333333334,
              "duration": 0.17916666666666667
            },
            {
              "pitch": 114,
              "velocity": 40,
              "position": 4.308333333333334,
              "duration": 0.19166666666666668
            },
            {
              "pitch": 55,
              "velocity": 80,
              "position": 4.5,
              "duration": 0.29583333333333334
            },
            {
              "pitch": 67,
              "velocity": 82,
              "position": 4.51875,
              "duration": 0.27708333333333335
            },
            {
              "pitch": 113,
              "velocity": 40,
              "position": 4.5,
              "duration": 0.30833333333333335
            },
            {
              "pitch": 114,
              "velocity": 75,
              "position": 4.808333333333334,
              "duration": 0.14583333333333334
            },
            {
              "pitch": 55,
              "velocity": 38,
              "position": 4.827083333333333,
              "duration": 0.16041666666666668
            },
            {
              "pitch": 67,
              "velocity": 40,
              "position": 4.808333333333334,
              "duration": 0.17916666666666667
            },
            {
              "pitch": 55,
              "velocity": 63,
              "position": 5,
              "duration": 0.29583333333333334
            },
            {
              "pitch": 67,
              "velocity": 65,
              "position": 5.01875,
              "duration": 0.27708333333333335
            },
            {
              "pitch": 115,
              "velocity": 40,
              "position": 5,
              "duration": 0.30833333333333335
            },
            {
              "pitch": 67,
              "velocity": 40,
              "position": 5.308333333333334,
              "duration": 0.17916666666666667
            },
            {
              "pitch": 55,
              "velocity": 78,
              "position": 5.327083333333333,
              "duration": 0.1625
            },
            {
              "pitch": 114,
              "velocity": 40,
              "position": 5.308333333333334,
              "duration": 0.19166666666666668
            },
            {
              "pitch": 115,
              "velocity": 75,
              "position": 5.5,
              "duration": 0.17708333333333334
            },
            {
              "pitch": 67,
              "velocity": 80,
              "position": 5.51875,
              "duration": 0.27708333333333335
            },
            {
              "pitch": 55,
              "velocity": 78,
              "position": 5.5,
              "duration": 0.29583333333333334
            },
            {
              "pitch": 114,
              "velocity": 75,
              "position": 5.808333333333334,
              "duration": 0.125
            },
            {
              "pitch": 55,
              "velocity": 38,
              "position": 5.827083333333333,
              "duration": 0.16041666666666668
            },
            {
              "pitch": 67,
              "velocity": 40,
              "position": 5.808333333333334,
              "duration": 0.17916666666666667
            },
            {
              "pitch": 55,
              "velocity": 78,
              "position": 6,
              "duration": 0.29583333333333334
            },
            {
              "pitch": 67,
              "velocity": 80,
              "position": 6.01875,
              "duration": 0.27708333333333335
            },
            {
              "pitch": 113,
              "velocity": 40,
              "position": 6,
              "duration": 0.30833333333333335
            },
            {
              "pitch": 67,
              "velocity": 40,
              "position": 6.308333333333334,
              "duration": 0.020833333333333332
            },
            {
              "pitch": 55,
              "velocity": 38,
              "position": 6.327083333333333,
              "duration": 0.020833333333333332
            },
            {
              "pitch": 114,
              "velocity": 75,
              "position": 6.308333333333334,
              "duration": 0.125
            },
            {
              "pitch": 55,
              "velocity": 78,
              "position": 6.5,
              "duration": 0.29583333333333334
            },
            {
              "pitch": 67,
              "velocity": 80,
              "position": 6.51875,
              "duration": 0.27708333333333335
            },
            {
              "pitch": 115,
              "velocity": 40,
              "position": 6.5,
              "duration": 0.30833333333333335
            },
            {
              "pitch": 114,
              "velocity": 75,
              "position": 6.808333333333334,
              "duration": 0.010416666666666666
            },
            {
              "pitch": 67,
              "velocity": 63,
              "position": 6.808333333333334,
              "duration": 0.17916666666666667
            },
            {
              "pitch": 55,
              "velocity": 61,
              "position": 6.827083333333333,
              "duration": 0.16041666666666668
            },
            {
              "pitch": 115,
              "velocity": 75,
              "position": 7,
              "duration": 0.14583333333333334
            },
            {
              "pitch": 67,
              "velocity": 80,
              "position": 7.01875,
              "duration": 0.27708333333333335
            },
            {
              "pitch": 55,
              "velocity": 78,
              "position": 7,
              "duration": 0.29583333333333334
            },
            {
              "pitch": 114,
              "velocity": 75,
              "position": 7.308333333333334,
              "duration": 0.125
            },
            {
              "pitch": 67,
              "velocity": 63,
              "position": 7.308333333333334,
              "duration": 0.17916666666666667
            },
            {
              "pitch": 55,
              "velocity": 61,
              "position": 7.327083333333333,
              "duration": 0.1625
            },
            {
              "pitch": 115,
              "velocity": 75,
              "position": 7.5,
              "duration": 0.010416666666666666
            },
            {
              "pitch": 55,
              "velocity": 78,
              "position": 7.5,
              "duration": 0.29583333333333334
            },
            {
              "pitch": 67,
              "velocity": 80,
              "position": 7.51875,
              "duration": 0.27708333333333335
            },
            {
              "pitch": 114,
              "velocity": 75,
              "position": 7.808333333333334,
              "duration": 0.010416666666666666
            },
            {
              "pitch": 67,
              "velocity": 63,
              "position": 7.808333333333334,
              "duration": 0.17916666666666667
            },
            {
              "pitch": 55,
              "velocity": 61,
              "position": 7.827083333333333,
              "duration": 0.16041666666666668
            },
            {
              "pitch": 55,
              "velocity": 38,
              "position": 8,
              "duration": 0.29583333333333334
            },
            {
              "pitch": 67,
              "velocity": 40,
              "position": 8.01875,
              "duration": 0.27708333333333335
            },
            {
              "pitch": 115,
              "velocity": 75,
              "position": 8,
              "duration": 0.3645833333333333
            },
            {
              "pitch": 55,
              "velocity": 78,
              "position": 8.327083333333333,
              "duration": 0.16041666666666668
            },
            {
              "pitch": 67,
              "velocity": 4,
              "position": 8.308333333333334,
              "duration": 0.17916666666666667
            },
            {
              "pitch": 114,
              "velocity": 40,
              "position": 8.308333333333334,
              "duration": 0.19166666666666668
            },
            {
              "pitch": 55,
              "velocity": 80,
              "position": 8.5,
              "duration": 0.29583333333333334
            },
            {
              "pitch": 67,
              "velocity": 82,
              "position": 8.51875,
              "duration": 0.27708333333333335
            },
            {
              "pitch": 113,
              "velocity": 40,
              "position": 8.5,
              "duration": 0.30833333333333335
            },
            {
              "pitch": 114,
              "velocity": 75,
              "position": 8.808333333333334,
              "duration": 0.14583333333333334
            },
            {
              "pitch": 55,
              "velocity": 38,
              "position": 8.827083333333333,
              "duration": 0.16041666666666668
            },
            {
              "pitch": 67,
              "velocity": 40,
              "position": 8.808333333333334,
              "duration": 0.17916666666666667
            },
            {
              "pitch": 55,
              "velocity": 63,
              "position": 9,
              "duration": 0.29583333333333334
            },
            {
              "pitch": 67,
              "velocity": 65,
              "position": 9.01875,
              "duration": 0.27708333333333335
            },
            {
              "pitch": 115,
              "velocity": 40,
              "position": 9,
              "duration": 0.30833333333333335
            },
            {
              "pitch": 67,
              "velocity": 40,
              "position": 9.308333333333334,
              "duration": 0.17916666666666667
            },
            {
              "pitch": 55,
              "velocity": 78,
              "position": 9.327083333333333,
              "duration": 0.1625
            },
            {
              "pitch": 114,
              "velocity": 40,
              "position": 9.308333333333334,
              "duration": 0.19166666666666668
            },
            {
              "pitch": 115,
              "velocity": 75,
              "position": 9.5,
              "duration": 0.17708333333333334
            },
            {
              "pitch": 67,
              "velocity": 80,
              "position": 9.51875,
              "duration": 0.27708333333333335
            },
            {
              "pitch": 55,
              "velocity": 78,
              "position": 9.5,
              "duration": 0.29583333333333334
            },
            {
              "pitch": 114,
              "velocity": 75,
              "position": 9.808333333333334,
              "duration": 0.125
            },
            {
              "pitch": 55,
              "velocity": 38,
              "position": 9.827083333333333,
              "duration": 0.16041666666666668
            },
            {
              "pitch": 67,
              "velocity": 40,
              "position": 9.808333333333334,
              "duration": 0.17916666666666667
            },
            {
              "pitch": 55,
              "velocity": 78,
              "position": 10,
              "duration": 0.29583333333333334
            },
            {
              "pitch": 67,
              "velocity": 80,
              "position": 10.01875,
              "duration": 0.27708333333333335
            },
            {
              "pitch": 113,
              "velocity": 40,
              "position": 10,
              "duration": 0.30833333333333335
            },
            {
              "pitch": 114,
              "velocity": 75,
              "position": 10.308333333333334,
              "duration": 0.125
            },
            {
              "pitch": 67,
              "velocity": 40,
              "position": 10.308333333333334,
              "duration": 0.15625
            },
            {
              "pitch": 55,
              "velocity": 38,
              "position": 10.327083333333333,
              "duration": 0.15625
            },
            {
              "pitch": 55,
              "velocity": 78,
              "position": 10.5,
              "duration": 0.29583333333333334
            },
            {
              "pitch": 67,
              "velocity": 80,
              "position": 10.51875,
              "duration": 0.27708333333333335
            },
            {
              "pitch": 115,
              "velocity": 40,
              "position": 10.5,
              "duration": 0.30833333333333335
            },
            {
              "pitch": 114,
              "velocity": 75,
              "position": 10.808333333333334,
              "duration": 0.010416666666666666
            },
            {
              "pitch": 67,
              "velocity": 63,
              "position": 10.808333333333334,
              "duration": 0.17916666666666667
            },
            {
              "pitch": 55,
              "velocity": 61,
              "position": 10.827083333333333,
              "duration": 0.16041666666666668
            },
            {
              "pitch": 115,
              "velocity": 75,
              "position": 11,
              "duration": 0.14583333333333334
            },
            {
              "pitch": 67,
              "velocity": 80,
              "position": 11.01875,
              "duration": 0.27708333333333335
            },
            {
              "pitch": 55,
              "velocity": 78,
              "position": 11,
              "duration": 0.29583333333333334
            },
            {
              "pitch": 114,
              "velocity": 75,
              "position": 11.308333333333334,
              "duration": 0.125
            },
            {
              "pitch": 67,
              "velocity": 63,
              "position": 11.308333333333334,
              "duration": 0.17916666666666667
            },
            {
              "pitch": 55,
              "velocity": 61,
              "position": 11.327083333333333,
              "duration": 0.1625
            },
            {
              "pitch": 115,
              "velocity": 75,
              "position": 11.5,
              "duration": 0.010416666666666666
            },
            {
              "pitch": 55,
              "velocity": 78,
              "position": 11.5,
              "duration": 0.29583333333333334
            },
            {
              "pitch": 67,
              "velocity": 80,
              "position": 11.51875,
              "duration": 0.27708333333333335
            },
            {
              "pitch": 114,
              "velocity": 75,
              "position": 11.808333333333334,
              "duration": 0.010416666666666666
            },
            {
              "pitch": 67,
              "velocity": 63,
              "position": 11.808333333333334,
              "duration": 0.17916666666666667
            },
            {
              "pitch": 55,
              "velocity": 61,
              "position": 11.827083333333333,
              "duration": 0.16041666666666668
            },
            {
              "pitch": 55,
              "velocity": 38,
              "position": 12,
              "duration": 0.29583333333333334
            },
            {
              "pitch": 67,
              "velocity": 40,
              "position": 12.01875,
              "duration": 0.27708333333333335
            },
            {
              "pitch": 115,
              "velocity": 75,
              "position": 12,
              "duration": 0.3645833333333333
            },
            {
              "pitch": 55,
              "velocity": 78,
              "position": 12.327083333333333,
              "duration": 0.16041666666666668
            },
            {
              "pitch": 67,
              "velocity": 4,
              "position": 12.308333333333334,
              "duration": 0.17916666666666667
            },
            {
              "pitch": 114,
              "velocity": 40,
              "position": 12.308333333333334,
              "duration": 0.19166666666666668
            },
            {
              "pitch": 55,
              "velocity": 80,
              "position": 12.5,
              "duration": 0.29583333333333334
            },
            {
              "pitch": 67,
              "velocity": 82,
              "position": 12.51875,
              "duration": 0.27708333333333335
            },
            {
              "pitch": 113,
              "velocity": 40,
              "position": 12.5,
              "duration": 0.30833333333333335
            },
            {
              "pitch": 114,
              "velocity": 75,
              "position": 12.808333333333334,
              "duration": 0.14583333333333334
            },
            {
              "pitch": 55,
              "velocity": 38,
              "position": 12.827083333333333,
              "duration": 0.16041666666666668
            },
            {
              "pitch": 67,
              "velocity": 40,
              "position": 12.808333333333334,
              "duration": 0.17916666666666667
            },
            {
              "pitch": 55,
              "velocity": 63,
              "position": 13,
              "duration": 0.29583333333333334
            },
            {
              "pitch": 67,
              "velocity": 65,
              "position": 13.01875,
              "duration": 0.27708333333333335
            },
            {
              "pitch": 115,
              "velocity": 40,
              "position": 13,
              "duration": 0.30833333333333335
            },
            {
              "pitch": 67,
              "velocity": 40,
              "position": 13.308333333333334,
              "duration": 0.17916666666666667
            },
            {
              "pitch": 55,
              "velocity": 78,
              "position": 13.327083333333333,
              "duration": 0.1625
            },
            {
              "pitch": 114,
              "velocity": 40,
              "position": 13.308333333333334,
              "duration": 0.19166666666666668
            },
            {
              "pitch": 115,
              "velocity": 75,
              "position": 13.5,
              "duration": 0.17708333333333334
            },
            {
              "pitch": 67,
              "velocity": 80,
              "position": 13.51875,
              "duration": 0.27708333333333335
            },
            {
              "pitch": 55,
              "velocity": 78,
              "position": 13.5,
              "duration": 0.29583333333333334
            },
            {
              "pitch": 114,
              "velocity": 75,
              "position": 13.808333333333334,
              "duration": 0.125
            },
            {
              "pitch": 55,
              "velocity": 38,
              "position": 13.827083333333333,
              "duration": 0.16041666666666668
            },
            {
              "pitch": 67,
              "velocity": 40,
              "position": 13.808333333333334,
              "duration": 0.17916666666666667
            },
            {
              "pitch": 55,
              "velocity": 63,
              "position": 14,
              "duration": 0.29583333333333334
            },
            {
              "pitch": 67,
              "velocity": 65,
              "position": 14.01875,
              "duration": 0.27708333333333335
            },
            {
              "pitch": 113,
              "velocity": 40,
              "position": 14,
              "duration": 0.30833333333333335
            },
            {
              "pitch": 114,
              "velocity": 75,
              "position": 14.308333333333334,
              "duration": 0.125
            },
            {
              "pitch": 67,
              "velocity": 40,
              "position": 14.308333333333334,
              "duration": 0.17916666666666667
            },
            {
              "pitch": 55,
              "velocity": 78,
              "position": 14.327083333333333,
              "duration": 0.1625
            },
            {
              "pitch": 55,
              "velocity": 78,
              "position": 14.5,
              "duration": 0.29583333333333334
            },
            {
              "pitch": 67,
              "velocity": 80,
              "position": 14.51875,
              "duration": 0.27708333333333335
            },
            {
              "pitch": 115,
              "velocity": 40,
              "position": 14.5,
              "duration": 0.30833333333333335
            },
            {
              "pitch": 114,
              "velocity": 75,
              "position": 14.808333333333334,
              "duration": 0.010416666666666666
            },
            {
              "pitch": 67,
              "velocity": 40,
              "position": 14.808333333333334,
              "duration": 0.17916666666666667
            },
            {
              "pitch": 55,
              "velocity": 38,
              "position": 14.827083333333333,
              "duration": 0.16041666666666668
            },
            {
              "pitch": 115,
              "velocity": 75,
              "position": 15,
              "duration": 0.14583333333333334
            },
            {
              "pitch": 67,
              "velocity": 65,
              "position": 15.01875,
              "duration": 0.27708333333333335
            },
            {
              "pitch": 55,
              "velocity": 63,
              "position": 15,
              "duration": 0.29583333333333334
            },
            {
              "pitch": 114,
              "velocity": 75,
              "position": 15.308333333333334,
              "duration": 0.125
            },
            {
              "pitch": 67,
              "velocity": 40,
              "position": 15.308333333333334,
              "duration": 0.17916666666666667
            },
            {
              "pitch": 55,
              "velocity": 78,
              "position": 15.327083333333333,
              "duration": 0.1625
            },
            {
              "pitch": 115,
              "velocity": 75,
              "position": 15.5,
              "duration": 0.010416666666666666
            },
            {
              "pitch": 55,
              "velocity": 78,
              "position": 15.5,
              "duration": 0.29583333333333334
            },
            {
              "pitch": 67,
              "velocity": 80,
              "position": 15.51875,
              "duration": 0.27708333333333335
            },
            {
              "pitch": 114,
              "velocity": 75,
              "position": 15.808333333333334,
              "duration": 0.010416666666666666
            },
            {
              "pitch": 67,
              "velocity": 40,
              "position": 15.808333333333334,
              "duration": 0.17916666666666667
            },
            {
              "pitch": 55,
              "velocity": 38,
              "position": 15.827083333333333,
              "duration": 0.16041666666666668
            },
            {
              "pitch": 55,
              "velocity": 38,
              "position": 16,
              "duration": 0.29583333333333334
            },
            {
              "pitch": 67,
              "velocity": 40,
              "position": 16.01875,
              "duration": 0.27708333333333335
            },
            {
              "pitch": 115,
              "velocity": 75,
              "position": 16,
              "duration": 0.3645833333333333
            },
            {
              "pitch": 55,
              "velocity": 78,
              "position": 16.327083333333334,
              "duration": 0.16041666666666668
            },
            {
              "pitch": 67,
              "velocity": 4,
              "position": 16.308333333333334,
              "duration": 0.17916666666666667
            },
            {
              "pitch": 114,
              "velocity": 40,
              "position": 16.308333333333334,
              "duration": 0.19166666666666668
            },
            {
              "pitch": 55,
              "velocity": 80,
              "position": 16.5,
              "duration": 0.29583333333333334
            },
            {
              "pitch": 67,
              "velocity": 82,
              "position": 16.51875,
              "duration": 0.27708333333333335
            },
            {
              "pitch": 113,
              "velocity": 40,
              "position": 16.5,
              "duration": 0.30833333333333335
            },
            {
              "pitch": 114,
              "velocity": 75,
              "position": 16.808333333333334,
              "duration": 0.14583333333333334
            },
            {
              "pitch": 55,
              "velocity": 38,
              "position": 16.827083333333334,
              "duration": 0.16041666666666668
            },
            {
              "pitch": 67,
              "velocity": 40,
              "position": 16.808333333333334,
              "duration": 0.17916666666666667
            },
            {
              "pitch": 55,
              "velocity": 63,
              "position": 17,
              "duration": 0.29583333333333334
            },
            {
              "pitch": 67,
              "velocity": 65,
              "position": 17.01875,
              "duration": 0.27708333333333335
            },
            {
              "pitch": 115,
              "velocity": 40,
              "position": 17,
              "duration": 0.30833333333333335
            },
            {
              "pitch": 67,
              "velocity": 40,
              "position": 17.308333333333334,
              "duration": 0.17916666666666667
            },
            {
              "pitch": 55,
              "velocity": 78,
              "position": 17.327083333333334,
              "duration": 0.1625
            },
            {
              "pitch": 114,
              "velocity": 40,
              "position": 17.308333333333334,
              "duration": 0.19166666666666668
            },
            {
              "pitch": 115,
              "velocity": 75,
              "position": 17.5,
              "duration": 0.17708333333333334
            },
            {
              "pitch": 67,
              "velocity": 80,
              "position": 17.51875,
              "duration": 0.27708333333333335
            },
            {
              "pitch": 55,
              "velocity": 78,
              "position": 17.5,
              "duration": 0.29583333333333334
            },
            {
              "pitch": 114,
              "velocity": 75,
              "position": 17.808333333333334,
              "duration": 0.125
            },
            {
              "pitch": 55,
              "velocity": 38,
              "position": 17.827083333333334,
              "duration": 0.16041666666666668
            },
            {
              "pitch": 67,
              "velocity": 40,
              "position": 17.808333333333334,
              "duration": 0.17916666666666667
            },
            {
              "pitch": 55,
              "velocity": 78,
              "position": 18,
              "duration": 0.29583333333333334
            },
            {
              "pitch": 67,
              "velocity": 80,
              "position": 18.01875,
              "duration": 0.27708333333333335
            },
            {
              "pitch": 113,
              "velocity": 40,
              "position": 18,
              "duration": 0.30833333333333335
            },
            {
              "pitch": 114,
              "velocity": 75,
              "position": 18.308333333333334,
              "duration": 0.125
            },
            {
              "pitch": 67,
              "velocity": 40,
              "position": 18.308333333333334,
              "duration": 0.15625
            },
            {
              "pitch": 55,
              "velocity": 38,
              "position": 18.327083333333334,
              "duration": 0.15625
            },
            {
              "pitch": 55,
              "velocity": 78,
              "position": 18.5,
              "duration": 0.29583333333333334
            },
            {
              "pitch": 67,
              "velocity": 80,
              "position": 18.51875,
              "duration": 0.27708333333333335
            },
            {
              "pitch": 115,
              "velocity": 40,
              "position": 18.5,
              "duration": 0.30833333333333335
            },
            {
              "pitch": 114,
              "velocity": 75,
              "position": 18.808333333333334,
              "duration": 0.010416666666666666
            },
            {
              "pitch": 67,
              "velocity": 63,
              "position": 18.808333333333334,
              "duration": 0.17916666666666667
            },
            {
              "pitch": 55,
              "velocity": 61,
              "position": 18.827083333333334,
              "duration": 0.16041666666666668
            },
            {
              "pitch": 115,
              "velocity": 75,
              "position": 19,
              "duration": 0.14583333333333334
            },
            {
              "pitch": 67,
              "velocity": 80,
              "position": 19.01875,
              "duration": 0.27708333333333335
            },
            {
              "pitch": 55,
              "velocity": 78,
              "position": 19,
              "duration": 0.29583333333333334
            },
            {
              "pitch": 114,
              "velocity": 75,
              "position": 19.308333333333334,
              "duration": 0.125
            },
            {
              "pitch": 67,
              "velocity": 63,
              "position": 19.308333333333334,
              "duration": 0.17916666666666667
            },
            {
              "pitch": 55,
              "velocity": 61,
              "position": 19.327083333333334,
              "duration": 0.1625
            },
            {
              "pitch": 115,
              "velocity": 75,
              "position": 19.5,
              "duration": 0.010416666666666666
            },
            {
              "pitch": 55,
              "velocity": 78,
              "position": 19.5,
              "duration": 0.29583333333333334
            },
            {
              "pitch": 67,
              "velocity": 80,
              "position": 19.51875,
              "duration": 0.27708333333333335
            },
            {
              "pitch": 114,
              "velocity": 75,
              "position": 19.808333333333334,
              "duration": 0.010416666666666666
            },
            {
              "pitch": 67,
              "velocity": 63,
              "position": 19.808333333333334,
              "duration": 0.17916666666666667
            },
            {
              "pitch": 55,
              "velocity": 61,
              "position": 19.827083333333334,
              "duration": 0.16041666666666668
            },
            {
              "pitch": 55,
              "velocity": 38,
              "position": 20,
              "duration": 0.29583333333333334
            },
            {
              "pitch": 67,
              "velocity": 40,
              "position": 20.01875,
              "duration": 0.27708333333333335
            },
            {
              "pitch": 115,
              "velocity": 75,
              "position": 20,
              "duration": 0.3645833333333333
            },
            {
              "pitch": 55,
              "velocity": 78,
              "position": 20.327083333333334,
              "duration": 0.16041666666666668
            },
            {
              "pitch": 67,
              "velocity": 4,
              "position": 20.308333333333334,
              "duration": 0.17916666666666667
            },
            {
              "pitch": 114,
              "velocity": 40,
              "position": 20.308333333333334,
              "duration": 0.19166666666666668
            },
            {
              "pitch": 55,
              "velocity": 80,
              "position": 20.5,
              "duration": 0.29583333333333334
            },
            {
              "pitch": 67,
              "velocity": 82,
              "position": 20.51875,
              "duration": 0.27708333333333335
            },
            {
              "pitch": 113,
              "velocity": 40,
              "position": 20.5,
              "duration": 0.30833333333333335
            },
            {
              "pitch": 114,
              "velocity": 75,
              "position": 20.808333333333334,
              "duration": 0.14583333333333334
            },
            {
              "pitch": 55,
              "velocity": 38,
              "position": 20.827083333333334,
              "duration": 0.16041666666666668
            },
            {
              "pitch": 67,
              "velocity": 40,
              "position": 20.808333333333334,
              "duration": 0.17916666666666667
            },
            {
              "pitch": 55,
              "velocity": 63,
              "position": 21,
              "duration": 0.29583333333333334
            },
            {
              "pitch": 67,
              "velocity": 65,
              "position": 21.01875,
              "duration": 0.27708333333333335
            },
            {
              "pitch": 115,
              "velocity": 40,
              "position": 21,
              "duration": 0.30833333333333335
            },
            {
              "pitch": 67,
              "velocity": 40,
              "position": 21.308333333333334,
              "duration": 0.17916666666666667
            },
            {
              "pitch": 55,
              "velocity": 78,
              "position": 21.327083333333334,
              "duration": 0.1625
            },
            {
              "pitch": 114,
              "velocity": 40,
              "position": 21.308333333333334,
              "duration": 0.19166666666666668
            },
            {
              "pitch": 115,
              "velocity": 75,
              "position": 21.5,
              "duration": 0.17708333333333334
            },
            {
              "pitch": 67,
              "velocity": 80,
              "position": 21.51875,
              "duration": 0.27708333333333335
            },
            {
              "pitch": 55,
              "velocity": 78,
              "position": 21.5,
              "duration": 0.29583333333333334
            },
            {
              "pitch": 114,
              "velocity": 75,
              "position": 21.808333333333334,
              "duration": 0.125
            },
            {
              "pitch": 55,
              "velocity": 38,
              "position": 21.827083333333334,
              "duration": 0.16041666666666668
            },
            {
              "pitch": 67,
              "velocity": 40,
              "position": 21.808333333333334,
              "duration": 0.17916666666666667
            },
            {
              "pitch": 55,
              "velocity": 78,
              "position": 22,
              "duration": 0.29583333333333334
            },
            {
              "pitch": 67,
              "velocity": 80,
              "position": 22.01875,
              "duration": 0.27708333333333335
            },
            {
              "pitch": 113,
              "velocity": 40,
              "position": 22,
              "duration": 0.30833333333333335
            },
            {
              "pitch": 67,
              "velocity": 40,
              "position": 22.308333333333334,
              "duration": 0.020833333333333332
            },
            {
              "pitch": 55,
              "velocity": 38,
              "position": 22.327083333333334,
              "duration": 0.020833333333333332
            },
            {
              "pitch": 114,
              "velocity": 75,
              "position": 22.308333333333334,
              "duration": 0.125
            },
            {
              "pitch": 55,
              "velocity": 78,
              "position": 22.5,
              "duration": 0.29583333333333334
            },
            {
              "pitch": 67,
              "velocity": 80,
              "position": 22.51875,
              "duration": 0.27708333333333335
            },
            {
              "pitch": 115,
              "velocity": 40,
              "position": 22.5,
              "duration": 0.30833333333333335
            },
            {
              "pitch": 114,
              "velocity": 75,
              "position": 22.808333333333334,
              "duration": 0.010416666666666666
            },
            {
              "pitch": 67,
              "velocity": 63,
              "position": 22.808333333333334,
              "duration": 0.17916666666666667
            },
            {
              "pitch": 55,
              "velocity": 61,
              "position": 22.827083333333334,
              "duration": 0.16041666666666668
            },
            {
              "pitch": 115,
              "velocity": 75,
              "position": 23,
              "duration": 0.14583333333333334
            },
            {
              "pitch": 67,
              "velocity": 80,
              "position": 23.01875,
              "duration": 0.27708333333333335
            },
            {
              "pitch": 55,
              "velocity": 78,
              "position": 23,
              "duration": 0.29583333333333334
            },
            {
              "pitch": 114,
              "velocity": 75,
              "position": 23.308333333333334,
              "duration": 0.125
            },
            {
              "pitch": 67,
              "velocity": 63,
              "position": 23.308333333333334,
              "duration": 0.17916666666666667
            },
            {
              "pitch": 55,
              "velocity": 61,
              "position": 23.327083333333334,
              "duration": 0.1625
            },
            {
              "pitch": 115,
              "velocity": 75,
              "position": 23.5,
              "duration": 0.010416666666666666
            },
            {
              "pitch": 55,
              "velocity": 78,
              "position": 23.5,
              "duration": 0.29583333333333334
            },
            {
              "pitch": 67,
              "velocity": 80,
              "position": 23.51875,
              "duration": 0.27708333333333335
            },
            {
              "pitch": 114,
              "velocity": 75,
              "position": 23.808333333333334,
              "duration": 0.010416666666666666
            },
            {
              "pitch": 67,
              "velocity": 63,
              "position": 23.808333333333334,
              "duration": 0.17916666666666667
            },
            {
              "pitch": 55,
              "velocity": 61,
              "position": 23.827083333333334,
              "duration": 0.16041666666666668
            },
            {
              "pitch": 55,
              "velocity": 38,
              "position": 24,
              "duration": 0.29583333333333334
            },
            {
              "pitch": 67,
              "velocity": 40,
              "position": 24.01875,
              "duration": 0.27708333333333335
            },
            {
              "pitch": 115,
              "velocity": 75,
              "position": 24,
              "duration": 0.3645833333333333
            },
            {
              "pitch": 55,
              "velocity": 78,
              "position": 24.327083333333334,
              "duration": 0.16041666666666668
            },
            {
              "pitch": 67,
              "velocity": 4,
              "position": 24.308333333333334,
              "duration": 0.17916666666666667
            },
            {
              "pitch": 114,
              "velocity": 40,
              "position": 24.308333333333334,
              "duration": 0.19166666666666668
            },
            {
              "pitch": 55,
              "velocity": 80,
              "position": 24.5,
              "duration": 0.29583333333333334
            },
            {
              "pitch": 67,
              "velocity": 82,
              "position": 24.51875,
              "duration": 0.27708333333333335
            },
            {
              "pitch": 113,
              "velocity": 40,
              "position": 24.5,
              "duration": 0.30833333333333335
            },
            {
              "pitch": 114,
              "velocity": 75,
              "position": 24.808333333333334,
              "duration": 0.14583333333333334
            },
            {
              "pitch": 55,
              "velocity": 38,
              "position": 24.827083333333334,
              "duration": 0.16041666666666668
            },
            {
              "pitch": 67,
              "velocity": 40,
              "position": 24.808333333333334,
              "duration": 0.17916666666666667
            },
            {
              "pitch": 55,
              "velocity": 63,
              "position": 25,
              "duration": 0.29583333333333334
            },
            {
              "pitch": 67,
              "velocity": 65,
              "position": 25.01875,
              "duration": 0.27708333333333335
            },
            {
              "pitch": 115,
              "velocity": 40,
              "position": 25,
              "duration": 0.30833333333333335
            },
            {
              "pitch": 67,
              "velocity": 40,
              "position": 25.308333333333334,
              "duration": 0.17916666666666667
            },
            {
              "pitch": 55,
              "velocity": 78,
              "position": 25.327083333333334,
              "duration": 0.1625
            },
            {
              "pitch": 114,
              "velocity": 40,
              "position": 25.308333333333334,
              "duration": 0.19166666666666668
            },
            {
              "pitch": 115,
              "velocity": 75,
              "position": 25.5,
              "duration": 0.17708333333333334
            },
            {
              "pitch": 67,
              "velocity": 80,
              "position": 25.51875,
              "duration": 0.27708333333333335
            },
            {
              "pitch": 55,
              "velocity": 78,
              "position": 25.5,
              "duration": 0.29583333333333334
            },
            {
              "pitch": 114,
              "velocity": 75,
              "position": 25.808333333333334,
              "duration": 0.125
            },
            {
              "pitch": 55,
              "velocity": 38,
              "position": 25.827083333333334,
              "duration": 0.16041666666666668
            },
            {
              "pitch": 67,
              "velocity": 40,
              "position": 25.808333333333334,
              "duration": 0.17916666666666667
            },
            {
              "pitch": 55,
              "velocity": 78,
              "position": 26,
              "duration": 0.29583333333333334
            },
            {
              "pitch": 67,
              "velocity": 80,
              "position": 26.01875,
              "duration": 0.27708333333333335
            },
            {
              "pitch": 113,
              "velocity": 40,
              "position": 26,
              "duration": 0.30833333333333335
            },
            {
              "pitch": 114,
              "velocity": 75,
              "position": 26.308333333333334,
              "duration": 0.125
            },
            {
              "pitch": 67,
              "velocity": 40,
              "position": 26.308333333333334,
              "duration": 0.15625
            },
            {
              "pitch": 55,
              "velocity": 38,
              "position": 26.327083333333334,
              "duration": 0.15625
            },
            {
              "pitch": 55,
              "velocity": 78,
              "position": 26.5,
              "duration": 0.29583333333333334
            },
            {
              "pitch": 67,
              "velocity": 80,
              "position": 26.51875,
              "duration": 0.27708333333333335
            },
            {
              "pitch": 115,
              "velocity": 40,
              "position": 26.5,
              "duration": 0.30833333333333335
            },
            {
              "pitch": 114,
              "velocity": 75,
              "position": 26.808333333333334,
              "duration": 0.010416666666666666
            },
            {
              "pitch": 67,
              "velocity": 63,
              "position": 26.808333333333334,
              "duration": 0.17916666666666667
            },
            {
              "pitch": 55,
              "velocity": 61,
              "position": 26.827083333333334,
              "duration": 0.16041666666666668
            },
            {
              "pitch": 115,
              "velocity": 75,
              "position": 27,
              "duration": 0.14583333333333334
            },
            {
              "pitch": 67,
              "velocity": 80,
              "position": 27.01875,
              "duration": 0.27708333333333335
            },
            {
              "pitch": 55,
              "velocity": 78,
              "position": 27,
              "duration": 0.29583333333333334
            },
            {
              "pitch": 114,
              "velocity": 75,
              "position": 27.308333333333334,
              "duration": 0.125
            },
            {
              "pitch": 67,
              "velocity": 63,
              "position": 27.308333333333334,
              "duration": 0.17916666666666667
            },
            {
              "pitch": 55,
              "velocity": 61,
              "position": 27.327083333333334,
              "duration": 0.1625
            },
            {
              "pitch": 115,
              "velocity": 75,
              "position": 27.5,
              "duration": 0.010416666666666666
            },
            {
              "pitch": 55,
              "velocity": 78,
              "position": 27.5,
              "duration": 0.29583333333333334
            },
            {
              "pitch": 67,
              "velocity": 80,
              "position": 27.51875,
              "duration": 0.27708333333333335
            },
            {
              "pitch": 114,
              "velocity": 75,
              "position": 27.808333333333334,
              "duration": 0.010416666666666666
            },
            {
              "pitch": 67,
              "velocity": 63,
              "position": 27.808333333333334,
              "duration": 0.17916666666666667
            },
            {
              "pitch": 55,
              "velocity": 61,
              "position": 27.827083333333334,
              "duration": 0.16041666666666668
            },
            {
              "pitch": 55,
              "velocity": 38,
              "position": 28,
              "duration": 0.29583333333333334
            },
            {
              "pitch": 67,
              "velocity": 40,
              "position": 28.01875,
              "duration": 0.27708333333333335
            },
            {
              "pitch": 115,
              "velocity": 75,
              "position": 28,
              "duration": 0.3645833333333333
            },
            {
              "pitch": 55,
              "velocity": 78,
              "position": 28.327083333333334,
              "duration": 0.16041666666666668
            },
            {
              "pitch": 67,
              "velocity": 4,
              "position": 28.308333333333334,
              "duration": 0.17916666666666667
            },
            {
              "pitch": 114,
              "velocity": 40,
              "position": 28.308333333333334,
              "duration": 0.19166666666666668
            },
            {
              "pitch": 55,
              "velocity": 80,
              "position": 28.5,
              "duration": 0.29583333333333334
            },
            {
              "pitch": 67,
              "velocity": 82,
              "position": 28.51875,
              "duration": 0.27708333333333335
            },
            {
              "pitch": 113,
              "velocity": 40,
              "position": 28.5,
              "duration": 0.30833333333333335
            },
            {
              "pitch": 114,
              "velocity": 75,
              "position": 28.808333333333334,
              "duration": 0.14583333333333334
            },
            {
              "pitch": 55,
              "velocity": 38,
              "position": 28.827083333333334,
              "duration": 0.16041666666666668
            },
            {
              "pitch": 67,
              "velocity": 40,
              "position": 28.808333333333334,
              "duration": 0.17916666666666667
            },
            {
              "pitch": 55,
              "velocity": 63,
              "position": 29,
              "duration": 0.29583333333333334
            },
            {
              "pitch": 67,
              "velocity": 65,
              "position": 29.01875,
              "duration": 0.27708333333333335
            },
            {
              "pitch": 115,
              "velocity": 40,
              "position": 29,
              "duration": 0.30833333333333335
            },
            {
              "pitch": 67,
              "velocity": 40,
              "position": 29.308333333333334,
              "duration": 0.17916666666666667
            },
            {
              "pitch": 55,
              "velocity": 78,
              "position": 29.327083333333334,
              "duration": 0.1625
            },
            {
              "pitch": 114,
              "velocity": 40,
              "position": 29.308333333333334,
              "duration": 0.19166666666666668
            },
            {
              "pitch": 115,
              "velocity": 75,
              "position": 29.5,
              "duration": 0.17708333333333334
            },
            {
              "pitch": 67,
              "velocity": 80,
              "position": 29.51875,
              "duration": 0.27708333333333335
            },
            {
              "pitch": 55,
              "velocity": 78,
              "position": 29.5,
              "duration": 0.29583333333333334
            },
            {
              "pitch": 114,
              "velocity": 75,
              "position": 29.808333333333334,
              "duration": 0.125
            },
            {
              "pitch": 55,
              "velocity": 38,
              "position": 29.827083333333334,
              "duration": 0.16041666666666668
            },
            {
              "pitch": 67,
              "velocity": 40,
              "position": 29.808333333333334,
              "duration": 0.17916666666666667
            },
            {
              "pitch": 113,
              "velocity": 40,
              "position": 30,
              "duration": 0.30833333333333335
            },
            {
              "pitch": 114,
              "velocity": 75,
              "position": 30.308333333333334,
              "duration": 0.125
            },
            {
              "pitch": 115,
              "velocity": 40,
              "position": 30.5,
              "duration": 0.30833333333333335
            },
            {
              "pitch": 114,
              "velocity": 75,
              "position": 30.808333333333334,
              "duration": 0.010416666666666666
            },
            {
              "pitch": 115,
              "velocity": 75,
              "position": 31,
              "duration": 0.14583333333333334
            },
            {
              "pitch": 114,
              "velocity": 75,
              "position": 31.308333333333334,
              "duration": 0.125
            },
            {
              "pitch": 115,
              "velocity": 75,
              "position": 31.5,
              "duration": 0.010416666666666666
            },
            {
              "pitch": 114,
              "velocity": 75,
              "position": 31.808333333333334,
              "duration": 0.010416666666666666
            }
          ]
        },
        "15": {
          "ctab": {
            "srcChannel": 15,
            "name": "brass",
            "accType": "PHRASE2",
            "editable": false,
            "mutedNotes": [],
            "mutedChords": [
              "dim7",
              "dim",
              "minMaj7(9)",
              "minMaj7",
              "min7(11)",
              "min7(9)",
              "min(9)",
              "m7b5",
              "min7",
              "min6",
              "min"
            ],
            "autoStart": false,
            "sourceChordNote": 0,
            "sourceChordType": "Maj",
            "ctb2Low": null,
            "ctb2Main": {
              "ntr": "ROOT_TRANSPOSITION",
              "ntt": "BYPASS",
              "bassOn": false,
              "chordRootUpperLimit": 7,
              "noteLowLimit": 0,
              "noteHighLimit": 127,
              "rtr": "PITCH_SHIFT"
            },
            "ctb2High": null
          },
          "notes": [
            {
              "pitch": 64,
              "velocity": 19,
              "position": 11.979166666666666,
              "duration": 0.6666666666666666
            },
            {
              "pitch": 65,
              "velocity": 6,
              "position": 12.645833333333334,
              "duration": 0.16666666666666666
            },
            {
              "pitch": 59,
              "velocity": 16,
              "position": 11.979166666666666,
              "duration": 1
            },
            {
              "pitch": 66,
              "velocity": 22,
              "position": 12.8125,
              "duration": 0.16666666666666666
            },
            {
              "pitch": 57,
              "velocity": 16,
              "position": 12.979166666666666,
              "duration": 1
            },
            {
              "pitch": 67,
              "velocity": 49,
              "position": 12.979166666666666,
              "duration": 1
            },
            {
              "pitch": 64,
              "velocity": 16,
              "position": 12.979166666666666,
              "duration": 1
            },
            {
              "pitch": 60,
              "velocity": 16,
              "position": 12.979166666666666,
              "duration": 1
            },
            {
              "pitch": 56,
              "velocity": 16,
              "position": 13.979166666666666,
              "duration": 1
            },
            {
              "pitch": 67,
              "velocity": 49,
              "position": 13.979166666666666,
              "duration": 1
            },
            {
              "pitch": 63,
              "velocity": 46,
              "position": 13.979166666666666,
              "duration": 1
            },
            {
              "pitch": 60,
              "velocity": 46,
              "position": 13.979166666666666,
              "duration": 1
            },
            {
              "pitch": 60,
              "velocity": 79,
              "position": 14.979166666666666,
              "duration": 1
            },
            {
              "pitch": 69,
              "velocity": 82,
              "position": 14.979166666666666,
              "duration": 1
            },
            {
              "pitch": 65,
              "velocity": 79,
              "position": 14.979166666666666,
              "duration": 1
            },
            {
              "pitch": 64,
              "velocity": 79,
              "position": 14.979166666666666,
              "duration": 1
            },
            {
              "pitch": 62,
              "velocity": 81,
              "position": 15.979166666666666,
              "duration": 0.3020833333333333
            },
            {
              "pitch": 71,
              "velocity": 85,
              "position": 15.979166666666666,
              "duration": 0.3020833333333333
            },
            {
              "pitch": 67,
              "velocity": 81,
              "position": 15.979166666666666,
              "duration": 0.3020833333333333
            },
            {
              "pitch": 64,
              "velocity": 81,
              "position": 15.979166666666666,
              "duration": 0.3020833333333333
            },
            {
              "pitch": 62,
              "velocity": 51,
              "position": 16.2875,
              "duration": 0.18541666666666667
            },
            {
              "pitch": 71,
              "velocity": 55,
              "position": 16.2875,
              "duration": 0.18541666666666667
            },
            {
              "pitch": 67,
              "velocity": 51,
              "position": 16.2875,
              "duration": 0.18541666666666667
            },
            {
              "pitch": 64,
              "velocity": 51,
              "position": 16.2875,
              "duration": 0.18541666666666667
            },
            {
              "pitch": 62,
              "velocity": 111,
              "position": 16.479166666666668,
              "duration": 0.3020833333333333
            },
            {
              "pitch": 71,
              "velocity": 115,
              "position": 16.479166666666668,
              "duration": 0.3020833333333333
            },
            {
              "pitch": 67,
              "velocity": 111,
              "position": 16.479166666666668,
              "duration": 0.3020833333333333
            },
            {
              "pitch": 64,
              "velocity": 111,
              "position": 16.479166666666668,
              "duration": 0.3020833333333333
            },
            {
              "pitch": 62,
              "velocity": 81,
              "position": 16.7875,
              "duration": 0.21041666666666667
            },
            {
              "pitch": 71,
              "velocity": 85,
              "position": 16.7875,
              "duration": 0.21041666666666667
            },
            {
              "pitch": 67,
              "velocity": 81,
              "position": 16.7875,
              "duration": 0.21041666666666667
            },
            {
              "pitch": 64,
              "velocity": 81,
              "position": 16.7875,
              "duration": 0.21041666666666667
            },
            {
              "pitch": 64,
              "velocity": 81,
              "position": 17.2875,
              "duration": 0.21041666666666667
            },
            {
              "pitch": 72,
              "velocity": 85,
              "position": 17.2875,
              "duration": 0.21041666666666667
            },
            {
              "pitch": 69,
              "velocity": 81,
              "position": 17.2875,
              "duration": 0.21041666666666667
            },
            {
              "pitch": 65,
              "velocity": 81,
              "position": 17.2875,
              "duration": 0.21041666666666667
            },
            {
              "pitch": 62,
              "velocity": 81,
              "position": 17.7875,
              "duration": 0.21041666666666667
            },
            {
              "pitch": 71,
              "velocity": 85,
              "position": 17.7875,
              "duration": 0.21041666666666667
            },
            {
              "pitch": 67,
              "velocity": 81,
              "position": 17.7875,
              "duration": 0.21041666666666667
            },
            {
              "pitch": 64,
              "velocity": 81,
              "position": 17.7875,
              "duration": 0.21041666666666667
            },
            {
              "pitch": 62,
              "velocity": 51,
              "position": 18.2875,
              "duration": 0.18125
            },
            {
              "pitch": 71,
              "velocity": 85,
              "position": 18.2875,
              "duration": 0.18125
            },
            {
              "pitch": 67,
              "velocity": 85,
              "position": 18.2875,
              "duration": 0.18125
            },
            {
              "pitch": 64,
              "velocity": 51,
              "position": 18.2875,
              "duration": 0.18125
            },
            {
              "pitch": 69,
              "velocity": 84,
              "position": 18.479166666666668,
              "duration": 0.49375
            },
            {
              "pitch": 59,
              "velocity": 81,
              "position": 18.979166666666668,
              "duration": 0.4895833333333333
            },
            {
              "pitch": 67,
              "velocity": 85,
              "position": 18.979166666666668,
              "duration": 0.4895833333333333
            },
            {
              "pitch": 64,
              "velocity": 81,
              "position": 18.979166666666668,
              "duration": 0.4895833333333333
            },
            {
              "pitch": 62,
              "velocity": 81,
              "position": 18.979166666666668,
              "duration": 0.4895833333333333
            },
            {
              "pitch": 60,
              "velocity": 81,
              "position": 19.479166666666668,
              "duration": 0.4895833333333333
            },
            {
              "pitch": 69,
              "velocity": 85,
              "position": 19.479166666666668,
              "duration": 0.4895833333333333
            },
            {
              "pitch": 65,
              "velocity": 81,
              "position": 19.479166666666668,
              "duration": 0.4895833333333333
            },
            {
              "pitch": 62,
              "velocity": 81,
              "position": 19.479166666666668,
              "duration": 0.4895833333333333
            },
            {
              "pitch": 62,
              "velocity": 81,
              "position": 19.979166666666668,
              "duration": 0.3020833333333333
            },
            {
              "pitch": 71,
              "velocity": 85,
              "position": 19.979166666666668,
              "duration": 0.3020833333333333
            },
            {
              "pitch": 67,
              "velocity": 81,
              "position": 19.979166666666668,
              "duration": 0.3020833333333333
            },
            {
              "pitch": 64,
              "velocity": 81,
              "position": 19.979166666666668,
              "duration": 0.3020833333333333
            },
            {
              "pitch": 62,
              "velocity": 51,
              "position": 20.2875,
              "duration": 0.18541666666666667
            },
            {
              "pitch": 71,
              "velocity": 55,
              "position": 20.2875,
              "duration": 0.18541666666666667
            },
            {
              "pitch": 67,
              "velocity": 51,
              "position": 20.2875,
              "duration": 0.18541666666666667
            },
            {
              "pitch": 64,
              "velocity": 51,
              "position": 20.2875,
              "duration": 0.18541666666666667
            },
            {
              "pitch": 62,
              "velocity": 111,
              "position": 20.479166666666668,
              "duration": 0.3020833333333333
            },
            {
              "pitch": 71,
              "velocity": 115,
              "position": 20.479166666666668,
              "duration": 0.3020833333333333
            },
            {
              "pitch": 67,
              "velocity": 111,
              "position": 20.479166666666668,
              "duration": 0.3020833333333333
            },
            {
              "pitch": 64,
              "velocity": 111,
              "position": 20.479166666666668,
              "duration": 0.3020833333333333
            },
            {
              "pitch": 62,
              "velocity": 81,
              "position": 20.7875,
              "duration": 0.21041666666666667
            },
            {
              "pitch": 71,
              "velocity": 85,
              "position": 20.7875,
              "duration": 0.21041666666666667
            },
            {
              "pitch": 67,
              "velocity": 81,
              "position": 20.7875,
              "duration": 0.21041666666666667
            },
            {
              "pitch": 64,
              "velocity": 81,
              "position": 20.7875,
              "duration": 0.21041666666666667
            },
            {
              "pitch": 64,
              "velocity": 81,
              "position": 21.2875,
              "duration": 0.21041666666666667
            },
            {
              "pitch": 72,
              "velocity": 85,
              "position": 21.2875,
              "duration": 0.21041666666666667
            },
            {
              "pitch": 69,
              "velocity": 81,
              "position": 21.2875,
              "duration": 0.21041666666666667
            },
            {
              "pitch": 65,
              "velocity": 81,
              "position": 21.2875,
              "duration": 0.21041666666666667
            },
            {
              "pitch": 62,
              "velocity": 81,
              "position": 21.7875,
              "duration": 0.21041666666666667
            },
            {
              "pitch": 71,
              "velocity": 85,
              "position": 21.7875,
              "duration": 0.21041666666666667
            },
            {
              "pitch": 67,
              "velocity": 81,
              "position": 21.7875,
              "duration": 0.21041666666666667
            },
            {
              "pitch": 64,
              "velocity": 81,
              "position": 21.7875,
              "duration": 0.21041666666666667
            },
            {
              "pitch": 69,
              "velocity": 85,
              "position": 22.479166666666668,
              "duration": 0.3333333333333333
            },
            {
              "pitch": 70,
              "velocity": 118,
              "position": 22.8125,
              "duration": 0.08333333333333333
            },
            {
              "pitch": 60,
              "velocity": 81,
              "position": 22.479166666666668,
              "duration": 0.4895833333333333
            },
            {
              "pitch": 62,
              "velocity": 81,
              "position": 22.479166666666668,
              "duration": 0.4895833333333333
            },
            {
              "pitch": 65,
              "velocity": 81,
              "position": 22.479166666666668,
              "duration": 0.4895833333333333
            },
            {
              "pitch": 71,
              "velocity": 114,
              "position": 22.895833333333332,
              "duration": 0.08333333333333333
            },
            {
              "pitch": 64,
              "velocity": 81,
              "position": 22.979166666666668,
              "duration": 0.4895833333333333
            },
            {
              "pitch": 69,
              "velocity": 81,
              "position": 22.979166666666668,
              "duration": 0.4895833333333333
            },
            {
              "pitch": 65,
              "velocity": 81,
              "position": 22.979166666666668,
              "duration": 0.4895833333333333
            },
            {
              "pitch": 60,
              "velocity": 81,
              "position": 23.479166666666668,
              "duration": 0.4895833333333333
            },
            {
              "pitch": 69,
              "velocity": 85,
              "position": 23.479166666666668,
              "duration": 0.4895833333333333
            },
            {
              "pitch": 65,
              "velocity": 81,
              "position": 23.479166666666668,
              "duration": 0.4895833333333333
            },
            {
              "pitch": 62,
              "velocity": 81,
              "position": 23.479166666666668,
              "duration": 0.4895833333333333
            },
            {
              "pitch": 62,
              "velocity": 81,
              "position": 23.979166666666668,
              "duration": 0.3020833333333333
            },
            {
              "pitch": 71,
              "velocity": 85,
              "position": 23.979166666666668,
              "duration": 0.3020833333333333
            },
            {
              "pitch": 67,
              "velocity": 81,
              "position": 23.979166666666668,
              "duration": 0.3020833333333333
            },
            {
              "pitch": 64,
              "velocity": 81,
              "position": 23.979166666666668,
              "duration": 0.3020833333333333
            },
            {
              "pitch": 62,
              "velocity": 51,
              "position": 24.2875,
              "duration": 0.18541666666666667
            },
            {
              "pitch": 71,
              "velocity": 55,
              "position": 24.2875,
              "duration": 0.18541666666666667
            },
            {
              "pitch": 67,
              "velocity": 51,
              "position": 24.2875,
              "duration": 0.18541666666666667
            },
            {
              "pitch": 64,
              "velocity": 51,
              "position": 24.2875,
              "duration": 0.18541666666666667
            },
            {
              "pitch": 62,
              "velocity": 111,
              "position": 24.479166666666668,
              "duration": 0.3020833333333333
            },
            {
              "pitch": 71,
              "velocity": 115,
              "position": 24.479166666666668,
              "duration": 0.3020833333333333
            },
            {
              "pitch": 67,
              "velocity": 111,
              "position": 24.479166666666668,
              "duration": 0.3020833333333333
            },
            {
              "pitch": 64,
              "velocity": 111,
              "position": 24.479166666666668,
              "duration": 0.3020833333333333
            },
            {
              "pitch": 62,
              "velocity": 81,
              "position": 24.7875,
              "duration": 0.21041666666666667
            },
            {
              "pitch": 71,
              "velocity": 85,
              "position": 24.7875,
              "duration": 0.21041666666666667
            },
            {
              "pitch": 67,
              "velocity": 81,
              "position": 24.7875,
              "duration": 0.21041666666666667
            },
            {
              "pitch": 64,
              "velocity": 81,
              "position": 24.7875,
              "duration": 0.21041666666666667
            },
            {
              "pitch": 64,
              "velocity": 81,
              "position": 25.2875,
              "duration": 0.21041666666666667
            },
            {
              "pitch": 72,
              "velocity": 85,
              "position": 25.2875,
              "duration": 0.21041666666666667
            },
            {
              "pitch": 69,
              "velocity": 81,
              "position": 25.2875,
              "duration": 0.21041666666666667
            },
            {
              "pitch": 65,
              "velocity": 81,
              "position": 25.2875,
              "duration": 0.21041666666666667
            },
            {
              "pitch": 62,
              "velocity": 81,
              "position": 25.7875,
              "duration": 0.21041666666666667
            },
            {
              "pitch": 71,
              "velocity": 85,
              "position": 25.7875,
              "duration": 0.21041666666666667
            },
            {
              "pitch": 67,
              "velocity": 81,
              "position": 25.7875,
              "duration": 0.21041666666666667
            },
            {
              "pitch": 64,
              "velocity": 81,
              "position": 25.7875,
              "duration": 0.21041666666666667
            },
            {
              "pitch": 62,
              "velocity": 51,
              "position": 26.2875,
              "duration": 0.18541666666666667
            },
            {
              "pitch": 71,
              "velocity": 85,
              "position": 26.2875,
              "duration": 0.18541666666666667
            },
            {
              "pitch": 67,
              "velocity": 85,
              "position": 26.2875,
              "duration": 0.18541666666666667
            },
            {
              "pitch": 64,
              "velocity": 48,
              "position": 26.2875,
              "duration": 0.18541666666666667
            },
            {
              "pitch": 60,
              "velocity": 81,
              "position": 26.479166666666668,
              "duration": 0.49375
            },
            {
              "pitch": 69,
              "velocity": 85,
              "position": 26.479166666666668,
              "duration": 0.49375
            },
            {
              "pitch": 65,
              "velocity": 81,
              "position": 26.479166666666668,
              "duration": 0.49375
            },
            {
              "pitch": 62,
              "velocity": 81,
              "position": 26.479166666666668,
              "duration": 0.49375
            },
            {
              "pitch": 59,
              "velocity": 81,
              "position": 26.979166666666668,
              "duration": 0.4895833333333333
            },
            {
              "pitch": 67,
              "velocity": 85,
              "position": 26.979166666666668,
              "duration": 0.4895833333333333
            },
            {
              "pitch": 64,
              "velocity": 81,
              "position": 26.979166666666668,
              "duration": 0.4895833333333333
            },
            {
              "pitch": 62,
              "velocity": 81,
              "position": 26.979166666666668,
              "duration": 0.4895833333333333
            },
            {
              "pitch": 60,
              "velocity": 81,
              "position": 27.479166666666668,
              "duration": 0.4895833333333333
            },
            {
              "pitch": 69,
              "velocity": 85,
              "position": 27.479166666666668,
              "duration": 0.4895833333333333
            },
            {
              "pitch": 65,
              "velocity": 81,
              "position": 27.479166666666668,
              "duration": 0.4895833333333333
            },
            {
              "pitch": 62,
              "velocity": 81,
              "position": 27.479166666666668,
              "duration": 0.4895833333333333
            },
            {
              "pitch": 62,
              "velocity": 79,
              "position": 28.145833333333332,
              "duration": 0.16666666666666666
            },
            {
              "pitch": 65,
              "velocity": 85,
              "position": 28.145833333333332,
              "duration": 0.16666666666666666
            },
            {
              "pitch": 63,
              "velocity": 112,
              "position": 28.3125,
              "duration": 0.16666666666666666
            },
            {
              "pitch": 67,
              "velocity": 118,
              "position": 28.3125,
              "duration": 0.16666666666666666
            },
            {
              "pitch": 65,
              "velocity": 112,
              "position": 28.479166666666668,
              "duration": 0.16666666666666666
            },
            {
              "pitch": 68,
              "velocity": 118,
              "position": 28.479166666666668,
              "duration": 0.16666666666666666
            },
            {
              "pitch": 67,
              "velocity": 79,
              "position": 28.645833333333332,
              "duration": 0.16666666666666666
            },
            {
              "pitch": 70,
              "velocity": 85,
              "position": 28.645833333333332,
              "duration": 0.16666666666666666
            },
            {
              "pitch": 68,
              "velocity": 79,
              "position": 28.8125,
              "duration": 0.25
            },
            {
              "pitch": 72,
              "velocity": 85,
              "position": 28.8125,
              "duration": 0.25
            },
            {
              "pitch": 63,
              "velocity": 79,
              "position": 29.145833333333332,
              "duration": 0.16666666666666666
            },
            {
              "pitch": 72,
              "velocity": 85,
              "position": 29.145833333333332,
              "duration": 0.16666666666666666
            },
            {
              "pitch": 68,
              "velocity": 79,
              "position": 29.145833333333332,
              "duration": 0.16666666666666666
            },
            {
              "pitch": 65,
              "velocity": 112,
              "position": 29.3125,
              "duration": 0.16666666666666666
            },
            {
              "pitch": 74,
              "velocity": 118,
              "position": 29.3125,
              "duration": 0.16666666666666666
            },
            {
              "pitch": 70,
              "velocity": 112,
              "position": 29.3125,
              "duration": 0.16666666666666666
            },
            {
              "pitch": 67,
              "velocity": 112,
              "position": 29.479166666666668,
              "duration": 0.16666666666666666
            },
            {
              "pitch": 75,
              "velocity": 118,
              "position": 29.479166666666668,
              "duration": 0.16666666666666666
            },
            {
              "pitch": 72,
              "velocity": 112,
              "position": 29.479166666666668,
              "duration": 0.16666666666666666
            },
            {
              "pitch": 70,
              "velocity": 79,
              "position": 29.645833333333332,
              "duration": 0.16666666666666666
            },
            {
              "pitch": 77,
              "velocity": 85,
              "position": 29.645833333333332,
              "duration": 0.16666666666666666
            },
            {
              "pitch": 74,
              "velocity": 79,
              "position": 29.645833333333332,
              "duration": 0.16666666666666666
            },
            {
              "pitch": 69,
              "velocity": 84,
              "position": 29.8125,
              "duration": 0.3333333333333333
            },
            {
              "pitch": 79,
              "velocity": 90,
              "position": 29.8125,
              "duration": 0.3333333333333333
            },
            {
              "pitch": 76,
              "velocity": 84,
              "position": 29.8125,
              "duration": 0.3333333333333333
            },
            {
              "pitch": 72,
              "velocity": 84,
              "position": 29.8125,
              "duration": 0.3333333333333333
            }
          ]
        }
      }
    },
    "Ending_C": {
      "type": "Ending_C",
      "sizeInBeats": 16,
      "channels": {
        "1": {
          "ctab": {
            "srcChannel": 1,
            "name": "Bass",
            "accType": "BASS",
            "editable": false,
            "mutedNotes": [],
            "mutedChords": [
              "1+2+5",
              "sus4",
              "1+5",
              "1+8",
              "7aug",
              "Maj7aug",
              "7(#9)",
              "7(b13)",
              "7(b9)",
              "7(13)",
              "7#11",
              "7(9)",
              "7b5",
              "7sus4",
              "7th",
              "aug",
              "Maj6(9)",
              "Maj7(9)",
              "Maj(9)",
              "Maj7#11",
              "Maj7",
              "Maj6",
              "Maj"
            ],
            "autoStart": false,
            "sourceChordNote": 0,
            "sourceChordType": "min",
            "ctb2Low": null,
            "ctb2Main": {
              "ntr": "ROOT_TRANSPOSITION",
              "ntt": "BYPASS",
              "bassOn": false,
              "chordRootUpperLimit": 3,
              "noteLowLimit": 28,
              "noteHighLimit": 127,
              "rtr": "PITCH_SHIFT"
            },
            "ctb2High": null
          },
          "notes": [
            {
              "pitch": 24,
              "velocity": 63,
              "position": 0,
              "duration": 0.4166666666666667
            },
            {
              "pitch": 24,
              "velocity": 96,
              "position": 0.5,
              "duration": 0.0625
            },
            {
              "pitch": 48,
              "velocity": 66,
              "position": 0.8333333333333334,
              "duration": 0.17708333333333334
            },
            {
              "pitch": 36,
              "velocity": 59,
              "position": 1.8333333333333333,
              "duration": 0.65625
            },
            {
              "pitch": 36,
              "velocity": 63,
              "position": 2.5,
              "duration": 0.2916666666666667
            },
            {
              "pitch": 36,
              "velocity": 60,
              "position": 3.3333333333333335,
              "duration": 0.17708333333333334
            },
            {
              "pitch": 34,
              "velocity": 54,
              "position": 3.5,
              "duration": 0.4791666666666667
            },
            {
              "pitch": 32,
              "velocity": 63,
              "position": 4,
              "duration": 0.78125
            },
            {
              "pitch": 44,
              "velocity": 65,
              "position": 4.833333333333333,
              "duration": 0.17708333333333334
            },
            {
              "pitch": 32,
              "velocity": 59,
              "position": 5.833333333333333,
              "duration": 0.6666666666666666
            },
            {
              "pitch": 41,
              "velocity": 64,
              "position": 6.5,
              "duration": 0.2916666666666667
            },
            {
              "pitch": 39,
              "velocity": 60,
              "position": 7,
              "duration": 0.16666666666666666
            },
            {
              "pitch": 38,
              "velocity": 57,
              "position": 7.166666666666667,
              "duration": 0.16666666666666666
            },
            {
              "pitch": 37,
              "velocity": 60,
              "position": 7.333333333333333,
              "duration": 0.17708333333333334
            },
            {
              "pitch": 36,
              "velocity": 59,
              "position": 7.5,
              "duration": 0.14583333333333334
            },
            {
              "pitch": 34,
              "velocity": 57,
              "position": 7.666666666666667,
              "duration": 0.16666666666666666
            },
            {
              "pitch": 32,
              "velocity": 57,
              "position": 7.833333333333333,
              "duration": 0.16666666666666666
            },
            {
              "pitch": 29,
              "velocity": 66,
              "position": 8,
              "duration": 0.4166666666666667
            },
            {
              "pitch": 29,
              "velocity": 96,
              "position": 8.5,
              "duration": 0.0625
            },
            {
              "pitch": 41,
              "velocity": 65,
              "position": 8.833333333333334,
              "duration": 0.17708333333333334
            },
            {
              "pitch": 26,
              "velocity": 59,
              "position": 9.833333333333334,
              "duration": 0.3333333333333333
            },
            {
              "pitch": 37,
              "velocity": 60,
              "position": 10.808333333333334,
              "duration": 0.34375
            },
            {
              "pitch": 24,
              "velocity": 59,
              "position": 11.808333333333334,
              "duration": 3.5625
            }
          ]
        },
        "2": {
          "ctab": {
            "srcChannel": 2,
            "name": "Gtr",
            "accType": "CHORD1",
            "editable": false,
            "mutedNotes": [],
            "mutedChords": [
              "1+2+5",
              "sus4",
              "1+5",
              "1+8",
              "7aug",
              "Maj7aug",
              "7(#9)",
              "7(b13)",
              "7(b9)",
              "7(13)",
              "7#11",
              "7(9)",
              "7b5",
              "7sus4",
              "7th",
              "aug",
              "Maj6(9)",
              "Maj7(9)",
              "Maj(9)",
              "Maj7#11",
              "Maj7",
              "Maj6",
              "Maj"
            ],
            "autoStart": false,
            "sourceChordNote": 0,
            "sourceChordType": "min",
            "ctb2Low": null,
            "ctb2Main": {
              "ntr": "ROOT_TRANSPOSITION",
              "ntt": "BYPASS",
              "bassOn": false,
              "chordRootUpperLimit": 2,
              "noteLowLimit": 57,
              "noteHighLimit": 79,
              "rtr": "PITCH_SHIFT"
            },
            "ctb2High": null
          },
          "notes": [
            {
              "pitch": 100,
              "velocity": 91,
              "position": 0,
              "duration": 0.15625
            },
            {
              "pitch": 58,
              "velocity": 53,
              "position": 0,
              "duration": 0.78125
            },
            {
              "pitch": 63,
              "velocity": 53,
              "position": 0.010416666666666666,
              "duration": 0.78125
            },
            {
              "pitch": 72,
              "velocity": 53,
              "position": 0.03125,
              "duration": 0.7666666666666667
            },
            {
              "pitch": 67,
              "velocity": 53,
              "position": 0.020833333333333332,
              "duration": 0.78125
            },
            {
              "pitch": 72,
              "velocity": 50,
              "position": 0.8083333333333333,
              "duration": 0.10416666666666667
            },
            {
              "pitch": 67,
              "velocity": 50,
              "position": 0.81875,
              "duration": 0.10416666666666667
            },
            {
              "pitch": 63,
              "velocity": 50,
              "position": 0.8291666666666667,
              "duration": 0.10416666666666667
            },
            {
              "pitch": 58,
              "velocity": 50,
              "position": 0.8395833333333333,
              "duration": 0.10416666666666667
            },
            {
              "pitch": 99,
              "velocity": 73,
              "position": 0.8083333333333333,
              "duration": 0.15625
            },
            {
              "pitch": 72,
              "velocity": 69,
              "position": 1.3083333333333333,
              "duration": 0.041666666666666664
            },
            {
              "pitch": 67,
              "velocity": 69,
              "position": 1.31875,
              "duration": 0.041666666666666664
            },
            {
              "pitch": 63,
              "velocity": 69,
              "position": 1.3291666666666666,
              "duration": 0.041666666666666664
            },
            {
              "pitch": 58,
              "velocity": 69,
              "position": 1.3395833333333333,
              "duration": 0.041666666666666664
            },
            {
              "pitch": 99,
              "velocity": 75,
              "position": 1.3083333333333333,
              "duration": 0.15625
            },
            {
              "pitch": 100,
              "velocity": 91,
              "position": 1.5,
              "duration": 0.15625
            },
            {
              "pitch": 58,
              "velocity": 41,
              "position": 1.5,
              "duration": 0.78125
            },
            {
              "pitch": 63,
              "velocity": 49,
              "position": 1.5104166666666667,
              "duration": 0.78125
            },
            {
              "pitch": 67,
              "velocity": 49,
              "position": 1.5208333333333333,
              "duration": 0.78125
            },
            {
              "pitch": 72,
              "velocity": 49,
              "position": 1.53125,
              "duration": 0.7729166666666667
            },
            {
              "pitch": 72,
              "velocity": 58,
              "position": 2.308333333333333,
              "duration": 0.10416666666666667
            },
            {
              "pitch": 67,
              "velocity": 58,
              "position": 2.31875,
              "duration": 0.10416666666666667
            },
            {
              "pitch": 63,
              "velocity": 58,
              "position": 2.3291666666666666,
              "duration": 0.10416666666666667
            },
            {
              "pitch": 58,
              "velocity": 58,
              "position": 2.339583333333333,
              "duration": 0.10416666666666667
            },
            {
              "pitch": 99,
              "velocity": 72,
              "position": 2.308333333333333,
              "duration": 0.15625
            },
            {
              "pitch": 58,
              "velocity": 71,
              "position": 2.5,
              "duration": 0.052083333333333336
            },
            {
              "pitch": 63,
              "velocity": 71,
              "position": 2.5104166666666665,
              "duration": 0.052083333333333336
            },
            {
              "pitch": 67,
              "velocity": 71,
              "position": 2.5208333333333335,
              "duration": 0.052083333333333336
            },
            {
              "pitch": 72,
              "velocity": 71,
              "position": 2.53125,
              "duration": 0.052083333333333336
            },
            {
              "pitch": 100,
              "velocity": 91,
              "position": 2.5,
              "duration": 0.15625
            },
            {
              "pitch": 72,
              "velocity": 65,
              "position": 2.808333333333333,
              "duration": 0.041666666666666664
            },
            {
              "pitch": 67,
              "velocity": 65,
              "position": 2.81875,
              "duration": 0.041666666666666664
            },
            {
              "pitch": 63,
              "velocity": 65,
              "position": 2.8291666666666666,
              "duration": 0.041666666666666664
            },
            {
              "pitch": 58,
              "velocity": 65,
              "position": 2.839583333333333,
              "duration": 0.041666666666666664
            },
            {
              "pitch": 99,
              "velocity": 79,
              "position": 2.808333333333333,
              "duration": 0.15625
            },
            {
              "pitch": 100,
              "velocity": 91,
              "position": 3,
              "duration": 0.15625
            },
            {
              "pitch": 58,
              "velocity": 59,
              "position": 3,
              "duration": 0.28125
            },
            {
              "pitch": 63,
              "velocity": 59,
              "position": 3.0104166666666665,
              "duration": 0.28125
            },
            {
              "pitch": 67,
              "velocity": 59,
              "position": 3.0208333333333335,
              "duration": 0.28125
            },
            {
              "pitch": 72,
              "velocity": 59,
              "position": 3.03125,
              "duration": 0.2708333333333333
            },
            {
              "pitch": 72,
              "velocity": 44,
              "position": 3.308333333333333,
              "duration": 0.11458333333333333
            },
            {
              "pitch": 67,
              "velocity": 44,
              "position": 3.31875,
              "duration": 0.11458333333333333
            },
            {
              "pitch": 63,
              "velocity": 44,
              "position": 3.3291666666666666,
              "duration": 0.11458333333333333
            },
            {
              "pitch": 58,
              "velocity": 44,
              "position": 3.339583333333333,
              "duration": 0.11458333333333333
            },
            {
              "pitch": 99,
              "velocity": 73,
              "position": 3.308333333333333,
              "duration": 0.15625
            },
            {
              "pitch": 58,
              "velocity": 52,
              "position": 3.5,
              "duration": 0.11458333333333333
            },
            {
              "pitch": 63,
              "velocity": 52,
              "position": 3.5104166666666665,
              "duration": 0.11458333333333333
            },
            {
              "pitch": 67,
              "velocity": 52,
              "position": 3.5208333333333335,
              "duration": 0.11458333333333333
            },
            {
              "pitch": 72,
              "velocity": 52,
              "position": 3.53125,
              "duration": 0.11458333333333333
            },
            {
              "pitch": 100,
              "velocity": 91,
              "position": 3.5,
              "duration": 0.15625
            },
            {
              "pitch": 99,
              "velocity": 73,
              "position": 3.808333333333333,
              "duration": 0.15625
            },
            {
              "pitch": 72,
              "velocity": 39,
              "position": 3.808333333333333,
              "duration": 0.16666666666666666
            },
            {
              "pitch": 67,
              "velocity": 39,
              "position": 3.81875,
              "duration": 0.16666666666666666
            },
            {
              "pitch": 63,
              "velocity": 39,
              "position": 3.8291666666666666,
              "duration": 0.16666666666666666
            },
            {
              "pitch": 58,
              "velocity": 39,
              "position": 3.839583333333333,
              "duration": 0.15625
            },
            {
              "pitch": 100,
              "velocity": 91,
              "position": 4,
              "duration": 0.15625
            },
            {
              "pitch": 63,
              "velocity": 52,
              "position": 4,
              "duration": 0.28125
            },
            {
              "pitch": 66,
              "velocity": 59,
              "position": 4.010416666666667,
              "duration": 0.28125
            },
            {
              "pitch": 70,
              "velocity": 59,
              "position": 4.020833333333333,
              "duration": 0.28125
            },
            {
              "pitch": 72,
              "velocity": 59,
              "position": 4.03125,
              "duration": 0.27291666666666664
            },
            {
              "pitch": 72,
              "velocity": 36,
              "position": 4.308333333333334,
              "duration": 0.10416666666666667
            },
            {
              "pitch": 70,
              "velocity": 36,
              "position": 4.31875,
              "duration": 0.10416666666666667
            },
            {
              "pitch": 66,
              "velocity": 36,
              "position": 4.329166666666667,
              "duration": 0.10416666666666667
            },
            {
              "pitch": 63,
              "velocity": 32,
              "position": 4.339583333333334,
              "duration": 0.10416666666666667
            },
            {
              "pitch": 99,
              "velocity": 71,
              "position": 4.308333333333334,
              "duration": 0.15625
            },
            {
              "pitch": 63,
              "velocity": 69,
              "position": 4.5,
              "duration": 0.052083333333333336
            },
            {
              "pitch": 66,
              "velocity": 69,
              "position": 4.510416666666667,
              "duration": 0.052083333333333336
            },
            {
              "pitch": 70,
              "velocity": 69,
              "position": 4.520833333333333,
              "duration": 0.052083333333333336
            },
            {
              "pitch": 72,
              "velocity": 69,
              "position": 4.53125,
              "duration": 0.052083333333333336
            },
            {
              "pitch": 100,
              "velocity": 93,
              "position": 4.5,
              "duration": 0.15625
            },
            {
              "pitch": 72,
              "velocity": 55,
              "position": 4.808333333333334,
              "duration": 0.15625
            },
            {
              "pitch": 99,
              "velocity": 72,
              "position": 4.808333333333334,
              "duration": 0.15625
            },
            {
              "pitch": 70,
              "velocity": 55,
              "position": 4.81875,
              "duration": 0.15625
            },
            {
              "pitch": 66,
              "velocity": 55,
              "position": 4.829166666666667,
              "duration": 0.15625
            },
            {
              "pitch": 63,
              "velocity": 55,
              "position": 4.839583333333334,
              "duration": 0.15625
            },
            {
              "pitch": 63,
              "velocity": 80,
              "position": 5.308333333333334,
              "duration": 0.041666666666666664
            },
            {
              "pitch": 66,
              "velocity": 80,
              "position": 5.31875,
              "duration": 0.041666666666666664
            },
            {
              "pitch": 70,
              "velocity": 80,
              "position": 5.329166666666667,
              "duration": 0.041666666666666664
            },
            {
              "pitch": 72,
              "velocity": 80,
              "position": 5.339583333333334,
              "duration": 0.041666666666666664
            },
            {
              "pitch": 99,
              "velocity": 69,
              "position": 5.308333333333334,
              "duration": 0.15625
            },
            {
              "pitch": 100,
              "velocity": 91,
              "position": 5.5,
              "duration": 0.15625
            },
            {
              "pitch": 72,
              "velocity": 115,
              "position": 5.5,
              "duration": 0.78125
            },
            {
              "pitch": 70,
              "velocity": 115,
              "position": 5.510416666666667,
              "duration": 0.78125
            },
            {
              "pitch": 66,
              "velocity": 115,
              "position": 5.520833333333333,
              "duration": 0.78125
            },
            {
              "pitch": 63,
              "velocity": 115,
              "position": 5.53125,
              "duration": 0.78125
            },
            {
              "pitch": 72,
              "velocity": 69,
              "position": 6.308333333333334,
              "duration": 0.10416666666666667
            },
            {
              "pitch": 70,
              "velocity": 69,
              "position": 6.31875,
              "duration": 0.10416666666666667
            },
            {
              "pitch": 66,
              "velocity": 69,
              "position": 6.329166666666667,
              "duration": 0.10416666666666667
            },
            {
              "pitch": 63,
              "velocity": 69,
              "position": 6.339583333333334,
              "duration": 0.10416666666666667
            },
            {
              "pitch": 99,
              "velocity": 71,
              "position": 6.308333333333334,
              "duration": 0.15625
            },
            {
              "pitch": 63,
              "velocity": 82,
              "position": 6.5,
              "duration": 0.052083333333333336
            },
            {
              "pitch": 66,
              "velocity": 82,
              "position": 6.510416666666667,
              "duration": 0.052083333333333336
            },
            {
              "pitch": 70,
              "velocity": 82,
              "position": 6.520833333333333,
              "duration": 0.052083333333333336
            },
            {
              "pitch": 72,
              "velocity": 82,
              "position": 6.53125,
              "duration": 0.052083333333333336
            },
            {
              "pitch": 100,
              "velocity": 91,
              "position": 6.5,
              "duration": 0.15625
            },
            {
              "pitch": 72,
              "velocity": 66,
              "position": 6.808333333333334,
              "duration": 0.041666666666666664
            },
            {
              "pitch": 70,
              "velocity": 66,
              "position": 6.81875,
              "duration": 0.041666666666666664
            },
            {
              "pitch": 66,
              "velocity": 66,
              "position": 6.829166666666667,
              "duration": 0.041666666666666664
            },
            {
              "pitch": 63,
              "velocity": 66,
              "position": 6.839583333333334,
              "duration": 0.041666666666666664
            },
            {
              "pitch": 99,
              "velocity": 71,
              "position": 6.808333333333334,
              "duration": 0.15625
            },
            {
              "pitch": 100,
              "velocity": 91,
              "position": 7,
              "duration": 0.15625
            },
            {
              "pitch": 63,
              "velocity": 47,
              "position": 7,
              "duration": 0.28125
            },
            {
              "pitch": 66,
              "velocity": 55,
              "position": 7.010416666666667,
              "duration": 0.28125
            },
            {
              "pitch": 70,
              "velocity": 55,
              "position": 7.020833333333333,
              "duration": 0.28125
            },
            {
              "pitch": 72,
              "velocity": 55,
              "position": 7.03125,
              "duration": 0.27291666666666664
            },
            {
              "pitch": 72,
              "velocity": 65,
              "position": 7.308333333333334,
              "duration": 0.11458333333333333
            },
            {
              "pitch": 70,
              "velocity": 65,
              "position": 7.31875,
              "duration": 0.11458333333333333
            },
            {
              "pitch": 66,
              "velocity": 65,
              "position": 7.329166666666667,
              "duration": 0.11458333333333333
            },
            {
              "pitch": 63,
              "velocity": 65,
              "position": 7.339583333333334,
              "duration": 0.11458333333333333
            },
            {
              "pitch": 99,
              "velocity": 72,
              "position": 7.308333333333334,
              "duration": 0.15625
            },
            {
              "pitch": 63,
              "velocity": 41,
              "position": 7.5,
              "duration": 0.11458333333333333
            },
            {
              "pitch": 66,
              "velocity": 41,
              "position": 7.510416666666667,
              "duration": 0.11458333333333333
            },
            {
              "pitch": 70,
              "velocity": 41,
              "position": 7.520833333333333,
              "duration": 0.11458333333333333
            },
            {
              "pitch": 72,
              "velocity": 41,
              "position": 7.53125,
              "duration": 0.11458333333333333
            },
            {
              "pitch": 100,
              "velocity": 91,
              "position": 7.5,
              "duration": 0.15625
            },
            {
              "pitch": 99,
              "velocity": 67,
              "position": 7.808333333333334,
              "duration": 0.15625
            },
            {
              "pitch": 72,
              "velocity": 36,
              "position": 7.808333333333334,
              "duration": 0.16666666666666666
            },
            {
              "pitch": 70,
              "velocity": 36,
              "position": 7.81875,
              "duration": 0.16666666666666666
            },
            {
              "pitch": 66,
              "velocity": 36,
              "position": 7.829166666666667,
              "duration": 0.16666666666666666
            },
            {
              "pitch": 63,
              "velocity": 36,
              "position": 7.839583333333334,
              "duration": 0.15625
            },
            {
              "pitch": 100,
              "velocity": 91,
              "position": 8,
              "duration": 0.15625
            },
            {
              "pitch": 62,
              "velocity": 53,
              "position": 8,
              "duration": 0.78125
            },
            {
              "pitch": 65,
              "velocity": 53,
              "position": 8.010416666666666,
              "duration": 0.78125
            },
            {
              "pitch": 72,
              "velocity": 53,
              "position": 8.03125,
              "duration": 0.7666666666666667
            },
            {
              "pitch": 68,
              "velocity": 53,
              "position": 8.020833333333334,
              "duration": 0.78125
            },
            {
              "pitch": 72,
              "velocity": 50,
              "position": 8.808333333333334,
              "duration": 0.10416666666666667
            },
            {
              "pitch": 68,
              "velocity": 50,
              "position": 8.81875,
              "duration": 0.10416666666666667
            },
            {
              "pitch": 65,
              "velocity": 50,
              "position": 8.829166666666667,
              "duration": 0.10416666666666667
            },
            {
              "pitch": 62,
              "velocity": 50,
              "position": 8.839583333333334,
              "duration": 0.10416666666666667
            },
            {
              "pitch": 99,
              "velocity": 73,
              "position": 8.808333333333334,
              "duration": 0.15625
            },
            {
              "pitch": 100,
              "velocity": 91,
              "position": 9.5,
              "duration": 0.15625
            },
            {
              "pitch": 100,
              "velocity": 75,
              "position": 9.808333333333334,
              "duration": 0.15625
            },
            {
              "pitch": 62,
              "velocity": 59,
              "position": 9.808333333333334,
              "duration": 0.2708333333333333
            },
            {
              "pitch": 72,
              "velocity": 59,
              "position": 9.808333333333334,
              "duration": 0.28125
            },
            {
              "pitch": 69,
              "velocity": 59,
              "position": 9.808333333333334,
              "duration": 0.28125
            },
            {
              "pitch": 66,
              "velocity": 59,
              "position": 9.808333333333334,
              "duration": 0.28125
            },
            {
              "pitch": 99,
              "velocity": 72,
              "position": 10.308333333333334,
              "duration": 0.15625
            },
            {
              "pitch": 100,
              "velocity": 91,
              "position": 10.5,
              "duration": 0.15625
            },
            {
              "pitch": 99,
              "velocity": 79,
              "position": 10.808333333333334,
              "duration": 0.15625
            },
            {
              "pitch": 61,
              "velocity": 59,
              "position": 10.808333333333334,
              "duration": 0.2708333333333333
            },
            {
              "pitch": 72,
              "velocity": 59,
              "position": 10.808333333333334,
              "duration": 0.28125
            },
            {
              "pitch": 68,
              "velocity": 59,
              "position": 10.808333333333334,
              "duration": 0.28125
            },
            {
              "pitch": 65,
              "velocity": 59,
              "position": 10.808333333333334,
              "duration": 0.28125
            },
            {
              "pitch": 100,
              "velocity": 91,
              "position": 11.5,
              "duration": 0.15625
            },
            {
              "pitch": 99,
              "velocity": 73,
              "position": 11.808333333333334,
              "duration": 0.15625
            },
            {
              "pitch": 74,
              "velocity": 46,
              "position": 11.808333333333334,
              "duration": 3.425
            },
            {
              "pitch": 67,
              "velocity": 46,
              "position": 11.829166666666667,
              "duration": 3.425
            },
            {
              "pitch": 63,
              "velocity": 46,
              "position": 11.839583333333334,
              "duration": 3.4145833333333333
            },
            {
              "pitch": 71,
              "velocity": 46,
              "position": 11.81875,
              "duration": 3.45
            }
          ]
        },
        "3": {
          "ctab": {
            "srcChannel": 3,
            "name": "EP",
            "accType": "CHORD2",
            "editable": false,
            "mutedNotes": [],
            "mutedChords": [
              "1+2+5",
              "sus4",
              "1+5",
              "1+8",
              "7aug",
              "Maj7aug",
              "7(#9)",
              "7(b13)",
              "7(b9)",
              "7(13)",
              "7#11",
              "7(9)",
              "7b5",
              "7sus4",
              "7th",
              "aug",
              "Maj6(9)",
              "Maj7(9)",
              "Maj(9)",
              "Maj7#11",
              "Maj7",
              "Maj6",
              "Maj"
            ],
            "autoStart": false,
            "sourceChordNote": 0,
            "sourceChordType": "min",
            "ctb2Low": null,
            "ctb2Main": {
              "ntr": "ROOT_TRANSPOSITION",
              "ntt": "BYPASS",
              "bassOn": false,
              "chordRootUpperLimit": 10,
              "noteLowLimit": 0,
              "noteHighLimit": 127,
              "rtr": "PITCH_SHIFT"
            },
            "ctb2High": null
          },
          "notes": [
            {
              "pitch": 60,
              "velocity": 89,
              "position": 0,
              "duration": 0.08541666666666667
            },
            {
              "pitch": 58,
              "velocity": 94,
              "position": 0,
              "duration": 0.10625
            },
            {
              "pitch": 63,
              "velocity": 89,
              "position": 0,
              "duration": 0.15416666666666667
            },
            {
              "pitch": 55,
              "velocity": 100,
              "position": 0,
              "duration": 0.33958333333333335
            },
            {
              "pitch": 60,
              "velocity": 70,
              "position": 0.30833333333333335,
              "duration": 0.07291666666666667
            },
            {
              "pitch": 58,
              "velocity": 77,
              "position": 0.30833333333333335,
              "duration": 0.09375
            },
            {
              "pitch": 63,
              "velocity": 31,
              "position": 0.30833333333333335,
              "duration": 0.09375
            },
            {
              "pitch": 63,
              "velocity": 70,
              "position": 0.5,
              "duration": 0.0625
            },
            {
              "pitch": 55,
              "velocity": 56,
              "position": 0.5,
              "duration": 0.0875
            },
            {
              "pitch": 58,
              "velocity": 81,
              "position": 0.5,
              "duration": 0.09583333333333334
            },
            {
              "pitch": 60,
              "velocity": 62,
              "position": 0.5,
              "duration": 0.12083333333333333
            },
            {
              "pitch": 58,
              "velocity": 84,
              "position": 0.8083333333333333,
              "duration": 0.0625
            },
            {
              "pitch": 60,
              "velocity": 94,
              "position": 0.8083333333333333,
              "duration": 0.06458333333333334
            },
            {
              "pitch": 36,
              "velocity": 87,
              "position": 0,
              "duration": 0.8979166666666667
            },
            {
              "pitch": 55,
              "velocity": 96,
              "position": 0.8083333333333333,
              "duration": 0.09166666666666666
            },
            {
              "pitch": 48,
              "velocity": 87,
              "position": 0,
              "duration": 0.9041666666666667
            },
            {
              "pitch": 63,
              "velocity": 102,
              "position": 0.8083333333333333,
              "duration": 0.11875
            },
            {
              "pitch": 58,
              "velocity": 102,
              "position": 1.3083333333333333,
              "duration": 0.06041666666666667
            },
            {
              "pitch": 65,
              "velocity": 102,
              "position": 1.3083333333333333,
              "duration": 0.0625
            },
            {
              "pitch": 62,
              "velocity": 89,
              "position": 1.3083333333333333,
              "duration": 0.08333333333333333
            },
            {
              "pitch": 55,
              "velocity": 96,
              "position": 1.3083333333333333,
              "duration": 0.08333333333333333
            },
            {
              "pitch": 58,
              "velocity": 94,
              "position": 1.8083333333333333,
              "duration": 0.04791666666666667
            },
            {
              "pitch": 63,
              "velocity": 87,
              "position": 1.8083333333333333,
              "duration": 0.06041666666666667
            },
            {
              "pitch": 60,
              "velocity": 102,
              "position": 1.8083333333333333,
              "duration": 0.06041666666666667
            },
            {
              "pitch": 55,
              "velocity": 105,
              "position": 1.8083333333333333,
              "duration": 0.06041666666666667
            },
            {
              "pitch": 43,
              "velocity": 96,
              "position": 2.308333333333333,
              "duration": 0.3
            },
            {
              "pitch": 62,
              "velocity": 82,
              "position": 2.5,
              "duration": 0.2375
            },
            {
              "pitch": 58,
              "velocity": 77,
              "position": 2.5,
              "duration": 0.24583333333333332
            },
            {
              "pitch": 55,
              "velocity": 91,
              "position": 2.5,
              "duration": 0.26875
            },
            {
              "pitch": 51,
              "velocity": 91,
              "position": 2.5,
              "duration": 0.26875
            },
            {
              "pitch": 43,
              "velocity": 52,
              "position": 2.808333333333333,
              "duration": 0.11041666666666666
            },
            {
              "pitch": 51,
              "velocity": 76,
              "position": 3,
              "duration": 0.23541666666666666
            },
            {
              "pitch": 60,
              "velocity": 65,
              "position": 3,
              "duration": 0.2708333333333333
            },
            {
              "pitch": 55,
              "velocity": 87,
              "position": 3,
              "duration": 0.29375
            },
            {
              "pitch": 58,
              "velocity": 61,
              "position": 3,
              "duration": 0.29583333333333334
            },
            {
              "pitch": 43,
              "velocity": 98,
              "position": 3.308333333333333,
              "duration": 0.16875
            },
            {
              "pitch": 51,
              "velocity": 96,
              "position": 3.5,
              "duration": 0.29791666666666666
            },
            {
              "pitch": 62,
              "velocity": 86,
              "position": 3.5,
              "duration": 0.33125
            },
            {
              "pitch": 55,
              "velocity": 102,
              "position": 3.5,
              "duration": 0.3458333333333333
            },
            {
              "pitch": 58,
              "velocity": 102,
              "position": 3.5,
              "duration": 0.36041666666666666
            },
            {
              "pitch": 43,
              "velocity": 82,
              "position": 3.808333333333333,
              "duration": 0.22291666666666668
            },
            {
              "pitch": 58,
              "velocity": 70,
              "position": 4,
              "duration": 0.07083333333333333
            },
            {
              "pitch": 60,
              "velocity": 54,
              "position": 4,
              "duration": 0.08125
            },
            {
              "pitch": 63,
              "velocity": 65,
              "position": 4,
              "duration": 0.08333333333333333
            },
            {
              "pitch": 54,
              "velocity": 89,
              "position": 4,
              "duration": 0.18333333333333332
            },
            {
              "pitch": 54,
              "velocity": 61,
              "position": 4.308333333333334,
              "duration": 0.06875
            },
            {
              "pitch": 63,
              "velocity": 39,
              "position": 4.308333333333334,
              "duration": 0.0875
            },
            {
              "pitch": 60,
              "velocity": 68,
              "position": 4.308333333333334,
              "duration": 0.11041666666666666
            },
            {
              "pitch": 58,
              "velocity": 71,
              "position": 4.308333333333334,
              "duration": 0.15208333333333332
            },
            {
              "pitch": 54,
              "velocity": 61,
              "position": 4.5,
              "duration": 0.06875
            },
            {
              "pitch": 63,
              "velocity": 39,
              "position": 4.5,
              "duration": 0.0875
            },
            {
              "pitch": 60,
              "velocity": 68,
              "position": 4.5,
              "duration": 0.11041666666666666
            },
            {
              "pitch": 58,
              "velocity": 71,
              "position": 4.5,
              "duration": 0.15208333333333332
            },
            {
              "pitch": 54,
              "velocity": 113,
              "position": 4.808333333333334,
              "duration": 0.07916666666666666
            },
            {
              "pitch": 58,
              "velocity": 84,
              "position": 4.808333333333334,
              "duration": 0.12916666666666668
            },
            {
              "pitch": 60,
              "velocity": 102,
              "position": 4.808333333333334,
              "duration": 0.14583333333333334
            },
            {
              "pitch": 63,
              "velocity": 84,
              "position": 4.808333333333334,
              "duration": 0.14791666666666667
            },
            {
              "pitch": 44,
              "velocity": 65,
              "position": 4,
              "duration": 1.05625
            },
            {
              "pitch": 32,
              "velocity": 81,
              "position": 4,
              "duration": 1.1229166666666666
            },
            {
              "pitch": 58,
              "velocity": 89,
              "position": 5.308333333333334,
              "duration": 0.058333333333333334
            },
            {
              "pitch": 65,
              "velocity": 86,
              "position": 5.308333333333334,
              "duration": 0.06458333333333334
            },
            {
              "pitch": 62,
              "velocity": 94,
              "position": 5.308333333333334,
              "duration": 0.10625
            },
            {
              "pitch": 54,
              "velocity": 86,
              "position": 5.308333333333334,
              "duration": 0.14166666666666666
            },
            {
              "pitch": 54,
              "velocity": 81,
              "position": 5.808333333333334,
              "duration": 0.052083333333333336
            },
            {
              "pitch": 58,
              "velocity": 73,
              "position": 5.808333333333334,
              "duration": 0.06458333333333334
            },
            {
              "pitch": 60,
              "velocity": 67,
              "position": 5.808333333333334,
              "duration": 0.06875
            },
            {
              "pitch": 63,
              "velocity": 65,
              "position": 5.808333333333334,
              "duration": 0.12083333333333333
            },
            {
              "pitch": 44,
              "velocity": 89,
              "position": 6.308333333333334,
              "duration": 0.1625
            },
            {
              "pitch": 60,
              "velocity": 96,
              "position": 6.5,
              "duration": 0.2875
            },
            {
              "pitch": 58,
              "velocity": 102,
              "position": 6.5,
              "duration": 0.30833333333333335
            },
            {
              "pitch": 62,
              "velocity": 102,
              "position": 6.5,
              "duration": 0.32708333333333334
            },
            {
              "pitch": 54,
              "velocity": 100,
              "position": 6.5,
              "duration": 0.33541666666666664
            },
            {
              "pitch": 41,
              "velocity": 98,
              "position": 6.808333333333334,
              "duration": 0.15416666666666667
            },
            {
              "pitch": 65,
              "velocity": 98,
              "position": 7,
              "duration": 0.23125
            },
            {
              "pitch": 58,
              "velocity": 127,
              "position": 7,
              "duration": 0.2791666666666667
            },
            {
              "pitch": 60,
              "velocity": 96,
              "position": 7,
              "duration": 0.2916666666666667
            },
            {
              "pitch": 62,
              "velocity": 94,
              "position": 7,
              "duration": 0.29583333333333334
            },
            {
              "pitch": 34,
              "velocity": 94,
              "position": 7.308333333333334,
              "duration": 0.15
            },
            {
              "pitch": 51,
              "velocity": 67,
              "position": 7.5,
              "duration": 0.2791666666666667
            },
            {
              "pitch": 58,
              "velocity": 84,
              "position": 7.5,
              "duration": 0.29583333333333334
            },
            {
              "pitch": 54,
              "velocity": 98,
              "position": 7.5,
              "duration": 0.3
            },
            {
              "pitch": 63,
              "velocity": 68,
              "position": 7.5,
              "duration": 0.3020833333333333
            },
            {
              "pitch": 46,
              "velocity": 102,
              "position": 7.808333333333334,
              "duration": 0.16458333333333333
            },
            {
              "pitch": 62,
              "velocity": 89,
              "position": 8,
              "duration": 0.17291666666666666
            },
            {
              "pitch": 60,
              "velocity": 76,
              "position": 8,
              "duration": 0.17708333333333334
            },
            {
              "pitch": 56,
              "velocity": 94,
              "position": 8,
              "duration": 0.17916666666666667
            },
            {
              "pitch": 65,
              "velocity": 84,
              "position": 8,
              "duration": 0.2
            },
            {
              "pitch": 65,
              "velocity": 84,
              "position": 8.308333333333334,
              "duration": 0.07291666666666667
            },
            {
              "pitch": 62,
              "velocity": 61,
              "position": 8.308333333333334,
              "duration": 0.07916666666666666
            },
            {
              "pitch": 60,
              "velocity": 81,
              "position": 8.308333333333334,
              "duration": 0.08541666666666667
            },
            {
              "pitch": 56,
              "velocity": 71,
              "position": 8.308333333333334,
              "duration": 0.13125
            },
            {
              "pitch": 62,
              "velocity": 50,
              "position": 8.5,
              "duration": 0.075
            },
            {
              "pitch": 65,
              "velocity": 74,
              "position": 8.5,
              "duration": 0.08125
            },
            {
              "pitch": 60,
              "velocity": 54,
              "position": 8.5,
              "duration": 0.09583333333333334
            },
            {
              "pitch": 56,
              "velocity": 77,
              "position": 8.5,
              "duration": 0.11458333333333333
            },
            {
              "pitch": 62,
              "velocity": 89,
              "position": 8.808333333333334,
              "duration": 0.0875
            },
            {
              "pitch": 60,
              "velocity": 87,
              "position": 8.808333333333334,
              "duration": 0.12916666666666668
            },
            {
              "pitch": 65,
              "velocity": 87,
              "position": 8.808333333333334,
              "duration": 0.13958333333333334
            },
            {
              "pitch": 56,
              "velocity": 89,
              "position": 8.808333333333334,
              "duration": 0.14583333333333334
            },
            {
              "pitch": 41,
              "velocity": 96,
              "position": 8,
              "duration": 1.1
            },
            {
              "pitch": 29,
              "velocity": 70,
              "position": 8,
              "duration": 1.1125
            },
            {
              "pitch": 38,
              "velocity": 70,
              "position": 9.808333333333334,
              "duration": 0.19166666666666668
            },
            {
              "pitch": 63,
              "velocity": 105,
              "position": 9.808333333333334,
              "duration": 0.19166666666666668
            },
            {
              "pitch": 60,
              "velocity": 91,
              "position": 9.808333333333334,
              "duration": 0.19166666666666668
            },
            {
              "pitch": 58,
              "velocity": 87,
              "position": 9.808333333333334,
              "duration": 0.19166666666666668
            },
            {
              "pitch": 54,
              "velocity": 94,
              "position": 9.808333333333334,
              "duration": 0.19166666666666668
            },
            {
              "pitch": 50,
              "velocity": 96,
              "position": 9.808333333333334,
              "duration": 0.19166666666666668
            },
            {
              "pitch": 51,
              "velocity": 98,
              "position": 10.808333333333334,
              "duration": 0.15625
            },
            {
              "pitch": 49,
              "velocity": 96,
              "position": 10.808333333333334,
              "duration": 0.19166666666666668
            },
            {
              "pitch": 37,
              "velocity": 70,
              "position": 10.808333333333334,
              "duration": 0.19166666666666668
            },
            {
              "pitch": 53,
              "velocity": 86,
              "position": 10.808333333333334,
              "duration": 0.21875
            },
            {
              "pitch": 56,
              "velocity": 87,
              "position": 10.808333333333334,
              "duration": 0.22083333333333333
            },
            {
              "pitch": 60,
              "velocity": 73,
              "position": 10.808333333333334,
              "duration": 0.22916666666666666
            },
            {
              "pitch": 36,
              "velocity": 105,
              "position": 11.808333333333334,
              "duration": 3.375
            },
            {
              "pitch": 62,
              "velocity": 89,
              "position": 11.808333333333334,
              "duration": 3.375
            },
            {
              "pitch": 59,
              "velocity": 102,
              "position": 11.808333333333334,
              "duration": 3.375
            },
            {
              "pitch": 55,
              "velocity": 102,
              "position": 11.808333333333334,
              "duration": 3.375
            },
            {
              "pitch": 51,
              "velocity": 109,
              "position": 11.808333333333334,
              "duration": 3.375
            },
            {
              "pitch": 48,
              "velocity": 96,
              "position": 11.808333333333334,
              "duration": 3.375
            }
          ]
        },
        "4": {
          "ctab": {
            "srcChannel": 4,
            "name": "Pad",
            "accType": "PAD",
            "editable": false,
            "mutedNotes": [],
            "mutedChords": [
              "1+2+5",
              "sus4",
              "1+5",
              "1+8",
              "7aug",
              "Maj7aug",
              "7(#9)",
              "7(b13)",
              "7(b9)",
              "7(13)",
              "7#11",
              "7(9)",
              "7b5",
              "7sus4",
              "7th",
              "aug",
              "Maj6(9)",
              "Maj7(9)",
              "Maj(9)",
              "Maj7#11",
              "Maj7",
              "Maj6",
              "Maj"
            ],
            "autoStart": false,
            "sourceChordNote": 0,
            "sourceChordType": "min",
            "ctb2Low": null,
            "ctb2Main": {
              "ntr": "ROOT_TRANSPOSITION",
              "ntt": "BYPASS",
              "bassOn": false,
              "chordRootUpperLimit": 7,
              "noteLowLimit": 0,
              "noteHighLimit": 79,
              "rtr": "PITCH_SHIFT"
            },
            "ctb2High": null
          },
          "notes": [
            {
              "pitch": 84,
              "velocity": 84,
              "position": 0,
              "duration": 8
            },
            {
              "pitch": 80,
              "velocity": 84,
              "position": 8,
              "duration": 1.75
            },
            {
              "pitch": 81,
              "velocity": 88,
              "position": 9.808333333333334,
              "duration": 0.9895833333333334
            },
            {
              "pitch": 80,
              "velocity": 88,
              "position": 10.808333333333334,
              "duration": 0.9895833333333334
            },
            {
              "pitch": 79,
              "velocity": 84,
              "position": 11.808333333333334,
              "duration": 3.191666666666667
            }
          ]
        },
        "5": {
          "ctab": {
            "srcChannel": 5,
            "name": "MuteGtr",
            "accType": "PHRASE1",
            "editable": true,
            "mutedNotes": [],
            "mutedChords": [
              "1+2+5",
              "sus4",
              "1+5",
              "1+8",
              "7aug",
              "Maj7aug",
              "7(#9)",
              "7(b13)",
              "7(b9)",
              "7(13)",
              "7#11",
              "7(9)",
              "7b5",
              "7sus4",
              "7th",
              "aug",
              "Maj6(9)",
              "Maj7(9)",
              "Maj(9)",
              "Maj7#11",
              "Maj7",
              "Maj6",
              "Maj"
            ],
            "autoStart": false,
            "sourceChordNote": 0,
            "sourceChordType": "min",
            "ctb2Low": null,
            "ctb2Main": {
              "ntr": "ROOT_TRANSPOSITION",
              "ntt": "BYPASS",
              "bassOn": false,
              "chordRootUpperLimit": 9,
              "noteLowLimit": 0,
              "noteHighLimit": 120,
              "rtr": "PITCH_SHIFT"
            },
            "ctb2High": null
          },
          "notes": [
            {
              "pitch": 60,
              "velocity": 38,
              "position": 0,
              "duration": 0.29583333333333334
            },
            {
              "pitch": 72,
              "velocity": 40,
              "position": 0.01875,
              "duration": 0.27708333333333335
            },
            {
              "pitch": 115,
              "velocity": 75,
              "position": 0,
              "duration": 0.3645833333333333
            },
            {
              "pitch": 60,
              "velocity": 78,
              "position": 0.32708333333333334,
              "duration": 0.16041666666666668
            },
            {
              "pitch": 72,
              "velocity": 4,
              "position": 0.30833333333333335,
              "duration": 0.17916666666666667
            },
            {
              "pitch": 114,
              "velocity": 40,
              "position": 0.30833333333333335,
              "duration": 0.19166666666666668
            },
            {
              "pitch": 60,
              "velocity": 80,
              "position": 0.5,
              "duration": 0.29583333333333334
            },
            {
              "pitch": 72,
              "velocity": 82,
              "position": 0.51875,
              "duration": 0.27708333333333335
            },
            {
              "pitch": 113,
              "velocity": 40,
              "position": 0.5,
              "duration": 0.30833333333333335
            },
            {
              "pitch": 114,
              "velocity": 75,
              "position": 0.8083333333333333,
              "duration": 0.14583333333333334
            },
            {
              "pitch": 60,
              "velocity": 38,
              "position": 0.8270833333333333,
              "duration": 0.16041666666666668
            },
            {
              "pitch": 72,
              "velocity": 40,
              "position": 0.8083333333333333,
              "duration": 0.17916666666666667
            },
            {
              "pitch": 60,
              "velocity": 63,
              "position": 1,
              "duration": 0.29583333333333334
            },
            {
              "pitch": 72,
              "velocity": 65,
              "position": 1.01875,
              "duration": 0.27708333333333335
            },
            {
              "pitch": 115,
              "velocity": 40,
              "position": 1,
              "duration": 0.30833333333333335
            },
            {
              "pitch": 72,
              "velocity": 40,
              "position": 1.3083333333333333,
              "duration": 0.17916666666666667
            },
            {
              "pitch": 60,
              "velocity": 78,
              "position": 1.3270833333333334,
              "duration": 0.1625
            },
            {
              "pitch": 114,
              "velocity": 40,
              "position": 1.3083333333333333,
              "duration": 0.19166666666666668
            },
            {
              "pitch": 115,
              "velocity": 75,
              "position": 1.5,
              "duration": 0.17708333333333334
            },
            {
              "pitch": 72,
              "velocity": 80,
              "position": 1.51875,
              "duration": 0.27708333333333335
            },
            {
              "pitch": 60,
              "velocity": 78,
              "position": 1.5,
              "duration": 0.29583333333333334
            },
            {
              "pitch": 114,
              "velocity": 75,
              "position": 1.8083333333333333,
              "duration": 0.125
            },
            {
              "pitch": 60,
              "velocity": 38,
              "position": 1.8270833333333334,
              "duration": 0.16041666666666668
            },
            {
              "pitch": 72,
              "velocity": 40,
              "position": 1.8083333333333333,
              "duration": 0.17916666666666667
            },
            {
              "pitch": 60,
              "velocity": 78,
              "position": 2,
              "duration": 0.29583333333333334
            },
            {
              "pitch": 72,
              "velocity": 80,
              "position": 2.01875,
              "duration": 0.27708333333333335
            },
            {
              "pitch": 113,
              "velocity": 40,
              "position": 2,
              "duration": 0.30833333333333335
            },
            {
              "pitch": 114,
              "velocity": 75,
              "position": 2.308333333333333,
              "duration": 0.125
            },
            {
              "pitch": 72,
              "velocity": 40,
              "position": 2.308333333333333,
              "duration": 0.15625
            },
            {
              "pitch": 60,
              "velocity": 38,
              "position": 2.3270833333333334,
              "duration": 0.15625
            },
            {
              "pitch": 60,
              "velocity": 78,
              "position": 2.5,
              "duration": 0.29583333333333334
            },
            {
              "pitch": 72,
              "velocity": 80,
              "position": 2.51875,
              "duration": 0.27708333333333335
            },
            {
              "pitch": 115,
              "velocity": 40,
              "position": 2.5,
              "duration": 0.30833333333333335
            },
            {
              "pitch": 114,
              "velocity": 75,
              "position": 2.808333333333333,
              "duration": 0.010416666666666666
            },
            {
              "pitch": 72,
              "velocity": 63,
              "position": 2.808333333333333,
              "duration": 0.17916666666666667
            },
            {
              "pitch": 60,
              "velocity": 61,
              "position": 2.8270833333333334,
              "duration": 0.16041666666666668
            },
            {
              "pitch": 115,
              "velocity": 75,
              "position": 3,
              "duration": 0.14583333333333334
            },
            {
              "pitch": 72,
              "velocity": 80,
              "position": 3.01875,
              "duration": 0.27708333333333335
            },
            {
              "pitch": 60,
              "velocity": 78,
              "position": 3,
              "duration": 0.29583333333333334
            },
            {
              "pitch": 114,
              "velocity": 75,
              "position": 3.308333333333333,
              "duration": 0.125
            },
            {
              "pitch": 72,
              "velocity": 63,
              "position": 3.308333333333333,
              "duration": 0.17916666666666667
            },
            {
              "pitch": 60,
              "velocity": 61,
              "position": 3.3270833333333334,
              "duration": 0.1625
            },
            {
              "pitch": 115,
              "velocity": 75,
              "position": 3.5,
              "duration": 0.010416666666666666
            },
            {
              "pitch": 60,
              "velocity": 78,
              "position": 3.5,
              "duration": 0.29583333333333334
            },
            {
              "pitch": 72,
              "velocity": 80,
              "position": 3.51875,
              "duration": 0.27708333333333335
            },
            {
              "pitch": 114,
              "velocity": 75,
              "position": 3.808333333333333,
              "duration": 0.010416666666666666
            },
            {
              "pitch": 72,
              "velocity": 63,
              "position": 3.808333333333333,
              "duration": 0.17916666666666667
            },
            {
              "pitch": 60,
              "velocity": 61,
              "position": 3.8270833333333334,
              "duration": 0.16041666666666668
            },
            {
              "pitch": 60,
              "velocity": 38,
              "position": 4,
              "duration": 0.29583333333333334
            },
            {
              "pitch": 72,
              "velocity": 40,
              "position": 4.01875,
              "duration": 0.27708333333333335
            },
            {
              "pitch": 115,
              "velocity": 75,
              "position": 4,
              "duration": 0.3645833333333333
            },
            {
              "pitch": 60,
              "velocity": 78,
              "position": 4.327083333333333,
              "duration": 0.16041666666666668
            },
            {
              "pitch": 72,
              "velocity": 4,
              "position": 4.308333333333334,
              "duration": 0.17916666666666667
            },
            {
              "pitch": 114,
              "velocity": 40,
              "position": 4.308333333333334,
              "duration": 0.19166666666666668
            },
            {
              "pitch": 60,
              "velocity": 80,
              "position": 4.5,
              "duration": 0.29583333333333334
            },
            {
              "pitch": 72,
              "velocity": 82,
              "position": 4.51875,
              "duration": 0.27708333333333335
            },
            {
              "pitch": 113,
              "velocity": 40,
              "position": 4.5,
              "duration": 0.30833333333333335
            },
            {
              "pitch": 114,
              "velocity": 75,
              "position": 4.808333333333334,
              "duration": 0.14583333333333334
            },
            {
              "pitch": 60,
              "velocity": 38,
              "position": 4.827083333333333,
              "duration": 0.16041666666666668
            },
            {
              "pitch": 72,
              "velocity": 40,
              "position": 4.808333333333334,
              "duration": 0.17916666666666667
            },
            {
              "pitch": 60,
              "velocity": 63,
              "position": 5,
              "duration": 0.29583333333333334
            },
            {
              "pitch": 72,
              "velocity": 65,
              "position": 5.01875,
              "duration": 0.27708333333333335
            },
            {
              "pitch": 115,
              "velocity": 40,
              "position": 5,
              "duration": 0.30833333333333335
            },
            {
              "pitch": 72,
              "velocity": 40,
              "position": 5.308333333333334,
              "duration": 0.17916666666666667
            },
            {
              "pitch": 60,
              "velocity": 78,
              "position": 5.327083333333333,
              "duration": 0.1625
            },
            {
              "pitch": 114,
              "velocity": 40,
              "position": 5.308333333333334,
              "duration": 0.19166666666666668
            },
            {
              "pitch": 115,
              "velocity": 75,
              "position": 5.5,
              "duration": 0.17708333333333334
            },
            {
              "pitch": 72,
              "velocity": 80,
              "position": 5.51875,
              "duration": 0.27708333333333335
            },
            {
              "pitch": 60,
              "velocity": 78,
              "position": 5.5,
              "duration": 0.29583333333333334
            },
            {
              "pitch": 114,
              "velocity": 75,
              "position": 5.808333333333334,
              "duration": 0.125
            },
            {
              "pitch": 60,
              "velocity": 38,
              "position": 5.827083333333333,
              "duration": 0.16041666666666668
            },
            {
              "pitch": 72,
              "velocity": 40,
              "position": 5.808333333333334,
              "duration": 0.17916666666666667
            },
            {
              "pitch": 60,
              "velocity": 78,
              "position": 6,
              "duration": 0.29583333333333334
            },
            {
              "pitch": 72,
              "velocity": 80,
              "position": 6.01875,
              "duration": 0.27708333333333335
            },
            {
              "pitch": 113,
              "velocity": 40,
              "position": 6,
              "duration": 0.30833333333333335
            },
            {
              "pitch": 72,
              "velocity": 40,
              "position": 6.308333333333334,
              "duration": 0.020833333333333332
            },
            {
              "pitch": 60,
              "velocity": 38,
              "position": 6.327083333333333,
              "duration": 0.020833333333333332
            },
            {
              "pitch": 114,
              "velocity": 75,
              "position": 6.308333333333334,
              "duration": 0.125
            },
            {
              "pitch": 60,
              "velocity": 78,
              "position": 6.5,
              "duration": 0.29583333333333334
            },
            {
              "pitch": 72,
              "velocity": 80,
              "position": 6.51875,
              "duration": 0.27708333333333335
            },
            {
              "pitch": 115,
              "velocity": 40,
              "position": 6.5,
              "duration": 0.30833333333333335
            },
            {
              "pitch": 114,
              "velocity": 75,
              "position": 6.808333333333334,
              "duration": 0.010416666666666666
            },
            {
              "pitch": 72,
              "velocity": 63,
              "position": 6.808333333333334,
              "duration": 0.17916666666666667
            },
            {
              "pitch": 60,
              "velocity": 61,
              "position": 6.827083333333333,
              "duration": 0.16041666666666668
            },
            {
              "pitch": 115,
              "velocity": 75,
              "position": 7,
              "duration": 0.14583333333333334
            },
            {
              "pitch": 72,
              "velocity": 80,
              "position": 7.01875,
              "duration": 0.27708333333333335
            },
            {
              "pitch": 60,
              "velocity": 78,
              "position": 7,
              "duration": 0.29583333333333334
            },
            {
              "pitch": 114,
              "velocity": 75,
              "position": 7.308333333333334,
              "duration": 0.125
            },
            {
              "pitch": 72,
              "velocity": 63,
              "position": 7.308333333333334,
              "duration": 0.17916666666666667
            },
            {
              "pitch": 60,
              "velocity": 61,
              "position": 7.327083333333333,
              "duration": 0.1625
            },
            {
              "pitch": 115,
              "velocity": 75,
              "position": 7.5,
              "duration": 0.010416666666666666
            },
            {
              "pitch": 60,
              "velocity": 78,
              "position": 7.5,
              "duration": 0.29583333333333334
            },
            {
              "pitch": 72,
              "velocity": 80,
              "position": 7.51875,
              "duration": 0.27708333333333335
            },
            {
              "pitch": 114,
              "velocity": 75,
              "position": 7.808333333333334,
              "duration": 0.010416666666666666
            },
            {
              "pitch": 72,
              "velocity": 63,
              "position": 7.808333333333334,
              "duration": 0.17916666666666667
            },
            {
              "pitch": 60,
              "velocity": 61,
              "position": 7.827083333333333,
              "duration": 0.16041666666666668
            },
            {
              "pitch": 56,
              "velocity": 38,
              "position": 8,
              "duration": 0.29583333333333334
            },
            {
              "pitch": 68,
              "velocity": 40,
              "position": 8.01875,
              "duration": 0.27708333333333335
            },
            {
              "pitch": 115,
              "velocity": 75,
              "position": 8,
              "duration": 0.3645833333333333
            },
            {
              "pitch": 56,
              "velocity": 78,
              "position": 8.327083333333333,
              "duration": 0.16041666666666668
            },
            {
              "pitch": 68,
              "velocity": 4,
              "position": 8.308333333333334,
              "duration": 0.17916666666666667
            },
            {
              "pitch": 114,
              "velocity": 40,
              "position": 8.308333333333334,
              "duration": 0.19166666666666668
            },
            {
              "pitch": 56,
              "velocity": 80,
              "position": 8.5,
              "duration": 0.29583333333333334
            },
            {
              "pitch": 68,
              "velocity": 82,
              "position": 8.51875,
              "duration": 0.27708333333333335
            },
            {
              "pitch": 113,
              "velocity": 40,
              "position": 8.5,
              "duration": 0.30833333333333335
            },
            {
              "pitch": 114,
              "velocity": 75,
              "position": 8.808333333333334,
              "duration": 0.14583333333333334
            },
            {
              "pitch": 56,
              "velocity": 38,
              "position": 8.827083333333333,
              "duration": 0.16041666666666668
            },
            {
              "pitch": 68,
              "velocity": 40,
              "position": 8.808333333333334,
              "duration": 0.17916666666666667
            },
            {
              "pitch": 56,
              "velocity": 63,
              "position": 9,
              "duration": 0.29583333333333334
            },
            {
              "pitch": 68,
              "velocity": 65,
              "position": 9.01875,
              "duration": 0.27708333333333335
            },
            {
              "pitch": 115,
              "velocity": 40,
              "position": 9,
              "duration": 0.30833333333333335
            },
            {
              "pitch": 56,
              "velocity": 78,
              "position": 9.327083333333333,
              "duration": 0.1625
            },
            {
              "pitch": 114,
              "velocity": 40,
              "position": 9.308333333333334,
              "duration": 0.19166666666666668
            },
            {
              "pitch": 115,
              "velocity": 75,
              "position": 9.5,
              "duration": 0.17708333333333334
            },
            {
              "pitch": 68,
              "velocity": 80,
              "position": 9.51875,
              "duration": 0.27708333333333335
            },
            {
              "pitch": 56,
              "velocity": 78,
              "position": 9.5,
              "duration": 0.29583333333333334
            },
            {
              "pitch": 114,
              "velocity": 75,
              "position": 9.808333333333334,
              "duration": 0.125
            },
            {
              "pitch": 57,
              "velocity": 38,
              "position": 9.827083333333333,
              "duration": 0.16041666666666668
            },
            {
              "pitch": 69,
              "velocity": 40,
              "position": 9.808333333333334,
              "duration": 0.17916666666666667
            },
            {
              "pitch": 114,
              "velocity": 75,
              "position": 10.308333333333334,
              "duration": 0.125
            },
            {
              "pitch": 115,
              "velocity": 40,
              "position": 10.5,
              "duration": 0.30833333333333335
            },
            {
              "pitch": 114,
              "velocity": 75,
              "position": 10.808333333333334,
              "duration": 0.010416666666666666
            },
            {
              "pitch": 68,
              "velocity": 40,
              "position": 10.808333333333334,
              "duration": 0.17916666666666667
            },
            {
              "pitch": 56,
              "velocity": 38,
              "position": 10.827083333333333,
              "duration": 0.16041666666666668
            },
            {
              "pitch": 114,
              "velocity": 75,
              "position": 11.308333333333334,
              "duration": 0.125
            },
            {
              "pitch": 68,
              "velocity": 63,
              "position": 11.308333333333334,
              "duration": 0.17916666666666667
            },
            {
              "pitch": 56,
              "velocity": 61,
              "position": 11.327083333333333,
              "duration": 0.1625
            },
            {
              "pitch": 115,
              "velocity": 75,
              "position": 11.5,
              "duration": 0.010416666666666666
            },
            {
              "pitch": 56,
              "velocity": 78,
              "position": 11.5,
              "duration": 0.29583333333333334
            },
            {
              "pitch": 68,
              "velocity": 80,
              "position": 11.51875,
              "duration": 0.27708333333333335
            },
            {
              "pitch": 114,
              "velocity": 75,
              "position": 11.808333333333334,
              "duration": 0.010416666666666666
            },
            {
              "pitch": 67,
              "velocity": 57,
              "position": 11.808333333333334,
              "duration": 3.245833333333333
            },
            {
              "pitch": 55,
              "velocity": 55,
              "position": 11.827083333333333,
              "duration": 3.2270833333333333
            }
          ]
        },
        "6": {
          "ctab": {
            "srcChannel": 6,
            "name": "brass",
            "accType": "PHRASE2",
            "editable": false,
            "mutedNotes": [],
            "mutedChords": [
              "1+2+5",
              "sus4",
              "1+5",
              "1+8",
              "7aug",
              "Maj7aug",
              "7(#9)",
              "7(b13)",
              "7(b9)",
              "7(13)",
              "7#11",
              "7(9)",
              "7b5",
              "7sus4",
              "7th",
              "aug",
              "Maj6(9)",
              "Maj7(9)",
              "Maj(9)",
              "Maj7#11",
              "Maj7",
              "Maj6",
              "Maj"
            ],
            "autoStart": false,
            "sourceChordNote": 0,
            "sourceChordType": "min",
            "ctb2Low": null,
            "ctb2Main": {
              "ntr": "ROOT_TRANSPOSITION",
              "ntt": "BYPASS",
              "bassOn": false,
              "chordRootUpperLimit": 7,
              "noteLowLimit": 0,
              "noteHighLimit": 127,
              "rtr": "PITCH_SHIFT"
            },
            "ctb2High": null
          },
          "notes": [
            {
              "pitch": 63,
              "velocity": 81,
              "position": 0,
              "duration": 0.3020833333333333
            },
            {
              "pitch": 72,
              "velocity": 85,
              "position": 0,
              "duration": 0.3020833333333333
            },
            {
              "pitch": 70,
              "velocity": 81,
              "position": 0,
              "duration": 0.3020833333333333
            },
            {
              "pitch": 67,
              "velocity": 81,
              "position": 0,
              "duration": 0.3020833333333333
            },
            {
              "pitch": 63,
              "velocity": 51,
              "position": 0.30833333333333335,
              "duration": 0.18541666666666667
            },
            {
              "pitch": 72,
              "velocity": 55,
              "position": 0.30833333333333335,
              "duration": 0.18541666666666667
            },
            {
              "pitch": 70,
              "velocity": 51,
              "position": 0.30833333333333335,
              "duration": 0.18541666666666667
            },
            {
              "pitch": 67,
              "velocity": 51,
              "position": 0.30833333333333335,
              "duration": 0.18541666666666667
            },
            {
              "pitch": 63,
              "velocity": 111,
              "position": 0.5,
              "duration": 0.3020833333333333
            },
            {
              "pitch": 72,
              "velocity": 115,
              "position": 0.5,
              "duration": 0.3020833333333333
            },
            {
              "pitch": 70,
              "velocity": 111,
              "position": 0.5,
              "duration": 0.3020833333333333
            },
            {
              "pitch": 67,
              "velocity": 111,
              "position": 0.5,
              "duration": 0.3020833333333333
            },
            {
              "pitch": 63,
              "velocity": 81,
              "position": 0.8083333333333333,
              "duration": 0.21041666666666667
            },
            {
              "pitch": 72,
              "velocity": 85,
              "position": 0.8083333333333333,
              "duration": 0.21041666666666667
            },
            {
              "pitch": 70,
              "velocity": 81,
              "position": 0.8083333333333333,
              "duration": 0.21041666666666667
            },
            {
              "pitch": 67,
              "velocity": 81,
              "position": 0.8083333333333333,
              "duration": 0.21041666666666667
            },
            {
              "pitch": 63,
              "velocity": 81,
              "position": 1.2875,
              "duration": 0.21041666666666667
            },
            {
              "pitch": 74,
              "velocity": 85,
              "position": 1.2875,
              "duration": 0.21041666666666667
            },
            {
              "pitch": 70,
              "velocity": 81,
              "position": 1.2875,
              "duration": 0.21041666666666667
            },
            {
              "pitch": 67,
              "velocity": 81,
              "position": 1.2875,
              "duration": 0.21041666666666667
            },
            {
              "pitch": 70,
              "velocity": 81,
              "position": 1.7875,
              "duration": 0.16666666666666666
            },
            {
              "pitch": 75,
              "velocity": 85,
              "position": 1.7875,
              "duration": 0.21041666666666667
            },
            {
              "pitch": 72,
              "velocity": 81,
              "position": 1.7875,
              "duration": 0.21041666666666667
            },
            {
              "pitch": 67,
              "velocity": 81,
              "position": 1.7875,
              "duration": 0.21041666666666667
            },
            {
              "pitch": 67,
              "velocity": 48,
              "position": 2.2875,
              "duration": 0.18125
            },
            {
              "pitch": 75,
              "velocity": 85,
              "position": 2.2875,
              "duration": 0.18125
            },
            {
              "pitch": 72,
              "velocity": 48,
              "position": 2.2875,
              "duration": 0.18125
            },
            {
              "pitch": 70,
              "velocity": 85,
              "position": 2.2875,
              "duration": 0.18125
            },
            {
              "pitch": 74,
              "velocity": 85,
              "position": 2.4791666666666665,
              "duration": 0.49375
            },
            {
              "pitch": 63,
              "velocity": 81,
              "position": 2.9791666666666665,
              "duration": 0.4895833333333333
            },
            {
              "pitch": 72,
              "velocity": 85,
              "position": 2.9791666666666665,
              "duration": 0.4895833333333333
            },
            {
              "pitch": 70,
              "velocity": 81,
              "position": 2.9791666666666665,
              "duration": 0.4895833333333333
            },
            {
              "pitch": 67,
              "velocity": 81,
              "position": 2.9791666666666665,
              "duration": 0.4895833333333333
            },
            {
              "pitch": 63,
              "velocity": 81,
              "position": 3.4791666666666665,
              "duration": 0.4895833333333333
            },
            {
              "pitch": 74,
              "velocity": 85,
              "position": 3.4791666666666665,
              "duration": 0.4895833333333333
            },
            {
              "pitch": 70,
              "velocity": 81,
              "position": 3.4791666666666665,
              "duration": 0.4895833333333333
            },
            {
              "pitch": 67,
              "velocity": 81,
              "position": 3.4791666666666665,
              "duration": 0.4895833333333333
            },
            {
              "pitch": 63,
              "velocity": 81,
              "position": 3.9791666666666665,
              "duration": 0.3020833333333333
            },
            {
              "pitch": 72,
              "velocity": 85,
              "position": 3.9791666666666665,
              "duration": 0.3020833333333333
            },
            {
              "pitch": 70,
              "velocity": 81,
              "position": 3.9791666666666665,
              "duration": 0.3020833333333333
            },
            {
              "pitch": 66,
              "velocity": 81,
              "position": 3.9791666666666665,
              "duration": 0.3020833333333333
            },
            {
              "pitch": 63,
              "velocity": 51,
              "position": 4.2875,
              "duration": 0.18541666666666667
            },
            {
              "pitch": 72,
              "velocity": 55,
              "position": 4.2875,
              "duration": 0.18541666666666667
            },
            {
              "pitch": 70,
              "velocity": 51,
              "position": 4.2875,
              "duration": 0.18541666666666667
            },
            {
              "pitch": 66,
              "velocity": 51,
              "position": 4.2875,
              "duration": 0.18541666666666667
            },
            {
              "pitch": 63,
              "velocity": 111,
              "position": 4.479166666666667,
              "duration": 0.3020833333333333
            },
            {
              "pitch": 72,
              "velocity": 115,
              "position": 4.479166666666667,
              "duration": 0.3020833333333333
            },
            {
              "pitch": 70,
              "velocity": 111,
              "position": 4.479166666666667,
              "duration": 0.3020833333333333
            },
            {
              "pitch": 66,
              "velocity": 111,
              "position": 4.479166666666667,
              "duration": 0.3020833333333333
            },
            {
              "pitch": 63,
              "velocity": 81,
              "position": 4.7875,
              "duration": 0.21041666666666667
            },
            {
              "pitch": 72,
              "velocity": 85,
              "position": 4.7875,
              "duration": 0.21041666666666667
            },
            {
              "pitch": 70,
              "velocity": 81,
              "position": 4.7875,
              "duration": 0.21041666666666667
            },
            {
              "pitch": 66,
              "velocity": 81,
              "position": 4.7875,
              "duration": 0.21041666666666667
            },
            {
              "pitch": 63,
              "velocity": 81,
              "position": 5.2875,
              "duration": 0.21041666666666667
            },
            {
              "pitch": 74,
              "velocity": 85,
              "position": 5.2875,
              "duration": 0.21041666666666667
            },
            {
              "pitch": 70,
              "velocity": 81,
              "position": 5.2875,
              "duration": 0.21041666666666667
            },
            {
              "pitch": 66,
              "velocity": 81,
              "position": 5.2875,
              "duration": 0.21041666666666667
            },
            {
              "pitch": 72,
              "velocity": 81,
              "position": 5.7875,
              "duration": 0.1875
            },
            {
              "pitch": 75,
              "velocity": 85,
              "position": 5.7875,
              "duration": 0.21041666666666667
            },
            {
              "pitch": 66,
              "velocity": 81,
              "position": 5.7875,
              "duration": 0.21041666666666667
            },
            {
              "pitch": 70,
              "velocity": 81,
              "position": 5.7875,
              "duration": 0.21041666666666667
            },
            {
              "pitch": 74,
              "velocity": 85,
              "position": 6.479166666666667,
              "duration": 0.3333333333333333
            },
            {
              "pitch": 75,
              "velocity": 118,
              "position": 6.8125,
              "duration": 0.08333333333333333
            },
            {
              "pitch": 63,
              "velocity": 81,
              "position": 6.479166666666667,
              "duration": 0.4895833333333333
            },
            {
              "pitch": 66,
              "velocity": 81,
              "position": 6.479166666666667,
              "duration": 0.4895833333333333
            },
            {
              "pitch": 70,
              "velocity": 81,
              "position": 6.479166666666667,
              "duration": 0.4895833333333333
            },
            {
              "pitch": 76,
              "velocity": 114,
              "position": 6.895833333333333,
              "duration": 0.08333333333333333
            },
            {
              "pitch": 66,
              "velocity": 81,
              "position": 6.979166666666667,
              "duration": 0.4895833333333333
            },
            {
              "pitch": 74,
              "velocity": 81,
              "position": 6.979166666666667,
              "duration": 0.4895833333333333
            },
            {
              "pitch": 70,
              "velocity": 81,
              "position": 6.979166666666667,
              "duration": 0.4895833333333333
            },
            {
              "pitch": 63,
              "velocity": 81,
              "position": 7.479166666666667,
              "duration": 0.4895833333333333
            },
            {
              "pitch": 74,
              "velocity": 85,
              "position": 7.479166666666667,
              "duration": 0.4895833333333333
            },
            {
              "pitch": 70,
              "velocity": 81,
              "position": 7.479166666666667,
              "duration": 0.4895833333333333
            },
            {
              "pitch": 66,
              "velocity": 81,
              "position": 7.479166666666667,
              "duration": 0.4895833333333333
            },
            {
              "pitch": 63,
              "velocity": 81,
              "position": 7.979166666666667,
              "duration": 0.3020833333333333
            },
            {
              "pitch": 72,
              "velocity": 85,
              "position": 7.979166666666667,
              "duration": 0.3020833333333333
            },
            {
              "pitch": 68,
              "velocity": 81,
              "position": 7.979166666666667,
              "duration": 0.3020833333333333
            },
            {
              "pitch": 67,
              "velocity": 81,
              "position": 7.979166666666667,
              "duration": 0.3020833333333333
            },
            {
              "pitch": 63,
              "velocity": 51,
              "position": 8.2875,
              "duration": 0.18541666666666667
            },
            {
              "pitch": 72,
              "velocity": 55,
              "position": 8.2875,
              "duration": 0.18541666666666667
            },
            {
              "pitch": 68,
              "velocity": 51,
              "position": 8.2875,
              "duration": 0.18541666666666667
            },
            {
              "pitch": 67,
              "velocity": 51,
              "position": 8.2875,
              "duration": 0.18541666666666667
            },
            {
              "pitch": 63,
              "velocity": 111,
              "position": 8.479166666666666,
              "duration": 0.3020833333333333
            },
            {
              "pitch": 72,
              "velocity": 115,
              "position": 8.479166666666666,
              "duration": 0.3020833333333333
            },
            {
              "pitch": 68,
              "velocity": 111,
              "position": 8.479166666666666,
              "duration": 0.3020833333333333
            },
            {
              "pitch": 67,
              "velocity": 111,
              "position": 8.479166666666666,
              "duration": 0.3020833333333333
            },
            {
              "pitch": 63,
              "velocity": 81,
              "position": 8.7875,
              "duration": 0.21041666666666667
            },
            {
              "pitch": 72,
              "velocity": 85,
              "position": 8.7875,
              "duration": 0.21041666666666667
            },
            {
              "pitch": 68,
              "velocity": 81,
              "position": 8.7875,
              "duration": 0.21041666666666667
            },
            {
              "pitch": 67,
              "velocity": 81,
              "position": 8.7875,
              "duration": 0.21041666666666667
            },
            {
              "pitch": 69,
              "velocity": 81,
              "position": 9.7875,
              "duration": 0.20833333333333334
            },
            {
              "pitch": 75,
              "velocity": 85,
              "position": 9.7875,
              "duration": 0.21041666666666667
            },
            {
              "pitch": 72,
              "velocity": 81,
              "position": 9.7875,
              "duration": 0.21041666666666667
            },
            {
              "pitch": 66,
              "velocity": 81,
              "position": 9.7875,
              "duration": 0.21041666666666667
            },
            {
              "pitch": 61,
              "velocity": 81,
              "position": 10.7875,
              "duration": 0.21041666666666667
            },
            {
              "pitch": 72,
              "velocity": 85,
              "position": 10.7875,
              "duration": 0.21041666666666667
            },
            {
              "pitch": 68,
              "velocity": 81,
              "position": 10.7875,
              "duration": 0.21041666666666667
            },
            {
              "pitch": 65,
              "velocity": 81,
              "position": 10.7875,
              "duration": 0.21041666666666667
            },
            {
              "pitch": 63,
              "velocity": 81,
              "position": 11.7875,
              "duration": 3.410416666666667
            },
            {
              "pitch": 74,
              "velocity": 85,
              "position": 11.7875,
              "duration": 3.410416666666667
            },
            {
              "pitch": 71,
              "velocity": 81,
              "position": 11.7875,
              "duration": 3.410416666666667
            },
            {
              "pitch": 67,
              "velocity": 81,
              "position": 11.7875,
              "duration": 3.410416666666667
            }
          ]
        },
        "8": {
          "ctab": {
            "srcChannel": 8,
            "name": "Rhyth1",
            "accType": "SUBRHYTHM",
            "editable": false,
            "mutedNotes": [],
            "mutedChords": [],
            "autoStart": true,
            "sourceChordNote": 0,
            "sourceChordType": "Maj7",
            "ctb2Low": null,
            "ctb2Main": {
              "ntr": "ROOT_FIXED",
              "ntt": "BYPASS",
              "bassOn": false,
              "chordRootUpperLimit": 6,
              "noteLowLimit": 0,
              "noteHighLimit": 127,
              "rtr": "PITCH_SHIFT"
            },
            "ctb2High": null
          },
          "notes": [
            {
              "pitch": 54,
              "velocity": 12,
              "position": 0,
              "duration": 0.010416666666666666
            },
            {
              "pitch": 54,
              "velocity": 72,
              "position": 0.5,
              "duration": 0.010416666666666666
            },
            {
              "pitch": 62,
              "velocity": 91,
              "position": 0.5,
              "duration": 0.010416666666666666
            },
            {
              "pitch": 54,
              "velocity": 72,
              "position": 1.5,
              "duration": 0.010416666666666666
            },
            {
              "pitch": 64,
              "velocity": 78,
              "position": 1.5,
              "duration": 0.010416666666666666
            },
            {
              "pitch": 64,
              "velocity": 64,
              "position": 1.8020833333333333,
              "duration": 0.010416666666666666
            },
            {
              "pitch": 54,
              "velocity": 72,
              "position": 2.5,
              "duration": 0.010416666666666666
            },
            {
              "pitch": 62,
              "velocity": 91,
              "position": 2.5,
              "duration": 0.010416666666666666
            },
            {
              "pitch": 54,
              "velocity": 72,
              "position": 3.5,
              "duration": 0.010416666666666666
            },
            {
              "pitch": 63,
              "velocity": 88,
              "position": 3.5,
              "duration": 0.010416666666666666
            },
            {
              "pitch": 63,
              "velocity": 74,
              "position": 3.8020833333333335,
              "duration": 0.010416666666666666
            },
            {
              "pitch": 54,
              "velocity": 12,
              "position": 4,
              "duration": 0.010416666666666666
            },
            {
              "pitch": 54,
              "velocity": 72,
              "position": 4.5,
              "duration": 0.010416666666666666
            },
            {
              "pitch": 62,
              "velocity": 91,
              "position": 4.5,
              "duration": 0.010416666666666666
            },
            {
              "pitch": 54,
              "velocity": 72,
              "position": 5.5,
              "duration": 0.010416666666666666
            },
            {
              "pitch": 64,
              "velocity": 78,
              "position": 5.5,
              "duration": 0.010416666666666666
            },
            {
              "pitch": 64,
              "velocity": 64,
              "position": 5.802083333333333,
              "duration": 0.010416666666666666
            },
            {
              "pitch": 54,
              "velocity": 72,
              "position": 6.5,
              "duration": 0.010416666666666666
            },
            {
              "pitch": 62,
              "velocity": 91,
              "position": 6.5,
              "duration": 0.010416666666666666
            },
            {
              "pitch": 54,
              "velocity": 72,
              "position": 7.5,
              "duration": 0.010416666666666666
            },
            {
              "pitch": 63,
              "velocity": 88,
              "position": 7.5,
              "duration": 0.010416666666666666
            },
            {
              "pitch": 63,
              "velocity": 74,
              "position": 7.802083333333333,
              "duration": 0.010416666666666666
            },
            {
              "pitch": 54,
              "velocity": 12,
              "position": 8,
              "duration": 0.010416666666666666
            },
            {
              "pitch": 54,
              "velocity": 72,
              "position": 8.5,
              "duration": 0.010416666666666666
            },
            {
              "pitch": 62,
              "velocity": 91,
              "position": 8.5,
              "duration": 0.010416666666666666
            },
            {
              "pitch": 54,
              "velocity": 72,
              "position": 9.5,
              "duration": 0.010416666666666666
            },
            {
              "pitch": 64,
              "velocity": 78,
              "position": 9.5,
              "duration": 0.010416666666666666
            },
            {
              "pitch": 64,
              "velocity": 64,
              "position": 9.802083333333334,
              "duration": 0.010416666666666666
            },
            {
              "pitch": 54,
              "velocity": 72,
              "position": 10.5,
              "duration": 0.010416666666666666
            },
            {
              "pitch": 62,
              "velocity": 91,
              "position": 10.5,
              "duration": 0.010416666666666666
            },
            {
              "pitch": 54,
              "velocity": 72,
              "position": 11.5,
              "duration": 0.010416666666666666
            },
            {
              "pitch": 63,
              "velocity": 88,
              "position": 11.5,
              "duration": 0.010416666666666666
            },
            {
              "pitch": 63,
              "velocity": 74,
              "position": 11.802083333333334,
              "duration": 0.010416666666666666
            }
          ]
        },
        "9": {
          "ctab": {
            "srcChannel": 9,
            "name": "Rhyth2",
            "accType": "RHYTHM",
            "editable": false,
            "mutedNotes": [],
            "mutedChords": [],
            "autoStart": true,
            "sourceChordNote": 0,
            "sourceChordType": "Maj7",
            "ctb2Low": null,
            "ctb2Main": {
              "ntr": "ROOT_FIXED",
              "ntt": "BYPASS",
              "bassOn": false,
              "chordRootUpperLimit": 6,
              "noteLowLimit": 0,
              "noteHighLimit": 127,
              "rtr": "PITCH_SHIFT"
            },
            "ctb2High": null
          },
          "notes": [
            {
              "pitch": 36,
              "velocity": 99,
              "position": 0,
              "duration": 0.020833333333333332
            },
            {
              "pitch": 57,
              "velocity": 70,
              "position": 0,
              "duration": 0.020833333333333332
            },
            {
              "pitch": 38,
              "velocity": 24,
              "position": 0.3125,
              "duration": 0.020833333333333332
            },
            {
              "pitch": 36,
              "velocity": 34,
              "position": 0.5,
              "duration": 0.020833333333333332
            },
            {
              "pitch": 53,
              "velocity": 74,
              "position": 0.5,
              "duration": 0.020833333333333332
            },
            {
              "pitch": 44,
              "velocity": 64,
              "position": 0.5,
              "duration": 0.020833333333333332
            },
            {
              "pitch": 36,
              "velocity": 38,
              "position": 0.8125,
              "duration": 0.020833333333333332
            },
            {
              "pitch": 38,
              "velocity": 32,
              "position": 0.8125,
              "duration": 0.020833333333333332
            },
            {
              "pitch": 38,
              "velocity": 110,
              "position": 1,
              "duration": 0.020833333333333332
            },
            {
              "pitch": 51,
              "velocity": 72,
              "position": 1,
              "duration": 0.020833333333333332
            },
            {
              "pitch": 44,
              "velocity": 64,
              "position": 1.5,
              "duration": 0.020833333333333332
            },
            {
              "pitch": 53,
              "velocity": 74,
              "position": 1.5,
              "duration": 0.020833333333333332
            },
            {
              "pitch": 36,
              "velocity": 30,
              "position": 1.8125,
              "duration": 0.020833333333333332
            },
            {
              "pitch": 38,
              "velocity": 32,
              "position": 1.8125,
              "duration": 0.020833333333333332
            },
            {
              "pitch": 36,
              "velocity": 95,
              "position": 2,
              "duration": 0.020833333333333332
            },
            {
              "pitch": 51,
              "velocity": 72,
              "position": 2,
              "duration": 0.020833333333333332
            },
            {
              "pitch": 38,
              "velocity": 24,
              "position": 2.3125,
              "duration": 0.020833333333333332
            },
            {
              "pitch": 44,
              "velocity": 64,
              "position": 2.5,
              "duration": 0.020833333333333332
            },
            {
              "pitch": 53,
              "velocity": 74,
              "position": 2.5,
              "duration": 0.020833333333333332
            },
            {
              "pitch": 36,
              "velocity": 36,
              "position": 2.8125,
              "duration": 0.020833333333333332
            },
            {
              "pitch": 38,
              "velocity": 32,
              "position": 2.8125,
              "duration": 0.020833333333333332
            },
            {
              "pitch": 38,
              "velocity": 110,
              "position": 3,
              "duration": 0.020833333333333332
            },
            {
              "pitch": 51,
              "velocity": 72,
              "position": 3,
              "duration": 0.020833333333333332
            },
            {
              "pitch": 38,
              "velocity": 24,
              "position": 3.3125,
              "duration": 0.020833333333333332
            },
            {
              "pitch": 44,
              "velocity": 64,
              "position": 3.5,
              "duration": 0.020833333333333332
            },
            {
              "pitch": 53,
              "velocity": 74,
              "position": 3.5,
              "duration": 0.020833333333333332
            },
            {
              "pitch": 38,
              "velocity": 32,
              "position": 3.8125,
              "duration": 0.020833333333333332
            },
            {
              "pitch": 36,
              "velocity": 99,
              "position": 4,
              "duration": 0.020833333333333332
            },
            {
              "pitch": 57,
              "velocity": 70,
              "position": 4,
              "duration": 0.020833333333333332
            },
            {
              "pitch": 38,
              "velocity": 24,
              "position": 4.3125,
              "duration": 0.020833333333333332
            },
            {
              "pitch": 36,
              "velocity": 34,
              "position": 4.5,
              "duration": 0.020833333333333332
            },
            {
              "pitch": 53,
              "velocity": 74,
              "position": 4.5,
              "duration": 0.020833333333333332
            },
            {
              "pitch": 44,
              "velocity": 64,
              "position": 4.5,
              "duration": 0.020833333333333332
            },
            {
              "pitch": 36,
              "velocity": 38,
              "position": 4.8125,
              "duration": 0.020833333333333332
            },
            {
              "pitch": 38,
              "velocity": 32,
              "position": 4.8125,
              "duration": 0.020833333333333332
            },
            {
              "pitch": 38,
              "velocity": 110,
              "position": 5,
              "duration": 0.020833333333333332
            },
            {
              "pitch": 51,
              "velocity": 72,
              "position": 5,
              "duration": 0.020833333333333332
            },
            {
              "pitch": 44,
              "velocity": 64,
              "position": 5.5,
              "duration": 0.020833333333333332
            },
            {
              "pitch": 53,
              "velocity": 74,
              "position": 5.5,
              "duration": 0.020833333333333332
            },
            {
              "pitch": 36,
              "velocity": 30,
              "position": 5.8125,
              "duration": 0.020833333333333332
            },
            {
              "pitch": 38,
              "velocity": 32,
              "position": 5.8125,
              "duration": 0.020833333333333332
            },
            {
              "pitch": 36,
              "velocity": 95,
              "position": 6,
              "duration": 0.020833333333333332
            },
            {
              "pitch": 51,
              "velocity": 72,
              "position": 6,
              "duration": 0.020833333333333332
            },
            {
              "pitch": 38,
              "velocity": 24,
              "position": 6.3125,
              "duration": 0.020833333333333332
            },
            {
              "pitch": 44,
              "velocity": 64,
              "position": 6.5,
              "duration": 0.020833333333333332
            },
            {
              "pitch": 53,
              "velocity": 74,
              "position": 6.5,
              "duration": 0.020833333333333332
            },
            {
              "pitch": 36,
              "velocity": 36,
              "position": 6.8125,
              "duration": 0.020833333333333332
            },
            {
              "pitch": 38,
              "velocity": 32,
              "position": 6.8125,
              "duration": 0.020833333333333332
            },
            {
              "pitch": 38,
              "velocity": 110,
              "position": 7,
              "duration": 0.020833333333333332
            },
            {
              "pitch": 51,
              "velocity": 72,
              "position": 7,
              "duration": 0.020833333333333332
            },
            {
              "pitch": 38,
              "velocity": 24,
              "position": 7.3125,
              "duration": 0.020833333333333332
            },
            {
              "pitch": 44,
              "velocity": 64,
              "position": 7.5,
              "duration": 0.020833333333333332
            },
            {
              "pitch": 53,
              "velocity": 74,
              "position": 7.5,
              "duration": 0.020833333333333332
            },
            {
              "pitch": 38,
              "velocity": 32,
              "position": 7.8125,
              "duration": 0.020833333333333332
            },
            {
              "pitch": 36,
              "velocity": 99,
              "position": 8,
              "duration": 0.020833333333333332
            },
            {
              "pitch": 49,
              "velocity": 70,
              "position": 8,
              "duration": 0.020833333333333332
            },
            {
              "pitch": 38,
              "velocity": 24,
              "position": 8.3125,
              "duration": 0.020833333333333332
            },
            {
              "pitch": 38,
              "velocity": 101,
              "position": 8.5,
              "duration": 0.020833333333333332
            },
            {
              "pitch": 53,
              "velocity": 74,
              "position": 8.5,
              "duration": 0.020833333333333332
            },
            {
              "pitch": 44,
              "velocity": 64,
              "position": 8.5,
              "duration": 0.020833333333333332
            },
            {
              "pitch": 36,
              "velocity": 88,
              "position": 8.808333333333334,
              "duration": 0.020833333333333332
            },
            {
              "pitch": 52,
              "velocity": 62,
              "position": 8.808333333333334,
              "duration": 0.020833333333333332
            },
            {
              "pitch": 38,
              "velocity": 57,
              "position": 9.166666666666666,
              "duration": 0.020833333333333332
            },
            {
              "pitch": 50,
              "velocity": 66,
              "position": 9.333333333333334,
              "duration": 0.020833333333333332
            },
            {
              "pitch": 44,
              "velocity": 64,
              "position": 9.5,
              "duration": 0.020833333333333332
            },
            {
              "pitch": 48,
              "velocity": 76,
              "position": 9.5,
              "duration": 0.020833333333333332
            },
            {
              "pitch": 45,
              "velocity": 82,
              "position": 9.666666666666666,
              "duration": 0.020833333333333332
            },
            {
              "pitch": 36,
              "velocity": 95,
              "position": 9.808333333333334,
              "duration": 0.020833333333333332
            },
            {
              "pitch": 38,
              "velocity": 9,
              "position": 10.154166666666667,
              "duration": 0.020833333333333332
            },
            {
              "pitch": 38,
              "velocity": 19,
              "position": 10.25,
              "duration": 0.020833333333333332
            },
            {
              "pitch": 38,
              "velocity": 29,
              "position": 10.404166666666667,
              "duration": 0.020833333333333332
            },
            {
              "pitch": 38,
              "velocity": 47,
              "position": 10.5,
              "duration": 0.020833333333333332
            },
            {
              "pitch": 44,
              "velocity": 64,
              "position": 10.5,
              "duration": 0.020833333333333332
            },
            {
              "pitch": 38,
              "velocity": 85,
              "position": 10.654166666666667,
              "duration": 0.020833333333333332
            },
            {
              "pitch": 36,
              "velocity": 83,
              "position": 10.808333333333334,
              "duration": 0.020833333333333332
            },
            {
              "pitch": 55,
              "velocity": 76,
              "position": 10.808333333333334,
              "duration": 0.020833333333333332
            },
            {
              "pitch": 47,
              "velocity": 82,
              "position": 11.166666666666666,
              "duration": 0.020833333333333332
            },
            {
              "pitch": 43,
              "velocity": 82,
              "position": 11.2125,
              "duration": 0.020833333333333332
            },
            {
              "pitch": 44,
              "velocity": 64,
              "position": 11.5,
              "duration": 0.020833333333333332
            },
            {
              "pitch": 45,
              "velocity": 82,
              "position": 11.5,
              "duration": 0.020833333333333332
            },
            {
              "pitch": 41,
              "velocity": 82,
              "position": 11.545833333333333,
              "duration": 0.020833333333333332
            },
            {
              "pitch": 36,
              "velocity": 57,
              "position": 11.808333333333334,
              "duration": 0.020833333333333332
            },
            {
              "pitch": 57,
              "velocity": 92,
              "position": 11.833333333333334,
              "duration": 0.020833333333333332
            },
            {
              "pitch": 49,
              "velocity": 21,
              "position": 12.5,
              "duration": 0.020833333333333332
            },
            {
              "pitch": 57,
              "velocity": 22,
              "position": 12.625,
              "duration": 0.020833333333333332
            },
            {
              "pitch": 49,
              "velocity": 22,
              "position": 12.75,
              "duration": 0.020833333333333332
            },
            {
              "pitch": 57,
              "velocity": 23,
              "position": 12.875,
              "duration": 0.020833333333333332
            },
            {
              "pitch": 49,
              "velocity": 26,
              "position": 13,
              "duration": 0.020833333333333332
            },
            {
              "pitch": 57,
              "velocity": 29,
              "position": 13.125,
              "duration": 0.020833333333333332
            },
            {
              "pitch": 49,
              "velocity": 31,
              "position": 13.25,
              "duration": 0.020833333333333332
            },
            {
              "pitch": 57,
              "velocity": 35,
              "position": 13.375,
              "duration": 0.020833333333333332
            },
            {
              "pitch": 49,
              "velocity": 39,
              "position": 13.5,
              "duration": 0.020833333333333332
            },
            {
              "pitch": 57,
              "velocity": 45,
              "position": 13.625,
              "duration": 0.020833333333333332
            },
            {
              "pitch": 49,
              "velocity": 50,
              "position": 13.75,
              "duration": 0.020833333333333332
            },
            {
              "pitch": 57,
              "velocity": 57,
              "position": 13.875,
              "duration": 0.020833333333333332
            },
            {
              "pitch": 49,
              "velocity": 70,
              "position": 14,
              "duration": 0.020833333333333332
            },
            {
              "pitch": 57,
              "velocity": 72,
              "position": 14.125,
              "duration": 0.020833333333333332
            },
            {
              "pitch": 49,
              "velocity": 78,
              "position": 14.25,
              "duration": 0.020833333333333332
            },
            {
              "pitch": 57,
              "velocity": 86,
              "position": 14.375,
              "duration": 0.020833333333333332
            },
            {
              "pitch": 36,
              "velocity": 80,
              "position": 14.666666666666666,
              "duration": 0.020833333333333332
            },
            {
              "pitch": 38,
              "velocity": 19,
              "position": 14.75,
              "duration": 0.020833333333333332
            },
            {
              "pitch": 38,
              "velocity": 31,
              "position": 14.833333333333334,
              "duration": 0.020833333333333332
            },
            {
              "pitch": 38,
              "velocity": 72,
              "position": 14.916666666666666,
              "duration": 0.020833333333333332
            },
            {
              "pitch": 38,
              "velocity": 109,
              "position": 15,
              "duration": 0.020833333333333332
            },
            {
              "pitch": 36,
              "velocity": 57,
              "position": 15.25,
              "duration": 0.020833333333333332
            }
          ]
        },
        "10": {
          "ctab": {
            "srcChannel": 10,
            "name": "Bass",
            "accType": "BASS",
            "editable": false,
            "mutedNotes": [],
            "mutedChords": [
              "dim7",
              "dim",
              "minMaj7(9)",
              "minMaj7",
              "min7(11)",
              "min7(9)",
              "min(9)",
              "m7b5",
              "min7",
              "min6",
              "min"
            ],
            "autoStart": false,
            "sourceChordNote": 0,
            "sourceChordType": "Maj",
            "ctb2Low": null,
            "ctb2Main": {
              "ntr": "ROOT_TRANSPOSITION",
              "ntt": "BYPASS",
              "bassOn": false,
              "chordRootUpperLimit": 3,
              "noteLowLimit": 28,
              "noteHighLimit": 127,
              "rtr": "PITCH_SHIFT"
            },
            "ctb2High": null
          },
          "notes": [
            {
              "pitch": 24,
              "velocity": 60,
              "position": 0,
              "duration": 0.4166666666666667
            },
            {
              "pitch": 24,
              "velocity": 96,
              "position": 0.5,
              "duration": 0.0625
            },
            {
              "pitch": 48,
              "velocity": 66,
              "position": 0.8333333333333334,
              "duration": 0.17708333333333334
            },
            {
              "pitch": 36,
              "velocity": 59,
              "position": 1.8333333333333333,
              "duration": 0.6541666666666667
            },
            {
              "pitch": 36,
              "velocity": 63,
              "position": 2.5,
              "duration": 0.2916666666666667
            },
            {
              "pitch": 31,
              "velocity": 60,
              "position": 3.3333333333333335,
              "duration": 0.17708333333333334
            },
            {
              "pitch": 33,
              "velocity": 54,
              "position": 3.5,
              "duration": 0.4791666666666667
            },
            {
              "pitch": 29,
              "velocity": 60,
              "position": 4,
              "duration": 0.78125
            },
            {
              "pitch": 41,
              "velocity": 65,
              "position": 4.833333333333333,
              "duration": 0.17708333333333334
            },
            {
              "pitch": 29,
              "velocity": 59,
              "position": 5.833333333333333,
              "duration": 0.6666666666666666
            },
            {
              "pitch": 41,
              "velocity": 64,
              "position": 6.5,
              "duration": 0.2916666666666667
            },
            {
              "pitch": 29,
              "velocity": 60,
              "position": 7,
              "duration": 0.32083333333333336
            },
            {
              "pitch": 36,
              "velocity": 60,
              "position": 7.333333333333333,
              "duration": 0.17708333333333334
            },
            {
              "pitch": 41,
              "velocity": 59,
              "position": 7.5,
              "duration": 0.4791666666666667
            },
            {
              "pitch": 26,
              "velocity": 60,
              "position": 8,
              "duration": 0.4166666666666667
            },
            {
              "pitch": 26,
              "velocity": 96,
              "position": 8.5,
              "duration": 0.0625
            },
            {
              "pitch": 50,
              "velocity": 65,
              "position": 8.833333333333334,
              "duration": 0.17708333333333334
            },
            {
              "pitch": 31,
              "velocity": 59,
              "position": 9.833333333333334,
              "duration": 0.3333333333333333
            },
            {
              "pitch": 43,
              "velocity": 60,
              "position": 10.808333333333334,
              "duration": 0.34375
            },
            {
              "pitch": 24,
              "velocity": 59,
              "position": 11.808333333333334,
              "duration": 3.5625
            }
          ]
        },
        "11": {
          "ctab": {
            "srcChannel": 11,
            "name": "Gtr",
            "accType": "CHORD1",
            "editable": false,
            "mutedNotes": [],
            "mutedChords": [
              "dim7",
              "dim",
              "minMaj7(9)",
              "minMaj7",
              "min7(11)",
              "min7(9)",
              "min(9)",
              "m7b5",
              "min7",
              "min6",
              "min"
            ],
            "autoStart": false,
            "sourceChordNote": 0,
            "sourceChordType": "Maj",
            "ctb2Low": null,
            "ctb2Main": {
              "ntr": "ROOT_TRANSPOSITION",
              "ntt": "BYPASS",
              "bassOn": false,
              "chordRootUpperLimit": 2,
              "noteLowLimit": 57,
              "noteHighLimit": 79,
              "rtr": "PITCH_SHIFT"
            },
            "ctb2High": null
          },
          "notes": [
            {
              "pitch": 100,
              "velocity": 91,
              "position": 0,
              "duration": 0.15625
            },
            {
              "pitch": 64,
              "velocity": 53,
              "position": 0,
              "duration": 0.78125
            },
            {
              "pitch": 67,
              "velocity": 53,
              "position": 0.010416666666666666,
              "duration": 0.78125
            },
            {
              "pitch": 74,
              "velocity": 53,
              "position": 0.03125,
              "duration": 0.7666666666666667
            },
            {
              "pitch": 71,
              "velocity": 53,
              "position": 0.020833333333333332,
              "duration": 0.78125
            },
            {
              "pitch": 74,
              "velocity": 50,
              "position": 0.8083333333333333,
              "duration": 0.10416666666666667
            },
            {
              "pitch": 71,
              "velocity": 50,
              "position": 0.81875,
              "duration": 0.10416666666666667
            },
            {
              "pitch": 67,
              "velocity": 50,
              "position": 0.8291666666666667,
              "duration": 0.10416666666666667
            },
            {
              "pitch": 64,
              "velocity": 50,
              "position": 0.8395833333333333,
              "duration": 0.10416666666666667
            },
            {
              "pitch": 99,
              "velocity": 73,
              "position": 0.8083333333333333,
              "duration": 0.15625
            },
            {
              "pitch": 74,
              "velocity": 69,
              "position": 1.3083333333333333,
              "duration": 0.041666666666666664
            },
            {
              "pitch": 71,
              "velocity": 69,
              "position": 1.31875,
              "duration": 0.041666666666666664
            },
            {
              "pitch": 67,
              "velocity": 69,
              "position": 1.3291666666666666,
              "duration": 0.041666666666666664
            },
            {
              "pitch": 64,
              "velocity": 69,
              "position": 1.3395833333333333,
              "duration": 0.041666666666666664
            },
            {
              "pitch": 99,
              "velocity": 75,
              "position": 1.3083333333333333,
              "duration": 0.15625
            },
            {
              "pitch": 100,
              "velocity": 91,
              "position": 1.5,
              "duration": 0.15625
            },
            {
              "pitch": 64,
              "velocity": 41,
              "position": 1.5,
              "duration": 0.78125
            },
            {
              "pitch": 67,
              "velocity": 49,
              "position": 1.5104166666666667,
              "duration": 0.78125
            },
            {
              "pitch": 71,
              "velocity": 49,
              "position": 1.5208333333333333,
              "duration": 0.78125
            },
            {
              "pitch": 74,
              "velocity": 49,
              "position": 1.53125,
              "duration": 0.7729166666666667
            },
            {
              "pitch": 74,
              "velocity": 58,
              "position": 2.308333333333333,
              "duration": 0.10416666666666667
            },
            {
              "pitch": 71,
              "velocity": 58,
              "position": 2.31875,
              "duration": 0.10416666666666667
            },
            {
              "pitch": 67,
              "velocity": 58,
              "position": 2.3291666666666666,
              "duration": 0.10416666666666667
            },
            {
              "pitch": 64,
              "velocity": 58,
              "position": 2.339583333333333,
              "duration": 0.10416666666666667
            },
            {
              "pitch": 99,
              "velocity": 72,
              "position": 2.308333333333333,
              "duration": 0.15625
            },
            {
              "pitch": 64,
              "velocity": 71,
              "position": 2.5,
              "duration": 0.052083333333333336
            },
            {
              "pitch": 67,
              "velocity": 71,
              "position": 2.5104166666666665,
              "duration": 0.052083333333333336
            },
            {
              "pitch": 71,
              "velocity": 71,
              "position": 2.5208333333333335,
              "duration": 0.052083333333333336
            },
            {
              "pitch": 74,
              "velocity": 71,
              "position": 2.53125,
              "duration": 0.052083333333333336
            },
            {
              "pitch": 100,
              "velocity": 91,
              "position": 2.5,
              "duration": 0.15625
            },
            {
              "pitch": 74,
              "velocity": 65,
              "position": 2.808333333333333,
              "duration": 0.041666666666666664
            },
            {
              "pitch": 71,
              "velocity": 65,
              "position": 2.81875,
              "duration": 0.041666666666666664
            },
            {
              "pitch": 67,
              "velocity": 65,
              "position": 2.8291666666666666,
              "duration": 0.041666666666666664
            },
            {
              "pitch": 64,
              "velocity": 65,
              "position": 2.839583333333333,
              "duration": 0.041666666666666664
            },
            {
              "pitch": 99,
              "velocity": 79,
              "position": 2.808333333333333,
              "duration": 0.15625
            },
            {
              "pitch": 100,
              "velocity": 91,
              "position": 3,
              "duration": 0.15625
            },
            {
              "pitch": 64,
              "velocity": 59,
              "position": 3,
              "duration": 0.28125
            },
            {
              "pitch": 67,
              "velocity": 59,
              "position": 3.0104166666666665,
              "duration": 0.28125
            },
            {
              "pitch": 71,
              "velocity": 59,
              "position": 3.0208333333333335,
              "duration": 0.28125
            },
            {
              "pitch": 74,
              "velocity": 59,
              "position": 3.03125,
              "duration": 0.2708333333333333
            },
            {
              "pitch": 74,
              "velocity": 44,
              "position": 3.308333333333333,
              "duration": 0.11458333333333333
            },
            {
              "pitch": 71,
              "velocity": 44,
              "position": 3.31875,
              "duration": 0.11458333333333333
            },
            {
              "pitch": 67,
              "velocity": 44,
              "position": 3.3291666666666666,
              "duration": 0.11458333333333333
            },
            {
              "pitch": 64,
              "velocity": 44,
              "position": 3.339583333333333,
              "duration": 0.11458333333333333
            },
            {
              "pitch": 99,
              "velocity": 73,
              "position": 3.308333333333333,
              "duration": 0.15625
            },
            {
              "pitch": 64,
              "velocity": 52,
              "position": 3.5,
              "duration": 0.11458333333333333
            },
            {
              "pitch": 67,
              "velocity": 52,
              "position": 3.5104166666666665,
              "duration": 0.11458333333333333
            },
            {
              "pitch": 71,
              "velocity": 52,
              "position": 3.5208333333333335,
              "duration": 0.11458333333333333
            },
            {
              "pitch": 74,
              "velocity": 52,
              "position": 3.53125,
              "duration": 0.11458333333333333
            },
            {
              "pitch": 100,
              "velocity": 91,
              "position": 3.5,
              "duration": 0.15625
            },
            {
              "pitch": 99,
              "velocity": 73,
              "position": 3.808333333333333,
              "duration": 0.15625
            },
            {
              "pitch": 74,
              "velocity": 39,
              "position": 3.808333333333333,
              "duration": 0.16666666666666666
            },
            {
              "pitch": 69,
              "velocity": 39,
              "position": 3.81875,
              "duration": 0.16666666666666666
            },
            {
              "pitch": 67,
              "velocity": 39,
              "position": 3.8291666666666666,
              "duration": 0.16666666666666666
            },
            {
              "pitch": 64,
              "velocity": 39,
              "position": 3.839583333333333,
              "duration": 0.15625
            },
            {
              "pitch": 100,
              "velocity": 91,
              "position": 4,
              "duration": 0.15625
            },
            {
              "pitch": 63,
              "velocity": 52,
              "position": 4,
              "duration": 0.28125
            },
            {
              "pitch": 67,
              "velocity": 59,
              "position": 4.010416666666667,
              "duration": 0.28125
            },
            {
              "pitch": 69,
              "velocity": 59,
              "position": 4.020833333333333,
              "duration": 0.28125
            },
            {
              "pitch": 72,
              "velocity": 59,
              "position": 4.03125,
              "duration": 0.27291666666666664
            },
            {
              "pitch": 72,
              "velocity": 36,
              "position": 4.308333333333334,
              "duration": 0.10416666666666667
            },
            {
              "pitch": 69,
              "velocity": 36,
              "position": 4.31875,
              "duration": 0.10416666666666667
            },
            {
              "pitch": 67,
              "velocity": 36,
              "position": 4.329166666666667,
              "duration": 0.10416666666666667
            },
            {
              "pitch": 63,
              "velocity": 32,
              "position": 4.339583333333334,
              "duration": 0.10416666666666667
            },
            {
              "pitch": 99,
              "velocity": 71,
              "position": 4.308333333333334,
              "duration": 0.15625
            },
            {
              "pitch": 63,
              "velocity": 69,
              "position": 4.5,
              "duration": 0.052083333333333336
            },
            {
              "pitch": 67,
              "velocity": 69,
              "position": 4.510416666666667,
              "duration": 0.052083333333333336
            },
            {
              "pitch": 69,
              "velocity": 69,
              "position": 4.520833333333333,
              "duration": 0.052083333333333336
            },
            {
              "pitch": 72,
              "velocity": 69,
              "position": 4.53125,
              "duration": 0.052083333333333336
            },
            {
              "pitch": 100,
              "velocity": 93,
              "position": 4.5,
              "duration": 0.15625
            },
            {
              "pitch": 72,
              "velocity": 55,
              "position": 4.808333333333334,
              "duration": 0.15625
            },
            {
              "pitch": 99,
              "velocity": 72,
              "position": 4.808333333333334,
              "duration": 0.15625
            },
            {
              "pitch": 69,
              "velocity": 55,
              "position": 4.81875,
              "duration": 0.15625
            },
            {
              "pitch": 67,
              "velocity": 55,
              "position": 4.829166666666667,
              "duration": 0.15625
            },
            {
              "pitch": 63,
              "velocity": 55,
              "position": 4.839583333333334,
              "duration": 0.15625
            },
            {
              "pitch": 63,
              "velocity": 80,
              "position": 5.308333333333334,
              "duration": 0.041666666666666664
            },
            {
              "pitch": 67,
              "velocity": 80,
              "position": 5.31875,
              "duration": 0.041666666666666664
            },
            {
              "pitch": 69,
              "velocity": 80,
              "position": 5.329166666666667,
              "duration": 0.041666666666666664
            },
            {
              "pitch": 72,
              "velocity": 80,
              "position": 5.339583333333334,
              "duration": 0.041666666666666664
            },
            {
              "pitch": 99,
              "velocity": 69,
              "position": 5.308333333333334,
              "duration": 0.15625
            },
            {
              "pitch": 100,
              "velocity": 91,
              "position": 5.5,
              "duration": 0.15625
            },
            {
              "pitch": 72,
              "velocity": 115,
              "position": 5.5,
              "duration": 0.78125
            },
            {
              "pitch": 69,
              "velocity": 115,
              "position": 5.510416666666667,
              "duration": 0.78125
            },
            {
              "pitch": 67,
              "velocity": 115,
              "position": 5.520833333333333,
              "duration": 0.78125
            },
            {
              "pitch": 63,
              "velocity": 115,
              "position": 5.53125,
              "duration": 0.78125
            },
            {
              "pitch": 72,
              "velocity": 69,
              "position": 6.308333333333334,
              "duration": 0.10416666666666667
            },
            {
              "pitch": 69,
              "velocity": 69,
              "position": 6.31875,
              "duration": 0.10416666666666667
            },
            {
              "pitch": 67,
              "velocity": 69,
              "position": 6.329166666666667,
              "duration": 0.10416666666666667
            },
            {
              "pitch": 63,
              "velocity": 69,
              "position": 6.339583333333334,
              "duration": 0.10416666666666667
            },
            {
              "pitch": 99,
              "velocity": 71,
              "position": 6.308333333333334,
              "duration": 0.15625
            },
            {
              "pitch": 63,
              "velocity": 82,
              "position": 6.5,
              "duration": 0.052083333333333336
            },
            {
              "pitch": 67,
              "velocity": 82,
              "position": 6.510416666666667,
              "duration": 0.052083333333333336
            },
            {
              "pitch": 69,
              "velocity": 82,
              "position": 6.520833333333333,
              "duration": 0.052083333333333336
            },
            {
              "pitch": 72,
              "velocity": 82,
              "position": 6.53125,
              "duration": 0.052083333333333336
            },
            {
              "pitch": 100,
              "velocity": 91,
              "position": 6.5,
              "duration": 0.15625
            },
            {
              "pitch": 72,
              "velocity": 66,
              "position": 6.808333333333334,
              "duration": 0.041666666666666664
            },
            {
              "pitch": 69,
              "velocity": 66,
              "position": 6.81875,
              "duration": 0.041666666666666664
            },
            {
              "pitch": 67,
              "velocity": 66,
              "position": 6.829166666666667,
              "duration": 0.041666666666666664
            },
            {
              "pitch": 63,
              "velocity": 66,
              "position": 6.839583333333334,
              "duration": 0.041666666666666664
            },
            {
              "pitch": 99,
              "velocity": 71,
              "position": 6.808333333333334,
              "duration": 0.15625
            },
            {
              "pitch": 100,
              "velocity": 91,
              "position": 7,
              "duration": 0.15625
            },
            {
              "pitch": 63,
              "velocity": 47,
              "position": 7,
              "duration": 0.28125
            },
            {
              "pitch": 67,
              "velocity": 55,
              "position": 7.010416666666667,
              "duration": 0.28125
            },
            {
              "pitch": 69,
              "velocity": 55,
              "position": 7.020833333333333,
              "duration": 0.28125
            },
            {
              "pitch": 72,
              "velocity": 55,
              "position": 7.03125,
              "duration": 0.27291666666666664
            },
            {
              "pitch": 72,
              "velocity": 65,
              "position": 7.308333333333334,
              "duration": 0.11458333333333333
            },
            {
              "pitch": 69,
              "velocity": 65,
              "position": 7.31875,
              "duration": 0.11458333333333333
            },
            {
              "pitch": 67,
              "velocity": 65,
              "position": 7.329166666666667,
              "duration": 0.11458333333333333
            },
            {
              "pitch": 63,
              "velocity": 65,
              "position": 7.339583333333334,
              "duration": 0.11458333333333333
            },
            {
              "pitch": 99,
              "velocity": 72,
              "position": 7.308333333333334,
              "duration": 0.15625
            },
            {
              "pitch": 63,
              "velocity": 41,
              "position": 7.5,
              "duration": 0.11458333333333333
            },
            {
              "pitch": 67,
              "velocity": 41,
              "position": 7.510416666666667,
              "duration": 0.11458333333333333
            },
            {
              "pitch": 69,
              "velocity": 41,
              "position": 7.520833333333333,
              "duration": 0.11458333333333333
            },
            {
              "pitch": 72,
              "velocity": 41,
              "position": 7.53125,
              "duration": 0.11458333333333333
            },
            {
              "pitch": 100,
              "velocity": 91,
              "position": 7.5,
              "duration": 0.15625
            },
            {
              "pitch": 99,
              "velocity": 67,
              "position": 7.808333333333334,
              "duration": 0.15625
            },
            {
              "pitch": 72,
              "velocity": 36,
              "position": 7.808333333333334,
              "duration": 0.16666666666666666
            },
            {
              "pitch": 69,
              "velocity": 36,
              "position": 7.81875,
              "duration": 0.16666666666666666
            },
            {
              "pitch": 67,
              "velocity": 36,
              "position": 7.829166666666667,
              "duration": 0.16666666666666666
            },
            {
              "pitch": 63,
              "velocity": 36,
              "position": 7.839583333333334,
              "duration": 0.15625
            },
            {
              "pitch": 100,
              "velocity": 91,
              "position": 8,
              "duration": 0.15625
            },
            {
              "pitch": 62,
              "velocity": 53,
              "position": 8,
              "duration": 0.78125
            },
            {
              "pitch": 65,
              "velocity": 53,
              "position": 8.010416666666666,
              "duration": 0.78125
            },
            {
              "pitch": 72,
              "velocity": 53,
              "position": 8.03125,
              "duration": 0.7666666666666667
            },
            {
              "pitch": 69,
              "velocity": 53,
              "position": 8.020833333333334,
              "duration": 0.78125
            },
            {
              "pitch": 72,
              "velocity": 50,
              "position": 8.808333333333334,
              "duration": 0.10416666666666667
            },
            {
              "pitch": 69,
              "velocity": 50,
              "position": 8.81875,
              "duration": 0.10416666666666667
            },
            {
              "pitch": 65,
              "velocity": 50,
              "position": 8.829166666666667,
              "duration": 0.10416666666666667
            },
            {
              "pitch": 62,
              "velocity": 50,
              "position": 8.839583333333334,
              "duration": 0.10416666666666667
            },
            {
              "pitch": 99,
              "velocity": 73,
              "position": 8.808333333333334,
              "duration": 0.15625
            },
            {
              "pitch": 100,
              "velocity": 91,
              "position": 9.5,
              "duration": 0.15625
            },
            {
              "pitch": 100,
              "velocity": 75,
              "position": 9.808333333333334,
              "duration": 0.15625
            },
            {
              "pitch": 62,
              "velocity": 59,
              "position": 9.808333333333334,
              "duration": 0.2708333333333333
            },
            {
              "pitch": 72,
              "velocity": 59,
              "position": 9.808333333333334,
              "duration": 0.28125
            },
            {
              "pitch": 69,
              "velocity": 59,
              "position": 9.808333333333334,
              "duration": 0.28125
            },
            {
              "pitch": 65,
              "velocity": 59,
              "position": 9.808333333333334,
              "duration": 0.28125
            },
            {
              "pitch": 99,
              "velocity": 72,
              "position": 10.308333333333334,
              "duration": 0.15625
            },
            {
              "pitch": 100,
              "velocity": 91,
              "position": 10.5,
              "duration": 0.15625
            },
            {
              "pitch": 99,
              "velocity": 79,
              "position": 10.808333333333334,
              "duration": 0.15625
            },
            {
              "pitch": 62,
              "velocity": 59,
              "position": 10.808333333333334,
              "duration": 0.2708333333333333
            },
            {
              "pitch": 72,
              "velocity": 59,
              "position": 10.808333333333334,
              "duration": 0.28125
            },
            {
              "pitch": 69,
              "velocity": 59,
              "position": 10.808333333333334,
              "duration": 0.28125
            },
            {
              "pitch": 65,
              "velocity": 59,
              "position": 10.808333333333334,
              "duration": 0.28125
            },
            {
              "pitch": 100,
              "velocity": 91,
              "position": 11.5,
              "duration": 0.15625
            },
            {
              "pitch": 99,
              "velocity": 73,
              "position": 11.808333333333334,
              "duration": 0.15625
            },
            {
              "pitch": 74,
              "velocity": 46,
              "position": 11.808333333333334,
              "duration": 3.425
            },
            {
              "pitch": 67,
              "velocity": 46,
              "position": 11.829166666666667,
              "duration": 3.425
            },
            {
              "pitch": 64,
              "velocity": 46,
              "position": 11.839583333333334,
              "duration": 3.4145833333333333
            },
            {
              "pitch": 71,
              "velocity": 46,
              "position": 11.81875,
              "duration": 3.45
            }
          ]
        },
        "12": {
          "ctab": {
            "srcChannel": 12,
            "name": "EP",
            "accType": "CHORD2",
            "editable": false,
            "mutedNotes": [],
            "mutedChords": [
              "dim7",
              "dim",
              "minMaj7(9)",
              "minMaj7",
              "min7(11)",
              "min7(9)",
              "min(9)",
              "m7b5",
              "min7",
              "min6",
              "min"
            ],
            "autoStart": false,
            "sourceChordNote": 0,
            "sourceChordType": "Maj",
            "ctb2Low": null,
            "ctb2Main": {
              "ntr": "ROOT_TRANSPOSITION",
              "ntt": "BYPASS",
              "bassOn": false,
              "chordRootUpperLimit": 10,
              "noteLowLimit": 0,
              "noteHighLimit": 127,
              "rtr": "PITCH_SHIFT"
            },
            "ctb2High": null
          },
          "notes": [
            {
              "pitch": 59,
              "velocity": 89,
              "position": 0,
              "duration": 0.08541666666666667
            },
            {
              "pitch": 55,
              "velocity": 94,
              "position": 0,
              "duration": 0.10625
            },
            {
              "pitch": 62,
              "velocity": 89,
              "position": 0,
              "duration": 0.15416666666666667
            },
            {
              "pitch": 52,
              "velocity": 100,
              "position": 0,
              "duration": 0.33958333333333335
            },
            {
              "pitch": 59,
              "velocity": 70,
              "position": 0.30833333333333335,
              "duration": 0.07291666666666667
            },
            {
              "pitch": 55,
              "velocity": 77,
              "position": 0.30833333333333335,
              "duration": 0.09375
            },
            {
              "pitch": 62,
              "velocity": 31,
              "position": 0.30833333333333335,
              "duration": 0.09375
            },
            {
              "pitch": 62,
              "velocity": 70,
              "position": 0.5,
              "duration": 0.0625
            },
            {
              "pitch": 52,
              "velocity": 56,
              "position": 0.5,
              "duration": 0.0875
            },
            {
              "pitch": 55,
              "velocity": 81,
              "position": 0.5,
              "duration": 0.09583333333333334
            },
            {
              "pitch": 59,
              "velocity": 62,
              "position": 0.5,
              "duration": 0.12083333333333333
            },
            {
              "pitch": 55,
              "velocity": 84,
              "position": 0.8083333333333333,
              "duration": 0.0625
            },
            {
              "pitch": 59,
              "velocity": 94,
              "position": 0.8083333333333333,
              "duration": 0.06458333333333334
            },
            {
              "pitch": 36,
              "velocity": 87,
              "position": 0,
              "duration": 0.8979166666666667
            },
            {
              "pitch": 52,
              "velocity": 96,
              "position": 0.8083333333333333,
              "duration": 0.09166666666666666
            },
            {
              "pitch": 48,
              "velocity": 87,
              "position": 0,
              "duration": 0.9041666666666667
            },
            {
              "pitch": 62,
              "velocity": 102,
              "position": 0.8083333333333333,
              "duration": 0.11875
            },
            {
              "pitch": 57,
              "velocity": 102,
              "position": 1.3083333333333333,
              "duration": 0.06041666666666667
            },
            {
              "pitch": 64,
              "velocity": 102,
              "position": 1.3083333333333333,
              "duration": 0.0625
            },
            {
              "pitch": 60,
              "velocity": 89,
              "position": 1.3083333333333333,
              "duration": 0.0625
            },
            {
              "pitch": 53,
              "velocity": 96,
              "position": 1.3083333333333333,
              "duration": 0.08333333333333333
            },
            {
              "pitch": 55,
              "velocity": 94,
              "position": 1.8083333333333333,
              "duration": 0.04791666666666667
            },
            {
              "pitch": 62,
              "velocity": 87,
              "position": 1.8083333333333333,
              "duration": 0.06041666666666667
            },
            {
              "pitch": 59,
              "velocity": 102,
              "position": 1.8083333333333333,
              "duration": 0.06041666666666667
            },
            {
              "pitch": 52,
              "velocity": 105,
              "position": 1.8083333333333333,
              "duration": 0.06041666666666667
            },
            {
              "pitch": 43,
              "velocity": 96,
              "position": 2.308333333333333,
              "duration": 0.3
            },
            {
              "pitch": 60,
              "velocity": 82,
              "position": 2.5,
              "duration": 0.2375
            },
            {
              "pitch": 57,
              "velocity": 77,
              "position": 2.5,
              "duration": 0.24583333333333332
            },
            {
              "pitch": 53,
              "velocity": 91,
              "position": 2.5,
              "duration": 0.26875
            },
            {
              "pitch": 50,
              "velocity": 91,
              "position": 2.5,
              "duration": 0.26875
            },
            {
              "pitch": 43,
              "velocity": 52,
              "position": 2.808333333333333,
              "duration": 0.11041666666666666
            },
            {
              "pitch": 48,
              "velocity": 76,
              "position": 3,
              "duration": 0.23541666666666666
            },
            {
              "pitch": 59,
              "velocity": 65,
              "position": 3,
              "duration": 0.2708333333333333
            },
            {
              "pitch": 52,
              "velocity": 87,
              "position": 3,
              "duration": 0.29375
            },
            {
              "pitch": 55,
              "velocity": 61,
              "position": 3,
              "duration": 0.29583333333333334
            },
            {
              "pitch": 43,
              "velocity": 98,
              "position": 3.308333333333333,
              "duration": 0.16875
            },
            {
              "pitch": 50,
              "velocity": 96,
              "position": 3.5,
              "duration": 0.29791666666666666
            },
            {
              "pitch": 60,
              "velocity": 86,
              "position": 3.5,
              "duration": 0.33125
            },
            {
              "pitch": 53,
              "velocity": 102,
              "position": 3.5,
              "duration": 0.3458333333333333
            },
            {
              "pitch": 57,
              "velocity": 102,
              "position": 3.5,
              "duration": 0.36041666666666666
            },
            {
              "pitch": 43,
              "velocity": 82,
              "position": 3.808333333333333,
              "duration": 0.22291666666666668
            },
            {
              "pitch": 55,
              "velocity": 70,
              "position": 4,
              "duration": 0.07083333333333333
            },
            {
              "pitch": 60,
              "velocity": 54,
              "position": 4,
              "duration": 0.08125
            },
            {
              "pitch": 62,
              "velocity": 65,
              "position": 4,
              "duration": 0.09583333333333334
            },
            {
              "pitch": 51,
              "velocity": 89,
              "position": 4,
              "duration": 0.18333333333333332
            },
            {
              "pitch": 51,
              "velocity": 61,
              "position": 4.308333333333334,
              "duration": 0.06875
            },
            {
              "pitch": 62,
              "velocity": 39,
              "position": 4.308333333333334,
              "duration": 0.0875
            },
            {
              "pitch": 60,
              "velocity": 68,
              "position": 4.308333333333334,
              "duration": 0.11041666666666666
            },
            {
              "pitch": 55,
              "velocity": 71,
              "position": 4.308333333333334,
              "duration": 0.15208333333333332
            },
            {
              "pitch": 51,
              "velocity": 61,
              "position": 4.5,
              "duration": 0.06875
            },
            {
              "pitch": 62,
              "velocity": 39,
              "position": 4.5,
              "duration": 0.0875
            },
            {
              "pitch": 60,
              "velocity": 68,
              "position": 4.5,
              "duration": 0.11041666666666666
            },
            {
              "pitch": 55,
              "velocity": 71,
              "position": 4.5,
              "duration": 0.15208333333333332
            },
            {
              "pitch": 51,
              "velocity": 113,
              "position": 4.808333333333334,
              "duration": 0.07916666666666666
            },
            {
              "pitch": 55,
              "velocity": 84,
              "position": 4.808333333333334,
              "duration": 0.12916666666666668
            },
            {
              "pitch": 60,
              "velocity": 102,
              "position": 4.808333333333334,
              "duration": 0.14583333333333334
            },
            {
              "pitch": 62,
              "velocity": 84,
              "position": 4.808333333333334,
              "duration": 0.14791666666666667
            },
            {
              "pitch": 41,
              "velocity": 65,
              "position": 4,
              "duration": 1.05625
            },
            {
              "pitch": 29,
              "velocity": 81,
              "position": 4,
              "duration": 1.1229166666666666
            },
            {
              "pitch": 57,
              "velocity": 89,
              "position": 5.308333333333334,
              "duration": 0.058333333333333334
            },
            {
              "pitch": 63,
              "velocity": 86,
              "position": 5.308333333333334,
              "duration": 0.06458333333333334
            },
            {
              "pitch": 60,
              "velocity": 94,
              "position": 5.308333333333334,
              "duration": 0.10625
            },
            {
              "pitch": 53,
              "velocity": 86,
              "position": 5.308333333333334,
              "duration": 0.14166666666666666
            },
            {
              "pitch": 51,
              "velocity": 81,
              "position": 5.808333333333334,
              "duration": 0.052083333333333336
            },
            {
              "pitch": 55,
              "velocity": 73,
              "position": 5.808333333333334,
              "duration": 0.06458333333333334
            },
            {
              "pitch": 59,
              "velocity": 67,
              "position": 5.808333333333334,
              "duration": 0.06875
            },
            {
              "pitch": 62,
              "velocity": 65,
              "position": 5.808333333333334,
              "duration": 0.12083333333333333
            },
            {
              "pitch": 48,
              "velocity": 89,
              "position": 6.308333333333334,
              "duration": 0.1625
            },
            {
              "pitch": 53,
              "velocity": 96,
              "position": 6.5,
              "duration": 0.2875
            },
            {
              "pitch": 51,
              "velocity": 102,
              "position": 6.5,
              "duration": 0.30833333333333335
            },
            {
              "pitch": 57,
              "velocity": 102,
              "position": 6.5,
              "duration": 0.32708333333333334
            },
            {
              "pitch": 60,
              "velocity": 100,
              "position": 6.5,
              "duration": 0.33541666666666664
            },
            {
              "pitch": 43,
              "velocity": 98,
              "position": 6.808333333333334,
              "duration": 0.15416666666666667
            },
            {
              "pitch": 59,
              "velocity": 98,
              "position": 7,
              "duration": 0.23125
            },
            {
              "pitch": 51,
              "velocity": 127,
              "position": 7,
              "duration": 0.2791666666666667
            },
            {
              "pitch": 57,
              "velocity": 96,
              "position": 7,
              "duration": 0.2916666666666667
            },
            {
              "pitch": 55,
              "velocity": 94,
              "position": 7,
              "duration": 0.29583333333333334
            },
            {
              "pitch": 43,
              "velocity": 94,
              "position": 7.308333333333334,
              "duration": 0.15
            },
            {
              "pitch": 60,
              "velocity": 67,
              "position": 7.5,
              "duration": 0.2791666666666667
            },
            {
              "pitch": 55,
              "velocity": 84,
              "position": 7.5,
              "duration": 0.29583333333333334
            },
            {
              "pitch": 51,
              "velocity": 98,
              "position": 7.5,
              "duration": 0.3
            },
            {
              "pitch": 57,
              "velocity": 68,
              "position": 7.5,
              "duration": 0.3020833333333333
            },
            {
              "pitch": 43,
              "velocity": 102,
              "position": 7.808333333333334,
              "duration": 0.16458333333333333
            },
            {
              "pitch": 53,
              "velocity": 89,
              "position": 8,
              "duration": 0.17291666666666666
            },
            {
              "pitch": 60,
              "velocity": 76,
              "position": 8,
              "duration": 0.17708333333333334
            },
            {
              "pitch": 57,
              "velocity": 94,
              "position": 8,
              "duration": 0.17916666666666667
            },
            {
              "pitch": 64,
              "velocity": 84,
              "position": 8,
              "duration": 0.2
            },
            {
              "pitch": 64,
              "velocity": 84,
              "position": 8.308333333333334,
              "duration": 0.07291666666666667
            },
            {
              "pitch": 53,
              "velocity": 61,
              "position": 8.308333333333334,
              "duration": 0.07916666666666666
            },
            {
              "pitch": 60,
              "velocity": 81,
              "position": 8.308333333333334,
              "duration": 0.08541666666666667
            },
            {
              "pitch": 57,
              "velocity": 71,
              "position": 8.308333333333334,
              "duration": 0.13125
            },
            {
              "pitch": 53,
              "velocity": 50,
              "position": 8.5,
              "duration": 0.075
            },
            {
              "pitch": 64,
              "velocity": 74,
              "position": 8.5,
              "duration": 0.08125
            },
            {
              "pitch": 60,
              "velocity": 54,
              "position": 8.5,
              "duration": 0.09583333333333334
            },
            {
              "pitch": 57,
              "velocity": 77,
              "position": 8.5,
              "duration": 0.11458333333333333
            },
            {
              "pitch": 53,
              "velocity": 89,
              "position": 8.808333333333334,
              "duration": 0.0875
            },
            {
              "pitch": 60,
              "velocity": 87,
              "position": 8.808333333333334,
              "duration": 0.12916666666666668
            },
            {
              "pitch": 64,
              "velocity": 87,
              "position": 8.808333333333334,
              "duration": 0.13958333333333334
            },
            {
              "pitch": 57,
              "velocity": 89,
              "position": 8.808333333333334,
              "duration": 0.14583333333333334
            },
            {
              "pitch": 50,
              "velocity": 96,
              "position": 8,
              "duration": 1.1
            },
            {
              "pitch": 38,
              "velocity": 70,
              "position": 8,
              "duration": 1.1125
            },
            {
              "pitch": 38,
              "velocity": 70,
              "position": 9.808333333333334,
              "duration": 0.19166666666666668
            },
            {
              "pitch": 64,
              "velocity": 105,
              "position": 9.808333333333334,
              "duration": 0.19166666666666668
            },
            {
              "pitch": 60,
              "velocity": 91,
              "position": 9.808333333333334,
              "duration": 0.19166666666666668
            },
            {
              "pitch": 57,
              "velocity": 87,
              "position": 9.808333333333334,
              "duration": 0.19166666666666668
            },
            {
              "pitch": 53,
              "velocity": 94,
              "position": 9.808333333333334,
              "duration": 0.19166666666666668
            },
            {
              "pitch": 50,
              "velocity": 96,
              "position": 9.808333333333334,
              "duration": 0.19166666666666668
            },
            {
              "pitch": 50,
              "velocity": 98,
              "position": 10.808333333333334,
              "duration": 0.15625
            },
            {
              "pitch": 43,
              "velocity": 96,
              "position": 10.808333333333334,
              "duration": 0.19166666666666668
            },
            {
              "pitch": 31,
              "velocity": 70,
              "position": 10.808333333333334,
              "duration": 0.19166666666666668
            },
            {
              "pitch": 53,
              "velocity": 86,
              "position": 10.808333333333334,
              "duration": 0.21875
            },
            {
              "pitch": 57,
              "velocity": 87,
              "position": 10.808333333333334,
              "duration": 0.22083333333333333
            },
            {
              "pitch": 60,
              "velocity": 73,
              "position": 10.808333333333334,
              "duration": 0.22916666666666666
            },
            {
              "pitch": 36,
              "velocity": 105,
              "position": 11.808333333333334,
              "duration": 3.375
            },
            {
              "pitch": 62,
              "velocity": 89,
              "position": 11.808333333333334,
              "duration": 3.375
            },
            {
              "pitch": 59,
              "velocity": 102,
              "position": 11.808333333333334,
              "duration": 3.375
            },
            {
              "pitch": 55,
              "velocity": 102,
              "position": 11.808333333333334,
              "duration": 3.375
            },
            {
              "pitch": 52,
              "velocity": 109,
              "position": 11.808333333333334,
              "duration": 3.375
            },
            {
              "pitch": 48,
              "velocity": 96,
              "position": 11.808333333333334,
              "duration": 3.375
            }
          ]
        },
        "13": {
          "ctab": {
            "srcChannel": 13,
            "name": "Pad",
            "accType": "PAD",
            "editable": false,
            "mutedNotes": [],
            "mutedChords": [
              "dim7",
              "dim",
              "minMaj7(9)",
              "minMaj7",
              "min7(11)",
              "min7(9)",
              "min(9)",
              "m7b5",
              "min7",
              "min6",
              "min"
            ],
            "autoStart": false,
            "sourceChordNote": 0,
            "sourceChordType": "Maj",
            "ctb2Low": null,
            "ctb2Main": {
              "ntr": "ROOT_TRANSPOSITION",
              "ntt": "BYPASS",
              "bassOn": false,
              "chordRootUpperLimit": 7,
              "noteLowLimit": 0,
              "noteHighLimit": 79,
              "rtr": "PITCH_SHIFT"
            },
            "ctb2High": null
          },
          "notes": [
            {
              "pitch": 79,
              "velocity": 84,
              "position": 0,
              "duration": 8
            },
            {
              "pitch": 81,
              "velocity": 84,
              "position": 8,
              "duration": 3.808333333333333
            },
            {
              "pitch": 79,
              "velocity": 84,
              "position": 11.808333333333334,
              "duration": 3.191666666666667
            }
          ]
        },
        "14": {
          "ctab": {
            "srcChannel": 14,
            "name": "MuteGtr",
            "accType": "PHRASE1",
            "editable": true,
            "mutedNotes": [],
            "mutedChords": [
              "dim7",
              "dim",
              "minMaj7(9)",
              "minMaj7",
              "min7(11)",
              "min7(9)",
              "min(9)",
              "m7b5",
              "min7",
              "min6",
              "min"
            ],
            "autoStart": false,
            "sourceChordNote": 0,
            "sourceChordType": "Maj",
            "ctb2Low": null,
            "ctb2Main": {
              "ntr": "ROOT_TRANSPOSITION",
              "ntt": "BYPASS",
              "bassOn": false,
              "chordRootUpperLimit": 9,
              "noteLowLimit": 0,
              "noteHighLimit": 120,
              "rtr": "PITCH_SHIFT"
            },
            "ctb2High": null
          },
          "notes": [
            {
              "pitch": 55,
              "velocity": 38,
              "position": 0,
              "duration": 0.29583333333333334
            },
            {
              "pitch": 67,
              "velocity": 40,
              "position": 0.01875,
              "duration": 0.27708333333333335
            },
            {
              "pitch": 115,
              "velocity": 75,
              "position": 0,
              "duration": 0.3645833333333333
            },
            {
              "pitch": 55,
              "velocity": 78,
              "position": 0.32708333333333334,
              "duration": 0.16041666666666668
            },
            {
              "pitch": 67,
              "velocity": 4,
              "position": 0.30833333333333335,
              "duration": 0.17916666666666667
            },
            {
              "pitch": 114,
              "velocity": 40,
              "position": 0.30833333333333335,
              "duration": 0.19166666666666668
            },
            {
              "pitch": 55,
              "velocity": 80,
              "position": 0.5,
              "duration": 0.29583333333333334
            },
            {
              "pitch": 67,
              "velocity": 82,
              "position": 0.51875,
              "duration": 0.27708333333333335
            },
            {
              "pitch": 113,
              "velocity": 40,
              "position": 0.5,
              "duration": 0.30833333333333335
            },
            {
              "pitch": 114,
              "velocity": 75,
              "position": 0.8083333333333333,
              "duration": 0.14583333333333334
            },
            {
              "pitch": 55,
              "velocity": 38,
              "position": 0.8270833333333333,
              "duration": 0.16041666666666668
            },
            {
              "pitch": 67,
              "velocity": 40,
              "position": 0.8083333333333333,
              "duration": 0.17916666666666667
            },
            {
              "pitch": 55,
              "velocity": 63,
              "position": 1,
              "duration": 0.29583333333333334
            },
            {
              "pitch": 67,
              "velocity": 65,
              "position": 1.01875,
              "duration": 0.27708333333333335
            },
            {
              "pitch": 115,
              "velocity": 40,
              "position": 1,
              "duration": 0.30833333333333335
            },
            {
              "pitch": 67,
              "velocity": 40,
              "position": 1.3083333333333333,
              "duration": 0.17916666666666667
            },
            {
              "pitch": 55,
              "velocity": 78,
              "position": 1.3270833333333334,
              "duration": 0.1625
            },
            {
              "pitch": 114,
              "velocity": 40,
              "position": 1.3083333333333333,
              "duration": 0.19166666666666668
            },
            {
              "pitch": 115,
              "velocity": 75,
              "position": 1.5,
              "duration": 0.17708333333333334
            },
            {
              "pitch": 67,
              "velocity": 80,
              "position": 1.51875,
              "duration": 0.27708333333333335
            },
            {
              "pitch": 55,
              "velocity": 78,
              "position": 1.5,
              "duration": 0.29583333333333334
            },
            {
              "pitch": 114,
              "velocity": 75,
              "position": 1.8083333333333333,
              "duration": 0.125
            },
            {
              "pitch": 55,
              "velocity": 38,
              "position": 1.8270833333333334,
              "duration": 0.16041666666666668
            },
            {
              "pitch": 67,
              "velocity": 40,
              "position": 1.8083333333333333,
              "duration": 0.17916666666666667
            },
            {
              "pitch": 55,
              "velocity": 78,
              "position": 2,
              "duration": 0.29583333333333334
            },
            {
              "pitch": 67,
              "velocity": 80,
              "position": 2.01875,
              "duration": 0.27708333333333335
            },
            {
              "pitch": 113,
              "velocity": 40,
              "position": 2,
              "duration": 0.30833333333333335
            },
            {
              "pitch": 114,
              "velocity": 75,
              "position": 2.308333333333333,
              "duration": 0.125
            },
            {
              "pitch": 67,
              "velocity": 40,
              "position": 2.308333333333333,
              "duration": 0.15625
            },
            {
              "pitch": 55,
              "velocity": 38,
              "position": 2.3270833333333334,
              "duration": 0.15625
            },
            {
              "pitch": 55,
              "velocity": 78,
              "position": 2.5,
              "duration": 0.29583333333333334
            },
            {
              "pitch": 67,
              "velocity": 80,
              "position": 2.51875,
              "duration": 0.27708333333333335
            },
            {
              "pitch": 115,
              "velocity": 40,
              "position": 2.5,
              "duration": 0.30833333333333335
            },
            {
              "pitch": 114,
              "velocity": 75,
              "position": 2.808333333333333,
              "duration": 0.010416666666666666
            },
            {
              "pitch": 67,
              "velocity": 63,
              "position": 2.808333333333333,
              "duration": 0.17916666666666667
            },
            {
              "pitch": 55,
              "velocity": 61,
              "position": 2.8270833333333334,
              "duration": 0.16041666666666668
            },
            {
              "pitch": 115,
              "velocity": 75,
              "position": 3,
              "duration": 0.14583333333333334
            },
            {
              "pitch": 67,
              "velocity": 80,
              "position": 3.01875,
              "duration": 0.27708333333333335
            },
            {
              "pitch": 55,
              "velocity": 78,
              "position": 3,
              "duration": 0.29583333333333334
            },
            {
              "pitch": 114,
              "velocity": 75,
              "position": 3.308333333333333,
              "duration": 0.125
            },
            {
              "pitch": 67,
              "velocity": 63,
              "position": 3.308333333333333,
              "duration": 0.17916666666666667
            },
            {
              "pitch": 55,
              "velocity": 61,
              "position": 3.3270833333333334,
              "duration": 0.1625
            },
            {
              "pitch": 115,
              "velocity": 75,
              "position": 3.5,
              "duration": 0.010416666666666666
            },
            {
              "pitch": 55,
              "velocity": 78,
              "position": 3.5,
              "duration": 0.29583333333333334
            },
            {
              "pitch": 67,
              "velocity": 80,
              "position": 3.51875,
              "duration": 0.27708333333333335
            },
            {
              "pitch": 114,
              "velocity": 75,
              "position": 3.808333333333333,
              "duration": 0.010416666666666666
            },
            {
              "pitch": 67,
              "velocity": 63,
              "position": 3.808333333333333,
              "duration": 0.17916666666666667
            },
            {
              "pitch": 55,
              "velocity": 61,
              "position": 3.8270833333333334,
              "duration": 0.16041666666666668
            },
            {
              "pitch": 55,
              "velocity": 38,
              "position": 4,
              "duration": 0.29583333333333334
            },
            {
              "pitch": 67,
              "velocity": 40,
              "position": 4.01875,
              "duration": 0.27708333333333335
            },
            {
              "pitch": 115,
              "velocity": 75,
              "position": 4,
              "duration": 0.3645833333333333
            },
            {
              "pitch": 55,
              "velocity": 78,
              "position": 4.327083333333333,
              "duration": 0.16041666666666668
            },
            {
              "pitch": 67,
              "velocity": 4,
              "position": 4.308333333333334,
              "duration": 0.17916666666666667
            },
            {
              "pitch": 114,
              "velocity": 40,
              "position": 4.308333333333334,
              "duration": 0.19166666666666668
            },
            {
              "pitch": 55,
              "velocity": 80,
              "position": 4.5,
              "duration": 0.29583333333333334
            },
            {
              "pitch": 67,
              "velocity": 82,
              "position": 4.51875,
              "duration": 0.27708333333333335
            },
            {
              "pitch": 113,
              "velocity": 40,
              "position": 4.5,
              "duration": 0.30833333333333335
            },
            {
              "pitch": 114,
              "velocity": 75,
              "position": 4.808333333333334,
              "duration": 0.14583333333333334
            },
            {
              "pitch": 55,
              "velocity": 38,
              "position": 4.827083333333333,
              "duration": 0.16041666666666668
            },
            {
              "pitch": 67,
              "velocity": 40,
              "position": 4.808333333333334,
              "duration": 0.17916666666666667
            },
            {
              "pitch": 55,
              "velocity": 63,
              "position": 5,
              "duration": 0.29583333333333334
            },
            {
              "pitch": 67,
              "velocity": 65,
              "position": 5.01875,
              "duration": 0.27708333333333335
            },
            {
              "pitch": 115,
              "velocity": 40,
              "position": 5,
              "duration": 0.30833333333333335
            },
            {
              "pitch": 67,
              "velocity": 40,
              "position": 5.308333333333334,
              "duration": 0.17916666666666667
            },
            {
              "pitch": 55,
              "velocity": 78,
              "position": 5.327083333333333,
              "duration": 0.1625
            },
            {
              "pitch": 114,
              "velocity": 40,
              "position": 5.308333333333334,
              "duration": 0.19166666666666668
            },
            {
              "pitch": 115,
              "velocity": 75,
              "position": 5.5,
              "duration": 0.17708333333333334
            },
            {
              "pitch": 67,
              "velocity": 80,
              "position": 5.51875,
              "duration": 0.27708333333333335
            },
            {
              "pitch": 55,
              "velocity": 78,
              "position": 5.5,
              "duration": 0.29583333333333334
            },
            {
              "pitch": 114,
              "velocity": 75,
              "position": 5.808333333333334,
              "duration": 0.125
            },
            {
              "pitch": 55,
              "velocity": 38,
              "position": 5.827083333333333,
              "duration": 0.16041666666666668
            },
            {
              "pitch": 67,
              "velocity": 40,
              "position": 5.808333333333334,
              "duration": 0.17916666666666667
            },
            {
              "pitch": 55,
              "velocity": 78,
              "position": 6,
              "duration": 0.29583333333333334
            },
            {
              "pitch": 67,
              "velocity": 80,
              "position": 6.01875,
              "duration": 0.27708333333333335
            },
            {
              "pitch": 113,
              "velocity": 40,
              "position": 6,
              "duration": 0.30833333333333335
            },
            {
              "pitch": 67,
              "velocity": 40,
              "position": 6.308333333333334,
              "duration": 0.020833333333333332
            },
            {
              "pitch": 55,
              "velocity": 38,
              "position": 6.327083333333333,
              "duration": 0.020833333333333332
            },
            {
              "pitch": 114,
              "velocity": 75,
              "position": 6.308333333333334,
              "duration": 0.125
            },
            {
              "pitch": 55,
              "velocity": 78,
              "position": 6.5,
              "duration": 0.29583333333333334
            },
            {
              "pitch": 67,
              "velocity": 80,
              "position": 6.51875,
              "duration": 0.27708333333333335
            },
            {
              "pitch": 115,
              "velocity": 40,
              "position": 6.5,
              "duration": 0.30833333333333335
            },
            {
              "pitch": 114,
              "velocity": 75,
              "position": 6.808333333333334,
              "duration": 0.010416666666666666
            },
            {
              "pitch": 67,
              "velocity": 63,
              "position": 6.808333333333334,
              "duration": 0.17916666666666667
            },
            {
              "pitch": 55,
              "velocity": 61,
              "position": 6.827083333333333,
              "duration": 0.16041666666666668
            },
            {
              "pitch": 115,
              "velocity": 75,
              "position": 7,
              "duration": 0.14583333333333334
            },
            {
              "pitch": 67,
              "velocity": 80,
              "position": 7.01875,
              "duration": 0.27708333333333335
            },
            {
              "pitch": 55,
              "velocity": 78,
              "position": 7,
              "duration": 0.29583333333333334
            },
            {
              "pitch": 114,
              "velocity": 75,
              "position": 7.308333333333334,
              "duration": 0.125
            },
            {
              "pitch": 67,
              "velocity": 63,
              "position": 7.308333333333334,
              "duration": 0.17916666666666667
            },
            {
              "pitch": 55,
              "velocity": 61,
              "position": 7.327083333333333,
              "duration": 0.1625
            },
            {
              "pitch": 115,
              "velocity": 75,
              "position": 7.5,
              "duration": 0.010416666666666666
            },
            {
              "pitch": 55,
              "velocity": 78,
              "position": 7.5,
              "duration": 0.29583333333333334
            },
            {
              "pitch": 67,
              "velocity": 80,
              "position": 7.51875,
              "duration": 0.27708333333333335
            },
            {
              "pitch": 114,
              "velocity": 75,
              "position": 7.808333333333334,
              "duration": 0.010416666666666666
            },
            {
              "pitch": 67,
              "velocity": 63,
              "position": 7.808333333333334,
              "duration": 0.17916666666666667
            },
            {
              "pitch": 55,
              "velocity": 61,
              "position": 7.827083333333333,
              "duration": 0.16041666666666668
            },
            {
              "pitch": 57,
              "velocity": 38,
              "position": 8,
              "duration": 0.29583333333333334
            },
            {
              "pitch": 69,
              "velocity": 40,
              "position": 8.01875,
              "duration": 0.27708333333333335
            },
            {
              "pitch": 115,
              "velocity": 75,
              "position": 8,
              "duration": 0.3645833333333333
            },
            {
              "pitch": 57,
              "velocity": 78,
              "position": 8.327083333333333,
              "duration": 0.16041666666666668
            },
            {
              "pitch": 69,
              "velocity": 4,
              "position": 8.308333333333334,
              "duration": 0.17916666666666667
            },
            {
              "pitch": 114,
              "velocity": 40,
              "position": 8.308333333333334,
              "duration": 0.19166666666666668
            },
            {
              "pitch": 57,
              "velocity": 80,
              "position": 8.5,
              "duration": 0.29583333333333334
            },
            {
              "pitch": 69,
              "velocity": 82,
              "position": 8.51875,
              "duration": 0.27708333333333335
            },
            {
              "pitch": 113,
              "velocity": 40,
              "position": 8.5,
              "duration": 0.30833333333333335
            },
            {
              "pitch": 114,
              "velocity": 75,
              "position": 8.808333333333334,
              "duration": 0.14583333333333334
            },
            {
              "pitch": 57,
              "velocity": 38,
              "position": 8.827083333333333,
              "duration": 0.16041666666666668
            },
            {
              "pitch": 69,
              "velocity": 40,
              "position": 8.808333333333334,
              "duration": 0.17916666666666667
            },
            {
              "pitch": 57,
              "velocity": 63,
              "position": 9,
              "duration": 0.29583333333333334
            },
            {
              "pitch": 69,
              "velocity": 65,
              "position": 9.01875,
              "duration": 0.27708333333333335
            },
            {
              "pitch": 115,
              "velocity": 40,
              "position": 9,
              "duration": 0.30833333333333335
            },
            {
              "pitch": 57,
              "velocity": 78,
              "position": 9.327083333333333,
              "duration": 0.1625
            },
            {
              "pitch": 114,
              "velocity": 40,
              "position": 9.308333333333334,
              "duration": 0.19166666666666668
            },
            {
              "pitch": 115,
              "velocity": 75,
              "position": 9.5,
              "duration": 0.17708333333333334
            },
            {
              "pitch": 69,
              "velocity": 80,
              "position": 9.51875,
              "duration": 0.27708333333333335
            },
            {
              "pitch": 57,
              "velocity": 78,
              "position": 9.5,
              "duration": 0.29583333333333334
            },
            {
              "pitch": 114,
              "velocity": 75,
              "position": 9.808333333333334,
              "duration": 0.125
            },
            {
              "pitch": 57,
              "velocity": 38,
              "position": 9.827083333333333,
              "duration": 0.16041666666666668
            },
            {
              "pitch": 69,
              "velocity": 40,
              "position": 9.808333333333334,
              "duration": 0.17916666666666667
            },
            {
              "pitch": 114,
              "velocity": 75,
              "position": 10.308333333333334,
              "duration": 0.125
            },
            {
              "pitch": 57,
              "velocity": 78,
              "position": 10.5,
              "duration": 0.29583333333333334
            },
            {
              "pitch": 69,
              "velocity": 80,
              "position": 10.51875,
              "duration": 0.27708333333333335
            },
            {
              "pitch": 115,
              "velocity": 40,
              "position": 10.5,
              "duration": 0.30833333333333335
            },
            {
              "pitch": 114,
              "velocity": 75,
              "position": 10.808333333333334,
              "duration": 0.010416666666666666
            },
            {
              "pitch": 69,
              "velocity": 40,
              "position": 10.808333333333334,
              "duration": 0.17916666666666667
            },
            {
              "pitch": 57,
              "velocity": 38,
              "position": 10.827083333333333,
              "duration": 0.16041666666666668
            },
            {
              "pitch": 114,
              "velocity": 75,
              "position": 11.308333333333334,
              "duration": 0.125
            },
            {
              "pitch": 69,
              "velocity": 63,
              "position": 11.308333333333334,
              "duration": 0.17916666666666667
            },
            {
              "pitch": 57,
              "velocity": 61,
              "position": 11.327083333333333,
              "duration": 0.1625
            },
            {
              "pitch": 115,
              "velocity": 75,
              "position": 11.5,
              "duration": 0.010416666666666666
            },
            {
              "pitch": 57,
              "velocity": 78,
              "position": 11.5,
              "duration": 0.29583333333333334
            },
            {
              "pitch": 69,
              "velocity": 80,
              "position": 11.51875,
              "duration": 0.27708333333333335
            },
            {
              "pitch": 114,
              "velocity": 75,
              "position": 11.808333333333334,
              "duration": 0.010416666666666666
            },
            {
              "pitch": 67,
              "velocity": 57,
              "position": 11.808333333333334,
              "duration": 3.245833333333333
            },
            {
              "pitch": 55,
              "velocity": 55,
              "position": 11.827083333333333,
              "duration": 3.2270833333333333
            }
          ]
        },
        "15": {
          "ctab": {
            "srcChannel": 15,
            "name": "brass",
            "accType": "PHRASE2",
            "editable": false,
            "mutedNotes": [],
            "mutedChords": [
              "dim7",
              "dim",
              "minMaj7(9)",
              "minMaj7",
              "min7(11)",
              "min7(9)",
              "min(9)",
              "m7b5",
              "min7",
              "min6",
              "min"
            ],
            "autoStart": false,
            "sourceChordNote": 0,
            "sourceChordType": "Maj",
            "ctb2Low": null,
            "ctb2Main": {
              "ntr": "ROOT_TRANSPOSITION",
              "ntt": "BYPASS",
              "bassOn": false,
              "chordRootUpperLimit": 7,
              "noteLowLimit": 0,
              "noteHighLimit": 127,
              "rtr": "PITCH_SHIFT"
            },
            "ctb2High": null
          },
          "notes": [
            {
              "pitch": 62,
              "velocity": 81,
              "position": 0,
              "duration": 0.3020833333333333
            },
            {
              "pitch": 71,
              "velocity": 85,
              "position": 0,
              "duration": 0.3020833333333333
            },
            {
              "pitch": 67,
              "velocity": 81,
              "position": 0,
              "duration": 0.3020833333333333
            },
            {
              "pitch": 64,
              "velocity": 81,
              "position": 0,
              "duration": 0.3020833333333333
            },
            {
              "pitch": 62,
              "velocity": 51,
              "position": 0.30833333333333335,
              "duration": 0.18541666666666667
            },
            {
              "pitch": 71,
              "velocity": 55,
              "position": 0.30833333333333335,
              "duration": 0.18541666666666667
            },
            {
              "pitch": 67,
              "velocity": 51,
              "position": 0.30833333333333335,
              "duration": 0.18541666666666667
            },
            {
              "pitch": 64,
              "velocity": 51,
              "position": 0.30833333333333335,
              "duration": 0.18541666666666667
            },
            {
              "pitch": 62,
              "velocity": 111,
              "position": 0.5,
              "duration": 0.3020833333333333
            },
            {
              "pitch": 71,
              "velocity": 115,
              "position": 0.5,
              "duration": 0.3020833333333333
            },
            {
              "pitch": 67,
              "velocity": 111,
              "position": 0.5,
              "duration": 0.3020833333333333
            },
            {
              "pitch": 64,
              "velocity": 111,
              "position": 0.5,
              "duration": 0.3020833333333333
            },
            {
              "pitch": 62,
              "velocity": 81,
              "position": 0.8083333333333333,
              "duration": 0.21041666666666667
            },
            {
              "pitch": 71,
              "velocity": 85,
              "position": 0.8083333333333333,
              "duration": 0.21041666666666667
            },
            {
              "pitch": 67,
              "velocity": 81,
              "position": 0.8083333333333333,
              "duration": 0.21041666666666667
            },
            {
              "pitch": 64,
              "velocity": 81,
              "position": 0.8083333333333333,
              "duration": 0.21041666666666667
            },
            {
              "pitch": 64,
              "velocity": 81,
              "position": 1.2875,
              "duration": 0.21041666666666667
            },
            {
              "pitch": 72,
              "velocity": 85,
              "position": 1.2875,
              "duration": 0.21041666666666667
            },
            {
              "pitch": 69,
              "velocity": 81,
              "position": 1.2875,
              "duration": 0.21041666666666667
            },
            {
              "pitch": 65,
              "velocity": 81,
              "position": 1.2875,
              "duration": 0.21041666666666667
            },
            {
              "pitch": 62,
              "velocity": 81,
              "position": 1.7875,
              "duration": 0.21041666666666667
            },
            {
              "pitch": 71,
              "velocity": 85,
              "position": 1.7875,
              "duration": 0.21041666666666667
            },
            {
              "pitch": 67,
              "velocity": 81,
              "position": 1.7875,
              "duration": 0.21041666666666667
            },
            {
              "pitch": 64,
              "velocity": 81,
              "position": 1.7875,
              "duration": 0.21041666666666667
            },
            {
              "pitch": 62,
              "velocity": 51,
              "position": 2.2875,
              "duration": 0.18125
            },
            {
              "pitch": 71,
              "velocity": 85,
              "position": 2.2875,
              "duration": 0.18125
            },
            {
              "pitch": 67,
              "velocity": 51,
              "position": 2.2875,
              "duration": 0.18125
            },
            {
              "pitch": 64,
              "velocity": 85,
              "position": 2.2875,
              "duration": 0.18125
            },
            {
              "pitch": 69,
              "velocity": 84,
              "position": 2.4791666666666665,
              "duration": 0.49375
            },
            {
              "pitch": 59,
              "velocity": 81,
              "position": 2.9791666666666665,
              "duration": 0.4895833333333333
            },
            {
              "pitch": 67,
              "velocity": 85,
              "position": 2.9791666666666665,
              "duration": 0.4895833333333333
            },
            {
              "pitch": 64,
              "velocity": 81,
              "position": 2.9791666666666665,
              "duration": 0.4895833333333333
            },
            {
              "pitch": 62,
              "velocity": 81,
              "position": 2.9791666666666665,
              "duration": 0.4895833333333333
            },
            {
              "pitch": 60,
              "velocity": 81,
              "position": 3.4791666666666665,
              "duration": 0.4895833333333333
            },
            {
              "pitch": 69,
              "velocity": 85,
              "position": 3.4791666666666665,
              "duration": 0.4895833333333333
            },
            {
              "pitch": 65,
              "velocity": 81,
              "position": 3.4791666666666665,
              "duration": 0.4895833333333333
            },
            {
              "pitch": 62,
              "velocity": 81,
              "position": 3.4791666666666665,
              "duration": 0.4895833333333333
            },
            {
              "pitch": 60,
              "velocity": 81,
              "position": 3.9791666666666665,
              "duration": 0.3020833333333333
            },
            {
              "pitch": 71,
              "velocity": 85,
              "position": 3.9791666666666665,
              "duration": 0.3020833333333333
            },
            {
              "pitch": 67,
              "velocity": 81,
              "position": 3.9791666666666665,
              "duration": 0.3020833333333333
            },
            {
              "pitch": 63,
              "velocity": 81,
              "position": 3.9791666666666665,
              "duration": 0.3020833333333333
            },
            {
              "pitch": 60,
              "velocity": 51,
              "position": 4.2875,
              "duration": 0.18541666666666667
            },
            {
              "pitch": 71,
              "velocity": 55,
              "position": 4.2875,
              "duration": 0.18541666666666667
            },
            {
              "pitch": 67,
              "velocity": 51,
              "position": 4.2875,
              "duration": 0.18541666666666667
            },
            {
              "pitch": 63,
              "velocity": 51,
              "position": 4.2875,
              "duration": 0.18541666666666667
            },
            {
              "pitch": 60,
              "velocity": 111,
              "position": 4.479166666666667,
              "duration": 0.3020833333333333
            },
            {
              "pitch": 71,
              "velocity": 115,
              "position": 4.479166666666667,
              "duration": 0.3020833333333333
            },
            {
              "pitch": 67,
              "velocity": 111,
              "position": 4.479166666666667,
              "duration": 0.3020833333333333
            },
            {
              "pitch": 63,
              "velocity": 111,
              "position": 4.479166666666667,
              "duration": 0.3020833333333333
            },
            {
              "pitch": 60,
              "velocity": 81,
              "position": 4.7875,
              "duration": 0.21041666666666667
            },
            {
              "pitch": 71,
              "velocity": 85,
              "position": 4.7875,
              "duration": 0.21041666666666667
            },
            {
              "pitch": 67,
              "velocity": 81,
              "position": 4.7875,
              "duration": 0.21041666666666667
            },
            {
              "pitch": 63,
              "velocity": 81,
              "position": 4.7875,
              "duration": 0.21041666666666667
            },
            {
              "pitch": 60,
              "velocity": 81,
              "position": 5.2875,
              "duration": 0.21041666666666667
            },
            {
              "pitch": 72,
              "velocity": 85,
              "position": 5.2875,
              "duration": 0.21041666666666667
            },
            {
              "pitch": 69,
              "velocity": 81,
              "position": 5.2875,
              "duration": 0.21041666666666667
            },
            {
              "pitch": 63,
              "velocity": 81,
              "position": 5.2875,
              "duration": 0.21041666666666667
            },
            {
              "pitch": 60,
              "velocity": 81,
              "position": 5.7875,
              "duration": 0.21041666666666667
            },
            {
              "pitch": 71,
              "velocity": 85,
              "position": 5.7875,
              "duration": 0.21041666666666667
            },
            {
              "pitch": 67,
              "velocity": 81,
              "position": 5.7875,
              "duration": 0.21041666666666667
            },
            {
              "pitch": 63,
              "velocity": 81,
              "position": 5.7875,
              "duration": 0.21041666666666667
            },
            {
              "pitch": 69,
              "velocity": 85,
              "position": 6.479166666666667,
              "duration": 0.3333333333333333
            },
            {
              "pitch": 71,
              "velocity": 118,
              "position": 6.8125,
              "duration": 0.08333333333333333
            },
            {
              "pitch": 60,
              "velocity": 81,
              "position": 6.479166666666667,
              "duration": 0.4895833333333333
            },
            {
              "pitch": 63,
              "velocity": 81,
              "position": 6.479166666666667,
              "duration": 0.4895833333333333
            },
            {
              "pitch": 65,
              "velocity": 81,
              "position": 6.479166666666667,
              "duration": 0.4895833333333333
            },
            {
              "pitch": 69,
              "velocity": 114,
              "position": 6.895833333333333,
              "duration": 0.08333333333333333
            },
            {
              "pitch": 57,
              "velocity": 81,
              "position": 6.979166666666667,
              "duration": 0.4895833333333333
            },
            {
              "pitch": 63,
              "velocity": 81,
              "position": 6.979166666666667,
              "duration": 0.4895833333333333
            },
            {
              "pitch": 60,
              "velocity": 81,
              "position": 6.979166666666667,
              "duration": 0.4895833333333333
            },
            {
              "pitch": 60,
              "velocity": 81,
              "position": 7.479166666666667,
              "duration": 0.4895833333333333
            },
            {
              "pitch": 69,
              "velocity": 85,
              "position": 7.479166666666667,
              "duration": 0.4895833333333333
            },
            {
              "pitch": 65,
              "velocity": 81,
              "position": 7.479166666666667,
              "duration": 0.4895833333333333
            },
            {
              "pitch": 63,
              "velocity": 81,
              "position": 7.479166666666667,
              "duration": 0.4895833333333333
            },
            {
              "pitch": 62,
              "velocity": 81,
              "position": 7.979166666666667,
              "duration": 0.3020833333333333
            },
            {
              "pitch": 72,
              "velocity": 85,
              "position": 7.979166666666667,
              "duration": 0.3020833333333333
            },
            {
              "pitch": 69,
              "velocity": 81,
              "position": 7.979166666666667,
              "duration": 0.3020833333333333
            },
            {
              "pitch": 65,
              "velocity": 81,
              "position": 7.979166666666667,
              "duration": 0.3020833333333333
            },
            {
              "pitch": 62,
              "velocity": 51,
              "position": 8.2875,
              "duration": 0.18541666666666667
            },
            {
              "pitch": 72,
              "velocity": 55,
              "position": 8.2875,
              "duration": 0.18541666666666667
            },
            {
              "pitch": 69,
              "velocity": 51,
              "position": 8.2875,
              "duration": 0.18541666666666667
            },
            {
              "pitch": 65,
              "velocity": 51,
              "position": 8.2875,
              "duration": 0.18541666666666667
            },
            {
              "pitch": 62,
              "velocity": 111,
              "position": 8.479166666666666,
              "duration": 0.3020833333333333
            },
            {
              "pitch": 72,
              "velocity": 115,
              "position": 8.479166666666666,
              "duration": 0.3020833333333333
            },
            {
              "pitch": 69,
              "velocity": 111,
              "position": 8.479166666666666,
              "duration": 0.3020833333333333
            },
            {
              "pitch": 65,
              "velocity": 111,
              "position": 8.479166666666666,
              "duration": 0.3020833333333333
            },
            {
              "pitch": 62,
              "velocity": 81,
              "position": 8.7875,
              "duration": 0.21041666666666667
            },
            {
              "pitch": 72,
              "velocity": 85,
              "position": 8.7875,
              "duration": 0.21041666666666667
            },
            {
              "pitch": 69,
              "velocity": 81,
              "position": 8.7875,
              "duration": 0.21041666666666667
            },
            {
              "pitch": 65,
              "velocity": 81,
              "position": 8.7875,
              "duration": 0.21041666666666667
            },
            {
              "pitch": 65,
              "velocity": 81,
              "position": 9.7875,
              "duration": 0.21041666666666667
            },
            {
              "pitch": 76,
              "velocity": 85,
              "position": 9.7875,
              "duration": 0.21041666666666667
            },
            {
              "pitch": 72,
              "velocity": 81,
              "position": 9.7875,
              "duration": 0.21041666666666667
            },
            {
              "pitch": 69,
              "velocity": 81,
              "position": 9.7875,
              "duration": 0.21041666666666667
            },
            {
              "pitch": 62,
              "velocity": 81,
              "position": 10.7875,
              "duration": 0.21041666666666667
            },
            {
              "pitch": 72,
              "velocity": 85,
              "position": 10.7875,
              "duration": 0.21041666666666667
            },
            {
              "pitch": 69,
              "velocity": 81,
              "position": 10.7875,
              "duration": 0.21041666666666667
            },
            {
              "pitch": 65,
              "velocity": 81,
              "position": 10.7875,
              "duration": 0.21041666666666667
            },
            {
              "pitch": 64,
              "velocity": 81,
              "position": 11.7875,
              "duration": 3.410416666666667
            },
            {
              "pitch": 74,
              "velocity": 85,
              "position": 11.7875,
              "duration": 3.410416666666667
            },
            {
              "pitch": 71,
              "velocity": 81,
              "position": 11.7875,
              "duration": 3.410416666666667
            },
            {
              "pitch": 67,
              "velocity": 81,
              "position": 11.7875,
              "duration": 3.410416666666667
            }
          ]
        }
      }
    }
  }
}