{
  "name": "JazzFunk.S120.STY",
  "tempo": 120,
  "timeSignature": "4/4",
  "ticksPerQuarter": 1920,
  "sffType": "SFF1",
  "division": "BINARY",
  "parts": {
    "Main_A": {
      "type": "Main_A",
      "sizeInBeats": 16,
      "channels": {
        "1": {
          "ctab": {
            "srcChannel": 1,
            "name": "Bass P",
            "accType": "BASS",
            "editable": false,
            "mutedNotes": [],
            "mutedChords": [
              "sus4",
              "7aug",
              "7(#9)",
              "7(9)",
              "7b5",
              "7sus4",
              "7th",
              "min7(11)",
              "min7(9)",
              "min(9)",
              "m7b5",
              "min7",
              "min",
              "Maj"
            ],
            "autoStart": false,
            "sourceChordNote": 0,
            "sourceChordType": "Maj7",
            "ctb2Low": null,
            "ctb2Main": {
              "ntr": "ROOT_TRANSPOSITION",
              "ntt": "MELODY",
              "bassOn": true,
              "chordRootUpperLimit": 3,
              "noteLowLimit": 28,
              "noteHighLimit": 127,
              "rtr": "PITCH_SHIFT_TO_ROOT"
            },
            "ctb2High": null
          },
          "notes": [
            {
              "pitch": 36,
              "velocity": 80,
              "position": 0,
              "duration": 0.9854166666666667
            },
            {
              "pitch": 36,
              "velocity": 110,
              "position": 1,
              "duration": 0.13125
            },
            {
              "pitch": 48,
              "velocity": 80,
              "position": 1.5,
              "duration": 0.48541666666666666
            },
            {
              "pitch": 48,
              "velocity": 110,
              "position": 2,
              "duration": 0.13125
            },
            {
              "pitch": 43,
              "velocity": 80,
              "position": 2.5,
              "duration": 0.48541666666666666
            },
            {
              "pitch": 43,
              "velocity": 110,
              "position": 3,
              "duration": 0.13125
            },
            {
              "pitch": 36,
              "velocity": 80,
              "position": 3.5,
              "duration": 0.48541666666666666
            },
            {
              "pitch": 36,
              "velocity": 110,
              "position": 4,
              "duration": 0.13125
            },
            {
              "pitch": 36,
              "velocity": 110,
              "position": 4.25,
              "duration": 0.23541666666666666
            },
            {
              "pitch": 36,
              "velocity": 70,
              "position": 4.5,
              "duration": 0.23541666666666666
            },
            {
              "pitch": 36,
              "velocity": 80,
              "position": 5,
              "duration": 0.48541666666666666
            },
            {
              "pitch": 36,
              "velocity": 110,
              "position": 5.75,
              "duration": 0.13125
            },
            {
              "pitch": 40,
              "velocity": 80,
              "position": 6,
              "duration": 0.13125
            },
            {
              "pitch": 36,
              "velocity": 110,
              "position": 6.25,
              "duration": 0.13125
            },
            {
              "pitch": 40,
              "velocity": 80,
              "position": 6.5,
              "duration": 0.48541666666666666
            },
            {
              "pitch": 43,
              "velocity": 80,
              "position": 7,
              "duration": 0.48541666666666666
            },
            {
              "pitch": 45,
              "velocity": 60,
              "position": 7.5,
              "duration": 0.23541666666666666
            },
            {
              "pitch": 36,
              "velocity": 80,
              "position": 8,
              "duration": 0.9854166666666667
            },
            {
              "pitch": 36,
              "velocity": 110,
              "position": 9,
              "duration": 0.13125
            },
            {
              "pitch": 48,
              "velocity": 80,
              "position": 9.5,
              "duration": 0.48541666666666666
            },
            {
              "pitch": 48,
              "velocity": 110,
              "position": 10,
              "duration": 0.13125
            },
            {
              "pitch": 43,
              "velocity": 80,
              "position": 10.5,
              "duration": 0.48541666666666666
            },
            {
              "pitch": 43,
              "velocity": 110,
              "position": 11,
              "duration": 0.13125
            },
            {
              "pitch": 36,
              "velocity": 80,
              "position": 11.5,
              "duration": 0.48541666666666666
            },
            {
              "pitch": 36,
              "velocity": 110,
              "position": 12,
              "duration": 0.13125
            },
            {
              "pitch": 36,
              "velocity": 110,
              "position": 12.25,
              "duration": 0.23541666666666666
            },
            {
              "pitch": 36,
              "velocity": 70,
              "position": 12.5,
              "duration": 0.23541666666666666
            },
            {
              "pitch": 36,
              "velocity": 80,
              "position": 13,
              "duration": 0.48541666666666666
            },
            {
              "pitch": 36,
              "velocity": 110,
              "position": 13.75,
              "duration": 0.13125
            },
            {
              "pitch": 40,
              "velocity": 80,
              "position": 14,
              "duration": 0.13125
            },
            {
              "pitch": 36,
              "velocity": 110,
              "position": 14.25,
              "duration": 0.13125
            },
            {
              "pitch": 40,
              "velocity": 80,
              "position": 14.5,
              "duration": 0.48541666666666666
            },
            {
              "pitch": 43,
              "velocity": 80,
              "position": 15,
              "duration": 0.48541666666666666
            },
            {
              "pitch": 45,
              "velocity": 60,
              "position": 15.5,
              "duration": 0.23541666666666666
            }
          ]
        },
        "2": {
          "ctab": {
            "srcChannel": 2,
            "name": "Gt P",
            "accType": "CHORD1",
            "editable": false,
            "mutedNotes": [],
            "mutedChords": [
              "7(9)",
              "7th",
              "min7(9)",
              "min(9)",
              "min7",
              "Maj"
            ],
            "autoStart": false,
            "sourceChordNote": 0,
            "sourceChordType": "Maj7",
            "ctb2Low": null,
            "ctb2Main": {
              "ntr": "ROOT_TRANSPOSITION",
              "ntt": "MELODY",
              "bassOn": false,
              "chordRootUpperLimit": 7,
              "noteLowLimit": 0,
              "noteHighLimit": 127,
              "rtr": "PITCH_SHIFT"
            },
            "ctb2High": null
          },
          "notes": [
            {
              "pitch": 64,
              "velocity": 35,
              "position": 0.020833333333333332,
              "duration": 0.21458333333333332
            },
            {
              "pitch": 60,
              "velocity": 35,
              "position": 0.010416666666666666,
              "duration": 0.23541666666666666
            },
            {
              "pitch": 55,
              "velocity": 35,
              "position": 0,
              "duration": 0.25625
            },
            {
              "pitch": 59,
              "velocity": 35,
              "position": 0,
              "duration": 0.25625
            },
            {
              "pitch": 55,
              "velocity": 16,
              "position": 0.2708333333333333,
              "duration": 0.21458333333333332
            },
            {
              "pitch": 59,
              "velocity": 16,
              "position": 0.2708333333333333,
              "duration": 0.21458333333333332
            },
            {
              "pitch": 60,
              "velocity": 16,
              "position": 0.2604166666666667,
              "duration": 0.23541666666666666
            },
            {
              "pitch": 64,
              "velocity": 16,
              "position": 0.25,
              "duration": 0.25625
            },
            {
              "pitch": 67,
              "velocity": 35,
              "position": 0.03125,
              "duration": 0.48541666666666666
            },
            {
              "pitch": 71,
              "velocity": 35,
              "position": 0.03125,
              "duration": 0.48541666666666666
            },
            {
              "pitch": 67,
              "velocity": 19,
              "position": 0.53125,
              "duration": 0.20416666666666666
            },
            {
              "pitch": 71,
              "velocity": 19,
              "position": 0.53125,
              "duration": 0.20416666666666666
            },
            {
              "pitch": 64,
              "velocity": 19,
              "position": 0.5208333333333334,
              "duration": 0.225
            },
            {
              "pitch": 60,
              "velocity": 19,
              "position": 0.5104166666666666,
              "duration": 0.24583333333333332
            },
            {
              "pitch": 55,
              "velocity": 19,
              "position": 0.5,
              "duration": 0.48541666666666666
            },
            {
              "pitch": 59,
              "velocity": 19,
              "position": 0.5,
              "duration": 0.48541666666666666
            },
            {
              "pitch": 60,
              "velocity": 22,
              "position": 0.7708333333333334,
              "duration": 0.225
            },
            {
              "pitch": 64,
              "velocity": 22,
              "position": 0.7604166666666666,
              "duration": 0.24583333333333332
            },
            {
              "pitch": 67,
              "velocity": 22,
              "position": 0.75,
              "duration": 0.26666666666666666
            },
            {
              "pitch": 71,
              "velocity": 22,
              "position": 0.75,
              "duration": 0.26666666666666666
            },
            {
              "pitch": 64,
              "velocity": 35,
              "position": 1.0208333333333333,
              "duration": 0.21458333333333332
            },
            {
              "pitch": 60,
              "velocity": 35,
              "position": 1.0104166666666667,
              "duration": 0.23541666666666666
            },
            {
              "pitch": 55,
              "velocity": 35,
              "position": 1,
              "duration": 0.25625
            },
            {
              "pitch": 59,
              "velocity": 35,
              "position": 1,
              "duration": 0.25625
            },
            {
              "pitch": 55,
              "velocity": 16,
              "position": 1.2708333333333333,
              "duration": 0.21458333333333332
            },
            {
              "pitch": 59,
              "velocity": 16,
              "position": 1.2708333333333333,
              "duration": 0.21458333333333332
            },
            {
              "pitch": 60,
              "velocity": 16,
              "position": 1.2604166666666667,
              "duration": 0.23541666666666666
            },
            {
              "pitch": 64,
              "velocity": 16,
              "position": 1.25,
              "duration": 0.25625
            },
            {
              "pitch": 67,
              "velocity": 35,
              "position": 1.03125,
              "duration": 0.48541666666666666
            },
            {
              "pitch": 71,
              "velocity": 35,
              "position": 1.03125,
              "duration": 0.48541666666666666
            },
            {
              "pitch": 67,
              "velocity": 19,
              "position": 1.53125,
              "duration": 0.20416666666666666
            },
            {
              "pitch": 71,
              "velocity": 19,
              "position": 1.53125,
              "duration": 0.20416666666666666
            },
            {
              "pitch": 64,
              "velocity": 19,
              "position": 1.5208333333333333,
              "duration": 0.225
            },
            {
              "pitch": 60,
              "velocity": 19,
              "position": 1.5104166666666667,
              "duration": 0.24583333333333332
            },
            {
              "pitch": 55,
              "velocity": 19,
              "position": 1.5,
              "duration": 0.48541666666666666
            },
            {
              "pitch": 59,
              "velocity": 19,
              "position": 1.5,
              "duration": 0.48541666666666666
            },
            {
              "pitch": 60,
              "velocity": 22,
              "position": 1.7708333333333333,
              "duration": 0.225
            },
            {
              "pitch": 64,
              "velocity": 22,
              "position": 1.7604166666666667,
              "duration": 0.24583333333333332
            },
            {
              "pitch": 67,
              "velocity": 22,
              "position": 1.75,
              "duration": 0.26666666666666666
            },
            {
              "pitch": 71,
              "velocity": 22,
              "position": 1.75,
              "duration": 0.26666666666666666
            },
            {
              "pitch": 55,
              "velocity": 29,
              "position": 2,
              "duration": 0.48541666666666666
            },
            {
              "pitch": 59,
              "velocity": 29,
              "position": 2,
              "duration": 0.48541666666666666
            },
            {
              "pitch": 60,
              "velocity": 29,
              "position": 2.0104166666666665,
              "duration": 0.48541666666666666
            },
            {
              "pitch": 64,
              "velocity": 29,
              "position": 2.0208333333333335,
              "duration": 0.48541666666666666
            },
            {
              "pitch": 67,
              "velocity": 29,
              "position": 2.03125,
              "duration": 0.48541666666666666
            },
            {
              "pitch": 71,
              "velocity": 29,
              "position": 2.03125,
              "duration": 0.48541666666666666
            },
            {
              "pitch": 55,
              "velocity": 35,
              "position": 2.5,
              "duration": 0.23541666666666666
            },
            {
              "pitch": 59,
              "velocity": 35,
              "position": 2.5,
              "duration": 0.23541666666666666
            },
            {
              "pitch": 60,
              "velocity": 35,
              "position": 2.5104166666666665,
              "duration": 0.23541666666666666
            },
            {
              "pitch": 64,
              "velocity": 35,
              "position": 2.5208333333333335,
              "duration": 0.23541666666666666
            },
            {
              "pitch": 67,
              "velocity": 35,
              "position": 2.53125,
              "duration": 0.23541666666666666
            },
            {
              "pitch": 71,
              "velocity": 35,
              "position": 2.53125,
              "duration": 0.23541666666666666
            },
            {
              "pitch": 55,
              "velocity": 35,
              "position": 3.5,
              "duration": 0.23541666666666666
            },
            {
              "pitch": 59,
              "velocity": 35,
              "position": 3.5,
              "duration": 0.23541666666666666
            },
            {
              "pitch": 60,
              "velocity": 35,
              "position": 3.5104166666666665,
              "duration": 0.23541666666666666
            },
            {
              "pitch": 64,
              "velocity": 35,
              "position": 3.5208333333333335,
              "duration": 0.23541666666666666
            },
            {
              "pitch": 67,
              "velocity": 35,
              "position": 3.53125,
              "duration": 0.23541666666666666
            },
            {
              "pitch": 71,
              "velocity": 35,
              "position": 3.53125,
              "duration": 0.23541666666666666
            },
            {
              "pitch": 64,
              "velocity": 35,
              "position": 8.020833333333334,
              "duration": 0.21458333333333332
            },
            {
              "pitch": 60,
              "velocity": 35,
              "position": 8.010416666666666,
              "duration": 0.23541666666666666
            },
            {
              "pitch": 55,
              "velocity": 35,
              "position": 8,
              "duration": 0.25625
            },
            {
              "pitch": 59,
              "velocity": 35,
              "position": 8,
              "duration": 0.25625
            },
            {
              "pitch": 55,
              "velocity": 16,
              "position": 8.270833333333334,
              "duration": 0.21458333333333332
            },
            {
              "pitch": 59,
              "velocity": 16,
              "position": 8.270833333333334,
              "duration": 0.21458333333333332
            },
            {
              "pitch": 60,
              "velocity": 16,
              "position": 8.260416666666666,
              "duration": 0.23541666666666666
            },
            {
              "pitch": 64,
              "velocity": 16,
              "position": 8.25,
              "duration": 0.25625
            },
            {
              "pitch": 67,
              "velocity": 35,
              "position": 8.03125,
              "duration": 0.48541666666666666
            },
            {
              "pitch": 71,
              "velocity": 35,
              "position": 8.03125,
              "duration": 0.48541666666666666
            },
            {
              "pitch": 67,
              "velocity": 19,
              "position": 8.53125,
              "duration": 0.20416666666666666
            },
            {
              "pitch": 71,
              "velocity": 19,
              "position": 8.53125,
              "duration": 0.20416666666666666
            },
            {
              "pitch": 64,
              "velocity": 19,
              "position": 8.520833333333334,
              "duration": 0.225
            },
            {
              "pitch": 60,
              "velocity": 19,
              "position": 8.510416666666666,
              "duration": 0.24583333333333332
            },
            {
              "pitch": 55,
              "velocity": 19,
              "position": 8.5,
              "duration": 0.48541666666666666
            },
            {
              "pitch": 59,
              "velocity": 19,
              "position": 8.5,
              "duration": 0.48541666666666666
            },
            {
              "pitch": 60,
              "velocity": 22,
              "position": 8.770833333333334,
              "duration": 0.225
            },
            {
              "pitch": 64,
              "velocity": 22,
              "position": 8.760416666666666,
              "duration": 0.24583333333333332
            },
            {
              "pitch": 67,
              "velocity": 22,
              "position": 8.75,
              "duration": 0.26666666666666666
            },
            {
              "pitch": 71,
              "velocity": 22,
              "position": 8.75,
              "duration": 0.26666666666666666
            },
            {
              "pitch": 64,
              "velocity": 35,
              "position": 9.020833333333334,
              "duration": 0.21458333333333332
            },
            {
              "pitch": 60,
              "velocity": 35,
              "position": 9.010416666666666,
              "duration": 0.23541666666666666
            },
            {
              "pitch": 55,
              "velocity": 35,
              "position": 9,
              "duration": 0.25625
            },
            {
              "pitch": 59,
              "velocity": 35,
              "position": 9,
              "duration": 0.25625
            },
            {
              "pitch": 55,
              "velocity": 16,
              "position": 9.270833333333334,
              "duration": 0.21458333333333332
            },
            {
              "pitch": 59,
              "velocity": 16,
              "position": 9.270833333333334,
              "duration": 0.21458333333333332
            },
            {
              "pitch": 60,
              "velocity": 16,
              "position": 9.260416666666666,
              "duration": 0.23541666666666666
            },
            {
              "pitch": 64,
              "velocity": 16,
              "position": 9.25,
              "duration": 0.25625
            },
            {
              "pitch": 67,
              "velocity": 35,
              "position": 9.03125,
              "duration": 0.48541666666666666
            },
            {
              "pitch": 71,
              "velocity": 35,
              "position": 9.03125,
              "duration": 0.48541666666666666
            },
            {
              "pitch": 67,
              "velocity": 19,
              "position": 9.53125,
              "duration": 0.20416666666666666
            },
            {
              "pitch": 71,
              "velocity": 19,
              "position": 9.53125,
              "duration": 0.20416666666666666
            },
            {
              "pitch": 64,
              "velocity": 19,
              "position": 9.520833333333334,
              "duration": 0.225
            },
            {
              "pitch": 60,
              "velocity": 19,
              "position": 9.510416666666666,
              "duration": 0.24583333333333332
            },
            {
              "pitch": 55,
              "velocity": 19,
              "position": 9.5,
              "duration": 0.48541666666666666
            },
            {
              "pitch": 59,
              "velocity": 19,
              "position": 9.5,
              "duration": 0.48541666666666666
            },
            {
              "pitch": 60,
              "velocity": 22,
              "position": 9.770833333333334,
              "duration": 0.225
            },
            {
              "pitch": 64,
              "velocity": 22,
              "position": 9.760416666666666,
              "duration": 0.24583333333333332
            },
            {
              "pitch": 67,
              "velocity": 22,
              "position": 9.75,
              "duration": 0.26666666666666666
            },
            {
              "pitch": 71,
              "velocity": 22,
              "position": 9.75,
              "duration": 0.26666666666666666
            },
            {
              "pitch": 55,
              "velocity": 29,
              "position": 10,
              "duration": 0.48541666666666666
            },
            {
              "pitch": 59,
              "velocity": 29,
              "position": 10,
              "duration": 0.48541666666666666
            },
            {
              "pitch": 60,
              "velocity": 29,
              "position": 10.010416666666666,
              "duration": 0.48541666666666666
            },
            {
              "pitch": 64,
              "velocity": 29,
              "position": 10.020833333333334,
              "duration": 0.48541666666666666
            },
            {
              "pitch": 67,
              "velocity": 29,
              "position": 10.03125,
              "duration": 0.48541666666666666
            },
            {
              "pitch": 71,
              "velocity": 29,
              "position": 10.03125,
              "duration": 0.48541666666666666
            },
            {
              "pitch": 55,
              "velocity": 35,
              "position": 10.5,
              "duration": 0.23541666666666666
            },
            {
              "pitch": 59,
              "velocity": 35,
              "position": 10.5,
              "duration": 0.23541666666666666
            },
            {
              "pitch": 60,
              "velocity": 35,
              "position": 10.510416666666666,
              "duration": 0.23541666666666666
            },
            {
              "pitch": 64,
              "velocity": 35,
              "position": 10.520833333333334,
              "duration": 0.23541666666666666
            },
            {
              "pitch": 67,
              "velocity": 35,
              "position": 10.53125,
              "duration": 0.23541666666666666
            },
            {
              "pitch": 71,
              "velocity": 35,
              "position": 10.53125,
              "duration": 0.23541666666666666
            },
            {
              "pitch": 55,
              "velocity": 35,
              "position": 11.5,
              "duration": 0.23541666666666666
            },
            {
              "pitch": 59,
              "velocity": 35,
              "position": 11.5,
              "duration": 0.23541666666666666
            },
            {
              "pitch": 60,
              "velocity": 35,
              "position": 11.510416666666666,
              "duration": 0.23541666666666666
            },
            {
              "pitch": 64,
              "velocity": 35,
              "position": 11.520833333333334,
              "duration": 0.23541666666666666
            },
            {
              "pitch": 67,
              "velocity": 35,
              "position": 11.53125,
              "duration": 0.23541666666666666
            },
            {
              "pitch": 71,
              "velocity": 35,
              "position": 11.53125,
              "duration": 0.23541666666666666
            }
          ]
        },
        "3": {
          "ctab": {
            "srcChannel": 3,
            "name": "Org P",
            "accType": "CHORD2",
            "editable": false,
            "mutedNotes": [],
            "mutedChords": [
              "7(#9)",
              "7th",
              "Maj"
            ],
            "autoStart": false,
            "sourceChordNote": 0,
            "sourceChordType": "Maj7",
            "ctb2Low": null,
            "ctb2Main": {
              "ntr": "ROOT_FIXED",
              "ntt": "CHORD",
              "bassOn": false,
              "chordRootUpperLimit": 7,
              "noteLowLimit": 0,
              "noteHighLimit": 127,
              "rtr": "PITCH_SHIFT"
            },
            "ctb2High": null
          },
          "notes": [
            {
              "pitch": 71,
              "velocity": 73,
              "position": 5.020833333333333,
              "duration": 0.4041666666666667
            },
            {
              "pitch": 76,
              "velocity": 75,
              "position": 5.027083333333334,
              "duration": 0.4
            },
            {
              "pitch": 67,
              "velocity": 77,
              "position": 5.027083333333334,
              "duration": 0.4041666666666667
            },
            {
              "pitch": 67,
              "velocity": 70,
              "position": 5.5125,
              "duration": 0.07083333333333333
            },
            {
              "pitch": 71,
              "velocity": 70,
              "position": 5.535416666666666,
              "duration": 0.05
            },
            {
              "pitch": 76,
              "velocity": 71,
              "position": 5.53125,
              "duration": 0.06041666666666667
            },
            {
              "pitch": 67,
              "velocity": 97,
              "position": 12.5,
              "duration": 0.05416666666666667
            },
            {
              "pitch": 67,
              "velocity": 78,
              "position": 12.75,
              "duration": 0.06041666666666667
            },
            {
              "pitch": 76,
              "velocity": 86,
              "position": 13,
              "duration": 0.3375
            },
            {
              "pitch": 67,
              "velocity": 87,
              "position": 13,
              "duration": 0.3645833333333333
            },
            {
              "pitch": 71,
              "velocity": 96,
              "position": 13,
              "duration": 0.3770833333333333
            },
            {
              "pitch": 71,
              "velocity": 93,
              "position": 13.5,
              "duration": 0.0875
            },
            {
              "pitch": 76,
              "velocity": 95,
              "position": 13.5,
              "duration": 0.09375
            },
            {
              "pitch": 67,
              "velocity": 94,
              "position": 13.5,
              "duration": 0.09375
            }
          ]
        },
        "4": {
          "ctab": {
            "srcChannel": 4,
            "name": "Tpt P",
            "accType": "PAD",
            "editable": false,
            "mutedNotes": [],
            "mutedChords": [
              "7(9)",
              "7th",
              "min7(9)",
              "min(9)",
              "min7",
              "Maj"
            ],
            "autoStart": false,
            "sourceChordNote": 0,
            "sourceChordType": "Maj7",
            "ctb2Low": null,
            "ctb2Main": {
              "ntr": "ROOT_FIXED",
              "ntt": "CHORD",
              "bassOn": false,
              "chordRootUpperLimit": 7,
              "noteLowLimit": 0,
              "noteHighLimit": 127,
              "rtr": "PITCH_SHIFT"
            },
            "ctb2High": null
          },
          "notes": [
            {
              "pitch": 71,
              "velocity": 84,
              "position": 0.4895833333333333,
              "duration": 0.18333333333333332
            },
            {
              "pitch": 67,
              "velocity": 49,
              "position": 0.5,
              "duration": 0.17291666666666666
            },
            {
              "pitch": 67,
              "velocity": 49,
              "position": 1.9895833333333333,
              "duration": 0.1625
            },
            {
              "pitch": 71,
              "velocity": 84,
              "position": 1.9895833333333333,
              "duration": 0.1625
            },
            {
              "pitch": 67,
              "velocity": 49,
              "position": 3.4895833333333335,
              "duration": 0.18333333333333332
            },
            {
              "pitch": 71,
              "velocity": 84,
              "position": 3.5,
              "duration": 0.18333333333333332
            },
            {
              "pitch": 67,
              "velocity": 49,
              "position": 8.5,
              "duration": 0.18333333333333332
            },
            {
              "pitch": 71,
              "velocity": 84,
              "position": 8.5,
              "duration": 0.19375
            },
            {
              "pitch": 67,
              "velocity": 49,
              "position": 10,
              "duration": 0.1625
            },
            {
              "pitch": 71,
              "velocity": 84,
              "position": 10,
              "duration": 0.1625
            },
            {
              "pitch": 67,
              "velocity": 49,
              "position": 11.489583333333334,
              "duration": 0.17291666666666666
            },
            {
              "pitch": 71,
              "velocity": 84,
              "position": 11.489583333333334,
              "duration": 0.17291666666666666
            }
          ]
        },
        "5": {
          "ctab": {
            "srcChannel": 5,
            "name": "Sax P",
            "accType": "PHRASE1",
            "editable": false,
            "mutedNotes": [],
            "mutedChords": [
              "7(9)",
              "7th",
              "min7(9)",
              "min(9)",
              "min7",
              "Maj"
            ],
            "autoStart": false,
            "sourceChordNote": 0,
            "sourceChordType": "Maj7",
            "ctb2Low": null,
            "ctb2Main": {
              "ntr": "ROOT_FIXED",
              "ntt": "CHORD",
              "bassOn": false,
              "chordRootUpperLimit": 7,
              "noteLowLimit": 0,
              "noteHighLimit": 127,
              "rtr": "PITCH_SHIFT"
            },
            "ctb2High": null
          },
          "notes": [
            {
              "pitch": 59,
              "velocity": 75,
              "position": 0.4895833333333333,
              "duration": 0.19375
            },
            {
              "pitch": 64,
              "velocity": 123,
              "position": 0.4895833333333333,
              "duration": 0.19375
            },
            {
              "pitch": 64,
              "velocity": 121,
              "position": 1.9895833333333333,
              "duration": 0.1625
            },
            {
              "pitch": 59,
              "velocity": 75,
              "position": 2,
              "duration": 0.19375
            },
            {
              "pitch": 64,
              "velocity": 118,
              "position": 3.4895833333333335,
              "duration": 0.17291666666666666
            },
            {
              "pitch": 59,
              "velocity": 83,
              "position": 3.4895833333333335,
              "duration": 0.18333333333333332
            },
            {
              "pitch": 64,
              "velocity": 127,
              "position": 8.5,
              "duration": 0.17291666666666666
            },
            {
              "pitch": 59,
              "velocity": 84,
              "position": 8.5,
              "duration": 0.19375
            },
            {
              "pitch": 59,
              "velocity": 77,
              "position": 9.989583333333334,
              "duration": 0.18333333333333332
            },
            {
              "pitch": 64,
              "velocity": 127,
              "position": 10,
              "duration": 0.17291666666666666
            },
            {
              "pitch": 64,
              "velocity": 122,
              "position": 11.489583333333334,
              "duration": 0.17291666666666666
            },
            {
              "pitch": 59,
              "velocity": 80,
              "position": 11.5,
              "duration": 0.19375
            }
          ]
        },
        "6": {
          "ctab": {
            "srcChannel": 6,
            "name": "Bari P",
            "accType": "PHRASE2",
            "editable": false,
            "mutedNotes": [],
            "mutedChords": [
              "7(9)",
              "7th",
              "min7(9)",
              "min(9)",
              "min7",
              "Maj"
            ],
            "autoStart": false,
            "sourceChordNote": 0,
            "sourceChordType": "Maj7",
            "ctb2Low": null,
            "ctb2Main": {
              "ntr": "ROOT_TRANSPOSITION",
              "ntt": "MELODY",
              "bassOn": true,
              "chordRootUpperLimit": 10,
              "noteLowLimit": 33,
              "noteHighLimit": 127,
              "rtr": "PITCH_SHIFT_TO_ROOT"
            },
            "ctb2High": null
          },
          "notes": [
            {
              "pitch": 48,
              "velocity": 93,
              "position": 0.5,
              "duration": 0.20416666666666666
            },
            {
              "pitch": 36,
              "velocity": 117,
              "position": 0.9895833333333334,
              "duration": 0.25625
            },
            {
              "pitch": 48,
              "velocity": 82,
              "position": 1.9895833333333333,
              "duration": 0.17291666666666666
            },
            {
              "pitch": 36,
              "velocity": 122,
              "position": 2.5,
              "duration": 0.25625
            },
            {
              "pitch": 48,
              "velocity": 92,
              "position": 3.5,
              "duration": 0.17291666666666666
            },
            {
              "pitch": 48,
              "velocity": 86,
              "position": 8.5,
              "duration": 0.19375
            },
            {
              "pitch": 36,
              "velocity": 117,
              "position": 9,
              "duration": 0.25625
            },
            {
              "pitch": 48,
              "velocity": 80,
              "position": 9.989583333333334,
              "duration": 0.18333333333333332
            },
            {
              "pitch": 36,
              "velocity": 116,
              "position": 10.5,
              "duration": 0.25625
            },
            {
              "pitch": 48,
              "velocity": 86,
              "position": 11.5,
              "duration": 0.18333333333333332
            }
          ]
        },
        "8": {
          "ctab": {
            "srcChannel": 8,
            "name": "Perc",
            "accType": "SUBRHYTHM",
            "editable": false,
            "mutedNotes": [],
            "mutedChords": [],
            "autoStart": true,
            "sourceChordNote": 0,
            "sourceChordType": "Maj7",
            "ctb2Low": null,
            "ctb2Main": {
              "ntr": "ROOT_FIXED",
              "ntt": "BYPASS",
              "bassOn": false,
              "chordRootUpperLimit": 6,
              "noteLowLimit": 0,
              "noteHighLimit": 127,
              "rtr": "PITCH_SHIFT"
            },
            "ctb2High": null
          },
          "notes": [
            {
              "pitch": 82,
              "velocity": 80,
              "position": 0,
              "duration": 0.00625
            },
            {
              "pitch": 82,
              "velocity": 40,
              "position": 0.5,
              "duration": 0.00625
            },
            {
              "pitch": 82,
              "velocity": 60,
              "position": 0.75,
              "duration": 0.00625
            },
            {
              "pitch": 82,
              "velocity": 80,
              "position": 1,
              "duration": 0.00625
            },
            {
              "pitch": 82,
              "velocity": 40,
              "position": 1.5,
              "duration": 0.00625
            },
            {
              "pitch": 82,
              "velocity": 60,
              "position": 1.75,
              "duration": 0.00625
            },
            {
              "pitch": 82,
              "velocity": 80,
              "position": 2,
              "duration": 0.00625
            },
            {
              "pitch": 82,
              "velocity": 40,
              "position": 2.5,
              "duration": 0.00625
            },
            {
              "pitch": 82,
              "velocity": 60,
              "position": 2.75,
              "duration": 0.00625
            },
            {
              "pitch": 82,
              "velocity": 80,
              "position": 3,
              "duration": 0.00625
            },
            {
              "pitch": 82,
              "velocity": 40,
              "position": 3.5,
              "duration": 0.00625
            },
            {
              "pitch": 82,
              "velocity": 60,
              "position": 3.75,
              "duration": 0.00625
            },
            {
              "pitch": 82,
              "velocity": 80,
              "position": 4,
              "duration": 0.00625
            },
            {
              "pitch": 82,
              "velocity": 40,
              "position": 4.5,
              "duration": 0.00625
            },
            {
              "pitch": 82,
              "velocity": 60,
              "position": 4.75,
              "duration": 0.00625
            },
            {
              "pitch": 82,
              "velocity": 80,
              "position": 5,
              "duration": 0.00625
            },
            {
              "pitch": 82,
              "velocity": 40,
              "position": 5.5,
              "duration": 0.00625
            },
            {
              "pitch": 82,
              "velocity": 60,
              "position": 5.75,
              "duration": 0.00625
            },
            {
              "pitch": 82,
              "velocity": 80,
              "position": 6,
              "duration": 0.00625
            },
            {
              "pitch": 82,
              "velocity": 40,
              "position": 6.5,
              "duration": 0.00625
            },
            {
              "pitch": 82,
              "velocity": 60,
              "position": 6.75,
              "duration": 0.00625
            },
            {
              "pitch": 82,
              "velocity": 80,
              "position": 7,
              "duration": 0.00625
            },
            {
              "pitch": 82,
              "velocity": 40,
              "position": 7.5,
              "duration": 0.00625
            },
            {
              "pitch": 82,
              "velocity": 60,
              "position": 7.75,
              "duration": 0.00625
            },
            {
              "pitch": 82,
              "velocity": 80,
              "position": 8,
              "duration": 0.00625
            },
            {
              "pitch": 82,
              "velocity": 40,
              "position": 8.5,
              "duration": 0.00625
            },
            {
              "pitch": 82,
              "velocity": 60,
              "position": 8.75,
              "duration": 0.00625
            },
            {
              "pitch": 82,
              "velocity": 80,
              "position": 9,
              "duration": 0.00625
            },
            {
              "pitch": 82,
              "velocity": 40,
              "position": 9.5,
              "duration": 0.00625
            },
            {
              "pitch": 82,
              "velocity": 60,
              "position": 9.75,
              "duration": 0.00625
            },
            {
              "pitch": 82,
              "velocity": 80,
              "position": 10,
              "duration": 0.00625
            },
            {
              "pitch": 82,
              "velocity": 40,
              "position": 10.5,
              "duration": 0.00625
            },
            {
              "pitch": 82,
              "velocity": 60,
              "position": 10.75,
              "duration": 0.00625
            },
            {
              "pitch": 82,
              "velocity": 80,
              "position": 11,
              "duration": 0.00625
            },
            {
              "pitch": 82,
              "velocity": 40,
              "position": 11.5,
              "duration": 0.00625
            },
            {
              "pitch": 82,
              "velocity": 60,
              "position": 11.75,
              "duration": 0.00625
            },
            {
              "pitch": 82,
              "velocity": 80,
              "position": 12,
              "duration": 0.00625
            },
            {
              "pitch": 82,
              "velocity": 40,
              "position": 12.5,
              "duration": 0.00625
            },
            {
              "pitch": 82,
              "velocity": 60,
              "position": 12.75,
              "duration": 0.00625
            },
            {
              "pitch": 82,
              "velocity": 80,
              "position": 13,
              "duration": 0.00625
            },
            {
              "pitch": 82,
              "velocity": 40,
              "position": 13.5,
              "duration": 0.00625
            },
            {
              "pitch": 82,
              "velocity": 60,
              "position": 13.75,
              "duration": 0.00625
            },
            {
              "pitch": 82,
              "velocity": 80,
              "position": 14,
              "duration": 0.00625
            },
            {
              "pitch": 82,
              "velocity": 40,
              "position": 14.5,
              "duration": 0.00625
            },
            {
              "pitch": 82,
              "velocity": 60,
              "position": 14.75,
              "duration": 0.00625
            },
            {
              "pitch": 82,
              "velocity": 80,
              "position": 15,
              "duration": 0.00625
            },
            {
              "pitch": 82,
              "velocity": 40,
              "position": 15.5,
              "duration": 0.00625
            },
            {
              "pitch": 82,
              "velocity": 60,
              "position": 15.75,
              "duration": 0.00625
            }
          ]
        },
        "9": {
          "ctab": {
            "srcChannel": 9,
            "name": "Drs",
            "accType": "RHYTHM",
            "editable": false,
            "mutedNotes": [],
            "mutedChords": [],
            "autoStart": true,
            "sourceChordNote": 0,
            "sourceChordType": "Maj7",
            "ctb2Low": null,
            "ctb2Main": {
              "ntr": "ROOT_FIXED",
              "ntt": "BYPASS",
              "bassOn": false,
              "chordRootUpperLimit": 6,
              "noteLowLimit": 0,
              "noteHighLimit": 127,
              "rtr": "PITCH_SHIFT"
            },
            "ctb2High": null
          },
          "notes": [
            {
              "pitch": 33,
              "velocity": 105,
              "position": 0,
              "duration": 0.00625
            },
            {
              "pitch": 42,
              "velocity": 105,
              "position": 0,
              "duration": 0.00625
            },
            {
              "pitch": 31,
              "velocity": 20,
              "position": 0.2708333333333333,
              "duration": 0.00625
            },
            {
              "pitch": 42,
              "velocity": 45,
              "position": 0.5,
              "duration": 0.00625
            },
            {
              "pitch": 31,
              "velocity": 20,
              "position": 0.7708333333333334,
              "duration": 0.00625
            },
            {
              "pitch": 31,
              "velocity": 125,
              "position": 1,
              "duration": 0.00625
            },
            {
              "pitch": 31,
              "velocity": 20,
              "position": 1.2708333333333333,
              "duration": 0.00625
            },
            {
              "pitch": 33,
              "velocity": 105,
              "position": 1.5,
              "duration": 0.00625
            },
            {
              "pitch": 42,
              "velocity": 45,
              "position": 1.5,
              "duration": 0.00625
            },
            {
              "pitch": 31,
              "velocity": 20,
              "position": 1.7708333333333333,
              "duration": 0.00625
            },
            {
              "pitch": 42,
              "velocity": 105,
              "position": 2,
              "duration": 0.00625
            },
            {
              "pitch": 31,
              "velocity": 20,
              "position": 2.2708333333333335,
              "duration": 0.00625
            },
            {
              "pitch": 33,
              "velocity": 105,
              "position": 2.5,
              "duration": 0.00625
            },
            {
              "pitch": 31,
              "velocity": 20,
              "position": 2.7708333333333335,
              "duration": 0.00625
            },
            {
              "pitch": 42,
              "velocity": 105,
              "position": 3,
              "duration": 0.00625
            },
            {
              "pitch": 42,
              "velocity": 45,
              "position": 3.2708333333333335,
              "duration": 0.00625
            },
            {
              "pitch": 31,
              "velocity": 125,
              "position": 3.5,
              "duration": 0.00625
            },
            {
              "pitch": 31,
              "velocity": 20,
              "position": 3.7708333333333335,
              "duration": 0.00625
            },
            {
              "pitch": 42,
              "velocity": 105,
              "position": 4,
              "duration": 0.00625
            },
            {
              "pitch": 31,
              "velocity": 20,
              "position": 4.270833333333333,
              "duration": 0.00625
            },
            {
              "pitch": 33,
              "velocity": 105,
              "position": 4.5,
              "duration": 0.00625
            },
            {
              "pitch": 42,
              "velocity": 45,
              "position": 4.5,
              "duration": 0.00625
            },
            {
              "pitch": 31,
              "velocity": 20,
              "position": 4.770833333333333,
              "duration": 0.00625
            },
            {
              "pitch": 31,
              "velocity": 125,
              "position": 5,
              "duration": 0.00625
            },
            {
              "pitch": 31,
              "velocity": 20,
              "position": 5.270833333333333,
              "duration": 0.00625
            },
            {
              "pitch": 42,
              "velocity": 45,
              "position": 5.5,
              "duration": 0.00625
            },
            {
              "pitch": 31,
              "velocity": 73,
              "position": 5.770833333333333,
              "duration": 0.00625
            },
            {
              "pitch": 42,
              "velocity": 105,
              "position": 6,
              "duration": 0.00625
            },
            {
              "pitch": 31,
              "velocity": 35,
              "position": 6.270833333333333,
              "duration": 0.00625
            },
            {
              "pitch": 33,
              "velocity": 105,
              "position": 6.5,
              "duration": 0.00625
            },
            {
              "pitch": 42,
              "velocity": 45,
              "position": 6.770833333333333,
              "duration": 0.00625
            },
            {
              "pitch": 46,
              "velocity": 74,
              "position": 7,
              "duration": 0.00625
            },
            {
              "pitch": 31,
              "velocity": 20,
              "position": 7.270833333333333,
              "duration": 0.00625
            },
            {
              "pitch": 31,
              "velocity": 125,
              "position": 7.5,
              "duration": 0.00625
            },
            {
              "pitch": 31,
              "velocity": 45,
              "position": 7.770833333333333,
              "duration": 0.00625
            },
            {
              "pitch": 33,
              "velocity": 105,
              "position": 8,
              "duration": 0.00625
            },
            {
              "pitch": 42,
              "velocity": 105,
              "position": 8,
              "duration": 0.00625
            },
            {
              "pitch": 31,
              "velocity": 20,
              "position": 8.270833333333334,
              "duration": 0.00625
            },
            {
              "pitch": 42,
              "velocity": 45,
              "position": 8.5,
              "duration": 0.00625
            },
            {
              "pitch": 31,
              "velocity": 20,
              "position": 8.770833333333334,
              "duration": 0.00625
            },
            {
              "pitch": 31,
              "velocity": 125,
              "position": 9,
              "duration": 0.00625
            },
            {
              "pitch": 31,
              "velocity": 20,
              "position": 9.270833333333334,
              "duration": 0.00625
            },
            {
              "pitch": 33,
              "velocity": 105,
              "position": 9.5,
              "duration": 0.00625
            },
            {
              "pitch": 42,
              "velocity": 45,
              "position": 9.5,
              "duration": 0.00625
            },
            {
              "pitch": 31,
              "velocity": 20,
              "position": 9.770833333333334,
              "duration": 0.00625
            },
            {
              "pitch": 42,
              "velocity": 105,
              "position": 10,
              "duration": 0.00625
            },
            {
              "pitch": 31,
              "velocity": 20,
              "position": 10.270833333333334,
              "duration": 0.00625
            },
            {
              "pitch": 33,
              "velocity": 105,
              "position": 10.5,
              "duration": 0.00625
            },
            {
              "pitch": 31,
              "velocity": 20,
              "position": 10.770833333333334,
              "duration": 0.00625
            },
            {
              "pitch": 42,
              "velocity": 105,
              "position": 11,
              "duration": 0.00625
            },
            {
              "pitch": 42,
              "velocity": 45,
              "position": 11.270833333333334,
              "duration": 0.00625
            },
            {
              "pitch": 31,
              "velocity": 125,
              "position": 11.5,
              "duration": 0.00625
            },
            {
              "pitch": 31,
              "velocity": 20,
              "position": 11.770833333333334,
              "duration": 0.00625
            },
            {
              "pitch": 42,
              "velocity": 105,
              "position": 12,
              "duration": 0.00625
            },
            {
              "pitch": 31,
              "velocity": 20,
              "position": 12.270833333333334,
              "duration": 0.00625
            },
            {
              "pitch": 33,
              "velocity": 105,
              "position": 12.5,
              "duration": 0.00625
            },
            {
              "pitch": 42,
              "velocity": 45,
              "position": 12.5,
              "duration": 0.00625
            },
            {
              "pitch": 31,
              "velocity": 20,
              "position": 12.770833333333334,
              "duration": 0.00625
            },
            {
              "pitch": 31,
              "velocity": 125,
              "position": 13,
              "duration": 0.00625
            },
            {
              "pitch": 31,
              "velocity": 20,
              "position": 13.270833333333334,
              "duration": 0.00625
            },
            {
              "pitch": 42,
              "velocity": 45,
              "position": 13.5,
              "duration": 0.00625
            },
            {
              "pitch": 31,
              "velocity": 73,
              "position": 13.770833333333334,
              "duration": 0.00625
            },
            {
              "pitch": 42,
              "velocity": 105,
              "position": 14,
              "duration": 0.00625
            },
            {
              "pitch": 31,
              "velocity": 35,
              "position": 14.270833333333334,
              "duration": 0.00625
            },
            {
              "pitch": 33,
              "velocity": 105,
              "position": 14.5,
              "duration": 0.00625
            },
            {
              "pitch": 42,
              "velocity": 45,
              "position": 14.770833333333334,
              "duration": 0.00625
            },
            {
              "pitch": 31,
              "velocity": 125,
              "position": 15,
              "duration": 0.00625
            },
            {
              "pitch": 31,
              "velocity": 20,
              "position": 15.270833333333334,
              "duration": 0.00625
            },
            {
              "pitch": 33,
              "velocity": 65,
              "position": 15.5,
              "duration": 0.00625
            },
            {
              "pitch": 46,
              "velocity": 77,
              "position": 15.5,
              "duration": 0.00625
            }
          ]
        },
        "10": {
          "ctab": {
            "srcChannel": 10,
            "name": "Bass S",
            "accType": "BASS",
            "editable": false,
            "mutedNotes": [],
            "mutedChords": [
              "1+2+5",
              "1+5",
              "1+8",
              "Maj7aug",
              "7(b13)",
              "7(b9)",
              "7(13)",
              "7#11",
              "dim7",
              "dim",
              "minMaj7(9)",
              "minMaj7",
              "min6",
              "aug",
              "Maj6(9)",
              "Maj7(9)",
              "Maj(9)",
              "Maj7#11",
              "Maj7",
              "Maj6"
            ],
            "autoStart": false,
            "sourceChordNote": 0,
            "sourceChordType": "7(9)",
            "ctb2Low": null,
            "ctb2Main": {
              "ntr": "ROOT_TRANSPOSITION",
              "ntt": "MELODIC_MINOR_5",
              "bassOn": true,
              "chordRootUpperLimit": 3,
              "noteLowLimit": 28,
              "noteHighLimit": 127,
              "rtr": "PITCH_SHIFT_TO_ROOT"
            },
            "ctb2High": null
          },
          "notes": [
            {
              "pitch": 36,
              "velocity": 76,
              "position": 0,
              "duration": 0.9854166666666667
            },
            {
              "pitch": 36,
              "velocity": 110,
              "position": 1,
              "duration": 0.13125
            },
            {
              "pitch": 48,
              "velocity": 76,
              "position": 1.5,
              "duration": 0.48541666666666666
            },
            {
              "pitch": 48,
              "velocity": 110,
              "position": 2,
              "duration": 0.13125
            },
            {
              "pitch": 43,
              "velocity": 76,
              "position": 2.5,
              "duration": 0.48541666666666666
            },
            {
              "pitch": 43,
              "velocity": 106,
              "position": 3,
              "duration": 0.13125
            },
            {
              "pitch": 46,
              "velocity": 76,
              "position": 3.5,
              "duration": 0.48541666666666666
            },
            {
              "pitch": 46,
              "velocity": 110,
              "position": 4,
              "duration": 0.13125
            },
            {
              "pitch": 36,
              "velocity": 110,
              "position": 4.25,
              "duration": 0.23541666666666666
            },
            {
              "pitch": 36,
              "velocity": 70,
              "position": 4.5,
              "duration": 0.23541666666666666
            },
            {
              "pitch": 40,
              "velocity": 76,
              "position": 5,
              "duration": 0.48541666666666666
            },
            {
              "pitch": 40,
              "velocity": 110,
              "position": 5.75,
              "duration": 0.13125
            },
            {
              "pitch": 41,
              "velocity": 76,
              "position": 6,
              "duration": 0.13125
            },
            {
              "pitch": 36,
              "velocity": 110,
              "position": 6.25,
              "duration": 0.13125
            },
            {
              "pitch": 41,
              "velocity": 76,
              "position": 6.5,
              "duration": 0.48541666666666666
            },
            {
              "pitch": 42,
              "velocity": 76,
              "position": 7,
              "duration": 0.48541666666666666
            },
            {
              "pitch": 43,
              "velocity": 60,
              "position": 7.5,
              "duration": 0.23541666666666666
            },
            {
              "pitch": 36,
              "velocity": 77,
              "position": 8,
              "duration": 0.9854166666666667
            },
            {
              "pitch": 36,
              "velocity": 110,
              "position": 9,
              "duration": 0.13125
            },
            {
              "pitch": 48,
              "velocity": 77,
              "position": 9.5,
              "duration": 0.48541666666666666
            },
            {
              "pitch": 48,
              "velocity": 110,
              "position": 10,
              "duration": 0.13125
            },
            {
              "pitch": 43,
              "velocity": 77,
              "position": 10.5,
              "duration": 0.48541666666666666
            },
            {
              "pitch": 43,
              "velocity": 110,
              "position": 11,
              "duration": 0.13125
            },
            {
              "pitch": 46,
              "velocity": 77,
              "position": 11.5,
              "duration": 0.48541666666666666
            },
            {
              "pitch": 46,
              "velocity": 110,
              "position": 12,
              "duration": 0.13125
            },
            {
              "pitch": 36,
              "velocity": 110,
              "position": 12.25,
              "duration": 0.23541666666666666
            },
            {
              "pitch": 36,
              "velocity": 67,
              "position": 12.5,
              "duration": 0.23541666666666666
            },
            {
              "pitch": 40,
              "velocity": 77,
              "position": 13,
              "duration": 0.48541666666666666
            },
            {
              "pitch": 40,
              "velocity": 110,
              "position": 13.75,
              "duration": 0.13125
            },
            {
              "pitch": 41,
              "velocity": 77,
              "position": 14,
              "duration": 0.13125
            },
            {
              "pitch": 36,
              "velocity": 110,
              "position": 14.25,
              "duration": 0.13125
            },
            {
              "pitch": 41,
              "velocity": 77,
              "position": 14.5,
              "duration": 0.48541666666666666
            },
            {
              "pitch": 42,
              "velocity": 77,
              "position": 15,
              "duration": 0.48541666666666666
            },
            {
              "pitch": 43,
              "velocity": 60,
              "position": 15.5,
              "duration": 0.23541666666666666
            }
          ]
        },
        "11": {
          "ctab": {
            "srcChannel": 11,
            "name": "Gt S",
            "accType": "CHORD1",
            "editable": false,
            "mutedNotes": [],
            "mutedChords": [
              "1+2+5",
              "sus4",
              "1+5",
              "1+8",
              "7aug",
              "Maj7aug",
              "7(#9)",
              "7(b13)",
              "7(b9)",
              "7(13)",
              "7#11",
              "7b5",
              "7sus4",
              "dim7",
              "dim",
              "minMaj7(9)",
              "minMaj7",
              "min7(11)",
              "m7b5",
              "min6",
              "min",
              "aug",
              "Maj6(9)",
              "Maj7(9)",
              "Maj(9)",
              "Maj7#11",
              "Maj7",
              "Maj6"
            ],
            "autoStart": false,
            "sourceChordNote": 0,
            "sourceChordType": "7(9)",
            "ctb2Low": null,
            "ctb2Main": {
              "ntr": "ROOT_TRANSPOSITION",
              "ntt": "MELODIC_MINOR_5",
              "bassOn": false,
              "chordRootUpperLimit": 7,
              "noteLowLimit": 52,
              "noteHighLimit": 79,
              "rtr": "PITCH_SHIFT"
            },
            "ctb2High": null
          },
          "notes": [
            {
              "pitch": 106,
              "velocity": 80,
              "position": 0,
              "duration": 0.23541666666666666
            },
            {
              "pitch": 62,
              "velocity": 35,
              "position": 0.020833333333333332,
              "duration": 0.21458333333333332
            },
            {
              "pitch": 58,
              "velocity": 35,
              "position": 0.010416666666666666,
              "duration": 0.23541666666666666
            },
            {
              "pitch": 52,
              "velocity": 35,
              "position": 0,
              "duration": 0.25625
            },
            {
              "pitch": 105,
              "velocity": 80,
              "position": 0.25,
              "duration": 0.23541666666666666
            },
            {
              "pitch": 52,
              "velocity": 16,
              "position": 0.2708333333333333,
              "duration": 0.21458333333333332
            },
            {
              "pitch": 58,
              "velocity": 16,
              "position": 0.2604166666666667,
              "duration": 0.23541666666666666
            },
            {
              "pitch": 62,
              "velocity": 16,
              "position": 0.25,
              "duration": 0.25625
            },
            {
              "pitch": 67,
              "velocity": 35,
              "position": 0.03125,
              "duration": 0.48541666666666666
            },
            {
              "pitch": 104,
              "velocity": 80,
              "position": 0.5,
              "duration": 0.23541666666666666
            },
            {
              "pitch": 67,
              "velocity": 19,
              "position": 0.53125,
              "duration": 0.20416666666666666
            },
            {
              "pitch": 62,
              "velocity": 19,
              "position": 0.5208333333333334,
              "duration": 0.225
            },
            {
              "pitch": 58,
              "velocity": 19,
              "position": 0.5104166666666666,
              "duration": 0.24583333333333332
            },
            {
              "pitch": 105,
              "velocity": 80,
              "position": 0.75,
              "duration": 0.23541666666666666
            },
            {
              "pitch": 52,
              "velocity": 19,
              "position": 0.5,
              "duration": 0.48541666666666666
            },
            {
              "pitch": 58,
              "velocity": 22,
              "position": 0.7708333333333334,
              "duration": 0.225
            },
            {
              "pitch": 62,
              "velocity": 22,
              "position": 0.7604166666666666,
              "duration": 0.24583333333333332
            },
            {
              "pitch": 67,
              "velocity": 22,
              "position": 0.75,
              "duration": 0.26666666666666666
            },
            {
              "pitch": 106,
              "velocity": 80,
              "position": 1,
              "duration": 0.23541666666666666
            },
            {
              "pitch": 62,
              "velocity": 35,
              "position": 1.0208333333333333,
              "duration": 0.21458333333333332
            },
            {
              "pitch": 58,
              "velocity": 35,
              "position": 1.0104166666666667,
              "duration": 0.23541666666666666
            },
            {
              "pitch": 52,
              "velocity": 35,
              "position": 1,
              "duration": 0.25625
            },
            {
              "pitch": 105,
              "velocity": 80,
              "position": 1.25,
              "duration": 0.23541666666666666
            },
            {
              "pitch": 52,
              "velocity": 16,
              "position": 1.2708333333333333,
              "duration": 0.21458333333333332
            },
            {
              "pitch": 58,
              "velocity": 16,
              "position": 1.2604166666666667,
              "duration": 0.23541666666666666
            },
            {
              "pitch": 62,
              "velocity": 16,
              "position": 1.25,
              "duration": 0.25625
            },
            {
              "pitch": 67,
              "velocity": 35,
              "position": 1.03125,
              "duration": 0.48541666666666666
            },
            {
              "pitch": 104,
              "velocity": 80,
              "position": 1.5,
              "duration": 0.23541666666666666
            },
            {
              "pitch": 67,
              "velocity": 19,
              "position": 1.53125,
              "duration": 0.20416666666666666
            },
            {
              "pitch": 62,
              "velocity": 19,
              "position": 1.5208333333333333,
              "duration": 0.225
            },
            {
              "pitch": 58,
              "velocity": 19,
              "position": 1.5104166666666667,
              "duration": 0.24583333333333332
            },
            {
              "pitch": 105,
              "velocity": 80,
              "position": 1.75,
              "duration": 0.23541666666666666
            },
            {
              "pitch": 52,
              "velocity": 19,
              "position": 1.5,
              "duration": 0.48541666666666666
            },
            {
              "pitch": 58,
              "velocity": 22,
              "position": 1.7708333333333333,
              "duration": 0.225
            },
            {
              "pitch": 62,
              "velocity": 22,
              "position": 1.7604166666666667,
              "duration": 0.24583333333333332
            },
            {
              "pitch": 67,
              "velocity": 22,
              "position": 1.75,
              "duration": 0.26666666666666666
            },
            {
              "pitch": 102,
              "velocity": 80,
              "position": 2,
              "duration": 0.23541666666666666
            },
            {
              "pitch": 52,
              "velocity": 29,
              "position": 2,
              "duration": 0.48541666666666666
            },
            {
              "pitch": 58,
              "velocity": 29,
              "position": 2.0104166666666665,
              "duration": 0.48541666666666666
            },
            {
              "pitch": 62,
              "velocity": 29,
              "position": 2.0208333333333335,
              "duration": 0.48541666666666666
            },
            {
              "pitch": 67,
              "velocity": 29,
              "position": 2.03125,
              "duration": 0.48541666666666666
            },
            {
              "pitch": 106,
              "velocity": 80,
              "position": 2.5,
              "duration": 0.23541666666666666
            },
            {
              "pitch": 52,
              "velocity": 35,
              "position": 2.5,
              "duration": 0.23541666666666666
            },
            {
              "pitch": 58,
              "velocity": 35,
              "position": 2.5104166666666665,
              "duration": 0.23541666666666666
            },
            {
              "pitch": 62,
              "velocity": 35,
              "position": 2.5208333333333335,
              "duration": 0.23541666666666666
            },
            {
              "pitch": 67,
              "velocity": 35,
              "position": 2.53125,
              "duration": 0.23541666666666666
            },
            {
              "pitch": 52,
              "velocity": 35,
              "position": 3.5,
              "duration": 0.23541666666666666
            },
            {
              "pitch": 106,
              "velocity": 80,
              "position": 3.5,
              "duration": 0.23541666666666666
            },
            {
              "pitch": 58,
              "velocity": 35,
              "position": 3.5104166666666665,
              "duration": 0.23541666666666666
            },
            {
              "pitch": 62,
              "velocity": 35,
              "position": 3.5208333333333335,
              "duration": 0.23541666666666666
            },
            {
              "pitch": 67,
              "velocity": 35,
              "position": 3.53125,
              "duration": 0.23541666666666666
            },
            {
              "pitch": 106,
              "velocity": 80,
              "position": 7.5,
              "duration": 0.23541666666666666
            },
            {
              "pitch": 105,
              "velocity": 80,
              "position": 7.75,
              "duration": 0.23541666666666666
            },
            {
              "pitch": 106,
              "velocity": 80,
              "position": 8,
              "duration": 0.23541666666666666
            },
            {
              "pitch": 62,
              "velocity": 35,
              "position": 8.020833333333334,
              "duration": 0.21458333333333332
            },
            {
              "pitch": 58,
              "velocity": 35,
              "position": 8.010416666666666,
              "duration": 0.23541666666666666
            },
            {
              "pitch": 52,
              "velocity": 35,
              "position": 8,
              "duration": 0.25625
            },
            {
              "pitch": 105,
              "velocity": 80,
              "position": 8.25,
              "duration": 0.23541666666666666
            },
            {
              "pitch": 52,
              "velocity": 16,
              "position": 8.270833333333334,
              "duration": 0.21458333333333332
            },
            {
              "pitch": 58,
              "velocity": 16,
              "position": 8.260416666666666,
              "duration": 0.23541666666666666
            },
            {
              "pitch": 62,
              "velocity": 16,
              "position": 8.25,
              "duration": 0.25625
            },
            {
              "pitch": 67,
              "velocity": 35,
              "position": 8.03125,
              "duration": 0.48541666666666666
            },
            {
              "pitch": 104,
              "velocity": 80,
              "position": 8.5,
              "duration": 0.23541666666666666
            },
            {
              "pitch": 67,
              "velocity": 19,
              "position": 8.53125,
              "duration": 0.20416666666666666
            },
            {
              "pitch": 62,
              "velocity": 19,
              "position": 8.520833333333334,
              "duration": 0.225
            },
            {
              "pitch": 58,
              "velocity": 19,
              "position": 8.510416666666666,
              "duration": 0.24583333333333332
            },
            {
              "pitch": 105,
              "velocity": 80,
              "position": 8.75,
              "duration": 0.23541666666666666
            },
            {
              "pitch": 52,
              "velocity": 19,
              "position": 8.5,
              "duration": 0.48541666666666666
            },
            {
              "pitch": 58,
              "velocity": 22,
              "position": 8.770833333333334,
              "duration": 0.225
            },
            {
              "pitch": 62,
              "velocity": 22,
              "position": 8.760416666666666,
              "duration": 0.24583333333333332
            },
            {
              "pitch": 67,
              "velocity": 22,
              "position": 8.75,
              "duration": 0.26666666666666666
            },
            {
              "pitch": 106,
              "velocity": 80,
              "position": 9,
              "duration": 0.23541666666666666
            },
            {
              "pitch": 62,
              "velocity": 35,
              "position": 9.020833333333334,
              "duration": 0.21458333333333332
            },
            {
              "pitch": 58,
              "velocity": 35,
              "position": 9.010416666666666,
              "duration": 0.23541666666666666
            },
            {
              "pitch": 52,
              "velocity": 35,
              "position": 9,
              "duration": 0.25625
            },
            {
              "pitch": 105,
              "velocity": 80,
              "position": 9.25,
              "duration": 0.23541666666666666
            },
            {
              "pitch": 52,
              "velocity": 16,
              "position": 9.270833333333334,
              "duration": 0.21458333333333332
            },
            {
              "pitch": 58,
              "velocity": 16,
              "position": 9.260416666666666,
              "duration": 0.23541666666666666
            },
            {
              "pitch": 62,
              "velocity": 16,
              "position": 9.25,
              "duration": 0.25625
            },
            {
              "pitch": 67,
              "velocity": 35,
              "position": 9.03125,
              "duration": 0.48541666666666666
            },
            {
              "pitch": 104,
              "velocity": 80,
              "position": 9.5,
              "duration": 0.23541666666666666
            },
            {
              "pitch": 67,
              "velocity": 19,
              "position": 9.53125,
              "duration": 0.20416666666666666
            },
            {
              "pitch": 62,
              "velocity": 19,
              "position": 9.520833333333334,
              "duration": 0.225
            },
            {
              "pitch": 58,
              "velocity": 19,
              "position": 9.510416666666666,
              "duration": 0.24583333333333332
            },
            {
              "pitch": 105,
              "velocity": 80,
              "position": 9.75,
              "duration": 0.23541666666666666
            },
            {
              "pitch": 52,
              "velocity": 19,
              "position": 9.5,
              "duration": 0.48541666666666666
            },
            {
              "pitch": 58,
              "velocity": 22,
              "position": 9.770833333333334,
              "duration": 0.225
            },
            {
              "pitch": 62,
              "velocity": 22,
              "position": 9.760416666666666,
              "duration": 0.24583333333333332
            },
            {
              "pitch": 67,
              "velocity": 22,
              "position": 9.75,
              "duration": 0.26666666666666666
            },
            {
              "pitch": 102,
              "velocity": 80,
              "position": 10,
              "duration": 0.23541666666666666
            },
            {
              "pitch": 52,
              "velocity": 29,
              "position": 10,
              "duration": 0.48541666666666666
            },
            {
              "pitch": 58,
              "velocity": 29,
              "position": 10.010416666666666,
              "duration": 0.48541666666666666
            },
            {
              "pitch": 62,
              "velocity": 29,
              "position": 10.020833333333334,
              "duration": 0.48541666666666666
            },
            {
              "pitch": 67,
              "velocity": 29,
              "position": 10.03125,
              "duration": 0.48541666666666666
            },
            {
              "pitch": 106,
              "velocity": 80,
              "position": 10.5,
              "duration": 0.23541666666666666
            },
            {
              "pitch": 52,
              "velocity": 35,
              "position": 10.5,
              "duration": 0.23541666666666666
            },
            {
              "pitch": 58,
              "velocity": 35,
              "position": 10.510416666666666,
              "duration": 0.23541666666666666
            },
            {
              "pitch": 62,
              "velocity": 35,
              "position": 10.520833333333334,
              "duration": 0.23541666666666666
            },
            {
              "pitch": 67,
              "velocity": 35,
              "position": 10.53125,
              "duration": 0.23541666666666666
            },
            {
              "pitch": 52,
              "velocity": 35,
              "position": 11.5,
              "duration": 0.23541666666666666
            },
            {
              "pitch": 106,
              "velocity": 80,
              "position": 11.5,
              "duration": 0.23541666666666666
            },
            {
              "pitch": 58,
              "velocity": 35,
              "position": 11.510416666666666,
              "duration": 0.23541666666666666
            },
            {
              "pitch": 62,
              "velocity": 35,
              "position": 11.520833333333334,
              "duration": 0.23541666666666666
            },
            {
              "pitch": 67,
              "velocity": 35,
              "position": 11.53125,
              "duration": 0.23541666666666666
            },
            {
              "pitch": 106,
              "velocity": 80,
              "position": 15.5,
              "duration": 0.23541666666666666
            },
            {
              "pitch": 105,
              "velocity": 80,
              "position": 15.75,
              "duration": 0.23541666666666666
            }
          ]
        },
        "12": {
          "ctab": {
            "srcChannel": 12,
            "name": "Org S",
            "accType": "CHORD2",
            "editable": false,
            "mutedNotes": [],
            "mutedChords": [
              "1+2+5",
              "sus4",
              "1+5",
              "1+8",
              "7aug",
              "Maj7aug",
              "7(b13)",
              "7(b9)",
              "7(13)",
              "7#11",
              "7(9)",
              "7b5",
              "7sus4",
              "dim7",
              "dim",
              "minMaj7(9)",
              "minMaj7",
              "min7(11)",
              "min7(9)",
              "min(9)",
              "m7b5",
              "min7",
              "min6",
              "min",
              "aug",
              "Maj6(9)",
              "Maj7(9)",
              "Maj(9)",
              "Maj7#11",
              "Maj7",
              "Maj6"
            ],
            "autoStart": false,
            "sourceChordNote": 0,
            "sourceChordType": "7(9)",
            "ctb2Low": null,
            "ctb2Main": {
              "ntr": "ROOT_TRANSPOSITION",
              "ntt": "BYPASS",
              "bassOn": false,
              "chordRootUpperLimit": 7,
              "noteLowLimit": 48,
              "noteHighLimit": 72,
              "rtr": "PITCH_SHIFT"
            },
            "ctb2High": null
          },
          "notes": [
            {
              "pitch": 70,
              "velocity": 73,
              "position": 5.020833333333333,
              "duration": 0.4041666666666667
            },
            {
              "pitch": 72,
              "velocity": 75,
              "position": 5.027083333333334,
              "duration": 0.4
            },
            {
              "pitch": 64,
              "velocity": 77,
              "position": 5.027083333333334,
              "duration": 0.4041666666666667
            },
            {
              "pitch": 64,
              "velocity": 70,
              "position": 5.5125,
              "duration": 0.07083333333333333
            },
            {
              "pitch": 70,
              "velocity": 70,
              "position": 5.535416666666666,
              "duration": 0.05
            },
            {
              "pitch": 72,
              "velocity": 71,
              "position": 5.53125,
              "duration": 0.06041666666666667
            },
            {
              "pitch": 64,
              "velocity": 114,
              "position": 12.5,
              "duration": 0.05416666666666667
            },
            {
              "pitch": 64,
              "velocity": 86,
              "position": 12.75,
              "duration": 0.06041666666666667
            },
            {
              "pitch": 72,
              "velocity": 86,
              "position": 13,
              "duration": 0.4041666666666667
            },
            {
              "pitch": 64,
              "velocity": 87,
              "position": 13,
              "duration": 0.42916666666666664
            },
            {
              "pitch": 70,
              "velocity": 96,
              "position": 13,
              "duration": 0.44375
            },
            {
              "pitch": 70,
              "velocity": 93,
              "position": 13.5,
              "duration": 0.0875
            },
            {
              "pitch": 72,
              "velocity": 95,
              "position": 13.5,
              "duration": 0.09375
            },
            {
              "pitch": 64,
              "velocity": 94,
              "position": 13.5,
              "duration": 0.09375
            }
          ]
        },
        "13": {
          "ctab": {
            "srcChannel": 13,
            "name": "Tpt S",
            "accType": "PAD",
            "editable": false,
            "mutedNotes": [],
            "mutedChords": [
              "1+2+5",
              "sus4",
              "1+5",
              "1+8",
              "7aug",
              "Maj7aug",
              "7(#9)",
              "7(b13)",
              "7(b9)",
              "7(13)",
              "7#11",
              "7b5",
              "7sus4",
              "dim7",
              "dim",
              "minMaj7(9)",
              "minMaj7",
              "min7(11)",
              "m7b5",
              "min6",
              "min",
              "aug",
              "Maj6(9)",
              "Maj7(9)",
              "Maj(9)",
              "Maj7#11",
              "Maj7",
              "Maj6"
            ],
            "autoStart": false,
            "sourceChordNote": 0,
            "sourceChordType": "7(9)",
            "ctb2Low": null,
            "ctb2Main": {
              "ntr": "ROOT_TRANSPOSITION",
              "ntt": "MELODIC_MINOR_5",
              "bassOn": false,
              "chordRootUpperLimit": 2,
              "noteLowLimit": 0,
              "noteHighLimit": 127,
              "rtr": "PITCH_SHIFT"
            },
            "ctb2High": null
          },
          "notes": [
            {
              "pitch": 72,
              "velocity": 84,
              "position": 0.4895833333333333,
              "duration": 0.18333333333333332
            },
            {
              "pitch": 67,
              "velocity": 49,
              "position": 0.5,
              "duration": 0.17291666666666666
            },
            {
              "pitch": 67,
              "velocity": 49,
              "position": 1.9895833333333333,
              "duration": 0.1625
            },
            {
              "pitch": 72,
              "velocity": 84,
              "position": 1.9895833333333333,
              "duration": 0.1625
            },
            {
              "pitch": 67,
              "velocity": 49,
              "position": 3.4895833333333335,
              "duration": 0.18333333333333332
            },
            {
              "pitch": 72,
              "velocity": 84,
              "position": 3.5,
              "duration": 0.18333333333333332
            },
            {
              "pitch": 67,
              "velocity": 49,
              "position": 8.5,
              "duration": 0.18333333333333332
            },
            {
              "pitch": 72,
              "velocity": 84,
              "position": 8.5,
              "duration": 0.19375
            },
            {
              "pitch": 67,
              "velocity": 49,
              "position": 10,
              "duration": 0.1625
            },
            {
              "pitch": 72,
              "velocity": 84,
              "position": 10,
              "duration": 0.1625
            },
            {
              "pitch": 67,
              "velocity": 49,
              "position": 11.489583333333334,
              "duration": 0.17291666666666666
            },
            {
              "pitch": 72,
              "velocity": 84,
              "position": 11.489583333333334,
              "duration": 0.17291666666666666
            }
          ]
        },
        "14": {
          "ctab": {
            "srcChannel": 14,
            "name": "Sax S",
            "accType": "PHRASE1",
            "editable": false,
            "mutedNotes": [],
            "mutedChords": [
              "1+2+5",
              "sus4",
              "1+5",
              "1+8",
              "7aug",
              "Maj7aug",
              "7(#9)",
              "7(b13)",
              "7(b9)",
              "7(13)",
              "7#11",
              "7b5",
              "7sus4",
              "dim7",
              "dim",
              "minMaj7(9)",
              "minMaj7",
              "min7(11)",
              "m7b5",
              "min6",
              "min",
              "aug",
              "Maj6(9)",
              "Maj7(9)",
              "Maj(9)",
              "Maj7#11",
              "Maj7",
              "Maj6"
            ],
            "autoStart": false,
            "sourceChordNote": 0,
            "sourceChordType": "7(9)",
            "ctb2Low": null,
            "ctb2Main": {
              "ntr": "ROOT_TRANSPOSITION",
              "ntt": "MELODIC_MINOR_5",
              "bassOn": false,
              "chordRootUpperLimit": 10,
              "noteLowLimit": 0,
              "noteHighLimit": 127,
              "rtr": "PITCH_SHIFT"
            },
            "ctb2High": null
          },
          "notes": [
            {
              "pitch": 58,
              "velocity": 75,
              "position": 0.4895833333333333,
              "duration": 0.19375
            },
            {
              "pitch": 62,
              "velocity": 123,
              "position": 0.4895833333333333,
              "duration": 0.19375
            },
            {
              "pitch": 62,
              "velocity": 121,
              "position": 1.9895833333333333,
              "duration": 0.1625
            },
            {
              "pitch": 58,
              "velocity": 75,
              "position": 2,
              "duration": 0.19375
            },
            {
              "pitch": 62,
              "velocity": 118,
              "position": 3.4895833333333335,
              "duration": 0.17291666666666666
            },
            {
              "pitch": 58,
              "velocity": 83,
              "position": 3.4895833333333335,
              "duration": 0.18333333333333332
            },
            {
              "pitch": 62,
              "velocity": 127,
              "position": 8.5,
              "duration": 0.17291666666666666
            },
            {
              "pitch": 58,
              "velocity": 84,
              "position": 8.5,
              "duration": 0.19375
            },
            {
              "pitch": 58,
              "velocity": 77,
              "position": 9.989583333333334,
              "duration": 0.18333333333333332
            },
            {
              "pitch": 62,
              "velocity": 127,
              "position": 10,
              "duration": 0.17291666666666666
            },
            {
              "pitch": 62,
              "velocity": 122,
              "position": 11.489583333333334,
              "duration": 0.17291666666666666
            },
            {
              "pitch": 58,
              "velocity": 80,
              "position": 11.5,
              "duration": 0.19375
            }
          ]
        },
        "15": {
          "ctab": {
            "srcChannel": 15,
            "name": "Bari S",
            "accType": "PHRASE2",
            "editable": false,
            "mutedNotes": [],
            "mutedChords": [
              "1+2+5",
              "sus4",
              "1+5",
              "1+8",
              "7aug",
              "Maj7aug",
              "7(#9)",
              "7(b13)",
              "7(b9)",
              "7(13)",
              "7#11",
              "7b5",
              "7sus4",
              "dim7",
              "dim",
              "minMaj7(9)",
              "minMaj7",
              "min7(11)",
              "m7b5",
              "min6",
              "min",
              "aug",
              "Maj6(9)",
              "Maj7(9)",
              "Maj(9)",
              "Maj7#11",
              "Maj7",
              "Maj6"
            ],
            "autoStart": false,
            "sourceChordNote": 0,
            "sourceChordType": "7(9)",
            "ctb2Low": null,
            "ctb2Main": {
              "ntr": "ROOT_TRANSPOSITION",
              "ntt": "MELODIC_MINOR_5",
              "bassOn": true,
              "chordRootUpperLimit": 10,
              "noteLowLimit": 33,
              "noteHighLimit": 127,
              "rtr": "PITCH_SHIFT"
            },
            "ctb2High": null
          },
          "notes": [
            {
              "pitch": 48,
              "velocity": 93,
              "position": 0.5,
              "duration": 0.20416666666666666
            },
            {
              "pitch": 36,
              "velocity": 117,
              "position": 0.9895833333333334,
              "duration": 0.25625
            },
            {
              "pitch": 48,
              "velocity": 82,
              "position": 1.9895833333333333,
              "duration": 0.17291666666666666
            },
            {
              "pitch": 36,
              "velocity": 122,
              "position": 2.5,
              "duration": 0.25625
            },
            {
              "pitch": 48,
              "velocity": 92,
              "position": 3.5,
              "duration": 0.17291666666666666
            },
            {
              "pitch": 48,
              "velocity": 86,
              "position": 8.5,
              "duration": 0.19375
            },
            {
              "pitch": 36,
              "velocity": 117,
              "position": 9,
              "duration": 0.25625
            },
            {
              "pitch": 48,
              "velocity": 80,
              "position": 9.989583333333334,
              "duration": 0.18333333333333332
            },
            {
              "pitch": 36,
              "velocity": 116,
              "position": 10.5,
              "duration": 0.25625
            },
            {
              "pitch": 48,
              "velocity": 86,
              "position": 11.5,
              "duration": 0.18333333333333332
            }
          ]
        }
      }
    },
    "Fill_In_AA": {
      "type": "Fill_In_AA",
      "sizeInBeats": 4,
      "channels": {
        "1": {
          "ctab": {
            "srcChannel": 1,
            "name": "Bass P",
            "accType": "BASS",
            "editable": false,
            "mutedNotes": [],
            "mutedChords": [
              "sus4",
              "7aug",
              "7(#9)",
              "7(9)",
              "7b5",
              "7sus4",
              "7th",
              "min7(11)",
              "min7(9)",
              "min(9)",
              "m7b5",
              "min7",
              "min",
              "Maj"
            ],
            "autoStart": false,
            "sourceChordNote": 0,
            "sourceChordType": "Maj7",
            "ctb2Low": null,
            "ctb2Main": {
              "ntr": "ROOT_TRANSPOSITION",
              "ntt": "MELODY",
              "bassOn": true,
              "chordRootUpperLimit": 3,
              "noteLowLimit": 28,
              "noteHighLimit": 127,
              "rtr": "PITCH_SHIFT_TO_ROOT"
            },
            "ctb2High": null
          },
          "notes": [
            {
              "pitch": 36,
              "velocity": 110,
              "position": 0,
              "duration": 0.13125
            },
            {
              "pitch": 36,
              "velocity": 110,
              "position": 0.25,
              "duration": 0.23541666666666666
            },
            {
              "pitch": 35,
              "velocity": 70,
              "position": 0.5,
              "duration": 0.23541666666666666
            },
            {
              "pitch": 36,
              "velocity": 80,
              "position": 1,
              "duration": 0.48541666666666666
            },
            {
              "pitch": 36,
              "velocity": 110,
              "position": 1.75,
              "duration": 0.13125
            },
            {
              "pitch": 41,
              "velocity": 80,
              "position": 2,
              "duration": 0.13125
            },
            {
              "pitch": 36,
              "velocity": 110,
              "position": 2.25,
              "duration": 0.13125
            },
            {
              "pitch": 41,
              "velocity": 80,
              "position": 2.5,
              "duration": 0.48541666666666666
            },
            {
              "pitch": 42,
              "velocity": 80,
              "position": 3,
              "duration": 0.48541666666666666
            },
            {
              "pitch": 43,
              "velocity": 60,
              "position": 3.5,
              "duration": 0.23541666666666666
            }
          ]
        },
        "2": {
          "ctab": {
            "srcChannel": 2,
            "name": "Gt P",
            "accType": "CHORD1",
            "editable": false,
            "mutedNotes": [],
            "mutedChords": [
              "7(9)",
              "7th",
              "min7(9)",
              "min(9)",
              "min7",
              "Maj"
            ],
            "autoStart": false,
            "sourceChordNote": 0,
            "sourceChordType": "Maj7",
            "ctb2Low": null,
            "ctb2Main": {
              "ntr": "ROOT_TRANSPOSITION",
              "ntt": "MELODY",
              "bassOn": false,
              "chordRootUpperLimit": 7,
              "noteLowLimit": 0,
              "noteHighLimit": 127,
              "rtr": "PITCH_SHIFT"
            },
            "ctb2High": null
          },
          "notes": []
        },
        "3": {
          "ctab": {
            "srcChannel": 3,
            "name": "Org P",
            "accType": "CHORD2",
            "editable": false,
            "mutedNotes": [],
            "mutedChords": [
              "7(#9)",
              "7th",
              "Maj"
            ],
            "autoStart": false,
            "sourceChordNote": 0,
            "sourceChordType": "Maj7",
            "ctb2Low": null,
            "ctb2Main": {
              "ntr": "ROOT_FIXED",
              "ntt": "CHORD",
              "bassOn": false,
              "chordRootUpperLimit": 7,
              "noteLowLimit": 0,
              "noteHighLimit": 127,
              "rtr": "PITCH_SHIFT"
            },
            "ctb2High": null
          },
          "notes": []
        },
        "4": {
          "ctab": {
            "srcChannel": 4,
            "name": "Tpt P",
            "accType": "PAD",
            "editable": false,
            "mutedNotes": [],
            "mutedChords": [
              "7(9)",
              "7th",
              "min7(9)",
              "min(9)",
              "min7",
              "Maj"
            ],
            "autoStart": false,
            "sourceChordNote": 0,
            "sourceChordType": "Maj7",
            "ctb2Low": null,
            "ctb2Main": {
              "ntr": "ROOT_FIXED",
              "ntt": "CHORD",
              "bassOn": false,
              "chordRootUpperLimit": 7,
              "noteLowLimit": 0,
              "noteHighLimit": 127,
              "rtr": "PITCH_SHIFT"
            },
            "ctb2High": null
          },
          "notes": [
            {
              "pitch": 67,
              "velocity": 49,
              "position": 0.5,
              "duration": 0.46458333333333335
            },
            {
              "pitch": 71,
              "velocity": 84,
              "position": 0.4895833333333333,
              "duration": 0.48541666666666666
            },
            {
              "pitch": 71,
              "velocity": 84,
              "position": 0.9895833333333334,
              "duration": 0.18333333333333332
            },
            {
              "pitch": 67,
              "velocity": 49,
              "position": 1,
              "duration": 0.17291666666666666
            }
          ]
        },
        "5": {
          "ctab": {
            "srcChannel": 5,
            "name": "Sax P",
            "accType": "PHRASE1",
            "editable": false,
            "mutedNotes": [],
            "mutedChords": [
              "7(9)",
              "7th",
              "min7(9)",
              "min(9)",
              "min7",
              "Maj"
            ],
            "autoStart": false,
            "sourceChordNote": 0,
            "sourceChordType": "Maj7",
            "ctb2Low": null,
            "ctb2Main": {
              "ntr": "ROOT_FIXED",
              "ntt": "CHORD",
              "bassOn": false,
              "chordRootUpperLimit": 7,
              "noteLowLimit": 0,
              "noteHighLimit": 127,
              "rtr": "PITCH_SHIFT"
            },
            "ctb2High": null
          },
          "notes": [
            {
              "pitch": 59,
              "velocity": 75,
              "position": 0.4895833333333333,
              "duration": 0.48541666666666666
            },
            {
              "pitch": 64,
              "velocity": 123,
              "position": 0.4895833333333333,
              "duration": 0.48541666666666666
            },
            {
              "pitch": 59,
              "velocity": 75,
              "position": 0.9895833333333334,
              "duration": 0.19375
            },
            {
              "pitch": 64,
              "velocity": 123,
              "position": 0.9895833333333334,
              "duration": 0.19375
            }
          ]
        },
        "6": {
          "ctab": {
            "srcChannel": 6,
            "name": "Bari P",
            "accType": "PHRASE2",
            "editable": false,
            "mutedNotes": [],
            "mutedChords": [
              "7(9)",
              "7th",
              "min7(9)",
              "min(9)",
              "min7",
              "Maj"
            ],
            "autoStart": false,
            "sourceChordNote": 0,
            "sourceChordType": "Maj7",
            "ctb2Low": null,
            "ctb2Main": {
              "ntr": "ROOT_TRANSPOSITION",
              "ntt": "MELODY",
              "bassOn": true,
              "chordRootUpperLimit": 10,
              "noteLowLimit": 33,
              "noteHighLimit": 127,
              "rtr": "PITCH_SHIFT_TO_ROOT"
            },
            "ctb2High": null
          },
          "notes": [
            {
              "pitch": 36,
              "velocity": 122,
              "position": 0.5,
              "duration": 0.48541666666666666
            },
            {
              "pitch": 36,
              "velocity": 122,
              "position": 1,
              "duration": 0.25625
            }
          ]
        },
        "8": {
          "ctab": {
            "srcChannel": 8,
            "name": "Perc",
            "accType": "SUBRHYTHM",
            "editable": false,
            "mutedNotes": [],
            "mutedChords": [],
            "autoStart": true,
            "sourceChordNote": 0,
            "sourceChordType": "Maj7",
            "ctb2Low": null,
            "ctb2Main": {
              "ntr": "ROOT_FIXED",
              "ntt": "BYPASS",
              "bassOn": false,
              "chordRootUpperLimit": 6,
              "noteLowLimit": 0,
              "noteHighLimit": 127,
              "rtr": "PITCH_SHIFT"
            },
            "ctb2High": null
          },
          "notes": [
            {
              "pitch": 82,
              "velocity": 80,
              "position": 0,
              "duration": 0.00625
            },
            {
              "pitch": 82,
              "velocity": 40,
              "position": 0.5,
              "duration": 0.00625
            },
            {
              "pitch": 82,
              "velocity": 60,
              "position": 0.75,
              "duration": 0.00625
            },
            {
              "pitch": 82,
              "velocity": 80,
              "position": 1,
              "duration": 0.00625
            },
            {
              "pitch": 82,
              "velocity": 40,
              "position": 1.5,
              "duration": 0.00625
            },
            {
              "pitch": 82,
              "velocity": 60,
              "position": 1.75,
              "duration": 0.00625
            },
            {
              "pitch": 82,
              "velocity": 80,
              "position": 2,
              "duration": 0.00625
            },
            {
              "pitch": 82,
              "velocity": 40,
              "position": 2.5,
              "duration": 0.00625
            },
            {
              "pitch": 82,
              "velocity": 60,
              "position": 2.75,
              "duration": 0.00625
            },
            {
              "pitch": 82,
              "velocity": 80,
              "position": 3,
              "duration": 0.00625
            },
            {
              "pitch": 82,
              "velocity": 40,
              "position": 3.5,
              "duration": 0.00625
            },
            {
              "pitch": 82,
              "velocity": 60,
              "position": 3.75,
              "duration": 0.00625
            }
          ]
        },
        "9": {
          "ctab": {
            "srcChannel": 9,
            "name": "Drs",
            "accType": "RHYTHM",
            "editable": false,
            "mutedNotes": [],
            "mutedChords": [],
            "autoStart": true,
            "sourceChordNote": 0,
            "sourceChordType": "Maj7",
            "ctb2Low": null,
            "ctb2Main": {
              "ntr": "ROOT_FIXED",
              "ntt": "BYPASS",
              "bassOn": false,
              "chordRootUpperLimit": 6,
              "noteLowLimit": 0,
              "noteHighLimit": 127,
              "rtr": "PITCH_SHIFT"
            },
            "ctb2High": null
          },
          "notes": [
            {
              "pitch": 42,
              "velocity": 105,
              "position": 0,
              "duration": 0.00625
            },
            {
              "pitch": 31,
              "velocity": 20,
              "position": 0.2708333333333333,
              "duration": 0.00625
            },
            {
              "pitch": 33,
              "velocity": 105,
              "position": 0.5,
              "duration": 0.00625
            },
            {
              "pitch": 42,
              "velocity": 45,
              "position": 0.5,
              "duration": 0.00625
            },
            {
              "pitch": 31,
              "velocity": 20,
              "position": 0.7708333333333334,
              "duration": 0.00625
            },
            {
              "pitch": 31,
              "velocity": 125,
              "position": 1,
              "duration": 0.00625
            },
            {
              "pitch": 31,
              "velocity": 20,
              "position": 1.2708333333333333,
              "duration": 0.00625
            },
            {
              "pitch": 42,
              "velocity": 45,
              "position": 1.5,
              "duration": 0.00625
            },
            {
              "pitch": 31,
              "velocity": 79,
              "position": 1.7708333333333333,
              "duration": 0.00625
            },
            {
              "pitch": 42,
              "velocity": 105,
              "position": 2,
              "duration": 0.00625
            },
            {
              "pitch": 33,
              "velocity": 65,
              "position": 2.2708333333333335,
              "duration": 0.00625
            },
            {
              "pitch": 31,
              "velocity": 105,
              "position": 2.5,
              "duration": 0.00625
            },
            {
              "pitch": 46,
              "velocity": 71,
              "position": 2.7708333333333335,
              "duration": 0.00625
            },
            {
              "pitch": 31,
              "velocity": 125,
              "position": 3,
              "duration": 0.00625
            },
            {
              "pitch": 44,
              "velocity": 45,
              "position": 3,
              "duration": 0.00625
            },
            {
              "pitch": 31,
              "velocity": 47,
              "position": 3.2708333333333335,
              "duration": 0.00625
            },
            {
              "pitch": 31,
              "velocity": 125,
              "position": 3.5,
              "duration": 0.00625
            },
            {
              "pitch": 31,
              "velocity": 85,
              "position": 3.7708333333333335,
              "duration": 0.00625
            },
            {
              "pitch": 49,
              "velocity": 90,
              "position": 3.9895833333333335,
              "duration": 0.00625
            }
          ]
        },
        "10": {
          "ctab": {
            "srcChannel": 10,
            "name": "Bass S",
            "accType": "BASS",
            "editable": false,
            "mutedNotes": [],
            "mutedChords": [
              "1+2+5",
              "1+5",
              "1+8",
              "Maj7aug",
              "7(b13)",
              "7(b9)",
              "7(13)",
              "7#11",
              "dim7",
              "dim",
              "minMaj7(9)",
              "minMaj7",
              "min6",
              "aug",
              "Maj6(9)",
              "Maj7(9)",
              "Maj(9)",
              "Maj7#11",
              "Maj7",
              "Maj6"
            ],
            "autoStart": false,
            "sourceChordNote": 0,
            "sourceChordType": "7(9)",
            "ctb2Low": null,
            "ctb2Main": {
              "ntr": "ROOT_TRANSPOSITION",
              "ntt": "MELODIC_MINOR_5",
              "bassOn": true,
              "chordRootUpperLimit": 3,
              "noteLowLimit": 28,
              "noteHighLimit": 127,
              "rtr": "PITCH_SHIFT_TO_ROOT"
            },
            "ctb2High": null
          },
          "notes": [
            {
              "pitch": 46,
              "velocity": 110,
              "position": 0,
              "duration": 0.13125
            },
            {
              "pitch": 36,
              "velocity": 110,
              "position": 0.25,
              "duration": 0.23541666666666666
            },
            {
              "pitch": 35,
              "velocity": 70,
              "position": 0.5,
              "duration": 0.23541666666666666
            },
            {
              "pitch": 36,
              "velocity": 75,
              "position": 1,
              "duration": 0.48541666666666666
            },
            {
              "pitch": 36,
              "velocity": 110,
              "position": 1.75,
              "duration": 0.13125
            },
            {
              "pitch": 41,
              "velocity": 80,
              "position": 2,
              "duration": 0.13125
            },
            {
              "pitch": 36,
              "velocity": 110,
              "position": 2.25,
              "duration": 0.13125
            },
            {
              "pitch": 41,
              "velocity": 74,
              "position": 2.5,
              "duration": 0.48541666666666666
            },
            {
              "pitch": 42,
              "velocity": 74,
              "position": 3,
              "duration": 0.48541666666666666
            },
            {
              "pitch": 43,
              "velocity": 60,
              "position": 3.5,
              "duration": 0.23541666666666666
            }
          ]
        },
        "11": {
          "ctab": {
            "srcChannel": 11,
            "name": "Gt S",
            "accType": "CHORD1",
            "editable": false,
            "mutedNotes": [],
            "mutedChords": [
              "1+2+5",
              "sus4",
              "1+5",
              "1+8",
              "7aug",
              "Maj7aug",
              "7(#9)",
              "7(b13)",
              "7(b9)",
              "7(13)",
              "7#11",
              "7b5",
              "7sus4",
              "dim7",
              "dim",
              "minMaj7(9)",
              "minMaj7",
              "min7(11)",
              "m7b5",
              "min6",
              "min",
              "aug",
              "Maj6(9)",
              "Maj7(9)",
              "Maj(9)",
              "Maj7#11",
              "Maj7",
              "Maj6"
            ],
            "autoStart": false,
            "sourceChordNote": 0,
            "sourceChordType": "7(9)",
            "ctb2Low": null,
            "ctb2Main": {
              "ntr": "ROOT_TRANSPOSITION",
              "ntt": "MELODIC_MINOR_5",
              "bassOn": false,
              "chordRootUpperLimit": 7,
              "noteLowLimit": 52,
              "noteHighLimit": 79,
              "rtr": "PITCH_SHIFT"
            },
            "ctb2High": null
          },
          "notes": [
            {
              "pitch": 106,
              "velocity": 80,
              "position": 3.5,
              "duration": 0.23541666666666666
            },
            {
              "pitch": 105,
              "velocity": 80,
              "position": 3.75,
              "duration": 0.23541666666666666
            }
          ]
        },
        "12": {
          "ctab": {
            "srcChannel": 12,
            "name": "Org S",
            "accType": "CHORD2",
            "editable": false,
            "mutedNotes": [],
            "mutedChords": [
              "1+2+5",
              "sus4",
              "1+5",
              "1+8",
              "7aug",
              "Maj7aug",
              "7(b13)",
              "7(b9)",
              "7(13)",
              "7#11",
              "7(9)",
              "7b5",
              "7sus4",
              "dim7",
              "dim",
              "minMaj7(9)",
              "minMaj7",
              "min7(11)",
              "min7(9)",
              "min(9)",
              "m7b5",
              "min7",
              "min6",
              "min",
              "aug",
              "Maj6(9)",
              "Maj7(9)",
              "Maj(9)",
              "Maj7#11",
              "Maj7",
              "Maj6"
            ],
            "autoStart": false,
            "sourceChordNote": 0,
            "sourceChordType": "7(9)",
            "ctb2Low": null,
            "ctb2Main": {
              "ntr": "ROOT_TRANSPOSITION",
              "ntt": "BYPASS",
              "bassOn": false,
              "chordRootUpperLimit": 7,
              "noteLowLimit": 48,
              "noteHighLimit": 72,
              "rtr": "PITCH_SHIFT"
            },
            "ctb2High": null
          },
          "notes": []
        },
        "13": {
          "ctab": {
            "srcChannel": 13,
            "name": "Tpt S",
            "accType": "PAD",
            "editable": false,
            "mutedNotes": [],
            "mutedChords": [
              "1+2+5",
              "sus4",
              "1+5",
              "1+8",
              "7aug",
              "Maj7aug",
              "7(#9)",
              "7(b13)",
              "7(b9)",
              "7(13)",
              "7#11",
              "7b5",
              "7sus4",
              "dim7",
              "dim",
              "minMaj7(9)",
              "minMaj7",
              "min7(11)",
              "m7b5",
              "min6",
              "min",
              "aug",
              "Maj6(9)",
              "Maj7(9)",
              "Maj(9)",
              "Maj7#11",
              "Maj7",
              "Maj6"
            ],
            "autoStart": false,
            "sourceChordNote": 0,
            "sourceChordType": "7(9)",
            "ctb2Low": null,
            "ctb2Main": {
              "ntr": "ROOT_TRANSPOSITION",
              "ntt": "MELODIC_MINOR_5",
              "bassOn": false,
              "chordRootUpperLimit": 2,
              "noteLowLimit": 0,
              "noteHighLimit": 127,
              "rtr": "PITCH_SHIFT"
            },
            "ctb2High": null
          },
          "notes": [
            {
              "pitch": 66,
              "velocity": 49,
              "position": 0.5,
              "duration": 0.46458333333333335
            },
            {
              "pitch": 71,
              "velocity": 84,
              "position": 0.4895833333333333,
              "duration": 0.48541666666666666
            },
            {
              "pitch": 72,
              "velocity": 84,
              "position": 0.9895833333333334,
              "duration": 0.18333333333333332
            },
            {
              "pitch": 67,
              "velocity": 49,
              "position": 1,
              "duration": 0.17291666666666666
            }
          ]
        },
        "14": {
          "ctab": {
            "srcChannel": 14,
            "name": "Sax S",
            "accType": "PHRASE1",
            "editable": false,
            "mutedNotes": [],
            "mutedChords": [
              "1+2+5",
              "sus4",
              "1+5",
              "1+8",
              "7aug",
              "Maj7aug",
              "7(#9)",
              "7(b13)",
              "7(b9)",
              "7(13)",
              "7#11",
              "7b5",
              "7sus4",
              "dim7",
              "dim",
              "minMaj7(9)",
              "minMaj7",
              "min7(11)",
              "m7b5",
              "min6",
              "min",
              "aug",
              "Maj6(9)",
              "Maj7(9)",
              "Maj(9)",
              "Maj7#11",
              "Maj7",
              "Maj6"
            ],
            "autoStart": false,
            "sourceChordNote": 0,
            "sourceChordType": "7(9)",
            "ctb2Low": null,
            "ctb2Main": {
              "ntr": "ROOT_TRANSPOSITION",
              "ntt": "MELODIC_MINOR_5",
              "bassOn": false,
              "chordRootUpperLimit": 10,
              "noteLowLimit": 0,
              "noteHighLimit": 127,
              "rtr": "PITCH_SHIFT"
            },
            "ctb2High": null
          },
          "notes": [
            {
              "pitch": 57,
              "velocity": 75,
              "position": 0.4895833333333333,
              "duration": 0.48541666666666666
            },
            {
              "pitch": 61,
              "velocity": 123,
              "position": 0.4895833333333333,
              "duration": 0.48541666666666666
            },
            {
              "pitch": 58,
              "velocity": 75,
              "position": 0.9895833333333334,
              "duration": 0.19375
            },
            {
              "pitch": 62,
              "velocity": 123,
              "position": 0.9895833333333334,
              "duration": 0.19375
            }
          ]
        },
        "15": {
          "ctab": {
            "srcChannel": 15,
            "name": "Bari S",
            "accType": "PHRASE2",
            "editable": false,
            "mutedNotes": [],
            "mutedChords": [
              "1+2+5",
              "sus4",
              "1+5",
              "1+8",
              "7aug",
              "Maj7aug",
              "7(#9)",
              "7(b13)",
              "7(b9)",
              "7(13)",
              "7#11",
              "7b5",
              "7sus4",
              "dim7",
              "dim",
              "minMaj7(9)",
              "minMaj7",
              "min7(11)",
              "m7b5",
              "min6",
              "min",
              "aug",
              "Maj6(9)",
              "Maj7(9)",
              "Maj(9)",
              "Maj7#11",
              "Maj7",
              "Maj6"
            ],
            "autoStart": false,
            "sourceChordNote": 0,
            "sourceChordType": "7(9)",
            "ctb2Low": null,
            "ctb2Main": {
              "ntr": "ROOT_TRANSPOSITION",
              "ntt": "MELODIC_MINOR_5",
              "bassOn": true,
              "chordRootUpperLimit": 10,
              "noteLowLimit": 33,
              "noteHighLimit": 127,
              "rtr": "PITCH_SHIFT"
            },
            "ctb2High": null
          },
          "notes": [
            {
              "pitch": 35,
              "velocity": 122,
              "position": 0.5,
              "duration": 0.48541666666666666
            },
            {
              "pitch": 36,
              "velocity": 122,
              "position": 1,
              "duration": 0.25625
            }
          ]
        }
      }
    },
    "Intro_A": {
      "type": "Intro_A",
      "sizeInBeats": 4,
      "channels": {
        "1": {
          "ctab": {
            "srcChannel": 1,
            "name": "Bass P",
            "accType": "BASS",
            "editable": false,
            "mutedNotes": [],
            "mutedChords": [
              "sus4",
              "7aug",
              "7(#9)",
              "7(9)",
              "7b5",
              "7sus4",
              "7th",
              "min7(11)",
              "min7(9)",
              "min(9)",
              "m7b5",
              "min7",
              "min",
              "Maj"
            ],
            "autoStart": false,
            "sourceChordNote": 0,
            "sourceChordType": "Maj7",
            "ctb2Low": null,
            "ctb2Main": {
              "ntr": "ROOT_TRANSPOSITION",
              "ntt": "MELODY",
              "bassOn": true,
              "chordRootUpperLimit": 3,
              "noteLowLimit": 28,
              "noteHighLimit": 127,
              "rtr": "PITCH_SHIFT_TO_ROOT"
            },
            "ctb2High": null
          },
          "notes": []
        },
        "2": {
          "ctab": {
            "srcChannel": 2,
            "name": "Gt P",
            "accType": "CHORD1",
            "editable": false,
            "mutedNotes": [],
            "mutedChords": [
              "7(9)",
              "7th",
              "min7(9)",
              "min(9)",
              "min7",
              "Maj"
            ],
            "autoStart": false,
            "sourceChordNote": 0,
            "sourceChordType": "Maj7",
            "ctb2Low": null,
            "ctb2Main": {
              "ntr": "ROOT_TRANSPOSITION",
              "ntt": "MELODY",
              "bassOn": false,
              "chordRootUpperLimit": 7,
              "noteLowLimit": 0,
              "noteHighLimit": 127,
              "rtr": "PITCH_SHIFT"
            },
            "ctb2High": null
          },
          "notes": []
        },
        "3": {
          "ctab": {
            "srcChannel": 3,
            "name": "Org P",
            "accType": "CHORD2",
            "editable": false,
            "mutedNotes": [],
            "mutedChords": [
              "7(#9)",
              "7th",
              "Maj"
            ],
            "autoStart": false,
            "sourceChordNote": 0,
            "sourceChordType": "Maj7",
            "ctb2Low": null,
            "ctb2Main": {
              "ntr": "ROOT_FIXED",
              "ntt": "CHORD",
              "bassOn": false,
              "chordRootUpperLimit": 7,
              "noteLowLimit": 0,
              "noteHighLimit": 127,
              "rtr": "PITCH_SHIFT"
            },
            "ctb2High": null
          },
          "notes": []
        },
        "4": {
          "ctab": {
            "srcChannel": 4,
            "name": "Tpt P",
            "accType": "PAD",
            "editable": false,
            "mutedNotes": [],
            "mutedChords": [
              "7(9)",
              "7th",
              "min7(9)",
              "min(9)",
              "min7",
              "Maj"
            ],
            "autoStart": false,
            "sourceChordNote": 0,
            "sourceChordType": "Maj7",
            "ctb2Low": null,
            "ctb2Main": {
              "ntr": "ROOT_FIXED",
              "ntt": "CHORD",
              "bassOn": false,
              "chordRootUpperLimit": 7,
              "noteLowLimit": 0,
              "noteHighLimit": 127,
              "rtr": "PITCH_SHIFT"
            },
            "ctb2High": null
          },
          "notes": []
        },
        "5": {
          "ctab": {
            "srcChannel": 5,
            "name": "Sax P",
            "accType": "PHRASE1",
            "editable": false,
            "mutedNotes": [],
            "mutedChords": [
              "7(9)",
              "7th",
              "min7(9)",
              "min(9)",
              "min7",
              "Maj"
            ],
            "autoStart": false,
            "sourceChordNote": 0,
            "sourceChordType": "Maj7",
            "ctb2Low": null,
            "ctb2Main": {
              "ntr": "ROOT_FIXED",
              "ntt": "CHORD",
              "bassOn": false,
              "chordRootUpperLimit": 7,
              "noteLowLimit": 0,
              "noteHighLimit": 127,
              "rtr": "PITCH_SHIFT"
            },
            "ctb2High": null
          },
          "notes": []
        },
        "6": {
          "ctab": {
            "srcChannel": 6,
            "name": "Bari P",
            "accType": "PHRASE2",
            "editable": false,
            "mutedNotes": [],
            "mutedChords": [
              "7(9)",
              "7th",
              "min7(9)",
              "min(9)",
              "min7",
              "Maj"
            ],
            "autoStart": false,
            "sourceChordNote": 0,
            "sourceChordType": "Maj7",
            "ctb2Low": null,
            "ctb2Main": {
              "ntr": "ROOT_TRANSPOSITION",
              "ntt": "MELODY",
              "bassOn": true,
              "chordRootUpperLimit": 10,
              "noteLowLimit": 33,
              "noteHighLimit": 127,
              "rtr": "PITCH_SHIFT_TO_ROOT"
            },
            "ctb2High": null
          },
          "notes": []
        },
        "8": {
          "ctab": {
            "srcChannel": 8,
            "name": "Perc",
            "accType": "SUBRHYTHM",
            "editable": false,
            "mutedNotes": [],
            "mutedChords": [],
            "autoStart": true,
            "sourceChordNote": 0,
            "sourceChordType": "Maj7",
            "ctb2Low": null,
            "ctb2Main": {
              "ntr": "ROOT_FIXED",
              "ntt": "BYPASS",
              "bassOn": false,
              "chordRootUpperLimit": 6,
              "noteLowLimit": 0,
              "noteHighLimit": 127,
              "rtr": "PITCH_SHIFT"
            },
            "ctb2High": null
          },
          "notes": []
        },
        "9": {
          "ctab": {
            "srcChannel": 9,
            "name": "Drs",
            "accType": "RHYTHM",
            "editable": false,
            "mutedNotes": [],
            "mutedChords": [],
            "autoStart": true,
            "sourceChordNote": 0,
            "sourceChordType": "Maj7",
            "ctb2Low": null,
            "ctb2Main": {
              "ntr": "ROOT_FIXED",
              "ntt": "BYPASS",
              "bassOn": false,
              "chordRootUpperLimit": 6,
              "noteLowLimit": 0,
              "noteHighLimit": 127,
              "rtr": "PITCH_SHIFT"
            },
            "ctb2High": null
          },
          "notes": [
            {
              "pitch": 32,
              "velocity": 70,
              "position": 0,
              "duration": 0.00625
            },
            {
              "pitch": 42,
              "velocity": 72,
              "position": 0,
              "duration": 0.00625
            },
            {
              "pitch": 31,
              "velocity": 25,
              "position": 0.25,
              "duration": 0.00625
            },
            {
              "pitch": 31,
              "velocity": 18,
              "position": 0.375,
              "duration": 0.00625
            },
            {
              "pitch": 33,
              "velocity": 45,
              "position": 0.5,
              "duration": 0.00625
            },
            {
              "pitch": 42,
              "velocity": 50,
              "position": 0.75,
              "duration": 0.00625
            },
            {
              "pitch": 31,
              "velocity": 47,
              "position": 1,
              "duration": 0.00625
            },
            {
              "pitch": 32,
              "velocity": 70,
              "position": 1,
              "duration": 0.00625
            },
            {
              "pitch": 33,
              "velocity": 65,
              "position": 1.25,
              "duration": 0.00625
            },
            {
              "pitch": 42,
              "velocity": 79,
              "position": 1.5,
              "duration": 0.00625
            },
            {
              "pitch": 31,
              "velocity": 63,
              "position": 1.75,
              "duration": 0.00625
            },
            {
              "pitch": 31,
              "velocity": 37,
              "position": 1.875,
              "duration": 0.00625
            },
            {
              "pitch": 32,
              "velocity": 70,
              "position": 2,
              "duration": 0.00625
            },
            {
              "pitch": 33,
              "velocity": 85,
              "position": 2,
              "duration": 0.00625
            },
            {
              "pitch": 42,
              "velocity": 60,
              "position": 2.25,
              "duration": 0.00625
            },
            {
              "pitch": 31,
              "velocity": 95,
              "position": 2.5,
              "duration": 0.00625
            },
            {
              "pitch": 33,
              "velocity": 85,
              "position": 2.75,
              "duration": 0.00625
            },
            {
              "pitch": 31,
              "velocity": 121,
              "position": 3,
              "duration": 0.00625
            },
            {
              "pitch": 46,
              "velocity": 86,
              "position": 3,
              "duration": 0.00625
            },
            {
              "pitch": 32,
              "velocity": 70,
              "position": 3,
              "duration": 0.00625
            },
            {
              "pitch": 44,
              "velocity": 6,
              "position": 3.283333333333333,
              "duration": 0.00625
            },
            {
              "pitch": 49,
              "velocity": 90,
              "position": 3.9895833333333335,
              "duration": 0.00625
            }
          ]
        },
        "10": {
          "ctab": {
            "srcChannel": 10,
            "name": "Bass S",
            "accType": "BASS",
            "editable": false,
            "mutedNotes": [],
            "mutedChords": [
              "1+2+5",
              "1+5",
              "1+8",
              "Maj7aug",
              "7(b13)",
              "7(b9)",
              "7(13)",
              "7#11",
              "dim7",
              "dim",
              "minMaj7(9)",
              "minMaj7",
              "min6",
              "aug",
              "Maj6(9)",
              "Maj7(9)",
              "Maj(9)",
              "Maj7#11",
              "Maj7",
              "Maj6"
            ],
            "autoStart": false,
            "sourceChordNote": 0,
            "sourceChordType": "7(9)",
            "ctb2Low": null,
            "ctb2Main": {
              "ntr": "ROOT_TRANSPOSITION",
              "ntt": "MELODIC_MINOR_5",
              "bassOn": true,
              "chordRootUpperLimit": 3,
              "noteLowLimit": 28,
              "noteHighLimit": 127,
              "rtr": "PITCH_SHIFT_TO_ROOT"
            },
            "ctb2High": null
          },
          "notes": []
        },
        "11": {
          "ctab": {
            "srcChannel": 11,
            "name": "Gt S",
            "accType": "CHORD1",
            "editable": false,
            "mutedNotes": [],
            "mutedChords": [
              "1+2+5",
              "sus4",
              "1+5",
              "1+8",
              "7aug",
              "Maj7aug",
              "7(#9)",
              "7(b13)",
              "7(b9)",
              "7(13)",
              "7#11",
              "7b5",
              "7sus4",
              "dim7",
              "dim",
              "minMaj7(9)",
              "minMaj7",
              "min7(11)",
              "m7b5",
              "min6",
              "min",
              "aug",
              "Maj6(9)",
              "Maj7(9)",
              "Maj(9)",
              "Maj7#11",
              "Maj7",
              "Maj6"
            ],
            "autoStart": false,
            "sourceChordNote": 0,
            "sourceChordType": "7(9)",
            "ctb2Low": null,
            "ctb2Main": {
              "ntr": "ROOT_TRANSPOSITION",
              "ntt": "MELODIC_MINOR_5",
              "bassOn": false,
              "chordRootUpperLimit": 7,
              "noteLowLimit": 52,
              "noteHighLimit": 79,
              "rtr": "PITCH_SHIFT"
            },
            "ctb2High": null
          },
          "notes": []
        },
        "12": {
          "ctab": {
            "srcChannel": 12,
            "name": "Org S",
            "accType": "CHORD2",
            "editable": false,
            "mutedNotes": [],
            "mutedChords": [
              "1+2+5",
              "sus4",
              "1+5",
              "1+8",
              "7aug",
              "Maj7aug",
              "7(b13)",
              "7(b9)",
              "7(13)",
              "7#11",
              "7(9)",
              "7b5",
              "7sus4",
              "dim7",
              "dim",
              "minMaj7(9)",
              "minMaj7",
              "min7(11)",
              "min7(9)",
              "min(9)",
              "m7b5",
              "min7",
              "min6",
              "min",
              "aug",
              "Maj6(9)",
              "Maj7(9)",
              "Maj(9)",
              "Maj7#11",
              "Maj7",
              "Maj6"
            ],
            "autoStart": false,
            "sourceChordNote": 0,
            "sourceChordType": "7(9)",
            "ctb2Low": null,
            "ctb2Main": {
              "ntr": "ROOT_TRANSPOSITION",
              "ntt": "BYPASS",
              "bassOn": false,
              "chordRootUpperLimit": 7,
              "noteLowLimit": 48,
              "noteHighLimit": 72,
              "rtr": "PITCH_SHIFT"
            },
            "ctb2High": null
          },
          "notes": []
        },
        "13": {
          "ctab": {
            "srcChannel": 13,
            "name": "Tpt S",
            "accType": "PAD",
            "editable": false,
            "mutedNotes": [],
            "mutedChords": [
              "1+2+5",
              "sus4",
              "1+5",
              "1+8",
              "7aug",
              "Maj7aug",
              "7(#9)",
              "7(b13)",
              "7(b9)",
              "7(13)",
              "7#11",
              "7b5",
              "7sus4",
              "dim7",
              "dim",
              "minMaj7(9)",
              "minMaj7",
              "min7(11)",
              "m7b5",
              "min6",
              "min",
              "aug",
              "Maj6(9)",
              "Maj7(9)",
              "Maj(9)",
              "Maj7#11",
              "Maj7",
              "Maj6"
            ],
            "autoStart": false,
            "sourceChordNote": 0,
            "sourceChordType": "7(9)",
            "ctb2Low": null,
            "ctb2Main": {
              "ntr": "ROOT_TRANSPOSITION",
              "ntt": "MELODIC_MINOR_5",
              "bassOn": false,
              "chordRootUpperLimit": 2,
              "noteLowLimit": 0,
              "noteHighLimit": 127,
              "rtr": "PITCH_SHIFT"
            },
            "ctb2High": null
          },
          "notes": []
        },
        "14": {
          "ctab": {
            "srcChannel": 14,
            "name": "Sax S",
            "accType": "PHRASE1",
            "editable": false,
            "mutedNotes": [],
            "mutedChords": [
              "1+2+5",
              "sus4",
              "1+5",
              "1+8",
              "7aug",
              "Maj7aug",
              "7(#9)",
              "7(b13)",
              "7(b9)",
              "7(13)",
              "7#11",
              "7b5",
              "7sus4",
              "dim7",
              "dim",
              "minMaj7(9)",
              "minMaj7",
              "min7(11)",
              "m7b5",
              "min6",
              "min",
              "aug",
              "Maj6(9)",
              "Maj7(9)",
              "Maj(9)",
              "Maj7#11",
              "Maj7",
              "Maj6"
            ],
            "autoStart": false,
            "sourceChordNote": 0,
            "sourceChordType": "7(9)",
            "ctb2Low": null,
            "ctb2Main": {
              "ntr": "ROOT_TRANSPOSITION",
              "ntt": "MELODIC_MINOR_5",
              "bassOn": false,
              "chordRootUpperLimit": 10,
              "noteLowLimit": 0,
              "noteHighLimit": 127,
              "rtr": "PITCH_SHIFT"
            },
            "ctb2High": null
          },
          "notes": []
        },
        "15": {
          "ctab": {
            "srcChannel": 15,
            "name": "Bari S",
            "accType": "PHRASE2",
            "editable": false,
            "mutedNotes": [],
            "mutedChords": [
              "1+2+5",
              "sus4",
              "1+5",
              "1+8",
              "7aug",
              "Maj7aug",
              "7(#9)",
              "7(b13)",
              "7(b9)",
              "7(13)",
              "7#11",
              "7b5",
              "7sus4",
              "dim7",
              "dim",
              "minMaj7(9)",
              "minMaj7",
              "min7(11)",
              "m7b5",
              "min6",
              "min",
              "aug",
              "Maj6(9)",
              "Maj7(9)",
              "Maj(9)",
              "Maj7#11",
              "Maj7",
              "Maj6"
            ],
            "autoStart": false,
            "sourceChordNote": 0,
            "sourceChordType": "7(9)",
            "ctb2Low": null,
            "ctb2Main": {
              "ntr": "ROOT_TRANSPOSITION",
              "ntt": "MELODIC_MINOR_5",
              "bassOn": true,
              "chordRootUpperLimit": 10,
              "noteLowLimit": 33,
              "noteHighLimit": 127,
              "rtr": "PITCH_SHIFT"
            },
            "ctb2High": null
          },
          "notes": []
        }
      }
    },
    "Ending_A": {
      "type": "Ending_A",
      "sizeInBeats": 8,
      "channels": {
        "1": {
          "ctab": {
            "srcChannel": 1,
            "name": "Bass P",
            "accType": "BASS",
            "editable": false,
            "mutedNotes": [],
            "mutedChords": [
              "sus4",
              "7aug",
              "7(#9)",
              "7(9)",
              "7b5",
              "7sus4",
              "7th",
              "min7(11)",
              "min7(9)",
              "min(9)",
              "m7b5",
              "min7",
              "min",
              "Maj"
            ],
            "autoStart": false,
            "sourceChordNote": 0,
            "sourceChordType": "Maj7",
            "ctb2Low": null,
            "ctb2Main": {
              "ntr": "ROOT_TRANSPOSITION",
              "ntt": "MELODY",
              "bassOn": true,
              "chordRootUpperLimit": 3,
              "noteLowLimit": 28,
              "noteHighLimit": 127,
              "rtr": "PITCH_SHIFT_TO_ROOT"
            },
            "ctb2High": null
          },
          "notes": [
            {
              "pitch": 36,
              "velocity": 80,
              "position": 0,
              "duration": 6.985416666666667
            }
          ]
        },
        "2": {
          "ctab": {
            "srcChannel": 2,
            "name": "Gt P",
            "accType": "CHORD1",
            "editable": false,
            "mutedNotes": [],
            "mutedChords": [
              "7(9)",
              "7th",
              "min7(9)",
              "min(9)",
              "min7",
              "Maj"
            ],
            "autoStart": false,
            "sourceChordNote": 0,
            "sourceChordType": "Maj7",
            "ctb2Low": null,
            "ctb2Main": {
              "ntr": "ROOT_TRANSPOSITION",
              "ntt": "MELODY",
              "bassOn": false,
              "chordRootUpperLimit": 7,
              "noteLowLimit": 0,
              "noteHighLimit": 127,
              "rtr": "PITCH_SHIFT"
            },
            "ctb2High": null
          },
          "notes": [
            {
              "pitch": 67,
              "velocity": 35,
              "position": 0.03125,
              "duration": 6.954166666666667
            },
            {
              "pitch": 71,
              "velocity": 35,
              "position": 0.03125,
              "duration": 6.954166666666667
            },
            {
              "pitch": 64,
              "velocity": 35,
              "position": 0.020833333333333332,
              "duration": 6.964583333333334
            },
            {
              "pitch": 55,
              "velocity": 28,
              "position": 0,
              "duration": 6.985416666666667
            },
            {
              "pitch": 59,
              "velocity": 28,
              "position": 0,
              "duration": 6.985416666666667
            },
            {
              "pitch": 60,
              "velocity": 35,
              "position": 0.010416666666666666,
              "duration": 6.985416666666667
            }
          ]
        },
        "3": {
          "ctab": {
            "srcChannel": 3,
            "name": "Org P",
            "accType": "CHORD2",
            "editable": false,
            "mutedNotes": [],
            "mutedChords": [
              "7(#9)",
              "7th",
              "Maj"
            ],
            "autoStart": false,
            "sourceChordNote": 0,
            "sourceChordType": "Maj7",
            "ctb2Low": null,
            "ctb2Main": {
              "ntr": "ROOT_FIXED",
              "ntt": "CHORD",
              "bassOn": false,
              "chordRootUpperLimit": 7,
              "noteLowLimit": 0,
              "noteHighLimit": 127,
              "rtr": "PITCH_SHIFT"
            },
            "ctb2High": null
          },
          "notes": [
            {
              "pitch": 64,
              "velocity": 100,
              "position": 0,
              "duration": 6.922916666666667
            },
            {
              "pitch": 71,
              "velocity": 100,
              "position": 0,
              "duration": 6.922916666666667
            },
            {
              "pitch": 67,
              "velocity": 100,
              "position": 0,
              "duration": 6.922916666666667
            }
          ]
        },
        "4": {
          "ctab": {
            "srcChannel": 4,
            "name": "Tpt P",
            "accType": "PAD",
            "editable": false,
            "mutedNotes": [],
            "mutedChords": [
              "7(9)",
              "7th",
              "min7(9)",
              "min(9)",
              "min7",
              "Maj"
            ],
            "autoStart": false,
            "sourceChordNote": 0,
            "sourceChordType": "Maj7",
            "ctb2Low": null,
            "ctb2Main": {
              "ntr": "ROOT_FIXED",
              "ntt": "CHORD",
              "bassOn": false,
              "chordRootUpperLimit": 7,
              "noteLowLimit": 0,
              "noteHighLimit": 127,
              "rtr": "PITCH_SHIFT"
            },
            "ctb2High": null
          },
          "notes": [
            {
              "pitch": 67,
              "velocity": 82,
              "position": 0,
              "duration": 6.902083333333334
            },
            {
              "pitch": 71,
              "velocity": 82,
              "position": 0,
              "duration": 6.94375
            }
          ]
        },
        "5": {
          "ctab": {
            "srcChannel": 5,
            "name": "Sax P",
            "accType": "PHRASE1",
            "editable": false,
            "mutedNotes": [],
            "mutedChords": [
              "7(9)",
              "7th",
              "min7(9)",
              "min(9)",
              "min7",
              "Maj"
            ],
            "autoStart": false,
            "sourceChordNote": 0,
            "sourceChordType": "Maj7",
            "ctb2Low": null,
            "ctb2Main": {
              "ntr": "ROOT_FIXED",
              "ntt": "CHORD",
              "bassOn": false,
              "chordRootUpperLimit": 7,
              "noteLowLimit": 0,
              "noteHighLimit": 127,
              "rtr": "PITCH_SHIFT"
            },
            "ctb2High": null
          },
          "notes": [
            {
              "pitch": 64,
              "velocity": 94,
              "position": 0,
              "duration": 6.902083333333334
            },
            {
              "pitch": 59,
              "velocity": 94,
              "position": 0,
              "duration": 6.94375
            }
          ]
        },
        "6": {
          "ctab": {
            "srcChannel": 6,
            "name": "Bari P",
            "accType": "PHRASE2",
            "editable": false,
            "mutedNotes": [],
            "mutedChords": [
              "7(9)",
              "7th",
              "min7(9)",
              "min(9)",
              "min7",
              "Maj"
            ],
            "autoStart": false,
            "sourceChordNote": 0,
            "sourceChordType": "Maj7",
            "ctb2Low": null,
            "ctb2Main": {
              "ntr": "ROOT_TRANSPOSITION",
              "ntt": "MELODY",
              "bassOn": true,
              "chordRootUpperLimit": 10,
              "noteLowLimit": 33,
              "noteHighLimit": 127,
              "rtr": "PITCH_SHIFT_TO_ROOT"
            },
            "ctb2High": null
          },
          "notes": [
            {
              "pitch": 36,
              "velocity": 107,
              "position": 0.010416666666666666,
              "duration": 6.94375
            }
          ]
        },
        "8": {
          "ctab": {
            "srcChannel": 8,
            "name": "Perc",
            "accType": "SUBRHYTHM",
            "editable": false,
            "mutedNotes": [],
            "mutedChords": [],
            "autoStart": true,
            "sourceChordNote": 0,
            "sourceChordType": "Maj7",
            "ctb2Low": null,
            "ctb2Main": {
              "ntr": "ROOT_FIXED",
              "ntt": "BYPASS",
              "bassOn": false,
              "chordRootUpperLimit": 6,
              "noteLowLimit": 0,
              "noteHighLimit": 127,
              "rtr": "PITCH_SHIFT"
            },
            "ctb2High": null
          },
          "notes": [
            {
              "pitch": 54,
              "velocity": 80,
              "position": 0,
              "duration": 0.00625
            },
            {
              "pitch": 82,
              "velocity": 60,
              "position": 0,
              "duration": 0.00625
            }
          ]
        },
        "9": {
          "ctab": {
            "srcChannel": 9,
            "name": "Drs",
            "accType": "RHYTHM",
            "editable": false,
            "mutedNotes": [],
            "mutedChords": [],
            "autoStart": true,
            "sourceChordNote": 0,
            "sourceChordType": "Maj7",
            "ctb2Low": null,
            "ctb2Main": {
              "ntr": "ROOT_FIXED",
              "ntt": "BYPASS",
              "bassOn": false,
              "chordRootUpperLimit": 6,
              "noteLowLimit": 0,
              "noteHighLimit": 127,
              "rtr": "PITCH_SHIFT"
            },
            "ctb2High": null
          },
          "notes": [
            {
              "pitch": 33,
              "velocity": 105,
              "position": 0,
              "duration": 0.00625
            },
            {
              "pitch": 59,
              "velocity": 103,
              "position": 0,
              "duration": 0.00625
            },
            {
              "pitch": 53,
              "velocity": 98,
              "position": 0,
              "duration": 0.00625
            },
            {
              "pitch": 44,
              "velocity": 55,
              "position": 0,
              "duration": 0.00625
            },
            {
              "pitch": 31,
              "velocity": 18,
              "position": 6.625,
              "duration": 0.00625
            },
            {
              "pitch": 31,
              "velocity": 60,
              "position": 6.75,
              "duration": 0.00625
            },
            {
              "pitch": 31,
              "velocity": 120,
              "position": 6.875,
              "duration": 0.00625
            },
            {
              "pitch": 33,
              "velocity": 105,
              "position": 7,
              "duration": 0.00625
            },
            {
              "pitch": 44,
              "velocity": 105,
              "position": 7,
              "duration": 0.00625
            }
          ]
        },
        "10": {
          "ctab": {
            "srcChannel": 10,
            "name": "Bass S",
            "accType": "BASS",
            "editable": false,
            "mutedNotes": [],
            "mutedChords": [
              "1+2+5",
              "1+5",
              "1+8",
              "Maj7aug",
              "7(b13)",
              "7(b9)",
              "7(13)",
              "7#11",
              "dim7",
              "dim",
              "minMaj7(9)",
              "minMaj7",
              "min6",
              "aug",
              "Maj6(9)",
              "Maj7(9)",
              "Maj(9)",
              "Maj7#11",
              "Maj7",
              "Maj6"
            ],
            "autoStart": false,
            "sourceChordNote": 0,
            "sourceChordType": "7(9)",
            "ctb2Low": null,
            "ctb2Main": {
              "ntr": "ROOT_TRANSPOSITION",
              "ntt": "MELODIC_MINOR_5",
              "bassOn": true,
              "chordRootUpperLimit": 3,
              "noteLowLimit": 28,
              "noteHighLimit": 127,
              "rtr": "PITCH_SHIFT_TO_ROOT"
            },
            "ctb2High": null
          },
          "notes": [
            {
              "pitch": 36,
              "velocity": 80,
              "position": 0,
              "duration": 6.985416666666667
            }
          ]
        },
        "11": {
          "ctab": {
            "srcChannel": 11,
            "name": "Gt S",
            "accType": "CHORD1",
            "editable": false,
            "mutedNotes": [],
            "mutedChords": [
              "1+2+5",
              "sus4",
              "1+5",
              "1+8",
              "7aug",
              "Maj7aug",
              "7(#9)",
              "7(b13)",
              "7(b9)",
              "7(13)",
              "7#11",
              "7b5",
              "7sus4",
              "dim7",
              "dim",
              "minMaj7(9)",
              "minMaj7",
              "min7(11)",
              "m7b5",
              "min6",
              "min",
              "aug",
              "Maj6(9)",
              "Maj7(9)",
              "Maj(9)",
              "Maj7#11",
              "Maj7",
              "Maj6"
            ],
            "autoStart": false,
            "sourceChordNote": 0,
            "sourceChordType": "7(9)",
            "ctb2Low": null,
            "ctb2Main": {
              "ntr": "ROOT_TRANSPOSITION",
              "ntt": "MELODIC_MINOR_5",
              "bassOn": false,
              "chordRootUpperLimit": 7,
              "noteLowLimit": 52,
              "noteHighLimit": 79,
              "rtr": "PITCH_SHIFT"
            },
            "ctb2High": null
          },
          "notes": [
            {
              "pitch": 106,
              "velocity": 80,
              "position": 0,
              "duration": 0.23541666666666666
            },
            {
              "pitch": 67,
              "velocity": 35,
              "position": 0.03125,
              "duration": 6.954166666666667
            },
            {
              "pitch": 62,
              "velocity": 35,
              "position": 0.020833333333333332,
              "duration": 6.964583333333334
            },
            {
              "pitch": 52,
              "velocity": 28,
              "position": 0,
              "duration": 6.985416666666667
            },
            {
              "pitch": 58,
              "velocity": 35,
              "position": 0.010416666666666666,
              "duration": 6.985416666666667
            }
          ]
        },
        "12": {
          "ctab": {
            "srcChannel": 12,
            "name": "Org S",
            "accType": "CHORD2",
            "editable": false,
            "mutedNotes": [],
            "mutedChords": [
              "1+2+5",
              "sus4",
              "1+5",
              "1+8",
              "7aug",
              "Maj7aug",
              "7(b13)",
              "7(b9)",
              "7(13)",
              "7#11",
              "7(9)",
              "7b5",
              "7sus4",
              "dim7",
              "dim",
              "minMaj7(9)",
              "minMaj7",
              "min7(11)",
              "min7(9)",
              "min(9)",
              "m7b5",
              "min7",
              "min6",
              "min",
              "aug",
              "Maj6(9)",
              "Maj7(9)",
              "Maj(9)",
              "Maj7#11",
              "Maj7",
              "Maj6"
            ],
            "autoStart": false,
            "sourceChordNote": 0,
            "sourceChordType": "7(9)",
            "ctb2Low": null,
            "ctb2Main": {
              "ntr": "ROOT_TRANSPOSITION",
              "ntt": "BYPASS",
              "bassOn": false,
              "chordRootUpperLimit": 7,
              "noteLowLimit": 48,
              "noteHighLimit": 72,
              "rtr": "PITCH_SHIFT"
            },
            "ctb2High": null
          },
          "notes": [
            {
              "pitch": 58,
              "velocity": 100,
              "position": 0,
              "duration": 6.922916666666667
            },
            {
              "pitch": 67,
              "velocity": 100,
              "position": 0,
              "duration": 6.922916666666667
            },
            {
              "pitch": 64,
              "velocity": 100,
              "position": 0,
              "duration": 6.922916666666667
            }
          ]
        },
        "13": {
          "ctab": {
            "srcChannel": 13,
            "name": "Tpt S",
            "accType": "PAD",
            "editable": false,
            "mutedNotes": [],
            "mutedChords": [
              "1+2+5",
              "sus4",
              "1+5",
              "1+8",
              "7aug",
              "Maj7aug",
              "7(#9)",
              "7(b13)",
              "7(b9)",
              "7(13)",
              "7#11",
              "7b5",
              "7sus4",
              "dim7",
              "dim",
              "minMaj7(9)",
              "minMaj7",
              "min7(11)",
              "m7b5",
              "min6",
              "min",
              "aug",
              "Maj6(9)",
              "Maj7(9)",
              "Maj(9)",
              "Maj7#11",
              "Maj7",
              "Maj6"
            ],
            "autoStart": false,
            "sourceChordNote": 0,
            "sourceChordType": "7(9)",
            "ctb2Low": null,
            "ctb2Main": {
              "ntr": "ROOT_TRANSPOSITION",
              "ntt": "MELODIC_MINOR_5",
              "bassOn": false,
              "chordRootUpperLimit": 2,
              "noteLowLimit": 0,
              "noteHighLimit": 127,
              "rtr": "PITCH_SHIFT"
            },
            "ctb2High": null
          },
          "notes": [
            {
              "pitch": 69,
              "velocity": 78,
              "position": 0,
              "duration": 6.902083333333334
            },
            {
              "pitch": 72,
              "velocity": 82,
              "position": 0,
              "duration": 6.94375
            }
          ]
        },
        "14": {
          "ctab": {
            "srcChannel": 14,
            "name": "Sax S",
            "accType": "PHRASE1",
            "editable": false,
            "mutedNotes": [],
            "mutedChords": [
              "1+2+5",
              "sus4",
              "1+5",
              "1+8",
              "7aug",
              "Maj7aug",
              "7(#9)",
              "7(b13)",
              "7(b9)",
              "7(13)",
              "7#11",
              "7b5",
              "7sus4",
              "dim7",
              "dim",
              "minMaj7(9)",
              "minMaj7",
              "min7(11)",
              "m7b5",
              "min6",
              "min",
              "aug",
              "Maj6(9)",
              "Maj7(9)",
              "Maj(9)",
              "Maj7#11",
              "Maj7",
              "Maj6"
            ],
            "autoStart": false,
            "sourceChordNote": 0,
            "sourceChordType": "7(9)",
            "ctb2Low": null,
            "ctb2Main": {
              "ntr": "ROOT_TRANSPOSITION",
              "ntt": "MELODIC_MINOR_5",
              "bassOn": false,
              "chordRootUpperLimit": 10,
              "noteLowLimit": 0,
              "noteHighLimit": 127,
              "rtr": "PITCH_SHIFT"
            },
            "ctb2High": null
          },
          "notes": [
            {
              "pitch": 64,
              "velocity": 94,
              "position": 0,
              "duration": 6.902083333333334
            },
            {
              "pitch": 58,
              "velocity": 94,
              "position": 0,
              "duration": 6.94375
            }
          ]
        },
        "15": {
          "ctab": {
            "srcChannel": 15,
            "name": "Bari S",
            "accType": "PHRASE2",
            "editable": false,
            "mutedNotes": [],
            "mutedChords": [
              "1+2+5",
              "sus4",
              "1+5",
              "1+8",
              "7aug",
              "Maj7aug",
              "7(#9)",
              "7(b13)",
              "7(b9)",
              "7(13)",
              "7#11",
              "7b5",
              "7sus4",
              "dim7",
              "dim",
              "minMaj7(9)",
              "minMaj7",
              "min7(11)",
              "m7b5",
              "min6",
              "min",
              "aug",
              "Maj6(9)",
              "Maj7(9)",
              "Maj(9)",
              "Maj7#11",
              "Maj7",
              "Maj6"
            ],
            "autoStart": false,
            "sourceChordNote": 0,
            "sourceChordType": "7(9)",
            "ctb2Low": null,
            "ctb2Main": {
              "ntr": "ROOT_TRANSPOSITION",
              "ntt": "MELODIC_MINOR_5",
              "bassOn": true,
              "chordRootUpperLimit": 10,
              "noteLowLimit": 33,
              "noteHighLimit": 127,
              "rtr": "PITCH_SHIFT"
            },
            "ctb2High": null
          },
          "notes": [
            {
              "pitch": 36,
              "velocity": 107,
              "position": 0.010416666666666666,
              "duration": 6.94375
            }
          ]
        }
      }
    },
    "Fill_In_BA": {
      "type": "Fill_In_BA",
      "sizeInBeats": 4,
      "channels": {
        "1": {
          "ctab": {
            "srcChannel": 1,
            "name": "Bass P",
            "accType": "BASS",
            "editable": false,
            "mutedNotes": [],
            "mutedChords": [
              "sus4",
              "7aug",
              "7(#9)",
              "7(9)",
              "7b5",
              "7sus4",
              "7th",
              "min7(11)",
              "min7(9)",
              "min(9)",
              "m7b5",
              "min7",
              "min",
              "Maj"
            ],
            "autoStart": false,
            "sourceChordNote": 0,
            "sourceChordType": "Maj7",
            "ctb2Low": null,
            "ctb2Main": {
              "ntr": "ROOT_TRANSPOSITION",
              "ntt": "MELODY",
              "bassOn": true,
              "chordRootUpperLimit": 3,
              "noteLowLimit": 28,
              "noteHighLimit": 127,
              "rtr": "PITCH_SHIFT_TO_ROOT"
            },
            "ctb2High": null
          },
          "notes": [
            {
              "pitch": 36,
              "velocity": 80,
              "position": 0,
              "duration": 0.48541666666666666
            },
            {
              "pitch": 36,
              "velocity": 110,
              "position": 0.5,
              "duration": 0.13125
            },
            {
              "pitch": 36,
              "velocity": 80,
              "position": 0.75,
              "duration": 0.48541666666666666
            }
          ]
        },
        "2": {
          "ctab": {
            "srcChannel": 2,
            "name": "Gt P",
            "accType": "CHORD1",
            "editable": false,
            "mutedNotes": [],
            "mutedChords": [
              "7(9)",
              "7th",
              "min7(9)",
              "min(9)",
              "min7",
              "Maj"
            ],
            "autoStart": false,
            "sourceChordNote": 0,
            "sourceChordType": "Maj7",
            "ctb2Low": null,
            "ctb2Main": {
              "ntr": "ROOT_TRANSPOSITION",
              "ntt": "MELODY",
              "bassOn": false,
              "chordRootUpperLimit": 7,
              "noteLowLimit": 0,
              "noteHighLimit": 127,
              "rtr": "PITCH_SHIFT"
            },
            "ctb2High": null
          },
          "notes": [
            {
              "pitch": 67,
              "velocity": 35,
              "position": 0.03125,
              "duration": 0.20416666666666666
            },
            {
              "pitch": 71,
              "velocity": 35,
              "position": 0.03125,
              "duration": 0.20416666666666666
            },
            {
              "pitch": 64,
              "velocity": 35,
              "position": 0.020833333333333332,
              "duration": 0.21458333333333332
            },
            {
              "pitch": 60,
              "velocity": 35,
              "position": 0.010416666666666666,
              "duration": 0.23541666666666666
            },
            {
              "pitch": 67,
              "velocity": 16,
              "position": 0.25,
              "duration": 0.11041666666666666
            },
            {
              "pitch": 71,
              "velocity": 16,
              "position": 0.25,
              "duration": 0.11041666666666666
            },
            {
              "pitch": 64,
              "velocity": 16,
              "position": 0.2604166666666667,
              "duration": 0.12083333333333333
            },
            {
              "pitch": 60,
              "velocity": 16,
              "position": 0.2708333333333333,
              "duration": 0.14166666666666666
            },
            {
              "pitch": 67,
              "velocity": 35,
              "position": 0.75,
              "duration": 0.45416666666666666
            },
            {
              "pitch": 71,
              "velocity": 35,
              "position": 0.75,
              "duration": 0.45416666666666666
            },
            {
              "pitch": 64,
              "velocity": 35,
              "position": 0.7604166666666666,
              "duration": 0.46458333333333335
            },
            {
              "pitch": 60,
              "velocity": 35,
              "position": 0.7708333333333334,
              "duration": 0.48541666666666666
            },
            {
              "pitch": 55,
              "velocity": 29,
              "position": 0.78125,
              "duration": 0.50625
            },
            {
              "pitch": 59,
              "velocity": 29,
              "position": 0.78125,
              "duration": 0.50625
            }
          ]
        },
        "3": {
          "ctab": {
            "srcChannel": 3,
            "name": "Org P",
            "accType": "CHORD2",
            "editable": false,
            "mutedNotes": [],
            "mutedChords": [
              "7(#9)",
              "7th",
              "Maj"
            ],
            "autoStart": false,
            "sourceChordNote": 0,
            "sourceChordType": "Maj7",
            "ctb2Low": null,
            "ctb2Main": {
              "ntr": "ROOT_FIXED",
              "ntt": "CHORD",
              "bassOn": false,
              "chordRootUpperLimit": 7,
              "noteLowLimit": 0,
              "noteHighLimit": 127,
              "rtr": "PITCH_SHIFT"
            },
            "ctb2High": null
          },
          "notes": [
            {
              "pitch": 71,
              "velocity": 106,
              "position": 0.74375,
              "duration": 0.4166666666666667
            },
            {
              "pitch": 76,
              "velocity": 106,
              "position": 0.74375,
              "duration": 0.4166666666666667
            },
            {
              "pitch": 67,
              "velocity": 106,
              "position": 0.7395833333333334,
              "duration": 0.44375
            }
          ]
        },
        "4": {
          "ctab": {
            "srcChannel": 4,
            "name": "Tpt P",
            "accType": "PAD",
            "editable": false,
            "mutedNotes": [],
            "mutedChords": [
              "7(9)",
              "7th",
              "min7(9)",
              "min(9)",
              "min7",
              "Maj"
            ],
            "autoStart": false,
            "sourceChordNote": 0,
            "sourceChordType": "Maj7",
            "ctb2Low": null,
            "ctb2Main": {
              "ntr": "ROOT_FIXED",
              "ntt": "CHORD",
              "bassOn": false,
              "chordRootUpperLimit": 7,
              "noteLowLimit": 0,
              "noteHighLimit": 127,
              "rtr": "PITCH_SHIFT"
            },
            "ctb2High": null
          },
          "notes": []
        },
        "5": {
          "ctab": {
            "srcChannel": 5,
            "name": "Sax P",
            "accType": "PHRASE1",
            "editable": false,
            "mutedNotes": [],
            "mutedChords": [
              "7(9)",
              "7th",
              "min7(9)",
              "min(9)",
              "min7",
              "Maj"
            ],
            "autoStart": false,
            "sourceChordNote": 0,
            "sourceChordType": "Maj7",
            "ctb2Low": null,
            "ctb2Main": {
              "ntr": "ROOT_FIXED",
              "ntt": "CHORD",
              "bassOn": false,
              "chordRootUpperLimit": 7,
              "noteLowLimit": 0,
              "noteHighLimit": 127,
              "rtr": "PITCH_SHIFT"
            },
            "ctb2High": null
          },
          "notes": [
            {
              "pitch": 76,
              "velocity": 127,
              "position": 0.7395833333333334,
              "duration": 0.40208333333333335
            },
            {
              "pitch": 71,
              "velocity": 127,
              "position": 0.7395833333333334,
              "duration": 0.44375
            },
            {
              "pitch": 69,
              "velocity": 40,
              "position": 1.15625,
              "duration": 0.11041666666666666
            },
            {
              "pitch": 72,
              "velocity": 40,
              "position": 1.1145833333333333,
              "duration": 0.15208333333333332
            },
            {
              "pitch": 67,
              "velocity": 30,
              "position": 1.2395833333333333,
              "duration": 0.11041666666666666
            },
            {
              "pitch": 71,
              "velocity": 30,
              "position": 1.2395833333333333,
              "duration": 0.15208333333333332
            },
            {
              "pitch": 64,
              "velocity": 20,
              "position": 1.3229166666666667,
              "duration": 0.11041666666666666
            },
            {
              "pitch": 60,
              "velocity": 10,
              "position": 1.40625,
              "duration": 0.11041666666666666
            },
            {
              "pitch": 69,
              "velocity": 20,
              "position": 1.3645833333333333,
              "duration": 0.15208333333333332
            },
            {
              "pitch": 59,
              "velocity": 10,
              "position": 1.4895833333333333,
              "duration": 0.11041666666666666
            },
            {
              "pitch": 67,
              "velocity": 10,
              "position": 1.4895833333333333,
              "duration": 0.15208333333333332
            },
            {
              "pitch": 64,
              "velocity": 1,
              "position": 1.6145833333333333,
              "duration": 0.15208333333333332
            }
          ]
        },
        "6": {
          "ctab": {
            "srcChannel": 6,
            "name": "Bari P",
            "accType": "PHRASE2",
            "editable": false,
            "mutedNotes": [],
            "mutedChords": [
              "7(9)",
              "7th",
              "min7(9)",
              "min(9)",
              "min7",
              "Maj"
            ],
            "autoStart": false,
            "sourceChordNote": 0,
            "sourceChordType": "Maj7",
            "ctb2Low": null,
            "ctb2Main": {
              "ntr": "ROOT_TRANSPOSITION",
              "ntt": "MELODY",
              "bassOn": true,
              "chordRootUpperLimit": 10,
              "noteLowLimit": 33,
              "noteHighLimit": 127,
              "rtr": "PITCH_SHIFT_TO_ROOT"
            },
            "ctb2High": null
          },
          "notes": [
            {
              "pitch": 64,
              "velocity": 65,
              "position": 0.7395833333333334,
              "duration": 0.44375
            },
            {
              "pitch": 60,
              "velocity": 38,
              "position": 1.15625,
              "duration": 0.11041666666666666
            },
            {
              "pitch": 59,
              "velocity": 35,
              "position": 1.2395833333333333,
              "duration": 0.11041666666666666
            },
            {
              "pitch": 57,
              "velocity": 32,
              "position": 1.3229166666666667,
              "duration": 0.11041666666666666
            },
            {
              "pitch": 55,
              "velocity": 29,
              "position": 1.40625,
              "duration": 0.11041666666666666
            },
            {
              "pitch": 52,
              "velocity": 29,
              "position": 1.4895833333333333,
              "duration": 0.11041666666666666
            },
            {
              "pitch": 48,
              "velocity": 29,
              "position": 1.5729166666666667,
              "duration": 0.11041666666666666
            },
            {
              "pitch": 47,
              "velocity": 29,
              "position": 1.65625,
              "duration": 0.11041666666666666
            }
          ]
        },
        "8": {
          "ctab": {
            "srcChannel": 8,
            "name": "Perc",
            "accType": "SUBRHYTHM",
            "editable": false,
            "mutedNotes": [],
            "mutedChords": [],
            "autoStart": true,
            "sourceChordNote": 0,
            "sourceChordType": "Maj7",
            "ctb2Low": null,
            "ctb2Main": {
              "ntr": "ROOT_FIXED",
              "ntt": "BYPASS",
              "bassOn": false,
              "chordRootUpperLimit": 6,
              "noteLowLimit": 0,
              "noteHighLimit": 127,
              "rtr": "PITCH_SHIFT"
            },
            "ctb2High": null
          },
          "notes": [
            {
              "pitch": 54,
              "velocity": 80,
              "position": 0,
              "duration": 0.00625
            },
            {
              "pitch": 82,
              "velocity": 60,
              "position": 0,
              "duration": 0.00625
            },
            {
              "pitch": 54,
              "velocity": 30,
              "position": 0.25,
              "duration": 0.00625
            },
            {
              "pitch": 82,
              "velocity": 30,
              "position": 0.25,
              "duration": 0.00625
            },
            {
              "pitch": 54,
              "velocity": 60,
              "position": 0.5,
              "duration": 0.00625
            },
            {
              "pitch": 82,
              "velocity": 80,
              "position": 0.5,
              "duration": 0.00625
            },
            {
              "pitch": 54,
              "velocity": 30,
              "position": 0.75,
              "duration": 0.00625
            },
            {
              "pitch": 82,
              "velocity": 30,
              "position": 0.75,
              "duration": 0.00625
            }
          ]
        },
        "9": {
          "ctab": {
            "srcChannel": 9,
            "name": "Drs",
            "accType": "RHYTHM",
            "editable": false,
            "mutedNotes": [],
            "mutedChords": [],
            "autoStart": true,
            "sourceChordNote": 0,
            "sourceChordType": "Maj7",
            "ctb2Low": null,
            "ctb2Main": {
              "ntr": "ROOT_FIXED",
              "ntt": "BYPASS",
              "bassOn": false,
              "chordRootUpperLimit": 6,
              "noteLowLimit": 0,
              "noteHighLimit": 127,
              "rtr": "PITCH_SHIFT"
            },
            "ctb2High": null
          },
          "notes": [
            {
              "pitch": 33,
              "velocity": 105,
              "position": 0,
              "duration": 0.00625
            },
            {
              "pitch": 59,
              "velocity": 103,
              "position": 0,
              "duration": 0.00625
            },
            {
              "pitch": 53,
              "velocity": 101,
              "position": 0,
              "duration": 0.00625
            },
            {
              "pitch": 44,
              "velocity": 62,
              "position": 0,
              "duration": 0.00625
            },
            {
              "pitch": 31,
              "velocity": 25,
              "position": 0.25,
              "duration": 0.00625
            },
            {
              "pitch": 31,
              "velocity": 79,
              "position": 0.5,
              "duration": 0.00625
            },
            {
              "pitch": 44,
              "velocity": 49,
              "position": 0.5,
              "duration": 0.00625
            },
            {
              "pitch": 33,
              "velocity": 65,
              "position": 0.75,
              "duration": 0.00625
            },
            {
              "pitch": 46,
              "velocity": 77,
              "position": 0.75,
              "duration": 0.00625
            },
            {
              "pitch": 44,
              "velocity": 70,
              "position": 1,
              "duration": 0.00625
            },
            {
              "pitch": 31,
              "velocity": 54,
              "position": 1.25,
              "duration": 0.00625
            },
            {
              "pitch": 33,
              "velocity": 90,
              "position": 1.5,
              "duration": 0.00625
            },
            {
              "pitch": 42,
              "velocity": 85,
              "position": 1.75,
              "duration": 0.00625
            },
            {
              "pitch": 31,
              "velocity": 79,
              "position": 2,
              "duration": 0.00625
            },
            {
              "pitch": 33,
              "velocity": 65,
              "position": 2.25,
              "duration": 0.00625
            },
            {
              "pitch": 42,
              "velocity": 60,
              "position": 2.5,
              "duration": 0.00625
            },
            {
              "pitch": 31,
              "velocity": 54,
              "position": 2.75,
              "duration": 0.00625
            },
            {
              "pitch": 31,
              "velocity": 127,
              "position": 3,
              "duration": 0.00625
            },
            {
              "pitch": 31,
              "velocity": 17,
              "position": 3.1666666666666665,
              "duration": 0.00625
            },
            {
              "pitch": 31,
              "velocity": 25,
              "position": 3.3333333333333335,
              "duration": 0.00625
            },
            {
              "pitch": 31,
              "velocity": 50,
              "position": 3.5,
              "duration": 0.00625
            },
            {
              "pitch": 31,
              "velocity": 99,
              "position": 3.75,
              "duration": 0.00625
            },
            {
              "pitch": 49,
              "velocity": 90,
              "position": 3.9895833333333335,
              "duration": 0.00625
            }
          ]
        },
        "10": {
          "ctab": {
            "srcChannel": 10,
            "name": "Bass S",
            "accType": "BASS",
            "editable": false,
            "mutedNotes": [],
            "mutedChords": [
              "1+2+5",
              "1+5",
              "1+8",
              "Maj7aug",
              "7(b13)",
              "7(b9)",
              "7(13)",
              "7#11",
              "dim7",
              "dim",
              "minMaj7(9)",
              "minMaj7",
              "min6",
              "aug",
              "Maj6(9)",
              "Maj7(9)",
              "Maj(9)",
              "Maj7#11",
              "Maj7",
              "Maj6"
            ],
            "autoStart": false,
            "sourceChordNote": 0,
            "sourceChordType": "7(9)",
            "ctb2Low": null,
            "ctb2Main": {
              "ntr": "ROOT_TRANSPOSITION",
              "ntt": "MELODIC_MINOR_5",
              "bassOn": true,
              "chordRootUpperLimit": 3,
              "noteLowLimit": 28,
              "noteHighLimit": 127,
              "rtr": "PITCH_SHIFT_TO_ROOT"
            },
            "ctb2High": null
          },
          "notes": [
            {
              "pitch": 36,
              "velocity": 80,
              "position": 0,
              "duration": 0.48541666666666666
            },
            {
              "pitch": 36,
              "velocity": 110,
              "position": 0.5,
              "duration": 0.13125
            },
            {
              "pitch": 36,
              "velocity": 80,
              "position": 0.75,
              "duration": 0.48541666666666666
            }
          ]
        },
        "11": {
          "ctab": {
            "srcChannel": 11,
            "name": "Gt S",
            "accType": "CHORD1",
            "editable": false,
            "mutedNotes": [],
            "mutedChords": [
              "1+2+5",
              "sus4",
              "1+5",
              "1+8",
              "7aug",
              "Maj7aug",
              "7(#9)",
              "7(b13)",
              "7(b9)",
              "7(13)",
              "7#11",
              "7b5",
              "7sus4",
              "dim7",
              "dim",
              "minMaj7(9)",
              "minMaj7",
              "min7(11)",
              "m7b5",
              "min6",
              "min",
              "aug",
              "Maj6(9)",
              "Maj7(9)",
              "Maj(9)",
              "Maj7#11",
              "Maj7",
              "Maj6"
            ],
            "autoStart": false,
            "sourceChordNote": 0,
            "sourceChordType": "7(9)",
            "ctb2Low": null,
            "ctb2Main": {
              "ntr": "ROOT_TRANSPOSITION",
              "ntt": "MELODIC_MINOR_5",
              "bassOn": false,
              "chordRootUpperLimit": 7,
              "noteLowLimit": 52,
              "noteHighLimit": 79,
              "rtr": "PITCH_SHIFT"
            },
            "ctb2High": null
          },
          "notes": [
            {
              "pitch": 106,
              "velocity": 80,
              "position": 0,
              "duration": 0.23541666666666666
            },
            {
              "pitch": 67,
              "velocity": 35,
              "position": 0.03125,
              "duration": 0.20416666666666666
            },
            {
              "pitch": 62,
              "velocity": 35,
              "position": 0.020833333333333332,
              "duration": 0.21458333333333332
            },
            {
              "pitch": 58,
              "velocity": 35,
              "position": 0.010416666666666666,
              "duration": 0.23541666666666666
            },
            {
              "pitch": 67,
              "velocity": 16,
              "position": 0.25,
              "duration": 0.11041666666666666
            },
            {
              "pitch": 62,
              "velocity": 16,
              "position": 0.2604166666666667,
              "duration": 0.12083333333333333
            },
            {
              "pitch": 58,
              "velocity": 16,
              "position": 0.2708333333333333,
              "duration": 0.14166666666666666
            },
            {
              "pitch": 99,
              "velocity": 80,
              "position": 0.25,
              "duration": 0.23541666666666666
            },
            {
              "pitch": 98,
              "velocity": 80,
              "position": 0.5,
              "duration": 0.23541666666666666
            },
            {
              "pitch": 105,
              "velocity": 80,
              "position": 0.75,
              "duration": 0.23541666666666666
            },
            {
              "pitch": 67,
              "velocity": 35,
              "position": 0.75,
              "duration": 0.45416666666666666
            },
            {
              "pitch": 62,
              "velocity": 35,
              "position": 0.7604166666666666,
              "duration": 0.46458333333333335
            },
            {
              "pitch": 58,
              "velocity": 35,
              "position": 0.7708333333333334,
              "duration": 0.48541666666666666
            },
            {
              "pitch": 52,
              "velocity": 29,
              "position": 0.78125,
              "duration": 0.50625
            }
          ]
        },
        "12": {
          "ctab": {
            "srcChannel": 12,
            "name": "Org S",
            "accType": "CHORD2",
            "editable": false,
            "mutedNotes": [],
            "mutedChords": [
              "1+2+5",
              "sus4",
              "1+5",
              "1+8",
              "7aug",
              "Maj7aug",
              "7(b13)",
              "7(b9)",
              "7(13)",
              "7#11",
              "7(9)",
              "7b5",
              "7sus4",
              "dim7",
              "dim",
              "minMaj7(9)",
              "minMaj7",
              "min7(11)",
              "min7(9)",
              "min(9)",
              "m7b5",
              "min7",
              "min6",
              "min",
              "aug",
              "Maj6(9)",
              "Maj7(9)",
              "Maj(9)",
              "Maj7#11",
              "Maj7",
              "Maj6"
            ],
            "autoStart": false,
            "sourceChordNote": 0,
            "sourceChordType": "7(9)",
            "ctb2Low": null,
            "ctb2Main": {
              "ntr": "ROOT_TRANSPOSITION",
              "ntt": "BYPASS",
              "bassOn": false,
              "chordRootUpperLimit": 7,
              "noteLowLimit": 48,
              "noteHighLimit": 72,
              "rtr": "PITCH_SHIFT"
            },
            "ctb2High": null
          },
          "notes": [
            {
              "pitch": 58,
              "velocity": 106,
              "position": 0.7541666666666667,
              "duration": 0.3854166666666667
            },
            {
              "pitch": 69,
              "velocity": 106,
              "position": 0.74375,
              "duration": 0.4166666666666667
            },
            {
              "pitch": 72,
              "velocity": 106,
              "position": 0.74375,
              "duration": 0.4166666666666667
            },
            {
              "pitch": 64,
              "velocity": 106,
              "position": 0.7395833333333334,
              "duration": 0.44375
            },
            {
              "pitch": 71,
              "velocity": 39,
              "position": 1.0875,
              "duration": 0.13541666666666666
            },
            {
              "pitch": 72,
              "velocity": 38,
              "position": 1.1979166666666667,
              "duration": 0.17916666666666667
            },
            {
              "pitch": 74,
              "velocity": 39,
              "position": 1.3229166666666667,
              "duration": 0.16666666666666666
            },
            {
              "pitch": 76,
              "velocity": 38,
              "position": 1.4375,
              "duration": 0.16666666666666666
            },
            {
              "pitch": 77,
              "velocity": 38,
              "position": 1.56875,
              "duration": 0.14375
            }
          ]
        },
        "13": {
          "ctab": {
            "srcChannel": 13,
            "name": "Tpt S",
            "accType": "PAD",
            "editable": false,
            "mutedNotes": [],
            "mutedChords": [
              "1+2+5",
              "sus4",
              "1+5",
              "1+8",
              "7aug",
              "Maj7aug",
              "7(#9)",
              "7(b13)",
              "7(b9)",
              "7(13)",
              "7#11",
              "7b5",
              "7sus4",
              "dim7",
              "dim",
              "minMaj7(9)",
              "minMaj7",
              "min7(11)",
              "m7b5",
              "min6",
              "min",
              "aug",
              "Maj6(9)",
              "Maj7(9)",
              "Maj(9)",
              "Maj7#11",
              "Maj7",
              "Maj6"
            ],
            "autoStart": false,
            "sourceChordNote": 0,
            "sourceChordType": "7(9)",
            "ctb2Low": null,
            "ctb2Main": {
              "ntr": "ROOT_TRANSPOSITION",
              "ntt": "MELODIC_MINOR_5",
              "bassOn": false,
              "chordRootUpperLimit": 2,
              "noteLowLimit": 0,
              "noteHighLimit": 127,
              "rtr": "PITCH_SHIFT"
            },
            "ctb2High": null
          },
          "notes": []
        },
        "14": {
          "ctab": {
            "srcChannel": 14,
            "name": "Sax S",
            "accType": "PHRASE1",
            "editable": false,
            "mutedNotes": [],
            "mutedChords": [
              "1+2+5",
              "sus4",
              "1+5",
              "1+8",
              "7aug",
              "Maj7aug",
              "7(#9)",
              "7(b13)",
              "7(b9)",
              "7(13)",
              "7#11",
              "7b5",
              "7sus4",
              "dim7",
              "dim",
              "minMaj7(9)",
              "minMaj7",
              "min7(11)",
              "m7b5",
              "min6",
              "min",
              "aug",
              "Maj6(9)",
              "Maj7(9)",
              "Maj(9)",
              "Maj7#11",
              "Maj7",
              "Maj6"
            ],
            "autoStart": false,
            "sourceChordNote": 0,
            "sourceChordType": "7(9)",
            "ctb2Low": null,
            "ctb2Main": {
              "ntr": "ROOT_TRANSPOSITION",
              "ntt": "MELODIC_MINOR_5",
              "bassOn": false,
              "chordRootUpperLimit": 10,
              "noteLowLimit": 0,
              "noteHighLimit": 127,
              "rtr": "PITCH_SHIFT"
            },
            "ctb2High": null
          },
          "notes": [
            {
              "pitch": 74,
              "velocity": 127,
              "position": 0.7395833333333334,
              "duration": 0.40208333333333335
            },
            {
              "pitch": 70,
              "velocity": 127,
              "position": 0.7395833333333334,
              "duration": 0.44375
            },
            {
              "pitch": 69,
              "velocity": 40,
              "position": 1.15625,
              "duration": 0.11041666666666666
            },
            {
              "pitch": 72,
              "velocity": 40,
              "position": 1.1145833333333333,
              "duration": 0.15208333333333332
            },
            {
              "pitch": 67,
              "velocity": 30,
              "position": 1.2395833333333333,
              "duration": 0.11041666666666666
            },
            {
              "pitch": 70,
              "velocity": 30,
              "position": 1.2395833333333333,
              "duration": 0.15208333333333332
            },
            {
              "pitch": 65,
              "velocity": 20,
              "position": 1.3229166666666667,
              "duration": 0.11041666666666666
            },
            {
              "pitch": 64,
              "velocity": 10,
              "position": 1.40625,
              "duration": 0.11041666666666666
            },
            {
              "pitch": 69,
              "velocity": 20,
              "position": 1.3645833333333333,
              "duration": 0.15208333333333332
            },
            {
              "pitch": 62,
              "velocity": 10,
              "position": 1.4895833333333333,
              "duration": 0.11041666666666666
            },
            {
              "pitch": 67,
              "velocity": 10,
              "position": 1.4895833333333333,
              "duration": 0.15208333333333332
            },
            {
              "pitch": 65,
              "velocity": 1,
              "position": 1.6145833333333333,
              "duration": 0.15208333333333332
            }
          ]
        },
        "15": {
          "ctab": {
            "srcChannel": 15,
            "name": "Bari S",
            "accType": "PHRASE2",
            "editable": false,
            "mutedNotes": [],
            "mutedChords": [
              "1+2+5",
              "sus4",
              "1+5",
              "1+8",
              "7aug",
              "Maj7aug",
              "7(#9)",
              "7(b13)",
              "7(b9)",
              "7(13)",
              "7#11",
              "7b5",
              "7sus4",
              "dim7",
              "dim",
              "minMaj7(9)",
              "minMaj7",
              "min7(11)",
              "m7b5",
              "min6",
              "min",
              "aug",
              "Maj6(9)",
              "Maj7(9)",
              "Maj(9)",
              "Maj7#11",
              "Maj7",
              "Maj6"
            ],
            "autoStart": false,
            "sourceChordNote": 0,
            "sourceChordType": "7(9)",
            "ctb2Low": null,
            "ctb2Main": {
              "ntr": "ROOT_TRANSPOSITION",
              "ntt": "MELODIC_MINOR_5",
              "bassOn": true,
              "chordRootUpperLimit": 10,
              "noteLowLimit": 33,
              "noteHighLimit": 127,
              "rtr": "PITCH_SHIFT"
            },
            "ctb2High": null
          },
          "notes": [
            {
              "pitch": 64,
              "velocity": 65,
              "position": 0.7395833333333334,
              "duration": 0.44375
            },
            {
              "pitch": 63,
              "velocity": 38,
              "position": 1.15625,
              "duration": 0.11041666666666666
            },
            {
              "pitch": 61,
              "velocity": 35,
              "position": 1.2395833333333333,
              "duration": 0.11041666666666666
            },
            {
              "pitch": 59,
              "velocity": 32,
              "position": 1.3229166666666667,
              "duration": 0.11041666666666666
            },
            {
              "pitch": 58,
              "velocity": 29,
              "position": 1.40625,
              "duration": 0.11041666666666666
            },
            {
              "pitch": 56,
              "velocity": 29,
              "position": 1.4895833333333333,
              "duration": 0.11041666666666666
            },
            {
              "pitch": 55,
              "velocity": 29,
              "position": 1.5729166666666667,
              "duration": 0.11041666666666666
            },
            {
              "pitch": 53,
              "velocity": 29,
              "position": 1.65625,
              "duration": 0.11041666666666666
            }
          ]
        }
      }
    },
    "Main_B": {
      "type": "Main_B",
      "sizeInBeats": 16,
      "channels": {
        "1": {
          "ctab": {
            "srcChannel": 1,
            "name": "Bass P",
            "accType": "BASS",
            "editable": false,
            "mutedNotes": [],
            "mutedChords": [
              "7aug",
              "7(#9)",
              "7(9)",
              "7b5",
              "7th",
              "min7(11)",
              "min7(9)",
              "min(9)",
              "m7b5",
              "min7",
              "min",
              "Maj"
            ],
            "autoStart": false,
            "sourceChordNote": 0,
            "sourceChordType": "Maj7",
            "ctb2Low": null,
            "ctb2Main": {
              "ntr": "ROOT_TRANSPOSITION",
              "ntt": "MELODY",
              "bassOn": true,
              "chordRootUpperLimit": 3,
              "noteLowLimit": 28,
              "noteHighLimit": 127,
              "rtr": "PITCH_SHIFT_TO_ROOT"
            },
            "ctb2High": null
          },
          "notes": [
            {
              "pitch": 36,
              "velocity": 80,
              "position": 0,
              "duration": 0.48541666666666666
            },
            {
              "pitch": 36,
              "velocity": 110,
              "position": 0.5,
              "duration": 0.13125
            },
            {
              "pitch": 36,
              "velocity": 80,
              "position": 0.75,
              "duration": 0.48541666666666666
            },
            {
              "pitch": 36,
              "velocity": 110,
              "position": 1.25,
              "duration": 0.13125
            },
            {
              "pitch": 48,
              "velocity": 110,
              "position": 1.5,
              "duration": 0.13125
            },
            {
              "pitch": 43,
              "velocity": 62,
              "position": 1.75,
              "duration": 0.13125
            },
            {
              "pitch": 48,
              "velocity": 80,
              "position": 2,
              "duration": 0.23541666666666666
            },
            {
              "pitch": 43,
              "velocity": 80,
              "position": 2.5,
              "duration": 0.23541666666666666
            },
            {
              "pitch": 52,
              "velocity": 80,
              "position": 3,
              "duration": 0.9854166666666667
            },
            {
              "pitch": 36,
              "velocity": 110,
              "position": 4.25,
              "duration": 0.23541666666666666
            },
            {
              "pitch": 36,
              "velocity": 80,
              "position": 4.5,
              "duration": 0.48541666666666666
            },
            {
              "pitch": 36,
              "velocity": 110,
              "position": 5.25,
              "duration": 0.13125
            },
            {
              "pitch": 40,
              "velocity": 80,
              "position": 5.5,
              "duration": 0.48541666666666666
            },
            {
              "pitch": 40,
              "velocity": 110,
              "position": 6.25,
              "duration": 0.13125
            },
            {
              "pitch": 43,
              "velocity": 80,
              "position": 6.5,
              "duration": 0.48541666666666666
            },
            {
              "pitch": 43,
              "velocity": 110,
              "position": 7.25,
              "duration": 0.13125
            },
            {
              "pitch": 45,
              "velocity": 80,
              "position": 7.5,
              "duration": 0.48541666666666666
            },
            {
              "pitch": 36,
              "velocity": 80,
              "position": 8,
              "duration": 0.48541666666666666
            },
            {
              "pitch": 36,
              "velocity": 110,
              "position": 8.5,
              "duration": 0.13125
            },
            {
              "pitch": 36,
              "velocity": 80,
              "position": 8.75,
              "duration": 0.48541666666666666
            },
            {
              "pitch": 36,
              "velocity": 110,
              "position": 9.25,
              "duration": 0.13125
            },
            {
              "pitch": 48,
              "velocity": 110,
              "position": 9.5,
              "duration": 0.13125
            },
            {
              "pitch": 43,
              "velocity": 62,
              "position": 9.75,
              "duration": 0.13125
            },
            {
              "pitch": 48,
              "velocity": 80,
              "position": 10,
              "duration": 0.23541666666666666
            },
            {
              "pitch": 43,
              "velocity": 80,
              "position": 10.5,
              "duration": 0.23541666666666666
            },
            {
              "pitch": 52,
              "velocity": 80,
              "position": 11,
              "duration": 0.9854166666666667
            },
            {
              "pitch": 36,
              "velocity": 110,
              "position": 12.25,
              "duration": 0.23541666666666666
            },
            {
              "pitch": 36,
              "velocity": 80,
              "position": 12.5,
              "duration": 0.48541666666666666
            },
            {
              "pitch": 36,
              "velocity": 110,
              "position": 13.25,
              "duration": 0.13125
            },
            {
              "pitch": 33,
              "velocity": 80,
              "position": 13.5,
              "duration": 0.48541666666666666
            },
            {
              "pitch": 33,
              "velocity": 110,
              "position": 14.25,
              "duration": 0.13125
            },
            {
              "pitch": 31,
              "velocity": 80,
              "position": 14.5,
              "duration": 0.48541666666666666
            },
            {
              "pitch": 31,
              "velocity": 110,
              "position": 15.25,
              "duration": 0.13125
            },
            {
              "pitch": 28,
              "velocity": 80,
              "position": 15.5,
              "duration": 0.48541666666666666
            }
          ]
        },
        "2": {
          "ctab": {
            "srcChannel": 2,
            "name": "Gt P",
            "accType": "CHORD1",
            "editable": false,
            "mutedNotes": [],
            "mutedChords": [
              "7(9)",
              "7th",
              "min7(9)",
              "min(9)",
              "min7",
              "Maj"
            ],
            "autoStart": false,
            "sourceChordNote": 0,
            "sourceChordType": "Maj7",
            "ctb2Low": null,
            "ctb2Main": {
              "ntr": "ROOT_TRANSPOSITION",
              "ntt": "MELODY",
              "bassOn": false,
              "chordRootUpperLimit": 7,
              "noteLowLimit": 0,
              "noteHighLimit": 127,
              "rtr": "PITCH_SHIFT"
            },
            "ctb2High": null
          },
          "notes": [
            {
              "pitch": 67,
              "velocity": 35,
              "position": 0.03125,
              "duration": 0.20416666666666666
            },
            {
              "pitch": 71,
              "velocity": 35,
              "position": 0.03125,
              "duration": 0.20416666666666666
            },
            {
              "pitch": 64,
              "velocity": 35,
              "position": 0.020833333333333332,
              "duration": 0.21458333333333332
            },
            {
              "pitch": 60,
              "velocity": 35,
              "position": 0.010416666666666666,
              "duration": 0.23541666666666666
            },
            {
              "pitch": 60,
              "velocity": 29,
              "position": 0.2708333333333333,
              "duration": 0.21458333333333332
            },
            {
              "pitch": 64,
              "velocity": 29,
              "position": 0.2604166666666667,
              "duration": 0.23541666666666666
            },
            {
              "pitch": 55,
              "velocity": 29,
              "position": 0,
              "duration": 0.50625
            },
            {
              "pitch": 59,
              "velocity": 29,
              "position": 0,
              "duration": 0.50625
            },
            {
              "pitch": 67,
              "velocity": 29,
              "position": 0.25,
              "duration": 0.25625
            },
            {
              "pitch": 71,
              "velocity": 29,
              "position": 0.25,
              "duration": 0.25625
            },
            {
              "pitch": 67,
              "velocity": 35,
              "position": 1.53125,
              "duration": 0.20416666666666666
            },
            {
              "pitch": 71,
              "velocity": 35,
              "position": 1.53125,
              "duration": 0.20416666666666666
            },
            {
              "pitch": 64,
              "velocity": 35,
              "position": 1.5208333333333333,
              "duration": 0.21458333333333332
            },
            {
              "pitch": 60,
              "velocity": 35,
              "position": 1.5104166666666667,
              "duration": 0.23541666666666666
            },
            {
              "pitch": 60,
              "velocity": 29,
              "position": 1.7708333333333333,
              "duration": 0.21458333333333332
            },
            {
              "pitch": 64,
              "velocity": 29,
              "position": 1.7604166666666667,
              "duration": 0.23541666666666666
            },
            {
              "pitch": 55,
              "velocity": 29,
              "position": 1.5,
              "duration": 0.50625
            },
            {
              "pitch": 59,
              "velocity": 29,
              "position": 1.5,
              "duration": 0.50625
            },
            {
              "pitch": 67,
              "velocity": 29,
              "position": 1.75,
              "duration": 0.25625
            },
            {
              "pitch": 71,
              "velocity": 29,
              "position": 1.75,
              "duration": 0.25625
            },
            {
              "pitch": 67,
              "velocity": 35,
              "position": 3.03125,
              "duration": 0.20416666666666666
            },
            {
              "pitch": 71,
              "velocity": 35,
              "position": 3.03125,
              "duration": 0.20416666666666666
            },
            {
              "pitch": 64,
              "velocity": 35,
              "position": 3.0208333333333335,
              "duration": 0.21458333333333332
            },
            {
              "pitch": 60,
              "velocity": 35,
              "position": 3.0104166666666665,
              "duration": 0.23541666666666666
            },
            {
              "pitch": 60,
              "velocity": 29,
              "position": 3.2708333333333335,
              "duration": 0.21458333333333332
            },
            {
              "pitch": 64,
              "velocity": 29,
              "position": 3.2604166666666665,
              "duration": 0.23541666666666666
            },
            {
              "pitch": 55,
              "velocity": 29,
              "position": 3,
              "duration": 0.50625
            },
            {
              "pitch": 59,
              "velocity": 29,
              "position": 3,
              "duration": 0.50625
            },
            {
              "pitch": 67,
              "velocity": 29,
              "position": 3.25,
              "duration": 0.25625
            },
            {
              "pitch": 71,
              "velocity": 29,
              "position": 3.25,
              "duration": 0.25625
            },
            {
              "pitch": 67,
              "velocity": 35,
              "position": 4.53125,
              "duration": 0.20416666666666666
            },
            {
              "pitch": 71,
              "velocity": 35,
              "position": 4.53125,
              "duration": 0.20416666666666666
            },
            {
              "pitch": 64,
              "velocity": 35,
              "position": 4.520833333333333,
              "duration": 0.21458333333333332
            },
            {
              "pitch": 60,
              "velocity": 35,
              "position": 4.510416666666667,
              "duration": 0.23541666666666666
            },
            {
              "pitch": 60,
              "velocity": 29,
              "position": 4.770833333333333,
              "duration": 0.21458333333333332
            },
            {
              "pitch": 64,
              "velocity": 29,
              "position": 4.760416666666667,
              "duration": 0.23541666666666666
            },
            {
              "pitch": 55,
              "velocity": 29,
              "position": 4.5,
              "duration": 0.50625
            },
            {
              "pitch": 59,
              "velocity": 29,
              "position": 4.5,
              "duration": 0.50625
            },
            {
              "pitch": 67,
              "velocity": 29,
              "position": 4.75,
              "duration": 0.25625
            },
            {
              "pitch": 71,
              "velocity": 29,
              "position": 4.75,
              "duration": 0.25625
            },
            {
              "pitch": 67,
              "velocity": 35,
              "position": 5.25,
              "duration": 0.23541666666666666
            },
            {
              "pitch": 71,
              "velocity": 35,
              "position": 5.25,
              "duration": 0.23541666666666666
            },
            {
              "pitch": 64,
              "velocity": 35,
              "position": 5.260416666666667,
              "duration": 0.23541666666666666
            },
            {
              "pitch": 60,
              "velocity": 35,
              "position": 5.270833333333333,
              "duration": 0.23541666666666666
            },
            {
              "pitch": 55,
              "velocity": 29,
              "position": 5.28125,
              "duration": 0.23541666666666666
            },
            {
              "pitch": 59,
              "velocity": 29,
              "position": 5.28125,
              "duration": 0.23541666666666666
            },
            {
              "pitch": 67,
              "velocity": 26,
              "position": 5.75,
              "duration": 0.0375
            },
            {
              "pitch": 71,
              "velocity": 26,
              "position": 5.75,
              "duration": 0.0375
            },
            {
              "pitch": 64,
              "velocity": 26,
              "position": 5.760416666666667,
              "duration": 0.0375
            },
            {
              "pitch": 60,
              "velocity": 26,
              "position": 5.770833333333333,
              "duration": 0.0375
            },
            {
              "pitch": 55,
              "velocity": 29,
              "position": 6,
              "duration": 0.23541666666666666
            },
            {
              "pitch": 59,
              "velocity": 29,
              "position": 6,
              "duration": 0.23541666666666666
            },
            {
              "pitch": 60,
              "velocity": 35,
              "position": 6.010416666666667,
              "duration": 0.23541666666666666
            },
            {
              "pitch": 64,
              "velocity": 35,
              "position": 6.020833333333333,
              "duration": 0.23541666666666666
            },
            {
              "pitch": 67,
              "velocity": 35,
              "position": 6.03125,
              "duration": 0.23541666666666666
            },
            {
              "pitch": 71,
              "velocity": 35,
              "position": 6.03125,
              "duration": 0.23541666666666666
            },
            {
              "pitch": 55,
              "velocity": 29,
              "position": 7,
              "duration": 0.23541666666666666
            },
            {
              "pitch": 59,
              "velocity": 29,
              "position": 7,
              "duration": 0.23541666666666666
            },
            {
              "pitch": 60,
              "velocity": 35,
              "position": 7.010416666666667,
              "duration": 0.23541666666666666
            },
            {
              "pitch": 64,
              "velocity": 35,
              "position": 7.020833333333333,
              "duration": 0.23541666666666666
            },
            {
              "pitch": 67,
              "velocity": 35,
              "position": 7.03125,
              "duration": 0.23541666666666666
            },
            {
              "pitch": 71,
              "velocity": 35,
              "position": 7.03125,
              "duration": 0.23541666666666666
            },
            {
              "pitch": 60,
              "velocity": 100,
              "position": 7.28125,
              "duration": 0.23541666666666666
            },
            {
              "pitch": 64,
              "velocity": 100,
              "position": 7.28125,
              "duration": 0.23541666666666666
            },
            {
              "pitch": 67,
              "velocity": 100,
              "position": 7.28125,
              "duration": 0.23541666666666666
            },
            {
              "pitch": 71,
              "velocity": 100,
              "position": 7.28125,
              "duration": 0.23541666666666666
            },
            {
              "pitch": 67,
              "velocity": 35,
              "position": 8.03125,
              "duration": 0.20416666666666666
            },
            {
              "pitch": 71,
              "velocity": 35,
              "position": 8.03125,
              "duration": 0.20416666666666666
            },
            {
              "pitch": 64,
              "velocity": 35,
              "position": 8.020833333333334,
              "duration": 0.21458333333333332
            },
            {
              "pitch": 60,
              "velocity": 35,
              "position": 8.010416666666666,
              "duration": 0.23541666666666666
            },
            {
              "pitch": 60,
              "velocity": 29,
              "position": 8.270833333333334,
              "duration": 0.21458333333333332
            },
            {
              "pitch": 64,
              "velocity": 29,
              "position": 8.260416666666666,
              "duration": 0.23541666666666666
            },
            {
              "pitch": 55,
              "velocity": 29,
              "position": 8,
              "duration": 0.50625
            },
            {
              "pitch": 59,
              "velocity": 29,
              "position": 8,
              "duration": 0.50625
            },
            {
              "pitch": 67,
              "velocity": 29,
              "position": 8.25,
              "duration": 0.25625
            },
            {
              "pitch": 71,
              "velocity": 29,
              "position": 8.25,
              "duration": 0.25625
            },
            {
              "pitch": 67,
              "velocity": 35,
              "position": 9.53125,
              "duration": 0.20416666666666666
            },
            {
              "pitch": 71,
              "velocity": 35,
              "position": 9.53125,
              "duration": 0.20416666666666666
            },
            {
              "pitch": 64,
              "velocity": 35,
              "position": 9.520833333333334,
              "duration": 0.21458333333333332
            },
            {
              "pitch": 60,
              "velocity": 35,
              "position": 9.510416666666666,
              "duration": 0.23541666666666666
            },
            {
              "pitch": 60,
              "velocity": 29,
              "position": 9.770833333333334,
              "duration": 0.21458333333333332
            },
            {
              "pitch": 64,
              "velocity": 29,
              "position": 9.760416666666666,
              "duration": 0.23541666666666666
            },
            {
              "pitch": 55,
              "velocity": 29,
              "position": 9.5,
              "duration": 0.50625
            },
            {
              "pitch": 59,
              "velocity": 29,
              "position": 9.5,
              "duration": 0.50625
            },
            {
              "pitch": 67,
              "velocity": 29,
              "position": 9.75,
              "duration": 0.25625
            },
            {
              "pitch": 71,
              "velocity": 29,
              "position": 9.75,
              "duration": 0.25625
            },
            {
              "pitch": 67,
              "velocity": 35,
              "position": 11.03125,
              "duration": 0.20416666666666666
            },
            {
              "pitch": 71,
              "velocity": 35,
              "position": 11.03125,
              "duration": 0.20416666666666666
            },
            {
              "pitch": 64,
              "velocity": 35,
              "position": 11.020833333333334,
              "duration": 0.21458333333333332
            },
            {
              "pitch": 60,
              "velocity": 35,
              "position": 11.010416666666666,
              "duration": 0.23541666666666666
            },
            {
              "pitch": 60,
              "velocity": 29,
              "position": 11.270833333333334,
              "duration": 0.21458333333333332
            },
            {
              "pitch": 64,
              "velocity": 29,
              "position": 11.260416666666666,
              "duration": 0.23541666666666666
            },
            {
              "pitch": 55,
              "velocity": 29,
              "position": 11,
              "duration": 0.50625
            },
            {
              "pitch": 59,
              "velocity": 29,
              "position": 11,
              "duration": 0.50625
            },
            {
              "pitch": 67,
              "velocity": 29,
              "position": 11.25,
              "duration": 0.25625
            },
            {
              "pitch": 71,
              "velocity": 29,
              "position": 11.25,
              "duration": 0.25625
            },
            {
              "pitch": 67,
              "velocity": 35,
              "position": 12.53125,
              "duration": 0.20416666666666666
            },
            {
              "pitch": 71,
              "velocity": 35,
              "position": 12.53125,
              "duration": 0.20416666666666666
            },
            {
              "pitch": 64,
              "velocity": 35,
              "position": 12.520833333333334,
              "duration": 0.21458333333333332
            },
            {
              "pitch": 60,
              "velocity": 35,
              "position": 12.510416666666666,
              "duration": 0.23541666666666666
            },
            {
              "pitch": 60,
              "velocity": 29,
              "position": 12.770833333333334,
              "duration": 0.21458333333333332
            },
            {
              "pitch": 64,
              "velocity": 29,
              "position": 12.760416666666666,
              "duration": 0.23541666666666666
            },
            {
              "pitch": 55,
              "velocity": 29,
              "position": 12.5,
              "duration": 0.50625
            },
            {
              "pitch": 59,
              "velocity": 29,
              "position": 12.5,
              "duration": 0.50625
            },
            {
              "pitch": 67,
              "velocity": 29,
              "position": 12.75,
              "duration": 0.25625
            },
            {
              "pitch": 71,
              "velocity": 29,
              "position": 12.75,
              "duration": 0.25625
            },
            {
              "pitch": 67,
              "velocity": 35,
              "position": 13.25,
              "duration": 0.23541666666666666
            },
            {
              "pitch": 71,
              "velocity": 35,
              "position": 13.25,
              "duration": 0.23541666666666666
            },
            {
              "pitch": 64,
              "velocity": 35,
              "position": 13.260416666666666,
              "duration": 0.23541666666666666
            },
            {
              "pitch": 60,
              "velocity": 35,
              "position": 13.270833333333334,
              "duration": 0.23541666666666666
            },
            {
              "pitch": 55,
              "velocity": 29,
              "position": 13.28125,
              "duration": 0.23541666666666666
            },
            {
              "pitch": 59,
              "velocity": 29,
              "position": 13.28125,
              "duration": 0.23541666666666666
            },
            {
              "pitch": 67,
              "velocity": 26,
              "position": 13.75,
              "duration": 0.0375
            },
            {
              "pitch": 71,
              "velocity": 26,
              "position": 13.75,
              "duration": 0.0375
            },
            {
              "pitch": 64,
              "velocity": 26,
              "position": 13.760416666666666,
              "duration": 0.0375
            },
            {
              "pitch": 60,
              "velocity": 26,
              "position": 13.770833333333334,
              "duration": 0.0375
            },
            {
              "pitch": 55,
              "velocity": 29,
              "position": 14,
              "duration": 0.23541666666666666
            },
            {
              "pitch": 59,
              "velocity": 29,
              "position": 14,
              "duration": 0.23541666666666666
            },
            {
              "pitch": 60,
              "velocity": 35,
              "position": 14.010416666666666,
              "duration": 0.23541666666666666
            },
            {
              "pitch": 64,
              "velocity": 35,
              "position": 14.020833333333334,
              "duration": 0.23541666666666666
            },
            {
              "pitch": 67,
              "velocity": 35,
              "position": 14.03125,
              "duration": 0.23541666666666666
            },
            {
              "pitch": 71,
              "velocity": 35,
              "position": 14.03125,
              "duration": 0.23541666666666666
            },
            {
              "pitch": 55,
              "velocity": 29,
              "position": 15,
              "duration": 0.23541666666666666
            },
            {
              "pitch": 59,
              "velocity": 29,
              "position": 15,
              "duration": 0.23541666666666666
            },
            {
              "pitch": 60,
              "velocity": 35,
              "position": 15.010416666666666,
              "duration": 0.23541666666666666
            },
            {
              "pitch": 64,
              "velocity": 35,
              "position": 15.020833333333334,
              "duration": 0.23541666666666666
            },
            {
              "pitch": 67,
              "velocity": 35,
              "position": 15.03125,
              "duration": 0.23541666666666666
            },
            {
              "pitch": 71,
              "velocity": 35,
              "position": 15.03125,
              "duration": 0.23541666666666666
            },
            {
              "pitch": 60,
              "velocity": 100,
              "position": 15.28125,
              "duration": 0.23541666666666666
            },
            {
              "pitch": 64,
              "velocity": 100,
              "position": 15.28125,
              "duration": 0.23541666666666666
            },
            {
              "pitch": 67,
              "velocity": 100,
              "position": 15.28125,
              "duration": 0.23541666666666666
            },
            {
              "pitch": 71,
              "velocity": 100,
              "position": 15.28125,
              "duration": 0.23541666666666666
            }
          ]
        },
        "3": {
          "ctab": {
            "srcChannel": 3,
            "name": "Org P",
            "accType": "CHORD2",
            "editable": false,
            "mutedNotes": [],
            "mutedChords": [
              "7(#9)",
              "7th",
              "Maj"
            ],
            "autoStart": false,
            "sourceChordNote": 0,
            "sourceChordType": "Maj7",
            "ctb2Low": null,
            "ctb2Main": {
              "ntr": "ROOT_FIXED",
              "ntt": "CHORD",
              "bassOn": false,
              "chordRootUpperLimit": 7,
              "noteLowLimit": 0,
              "noteHighLimit": 127,
              "rtr": "PITCH_SHIFT"
            },
            "ctb2High": null
          },
          "notes": [
            {
              "pitch": 71,
              "velocity": 90,
              "position": 0,
              "duration": 3.129166666666667
            },
            {
              "pitch": 76,
              "velocity": 90,
              "position": 0,
              "duration": 3.1458333333333335
            },
            {
              "pitch": 67,
              "velocity": 90,
              "position": 0,
              "duration": 3.154166666666667
            },
            {
              "pitch": 67,
              "velocity": 86,
              "position": 3.25,
              "duration": 0.0875
            },
            {
              "pitch": 76,
              "velocity": 85,
              "position": 3.25,
              "duration": 0.11458333333333333
            },
            {
              "pitch": 71,
              "velocity": 86,
              "position": 3.25,
              "duration": 0.11458333333333333
            },
            {
              "pitch": 71,
              "velocity": 78,
              "position": 6.5,
              "duration": 0.0875
            },
            {
              "pitch": 76,
              "velocity": 78,
              "position": 6.5,
              "duration": 0.08958333333333333
            },
            {
              "pitch": 67,
              "velocity": 78,
              "position": 6.5,
              "duration": 0.1
            },
            {
              "pitch": 67,
              "velocity": 73,
              "position": 7.25,
              "duration": 0.07083333333333333
            },
            {
              "pitch": 71,
              "velocity": 73,
              "position": 7.25,
              "duration": 0.08333333333333333
            },
            {
              "pitch": 76,
              "velocity": 73,
              "position": 7.25,
              "duration": 0.08541666666666667
            },
            {
              "pitch": 71,
              "velocity": 91,
              "position": 8,
              "duration": 3.8333333333333335
            },
            {
              "pitch": 67,
              "velocity": 91,
              "position": 8,
              "duration": 3.8354166666666667
            },
            {
              "pitch": 76,
              "velocity": 91,
              "position": 8,
              "duration": 3.8375
            },
            {
              "pitch": 71,
              "velocity": 91,
              "position": 14.5,
              "duration": 0.13333333333333333
            },
            {
              "pitch": 67,
              "velocity": 91,
              "position": 14.5,
              "duration": 0.175
            },
            {
              "pitch": 76,
              "velocity": 91,
              "position": 14.5,
              "duration": 0.21458333333333332
            },
            {
              "pitch": 71,
              "velocity": 84,
              "position": 14.75,
              "duration": 0.14375
            },
            {
              "pitch": 67,
              "velocity": 84,
              "position": 14.75,
              "duration": 0.15416666666666667
            },
            {
              "pitch": 76,
              "velocity": 84,
              "position": 14.75,
              "duration": 0.17083333333333334
            },
            {
              "pitch": 71,
              "velocity": 105,
              "position": 15.25,
              "duration": 0.07708333333333334
            },
            {
              "pitch": 67,
              "velocity": 105,
              "position": 15.25,
              "duration": 0.08333333333333333
            },
            {
              "pitch": 76,
              "velocity": 105,
              "position": 15.25,
              "duration": 0.10208333333333333
            }
          ]
        },
        "4": {
          "ctab": {
            "srcChannel": 4,
            "name": "Tpt P",
            "accType": "PAD",
            "editable": false,
            "mutedNotes": [],
            "mutedChords": [
              "7(9)",
              "7th",
              "min7(9)",
              "min(9)",
              "min7",
              "Maj"
            ],
            "autoStart": false,
            "sourceChordNote": 0,
            "sourceChordType": "Maj7",
            "ctb2Low": null,
            "ctb2Main": {
              "ntr": "ROOT_FIXED",
              "ntt": "CHORD",
              "bassOn": false,
              "chordRootUpperLimit": 7,
              "noteLowLimit": 0,
              "noteHighLimit": 127,
              "rtr": "PITCH_SHIFT"
            },
            "ctb2High": null
          },
          "notes": [
            {
              "pitch": 76,
              "velocity": 49,
              "position": 0,
              "duration": 0.15208333333333332
            },
            {
              "pitch": 79,
              "velocity": 84,
              "position": 0.010416666666666666,
              "duration": 0.18333333333333332
            },
            {
              "pitch": 76,
              "velocity": 49,
              "position": 1.4895833333333333,
              "duration": 0.1625
            },
            {
              "pitch": 79,
              "velocity": 84,
              "position": 1.4895833333333333,
              "duration": 0.18333333333333332
            },
            {
              "pitch": 76,
              "velocity": 49,
              "position": 3,
              "duration": 0.1625
            },
            {
              "pitch": 79,
              "velocity": 84,
              "position": 2.9895833333333335,
              "duration": 0.18333333333333332
            },
            {
              "pitch": 76,
              "velocity": 49,
              "position": 8.010416666666666,
              "duration": 0.17291666666666666
            },
            {
              "pitch": 79,
              "velocity": 84,
              "position": 8.010416666666666,
              "duration": 0.18333333333333332
            },
            {
              "pitch": 76,
              "velocity": 49,
              "position": 9.489583333333334,
              "duration": 0.17291666666666666
            },
            {
              "pitch": 79,
              "velocity": 84,
              "position": 9.5,
              "duration": 0.18333333333333332
            },
            {
              "pitch": 76,
              "velocity": 49,
              "position": 11,
              "duration": 0.15208333333333332
            },
            {
              "pitch": 79,
              "velocity": 84,
              "position": 11,
              "duration": 0.18333333333333332
            }
          ]
        },
        "5": {
          "ctab": {
            "srcChannel": 5,
            "name": "Sax P",
            "accType": "PHRASE1",
            "editable": false,
            "mutedNotes": [],
            "mutedChords": [
              "7(9)",
              "7th",
              "min7(9)",
              "min(9)",
              "min7",
              "Maj"
            ],
            "autoStart": false,
            "sourceChordNote": 0,
            "sourceChordType": "Maj7",
            "ctb2Low": null,
            "ctb2Main": {
              "ntr": "ROOT_FIXED",
              "ntt": "CHORD",
              "bassOn": false,
              "chordRootUpperLimit": 7,
              "noteLowLimit": 0,
              "noteHighLimit": 127,
              "rtr": "PITCH_SHIFT"
            },
            "ctb2High": null
          },
          "notes": [
            {
              "pitch": 71,
              "velocity": 104,
              "position": 0,
              "duration": 0.17291666666666666
            },
            {
              "pitch": 64,
              "velocity": 121,
              "position": 0.010416666666666666,
              "duration": 0.19375
            },
            {
              "pitch": 71,
              "velocity": 96,
              "position": 1.4895833333333333,
              "duration": 0.1625
            },
            {
              "pitch": 64,
              "velocity": 127,
              "position": 1.4895833333333333,
              "duration": 0.17291666666666666
            },
            {
              "pitch": 64,
              "velocity": 124,
              "position": 2.9895833333333335,
              "duration": 0.17291666666666666
            },
            {
              "pitch": 71,
              "velocity": 105,
              "position": 2.9895833333333335,
              "duration": 0.19375
            },
            {
              "pitch": 64,
              "velocity": 114,
              "position": 8,
              "duration": 0.1625
            },
            {
              "pitch": 71,
              "velocity": 94,
              "position": 8,
              "duration": 0.18333333333333332
            },
            {
              "pitch": 64,
              "velocity": 113,
              "position": 9.489583333333334,
              "duration": 0.17291666666666666
            },
            {
              "pitch": 71,
              "velocity": 100,
              "position": 9.489583333333334,
              "duration": 0.17291666666666666
            },
            {
              "pitch": 64,
              "velocity": 123,
              "position": 10.989583333333334,
              "duration": 0.19375
            },
            {
              "pitch": 71,
              "velocity": 106,
              "position": 10.989583333333334,
              "duration": 0.19375
            }
          ]
        },
        "6": {
          "ctab": {
            "srcChannel": 6,
            "name": "Bari P",
            "accType": "PHRASE2",
            "editable": false,
            "mutedNotes": [],
            "mutedChords": [
              "7(9)",
              "7th",
              "min7(9)",
              "min(9)",
              "min7",
              "Maj"
            ],
            "autoStart": false,
            "sourceChordNote": 0,
            "sourceChordType": "Maj7",
            "ctb2Low": null,
            "ctb2Main": {
              "ntr": "ROOT_TRANSPOSITION",
              "ntt": "MELODY",
              "bassOn": true,
              "chordRootUpperLimit": 3,
              "noteLowLimit": 33,
              "noteHighLimit": 127,
              "rtr": "PITCH_SHIFT_TO_ROOT"
            },
            "ctb2High": null
          },
          "notes": [
            {
              "pitch": 48,
              "velocity": 86,
              "position": 0.010416666666666666,
              "duration": 0.23541666666666666
            },
            {
              "pitch": 48,
              "velocity": 92,
              "position": 1.4895833333333333,
              "duration": 0.23541666666666666
            },
            {
              "pitch": 48,
              "velocity": 86,
              "position": 2.9895833333333335,
              "duration": 0.24583333333333332
            },
            {
              "pitch": 48,
              "velocity": 83,
              "position": 8.010416666666666,
              "duration": 0.25625
            },
            {
              "pitch": 48,
              "velocity": 80,
              "position": 9.489583333333334,
              "duration": 0.23541666666666666
            },
            {
              "pitch": 48,
              "velocity": 87,
              "position": 11,
              "duration": 0.24583333333333332
            }
          ]
        },
        "8": {
          "ctab": {
            "srcChannel": 8,
            "name": "Perc",
            "accType": "SUBRHYTHM",
            "editable": false,
            "mutedNotes": [],
            "mutedChords": [],
            "autoStart": true,
            "sourceChordNote": 0,
            "sourceChordType": "Maj7",
            "ctb2Low": null,
            "ctb2Main": {
              "ntr": "ROOT_FIXED",
              "ntt": "BYPASS",
              "bassOn": false,
              "chordRootUpperLimit": 6,
              "noteLowLimit": 0,
              "noteHighLimit": 127,
              "rtr": "PITCH_SHIFT"
            },
            "ctb2High": null
          },
          "notes": [
            {
              "pitch": 82,
              "velocity": 80,
              "position": 0,
              "duration": 0.00625
            },
            {
              "pitch": 82,
              "velocity": 30,
              "position": 0.25,
              "duration": 0.00625
            },
            {
              "pitch": 82,
              "velocity": 30,
              "position": 0.5,
              "duration": 0.00625
            },
            {
              "pitch": 82,
              "velocity": 60,
              "position": 0.75,
              "duration": 0.00625
            },
            {
              "pitch": 82,
              "velocity": 80,
              "position": 1,
              "duration": 0.00625
            },
            {
              "pitch": 82,
              "velocity": 30,
              "position": 1.25,
              "duration": 0.00625
            },
            {
              "pitch": 82,
              "velocity": 30,
              "position": 1.5,
              "duration": 0.00625
            },
            {
              "pitch": 82,
              "velocity": 60,
              "position": 1.75,
              "duration": 0.00625
            },
            {
              "pitch": 82,
              "velocity": 80,
              "position": 2,
              "duration": 0.00625
            },
            {
              "pitch": 82,
              "velocity": 30,
              "position": 2.25,
              "duration": 0.00625
            },
            {
              "pitch": 82,
              "velocity": 30,
              "position": 2.5,
              "duration": 0.00625
            },
            {
              "pitch": 82,
              "velocity": 60,
              "position": 2.75,
              "duration": 0.00625
            },
            {
              "pitch": 82,
              "velocity": 80,
              "position": 3,
              "duration": 0.00625
            },
            {
              "pitch": 82,
              "velocity": 30,
              "position": 3.25,
              "duration": 0.00625
            },
            {
              "pitch": 82,
              "velocity": 30,
              "position": 3.5,
              "duration": 0.00625
            },
            {
              "pitch": 82,
              "velocity": 60,
              "position": 3.75,
              "duration": 0.00625
            },
            {
              "pitch": 82,
              "velocity": 80,
              "position": 4,
              "duration": 0.00625
            },
            {
              "pitch": 82,
              "velocity": 30,
              "position": 4.25,
              "duration": 0.00625
            },
            {
              "pitch": 82,
              "velocity": 30,
              "position": 4.5,
              "duration": 0.00625
            },
            {
              "pitch": 82,
              "velocity": 60,
              "position": 4.75,
              "duration": 0.00625
            },
            {
              "pitch": 82,
              "velocity": 80,
              "position": 5,
              "duration": 0.00625
            },
            {
              "pitch": 82,
              "velocity": 30,
              "position": 5.25,
              "duration": 0.00625
            },
            {
              "pitch": 82,
              "velocity": 30,
              "position": 5.5,
              "duration": 0.00625
            },
            {
              "pitch": 82,
              "velocity": 60,
              "position": 5.75,
              "duration": 0.00625
            },
            {
              "pitch": 82,
              "velocity": 80,
              "position": 6,
              "duration": 0.00625
            },
            {
              "pitch": 82,
              "velocity": 30,
              "position": 6.25,
              "duration": 0.00625
            },
            {
              "pitch": 82,
              "velocity": 30,
              "position": 6.5,
              "duration": 0.00625
            },
            {
              "pitch": 82,
              "velocity": 60,
              "position": 6.75,
              "duration": 0.00625
            },
            {
              "pitch": 82,
              "velocity": 80,
              "position": 7,
              "duration": 0.00625
            },
            {
              "pitch": 82,
              "velocity": 30,
              "position": 7.25,
              "duration": 0.00625
            },
            {
              "pitch": 82,
              "velocity": 30,
              "position": 7.5,
              "duration": 0.00625
            },
            {
              "pitch": 82,
              "velocity": 60,
              "position": 7.75,
              "duration": 0.00625
            },
            {
              "pitch": 82,
              "velocity": 80,
              "position": 8,
              "duration": 0.00625
            },
            {
              "pitch": 82,
              "velocity": 30,
              "position": 8.25,
              "duration": 0.00625
            },
            {
              "pitch": 82,
              "velocity": 30,
              "position": 8.5,
              "duration": 0.00625
            },
            {
              "pitch": 82,
              "velocity": 60,
              "position": 8.75,
              "duration": 0.00625
            },
            {
              "pitch": 82,
              "velocity": 80,
              "position": 9,
              "duration": 0.00625
            },
            {
              "pitch": 82,
              "velocity": 30,
              "position": 9.25,
              "duration": 0.00625
            },
            {
              "pitch": 82,
              "velocity": 30,
              "position": 9.5,
              "duration": 0.00625
            },
            {
              "pitch": 82,
              "velocity": 60,
              "position": 9.75,
              "duration": 0.00625
            },
            {
              "pitch": 82,
              "velocity": 80,
              "position": 10,
              "duration": 0.00625
            },
            {
              "pitch": 82,
              "velocity": 30,
              "position": 10.25,
              "duration": 0.00625
            },
            {
              "pitch": 82,
              "velocity": 30,
              "position": 10.5,
              "duration": 0.00625
            },
            {
              "pitch": 82,
              "velocity": 60,
              "position": 10.75,
              "duration": 0.00625
            },
            {
              "pitch": 82,
              "velocity": 80,
              "position": 11,
              "duration": 0.00625
            },
            {
              "pitch": 82,
              "velocity": 30,
              "position": 11.25,
              "duration": 0.00625
            },
            {
              "pitch": 82,
              "velocity": 30,
              "position": 11.5,
              "duration": 0.00625
            },
            {
              "pitch": 82,
              "velocity": 60,
              "position": 11.75,
              "duration": 0.00625
            },
            {
              "pitch": 82,
              "velocity": 80,
              "position": 12,
              "duration": 0.00625
            },
            {
              "pitch": 82,
              "velocity": 30,
              "position": 12.25,
              "duration": 0.00625
            },
            {
              "pitch": 82,
              "velocity": 30,
              "position": 12.5,
              "duration": 0.00625
            },
            {
              "pitch": 82,
              "velocity": 60,
              "position": 12.75,
              "duration": 0.00625
            },
            {
              "pitch": 82,
              "velocity": 80,
              "position": 13,
              "duration": 0.00625
            },
            {
              "pitch": 82,
              "velocity": 30,
              "position": 13.25,
              "duration": 0.00625
            },
            {
              "pitch": 82,
              "velocity": 30,
              "position": 13.5,
              "duration": 0.00625
            },
            {
              "pitch": 82,
              "velocity": 60,
              "position": 13.75,
              "duration": 0.00625
            },
            {
              "pitch": 82,
              "velocity": 80,
              "position": 14,
              "duration": 0.00625
            },
            {
              "pitch": 82,
              "velocity": 30,
              "position": 14.25,
              "duration": 0.00625
            },
            {
              "pitch": 82,
              "velocity": 30,
              "position": 14.5,
              "duration": 0.00625
            },
            {
              "pitch": 82,
              "velocity": 60,
              "position": 14.75,
              "duration": 0.00625
            },
            {
              "pitch": 82,
              "velocity": 80,
              "position": 15,
              "duration": 0.00625
            },
            {
              "pitch": 82,
              "velocity": 30,
              "position": 15.25,
              "duration": 0.00625
            },
            {
              "pitch": 82,
              "velocity": 30,
              "position": 15.5,
              "duration": 0.00625
            },
            {
              "pitch": 82,
              "velocity": 60,
              "position": 15.75,
              "duration": 0.00625
            }
          ]
        },
        "9": {
          "ctab": {
            "srcChannel": 9,
            "name": "Drs",
            "accType": "RHYTHM",
            "editable": false,
            "mutedNotes": [],
            "mutedChords": [],
            "autoStart": true,
            "sourceChordNote": 0,
            "sourceChordType": "Maj7",
            "ctb2Low": null,
            "ctb2Main": {
              "ntr": "ROOT_FIXED",
              "ntt": "BYPASS",
              "bassOn": false,
              "chordRootUpperLimit": 6,
              "noteLowLimit": 0,
              "noteHighLimit": 127,
              "rtr": "PITCH_SHIFT"
            },
            "ctb2High": null
          },
          "notes": [
            {
              "pitch": 33,
              "velocity": 105,
              "position": 0,
              "duration": 0.00625
            },
            {
              "pitch": 44,
              "velocity": 45,
              "position": 0,
              "duration": 0.00625
            },
            {
              "pitch": 42,
              "velocity": 45,
              "position": 0.2708333333333333,
              "duration": 0.00625
            },
            {
              "pitch": 31,
              "velocity": 35,
              "position": 0.5,
              "duration": 0.00625
            },
            {
              "pitch": 33,
              "velocity": 105,
              "position": 0.7708333333333334,
              "duration": 0.00625
            },
            {
              "pitch": 46,
              "velocity": 55,
              "position": 0.7708333333333334,
              "duration": 0.00625
            },
            {
              "pitch": 44,
              "velocity": 45,
              "position": 1,
              "duration": 0.00625
            },
            {
              "pitch": 31,
              "velocity": 35,
              "position": 1.2708333333333333,
              "duration": 0.00625
            },
            {
              "pitch": 31,
              "velocity": 125,
              "position": 1.5,
              "duration": 0.00625
            },
            {
              "pitch": 31,
              "velocity": 35,
              "position": 1.7708333333333333,
              "duration": 0.00625
            },
            {
              "pitch": 42,
              "velocity": 45,
              "position": 2,
              "duration": 0.00625
            },
            {
              "pitch": 42,
              "velocity": 105,
              "position": 2.2708333333333335,
              "duration": 0.00625
            },
            {
              "pitch": 33,
              "velocity": 105,
              "position": 2.5,
              "duration": 0.00625
            },
            {
              "pitch": 42,
              "velocity": 39,
              "position": 2.7708333333333335,
              "duration": 0.00625
            },
            {
              "pitch": 31,
              "velocity": 125,
              "position": 3,
              "duration": 0.00625
            },
            {
              "pitch": 31,
              "velocity": 35,
              "position": 3.2708333333333335,
              "duration": 0.00625
            },
            {
              "pitch": 42,
              "velocity": 35,
              "position": 3.5,
              "duration": 0.00625
            },
            {
              "pitch": 46,
              "velocity": 55,
              "position": 3.7708333333333335,
              "duration": 0.00625
            },
            {
              "pitch": 33,
              "velocity": 105,
              "position": 4,
              "duration": 0.00625
            },
            {
              "pitch": 46,
              "velocity": 75,
              "position": 4,
              "duration": 0.00625
            },
            {
              "pitch": 31,
              "velocity": 35,
              "position": 4.270833333333333,
              "duration": 0.00625
            },
            {
              "pitch": 33,
              "velocity": 105,
              "position": 4.5,
              "duration": 0.00625
            },
            {
              "pitch": 44,
              "velocity": 45,
              "position": 4.5,
              "duration": 0.00625
            },
            {
              "pitch": 42,
              "velocity": 105,
              "position": 4.770833333333333,
              "duration": 0.00625
            },
            {
              "pitch": 42,
              "velocity": 45,
              "position": 5,
              "duration": 0.00625
            },
            {
              "pitch": 31,
              "velocity": 35,
              "position": 5.270833333333333,
              "duration": 0.00625
            },
            {
              "pitch": 31,
              "velocity": 125,
              "position": 5.5,
              "duration": 0.00625
            },
            {
              "pitch": 31,
              "velocity": 35,
              "position": 5.770833333333333,
              "duration": 0.00625
            },
            {
              "pitch": 42,
              "velocity": 45,
              "position": 6,
              "duration": 0.00625
            },
            {
              "pitch": 42,
              "velocity": 105,
              "position": 6.270833333333333,
              "duration": 0.00625
            },
            {
              "pitch": 33,
              "velocity": 105,
              "position": 6.5,
              "duration": 0.00625
            },
            {
              "pitch": 42,
              "velocity": 45,
              "position": 6.770833333333333,
              "duration": 0.00625
            },
            {
              "pitch": 31,
              "velocity": 125,
              "position": 7,
              "duration": 0.00625
            },
            {
              "pitch": 31,
              "velocity": 35,
              "position": 7.270833333333333,
              "duration": 0.00625
            },
            {
              "pitch": 42,
              "velocity": 45,
              "position": 7.5,
              "duration": 0.00625
            },
            {
              "pitch": 42,
              "velocity": 105,
              "position": 7.770833333333333,
              "duration": 0.00625
            },
            {
              "pitch": 33,
              "velocity": 105,
              "position": 8,
              "duration": 0.00625
            },
            {
              "pitch": 46,
              "velocity": 75,
              "position": 8,
              "duration": 0.00625
            },
            {
              "pitch": 31,
              "velocity": 35,
              "position": 8.270833333333334,
              "duration": 0.00625
            },
            {
              "pitch": 44,
              "velocity": 45,
              "position": 8.5,
              "duration": 0.00625
            },
            {
              "pitch": 33,
              "velocity": 105,
              "position": 8.770833333333334,
              "duration": 0.00625
            },
            {
              "pitch": 46,
              "velocity": 60,
              "position": 8.770833333333334,
              "duration": 0.00625
            },
            {
              "pitch": 44,
              "velocity": 45,
              "position": 9,
              "duration": 0.00625
            },
            {
              "pitch": 31,
              "velocity": 35,
              "position": 9.270833333333334,
              "duration": 0.00625
            },
            {
              "pitch": 31,
              "velocity": 125,
              "position": 9.5,
              "duration": 0.00625
            },
            {
              "pitch": 31,
              "velocity": 35,
              "position": 9.770833333333334,
              "duration": 0.00625
            },
            {
              "pitch": 42,
              "velocity": 45,
              "position": 10,
              "duration": 0.00625
            },
            {
              "pitch": 31,
              "velocity": 35,
              "position": 10.270833333333334,
              "duration": 0.00625
            },
            {
              "pitch": 33,
              "velocity": 105,
              "position": 10.5,
              "duration": 0.00625
            },
            {
              "pitch": 42,
              "velocity": 39,
              "position": 10.770833333333334,
              "duration": 0.00625
            },
            {
              "pitch": 31,
              "velocity": 125,
              "position": 11,
              "duration": 0.00625
            },
            {
              "pitch": 31,
              "velocity": 45,
              "position": 11.270833333333334,
              "duration": 0.00625
            },
            {
              "pitch": 33,
              "velocity": 65,
              "position": 11.5,
              "duration": 0.00625
            },
            {
              "pitch": 46,
              "velocity": 55,
              "position": 11.5,
              "duration": 0.00625
            },
            {
              "pitch": 33,
              "velocity": 105,
              "position": 12,
              "duration": 0.00625
            },
            {
              "pitch": 46,
              "velocity": 75,
              "position": 12,
              "duration": 0.00625
            },
            {
              "pitch": 31,
              "velocity": 35,
              "position": 12.270833333333334,
              "duration": 0.00625
            },
            {
              "pitch": 33,
              "velocity": 105,
              "position": 12.5,
              "duration": 0.00625
            },
            {
              "pitch": 44,
              "velocity": 45,
              "position": 12.5,
              "duration": 0.00625
            },
            {
              "pitch": 42,
              "velocity": 105,
              "position": 12.770833333333334,
              "duration": 0.00625
            },
            {
              "pitch": 42,
              "velocity": 45,
              "position": 13,
              "duration": 0.00625
            },
            {
              "pitch": 31,
              "velocity": 35,
              "position": 13.270833333333334,
              "duration": 0.00625
            },
            {
              "pitch": 31,
              "velocity": 125,
              "position": 13.5,
              "duration": 0.00625
            },
            {
              "pitch": 31,
              "velocity": 35,
              "position": 13.770833333333334,
              "duration": 0.00625
            },
            {
              "pitch": 42,
              "velocity": 45,
              "position": 14,
              "duration": 0.00625
            },
            {
              "pitch": 42,
              "velocity": 105,
              "position": 14.270833333333334,
              "duration": 0.00625
            },
            {
              "pitch": 33,
              "velocity": 105,
              "position": 14.5,
              "duration": 0.00625
            },
            {
              "pitch": 42,
              "velocity": 45,
              "position": 14.770833333333334,
              "duration": 0.00625
            },
            {
              "pitch": 31,
              "velocity": 125,
              "position": 15,
              "duration": 0.00625
            },
            {
              "pitch": 31,
              "velocity": 35,
              "position": 15.270833333333334,
              "duration": 0.00625
            },
            {
              "pitch": 46,
              "velocity": 55,
              "position": 15.5,
              "duration": 0.00625
            },
            {
              "pitch": 31,
              "velocity": 35,
              "position": 15.770833333333334,
              "duration": 0.00625
            }
          ]
        },
        "10": {
          "ctab": {
            "srcChannel": 10,
            "name": "Bass S",
            "accType": "BASS",
            "editable": false,
            "mutedNotes": [],
            "mutedChords": [
              "1+2+5",
              "sus4",
              "1+5",
              "1+8",
              "Maj7aug",
              "7(b13)",
              "7(b9)",
              "7(13)",
              "7#11",
              "7sus4",
              "dim7",
              "dim",
              "minMaj7(9)",
              "minMaj7",
              "min6",
              "aug",
              "Maj6(9)",
              "Maj7(9)",
              "Maj(9)",
              "Maj7#11",
              "Maj7",
              "Maj6"
            ],
            "autoStart": false,
            "sourceChordNote": 0,
            "sourceChordType": "7(9)",
            "ctb2Low": null,
            "ctb2Main": {
              "ntr": "ROOT_TRANSPOSITION",
              "ntt": "MELODIC_MINOR_5",
              "bassOn": true,
              "chordRootUpperLimit": 3,
              "noteLowLimit": 28,
              "noteHighLimit": 127,
              "rtr": "PITCH_SHIFT_TO_ROOT"
            },
            "ctb2High": null
          },
          "notes": [
            {
              "pitch": 36,
              "velocity": 80,
              "position": 0,
              "duration": 0.48541666666666666
            },
            {
              "pitch": 36,
              "velocity": 110,
              "position": 0.5,
              "duration": 0.13125
            },
            {
              "pitch": 36,
              "velocity": 80,
              "position": 0.75,
              "duration": 0.48541666666666666
            },
            {
              "pitch": 36,
              "velocity": 110,
              "position": 1.25,
              "duration": 0.13125
            },
            {
              "pitch": 48,
              "velocity": 110,
              "position": 1.5,
              "duration": 0.13125
            },
            {
              "pitch": 43,
              "velocity": 62,
              "position": 1.75,
              "duration": 0.13125
            },
            {
              "pitch": 50,
              "velocity": 80,
              "position": 2,
              "duration": 0.23541666666666666
            },
            {
              "pitch": 52,
              "velocity": 80,
              "position": 2.5,
              "duration": 0.23541666666666666
            },
            {
              "pitch": 52,
              "velocity": 80,
              "position": 3,
              "duration": 0.9854166666666667
            },
            {
              "pitch": 36,
              "velocity": 110,
              "position": 4.25,
              "duration": 0.23541666666666666
            },
            {
              "pitch": 40,
              "velocity": 80,
              "position": 4.5,
              "duration": 0.48541666666666666
            },
            {
              "pitch": 40,
              "velocity": 110,
              "position": 5.25,
              "duration": 0.13125
            },
            {
              "pitch": 41,
              "velocity": 80,
              "position": 5.5,
              "duration": 0.48541666666666666
            },
            {
              "pitch": 41,
              "velocity": 110,
              "position": 6.25,
              "duration": 0.13125
            },
            {
              "pitch": 42,
              "velocity": 80,
              "position": 6.5,
              "duration": 0.48541666666666666
            },
            {
              "pitch": 42,
              "velocity": 110,
              "position": 7.25,
              "duration": 0.13125
            },
            {
              "pitch": 43,
              "velocity": 80,
              "position": 7.5,
              "duration": 0.48541666666666666
            },
            {
              "pitch": 36,
              "velocity": 80,
              "position": 8,
              "duration": 0.48541666666666666
            },
            {
              "pitch": 36,
              "velocity": 110,
              "position": 8.5,
              "duration": 0.13125
            },
            {
              "pitch": 36,
              "velocity": 80,
              "position": 8.75,
              "duration": 0.48541666666666666
            },
            {
              "pitch": 36,
              "velocity": 110,
              "position": 9.25,
              "duration": 0.13125
            },
            {
              "pitch": 48,
              "velocity": 110,
              "position": 9.5,
              "duration": 0.13125
            },
            {
              "pitch": 43,
              "velocity": 62,
              "position": 9.75,
              "duration": 0.13125
            },
            {
              "pitch": 50,
              "velocity": 80,
              "position": 10,
              "duration": 0.23541666666666666
            },
            {
              "pitch": 52,
              "velocity": 80,
              "position": 10.5,
              "duration": 0.23541666666666666
            },
            {
              "pitch": 52,
              "velocity": 80,
              "position": 11,
              "duration": 0.9854166666666667
            },
            {
              "pitch": 36,
              "velocity": 110,
              "position": 12.25,
              "duration": 0.23541666666666666
            },
            {
              "pitch": 34,
              "velocity": 80,
              "position": 12.5,
              "duration": 0.48541666666666666
            },
            {
              "pitch": 34,
              "velocity": 110,
              "position": 13.25,
              "duration": 0.13125
            },
            {
              "pitch": 33,
              "velocity": 80,
              "position": 13.5,
              "duration": 0.48541666666666666
            },
            {
              "pitch": 33,
              "velocity": 110,
              "position": 14.25,
              "duration": 0.13125
            },
            {
              "pitch": 31,
              "velocity": 80,
              "position": 14.5,
              "duration": 0.48541666666666666
            },
            {
              "pitch": 31,
              "velocity": 110,
              "position": 15.25,
              "duration": 0.13125
            },
            {
              "pitch": 29,
              "velocity": 80,
              "position": 15.5,
              "duration": 0.48541666666666666
            }
          ]
        },
        "11": {
          "ctab": {
            "srcChannel": 11,
            "name": "Gt S",
            "accType": "CHORD1",
            "editable": false,
            "mutedNotes": [],
            "mutedChords": [
              "1+2+5",
              "sus4",
              "1+5",
              "1+8",
              "7aug",
              "Maj7aug",
              "7(#9)",
              "7(b13)",
              "7(b9)",
              "7(13)",
              "7#11",
              "7b5",
              "7sus4",
              "dim7",
              "dim",
              "minMaj7(9)",
              "minMaj7",
              "min7(11)",
              "m7b5",
              "min6",
              "min",
              "aug",
              "Maj6(9)",
              "Maj7(9)",
              "Maj(9)",
              "Maj7#11",
              "Maj7",
              "Maj6"
            ],
            "autoStart": false,
            "sourceChordNote": 0,
            "sourceChordType": "7(9)",
            "ctb2Low": null,
            "ctb2Main": {
              "ntr": "ROOT_TRANSPOSITION",
              "ntt": "MELODIC_MINOR_5",
              "bassOn": false,
              "chordRootUpperLimit": 7,
              "noteLowLimit": 52,
              "noteHighLimit": 79,
              "rtr": "PITCH_SHIFT"
            },
            "ctb2High": null
          },
          "notes": [
            {
              "pitch": 106,
              "velocity": 80,
              "position": 0,
              "duration": 0.23541666666666666
            },
            {
              "pitch": 67,
              "velocity": 35,
              "position": 0.03125,
              "duration": 0.20416666666666666
            },
            {
              "pitch": 62,
              "velocity": 35,
              "position": 0.020833333333333332,
              "duration": 0.21458333333333332
            },
            {
              "pitch": 58,
              "velocity": 35,
              "position": 0.010416666666666666,
              "duration": 0.23541666666666666
            },
            {
              "pitch": 105,
              "velocity": 80,
              "position": 0.25,
              "duration": 0.23541666666666666
            },
            {
              "pitch": 58,
              "velocity": 29,
              "position": 0.2708333333333333,
              "duration": 0.21458333333333332
            },
            {
              "pitch": 62,
              "velocity": 29,
              "position": 0.2604166666666667,
              "duration": 0.23541666666666666
            },
            {
              "pitch": 52,
              "velocity": 29,
              "position": 0,
              "duration": 0.50625
            },
            {
              "pitch": 67,
              "velocity": 29,
              "position": 0.25,
              "duration": 0.25625
            },
            {
              "pitch": 98,
              "velocity": 80,
              "position": 0.5,
              "duration": 0.23541666666666666
            },
            {
              "pitch": 99,
              "velocity": 80,
              "position": 0.75,
              "duration": 0.23541666666666666
            },
            {
              "pitch": 100,
              "velocity": 80,
              "position": 1,
              "duration": 0.23541666666666666
            },
            {
              "pitch": 99,
              "velocity": 80,
              "position": 1.25,
              "duration": 0.23541666666666666
            },
            {
              "pitch": 106,
              "velocity": 80,
              "position": 1.5,
              "duration": 0.23541666666666666
            },
            {
              "pitch": 67,
              "velocity": 35,
              "position": 1.53125,
              "duration": 0.20416666666666666
            },
            {
              "pitch": 62,
              "velocity": 35,
              "position": 1.5208333333333333,
              "duration": 0.21458333333333332
            },
            {
              "pitch": 58,
              "velocity": 35,
              "position": 1.5104166666666667,
              "duration": 0.23541666666666666
            },
            {
              "pitch": 105,
              "velocity": 80,
              "position": 1.75,
              "duration": 0.23541666666666666
            },
            {
              "pitch": 58,
              "velocity": 29,
              "position": 1.7708333333333333,
              "duration": 0.21458333333333332
            },
            {
              "pitch": 62,
              "velocity": 29,
              "position": 1.7604166666666667,
              "duration": 0.23541666666666666
            },
            {
              "pitch": 52,
              "velocity": 29,
              "position": 1.5,
              "duration": 0.50625
            },
            {
              "pitch": 67,
              "velocity": 29,
              "position": 1.75,
              "duration": 0.25625
            },
            {
              "pitch": 98,
              "velocity": 80,
              "position": 2,
              "duration": 0.23541666666666666
            },
            {
              "pitch": 99,
              "velocity": 80,
              "position": 2.25,
              "duration": 0.23541666666666666
            },
            {
              "pitch": 100,
              "velocity": 80,
              "position": 2.5,
              "duration": 0.23541666666666666
            },
            {
              "pitch": 99,
              "velocity": 80,
              "position": 2.75,
              "duration": 0.23541666666666666
            },
            {
              "pitch": 106,
              "velocity": 80,
              "position": 3,
              "duration": 0.23541666666666666
            },
            {
              "pitch": 67,
              "velocity": 35,
              "position": 3.03125,
              "duration": 0.20416666666666666
            },
            {
              "pitch": 62,
              "velocity": 35,
              "position": 3.0208333333333335,
              "duration": 0.21458333333333332
            },
            {
              "pitch": 58,
              "velocity": 35,
              "position": 3.0104166666666665,
              "duration": 0.23541666666666666
            },
            {
              "pitch": 105,
              "velocity": 80,
              "position": 3.25,
              "duration": 0.23541666666666666
            },
            {
              "pitch": 58,
              "velocity": 29,
              "position": 3.2708333333333335,
              "duration": 0.21458333333333332
            },
            {
              "pitch": 62,
              "velocity": 29,
              "position": 3.2604166666666665,
              "duration": 0.23541666666666666
            },
            {
              "pitch": 52,
              "velocity": 29,
              "position": 3,
              "duration": 0.50625
            },
            {
              "pitch": 67,
              "velocity": 29,
              "position": 3.25,
              "duration": 0.25625
            },
            {
              "pitch": 98,
              "velocity": 80,
              "position": 3.5,
              "duration": 0.23541666666666666
            },
            {
              "pitch": 99,
              "velocity": 80,
              "position": 3.75,
              "duration": 0.23541666666666666
            },
            {
              "pitch": 100,
              "velocity": 80,
              "position": 4,
              "duration": 0.23541666666666666
            },
            {
              "pitch": 99,
              "velocity": 80,
              "position": 4.25,
              "duration": 0.23541666666666666
            },
            {
              "pitch": 106,
              "velocity": 80,
              "position": 4.5,
              "duration": 0.23541666666666666
            },
            {
              "pitch": 67,
              "velocity": 35,
              "position": 4.53125,
              "duration": 0.20416666666666666
            },
            {
              "pitch": 62,
              "velocity": 35,
              "position": 4.520833333333333,
              "duration": 0.21458333333333332
            },
            {
              "pitch": 58,
              "velocity": 35,
              "position": 4.510416666666667,
              "duration": 0.23541666666666666
            },
            {
              "pitch": 105,
              "velocity": 80,
              "position": 4.75,
              "duration": 0.23541666666666666
            },
            {
              "pitch": 58,
              "velocity": 29,
              "position": 4.770833333333333,
              "duration": 0.21458333333333332
            },
            {
              "pitch": 62,
              "velocity": 29,
              "position": 4.760416666666667,
              "duration": 0.23541666666666666
            },
            {
              "pitch": 52,
              "velocity": 29,
              "position": 4.5,
              "duration": 0.50625
            },
            {
              "pitch": 67,
              "velocity": 29,
              "position": 4.75,
              "duration": 0.25625
            },
            {
              "pitch": 98,
              "velocity": 80,
              "position": 5,
              "duration": 0.23541666666666666
            },
            {
              "pitch": 67,
              "velocity": 35,
              "position": 5.25,
              "duration": 0.23541666666666666
            },
            {
              "pitch": 106,
              "velocity": 80,
              "position": 5.25,
              "duration": 0.23541666666666666
            },
            {
              "pitch": 62,
              "velocity": 35,
              "position": 5.260416666666667,
              "duration": 0.23541666666666666
            },
            {
              "pitch": 58,
              "velocity": 35,
              "position": 5.270833333333333,
              "duration": 0.23541666666666666
            },
            {
              "pitch": 52,
              "velocity": 29,
              "position": 5.28125,
              "duration": 0.23541666666666666
            },
            {
              "pitch": 98,
              "velocity": 80,
              "position": 5.5,
              "duration": 0.23541666666666666
            },
            {
              "pitch": 67,
              "velocity": 26,
              "position": 5.75,
              "duration": 0.0375
            },
            {
              "pitch": 62,
              "velocity": 26,
              "position": 5.760416666666667,
              "duration": 0.0375
            },
            {
              "pitch": 58,
              "velocity": 26,
              "position": 5.770833333333333,
              "duration": 0.0375
            },
            {
              "pitch": 99,
              "velocity": 80,
              "position": 5.75,
              "duration": 0.23541666666666666
            },
            {
              "pitch": 52,
              "velocity": 29,
              "position": 6,
              "duration": 0.23541666666666666
            },
            {
              "pitch": 106,
              "velocity": 80,
              "position": 6,
              "duration": 0.23541666666666666
            },
            {
              "pitch": 58,
              "velocity": 35,
              "position": 6.010416666666667,
              "duration": 0.23541666666666666
            },
            {
              "pitch": 62,
              "velocity": 35,
              "position": 6.020833333333333,
              "duration": 0.23541666666666666
            },
            {
              "pitch": 67,
              "velocity": 35,
              "position": 6.03125,
              "duration": 0.23541666666666666
            },
            {
              "pitch": 99,
              "velocity": 80,
              "position": 6.25,
              "duration": 0.23541666666666666
            },
            {
              "pitch": 100,
              "velocity": 80,
              "position": 6.5,
              "duration": 0.23541666666666666
            },
            {
              "pitch": 99,
              "velocity": 80,
              "position": 6.75,
              "duration": 0.23541666666666666
            },
            {
              "pitch": 52,
              "velocity": 29,
              "position": 7,
              "duration": 0.23541666666666666
            },
            {
              "pitch": 106,
              "velocity": 80,
              "position": 7,
              "duration": 0.23541666666666666
            },
            {
              "pitch": 58,
              "velocity": 35,
              "position": 7.010416666666667,
              "duration": 0.23541666666666666
            },
            {
              "pitch": 62,
              "velocity": 35,
              "position": 7.020833333333333,
              "duration": 0.23541666666666666
            },
            {
              "pitch": 67,
              "velocity": 35,
              "position": 7.03125,
              "duration": 0.23541666666666666
            },
            {
              "pitch": 60,
              "velocity": 100,
              "position": 7.28125,
              "duration": 0.23541666666666666
            },
            {
              "pitch": 64,
              "velocity": 100,
              "position": 7.28125,
              "duration": 0.23541666666666666
            },
            {
              "pitch": 69,
              "velocity": 100,
              "position": 7.28125,
              "duration": 0.23541666666666666
            },
            {
              "pitch": 98,
              "velocity": 80,
              "position": 7.5,
              "duration": 0.23541666666666666
            },
            {
              "pitch": 99,
              "velocity": 80,
              "position": 7.75,
              "duration": 0.23541666666666666
            },
            {
              "pitch": 106,
              "velocity": 80,
              "position": 8,
              "duration": 0.23541666666666666
            },
            {
              "pitch": 67,
              "velocity": 35,
              "position": 8.03125,
              "duration": 0.20416666666666666
            },
            {
              "pitch": 62,
              "velocity": 35,
              "position": 8.020833333333334,
              "duration": 0.21458333333333332
            },
            {
              "pitch": 58,
              "velocity": 35,
              "position": 8.010416666666666,
              "duration": 0.23541666666666666
            },
            {
              "pitch": 105,
              "velocity": 80,
              "position": 8.25,
              "duration": 0.23541666666666666
            },
            {
              "pitch": 58,
              "velocity": 29,
              "position": 8.270833333333334,
              "duration": 0.21458333333333332
            },
            {
              "pitch": 62,
              "velocity": 29,
              "position": 8.260416666666666,
              "duration": 0.23541666666666666
            },
            {
              "pitch": 52,
              "velocity": 29,
              "position": 8,
              "duration": 0.50625
            },
            {
              "pitch": 67,
              "velocity": 29,
              "position": 8.25,
              "duration": 0.25625
            },
            {
              "pitch": 98,
              "velocity": 80,
              "position": 8.5,
              "duration": 0.23541666666666666
            },
            {
              "pitch": 99,
              "velocity": 80,
              "position": 8.75,
              "duration": 0.23541666666666666
            },
            {
              "pitch": 100,
              "velocity": 80,
              "position": 9,
              "duration": 0.23541666666666666
            },
            {
              "pitch": 99,
              "velocity": 80,
              "position": 9.25,
              "duration": 0.23541666666666666
            },
            {
              "pitch": 106,
              "velocity": 80,
              "position": 9.5,
              "duration": 0.23541666666666666
            },
            {
              "pitch": 67,
              "velocity": 35,
              "position": 9.53125,
              "duration": 0.20416666666666666
            },
            {
              "pitch": 62,
              "velocity": 35,
              "position": 9.520833333333334,
              "duration": 0.21458333333333332
            },
            {
              "pitch": 58,
              "velocity": 35,
              "position": 9.510416666666666,
              "duration": 0.23541666666666666
            },
            {
              "pitch": 105,
              "velocity": 80,
              "position": 9.75,
              "duration": 0.23541666666666666
            },
            {
              "pitch": 58,
              "velocity": 29,
              "position": 9.770833333333334,
              "duration": 0.21458333333333332
            },
            {
              "pitch": 62,
              "velocity": 29,
              "position": 9.760416666666666,
              "duration": 0.23541666666666666
            },
            {
              "pitch": 52,
              "velocity": 29,
              "position": 9.5,
              "duration": 0.50625
            },
            {
              "pitch": 67,
              "velocity": 29,
              "position": 9.75,
              "duration": 0.25625
            },
            {
              "pitch": 98,
              "velocity": 80,
              "position": 10,
              "duration": 0.23541666666666666
            },
            {
              "pitch": 99,
              "velocity": 80,
              "position": 10.25,
              "duration": 0.23541666666666666
            },
            {
              "pitch": 100,
              "velocity": 80,
              "position": 10.5,
              "duration": 0.23541666666666666
            },
            {
              "pitch": 99,
              "velocity": 80,
              "position": 10.75,
              "duration": 0.23541666666666666
            },
            {
              "pitch": 106,
              "velocity": 80,
              "position": 11,
              "duration": 0.23541666666666666
            },
            {
              "pitch": 67,
              "velocity": 35,
              "position": 11.03125,
              "duration": 0.20416666666666666
            },
            {
              "pitch": 62,
              "velocity": 35,
              "position": 11.020833333333334,
              "duration": 0.21458333333333332
            },
            {
              "pitch": 58,
              "velocity": 35,
              "position": 11.010416666666666,
              "duration": 0.23541666666666666
            },
            {
              "pitch": 105,
              "velocity": 80,
              "position": 11.25,
              "duration": 0.23541666666666666
            },
            {
              "pitch": 58,
              "velocity": 29,
              "position": 11.270833333333334,
              "duration": 0.21458333333333332
            },
            {
              "pitch": 62,
              "velocity": 29,
              "position": 11.260416666666666,
              "duration": 0.23541666666666666
            },
            {
              "pitch": 52,
              "velocity": 29,
              "position": 11,
              "duration": 0.50625
            },
            {
              "pitch": 67,
              "velocity": 29,
              "position": 11.25,
              "duration": 0.25625
            },
            {
              "pitch": 98,
              "velocity": 80,
              "position": 11.5,
              "duration": 0.23541666666666666
            },
            {
              "pitch": 99,
              "velocity": 80,
              "position": 11.75,
              "duration": 0.23541666666666666
            },
            {
              "pitch": 100,
              "velocity": 80,
              "position": 12,
              "duration": 0.23541666666666666
            },
            {
              "pitch": 99,
              "velocity": 80,
              "position": 12.25,
              "duration": 0.23541666666666666
            },
            {
              "pitch": 106,
              "velocity": 80,
              "position": 12.5,
              "duration": 0.23541666666666666
            },
            {
              "pitch": 67,
              "velocity": 35,
              "position": 12.53125,
              "duration": 0.20416666666666666
            },
            {
              "pitch": 62,
              "velocity": 35,
              "position": 12.520833333333334,
              "duration": 0.21458333333333332
            },
            {
              "pitch": 58,
              "velocity": 35,
              "position": 12.510416666666666,
              "duration": 0.23541666666666666
            },
            {
              "pitch": 105,
              "velocity": 80,
              "position": 12.75,
              "duration": 0.23541666666666666
            },
            {
              "pitch": 58,
              "velocity": 29,
              "position": 12.770833333333334,
              "duration": 0.21458333333333332
            },
            {
              "pitch": 62,
              "velocity": 29,
              "position": 12.760416666666666,
              "duration": 0.23541666666666666
            },
            {
              "pitch": 52,
              "velocity": 29,
              "position": 12.5,
              "duration": 0.50625
            },
            {
              "pitch": 67,
              "velocity": 29,
              "position": 12.75,
              "duration": 0.25625
            },
            {
              "pitch": 98,
              "velocity": 80,
              "position": 13,
              "duration": 0.23541666666666666
            },
            {
              "pitch": 67,
              "velocity": 35,
              "position": 13.25,
              "duration": 0.23541666666666666
            },
            {
              "pitch": 106,
              "velocity": 80,
              "position": 13.25,
              "duration": 0.23541666666666666
            },
            {
              "pitch": 62,
              "velocity": 35,
              "position": 13.260416666666666,
              "duration": 0.23541666666666666
            },
            {
              "pitch": 58,
              "velocity": 35,
              "position": 13.270833333333334,
              "duration": 0.23541666666666666
            },
            {
              "pitch": 52,
              "velocity": 29,
              "position": 13.28125,
              "duration": 0.23541666666666666
            },
            {
              "pitch": 98,
              "velocity": 80,
              "position": 13.5,
              "duration": 0.23541666666666666
            },
            {
              "pitch": 67,
              "velocity": 26,
              "position": 13.75,
              "duration": 0.0375
            },
            {
              "pitch": 62,
              "velocity": 26,
              "position": 13.760416666666666,
              "duration": 0.0375
            },
            {
              "pitch": 58,
              "velocity": 26,
              "position": 13.770833333333334,
              "duration": 0.0375
            },
            {
              "pitch": 99,
              "velocity": 80,
              "position": 13.75,
              "duration": 0.23541666666666666
            },
            {
              "pitch": 52,
              "velocity": 29,
              "position": 14,
              "duration": 0.23541666666666666
            },
            {
              "pitch": 106,
              "velocity": 80,
              "position": 14,
              "duration": 0.23541666666666666
            },
            {
              "pitch": 58,
              "velocity": 35,
              "position": 14.010416666666666,
              "duration": 0.23541666666666666
            },
            {
              "pitch": 62,
              "velocity": 35,
              "position": 14.020833333333334,
              "duration": 0.23541666666666666
            },
            {
              "pitch": 67,
              "velocity": 35,
              "position": 14.03125,
              "duration": 0.23541666666666666
            },
            {
              "pitch": 99,
              "velocity": 80,
              "position": 14.25,
              "duration": 0.23541666666666666
            },
            {
              "pitch": 100,
              "velocity": 80,
              "position": 14.5,
              "duration": 0.23541666666666666
            },
            {
              "pitch": 99,
              "velocity": 80,
              "position": 14.75,
              "duration": 0.23541666666666666
            },
            {
              "pitch": 52,
              "velocity": 29,
              "position": 15,
              "duration": 0.23541666666666666
            },
            {
              "pitch": 106,
              "velocity": 80,
              "position": 15,
              "duration": 0.23541666666666666
            },
            {
              "pitch": 58,
              "velocity": 35,
              "position": 15.010416666666666,
              "duration": 0.23541666666666666
            },
            {
              "pitch": 62,
              "velocity": 35,
              "position": 15.020833333333334,
              "duration": 0.23541666666666666
            },
            {
              "pitch": 67,
              "velocity": 35,
              "position": 15.03125,
              "duration": 0.23541666666666666
            },
            {
              "pitch": 60,
              "velocity": 100,
              "position": 15.28125,
              "duration": 0.23541666666666666
            },
            {
              "pitch": 64,
              "velocity": 100,
              "position": 15.28125,
              "duration": 0.23541666666666666
            },
            {
              "pitch": 69,
              "velocity": 100,
              "position": 15.28125,
              "duration": 0.23541666666666666
            },
            {
              "pitch": 98,
              "velocity": 80,
              "position": 15.5,
              "duration": 0.23541666666666666
            },
            {
              "pitch": 99,
              "velocity": 80,
              "position": 15.75,
              "duration": 0.23541666666666666
            }
          ]
        },
        "12": {
          "ctab": {
            "srcChannel": 12,
            "name": "Org S",
            "accType": "CHORD2",
            "editable": false,
            "mutedNotes": [],
            "mutedChords": [
              "1+2+5",
              "sus4",
              "1+5",
              "1+8",
              "7aug",
              "Maj7aug",
              "7(b13)",
              "7(b9)",
              "7(13)",
              "7#11",
              "7(9)",
              "7b5",
              "7sus4",
              "dim7",
              "dim",
              "minMaj7(9)",
              "minMaj7",
              "min7(11)",
              "min7(9)",
              "min(9)",
              "m7b5",
              "min7",
              "min6",
              "min",
              "aug",
              "Maj6(9)",
              "Maj7(9)",
              "Maj(9)",
              "Maj7#11",
              "Maj7",
              "Maj6"
            ],
            "autoStart": false,
            "sourceChordNote": 0,
            "sourceChordType": "Maj",
            "ctb2Low": null,
            "ctb2Main": {
              "ntr": "ROOT_TRANSPOSITION",
              "ntt": "BYPASS",
              "bassOn": false,
              "chordRootUpperLimit": 7,
              "noteLowLimit": 48,
              "noteHighLimit": 72,
              "rtr": "PITCH_SHIFT"
            },
            "ctb2High": null
          },
          "notes": [
            {
              "pitch": 70,
              "velocity": 90,
              "position": 0,
              "duration": 3.129166666666667
            },
            {
              "pitch": 72,
              "velocity": 90,
              "position": 0,
              "duration": 3.1458333333333335
            },
            {
              "pitch": 64,
              "velocity": 90,
              "position": 0,
              "duration": 3.154166666666667
            },
            {
              "pitch": 64,
              "velocity": 86,
              "position": 3.25,
              "duration": 0.0875
            },
            {
              "pitch": 72,
              "velocity": 85,
              "position": 3.25,
              "duration": 0.11458333333333333
            },
            {
              "pitch": 70,
              "velocity": 86,
              "position": 3.25,
              "duration": 0.11458333333333333
            },
            {
              "pitch": 70,
              "velocity": 78,
              "position": 6.5,
              "duration": 0.0875
            },
            {
              "pitch": 72,
              "velocity": 78,
              "position": 6.5,
              "duration": 0.08958333333333333
            },
            {
              "pitch": 64,
              "velocity": 78,
              "position": 6.5,
              "duration": 0.1
            },
            {
              "pitch": 64,
              "velocity": 73,
              "position": 7.25,
              "duration": 0.07083333333333333
            },
            {
              "pitch": 70,
              "velocity": 73,
              "position": 7.25,
              "duration": 0.08333333333333333
            },
            {
              "pitch": 72,
              "velocity": 73,
              "position": 7.25,
              "duration": 0.08541666666666667
            },
            {
              "pitch": 70,
              "velocity": 91,
              "position": 8,
              "duration": 3.8333333333333335
            },
            {
              "pitch": 64,
              "velocity": 91,
              "position": 8,
              "duration": 3.8354166666666667
            },
            {
              "pitch": 72,
              "velocity": 91,
              "position": 8,
              "duration": 3.8375
            },
            {
              "pitch": 70,
              "velocity": 91,
              "position": 14.5,
              "duration": 0.13333333333333333
            },
            {
              "pitch": 64,
              "velocity": 91,
              "position": 14.5,
              "duration": 0.175
            },
            {
              "pitch": 75,
              "velocity": 91,
              "position": 14.5,
              "duration": 0.21458333333333332
            },
            {
              "pitch": 70,
              "velocity": 84,
              "position": 14.75,
              "duration": 0.14375
            },
            {
              "pitch": 64,
              "velocity": 84,
              "position": 14.75,
              "duration": 0.15416666666666667
            },
            {
              "pitch": 75,
              "velocity": 84,
              "position": 14.75,
              "duration": 0.17083333333333334
            },
            {
              "pitch": 70,
              "velocity": 105,
              "position": 15.25,
              "duration": 0.07708333333333334
            },
            {
              "pitch": 64,
              "velocity": 105,
              "position": 15.25,
              "duration": 0.08333333333333333
            },
            {
              "pitch": 75,
              "velocity": 105,
              "position": 15.25,
              "duration": 0.10208333333333333
            }
          ]
        },
        "13": {
          "ctab": {
            "srcChannel": 13,
            "name": "Tpt S",
            "accType": "PAD",
            "editable": false,
            "mutedNotes": [],
            "mutedChords": [
              "1+2+5",
              "sus4",
              "1+5",
              "1+8",
              "7aug",
              "Maj7aug",
              "7(#9)",
              "7(b13)",
              "7(b9)",
              "7(13)",
              "7#11",
              "7b5",
              "7sus4",
              "dim7",
              "dim",
              "minMaj7(9)",
              "minMaj7",
              "min7(11)",
              "m7b5",
              "min6",
              "min",
              "aug",
              "Maj6(9)",
              "Maj7(9)",
              "Maj(9)",
              "Maj7#11",
              "Maj7",
              "Maj6"
            ],
            "autoStart": false,
            "sourceChordNote": 0,
            "sourceChordType": "7(9)",
            "ctb2Low": null,
            "ctb2Main": {
              "ntr": "ROOT_TRANSPOSITION",
              "ntt": "MELODIC_MINOR_5",
              "bassOn": false,
              "chordRootUpperLimit": 2,
              "noteLowLimit": 0,
              "noteHighLimit": 127,
              "rtr": "PITCH_SHIFT"
            },
            "ctb2High": null
          },
          "notes": [
            {
              "pitch": 74,
              "velocity": 49,
              "position": 0,
              "duration": 0.15208333333333332
            },
            {
              "pitch": 79,
              "velocity": 84,
              "position": 0.010416666666666666,
              "duration": 0.18333333333333332
            },
            {
              "pitch": 74,
              "velocity": 49,
              "position": 1.4895833333333333,
              "duration": 0.1625
            },
            {
              "pitch": 79,
              "velocity": 84,
              "position": 1.4895833333333333,
              "duration": 0.18333333333333332
            },
            {
              "pitch": 74,
              "velocity": 49,
              "position": 3,
              "duration": 0.1625
            },
            {
              "pitch": 79,
              "velocity": 84,
              "position": 2.9895833333333335,
              "duration": 0.18333333333333332
            },
            {
              "pitch": 74,
              "velocity": 49,
              "position": 8.010416666666666,
              "duration": 0.17291666666666666
            },
            {
              "pitch": 79,
              "velocity": 84,
              "position": 8.010416666666666,
              "duration": 0.18333333333333332
            },
            {
              "pitch": 74,
              "velocity": 49,
              "position": 9.489583333333334,
              "duration": 0.17291666666666666
            },
            {
              "pitch": 79,
              "velocity": 84,
              "position": 9.5,
              "duration": 0.18333333333333332
            },
            {
              "pitch": 74,
              "velocity": 49,
              "position": 11,
              "duration": 0.15208333333333332
            },
            {
              "pitch": 79,
              "velocity": 84,
              "position": 11,
              "duration": 0.18333333333333332
            }
          ]
        },
        "14": {
          "ctab": {
            "srcChannel": 14,
            "name": "Sax S",
            "accType": "PHRASE1",
            "editable": false,
            "mutedNotes": [],
            "mutedChords": [
              "1+2+5",
              "sus4",
              "1+5",
              "1+8",
              "7aug",
              "Maj7aug",
              "7(#9)",
              "7(b13)",
              "7(b9)",
              "7(13)",
              "7#11",
              "7b5",
              "7sus4",
              "dim7",
              "dim",
              "minMaj7(9)",
              "minMaj7",
              "min7(11)",
              "m7b5",
              "min6",
              "min",
              "aug",
              "Maj6(9)",
              "Maj7(9)",
              "Maj(9)",
              "Maj7#11",
              "Maj7",
              "Maj6"
            ],
            "autoStart": false,
            "sourceChordNote": 0,
            "sourceChordType": "7(9)",
            "ctb2Low": null,
            "ctb2Main": {
              "ntr": "ROOT_TRANSPOSITION",
              "ntt": "MELODIC_MINOR_5",
              "bassOn": false,
              "chordRootUpperLimit": 7,
              "noteLowLimit": 0,
              "noteHighLimit": 127,
              "rtr": "PITCH_SHIFT"
            },
            "ctb2High": null
          },
          "notes": [
            {
              "pitch": 70,
              "velocity": 104,
              "position": 0,
              "duration": 0.17291666666666666
            },
            {
              "pitch": 64,
              "velocity": 121,
              "position": 0.010416666666666666,
              "duration": 0.19375
            },
            {
              "pitch": 70,
              "velocity": 96,
              "position": 1.4895833333333333,
              "duration": 0.1625
            },
            {
              "pitch": 64,
              "velocity": 127,
              "position": 1.4895833333333333,
              "duration": 0.17291666666666666
            },
            {
              "pitch": 64,
              "velocity": 124,
              "position": 2.9895833333333335,
              "duration": 0.17291666666666666
            },
            {
              "pitch": 70,
              "velocity": 105,
              "position": 2.9895833333333335,
              "duration": 0.19375
            },
            {
              "pitch": 64,
              "velocity": 114,
              "position": 8,
              "duration": 0.1625
            },
            {
              "pitch": 70,
              "velocity": 94,
              "position": 8,
              "duration": 0.18333333333333332
            },
            {
              "pitch": 64,
              "velocity": 113,
              "position": 9.489583333333334,
              "duration": 0.17291666666666666
            },
            {
              "pitch": 70,
              "velocity": 100,
              "position": 9.489583333333334,
              "duration": 0.17291666666666666
            },
            {
              "pitch": 64,
              "velocity": 123,
              "position": 10.989583333333334,
              "duration": 0.19375
            },
            {
              "pitch": 70,
              "velocity": 106,
              "position": 10.989583333333334,
              "duration": 0.19375
            }
          ]
        },
        "15": {
          "ctab": {
            "srcChannel": 15,
            "name": "Bari S",
            "accType": "PHRASE2",
            "editable": false,
            "mutedNotes": [],
            "mutedChords": [
              "1+2+5",
              "sus4",
              "1+5",
              "1+8",
              "7aug",
              "Maj7aug",
              "7(#9)",
              "7(b13)",
              "7(b9)",
              "7(13)",
              "7#11",
              "7b5",
              "7sus4",
              "dim7",
              "dim",
              "minMaj7(9)",
              "minMaj7",
              "min7(11)",
              "m7b5",
              "min6",
              "min",
              "aug",
              "Maj6(9)",
              "Maj7(9)",
              "Maj(9)",
              "Maj7#11",
              "Maj7",
              "Maj6"
            ],
            "autoStart": false,
            "sourceChordNote": 0,
            "sourceChordType": "7(9)",
            "ctb2Low": null,
            "ctb2Main": {
              "ntr": "ROOT_TRANSPOSITION",
              "ntt": "MELODIC_MINOR_5",
              "bassOn": true,
              "chordRootUpperLimit": 3,
              "noteLowLimit": 33,
              "noteHighLimit": 127,
              "rtr": "PITCH_SHIFT"
            },
            "ctb2High": null
          },
          "notes": [
            {
              "pitch": 48,
              "velocity": 86,
              "position": 0.010416666666666666,
              "duration": 0.23541666666666666
            },
            {
              "pitch": 48,
              "velocity": 92,
              "position": 1.4895833333333333,
              "duration": 0.23541666666666666
            },
            {
              "pitch": 48,
              "velocity": 86,
              "position": 2.9895833333333335,
              "duration": 0.24583333333333332
            },
            {
              "pitch": 48,
              "velocity": 83,
              "position": 8.010416666666666,
              "duration": 0.25625
            },
            {
              "pitch": 48,
              "velocity": 80,
              "position": 9.489583333333334,
              "duration": 0.23541666666666666
            },
            {
              "pitch": 48,
              "velocity": 87,
              "position": 11,
              "duration": 0.24583333333333332
            }
          ]
        }
      }
    },
    "Fill_In_BB": {
      "type": "Fill_In_BB",
      "sizeInBeats": 4,
      "channels": {
        "1": {
          "ctab": {
            "srcChannel": 1,
            "name": "Bass P",
            "accType": "BASS",
            "editable": false,
            "mutedNotes": [],
            "mutedChords": [
              "7aug",
              "7(#9)",
              "7(9)",
              "7b5",
              "7th",
              "min7(11)",
              "min7(9)",
              "min(9)",
              "m7b5",
              "min7",
              "min",
              "Maj"
            ],
            "autoStart": false,
            "sourceChordNote": 0,
            "sourceChordType": "Maj7",
            "ctb2Low": null,
            "ctb2Main": {
              "ntr": "ROOT_TRANSPOSITION",
              "ntt": "MELODY",
              "bassOn": true,
              "chordRootUpperLimit": 3,
              "noteLowLimit": 28,
              "noteHighLimit": 127,
              "rtr": "PITCH_SHIFT_TO_ROOT"
            },
            "ctb2High": null
          },
          "notes": [
            {
              "pitch": 36,
              "velocity": 110,
              "position": 0.25,
              "duration": 0.23541666666666666
            },
            {
              "pitch": 36,
              "velocity": 80,
              "position": 0.5,
              "duration": 0.48541666666666666
            },
            {
              "pitch": 31,
              "velocity": 86,
              "position": 1.25,
              "duration": 0.13125
            },
            {
              "pitch": 36,
              "velocity": 110,
              "position": 1.5,
              "duration": 0.13125
            },
            {
              "pitch": 33,
              "velocity": 80,
              "position": 1.75,
              "duration": 0.23541666666666666
            },
            {
              "pitch": 33,
              "velocity": 110,
              "position": 2.25,
              "duration": 0.13125
            },
            {
              "pitch": 31,
              "velocity": 80,
              "position": 2.5,
              "duration": 0.11041666666666666
            },
            {
              "pitch": 31,
              "velocity": 70,
              "position": 2.75,
              "duration": 0.11041666666666666
            },
            {
              "pitch": 33,
              "velocity": 80,
              "position": 3,
              "duration": 0.11041666666666666
            },
            {
              "pitch": 33,
              "velocity": 70,
              "position": 3.25,
              "duration": 0.11041666666666666
            },
            {
              "pitch": 36,
              "velocity": 80,
              "position": 3.5,
              "duration": 0.11041666666666666
            },
            {
              "pitch": 31,
              "velocity": 70,
              "position": 3.75,
              "duration": 0.11041666666666666
            }
          ]
        },
        "2": {
          "ctab": {
            "srcChannel": 2,
            "name": "Gt P",
            "accType": "CHORD1",
            "editable": false,
            "mutedNotes": [],
            "mutedChords": [
              "7(9)",
              "7th",
              "min7(9)",
              "min(9)",
              "min7",
              "Maj"
            ],
            "autoStart": false,
            "sourceChordNote": 0,
            "sourceChordType": "Maj7",
            "ctb2Low": null,
            "ctb2Main": {
              "ntr": "ROOT_TRANSPOSITION",
              "ntt": "MELODY",
              "bassOn": false,
              "chordRootUpperLimit": 7,
              "noteLowLimit": 0,
              "noteHighLimit": 127,
              "rtr": "PITCH_SHIFT"
            },
            "ctb2High": null
          },
          "notes": [
            {
              "pitch": 67,
              "velocity": 35,
              "position": 0.53125,
              "duration": 0.20416666666666666
            },
            {
              "pitch": 71,
              "velocity": 35,
              "position": 0.53125,
              "duration": 0.20416666666666666
            },
            {
              "pitch": 64,
              "velocity": 35,
              "position": 0.5208333333333334,
              "duration": 0.21458333333333332
            },
            {
              "pitch": 60,
              "velocity": 35,
              "position": 0.5104166666666666,
              "duration": 0.23541666666666666
            },
            {
              "pitch": 60,
              "velocity": 29,
              "position": 0.7708333333333334,
              "duration": 0.21458333333333332
            },
            {
              "pitch": 64,
              "velocity": 29,
              "position": 0.7604166666666666,
              "duration": 0.23541666666666666
            },
            {
              "pitch": 55,
              "velocity": 29,
              "position": 0.5,
              "duration": 0.50625
            },
            {
              "pitch": 59,
              "velocity": 29,
              "position": 0.5,
              "duration": 0.50625
            },
            {
              "pitch": 67,
              "velocity": 29,
              "position": 0.75,
              "duration": 0.25625
            },
            {
              "pitch": 71,
              "velocity": 29,
              "position": 0.75,
              "duration": 0.25625
            },
            {
              "pitch": 67,
              "velocity": 35,
              "position": 1.25,
              "duration": 0.23541666666666666
            },
            {
              "pitch": 71,
              "velocity": 35,
              "position": 1.25,
              "duration": 0.23541666666666666
            },
            {
              "pitch": 64,
              "velocity": 35,
              "position": 1.2604166666666667,
              "duration": 0.23541666666666666
            },
            {
              "pitch": 60,
              "velocity": 35,
              "position": 1.2708333333333333,
              "duration": 0.23541666666666666
            },
            {
              "pitch": 55,
              "velocity": 29,
              "position": 1.28125,
              "duration": 0.23541666666666666
            },
            {
              "pitch": 59,
              "velocity": 29,
              "position": 1.28125,
              "duration": 0.23541666666666666
            },
            {
              "pitch": 67,
              "velocity": 26,
              "position": 1.75,
              "duration": 0.0375
            },
            {
              "pitch": 71,
              "velocity": 26,
              "position": 1.75,
              "duration": 0.0375
            },
            {
              "pitch": 64,
              "velocity": 26,
              "position": 1.7604166666666667,
              "duration": 0.0375
            },
            {
              "pitch": 60,
              "velocity": 26,
              "position": 1.7708333333333333,
              "duration": 0.0375
            },
            {
              "pitch": 55,
              "velocity": 29,
              "position": 2,
              "duration": 0.23541666666666666
            },
            {
              "pitch": 59,
              "velocity": 29,
              "position": 2,
              "duration": 0.23541666666666666
            },
            {
              "pitch": 60,
              "velocity": 35,
              "position": 2.0104166666666665,
              "duration": 0.23541666666666666
            },
            {
              "pitch": 64,
              "velocity": 35,
              "position": 2.0208333333333335,
              "duration": 0.23541666666666666
            },
            {
              "pitch": 67,
              "velocity": 35,
              "position": 2.03125,
              "duration": 0.23541666666666666
            },
            {
              "pitch": 71,
              "velocity": 35,
              "position": 2.03125,
              "duration": 0.23541666666666666
            },
            {
              "pitch": 60,
              "velocity": 100,
              "position": 2.28125,
              "duration": 0.22083333333333333
            },
            {
              "pitch": 64,
              "velocity": 100,
              "position": 2.28125,
              "duration": 0.23125
            },
            {
              "pitch": 67,
              "velocity": 100,
              "position": 2.28125,
              "duration": 0.23541666666666666
            },
            {
              "pitch": 71,
              "velocity": 100,
              "position": 2.28125,
              "duration": 0.23541666666666666
            },
            {
              "pitch": 67,
              "velocity": 19,
              "position": 2.53125,
              "duration": 0.20416666666666666
            },
            {
              "pitch": 71,
              "velocity": 19,
              "position": 2.53125,
              "duration": 0.20416666666666666
            },
            {
              "pitch": 64,
              "velocity": 19,
              "position": 2.5208333333333335,
              "duration": 0.225
            },
            {
              "pitch": 60,
              "velocity": 19,
              "position": 2.5104166666666665,
              "duration": 0.24583333333333332
            },
            {
              "pitch": 60,
              "velocity": 22,
              "position": 2.7708333333333335,
              "duration": 0.225
            },
            {
              "pitch": 64,
              "velocity": 22,
              "position": 2.7604166666666665,
              "duration": 0.24583333333333332
            },
            {
              "pitch": 67,
              "velocity": 22,
              "position": 2.75,
              "duration": 0.26666666666666666
            },
            {
              "pitch": 71,
              "velocity": 22,
              "position": 2.75,
              "duration": 0.26666666666666666
            },
            {
              "pitch": 67,
              "velocity": 35,
              "position": 3.03125,
              "duration": 0.23541666666666666
            },
            {
              "pitch": 71,
              "velocity": 35,
              "position": 3.03125,
              "duration": 0.23541666666666666
            },
            {
              "pitch": 64,
              "velocity": 35,
              "position": 3.0208333333333335,
              "duration": 0.24583333333333332
            },
            {
              "pitch": 60,
              "velocity": 35,
              "position": 3.0104166666666665,
              "duration": 0.25625
            },
            {
              "pitch": 60,
              "velocity": 100,
              "position": 3.28125,
              "duration": 0.23541666666666666
            },
            {
              "pitch": 64,
              "velocity": 100,
              "position": 3.28125,
              "duration": 0.23541666666666666
            },
            {
              "pitch": 67,
              "velocity": 100,
              "position": 3.28125,
              "duration": 0.23541666666666666
            },
            {
              "pitch": 71,
              "velocity": 100,
              "position": 3.28125,
              "duration": 0.23541666666666666
            }
          ]
        },
        "3": {
          "ctab": {
            "srcChannel": 3,
            "name": "Org P",
            "accType": "CHORD2",
            "editable": false,
            "mutedNotes": [],
            "mutedChords": [
              "7(#9)",
              "7th",
              "Maj"
            ],
            "autoStart": false,
            "sourceChordNote": 0,
            "sourceChordType": "Maj7",
            "ctb2Low": null,
            "ctb2Main": {
              "ntr": "ROOT_FIXED",
              "ntt": "CHORD",
              "bassOn": false,
              "chordRootUpperLimit": 7,
              "noteLowLimit": 0,
              "noteHighLimit": 127,
              "rtr": "PITCH_SHIFT"
            },
            "ctb2High": null
          },
          "notes": [
            {
              "pitch": 71,
              "velocity": 60,
              "position": 0.5,
              "duration": 0.20416666666666666
            },
            {
              "pitch": 79,
              "velocity": 60,
              "position": 0.5,
              "duration": 0.20416666666666666
            },
            {
              "pitch": 76,
              "velocity": 60,
              "position": 0.5,
              "duration": 0.20416666666666666
            },
            {
              "pitch": 28,
              "velocity": 38,
              "position": 0.75,
              "duration": 0.04791666666666667
            },
            {
              "pitch": 31,
              "velocity": 38,
              "position": 0.75,
              "duration": 0.04791666666666667
            },
            {
              "pitch": 28,
              "velocity": 64,
              "position": 1,
              "duration": 0.04791666666666667
            },
            {
              "pitch": 31,
              "velocity": 64,
              "position": 1,
              "duration": 0.04791666666666667
            },
            {
              "pitch": 71,
              "velocity": 60,
              "position": 1.25,
              "duration": 0.45416666666666666
            },
            {
              "pitch": 79,
              "velocity": 60,
              "position": 1.25,
              "duration": 0.45416666666666666
            },
            {
              "pitch": 76,
              "velocity": 60,
              "position": 1.25,
              "duration": 0.45416666666666666
            },
            {
              "pitch": 28,
              "velocity": 64,
              "position": 2.75,
              "duration": 0.04791666666666667
            },
            {
              "pitch": 31,
              "velocity": 64,
              "position": 2.75,
              "duration": 0.04791666666666667
            },
            {
              "pitch": 76,
              "velocity": 60,
              "position": 2,
              "duration": 0.9625
            },
            {
              "pitch": 79,
              "velocity": 60,
              "position": 2,
              "duration": 0.9854166666666667
            },
            {
              "pitch": 71,
              "velocity": 60,
              "position": 2,
              "duration": 0.9854166666666667
            },
            {
              "pitch": 28,
              "velocity": 64,
              "position": 3.75,
              "duration": 0.04791666666666667
            },
            {
              "pitch": 31,
              "velocity": 64,
              "position": 3.75,
              "duration": 0.04791666666666667
            },
            {
              "pitch": 76,
              "velocity": 60,
              "position": 3,
              "duration": 0.9791666666666666
            },
            {
              "pitch": 79,
              "velocity": 60,
              "position": 3,
              "duration": 0.9854166666666667
            },
            {
              "pitch": 71,
              "velocity": 60,
              "position": 3,
              "duration": 0.9854166666666667
            }
          ]
        },
        "4": {
          "ctab": {
            "srcChannel": 4,
            "name": "Tpt P",
            "accType": "PAD",
            "editable": false,
            "mutedNotes": [],
            "mutedChords": [
              "7(9)",
              "7th",
              "min7(9)",
              "min(9)",
              "min7",
              "Maj"
            ],
            "autoStart": false,
            "sourceChordNote": 0,
            "sourceChordType": "Maj7",
            "ctb2Low": null,
            "ctb2Main": {
              "ntr": "ROOT_FIXED",
              "ntt": "CHORD",
              "bassOn": false,
              "chordRootUpperLimit": 7,
              "noteLowLimit": 0,
              "noteHighLimit": 127,
              "rtr": "PITCH_SHIFT"
            },
            "ctb2High": null
          },
          "notes": []
        },
        "5": {
          "ctab": {
            "srcChannel": 5,
            "name": "Sax P",
            "accType": "PHRASE1",
            "editable": false,
            "mutedNotes": [],
            "mutedChords": [
              "7(9)",
              "7th",
              "min7(9)",
              "min(9)",
              "min7",
              "Maj"
            ],
            "autoStart": false,
            "sourceChordNote": 0,
            "sourceChordType": "Maj7",
            "ctb2Low": null,
            "ctb2Main": {
              "ntr": "ROOT_FIXED",
              "ntt": "CHORD",
              "bassOn": false,
              "chordRootUpperLimit": 7,
              "noteLowLimit": 0,
              "noteHighLimit": 127,
              "rtr": "PITCH_SHIFT"
            },
            "ctb2High": null
          },
          "notes": []
        },
        "6": {
          "ctab": {
            "srcChannel": 6,
            "name": "Bari P",
            "accType": "PHRASE2",
            "editable": false,
            "mutedNotes": [],
            "mutedChords": [
              "7(9)",
              "7th",
              "min7(9)",
              "min(9)",
              "min7",
              "Maj"
            ],
            "autoStart": false,
            "sourceChordNote": 0,
            "sourceChordType": "Maj7",
            "ctb2Low": null,
            "ctb2Main": {
              "ntr": "ROOT_TRANSPOSITION",
              "ntt": "MELODY",
              "bassOn": true,
              "chordRootUpperLimit": 3,
              "noteLowLimit": 33,
              "noteHighLimit": 127,
              "rtr": "PITCH_SHIFT_TO_ROOT"
            },
            "ctb2High": null
          },
          "notes": []
        },
        "8": {
          "ctab": {
            "srcChannel": 8,
            "name": "Perc",
            "accType": "SUBRHYTHM",
            "editable": false,
            "mutedNotes": [],
            "mutedChords": [],
            "autoStart": true,
            "sourceChordNote": 0,
            "sourceChordType": "Maj7",
            "ctb2Low": null,
            "ctb2Main": {
              "ntr": "ROOT_FIXED",
              "ntt": "BYPASS",
              "bassOn": false,
              "chordRootUpperLimit": 6,
              "noteLowLimit": 0,
              "noteHighLimit": 127,
              "rtr": "PITCH_SHIFT"
            },
            "ctb2High": null
          },
          "notes": [
            {
              "pitch": 82,
              "velocity": 80,
              "position": 0,
              "duration": 0.00625
            },
            {
              "pitch": 82,
              "velocity": 30,
              "position": 0.25,
              "duration": 0.00625
            },
            {
              "pitch": 82,
              "velocity": 30,
              "position": 0.5,
              "duration": 0.00625
            },
            {
              "pitch": 82,
              "velocity": 60,
              "position": 0.75,
              "duration": 0.00625
            },
            {
              "pitch": 82,
              "velocity": 80,
              "position": 1,
              "duration": 0.00625
            },
            {
              "pitch": 82,
              "velocity": 30,
              "position": 1.25,
              "duration": 0.00625
            },
            {
              "pitch": 82,
              "velocity": 30,
              "position": 1.5,
              "duration": 0.00625
            },
            {
              "pitch": 82,
              "velocity": 60,
              "position": 1.75,
              "duration": 0.00625
            },
            {
              "pitch": 82,
              "velocity": 80,
              "position": 2,
              "duration": 0.00625
            },
            {
              "pitch": 82,
              "velocity": 30,
              "position": 2.25,
              "duration": 0.00625
            },
            {
              "pitch": 82,
              "velocity": 30,
              "position": 2.5,
              "duration": 0.00625
            },
            {
              "pitch": 82,
              "velocity": 60,
              "position": 2.75,
              "duration": 0.00625
            },
            {
              "pitch": 82,
              "velocity": 80,
              "position": 3,
              "duration": 0.00625
            },
            {
              "pitch": 82,
              "velocity": 30,
              "position": 3.25,
              "duration": 0.00625
            },
            {
              "pitch": 82,
              "velocity": 30,
              "position": 3.5,
              "duration": 0.00625
            },
            {
              "pitch": 82,
              "velocity": 60,
              "position": 3.75,
              "duration": 0.00625
            }
          ]
        },
        "9": {
          "ctab": {
            "srcChannel": 9,
            "name": "Drs",
            "accType": "RHYTHM",
            "editable": false,
            "mutedNotes": [],
            "mutedChords": [],
            "autoStart": true,
            "sourceChordNote": 0,
            "sourceChordType": "Maj7",
            "ctb2Low": null,
            "ctb2Main": {
              "ntr": "ROOT_FIXED",
              "ntt": "BYPASS",
              "bassOn": false,
              "chordRootUpperLimit": 6,
              "noteLowLimit": 0,
              "noteHighLimit": 127,
              "rtr": "PITCH_SHIFT"
            },
            "ctb2High": null
          },
          "notes": [
            {
              "pitch": 33,
              "velocity": 105,
              "position": 0,
              "duration": 0.00625
            },
            {
              "pitch": 46,
              "velocity": 70,
              "position": 0,
              "duration": 0.00625
            },
            {
              "pitch": 31,
              "velocity": 35,
              "position": 0.2708333333333333,
              "duration": 0.00625
            },
            {
              "pitch": 33,
              "velocity": 105,
              "position": 0.5,
              "duration": 0.00625
            },
            {
              "pitch": 44,
              "velocity": 45,
              "position": 0.5,
              "duration": 0.00625
            },
            {
              "pitch": 42,
              "velocity": 105,
              "position": 0.7708333333333334,
              "duration": 0.00625
            },
            {
              "pitch": 31,
              "velocity": 57,
              "position": 1,
              "duration": 0.00625
            },
            {
              "pitch": 33,
              "velocity": 105,
              "position": 1.2708333333333333,
              "duration": 0.00625
            },
            {
              "pitch": 46,
              "velocity": 62,
              "position": 1.2708333333333333,
              "duration": 0.00625
            },
            {
              "pitch": 44,
              "velocity": 45,
              "position": 1.5,
              "duration": 0.00625
            },
            {
              "pitch": 31,
              "velocity": 100,
              "position": 1.7708333333333333,
              "duration": 0.00625
            },
            {
              "pitch": 42,
              "velocity": 105,
              "position": 2,
              "duration": 0.00625
            },
            {
              "pitch": 33,
              "velocity": 57,
              "position": 2.2708333333333335,
              "duration": 0.00625
            },
            {
              "pitch": 46,
              "velocity": 75,
              "position": 2.2708333333333335,
              "duration": 0.00625
            },
            {
              "pitch": 44,
              "velocity": 14,
              "position": 2.5,
              "duration": 0.00625
            },
            {
              "pitch": 33,
              "velocity": 105,
              "position": 2.7708333333333335,
              "duration": 0.00625
            },
            {
              "pitch": 46,
              "velocity": 77,
              "position": 2.7708333333333335,
              "duration": 0.00625
            },
            {
              "pitch": 44,
              "velocity": 45,
              "position": 3,
              "duration": 0.00625
            },
            {
              "pitch": 31,
              "velocity": 45,
              "position": 3.2708333333333335,
              "duration": 0.00625
            },
            {
              "pitch": 31,
              "velocity": 100,
              "position": 3.5,
              "duration": 0.00625
            },
            {
              "pitch": 31,
              "velocity": 125,
              "position": 3.75,
              "duration": 0.00625
            },
            {
              "pitch": 49,
              "velocity": 90,
              "position": 3.9895833333333335,
              "duration": 0.00625
            }
          ]
        },
        "10": {
          "ctab": {
            "srcChannel": 10,
            "name": "Bass S",
            "accType": "BASS",
            "editable": false,
            "mutedNotes": [],
            "mutedChords": [
              "1+2+5",
              "sus4",
              "1+5",
              "1+8",
              "Maj7aug",
              "7(b13)",
              "7(b9)",
              "7(13)",
              "7#11",
              "7sus4",
              "dim7",
              "dim",
              "minMaj7(9)",
              "minMaj7",
              "min6",
              "aug",
              "Maj6(9)",
              "Maj7(9)",
              "Maj(9)",
              "Maj7#11",
              "Maj7",
              "Maj6"
            ],
            "autoStart": false,
            "sourceChordNote": 0,
            "sourceChordType": "7(9)",
            "ctb2Low": null,
            "ctb2Main": {
              "ntr": "ROOT_TRANSPOSITION",
              "ntt": "MELODIC_MINOR_5",
              "bassOn": true,
              "chordRootUpperLimit": 3,
              "noteLowLimit": 28,
              "noteHighLimit": 127,
              "rtr": "PITCH_SHIFT_TO_ROOT"
            },
            "ctb2High": null
          },
          "notes": [
            {
              "pitch": 36,
              "velocity": 110,
              "position": 0.25,
              "duration": 0.23541666666666666
            },
            {
              "pitch": 34,
              "velocity": 80,
              "position": 0.5,
              "duration": 0.48541666666666666
            },
            {
              "pitch": 34,
              "velocity": 86,
              "position": 1.25,
              "duration": 0.13125
            },
            {
              "pitch": 33,
              "velocity": 110,
              "position": 1.5,
              "duration": 0.13125
            },
            {
              "pitch": 34,
              "velocity": 80,
              "position": 1.75,
              "duration": 0.23541666666666666
            },
            {
              "pitch": 34,
              "velocity": 110,
              "position": 2.25,
              "duration": 0.13125
            },
            {
              "pitch": 33,
              "velocity": 80,
              "position": 2.5,
              "duration": 0.11041666666666666
            },
            {
              "pitch": 33,
              "velocity": 70,
              "position": 2.75,
              "duration": 0.11041666666666666
            },
            {
              "pitch": 34,
              "velocity": 80,
              "position": 3,
              "duration": 0.11041666666666666
            },
            {
              "pitch": 34,
              "velocity": 70,
              "position": 3.25,
              "duration": 0.11041666666666666
            },
            {
              "pitch": 35,
              "velocity": 80,
              "position": 3.5,
              "duration": 0.11041666666666666
            },
            {
              "pitch": 35,
              "velocity": 70,
              "position": 3.75,
              "duration": 0.11041666666666666
            }
          ]
        },
        "11": {
          "ctab": {
            "srcChannel": 11,
            "name": "Gt S",
            "accType": "CHORD1",
            "editable": false,
            "mutedNotes": [],
            "mutedChords": [
              "1+2+5",
              "sus4",
              "1+5",
              "1+8",
              "7aug",
              "Maj7aug",
              "7(#9)",
              "7(b13)",
              "7(b9)",
              "7(13)",
              "7#11",
              "7b5",
              "7sus4",
              "dim7",
              "dim",
              "minMaj7(9)",
              "minMaj7",
              "min7(11)",
              "m7b5",
              "min6",
              "min",
              "aug",
              "Maj6(9)",
              "Maj7(9)",
              "Maj(9)",
              "Maj7#11",
              "Maj7",
              "Maj6"
            ],
            "autoStart": false,
            "sourceChordNote": 0,
            "sourceChordType": "7(9)",
            "ctb2Low": null,
            "ctb2Main": {
              "ntr": "ROOT_TRANSPOSITION",
              "ntt": "MELODIC_MINOR_5",
              "bassOn": false,
              "chordRootUpperLimit": 7,
              "noteLowLimit": 52,
              "noteHighLimit": 79,
              "rtr": "PITCH_SHIFT"
            },
            "ctb2High": null
          },
          "notes": [
            {
              "pitch": 99,
              "velocity": 80,
              "position": 0,
              "duration": 0.23541666666666666
            },
            {
              "pitch": 98,
              "velocity": 80,
              "position": 0.25,
              "duration": 0.23541666666666666
            },
            {
              "pitch": 105,
              "velocity": 80,
              "position": 0.5,
              "duration": 0.23541666666666666
            },
            {
              "pitch": 67,
              "velocity": 35,
              "position": 0.53125,
              "duration": 0.20416666666666666
            },
            {
              "pitch": 62,
              "velocity": 35,
              "position": 0.5208333333333334,
              "duration": 0.21458333333333332
            },
            {
              "pitch": 58,
              "velocity": 35,
              "position": 0.5104166666666666,
              "duration": 0.23541666666666666
            },
            {
              "pitch": 104,
              "velocity": 80,
              "position": 0.75,
              "duration": 0.23541666666666666
            },
            {
              "pitch": 58,
              "velocity": 29,
              "position": 0.7708333333333334,
              "duration": 0.21458333333333332
            },
            {
              "pitch": 62,
              "velocity": 29,
              "position": 0.7604166666666666,
              "duration": 0.23541666666666666
            },
            {
              "pitch": 52,
              "velocity": 29,
              "position": 0.5,
              "duration": 0.50625
            },
            {
              "pitch": 67,
              "velocity": 29,
              "position": 0.75,
              "duration": 0.25625
            },
            {
              "pitch": 97,
              "velocity": 80,
              "position": 1,
              "duration": 0.23541666666666666
            },
            {
              "pitch": 67,
              "velocity": 35,
              "position": 1.25,
              "duration": 0.23541666666666666
            },
            {
              "pitch": 105,
              "velocity": 80,
              "position": 1.25,
              "duration": 0.23541666666666666
            },
            {
              "pitch": 62,
              "velocity": 35,
              "position": 1.2604166666666667,
              "duration": 0.23541666666666666
            },
            {
              "pitch": 58,
              "velocity": 35,
              "position": 1.2708333333333333,
              "duration": 0.23541666666666666
            },
            {
              "pitch": 52,
              "velocity": 29,
              "position": 1.28125,
              "duration": 0.23541666666666666
            },
            {
              "pitch": 97,
              "velocity": 80,
              "position": 1.5,
              "duration": 0.23541666666666666
            },
            {
              "pitch": 67,
              "velocity": 26,
              "position": 1.75,
              "duration": 0.0375
            },
            {
              "pitch": 62,
              "velocity": 26,
              "position": 1.7604166666666667,
              "duration": 0.0375
            },
            {
              "pitch": 58,
              "velocity": 26,
              "position": 1.7708333333333333,
              "duration": 0.0375
            },
            {
              "pitch": 98,
              "velocity": 80,
              "position": 1.75,
              "duration": 0.23541666666666666
            },
            {
              "pitch": 52,
              "velocity": 29,
              "position": 2,
              "duration": 0.23541666666666666
            },
            {
              "pitch": 105,
              "velocity": 80,
              "position": 2,
              "duration": 0.23541666666666666
            },
            {
              "pitch": 58,
              "velocity": 35,
              "position": 2.0104166666666665,
              "duration": 0.23541666666666666
            },
            {
              "pitch": 62,
              "velocity": 35,
              "position": 2.0208333333333335,
              "duration": 0.23541666666666666
            },
            {
              "pitch": 67,
              "velocity": 35,
              "position": 2.03125,
              "duration": 0.23541666666666666
            },
            {
              "pitch": 98,
              "velocity": 80,
              "position": 2.25,
              "duration": 0.23541666666666666
            },
            {
              "pitch": 60,
              "velocity": 100,
              "position": 2.28125,
              "duration": 0.21458333333333332
            },
            {
              "pitch": 64,
              "velocity": 100,
              "position": 2.28125,
              "duration": 0.225
            },
            {
              "pitch": 69,
              "velocity": 100,
              "position": 2.28125,
              "duration": 0.23541666666666666
            },
            {
              "pitch": 99,
              "velocity": 80,
              "position": 2.5,
              "duration": 0.23541666666666666
            },
            {
              "pitch": 69,
              "velocity": 19,
              "position": 2.53125,
              "duration": 0.20416666666666666
            },
            {
              "pitch": 64,
              "velocity": 19,
              "position": 2.5208333333333335,
              "duration": 0.225
            },
            {
              "pitch": 60,
              "velocity": 19,
              "position": 2.5104166666666665,
              "duration": 0.24583333333333332
            },
            {
              "pitch": 98,
              "velocity": 80,
              "position": 2.75,
              "duration": 0.23541666666666666
            },
            {
              "pitch": 60,
              "velocity": 22,
              "position": 2.7708333333333335,
              "duration": 0.225
            },
            {
              "pitch": 64,
              "velocity": 22,
              "position": 2.7604166666666665,
              "duration": 0.24583333333333332
            },
            {
              "pitch": 69,
              "velocity": 22,
              "position": 2.75,
              "duration": 0.26666666666666666
            },
            {
              "pitch": 105,
              "velocity": 80,
              "position": 3,
              "duration": 0.23541666666666666
            },
            {
              "pitch": 69,
              "velocity": 35,
              "position": 3.03125,
              "duration": 0.23541666666666666
            },
            {
              "pitch": 64,
              "velocity": 35,
              "position": 3.0208333333333335,
              "duration": 0.24583333333333332
            },
            {
              "pitch": 60,
              "velocity": 35,
              "position": 3.0104166666666665,
              "duration": 0.25625
            },
            {
              "pitch": 58,
              "velocity": 100,
              "position": 3.28125,
              "duration": 0.23541666666666666
            },
            {
              "pitch": 62,
              "velocity": 100,
              "position": 3.28125,
              "duration": 0.23541666666666666
            },
            {
              "pitch": 67,
              "velocity": 100,
              "position": 3.28125,
              "duration": 0.23541666666666666
            },
            {
              "pitch": 97,
              "velocity": 80,
              "position": 3.5,
              "duration": 0.23541666666666666
            },
            {
              "pitch": 98,
              "velocity": 80,
              "position": 3.75,
              "duration": 0.23541666666666666
            }
          ]
        },
        "12": {
          "ctab": {
            "srcChannel": 12,
            "name": "Org S",
            "accType": "CHORD2",
            "editable": false,
            "mutedNotes": [],
            "mutedChords": [
              "1+2+5",
              "sus4",
              "1+5",
              "1+8",
              "7aug",
              "Maj7aug",
              "7(b13)",
              "7(b9)",
              "7(13)",
              "7#11",
              "7(9)",
              "7b5",
              "7sus4",
              "dim7",
              "dim",
              "minMaj7(9)",
              "minMaj7",
              "min7(11)",
              "min7(9)",
              "min(9)",
              "m7b5",
              "min7",
              "min6",
              "min",
              "aug",
              "Maj6(9)",
              "Maj7(9)",
              "Maj(9)",
              "Maj7#11",
              "Maj7",
              "Maj6"
            ],
            "autoStart": false,
            "sourceChordNote": 0,
            "sourceChordType": "Maj",
            "ctb2Low": null,
            "ctb2Main": {
              "ntr": "ROOT_TRANSPOSITION",
              "ntt": "BYPASS",
              "bassOn": false,
              "chordRootUpperLimit": 7,
              "noteLowLimit": 48,
              "noteHighLimit": 72,
              "rtr": "PITCH_SHIFT"
            },
            "ctb2High": null
          },
          "notes": [
            {
              "pitch": 70,
              "velocity": 60,
              "position": 0.5,
              "duration": 0.20416666666666666
            },
            {
              "pitch": 79,
              "velocity": 60,
              "position": 0.5,
              "duration": 0.20416666666666666
            },
            {
              "pitch": 76,
              "velocity": 60,
              "position": 0.5,
              "duration": 0.20416666666666666
            },
            {
              "pitch": 74,
              "velocity": 60,
              "position": 0.5,
              "duration": 0.20416666666666666
            },
            {
              "pitch": 28,
              "velocity": 38,
              "position": 0.75,
              "duration": 0.04791666666666667
            },
            {
              "pitch": 31,
              "velocity": 38,
              "position": 0.75,
              "duration": 0.04791666666666667
            },
            {
              "pitch": 28,
              "velocity": 64,
              "position": 1,
              "duration": 0.04791666666666667
            },
            {
              "pitch": 31,
              "velocity": 64,
              "position": 1,
              "duration": 0.04791666666666667
            },
            {
              "pitch": 70,
              "velocity": 60,
              "position": 1.25,
              "duration": 0.45416666666666666
            },
            {
              "pitch": 79,
              "velocity": 60,
              "position": 1.25,
              "duration": 0.45416666666666666
            },
            {
              "pitch": 76,
              "velocity": 60,
              "position": 1.25,
              "duration": 0.45416666666666666
            },
            {
              "pitch": 74,
              "velocity": 60,
              "position": 1.25,
              "duration": 0.45416666666666666
            },
            {
              "pitch": 75,
              "velocity": 60,
              "position": 2,
              "duration": 0.17291666666666666
            },
            {
              "pitch": 28,
              "velocity": 64,
              "position": 2.75,
              "duration": 0.04791666666666667
            },
            {
              "pitch": 31,
              "velocity": 64,
              "position": 2.75,
              "duration": 0.04791666666666667
            },
            {
              "pitch": 76,
              "velocity": 60,
              "position": 2.125,
              "duration": 0.83125
            },
            {
              "pitch": 79,
              "velocity": 60,
              "position": 2,
              "duration": 0.9854166666666667
            },
            {
              "pitch": 70,
              "velocity": 60,
              "position": 2,
              "duration": 0.9854166666666667
            },
            {
              "pitch": 76,
              "velocity": 60,
              "position": 3,
              "duration": 0.17291666666666666
            },
            {
              "pitch": 28,
              "velocity": 64,
              "position": 3.75,
              "duration": 0.04791666666666667
            },
            {
              "pitch": 31,
              "velocity": 64,
              "position": 3.75,
              "duration": 0.04791666666666667
            },
            {
              "pitch": 72,
              "velocity": 60,
              "position": 3,
              "duration": 0.9854166666666667
            },
            {
              "pitch": 81,
              "velocity": 60,
              "position": 3,
              "duration": 0.9854166666666667
            },
            {
              "pitch": 77,
              "velocity": 60,
              "position": 3.125,
              "duration": 0.8604166666666667
            }
          ]
        },
        "13": {
          "ctab": {
            "srcChannel": 13,
            "name": "Tpt S",
            "accType": "PAD",
            "editable": false,
            "mutedNotes": [],
            "mutedChords": [
              "1+2+5",
              "sus4",
              "1+5",
              "1+8",
              "7aug",
              "Maj7aug",
              "7(#9)",
              "7(b13)",
              "7(b9)",
              "7(13)",
              "7#11",
              "7b5",
              "7sus4",
              "dim7",
              "dim",
              "minMaj7(9)",
              "minMaj7",
              "min7(11)",
              "m7b5",
              "min6",
              "min",
              "aug",
              "Maj6(9)",
              "Maj7(9)",
              "Maj(9)",
              "Maj7#11",
              "Maj7",
              "Maj6"
            ],
            "autoStart": false,
            "sourceChordNote": 0,
            "sourceChordType": "7(9)",
            "ctb2Low": null,
            "ctb2Main": {
              "ntr": "ROOT_TRANSPOSITION",
              "ntt": "MELODIC_MINOR_5",
              "bassOn": false,
              "chordRootUpperLimit": 2,
              "noteLowLimit": 0,
              "noteHighLimit": 127,
              "rtr": "PITCH_SHIFT"
            },
            "ctb2High": null
          },
          "notes": []
        },
        "14": {
          "ctab": {
            "srcChannel": 14,
            "name": "Sax S",
            "accType": "PHRASE1",
            "editable": false,
            "mutedNotes": [],
            "mutedChords": [
              "1+2+5",
              "sus4",
              "1+5",
              "1+8",
              "7aug",
              "Maj7aug",
              "7(#9)",
              "7(b13)",
              "7(b9)",
              "7(13)",
              "7#11",
              "7b5",
              "7sus4",
              "dim7",
              "dim",
              "minMaj7(9)",
              "minMaj7",
              "min7(11)",
              "m7b5",
              "min6",
              "min",
              "aug",
              "Maj6(9)",
              "Maj7(9)",
              "Maj(9)",
              "Maj7#11",
              "Maj7",
              "Maj6"
            ],
            "autoStart": false,
            "sourceChordNote": 0,
            "sourceChordType": "7(9)",
            "ctb2Low": null,
            "ctb2Main": {
              "ntr": "ROOT_TRANSPOSITION",
              "ntt": "MELODIC_MINOR_5",
              "bassOn": false,
              "chordRootUpperLimit": 7,
              "noteLowLimit": 0,
              "noteHighLimit": 127,
              "rtr": "PITCH_SHIFT"
            },
            "ctb2High": null
          },
          "notes": []
        },
        "15": {
          "ctab": {
            "srcChannel": 15,
            "name": "Bari S",
            "accType": "PHRASE2",
            "editable": false,
            "mutedNotes": [],
            "mutedChords": [
              "1+2+5",
              "sus4",
              "1+5",
              "1+8",
              "7aug",
              "Maj7aug",
              "7(#9)",
              "7(b13)",
              "7(b9)",
              "7(13)",
              "7#11",
              "7b5",
              "7sus4",
              "dim7",
              "dim",
              "minMaj7(9)",
              "minMaj7",
              "min7(11)",
              "m7b5",
              "min6",
              "min",
              "aug",
              "Maj6(9)",
              "Maj7(9)",
              "Maj(9)",
              "Maj7#11",
              "Maj7",
              "Maj6"
            ],
            "autoStart": false,
            "sourceChordNote": 0,
            "sourceChordType": "7(9)",
            "ctb2Low": null,
            "ctb2Main": {
              "ntr": "ROOT_TRANSPOSITION",
              "ntt": "MELODIC_MINOR_5",
              "bassOn": true,
              "chordRootUpperLimit": 3,
              "noteLowLimit": 33,
              "noteHighLimit": 127,
              "rtr": "PITCH_SHIFT"
            },
            "ctb2High": null
          },
          "notes": []
        }
      }
    },
    "Main_C": {
      "type": "Main_C",
      "sizeInBeats": 16,
      "channels": {
        "1": {
          "ctab": {
            "srcChannel": 1,
            "name": "Bass P",
            "accType": "BASS",
            "editable": false,
            "mutedNotes": [],
            "mutedChords": [
              "7(9)",
              "7th",
              "min7(9)",
              "min(9)",
              "min",
              "Maj"
            ],
            "autoStart": false,
            "sourceChordNote": 0,
            "sourceChordType": "Maj7",
            "ctb2Low": null,
            "ctb2Main": {
              "ntr": "ROOT_TRANSPOSITION",
              "ntt": "MELODY",
              "bassOn": true,
              "chordRootUpperLimit": 3,
              "noteLowLimit": 28,
              "noteHighLimit": 127,
              "rtr": "PITCH_SHIFT_TO_ROOT"
            },
            "ctb2High": null
          },
          "notes": [
            {
              "pitch": 36,
              "velocity": 80,
              "position": 0,
              "duration": 0.23541666666666666
            },
            {
              "pitch": 36,
              "velocity": 91,
              "position": 0.25,
              "duration": 0.13125
            },
            {
              "pitch": 36,
              "velocity": 110,
              "position": 0.5,
              "duration": 0.13125
            },
            {
              "pitch": 36,
              "velocity": 80,
              "position": 0.75,
              "duration": 0.23541666666666666
            },
            {
              "pitch": 36,
              "velocity": 110,
              "position": 1.25,
              "duration": 0.13125
            },
            {
              "pitch": 36,
              "velocity": 110,
              "position": 1.5,
              "duration": 0.13125
            },
            {
              "pitch": 43,
              "velocity": 110,
              "position": 1.75,
              "duration": 0.13125
            },
            {
              "pitch": 48,
              "velocity": 80,
              "position": 2,
              "duration": 0.23541666666666666
            },
            {
              "pitch": 48,
              "velocity": 91,
              "position": 2.25,
              "duration": 0.13125
            },
            {
              "pitch": 48,
              "velocity": 80,
              "position": 2.5,
              "duration": 0.48541666666666666
            },
            {
              "pitch": 48,
              "velocity": 110,
              "position": 3,
              "duration": 0.13125
            },
            {
              "pitch": 43,
              "velocity": 110,
              "position": 3.25,
              "duration": 0.13125
            },
            {
              "pitch": 36,
              "velocity": 60,
              "position": 3.5,
              "duration": 0.42291666666666666
            },
            {
              "pitch": 36,
              "velocity": 80,
              "position": 4,
              "duration": 0.23541666666666666
            },
            {
              "pitch": 36,
              "velocity": 91,
              "position": 4.25,
              "duration": 0.13125
            },
            {
              "pitch": 36,
              "velocity": 110,
              "position": 4.5,
              "duration": 0.13125
            },
            {
              "pitch": 36,
              "velocity": 80,
              "position": 4.75,
              "duration": 0.23541666666666666
            },
            {
              "pitch": 36,
              "velocity": 110,
              "position": 5.25,
              "duration": 0.13125
            },
            {
              "pitch": 36,
              "velocity": 110,
              "position": 5.5,
              "duration": 0.13125
            },
            {
              "pitch": 43,
              "velocity": 110,
              "position": 5.75,
              "duration": 0.13125
            },
            {
              "pitch": 48,
              "velocity": 80,
              "position": 6,
              "duration": 0.23541666666666666
            },
            {
              "pitch": 48,
              "velocity": 91,
              "position": 6.25,
              "duration": 0.13125
            },
            {
              "pitch": 48,
              "velocity": 80,
              "position": 6.5,
              "duration": 0.48541666666666666
            },
            {
              "pitch": 48,
              "velocity": 110,
              "position": 7,
              "duration": 0.13125
            },
            {
              "pitch": 43,
              "velocity": 110,
              "position": 7.25,
              "duration": 0.13125
            },
            {
              "pitch": 36,
              "velocity": 60,
              "position": 7.5,
              "duration": 0.42291666666666666
            },
            {
              "pitch": 36,
              "velocity": 80,
              "position": 8,
              "duration": 0.23541666666666666
            },
            {
              "pitch": 36,
              "velocity": 91,
              "position": 8.25,
              "duration": 0.13125
            },
            {
              "pitch": 36,
              "velocity": 110,
              "position": 8.5,
              "duration": 0.13125
            },
            {
              "pitch": 36,
              "velocity": 80,
              "position": 8.75,
              "duration": 0.23541666666666666
            },
            {
              "pitch": 36,
              "velocity": 110,
              "position": 9.25,
              "duration": 0.13125
            },
            {
              "pitch": 36,
              "velocity": 110,
              "position": 9.5,
              "duration": 0.13125
            },
            {
              "pitch": 43,
              "velocity": 110,
              "position": 9.75,
              "duration": 0.13125
            },
            {
              "pitch": 48,
              "velocity": 80,
              "position": 10,
              "duration": 0.23541666666666666
            },
            {
              "pitch": 48,
              "velocity": 91,
              "position": 10.25,
              "duration": 0.13125
            },
            {
              "pitch": 48,
              "velocity": 80,
              "position": 10.5,
              "duration": 0.48541666666666666
            },
            {
              "pitch": 48,
              "velocity": 110,
              "position": 11,
              "duration": 0.13125
            },
            {
              "pitch": 43,
              "velocity": 110,
              "position": 11.25,
              "duration": 0.13125
            },
            {
              "pitch": 36,
              "velocity": 60,
              "position": 11.5,
              "duration": 0.42291666666666666
            },
            {
              "pitch": 36,
              "velocity": 80,
              "position": 12,
              "duration": 0.23541666666666666
            },
            {
              "pitch": 36,
              "velocity": 91,
              "position": 12.25,
              "duration": 0.13125
            },
            {
              "pitch": 36,
              "velocity": 110,
              "position": 12.5,
              "duration": 0.13125
            },
            {
              "pitch": 36,
              "velocity": 80,
              "position": 12.75,
              "duration": 0.23541666666666666
            },
            {
              "pitch": 36,
              "velocity": 110,
              "position": 13.25,
              "duration": 0.13125
            },
            {
              "pitch": 36,
              "velocity": 110,
              "position": 13.5,
              "duration": 0.13125
            },
            {
              "pitch": 43,
              "velocity": 110,
              "position": 13.75,
              "duration": 0.13125
            },
            {
              "pitch": 48,
              "velocity": 80,
              "position": 14,
              "duration": 0.23541666666666666
            },
            {
              "pitch": 48,
              "velocity": 91,
              "position": 14.25,
              "duration": 0.13125
            },
            {
              "pitch": 48,
              "velocity": 80,
              "position": 14.5,
              "duration": 0.48541666666666666
            },
            {
              "pitch": 48,
              "velocity": 110,
              "position": 15,
              "duration": 0.13125
            },
            {
              "pitch": 43,
              "velocity": 110,
              "position": 15.25,
              "duration": 0.13125
            },
            {
              "pitch": 36,
              "velocity": 60,
              "position": 15.5,
              "duration": 0.42291666666666666
            }
          ]
        },
        "2": {
          "ctab": {
            "srcChannel": 2,
            "name": "Gt P",
            "accType": "CHORD1",
            "editable": false,
            "mutedNotes": [],
            "mutedChords": [
              "7(9)",
              "7th",
              "min7(9)",
              "min(9)",
              "min",
              "Maj"
            ],
            "autoStart": false,
            "sourceChordNote": 0,
            "sourceChordType": "Maj7",
            "ctb2Low": null,
            "ctb2Main": {
              "ntr": "ROOT_TRANSPOSITION",
              "ntt": "MELODY",
              "bassOn": false,
              "chordRootUpperLimit": 7,
              "noteLowLimit": 0,
              "noteHighLimit": 127,
              "rtr": "PITCH_SHIFT"
            },
            "ctb2High": null
          },
          "notes": [
            {
              "pitch": 64,
              "velocity": 35,
              "position": 0.020833333333333332,
              "duration": 0.21458333333333332
            },
            {
              "pitch": 60,
              "velocity": 35,
              "position": 0.010416666666666666,
              "duration": 0.23541666666666666
            },
            {
              "pitch": 55,
              "velocity": 29,
              "position": 0,
              "duration": 0.25625
            },
            {
              "pitch": 59,
              "velocity": 29,
              "position": 0,
              "duration": 0.25625
            },
            {
              "pitch": 55,
              "velocity": 22,
              "position": 0.2708333333333333,
              "duration": 0.21458333333333332
            },
            {
              "pitch": 59,
              "velocity": 22,
              "position": 0.2708333333333333,
              "duration": 0.21458333333333332
            },
            {
              "pitch": 60,
              "velocity": 22,
              "position": 0.2604166666666667,
              "duration": 0.23541666666666666
            },
            {
              "pitch": 64,
              "velocity": 22,
              "position": 0.25,
              "duration": 0.25625
            },
            {
              "pitch": 67,
              "velocity": 35,
              "position": 0.03125,
              "duration": 0.48541666666666666
            },
            {
              "pitch": 71,
              "velocity": 35,
              "position": 0.03125,
              "duration": 0.48541666666666666
            },
            {
              "pitch": 67,
              "velocity": 29,
              "position": 0.53125,
              "duration": 0.20416666666666666
            },
            {
              "pitch": 71,
              "velocity": 29,
              "position": 0.53125,
              "duration": 0.20416666666666666
            },
            {
              "pitch": 64,
              "velocity": 29,
              "position": 0.5208333333333334,
              "duration": 0.225
            },
            {
              "pitch": 60,
              "velocity": 29,
              "position": 0.5104166666666666,
              "duration": 0.24583333333333332
            },
            {
              "pitch": 60,
              "velocity": 35,
              "position": 0.7708333333333334,
              "duration": 0.21458333333333332
            },
            {
              "pitch": 64,
              "velocity": 35,
              "position": 0.7604166666666666,
              "duration": 0.23541666666666666
            },
            {
              "pitch": 67,
              "velocity": 35,
              "position": 0.75,
              "duration": 0.25625
            },
            {
              "pitch": 71,
              "velocity": 35,
              "position": 0.75,
              "duration": 0.25625
            },
            {
              "pitch": 55,
              "velocity": 29,
              "position": 0.5,
              "duration": 0.50625
            },
            {
              "pitch": 59,
              "velocity": 29,
              "position": 0.5,
              "duration": 0.50625
            },
            {
              "pitch": 67,
              "velocity": 35,
              "position": 1.53125,
              "duration": 0.20416666666666666
            },
            {
              "pitch": 71,
              "velocity": 35,
              "position": 1.53125,
              "duration": 0.20416666666666666
            },
            {
              "pitch": 64,
              "velocity": 35,
              "position": 1.5208333333333333,
              "duration": 0.21458333333333332
            },
            {
              "pitch": 60,
              "velocity": 35,
              "position": 1.5104166666666667,
              "duration": 0.23541666666666666
            },
            {
              "pitch": 55,
              "velocity": 29,
              "position": 1.5,
              "duration": 0.25625
            },
            {
              "pitch": 59,
              "velocity": 29,
              "position": 1.5,
              "duration": 0.25625
            },
            {
              "pitch": 64,
              "velocity": 35,
              "position": 2.5208333333333335,
              "duration": 0.21458333333333332
            },
            {
              "pitch": 60,
              "velocity": 35,
              "position": 2.5104166666666665,
              "duration": 0.23541666666666666
            },
            {
              "pitch": 55,
              "velocity": 29,
              "position": 2.5,
              "duration": 0.25625
            },
            {
              "pitch": 59,
              "velocity": 29,
              "position": 2.5,
              "duration": 0.25625
            },
            {
              "pitch": 55,
              "velocity": 22,
              "position": 2.7708333333333335,
              "duration": 0.21458333333333332
            },
            {
              "pitch": 59,
              "velocity": 22,
              "position": 2.7708333333333335,
              "duration": 0.21458333333333332
            },
            {
              "pitch": 60,
              "velocity": 22,
              "position": 2.7604166666666665,
              "duration": 0.23541666666666666
            },
            {
              "pitch": 64,
              "velocity": 22,
              "position": 2.75,
              "duration": 0.25625
            },
            {
              "pitch": 67,
              "velocity": 35,
              "position": 2.53125,
              "duration": 0.48541666666666666
            },
            {
              "pitch": 71,
              "velocity": 35,
              "position": 2.53125,
              "duration": 0.48541666666666666
            },
            {
              "pitch": 67,
              "velocity": 29,
              "position": 3.03125,
              "duration": 0.20416666666666666
            },
            {
              "pitch": 71,
              "velocity": 29,
              "position": 3.03125,
              "duration": 0.20416666666666666
            },
            {
              "pitch": 64,
              "velocity": 29,
              "position": 3.0208333333333335,
              "duration": 0.225
            },
            {
              "pitch": 60,
              "velocity": 29,
              "position": 3.0104166666666665,
              "duration": 0.24583333333333332
            },
            {
              "pitch": 60,
              "velocity": 35,
              "position": 3.2708333333333335,
              "duration": 0.21458333333333332
            },
            {
              "pitch": 64,
              "velocity": 35,
              "position": 3.2604166666666665,
              "duration": 0.23541666666666666
            },
            {
              "pitch": 67,
              "velocity": 35,
              "position": 3.25,
              "duration": 0.25625
            },
            {
              "pitch": 71,
              "velocity": 35,
              "position": 3.25,
              "duration": 0.25625
            },
            {
              "pitch": 55,
              "velocity": 29,
              "position": 3,
              "duration": 0.50625
            },
            {
              "pitch": 59,
              "velocity": 29,
              "position": 3,
              "duration": 0.50625
            },
            {
              "pitch": 64,
              "velocity": 35,
              "position": 4.020833333333333,
              "duration": 0.21458333333333332
            },
            {
              "pitch": 60,
              "velocity": 35,
              "position": 4.010416666666667,
              "duration": 0.23541666666666666
            },
            {
              "pitch": 55,
              "velocity": 29,
              "position": 4,
              "duration": 0.25625
            },
            {
              "pitch": 59,
              "velocity": 29,
              "position": 4,
              "duration": 0.25625
            },
            {
              "pitch": 55,
              "velocity": 22,
              "position": 4.270833333333333,
              "duration": 0.21458333333333332
            },
            {
              "pitch": 59,
              "velocity": 22,
              "position": 4.270833333333333,
              "duration": 0.21458333333333332
            },
            {
              "pitch": 60,
              "velocity": 22,
              "position": 4.260416666666667,
              "duration": 0.23541666666666666
            },
            {
              "pitch": 64,
              "velocity": 22,
              "position": 4.25,
              "duration": 0.25625
            },
            {
              "pitch": 67,
              "velocity": 35,
              "position": 4.03125,
              "duration": 0.48541666666666666
            },
            {
              "pitch": 71,
              "velocity": 35,
              "position": 4.03125,
              "duration": 0.48541666666666666
            },
            {
              "pitch": 67,
              "velocity": 29,
              "position": 4.53125,
              "duration": 0.20416666666666666
            },
            {
              "pitch": 71,
              "velocity": 29,
              "position": 4.53125,
              "duration": 0.20416666666666666
            },
            {
              "pitch": 64,
              "velocity": 29,
              "position": 4.520833333333333,
              "duration": 0.225
            },
            {
              "pitch": 60,
              "velocity": 29,
              "position": 4.510416666666667,
              "duration": 0.24583333333333332
            },
            {
              "pitch": 60,
              "velocity": 35,
              "position": 4.770833333333333,
              "duration": 0.21458333333333332
            },
            {
              "pitch": 64,
              "velocity": 35,
              "position": 4.760416666666667,
              "duration": 0.23541666666666666
            },
            {
              "pitch": 67,
              "velocity": 35,
              "position": 4.75,
              "duration": 0.25625
            },
            {
              "pitch": 71,
              "velocity": 35,
              "position": 4.75,
              "duration": 0.25625
            },
            {
              "pitch": 55,
              "velocity": 29,
              "position": 4.5,
              "duration": 0.50625
            },
            {
              "pitch": 59,
              "velocity": 29,
              "position": 4.5,
              "duration": 0.50625
            },
            {
              "pitch": 67,
              "velocity": 35,
              "position": 5.53125,
              "duration": 0.20416666666666666
            },
            {
              "pitch": 71,
              "velocity": 35,
              "position": 5.53125,
              "duration": 0.20416666666666666
            },
            {
              "pitch": 64,
              "velocity": 35,
              "position": 5.520833333333333,
              "duration": 0.21458333333333332
            },
            {
              "pitch": 60,
              "velocity": 35,
              "position": 5.510416666666667,
              "duration": 0.23541666666666666
            },
            {
              "pitch": 55,
              "velocity": 29,
              "position": 5.5,
              "duration": 0.25625
            },
            {
              "pitch": 59,
              "velocity": 29,
              "position": 5.5,
              "duration": 0.25625
            },
            {
              "pitch": 64,
              "velocity": 35,
              "position": 6.520833333333333,
              "duration": 0.21458333333333332
            },
            {
              "pitch": 60,
              "velocity": 35,
              "position": 6.510416666666667,
              "duration": 0.23541666666666666
            },
            {
              "pitch": 55,
              "velocity": 29,
              "position": 6.5,
              "duration": 0.25625
            },
            {
              "pitch": 59,
              "velocity": 29,
              "position": 6.5,
              "duration": 0.25625
            },
            {
              "pitch": 55,
              "velocity": 22,
              "position": 6.770833333333333,
              "duration": 0.21458333333333332
            },
            {
              "pitch": 59,
              "velocity": 22,
              "position": 6.770833333333333,
              "duration": 0.21458333333333332
            },
            {
              "pitch": 60,
              "velocity": 22,
              "position": 6.760416666666667,
              "duration": 0.23541666666666666
            },
            {
              "pitch": 64,
              "velocity": 22,
              "position": 6.75,
              "duration": 0.25625
            },
            {
              "pitch": 67,
              "velocity": 35,
              "position": 6.53125,
              "duration": 0.48541666666666666
            },
            {
              "pitch": 71,
              "velocity": 35,
              "position": 6.53125,
              "duration": 0.48541666666666666
            },
            {
              "pitch": 67,
              "velocity": 29,
              "position": 7.03125,
              "duration": 0.20416666666666666
            },
            {
              "pitch": 71,
              "velocity": 29,
              "position": 7.03125,
              "duration": 0.20416666666666666
            },
            {
              "pitch": 64,
              "velocity": 29,
              "position": 7.020833333333333,
              "duration": 0.225
            },
            {
              "pitch": 60,
              "velocity": 29,
              "position": 7.010416666666667,
              "duration": 0.24583333333333332
            },
            {
              "pitch": 60,
              "velocity": 35,
              "position": 7.270833333333333,
              "duration": 0.21458333333333332
            },
            {
              "pitch": 64,
              "velocity": 35,
              "position": 7.260416666666667,
              "duration": 0.23541666666666666
            },
            {
              "pitch": 67,
              "velocity": 35,
              "position": 7.25,
              "duration": 0.25625
            },
            {
              "pitch": 71,
              "velocity": 35,
              "position": 7.25,
              "duration": 0.25625
            },
            {
              "pitch": 55,
              "velocity": 29,
              "position": 7,
              "duration": 0.50625
            },
            {
              "pitch": 59,
              "velocity": 29,
              "position": 7,
              "duration": 0.50625
            },
            {
              "pitch": 64,
              "velocity": 35,
              "position": 8.020833333333334,
              "duration": 0.21458333333333332
            },
            {
              "pitch": 60,
              "velocity": 35,
              "position": 8.010416666666666,
              "duration": 0.23541666666666666
            },
            {
              "pitch": 55,
              "velocity": 29,
              "position": 8,
              "duration": 0.25625
            },
            {
              "pitch": 59,
              "velocity": 29,
              "position": 8,
              "duration": 0.25625
            },
            {
              "pitch": 55,
              "velocity": 22,
              "position": 8.270833333333334,
              "duration": 0.21458333333333332
            },
            {
              "pitch": 59,
              "velocity": 22,
              "position": 8.270833333333334,
              "duration": 0.21458333333333332
            },
            {
              "pitch": 60,
              "velocity": 22,
              "position": 8.260416666666666,
              "duration": 0.23541666666666666
            },
            {
              "pitch": 64,
              "velocity": 22,
              "position": 8.25,
              "duration": 0.25625
            },
            {
              "pitch": 67,
              "velocity": 35,
              "position": 8.03125,
              "duration": 0.48541666666666666
            },
            {
              "pitch": 71,
              "velocity": 35,
              "position": 8.03125,
              "duration": 0.48541666666666666
            },
            {
              "pitch": 67,
              "velocity": 29,
              "position": 8.53125,
              "duration": 0.20416666666666666
            },
            {
              "pitch": 71,
              "velocity": 29,
              "position": 8.53125,
              "duration": 0.20416666666666666
            },
            {
              "pitch": 64,
              "velocity": 29,
              "position": 8.520833333333334,
              "duration": 0.225
            },
            {
              "pitch": 60,
              "velocity": 29,
              "position": 8.510416666666666,
              "duration": 0.24583333333333332
            },
            {
              "pitch": 60,
              "velocity": 35,
              "position": 8.770833333333334,
              "duration": 0.21458333333333332
            },
            {
              "pitch": 64,
              "velocity": 35,
              "position": 8.760416666666666,
              "duration": 0.23541666666666666
            },
            {
              "pitch": 67,
              "velocity": 35,
              "position": 8.75,
              "duration": 0.25625
            },
            {
              "pitch": 71,
              "velocity": 35,
              "position": 8.75,
              "duration": 0.25625
            },
            {
              "pitch": 55,
              "velocity": 29,
              "position": 8.5,
              "duration": 0.50625
            },
            {
              "pitch": 59,
              "velocity": 29,
              "position": 8.5,
              "duration": 0.50625
            },
            {
              "pitch": 67,
              "velocity": 35,
              "position": 9.53125,
              "duration": 0.20416666666666666
            },
            {
              "pitch": 71,
              "velocity": 35,
              "position": 9.53125,
              "duration": 0.20416666666666666
            },
            {
              "pitch": 64,
              "velocity": 35,
              "position": 9.520833333333334,
              "duration": 0.21458333333333332
            },
            {
              "pitch": 60,
              "velocity": 35,
              "position": 9.510416666666666,
              "duration": 0.23541666666666666
            },
            {
              "pitch": 55,
              "velocity": 29,
              "position": 9.5,
              "duration": 0.25625
            },
            {
              "pitch": 59,
              "velocity": 29,
              "position": 9.5,
              "duration": 0.25625
            },
            {
              "pitch": 64,
              "velocity": 35,
              "position": 10.520833333333334,
              "duration": 0.21458333333333332
            },
            {
              "pitch": 60,
              "velocity": 35,
              "position": 10.510416666666666,
              "duration": 0.23541666666666666
            },
            {
              "pitch": 55,
              "velocity": 29,
              "position": 10.5,
              "duration": 0.25625
            },
            {
              "pitch": 59,
              "velocity": 29,
              "position": 10.5,
              "duration": 0.25625
            },
            {
              "pitch": 55,
              "velocity": 22,
              "position": 10.770833333333334,
              "duration": 0.21458333333333332
            },
            {
              "pitch": 59,
              "velocity": 22,
              "position": 10.770833333333334,
              "duration": 0.21458333333333332
            },
            {
              "pitch": 60,
              "velocity": 22,
              "position": 10.760416666666666,
              "duration": 0.23541666666666666
            },
            {
              "pitch": 64,
              "velocity": 22,
              "position": 10.75,
              "duration": 0.25625
            },
            {
              "pitch": 67,
              "velocity": 35,
              "position": 10.53125,
              "duration": 0.48541666666666666
            },
            {
              "pitch": 71,
              "velocity": 35,
              "position": 10.53125,
              "duration": 0.48541666666666666
            },
            {
              "pitch": 67,
              "velocity": 29,
              "position": 11.03125,
              "duration": 0.20416666666666666
            },
            {
              "pitch": 71,
              "velocity": 29,
              "position": 11.03125,
              "duration": 0.20416666666666666
            },
            {
              "pitch": 64,
              "velocity": 29,
              "position": 11.020833333333334,
              "duration": 0.225
            },
            {
              "pitch": 60,
              "velocity": 29,
              "position": 11.010416666666666,
              "duration": 0.24583333333333332
            },
            {
              "pitch": 60,
              "velocity": 35,
              "position": 11.270833333333334,
              "duration": 0.21458333333333332
            },
            {
              "pitch": 64,
              "velocity": 35,
              "position": 11.260416666666666,
              "duration": 0.23541666666666666
            },
            {
              "pitch": 67,
              "velocity": 35,
              "position": 11.25,
              "duration": 0.25625
            },
            {
              "pitch": 71,
              "velocity": 35,
              "position": 11.25,
              "duration": 0.25625
            },
            {
              "pitch": 55,
              "velocity": 29,
              "position": 11,
              "duration": 0.50625
            },
            {
              "pitch": 59,
              "velocity": 29,
              "position": 11,
              "duration": 0.50625
            },
            {
              "pitch": 64,
              "velocity": 35,
              "position": 12.020833333333334,
              "duration": 0.21458333333333332
            },
            {
              "pitch": 60,
              "velocity": 35,
              "position": 12.010416666666666,
              "duration": 0.23541666666666666
            },
            {
              "pitch": 55,
              "velocity": 29,
              "position": 12,
              "duration": 0.25625
            },
            {
              "pitch": 59,
              "velocity": 29,
              "position": 12,
              "duration": 0.25625
            },
            {
              "pitch": 55,
              "velocity": 22,
              "position": 12.270833333333334,
              "duration": 0.21458333333333332
            },
            {
              "pitch": 59,
              "velocity": 22,
              "position": 12.270833333333334,
              "duration": 0.21458333333333332
            },
            {
              "pitch": 60,
              "velocity": 22,
              "position": 12.260416666666666,
              "duration": 0.23541666666666666
            },
            {
              "pitch": 64,
              "velocity": 22,
              "position": 12.25,
              "duration": 0.25625
            },
            {
              "pitch": 67,
              "velocity": 35,
              "position": 12.03125,
              "duration": 0.48541666666666666
            },
            {
              "pitch": 71,
              "velocity": 35,
              "position": 12.03125,
              "duration": 0.48541666666666666
            },
            {
              "pitch": 67,
              "velocity": 29,
              "position": 12.53125,
              "duration": 0.20416666666666666
            },
            {
              "pitch": 71,
              "velocity": 29,
              "position": 12.53125,
              "duration": 0.20416666666666666
            },
            {
              "pitch": 64,
              "velocity": 29,
              "position": 12.520833333333334,
              "duration": 0.225
            },
            {
              "pitch": 60,
              "velocity": 29,
              "position": 12.510416666666666,
              "duration": 0.24583333333333332
            },
            {
              "pitch": 60,
              "velocity": 35,
              "position": 12.770833333333334,
              "duration": 0.21458333333333332
            },
            {
              "pitch": 64,
              "velocity": 35,
              "position": 12.760416666666666,
              "duration": 0.23541666666666666
            },
            {
              "pitch": 67,
              "velocity": 35,
              "position": 12.75,
              "duration": 0.25625
            },
            {
              "pitch": 71,
              "velocity": 35,
              "position": 12.75,
              "duration": 0.25625
            },
            {
              "pitch": 55,
              "velocity": 29,
              "position": 12.5,
              "duration": 0.50625
            },
            {
              "pitch": 59,
              "velocity": 29,
              "position": 12.5,
              "duration": 0.50625
            },
            {
              "pitch": 67,
              "velocity": 35,
              "position": 13.53125,
              "duration": 0.20416666666666666
            },
            {
              "pitch": 71,
              "velocity": 35,
              "position": 13.53125,
              "duration": 0.20416666666666666
            },
            {
              "pitch": 64,
              "velocity": 35,
              "position": 13.520833333333334,
              "duration": 0.21458333333333332
            },
            {
              "pitch": 60,
              "velocity": 35,
              "position": 13.510416666666666,
              "duration": 0.23541666666666666
            },
            {
              "pitch": 55,
              "velocity": 29,
              "position": 13.5,
              "duration": 0.25625
            },
            {
              "pitch": 59,
              "velocity": 29,
              "position": 13.5,
              "duration": 0.25625
            },
            {
              "pitch": 64,
              "velocity": 35,
              "position": 14.520833333333334,
              "duration": 0.21458333333333332
            },
            {
              "pitch": 60,
              "velocity": 35,
              "position": 14.510416666666666,
              "duration": 0.23541666666666666
            },
            {
              "pitch": 55,
              "velocity": 29,
              "position": 14.5,
              "duration": 0.25625
            },
            {
              "pitch": 59,
              "velocity": 29,
              "position": 14.5,
              "duration": 0.25625
            },
            {
              "pitch": 55,
              "velocity": 22,
              "position": 14.770833333333334,
              "duration": 0.21458333333333332
            },
            {
              "pitch": 59,
              "velocity": 22,
              "position": 14.770833333333334,
              "duration": 0.21458333333333332
            },
            {
              "pitch": 60,
              "velocity": 22,
              "position": 14.760416666666666,
              "duration": 0.23541666666666666
            },
            {
              "pitch": 64,
              "velocity": 22,
              "position": 14.75,
              "duration": 0.25625
            },
            {
              "pitch": 67,
              "velocity": 35,
              "position": 14.53125,
              "duration": 0.48541666666666666
            },
            {
              "pitch": 71,
              "velocity": 35,
              "position": 14.53125,
              "duration": 0.48541666666666666
            },
            {
              "pitch": 67,
              "velocity": 29,
              "position": 15.03125,
              "duration": 0.20416666666666666
            },
            {
              "pitch": 71,
              "velocity": 29,
              "position": 15.03125,
              "duration": 0.20416666666666666
            },
            {
              "pitch": 64,
              "velocity": 29,
              "position": 15.020833333333334,
              "duration": 0.225
            },
            {
              "pitch": 60,
              "velocity": 29,
              "position": 15.010416666666666,
              "duration": 0.24583333333333332
            },
            {
              "pitch": 60,
              "velocity": 35,
              "position": 15.270833333333334,
              "duration": 0.21458333333333332
            },
            {
              "pitch": 64,
              "velocity": 35,
              "position": 15.260416666666666,
              "duration": 0.23541666666666666
            },
            {
              "pitch": 67,
              "velocity": 35,
              "position": 15.25,
              "duration": 0.25625
            },
            {
              "pitch": 71,
              "velocity": 35,
              "position": 15.25,
              "duration": 0.25625
            },
            {
              "pitch": 55,
              "velocity": 29,
              "position": 15,
              "duration": 0.50625
            },
            {
              "pitch": 59,
              "velocity": 29,
              "position": 15,
              "duration": 0.50625
            }
          ]
        },
        "3": {
          "ctab": {
            "srcChannel": 3,
            "name": "Org P",
            "accType": "CHORD2",
            "editable": false,
            "mutedNotes": [],
            "mutedChords": [
              "7(#9)",
              "7th",
              "Maj"
            ],
            "autoStart": false,
            "sourceChordNote": 0,
            "sourceChordType": "Maj7",
            "ctb2Low": null,
            "ctb2Main": {
              "ntr": "ROOT_FIXED",
              "ntt": "CHORD",
              "bassOn": false,
              "chordRootUpperLimit": 7,
              "noteLowLimit": 0,
              "noteHighLimit": 127,
              "rtr": "PITCH_SHIFT"
            },
            "ctb2High": null
          },
          "notes": [
            {
              "pitch": 67,
              "velocity": 72,
              "position": 5.25,
              "duration": 0.08333333333333333
            },
            {
              "pitch": 71,
              "velocity": 96,
              "position": 5.25,
              "duration": 0.08958333333333333
            },
            {
              "pitch": 76,
              "velocity": 95,
              "position": 5.25,
              "duration": 0.11875
            },
            {
              "pitch": 67,
              "velocity": 91,
              "position": 5.75,
              "duration": 0.1
            },
            {
              "pitch": 71,
              "velocity": 99,
              "position": 5.75,
              "duration": 0.10416666666666667
            },
            {
              "pitch": 76,
              "velocity": 93,
              "position": 5.75,
              "duration": 0.12291666666666666
            },
            {
              "pitch": 67,
              "velocity": 93,
              "position": 6.25,
              "duration": 0.09166666666666666
            },
            {
              "pitch": 71,
              "velocity": 103,
              "position": 6.25,
              "duration": 0.09375
            },
            {
              "pitch": 76,
              "velocity": 95,
              "position": 6.25,
              "duration": 0.11875
            },
            {
              "pitch": 67,
              "velocity": 95,
              "position": 7,
              "duration": 0.3875
            },
            {
              "pitch": 76,
              "velocity": 97,
              "position": 7,
              "duration": 0.4
            },
            {
              "pitch": 71,
              "velocity": 103,
              "position": 7,
              "duration": 0.4
            },
            {
              "pitch": 71,
              "velocity": 99,
              "position": 12.516666666666667,
              "duration": 0.09791666666666667
            },
            {
              "pitch": 67,
              "velocity": 78,
              "position": 12.51875,
              "duration": 0.1125
            },
            {
              "pitch": 76,
              "velocity": 95,
              "position": 12.516666666666667,
              "duration": 0.12708333333333333
            },
            {
              "pitch": 67,
              "velocity": 71,
              "position": 12.76875,
              "duration": 0.11458333333333333
            },
            {
              "pitch": 71,
              "velocity": 77,
              "position": 12.8,
              "duration": 0.0875
            },
            {
              "pitch": 76,
              "velocity": 78,
              "position": 12.76875,
              "duration": 0.125
            },
            {
              "pitch": 67,
              "velocity": 72,
              "position": 13.2625,
              "duration": 0.08333333333333333
            },
            {
              "pitch": 71,
              "velocity": 96,
              "position": 13.2625,
              "duration": 0.08958333333333333
            },
            {
              "pitch": 76,
              "velocity": 95,
              "position": 13.260416666666666,
              "duration": 0.12083333333333333
            },
            {
              "pitch": 67,
              "velocity": 91,
              "position": 13.7625,
              "duration": 0.1
            },
            {
              "pitch": 71,
              "velocity": 99,
              "position": 13.7625,
              "duration": 0.10416666666666667
            },
            {
              "pitch": 76,
              "velocity": 93,
              "position": 13.764583333333333,
              "duration": 0.12083333333333333
            },
            {
              "pitch": 67,
              "velocity": 93,
              "position": 14.2625,
              "duration": 0.09375
            },
            {
              "pitch": 71,
              "velocity": 103,
              "position": 14.2625,
              "duration": 0.09375
            },
            {
              "pitch": 76,
              "velocity": 95,
              "position": 14.2625,
              "duration": 0.11875
            },
            {
              "pitch": 67,
              "velocity": 95,
              "position": 15.010416666666666,
              "duration": 0.3875
            },
            {
              "pitch": 71,
              "velocity": 103,
              "position": 15.008333333333333,
              "duration": 0.4
            },
            {
              "pitch": 76,
              "velocity": 97,
              "position": 15.010416666666666,
              "duration": 0.4
            }
          ]
        },
        "4": {
          "ctab": {
            "srcChannel": 4,
            "name": "Tpt P",
            "accType": "PAD",
            "editable": false,
            "mutedNotes": [],
            "mutedChords": [
              "7(9)",
              "7th",
              "min7(9)",
              "min(9)",
              "min",
              "Maj"
            ],
            "autoStart": false,
            "sourceChordNote": 0,
            "sourceChordType": "Maj7",
            "ctb2Low": null,
            "ctb2Main": {
              "ntr": "ROOT_FIXED",
              "ntt": "CHORD",
              "bassOn": false,
              "chordRootUpperLimit": 7,
              "noteLowLimit": 0,
              "noteHighLimit": 127,
              "rtr": "PITCH_SHIFT"
            },
            "ctb2High": null
          },
          "notes": [
            {
              "pitch": 76,
              "velocity": 78,
              "position": 0.5,
              "duration": 0.46458333333333335
            },
            {
              "pitch": 79,
              "velocity": 84,
              "position": 0.5,
              "duration": 0.475
            },
            {
              "pitch": 79,
              "velocity": 84,
              "position": 1,
              "duration": 0.1625
            },
            {
              "pitch": 76,
              "velocity": 78,
              "position": 1,
              "duration": 0.18333333333333332
            },
            {
              "pitch": 79,
              "velocity": 84,
              "position": 2.4895833333333335,
              "duration": 0.18333333333333332
            },
            {
              "pitch": 76,
              "velocity": 78,
              "position": 2.5,
              "duration": 0.19375
            },
            {
              "pitch": 76,
              "velocity": 78,
              "position": 4,
              "duration": 0.18333333333333332
            },
            {
              "pitch": 79,
              "velocity": 84,
              "position": 4.010416666666667,
              "duration": 0.17291666666666666
            },
            {
              "pitch": 79,
              "velocity": 84,
              "position": 8.989583333333334,
              "duration": 0.19375
            },
            {
              "pitch": 76,
              "velocity": 78,
              "position": 9,
              "duration": 0.19375
            },
            {
              "pitch": 79,
              "velocity": 84,
              "position": 10.5,
              "duration": 0.17291666666666666
            },
            {
              "pitch": 76,
              "velocity": 78,
              "position": 10.5,
              "duration": 0.19375
            },
            {
              "pitch": 76,
              "velocity": 78,
              "position": 12,
              "duration": 0.1625
            },
            {
              "pitch": 79,
              "velocity": 84,
              "position": 12,
              "duration": 0.18333333333333332
            }
          ]
        },
        "5": {
          "ctab": {
            "srcChannel": 5,
            "name": "Sax P",
            "accType": "PHRASE1",
            "editable": false,
            "mutedNotes": [],
            "mutedChords": [
              "7(9)",
              "7th",
              "min7(9)",
              "min(9)",
              "min",
              "Maj"
            ],
            "autoStart": false,
            "sourceChordNote": 0,
            "sourceChordType": "Maj7",
            "ctb2Low": null,
            "ctb2Main": {
              "ntr": "ROOT_FIXED",
              "ntt": "CHORD",
              "bassOn": false,
              "chordRootUpperLimit": 7,
              "noteLowLimit": 0,
              "noteHighLimit": 127,
              "rtr": "PITCH_SHIFT"
            },
            "ctb2High": null
          },
          "notes": [
            {
              "pitch": 64,
              "velocity": 122,
              "position": 0.4895833333333333,
              "duration": 0.475
            },
            {
              "pitch": 71,
              "velocity": 94,
              "position": 0.5,
              "duration": 0.48541666666666666
            },
            {
              "pitch": 64,
              "velocity": 87,
              "position": 0.9895833333333334,
              "duration": 0.1625
            },
            {
              "pitch": 71,
              "velocity": 68,
              "position": 1,
              "duration": 0.19375
            },
            {
              "pitch": 71,
              "velocity": 99,
              "position": 2.5,
              "duration": 0.17291666666666666
            },
            {
              "pitch": 64,
              "velocity": 120,
              "position": 2.5,
              "duration": 0.18333333333333332
            },
            {
              "pitch": 64,
              "velocity": 117,
              "position": 4,
              "duration": 0.18333333333333332
            },
            {
              "pitch": 71,
              "velocity": 100,
              "position": 4,
              "duration": 0.18333333333333332
            },
            {
              "pitch": 64,
              "velocity": 123,
              "position": 8.989583333333334,
              "duration": 0.1625
            },
            {
              "pitch": 71,
              "velocity": 100,
              "position": 8.989583333333334,
              "duration": 0.19375
            },
            {
              "pitch": 64,
              "velocity": 122,
              "position": 10.5,
              "duration": 0.1625
            },
            {
              "pitch": 71,
              "velocity": 98,
              "position": 10.5,
              "duration": 0.1625
            },
            {
              "pitch": 71,
              "velocity": 95,
              "position": 12,
              "duration": 0.17291666666666666
            },
            {
              "pitch": 64,
              "velocity": 113,
              "position": 12,
              "duration": 0.19375
            }
          ]
        },
        "6": {
          "ctab": {
            "srcChannel": 6,
            "name": "Bari P",
            "accType": "PHRASE2",
            "editable": false,
            "mutedNotes": [],
            "mutedChords": [
              "7(9)",
              "7th",
              "min7(9)",
              "min(9)",
              "min",
              "Maj"
            ],
            "autoStart": false,
            "sourceChordNote": 0,
            "sourceChordType": "Maj7",
            "ctb2Low": null,
            "ctb2Main": {
              "ntr": "ROOT_TRANSPOSITION",
              "ntt": "MELODY",
              "bassOn": true,
              "chordRootUpperLimit": 3,
              "noteLowLimit": 33,
              "noteHighLimit": 127,
              "rtr": "PITCH_SHIFT_TO_ROOT"
            },
            "ctb2High": null
          },
          "notes": [
            {
              "pitch": 36,
              "velocity": 116,
              "position": 0,
              "duration": 0.23541666666666666
            },
            {
              "pitch": 48,
              "velocity": 90,
              "position": 0.4895833333333333,
              "duration": 0.46458333333333335
            },
            {
              "pitch": 48,
              "velocity": 56,
              "position": 1,
              "duration": 0.18333333333333332
            },
            {
              "pitch": 36,
              "velocity": 122,
              "position": 1.4895833333333333,
              "duration": 0.23541666666666666
            },
            {
              "pitch": 48,
              "velocity": 80,
              "position": 2.5,
              "duration": 0.24583333333333332
            },
            {
              "pitch": 36,
              "velocity": 116,
              "position": 3,
              "duration": 0.25625
            },
            {
              "pitch": 48,
              "velocity": 92,
              "position": 4,
              "duration": 0.24583333333333332
            },
            {
              "pitch": 48,
              "velocity": 80,
              "position": 8.989583333333334,
              "duration": 0.17291666666666666
            },
            {
              "pitch": 36,
              "velocity": 118,
              "position": 9.510416666666666,
              "duration": 0.23541666666666666
            },
            {
              "pitch": 48,
              "velocity": 80,
              "position": 10.5,
              "duration": 0.23541666666666666
            },
            {
              "pitch": 36,
              "velocity": 116,
              "position": 11,
              "duration": 0.23541666666666666
            },
            {
              "pitch": 48,
              "velocity": 93,
              "position": 12,
              "duration": 0.24583333333333332
            }
          ]
        },
        "8": {
          "ctab": {
            "srcChannel": 8,
            "name": "Perc",
            "accType": "SUBRHYTHM",
            "editable": false,
            "mutedNotes": [],
            "mutedChords": [],
            "autoStart": true,
            "sourceChordNote": 0,
            "sourceChordType": "Maj7",
            "ctb2Low": null,
            "ctb2Main": {
              "ntr": "ROOT_FIXED",
              "ntt": "BYPASS",
              "bassOn": false,
              "chordRootUpperLimit": 6,
              "noteLowLimit": 0,
              "noteHighLimit": 127,
              "rtr": "PITCH_SHIFT"
            },
            "ctb2High": null
          },
          "notes": [
            {
              "pitch": 82,
              "velocity": 60,
              "position": 0,
              "duration": 0.00625
            },
            {
              "pitch": 82,
              "velocity": 30,
              "position": 0.25,
              "duration": 0.00625
            },
            {
              "pitch": 82,
              "velocity": 80,
              "position": 0.5,
              "duration": 0.00625
            },
            {
              "pitch": 82,
              "velocity": 30,
              "position": 0.75,
              "duration": 0.00625
            },
            {
              "pitch": 82,
              "velocity": 60,
              "position": 1,
              "duration": 0.00625
            },
            {
              "pitch": 82,
              "velocity": 30,
              "position": 1.25,
              "duration": 0.00625
            },
            {
              "pitch": 82,
              "velocity": 80,
              "position": 1.5,
              "duration": 0.00625
            },
            {
              "pitch": 82,
              "velocity": 30,
              "position": 1.75,
              "duration": 0.00625
            },
            {
              "pitch": 82,
              "velocity": 60,
              "position": 2,
              "duration": 0.00625
            },
            {
              "pitch": 82,
              "velocity": 30,
              "position": 2.25,
              "duration": 0.00625
            },
            {
              "pitch": 82,
              "velocity": 80,
              "position": 2.5,
              "duration": 0.00625
            },
            {
              "pitch": 82,
              "velocity": 30,
              "position": 2.75,
              "duration": 0.00625
            },
            {
              "pitch": 82,
              "velocity": 60,
              "position": 3,
              "duration": 0.00625
            },
            {
              "pitch": 82,
              "velocity": 30,
              "position": 3.25,
              "duration": 0.00625
            },
            {
              "pitch": 82,
              "velocity": 80,
              "position": 3.5,
              "duration": 0.00625
            },
            {
              "pitch": 82,
              "velocity": 30,
              "position": 3.75,
              "duration": 0.00625
            },
            {
              "pitch": 82,
              "velocity": 60,
              "position": 4,
              "duration": 0.00625
            },
            {
              "pitch": 82,
              "velocity": 30,
              "position": 4.25,
              "duration": 0.00625
            },
            {
              "pitch": 82,
              "velocity": 80,
              "position": 4.5,
              "duration": 0.00625
            },
            {
              "pitch": 82,
              "velocity": 30,
              "position": 4.75,
              "duration": 0.00625
            },
            {
              "pitch": 82,
              "velocity": 60,
              "position": 5,
              "duration": 0.00625
            },
            {
              "pitch": 82,
              "velocity": 30,
              "position": 5.25,
              "duration": 0.00625
            },
            {
              "pitch": 82,
              "velocity": 80,
              "position": 5.5,
              "duration": 0.00625
            },
            {
              "pitch": 82,
              "velocity": 30,
              "position": 5.75,
              "duration": 0.00625
            },
            {
              "pitch": 82,
              "velocity": 60,
              "position": 6,
              "duration": 0.00625
            },
            {
              "pitch": 82,
              "velocity": 30,
              "position": 6.25,
              "duration": 0.00625
            },
            {
              "pitch": 82,
              "velocity": 80,
              "position": 6.5,
              "duration": 0.00625
            },
            {
              "pitch": 82,
              "velocity": 30,
              "position": 6.75,
              "duration": 0.00625
            },
            {
              "pitch": 82,
              "velocity": 60,
              "position": 7,
              "duration": 0.00625
            },
            {
              "pitch": 82,
              "velocity": 30,
              "position": 7.25,
              "duration": 0.00625
            },
            {
              "pitch": 82,
              "velocity": 80,
              "position": 7.5,
              "duration": 0.00625
            },
            {
              "pitch": 82,
              "velocity": 30,
              "position": 7.75,
              "duration": 0.00625
            },
            {
              "pitch": 82,
              "velocity": 60,
              "position": 8,
              "duration": 0.00625
            },
            {
              "pitch": 82,
              "velocity": 30,
              "position": 8.25,
              "duration": 0.00625
            },
            {
              "pitch": 82,
              "velocity": 80,
              "position": 8.5,
              "duration": 0.00625
            },
            {
              "pitch": 82,
              "velocity": 30,
              "position": 8.75,
              "duration": 0.00625
            },
            {
              "pitch": 82,
              "velocity": 60,
              "position": 9,
              "duration": 0.00625
            },
            {
              "pitch": 82,
              "velocity": 30,
              "position": 9.25,
              "duration": 0.00625
            },
            {
              "pitch": 82,
              "velocity": 80,
              "position": 9.5,
              "duration": 0.00625
            },
            {
              "pitch": 82,
              "velocity": 30,
              "position": 9.75,
              "duration": 0.00625
            },
            {
              "pitch": 82,
              "velocity": 60,
              "position": 10,
              "duration": 0.00625
            },
            {
              "pitch": 82,
              "velocity": 30,
              "position": 10.25,
              "duration": 0.00625
            },
            {
              "pitch": 82,
              "velocity": 80,
              "position": 10.5,
              "duration": 0.00625
            },
            {
              "pitch": 82,
              "velocity": 30,
              "position": 10.75,
              "duration": 0.00625
            },
            {
              "pitch": 82,
              "velocity": 60,
              "position": 11,
              "duration": 0.00625
            },
            {
              "pitch": 82,
              "velocity": 30,
              "position": 11.25,
              "duration": 0.00625
            },
            {
              "pitch": 82,
              "velocity": 80,
              "position": 11.5,
              "duration": 0.00625
            },
            {
              "pitch": 82,
              "velocity": 30,
              "position": 11.75,
              "duration": 0.00625
            },
            {
              "pitch": 82,
              "velocity": 60,
              "position": 12,
              "duration": 0.00625
            },
            {
              "pitch": 82,
              "velocity": 30,
              "position": 12.25,
              "duration": 0.00625
            },
            {
              "pitch": 82,
              "velocity": 80,
              "position": 12.5,
              "duration": 0.00625
            },
            {
              "pitch": 82,
              "velocity": 30,
              "position": 12.75,
              "duration": 0.00625
            },
            {
              "pitch": 82,
              "velocity": 60,
              "position": 13,
              "duration": 0.00625
            },
            {
              "pitch": 82,
              "velocity": 30,
              "position": 13.25,
              "duration": 0.00625
            },
            {
              "pitch": 82,
              "velocity": 80,
              "position": 13.5,
              "duration": 0.00625
            },
            {
              "pitch": 82,
              "velocity": 30,
              "position": 13.75,
              "duration": 0.00625
            },
            {
              "pitch": 82,
              "velocity": 60,
              "position": 14,
              "duration": 0.00625
            },
            {
              "pitch": 82,
              "velocity": 30,
              "position": 14.25,
              "duration": 0.00625
            },
            {
              "pitch": 82,
              "velocity": 80,
              "position": 14.5,
              "duration": 0.00625
            },
            {
              "pitch": 82,
              "velocity": 30,
              "position": 14.75,
              "duration": 0.00625
            },
            {
              "pitch": 82,
              "velocity": 60,
              "position": 15,
              "duration": 0.00625
            },
            {
              "pitch": 82,
              "velocity": 30,
              "position": 15.25,
              "duration": 0.00625
            },
            {
              "pitch": 82,
              "velocity": 80,
              "position": 15.5,
              "duration": 0.00625
            },
            {
              "pitch": 82,
              "velocity": 30,
              "position": 15.75,
              "duration": 0.00625
            }
          ]
        },
        "9": {
          "ctab": {
            "srcChannel": 9,
            "name": "Drs",
            "accType": "RHYTHM",
            "editable": false,
            "mutedNotes": [],
            "mutedChords": [],
            "autoStart": true,
            "sourceChordNote": 0,
            "sourceChordType": "Maj7",
            "ctb2Low": null,
            "ctb2Main": {
              "ntr": "ROOT_FIXED",
              "ntt": "BYPASS",
              "bassOn": false,
              "chordRootUpperLimit": 6,
              "noteLowLimit": 0,
              "noteHighLimit": 127,
              "rtr": "PITCH_SHIFT"
            },
            "ctb2High": null
          },
          "notes": [
            {
              "pitch": 33,
              "velocity": 105,
              "position": 0,
              "duration": 0.00625
            },
            {
              "pitch": 42,
              "velocity": 121,
              "position": 0,
              "duration": 0.00625
            },
            {
              "pitch": 31,
              "velocity": 25,
              "position": 0.2708333333333333,
              "duration": 0.00625
            },
            {
              "pitch": 42,
              "velocity": 55,
              "position": 0.5,
              "duration": 0.00625
            },
            {
              "pitch": 33,
              "velocity": 105,
              "position": 0.7708333333333334,
              "duration": 0.00625
            },
            {
              "pitch": 31,
              "velocity": 125,
              "position": 1,
              "duration": 0.00625
            },
            {
              "pitch": 42,
              "velocity": 121,
              "position": 1,
              "duration": 0.00625
            },
            {
              "pitch": 33,
              "velocity": 105,
              "position": 1.5,
              "duration": 0.00625
            },
            {
              "pitch": 42,
              "velocity": 55,
              "position": 1.5,
              "duration": 0.00625
            },
            {
              "pitch": 31,
              "velocity": 25,
              "position": 1.7708333333333333,
              "duration": 0.00625
            },
            {
              "pitch": 42,
              "velocity": 121,
              "position": 2,
              "duration": 0.00625
            },
            {
              "pitch": 31,
              "velocity": 44,
              "position": 2.2708333333333335,
              "duration": 0.00625
            },
            {
              "pitch": 33,
              "velocity": 105,
              "position": 2.5,
              "duration": 0.00625
            },
            {
              "pitch": 42,
              "velocity": 55,
              "position": 2.5,
              "duration": 0.00625
            },
            {
              "pitch": 31,
              "velocity": 20,
              "position": 2.7708333333333335,
              "duration": 0.00625
            },
            {
              "pitch": 31,
              "velocity": 125,
              "position": 3,
              "duration": 0.00625
            },
            {
              "pitch": 46,
              "velocity": 77,
              "position": 3,
              "duration": 0.00625
            },
            {
              "pitch": 33,
              "velocity": 105,
              "position": 3.2708333333333335,
              "duration": 0.00625
            },
            {
              "pitch": 42,
              "velocity": 104,
              "position": 3.5,
              "duration": 0.00625
            },
            {
              "pitch": 31,
              "velocity": 25,
              "position": 3.7708333333333335,
              "duration": 0.00625
            },
            {
              "pitch": 33,
              "velocity": 105,
              "position": 4,
              "duration": 0.00625
            },
            {
              "pitch": 42,
              "velocity": 121,
              "position": 4,
              "duration": 0.00625
            },
            {
              "pitch": 31,
              "velocity": 25,
              "position": 4.270833333333333,
              "duration": 0.00625
            },
            {
              "pitch": 42,
              "velocity": 55,
              "position": 4.5,
              "duration": 0.00625
            },
            {
              "pitch": 33,
              "velocity": 105,
              "position": 4.770833333333333,
              "duration": 0.00625
            },
            {
              "pitch": 31,
              "velocity": 125,
              "position": 5,
              "duration": 0.00625
            },
            {
              "pitch": 42,
              "velocity": 121,
              "position": 5,
              "duration": 0.00625
            },
            {
              "pitch": 33,
              "velocity": 105,
              "position": 5.5,
              "duration": 0.00625
            },
            {
              "pitch": 42,
              "velocity": 55,
              "position": 5.5,
              "duration": 0.00625
            },
            {
              "pitch": 31,
              "velocity": 25,
              "position": 5.770833333333333,
              "duration": 0.00625
            },
            {
              "pitch": 42,
              "velocity": 121,
              "position": 6,
              "duration": 0.00625
            },
            {
              "pitch": 31,
              "velocity": 44,
              "position": 6.270833333333333,
              "duration": 0.00625
            },
            {
              "pitch": 33,
              "velocity": 105,
              "position": 6.5,
              "duration": 0.00625
            },
            {
              "pitch": 42,
              "velocity": 55,
              "position": 6.5,
              "duration": 0.00625
            },
            {
              "pitch": 31,
              "velocity": 20,
              "position": 6.770833333333333,
              "duration": 0.00625
            },
            {
              "pitch": 31,
              "velocity": 125,
              "position": 7,
              "duration": 0.00625
            },
            {
              "pitch": 46,
              "velocity": 77,
              "position": 7,
              "duration": 0.00625
            },
            {
              "pitch": 31,
              "velocity": 25,
              "position": 7.270833333333333,
              "duration": 0.00625
            },
            {
              "pitch": 42,
              "velocity": 104,
              "position": 7.5,
              "duration": 0.00625
            },
            {
              "pitch": 31,
              "velocity": 25,
              "position": 7.770833333333333,
              "duration": 0.00625
            },
            {
              "pitch": 33,
              "velocity": 105,
              "position": 8,
              "duration": 0.00625
            },
            {
              "pitch": 42,
              "velocity": 121,
              "position": 8,
              "duration": 0.00625
            },
            {
              "pitch": 31,
              "velocity": 25,
              "position": 8.270833333333334,
              "duration": 0.00625
            },
            {
              "pitch": 42,
              "velocity": 55,
              "position": 8.5,
              "duration": 0.00625
            },
            {
              "pitch": 33,
              "velocity": 105,
              "position": 8.770833333333334,
              "duration": 0.00625
            },
            {
              "pitch": 31,
              "velocity": 125,
              "position": 9,
              "duration": 0.00625
            },
            {
              "pitch": 42,
              "velocity": 121,
              "position": 9,
              "duration": 0.00625
            },
            {
              "pitch": 33,
              "velocity": 105,
              "position": 9.5,
              "duration": 0.00625
            },
            {
              "pitch": 42,
              "velocity": 55,
              "position": 9.5,
              "duration": 0.00625
            },
            {
              "pitch": 31,
              "velocity": 25,
              "position": 9.770833333333334,
              "duration": 0.00625
            },
            {
              "pitch": 42,
              "velocity": 121,
              "position": 10,
              "duration": 0.00625
            },
            {
              "pitch": 31,
              "velocity": 44,
              "position": 10.270833333333334,
              "duration": 0.00625
            },
            {
              "pitch": 33,
              "velocity": 105,
              "position": 10.5,
              "duration": 0.00625
            },
            {
              "pitch": 42,
              "velocity": 55,
              "position": 10.5,
              "duration": 0.00625
            },
            {
              "pitch": 31,
              "velocity": 20,
              "position": 10.770833333333334,
              "duration": 0.00625
            },
            {
              "pitch": 31,
              "velocity": 125,
              "position": 11,
              "duration": 0.00625
            },
            {
              "pitch": 46,
              "velocity": 77,
              "position": 11,
              "duration": 0.00625
            },
            {
              "pitch": 33,
              "velocity": 105,
              "position": 11.270833333333334,
              "duration": 0.00625
            },
            {
              "pitch": 42,
              "velocity": 104,
              "position": 11.5,
              "duration": 0.00625
            },
            {
              "pitch": 31,
              "velocity": 25,
              "position": 11.770833333333334,
              "duration": 0.00625
            },
            {
              "pitch": 33,
              "velocity": 105,
              "position": 12,
              "duration": 0.00625
            },
            {
              "pitch": 42,
              "velocity": 121,
              "position": 12,
              "duration": 0.00625
            },
            {
              "pitch": 31,
              "velocity": 25,
              "position": 12.270833333333334,
              "duration": 0.00625
            },
            {
              "pitch": 42,
              "velocity": 55,
              "position": 12.5,
              "duration": 0.00625
            },
            {
              "pitch": 33,
              "velocity": 105,
              "position": 12.770833333333334,
              "duration": 0.00625
            },
            {
              "pitch": 31,
              "velocity": 125,
              "position": 13,
              "duration": 0.00625
            },
            {
              "pitch": 42,
              "velocity": 121,
              "position": 13,
              "duration": 0.00625
            },
            {
              "pitch": 33,
              "velocity": 105,
              "position": 13.5,
              "duration": 0.00625
            },
            {
              "pitch": 42,
              "velocity": 55,
              "position": 13.5,
              "duration": 0.00625
            },
            {
              "pitch": 31,
              "velocity": 25,
              "position": 13.770833333333334,
              "duration": 0.00625
            },
            {
              "pitch": 42,
              "velocity": 121,
              "position": 14,
              "duration": 0.00625
            },
            {
              "pitch": 31,
              "velocity": 44,
              "position": 14.270833333333334,
              "duration": 0.00625
            },
            {
              "pitch": 33,
              "velocity": 105,
              "position": 14.5,
              "duration": 0.00625
            },
            {
              "pitch": 42,
              "velocity": 55,
              "position": 14.5,
              "duration": 0.00625
            },
            {
              "pitch": 31,
              "velocity": 20,
              "position": 14.770833333333334,
              "duration": 0.00625
            },
            {
              "pitch": 31,
              "velocity": 125,
              "position": 15,
              "duration": 0.00625
            },
            {
              "pitch": 46,
              "velocity": 77,
              "position": 15,
              "duration": 0.00625
            },
            {
              "pitch": 31,
              "velocity": 25,
              "position": 15.270833333333334,
              "duration": 0.00625
            },
            {
              "pitch": 46,
              "velocity": 60,
              "position": 15.5,
              "duration": 0.00625
            },
            {
              "pitch": 31,
              "velocity": 25,
              "position": 15.770833333333334,
              "duration": 0.00625
            }
          ]
        },
        "10": {
          "ctab": {
            "srcChannel": 10,
            "name": "Bass S",
            "accType": "BASS",
            "editable": false,
            "mutedNotes": [],
            "mutedChords": [
              "1+2+5",
              "sus4",
              "1+5",
              "1+8",
              "7aug",
              "Maj7aug",
              "7(#9)",
              "7(b13)",
              "7(b9)",
              "7(13)",
              "7#11",
              "7b5",
              "7sus4",
              "dim7",
              "dim",
              "minMaj7(9)",
              "minMaj7",
              "min7(11)",
              "m7b5",
              "min7",
              "min6",
              "aug",
              "Maj6(9)",
              "Maj7(9)",
              "Maj(9)",
              "Maj7#11",
              "Maj7",
              "Maj6"
            ],
            "autoStart": false,
            "sourceChordNote": 0,
            "sourceChordType": "7(9)",
            "ctb2Low": null,
            "ctb2Main": {
              "ntr": "ROOT_TRANSPOSITION",
              "ntt": "MELODIC_MINOR_5",
              "bassOn": true,
              "chordRootUpperLimit": 3,
              "noteLowLimit": 28,
              "noteHighLimit": 127,
              "rtr": "PITCH_SHIFT_TO_ROOT"
            },
            "ctb2High": null
          },
          "notes": [
            {
              "pitch": 36,
              "velocity": 80,
              "position": 0,
              "duration": 0.23541666666666666
            },
            {
              "pitch": 36,
              "velocity": 91,
              "position": 0.25,
              "duration": 0.13125
            },
            {
              "pitch": 36,
              "velocity": 110,
              "position": 0.5,
              "duration": 0.13125
            },
            {
              "pitch": 36,
              "velocity": 80,
              "position": 0.75,
              "duration": 0.23541666666666666
            },
            {
              "pitch": 36,
              "velocity": 110,
              "position": 1.25,
              "duration": 0.13125
            },
            {
              "pitch": 36,
              "velocity": 110,
              "position": 1.5,
              "duration": 0.13125
            },
            {
              "pitch": 43,
              "velocity": 110,
              "position": 1.75,
              "duration": 0.13125
            },
            {
              "pitch": 48,
              "velocity": 80,
              "position": 2,
              "duration": 0.23541666666666666
            },
            {
              "pitch": 48,
              "velocity": 91,
              "position": 2.25,
              "duration": 0.13125
            },
            {
              "pitch": 48,
              "velocity": 80,
              "position": 2.5,
              "duration": 0.48541666666666666
            },
            {
              "pitch": 48,
              "velocity": 110,
              "position": 3,
              "duration": 0.13125
            },
            {
              "pitch": 43,
              "velocity": 110,
              "position": 3.25,
              "duration": 0.13125
            },
            {
              "pitch": 36,
              "velocity": 60,
              "position": 3.5,
              "duration": 0.42291666666666666
            },
            {
              "pitch": 36,
              "velocity": 80,
              "position": 4,
              "duration": 0.23541666666666666
            },
            {
              "pitch": 36,
              "velocity": 91,
              "position": 4.25,
              "duration": 0.13125
            },
            {
              "pitch": 36,
              "velocity": 110,
              "position": 4.5,
              "duration": 0.13125
            },
            {
              "pitch": 36,
              "velocity": 80,
              "position": 4.75,
              "duration": 0.23541666666666666
            },
            {
              "pitch": 36,
              "velocity": 110,
              "position": 5.25,
              "duration": 0.13125
            },
            {
              "pitch": 36,
              "velocity": 110,
              "position": 5.5,
              "duration": 0.13125
            },
            {
              "pitch": 43,
              "velocity": 110,
              "position": 5.75,
              "duration": 0.13125
            },
            {
              "pitch": 48,
              "velocity": 80,
              "position": 6,
              "duration": 0.23541666666666666
            },
            {
              "pitch": 48,
              "velocity": 91,
              "position": 6.25,
              "duration": 0.13125
            },
            {
              "pitch": 48,
              "velocity": 80,
              "position": 6.5,
              "duration": 0.48541666666666666
            },
            {
              "pitch": 48,
              "velocity": 110,
              "position": 7,
              "duration": 0.13125
            },
            {
              "pitch": 43,
              "velocity": 110,
              "position": 7.25,
              "duration": 0.13125
            },
            {
              "pitch": 36,
              "velocity": 60,
              "position": 7.5,
              "duration": 0.42291666666666666
            },
            {
              "pitch": 36,
              "velocity": 80,
              "position": 8,
              "duration": 0.23541666666666666
            },
            {
              "pitch": 36,
              "velocity": 91,
              "position": 8.25,
              "duration": 0.13125
            },
            {
              "pitch": 36,
              "velocity": 110,
              "position": 8.5,
              "duration": 0.13125
            },
            {
              "pitch": 36,
              "velocity": 80,
              "position": 8.75,
              "duration": 0.23541666666666666
            },
            {
              "pitch": 36,
              "velocity": 110,
              "position": 9.25,
              "duration": 0.13125
            },
            {
              "pitch": 36,
              "velocity": 110,
              "position": 9.5,
              "duration": 0.13125
            },
            {
              "pitch": 43,
              "velocity": 110,
              "position": 9.75,
              "duration": 0.13125
            },
            {
              "pitch": 48,
              "velocity": 80,
              "position": 10,
              "duration": 0.23541666666666666
            },
            {
              "pitch": 48,
              "velocity": 91,
              "position": 10.25,
              "duration": 0.13125
            },
            {
              "pitch": 48,
              "velocity": 80,
              "position": 10.5,
              "duration": 0.48541666666666666
            },
            {
              "pitch": 48,
              "velocity": 110,
              "position": 11,
              "duration": 0.13125
            },
            {
              "pitch": 43,
              "velocity": 110,
              "position": 11.25,
              "duration": 0.13125
            },
            {
              "pitch": 36,
              "velocity": 60,
              "position": 11.5,
              "duration": 0.42291666666666666
            },
            {
              "pitch": 36,
              "velocity": 80,
              "position": 12,
              "duration": 0.23541666666666666
            },
            {
              "pitch": 36,
              "velocity": 91,
              "position": 12.25,
              "duration": 0.13125
            },
            {
              "pitch": 36,
              "velocity": 110,
              "position": 12.5,
              "duration": 0.13125
            },
            {
              "pitch": 36,
              "velocity": 80,
              "position": 12.75,
              "duration": 0.23541666666666666
            },
            {
              "pitch": 36,
              "velocity": 110,
              "position": 13.25,
              "duration": 0.13125
            },
            {
              "pitch": 36,
              "velocity": 110,
              "position": 13.5,
              "duration": 0.13125
            },
            {
              "pitch": 43,
              "velocity": 110,
              "position": 13.75,
              "duration": 0.13125
            },
            {
              "pitch": 48,
              "velocity": 80,
              "position": 14,
              "duration": 0.23541666666666666
            },
            {
              "pitch": 48,
              "velocity": 91,
              "position": 14.25,
              "duration": 0.13125
            },
            {
              "pitch": 48,
              "velocity": 80,
              "position": 14.5,
              "duration": 0.48541666666666666
            },
            {
              "pitch": 48,
              "velocity": 110,
              "position": 15,
              "duration": 0.13125
            },
            {
              "pitch": 43,
              "velocity": 110,
              "position": 15.25,
              "duration": 0.13125
            },
            {
              "pitch": 36,
              "velocity": 60,
              "position": 15.5,
              "duration": 0.42291666666666666
            }
          ]
        },
        "11": {
          "ctab": {
            "srcChannel": 11,
            "name": "Gt S",
            "accType": "CHORD1",
            "editable": false,
            "mutedNotes": [],
            "mutedChords": [
              "1+2+5",
              "sus4",
              "1+5",
              "1+8",
              "7aug",
              "Maj7aug",
              "7(#9)",
              "7(b13)",
              "7(b9)",
              "7(13)",
              "7#11",
              "7b5",
              "7sus4",
              "dim7",
              "dim",
              "minMaj7(9)",
              "minMaj7",
              "min7(11)",
              "m7b5",
              "min7",
              "min6",
              "aug",
              "Maj6(9)",
              "Maj7(9)",
              "Maj(9)",
              "Maj7#11",
              "Maj7",
              "Maj6"
            ],
            "autoStart": false,
            "sourceChordNote": 0,
            "sourceChordType": "7(9)",
            "ctb2Low": null,
            "ctb2Main": {
              "ntr": "ROOT_TRANSPOSITION",
              "ntt": "MELODIC_MINOR_5",
              "bassOn": false,
              "chordRootUpperLimit": 7,
              "noteLowLimit": 52,
              "noteHighLimit": 79,
              "rtr": "PITCH_SHIFT"
            },
            "ctb2High": null
          },
          "notes": [
            {
              "pitch": 106,
              "velocity": 80,
              "position": 0,
              "duration": 0.23541666666666666
            },
            {
              "pitch": 62,
              "velocity": 35,
              "position": 0.020833333333333332,
              "duration": 0.21458333333333332
            },
            {
              "pitch": 58,
              "velocity": 35,
              "position": 0.010416666666666666,
              "duration": 0.23541666666666666
            },
            {
              "pitch": 52,
              "velocity": 29,
              "position": 0,
              "duration": 0.25625
            },
            {
              "pitch": 99,
              "velocity": 80,
              "position": 0.25,
              "duration": 0.23541666666666666
            },
            {
              "pitch": 52,
              "velocity": 22,
              "position": 0.2708333333333333,
              "duration": 0.21458333333333332
            },
            {
              "pitch": 58,
              "velocity": 22,
              "position": 0.2604166666666667,
              "duration": 0.23541666666666666
            },
            {
              "pitch": 62,
              "velocity": 22,
              "position": 0.25,
              "duration": 0.25625
            },
            {
              "pitch": 67,
              "velocity": 35,
              "position": 0.03125,
              "duration": 0.48541666666666666
            },
            {
              "pitch": 98,
              "velocity": 80,
              "position": 0.5,
              "duration": 0.23541666666666666
            },
            {
              "pitch": 67,
              "velocity": 29,
              "position": 0.53125,
              "duration": 0.20416666666666666
            },
            {
              "pitch": 62,
              "velocity": 29,
              "position": 0.5208333333333334,
              "duration": 0.225
            },
            {
              "pitch": 58,
              "velocity": 29,
              "position": 0.5104166666666666,
              "duration": 0.24583333333333332
            },
            {
              "pitch": 105,
              "velocity": 80,
              "position": 0.75,
              "duration": 0.23541666666666666
            },
            {
              "pitch": 58,
              "velocity": 35,
              "position": 0.7708333333333334,
              "duration": 0.21458333333333332
            },
            {
              "pitch": 62,
              "velocity": 35,
              "position": 0.7604166666666666,
              "duration": 0.23541666666666666
            },
            {
              "pitch": 67,
              "velocity": 35,
              "position": 0.75,
              "duration": 0.25625
            },
            {
              "pitch": 52,
              "velocity": 29,
              "position": 0.5,
              "duration": 0.50625
            },
            {
              "pitch": 98,
              "velocity": 80,
              "position": 1,
              "duration": 0.23541666666666666
            },
            {
              "pitch": 99,
              "velocity": 80,
              "position": 1.25,
              "duration": 0.23541666666666666
            },
            {
              "pitch": 106,
              "velocity": 80,
              "position": 1.5,
              "duration": 0.23541666666666666
            },
            {
              "pitch": 67,
              "velocity": 35,
              "position": 1.53125,
              "duration": 0.20416666666666666
            },
            {
              "pitch": 62,
              "velocity": 35,
              "position": 1.5208333333333333,
              "duration": 0.21458333333333332
            },
            {
              "pitch": 58,
              "velocity": 35,
              "position": 1.5104166666666667,
              "duration": 0.23541666666666666
            },
            {
              "pitch": 52,
              "velocity": 29,
              "position": 1.5,
              "duration": 0.25625
            },
            {
              "pitch": 99,
              "velocity": 80,
              "position": 1.75,
              "duration": 0.23541666666666666
            },
            {
              "pitch": 98,
              "velocity": 80,
              "position": 2,
              "duration": 0.23541666666666666
            },
            {
              "pitch": 99,
              "velocity": 80,
              "position": 2.25,
              "duration": 0.23541666666666666
            },
            {
              "pitch": 106,
              "velocity": 80,
              "position": 2.5,
              "duration": 0.23541666666666666
            },
            {
              "pitch": 62,
              "velocity": 35,
              "position": 2.5208333333333335,
              "duration": 0.21458333333333332
            },
            {
              "pitch": 58,
              "velocity": 35,
              "position": 2.5104166666666665,
              "duration": 0.23541666666666666
            },
            {
              "pitch": 52,
              "velocity": 29,
              "position": 2.5,
              "duration": 0.25625
            },
            {
              "pitch": 99,
              "velocity": 80,
              "position": 2.75,
              "duration": 0.23541666666666666
            },
            {
              "pitch": 52,
              "velocity": 22,
              "position": 2.7708333333333335,
              "duration": 0.21458333333333332
            },
            {
              "pitch": 58,
              "velocity": 22,
              "position": 2.7604166666666665,
              "duration": 0.23541666666666666
            },
            {
              "pitch": 62,
              "velocity": 22,
              "position": 2.75,
              "duration": 0.25625
            },
            {
              "pitch": 67,
              "velocity": 35,
              "position": 2.53125,
              "duration": 0.48541666666666666
            },
            {
              "pitch": 98,
              "velocity": 80,
              "position": 3,
              "duration": 0.23541666666666666
            },
            {
              "pitch": 67,
              "velocity": 29,
              "position": 3.03125,
              "duration": 0.20416666666666666
            },
            {
              "pitch": 62,
              "velocity": 29,
              "position": 3.0208333333333335,
              "duration": 0.225
            },
            {
              "pitch": 58,
              "velocity": 29,
              "position": 3.0104166666666665,
              "duration": 0.24583333333333332
            },
            {
              "pitch": 105,
              "velocity": 80,
              "position": 3.25,
              "duration": 0.23541666666666666
            },
            {
              "pitch": 58,
              "velocity": 35,
              "position": 3.2708333333333335,
              "duration": 0.21458333333333332
            },
            {
              "pitch": 62,
              "velocity": 35,
              "position": 3.2604166666666665,
              "duration": 0.23541666666666666
            },
            {
              "pitch": 67,
              "velocity": 35,
              "position": 3.25,
              "duration": 0.25625
            },
            {
              "pitch": 52,
              "velocity": 29,
              "position": 3,
              "duration": 0.50625
            },
            {
              "pitch": 98,
              "velocity": 80,
              "position": 3.5,
              "duration": 0.23541666666666666
            },
            {
              "pitch": 99,
              "velocity": 80,
              "position": 3.75,
              "duration": 0.23541666666666666
            },
            {
              "pitch": 106,
              "velocity": 80,
              "position": 4,
              "duration": 0.23541666666666666
            },
            {
              "pitch": 62,
              "velocity": 35,
              "position": 4.020833333333333,
              "duration": 0.21458333333333332
            },
            {
              "pitch": 58,
              "velocity": 35,
              "position": 4.010416666666667,
              "duration": 0.23541666666666666
            },
            {
              "pitch": 52,
              "velocity": 29,
              "position": 4,
              "duration": 0.25625
            },
            {
              "pitch": 99,
              "velocity": 80,
              "position": 4.25,
              "duration": 0.23541666666666666
            },
            {
              "pitch": 52,
              "velocity": 22,
              "position": 4.270833333333333,
              "duration": 0.21458333333333332
            },
            {
              "pitch": 58,
              "velocity": 22,
              "position": 4.260416666666667,
              "duration": 0.23541666666666666
            },
            {
              "pitch": 62,
              "velocity": 22,
              "position": 4.25,
              "duration": 0.25625
            },
            {
              "pitch": 67,
              "velocity": 35,
              "position": 4.03125,
              "duration": 0.48541666666666666
            },
            {
              "pitch": 98,
              "velocity": 80,
              "position": 4.5,
              "duration": 0.23541666666666666
            },
            {
              "pitch": 67,
              "velocity": 29,
              "position": 4.53125,
              "duration": 0.20416666666666666
            },
            {
              "pitch": 62,
              "velocity": 29,
              "position": 4.520833333333333,
              "duration": 0.225
            },
            {
              "pitch": 58,
              "velocity": 29,
              "position": 4.510416666666667,
              "duration": 0.24583333333333332
            },
            {
              "pitch": 105,
              "velocity": 80,
              "position": 4.75,
              "duration": 0.23541666666666666
            },
            {
              "pitch": 58,
              "velocity": 35,
              "position": 4.770833333333333,
              "duration": 0.21458333333333332
            },
            {
              "pitch": 62,
              "velocity": 35,
              "position": 4.760416666666667,
              "duration": 0.23541666666666666
            },
            {
              "pitch": 67,
              "velocity": 35,
              "position": 4.75,
              "duration": 0.25625
            },
            {
              "pitch": 52,
              "velocity": 29,
              "position": 4.5,
              "duration": 0.50625
            },
            {
              "pitch": 98,
              "velocity": 80,
              "position": 5,
              "duration": 0.23541666666666666
            },
            {
              "pitch": 99,
              "velocity": 80,
              "position": 5.25,
              "duration": 0.23541666666666666
            },
            {
              "pitch": 106,
              "velocity": 80,
              "position": 5.5,
              "duration": 0.23541666666666666
            },
            {
              "pitch": 67,
              "velocity": 35,
              "position": 5.53125,
              "duration": 0.20416666666666666
            },
            {
              "pitch": 62,
              "velocity": 35,
              "position": 5.520833333333333,
              "duration": 0.21458333333333332
            },
            {
              "pitch": 58,
              "velocity": 35,
              "position": 5.510416666666667,
              "duration": 0.23541666666666666
            },
            {
              "pitch": 52,
              "velocity": 29,
              "position": 5.5,
              "duration": 0.25625
            },
            {
              "pitch": 99,
              "velocity": 80,
              "position": 5.75,
              "duration": 0.23541666666666666
            },
            {
              "pitch": 98,
              "velocity": 80,
              "position": 6,
              "duration": 0.23541666666666666
            },
            {
              "pitch": 99,
              "velocity": 80,
              "position": 6.25,
              "duration": 0.23541666666666666
            },
            {
              "pitch": 106,
              "velocity": 80,
              "position": 6.5,
              "duration": 0.23541666666666666
            },
            {
              "pitch": 62,
              "velocity": 35,
              "position": 6.520833333333333,
              "duration": 0.21458333333333332
            },
            {
              "pitch": 58,
              "velocity": 35,
              "position": 6.510416666666667,
              "duration": 0.23541666666666666
            },
            {
              "pitch": 52,
              "velocity": 29,
              "position": 6.5,
              "duration": 0.25625
            },
            {
              "pitch": 99,
              "velocity": 80,
              "position": 6.75,
              "duration": 0.23541666666666666
            },
            {
              "pitch": 52,
              "velocity": 22,
              "position": 6.770833333333333,
              "duration": 0.21458333333333332
            },
            {
              "pitch": 58,
              "velocity": 22,
              "position": 6.760416666666667,
              "duration": 0.23541666666666666
            },
            {
              "pitch": 62,
              "velocity": 22,
              "position": 6.75,
              "duration": 0.25625
            },
            {
              "pitch": 67,
              "velocity": 35,
              "position": 6.53125,
              "duration": 0.48541666666666666
            },
            {
              "pitch": 98,
              "velocity": 80,
              "position": 7,
              "duration": 0.23541666666666666
            },
            {
              "pitch": 67,
              "velocity": 29,
              "position": 7.03125,
              "duration": 0.20416666666666666
            },
            {
              "pitch": 62,
              "velocity": 29,
              "position": 7.020833333333333,
              "duration": 0.225
            },
            {
              "pitch": 58,
              "velocity": 29,
              "position": 7.010416666666667,
              "duration": 0.24583333333333332
            },
            {
              "pitch": 105,
              "velocity": 80,
              "position": 7.25,
              "duration": 0.23541666666666666
            },
            {
              "pitch": 58,
              "velocity": 35,
              "position": 7.270833333333333,
              "duration": 0.21458333333333332
            },
            {
              "pitch": 62,
              "velocity": 35,
              "position": 7.260416666666667,
              "duration": 0.23541666666666666
            },
            {
              "pitch": 67,
              "velocity": 35,
              "position": 7.25,
              "duration": 0.25625
            },
            {
              "pitch": 52,
              "velocity": 29,
              "position": 7,
              "duration": 0.50625
            },
            {
              "pitch": 98,
              "velocity": 80,
              "position": 7.5,
              "duration": 0.23541666666666666
            },
            {
              "pitch": 99,
              "velocity": 80,
              "position": 7.75,
              "duration": 0.23541666666666666
            },
            {
              "pitch": 106,
              "velocity": 80,
              "position": 8,
              "duration": 0.23541666666666666
            },
            {
              "pitch": 62,
              "velocity": 35,
              "position": 8.020833333333334,
              "duration": 0.21458333333333332
            },
            {
              "pitch": 58,
              "velocity": 35,
              "position": 8.010416666666666,
              "duration": 0.23541666666666666
            },
            {
              "pitch": 52,
              "velocity": 29,
              "position": 8,
              "duration": 0.25625
            },
            {
              "pitch": 99,
              "velocity": 80,
              "position": 8.25,
              "duration": 0.23541666666666666
            },
            {
              "pitch": 52,
              "velocity": 22,
              "position": 8.270833333333334,
              "duration": 0.21458333333333332
            },
            {
              "pitch": 58,
              "velocity": 22,
              "position": 8.260416666666666,
              "duration": 0.23541666666666666
            },
            {
              "pitch": 62,
              "velocity": 22,
              "position": 8.25,
              "duration": 0.25625
            },
            {
              "pitch": 67,
              "velocity": 35,
              "position": 8.03125,
              "duration": 0.48541666666666666
            },
            {
              "pitch": 98,
              "velocity": 80,
              "position": 8.5,
              "duration": 0.23541666666666666
            },
            {
              "pitch": 67,
              "velocity": 29,
              "position": 8.53125,
              "duration": 0.20416666666666666
            },
            {
              "pitch": 62,
              "velocity": 29,
              "position": 8.520833333333334,
              "duration": 0.225
            },
            {
              "pitch": 58,
              "velocity": 29,
              "position": 8.510416666666666,
              "duration": 0.24583333333333332
            },
            {
              "pitch": 105,
              "velocity": 80,
              "position": 8.75,
              "duration": 0.23541666666666666
            },
            {
              "pitch": 58,
              "velocity": 35,
              "position": 8.770833333333334,
              "duration": 0.21458333333333332
            },
            {
              "pitch": 62,
              "velocity": 35,
              "position": 8.760416666666666,
              "duration": 0.23541666666666666
            },
            {
              "pitch": 67,
              "velocity": 35,
              "position": 8.75,
              "duration": 0.25625
            },
            {
              "pitch": 52,
              "velocity": 29,
              "position": 8.5,
              "duration": 0.50625
            },
            {
              "pitch": 98,
              "velocity": 80,
              "position": 9,
              "duration": 0.23541666666666666
            },
            {
              "pitch": 99,
              "velocity": 80,
              "position": 9.25,
              "duration": 0.23541666666666666
            },
            {
              "pitch": 106,
              "velocity": 80,
              "position": 9.5,
              "duration": 0.23541666666666666
            },
            {
              "pitch": 67,
              "velocity": 35,
              "position": 9.53125,
              "duration": 0.20416666666666666
            },
            {
              "pitch": 62,
              "velocity": 35,
              "position": 9.520833333333334,
              "duration": 0.21458333333333332
            },
            {
              "pitch": 58,
              "velocity": 35,
              "position": 9.510416666666666,
              "duration": 0.23541666666666666
            },
            {
              "pitch": 52,
              "velocity": 29,
              "position": 9.5,
              "duration": 0.25625
            },
            {
              "pitch": 99,
              "velocity": 80,
              "position": 9.75,
              "duration": 0.23541666666666666
            },
            {
              "pitch": 98,
              "velocity": 80,
              "position": 10,
              "duration": 0.23541666666666666
            },
            {
              "pitch": 99,
              "velocity": 80,
              "position": 10.25,
              "duration": 0.23541666666666666
            },
            {
              "pitch": 106,
              "velocity": 80,
              "position": 10.5,
              "duration": 0.23541666666666666
            },
            {
              "pitch": 62,
              "velocity": 35,
              "position": 10.520833333333334,
              "duration": 0.21458333333333332
            },
            {
              "pitch": 58,
              "velocity": 35,
              "position": 10.510416666666666,
              "duration": 0.23541666666666666
            },
            {
              "pitch": 52,
              "velocity": 29,
              "position": 10.5,
              "duration": 0.25625
            },
            {
              "pitch": 99,
              "velocity": 80,
              "position": 10.75,
              "duration": 0.23541666666666666
            },
            {
              "pitch": 52,
              "velocity": 22,
              "position": 10.770833333333334,
              "duration": 0.21458333333333332
            },
            {
              "pitch": 58,
              "velocity": 22,
              "position": 10.760416666666666,
              "duration": 0.23541666666666666
            },
            {
              "pitch": 62,
              "velocity": 22,
              "position": 10.75,
              "duration": 0.25625
            },
            {
              "pitch": 67,
              "velocity": 35,
              "position": 10.53125,
              "duration": 0.48541666666666666
            },
            {
              "pitch": 98,
              "velocity": 80,
              "position": 11,
              "duration": 0.23541666666666666
            },
            {
              "pitch": 67,
              "velocity": 29,
              "position": 11.03125,
              "duration": 0.20416666666666666
            },
            {
              "pitch": 62,
              "velocity": 29,
              "position": 11.020833333333334,
              "duration": 0.225
            },
            {
              "pitch": 58,
              "velocity": 29,
              "position": 11.010416666666666,
              "duration": 0.24583333333333332
            },
            {
              "pitch": 105,
              "velocity": 80,
              "position": 11.25,
              "duration": 0.23541666666666666
            },
            {
              "pitch": 58,
              "velocity": 35,
              "position": 11.270833333333334,
              "duration": 0.21458333333333332
            },
            {
              "pitch": 62,
              "velocity": 35,
              "position": 11.260416666666666,
              "duration": 0.23541666666666666
            },
            {
              "pitch": 67,
              "velocity": 35,
              "position": 11.25,
              "duration": 0.25625
            },
            {
              "pitch": 52,
              "velocity": 29,
              "position": 11,
              "duration": 0.50625
            },
            {
              "pitch": 98,
              "velocity": 80,
              "position": 11.5,
              "duration": 0.23541666666666666
            },
            {
              "pitch": 99,
              "velocity": 80,
              "position": 11.75,
              "duration": 0.23541666666666666
            },
            {
              "pitch": 106,
              "velocity": 80,
              "position": 12,
              "duration": 0.23541666666666666
            },
            {
              "pitch": 62,
              "velocity": 35,
              "position": 12.020833333333334,
              "duration": 0.21458333333333332
            },
            {
              "pitch": 58,
              "velocity": 35,
              "position": 12.010416666666666,
              "duration": 0.23541666666666666
            },
            {
              "pitch": 52,
              "velocity": 29,
              "position": 12,
              "duration": 0.25625
            },
            {
              "pitch": 99,
              "velocity": 80,
              "position": 12.25,
              "duration": 0.23541666666666666
            },
            {
              "pitch": 52,
              "velocity": 22,
              "position": 12.270833333333334,
              "duration": 0.21458333333333332
            },
            {
              "pitch": 58,
              "velocity": 22,
              "position": 12.260416666666666,
              "duration": 0.23541666666666666
            },
            {
              "pitch": 62,
              "velocity": 22,
              "position": 12.25,
              "duration": 0.25625
            },
            {
              "pitch": 67,
              "velocity": 35,
              "position": 12.03125,
              "duration": 0.48541666666666666
            },
            {
              "pitch": 98,
              "velocity": 80,
              "position": 12.5,
              "duration": 0.23541666666666666
            },
            {
              "pitch": 67,
              "velocity": 29,
              "position": 12.53125,
              "duration": 0.20416666666666666
            },
            {
              "pitch": 62,
              "velocity": 29,
              "position": 12.520833333333334,
              "duration": 0.225
            },
            {
              "pitch": 58,
              "velocity": 29,
              "position": 12.510416666666666,
              "duration": 0.24583333333333332
            },
            {
              "pitch": 105,
              "velocity": 80,
              "position": 12.75,
              "duration": 0.23541666666666666
            },
            {
              "pitch": 58,
              "velocity": 35,
              "position": 12.770833333333334,
              "duration": 0.21458333333333332
            },
            {
              "pitch": 62,
              "velocity": 35,
              "position": 12.760416666666666,
              "duration": 0.23541666666666666
            },
            {
              "pitch": 67,
              "velocity": 35,
              "position": 12.75,
              "duration": 0.25625
            },
            {
              "pitch": 52,
              "velocity": 29,
              "position": 12.5,
              "duration": 0.50625
            },
            {
              "pitch": 98,
              "velocity": 80,
              "position": 13,
              "duration": 0.23541666666666666
            },
            {
              "pitch": 99,
              "velocity": 80,
              "position": 13.25,
              "duration": 0.23541666666666666
            },
            {
              "pitch": 106,
              "velocity": 80,
              "position": 13.5,
              "duration": 0.23541666666666666
            },
            {
              "pitch": 67,
              "velocity": 35,
              "position": 13.53125,
              "duration": 0.20416666666666666
            },
            {
              "pitch": 62,
              "velocity": 35,
              "position": 13.520833333333334,
              "duration": 0.21458333333333332
            },
            {
              "pitch": 58,
              "velocity": 35,
              "position": 13.510416666666666,
              "duration": 0.23541666666666666
            },
            {
              "pitch": 52,
              "velocity": 29,
              "position": 13.5,
              "duration": 0.25625
            },
            {
              "pitch": 99,
              "velocity": 80,
              "position": 13.75,
              "duration": 0.23541666666666666
            },
            {
              "pitch": 98,
              "velocity": 80,
              "position": 14,
              "duration": 0.23541666666666666
            },
            {
              "pitch": 99,
              "velocity": 80,
              "position": 14.25,
              "duration": 0.23541666666666666
            },
            {
              "pitch": 106,
              "velocity": 80,
              "position": 14.5,
              "duration": 0.23541666666666666
            },
            {
              "pitch": 62,
              "velocity": 35,
              "position": 14.520833333333334,
              "duration": 0.21458333333333332
            },
            {
              "pitch": 58,
              "velocity": 35,
              "position": 14.510416666666666,
              "duration": 0.23541666666666666
            },
            {
              "pitch": 52,
              "velocity": 29,
              "position": 14.5,
              "duration": 0.25625
            },
            {
              "pitch": 99,
              "velocity": 80,
              "position": 14.75,
              "duration": 0.23541666666666666
            },
            {
              "pitch": 52,
              "velocity": 22,
              "position": 14.770833333333334,
              "duration": 0.21458333333333332
            },
            {
              "pitch": 58,
              "velocity": 22,
              "position": 14.760416666666666,
              "duration": 0.23541666666666666
            },
            {
              "pitch": 62,
              "velocity": 22,
              "position": 14.75,
              "duration": 0.25625
            },
            {
              "pitch": 67,
              "velocity": 35,
              "position": 14.53125,
              "duration": 0.48541666666666666
            },
            {
              "pitch": 98,
              "velocity": 80,
              "position": 15,
              "duration": 0.23541666666666666
            },
            {
              "pitch": 67,
              "velocity": 29,
              "position": 15.03125,
              "duration": 0.20416666666666666
            },
            {
              "pitch": 62,
              "velocity": 29,
              "position": 15.020833333333334,
              "duration": 0.225
            },
            {
              "pitch": 58,
              "velocity": 29,
              "position": 15.010416666666666,
              "duration": 0.24583333333333332
            },
            {
              "pitch": 105,
              "velocity": 80,
              "position": 15.25,
              "duration": 0.23541666666666666
            },
            {
              "pitch": 58,
              "velocity": 35,
              "position": 15.270833333333334,
              "duration": 0.21458333333333332
            },
            {
              "pitch": 62,
              "velocity": 35,
              "position": 15.260416666666666,
              "duration": 0.23541666666666666
            },
            {
              "pitch": 67,
              "velocity": 35,
              "position": 15.25,
              "duration": 0.25625
            },
            {
              "pitch": 52,
              "velocity": 29,
              "position": 15,
              "duration": 0.50625
            },
            {
              "pitch": 98,
              "velocity": 80,
              "position": 15.5,
              "duration": 0.23541666666666666
            },
            {
              "pitch": 99,
              "velocity": 80,
              "position": 15.75,
              "duration": 0.23541666666666666
            }
          ]
        },
        "12": {
          "ctab": {
            "srcChannel": 12,
            "name": "Org S",
            "accType": "CHORD2",
            "editable": false,
            "mutedNotes": [],
            "mutedChords": [
              "1+2+5",
              "sus4",
              "1+5",
              "1+8",
              "7aug",
              "Maj7aug",
              "7(b13)",
              "7(b9)",
              "7(13)",
              "7#11",
              "7(9)",
              "7b5",
              "7sus4",
              "dim7",
              "dim",
              "minMaj7(9)",
              "minMaj7",
              "min7(11)",
              "min7(9)",
              "min(9)",
              "m7b5",
              "min7",
              "min6",
              "min",
              "aug",
              "Maj6(9)",
              "Maj7(9)",
              "Maj(9)",
              "Maj7#11",
              "Maj7",
              "Maj6"
            ],
            "autoStart": false,
            "sourceChordNote": 0,
            "sourceChordType": "7(9)",
            "ctb2Low": null,
            "ctb2Main": {
              "ntr": "ROOT_TRANSPOSITION",
              "ntt": "BYPASS",
              "bassOn": false,
              "chordRootUpperLimit": 7,
              "noteLowLimit": 54,
              "noteHighLimit": 77,
              "rtr": "PITCH_SHIFT"
            },
            "ctb2High": null
          },
          "notes": [
            {
              "pitch": 70,
              "velocity": 53,
              "position": 4.910416666666666,
              "duration": 0.22291666666666668
            },
            {
              "pitch": 64,
              "velocity": 57,
              "position": 7,
              "duration": 0.8375
            },
            {
              "pitch": 72,
              "velocity": 71,
              "position": 5,
              "duration": 2.8666666666666667
            },
            {
              "pitch": 70,
              "velocity": 60,
              "position": 6,
              "duration": 1.8666666666666667
            },
            {
              "pitch": 70,
              "velocity": 99,
              "position": 12.516666666666667,
              "duration": 0.09791666666666667
            },
            {
              "pitch": 64,
              "velocity": 78,
              "position": 12.51875,
              "duration": 0.1125
            },
            {
              "pitch": 75,
              "velocity": 95,
              "position": 12.516666666666667,
              "duration": 0.12708333333333333
            },
            {
              "pitch": 64,
              "velocity": 71,
              "position": 12.76875,
              "duration": 0.11458333333333333
            },
            {
              "pitch": 70,
              "velocity": 77,
              "position": 12.8,
              "duration": 0.0875
            },
            {
              "pitch": 75,
              "velocity": 78,
              "position": 12.76875,
              "duration": 0.125
            },
            {
              "pitch": 64,
              "velocity": 72,
              "position": 13.2625,
              "duration": 0.08333333333333333
            },
            {
              "pitch": 70,
              "velocity": 96,
              "position": 13.2625,
              "duration": 0.08958333333333333
            },
            {
              "pitch": 75,
              "velocity": 95,
              "position": 13.260416666666666,
              "duration": 0.12083333333333333
            },
            {
              "pitch": 64,
              "velocity": 91,
              "position": 13.7625,
              "duration": 0.1
            },
            {
              "pitch": 70,
              "velocity": 99,
              "position": 13.7625,
              "duration": 0.10416666666666667
            },
            {
              "pitch": 75,
              "velocity": 93,
              "position": 13.764583333333333,
              "duration": 0.12083333333333333
            },
            {
              "pitch": 64,
              "velocity": 93,
              "position": 14.2625,
              "duration": 0.09375
            },
            {
              "pitch": 70,
              "velocity": 103,
              "position": 14.2625,
              "duration": 0.09375
            },
            {
              "pitch": 75,
              "velocity": 95,
              "position": 14.2625,
              "duration": 0.11875
            },
            {
              "pitch": 64,
              "velocity": 95,
              "position": 15.010416666666666,
              "duration": 0.3875
            },
            {
              "pitch": 70,
              "velocity": 103,
              "position": 15.008333333333333,
              "duration": 0.4
            },
            {
              "pitch": 75,
              "velocity": 97,
              "position": 15.010416666666666,
              "duration": 0.4
            }
          ]
        },
        "13": {
          "ctab": {
            "srcChannel": 13,
            "name": "Tpt S",
            "accType": "PAD",
            "editable": false,
            "mutedNotes": [],
            "mutedChords": [
              "1+2+5",
              "sus4",
              "1+5",
              "1+8",
              "7aug",
              "Maj7aug",
              "7(#9)",
              "7(b13)",
              "7(b9)",
              "7(13)",
              "7#11",
              "7b5",
              "7sus4",
              "dim7",
              "dim",
              "minMaj7(9)",
              "minMaj7",
              "min7(11)",
              "m7b5",
              "min7",
              "min6",
              "aug",
              "Maj6(9)",
              "Maj7(9)",
              "Maj(9)",
              "Maj7#11",
              "Maj7",
              "Maj6"
            ],
            "autoStart": false,
            "sourceChordNote": 0,
            "sourceChordType": "7(9)",
            "ctb2Low": null,
            "ctb2Main": {
              "ntr": "ROOT_TRANSPOSITION",
              "ntt": "MELODIC_MINOR_5",
              "bassOn": false,
              "chordRootUpperLimit": 2,
              "noteLowLimit": 0,
              "noteHighLimit": 127,
              "rtr": "PITCH_SHIFT"
            },
            "ctb2High": null
          },
          "notes": [
            {
              "pitch": 73,
              "velocity": 78,
              "position": 0.5,
              "duration": 0.46458333333333335
            },
            {
              "pitch": 78,
              "velocity": 84,
              "position": 0.5,
              "duration": 0.475
            },
            {
              "pitch": 79,
              "velocity": 84,
              "position": 1,
              "duration": 0.1625
            },
            {
              "pitch": 74,
              "velocity": 78,
              "position": 1,
              "duration": 0.18333333333333332
            },
            {
              "pitch": 79,
              "velocity": 84,
              "position": 2.4895833333333335,
              "duration": 0.18333333333333332
            },
            {
              "pitch": 74,
              "velocity": 78,
              "position": 2.5,
              "duration": 0.19375
            },
            {
              "pitch": 74,
              "velocity": 78,
              "position": 4,
              "duration": 0.18333333333333332
            },
            {
              "pitch": 79,
              "velocity": 84,
              "position": 4.010416666666667,
              "duration": 0.17291666666666666
            },
            {
              "pitch": 79,
              "velocity": 84,
              "position": 8.989583333333334,
              "duration": 0.19375
            },
            {
              "pitch": 74,
              "velocity": 78,
              "position": 9,
              "duration": 0.19375
            },
            {
              "pitch": 79,
              "velocity": 84,
              "position": 10.5,
              "duration": 0.17291666666666666
            },
            {
              "pitch": 74,
              "velocity": 78,
              "position": 10.5,
              "duration": 0.19375
            },
            {
              "pitch": 74,
              "velocity": 78,
              "position": 12.010416666666666,
              "duration": 0.1625
            },
            {
              "pitch": 79,
              "velocity": 84,
              "position": 12,
              "duration": 0.18333333333333332
            }
          ]
        },
        "14": {
          "ctab": {
            "srcChannel": 14,
            "name": "Sax S",
            "accType": "PHRASE1",
            "editable": false,
            "mutedNotes": [],
            "mutedChords": [
              "1+2+5",
              "sus4",
              "1+5",
              "1+8",
              "7aug",
              "Maj7aug",
              "7(#9)",
              "7(b13)",
              "7(b9)",
              "7(13)",
              "7#11",
              "7b5",
              "7sus4",
              "dim7",
              "dim",
              "minMaj7(9)",
              "minMaj7",
              "min7(11)",
              "m7b5",
              "min7",
              "min6",
              "aug",
              "Maj6(9)",
              "Maj7(9)",
              "Maj(9)",
              "Maj7#11",
              "Maj7",
              "Maj6"
            ],
            "autoStart": false,
            "sourceChordNote": 0,
            "sourceChordType": "7(9)",
            "ctb2Low": null,
            "ctb2Main": {
              "ntr": "ROOT_TRANSPOSITION",
              "ntt": "MELODIC_MINOR_5",
              "bassOn": false,
              "chordRootUpperLimit": 7,
              "noteLowLimit": 0,
              "noteHighLimit": 127,
              "rtr": "PITCH_SHIFT"
            },
            "ctb2High": null
          },
          "notes": [
            {
              "pitch": 63,
              "velocity": 122,
              "position": 0.4895833333333333,
              "duration": 0.475
            },
            {
              "pitch": 69,
              "velocity": 94,
              "position": 0.5,
              "duration": 0.48541666666666666
            },
            {
              "pitch": 64,
              "velocity": 87,
              "position": 0.9895833333333334,
              "duration": 0.1625
            },
            {
              "pitch": 70,
              "velocity": 68,
              "position": 1,
              "duration": 0.19375
            },
            {
              "pitch": 70,
              "velocity": 99,
              "position": 2.5,
              "duration": 0.17291666666666666
            },
            {
              "pitch": 64,
              "velocity": 120,
              "position": 2.5,
              "duration": 0.18333333333333332
            },
            {
              "pitch": 64,
              "velocity": 117,
              "position": 4,
              "duration": 0.18333333333333332
            },
            {
              "pitch": 70,
              "velocity": 100,
              "position": 4,
              "duration": 0.18333333333333332
            },
            {
              "pitch": 64,
              "velocity": 123,
              "position": 8.989583333333334,
              "duration": 0.1625
            },
            {
              "pitch": 70,
              "velocity": 100,
              "position": 8.989583333333334,
              "duration": 0.19375
            },
            {
              "pitch": 64,
              "velocity": 122,
              "position": 10.5,
              "duration": 0.1625
            },
            {
              "pitch": 70,
              "velocity": 98,
              "position": 10.5,
              "duration": 0.1625
            },
            {
              "pitch": 70,
              "velocity": 95,
              "position": 12,
              "duration": 0.17291666666666666
            },
            {
              "pitch": 64,
              "velocity": 113,
              "position": 12,
              "duration": 0.19375
            }
          ]
        },
        "15": {
          "ctab": {
            "srcChannel": 15,
            "name": "Bari S",
            "accType": "PHRASE2",
            "editable": false,
            "mutedNotes": [],
            "mutedChords": [
              "1+2+5",
              "sus4",
              "1+5",
              "1+8",
              "7aug",
              "Maj7aug",
              "7(#9)",
              "7(b13)",
              "7(b9)",
              "7(13)",
              "7#11",
              "7b5",
              "7sus4",
              "dim7",
              "dim",
              "minMaj7(9)",
              "minMaj7",
              "min7(11)",
              "m7b5",
              "min7",
              "min6",
              "aug",
              "Maj6(9)",
              "Maj7(9)",
              "Maj(9)",
              "Maj7#11",
              "Maj7",
              "Maj6"
            ],
            "autoStart": false,
            "sourceChordNote": 0,
            "sourceChordType": "7(9)",
            "ctb2Low": null,
            "ctb2Main": {
              "ntr": "ROOT_TRANSPOSITION",
              "ntt": "MELODIC_MINOR_5",
              "bassOn": true,
              "chordRootUpperLimit": 3,
              "noteLowLimit": 33,
              "noteHighLimit": 127,
              "rtr": "PITCH_SHIFT_TO_ROOT"
            },
            "ctb2High": null
          },
          "notes": [
            {
              "pitch": 36,
              "velocity": 116,
              "position": 0,
              "duration": 0.23541666666666666
            },
            {
              "pitch": 47,
              "velocity": 90,
              "position": 0.4895833333333333,
              "duration": 0.46458333333333335
            },
            {
              "pitch": 48,
              "velocity": 56,
              "position": 1,
              "duration": 0.18333333333333332
            },
            {
              "pitch": 36,
              "velocity": 122,
              "position": 1.4895833333333333,
              "duration": 0.23541666666666666
            },
            {
              "pitch": 48,
              "velocity": 80,
              "position": 2.5,
              "duration": 0.24583333333333332
            },
            {
              "pitch": 36,
              "velocity": 116,
              "position": 3,
              "duration": 0.25625
            },
            {
              "pitch": 48,
              "velocity": 92,
              "position": 4,
              "duration": 0.24583333333333332
            },
            {
              "pitch": 48,
              "velocity": 80,
              "position": 8.989583333333334,
              "duration": 0.17291666666666666
            },
            {
              "pitch": 36,
              "velocity": 118,
              "position": 9.510416666666666,
              "duration": 0.23541666666666666
            },
            {
              "pitch": 48,
              "velocity": 80,
              "position": 10.5,
              "duration": 0.23541666666666666
            },
            {
              "pitch": 36,
              "velocity": 116,
              "position": 11,
              "duration": 0.23541666666666666
            },
            {
              "pitch": 48,
              "velocity": 93,
              "position": 12,
              "duration": 0.24583333333333332
            }
          ]
        }
      }
    },
    "Fill_In_CC": {
      "type": "Fill_In_CC",
      "sizeInBeats": 4,
      "channels": {
        "1": {
          "ctab": {
            "srcChannel": 1,
            "name": "Bass P",
            "accType": "BASS",
            "editable": false,
            "mutedNotes": [],
            "mutedChords": [
              "7(9)",
              "7th",
              "min7(9)",
              "min(9)",
              "min",
              "Maj"
            ],
            "autoStart": false,
            "sourceChordNote": 0,
            "sourceChordType": "Maj7",
            "ctb2Low": null,
            "ctb2Main": {
              "ntr": "ROOT_TRANSPOSITION",
              "ntt": "MELODY",
              "bassOn": true,
              "chordRootUpperLimit": 3,
              "noteLowLimit": 28,
              "noteHighLimit": 127,
              "rtr": "PITCH_SHIFT_TO_ROOT"
            },
            "ctb2High": null
          },
          "notes": [
            {
              "pitch": 36,
              "velocity": 80,
              "position": 0,
              "duration": 0.23541666666666666
            },
            {
              "pitch": 36,
              "velocity": 91,
              "position": 0.25,
              "duration": 0.13125
            },
            {
              "pitch": 36,
              "velocity": 110,
              "position": 0.5,
              "duration": 0.13125
            },
            {
              "pitch": 36,
              "velocity": 80,
              "position": 0.75,
              "duration": 0.23541666666666666
            },
            {
              "pitch": 36,
              "velocity": 110,
              "position": 1.25,
              "duration": 0.13125
            },
            {
              "pitch": 36,
              "velocity": 110,
              "position": 1.5,
              "duration": 0.13125
            },
            {
              "pitch": 36,
              "velocity": 80,
              "position": 1.75,
              "duration": 0.23541666666666666
            },
            {
              "pitch": 36,
              "velocity": 110,
              "position": 2,
              "duration": 0.13125
            },
            {
              "pitch": 36,
              "velocity": 110,
              "position": 2.25,
              "duration": 0.13125
            },
            {
              "pitch": 40,
              "velocity": 80,
              "position": 2.5,
              "duration": 0.13125
            },
            {
              "pitch": 40,
              "velocity": 70,
              "position": 2.75,
              "duration": 0.13125
            },
            {
              "pitch": 43,
              "velocity": 80,
              "position": 3,
              "duration": 0.13125
            },
            {
              "pitch": 43,
              "velocity": 70,
              "position": 3.25,
              "duration": 0.13125
            },
            {
              "pitch": 45,
              "velocity": 80,
              "position": 3.5,
              "duration": 0.23541666666666666
            },
            {
              "pitch": 48,
              "velocity": 60,
              "position": 3.75,
              "duration": 0.23541666666666666
            }
          ]
        },
        "2": {
          "ctab": {
            "srcChannel": 2,
            "name": "Gt P",
            "accType": "CHORD1",
            "editable": false,
            "mutedNotes": [],
            "mutedChords": [
              "7(9)",
              "7th",
              "min7(9)",
              "min(9)",
              "min",
              "Maj"
            ],
            "autoStart": false,
            "sourceChordNote": 0,
            "sourceChordType": "Maj7",
            "ctb2Low": null,
            "ctb2Main": {
              "ntr": "ROOT_TRANSPOSITION",
              "ntt": "MELODY",
              "bassOn": false,
              "chordRootUpperLimit": 7,
              "noteLowLimit": 0,
              "noteHighLimit": 127,
              "rtr": "PITCH_SHIFT"
            },
            "ctb2High": null
          },
          "notes": [
            {
              "pitch": 64,
              "velocity": 35,
              "position": 0.020833333333333332,
              "duration": 0.21458333333333332
            },
            {
              "pitch": 60,
              "velocity": 35,
              "position": 0.010416666666666666,
              "duration": 0.23541666666666666
            },
            {
              "pitch": 55,
              "velocity": 29,
              "position": 0,
              "duration": 0.25625
            },
            {
              "pitch": 59,
              "velocity": 29,
              "position": 0,
              "duration": 0.25625
            },
            {
              "pitch": 55,
              "velocity": 22,
              "position": 0.2708333333333333,
              "duration": 0.21458333333333332
            },
            {
              "pitch": 59,
              "velocity": 22,
              "position": 0.2708333333333333,
              "duration": 0.21458333333333332
            },
            {
              "pitch": 60,
              "velocity": 22,
              "position": 0.2604166666666667,
              "duration": 0.23541666666666666
            },
            {
              "pitch": 64,
              "velocity": 22,
              "position": 0.25,
              "duration": 0.25625
            },
            {
              "pitch": 67,
              "velocity": 35,
              "position": 0.03125,
              "duration": 0.48541666666666666
            },
            {
              "pitch": 71,
              "velocity": 35,
              "position": 0.03125,
              "duration": 0.48541666666666666
            },
            {
              "pitch": 67,
              "velocity": 29,
              "position": 0.53125,
              "duration": 0.20416666666666666
            },
            {
              "pitch": 71,
              "velocity": 29,
              "position": 0.53125,
              "duration": 0.20416666666666666
            },
            {
              "pitch": 64,
              "velocity": 29,
              "position": 0.5208333333333334,
              "duration": 0.225
            },
            {
              "pitch": 60,
              "velocity": 29,
              "position": 0.5104166666666666,
              "duration": 0.24583333333333332
            },
            {
              "pitch": 60,
              "velocity": 35,
              "position": 0.7708333333333334,
              "duration": 0.21458333333333332
            },
            {
              "pitch": 64,
              "velocity": 35,
              "position": 0.7604166666666666,
              "duration": 0.23541666666666666
            },
            {
              "pitch": 67,
              "velocity": 35,
              "position": 0.75,
              "duration": 0.25625
            },
            {
              "pitch": 71,
              "velocity": 35,
              "position": 0.75,
              "duration": 0.25625
            },
            {
              "pitch": 55,
              "velocity": 29,
              "position": 0.5,
              "duration": 0.50625
            },
            {
              "pitch": 59,
              "velocity": 29,
              "position": 0.5,
              "duration": 0.50625
            },
            {
              "pitch": 67,
              "velocity": 35,
              "position": 1.53125,
              "duration": 0.20416666666666666
            },
            {
              "pitch": 71,
              "velocity": 35,
              "position": 1.53125,
              "duration": 0.20416666666666666
            },
            {
              "pitch": 64,
              "velocity": 35,
              "position": 1.5208333333333333,
              "duration": 0.21458333333333332
            },
            {
              "pitch": 60,
              "velocity": 35,
              "position": 1.5104166666666667,
              "duration": 0.23541666666666666
            },
            {
              "pitch": 55,
              "velocity": 29,
              "position": 1.5,
              "duration": 0.25625
            },
            {
              "pitch": 59,
              "velocity": 29,
              "position": 1.5,
              "duration": 0.25625
            },
            {
              "pitch": 64,
              "velocity": 35,
              "position": 2.5208333333333335,
              "duration": 0.21458333333333332
            },
            {
              "pitch": 60,
              "velocity": 35,
              "position": 2.5104166666666665,
              "duration": 0.23541666666666666
            },
            {
              "pitch": 55,
              "velocity": 29,
              "position": 2.5,
              "duration": 0.25625
            },
            {
              "pitch": 59,
              "velocity": 29,
              "position": 2.5,
              "duration": 0.25625
            },
            {
              "pitch": 55,
              "velocity": 22,
              "position": 2.7708333333333335,
              "duration": 0.21458333333333332
            },
            {
              "pitch": 59,
              "velocity": 22,
              "position": 2.7708333333333335,
              "duration": 0.21458333333333332
            },
            {
              "pitch": 60,
              "velocity": 22,
              "position": 2.7604166666666665,
              "duration": 0.23541666666666666
            },
            {
              "pitch": 64,
              "velocity": 22,
              "position": 2.75,
              "duration": 0.25625
            },
            {
              "pitch": 67,
              "velocity": 35,
              "position": 2.53125,
              "duration": 0.48541666666666666
            },
            {
              "pitch": 71,
              "velocity": 35,
              "position": 2.53125,
              "duration": 0.48541666666666666
            },
            {
              "pitch": 67,
              "velocity": 29,
              "position": 3.03125,
              "duration": 0.20416666666666666
            },
            {
              "pitch": 71,
              "velocity": 29,
              "position": 3.03125,
              "duration": 0.20416666666666666
            },
            {
              "pitch": 64,
              "velocity": 29,
              "position": 3.0208333333333335,
              "duration": 0.225
            },
            {
              "pitch": 60,
              "velocity": 29,
              "position": 3.0104166666666665,
              "duration": 0.24583333333333332
            },
            {
              "pitch": 60,
              "velocity": 35,
              "position": 3.2708333333333335,
              "duration": 0.21458333333333332
            },
            {
              "pitch": 64,
              "velocity": 35,
              "position": 3.2604166666666665,
              "duration": 0.23541666666666666
            },
            {
              "pitch": 67,
              "velocity": 35,
              "position": 3.25,
              "duration": 0.25625
            },
            {
              "pitch": 71,
              "velocity": 35,
              "position": 3.25,
              "duration": 0.25625
            },
            {
              "pitch": 55,
              "velocity": 29,
              "position": 3,
              "duration": 0.50625
            },
            {
              "pitch": 59,
              "velocity": 29,
              "position": 3,
              "duration": 0.50625
            }
          ]
        },
        "3": {
          "ctab": {
            "srcChannel": 3,
            "name": "Org P",
            "accType": "CHORD2",
            "editable": false,
            "mutedNotes": [],
            "mutedChords": [
              "7(#9)",
              "7th",
              "Maj"
            ],
            "autoStart": false,
            "sourceChordNote": 0,
            "sourceChordType": "Maj7",
            "ctb2Low": null,
            "ctb2Main": {
              "ntr": "ROOT_FIXED",
              "ntt": "CHORD",
              "bassOn": false,
              "chordRootUpperLimit": 7,
              "noteLowLimit": 0,
              "noteHighLimit": 127,
              "rtr": "PITCH_SHIFT"
            },
            "ctb2High": null
          },
          "notes": [
            {
              "pitch": 71,
              "velocity": 101,
              "position": 0,
              "duration": 0.11041666666666666
            },
            {
              "pitch": 76,
              "velocity": 99,
              "position": 0,
              "duration": 0.1125
            },
            {
              "pitch": 71,
              "velocity": 94,
              "position": 0.25,
              "duration": 0.1625
            },
            {
              "pitch": 76,
              "velocity": 93,
              "position": 0.25,
              "duration": 0.175
            },
            {
              "pitch": 71,
              "velocity": 101,
              "position": 0.75,
              "duration": 0.15416666666666667
            },
            {
              "pitch": 76,
              "velocity": 99,
              "position": 0.75,
              "duration": 0.16875
            },
            {
              "pitch": 67,
              "velocity": 122,
              "position": 1.25,
              "duration": 0.025
            },
            {
              "pitch": 71,
              "velocity": 105,
              "position": 1.5,
              "duration": 0.10625
            },
            {
              "pitch": 76,
              "velocity": 101,
              "position": 1.5,
              "duration": 0.11458333333333333
            },
            {
              "pitch": 76,
              "velocity": 93,
              "position": 1.75,
              "duration": 0.15
            },
            {
              "pitch": 71,
              "velocity": 97,
              "position": 1.75,
              "duration": 0.15416666666666667
            },
            {
              "pitch": 71,
              "velocity": 103,
              "position": 2.25,
              "duration": 0.15208333333333332
            },
            {
              "pitch": 76,
              "velocity": 99,
              "position": 2.25,
              "duration": 0.16666666666666666
            },
            {
              "pitch": 67,
              "velocity": 97,
              "position": 2.75,
              "duration": 0.07708333333333334
            },
            {
              "pitch": 71,
              "velocity": 108,
              "position": 3,
              "duration": 0.3875
            },
            {
              "pitch": 76,
              "velocity": 99,
              "position": 3,
              "duration": 0.38958333333333334
            },
            {
              "pitch": 71,
              "velocity": 86,
              "position": 3.5,
              "duration": 0.11875
            },
            {
              "pitch": 76,
              "velocity": 89,
              "position": 3.5,
              "duration": 0.14166666666666666
            },
            {
              "pitch": 71,
              "velocity": 91,
              "position": 3.75,
              "duration": 0.09791666666666667
            },
            {
              "pitch": 76,
              "velocity": 93,
              "position": 3.75,
              "duration": 0.10833333333333334
            }
          ]
        },
        "4": {
          "ctab": {
            "srcChannel": 4,
            "name": "Tpt P",
            "accType": "PAD",
            "editable": false,
            "mutedNotes": [],
            "mutedChords": [
              "7(9)",
              "7th",
              "min7(9)",
              "min(9)",
              "min",
              "Maj"
            ],
            "autoStart": false,
            "sourceChordNote": 0,
            "sourceChordType": "Maj7",
            "ctb2Low": null,
            "ctb2Main": {
              "ntr": "ROOT_FIXED",
              "ntt": "CHORD",
              "bassOn": false,
              "chordRootUpperLimit": 7,
              "noteLowLimit": 0,
              "noteHighLimit": 127,
              "rtr": "PITCH_SHIFT"
            },
            "ctb2High": null
          },
          "notes": [
            {
              "pitch": 76,
              "velocity": 49,
              "position": 0,
              "duration": 0.15208333333333332
            },
            {
              "pitch": 79,
              "velocity": 84,
              "position": 0,
              "duration": 0.18333333333333332
            }
          ]
        },
        "5": {
          "ctab": {
            "srcChannel": 5,
            "name": "Sax P",
            "accType": "PHRASE1",
            "editable": false,
            "mutedNotes": [],
            "mutedChords": [
              "7(9)",
              "7th",
              "min7(9)",
              "min(9)",
              "min",
              "Maj"
            ],
            "autoStart": false,
            "sourceChordNote": 0,
            "sourceChordType": "Maj7",
            "ctb2Low": null,
            "ctb2Main": {
              "ntr": "ROOT_FIXED",
              "ntt": "CHORD",
              "bassOn": false,
              "chordRootUpperLimit": 7,
              "noteLowLimit": 0,
              "noteHighLimit": 127,
              "rtr": "PITCH_SHIFT"
            },
            "ctb2High": null
          },
          "notes": [
            {
              "pitch": 64,
              "velocity": 117,
              "position": 0.010416666666666666,
              "duration": 0.18333333333333332
            },
            {
              "pitch": 71,
              "velocity": 100,
              "position": 0.010416666666666666,
              "duration": 0.18333333333333332
            }
          ]
        },
        "6": {
          "ctab": {
            "srcChannel": 6,
            "name": "Bari P",
            "accType": "PHRASE2",
            "editable": false,
            "mutedNotes": [],
            "mutedChords": [
              "7(9)",
              "7th",
              "min7(9)",
              "min(9)",
              "min",
              "Maj"
            ],
            "autoStart": false,
            "sourceChordNote": 0,
            "sourceChordType": "Maj7",
            "ctb2Low": null,
            "ctb2Main": {
              "ntr": "ROOT_TRANSPOSITION",
              "ntt": "MELODY",
              "bassOn": true,
              "chordRootUpperLimit": 3,
              "noteLowLimit": 33,
              "noteHighLimit": 127,
              "rtr": "PITCH_SHIFT_TO_ROOT"
            },
            "ctb2High": null
          },
          "notes": [
            {
              "pitch": 48,
              "velocity": 92,
              "position": 0,
              "duration": 0.24583333333333332
            }
          ]
        },
        "8": {
          "ctab": {
            "srcChannel": 8,
            "name": "Perc",
            "accType": "SUBRHYTHM",
            "editable": false,
            "mutedNotes": [],
            "mutedChords": [],
            "autoStart": true,
            "sourceChordNote": 0,
            "sourceChordType": "Maj7",
            "ctb2Low": null,
            "ctb2Main": {
              "ntr": "ROOT_FIXED",
              "ntt": "BYPASS",
              "bassOn": false,
              "chordRootUpperLimit": 6,
              "noteLowLimit": 0,
              "noteHighLimit": 127,
              "rtr": "PITCH_SHIFT"
            },
            "ctb2High": null
          },
          "notes": [
            {
              "pitch": 82,
              "velocity": 60,
              "position": 0,
              "duration": 0.00625
            },
            {
              "pitch": 82,
              "velocity": 30,
              "position": 0.25,
              "duration": 0.00625
            },
            {
              "pitch": 82,
              "velocity": 80,
              "position": 0.5,
              "duration": 0.00625
            },
            {
              "pitch": 82,
              "velocity": 30,
              "position": 0.75,
              "duration": 0.00625
            },
            {
              "pitch": 82,
              "velocity": 60,
              "position": 1,
              "duration": 0.00625
            },
            {
              "pitch": 82,
              "velocity": 30,
              "position": 1.25,
              "duration": 0.00625
            },
            {
              "pitch": 82,
              "velocity": 80,
              "position": 1.5,
              "duration": 0.00625
            },
            {
              "pitch": 82,
              "velocity": 30,
              "position": 1.75,
              "duration": 0.00625
            },
            {
              "pitch": 82,
              "velocity": 60,
              "position": 2,
              "duration": 0.00625
            },
            {
              "pitch": 82,
              "velocity": 30,
              "position": 2.25,
              "duration": 0.00625
            },
            {
              "pitch": 82,
              "velocity": 80,
              "position": 2.5,
              "duration": 0.00625
            },
            {
              "pitch": 82,
              "velocity": 30,
              "position": 2.75,
              "duration": 0.00625
            },
            {
              "pitch": 82,
              "velocity": 60,
              "position": 3,
              "duration": 0.00625
            },
            {
              "pitch": 82,
              "velocity": 30,
              "position": 3.25,
              "duration": 0.00625
            },
            {
              "pitch": 82,
              "velocity": 80,
              "position": 3.5,
              "duration": 0.00625
            },
            {
              "pitch": 82,
              "velocity": 30,
              "position": 3.75,
              "duration": 0.00625
            }
          ]
        },
        "9": {
          "ctab": {
            "srcChannel": 9,
            "name": "Drs",
            "accType": "RHYTHM",
            "editable": false,
            "mutedNotes": [],
            "mutedChords": [],
            "autoStart": true,
            "sourceChordNote": 0,
            "sourceChordType": "Maj7",
            "ctb2Low": null,
            "ctb2Main": {
              "ntr": "ROOT_FIXED",
              "ntt": "BYPASS",
              "bassOn": false,
              "chordRootUpperLimit": 6,
              "noteLowLimit": 0,
              "noteHighLimit": 127,
              "rtr": "PITCH_SHIFT"
            },
            "ctb2High": null
          },
          "notes": [
            {
              "pitch": 33,
              "velocity": 105,
              "position": 0,
              "duration": 0.00625
            },
            {
              "pitch": 42,
              "velocity": 121,
              "position": 0,
              "duration": 0.00625
            },
            {
              "pitch": 31,
              "velocity": 25,
              "position": 0.2708333333333333,
              "duration": 0.00625
            },
            {
              "pitch": 42,
              "velocity": 55,
              "position": 0.5,
              "duration": 0.00625
            },
            {
              "pitch": 33,
              "velocity": 105,
              "position": 0.7708333333333334,
              "duration": 0.00625
            },
            {
              "pitch": 31,
              "velocity": 125,
              "position": 1,
              "duration": 0.00625
            },
            {
              "pitch": 42,
              "velocity": 121,
              "position": 1,
              "duration": 0.00625
            },
            {
              "pitch": 33,
              "velocity": 105,
              "position": 1.5,
              "duration": 0.00625
            },
            {
              "pitch": 42,
              "velocity": 55,
              "position": 1.5,
              "duration": 0.00625
            },
            {
              "pitch": 31,
              "velocity": 125,
              "position": 1.7708333333333333,
              "duration": 0.00625
            },
            {
              "pitch": 42,
              "velocity": 121,
              "position": 2,
              "duration": 0.00625
            },
            {
              "pitch": 31,
              "velocity": 44,
              "position": 2.2708333333333335,
              "duration": 0.00625
            },
            {
              "pitch": 31,
              "velocity": 20,
              "position": 2.5,
              "duration": 0.00625
            },
            {
              "pitch": 33,
              "velocity": 105,
              "position": 2.5,
              "duration": 0.00625
            },
            {
              "pitch": 31,
              "velocity": 44,
              "position": 2.6666666666666665,
              "duration": 0.00625
            },
            {
              "pitch": 31,
              "velocity": 55,
              "position": 2.8333333333333335,
              "duration": 0.00625
            },
            {
              "pitch": 31,
              "velocity": 125,
              "position": 3,
              "duration": 0.00625
            },
            {
              "pitch": 31,
              "velocity": 62,
              "position": 3.25,
              "duration": 0.00625
            },
            {
              "pitch": 31,
              "velocity": 99,
              "position": 3.5,
              "duration": 0.00625
            },
            {
              "pitch": 31,
              "velocity": 88,
              "position": 3.75,
              "duration": 0.00625
            },
            {
              "pitch": 49,
              "velocity": 90,
              "position": 3.9895833333333335,
              "duration": 0.00625
            }
          ]
        },
        "10": {
          "ctab": {
            "srcChannel": 10,
            "name": "Bass S",
            "accType": "BASS",
            "editable": false,
            "mutedNotes": [],
            "mutedChords": [
              "1+2+5",
              "sus4",
              "1+5",
              "1+8",
              "7aug",
              "Maj7aug",
              "7(#9)",
              "7(b13)",
              "7(b9)",
              "7(13)",
              "7#11",
              "7b5",
              "7sus4",
              "dim7",
              "dim",
              "minMaj7(9)",
              "minMaj7",
              "min7(11)",
              "m7b5",
              "min7",
              "min6",
              "aug",
              "Maj6(9)",
              "Maj7(9)",
              "Maj(9)",
              "Maj7#11",
              "Maj7",
              "Maj6"
            ],
            "autoStart": false,
            "sourceChordNote": 0,
            "sourceChordType": "7(9)",
            "ctb2Low": null,
            "ctb2Main": {
              "ntr": "ROOT_TRANSPOSITION",
              "ntt": "MELODIC_MINOR_5",
              "bassOn": true,
              "chordRootUpperLimit": 3,
              "noteLowLimit": 28,
              "noteHighLimit": 127,
              "rtr": "PITCH_SHIFT_TO_ROOT"
            },
            "ctb2High": null
          },
          "notes": [
            {
              "pitch": 36,
              "velocity": 80,
              "position": 0,
              "duration": 0.23541666666666666
            },
            {
              "pitch": 36,
              "velocity": 91,
              "position": 0.25,
              "duration": 0.13125
            },
            {
              "pitch": 36,
              "velocity": 110,
              "position": 0.5,
              "duration": 0.13125
            },
            {
              "pitch": 40,
              "velocity": 80,
              "position": 0.75,
              "duration": 0.23541666666666666
            },
            {
              "pitch": 40,
              "velocity": 110,
              "position": 1.25,
              "duration": 0.13125
            },
            {
              "pitch": 40,
              "velocity": 110,
              "position": 1.5,
              "duration": 0.13125
            },
            {
              "pitch": 41,
              "velocity": 80,
              "position": 1.75,
              "duration": 0.23541666666666666
            },
            {
              "pitch": 41,
              "velocity": 110,
              "position": 2,
              "duration": 0.13125
            },
            {
              "pitch": 41,
              "velocity": 110,
              "position": 2.25,
              "duration": 0.13125
            },
            {
              "pitch": 42,
              "velocity": 80,
              "position": 2.5,
              "duration": 0.13125
            },
            {
              "pitch": 42,
              "velocity": 70,
              "position": 2.75,
              "duration": 0.13125
            },
            {
              "pitch": 43,
              "velocity": 80,
              "position": 3,
              "duration": 0.13125
            },
            {
              "pitch": 43,
              "velocity": 70,
              "position": 3.25,
              "duration": 0.13125
            },
            {
              "pitch": 46,
              "velocity": 80,
              "position": 3.5,
              "duration": 0.23541666666666666
            },
            {
              "pitch": 48,
              "velocity": 60,
              "position": 3.75,
              "duration": 0.23541666666666666
            }
          ]
        },
        "11": {
          "ctab": {
            "srcChannel": 11,
            "name": "Gt S",
            "accType": "CHORD1",
            "editable": false,
            "mutedNotes": [],
            "mutedChords": [
              "1+2+5",
              "sus4",
              "1+5",
              "1+8",
              "7aug",
              "Maj7aug",
              "7(#9)",
              "7(b13)",
              "7(b9)",
              "7(13)",
              "7#11",
              "7b5",
              "7sus4",
              "dim7",
              "dim",
              "minMaj7(9)",
              "minMaj7",
              "min7(11)",
              "m7b5",
              "min7",
              "min6",
              "aug",
              "Maj6(9)",
              "Maj7(9)",
              "Maj(9)",
              "Maj7#11",
              "Maj7",
              "Maj6"
            ],
            "autoStart": false,
            "sourceChordNote": 0,
            "sourceChordType": "7(9)",
            "ctb2Low": null,
            "ctb2Main": {
              "ntr": "ROOT_TRANSPOSITION",
              "ntt": "MELODIC_MINOR_5",
              "bassOn": false,
              "chordRootUpperLimit": 7,
              "noteLowLimit": 52,
              "noteHighLimit": 79,
              "rtr": "PITCH_SHIFT"
            },
            "ctb2High": null
          },
          "notes": [
            {
              "pitch": 106,
              "velocity": 80,
              "position": 0,
              "duration": 0.23541666666666666
            },
            {
              "pitch": 62,
              "velocity": 35,
              "position": 0.020833333333333332,
              "duration": 0.21458333333333332
            },
            {
              "pitch": 58,
              "velocity": 35,
              "position": 0.010416666666666666,
              "duration": 0.23541666666666666
            },
            {
              "pitch": 52,
              "velocity": 29,
              "position": 0,
              "duration": 0.25625
            },
            {
              "pitch": 99,
              "velocity": 80,
              "position": 0.25,
              "duration": 0.23541666666666666
            },
            {
              "pitch": 52,
              "velocity": 22,
              "position": 0.2708333333333333,
              "duration": 0.21458333333333332
            },
            {
              "pitch": 58,
              "velocity": 22,
              "position": 0.2604166666666667,
              "duration": 0.23541666666666666
            },
            {
              "pitch": 62,
              "velocity": 22,
              "position": 0.25,
              "duration": 0.25625
            },
            {
              "pitch": 67,
              "velocity": 35,
              "position": 0.03125,
              "duration": 0.48541666666666666
            },
            {
              "pitch": 98,
              "velocity": 80,
              "position": 0.5,
              "duration": 0.23541666666666666
            },
            {
              "pitch": 67,
              "velocity": 29,
              "position": 0.53125,
              "duration": 0.20416666666666666
            },
            {
              "pitch": 62,
              "velocity": 29,
              "position": 0.5208333333333334,
              "duration": 0.225
            },
            {
              "pitch": 58,
              "velocity": 29,
              "position": 0.5104166666666666,
              "duration": 0.24583333333333332
            },
            {
              "pitch": 105,
              "velocity": 80,
              "position": 0.75,
              "duration": 0.23541666666666666
            },
            {
              "pitch": 58,
              "velocity": 35,
              "position": 0.7708333333333334,
              "duration": 0.21458333333333332
            },
            {
              "pitch": 62,
              "velocity": 35,
              "position": 0.7604166666666666,
              "duration": 0.23541666666666666
            },
            {
              "pitch": 67,
              "velocity": 35,
              "position": 0.75,
              "duration": 0.25625
            },
            {
              "pitch": 52,
              "velocity": 29,
              "position": 0.5,
              "duration": 0.50625
            },
            {
              "pitch": 98,
              "velocity": 80,
              "position": 1,
              "duration": 0.23541666666666666
            },
            {
              "pitch": 99,
              "velocity": 80,
              "position": 1.25,
              "duration": 0.23541666666666666
            },
            {
              "pitch": 106,
              "velocity": 80,
              "position": 1.5,
              "duration": 0.23541666666666666
            },
            {
              "pitch": 67,
              "velocity": 35,
              "position": 1.53125,
              "duration": 0.20416666666666666
            },
            {
              "pitch": 62,
              "velocity": 35,
              "position": 1.5208333333333333,
              "duration": 0.21458333333333332
            },
            {
              "pitch": 58,
              "velocity": 35,
              "position": 1.5104166666666667,
              "duration": 0.23541666666666666
            },
            {
              "pitch": 52,
              "velocity": 29,
              "position": 1.5,
              "duration": 0.25625
            },
            {
              "pitch": 99,
              "velocity": 80,
              "position": 1.75,
              "duration": 0.23541666666666666
            },
            {
              "pitch": 98,
              "velocity": 80,
              "position": 2,
              "duration": 0.23541666666666666
            },
            {
              "pitch": 99,
              "velocity": 80,
              "position": 2.25,
              "duration": 0.23541666666666666
            },
            {
              "pitch": 106,
              "velocity": 80,
              "position": 2.5,
              "duration": 0.23541666666666666
            },
            {
              "pitch": 62,
              "velocity": 35,
              "position": 2.5208333333333335,
              "duration": 0.21458333333333332
            },
            {
              "pitch": 58,
              "velocity": 35,
              "position": 2.5104166666666665,
              "duration": 0.23541666666666666
            },
            {
              "pitch": 52,
              "velocity": 29,
              "position": 2.5,
              "duration": 0.25625
            },
            {
              "pitch": 99,
              "velocity": 80,
              "position": 2.75,
              "duration": 0.23541666666666666
            },
            {
              "pitch": 52,
              "velocity": 22,
              "position": 2.7708333333333335,
              "duration": 0.21458333333333332
            },
            {
              "pitch": 58,
              "velocity": 22,
              "position": 2.7604166666666665,
              "duration": 0.23541666666666666
            },
            {
              "pitch": 62,
              "velocity": 22,
              "position": 2.75,
              "duration": 0.25625
            },
            {
              "pitch": 67,
              "velocity": 35,
              "position": 2.53125,
              "duration": 0.48541666666666666
            },
            {
              "pitch": 98,
              "velocity": 80,
              "position": 3,
              "duration": 0.23541666666666666
            },
            {
              "pitch": 67,
              "velocity": 29,
              "position": 3.03125,
              "duration": 0.20416666666666666
            },
            {
              "pitch": 62,
              "velocity": 29,
              "position": 3.0208333333333335,
              "duration": 0.225
            },
            {
              "pitch": 58,
              "velocity": 29,
              "position": 3.0104166666666665,
              "duration": 0.24583333333333332
            },
            {
              "pitch": 105,
              "velocity": 80,
              "position": 3.25,
              "duration": 0.23541666666666666
            },
            {
              "pitch": 58,
              "velocity": 35,
              "position": 3.2708333333333335,
              "duration": 0.21458333333333332
            },
            {
              "pitch": 62,
              "velocity": 35,
              "position": 3.2604166666666665,
              "duration": 0.23541666666666666
            },
            {
              "pitch": 67,
              "velocity": 35,
              "position": 3.25,
              "duration": 0.25625
            },
            {
              "pitch": 52,
              "velocity": 29,
              "position": 3,
              "duration": 0.50625
            },
            {
              "pitch": 98,
              "velocity": 80,
              "position": 3.5,
              "duration": 0.23541666666666666
            },
            {
              "pitch": 99,
              "velocity": 80,
              "position": 3.75,
              "duration": 0.23541666666666666
            }
          ]
        },
        "12": {
          "ctab": {
            "srcChannel": 12,
            "name": "Org S",
            "accType": "CHORD2",
            "editable": false,
            "mutedNotes": [],
            "mutedChords": [
              "1+2+5",
              "sus4",
              "1+5",
              "1+8",
              "7aug",
              "Maj7aug",
              "7(b13)",
              "7(b9)",
              "7(13)",
              "7#11",
              "7(9)",
              "7b5",
              "7sus4",
              "dim7",
              "dim",
              "minMaj7(9)",
              "minMaj7",
              "min7(11)",
              "min7(9)",
              "min(9)",
              "m7b5",
              "min7",
              "min6",
              "min",
              "aug",
              "Maj6(9)",
              "Maj7(9)",
              "Maj(9)",
              "Maj7#11",
              "Maj7",
              "Maj6"
            ],
            "autoStart": false,
            "sourceChordNote": 0,
            "sourceChordType": "7(9)",
            "ctb2Low": null,
            "ctb2Main": {
              "ntr": "ROOT_TRANSPOSITION",
              "ntt": "BYPASS",
              "bassOn": false,
              "chordRootUpperLimit": 7,
              "noteLowLimit": 54,
              "noteHighLimit": 77,
              "rtr": "PITCH_SHIFT"
            },
            "ctb2High": null
          },
          "notes": [
            {
              "pitch": 70,
              "velocity": 101,
              "position": 0,
              "duration": 0.11041666666666666
            },
            {
              "pitch": 72,
              "velocity": 99,
              "position": 0,
              "duration": 0.1125
            },
            {
              "pitch": 70,
              "velocity": 94,
              "position": 0.25,
              "duration": 0.1625
            },
            {
              "pitch": 72,
              "velocity": 93,
              "position": 0.25,
              "duration": 0.175
            },
            {
              "pitch": 70,
              "velocity": 101,
              "position": 0.75,
              "duration": 0.15416666666666667
            },
            {
              "pitch": 72,
              "velocity": 99,
              "position": 0.75,
              "duration": 0.16875
            },
            {
              "pitch": 60,
              "velocity": 122,
              "position": 1.25,
              "duration": 0.025
            },
            {
              "pitch": 70,
              "velocity": 105,
              "position": 1.5,
              "duration": 0.10625
            },
            {
              "pitch": 72,
              "velocity": 101,
              "position": 1.5,
              "duration": 0.11458333333333333
            },
            {
              "pitch": 72,
              "velocity": 93,
              "position": 1.75,
              "duration": 0.15
            },
            {
              "pitch": 70,
              "velocity": 97,
              "position": 1.75,
              "duration": 0.15416666666666667
            },
            {
              "pitch": 70,
              "velocity": 103,
              "position": 2.25,
              "duration": 0.15208333333333332
            },
            {
              "pitch": 72,
              "velocity": 99,
              "position": 2.25,
              "duration": 0.16666666666666666
            },
            {
              "pitch": 60,
              "velocity": 97,
              "position": 2.75,
              "duration": 0.07708333333333334
            },
            {
              "pitch": 70,
              "velocity": 108,
              "position": 3,
              "duration": 0.3875
            },
            {
              "pitch": 72,
              "velocity": 99,
              "position": 3,
              "duration": 0.38958333333333334
            },
            {
              "pitch": 70,
              "velocity": 86,
              "position": 3.5,
              "duration": 0.11875
            },
            {
              "pitch": 72,
              "velocity": 89,
              "position": 3.5,
              "duration": 0.14166666666666666
            },
            {
              "pitch": 70,
              "velocity": 91,
              "position": 3.75,
              "duration": 0.09791666666666667
            },
            {
              "pitch": 72,
              "velocity": 93,
              "position": 3.75,
              "duration": 0.10833333333333334
            }
          ]
        },
        "13": {
          "ctab": {
            "srcChannel": 13,
            "name": "Tpt S",
            "accType": "PAD",
            "editable": false,
            "mutedNotes": [],
            "mutedChords": [
              "1+2+5",
              "sus4",
              "1+5",
              "1+8",
              "7aug",
              "Maj7aug",
              "7(#9)",
              "7(b13)",
              "7(b9)",
              "7(13)",
              "7#11",
              "7b5",
              "7sus4",
              "dim7",
              "dim",
              "minMaj7(9)",
              "minMaj7",
              "min7(11)",
              "m7b5",
              "min7",
              "min6",
              "aug",
              "Maj6(9)",
              "Maj7(9)",
              "Maj(9)",
              "Maj7#11",
              "Maj7",
              "Maj6"
            ],
            "autoStart": false,
            "sourceChordNote": 0,
            "sourceChordType": "7(9)",
            "ctb2Low": null,
            "ctb2Main": {
              "ntr": "ROOT_TRANSPOSITION",
              "ntt": "MELODIC_MINOR_5",
              "bassOn": false,
              "chordRootUpperLimit": 2,
              "noteLowLimit": 0,
              "noteHighLimit": 127,
              "rtr": "PITCH_SHIFT"
            },
            "ctb2High": null
          },
          "notes": [
            {
              "pitch": 74,
              "velocity": 49,
              "position": 0.010416666666666666,
              "duration": 0.15208333333333332
            },
            {
              "pitch": 79,
              "velocity": 84,
              "position": 0,
              "duration": 0.18333333333333332
            }
          ]
        },
        "14": {
          "ctab": {
            "srcChannel": 14,
            "name": "Sax S",
            "accType": "PHRASE1",
            "editable": false,
            "mutedNotes": [],
            "mutedChords": [
              "1+2+5",
              "sus4",
              "1+5",
              "1+8",
              "7aug",
              "Maj7aug",
              "7(#9)",
              "7(b13)",
              "7(b9)",
              "7(13)",
              "7#11",
              "7b5",
              "7sus4",
              "dim7",
              "dim",
              "minMaj7(9)",
              "minMaj7",
              "min7(11)",
              "m7b5",
              "min7",
              "min6",
              "aug",
              "Maj6(9)",
              "Maj7(9)",
              "Maj(9)",
              "Maj7#11",
              "Maj7",
              "Maj6"
            ],
            "autoStart": false,
            "sourceChordNote": 0,
            "sourceChordType": "7(9)",
            "ctb2Low": null,
            "ctb2Main": {
              "ntr": "ROOT_TRANSPOSITION",
              "ntt": "MELODIC_MINOR_5",
              "bassOn": false,
              "chordRootUpperLimit": 7,
              "noteLowLimit": 0,
              "noteHighLimit": 127,
              "rtr": "PITCH_SHIFT"
            },
            "ctb2High": null
          },
          "notes": [
            {
              "pitch": 64,
              "velocity": 117,
              "position": 0.010416666666666666,
              "duration": 0.18333333333333332
            },
            {
              "pitch": 70,
              "velocity": 100,
              "position": 0.010416666666666666,
              "duration": 0.18333333333333332
            }
          ]
        },
        "15": {
          "ctab": {
            "srcChannel": 15,
            "name": "Bari S",
            "accType": "PHRASE2",
            "editable": false,
            "mutedNotes": [],
            "mutedChords": [
              "1+2+5",
              "sus4",
              "1+5",
              "1+8",
              "7aug",
              "Maj7aug",
              "7(#9)",
              "7(b13)",
              "7(b9)",
              "7(13)",
              "7#11",
              "7b5",
              "7sus4",
              "dim7",
              "dim",
              "minMaj7(9)",
              "minMaj7",
              "min7(11)",
              "m7b5",
              "min7",
              "min6",
              "aug",
              "Maj6(9)",
              "Maj7(9)",
              "Maj(9)",
              "Maj7#11",
              "Maj7",
              "Maj6"
            ],
            "autoStart": false,
            "sourceChordNote": 0,
            "sourceChordType": "7(9)",
            "ctb2Low": null,
            "ctb2Main": {
              "ntr": "ROOT_TRANSPOSITION",
              "ntt": "MELODIC_MINOR_5",
              "bassOn": true,
              "chordRootUpperLimit": 3,
              "noteLowLimit": 33,
              "noteHighLimit": 127,
              "rtr": "PITCH_SHIFT_TO_ROOT"
            },
            "ctb2High": null
          },
          "notes": [
            {
              "pitch": 48,
              "velocity": 92,
              "position": 0,
              "duration": 0.24583333333333332
            }
          ]
        }
      }
    },
    "Main_D": {
      "type": "Main_D",
      "sizeInBeats": 16,
      "channels": {
        "1": {
          "ctab": {
            "srcChannel": 1,
            "name": "Bass P",
            "accType": "BASS",
            "editable": false,
            "mutedNotes": [],
            "mutedChords": [
              "7aug",
              "7(#9)",
              "7(9)",
              "7b5",
              "7th",
              "min7(11)",
              "min7(9)",
              "min(9)",
              "m7b5",
              "min7",
              "min",
              "Maj"
            ],
            "autoStart": false,
            "sourceChordNote": 0,
            "sourceChordType": "Maj7",
            "ctb2Low": null,
            "ctb2Main": {
              "ntr": "ROOT_TRANSPOSITION",
              "ntt": "MELODY",
              "bassOn": true,
              "chordRootUpperLimit": 3,
              "noteLowLimit": 28,
              "noteHighLimit": 127,
              "rtr": "PITCH_SHIFT_TO_ROOT"
            },
            "ctb2High": null
          },
          "notes": [
            {
              "pitch": 36,
              "velocity": 80,
              "position": 0,
              "duration": 0.23541666666666666
            },
            {
              "pitch": 36,
              "velocity": 91,
              "position": 0.25,
              "duration": 0.13125
            },
            {
              "pitch": 36,
              "velocity": 110,
              "position": 0.5,
              "duration": 0.13125
            },
            {
              "pitch": 36,
              "velocity": 80,
              "position": 0.75,
              "duration": 0.23541666666666666
            },
            {
              "pitch": 36,
              "velocity": 110,
              "position": 1.25,
              "duration": 0.13125
            },
            {
              "pitch": 43,
              "velocity": 110,
              "position": 1.5,
              "duration": 0.13125
            },
            {
              "pitch": 36,
              "velocity": 80,
              "position": 1.75,
              "duration": 0.23541666666666666
            },
            {
              "pitch": 36,
              "velocity": 91,
              "position": 2,
              "duration": 0.13125
            },
            {
              "pitch": 36,
              "velocity": 110,
              "position": 2.25,
              "duration": 0.13125
            },
            {
              "pitch": 36,
              "velocity": 80,
              "position": 2.5,
              "duration": 0.23541666666666666
            },
            {
              "pitch": 48,
              "velocity": 60,
              "position": 2.75,
              "duration": 0.23541666666666666
            },
            {
              "pitch": 48,
              "velocity": 110,
              "position": 3,
              "duration": 0.13125
            },
            {
              "pitch": 43,
              "velocity": 110,
              "position": 3.25,
              "duration": 0.13125
            },
            {
              "pitch": 36,
              "velocity": 60,
              "position": 3.5,
              "duration": 0.17291666666666666
            },
            {
              "pitch": 36,
              "velocity": 60,
              "position": 3.75,
              "duration": 0.17291666666666666
            },
            {
              "pitch": 36,
              "velocity": 80,
              "position": 4,
              "duration": 0.23541666666666666
            },
            {
              "pitch": 36,
              "velocity": 91,
              "position": 4.25,
              "duration": 0.13125
            },
            {
              "pitch": 36,
              "velocity": 110,
              "position": 4.5,
              "duration": 0.13125
            },
            {
              "pitch": 36,
              "velocity": 80,
              "position": 4.75,
              "duration": 0.23541666666666666
            },
            {
              "pitch": 36,
              "velocity": 110,
              "position": 5.25,
              "duration": 0.13125
            },
            {
              "pitch": 43,
              "velocity": 110,
              "position": 5.5,
              "duration": 0.13125
            },
            {
              "pitch": 36,
              "velocity": 80,
              "position": 5.75,
              "duration": 0.23541666666666666
            },
            {
              "pitch": 36,
              "velocity": 91,
              "position": 6,
              "duration": 0.13125
            },
            {
              "pitch": 36,
              "velocity": 110,
              "position": 6.25,
              "duration": 0.13125
            },
            {
              "pitch": 36,
              "velocity": 80,
              "position": 6.5,
              "duration": 0.23541666666666666
            },
            {
              "pitch": 43,
              "velocity": 80,
              "position": 7,
              "duration": 0.23541666666666666
            },
            {
              "pitch": 40,
              "velocity": 80,
              "position": 7.5,
              "duration": 0.23541666666666666
            },
            {
              "pitch": 43,
              "velocity": 60,
              "position": 7.75,
              "duration": 0.23541666666666666
            },
            {
              "pitch": 36,
              "velocity": 80,
              "position": 8,
              "duration": 0.23541666666666666
            },
            {
              "pitch": 36,
              "velocity": 91,
              "position": 8.25,
              "duration": 0.13125
            },
            {
              "pitch": 36,
              "velocity": 110,
              "position": 8.5,
              "duration": 0.13125
            },
            {
              "pitch": 36,
              "velocity": 80,
              "position": 8.75,
              "duration": 0.23541666666666666
            },
            {
              "pitch": 36,
              "velocity": 110,
              "position": 9.25,
              "duration": 0.13125
            },
            {
              "pitch": 43,
              "velocity": 110,
              "position": 9.5,
              "duration": 0.13125
            },
            {
              "pitch": 36,
              "velocity": 80,
              "position": 9.75,
              "duration": 0.23541666666666666
            },
            {
              "pitch": 36,
              "velocity": 91,
              "position": 10,
              "duration": 0.13125
            },
            {
              "pitch": 36,
              "velocity": 110,
              "position": 10.25,
              "duration": 0.13125
            },
            {
              "pitch": 36,
              "velocity": 80,
              "position": 10.5,
              "duration": 0.23541666666666666
            },
            {
              "pitch": 48,
              "velocity": 60,
              "position": 10.75,
              "duration": 0.23541666666666666
            },
            {
              "pitch": 48,
              "velocity": 110,
              "position": 11,
              "duration": 0.13125
            },
            {
              "pitch": 43,
              "velocity": 110,
              "position": 11.25,
              "duration": 0.13125
            },
            {
              "pitch": 36,
              "velocity": 60,
              "position": 11.5,
              "duration": 0.17291666666666666
            },
            {
              "pitch": 36,
              "velocity": 60,
              "position": 11.75,
              "duration": 0.17291666666666666
            },
            {
              "pitch": 36,
              "velocity": 80,
              "position": 12,
              "duration": 0.23541666666666666
            },
            {
              "pitch": 36,
              "velocity": 110,
              "position": 12.5,
              "duration": 0.13125
            },
            {
              "pitch": 36,
              "velocity": 80,
              "position": 12.75,
              "duration": 0.23541666666666666
            },
            {
              "pitch": 36,
              "velocity": 110,
              "position": 13.25,
              "duration": 0.13125
            },
            {
              "pitch": 36,
              "velocity": 110,
              "position": 13.5,
              "duration": 0.13125
            },
            {
              "pitch": 36,
              "velocity": 80,
              "position": 13.75,
              "duration": 0.23541666666666666
            },
            {
              "pitch": 36,
              "velocity": 91,
              "position": 14,
              "duration": 0.13125
            },
            {
              "pitch": 36,
              "velocity": 91,
              "position": 14.25,
              "duration": 0.13125
            },
            {
              "pitch": 40,
              "velocity": 80,
              "position": 14.5,
              "duration": 0.23541666666666666
            },
            {
              "pitch": 36,
              "velocity": 91,
              "position": 14.75,
              "duration": 0.13125
            },
            {
              "pitch": 43,
              "velocity": 80,
              "position": 15,
              "duration": 0.23541666666666666
            },
            {
              "pitch": 36,
              "velocity": 91,
              "position": 15.25,
              "duration": 0.13125
            },
            {
              "pitch": 45,
              "velocity": 80,
              "position": 15.5,
              "duration": 0.23541666666666666
            },
            {
              "pitch": 48,
              "velocity": 60,
              "position": 15.75,
              "duration": 0.23541666666666666
            }
          ]
        },
        "2": {
          "ctab": {
            "srcChannel": 2,
            "name": "Gt P",
            "accType": "CHORD1",
            "editable": false,
            "mutedNotes": [],
            "mutedChords": [
              "7(9)",
              "7th",
              "min7(9)",
              "min(9)",
              "min7",
              "Maj"
            ],
            "autoStart": false,
            "sourceChordNote": 0,
            "sourceChordType": "Maj7",
            "ctb2Low": null,
            "ctb2Main": {
              "ntr": "ROOT_TRANSPOSITION",
              "ntt": "MELODY",
              "bassOn": false,
              "chordRootUpperLimit": 7,
              "noteLowLimit": 0,
              "noteHighLimit": 127,
              "rtr": "PITCH_SHIFT"
            },
            "ctb2High": null
          },
          "notes": [
            {
              "pitch": 67,
              "velocity": 35,
              "position": 0.03125,
              "duration": 0.20416666666666666
            },
            {
              "pitch": 71,
              "velocity": 35,
              "position": 0.03125,
              "duration": 0.20416666666666666
            },
            {
              "pitch": 64,
              "velocity": 35,
              "position": 0.020833333333333332,
              "duration": 0.21458333333333332
            },
            {
              "pitch": 60,
              "velocity": 35,
              "position": 0.010416666666666666,
              "duration": 0.23541666666666666
            },
            {
              "pitch": 67,
              "velocity": 16,
              "position": 0.25,
              "duration": 0.11041666666666666
            },
            {
              "pitch": 71,
              "velocity": 16,
              "position": 0.25,
              "duration": 0.11041666666666666
            },
            {
              "pitch": 64,
              "velocity": 16,
              "position": 0.2604166666666667,
              "duration": 0.12083333333333333
            },
            {
              "pitch": 60,
              "velocity": 16,
              "position": 0.2708333333333333,
              "duration": 0.14166666666666666
            },
            {
              "pitch": 67,
              "velocity": 35,
              "position": 0.75,
              "duration": 0.20416666666666666
            },
            {
              "pitch": 71,
              "velocity": 35,
              "position": 0.75,
              "duration": 0.20416666666666666
            },
            {
              "pitch": 64,
              "velocity": 35,
              "position": 0.7604166666666666,
              "duration": 0.21458333333333332
            },
            {
              "pitch": 60,
              "velocity": 35,
              "position": 0.7708333333333334,
              "duration": 0.23541666666666666
            },
            {
              "pitch": 55,
              "velocity": 29,
              "position": 0.78125,
              "duration": 0.25625
            },
            {
              "pitch": 59,
              "velocity": 29,
              "position": 0.78125,
              "duration": 0.25625
            },
            {
              "pitch": 67,
              "velocity": 35,
              "position": 1.53125,
              "duration": 0.20416666666666666
            },
            {
              "pitch": 71,
              "velocity": 35,
              "position": 1.53125,
              "duration": 0.20416666666666666
            },
            {
              "pitch": 64,
              "velocity": 35,
              "position": 1.5208333333333333,
              "duration": 0.21458333333333332
            },
            {
              "pitch": 60,
              "velocity": 35,
              "position": 1.5104166666666667,
              "duration": 0.23541666666666666
            },
            {
              "pitch": 55,
              "velocity": 29,
              "position": 1.5,
              "duration": 0.25625
            },
            {
              "pitch": 59,
              "velocity": 29,
              "position": 1.5,
              "duration": 0.25625
            },
            {
              "pitch": 64,
              "velocity": 35,
              "position": 2.5208333333333335,
              "duration": 0.21458333333333332
            },
            {
              "pitch": 60,
              "velocity": 35,
              "position": 2.5104166666666665,
              "duration": 0.23541666666666666
            },
            {
              "pitch": 55,
              "velocity": 29,
              "position": 2.5,
              "duration": 0.25625
            },
            {
              "pitch": 59,
              "velocity": 29,
              "position": 2.5,
              "duration": 0.25625
            },
            {
              "pitch": 55,
              "velocity": 22,
              "position": 2.7708333333333335,
              "duration": 0.21458333333333332
            },
            {
              "pitch": 59,
              "velocity": 22,
              "position": 2.7708333333333335,
              "duration": 0.21458333333333332
            },
            {
              "pitch": 60,
              "velocity": 22,
              "position": 2.7604166666666665,
              "duration": 0.23541666666666666
            },
            {
              "pitch": 64,
              "velocity": 22,
              "position": 2.75,
              "duration": 0.25625
            },
            {
              "pitch": 67,
              "velocity": 35,
              "position": 2.53125,
              "duration": 0.48541666666666666
            },
            {
              "pitch": 71,
              "velocity": 35,
              "position": 2.53125,
              "duration": 0.48541666666666666
            },
            {
              "pitch": 67,
              "velocity": 29,
              "position": 3.03125,
              "duration": 0.20416666666666666
            },
            {
              "pitch": 71,
              "velocity": 29,
              "position": 3.03125,
              "duration": 0.20416666666666666
            },
            {
              "pitch": 64,
              "velocity": 29,
              "position": 3.0208333333333335,
              "duration": 0.225
            },
            {
              "pitch": 60,
              "velocity": 29,
              "position": 3.0104166666666665,
              "duration": 0.24583333333333332
            },
            {
              "pitch": 60,
              "velocity": 35,
              "position": 3.2708333333333335,
              "duration": 0.21458333333333332
            },
            {
              "pitch": 64,
              "velocity": 35,
              "position": 3.2604166666666665,
              "duration": 0.23541666666666666
            },
            {
              "pitch": 67,
              "velocity": 35,
              "position": 3.25,
              "duration": 0.25625
            },
            {
              "pitch": 71,
              "velocity": 35,
              "position": 3.25,
              "duration": 0.25625
            },
            {
              "pitch": 55,
              "velocity": 29,
              "position": 3,
              "duration": 0.50625
            },
            {
              "pitch": 59,
              "velocity": 29,
              "position": 3,
              "duration": 0.50625
            },
            {
              "pitch": 67,
              "velocity": 35,
              "position": 4.03125,
              "duration": 0.20416666666666666
            },
            {
              "pitch": 71,
              "velocity": 35,
              "position": 4.03125,
              "duration": 0.20416666666666666
            },
            {
              "pitch": 64,
              "velocity": 35,
              "position": 4.020833333333333,
              "duration": 0.21458333333333332
            },
            {
              "pitch": 60,
              "velocity": 35,
              "position": 4.010416666666667,
              "duration": 0.23541666666666666
            },
            {
              "pitch": 67,
              "velocity": 16,
              "position": 4.25,
              "duration": 0.11041666666666666
            },
            {
              "pitch": 71,
              "velocity": 16,
              "position": 4.25,
              "duration": 0.11041666666666666
            },
            {
              "pitch": 64,
              "velocity": 16,
              "position": 4.260416666666667,
              "duration": 0.12083333333333333
            },
            {
              "pitch": 60,
              "velocity": 16,
              "position": 4.270833333333333,
              "duration": 0.14166666666666666
            },
            {
              "pitch": 67,
              "velocity": 35,
              "position": 4.75,
              "duration": 0.20416666666666666
            },
            {
              "pitch": 71,
              "velocity": 35,
              "position": 4.75,
              "duration": 0.20416666666666666
            },
            {
              "pitch": 64,
              "velocity": 35,
              "position": 4.760416666666667,
              "duration": 0.21458333333333332
            },
            {
              "pitch": 60,
              "velocity": 35,
              "position": 4.770833333333333,
              "duration": 0.23541666666666666
            },
            {
              "pitch": 55,
              "velocity": 29,
              "position": 4.78125,
              "duration": 0.25625
            },
            {
              "pitch": 59,
              "velocity": 29,
              "position": 4.78125,
              "duration": 0.25625
            },
            {
              "pitch": 67,
              "velocity": 35,
              "position": 5.53125,
              "duration": 0.20416666666666666
            },
            {
              "pitch": 71,
              "velocity": 35,
              "position": 5.53125,
              "duration": 0.20416666666666666
            },
            {
              "pitch": 64,
              "velocity": 35,
              "position": 5.520833333333333,
              "duration": 0.21458333333333332
            },
            {
              "pitch": 60,
              "velocity": 35,
              "position": 5.510416666666667,
              "duration": 0.23541666666666666
            },
            {
              "pitch": 55,
              "velocity": 29,
              "position": 5.5,
              "duration": 0.25625
            },
            {
              "pitch": 59,
              "velocity": 29,
              "position": 5.5,
              "duration": 0.25625
            },
            {
              "pitch": 64,
              "velocity": 35,
              "position": 6.520833333333333,
              "duration": 0.21458333333333332
            },
            {
              "pitch": 60,
              "velocity": 35,
              "position": 6.510416666666667,
              "duration": 0.23541666666666666
            },
            {
              "pitch": 55,
              "velocity": 29,
              "position": 6.5,
              "duration": 0.25625
            },
            {
              "pitch": 59,
              "velocity": 29,
              "position": 6.5,
              "duration": 0.25625
            },
            {
              "pitch": 55,
              "velocity": 22,
              "position": 6.770833333333333,
              "duration": 0.21458333333333332
            },
            {
              "pitch": 59,
              "velocity": 22,
              "position": 6.770833333333333,
              "duration": 0.21458333333333332
            },
            {
              "pitch": 60,
              "velocity": 22,
              "position": 6.760416666666667,
              "duration": 0.23541666666666666
            },
            {
              "pitch": 64,
              "velocity": 22,
              "position": 6.75,
              "duration": 0.25625
            },
            {
              "pitch": 67,
              "velocity": 35,
              "position": 6.53125,
              "duration": 0.48541666666666666
            },
            {
              "pitch": 71,
              "velocity": 35,
              "position": 6.53125,
              "duration": 0.48541666666666666
            },
            {
              "pitch": 67,
              "velocity": 29,
              "position": 7.03125,
              "duration": 0.20416666666666666
            },
            {
              "pitch": 71,
              "velocity": 29,
              "position": 7.03125,
              "duration": 0.20416666666666666
            },
            {
              "pitch": 64,
              "velocity": 29,
              "position": 7.020833333333333,
              "duration": 0.225
            },
            {
              "pitch": 60,
              "velocity": 29,
              "position": 7.010416666666667,
              "duration": 0.24583333333333332
            },
            {
              "pitch": 60,
              "velocity": 35,
              "position": 7.270833333333333,
              "duration": 0.21458333333333332
            },
            {
              "pitch": 64,
              "velocity": 35,
              "position": 7.260416666666667,
              "duration": 0.23541666666666666
            },
            {
              "pitch": 67,
              "velocity": 35,
              "position": 7.25,
              "duration": 0.25625
            },
            {
              "pitch": 71,
              "velocity": 35,
              "position": 7.25,
              "duration": 0.25625
            },
            {
              "pitch": 55,
              "velocity": 29,
              "position": 7,
              "duration": 0.50625
            },
            {
              "pitch": 59,
              "velocity": 29,
              "position": 7,
              "duration": 0.50625
            },
            {
              "pitch": 67,
              "velocity": 35,
              "position": 8.03125,
              "duration": 0.20416666666666666
            },
            {
              "pitch": 71,
              "velocity": 35,
              "position": 8.03125,
              "duration": 0.20416666666666666
            },
            {
              "pitch": 64,
              "velocity": 35,
              "position": 8.020833333333334,
              "duration": 0.21458333333333332
            },
            {
              "pitch": 60,
              "velocity": 35,
              "position": 8.010416666666666,
              "duration": 0.23541666666666666
            },
            {
              "pitch": 67,
              "velocity": 16,
              "position": 8.25,
              "duration": 0.11041666666666666
            },
            {
              "pitch": 71,
              "velocity": 16,
              "position": 8.25,
              "duration": 0.11041666666666666
            },
            {
              "pitch": 64,
              "velocity": 16,
              "position": 8.260416666666666,
              "duration": 0.12083333333333333
            },
            {
              "pitch": 60,
              "velocity": 16,
              "position": 8.270833333333334,
              "duration": 0.14166666666666666
            },
            {
              "pitch": 67,
              "velocity": 35,
              "position": 8.75,
              "duration": 0.20416666666666666
            },
            {
              "pitch": 71,
              "velocity": 35,
              "position": 8.75,
              "duration": 0.20416666666666666
            },
            {
              "pitch": 64,
              "velocity": 35,
              "position": 8.760416666666666,
              "duration": 0.21458333333333332
            },
            {
              "pitch": 60,
              "velocity": 35,
              "position": 8.770833333333334,
              "duration": 0.23541666666666666
            },
            {
              "pitch": 55,
              "velocity": 29,
              "position": 8.78125,
              "duration": 0.25625
            },
            {
              "pitch": 59,
              "velocity": 29,
              "position": 8.78125,
              "duration": 0.25625
            },
            {
              "pitch": 67,
              "velocity": 35,
              "position": 9.53125,
              "duration": 0.20416666666666666
            },
            {
              "pitch": 71,
              "velocity": 35,
              "position": 9.53125,
              "duration": 0.20416666666666666
            },
            {
              "pitch": 64,
              "velocity": 35,
              "position": 9.520833333333334,
              "duration": 0.21458333333333332
            },
            {
              "pitch": 60,
              "velocity": 35,
              "position": 9.510416666666666,
              "duration": 0.23541666666666666
            },
            {
              "pitch": 55,
              "velocity": 29,
              "position": 9.5,
              "duration": 0.25625
            },
            {
              "pitch": 59,
              "velocity": 29,
              "position": 9.5,
              "duration": 0.25625
            },
            {
              "pitch": 64,
              "velocity": 35,
              "position": 10.520833333333334,
              "duration": 0.21458333333333332
            },
            {
              "pitch": 60,
              "velocity": 35,
              "position": 10.510416666666666,
              "duration": 0.23541666666666666
            },
            {
              "pitch": 55,
              "velocity": 29,
              "position": 10.5,
              "duration": 0.25625
            },
            {
              "pitch": 59,
              "velocity": 29,
              "position": 10.5,
              "duration": 0.25625
            },
            {
              "pitch": 55,
              "velocity": 22,
              "position": 10.770833333333334,
              "duration": 0.21458333333333332
            },
            {
              "pitch": 59,
              "velocity": 22,
              "position": 10.770833333333334,
              "duration": 0.21458333333333332
            },
            {
              "pitch": 60,
              "velocity": 22,
              "position": 10.760416666666666,
              "duration": 0.23541666666666666
            },
            {
              "pitch": 64,
              "velocity": 22,
              "position": 10.75,
              "duration": 0.25625
            },
            {
              "pitch": 67,
              "velocity": 35,
              "position": 10.53125,
              "duration": 0.48541666666666666
            },
            {
              "pitch": 71,
              "velocity": 35,
              "position": 10.53125,
              "duration": 0.48541666666666666
            },
            {
              "pitch": 67,
              "velocity": 29,
              "position": 11.03125,
              "duration": 0.20416666666666666
            },
            {
              "pitch": 71,
              "velocity": 29,
              "position": 11.03125,
              "duration": 0.20416666666666666
            },
            {
              "pitch": 64,
              "velocity": 29,
              "position": 11.020833333333334,
              "duration": 0.225
            },
            {
              "pitch": 60,
              "velocity": 29,
              "position": 11.010416666666666,
              "duration": 0.24583333333333332
            },
            {
              "pitch": 60,
              "velocity": 35,
              "position": 11.270833333333334,
              "duration": 0.21458333333333332
            },
            {
              "pitch": 64,
              "velocity": 35,
              "position": 11.260416666666666,
              "duration": 0.23541666666666666
            },
            {
              "pitch": 67,
              "velocity": 35,
              "position": 11.25,
              "duration": 0.25625
            },
            {
              "pitch": 71,
              "velocity": 35,
              "position": 11.25,
              "duration": 0.25625
            },
            {
              "pitch": 55,
              "velocity": 29,
              "position": 11,
              "duration": 0.50625
            },
            {
              "pitch": 59,
              "velocity": 29,
              "position": 11,
              "duration": 0.50625
            },
            {
              "pitch": 67,
              "velocity": 35,
              "position": 12.03125,
              "duration": 0.20416666666666666
            },
            {
              "pitch": 71,
              "velocity": 35,
              "position": 12.03125,
              "duration": 0.20416666666666666
            },
            {
              "pitch": 64,
              "velocity": 35,
              "position": 12.020833333333334,
              "duration": 0.21458333333333332
            },
            {
              "pitch": 60,
              "velocity": 35,
              "position": 12.010416666666666,
              "duration": 0.23541666666666666
            },
            {
              "pitch": 67,
              "velocity": 16,
              "position": 12.25,
              "duration": 0.11041666666666666
            },
            {
              "pitch": 71,
              "velocity": 16,
              "position": 12.25,
              "duration": 0.11041666666666666
            },
            {
              "pitch": 64,
              "velocity": 16,
              "position": 12.260416666666666,
              "duration": 0.12083333333333333
            },
            {
              "pitch": 60,
              "velocity": 16,
              "position": 12.270833333333334,
              "duration": 0.14166666666666666
            },
            {
              "pitch": 67,
              "velocity": 35,
              "position": 12.75,
              "duration": 0.20416666666666666
            },
            {
              "pitch": 71,
              "velocity": 35,
              "position": 12.75,
              "duration": 0.20416666666666666
            },
            {
              "pitch": 64,
              "velocity": 35,
              "position": 12.760416666666666,
              "duration": 0.21458333333333332
            },
            {
              "pitch": 60,
              "velocity": 35,
              "position": 12.770833333333334,
              "duration": 0.23541666666666666
            },
            {
              "pitch": 55,
              "velocity": 29,
              "position": 12.78125,
              "duration": 0.25625
            },
            {
              "pitch": 59,
              "velocity": 29,
              "position": 12.78125,
              "duration": 0.25625
            },
            {
              "pitch": 67,
              "velocity": 35,
              "position": 13.53125,
              "duration": 0.20416666666666666
            },
            {
              "pitch": 71,
              "velocity": 35,
              "position": 13.53125,
              "duration": 0.20416666666666666
            },
            {
              "pitch": 64,
              "velocity": 35,
              "position": 13.520833333333334,
              "duration": 0.21458333333333332
            },
            {
              "pitch": 60,
              "velocity": 35,
              "position": 13.510416666666666,
              "duration": 0.23541666666666666
            },
            {
              "pitch": 55,
              "velocity": 29,
              "position": 13.5,
              "duration": 0.25625
            },
            {
              "pitch": 59,
              "velocity": 29,
              "position": 13.5,
              "duration": 0.25625
            },
            {
              "pitch": 64,
              "velocity": 35,
              "position": 14.520833333333334,
              "duration": 0.21458333333333332
            },
            {
              "pitch": 60,
              "velocity": 35,
              "position": 14.510416666666666,
              "duration": 0.23541666666666666
            },
            {
              "pitch": 55,
              "velocity": 29,
              "position": 14.5,
              "duration": 0.25625
            },
            {
              "pitch": 59,
              "velocity": 29,
              "position": 14.5,
              "duration": 0.25625
            },
            {
              "pitch": 55,
              "velocity": 22,
              "position": 14.770833333333334,
              "duration": 0.21458333333333332
            },
            {
              "pitch": 59,
              "velocity": 22,
              "position": 14.770833333333334,
              "duration": 0.21458333333333332
            },
            {
              "pitch": 60,
              "velocity": 22,
              "position": 14.760416666666666,
              "duration": 0.23541666666666666
            },
            {
              "pitch": 64,
              "velocity": 22,
              "position": 14.75,
              "duration": 0.25625
            },
            {
              "pitch": 67,
              "velocity": 35,
              "position": 14.53125,
              "duration": 0.48541666666666666
            },
            {
              "pitch": 71,
              "velocity": 35,
              "position": 14.53125,
              "duration": 0.48541666666666666
            },
            {
              "pitch": 67,
              "velocity": 29,
              "position": 15.03125,
              "duration": 0.20416666666666666
            },
            {
              "pitch": 71,
              "velocity": 29,
              "position": 15.03125,
              "duration": 0.20416666666666666
            },
            {
              "pitch": 64,
              "velocity": 29,
              "position": 15.020833333333334,
              "duration": 0.225
            },
            {
              "pitch": 60,
              "velocity": 29,
              "position": 15.010416666666666,
              "duration": 0.24583333333333332
            },
            {
              "pitch": 60,
              "velocity": 35,
              "position": 15.270833333333334,
              "duration": 0.21458333333333332
            },
            {
              "pitch": 64,
              "velocity": 35,
              "position": 15.260416666666666,
              "duration": 0.23541666666666666
            },
            {
              "pitch": 67,
              "velocity": 35,
              "position": 15.25,
              "duration": 0.25625
            },
            {
              "pitch": 71,
              "velocity": 35,
              "position": 15.25,
              "duration": 0.25625
            },
            {
              "pitch": 55,
              "velocity": 29,
              "position": 15,
              "duration": 0.50625
            },
            {
              "pitch": 59,
              "velocity": 29,
              "position": 15,
              "duration": 0.50625
            }
          ]
        },
        "3": {
          "ctab": {
            "srcChannel": 3,
            "name": "Org P",
            "accType": "CHORD2",
            "editable": false,
            "mutedNotes": [],
            "mutedChords": [
              "7th",
              "Maj"
            ],
            "autoStart": false,
            "sourceChordNote": 0,
            "sourceChordType": "Maj7",
            "ctb2Low": null,
            "ctb2Main": {
              "ntr": "ROOT_FIXED",
              "ntt": "CHORD",
              "bassOn": false,
              "chordRootUpperLimit": 7,
              "noteLowLimit": 75,
              "noteHighLimit": 79,
              "rtr": "PITCH_SHIFT"
            },
            "ctb2High": null
          },
          "notes": [
            {
              "pitch": 76,
              "velocity": 69,
              "position": 2.5,
              "duration": 0.11458333333333333
            },
            {
              "pitch": 79,
              "velocity": 74,
              "position": 2.5,
              "duration": 0.12083333333333333
            },
            {
              "pitch": 76,
              "velocity": 106,
              "position": 2.75,
              "duration": 0.11666666666666667
            },
            {
              "pitch": 79,
              "velocity": 106,
              "position": 2.75,
              "duration": 0.12916666666666668
            },
            {
              "pitch": 76,
              "velocity": 99,
              "position": 3.25,
              "duration": 0.09583333333333334
            },
            {
              "pitch": 79,
              "velocity": 94,
              "position": 3.25,
              "duration": 0.11041666666666666
            },
            {
              "pitch": 76,
              "velocity": 97,
              "position": 3.75,
              "duration": 0.10208333333333333
            },
            {
              "pitch": 79,
              "velocity": 96,
              "position": 3.75,
              "duration": 0.11041666666666666
            },
            {
              "pitch": 76,
              "velocity": 95,
              "position": 4.25,
              "duration": 0.08541666666666667
            },
            {
              "pitch": 79,
              "velocity": 93,
              "position": 4.25,
              "duration": 0.08541666666666667
            },
            {
              "pitch": 83,
              "velocity": 75,
              "position": 1,
              "duration": 3.53125
            },
            {
              "pitch": 79,
              "velocity": 86,
              "position": 5,
              "duration": 0.4354166666666667
            },
            {
              "pitch": 76,
              "velocity": 92,
              "position": 5,
              "duration": 0.44375
            },
            {
              "pitch": 76,
              "velocity": 93,
              "position": 5.5,
              "duration": 0.08958333333333333
            },
            {
              "pitch": 79,
              "velocity": 94,
              "position": 5.5,
              "duration": 0.09375
            },
            {
              "pitch": 83,
              "velocity": 75,
              "position": 4.535416666666666,
              "duration": 3.3270833333333334
            },
            {
              "pitch": 79,
              "velocity": 94,
              "position": 10.5,
              "duration": 0.22916666666666666
            },
            {
              "pitch": 76,
              "velocity": 94,
              "position": 10.5,
              "duration": 0.23541666666666666
            },
            {
              "pitch": 76,
              "velocity": 83,
              "position": 10.75,
              "duration": 0.1125
            },
            {
              "pitch": 79,
              "velocity": 77,
              "position": 10.75,
              "duration": 0.125
            },
            {
              "pitch": 76,
              "velocity": 92,
              "position": 11.25,
              "duration": 0.11666666666666667
            },
            {
              "pitch": 79,
              "velocity": 89,
              "position": 11.25,
              "duration": 0.1375
            },
            {
              "pitch": 76,
              "velocity": 99,
              "position": 11.75,
              "duration": 0.11458333333333333
            },
            {
              "pitch": 79,
              "velocity": 97,
              "position": 11.75,
              "duration": 0.12291666666666666
            },
            {
              "pitch": 83,
              "velocity": 85,
              "position": 9,
              "duration": 2.995833333333333
            },
            {
              "pitch": 76,
              "velocity": 105,
              "position": 13,
              "duration": 0.40208333333333335
            },
            {
              "pitch": 79,
              "velocity": 108,
              "position": 13,
              "duration": 0.4083333333333333
            },
            {
              "pitch": 76,
              "velocity": 111,
              "position": 13.5,
              "duration": 0.08125
            },
            {
              "pitch": 79,
              "velocity": 111,
              "position": 13.5,
              "duration": 0.0875
            },
            {
              "pitch": 83,
              "velocity": 73,
              "position": 12,
              "duration": 3.7958333333333334
            }
          ]
        },
        "4": {
          "ctab": {
            "srcChannel": 4,
            "name": "Tpt P",
            "accType": "PAD",
            "editable": false,
            "mutedNotes": [],
            "mutedChords": [
              "7(9)",
              "7th",
              "min7(9)",
              "min(9)",
              "min7",
              "Maj"
            ],
            "autoStart": false,
            "sourceChordNote": 0,
            "sourceChordType": "Maj7",
            "ctb2Low": null,
            "ctb2Main": {
              "ntr": "ROOT_FIXED",
              "ntt": "CHORD",
              "bassOn": false,
              "chordRootUpperLimit": 7,
              "noteLowLimit": 0,
              "noteHighLimit": 79,
              "rtr": "PITCH_SHIFT"
            },
            "ctb2High": null
          },
          "notes": [
            {
              "pitch": 79,
              "velocity": 75,
              "position": 4.489583333333333,
              "duration": 0.17291666666666666
            },
            {
              "pitch": 71,
              "velocity": 82,
              "position": 4.5,
              "duration": 0.18333333333333332
            },
            {
              "pitch": 71,
              "velocity": 82,
              "position": 4.989583333333333,
              "duration": 0.23541666666666666
            },
            {
              "pitch": 79,
              "velocity": 75,
              "position": 4.989583333333333,
              "duration": 0.23541666666666666
            },
            {
              "pitch": 79,
              "velocity": 75,
              "position": 5.239583333333333,
              "duration": 0.19375
            },
            {
              "pitch": 71,
              "velocity": 82,
              "position": 5.25,
              "duration": 0.18333333333333332
            },
            {
              "pitch": 67,
              "velocity": 75,
              "position": 8.489583333333334,
              "duration": 0.18333333333333332
            },
            {
              "pitch": 71,
              "velocity": 82,
              "position": 8.5,
              "duration": 0.19375
            },
            {
              "pitch": 67,
              "velocity": 75,
              "position": 9.25,
              "duration": 0.18333333333333332
            },
            {
              "pitch": 71,
              "velocity": 82,
              "position": 9.25,
              "duration": 0.19375
            },
            {
              "pitch": 67,
              "velocity": 75,
              "position": 9.989583333333334,
              "duration": 0.19375
            },
            {
              "pitch": 71,
              "velocity": 82,
              "position": 9.989583333333334,
              "duration": 0.19375
            },
            {
              "pitch": 83,
              "velocity": 48,
              "position": 14.489583333333334,
              "duration": 0.23541666666666666
            },
            {
              "pitch": 79,
              "velocity": 43,
              "position": 14.5,
              "duration": 0.225
            },
            {
              "pitch": 83,
              "velocity": 79,
              "position": 14.739583333333334,
              "duration": 0.18333333333333332
            },
            {
              "pitch": 79,
              "velocity": 75,
              "position": 14.75,
              "duration": 0.20416666666666666
            },
            {
              "pitch": 83,
              "velocity": 87,
              "position": 15.239583333333334,
              "duration": 0.18333333333333332
            },
            {
              "pitch": 79,
              "velocity": 82,
              "position": 15.25,
              "duration": 0.20416666666666666
            }
          ]
        },
        "5": {
          "ctab": {
            "srcChannel": 5,
            "name": "Sax P",
            "accType": "PHRASE1",
            "editable": false,
            "mutedNotes": [],
            "mutedChords": [
              "7(9)",
              "7th",
              "min7(9)",
              "min(9)",
              "min7",
              "Maj"
            ],
            "autoStart": false,
            "sourceChordNote": 0,
            "sourceChordType": "Maj7",
            "ctb2Low": null,
            "ctb2Main": {
              "ntr": "ROOT_FIXED",
              "ntt": "CHORD",
              "bassOn": false,
              "chordRootUpperLimit": 7,
              "noteLowLimit": 0,
              "noteHighLimit": 127,
              "rtr": "PITCH_SHIFT"
            },
            "ctb2High": null
          },
          "notes": [
            {
              "pitch": 76,
              "velocity": 127,
              "position": 0.9895833333333334,
              "duration": 0.40208333333333335
            },
            {
              "pitch": 71,
              "velocity": 127,
              "position": 0.9895833333333334,
              "duration": 0.44375
            },
            {
              "pitch": 69,
              "velocity": 40,
              "position": 1.40625,
              "duration": 0.11041666666666666
            },
            {
              "pitch": 72,
              "velocity": 40,
              "position": 1.3645833333333333,
              "duration": 0.15208333333333332
            },
            {
              "pitch": 67,
              "velocity": 30,
              "position": 1.4895833333333333,
              "duration": 0.11041666666666666
            },
            {
              "pitch": 71,
              "velocity": 30,
              "position": 1.4895833333333333,
              "duration": 0.15208333333333332
            },
            {
              "pitch": 64,
              "velocity": 20,
              "position": 1.5729166666666667,
              "duration": 0.11041666666666666
            },
            {
              "pitch": 59,
              "velocity": 10,
              "position": 1.65625,
              "duration": 0.11041666666666666
            },
            {
              "pitch": 69,
              "velocity": 20,
              "position": 1.6145833333333333,
              "duration": 0.15208333333333332
            },
            {
              "pitch": 55,
              "velocity": 10,
              "position": 1.7395833333333333,
              "duration": 0.11041666666666666
            },
            {
              "pitch": 67,
              "velocity": 10,
              "position": 1.7395833333333333,
              "duration": 0.15208333333333332
            },
            {
              "pitch": 64,
              "velocity": 1,
              "position": 1.8645833333333333,
              "duration": 0.15208333333333332
            },
            {
              "pitch": 76,
              "velocity": 40,
              "position": 4.5,
              "duration": 0.18333333333333332
            },
            {
              "pitch": 67,
              "velocity": 101,
              "position": 4.53125,
              "duration": 0.19375
            },
            {
              "pitch": 67,
              "velocity": 92,
              "position": 5,
              "duration": 0.225
            },
            {
              "pitch": 76,
              "velocity": 39,
              "position": 5,
              "duration": 0.225
            },
            {
              "pitch": 67,
              "velocity": 101,
              "position": 5.239583333333333,
              "duration": 0.1625
            },
            {
              "pitch": 76,
              "velocity": 36,
              "position": 5.25,
              "duration": 0.17291666666666666
            },
            {
              "pitch": 64,
              "velocity": 125,
              "position": 8.489583333333334,
              "duration": 0.17291666666666666
            },
            {
              "pitch": 59,
              "velocity": 117,
              "position": 8.489583333333334,
              "duration": 0.18333333333333332
            },
            {
              "pitch": 64,
              "velocity": 115,
              "position": 9.25,
              "duration": 0.1625
            },
            {
              "pitch": 59,
              "velocity": 127,
              "position": 9.25,
              "duration": 0.18333333333333332
            },
            {
              "pitch": 59,
              "velocity": 123,
              "position": 10,
              "duration": 0.17291666666666666
            },
            {
              "pitch": 64,
              "velocity": 124,
              "position": 9.989583333333334,
              "duration": 0.19375
            },
            {
              "pitch": 71,
              "velocity": 94,
              "position": 14.5,
              "duration": 0.225
            },
            {
              "pitch": 76,
              "velocity": 36,
              "position": 14.5,
              "duration": 0.225
            },
            {
              "pitch": 71,
              "velocity": 126,
              "position": 14.739583333333334,
              "duration": 0.20416666666666666
            },
            {
              "pitch": 76,
              "velocity": 51,
              "position": 14.75,
              "duration": 0.19375
            },
            {
              "pitch": 71,
              "velocity": 126,
              "position": 15.239583333333334,
              "duration": 0.20416666666666666
            },
            {
              "pitch": 76,
              "velocity": 51,
              "position": 15.25,
              "duration": 0.19375
            }
          ]
        },
        "6": {
          "ctab": {
            "srcChannel": 6,
            "name": "Bari P",
            "accType": "PHRASE2",
            "editable": false,
            "mutedNotes": [],
            "mutedChords": [
              "7(9)",
              "7th",
              "min7(9)",
              "min(9)",
              "min7",
              "Maj"
            ],
            "autoStart": false,
            "sourceChordNote": 0,
            "sourceChordType": "Maj7",
            "ctb2Low": null,
            "ctb2Main": {
              "ntr": "ROOT_TRANSPOSITION",
              "ntt": "MELODY",
              "bassOn": true,
              "chordRootUpperLimit": 3,
              "noteLowLimit": 33,
              "noteHighLimit": 127,
              "rtr": "PITCH_SHIFT_TO_ROOT"
            },
            "ctb2High": null
          },
          "notes": [
            {
              "pitch": 64,
              "velocity": 65,
              "position": 0.9895833333333334,
              "duration": 0.44375
            },
            {
              "pitch": 60,
              "velocity": 38,
              "position": 1.40625,
              "duration": 0.11041666666666666
            },
            {
              "pitch": 59,
              "velocity": 35,
              "position": 1.4895833333333333,
              "duration": 0.11041666666666666
            },
            {
              "pitch": 57,
              "velocity": 32,
              "position": 1.5729166666666667,
              "duration": 0.11041666666666666
            },
            {
              "pitch": 55,
              "velocity": 29,
              "position": 1.65625,
              "duration": 0.11041666666666666
            },
            {
              "pitch": 52,
              "velocity": 29,
              "position": 1.7395833333333333,
              "duration": 0.11041666666666666
            },
            {
              "pitch": 48,
              "velocity": 29,
              "position": 1.8229166666666667,
              "duration": 0.11041666666666666
            },
            {
              "pitch": 47,
              "velocity": 29,
              "position": 1.90625,
              "duration": 0.11041666666666666
            },
            {
              "pitch": 52,
              "velocity": 92,
              "position": 4.5,
              "duration": 0.18333333333333332
            },
            {
              "pitch": 52,
              "velocity": 89,
              "position": 5,
              "duration": 0.23541666666666666
            },
            {
              "pitch": 52,
              "velocity": 85,
              "position": 5.25,
              "duration": 0.17291666666666666
            },
            {
              "pitch": 52,
              "velocity": 89,
              "position": 8.489583333333334,
              "duration": 0.17291666666666666
            },
            {
              "pitch": 36,
              "velocity": 120,
              "position": 8.739583333333334,
              "duration": 0.1625
            },
            {
              "pitch": 52,
              "velocity": 92,
              "position": 9.239583333333334,
              "duration": 0.18333333333333332
            },
            {
              "pitch": 36,
              "velocity": 115,
              "position": 9.5,
              "duration": 0.1625
            },
            {
              "pitch": 52,
              "velocity": 88,
              "position": 10,
              "duration": 0.18333333333333332
            },
            {
              "pitch": 36,
              "velocity": 120,
              "position": 13.489583333333334,
              "duration": 0.1625
            },
            {
              "pitch": 36,
              "velocity": 115,
              "position": 14.25,
              "duration": 0.1625
            },
            {
              "pitch": 55,
              "velocity": 68,
              "position": 14.489583333333334,
              "duration": 0.23541666666666666
            },
            {
              "pitch": 55,
              "velocity": 92,
              "position": 14.739583333333334,
              "duration": 0.23541666666666666
            },
            {
              "pitch": 55,
              "velocity": 88,
              "position": 15.25,
              "duration": 0.225
            }
          ]
        },
        "8": {
          "ctab": {
            "srcChannel": 8,
            "name": "Perc",
            "accType": "SUBRHYTHM",
            "editable": false,
            "mutedNotes": [],
            "mutedChords": [],
            "autoStart": true,
            "sourceChordNote": 0,
            "sourceChordType": "Maj7",
            "ctb2Low": null,
            "ctb2Main": {
              "ntr": "ROOT_FIXED",
              "ntt": "BYPASS",
              "bassOn": false,
              "chordRootUpperLimit": 6,
              "noteLowLimit": 0,
              "noteHighLimit": 127,
              "rtr": "PITCH_SHIFT"
            },
            "ctb2High": null
          },
          "notes": [
            {
              "pitch": 54,
              "velocity": 80,
              "position": 0,
              "duration": 0.00625
            },
            {
              "pitch": 82,
              "velocity": 60,
              "position": 0,
              "duration": 0.00625
            },
            {
              "pitch": 54,
              "velocity": 30,
              "position": 0.25,
              "duration": 0.00625
            },
            {
              "pitch": 82,
              "velocity": 30,
              "position": 0.25,
              "duration": 0.00625
            },
            {
              "pitch": 54,
              "velocity": 60,
              "position": 0.5,
              "duration": 0.00625
            },
            {
              "pitch": 82,
              "velocity": 80,
              "position": 0.5,
              "duration": 0.00625
            },
            {
              "pitch": 54,
              "velocity": 30,
              "position": 0.75,
              "duration": 0.00625
            },
            {
              "pitch": 82,
              "velocity": 30,
              "position": 0.75,
              "duration": 0.00625
            },
            {
              "pitch": 54,
              "velocity": 80,
              "position": 1,
              "duration": 0.00625
            },
            {
              "pitch": 82,
              "velocity": 60,
              "position": 1,
              "duration": 0.00625
            },
            {
              "pitch": 54,
              "velocity": 30,
              "position": 1.25,
              "duration": 0.00625
            },
            {
              "pitch": 82,
              "velocity": 30,
              "position": 1.25,
              "duration": 0.00625
            },
            {
              "pitch": 54,
              "velocity": 60,
              "position": 1.5,
              "duration": 0.00625
            },
            {
              "pitch": 82,
              "velocity": 80,
              "position": 1.5,
              "duration": 0.00625
            },
            {
              "pitch": 54,
              "velocity": 30,
              "position": 1.75,
              "duration": 0.00625
            },
            {
              "pitch": 82,
              "velocity": 30,
              "position": 1.75,
              "duration": 0.00625
            },
            {
              "pitch": 54,
              "velocity": 80,
              "position": 2,
              "duration": 0.00625
            },
            {
              "pitch": 82,
              "velocity": 60,
              "position": 2,
              "duration": 0.00625
            },
            {
              "pitch": 54,
              "velocity": 30,
              "position": 2.25,
              "duration": 0.00625
            },
            {
              "pitch": 82,
              "velocity": 30,
              "position": 2.25,
              "duration": 0.00625
            },
            {
              "pitch": 54,
              "velocity": 60,
              "position": 2.5,
              "duration": 0.00625
            },
            {
              "pitch": 82,
              "velocity": 80,
              "position": 2.5,
              "duration": 0.00625
            },
            {
              "pitch": 54,
              "velocity": 30,
              "position": 2.75,
              "duration": 0.00625
            },
            {
              "pitch": 82,
              "velocity": 30,
              "position": 2.75,
              "duration": 0.00625
            },
            {
              "pitch": 54,
              "velocity": 80,
              "position": 3,
              "duration": 0.00625
            },
            {
              "pitch": 82,
              "velocity": 60,
              "position": 3,
              "duration": 0.00625
            },
            {
              "pitch": 54,
              "velocity": 30,
              "position": 3.25,
              "duration": 0.00625
            },
            {
              "pitch": 82,
              "velocity": 30,
              "position": 3.25,
              "duration": 0.00625
            },
            {
              "pitch": 54,
              "velocity": 60,
              "position": 3.5,
              "duration": 0.00625
            },
            {
              "pitch": 82,
              "velocity": 80,
              "position": 3.5,
              "duration": 0.00625
            },
            {
              "pitch": 54,
              "velocity": 30,
              "position": 3.75,
              "duration": 0.00625
            },
            {
              "pitch": 82,
              "velocity": 30,
              "position": 3.75,
              "duration": 0.00625
            },
            {
              "pitch": 54,
              "velocity": 80,
              "position": 4,
              "duration": 0.00625
            },
            {
              "pitch": 82,
              "velocity": 60,
              "position": 4,
              "duration": 0.00625
            },
            {
              "pitch": 54,
              "velocity": 30,
              "position": 4.25,
              "duration": 0.00625
            },
            {
              "pitch": 82,
              "velocity": 30,
              "position": 4.25,
              "duration": 0.00625
            },
            {
              "pitch": 54,
              "velocity": 60,
              "position": 4.5,
              "duration": 0.00625
            },
            {
              "pitch": 82,
              "velocity": 80,
              "position": 4.5,
              "duration": 0.00625
            },
            {
              "pitch": 54,
              "velocity": 30,
              "position": 4.75,
              "duration": 0.00625
            },
            {
              "pitch": 82,
              "velocity": 30,
              "position": 4.75,
              "duration": 0.00625
            },
            {
              "pitch": 54,
              "velocity": 80,
              "position": 5,
              "duration": 0.00625
            },
            {
              "pitch": 82,
              "velocity": 60,
              "position": 5,
              "duration": 0.00625
            },
            {
              "pitch": 54,
              "velocity": 30,
              "position": 5.25,
              "duration": 0.00625
            },
            {
              "pitch": 82,
              "velocity": 30,
              "position": 5.25,
              "duration": 0.00625
            },
            {
              "pitch": 54,
              "velocity": 60,
              "position": 5.5,
              "duration": 0.00625
            },
            {
              "pitch": 82,
              "velocity": 80,
              "position": 5.5,
              "duration": 0.00625
            },
            {
              "pitch": 54,
              "velocity": 30,
              "position": 5.75,
              "duration": 0.00625
            },
            {
              "pitch": 82,
              "velocity": 30,
              "position": 5.75,
              "duration": 0.00625
            },
            {
              "pitch": 54,
              "velocity": 80,
              "position": 6,
              "duration": 0.00625
            },
            {
              "pitch": 82,
              "velocity": 60,
              "position": 6,
              "duration": 0.00625
            },
            {
              "pitch": 54,
              "velocity": 30,
              "position": 6.25,
              "duration": 0.00625
            },
            {
              "pitch": 82,
              "velocity": 30,
              "position": 6.25,
              "duration": 0.00625
            },
            {
              "pitch": 54,
              "velocity": 60,
              "position": 6.5,
              "duration": 0.00625
            },
            {
              "pitch": 82,
              "velocity": 80,
              "position": 6.5,
              "duration": 0.00625
            },
            {
              "pitch": 54,
              "velocity": 30,
              "position": 6.75,
              "duration": 0.00625
            },
            {
              "pitch": 82,
              "velocity": 30,
              "position": 6.75,
              "duration": 0.00625
            },
            {
              "pitch": 54,
              "velocity": 80,
              "position": 7,
              "duration": 0.00625
            },
            {
              "pitch": 82,
              "velocity": 60,
              "position": 7,
              "duration": 0.00625
            },
            {
              "pitch": 54,
              "velocity": 30,
              "position": 7.25,
              "duration": 0.00625
            },
            {
              "pitch": 82,
              "velocity": 30,
              "position": 7.25,
              "duration": 0.00625
            },
            {
              "pitch": 54,
              "velocity": 60,
              "position": 7.5,
              "duration": 0.00625
            },
            {
              "pitch": 82,
              "velocity": 80,
              "position": 7.5,
              "duration": 0.00625
            },
            {
              "pitch": 54,
              "velocity": 30,
              "position": 7.75,
              "duration": 0.00625
            },
            {
              "pitch": 82,
              "velocity": 30,
              "position": 7.75,
              "duration": 0.00625
            },
            {
              "pitch": 54,
              "velocity": 80,
              "position": 8,
              "duration": 0.00625
            },
            {
              "pitch": 82,
              "velocity": 60,
              "position": 8,
              "duration": 0.00625
            },
            {
              "pitch": 54,
              "velocity": 30,
              "position": 8.25,
              "duration": 0.00625
            },
            {
              "pitch": 82,
              "velocity": 30,
              "position": 8.25,
              "duration": 0.00625
            },
            {
              "pitch": 54,
              "velocity": 60,
              "position": 8.5,
              "duration": 0.00625
            },
            {
              "pitch": 82,
              "velocity": 80,
              "position": 8.5,
              "duration": 0.00625
            },
            {
              "pitch": 54,
              "velocity": 30,
              "position": 8.75,
              "duration": 0.00625
            },
            {
              "pitch": 82,
              "velocity": 30,
              "position": 8.75,
              "duration": 0.00625
            },
            {
              "pitch": 54,
              "velocity": 80,
              "position": 9,
              "duration": 0.00625
            },
            {
              "pitch": 82,
              "velocity": 60,
              "position": 9,
              "duration": 0.00625
            },
            {
              "pitch": 54,
              "velocity": 30,
              "position": 9.25,
              "duration": 0.00625
            },
            {
              "pitch": 82,
              "velocity": 30,
              "position": 9.25,
              "duration": 0.00625
            },
            {
              "pitch": 54,
              "velocity": 60,
              "position": 9.5,
              "duration": 0.00625
            },
            {
              "pitch": 82,
              "velocity": 80,
              "position": 9.5,
              "duration": 0.00625
            },
            {
              "pitch": 54,
              "velocity": 30,
              "position": 9.75,
              "duration": 0.00625
            },
            {
              "pitch": 82,
              "velocity": 30,
              "position": 9.75,
              "duration": 0.00625
            },
            {
              "pitch": 54,
              "velocity": 80,
              "position": 10,
              "duration": 0.00625
            },
            {
              "pitch": 82,
              "velocity": 60,
              "position": 10,
              "duration": 0.00625
            },
            {
              "pitch": 54,
              "velocity": 30,
              "position": 10.25,
              "duration": 0.00625
            },
            {
              "pitch": 82,
              "velocity": 30,
              "position": 10.25,
              "duration": 0.00625
            },
            {
              "pitch": 54,
              "velocity": 60,
              "position": 10.5,
              "duration": 0.00625
            },
            {
              "pitch": 82,
              "velocity": 80,
              "position": 10.5,
              "duration": 0.00625
            },
            {
              "pitch": 54,
              "velocity": 30,
              "position": 10.75,
              "duration": 0.00625
            },
            {
              "pitch": 82,
              "velocity": 30,
              "position": 10.75,
              "duration": 0.00625
            },
            {
              "pitch": 54,
              "velocity": 80,
              "position": 11,
              "duration": 0.00625
            },
            {
              "pitch": 82,
              "velocity": 60,
              "position": 11,
              "duration": 0.00625
            },
            {
              "pitch": 54,
              "velocity": 30,
              "position": 11.25,
              "duration": 0.00625
            },
            {
              "pitch": 82,
              "velocity": 30,
              "position": 11.25,
              "duration": 0.00625
            },
            {
              "pitch": 54,
              "velocity": 60,
              "position": 11.5,
              "duration": 0.00625
            },
            {
              "pitch": 82,
              "velocity": 80,
              "position": 11.5,
              "duration": 0.00625
            },
            {
              "pitch": 54,
              "velocity": 30,
              "position": 11.75,
              "duration": 0.00625
            },
            {
              "pitch": 82,
              "velocity": 30,
              "position": 11.75,
              "duration": 0.00625
            },
            {
              "pitch": 54,
              "velocity": 80,
              "position": 12,
              "duration": 0.00625
            },
            {
              "pitch": 82,
              "velocity": 60,
              "position": 12,
              "duration": 0.00625
            },
            {
              "pitch": 54,
              "velocity": 30,
              "position": 12.25,
              "duration": 0.00625
            },
            {
              "pitch": 82,
              "velocity": 30,
              "position": 12.25,
              "duration": 0.00625
            },
            {
              "pitch": 54,
              "velocity": 60,
              "position": 12.5,
              "duration": 0.00625
            },
            {
              "pitch": 82,
              "velocity": 80,
              "position": 12.5,
              "duration": 0.00625
            },
            {
              "pitch": 54,
              "velocity": 30,
              "position": 12.75,
              "duration": 0.00625
            },
            {
              "pitch": 82,
              "velocity": 30,
              "position": 12.75,
              "duration": 0.00625
            },
            {
              "pitch": 54,
              "velocity": 80,
              "position": 13,
              "duration": 0.00625
            },
            {
              "pitch": 82,
              "velocity": 60,
              "position": 13,
              "duration": 0.00625
            },
            {
              "pitch": 54,
              "velocity": 30,
              "position": 13.25,
              "duration": 0.00625
            },
            {
              "pitch": 82,
              "velocity": 30,
              "position": 13.25,
              "duration": 0.00625
            },
            {
              "pitch": 54,
              "velocity": 60,
              "position": 13.5,
              "duration": 0.00625
            },
            {
              "pitch": 82,
              "velocity": 80,
              "position": 13.5,
              "duration": 0.00625
            },
            {
              "pitch": 54,
              "velocity": 30,
              "position": 13.75,
              "duration": 0.00625
            },
            {
              "pitch": 82,
              "velocity": 30,
              "position": 13.75,
              "duration": 0.00625
            },
            {
              "pitch": 54,
              "velocity": 80,
              "position": 14,
              "duration": 0.00625
            },
            {
              "pitch": 82,
              "velocity": 60,
              "position": 14,
              "duration": 0.00625
            },
            {
              "pitch": 54,
              "velocity": 30,
              "position": 14.25,
              "duration": 0.00625
            },
            {
              "pitch": 82,
              "velocity": 30,
              "position": 14.25,
              "duration": 0.00625
            },
            {
              "pitch": 54,
              "velocity": 60,
              "position": 14.5,
              "duration": 0.00625
            },
            {
              "pitch": 82,
              "velocity": 80,
              "position": 14.5,
              "duration": 0.00625
            },
            {
              "pitch": 54,
              "velocity": 30,
              "position": 14.75,
              "duration": 0.00625
            },
            {
              "pitch": 82,
              "velocity": 30,
              "position": 14.75,
              "duration": 0.00625
            },
            {
              "pitch": 54,
              "velocity": 80,
              "position": 15,
              "duration": 0.00625
            },
            {
              "pitch": 82,
              "velocity": 60,
              "position": 15,
              "duration": 0.00625
            },
            {
              "pitch": 54,
              "velocity": 30,
              "position": 15.25,
              "duration": 0.00625
            },
            {
              "pitch": 82,
              "velocity": 30,
              "position": 15.25,
              "duration": 0.00625
            },
            {
              "pitch": 54,
              "velocity": 60,
              "position": 15.5,
              "duration": 0.00625
            },
            {
              "pitch": 82,
              "velocity": 80,
              "position": 15.5,
              "duration": 0.00625
            },
            {
              "pitch": 54,
              "velocity": 30,
              "position": 15.75,
              "duration": 0.00625
            },
            {
              "pitch": 82,
              "velocity": 30,
              "position": 15.75,
              "duration": 0.00625
            }
          ]
        },
        "9": {
          "ctab": {
            "srcChannel": 9,
            "name": "Drs",
            "accType": "RHYTHM",
            "editable": false,
            "mutedNotes": [],
            "mutedChords": [],
            "autoStart": true,
            "sourceChordNote": 0,
            "sourceChordType": "Maj7",
            "ctb2Low": null,
            "ctb2Main": {
              "ntr": "ROOT_FIXED",
              "ntt": "BYPASS",
              "bassOn": false,
              "chordRootUpperLimit": 6,
              "noteLowLimit": 0,
              "noteHighLimit": 127,
              "rtr": "PITCH_SHIFT"
            },
            "ctb2High": null
          },
          "notes": [
            {
              "pitch": 33,
              "velocity": 105,
              "position": 0,
              "duration": 0.00625
            },
            {
              "pitch": 59,
              "velocity": 103,
              "position": 0,
              "duration": 0.00625
            },
            {
              "pitch": 53,
              "velocity": 101,
              "position": 0,
              "duration": 0.00625
            },
            {
              "pitch": 44,
              "velocity": 62,
              "position": 0,
              "duration": 0.00625
            },
            {
              "pitch": 31,
              "velocity": 25,
              "position": 0.2708333333333333,
              "duration": 0.00625
            },
            {
              "pitch": 44,
              "velocity": 49,
              "position": 0.5,
              "duration": 0.00625
            },
            {
              "pitch": 59,
              "velocity": 67,
              "position": 0.5,
              "duration": 0.00625
            },
            {
              "pitch": 33,
              "velocity": 105,
              "position": 0.7708333333333334,
              "duration": 0.00625
            },
            {
              "pitch": 31,
              "velocity": 125,
              "position": 1,
              "duration": 0.00625
            },
            {
              "pitch": 59,
              "velocity": 103,
              "position": 1,
              "duration": 0.00625
            },
            {
              "pitch": 53,
              "velocity": 101,
              "position": 1,
              "duration": 0.00625
            },
            {
              "pitch": 44,
              "velocity": 62,
              "position": 1,
              "duration": 0.00625
            },
            {
              "pitch": 31,
              "velocity": 25,
              "position": 1.2708333333333333,
              "duration": 0.00625
            },
            {
              "pitch": 33,
              "velocity": 105,
              "position": 1.5,
              "duration": 0.00625
            },
            {
              "pitch": 59,
              "velocity": 67,
              "position": 1.5,
              "duration": 0.00625
            },
            {
              "pitch": 44,
              "velocity": 49,
              "position": 1.5,
              "duration": 0.00625
            },
            {
              "pitch": 31,
              "velocity": 25,
              "position": 1.7708333333333333,
              "duration": 0.00625
            },
            {
              "pitch": 44,
              "velocity": 62,
              "position": 2,
              "duration": 0.00625
            },
            {
              "pitch": 59,
              "velocity": 103,
              "position": 2,
              "duration": 0.00625
            },
            {
              "pitch": 53,
              "velocity": 101,
              "position": 2,
              "duration": 0.00625
            },
            {
              "pitch": 31,
              "velocity": 79,
              "position": 2.2708333333333335,
              "duration": 0.00625
            },
            {
              "pitch": 33,
              "velocity": 105,
              "position": 2.5,
              "duration": 0.00625
            },
            {
              "pitch": 59,
              "velocity": 67,
              "position": 2.5,
              "duration": 0.00625
            },
            {
              "pitch": 44,
              "velocity": 49,
              "position": 2.5,
              "duration": 0.00625
            },
            {
              "pitch": 31,
              "velocity": 25,
              "position": 2.7708333333333335,
              "duration": 0.00625
            },
            {
              "pitch": 31,
              "velocity": 125,
              "position": 3,
              "duration": 0.00625
            },
            {
              "pitch": 59,
              "velocity": 103,
              "position": 3,
              "duration": 0.00625
            },
            {
              "pitch": 53,
              "velocity": 101,
              "position": 3,
              "duration": 0.00625
            },
            {
              "pitch": 44,
              "velocity": 62,
              "position": 3,
              "duration": 0.00625
            },
            {
              "pitch": 31,
              "velocity": 25,
              "position": 3.2708333333333335,
              "duration": 0.00625
            },
            {
              "pitch": 33,
              "velocity": 105,
              "position": 3.2708333333333335,
              "duration": 0.00625
            },
            {
              "pitch": 44,
              "velocity": 49,
              "position": 3.5,
              "duration": 0.00625
            },
            {
              "pitch": 59,
              "velocity": 67,
              "position": 3.5,
              "duration": 0.00625
            },
            {
              "pitch": 31,
              "velocity": 25,
              "position": 3.7708333333333335,
              "duration": 0.00625
            },
            {
              "pitch": 33,
              "velocity": 105,
              "position": 4,
              "duration": 0.00625
            },
            {
              "pitch": 59,
              "velocity": 103,
              "position": 4,
              "duration": 0.00625
            },
            {
              "pitch": 53,
              "velocity": 101,
              "position": 4,
              "duration": 0.00625
            },
            {
              "pitch": 44,
              "velocity": 62,
              "position": 4,
              "duration": 0.00625
            },
            {
              "pitch": 31,
              "velocity": 25,
              "position": 4.270833333333333,
              "duration": 0.00625
            },
            {
              "pitch": 44,
              "velocity": 49,
              "position": 4.5,
              "duration": 0.00625
            },
            {
              "pitch": 59,
              "velocity": 67,
              "position": 4.5,
              "duration": 0.00625
            },
            {
              "pitch": 33,
              "velocity": 105,
              "position": 4.770833333333333,
              "duration": 0.00625
            },
            {
              "pitch": 31,
              "velocity": 125,
              "position": 5,
              "duration": 0.00625
            },
            {
              "pitch": 59,
              "velocity": 103,
              "position": 5,
              "duration": 0.00625
            },
            {
              "pitch": 53,
              "velocity": 101,
              "position": 5,
              "duration": 0.00625
            },
            {
              "pitch": 44,
              "velocity": 62,
              "position": 5,
              "duration": 0.00625
            },
            {
              "pitch": 31,
              "velocity": 25,
              "position": 5.270833333333333,
              "duration": 0.00625
            },
            {
              "pitch": 33,
              "velocity": 105,
              "position": 5.5,
              "duration": 0.00625
            },
            {
              "pitch": 59,
              "velocity": 67,
              "position": 5.5,
              "duration": 0.00625
            },
            {
              "pitch": 44,
              "velocity": 49,
              "position": 5.5,
              "duration": 0.00625
            },
            {
              "pitch": 31,
              "velocity": 25,
              "position": 5.770833333333333,
              "duration": 0.00625
            },
            {
              "pitch": 44,
              "velocity": 62,
              "position": 6,
              "duration": 0.00625
            },
            {
              "pitch": 59,
              "velocity": 103,
              "position": 6,
              "duration": 0.00625
            },
            {
              "pitch": 53,
              "velocity": 101,
              "position": 6,
              "duration": 0.00625
            },
            {
              "pitch": 31,
              "velocity": 85,
              "position": 6.270833333333333,
              "duration": 0.00625
            },
            {
              "pitch": 33,
              "velocity": 105,
              "position": 6.5,
              "duration": 0.00625
            },
            {
              "pitch": 59,
              "velocity": 67,
              "position": 6.5,
              "duration": 0.00625
            },
            {
              "pitch": 44,
              "velocity": 49,
              "position": 6.5,
              "duration": 0.00625
            },
            {
              "pitch": 31,
              "velocity": 25,
              "position": 6.770833333333333,
              "duration": 0.00625
            },
            {
              "pitch": 31,
              "velocity": 125,
              "position": 7,
              "duration": 0.00625
            },
            {
              "pitch": 59,
              "velocity": 103,
              "position": 7,
              "duration": 0.00625
            },
            {
              "pitch": 53,
              "velocity": 101,
              "position": 7,
              "duration": 0.00625
            },
            {
              "pitch": 44,
              "velocity": 62,
              "position": 7,
              "duration": 0.00625
            },
            {
              "pitch": 31,
              "velocity": 25,
              "position": 7.270833333333333,
              "duration": 0.00625
            },
            {
              "pitch": 44,
              "velocity": 49,
              "position": 7.5,
              "duration": 0.00625
            },
            {
              "pitch": 59,
              "velocity": 67,
              "position": 7.5,
              "duration": 0.00625
            },
            {
              "pitch": 31,
              "velocity": 25,
              "position": 7.770833333333333,
              "duration": 0.00625
            },
            {
              "pitch": 33,
              "velocity": 105,
              "position": 8,
              "duration": 0.00625
            },
            {
              "pitch": 59,
              "velocity": 103,
              "position": 8,
              "duration": 0.00625
            },
            {
              "pitch": 53,
              "velocity": 101,
              "position": 8,
              "duration": 0.00625
            },
            {
              "pitch": 44,
              "velocity": 62,
              "position": 8,
              "duration": 0.00625
            },
            {
              "pitch": 31,
              "velocity": 25,
              "position": 8.270833333333334,
              "duration": 0.00625
            },
            {
              "pitch": 44,
              "velocity": 49,
              "position": 8.5,
              "duration": 0.00625
            },
            {
              "pitch": 59,
              "velocity": 67,
              "position": 8.5,
              "duration": 0.00625
            },
            {
              "pitch": 33,
              "velocity": 105,
              "position": 8.770833333333334,
              "duration": 0.00625
            },
            {
              "pitch": 31,
              "velocity": 125,
              "position": 9,
              "duration": 0.00625
            },
            {
              "pitch": 59,
              "velocity": 103,
              "position": 9,
              "duration": 0.00625
            },
            {
              "pitch": 53,
              "velocity": 101,
              "position": 9,
              "duration": 0.00625
            },
            {
              "pitch": 44,
              "velocity": 62,
              "position": 9,
              "duration": 0.00625
            },
            {
              "pitch": 31,
              "velocity": 25,
              "position": 9.270833333333334,
              "duration": 0.00625
            },
            {
              "pitch": 33,
              "velocity": 105,
              "position": 9.5,
              "duration": 0.00625
            },
            {
              "pitch": 59,
              "velocity": 67,
              "position": 9.5,
              "duration": 0.00625
            },
            {
              "pitch": 44,
              "velocity": 49,
              "position": 9.5,
              "duration": 0.00625
            },
            {
              "pitch": 31,
              "velocity": 25,
              "position": 9.770833333333334,
              "duration": 0.00625
            },
            {
              "pitch": 44,
              "velocity": 62,
              "position": 10,
              "duration": 0.00625
            },
            {
              "pitch": 59,
              "velocity": 103,
              "position": 10,
              "duration": 0.00625
            },
            {
              "pitch": 53,
              "velocity": 101,
              "position": 10,
              "duration": 0.00625
            },
            {
              "pitch": 31,
              "velocity": 76,
              "position": 10.270833333333334,
              "duration": 0.00625
            },
            {
              "pitch": 33,
              "velocity": 105,
              "position": 10.5,
              "duration": 0.00625
            },
            {
              "pitch": 59,
              "velocity": 67,
              "position": 10.5,
              "duration": 0.00625
            },
            {
              "pitch": 44,
              "velocity": 49,
              "position": 10.5,
              "duration": 0.00625
            },
            {
              "pitch": 31,
              "velocity": 25,
              "position": 10.770833333333334,
              "duration": 0.00625
            },
            {
              "pitch": 31,
              "velocity": 125,
              "position": 11,
              "duration": 0.00625
            },
            {
              "pitch": 59,
              "velocity": 103,
              "position": 11,
              "duration": 0.00625
            },
            {
              "pitch": 53,
              "velocity": 101,
              "position": 11,
              "duration": 0.00625
            },
            {
              "pitch": 44,
              "velocity": 62,
              "position": 11,
              "duration": 0.00625
            },
            {
              "pitch": 31,
              "velocity": 25,
              "position": 11.270833333333334,
              "duration": 0.00625
            },
            {
              "pitch": 33,
              "velocity": 105,
              "position": 11.270833333333334,
              "duration": 0.00625
            },
            {
              "pitch": 44,
              "velocity": 49,
              "position": 11.5,
              "duration": 0.00625
            },
            {
              "pitch": 59,
              "velocity": 67,
              "position": 11.5,
              "duration": 0.00625
            },
            {
              "pitch": 31,
              "velocity": 25,
              "position": 11.770833333333334,
              "duration": 0.00625
            },
            {
              "pitch": 33,
              "velocity": 105,
              "position": 12,
              "duration": 0.00625
            },
            {
              "pitch": 59,
              "velocity": 103,
              "position": 12,
              "duration": 0.00625
            },
            {
              "pitch": 53,
              "velocity": 101,
              "position": 12,
              "duration": 0.00625
            },
            {
              "pitch": 44,
              "velocity": 62,
              "position": 12,
              "duration": 0.00625
            },
            {
              "pitch": 31,
              "velocity": 25,
              "position": 12.270833333333334,
              "duration": 0.00625
            },
            {
              "pitch": 44,
              "velocity": 49,
              "position": 12.5,
              "duration": 0.00625
            },
            {
              "pitch": 59,
              "velocity": 67,
              "position": 12.5,
              "duration": 0.00625
            },
            {
              "pitch": 33,
              "velocity": 105,
              "position": 12.770833333333334,
              "duration": 0.00625
            },
            {
              "pitch": 31,
              "velocity": 125,
              "position": 13,
              "duration": 0.00625
            },
            {
              "pitch": 59,
              "velocity": 103,
              "position": 13,
              "duration": 0.00625
            },
            {
              "pitch": 53,
              "velocity": 101,
              "position": 13,
              "duration": 0.00625
            },
            {
              "pitch": 44,
              "velocity": 62,
              "position": 13,
              "duration": 0.00625
            },
            {
              "pitch": 31,
              "velocity": 25,
              "position": 13.270833333333334,
              "duration": 0.00625
            },
            {
              "pitch": 33,
              "velocity": 105,
              "position": 13.5,
              "duration": 0.00625
            },
            {
              "pitch": 59,
              "velocity": 67,
              "position": 13.5,
              "duration": 0.00625
            },
            {
              "pitch": 44,
              "velocity": 49,
              "position": 13.5,
              "duration": 0.00625
            },
            {
              "pitch": 31,
              "velocity": 25,
              "position": 13.770833333333334,
              "duration": 0.00625
            },
            {
              "pitch": 44,
              "velocity": 62,
              "position": 14,
              "duration": 0.00625
            },
            {
              "pitch": 59,
              "velocity": 103,
              "position": 14,
              "duration": 0.00625
            },
            {
              "pitch": 53,
              "velocity": 101,
              "position": 14,
              "duration": 0.00625
            },
            {
              "pitch": 31,
              "velocity": 85,
              "position": 14.270833333333334,
              "duration": 0.00625
            },
            {
              "pitch": 33,
              "velocity": 105,
              "position": 14.5,
              "duration": 0.00625
            },
            {
              "pitch": 59,
              "velocity": 67,
              "position": 14.5,
              "duration": 0.00625
            },
            {
              "pitch": 44,
              "velocity": 49,
              "position": 14.5,
              "duration": 0.00625
            },
            {
              "pitch": 31,
              "velocity": 25,
              "position": 14.770833333333334,
              "duration": 0.00625
            },
            {
              "pitch": 31,
              "velocity": 125,
              "position": 15,
              "duration": 0.00625
            },
            {
              "pitch": 59,
              "velocity": 103,
              "position": 15,
              "duration": 0.00625
            },
            {
              "pitch": 53,
              "velocity": 101,
              "position": 15,
              "duration": 0.00625
            },
            {
              "pitch": 44,
              "velocity": 62,
              "position": 15,
              "duration": 0.00625
            },
            {
              "pitch": 31,
              "velocity": 25,
              "position": 15.270833333333334,
              "duration": 0.00625
            },
            {
              "pitch": 44,
              "velocity": 49,
              "position": 15.5,
              "duration": 0.00625
            },
            {
              "pitch": 59,
              "velocity": 67,
              "position": 15.5,
              "duration": 0.00625
            },
            {
              "pitch": 31,
              "velocity": 25,
              "position": 15.770833333333334,
              "duration": 0.00625
            }
          ]
        },
        "10": {
          "ctab": {
            "srcChannel": 10,
            "name": "Bass S",
            "accType": "BASS",
            "editable": false,
            "mutedNotes": [],
            "mutedChords": [
              "1+2+5",
              "sus4",
              "1+5",
              "1+8",
              "Maj7aug",
              "7(b13)",
              "7(b9)",
              "7(13)",
              "7#11",
              "7sus4",
              "dim7",
              "dim",
              "minMaj7(9)",
              "minMaj7",
              "min6",
              "aug",
              "Maj6(9)",
              "Maj7(9)",
              "Maj(9)",
              "Maj7#11",
              "Maj7",
              "Maj6"
            ],
            "autoStart": false,
            "sourceChordNote": 0,
            "sourceChordType": "7(9)",
            "ctb2Low": null,
            "ctb2Main": {
              "ntr": "ROOT_TRANSPOSITION",
              "ntt": "MELODIC_MINOR_5",
              "bassOn": true,
              "chordRootUpperLimit": 3,
              "noteLowLimit": 28,
              "noteHighLimit": 127,
              "rtr": "PITCH_SHIFT_TO_ROOT"
            },
            "ctb2High": null
          },
          "notes": [
            {
              "pitch": 36,
              "velocity": 80,
              "position": 0,
              "duration": 0.23541666666666666
            },
            {
              "pitch": 36,
              "velocity": 91,
              "position": 0.25,
              "duration": 0.13125
            },
            {
              "pitch": 36,
              "velocity": 110,
              "position": 0.5,
              "duration": 0.13125
            },
            {
              "pitch": 36,
              "velocity": 80,
              "position": 0.75,
              "duration": 0.23541666666666666
            },
            {
              "pitch": 36,
              "velocity": 110,
              "position": 1.25,
              "duration": 0.13125
            },
            {
              "pitch": 43,
              "velocity": 110,
              "position": 1.5,
              "duration": 0.13125
            },
            {
              "pitch": 46,
              "velocity": 80,
              "position": 1.75,
              "duration": 0.23541666666666666
            },
            {
              "pitch": 46,
              "velocity": 91,
              "position": 2,
              "duration": 0.13125
            },
            {
              "pitch": 46,
              "velocity": 110,
              "position": 2.25,
              "duration": 0.13125
            },
            {
              "pitch": 46,
              "velocity": 80,
              "position": 2.5,
              "duration": 0.23541666666666666
            },
            {
              "pitch": 48,
              "velocity": 60,
              "position": 2.75,
              "duration": 0.23541666666666666
            },
            {
              "pitch": 48,
              "velocity": 110,
              "position": 3,
              "duration": 0.13125
            },
            {
              "pitch": 43,
              "velocity": 110,
              "position": 3.25,
              "duration": 0.13125
            },
            {
              "pitch": 46,
              "velocity": 60,
              "position": 3.5,
              "duration": 0.17291666666666666
            },
            {
              "pitch": 48,
              "velocity": 60,
              "position": 3.75,
              "duration": 0.17291666666666666
            },
            {
              "pitch": 36,
              "velocity": 80,
              "position": 4,
              "duration": 0.23541666666666666
            },
            {
              "pitch": 36,
              "velocity": 91,
              "position": 4.25,
              "duration": 0.13125
            },
            {
              "pitch": 36,
              "velocity": 110,
              "position": 4.5,
              "duration": 0.13125
            },
            {
              "pitch": 36,
              "velocity": 80,
              "position": 4.75,
              "duration": 0.23541666666666666
            },
            {
              "pitch": 36,
              "velocity": 110,
              "position": 5.25,
              "duration": 0.13125
            },
            {
              "pitch": 43,
              "velocity": 110,
              "position": 5.5,
              "duration": 0.13125
            },
            {
              "pitch": 46,
              "velocity": 80,
              "position": 5.75,
              "duration": 0.23541666666666666
            },
            {
              "pitch": 46,
              "velocity": 91,
              "position": 6,
              "duration": 0.13125
            },
            {
              "pitch": 46,
              "velocity": 110,
              "position": 6.25,
              "duration": 0.13125
            },
            {
              "pitch": 45,
              "velocity": 80,
              "position": 6.5,
              "duration": 0.23541666666666666
            },
            {
              "pitch": 43,
              "velocity": 80,
              "position": 7,
              "duration": 0.23541666666666666
            },
            {
              "pitch": 41,
              "velocity": 80,
              "position": 7.5,
              "duration": 0.23541666666666666
            },
            {
              "pitch": 43,
              "velocity": 60,
              "position": 7.75,
              "duration": 0.23541666666666666
            },
            {
              "pitch": 36,
              "velocity": 80,
              "position": 8,
              "duration": 0.23541666666666666
            },
            {
              "pitch": 36,
              "velocity": 91,
              "position": 8.25,
              "duration": 0.13125
            },
            {
              "pitch": 36,
              "velocity": 110,
              "position": 8.5,
              "duration": 0.13125
            },
            {
              "pitch": 36,
              "velocity": 80,
              "position": 8.75,
              "duration": 0.23541666666666666
            },
            {
              "pitch": 36,
              "velocity": 110,
              "position": 9.25,
              "duration": 0.13125
            },
            {
              "pitch": 43,
              "velocity": 110,
              "position": 9.5,
              "duration": 0.13125
            },
            {
              "pitch": 46,
              "velocity": 80,
              "position": 9.75,
              "duration": 0.23541666666666666
            },
            {
              "pitch": 46,
              "velocity": 91,
              "position": 10,
              "duration": 0.13125
            },
            {
              "pitch": 46,
              "velocity": 110,
              "position": 10.25,
              "duration": 0.13125
            },
            {
              "pitch": 46,
              "velocity": 80,
              "position": 10.5,
              "duration": 0.23541666666666666
            },
            {
              "pitch": 48,
              "velocity": 60,
              "position": 10.75,
              "duration": 0.23541666666666666
            },
            {
              "pitch": 48,
              "velocity": 110,
              "position": 11,
              "duration": 0.13125
            },
            {
              "pitch": 43,
              "velocity": 110,
              "position": 11.25,
              "duration": 0.13125
            },
            {
              "pitch": 46,
              "velocity": 60,
              "position": 11.5,
              "duration": 0.17291666666666666
            },
            {
              "pitch": 48,
              "velocity": 60,
              "position": 11.75,
              "duration": 0.17291666666666666
            },
            {
              "pitch": 36,
              "velocity": 80,
              "position": 12,
              "duration": 0.23541666666666666
            },
            {
              "pitch": 36,
              "velocity": 110,
              "position": 12.5,
              "duration": 0.13125
            },
            {
              "pitch": 36,
              "velocity": 80,
              "position": 12.75,
              "duration": 0.23541666666666666
            },
            {
              "pitch": 36,
              "velocity": 110,
              "position": 13.25,
              "duration": 0.13125
            },
            {
              "pitch": 36,
              "velocity": 110,
              "position": 13.5,
              "duration": 0.13125
            },
            {
              "pitch": 40,
              "velocity": 80,
              "position": 13.75,
              "duration": 0.23541666666666666
            },
            {
              "pitch": 40,
              "velocity": 91,
              "position": 14,
              "duration": 0.13125
            },
            {
              "pitch": 36,
              "velocity": 91,
              "position": 14.25,
              "duration": 0.13125
            },
            {
              "pitch": 41,
              "velocity": 80,
              "position": 14.5,
              "duration": 0.23541666666666666
            },
            {
              "pitch": 36,
              "velocity": 91,
              "position": 14.75,
              "duration": 0.13125
            },
            {
              "pitch": 42,
              "velocity": 80,
              "position": 15,
              "duration": 0.23541666666666666
            },
            {
              "pitch": 36,
              "velocity": 91,
              "position": 15.25,
              "duration": 0.13125
            },
            {
              "pitch": 42,
              "velocity": 80,
              "position": 15.5,
              "duration": 0.23541666666666666
            },
            {
              "pitch": 43,
              "velocity": 60,
              "position": 15.75,
              "duration": 0.23541666666666666
            }
          ]
        },
        "11": {
          "ctab": {
            "srcChannel": 11,
            "name": "Gt S",
            "accType": "CHORD1",
            "editable": false,
            "mutedNotes": [],
            "mutedChords": [
              "1+2+5",
              "sus4",
              "1+5",
              "1+8",
              "7aug",
              "Maj7aug",
              "7(#9)",
              "7(b13)",
              "7(b9)",
              "7(13)",
              "7#11",
              "7b5",
              "7sus4",
              "dim7",
              "dim",
              "minMaj7(9)",
              "minMaj7",
              "min7(11)",
              "m7b5",
              "min6",
              "min",
              "aug",
              "Maj6(9)",
              "Maj7(9)",
              "Maj(9)",
              "Maj7#11",
              "Maj7",
              "Maj6"
            ],
            "autoStart": false,
            "sourceChordNote": 0,
            "sourceChordType": "7(9)",
            "ctb2Low": null,
            "ctb2Main": {
              "ntr": "ROOT_TRANSPOSITION",
              "ntt": "MELODIC_MINOR_5",
              "bassOn": false,
              "chordRootUpperLimit": 7,
              "noteLowLimit": 52,
              "noteHighLimit": 79,
              "rtr": "PITCH_SHIFT"
            },
            "ctb2High": null
          },
          "notes": [
            {
              "pitch": 106,
              "velocity": 80,
              "position": 0,
              "duration": 0.23541666666666666
            },
            {
              "pitch": 69,
              "velocity": 35,
              "position": 0.03125,
              "duration": 0.20416666666666666
            },
            {
              "pitch": 64,
              "velocity": 35,
              "position": 0.020833333333333332,
              "duration": 0.21458333333333332
            },
            {
              "pitch": 60,
              "velocity": 35,
              "position": 0.010416666666666666,
              "duration": 0.23541666666666666
            },
            {
              "pitch": 67,
              "velocity": 16,
              "position": 0.25,
              "duration": 0.11041666666666666
            },
            {
              "pitch": 62,
              "velocity": 16,
              "position": 0.2604166666666667,
              "duration": 0.12083333333333333
            },
            {
              "pitch": 58,
              "velocity": 16,
              "position": 0.2708333333333333,
              "duration": 0.14166666666666666
            },
            {
              "pitch": 99,
              "velocity": 80,
              "position": 0.25,
              "duration": 0.23541666666666666
            },
            {
              "pitch": 98,
              "velocity": 80,
              "position": 0.5,
              "duration": 0.23541666666666666
            },
            {
              "pitch": 67,
              "velocity": 35,
              "position": 0.75,
              "duration": 0.20416666666666666
            },
            {
              "pitch": 62,
              "velocity": 35,
              "position": 0.7604166666666666,
              "duration": 0.21458333333333332
            },
            {
              "pitch": 105,
              "velocity": 80,
              "position": 0.75,
              "duration": 0.23541666666666666
            },
            {
              "pitch": 58,
              "velocity": 35,
              "position": 0.7708333333333334,
              "duration": 0.23541666666666666
            },
            {
              "pitch": 52,
              "velocity": 29,
              "position": 0.78125,
              "duration": 0.25625
            },
            {
              "pitch": 98,
              "velocity": 80,
              "position": 1,
              "duration": 0.23541666666666666
            },
            {
              "pitch": 99,
              "velocity": 80,
              "position": 1.25,
              "duration": 0.23541666666666666
            },
            {
              "pitch": 106,
              "velocity": 80,
              "position": 1.5,
              "duration": 0.23541666666666666
            },
            {
              "pitch": 67,
              "velocity": 35,
              "position": 1.53125,
              "duration": 0.20416666666666666
            },
            {
              "pitch": 62,
              "velocity": 35,
              "position": 1.5208333333333333,
              "duration": 0.21458333333333332
            },
            {
              "pitch": 58,
              "velocity": 35,
              "position": 1.5104166666666667,
              "duration": 0.23541666666666666
            },
            {
              "pitch": 52,
              "velocity": 29,
              "position": 1.5,
              "duration": 0.25625
            },
            {
              "pitch": 99,
              "velocity": 80,
              "position": 1.75,
              "duration": 0.23541666666666666
            },
            {
              "pitch": 98,
              "velocity": 80,
              "position": 2,
              "duration": 0.23541666666666666
            },
            {
              "pitch": 99,
              "velocity": 80,
              "position": 2.25,
              "duration": 0.23541666666666666
            },
            {
              "pitch": 106,
              "velocity": 80,
              "position": 2.5,
              "duration": 0.23541666666666666
            },
            {
              "pitch": 62,
              "velocity": 35,
              "position": 2.5208333333333335,
              "duration": 0.21458333333333332
            },
            {
              "pitch": 58,
              "velocity": 35,
              "position": 2.5104166666666665,
              "duration": 0.23541666666666666
            },
            {
              "pitch": 52,
              "velocity": 29,
              "position": 2.5,
              "duration": 0.25625
            },
            {
              "pitch": 99,
              "velocity": 80,
              "position": 2.75,
              "duration": 0.23541666666666666
            },
            {
              "pitch": 52,
              "velocity": 22,
              "position": 2.7708333333333335,
              "duration": 0.21458333333333332
            },
            {
              "pitch": 58,
              "velocity": 22,
              "position": 2.7604166666666665,
              "duration": 0.23541666666666666
            },
            {
              "pitch": 62,
              "velocity": 22,
              "position": 2.75,
              "duration": 0.25625
            },
            {
              "pitch": 67,
              "velocity": 35,
              "position": 2.53125,
              "duration": 0.48541666666666666
            },
            {
              "pitch": 98,
              "velocity": 80,
              "position": 3,
              "duration": 0.23541666666666666
            },
            {
              "pitch": 67,
              "velocity": 29,
              "position": 3.03125,
              "duration": 0.20416666666666666
            },
            {
              "pitch": 62,
              "velocity": 29,
              "position": 3.0208333333333335,
              "duration": 0.225
            },
            {
              "pitch": 58,
              "velocity": 29,
              "position": 3.0104166666666665,
              "duration": 0.24583333333333332
            },
            {
              "pitch": 105,
              "velocity": 80,
              "position": 3.25,
              "duration": 0.23541666666666666
            },
            {
              "pitch": 58,
              "velocity": 35,
              "position": 3.2708333333333335,
              "duration": 0.21458333333333332
            },
            {
              "pitch": 62,
              "velocity": 35,
              "position": 3.2604166666666665,
              "duration": 0.23541666666666666
            },
            {
              "pitch": 67,
              "velocity": 35,
              "position": 3.25,
              "duration": 0.25625
            },
            {
              "pitch": 52,
              "velocity": 29,
              "position": 3,
              "duration": 0.50625
            },
            {
              "pitch": 98,
              "velocity": 80,
              "position": 3.5,
              "duration": 0.23541666666666666
            },
            {
              "pitch": 99,
              "velocity": 80,
              "position": 3.75,
              "duration": 0.23541666666666666
            },
            {
              "pitch": 106,
              "velocity": 80,
              "position": 4,
              "duration": 0.23541666666666666
            },
            {
              "pitch": 67,
              "velocity": 35,
              "position": 4.03125,
              "duration": 0.20416666666666666
            },
            {
              "pitch": 62,
              "velocity": 35,
              "position": 4.020833333333333,
              "duration": 0.21458333333333332
            },
            {
              "pitch": 58,
              "velocity": 35,
              "position": 4.010416666666667,
              "duration": 0.23541666666666666
            },
            {
              "pitch": 67,
              "velocity": 16,
              "position": 4.25,
              "duration": 0.11041666666666666
            },
            {
              "pitch": 62,
              "velocity": 16,
              "position": 4.260416666666667,
              "duration": 0.12083333333333333
            },
            {
              "pitch": 58,
              "velocity": 16,
              "position": 4.270833333333333,
              "duration": 0.14166666666666666
            },
            {
              "pitch": 99,
              "velocity": 80,
              "position": 4.25,
              "duration": 0.23541666666666666
            },
            {
              "pitch": 98,
              "velocity": 80,
              "position": 4.5,
              "duration": 0.23541666666666666
            },
            {
              "pitch": 67,
              "velocity": 35,
              "position": 4.75,
              "duration": 0.20416666666666666
            },
            {
              "pitch": 62,
              "velocity": 35,
              "position": 4.760416666666667,
              "duration": 0.21458333333333332
            },
            {
              "pitch": 105,
              "velocity": 80,
              "position": 4.75,
              "duration": 0.23541666666666666
            },
            {
              "pitch": 58,
              "velocity": 35,
              "position": 4.770833333333333,
              "duration": 0.23541666666666666
            },
            {
              "pitch": 52,
              "velocity": 29,
              "position": 4.78125,
              "duration": 0.25625
            },
            {
              "pitch": 98,
              "velocity": 80,
              "position": 5,
              "duration": 0.23541666666666666
            },
            {
              "pitch": 99,
              "velocity": 80,
              "position": 5.25,
              "duration": 0.23541666666666666
            },
            {
              "pitch": 106,
              "velocity": 80,
              "position": 5.5,
              "duration": 0.23541666666666666
            },
            {
              "pitch": 67,
              "velocity": 35,
              "position": 5.53125,
              "duration": 0.20416666666666666
            },
            {
              "pitch": 62,
              "velocity": 35,
              "position": 5.520833333333333,
              "duration": 0.21458333333333332
            },
            {
              "pitch": 58,
              "velocity": 35,
              "position": 5.510416666666667,
              "duration": 0.23541666666666666
            },
            {
              "pitch": 52,
              "velocity": 29,
              "position": 5.5,
              "duration": 0.25625
            },
            {
              "pitch": 99,
              "velocity": 80,
              "position": 5.75,
              "duration": 0.23541666666666666
            },
            {
              "pitch": 98,
              "velocity": 80,
              "position": 6,
              "duration": 0.23541666666666666
            },
            {
              "pitch": 99,
              "velocity": 80,
              "position": 6.25,
              "duration": 0.23541666666666666
            },
            {
              "pitch": 106,
              "velocity": 80,
              "position": 6.5,
              "duration": 0.23541666666666666
            },
            {
              "pitch": 62,
              "velocity": 35,
              "position": 6.520833333333333,
              "duration": 0.21458333333333332
            },
            {
              "pitch": 58,
              "velocity": 35,
              "position": 6.510416666666667,
              "duration": 0.23541666666666666
            },
            {
              "pitch": 52,
              "velocity": 29,
              "position": 6.5,
              "duration": 0.25625
            },
            {
              "pitch": 99,
              "velocity": 80,
              "position": 6.75,
              "duration": 0.23541666666666666
            },
            {
              "pitch": 52,
              "velocity": 22,
              "position": 6.770833333333333,
              "duration": 0.21458333333333332
            },
            {
              "pitch": 58,
              "velocity": 22,
              "position": 6.760416666666667,
              "duration": 0.23541666666666666
            },
            {
              "pitch": 62,
              "velocity": 22,
              "position": 6.75,
              "duration": 0.25625
            },
            {
              "pitch": 67,
              "velocity": 35,
              "position": 6.53125,
              "duration": 0.48541666666666666
            },
            {
              "pitch": 98,
              "velocity": 80,
              "position": 7,
              "duration": 0.23541666666666666
            },
            {
              "pitch": 67,
              "velocity": 29,
              "position": 7.03125,
              "duration": 0.20416666666666666
            },
            {
              "pitch": 62,
              "velocity": 29,
              "position": 7.020833333333333,
              "duration": 0.225
            },
            {
              "pitch": 58,
              "velocity": 29,
              "position": 7.010416666666667,
              "duration": 0.24583333333333332
            },
            {
              "pitch": 105,
              "velocity": 80,
              "position": 7.25,
              "duration": 0.23541666666666666
            },
            {
              "pitch": 58,
              "velocity": 35,
              "position": 7.270833333333333,
              "duration": 0.21458333333333332
            },
            {
              "pitch": 62,
              "velocity": 35,
              "position": 7.260416666666667,
              "duration": 0.23541666666666666
            },
            {
              "pitch": 67,
              "velocity": 35,
              "position": 7.25,
              "duration": 0.25625
            },
            {
              "pitch": 52,
              "velocity": 29,
              "position": 7,
              "duration": 0.50625
            },
            {
              "pitch": 98,
              "velocity": 80,
              "position": 7.5,
              "duration": 0.23541666666666666
            },
            {
              "pitch": 99,
              "velocity": 80,
              "position": 7.75,
              "duration": 0.23541666666666666
            },
            {
              "pitch": 106,
              "velocity": 80,
              "position": 8,
              "duration": 0.23541666666666666
            },
            {
              "pitch": 69,
              "velocity": 35,
              "position": 8.03125,
              "duration": 0.20416666666666666
            },
            {
              "pitch": 64,
              "velocity": 35,
              "position": 8.020833333333334,
              "duration": 0.21458333333333332
            },
            {
              "pitch": 60,
              "velocity": 35,
              "position": 8.010416666666666,
              "duration": 0.23541666666666666
            },
            {
              "pitch": 67,
              "velocity": 16,
              "position": 8.25,
              "duration": 0.11041666666666666
            },
            {
              "pitch": 62,
              "velocity": 16,
              "position": 8.260416666666666,
              "duration": 0.12083333333333333
            },
            {
              "pitch": 58,
              "velocity": 16,
              "position": 8.270833333333334,
              "duration": 0.14166666666666666
            },
            {
              "pitch": 99,
              "velocity": 80,
              "position": 8.25,
              "duration": 0.23541666666666666
            },
            {
              "pitch": 98,
              "velocity": 80,
              "position": 8.5,
              "duration": 0.23541666666666666
            },
            {
              "pitch": 67,
              "velocity": 35,
              "position": 8.75,
              "duration": 0.20416666666666666
            },
            {
              "pitch": 62,
              "velocity": 35,
              "position": 8.760416666666666,
              "duration": 0.21458333333333332
            },
            {
              "pitch": 105,
              "velocity": 80,
              "position": 8.75,
              "duration": 0.23541666666666666
            },
            {
              "pitch": 58,
              "velocity": 35,
              "position": 8.770833333333334,
              "duration": 0.23541666666666666
            },
            {
              "pitch": 52,
              "velocity": 29,
              "position": 8.78125,
              "duration": 0.25625
            },
            {
              "pitch": 98,
              "velocity": 80,
              "position": 9,
              "duration": 0.23541666666666666
            },
            {
              "pitch": 99,
              "velocity": 80,
              "position": 9.25,
              "duration": 0.23541666666666666
            },
            {
              "pitch": 106,
              "velocity": 80,
              "position": 9.5,
              "duration": 0.23541666666666666
            },
            {
              "pitch": 67,
              "velocity": 35,
              "position": 9.53125,
              "duration": 0.20416666666666666
            },
            {
              "pitch": 62,
              "velocity": 35,
              "position": 9.520833333333334,
              "duration": 0.21458333333333332
            },
            {
              "pitch": 58,
              "velocity": 35,
              "position": 9.510416666666666,
              "duration": 0.23541666666666666
            },
            {
              "pitch": 52,
              "velocity": 29,
              "position": 9.5,
              "duration": 0.25625
            },
            {
              "pitch": 99,
              "velocity": 80,
              "position": 9.75,
              "duration": 0.23541666666666666
            },
            {
              "pitch": 98,
              "velocity": 80,
              "position": 10,
              "duration": 0.23541666666666666
            },
            {
              "pitch": 99,
              "velocity": 80,
              "position": 10.25,
              "duration": 0.23541666666666666
            },
            {
              "pitch": 106,
              "velocity": 80,
              "position": 10.5,
              "duration": 0.23541666666666666
            },
            {
              "pitch": 62,
              "velocity": 35,
              "position": 10.520833333333334,
              "duration": 0.21458333333333332
            },
            {
              "pitch": 58,
              "velocity": 35,
              "position": 10.510416666666666,
              "duration": 0.23541666666666666
            },
            {
              "pitch": 52,
              "velocity": 29,
              "position": 10.5,
              "duration": 0.25625
            },
            {
              "pitch": 99,
              "velocity": 80,
              "position": 10.75,
              "duration": 0.23541666666666666
            },
            {
              "pitch": 52,
              "velocity": 22,
              "position": 10.770833333333334,
              "duration": 0.21458333333333332
            },
            {
              "pitch": 58,
              "velocity": 22,
              "position": 10.760416666666666,
              "duration": 0.23541666666666666
            },
            {
              "pitch": 62,
              "velocity": 22,
              "position": 10.75,
              "duration": 0.25625
            },
            {
              "pitch": 67,
              "velocity": 35,
              "position": 10.53125,
              "duration": 0.48541666666666666
            },
            {
              "pitch": 98,
              "velocity": 80,
              "position": 11,
              "duration": 0.23541666666666666
            },
            {
              "pitch": 67,
              "velocity": 29,
              "position": 11.03125,
              "duration": 0.20416666666666666
            },
            {
              "pitch": 62,
              "velocity": 29,
              "position": 11.020833333333334,
              "duration": 0.225
            },
            {
              "pitch": 58,
              "velocity": 29,
              "position": 11.010416666666666,
              "duration": 0.24583333333333332
            },
            {
              "pitch": 105,
              "velocity": 80,
              "position": 11.25,
              "duration": 0.23541666666666666
            },
            {
              "pitch": 58,
              "velocity": 35,
              "position": 11.270833333333334,
              "duration": 0.21458333333333332
            },
            {
              "pitch": 62,
              "velocity": 35,
              "position": 11.260416666666666,
              "duration": 0.23541666666666666
            },
            {
              "pitch": 67,
              "velocity": 35,
              "position": 11.25,
              "duration": 0.25625
            },
            {
              "pitch": 52,
              "velocity": 29,
              "position": 11,
              "duration": 0.50625
            },
            {
              "pitch": 98,
              "velocity": 80,
              "position": 11.5,
              "duration": 0.23541666666666666
            },
            {
              "pitch": 99,
              "velocity": 80,
              "position": 11.75,
              "duration": 0.23541666666666666
            },
            {
              "pitch": 106,
              "velocity": 80,
              "position": 12,
              "duration": 0.23541666666666666
            },
            {
              "pitch": 67,
              "velocity": 35,
              "position": 12.03125,
              "duration": 0.20416666666666666
            },
            {
              "pitch": 62,
              "velocity": 35,
              "position": 12.020833333333334,
              "duration": 0.21458333333333332
            },
            {
              "pitch": 58,
              "velocity": 35,
              "position": 12.010416666666666,
              "duration": 0.23541666666666666
            },
            {
              "pitch": 67,
              "velocity": 16,
              "position": 12.25,
              "duration": 0.11041666666666666
            },
            {
              "pitch": 62,
              "velocity": 16,
              "position": 12.260416666666666,
              "duration": 0.12083333333333333
            },
            {
              "pitch": 58,
              "velocity": 16,
              "position": 12.270833333333334,
              "duration": 0.14166666666666666
            },
            {
              "pitch": 99,
              "velocity": 80,
              "position": 12.25,
              "duration": 0.23541666666666666
            },
            {
              "pitch": 98,
              "velocity": 80,
              "position": 12.5,
              "duration": 0.23541666666666666
            },
            {
              "pitch": 67,
              "velocity": 35,
              "position": 12.75,
              "duration": 0.20416666666666666
            },
            {
              "pitch": 62,
              "velocity": 35,
              "position": 12.760416666666666,
              "duration": 0.21458333333333332
            },
            {
              "pitch": 105,
              "velocity": 80,
              "position": 12.75,
              "duration": 0.23541666666666666
            },
            {
              "pitch": 58,
              "velocity": 35,
              "position": 12.770833333333334,
              "duration": 0.23541666666666666
            },
            {
              "pitch": 52,
              "velocity": 29,
              "position": 12.78125,
              "duration": 0.25625
            },
            {
              "pitch": 98,
              "velocity": 80,
              "position": 13,
              "duration": 0.23541666666666666
            },
            {
              "pitch": 99,
              "velocity": 80,
              "position": 13.25,
              "duration": 0.23541666666666666
            },
            {
              "pitch": 106,
              "velocity": 80,
              "position": 13.5,
              "duration": 0.23541666666666666
            },
            {
              "pitch": 67,
              "velocity": 35,
              "position": 13.53125,
              "duration": 0.20416666666666666
            },
            {
              "pitch": 62,
              "velocity": 35,
              "position": 13.520833333333334,
              "duration": 0.21458333333333332
            },
            {
              "pitch": 58,
              "velocity": 35,
              "position": 13.510416666666666,
              "duration": 0.23541666666666666
            },
            {
              "pitch": 52,
              "velocity": 29,
              "position": 13.5,
              "duration": 0.25625
            },
            {
              "pitch": 99,
              "velocity": 80,
              "position": 13.75,
              "duration": 0.23541666666666666
            },
            {
              "pitch": 98,
              "velocity": 80,
              "position": 14,
              "duration": 0.23541666666666666
            },
            {
              "pitch": 99,
              "velocity": 80,
              "position": 14.25,
              "duration": 0.23541666666666666
            },
            {
              "pitch": 106,
              "velocity": 80,
              "position": 14.5,
              "duration": 0.23541666666666666
            },
            {
              "pitch": 62,
              "velocity": 35,
              "position": 14.520833333333334,
              "duration": 0.21458333333333332
            },
            {
              "pitch": 58,
              "velocity": 35,
              "position": 14.510416666666666,
              "duration": 0.23541666666666666
            },
            {
              "pitch": 52,
              "velocity": 29,
              "position": 14.5,
              "duration": 0.25625
            },
            {
              "pitch": 99,
              "velocity": 80,
              "position": 14.75,
              "duration": 0.23541666666666666
            },
            {
              "pitch": 52,
              "velocity": 22,
              "position": 14.770833333333334,
              "duration": 0.21458333333333332
            },
            {
              "pitch": 58,
              "velocity": 22,
              "position": 14.760416666666666,
              "duration": 0.23541666666666666
            },
            {
              "pitch": 62,
              "velocity": 22,
              "position": 14.75,
              "duration": 0.25625
            },
            {
              "pitch": 67,
              "velocity": 35,
              "position": 14.53125,
              "duration": 0.48541666666666666
            },
            {
              "pitch": 98,
              "velocity": 80,
              "position": 15,
              "duration": 0.23541666666666666
            },
            {
              "pitch": 67,
              "velocity": 29,
              "position": 15.03125,
              "duration": 0.20416666666666666
            },
            {
              "pitch": 62,
              "velocity": 29,
              "position": 15.020833333333334,
              "duration": 0.225
            },
            {
              "pitch": 58,
              "velocity": 29,
              "position": 15.010416666666666,
              "duration": 0.24583333333333332
            },
            {
              "pitch": 105,
              "velocity": 80,
              "position": 15.25,
              "duration": 0.23541666666666666
            },
            {
              "pitch": 58,
              "velocity": 35,
              "position": 15.270833333333334,
              "duration": 0.21458333333333332
            },
            {
              "pitch": 62,
              "velocity": 35,
              "position": 15.260416666666666,
              "duration": 0.23541666666666666
            },
            {
              "pitch": 67,
              "velocity": 35,
              "position": 15.25,
              "duration": 0.25625
            },
            {
              "pitch": 52,
              "velocity": 29,
              "position": 15,
              "duration": 0.50625
            },
            {
              "pitch": 98,
              "velocity": 80,
              "position": 15.5,
              "duration": 0.23541666666666666
            },
            {
              "pitch": 99,
              "velocity": 80,
              "position": 15.75,
              "duration": 0.23541666666666666
            }
          ]
        },
        "12": {
          "ctab": {
            "srcChannel": 12,
            "name": "Org S",
            "accType": "CHORD2",
            "editable": false,
            "mutedNotes": [],
            "mutedChords": [
              "1+2+5",
              "sus4",
              "1+5",
              "1+8",
              "7aug",
              "Maj7aug",
              "7(#9)",
              "7(b13)",
              "7(b9)",
              "7(13)",
              "7#11",
              "7(9)",
              "7b5",
              "7sus4",
              "dim7",
              "dim",
              "minMaj7(9)",
              "minMaj7",
              "min7(11)",
              "min7(9)",
              "min(9)",
              "m7b5",
              "min7",
              "min6",
              "min",
              "aug",
              "Maj6(9)",
              "Maj7(9)",
              "Maj(9)",
              "Maj7#11",
              "Maj7",
              "Maj6"
            ],
            "autoStart": false,
            "sourceChordNote": 0,
            "sourceChordType": "Maj7",
            "ctb2Low": null,
            "ctb2Main": {
              "ntr": "ROOT_FIXED",
              "ntt": "CHORD",
              "bassOn": false,
              "chordRootUpperLimit": 7,
              "noteLowLimit": 75,
              "noteHighLimit": 79,
              "rtr": "PITCH_SHIFT"
            },
            "ctb2High": null
          },
          "notes": [
            {
              "pitch": 76,
              "velocity": 69,
              "position": 2.5,
              "duration": 0.11458333333333333
            },
            {
              "pitch": 79,
              "velocity": 74,
              "position": 2.5,
              "duration": 0.12083333333333333
            },
            {
              "pitch": 76,
              "velocity": 106,
              "position": 2.75,
              "duration": 0.11666666666666667
            },
            {
              "pitch": 79,
              "velocity": 106,
              "position": 2.75,
              "duration": 0.12916666666666668
            },
            {
              "pitch": 76,
              "velocity": 99,
              "position": 3.25,
              "duration": 0.09583333333333334
            },
            {
              "pitch": 79,
              "velocity": 94,
              "position": 3.25,
              "duration": 0.11041666666666666
            },
            {
              "pitch": 76,
              "velocity": 97,
              "position": 3.75,
              "duration": 0.10208333333333333
            },
            {
              "pitch": 79,
              "velocity": 96,
              "position": 3.75,
              "duration": 0.11041666666666666
            },
            {
              "pitch": 76,
              "velocity": 95,
              "position": 4.25,
              "duration": 0.08541666666666667
            },
            {
              "pitch": 79,
              "velocity": 93,
              "position": 4.25,
              "duration": 0.08541666666666667
            },
            {
              "pitch": 83,
              "velocity": 75,
              "position": 1,
              "duration": 3.53125
            },
            {
              "pitch": 79,
              "velocity": 86,
              "position": 5,
              "duration": 0.4354166666666667
            },
            {
              "pitch": 76,
              "velocity": 92,
              "position": 5,
              "duration": 0.44375
            },
            {
              "pitch": 76,
              "velocity": 93,
              "position": 5.5,
              "duration": 0.08958333333333333
            },
            {
              "pitch": 79,
              "velocity": 94,
              "position": 5.5,
              "duration": 0.09375
            },
            {
              "pitch": 83,
              "velocity": 75,
              "position": 4.535416666666666,
              "duration": 3.3270833333333334
            },
            {
              "pitch": 79,
              "velocity": 94,
              "position": 10.5,
              "duration": 0.22916666666666666
            },
            {
              "pitch": 76,
              "velocity": 94,
              "position": 10.5,
              "duration": 0.23541666666666666
            },
            {
              "pitch": 76,
              "velocity": 83,
              "position": 10.75,
              "duration": 0.1125
            },
            {
              "pitch": 79,
              "velocity": 77,
              "position": 10.75,
              "duration": 0.125
            },
            {
              "pitch": 76,
              "velocity": 92,
              "position": 11.25,
              "duration": 0.11666666666666667
            },
            {
              "pitch": 79,
              "velocity": 89,
              "position": 11.25,
              "duration": 0.1375
            },
            {
              "pitch": 76,
              "velocity": 99,
              "position": 11.75,
              "duration": 0.11458333333333333
            },
            {
              "pitch": 79,
              "velocity": 97,
              "position": 11.75,
              "duration": 0.12291666666666666
            },
            {
              "pitch": 83,
              "velocity": 85,
              "position": 9,
              "duration": 2.995833333333333
            },
            {
              "pitch": 76,
              "velocity": 105,
              "position": 13,
              "duration": 0.40208333333333335
            },
            {
              "pitch": 79,
              "velocity": 108,
              "position": 13,
              "duration": 0.4083333333333333
            },
            {
              "pitch": 76,
              "velocity": 111,
              "position": 13.5,
              "duration": 0.08125
            },
            {
              "pitch": 79,
              "velocity": 111,
              "position": 13.5,
              "duration": 0.0875
            },
            {
              "pitch": 83,
              "velocity": 73,
              "position": 12,
              "duration": 3.7958333333333334
            }
          ]
        },
        "13": {
          "ctab": {
            "srcChannel": 13,
            "name": "Tpt S",
            "accType": "PAD",
            "editable": false,
            "mutedNotes": [],
            "mutedChords": [
              "1+2+5",
              "sus4",
              "1+5",
              "1+8",
              "7aug",
              "Maj7aug",
              "7(#9)",
              "7(b13)",
              "7(b9)",
              "7(13)",
              "7#11",
              "7b5",
              "7sus4",
              "dim7",
              "dim",
              "minMaj7(9)",
              "minMaj7",
              "min7(11)",
              "m7b5",
              "min6",
              "min",
              "aug",
              "Maj6(9)",
              "Maj7(9)",
              "Maj(9)",
              "Maj7#11",
              "Maj7",
              "Maj6"
            ],
            "autoStart": false,
            "sourceChordNote": 0,
            "sourceChordType": "7(9)",
            "ctb2Low": null,
            "ctb2Main": {
              "ntr": "ROOT_TRANSPOSITION",
              "ntt": "MELODIC_MINOR_5",
              "bassOn": false,
              "chordRootUpperLimit": 2,
              "noteLowLimit": 0,
              "noteHighLimit": 79,
              "rtr": "PITCH_SHIFT"
            },
            "ctb2High": null
          },
          "notes": [
            {
              "pitch": 79,
              "velocity": 76,
              "position": 4.489583333333333,
              "duration": 0.17291666666666666
            },
            {
              "pitch": 75,
              "velocity": 82,
              "position": 4.5,
              "duration": 0.18333333333333332
            },
            {
              "pitch": 77,
              "velocity": 76,
              "position": 4.989583333333333,
              "duration": 0.23541666666666666
            },
            {
              "pitch": 74,
              "velocity": 82,
              "position": 4.989583333333333,
              "duration": 0.24583333333333332
            },
            {
              "pitch": 75,
              "velocity": 76,
              "position": 5.239583333333333,
              "duration": 0.19375
            },
            {
              "pitch": 72,
              "velocity": 82,
              "position": 5.25,
              "duration": 0.18333333333333332
            },
            {
              "pitch": 67,
              "velocity": 76,
              "position": 8.489583333333334,
              "duration": 0.18333333333333332
            },
            {
              "pitch": 72,
              "velocity": 82,
              "position": 8.5,
              "duration": 0.19375
            },
            {
              "pitch": 67,
              "velocity": 76,
              "position": 9.25,
              "duration": 0.18333333333333332
            },
            {
              "pitch": 72,
              "velocity": 82,
              "position": 9.25,
              "duration": 0.19375
            },
            {
              "pitch": 67,
              "velocity": 76,
              "position": 9.989583333333334,
              "duration": 0.19375
            },
            {
              "pitch": 72,
              "velocity": 82,
              "position": 9.989583333333334,
              "duration": 0.19375
            },
            {
              "pitch": 76,
              "velocity": 81,
              "position": 13.489583333333334,
              "duration": 0.24583333333333332
            },
            {
              "pitch": 79,
              "velocity": 85,
              "position": 13.489583333333334,
              "duration": 0.24583333333333332
            },
            {
              "pitch": 77,
              "velocity": 81,
              "position": 13.75,
              "duration": 0.11041666666666666
            },
            {
              "pitch": 81,
              "velocity": 87,
              "position": 13.75,
              "duration": 0.12083333333333333
            },
            {
              "pitch": 82,
              "velocity": 87,
              "position": 13.989583333333334,
              "duration": 0.11041666666666666
            },
            {
              "pitch": 79,
              "velocity": 81,
              "position": 14,
              "duration": 0.11041666666666666
            },
            {
              "pitch": 82,
              "velocity": 87,
              "position": 14.260416666666666,
              "duration": 0.1
            },
            {
              "pitch": 79,
              "velocity": 81,
              "position": 14.25,
              "duration": 0.13125
            },
            {
              "pitch": 77,
              "velocity": 81,
              "position": 14.5,
              "duration": 0.1
            },
            {
              "pitch": 81,
              "velocity": 87,
              "position": 14.489583333333334,
              "duration": 0.13125
            },
            {
              "pitch": 79,
              "velocity": 87,
              "position": 14.739583333333334,
              "duration": 0.11041666666666666
            },
            {
              "pitch": 76,
              "velocity": 81,
              "position": 14.75,
              "duration": 0.13125
            },
            {
              "pitch": 77,
              "velocity": 82,
              "position": 15.239583333333334,
              "duration": 0.11041666666666666
            },
            {
              "pitch": 74,
              "velocity": 81,
              "position": 15.25,
              "duration": 0.13125
            }
          ]
        },
        "14": {
          "ctab": {
            "srcChannel": 14,
            "name": "Sax S",
            "accType": "PHRASE1",
            "editable": false,
            "mutedNotes": [],
            "mutedChords": [
              "1+2+5",
              "sus4",
              "1+5",
              "1+8",
              "7aug",
              "Maj7aug",
              "7(#9)",
              "7(b13)",
              "7(b9)",
              "7(13)",
              "7#11",
              "7b5",
              "7sus4",
              "dim7",
              "dim",
              "minMaj7(9)",
              "minMaj7",
              "min7(11)",
              "m7b5",
              "min6",
              "min",
              "aug",
              "Maj6(9)",
              "Maj7(9)",
              "Maj(9)",
              "Maj7#11",
              "Maj7",
              "Maj6"
            ],
            "autoStart": false,
            "sourceChordNote": 0,
            "sourceChordType": "7(9)",
            "ctb2Low": null,
            "ctb2Main": {
              "ntr": "ROOT_TRANSPOSITION",
              "ntt": "MELODIC_MINOR_5",
              "bassOn": false,
              "chordRootUpperLimit": 7,
              "noteLowLimit": 0,
              "noteHighLimit": 127,
              "rtr": "PITCH_SHIFT"
            },
            "ctb2High": null
          },
          "notes": [
            {
              "pitch": 74,
              "velocity": 127,
              "position": 0.9895833333333334,
              "duration": 0.40208333333333335
            },
            {
              "pitch": 70,
              "velocity": 127,
              "position": 0.9895833333333334,
              "duration": 0.44375
            },
            {
              "pitch": 69,
              "velocity": 40,
              "position": 1.40625,
              "duration": 0.11041666666666666
            },
            {
              "pitch": 72,
              "velocity": 40,
              "position": 1.3645833333333333,
              "duration": 0.15208333333333332
            },
            {
              "pitch": 67,
              "velocity": 30,
              "position": 1.4895833333333333,
              "duration": 0.11041666666666666
            },
            {
              "pitch": 70,
              "velocity": 30,
              "position": 1.4895833333333333,
              "duration": 0.15208333333333332
            },
            {
              "pitch": 65,
              "velocity": 20,
              "position": 1.5729166666666667,
              "duration": 0.11041666666666666
            },
            {
              "pitch": 64,
              "velocity": 10,
              "position": 1.65625,
              "duration": 0.11041666666666666
            },
            {
              "pitch": 69,
              "velocity": 20,
              "position": 1.6145833333333333,
              "duration": 0.15208333333333332
            },
            {
              "pitch": 62,
              "velocity": 10,
              "position": 1.7395833333333333,
              "duration": 0.11041666666666666
            },
            {
              "pitch": 67,
              "velocity": 10,
              "position": 1.7395833333333333,
              "duration": 0.15208333333333332
            },
            {
              "pitch": 65,
              "velocity": 1,
              "position": 1.8645833333333333,
              "duration": 0.15208333333333332
            },
            {
              "pitch": 70,
              "velocity": 40,
              "position": 4.5,
              "duration": 0.18333333333333332
            },
            {
              "pitch": 63,
              "velocity": 101,
              "position": 4.53125,
              "duration": 0.19375
            },
            {
              "pitch": 62,
              "velocity": 92,
              "position": 5,
              "duration": 0.225
            },
            {
              "pitch": 69,
              "velocity": 39,
              "position": 5,
              "duration": 0.23541666666666666
            },
            {
              "pitch": 60,
              "velocity": 101,
              "position": 5.239583333333333,
              "duration": 0.1625
            },
            {
              "pitch": 67,
              "velocity": 36,
              "position": 5.25,
              "duration": 0.17291666666666666
            },
            {
              "pitch": 62,
              "velocity": 125,
              "position": 8.489583333333334,
              "duration": 0.17291666666666666
            },
            {
              "pitch": 58,
              "velocity": 117,
              "position": 8.489583333333334,
              "duration": 0.18333333333333332
            },
            {
              "pitch": 62,
              "velocity": 115,
              "position": 9.25,
              "duration": 0.1625
            },
            {
              "pitch": 58,
              "velocity": 127,
              "position": 9.25,
              "duration": 0.18333333333333332
            },
            {
              "pitch": 58,
              "velocity": 123,
              "position": 10,
              "duration": 0.17291666666666666
            },
            {
              "pitch": 62,
              "velocity": 124,
              "position": 9.989583333333334,
              "duration": 0.19375
            },
            {
              "pitch": 70,
              "velocity": 51,
              "position": 13.5,
              "duration": 0.225
            },
            {
              "pitch": 67,
              "velocity": 116,
              "position": 13.5,
              "duration": 0.23541666666666666
            },
            {
              "pitch": 72,
              "velocity": 32,
              "position": 13.75,
              "duration": 0.13125
            },
            {
              "pitch": 69,
              "velocity": 98,
              "position": 13.75,
              "duration": 0.14166666666666666
            },
            {
              "pitch": 74,
              "velocity": 48,
              "position": 13.989583333333334,
              "duration": 0.15208333333333332
            },
            {
              "pitch": 70,
              "velocity": 109,
              "position": 14,
              "duration": 0.15208333333333332
            },
            {
              "pitch": 74,
              "velocity": 35,
              "position": 14.239583333333334,
              "duration": 0.13125
            },
            {
              "pitch": 70,
              "velocity": 94,
              "position": 14.239583333333334,
              "duration": 0.14166666666666666
            },
            {
              "pitch": 69,
              "velocity": 94,
              "position": 14.5,
              "duration": 0.1625
            },
            {
              "pitch": 72,
              "velocity": 36,
              "position": 14.5,
              "duration": 0.1625
            },
            {
              "pitch": 67,
              "velocity": 126,
              "position": 14.739583333333334,
              "duration": 0.1625
            },
            {
              "pitch": 70,
              "velocity": 51,
              "position": 14.75,
              "duration": 0.15208333333333332
            },
            {
              "pitch": 65,
              "velocity": 126,
              "position": 15.239583333333334,
              "duration": 0.1625
            },
            {
              "pitch": 69,
              "velocity": 51,
              "position": 15.25,
              "duration": 0.15208333333333332
            }
          ]
        },
        "15": {
          "ctab": {
            "srcChannel": 15,
            "name": "Bari S",
            "accType": "PHRASE2",
            "editable": false,
            "mutedNotes": [],
            "mutedChords": [
              "1+2+5",
              "sus4",
              "1+5",
              "1+8",
              "7aug",
              "Maj7aug",
              "7(#9)",
              "7(b13)",
              "7(b9)",
              "7(13)",
              "7#11",
              "7b5",
              "7sus4",
              "dim7",
              "dim",
              "minMaj7(9)",
              "minMaj7",
              "min7(11)",
              "m7b5",
              "min6",
              "min",
              "aug",
              "Maj6(9)",
              "Maj7(9)",
              "Maj(9)",
              "Maj7#11",
              "Maj7",
              "Maj6"
            ],
            "autoStart": false,
            "sourceChordNote": 0,
            "sourceChordType": "7(9)",
            "ctb2Low": null,
            "ctb2Main": {
              "ntr": "ROOT_TRANSPOSITION",
              "ntt": "MELODIC_MINOR_5",
              "bassOn": true,
              "chordRootUpperLimit": 3,
              "noteLowLimit": 33,
              "noteHighLimit": 127,
              "rtr": "PITCH_SHIFT"
            },
            "ctb2High": null
          },
          "notes": [
            {
              "pitch": 64,
              "velocity": 65,
              "position": 0.9895833333333334,
              "duration": 0.44375
            },
            {
              "pitch": 63,
              "velocity": 38,
              "position": 1.40625,
              "duration": 0.11041666666666666
            },
            {
              "pitch": 61,
              "velocity": 35,
              "position": 1.4895833333333333,
              "duration": 0.11041666666666666
            },
            {
              "pitch": 59,
              "velocity": 32,
              "position": 1.5729166666666667,
              "duration": 0.11041666666666666
            },
            {
              "pitch": 58,
              "velocity": 29,
              "position": 1.65625,
              "duration": 0.11041666666666666
            },
            {
              "pitch": 56,
              "velocity": 29,
              "position": 1.7395833333333333,
              "duration": 0.11041666666666666
            },
            {
              "pitch": 55,
              "velocity": 29,
              "position": 1.8229166666666667,
              "duration": 0.11041666666666666
            },
            {
              "pitch": 53,
              "velocity": 29,
              "position": 1.90625,
              "duration": 0.11041666666666666
            },
            {
              "pitch": 67,
              "velocity": 92,
              "position": 4.5,
              "duration": 0.18333333333333332
            },
            {
              "pitch": 65,
              "velocity": 89,
              "position": 5,
              "duration": 0.23541666666666666
            },
            {
              "pitch": 63,
              "velocity": 85,
              "position": 5.25,
              "duration": 0.17291666666666666
            },
            {
              "pitch": 52,
              "velocity": 89,
              "position": 8.489583333333334,
              "duration": 0.17291666666666666
            },
            {
              "pitch": 36,
              "velocity": 120,
              "position": 8.739583333333334,
              "duration": 0.1625
            },
            {
              "pitch": 52,
              "velocity": 92,
              "position": 9.239583333333334,
              "duration": 0.18333333333333332
            },
            {
              "pitch": 36,
              "velocity": 115,
              "position": 9.5,
              "duration": 0.1625
            },
            {
              "pitch": 52,
              "velocity": 88,
              "position": 10,
              "duration": 0.18333333333333332
            },
            {
              "pitch": 48,
              "velocity": 102,
              "position": 13.489583333333334,
              "duration": 0.26666666666666666
            },
            {
              "pitch": 50,
              "velocity": 98,
              "position": 13.75,
              "duration": 0.08958333333333333
            },
            {
              "pitch": 51,
              "velocity": 97,
              "position": 14,
              "duration": 0.12083333333333333
            },
            {
              "pitch": 51,
              "velocity": 97,
              "position": 14.239583333333334,
              "duration": 0.08958333333333333
            },
            {
              "pitch": 50,
              "velocity": 102,
              "position": 14.5,
              "duration": 0.12083333333333333
            },
            {
              "pitch": 48,
              "velocity": 101,
              "position": 14.739583333333334,
              "duration": 0.12083333333333333
            },
            {
              "pitch": 46,
              "velocity": 101,
              "position": 15.239583333333334,
              "duration": 0.12083333333333333
            }
          ]
        }
      }
    },
    "Fill_In_DD": {
      "type": "Fill_In_DD",
      "sizeInBeats": 4,
      "channels": {
        "1": {
          "ctab": {
            "srcChannel": 1,
            "name": "Bass P",
            "accType": "BASS",
            "editable": false,
            "mutedNotes": [],
            "mutedChords": [
              "7aug",
              "7(#9)",
              "7(9)",
              "7b5",
              "7th",
              "min7(11)",
              "min7(9)",
              "min(9)",
              "m7b5",
              "min7",
              "min",
              "Maj"
            ],
            "autoStart": false,
            "sourceChordNote": 0,
            "sourceChordType": "Maj7",
            "ctb2Low": null,
            "ctb2Main": {
              "ntr": "ROOT_TRANSPOSITION",
              "ntt": "MELODY",
              "bassOn": true,
              "chordRootUpperLimit": 3,
              "noteLowLimit": 28,
              "noteHighLimit": 127,
              "rtr": "PITCH_SHIFT_TO_ROOT"
            },
            "ctb2High": null
          },
          "notes": [
            {
              "pitch": 36,
              "velocity": 80,
              "position": 0,
              "duration": 0.23541666666666666
            },
            {
              "pitch": 36,
              "velocity": 110,
              "position": 0.5,
              "duration": 0.13125
            },
            {
              "pitch": 36,
              "velocity": 80,
              "position": 0.75,
              "duration": 0.23541666666666666
            },
            {
              "pitch": 36,
              "velocity": 110,
              "position": 1.25,
              "duration": 0.13125
            },
            {
              "pitch": 36,
              "velocity": 110,
              "position": 1.5,
              "duration": 0.13125
            },
            {
              "pitch": 36,
              "velocity": 80,
              "position": 1.75,
              "duration": 0.23541666666666666
            },
            {
              "pitch": 36,
              "velocity": 91,
              "position": 2,
              "duration": 0.13125
            },
            {
              "pitch": 36,
              "velocity": 91,
              "position": 2.25,
              "duration": 0.13125
            },
            {
              "pitch": 40,
              "velocity": 80,
              "position": 2.5,
              "duration": 0.23541666666666666
            },
            {
              "pitch": 36,
              "velocity": 91,
              "position": 2.75,
              "duration": 0.13125
            },
            {
              "pitch": 43,
              "velocity": 80,
              "position": 3,
              "duration": 0.23541666666666666
            },
            {
              "pitch": 36,
              "velocity": 91,
              "position": 3.25,
              "duration": 0.13125
            },
            {
              "pitch": 45,
              "velocity": 80,
              "position": 3.5,
              "duration": 0.23541666666666666
            },
            {
              "pitch": 48,
              "velocity": 60,
              "position": 3.75,
              "duration": 0.23541666666666666
            }
          ]
        },
        "2": {
          "ctab": {
            "srcChannel": 2,
            "name": "Gt P",
            "accType": "CHORD1",
            "editable": false,
            "mutedNotes": [],
            "mutedChords": [
              "7(9)",
              "7th",
              "min7(9)",
              "min(9)",
              "min7",
              "Maj"
            ],
            "autoStart": false,
            "sourceChordNote": 0,
            "sourceChordType": "Maj7",
            "ctb2Low": null,
            "ctb2Main": {
              "ntr": "ROOT_TRANSPOSITION",
              "ntt": "MELODY",
              "bassOn": false,
              "chordRootUpperLimit": 7,
              "noteLowLimit": 0,
              "noteHighLimit": 127,
              "rtr": "PITCH_SHIFT"
            },
            "ctb2High": null
          },
          "notes": [
            {
              "pitch": 67,
              "velocity": 35,
              "position": 0.03125,
              "duration": 0.20416666666666666
            },
            {
              "pitch": 71,
              "velocity": 35,
              "position": 0.03125,
              "duration": 0.20416666666666666
            },
            {
              "pitch": 64,
              "velocity": 35,
              "position": 0.020833333333333332,
              "duration": 0.21458333333333332
            },
            {
              "pitch": 60,
              "velocity": 35,
              "position": 0.010416666666666666,
              "duration": 0.23541666666666666
            },
            {
              "pitch": 67,
              "velocity": 16,
              "position": 0.25,
              "duration": 0.11041666666666666
            },
            {
              "pitch": 71,
              "velocity": 16,
              "position": 0.25,
              "duration": 0.11041666666666666
            },
            {
              "pitch": 64,
              "velocity": 16,
              "position": 0.2604166666666667,
              "duration": 0.12083333333333333
            },
            {
              "pitch": 60,
              "velocity": 16,
              "position": 0.2708333333333333,
              "duration": 0.14166666666666666
            },
            {
              "pitch": 67,
              "velocity": 35,
              "position": 0.75,
              "duration": 0.20416666666666666
            },
            {
              "pitch": 71,
              "velocity": 35,
              "position": 0.75,
              "duration": 0.20416666666666666
            },
            {
              "pitch": 64,
              "velocity": 35,
              "position": 0.7604166666666666,
              "duration": 0.21458333333333332
            },
            {
              "pitch": 60,
              "velocity": 35,
              "position": 0.7708333333333334,
              "duration": 0.23541666666666666
            },
            {
              "pitch": 55,
              "velocity": 29,
              "position": 0.78125,
              "duration": 0.25625
            },
            {
              "pitch": 59,
              "velocity": 29,
              "position": 0.78125,
              "duration": 0.25625
            },
            {
              "pitch": 67,
              "velocity": 35,
              "position": 1.53125,
              "duration": 0.20416666666666666
            },
            {
              "pitch": 71,
              "velocity": 35,
              "position": 1.53125,
              "duration": 0.20416666666666666
            },
            {
              "pitch": 64,
              "velocity": 35,
              "position": 1.5208333333333333,
              "duration": 0.21458333333333332
            },
            {
              "pitch": 60,
              "velocity": 35,
              "position": 1.5104166666666667,
              "duration": 0.23541666666666666
            },
            {
              "pitch": 55,
              "velocity": 29,
              "position": 1.5,
              "duration": 0.25625
            },
            {
              "pitch": 59,
              "velocity": 29,
              "position": 1.5,
              "duration": 0.25625
            },
            {
              "pitch": 64,
              "velocity": 35,
              "position": 2.5208333333333335,
              "duration": 0.21458333333333332
            },
            {
              "pitch": 60,
              "velocity": 35,
              "position": 2.5104166666666665,
              "duration": 0.23541666666666666
            },
            {
              "pitch": 55,
              "velocity": 29,
              "position": 2.5,
              "duration": 0.25625
            },
            {
              "pitch": 59,
              "velocity": 29,
              "position": 2.5,
              "duration": 0.25625
            },
            {
              "pitch": 55,
              "velocity": 22,
              "position": 2.7708333333333335,
              "duration": 0.21458333333333332
            },
            {
              "pitch": 59,
              "velocity": 22,
              "position": 2.7708333333333335,
              "duration": 0.21458333333333332
            },
            {
              "pitch": 60,
              "velocity": 22,
              "position": 2.7604166666666665,
              "duration": 0.23541666666666666
            },
            {
              "pitch": 64,
              "velocity": 22,
              "position": 2.75,
              "duration": 0.25625
            },
            {
              "pitch": 67,
              "velocity": 35,
              "position": 2.53125,
              "duration": 0.48541666666666666
            },
            {
              "pitch": 71,
              "velocity": 35,
              "position": 2.53125,
              "duration": 0.48541666666666666
            },
            {
              "pitch": 67,
              "velocity": 29,
              "position": 3.03125,
              "duration": 0.20416666666666666
            },
            {
              "pitch": 71,
              "velocity": 29,
              "position": 3.03125,
              "duration": 0.20416666666666666
            },
            {
              "pitch": 64,
              "velocity": 29,
              "position": 3.0208333333333335,
              "duration": 0.225
            },
            {
              "pitch": 60,
              "velocity": 29,
              "position": 3.0104166666666665,
              "duration": 0.24583333333333332
            },
            {
              "pitch": 60,
              "velocity": 35,
              "position": 3.2708333333333335,
              "duration": 0.21458333333333332
            },
            {
              "pitch": 64,
              "velocity": 35,
              "position": 3.2604166666666665,
              "duration": 0.23541666666666666
            },
            {
              "pitch": 67,
              "velocity": 35,
              "position": 3.25,
              "duration": 0.25625
            },
            {
              "pitch": 71,
              "velocity": 35,
              "position": 3.25,
              "duration": 0.25625
            },
            {
              "pitch": 55,
              "velocity": 29,
              "position": 3,
              "duration": 0.50625
            },
            {
              "pitch": 59,
              "velocity": 29,
              "position": 3,
              "duration": 0.50625
            }
          ]
        },
        "4": {
          "ctab": {
            "srcChannel": 4,
            "name": "Tpt P",
            "accType": "PAD",
            "editable": false,
            "mutedNotes": [],
            "mutedChords": [
              "7(9)",
              "7th",
              "min7(9)",
              "min(9)",
              "min7",
              "Maj"
            ],
            "autoStart": false,
            "sourceChordNote": 0,
            "sourceChordType": "Maj7",
            "ctb2Low": null,
            "ctb2Main": {
              "ntr": "ROOT_FIXED",
              "ntt": "CHORD",
              "bassOn": false,
              "chordRootUpperLimit": 7,
              "noteLowLimit": 0,
              "noteHighLimit": 79,
              "rtr": "PITCH_SHIFT"
            },
            "ctb2High": null
          },
          "notes": [
            {
              "pitch": 76,
              "velocity": 79,
              "position": 1.4895833333333333,
              "duration": 0.24583333333333332
            },
            {
              "pitch": 79,
              "velocity": 85,
              "position": 1.4895833333333333,
              "duration": 0.24583333333333332
            },
            {
              "pitch": 76,
              "velocity": 79,
              "position": 1.75,
              "duration": 0.11041666666666666
            },
            {
              "pitch": 81,
              "velocity": 85,
              "position": 1.75,
              "duration": 0.12083333333333333
            },
            {
              "pitch": 83,
              "velocity": 85,
              "position": 1.9895833333333333,
              "duration": 0.11041666666666666
            },
            {
              "pitch": 79,
              "velocity": 79,
              "position": 2,
              "duration": 0.11041666666666666
            },
            {
              "pitch": 83,
              "velocity": 85,
              "position": 2.2604166666666665,
              "duration": 0.1
            },
            {
              "pitch": 79,
              "velocity": 79,
              "position": 2.25,
              "duration": 0.13125
            },
            {
              "pitch": 76,
              "velocity": 79,
              "position": 2.5,
              "duration": 0.1
            },
            {
              "pitch": 81,
              "velocity": 85,
              "position": 2.4895833333333335,
              "duration": 0.13125
            },
            {
              "pitch": 81,
              "velocity": 85,
              "position": 2.7395833333333335,
              "duration": 0.11041666666666666
            },
            {
              "pitch": 76,
              "velocity": 79,
              "position": 2.75,
              "duration": 0.13125
            },
            {
              "pitch": 76,
              "velocity": 79,
              "position": 3,
              "duration": 0.1
            },
            {
              "pitch": 79,
              "velocity": 85,
              "position": 3,
              "duration": 0.1
            },
            {
              "pitch": 76,
              "velocity": 79,
              "position": 3.25,
              "duration": 0.1
            },
            {
              "pitch": 79,
              "velocity": 85,
              "position": 3.25,
              "duration": 0.11041666666666666
            },
            {
              "pitch": 79,
              "velocity": 79,
              "position": 3.5,
              "duration": 0.23125
            },
            {
              "pitch": 84,
              "velocity": 85,
              "position": 3.4895833333333335,
              "duration": 0.24583333333333332
            },
            {
              "pitch": 79,
              "velocity": 79,
              "position": 3.7395833333333335,
              "duration": 0.23541666666666666
            },
            {
              "pitch": 84,
              "velocity": 85,
              "position": 3.75,
              "duration": 0.225
            }
          ]
        },
        "5": {
          "ctab": {
            "srcChannel": 5,
            "name": "Sax P",
            "accType": "PHRASE1",
            "editable": false,
            "mutedNotes": [],
            "mutedChords": [
              "7(9)",
              "7th",
              "min7(9)",
              "min(9)",
              "min7",
              "Maj"
            ],
            "autoStart": false,
            "sourceChordNote": 0,
            "sourceChordType": "Maj7",
            "ctb2Low": null,
            "ctb2Main": {
              "ntr": "ROOT_FIXED",
              "ntt": "CHORD",
              "bassOn": false,
              "chordRootUpperLimit": 7,
              "noteLowLimit": 0,
              "noteHighLimit": 127,
              "rtr": "PITCH_SHIFT"
            },
            "ctb2High": null
          },
          "notes": [
            {
              "pitch": 71,
              "velocity": 51,
              "position": 1.5,
              "duration": 0.225
            },
            {
              "pitch": 67,
              "velocity": 116,
              "position": 1.5,
              "duration": 0.23541666666666666
            },
            {
              "pitch": 72,
              "velocity": 32,
              "position": 1.75,
              "duration": 0.13125
            },
            {
              "pitch": 69,
              "velocity": 98,
              "position": 1.75,
              "duration": 0.14166666666666666
            },
            {
              "pitch": 76,
              "velocity": 48,
              "position": 1.9895833333333333,
              "duration": 0.15208333333333332
            },
            {
              "pitch": 71,
              "velocity": 109,
              "position": 2,
              "duration": 0.15208333333333332
            },
            {
              "pitch": 76,
              "velocity": 35,
              "position": 2.2395833333333335,
              "duration": 0.13125
            },
            {
              "pitch": 71,
              "velocity": 94,
              "position": 2.2395833333333335,
              "duration": 0.14166666666666666
            },
            {
              "pitch": 69,
              "velocity": 126,
              "position": 2.4895833333333335,
              "duration": 0.1625
            },
            {
              "pitch": 72,
              "velocity": 51,
              "position": 2.5,
              "duration": 0.15208333333333332
            },
            {
              "pitch": 69,
              "velocity": 94,
              "position": 2.75,
              "duration": 0.1625
            },
            {
              "pitch": 72,
              "velocity": 36,
              "position": 2.75,
              "duration": 0.1625
            },
            {
              "pitch": 72,
              "velocity": 51,
              "position": 3,
              "duration": 0.13125
            },
            {
              "pitch": 67,
              "velocity": 111,
              "position": 3,
              "duration": 0.14166666666666666
            },
            {
              "pitch": 67,
              "velocity": 81,
              "position": 3.2395833333333335,
              "duration": 0.14166666666666666
            },
            {
              "pitch": 72,
              "velocity": 36,
              "position": 3.2395833333333335,
              "duration": 0.14166666666666666
            },
            {
              "pitch": 67,
              "velocity": 82,
              "position": 3.5,
              "duration": 0.225
            },
            {
              "pitch": 76,
              "velocity": 32,
              "position": 3.5,
              "duration": 0.23125
            },
            {
              "pitch": 67,
              "velocity": 119,
              "position": 3.7395833333333335,
              "duration": 0.17291666666666666
            },
            {
              "pitch": 76,
              "velocity": 48,
              "position": 3.7395833333333335,
              "duration": 0.18333333333333332
            }
          ]
        },
        "6": {
          "ctab": {
            "srcChannel": 6,
            "name": "Bari P",
            "accType": "PHRASE2",
            "editable": false,
            "mutedNotes": [],
            "mutedChords": [
              "7(9)",
              "7th",
              "min7(9)",
              "min(9)",
              "min7",
              "Maj"
            ],
            "autoStart": false,
            "sourceChordNote": 0,
            "sourceChordType": "Maj7",
            "ctb2Low": null,
            "ctb2Main": {
              "ntr": "ROOT_TRANSPOSITION",
              "ntt": "MELODY",
              "bassOn": true,
              "chordRootUpperLimit": 3,
              "noteLowLimit": 33,
              "noteHighLimit": 127,
              "rtr": "PITCH_SHIFT_TO_ROOT"
            },
            "ctb2High": null
          },
          "notes": [
            {
              "pitch": 48,
              "velocity": 102,
              "position": 1.4895833333333333,
              "duration": 0.26666666666666666
            },
            {
              "pitch": 52,
              "velocity": 98,
              "position": 1.75,
              "duration": 0.08958333333333333
            },
            {
              "pitch": 55,
              "velocity": 97,
              "position": 2,
              "duration": 0.12083333333333333
            },
            {
              "pitch": 55,
              "velocity": 97,
              "position": 2.2395833333333335,
              "duration": 0.08958333333333333
            },
            {
              "pitch": 52,
              "velocity": 102,
              "position": 2.5,
              "duration": 0.12083333333333333
            },
            {
              "pitch": 52,
              "velocity": 101,
              "position": 2.7395833333333335,
              "duration": 0.12083333333333333
            },
            {
              "pitch": 48,
              "velocity": 95,
              "position": 3,
              "duration": 0.11041666666666666
            },
            {
              "pitch": 48,
              "velocity": 101,
              "position": 3.2395833333333335,
              "duration": 0.12083333333333333
            },
            {
              "pitch": 48,
              "velocity": 101,
              "position": 3.4895833333333335,
              "duration": 0.24166666666666667
            },
            {
              "pitch": 48,
              "velocity": 101,
              "position": 3.7395833333333335,
              "duration": 0.23541666666666666
            }
          ]
        },
        "8": {
          "ctab": {
            "srcChannel": 8,
            "name": "Perc",
            "accType": "SUBRHYTHM",
            "editable": false,
            "mutedNotes": [],
            "mutedChords": [],
            "autoStart": true,
            "sourceChordNote": 0,
            "sourceChordType": "Maj7",
            "ctb2Low": null,
            "ctb2Main": {
              "ntr": "ROOT_FIXED",
              "ntt": "BYPASS",
              "bassOn": false,
              "chordRootUpperLimit": 6,
              "noteLowLimit": 0,
              "noteHighLimit": 127,
              "rtr": "PITCH_SHIFT"
            },
            "ctb2High": null
          },
          "notes": [
            {
              "pitch": 54,
              "velocity": 80,
              "position": 0,
              "duration": 0.00625
            },
            {
              "pitch": 82,
              "velocity": 60,
              "position": 0,
              "duration": 0.00625
            },
            {
              "pitch": 54,
              "velocity": 30,
              "position": 0.25,
              "duration": 0.00625
            },
            {
              "pitch": 82,
              "velocity": 30,
              "position": 0.25,
              "duration": 0.00625
            },
            {
              "pitch": 54,
              "velocity": 60,
              "position": 0.5,
              "duration": 0.00625
            },
            {
              "pitch": 82,
              "velocity": 80,
              "position": 0.5,
              "duration": 0.00625
            },
            {
              "pitch": 54,
              "velocity": 30,
              "position": 0.75,
              "duration": 0.00625
            },
            {
              "pitch": 82,
              "velocity": 30,
              "position": 0.75,
              "duration": 0.00625
            },
            {
              "pitch": 54,
              "velocity": 80,
              "position": 1,
              "duration": 0.00625
            },
            {
              "pitch": 82,
              "velocity": 60,
              "position": 1,
              "duration": 0.00625
            },
            {
              "pitch": 54,
              "velocity": 30,
              "position": 1.25,
              "duration": 0.00625
            },
            {
              "pitch": 82,
              "velocity": 30,
              "position": 1.25,
              "duration": 0.00625
            },
            {
              "pitch": 54,
              "velocity": 60,
              "position": 1.5,
              "duration": 0.00625
            },
            {
              "pitch": 82,
              "velocity": 80,
              "position": 1.5,
              "duration": 0.00625
            },
            {
              "pitch": 54,
              "velocity": 30,
              "position": 1.75,
              "duration": 0.00625
            },
            {
              "pitch": 82,
              "velocity": 30,
              "position": 1.75,
              "duration": 0.00625
            },
            {
              "pitch": 54,
              "velocity": 80,
              "position": 2,
              "duration": 0.00625
            },
            {
              "pitch": 82,
              "velocity": 60,
              "position": 2,
              "duration": 0.00625
            },
            {
              "pitch": 54,
              "velocity": 30,
              "position": 2.25,
              "duration": 0.00625
            },
            {
              "pitch": 82,
              "velocity": 30,
              "position": 2.25,
              "duration": 0.00625
            },
            {
              "pitch": 54,
              "velocity": 60,
              "position": 2.5,
              "duration": 0.00625
            },
            {
              "pitch": 82,
              "velocity": 80,
              "position": 2.5,
              "duration": 0.00625
            },
            {
              "pitch": 54,
              "velocity": 30,
              "position": 2.75,
              "duration": 0.00625
            },
            {
              "pitch": 82,
              "velocity": 30,
              "position": 2.75,
              "duration": 0.00625
            },
            {
              "pitch": 54,
              "velocity": 80,
              "position": 3,
              "duration": 0.00625
            },
            {
              "pitch": 82,
              "velocity": 60,
              "position": 3,
              "duration": 0.00625
            },
            {
              "pitch": 54,
              "velocity": 30,
              "position": 3.25,
              "duration": 0.00625
            },
            {
              "pitch": 82,
              "velocity": 30,
              "position": 3.25,
              "duration": 0.00625
            },
            {
              "pitch": 54,
              "velocity": 60,
              "position": 3.5,
              "duration": 0.00625
            },
            {
              "pitch": 82,
              "velocity": 80,
              "position": 3.5,
              "duration": 0.00625
            },
            {
              "pitch": 54,
              "velocity": 30,
              "position": 3.75,
              "duration": 0.00625
            },
            {
              "pitch": 82,
              "velocity": 30,
              "position": 3.75,
              "duration": 0.00625
            }
          ]
        },
        "9": {
          "ctab": {
            "srcChannel": 9,
            "name": "Drs",
            "accType": "RHYTHM",
            "editable": false,
            "mutedNotes": [],
            "mutedChords": [],
            "autoStart": true,
            "sourceChordNote": 0,
            "sourceChordType": "Maj7",
            "ctb2Low": null,
            "ctb2Main": {
              "ntr": "ROOT_FIXED",
              "ntt": "BYPASS",
              "bassOn": false,
              "chordRootUpperLimit": 6,
              "noteLowLimit": 0,
              "noteHighLimit": 127,
              "rtr": "PITCH_SHIFT"
            },
            "ctb2High": null
          },
          "notes": [
            {
              "pitch": 53,
              "velocity": 98,
              "position": 0,
              "duration": 0.00625
            },
            {
              "pitch": 59,
              "velocity": 103,
              "position": 0,
              "duration": 0.00625
            },
            {
              "pitch": 33,
              "velocity": 105,
              "position": 0.25,
              "duration": 0.00625
            },
            {
              "pitch": 46,
              "velocity": 60,
              "position": 0.25,
              "duration": 0.00625
            },
            {
              "pitch": 31,
              "velocity": 25,
              "position": 0.5,
              "duration": 0.00625
            },
            {
              "pitch": 44,
              "velocity": 42,
              "position": 0.5,
              "duration": 0.00625
            },
            {
              "pitch": 31,
              "velocity": 42,
              "position": 0.6666666666666666,
              "duration": 0.00625
            },
            {
              "pitch": 31,
              "velocity": 55,
              "position": 0.8333333333333334,
              "duration": 0.00625
            },
            {
              "pitch": 31,
              "velocity": 125,
              "position": 1,
              "duration": 0.00625
            },
            {
              "pitch": 44,
              "velocity": 55,
              "position": 1,
              "duration": 0.00625
            },
            {
              "pitch": 33,
              "velocity": 105,
              "position": 1.25,
              "duration": 0.00625
            },
            {
              "pitch": 46,
              "velocity": 77,
              "position": 1.25,
              "duration": 0.00625
            },
            {
              "pitch": 31,
              "velocity": 43,
              "position": 1.5,
              "duration": 0.00625
            },
            {
              "pitch": 44,
              "velocity": 42,
              "position": 1.5,
              "duration": 0.00625
            },
            {
              "pitch": 31,
              "velocity": 60,
              "position": 1.6666666666666667,
              "duration": 0.00625
            },
            {
              "pitch": 31,
              "velocity": 73,
              "position": 1.8333333333333333,
              "duration": 0.00625
            },
            {
              "pitch": 31,
              "velocity": 125,
              "position": 2,
              "duration": 0.00625
            },
            {
              "pitch": 33,
              "velocity": 105,
              "position": 2.25,
              "duration": 0.00625
            },
            {
              "pitch": 31,
              "velocity": 125,
              "position": 2.5,
              "duration": 0.00625
            },
            {
              "pitch": 31,
              "velocity": 84,
              "position": 2.75,
              "duration": 0.00625
            },
            {
              "pitch": 31,
              "velocity": 125,
              "position": 3,
              "duration": 0.00625
            },
            {
              "pitch": 31,
              "velocity": 84,
              "position": 3.25,
              "duration": 0.00625
            },
            {
              "pitch": 31,
              "velocity": 99,
              "position": 3.5,
              "duration": 0.00625
            },
            {
              "pitch": 31,
              "velocity": 127,
              "position": 3.75,
              "duration": 0.00625
            },
            {
              "pitch": 49,
              "velocity": 90,
              "position": 3.9895833333333335,
              "duration": 0.00625
            }
          ]
        },
        "10": {
          "ctab": {
            "srcChannel": 10,
            "name": "Bass S",
            "accType": "BASS",
            "editable": false,
            "mutedNotes": [],
            "mutedChords": [
              "1+2+5",
              "sus4",
              "1+5",
              "1+8",
              "Maj7aug",
              "7(b13)",
              "7(b9)",
              "7(13)",
              "7#11",
              "7sus4",
              "dim7",
              "dim",
              "minMaj7(9)",
              "minMaj7",
              "min6",
              "aug",
              "Maj6(9)",
              "Maj7(9)",
              "Maj(9)",
              "Maj7#11",
              "Maj7",
              "Maj6"
            ],
            "autoStart": false,
            "sourceChordNote": 0,
            "sourceChordType": "7(9)",
            "ctb2Low": null,
            "ctb2Main": {
              "ntr": "ROOT_TRANSPOSITION",
              "ntt": "MELODIC_MINOR_5",
              "bassOn": true,
              "chordRootUpperLimit": 3,
              "noteLowLimit": 28,
              "noteHighLimit": 127,
              "rtr": "PITCH_SHIFT_TO_ROOT"
            },
            "ctb2High": null
          },
          "notes": [
            {
              "pitch": 36,
              "velocity": 80,
              "position": 0,
              "duration": 0.23541666666666666
            },
            {
              "pitch": 36,
              "velocity": 110,
              "position": 0.5,
              "duration": 0.13125
            },
            {
              "pitch": 36,
              "velocity": 80,
              "position": 0.75,
              "duration": 0.23541666666666666
            },
            {
              "pitch": 36,
              "velocity": 110,
              "position": 1.25,
              "duration": 0.13125
            },
            {
              "pitch": 36,
              "velocity": 110,
              "position": 1.5,
              "duration": 0.13125
            },
            {
              "pitch": 40,
              "velocity": 80,
              "position": 1.75,
              "duration": 0.23541666666666666
            },
            {
              "pitch": 40,
              "velocity": 91,
              "position": 2,
              "duration": 0.13125
            },
            {
              "pitch": 36,
              "velocity": 91,
              "position": 2.25,
              "duration": 0.13125
            },
            {
              "pitch": 41,
              "velocity": 80,
              "position": 2.5,
              "duration": 0.23541666666666666
            },
            {
              "pitch": 36,
              "velocity": 91,
              "position": 2.75,
              "duration": 0.13125
            },
            {
              "pitch": 42,
              "velocity": 80,
              "position": 3,
              "duration": 0.23541666666666666
            },
            {
              "pitch": 36,
              "velocity": 91,
              "position": 3.25,
              "duration": 0.13125
            },
            {
              "pitch": 42,
              "velocity": 80,
              "position": 3.5,
              "duration": 0.23541666666666666
            },
            {
              "pitch": 43,
              "velocity": 60,
              "position": 3.75,
              "duration": 0.23541666666666666
            }
          ]
        },
        "11": {
          "ctab": {
            "srcChannel": 11,
            "name": "Gt S",
            "accType": "CHORD1",
            "editable": false,
            "mutedNotes": [],
            "mutedChords": [
              "1+2+5",
              "sus4",
              "1+5",
              "1+8",
              "7aug",
              "Maj7aug",
              "7(#9)",
              "7(b13)",
              "7(b9)",
              "7(13)",
              "7#11",
              "7b5",
              "7sus4",
              "dim7",
              "dim",
              "minMaj7(9)",
              "minMaj7",
              "min7(11)",
              "m7b5",
              "min6",
              "min",
              "aug",
              "Maj6(9)",
              "Maj7(9)",
              "Maj(9)",
              "Maj7#11",
              "Maj7",
              "Maj6"
            ],
            "autoStart": false,
            "sourceChordNote": 0,
            "sourceChordType": "7(9)",
            "ctb2Low": null,
            "ctb2Main": {
              "ntr": "ROOT_TRANSPOSITION",
              "ntt": "MELODIC_MINOR_5",
              "bassOn": false,
              "chordRootUpperLimit": 7,
              "noteLowLimit": 52,
              "noteHighLimit": 79,
              "rtr": "PITCH_SHIFT"
            },
            "ctb2High": null
          },
          "notes": [
            {
              "pitch": 106,
              "velocity": 80,
              "position": 0,
              "duration": 0.23541666666666666
            },
            {
              "pitch": 67,
              "velocity": 35,
              "position": 0.03125,
              "duration": 0.20416666666666666
            },
            {
              "pitch": 62,
              "velocity": 35,
              "position": 0.020833333333333332,
              "duration": 0.21458333333333332
            },
            {
              "pitch": 58,
              "velocity": 35,
              "position": 0.010416666666666666,
              "duration": 0.23541666666666666
            },
            {
              "pitch": 67,
              "velocity": 16,
              "position": 0.25,
              "duration": 0.11041666666666666
            },
            {
              "pitch": 62,
              "velocity": 16,
              "position": 0.2604166666666667,
              "duration": 0.12083333333333333
            },
            {
              "pitch": 58,
              "velocity": 16,
              "position": 0.2708333333333333,
              "duration": 0.14166666666666666
            },
            {
              "pitch": 99,
              "velocity": 80,
              "position": 0.25,
              "duration": 0.23541666666666666
            },
            {
              "pitch": 98,
              "velocity": 80,
              "position": 0.5,
              "duration": 0.23541666666666666
            },
            {
              "pitch": 67,
              "velocity": 35,
              "position": 0.75,
              "duration": 0.20416666666666666
            },
            {
              "pitch": 62,
              "velocity": 35,
              "position": 0.7604166666666666,
              "duration": 0.21458333333333332
            },
            {
              "pitch": 105,
              "velocity": 80,
              "position": 0.75,
              "duration": 0.23541666666666666
            },
            {
              "pitch": 58,
              "velocity": 35,
              "position": 0.7708333333333334,
              "duration": 0.23541666666666666
            },
            {
              "pitch": 52,
              "velocity": 29,
              "position": 0.78125,
              "duration": 0.25625
            },
            {
              "pitch": 98,
              "velocity": 80,
              "position": 1,
              "duration": 0.23541666666666666
            },
            {
              "pitch": 99,
              "velocity": 80,
              "position": 1.25,
              "duration": 0.23541666666666666
            },
            {
              "pitch": 106,
              "velocity": 80,
              "position": 1.5,
              "duration": 0.23541666666666666
            },
            {
              "pitch": 67,
              "velocity": 35,
              "position": 1.53125,
              "duration": 0.20416666666666666
            },
            {
              "pitch": 62,
              "velocity": 35,
              "position": 1.5208333333333333,
              "duration": 0.21458333333333332
            },
            {
              "pitch": 58,
              "velocity": 35,
              "position": 1.5104166666666667,
              "duration": 0.23541666666666666
            },
            {
              "pitch": 52,
              "velocity": 29,
              "position": 1.5,
              "duration": 0.25625
            },
            {
              "pitch": 99,
              "velocity": 80,
              "position": 1.75,
              "duration": 0.23541666666666666
            },
            {
              "pitch": 98,
              "velocity": 80,
              "position": 2,
              "duration": 0.23541666666666666
            },
            {
              "pitch": 99,
              "velocity": 80,
              "position": 2.25,
              "duration": 0.23541666666666666
            },
            {
              "pitch": 106,
              "velocity": 80,
              "position": 2.5,
              "duration": 0.23541666666666666
            },
            {
              "pitch": 62,
              "velocity": 35,
              "position": 2.5208333333333335,
              "duration": 0.21458333333333332
            },
            {
              "pitch": 58,
              "velocity": 35,
              "position": 2.5104166666666665,
              "duration": 0.23541666666666666
            },
            {
              "pitch": 52,
              "velocity": 29,
              "position": 2.5,
              "duration": 0.25625
            },
            {
              "pitch": 99,
              "velocity": 80,
              "position": 2.75,
              "duration": 0.23541666666666666
            },
            {
              "pitch": 52,
              "velocity": 22,
              "position": 2.7708333333333335,
              "duration": 0.21458333333333332
            },
            {
              "pitch": 58,
              "velocity": 22,
              "position": 2.7604166666666665,
              "duration": 0.23541666666666666
            },
            {
              "pitch": 62,
              "velocity": 22,
              "position": 2.75,
              "duration": 0.25625
            },
            {
              "pitch": 67,
              "velocity": 35,
              "position": 2.53125,
              "duration": 0.48541666666666666
            },
            {
              "pitch": 98,
              "velocity": 80,
              "position": 3,
              "duration": 0.23541666666666666
            },
            {
              "pitch": 67,
              "velocity": 29,
              "position": 3.03125,
              "duration": 0.20416666666666666
            },
            {
              "pitch": 62,
              "velocity": 29,
              "position": 3.0208333333333335,
              "duration": 0.225
            },
            {
              "pitch": 58,
              "velocity": 29,
              "position": 3.0104166666666665,
              "duration": 0.24583333333333332
            },
            {
              "pitch": 105,
              "velocity": 80,
              "position": 3.25,
              "duration": 0.23541666666666666
            },
            {
              "pitch": 58,
              "velocity": 35,
              "position": 3.2708333333333335,
              "duration": 0.21458333333333332
            },
            {
              "pitch": 62,
              "velocity": 35,
              "position": 3.2604166666666665,
              "duration": 0.23541666666666666
            },
            {
              "pitch": 67,
              "velocity": 35,
              "position": 3.25,
              "duration": 0.25625
            },
            {
              "pitch": 52,
              "velocity": 29,
              "position": 3,
              "duration": 0.50625
            },
            {
              "pitch": 98,
              "velocity": 80,
              "position": 3.5,
              "duration": 0.23541666666666666
            },
            {
              "pitch": 99,
              "velocity": 80,
              "position": 3.75,
              "duration": 0.23541666666666666
            }
          ]
        },
        "12": {
          "ctab": {
            "srcChannel": 12,
            "name": "Org S",
            "accType": "CHORD2",
            "editable": false,
            "mutedNotes": [],
            "mutedChords": [],
            "autoStart": false,
            "sourceChordNote": 0,
            "sourceChordType": "Maj",
            "ctb2Low": null,
            "ctb2Main": {
              "ntr": "ROOT_TRANSPOSITION",
              "ntt": "BYPASS",
              "bassOn": false,
              "chordRootUpperLimit": 0,
              "noteLowLimit": 0,
              "noteHighLimit": 79,
              "rtr": "PITCH_SHIFT"
            },
            "ctb2High": null
          },
          "notes": [
            {
              "pitch": 84,
              "velocity": 122,
              "position": 0,
              "duration": 0.4708333333333333
            },
            {
              "pitch": 83,
              "velocity": 81,
              "position": 0.45208333333333334,
              "duration": 0.09791666666666667
            },
            {
              "pitch": 81,
              "velocity": 79,
              "position": 0.50625,
              "duration": 0.075
            },
            {
              "pitch": 79,
              "velocity": 78,
              "position": 0.5520833333333334,
              "duration": 0.04583333333333333
            },
            {
              "pitch": 77,
              "velocity": 77,
              "position": 0.5895833333333333,
              "duration": 0.041666666666666664
            },
            {
              "pitch": 76,
              "velocity": 76,
              "position": 0.61875,
              "duration": 0.041666666666666664
            },
            {
              "pitch": 74,
              "velocity": 76,
              "position": 0.6520833333333333,
              "duration": 0.04583333333333333
            },
            {
              "pitch": 72,
              "velocity": 76,
              "position": 0.6875,
              "duration": 0.04791666666666667
            },
            {
              "pitch": 71,
              "velocity": 75,
              "position": 0.71875,
              "duration": 0.04583333333333333
            },
            {
              "pitch": 69,
              "velocity": 74,
              "position": 0.75,
              "duration": 0.052083333333333336
            }
          ]
        },
        "13": {
          "ctab": {
            "srcChannel": 13,
            "name": "Tpt S",
            "accType": "PAD",
            "editable": false,
            "mutedNotes": [],
            "mutedChords": [
              "1+2+5",
              "sus4",
              "1+5",
              "1+8",
              "7aug",
              "Maj7aug",
              "7(#9)",
              "7(b13)",
              "7(b9)",
              "7(13)",
              "7#11",
              "7b5",
              "7sus4",
              "dim7",
              "dim",
              "minMaj7(9)",
              "minMaj7",
              "min7(11)",
              "m7b5",
              "min6",
              "min",
              "aug",
              "Maj6(9)",
              "Maj7(9)",
              "Maj(9)",
              "Maj7#11",
              "Maj7",
              "Maj6"
            ],
            "autoStart": false,
            "sourceChordNote": 0,
            "sourceChordType": "7(9)",
            "ctb2Low": null,
            "ctb2Main": {
              "ntr": "ROOT_TRANSPOSITION",
              "ntt": "MELODIC_MINOR_5",
              "bassOn": false,
              "chordRootUpperLimit": 2,
              "noteLowLimit": 0,
              "noteHighLimit": 79,
              "rtr": "PITCH_SHIFT"
            },
            "ctb2High": null
          },
          "notes": [
            {
              "pitch": 76,
              "velocity": 84,
              "position": 1.4895833333333333,
              "duration": 0.24583333333333332
            },
            {
              "pitch": 79,
              "velocity": 87,
              "position": 1.4895833333333333,
              "duration": 0.24583333333333332
            },
            {
              "pitch": 77,
              "velocity": 84,
              "position": 1.75,
              "duration": 0.11041666666666666
            },
            {
              "pitch": 81,
              "velocity": 87,
              "position": 1.75,
              "duration": 0.12083333333333333
            },
            {
              "pitch": 82,
              "velocity": 87,
              "position": 1.9895833333333333,
              "duration": 0.11041666666666666
            },
            {
              "pitch": 79,
              "velocity": 84,
              "position": 2,
              "duration": 0.11041666666666666
            },
            {
              "pitch": 82,
              "velocity": 87,
              "position": 2.2604166666666665,
              "duration": 0.1
            },
            {
              "pitch": 79,
              "velocity": 84,
              "position": 2.25,
              "duration": 0.13125
            },
            {
              "pitch": 77,
              "velocity": 84,
              "position": 2.5,
              "duration": 0.1
            },
            {
              "pitch": 81,
              "velocity": 87,
              "position": 2.4895833333333335,
              "duration": 0.13125
            },
            {
              "pitch": 81,
              "velocity": 87,
              "position": 2.7395833333333335,
              "duration": 0.11041666666666666
            },
            {
              "pitch": 77,
              "velocity": 84,
              "position": 2.75,
              "duration": 0.13125
            },
            {
              "pitch": 79,
              "velocity": 84,
              "position": 3,
              "duration": 0.1
            },
            {
              "pitch": 82,
              "velocity": 87,
              "position": 3,
              "duration": 0.1
            },
            {
              "pitch": 79,
              "velocity": 84,
              "position": 3.25,
              "duration": 0.1
            },
            {
              "pitch": 82,
              "velocity": 87,
              "position": 3.25,
              "duration": 0.11041666666666666
            },
            {
              "pitch": 83,
              "velocity": 87,
              "position": 3.4895833333333335,
              "duration": 0.24583333333333332
            },
            {
              "pitch": 80,
              "velocity": 84,
              "position": 3.5,
              "duration": 0.23541666666666666
            },
            {
              "pitch": 81,
              "velocity": 87,
              "position": 3.7395833333333335,
              "duration": 0.23541666666666666
            },
            {
              "pitch": 84,
              "velocity": 87,
              "position": 3.75,
              "duration": 0.225
            }
          ]
        },
        "14": {
          "ctab": {
            "srcChannel": 14,
            "name": "Sax S",
            "accType": "PHRASE1",
            "editable": false,
            "mutedNotes": [],
            "mutedChords": [
              "1+2+5",
              "sus4",
              "1+5",
              "1+8",
              "7aug",
              "Maj7aug",
              "7(#9)",
              "7(b13)",
              "7(b9)",
              "7(13)",
              "7#11",
              "7b5",
              "7sus4",
              "dim7",
              "dim",
              "minMaj7(9)",
              "minMaj7",
              "min7(11)",
              "m7b5",
              "min6",
              "min",
              "aug",
              "Maj6(9)",
              "Maj7(9)",
              "Maj(9)",
              "Maj7#11",
              "Maj7",
              "Maj6"
            ],
            "autoStart": false,
            "sourceChordNote": 0,
            "sourceChordType": "7(9)",
            "ctb2Low": null,
            "ctb2Main": {
              "ntr": "ROOT_TRANSPOSITION",
              "ntt": "MELODIC_MINOR_5",
              "bassOn": false,
              "chordRootUpperLimit": 7,
              "noteLowLimit": 0,
              "noteHighLimit": 127,
              "rtr": "PITCH_SHIFT"
            },
            "ctb2High": null
          },
          "notes": [
            {
              "pitch": 70,
              "velocity": 51,
              "position": 1.5,
              "duration": 0.225
            },
            {
              "pitch": 67,
              "velocity": 116,
              "position": 1.5,
              "duration": 0.23541666666666666
            },
            {
              "pitch": 72,
              "velocity": 32,
              "position": 1.75,
              "duration": 0.13125
            },
            {
              "pitch": 69,
              "velocity": 98,
              "position": 1.75,
              "duration": 0.14166666666666666
            },
            {
              "pitch": 74,
              "velocity": 48,
              "position": 1.9895833333333333,
              "duration": 0.15208333333333332
            },
            {
              "pitch": 70,
              "velocity": 109,
              "position": 2,
              "duration": 0.15208333333333332
            },
            {
              "pitch": 74,
              "velocity": 35,
              "position": 2.2395833333333335,
              "duration": 0.13125
            },
            {
              "pitch": 70,
              "velocity": 94,
              "position": 2.2395833333333335,
              "duration": 0.14166666666666666
            },
            {
              "pitch": 69,
              "velocity": 126,
              "position": 2.4895833333333335,
              "duration": 0.1625
            },
            {
              "pitch": 72,
              "velocity": 51,
              "position": 2.5,
              "duration": 0.15208333333333332
            },
            {
              "pitch": 69,
              "velocity": 94,
              "position": 2.75,
              "duration": 0.1625
            },
            {
              "pitch": 72,
              "velocity": 36,
              "position": 2.75,
              "duration": 0.1625
            },
            {
              "pitch": 74,
              "velocity": 51,
              "position": 3,
              "duration": 0.13125
            },
            {
              "pitch": 70,
              "velocity": 111,
              "position": 3,
              "duration": 0.14166666666666666
            },
            {
              "pitch": 70,
              "velocity": 81,
              "position": 3.2395833333333335,
              "duration": 0.14166666666666666
            },
            {
              "pitch": 74,
              "velocity": 36,
              "position": 3.2395833333333335,
              "duration": 0.14166666666666666
            },
            {
              "pitch": 69,
              "velocity": 82,
              "position": 3.5,
              "duration": 0.225
            },
            {
              "pitch": 75,
              "velocity": 32,
              "position": 3.5,
              "duration": 0.23541666666666666
            },
            {
              "pitch": 69,
              "velocity": 119,
              "position": 3.7395833333333335,
              "duration": 0.17291666666666666
            },
            {
              "pitch": 76,
              "velocity": 48,
              "position": 3.7395833333333335,
              "duration": 0.18333333333333332
            }
          ]
        },
        "15": {
          "ctab": {
            "srcChannel": 15,
            "name": "Bari S",
            "accType": "PHRASE2",
            "editable": false,
            "mutedNotes": [],
            "mutedChords": [
              "1+2+5",
              "sus4",
              "1+5",
              "1+8",
              "7aug",
              "Maj7aug",
              "7(#9)",
              "7(b13)",
              "7(b9)",
              "7(13)",
              "7#11",
              "7b5",
              "7sus4",
              "dim7",
              "dim",
              "minMaj7(9)",
              "minMaj7",
              "min7(11)",
              "m7b5",
              "min6",
              "min",
              "aug",
              "Maj6(9)",
              "Maj7(9)",
              "Maj(9)",
              "Maj7#11",
              "Maj7",
              "Maj6"
            ],
            "autoStart": false,
            "sourceChordNote": 0,
            "sourceChordType": "7(9)",
            "ctb2Low": null,
            "ctb2Main": {
              "ntr": "ROOT_TRANSPOSITION",
              "ntt": "MELODIC_MINOR_5",
              "bassOn": true,
              "chordRootUpperLimit": 3,
              "noteLowLimit": 33,
              "noteHighLimit": 127,
              "rtr": "PITCH_SHIFT"
            },
            "ctb2High": null
          },
          "notes": [
            {
              "pitch": 48,
              "velocity": 102,
              "position": 1.4895833333333333,
              "duration": 0.26666666666666666
            },
            {
              "pitch": 50,
              "velocity": 98,
              "position": 1.75,
              "duration": 0.08958333333333333
            },
            {
              "pitch": 51,
              "velocity": 97,
              "position": 2,
              "duration": 0.12083333333333333
            },
            {
              "pitch": 51,
              "velocity": 97,
              "position": 2.2395833333333335,
              "duration": 0.08958333333333333
            },
            {
              "pitch": 50,
              "velocity": 102,
              "position": 2.5,
              "duration": 0.12083333333333333
            },
            {
              "pitch": 50,
              "velocity": 101,
              "position": 2.7395833333333335,
              "duration": 0.12083333333333333
            },
            {
              "pitch": 48,
              "velocity": 95,
              "position": 3,
              "duration": 0.11041666666666666
            },
            {
              "pitch": 48,
              "velocity": 101,
              "position": 3.2395833333333335,
              "duration": 0.12083333333333333
            },
            {
              "pitch": 46,
              "velocity": 101,
              "position": 3.4895833333333335,
              "duration": 0.24583333333333332
            },
            {
              "pitch": 48,
              "velocity": 101,
              "position": 3.7395833333333335,
              "duration": 0.23541666666666666
            }
          ]
        }
      }
    },
    "Intro_B": {
      "type": "Intro_B",
      "sizeInBeats": 8,
      "channels": {
        "1": {
          "ctab": {
            "srcChannel": 1,
            "name": "Bass",
            "accType": "BASS",
            "editable": false,
            "mutedNotes": [],
            "mutedChords": [
              "1+2+5",
              "sus4",
              "1+5",
              "1+8",
              "7aug",
              "Maj7aug",
              "7(#9)",
              "7(b13)",
              "7(b9)",
              "7(13)",
              "7#11",
              "7(9)",
              "7b5",
              "7sus4",
              "7th",
              "aug",
              "Maj6(9)",
              "Maj7(9)",
              "Maj(9)",
              "Maj7#11",
              "Maj7",
              "Maj6",
              "Maj"
            ],
            "autoStart": false,
            "sourceChordNote": 0,
            "sourceChordType": "min",
            "ctb2Low": null,
            "ctb2Main": {
              "ntr": "ROOT_TRANSPOSITION",
              "ntt": "BYPASS",
              "bassOn": false,
              "chordRootUpperLimit": 8,
              "noteLowLimit": 28,
              "noteHighLimit": 127,
              "rtr": "PITCH_SHIFT"
            },
            "ctb2High": null
          },
          "notes": [
            {
              "pitch": 31,
              "velocity": 80,
              "position": 5,
              "duration": 1.4854166666666666
            },
            {
              "pitch": 31,
              "velocity": 110,
              "position": 6.5,
              "duration": 0.13125
            },
            {
              "pitch": 34,
              "velocity": 80,
              "position": 7,
              "duration": 0.48541666666666666
            },
            {
              "pitch": 35,
              "velocity": 60,
              "position": 7.5,
              "duration": 0.23541666666666666
            }
          ]
        },
        "2": {
          "ctab": {
            "srcChannel": 2,
            "name": "Gt",
            "accType": "CHORD1",
            "editable": false,
            "mutedNotes": [],
            "mutedChords": [
              "1+2+5",
              "sus4",
              "1+5",
              "1+8",
              "7aug",
              "Maj7aug",
              "7(#9)",
              "7(b13)",
              "7(b9)",
              "7(13)",
              "7#11",
              "7(9)",
              "7b5",
              "7sus4",
              "7th",
              "aug",
              "Maj6(9)",
              "Maj7(9)",
              "Maj(9)",
              "Maj7#11",
              "Maj7",
              "Maj6",
              "Maj"
            ],
            "autoStart": false,
            "sourceChordNote": 0,
            "sourceChordType": "min",
            "ctb2Low": null,
            "ctb2Main": {
              "ntr": "ROOT_TRANSPOSITION",
              "ntt": "BYPASS",
              "bassOn": false,
              "chordRootUpperLimit": 6,
              "noteLowLimit": 0,
              "noteHighLimit": 79,
              "rtr": "PITCH_SHIFT"
            },
            "ctb2High": null
          },
          "notes": [
            {
              "pitch": 67,
              "velocity": 40,
              "position": 0.020833333333333332,
              "duration": 0.21458333333333332
            },
            {
              "pitch": 63,
              "velocity": 40,
              "position": 0.010416666666666666,
              "duration": 0.23541666666666666
            },
            {
              "pitch": 106,
              "velocity": 87,
              "position": 0.010416666666666666,
              "duration": 0.23541666666666666
            },
            {
              "pitch": 58,
              "velocity": 40,
              "position": 0.010416666666666666,
              "duration": 0.25625
            },
            {
              "pitch": 105,
              "velocity": 53,
              "position": 0.25,
              "duration": 0.23541666666666666
            },
            {
              "pitch": 58,
              "velocity": 27,
              "position": 0.2708333333333333,
              "duration": 0.21458333333333332
            },
            {
              "pitch": 63,
              "velocity": 27,
              "position": 0.2604166666666667,
              "duration": 0.23541666666666666
            },
            {
              "pitch": 67,
              "velocity": 27,
              "position": 0.25,
              "duration": 0.25625
            },
            {
              "pitch": 72,
              "velocity": 40,
              "position": 0.03125,
              "duration": 0.48541666666666666
            },
            {
              "pitch": 104,
              "velocity": 53,
              "position": 0.5,
              "duration": 0.23541666666666666
            },
            {
              "pitch": 72,
              "velocity": 30,
              "position": 0.53125,
              "duration": 0.20416666666666666
            },
            {
              "pitch": 67,
              "velocity": 30,
              "position": 0.5208333333333334,
              "duration": 0.225
            },
            {
              "pitch": 63,
              "velocity": 30,
              "position": 0.5104166666666666,
              "duration": 0.24583333333333332
            },
            {
              "pitch": 105,
              "velocity": 53,
              "position": 0.75,
              "duration": 0.23541666666666666
            },
            {
              "pitch": 58,
              "velocity": 30,
              "position": 0.5,
              "duration": 0.48541666666666666
            },
            {
              "pitch": 63,
              "velocity": 40,
              "position": 0.7708333333333334,
              "duration": 0.225
            },
            {
              "pitch": 67,
              "velocity": 33,
              "position": 0.7604166666666666,
              "duration": 0.24583333333333332
            },
            {
              "pitch": 72,
              "velocity": 33,
              "position": 0.75,
              "duration": 0.26666666666666666
            },
            {
              "pitch": 106,
              "velocity": 87,
              "position": 1,
              "duration": 0.23541666666666666
            },
            {
              "pitch": 67,
              "velocity": 40,
              "position": 1.0208333333333333,
              "duration": 0.21458333333333332
            },
            {
              "pitch": 63,
              "velocity": 40,
              "position": 1.0104166666666667,
              "duration": 0.23541666666666666
            },
            {
              "pitch": 58,
              "velocity": 40,
              "position": 1,
              "duration": 0.25625
            },
            {
              "pitch": 105,
              "velocity": 53,
              "position": 1.25,
              "duration": 0.23541666666666666
            },
            {
              "pitch": 58,
              "velocity": 22,
              "position": 1.2708333333333333,
              "duration": 0.21458333333333332
            },
            {
              "pitch": 63,
              "velocity": 22,
              "position": 1.2604166666666667,
              "duration": 0.23541666666666666
            },
            {
              "pitch": 67,
              "velocity": 22,
              "position": 1.25,
              "duration": 0.25625
            },
            {
              "pitch": 72,
              "velocity": 40,
              "position": 1.03125,
              "duration": 0.48541666666666666
            },
            {
              "pitch": 104,
              "velocity": 53,
              "position": 1.5,
              "duration": 0.23541666666666666
            },
            {
              "pitch": 72,
              "velocity": 25,
              "position": 1.53125,
              "duration": 0.20416666666666666
            },
            {
              "pitch": 67,
              "velocity": 25,
              "position": 1.5208333333333333,
              "duration": 0.225
            },
            {
              "pitch": 63,
              "velocity": 25,
              "position": 1.5104166666666667,
              "duration": 0.24583333333333332
            },
            {
              "pitch": 105,
              "velocity": 53,
              "position": 1.75,
              "duration": 0.23541666666666666
            },
            {
              "pitch": 58,
              "velocity": 25,
              "position": 1.5,
              "duration": 0.48541666666666666
            },
            {
              "pitch": 63,
              "velocity": 28,
              "position": 1.7708333333333333,
              "duration": 0.225
            },
            {
              "pitch": 67,
              "velocity": 28,
              "position": 1.7604166666666667,
              "duration": 0.24583333333333332
            },
            {
              "pitch": 72,
              "velocity": 28,
              "position": 1.75,
              "duration": 0.26666666666666666
            },
            {
              "pitch": 102,
              "velocity": 87,
              "position": 2,
              "duration": 0.48541666666666666
            },
            {
              "pitch": 58,
              "velocity": 40,
              "position": 2,
              "duration": 0.48541666666666666
            },
            {
              "pitch": 63,
              "velocity": 40,
              "position": 2.0104166666666665,
              "duration": 0.48541666666666666
            },
            {
              "pitch": 67,
              "velocity": 40,
              "position": 2.0208333333333335,
              "duration": 0.48541666666666666
            },
            {
              "pitch": 72,
              "velocity": 40,
              "position": 2.03125,
              "duration": 0.48541666666666666
            },
            {
              "pitch": 106,
              "velocity": 87,
              "position": 2.5,
              "duration": 0.23541666666666666
            },
            {
              "pitch": 67,
              "velocity": 35,
              "position": 2.5208333333333335,
              "duration": 0.21458333333333332
            },
            {
              "pitch": 63,
              "velocity": 35,
              "position": 2.5104166666666665,
              "duration": 0.23541666666666666
            },
            {
              "pitch": 58,
              "velocity": 35,
              "position": 2.5,
              "duration": 0.25625
            },
            {
              "pitch": 72,
              "velocity": 35,
              "position": 2.53125,
              "duration": 0.23541666666666666
            },
            {
              "pitch": 107,
              "velocity": 22,
              "position": 3,
              "duration": 0.23541666666666666
            },
            {
              "pitch": 58,
              "velocity": 40,
              "position": 3.5,
              "duration": 0.23541666666666666
            },
            {
              "pitch": 106,
              "velocity": 87,
              "position": 3.5,
              "duration": 0.23541666666666666
            },
            {
              "pitch": 63,
              "velocity": 40,
              "position": 3.5104166666666665,
              "duration": 0.23541666666666666
            },
            {
              "pitch": 67,
              "velocity": 40,
              "position": 3.5208333333333335,
              "duration": 0.23541666666666666
            },
            {
              "pitch": 72,
              "velocity": 40,
              "position": 3.53125,
              "duration": 0.23541666666666666
            },
            {
              "pitch": 102,
              "velocity": 23,
              "position": 4.5,
              "duration": 0.23541666666666666
            },
            {
              "pitch": 59,
              "velocity": 40,
              "position": 5,
              "duration": 2.4854166666666666
            },
            {
              "pitch": 65,
              "velocity": 40,
              "position": 5.020833333333333,
              "duration": 2.4854166666666666
            },
            {
              "pitch": 70,
              "velocity": 40,
              "position": 5.03125,
              "duration": 2.4854166666666666
            },
            {
              "pitch": 75,
              "velocity": 40,
              "position": 5.041666666666667,
              "duration": 2.4854166666666666
            },
            {
              "pitch": 106,
              "velocity": 80,
              "position": 7.5,
              "duration": 0.23541666666666666
            },
            {
              "pitch": 105,
              "velocity": 80,
              "position": 7.75,
              "duration": 0.23541666666666666
            }
          ]
        },
        "4": {
          "ctab": {
            "srcChannel": 4,
            "name": "Tpt",
            "accType": "PAD",
            "editable": false,
            "mutedNotes": [],
            "mutedChords": [
              "1+2+5",
              "sus4",
              "1+5",
              "1+8",
              "7aug",
              "Maj7aug",
              "7(#9)",
              "7(b13)",
              "7(b9)",
              "7(13)",
              "7#11",
              "7(9)",
              "7b5",
              "7sus4",
              "7th",
              "aug",
              "Maj6(9)",
              "Maj7(9)",
              "Maj(9)",
              "Maj7#11",
              "Maj7",
              "Maj6",
              "Maj"
            ],
            "autoStart": false,
            "sourceChordNote": 0,
            "sourceChordType": "min",
            "ctb2Low": null,
            "ctb2Main": {
              "ntr": "ROOT_TRANSPOSITION",
              "ntt": "BYPASS",
              "bassOn": false,
              "chordRootUpperLimit": 10,
              "noteLowLimit": 0,
              "noteHighLimit": 127,
              "rtr": "PITCH_SHIFT"
            },
            "ctb2High": null
          },
          "notes": []
        },
        "5": {
          "ctab": {
            "srcChannel": 5,
            "name": "Sax",
            "accType": "PHRASE1",
            "editable": false,
            "mutedNotes": [],
            "mutedChords": [
              "1+2+5",
              "sus4",
              "1+5",
              "1+8",
              "7aug",
              "Maj7aug",
              "7(#9)",
              "7(b13)",
              "7(b9)",
              "7(13)",
              "7#11",
              "7(9)",
              "7b5",
              "7sus4",
              "7th",
              "aug",
              "Maj6(9)",
              "Maj7(9)",
              "Maj(9)",
              "Maj7#11",
              "Maj7",
              "Maj6",
              "Maj"
            ],
            "autoStart": false,
            "sourceChordNote": 0,
            "sourceChordType": "min",
            "ctb2Low": null,
            "ctb2Main": {
              "ntr": "ROOT_TRANSPOSITION",
              "ntt": "BYPASS",
              "bassOn": false,
              "chordRootUpperLimit": 10,
              "noteLowLimit": 0,
              "noteHighLimit": 127,
              "rtr": "PITCH_SHIFT"
            },
            "ctb2High": null
          },
          "notes": [
            {
              "pitch": 59,
              "velocity": 121,
              "position": 4.989583333333333,
              "duration": 2.94375
            },
            {
              "pitch": 65,
              "velocity": 122,
              "position": 4.989583333333333,
              "duration": 2.94375
            }
          ]
        },
        "6": {
          "ctab": {
            "srcChannel": 6,
            "name": "Bari",
            "accType": "PHRASE2",
            "editable": false,
            "mutedNotes": [],
            "mutedChords": [
              "1+2+5",
              "sus4",
              "1+5",
              "1+8",
              "7aug",
              "Maj7aug",
              "7(#9)",
              "7(b13)",
              "7(b9)",
              "7(13)",
              "7#11",
              "7(9)",
              "7b5",
              "7sus4",
              "7th",
              "aug",
              "Maj6(9)",
              "Maj7(9)",
              "Maj(9)",
              "Maj7#11",
              "Maj7",
              "Maj6",
              "Maj"
            ],
            "autoStart": false,
            "sourceChordNote": 0,
            "sourceChordType": "min",
            "ctb2Low": null,
            "ctb2Main": {
              "ntr": "ROOT_TRANSPOSITION",
              "ntt": "BYPASS",
              "bassOn": false,
              "chordRootUpperLimit": 10,
              "noteLowLimit": 0,
              "noteHighLimit": 127,
              "rtr": "PITCH_SHIFT"
            },
            "ctb2High": null
          },
          "notes": [
            {
              "pitch": 43,
              "velocity": 122,
              "position": 5,
              "duration": 2.8604166666666666
            }
          ]
        },
        "8": {
          "ctab": {
            "srcChannel": 8,
            "name": "Perc",
            "accType": "SUBRHYTHM",
            "editable": false,
            "mutedNotes": [],
            "mutedChords": [],
            "autoStart": true,
            "sourceChordNote": 0,
            "sourceChordType": "Maj7",
            "ctb2Low": null,
            "ctb2Main": {
              "ntr": "ROOT_FIXED",
              "ntt": "BYPASS",
              "bassOn": false,
              "chordRootUpperLimit": 6,
              "noteLowLimit": 0,
              "noteHighLimit": 127,
              "rtr": "PITCH_SHIFT"
            },
            "ctb2High": null
          },
          "notes": [
            {
              "pitch": 82,
              "velocity": 80,
              "position": 5,
              "duration": 0.00625
            }
          ]
        },
        "9": {
          "ctab": {
            "srcChannel": 9,
            "name": "Drs",
            "accType": "RHYTHM",
            "editable": false,
            "mutedNotes": [],
            "mutedChords": [],
            "autoStart": true,
            "sourceChordNote": 0,
            "sourceChordType": "Maj7",
            "ctb2Low": null,
            "ctb2Main": {
              "ntr": "ROOT_FIXED",
              "ntt": "BYPASS",
              "bassOn": false,
              "chordRootUpperLimit": 6,
              "noteLowLimit": 0,
              "noteHighLimit": 127,
              "rtr": "PITCH_SHIFT"
            },
            "ctb2High": null
          },
          "notes": [
            {
              "pitch": 31,
              "velocity": 125,
              "position": 5,
              "duration": 0.00625
            },
            {
              "pitch": 57,
              "velocity": 83,
              "position": 5,
              "duration": 0.00625
            },
            {
              "pitch": 33,
              "velocity": 105,
              "position": 5,
              "duration": 0.00625
            },
            {
              "pitch": 33,
              "velocity": 105,
              "position": 6.5,
              "duration": 0.00625
            },
            {
              "pitch": 31,
              "velocity": 81,
              "position": 6.945833333333334,
              "duration": 0.00625
            },
            {
              "pitch": 31,
              "velocity": 125,
              "position": 7,
              "duration": 0.00625
            },
            {
              "pitch": 33,
              "velocity": 45,
              "position": 7.5,
              "duration": 0.00625
            },
            {
              "pitch": 46,
              "velocity": 50,
              "position": 7.5,
              "duration": 0.00625
            },
            {
              "pitch": 49,
              "velocity": 90,
              "position": 7.989583333333333,
              "duration": 0.00625
            }
          ]
        },
        "10": {
          "ctab": {
            "srcChannel": 10,
            "name": "Bass",
            "accType": "BASS",
            "editable": false,
            "mutedNotes": [],
            "mutedChords": [
              "dim7",
              "dim",
              "minMaj7(9)",
              "minMaj7",
              "min7(11)",
              "min7(9)",
              "min(9)",
              "m7b5",
              "min7",
              "min6",
              "min"
            ],
            "autoStart": false,
            "sourceChordNote": 0,
            "sourceChordType": "Maj",
            "ctb2Low": null,
            "ctb2Main": {
              "ntr": "ROOT_TRANSPOSITION",
              "ntt": "BYPASS",
              "bassOn": false,
              "chordRootUpperLimit": 8,
              "noteLowLimit": 28,
              "noteHighLimit": 127,
              "rtr": "PITCH_SHIFT"
            },
            "ctb2High": null
          },
          "notes": [
            {
              "pitch": 31,
              "velocity": 80,
              "position": 5,
              "duration": 1.4854166666666666
            },
            {
              "pitch": 31,
              "velocity": 110,
              "position": 6.5,
              "duration": 0.13125
            },
            {
              "pitch": 34,
              "velocity": 80,
              "position": 7,
              "duration": 0.48541666666666666
            },
            {
              "pitch": 35,
              "velocity": 60,
              "position": 7.5,
              "duration": 0.23541666666666666
            }
          ]
        },
        "11": {
          "ctab": {
            "srcChannel": 11,
            "name": "Gt",
            "accType": "CHORD1",
            "editable": false,
            "mutedNotes": [],
            "mutedChords": [
              "dim7",
              "dim",
              "minMaj7(9)",
              "minMaj7",
              "min7(11)",
              "min7(9)",
              "min(9)",
              "m7b5",
              "min7",
              "min6",
              "min"
            ],
            "autoStart": false,
            "sourceChordNote": 0,
            "sourceChordType": "Maj",
            "ctb2Low": null,
            "ctb2Main": {
              "ntr": "ROOT_TRANSPOSITION",
              "ntt": "BYPASS",
              "bassOn": false,
              "chordRootUpperLimit": 2,
              "noteLowLimit": 0,
              "noteHighLimit": 79,
              "rtr": "PITCH_SHIFT"
            },
            "ctb2High": null
          },
          "notes": [
            {
              "pitch": 74,
              "velocity": 40,
              "position": 0.020833333333333332,
              "duration": 0.21458333333333332
            },
            {
              "pitch": 70,
              "velocity": 40,
              "position": 0.010416666666666666,
              "duration": 0.23541666666666666
            },
            {
              "pitch": 106,
              "velocity": 87,
              "position": 0.010416666666666666,
              "duration": 0.23541666666666666
            },
            {
              "pitch": 64,
              "velocity": 40,
              "position": 0.010416666666666666,
              "duration": 0.25625
            },
            {
              "pitch": 105,
              "velocity": 53,
              "position": 0.25,
              "duration": 0.23541666666666666
            },
            {
              "pitch": 64,
              "velocity": 25,
              "position": 0.2708333333333333,
              "duration": 0.21458333333333332
            },
            {
              "pitch": 70,
              "velocity": 25,
              "position": 0.2604166666666667,
              "duration": 0.23541666666666666
            },
            {
              "pitch": 74,
              "velocity": 25,
              "position": 0.25,
              "duration": 0.25625
            },
            {
              "pitch": 79,
              "velocity": 40,
              "position": 0.03125,
              "duration": 0.48541666666666666
            },
            {
              "pitch": 104,
              "velocity": 53,
              "position": 0.5,
              "duration": 0.23541666666666666
            },
            {
              "pitch": 79,
              "velocity": 28,
              "position": 0.53125,
              "duration": 0.20416666666666666
            },
            {
              "pitch": 74,
              "velocity": 28,
              "position": 0.5208333333333334,
              "duration": 0.225
            },
            {
              "pitch": 70,
              "velocity": 28,
              "position": 0.5104166666666666,
              "duration": 0.24583333333333332
            },
            {
              "pitch": 105,
              "velocity": 53,
              "position": 0.75,
              "duration": 0.23541666666666666
            },
            {
              "pitch": 64,
              "velocity": 28,
              "position": 0.5,
              "duration": 0.48541666666666666
            },
            {
              "pitch": 70,
              "velocity": 31,
              "position": 0.7708333333333334,
              "duration": 0.225
            },
            {
              "pitch": 74,
              "velocity": 31,
              "position": 0.7604166666666666,
              "duration": 0.24583333333333332
            },
            {
              "pitch": 79,
              "velocity": 31,
              "position": 0.75,
              "duration": 0.26666666666666666
            },
            {
              "pitch": 106,
              "velocity": 87,
              "position": 1,
              "duration": 0.23541666666666666
            },
            {
              "pitch": 74,
              "velocity": 40,
              "position": 1.0208333333333333,
              "duration": 0.21458333333333332
            },
            {
              "pitch": 70,
              "velocity": 40,
              "position": 1.0104166666666667,
              "duration": 0.23541666666666666
            },
            {
              "pitch": 64,
              "velocity": 40,
              "position": 1,
              "duration": 0.25625
            },
            {
              "pitch": 105,
              "velocity": 53,
              "position": 1.25,
              "duration": 0.23541666666666666
            },
            {
              "pitch": 64,
              "velocity": 25,
              "position": 1.2708333333333333,
              "duration": 0.21458333333333332
            },
            {
              "pitch": 70,
              "velocity": 25,
              "position": 1.2604166666666667,
              "duration": 0.23541666666666666
            },
            {
              "pitch": 74,
              "velocity": 25,
              "position": 1.25,
              "duration": 0.25625
            },
            {
              "pitch": 79,
              "velocity": 40,
              "position": 1.03125,
              "duration": 0.48541666666666666
            },
            {
              "pitch": 104,
              "velocity": 53,
              "position": 1.5,
              "duration": 0.23541666666666666
            },
            {
              "pitch": 79,
              "velocity": 28,
              "position": 1.53125,
              "duration": 0.20416666666666666
            },
            {
              "pitch": 74,
              "velocity": 28,
              "position": 1.5208333333333333,
              "duration": 0.225
            },
            {
              "pitch": 70,
              "velocity": 28,
              "position": 1.5104166666666667,
              "duration": 0.24583333333333332
            },
            {
              "pitch": 105,
              "velocity": 53,
              "position": 1.75,
              "duration": 0.23541666666666666
            },
            {
              "pitch": 64,
              "velocity": 28,
              "position": 1.5,
              "duration": 0.48541666666666666
            },
            {
              "pitch": 70,
              "velocity": 31,
              "position": 1.7708333333333333,
              "duration": 0.225
            },
            {
              "pitch": 74,
              "velocity": 31,
              "position": 1.7604166666666667,
              "duration": 0.24583333333333332
            },
            {
              "pitch": 79,
              "velocity": 31,
              "position": 1.75,
              "duration": 0.26666666666666666
            },
            {
              "pitch": 102,
              "velocity": 87,
              "position": 2,
              "duration": 0.48541666666666666
            },
            {
              "pitch": 64,
              "velocity": 40,
              "position": 2,
              "duration": 0.48541666666666666
            },
            {
              "pitch": 70,
              "velocity": 40,
              "position": 2.0104166666666665,
              "duration": 0.48541666666666666
            },
            {
              "pitch": 74,
              "velocity": 40,
              "position": 2.0208333333333335,
              "duration": 0.48541666666666666
            },
            {
              "pitch": 79,
              "velocity": 40,
              "position": 2.03125,
              "duration": 0.48541666666666666
            },
            {
              "pitch": 106,
              "velocity": 87,
              "position": 2.5,
              "duration": 0.23541666666666666
            },
            {
              "pitch": 74,
              "velocity": 40,
              "position": 2.5208333333333335,
              "duration": 0.21458333333333332
            },
            {
              "pitch": 70,
              "velocity": 40,
              "position": 2.5104166666666665,
              "duration": 0.23541666666666666
            },
            {
              "pitch": 64,
              "velocity": 40,
              "position": 2.5,
              "duration": 0.25625
            },
            {
              "pitch": 79,
              "velocity": 40,
              "position": 2.53125,
              "duration": 0.23541666666666666
            },
            {
              "pitch": 107,
              "velocity": 22,
              "position": 3,
              "duration": 0.23541666666666666
            },
            {
              "pitch": 64,
              "velocity": 40,
              "position": 3.5,
              "duration": 0.23541666666666666
            },
            {
              "pitch": 106,
              "velocity": 87,
              "position": 3.5,
              "duration": 0.23541666666666666
            },
            {
              "pitch": 70,
              "velocity": 40,
              "position": 3.5104166666666665,
              "duration": 0.23541666666666666
            },
            {
              "pitch": 74,
              "velocity": 40,
              "position": 3.5208333333333335,
              "duration": 0.23541666666666666
            },
            {
              "pitch": 79,
              "velocity": 40,
              "position": 3.53125,
              "duration": 0.23541666666666666
            },
            {
              "pitch": 102,
              "velocity": 23,
              "position": 4.5,
              "duration": 0.23541666666666666
            },
            {
              "pitch": 55,
              "velocity": 40,
              "position": 5,
              "duration": 2.4854166666666666
            },
            {
              "pitch": 59,
              "velocity": 40,
              "position": 5,
              "duration": 2.4854166666666666
            },
            {
              "pitch": 65,
              "velocity": 40,
              "position": 5.010416666666667,
              "duration": 2.4854166666666666
            },
            {
              "pitch": 70,
              "velocity": 40,
              "position": 5.010416666666667,
              "duration": 2.4854166666666666
            },
            {
              "pitch": 106,
              "velocity": 80,
              "position": 7.5,
              "duration": 0.23541666666666666
            },
            {
              "pitch": 105,
              "velocity": 80,
              "position": 7.75,
              "duration": 0.23541666666666666
            }
          ]
        },
        "13": {
          "ctab": {
            "srcChannel": 13,
            "name": "Tpt",
            "accType": "PAD",
            "editable": false,
            "mutedNotes": [],
            "mutedChords": [
              "dim7",
              "dim",
              "minMaj7(9)",
              "minMaj7",
              "min7(11)",
              "min7(9)",
              "min(9)",
              "m7b5",
              "min7",
              "min6",
              "min"
            ],
            "autoStart": false,
            "sourceChordNote": 0,
            "sourceChordType": "Maj",
            "ctb2Low": null,
            "ctb2Main": {
              "ntr": "ROOT_TRANSPOSITION",
              "ntt": "BYPASS",
              "bassOn": false,
              "chordRootUpperLimit": 10,
              "noteLowLimit": 0,
              "noteHighLimit": 127,
              "rtr": "PITCH_SHIFT"
            },
            "ctb2High": null
          },
          "notes": []
        },
        "14": {
          "ctab": {
            "srcChannel": 14,
            "name": "Sax",
            "accType": "PHRASE1",
            "editable": false,
            "mutedNotes": [],
            "mutedChords": [
              "dim7",
              "dim",
              "minMaj7(9)",
              "minMaj7",
              "min7(11)",
              "min7(9)",
              "min(9)",
              "m7b5",
              "min7",
              "min6",
              "min"
            ],
            "autoStart": false,
            "sourceChordNote": 0,
            "sourceChordType": "Maj",
            "ctb2Low": null,
            "ctb2Main": {
              "ntr": "ROOT_TRANSPOSITION",
              "ntt": "BYPASS",
              "bassOn": false,
              "chordRootUpperLimit": 10,
              "noteLowLimit": 0,
              "noteHighLimit": 127,
              "rtr": "PITCH_SHIFT"
            },
            "ctb2High": null
          },
          "notes": [
            {
              "pitch": 59,
              "velocity": 121,
              "position": 4.989583333333333,
              "duration": 2.94375
            },
            {
              "pitch": 65,
              "velocity": 122,
              "position": 4.989583333333333,
              "duration": 2.94375
            }
          ]
        },
        "15": {
          "ctab": {
            "srcChannel": 15,
            "name": "Bari",
            "accType": "PHRASE2",
            "editable": false,
            "mutedNotes": [],
            "mutedChords": [
              "dim7",
              "dim",
              "minMaj7(9)",
              "minMaj7",
              "min7(11)",
              "min7(9)",
              "min(9)",
              "m7b5",
              "min7",
              "min6",
              "min"
            ],
            "autoStart": false,
            "sourceChordNote": 0,
            "sourceChordType": "Maj",
            "ctb2Low": null,
            "ctb2Main": {
              "ntr": "ROOT_TRANSPOSITION",
              "ntt": "BYPASS",
              "bassOn": false,
              "chordRootUpperLimit": 10,
              "noteLowLimit": 0,
              "noteHighLimit": 127,
              "rtr": "PITCH_SHIFT"
            },
            "ctb2High": null
          },
          "notes": [
            {
              "pitch": 43,
              "velocity": 122,
              "position": 5,
              "duration": 2.8604166666666666
            }
          ]
        }
      }
    },
    "Intro_C": {
      "type": "Intro_C",
      "sizeInBeats": 32,
      "channels": {
        "1": {
          "ctab": {
            "srcChannel": 1,
            "name": "Bass",
            "accType": "BASS",
            "editable": false,
            "mutedNotes": [],
            "mutedChords": [
              "1+2+5",
              "sus4",
              "1+5",
              "1+8",
              "7aug",
              "Maj7aug",
              "7(#9)",
              "7(b13)",
              "7(b9)",
              "7(13)",
              "7#11",
              "7(9)",
              "7b5",
              "7sus4",
              "7th",
              "aug",
              "Maj6(9)",
              "Maj7(9)",
              "Maj(9)",
              "Maj7#11",
              "Maj7",
              "Maj6",
              "Maj"
            ],
            "autoStart": false,
            "sourceChordNote": 0,
            "sourceChordType": "min",
            "ctb2Low": null,
            "ctb2Main": {
              "ntr": "ROOT_TRANSPOSITION",
              "ntt": "BYPASS",
              "bassOn": false,
              "chordRootUpperLimit": 8,
              "noteLowLimit": 28,
              "noteHighLimit": 127,
              "rtr": "PITCH_SHIFT"
            },
            "ctb2High": null
          },
          "notes": [
            {
              "pitch": 31,
              "velocity": 80,
              "position": 0,
              "duration": 0.23541666666666666
            },
            {
              "pitch": 31,
              "velocity": 91,
              "position": 0.25,
              "duration": 0.13125
            },
            {
              "pitch": 31,
              "velocity": 110,
              "position": 0.5,
              "duration": 0.13125
            },
            {
              "pitch": 31,
              "velocity": 80,
              "position": 0.75,
              "duration": 0.23541666666666666
            },
            {
              "pitch": 29,
              "velocity": 80,
              "position": 3.5,
              "duration": 0.13125
            },
            {
              "pitch": 30,
              "velocity": 63,
              "position": 3.75,
              "duration": 0.13125
            },
            {
              "pitch": 31,
              "velocity": 80,
              "position": 4,
              "duration": 0.23541666666666666
            },
            {
              "pitch": 31,
              "velocity": 91,
              "position": 4.25,
              "duration": 0.13125
            },
            {
              "pitch": 31,
              "velocity": 110,
              "position": 4.5,
              "duration": 0.13125
            },
            {
              "pitch": 31,
              "velocity": 80,
              "position": 4.75,
              "duration": 0.23541666666666666
            },
            {
              "pitch": 31,
              "velocity": 110,
              "position": 7.25,
              "duration": 0.13125
            },
            {
              "pitch": 41,
              "velocity": 80,
              "position": 7.5,
              "duration": 0.23541666666666666
            },
            {
              "pitch": 43,
              "velocity": 63,
              "position": 7.75,
              "duration": 0.13125
            },
            {
              "pitch": 31,
              "velocity": 80,
              "position": 8,
              "duration": 0.23541666666666666
            },
            {
              "pitch": 31,
              "velocity": 91,
              "position": 8.25,
              "duration": 0.13125
            },
            {
              "pitch": 31,
              "velocity": 110,
              "position": 8.5,
              "duration": 0.13125
            },
            {
              "pitch": 31,
              "velocity": 80,
              "position": 8.75,
              "duration": 0.23541666666666666
            },
            {
              "pitch": 29,
              "velocity": 80,
              "position": 11.5,
              "duration": 0.13125
            },
            {
              "pitch": 30,
              "velocity": 63,
              "position": 11.75,
              "duration": 0.13125
            },
            {
              "pitch": 31,
              "velocity": 80,
              "position": 12,
              "duration": 0.23541666666666666
            },
            {
              "pitch": 31,
              "velocity": 91,
              "position": 12.25,
              "duration": 0.13125
            },
            {
              "pitch": 31,
              "velocity": 110,
              "position": 12.5,
              "duration": 0.13125
            },
            {
              "pitch": 31,
              "velocity": 80,
              "position": 12.75,
              "duration": 0.23541666666666666
            },
            {
              "pitch": 41,
              "velocity": 80,
              "position": 13.5,
              "duration": 0.13125
            },
            {
              "pitch": 42,
              "velocity": 63,
              "position": 13.75,
              "duration": 0.13125
            },
            {
              "pitch": 43,
              "velocity": 80,
              "position": 14,
              "duration": 0.13125
            },
            {
              "pitch": 43,
              "velocity": 63,
              "position": 14.25,
              "duration": 0.13125
            },
            {
              "pitch": 38,
              "velocity": 80,
              "position": 14.5,
              "duration": 0.13125
            },
            {
              "pitch": 38,
              "velocity": 110,
              "position": 14.75,
              "duration": 0.13125
            },
            {
              "pitch": 31,
              "velocity": 80,
              "position": 15,
              "duration": 0.13125
            },
            {
              "pitch": 31,
              "velocity": 63,
              "position": 15.25,
              "duration": 0.13125
            },
            {
              "pitch": 31,
              "velocity": 110,
              "position": 15.5,
              "duration": 0.13125
            },
            {
              "pitch": 32,
              "velocity": 80,
              "position": 15.75,
              "duration": 0.7354166666666667
            },
            {
              "pitch": 32,
              "velocity": 110,
              "position": 16.5,
              "duration": 0.13125
            },
            {
              "pitch": 32,
              "velocity": 80,
              "position": 16.75,
              "duration": 0.23541666666666666
            },
            {
              "pitch": 32,
              "velocity": 110,
              "position": 17.25,
              "duration": 0.13125
            },
            {
              "pitch": 39,
              "velocity": 110,
              "position": 17.5,
              "duration": 0.13125
            },
            {
              "pitch": 42,
              "velocity": 80,
              "position": 17.75,
              "duration": 0.23541666666666666
            },
            {
              "pitch": 42,
              "velocity": 91,
              "position": 18,
              "duration": 0.13125
            },
            {
              "pitch": 42,
              "velocity": 110,
              "position": 18.25,
              "duration": 0.13125
            },
            {
              "pitch": 42,
              "velocity": 80,
              "position": 18.5,
              "duration": 0.23541666666666666
            },
            {
              "pitch": 44,
              "velocity": 60,
              "position": 18.75,
              "duration": 0.23541666666666666
            },
            {
              "pitch": 44,
              "velocity": 110,
              "position": 19,
              "duration": 0.13125
            },
            {
              "pitch": 39,
              "velocity": 110,
              "position": 19.25,
              "duration": 0.13125
            },
            {
              "pitch": 31,
              "velocity": 60,
              "position": 19.5,
              "duration": 0.17291666666666666
            },
            {
              "pitch": 30,
              "velocity": 60,
              "position": 19.75,
              "duration": 0.17291666666666666
            },
            {
              "pitch": 29,
              "velocity": 80,
              "position": 20,
              "duration": 0.23541666666666666
            },
            {
              "pitch": 29,
              "velocity": 91,
              "position": 20.25,
              "duration": 0.13125
            },
            {
              "pitch": 29,
              "velocity": 110,
              "position": 20.5,
              "duration": 0.13125
            },
            {
              "pitch": 29,
              "velocity": 80,
              "position": 20.75,
              "duration": 0.23541666666666666
            },
            {
              "pitch": 29,
              "velocity": 110,
              "position": 21.25,
              "duration": 0.13125
            },
            {
              "pitch": 36,
              "velocity": 110,
              "position": 21.5,
              "duration": 0.13125
            },
            {
              "pitch": 39,
              "velocity": 80,
              "position": 21.75,
              "duration": 0.23541666666666666
            },
            {
              "pitch": 39,
              "velocity": 91,
              "position": 22,
              "duration": 0.13125
            },
            {
              "pitch": 39,
              "velocity": 110,
              "position": 22.25,
              "duration": 0.13125
            },
            {
              "pitch": 39,
              "velocity": 80,
              "position": 22.5,
              "duration": 0.23541666666666666
            },
            {
              "pitch": 41,
              "velocity": 60,
              "position": 22.75,
              "duration": 0.23541666666666666
            },
            {
              "pitch": 41,
              "velocity": 110,
              "position": 23,
              "duration": 0.13125
            },
            {
              "pitch": 36,
              "velocity": 110,
              "position": 23.25,
              "duration": 0.13125
            },
            {
              "pitch": 29,
              "velocity": 60,
              "position": 23.5,
              "duration": 0.17291666666666666
            },
            {
              "pitch": 30,
              "velocity": 60,
              "position": 23.75,
              "duration": 0.17291666666666666
            },
            {
              "pitch": 31,
              "velocity": 80,
              "position": 24,
              "duration": 0.23541666666666666
            },
            {
              "pitch": 31,
              "velocity": 91,
              "position": 24.25,
              "duration": 0.13125
            },
            {
              "pitch": 31,
              "velocity": 110,
              "position": 24.5,
              "duration": 0.13125
            },
            {
              "pitch": 31,
              "velocity": 80,
              "position": 24.75,
              "duration": 0.23541666666666666
            },
            {
              "pitch": 31,
              "velocity": 110,
              "position": 25.25,
              "duration": 0.13125
            },
            {
              "pitch": 38,
              "velocity": 110,
              "position": 25.5,
              "duration": 0.13125
            },
            {
              "pitch": 41,
              "velocity": 80,
              "position": 25.75,
              "duration": 0.23541666666666666
            },
            {
              "pitch": 41,
              "velocity": 91,
              "position": 26,
              "duration": 0.13125
            },
            {
              "pitch": 41,
              "velocity": 110,
              "position": 26.25,
              "duration": 0.13125
            },
            {
              "pitch": 41,
              "velocity": 80,
              "position": 26.5,
              "duration": 0.23541666666666666
            },
            {
              "pitch": 42,
              "velocity": 60,
              "position": 26.75,
              "duration": 0.23541666666666666
            },
            {
              "pitch": 43,
              "velocity": 80,
              "position": 27,
              "duration": 0.48541666666666666
            },
            {
              "pitch": 29,
              "velocity": 80,
              "position": 27.5,
              "duration": 0.23541666666666666
            },
            {
              "pitch": 30,
              "velocity": 60,
              "position": 27.75,
              "duration": 0.23541666666666666
            },
            {
              "pitch": 31,
              "velocity": 80,
              "position": 28,
              "duration": 0.23541666666666666
            },
            {
              "pitch": 31,
              "velocity": 80,
              "position": 28.5,
              "duration": 0.23541666666666666
            },
            {
              "pitch": 31,
              "velocity": 80,
              "position": 29,
              "duration": 0.23541666666666666
            },
            {
              "pitch": 31,
              "velocity": 80,
              "position": 29.5,
              "duration": 0.23541666666666666
            },
            {
              "pitch": 31,
              "velocity": 80,
              "position": 30,
              "duration": 0.48541666666666666
            },
            {
              "pitch": 102,
              "velocity": 86,
              "position": 30.5,
              "duration": 0.23541666666666666
            },
            {
              "pitch": 100,
              "velocity": 127,
              "position": 31,
              "duration": 0.9854166666666667
            }
          ]
        },
        "2": {
          "ctab": {
            "srcChannel": 2,
            "name": "C1",
            "accType": "CHORD1",
            "editable": false,
            "mutedNotes": [],
            "mutedChords": [
              "1+2+5",
              "sus4",
              "1+5",
              "1+8",
              "7aug",
              "Maj7aug",
              "7(#9)",
              "7(b13)",
              "7(b9)",
              "7(13)",
              "7#11",
              "7(9)",
              "7b5",
              "7sus4",
              "7th",
              "aug",
              "Maj6(9)",
              "Maj7(9)",
              "Maj(9)",
              "Maj7#11",
              "Maj7",
              "Maj6",
              "Maj"
            ],
            "autoStart": false,
            "sourceChordNote": 0,
            "sourceChordType": "min",
            "ctb2Low": null,
            "ctb2Main": {
              "ntr": "ROOT_TRANSPOSITION",
              "ntt": "BYPASS",
              "bassOn": false,
              "chordRootUpperLimit": 6,
              "noteLowLimit": 0,
              "noteHighLimit": 79,
              "rtr": "PITCH_SHIFT"
            },
            "ctb2High": null
          },
          "notes": [
            {
              "pitch": 106,
              "velocity": 87,
              "position": 0,
              "duration": 0.23541666666666666
            },
            {
              "pitch": 75,
              "velocity": 39,
              "position": 0.03125,
              "duration": 0.20416666666666666
            },
            {
              "pitch": 70,
              "velocity": 39,
              "position": 0.020833333333333332,
              "duration": 0.21458333333333332
            },
            {
              "pitch": 65,
              "velocity": 39,
              "position": 0.010416666666666666,
              "duration": 0.23541666666666666
            },
            {
              "pitch": 75,
              "velocity": 20,
              "position": 0.25,
              "duration": 0.11041666666666666
            },
            {
              "pitch": 70,
              "velocity": 20,
              "position": 0.2604166666666667,
              "duration": 0.12083333333333333
            },
            {
              "pitch": 65,
              "velocity": 20,
              "position": 0.2708333333333333,
              "duration": 0.14166666666666666
            },
            {
              "pitch": 108,
              "velocity": 72,
              "position": 0.25,
              "duration": 0.23541666666666666
            },
            {
              "pitch": 107,
              "velocity": 72,
              "position": 0.5,
              "duration": 0.23541666666666666
            },
            {
              "pitch": 75,
              "velocity": 39,
              "position": 0.75,
              "duration": 0.20416666666666666
            },
            {
              "pitch": 70,
              "velocity": 39,
              "position": 0.7604166666666666,
              "duration": 0.21458333333333332
            },
            {
              "pitch": 105,
              "velocity": 87,
              "position": 0.75,
              "duration": 0.23541666666666666
            },
            {
              "pitch": 65,
              "velocity": 39,
              "position": 0.7708333333333334,
              "duration": 0.23541666666666666
            },
            {
              "pitch": 59,
              "velocity": 33,
              "position": 0.78125,
              "duration": 0.25625
            },
            {
              "pitch": 107,
              "velocity": 72,
              "position": 1,
              "duration": 0.23541666666666666
            },
            {
              "pitch": 108,
              "velocity": 72,
              "position": 1.25,
              "duration": 0.23541666666666666
            },
            {
              "pitch": 106,
              "velocity": 87,
              "position": 1.5,
              "duration": 0.23541666666666666
            },
            {
              "pitch": 75,
              "velocity": 39,
              "position": 1.53125,
              "duration": 0.20416666666666666
            },
            {
              "pitch": 70,
              "velocity": 39,
              "position": 1.5208333333333333,
              "duration": 0.21458333333333332
            },
            {
              "pitch": 65,
              "velocity": 39,
              "position": 1.5104166666666667,
              "duration": 0.23541666666666666
            },
            {
              "pitch": 59,
              "velocity": 33,
              "position": 1.5,
              "duration": 0.25625
            },
            {
              "pitch": 108,
              "velocity": 72,
              "position": 1.75,
              "duration": 0.23541666666666666
            },
            {
              "pitch": 107,
              "velocity": 72,
              "position": 2,
              "duration": 0.23541666666666666
            },
            {
              "pitch": 108,
              "velocity": 72,
              "position": 2.25,
              "duration": 0.23541666666666666
            },
            {
              "pitch": 106,
              "velocity": 87,
              "position": 2.5,
              "duration": 0.23541666666666666
            },
            {
              "pitch": 70,
              "velocity": 39,
              "position": 2.5208333333333335,
              "duration": 0.21458333333333332
            },
            {
              "pitch": 65,
              "velocity": 39,
              "position": 2.5104166666666665,
              "duration": 0.23541666666666666
            },
            {
              "pitch": 59,
              "velocity": 33,
              "position": 2.5,
              "duration": 0.25625
            },
            {
              "pitch": 108,
              "velocity": 72,
              "position": 2.75,
              "duration": 0.23541666666666666
            },
            {
              "pitch": 59,
              "velocity": 26,
              "position": 2.7708333333333335,
              "duration": 0.21458333333333332
            },
            {
              "pitch": 65,
              "velocity": 26,
              "position": 2.7604166666666665,
              "duration": 0.23541666666666666
            },
            {
              "pitch": 70,
              "velocity": 26,
              "position": 2.75,
              "duration": 0.25625
            },
            {
              "pitch": 75,
              "velocity": 39,
              "position": 2.53125,
              "duration": 0.48541666666666666
            },
            {
              "pitch": 107,
              "velocity": 72,
              "position": 3,
              "duration": 0.23541666666666666
            },
            {
              "pitch": 75,
              "velocity": 33,
              "position": 3.03125,
              "duration": 0.20416666666666666
            },
            {
              "pitch": 70,
              "velocity": 33,
              "position": 3.0208333333333335,
              "duration": 0.225
            },
            {
              "pitch": 65,
              "velocity": 33,
              "position": 3.0104166666666665,
              "duration": 0.24583333333333332
            },
            {
              "pitch": 105,
              "velocity": 87,
              "position": 3.25,
              "duration": 0.23541666666666666
            },
            {
              "pitch": 65,
              "velocity": 39,
              "position": 3.2708333333333335,
              "duration": 0.21458333333333332
            },
            {
              "pitch": 70,
              "velocity": 39,
              "position": 3.2604166666666665,
              "duration": 0.23541666666666666
            },
            {
              "pitch": 75,
              "velocity": 39,
              "position": 3.25,
              "duration": 0.25625
            },
            {
              "pitch": 59,
              "velocity": 33,
              "position": 3,
              "duration": 0.50625
            },
            {
              "pitch": 107,
              "velocity": 72,
              "position": 3.5,
              "duration": 0.23541666666666666
            },
            {
              "pitch": 108,
              "velocity": 72,
              "position": 3.75,
              "duration": 0.23541666666666666
            },
            {
              "pitch": 106,
              "velocity": 87,
              "position": 4,
              "duration": 0.23541666666666666
            },
            {
              "pitch": 75,
              "velocity": 39,
              "position": 4.03125,
              "duration": 0.20416666666666666
            },
            {
              "pitch": 70,
              "velocity": 39,
              "position": 4.020833333333333,
              "duration": 0.21458333333333332
            },
            {
              "pitch": 65,
              "velocity": 39,
              "position": 4.010416666666667,
              "duration": 0.23541666666666666
            },
            {
              "pitch": 75,
              "velocity": 20,
              "position": 4.25,
              "duration": 0.11041666666666666
            },
            {
              "pitch": 70,
              "velocity": 20,
              "position": 4.260416666666667,
              "duration": 0.12083333333333333
            },
            {
              "pitch": 65,
              "velocity": 20,
              "position": 4.270833333333333,
              "duration": 0.14166666666666666
            },
            {
              "pitch": 108,
              "velocity": 72,
              "position": 4.25,
              "duration": 0.23541666666666666
            },
            {
              "pitch": 107,
              "velocity": 72,
              "position": 4.5,
              "duration": 0.23541666666666666
            },
            {
              "pitch": 75,
              "velocity": 39,
              "position": 4.75,
              "duration": 0.20416666666666666
            },
            {
              "pitch": 70,
              "velocity": 39,
              "position": 4.760416666666667,
              "duration": 0.21458333333333332
            },
            {
              "pitch": 105,
              "velocity": 87,
              "position": 4.75,
              "duration": 0.23541666666666666
            },
            {
              "pitch": 65,
              "velocity": 39,
              "position": 4.770833333333333,
              "duration": 0.23541666666666666
            },
            {
              "pitch": 59,
              "velocity": 33,
              "position": 4.78125,
              "duration": 0.25625
            },
            {
              "pitch": 107,
              "velocity": 72,
              "position": 5,
              "duration": 0.23541666666666666
            },
            {
              "pitch": 108,
              "velocity": 72,
              "position": 5.25,
              "duration": 0.23541666666666666
            },
            {
              "pitch": 106,
              "velocity": 87,
              "position": 5.5,
              "duration": 0.23541666666666666
            },
            {
              "pitch": 75,
              "velocity": 39,
              "position": 5.53125,
              "duration": 0.20416666666666666
            },
            {
              "pitch": 70,
              "velocity": 39,
              "position": 5.520833333333333,
              "duration": 0.21458333333333332
            },
            {
              "pitch": 65,
              "velocity": 39,
              "position": 5.510416666666667,
              "duration": 0.23541666666666666
            },
            {
              "pitch": 59,
              "velocity": 33,
              "position": 5.5,
              "duration": 0.25625
            },
            {
              "pitch": 108,
              "velocity": 72,
              "position": 5.75,
              "duration": 0.23541666666666666
            },
            {
              "pitch": 107,
              "velocity": 72,
              "position": 6,
              "duration": 0.23541666666666666
            },
            {
              "pitch": 108,
              "velocity": 72,
              "position": 6.25,
              "duration": 0.23541666666666666
            },
            {
              "pitch": 106,
              "velocity": 87,
              "position": 6.5,
              "duration": 0.23541666666666666
            },
            {
              "pitch": 70,
              "velocity": 39,
              "position": 6.520833333333333,
              "duration": 0.21458333333333332
            },
            {
              "pitch": 65,
              "velocity": 39,
              "position": 6.510416666666667,
              "duration": 0.23541666666666666
            },
            {
              "pitch": 59,
              "velocity": 33,
              "position": 6.5,
              "duration": 0.25625
            },
            {
              "pitch": 108,
              "velocity": 72,
              "position": 6.75,
              "duration": 0.23541666666666666
            },
            {
              "pitch": 59,
              "velocity": 26,
              "position": 6.770833333333333,
              "duration": 0.21458333333333332
            },
            {
              "pitch": 65,
              "velocity": 26,
              "position": 6.760416666666667,
              "duration": 0.23541666666666666
            },
            {
              "pitch": 70,
              "velocity": 26,
              "position": 6.75,
              "duration": 0.25625
            },
            {
              "pitch": 75,
              "velocity": 39,
              "position": 6.53125,
              "duration": 0.48541666666666666
            },
            {
              "pitch": 107,
              "velocity": 72,
              "position": 7,
              "duration": 0.23541666666666666
            },
            {
              "pitch": 75,
              "velocity": 33,
              "position": 7.03125,
              "duration": 0.20416666666666666
            },
            {
              "pitch": 70,
              "velocity": 33,
              "position": 7.020833333333333,
              "duration": 0.225
            },
            {
              "pitch": 65,
              "velocity": 33,
              "position": 7.010416666666667,
              "duration": 0.24583333333333332
            },
            {
              "pitch": 105,
              "velocity": 87,
              "position": 7.25,
              "duration": 0.23541666666666666
            },
            {
              "pitch": 65,
              "velocity": 39,
              "position": 7.270833333333333,
              "duration": 0.21458333333333332
            },
            {
              "pitch": 70,
              "velocity": 39,
              "position": 7.260416666666667,
              "duration": 0.23541666666666666
            },
            {
              "pitch": 75,
              "velocity": 39,
              "position": 7.25,
              "duration": 0.25625
            },
            {
              "pitch": 59,
              "velocity": 33,
              "position": 7,
              "duration": 0.50625
            },
            {
              "pitch": 107,
              "velocity": 72,
              "position": 7.5,
              "duration": 0.23541666666666666
            },
            {
              "pitch": 108,
              "velocity": 72,
              "position": 7.75,
              "duration": 0.23541666666666666
            },
            {
              "pitch": 106,
              "velocity": 87,
              "position": 8,
              "duration": 0.23541666666666666
            },
            {
              "pitch": 75,
              "velocity": 39,
              "position": 8.03125,
              "duration": 0.20416666666666666
            },
            {
              "pitch": 70,
              "velocity": 39,
              "position": 8.020833333333334,
              "duration": 0.21458333333333332
            },
            {
              "pitch": 65,
              "velocity": 39,
              "position": 8.010416666666666,
              "duration": 0.23541666666666666
            },
            {
              "pitch": 75,
              "velocity": 20,
              "position": 8.25,
              "duration": 0.11041666666666666
            },
            {
              "pitch": 70,
              "velocity": 20,
              "position": 8.260416666666666,
              "duration": 0.12083333333333333
            },
            {
              "pitch": 65,
              "velocity": 20,
              "position": 8.270833333333334,
              "duration": 0.14166666666666666
            },
            {
              "pitch": 108,
              "velocity": 72,
              "position": 8.25,
              "duration": 0.23541666666666666
            },
            {
              "pitch": 107,
              "velocity": 72,
              "position": 8.5,
              "duration": 0.23541666666666666
            },
            {
              "pitch": 75,
              "velocity": 39,
              "position": 8.75,
              "duration": 0.20416666666666666
            },
            {
              "pitch": 70,
              "velocity": 39,
              "position": 8.760416666666666,
              "duration": 0.21458333333333332
            },
            {
              "pitch": 105,
              "velocity": 87,
              "position": 8.75,
              "duration": 0.23541666666666666
            },
            {
              "pitch": 65,
              "velocity": 39,
              "position": 8.770833333333334,
              "duration": 0.23541666666666666
            },
            {
              "pitch": 59,
              "velocity": 33,
              "position": 8.78125,
              "duration": 0.25625
            },
            {
              "pitch": 107,
              "velocity": 72,
              "position": 9,
              "duration": 0.23541666666666666
            },
            {
              "pitch": 108,
              "velocity": 72,
              "position": 9.25,
              "duration": 0.23541666666666666
            },
            {
              "pitch": 106,
              "velocity": 87,
              "position": 9.5,
              "duration": 0.23541666666666666
            },
            {
              "pitch": 75,
              "velocity": 39,
              "position": 9.53125,
              "duration": 0.20416666666666666
            },
            {
              "pitch": 70,
              "velocity": 39,
              "position": 9.520833333333334,
              "duration": 0.21458333333333332
            },
            {
              "pitch": 65,
              "velocity": 39,
              "position": 9.510416666666666,
              "duration": 0.23541666666666666
            },
            {
              "pitch": 59,
              "velocity": 33,
              "position": 9.5,
              "duration": 0.25625
            },
            {
              "pitch": 108,
              "velocity": 72,
              "position": 9.75,
              "duration": 0.23541666666666666
            },
            {
              "pitch": 107,
              "velocity": 72,
              "position": 10,
              "duration": 0.23541666666666666
            },
            {
              "pitch": 108,
              "velocity": 72,
              "position": 10.25,
              "duration": 0.23541666666666666
            },
            {
              "pitch": 106,
              "velocity": 87,
              "position": 10.5,
              "duration": 0.23541666666666666
            },
            {
              "pitch": 70,
              "velocity": 39,
              "position": 10.520833333333334,
              "duration": 0.21458333333333332
            },
            {
              "pitch": 65,
              "velocity": 39,
              "position": 10.510416666666666,
              "duration": 0.23541666666666666
            },
            {
              "pitch": 59,
              "velocity": 33,
              "position": 10.5,
              "duration": 0.25625
            },
            {
              "pitch": 108,
              "velocity": 72,
              "position": 10.75,
              "duration": 0.23541666666666666
            },
            {
              "pitch": 59,
              "velocity": 26,
              "position": 10.770833333333334,
              "duration": 0.21458333333333332
            },
            {
              "pitch": 65,
              "velocity": 26,
              "position": 10.760416666666666,
              "duration": 0.23541666666666666
            },
            {
              "pitch": 70,
              "velocity": 26,
              "position": 10.75,
              "duration": 0.25625
            },
            {
              "pitch": 75,
              "velocity": 39,
              "position": 10.53125,
              "duration": 0.48541666666666666
            },
            {
              "pitch": 107,
              "velocity": 72,
              "position": 11,
              "duration": 0.23541666666666666
            },
            {
              "pitch": 75,
              "velocity": 33,
              "position": 11.03125,
              "duration": 0.20416666666666666
            },
            {
              "pitch": 70,
              "velocity": 33,
              "position": 11.020833333333334,
              "duration": 0.225
            },
            {
              "pitch": 65,
              "velocity": 33,
              "position": 11.010416666666666,
              "duration": 0.24583333333333332
            },
            {
              "pitch": 105,
              "velocity": 87,
              "position": 11.25,
              "duration": 0.23541666666666666
            },
            {
              "pitch": 65,
              "velocity": 39,
              "position": 11.270833333333334,
              "duration": 0.21458333333333332
            },
            {
              "pitch": 70,
              "velocity": 39,
              "position": 11.260416666666666,
              "duration": 0.23541666666666666
            },
            {
              "pitch": 75,
              "velocity": 39,
              "position": 11.25,
              "duration": 0.25625
            },
            {
              "pitch": 59,
              "velocity": 33,
              "position": 11,
              "duration": 0.50625
            },
            {
              "pitch": 107,
              "velocity": 72,
              "position": 11.5,
              "duration": 0.23541666666666666
            },
            {
              "pitch": 108,
              "velocity": 72,
              "position": 11.75,
              "duration": 0.23541666666666666
            },
            {
              "pitch": 106,
              "velocity": 87,
              "position": 12,
              "duration": 0.23541666666666666
            },
            {
              "pitch": 75,
              "velocity": 39,
              "position": 12.03125,
              "duration": 0.20416666666666666
            },
            {
              "pitch": 70,
              "velocity": 39,
              "position": 12.020833333333334,
              "duration": 0.21458333333333332
            },
            {
              "pitch": 65,
              "velocity": 39,
              "position": 12.010416666666666,
              "duration": 0.23541666666666666
            },
            {
              "pitch": 75,
              "velocity": 20,
              "position": 12.25,
              "duration": 0.11041666666666666
            },
            {
              "pitch": 70,
              "velocity": 20,
              "position": 12.260416666666666,
              "duration": 0.12083333333333333
            },
            {
              "pitch": 65,
              "velocity": 20,
              "position": 12.270833333333334,
              "duration": 0.14166666666666666
            },
            {
              "pitch": 108,
              "velocity": 72,
              "position": 12.25,
              "duration": 0.23541666666666666
            },
            {
              "pitch": 107,
              "velocity": 72,
              "position": 12.5,
              "duration": 0.23541666666666666
            },
            {
              "pitch": 75,
              "velocity": 39,
              "position": 12.75,
              "duration": 0.20416666666666666
            },
            {
              "pitch": 70,
              "velocity": 39,
              "position": 12.760416666666666,
              "duration": 0.21458333333333332
            },
            {
              "pitch": 105,
              "velocity": 87,
              "position": 12.75,
              "duration": 0.23541666666666666
            },
            {
              "pitch": 65,
              "velocity": 39,
              "position": 12.770833333333334,
              "duration": 0.23541666666666666
            },
            {
              "pitch": 59,
              "velocity": 33,
              "position": 12.78125,
              "duration": 0.25625
            },
            {
              "pitch": 107,
              "velocity": 72,
              "position": 13,
              "duration": 0.23541666666666666
            },
            {
              "pitch": 108,
              "velocity": 72,
              "position": 13.25,
              "duration": 0.23541666666666666
            },
            {
              "pitch": 106,
              "velocity": 87,
              "position": 13.5,
              "duration": 0.23541666666666666
            },
            {
              "pitch": 75,
              "velocity": 39,
              "position": 13.53125,
              "duration": 0.20416666666666666
            },
            {
              "pitch": 70,
              "velocity": 39,
              "position": 13.520833333333334,
              "duration": 0.21458333333333332
            },
            {
              "pitch": 65,
              "velocity": 39,
              "position": 13.510416666666666,
              "duration": 0.23541666666666666
            },
            {
              "pitch": 75,
              "velocity": 20,
              "position": 13.75,
              "duration": 0.11041666666666666
            },
            {
              "pitch": 70,
              "velocity": 20,
              "position": 13.760416666666666,
              "duration": 0.12083333333333333
            },
            {
              "pitch": 65,
              "velocity": 20,
              "position": 13.770833333333334,
              "duration": 0.14166666666666666
            },
            {
              "pitch": 108,
              "velocity": 72,
              "position": 13.75,
              "duration": 0.23541666666666666
            },
            {
              "pitch": 107,
              "velocity": 72,
              "position": 14,
              "duration": 0.23541666666666666
            },
            {
              "pitch": 75,
              "velocity": 39,
              "position": 14.25,
              "duration": 0.20416666666666666
            },
            {
              "pitch": 70,
              "velocity": 39,
              "position": 14.260416666666666,
              "duration": 0.21458333333333332
            },
            {
              "pitch": 108,
              "velocity": 72,
              "position": 14.25,
              "duration": 0.23541666666666666
            },
            {
              "pitch": 65,
              "velocity": 39,
              "position": 14.270833333333334,
              "duration": 0.23541666666666666
            },
            {
              "pitch": 59,
              "velocity": 33,
              "position": 14.28125,
              "duration": 0.25625
            },
            {
              "pitch": 106,
              "velocity": 87,
              "position": 14.5,
              "duration": 0.23541666666666666
            },
            {
              "pitch": 108,
              "velocity": 72,
              "position": 14.75,
              "duration": 0.23541666666666666
            },
            {
              "pitch": 107,
              "velocity": 72,
              "position": 15,
              "duration": 0.23541666666666666
            },
            {
              "pitch": 75,
              "velocity": 39,
              "position": 15.03125,
              "duration": 0.20416666666666666
            },
            {
              "pitch": 70,
              "velocity": 39,
              "position": 15.020833333333334,
              "duration": 0.21458333333333332
            },
            {
              "pitch": 65,
              "velocity": 39,
              "position": 15.010416666666666,
              "duration": 0.23541666666666666
            },
            {
              "pitch": 75,
              "velocity": 20,
              "position": 15.25,
              "duration": 0.11041666666666666
            },
            {
              "pitch": 70,
              "velocity": 20,
              "position": 15.260416666666666,
              "duration": 0.12083333333333333
            },
            {
              "pitch": 65,
              "velocity": 20,
              "position": 15.270833333333334,
              "duration": 0.14166666666666666
            },
            {
              "pitch": 105,
              "velocity": 87,
              "position": 15.25,
              "duration": 0.23541666666666666
            },
            {
              "pitch": 107,
              "velocity": 72,
              "position": 15.5,
              "duration": 0.23541666666666666
            },
            {
              "pitch": 108,
              "velocity": 72,
              "position": 15.75,
              "duration": 0.23541666666666666
            },
            {
              "pitch": 75,
              "velocity": 39,
              "position": 15.78125,
              "duration": 0.45416666666666666
            },
            {
              "pitch": 106,
              "velocity": 87,
              "position": 16,
              "duration": 0.23541666666666666
            },
            {
              "pitch": 70,
              "velocity": 39,
              "position": 15.770833333333334,
              "duration": 0.46458333333333335
            },
            {
              "pitch": 66,
              "velocity": 39,
              "position": 15.760416666666666,
              "duration": 0.48541666666666666
            },
            {
              "pitch": 75,
              "velocity": 20,
              "position": 16.25,
              "duration": 0.11041666666666666
            },
            {
              "pitch": 70,
              "velocity": 20,
              "position": 16.260416666666668,
              "duration": 0.12083333333333333
            },
            {
              "pitch": 66,
              "velocity": 20,
              "position": 16.270833333333332,
              "duration": 0.14166666666666666
            },
            {
              "pitch": 108,
              "velocity": 70,
              "position": 16.25,
              "duration": 0.23541666666666666
            },
            {
              "pitch": 107,
              "velocity": 70,
              "position": 16.5,
              "duration": 0.23541666666666666
            },
            {
              "pitch": 75,
              "velocity": 39,
              "position": 16.75,
              "duration": 0.20416666666666666
            },
            {
              "pitch": 70,
              "velocity": 39,
              "position": 16.760416666666668,
              "duration": 0.21458333333333332
            },
            {
              "pitch": 105,
              "velocity": 87,
              "position": 16.75,
              "duration": 0.23541666666666666
            },
            {
              "pitch": 66,
              "velocity": 39,
              "position": 16.770833333333332,
              "duration": 0.23541666666666666
            },
            {
              "pitch": 60,
              "velocity": 33,
              "position": 16.78125,
              "duration": 0.25625
            },
            {
              "pitch": 107,
              "velocity": 70,
              "position": 17,
              "duration": 0.23541666666666666
            },
            {
              "pitch": 108,
              "velocity": 70,
              "position": 17.25,
              "duration": 0.23541666666666666
            },
            {
              "pitch": 106,
              "velocity": 87,
              "position": 17.5,
              "duration": 0.23541666666666666
            },
            {
              "pitch": 75,
              "velocity": 39,
              "position": 17.53125,
              "duration": 0.20416666666666666
            },
            {
              "pitch": 70,
              "velocity": 39,
              "position": 17.520833333333332,
              "duration": 0.21458333333333332
            },
            {
              "pitch": 66,
              "velocity": 39,
              "position": 17.510416666666668,
              "duration": 0.23541666666666666
            },
            {
              "pitch": 60,
              "velocity": 33,
              "position": 17.5,
              "duration": 0.25625
            },
            {
              "pitch": 108,
              "velocity": 70,
              "position": 17.75,
              "duration": 0.23541666666666666
            },
            {
              "pitch": 107,
              "velocity": 70,
              "position": 18,
              "duration": 0.23541666666666666
            },
            {
              "pitch": 108,
              "velocity": 70,
              "position": 18.25,
              "duration": 0.23541666666666666
            },
            {
              "pitch": 106,
              "velocity": 87,
              "position": 18.5,
              "duration": 0.23541666666666666
            },
            {
              "pitch": 70,
              "velocity": 39,
              "position": 18.520833333333332,
              "duration": 0.21458333333333332
            },
            {
              "pitch": 66,
              "velocity": 39,
              "position": 18.510416666666668,
              "duration": 0.23541666666666666
            },
            {
              "pitch": 60,
              "velocity": 33,
              "position": 18.5,
              "duration": 0.25625
            },
            {
              "pitch": 108,
              "velocity": 70,
              "position": 18.75,
              "duration": 0.23541666666666666
            },
            {
              "pitch": 60,
              "velocity": 26,
              "position": 18.770833333333332,
              "duration": 0.21458333333333332
            },
            {
              "pitch": 66,
              "velocity": 26,
              "position": 18.760416666666668,
              "duration": 0.23541666666666666
            },
            {
              "pitch": 70,
              "velocity": 26,
              "position": 18.75,
              "duration": 0.25625
            },
            {
              "pitch": 75,
              "velocity": 39,
              "position": 18.53125,
              "duration": 0.48541666666666666
            },
            {
              "pitch": 107,
              "velocity": 70,
              "position": 19,
              "duration": 0.23541666666666666
            },
            {
              "pitch": 75,
              "velocity": 33,
              "position": 19.03125,
              "duration": 0.20416666666666666
            },
            {
              "pitch": 70,
              "velocity": 33,
              "position": 19.020833333333332,
              "duration": 0.225
            },
            {
              "pitch": 66,
              "velocity": 33,
              "position": 19.010416666666668,
              "duration": 0.24583333333333332
            },
            {
              "pitch": 105,
              "velocity": 87,
              "position": 19.25,
              "duration": 0.23541666666666666
            },
            {
              "pitch": 66,
              "velocity": 39,
              "position": 19.270833333333332,
              "duration": 0.21458333333333332
            },
            {
              "pitch": 70,
              "velocity": 39,
              "position": 19.260416666666668,
              "duration": 0.23541666666666666
            },
            {
              "pitch": 75,
              "velocity": 39,
              "position": 19.25,
              "duration": 0.25625
            },
            {
              "pitch": 60,
              "velocity": 33,
              "position": 19,
              "duration": 0.50625
            },
            {
              "pitch": 107,
              "velocity": 70,
              "position": 19.5,
              "duration": 0.23541666666666666
            },
            {
              "pitch": 108,
              "velocity": 70,
              "position": 19.75,
              "duration": 0.23541666666666666
            },
            {
              "pitch": 106,
              "velocity": 87,
              "position": 20,
              "duration": 0.23541666666666666
            },
            {
              "pitch": 74,
              "velocity": 39,
              "position": 20.03125,
              "duration": 0.20416666666666666
            },
            {
              "pitch": 69,
              "velocity": 39,
              "position": 20.020833333333332,
              "duration": 0.21458333333333332
            },
            {
              "pitch": 65,
              "velocity": 39,
              "position": 20.010416666666668,
              "duration": 0.23541666666666666
            },
            {
              "pitch": 72,
              "velocity": 20,
              "position": 20.25,
              "duration": 0.11041666666666666
            },
            {
              "pitch": 67,
              "velocity": 20,
              "position": 20.260416666666668,
              "duration": 0.12083333333333333
            },
            {
              "pitch": 63,
              "velocity": 20,
              "position": 20.270833333333332,
              "duration": 0.14166666666666666
            },
            {
              "pitch": 108,
              "velocity": 70,
              "position": 20.25,
              "duration": 0.23541666666666666
            },
            {
              "pitch": 107,
              "velocity": 70,
              "position": 20.5,
              "duration": 0.23541666666666666
            },
            {
              "pitch": 72,
              "velocity": 39,
              "position": 20.75,
              "duration": 0.20416666666666666
            },
            {
              "pitch": 67,
              "velocity": 39,
              "position": 20.760416666666668,
              "duration": 0.21458333333333332
            },
            {
              "pitch": 105,
              "velocity": 87,
              "position": 20.75,
              "duration": 0.23541666666666666
            },
            {
              "pitch": 63,
              "velocity": 39,
              "position": 20.770833333333332,
              "duration": 0.23541666666666666
            },
            {
              "pitch": 57,
              "velocity": 33,
              "position": 20.78125,
              "duration": 0.25625
            },
            {
              "pitch": 107,
              "velocity": 70,
              "position": 21,
              "duration": 0.23541666666666666
            },
            {
              "pitch": 108,
              "velocity": 70,
              "position": 21.25,
              "duration": 0.23541666666666666
            },
            {
              "pitch": 106,
              "velocity": 87,
              "position": 21.5,
              "duration": 0.23541666666666666
            },
            {
              "pitch": 72,
              "velocity": 39,
              "position": 21.53125,
              "duration": 0.20416666666666666
            },
            {
              "pitch": 67,
              "velocity": 39,
              "position": 21.520833333333332,
              "duration": 0.21458333333333332
            },
            {
              "pitch": 63,
              "velocity": 39,
              "position": 21.510416666666668,
              "duration": 0.23541666666666666
            },
            {
              "pitch": 57,
              "velocity": 33,
              "position": 21.5,
              "duration": 0.25625
            },
            {
              "pitch": 108,
              "velocity": 70,
              "position": 21.75,
              "duration": 0.23541666666666666
            },
            {
              "pitch": 107,
              "velocity": 70,
              "position": 22,
              "duration": 0.23541666666666666
            },
            {
              "pitch": 108,
              "velocity": 70,
              "position": 22.25,
              "duration": 0.23541666666666666
            },
            {
              "pitch": 106,
              "velocity": 87,
              "position": 22.5,
              "duration": 0.23541666666666666
            },
            {
              "pitch": 67,
              "velocity": 39,
              "position": 22.520833333333332,
              "duration": 0.21458333333333332
            },
            {
              "pitch": 63,
              "velocity": 39,
              "position": 22.510416666666668,
              "duration": 0.23541666666666666
            },
            {
              "pitch": 57,
              "velocity": 33,
              "position": 22.5,
              "duration": 0.25625
            },
            {
              "pitch": 108,
              "velocity": 70,
              "position": 22.75,
              "duration": 0.23541666666666666
            },
            {
              "pitch": 57,
              "velocity": 26,
              "position": 22.770833333333332,
              "duration": 0.21458333333333332
            },
            {
              "pitch": 63,
              "velocity": 26,
              "position": 22.760416666666668,
              "duration": 0.23541666666666666
            },
            {
              "pitch": 67,
              "velocity": 26,
              "position": 22.75,
              "duration": 0.25625
            },
            {
              "pitch": 72,
              "velocity": 39,
              "position": 22.53125,
              "duration": 0.48541666666666666
            },
            {
              "pitch": 107,
              "velocity": 70,
              "position": 23,
              "duration": 0.23541666666666666
            },
            {
              "pitch": 72,
              "velocity": 33,
              "position": 23.03125,
              "duration": 0.20416666666666666
            },
            {
              "pitch": 67,
              "velocity": 33,
              "position": 23.020833333333332,
              "duration": 0.225
            },
            {
              "pitch": 63,
              "velocity": 33,
              "position": 23.010416666666668,
              "duration": 0.24583333333333332
            },
            {
              "pitch": 105,
              "velocity": 87,
              "position": 23.25,
              "duration": 0.23541666666666666
            },
            {
              "pitch": 63,
              "velocity": 39,
              "position": 23.270833333333332,
              "duration": 0.21458333333333332
            },
            {
              "pitch": 67,
              "velocity": 39,
              "position": 23.260416666666668,
              "duration": 0.23541666666666666
            },
            {
              "pitch": 72,
              "velocity": 39,
              "position": 23.25,
              "duration": 0.25625
            },
            {
              "pitch": 57,
              "velocity": 33,
              "position": 23,
              "duration": 0.50625
            },
            {
              "pitch": 107,
              "velocity": 70,
              "position": 23.5,
              "duration": 0.23541666666666666
            },
            {
              "pitch": 108,
              "velocity": 70,
              "position": 23.75,
              "duration": 0.23541666666666666
            },
            {
              "pitch": 106,
              "velocity": 87,
              "position": 24,
              "duration": 0.23541666666666666
            },
            {
              "pitch": 74,
              "velocity": 39,
              "position": 24.03125,
              "duration": 0.20416666666666666
            },
            {
              "pitch": 69,
              "velocity": 39,
              "position": 24.020833333333332,
              "duration": 0.21458333333333332
            },
            {
              "pitch": 65,
              "velocity": 39,
              "position": 24.010416666666668,
              "duration": 0.23541666666666666
            },
            {
              "pitch": 74,
              "velocity": 20,
              "position": 24.25,
              "duration": 0.11041666666666666
            },
            {
              "pitch": 69,
              "velocity": 20,
              "position": 24.260416666666668,
              "duration": 0.12083333333333333
            },
            {
              "pitch": 65,
              "velocity": 20,
              "position": 24.270833333333332,
              "duration": 0.14166666666666666
            },
            {
              "pitch": 108,
              "velocity": 70,
              "position": 24.25,
              "duration": 0.23541666666666666
            },
            {
              "pitch": 107,
              "velocity": 70,
              "position": 24.5,
              "duration": 0.23541666666666666
            },
            {
              "pitch": 74,
              "velocity": 39,
              "position": 24.75,
              "duration": 0.20416666666666666
            },
            {
              "pitch": 69,
              "velocity": 39,
              "position": 24.760416666666668,
              "duration": 0.21458333333333332
            },
            {
              "pitch": 105,
              "velocity": 87,
              "position": 24.75,
              "duration": 0.23541666666666666
            },
            {
              "pitch": 65,
              "velocity": 39,
              "position": 24.770833333333332,
              "duration": 0.23541666666666666
            },
            {
              "pitch": 59,
              "velocity": 33,
              "position": 24.78125,
              "duration": 0.25625
            },
            {
              "pitch": 107,
              "velocity": 70,
              "position": 25,
              "duration": 0.23541666666666666
            },
            {
              "pitch": 108,
              "velocity": 70,
              "position": 25.25,
              "duration": 0.23541666666666666
            },
            {
              "pitch": 106,
              "velocity": 87,
              "position": 25.5,
              "duration": 0.23541666666666666
            },
            {
              "pitch": 74,
              "velocity": 39,
              "position": 25.53125,
              "duration": 0.20416666666666666
            },
            {
              "pitch": 69,
              "velocity": 39,
              "position": 25.520833333333332,
              "duration": 0.21458333333333332
            },
            {
              "pitch": 65,
              "velocity": 39,
              "position": 25.510416666666668,
              "duration": 0.23541666666666666
            },
            {
              "pitch": 59,
              "velocity": 33,
              "position": 25.5,
              "duration": 0.25625
            },
            {
              "pitch": 108,
              "velocity": 70,
              "position": 25.75,
              "duration": 0.23541666666666666
            },
            {
              "pitch": 107,
              "velocity": 70,
              "position": 26,
              "duration": 0.23541666666666666
            },
            {
              "pitch": 108,
              "velocity": 70,
              "position": 26.25,
              "duration": 0.23541666666666666
            },
            {
              "pitch": 74,
              "velocity": 39,
              "position": 26.28125,
              "duration": 0.20416666666666666
            },
            {
              "pitch": 69,
              "velocity": 39,
              "position": 26.270833333333332,
              "duration": 0.21458333333333332
            },
            {
              "pitch": 65,
              "velocity": 39,
              "position": 26.260416666666668,
              "duration": 0.23541666666666666
            },
            {
              "pitch": 59,
              "velocity": 33,
              "position": 26.25,
              "duration": 0.25625
            },
            {
              "pitch": 106,
              "velocity": 87,
              "position": 26.5,
              "duration": 0.23541666666666666
            },
            {
              "pitch": 108,
              "velocity": 70,
              "position": 26.75,
              "duration": 0.23541666666666666
            },
            {
              "pitch": 59,
              "velocity": 33,
              "position": 27,
              "duration": 0.23541666666666666
            },
            {
              "pitch": 107,
              "velocity": 70,
              "position": 27,
              "duration": 0.23541666666666666
            },
            {
              "pitch": 69,
              "velocity": 39,
              "position": 27.020833333333332,
              "duration": 0.21458333333333332
            },
            {
              "pitch": 65,
              "velocity": 39,
              "position": 27.010416666666668,
              "duration": 0.225
            },
            {
              "pitch": 74,
              "velocity": 39,
              "position": 27.03125,
              "duration": 0.45416666666666666
            },
            {
              "pitch": 59,
              "velocity": 26,
              "position": 27.270833333333332,
              "duration": 0.21458333333333332
            },
            {
              "pitch": 105,
              "velocity": 87,
              "position": 27.25,
              "duration": 0.23541666666666666
            },
            {
              "pitch": 65,
              "velocity": 26,
              "position": 27.260416666666668,
              "duration": 0.23541666666666666
            },
            {
              "pitch": 69,
              "velocity": 26,
              "position": 27.25,
              "duration": 0.25625
            },
            {
              "pitch": 107,
              "velocity": 70,
              "position": 27.5,
              "duration": 0.23541666666666666
            },
            {
              "pitch": 108,
              "velocity": 70,
              "position": 27.75,
              "duration": 0.23541666666666666
            },
            {
              "pitch": 106,
              "velocity": 87,
              "position": 28,
              "duration": 0.23541666666666666
            },
            {
              "pitch": 75,
              "velocity": 39,
              "position": 28.03125,
              "duration": 0.20416666666666666
            },
            {
              "pitch": 70,
              "velocity": 39,
              "position": 28.020833333333332,
              "duration": 0.21458333333333332
            },
            {
              "pitch": 65,
              "velocity": 39,
              "position": 28.010416666666668,
              "duration": 0.23541666666666666
            },
            {
              "pitch": 108,
              "velocity": 70,
              "position": 28.25,
              "duration": 0.23541666666666666
            },
            {
              "pitch": 75,
              "velocity": 39,
              "position": 28.5,
              "duration": 0.20416666666666666
            },
            {
              "pitch": 70,
              "velocity": 39,
              "position": 28.510416666666668,
              "duration": 0.21458333333333332
            },
            {
              "pitch": 106,
              "velocity": 87,
              "position": 28.5,
              "duration": 0.23541666666666666
            },
            {
              "pitch": 65,
              "velocity": 39,
              "position": 28.520833333333332,
              "duration": 0.23541666666666666
            },
            {
              "pitch": 59,
              "velocity": 33,
              "position": 28.53125,
              "duration": 0.25625
            },
            {
              "pitch": 108,
              "velocity": 70,
              "position": 28.75,
              "duration": 0.23541666666666666
            },
            {
              "pitch": 106,
              "velocity": 87,
              "position": 29,
              "duration": 0.23541666666666666
            },
            {
              "pitch": 75,
              "velocity": 39,
              "position": 29.03125,
              "duration": 0.20416666666666666
            },
            {
              "pitch": 70,
              "velocity": 39,
              "position": 29.020833333333332,
              "duration": 0.21458333333333332
            },
            {
              "pitch": 65,
              "velocity": 39,
              "position": 29.010416666666668,
              "duration": 0.23541666666666666
            },
            {
              "pitch": 59,
              "velocity": 33,
              "position": 29,
              "duration": 0.25625
            },
            {
              "pitch": 108,
              "velocity": 70,
              "position": 29.25,
              "duration": 0.23541666666666666
            },
            {
              "pitch": 106,
              "velocity": 87,
              "position": 29.5,
              "duration": 0.23541666666666666
            },
            {
              "pitch": 75,
              "velocity": 39,
              "position": 29.53125,
              "duration": 0.20416666666666666
            },
            {
              "pitch": 70,
              "velocity": 39,
              "position": 29.520833333333332,
              "duration": 0.21458333333333332
            },
            {
              "pitch": 65,
              "velocity": 39,
              "position": 29.510416666666668,
              "duration": 0.23541666666666666
            },
            {
              "pitch": 59,
              "velocity": 33,
              "position": 29.5,
              "duration": 0.25625
            },
            {
              "pitch": 108,
              "velocity": 70,
              "position": 29.75,
              "duration": 0.23541666666666666
            },
            {
              "pitch": 106,
              "velocity": 87,
              "position": 30,
              "duration": 0.23541666666666666
            },
            {
              "pitch": 75,
              "velocity": 39,
              "position": 30.03125,
              "duration": 0.45416666666666666
            },
            {
              "pitch": 70,
              "velocity": 39,
              "position": 30.020833333333332,
              "duration": 0.46458333333333335
            },
            {
              "pitch": 65,
              "velocity": 39,
              "position": 30.010416666666668,
              "duration": 0.48541666666666666
            },
            {
              "pitch": 59,
              "velocity": 33,
              "position": 30,
              "duration": 0.50625
            }
          ]
        },
        "3": {
          "ctab": {
            "srcChannel": 3,
            "name": "C2",
            "accType": "CHORD2",
            "editable": false,
            "mutedNotes": [],
            "mutedChords": [
              "1+2+5",
              "sus4",
              "1+5",
              "1+8",
              "7aug",
              "Maj7aug",
              "7(#9)",
              "7(b13)",
              "7(b9)",
              "7(13)",
              "7#11",
              "7(9)",
              "7b5",
              "7sus4",
              "7th",
              "aug",
              "Maj6(9)",
              "Maj7(9)",
              "Maj(9)",
              "Maj7#11",
              "Maj7",
              "Maj6",
              "Maj"
            ],
            "autoStart": false,
            "sourceChordNote": 0,
            "sourceChordType": "min",
            "ctb2Low": null,
            "ctb2Main": {
              "ntr": "ROOT_TRANSPOSITION",
              "ntt": "BYPASS",
              "bassOn": false,
              "chordRootUpperLimit": 8,
              "noteLowLimit": 0,
              "noteHighLimit": 79,
              "rtr": "PITCH_SHIFT"
            },
            "ctb2High": null
          },
          "notes": [
            {
              "pitch": 67,
              "velocity": 94,
              "position": 3.308333333333333,
              "duration": 0.075
            },
            {
              "pitch": 78,
              "velocity": 101,
              "position": 3.5,
              "duration": 0.27708333333333335
            },
            {
              "pitch": 77,
              "velocity": 65,
              "position": 3.76875,
              "duration": 0.041666666666666664
            },
            {
              "pitch": 79,
              "velocity": 93,
              "position": 3.7583333333333333,
              "duration": 0.09791666666666667
            },
            {
              "pitch": 84,
              "velocity": 96,
              "position": 3.5083333333333333,
              "duration": 0.3770833333333333
            },
            {
              "pitch": 62,
              "velocity": 108,
              "position": 10.527083333333334,
              "duration": 0.014583333333333334
            },
            {
              "pitch": 61,
              "velocity": 127,
              "position": 10.522916666666667,
              "duration": 0.03333333333333333
            },
            {
              "pitch": 63,
              "velocity": 124,
              "position": 10.522916666666667,
              "duration": 0.03958333333333333
            },
            {
              "pitch": 59,
              "velocity": 122,
              "position": 10.525,
              "duration": 0.03958333333333333
            },
            {
              "pitch": 60,
              "velocity": 122,
              "position": 10.520833333333334,
              "duration": 0.04375
            },
            {
              "pitch": 64,
              "velocity": 78,
              "position": 10.529166666666667,
              "duration": 0.03958333333333333
            },
            {
              "pitch": 65,
              "velocity": 72,
              "position": 10.527083333333334,
              "duration": 0.041666666666666664
            },
            {
              "pitch": 58,
              "velocity": 127,
              "position": 10.520833333333334,
              "duration": 0.05416666666666667
            },
            {
              "pitch": 53,
              "velocity": 122,
              "position": 10.75,
              "duration": 0.03333333333333333
            },
            {
              "pitch": 55,
              "velocity": 96,
              "position": 10.75,
              "duration": 0.03958333333333333
            },
            {
              "pitch": 48,
              "velocity": 122,
              "position": 10.741666666666667,
              "duration": 0.052083333333333336
            },
            {
              "pitch": 52,
              "velocity": 122,
              "position": 10.745833333333334,
              "duration": 0.06875
            },
            {
              "pitch": 50,
              "velocity": 116,
              "position": 10.74375,
              "duration": 0.07916666666666666
            },
            {
              "pitch": 64,
              "velocity": 80,
              "position": 11,
              "duration": 0.3729166666666667
            },
            {
              "pitch": 70,
              "velocity": 69,
              "position": 11,
              "duration": 0.425
            },
            {
              "pitch": 75,
              "velocity": 63,
              "position": 11,
              "duration": 0.4375
            },
            {
              "pitch": 70,
              "velocity": 89,
              "position": 11.5,
              "duration": 0.18958333333333333
            },
            {
              "pitch": 75,
              "velocity": 71,
              "position": 11.5,
              "duration": 0.23333333333333334
            },
            {
              "pitch": 64,
              "velocity": 72,
              "position": 11.5,
              "duration": 0.24583333333333332
            },
            {
              "pitch": 72,
              "velocity": 91,
              "position": 22.25,
              "duration": 0.10625
            },
            {
              "pitch": 84,
              "velocity": 99,
              "position": 22.5,
              "duration": 0.25
            },
            {
              "pitch": 78,
              "velocity": 99,
              "position": 22.75,
              "duration": 0.7458333333333333
            },
            {
              "pitch": 76,
              "velocity": 89,
              "position": 23.464583333333334,
              "duration": 0.12083333333333333
            },
            {
              "pitch": 74,
              "velocity": 88,
              "position": 23.535416666666666,
              "duration": 0.06875
            },
            {
              "pitch": 72,
              "velocity": 84,
              "position": 23.5875,
              "duration": 0.052083333333333336
            },
            {
              "pitch": 71,
              "velocity": 83,
              "position": 23.629166666666666,
              "duration": 0.052083333333333336
            },
            {
              "pitch": 69,
              "velocity": 83,
              "position": 23.670833333333334,
              "duration": 0.052083333333333336
            },
            {
              "pitch": 67,
              "velocity": 82,
              "position": 23.714583333333334,
              "duration": 0.05
            },
            {
              "pitch": 70,
              "velocity": 122,
              "position": 28,
              "duration": 0.22708333333333333
            },
            {
              "pitch": 75,
              "velocity": 124,
              "position": 28,
              "duration": 0.23333333333333334
            },
            {
              "pitch": 79,
              "velocity": 108,
              "position": 28,
              "duration": 0.23958333333333334
            },
            {
              "pitch": 65,
              "velocity": 64,
              "position": 28,
              "duration": 0.33958333333333335
            },
            {
              "pitch": 70,
              "velocity": 114,
              "position": 28.5,
              "duration": 0.19583333333333333
            },
            {
              "pitch": 65,
              "velocity": 116,
              "position": 28.5,
              "duration": 0.19791666666666666
            },
            {
              "pitch": 75,
              "velocity": 92,
              "position": 28.5,
              "duration": 0.20833333333333334
            },
            {
              "pitch": 79,
              "velocity": 97,
              "position": 28.5,
              "duration": 0.22916666666666666
            },
            {
              "pitch": 65,
              "velocity": 114,
              "position": 29,
              "duration": 0.20208333333333334
            },
            {
              "pitch": 70,
              "velocity": 114,
              "position": 29,
              "duration": 0.21666666666666667
            },
            {
              "pitch": 75,
              "velocity": 111,
              "position": 29,
              "duration": 0.23125
            },
            {
              "pitch": 79,
              "velocity": 94,
              "position": 29,
              "duration": 0.23333333333333334
            },
            {
              "pitch": 65,
              "velocity": 118,
              "position": 29.5,
              "duration": 0.19375
            },
            {
              "pitch": 70,
              "velocity": 116,
              "position": 29.5,
              "duration": 0.2
            },
            {
              "pitch": 79,
              "velocity": 96,
              "position": 29.5,
              "duration": 0.20208333333333334
            },
            {
              "pitch": 75,
              "velocity": 122,
              "position": 29.5,
              "duration": 0.21458333333333332
            },
            {
              "pitch": 65,
              "velocity": 105,
              "position": 30,
              "duration": 0.26458333333333334
            },
            {
              "pitch": 70,
              "velocity": 122,
              "position": 30,
              "duration": 0.29375
            },
            {
              "pitch": 75,
              "velocity": 122,
              "position": 30,
              "duration": 0.30625
            },
            {
              "pitch": 79,
              "velocity": 122,
              "position": 30,
              "duration": 0.30625
            },
            {
              "pitch": 71,
              "velocity": 63,
              "position": 30.366666666666667,
              "duration": 0.058333333333333334
            },
            {
              "pitch": 67,
              "velocity": 108,
              "position": 30.422916666666666,
              "duration": 0.04791666666666667
            },
            {
              "pitch": 65,
              "velocity": 108,
              "position": 30.441666666666666,
              "duration": 0.04791666666666667
            },
            {
              "pitch": 64,
              "velocity": 114,
              "position": 30.4625,
              "duration": 0.052083333333333336
            },
            {
              "pitch": 60,
              "velocity": 94,
              "position": 30.5,
              "duration": 0.022916666666666665
            },
            {
              "pitch": 62,
              "velocity": 99,
              "position": 30.48125,
              "duration": 0.041666666666666664
            },
            {
              "pitch": 59,
              "velocity": 103,
              "position": 30.51875,
              "duration": 0.020833333333333332
            },
            {
              "pitch": 57,
              "velocity": 93,
              "position": 30.539583333333333,
              "duration": 0.0375
            }
          ]
        },
        "4": {
          "ctab": {
            "srcChannel": 4,
            "name": "Pad",
            "accType": "PAD",
            "editable": false,
            "mutedNotes": [],
            "mutedChords": [
              "1+2+5",
              "sus4",
              "1+5",
              "1+8",
              "7aug",
              "Maj7aug",
              "7(#9)",
              "7(b13)",
              "7(b9)",
              "7(13)",
              "7#11",
              "7(9)",
              "7b5",
              "7sus4",
              "7th",
              "aug",
              "Maj6(9)",
              "Maj7(9)",
              "Maj(9)",
              "Maj7#11",
              "Maj7",
              "Maj6",
              "Maj"
            ],
            "autoStart": false,
            "sourceChordNote": 0,
            "sourceChordType": "min",
            "ctb2Low": null,
            "ctb2Main": {
              "ntr": "ROOT_TRANSPOSITION",
              "ntt": "BYPASS",
              "bassOn": false,
              "chordRootUpperLimit": 3,
              "noteLowLimit": 0,
              "noteHighLimit": 79,
              "rtr": "PITCH_SHIFT"
            },
            "ctb2High": null
          },
          "notes": [
            {
              "pitch": 63,
              "velocity": 82,
              "position": 19.25,
              "duration": 0.23541666666666666
            },
            {
              "pitch": 67,
              "velocity": 87,
              "position": 19.25,
              "duration": 0.23541666666666666
            },
            {
              "pitch": 64,
              "velocity": 82,
              "position": 19.5,
              "duration": 0.23541666666666666
            },
            {
              "pitch": 68,
              "velocity": 87,
              "position": 19.5,
              "duration": 0.23541666666666666
            },
            {
              "pitch": 65,
              "velocity": 82,
              "position": 19.75,
              "duration": 0.23541666666666666
            },
            {
              "pitch": 69,
              "velocity": 87,
              "position": 19.75,
              "duration": 0.23541666666666666
            },
            {
              "pitch": 79,
              "velocity": 87,
              "position": 20.489583333333332,
              "duration": 0.17291666666666666
            },
            {
              "pitch": 75,
              "velocity": 82,
              "position": 20.5,
              "duration": 0.18333333333333332
            },
            {
              "pitch": 77,
              "velocity": 87,
              "position": 20.989583333333332,
              "duration": 0.23541666666666666
            },
            {
              "pitch": 74,
              "velocity": 82,
              "position": 20.989583333333332,
              "duration": 0.24583333333333332
            },
            {
              "pitch": 75,
              "velocity": 87,
              "position": 21.239583333333332,
              "duration": 0.19375
            },
            {
              "pitch": 72,
              "velocity": 82,
              "position": 21.25,
              "duration": 0.18333333333333332
            },
            {
              "pitch": 74,
              "velocity": 81,
              "position": 24.489583333333332,
              "duration": 0.18333333333333332
            },
            {
              "pitch": 79,
              "velocity": 85,
              "position": 24.5,
              "duration": 0.19375
            },
            {
              "pitch": 74,
              "velocity": 81,
              "position": 25.25,
              "duration": 0.18333333333333332
            },
            {
              "pitch": 79,
              "velocity": 85,
              "position": 25.25,
              "duration": 0.19375
            },
            {
              "pitch": 74,
              "velocity": 81,
              "position": 25.989583333333332,
              "duration": 0.19375
            },
            {
              "pitch": 79,
              "velocity": 85,
              "position": 25.989583333333332,
              "duration": 0.19375
            },
            {
              "pitch": 75,
              "velocity": 81,
              "position": 27.989583333333332,
              "duration": 0.18333333333333332
            },
            {
              "pitch": 79,
              "velocity": 85,
              "position": 28,
              "duration": 0.19375
            },
            {
              "pitch": 75,
              "velocity": 81,
              "position": 28.5,
              "duration": 0.18333333333333332
            },
            {
              "pitch": 79,
              "velocity": 85,
              "position": 28.5,
              "duration": 0.19375
            },
            {
              "pitch": 75,
              "velocity": 81,
              "position": 28.989583333333332,
              "duration": 0.19375
            },
            {
              "pitch": 79,
              "velocity": 85,
              "position": 28.989583333333332,
              "duration": 0.19375
            },
            {
              "pitch": 75,
              "velocity": 81,
              "position": 29.5,
              "duration": 0.18333333333333332
            },
            {
              "pitch": 79,
              "velocity": 85,
              "position": 29.5,
              "duration": 0.19375
            },
            {
              "pitch": 75,
              "velocity": 81,
              "position": 29.989583333333332,
              "duration": 0.31875
            },
            {
              "pitch": 79,
              "velocity": 87,
              "position": 30,
              "duration": 0.31875
            }
          ]
        },
        "5": {
          "ctab": {
            "srcChannel": 5,
            "name": "P1",
            "accType": "PHRASE1",
            "editable": false,
            "mutedNotes": [],
            "mutedChords": [
              "1+2+5",
              "sus4",
              "1+5",
              "1+8",
              "7aug",
              "Maj7aug",
              "7(#9)",
              "7(b13)",
              "7(b9)",
              "7(13)",
              "7#11",
              "7(9)",
              "7b5",
              "7sus4",
              "7th",
              "aug",
              "Maj6(9)",
              "Maj7(9)",
              "Maj(9)",
              "Maj7#11",
              "Maj7",
              "Maj6",
              "Maj"
            ],
            "autoStart": false,
            "sourceChordNote": 0,
            "sourceChordType": "min",
            "ctb2Low": null,
            "ctb2Main": {
              "ntr": "ROOT_TRANSPOSITION",
              "ntt": "BYPASS",
              "bassOn": false,
              "chordRootUpperLimit": 2,
              "noteLowLimit": 0,
              "noteHighLimit": 127,
              "rtr": "PITCH_SHIFT"
            },
            "ctb2High": null
          },
          "notes": [
            {
              "pitch": 66,
              "velocity": 120,
              "position": 15.75,
              "duration": 3.245833333333333
            },
            {
              "pitch": 70,
              "velocity": 120,
              "position": 15.75,
              "duration": 3.245833333333333
            },
            {
              "pitch": 63,
              "velocity": 60,
              "position": 19.28125,
              "duration": 0.23541666666666666
            },
            {
              "pitch": 67,
              "velocity": 60,
              "position": 19.28125,
              "duration": 0.23541666666666666
            },
            {
              "pitch": 64,
              "velocity": 81,
              "position": 19.53125,
              "duration": 0.23541666666666666
            },
            {
              "pitch": 68,
              "velocity": 81,
              "position": 19.53125,
              "duration": 0.23541666666666666
            },
            {
              "pitch": 65,
              "velocity": 101,
              "position": 19.78125,
              "duration": 0.23541666666666666
            },
            {
              "pitch": 69,
              "velocity": 101,
              "position": 19.78125,
              "duration": 0.23541666666666666
            },
            {
              "pitch": 70,
              "velocity": 40,
              "position": 20.5,
              "duration": 0.18333333333333332
            },
            {
              "pitch": 63,
              "velocity": 101,
              "position": 20.53125,
              "duration": 0.19375
            },
            {
              "pitch": 62,
              "velocity": 92,
              "position": 21,
              "duration": 0.225
            },
            {
              "pitch": 69,
              "velocity": 39,
              "position": 21,
              "duration": 0.23541666666666666
            },
            {
              "pitch": 60,
              "velocity": 101,
              "position": 21.239583333333332,
              "duration": 0.1625
            },
            {
              "pitch": 67,
              "velocity": 36,
              "position": 21.25,
              "duration": 0.17291666666666666
            },
            {
              "pitch": 69,
              "velocity": 125,
              "position": 24.489583333333332,
              "duration": 0.17291666666666666
            },
            {
              "pitch": 65,
              "velocity": 117,
              "position": 24.489583333333332,
              "duration": 0.18333333333333332
            },
            {
              "pitch": 69,
              "velocity": 115,
              "position": 25.25,
              "duration": 0.1625
            },
            {
              "pitch": 65,
              "velocity": 127,
              "position": 25.25,
              "duration": 0.18333333333333332
            },
            {
              "pitch": 65,
              "velocity": 123,
              "position": 26,
              "duration": 0.17291666666666666
            },
            {
              "pitch": 69,
              "velocity": 124,
              "position": 25.989583333333332,
              "duration": 0.19375
            },
            {
              "pitch": 65,
              "velocity": 106,
              "position": 27,
              "duration": 0.9229166666666667
            },
            {
              "pitch": 69,
              "velocity": 106,
              "position": 26.989583333333332,
              "duration": 0.94375
            },
            {
              "pitch": 70,
              "velocity": 125,
              "position": 27.989583333333332,
              "duration": 0.17291666666666666
            },
            {
              "pitch": 65,
              "velocity": 117,
              "position": 27.989583333333332,
              "duration": 0.18333333333333332
            },
            {
              "pitch": 70,
              "velocity": 115,
              "position": 28.5,
              "duration": 0.1625
            },
            {
              "pitch": 65,
              "velocity": 127,
              "position": 28.5,
              "duration": 0.18333333333333332
            },
            {
              "pitch": 65,
              "velocity": 123,
              "position": 29,
              "duration": 0.17291666666666666
            },
            {
              "pitch": 70,
              "velocity": 124,
              "position": 28.989583333333332,
              "duration": 0.19375
            },
            {
              "pitch": 65,
              "velocity": 123,
              "position": 29.5,
              "duration": 0.17291666666666666
            },
            {
              "pitch": 70,
              "velocity": 124,
              "position": 29.489583333333332,
              "duration": 0.19375
            },
            {
              "pitch": 65,
              "velocity": 123,
              "position": 30,
              "duration": 0.29791666666666666
            },
            {
              "pitch": 70,
              "velocity": 124,
              "position": 29.989583333333332,
              "duration": 0.31875
            }
          ]
        },
        "6": {
          "ctab": {
            "srcChannel": 6,
            "name": "P2",
            "accType": "PHRASE2",
            "editable": false,
            "mutedNotes": [],
            "mutedChords": [
              "1+2+5",
              "sus4",
              "1+5",
              "1+8",
              "7aug",
              "Maj7aug",
              "7(#9)",
              "7(b13)",
              "7(b9)",
              "7(13)",
              "7#11",
              "7(9)",
              "7b5",
              "7sus4",
              "7th",
              "aug",
              "Maj6(9)",
              "Maj7(9)",
              "Maj(9)",
              "Maj7#11",
              "Maj7",
              "Maj6",
              "Maj"
            ],
            "autoStart": false,
            "sourceChordNote": 0,
            "sourceChordType": "min",
            "ctb2Low": null,
            "ctb2Main": {
              "ntr": "ROOT_TRANSPOSITION",
              "ntt": "BYPASS",
              "bassOn": false,
              "chordRootUpperLimit": 2,
              "noteLowLimit": 33,
              "noteHighLimit": 127,
              "rtr": "PITCH_SHIFT"
            },
            "ctb2High": null
          },
          "notes": [
            {
              "pitch": 60,
              "velocity": 65,
              "position": 15.75,
              "duration": 3.183333333333333
            },
            {
              "pitch": 27,
              "velocity": 120,
              "position": 19.239583333333332,
              "duration": 0.23541666666666666
            },
            {
              "pitch": 28,
              "velocity": 120,
              "position": 19.489583333333332,
              "duration": 0.23541666666666666
            },
            {
              "pitch": 29,
              "velocity": 120,
              "position": 19.739583333333332,
              "duration": 0.1625
            },
            {
              "pitch": 29,
              "velocity": 120,
              "position": 20.239583333333332,
              "duration": 0.1625
            },
            {
              "pitch": 67,
              "velocity": 92,
              "position": 20.5,
              "duration": 0.18333333333333332
            },
            {
              "pitch": 65,
              "velocity": 89,
              "position": 21,
              "duration": 0.23541666666666666
            },
            {
              "pitch": 63,
              "velocity": 85,
              "position": 21.25,
              "duration": 0.17291666666666666
            },
            {
              "pitch": 29,
              "velocity": 120,
              "position": 21.489583333333332,
              "duration": 0.1625
            },
            {
              "pitch": 59,
              "velocity": 89,
              "position": 24.489583333333332,
              "duration": 0.17291666666666666
            },
            {
              "pitch": 31,
              "velocity": 120,
              "position": 24.739583333333332,
              "duration": 0.1625
            },
            {
              "pitch": 59,
              "velocity": 92,
              "position": 25.239583333333332,
              "duration": 0.18333333333333332
            },
            {
              "pitch": 31,
              "velocity": 115,
              "position": 25.5,
              "duration": 0.1625
            },
            {
              "pitch": 59,
              "velocity": 88,
              "position": 26,
              "duration": 0.18333333333333332
            },
            {
              "pitch": 59,
              "velocity": 88,
              "position": 27,
              "duration": 0.9333333333333333
            },
            {
              "pitch": 59,
              "velocity": 89,
              "position": 27.989583333333332,
              "duration": 0.17291666666666666
            },
            {
              "pitch": 59,
              "velocity": 89,
              "position": 28.489583333333332,
              "duration": 0.17291666666666666
            },
            {
              "pitch": 59,
              "velocity": 89,
              "position": 28.989583333333332,
              "duration": 0.17291666666666666
            },
            {
              "pitch": 59,
              "velocity": 89,
              "position": 29.489583333333332,
              "duration": 0.17291666666666666
            },
            {
              "pitch": 59,
              "velocity": 89,
              "position": 29.989583333333332,
              "duration": 0.29791666666666666
            }
          ]
        },
        "8": {
          "ctab": {
            "srcChannel": 8,
            "name": "Perc",
            "accType": "SUBRHYTHM",
            "editable": false,
            "mutedNotes": [],
            "mutedChords": [],
            "autoStart": true,
            "sourceChordNote": 0,
            "sourceChordType": "Maj7",
            "ctb2Low": null,
            "ctb2Main": {
              "ntr": "ROOT_FIXED",
              "ntt": "BYPASS",
              "bassOn": false,
              "chordRootUpperLimit": 6,
              "noteLowLimit": 0,
              "noteHighLimit": 127,
              "rtr": "PITCH_SHIFT"
            },
            "ctb2High": null
          },
          "notes": [
            {
              "pitch": 82,
              "velocity": 60,
              "position": 0,
              "duration": 0.00625
            },
            {
              "pitch": 82,
              "velocity": 30,
              "position": 0.25,
              "duration": 0.00625
            },
            {
              "pitch": 82,
              "velocity": 80,
              "position": 0.5,
              "duration": 0.00625
            },
            {
              "pitch": 82,
              "velocity": 30,
              "position": 0.75,
              "duration": 0.00625
            },
            {
              "pitch": 82,
              "velocity": 60,
              "position": 1,
              "duration": 0.00625
            },
            {
              "pitch": 82,
              "velocity": 30,
              "position": 1.25,
              "duration": 0.00625
            },
            {
              "pitch": 82,
              "velocity": 80,
              "position": 1.5,
              "duration": 0.00625
            },
            {
              "pitch": 82,
              "velocity": 30,
              "position": 1.75,
              "duration": 0.00625
            },
            {
              "pitch": 82,
              "velocity": 60,
              "position": 2,
              "duration": 0.00625
            },
            {
              "pitch": 82,
              "velocity": 30,
              "position": 2.25,
              "duration": 0.00625
            },
            {
              "pitch": 82,
              "velocity": 80,
              "position": 2.5,
              "duration": 0.00625
            },
            {
              "pitch": 82,
              "velocity": 30,
              "position": 2.75,
              "duration": 0.00625
            },
            {
              "pitch": 82,
              "velocity": 60,
              "position": 3,
              "duration": 0.00625
            },
            {
              "pitch": 82,
              "velocity": 30,
              "position": 3.25,
              "duration": 0.00625
            },
            {
              "pitch": 82,
              "velocity": 80,
              "position": 3.5,
              "duration": 0.00625
            },
            {
              "pitch": 82,
              "velocity": 30,
              "position": 3.75,
              "duration": 0.00625
            },
            {
              "pitch": 82,
              "velocity": 60,
              "position": 4,
              "duration": 0.00625
            },
            {
              "pitch": 82,
              "velocity": 30,
              "position": 4.25,
              "duration": 0.00625
            },
            {
              "pitch": 82,
              "velocity": 80,
              "position": 4.5,
              "duration": 0.00625
            },
            {
              "pitch": 82,
              "velocity": 30,
              "position": 4.75,
              "duration": 0.00625
            },
            {
              "pitch": 82,
              "velocity": 60,
              "position": 5,
              "duration": 0.00625
            },
            {
              "pitch": 82,
              "velocity": 30,
              "position": 5.25,
              "duration": 0.00625
            },
            {
              "pitch": 82,
              "velocity": 80,
              "position": 5.5,
              "duration": 0.00625
            },
            {
              "pitch": 82,
              "velocity": 30,
              "position": 5.75,
              "duration": 0.00625
            },
            {
              "pitch": 82,
              "velocity": 60,
              "position": 6,
              "duration": 0.00625
            },
            {
              "pitch": 82,
              "velocity": 30,
              "position": 6.25,
              "duration": 0.00625
            },
            {
              "pitch": 82,
              "velocity": 80,
              "position": 6.5,
              "duration": 0.00625
            },
            {
              "pitch": 82,
              "velocity": 30,
              "position": 6.75,
              "duration": 0.00625
            },
            {
              "pitch": 82,
              "velocity": 60,
              "position": 7,
              "duration": 0.00625
            },
            {
              "pitch": 82,
              "velocity": 30,
              "position": 7.25,
              "duration": 0.00625
            },
            {
              "pitch": 82,
              "velocity": 80,
              "position": 7.5,
              "duration": 0.00625
            },
            {
              "pitch": 82,
              "velocity": 30,
              "position": 7.75,
              "duration": 0.00625
            },
            {
              "pitch": 82,
              "velocity": 60,
              "position": 8,
              "duration": 0.00625
            },
            {
              "pitch": 82,
              "velocity": 30,
              "position": 8.25,
              "duration": 0.00625
            },
            {
              "pitch": 82,
              "velocity": 80,
              "position": 8.5,
              "duration": 0.00625
            },
            {
              "pitch": 82,
              "velocity": 30,
              "position": 8.75,
              "duration": 0.00625
            },
            {
              "pitch": 82,
              "velocity": 60,
              "position": 9,
              "duration": 0.00625
            },
            {
              "pitch": 82,
              "velocity": 30,
              "position": 9.25,
              "duration": 0.00625
            },
            {
              "pitch": 82,
              "velocity": 80,
              "position": 9.5,
              "duration": 0.00625
            },
            {
              "pitch": 82,
              "velocity": 30,
              "position": 9.75,
              "duration": 0.00625
            },
            {
              "pitch": 82,
              "velocity": 60,
              "position": 10,
              "duration": 0.00625
            },
            {
              "pitch": 82,
              "velocity": 30,
              "position": 10.25,
              "duration": 0.00625
            },
            {
              "pitch": 82,
              "velocity": 80,
              "position": 10.5,
              "duration": 0.00625
            },
            {
              "pitch": 82,
              "velocity": 30,
              "position": 10.75,
              "duration": 0.00625
            },
            {
              "pitch": 82,
              "velocity": 60,
              "position": 11,
              "duration": 0.00625
            },
            {
              "pitch": 82,
              "velocity": 30,
              "position": 11.25,
              "duration": 0.00625
            },
            {
              "pitch": 82,
              "velocity": 80,
              "position": 11.5,
              "duration": 0.00625
            },
            {
              "pitch": 82,
              "velocity": 30,
              "position": 11.75,
              "duration": 0.00625
            },
            {
              "pitch": 82,
              "velocity": 60,
              "position": 12,
              "duration": 0.00625
            },
            {
              "pitch": 82,
              "velocity": 30,
              "position": 12.25,
              "duration": 0.00625
            },
            {
              "pitch": 82,
              "velocity": 80,
              "position": 12.5,
              "duration": 0.00625
            },
            {
              "pitch": 82,
              "velocity": 30,
              "position": 12.75,
              "duration": 0.00625
            },
            {
              "pitch": 82,
              "velocity": 60,
              "position": 13,
              "duration": 0.00625
            },
            {
              "pitch": 82,
              "velocity": 30,
              "position": 13.25,
              "duration": 0.00625
            },
            {
              "pitch": 82,
              "velocity": 80,
              "position": 13.5,
              "duration": 0.00625
            },
            {
              "pitch": 82,
              "velocity": 30,
              "position": 13.75,
              "duration": 0.00625
            },
            {
              "pitch": 82,
              "velocity": 60,
              "position": 14,
              "duration": 0.00625
            },
            {
              "pitch": 82,
              "velocity": 30,
              "position": 14.25,
              "duration": 0.00625
            },
            {
              "pitch": 82,
              "velocity": 80,
              "position": 14.5,
              "duration": 0.00625
            },
            {
              "pitch": 82,
              "velocity": 30,
              "position": 14.75,
              "duration": 0.00625
            },
            {
              "pitch": 82,
              "velocity": 60,
              "position": 15,
              "duration": 0.00625
            },
            {
              "pitch": 82,
              "velocity": 30,
              "position": 15.25,
              "duration": 0.00625
            },
            {
              "pitch": 82,
              "velocity": 80,
              "position": 15.5,
              "duration": 0.00625
            },
            {
              "pitch": 82,
              "velocity": 30,
              "position": 15.75,
              "duration": 0.00625
            },
            {
              "pitch": 82,
              "velocity": 60,
              "position": 16,
              "duration": 0.00625
            },
            {
              "pitch": 54,
              "velocity": 30,
              "position": 16.25,
              "duration": 0.00625
            },
            {
              "pitch": 82,
              "velocity": 30,
              "position": 16.25,
              "duration": 0.00625
            },
            {
              "pitch": 54,
              "velocity": 60,
              "position": 16.5,
              "duration": 0.00625
            },
            {
              "pitch": 82,
              "velocity": 80,
              "position": 16.5,
              "duration": 0.00625
            },
            {
              "pitch": 54,
              "velocity": 30,
              "position": 16.75,
              "duration": 0.00625
            },
            {
              "pitch": 82,
              "velocity": 30,
              "position": 16.75,
              "duration": 0.00625
            },
            {
              "pitch": 54,
              "velocity": 80,
              "position": 17,
              "duration": 0.00625
            },
            {
              "pitch": 82,
              "velocity": 60,
              "position": 17,
              "duration": 0.00625
            },
            {
              "pitch": 54,
              "velocity": 30,
              "position": 17.25,
              "duration": 0.00625
            },
            {
              "pitch": 82,
              "velocity": 30,
              "position": 17.25,
              "duration": 0.00625
            },
            {
              "pitch": 54,
              "velocity": 60,
              "position": 17.5,
              "duration": 0.00625
            },
            {
              "pitch": 82,
              "velocity": 80,
              "position": 17.5,
              "duration": 0.00625
            },
            {
              "pitch": 54,
              "velocity": 30,
              "position": 17.75,
              "duration": 0.00625
            },
            {
              "pitch": 82,
              "velocity": 30,
              "position": 17.75,
              "duration": 0.00625
            },
            {
              "pitch": 54,
              "velocity": 80,
              "position": 18,
              "duration": 0.00625
            },
            {
              "pitch": 82,
              "velocity": 60,
              "position": 18,
              "duration": 0.00625
            },
            {
              "pitch": 54,
              "velocity": 30,
              "position": 18.25,
              "duration": 0.00625
            },
            {
              "pitch": 82,
              "velocity": 30,
              "position": 18.25,
              "duration": 0.00625
            },
            {
              "pitch": 54,
              "velocity": 60,
              "position": 18.5,
              "duration": 0.00625
            },
            {
              "pitch": 82,
              "velocity": 80,
              "position": 18.5,
              "duration": 0.00625
            },
            {
              "pitch": 54,
              "velocity": 30,
              "position": 18.75,
              "duration": 0.00625
            },
            {
              "pitch": 82,
              "velocity": 30,
              "position": 18.75,
              "duration": 0.00625
            },
            {
              "pitch": 54,
              "velocity": 80,
              "position": 19,
              "duration": 0.00625
            },
            {
              "pitch": 82,
              "velocity": 60,
              "position": 19,
              "duration": 0.00625
            },
            {
              "pitch": 54,
              "velocity": 30,
              "position": 19.25,
              "duration": 0.00625
            },
            {
              "pitch": 82,
              "velocity": 30,
              "position": 19.25,
              "duration": 0.00625
            },
            {
              "pitch": 54,
              "velocity": 60,
              "position": 19.5,
              "duration": 0.00625
            },
            {
              "pitch": 82,
              "velocity": 80,
              "position": 19.5,
              "duration": 0.00625
            },
            {
              "pitch": 54,
              "velocity": 30,
              "position": 19.75,
              "duration": 0.00625
            },
            {
              "pitch": 82,
              "velocity": 30,
              "position": 19.75,
              "duration": 0.00625
            },
            {
              "pitch": 54,
              "velocity": 80,
              "position": 20,
              "duration": 0.00625
            },
            {
              "pitch": 82,
              "velocity": 60,
              "position": 20,
              "duration": 0.00625
            },
            {
              "pitch": 54,
              "velocity": 30,
              "position": 20.25,
              "duration": 0.00625
            },
            {
              "pitch": 82,
              "velocity": 30,
              "position": 20.25,
              "duration": 0.00625
            },
            {
              "pitch": 54,
              "velocity": 60,
              "position": 20.5,
              "duration": 0.00625
            },
            {
              "pitch": 82,
              "velocity": 80,
              "position": 20.5,
              "duration": 0.00625
            },
            {
              "pitch": 54,
              "velocity": 30,
              "position": 20.75,
              "duration": 0.00625
            },
            {
              "pitch": 82,
              "velocity": 30,
              "position": 20.75,
              "duration": 0.00625
            },
            {
              "pitch": 54,
              "velocity": 80,
              "position": 21,
              "duration": 0.00625
            },
            {
              "pitch": 82,
              "velocity": 60,
              "position": 21,
              "duration": 0.00625
            },
            {
              "pitch": 54,
              "velocity": 30,
              "position": 21.25,
              "duration": 0.00625
            },
            {
              "pitch": 82,
              "velocity": 30,
              "position": 21.25,
              "duration": 0.00625
            },
            {
              "pitch": 54,
              "velocity": 60,
              "position": 21.5,
              "duration": 0.00625
            },
            {
              "pitch": 82,
              "velocity": 80,
              "position": 21.5,
              "duration": 0.00625
            },
            {
              "pitch": 54,
              "velocity": 30,
              "position": 21.75,
              "duration": 0.00625
            },
            {
              "pitch": 82,
              "velocity": 30,
              "position": 21.75,
              "duration": 0.00625
            },
            {
              "pitch": 54,
              "velocity": 80,
              "position": 22,
              "duration": 0.00625
            },
            {
              "pitch": 82,
              "velocity": 60,
              "position": 22,
              "duration": 0.00625
            },
            {
              "pitch": 54,
              "velocity": 30,
              "position": 22.25,
              "duration": 0.00625
            },
            {
              "pitch": 82,
              "velocity": 30,
              "position": 22.25,
              "duration": 0.00625
            },
            {
              "pitch": 54,
              "velocity": 60,
              "position": 22.5,
              "duration": 0.00625
            },
            {
              "pitch": 82,
              "velocity": 80,
              "position": 22.5,
              "duration": 0.00625
            },
            {
              "pitch": 54,
              "velocity": 30,
              "position": 22.75,
              "duration": 0.00625
            },
            {
              "pitch": 82,
              "velocity": 30,
              "position": 22.75,
              "duration": 0.00625
            },
            {
              "pitch": 54,
              "velocity": 80,
              "position": 23,
              "duration": 0.00625
            },
            {
              "pitch": 82,
              "velocity": 60,
              "position": 23,
              "duration": 0.00625
            },
            {
              "pitch": 54,
              "velocity": 30,
              "position": 23.25,
              "duration": 0.00625
            },
            {
              "pitch": 82,
              "velocity": 30,
              "position": 23.25,
              "duration": 0.00625
            },
            {
              "pitch": 54,
              "velocity": 60,
              "position": 23.5,
              "duration": 0.00625
            },
            {
              "pitch": 82,
              "velocity": 80,
              "position": 23.5,
              "duration": 0.00625
            },
            {
              "pitch": 54,
              "velocity": 30,
              "position": 23.75,
              "duration": 0.00625
            },
            {
              "pitch": 82,
              "velocity": 30,
              "position": 23.75,
              "duration": 0.00625
            },
            {
              "pitch": 54,
              "velocity": 80,
              "position": 24,
              "duration": 0.00625
            },
            {
              "pitch": 82,
              "velocity": 60,
              "position": 24,
              "duration": 0.00625
            },
            {
              "pitch": 54,
              "velocity": 30,
              "position": 24.25,
              "duration": 0.00625
            },
            {
              "pitch": 82,
              "velocity": 30,
              "position": 24.25,
              "duration": 0.00625
            },
            {
              "pitch": 54,
              "velocity": 60,
              "position": 24.5,
              "duration": 0.00625
            },
            {
              "pitch": 82,
              "velocity": 80,
              "position": 24.5,
              "duration": 0.00625
            },
            {
              "pitch": 54,
              "velocity": 30,
              "position": 24.75,
              "duration": 0.00625
            },
            {
              "pitch": 82,
              "velocity": 30,
              "position": 24.75,
              "duration": 0.00625
            },
            {
              "pitch": 54,
              "velocity": 80,
              "position": 25,
              "duration": 0.00625
            },
            {
              "pitch": 82,
              "velocity": 60,
              "position": 25,
              "duration": 0.00625
            },
            {
              "pitch": 54,
              "velocity": 30,
              "position": 25.25,
              "duration": 0.00625
            },
            {
              "pitch": 82,
              "velocity": 30,
              "position": 25.25,
              "duration": 0.00625
            },
            {
              "pitch": 54,
              "velocity": 60,
              "position": 25.5,
              "duration": 0.00625
            },
            {
              "pitch": 82,
              "velocity": 80,
              "position": 25.5,
              "duration": 0.00625
            },
            {
              "pitch": 54,
              "velocity": 30,
              "position": 25.75,
              "duration": 0.00625
            },
            {
              "pitch": 82,
              "velocity": 30,
              "position": 25.75,
              "duration": 0.00625
            },
            {
              "pitch": 54,
              "velocity": 80,
              "position": 26,
              "duration": 0.00625
            },
            {
              "pitch": 82,
              "velocity": 60,
              "position": 26,
              "duration": 0.00625
            },
            {
              "pitch": 54,
              "velocity": 30,
              "position": 26.25,
              "duration": 0.00625
            },
            {
              "pitch": 82,
              "velocity": 30,
              "position": 26.25,
              "duration": 0.00625
            },
            {
              "pitch": 54,
              "velocity": 60,
              "position": 26.5,
              "duration": 0.00625
            },
            {
              "pitch": 82,
              "velocity": 80,
              "position": 26.5,
              "duration": 0.00625
            },
            {
              "pitch": 54,
              "velocity": 30,
              "position": 26.75,
              "duration": 0.00625
            },
            {
              "pitch": 82,
              "velocity": 30,
              "position": 26.75,
              "duration": 0.00625
            },
            {
              "pitch": 54,
              "velocity": 80,
              "position": 27,
              "duration": 0.00625
            },
            {
              "pitch": 82,
              "velocity": 60,
              "position": 27,
              "duration": 0.00625
            },
            {
              "pitch": 54,
              "velocity": 30,
              "position": 27.25,
              "duration": 0.00625
            },
            {
              "pitch": 82,
              "velocity": 30,
              "position": 27.25,
              "duration": 0.00625
            },
            {
              "pitch": 54,
              "velocity": 60,
              "position": 27.5,
              "duration": 0.00625
            },
            {
              "pitch": 82,
              "velocity": 80,
              "position": 27.5,
              "duration": 0.00625
            },
            {
              "pitch": 54,
              "velocity": 30,
              "position": 27.75,
              "duration": 0.00625
            },
            {
              "pitch": 82,
              "velocity": 30,
              "position": 27.75,
              "duration": 0.00625
            },
            {
              "pitch": 54,
              "velocity": 80,
              "position": 28,
              "duration": 0.00625
            },
            {
              "pitch": 82,
              "velocity": 60,
              "position": 28,
              "duration": 0.00625
            },
            {
              "pitch": 54,
              "velocity": 30,
              "position": 28.25,
              "duration": 0.00625
            },
            {
              "pitch": 82,
              "velocity": 30,
              "position": 28.25,
              "duration": 0.00625
            },
            {
              "pitch": 54,
              "velocity": 60,
              "position": 28.5,
              "duration": 0.00625
            },
            {
              "pitch": 82,
              "velocity": 80,
              "position": 28.5,
              "duration": 0.00625
            },
            {
              "pitch": 54,
              "velocity": 30,
              "position": 28.75,
              "duration": 0.00625
            },
            {
              "pitch": 82,
              "velocity": 30,
              "position": 28.75,
              "duration": 0.00625
            },
            {
              "pitch": 54,
              "velocity": 80,
              "position": 29,
              "duration": 0.00625
            },
            {
              "pitch": 82,
              "velocity": 60,
              "position": 29,
              "duration": 0.00625
            }
          ]
        },
        "9": {
          "ctab": {
            "srcChannel": 9,
            "name": "Drs",
            "accType": "RHYTHM",
            "editable": false,
            "mutedNotes": [],
            "mutedChords": [],
            "autoStart": true,
            "sourceChordNote": 0,
            "sourceChordType": "Maj7",
            "ctb2Low": null,
            "ctb2Main": {
              "ntr": "ROOT_FIXED",
              "ntt": "BYPASS",
              "bassOn": false,
              "chordRootUpperLimit": 6,
              "noteLowLimit": 0,
              "noteHighLimit": 127,
              "rtr": "PITCH_SHIFT"
            },
            "ctb2High": null
          },
          "notes": [
            {
              "pitch": 33,
              "velocity": 105,
              "position": 0,
              "duration": 0.00625
            },
            {
              "pitch": 42,
              "velocity": 121,
              "position": 0,
              "duration": 0.00625
            },
            {
              "pitch": 31,
              "velocity": 25,
              "position": 0.2708333333333333,
              "duration": 0.00625
            },
            {
              "pitch": 42,
              "velocity": 55,
              "position": 0.5,
              "duration": 0.00625
            },
            {
              "pitch": 33,
              "velocity": 105,
              "position": 0.7708333333333334,
              "duration": 0.00625
            },
            {
              "pitch": 31,
              "velocity": 125,
              "position": 1,
              "duration": 0.00625
            },
            {
              "pitch": 42,
              "velocity": 121,
              "position": 1,
              "duration": 0.00625
            },
            {
              "pitch": 33,
              "velocity": 105,
              "position": 1.5,
              "duration": 0.00625
            },
            {
              "pitch": 42,
              "velocity": 55,
              "position": 1.5,
              "duration": 0.00625
            },
            {
              "pitch": 31,
              "velocity": 25,
              "position": 1.7708333333333333,
              "duration": 0.00625
            },
            {
              "pitch": 42,
              "velocity": 121,
              "position": 2,
              "duration": 0.00625
            },
            {
              "pitch": 31,
              "velocity": 59,
              "position": 2.2708333333333335,
              "duration": 0.00625
            },
            {
              "pitch": 33,
              "velocity": 105,
              "position": 2.5,
              "duration": 0.00625
            },
            {
              "pitch": 42,
              "velocity": 55,
              "position": 2.5,
              "duration": 0.00625
            },
            {
              "pitch": 31,
              "velocity": 20,
              "position": 2.7708333333333335,
              "duration": 0.00625
            },
            {
              "pitch": 31,
              "velocity": 125,
              "position": 3,
              "duration": 0.00625
            },
            {
              "pitch": 46,
              "velocity": 77,
              "position": 3,
              "duration": 0.00625
            },
            {
              "pitch": 33,
              "velocity": 105,
              "position": 3.2708333333333335,
              "duration": 0.00625
            },
            {
              "pitch": 42,
              "velocity": 104,
              "position": 3.5,
              "duration": 0.00625
            },
            {
              "pitch": 31,
              "velocity": 25,
              "position": 3.7708333333333335,
              "duration": 0.00625
            },
            {
              "pitch": 33,
              "velocity": 105,
              "position": 4,
              "duration": 0.00625
            },
            {
              "pitch": 42,
              "velocity": 121,
              "position": 4,
              "duration": 0.00625
            },
            {
              "pitch": 31,
              "velocity": 25,
              "position": 4.270833333333333,
              "duration": 0.00625
            },
            {
              "pitch": 42,
              "velocity": 55,
              "position": 4.5,
              "duration": 0.00625
            },
            {
              "pitch": 33,
              "velocity": 105,
              "position": 4.770833333333333,
              "duration": 0.00625
            },
            {
              "pitch": 31,
              "velocity": 125,
              "position": 5,
              "duration": 0.00625
            },
            {
              "pitch": 42,
              "velocity": 121,
              "position": 5,
              "duration": 0.00625
            },
            {
              "pitch": 33,
              "velocity": 105,
              "position": 5.5,
              "duration": 0.00625
            },
            {
              "pitch": 42,
              "velocity": 55,
              "position": 5.5,
              "duration": 0.00625
            },
            {
              "pitch": 31,
              "velocity": 25,
              "position": 5.770833333333333,
              "duration": 0.00625
            },
            {
              "pitch": 42,
              "velocity": 121,
              "position": 6,
              "duration": 0.00625
            },
            {
              "pitch": 31,
              "velocity": 44,
              "position": 6.270833333333333,
              "duration": 0.00625
            },
            {
              "pitch": 33,
              "velocity": 105,
              "position": 6.5,
              "duration": 0.00625
            },
            {
              "pitch": 42,
              "velocity": 55,
              "position": 6.5,
              "duration": 0.00625
            },
            {
              "pitch": 31,
              "velocity": 20,
              "position": 6.770833333333333,
              "duration": 0.00625
            },
            {
              "pitch": 31,
              "velocity": 125,
              "position": 7,
              "duration": 0.00625
            },
            {
              "pitch": 46,
              "velocity": 77,
              "position": 7,
              "duration": 0.00625
            },
            {
              "pitch": 31,
              "velocity": 25,
              "position": 7.270833333333333,
              "duration": 0.00625
            },
            {
              "pitch": 42,
              "velocity": 104,
              "position": 7.5,
              "duration": 0.00625
            },
            {
              "pitch": 31,
              "velocity": 25,
              "position": 7.770833333333333,
              "duration": 0.00625
            },
            {
              "pitch": 33,
              "velocity": 105,
              "position": 8,
              "duration": 0.00625
            },
            {
              "pitch": 42,
              "velocity": 121,
              "position": 8,
              "duration": 0.00625
            },
            {
              "pitch": 31,
              "velocity": 25,
              "position": 8.270833333333334,
              "duration": 0.00625
            },
            {
              "pitch": 31,
              "velocity": 88,
              "position": 8.5,
              "duration": 0.00625
            },
            {
              "pitch": 55,
              "velocity": 61,
              "position": 8.5,
              "duration": 0.00625
            },
            {
              "pitch": 31,
              "velocity": 37,
              "position": 8.770833333333334,
              "duration": 0.00625
            },
            {
              "pitch": 33,
              "velocity": 105,
              "position": 8.770833333333334,
              "duration": 0.00625
            },
            {
              "pitch": 31,
              "velocity": 125,
              "position": 9,
              "duration": 0.00625
            },
            {
              "pitch": 55,
              "velocity": 99,
              "position": 9,
              "duration": 0.00625
            },
            {
              "pitch": 33,
              "velocity": 105,
              "position": 9.5,
              "duration": 0.00625
            },
            {
              "pitch": 42,
              "velocity": 55,
              "position": 9.5,
              "duration": 0.00625
            },
            {
              "pitch": 31,
              "velocity": 25,
              "position": 9.770833333333334,
              "duration": 0.00625
            },
            {
              "pitch": 42,
              "velocity": 121,
              "position": 10,
              "duration": 0.00625
            },
            {
              "pitch": 31,
              "velocity": 44,
              "position": 10.270833333333334,
              "duration": 0.00625
            },
            {
              "pitch": 33,
              "velocity": 105,
              "position": 10.5,
              "duration": 0.00625
            },
            {
              "pitch": 42,
              "velocity": 55,
              "position": 10.5,
              "duration": 0.00625
            },
            {
              "pitch": 31,
              "velocity": 20,
              "position": 10.770833333333334,
              "duration": 0.00625
            },
            {
              "pitch": 31,
              "velocity": 125,
              "position": 11,
              "duration": 0.00625
            },
            {
              "pitch": 46,
              "velocity": 77,
              "position": 11,
              "duration": 0.00625
            },
            {
              "pitch": 33,
              "velocity": 105,
              "position": 11.270833333333334,
              "duration": 0.00625
            },
            {
              "pitch": 42,
              "velocity": 104,
              "position": 11.5,
              "duration": 0.00625
            },
            {
              "pitch": 31,
              "velocity": 25,
              "position": 11.770833333333334,
              "duration": 0.00625
            },
            {
              "pitch": 33,
              "velocity": 105,
              "position": 12,
              "duration": 0.00625
            },
            {
              "pitch": 42,
              "velocity": 64,
              "position": 12.270833333333334,
              "duration": 0.00625
            },
            {
              "pitch": 31,
              "velocity": 125,
              "position": 12.5,
              "duration": 0.00625
            },
            {
              "pitch": 33,
              "velocity": 65,
              "position": 12.770833333333334,
              "duration": 0.00625
            },
            {
              "pitch": 42,
              "velocity": 105,
              "position": 13,
              "duration": 0.00625
            },
            {
              "pitch": 31,
              "velocity": 62,
              "position": 13.270833333333334,
              "duration": 0.00625
            },
            {
              "pitch": 33,
              "velocity": 105,
              "position": 13.5,
              "duration": 0.00625
            },
            {
              "pitch": 42,
              "velocity": 64,
              "position": 13.770833333333334,
              "duration": 0.00625
            },
            {
              "pitch": 31,
              "velocity": 125,
              "position": 14,
              "duration": 0.00625
            },
            {
              "pitch": 33,
              "velocity": 65,
              "position": 14.270833333333334,
              "duration": 0.00625
            },
            {
              "pitch": 42,
              "velocity": 105,
              "position": 14.5,
              "duration": 0.00625
            },
            {
              "pitch": 31,
              "velocity": 62,
              "position": 14.770833333333334,
              "duration": 0.00625
            },
            {
              "pitch": 33,
              "velocity": 105,
              "position": 15,
              "duration": 0.00625
            },
            {
              "pitch": 42,
              "velocity": 64,
              "position": 15.270833333333334,
              "duration": 0.00625
            },
            {
              "pitch": 31,
              "velocity": 127,
              "position": 15.5,
              "duration": 0.00625
            },
            {
              "pitch": 33,
              "velocity": 105,
              "position": 15.770833333333334,
              "duration": 0.00625
            },
            {
              "pitch": 57,
              "velocity": 83,
              "position": 15.770833333333334,
              "duration": 0.00625
            },
            {
              "pitch": 31,
              "velocity": 25,
              "position": 16.270833333333332,
              "duration": 0.00625
            },
            {
              "pitch": 44,
              "velocity": 42,
              "position": 16.5,
              "duration": 0.00625
            },
            {
              "pitch": 59,
              "velocity": 67,
              "position": 16.5,
              "duration": 0.00625
            },
            {
              "pitch": 33,
              "velocity": 105,
              "position": 16.770833333333332,
              "duration": 0.00625
            },
            {
              "pitch": 31,
              "velocity": 125,
              "position": 17,
              "duration": 0.00625
            },
            {
              "pitch": 59,
              "velocity": 103,
              "position": 17,
              "duration": 0.00625
            },
            {
              "pitch": 53,
              "velocity": 98,
              "position": 17,
              "duration": 0.00625
            },
            {
              "pitch": 44,
              "velocity": 55,
              "position": 17,
              "duration": 0.00625
            },
            {
              "pitch": 31,
              "velocity": 25,
              "position": 17.270833333333332,
              "duration": 0.00625
            },
            {
              "pitch": 33,
              "velocity": 105,
              "position": 17.5,
              "duration": 0.00625
            },
            {
              "pitch": 59,
              "velocity": 67,
              "position": 17.5,
              "duration": 0.00625
            },
            {
              "pitch": 44,
              "velocity": 42,
              "position": 17.5,
              "duration": 0.00625
            },
            {
              "pitch": 31,
              "velocity": 25,
              "position": 17.770833333333332,
              "duration": 0.00625
            },
            {
              "pitch": 44,
              "velocity": 55,
              "position": 18,
              "duration": 0.00625
            },
            {
              "pitch": 59,
              "velocity": 103,
              "position": 18,
              "duration": 0.00625
            },
            {
              "pitch": 53,
              "velocity": 98,
              "position": 18,
              "duration": 0.00625
            },
            {
              "pitch": 31,
              "velocity": 85,
              "position": 18.270833333333332,
              "duration": 0.00625
            },
            {
              "pitch": 33,
              "velocity": 105,
              "position": 18.5,
              "duration": 0.00625
            },
            {
              "pitch": 59,
              "velocity": 67,
              "position": 18.5,
              "duration": 0.00625
            },
            {
              "pitch": 44,
              "velocity": 42,
              "position": 18.5,
              "duration": 0.00625
            },
            {
              "pitch": 31,
              "velocity": 25,
              "position": 18.770833333333332,
              "duration": 0.00625
            },
            {
              "pitch": 31,
              "velocity": 125,
              "position": 19,
              "duration": 0.00625
            },
            {
              "pitch": 59,
              "velocity": 103,
              "position": 19,
              "duration": 0.00625
            },
            {
              "pitch": 53,
              "velocity": 98,
              "position": 19,
              "duration": 0.00625
            },
            {
              "pitch": 44,
              "velocity": 55,
              "position": 19,
              "duration": 0.00625
            },
            {
              "pitch": 31,
              "velocity": 25,
              "position": 19.270833333333332,
              "duration": 0.00625
            },
            {
              "pitch": 33,
              "velocity": 105,
              "position": 19.270833333333332,
              "duration": 0.00625
            },
            {
              "pitch": 44,
              "velocity": 42,
              "position": 19.5,
              "duration": 0.00625
            },
            {
              "pitch": 59,
              "velocity": 67,
              "position": 19.5,
              "duration": 0.00625
            },
            {
              "pitch": 31,
              "velocity": 25,
              "position": 19.770833333333332,
              "duration": 0.00625
            },
            {
              "pitch": 33,
              "velocity": 105,
              "position": 20,
              "duration": 0.00625
            },
            {
              "pitch": 59,
              "velocity": 103,
              "position": 20,
              "duration": 0.00625
            },
            {
              "pitch": 53,
              "velocity": 98,
              "position": 20,
              "duration": 0.00625
            },
            {
              "pitch": 44,
              "velocity": 55,
              "position": 20,
              "duration": 0.00625
            },
            {
              "pitch": 31,
              "velocity": 25,
              "position": 20.270833333333332,
              "duration": 0.00625
            },
            {
              "pitch": 44,
              "velocity": 42,
              "position": 20.5,
              "duration": 0.00625
            },
            {
              "pitch": 59,
              "velocity": 67,
              "position": 20.5,
              "duration": 0.00625
            },
            {
              "pitch": 33,
              "velocity": 105,
              "position": 20.770833333333332,
              "duration": 0.00625
            },
            {
              "pitch": 31,
              "velocity": 125,
              "position": 21,
              "duration": 0.00625
            },
            {
              "pitch": 59,
              "velocity": 103,
              "position": 21,
              "duration": 0.00625
            },
            {
              "pitch": 53,
              "velocity": 98,
              "position": 21,
              "duration": 0.00625
            },
            {
              "pitch": 44,
              "velocity": 55,
              "position": 21,
              "duration": 0.00625
            },
            {
              "pitch": 31,
              "velocity": 25,
              "position": 21.270833333333332,
              "duration": 0.00625
            },
            {
              "pitch": 33,
              "velocity": 105,
              "position": 21.5,
              "duration": 0.00625
            },
            {
              "pitch": 59,
              "velocity": 67,
              "position": 21.5,
              "duration": 0.00625
            },
            {
              "pitch": 44,
              "velocity": 42,
              "position": 21.5,
              "duration": 0.00625
            },
            {
              "pitch": 31,
              "velocity": 25,
              "position": 21.770833333333332,
              "duration": 0.00625
            },
            {
              "pitch": 44,
              "velocity": 55,
              "position": 22,
              "duration": 0.00625
            },
            {
              "pitch": 59,
              "velocity": 103,
              "position": 22,
              "duration": 0.00625
            },
            {
              "pitch": 53,
              "velocity": 98,
              "position": 22,
              "duration": 0.00625
            },
            {
              "pitch": 31,
              "velocity": 79,
              "position": 22.270833333333332,
              "duration": 0.00625
            },
            {
              "pitch": 33,
              "velocity": 105,
              "position": 22.5,
              "duration": 0.00625
            },
            {
              "pitch": 59,
              "velocity": 67,
              "position": 22.5,
              "duration": 0.00625
            },
            {
              "pitch": 44,
              "velocity": 42,
              "position": 22.5,
              "duration": 0.00625
            },
            {
              "pitch": 31,
              "velocity": 25,
              "position": 22.770833333333332,
              "duration": 0.00625
            },
            {
              "pitch": 31,
              "velocity": 125,
              "position": 23,
              "duration": 0.00625
            },
            {
              "pitch": 59,
              "velocity": 103,
              "position": 23,
              "duration": 0.00625
            },
            {
              "pitch": 53,
              "velocity": 98,
              "position": 23,
              "duration": 0.00625
            },
            {
              "pitch": 44,
              "velocity": 55,
              "position": 23,
              "duration": 0.00625
            },
            {
              "pitch": 31,
              "velocity": 25,
              "position": 23.270833333333332,
              "duration": 0.00625
            },
            {
              "pitch": 44,
              "velocity": 42,
              "position": 23.5,
              "duration": 0.00625
            },
            {
              "pitch": 59,
              "velocity": 67,
              "position": 23.5,
              "duration": 0.00625
            },
            {
              "pitch": 31,
              "velocity": 25,
              "position": 23.770833333333332,
              "duration": 0.00625
            },
            {
              "pitch": 33,
              "velocity": 105,
              "position": 24,
              "duration": 0.00625
            },
            {
              "pitch": 59,
              "velocity": 103,
              "position": 24,
              "duration": 0.00625
            },
            {
              "pitch": 53,
              "velocity": 98,
              "position": 24,
              "duration": 0.00625
            },
            {
              "pitch": 44,
              "velocity": 55,
              "position": 24,
              "duration": 0.00625
            },
            {
              "pitch": 31,
              "velocity": 25,
              "position": 24.270833333333332,
              "duration": 0.00625
            },
            {
              "pitch": 44,
              "velocity": 42,
              "position": 24.5,
              "duration": 0.00625
            },
            {
              "pitch": 59,
              "velocity": 67,
              "position": 24.5,
              "duration": 0.00625
            },
            {
              "pitch": 33,
              "velocity": 105,
              "position": 24.770833333333332,
              "duration": 0.00625
            },
            {
              "pitch": 31,
              "velocity": 125,
              "position": 25,
              "duration": 0.00625
            },
            {
              "pitch": 59,
              "velocity": 103,
              "position": 25,
              "duration": 0.00625
            },
            {
              "pitch": 53,
              "velocity": 98,
              "position": 25,
              "duration": 0.00625
            },
            {
              "pitch": 44,
              "velocity": 55,
              "position": 25,
              "duration": 0.00625
            },
            {
              "pitch": 31,
              "velocity": 25,
              "position": 25.270833333333332,
              "duration": 0.00625
            },
            {
              "pitch": 33,
              "velocity": 105,
              "position": 25.5,
              "duration": 0.00625
            },
            {
              "pitch": 59,
              "velocity": 67,
              "position": 25.5,
              "duration": 0.00625
            },
            {
              "pitch": 44,
              "velocity": 42,
              "position": 25.5,
              "duration": 0.00625
            },
            {
              "pitch": 31,
              "velocity": 25,
              "position": 25.770833333333332,
              "duration": 0.00625
            },
            {
              "pitch": 44,
              "velocity": 55,
              "position": 26,
              "duration": 0.00625
            },
            {
              "pitch": 59,
              "velocity": 103,
              "position": 26,
              "duration": 0.00625
            },
            {
              "pitch": 53,
              "velocity": 98,
              "position": 26,
              "duration": 0.00625
            },
            {
              "pitch": 31,
              "velocity": 71,
              "position": 26.270833333333332,
              "duration": 0.00625
            },
            {
              "pitch": 33,
              "velocity": 105,
              "position": 26.5,
              "duration": 0.00625
            },
            {
              "pitch": 59,
              "velocity": 67,
              "position": 26.5,
              "duration": 0.00625
            },
            {
              "pitch": 44,
              "velocity": 42,
              "position": 26.5,
              "duration": 0.00625
            },
            {
              "pitch": 31,
              "velocity": 25,
              "position": 26.770833333333332,
              "duration": 0.00625
            },
            {
              "pitch": 31,
              "velocity": 125,
              "position": 27,
              "duration": 0.00625
            },
            {
              "pitch": 59,
              "velocity": 103,
              "position": 27,
              "duration": 0.00625
            },
            {
              "pitch": 53,
              "velocity": 98,
              "position": 27,
              "duration": 0.00625
            },
            {
              "pitch": 44,
              "velocity": 55,
              "position": 27,
              "duration": 0.00625
            },
            {
              "pitch": 31,
              "velocity": 25,
              "position": 27.270833333333332,
              "duration": 0.00625
            },
            {
              "pitch": 33,
              "velocity": 105,
              "position": 27.270833333333332,
              "duration": 0.00625
            },
            {
              "pitch": 44,
              "velocity": 42,
              "position": 27.5,
              "duration": 0.00625
            },
            {
              "pitch": 59,
              "velocity": 67,
              "position": 27.5,
              "duration": 0.00625
            },
            {
              "pitch": 31,
              "velocity": 25,
              "position": 27.770833333333332,
              "duration": 0.00625
            },
            {
              "pitch": 33,
              "velocity": 105,
              "position": 28,
              "duration": 0.00625
            },
            {
              "pitch": 59,
              "velocity": 103,
              "position": 28,
              "duration": 0.00625
            },
            {
              "pitch": 53,
              "velocity": 98,
              "position": 28,
              "duration": 0.00625
            },
            {
              "pitch": 44,
              "velocity": 55,
              "position": 28,
              "duration": 0.00625
            },
            {
              "pitch": 31,
              "velocity": 25,
              "position": 28.270833333333332,
              "duration": 0.00625
            },
            {
              "pitch": 31,
              "velocity": 125,
              "position": 28.5,
              "duration": 0.00625
            },
            {
              "pitch": 44,
              "velocity": 42,
              "position": 28.5,
              "duration": 0.00625
            },
            {
              "pitch": 31,
              "velocity": 125,
              "position": 29,
              "duration": 0.00625
            },
            {
              "pitch": 44,
              "velocity": 55,
              "position": 29,
              "duration": 0.00625
            },
            {
              "pitch": 31,
              "velocity": 100,
              "position": 29.5,
              "duration": 0.00625
            },
            {
              "pitch": 44,
              "velocity": 42,
              "position": 29.5,
              "duration": 0.00625
            },
            {
              "pitch": 31,
              "velocity": 125,
              "position": 30,
              "duration": 0.00625
            },
            {
              "pitch": 46,
              "velocity": 77,
              "position": 30,
              "duration": 0.00625
            },
            {
              "pitch": 44,
              "velocity": 6,
              "position": 30.270833333333332,
              "duration": 0.00625
            },
            {
              "pitch": 33,
              "velocity": 91,
              "position": 31,
              "duration": 0.00625
            },
            {
              "pitch": 49,
              "velocity": 90,
              "position": 31.989583333333332,
              "duration": 0.00625
            }
          ]
        },
        "10": {
          "ctab": {
            "srcChannel": 10,
            "name": "Bass",
            "accType": "BASS",
            "editable": false,
            "mutedNotes": [],
            "mutedChords": [
              "dim7",
              "dim",
              "minMaj7(9)",
              "minMaj7",
              "min7(11)",
              "min7(9)",
              "min(9)",
              "m7b5",
              "min7",
              "min6",
              "min"
            ],
            "autoStart": false,
            "sourceChordNote": 0,
            "sourceChordType": "Maj",
            "ctb2Low": null,
            "ctb2Main": {
              "ntr": "ROOT_TRANSPOSITION",
              "ntt": "BYPASS",
              "bassOn": false,
              "chordRootUpperLimit": 8,
              "noteLowLimit": 28,
              "noteHighLimit": 127,
              "rtr": "PITCH_SHIFT"
            },
            "ctb2High": null
          },
          "notes": [
            {
              "pitch": 31,
              "velocity": 80,
              "position": 0,
              "duration": 0.23541666666666666
            },
            {
              "pitch": 31,
              "velocity": 91,
              "position": 0.25,
              "duration": 0.13125
            },
            {
              "pitch": 31,
              "velocity": 110,
              "position": 0.5,
              "duration": 0.13125
            },
            {
              "pitch": 31,
              "velocity": 80,
              "position": 0.75,
              "duration": 0.23541666666666666
            },
            {
              "pitch": 29,
              "velocity": 80,
              "position": 3.5,
              "duration": 0.13125
            },
            {
              "pitch": 30,
              "velocity": 63,
              "position": 3.75,
              "duration": 0.13125
            },
            {
              "pitch": 31,
              "velocity": 80,
              "position": 4,
              "duration": 0.23541666666666666
            },
            {
              "pitch": 31,
              "velocity": 91,
              "position": 4.25,
              "duration": 0.13125
            },
            {
              "pitch": 31,
              "velocity": 110,
              "position": 4.5,
              "duration": 0.13125
            },
            {
              "pitch": 31,
              "velocity": 80,
              "position": 4.75,
              "duration": 0.23541666666666666
            },
            {
              "pitch": 31,
              "velocity": 110,
              "position": 7.25,
              "duration": 0.13125
            },
            {
              "pitch": 41,
              "velocity": 80,
              "position": 7.5,
              "duration": 0.23541666666666666
            },
            {
              "pitch": 43,
              "velocity": 63,
              "position": 7.75,
              "duration": 0.13125
            },
            {
              "pitch": 31,
              "velocity": 80,
              "position": 8,
              "duration": 0.23541666666666666
            },
            {
              "pitch": 31,
              "velocity": 91,
              "position": 8.25,
              "duration": 0.13125
            },
            {
              "pitch": 31,
              "velocity": 110,
              "position": 8.5,
              "duration": 0.13125
            },
            {
              "pitch": 31,
              "velocity": 80,
              "position": 8.75,
              "duration": 0.23541666666666666
            },
            {
              "pitch": 29,
              "velocity": 80,
              "position": 11.5,
              "duration": 0.13125
            },
            {
              "pitch": 30,
              "velocity": 63,
              "position": 11.75,
              "duration": 0.13125
            },
            {
              "pitch": 31,
              "velocity": 80,
              "position": 12,
              "duration": 0.23541666666666666
            },
            {
              "pitch": 31,
              "velocity": 91,
              "position": 12.25,
              "duration": 0.13125
            },
            {
              "pitch": 31,
              "velocity": 110,
              "position": 12.5,
              "duration": 0.13125
            },
            {
              "pitch": 31,
              "velocity": 80,
              "position": 12.75,
              "duration": 0.23541666666666666
            },
            {
              "pitch": 41,
              "velocity": 80,
              "position": 13.5,
              "duration": 0.13125
            },
            {
              "pitch": 42,
              "velocity": 63,
              "position": 13.75,
              "duration": 0.13125
            },
            {
              "pitch": 43,
              "velocity": 80,
              "position": 14,
              "duration": 0.13125
            },
            {
              "pitch": 43,
              "velocity": 63,
              "position": 14.25,
              "duration": 0.13125
            },
            {
              "pitch": 38,
              "velocity": 80,
              "position": 14.5,
              "duration": 0.13125
            },
            {
              "pitch": 38,
              "velocity": 110,
              "position": 14.75,
              "duration": 0.13125
            },
            {
              "pitch": 31,
              "velocity": 80,
              "position": 15,
              "duration": 0.13125
            },
            {
              "pitch": 31,
              "velocity": 63,
              "position": 15.25,
              "duration": 0.13125
            },
            {
              "pitch": 31,
              "velocity": 110,
              "position": 15.5,
              "duration": 0.13125
            },
            {
              "pitch": 32,
              "velocity": 80,
              "position": 15.75,
              "duration": 0.7354166666666667
            },
            {
              "pitch": 32,
              "velocity": 110,
              "position": 16.5,
              "duration": 0.13125
            },
            {
              "pitch": 32,
              "velocity": 80,
              "position": 16.75,
              "duration": 0.23541666666666666
            },
            {
              "pitch": 32,
              "velocity": 110,
              "position": 17.25,
              "duration": 0.13125
            },
            {
              "pitch": 39,
              "velocity": 110,
              "position": 17.5,
              "duration": 0.13125
            },
            {
              "pitch": 42,
              "velocity": 80,
              "position": 17.75,
              "duration": 0.23541666666666666
            },
            {
              "pitch": 42,
              "velocity": 91,
              "position": 18,
              "duration": 0.13125
            },
            {
              "pitch": 42,
              "velocity": 110,
              "position": 18.25,
              "duration": 0.13125
            },
            {
              "pitch": 42,
              "velocity": 80,
              "position": 18.5,
              "duration": 0.23541666666666666
            },
            {
              "pitch": 44,
              "velocity": 60,
              "position": 18.75,
              "duration": 0.23541666666666666
            },
            {
              "pitch": 44,
              "velocity": 110,
              "position": 19,
              "duration": 0.13125
            },
            {
              "pitch": 39,
              "velocity": 110,
              "position": 19.25,
              "duration": 0.13125
            },
            {
              "pitch": 31,
              "velocity": 60,
              "position": 19.5,
              "duration": 0.17291666666666666
            },
            {
              "pitch": 30,
              "velocity": 60,
              "position": 19.75,
              "duration": 0.17291666666666666
            },
            {
              "pitch": 29,
              "velocity": 80,
              "position": 20,
              "duration": 0.23541666666666666
            },
            {
              "pitch": 29,
              "velocity": 91,
              "position": 20.25,
              "duration": 0.13125
            },
            {
              "pitch": 29,
              "velocity": 110,
              "position": 20.5,
              "duration": 0.13125
            },
            {
              "pitch": 29,
              "velocity": 80,
              "position": 20.75,
              "duration": 0.23541666666666666
            },
            {
              "pitch": 29,
              "velocity": 110,
              "position": 21.25,
              "duration": 0.13125
            },
            {
              "pitch": 36,
              "velocity": 110,
              "position": 21.5,
              "duration": 0.13125
            },
            {
              "pitch": 39,
              "velocity": 80,
              "position": 21.75,
              "duration": 0.23541666666666666
            },
            {
              "pitch": 39,
              "velocity": 91,
              "position": 22,
              "duration": 0.13125
            },
            {
              "pitch": 39,
              "velocity": 110,
              "position": 22.25,
              "duration": 0.13125
            },
            {
              "pitch": 39,
              "velocity": 80,
              "position": 22.5,
              "duration": 0.23541666666666666
            },
            {
              "pitch": 41,
              "velocity": 60,
              "position": 22.75,
              "duration": 0.23541666666666666
            },
            {
              "pitch": 41,
              "velocity": 110,
              "position": 23,
              "duration": 0.13125
            },
            {
              "pitch": 36,
              "velocity": 110,
              "position": 23.25,
              "duration": 0.13125
            },
            {
              "pitch": 29,
              "velocity": 60,
              "position": 23.5,
              "duration": 0.17291666666666666
            },
            {
              "pitch": 30,
              "velocity": 60,
              "position": 23.75,
              "duration": 0.17291666666666666
            },
            {
              "pitch": 31,
              "velocity": 80,
              "position": 24,
              "duration": 0.23541666666666666
            },
            {
              "pitch": 31,
              "velocity": 91,
              "position": 24.25,
              "duration": 0.13125
            },
            {
              "pitch": 31,
              "velocity": 110,
              "position": 24.5,
              "duration": 0.13125
            },
            {
              "pitch": 31,
              "velocity": 80,
              "position": 24.75,
              "duration": 0.23541666666666666
            },
            {
              "pitch": 31,
              "velocity": 110,
              "position": 25.25,
              "duration": 0.13125
            },
            {
              "pitch": 38,
              "velocity": 110,
              "position": 25.5,
              "duration": 0.13125
            },
            {
              "pitch": 41,
              "velocity": 80,
              "position": 25.75,
              "duration": 0.23541666666666666
            },
            {
              "pitch": 41,
              "velocity": 91,
              "position": 26,
              "duration": 0.13125
            },
            {
              "pitch": 41,
              "velocity": 110,
              "position": 26.25,
              "duration": 0.13125
            },
            {
              "pitch": 41,
              "velocity": 80,
              "position": 26.5,
              "duration": 0.23541666666666666
            },
            {
              "pitch": 43,
              "velocity": 60,
              "position": 26.75,
              "duration": 0.23541666666666666
            },
            {
              "pitch": 44,
              "velocity": 80,
              "position": 27,
              "duration": 0.48541666666666666
            },
            {
              "pitch": 41,
              "velocity": 80,
              "position": 27.5,
              "duration": 0.23541666666666666
            },
            {
              "pitch": 42,
              "velocity": 60,
              "position": 27.75,
              "duration": 0.23541666666666666
            },
            {
              "pitch": 43,
              "velocity": 80,
              "position": 28,
              "duration": 0.23541666666666666
            },
            {
              "pitch": 31,
              "velocity": 80,
              "position": 28.5,
              "duration": 0.23541666666666666
            },
            {
              "pitch": 31,
              "velocity": 80,
              "position": 29,
              "duration": 0.23541666666666666
            },
            {
              "pitch": 31,
              "velocity": 80,
              "position": 29.5,
              "duration": 0.23541666666666666
            },
            {
              "pitch": 31,
              "velocity": 80,
              "position": 30,
              "duration": 0.48541666666666666
            },
            {
              "pitch": 102,
              "velocity": 87,
              "position": 30.5,
              "duration": 0.23541666666666666
            },
            {
              "pitch": 100,
              "velocity": 127,
              "position": 31,
              "duration": 0.9854166666666667
            }
          ]
        },
        "11": {
          "ctab": {
            "srcChannel": 11,
            "name": "C1",
            "accType": "CHORD1",
            "editable": false,
            "mutedNotes": [],
            "mutedChords": [
              "dim7",
              "dim",
              "minMaj7(9)",
              "minMaj7",
              "min7(11)",
              "min7(9)",
              "min(9)",
              "m7b5",
              "min7",
              "min6",
              "min"
            ],
            "autoStart": false,
            "sourceChordNote": 0,
            "sourceChordType": "Maj",
            "ctb2Low": null,
            "ctb2Main": {
              "ntr": "ROOT_TRANSPOSITION",
              "ntt": "BYPASS",
              "bassOn": false,
              "chordRootUpperLimit": 6,
              "noteLowLimit": 0,
              "noteHighLimit": 79,
              "rtr": "PITCH_SHIFT"
            },
            "ctb2High": null
          },
          "notes": [
            {
              "pitch": 106,
              "velocity": 87,
              "position": 0,
              "duration": 0.23541666666666666
            },
            {
              "pitch": 75,
              "velocity": 39,
              "position": 0.03125,
              "duration": 0.20416666666666666
            },
            {
              "pitch": 70,
              "velocity": 39,
              "position": 0.020833333333333332,
              "duration": 0.21458333333333332
            },
            {
              "pitch": 65,
              "velocity": 39,
              "position": 0.010416666666666666,
              "duration": 0.23541666666666666
            },
            {
              "pitch": 75,
              "velocity": 20,
              "position": 0.25,
              "duration": 0.11041666666666666
            },
            {
              "pitch": 70,
              "velocity": 20,
              "position": 0.2604166666666667,
              "duration": 0.12083333333333333
            },
            {
              "pitch": 65,
              "velocity": 20,
              "position": 0.2708333333333333,
              "duration": 0.14166666666666666
            },
            {
              "pitch": 108,
              "velocity": 72,
              "position": 0.25,
              "duration": 0.23541666666666666
            },
            {
              "pitch": 107,
              "velocity": 72,
              "position": 0.5,
              "duration": 0.23541666666666666
            },
            {
              "pitch": 75,
              "velocity": 39,
              "position": 0.75,
              "duration": 0.20416666666666666
            },
            {
              "pitch": 70,
              "velocity": 39,
              "position": 0.7604166666666666,
              "duration": 0.21458333333333332
            },
            {
              "pitch": 105,
              "velocity": 87,
              "position": 0.75,
              "duration": 0.23541666666666666
            },
            {
              "pitch": 65,
              "velocity": 39,
              "position": 0.7708333333333334,
              "duration": 0.23541666666666666
            },
            {
              "pitch": 59,
              "velocity": 33,
              "position": 0.78125,
              "duration": 0.25625
            },
            {
              "pitch": 107,
              "velocity": 72,
              "position": 1,
              "duration": 0.23541666666666666
            },
            {
              "pitch": 108,
              "velocity": 72,
              "position": 1.25,
              "duration": 0.23541666666666666
            },
            {
              "pitch": 106,
              "velocity": 87,
              "position": 1.5,
              "duration": 0.23541666666666666
            },
            {
              "pitch": 75,
              "velocity": 39,
              "position": 1.53125,
              "duration": 0.20416666666666666
            },
            {
              "pitch": 70,
              "velocity": 39,
              "position": 1.5208333333333333,
              "duration": 0.21458333333333332
            },
            {
              "pitch": 65,
              "velocity": 39,
              "position": 1.5104166666666667,
              "duration": 0.23541666666666666
            },
            {
              "pitch": 59,
              "velocity": 33,
              "position": 1.5,
              "duration": 0.25625
            },
            {
              "pitch": 108,
              "velocity": 72,
              "position": 1.75,
              "duration": 0.23541666666666666
            },
            {
              "pitch": 107,
              "velocity": 72,
              "position": 2,
              "duration": 0.23541666666666666
            },
            {
              "pitch": 108,
              "velocity": 72,
              "position": 2.25,
              "duration": 0.23541666666666666
            },
            {
              "pitch": 106,
              "velocity": 87,
              "position": 2.5,
              "duration": 0.23541666666666666
            },
            {
              "pitch": 70,
              "velocity": 39,
              "position": 2.5208333333333335,
              "duration": 0.21458333333333332
            },
            {
              "pitch": 65,
              "velocity": 39,
              "position": 2.5104166666666665,
              "duration": 0.23541666666666666
            },
            {
              "pitch": 59,
              "velocity": 33,
              "position": 2.5,
              "duration": 0.25625
            },
            {
              "pitch": 108,
              "velocity": 72,
              "position": 2.75,
              "duration": 0.23541666666666666
            },
            {
              "pitch": 59,
              "velocity": 26,
              "position": 2.7708333333333335,
              "duration": 0.21458333333333332
            },
            {
              "pitch": 65,
              "velocity": 26,
              "position": 2.7604166666666665,
              "duration": 0.23541666666666666
            },
            {
              "pitch": 70,
              "velocity": 26,
              "position": 2.75,
              "duration": 0.25625
            },
            {
              "pitch": 75,
              "velocity": 39,
              "position": 2.53125,
              "duration": 0.48541666666666666
            },
            {
              "pitch": 107,
              "velocity": 72,
              "position": 3,
              "duration": 0.23541666666666666
            },
            {
              "pitch": 75,
              "velocity": 33,
              "position": 3.03125,
              "duration": 0.20416666666666666
            },
            {
              "pitch": 70,
              "velocity": 33,
              "position": 3.0208333333333335,
              "duration": 0.225
            },
            {
              "pitch": 65,
              "velocity": 33,
              "position": 3.0104166666666665,
              "duration": 0.24583333333333332
            },
            {
              "pitch": 105,
              "velocity": 87,
              "position": 3.25,
              "duration": 0.23541666666666666
            },
            {
              "pitch": 65,
              "velocity": 39,
              "position": 3.2708333333333335,
              "duration": 0.21458333333333332
            },
            {
              "pitch": 70,
              "velocity": 39,
              "position": 3.2604166666666665,
              "duration": 0.23541666666666666
            },
            {
              "pitch": 75,
              "velocity": 39,
              "position": 3.25,
              "duration": 0.25625
            },
            {
              "pitch": 59,
              "velocity": 33,
              "position": 3,
              "duration": 0.50625
            },
            {
              "pitch": 107,
              "velocity": 72,
              "position": 3.5,
              "duration": 0.23541666666666666
            },
            {
              "pitch": 108,
              "velocity": 72,
              "position": 3.75,
              "duration": 0.23541666666666666
            },
            {
              "pitch": 106,
              "velocity": 87,
              "position": 4,
              "duration": 0.23541666666666666
            },
            {
              "pitch": 75,
              "velocity": 39,
              "position": 4.03125,
              "duration": 0.20416666666666666
            },
            {
              "pitch": 70,
              "velocity": 39,
              "position": 4.020833333333333,
              "duration": 0.21458333333333332
            },
            {
              "pitch": 65,
              "velocity": 39,
              "position": 4.010416666666667,
              "duration": 0.23541666666666666
            },
            {
              "pitch": 75,
              "velocity": 20,
              "position": 4.25,
              "duration": 0.11041666666666666
            },
            {
              "pitch": 70,
              "velocity": 20,
              "position": 4.260416666666667,
              "duration": 0.12083333333333333
            },
            {
              "pitch": 65,
              "velocity": 20,
              "position": 4.270833333333333,
              "duration": 0.14166666666666666
            },
            {
              "pitch": 108,
              "velocity": 72,
              "position": 4.25,
              "duration": 0.23541666666666666
            },
            {
              "pitch": 107,
              "velocity": 72,
              "position": 4.5,
              "duration": 0.23541666666666666
            },
            {
              "pitch": 75,
              "velocity": 39,
              "position": 4.75,
              "duration": 0.20416666666666666
            },
            {
              "pitch": 70,
              "velocity": 39,
              "position": 4.760416666666667,
              "duration": 0.21458333333333332
            },
            {
              "pitch": 105,
              "velocity": 87,
              "position": 4.75,
              "duration": 0.23541666666666666
            },
            {
              "pitch": 65,
              "velocity": 39,
              "position": 4.770833333333333,
              "duration": 0.23541666666666666
            },
            {
              "pitch": 59,
              "velocity": 33,
              "position": 4.78125,
              "duration": 0.25625
            },
            {
              "pitch": 107,
              "velocity": 72,
              "position": 5,
              "duration": 0.23541666666666666
            },
            {
              "pitch": 108,
              "velocity": 72,
              "position": 5.25,
              "duration": 0.23541666666666666
            },
            {
              "pitch": 106,
              "velocity": 87,
              "position": 5.5,
              "duration": 0.23541666666666666
            },
            {
              "pitch": 75,
              "velocity": 39,
              "position": 5.53125,
              "duration": 0.20416666666666666
            },
            {
              "pitch": 70,
              "velocity": 39,
              "position": 5.520833333333333,
              "duration": 0.21458333333333332
            },
            {
              "pitch": 65,
              "velocity": 39,
              "position": 5.510416666666667,
              "duration": 0.23541666666666666
            },
            {
              "pitch": 59,
              "velocity": 33,
              "position": 5.5,
              "duration": 0.25625
            },
            {
              "pitch": 108,
              "velocity": 72,
              "position": 5.75,
              "duration": 0.23541666666666666
            },
            {
              "pitch": 107,
              "velocity": 72,
              "position": 6,
              "duration": 0.23541666666666666
            },
            {
              "pitch": 108,
              "velocity": 72,
              "position": 6.25,
              "duration": 0.23541666666666666
            },
            {
              "pitch": 106,
              "velocity": 87,
              "position": 6.5,
              "duration": 0.23541666666666666
            },
            {
              "pitch": 70,
              "velocity": 39,
              "position": 6.520833333333333,
              "duration": 0.21458333333333332
            },
            {
              "pitch": 65,
              "velocity": 39,
              "position": 6.510416666666667,
              "duration": 0.23541666666666666
            },
            {
              "pitch": 59,
              "velocity": 33,
              "position": 6.5,
              "duration": 0.25625
            },
            {
              "pitch": 108,
              "velocity": 72,
              "position": 6.75,
              "duration": 0.23541666666666666
            },
            {
              "pitch": 59,
              "velocity": 26,
              "position": 6.770833333333333,
              "duration": 0.21458333333333332
            },
            {
              "pitch": 65,
              "velocity": 26,
              "position": 6.760416666666667,
              "duration": 0.23541666666666666
            },
            {
              "pitch": 70,
              "velocity": 26,
              "position": 6.75,
              "duration": 0.25625
            },
            {
              "pitch": 75,
              "velocity": 39,
              "position": 6.53125,
              "duration": 0.48541666666666666
            },
            {
              "pitch": 107,
              "velocity": 72,
              "position": 7,
              "duration": 0.23541666666666666
            },
            {
              "pitch": 75,
              "velocity": 33,
              "position": 7.03125,
              "duration": 0.20416666666666666
            },
            {
              "pitch": 70,
              "velocity": 33,
              "position": 7.020833333333333,
              "duration": 0.225
            },
            {
              "pitch": 65,
              "velocity": 33,
              "position": 7.010416666666667,
              "duration": 0.24583333333333332
            },
            {
              "pitch": 105,
              "velocity": 87,
              "position": 7.25,
              "duration": 0.23541666666666666
            },
            {
              "pitch": 65,
              "velocity": 39,
              "position": 7.270833333333333,
              "duration": 0.21458333333333332
            },
            {
              "pitch": 70,
              "velocity": 39,
              "position": 7.260416666666667,
              "duration": 0.23541666666666666
            },
            {
              "pitch": 75,
              "velocity": 39,
              "position": 7.25,
              "duration": 0.25625
            },
            {
              "pitch": 59,
              "velocity": 33,
              "position": 7,
              "duration": 0.50625
            },
            {
              "pitch": 107,
              "velocity": 72,
              "position": 7.5,
              "duration": 0.23541666666666666
            },
            {
              "pitch": 108,
              "velocity": 72,
              "position": 7.75,
              "duration": 0.23541666666666666
            },
            {
              "pitch": 106,
              "velocity": 87,
              "position": 8,
              "duration": 0.23541666666666666
            },
            {
              "pitch": 75,
              "velocity": 39,
              "position": 8.03125,
              "duration": 0.20416666666666666
            },
            {
              "pitch": 70,
              "velocity": 39,
              "position": 8.020833333333334,
              "duration": 0.21458333333333332
            },
            {
              "pitch": 65,
              "velocity": 39,
              "position": 8.010416666666666,
              "duration": 0.23541666666666666
            },
            {
              "pitch": 75,
              "velocity": 20,
              "position": 8.25,
              "duration": 0.11041666666666666
            },
            {
              "pitch": 70,
              "velocity": 20,
              "position": 8.260416666666666,
              "duration": 0.12083333333333333
            },
            {
              "pitch": 65,
              "velocity": 20,
              "position": 8.270833333333334,
              "duration": 0.14166666666666666
            },
            {
              "pitch": 108,
              "velocity": 72,
              "position": 8.25,
              "duration": 0.23541666666666666
            },
            {
              "pitch": 107,
              "velocity": 72,
              "position": 8.5,
              "duration": 0.23541666666666666
            },
            {
              "pitch": 75,
              "velocity": 39,
              "position": 8.75,
              "duration": 0.20416666666666666
            },
            {
              "pitch": 70,
              "velocity": 39,
              "position": 8.760416666666666,
              "duration": 0.21458333333333332
            },
            {
              "pitch": 105,
              "velocity": 87,
              "position": 8.75,
              "duration": 0.23541666666666666
            },
            {
              "pitch": 65,
              "velocity": 39,
              "position": 8.770833333333334,
              "duration": 0.23541666666666666
            },
            {
              "pitch": 59,
              "velocity": 33,
              "position": 8.78125,
              "duration": 0.25625
            },
            {
              "pitch": 107,
              "velocity": 72,
              "position": 9,
              "duration": 0.23541666666666666
            },
            {
              "pitch": 108,
              "velocity": 72,
              "position": 9.25,
              "duration": 0.23541666666666666
            },
            {
              "pitch": 106,
              "velocity": 87,
              "position": 9.5,
              "duration": 0.23541666666666666
            },
            {
              "pitch": 75,
              "velocity": 39,
              "position": 9.53125,
              "duration": 0.20416666666666666
            },
            {
              "pitch": 70,
              "velocity": 39,
              "position": 9.520833333333334,
              "duration": 0.21458333333333332
            },
            {
              "pitch": 65,
              "velocity": 39,
              "position": 9.510416666666666,
              "duration": 0.23541666666666666
            },
            {
              "pitch": 59,
              "velocity": 33,
              "position": 9.5,
              "duration": 0.25625
            },
            {
              "pitch": 108,
              "velocity": 72,
              "position": 9.75,
              "duration": 0.23541666666666666
            },
            {
              "pitch": 107,
              "velocity": 72,
              "position": 10,
              "duration": 0.23541666666666666
            },
            {
              "pitch": 108,
              "velocity": 72,
              "position": 10.25,
              "duration": 0.23541666666666666
            },
            {
              "pitch": 106,
              "velocity": 87,
              "position": 10.5,
              "duration": 0.23541666666666666
            },
            {
              "pitch": 70,
              "velocity": 39,
              "position": 10.520833333333334,
              "duration": 0.21458333333333332
            },
            {
              "pitch": 65,
              "velocity": 39,
              "position": 10.510416666666666,
              "duration": 0.23541666666666666
            },
            {
              "pitch": 59,
              "velocity": 33,
              "position": 10.5,
              "duration": 0.25625
            },
            {
              "pitch": 108,
              "velocity": 72,
              "position": 10.75,
              "duration": 0.23541666666666666
            },
            {
              "pitch": 59,
              "velocity": 26,
              "position": 10.770833333333334,
              "duration": 0.21458333333333332
            },
            {
              "pitch": 65,
              "velocity": 26,
              "position": 10.760416666666666,
              "duration": 0.23541666666666666
            },
            {
              "pitch": 70,
              "velocity": 26,
              "position": 10.75,
              "duration": 0.25625
            },
            {
              "pitch": 75,
              "velocity": 39,
              "position": 10.53125,
              "duration": 0.48541666666666666
            },
            {
              "pitch": 107,
              "velocity": 72,
              "position": 11,
              "duration": 0.23541666666666666
            },
            {
              "pitch": 75,
              "velocity": 33,
              "position": 11.03125,
              "duration": 0.20416666666666666
            },
            {
              "pitch": 70,
              "velocity": 33,
              "position": 11.020833333333334,
              "duration": 0.225
            },
            {
              "pitch": 65,
              "velocity": 33,
              "position": 11.010416666666666,
              "duration": 0.24583333333333332
            },
            {
              "pitch": 105,
              "velocity": 87,
              "position": 11.25,
              "duration": 0.23541666666666666
            },
            {
              "pitch": 65,
              "velocity": 39,
              "position": 11.270833333333334,
              "duration": 0.21458333333333332
            },
            {
              "pitch": 70,
              "velocity": 39,
              "position": 11.260416666666666,
              "duration": 0.23541666666666666
            },
            {
              "pitch": 75,
              "velocity": 39,
              "position": 11.25,
              "duration": 0.25625
            },
            {
              "pitch": 59,
              "velocity": 33,
              "position": 11,
              "duration": 0.50625
            },
            {
              "pitch": 107,
              "velocity": 72,
              "position": 11.5,
              "duration": 0.23541666666666666
            },
            {
              "pitch": 108,
              "velocity": 72,
              "position": 11.75,
              "duration": 0.23541666666666666
            },
            {
              "pitch": 106,
              "velocity": 87,
              "position": 12,
              "duration": 0.23541666666666666
            },
            {
              "pitch": 75,
              "velocity": 39,
              "position": 12.03125,
              "duration": 0.20416666666666666
            },
            {
              "pitch": 70,
              "velocity": 39,
              "position": 12.020833333333334,
              "duration": 0.21458333333333332
            },
            {
              "pitch": 65,
              "velocity": 39,
              "position": 12.010416666666666,
              "duration": 0.23541666666666666
            },
            {
              "pitch": 75,
              "velocity": 20,
              "position": 12.25,
              "duration": 0.11041666666666666
            },
            {
              "pitch": 70,
              "velocity": 20,
              "position": 12.260416666666666,
              "duration": 0.12083333333333333
            },
            {
              "pitch": 65,
              "velocity": 20,
              "position": 12.270833333333334,
              "duration": 0.14166666666666666
            },
            {
              "pitch": 108,
              "velocity": 72,
              "position": 12.25,
              "duration": 0.23541666666666666
            },
            {
              "pitch": 107,
              "velocity": 72,
              "position": 12.5,
              "duration": 0.23541666666666666
            },
            {
              "pitch": 75,
              "velocity": 39,
              "position": 12.75,
              "duration": 0.20416666666666666
            },
            {
              "pitch": 70,
              "velocity": 39,
              "position": 12.760416666666666,
              "duration": 0.21458333333333332
            },
            {
              "pitch": 105,
              "velocity": 87,
              "position": 12.75,
              "duration": 0.23541666666666666
            },
            {
              "pitch": 65,
              "velocity": 39,
              "position": 12.770833333333334,
              "duration": 0.23541666666666666
            },
            {
              "pitch": 59,
              "velocity": 33,
              "position": 12.78125,
              "duration": 0.25625
            },
            {
              "pitch": 107,
              "velocity": 72,
              "position": 13,
              "duration": 0.23541666666666666
            },
            {
              "pitch": 108,
              "velocity": 72,
              "position": 13.25,
              "duration": 0.23541666666666666
            },
            {
              "pitch": 106,
              "velocity": 87,
              "position": 13.5,
              "duration": 0.23541666666666666
            },
            {
              "pitch": 75,
              "velocity": 39,
              "position": 13.53125,
              "duration": 0.20416666666666666
            },
            {
              "pitch": 70,
              "velocity": 39,
              "position": 13.520833333333334,
              "duration": 0.21458333333333332
            },
            {
              "pitch": 65,
              "velocity": 39,
              "position": 13.510416666666666,
              "duration": 0.23541666666666666
            },
            {
              "pitch": 75,
              "velocity": 20,
              "position": 13.75,
              "duration": 0.11041666666666666
            },
            {
              "pitch": 70,
              "velocity": 20,
              "position": 13.760416666666666,
              "duration": 0.12083333333333333
            },
            {
              "pitch": 65,
              "velocity": 20,
              "position": 13.770833333333334,
              "duration": 0.14166666666666666
            },
            {
              "pitch": 108,
              "velocity": 72,
              "position": 13.75,
              "duration": 0.23541666666666666
            },
            {
              "pitch": 107,
              "velocity": 72,
              "position": 14,
              "duration": 0.23541666666666666
            },
            {
              "pitch": 75,
              "velocity": 39,
              "position": 14.25,
              "duration": 0.20416666666666666
            },
            {
              "pitch": 70,
              "velocity": 39,
              "position": 14.260416666666666,
              "duration": 0.21458333333333332
            },
            {
              "pitch": 108,
              "velocity": 72,
              "position": 14.25,
              "duration": 0.23541666666666666
            },
            {
              "pitch": 65,
              "velocity": 39,
              "position": 14.270833333333334,
              "duration": 0.23541666666666666
            },
            {
              "pitch": 59,
              "velocity": 33,
              "position": 14.28125,
              "duration": 0.25625
            },
            {
              "pitch": 106,
              "velocity": 87,
              "position": 14.5,
              "duration": 0.23541666666666666
            },
            {
              "pitch": 108,
              "velocity": 72,
              "position": 14.75,
              "duration": 0.23541666666666666
            },
            {
              "pitch": 107,
              "velocity": 72,
              "position": 15,
              "duration": 0.23541666666666666
            },
            {
              "pitch": 75,
              "velocity": 39,
              "position": 15.03125,
              "duration": 0.20416666666666666
            },
            {
              "pitch": 70,
              "velocity": 39,
              "position": 15.020833333333334,
              "duration": 0.21458333333333332
            },
            {
              "pitch": 65,
              "velocity": 39,
              "position": 15.010416666666666,
              "duration": 0.23541666666666666
            },
            {
              "pitch": 75,
              "velocity": 20,
              "position": 15.25,
              "duration": 0.11041666666666666
            },
            {
              "pitch": 70,
              "velocity": 20,
              "position": 15.260416666666666,
              "duration": 0.12083333333333333
            },
            {
              "pitch": 65,
              "velocity": 20,
              "position": 15.270833333333334,
              "duration": 0.14166666666666666
            },
            {
              "pitch": 105,
              "velocity": 87,
              "position": 15.25,
              "duration": 0.23541666666666666
            },
            {
              "pitch": 107,
              "velocity": 72,
              "position": 15.5,
              "duration": 0.23541666666666666
            },
            {
              "pitch": 108,
              "velocity": 72,
              "position": 15.75,
              "duration": 0.23541666666666666
            },
            {
              "pitch": 75,
              "velocity": 39,
              "position": 15.78125,
              "duration": 0.45416666666666666
            },
            {
              "pitch": 106,
              "velocity": 87,
              "position": 16,
              "duration": 0.23541666666666666
            },
            {
              "pitch": 70,
              "velocity": 39,
              "position": 15.770833333333334,
              "duration": 0.46458333333333335
            },
            {
              "pitch": 66,
              "velocity": 39,
              "position": 15.760416666666666,
              "duration": 0.48541666666666666
            },
            {
              "pitch": 75,
              "velocity": 20,
              "position": 16.25,
              "duration": 0.11041666666666666
            },
            {
              "pitch": 70,
              "velocity": 20,
              "position": 16.260416666666668,
              "duration": 0.12083333333333333
            },
            {
              "pitch": 66,
              "velocity": 20,
              "position": 16.270833333333332,
              "duration": 0.14166666666666666
            },
            {
              "pitch": 108,
              "velocity": 70,
              "position": 16.25,
              "duration": 0.23541666666666666
            },
            {
              "pitch": 107,
              "velocity": 70,
              "position": 16.5,
              "duration": 0.23541666666666666
            },
            {
              "pitch": 75,
              "velocity": 39,
              "position": 16.75,
              "duration": 0.20416666666666666
            },
            {
              "pitch": 70,
              "velocity": 39,
              "position": 16.760416666666668,
              "duration": 0.21458333333333332
            },
            {
              "pitch": 105,
              "velocity": 87,
              "position": 16.75,
              "duration": 0.23541666666666666
            },
            {
              "pitch": 66,
              "velocity": 39,
              "position": 16.770833333333332,
              "duration": 0.23541666666666666
            },
            {
              "pitch": 60,
              "velocity": 33,
              "position": 16.78125,
              "duration": 0.25625
            },
            {
              "pitch": 107,
              "velocity": 70,
              "position": 17,
              "duration": 0.23541666666666666
            },
            {
              "pitch": 108,
              "velocity": 70,
              "position": 17.25,
              "duration": 0.23541666666666666
            },
            {
              "pitch": 106,
              "velocity": 87,
              "position": 17.5,
              "duration": 0.23541666666666666
            },
            {
              "pitch": 75,
              "velocity": 39,
              "position": 17.53125,
              "duration": 0.20416666666666666
            },
            {
              "pitch": 70,
              "velocity": 39,
              "position": 17.520833333333332,
              "duration": 0.21458333333333332
            },
            {
              "pitch": 66,
              "velocity": 39,
              "position": 17.510416666666668,
              "duration": 0.23541666666666666
            },
            {
              "pitch": 60,
              "velocity": 33,
              "position": 17.5,
              "duration": 0.25625
            },
            {
              "pitch": 108,
              "velocity": 70,
              "position": 17.75,
              "duration": 0.23541666666666666
            },
            {
              "pitch": 107,
              "velocity": 70,
              "position": 18,
              "duration": 0.23541666666666666
            },
            {
              "pitch": 108,
              "velocity": 70,
              "position": 18.25,
              "duration": 0.23541666666666666
            },
            {
              "pitch": 106,
              "velocity": 87,
              "position": 18.5,
              "duration": 0.23541666666666666
            },
            {
              "pitch": 70,
              "velocity": 39,
              "position": 18.520833333333332,
              "duration": 0.21458333333333332
            },
            {
              "pitch": 66,
              "velocity": 39,
              "position": 18.510416666666668,
              "duration": 0.23541666666666666
            },
            {
              "pitch": 60,
              "velocity": 33,
              "position": 18.5,
              "duration": 0.25625
            },
            {
              "pitch": 108,
              "velocity": 70,
              "position": 18.75,
              "duration": 0.23541666666666666
            },
            {
              "pitch": 60,
              "velocity": 26,
              "position": 18.770833333333332,
              "duration": 0.21458333333333332
            },
            {
              "pitch": 66,
              "velocity": 26,
              "position": 18.760416666666668,
              "duration": 0.23541666666666666
            },
            {
              "pitch": 70,
              "velocity": 26,
              "position": 18.75,
              "duration": 0.25625
            },
            {
              "pitch": 75,
              "velocity": 39,
              "position": 18.53125,
              "duration": 0.48541666666666666
            },
            {
              "pitch": 107,
              "velocity": 70,
              "position": 19,
              "duration": 0.23541666666666666
            },
            {
              "pitch": 75,
              "velocity": 33,
              "position": 19.03125,
              "duration": 0.20416666666666666
            },
            {
              "pitch": 70,
              "velocity": 33,
              "position": 19.020833333333332,
              "duration": 0.225
            },
            {
              "pitch": 66,
              "velocity": 33,
              "position": 19.010416666666668,
              "duration": 0.24583333333333332
            },
            {
              "pitch": 105,
              "velocity": 87,
              "position": 19.25,
              "duration": 0.23541666666666666
            },
            {
              "pitch": 66,
              "velocity": 39,
              "position": 19.270833333333332,
              "duration": 0.21458333333333332
            },
            {
              "pitch": 70,
              "velocity": 39,
              "position": 19.260416666666668,
              "duration": 0.23541666666666666
            },
            {
              "pitch": 75,
              "velocity": 39,
              "position": 19.25,
              "duration": 0.25625
            },
            {
              "pitch": 60,
              "velocity": 33,
              "position": 19,
              "duration": 0.50625
            },
            {
              "pitch": 107,
              "velocity": 70,
              "position": 19.5,
              "duration": 0.23541666666666666
            },
            {
              "pitch": 108,
              "velocity": 70,
              "position": 19.75,
              "duration": 0.23541666666666666
            },
            {
              "pitch": 106,
              "velocity": 87,
              "position": 20,
              "duration": 0.23541666666666666
            },
            {
              "pitch": 74,
              "velocity": 35,
              "position": 20.03125,
              "duration": 0.20416666666666666
            },
            {
              "pitch": 69,
              "velocity": 35,
              "position": 20.020833333333332,
              "duration": 0.21458333333333332
            },
            {
              "pitch": 65,
              "velocity": 35,
              "position": 20.010416666666668,
              "duration": 0.23541666666666666
            },
            {
              "pitch": 72,
              "velocity": 16,
              "position": 20.25,
              "duration": 0.11041666666666666
            },
            {
              "pitch": 67,
              "velocity": 16,
              "position": 20.260416666666668,
              "duration": 0.12083333333333333
            },
            {
              "pitch": 63,
              "velocity": 16,
              "position": 20.270833333333332,
              "duration": 0.14166666666666666
            },
            {
              "pitch": 108,
              "velocity": 70,
              "position": 20.25,
              "duration": 0.23541666666666666
            },
            {
              "pitch": 107,
              "velocity": 70,
              "position": 20.5,
              "duration": 0.23541666666666666
            },
            {
              "pitch": 72,
              "velocity": 35,
              "position": 20.75,
              "duration": 0.20416666666666666
            },
            {
              "pitch": 67,
              "velocity": 35,
              "position": 20.760416666666668,
              "duration": 0.21458333333333332
            },
            {
              "pitch": 105,
              "velocity": 87,
              "position": 20.75,
              "duration": 0.23541666666666666
            },
            {
              "pitch": 63,
              "velocity": 35,
              "position": 20.770833333333332,
              "duration": 0.23541666666666666
            },
            {
              "pitch": 57,
              "velocity": 29,
              "position": 20.78125,
              "duration": 0.25625
            },
            {
              "pitch": 107,
              "velocity": 70,
              "position": 21,
              "duration": 0.23541666666666666
            },
            {
              "pitch": 108,
              "velocity": 70,
              "position": 21.25,
              "duration": 0.23541666666666666
            },
            {
              "pitch": 106,
              "velocity": 87,
              "position": 21.5,
              "duration": 0.23541666666666666
            },
            {
              "pitch": 72,
              "velocity": 35,
              "position": 21.53125,
              "duration": 0.20416666666666666
            },
            {
              "pitch": 67,
              "velocity": 35,
              "position": 21.520833333333332,
              "duration": 0.21458333333333332
            },
            {
              "pitch": 63,
              "velocity": 35,
              "position": 21.510416666666668,
              "duration": 0.23541666666666666
            },
            {
              "pitch": 57,
              "velocity": 29,
              "position": 21.5,
              "duration": 0.25625
            },
            {
              "pitch": 108,
              "velocity": 70,
              "position": 21.75,
              "duration": 0.23541666666666666
            },
            {
              "pitch": 107,
              "velocity": 70,
              "position": 22,
              "duration": 0.23541666666666666
            },
            {
              "pitch": 108,
              "velocity": 70,
              "position": 22.25,
              "duration": 0.23541666666666666
            },
            {
              "pitch": 106,
              "velocity": 87,
              "position": 22.5,
              "duration": 0.23541666666666666
            },
            {
              "pitch": 67,
              "velocity": 35,
              "position": 22.520833333333332,
              "duration": 0.21458333333333332
            },
            {
              "pitch": 63,
              "velocity": 35,
              "position": 22.510416666666668,
              "duration": 0.23541666666666666
            },
            {
              "pitch": 57,
              "velocity": 29,
              "position": 22.5,
              "duration": 0.25625
            },
            {
              "pitch": 108,
              "velocity": 70,
              "position": 22.75,
              "duration": 0.23541666666666666
            },
            {
              "pitch": 57,
              "velocity": 22,
              "position": 22.770833333333332,
              "duration": 0.21458333333333332
            },
            {
              "pitch": 63,
              "velocity": 22,
              "position": 22.760416666666668,
              "duration": 0.23541666666666666
            },
            {
              "pitch": 67,
              "velocity": 22,
              "position": 22.75,
              "duration": 0.25625
            },
            {
              "pitch": 72,
              "velocity": 35,
              "position": 22.53125,
              "duration": 0.48541666666666666
            },
            {
              "pitch": 107,
              "velocity": 70,
              "position": 23,
              "duration": 0.23541666666666666
            },
            {
              "pitch": 72,
              "velocity": 29,
              "position": 23.03125,
              "duration": 0.20416666666666666
            },
            {
              "pitch": 67,
              "velocity": 29,
              "position": 23.020833333333332,
              "duration": 0.225
            },
            {
              "pitch": 63,
              "velocity": 29,
              "position": 23.010416666666668,
              "duration": 0.24583333333333332
            },
            {
              "pitch": 105,
              "velocity": 87,
              "position": 23.25,
              "duration": 0.23541666666666666
            },
            {
              "pitch": 63,
              "velocity": 35,
              "position": 23.270833333333332,
              "duration": 0.21458333333333332
            },
            {
              "pitch": 67,
              "velocity": 35,
              "position": 23.260416666666668,
              "duration": 0.23541666666666666
            },
            {
              "pitch": 72,
              "velocity": 35,
              "position": 23.25,
              "duration": 0.25625
            },
            {
              "pitch": 57,
              "velocity": 29,
              "position": 23,
              "duration": 0.50625
            },
            {
              "pitch": 107,
              "velocity": 70,
              "position": 23.5,
              "duration": 0.23541666666666666
            },
            {
              "pitch": 108,
              "velocity": 70,
              "position": 23.75,
              "duration": 0.23541666666666666
            },
            {
              "pitch": 106,
              "velocity": 87,
              "position": 24,
              "duration": 0.23541666666666666
            },
            {
              "pitch": 74,
              "velocity": 35,
              "position": 24.03125,
              "duration": 0.20416666666666666
            },
            {
              "pitch": 69,
              "velocity": 35,
              "position": 24.020833333333332,
              "duration": 0.21458333333333332
            },
            {
              "pitch": 65,
              "velocity": 35,
              "position": 24.010416666666668,
              "duration": 0.23541666666666666
            },
            {
              "pitch": 74,
              "velocity": 16,
              "position": 24.25,
              "duration": 0.11041666666666666
            },
            {
              "pitch": 69,
              "velocity": 16,
              "position": 24.260416666666668,
              "duration": 0.12083333333333333
            },
            {
              "pitch": 65,
              "velocity": 16,
              "position": 24.270833333333332,
              "duration": 0.14166666666666666
            },
            {
              "pitch": 108,
              "velocity": 70,
              "position": 24.25,
              "duration": 0.23541666666666666
            },
            {
              "pitch": 107,
              "velocity": 70,
              "position": 24.5,
              "duration": 0.23541666666666666
            },
            {
              "pitch": 74,
              "velocity": 35,
              "position": 24.75,
              "duration": 0.20416666666666666
            },
            {
              "pitch": 69,
              "velocity": 35,
              "position": 24.760416666666668,
              "duration": 0.21458333333333332
            },
            {
              "pitch": 105,
              "velocity": 87,
              "position": 24.75,
              "duration": 0.23541666666666666
            },
            {
              "pitch": 65,
              "velocity": 35,
              "position": 24.770833333333332,
              "duration": 0.23541666666666666
            },
            {
              "pitch": 59,
              "velocity": 29,
              "position": 24.78125,
              "duration": 0.25625
            },
            {
              "pitch": 107,
              "velocity": 70,
              "position": 25,
              "duration": 0.23541666666666666
            },
            {
              "pitch": 108,
              "velocity": 70,
              "position": 25.25,
              "duration": 0.23541666666666666
            },
            {
              "pitch": 106,
              "velocity": 87,
              "position": 25.5,
              "duration": 0.23541666666666666
            },
            {
              "pitch": 74,
              "velocity": 35,
              "position": 25.53125,
              "duration": 0.20416666666666666
            },
            {
              "pitch": 69,
              "velocity": 35,
              "position": 25.520833333333332,
              "duration": 0.21458333333333332
            },
            {
              "pitch": 65,
              "velocity": 35,
              "position": 25.510416666666668,
              "duration": 0.23541666666666666
            },
            {
              "pitch": 59,
              "velocity": 29,
              "position": 25.5,
              "duration": 0.25625
            },
            {
              "pitch": 108,
              "velocity": 70,
              "position": 25.75,
              "duration": 0.23541666666666666
            },
            {
              "pitch": 107,
              "velocity": 70,
              "position": 26,
              "duration": 0.23541666666666666
            },
            {
              "pitch": 108,
              "velocity": 70,
              "position": 26.25,
              "duration": 0.23541666666666666
            },
            {
              "pitch": 74,
              "velocity": 35,
              "position": 26.28125,
              "duration": 0.20416666666666666
            },
            {
              "pitch": 69,
              "velocity": 35,
              "position": 26.270833333333332,
              "duration": 0.21458333333333332
            },
            {
              "pitch": 65,
              "velocity": 35,
              "position": 26.260416666666668,
              "duration": 0.23541666666666666
            },
            {
              "pitch": 59,
              "velocity": 29,
              "position": 26.25,
              "duration": 0.25625
            },
            {
              "pitch": 106,
              "velocity": 87,
              "position": 26.5,
              "duration": 0.23541666666666666
            },
            {
              "pitch": 108,
              "velocity": 70,
              "position": 26.75,
              "duration": 0.23541666666666666
            },
            {
              "pitch": 60,
              "velocity": 29,
              "position": 27,
              "duration": 0.23541666666666666
            },
            {
              "pitch": 107,
              "velocity": 70,
              "position": 27,
              "duration": 0.23541666666666666
            },
            {
              "pitch": 70,
              "velocity": 35,
              "position": 27.020833333333332,
              "duration": 0.21458333333333332
            },
            {
              "pitch": 66,
              "velocity": 35,
              "position": 27.010416666666668,
              "duration": 0.225
            },
            {
              "pitch": 75,
              "velocity": 35,
              "position": 27.03125,
              "duration": 0.45416666666666666
            },
            {
              "pitch": 60,
              "velocity": 22,
              "position": 27.270833333333332,
              "duration": 0.21458333333333332
            },
            {
              "pitch": 105,
              "velocity": 87,
              "position": 27.25,
              "duration": 0.23541666666666666
            },
            {
              "pitch": 66,
              "velocity": 22,
              "position": 27.260416666666668,
              "duration": 0.23541666666666666
            },
            {
              "pitch": 70,
              "velocity": 22,
              "position": 27.25,
              "duration": 0.25625
            },
            {
              "pitch": 107,
              "velocity": 70,
              "position": 27.5,
              "duration": 0.23541666666666666
            },
            {
              "pitch": 108,
              "velocity": 70,
              "position": 27.75,
              "duration": 0.23541666666666666
            },
            {
              "pitch": 106,
              "velocity": 87,
              "position": 28,
              "duration": 0.23541666666666666
            },
            {
              "pitch": 74,
              "velocity": 35,
              "position": 28.03125,
              "duration": 0.20416666666666666
            },
            {
              "pitch": 69,
              "velocity": 35,
              "position": 28.020833333333332,
              "duration": 0.21458333333333332
            },
            {
              "pitch": 65,
              "velocity": 35,
              "position": 28.010416666666668,
              "duration": 0.23541666666666666
            },
            {
              "pitch": 108,
              "velocity": 70,
              "position": 28.25,
              "duration": 0.23541666666666666
            },
            {
              "pitch": 74,
              "velocity": 35,
              "position": 28.5,
              "duration": 0.20416666666666666
            },
            {
              "pitch": 69,
              "velocity": 35,
              "position": 28.510416666666668,
              "duration": 0.21458333333333332
            },
            {
              "pitch": 106,
              "velocity": 87,
              "position": 28.5,
              "duration": 0.23541666666666666
            },
            {
              "pitch": 65,
              "velocity": 35,
              "position": 28.520833333333332,
              "duration": 0.23541666666666666
            },
            {
              "pitch": 59,
              "velocity": 29,
              "position": 28.53125,
              "duration": 0.25625
            },
            {
              "pitch": 108,
              "velocity": 70,
              "position": 28.75,
              "duration": 0.23541666666666666
            },
            {
              "pitch": 106,
              "velocity": 87,
              "position": 29,
              "duration": 0.23541666666666666
            },
            {
              "pitch": 74,
              "velocity": 35,
              "position": 29.03125,
              "duration": 0.20416666666666666
            },
            {
              "pitch": 69,
              "velocity": 35,
              "position": 29.020833333333332,
              "duration": 0.21458333333333332
            },
            {
              "pitch": 65,
              "velocity": 35,
              "position": 29.010416666666668,
              "duration": 0.23541666666666666
            },
            {
              "pitch": 59,
              "velocity": 29,
              "position": 29,
              "duration": 0.25625
            },
            {
              "pitch": 108,
              "velocity": 70,
              "position": 29.25,
              "duration": 0.23541666666666666
            },
            {
              "pitch": 106,
              "velocity": 87,
              "position": 29.5,
              "duration": 0.23541666666666666
            },
            {
              "pitch": 74,
              "velocity": 35,
              "position": 29.53125,
              "duration": 0.20416666666666666
            },
            {
              "pitch": 69,
              "velocity": 35,
              "position": 29.520833333333332,
              "duration": 0.21458333333333332
            },
            {
              "pitch": 65,
              "velocity": 35,
              "position": 29.510416666666668,
              "duration": 0.23541666666666666
            },
            {
              "pitch": 59,
              "velocity": 29,
              "position": 29.5,
              "duration": 0.25625
            },
            {
              "pitch": 108,
              "velocity": 70,
              "position": 29.75,
              "duration": 0.23541666666666666
            },
            {
              "pitch": 106,
              "velocity": 87,
              "position": 30,
              "duration": 0.23541666666666666
            },
            {
              "pitch": 74,
              "velocity": 35,
              "position": 30.03125,
              "duration": 0.45416666666666666
            },
            {
              "pitch": 69,
              "velocity": 35,
              "position": 30.020833333333332,
              "duration": 0.46458333333333335
            },
            {
              "pitch": 65,
              "velocity": 35,
              "position": 30.010416666666668,
              "duration": 0.48541666666666666
            },
            {
              "pitch": 59,
              "velocity": 29,
              "position": 30,
              "duration": 0.50625
            }
          ]
        },
        "12": {
          "ctab": {
            "srcChannel": 12,
            "name": "C2",
            "accType": "CHORD2",
            "editable": false,
            "mutedNotes": [],
            "mutedChords": [
              "dim7",
              "dim",
              "minMaj7(9)",
              "minMaj7",
              "min7(11)",
              "min7(9)",
              "min(9)",
              "m7b5",
              "min7",
              "min6",
              "min"
            ],
            "autoStart": false,
            "sourceChordNote": 0,
            "sourceChordType": "Maj",
            "ctb2Low": null,
            "ctb2Main": {
              "ntr": "ROOT_TRANSPOSITION",
              "ntt": "BYPASS",
              "bassOn": false,
              "chordRootUpperLimit": 8,
              "noteLowLimit": 0,
              "noteHighLimit": 79,
              "rtr": "PITCH_SHIFT"
            },
            "ctb2High": null
          },
          "notes": [
            {
              "pitch": 72,
              "velocity": 70,
              "position": 5.75,
              "duration": 0.09791666666666667
            },
            {
              "pitch": 75,
              "velocity": 101,
              "position": 5.983333333333333,
              "duration": 0.20833333333333334
            },
            {
              "pitch": 76,
              "velocity": 65,
              "position": 6.2375,
              "duration": 0.175
            },
            {
              "pitch": 72,
              "velocity": 77,
              "position": 6.485416666666667,
              "duration": 0.20625
            },
            {
              "pitch": 67,
              "velocity": 67,
              "position": 6.733333333333333,
              "duration": 0.05625
            },
            {
              "pitch": 70,
              "velocity": 99,
              "position": 6.995833333333334,
              "duration": 0.19375
            },
            {
              "pitch": 67,
              "velocity": 66,
              "position": 7.245833333333334,
              "duration": 0.04583333333333333
            },
            {
              "pitch": 68,
              "velocity": 93,
              "position": 7.479166666666667,
              "duration": 0.1
            },
            {
              "pitch": 69,
              "velocity": 100,
              "position": 7.58125,
              "duration": 0.3145833333333333
            },
            {
              "pitch": 72,
              "velocity": 87,
              "position": 10.752083333333333,
              "duration": 0.1125
            },
            {
              "pitch": 78,
              "velocity": 88,
              "position": 10.997916666666667,
              "duration": 0.1625
            },
            {
              "pitch": 79,
              "velocity": 88,
              "position": 11.158333333333333,
              "duration": 0.16041666666666668
            },
            {
              "pitch": 84,
              "velocity": 88,
              "position": 11.022916666666667,
              "duration": 0.325
            },
            {
              "pitch": 78,
              "velocity": 88,
              "position": 11.472916666666666,
              "duration": 0.16041666666666668
            },
            {
              "pitch": 79,
              "velocity": 89,
              "position": 11.610416666666667,
              "duration": 0.28125
            },
            {
              "pitch": 84,
              "velocity": 88,
              "position": 11.495833333333334,
              "duration": 0.4041666666666667
            },
            {
              "pitch": 72,
              "velocity": 66,
              "position": 13.852083333333333,
              "duration": 0.06041666666666667
            },
            {
              "pitch": 77,
              "velocity": 108,
              "position": 14,
              "duration": 0.13541666666666666
            },
            {
              "pitch": 79,
              "velocity": 87,
              "position": 14.160416666666666,
              "duration": 0.12916666666666668
            },
            {
              "pitch": 77,
              "velocity": 66,
              "position": 14.266666666666667,
              "duration": 0.10416666666666667
            },
            {
              "pitch": 75,
              "velocity": 86,
              "position": 14.358333333333333,
              "duration": 0.07916666666666666
            },
            {
              "pitch": 72,
              "velocity": 87,
              "position": 14.510416666666666,
              "duration": 0.24791666666666667
            },
            {
              "pitch": 70,
              "velocity": 101,
              "position": 14.75,
              "duration": 0.15416666666666667
            },
            {
              "pitch": 67,
              "velocity": 92,
              "position": 15,
              "duration": 0.15625
            },
            {
              "pitch": 65,
              "velocity": 94,
              "position": 15.25,
              "duration": 0.20208333333333334
            },
            {
              "pitch": 63,
              "velocity": 94,
              "position": 15.5,
              "duration": 0.2520833333333333
            },
            {
              "pitch": 67,
              "velocity": 55,
              "position": 15.770833333333334,
              "duration": 0.0875
            },
            {
              "pitch": 69,
              "velocity": 71,
              "position": 15.785416666666666,
              "duration": 0.12291666666666666
            },
            {
              "pitch": 71,
              "velocity": 92,
              "position": 15.829166666666667,
              "duration": 0.10416666666666667
            },
            {
              "pitch": 72,
              "velocity": 95,
              "position": 15.889583333333333,
              "duration": 0.04791666666666667
            },
            {
              "pitch": 74,
              "velocity": 68,
              "position": 15.941666666666666,
              "duration": 0.041666666666666664
            },
            {
              "pitch": 80,
              "velocity": 122,
              "position": 15.7875,
              "duration": 3.90625
            },
            {
              "pitch": 81,
              "velocity": 105,
              "position": 19.75,
              "duration": 0.475
            },
            {
              "pitch": 79,
              "velocity": 79,
              "position": 20.275,
              "duration": 0.07083333333333333
            },
            {
              "pitch": 77,
              "velocity": 78,
              "position": 20.34375,
              "duration": 0.058333333333333334
            },
            {
              "pitch": 68,
              "velocity": 82,
              "position": 27.5,
              "duration": 0.016666666666666666
            },
            {
              "pitch": 67,
              "velocity": 82,
              "position": 27.5,
              "duration": 0.020833333333333332
            },
            {
              "pitch": 60,
              "velocity": 82,
              "position": 27.5,
              "duration": 0.027083333333333334
            },
            {
              "pitch": 71,
              "velocity": 82,
              "position": 27.5,
              "duration": 0.041666666666666664
            },
            {
              "pitch": 63,
              "velocity": 82,
              "position": 27.5,
              "duration": 0.04583333333333333
            },
            {
              "pitch": 61,
              "velocity": 82,
              "position": 27.5,
              "duration": 0.04791666666666667
            },
            {
              "pitch": 66,
              "velocity": 82,
              "position": 27.5,
              "duration": 0.04791666666666667
            },
            {
              "pitch": 70,
              "velocity": 82,
              "position": 27.5,
              "duration": 0.05
            },
            {
              "pitch": 64,
              "velocity": 82,
              "position": 27.5,
              "duration": 0.06041666666666667
            },
            {
              "pitch": 69,
              "velocity": 82,
              "position": 27.5,
              "duration": 0.06041666666666667
            },
            {
              "pitch": 62,
              "velocity": 82,
              "position": 27.5,
              "duration": 0.06458333333333334
            },
            {
              "pitch": 65,
              "velocity": 82,
              "position": 27.5,
              "duration": 0.06875
            },
            {
              "pitch": 50,
              "velocity": 68,
              "position": 27.75,
              "duration": 0.041666666666666664
            },
            {
              "pitch": 59,
              "velocity": 68,
              "position": 27.75,
              "duration": 0.041666666666666664
            },
            {
              "pitch": 53,
              "velocity": 68,
              "position": 27.75,
              "duration": 0.041666666666666664
            },
            {
              "pitch": 55,
              "velocity": 68,
              "position": 27.75,
              "duration": 0.04791666666666667
            },
            {
              "pitch": 54,
              "velocity": 68,
              "position": 27.75,
              "duration": 0.05
            },
            {
              "pitch": 57,
              "velocity": 68,
              "position": 27.75,
              "duration": 0.06458333333333334
            },
            {
              "pitch": 51,
              "velocity": 68,
              "position": 27.75,
              "duration": 0.06458333333333334
            },
            {
              "pitch": 65,
              "velocity": 64,
              "position": 28,
              "duration": 0.0625
            },
            {
              "pitch": 72,
              "velocity": 122,
              "position": 28,
              "duration": 0.22708333333333333
            },
            {
              "pitch": 76,
              "velocity": 124,
              "position": 28,
              "duration": 0.23333333333333334
            },
            {
              "pitch": 69,
              "velocity": 122,
              "position": 28,
              "duration": 0.23333333333333334
            },
            {
              "pitch": 79,
              "velocity": 108,
              "position": 28,
              "duration": 0.23958333333333334
            },
            {
              "pitch": 72,
              "velocity": 114,
              "position": 28.5,
              "duration": 0.19583333333333333
            },
            {
              "pitch": 65,
              "velocity": 116,
              "position": 28.5,
              "duration": 0.19791666666666666
            },
            {
              "pitch": 76,
              "velocity": 92,
              "position": 28.5,
              "duration": 0.20833333333333334
            },
            {
              "pitch": 69,
              "velocity": 105,
              "position": 28.5,
              "duration": 0.20833333333333334
            },
            {
              "pitch": 79,
              "velocity": 97,
              "position": 28.5,
              "duration": 0.22916666666666666
            },
            {
              "pitch": 65,
              "velocity": 114,
              "position": 29,
              "duration": 0.20208333333333334
            },
            {
              "pitch": 69,
              "velocity": 105,
              "position": 29,
              "duration": 0.20833333333333334
            },
            {
              "pitch": 72,
              "velocity": 114,
              "position": 29,
              "duration": 0.21666666666666667
            },
            {
              "pitch": 76,
              "velocity": 111,
              "position": 29,
              "duration": 0.23125
            },
            {
              "pitch": 79,
              "velocity": 94,
              "position": 29,
              "duration": 0.23333333333333334
            },
            {
              "pitch": 65,
              "velocity": 118,
              "position": 29.5,
              "duration": 0.19375
            },
            {
              "pitch": 69,
              "velocity": 114,
              "position": 29.5,
              "duration": 0.19375
            },
            {
              "pitch": 72,
              "velocity": 116,
              "position": 29.5,
              "duration": 0.2
            },
            {
              "pitch": 79,
              "velocity": 96,
              "position": 29.5,
              "duration": 0.20208333333333334
            },
            {
              "pitch": 76,
              "velocity": 122,
              "position": 29.5,
              "duration": 0.21458333333333332
            },
            {
              "pitch": 65,
              "velocity": 105,
              "position": 30,
              "duration": 0.26458333333333334
            },
            {
              "pitch": 79,
              "velocity": 122,
              "position": 30,
              "duration": 0.30625
            },
            {
              "pitch": 76,
              "velocity": 122,
              "position": 30,
              "duration": 0.30625
            },
            {
              "pitch": 72,
              "velocity": 122,
              "position": 30,
              "duration": 0.35833333333333334
            },
            {
              "pitch": 69,
              "velocity": 125,
              "position": 30,
              "duration": 0.4083333333333333
            },
            {
              "pitch": 71,
              "velocity": 63,
              "position": 30.366666666666667,
              "duration": 0.058333333333333334
            },
            {
              "pitch": 67,
              "velocity": 108,
              "position": 30.422916666666666,
              "duration": 0.04791666666666667
            },
            {
              "pitch": 65,
              "velocity": 108,
              "position": 30.441666666666666,
              "duration": 0.04791666666666667
            },
            {
              "pitch": 64,
              "velocity": 114,
              "position": 30.4625,
              "duration": 0.052083333333333336
            },
            {
              "pitch": 60,
              "velocity": 94,
              "position": 30.5,
              "duration": 0.022916666666666665
            },
            {
              "pitch": 62,
              "velocity": 99,
              "position": 30.48125,
              "duration": 0.041666666666666664
            },
            {
              "pitch": 59,
              "velocity": 103,
              "position": 30.51875,
              "duration": 0.020833333333333332
            },
            {
              "pitch": 57,
              "velocity": 93,
              "position": 30.539583333333333,
              "duration": 0.0375
            }
          ]
        },
        "13": {
          "ctab": {
            "srcChannel": 13,
            "name": "Pad",
            "accType": "PAD",
            "editable": false,
            "mutedNotes": [],
            "mutedChords": [
              "dim7",
              "dim",
              "minMaj7(9)",
              "minMaj7",
              "min7(11)",
              "min7(9)",
              "min(9)",
              "m7b5",
              "min7",
              "min6",
              "min"
            ],
            "autoStart": false,
            "sourceChordNote": 0,
            "sourceChordType": "Maj",
            "ctb2Low": null,
            "ctb2Main": {
              "ntr": "ROOT_TRANSPOSITION",
              "ntt": "BYPASS",
              "bassOn": false,
              "chordRootUpperLimit": 3,
              "noteLowLimit": 0,
              "noteHighLimit": 79,
              "rtr": "PITCH_SHIFT"
            },
            "ctb2High": null
          },
          "notes": [
            {
              "pitch": 63,
              "velocity": 82,
              "position": 19.25,
              "duration": 0.23541666666666666
            },
            {
              "pitch": 67,
              "velocity": 87,
              "position": 19.25,
              "duration": 0.23541666666666666
            },
            {
              "pitch": 64,
              "velocity": 82,
              "position": 19.5,
              "duration": 0.23541666666666666
            },
            {
              "pitch": 68,
              "velocity": 87,
              "position": 19.5,
              "duration": 0.23541666666666666
            },
            {
              "pitch": 65,
              "velocity": 85,
              "position": 19.75,
              "duration": 0.23541666666666666
            },
            {
              "pitch": 69,
              "velocity": 90,
              "position": 19.75,
              "duration": 0.23541666666666666
            },
            {
              "pitch": 79,
              "velocity": 82,
              "position": 20.489583333333332,
              "duration": 0.17291666666666666
            },
            {
              "pitch": 75,
              "velocity": 87,
              "position": 20.5,
              "duration": 0.18333333333333332
            },
            {
              "pitch": 77,
              "velocity": 82,
              "position": 20.989583333333332,
              "duration": 0.23541666666666666
            },
            {
              "pitch": 74,
              "velocity": 87,
              "position": 20.989583333333332,
              "duration": 0.24583333333333332
            },
            {
              "pitch": 75,
              "velocity": 84,
              "position": 21.239583333333332,
              "duration": 0.19375
            },
            {
              "pitch": 72,
              "velocity": 88,
              "position": 21.25,
              "duration": 0.18333333333333332
            },
            {
              "pitch": 74,
              "velocity": 81,
              "position": 24.489583333333332,
              "duration": 0.18333333333333332
            },
            {
              "pitch": 79,
              "velocity": 85,
              "position": 24.5,
              "duration": 0.19375
            },
            {
              "pitch": 74,
              "velocity": 81,
              "position": 25.25,
              "duration": 0.18333333333333332
            },
            {
              "pitch": 79,
              "velocity": 85,
              "position": 25.25,
              "duration": 0.19375
            },
            {
              "pitch": 74,
              "velocity": 81,
              "position": 25.989583333333332,
              "duration": 0.19375
            },
            {
              "pitch": 79,
              "velocity": 85,
              "position": 25.989583333333332,
              "duration": 0.19375
            },
            {
              "pitch": 74,
              "velocity": 81,
              "position": 27.989583333333332,
              "duration": 0.18333333333333332
            },
            {
              "pitch": 79,
              "velocity": 85,
              "position": 28,
              "duration": 0.19375
            },
            {
              "pitch": 74,
              "velocity": 81,
              "position": 28.5,
              "duration": 0.18333333333333332
            },
            {
              "pitch": 79,
              "velocity": 85,
              "position": 28.5,
              "duration": 0.19375
            },
            {
              "pitch": 74,
              "velocity": 81,
              "position": 28.989583333333332,
              "duration": 0.19375
            },
            {
              "pitch": 79,
              "velocity": 85,
              "position": 28.989583333333332,
              "duration": 0.19375
            },
            {
              "pitch": 74,
              "velocity": 81,
              "position": 29.5,
              "duration": 0.18333333333333332
            },
            {
              "pitch": 79,
              "velocity": 85,
              "position": 29.5,
              "duration": 0.19375
            },
            {
              "pitch": 74,
              "velocity": 81,
              "position": 29.989583333333332,
              "duration": 0.31875
            },
            {
              "pitch": 79,
              "velocity": 87,
              "position": 30,
              "duration": 0.31875
            }
          ]
        },
        "14": {
          "ctab": {
            "srcChannel": 14,
            "name": "P1",
            "accType": "PHRASE1",
            "editable": false,
            "mutedNotes": [],
            "mutedChords": [
              "dim7",
              "dim",
              "minMaj7(9)",
              "minMaj7",
              "min7(11)",
              "min7(9)",
              "min(9)",
              "m7b5",
              "min7",
              "min6",
              "min"
            ],
            "autoStart": false,
            "sourceChordNote": 0,
            "sourceChordType": "Maj",
            "ctb2Low": null,
            "ctb2Main": {
              "ntr": "ROOT_TRANSPOSITION",
              "ntt": "BYPASS",
              "bassOn": false,
              "chordRootUpperLimit": 2,
              "noteLowLimit": 0,
              "noteHighLimit": 127,
              "rtr": "PITCH_SHIFT"
            },
            "ctb2High": null
          },
          "notes": [
            {
              "pitch": 66,
              "velocity": 120,
              "position": 15.75,
              "duration": 3.245833333333333
            },
            {
              "pitch": 70,
              "velocity": 120,
              "position": 15.75,
              "duration": 3.245833333333333
            },
            {
              "pitch": 63,
              "velocity": 60,
              "position": 19.28125,
              "duration": 0.23541666666666666
            },
            {
              "pitch": 67,
              "velocity": 60,
              "position": 19.28125,
              "duration": 0.23541666666666666
            },
            {
              "pitch": 64,
              "velocity": 81,
              "position": 19.53125,
              "duration": 0.23541666666666666
            },
            {
              "pitch": 68,
              "velocity": 81,
              "position": 19.53125,
              "duration": 0.23541666666666666
            },
            {
              "pitch": 65,
              "velocity": 101,
              "position": 19.78125,
              "duration": 0.23541666666666666
            },
            {
              "pitch": 69,
              "velocity": 101,
              "position": 19.78125,
              "duration": 0.23541666666666666
            },
            {
              "pitch": 70,
              "velocity": 40,
              "position": 20.5,
              "duration": 0.18333333333333332
            },
            {
              "pitch": 63,
              "velocity": 101,
              "position": 20.53125,
              "duration": 0.19375
            },
            {
              "pitch": 62,
              "velocity": 92,
              "position": 21,
              "duration": 0.225
            },
            {
              "pitch": 69,
              "velocity": 39,
              "position": 21,
              "duration": 0.23541666666666666
            },
            {
              "pitch": 60,
              "velocity": 101,
              "position": 21.239583333333332,
              "duration": 0.1625
            },
            {
              "pitch": 67,
              "velocity": 36,
              "position": 21.25,
              "duration": 0.17291666666666666
            },
            {
              "pitch": 69,
              "velocity": 125,
              "position": 24.489583333333332,
              "duration": 0.17291666666666666
            },
            {
              "pitch": 65,
              "velocity": 117,
              "position": 24.489583333333332,
              "duration": 0.18333333333333332
            },
            {
              "pitch": 69,
              "velocity": 115,
              "position": 25.25,
              "duration": 0.1625
            },
            {
              "pitch": 65,
              "velocity": 127,
              "position": 25.25,
              "duration": 0.18333333333333332
            },
            {
              "pitch": 65,
              "velocity": 123,
              "position": 26,
              "duration": 0.17291666666666666
            },
            {
              "pitch": 69,
              "velocity": 124,
              "position": 25.989583333333332,
              "duration": 0.19375
            },
            {
              "pitch": 66,
              "velocity": 106,
              "position": 27,
              "duration": 0.9229166666666667
            },
            {
              "pitch": 70,
              "velocity": 106,
              "position": 26.989583333333332,
              "duration": 0.94375
            },
            {
              "pitch": 69,
              "velocity": 125,
              "position": 27.989583333333332,
              "duration": 0.17291666666666666
            },
            {
              "pitch": 65,
              "velocity": 117,
              "position": 27.989583333333332,
              "duration": 0.18333333333333332
            },
            {
              "pitch": 69,
              "velocity": 115,
              "position": 28.5,
              "duration": 0.1625
            },
            {
              "pitch": 65,
              "velocity": 127,
              "position": 28.5,
              "duration": 0.18333333333333332
            },
            {
              "pitch": 65,
              "velocity": 123,
              "position": 29,
              "duration": 0.17291666666666666
            },
            {
              "pitch": 69,
              "velocity": 124,
              "position": 28.989583333333332,
              "duration": 0.19375
            },
            {
              "pitch": 65,
              "velocity": 123,
              "position": 29.5,
              "duration": 0.17291666666666666
            },
            {
              "pitch": 69,
              "velocity": 124,
              "position": 29.489583333333332,
              "duration": 0.19375
            },
            {
              "pitch": 65,
              "velocity": 123,
              "position": 30,
              "duration": 0.29791666666666666
            },
            {
              "pitch": 69,
              "velocity": 124,
              "position": 29.989583333333332,
              "duration": 0.31875
            }
          ]
        },
        "15": {
          "ctab": {
            "srcChannel": 15,
            "name": "P2",
            "accType": "PHRASE2",
            "editable": false,
            "mutedNotes": [],
            "mutedChords": [
              "dim7",
              "dim",
              "minMaj7(9)",
              "minMaj7",
              "min7(11)",
              "min7(9)",
              "min(9)",
              "m7b5",
              "min7",
              "min6",
              "min"
            ],
            "autoStart": false,
            "sourceChordNote": 0,
            "sourceChordType": "Maj",
            "ctb2Low": null,
            "ctb2Main": {
              "ntr": "ROOT_TRANSPOSITION",
              "ntt": "BYPASS",
              "bassOn": false,
              "chordRootUpperLimit": 2,
              "noteLowLimit": 33,
              "noteHighLimit": 127,
              "rtr": "PITCH_SHIFT"
            },
            "ctb2High": null
          },
          "notes": [
            {
              "pitch": 60,
              "velocity": 65,
              "position": 15.75,
              "duration": 3.183333333333333
            },
            {
              "pitch": 27,
              "velocity": 120,
              "position": 19.239583333333332,
              "duration": 0.23541666666666666
            },
            {
              "pitch": 28,
              "velocity": 120,
              "position": 19.489583333333332,
              "duration": 0.23541666666666666
            },
            {
              "pitch": 29,
              "velocity": 120,
              "position": 19.739583333333332,
              "duration": 0.1625
            },
            {
              "pitch": 29,
              "velocity": 120,
              "position": 20.239583333333332,
              "duration": 0.1625
            },
            {
              "pitch": 67,
              "velocity": 92,
              "position": 20.5,
              "duration": 0.18333333333333332
            },
            {
              "pitch": 65,
              "velocity": 89,
              "position": 21,
              "duration": 0.23541666666666666
            },
            {
              "pitch": 63,
              "velocity": 85,
              "position": 21.25,
              "duration": 0.17291666666666666
            },
            {
              "pitch": 29,
              "velocity": 120,
              "position": 21.489583333333332,
              "duration": 0.1625
            },
            {
              "pitch": 59,
              "velocity": 89,
              "position": 24.489583333333332,
              "duration": 0.17291666666666666
            },
            {
              "pitch": 31,
              "velocity": 120,
              "position": 24.739583333333332,
              "duration": 0.1625
            },
            {
              "pitch": 59,
              "velocity": 92,
              "position": 25.239583333333332,
              "duration": 0.18333333333333332
            },
            {
              "pitch": 31,
              "velocity": 115,
              "position": 25.5,
              "duration": 0.1625
            },
            {
              "pitch": 59,
              "velocity": 88,
              "position": 26,
              "duration": 0.18333333333333332
            },
            {
              "pitch": 60,
              "velocity": 88,
              "position": 27,
              "duration": 0.9333333333333333
            },
            {
              "pitch": 59,
              "velocity": 89,
              "position": 27.989583333333332,
              "duration": 0.17291666666666666
            },
            {
              "pitch": 59,
              "velocity": 89,
              "position": 28.489583333333332,
              "duration": 0.17291666666666666
            },
            {
              "pitch": 59,
              "velocity": 89,
              "position": 28.989583333333332,
              "duration": 0.17291666666666666
            },
            {
              "pitch": 59,
              "velocity": 89,
              "position": 29.489583333333332,
              "duration": 0.17291666666666666
            },
            {
              "pitch": 59,
              "velocity": 89,
              "position": 29.989583333333332,
              "duration": 0.29791666666666666
            }
          ]
        }
      }
    },
    "Ending_B": {
      "type": "Ending_B",
      "sizeInBeats": 8,
      "channels": {
        "1": {
          "ctab": {
            "srcChannel": 1,
            "name": "Bass",
            "accType": "BASS",
            "editable": false,
            "mutedNotes": [],
            "mutedChords": [
              "1+2+5",
              "sus4",
              "1+5",
              "1+8",
              "7aug",
              "Maj7aug",
              "7(#9)",
              "7(b13)",
              "7(b9)",
              "7(13)",
              "7#11",
              "7(9)",
              "7b5",
              "7sus4",
              "7th",
              "aug",
              "Maj6(9)",
              "Maj7(9)",
              "Maj(9)",
              "Maj7#11",
              "Maj7",
              "Maj6",
              "Maj"
            ],
            "autoStart": false,
            "sourceChordNote": 0,
            "sourceChordType": "min",
            "ctb2Low": null,
            "ctb2Main": {
              "ntr": "ROOT_TRANSPOSITION",
              "ntt": "BYPASS",
              "bassOn": false,
              "chordRootUpperLimit": 8,
              "noteLowLimit": 28,
              "noteHighLimit": 127,
              "rtr": "PITCH_SHIFT"
            },
            "ctb2High": null
          },
          "notes": [
            {
              "pitch": 34,
              "velocity": 80,
              "position": 0,
              "duration": 0.23541666666666666
            },
            {
              "pitch": 33,
              "velocity": 80,
              "position": 0.75,
              "duration": 0.23541666666666666
            },
            {
              "pitch": 32,
              "velocity": 80,
              "position": 1.5,
              "duration": 0.23541666666666666
            },
            {
              "pitch": 31,
              "velocity": 80,
              "position": 2.25,
              "duration": 0.23541666666666666
            },
            {
              "pitch": 34,
              "velocity": 80,
              "position": 3,
              "duration": 0.48541666666666666
            },
            {
              "pitch": 35,
              "velocity": 60,
              "position": 3.5,
              "duration": 0.48541666666666666
            },
            {
              "pitch": 36,
              "velocity": 80,
              "position": 4,
              "duration": 0.48541666666666666
            }
          ]
        },
        "2": {
          "ctab": {
            "srcChannel": 2,
            "name": "C1",
            "accType": "CHORD1",
            "editable": false,
            "mutedNotes": [],
            "mutedChords": [
              "1+2+5",
              "sus4",
              "1+5",
              "1+8",
              "7aug",
              "Maj7aug",
              "7(#9)",
              "7(b13)",
              "7(b9)",
              "7(13)",
              "7#11",
              "7(9)",
              "7b5",
              "7sus4",
              "7th",
              "aug",
              "Maj6(9)",
              "Maj7(9)",
              "Maj(9)",
              "Maj7#11",
              "Maj7",
              "Maj6",
              "Maj"
            ],
            "autoStart": false,
            "sourceChordNote": 0,
            "sourceChordType": "min",
            "ctb2Low": null,
            "ctb2Main": {
              "ntr": "ROOT_TRANSPOSITION",
              "ntt": "BYPASS",
              "bassOn": false,
              "chordRootUpperLimit": 6,
              "noteLowLimit": 0,
              "noteHighLimit": 79,
              "rtr": "PITCH_SHIFT"
            },
            "ctb2High": null
          },
          "notes": [
            {
              "pitch": 106,
              "velocity": 80,
              "position": 0,
              "duration": 0.23541666666666666
            },
            {
              "pitch": 66,
              "velocity": 35,
              "position": 0.020833333333333332,
              "duration": 0.21458333333333332
            },
            {
              "pitch": 62,
              "velocity": 35,
              "position": 0.010416666666666666,
              "duration": 0.23541666666666666
            },
            {
              "pitch": 56,
              "velocity": 35,
              "position": 0,
              "duration": 0.25625
            },
            {
              "pitch": 73,
              "velocity": 35,
              "position": 0.03125,
              "duration": 0.23541666666666666
            },
            {
              "pitch": 105,
              "velocity": 31,
              "position": 0.25,
              "duration": 0.23541666666666666
            },
            {
              "pitch": 104,
              "velocity": 31,
              "position": 0.5,
              "duration": 0.23541666666666666
            },
            {
              "pitch": 108,
              "velocity": 80,
              "position": 0.75,
              "duration": 0.23541666666666666
            },
            {
              "pitch": 65,
              "velocity": 35,
              "position": 0.7708333333333334,
              "duration": 0.21458333333333332
            },
            {
              "pitch": 61,
              "velocity": 35,
              "position": 0.7604166666666666,
              "duration": 0.23541666666666666
            },
            {
              "pitch": 55,
              "velocity": 35,
              "position": 0.75,
              "duration": 0.25625
            },
            {
              "pitch": 72,
              "velocity": 35,
              "position": 0.78125,
              "duration": 0.23541666666666666
            },
            {
              "pitch": 105,
              "velocity": 31,
              "position": 1,
              "duration": 0.23541666666666666
            },
            {
              "pitch": 104,
              "velocity": 31,
              "position": 1.25,
              "duration": 0.23541666666666666
            },
            {
              "pitch": 106,
              "velocity": 80,
              "position": 1.5,
              "duration": 0.23541666666666666
            },
            {
              "pitch": 64,
              "velocity": 35,
              "position": 1.5208333333333333,
              "duration": 0.21458333333333332
            },
            {
              "pitch": 60,
              "velocity": 35,
              "position": 1.5104166666666667,
              "duration": 0.23541666666666666
            },
            {
              "pitch": 54,
              "velocity": 35,
              "position": 1.5,
              "duration": 0.25625
            },
            {
              "pitch": 71,
              "velocity": 35,
              "position": 1.53125,
              "duration": 0.23541666666666666
            },
            {
              "pitch": 105,
              "velocity": 31,
              "position": 1.75,
              "duration": 0.23541666666666666
            },
            {
              "pitch": 104,
              "velocity": 31,
              "position": 2,
              "duration": 0.23541666666666666
            },
            {
              "pitch": 108,
              "velocity": 80,
              "position": 2.25,
              "duration": 0.23541666666666666
            },
            {
              "pitch": 63,
              "velocity": 35,
              "position": 2.2708333333333335,
              "duration": 0.21458333333333332
            },
            {
              "pitch": 59,
              "velocity": 35,
              "position": 2.2604166666666665,
              "duration": 0.23541666666666666
            },
            {
              "pitch": 53,
              "velocity": 35,
              "position": 2.25,
              "duration": 0.25625
            },
            {
              "pitch": 70,
              "velocity": 35,
              "position": 2.28125,
              "duration": 0.23541666666666666
            },
            {
              "pitch": 105,
              "velocity": 31,
              "position": 2.5,
              "duration": 0.23541666666666666
            },
            {
              "pitch": 104,
              "velocity": 31,
              "position": 2.75,
              "duration": 0.23541666666666666
            },
            {
              "pitch": 106,
              "velocity": 80,
              "position": 3,
              "duration": 0.23541666666666666
            },
            {
              "pitch": 70,
              "velocity": 35,
              "position": 3.03125,
              "duration": 0.45416666666666666
            },
            {
              "pitch": 65,
              "velocity": 35,
              "position": 3.0208333333333335,
              "duration": 0.46458333333333335
            },
            {
              "pitch": 61,
              "velocity": 35,
              "position": 3.0104166666666665,
              "duration": 0.475
            },
            {
              "pitch": 56,
              "velocity": 35,
              "position": 3,
              "duration": 0.48541666666666666
            },
            {
              "pitch": 107,
              "velocity": 80,
              "position": 3.5,
              "duration": 0.23541666666666666
            },
            {
              "pitch": 71,
              "velocity": 35,
              "position": 3.53125,
              "duration": 0.45416666666666666
            },
            {
              "pitch": 66,
              "velocity": 35,
              "position": 3.5208333333333335,
              "duration": 0.46458333333333335
            },
            {
              "pitch": 62,
              "velocity": 35,
              "position": 3.5104166666666665,
              "duration": 0.475
            },
            {
              "pitch": 57,
              "velocity": 35,
              "position": 3.5,
              "duration": 0.48541666666666666
            },
            {
              "pitch": 106,
              "velocity": 80,
              "position": 4,
              "duration": 0.23541666666666666
            },
            {
              "pitch": 58,
              "velocity": 35,
              "position": 4,
              "duration": 0.48541666666666666
            },
            {
              "pitch": 63,
              "velocity": 35,
              "position": 4.010416666666667,
              "duration": 0.48541666666666666
            },
            {
              "pitch": 67,
              "velocity": 35,
              "position": 4.020833333333333,
              "duration": 0.48541666666666666
            },
            {
              "pitch": 72,
              "velocity": 35,
              "position": 4.03125,
              "duration": 0.48541666666666666
            },
            {
              "pitch": 66,
              "velocity": 100,
              "position": 4.5,
              "duration": 0.07916666666666666
            },
            {
              "pitch": 62,
              "velocity": 100,
              "position": 4.5,
              "duration": 0.07916666666666666
            },
            {
              "pitch": 71,
              "velocity": 100,
              "position": 4.5,
              "duration": 0.07916666666666666
            },
            {
              "pitch": 61,
              "velocity": 100,
              "position": 4.583333333333333,
              "duration": 0.07916666666666666
            },
            {
              "pitch": 70,
              "velocity": 100,
              "position": 4.583333333333333,
              "duration": 0.07916666666666666
            },
            {
              "pitch": 65,
              "velocity": 100,
              "position": 4.583333333333333,
              "duration": 0.07916666666666666
            },
            {
              "pitch": 60,
              "velocity": 100,
              "position": 4.666666666666667,
              "duration": 0.07916666666666666
            },
            {
              "pitch": 69,
              "velocity": 100,
              "position": 4.666666666666667,
              "duration": 0.07916666666666666
            },
            {
              "pitch": 64,
              "velocity": 100,
              "position": 4.666666666666667,
              "duration": 0.07916666666666666
            },
            {
              "pitch": 59,
              "velocity": 100,
              "position": 4.75,
              "duration": 0.058333333333333334
            },
            {
              "pitch": 68,
              "velocity": 100,
              "position": 4.75,
              "duration": 0.058333333333333334
            },
            {
              "pitch": 63,
              "velocity": 100,
              "position": 4.75,
              "duration": 0.058333333333333334
            },
            {
              "pitch": 58,
              "velocity": 100,
              "position": 4.8125,
              "duration": 0.058333333333333334
            },
            {
              "pitch": 67,
              "velocity": 100,
              "position": 4.8125,
              "duration": 0.058333333333333334
            },
            {
              "pitch": 62,
              "velocity": 100,
              "position": 4.8125,
              "duration": 0.058333333333333334
            },
            {
              "pitch": 57,
              "velocity": 100,
              "position": 4.875,
              "duration": 0.0375
            },
            {
              "pitch": 66,
              "velocity": 100,
              "position": 4.875,
              "duration": 0.0375
            },
            {
              "pitch": 61,
              "velocity": 100,
              "position": 4.875,
              "duration": 0.0375
            },
            {
              "pitch": 56,
              "velocity": 100,
              "position": 4.916666666666667,
              "duration": 0.0375
            },
            {
              "pitch": 65,
              "velocity": 100,
              "position": 4.916666666666667,
              "duration": 0.0375
            },
            {
              "pitch": 60,
              "velocity": 100,
              "position": 4.916666666666667,
              "duration": 0.0375
            },
            {
              "pitch": 55,
              "velocity": 100,
              "position": 4.958333333333333,
              "duration": 0.016666666666666666
            },
            {
              "pitch": 64,
              "velocity": 100,
              "position": 4.958333333333333,
              "duration": 0.016666666666666666
            },
            {
              "pitch": 59,
              "velocity": 100,
              "position": 4.958333333333333,
              "duration": 0.016666666666666666
            },
            {
              "pitch": 54,
              "velocity": 100,
              "position": 4.979166666666667,
              "duration": 0.016666666666666666
            },
            {
              "pitch": 63,
              "velocity": 100,
              "position": 4.979166666666667,
              "duration": 0.016666666666666666
            },
            {
              "pitch": 58,
              "velocity": 100,
              "position": 4.979166666666667,
              "duration": 0.016666666666666666
            },
            {
              "pitch": 53,
              "velocity": 100,
              "position": 5,
              "duration": 0.016666666666666666
            },
            {
              "pitch": 62,
              "velocity": 100,
              "position": 5,
              "duration": 0.016666666666666666
            },
            {
              "pitch": 57,
              "velocity": 100,
              "position": 5,
              "duration": 0.016666666666666666
            },
            {
              "pitch": 52,
              "velocity": 100,
              "position": 5.020833333333333,
              "duration": 0.00625
            },
            {
              "pitch": 61,
              "velocity": 100,
              "position": 5.020833333333333,
              "duration": 0.00625
            },
            {
              "pitch": 56,
              "velocity": 100,
              "position": 5.020833333333333,
              "duration": 0.00625
            }
          ]
        },
        "3": {
          "ctab": {
            "srcChannel": 3,
            "name": "C2",
            "accType": "CHORD2",
            "editable": false,
            "mutedNotes": [],
            "mutedChords": [
              "1+2+5",
              "sus4",
              "1+5",
              "1+8",
              "7aug",
              "Maj7aug",
              "7(#9)",
              "7(b13)",
              "7(b9)",
              "7(13)",
              "7#11",
              "7(9)",
              "7b5",
              "7sus4",
              "7th",
              "aug",
              "Maj6(9)",
              "Maj7(9)",
              "Maj(9)",
              "Maj7#11",
              "Maj7",
              "Maj6",
              "Maj"
            ],
            "autoStart": false,
            "sourceChordNote": 0,
            "sourceChordType": "min",
            "ctb2Low": null,
            "ctb2Main": {
              "ntr": "ROOT_TRANSPOSITION",
              "ntt": "BYPASS",
              "bassOn": false,
              "chordRootUpperLimit": 8,
              "noteLowLimit": 0,
              "noteHighLimit": 79,
              "rtr": "PITCH_SHIFT"
            },
            "ctb2High": null
          },
          "notes": [
            {
              "pitch": 77,
              "velocity": 99,
              "position": 3.0416666666666665,
              "duration": 0.26458333333333334
            },
            {
              "pitch": 73,
              "velocity": 97,
              "position": 3.04375,
              "duration": 0.30416666666666664
            },
            {
              "pitch": 82,
              "velocity": 99,
              "position": 3.0479166666666666,
              "duration": 0.39166666666666666
            },
            {
              "pitch": 83,
              "velocity": 81,
              "position": 3.5145833333333334,
              "duration": 0.43333333333333335
            },
            {
              "pitch": 78,
              "velocity": 91,
              "position": 3.533333333333333,
              "duration": 0.425
            },
            {
              "pitch": 74,
              "velocity": 93,
              "position": 3.5416666666666665,
              "duration": 0.42083333333333334
            },
            {
              "pitch": 84,
              "velocity": 94,
              "position": 4.033333333333333,
              "duration": 0.49583333333333335
            },
            {
              "pitch": 75,
              "velocity": 91,
              "position": 4.052083333333333,
              "duration": 0.55625
            },
            {
              "pitch": 79,
              "velocity": 94,
              "position": 4.054166666666666,
              "duration": 0.5604166666666667
            },
            {
              "pitch": 76,
              "velocity": 96,
              "position": 4.622916666666667,
              "duration": 0.03333333333333333
            },
            {
              "pitch": 77,
              "velocity": 60,
              "position": 4.560416666666667,
              "duration": 0.10625
            },
            {
              "pitch": 76,
              "velocity": 127,
              "position": 4.6625,
              "duration": 0.0125
            },
            {
              "pitch": 74,
              "velocity": 92,
              "position": 4.658333333333333,
              "duration": 0.029166666666666667
            },
            {
              "pitch": 72,
              "velocity": 71,
              "position": 4.695833333333334,
              "duration": 0.058333333333333334
            }
          ]
        },
        "4": {
          "ctab": {
            "srcChannel": 4,
            "name": "Pad",
            "accType": "PAD",
            "editable": false,
            "mutedNotes": [],
            "mutedChords": [
              "1+2+5",
              "sus4",
              "1+5",
              "1+8",
              "7aug",
              "Maj7aug",
              "7(#9)",
              "7(b13)",
              "7(b9)",
              "7(13)",
              "7#11",
              "7(9)",
              "7b5",
              "7sus4",
              "7th",
              "aug",
              "Maj6(9)",
              "Maj7(9)",
              "Maj(9)",
              "Maj7#11",
              "Maj7",
              "Maj6",
              "Maj"
            ],
            "autoStart": false,
            "sourceChordNote": 0,
            "sourceChordType": "min",
            "ctb2Low": null,
            "ctb2Main": {
              "ntr": "ROOT_TRANSPOSITION",
              "ntt": "BYPASS",
              "bassOn": false,
              "chordRootUpperLimit": 3,
              "noteLowLimit": 0,
              "noteHighLimit": 79,
              "rtr": "PITCH_SHIFT"
            },
            "ctb2High": null
          },
          "notes": [
            {
              "pitch": 78,
              "velocity": 87,
              "position": 0.25,
              "duration": 0.23541666666666666
            },
            {
              "pitch": 73,
              "velocity": 79,
              "position": 0.23958333333333334,
              "duration": 0.25625
            },
            {
              "pitch": 77,
              "velocity": 87,
              "position": 1,
              "duration": 0.23541666666666666
            },
            {
              "pitch": 72,
              "velocity": 79,
              "position": 0.9895833333333334,
              "duration": 0.25625
            },
            {
              "pitch": 76,
              "velocity": 87,
              "position": 1.75,
              "duration": 0.23541666666666666
            },
            {
              "pitch": 71,
              "velocity": 79,
              "position": 1.7395833333333333,
              "duration": 0.25625
            },
            {
              "pitch": 75,
              "velocity": 87,
              "position": 2.5,
              "duration": 0.23541666666666666
            },
            {
              "pitch": 70,
              "velocity": 79,
              "position": 2.4895833333333335,
              "duration": 0.25625
            },
            {
              "pitch": 82,
              "velocity": 87,
              "position": 3,
              "duration": 0.46458333333333335
            },
            {
              "pitch": 77,
              "velocity": 79,
              "position": 2.9895833333333335,
              "duration": 0.48541666666666666
            },
            {
              "pitch": 83,
              "velocity": 87,
              "position": 3.5,
              "duration": 0.46458333333333335
            },
            {
              "pitch": 78,
              "velocity": 79,
              "position": 3.4895833333333335,
              "duration": 0.48541666666666666
            }
          ]
        },
        "5": {
          "ctab": {
            "srcChannel": 5,
            "name": "P1",
            "accType": "PHRASE1",
            "editable": false,
            "mutedNotes": [],
            "mutedChords": [
              "1+2+5",
              "sus4",
              "1+5",
              "1+8",
              "7aug",
              "Maj7aug",
              "7(#9)",
              "7(b13)",
              "7(b9)",
              "7(13)",
              "7#11",
              "7(9)",
              "7b5",
              "7sus4",
              "7th",
              "aug",
              "Maj6(9)",
              "Maj7(9)",
              "Maj(9)",
              "Maj7#11",
              "Maj7",
              "Maj6",
              "Maj"
            ],
            "autoStart": false,
            "sourceChordNote": 0,
            "sourceChordType": "min",
            "ctb2Low": null,
            "ctb2Main": {
              "ntr": "ROOT_TRANSPOSITION",
              "ntt": "BYPASS",
              "bassOn": false,
              "chordRootUpperLimit": 2,
              "noteLowLimit": 0,
              "noteHighLimit": 127,
              "rtr": "PITCH_SHIFT"
            },
            "ctb2High": null
          },
          "notes": [
            {
              "pitch": 62,
              "velocity": 120,
              "position": 0.25,
              "duration": 0.24583333333333332
            },
            {
              "pitch": 68,
              "velocity": 120,
              "position": 0.25,
              "duration": 0.24583333333333332
            },
            {
              "pitch": 61,
              "velocity": 120,
              "position": 1,
              "duration": 0.24583333333333332
            },
            {
              "pitch": 67,
              "velocity": 120,
              "position": 1,
              "duration": 0.24583333333333332
            },
            {
              "pitch": 60,
              "velocity": 120,
              "position": 1.75,
              "duration": 0.24583333333333332
            },
            {
              "pitch": 66,
              "velocity": 120,
              "position": 1.75,
              "duration": 0.24583333333333332
            },
            {
              "pitch": 59,
              "velocity": 120,
              "position": 2.5,
              "duration": 0.24583333333333332
            },
            {
              "pitch": 65,
              "velocity": 120,
              "position": 2.5,
              "duration": 0.24583333333333332
            },
            {
              "pitch": 68,
              "velocity": 123,
              "position": 3,
              "duration": 0.48541666666666666
            },
            {
              "pitch": 73,
              "velocity": 123,
              "position": 3,
              "duration": 0.48541666666666666
            },
            {
              "pitch": 69,
              "velocity": 123,
              "position": 3.5,
              "duration": 0.48541666666666666
            },
            {
              "pitch": 74,
              "velocity": 123,
              "position": 3.5,
              "duration": 0.48541666666666666
            },
            {
              "pitch": 75,
              "velocity": 127,
              "position": 4,
              "duration": 0.40208333333333335
            },
            {
              "pitch": 70,
              "velocity": 127,
              "position": 4,
              "duration": 0.44375
            },
            {
              "pitch": 69,
              "velocity": 40,
              "position": 4.416666666666667,
              "duration": 0.11041666666666666
            },
            {
              "pitch": 72,
              "velocity": 40,
              "position": 4.375,
              "duration": 0.15208333333333332
            },
            {
              "pitch": 67,
              "velocity": 30,
              "position": 4.5,
              "duration": 0.11041666666666666
            },
            {
              "pitch": 70,
              "velocity": 30,
              "position": 4.5,
              "duration": 0.15208333333333332
            },
            {
              "pitch": 65,
              "velocity": 20,
              "position": 4.583333333333333,
              "duration": 0.11041666666666666
            },
            {
              "pitch": 64,
              "velocity": 10,
              "position": 4.666666666666667,
              "duration": 0.11041666666666666
            },
            {
              "pitch": 69,
              "velocity": 20,
              "position": 4.625,
              "duration": 0.15208333333333332
            },
            {
              "pitch": 62,
              "velocity": 10,
              "position": 4.75,
              "duration": 0.11041666666666666
            },
            {
              "pitch": 67,
              "velocity": 10,
              "position": 4.75,
              "duration": 0.15208333333333332
            },
            {
              "pitch": 65,
              "velocity": 1,
              "position": 4.875,
              "duration": 0.15208333333333332
            }
          ]
        },
        "6": {
          "ctab": {
            "srcChannel": 6,
            "name": "P2",
            "accType": "PHRASE2",
            "editable": false,
            "mutedNotes": [],
            "mutedChords": [
              "1+2+5",
              "sus4",
              "1+5",
              "1+8",
              "7aug",
              "Maj7aug",
              "7(#9)",
              "7(b13)",
              "7(b9)",
              "7(13)",
              "7#11",
              "7(9)",
              "7b5",
              "7sus4",
              "7th",
              "aug",
              "Maj6(9)",
              "Maj7(9)",
              "Maj(9)",
              "Maj7#11",
              "Maj7",
              "Maj6",
              "Maj"
            ],
            "autoStart": false,
            "sourceChordNote": 0,
            "sourceChordType": "min",
            "ctb2Low": null,
            "ctb2Main": {
              "ntr": "ROOT_TRANSPOSITION",
              "ntt": "BYPASS",
              "bassOn": false,
              "chordRootUpperLimit": 2,
              "noteLowLimit": 33,
              "noteHighLimit": 127,
              "rtr": "PITCH_SHIFT"
            },
            "ctb2High": null
          },
          "notes": [
            {
              "pitch": 46,
              "velocity": 120,
              "position": 0,
              "duration": 0.225
            },
            {
              "pitch": 45,
              "velocity": 120,
              "position": 0.7395833333333334,
              "duration": 0.225
            },
            {
              "pitch": 44,
              "velocity": 120,
              "position": 1.4895833333333333,
              "duration": 0.225
            },
            {
              "pitch": 43,
              "velocity": 120,
              "position": 2.2395833333333335,
              "duration": 0.225
            },
            {
              "pitch": 61,
              "velocity": 71,
              "position": 2.9895833333333335,
              "duration": 0.48541666666666666
            },
            {
              "pitch": 62,
              "velocity": 71,
              "position": 3.4895833333333335,
              "duration": 0.48541666666666666
            },
            {
              "pitch": 63,
              "velocity": 65,
              "position": 3.9895833333333335,
              "duration": 0.44375
            },
            {
              "pitch": 62,
              "velocity": 38,
              "position": 4.40625,
              "duration": 0.11041666666666666
            },
            {
              "pitch": 61,
              "velocity": 35,
              "position": 4.489583333333333,
              "duration": 0.11041666666666666
            },
            {
              "pitch": 59,
              "velocity": 32,
              "position": 4.572916666666667,
              "duration": 0.11041666666666666
            },
            {
              "pitch": 58,
              "velocity": 29,
              "position": 4.65625,
              "duration": 0.11041666666666666
            },
            {
              "pitch": 56,
              "velocity": 29,
              "position": 4.739583333333333,
              "duration": 0.11041666666666666
            },
            {
              "pitch": 55,
              "velocity": 29,
              "position": 4.822916666666667,
              "duration": 0.11041666666666666
            },
            {
              "pitch": 53,
              "velocity": 29,
              "position": 4.90625,
              "duration": 0.11041666666666666
            }
          ]
        },
        "8": {
          "ctab": {
            "srcChannel": 8,
            "name": "Perc",
            "accType": "SUBRHYTHM",
            "editable": false,
            "mutedNotes": [],
            "mutedChords": [],
            "autoStart": true,
            "sourceChordNote": 0,
            "sourceChordType": "Maj7",
            "ctb2Low": null,
            "ctb2Main": {
              "ntr": "ROOT_FIXED",
              "ntt": "BYPASS",
              "bassOn": false,
              "chordRootUpperLimit": 6,
              "noteLowLimit": 0,
              "noteHighLimit": 127,
              "rtr": "PITCH_SHIFT"
            },
            "ctb2High": null
          },
          "notes": []
        },
        "9": {
          "ctab": {
            "srcChannel": 9,
            "name": "Drs",
            "accType": "RHYTHM",
            "editable": false,
            "mutedNotes": [],
            "mutedChords": [],
            "autoStart": true,
            "sourceChordNote": 0,
            "sourceChordType": "Maj7",
            "ctb2Low": null,
            "ctb2Main": {
              "ntr": "ROOT_FIXED",
              "ntt": "BYPASS",
              "bassOn": false,
              "chordRootUpperLimit": 6,
              "noteLowLimit": 0,
              "noteHighLimit": 127,
              "rtr": "PITCH_SHIFT"
            },
            "ctb2High": null
          },
          "notes": [
            {
              "pitch": 33,
              "velocity": 105,
              "position": 0,
              "duration": 0.00625
            },
            {
              "pitch": 31,
              "velocity": 81,
              "position": 0.25,
              "duration": 0.00625
            },
            {
              "pitch": 42,
              "velocity": 81,
              "position": 0.5,
              "duration": 0.00625
            },
            {
              "pitch": 33,
              "velocity": 65,
              "position": 0.75,
              "duration": 0.00625
            },
            {
              "pitch": 31,
              "velocity": 125,
              "position": 1,
              "duration": 0.00625
            },
            {
              "pitch": 42,
              "velocity": 81,
              "position": 1.25,
              "duration": 0.00625
            },
            {
              "pitch": 33,
              "velocity": 105,
              "position": 1.5,
              "duration": 0.00625
            },
            {
              "pitch": 31,
              "velocity": 81,
              "position": 1.75,
              "duration": 0.00625
            },
            {
              "pitch": 42,
              "velocity": 81,
              "position": 2,
              "duration": 0.00625
            },
            {
              "pitch": 33,
              "velocity": 65,
              "position": 2.25,
              "duration": 0.00625
            },
            {
              "pitch": 31,
              "velocity": 125,
              "position": 2.5,
              "duration": 0.00625
            },
            {
              "pitch": 42,
              "velocity": 81,
              "position": 2.75,
              "duration": 0.00625
            },
            {
              "pitch": 33,
              "velocity": 105,
              "position": 3,
              "duration": 0.00625
            },
            {
              "pitch": 31,
              "velocity": 65,
              "position": 3.25,
              "duration": 0.00625
            },
            {
              "pitch": 33,
              "velocity": 65,
              "position": 3.5,
              "duration": 0.00625
            },
            {
              "pitch": 46,
              "velocity": 59,
              "position": 3.5,
              "duration": 0.00625
            },
            {
              "pitch": 33,
              "velocity": 105,
              "position": 4,
              "duration": 0.00625
            },
            {
              "pitch": 46,
              "velocity": 86,
              "position": 4,
              "duration": 0.00625
            },
            {
              "pitch": 44,
              "velocity": 6,
              "position": 5,
              "duration": 0.00625
            }
          ]
        },
        "10": {
          "ctab": {
            "srcChannel": 10,
            "name": "Bass",
            "accType": "BASS",
            "editable": false,
            "mutedNotes": [],
            "mutedChords": [
              "dim7",
              "dim",
              "minMaj7(9)",
              "minMaj7",
              "min7(11)",
              "min7(9)",
              "min(9)",
              "m7b5",
              "min7",
              "min6",
              "min"
            ],
            "autoStart": false,
            "sourceChordNote": 0,
            "sourceChordType": "Maj",
            "ctb2Low": null,
            "ctb2Main": {
              "ntr": "ROOT_TRANSPOSITION",
              "ntt": "BYPASS",
              "bassOn": false,
              "chordRootUpperLimit": 8,
              "noteLowLimit": 28,
              "noteHighLimit": 127,
              "rtr": "PITCH_SHIFT"
            },
            "ctb2High": null
          },
          "notes": [
            {
              "pitch": 34,
              "velocity": 80,
              "position": 0,
              "duration": 0.23541666666666666
            },
            {
              "pitch": 33,
              "velocity": 80,
              "position": 0.75,
              "duration": 0.23541666666666666
            },
            {
              "pitch": 32,
              "velocity": 80,
              "position": 1.5,
              "duration": 0.23541666666666666
            },
            {
              "pitch": 31,
              "velocity": 80,
              "position": 2.25,
              "duration": 0.23541666666666666
            },
            {
              "pitch": 34,
              "velocity": 80,
              "position": 3,
              "duration": 0.48541666666666666
            },
            {
              "pitch": 35,
              "velocity": 60,
              "position": 3.5,
              "duration": 0.48541666666666666
            },
            {
              "pitch": 36,
              "velocity": 80,
              "position": 4,
              "duration": 0.48541666666666666
            }
          ]
        },
        "11": {
          "ctab": {
            "srcChannel": 11,
            "name": "C1",
            "accType": "CHORD1",
            "editable": false,
            "mutedNotes": [],
            "mutedChords": [
              "dim7",
              "dim",
              "minMaj7(9)",
              "minMaj7",
              "min7(11)",
              "min7(9)",
              "min(9)",
              "m7b5",
              "min7",
              "min6",
              "min"
            ],
            "autoStart": false,
            "sourceChordNote": 0,
            "sourceChordType": "Maj",
            "ctb2Low": null,
            "ctb2Main": {
              "ntr": "ROOT_TRANSPOSITION",
              "ntt": "BYPASS",
              "bassOn": false,
              "chordRootUpperLimit": 6,
              "noteLowLimit": 0,
              "noteHighLimit": 79,
              "rtr": "PITCH_SHIFT"
            },
            "ctb2High": null
          },
          "notes": [
            {
              "pitch": 106,
              "velocity": 80,
              "position": 0,
              "duration": 0.23541666666666666
            },
            {
              "pitch": 66,
              "velocity": 35,
              "position": 0.020833333333333332,
              "duration": 0.21458333333333332
            },
            {
              "pitch": 62,
              "velocity": 35,
              "position": 0.010416666666666666,
              "duration": 0.23541666666666666
            },
            {
              "pitch": 56,
              "velocity": 35,
              "position": 0,
              "duration": 0.25625
            },
            {
              "pitch": 73,
              "velocity": 35,
              "position": 0.03125,
              "duration": 0.23541666666666666
            },
            {
              "pitch": 105,
              "velocity": 31,
              "position": 0.25,
              "duration": 0.23541666666666666
            },
            {
              "pitch": 104,
              "velocity": 31,
              "position": 0.5,
              "duration": 0.23541666666666666
            },
            {
              "pitch": 108,
              "velocity": 80,
              "position": 0.75,
              "duration": 0.23541666666666666
            },
            {
              "pitch": 65,
              "velocity": 35,
              "position": 0.7708333333333334,
              "duration": 0.21458333333333332
            },
            {
              "pitch": 61,
              "velocity": 35,
              "position": 0.7604166666666666,
              "duration": 0.23541666666666666
            },
            {
              "pitch": 55,
              "velocity": 35,
              "position": 0.75,
              "duration": 0.25625
            },
            {
              "pitch": 72,
              "velocity": 35,
              "position": 0.78125,
              "duration": 0.23541666666666666
            },
            {
              "pitch": 105,
              "velocity": 31,
              "position": 1,
              "duration": 0.23541666666666666
            },
            {
              "pitch": 104,
              "velocity": 31,
              "position": 1.25,
              "duration": 0.23541666666666666
            },
            {
              "pitch": 106,
              "velocity": 80,
              "position": 1.5,
              "duration": 0.23541666666666666
            },
            {
              "pitch": 64,
              "velocity": 35,
              "position": 1.5208333333333333,
              "duration": 0.21458333333333332
            },
            {
              "pitch": 60,
              "velocity": 35,
              "position": 1.5104166666666667,
              "duration": 0.23541666666666666
            },
            {
              "pitch": 54,
              "velocity": 35,
              "position": 1.5,
              "duration": 0.25625
            },
            {
              "pitch": 71,
              "velocity": 35,
              "position": 1.53125,
              "duration": 0.23541666666666666
            },
            {
              "pitch": 105,
              "velocity": 31,
              "position": 1.75,
              "duration": 0.23541666666666666
            },
            {
              "pitch": 104,
              "velocity": 31,
              "position": 2,
              "duration": 0.23541666666666666
            },
            {
              "pitch": 108,
              "velocity": 80,
              "position": 2.25,
              "duration": 0.23541666666666666
            },
            {
              "pitch": 63,
              "velocity": 35,
              "position": 2.2708333333333335,
              "duration": 0.21458333333333332
            },
            {
              "pitch": 59,
              "velocity": 35,
              "position": 2.2604166666666665,
              "duration": 0.23541666666666666
            },
            {
              "pitch": 53,
              "velocity": 35,
              "position": 2.25,
              "duration": 0.25625
            },
            {
              "pitch": 70,
              "velocity": 35,
              "position": 2.28125,
              "duration": 0.23541666666666666
            },
            {
              "pitch": 105,
              "velocity": 31,
              "position": 2.5,
              "duration": 0.23541666666666666
            },
            {
              "pitch": 104,
              "velocity": 31,
              "position": 2.75,
              "duration": 0.23541666666666666
            },
            {
              "pitch": 106,
              "velocity": 80,
              "position": 3,
              "duration": 0.23541666666666666
            },
            {
              "pitch": 70,
              "velocity": 35,
              "position": 3.03125,
              "duration": 0.45416666666666666
            },
            {
              "pitch": 65,
              "velocity": 35,
              "position": 3.0208333333333335,
              "duration": 0.46458333333333335
            },
            {
              "pitch": 60,
              "velocity": 35,
              "position": 3.0104166666666665,
              "duration": 0.475
            },
            {
              "pitch": 56,
              "velocity": 35,
              "position": 3,
              "duration": 0.48541666666666666
            },
            {
              "pitch": 107,
              "velocity": 80,
              "position": 3.5,
              "duration": 0.23541666666666666
            },
            {
              "pitch": 71,
              "velocity": 35,
              "position": 3.53125,
              "duration": 0.45416666666666666
            },
            {
              "pitch": 66,
              "velocity": 35,
              "position": 3.5208333333333335,
              "duration": 0.46458333333333335
            },
            {
              "pitch": 61,
              "velocity": 35,
              "position": 3.5104166666666665,
              "duration": 0.475
            },
            {
              "pitch": 57,
              "velocity": 35,
              "position": 3.5,
              "duration": 0.48541666666666666
            },
            {
              "pitch": 106,
              "velocity": 80,
              "position": 4,
              "duration": 0.23541666666666666
            },
            {
              "pitch": 58,
              "velocity": 35,
              "position": 4,
              "duration": 0.48541666666666666
            },
            {
              "pitch": 62,
              "velocity": 35,
              "position": 4.010416666666667,
              "duration": 0.48541666666666666
            },
            {
              "pitch": 67,
              "velocity": 35,
              "position": 4.020833333333333,
              "duration": 0.48541666666666666
            },
            {
              "pitch": 72,
              "velocity": 35,
              "position": 4.03125,
              "duration": 0.48541666666666666
            },
            {
              "pitch": 66,
              "velocity": 100,
              "position": 4.5,
              "duration": 0.07916666666666666
            },
            {
              "pitch": 61,
              "velocity": 100,
              "position": 4.5,
              "duration": 0.07916666666666666
            },
            {
              "pitch": 71,
              "velocity": 100,
              "position": 4.5,
              "duration": 0.07916666666666666
            },
            {
              "pitch": 60,
              "velocity": 100,
              "position": 4.583333333333333,
              "duration": 0.07916666666666666
            },
            {
              "pitch": 70,
              "velocity": 100,
              "position": 4.583333333333333,
              "duration": 0.07916666666666666
            },
            {
              "pitch": 65,
              "velocity": 100,
              "position": 4.583333333333333,
              "duration": 0.07916666666666666
            },
            {
              "pitch": 59,
              "velocity": 100,
              "position": 4.666666666666667,
              "duration": 0.07916666666666666
            },
            {
              "pitch": 69,
              "velocity": 100,
              "position": 4.666666666666667,
              "duration": 0.07916666666666666
            },
            {
              "pitch": 64,
              "velocity": 100,
              "position": 4.666666666666667,
              "duration": 0.07916666666666666
            },
            {
              "pitch": 58,
              "velocity": 100,
              "position": 4.75,
              "duration": 0.058333333333333334
            },
            {
              "pitch": 68,
              "velocity": 100,
              "position": 4.75,
              "duration": 0.058333333333333334
            },
            {
              "pitch": 63,
              "velocity": 100,
              "position": 4.75,
              "duration": 0.058333333333333334
            },
            {
              "pitch": 57,
              "velocity": 100,
              "position": 4.8125,
              "duration": 0.058333333333333334
            },
            {
              "pitch": 67,
              "velocity": 100,
              "position": 4.8125,
              "duration": 0.058333333333333334
            },
            {
              "pitch": 62,
              "velocity": 100,
              "position": 4.8125,
              "duration": 0.058333333333333334
            },
            {
              "pitch": 56,
              "velocity": 100,
              "position": 4.875,
              "duration": 0.0375
            },
            {
              "pitch": 66,
              "velocity": 100,
              "position": 4.875,
              "duration": 0.0375
            },
            {
              "pitch": 61,
              "velocity": 100,
              "position": 4.875,
              "duration": 0.0375
            },
            {
              "pitch": 55,
              "velocity": 100,
              "position": 4.916666666666667,
              "duration": 0.0375
            },
            {
              "pitch": 65,
              "velocity": 100,
              "position": 4.916666666666667,
              "duration": 0.0375
            },
            {
              "pitch": 60,
              "velocity": 100,
              "position": 4.916666666666667,
              "duration": 0.0375
            },
            {
              "pitch": 54,
              "velocity": 100,
              "position": 4.958333333333333,
              "duration": 0.016666666666666666
            },
            {
              "pitch": 64,
              "velocity": 100,
              "position": 4.958333333333333,
              "duration": 0.016666666666666666
            },
            {
              "pitch": 59,
              "velocity": 100,
              "position": 4.958333333333333,
              "duration": 0.016666666666666666
            },
            {
              "pitch": 53,
              "velocity": 100,
              "position": 4.979166666666667,
              "duration": 0.016666666666666666
            },
            {
              "pitch": 63,
              "velocity": 100,
              "position": 4.979166666666667,
              "duration": 0.016666666666666666
            },
            {
              "pitch": 58,
              "velocity": 100,
              "position": 4.979166666666667,
              "duration": 0.016666666666666666
            },
            {
              "pitch": 52,
              "velocity": 100,
              "position": 5,
              "duration": 0.016666666666666666
            },
            {
              "pitch": 62,
              "velocity": 100,
              "position": 5,
              "duration": 0.016666666666666666
            },
            {
              "pitch": 57,
              "velocity": 100,
              "position": 5,
              "duration": 0.016666666666666666
            },
            {
              "pitch": 51,
              "velocity": 100,
              "position": 5.020833333333333,
              "duration": 0.00625
            },
            {
              "pitch": 61,
              "velocity": 100,
              "position": 5.020833333333333,
              "duration": 0.00625
            },
            {
              "pitch": 56,
              "velocity": 100,
              "position": 5.020833333333333,
              "duration": 0.00625
            }
          ]
        },
        "12": {
          "ctab": {
            "srcChannel": 12,
            "name": "C2",
            "accType": "CHORD2",
            "editable": false,
            "mutedNotes": [],
            "mutedChords": [
              "dim7",
              "dim",
              "minMaj7(9)",
              "minMaj7",
              "min7(11)",
              "min7(9)",
              "min(9)",
              "m7b5",
              "min7",
              "min6",
              "min"
            ],
            "autoStart": false,
            "sourceChordNote": 0,
            "sourceChordType": "Maj",
            "ctb2Low": null,
            "ctb2Main": {
              "ntr": "ROOT_TRANSPOSITION",
              "ntt": "BYPASS",
              "bassOn": false,
              "chordRootUpperLimit": 8,
              "noteLowLimit": 0,
              "noteHighLimit": 79,
              "rtr": "PITCH_SHIFT"
            },
            "ctb2High": null
          },
          "notes": [
            {
              "pitch": 77,
              "velocity": 99,
              "position": 3.0416666666666665,
              "duration": 0.26458333333333334
            },
            {
              "pitch": 72,
              "velocity": 97,
              "position": 3.04375,
              "duration": 0.30416666666666664
            },
            {
              "pitch": 82,
              "velocity": 99,
              "position": 3.0479166666666666,
              "duration": 0.39166666666666666
            },
            {
              "pitch": 67,
              "velocity": 96,
              "position": 3.0395833333333333,
              "duration": 0.5270833333333333
            },
            {
              "pitch": 83,
              "velocity": 81,
              "position": 3.5145833333333334,
              "duration": 0.43333333333333335
            },
            {
              "pitch": 78,
              "velocity": 91,
              "position": 3.533333333333333,
              "duration": 0.425
            },
            {
              "pitch": 73,
              "velocity": 93,
              "position": 3.5416666666666665,
              "duration": 0.42083333333333334
            },
            {
              "pitch": 68,
              "velocity": 99,
              "position": 3.54375,
              "duration": 0.47708333333333336
            },
            {
              "pitch": 69,
              "velocity": 118,
              "position": 4.04375,
              "duration": 0.33541666666666664
            },
            {
              "pitch": 84,
              "velocity": 94,
              "position": 4.033333333333333,
              "duration": 0.49583333333333335
            },
            {
              "pitch": 74,
              "velocity": 91,
              "position": 4.052083333333333,
              "duration": 0.55625
            },
            {
              "pitch": 79,
              "velocity": 94,
              "position": 4.054166666666666,
              "duration": 0.5604166666666667
            },
            {
              "pitch": 76,
              "velocity": 96,
              "position": 4.622916666666667,
              "duration": 0.03333333333333333
            },
            {
              "pitch": 77,
              "velocity": 60,
              "position": 4.560416666666667,
              "duration": 0.10625
            },
            {
              "pitch": 76,
              "velocity": 127,
              "position": 4.6625,
              "duration": 0.0125
            },
            {
              "pitch": 74,
              "velocity": 92,
              "position": 4.658333333333333,
              "duration": 0.029166666666666667
            },
            {
              "pitch": 72,
              "velocity": 71,
              "position": 4.695833333333334,
              "duration": 0.058333333333333334
            }
          ]
        },
        "13": {
          "ctab": {
            "srcChannel": 13,
            "name": "Pad",
            "accType": "PAD",
            "editable": false,
            "mutedNotes": [],
            "mutedChords": [
              "dim7",
              "dim",
              "minMaj7(9)",
              "minMaj7",
              "min7(11)",
              "min7(9)",
              "min(9)",
              "m7b5",
              "min7",
              "min6",
              "min"
            ],
            "autoStart": false,
            "sourceChordNote": 0,
            "sourceChordType": "Maj",
            "ctb2Low": null,
            "ctb2Main": {
              "ntr": "ROOT_TRANSPOSITION",
              "ntt": "BYPASS",
              "bassOn": false,
              "chordRootUpperLimit": 3,
              "noteLowLimit": 0,
              "noteHighLimit": 79,
              "rtr": "PITCH_SHIFT"
            },
            "ctb2High": null
          },
          "notes": [
            {
              "pitch": 73,
              "velocity": 79,
              "position": 0.23958333333333334,
              "duration": 0.19375
            },
            {
              "pitch": 78,
              "velocity": 87,
              "position": 0.25,
              "duration": 0.18333333333333332
            },
            {
              "pitch": 72,
              "velocity": 79,
              "position": 0.9895833333333334,
              "duration": 0.19375
            },
            {
              "pitch": 77,
              "velocity": 87,
              "position": 1,
              "duration": 0.18333333333333332
            },
            {
              "pitch": 71,
              "velocity": 79,
              "position": 1.7395833333333333,
              "duration": 0.19375
            },
            {
              "pitch": 76,
              "velocity": 87,
              "position": 1.75,
              "duration": 0.18333333333333332
            },
            {
              "pitch": 70,
              "velocity": 79,
              "position": 2.4895833333333335,
              "duration": 0.19375
            },
            {
              "pitch": 75,
              "velocity": 87,
              "position": 2.5,
              "duration": 0.18333333333333332
            },
            {
              "pitch": 82,
              "velocity": 87,
              "position": 3,
              "duration": 0.46458333333333335
            },
            {
              "pitch": 77,
              "velocity": 79,
              "position": 2.9895833333333335,
              "duration": 0.48541666666666666
            },
            {
              "pitch": 83,
              "velocity": 87,
              "position": 3.5,
              "duration": 0.46458333333333335
            },
            {
              "pitch": 78,
              "velocity": 79,
              "position": 3.4895833333333335,
              "duration": 0.48541666666666666
            }
          ]
        },
        "14": {
          "ctab": {
            "srcChannel": 14,
            "name": "P1",
            "accType": "PHRASE1",
            "editable": false,
            "mutedNotes": [],
            "mutedChords": [
              "dim7",
              "dim",
              "minMaj7(9)",
              "minMaj7",
              "min7(11)",
              "min7(9)",
              "min(9)",
              "m7b5",
              "min7",
              "min6",
              "min"
            ],
            "autoStart": false,
            "sourceChordNote": 0,
            "sourceChordType": "Maj",
            "ctb2Low": null,
            "ctb2Main": {
              "ntr": "ROOT_TRANSPOSITION",
              "ntt": "BYPASS",
              "bassOn": false,
              "chordRootUpperLimit": 2,
              "noteLowLimit": 0,
              "noteHighLimit": 127,
              "rtr": "PITCH_SHIFT"
            },
            "ctb2High": null
          },
          "notes": [
            {
              "pitch": 62,
              "velocity": 120,
              "position": 0.25,
              "duration": 0.19375
            },
            {
              "pitch": 68,
              "velocity": 120,
              "position": 0.25,
              "duration": 0.19375
            },
            {
              "pitch": 61,
              "velocity": 120,
              "position": 1,
              "duration": 0.19375
            },
            {
              "pitch": 67,
              "velocity": 120,
              "position": 1,
              "duration": 0.19375
            },
            {
              "pitch": 60,
              "velocity": 120,
              "position": 1.75,
              "duration": 0.19375
            },
            {
              "pitch": 66,
              "velocity": 120,
              "position": 1.75,
              "duration": 0.19375
            },
            {
              "pitch": 59,
              "velocity": 120,
              "position": 2.5,
              "duration": 0.19375
            },
            {
              "pitch": 65,
              "velocity": 120,
              "position": 2.5,
              "duration": 0.19375
            },
            {
              "pitch": 68,
              "velocity": 123,
              "position": 3,
              "duration": 0.48541666666666666
            },
            {
              "pitch": 72,
              "velocity": 123,
              "position": 3,
              "duration": 0.48541666666666666
            },
            {
              "pitch": 69,
              "velocity": 123,
              "position": 3.5,
              "duration": 0.48541666666666666
            },
            {
              "pitch": 73,
              "velocity": 123,
              "position": 3.5,
              "duration": 0.48541666666666666
            },
            {
              "pitch": 74,
              "velocity": 127,
              "position": 4,
              "duration": 0.40208333333333335
            },
            {
              "pitch": 70,
              "velocity": 127,
              "position": 4,
              "duration": 0.44375
            },
            {
              "pitch": 69,
              "velocity": 40,
              "position": 4.416666666666667,
              "duration": 0.11041666666666666
            },
            {
              "pitch": 72,
              "velocity": 40,
              "position": 4.375,
              "duration": 0.15208333333333332
            },
            {
              "pitch": 67,
              "velocity": 30,
              "position": 4.5,
              "duration": 0.11041666666666666
            },
            {
              "pitch": 70,
              "velocity": 30,
              "position": 4.5,
              "duration": 0.15208333333333332
            },
            {
              "pitch": 65,
              "velocity": 20,
              "position": 4.583333333333333,
              "duration": 0.11041666666666666
            },
            {
              "pitch": 64,
              "velocity": 10,
              "position": 4.666666666666667,
              "duration": 0.11041666666666666
            },
            {
              "pitch": 69,
              "velocity": 20,
              "position": 4.625,
              "duration": 0.15208333333333332
            },
            {
              "pitch": 62,
              "velocity": 10,
              "position": 4.75,
              "duration": 0.11041666666666666
            },
            {
              "pitch": 67,
              "velocity": 10,
              "position": 4.75,
              "duration": 0.15208333333333332
            },
            {
              "pitch": 65,
              "velocity": 1,
              "position": 4.875,
              "duration": 0.15208333333333332
            }
          ]
        },
        "15": {
          "ctab": {
            "srcChannel": 15,
            "name": "P2",
            "accType": "PHRASE2",
            "editable": false,
            "mutedNotes": [],
            "mutedChords": [
              "dim7",
              "dim",
              "minMaj7(9)",
              "minMaj7",
              "min7(11)",
              "min7(9)",
              "min(9)",
              "m7b5",
              "min7",
              "min6",
              "min"
            ],
            "autoStart": false,
            "sourceChordNote": 0,
            "sourceChordType": "Maj",
            "ctb2Low": null,
            "ctb2Main": {
              "ntr": "ROOT_TRANSPOSITION",
              "ntt": "BYPASS",
              "bassOn": false,
              "chordRootUpperLimit": 2,
              "noteLowLimit": 33,
              "noteHighLimit": 127,
              "rtr": "PITCH_SHIFT"
            },
            "ctb2High": null
          },
          "notes": [
            {
              "pitch": 46,
              "velocity": 120,
              "position": 0,
              "duration": 0.1625
            },
            {
              "pitch": 45,
              "velocity": 120,
              "position": 0.7395833333333334,
              "duration": 0.1625
            },
            {
              "pitch": 44,
              "velocity": 120,
              "position": 1.4895833333333333,
              "duration": 0.1625
            },
            {
              "pitch": 43,
              "velocity": 120,
              "position": 2.2395833333333335,
              "duration": 0.1625
            },
            {
              "pitch": 62,
              "velocity": 71,
              "position": 2.9895833333333335,
              "duration": 0.48541666666666666
            },
            {
              "pitch": 63,
              "velocity": 71,
              "position": 3.4895833333333335,
              "duration": 0.48541666666666666
            },
            {
              "pitch": 64,
              "velocity": 65,
              "position": 3.9895833333333335,
              "duration": 0.44375
            },
            {
              "pitch": 63,
              "velocity": 38,
              "position": 4.40625,
              "duration": 0.11041666666666666
            },
            {
              "pitch": 61,
              "velocity": 35,
              "position": 4.489583333333333,
              "duration": 0.11041666666666666
            },
            {
              "pitch": 59,
              "velocity": 32,
              "position": 4.572916666666667,
              "duration": 0.11041666666666666
            },
            {
              "pitch": 58,
              "velocity": 29,
              "position": 4.65625,
              "duration": 0.11041666666666666
            },
            {
              "pitch": 56,
              "velocity": 29,
              "position": 4.739583333333333,
              "duration": 0.11041666666666666
            },
            {
              "pitch": 55,
              "velocity": 29,
              "position": 4.822916666666667,
              "duration": 0.11041666666666666
            },
            {
              "pitch": 53,
              "velocity": 29,
              "position": 4.90625,
              "duration": 0.11041666666666666
            }
          ]
        }
      }
    },
    "Ending_C": {
      "type": "Ending_C",
      "sizeInBeats": 16,
      "channels": {
        "1": {
          "ctab": {
            "srcChannel": 1,
            "name": "Bass",
            "accType": "BASS",
            "editable": false,
            "mutedNotes": [],
            "mutedChords": [
              "1+2+5",
              "sus4",
              "1+5",
              "1+8",
              "7aug",
              "Maj7aug",
              "7(#9)",
              "7(b13)",
              "7(b9)",
              "7(13)",
              "7#11",
              "7(9)",
              "7b5",
              "7sus4",
              "7th",
              "aug",
              "Maj6(9)",
              "Maj7(9)",
              "Maj(9)",
              "Maj7#11",
              "Maj7",
              "Maj6",
              "Maj"
            ],
            "autoStart": false,
            "sourceChordNote": 0,
            "sourceChordType": "min",
            "ctb2Low": null,
            "ctb2Main": {
              "ntr": "ROOT_TRANSPOSITION",
              "ntt": "BYPASS",
              "bassOn": false,
              "chordRootUpperLimit": 8,
              "noteLowLimit": 28,
              "noteHighLimit": 127,
              "rtr": "PITCH_SHIFT"
            },
            "ctb2High": null
          },
          "notes": [
            {
              "pitch": 32,
              "velocity": 80,
              "position": 0,
              "duration": 0.48541666666666666
            },
            {
              "pitch": 32,
              "velocity": 110,
              "position": 0.5,
              "duration": 0.13125
            },
            {
              "pitch": 32,
              "velocity": 80,
              "position": 0.75,
              "duration": 0.23541666666666666
            },
            {
              "pitch": 32,
              "velocity": 110,
              "position": 1.25,
              "duration": 0.13125
            },
            {
              "pitch": 39,
              "velocity": 110,
              "position": 1.5,
              "duration": 0.13125
            },
            {
              "pitch": 42,
              "velocity": 80,
              "position": 1.75,
              "duration": 0.23541666666666666
            },
            {
              "pitch": 42,
              "velocity": 91,
              "position": 2,
              "duration": 0.13125
            },
            {
              "pitch": 42,
              "velocity": 110,
              "position": 2.25,
              "duration": 0.13125
            },
            {
              "pitch": 42,
              "velocity": 80,
              "position": 2.5,
              "duration": 0.23541666666666666
            },
            {
              "pitch": 44,
              "velocity": 60,
              "position": 2.75,
              "duration": 0.23541666666666666
            },
            {
              "pitch": 44,
              "velocity": 110,
              "position": 3,
              "duration": 0.13125
            },
            {
              "pitch": 39,
              "velocity": 110,
              "position": 3.25,
              "duration": 0.13125
            },
            {
              "pitch": 31,
              "velocity": 60,
              "position": 3.5,
              "duration": 0.17291666666666666
            },
            {
              "pitch": 30,
              "velocity": 60,
              "position": 3.75,
              "duration": 0.17291666666666666
            },
            {
              "pitch": 29,
              "velocity": 80,
              "position": 4,
              "duration": 0.23541666666666666
            },
            {
              "pitch": 29,
              "velocity": 91,
              "position": 4.25,
              "duration": 0.13125
            },
            {
              "pitch": 29,
              "velocity": 110,
              "position": 4.5,
              "duration": 0.13125
            },
            {
              "pitch": 29,
              "velocity": 80,
              "position": 4.75,
              "duration": 0.23541666666666666
            },
            {
              "pitch": 29,
              "velocity": 110,
              "position": 5.25,
              "duration": 0.13125
            },
            {
              "pitch": 36,
              "velocity": 110,
              "position": 5.5,
              "duration": 0.13125
            },
            {
              "pitch": 39,
              "velocity": 80,
              "position": 5.75,
              "duration": 0.23541666666666666
            },
            {
              "pitch": 39,
              "velocity": 91,
              "position": 6,
              "duration": 0.13125
            },
            {
              "pitch": 39,
              "velocity": 110,
              "position": 6.25,
              "duration": 0.13125
            },
            {
              "pitch": 39,
              "velocity": 80,
              "position": 6.5,
              "duration": 0.23541666666666666
            },
            {
              "pitch": 41,
              "velocity": 60,
              "position": 6.75,
              "duration": 0.23541666666666666
            },
            {
              "pitch": 41,
              "velocity": 110,
              "position": 7,
              "duration": 0.13125
            },
            {
              "pitch": 36,
              "velocity": 110,
              "position": 7.25,
              "duration": 0.13125
            },
            {
              "pitch": 29,
              "velocity": 60,
              "position": 7.5,
              "duration": 0.17291666666666666
            },
            {
              "pitch": 30,
              "velocity": 60,
              "position": 7.75,
              "duration": 0.17291666666666666
            },
            {
              "pitch": 31,
              "velocity": 80,
              "position": 8,
              "duration": 0.23541666666666666
            },
            {
              "pitch": 31,
              "velocity": 91,
              "position": 8.25,
              "duration": 0.13125
            },
            {
              "pitch": 31,
              "velocity": 110,
              "position": 8.5,
              "duration": 0.13125
            },
            {
              "pitch": 31,
              "velocity": 80,
              "position": 8.75,
              "duration": 0.23541666666666666
            },
            {
              "pitch": 31,
              "velocity": 110,
              "position": 9.25,
              "duration": 0.13125
            },
            {
              "pitch": 38,
              "velocity": 110,
              "position": 9.5,
              "duration": 0.13125
            },
            {
              "pitch": 41,
              "velocity": 80,
              "position": 9.75,
              "duration": 0.23541666666666666
            },
            {
              "pitch": 41,
              "velocity": 91,
              "position": 10,
              "duration": 0.13125
            },
            {
              "pitch": 41,
              "velocity": 110,
              "position": 10.25,
              "duration": 0.13125
            },
            {
              "pitch": 41,
              "velocity": 80,
              "position": 10.5,
              "duration": 0.23541666666666666
            },
            {
              "pitch": 42,
              "velocity": 60,
              "position": 10.75,
              "duration": 0.23541666666666666
            },
            {
              "pitch": 43,
              "velocity": 80,
              "position": 11,
              "duration": 0.48541666666666666
            },
            {
              "pitch": 34,
              "velocity": 80,
              "position": 11.5,
              "duration": 0.23541666666666666
            },
            {
              "pitch": 35,
              "velocity": 60,
              "position": 11.75,
              "duration": 0.23541666666666666
            },
            {
              "pitch": 36,
              "velocity": 80,
              "position": 12,
              "duration": 0.23541666666666666
            },
            {
              "pitch": 24,
              "velocity": 80,
              "position": 12.5,
              "duration": 0.23541666666666666
            },
            {
              "pitch": 24,
              "velocity": 80,
              "position": 13,
              "duration": 0.23541666666666666
            },
            {
              "pitch": 24,
              "velocity": 80,
              "position": 13.5,
              "duration": 0.23541666666666666
            },
            {
              "pitch": 24,
              "velocity": 80,
              "position": 14,
              "duration": 0.48541666666666666
            }
          ]
        },
        "2": {
          "ctab": {
            "srcChannel": 2,
            "name": "C1",
            "accType": "CHORD1",
            "editable": false,
            "mutedNotes": [],
            "mutedChords": [
              "1+2+5",
              "sus4",
              "1+5",
              "1+8",
              "7aug",
              "Maj7aug",
              "7(#9)",
              "7(b13)",
              "7(b9)",
              "7(13)",
              "7#11",
              "7(9)",
              "7b5",
              "7sus4",
              "7th",
              "aug",
              "Maj6(9)",
              "Maj7(9)",
              "Maj(9)",
              "Maj7#11",
              "Maj7",
              "Maj6",
              "Maj"
            ],
            "autoStart": false,
            "sourceChordNote": 0,
            "sourceChordType": "min",
            "ctb2Low": null,
            "ctb2Main": {
              "ntr": "ROOT_TRANSPOSITION",
              "ntt": "BYPASS",
              "bassOn": false,
              "chordRootUpperLimit": 6,
              "noteLowLimit": 0,
              "noteHighLimit": 79,
              "rtr": "PITCH_SHIFT"
            },
            "ctb2High": null
          },
          "notes": [
            {
              "pitch": 106,
              "velocity": 87,
              "position": 0,
              "duration": 0.23541666666666666
            },
            {
              "pitch": 66,
              "velocity": 35,
              "position": 0,
              "duration": 0.24583333333333332
            },
            {
              "pitch": 75,
              "velocity": 16,
              "position": 0.25,
              "duration": 0.11041666666666666
            },
            {
              "pitch": 70,
              "velocity": 16,
              "position": 0.2604166666666667,
              "duration": 0.12083333333333333
            },
            {
              "pitch": 66,
              "velocity": 16,
              "position": 0.2708333333333333,
              "duration": 0.14166666666666666
            },
            {
              "pitch": 108,
              "velocity": 70,
              "position": 0.25,
              "duration": 0.23541666666666666
            },
            {
              "pitch": 107,
              "velocity": 70,
              "position": 0.5,
              "duration": 0.23541666666666666
            },
            {
              "pitch": 75,
              "velocity": 35,
              "position": 0.75,
              "duration": 0.20416666666666666
            },
            {
              "pitch": 70,
              "velocity": 35,
              "position": 0.7604166666666666,
              "duration": 0.21458333333333332
            },
            {
              "pitch": 105,
              "velocity": 87,
              "position": 0.75,
              "duration": 0.23541666666666666
            },
            {
              "pitch": 66,
              "velocity": 35,
              "position": 0.7708333333333334,
              "duration": 0.23541666666666666
            },
            {
              "pitch": 60,
              "velocity": 29,
              "position": 0.78125,
              "duration": 0.25625
            },
            {
              "pitch": 107,
              "velocity": 70,
              "position": 1,
              "duration": 0.23541666666666666
            },
            {
              "pitch": 108,
              "velocity": 70,
              "position": 1.25,
              "duration": 0.23541666666666666
            },
            {
              "pitch": 106,
              "velocity": 87,
              "position": 1.5,
              "duration": 0.23541666666666666
            },
            {
              "pitch": 75,
              "velocity": 35,
              "position": 1.53125,
              "duration": 0.20416666666666666
            },
            {
              "pitch": 70,
              "velocity": 35,
              "position": 1.5208333333333333,
              "duration": 0.21458333333333332
            },
            {
              "pitch": 66,
              "velocity": 35,
              "position": 1.5104166666666667,
              "duration": 0.23541666666666666
            },
            {
              "pitch": 60,
              "velocity": 29,
              "position": 1.5,
              "duration": 0.25625
            },
            {
              "pitch": 108,
              "velocity": 70,
              "position": 1.75,
              "duration": 0.23541666666666666
            },
            {
              "pitch": 107,
              "velocity": 70,
              "position": 2,
              "duration": 0.23541666666666666
            },
            {
              "pitch": 108,
              "velocity": 70,
              "position": 2.25,
              "duration": 0.23541666666666666
            },
            {
              "pitch": 106,
              "velocity": 87,
              "position": 2.5,
              "duration": 0.23541666666666666
            },
            {
              "pitch": 70,
              "velocity": 35,
              "position": 2.5208333333333335,
              "duration": 0.21458333333333332
            },
            {
              "pitch": 66,
              "velocity": 35,
              "position": 2.5104166666666665,
              "duration": 0.23541666666666666
            },
            {
              "pitch": 60,
              "velocity": 29,
              "position": 2.5,
              "duration": 0.25625
            },
            {
              "pitch": 108,
              "velocity": 70,
              "position": 2.75,
              "duration": 0.23541666666666666
            },
            {
              "pitch": 60,
              "velocity": 22,
              "position": 2.7708333333333335,
              "duration": 0.21458333333333332
            },
            {
              "pitch": 66,
              "velocity": 22,
              "position": 2.7604166666666665,
              "duration": 0.23541666666666666
            },
            {
              "pitch": 70,
              "velocity": 22,
              "position": 2.75,
              "duration": 0.25625
            },
            {
              "pitch": 75,
              "velocity": 35,
              "position": 2.53125,
              "duration": 0.48541666666666666
            },
            {
              "pitch": 107,
              "velocity": 70,
              "position": 3,
              "duration": 0.23541666666666666
            },
            {
              "pitch": 75,
              "velocity": 29,
              "position": 3.03125,
              "duration": 0.20416666666666666
            },
            {
              "pitch": 70,
              "velocity": 29,
              "position": 3.0208333333333335,
              "duration": 0.225
            },
            {
              "pitch": 66,
              "velocity": 29,
              "position": 3.0104166666666665,
              "duration": 0.24583333333333332
            },
            {
              "pitch": 105,
              "velocity": 87,
              "position": 3.25,
              "duration": 0.23541666666666666
            },
            {
              "pitch": 66,
              "velocity": 35,
              "position": 3.2708333333333335,
              "duration": 0.21458333333333332
            },
            {
              "pitch": 70,
              "velocity": 35,
              "position": 3.2604166666666665,
              "duration": 0.23541666666666666
            },
            {
              "pitch": 75,
              "velocity": 35,
              "position": 3.25,
              "duration": 0.25625
            },
            {
              "pitch": 60,
              "velocity": 29,
              "position": 3,
              "duration": 0.50625
            },
            {
              "pitch": 107,
              "velocity": 70,
              "position": 3.5,
              "duration": 0.23541666666666666
            },
            {
              "pitch": 108,
              "velocity": 70,
              "position": 3.75,
              "duration": 0.23541666666666666
            },
            {
              "pitch": 106,
              "velocity": 87,
              "position": 4,
              "duration": 0.23541666666666666
            },
            {
              "pitch": 74,
              "velocity": 35,
              "position": 4.03125,
              "duration": 0.20416666666666666
            },
            {
              "pitch": 69,
              "velocity": 35,
              "position": 4.020833333333333,
              "duration": 0.21458333333333332
            },
            {
              "pitch": 65,
              "velocity": 35,
              "position": 4.010416666666667,
              "duration": 0.23541666666666666
            },
            {
              "pitch": 72,
              "velocity": 16,
              "position": 4.25,
              "duration": 0.11041666666666666
            },
            {
              "pitch": 67,
              "velocity": 16,
              "position": 4.260416666666667,
              "duration": 0.12083333333333333
            },
            {
              "pitch": 63,
              "velocity": 16,
              "position": 4.270833333333333,
              "duration": 0.14166666666666666
            },
            {
              "pitch": 108,
              "velocity": 70,
              "position": 4.25,
              "duration": 0.23541666666666666
            },
            {
              "pitch": 107,
              "velocity": 70,
              "position": 4.5,
              "duration": 0.23541666666666666
            },
            {
              "pitch": 72,
              "velocity": 35,
              "position": 4.75,
              "duration": 0.20416666666666666
            },
            {
              "pitch": 67,
              "velocity": 35,
              "position": 4.760416666666667,
              "duration": 0.21458333333333332
            },
            {
              "pitch": 105,
              "velocity": 87,
              "position": 4.75,
              "duration": 0.23541666666666666
            },
            {
              "pitch": 63,
              "velocity": 35,
              "position": 4.770833333333333,
              "duration": 0.23541666666666666
            },
            {
              "pitch": 57,
              "velocity": 29,
              "position": 4.78125,
              "duration": 0.25625
            },
            {
              "pitch": 107,
              "velocity": 70,
              "position": 5,
              "duration": 0.23541666666666666
            },
            {
              "pitch": 108,
              "velocity": 70,
              "position": 5.25,
              "duration": 0.23541666666666666
            },
            {
              "pitch": 106,
              "velocity": 87,
              "position": 5.5,
              "duration": 0.23541666666666666
            },
            {
              "pitch": 72,
              "velocity": 35,
              "position": 5.53125,
              "duration": 0.20416666666666666
            },
            {
              "pitch": 67,
              "velocity": 35,
              "position": 5.520833333333333,
              "duration": 0.21458333333333332
            },
            {
              "pitch": 63,
              "velocity": 35,
              "position": 5.510416666666667,
              "duration": 0.23541666666666666
            },
            {
              "pitch": 57,
              "velocity": 29,
              "position": 5.5,
              "duration": 0.25625
            },
            {
              "pitch": 108,
              "velocity": 70,
              "position": 5.75,
              "duration": 0.23541666666666666
            },
            {
              "pitch": 107,
              "velocity": 70,
              "position": 6,
              "duration": 0.23541666666666666
            },
            {
              "pitch": 108,
              "velocity": 70,
              "position": 6.25,
              "duration": 0.23541666666666666
            },
            {
              "pitch": 106,
              "velocity": 87,
              "position": 6.5,
              "duration": 0.23541666666666666
            },
            {
              "pitch": 67,
              "velocity": 35,
              "position": 6.520833333333333,
              "duration": 0.21458333333333332
            },
            {
              "pitch": 63,
              "velocity": 35,
              "position": 6.510416666666667,
              "duration": 0.23541666666666666
            },
            {
              "pitch": 57,
              "velocity": 29,
              "position": 6.5,
              "duration": 0.25625
            },
            {
              "pitch": 108,
              "velocity": 70,
              "position": 6.75,
              "duration": 0.23541666666666666
            },
            {
              "pitch": 57,
              "velocity": 22,
              "position": 6.770833333333333,
              "duration": 0.21458333333333332
            },
            {
              "pitch": 63,
              "velocity": 22,
              "position": 6.760416666666667,
              "duration": 0.23541666666666666
            },
            {
              "pitch": 67,
              "velocity": 22,
              "position": 6.75,
              "duration": 0.25625
            },
            {
              "pitch": 72,
              "velocity": 35,
              "position": 6.53125,
              "duration": 0.48541666666666666
            },
            {
              "pitch": 107,
              "velocity": 70,
              "position": 7,
              "duration": 0.23541666666666666
            },
            {
              "pitch": 72,
              "velocity": 29,
              "position": 7.03125,
              "duration": 0.20416666666666666
            },
            {
              "pitch": 67,
              "velocity": 29,
              "position": 7.020833333333333,
              "duration": 0.225
            },
            {
              "pitch": 63,
              "velocity": 29,
              "position": 7.010416666666667,
              "duration": 0.24583333333333332
            },
            {
              "pitch": 105,
              "velocity": 87,
              "position": 7.25,
              "duration": 0.23541666666666666
            },
            {
              "pitch": 63,
              "velocity": 35,
              "position": 7.270833333333333,
              "duration": 0.21458333333333332
            },
            {
              "pitch": 67,
              "velocity": 35,
              "position": 7.260416666666667,
              "duration": 0.23541666666666666
            },
            {
              "pitch": 72,
              "velocity": 35,
              "position": 7.25,
              "duration": 0.25625
            },
            {
              "pitch": 57,
              "velocity": 29,
              "position": 7,
              "duration": 0.50625
            },
            {
              "pitch": 107,
              "velocity": 70,
              "position": 7.5,
              "duration": 0.23541666666666666
            },
            {
              "pitch": 108,
              "velocity": 70,
              "position": 7.75,
              "duration": 0.23541666666666666
            },
            {
              "pitch": 106,
              "velocity": 87,
              "position": 8,
              "duration": 0.23541666666666666
            },
            {
              "pitch": 74,
              "velocity": 35,
              "position": 8.03125,
              "duration": 0.20416666666666666
            },
            {
              "pitch": 69,
              "velocity": 35,
              "position": 8.020833333333334,
              "duration": 0.21458333333333332
            },
            {
              "pitch": 65,
              "velocity": 35,
              "position": 8.010416666666666,
              "duration": 0.23541666666666666
            },
            {
              "pitch": 74,
              "velocity": 16,
              "position": 8.25,
              "duration": 0.11041666666666666
            },
            {
              "pitch": 69,
              "velocity": 16,
              "position": 8.260416666666666,
              "duration": 0.12083333333333333
            },
            {
              "pitch": 65,
              "velocity": 16,
              "position": 8.270833333333334,
              "duration": 0.14166666666666666
            },
            {
              "pitch": 108,
              "velocity": 70,
              "position": 8.25,
              "duration": 0.23541666666666666
            },
            {
              "pitch": 107,
              "velocity": 70,
              "position": 8.5,
              "duration": 0.23541666666666666
            },
            {
              "pitch": 74,
              "velocity": 35,
              "position": 8.75,
              "duration": 0.20416666666666666
            },
            {
              "pitch": 69,
              "velocity": 35,
              "position": 8.760416666666666,
              "duration": 0.21458333333333332
            },
            {
              "pitch": 105,
              "velocity": 87,
              "position": 8.75,
              "duration": 0.23541666666666666
            },
            {
              "pitch": 65,
              "velocity": 35,
              "position": 8.770833333333334,
              "duration": 0.23541666666666666
            },
            {
              "pitch": 59,
              "velocity": 29,
              "position": 8.78125,
              "duration": 0.25625
            },
            {
              "pitch": 107,
              "velocity": 70,
              "position": 9,
              "duration": 0.23541666666666666
            },
            {
              "pitch": 108,
              "velocity": 70,
              "position": 9.25,
              "duration": 0.23541666666666666
            },
            {
              "pitch": 106,
              "velocity": 87,
              "position": 9.5,
              "duration": 0.23541666666666666
            },
            {
              "pitch": 74,
              "velocity": 35,
              "position": 9.53125,
              "duration": 0.20416666666666666
            },
            {
              "pitch": 69,
              "velocity": 35,
              "position": 9.520833333333334,
              "duration": 0.21458333333333332
            },
            {
              "pitch": 65,
              "velocity": 35,
              "position": 9.510416666666666,
              "duration": 0.23541666666666666
            },
            {
              "pitch": 59,
              "velocity": 29,
              "position": 9.5,
              "duration": 0.25625
            },
            {
              "pitch": 108,
              "velocity": 70,
              "position": 9.75,
              "duration": 0.23541666666666666
            },
            {
              "pitch": 107,
              "velocity": 70,
              "position": 10,
              "duration": 0.23541666666666666
            },
            {
              "pitch": 108,
              "velocity": 70,
              "position": 10.25,
              "duration": 0.23541666666666666
            },
            {
              "pitch": 74,
              "velocity": 35,
              "position": 10.28125,
              "duration": 0.20416666666666666
            },
            {
              "pitch": 69,
              "velocity": 35,
              "position": 10.270833333333334,
              "duration": 0.21458333333333332
            },
            {
              "pitch": 65,
              "velocity": 35,
              "position": 10.260416666666666,
              "duration": 0.23541666666666666
            },
            {
              "pitch": 59,
              "velocity": 29,
              "position": 10.25,
              "duration": 0.25625
            },
            {
              "pitch": 106,
              "velocity": 87,
              "position": 10.5,
              "duration": 0.23541666666666666
            },
            {
              "pitch": 108,
              "velocity": 70,
              "position": 10.75,
              "duration": 0.23541666666666666
            },
            {
              "pitch": 59,
              "velocity": 29,
              "position": 11,
              "duration": 0.23541666666666666
            },
            {
              "pitch": 107,
              "velocity": 70,
              "position": 11,
              "duration": 0.23541666666666666
            },
            {
              "pitch": 69,
              "velocity": 35,
              "position": 11.020833333333334,
              "duration": 0.21458333333333332
            },
            {
              "pitch": 65,
              "velocity": 35,
              "position": 11.010416666666666,
              "duration": 0.225
            },
            {
              "pitch": 74,
              "velocity": 35,
              "position": 11.03125,
              "duration": 0.45416666666666666
            },
            {
              "pitch": 59,
              "velocity": 22,
              "position": 11.270833333333334,
              "duration": 0.21458333333333332
            },
            {
              "pitch": 105,
              "velocity": 87,
              "position": 11.25,
              "duration": 0.23541666666666666
            },
            {
              "pitch": 65,
              "velocity": 22,
              "position": 11.260416666666666,
              "duration": 0.23541666666666666
            },
            {
              "pitch": 69,
              "velocity": 22,
              "position": 11.25,
              "duration": 0.25625
            },
            {
              "pitch": 107,
              "velocity": 70,
              "position": 11.5,
              "duration": 0.23541666666666666
            },
            {
              "pitch": 108,
              "velocity": 70,
              "position": 11.75,
              "duration": 0.23541666666666666
            },
            {
              "pitch": 106,
              "velocity": 87,
              "position": 12,
              "duration": 0.23541666666666666
            },
            {
              "pitch": 72,
              "velocity": 35,
              "position": 12.03125,
              "duration": 0.20416666666666666
            },
            {
              "pitch": 67,
              "velocity": 35,
              "position": 12.020833333333334,
              "duration": 0.21458333333333332
            },
            {
              "pitch": 63,
              "velocity": 35,
              "position": 12.010416666666666,
              "duration": 0.23541666666666666
            },
            {
              "pitch": 108,
              "velocity": 70,
              "position": 12.25,
              "duration": 0.23541666666666666
            },
            {
              "pitch": 72,
              "velocity": 35,
              "position": 12.5,
              "duration": 0.20416666666666666
            },
            {
              "pitch": 67,
              "velocity": 35,
              "position": 12.510416666666666,
              "duration": 0.21458333333333332
            },
            {
              "pitch": 106,
              "velocity": 87,
              "position": 12.5,
              "duration": 0.23541666666666666
            },
            {
              "pitch": 63,
              "velocity": 35,
              "position": 12.520833333333334,
              "duration": 0.23541666666666666
            },
            {
              "pitch": 58,
              "velocity": 29,
              "position": 12.53125,
              "duration": 0.25625
            },
            {
              "pitch": 108,
              "velocity": 70,
              "position": 12.75,
              "duration": 0.23541666666666666
            },
            {
              "pitch": 106,
              "velocity": 87,
              "position": 13,
              "duration": 0.23541666666666666
            },
            {
              "pitch": 72,
              "velocity": 35,
              "position": 13.03125,
              "duration": 0.20416666666666666
            },
            {
              "pitch": 67,
              "velocity": 35,
              "position": 13.020833333333334,
              "duration": 0.21458333333333332
            },
            {
              "pitch": 63,
              "velocity": 35,
              "position": 13.010416666666666,
              "duration": 0.23541666666666666
            },
            {
              "pitch": 58,
              "velocity": 29,
              "position": 13,
              "duration": 0.25625
            },
            {
              "pitch": 108,
              "velocity": 70,
              "position": 13.25,
              "duration": 0.23541666666666666
            },
            {
              "pitch": 106,
              "velocity": 87,
              "position": 13.5,
              "duration": 0.23541666666666666
            },
            {
              "pitch": 72,
              "velocity": 35,
              "position": 13.53125,
              "duration": 0.20416666666666666
            },
            {
              "pitch": 67,
              "velocity": 35,
              "position": 13.520833333333334,
              "duration": 0.21458333333333332
            },
            {
              "pitch": 63,
              "velocity": 35,
              "position": 13.510416666666666,
              "duration": 0.23541666666666666
            },
            {
              "pitch": 58,
              "velocity": 29,
              "position": 13.5,
              "duration": 0.25625
            },
            {
              "pitch": 108,
              "velocity": 70,
              "position": 13.75,
              "duration": 0.23541666666666666
            },
            {
              "pitch": 106,
              "velocity": 87,
              "position": 14,
              "duration": 0.23541666666666666
            },
            {
              "pitch": 72,
              "velocity": 35,
              "position": 14.03125,
              "duration": 0.45416666666666666
            },
            {
              "pitch": 67,
              "velocity": 35,
              "position": 14.020833333333334,
              "duration": 0.46458333333333335
            },
            {
              "pitch": 63,
              "velocity": 35,
              "position": 14.010416666666666,
              "duration": 0.48541666666666666
            },
            {
              "pitch": 58,
              "velocity": 29,
              "position": 14,
              "duration": 0.50625
            }
          ]
        },
        "3": {
          "ctab": {
            "srcChannel": 3,
            "name": "C2",
            "accType": "CHORD2",
            "editable": false,
            "mutedNotes": [],
            "mutedChords": [
              "1+2+5",
              "sus4",
              "1+5",
              "1+8",
              "7aug",
              "Maj7aug",
              "7(#9)",
              "7(b13)",
              "7(b9)",
              "7(13)",
              "7#11",
              "7(9)",
              "7b5",
              "7sus4",
              "7th",
              "aug",
              "Maj6(9)",
              "Maj7(9)",
              "Maj(9)",
              "Maj7#11",
              "Maj7",
              "Maj6",
              "Maj"
            ],
            "autoStart": false,
            "sourceChordNote": 0,
            "sourceChordType": "min",
            "ctb2Low": null,
            "ctb2Main": {
              "ntr": "ROOT_TRANSPOSITION",
              "ntt": "BYPASS",
              "bassOn": false,
              "chordRootUpperLimit": 8,
              "noteLowLimit": 0,
              "noteHighLimit": 79,
              "rtr": "PITCH_SHIFT"
            },
            "ctb2High": null
          },
          "notes": [
            {
              "pitch": 63,
              "velocity": 95,
              "position": 6.533333333333333,
              "duration": 0.016666666666666666
            },
            {
              "pitch": 56,
              "velocity": 121,
              "position": 6.522916666666666,
              "duration": 0.0375
            },
            {
              "pitch": 58,
              "velocity": 121,
              "position": 6.529166666666667,
              "duration": 0.0375
            },
            {
              "pitch": 60,
              "velocity": 102,
              "position": 6.539583333333334,
              "duration": 0.03125
            },
            {
              "pitch": 59,
              "velocity": 110,
              "position": 6.535416666666666,
              "duration": 0.0375
            },
            {
              "pitch": 57,
              "velocity": 87,
              "position": 6.55,
              "duration": 0.0375
            },
            {
              "pitch": 62,
              "velocity": 85,
              "position": 6.545833333333333,
              "duration": 0.04791666666666667
            },
            {
              "pitch": 64,
              "velocity": 65,
              "position": 6.54375,
              "duration": 0.05625
            },
            {
              "pitch": 61,
              "velocity": 118,
              "position": 6.525,
              "duration": 0.08541666666666667
            },
            {
              "pitch": 50,
              "velocity": 118,
              "position": 6.797916666666667,
              "duration": 0.027083333333333334
            },
            {
              "pitch": 53,
              "velocity": 118,
              "position": 6.795833333333333,
              "duration": 0.04583333333333333
            },
            {
              "pitch": 48,
              "velocity": 110,
              "position": 6.789583333333334,
              "duration": 0.05416666666666667
            },
            {
              "pitch": 52,
              "velocity": 116,
              "position": 6.795833333333333,
              "duration": 0.05
            },
            {
              "pitch": 66,
              "velocity": 102,
              "position": 7.010416666666667,
              "duration": 0.19166666666666668
            },
            {
              "pitch": 72,
              "velocity": 89,
              "position": 7.014583333333333,
              "duration": 0.34375
            },
            {
              "pitch": 67,
              "velocity": 67,
              "position": 7.204166666666667,
              "duration": 0.1625
            },
            {
              "pitch": 66,
              "velocity": 91,
              "position": 7.541666666666667,
              "duration": 0.14791666666666667
            },
            {
              "pitch": 67,
              "velocity": 77,
              "position": 7.672916666666667,
              "duration": 0.13958333333333334
            },
            {
              "pitch": 72,
              "velocity": 89,
              "position": 7.54375,
              "duration": 0.29791666666666666
            },
            {
              "pitch": 72,
              "velocity": 84,
              "position": 12,
              "duration": 0.26875
            },
            {
              "pitch": 75,
              "velocity": 78,
              "position": 12,
              "duration": 0.29375
            },
            {
              "pitch": 79,
              "velocity": 76,
              "position": 12,
              "duration": 0.3229166666666667
            },
            {
              "pitch": 84,
              "velocity": 71,
              "position": 12,
              "duration": 0.3333333333333333
            },
            {
              "pitch": 75,
              "velocity": 79,
              "position": 12.5,
              "duration": 0.24375
            },
            {
              "pitch": 72,
              "velocity": 90,
              "position": 12.5,
              "duration": 0.24583333333333332
            },
            {
              "pitch": 79,
              "velocity": 79,
              "position": 12.5,
              "duration": 0.27291666666666664
            },
            {
              "pitch": 84,
              "velocity": 77,
              "position": 12.5,
              "duration": 0.27708333333333335
            },
            {
              "pitch": 75,
              "velocity": 82,
              "position": 13,
              "duration": 0.23958333333333334
            },
            {
              "pitch": 72,
              "velocity": 88,
              "position": 13,
              "duration": 0.24166666666666667
            },
            {
              "pitch": 79,
              "velocity": 79,
              "position": 13,
              "duration": 0.26666666666666666
            },
            {
              "pitch": 84,
              "velocity": 78,
              "position": 13,
              "duration": 0.27291666666666664
            },
            {
              "pitch": 75,
              "velocity": 96,
              "position": 13.5,
              "duration": 0.18125
            },
            {
              "pitch": 72,
              "velocity": 101,
              "position": 13.5,
              "duration": 0.1875
            },
            {
              "pitch": 79,
              "velocity": 96,
              "position": 13.5,
              "duration": 0.21458333333333332
            },
            {
              "pitch": 84,
              "velocity": 84,
              "position": 13.5,
              "duration": 0.24166666666666667
            },
            {
              "pitch": 72,
              "velocity": 112,
              "position": 14.004166666666666,
              "duration": 0.24583333333333332
            },
            {
              "pitch": 79,
              "velocity": 109,
              "position": 14.010416666666666,
              "duration": 0.33541666666666664
            },
            {
              "pitch": 84,
              "velocity": 99,
              "position": 14.002083333333333,
              "duration": 0.39375
            },
            {
              "pitch": 75,
              "velocity": 103,
              "position": 14.0125,
              "duration": 0.46458333333333335
            },
            {
              "pitch": 79,
              "velocity": 31,
              "position": 14.43125,
              "duration": 0.05416666666666667
            },
            {
              "pitch": 77,
              "velocity": 65,
              "position": 14.485416666666667,
              "duration": 0.0375
            },
            {
              "pitch": 76,
              "velocity": 81,
              "position": 14.51875,
              "duration": 0.04791666666666667
            },
            {
              "pitch": 74,
              "velocity": 54,
              "position": 14.558333333333334,
              "duration": 0.05
            }
          ]
        },
        "4": {
          "ctab": {
            "srcChannel": 4,
            "name": "Pad",
            "accType": "PAD",
            "editable": false,
            "mutedNotes": [],
            "mutedChords": [
              "1+2+5",
              "sus4",
              "1+5",
              "1+8",
              "7aug",
              "Maj7aug",
              "7(#9)",
              "7(b13)",
              "7(b9)",
              "7(13)",
              "7#11",
              "7(9)",
              "7b5",
              "7sus4",
              "7th",
              "aug",
              "Maj6(9)",
              "Maj7(9)",
              "Maj(9)",
              "Maj7#11",
              "Maj7",
              "Maj6",
              "Maj"
            ],
            "autoStart": false,
            "sourceChordNote": 0,
            "sourceChordType": "min",
            "ctb2Low": null,
            "ctb2Main": {
              "ntr": "ROOT_TRANSPOSITION",
              "ntt": "BYPASS",
              "bassOn": false,
              "chordRootUpperLimit": 3,
              "noteLowLimit": 0,
              "noteHighLimit": 79,
              "rtr": "PITCH_SHIFT"
            },
            "ctb2High": null
          },
          "notes": [
            {
              "pitch": 63,
              "velocity": 78,
              "position": 3.25,
              "duration": 0.23541666666666666
            },
            {
              "pitch": 67,
              "velocity": 87,
              "position": 3.25,
              "duration": 0.23541666666666666
            },
            {
              "pitch": 64,
              "velocity": 78,
              "position": 3.5,
              "duration": 0.23541666666666666
            },
            {
              "pitch": 68,
              "velocity": 87,
              "position": 3.5,
              "duration": 0.23541666666666666
            },
            {
              "pitch": 65,
              "velocity": 78,
              "position": 3.75,
              "duration": 0.23541666666666666
            },
            {
              "pitch": 69,
              "velocity": 87,
              "position": 3.75,
              "duration": 0.23541666666666666
            },
            {
              "pitch": 79,
              "velocity": 78,
              "position": 4.489583333333333,
              "duration": 0.17291666666666666
            },
            {
              "pitch": 75,
              "velocity": 87,
              "position": 4.5,
              "duration": 0.18333333333333332
            },
            {
              "pitch": 77,
              "velocity": 78,
              "position": 4.989583333333333,
              "duration": 0.23541666666666666
            },
            {
              "pitch": 74,
              "velocity": 87,
              "position": 4.989583333333333,
              "duration": 0.24583333333333332
            },
            {
              "pitch": 75,
              "velocity": 78,
              "position": 5.239583333333333,
              "duration": 0.19375
            },
            {
              "pitch": 72,
              "velocity": 87,
              "position": 5.25,
              "duration": 0.18333333333333332
            },
            {
              "pitch": 74,
              "velocity": 81,
              "position": 8.489583333333334,
              "duration": 0.18333333333333332
            },
            {
              "pitch": 79,
              "velocity": 85,
              "position": 8.5,
              "duration": 0.19375
            },
            {
              "pitch": 74,
              "velocity": 81,
              "position": 9.25,
              "duration": 0.18333333333333332
            },
            {
              "pitch": 79,
              "velocity": 85,
              "position": 9.25,
              "duration": 0.19375
            },
            {
              "pitch": 74,
              "velocity": 81,
              "position": 9.989583333333334,
              "duration": 0.19375
            },
            {
              "pitch": 79,
              "velocity": 85,
              "position": 9.989583333333334,
              "duration": 0.19375
            },
            {
              "pitch": 74,
              "velocity": 81,
              "position": 10.739583333333334,
              "duration": 0.19375
            },
            {
              "pitch": 79,
              "velocity": 85,
              "position": 10.739583333333334,
              "duration": 0.19375
            },
            {
              "pitch": 77,
              "velocity": 81,
              "position": 11.489583333333334,
              "duration": 0.23541666666666666
            },
            {
              "pitch": 82,
              "velocity": 85,
              "position": 11.489583333333334,
              "duration": 0.23541666666666666
            },
            {
              "pitch": 78,
              "velocity": 81,
              "position": 11.739583333333334,
              "duration": 0.23541666666666666
            },
            {
              "pitch": 83,
              "velocity": 85,
              "position": 11.739583333333334,
              "duration": 0.23541666666666666
            },
            {
              "pitch": 79,
              "velocity": 81,
              "position": 11.989583333333334,
              "duration": 0.21458333333333332
            },
            {
              "pitch": 84,
              "velocity": 85,
              "position": 12,
              "duration": 0.21458333333333332
            },
            {
              "pitch": 79,
              "velocity": 81,
              "position": 12.5,
              "duration": 0.20416666666666666
            },
            {
              "pitch": 84,
              "velocity": 85,
              "position": 12.5,
              "duration": 0.21458333333333332
            },
            {
              "pitch": 84,
              "velocity": 87,
              "position": 12.989583333333334,
              "duration": 0.21458333333333332
            },
            {
              "pitch": 79,
              "velocity": 81,
              "position": 12.989583333333334,
              "duration": 0.225
            },
            {
              "pitch": 79,
              "velocity": 81,
              "position": 13.5,
              "duration": 0.20416666666666666
            },
            {
              "pitch": 84,
              "velocity": 90,
              "position": 13.5,
              "duration": 0.21458333333333332
            },
            {
              "pitch": 79,
              "velocity": 81,
              "position": 13.989583333333334,
              "duration": 0.56875
            },
            {
              "pitch": 84,
              "velocity": 90,
              "position": 14,
              "duration": 0.56875
            }
          ]
        },
        "5": {
          "ctab": {
            "srcChannel": 5,
            "name": "P1",
            "accType": "PHRASE1",
            "editable": false,
            "mutedNotes": [],
            "mutedChords": [
              "1+2+5",
              "sus4",
              "1+5",
              "1+8",
              "7aug",
              "Maj7aug",
              "7(#9)",
              "7(b13)",
              "7(b9)",
              "7(13)",
              "7#11",
              "7(9)",
              "7b5",
              "7sus4",
              "7th",
              "aug",
              "Maj6(9)",
              "Maj7(9)",
              "Maj(9)",
              "Maj7#11",
              "Maj7",
              "Maj6",
              "Maj"
            ],
            "autoStart": false,
            "sourceChordNote": 0,
            "sourceChordType": "min",
            "ctb2Low": null,
            "ctb2Main": {
              "ntr": "ROOT_TRANSPOSITION",
              "ntt": "BYPASS",
              "bassOn": false,
              "chordRootUpperLimit": 2,
              "noteLowLimit": 0,
              "noteHighLimit": 127,
              "rtr": "PITCH_SHIFT"
            },
            "ctb2High": null
          },
          "notes": [
            {
              "pitch": 66,
              "velocity": 120,
              "position": 0.010416666666666666,
              "duration": 2.995833333333333
            },
            {
              "pitch": 70,
              "velocity": 120,
              "position": 0.010416666666666666,
              "duration": 2.995833333333333
            },
            {
              "pitch": 63,
              "velocity": 60,
              "position": 3.28125,
              "duration": 0.23541666666666666
            },
            {
              "pitch": 67,
              "velocity": 60,
              "position": 3.28125,
              "duration": 0.23541666666666666
            },
            {
              "pitch": 64,
              "velocity": 81,
              "position": 3.53125,
              "duration": 0.23541666666666666
            },
            {
              "pitch": 68,
              "velocity": 81,
              "position": 3.53125,
              "duration": 0.23541666666666666
            },
            {
              "pitch": 65,
              "velocity": 101,
              "position": 3.78125,
              "duration": 0.23541666666666666
            },
            {
              "pitch": 69,
              "velocity": 101,
              "position": 3.78125,
              "duration": 0.23541666666666666
            },
            {
              "pitch": 70,
              "velocity": 40,
              "position": 4.5,
              "duration": 0.18333333333333332
            },
            {
              "pitch": 63,
              "velocity": 101,
              "position": 4.53125,
              "duration": 0.19375
            },
            {
              "pitch": 62,
              "velocity": 92,
              "position": 5,
              "duration": 0.225
            },
            {
              "pitch": 69,
              "velocity": 39,
              "position": 5,
              "duration": 0.23541666666666666
            },
            {
              "pitch": 60,
              "velocity": 101,
              "position": 5.239583333333333,
              "duration": 0.1625
            },
            {
              "pitch": 67,
              "velocity": 36,
              "position": 5.25,
              "duration": 0.17291666666666666
            },
            {
              "pitch": 69,
              "velocity": 125,
              "position": 8.489583333333334,
              "duration": 0.17291666666666666
            },
            {
              "pitch": 65,
              "velocity": 117,
              "position": 8.489583333333334,
              "duration": 0.18333333333333332
            },
            {
              "pitch": 69,
              "velocity": 115,
              "position": 9.25,
              "duration": 0.1625
            },
            {
              "pitch": 65,
              "velocity": 127,
              "position": 9.25,
              "duration": 0.18333333333333332
            },
            {
              "pitch": 65,
              "velocity": 123,
              "position": 10,
              "duration": 0.17291666666666666
            },
            {
              "pitch": 69,
              "velocity": 124,
              "position": 9.989583333333334,
              "duration": 0.19375
            },
            {
              "pitch": 65,
              "velocity": 123,
              "position": 10.75,
              "duration": 0.17291666666666666
            },
            {
              "pitch": 69,
              "velocity": 124,
              "position": 10.739583333333334,
              "duration": 0.19375
            },
            {
              "pitch": 68,
              "velocity": 69,
              "position": 11.489583333333334,
              "duration": 0.23541666666666666
            },
            {
              "pitch": 73,
              "velocity": 77,
              "position": 11.489583333333334,
              "duration": 0.23541666666666666
            },
            {
              "pitch": 69,
              "velocity": 84,
              "position": 11.739583333333334,
              "duration": 0.23541666666666666
            },
            {
              "pitch": 74,
              "velocity": 92,
              "position": 11.739583333333334,
              "duration": 0.23541666666666666
            },
            {
              "pitch": 75,
              "velocity": 125,
              "position": 11.989583333333334,
              "duration": 0.17291666666666666
            },
            {
              "pitch": 70,
              "velocity": 117,
              "position": 11.989583333333334,
              "duration": 0.18333333333333332
            },
            {
              "pitch": 75,
              "velocity": 115,
              "position": 12.5,
              "duration": 0.1625
            },
            {
              "pitch": 70,
              "velocity": 127,
              "position": 12.5,
              "duration": 0.18333333333333332
            },
            {
              "pitch": 70,
              "velocity": 123,
              "position": 13,
              "duration": 0.17291666666666666
            },
            {
              "pitch": 75,
              "velocity": 124,
              "position": 12.989583333333334,
              "duration": 0.19375
            },
            {
              "pitch": 70,
              "velocity": 123,
              "position": 13.5,
              "duration": 0.17291666666666666
            },
            {
              "pitch": 75,
              "velocity": 124,
              "position": 13.489583333333334,
              "duration": 0.19375
            },
            {
              "pitch": 70,
              "velocity": 123,
              "position": 14,
              "duration": 0.5479166666666667
            },
            {
              "pitch": 75,
              "velocity": 124,
              "position": 13.989583333333334,
              "duration": 0.56875
            }
          ]
        },
        "6": {
          "ctab": {
            "srcChannel": 6,
            "name": "P2",
            "accType": "PHRASE2",
            "editable": false,
            "mutedNotes": [],
            "mutedChords": [
              "1+2+5",
              "sus4",
              "1+5",
              "1+8",
              "7aug",
              "Maj7aug",
              "7(#9)",
              "7(b13)",
              "7(b9)",
              "7(13)",
              "7#11",
              "7(9)",
              "7b5",
              "7sus4",
              "7th",
              "aug",
              "Maj6(9)",
              "Maj7(9)",
              "Maj(9)",
              "Maj7#11",
              "Maj7",
              "Maj6",
              "Maj"
            ],
            "autoStart": false,
            "sourceChordNote": 0,
            "sourceChordType": "min",
            "ctb2Low": null,
            "ctb2Main": {
              "ntr": "ROOT_TRANSPOSITION",
              "ntt": "BYPASS",
              "bassOn": false,
              "chordRootUpperLimit": 2,
              "noteLowLimit": 33,
              "noteHighLimit": 127,
              "rtr": "PITCH_SHIFT"
            },
            "ctb2High": null
          },
          "notes": [
            {
              "pitch": 60,
              "velocity": 65,
              "position": 0.010416666666666666,
              "duration": 2.933333333333333
            },
            {
              "pitch": 27,
              "velocity": 120,
              "position": 3.2395833333333335,
              "duration": 0.23541666666666666
            },
            {
              "pitch": 28,
              "velocity": 120,
              "position": 3.4895833333333335,
              "duration": 0.23541666666666666
            },
            {
              "pitch": 29,
              "velocity": 120,
              "position": 3.7395833333333335,
              "duration": 0.1625
            },
            {
              "pitch": 29,
              "velocity": 120,
              "position": 4.239583333333333,
              "duration": 0.1625
            },
            {
              "pitch": 67,
              "velocity": 80,
              "position": 4.5,
              "duration": 0.18333333333333332
            },
            {
              "pitch": 65,
              "velocity": 77,
              "position": 5,
              "duration": 0.23541666666666666
            },
            {
              "pitch": 63,
              "velocity": 73,
              "position": 5.25,
              "duration": 0.17291666666666666
            },
            {
              "pitch": 29,
              "velocity": 120,
              "position": 5.489583333333333,
              "duration": 0.1625
            },
            {
              "pitch": 59,
              "velocity": 77,
              "position": 8.489583333333334,
              "duration": 0.17291666666666666
            },
            {
              "pitch": 31,
              "velocity": 120,
              "position": 8.739583333333334,
              "duration": 0.1625
            },
            {
              "pitch": 59,
              "velocity": 80,
              "position": 9.239583333333334,
              "duration": 0.18333333333333332
            },
            {
              "pitch": 31,
              "velocity": 115,
              "position": 9.5,
              "duration": 0.1625
            },
            {
              "pitch": 59,
              "velocity": 76,
              "position": 10,
              "duration": 0.18333333333333332
            },
            {
              "pitch": 61,
              "velocity": 74,
              "position": 11.489583333333334,
              "duration": 0.23541666666666666
            },
            {
              "pitch": 62,
              "velocity": 74,
              "position": 11.739583333333334,
              "duration": 0.23541666666666666
            },
            {
              "pitch": 63,
              "velocity": 74,
              "position": 11.989583333333334,
              "duration": 0.17291666666666666
            },
            {
              "pitch": 24,
              "velocity": 122,
              "position": 12.489583333333334,
              "duration": 0.17291666666666666
            },
            {
              "pitch": 24,
              "velocity": 122,
              "position": 12.989583333333334,
              "duration": 0.17291666666666666
            },
            {
              "pitch": 24,
              "velocity": 122,
              "position": 13.489583333333334,
              "duration": 0.17291666666666666
            },
            {
              "pitch": 24,
              "velocity": 122,
              "position": 13.989583333333334,
              "duration": 0.5479166666666667
            }
          ]
        },
        "8": {
          "ctab": {
            "srcChannel": 8,
            "name": "Perc",
            "accType": "SUBRHYTHM",
            "editable": false,
            "mutedNotes": [],
            "mutedChords": [],
            "autoStart": true,
            "sourceChordNote": 0,
            "sourceChordType": "Maj7",
            "ctb2Low": null,
            "ctb2Main": {
              "ntr": "ROOT_FIXED",
              "ntt": "BYPASS",
              "bassOn": false,
              "chordRootUpperLimit": 6,
              "noteLowLimit": 0,
              "noteHighLimit": 127,
              "rtr": "PITCH_SHIFT"
            },
            "ctb2High": null
          },
          "notes": [
            {
              "pitch": 82,
              "velocity": 60,
              "position": 0,
              "duration": 0.00625
            },
            {
              "pitch": 54,
              "velocity": 30,
              "position": 0.25,
              "duration": 0.00625
            },
            {
              "pitch": 82,
              "velocity": 30,
              "position": 0.25,
              "duration": 0.00625
            },
            {
              "pitch": 54,
              "velocity": 60,
              "position": 0.5,
              "duration": 0.00625
            },
            {
              "pitch": 82,
              "velocity": 80,
              "position": 0.5,
              "duration": 0.00625
            },
            {
              "pitch": 54,
              "velocity": 30,
              "position": 0.75,
              "duration": 0.00625
            },
            {
              "pitch": 82,
              "velocity": 30,
              "position": 0.75,
              "duration": 0.00625
            },
            {
              "pitch": 54,
              "velocity": 80,
              "position": 1,
              "duration": 0.00625
            },
            {
              "pitch": 82,
              "velocity": 60,
              "position": 1,
              "duration": 0.00625
            },
            {
              "pitch": 54,
              "velocity": 30,
              "position": 1.25,
              "duration": 0.00625
            },
            {
              "pitch": 82,
              "velocity": 30,
              "position": 1.25,
              "duration": 0.00625
            },
            {
              "pitch": 54,
              "velocity": 60,
              "position": 1.5,
              "duration": 0.00625
            },
            {
              "pitch": 82,
              "velocity": 80,
              "position": 1.5,
              "duration": 0.00625
            },
            {
              "pitch": 54,
              "velocity": 30,
              "position": 1.75,
              "duration": 0.00625
            },
            {
              "pitch": 82,
              "velocity": 30,
              "position": 1.75,
              "duration": 0.00625
            },
            {
              "pitch": 54,
              "velocity": 80,
              "position": 2,
              "duration": 0.00625
            },
            {
              "pitch": 82,
              "velocity": 60,
              "position": 2,
              "duration": 0.00625
            },
            {
              "pitch": 54,
              "velocity": 30,
              "position": 2.25,
              "duration": 0.00625
            },
            {
              "pitch": 82,
              "velocity": 30,
              "position": 2.25,
              "duration": 0.00625
            },
            {
              "pitch": 54,
              "velocity": 60,
              "position": 2.5,
              "duration": 0.00625
            },
            {
              "pitch": 82,
              "velocity": 80,
              "position": 2.5,
              "duration": 0.00625
            },
            {
              "pitch": 54,
              "velocity": 30,
              "position": 2.75,
              "duration": 0.00625
            },
            {
              "pitch": 82,
              "velocity": 30,
              "position": 2.75,
              "duration": 0.00625
            },
            {
              "pitch": 54,
              "velocity": 80,
              "position": 3,
              "duration": 0.00625
            },
            {
              "pitch": 82,
              "velocity": 60,
              "position": 3,
              "duration": 0.00625
            },
            {
              "pitch": 54,
              "velocity": 30,
              "position": 3.25,
              "duration": 0.00625
            },
            {
              "pitch": 82,
              "velocity": 30,
              "position": 3.25,
              "duration": 0.00625
            },
            {
              "pitch": 54,
              "velocity": 60,
              "position": 3.5,
              "duration": 0.00625
            },
            {
              "pitch": 82,
              "velocity": 80,
              "position": 3.5,
              "duration": 0.00625
            },
            {
              "pitch": 54,
              "velocity": 30,
              "position": 3.75,
              "duration": 0.00625
            },
            {
              "pitch": 82,
              "velocity": 30,
              "position": 3.75,
              "duration": 0.00625
            },
            {
              "pitch": 54,
              "velocity": 80,
              "position": 4,
              "duration": 0.00625
            },
            {
              "pitch": 82,
              "velocity": 60,
              "position": 4,
              "duration": 0.00625
            },
            {
              "pitch": 54,
              "velocity": 30,
              "position": 4.25,
              "duration": 0.00625
            },
            {
              "pitch": 82,
              "velocity": 30,
              "position": 4.25,
              "duration": 0.00625
            },
            {
              "pitch": 54,
              "velocity": 60,
              "position": 4.5,
              "duration": 0.00625
            },
            {
              "pitch": 82,
              "velocity": 80,
              "position": 4.5,
              "duration": 0.00625
            },
            {
              "pitch": 54,
              "velocity": 30,
              "position": 4.75,
              "duration": 0.00625
            },
            {
              "pitch": 82,
              "velocity": 30,
              "position": 4.75,
              "duration": 0.00625
            },
            {
              "pitch": 54,
              "velocity": 80,
              "position": 5,
              "duration": 0.00625
            },
            {
              "pitch": 82,
              "velocity": 60,
              "position": 5,
              "duration": 0.00625
            },
            {
              "pitch": 54,
              "velocity": 30,
              "position": 5.25,
              "duration": 0.00625
            },
            {
              "pitch": 82,
              "velocity": 30,
              "position": 5.25,
              "duration": 0.00625
            },
            {
              "pitch": 54,
              "velocity": 60,
              "position": 5.5,
              "duration": 0.00625
            },
            {
              "pitch": 82,
              "velocity": 80,
              "position": 5.5,
              "duration": 0.00625
            },
            {
              "pitch": 54,
              "velocity": 30,
              "position": 5.75,
              "duration": 0.00625
            },
            {
              "pitch": 82,
              "velocity": 30,
              "position": 5.75,
              "duration": 0.00625
            },
            {
              "pitch": 54,
              "velocity": 80,
              "position": 6,
              "duration": 0.00625
            },
            {
              "pitch": 82,
              "velocity": 60,
              "position": 6,
              "duration": 0.00625
            },
            {
              "pitch": 54,
              "velocity": 30,
              "position": 6.25,
              "duration": 0.00625
            },
            {
              "pitch": 82,
              "velocity": 30,
              "position": 6.25,
              "duration": 0.00625
            },
            {
              "pitch": 54,
              "velocity": 60,
              "position": 6.5,
              "duration": 0.00625
            },
            {
              "pitch": 82,
              "velocity": 80,
              "position": 6.5,
              "duration": 0.00625
            },
            {
              "pitch": 54,
              "velocity": 30,
              "position": 6.75,
              "duration": 0.00625
            },
            {
              "pitch": 82,
              "velocity": 30,
              "position": 6.75,
              "duration": 0.00625
            },
            {
              "pitch": 54,
              "velocity": 80,
              "position": 7,
              "duration": 0.00625
            },
            {
              "pitch": 82,
              "velocity": 60,
              "position": 7,
              "duration": 0.00625
            },
            {
              "pitch": 54,
              "velocity": 30,
              "position": 7.25,
              "duration": 0.00625
            },
            {
              "pitch": 82,
              "velocity": 30,
              "position": 7.25,
              "duration": 0.00625
            },
            {
              "pitch": 54,
              "velocity": 60,
              "position": 7.5,
              "duration": 0.00625
            },
            {
              "pitch": 82,
              "velocity": 80,
              "position": 7.5,
              "duration": 0.00625
            },
            {
              "pitch": 54,
              "velocity": 30,
              "position": 7.75,
              "duration": 0.00625
            },
            {
              "pitch": 82,
              "velocity": 30,
              "position": 7.75,
              "duration": 0.00625
            },
            {
              "pitch": 54,
              "velocity": 80,
              "position": 8,
              "duration": 0.00625
            },
            {
              "pitch": 82,
              "velocity": 60,
              "position": 8,
              "duration": 0.00625
            },
            {
              "pitch": 54,
              "velocity": 30,
              "position": 8.25,
              "duration": 0.00625
            },
            {
              "pitch": 82,
              "velocity": 30,
              "position": 8.25,
              "duration": 0.00625
            },
            {
              "pitch": 54,
              "velocity": 60,
              "position": 8.5,
              "duration": 0.00625
            },
            {
              "pitch": 82,
              "velocity": 80,
              "position": 8.5,
              "duration": 0.00625
            },
            {
              "pitch": 54,
              "velocity": 30,
              "position": 8.75,
              "duration": 0.00625
            },
            {
              "pitch": 82,
              "velocity": 30,
              "position": 8.75,
              "duration": 0.00625
            },
            {
              "pitch": 54,
              "velocity": 80,
              "position": 9,
              "duration": 0.00625
            },
            {
              "pitch": 82,
              "velocity": 60,
              "position": 9,
              "duration": 0.00625
            },
            {
              "pitch": 54,
              "velocity": 30,
              "position": 9.25,
              "duration": 0.00625
            },
            {
              "pitch": 82,
              "velocity": 30,
              "position": 9.25,
              "duration": 0.00625
            },
            {
              "pitch": 54,
              "velocity": 60,
              "position": 9.5,
              "duration": 0.00625
            },
            {
              "pitch": 82,
              "velocity": 80,
              "position": 9.5,
              "duration": 0.00625
            },
            {
              "pitch": 54,
              "velocity": 30,
              "position": 9.75,
              "duration": 0.00625
            },
            {
              "pitch": 82,
              "velocity": 30,
              "position": 9.75,
              "duration": 0.00625
            },
            {
              "pitch": 54,
              "velocity": 80,
              "position": 10,
              "duration": 0.00625
            },
            {
              "pitch": 82,
              "velocity": 60,
              "position": 10,
              "duration": 0.00625
            },
            {
              "pitch": 54,
              "velocity": 30,
              "position": 10.25,
              "duration": 0.00625
            },
            {
              "pitch": 82,
              "velocity": 30,
              "position": 10.25,
              "duration": 0.00625
            },
            {
              "pitch": 54,
              "velocity": 60,
              "position": 10.5,
              "duration": 0.00625
            },
            {
              "pitch": 82,
              "velocity": 80,
              "position": 10.5,
              "duration": 0.00625
            },
            {
              "pitch": 54,
              "velocity": 30,
              "position": 10.75,
              "duration": 0.00625
            },
            {
              "pitch": 82,
              "velocity": 30,
              "position": 10.75,
              "duration": 0.00625
            },
            {
              "pitch": 54,
              "velocity": 80,
              "position": 11,
              "duration": 0.00625
            },
            {
              "pitch": 82,
              "velocity": 60,
              "position": 11,
              "duration": 0.00625
            },
            {
              "pitch": 54,
              "velocity": 30,
              "position": 11.25,
              "duration": 0.00625
            },
            {
              "pitch": 82,
              "velocity": 30,
              "position": 11.25,
              "duration": 0.00625
            },
            {
              "pitch": 54,
              "velocity": 60,
              "position": 11.5,
              "duration": 0.00625
            },
            {
              "pitch": 82,
              "velocity": 80,
              "position": 11.5,
              "duration": 0.00625
            },
            {
              "pitch": 54,
              "velocity": 30,
              "position": 11.75,
              "duration": 0.00625
            },
            {
              "pitch": 82,
              "velocity": 30,
              "position": 11.75,
              "duration": 0.00625
            },
            {
              "pitch": 54,
              "velocity": 80,
              "position": 12,
              "duration": 0.00625
            },
            {
              "pitch": 82,
              "velocity": 60,
              "position": 12,
              "duration": 0.00625
            },
            {
              "pitch": 54,
              "velocity": 30,
              "position": 12.25,
              "duration": 0.00625
            },
            {
              "pitch": 82,
              "velocity": 30,
              "position": 12.25,
              "duration": 0.00625
            },
            {
              "pitch": 54,
              "velocity": 60,
              "position": 12.5,
              "duration": 0.00625
            },
            {
              "pitch": 82,
              "velocity": 80,
              "position": 12.5,
              "duration": 0.00625
            },
            {
              "pitch": 54,
              "velocity": 30,
              "position": 12.75,
              "duration": 0.00625
            },
            {
              "pitch": 82,
              "velocity": 30,
              "position": 12.75,
              "duration": 0.00625
            },
            {
              "pitch": 54,
              "velocity": 80,
              "position": 13,
              "duration": 0.00625
            },
            {
              "pitch": 82,
              "velocity": 60,
              "position": 13,
              "duration": 0.00625
            }
          ]
        },
        "9": {
          "ctab": {
            "srcChannel": 9,
            "name": "Drs",
            "accType": "RHYTHM",
            "editable": false,
            "mutedNotes": [],
            "mutedChords": [],
            "autoStart": true,
            "sourceChordNote": 0,
            "sourceChordType": "Maj7",
            "ctb2Low": null,
            "ctb2Main": {
              "ntr": "ROOT_FIXED",
              "ntt": "BYPASS",
              "bassOn": false,
              "chordRootUpperLimit": 6,
              "noteLowLimit": 0,
              "noteHighLimit": 127,
              "rtr": "PITCH_SHIFT"
            },
            "ctb2High": null
          },
          "notes": [
            {
              "pitch": 57,
              "velocity": 83,
              "position": 0,
              "duration": 0.00625
            },
            {
              "pitch": 33,
              "velocity": 105,
              "position": 0,
              "duration": 0.00625
            },
            {
              "pitch": 31,
              "velocity": 25,
              "position": 0.2708333333333333,
              "duration": 0.00625
            },
            {
              "pitch": 44,
              "velocity": 42,
              "position": 0.5,
              "duration": 0.00625
            },
            {
              "pitch": 59,
              "velocity": 67,
              "position": 0.5,
              "duration": 0.00625
            },
            {
              "pitch": 33,
              "velocity": 105,
              "position": 0.7708333333333334,
              "duration": 0.00625
            },
            {
              "pitch": 31,
              "velocity": 125,
              "position": 1,
              "duration": 0.00625
            },
            {
              "pitch": 59,
              "velocity": 103,
              "position": 1,
              "duration": 0.00625
            },
            {
              "pitch": 53,
              "velocity": 98,
              "position": 1,
              "duration": 0.00625
            },
            {
              "pitch": 44,
              "velocity": 55,
              "position": 1,
              "duration": 0.00625
            },
            {
              "pitch": 31,
              "velocity": 25,
              "position": 1.2708333333333333,
              "duration": 0.00625
            },
            {
              "pitch": 33,
              "velocity": 105,
              "position": 1.5,
              "duration": 0.00625
            },
            {
              "pitch": 59,
              "velocity": 67,
              "position": 1.5,
              "duration": 0.00625
            },
            {
              "pitch": 44,
              "velocity": 42,
              "position": 1.5,
              "duration": 0.00625
            },
            {
              "pitch": 31,
              "velocity": 25,
              "position": 1.7708333333333333,
              "duration": 0.00625
            },
            {
              "pitch": 44,
              "velocity": 55,
              "position": 2,
              "duration": 0.00625
            },
            {
              "pitch": 59,
              "velocity": 103,
              "position": 2,
              "duration": 0.00625
            },
            {
              "pitch": 53,
              "velocity": 98,
              "position": 2,
              "duration": 0.00625
            },
            {
              "pitch": 31,
              "velocity": 85,
              "position": 2.2708333333333335,
              "duration": 0.00625
            },
            {
              "pitch": 33,
              "velocity": 105,
              "position": 2.5,
              "duration": 0.00625
            },
            {
              "pitch": 59,
              "velocity": 67,
              "position": 2.5,
              "duration": 0.00625
            },
            {
              "pitch": 44,
              "velocity": 42,
              "position": 2.5,
              "duration": 0.00625
            },
            {
              "pitch": 31,
              "velocity": 25,
              "position": 2.7708333333333335,
              "duration": 0.00625
            },
            {
              "pitch": 31,
              "velocity": 125,
              "position": 3,
              "duration": 0.00625
            },
            {
              "pitch": 59,
              "velocity": 103,
              "position": 3,
              "duration": 0.00625
            },
            {
              "pitch": 53,
              "velocity": 98,
              "position": 3,
              "duration": 0.00625
            },
            {
              "pitch": 44,
              "velocity": 55,
              "position": 3,
              "duration": 0.00625
            },
            {
              "pitch": 31,
              "velocity": 25,
              "position": 3.2708333333333335,
              "duration": 0.00625
            },
            {
              "pitch": 33,
              "velocity": 105,
              "position": 3.2708333333333335,
              "duration": 0.00625
            },
            {
              "pitch": 44,
              "velocity": 42,
              "position": 3.5,
              "duration": 0.00625
            },
            {
              "pitch": 59,
              "velocity": 67,
              "position": 3.5,
              "duration": 0.00625
            },
            {
              "pitch": 31,
              "velocity": 25,
              "position": 3.7708333333333335,
              "duration": 0.00625
            },
            {
              "pitch": 33,
              "velocity": 105,
              "position": 4,
              "duration": 0.00625
            },
            {
              "pitch": 59,
              "velocity": 103,
              "position": 4,
              "duration": 0.00625
            },
            {
              "pitch": 53,
              "velocity": 98,
              "position": 4,
              "duration": 0.00625
            },
            {
              "pitch": 44,
              "velocity": 55,
              "position": 4,
              "duration": 0.00625
            },
            {
              "pitch": 31,
              "velocity": 25,
              "position": 4.270833333333333,
              "duration": 0.00625
            },
            {
              "pitch": 44,
              "velocity": 42,
              "position": 4.5,
              "duration": 0.00625
            },
            {
              "pitch": 59,
              "velocity": 67,
              "position": 4.5,
              "duration": 0.00625
            },
            {
              "pitch": 33,
              "velocity": 105,
              "position": 4.770833333333333,
              "duration": 0.00625
            },
            {
              "pitch": 31,
              "velocity": 125,
              "position": 5,
              "duration": 0.00625
            },
            {
              "pitch": 59,
              "velocity": 103,
              "position": 5,
              "duration": 0.00625
            },
            {
              "pitch": 53,
              "velocity": 98,
              "position": 5,
              "duration": 0.00625
            },
            {
              "pitch": 44,
              "velocity": 55,
              "position": 5,
              "duration": 0.00625
            },
            {
              "pitch": 31,
              "velocity": 25,
              "position": 5.270833333333333,
              "duration": 0.00625
            },
            {
              "pitch": 33,
              "velocity": 105,
              "position": 5.5,
              "duration": 0.00625
            },
            {
              "pitch": 59,
              "velocity": 67,
              "position": 5.5,
              "duration": 0.00625
            },
            {
              "pitch": 44,
              "velocity": 42,
              "position": 5.5,
              "duration": 0.00625
            },
            {
              "pitch": 31,
              "velocity": 25,
              "position": 5.770833333333333,
              "duration": 0.00625
            },
            {
              "pitch": 44,
              "velocity": 55,
              "position": 6,
              "duration": 0.00625
            },
            {
              "pitch": 59,
              "velocity": 103,
              "position": 6,
              "duration": 0.00625
            },
            {
              "pitch": 53,
              "velocity": 98,
              "position": 6,
              "duration": 0.00625
            },
            {
              "pitch": 31,
              "velocity": 85,
              "position": 6.270833333333333,
              "duration": 0.00625
            },
            {
              "pitch": 33,
              "velocity": 105,
              "position": 6.5,
              "duration": 0.00625
            },
            {
              "pitch": 59,
              "velocity": 67,
              "position": 6.5,
              "duration": 0.00625
            },
            {
              "pitch": 44,
              "velocity": 42,
              "position": 6.5,
              "duration": 0.00625
            },
            {
              "pitch": 31,
              "velocity": 25,
              "position": 6.770833333333333,
              "duration": 0.00625
            },
            {
              "pitch": 31,
              "velocity": 125,
              "position": 7,
              "duration": 0.00625
            },
            {
              "pitch": 59,
              "velocity": 103,
              "position": 7,
              "duration": 0.00625
            },
            {
              "pitch": 53,
              "velocity": 98,
              "position": 7,
              "duration": 0.00625
            },
            {
              "pitch": 44,
              "velocity": 55,
              "position": 7,
              "duration": 0.00625
            },
            {
              "pitch": 31,
              "velocity": 25,
              "position": 7.270833333333333,
              "duration": 0.00625
            },
            {
              "pitch": 44,
              "velocity": 42,
              "position": 7.5,
              "duration": 0.00625
            },
            {
              "pitch": 59,
              "velocity": 67,
              "position": 7.5,
              "duration": 0.00625
            },
            {
              "pitch": 31,
              "velocity": 25,
              "position": 7.770833333333333,
              "duration": 0.00625
            },
            {
              "pitch": 33,
              "velocity": 105,
              "position": 8,
              "duration": 0.00625
            },
            {
              "pitch": 59,
              "velocity": 103,
              "position": 8,
              "duration": 0.00625
            },
            {
              "pitch": 53,
              "velocity": 98,
              "position": 8,
              "duration": 0.00625
            },
            {
              "pitch": 44,
              "velocity": 55,
              "position": 8,
              "duration": 0.00625
            },
            {
              "pitch": 31,
              "velocity": 25,
              "position": 8.270833333333334,
              "duration": 0.00625
            },
            {
              "pitch": 44,
              "velocity": 42,
              "position": 8.5,
              "duration": 0.00625
            },
            {
              "pitch": 59,
              "velocity": 67,
              "position": 8.5,
              "duration": 0.00625
            },
            {
              "pitch": 33,
              "velocity": 105,
              "position": 8.770833333333334,
              "duration": 0.00625
            },
            {
              "pitch": 31,
              "velocity": 125,
              "position": 9,
              "duration": 0.00625
            },
            {
              "pitch": 59,
              "velocity": 103,
              "position": 9,
              "duration": 0.00625
            },
            {
              "pitch": 53,
              "velocity": 98,
              "position": 9,
              "duration": 0.00625
            },
            {
              "pitch": 44,
              "velocity": 55,
              "position": 9,
              "duration": 0.00625
            },
            {
              "pitch": 31,
              "velocity": 25,
              "position": 9.270833333333334,
              "duration": 0.00625
            },
            {
              "pitch": 33,
              "velocity": 105,
              "position": 9.5,
              "duration": 0.00625
            },
            {
              "pitch": 59,
              "velocity": 67,
              "position": 9.5,
              "duration": 0.00625
            },
            {
              "pitch": 44,
              "velocity": 42,
              "position": 9.5,
              "duration": 0.00625
            },
            {
              "pitch": 31,
              "velocity": 25,
              "position": 9.770833333333334,
              "duration": 0.00625
            },
            {
              "pitch": 44,
              "velocity": 55,
              "position": 10,
              "duration": 0.00625
            },
            {
              "pitch": 59,
              "velocity": 103,
              "position": 10,
              "duration": 0.00625
            },
            {
              "pitch": 53,
              "velocity": 98,
              "position": 10,
              "duration": 0.00625
            },
            {
              "pitch": 31,
              "velocity": 85,
              "position": 10.270833333333334,
              "duration": 0.00625
            },
            {
              "pitch": 33,
              "velocity": 105,
              "position": 10.5,
              "duration": 0.00625
            },
            {
              "pitch": 59,
              "velocity": 67,
              "position": 10.5,
              "duration": 0.00625
            },
            {
              "pitch": 44,
              "velocity": 42,
              "position": 10.5,
              "duration": 0.00625
            },
            {
              "pitch": 31,
              "velocity": 25,
              "position": 10.770833333333334,
              "duration": 0.00625
            },
            {
              "pitch": 31,
              "velocity": 125,
              "position": 11,
              "duration": 0.00625
            },
            {
              "pitch": 59,
              "velocity": 103,
              "position": 11,
              "duration": 0.00625
            },
            {
              "pitch": 53,
              "velocity": 98,
              "position": 11,
              "duration": 0.00625
            },
            {
              "pitch": 44,
              "velocity": 55,
              "position": 11,
              "duration": 0.00625
            },
            {
              "pitch": 31,
              "velocity": 25,
              "position": 11.270833333333334,
              "duration": 0.00625
            },
            {
              "pitch": 33,
              "velocity": 105,
              "position": 11.270833333333334,
              "duration": 0.00625
            },
            {
              "pitch": 44,
              "velocity": 42,
              "position": 11.5,
              "duration": 0.00625
            },
            {
              "pitch": 59,
              "velocity": 67,
              "position": 11.5,
              "duration": 0.00625
            },
            {
              "pitch": 31,
              "velocity": 25,
              "position": 11.770833333333334,
              "duration": 0.00625
            },
            {
              "pitch": 33,
              "velocity": 105,
              "position": 12,
              "duration": 0.00625
            },
            {
              "pitch": 59,
              "velocity": 103,
              "position": 12,
              "duration": 0.00625
            },
            {
              "pitch": 53,
              "velocity": 98,
              "position": 12,
              "duration": 0.00625
            },
            {
              "pitch": 44,
              "velocity": 55,
              "position": 12,
              "duration": 0.00625
            },
            {
              "pitch": 31,
              "velocity": 25,
              "position": 12.270833333333334,
              "duration": 0.00625
            },
            {
              "pitch": 31,
              "velocity": 125,
              "position": 12.5,
              "duration": 0.00625
            },
            {
              "pitch": 44,
              "velocity": 42,
              "position": 12.5,
              "duration": 0.00625
            },
            {
              "pitch": 31,
              "velocity": 125,
              "position": 13,
              "duration": 0.00625
            },
            {
              "pitch": 44,
              "velocity": 55,
              "position": 13,
              "duration": 0.00625
            },
            {
              "pitch": 31,
              "velocity": 105,
              "position": 13.5,
              "duration": 0.00625
            },
            {
              "pitch": 44,
              "velocity": 42,
              "position": 13.5,
              "duration": 0.00625
            },
            {
              "pitch": 31,
              "velocity": 125,
              "position": 14,
              "duration": 0.00625
            },
            {
              "pitch": 46,
              "velocity": 77,
              "position": 14,
              "duration": 0.00625
            },
            {
              "pitch": 44,
              "velocity": 6,
              "position": 14.520833333333334,
              "duration": 0.00625
            }
          ]
        },
        "10": {
          "ctab": {
            "srcChannel": 10,
            "name": "Bass",
            "accType": "BASS",
            "editable": false,
            "mutedNotes": [],
            "mutedChords": [
              "dim7",
              "dim",
              "minMaj7(9)",
              "minMaj7",
              "min7(11)",
              "min7(9)",
              "min(9)",
              "m7b5",
              "min7",
              "min6",
              "min"
            ],
            "autoStart": false,
            "sourceChordNote": 0,
            "sourceChordType": "Maj",
            "ctb2Low": null,
            "ctb2Main": {
              "ntr": "ROOT_TRANSPOSITION",
              "ntt": "BYPASS",
              "bassOn": false,
              "chordRootUpperLimit": 8,
              "noteLowLimit": 28,
              "noteHighLimit": 127,
              "rtr": "PITCH_SHIFT"
            },
            "ctb2High": null
          },
          "notes": [
            {
              "pitch": 32,
              "velocity": 80,
              "position": 0,
              "duration": 0.48541666666666666
            },
            {
              "pitch": 32,
              "velocity": 110,
              "position": 0.5,
              "duration": 0.13125
            },
            {
              "pitch": 32,
              "velocity": 80,
              "position": 0.75,
              "duration": 0.23541666666666666
            },
            {
              "pitch": 32,
              "velocity": 110,
              "position": 1.25,
              "duration": 0.13125
            },
            {
              "pitch": 39,
              "velocity": 110,
              "position": 1.5,
              "duration": 0.13125
            },
            {
              "pitch": 42,
              "velocity": 80,
              "position": 1.75,
              "duration": 0.23541666666666666
            },
            {
              "pitch": 42,
              "velocity": 91,
              "position": 2,
              "duration": 0.13125
            },
            {
              "pitch": 42,
              "velocity": 110,
              "position": 2.25,
              "duration": 0.13125
            },
            {
              "pitch": 42,
              "velocity": 80,
              "position": 2.5,
              "duration": 0.23541666666666666
            },
            {
              "pitch": 44,
              "velocity": 60,
              "position": 2.75,
              "duration": 0.23541666666666666
            },
            {
              "pitch": 44,
              "velocity": 110,
              "position": 3,
              "duration": 0.13125
            },
            {
              "pitch": 39,
              "velocity": 110,
              "position": 3.25,
              "duration": 0.13125
            },
            {
              "pitch": 31,
              "velocity": 60,
              "position": 3.5,
              "duration": 0.17291666666666666
            },
            {
              "pitch": 30,
              "velocity": 60,
              "position": 3.75,
              "duration": 0.17291666666666666
            },
            {
              "pitch": 29,
              "velocity": 80,
              "position": 4,
              "duration": 0.23541666666666666
            },
            {
              "pitch": 29,
              "velocity": 91,
              "position": 4.25,
              "duration": 0.13125
            },
            {
              "pitch": 29,
              "velocity": 110,
              "position": 4.5,
              "duration": 0.13125
            },
            {
              "pitch": 29,
              "velocity": 80,
              "position": 4.75,
              "duration": 0.23541666666666666
            },
            {
              "pitch": 29,
              "velocity": 110,
              "position": 5.25,
              "duration": 0.13125
            },
            {
              "pitch": 36,
              "velocity": 110,
              "position": 5.5,
              "duration": 0.13125
            },
            {
              "pitch": 39,
              "velocity": 80,
              "position": 5.75,
              "duration": 0.23541666666666666
            },
            {
              "pitch": 39,
              "velocity": 91,
              "position": 6,
              "duration": 0.13125
            },
            {
              "pitch": 39,
              "velocity": 110,
              "position": 6.25,
              "duration": 0.13125
            },
            {
              "pitch": 39,
              "velocity": 80,
              "position": 6.5,
              "duration": 0.23541666666666666
            },
            {
              "pitch": 41,
              "velocity": 60,
              "position": 6.75,
              "duration": 0.23541666666666666
            },
            {
              "pitch": 41,
              "velocity": 110,
              "position": 7,
              "duration": 0.13125
            },
            {
              "pitch": 36,
              "velocity": 110,
              "position": 7.25,
              "duration": 0.13125
            },
            {
              "pitch": 29,
              "velocity": 60,
              "position": 7.5,
              "duration": 0.17291666666666666
            },
            {
              "pitch": 30,
              "velocity": 60,
              "position": 7.75,
              "duration": 0.17291666666666666
            },
            {
              "pitch": 31,
              "velocity": 80,
              "position": 8,
              "duration": 0.23541666666666666
            },
            {
              "pitch": 31,
              "velocity": 91,
              "position": 8.25,
              "duration": 0.13125
            },
            {
              "pitch": 31,
              "velocity": 110,
              "position": 8.5,
              "duration": 0.13125
            },
            {
              "pitch": 31,
              "velocity": 80,
              "position": 8.75,
              "duration": 0.23541666666666666
            },
            {
              "pitch": 31,
              "velocity": 110,
              "position": 9.25,
              "duration": 0.13125
            },
            {
              "pitch": 38,
              "velocity": 110,
              "position": 9.5,
              "duration": 0.13125
            },
            {
              "pitch": 41,
              "velocity": 80,
              "position": 9.75,
              "duration": 0.23541666666666666
            },
            {
              "pitch": 41,
              "velocity": 91,
              "position": 10,
              "duration": 0.13125
            },
            {
              "pitch": 41,
              "velocity": 110,
              "position": 10.25,
              "duration": 0.13125
            },
            {
              "pitch": 41,
              "velocity": 80,
              "position": 10.5,
              "duration": 0.23541666666666666
            },
            {
              "pitch": 42,
              "velocity": 60,
              "position": 10.75,
              "duration": 0.23541666666666666
            },
            {
              "pitch": 43,
              "velocity": 80,
              "position": 11,
              "duration": 0.48541666666666666
            },
            {
              "pitch": 34,
              "velocity": 80,
              "position": 11.5,
              "duration": 0.23541666666666666
            },
            {
              "pitch": 35,
              "velocity": 60,
              "position": 11.75,
              "duration": 0.23541666666666666
            },
            {
              "pitch": 36,
              "velocity": 80,
              "position": 12,
              "duration": 0.23541666666666666
            },
            {
              "pitch": 24,
              "velocity": 80,
              "position": 12.5,
              "duration": 0.23541666666666666
            },
            {
              "pitch": 24,
              "velocity": 80,
              "position": 13,
              "duration": 0.23541666666666666
            },
            {
              "pitch": 24,
              "velocity": 80,
              "position": 13.5,
              "duration": 0.23541666666666666
            },
            {
              "pitch": 24,
              "velocity": 80,
              "position": 14,
              "duration": 0.48541666666666666
            }
          ]
        },
        "11": {
          "ctab": {
            "srcChannel": 11,
            "name": "C1",
            "accType": "CHORD1",
            "editable": false,
            "mutedNotes": [],
            "mutedChords": [
              "dim7",
              "dim",
              "minMaj7(9)",
              "minMaj7",
              "min7(11)",
              "min7(9)",
              "min(9)",
              "m7b5",
              "min7",
              "min6",
              "min"
            ],
            "autoStart": false,
            "sourceChordNote": 0,
            "sourceChordType": "Maj",
            "ctb2Low": null,
            "ctb2Main": {
              "ntr": "ROOT_TRANSPOSITION",
              "ntt": "BYPASS",
              "bassOn": false,
              "chordRootUpperLimit": 6,
              "noteLowLimit": 0,
              "noteHighLimit": 79,
              "rtr": "PITCH_SHIFT"
            },
            "ctb2High": null
          },
          "notes": [
            {
              "pitch": 106,
              "velocity": 87,
              "position": 0,
              "duration": 0.23541666666666666
            },
            {
              "pitch": 66,
              "velocity": 35,
              "position": 0,
              "duration": 0.24583333333333332
            },
            {
              "pitch": 75,
              "velocity": 16,
              "position": 0.25,
              "duration": 0.11041666666666666
            },
            {
              "pitch": 70,
              "velocity": 16,
              "position": 0.2604166666666667,
              "duration": 0.12083333333333333
            },
            {
              "pitch": 66,
              "velocity": 16,
              "position": 0.2708333333333333,
              "duration": 0.14166666666666666
            },
            {
              "pitch": 108,
              "velocity": 70,
              "position": 0.25,
              "duration": 0.23541666666666666
            },
            {
              "pitch": 107,
              "velocity": 70,
              "position": 0.5,
              "duration": 0.23541666666666666
            },
            {
              "pitch": 75,
              "velocity": 35,
              "position": 0.75,
              "duration": 0.20416666666666666
            },
            {
              "pitch": 70,
              "velocity": 35,
              "position": 0.7604166666666666,
              "duration": 0.21458333333333332
            },
            {
              "pitch": 105,
              "velocity": 87,
              "position": 0.75,
              "duration": 0.23541666666666666
            },
            {
              "pitch": 66,
              "velocity": 35,
              "position": 0.7708333333333334,
              "duration": 0.23541666666666666
            },
            {
              "pitch": 60,
              "velocity": 29,
              "position": 0.78125,
              "duration": 0.25625
            },
            {
              "pitch": 107,
              "velocity": 70,
              "position": 1,
              "duration": 0.23541666666666666
            },
            {
              "pitch": 108,
              "velocity": 70,
              "position": 1.25,
              "duration": 0.23541666666666666
            },
            {
              "pitch": 106,
              "velocity": 87,
              "position": 1.5,
              "duration": 0.23541666666666666
            },
            {
              "pitch": 75,
              "velocity": 35,
              "position": 1.53125,
              "duration": 0.20416666666666666
            },
            {
              "pitch": 70,
              "velocity": 35,
              "position": 1.5208333333333333,
              "duration": 0.21458333333333332
            },
            {
              "pitch": 66,
              "velocity": 35,
              "position": 1.5104166666666667,
              "duration": 0.23541666666666666
            },
            {
              "pitch": 60,
              "velocity": 29,
              "position": 1.5,
              "duration": 0.25625
            },
            {
              "pitch": 108,
              "velocity": 70,
              "position": 1.75,
              "duration": 0.23541666666666666
            },
            {
              "pitch": 107,
              "velocity": 70,
              "position": 2,
              "duration": 0.23541666666666666
            },
            {
              "pitch": 108,
              "velocity": 70,
              "position": 2.25,
              "duration": 0.23541666666666666
            },
            {
              "pitch": 106,
              "velocity": 87,
              "position": 2.5,
              "duration": 0.23541666666666666
            },
            {
              "pitch": 70,
              "velocity": 35,
              "position": 2.5208333333333335,
              "duration": 0.21458333333333332
            },
            {
              "pitch": 66,
              "velocity": 35,
              "position": 2.5104166666666665,
              "duration": 0.23541666666666666
            },
            {
              "pitch": 60,
              "velocity": 29,
              "position": 2.5,
              "duration": 0.25625
            },
            {
              "pitch": 108,
              "velocity": 70,
              "position": 2.75,
              "duration": 0.23541666666666666
            },
            {
              "pitch": 60,
              "velocity": 22,
              "position": 2.7708333333333335,
              "duration": 0.21458333333333332
            },
            {
              "pitch": 66,
              "velocity": 22,
              "position": 2.7604166666666665,
              "duration": 0.23541666666666666
            },
            {
              "pitch": 70,
              "velocity": 22,
              "position": 2.75,
              "duration": 0.25625
            },
            {
              "pitch": 75,
              "velocity": 35,
              "position": 2.53125,
              "duration": 0.48541666666666666
            },
            {
              "pitch": 107,
              "velocity": 70,
              "position": 3,
              "duration": 0.23541666666666666
            },
            {
              "pitch": 75,
              "velocity": 29,
              "position": 3.03125,
              "duration": 0.20416666666666666
            },
            {
              "pitch": 70,
              "velocity": 29,
              "position": 3.0208333333333335,
              "duration": 0.225
            },
            {
              "pitch": 66,
              "velocity": 29,
              "position": 3.0104166666666665,
              "duration": 0.24583333333333332
            },
            {
              "pitch": 105,
              "velocity": 87,
              "position": 3.25,
              "duration": 0.23541666666666666
            },
            {
              "pitch": 66,
              "velocity": 35,
              "position": 3.2708333333333335,
              "duration": 0.21458333333333332
            },
            {
              "pitch": 70,
              "velocity": 35,
              "position": 3.2604166666666665,
              "duration": 0.23541666666666666
            },
            {
              "pitch": 75,
              "velocity": 35,
              "position": 3.25,
              "duration": 0.25625
            },
            {
              "pitch": 60,
              "velocity": 29,
              "position": 3,
              "duration": 0.50625
            },
            {
              "pitch": 107,
              "velocity": 70,
              "position": 3.5,
              "duration": 0.23541666666666666
            },
            {
              "pitch": 108,
              "velocity": 70,
              "position": 3.75,
              "duration": 0.23541666666666666
            },
            {
              "pitch": 106,
              "velocity": 87,
              "position": 4,
              "duration": 0.23541666666666666
            },
            {
              "pitch": 74,
              "velocity": 35,
              "position": 4.03125,
              "duration": 0.20416666666666666
            },
            {
              "pitch": 69,
              "velocity": 35,
              "position": 4.020833333333333,
              "duration": 0.21458333333333332
            },
            {
              "pitch": 65,
              "velocity": 35,
              "position": 4.010416666666667,
              "duration": 0.23541666666666666
            },
            {
              "pitch": 72,
              "velocity": 16,
              "position": 4.25,
              "duration": 0.11041666666666666
            },
            {
              "pitch": 67,
              "velocity": 16,
              "position": 4.260416666666667,
              "duration": 0.12083333333333333
            },
            {
              "pitch": 63,
              "velocity": 16,
              "position": 4.270833333333333,
              "duration": 0.14166666666666666
            },
            {
              "pitch": 108,
              "velocity": 70,
              "position": 4.25,
              "duration": 0.23541666666666666
            },
            {
              "pitch": 107,
              "velocity": 70,
              "position": 4.5,
              "duration": 0.23541666666666666
            },
            {
              "pitch": 72,
              "velocity": 35,
              "position": 4.75,
              "duration": 0.20416666666666666
            },
            {
              "pitch": 67,
              "velocity": 35,
              "position": 4.760416666666667,
              "duration": 0.21458333333333332
            },
            {
              "pitch": 105,
              "velocity": 87,
              "position": 4.75,
              "duration": 0.23541666666666666
            },
            {
              "pitch": 63,
              "velocity": 35,
              "position": 4.770833333333333,
              "duration": 0.23541666666666666
            },
            {
              "pitch": 57,
              "velocity": 29,
              "position": 4.78125,
              "duration": 0.25625
            },
            {
              "pitch": 107,
              "velocity": 70,
              "position": 5,
              "duration": 0.23541666666666666
            },
            {
              "pitch": 108,
              "velocity": 70,
              "position": 5.25,
              "duration": 0.23541666666666666
            },
            {
              "pitch": 106,
              "velocity": 87,
              "position": 5.5,
              "duration": 0.23541666666666666
            },
            {
              "pitch": 72,
              "velocity": 35,
              "position": 5.53125,
              "duration": 0.20416666666666666
            },
            {
              "pitch": 67,
              "velocity": 35,
              "position": 5.520833333333333,
              "duration": 0.21458333333333332
            },
            {
              "pitch": 63,
              "velocity": 35,
              "position": 5.510416666666667,
              "duration": 0.23541666666666666
            },
            {
              "pitch": 57,
              "velocity": 29,
              "position": 5.5,
              "duration": 0.25625
            },
            {
              "pitch": 108,
              "velocity": 70,
              "position": 5.75,
              "duration": 0.23541666666666666
            },
            {
              "pitch": 107,
              "velocity": 70,
              "position": 6,
              "duration": 0.23541666666666666
            },
            {
              "pitch": 108,
              "velocity": 70,
              "position": 6.25,
              "duration": 0.23541666666666666
            },
            {
              "pitch": 106,
              "velocity": 87,
              "position": 6.5,
              "duration": 0.23541666666666666
            },
            {
              "pitch": 67,
              "velocity": 35,
              "position": 6.520833333333333,
              "duration": 0.21458333333333332
            },
            {
              "pitch": 63,
              "velocity": 35,
              "position": 6.510416666666667,
              "duration": 0.23541666666666666
            },
            {
              "pitch": 57,
              "velocity": 29,
              "position": 6.5,
              "duration": 0.25625
            },
            {
              "pitch": 108,
              "velocity": 70,
              "position": 6.75,
              "duration": 0.23541666666666666
            },
            {
              "pitch": 57,
              "velocity": 22,
              "position": 6.770833333333333,
              "duration": 0.21458333333333332
            },
            {
              "pitch": 63,
              "velocity": 22,
              "position": 6.760416666666667,
              "duration": 0.23541666666666666
            },
            {
              "pitch": 67,
              "velocity": 22,
              "position": 6.75,
              "duration": 0.25625
            },
            {
              "pitch": 72,
              "velocity": 35,
              "position": 6.53125,
              "duration": 0.48541666666666666
            },
            {
              "pitch": 107,
              "velocity": 70,
              "position": 7,
              "duration": 0.23541666666666666
            },
            {
              "pitch": 72,
              "velocity": 29,
              "position": 7.03125,
              "duration": 0.20416666666666666
            },
            {
              "pitch": 67,
              "velocity": 29,
              "position": 7.020833333333333,
              "duration": 0.225
            },
            {
              "pitch": 63,
              "velocity": 29,
              "position": 7.010416666666667,
              "duration": 0.24583333333333332
            },
            {
              "pitch": 105,
              "velocity": 87,
              "position": 7.25,
              "duration": 0.23541666666666666
            },
            {
              "pitch": 63,
              "velocity": 35,
              "position": 7.270833333333333,
              "duration": 0.21458333333333332
            },
            {
              "pitch": 67,
              "velocity": 35,
              "position": 7.260416666666667,
              "duration": 0.23541666666666666
            },
            {
              "pitch": 72,
              "velocity": 35,
              "position": 7.25,
              "duration": 0.25625
            },
            {
              "pitch": 57,
              "velocity": 29,
              "position": 7,
              "duration": 0.50625
            },
            {
              "pitch": 107,
              "velocity": 70,
              "position": 7.5,
              "duration": 0.23541666666666666
            },
            {
              "pitch": 108,
              "velocity": 70,
              "position": 7.75,
              "duration": 0.23541666666666666
            },
            {
              "pitch": 106,
              "velocity": 87,
              "position": 8,
              "duration": 0.23541666666666666
            },
            {
              "pitch": 74,
              "velocity": 35,
              "position": 8.03125,
              "duration": 0.20416666666666666
            },
            {
              "pitch": 69,
              "velocity": 35,
              "position": 8.020833333333334,
              "duration": 0.21458333333333332
            },
            {
              "pitch": 65,
              "velocity": 35,
              "position": 8.010416666666666,
              "duration": 0.23541666666666666
            },
            {
              "pitch": 74,
              "velocity": 16,
              "position": 8.25,
              "duration": 0.11041666666666666
            },
            {
              "pitch": 69,
              "velocity": 16,
              "position": 8.260416666666666,
              "duration": 0.12083333333333333
            },
            {
              "pitch": 65,
              "velocity": 16,
              "position": 8.270833333333334,
              "duration": 0.14166666666666666
            },
            {
              "pitch": 108,
              "velocity": 70,
              "position": 8.25,
              "duration": 0.23541666666666666
            },
            {
              "pitch": 107,
              "velocity": 70,
              "position": 8.5,
              "duration": 0.23541666666666666
            },
            {
              "pitch": 74,
              "velocity": 35,
              "position": 8.75,
              "duration": 0.20416666666666666
            },
            {
              "pitch": 69,
              "velocity": 35,
              "position": 8.760416666666666,
              "duration": 0.21458333333333332
            },
            {
              "pitch": 105,
              "velocity": 87,
              "position": 8.75,
              "duration": 0.23541666666666666
            },
            {
              "pitch": 65,
              "velocity": 35,
              "position": 8.770833333333334,
              "duration": 0.23541666666666666
            },
            {
              "pitch": 59,
              "velocity": 29,
              "position": 8.78125,
              "duration": 0.25625
            },
            {
              "pitch": 107,
              "velocity": 70,
              "position": 9,
              "duration": 0.23541666666666666
            },
            {
              "pitch": 108,
              "velocity": 70,
              "position": 9.25,
              "duration": 0.23541666666666666
            },
            {
              "pitch": 106,
              "velocity": 87,
              "position": 9.5,
              "duration": 0.23541666666666666
            },
            {
              "pitch": 74,
              "velocity": 35,
              "position": 9.53125,
              "duration": 0.20416666666666666
            },
            {
              "pitch": 69,
              "velocity": 35,
              "position": 9.520833333333334,
              "duration": 0.21458333333333332
            },
            {
              "pitch": 65,
              "velocity": 35,
              "position": 9.510416666666666,
              "duration": 0.23541666666666666
            },
            {
              "pitch": 59,
              "velocity": 29,
              "position": 9.5,
              "duration": 0.25625
            },
            {
              "pitch": 108,
              "velocity": 70,
              "position": 9.75,
              "duration": 0.23541666666666666
            },
            {
              "pitch": 107,
              "velocity": 70,
              "position": 10,
              "duration": 0.23541666666666666
            },
            {
              "pitch": 108,
              "velocity": 70,
              "position": 10.25,
              "duration": 0.23541666666666666
            },
            {
              "pitch": 74,
              "velocity": 35,
              "position": 10.28125,
              "duration": 0.20416666666666666
            },
            {
              "pitch": 69,
              "velocity": 35,
              "position": 10.270833333333334,
              "duration": 0.21458333333333332
            },
            {
              "pitch": 65,
              "velocity": 35,
              "position": 10.260416666666666,
              "duration": 0.23541666666666666
            },
            {
              "pitch": 59,
              "velocity": 29,
              "position": 10.25,
              "duration": 0.25625
            },
            {
              "pitch": 106,
              "velocity": 87,
              "position": 10.5,
              "duration": 0.23541666666666666
            },
            {
              "pitch": 108,
              "velocity": 70,
              "position": 10.75,
              "duration": 0.23541666666666666
            },
            {
              "pitch": 59,
              "velocity": 29,
              "position": 11,
              "duration": 0.23541666666666666
            },
            {
              "pitch": 107,
              "velocity": 70,
              "position": 11,
              "duration": 0.23541666666666666
            },
            {
              "pitch": 69,
              "velocity": 35,
              "position": 11.020833333333334,
              "duration": 0.21458333333333332
            },
            {
              "pitch": 65,
              "velocity": 35,
              "position": 11.010416666666666,
              "duration": 0.225
            },
            {
              "pitch": 74,
              "velocity": 35,
              "position": 11.03125,
              "duration": 0.45416666666666666
            },
            {
              "pitch": 59,
              "velocity": 22,
              "position": 11.270833333333334,
              "duration": 0.21458333333333332
            },
            {
              "pitch": 105,
              "velocity": 87,
              "position": 11.25,
              "duration": 0.23541666666666666
            },
            {
              "pitch": 65,
              "velocity": 22,
              "position": 11.260416666666666,
              "duration": 0.23541666666666666
            },
            {
              "pitch": 69,
              "velocity": 22,
              "position": 11.25,
              "duration": 0.25625
            },
            {
              "pitch": 107,
              "velocity": 70,
              "position": 11.5,
              "duration": 0.23541666666666666
            },
            {
              "pitch": 108,
              "velocity": 70,
              "position": 11.75,
              "duration": 0.23541666666666666
            },
            {
              "pitch": 106,
              "velocity": 87,
              "position": 12,
              "duration": 0.23541666666666666
            },
            {
              "pitch": 72,
              "velocity": 35,
              "position": 12.03125,
              "duration": 0.20416666666666666
            },
            {
              "pitch": 67,
              "velocity": 35,
              "position": 12.020833333333334,
              "duration": 0.21458333333333332
            },
            {
              "pitch": 62,
              "velocity": 35,
              "position": 12.010416666666666,
              "duration": 0.23541666666666666
            },
            {
              "pitch": 108,
              "velocity": 70,
              "position": 12.25,
              "duration": 0.23541666666666666
            },
            {
              "pitch": 72,
              "velocity": 35,
              "position": 12.5,
              "duration": 0.20416666666666666
            },
            {
              "pitch": 67,
              "velocity": 35,
              "position": 12.510416666666666,
              "duration": 0.21458333333333332
            },
            {
              "pitch": 106,
              "velocity": 87,
              "position": 12.5,
              "duration": 0.23541666666666666
            },
            {
              "pitch": 62,
              "velocity": 35,
              "position": 12.520833333333334,
              "duration": 0.23541666666666666
            },
            {
              "pitch": 58,
              "velocity": 29,
              "position": 12.53125,
              "duration": 0.25625
            },
            {
              "pitch": 108,
              "velocity": 70,
              "position": 12.75,
              "duration": 0.23541666666666666
            },
            {
              "pitch": 106,
              "velocity": 87,
              "position": 13,
              "duration": 0.23541666666666666
            },
            {
              "pitch": 72,
              "velocity": 35,
              "position": 13.03125,
              "duration": 0.20416666666666666
            },
            {
              "pitch": 67,
              "velocity": 35,
              "position": 13.020833333333334,
              "duration": 0.21458333333333332
            },
            {
              "pitch": 62,
              "velocity": 35,
              "position": 13.010416666666666,
              "duration": 0.23541666666666666
            },
            {
              "pitch": 58,
              "velocity": 29,
              "position": 13,
              "duration": 0.25625
            },
            {
              "pitch": 108,
              "velocity": 70,
              "position": 13.25,
              "duration": 0.23541666666666666
            },
            {
              "pitch": 106,
              "velocity": 87,
              "position": 13.5,
              "duration": 0.23541666666666666
            },
            {
              "pitch": 72,
              "velocity": 35,
              "position": 13.53125,
              "duration": 0.20416666666666666
            },
            {
              "pitch": 67,
              "velocity": 35,
              "position": 13.520833333333334,
              "duration": 0.21458333333333332
            },
            {
              "pitch": 62,
              "velocity": 35,
              "position": 13.510416666666666,
              "duration": 0.23541666666666666
            },
            {
              "pitch": 58,
              "velocity": 29,
              "position": 13.5,
              "duration": 0.25625
            },
            {
              "pitch": 108,
              "velocity": 70,
              "position": 13.75,
              "duration": 0.23541666666666666
            },
            {
              "pitch": 106,
              "velocity": 87,
              "position": 14,
              "duration": 0.23541666666666666
            },
            {
              "pitch": 72,
              "velocity": 35,
              "position": 14.03125,
              "duration": 0.45416666666666666
            },
            {
              "pitch": 67,
              "velocity": 35,
              "position": 14.020833333333334,
              "duration": 0.46458333333333335
            },
            {
              "pitch": 62,
              "velocity": 35,
              "position": 14.010416666666666,
              "duration": 0.48541666666666666
            },
            {
              "pitch": 58,
              "velocity": 29,
              "position": 14,
              "duration": 0.50625
            }
          ]
        },
        "12": {
          "ctab": {
            "srcChannel": 12,
            "name": "C2",
            "accType": "CHORD2",
            "editable": false,
            "mutedNotes": [],
            "mutedChords": [
              "dim7",
              "dim",
              "minMaj7(9)",
              "minMaj7",
              "min7(11)",
              "min7(9)",
              "min(9)",
              "m7b5",
              "min7",
              "min6",
              "min"
            ],
            "autoStart": false,
            "sourceChordNote": 0,
            "sourceChordType": "Maj",
            "ctb2Low": null,
            "ctb2Main": {
              "ntr": "ROOT_TRANSPOSITION",
              "ntt": "BYPASS",
              "bassOn": false,
              "chordRootUpperLimit": 8,
              "noteLowLimit": 0,
              "noteHighLimit": 79,
              "rtr": "PITCH_SHIFT"
            },
            "ctb2High": null
          },
          "notes": [
            {
              "pitch": 60,
              "velocity": 55,
              "position": 4.333333333333333,
              "duration": 0.075
            },
            {
              "pitch": 53,
              "velocity": 58,
              "position": 4.333333333333333,
              "duration": 0.08958333333333333
            },
            {
              "pitch": 71,
              "velocity": 90,
              "position": 4.50625,
              "duration": 0.1375
            },
            {
              "pitch": 68,
              "velocity": 99,
              "position": 4.50625,
              "duration": 0.14166666666666666
            },
            {
              "pitch": 69,
              "velocity": 66,
              "position": 4.670833333333333,
              "duration": 0.10833333333333334
            },
            {
              "pitch": 72,
              "velocity": 58,
              "position": 4.670833333333333,
              "duration": 0.11041666666666666
            },
            {
              "pitch": 53,
              "velocity": 59,
              "position": 4.84375,
              "duration": 0.06666666666666667
            },
            {
              "pitch": 60,
              "velocity": 57,
              "position": 4.84375,
              "duration": 0.06875
            },
            {
              "pitch": 59,
              "velocity": 93,
              "position": 5,
              "duration": 0.07291666666666667
            },
            {
              "pitch": 56,
              "velocity": 97,
              "position": 5,
              "duration": 0.09583333333333334
            },
            {
              "pitch": 60,
              "velocity": 93,
              "position": 5.164583333333334,
              "duration": 0.07291666666666667
            },
            {
              "pitch": 57,
              "velocity": 97,
              "position": 5.164583333333334,
              "duration": 0.09583333333333334
            },
            {
              "pitch": 53,
              "velocity": 64,
              "position": 5.83125,
              "duration": 0.06666666666666667
            },
            {
              "pitch": 60,
              "velocity": 64,
              "position": 5.83125,
              "duration": 0.06875
            },
            {
              "pitch": 59,
              "velocity": 106,
              "position": 5.997916666666667,
              "duration": 0.07291666666666667
            },
            {
              "pitch": 56,
              "velocity": 106,
              "position": 5.997916666666667,
              "duration": 0.09583333333333334
            },
            {
              "pitch": 60,
              "velocity": 95,
              "position": 6.166666666666667,
              "duration": 0.07291666666666667
            },
            {
              "pitch": 57,
              "velocity": 95,
              "position": 6.166666666666667,
              "duration": 0.09583333333333334
            },
            {
              "pitch": 60,
              "velocity": 72,
              "position": 6.33125,
              "duration": 0.075
            },
            {
              "pitch": 53,
              "velocity": 72,
              "position": 6.33125,
              "duration": 0.08958333333333333
            },
            {
              "pitch": 71,
              "velocity": 97,
              "position": 6.497916666666667,
              "duration": 0.1375
            },
            {
              "pitch": 68,
              "velocity": 97,
              "position": 6.497916666666667,
              "duration": 0.14166666666666666
            },
            {
              "pitch": 53,
              "velocity": 68,
              "position": 6.83125,
              "duration": 0.06666666666666667
            },
            {
              "pitch": 60,
              "velocity": 68,
              "position": 6.83125,
              "duration": 0.06875
            },
            {
              "pitch": 69,
              "velocity": 117,
              "position": 6.664583333333334,
              "duration": 0.24166666666666667
            },
            {
              "pitch": 72,
              "velocity": 117,
              "position": 6.664583333333334,
              "duration": 0.24375
            },
            {
              "pitch": 59,
              "velocity": 80,
              "position": 6.997916666666667,
              "duration": 0.07291666666666667
            },
            {
              "pitch": 56,
              "velocity": 80,
              "position": 6.997916666666667,
              "duration": 0.09583333333333334
            },
            {
              "pitch": 60,
              "velocity": 72,
              "position": 7.164583333333334,
              "duration": 0.07291666666666667
            },
            {
              "pitch": 57,
              "velocity": 72,
              "position": 7.164583333333334,
              "duration": 0.09583333333333334
            },
            {
              "pitch": 60,
              "velocity": 72,
              "position": 7.333333333333333,
              "duration": 0.075
            },
            {
              "pitch": 53,
              "velocity": 72,
              "position": 7.333333333333333,
              "duration": 0.08958333333333333
            },
            {
              "pitch": 71,
              "velocity": 90,
              "position": 7.5,
              "duration": 0.1375
            },
            {
              "pitch": 68,
              "velocity": 99,
              "position": 7.5,
              "duration": 0.14166666666666666
            },
            {
              "pitch": 69,
              "velocity": 118,
              "position": 7.666666666666667,
              "duration": 0.10833333333333334
            },
            {
              "pitch": 72,
              "velocity": 118,
              "position": 7.666666666666667,
              "duration": 0.11041666666666666
            },
            {
              "pitch": 65,
              "velocity": 121,
              "position": 7.779166666666667,
              "duration": 0.1375
            },
            {
              "pitch": 79,
              "velocity": 108,
              "position": 7.791666666666667,
              "duration": 0.48125
            },
            {
              "pitch": 71,
              "velocity": 99,
              "position": 7.789583333333334,
              "duration": 0.5416666666666666
            },
            {
              "pitch": 69,
              "velocity": 105,
              "position": 7.8,
              "duration": 0.55
            },
            {
              "pitch": 76,
              "velocity": 110,
              "position": 7.795833333333333,
              "duration": 0.55625
            },
            {
              "pitch": 74,
              "velocity": 31,
              "position": 8.29375,
              "duration": 0.1125
            },
            {
              "pitch": 72,
              "velocity": 85,
              "position": 8.3625,
              "duration": 0.0875
            },
            {
              "pitch": 71,
              "velocity": 91,
              "position": 8.408333333333333,
              "duration": 0.08541666666666667
            },
            {
              "pitch": 69,
              "velocity": 93,
              "position": 8.447916666666666,
              "duration": 0.07916666666666666
            },
            {
              "pitch": 67,
              "velocity": 93,
              "position": 8.479166666666666,
              "duration": 0.06458333333333334
            },
            {
              "pitch": 65,
              "velocity": 89,
              "position": 8.514583333333333,
              "duration": 0.05625
            },
            {
              "pitch": 64,
              "velocity": 93,
              "position": 8.55,
              "duration": 0.03958333333333333
            },
            {
              "pitch": 62,
              "velocity": 69,
              "position": 8.589583333333334,
              "duration": 0.0625
            },
            {
              "pitch": 70,
              "velocity": 84,
              "position": 12,
              "duration": 0.26875
            },
            {
              "pitch": 76,
              "velocity": 78,
              "position": 12,
              "duration": 0.29375
            },
            {
              "pitch": 81,
              "velocity": 76,
              "position": 12,
              "duration": 0.3229166666666667
            },
            {
              "pitch": 84,
              "velocity": 71,
              "position": 12,
              "duration": 0.3333333333333333
            },
            {
              "pitch": 76,
              "velocity": 79,
              "position": 12.5,
              "duration": 0.24375
            },
            {
              "pitch": 70,
              "velocity": 90,
              "position": 12.5,
              "duration": 0.24583333333333332
            },
            {
              "pitch": 81,
              "velocity": 79,
              "position": 12.5,
              "duration": 0.27291666666666664
            },
            {
              "pitch": 84,
              "velocity": 77,
              "position": 12.5,
              "duration": 0.27708333333333335
            },
            {
              "pitch": 76,
              "velocity": 82,
              "position": 13,
              "duration": 0.23958333333333334
            },
            {
              "pitch": 70,
              "velocity": 88,
              "position": 13,
              "duration": 0.24166666666666667
            },
            {
              "pitch": 81,
              "velocity": 79,
              "position": 13,
              "duration": 0.26666666666666666
            },
            {
              "pitch": 84,
              "velocity": 78,
              "position": 13,
              "duration": 0.27291666666666664
            },
            {
              "pitch": 76,
              "velocity": 96,
              "position": 13.5,
              "duration": 0.18125
            },
            {
              "pitch": 70,
              "velocity": 101,
              "position": 13.5,
              "duration": 0.1875
            },
            {
              "pitch": 81,
              "velocity": 96,
              "position": 13.5,
              "duration": 0.21458333333333332
            },
            {
              "pitch": 84,
              "velocity": 84,
              "position": 13.5,
              "duration": 0.24166666666666667
            },
            {
              "pitch": 70,
              "velocity": 112,
              "position": 14.004166666666666,
              "duration": 0.24583333333333332
            },
            {
              "pitch": 84,
              "velocity": 99,
              "position": 14.002083333333333,
              "duration": 0.39375
            },
            {
              "pitch": 76,
              "velocity": 103,
              "position": 14.0125,
              "duration": 0.46458333333333335
            },
            {
              "pitch": 81,
              "velocity": 109,
              "position": 14.010416666666666,
              "duration": 0.4708333333333333
            },
            {
              "pitch": 79,
              "velocity": 31,
              "position": 14.43125,
              "duration": 0.05416666666666667
            },
            {
              "pitch": 77,
              "velocity": 65,
              "position": 14.485416666666667,
              "duration": 0.0375
            },
            {
              "pitch": 76,
              "velocity": 81,
              "position": 14.51875,
              "duration": 0.04791666666666667
            },
            {
              "pitch": 74,
              "velocity": 54,
              "position": 14.558333333333334,
              "duration": 0.05
            }
          ]
        },
        "13": {
          "ctab": {
            "srcChannel": 13,
            "name": "Pad",
            "accType": "PAD",
            "editable": false,
            "mutedNotes": [],
            "mutedChords": [
              "dim7",
              "dim",
              "minMaj7(9)",
              "minMaj7",
              "min7(11)",
              "min7(9)",
              "min(9)",
              "m7b5",
              "min7",
              "min6",
              "min"
            ],
            "autoStart": false,
            "sourceChordNote": 0,
            "sourceChordType": "Maj",
            "ctb2Low": null,
            "ctb2Main": {
              "ntr": "ROOT_TRANSPOSITION",
              "ntt": "BYPASS",
              "bassOn": false,
              "chordRootUpperLimit": 3,
              "noteLowLimit": 0,
              "noteHighLimit": 79,
              "rtr": "PITCH_SHIFT"
            },
            "ctb2High": null
          },
          "notes": [
            {
              "pitch": 63,
              "velocity": 82,
              "position": 3.25,
              "duration": 0.23541666666666666
            },
            {
              "pitch": 67,
              "velocity": 82,
              "position": 3.25,
              "duration": 0.23541666666666666
            },
            {
              "pitch": 64,
              "velocity": 82,
              "position": 3.5,
              "duration": 0.23541666666666666
            },
            {
              "pitch": 68,
              "velocity": 82,
              "position": 3.5,
              "duration": 0.23541666666666666
            },
            {
              "pitch": 65,
              "velocity": 82,
              "position": 3.75,
              "duration": 0.23541666666666666
            },
            {
              "pitch": 69,
              "velocity": 85,
              "position": 3.75,
              "duration": 0.23541666666666666
            },
            {
              "pitch": 79,
              "velocity": 82,
              "position": 4.489583333333333,
              "duration": 0.17291666666666666
            },
            {
              "pitch": 75,
              "velocity": 87,
              "position": 4.5,
              "duration": 0.18333333333333332
            },
            {
              "pitch": 77,
              "velocity": 82,
              "position": 4.989583333333333,
              "duration": 0.23541666666666666
            },
            {
              "pitch": 74,
              "velocity": 87,
              "position": 4.989583333333333,
              "duration": 0.24583333333333332
            },
            {
              "pitch": 75,
              "velocity": 85,
              "position": 5.239583333333333,
              "duration": 0.19375
            },
            {
              "pitch": 72,
              "velocity": 90,
              "position": 5.25,
              "duration": 0.18333333333333332
            },
            {
              "pitch": 74,
              "velocity": 81,
              "position": 8.489583333333334,
              "duration": 0.18333333333333332
            },
            {
              "pitch": 79,
              "velocity": 85,
              "position": 8.5,
              "duration": 0.19375
            },
            {
              "pitch": 74,
              "velocity": 81,
              "position": 9.25,
              "duration": 0.18333333333333332
            },
            {
              "pitch": 79,
              "velocity": 85,
              "position": 9.25,
              "duration": 0.19375
            },
            {
              "pitch": 74,
              "velocity": 81,
              "position": 9.989583333333334,
              "duration": 0.19375
            },
            {
              "pitch": 79,
              "velocity": 85,
              "position": 9.989583333333334,
              "duration": 0.19375
            },
            {
              "pitch": 74,
              "velocity": 81,
              "position": 10.739583333333334,
              "duration": 0.19375
            },
            {
              "pitch": 79,
              "velocity": 85,
              "position": 10.739583333333334,
              "duration": 0.19375
            },
            {
              "pitch": 77,
              "velocity": 81,
              "position": 11.489583333333334,
              "duration": 0.23541666666666666
            },
            {
              "pitch": 82,
              "velocity": 85,
              "position": 11.489583333333334,
              "duration": 0.23541666666666666
            },
            {
              "pitch": 78,
              "velocity": 81,
              "position": 11.739583333333334,
              "duration": 0.23541666666666666
            },
            {
              "pitch": 83,
              "velocity": 85,
              "position": 11.739583333333334,
              "duration": 0.23541666666666666
            },
            {
              "pitch": 79,
              "velocity": 81,
              "position": 11.989583333333334,
              "duration": 0.21458333333333332
            },
            {
              "pitch": 84,
              "velocity": 85,
              "position": 12,
              "duration": 0.21458333333333332
            },
            {
              "pitch": 79,
              "velocity": 81,
              "position": 12.5,
              "duration": 0.20416666666666666
            },
            {
              "pitch": 84,
              "velocity": 85,
              "position": 12.5,
              "duration": 0.21458333333333332
            },
            {
              "pitch": 84,
              "velocity": 87,
              "position": 12.989583333333334,
              "duration": 0.21458333333333332
            },
            {
              "pitch": 79,
              "velocity": 81,
              "position": 12.989583333333334,
              "duration": 0.225
            },
            {
              "pitch": 79,
              "velocity": 81,
              "position": 13.5,
              "duration": 0.20416666666666666
            },
            {
              "pitch": 84,
              "velocity": 90,
              "position": 13.5,
              "duration": 0.21458333333333332
            },
            {
              "pitch": 79,
              "velocity": 81,
              "position": 13.989583333333334,
              "duration": 0.56875
            },
            {
              "pitch": 84,
              "velocity": 90,
              "position": 14,
              "duration": 0.56875
            }
          ]
        },
        "14": {
          "ctab": {
            "srcChannel": 14,
            "name": "P1",
            "accType": "PHRASE1",
            "editable": false,
            "mutedNotes": [],
            "mutedChords": [
              "dim7",
              "dim",
              "minMaj7(9)",
              "minMaj7",
              "min7(11)",
              "min7(9)",
              "min(9)",
              "m7b5",
              "min7",
              "min6",
              "min"
            ],
            "autoStart": false,
            "sourceChordNote": 0,
            "sourceChordType": "Maj",
            "ctb2Low": null,
            "ctb2Main": {
              "ntr": "ROOT_TRANSPOSITION",
              "ntt": "BYPASS",
              "bassOn": false,
              "chordRootUpperLimit": 2,
              "noteLowLimit": 0,
              "noteHighLimit": 127,
              "rtr": "PITCH_SHIFT"
            },
            "ctb2High": null
          },
          "notes": [
            {
              "pitch": 66,
              "velocity": 120,
              "position": 0.010416666666666666,
              "duration": 2.995833333333333
            },
            {
              "pitch": 70,
              "velocity": 120,
              "position": 0.010416666666666666,
              "duration": 2.995833333333333
            },
            {
              "pitch": 63,
              "velocity": 60,
              "position": 3.28125,
              "duration": 0.23541666666666666
            },
            {
              "pitch": 67,
              "velocity": 60,
              "position": 3.28125,
              "duration": 0.23541666666666666
            },
            {
              "pitch": 64,
              "velocity": 81,
              "position": 3.53125,
              "duration": 0.23541666666666666
            },
            {
              "pitch": 68,
              "velocity": 81,
              "position": 3.53125,
              "duration": 0.23541666666666666
            },
            {
              "pitch": 65,
              "velocity": 101,
              "position": 3.78125,
              "duration": 0.23541666666666666
            },
            {
              "pitch": 69,
              "velocity": 101,
              "position": 3.78125,
              "duration": 0.23541666666666666
            },
            {
              "pitch": 70,
              "velocity": 40,
              "position": 4.5,
              "duration": 0.18333333333333332
            },
            {
              "pitch": 63,
              "velocity": 101,
              "position": 4.53125,
              "duration": 0.19375
            },
            {
              "pitch": 62,
              "velocity": 92,
              "position": 5,
              "duration": 0.225
            },
            {
              "pitch": 69,
              "velocity": 39,
              "position": 5,
              "duration": 0.23541666666666666
            },
            {
              "pitch": 60,
              "velocity": 101,
              "position": 5.239583333333333,
              "duration": 0.1625
            },
            {
              "pitch": 67,
              "velocity": 36,
              "position": 5.25,
              "duration": 0.17291666666666666
            },
            {
              "pitch": 69,
              "velocity": 125,
              "position": 8.489583333333334,
              "duration": 0.17291666666666666
            },
            {
              "pitch": 65,
              "velocity": 117,
              "position": 8.489583333333334,
              "duration": 0.18333333333333332
            },
            {
              "pitch": 69,
              "velocity": 115,
              "position": 9.25,
              "duration": 0.1625
            },
            {
              "pitch": 65,
              "velocity": 127,
              "position": 9.25,
              "duration": 0.18333333333333332
            },
            {
              "pitch": 65,
              "velocity": 123,
              "position": 10,
              "duration": 0.17291666666666666
            },
            {
              "pitch": 69,
              "velocity": 124,
              "position": 9.989583333333334,
              "duration": 0.19375
            },
            {
              "pitch": 65,
              "velocity": 123,
              "position": 10.75,
              "duration": 0.17291666666666666
            },
            {
              "pitch": 69,
              "velocity": 124,
              "position": 10.739583333333334,
              "duration": 0.19375
            },
            {
              "pitch": 68,
              "velocity": 69,
              "position": 11.489583333333334,
              "duration": 0.23541666666666666
            },
            {
              "pitch": 72,
              "velocity": 77,
              "position": 11.489583333333334,
              "duration": 0.23541666666666666
            },
            {
              "pitch": 69,
              "velocity": 84,
              "position": 11.739583333333334,
              "duration": 0.23541666666666666
            },
            {
              "pitch": 73,
              "velocity": 92,
              "position": 11.739583333333334,
              "duration": 0.23541666666666666
            },
            {
              "pitch": 74,
              "velocity": 125,
              "position": 11.989583333333334,
              "duration": 0.17291666666666666
            },
            {
              "pitch": 70,
              "velocity": 117,
              "position": 11.989583333333334,
              "duration": 0.18333333333333332
            },
            {
              "pitch": 74,
              "velocity": 115,
              "position": 12.5,
              "duration": 0.1625
            },
            {
              "pitch": 70,
              "velocity": 127,
              "position": 12.5,
              "duration": 0.18333333333333332
            },
            {
              "pitch": 70,
              "velocity": 123,
              "position": 13,
              "duration": 0.17291666666666666
            },
            {
              "pitch": 74,
              "velocity": 124,
              "position": 12.989583333333334,
              "duration": 0.19375
            },
            {
              "pitch": 70,
              "velocity": 123,
              "position": 13.5,
              "duration": 0.17291666666666666
            },
            {
              "pitch": 74,
              "velocity": 124,
              "position": 13.489583333333334,
              "duration": 0.19375
            },
            {
              "pitch": 70,
              "velocity": 123,
              "position": 14,
              "duration": 0.5479166666666667
            },
            {
              "pitch": 74,
              "velocity": 124,
              "position": 13.989583333333334,
              "duration": 0.56875
            }
          ]
        },
        "15": {
          "ctab": {
            "srcChannel": 15,
            "name": "P2",
            "accType": "PHRASE2",
            "editable": false,
            "mutedNotes": [],
            "mutedChords": [
              "dim7",
              "dim",
              "minMaj7(9)",
              "minMaj7",
              "min7(11)",
              "min7(9)",
              "min(9)",
              "m7b5",
              "min7",
              "min6",
              "min"
            ],
            "autoStart": false,
            "sourceChordNote": 0,
            "sourceChordType": "Maj",
            "ctb2Low": null,
            "ctb2Main": {
              "ntr": "ROOT_TRANSPOSITION",
              "ntt": "BYPASS",
              "bassOn": false,
              "chordRootUpperLimit": 2,
              "noteLowLimit": 33,
              "noteHighLimit": 127,
              "rtr": "PITCH_SHIFT"
            },
            "ctb2High": null
          },
          "notes": [
            {
              "pitch": 60,
              "velocity": 65,
              "position": 0.010416666666666666,
              "duration": 2.933333333333333
            },
            {
              "pitch": 27,
              "velocity": 120,
              "position": 3.2395833333333335,
              "duration": 0.23541666666666666
            },
            {
              "pitch": 28,
              "velocity": 120,
              "position": 3.4895833333333335,
              "duration": 0.23541666666666666
            },
            {
              "pitch": 29,
              "velocity": 120,
              "position": 3.7395833333333335,
              "duration": 0.1625
            },
            {
              "pitch": 29,
              "velocity": 120,
              "position": 4.239583333333333,
              "duration": 0.1625
            },
            {
              "pitch": 67,
              "velocity": 80,
              "position": 4.5,
              "duration": 0.18333333333333332
            },
            {
              "pitch": 65,
              "velocity": 77,
              "position": 5,
              "duration": 0.23541666666666666
            },
            {
              "pitch": 63,
              "velocity": 73,
              "position": 5.25,
              "duration": 0.17291666666666666
            },
            {
              "pitch": 29,
              "velocity": 120,
              "position": 5.489583333333333,
              "duration": 0.1625
            },
            {
              "pitch": 59,
              "velocity": 77,
              "position": 8.489583333333334,
              "duration": 0.17291666666666666
            },
            {
              "pitch": 31,
              "velocity": 120,
              "position": 8.739583333333334,
              "duration": 0.1625
            },
            {
              "pitch": 59,
              "velocity": 80,
              "position": 9.239583333333334,
              "duration": 0.18333333333333332
            },
            {
              "pitch": 31,
              "velocity": 115,
              "position": 9.5,
              "duration": 0.1625
            },
            {
              "pitch": 59,
              "velocity": 76,
              "position": 10,
              "duration": 0.18333333333333332
            },
            {
              "pitch": 62,
              "velocity": 74,
              "position": 11.489583333333334,
              "duration": 0.23541666666666666
            },
            {
              "pitch": 63,
              "velocity": 74,
              "position": 11.739583333333334,
              "duration": 0.23541666666666666
            },
            {
              "pitch": 64,
              "velocity": 74,
              "position": 11.989583333333334,
              "duration": 0.17291666666666666
            },
            {
              "pitch": 24,
              "velocity": 122,
              "position": 12.489583333333334,
              "duration": 0.17291666666666666
            },
            {
              "pitch": 24,
              "velocity": 122,
              "position": 12.989583333333334,
              "duration": 0.17291666666666666
            },
            {
              "pitch": 24,
              "velocity": 122,
              "position": 13.489583333333334,
              "duration": 0.17291666666666666
            },
            {
              "pitch": 24,
              "velocity": 122,
              "position": 13.989583333333334,
              "duration": 0.5479166666666667
            }
          ]
        }
      }
    }
  }
}