{
  "name": "XT_Ferna.sty",
  "tempo": 80,
  "timeSignature": "4/4",
  "ticksPerQuarter": 1920,
  "sffType": "SFF1",
  "division": "BINARY",
  "parts": {
    "Main_A": {
      "type": "Main_A",
      "sizeInBeats": 8,
      "channels": {
        "1": {
          "ctab": {
            "srcChannel": 1,
            "name": "E-Pia",
            "accType": "PHRASE1",
            "editable": false,
            "mutedNotes": [],
            "mutedChords": [],
            "autoStart": false,
            "sourceChordNote": 0,
            "sourceChordType": "Maj7",
            "ctb2Low": null,
            "ctb2Main": {
              "ntr": "ROOT_FIXED",
              "ntt": "CHORD",
              "bassOn": false,
              "chordRootUpperLimit": 7,
              "noteLowLimit": 0,
              "noteHighLimit": 127,
              "rtr": "PITCH_SHIFT"
            },
            "ctb2High": null
          },
          "notes": [
            {
              "pitch": 55,
              "velocity": 92,
              "position": 0,
              "duration": 0.28125
            },
            {
              "pitch": 59,
              "velocity": 92,
              "position": 0,
              "duration": 0.28125
            },
            {
              "pitch": 64,
              "velocity": 92,
              "position": 0,
              "duration": 0.28125
            },
            {
              "pitch": 55,
              "velocity": 100,
              "position": 1,
              "duration": 1.2395833333333333
            },
            {
              "pitch": 59,
              "velocity": 100,
              "position": 1,
              "duration": 1.2395833333333333
            },
            {
              "pitch": 64,
              "velocity": 100,
              "position": 1,
              "duration": 1.2395833333333333
            },
            {
              "pitch": 55,
              "velocity": 88,
              "position": 2.5,
              "duration": 1.78125
            },
            {
              "pitch": 59,
              "velocity": 96,
              "position": 3,
              "duration": 1.28125
            },
            {
              "pitch": 64,
              "velocity": 96,
              "position": 3,
              "duration": 1.28125
            },
            {
              "pitch": 55,
              "velocity": 97,
              "position": 5,
              "duration": 1.2395833333333333
            },
            {
              "pitch": 59,
              "velocity": 97,
              "position": 5,
              "duration": 1.2395833333333333
            },
            {
              "pitch": 64,
              "velocity": 97,
              "position": 5,
              "duration": 1.2395833333333333
            },
            {
              "pitch": 55,
              "velocity": 80,
              "position": 6.5,
              "duration": 1.4895833333333333
            },
            {
              "pitch": 59,
              "velocity": 100,
              "position": 7,
              "duration": 0.9895833333333334
            },
            {
              "pitch": 64,
              "velocity": 100,
              "position": 7,
              "duration": 0.9895833333333334
            }
          ]
        },
        "2": {
          "ctab": {
            "srcChannel": 2,
            "name": "A-Gtr",
            "accType": "CHORD2",
            "editable": false,
            "mutedNotes": [],
            "mutedChords": [],
            "autoStart": false,
            "sourceChordNote": 0,
            "sourceChordType": "min7(11)",
            "ctb2Low": null,
            "ctb2Main": {
              "ntr": "ROOT_FIXED",
              "ntt": "CHORD",
              "bassOn": false,
              "chordRootUpperLimit": 7,
              "noteLowLimit": 0,
              "noteHighLimit": 127,
              "rtr": "PITCH_SHIFT"
            },
            "ctb2High": null
          },
          "notes": [
            {
              "pitch": 48,
              "velocity": 12,
              "position": 0,
              "duration": 0.9791666666666666
            },
            {
              "pitch": 53,
              "velocity": 52,
              "position": 0,
              "duration": 0.9791666666666666
            },
            {
              "pitch": 58,
              "velocity": 58,
              "position": 0.010416666666666666,
              "duration": 0.9791666666666666
            },
            {
              "pitch": 63,
              "velocity": 48,
              "position": 0.020833333333333332,
              "duration": 0.96875
            },
            {
              "pitch": 48,
              "velocity": 21,
              "position": 1,
              "duration": 0.9791666666666666
            },
            {
              "pitch": 53,
              "velocity": 50,
              "position": 1,
              "duration": 0.9791666666666666
            },
            {
              "pitch": 58,
              "velocity": 56,
              "position": 1.0104166666666667,
              "duration": 0.9791666666666666
            },
            {
              "pitch": 63,
              "velocity": 46,
              "position": 1.0208333333333333,
              "duration": 0.9791666666666666
            },
            {
              "pitch": 48,
              "velocity": 16,
              "position": 2,
              "duration": 0.4791666666666667
            },
            {
              "pitch": 53,
              "velocity": 46,
              "position": 2,
              "duration": 0.4791666666666667
            },
            {
              "pitch": 58,
              "velocity": 52,
              "position": 2.0104166666666665,
              "duration": 0.4791666666666667
            },
            {
              "pitch": 63,
              "velocity": 46,
              "position": 2.0208333333333335,
              "duration": 0.9583333333333334
            },
            {
              "pitch": 48,
              "velocity": 12,
              "position": 2.5208333333333335,
              "duration": 0.46875
            },
            {
              "pitch": 53,
              "velocity": 42,
              "position": 2.5208333333333335,
              "duration": 0.46875
            },
            {
              "pitch": 58,
              "velocity": 48,
              "position": 2.5104166666666665,
              "duration": 0.4791666666666667
            },
            {
              "pitch": 48,
              "velocity": 14,
              "position": 3,
              "duration": 0.9791666666666666
            },
            {
              "pitch": 53,
              "velocity": 54,
              "position": 3,
              "duration": 0.9791666666666666
            },
            {
              "pitch": 58,
              "velocity": 60,
              "position": 3.0104166666666665,
              "duration": 0.9791666666666666
            },
            {
              "pitch": 63,
              "velocity": 50,
              "position": 3.0208333333333335,
              "duration": 0.9791666666666666
            },
            {
              "pitch": 48,
              "velocity": 14,
              "position": 4,
              "duration": 0.9791666666666666
            },
            {
              "pitch": 53,
              "velocity": 54,
              "position": 4,
              "duration": 0.9791666666666666
            },
            {
              "pitch": 58,
              "velocity": 60,
              "position": 4.010416666666667,
              "duration": 0.9791666666666666
            },
            {
              "pitch": 63,
              "velocity": 50,
              "position": 4.020833333333333,
              "duration": 0.96875
            },
            {
              "pitch": 48,
              "velocity": 16,
              "position": 5,
              "duration": 0.4791666666666667
            },
            {
              "pitch": 53,
              "velocity": 46,
              "position": 5,
              "duration": 0.4791666666666667
            },
            {
              "pitch": 63,
              "velocity": 42,
              "position": 5.020833333333333,
              "duration": 0.4583333333333333
            },
            {
              "pitch": 58,
              "velocity": 52,
              "position": 5.010416666666667,
              "duration": 0.4791666666666667
            },
            {
              "pitch": 48,
              "velocity": 23,
              "position": 5.510416666666667,
              "duration": 0.9791666666666666
            },
            {
              "pitch": 53,
              "velocity": 52,
              "position": 5.510416666666667,
              "duration": 0.9791666666666666
            },
            {
              "pitch": 58,
              "velocity": 58,
              "position": 5.510416666666667,
              "duration": 0.9791666666666666
            },
            {
              "pitch": 63,
              "velocity": 48,
              "position": 5.510416666666667,
              "duration": 0.9791666666666666
            },
            {
              "pitch": 63,
              "velocity": 37,
              "position": 6.5,
              "duration": 0.4791666666666667
            },
            {
              "pitch": 48,
              "velocity": 12,
              "position": 6.520833333333333,
              "duration": 0.46875
            },
            {
              "pitch": 53,
              "velocity": 42,
              "position": 6.520833333333333,
              "duration": 0.46875
            },
            {
              "pitch": 58,
              "velocity": 48,
              "position": 6.510416666666667,
              "duration": 0.4791666666666667
            },
            {
              "pitch": 48,
              "velocity": 23,
              "position": 7,
              "duration": 0.9791666666666666
            },
            {
              "pitch": 53,
              "velocity": 54,
              "position": 7,
              "duration": 0.9791666666666666
            },
            {
              "pitch": 58,
              "velocity": 60,
              "position": 7.010416666666667,
              "duration": 0.96875
            },
            {
              "pitch": 63,
              "velocity": 50,
              "position": 7.020833333333333,
              "duration": 0.9583333333333334
            }
          ]
        },
        "4": {
          "ctab": {
            "srcChannel": 4,
            "name": "Strums",
            "accType": "CHORD2",
            "editable": false,
            "mutedNotes": [],
            "mutedChords": [],
            "autoStart": false,
            "sourceChordNote": 0,
            "sourceChordType": "min7(11)",
            "ctb2Low": null,
            "ctb2Main": {
              "ntr": "ROOT_FIXED",
              "ntt": "BYPASS",
              "bassOn": false,
              "chordRootUpperLimit": 7,
              "noteLowLimit": 96,
              "noteHighLimit": 127,
              "rtr": "PITCH_SHIFT"
            },
            "ctb2High": null
          },
          "notes": []
        },
        "7": {
          "ctab": {
            "srcChannel": 7,
            "name": "CC_Crash",
            "accType": "RHYTHM",
            "editable": false,
            "mutedNotes": [],
            "mutedChords": [
              "1+2+5",
              "sus4",
              "1+5",
              "1+8",
              "7aug",
              "Maj7aug",
              "7(#9)",
              "7(b13)",
              "7(b9)",
              "7(13)",
              "7#11",
              "7(9)",
              "7b5",
              "7sus4",
              "7th",
              "dim7",
              "dim",
              "minMaj7(9)",
              "minMaj7",
              "min7(11)",
              "min7(9)",
              "min(9)",
              "m7b5",
              "min7",
              "min6",
              "min",
              "aug",
              "Maj6(9)",
              "Maj7(9)",
              "Maj(9)",
              "Maj7#11",
              "Maj7",
              "Maj6",
              "Maj"
            ],
            "autoStart": true,
            "sourceChordNote": 0,
            "sourceChordType": "Maj",
            "ctb2Low": null,
            "ctb2Main": {
              "ntr": "ROOT_FIXED",
              "ntt": "BYPASS",
              "bassOn": false,
              "chordRootUpperLimit": 0,
              "noteLowLimit": 0,
              "noteHighLimit": 127,
              "rtr": "RETRIGGER"
            },
            "ctb2High": null
          },
          "notes": []
        },
        "8": {
          "ctab": {
            "srcChannel": 8,
            "name": "AddDrums",
            "accType": "SUBRHYTHM",
            "editable": false,
            "mutedNotes": [],
            "mutedChords": [],
            "autoStart": true,
            "sourceChordNote": 0,
            "sourceChordType": "Maj7",
            "ctb2Low": null,
            "ctb2Main": {
              "ntr": "ROOT_FIXED",
              "ntt": "BYPASS",
              "bassOn": false,
              "chordRootUpperLimit": 6,
              "noteLowLimit": 0,
              "noteHighLimit": 127,
              "rtr": "PITCH_SHIFT"
            },
            "ctb2High": null
          },
          "notes": []
        },
        "9": {
          "ctab": {
            "srcChannel": 9,
            "name": "Drums",
            "accType": "RHYTHM",
            "editable": false,
            "mutedNotes": [],
            "mutedChords": [],
            "autoStart": true,
            "sourceChordNote": 0,
            "sourceChordType": "Maj7",
            "ctb2Low": null,
            "ctb2Main": {
              "ntr": "ROOT_FIXED",
              "ntt": "BYPASS",
              "bassOn": false,
              "chordRootUpperLimit": 6,
              "noteLowLimit": 0,
              "noteHighLimit": 127,
              "rtr": "PITCH_SHIFT"
            },
            "ctb2High": null
          },
          "notes": [
            {
              "pitch": 36,
              "velocity": 92,
              "position": 0,
              "duration": 0.041666666666666664
            },
            {
              "pitch": 42,
              "velocity": 112,
              "position": 0,
              "duration": 0.041666666666666664
            },
            {
              "pitch": 42,
              "velocity": 43,
              "position": 0.5,
              "duration": 0.041666666666666664
            },
            {
              "pitch": 42,
              "velocity": 110,
              "position": 1,
              "duration": 0.041666666666666664
            },
            {
              "pitch": 36,
              "velocity": 68,
              "position": 1.5,
              "duration": 0.041666666666666664
            },
            {
              "pitch": 42,
              "velocity": 41,
              "position": 1.5,
              "duration": 0.041666666666666664
            },
            {
              "pitch": 36,
              "velocity": 92,
              "position": 2,
              "duration": 0.041666666666666664
            },
            {
              "pitch": 42,
              "velocity": 112,
              "position": 2,
              "duration": 0.041666666666666664
            },
            {
              "pitch": 42,
              "velocity": 43,
              "position": 2.5,
              "duration": 0.041666666666666664
            },
            {
              "pitch": 37,
              "velocity": 90,
              "position": 3,
              "duration": 0.041666666666666664
            },
            {
              "pitch": 42,
              "velocity": 110,
              "position": 3,
              "duration": 0.041666666666666664
            },
            {
              "pitch": 42,
              "velocity": 41,
              "position": 3.5,
              "duration": 0.041666666666666664
            },
            {
              "pitch": 36,
              "velocity": 92,
              "position": 4,
              "duration": 0.041666666666666664
            },
            {
              "pitch": 42,
              "velocity": 112,
              "position": 4,
              "duration": 0.041666666666666664
            },
            {
              "pitch": 42,
              "velocity": 43,
              "position": 4.5,
              "duration": 0.041666666666666664
            },
            {
              "pitch": 42,
              "velocity": 110,
              "position": 5,
              "duration": 0.041666666666666664
            },
            {
              "pitch": 36,
              "velocity": 68,
              "position": 5.5,
              "duration": 0.041666666666666664
            },
            {
              "pitch": 42,
              "velocity": 41,
              "position": 5.5,
              "duration": 0.041666666666666664
            },
            {
              "pitch": 36,
              "velocity": 92,
              "position": 6,
              "duration": 0.041666666666666664
            },
            {
              "pitch": 42,
              "velocity": 110,
              "position": 6,
              "duration": 0.041666666666666664
            },
            {
              "pitch": 42,
              "velocity": 41,
              "position": 6.5,
              "duration": 0.041666666666666664
            },
            {
              "pitch": 37,
              "velocity": 90,
              "position": 7,
              "duration": 0.041666666666666664
            },
            {
              "pitch": 42,
              "velocity": 112,
              "position": 7,
              "duration": 0.041666666666666664
            },
            {
              "pitch": 42,
              "velocity": 43,
              "position": 7.5,
              "duration": 0.041666666666666664
            }
          ]
        },
        "10": {
          "ctab": {
            "srcChannel": 10,
            "name": "Bass",
            "accType": "BASS",
            "editable": false,
            "mutedNotes": [],
            "mutedChords": [],
            "autoStart": false,
            "sourceChordNote": 0,
            "sourceChordType": "Maj7",
            "ctb2Low": null,
            "ctb2Main": {
              "ntr": "ROOT_TRANSPOSITION",
              "ntt": "MELODY",
              "bassOn": true,
              "chordRootUpperLimit": 3,
              "noteLowLimit": 28,
              "noteHighLimit": 127,
              "rtr": "PITCH_SHIFT_TO_ROOT"
            },
            "ctb2High": null
          },
          "notes": [
            {
              "pitch": 24,
              "velocity": 83,
              "position": 0,
              "duration": 1.125
            },
            {
              "pitch": 24,
              "velocity": 83,
              "position": 1.5,
              "duration": 0.4895833333333333
            },
            {
              "pitch": 24,
              "velocity": 83,
              "position": 2,
              "duration": 1.125
            },
            {
              "pitch": 24,
              "velocity": 83,
              "position": 4,
              "duration": 1.125
            },
            {
              "pitch": 24,
              "velocity": 83,
              "position": 5.5,
              "duration": 0.4895833333333333
            },
            {
              "pitch": 24,
              "velocity": 83,
              "position": 6,
              "duration": 1.125
            }
          ]
        },
        "11": {
          "ctab": {
            "srcChannel": 11,
            "name": "Chord1",
            "accType": "CHORD1",
            "editable": false,
            "mutedNotes": [],
            "mutedChords": [],
            "autoStart": false,
            "sourceChordNote": 0,
            "sourceChordType": "Maj7",
            "ctb2Low": null,
            "ctb2Main": {
              "ntr": "ROOT_FIXED",
              "ntt": "CHORD",
              "bassOn": false,
              "chordRootUpperLimit": 7,
              "noteLowLimit": 0,
              "noteHighLimit": 127,
              "rtr": "PITCH_SHIFT"
            },
            "ctb2High": null
          },
          "notes": [
            {
              "pitch": 59,
              "velocity": 66,
              "position": 3,
              "duration": 0.1875
            },
            {
              "pitch": 64,
              "velocity": 73,
              "position": 3.0104166666666665,
              "duration": 0.17708333333333334
            },
            {
              "pitch": 67,
              "velocity": 75,
              "position": 3.0208333333333335,
              "duration": 0.16666666666666666
            },
            {
              "pitch": 59,
              "velocity": 66,
              "position": 7,
              "duration": 0.1875
            },
            {
              "pitch": 64,
              "velocity": 72,
              "position": 7.010416666666667,
              "duration": 0.17708333333333334
            },
            {
              "pitch": 67,
              "velocity": 75,
              "position": 7.020833333333333,
              "duration": 0.16666666666666666
            }
          ]
        },
        "13": {
          "ctab": {
            "srcChannel": 13,
            "name": "Pad",
            "accType": "PAD",
            "editable": false,
            "mutedNotes": [],
            "mutedChords": [],
            "autoStart": false,
            "sourceChordNote": 0,
            "sourceChordType": "Maj7",
            "ctb2Low": null,
            "ctb2Main": {
              "ntr": "ROOT_FIXED",
              "ntt": "CHORD",
              "bassOn": false,
              "chordRootUpperLimit": 7,
              "noteLowLimit": 0,
              "noteHighLimit": 127,
              "rtr": "PITCH_SHIFT"
            },
            "ctb2High": null
          },
          "notes": [
            {
              "pitch": 55,
              "velocity": 47,
              "position": 0,
              "duration": 7.989583333333333
            },
            {
              "pitch": 59,
              "velocity": 47,
              "position": 0,
              "duration": 7.989583333333333
            },
            {
              "pitch": 64,
              "velocity": 47,
              "position": 0,
              "duration": 7.989583333333333
            }
          ]
        },
        "14": {
          "ctab": {
            "srcChannel": 14,
            "name": "PadRoot",
            "accType": "PAD",
            "editable": false,
            "mutedNotes": [],
            "mutedChords": [
              "1+2+5",
              "sus4",
              "1+5",
              "1+8",
              "Maj7aug",
              "dim",
              "minMaj7(9)",
              "minMaj7",
              "min6",
              "min",
              "aug",
              "Maj7(9)",
              "Maj7#11",
              "Maj7",
              "Maj6",
              "Maj"
            ],
            "autoStart": false,
            "sourceChordNote": 0,
            "sourceChordType": "Maj7",
            "ctb2Low": null,
            "ctb2Main": {
              "ntr": "ROOT_TRANSPOSITION",
              "ntt": "CHORD",
              "bassOn": false,
              "chordRootUpperLimit": 6,
              "noteLowLimit": 0,
              "noteHighLimit": 127,
              "rtr": "PITCH_SHIFT"
            },
            "ctb2High": null
          },
          "notes": [
            {
              "pitch": 60,
              "velocity": 47,
              "position": 0,
              "duration": 7.989583333333333
            }
          ]
        }
      }
    },
    "Main_B": {
      "type": "Main_B",
      "sizeInBeats": 8,
      "channels": {
        "1": {
          "ctab": {
            "srcChannel": 1,
            "name": "E-Pia",
            "accType": "PHRASE1",
            "editable": false,
            "mutedNotes": [],
            "mutedChords": [],
            "autoStart": false,
            "sourceChordNote": 0,
            "sourceChordType": "Maj7",
            "ctb2Low": null,
            "ctb2Main": {
              "ntr": "ROOT_FIXED",
              "ntt": "CHORD",
              "bassOn": false,
              "chordRootUpperLimit": 7,
              "noteLowLimit": 0,
              "noteHighLimit": 127,
              "rtr": "PITCH_SHIFT"
            },
            "ctb2High": null
          },
          "notes": [
            {
              "pitch": 55,
              "velocity": 106,
              "position": 0,
              "duration": 0.28125
            },
            {
              "pitch": 59,
              "velocity": 106,
              "position": 0,
              "duration": 0.28125
            },
            {
              "pitch": 64,
              "velocity": 106,
              "position": 0,
              "duration": 0.28125
            },
            {
              "pitch": 55,
              "velocity": 106,
              "position": 1,
              "duration": 2.875
            },
            {
              "pitch": 59,
              "velocity": 106,
              "position": 1,
              "duration": 2.875
            },
            {
              "pitch": 64,
              "velocity": 106,
              "position": 1,
              "duration": 2.875
            },
            {
              "pitch": 55,
              "velocity": 102,
              "position": 4,
              "duration": 0.3229166666666667
            },
            {
              "pitch": 59,
              "velocity": 102,
              "position": 4,
              "duration": 0.3229166666666667
            },
            {
              "pitch": 64,
              "velocity": 102,
              "position": 4,
              "duration": 0.3229166666666667
            },
            {
              "pitch": 55,
              "velocity": 101,
              "position": 5,
              "duration": 1.2395833333333333
            },
            {
              "pitch": 59,
              "velocity": 101,
              "position": 5,
              "duration": 1.2395833333333333
            },
            {
              "pitch": 64,
              "velocity": 101,
              "position": 5,
              "duration": 1.2395833333333333
            },
            {
              "pitch": 55,
              "velocity": 90,
              "position": 6.5,
              "duration": 1.4166666666666667
            },
            {
              "pitch": 59,
              "velocity": 100,
              "position": 7,
              "duration": 0.9375
            },
            {
              "pitch": 64,
              "velocity": 100,
              "position": 7,
              "duration": 0.9375
            }
          ]
        },
        "2": {
          "ctab": {
            "srcChannel": 2,
            "name": "A-Gtr",
            "accType": "CHORD2",
            "editable": false,
            "mutedNotes": [],
            "mutedChords": [],
            "autoStart": false,
            "sourceChordNote": 0,
            "sourceChordType": "min7(11)",
            "ctb2Low": null,
            "ctb2Main": {
              "ntr": "ROOT_FIXED",
              "ntt": "CHORD",
              "bassOn": false,
              "chordRootUpperLimit": 7,
              "noteLowLimit": 0,
              "noteHighLimit": 127,
              "rtr": "PITCH_SHIFT"
            },
            "ctb2High": null
          },
          "notes": [
            {
              "pitch": 48,
              "velocity": 2,
              "position": 0,
              "duration": 0.4791666666666667
            },
            {
              "pitch": 53,
              "velocity": 48,
              "position": 0,
              "duration": 0.4791666666666667
            },
            {
              "pitch": 58,
              "velocity": 54,
              "position": 0,
              "duration": 0.4791666666666667
            },
            {
              "pitch": 63,
              "velocity": 44,
              "position": 0.010416666666666666,
              "duration": 0.4791666666666667
            },
            {
              "pitch": 58,
              "velocity": 42,
              "position": 0.5,
              "duration": 0.4791666666666667
            },
            {
              "pitch": 63,
              "velocity": 25,
              "position": 0.5,
              "duration": 0.4791666666666667
            },
            {
              "pitch": 48,
              "velocity": 2,
              "position": 0.5104166666666666,
              "duration": 0.4791666666666667
            },
            {
              "pitch": 48,
              "velocity": 2,
              "position": 1,
              "duration": 0.9791666666666666
            },
            {
              "pitch": 58,
              "velocity": 73,
              "position": 1,
              "duration": 0.9791666666666666
            },
            {
              "pitch": 53,
              "velocity": 65,
              "position": 0.5104166666666666,
              "duration": 1.475
            },
            {
              "pitch": 63,
              "velocity": 69,
              "position": 1.0104166666666667,
              "duration": 0.9791666666666666
            },
            {
              "pitch": 48,
              "velocity": 2,
              "position": 2,
              "duration": 0.4791666666666667
            },
            {
              "pitch": 53,
              "velocity": 46,
              "position": 2,
              "duration": 0.4791666666666667
            },
            {
              "pitch": 58,
              "velocity": 52,
              "position": 2,
              "duration": 0.4791666666666667
            },
            {
              "pitch": 63,
              "velocity": 42,
              "position": 2.0104166666666665,
              "duration": 0.4791666666666667
            },
            {
              "pitch": 58,
              "velocity": 42,
              "position": 2.5,
              "duration": 0.4791666666666667
            },
            {
              "pitch": 63,
              "velocity": 31,
              "position": 2.5,
              "duration": 0.4791666666666667
            },
            {
              "pitch": 48,
              "velocity": 2,
              "position": 2.5104166666666665,
              "duration": 0.4791666666666667
            },
            {
              "pitch": 53,
              "velocity": 37,
              "position": 2.5104166666666665,
              "duration": 0.4791666666666667
            },
            {
              "pitch": 48,
              "velocity": 2,
              "position": 3,
              "duration": 0.9791666666666666
            },
            {
              "pitch": 53,
              "velocity": 46,
              "position": 3,
              "duration": 0.9791666666666666
            },
            {
              "pitch": 58,
              "velocity": 52,
              "position": 3,
              "duration": 0.9791666666666666
            },
            {
              "pitch": 63,
              "velocity": 69,
              "position": 3.0104166666666665,
              "duration": 0.9791666666666666
            },
            {
              "pitch": 48,
              "velocity": 2,
              "position": 4,
              "duration": 0.4791666666666667
            },
            {
              "pitch": 53,
              "velocity": 48,
              "position": 4,
              "duration": 0.4791666666666667
            },
            {
              "pitch": 58,
              "velocity": 54,
              "position": 4,
              "duration": 0.4791666666666667
            },
            {
              "pitch": 63,
              "velocity": 44,
              "position": 4.010416666666667,
              "duration": 0.4791666666666667
            },
            {
              "pitch": 58,
              "velocity": 42,
              "position": 4.5,
              "duration": 0.4791666666666667
            },
            {
              "pitch": 63,
              "velocity": 31,
              "position": 4.5,
              "duration": 0.4791666666666667
            },
            {
              "pitch": 48,
              "velocity": 2,
              "position": 4.510416666666667,
              "duration": 0.4791666666666667
            },
            {
              "pitch": 53,
              "velocity": 37,
              "position": 4.510416666666667,
              "duration": 0.4791666666666667
            },
            {
              "pitch": 48,
              "velocity": 2,
              "position": 5,
              "duration": 0.4791666666666667
            },
            {
              "pitch": 53,
              "velocity": 37,
              "position": 5,
              "duration": 0.4791666666666667
            },
            {
              "pitch": 58,
              "velocity": 65,
              "position": 5,
              "duration": 0.4791666666666667
            },
            {
              "pitch": 63,
              "velocity": 31,
              "position": 5.010416666666667,
              "duration": 0.4791666666666667
            },
            {
              "pitch": 48,
              "velocity": 2,
              "position": 5.5,
              "duration": 0.9791666666666666
            },
            {
              "pitch": 53,
              "velocity": 46,
              "position": 5.5,
              "duration": 0.9791666666666666
            },
            {
              "pitch": 58,
              "velocity": 52,
              "position": 5.5,
              "duration": 0.9791666666666666
            },
            {
              "pitch": 63,
              "velocity": 42,
              "position": 5.510416666666667,
              "duration": 0.9791666666666666
            },
            {
              "pitch": 58,
              "velocity": 42,
              "position": 6.5,
              "duration": 0.4791666666666667
            },
            {
              "pitch": 63,
              "velocity": 31,
              "position": 6.5,
              "duration": 0.4791666666666667
            },
            {
              "pitch": 48,
              "velocity": 2,
              "position": 6.510416666666667,
              "duration": 0.4791666666666667
            },
            {
              "pitch": 53,
              "velocity": 37,
              "position": 6.510416666666667,
              "duration": 0.4791666666666667
            },
            {
              "pitch": 48,
              "velocity": 2,
              "position": 7,
              "duration": 0.9791666666666666
            },
            {
              "pitch": 53,
              "velocity": 48,
              "position": 7,
              "duration": 0.9791666666666666
            },
            {
              "pitch": 58,
              "velocity": 54,
              "position": 7,
              "duration": 0.9791666666666666
            },
            {
              "pitch": 63,
              "velocity": 52,
              "position": 7.010416666666667,
              "duration": 0.96875
            }
          ]
        },
        "4": {
          "ctab": {
            "srcChannel": 4,
            "name": "Strums",
            "accType": "CHORD2",
            "editable": false,
            "mutedNotes": [],
            "mutedChords": [],
            "autoStart": false,
            "sourceChordNote": 0,
            "sourceChordType": "min7(11)",
            "ctb2Low": null,
            "ctb2Main": {
              "ntr": "ROOT_FIXED",
              "ntt": "BYPASS",
              "bassOn": false,
              "chordRootUpperLimit": 7,
              "noteLowLimit": 96,
              "noteHighLimit": 127,
              "rtr": "PITCH_SHIFT"
            },
            "ctb2High": null
          },
          "notes": []
        },
        "7": {
          "ctab": {
            "srcChannel": 7,
            "name": "CC_Crash",
            "accType": "RHYTHM",
            "editable": false,
            "mutedNotes": [],
            "mutedChords": [
              "1+2+5",
              "sus4",
              "1+5",
              "1+8",
              "7aug",
              "Maj7aug",
              "7(#9)",
              "7(b13)",
              "7(b9)",
              "7(13)",
              "7#11",
              "7(9)",
              "7b5",
              "7sus4",
              "7th",
              "dim7",
              "dim",
              "minMaj7(9)",
              "minMaj7",
              "min7(11)",
              "min7(9)",
              "min(9)",
              "m7b5",
              "min7",
              "min6",
              "min",
              "aug",
              "Maj6(9)",
              "Maj7(9)",
              "Maj(9)",
              "Maj7#11",
              "Maj7",
              "Maj6",
              "Maj"
            ],
            "autoStart": true,
            "sourceChordNote": 0,
            "sourceChordType": "Maj",
            "ctb2Low": null,
            "ctb2Main": {
              "ntr": "ROOT_FIXED",
              "ntt": "BYPASS",
              "bassOn": false,
              "chordRootUpperLimit": 0,
              "noteLowLimit": 0,
              "noteHighLimit": 127,
              "rtr": "RETRIGGER"
            },
            "ctb2High": null
          },
          "notes": []
        },
        "8": {
          "ctab": {
            "srcChannel": 8,
            "name": "AddDrums",
            "accType": "SUBRHYTHM",
            "editable": false,
            "mutedNotes": [],
            "mutedChords": [],
            "autoStart": true,
            "sourceChordNote": 0,
            "sourceChordType": "Maj7",
            "ctb2Low": null,
            "ctb2Main": {
              "ntr": "ROOT_FIXED",
              "ntt": "BYPASS",
              "bassOn": false,
              "chordRootUpperLimit": 6,
              "noteLowLimit": 0,
              "noteHighLimit": 127,
              "rtr": "PITCH_SHIFT"
            },
            "ctb2High": null
          },
          "notes": [
            {
              "pitch": 54,
              "velocity": 80,
              "position": 3,
              "duration": 0.041666666666666664
            },
            {
              "pitch": 54,
              "velocity": 80,
              "position": 7,
              "duration": 0.041666666666666664
            }
          ]
        },
        "9": {
          "ctab": {
            "srcChannel": 9,
            "name": "Drums",
            "accType": "RHYTHM",
            "editable": false,
            "mutedNotes": [],
            "mutedChords": [],
            "autoStart": true,
            "sourceChordNote": 0,
            "sourceChordType": "Maj7",
            "ctb2Low": null,
            "ctb2Main": {
              "ntr": "ROOT_FIXED",
              "ntt": "BYPASS",
              "bassOn": false,
              "chordRootUpperLimit": 6,
              "noteLowLimit": 0,
              "noteHighLimit": 127,
              "rtr": "PITCH_SHIFT"
            },
            "ctb2High": null
          },
          "notes": [
            {
              "pitch": 36,
              "velocity": 92,
              "position": 0,
              "duration": 0.041666666666666664
            },
            {
              "pitch": 42,
              "velocity": 118,
              "position": 0,
              "duration": 0.041666666666666664
            },
            {
              "pitch": 42,
              "velocity": 44,
              "position": 0.5,
              "duration": 0.041666666666666664
            },
            {
              "pitch": 37,
              "velocity": 90,
              "position": 1,
              "duration": 0.041666666666666664
            },
            {
              "pitch": 42,
              "velocity": 116,
              "position": 1,
              "duration": 0.041666666666666664
            },
            {
              "pitch": 36,
              "velocity": 68,
              "position": 1.5,
              "duration": 0.041666666666666664
            },
            {
              "pitch": 42,
              "velocity": 42,
              "position": 1.5,
              "duration": 0.041666666666666664
            },
            {
              "pitch": 36,
              "velocity": 92,
              "position": 2,
              "duration": 0.041666666666666664
            },
            {
              "pitch": 42,
              "velocity": 118,
              "position": 2,
              "duration": 0.041666666666666664
            },
            {
              "pitch": 42,
              "velocity": 60,
              "position": 2.5,
              "duration": 0.041666666666666664
            },
            {
              "pitch": 44,
              "velocity": 17,
              "position": 3,
              "duration": 0.010416666666666666
            },
            {
              "pitch": 38,
              "velocity": 80,
              "position": 3,
              "duration": 0.041666666666666664
            },
            {
              "pitch": 42,
              "velocity": 116,
              "position": 3,
              "duration": 0.041666666666666664
            },
            {
              "pitch": 42,
              "velocity": 42,
              "position": 3.5,
              "duration": 0.041666666666666664
            },
            {
              "pitch": 36,
              "velocity": 92,
              "position": 4,
              "duration": 0.041666666666666664
            },
            {
              "pitch": 42,
              "velocity": 118,
              "position": 4,
              "duration": 0.041666666666666664
            },
            {
              "pitch": 42,
              "velocity": 44,
              "position": 4.5,
              "duration": 0.041666666666666664
            },
            {
              "pitch": 37,
              "velocity": 90,
              "position": 5,
              "duration": 0.041666666666666664
            },
            {
              "pitch": 42,
              "velocity": 116,
              "position": 5,
              "duration": 0.041666666666666664
            },
            {
              "pitch": 36,
              "velocity": 68,
              "position": 5.5,
              "duration": 0.041666666666666664
            },
            {
              "pitch": 42,
              "velocity": 42,
              "position": 5.5,
              "duration": 0.041666666666666664
            },
            {
              "pitch": 36,
              "velocity": 92,
              "position": 6,
              "duration": 0.041666666666666664
            },
            {
              "pitch": 42,
              "velocity": 116,
              "position": 6,
              "duration": 0.041666666666666664
            },
            {
              "pitch": 46,
              "velocity": 60,
              "position": 6.5,
              "duration": 0.041666666666666664
            },
            {
              "pitch": 44,
              "velocity": 15,
              "position": 7,
              "duration": 0.010416666666666666
            },
            {
              "pitch": 38,
              "velocity": 80,
              "position": 7,
              "duration": 0.041666666666666664
            },
            {
              "pitch": 42,
              "velocity": 118,
              "position": 7,
              "duration": 0.041666666666666664
            },
            {
              "pitch": 42,
              "velocity": 44,
              "position": 7.5,
              "duration": 0.041666666666666664
            }
          ]
        },
        "10": {
          "ctab": {
            "srcChannel": 10,
            "name": "Bass",
            "accType": "BASS",
            "editable": false,
            "mutedNotes": [],
            "mutedChords": [],
            "autoStart": false,
            "sourceChordNote": 0,
            "sourceChordType": "Maj7",
            "ctb2Low": null,
            "ctb2Main": {
              "ntr": "ROOT_TRANSPOSITION",
              "ntt": "MELODY",
              "bassOn": true,
              "chordRootUpperLimit": 3,
              "noteLowLimit": 28,
              "noteHighLimit": 127,
              "rtr": "PITCH_SHIFT_TO_ROOT"
            },
            "ctb2High": null
          },
          "notes": [
            {
              "pitch": 24,
              "velocity": 83,
              "position": 0,
              "duration": 1.125
            },
            {
              "pitch": 24,
              "velocity": 83,
              "position": 1.5,
              "duration": 0.4895833333333333
            },
            {
              "pitch": 24,
              "velocity": 83,
              "position": 2,
              "duration": 1.125
            },
            {
              "pitch": 24,
              "velocity": 83,
              "position": 4,
              "duration": 1.125
            },
            {
              "pitch": 24,
              "velocity": 83,
              "position": 5.5,
              "duration": 0.4895833333333333
            },
            {
              "pitch": 24,
              "velocity": 83,
              "position": 6,
              "duration": 1.125
            }
          ]
        },
        "11": {
          "ctab": {
            "srcChannel": 11,
            "name": "Chord1",
            "accType": "CHORD1",
            "editable": false,
            "mutedNotes": [],
            "mutedChords": [],
            "autoStart": false,
            "sourceChordNote": 0,
            "sourceChordType": "Maj7",
            "ctb2Low": null,
            "ctb2Main": {
              "ntr": "ROOT_FIXED",
              "ntt": "CHORD",
              "bassOn": false,
              "chordRootUpperLimit": 7,
              "noteLowLimit": 0,
              "noteHighLimit": 127,
              "rtr": "PITCH_SHIFT"
            },
            "ctb2High": null
          },
          "notes": [
            {
              "pitch": 59,
              "velocity": 82,
              "position": 1,
              "duration": 0.22916666666666666
            },
            {
              "pitch": 64,
              "velocity": 86,
              "position": 1.0104166666666667,
              "duration": 0.21875
            },
            {
              "pitch": 67,
              "velocity": 88,
              "position": 1.0208333333333333,
              "duration": 0.20833333333333334
            },
            {
              "pitch": 59,
              "velocity": 82,
              "position": 3,
              "duration": 0.22916666666666666
            },
            {
              "pitch": 64,
              "velocity": 86,
              "position": 3.0104166666666665,
              "duration": 0.21875
            },
            {
              "pitch": 67,
              "velocity": 88,
              "position": 3.0208333333333335,
              "duration": 0.20833333333333334
            },
            {
              "pitch": 59,
              "velocity": 82,
              "position": 5,
              "duration": 0.22916666666666666
            },
            {
              "pitch": 64,
              "velocity": 85,
              "position": 5.010416666666667,
              "duration": 0.21875
            },
            {
              "pitch": 67,
              "velocity": 88,
              "position": 5.020833333333333,
              "duration": 0.20833333333333334
            },
            {
              "pitch": 59,
              "velocity": 82,
              "position": 7,
              "duration": 0.22916666666666666
            },
            {
              "pitch": 64,
              "velocity": 85,
              "position": 7.010416666666667,
              "duration": 0.21875
            },
            {
              "pitch": 67,
              "velocity": 88,
              "position": 7.020833333333333,
              "duration": 0.20833333333333334
            }
          ]
        },
        "13": {
          "ctab": {
            "srcChannel": 13,
            "name": "Pad",
            "accType": "PAD",
            "editable": false,
            "mutedNotes": [],
            "mutedChords": [],
            "autoStart": false,
            "sourceChordNote": 0,
            "sourceChordType": "Maj7",
            "ctb2Low": null,
            "ctb2Main": {
              "ntr": "ROOT_FIXED",
              "ntt": "CHORD",
              "bassOn": false,
              "chordRootUpperLimit": 7,
              "noteLowLimit": 0,
              "noteHighLimit": 127,
              "rtr": "PITCH_SHIFT"
            },
            "ctb2High": null
          },
          "notes": [
            {
              "pitch": 55,
              "velocity": 53,
              "position": 0,
              "duration": 7.989583333333333
            },
            {
              "pitch": 59,
              "velocity": 53,
              "position": 0,
              "duration": 7.989583333333333
            },
            {
              "pitch": 64,
              "velocity": 53,
              "position": 0,
              "duration": 7.989583333333333
            }
          ]
        },
        "14": {
          "ctab": {
            "srcChannel": 14,
            "name": "PadRoot",
            "accType": "PAD",
            "editable": false,
            "mutedNotes": [],
            "mutedChords": [
              "1+2+5",
              "sus4",
              "1+5",
              "1+8",
              "Maj7aug",
              "dim",
              "minMaj7(9)",
              "minMaj7",
              "min6",
              "min",
              "aug",
              "Maj7(9)",
              "Maj7#11",
              "Maj7",
              "Maj6",
              "Maj"
            ],
            "autoStart": false,
            "sourceChordNote": 0,
            "sourceChordType": "Maj7",
            "ctb2Low": null,
            "ctb2Main": {
              "ntr": "ROOT_TRANSPOSITION",
              "ntt": "CHORD",
              "bassOn": false,
              "chordRootUpperLimit": 6,
              "noteLowLimit": 0,
              "noteHighLimit": 127,
              "rtr": "PITCH_SHIFT"
            },
            "ctb2High": null
          },
          "notes": [
            {
              "pitch": 60,
              "velocity": 47,
              "position": 0,
              "duration": 7.989583333333333
            }
          ]
        }
      }
    },
    "Fill_In_AA": {
      "type": "Fill_In_AA",
      "sizeInBeats": 4,
      "channels": {
        "1": {
          "ctab": {
            "srcChannel": 1,
            "name": "E-Pia",
            "accType": "PHRASE1",
            "editable": false,
            "mutedNotes": [],
            "mutedChords": [],
            "autoStart": false,
            "sourceChordNote": 0,
            "sourceChordType": "Maj7",
            "ctb2Low": null,
            "ctb2Main": {
              "ntr": "ROOT_FIXED",
              "ntt": "CHORD",
              "bassOn": false,
              "chordRootUpperLimit": 7,
              "noteLowLimit": 0,
              "noteHighLimit": 127,
              "rtr": "PITCH_SHIFT"
            },
            "ctb2High": null
          },
          "notes": [
            {
              "pitch": 55,
              "velocity": 92,
              "position": 0,
              "duration": 0.28125
            },
            {
              "pitch": 59,
              "velocity": 92,
              "position": 0,
              "duration": 0.28125
            },
            {
              "pitch": 64,
              "velocity": 92,
              "position": 0,
              "duration": 0.28125
            },
            {
              "pitch": 55,
              "velocity": 100,
              "position": 1,
              "duration": 1.2395833333333333
            },
            {
              "pitch": 59,
              "velocity": 100,
              "position": 1,
              "duration": 1.2395833333333333
            },
            {
              "pitch": 64,
              "velocity": 100,
              "position": 1,
              "duration": 1.2395833333333333
            },
            {
              "pitch": 55,
              "velocity": 88,
              "position": 2.5,
              "duration": 1.4895833333333333
            },
            {
              "pitch": 59,
              "velocity": 96,
              "position": 3,
              "duration": 0.9895833333333334
            },
            {
              "pitch": 64,
              "velocity": 96,
              "position": 3,
              "duration": 0.9895833333333334
            }
          ]
        },
        "2": {
          "ctab": {
            "srcChannel": 2,
            "name": "A-Gtr",
            "accType": "CHORD2",
            "editable": false,
            "mutedNotes": [],
            "mutedChords": [],
            "autoStart": false,
            "sourceChordNote": 0,
            "sourceChordType": "min7(11)",
            "ctb2Low": null,
            "ctb2Main": {
              "ntr": "ROOT_FIXED",
              "ntt": "CHORD",
              "bassOn": false,
              "chordRootUpperLimit": 7,
              "noteLowLimit": 0,
              "noteHighLimit": 127,
              "rtr": "PITCH_SHIFT"
            },
            "ctb2High": null
          },
          "notes": [
            {
              "pitch": 48,
              "velocity": 12,
              "position": 0,
              "duration": 0.9791666666666666
            },
            {
              "pitch": 53,
              "velocity": 52,
              "position": 0,
              "duration": 0.9791666666666666
            },
            {
              "pitch": 58,
              "velocity": 58,
              "position": 0.010416666666666666,
              "duration": 0.9791666666666666
            },
            {
              "pitch": 63,
              "velocity": 48,
              "position": 0.020833333333333332,
              "duration": 0.96875
            },
            {
              "pitch": 48,
              "velocity": 21,
              "position": 1,
              "duration": 1.9791666666666667
            },
            {
              "pitch": 53,
              "velocity": 50,
              "position": 1,
              "duration": 1.9791666666666667
            },
            {
              "pitch": 58,
              "velocity": 56,
              "position": 1.0104166666666667,
              "duration": 1.9791666666666667
            },
            {
              "pitch": 63,
              "velocity": 46,
              "position": 1.0208333333333333,
              "duration": 1.9791666666666667
            },
            {
              "pitch": 48,
              "velocity": 14,
              "position": 3,
              "duration": 0.9791666666666666
            },
            {
              "pitch": 53,
              "velocity": 54,
              "position": 3,
              "duration": 0.9791666666666666
            },
            {
              "pitch": 58,
              "velocity": 60,
              "position": 3.0104166666666665,
              "duration": 0.9791666666666666
            },
            {
              "pitch": 63,
              "velocity": 50,
              "position": 3.0208333333333335,
              "duration": 0.9791666666666666
            }
          ]
        },
        "4": {
          "ctab": {
            "srcChannel": 4,
            "name": "Strums",
            "accType": "CHORD2",
            "editable": false,
            "mutedNotes": [],
            "mutedChords": [],
            "autoStart": false,
            "sourceChordNote": 0,
            "sourceChordType": "min7(11)",
            "ctb2Low": null,
            "ctb2Main": {
              "ntr": "ROOT_FIXED",
              "ntt": "BYPASS",
              "bassOn": false,
              "chordRootUpperLimit": 7,
              "noteLowLimit": 96,
              "noteHighLimit": 127,
              "rtr": "PITCH_SHIFT"
            },
            "ctb2High": null
          },
          "notes": []
        },
        "7": {
          "ctab": {
            "srcChannel": 7,
            "name": "CC_Crash",
            "accType": "RHYTHM",
            "editable": false,
            "mutedNotes": [],
            "mutedChords": [
              "1+2+5",
              "sus4",
              "1+5",
              "1+8",
              "7aug",
              "Maj7aug",
              "7(#9)",
              "7(b13)",
              "7(b9)",
              "7(13)",
              "7#11",
              "7(9)",
              "7b5",
              "7sus4",
              "7th",
              "dim7",
              "dim",
              "minMaj7(9)",
              "minMaj7",
              "min7(11)",
              "min7(9)",
              "min(9)",
              "m7b5",
              "min7",
              "min6",
              "min",
              "aug",
              "Maj6(9)",
              "Maj7(9)",
              "Maj(9)",
              "Maj7#11",
              "Maj7",
              "Maj6",
              "Maj"
            ],
            "autoStart": true,
            "sourceChordNote": 0,
            "sourceChordType": "Maj",
            "ctb2Low": null,
            "ctb2Main": {
              "ntr": "ROOT_FIXED",
              "ntt": "BYPASS",
              "bassOn": false,
              "chordRootUpperLimit": 0,
              "noteLowLimit": 0,
              "noteHighLimit": 127,
              "rtr": "RETRIGGER"
            },
            "ctb2High": null
          },
          "notes": []
        },
        "8": {
          "ctab": {
            "srcChannel": 8,
            "name": "AddDrums",
            "accType": "SUBRHYTHM",
            "editable": false,
            "mutedNotes": [],
            "mutedChords": [],
            "autoStart": true,
            "sourceChordNote": 0,
            "sourceChordType": "Maj7",
            "ctb2Low": null,
            "ctb2Main": {
              "ntr": "ROOT_FIXED",
              "ntt": "BYPASS",
              "bassOn": false,
              "chordRootUpperLimit": 6,
              "noteLowLimit": 0,
              "noteHighLimit": 127,
              "rtr": "PITCH_SHIFT"
            },
            "ctb2High": null
          },
          "notes": []
        },
        "9": {
          "ctab": {
            "srcChannel": 9,
            "name": "Drums",
            "accType": "RHYTHM",
            "editable": false,
            "mutedNotes": [],
            "mutedChords": [],
            "autoStart": true,
            "sourceChordNote": 0,
            "sourceChordType": "Maj7",
            "ctb2Low": null,
            "ctb2Main": {
              "ntr": "ROOT_FIXED",
              "ntt": "BYPASS",
              "bassOn": false,
              "chordRootUpperLimit": 6,
              "noteLowLimit": 0,
              "noteHighLimit": 127,
              "rtr": "PITCH_SHIFT"
            },
            "ctb2High": null
          },
          "notes": [
            {
              "pitch": 36,
              "velocity": 92,
              "position": 0,
              "duration": 0.041666666666666664
            },
            {
              "pitch": 42,
              "velocity": 112,
              "position": 0,
              "duration": 0.041666666666666664
            },
            {
              "pitch": 42,
              "velocity": 41,
              "position": 0.5,
              "duration": 0.041666666666666664
            },
            {
              "pitch": 46,
              "velocity": 60,
              "position": 1,
              "duration": 0.041666666666666664
            },
            {
              "pitch": 47,
              "velocity": 65,
              "position": 1.5,
              "duration": 0.041666666666666664
            },
            {
              "pitch": 36,
              "velocity": 92,
              "position": 2,
              "duration": 0.041666666666666664
            },
            {
              "pitch": 44,
              "velocity": 65,
              "position": 2.5,
              "duration": 0.041666666666666664
            },
            {
              "pitch": 38,
              "velocity": 25,
              "position": 2.6666666666666665,
              "duration": 0.041666666666666664
            },
            {
              "pitch": 38,
              "velocity": 34,
              "position": 2.8333333333333335,
              "duration": 0.041666666666666664
            },
            {
              "pitch": 38,
              "velocity": 88,
              "position": 3,
              "duration": 0.041666666666666664
            },
            {
              "pitch": 42,
              "velocity": 56,
              "position": 3,
              "duration": 0.041666666666666664
            },
            {
              "pitch": 42,
              "velocity": 31,
              "position": 3.5,
              "duration": 0.041666666666666664
            },
            {
              "pitch": 45,
              "velocity": 65,
              "position": 3.5,
              "duration": 0.041666666666666664
            },
            {
              "pitch": 57,
              "velocity": 54,
              "position": 3.9895833333333335,
              "duration": 0.010416666666666666
            }
          ]
        },
        "10": {
          "ctab": {
            "srcChannel": 10,
            "name": "Bass",
            "accType": "BASS",
            "editable": false,
            "mutedNotes": [],
            "mutedChords": [],
            "autoStart": false,
            "sourceChordNote": 0,
            "sourceChordType": "Maj7",
            "ctb2Low": null,
            "ctb2Main": {
              "ntr": "ROOT_TRANSPOSITION",
              "ntt": "MELODY",
              "bassOn": true,
              "chordRootUpperLimit": 3,
              "noteLowLimit": 28,
              "noteHighLimit": 127,
              "rtr": "PITCH_SHIFT_TO_ROOT"
            },
            "ctb2High": null
          },
          "notes": [
            {
              "pitch": 24,
              "velocity": 83,
              "position": 0,
              "duration": 1.125
            },
            {
              "pitch": 24,
              "velocity": 83,
              "position": 1.5,
              "duration": 0.4895833333333333
            },
            {
              "pitch": 24,
              "velocity": 83,
              "position": 2,
              "duration": 0.9895833333333334
            },
            {
              "pitch": 19,
              "velocity": 83,
              "position": 3,
              "duration": 0.9895833333333334
            }
          ]
        },
        "11": {
          "ctab": {
            "srcChannel": 11,
            "name": "Chord1",
            "accType": "CHORD1",
            "editable": false,
            "mutedNotes": [],
            "mutedChords": [],
            "autoStart": false,
            "sourceChordNote": 0,
            "sourceChordType": "Maj7",
            "ctb2Low": null,
            "ctb2Main": {
              "ntr": "ROOT_FIXED",
              "ntt": "CHORD",
              "bassOn": false,
              "chordRootUpperLimit": 7,
              "noteLowLimit": 0,
              "noteHighLimit": 127,
              "rtr": "PITCH_SHIFT"
            },
            "ctb2High": null
          },
          "notes": [
            {
              "pitch": 59,
              "velocity": 66,
              "position": 3,
              "duration": 0.1875
            },
            {
              "pitch": 64,
              "velocity": 72,
              "position": 3.0104166666666665,
              "duration": 0.17708333333333334
            },
            {
              "pitch": 67,
              "velocity": 75,
              "position": 3.0208333333333335,
              "duration": 0.16666666666666666
            }
          ]
        },
        "13": {
          "ctab": {
            "srcChannel": 13,
            "name": "Pad",
            "accType": "PAD",
            "editable": false,
            "mutedNotes": [],
            "mutedChords": [],
            "autoStart": false,
            "sourceChordNote": 0,
            "sourceChordType": "Maj7",
            "ctb2Low": null,
            "ctb2Main": {
              "ntr": "ROOT_FIXED",
              "ntt": "CHORD",
              "bassOn": false,
              "chordRootUpperLimit": 7,
              "noteLowLimit": 0,
              "noteHighLimit": 127,
              "rtr": "PITCH_SHIFT"
            },
            "ctb2High": null
          },
          "notes": [
            {
              "pitch": 55,
              "velocity": 47,
              "position": 0,
              "duration": 3.9895833333333335
            },
            {
              "pitch": 59,
              "velocity": 47,
              "position": 0,
              "duration": 3.9895833333333335
            },
            {
              "pitch": 64,
              "velocity": 47,
              "position": 0,
              "duration": 3.9895833333333335
            }
          ]
        },
        "14": {
          "ctab": {
            "srcChannel": 14,
            "name": "PadRoot",
            "accType": "PAD",
            "editable": false,
            "mutedNotes": [],
            "mutedChords": [
              "1+2+5",
              "sus4",
              "1+5",
              "1+8",
              "Maj7aug",
              "dim",
              "minMaj7(9)",
              "minMaj7",
              "min6",
              "min",
              "aug",
              "Maj7(9)",
              "Maj7#11",
              "Maj7",
              "Maj6",
              "Maj"
            ],
            "autoStart": false,
            "sourceChordNote": 0,
            "sourceChordType": "Maj7",
            "ctb2Low": null,
            "ctb2Main": {
              "ntr": "ROOT_TRANSPOSITION",
              "ntt": "CHORD",
              "bassOn": false,
              "chordRootUpperLimit": 6,
              "noteLowLimit": 0,
              "noteHighLimit": 127,
              "rtr": "PITCH_SHIFT"
            },
            "ctb2High": null
          },
          "notes": [
            {
              "pitch": 60,
              "velocity": 47,
              "position": 0,
              "duration": 3.9895833333333335
            }
          ]
        }
      }
    },
    "Fill_In_BB": {
      "type": "Fill_In_BB",
      "sizeInBeats": 4,
      "channels": {
        "1": {
          "ctab": {
            "srcChannel": 1,
            "name": "E-Pia",
            "accType": "PHRASE1",
            "editable": false,
            "mutedNotes": [],
            "mutedChords": [],
            "autoStart": false,
            "sourceChordNote": 0,
            "sourceChordType": "Maj7",
            "ctb2Low": null,
            "ctb2Main": {
              "ntr": "ROOT_FIXED",
              "ntt": "CHORD",
              "bassOn": false,
              "chordRootUpperLimit": 7,
              "noteLowLimit": 0,
              "noteHighLimit": 127,
              "rtr": "PITCH_SHIFT"
            },
            "ctb2High": null
          },
          "notes": [
            {
              "pitch": 55,
              "velocity": 110,
              "position": 0,
              "duration": 0.28125
            },
            {
              "pitch": 59,
              "velocity": 110,
              "position": 0,
              "duration": 0.28125
            },
            {
              "pitch": 64,
              "velocity": 110,
              "position": 0,
              "duration": 0.28125
            },
            {
              "pitch": 55,
              "velocity": 106,
              "position": 1,
              "duration": 2.875
            },
            {
              "pitch": 59,
              "velocity": 106,
              "position": 1,
              "duration": 2.875
            },
            {
              "pitch": 64,
              "velocity": 106,
              "position": 1,
              "duration": 2.875
            }
          ]
        },
        "2": {
          "ctab": {
            "srcChannel": 2,
            "name": "A-Gtr",
            "accType": "CHORD2",
            "editable": false,
            "mutedNotes": [],
            "mutedChords": [],
            "autoStart": false,
            "sourceChordNote": 0,
            "sourceChordType": "min7(11)",
            "ctb2Low": null,
            "ctb2Main": {
              "ntr": "ROOT_FIXED",
              "ntt": "CHORD",
              "bassOn": false,
              "chordRootUpperLimit": 7,
              "noteLowLimit": 0,
              "noteHighLimit": 127,
              "rtr": "PITCH_SHIFT"
            },
            "ctb2High": null
          },
          "notes": [
            {
              "pitch": 48,
              "velocity": 12,
              "position": 0,
              "duration": 0.4791666666666667
            },
            {
              "pitch": 53,
              "velocity": 48,
              "position": 0,
              "duration": 0.4791666666666667
            },
            {
              "pitch": 58,
              "velocity": 54,
              "position": 0,
              "duration": 0.4791666666666667
            },
            {
              "pitch": 63,
              "velocity": 44,
              "position": 0.010416666666666666,
              "duration": 0.4791666666666667
            },
            {
              "pitch": 58,
              "velocity": 35,
              "position": 0.5,
              "duration": 0.4791666666666667
            },
            {
              "pitch": 63,
              "velocity": 25,
              "position": 0.5,
              "duration": 0.4791666666666667
            },
            {
              "pitch": 48,
              "velocity": 2,
              "position": 0.5104166666666666,
              "duration": 0.4791666666666667
            },
            {
              "pitch": 53,
              "velocity": 31,
              "position": 0.5104166666666666,
              "duration": 0.4791666666666667
            },
            {
              "pitch": 48,
              "velocity": 10,
              "position": 1,
              "duration": 0.9791666666666666
            },
            {
              "pitch": 53,
              "velocity": 46,
              "position": 1,
              "duration": 0.9791666666666666
            },
            {
              "pitch": 58,
              "velocity": 52,
              "position": 1,
              "duration": 0.9791666666666666
            },
            {
              "pitch": 63,
              "velocity": 42,
              "position": 1.0104166666666667,
              "duration": 0.9791666666666666
            },
            {
              "pitch": 48,
              "velocity": 10,
              "position": 2,
              "duration": 0.4791666666666667
            },
            {
              "pitch": 53,
              "velocity": 46,
              "position": 2,
              "duration": 0.4791666666666667
            },
            {
              "pitch": 58,
              "velocity": 52,
              "position": 2,
              "duration": 0.4791666666666667
            },
            {
              "pitch": 63,
              "velocity": 42,
              "position": 2.0104166666666665,
              "duration": 0.4791666666666667
            },
            {
              "pitch": 58,
              "velocity": 42,
              "position": 2.5,
              "duration": 0.4791666666666667
            },
            {
              "pitch": 63,
              "velocity": 31,
              "position": 2.5,
              "duration": 0.4791666666666667
            },
            {
              "pitch": 48,
              "velocity": 2,
              "position": 2.5104166666666665,
              "duration": 0.4791666666666667
            },
            {
              "pitch": 53,
              "velocity": 37,
              "position": 2.5104166666666665,
              "duration": 0.4791666666666667
            },
            {
              "pitch": 48,
              "velocity": 10,
              "position": 3,
              "duration": 0.9791666666666666
            },
            {
              "pitch": 53,
              "velocity": 46,
              "position": 3,
              "duration": 0.9791666666666666
            },
            {
              "pitch": 58,
              "velocity": 52,
              "position": 3,
              "duration": 0.9791666666666666
            },
            {
              "pitch": 63,
              "velocity": 42,
              "position": 3.0104166666666665,
              "duration": 0.9791666666666666
            }
          ]
        },
        "4": {
          "ctab": {
            "srcChannel": 4,
            "name": "Strums",
            "accType": "CHORD2",
            "editable": false,
            "mutedNotes": [],
            "mutedChords": [],
            "autoStart": false,
            "sourceChordNote": 0,
            "sourceChordType": "min7(11)",
            "ctb2Low": null,
            "ctb2Main": {
              "ntr": "ROOT_FIXED",
              "ntt": "BYPASS",
              "bassOn": false,
              "chordRootUpperLimit": 7,
              "noteLowLimit": 96,
              "noteHighLimit": 127,
              "rtr": "PITCH_SHIFT"
            },
            "ctb2High": null
          },
          "notes": []
        },
        "7": {
          "ctab": {
            "srcChannel": 7,
            "name": "CC_Crash",
            "accType": "RHYTHM",
            "editable": false,
            "mutedNotes": [],
            "mutedChords": [
              "1+2+5",
              "sus4",
              "1+5",
              "1+8",
              "7aug",
              "Maj7aug",
              "7(#9)",
              "7(b13)",
              "7(b9)",
              "7(13)",
              "7#11",
              "7(9)",
              "7b5",
              "7sus4",
              "7th",
              "dim7",
              "dim",
              "minMaj7(9)",
              "minMaj7",
              "min7(11)",
              "min7(9)",
              "min(9)",
              "m7b5",
              "min7",
              "min6",
              "min",
              "aug",
              "Maj6(9)",
              "Maj7(9)",
              "Maj(9)",
              "Maj7#11",
              "Maj7",
              "Maj6",
              "Maj"
            ],
            "autoStart": true,
            "sourceChordNote": 0,
            "sourceChordType": "Maj",
            "ctb2Low": null,
            "ctb2Main": {
              "ntr": "ROOT_FIXED",
              "ntt": "BYPASS",
              "bassOn": false,
              "chordRootUpperLimit": 0,
              "noteLowLimit": 0,
              "noteHighLimit": 127,
              "rtr": "RETRIGGER"
            },
            "ctb2High": null
          },
          "notes": []
        },
        "8": {
          "ctab": {
            "srcChannel": 8,
            "name": "AddDrums",
            "accType": "SUBRHYTHM",
            "editable": false,
            "mutedNotes": [],
            "mutedChords": [],
            "autoStart": true,
            "sourceChordNote": 0,
            "sourceChordType": "Maj7",
            "ctb2Low": null,
            "ctb2Main": {
              "ntr": "ROOT_FIXED",
              "ntt": "BYPASS",
              "bassOn": false,
              "chordRootUpperLimit": 6,
              "noteLowLimit": 0,
              "noteHighLimit": 127,
              "rtr": "PITCH_SHIFT"
            },
            "ctb2High": null
          },
          "notes": [
            {
              "pitch": 54,
              "velocity": 80,
              "position": 3,
              "duration": 0.041666666666666664
            }
          ]
        },
        "9": {
          "ctab": {
            "srcChannel": 9,
            "name": "Drums",
            "accType": "RHYTHM",
            "editable": false,
            "mutedNotes": [],
            "mutedChords": [],
            "autoStart": true,
            "sourceChordNote": 0,
            "sourceChordType": "Maj7",
            "ctb2Low": null,
            "ctb2Main": {
              "ntr": "ROOT_FIXED",
              "ntt": "BYPASS",
              "bassOn": false,
              "chordRootUpperLimit": 6,
              "noteLowLimit": 0,
              "noteHighLimit": 127,
              "rtr": "PITCH_SHIFT"
            },
            "ctb2High": null
          },
          "notes": [
            {
              "pitch": 36,
              "velocity": 92,
              "position": 0,
              "duration": 0.041666666666666664
            },
            {
              "pitch": 42,
              "velocity": 118,
              "position": 0,
              "duration": 0.041666666666666664
            },
            {
              "pitch": 42,
              "velocity": 46,
              "position": 0.5,
              "duration": 0.041666666666666664
            },
            {
              "pitch": 37,
              "velocity": 90,
              "position": 1,
              "duration": 0.041666666666666664
            },
            {
              "pitch": 42,
              "velocity": 116,
              "position": 1,
              "duration": 0.041666666666666664
            },
            {
              "pitch": 36,
              "velocity": 68,
              "position": 1.5,
              "duration": 0.041666666666666664
            },
            {
              "pitch": 42,
              "velocity": 44,
              "position": 1.5,
              "duration": 0.041666666666666664
            },
            {
              "pitch": 36,
              "velocity": 92,
              "position": 2,
              "duration": 0.041666666666666664
            },
            {
              "pitch": 46,
              "velocity": 60,
              "position": 2,
              "duration": 0.041666666666666664
            },
            {
              "pitch": 38,
              "velocity": 66,
              "position": 2.75,
              "duration": 0.041666666666666664
            },
            {
              "pitch": 38,
              "velocity": 88,
              "position": 3,
              "duration": 0.041666666666666664
            },
            {
              "pitch": 44,
              "velocity": 65,
              "position": 3,
              "duration": 0.041666666666666664
            },
            {
              "pitch": 45,
              "velocity": 65,
              "position": 3.5,
              "duration": 0.041666666666666664
            },
            {
              "pitch": 49,
              "velocity": 54,
              "position": 3.9895833333333335,
              "duration": 0.010416666666666666
            }
          ]
        },
        "10": {
          "ctab": {
            "srcChannel": 10,
            "name": "Bass",
            "accType": "BASS",
            "editable": false,
            "mutedNotes": [],
            "mutedChords": [],
            "autoStart": false,
            "sourceChordNote": 0,
            "sourceChordType": "Maj7",
            "ctb2Low": null,
            "ctb2Main": {
              "ntr": "ROOT_TRANSPOSITION",
              "ntt": "MELODY",
              "bassOn": true,
              "chordRootUpperLimit": 3,
              "noteLowLimit": 28,
              "noteHighLimit": 127,
              "rtr": "PITCH_SHIFT_TO_ROOT"
            },
            "ctb2High": null
          },
          "notes": [
            {
              "pitch": 24,
              "velocity": 83,
              "position": 0,
              "duration": 1.125
            },
            {
              "pitch": 24,
              "velocity": 83,
              "position": 1.5,
              "duration": 0.4895833333333333
            },
            {
              "pitch": 24,
              "velocity": 83,
              "position": 2,
              "duration": 1.125
            }
          ]
        },
        "11": {
          "ctab": {
            "srcChannel": 11,
            "name": "Chord1",
            "accType": "CHORD1",
            "editable": false,
            "mutedNotes": [],
            "mutedChords": [],
            "autoStart": false,
            "sourceChordNote": 0,
            "sourceChordType": "Maj7",
            "ctb2Low": null,
            "ctb2Main": {
              "ntr": "ROOT_FIXED",
              "ntt": "CHORD",
              "bassOn": false,
              "chordRootUpperLimit": 7,
              "noteLowLimit": 0,
              "noteHighLimit": 127,
              "rtr": "PITCH_SHIFT"
            },
            "ctb2High": null
          },
          "notes": [
            {
              "pitch": 59,
              "velocity": 66,
              "position": 1,
              "duration": 0.22916666666666666
            },
            {
              "pitch": 64,
              "velocity": 72,
              "position": 1.0104166666666667,
              "duration": 0.21875
            },
            {
              "pitch": 67,
              "velocity": 75,
              "position": 1.0208333333333333,
              "duration": 0.20833333333333334
            },
            {
              "pitch": 59,
              "velocity": 66,
              "position": 3,
              "duration": 0.22916666666666666
            },
            {
              "pitch": 64,
              "velocity": 72,
              "position": 3.0104166666666665,
              "duration": 0.21875
            },
            {
              "pitch": 67,
              "velocity": 75,
              "position": 3.0208333333333335,
              "duration": 0.20833333333333334
            }
          ]
        },
        "13": {
          "ctab": {
            "srcChannel": 13,
            "name": "Pad",
            "accType": "PAD",
            "editable": false,
            "mutedNotes": [],
            "mutedChords": [],
            "autoStart": false,
            "sourceChordNote": 0,
            "sourceChordType": "Maj7",
            "ctb2Low": null,
            "ctb2Main": {
              "ntr": "ROOT_FIXED",
              "ntt": "CHORD",
              "bassOn": false,
              "chordRootUpperLimit": 7,
              "noteLowLimit": 0,
              "noteHighLimit": 127,
              "rtr": "PITCH_SHIFT"
            },
            "ctb2High": null
          },
          "notes": [
            {
              "pitch": 55,
              "velocity": 47,
              "position": 0,
              "duration": 3.9895833333333335
            },
            {
              "pitch": 59,
              "velocity": 47,
              "position": 0,
              "duration": 3.9895833333333335
            },
            {
              "pitch": 64,
              "velocity": 47,
              "position": 0,
              "duration": 3.9895833333333335
            }
          ]
        },
        "14": {
          "ctab": {
            "srcChannel": 14,
            "name": "PadRoot",
            "accType": "PAD",
            "editable": false,
            "mutedNotes": [],
            "mutedChords": [
              "1+2+5",
              "sus4",
              "1+5",
              "1+8",
              "Maj7aug",
              "dim",
              "minMaj7(9)",
              "minMaj7",
              "min6",
              "min",
              "aug",
              "Maj7(9)",
              "Maj7#11",
              "Maj7",
              "Maj6",
              "Maj"
            ],
            "autoStart": false,
            "sourceChordNote": 0,
            "sourceChordType": "Maj7",
            "ctb2Low": null,
            "ctb2Main": {
              "ntr": "ROOT_TRANSPOSITION",
              "ntt": "CHORD",
              "bassOn": false,
              "chordRootUpperLimit": 6,
              "noteLowLimit": 0,
              "noteHighLimit": 127,
              "rtr": "PITCH_SHIFT"
            },
            "ctb2High": null
          },
          "notes": [
            {
              "pitch": 60,
              "velocity": 47,
              "position": 0,
              "duration": 3.9895833333333335
            }
          ]
        }
      }
    },
    "Intro_A": {
      "type": "Intro_A",
      "sizeInBeats": 4,
      "channels": {
        "1": {
          "ctab": {
            "srcChannel": 1,
            "name": "E-Pia",
            "accType": "PHRASE1",
            "editable": false,
            "mutedNotes": [],
            "mutedChords": [],
            "autoStart": false,
            "sourceChordNote": 0,
            "sourceChordType": "Maj7",
            "ctb2Low": null,
            "ctb2Main": {
              "ntr": "ROOT_FIXED",
              "ntt": "CHORD",
              "bassOn": false,
              "chordRootUpperLimit": 7,
              "noteLowLimit": 0,
              "noteHighLimit": 127,
              "rtr": "PITCH_SHIFT"
            },
            "ctb2High": null
          },
          "notes": []
        },
        "2": {
          "ctab": {
            "srcChannel": 2,
            "name": "A-Gtr",
            "accType": "CHORD2",
            "editable": false,
            "mutedNotes": [],
            "mutedChords": [],
            "autoStart": false,
            "sourceChordNote": 0,
            "sourceChordType": "min7(11)",
            "ctb2Low": null,
            "ctb2Main": {
              "ntr": "ROOT_FIXED",
              "ntt": "CHORD",
              "bassOn": false,
              "chordRootUpperLimit": 7,
              "noteLowLimit": 0,
              "noteHighLimit": 127,
              "rtr": "PITCH_SHIFT"
            },
            "ctb2High": null
          },
          "notes": []
        },
        "4": {
          "ctab": {
            "srcChannel": 4,
            "name": "Strums",
            "accType": "CHORD2",
            "editable": false,
            "mutedNotes": [],
            "mutedChords": [],
            "autoStart": false,
            "sourceChordNote": 0,
            "sourceChordType": "min7(11)",
            "ctb2Low": null,
            "ctb2Main": {
              "ntr": "ROOT_FIXED",
              "ntt": "BYPASS",
              "bassOn": false,
              "chordRootUpperLimit": 7,
              "noteLowLimit": 96,
              "noteHighLimit": 127,
              "rtr": "PITCH_SHIFT"
            },
            "ctb2High": null
          },
          "notes": []
        },
        "7": {
          "ctab": {
            "srcChannel": 7,
            "name": "CC_Crash",
            "accType": "RHYTHM",
            "editable": false,
            "mutedNotes": [],
            "mutedChords": [
              "1+2+5",
              "sus4",
              "1+5",
              "1+8",
              "7aug",
              "Maj7aug",
              "7(#9)",
              "7(b13)",
              "7(b9)",
              "7(13)",
              "7#11",
              "7(9)",
              "7b5",
              "7sus4",
              "7th",
              "dim7",
              "dim",
              "minMaj7(9)",
              "minMaj7",
              "min7(11)",
              "min7(9)",
              "min(9)",
              "m7b5",
              "min7",
              "min6",
              "min",
              "aug",
              "Maj6(9)",
              "Maj7(9)",
              "Maj(9)",
              "Maj7#11",
              "Maj7",
              "Maj6",
              "Maj"
            ],
            "autoStart": true,
            "sourceChordNote": 0,
            "sourceChordType": "Maj",
            "ctb2Low": null,
            "ctb2Main": {
              "ntr": "ROOT_FIXED",
              "ntt": "BYPASS",
              "bassOn": false,
              "chordRootUpperLimit": 0,
              "noteLowLimit": 0,
              "noteHighLimit": 127,
              "rtr": "RETRIGGER"
            },
            "ctb2High": null
          },
          "notes": []
        },
        "8": {
          "ctab": {
            "srcChannel": 8,
            "name": "AddDrums",
            "accType": "SUBRHYTHM",
            "editable": false,
            "mutedNotes": [],
            "mutedChords": [],
            "autoStart": true,
            "sourceChordNote": 0,
            "sourceChordType": "Maj7",
            "ctb2Low": null,
            "ctb2Main": {
              "ntr": "ROOT_FIXED",
              "ntt": "BYPASS",
              "bassOn": false,
              "chordRootUpperLimit": 6,
              "noteLowLimit": 0,
              "noteHighLimit": 127,
              "rtr": "PITCH_SHIFT"
            },
            "ctb2High": null
          },
          "notes": []
        },
        "9": {
          "ctab": {
            "srcChannel": 9,
            "name": "Drums",
            "accType": "RHYTHM",
            "editable": false,
            "mutedNotes": [],
            "mutedChords": [],
            "autoStart": true,
            "sourceChordNote": 0,
            "sourceChordType": "Maj7",
            "ctb2Low": null,
            "ctb2Main": {
              "ntr": "ROOT_FIXED",
              "ntt": "BYPASS",
              "bassOn": false,
              "chordRootUpperLimit": 6,
              "noteLowLimit": 0,
              "noteHighLimit": 127,
              "rtr": "PITCH_SHIFT"
            },
            "ctb2High": null
          },
          "notes": [
            {
              "pitch": 42,
              "velocity": 92,
              "position": 0,
              "duration": 0.041666666666666664
            },
            {
              "pitch": 42,
              "velocity": 92,
              "position": 1,
              "duration": 0.041666666666666664
            },
            {
              "pitch": 42,
              "velocity": 92,
              "position": 2,
              "duration": 0.041666666666666664
            },
            {
              "pitch": 38,
              "velocity": 70,
              "position": 2.75,
              "duration": 0.041666666666666664
            },
            {
              "pitch": 38,
              "velocity": 82,
              "position": 3,
              "duration": 0.041666666666666664
            },
            {
              "pitch": 46,
              "velocity": 60,
              "position": 3,
              "duration": 0.041666666666666664
            },
            {
              "pitch": 41,
              "velocity": 65,
              "position": 3.5,
              "duration": 0.010416666666666666
            },
            {
              "pitch": 49,
              "velocity": 54,
              "position": 3.9895833333333335,
              "duration": 0.010416666666666666
            }
          ]
        },
        "10": {
          "ctab": {
            "srcChannel": 10,
            "name": "Bass",
            "accType": "BASS",
            "editable": false,
            "mutedNotes": [],
            "mutedChords": [],
            "autoStart": false,
            "sourceChordNote": 0,
            "sourceChordType": "Maj7",
            "ctb2Low": null,
            "ctb2Main": {
              "ntr": "ROOT_TRANSPOSITION",
              "ntt": "MELODY",
              "bassOn": true,
              "chordRootUpperLimit": 3,
              "noteLowLimit": 28,
              "noteHighLimit": 127,
              "rtr": "PITCH_SHIFT_TO_ROOT"
            },
            "ctb2High": null
          },
          "notes": []
        },
        "11": {
          "ctab": {
            "srcChannel": 11,
            "name": "Chord1",
            "accType": "CHORD1",
            "editable": false,
            "mutedNotes": [],
            "mutedChords": [],
            "autoStart": false,
            "sourceChordNote": 0,
            "sourceChordType": "Maj7",
            "ctb2Low": null,
            "ctb2Main": {
              "ntr": "ROOT_FIXED",
              "ntt": "CHORD",
              "bassOn": false,
              "chordRootUpperLimit": 7,
              "noteLowLimit": 0,
              "noteHighLimit": 127,
              "rtr": "PITCH_SHIFT"
            },
            "ctb2High": null
          },
          "notes": []
        },
        "13": {
          "ctab": {
            "srcChannel": 13,
            "name": "Pad",
            "accType": "PAD",
            "editable": false,
            "mutedNotes": [],
            "mutedChords": [],
            "autoStart": false,
            "sourceChordNote": 0,
            "sourceChordType": "Maj7",
            "ctb2Low": null,
            "ctb2Main": {
              "ntr": "ROOT_FIXED",
              "ntt": "CHORD",
              "bassOn": false,
              "chordRootUpperLimit": 7,
              "noteLowLimit": 0,
              "noteHighLimit": 127,
              "rtr": "PITCH_SHIFT"
            },
            "ctb2High": null
          },
          "notes": []
        },
        "14": {
          "ctab": {
            "srcChannel": 14,
            "name": "PadRoot",
            "accType": "PAD",
            "editable": false,
            "mutedNotes": [],
            "mutedChords": [
              "1+2+5",
              "sus4",
              "1+5",
              "1+8",
              "Maj7aug",
              "dim",
              "minMaj7(9)",
              "minMaj7",
              "min6",
              "min",
              "aug",
              "Maj7(9)",
              "Maj7#11",
              "Maj7",
              "Maj6",
              "Maj"
            ],
            "autoStart": false,
            "sourceChordNote": 0,
            "sourceChordType": "Maj7",
            "ctb2Low": null,
            "ctb2Main": {
              "ntr": "ROOT_TRANSPOSITION",
              "ntt": "CHORD",
              "bassOn": false,
              "chordRootUpperLimit": 6,
              "noteLowLimit": 0,
              "noteHighLimit": 127,
              "rtr": "PITCH_SHIFT"
            },
            "ctb2High": null
          },
          "notes": []
        }
      }
    },
    "Ending_A": {
      "type": "Ending_A",
      "sizeInBeats": 4,
      "channels": {
        "1": {
          "ctab": {
            "srcChannel": 1,
            "name": "E-Pia",
            "accType": "PHRASE1",
            "editable": false,
            "mutedNotes": [],
            "mutedChords": [],
            "autoStart": false,
            "sourceChordNote": 0,
            "sourceChordType": "Maj7",
            "ctb2Low": null,
            "ctb2Main": {
              "ntr": "ROOT_FIXED",
              "ntt": "CHORD",
              "bassOn": false,
              "chordRootUpperLimit": 7,
              "noteLowLimit": 0,
              "noteHighLimit": 127,
              "rtr": "PITCH_SHIFT"
            },
            "ctb2High": null
          },
          "notes": [
            {
              "pitch": 55,
              "velocity": 100,
              "position": 0,
              "duration": 3.1354166666666665
            },
            {
              "pitch": 59,
              "velocity": 100,
              "position": 0,
              "duration": 3.1354166666666665
            },
            {
              "pitch": 64,
              "velocity": 100,
              "position": 0,
              "duration": 3.1354166666666665
            }
          ]
        },
        "2": {
          "ctab": {
            "srcChannel": 2,
            "name": "A-Gtr",
            "accType": "CHORD2",
            "editable": false,
            "mutedNotes": [],
            "mutedChords": [],
            "autoStart": false,
            "sourceChordNote": 0,
            "sourceChordType": "min7(11)",
            "ctb2Low": null,
            "ctb2Main": {
              "ntr": "ROOT_FIXED",
              "ntt": "CHORD",
              "bassOn": false,
              "chordRootUpperLimit": 7,
              "noteLowLimit": 0,
              "noteHighLimit": 127,
              "rtr": "PITCH_SHIFT"
            },
            "ctb2High": null
          },
          "notes": [
            {
              "pitch": 48,
              "velocity": 48,
              "position": 0,
              "duration": 3.09375
            },
            {
              "pitch": 53,
              "velocity": 50,
              "position": 0,
              "duration": 3.09375
            },
            {
              "pitch": 58,
              "velocity": 56,
              "position": 0,
              "duration": 3.09375
            },
            {
              "pitch": 63,
              "velocity": 63,
              "position": 0.010416666666666666,
              "duration": 3.0833333333333335
            }
          ]
        },
        "4": {
          "ctab": {
            "srcChannel": 4,
            "name": "Strums",
            "accType": "CHORD2",
            "editable": false,
            "mutedNotes": [],
            "mutedChords": [],
            "autoStart": false,
            "sourceChordNote": 0,
            "sourceChordType": "min7(11)",
            "ctb2Low": null,
            "ctb2Main": {
              "ntr": "ROOT_FIXED",
              "ntt": "BYPASS",
              "bassOn": false,
              "chordRootUpperLimit": 7,
              "noteLowLimit": 96,
              "noteHighLimit": 127,
              "rtr": "PITCH_SHIFT"
            },
            "ctb2High": null
          },
          "notes": []
        },
        "7": {
          "ctab": {
            "srcChannel": 7,
            "name": "CC_Crash",
            "accType": "RHYTHM",
            "editable": false,
            "mutedNotes": [],
            "mutedChords": [
              "1+2+5",
              "sus4",
              "1+5",
              "1+8",
              "7aug",
              "Maj7aug",
              "7(#9)",
              "7(b13)",
              "7(b9)",
              "7(13)",
              "7#11",
              "7(9)",
              "7b5",
              "7sus4",
              "7th",
              "dim7",
              "dim",
              "minMaj7(9)",
              "minMaj7",
              "min7(11)",
              "min7(9)",
              "min(9)",
              "m7b5",
              "min7",
              "min6",
              "min",
              "aug",
              "Maj6(9)",
              "Maj7(9)",
              "Maj(9)",
              "Maj7#11",
              "Maj7",
              "Maj6",
              "Maj"
            ],
            "autoStart": true,
            "sourceChordNote": 0,
            "sourceChordType": "Maj",
            "ctb2Low": null,
            "ctb2Main": {
              "ntr": "ROOT_FIXED",
              "ntt": "BYPASS",
              "bassOn": false,
              "chordRootUpperLimit": 0,
              "noteLowLimit": 0,
              "noteHighLimit": 127,
              "rtr": "RETRIGGER"
            },
            "ctb2High": null
          },
          "notes": []
        },
        "8": {
          "ctab": {
            "srcChannel": 8,
            "name": "AddDrums",
            "accType": "SUBRHYTHM",
            "editable": false,
            "mutedNotes": [],
            "mutedChords": [],
            "autoStart": true,
            "sourceChordNote": 0,
            "sourceChordType": "Maj7",
            "ctb2Low": null,
            "ctb2Main": {
              "ntr": "ROOT_FIXED",
              "ntt": "BYPASS",
              "bassOn": false,
              "chordRootUpperLimit": 6,
              "noteLowLimit": 0,
              "noteHighLimit": 127,
              "rtr": "PITCH_SHIFT"
            },
            "ctb2High": null
          },
          "notes": []
        },
        "9": {
          "ctab": {
            "srcChannel": 9,
            "name": "Drums",
            "accType": "RHYTHM",
            "editable": false,
            "mutedNotes": [],
            "mutedChords": [],
            "autoStart": true,
            "sourceChordNote": 0,
            "sourceChordType": "Maj7",
            "ctb2Low": null,
            "ctb2Main": {
              "ntr": "ROOT_FIXED",
              "ntt": "BYPASS",
              "bassOn": false,
              "chordRootUpperLimit": 6,
              "noteLowLimit": 0,
              "noteHighLimit": 127,
              "rtr": "PITCH_SHIFT"
            },
            "ctb2High": null
          },
          "notes": [
            {
              "pitch": 36,
              "velocity": 92,
              "position": 0,
              "duration": 0.041666666666666664
            }
          ]
        },
        "10": {
          "ctab": {
            "srcChannel": 10,
            "name": "Bass",
            "accType": "BASS",
            "editable": false,
            "mutedNotes": [],
            "mutedChords": [],
            "autoStart": false,
            "sourceChordNote": 0,
            "sourceChordType": "Maj7",
            "ctb2Low": null,
            "ctb2Main": {
              "ntr": "ROOT_TRANSPOSITION",
              "ntt": "MELODY",
              "bassOn": true,
              "chordRootUpperLimit": 3,
              "noteLowLimit": 28,
              "noteHighLimit": 127,
              "rtr": "PITCH_SHIFT_TO_ROOT"
            },
            "ctb2High": null
          },
          "notes": [
            {
              "pitch": 24,
              "velocity": 83,
              "position": 0,
              "duration": 3.0416666666666665
            }
          ]
        },
        "11": {
          "ctab": {
            "srcChannel": 11,
            "name": "Chord1",
            "accType": "CHORD1",
            "editable": false,
            "mutedNotes": [],
            "mutedChords": [],
            "autoStart": false,
            "sourceChordNote": 0,
            "sourceChordType": "Maj7",
            "ctb2Low": null,
            "ctb2Main": {
              "ntr": "ROOT_FIXED",
              "ntt": "CHORD",
              "bassOn": false,
              "chordRootUpperLimit": 7,
              "noteLowLimit": 0,
              "noteHighLimit": 127,
              "rtr": "PITCH_SHIFT"
            },
            "ctb2High": null
          },
          "notes": [
            {
              "pitch": 55,
              "velocity": 84,
              "position": 0.020833333333333332,
              "duration": 3.0104166666666665
            },
            {
              "pitch": 59,
              "velocity": 83,
              "position": 0,
              "duration": 3.03125
            },
            {
              "pitch": 64,
              "velocity": 86,
              "position": 0.010416666666666666,
              "duration": 3.0208333333333335
            }
          ]
        },
        "13": {
          "ctab": {
            "srcChannel": 13,
            "name": "Pad",
            "accType": "PAD",
            "editable": false,
            "mutedNotes": [],
            "mutedChords": [],
            "autoStart": false,
            "sourceChordNote": 0,
            "sourceChordType": "Maj7",
            "ctb2Low": null,
            "ctb2Main": {
              "ntr": "ROOT_FIXED",
              "ntt": "CHORD",
              "bassOn": false,
              "chordRootUpperLimit": 7,
              "noteLowLimit": 0,
              "noteHighLimit": 127,
              "rtr": "PITCH_SHIFT"
            },
            "ctb2High": null
          },
          "notes": [
            {
              "pitch": 55,
              "velocity": 47,
              "position": 0.010416666666666666,
              "duration": 3.03125
            },
            {
              "pitch": 59,
              "velocity": 47,
              "position": 0.010416666666666666,
              "duration": 3.03125
            },
            {
              "pitch": 64,
              "velocity": 47,
              "position": 0.010416666666666666,
              "duration": 3.03125
            }
          ]
        },
        "14": {
          "ctab": {
            "srcChannel": 14,
            "name": "PadRoot",
            "accType": "PAD",
            "editable": false,
            "mutedNotes": [],
            "mutedChords": [
              "1+2+5",
              "sus4",
              "1+5",
              "1+8",
              "Maj7aug",
              "dim",
              "minMaj7(9)",
              "minMaj7",
              "min6",
              "min",
              "aug",
              "Maj7(9)",
              "Maj7#11",
              "Maj7",
              "Maj6",
              "Maj"
            ],
            "autoStart": false,
            "sourceChordNote": 0,
            "sourceChordType": "Maj7",
            "ctb2Low": null,
            "ctb2Main": {
              "ntr": "ROOT_TRANSPOSITION",
              "ntt": "CHORD",
              "bassOn": false,
              "chordRootUpperLimit": 6,
              "noteLowLimit": 0,
              "noteHighLimit": 127,
              "rtr": "PITCH_SHIFT"
            },
            "ctb2High": null
          },
          "notes": [
            {
              "pitch": 60,
              "velocity": 47,
              "position": 0,
              "duration": 3.0416666666666665
            }
          ]
        }
      }
    },
    "Ending_B": {
      "type": "Ending_B",
      "sizeInBeats": 8,
      "channels": {
        "1": {
          "ctab": {
            "srcChannel": 1,
            "name": "E-Pia",
            "accType": "PHRASE1",
            "editable": false,
            "mutedNotes": [],
            "mutedChords": [],
            "autoStart": false,
            "sourceChordNote": 0,
            "sourceChordType": "Maj7",
            "ctb2Low": null,
            "ctb2Main": {
              "ntr": "ROOT_FIXED",
              "ntt": "CHORD",
              "bassOn": false,
              "chordRootUpperLimit": 7,
              "noteLowLimit": 0,
              "noteHighLimit": 127,
              "rtr": "PITCH_SHIFT"
            },
            "ctb2High": null
          },
          "notes": [
            {
              "pitch": 55,
              "velocity": 104,
              "position": 1,
              "duration": 1.84375
            },
            {
              "pitch": 59,
              "velocity": 104,
              "position": 1,
              "duration": 1.84375
            },
            {
              "pitch": 64,
              "velocity": 104,
              "position": 1,
              "duration": 1.84375
            },
            {
              "pitch": 55,
              "velocity": 97,
              "position": 3,
              "duration": 0.9375
            },
            {
              "pitch": 59,
              "velocity": 97,
              "position": 3,
              "duration": 0.9375
            },
            {
              "pitch": 64,
              "velocity": 97,
              "position": 3,
              "duration": 0.9375
            },
            {
              "pitch": 55,
              "velocity": 109,
              "position": 4,
              "duration": 3.90625
            },
            {
              "pitch": 59,
              "velocity": 109,
              "position": 4,
              "duration": 3.90625
            },
            {
              "pitch": 64,
              "velocity": 109,
              "position": 4,
              "duration": 3.90625
            }
          ]
        },
        "2": {
          "ctab": {
            "srcChannel": 2,
            "name": "A-Gtr",
            "accType": "CHORD2",
            "editable": false,
            "mutedNotes": [],
            "mutedChords": [],
            "autoStart": false,
            "sourceChordNote": 0,
            "sourceChordType": "min7(11)",
            "ctb2Low": null,
            "ctb2Main": {
              "ntr": "ROOT_FIXED",
              "ntt": "CHORD",
              "bassOn": false,
              "chordRootUpperLimit": 7,
              "noteLowLimit": 0,
              "noteHighLimit": 127,
              "rtr": "PITCH_SHIFT"
            },
            "ctb2High": null
          },
          "notes": [
            {
              "pitch": 48,
              "velocity": 56,
              "position": 0,
              "duration": 0.475
            },
            {
              "pitch": 53,
              "velocity": 50,
              "position": 0,
              "duration": 0.475
            },
            {
              "pitch": 58,
              "velocity": 56,
              "position": 0,
              "duration": 0.475
            },
            {
              "pitch": 63,
              "velocity": 56,
              "position": 0.010416666666666666,
              "duration": 0.475
            },
            {
              "pitch": 58,
              "velocity": 44,
              "position": 0.5,
              "duration": 0.475
            },
            {
              "pitch": 63,
              "velocity": 44,
              "position": 0.5,
              "duration": 0.475
            },
            {
              "pitch": 48,
              "velocity": 44,
              "position": 0.5104166666666666,
              "duration": 0.475
            },
            {
              "pitch": 53,
              "velocity": 37,
              "position": 0.5104166666666666,
              "duration": 0.475
            },
            {
              "pitch": 48,
              "velocity": 44,
              "position": 1,
              "duration": 0.125
            },
            {
              "pitch": 53,
              "velocity": 37,
              "position": 1,
              "duration": 0.125
            },
            {
              "pitch": 58,
              "velocity": 44,
              "position": 1,
              "duration": 0.125
            },
            {
              "pitch": 63,
              "velocity": 44,
              "position": 1.0104166666666667,
              "duration": 0.125
            },
            {
              "pitch": 58,
              "velocity": 44,
              "position": 1.5,
              "duration": 0.475
            },
            {
              "pitch": 63,
              "velocity": 44,
              "position": 1.5,
              "duration": 0.475
            },
            {
              "pitch": 48,
              "velocity": 44,
              "position": 1.5104166666666667,
              "duration": 0.475
            },
            {
              "pitch": 53,
              "velocity": 37,
              "position": 1.5104166666666667,
              "duration": 0.475
            },
            {
              "pitch": 48,
              "velocity": 56,
              "position": 2,
              "duration": 0.4791666666666667
            },
            {
              "pitch": 53,
              "velocity": 50,
              "position": 2,
              "duration": 0.4791666666666667
            },
            {
              "pitch": 58,
              "velocity": 56,
              "position": 2,
              "duration": 0.4791666666666667
            },
            {
              "pitch": 63,
              "velocity": 56,
              "position": 2.0104166666666665,
              "duration": 0.4791666666666667
            },
            {
              "pitch": 58,
              "velocity": 44,
              "position": 2.5,
              "duration": 0.4791666666666667
            },
            {
              "pitch": 63,
              "velocity": 44,
              "position": 2.5,
              "duration": 0.4791666666666667
            },
            {
              "pitch": 48,
              "velocity": 44,
              "position": 2.5104166666666665,
              "duration": 0.4791666666666667
            },
            {
              "pitch": 53,
              "velocity": 37,
              "position": 2.5104166666666665,
              "duration": 0.4791666666666667
            },
            {
              "pitch": 48,
              "velocity": 44,
              "position": 3,
              "duration": 0.125
            },
            {
              "pitch": 53,
              "velocity": 37,
              "position": 3,
              "duration": 0.125
            },
            {
              "pitch": 58,
              "velocity": 44,
              "position": 3,
              "duration": 0.125
            },
            {
              "pitch": 63,
              "velocity": 44,
              "position": 3.0104166666666665,
              "duration": 0.125
            },
            {
              "pitch": 58,
              "velocity": 2,
              "position": 3.5,
              "duration": 0.4791666666666667
            },
            {
              "pitch": 63,
              "velocity": 2,
              "position": 3.5,
              "duration": 0.4791666666666667
            },
            {
              "pitch": 48,
              "velocity": 2,
              "position": 3.5104166666666665,
              "duration": 0.4791666666666667
            },
            {
              "pitch": 53,
              "velocity": 2,
              "position": 3.5104166666666665,
              "duration": 0.4791666666666667
            }
          ]
        },
        "4": {
          "ctab": {
            "srcChannel": 4,
            "name": "Strums",
            "accType": "CHORD2",
            "editable": false,
            "mutedNotes": [],
            "mutedChords": [],
            "autoStart": false,
            "sourceChordNote": 0,
            "sourceChordType": "min7(11)",
            "ctb2Low": null,
            "ctb2Main": {
              "ntr": "ROOT_FIXED",
              "ntt": "BYPASS",
              "bassOn": false,
              "chordRootUpperLimit": 7,
              "noteLowLimit": 96,
              "noteHighLimit": 127,
              "rtr": "PITCH_SHIFT"
            },
            "ctb2High": null
          },
          "notes": []
        },
        "7": {
          "ctab": {
            "srcChannel": 7,
            "name": "CC_Crash",
            "accType": "RHYTHM",
            "editable": false,
            "mutedNotes": [],
            "mutedChords": [
              "1+2+5",
              "sus4",
              "1+5",
              "1+8",
              "7aug",
              "Maj7aug",
              "7(#9)",
              "7(b13)",
              "7(b9)",
              "7(13)",
              "7#11",
              "7(9)",
              "7b5",
              "7sus4",
              "7th",
              "dim7",
              "dim",
              "minMaj7(9)",
              "minMaj7",
              "min7(11)",
              "min7(9)",
              "min(9)",
              "m7b5",
              "min7",
              "min6",
              "min",
              "aug",
              "Maj6(9)",
              "Maj7(9)",
              "Maj(9)",
              "Maj7#11",
              "Maj7",
              "Maj6",
              "Maj"
            ],
            "autoStart": true,
            "sourceChordNote": 0,
            "sourceChordType": "Maj",
            "ctb2Low": null,
            "ctb2Main": {
              "ntr": "ROOT_FIXED",
              "ntt": "BYPASS",
              "bassOn": false,
              "chordRootUpperLimit": 0,
              "noteLowLimit": 0,
              "noteHighLimit": 127,
              "rtr": "RETRIGGER"
            },
            "ctb2High": null
          },
          "notes": []
        },
        "8": {
          "ctab": {
            "srcChannel": 8,
            "name": "AddDrums",
            "accType": "SUBRHYTHM",
            "editable": false,
            "mutedNotes": [],
            "mutedChords": [],
            "autoStart": true,
            "sourceChordNote": 0,
            "sourceChordType": "Maj7",
            "ctb2Low": null,
            "ctb2Main": {
              "ntr": "ROOT_FIXED",
              "ntt": "BYPASS",
              "bassOn": false,
              "chordRootUpperLimit": 6,
              "noteLowLimit": 0,
              "noteHighLimit": 127,
              "rtr": "PITCH_SHIFT"
            },
            "ctb2High": null
          },
          "notes": []
        },
        "9": {
          "ctab": {
            "srcChannel": 9,
            "name": "Drums",
            "accType": "RHYTHM",
            "editable": false,
            "mutedNotes": [],
            "mutedChords": [],
            "autoStart": true,
            "sourceChordNote": 0,
            "sourceChordType": "Maj7",
            "ctb2Low": null,
            "ctb2Main": {
              "ntr": "ROOT_FIXED",
              "ntt": "BYPASS",
              "bassOn": false,
              "chordRootUpperLimit": 6,
              "noteLowLimit": 0,
              "noteHighLimit": 127,
              "rtr": "PITCH_SHIFT"
            },
            "ctb2High": null
          },
          "notes": [
            {
              "pitch": 36,
              "velocity": 92,
              "position": 0,
              "duration": 0.041666666666666664
            },
            {
              "pitch": 42,
              "velocity": 88,
              "position": 0,
              "duration": 0.041666666666666664
            },
            {
              "pitch": 42,
              "velocity": 54,
              "position": 0.5,
              "duration": 0.041666666666666664
            },
            {
              "pitch": 47,
              "velocity": 65,
              "position": 0.5,
              "duration": 0.041666666666666664
            },
            {
              "pitch": 38,
              "velocity": 88,
              "position": 1,
              "duration": 0.041666666666666664
            },
            {
              "pitch": 46,
              "velocity": 60,
              "position": 1,
              "duration": 0.041666666666666664
            },
            {
              "pitch": 36,
              "velocity": 68,
              "position": 1.5,
              "duration": 0.041666666666666664
            },
            {
              "pitch": 36,
              "velocity": 92,
              "position": 2,
              "duration": 0.041666666666666664
            },
            {
              "pitch": 45,
              "velocity": 65,
              "position": 2.5,
              "duration": 0.041666666666666664
            },
            {
              "pitch": 38,
              "velocity": 35,
              "position": 2.6666666666666665,
              "duration": 0.010416666666666666
            },
            {
              "pitch": 38,
              "velocity": 43,
              "position": 2.8333333333333335,
              "duration": 0.010416666666666666
            },
            {
              "pitch": 38,
              "velocity": 88,
              "position": 3,
              "duration": 0.041666666666666664
            },
            {
              "pitch": 45,
              "velocity": 65,
              "position": 3.25,
              "duration": 0.041666666666666664
            },
            {
              "pitch": 43,
              "velocity": 65,
              "position": 3.5,
              "duration": 0.041666666666666664
            },
            {
              "pitch": 41,
              "velocity": 64,
              "position": 3.75,
              "duration": 0.041666666666666664
            },
            {
              "pitch": 36,
              "velocity": 92,
              "position": 4,
              "duration": 0.041666666666666664
            },
            {
              "pitch": 38,
              "velocity": 68,
              "position": 4,
              "duration": 0.041666666666666664
            },
            {
              "pitch": 49,
              "velocity": 54,
              "position": 4,
              "duration": 0.041666666666666664
            }
          ]
        },
        "10": {
          "ctab": {
            "srcChannel": 10,
            "name": "Bass",
            "accType": "BASS",
            "editable": false,
            "mutedNotes": [],
            "mutedChords": [],
            "autoStart": false,
            "sourceChordNote": 0,
            "sourceChordType": "Maj7",
            "ctb2Low": null,
            "ctb2Main": {
              "ntr": "ROOT_TRANSPOSITION",
              "ntt": "MELODY",
              "bassOn": true,
              "chordRootUpperLimit": 3,
              "noteLowLimit": 28,
              "noteHighLimit": 127,
              "rtr": "PITCH_SHIFT_TO_ROOT"
            },
            "ctb2High": null
          },
          "notes": [
            {
              "pitch": 36,
              "velocity": 83,
              "position": 0,
              "duration": 0.25
            },
            {
              "pitch": 48,
              "velocity": 83,
              "position": 1,
              "duration": 0.4166666666666667
            },
            {
              "pitch": 36,
              "velocity": 83,
              "position": 1.5,
              "duration": 0.4895833333333333
            },
            {
              "pitch": 40,
              "velocity": 83,
              "position": 2,
              "duration": 0.4895833333333333
            },
            {
              "pitch": 38,
              "velocity": 83,
              "position": 2.5,
              "duration": 0.4895833333333333
            },
            {
              "pitch": 36,
              "velocity": 83,
              "position": 3,
              "duration": 0.4895833333333333
            },
            {
              "pitch": 31,
              "velocity": 83,
              "position": 3.5,
              "duration": 0.4895833333333333
            },
            {
              "pitch": 24,
              "velocity": 83,
              "position": 4,
              "duration": 3.90625
            }
          ]
        },
        "11": {
          "ctab": {
            "srcChannel": 11,
            "name": "Chord1",
            "accType": "CHORD1",
            "editable": false,
            "mutedNotes": [],
            "mutedChords": [],
            "autoStart": false,
            "sourceChordNote": 0,
            "sourceChordType": "Maj7",
            "ctb2Low": null,
            "ctb2Main": {
              "ntr": "ROOT_FIXED",
              "ntt": "CHORD",
              "bassOn": false,
              "chordRootUpperLimit": 7,
              "noteLowLimit": 0,
              "noteHighLimit": 127,
              "rtr": "PITCH_SHIFT"
            },
            "ctb2High": null
          },
          "notes": [
            {
              "pitch": 55,
              "velocity": 66,
              "position": 0,
              "duration": 0.9895833333333334
            },
            {
              "pitch": 59,
              "velocity": 71,
              "position": 0.010416666666666666,
              "duration": 0.9895833333333334
            },
            {
              "pitch": 64,
              "velocity": 74,
              "position": 0.020833333333333332,
              "duration": 0.9895833333333334
            },
            {
              "pitch": 55,
              "velocity": 95,
              "position": 1,
              "duration": 0.07291666666666667
            },
            {
              "pitch": 59,
              "velocity": 96,
              "position": 1.0104166666666667,
              "duration": 0.0625
            },
            {
              "pitch": 64,
              "velocity": 100,
              "position": 1.0208333333333333,
              "duration": 0.052083333333333336
            },
            {
              "pitch": 55,
              "velocity": 50,
              "position": 1.5208333333333333,
              "duration": 0.46875
            },
            {
              "pitch": 59,
              "velocity": 48,
              "position": 1.5104166666666667,
              "duration": 0.4895833333333333
            },
            {
              "pitch": 64,
              "velocity": 50,
              "position": 1.5,
              "duration": 0.5104166666666666
            },
            {
              "pitch": 55,
              "velocity": 66,
              "position": 2,
              "duration": 0.9895833333333334
            },
            {
              "pitch": 59,
              "velocity": 71,
              "position": 2.0104166666666665,
              "duration": 0.9895833333333334
            },
            {
              "pitch": 64,
              "velocity": 74,
              "position": 2.0208333333333335,
              "duration": 0.9895833333333334
            },
            {
              "pitch": 55,
              "velocity": 95,
              "position": 3,
              "duration": 0.07291666666666667
            },
            {
              "pitch": 59,
              "velocity": 96,
              "position": 3.0104166666666665,
              "duration": 0.0625
            },
            {
              "pitch": 64,
              "velocity": 100,
              "position": 3.0208333333333335,
              "duration": 0.052083333333333336
            },
            {
              "pitch": 55,
              "velocity": 50,
              "position": 3.5208333333333335,
              "duration": 0.46875
            },
            {
              "pitch": 59,
              "velocity": 48,
              "position": 3.5104166666666665,
              "duration": 0.4791666666666667
            },
            {
              "pitch": 64,
              "velocity": 50,
              "position": 3.5,
              "duration": 0.4895833333333333
            },
            {
              "pitch": 55,
              "velocity": 71,
              "position": 4,
              "duration": 3.90625
            },
            {
              "pitch": 59,
              "velocity": 72,
              "position": 4.010416666666667,
              "duration": 3.90625
            },
            {
              "pitch": 64,
              "velocity": 76,
              "position": 4.020833333333333,
              "duration": 3.90625
            }
          ]
        },
        "13": {
          "ctab": {
            "srcChannel": 13,
            "name": "Pad",
            "accType": "PAD",
            "editable": false,
            "mutedNotes": [],
            "mutedChords": [],
            "autoStart": false,
            "sourceChordNote": 0,
            "sourceChordType": "Maj7",
            "ctb2Low": null,
            "ctb2Main": {
              "ntr": "ROOT_FIXED",
              "ntt": "CHORD",
              "bassOn": false,
              "chordRootUpperLimit": 7,
              "noteLowLimit": 0,
              "noteHighLimit": 127,
              "rtr": "PITCH_SHIFT"
            },
            "ctb2High": null
          },
          "notes": [
            {
              "pitch": 55,
              "velocity": 47,
              "position": 0,
              "duration": 7.90625
            },
            {
              "pitch": 59,
              "velocity": 47,
              "position": 0,
              "duration": 7.90625
            },
            {
              "pitch": 64,
              "velocity": 47,
              "position": 0,
              "duration": 7.90625
            }
          ]
        },
        "14": {
          "ctab": {
            "srcChannel": 14,
            "name": "PadRoot",
            "accType": "PAD",
            "editable": false,
            "mutedNotes": [],
            "mutedChords": [
              "1+2+5",
              "sus4",
              "1+5",
              "1+8",
              "Maj7aug",
              "dim",
              "minMaj7(9)",
              "minMaj7",
              "min6",
              "min",
              "aug",
              "Maj7(9)",
              "Maj7#11",
              "Maj7",
              "Maj6",
              "Maj"
            ],
            "autoStart": false,
            "sourceChordNote": 0,
            "sourceChordType": "Maj7",
            "ctb2Low": null,
            "ctb2Main": {
              "ntr": "ROOT_TRANSPOSITION",
              "ntt": "CHORD",
              "bassOn": false,
              "chordRootUpperLimit": 6,
              "noteLowLimit": 0,
              "noteHighLimit": 127,
              "rtr": "PITCH_SHIFT"
            },
            "ctb2High": null
          },
          "notes": [
            {
              "pitch": 60,
              "velocity": 47,
              "position": 0,
              "duration": 7.90625
            }
          ]
        }
      }
    },
    "Fill_In_BA": {
      "type": "Fill_In_BA",
      "sizeInBeats": 4,
      "channels": {
        "1": {
          "ctab": {
            "srcChannel": 1,
            "name": "E-Pia",
            "accType": "PHRASE1",
            "editable": false,
            "mutedNotes": [],
            "mutedChords": [],
            "autoStart": false,
            "sourceChordNote": 0,
            "sourceChordType": "Maj7",
            "ctb2Low": null,
            "ctb2Main": {
              "ntr": "ROOT_FIXED",
              "ntt": "CHORD",
              "bassOn": false,
              "chordRootUpperLimit": 7,
              "noteLowLimit": 0,
              "noteHighLimit": 127,
              "rtr": "PITCH_SHIFT"
            },
            "ctb2High": null
          },
          "notes": [
            {
              "pitch": 55,
              "velocity": 110,
              "position": 0,
              "duration": 0.3854166666666667
            },
            {
              "pitch": 59,
              "velocity": 110,
              "position": 0,
              "duration": 0.3854166666666667
            },
            {
              "pitch": 64,
              "velocity": 110,
              "position": 0,
              "duration": 0.3854166666666667
            },
            {
              "pitch": 55,
              "velocity": 120,
              "position": 1,
              "duration": 0.4895833333333333
            },
            {
              "pitch": 59,
              "velocity": 120,
              "position": 1,
              "duration": 0.4895833333333333
            },
            {
              "pitch": 64,
              "velocity": 120,
              "position": 1,
              "duration": 0.4895833333333333
            }
          ]
        },
        "2": {
          "ctab": {
            "srcChannel": 2,
            "name": "A-Gtr",
            "accType": "CHORD2",
            "editable": false,
            "mutedNotes": [],
            "mutedChords": [],
            "autoStart": false,
            "sourceChordNote": 0,
            "sourceChordType": "min7(11)",
            "ctb2Low": null,
            "ctb2Main": {
              "ntr": "ROOT_FIXED",
              "ntt": "CHORD",
              "bassOn": false,
              "chordRootUpperLimit": 7,
              "noteLowLimit": 0,
              "noteHighLimit": 127,
              "rtr": "PITCH_SHIFT"
            },
            "ctb2High": null
          },
          "notes": [
            {
              "pitch": 48,
              "velocity": 42,
              "position": 0,
              "duration": 0.4791666666666667
            },
            {
              "pitch": 53,
              "velocity": 58,
              "position": 0,
              "duration": 0.4791666666666667
            },
            {
              "pitch": 58,
              "velocity": 67,
              "position": 0,
              "duration": 0.4791666666666667
            },
            {
              "pitch": 63,
              "velocity": 71,
              "position": 0.010416666666666666,
              "duration": 0.46875
            },
            {
              "pitch": 48,
              "velocity": 42,
              "position": 1,
              "duration": 0.4791666666666667
            },
            {
              "pitch": 53,
              "velocity": 58,
              "position": 1,
              "duration": 0.4791666666666667
            },
            {
              "pitch": 58,
              "velocity": 67,
              "position": 1,
              "duration": 0.4791666666666667
            },
            {
              "pitch": 63,
              "velocity": 71,
              "position": 1.0104166666666667,
              "duration": 0.46875
            }
          ]
        },
        "4": {
          "ctab": {
            "srcChannel": 4,
            "name": "Strums",
            "accType": "CHORD2",
            "editable": false,
            "mutedNotes": [],
            "mutedChords": [],
            "autoStart": false,
            "sourceChordNote": 0,
            "sourceChordType": "min7(11)",
            "ctb2Low": null,
            "ctb2Main": {
              "ntr": "ROOT_FIXED",
              "ntt": "BYPASS",
              "bassOn": false,
              "chordRootUpperLimit": 7,
              "noteLowLimit": 96,
              "noteHighLimit": 127,
              "rtr": "PITCH_SHIFT"
            },
            "ctb2High": null
          },
          "notes": []
        },
        "7": {
          "ctab": {
            "srcChannel": 7,
            "name": "CC_Crash",
            "accType": "RHYTHM",
            "editable": false,
            "mutedNotes": [],
            "mutedChords": [
              "1+2+5",
              "sus4",
              "1+5",
              "1+8",
              "7aug",
              "Maj7aug",
              "7(#9)",
              "7(b13)",
              "7(b9)",
              "7(13)",
              "7#11",
              "7(9)",
              "7b5",
              "7sus4",
              "7th",
              "dim7",
              "dim",
              "minMaj7(9)",
              "minMaj7",
              "min7(11)",
              "min7(9)",
              "min(9)",
              "m7b5",
              "min7",
              "min6",
              "min",
              "aug",
              "Maj6(9)",
              "Maj7(9)",
              "Maj(9)",
              "Maj7#11",
              "Maj7",
              "Maj6",
              "Maj"
            ],
            "autoStart": true,
            "sourceChordNote": 0,
            "sourceChordType": "Maj",
            "ctb2Low": null,
            "ctb2Main": {
              "ntr": "ROOT_FIXED",
              "ntt": "BYPASS",
              "bassOn": false,
              "chordRootUpperLimit": 0,
              "noteLowLimit": 0,
              "noteHighLimit": 127,
              "rtr": "RETRIGGER"
            },
            "ctb2High": null
          },
          "notes": []
        },
        "8": {
          "ctab": {
            "srcChannel": 8,
            "name": "AddDrums",
            "accType": "SUBRHYTHM",
            "editable": false,
            "mutedNotes": [],
            "mutedChords": [],
            "autoStart": true,
            "sourceChordNote": 0,
            "sourceChordType": "Maj7",
            "ctb2Low": null,
            "ctb2Main": {
              "ntr": "ROOT_FIXED",
              "ntt": "BYPASS",
              "bassOn": false,
              "chordRootUpperLimit": 6,
              "noteLowLimit": 0,
              "noteHighLimit": 127,
              "rtr": "PITCH_SHIFT"
            },
            "ctb2High": null
          },
          "notes": [
            {
              "pitch": 54,
              "velocity": 84,
              "position": 0,
              "duration": 0.041666666666666664
            }
          ]
        },
        "9": {
          "ctab": {
            "srcChannel": 9,
            "name": "Drums",
            "accType": "RHYTHM",
            "editable": false,
            "mutedNotes": [],
            "mutedChords": [],
            "autoStart": true,
            "sourceChordNote": 0,
            "sourceChordType": "Maj7",
            "ctb2Low": null,
            "ctb2Main": {
              "ntr": "ROOT_FIXED",
              "ntt": "BYPASS",
              "bassOn": false,
              "chordRootUpperLimit": 6,
              "noteLowLimit": 0,
              "noteHighLimit": 127,
              "rtr": "PITCH_SHIFT"
            },
            "ctb2High": null
          },
          "notes": [
            {
              "pitch": 42,
              "velocity": 84,
              "position": 0,
              "duration": 0.010416666666666666
            },
            {
              "pitch": 57,
              "velocity": 58,
              "position": 0,
              "duration": 0.010416666666666666
            },
            {
              "pitch": 36,
              "velocity": 92,
              "position": 0,
              "duration": 0.041666666666666664
            },
            {
              "pitch": 38,
              "velocity": 80,
              "position": 0,
              "duration": 0.041666666666666664
            },
            {
              "pitch": 42,
              "velocity": 84,
              "position": 1,
              "duration": 0.010416666666666666
            },
            {
              "pitch": 36,
              "velocity": 92,
              "position": 1,
              "duration": 0.041666666666666664
            },
            {
              "pitch": 38,
              "velocity": 80,
              "position": 1,
              "duration": 0.041666666666666664
            },
            {
              "pitch": 36,
              "velocity": 92,
              "position": 2.5,
              "duration": 0.041666666666666664
            },
            {
              "pitch": 36,
              "velocity": 64,
              "position": 2.75,
              "duration": 0.041666666666666664
            },
            {
              "pitch": 38,
              "velocity": 88,
              "position": 3,
              "duration": 0.041666666666666664
            },
            {
              "pitch": 47,
              "velocity": 65,
              "position": 3.5,
              "duration": 0.041666666666666664
            },
            {
              "pitch": 49,
              "velocity": 54,
              "position": 3.9895833333333335,
              "duration": 0.010416666666666666
            }
          ]
        },
        "10": {
          "ctab": {
            "srcChannel": 10,
            "name": "Bass",
            "accType": "BASS",
            "editable": false,
            "mutedNotes": [],
            "mutedChords": [],
            "autoStart": false,
            "sourceChordNote": 0,
            "sourceChordType": "Maj7",
            "ctb2Low": null,
            "ctb2Main": {
              "ntr": "ROOT_TRANSPOSITION",
              "ntt": "MELODY",
              "bassOn": true,
              "chordRootUpperLimit": 3,
              "noteLowLimit": 28,
              "noteHighLimit": 127,
              "rtr": "PITCH_SHIFT_TO_ROOT"
            },
            "ctb2High": null
          },
          "notes": [
            {
              "pitch": 24,
              "velocity": 84,
              "position": 0,
              "duration": 0.4791666666666667
            },
            {
              "pitch": 24,
              "velocity": 84,
              "position": 1,
              "duration": 0.5416666666666666
            }
          ]
        },
        "11": {
          "ctab": {
            "srcChannel": 11,
            "name": "Chord1",
            "accType": "CHORD1",
            "editable": false,
            "mutedNotes": [],
            "mutedChords": [],
            "autoStart": false,
            "sourceChordNote": 0,
            "sourceChordType": "Maj7",
            "ctb2Low": null,
            "ctb2Main": {
              "ntr": "ROOT_FIXED",
              "ntt": "CHORD",
              "bassOn": false,
              "chordRootUpperLimit": 7,
              "noteLowLimit": 0,
              "noteHighLimit": 127,
              "rtr": "PITCH_SHIFT"
            },
            "ctb2High": null
          },
          "notes": [
            {
              "pitch": 55,
              "velocity": 77,
              "position": 0,
              "duration": 0.4895833333333333
            },
            {
              "pitch": 59,
              "velocity": 78,
              "position": 0.010416666666666666,
              "duration": 0.4791666666666667
            },
            {
              "pitch": 64,
              "velocity": 84,
              "position": 0.020833333333333332,
              "duration": 0.46875
            },
            {
              "pitch": 55,
              "velocity": 90,
              "position": 1,
              "duration": 0.5416666666666666
            },
            {
              "pitch": 59,
              "velocity": 95,
              "position": 1.0104166666666667,
              "duration": 0.53125
            },
            {
              "pitch": 64,
              "velocity": 97,
              "position": 1.0208333333333333,
              "duration": 0.5208333333333334
            }
          ]
        },
        "13": {
          "ctab": {
            "srcChannel": 13,
            "name": "Pad",
            "accType": "PAD",
            "editable": false,
            "mutedNotes": [],
            "mutedChords": [],
            "autoStart": false,
            "sourceChordNote": 0,
            "sourceChordType": "Maj7",
            "ctb2Low": null,
            "ctb2Main": {
              "ntr": "ROOT_FIXED",
              "ntt": "CHORD",
              "bassOn": false,
              "chordRootUpperLimit": 7,
              "noteLowLimit": 0,
              "noteHighLimit": 127,
              "rtr": "PITCH_SHIFT"
            },
            "ctb2High": null
          },
          "notes": [
            {
              "pitch": 55,
              "velocity": 47,
              "position": 0,
              "duration": 1.5416666666666667
            },
            {
              "pitch": 59,
              "velocity": 47,
              "position": 0,
              "duration": 1.5416666666666667
            },
            {
              "pitch": 64,
              "velocity": 47,
              "position": 0,
              "duration": 1.5416666666666667
            }
          ]
        },
        "14": {
          "ctab": {
            "srcChannel": 14,
            "name": "PadRoot",
            "accType": "PAD",
            "editable": false,
            "mutedNotes": [],
            "mutedChords": [
              "1+2+5",
              "sus4",
              "1+5",
              "1+8",
              "Maj7aug",
              "dim",
              "minMaj7(9)",
              "minMaj7",
              "min6",
              "min",
              "aug",
              "Maj7(9)",
              "Maj7#11",
              "Maj7",
              "Maj6",
              "Maj"
            ],
            "autoStart": false,
            "sourceChordNote": 0,
            "sourceChordType": "Maj7",
            "ctb2Low": null,
            "ctb2Main": {
              "ntr": "ROOT_TRANSPOSITION",
              "ntt": "CHORD",
              "bassOn": false,
              "chordRootUpperLimit": 6,
              "noteLowLimit": 0,
              "noteHighLimit": 127,
              "rtr": "PITCH_SHIFT"
            },
            "ctb2High": null
          },
          "notes": [
            {
              "pitch": 60,
              "velocity": 47,
              "position": 0,
              "duration": 1.5416666666666667
            }
          ]
        }
      }
    },
    "Main_C": {
      "type": "Main_C",
      "sizeInBeats": 8,
      "channels": {
        "1": {
          "ctab": {
            "srcChannel": 1,
            "name": "E-Pia",
            "accType": "PHRASE1",
            "editable": false,
            "mutedNotes": [],
            "mutedChords": [],
            "autoStart": false,
            "sourceChordNote": 0,
            "sourceChordType": "Maj7",
            "ctb2Low": null,
            "ctb2Main": {
              "ntr": "ROOT_FIXED",
              "ntt": "CHORD",
              "bassOn": false,
              "chordRootUpperLimit": 7,
              "noteLowLimit": 0,
              "noteHighLimit": 127,
              "rtr": "PITCH_SHIFT"
            },
            "ctb2High": null
          },
          "notes": [
            {
              "pitch": 55,
              "velocity": 105,
              "position": 1,
              "duration": 1.84375
            },
            {
              "pitch": 59,
              "velocity": 105,
              "position": 1,
              "duration": 1.84375
            },
            {
              "pitch": 64,
              "velocity": 105,
              "position": 1,
              "duration": 1.84375
            },
            {
              "pitch": 55,
              "velocity": 89,
              "position": 3,
              "duration": 0.22916666666666666
            },
            {
              "pitch": 59,
              "velocity": 89,
              "position": 3,
              "duration": 0.22916666666666666
            },
            {
              "pitch": 64,
              "velocity": 89,
              "position": 3,
              "duration": 0.22916666666666666
            },
            {
              "pitch": 55,
              "velocity": 94,
              "position": 3.5,
              "duration": 0.22916666666666666
            },
            {
              "pitch": 59,
              "velocity": 94,
              "position": 3.5,
              "duration": 0.22916666666666666
            },
            {
              "pitch": 64,
              "velocity": 94,
              "position": 3.5,
              "duration": 0.22916666666666666
            },
            {
              "pitch": 55,
              "velocity": 101,
              "position": 5,
              "duration": 1.2395833333333333
            },
            {
              "pitch": 59,
              "velocity": 101,
              "position": 5,
              "duration": 1.2395833333333333
            },
            {
              "pitch": 64,
              "velocity": 101,
              "position": 5,
              "duration": 1.2395833333333333
            },
            {
              "pitch": 55,
              "velocity": 77,
              "position": 6.5,
              "duration": 0.1875
            },
            {
              "pitch": 59,
              "velocity": 77,
              "position": 6.5,
              "duration": 0.1875
            },
            {
              "pitch": 64,
              "velocity": 77,
              "position": 6.5,
              "duration": 0.1875
            },
            {
              "pitch": 59,
              "velocity": 101,
              "position": 7,
              "duration": 0.4791666666666667
            },
            {
              "pitch": 64,
              "velocity": 101,
              "position": 7,
              "duration": 0.4791666666666667
            },
            {
              "pitch": 55,
              "velocity": 96,
              "position": 7.5,
              "duration": 0.16666666666666666
            }
          ]
        },
        "2": {
          "ctab": {
            "srcChannel": 2,
            "name": "A-Gtr",
            "accType": "CHORD2",
            "editable": false,
            "mutedNotes": [],
            "mutedChords": [],
            "autoStart": false,
            "sourceChordNote": 0,
            "sourceChordType": "min7(11)",
            "ctb2Low": null,
            "ctb2Main": {
              "ntr": "ROOT_FIXED",
              "ntt": "CHORD",
              "bassOn": false,
              "chordRootUpperLimit": 7,
              "noteLowLimit": 0,
              "noteHighLimit": 127,
              "rtr": "PITCH_SHIFT"
            },
            "ctb2High": null
          },
          "notes": [
            {
              "pitch": 48,
              "velocity": 10,
              "position": 0,
              "duration": 0.4791666666666667
            },
            {
              "pitch": 53,
              "velocity": 46,
              "position": 0,
              "duration": 0.4791666666666667
            },
            {
              "pitch": 58,
              "velocity": 52,
              "position": 0,
              "duration": 0.4791666666666667
            },
            {
              "pitch": 63,
              "velocity": 52,
              "position": 0.010416666666666666,
              "duration": 0.4791666666666667
            },
            {
              "pitch": 58,
              "velocity": 48,
              "position": 0.5,
              "duration": 0.4791666666666667
            },
            {
              "pitch": 63,
              "velocity": 48,
              "position": 0.5,
              "duration": 0.4791666666666667
            },
            {
              "pitch": 48,
              "velocity": 6,
              "position": 0.5104166666666666,
              "duration": 0.4791666666666667
            },
            {
              "pitch": 53,
              "velocity": 42,
              "position": 0.5104166666666666,
              "duration": 0.4791666666666667
            },
            {
              "pitch": 48,
              "velocity": 21,
              "position": 1,
              "duration": 0.10625
            },
            {
              "pitch": 53,
              "velocity": 50,
              "position": 1,
              "duration": 0.10625
            },
            {
              "pitch": 58,
              "velocity": 56,
              "position": 1,
              "duration": 0.10625
            },
            {
              "pitch": 63,
              "velocity": 56,
              "position": 1,
              "duration": 0.10625
            },
            {
              "pitch": 58,
              "velocity": 39,
              "position": 1.5,
              "duration": 0.4791666666666667
            },
            {
              "pitch": 63,
              "velocity": 39,
              "position": 1.5,
              "duration": 0.4791666666666667
            },
            {
              "pitch": 48,
              "velocity": 6,
              "position": 1.5104166666666667,
              "duration": 0.4791666666666667
            },
            {
              "pitch": 53,
              "velocity": 35,
              "position": 1.5104166666666667,
              "duration": 0.4791666666666667
            },
            {
              "pitch": 48,
              "velocity": 10,
              "position": 2,
              "duration": 0.4791666666666667
            },
            {
              "pitch": 53,
              "velocity": 46,
              "position": 2,
              "duration": 0.4791666666666667
            },
            {
              "pitch": 58,
              "velocity": 52,
              "position": 2,
              "duration": 0.4791666666666667
            },
            {
              "pitch": 63,
              "velocity": 52,
              "position": 2.0104166666666665,
              "duration": 0.4791666666666667
            },
            {
              "pitch": 58,
              "velocity": 48,
              "position": 2.5,
              "duration": 0.4791666666666667
            },
            {
              "pitch": 63,
              "velocity": 48,
              "position": 2.5,
              "duration": 0.4791666666666667
            },
            {
              "pitch": 48,
              "velocity": 6,
              "position": 2.5104166666666665,
              "duration": 0.4791666666666667
            },
            {
              "pitch": 53,
              "velocity": 42,
              "position": 2.5104166666666665,
              "duration": 0.4791666666666667
            },
            {
              "pitch": 48,
              "velocity": 21,
              "position": 3,
              "duration": 0.10625
            },
            {
              "pitch": 53,
              "velocity": 50,
              "position": 3,
              "duration": 0.10625
            },
            {
              "pitch": 58,
              "velocity": 56,
              "position": 3,
              "duration": 0.10625
            },
            {
              "pitch": 63,
              "velocity": 56,
              "position": 3,
              "duration": 0.10625
            },
            {
              "pitch": 58,
              "velocity": 39,
              "position": 3.5,
              "duration": 0.4791666666666667
            },
            {
              "pitch": 63,
              "velocity": 39,
              "position": 3.5,
              "duration": 0.4791666666666667
            },
            {
              "pitch": 48,
              "velocity": 6,
              "position": 3.5104166666666665,
              "duration": 0.4791666666666667
            },
            {
              "pitch": 53,
              "velocity": 35,
              "position": 3.5104166666666665,
              "duration": 0.4791666666666667
            },
            {
              "pitch": 48,
              "velocity": 10,
              "position": 4,
              "duration": 0.4791666666666667
            },
            {
              "pitch": 53,
              "velocity": 46,
              "position": 4,
              "duration": 0.4791666666666667
            },
            {
              "pitch": 58,
              "velocity": 52,
              "position": 4,
              "duration": 0.4791666666666667
            },
            {
              "pitch": 63,
              "velocity": 52,
              "position": 4.010416666666667,
              "duration": 0.4791666666666667
            },
            {
              "pitch": 58,
              "velocity": 48,
              "position": 4.5,
              "duration": 0.4791666666666667
            },
            {
              "pitch": 63,
              "velocity": 48,
              "position": 4.5,
              "duration": 0.4791666666666667
            },
            {
              "pitch": 48,
              "velocity": 6,
              "position": 4.510416666666667,
              "duration": 0.4791666666666667
            },
            {
              "pitch": 53,
              "velocity": 42,
              "position": 4.510416666666667,
              "duration": 0.4791666666666667
            },
            {
              "pitch": 48,
              "velocity": 21,
              "position": 5,
              "duration": 0.10625
            },
            {
              "pitch": 53,
              "velocity": 50,
              "position": 5,
              "duration": 0.10625
            },
            {
              "pitch": 58,
              "velocity": 56,
              "position": 5,
              "duration": 0.10625
            },
            {
              "pitch": 63,
              "velocity": 56,
              "position": 5,
              "duration": 0.10625
            },
            {
              "pitch": 48,
              "velocity": 6,
              "position": 5.5,
              "duration": 0.4791666666666667
            },
            {
              "pitch": 53,
              "velocity": 35,
              "position": 5.5,
              "duration": 0.4791666666666667
            },
            {
              "pitch": 58,
              "velocity": 39,
              "position": 5.5,
              "duration": 0.4791666666666667
            },
            {
              "pitch": 63,
              "velocity": 39,
              "position": 5.510416666666667,
              "duration": 0.4791666666666667
            },
            {
              "pitch": 58,
              "velocity": 50,
              "position": 6,
              "duration": 0.4791666666666667
            },
            {
              "pitch": 63,
              "velocity": 50,
              "position": 6,
              "duration": 0.4791666666666667
            },
            {
              "pitch": 48,
              "velocity": 8,
              "position": 6.010416666666667,
              "duration": 0.4791666666666667
            },
            {
              "pitch": 53,
              "velocity": 44,
              "position": 6.010416666666667,
              "duration": 0.4791666666666667
            },
            {
              "pitch": 58,
              "velocity": 48,
              "position": 6.5,
              "duration": 0.4791666666666667
            },
            {
              "pitch": 63,
              "velocity": 48,
              "position": 6.5,
              "duration": 0.4791666666666667
            },
            {
              "pitch": 48,
              "velocity": 6,
              "position": 6.510416666666667,
              "duration": 0.4791666666666667
            },
            {
              "pitch": 53,
              "velocity": 42,
              "position": 6.510416666666667,
              "duration": 0.4791666666666667
            },
            {
              "pitch": 48,
              "velocity": 21,
              "position": 7,
              "duration": 0.10625
            },
            {
              "pitch": 53,
              "velocity": 50,
              "position": 7,
              "duration": 0.10625
            },
            {
              "pitch": 58,
              "velocity": 56,
              "position": 7,
              "duration": 0.10625
            },
            {
              "pitch": 63,
              "velocity": 56,
              "position": 7,
              "duration": 0.10625
            },
            {
              "pitch": 48,
              "velocity": 6,
              "position": 7.510416666666667,
              "duration": 0.46875
            },
            {
              "pitch": 53,
              "velocity": 35,
              "position": 7.510416666666667,
              "duration": 0.46875
            },
            {
              "pitch": 58,
              "velocity": 39,
              "position": 7.5,
              "duration": 0.4791666666666667
            },
            {
              "pitch": 63,
              "velocity": 39,
              "position": 7.5,
              "duration": 0.4791666666666667
            }
          ]
        },
        "4": {
          "ctab": {
            "srcChannel": 4,
            "name": "Strums",
            "accType": "CHORD2",
            "editable": true,
            "mutedNotes": [],
            "mutedChords": [],
            "autoStart": false,
            "sourceChordNote": 0,
            "sourceChordType": "min7(11)",
            "ctb2Low": null,
            "ctb2Main": {
              "ntr": "ROOT_FIXED",
              "ntt": "BYPASS",
              "bassOn": false,
              "chordRootUpperLimit": 7,
              "noteLowLimit": 96,
              "noteHighLimit": 127,
              "rtr": "PITCH_SHIFT"
            },
            "ctb2High": null
          },
          "notes": []
        },
        "7": {
          "ctab": {
            "srcChannel": 7,
            "name": "CC_Crash",
            "accType": "RHYTHM",
            "editable": false,
            "mutedNotes": [],
            "mutedChords": [
              "1+2+5",
              "sus4",
              "1+5",
              "1+8",
              "7aug",
              "Maj7aug",
              "7(#9)",
              "7(b13)",
              "7(b9)",
              "7(13)",
              "7#11",
              "7(9)",
              "7b5",
              "7sus4",
              "7th",
              "dim7",
              "dim",
              "minMaj7(9)",
              "minMaj7",
              "min7(11)",
              "min7(9)",
              "min(9)",
              "m7b5",
              "min7",
              "min6",
              "min",
              "aug",
              "Maj6(9)",
              "Maj7(9)",
              "Maj(9)",
              "Maj7#11",
              "Maj7",
              "Maj6",
              "Maj"
            ],
            "autoStart": true,
            "sourceChordNote": 0,
            "sourceChordType": "Maj",
            "ctb2Low": null,
            "ctb2Main": {
              "ntr": "ROOT_FIXED",
              "ntt": "BYPASS",
              "bassOn": false,
              "chordRootUpperLimit": 0,
              "noteLowLimit": 0,
              "noteHighLimit": 127,
              "rtr": "RETRIGGER"
            },
            "ctb2High": null
          },
          "notes": []
        },
        "8": {
          "ctab": {
            "srcChannel": 8,
            "name": "AddDrums",
            "accType": "SUBRHYTHM",
            "editable": false,
            "mutedNotes": [],
            "mutedChords": [],
            "autoStart": true,
            "sourceChordNote": 0,
            "sourceChordType": "Maj7",
            "ctb2Low": null,
            "ctb2Main": {
              "ntr": "ROOT_FIXED",
              "ntt": "BYPASS",
              "bassOn": false,
              "chordRootUpperLimit": 6,
              "noteLowLimit": 0,
              "noteHighLimit": 127,
              "rtr": "PITCH_SHIFT"
            },
            "ctb2High": null
          },
          "notes": [
            {
              "pitch": 54,
              "velocity": 80,
              "position": 1,
              "duration": 0.041666666666666664
            },
            {
              "pitch": 62,
              "velocity": 120,
              "position": 1,
              "duration": 0.041666666666666664
            },
            {
              "pitch": 63,
              "velocity": 71,
              "position": 1.5,
              "duration": 0.041666666666666664
            },
            {
              "pitch": 63,
              "velocity": 72,
              "position": 2.5,
              "duration": 0.041666666666666664
            },
            {
              "pitch": 54,
              "velocity": 80,
              "position": 3,
              "duration": 0.041666666666666664
            },
            {
              "pitch": 64,
              "velocity": 64,
              "position": 3,
              "duration": 0.041666666666666664
            },
            {
              "pitch": 64,
              "velocity": 70,
              "position": 3.5,
              "duration": 0.041666666666666664
            },
            {
              "pitch": 54,
              "velocity": 80,
              "position": 5,
              "duration": 0.041666666666666664
            },
            {
              "pitch": 62,
              "velocity": 120,
              "position": 5,
              "duration": 0.041666666666666664
            },
            {
              "pitch": 63,
              "velocity": 71,
              "position": 5.5,
              "duration": 0.041666666666666664
            },
            {
              "pitch": 63,
              "velocity": 72,
              "position": 6.5,
              "duration": 0.041666666666666664
            },
            {
              "pitch": 54,
              "velocity": 80,
              "position": 7,
              "duration": 0.041666666666666664
            },
            {
              "pitch": 64,
              "velocity": 60,
              "position": 7,
              "duration": 0.041666666666666664
            },
            {
              "pitch": 64,
              "velocity": 70,
              "position": 7.5,
              "duration": 0.041666666666666664
            }
          ]
        },
        "9": {
          "ctab": {
            "srcChannel": 9,
            "name": "Drums",
            "accType": "RHYTHM",
            "editable": false,
            "mutedNotes": [],
            "mutedChords": [],
            "autoStart": true,
            "sourceChordNote": 0,
            "sourceChordType": "Maj7",
            "ctb2Low": null,
            "ctb2Main": {
              "ntr": "ROOT_FIXED",
              "ntt": "BYPASS",
              "bassOn": false,
              "chordRootUpperLimit": 6,
              "noteLowLimit": 0,
              "noteHighLimit": 127,
              "rtr": "PITCH_SHIFT"
            },
            "ctb2High": null
          },
          "notes": [
            {
              "pitch": 36,
              "velocity": 92,
              "position": 0,
              "duration": 0.041666666666666664
            },
            {
              "pitch": 42,
              "velocity": 112,
              "position": 0,
              "duration": 0.041666666666666664
            },
            {
              "pitch": 42,
              "velocity": 52,
              "position": 0.5,
              "duration": 0.041666666666666664
            },
            {
              "pitch": 38,
              "velocity": 88,
              "position": 1,
              "duration": 0.041666666666666664
            },
            {
              "pitch": 42,
              "velocity": 113,
              "position": 1,
              "duration": 0.041666666666666664
            },
            {
              "pitch": 36,
              "velocity": 68,
              "position": 1.5,
              "duration": 0.041666666666666664
            },
            {
              "pitch": 42,
              "velocity": 47,
              "position": 1.5,
              "duration": 0.041666666666666664
            },
            {
              "pitch": 36,
              "velocity": 92,
              "position": 2,
              "duration": 0.041666666666666664
            },
            {
              "pitch": 42,
              "velocity": 115,
              "position": 2,
              "duration": 0.041666666666666664
            },
            {
              "pitch": 42,
              "velocity": 49,
              "position": 2.5,
              "duration": 0.041666666666666664
            },
            {
              "pitch": 38,
              "velocity": 88,
              "position": 3,
              "duration": 0.041666666666666664
            },
            {
              "pitch": 42,
              "velocity": 110,
              "position": 3,
              "duration": 0.041666666666666664
            },
            {
              "pitch": 42,
              "velocity": 50,
              "position": 3.5,
              "duration": 0.041666666666666664
            },
            {
              "pitch": 36,
              "velocity": 92,
              "position": 4,
              "duration": 0.041666666666666664
            },
            {
              "pitch": 42,
              "velocity": 115,
              "position": 4,
              "duration": 0.041666666666666664
            },
            {
              "pitch": 42,
              "velocity": 49,
              "position": 4.5,
              "duration": 0.041666666666666664
            },
            {
              "pitch": 38,
              "velocity": 88,
              "position": 5,
              "duration": 0.041666666666666664
            },
            {
              "pitch": 42,
              "velocity": 110,
              "position": 5,
              "duration": 0.041666666666666664
            },
            {
              "pitch": 36,
              "velocity": 68,
              "position": 5.5,
              "duration": 0.041666666666666664
            },
            {
              "pitch": 42,
              "velocity": 50,
              "position": 5.5,
              "duration": 0.041666666666666664
            },
            {
              "pitch": 36,
              "velocity": 92,
              "position": 6,
              "duration": 0.041666666666666664
            },
            {
              "pitch": 42,
              "velocity": 113,
              "position": 6,
              "duration": 0.041666666666666664
            },
            {
              "pitch": 42,
              "velocity": 47,
              "position": 6.5,
              "duration": 0.041666666666666664
            },
            {
              "pitch": 38,
              "velocity": 88,
              "position": 7,
              "duration": 0.041666666666666664
            },
            {
              "pitch": 42,
              "velocity": 112,
              "position": 7,
              "duration": 0.041666666666666664
            },
            {
              "pitch": 46,
              "velocity": 60,
              "position": 7.5,
              "duration": 0.041666666666666664
            }
          ]
        },
        "10": {
          "ctab": {
            "srcChannel": 10,
            "name": "Bass",
            "accType": "BASS",
            "editable": false,
            "mutedNotes": [],
            "mutedChords": [],
            "autoStart": false,
            "sourceChordNote": 0,
            "sourceChordType": "Maj7",
            "ctb2Low": null,
            "ctb2Main": {
              "ntr": "ROOT_TRANSPOSITION",
              "ntt": "MELODY",
              "bassOn": true,
              "chordRootUpperLimit": 3,
              "noteLowLimit": 28,
              "noteHighLimit": 127,
              "rtr": "PITCH_SHIFT_TO_ROOT"
            },
            "ctb2High": null
          },
          "notes": [
            {
              "pitch": 24,
              "velocity": 83,
              "position": 0,
              "duration": 1.125
            },
            {
              "pitch": 24,
              "velocity": 83,
              "position": 1.5,
              "duration": 0.4895833333333333
            },
            {
              "pitch": 31,
              "velocity": 83,
              "position": 2,
              "duration": 1.125
            },
            {
              "pitch": 31,
              "velocity": 83,
              "position": 3.5,
              "duration": 0.4895833333333333
            },
            {
              "pitch": 24,
              "velocity": 83,
              "position": 4,
              "duration": 1.125
            },
            {
              "pitch": 24,
              "velocity": 83,
              "position": 5.5,
              "duration": 0.4895833333333333
            },
            {
              "pitch": 31,
              "velocity": 83,
              "position": 6,
              "duration": 1.125
            },
            {
              "pitch": 31,
              "velocity": 83,
              "position": 7.5,
              "duration": 0.4895833333333333
            }
          ]
        },
        "11": {
          "ctab": {
            "srcChannel": 11,
            "name": "Chord1",
            "accType": "CHORD1",
            "editable": false,
            "mutedNotes": [],
            "mutedChords": [],
            "autoStart": false,
            "sourceChordNote": 0,
            "sourceChordType": "Maj7",
            "ctb2Low": null,
            "ctb2Main": {
              "ntr": "ROOT_FIXED",
              "ntt": "CHORD",
              "bassOn": false,
              "chordRootUpperLimit": 7,
              "noteLowLimit": 0,
              "noteHighLimit": 127,
              "rtr": "PITCH_SHIFT"
            },
            "ctb2High": null
          },
          "notes": [
            {
              "pitch": 55,
              "velocity": 63,
              "position": 0,
              "duration": 0.9895833333333334
            },
            {
              "pitch": 59,
              "velocity": 64,
              "position": 0.010416666666666666,
              "duration": 0.9791666666666666
            },
            {
              "pitch": 64,
              "velocity": 71,
              "position": 0.020833333333333332,
              "duration": 0.96875
            },
            {
              "pitch": 59,
              "velocity": 92,
              "position": 1,
              "duration": 0.10416666666666667
            },
            {
              "pitch": 64,
              "velocity": 97,
              "position": 1,
              "duration": 0.10416666666666667
            },
            {
              "pitch": 55,
              "velocity": 88,
              "position": 1,
              "duration": 0.125
            },
            {
              "pitch": 55,
              "velocity": 58,
              "position": 1.5208333333333333,
              "duration": 0.46875
            },
            {
              "pitch": 59,
              "velocity": 58,
              "position": 1.5104166666666667,
              "duration": 0.4791666666666667
            },
            {
              "pitch": 64,
              "velocity": 60,
              "position": 1.5,
              "duration": 0.5104166666666666
            },
            {
              "pitch": 55,
              "velocity": 63,
              "position": 2,
              "duration": 0.9895833333333334
            },
            {
              "pitch": 59,
              "velocity": 64,
              "position": 2.0104166666666665,
              "duration": 0.9791666666666666
            },
            {
              "pitch": 64,
              "velocity": 71,
              "position": 2.0208333333333335,
              "duration": 0.96875
            },
            {
              "pitch": 59,
              "velocity": 92,
              "position": 3,
              "duration": 0.10416666666666667
            },
            {
              "pitch": 64,
              "velocity": 97,
              "position": 3,
              "duration": 0.10416666666666667
            },
            {
              "pitch": 55,
              "velocity": 88,
              "position": 3,
              "duration": 0.125
            },
            {
              "pitch": 55,
              "velocity": 58,
              "position": 3.5208333333333335,
              "duration": 0.46875
            },
            {
              "pitch": 59,
              "velocity": 58,
              "position": 3.5104166666666665,
              "duration": 0.4791666666666667
            },
            {
              "pitch": 64,
              "velocity": 60,
              "position": 3.5,
              "duration": 0.4895833333333333
            },
            {
              "pitch": 59,
              "velocity": 66,
              "position": 4.010416666666667,
              "duration": 0.4791666666666667
            },
            {
              "pitch": 64,
              "velocity": 73,
              "position": 4.020833333333333,
              "duration": 0.46875
            },
            {
              "pitch": 55,
              "velocity": 64,
              "position": 4,
              "duration": 0.5104166666666666
            },
            {
              "pitch": 55,
              "velocity": 58,
              "position": 4.520833333333333,
              "duration": 0.46875
            },
            {
              "pitch": 59,
              "velocity": 58,
              "position": 4.510416666666667,
              "duration": 0.4791666666666667
            },
            {
              "pitch": 64,
              "velocity": 60,
              "position": 4.5,
              "duration": 0.4895833333333333
            },
            {
              "pitch": 59,
              "velocity": 92,
              "position": 5,
              "duration": 0.10416666666666667
            },
            {
              "pitch": 64,
              "velocity": 97,
              "position": 5,
              "duration": 0.10416666666666667
            },
            {
              "pitch": 55,
              "velocity": 88,
              "position": 5,
              "duration": 0.125
            },
            {
              "pitch": 55,
              "velocity": 58,
              "position": 5.520833333333333,
              "duration": 0.46875
            },
            {
              "pitch": 59,
              "velocity": 58,
              "position": 5.510416666666667,
              "duration": 0.4791666666666667
            },
            {
              "pitch": 64,
              "velocity": 60,
              "position": 5.5,
              "duration": 0.5104166666666666
            },
            {
              "pitch": 55,
              "velocity": 63,
              "position": 6,
              "duration": 0.9895833333333334
            },
            {
              "pitch": 59,
              "velocity": 64,
              "position": 6.010416666666667,
              "duration": 0.9791666666666666
            },
            {
              "pitch": 64,
              "velocity": 71,
              "position": 6.020833333333333,
              "duration": 0.96875
            },
            {
              "pitch": 59,
              "velocity": 92,
              "position": 7,
              "duration": 0.10416666666666667
            },
            {
              "pitch": 64,
              "velocity": 97,
              "position": 7,
              "duration": 0.10416666666666667
            },
            {
              "pitch": 55,
              "velocity": 88,
              "position": 7,
              "duration": 0.125
            },
            {
              "pitch": 59,
              "velocity": 58,
              "position": 7.510416666666667,
              "duration": 0.46875
            },
            {
              "pitch": 55,
              "velocity": 58,
              "position": 7.520833333333333,
              "duration": 0.46875
            },
            {
              "pitch": 64,
              "velocity": 60,
              "position": 7.5,
              "duration": 0.4895833333333333
            }
          ]
        },
        "13": {
          "ctab": {
            "srcChannel": 13,
            "name": "Pad",
            "accType": "PAD",
            "editable": false,
            "mutedNotes": [],
            "mutedChords": [],
            "autoStart": false,
            "sourceChordNote": 0,
            "sourceChordType": "Maj7",
            "ctb2Low": null,
            "ctb2Main": {
              "ntr": "ROOT_FIXED",
              "ntt": "CHORD",
              "bassOn": false,
              "chordRootUpperLimit": 7,
              "noteLowLimit": 0,
              "noteHighLimit": 127,
              "rtr": "PITCH_SHIFT"
            },
            "ctb2High": null
          },
          "notes": [
            {
              "pitch": 59,
              "velocity": 52,
              "position": 0,
              "duration": 7.989583333333333
            },
            {
              "pitch": 64,
              "velocity": 52,
              "position": 0,
              "duration": 7.989583333333333
            },
            {
              "pitch": 67,
              "velocity": 52,
              "position": 0,
              "duration": 7.989583333333333
            }
          ]
        },
        "14": {
          "ctab": {
            "srcChannel": 14,
            "name": "PadRoot",
            "accType": "PAD",
            "editable": false,
            "mutedNotes": [],
            "mutedChords": [
              "1+2+5",
              "sus4",
              "1+5",
              "1+8",
              "Maj7aug",
              "dim",
              "minMaj7(9)",
              "minMaj7",
              "min6",
              "min",
              "aug",
              "Maj7(9)",
              "Maj7#11",
              "Maj7",
              "Maj6",
              "Maj"
            ],
            "autoStart": false,
            "sourceChordNote": 0,
            "sourceChordType": "Maj7",
            "ctb2Low": null,
            "ctb2Main": {
              "ntr": "ROOT_TRANSPOSITION",
              "ntt": "CHORD",
              "bassOn": false,
              "chordRootUpperLimit": 10,
              "noteLowLimit": 0,
              "noteHighLimit": 127,
              "rtr": "PITCH_SHIFT"
            },
            "ctb2High": null
          },
          "notes": [
            {
              "pitch": 60,
              "velocity": 47,
              "position": 0,
              "duration": 7.989583333333333
            }
          ]
        }
      }
    },
    "Fill_In_CC": {
      "type": "Fill_In_CC",
      "sizeInBeats": 4,
      "channels": {
        "1": {
          "ctab": {
            "srcChannel": 1,
            "name": "E-Pia",
            "accType": "PHRASE1",
            "editable": false,
            "mutedNotes": [],
            "mutedChords": [],
            "autoStart": false,
            "sourceChordNote": 0,
            "sourceChordType": "Maj7",
            "ctb2Low": null,
            "ctb2Main": {
              "ntr": "ROOT_FIXED",
              "ntt": "CHORD",
              "bassOn": false,
              "chordRootUpperLimit": 7,
              "noteLowLimit": 0,
              "noteHighLimit": 127,
              "rtr": "PITCH_SHIFT"
            },
            "ctb2High": null
          },
          "notes": [
            {
              "pitch": 55,
              "velocity": 109,
              "position": 1,
              "duration": 1.2395833333333333
            },
            {
              "pitch": 59,
              "velocity": 109,
              "position": 1,
              "duration": 1.2395833333333333
            },
            {
              "pitch": 64,
              "velocity": 109,
              "position": 1,
              "duration": 1.2395833333333333
            },
            {
              "pitch": 55,
              "velocity": 85,
              "position": 2.5,
              "duration": 0.1875
            },
            {
              "pitch": 59,
              "velocity": 85,
              "position": 2.5,
              "duration": 0.1875
            },
            {
              "pitch": 64,
              "velocity": 85,
              "position": 2.5,
              "duration": 0.1875
            },
            {
              "pitch": 59,
              "velocity": 109,
              "position": 3,
              "duration": 0.4791666666666667
            },
            {
              "pitch": 64,
              "velocity": 109,
              "position": 3,
              "duration": 0.4791666666666667
            },
            {
              "pitch": 55,
              "velocity": 104,
              "position": 3.5,
              "duration": 0.16666666666666666
            }
          ]
        },
        "2": {
          "ctab": {
            "srcChannel": 2,
            "name": "A-Gtr",
            "accType": "CHORD2",
            "editable": false,
            "mutedNotes": [],
            "mutedChords": [],
            "autoStart": false,
            "sourceChordNote": 0,
            "sourceChordType": "min7(11)",
            "ctb2Low": null,
            "ctb2Main": {
              "ntr": "ROOT_FIXED",
              "ntt": "CHORD",
              "bassOn": false,
              "chordRootUpperLimit": 7,
              "noteLowLimit": 0,
              "noteHighLimit": 127,
              "rtr": "PITCH_SHIFT"
            },
            "ctb2High": null
          },
          "notes": [
            {
              "pitch": 48,
              "velocity": 10,
              "position": 0,
              "duration": 0.4791666666666667
            },
            {
              "pitch": 53,
              "velocity": 46,
              "position": 0,
              "duration": 0.4791666666666667
            },
            {
              "pitch": 58,
              "velocity": 52,
              "position": 0,
              "duration": 0.4791666666666667
            },
            {
              "pitch": 63,
              "velocity": 52,
              "position": 0.010416666666666666,
              "duration": 0.4791666666666667
            },
            {
              "pitch": 58,
              "velocity": 48,
              "position": 0.5,
              "duration": 0.4791666666666667
            },
            {
              "pitch": 63,
              "velocity": 48,
              "position": 0.5,
              "duration": 0.4791666666666667
            },
            {
              "pitch": 48,
              "velocity": 6,
              "position": 0.5104166666666666,
              "duration": 0.4791666666666667
            },
            {
              "pitch": 53,
              "velocity": 42,
              "position": 0.5104166666666666,
              "duration": 0.4791666666666667
            },
            {
              "pitch": 48,
              "velocity": 21,
              "position": 1,
              "duration": 0.10625
            },
            {
              "pitch": 53,
              "velocity": 50,
              "position": 1,
              "duration": 0.10625
            },
            {
              "pitch": 58,
              "velocity": 56,
              "position": 1,
              "duration": 0.10625
            },
            {
              "pitch": 63,
              "velocity": 56,
              "position": 1,
              "duration": 0.10625
            },
            {
              "pitch": 58,
              "velocity": 39,
              "position": 1.5,
              "duration": 0.4791666666666667
            },
            {
              "pitch": 63,
              "velocity": 39,
              "position": 1.5,
              "duration": 0.4791666666666667
            },
            {
              "pitch": 48,
              "velocity": 6,
              "position": 1.5104166666666667,
              "duration": 0.4791666666666667
            },
            {
              "pitch": 53,
              "velocity": 35,
              "position": 1.5104166666666667,
              "duration": 0.4791666666666667
            },
            {
              "pitch": 48,
              "velocity": 10,
              "position": 2,
              "duration": 0.4791666666666667
            },
            {
              "pitch": 53,
              "velocity": 46,
              "position": 2,
              "duration": 0.4791666666666667
            },
            {
              "pitch": 58,
              "velocity": 52,
              "position": 2,
              "duration": 0.4791666666666667
            },
            {
              "pitch": 63,
              "velocity": 52,
              "position": 2.0104166666666665,
              "duration": 0.4791666666666667
            },
            {
              "pitch": 58,
              "velocity": 48,
              "position": 2.5,
              "duration": 0.4791666666666667
            },
            {
              "pitch": 63,
              "velocity": 48,
              "position": 2.5,
              "duration": 0.4791666666666667
            },
            {
              "pitch": 48,
              "velocity": 6,
              "position": 2.5104166666666665,
              "duration": 0.4791666666666667
            },
            {
              "pitch": 53,
              "velocity": 42,
              "position": 2.5104166666666665,
              "duration": 0.4791666666666667
            },
            {
              "pitch": 48,
              "velocity": 21,
              "position": 3,
              "duration": 0.10625
            },
            {
              "pitch": 53,
              "velocity": 50,
              "position": 3,
              "duration": 0.10625
            },
            {
              "pitch": 58,
              "velocity": 56,
              "position": 3,
              "duration": 0.10625
            },
            {
              "pitch": 63,
              "velocity": 56,
              "position": 3,
              "duration": 0.10625
            },
            {
              "pitch": 58,
              "velocity": 39,
              "position": 3.5,
              "duration": 0.4791666666666667
            },
            {
              "pitch": 63,
              "velocity": 39,
              "position": 3.5,
              "duration": 0.4791666666666667
            },
            {
              "pitch": 48,
              "velocity": 6,
              "position": 3.5104166666666665,
              "duration": 0.4791666666666667
            },
            {
              "pitch": 53,
              "velocity": 35,
              "position": 3.5104166666666665,
              "duration": 0.4791666666666667
            }
          ]
        },
        "4": {
          "ctab": {
            "srcChannel": 4,
            "name": "Strums",
            "accType": "CHORD2",
            "editable": true,
            "mutedNotes": [],
            "mutedChords": [],
            "autoStart": false,
            "sourceChordNote": 0,
            "sourceChordType": "min7(11)",
            "ctb2Low": null,
            "ctb2Main": {
              "ntr": "ROOT_FIXED",
              "ntt": "BYPASS",
              "bassOn": false,
              "chordRootUpperLimit": 7,
              "noteLowLimit": 96,
              "noteHighLimit": 127,
              "rtr": "PITCH_SHIFT"
            },
            "ctb2High": null
          },
          "notes": []
        },
        "7": {
          "ctab": {
            "srcChannel": 7,
            "name": "CC_Crash",
            "accType": "RHYTHM",
            "editable": false,
            "mutedNotes": [],
            "mutedChords": [
              "1+2+5",
              "sus4",
              "1+5",
              "1+8",
              "7aug",
              "Maj7aug",
              "7(#9)",
              "7(b13)",
              "7(b9)",
              "7(13)",
              "7#11",
              "7(9)",
              "7b5",
              "7sus4",
              "7th",
              "dim7",
              "dim",
              "minMaj7(9)",
              "minMaj7",
              "min7(11)",
              "min7(9)",
              "min(9)",
              "m7b5",
              "min7",
              "min6",
              "min",
              "aug",
              "Maj6(9)",
              "Maj7(9)",
              "Maj(9)",
              "Maj7#11",
              "Maj7",
              "Maj6",
              "Maj"
            ],
            "autoStart": true,
            "sourceChordNote": 0,
            "sourceChordType": "Maj",
            "ctb2Low": null,
            "ctb2Main": {
              "ntr": "ROOT_FIXED",
              "ntt": "BYPASS",
              "bassOn": false,
              "chordRootUpperLimit": 0,
              "noteLowLimit": 0,
              "noteHighLimit": 127,
              "rtr": "RETRIGGER"
            },
            "ctb2High": null
          },
          "notes": []
        },
        "8": {
          "ctab": {
            "srcChannel": 8,
            "name": "AddDrums",
            "accType": "SUBRHYTHM",
            "editable": false,
            "mutedNotes": [],
            "mutedChords": [],
            "autoStart": true,
            "sourceChordNote": 0,
            "sourceChordType": "Maj7",
            "ctb2Low": null,
            "ctb2Main": {
              "ntr": "ROOT_FIXED",
              "ntt": "BYPASS",
              "bassOn": false,
              "chordRootUpperLimit": 6,
              "noteLowLimit": 0,
              "noteHighLimit": 127,
              "rtr": "PITCH_SHIFT"
            },
            "ctb2High": null
          },
          "notes": [
            {
              "pitch": 54,
              "velocity": 80,
              "position": 1,
              "duration": 0.041666666666666664
            },
            {
              "pitch": 62,
              "velocity": 120,
              "position": 1,
              "duration": 0.041666666666666664
            },
            {
              "pitch": 63,
              "velocity": 71,
              "position": 1.5,
              "duration": 0.041666666666666664
            },
            {
              "pitch": 63,
              "velocity": 72,
              "position": 2.5,
              "duration": 0.041666666666666664
            },
            {
              "pitch": 54,
              "velocity": 80,
              "position": 3,
              "duration": 0.041666666666666664
            },
            {
              "pitch": 64,
              "velocity": 64,
              "position": 3,
              "duration": 0.041666666666666664
            },
            {
              "pitch": 64,
              "velocity": 70,
              "position": 3.5,
              "duration": 0.041666666666666664
            }
          ]
        },
        "9": {
          "ctab": {
            "srcChannel": 9,
            "name": "Drums",
            "accType": "RHYTHM",
            "editable": false,
            "mutedNotes": [],
            "mutedChords": [],
            "autoStart": true,
            "sourceChordNote": 0,
            "sourceChordType": "Maj7",
            "ctb2Low": null,
            "ctb2Main": {
              "ntr": "ROOT_FIXED",
              "ntt": "BYPASS",
              "bassOn": false,
              "chordRootUpperLimit": 6,
              "noteLowLimit": 0,
              "noteHighLimit": 127,
              "rtr": "PITCH_SHIFT"
            },
            "ctb2High": null
          },
          "notes": [
            {
              "pitch": 36,
              "velocity": 92,
              "position": 0,
              "duration": 0.041666666666666664
            },
            {
              "pitch": 42,
              "velocity": 115,
              "position": 0,
              "duration": 0.041666666666666664
            },
            {
              "pitch": 42,
              "velocity": 52,
              "position": 0.5,
              "duration": 0.041666666666666664
            },
            {
              "pitch": 38,
              "velocity": 88,
              "position": 1,
              "duration": 0.041666666666666664
            },
            {
              "pitch": 42,
              "velocity": 114,
              "position": 1,
              "duration": 0.041666666666666664
            },
            {
              "pitch": 36,
              "velocity": 68,
              "position": 1.5,
              "duration": 0.041666666666666664
            },
            {
              "pitch": 42,
              "velocity": 52,
              "position": 1.5,
              "duration": 0.041666666666666664
            },
            {
              "pitch": 46,
              "velocity": 60,
              "position": 2,
              "duration": 0.03125
            },
            {
              "pitch": 36,
              "velocity": 92,
              "position": 2,
              "duration": 0.041666666666666664
            },
            {
              "pitch": 50,
              "velocity": 60,
              "position": 2.5,
              "duration": 0.03125
            },
            {
              "pitch": 38,
              "velocity": 46,
              "position": 2.75,
              "duration": 0.03125
            },
            {
              "pitch": 38,
              "velocity": 88,
              "position": 3,
              "duration": 0.03125
            },
            {
              "pitch": 38,
              "velocity": 64,
              "position": 3.25,
              "duration": 0.03125
            },
            {
              "pitch": 48,
              "velocity": 65,
              "position": 3.5,
              "duration": 0.03125
            },
            {
              "pitch": 36,
              "velocity": 68,
              "position": 3.5,
              "duration": 0.041666666666666664
            },
            {
              "pitch": 49,
              "velocity": 54,
              "position": 3.9895833333333335,
              "duration": 0.010416666666666666
            }
          ]
        },
        "10": {
          "ctab": {
            "srcChannel": 10,
            "name": "Bass",
            "accType": "BASS",
            "editable": false,
            "mutedNotes": [],
            "mutedChords": [],
            "autoStart": false,
            "sourceChordNote": 0,
            "sourceChordType": "Maj7",
            "ctb2Low": null,
            "ctb2Main": {
              "ntr": "ROOT_TRANSPOSITION",
              "ntt": "MELODY",
              "bassOn": true,
              "chordRootUpperLimit": 3,
              "noteLowLimit": 28,
              "noteHighLimit": 127,
              "rtr": "PITCH_SHIFT_TO_ROOT"
            },
            "ctb2High": null
          },
          "notes": [
            {
              "pitch": 24,
              "velocity": 83,
              "position": 0,
              "duration": 1.125
            },
            {
              "pitch": 24,
              "velocity": 83,
              "position": 1.5,
              "duration": 0.4895833333333333
            },
            {
              "pitch": 31,
              "velocity": 83,
              "position": 2,
              "duration": 1.125
            },
            {
              "pitch": 31,
              "velocity": 83,
              "position": 3.5,
              "duration": 0.4895833333333333
            }
          ]
        },
        "11": {
          "ctab": {
            "srcChannel": 11,
            "name": "Chord1",
            "accType": "CHORD1",
            "editable": false,
            "mutedNotes": [],
            "mutedChords": [],
            "autoStart": false,
            "sourceChordNote": 0,
            "sourceChordType": "Maj7",
            "ctb2Low": null,
            "ctb2Main": {
              "ntr": "ROOT_FIXED",
              "ntt": "CHORD",
              "bassOn": false,
              "chordRootUpperLimit": 7,
              "noteLowLimit": 0,
              "noteHighLimit": 127,
              "rtr": "PITCH_SHIFT"
            },
            "ctb2High": null
          },
          "notes": [
            {
              "pitch": 55,
              "velocity": 63,
              "position": 0,
              "duration": 0.9895833333333334
            },
            {
              "pitch": 59,
              "velocity": 64,
              "position": 0.010416666666666666,
              "duration": 0.9791666666666666
            },
            {
              "pitch": 64,
              "velocity": 71,
              "position": 0.020833333333333332,
              "duration": 0.96875
            },
            {
              "pitch": 59,
              "velocity": 92,
              "position": 1,
              "duration": 0.10416666666666667
            },
            {
              "pitch": 64,
              "velocity": 97,
              "position": 1,
              "duration": 0.10416666666666667
            },
            {
              "pitch": 55,
              "velocity": 88,
              "position": 1,
              "duration": 0.125
            },
            {
              "pitch": 55,
              "velocity": 58,
              "position": 1.5208333333333333,
              "duration": 0.46875
            },
            {
              "pitch": 59,
              "velocity": 58,
              "position": 1.5104166666666667,
              "duration": 0.4791666666666667
            },
            {
              "pitch": 64,
              "velocity": 60,
              "position": 1.5,
              "duration": 0.5104166666666666
            },
            {
              "pitch": 55,
              "velocity": 63,
              "position": 2,
              "duration": 0.9895833333333334
            },
            {
              "pitch": 59,
              "velocity": 64,
              "position": 2.0104166666666665,
              "duration": 0.9791666666666666
            },
            {
              "pitch": 64,
              "velocity": 71,
              "position": 2.0208333333333335,
              "duration": 0.96875
            },
            {
              "pitch": 59,
              "velocity": 92,
              "position": 3,
              "duration": 0.10416666666666667
            },
            {
              "pitch": 64,
              "velocity": 97,
              "position": 3,
              "duration": 0.10416666666666667
            },
            {
              "pitch": 55,
              "velocity": 88,
              "position": 3,
              "duration": 0.125
            },
            {
              "pitch": 55,
              "velocity": 58,
              "position": 3.5208333333333335,
              "duration": 0.46875
            },
            {
              "pitch": 59,
              "velocity": 58,
              "position": 3.5104166666666665,
              "duration": 0.4791666666666667
            },
            {
              "pitch": 64,
              "velocity": 60,
              "position": 3.5,
              "duration": 0.4895833333333333
            }
          ]
        },
        "13": {
          "ctab": {
            "srcChannel": 13,
            "name": "Pad",
            "accType": "PAD",
            "editable": false,
            "mutedNotes": [],
            "mutedChords": [],
            "autoStart": false,
            "sourceChordNote": 0,
            "sourceChordType": "Maj7",
            "ctb2Low": null,
            "ctb2Main": {
              "ntr": "ROOT_FIXED",
              "ntt": "CHORD",
              "bassOn": false,
              "chordRootUpperLimit": 7,
              "noteLowLimit": 0,
              "noteHighLimit": 127,
              "rtr": "PITCH_SHIFT"
            },
            "ctb2High": null
          },
          "notes": [
            {
              "pitch": 59,
              "velocity": 47,
              "position": 0,
              "duration": 3.9895833333333335
            },
            {
              "pitch": 64,
              "velocity": 47,
              "position": 0,
              "duration": 3.9895833333333335
            },
            {
              "pitch": 67,
              "velocity": 47,
              "position": 0,
              "duration": 3.9895833333333335
            }
          ]
        },
        "14": {
          "ctab": {
            "srcChannel": 14,
            "name": "PadRoot",
            "accType": "PAD",
            "editable": false,
            "mutedNotes": [],
            "mutedChords": [
              "1+2+5",
              "sus4",
              "1+5",
              "1+8",
              "Maj7aug",
              "dim",
              "minMaj7(9)",
              "minMaj7",
              "min6",
              "min",
              "aug",
              "Maj7(9)",
              "Maj7#11",
              "Maj7",
              "Maj6",
              "Maj"
            ],
            "autoStart": false,
            "sourceChordNote": 0,
            "sourceChordType": "Maj7",
            "ctb2Low": null,
            "ctb2Main": {
              "ntr": "ROOT_TRANSPOSITION",
              "ntt": "CHORD",
              "bassOn": false,
              "chordRootUpperLimit": 10,
              "noteLowLimit": 0,
              "noteHighLimit": 127,
              "rtr": "PITCH_SHIFT"
            },
            "ctb2High": null
          },
          "notes": [
            {
              "pitch": 60,
              "velocity": 47,
              "position": 0,
              "duration": 3.9895833333333335
            }
          ]
        }
      }
    },
    "Main_D": {
      "type": "Main_D",
      "sizeInBeats": 8,
      "channels": {
        "1": {
          "ctab": {
            "srcChannel": 1,
            "name": "E-Pia",
            "accType": "PHRASE1",
            "editable": false,
            "mutedNotes": [],
            "mutedChords": [],
            "autoStart": false,
            "sourceChordNote": 0,
            "sourceChordType": "Maj7",
            "ctb2Low": null,
            "ctb2Main": {
              "ntr": "ROOT_FIXED",
              "ntt": "CHORD",
              "bassOn": false,
              "chordRootUpperLimit": 7,
              "noteLowLimit": 0,
              "noteHighLimit": 127,
              "rtr": "PITCH_SHIFT"
            },
            "ctb2High": null
          },
          "notes": [
            {
              "pitch": 55,
              "velocity": 81,
              "position": 0.5,
              "duration": 1.9791666666666667
            },
            {
              "pitch": 59,
              "velocity": 119,
              "position": 1,
              "duration": 1.4895833333333333
            },
            {
              "pitch": 64,
              "velocity": 119,
              "position": 1,
              "duration": 1.4895833333333333
            },
            {
              "pitch": 55,
              "velocity": 84,
              "position": 2.5,
              "duration": 0.6354166666666666
            },
            {
              "pitch": 59,
              "velocity": 114,
              "position": 3,
              "duration": 0.17708333333333334
            },
            {
              "pitch": 64,
              "velocity": 114,
              "position": 3,
              "duration": 0.20833333333333334
            },
            {
              "pitch": 59,
              "velocity": 115,
              "position": 3.5,
              "duration": 0.1875
            },
            {
              "pitch": 55,
              "velocity": 115,
              "position": 3.5,
              "duration": 0.19791666666666666
            },
            {
              "pitch": 64,
              "velocity": 115,
              "position": 3.5,
              "duration": 0.20833333333333334
            },
            {
              "pitch": 55,
              "velocity": 80,
              "position": 4.5,
              "duration": 0.6354166666666666
            },
            {
              "pitch": 59,
              "velocity": 109,
              "position": 5,
              "duration": 0.17708333333333334
            },
            {
              "pitch": 64,
              "velocity": 109,
              "position": 5,
              "duration": 0.20833333333333334
            },
            {
              "pitch": 59,
              "velocity": 110,
              "position": 5.5,
              "duration": 0.1875
            },
            {
              "pitch": 55,
              "velocity": 110,
              "position": 5.5,
              "duration": 0.20833333333333334
            },
            {
              "pitch": 64,
              "velocity": 110,
              "position": 5.5,
              "duration": 0.20833333333333334
            },
            {
              "pitch": 55,
              "velocity": 81,
              "position": 6.5,
              "duration": 1.2291666666666667
            },
            {
              "pitch": 59,
              "velocity": 120,
              "position": 7,
              "duration": 0.7395833333333334
            },
            {
              "pitch": 64,
              "velocity": 120,
              "position": 7,
              "duration": 0.7395833333333334
            }
          ]
        },
        "2": {
          "ctab": {
            "srcChannel": 2,
            "name": "A-Gtr",
            "accType": "CHORD2",
            "editable": false,
            "mutedNotes": [],
            "mutedChords": [],
            "autoStart": false,
            "sourceChordNote": 0,
            "sourceChordType": "min7(11)",
            "ctb2Low": null,
            "ctb2Main": {
              "ntr": "ROOT_FIXED",
              "ntt": "CHORD",
              "bassOn": false,
              "chordRootUpperLimit": 7,
              "noteLowLimit": 0,
              "noteHighLimit": 127,
              "rtr": "PITCH_SHIFT"
            },
            "ctb2High": null
          },
          "notes": [
            {
              "pitch": 48,
              "velocity": 48,
              "position": 0,
              "duration": 0.9791666666666666
            },
            {
              "pitch": 53,
              "velocity": 69,
              "position": 0,
              "duration": 0.9791666666666666
            },
            {
              "pitch": 58,
              "velocity": 77,
              "position": 0,
              "duration": 0.9791666666666666
            },
            {
              "pitch": 63,
              "velocity": 73,
              "position": 0.020833333333333332,
              "duration": 0.9583333333333334
            },
            {
              "pitch": 48,
              "velocity": 27,
              "position": 1,
              "duration": 0.9791666666666666
            },
            {
              "pitch": 53,
              "velocity": 56,
              "position": 1,
              "duration": 0.9791666666666666
            },
            {
              "pitch": 58,
              "velocity": 75,
              "position": 1,
              "duration": 0.9791666666666666
            },
            {
              "pitch": 63,
              "velocity": 46,
              "position": 1.0208333333333333,
              "duration": 0.9583333333333334
            },
            {
              "pitch": 48,
              "velocity": 48,
              "position": 2,
              "duration": 0.4791666666666667
            },
            {
              "pitch": 53,
              "velocity": 65,
              "position": 2,
              "duration": 0.4791666666666667
            },
            {
              "pitch": 58,
              "velocity": 73,
              "position": 2,
              "duration": 0.4791666666666667
            },
            {
              "pitch": 63,
              "velocity": 69,
              "position": 2.0208333333333335,
              "duration": 0.46875
            },
            {
              "pitch": 58,
              "velocity": 46,
              "position": 2.5,
              "duration": 0.4791666666666667
            },
            {
              "pitch": 63,
              "velocity": 42,
              "position": 2.5104166666666665,
              "duration": 0.46875
            },
            {
              "pitch": 48,
              "velocity": 27,
              "position": 2.5104166666666665,
              "duration": 0.4791666666666667
            },
            {
              "pitch": 53,
              "velocity": 39,
              "position": 2.5104166666666665,
              "duration": 0.4791666666666667
            },
            {
              "pitch": 48,
              "velocity": 37,
              "position": 3,
              "duration": 0.9791666666666666
            },
            {
              "pitch": 58,
              "velocity": 63,
              "position": 3,
              "duration": 0.9791666666666666
            },
            {
              "pitch": 63,
              "velocity": 58,
              "position": 3.0208333333333335,
              "duration": 0.9583333333333334
            },
            {
              "pitch": 53,
              "velocity": 56,
              "position": 3,
              "duration": 1.975
            },
            {
              "pitch": 48,
              "velocity": 27,
              "position": 4,
              "duration": 0.9791666666666666
            },
            {
              "pitch": 58,
              "velocity": 56,
              "position": 4,
              "duration": 0.9791666666666666
            },
            {
              "pitch": 63,
              "velocity": 52,
              "position": 4.020833333333333,
              "duration": 0.96875
            },
            {
              "pitch": 48,
              "velocity": 27,
              "position": 5,
              "duration": 0.9791666666666666
            },
            {
              "pitch": 53,
              "velocity": 46,
              "position": 5,
              "duration": 0.9791666666666666
            },
            {
              "pitch": 58,
              "velocity": 63,
              "position": 5,
              "duration": 0.9791666666666666
            },
            {
              "pitch": 63,
              "velocity": 48,
              "position": 5.020833333333333,
              "duration": 0.96875
            },
            {
              "pitch": 48,
              "velocity": 48,
              "position": 6,
              "duration": 0.4791666666666667
            },
            {
              "pitch": 53,
              "velocity": 65,
              "position": 6,
              "duration": 0.4791666666666667
            },
            {
              "pitch": 58,
              "velocity": 73,
              "position": 6,
              "duration": 0.4791666666666667
            },
            {
              "pitch": 63,
              "velocity": 69,
              "position": 6.020833333333333,
              "duration": 0.4791666666666667
            },
            {
              "pitch": 58,
              "velocity": 52,
              "position": 6.5,
              "duration": 0.4791666666666667
            },
            {
              "pitch": 48,
              "velocity": 27,
              "position": 6.510416666666667,
              "duration": 0.4791666666666667
            },
            {
              "pitch": 53,
              "velocity": 46,
              "position": 6.510416666666667,
              "duration": 0.4791666666666667
            },
            {
              "pitch": 63,
              "velocity": 48,
              "position": 6.510416666666667,
              "duration": 0.4791666666666667
            },
            {
              "pitch": 48,
              "velocity": 27,
              "position": 7,
              "duration": 0.9791666666666666
            },
            {
              "pitch": 53,
              "velocity": 67,
              "position": 7,
              "duration": 0.9791666666666666
            },
            {
              "pitch": 58,
              "velocity": 52,
              "position": 7,
              "duration": 0.9791666666666666
            },
            {
              "pitch": 63,
              "velocity": 48,
              "position": 7.020833333333333,
              "duration": 0.9645833333333333
            }
          ]
        },
        "4": {
          "ctab": {
            "srcChannel": 4,
            "name": "Strums",
            "accType": "CHORD2",
            "editable": false,
            "mutedNotes": [],
            "mutedChords": [],
            "autoStart": false,
            "sourceChordNote": 0,
            "sourceChordType": "min7(11)",
            "ctb2Low": null,
            "ctb2Main": {
              "ntr": "ROOT_FIXED",
              "ntt": "BYPASS",
              "bassOn": false,
              "chordRootUpperLimit": 7,
              "noteLowLimit": 96,
              "noteHighLimit": 127,
              "rtr": "PITCH_SHIFT"
            },
            "ctb2High": null
          },
          "notes": []
        },
        "7": {
          "ctab": {
            "srcChannel": 7,
            "name": "CC_Crash",
            "accType": "RHYTHM",
            "editable": false,
            "mutedNotes": [],
            "mutedChords": [
              "1+2+5",
              "sus4",
              "1+5",
              "1+8",
              "7aug",
              "Maj7aug",
              "7(#9)",
              "7(b13)",
              "7(b9)",
              "7(13)",
              "7#11",
              "7(9)",
              "7b5",
              "7sus4",
              "7th",
              "dim7",
              "dim",
              "minMaj7(9)",
              "minMaj7",
              "min7(11)",
              "min7(9)",
              "min(9)",
              "m7b5",
              "min7",
              "min6",
              "min",
              "aug",
              "Maj6(9)",
              "Maj7(9)",
              "Maj(9)",
              "Maj7#11",
              "Maj7",
              "Maj6",
              "Maj"
            ],
            "autoStart": true,
            "sourceChordNote": 0,
            "sourceChordType": "Maj",
            "ctb2Low": null,
            "ctb2Main": {
              "ntr": "ROOT_FIXED",
              "ntt": "BYPASS",
              "bassOn": false,
              "chordRootUpperLimit": 0,
              "noteLowLimit": 0,
              "noteHighLimit": 127,
              "rtr": "RETRIGGER"
            },
            "ctb2High": null
          },
          "notes": []
        },
        "8": {
          "ctab": {
            "srcChannel": 8,
            "name": "AddDrums",
            "accType": "SUBRHYTHM",
            "editable": false,
            "mutedNotes": [],
            "mutedChords": [],
            "autoStart": true,
            "sourceChordNote": 0,
            "sourceChordType": "Maj7",
            "ctb2Low": null,
            "ctb2Main": {
              "ntr": "ROOT_FIXED",
              "ntt": "BYPASS",
              "bassOn": false,
              "chordRootUpperLimit": 6,
              "noteLowLimit": 0,
              "noteHighLimit": 127,
              "rtr": "PITCH_SHIFT"
            },
            "ctb2High": null
          },
          "notes": [
            {
              "pitch": 54,
              "velocity": 46,
              "position": 0,
              "duration": 0.041666666666666664
            },
            {
              "pitch": 54,
              "velocity": 18,
              "position": 0.5,
              "duration": 0.041666666666666664
            },
            {
              "pitch": 54,
              "velocity": 84,
              "position": 1,
              "duration": 0.041666666666666664
            },
            {
              "pitch": 62,
              "velocity": 120,
              "position": 1,
              "duration": 0.041666666666666664
            },
            {
              "pitch": 54,
              "velocity": 18,
              "position": 1.5,
              "duration": 0.041666666666666664
            },
            {
              "pitch": 63,
              "velocity": 71,
              "position": 1.5,
              "duration": 0.041666666666666664
            },
            {
              "pitch": 54,
              "velocity": 46,
              "position": 2,
              "duration": 0.041666666666666664
            },
            {
              "pitch": 54,
              "velocity": 18,
              "position": 2.5,
              "duration": 0.041666666666666664
            },
            {
              "pitch": 63,
              "velocity": 72,
              "position": 2.5,
              "duration": 0.041666666666666664
            },
            {
              "pitch": 54,
              "velocity": 84,
              "position": 3,
              "duration": 0.041666666666666664
            },
            {
              "pitch": 64,
              "velocity": 64,
              "position": 3,
              "duration": 0.041666666666666664
            },
            {
              "pitch": 54,
              "velocity": 18,
              "position": 3.5,
              "duration": 0.041666666666666664
            },
            {
              "pitch": 64,
              "velocity": 70,
              "position": 3.5,
              "duration": 0.041666666666666664
            },
            {
              "pitch": 54,
              "velocity": 46,
              "position": 4,
              "duration": 0.041666666666666664
            },
            {
              "pitch": 54,
              "velocity": 18,
              "position": 4.5,
              "duration": 0.041666666666666664
            },
            {
              "pitch": 54,
              "velocity": 84,
              "position": 5,
              "duration": 0.041666666666666664
            },
            {
              "pitch": 62,
              "velocity": 120,
              "position": 5,
              "duration": 0.041666666666666664
            },
            {
              "pitch": 54,
              "velocity": 18,
              "position": 5.5,
              "duration": 0.041666666666666664
            },
            {
              "pitch": 63,
              "velocity": 71,
              "position": 5.5,
              "duration": 0.041666666666666664
            },
            {
              "pitch": 54,
              "velocity": 46,
              "position": 6,
              "duration": 0.041666666666666664
            },
            {
              "pitch": 54,
              "velocity": 18,
              "position": 6.5,
              "duration": 0.041666666666666664
            },
            {
              "pitch": 63,
              "velocity": 72,
              "position": 6.5,
              "duration": 0.041666666666666664
            },
            {
              "pitch": 54,
              "velocity": 84,
              "position": 7,
              "duration": 0.041666666666666664
            },
            {
              "pitch": 64,
              "velocity": 60,
              "position": 7,
              "duration": 0.041666666666666664
            },
            {
              "pitch": 54,
              "velocity": 18,
              "position": 7.5,
              "duration": 0.041666666666666664
            },
            {
              "pitch": 64,
              "velocity": 70,
              "position": 7.5,
              "duration": 0.041666666666666664
            }
          ]
        },
        "9": {
          "ctab": {
            "srcChannel": 9,
            "name": "Drums",
            "accType": "RHYTHM",
            "editable": false,
            "mutedNotes": [],
            "mutedChords": [],
            "autoStart": true,
            "sourceChordNote": 0,
            "sourceChordType": "Maj7",
            "ctb2Low": null,
            "ctb2Main": {
              "ntr": "ROOT_FIXED",
              "ntt": "BYPASS",
              "bassOn": false,
              "chordRootUpperLimit": 6,
              "noteLowLimit": 0,
              "noteHighLimit": 127,
              "rtr": "PITCH_SHIFT"
            },
            "ctb2High": null
          },
          "notes": [
            {
              "pitch": 51,
              "velocity": 84,
              "position": 0,
              "duration": 0.03125
            },
            {
              "pitch": 36,
              "velocity": 92,
              "position": 0,
              "duration": 0.041666666666666664
            },
            {
              "pitch": 51,
              "velocity": 22,
              "position": 0.5,
              "duration": 0.03125
            },
            {
              "pitch": 44,
              "velocity": 65,
              "position": 1,
              "duration": 0.03125
            },
            {
              "pitch": 51,
              "velocity": 84,
              "position": 1,
              "duration": 0.03125
            },
            {
              "pitch": 38,
              "velocity": 88,
              "position": 1,
              "duration": 0.041666666666666664
            },
            {
              "pitch": 51,
              "velocity": 24,
              "position": 1.5,
              "duration": 0.03125
            },
            {
              "pitch": 36,
              "velocity": 68,
              "position": 1.5,
              "duration": 0.041666666666666664
            },
            {
              "pitch": 51,
              "velocity": 84,
              "position": 2,
              "duration": 0.03125
            },
            {
              "pitch": 36,
              "velocity": 92,
              "position": 2,
              "duration": 0.041666666666666664
            },
            {
              "pitch": 51,
              "velocity": 25,
              "position": 2.5,
              "duration": 0.03125
            },
            {
              "pitch": 44,
              "velocity": 65,
              "position": 3,
              "duration": 0.03125
            },
            {
              "pitch": 51,
              "velocity": 84,
              "position": 3,
              "duration": 0.03125
            },
            {
              "pitch": 38,
              "velocity": 88,
              "position": 3,
              "duration": 0.041666666666666664
            },
            {
              "pitch": 51,
              "velocity": 24,
              "position": 3.5,
              "duration": 0.03125
            },
            {
              "pitch": 51,
              "velocity": 84,
              "position": 4,
              "duration": 0.03125
            },
            {
              "pitch": 36,
              "velocity": 92,
              "position": 4,
              "duration": 0.041666666666666664
            },
            {
              "pitch": 51,
              "velocity": 23,
              "position": 4.5,
              "duration": 0.03125
            },
            {
              "pitch": 44,
              "velocity": 65,
              "position": 5,
              "duration": 0.03125
            },
            {
              "pitch": 51,
              "velocity": 84,
              "position": 5,
              "duration": 0.03125
            },
            {
              "pitch": 38,
              "velocity": 88,
              "position": 5,
              "duration": 0.041666666666666664
            },
            {
              "pitch": 51,
              "velocity": 24,
              "position": 5.5,
              "duration": 0.03125
            },
            {
              "pitch": 36,
              "velocity": 68,
              "position": 5.5,
              "duration": 0.041666666666666664
            },
            {
              "pitch": 51,
              "velocity": 84,
              "position": 6,
              "duration": 0.03125
            },
            {
              "pitch": 36,
              "velocity": 92,
              "position": 6,
              "duration": 0.041666666666666664
            },
            {
              "pitch": 51,
              "velocity": 24,
              "position": 6.5,
              "duration": 0.03125
            },
            {
              "pitch": 44,
              "velocity": 65,
              "position": 7,
              "duration": 0.03125
            },
            {
              "pitch": 51,
              "velocity": 84,
              "position": 7,
              "duration": 0.03125
            },
            {
              "pitch": 38,
              "velocity": 88,
              "position": 7,
              "duration": 0.041666666666666664
            },
            {
              "pitch": 51,
              "velocity": 24,
              "position": 7.5,
              "duration": 0.03125
            }
          ]
        },
        "10": {
          "ctab": {
            "srcChannel": 10,
            "name": "Bass",
            "accType": "BASS",
            "editable": false,
            "mutedNotes": [],
            "mutedChords": [],
            "autoStart": false,
            "sourceChordNote": 0,
            "sourceChordType": "Maj7",
            "ctb2Low": null,
            "ctb2Main": {
              "ntr": "ROOT_TRANSPOSITION",
              "ntt": "MELODY",
              "bassOn": true,
              "chordRootUpperLimit": 3,
              "noteLowLimit": 28,
              "noteHighLimit": 127,
              "rtr": "PITCH_SHIFT_TO_ROOT"
            },
            "ctb2High": null
          },
          "notes": [
            {
              "pitch": 24,
              "velocity": 83,
              "position": 0,
              "duration": 1.125
            },
            {
              "pitch": 24,
              "velocity": 83,
              "position": 1.5,
              "duration": 0.4895833333333333
            },
            {
              "pitch": 31,
              "velocity": 83,
              "position": 2,
              "duration": 1.125
            },
            {
              "pitch": 31,
              "velocity": 83,
              "position": 3.5,
              "duration": 0.4895833333333333
            },
            {
              "pitch": 24,
              "velocity": 83,
              "position": 4,
              "duration": 1.125
            },
            {
              "pitch": 24,
              "velocity": 83,
              "position": 5.5,
              "duration": 0.4895833333333333
            },
            {
              "pitch": 31,
              "velocity": 83,
              "position": 6,
              "duration": 1.125
            },
            {
              "pitch": 31,
              "velocity": 83,
              "position": 7.5,
              "duration": 0.4895833333333333
            }
          ]
        },
        "11": {
          "ctab": {
            "srcChannel": 11,
            "name": "Chord1",
            "accType": "CHORD1",
            "editable": false,
            "mutedNotes": [],
            "mutedChords": [],
            "autoStart": false,
            "sourceChordNote": 0,
            "sourceChordType": "Maj7",
            "ctb2Low": null,
            "ctb2Main": {
              "ntr": "ROOT_FIXED",
              "ntt": "CHORD",
              "bassOn": false,
              "chordRootUpperLimit": 7,
              "noteLowLimit": 0,
              "noteHighLimit": 127,
              "rtr": "PITCH_SHIFT"
            },
            "ctb2High": null
          },
          "notes": [
            {
              "pitch": 59,
              "velocity": 66,
              "position": 0.010416666666666666,
              "duration": 0.4791666666666667
            },
            {
              "pitch": 64,
              "velocity": 72,
              "position": 0.020833333333333332,
              "duration": 0.46875
            },
            {
              "pitch": 55,
              "velocity": 65,
              "position": 0,
              "duration": 0.5104166666666666
            },
            {
              "pitch": 55,
              "velocity": 56,
              "position": 0.5208333333333334,
              "duration": 0.46875
            },
            {
              "pitch": 59,
              "velocity": 54,
              "position": 0.5104166666666666,
              "duration": 0.4791666666666667
            },
            {
              "pitch": 64,
              "velocity": 56,
              "position": 0.5,
              "duration": 0.5104166666666666
            },
            {
              "pitch": 59,
              "velocity": 94,
              "position": 1.0104166666666667,
              "duration": 0.052083333333333336
            },
            {
              "pitch": 55,
              "velocity": 94,
              "position": 1,
              "duration": 0.07291666666666667
            },
            {
              "pitch": 64,
              "velocity": 97,
              "position": 1.0208333333333333,
              "duration": 0.052083333333333336
            },
            {
              "pitch": 55,
              "velocity": 60,
              "position": 1.5208333333333333,
              "duration": 0.46875
            },
            {
              "pitch": 59,
              "velocity": 56,
              "position": 1.5104166666666667,
              "duration": 0.4791666666666667
            },
            {
              "pitch": 64,
              "velocity": 58,
              "position": 1.5,
              "duration": 0.5104166666666666
            },
            {
              "pitch": 59,
              "velocity": 70,
              "position": 2.0104166666666665,
              "duration": 0.4791666666666667
            },
            {
              "pitch": 64,
              "velocity": 73,
              "position": 2.0208333333333335,
              "duration": 0.46875
            },
            {
              "pitch": 55,
              "velocity": 65,
              "position": 2,
              "duration": 0.5104166666666666
            },
            {
              "pitch": 55,
              "velocity": 54,
              "position": 2.5208333333333335,
              "duration": 0.46875
            },
            {
              "pitch": 59,
              "velocity": 53,
              "position": 2.5104166666666665,
              "duration": 0.4791666666666667
            },
            {
              "pitch": 64,
              "velocity": 56,
              "position": 2.5,
              "duration": 0.5104166666666666
            },
            {
              "pitch": 59,
              "velocity": 94,
              "position": 3.0104166666666665,
              "duration": 0.052083333333333336
            },
            {
              "pitch": 55,
              "velocity": 92,
              "position": 3,
              "duration": 0.07291666666666667
            },
            {
              "pitch": 64,
              "velocity": 97,
              "position": 3.0208333333333335,
              "duration": 0.052083333333333336
            },
            {
              "pitch": 55,
              "velocity": 60,
              "position": 3.5208333333333335,
              "duration": 0.46875
            },
            {
              "pitch": 59,
              "velocity": 58,
              "position": 3.5104166666666665,
              "duration": 0.4791666666666667
            },
            {
              "pitch": 64,
              "velocity": 58,
              "position": 3.5,
              "duration": 0.5104166666666666
            },
            {
              "pitch": 59,
              "velocity": 70,
              "position": 4.010416666666667,
              "duration": 0.4791666666666667
            },
            {
              "pitch": 64,
              "velocity": 73,
              "position": 4.020833333333333,
              "duration": 0.46875
            },
            {
              "pitch": 55,
              "velocity": 65,
              "position": 4,
              "duration": 0.5104166666666666
            },
            {
              "pitch": 55,
              "velocity": 56,
              "position": 4.520833333333333,
              "duration": 0.46875
            },
            {
              "pitch": 59,
              "velocity": 53,
              "position": 4.510416666666667,
              "duration": 0.4791666666666667
            },
            {
              "pitch": 64,
              "velocity": 56,
              "position": 4.5,
              "duration": 0.5104166666666666
            },
            {
              "pitch": 59,
              "velocity": 94,
              "position": 5.010416666666667,
              "duration": 0.052083333333333336
            },
            {
              "pitch": 55,
              "velocity": 92,
              "position": 5,
              "duration": 0.07291666666666667
            },
            {
              "pitch": 64,
              "velocity": 97,
              "position": 5.020833333333333,
              "duration": 0.052083333333333336
            },
            {
              "pitch": 55,
              "velocity": 60,
              "position": 5.520833333333333,
              "duration": 0.46875
            },
            {
              "pitch": 59,
              "velocity": 58,
              "position": 5.510416666666667,
              "duration": 0.4791666666666667
            },
            {
              "pitch": 64,
              "velocity": 58,
              "position": 5.5,
              "duration": 0.5104166666666666
            },
            {
              "pitch": 59,
              "velocity": 71,
              "position": 6.010416666666667,
              "duration": 0.4791666666666667
            },
            {
              "pitch": 64,
              "velocity": 73,
              "position": 6.020833333333333,
              "duration": 0.46875
            },
            {
              "pitch": 55,
              "velocity": 66,
              "position": 6,
              "duration": 0.5104166666666666
            },
            {
              "pitch": 55,
              "velocity": 54,
              "position": 6.520833333333333,
              "duration": 0.46875
            },
            {
              "pitch": 59,
              "velocity": 53,
              "position": 6.510416666666667,
              "duration": 0.4791666666666667
            },
            {
              "pitch": 64,
              "velocity": 56,
              "position": 6.5,
              "duration": 0.5104166666666666
            },
            {
              "pitch": 59,
              "velocity": 94,
              "position": 7.010416666666667,
              "duration": 0.052083333333333336
            },
            {
              "pitch": 55,
              "velocity": 94,
              "position": 7,
              "duration": 0.07291666666666667
            },
            {
              "pitch": 64,
              "velocity": 97,
              "position": 7.020833333333333,
              "duration": 0.052083333333333336
            },
            {
              "pitch": 59,
              "velocity": 58,
              "position": 7.510416666666667,
              "duration": 0.46875
            },
            {
              "pitch": 55,
              "velocity": 60,
              "position": 7.520833333333333,
              "duration": 0.46875
            },
            {
              "pitch": 64,
              "velocity": 58,
              "position": 7.5,
              "duration": 0.4895833333333333
            }
          ]
        },
        "13": {
          "ctab": {
            "srcChannel": 13,
            "name": "Pad",
            "accType": "PAD",
            "editable": false,
            "mutedNotes": [],
            "mutedChords": [],
            "autoStart": false,
            "sourceChordNote": 0,
            "sourceChordType": "Maj7",
            "ctb2Low": null,
            "ctb2Main": {
              "ntr": "ROOT_FIXED",
              "ntt": "CHORD",
              "bassOn": false,
              "chordRootUpperLimit": 7,
              "noteLowLimit": 0,
              "noteHighLimit": 127,
              "rtr": "PITCH_SHIFT"
            },
            "ctb2High": null
          },
          "notes": [
            {
              "pitch": 64,
              "velocity": 52,
              "position": 0,
              "duration": 7.989583333333333
            },
            {
              "pitch": 67,
              "velocity": 52,
              "position": 0,
              "duration": 7.989583333333333
            },
            {
              "pitch": 71,
              "velocity": 52,
              "position": 0,
              "duration": 7.989583333333333
            }
          ]
        },
        "14": {
          "ctab": {
            "srcChannel": 14,
            "name": "PadRoot",
            "accType": "PAD",
            "editable": false,
            "mutedNotes": [],
            "mutedChords": [
              "1+2+5",
              "sus4",
              "1+5",
              "1+8",
              "Maj7aug",
              "dim",
              "minMaj7(9)",
              "minMaj7",
              "min6",
              "min",
              "aug",
              "Maj7(9)",
              "Maj7#11",
              "Maj7",
              "Maj6",
              "Maj"
            ],
            "autoStart": false,
            "sourceChordNote": 0,
            "sourceChordType": "Maj7",
            "ctb2Low": null,
            "ctb2Main": {
              "ntr": "ROOT_TRANSPOSITION",
              "ntt": "CHORD",
              "bassOn": false,
              "chordRootUpperLimit": 2,
              "noteLowLimit": 0,
              "noteHighLimit": 127,
              "rtr": "PITCH_SHIFT"
            },
            "ctb2High": null
          },
          "notes": [
            {
              "pitch": 72,
              "velocity": 47,
              "position": 0,
              "duration": 7.989583333333333
            }
          ]
        }
      }
    },
    "Fill_In_DD": {
      "type": "Fill_In_DD",
      "sizeInBeats": 4,
      "channels": {
        "1": {
          "ctab": {
            "srcChannel": 1,
            "name": "E-Pia",
            "accType": "PHRASE1",
            "editable": false,
            "mutedNotes": [],
            "mutedChords": [],
            "autoStart": false,
            "sourceChordNote": 0,
            "sourceChordType": "Maj7",
            "ctb2Low": null,
            "ctb2Main": {
              "ntr": "ROOT_FIXED",
              "ntt": "CHORD",
              "bassOn": false,
              "chordRootUpperLimit": 7,
              "noteLowLimit": 0,
              "noteHighLimit": 127,
              "rtr": "PITCH_SHIFT"
            },
            "ctb2High": null
          },
          "notes": []
        },
        "2": {
          "ctab": {
            "srcChannel": 2,
            "name": "A-Gtr",
            "accType": "CHORD2",
            "editable": false,
            "mutedNotes": [],
            "mutedChords": [],
            "autoStart": false,
            "sourceChordNote": 0,
            "sourceChordType": "min7(11)",
            "ctb2Low": null,
            "ctb2Main": {
              "ntr": "ROOT_FIXED",
              "ntt": "CHORD",
              "bassOn": false,
              "chordRootUpperLimit": 7,
              "noteLowLimit": 0,
              "noteHighLimit": 127,
              "rtr": "PITCH_SHIFT"
            },
            "ctb2High": null
          },
          "notes": [
            {
              "pitch": 48,
              "velocity": 37,
              "position": 0,
              "duration": 0.9791666666666666
            },
            {
              "pitch": 53,
              "velocity": 46,
              "position": 0,
              "duration": 0.9791666666666666
            },
            {
              "pitch": 58,
              "velocity": 52,
              "position": 0,
              "duration": 0.9791666666666666
            },
            {
              "pitch": 63,
              "velocity": 52,
              "position": 0.010416666666666666,
              "duration": 0.96875
            },
            {
              "pitch": 48,
              "velocity": 37,
              "position": 1,
              "duration": 0.9791666666666666
            },
            {
              "pitch": 53,
              "velocity": 46,
              "position": 1,
              "duration": 0.9791666666666666
            },
            {
              "pitch": 58,
              "velocity": 52,
              "position": 1,
              "duration": 0.9791666666666666
            },
            {
              "pitch": 63,
              "velocity": 52,
              "position": 1.0104166666666667,
              "duration": 0.96875
            },
            {
              "pitch": 48,
              "velocity": 37,
              "position": 2,
              "duration": 0.4791666666666667
            },
            {
              "pitch": 53,
              "velocity": 46,
              "position": 2,
              "duration": 0.4791666666666667
            },
            {
              "pitch": 58,
              "velocity": 52,
              "position": 2,
              "duration": 0.4791666666666667
            },
            {
              "pitch": 63,
              "velocity": 52,
              "position": 2.0104166666666665,
              "duration": 0.4791666666666667
            },
            {
              "pitch": 58,
              "velocity": 52,
              "position": 2.5,
              "duration": 0.4791666666666667
            },
            {
              "pitch": 63,
              "velocity": 52,
              "position": 2.5,
              "duration": 0.4791666666666667
            },
            {
              "pitch": 48,
              "velocity": 37,
              "position": 2.5104166666666665,
              "duration": 0.4791666666666667
            },
            {
              "pitch": 53,
              "velocity": 46,
              "position": 2.5104166666666665,
              "duration": 0.4791666666666667
            },
            {
              "pitch": 48,
              "velocity": 37,
              "position": 3,
              "duration": 0.9791666666666666
            },
            {
              "pitch": 53,
              "velocity": 46,
              "position": 3,
              "duration": 0.9791666666666666
            },
            {
              "pitch": 58,
              "velocity": 52,
              "position": 3,
              "duration": 0.9791666666666666
            },
            {
              "pitch": 63,
              "velocity": 52,
              "position": 3.0104166666666665,
              "duration": 0.96875
            }
          ]
        },
        "4": {
          "ctab": {
            "srcChannel": 4,
            "name": "Strums",
            "accType": "CHORD2",
            "editable": false,
            "mutedNotes": [],
            "mutedChords": [],
            "autoStart": false,
            "sourceChordNote": 0,
            "sourceChordType": "min7(11)",
            "ctb2Low": null,
            "ctb2Main": {
              "ntr": "ROOT_FIXED",
              "ntt": "BYPASS",
              "bassOn": false,
              "chordRootUpperLimit": 7,
              "noteLowLimit": 96,
              "noteHighLimit": 127,
              "rtr": "PITCH_SHIFT"
            },
            "ctb2High": null
          },
          "notes": []
        },
        "7": {
          "ctab": {
            "srcChannel": 7,
            "name": "CC_Crash",
            "accType": "RHYTHM",
            "editable": false,
            "mutedNotes": [],
            "mutedChords": [
              "1+2+5",
              "sus4",
              "1+5",
              "1+8",
              "7aug",
              "Maj7aug",
              "7(#9)",
              "7(b13)",
              "7(b9)",
              "7(13)",
              "7#11",
              "7(9)",
              "7b5",
              "7sus4",
              "7th",
              "dim7",
              "dim",
              "minMaj7(9)",
              "minMaj7",
              "min7(11)",
              "min7(9)",
              "min(9)",
              "m7b5",
              "min7",
              "min6",
              "min",
              "aug",
              "Maj6(9)",
              "Maj7(9)",
              "Maj(9)",
              "Maj7#11",
              "Maj7",
              "Maj6",
              "Maj"
            ],
            "autoStart": true,
            "sourceChordNote": 0,
            "sourceChordType": "Maj",
            "ctb2Low": null,
            "ctb2Main": {
              "ntr": "ROOT_FIXED",
              "ntt": "BYPASS",
              "bassOn": false,
              "chordRootUpperLimit": 0,
              "noteLowLimit": 0,
              "noteHighLimit": 127,
              "rtr": "RETRIGGER"
            },
            "ctb2High": null
          },
          "notes": []
        },
        "8": {
          "ctab": {
            "srcChannel": 8,
            "name": "AddDrums",
            "accType": "SUBRHYTHM",
            "editable": false,
            "mutedNotes": [],
            "mutedChords": [],
            "autoStart": true,
            "sourceChordNote": 0,
            "sourceChordType": "Maj7",
            "ctb2Low": null,
            "ctb2Main": {
              "ntr": "ROOT_FIXED",
              "ntt": "BYPASS",
              "bassOn": false,
              "chordRootUpperLimit": 6,
              "noteLowLimit": 0,
              "noteHighLimit": 127,
              "rtr": "PITCH_SHIFT"
            },
            "ctb2High": null
          },
          "notes": [
            {
              "pitch": 54,
              "velocity": 46,
              "position": 0,
              "duration": 0.041666666666666664
            },
            {
              "pitch": 54,
              "velocity": 18,
              "position": 0.5,
              "duration": 0.041666666666666664
            },
            {
              "pitch": 54,
              "velocity": 84,
              "position": 1,
              "duration": 0.041666666666666664
            },
            {
              "pitch": 62,
              "velocity": 120,
              "position": 1,
              "duration": 0.041666666666666664
            },
            {
              "pitch": 54,
              "velocity": 18,
              "position": 1.5,
              "duration": 0.041666666666666664
            },
            {
              "pitch": 63,
              "velocity": 71,
              "position": 1.5,
              "duration": 0.041666666666666664
            },
            {
              "pitch": 54,
              "velocity": 46,
              "position": 2,
              "duration": 0.041666666666666664
            },
            {
              "pitch": 54,
              "velocity": 18,
              "position": 2.5,
              "duration": 0.041666666666666664
            },
            {
              "pitch": 63,
              "velocity": 72,
              "position": 2.5,
              "duration": 0.041666666666666664
            },
            {
              "pitch": 54,
              "velocity": 84,
              "position": 3,
              "duration": 0.041666666666666664
            },
            {
              "pitch": 64,
              "velocity": 64,
              "position": 3,
              "duration": 0.041666666666666664
            },
            {
              "pitch": 54,
              "velocity": 18,
              "position": 3.5,
              "duration": 0.041666666666666664
            },
            {
              "pitch": 64,
              "velocity": 70,
              "position": 3.5,
              "duration": 0.041666666666666664
            }
          ]
        },
        "9": {
          "ctab": {
            "srcChannel": 9,
            "name": "Drums",
            "accType": "RHYTHM",
            "editable": false,
            "mutedNotes": [],
            "mutedChords": [],
            "autoStart": true,
            "sourceChordNote": 0,
            "sourceChordType": "Maj7",
            "ctb2Low": null,
            "ctb2Main": {
              "ntr": "ROOT_FIXED",
              "ntt": "BYPASS",
              "bassOn": false,
              "chordRootUpperLimit": 6,
              "noteLowLimit": 0,
              "noteHighLimit": 127,
              "rtr": "PITCH_SHIFT"
            },
            "ctb2High": null
          },
          "notes": [
            {
              "pitch": 51,
              "velocity": 84,
              "position": 0,
              "duration": 0.03125
            },
            {
              "pitch": 36,
              "velocity": 92,
              "position": 0,
              "duration": 0.041666666666666664
            },
            {
              "pitch": 51,
              "velocity": 22,
              "position": 0.5,
              "duration": 0.03125
            },
            {
              "pitch": 38,
              "velocity": 82,
              "position": 0.5,
              "duration": 0.041666666666666664
            },
            {
              "pitch": 44,
              "velocity": 65,
              "position": 1,
              "duration": 0.03125
            },
            {
              "pitch": 51,
              "velocity": 84,
              "position": 1,
              "duration": 0.03125
            },
            {
              "pitch": 38,
              "velocity": 88,
              "position": 1,
              "duration": 0.041666666666666664
            },
            {
              "pitch": 51,
              "velocity": 26,
              "position": 1.5,
              "duration": 0.03125
            },
            {
              "pitch": 36,
              "velocity": 68,
              "position": 1.5,
              "duration": 0.041666666666666664
            },
            {
              "pitch": 48,
              "velocity": 65,
              "position": 1.5,
              "duration": 0.041666666666666664
            },
            {
              "pitch": 44,
              "velocity": 19,
              "position": 2,
              "duration": 0.03125
            },
            {
              "pitch": 51,
              "velocity": 84,
              "position": 2,
              "duration": 0.03125
            },
            {
              "pitch": 36,
              "velocity": 92,
              "position": 2,
              "duration": 0.041666666666666664
            },
            {
              "pitch": 51,
              "velocity": 26,
              "position": 2.5,
              "duration": 0.03125
            },
            {
              "pitch": 38,
              "velocity": 71,
              "position": 2.75,
              "duration": 0.041666666666666664
            },
            {
              "pitch": 44,
              "velocity": 65,
              "position": 3,
              "duration": 0.03125
            },
            {
              "pitch": 51,
              "velocity": 84,
              "position": 3,
              "duration": 0.03125
            },
            {
              "pitch": 38,
              "velocity": 78,
              "position": 3,
              "duration": 0.041666666666666664
            },
            {
              "pitch": 38,
              "velocity": 57,
              "position": 3.25,
              "duration": 0.041666666666666664
            },
            {
              "pitch": 43,
              "velocity": 65,
              "position": 3.5,
              "duration": 0.020833333333333332
            },
            {
              "pitch": 36,
              "velocity": 68,
              "position": 3.5,
              "duration": 0.041666666666666664
            },
            {
              "pitch": 49,
              "velocity": 54,
              "position": 3.9895833333333335,
              "duration": 0.010416666666666666
            }
          ]
        },
        "10": {
          "ctab": {
            "srcChannel": 10,
            "name": "Bass",
            "accType": "BASS",
            "editable": false,
            "mutedNotes": [],
            "mutedChords": [],
            "autoStart": false,
            "sourceChordNote": 0,
            "sourceChordType": "Maj7",
            "ctb2Low": null,
            "ctb2Main": {
              "ntr": "ROOT_TRANSPOSITION",
              "ntt": "MELODY",
              "bassOn": true,
              "chordRootUpperLimit": 3,
              "noteLowLimit": 28,
              "noteHighLimit": 127,
              "rtr": "PITCH_SHIFT_TO_ROOT"
            },
            "ctb2High": null
          },
          "notes": [
            {
              "pitch": 24,
              "velocity": 83,
              "position": 0,
              "duration": 1.125
            },
            {
              "pitch": 24,
              "velocity": 83,
              "position": 1.5,
              "duration": 0.4895833333333333
            },
            {
              "pitch": 31,
              "velocity": 83,
              "position": 2,
              "duration": 1.125
            },
            {
              "pitch": 31,
              "velocity": 83,
              "position": 3.5,
              "duration": 0.4895833333333333
            }
          ]
        },
        "11": {
          "ctab": {
            "srcChannel": 11,
            "name": "Chord1",
            "accType": "CHORD1",
            "editable": false,
            "mutedNotes": [],
            "mutedChords": [],
            "autoStart": false,
            "sourceChordNote": 0,
            "sourceChordType": "Maj7",
            "ctb2Low": null,
            "ctb2Main": {
              "ntr": "ROOT_FIXED",
              "ntt": "CHORD",
              "bassOn": false,
              "chordRootUpperLimit": 7,
              "noteLowLimit": 0,
              "noteHighLimit": 127,
              "rtr": "PITCH_SHIFT"
            },
            "ctb2High": null
          },
          "notes": [
            {
              "pitch": 59,
              "velocity": 53,
              "position": 0.010416666666666666,
              "duration": 0.4791666666666667
            },
            {
              "pitch": 64,
              "velocity": 56,
              "position": 0.020833333333333332,
              "duration": 0.46875
            },
            {
              "pitch": 55,
              "velocity": 50,
              "position": 0,
              "duration": 0.5104166666666666
            },
            {
              "pitch": 55,
              "velocity": 42,
              "position": 0.5208333333333334,
              "duration": 0.46875
            },
            {
              "pitch": 59,
              "velocity": 40,
              "position": 0.5104166666666666,
              "duration": 0.4791666666666667
            },
            {
              "pitch": 64,
              "velocity": 41,
              "position": 0.5,
              "duration": 0.5104166666666666
            },
            {
              "pitch": 59,
              "velocity": 72,
              "position": 1.0104166666666667,
              "duration": 0.052083333333333336
            },
            {
              "pitch": 55,
              "velocity": 71,
              "position": 1,
              "duration": 0.07291666666666667
            },
            {
              "pitch": 64,
              "velocity": 75,
              "position": 1.0208333333333333,
              "duration": 0.052083333333333336
            },
            {
              "pitch": 55,
              "velocity": 44,
              "position": 1.5208333333333333,
              "duration": 0.46875
            },
            {
              "pitch": 59,
              "velocity": 41,
              "position": 1.5104166666666667,
              "duration": 0.4791666666666667
            },
            {
              "pitch": 64,
              "velocity": 41,
              "position": 1.5,
              "duration": 0.5104166666666666
            },
            {
              "pitch": 59,
              "velocity": 52,
              "position": 2.0104166666666665,
              "duration": 0.4791666666666667
            },
            {
              "pitch": 64,
              "velocity": 56,
              "position": 2.0208333333333335,
              "duration": 0.46875
            },
            {
              "pitch": 55,
              "velocity": 50,
              "position": 2,
              "duration": 0.5104166666666666
            },
            {
              "pitch": 55,
              "velocity": 42,
              "position": 2.5208333333333335,
              "duration": 0.46875
            },
            {
              "pitch": 59,
              "velocity": 41,
              "position": 2.5104166666666665,
              "duration": 0.4791666666666667
            },
            {
              "pitch": 64,
              "velocity": 41,
              "position": 2.5,
              "duration": 0.5104166666666666
            },
            {
              "pitch": 59,
              "velocity": 72,
              "position": 3.0104166666666665,
              "duration": 0.052083333333333336
            },
            {
              "pitch": 55,
              "velocity": 72,
              "position": 3,
              "duration": 0.07291666666666667
            },
            {
              "pitch": 64,
              "velocity": 75,
              "position": 3.0208333333333335,
              "duration": 0.052083333333333336
            },
            {
              "pitch": 59,
              "velocity": 41,
              "position": 3.5104166666666665,
              "duration": 0.46875
            },
            {
              "pitch": 55,
              "velocity": 44,
              "position": 3.5208333333333335,
              "duration": 0.46875
            },
            {
              "pitch": 64,
              "velocity": 41,
              "position": 3.5,
              "duration": 0.4895833333333333
            }
          ]
        },
        "13": {
          "ctab": {
            "srcChannel": 13,
            "name": "Pad",
            "accType": "PAD",
            "editable": false,
            "mutedNotes": [],
            "mutedChords": [],
            "autoStart": false,
            "sourceChordNote": 0,
            "sourceChordType": "Maj7",
            "ctb2Low": null,
            "ctb2Main": {
              "ntr": "ROOT_FIXED",
              "ntt": "CHORD",
              "bassOn": false,
              "chordRootUpperLimit": 7,
              "noteLowLimit": 0,
              "noteHighLimit": 127,
              "rtr": "PITCH_SHIFT"
            },
            "ctb2High": null
          },
          "notes": [
            {
              "pitch": 64,
              "velocity": 47,
              "position": 0,
              "duration": 3.9895833333333335
            },
            {
              "pitch": 67,
              "velocity": 47,
              "position": 0,
              "duration": 3.9895833333333335
            },
            {
              "pitch": 71,
              "velocity": 47,
              "position": 0,
              "duration": 3.9895833333333335
            }
          ]
        },
        "14": {
          "ctab": {
            "srcChannel": 14,
            "name": "PadRoot",
            "accType": "PAD",
            "editable": false,
            "mutedNotes": [],
            "mutedChords": [
              "1+2+5",
              "sus4",
              "1+5",
              "1+8",
              "Maj7aug",
              "dim",
              "minMaj7(9)",
              "minMaj7",
              "min6",
              "min",
              "aug",
              "Maj7(9)",
              "Maj7#11",
              "Maj7",
              "Maj6",
              "Maj"
            ],
            "autoStart": false,
            "sourceChordNote": 0,
            "sourceChordType": "Maj7",
            "ctb2Low": null,
            "ctb2Main": {
              "ntr": "ROOT_TRANSPOSITION",
              "ntt": "CHORD",
              "bassOn": false,
              "chordRootUpperLimit": 2,
              "noteLowLimit": 0,
              "noteHighLimit": 127,
              "rtr": "PITCH_SHIFT"
            },
            "ctb2High": null
          },
          "notes": [
            {
              "pitch": 72,
              "velocity": 47,
              "position": 0,
              "duration": 3.9895833333333335
            }
          ]
        }
      }
    },
    "Intro_B": {
      "type": "Intro_B",
      "sizeInBeats": 8,
      "channels": {
        "1": {
          "ctab": {
            "srcChannel": 1,
            "name": "E-Pia",
            "accType": "PHRASE1",
            "editable": false,
            "mutedNotes": [],
            "mutedChords": [],
            "autoStart": false,
            "sourceChordNote": 0,
            "sourceChordType": "Maj",
            "ctb2Low": null,
            "ctb2Main": {
              "ntr": "ROOT_TRANSPOSITION",
              "ntt": "MELODIC_MINOR",
              "bassOn": false,
              "chordRootUpperLimit": 11,
              "noteLowLimit": 57,
              "noteHighLimit": 69,
              "rtr": "PITCH_SHIFT"
            },
            "ctb2High": null
          },
          "notes": [
            {
              "pitch": 55,
              "velocity": 107,
              "position": 0,
              "duration": 3.7604166666666665
            },
            {
              "pitch": 60,
              "velocity": 107,
              "position": 0,
              "duration": 3.78125
            },
            {
              "pitch": 64,
              "velocity": 107,
              "position": 0,
              "duration": 3.78125
            },
            {
              "pitch": 60,
              "velocity": 100,
              "position": 4,
              "duration": 3.1145833333333335
            },
            {
              "pitch": 65,
              "velocity": 100,
              "position": 4,
              "duration": 3.1145833333333335
            },
            {
              "pitch": 57,
              "velocity": 100,
              "position": 4,
              "duration": 3.1354166666666665
            }
          ]
        },
        "2": {
          "ctab": {
            "srcChannel": 2,
            "name": "A-Gtr",
            "accType": "CHORD2",
            "editable": false,
            "mutedNotes": [],
            "mutedChords": [],
            "autoStart": false,
            "sourceChordNote": 0,
            "sourceChordType": "Maj",
            "ctb2Low": null,
            "ctb2Main": {
              "ntr": "ROOT_TRANSPOSITION",
              "ntt": "MELODIC_MINOR",
              "bassOn": false,
              "chordRootUpperLimit": 11,
              "noteLowLimit": 56,
              "noteHighLimit": 67,
              "rtr": "PITCH_SHIFT"
            },
            "ctb2High": null
          },
          "notes": [
            {
              "pitch": 55,
              "velocity": 65,
              "position": 0,
              "duration": 0.475
            },
            {
              "pitch": 60,
              "velocity": 65,
              "position": 0,
              "duration": 0.475
            },
            {
              "pitch": 64,
              "velocity": 65,
              "position": 0,
              "duration": 0.475
            },
            {
              "pitch": 64,
              "velocity": 42,
              "position": 0.4895833333333333,
              "duration": 0.475
            },
            {
              "pitch": 60,
              "velocity": 42,
              "position": 0.5,
              "duration": 0.475
            },
            {
              "pitch": 55,
              "velocity": 42,
              "position": 0.5104166666666666,
              "duration": 0.475
            },
            {
              "pitch": 55,
              "velocity": 67,
              "position": 1,
              "duration": 0.125
            },
            {
              "pitch": 60,
              "velocity": 67,
              "position": 1,
              "duration": 0.125
            },
            {
              "pitch": 64,
              "velocity": 67,
              "position": 1,
              "duration": 0.125
            },
            {
              "pitch": 64,
              "velocity": 42,
              "position": 1.4895833333333333,
              "duration": 0.475
            },
            {
              "pitch": 60,
              "velocity": 42,
              "position": 1.5,
              "duration": 0.475
            },
            {
              "pitch": 55,
              "velocity": 42,
              "position": 1.5104166666666667,
              "duration": 0.475
            },
            {
              "pitch": 55,
              "velocity": 65,
              "position": 2,
              "duration": 0.4791666666666667
            },
            {
              "pitch": 60,
              "velocity": 65,
              "position": 2,
              "duration": 0.4791666666666667
            },
            {
              "pitch": 64,
              "velocity": 65,
              "position": 2,
              "duration": 0.4791666666666667
            },
            {
              "pitch": 64,
              "velocity": 42,
              "position": 2.4895833333333335,
              "duration": 0.4791666666666667
            },
            {
              "pitch": 60,
              "velocity": 42,
              "position": 2.5,
              "duration": 0.4791666666666667
            },
            {
              "pitch": 55,
              "velocity": 42,
              "position": 2.5104166666666665,
              "duration": 0.4791666666666667
            },
            {
              "pitch": 55,
              "velocity": 42,
              "position": 3,
              "duration": 0.125
            },
            {
              "pitch": 60,
              "velocity": 42,
              "position": 3,
              "duration": 0.125
            },
            {
              "pitch": 64,
              "velocity": 42,
              "position": 3,
              "duration": 0.125
            },
            {
              "pitch": 64,
              "velocity": 60,
              "position": 3.4895833333333335,
              "duration": 0.4791666666666667
            },
            {
              "pitch": 60,
              "velocity": 60,
              "position": 3.5,
              "duration": 0.4791666666666667
            },
            {
              "pitch": 55,
              "velocity": 60,
              "position": 3.5104166666666665,
              "duration": 0.4791666666666667
            },
            {
              "pitch": 57,
              "velocity": 84,
              "position": 4,
              "duration": 2.9791666666666665
            },
            {
              "pitch": 60,
              "velocity": 79,
              "position": 4,
              "duration": 2.9791666666666665
            },
            {
              "pitch": 65,
              "velocity": 84,
              "position": 4,
              "duration": 2.9791666666666665
            }
          ]
        },
        "3": {
          "ctab": {
            "srcChannel": 3,
            "name": "Bass min",
            "accType": "BASS",
            "editable": false,
            "mutedNotes": [],
            "mutedChords": [
              "1+2+5",
              "sus4",
              "1+5",
              "1+8",
              "7aug",
              "Maj7aug",
              "7(#9)",
              "7(b13)",
              "7(b9)",
              "7(13)",
              "7#11",
              "7(9)",
              "7b5",
              "7sus4",
              "7th",
              "aug",
              "Maj6(9)",
              "Maj7(9)",
              "Maj(9)",
              "Maj7#11",
              "Maj7",
              "Maj6",
              "Maj"
            ],
            "autoStart": false,
            "sourceChordNote": 0,
            "sourceChordType": "min",
            "ctb2Low": null,
            "ctb2Main": {
              "ntr": "ROOT_TRANSPOSITION",
              "ntt": "BYPASS",
              "bassOn": false,
              "chordRootUpperLimit": 3,
              "noteLowLimit": 28,
              "noteHighLimit": 127,
              "rtr": "PITCH_SHIFT"
            },
            "ctb2High": null
          },
          "notes": [
            {
              "pitch": 48,
              "velocity": 83,
              "position": 0,
              "duration": 0.8125
            },
            {
              "pitch": 48,
              "velocity": 83,
              "position": 1,
              "duration": 0.46875
            },
            {
              "pitch": 48,
              "velocity": 83,
              "position": 1.5,
              "duration": 0.9895833333333334
            },
            {
              "pitch": 36,
              "velocity": 83,
              "position": 2.5,
              "duration": 0.4895833333333333
            },
            {
              "pitch": 39,
              "velocity": 83,
              "position": 3,
              "duration": 0.4895833333333333
            },
            {
              "pitch": 43,
              "velocity": 83,
              "position": 3.5,
              "duration": 0.4895833333333333
            },
            {
              "pitch": 36,
              "velocity": 83,
              "position": 4,
              "duration": 2.9895833333333335
            },
            {
              "pitch": 31,
              "velocity": 83,
              "position": 7,
              "duration": 0.9895833333333334
            }
          ]
        },
        "4": {
          "ctab": {
            "srcChannel": 4,
            "name": "Strums",
            "accType": "CHORD2",
            "editable": false,
            "mutedNotes": [],
            "mutedChords": [],
            "autoStart": false,
            "sourceChordNote": 0,
            "sourceChordType": "min7(11)",
            "ctb2Low": null,
            "ctb2Main": {
              "ntr": "ROOT_FIXED",
              "ntt": "BYPASS",
              "bassOn": false,
              "chordRootUpperLimit": 7,
              "noteLowLimit": 96,
              "noteHighLimit": 127,
              "rtr": "PITCH_SHIFT"
            },
            "ctb2High": null
          },
          "notes": []
        },
        "8": {
          "ctab": {
            "srcChannel": 8,
            "name": "AddDrums",
            "accType": "SUBRHYTHM",
            "editable": false,
            "mutedNotes": [],
            "mutedChords": [],
            "autoStart": true,
            "sourceChordNote": 0,
            "sourceChordType": "Maj7",
            "ctb2Low": null,
            "ctb2Main": {
              "ntr": "ROOT_FIXED",
              "ntt": "BYPASS",
              "bassOn": false,
              "chordRootUpperLimit": 6,
              "noteLowLimit": 0,
              "noteHighLimit": 127,
              "rtr": "PITCH_SHIFT"
            },
            "ctb2High": null
          },
          "notes": [
            {
              "pitch": 54,
              "velocity": 80,
              "position": 1,
              "duration": 0.041666666666666664
            },
            {
              "pitch": 54,
              "velocity": 80,
              "position": 3,
              "duration": 0.041666666666666664
            },
            {
              "pitch": 54,
              "velocity": 80,
              "position": 4,
              "duration": 0.041666666666666664
            }
          ]
        },
        "9": {
          "ctab": {
            "srcChannel": 9,
            "name": "Rhyth2",
            "accType": "RHYTHM",
            "editable": false,
            "mutedNotes": [],
            "mutedChords": [],
            "autoStart": true,
            "sourceChordNote": 0,
            "sourceChordType": "Maj7",
            "ctb2Low": null,
            "ctb2Main": {
              "ntr": "ROOT_FIXED",
              "ntt": "BYPASS",
              "bassOn": false,
              "chordRootUpperLimit": 6,
              "noteLowLimit": 0,
              "noteHighLimit": 127,
              "rtr": "PITCH_SHIFT"
            },
            "ctb2High": null
          },
          "notes": [
            {
              "pitch": 42,
              "velocity": 88,
              "position": 0,
              "duration": 0.041666666666666664
            },
            {
              "pitch": 42,
              "velocity": 42,
              "position": 0.5,
              "duration": 0.041666666666666664
            },
            {
              "pitch": 36,
              "velocity": 92,
              "position": 1,
              "duration": 0.041666666666666664
            },
            {
              "pitch": 42,
              "velocity": 88,
              "position": 1,
              "duration": 0.041666666666666664
            },
            {
              "pitch": 42,
              "velocity": 42,
              "position": 1.5,
              "duration": 0.041666666666666664
            },
            {
              "pitch": 42,
              "velocity": 88,
              "position": 2,
              "duration": 0.041666666666666664
            },
            {
              "pitch": 42,
              "velocity": 42,
              "position": 2.5,
              "duration": 0.041666666666666664
            },
            {
              "pitch": 36,
              "velocity": 92,
              "position": 3,
              "duration": 0.041666666666666664
            },
            {
              "pitch": 42,
              "velocity": 88,
              "position": 3,
              "duration": 0.041666666666666664
            },
            {
              "pitch": 42,
              "velocity": 42,
              "position": 3.5,
              "duration": 0.041666666666666664
            },
            {
              "pitch": 46,
              "velocity": 60,
              "position": 4,
              "duration": 0.041666666666666664
            },
            {
              "pitch": 38,
              "velocity": 88,
              "position": 4.5,
              "duration": 0.041666666666666664
            },
            {
              "pitch": 46,
              "velocity": 60,
              "position": 4.5,
              "duration": 0.041666666666666664
            },
            {
              "pitch": 36,
              "velocity": 92,
              "position": 5.5,
              "duration": 0.041666666666666664
            },
            {
              "pitch": 38,
              "velocity": 88,
              "position": 6,
              "duration": 0.041666666666666664
            },
            {
              "pitch": 46,
              "velocity": 60,
              "position": 6,
              "duration": 0.041666666666666664
            },
            {
              "pitch": 36,
              "velocity": 92,
              "position": 6.5,
              "duration": 0.041666666666666664
            },
            {
              "pitch": 47,
              "velocity": 65,
              "position": 7,
              "duration": 0.041666666666666664
            },
            {
              "pitch": 45,
              "velocity": 65,
              "position": 7.5,
              "duration": 0.041666666666666664
            },
            {
              "pitch": 38,
              "velocity": 75,
              "position": 7.75,
              "duration": 0.041666666666666664
            },
            {
              "pitch": 49,
              "velocity": 54,
              "position": 7.989583333333333,
              "duration": 0.010416666666666666
            }
          ]
        },
        "10": {
          "ctab": {
            "srcChannel": 10,
            "name": "Bass maj",
            "accType": "BASS",
            "editable": false,
            "mutedNotes": [],
            "mutedChords": [
              "dim7",
              "dim",
              "minMaj7(9)",
              "minMaj7",
              "min7(11)",
              "min7(9)",
              "min(9)",
              "m7b5",
              "min7",
              "min6",
              "min"
            ],
            "autoStart": false,
            "sourceChordNote": 0,
            "sourceChordType": "Maj",
            "ctb2Low": null,
            "ctb2Main": {
              "ntr": "ROOT_TRANSPOSITION",
              "ntt": "BYPASS",
              "bassOn": false,
              "chordRootUpperLimit": 3,
              "noteLowLimit": 28,
              "noteHighLimit": 127,
              "rtr": "PITCH_SHIFT"
            },
            "ctb2High": null
          },
          "notes": [
            {
              "pitch": 48,
              "velocity": 83,
              "position": 0,
              "duration": 0.8125
            },
            {
              "pitch": 48,
              "velocity": 83,
              "position": 1,
              "duration": 0.46875
            },
            {
              "pitch": 48,
              "velocity": 83,
              "position": 1.5,
              "duration": 0.9895833333333334
            },
            {
              "pitch": 43,
              "velocity": 83,
              "position": 2.5,
              "duration": 0.4895833333333333
            },
            {
              "pitch": 45,
              "velocity": 83,
              "position": 3,
              "duration": 0.4895833333333333
            },
            {
              "pitch": 48,
              "velocity": 83,
              "position": 3.5,
              "duration": 0.4895833333333333
            },
            {
              "pitch": 36,
              "velocity": 83,
              "position": 4,
              "duration": 2.9895833333333335
            },
            {
              "pitch": 31,
              "velocity": 83,
              "position": 7,
              "duration": 0.9895833333333334
            }
          ]
        },
        "11": {
          "ctab": {
            "srcChannel": 11,
            "name": "Chord1",
            "accType": "CHORD1",
            "editable": false,
            "mutedNotes": [],
            "mutedChords": [],
            "autoStart": false,
            "sourceChordNote": 0,
            "sourceChordType": "Maj",
            "ctb2Low": null,
            "ctb2Main": {
              "ntr": "ROOT_TRANSPOSITION",
              "ntt": "MELODIC_MINOR",
              "bassOn": false,
              "chordRootUpperLimit": 11,
              "noteLowLimit": 54,
              "noteHighLimit": 65,
              "rtr": "PITCH_SHIFT"
            },
            "ctb2High": null
          },
          "notes": [
            {
              "pitch": 60,
              "velocity": 76,
              "position": 1,
              "duration": 0.1875
            },
            {
              "pitch": 64,
              "velocity": 77,
              "position": 1.0104166666666667,
              "duration": 0.17708333333333334
            },
            {
              "pitch": 67,
              "velocity": 83,
              "position": 1.0208333333333333,
              "duration": 0.16666666666666666
            },
            {
              "pitch": 60,
              "velocity": 76,
              "position": 3,
              "duration": 0.1875
            },
            {
              "pitch": 64,
              "velocity": 77,
              "position": 3.0104166666666665,
              "duration": 0.17708333333333334
            },
            {
              "pitch": 67,
              "velocity": 83,
              "position": 3.0208333333333335,
              "duration": 0.16666666666666666
            },
            {
              "pitch": 60,
              "velocity": 73,
              "position": 4,
              "duration": 2.9895833333333335
            },
            {
              "pitch": 65,
              "velocity": 73,
              "position": 4.010416666666667,
              "duration": 2.9791666666666665
            },
            {
              "pitch": 69,
              "velocity": 76,
              "position": 4.020833333333333,
              "duration": 2.96875
            }
          ]
        },
        "13": {
          "ctab": {
            "srcChannel": 13,
            "name": "Pad",
            "accType": "PAD",
            "editable": false,
            "mutedNotes": [],
            "mutedChords": [],
            "autoStart": false,
            "sourceChordNote": 0,
            "sourceChordType": "Maj",
            "ctb2Low": null,
            "ctb2Main": {
              "ntr": "ROOT_TRANSPOSITION",
              "ntt": "MELODIC_MINOR",
              "bassOn": false,
              "chordRootUpperLimit": 11,
              "noteLowLimit": 56,
              "noteHighLimit": 67,
              "rtr": "PITCH_SHIFT"
            },
            "ctb2High": null
          },
          "notes": [
            {
              "pitch": 60,
              "velocity": 49,
              "position": 0.010416666666666666,
              "duration": 3.9895833333333335
            },
            {
              "pitch": 64,
              "velocity": 49,
              "position": 0.010416666666666666,
              "duration": 3.9895833333333335
            },
            {
              "pitch": 67,
              "velocity": 49,
              "position": 0.010416666666666666,
              "duration": 3.9895833333333335
            },
            {
              "pitch": 60,
              "velocity": 49,
              "position": 4,
              "duration": 3
            },
            {
              "pitch": 65,
              "velocity": 49,
              "position": 4,
              "duration": 3
            },
            {
              "pitch": 69,
              "velocity": 49,
              "position": 4,
              "duration": 3
            }
          ]
        }
      }
    },
    "Intro_C": {
      "type": "Intro_C",
      "sizeInBeats": 16,
      "channels": {
        "1": {
          "ctab": {
            "srcChannel": 1,
            "name": "E-Pia",
            "accType": "PHRASE1",
            "editable": false,
            "mutedNotes": [],
            "mutedChords": [],
            "autoStart": false,
            "sourceChordNote": 0,
            "sourceChordType": "Maj",
            "ctb2Low": null,
            "ctb2Main": {
              "ntr": "ROOT_TRANSPOSITION",
              "ntt": "HARMONIC_MINOR",
              "bassOn": false,
              "chordRootUpperLimit": 11,
              "noteLowLimit": 57,
              "noteHighLimit": 69,
              "rtr": "PITCH_SHIFT"
            },
            "ctb2High": null
          },
          "notes": [
            {
              "pitch": 55,
              "velocity": 100,
              "position": 1,
              "duration": 1
            },
            {
              "pitch": 60,
              "velocity": 100,
              "position": 1,
              "duration": 1
            },
            {
              "pitch": 64,
              "velocity": 100,
              "position": 1,
              "duration": 1
            },
            {
              "pitch": 57,
              "velocity": 100,
              "position": 2,
              "duration": 0.90625
            },
            {
              "pitch": 60,
              "velocity": 100,
              "position": 2,
              "duration": 0.90625
            },
            {
              "pitch": 64,
              "velocity": 100,
              "position": 2,
              "duration": 0.90625
            },
            {
              "pitch": 57,
              "velocity": 100,
              "position": 3,
              "duration": 0.13541666666666666
            },
            {
              "pitch": 60,
              "velocity": 100,
              "position": 3,
              "duration": 0.13541666666666666
            },
            {
              "pitch": 64,
              "velocity": 100,
              "position": 3,
              "duration": 0.16666666666666666
            },
            {
              "pitch": 60,
              "velocity": 100,
              "position": 3.5,
              "duration": 0.14583333333333334
            },
            {
              "pitch": 57,
              "velocity": 100,
              "position": 3.5,
              "duration": 0.15625
            },
            {
              "pitch": 64,
              "velocity": 100,
              "position": 3.5,
              "duration": 0.16666666666666666
            },
            {
              "pitch": 57,
              "velocity": 100,
              "position": 4.5,
              "duration": 0.11458333333333333
            },
            {
              "pitch": 60,
              "velocity": 100,
              "position": 5,
              "duration": 0.13541666666666666
            },
            {
              "pitch": 57,
              "velocity": 100,
              "position": 5,
              "duration": 0.16666666666666666
            },
            {
              "pitch": 65,
              "velocity": 100,
              "position": 5,
              "duration": 0.16666666666666666
            },
            {
              "pitch": 55,
              "velocity": 100,
              "position": 5.5,
              "duration": 2.4895833333333335
            },
            {
              "pitch": 59,
              "velocity": 100,
              "position": 5.5,
              "duration": 2.4895833333333335
            },
            {
              "pitch": 62,
              "velocity": 100,
              "position": 5.5,
              "duration": 2.4895833333333335
            },
            {
              "pitch": 55,
              "velocity": 100,
              "position": 9,
              "duration": 1
            },
            {
              "pitch": 60,
              "velocity": 100,
              "position": 9,
              "duration": 1
            },
            {
              "pitch": 64,
              "velocity": 100,
              "position": 9,
              "duration": 1
            },
            {
              "pitch": 57,
              "velocity": 100,
              "position": 10,
              "duration": 0.4895833333333333
            },
            {
              "pitch": 60,
              "velocity": 100,
              "position": 10,
              "duration": 0.4895833333333333
            },
            {
              "pitch": 65,
              "velocity": 100,
              "position": 10,
              "duration": 0.4895833333333333
            },
            {
              "pitch": 57,
              "velocity": 100,
              "position": 11,
              "duration": 0.13541666666666666
            },
            {
              "pitch": 60,
              "velocity": 100,
              "position": 11,
              "duration": 0.13541666666666666
            },
            {
              "pitch": 65,
              "velocity": 100,
              "position": 11,
              "duration": 0.16666666666666666
            },
            {
              "pitch": 55,
              "velocity": 100,
              "position": 11.5,
              "duration": 1.84375
            },
            {
              "pitch": 59,
              "velocity": 100,
              "position": 11.5,
              "duration": 1.84375
            },
            {
              "pitch": 62,
              "velocity": 100,
              "position": 11.5,
              "duration": 1.84375
            },
            {
              "pitch": 55,
              "velocity": 100,
              "position": 13.5,
              "duration": 0.25
            },
            {
              "pitch": 59,
              "velocity": 100,
              "position": 13.5,
              "duration": 0.25
            },
            {
              "pitch": 62,
              "velocity": 100,
              "position": 13.5,
              "duration": 0.25
            }
          ]
        },
        "2": {
          "ctab": {
            "srcChannel": 2,
            "name": "A-Gtr",
            "accType": "CHORD2",
            "editable": false,
            "mutedNotes": [],
            "mutedChords": [],
            "autoStart": false,
            "sourceChordNote": 0,
            "sourceChordType": "Maj",
            "ctb2Low": null,
            "ctb2Main": {
              "ntr": "ROOT_TRANSPOSITION",
              "ntt": "HARMONIC_MINOR",
              "bassOn": false,
              "chordRootUpperLimit": 11,
              "noteLowLimit": 56,
              "noteHighLimit": 67,
              "rtr": "PITCH_SHIFT"
            },
            "ctb2High": null
          },
          "notes": [
            {
              "pitch": 55,
              "velocity": 52,
              "position": 0,
              "duration": 0.4791666666666667
            },
            {
              "pitch": 60,
              "velocity": 52,
              "position": 0,
              "duration": 0.4791666666666667
            },
            {
              "pitch": 64,
              "velocity": 52,
              "position": 0.010416666666666666,
              "duration": 0.4791666666666667
            },
            {
              "pitch": 60,
              "velocity": 52,
              "position": 0.5,
              "duration": 0.4791666666666667
            },
            {
              "pitch": 64,
              "velocity": 52,
              "position": 0.5,
              "duration": 0.4791666666666667
            },
            {
              "pitch": 55,
              "velocity": 67,
              "position": 0.5104166666666666,
              "duration": 0.4791666666666667
            },
            {
              "pitch": 60,
              "velocity": 65,
              "position": 1.5,
              "duration": 0.4791666666666667
            },
            {
              "pitch": 64,
              "velocity": 65,
              "position": 1.5,
              "duration": 0.4791666666666667
            },
            {
              "pitch": 57,
              "velocity": 65,
              "position": 1.5104166666666667,
              "duration": 0.4791666666666667
            },
            {
              "pitch": 57,
              "velocity": 52,
              "position": 2,
              "duration": 0.4791666666666667
            },
            {
              "pitch": 60,
              "velocity": 52,
              "position": 2,
              "duration": 0.4791666666666667
            },
            {
              "pitch": 64,
              "velocity": 52,
              "position": 2.0104166666666665,
              "duration": 0.4791666666666667
            },
            {
              "pitch": 60,
              "velocity": 52,
              "position": 2.5,
              "duration": 0.4791666666666667
            },
            {
              "pitch": 64,
              "velocity": 52,
              "position": 2.5,
              "duration": 0.4791666666666667
            },
            {
              "pitch": 57,
              "velocity": 50,
              "position": 2.5104166666666665,
              "duration": 0.4791666666666667
            },
            {
              "pitch": 60,
              "velocity": 52,
              "position": 3.5,
              "duration": 0.4791666666666667
            },
            {
              "pitch": 64,
              "velocity": 52,
              "position": 3.5,
              "duration": 0.4791666666666667
            },
            {
              "pitch": 57,
              "velocity": 52,
              "position": 3.5104166666666665,
              "duration": 0.4791666666666667
            },
            {
              "pitch": 57,
              "velocity": 54,
              "position": 4,
              "duration": 0.4791666666666667
            },
            {
              "pitch": 60,
              "velocity": 52,
              "position": 4,
              "duration": 0.4791666666666667
            },
            {
              "pitch": 65,
              "velocity": 52,
              "position": 4.010416666666667,
              "duration": 0.4791666666666667
            },
            {
              "pitch": 60,
              "velocity": 52,
              "position": 4.5,
              "duration": 0.4791666666666667
            },
            {
              "pitch": 65,
              "velocity": 52,
              "position": 4.5,
              "duration": 0.4791666666666667
            },
            {
              "pitch": 57,
              "velocity": 54,
              "position": 4.510416666666667,
              "duration": 0.4791666666666667
            },
            {
              "pitch": 55,
              "velocity": 52,
              "position": 5.5,
              "duration": 0.4791666666666667
            },
            {
              "pitch": 59,
              "velocity": 56,
              "position": 5.5,
              "duration": 0.4791666666666667
            },
            {
              "pitch": 62,
              "velocity": 52,
              "position": 5.510416666666667,
              "duration": 0.4791666666666667
            },
            {
              "pitch": 59,
              "velocity": 56,
              "position": 6,
              "duration": 0.4791666666666667
            },
            {
              "pitch": 62,
              "velocity": 52,
              "position": 6,
              "duration": 0.4791666666666667
            },
            {
              "pitch": 55,
              "velocity": 52,
              "position": 6.010416666666667,
              "duration": 0.4791666666666667
            },
            {
              "pitch": 59,
              "velocity": 52,
              "position": 6.5,
              "duration": 0.4791666666666667
            },
            {
              "pitch": 62,
              "velocity": 52,
              "position": 6.5,
              "duration": 0.4791666666666667
            },
            {
              "pitch": 55,
              "velocity": 52,
              "position": 6.510416666666667,
              "duration": 0.4791666666666667
            },
            {
              "pitch": 59,
              "velocity": 52,
              "position": 7.5,
              "duration": 0.4791666666666667
            },
            {
              "pitch": 62,
              "velocity": 52,
              "position": 7.5,
              "duration": 0.4791666666666667
            },
            {
              "pitch": 55,
              "velocity": 52,
              "position": 7.510416666666667,
              "duration": 0.4791666666666667
            },
            {
              "pitch": 55,
              "velocity": 69,
              "position": 8,
              "duration": 0.4791666666666667
            },
            {
              "pitch": 60,
              "velocity": 69,
              "position": 8,
              "duration": 0.4791666666666667
            },
            {
              "pitch": 64,
              "velocity": 69,
              "position": 8.010416666666666,
              "duration": 0.4791666666666667
            },
            {
              "pitch": 60,
              "velocity": 69,
              "position": 8.5,
              "duration": 0.4791666666666667
            },
            {
              "pitch": 64,
              "velocity": 69,
              "position": 8.5,
              "duration": 0.4791666666666667
            },
            {
              "pitch": 55,
              "velocity": 69,
              "position": 8.510416666666666,
              "duration": 0.4791666666666667
            },
            {
              "pitch": 60,
              "velocity": 52,
              "position": 9.5,
              "duration": 0.4791666666666667
            },
            {
              "pitch": 64,
              "velocity": 52,
              "position": 9.5,
              "duration": 0.4791666666666667
            },
            {
              "pitch": 55,
              "velocity": 52,
              "position": 9.510416666666666,
              "duration": 0.4791666666666667
            },
            {
              "pitch": 57,
              "velocity": 69,
              "position": 10,
              "duration": 0.4791666666666667
            },
            {
              "pitch": 60,
              "velocity": 69,
              "position": 10,
              "duration": 0.4791666666666667
            },
            {
              "pitch": 65,
              "velocity": 69,
              "position": 10.010416666666666,
              "duration": 0.4791666666666667
            },
            {
              "pitch": 60,
              "velocity": 52,
              "position": 10.5,
              "duration": 0.4791666666666667
            },
            {
              "pitch": 65,
              "velocity": 52,
              "position": 10.5,
              "duration": 0.4791666666666667
            },
            {
              "pitch": 57,
              "velocity": 52,
              "position": 10.510416666666666,
              "duration": 0.4791666666666667
            },
            {
              "pitch": 59,
              "velocity": 52,
              "position": 12.5,
              "duration": 0.9791666666666666
            },
            {
              "pitch": 62,
              "velocity": 52,
              "position": 12.5,
              "duration": 0.9791666666666666
            },
            {
              "pitch": 55,
              "velocity": 21,
              "position": 13.5,
              "duration": 0.11458333333333333
            },
            {
              "pitch": 59,
              "velocity": 21,
              "position": 13.5,
              "duration": 0.11458333333333333
            },
            {
              "pitch": 62,
              "velocity": 21,
              "position": 13.510416666666666,
              "duration": 0.11458333333333333
            }
          ]
        },
        "4": {
          "ctab": {
            "srcChannel": 4,
            "name": "Strums",
            "accType": "CHORD2",
            "editable": false,
            "mutedNotes": [],
            "mutedChords": [],
            "autoStart": false,
            "sourceChordNote": 0,
            "sourceChordType": "min7(11)",
            "ctb2Low": null,
            "ctb2Main": {
              "ntr": "ROOT_FIXED",
              "ntt": "BYPASS",
              "bassOn": false,
              "chordRootUpperLimit": 7,
              "noteLowLimit": 0,
              "noteHighLimit": 127,
              "rtr": "PITCH_SHIFT"
            },
            "ctb2High": null
          },
          "notes": []
        },
        "8": {
          "ctab": {
            "srcChannel": 8,
            "name": "AddDrums",
            "accType": "SUBRHYTHM",
            "editable": false,
            "mutedNotes": [],
            "mutedChords": [],
            "autoStart": true,
            "sourceChordNote": 0,
            "sourceChordType": "Maj7",
            "ctb2Low": null,
            "ctb2Main": {
              "ntr": "ROOT_FIXED",
              "ntt": "BYPASS",
              "bassOn": false,
              "chordRootUpperLimit": 6,
              "noteLowLimit": 0,
              "noteHighLimit": 127,
              "rtr": "PITCH_SHIFT"
            },
            "ctb2High": null
          },
          "notes": [
            {
              "pitch": 54,
              "velocity": 80,
              "position": 1,
              "duration": 0.041666666666666664
            },
            {
              "pitch": 54,
              "velocity": 80,
              "position": 3,
              "duration": 0.041666666666666664
            },
            {
              "pitch": 54,
              "velocity": 80,
              "position": 5,
              "duration": 0.041666666666666664
            },
            {
              "pitch": 54,
              "velocity": 80,
              "position": 7,
              "duration": 0.041666666666666664
            },
            {
              "pitch": 54,
              "velocity": 80,
              "position": 9,
              "duration": 0.041666666666666664
            },
            {
              "pitch": 54,
              "velocity": 80,
              "position": 11,
              "duration": 0.041666666666666664
            },
            {
              "pitch": 54,
              "velocity": 80,
              "position": 13,
              "duration": 0.041666666666666664
            },
            {
              "pitch": 54,
              "velocity": 80,
              "position": 15,
              "duration": 0.041666666666666664
            }
          ]
        },
        "9": {
          "ctab": {
            "srcChannel": 9,
            "name": "Rhyth2",
            "accType": "RHYTHM",
            "editable": false,
            "mutedNotes": [],
            "mutedChords": [],
            "autoStart": true,
            "sourceChordNote": 0,
            "sourceChordType": "Maj7",
            "ctb2Low": null,
            "ctb2Main": {
              "ntr": "ROOT_FIXED",
              "ntt": "BYPASS",
              "bassOn": false,
              "chordRootUpperLimit": 6,
              "noteLowLimit": 0,
              "noteHighLimit": 127,
              "rtr": "PITCH_SHIFT"
            },
            "ctb2High": null
          },
          "notes": [
            {
              "pitch": 51,
              "velocity": 84,
              "position": 0,
              "duration": 0.03125
            },
            {
              "pitch": 36,
              "velocity": 92,
              "position": 0,
              "duration": 0.041666666666666664
            },
            {
              "pitch": 51,
              "velocity": 22,
              "position": 0.5,
              "duration": 0.03125
            },
            {
              "pitch": 44,
              "velocity": 65,
              "position": 1,
              "duration": 0.03125
            },
            {
              "pitch": 51,
              "velocity": 84,
              "position": 1,
              "duration": 0.03125
            },
            {
              "pitch": 38,
              "velocity": 88,
              "position": 1,
              "duration": 0.041666666666666664
            },
            {
              "pitch": 51,
              "velocity": 24,
              "position": 1.5,
              "duration": 0.03125
            },
            {
              "pitch": 36,
              "velocity": 68,
              "position": 1.5,
              "duration": 0.041666666666666664
            },
            {
              "pitch": 51,
              "velocity": 84,
              "position": 2,
              "duration": 0.03125
            },
            {
              "pitch": 36,
              "velocity": 92,
              "position": 2,
              "duration": 0.041666666666666664
            },
            {
              "pitch": 51,
              "velocity": 24,
              "position": 2.5,
              "duration": 0.03125
            },
            {
              "pitch": 44,
              "velocity": 65,
              "position": 3,
              "duration": 0.03125
            },
            {
              "pitch": 51,
              "velocity": 84,
              "position": 3,
              "duration": 0.03125
            },
            {
              "pitch": 38,
              "velocity": 88,
              "position": 3,
              "duration": 0.041666666666666664
            },
            {
              "pitch": 51,
              "velocity": 24,
              "position": 3.5,
              "duration": 0.03125
            },
            {
              "pitch": 51,
              "velocity": 84,
              "position": 4,
              "duration": 0.03125
            },
            {
              "pitch": 36,
              "velocity": 92,
              "position": 4,
              "duration": 0.041666666666666664
            },
            {
              "pitch": 51,
              "velocity": 22,
              "position": 4.5,
              "duration": 0.03125
            },
            {
              "pitch": 44,
              "velocity": 65,
              "position": 5,
              "duration": 0.03125
            },
            {
              "pitch": 51,
              "velocity": 84,
              "position": 5,
              "duration": 0.03125
            },
            {
              "pitch": 38,
              "velocity": 88,
              "position": 5,
              "duration": 0.041666666666666664
            },
            {
              "pitch": 51,
              "velocity": 24,
              "position": 5.5,
              "duration": 0.03125
            },
            {
              "pitch": 36,
              "velocity": 92,
              "position": 5.5,
              "duration": 0.041666666666666664
            },
            {
              "pitch": 51,
              "velocity": 84,
              "position": 6,
              "duration": 0.03125
            },
            {
              "pitch": 51,
              "velocity": 24,
              "position": 6.5,
              "duration": 0.03125
            },
            {
              "pitch": 36,
              "velocity": 92,
              "position": 6.5,
              "duration": 0.041666666666666664
            },
            {
              "pitch": 44,
              "velocity": 65,
              "position": 7,
              "duration": 0.03125
            },
            {
              "pitch": 51,
              "velocity": 84,
              "position": 7,
              "duration": 0.03125
            },
            {
              "pitch": 38,
              "velocity": 88,
              "position": 7,
              "duration": 0.041666666666666664
            },
            {
              "pitch": 51,
              "velocity": 24,
              "position": 7.5,
              "duration": 0.03125
            },
            {
              "pitch": 36,
              "velocity": 68,
              "position": 7.5,
              "duration": 0.041666666666666664
            },
            {
              "pitch": 51,
              "velocity": 84,
              "position": 8,
              "duration": 0.03125
            },
            {
              "pitch": 36,
              "velocity": 92,
              "position": 8,
              "duration": 0.041666666666666664
            },
            {
              "pitch": 51,
              "velocity": 22,
              "position": 8.5,
              "duration": 0.03125
            },
            {
              "pitch": 44,
              "velocity": 65,
              "position": 9,
              "duration": 0.03125
            },
            {
              "pitch": 51,
              "velocity": 84,
              "position": 9,
              "duration": 0.03125
            },
            {
              "pitch": 38,
              "velocity": 88,
              "position": 9,
              "duration": 0.041666666666666664
            },
            {
              "pitch": 51,
              "velocity": 24,
              "position": 9.5,
              "duration": 0.03125
            },
            {
              "pitch": 36,
              "velocity": 68,
              "position": 9.5,
              "duration": 0.041666666666666664
            },
            {
              "pitch": 51,
              "velocity": 84,
              "position": 10,
              "duration": 0.03125
            },
            {
              "pitch": 36,
              "velocity": 92,
              "position": 10,
              "duration": 0.041666666666666664
            },
            {
              "pitch": 51,
              "velocity": 24,
              "position": 10.5,
              "duration": 0.03125
            },
            {
              "pitch": 44,
              "velocity": 65,
              "position": 11,
              "duration": 0.03125
            },
            {
              "pitch": 51,
              "velocity": 84,
              "position": 11,
              "duration": 0.03125
            },
            {
              "pitch": 38,
              "velocity": 88,
              "position": 11,
              "duration": 0.041666666666666664
            },
            {
              "pitch": 49,
              "velocity": 54,
              "position": 11.5,
              "duration": 0.03125
            },
            {
              "pitch": 36,
              "velocity": 92,
              "position": 11.5,
              "duration": 0.041666666666666664
            },
            {
              "pitch": 46,
              "velocity": 60,
              "position": 12.5,
              "duration": 0.03125
            },
            {
              "pitch": 36,
              "velocity": 92,
              "position": 12.5,
              "duration": 0.041666666666666664
            },
            {
              "pitch": 38,
              "velocity": 62,
              "position": 12.5,
              "duration": 0.041666666666666664
            },
            {
              "pitch": 51,
              "velocity": 50,
              "position": 13,
              "duration": 0.03125
            },
            {
              "pitch": 38,
              "velocity": 85,
              "position": 13,
              "duration": 0.041666666666666664
            },
            {
              "pitch": 49,
              "velocity": 54,
              "position": 13.5,
              "duration": 0.03125
            },
            {
              "pitch": 36,
              "velocity": 92,
              "position": 13.5,
              "duration": 0.041666666666666664
            },
            {
              "pitch": 38,
              "velocity": 88,
              "position": 13.5,
              "duration": 0.041666666666666664
            },
            {
              "pitch": 48,
              "velocity": 65,
              "position": 14,
              "duration": 0.03125
            },
            {
              "pitch": 38,
              "velocity": 39,
              "position": 14.5,
              "duration": 0.03125
            },
            {
              "pitch": 38,
              "velocity": 88,
              "position": 14.75,
              "duration": 0.03125
            },
            {
              "pitch": 47,
              "velocity": 65,
              "position": 15,
              "duration": 0.03125
            },
            {
              "pitch": 45,
              "velocity": 65,
              "position": 15.5,
              "duration": 0.03125
            },
            {
              "pitch": 49,
              "velocity": 53,
              "position": 15.989583333333334,
              "duration": 0.010416666666666666
            }
          ]
        },
        "10": {
          "ctab": {
            "srcChannel": 10,
            "name": "Bass",
            "accType": "BASS",
            "editable": false,
            "mutedNotes": [],
            "mutedChords": [],
            "autoStart": false,
            "sourceChordNote": 0,
            "sourceChordType": "Maj",
            "ctb2Low": null,
            "ctb2Main": {
              "ntr": "ROOT_TRANSPOSITION",
              "ntt": "HARMONIC_MINOR",
              "bassOn": false,
              "chordRootUpperLimit": 3,
              "noteLowLimit": 28,
              "noteHighLimit": 127,
              "rtr": "PITCH_SHIFT"
            },
            "ctb2High": null
          },
          "notes": [
            {
              "pitch": 24,
              "velocity": 83,
              "position": 0,
              "duration": 1.125
            },
            {
              "pitch": 24,
              "velocity": 83,
              "position": 1.5,
              "duration": 0.4895833333333333
            },
            {
              "pitch": 33,
              "velocity": 83,
              "position": 2,
              "duration": 1.125
            },
            {
              "pitch": 33,
              "velocity": 83,
              "position": 3.5,
              "duration": 0.4895833333333333
            },
            {
              "pitch": 29,
              "velocity": 83,
              "position": 4,
              "duration": 1.125
            },
            {
              "pitch": 31,
              "velocity": 83,
              "position": 5.5,
              "duration": 1.7395833333333333
            },
            {
              "pitch": 31,
              "velocity": 83,
              "position": 7.5,
              "duration": 0.4895833333333333
            },
            {
              "pitch": 24,
              "velocity": 83,
              "position": 8,
              "duration": 1.125
            },
            {
              "pitch": 24,
              "velocity": 83,
              "position": 9.5,
              "duration": 0.4895833333333333
            },
            {
              "pitch": 29,
              "velocity": 83,
              "position": 10,
              "duration": 0.5
            },
            {
              "pitch": 41,
              "velocity": 108,
              "position": 10.5,
              "duration": 0.11875
            },
            {
              "pitch": 29,
              "velocity": 83,
              "position": 11,
              "duration": 0.5
            },
            {
              "pitch": 31,
              "velocity": 83,
              "position": 11.5,
              "duration": 0.9958333333333333
            },
            {
              "pitch": 31,
              "velocity": 83,
              "position": 12.5,
              "duration": 0.4895833333333333
            },
            {
              "pitch": 31,
              "velocity": 83,
              "position": 13.5,
              "duration": 0.4895833333333333
            }
          ]
        },
        "11": {
          "ctab": {
            "srcChannel": 11,
            "name": "Chord1",
            "accType": "CHORD1",
            "editable": false,
            "mutedNotes": [],
            "mutedChords": [],
            "autoStart": false,
            "sourceChordNote": 0,
            "sourceChordType": "Maj",
            "ctb2Low": null,
            "ctb2Main": {
              "ntr": "ROOT_TRANSPOSITION",
              "ntt": "HARMONIC_MINOR",
              "bassOn": false,
              "chordRootUpperLimit": 11,
              "noteLowLimit": 54,
              "noteHighLimit": 65,
              "rtr": "PITCH_SHIFT"
            },
            "ctb2High": null
          },
          "notes": [
            {
              "pitch": 64,
              "velocity": 85,
              "position": 0.020833333333333332,
              "duration": 0.46875
            },
            {
              "pitch": 60,
              "velocity": 84,
              "position": 0.010416666666666666,
              "duration": 0.4895833333333333
            },
            {
              "pitch": 55,
              "velocity": 82,
              "position": 0,
              "duration": 0.5104166666666666
            },
            {
              "pitch": 55,
              "velocity": 70,
              "position": 0.5208333333333334,
              "duration": 0.46875
            },
            {
              "pitch": 60,
              "velocity": 72,
              "position": 0.5104166666666666,
              "duration": 0.4895833333333333
            },
            {
              "pitch": 64,
              "velocity": 71,
              "position": 0.5,
              "duration": 0.5104166666666666
            },
            {
              "pitch": 55,
              "velocity": 99,
              "position": 1,
              "duration": 0.07291666666666667
            },
            {
              "pitch": 60,
              "velocity": 102,
              "position": 1.0104166666666667,
              "duration": 0.0625
            },
            {
              "pitch": 64,
              "velocity": 102,
              "position": 1.0208333333333333,
              "duration": 0.052083333333333336
            },
            {
              "pitch": 55,
              "velocity": 73,
              "position": 1.5208333333333333,
              "duration": 0.46875
            },
            {
              "pitch": 60,
              "velocity": 77,
              "position": 1.5104166666666667,
              "duration": 0.4895833333333333
            },
            {
              "pitch": 64,
              "velocity": 72,
              "position": 1.5,
              "duration": 0.5104166666666666
            },
            {
              "pitch": 64,
              "velocity": 85,
              "position": 2.0208333333333335,
              "duration": 0.46875
            },
            {
              "pitch": 60,
              "velocity": 85,
              "position": 2.0104166666666665,
              "duration": 0.4895833333333333
            },
            {
              "pitch": 57,
              "velocity": 84,
              "position": 2,
              "duration": 0.5104166666666666
            },
            {
              "pitch": 57,
              "velocity": 72,
              "position": 2.5208333333333335,
              "duration": 0.46875
            },
            {
              "pitch": 60,
              "velocity": 71,
              "position": 2.5104166666666665,
              "duration": 0.4895833333333333
            },
            {
              "pitch": 64,
              "velocity": 71,
              "position": 2.5,
              "duration": 0.5104166666666666
            },
            {
              "pitch": 57,
              "velocity": 102,
              "position": 3,
              "duration": 0.07291666666666667
            },
            {
              "pitch": 60,
              "velocity": 102,
              "position": 3.0104166666666665,
              "duration": 0.0625
            },
            {
              "pitch": 64,
              "velocity": 102,
              "position": 3.0208333333333335,
              "duration": 0.052083333333333336
            },
            {
              "pitch": 57,
              "velocity": 78,
              "position": 3.5208333333333335,
              "duration": 0.46875
            },
            {
              "pitch": 60,
              "velocity": 77,
              "position": 3.5104166666666665,
              "duration": 0.4895833333333333
            },
            {
              "pitch": 64,
              "velocity": 72,
              "position": 3.5,
              "duration": 0.5104166666666666
            },
            {
              "pitch": 65,
              "velocity": 85,
              "position": 4.020833333333333,
              "duration": 0.46875
            },
            {
              "pitch": 60,
              "velocity": 85,
              "position": 4.010416666666667,
              "duration": 0.4895833333333333
            },
            {
              "pitch": 57,
              "velocity": 84,
              "position": 4,
              "duration": 0.5104166666666666
            },
            {
              "pitch": 57,
              "velocity": 72,
              "position": 4.520833333333333,
              "duration": 0.46875
            },
            {
              "pitch": 60,
              "velocity": 71,
              "position": 4.510416666666667,
              "duration": 0.4895833333333333
            },
            {
              "pitch": 65,
              "velocity": 71,
              "position": 4.5,
              "duration": 0.5104166666666666
            },
            {
              "pitch": 57,
              "velocity": 102,
              "position": 5,
              "duration": 0.07291666666666667
            },
            {
              "pitch": 60,
              "velocity": 102,
              "position": 5.010416666666667,
              "duration": 0.0625
            },
            {
              "pitch": 65,
              "velocity": 102,
              "position": 5.020833333333333,
              "duration": 0.052083333333333336
            },
            {
              "pitch": 55,
              "velocity": 82,
              "position": 5.520833333333333,
              "duration": 0.96875
            },
            {
              "pitch": 59,
              "velocity": 80,
              "position": 5.510416666666667,
              "duration": 0.9791666666666666
            },
            {
              "pitch": 62,
              "velocity": 80,
              "position": 5.5,
              "duration": 0.9895833333333334
            },
            {
              "pitch": 55,
              "velocity": 70,
              "position": 6.520833333333333,
              "duration": 0.46875
            },
            {
              "pitch": 59,
              "velocity": 70,
              "position": 6.510416666666667,
              "duration": 0.4895833333333333
            },
            {
              "pitch": 62,
              "velocity": 71,
              "position": 6.5,
              "duration": 0.5104166666666666
            },
            {
              "pitch": 55,
              "velocity": 99,
              "position": 7,
              "duration": 0.07291666666666667
            },
            {
              "pitch": 59,
              "velocity": 99,
              "position": 7.010416666666667,
              "duration": 0.0625
            },
            {
              "pitch": 62,
              "velocity": 102,
              "position": 7.020833333333333,
              "duration": 0.052083333333333336
            },
            {
              "pitch": 55,
              "velocity": 77,
              "position": 7.520833333333333,
              "duration": 0.46875
            },
            {
              "pitch": 59,
              "velocity": 73,
              "position": 7.510416666666667,
              "duration": 0.4791666666666667
            },
            {
              "pitch": 62,
              "velocity": 72,
              "position": 7.5,
              "duration": 0.4895833333333333
            },
            {
              "pitch": 64,
              "velocity": 85,
              "position": 8.020833333333334,
              "duration": 0.46875
            },
            {
              "pitch": 60,
              "velocity": 84,
              "position": 8.010416666666666,
              "duration": 0.4895833333333333
            },
            {
              "pitch": 55,
              "velocity": 82,
              "position": 8,
              "duration": 0.5104166666666666
            },
            {
              "pitch": 55,
              "velocity": 70,
              "position": 8.520833333333334,
              "duration": 0.46875
            },
            {
              "pitch": 60,
              "velocity": 72,
              "position": 8.510416666666666,
              "duration": 0.4895833333333333
            },
            {
              "pitch": 64,
              "velocity": 71,
              "position": 8.5,
              "duration": 0.5104166666666666
            },
            {
              "pitch": 55,
              "velocity": 99,
              "position": 9,
              "duration": 0.07291666666666667
            },
            {
              "pitch": 60,
              "velocity": 102,
              "position": 9.010416666666666,
              "duration": 0.0625
            },
            {
              "pitch": 64,
              "velocity": 102,
              "position": 9.020833333333334,
              "duration": 0.052083333333333336
            },
            {
              "pitch": 55,
              "velocity": 73,
              "position": 9.520833333333334,
              "duration": 0.46875
            },
            {
              "pitch": 60,
              "velocity": 77,
              "position": 9.510416666666666,
              "duration": 0.4895833333333333
            },
            {
              "pitch": 64,
              "velocity": 72,
              "position": 9.5,
              "duration": 0.5104166666666666
            },
            {
              "pitch": 65,
              "velocity": 85,
              "position": 10.020833333333334,
              "duration": 0.46875
            },
            {
              "pitch": 60,
              "velocity": 85,
              "position": 10.010416666666666,
              "duration": 0.4895833333333333
            },
            {
              "pitch": 57,
              "velocity": 84,
              "position": 10,
              "duration": 0.5104166666666666
            },
            {
              "pitch": 57,
              "velocity": 72,
              "position": 10.520833333333334,
              "duration": 0.46875
            },
            {
              "pitch": 60,
              "velocity": 71,
              "position": 10.510416666666666,
              "duration": 0.4895833333333333
            },
            {
              "pitch": 65,
              "velocity": 71,
              "position": 10.5,
              "duration": 0.5104166666666666
            },
            {
              "pitch": 57,
              "velocity": 102,
              "position": 11,
              "duration": 0.07291666666666667
            },
            {
              "pitch": 60,
              "velocity": 102,
              "position": 11.010416666666666,
              "duration": 0.0625
            },
            {
              "pitch": 65,
              "velocity": 102,
              "position": 11.020833333333334,
              "duration": 0.052083333333333336
            },
            {
              "pitch": 55,
              "velocity": 82,
              "position": 11.5,
              "duration": 0.9895833333333334
            },
            {
              "pitch": 59,
              "velocity": 83,
              "position": 11.510416666666666,
              "duration": 0.9791666666666666
            },
            {
              "pitch": 62,
              "velocity": 85,
              "position": 11.520833333333334,
              "duration": 0.96875
            },
            {
              "pitch": 55,
              "velocity": 70,
              "position": 12.520833333333334,
              "duration": 0.96875
            },
            {
              "pitch": 59,
              "velocity": 69,
              "position": 12.510416666666666,
              "duration": 0.9791666666666666
            },
            {
              "pitch": 62,
              "velocity": 71,
              "position": 12.5,
              "duration": 0.9895833333333334
            },
            {
              "pitch": 55,
              "velocity": 90,
              "position": 13.5,
              "duration": 0.3229166666666667
            },
            {
              "pitch": 59,
              "velocity": 92,
              "position": 13.510416666666666,
              "duration": 0.3125
            },
            {
              "pitch": 62,
              "velocity": 94,
              "position": 13.520833333333334,
              "duration": 0.3020833333333333
            }
          ]
        },
        "13": {
          "ctab": {
            "srcChannel": 13,
            "name": "Pad",
            "accType": "PAD",
            "editable": false,
            "mutedNotes": [],
            "mutedChords": [],
            "autoStart": false,
            "sourceChordNote": 0,
            "sourceChordType": "Maj",
            "ctb2Low": null,
            "ctb2Main": {
              "ntr": "ROOT_TRANSPOSITION",
              "ntt": "HARMONIC_MINOR",
              "bassOn": false,
              "chordRootUpperLimit": 11,
              "noteLowLimit": 56,
              "noteHighLimit": 67,
              "rtr": "PITCH_SHIFT"
            },
            "ctb2High": null
          },
          "notes": [
            {
              "pitch": 55,
              "velocity": 52,
              "position": 0,
              "duration": 1.9895833333333333
            },
            {
              "pitch": 60,
              "velocity": 52,
              "position": 0,
              "duration": 1.9895833333333333
            },
            {
              "pitch": 64,
              "velocity": 52,
              "position": 0,
              "duration": 1.9895833333333333
            },
            {
              "pitch": 57,
              "velocity": 52,
              "position": 2,
              "duration": 1.9895833333333333
            },
            {
              "pitch": 60,
              "velocity": 52,
              "position": 2,
              "duration": 1.9895833333333333
            },
            {
              "pitch": 64,
              "velocity": 52,
              "position": 2,
              "duration": 1.9895833333333333
            },
            {
              "pitch": 57,
              "velocity": 52,
              "position": 4,
              "duration": 1.4895833333333333
            },
            {
              "pitch": 60,
              "velocity": 52,
              "position": 4,
              "duration": 1.4895833333333333
            },
            {
              "pitch": 65,
              "velocity": 52,
              "position": 4,
              "duration": 1.4895833333333333
            },
            {
              "pitch": 55,
              "velocity": 52,
              "position": 5.5,
              "duration": 2.4895833333333335
            },
            {
              "pitch": 59,
              "velocity": 52,
              "position": 5.5,
              "duration": 2.4895833333333335
            },
            {
              "pitch": 62,
              "velocity": 52,
              "position": 5.5,
              "duration": 2.4895833333333335
            },
            {
              "pitch": 55,
              "velocity": 52,
              "position": 8,
              "duration": 1.9895833333333333
            },
            {
              "pitch": 60,
              "velocity": 52,
              "position": 8,
              "duration": 1.9895833333333333
            },
            {
              "pitch": 64,
              "velocity": 52,
              "position": 8,
              "duration": 1.9895833333333333
            },
            {
              "pitch": 57,
              "velocity": 52,
              "position": 10,
              "duration": 1.4895833333333333
            },
            {
              "pitch": 60,
              "velocity": 52,
              "position": 10,
              "duration": 1.4895833333333333
            },
            {
              "pitch": 65,
              "velocity": 52,
              "position": 10,
              "duration": 1.4895833333333333
            },
            {
              "pitch": 55,
              "velocity": 65,
              "position": 11.5,
              "duration": 2.4895833333333335
            },
            {
              "pitch": 59,
              "velocity": 64,
              "position": 11.5,
              "duration": 2.4895833333333335
            },
            {
              "pitch": 62,
              "velocity": 59,
              "position": 11.5,
              "duration": 2.4895833333333335
            }
          ]
        }
      }
    },
    "Ending_C": {
      "type": "Ending_C",
      "sizeInBeats": 8,
      "channels": {
        "1": {
          "ctab": {
            "srcChannel": 1,
            "name": "E-Pia",
            "accType": "PHRASE1",
            "editable": false,
            "mutedNotes": [],
            "mutedChords": [],
            "autoStart": false,
            "sourceChordNote": 0,
            "sourceChordType": "Maj",
            "ctb2Low": null,
            "ctb2Main": {
              "ntr": "ROOT_TRANSPOSITION",
              "ntt": "HARMONIC_MINOR",
              "bassOn": false,
              "chordRootUpperLimit": 11,
              "noteLowLimit": 57,
              "noteHighLimit": 69,
              "rtr": "PITCH_SHIFT"
            },
            "ctb2High": null
          },
          "notes": [
            {
              "pitch": 60,
              "velocity": 112,
              "position": 0,
              "duration": 1.375
            },
            {
              "pitch": 64,
              "velocity": 112,
              "position": 0,
              "duration": 1.375
            },
            {
              "pitch": 55,
              "velocity": 112,
              "position": 0,
              "duration": 1.4583333333333333
            },
            {
              "pitch": 58,
              "velocity": 114,
              "position": 1.5,
              "duration": 2.2604166666666665
            },
            {
              "pitch": 65,
              "velocity": 114,
              "position": 1.5,
              "duration": 2.2708333333333335
            },
            {
              "pitch": 62,
              "velocity": 114,
              "position": 1.5,
              "duration": 2.2916666666666665
            },
            {
              "pitch": 57,
              "velocity": 108,
              "position": 4,
              "duration": 0.75
            },
            {
              "pitch": 65,
              "velocity": 108,
              "position": 4,
              "duration": 1.2083333333333333
            },
            {
              "pitch": 55,
              "velocity": 110,
              "position": 4.5,
              "duration": 0.75
            },
            {
              "pitch": 60,
              "velocity": 108,
              "position": 4,
              "duration": 1.25
            },
            {
              "pitch": 55,
              "velocity": 100,
              "position": 5.5,
              "duration": 2.4895833333333335
            },
            {
              "pitch": 60,
              "velocity": 110,
              "position": 5.5,
              "duration": 2.4895833333333335
            },
            {
              "pitch": 64,
              "velocity": 110,
              "position": 5.5,
              "duration": 2.4895833333333335
            }
          ]
        },
        "2": {
          "ctab": {
            "srcChannel": 2,
            "name": "A-Gtr",
            "accType": "CHORD2",
            "editable": false,
            "mutedNotes": [],
            "mutedChords": [],
            "autoStart": false,
            "sourceChordNote": 0,
            "sourceChordType": "Maj",
            "ctb2Low": null,
            "ctb2Main": {
              "ntr": "ROOT_TRANSPOSITION",
              "ntt": "HARMONIC_MINOR",
              "bassOn": false,
              "chordRootUpperLimit": 11,
              "noteLowLimit": 56,
              "noteHighLimit": 67,
              "rtr": "PITCH_SHIFT"
            },
            "ctb2High": null
          },
          "notes": [
            {
              "pitch": 55,
              "velocity": 52,
              "position": 0,
              "duration": 1.4791666666666667
            },
            {
              "pitch": 60,
              "velocity": 52,
              "position": 0.020833333333333332,
              "duration": 1.4791666666666667
            },
            {
              "pitch": 64,
              "velocity": 52,
              "position": 0.041666666666666664,
              "duration": 1.4583333333333333
            },
            {
              "pitch": 53,
              "velocity": 63,
              "position": 1.5,
              "duration": 2.4791666666666665
            },
            {
              "pitch": 58,
              "velocity": 71,
              "position": 1.525,
              "duration": 2.4791666666666665
            },
            {
              "pitch": 62,
              "velocity": 71,
              "position": 1.5458333333333334,
              "duration": 2.4583333333333335
            },
            {
              "pitch": 60,
              "velocity": 84,
              "position": 4,
              "duration": 1.4791666666666667
            },
            {
              "pitch": 55,
              "velocity": 73,
              "position": 5.5,
              "duration": 2.4791666666666665
            },
            {
              "pitch": 60,
              "velocity": 71,
              "position": 5.5,
              "duration": 2.4791666666666665
            }
          ]
        },
        "4": {
          "ctab": {
            "srcChannel": 4,
            "name": "Strums",
            "accType": "CHORD2",
            "editable": false,
            "mutedNotes": [],
            "mutedChords": [],
            "autoStart": false,
            "sourceChordNote": 0,
            "sourceChordType": "min7(11)",
            "ctb2Low": null,
            "ctb2Main": {
              "ntr": "ROOT_FIXED",
              "ntt": "BYPASS",
              "bassOn": false,
              "chordRootUpperLimit": 7,
              "noteLowLimit": 0,
              "noteHighLimit": 127,
              "rtr": "PITCH_SHIFT"
            },
            "ctb2High": null
          },
          "notes": []
        },
        "8": {
          "ctab": {
            "srcChannel": 8,
            "name": "AddDrums",
            "accType": "SUBRHYTHM",
            "editable": false,
            "mutedNotes": [],
            "mutedChords": [],
            "autoStart": true,
            "sourceChordNote": 0,
            "sourceChordType": "Maj7",
            "ctb2Low": null,
            "ctb2Main": {
              "ntr": "ROOT_FIXED",
              "ntt": "BYPASS",
              "bassOn": false,
              "chordRootUpperLimit": 6,
              "noteLowLimit": 0,
              "noteHighLimit": 127,
              "rtr": "PITCH_SHIFT"
            },
            "ctb2High": null
          },
          "notes": [
            {
              "pitch": 54,
              "velocity": 60,
              "position": 0,
              "duration": 0.041666666666666664
            },
            {
              "pitch": 54,
              "velocity": 80,
              "position": 1.5,
              "duration": 0.041666666666666664
            },
            {
              "pitch": 54,
              "velocity": 59,
              "position": 4,
              "duration": 0.041666666666666664
            },
            {
              "pitch": 54,
              "velocity": 80,
              "position": 5.5,
              "duration": 0.041666666666666664
            }
          ]
        },
        "9": {
          "ctab": {
            "srcChannel": 9,
            "name": "Rhyth2",
            "accType": "RHYTHM",
            "editable": false,
            "mutedNotes": [],
            "mutedChords": [],
            "autoStart": true,
            "sourceChordNote": 0,
            "sourceChordType": "Maj7",
            "ctb2Low": null,
            "ctb2Main": {
              "ntr": "ROOT_FIXED",
              "ntt": "BYPASS",
              "bassOn": false,
              "chordRootUpperLimit": 6,
              "noteLowLimit": 0,
              "noteHighLimit": 127,
              "rtr": "PITCH_SHIFT"
            },
            "ctb2High": null
          },
          "notes": [
            {
              "pitch": 49,
              "velocity": 51,
              "position": 0,
              "duration": 0.010416666666666666
            },
            {
              "pitch": 38,
              "velocity": 85,
              "position": 0,
              "duration": 0.041666666666666664
            },
            {
              "pitch": 36,
              "velocity": 92,
              "position": 0.5,
              "duration": 0.041666666666666664
            },
            {
              "pitch": 48,
              "velocity": 65,
              "position": 0.5,
              "duration": 0.041666666666666664
            },
            {
              "pitch": 47,
              "velocity": 65,
              "position": 1,
              "duration": 0.041666666666666664
            },
            {
              "pitch": 36,
              "velocity": 92,
              "position": 1.5,
              "duration": 0.041666666666666664
            },
            {
              "pitch": 38,
              "velocity": 88,
              "position": 1.5,
              "duration": 0.041666666666666664
            },
            {
              "pitch": 57,
              "velocity": 55,
              "position": 1.5,
              "duration": 0.041666666666666664
            },
            {
              "pitch": 43,
              "velocity": 65,
              "position": 2.5,
              "duration": 0.041666666666666664
            },
            {
              "pitch": 38,
              "velocity": 85,
              "position": 3,
              "duration": 0.041666666666666664
            },
            {
              "pitch": 44,
              "velocity": 65,
              "position": 3,
              "duration": 0.041666666666666664
            },
            {
              "pitch": 36,
              "velocity": 68,
              "position": 3.5,
              "duration": 0.041666666666666664
            },
            {
              "pitch": 46,
              "velocity": 60,
              "position": 3.5,
              "duration": 0.041666666666666664
            },
            {
              "pitch": 57,
              "velocity": 55,
              "position": 4,
              "duration": 0.010416666666666666
            },
            {
              "pitch": 36,
              "velocity": 92,
              "position": 4,
              "duration": 0.041666666666666664
            },
            {
              "pitch": 36,
              "velocity": 92,
              "position": 4.5,
              "duration": 0.041666666666666664
            },
            {
              "pitch": 38,
              "velocity": 38,
              "position": 4.666666666666667,
              "duration": 0.041666666666666664
            },
            {
              "pitch": 38,
              "velocity": 46,
              "position": 4.833333333333333,
              "duration": 0.041666666666666664
            },
            {
              "pitch": 38,
              "velocity": 88,
              "position": 5,
              "duration": 0.041666666666666664
            },
            {
              "pitch": 36,
              "velocity": 92,
              "position": 5.5,
              "duration": 0.041666666666666664
            },
            {
              "pitch": 49,
              "velocity": 51,
              "position": 5.5,
              "duration": 0.041666666666666664
            }
          ]
        },
        "10": {
          "ctab": {
            "srcChannel": 10,
            "name": "Bass",
            "accType": "BASS",
            "editable": false,
            "mutedNotes": [],
            "mutedChords": [],
            "autoStart": false,
            "sourceChordNote": 0,
            "sourceChordType": "Maj",
            "ctb2Low": null,
            "ctb2Main": {
              "ntr": "ROOT_TRANSPOSITION",
              "ntt": "HARMONIC_MINOR",
              "bassOn": false,
              "chordRootUpperLimit": 3,
              "noteLowLimit": 28,
              "noteHighLimit": 127,
              "rtr": "PITCH_SHIFT"
            },
            "ctb2High": null
          },
          "notes": [
            {
              "pitch": 24,
              "velocity": 83,
              "position": 0,
              "duration": 0.90625
            },
            {
              "pitch": 24,
              "velocity": 83,
              "position": 1,
              "duration": 0.4895833333333333
            },
            {
              "pitch": 22,
              "velocity": 83,
              "position": 1.5,
              "duration": 2.4895833333333335
            },
            {
              "pitch": 17,
              "velocity": 83,
              "position": 4,
              "duration": 0.9479166666666666
            },
            {
              "pitch": 17,
              "velocity": 83,
              "position": 5,
              "duration": 0.4895833333333333
            },
            {
              "pitch": 24,
              "velocity": 83,
              "position": 5.5,
              "duration": 2.4895833333333335
            }
          ]
        },
        "11": {
          "ctab": {
            "srcChannel": 11,
            "name": "Chord1",
            "accType": "CHORD1",
            "editable": false,
            "mutedNotes": [],
            "mutedChords": [],
            "autoStart": false,
            "sourceChordNote": 0,
            "sourceChordType": "Maj",
            "ctb2Low": null,
            "ctb2Main": {
              "ntr": "ROOT_TRANSPOSITION",
              "ntt": "HARMONIC_MINOR",
              "bassOn": false,
              "chordRootUpperLimit": 11,
              "noteLowLimit": 54,
              "noteHighLimit": 65,
              "rtr": "PITCH_SHIFT"
            },
            "ctb2High": null
          },
          "notes": [
            {
              "pitch": 55,
              "velocity": 90,
              "position": 0,
              "duration": 0.9895833333333334
            },
            {
              "pitch": 60,
              "velocity": 96,
              "position": 0.010416666666666666,
              "duration": 0.9791666666666666
            },
            {
              "pitch": 64,
              "velocity": 98,
              "position": 0.020833333333333332,
              "duration": 0.96875
            },
            {
              "pitch": 55,
              "velocity": 47,
              "position": 1.0208333333333333,
              "duration": 0.46875
            },
            {
              "pitch": 60,
              "velocity": 73,
              "position": 1.0104166666666667,
              "duration": 0.4895833333333333
            },
            {
              "pitch": 64,
              "velocity": 72,
              "position": 1,
              "duration": 0.5104166666666666
            },
            {
              "pitch": 53,
              "velocity": 98,
              "position": 1.5208333333333333,
              "duration": 2.46875
            },
            {
              "pitch": 58,
              "velocity": 96,
              "position": 1.5104166666666667,
              "duration": 2.4791666666666665
            },
            {
              "pitch": 62,
              "velocity": 94,
              "position": 1.5,
              "duration": 2.4895833333333335
            },
            {
              "pitch": 53,
              "velocity": 96,
              "position": 4,
              "duration": 0.9895833333333334
            },
            {
              "pitch": 57,
              "velocity": 97,
              "position": 4.010416666666667,
              "duration": 0.9791666666666666
            },
            {
              "pitch": 60,
              "velocity": 98,
              "position": 4.020833333333333,
              "duration": 0.96875
            },
            {
              "pitch": 53,
              "velocity": 83,
              "position": 5,
              "duration": 0.4895833333333333
            },
            {
              "pitch": 57,
              "velocity": 85,
              "position": 5.010416666666667,
              "duration": 0.4791666666666667
            },
            {
              "pitch": 55,
              "velocity": 96,
              "position": 5.520833333333333,
              "duration": 2.46875
            },
            {
              "pitch": 64,
              "velocity": 96,
              "position": 5.5,
              "duration": 2.4895833333333335
            },
            {
              "pitch": 60,
              "velocity": 98,
              "position": 5.020833333333333,
              "duration": 2.9791666666666665
            }
          ]
        },
        "13": {
          "ctab": {
            "srcChannel": 13,
            "name": "Pad",
            "accType": "PAD",
            "editable": false,
            "mutedNotes": [],
            "mutedChords": [],
            "autoStart": false,
            "sourceChordNote": 0,
            "sourceChordType": "Maj",
            "ctb2Low": null,
            "ctb2Main": {
              "ntr": "ROOT_TRANSPOSITION",
              "ntt": "HARMONIC_MINOR",
              "bassOn": false,
              "chordRootUpperLimit": 11,
              "noteLowLimit": 56,
              "noteHighLimit": 67,
              "rtr": "PITCH_SHIFT"
            },
            "ctb2High": null
          },
          "notes": [
            {
              "pitch": 55,
              "velocity": 52,
              "position": 0,
              "duration": 1.4895833333333333
            },
            {
              "pitch": 60,
              "velocity": 52,
              "position": 0,
              "duration": 1.4895833333333333
            },
            {
              "pitch": 64,
              "velocity": 52,
              "position": 0,
              "duration": 1.4895833333333333
            },
            {
              "pitch": 58,
              "velocity": 52,
              "position": 1.5,
              "duration": 2.4895833333333335
            },
            {
              "pitch": 62,
              "velocity": 52,
              "position": 1.5,
              "duration": 2.4895833333333335
            },
            {
              "pitch": 65,
              "velocity": 52,
              "position": 1.5,
              "duration": 2.4895833333333335
            },
            {
              "pitch": 57,
              "velocity": 52,
              "position": 4,
              "duration": 1.4895833333333333
            },
            {
              "pitch": 60,
              "velocity": 52,
              "position": 4,
              "duration": 1.4895833333333333
            },
            {
              "pitch": 65,
              "velocity": 52,
              "position": 4,
              "duration": 1.4895833333333333
            },
            {
              "pitch": 55,
              "velocity": 52,
              "position": 5.5,
              "duration": 2.4895833333333335
            },
            {
              "pitch": 60,
              "velocity": 52,
              "position": 5.5,
              "duration": 2.4895833333333335
            },
            {
              "pitch": 64,
              "velocity": 52,
              "position": 5.5,
              "duration": 2.4895833333333335
            }
          ]
        }
      }
    }
  }
}