{
  "name": "!MrMac'sBlues.T148.STY",
  "tempo": 63,
  "timeSignature": "4/4",
  "ticksPerQuarter": 1920,
  "sffType": "SFF2",
  "division": "EIGHTH_TRIPLET",
  "parts": {
    "Main_A": {
      "type": "Main_A",
      "sizeInBeats": 8,
      "channels": {
        "1": {
          "ctab": {
            "srcChannel": 1,
            "name": "Bass B",
            "accType": "BASS",
            "editable": false,
            "mutedNotes": [],
            "mutedChords": [
              "1+2+5",
              "sus4",
              "1+5",
              "1+8",
              "Maj7aug",
              "7(#9)",
              "7(b13)",
              "7(b9)",
              "7(13)",
              "7#11",
              "7(9)",
              "7b5",
              "7sus4",
              "7th",
              "dim7",
              "min7(11)",
              "min7(9)",
              "min7",
              "min6",
              "Maj6(9)",
              "Maj7(9)",
              "Maj(9)",
              "Maj7#11",
              "Maj7",
              "Maj6",
              "Maj"
            ],
            "autoStart": false,
            "sourceChordNote": 0,
            "sourceChordType": "Maj7",
            "ctb2Low": null,
            "ctb2Main": {
              "ntr": "ROOT_TRANSPOSITION",
              "ntt": "MELODY",
              "bassOn": true,
              "chordRootUpperLimit": 8,
              "noteLowLimit": 28,
              "noteHighLimit": 127,
              "rtr": "PITCH_SHIFT_TO_ROOT"
            },
            "ctb2High": null,
            "ctb2MiddleLowPitch": 0,
            "ctb2MiddleHighPitch": 127
          },
          "notes": [
            {
              "pitch": 24,
              "velocity": 70,
              "position": 0,
              "duration": 0.5875
            },
            {
              "pitch": 24,
              "velocity": 59,
              "position": 0.6666666666666666,
              "duration": 0.25416666666666665
            },
            {
              "pitch": 28,
              "velocity": 70,
              "position": 1,
              "duration": 0.5875
            },
            {
              "pitch": 28,
              "velocity": 59,
              "position": 1.6666666666666667,
              "duration": 0.25416666666666665
            },
            {
              "pitch": 31,
              "velocity": 70,
              "position": 2,
              "duration": 0.5875
            },
            {
              "pitch": 31,
              "velocity": 59,
              "position": 2.6666666666666665,
              "duration": 0.25416666666666665
            },
            {
              "pitch": 28,
              "velocity": 70,
              "position": 3,
              "duration": 0.5875
            },
            {
              "pitch": 31,
              "velocity": 59,
              "position": 3.6666666666666665,
              "duration": 0.25416666666666665
            },
            {
              "pitch": 24,
              "velocity": 70,
              "position": 4,
              "duration": 0.5875
            },
            {
              "pitch": 24,
              "velocity": 59,
              "position": 4.666666666666667,
              "duration": 0.25416666666666665
            },
            {
              "pitch": 28,
              "velocity": 70,
              "position": 5,
              "duration": 0.5875
            },
            {
              "pitch": 28,
              "velocity": 59,
              "position": 5.666666666666667,
              "duration": 0.25416666666666665
            },
            {
              "pitch": 31,
              "velocity": 70,
              "position": 6,
              "duration": 0.5875
            },
            {
              "pitch": 31,
              "velocity": 59,
              "position": 6.666666666666667,
              "duration": 0.25416666666666665
            },
            {
              "pitch": 36,
              "velocity": 70,
              "position": 7,
              "duration": 0.30625
            },
            {
              "pitch": 31,
              "velocity": 59,
              "position": 7.33125,
              "duration": 0.30625
            },
            {
              "pitch": 28,
              "velocity": 59,
              "position": 7.666666666666667,
              "duration": 0.30625
            }
          ]
        },
        "3": {
          "ctab": {
            "srcChannel": 3,
            "name": "Pno RH S",
            "accType": "CHORD2",
            "editable": false,
            "mutedNotes": [],
            "mutedChords": [
              "1+2+5",
              "sus4",
              "1+5",
              "1+8",
              "7aug",
              "Maj7aug",
              "7(#9)",
              "7(b13)",
              "7(b9)",
              "7(13)",
              "7#11",
              "7(9)",
              "7b5",
              "7sus4",
              "7th",
              "dim7",
              "dim",
              "minMaj7(9)",
              "minMaj7",
              "min7(11)",
              "min7(9)",
              "min(9)",
              "m7b5",
              "min7",
              "min6",
              "aug",
              "Maj6(9)",
              "Maj7(9)",
              "Maj(9)",
              "Maj7#11",
              "Maj7",
              "Maj6"
            ],
            "autoStart": false,
            "sourceChordNote": 0,
            "sourceChordType": "Maj7",
            "ctb2Low": null,
            "ctb2Main": {
              "ntr": "ROOT_TRANSPOSITION",
              "ntt": "DORIAN_5",
              "bassOn": false,
              "chordRootUpperLimit": 11,
              "noteLowLimit": 54,
              "noteHighLimit": 127,
              "rtr": "PITCH_SHIFT"
            },
            "ctb2High": null,
            "ctb2MiddleLowPitch": 0,
            "ctb2MiddleHighPitch": 127
          },
          "notes": [
            {
              "pitch": 43,
              "velocity": 70,
              "position": 0,
              "duration": 0.31666666666666665
            },
            {
              "pitch": 52,
              "velocity": 57,
              "position": 0,
              "duration": 0.31666666666666665
            },
            {
              "pitch": 48,
              "velocity": 52,
              "position": 0,
              "duration": 0.31666666666666665
            },
            {
              "pitch": 46,
              "velocity": 52,
              "position": 0,
              "duration": 0.31666666666666665
            },
            {
              "pitch": 43,
              "velocity": 62,
              "position": 0.3333333333333333,
              "duration": 0.31875
            },
            {
              "pitch": 52,
              "velocity": 57,
              "position": 0.3333333333333333,
              "duration": 0.31875
            },
            {
              "pitch": 48,
              "velocity": 64,
              "position": 0.3333333333333333,
              "duration": 0.31875
            },
            {
              "pitch": 46,
              "velocity": 64,
              "position": 0.3333333333333333,
              "duration": 0.31875
            },
            {
              "pitch": 43,
              "velocity": 65,
              "position": 0.6645833333333333,
              "duration": 0.32083333333333336
            },
            {
              "pitch": 52,
              "velocity": 49,
              "position": 0.6645833333333333,
              "duration": 0.32083333333333336
            },
            {
              "pitch": 48,
              "velocity": 43,
              "position": 0.6645833333333333,
              "duration": 0.32083333333333336
            },
            {
              "pitch": 46,
              "velocity": 43,
              "position": 0.6645833333333333,
              "duration": 0.32083333333333336
            },
            {
              "pitch": 43,
              "velocity": 57,
              "position": 1,
              "duration": 0.31666666666666665
            },
            {
              "pitch": 52,
              "velocity": 45,
              "position": 1,
              "duration": 0.31666666666666665
            },
            {
              "pitch": 48,
              "velocity": 40,
              "position": 1,
              "duration": 0.31666666666666665
            },
            {
              "pitch": 46,
              "velocity": 40,
              "position": 1,
              "duration": 0.31666666666666665
            },
            {
              "pitch": 43,
              "velocity": 53,
              "position": 1.3333333333333333,
              "duration": 0.31875
            },
            {
              "pitch": 52,
              "velocity": 47,
              "position": 1.3333333333333333,
              "duration": 0.31875
            },
            {
              "pitch": 48,
              "velocity": 36,
              "position": 1.3333333333333333,
              "duration": 0.31875
            },
            {
              "pitch": 46,
              "velocity": 36,
              "position": 1.3333333333333333,
              "duration": 0.31875
            },
            {
              "pitch": 43,
              "velocity": 53,
              "position": 1.6645833333333333,
              "duration": 0.32083333333333336
            },
            {
              "pitch": 52,
              "velocity": 56,
              "position": 1.6645833333333333,
              "duration": 0.32083333333333336
            },
            {
              "pitch": 48,
              "velocity": 35,
              "position": 1.6645833333333333,
              "duration": 0.32083333333333336
            },
            {
              "pitch": 46,
              "velocity": 35,
              "position": 1.6645833333333333,
              "duration": 0.32083333333333336
            },
            {
              "pitch": 43,
              "velocity": 60,
              "position": 2,
              "duration": 0.31875
            },
            {
              "pitch": 52,
              "velocity": 50,
              "position": 2,
              "duration": 0.31875
            },
            {
              "pitch": 48,
              "velocity": 56,
              "position": 2,
              "duration": 0.31875
            },
            {
              "pitch": 46,
              "velocity": 56,
              "position": 2,
              "duration": 0.31875
            },
            {
              "pitch": 43,
              "velocity": 54,
              "position": 2.3333333333333335,
              "duration": 0.31875
            },
            {
              "pitch": 52,
              "velocity": 45,
              "position": 2.3333333333333335,
              "duration": 0.31875
            },
            {
              "pitch": 48,
              "velocity": 37,
              "position": 2.3333333333333335,
              "duration": 0.31875
            },
            {
              "pitch": 46,
              "velocity": 37,
              "position": 2.3333333333333335,
              "duration": 0.31875
            },
            {
              "pitch": 43,
              "velocity": 37,
              "position": 2.6666666666666665,
              "duration": 0.31875
            },
            {
              "pitch": 52,
              "velocity": 54,
              "position": 2.6666666666666665,
              "duration": 0.31875
            },
            {
              "pitch": 48,
              "velocity": 40,
              "position": 2.6666666666666665,
              "duration": 0.31875
            },
            {
              "pitch": 46,
              "velocity": 40,
              "position": 2.6666666666666665,
              "duration": 0.31875
            },
            {
              "pitch": 43,
              "velocity": 68,
              "position": 3,
              "duration": 0.31875
            },
            {
              "pitch": 52,
              "velocity": 63,
              "position": 3,
              "duration": 0.31875
            },
            {
              "pitch": 48,
              "velocity": 53,
              "position": 3,
              "duration": 0.31875
            },
            {
              "pitch": 46,
              "velocity": 53,
              "position": 3,
              "duration": 0.31875
            },
            {
              "pitch": 43,
              "velocity": 49,
              "position": 3.3333333333333335,
              "duration": 0.20833333333333334
            },
            {
              "pitch": 52,
              "velocity": 53,
              "position": 3.3333333333333335,
              "duration": 0.31875
            },
            {
              "pitch": 46,
              "velocity": 49,
              "position": 3.3333333333333335,
              "duration": 0.31875
            },
            {
              "pitch": 48,
              "velocity": 49,
              "position": 3.3333333333333335,
              "duration": 0.31875
            },
            {
              "pitch": 43,
              "velocity": 66,
              "position": 3.5520833333333335,
              "duration": 0.43333333333333335
            },
            {
              "pitch": 53,
              "velocity": 78,
              "position": 3.6666666666666665,
              "duration": 0.31875
            },
            {
              "pitch": 48,
              "velocity": 80,
              "position": 3.6666666666666665,
              "duration": 0.31875
            },
            {
              "pitch": 45,
              "velocity": 90,
              "position": 3.6666666666666665,
              "duration": 0.31875
            },
            {
              "pitch": 43,
              "velocity": 71,
              "position": 4,
              "duration": 0.31875
            },
            {
              "pitch": 52,
              "velocity": 59,
              "position": 4,
              "duration": 0.31875
            },
            {
              "pitch": 48,
              "velocity": 61,
              "position": 4,
              "duration": 0.31875
            },
            {
              "pitch": 46,
              "velocity": 61,
              "position": 4,
              "duration": 0.31875
            },
            {
              "pitch": 43,
              "velocity": 54,
              "position": 4.333333333333333,
              "duration": 0.31875
            },
            {
              "pitch": 52,
              "velocity": 57,
              "position": 4.333333333333333,
              "duration": 0.31875
            },
            {
              "pitch": 48,
              "velocity": 41,
              "position": 4.333333333333333,
              "duration": 0.31875
            },
            {
              "pitch": 46,
              "velocity": 41,
              "position": 4.333333333333333,
              "duration": 0.31875
            },
            {
              "pitch": 43,
              "velocity": 45,
              "position": 4.666666666666667,
              "duration": 0.31875
            },
            {
              "pitch": 52,
              "velocity": 45,
              "position": 4.666666666666667,
              "duration": 0.31875
            },
            {
              "pitch": 48,
              "velocity": 42,
              "position": 4.666666666666667,
              "duration": 0.31875
            },
            {
              "pitch": 46,
              "velocity": 42,
              "position": 4.666666666666667,
              "duration": 0.31875
            },
            {
              "pitch": 43,
              "velocity": 57,
              "position": 5,
              "duration": 0.31875
            },
            {
              "pitch": 52,
              "velocity": 60,
              "position": 5,
              "duration": 0.31875
            },
            {
              "pitch": 48,
              "velocity": 47,
              "position": 5,
              "duration": 0.31875
            },
            {
              "pitch": 46,
              "velocity": 47,
              "position": 5,
              "duration": 0.31875
            },
            {
              "pitch": 43,
              "velocity": 42,
              "position": 5.333333333333333,
              "duration": 0.31875
            },
            {
              "pitch": 52,
              "velocity": 41,
              "position": 5.333333333333333,
              "duration": 0.31875
            },
            {
              "pitch": 48,
              "velocity": 36,
              "position": 5.333333333333333,
              "duration": 0.31875
            },
            {
              "pitch": 46,
              "velocity": 36,
              "position": 5.333333333333333,
              "duration": 0.31875
            },
            {
              "pitch": 43,
              "velocity": 50,
              "position": 5.666666666666667,
              "duration": 0.31875
            },
            {
              "pitch": 52,
              "velocity": 57,
              "position": 5.666666666666667,
              "duration": 0.31875
            },
            {
              "pitch": 48,
              "velocity": 52,
              "position": 5.666666666666667,
              "duration": 0.31875
            },
            {
              "pitch": 46,
              "velocity": 52,
              "position": 5.666666666666667,
              "duration": 0.31875
            },
            {
              "pitch": 43,
              "velocity": 49,
              "position": 6,
              "duration": 0.31875
            },
            {
              "pitch": 52,
              "velocity": 42,
              "position": 6,
              "duration": 0.31875
            },
            {
              "pitch": 48,
              "velocity": 47,
              "position": 6,
              "duration": 0.31875
            },
            {
              "pitch": 46,
              "velocity": 47,
              "position": 6,
              "duration": 0.31875
            },
            {
              "pitch": 43,
              "velocity": 49,
              "position": 6.333333333333333,
              "duration": 0.31875
            },
            {
              "pitch": 52,
              "velocity": 36,
              "position": 6.333333333333333,
              "duration": 0.31875
            },
            {
              "pitch": 48,
              "velocity": 38,
              "position": 6.333333333333333,
              "duration": 0.31875
            },
            {
              "pitch": 46,
              "velocity": 38,
              "position": 6.333333333333333,
              "duration": 0.31875
            },
            {
              "pitch": 46,
              "velocity": 42,
              "position": 6.666666666666667,
              "duration": 0.31875
            },
            {
              "pitch": 52,
              "velocity": 43,
              "position": 6.666666666666667,
              "duration": 0.31875
            },
            {
              "pitch": 48,
              "velocity": 42,
              "position": 6.666666666666667,
              "duration": 0.31875
            },
            {
              "pitch": 43,
              "velocity": 52,
              "position": 6.666666666666667,
              "duration": 0.5416666666666666
            },
            {
              "pitch": 52,
              "velocity": 45,
              "position": 7,
              "duration": 0.31875
            },
            {
              "pitch": 46,
              "velocity": 52,
              "position": 7,
              "duration": 0.31875
            },
            {
              "pitch": 48,
              "velocity": 52,
              "position": 7,
              "duration": 0.31875
            },
            {
              "pitch": 43,
              "velocity": 64,
              "position": 7.21875,
              "duration": 0.31875
            },
            {
              "pitch": 53,
              "velocity": 68,
              "position": 7.333333333333333,
              "duration": 0.31875
            },
            {
              "pitch": 45,
              "velocity": 76,
              "position": 7.333333333333333,
              "duration": 0.31875
            },
            {
              "pitch": 48,
              "velocity": 76,
              "position": 7.333333333333333,
              "duration": 0.31875
            },
            {
              "pitch": 43,
              "velocity": 68,
              "position": 7.552083333333333,
              "duration": 0.43333333333333335
            },
            {
              "pitch": 52,
              "velocity": 68,
              "position": 7.666666666666667,
              "duration": 0.31875
            },
            {
              "pitch": 48,
              "velocity": 82,
              "position": 7.666666666666667,
              "duration": 0.31875
            }
          ]
        },
        "5": {
          "ctab": {
            "srcChannel": 5,
            "name": "Tele S M",
            "accType": "PHRASE1",
            "editable": false,
            "mutedNotes": [],
            "mutedChords": [
              "1+2+5",
              "sus4",
              "1+5",
              "1+8",
              "7aug",
              "Maj7aug",
              "7(#9)",
              "7(b13)",
              "7(b9)",
              "7(13)",
              "7#11",
              "7(9)",
              "7b5",
              "7sus4",
              "7th",
              "dim7",
              "dim",
              "minMaj7(9)",
              "minMaj7",
              "min7(11)",
              "min7(9)",
              "min(9)",
              "m7b5",
              "min7",
              "min6",
              "min",
              "aug",
              "Maj6(9)",
              "Maj7(9)",
              "Maj(9)",
              "Maj7#11",
              "Maj7",
              "Maj6"
            ],
            "autoStart": false,
            "sourceChordNote": 0,
            "sourceChordType": "Maj7",
            "ctb2Low": null,
            "ctb2Main": {
              "ntr": "ROOT_TRANSPOSITION",
              "ntt": "DORIAN_5",
              "bassOn": false,
              "chordRootUpperLimit": 2,
              "noteLowLimit": 0,
              "noteHighLimit": 127,
              "rtr": "PITCH_SHIFT"
            },
            "ctb2High": null,
            "ctb2MiddleLowPitch": 0,
            "ctb2MiddleHighPitch": 127
          },
          "notes": [
            {
              "pitch": 72,
              "velocity": 22,
              "position": 0.6645833333333333,
              "duration": 3.2645833333333334
            },
            {
              "pitch": 64,
              "velocity": 116,
              "position": 0.3333333333333333,
              "duration": 3.597916666666667
            },
            {
              "pitch": 62,
              "velocity": 30,
              "position": 4.333333333333333,
              "duration": 0.30625
            },
            {
              "pitch": 60,
              "velocity": 16,
              "position": 4.666666666666667,
              "duration": 3.2645833333333334
            }
          ]
        },
        "7": {
          "ctab": {
            "srcChannel": 7,
            "name": "Tele S m",
            "accType": "PHRASE1",
            "editable": false,
            "mutedNotes": [],
            "mutedChords": [
              "1+2+5",
              "sus4",
              "1+5",
              "1+8",
              "7aug",
              "Maj7aug",
              "7(#9)",
              "7(b13)",
              "7(b9)",
              "7(13)",
              "7#11",
              "7(9)",
              "7b5",
              "7sus4",
              "7th",
              "dim7",
              "dim",
              "minMaj7(9)",
              "minMaj7",
              "min7(11)",
              "min7(9)",
              "min(9)",
              "m7b5",
              "min7",
              "min6",
              "aug",
              "Maj6(9)",
              "Maj7(9)",
              "Maj(9)",
              "Maj7#11",
              "Maj7",
              "Maj6",
              "Maj"
            ],
            "autoStart": false,
            "sourceChordNote": 0,
            "sourceChordType": "Maj7",
            "ctb2Low": null,
            "ctb2Main": {
              "ntr": "ROOT_TRANSPOSITION",
              "ntt": "DORIAN_5",
              "bassOn": false,
              "chordRootUpperLimit": 2,
              "noteLowLimit": 0,
              "noteHighLimit": 127,
              "rtr": "PITCH_SHIFT"
            },
            "ctb2High": null,
            "ctb2MiddleLowPitch": 0,
            "ctb2MiddleHighPitch": 127
          },
          "notes": [
            {
              "pitch": 72,
              "velocity": 22,
              "position": 0.6645833333333333,
              "duration": 3.2645833333333334
            },
            {
              "pitch": 64,
              "velocity": 116,
              "position": 0.3333333333333333,
              "duration": 3.597916666666667
            },
            {
              "pitch": 62,
              "velocity": 30,
              "position": 4.333333333333333,
              "duration": 0.30625
            },
            {
              "pitch": 60,
              "velocity": 16,
              "position": 4.666666666666667,
              "duration": 3.2645833333333334
            }
          ]
        },
        "8": {
          "ctab": {
            "srcChannel": 8,
            "name": "AddDrum",
            "accType": "SUBRHYTHM",
            "editable": true,
            "mutedNotes": [],
            "mutedChords": [],
            "autoStart": true,
            "sourceChordNote": 0,
            "sourceChordType": "Maj7",
            "ctb2Low": null,
            "ctb2Main": {
              "ntr": "ROOT_FIXED",
              "ntt": "BYPASS",
              "bassOn": false,
              "chordRootUpperLimit": 6,
              "noteLowLimit": 0,
              "noteHighLimit": 127,
              "rtr": "PITCH_SHIFT"
            },
            "ctb2High": null,
            "ctb2MiddleLowPitch": 0,
            "ctb2MiddleHighPitch": 127
          },
          "notes": [
            {
              "pitch": 54,
              "velocity": 70,
              "position": 3,
              "duration": 0.00625
            },
            {
              "pitch": 54,
              "velocity": 70,
              "position": 7,
              "duration": 0.00625
            }
          ]
        },
        "9": {
          "ctab": {
            "srcChannel": 9,
            "name": "MainDrum",
            "accType": "RHYTHM",
            "editable": true,
            "mutedNotes": [],
            "mutedChords": [],
            "autoStart": true,
            "sourceChordNote": 0,
            "sourceChordType": "Maj7",
            "ctb2Low": null,
            "ctb2Main": {
              "ntr": "ROOT_FIXED",
              "ntt": "BYPASS",
              "bassOn": false,
              "chordRootUpperLimit": 6,
              "noteLowLimit": 0,
              "noteHighLimit": 127,
              "rtr": "PITCH_SHIFT"
            },
            "ctb2High": null,
            "ctb2MiddleLowPitch": 0,
            "ctb2MiddleHighPitch": 127
          },
          "notes": [
            {
              "pitch": 33,
              "velocity": 86,
              "position": 0,
              "duration": 0.00625
            },
            {
              "pitch": 42,
              "velocity": 80,
              "position": 0,
              "duration": 0.00625
            },
            {
              "pitch": 42,
              "velocity": 34,
              "position": 0.33125,
              "duration": 0.00625
            },
            {
              "pitch": 42,
              "velocity": 61,
              "position": 0.6666666666666666,
              "duration": 0.00625
            },
            {
              "pitch": 37,
              "velocity": 92,
              "position": 1,
              "duration": 0.00625
            },
            {
              "pitch": 42,
              "velocity": 80,
              "position": 1,
              "duration": 0.00625
            },
            {
              "pitch": 42,
              "velocity": 34,
              "position": 1.3333333333333333,
              "duration": 0.00625
            },
            {
              "pitch": 33,
              "velocity": 64,
              "position": 1.6666666666666667,
              "duration": 0.00625
            },
            {
              "pitch": 42,
              "velocity": 61,
              "position": 1.6666666666666667,
              "duration": 0.00625
            },
            {
              "pitch": 33,
              "velocity": 86,
              "position": 2,
              "duration": 0.00625
            },
            {
              "pitch": 42,
              "velocity": 80,
              "position": 2,
              "duration": 0.00625
            },
            {
              "pitch": 42,
              "velocity": 34,
              "position": 2.3333333333333335,
              "duration": 0.00625
            },
            {
              "pitch": 42,
              "velocity": 61,
              "position": 2.6666666666666665,
              "duration": 0.00625
            },
            {
              "pitch": 37,
              "velocity": 92,
              "position": 3,
              "duration": 0.00625
            },
            {
              "pitch": 42,
              "velocity": 80,
              "position": 3,
              "duration": 0.00625
            },
            {
              "pitch": 42,
              "velocity": 34,
              "position": 3.3333333333333335,
              "duration": 0.00625
            },
            {
              "pitch": 42,
              "velocity": 61,
              "position": 3.6666666666666665,
              "duration": 0.00625
            },
            {
              "pitch": 33,
              "velocity": 86,
              "position": 4,
              "duration": 0.00625
            },
            {
              "pitch": 42,
              "velocity": 80,
              "position": 4,
              "duration": 0.00625
            },
            {
              "pitch": 42,
              "velocity": 34,
              "position": 4.333333333333333,
              "duration": 0.00625
            },
            {
              "pitch": 42,
              "velocity": 61,
              "position": 4.664583333333334,
              "duration": 0.00625
            },
            {
              "pitch": 37,
              "velocity": 92,
              "position": 5,
              "duration": 0.00625
            },
            {
              "pitch": 42,
              "velocity": 80,
              "position": 5,
              "duration": 0.00625
            },
            {
              "pitch": 42,
              "velocity": 34,
              "position": 5.333333333333333,
              "duration": 0.00625
            },
            {
              "pitch": 33,
              "velocity": 64,
              "position": 5.664583333333334,
              "duration": 0.008333333333333333
            },
            {
              "pitch": 42,
              "velocity": 61,
              "position": 5.664583333333334,
              "duration": 0.008333333333333333
            },
            {
              "pitch": 33,
              "velocity": 86,
              "position": 6,
              "duration": 0.00625
            },
            {
              "pitch": 42,
              "velocity": 80,
              "position": 6,
              "duration": 0.00625
            },
            {
              "pitch": 42,
              "velocity": 34,
              "position": 6.333333333333333,
              "duration": 0.00625
            },
            {
              "pitch": 42,
              "velocity": 61,
              "position": 6.664583333333334,
              "duration": 0.008333333333333333
            },
            {
              "pitch": 37,
              "velocity": 92,
              "position": 7,
              "duration": 0.00625
            },
            {
              "pitch": 42,
              "velocity": 80,
              "position": 7,
              "duration": 0.00625
            },
            {
              "pitch": 42,
              "velocity": 34,
              "position": 7.333333333333333,
              "duration": 0.00625
            },
            {
              "pitch": 42,
              "velocity": 61,
              "position": 7.664583333333334,
              "duration": 0.008333333333333333
            }
          ]
        },
        "10": {
          "ctab": {
            "srcChannel": 10,
            "name": "Bass A",
            "accType": "BASS",
            "editable": false,
            "mutedNotes": [],
            "mutedChords": [
              "7aug",
              "dim",
              "minMaj7(9)",
              "minMaj7",
              "min(9)",
              "m7b5",
              "min",
              "aug"
            ],
            "autoStart": false,
            "sourceChordNote": 0,
            "sourceChordType": "Maj7",
            "ctb2Low": null,
            "ctb2Main": {
              "ntr": "ROOT_TRANSPOSITION",
              "ntt": "MELODY",
              "bassOn": true,
              "chordRootUpperLimit": 8,
              "noteLowLimit": 28,
              "noteHighLimit": 127,
              "rtr": "PITCH_SHIFT_TO_ROOT"
            },
            "ctb2High": null,
            "ctb2MiddleLowPitch": 0,
            "ctb2MiddleHighPitch": 127
          },
          "notes": [
            {
              "pitch": 24,
              "velocity": 70,
              "position": 0,
              "duration": 0.5875
            },
            {
              "pitch": 24,
              "velocity": 59,
              "position": 0.6666666666666666,
              "duration": 0.25416666666666665
            },
            {
              "pitch": 28,
              "velocity": 70,
              "position": 1,
              "duration": 0.5875
            },
            {
              "pitch": 28,
              "velocity": 59,
              "position": 1.6666666666666667,
              "duration": 0.25416666666666665
            },
            {
              "pitch": 31,
              "velocity": 70,
              "position": 2,
              "duration": 0.5875
            },
            {
              "pitch": 31,
              "velocity": 59,
              "position": 2.6666666666666665,
              "duration": 0.25416666666666665
            },
            {
              "pitch": 28,
              "velocity": 70,
              "position": 3,
              "duration": 0.5875
            },
            {
              "pitch": 31,
              "velocity": 59,
              "position": 3.6666666666666665,
              "duration": 0.25416666666666665
            },
            {
              "pitch": 24,
              "velocity": 70,
              "position": 4,
              "duration": 0.5875
            },
            {
              "pitch": 24,
              "velocity": 59,
              "position": 4.666666666666667,
              "duration": 0.25416666666666665
            },
            {
              "pitch": 28,
              "velocity": 70,
              "position": 5,
              "duration": 0.5875
            },
            {
              "pitch": 28,
              "velocity": 59,
              "position": 5.666666666666667,
              "duration": 0.25416666666666665
            },
            {
              "pitch": 31,
              "velocity": 70,
              "position": 6,
              "duration": 0.5875
            },
            {
              "pitch": 31,
              "velocity": 59,
              "position": 6.666666666666667,
              "duration": 0.25416666666666665
            },
            {
              "pitch": 33,
              "velocity": 70,
              "position": 7,
              "duration": 0.30625
            },
            {
              "pitch": 31,
              "velocity": 59,
              "position": 7.33125,
              "duration": 0.30625
            },
            {
              "pitch": 28,
              "velocity": 59,
              "position": 7.666666666666667,
              "duration": 0.30625
            }
          ]
        },
        "11": {
          "ctab": {
            "srcChannel": 11,
            "name": "SolidGtr",
            "accType": "CHORD1",
            "editable": false,
            "mutedNotes": [],
            "mutedChords": [],
            "autoStart": false,
            "sourceChordNote": 0,
            "sourceChordType": "Maj7",
            "ctb2Low": null,
            "ctb2Main": {
              "ntr": "GUITAR",
              "ntt": "ALL_PURPOSE",
              "bassOn": false,
              "chordRootUpperLimit": 7,
              "noteLowLimit": 0,
              "noteHighLimit": 79,
              "rtr": "PITCH_SHIFT"
            },
            "ctb2High": null,
            "ctb2MiddleLowPitch": 0,
            "ctb2MiddleHighPitch": 127
          },
          "notes": [
            {
              "pitch": 65,
              "velocity": 58,
              "position": 1,
              "duration": 0.035416666666666666
            },
            {
              "pitch": 67,
              "velocity": 58,
              "position": 1,
              "duration": 0.035416666666666666
            },
            {
              "pitch": 69,
              "velocity": 58,
              "position": 1.0083333333333333,
              "duration": 0.035416666666666666
            },
            {
              "pitch": 71,
              "velocity": 58,
              "position": 1.0208333333333333,
              "duration": 0.03333333333333333
            },
            {
              "pitch": 100,
              "velocity": 88,
              "position": 1,
              "duration": 0.19166666666666668
            },
            {
              "pitch": 106,
              "velocity": 40,
              "position": 2.3333333333333335,
              "duration": 0.19166666666666668
            },
            {
              "pitch": 65,
              "velocity": 30,
              "position": 2.3333333333333335,
              "duration": 0.30625
            },
            {
              "pitch": 67,
              "velocity": 30,
              "position": 2.3333333333333335,
              "duration": 0.30833333333333335
            },
            {
              "pitch": 69,
              "velocity": 30,
              "position": 2.34375,
              "duration": 0.30625
            },
            {
              "pitch": 71,
              "velocity": 30,
              "position": 2.3541666666666665,
              "duration": 0.30625
            },
            {
              "pitch": 98,
              "velocity": 55,
              "position": 2.6666666666666665,
              "duration": 0.19166666666666668
            },
            {
              "pitch": 65,
              "velocity": 40,
              "position": 2.6666666666666665,
              "duration": 0.30625
            },
            {
              "pitch": 67,
              "velocity": 40,
              "position": 2.6666666666666665,
              "duration": 0.30833333333333335
            },
            {
              "pitch": 69,
              "velocity": 40,
              "position": 2.6770833333333335,
              "duration": 0.30625
            },
            {
              "pitch": 71,
              "velocity": 40,
              "position": 2.6875,
              "duration": 0.30625
            },
            {
              "pitch": 65,
              "velocity": 60,
              "position": 3,
              "duration": 0.035416666666666666
            },
            {
              "pitch": 67,
              "velocity": 60,
              "position": 3,
              "duration": 0.035416666666666666
            },
            {
              "pitch": 69,
              "velocity": 60,
              "position": 3.0104166666666665,
              "duration": 0.035416666666666666
            },
            {
              "pitch": 71,
              "velocity": 60,
              "position": 3.0208333333333335,
              "duration": 0.035416666666666666
            },
            {
              "pitch": 100,
              "velocity": 90,
              "position": 3,
              "duration": 0.19166666666666668
            },
            {
              "pitch": 65,
              "velocity": 58,
              "position": 5,
              "duration": 0.035416666666666666
            },
            {
              "pitch": 67,
              "velocity": 58,
              "position": 5,
              "duration": 0.035416666666666666
            },
            {
              "pitch": 69,
              "velocity": 58,
              "position": 5.010416666666667,
              "duration": 0.035416666666666666
            },
            {
              "pitch": 71,
              "velocity": 58,
              "position": 5.020833333333333,
              "duration": 0.035416666666666666
            },
            {
              "pitch": 100,
              "velocity": 88,
              "position": 5,
              "duration": 0.19166666666666668
            },
            {
              "pitch": 106,
              "velocity": 40,
              "position": 6.333333333333333,
              "duration": 0.19166666666666668
            },
            {
              "pitch": 65,
              "velocity": 30,
              "position": 6.333333333333333,
              "duration": 0.30625
            },
            {
              "pitch": 67,
              "velocity": 30,
              "position": 6.333333333333333,
              "duration": 0.30833333333333335
            },
            {
              "pitch": 69,
              "velocity": 30,
              "position": 6.34375,
              "duration": 0.30625
            },
            {
              "pitch": 71,
              "velocity": 30,
              "position": 6.354166666666667,
              "duration": 0.30625
            },
            {
              "pitch": 98,
              "velocity": 55,
              "position": 6.666666666666667,
              "duration": 0.19166666666666668
            },
            {
              "pitch": 65,
              "velocity": 40,
              "position": 6.666666666666667,
              "duration": 0.30625
            },
            {
              "pitch": 67,
              "velocity": 40,
              "position": 6.666666666666667,
              "duration": 0.30833333333333335
            },
            {
              "pitch": 69,
              "velocity": 40,
              "position": 6.677083333333333,
              "duration": 0.30625
            },
            {
              "pitch": 71,
              "velocity": 40,
              "position": 6.6875,
              "duration": 0.30625
            },
            {
              "pitch": 65,
              "velocity": 60,
              "position": 7,
              "duration": 0.035416666666666666
            },
            {
              "pitch": 67,
              "velocity": 60,
              "position": 7,
              "duration": 0.035416666666666666
            },
            {
              "pitch": 69,
              "velocity": 60,
              "position": 7.010416666666667,
              "duration": 0.035416666666666666
            },
            {
              "pitch": 71,
              "velocity": 60,
              "position": 7.020833333333333,
              "duration": 0.035416666666666666
            },
            {
              "pitch": 100,
              "velocity": 90,
              "position": 7,
              "duration": 0.19166666666666668
            }
          ]
        },
        "12": {
          "ctab": {
            "srcChannel": 12,
            "name": "Pno RH",
            "accType": "CHORD2",
            "editable": false,
            "mutedNotes": [],
            "mutedChords": [
              "min",
              "Maj"
            ],
            "autoStart": false,
            "sourceChordNote": 0,
            "sourceChordType": "Maj7",
            "ctb2Low": null,
            "ctb2Main": {
              "ntr": "ROOT_FIXED",
              "ntt": "CHORD",
              "bassOn": false,
              "chordRootUpperLimit": 7,
              "noteLowLimit": 0,
              "noteHighLimit": 127,
              "rtr": "PITCH_SHIFT"
            },
            "ctb2High": null,
            "ctb2MiddleLowPitch": 0,
            "ctb2MiddleHighPitch": 127
          },
          "notes": [
            {
              "pitch": 55,
              "velocity": 52,
              "position": 0,
              "duration": 0.31666666666666665
            },
            {
              "pitch": 64,
              "velocity": 57,
              "position": 0,
              "duration": 0.31666666666666665
            },
            {
              "pitch": 59,
              "velocity": 52,
              "position": 0,
              "duration": 0.31666666666666665
            },
            {
              "pitch": 55,
              "velocity": 64,
              "position": 0.3333333333333333,
              "duration": 0.31875
            },
            {
              "pitch": 64,
              "velocity": 57,
              "position": 0.3333333333333333,
              "duration": 0.31875
            },
            {
              "pitch": 59,
              "velocity": 64,
              "position": 0.3333333333333333,
              "duration": 0.31875
            },
            {
              "pitch": 55,
              "velocity": 43,
              "position": 0.6645833333333333,
              "duration": 0.32083333333333336
            },
            {
              "pitch": 64,
              "velocity": 49,
              "position": 0.6645833333333333,
              "duration": 0.32083333333333336
            },
            {
              "pitch": 59,
              "velocity": 43,
              "position": 0.6645833333333333,
              "duration": 0.32083333333333336
            },
            {
              "pitch": 55,
              "velocity": 40,
              "position": 1,
              "duration": 0.31666666666666665
            },
            {
              "pitch": 64,
              "velocity": 45,
              "position": 1,
              "duration": 0.31666666666666665
            },
            {
              "pitch": 59,
              "velocity": 40,
              "position": 1,
              "duration": 0.31666666666666665
            },
            {
              "pitch": 55,
              "velocity": 36,
              "position": 1.3333333333333333,
              "duration": 0.31875
            },
            {
              "pitch": 64,
              "velocity": 47,
              "position": 1.3333333333333333,
              "duration": 0.31875
            },
            {
              "pitch": 59,
              "velocity": 36,
              "position": 1.3333333333333333,
              "duration": 0.31875
            },
            {
              "pitch": 55,
              "velocity": 35,
              "position": 1.6645833333333333,
              "duration": 0.32083333333333336
            },
            {
              "pitch": 64,
              "velocity": 56,
              "position": 1.6645833333333333,
              "duration": 0.32083333333333336
            },
            {
              "pitch": 59,
              "velocity": 35,
              "position": 1.6645833333333333,
              "duration": 0.32083333333333336
            },
            {
              "pitch": 55,
              "velocity": 56,
              "position": 2,
              "duration": 0.31875
            },
            {
              "pitch": 64,
              "velocity": 50,
              "position": 2,
              "duration": 0.31875
            },
            {
              "pitch": 59,
              "velocity": 56,
              "position": 2,
              "duration": 0.31875
            },
            {
              "pitch": 55,
              "velocity": 37,
              "position": 2.3333333333333335,
              "duration": 0.31875
            },
            {
              "pitch": 64,
              "velocity": 45,
              "position": 2.3333333333333335,
              "duration": 0.31875
            },
            {
              "pitch": 59,
              "velocity": 37,
              "position": 2.3333333333333335,
              "duration": 0.31875
            },
            {
              "pitch": 55,
              "velocity": 40,
              "position": 2.6666666666666665,
              "duration": 0.31875
            },
            {
              "pitch": 64,
              "velocity": 54,
              "position": 2.6666666666666665,
              "duration": 0.31875
            },
            {
              "pitch": 59,
              "velocity": 40,
              "position": 2.6666666666666665,
              "duration": 0.31875
            },
            {
              "pitch": 55,
              "velocity": 53,
              "position": 3,
              "duration": 0.31875
            },
            {
              "pitch": 64,
              "velocity": 63,
              "position": 3,
              "duration": 0.31875
            },
            {
              "pitch": 59,
              "velocity": 53,
              "position": 3,
              "duration": 0.31875
            },
            {
              "pitch": 55,
              "velocity": 49,
              "position": 3.3333333333333335,
              "duration": 0.31875
            },
            {
              "pitch": 64,
              "velocity": 53,
              "position": 3.3333333333333335,
              "duration": 0.31875
            },
            {
              "pitch": 59,
              "velocity": 49,
              "position": 3.3333333333333335,
              "duration": 0.31875
            },
            {
              "pitch": 55,
              "velocity": 80,
              "position": 3.6666666666666665,
              "duration": 0.31875
            },
            {
              "pitch": 64,
              "velocity": 78,
              "position": 3.6666666666666665,
              "duration": 0.31875
            },
            {
              "pitch": 59,
              "velocity": 80,
              "position": 3.6666666666666665,
              "duration": 0.31875
            },
            {
              "pitch": 55,
              "velocity": 61,
              "position": 4,
              "duration": 0.31875
            },
            {
              "pitch": 64,
              "velocity": 59,
              "position": 4,
              "duration": 0.31875
            },
            {
              "pitch": 59,
              "velocity": 61,
              "position": 4,
              "duration": 0.31875
            },
            {
              "pitch": 55,
              "velocity": 41,
              "position": 4.333333333333333,
              "duration": 0.31875
            },
            {
              "pitch": 64,
              "velocity": 57,
              "position": 4.333333333333333,
              "duration": 0.31875
            },
            {
              "pitch": 59,
              "velocity": 41,
              "position": 4.333333333333333,
              "duration": 0.31875
            },
            {
              "pitch": 55,
              "velocity": 42,
              "position": 4.666666666666667,
              "duration": 0.31875
            },
            {
              "pitch": 64,
              "velocity": 45,
              "position": 4.666666666666667,
              "duration": 0.31875
            },
            {
              "pitch": 59,
              "velocity": 42,
              "position": 4.666666666666667,
              "duration": 0.31875
            },
            {
              "pitch": 55,
              "velocity": 47,
              "position": 5,
              "duration": 0.31875
            },
            {
              "pitch": 64,
              "velocity": 60,
              "position": 5,
              "duration": 0.31875
            },
            {
              "pitch": 59,
              "velocity": 47,
              "position": 5,
              "duration": 0.31875
            },
            {
              "pitch": 55,
              "velocity": 36,
              "position": 5.333333333333333,
              "duration": 0.31875
            },
            {
              "pitch": 64,
              "velocity": 41,
              "position": 5.333333333333333,
              "duration": 0.31875
            },
            {
              "pitch": 59,
              "velocity": 36,
              "position": 5.333333333333333,
              "duration": 0.31875
            },
            {
              "pitch": 55,
              "velocity": 52,
              "position": 5.666666666666667,
              "duration": 0.31875
            },
            {
              "pitch": 64,
              "velocity": 57,
              "position": 5.666666666666667,
              "duration": 0.31875
            },
            {
              "pitch": 59,
              "velocity": 52,
              "position": 5.666666666666667,
              "duration": 0.31875
            },
            {
              "pitch": 55,
              "velocity": 47,
              "position": 6,
              "duration": 0.31875
            },
            {
              "pitch": 64,
              "velocity": 42,
              "position": 6,
              "duration": 0.31875
            },
            {
              "pitch": 59,
              "velocity": 47,
              "position": 6,
              "duration": 0.31875
            },
            {
              "pitch": 55,
              "velocity": 38,
              "position": 6.333333333333333,
              "duration": 0.31875
            },
            {
              "pitch": 64,
              "velocity": 36,
              "position": 6.333333333333333,
              "duration": 0.31875
            },
            {
              "pitch": 59,
              "velocity": 38,
              "position": 6.333333333333333,
              "duration": 0.31875
            },
            {
              "pitch": 55,
              "velocity": 42,
              "position": 6.666666666666667,
              "duration": 0.31875
            },
            {
              "pitch": 64,
              "velocity": 43,
              "position": 6.666666666666667,
              "duration": 0.31875
            },
            {
              "pitch": 59,
              "velocity": 42,
              "position": 6.666666666666667,
              "duration": 0.31875
            },
            {
              "pitch": 55,
              "velocity": 52,
              "position": 7,
              "duration": 0.31875
            },
            {
              "pitch": 64,
              "velocity": 45,
              "position": 7,
              "duration": 0.31875
            },
            {
              "pitch": 59,
              "velocity": 52,
              "position": 7,
              "duration": 0.31875
            },
            {
              "pitch": 55,
              "velocity": 76,
              "position": 7.333333333333333,
              "duration": 0.31875
            },
            {
              "pitch": 64,
              "velocity": 68,
              "position": 7.333333333333333,
              "duration": 0.31875
            },
            {
              "pitch": 59,
              "velocity": 76,
              "position": 7.333333333333333,
              "duration": 0.31875
            },
            {
              "pitch": 55,
              "velocity": 82,
              "position": 7.666666666666667,
              "duration": 0.31875
            },
            {
              "pitch": 64,
              "velocity": 68,
              "position": 7.666666666666667,
              "duration": 0.31875
            },
            {
              "pitch": 59,
              "velocity": 82,
              "position": 7.666666666666667,
              "duration": 0.31875
            }
          ]
        },
        "14": {
          "ctab": {
            "srcChannel": 14,
            "name": "Tele",
            "accType": "PHRASE1",
            "editable": false,
            "mutedNotes": [],
            "mutedChords": [
              "min",
              "Maj"
            ],
            "autoStart": false,
            "sourceChordNote": 0,
            "sourceChordType": "Maj7",
            "ctb2Low": null,
            "ctb2Main": {
              "ntr": "ROOT_TRANSPOSITION",
              "ntt": "MELODY",
              "bassOn": false,
              "chordRootUpperLimit": 8,
              "noteLowLimit": 53,
              "noteHighLimit": 76,
              "rtr": "PITCH_SHIFT"
            },
            "ctb2High": null,
            "ctb2MiddleLowPitch": 0,
            "ctb2MiddleHighPitch": 127
          },
          "notes": [
            {
              "pitch": 55,
              "velocity": 16,
              "position": 0.6645833333333333,
              "duration": 3.2645833333333334
            },
            {
              "pitch": 52,
              "velocity": 116,
              "position": 0.3333333333333333,
              "duration": 3.597916666666667
            },
            {
              "pitch": 55,
              "velocity": 116,
              "position": 4.333333333333333,
              "duration": 3.597916666666667
            },
            {
              "pitch": 52,
              "velocity": 16,
              "position": 4.666666666666667,
              "duration": 3.2645833333333334
            }
          ]
        }
      }
    },
    "Main_B": {
      "type": "Main_B",
      "sizeInBeats": 8,
      "channels": {
        "0": {
          "ctab": {
            "srcChannel": 0,
            "name": "Pno LH",
            "accType": "CHORD2",
            "editable": false,
            "mutedNotes": [],
            "mutedChords": [],
            "autoStart": false,
            "sourceChordNote": 0,
            "sourceChordType": "Maj7",
            "ctb2Low": null,
            "ctb2Main": {
              "ntr": "ROOT_TRANSPOSITION",
              "ntt": "MELODY",
              "bassOn": true,
              "chordRootUpperLimit": 8,
              "noteLowLimit": 0,
              "noteHighLimit": 127,
              "rtr": "PITCH_SHIFT_TO_ROOT"
            },
            "ctb2High": null,
            "ctb2MiddleLowPitch": 0,
            "ctb2MiddleHighPitch": 127
          },
          "notes": [
            {
              "pitch": 36,
              "velocity": 94,
              "position": 0,
              "duration": 0.9833333333333333
            },
            {
              "pitch": 40,
              "velocity": 72,
              "position": 1,
              "duration": 0.9833333333333333
            },
            {
              "pitch": 43,
              "velocity": 48,
              "position": 2,
              "duration": 0.9833333333333333
            },
            {
              "pitch": 36,
              "velocity": 94,
              "position": 4,
              "duration": 0.9833333333333333
            },
            {
              "pitch": 40,
              "velocity": 72,
              "position": 5,
              "duration": 0.9833333333333333
            },
            {
              "pitch": 43,
              "velocity": 48,
              "position": 6,
              "duration": 0.9833333333333333
            }
          ]
        },
        "1": {
          "ctab": {
            "srcChannel": 1,
            "name": "Bass B",
            "accType": "BASS",
            "editable": false,
            "mutedNotes": [],
            "mutedChords": [
              "1+2+5",
              "sus4",
              "1+5",
              "1+8",
              "Maj7aug",
              "7(#9)",
              "7(b13)",
              "7(b9)",
              "7(13)",
              "7#11",
              "7(9)",
              "7b5",
              "7sus4",
              "7th",
              "dim7",
              "min7(11)",
              "min7(9)",
              "min7",
              "min6",
              "Maj6(9)",
              "Maj7(9)",
              "Maj(9)",
              "Maj7#11",
              "Maj7",
              "Maj6",
              "Maj"
            ],
            "autoStart": false,
            "sourceChordNote": 0,
            "sourceChordType": "Maj7",
            "ctb2Low": null,
            "ctb2Main": {
              "ntr": "ROOT_TRANSPOSITION",
              "ntt": "MELODY",
              "bassOn": true,
              "chordRootUpperLimit": 8,
              "noteLowLimit": 28,
              "noteHighLimit": 127,
              "rtr": "PITCH_SHIFT_TO_ROOT"
            },
            "ctb2High": null,
            "ctb2MiddleLowPitch": 0,
            "ctb2MiddleHighPitch": 127
          },
          "notes": [
            {
              "pitch": 24,
              "velocity": 70,
              "position": 0,
              "duration": 0.5875
            },
            {
              "pitch": 24,
              "velocity": 59,
              "position": 0.6666666666666666,
              "duration": 0.25416666666666665
            },
            {
              "pitch": 28,
              "velocity": 70,
              "position": 1,
              "duration": 0.5875
            },
            {
              "pitch": 28,
              "velocity": 59,
              "position": 1.6666666666666667,
              "duration": 0.25416666666666665
            },
            {
              "pitch": 31,
              "velocity": 70,
              "position": 2,
              "duration": 0.5875
            },
            {
              "pitch": 31,
              "velocity": 59,
              "position": 2.6666666666666665,
              "duration": 0.25416666666666665
            },
            {
              "pitch": 28,
              "velocity": 70,
              "position": 3,
              "duration": 0.5875
            },
            {
              "pitch": 31,
              "velocity": 59,
              "position": 3.6666666666666665,
              "duration": 0.25416666666666665
            },
            {
              "pitch": 24,
              "velocity": 70,
              "position": 4,
              "duration": 0.5875
            },
            {
              "pitch": 24,
              "velocity": 59,
              "position": 4.666666666666667,
              "duration": 0.25416666666666665
            },
            {
              "pitch": 28,
              "velocity": 70,
              "position": 5,
              "duration": 0.5875
            },
            {
              "pitch": 28,
              "velocity": 59,
              "position": 5.666666666666667,
              "duration": 0.25416666666666665
            },
            {
              "pitch": 31,
              "velocity": 70,
              "position": 6,
              "duration": 0.5875
            },
            {
              "pitch": 31,
              "velocity": 59,
              "position": 6.666666666666667,
              "duration": 0.25416666666666665
            },
            {
              "pitch": 36,
              "velocity": 70,
              "position": 7,
              "duration": 0.30625
            },
            {
              "pitch": 31,
              "velocity": 59,
              "position": 7.33125,
              "duration": 0.30625
            },
            {
              "pitch": 28,
              "velocity": 59,
              "position": 7.666666666666667,
              "duration": 0.30625
            }
          ]
        },
        "3": {
          "ctab": {
            "srcChannel": 3,
            "name": "Pno RH S",
            "accType": "CHORD2",
            "editable": false,
            "mutedNotes": [],
            "mutedChords": [
              "1+2+5",
              "sus4",
              "1+5",
              "1+8",
              "7aug",
              "Maj7aug",
              "7(#9)",
              "7(b13)",
              "7(b9)",
              "7(13)",
              "7#11",
              "7(9)",
              "7b5",
              "7sus4",
              "7th",
              "dim7",
              "dim",
              "minMaj7(9)",
              "minMaj7",
              "min7(11)",
              "min7(9)",
              "min(9)",
              "m7b5",
              "min7",
              "min6",
              "aug",
              "Maj6(9)",
              "Maj7(9)",
              "Maj(9)",
              "Maj7#11",
              "Maj7",
              "Maj6"
            ],
            "autoStart": false,
            "sourceChordNote": 0,
            "sourceChordType": "Maj7",
            "ctb2Low": null,
            "ctb2Main": {
              "ntr": "ROOT_TRANSPOSITION",
              "ntt": "DORIAN_5",
              "bassOn": false,
              "chordRootUpperLimit": 11,
              "noteLowLimit": 58,
              "noteHighLimit": 127,
              "rtr": "PITCH_SHIFT"
            },
            "ctb2High": null,
            "ctb2MiddleLowPitch": 0,
            "ctb2MiddleHighPitch": 127
          },
          "notes": [
            {
              "pitch": 46,
              "velocity": 72,
              "position": 0,
              "duration": 0.31875
            },
            {
              "pitch": 55,
              "velocity": 69,
              "position": 0,
              "duration": 0.31875
            },
            {
              "pitch": 52,
              "velocity": 72,
              "position": 0,
              "duration": 0.31875
            },
            {
              "pitch": 48,
              "velocity": 73,
              "position": 0,
              "duration": 0.31875
            },
            {
              "pitch": 46,
              "velocity": 64,
              "position": 0.33125,
              "duration": 0.31875
            },
            {
              "pitch": 55,
              "velocity": 62,
              "position": 0.33125,
              "duration": 0.31875
            },
            {
              "pitch": 52,
              "velocity": 64,
              "position": 0.33125,
              "duration": 0.31875
            },
            {
              "pitch": 48,
              "velocity": 59,
              "position": 0.33125,
              "duration": 0.31875
            },
            {
              "pitch": 46,
              "velocity": 56,
              "position": 0.6666666666666666,
              "duration": 0.31875
            },
            {
              "pitch": 55,
              "velocity": 54,
              "position": 0.6666666666666666,
              "duration": 0.31875
            },
            {
              "pitch": 52,
              "velocity": 56,
              "position": 0.6666666666666666,
              "duration": 0.31875
            },
            {
              "pitch": 48,
              "velocity": 55,
              "position": 0.6666666666666666,
              "duration": 0.31875
            },
            {
              "pitch": 46,
              "velocity": 60,
              "position": 1,
              "duration": 0.31875
            },
            {
              "pitch": 55,
              "velocity": 58,
              "position": 1,
              "duration": 0.31875
            },
            {
              "pitch": 52,
              "velocity": 60,
              "position": 1,
              "duration": 0.31875
            },
            {
              "pitch": 48,
              "velocity": 62,
              "position": 1,
              "duration": 0.31875
            },
            {
              "pitch": 48,
              "velocity": 64,
              "position": 1.33125,
              "duration": 0.20833333333333334
            },
            {
              "pitch": 55,
              "velocity": 54,
              "position": 1.33125,
              "duration": 0.31875
            },
            {
              "pitch": 46,
              "velocity": 60,
              "position": 1.33125,
              "duration": 0.31875
            },
            {
              "pitch": 52,
              "velocity": 60,
              "position": 1.33125,
              "duration": 0.31875
            },
            {
              "pitch": 48,
              "velocity": 79,
              "position": 1.55,
              "duration": 0.43333333333333335
            },
            {
              "pitch": 57,
              "velocity": 89,
              "position": 1.6666666666666667,
              "duration": 0.31875
            },
            {
              "pitch": 53,
              "velocity": 83,
              "position": 1.6666666666666667,
              "duration": 0.31875
            },
            {
              "pitch": 46,
              "velocity": 56,
              "position": 2,
              "duration": 0.31875
            },
            {
              "pitch": 55,
              "velocity": 60,
              "position": 2,
              "duration": 0.31875
            },
            {
              "pitch": 52,
              "velocity": 56,
              "position": 2,
              "duration": 0.31875
            },
            {
              "pitch": 48,
              "velocity": 66,
              "position": 2,
              "duration": 0.31875
            },
            {
              "pitch": 46,
              "velocity": 54,
              "position": 2.33125,
              "duration": 0.31875
            },
            {
              "pitch": 55,
              "velocity": 62,
              "position": 2.33125,
              "duration": 0.31875
            },
            {
              "pitch": 52,
              "velocity": 54,
              "position": 2.33125,
              "duration": 0.31875
            },
            {
              "pitch": 48,
              "velocity": 59,
              "position": 2.33125,
              "duration": 0.31875
            },
            {
              "pitch": 46,
              "velocity": 54,
              "position": 2.6666666666666665,
              "duration": 0.31875
            },
            {
              "pitch": 55,
              "velocity": 58,
              "position": 2.6666666666666665,
              "duration": 0.31875
            },
            {
              "pitch": 52,
              "velocity": 54,
              "position": 2.6666666666666665,
              "duration": 0.31875
            },
            {
              "pitch": 48,
              "velocity": 62,
              "position": 2.6666666666666665,
              "duration": 0.31875
            },
            {
              "pitch": 46,
              "velocity": 66,
              "position": 3,
              "duration": 0.31875
            },
            {
              "pitch": 55,
              "velocity": 62,
              "position": 3,
              "duration": 0.31875
            },
            {
              "pitch": 52,
              "velocity": 66,
              "position": 3,
              "duration": 0.31875
            },
            {
              "pitch": 48,
              "velocity": 66,
              "position": 3,
              "duration": 0.31875
            },
            {
              "pitch": 48,
              "velocity": 64,
              "position": 3.33125,
              "duration": 0.20833333333333334
            },
            {
              "pitch": 55,
              "velocity": 54,
              "position": 3.33125,
              "duration": 0.31875
            },
            {
              "pitch": 46,
              "velocity": 54,
              "position": 3.33125,
              "duration": 0.31875
            },
            {
              "pitch": 52,
              "velocity": 54,
              "position": 3.33125,
              "duration": 0.31875
            },
            {
              "pitch": 48,
              "velocity": 80,
              "position": 3.55,
              "duration": 0.31875
            },
            {
              "pitch": 57,
              "velocity": 95,
              "position": 3.6666666666666665,
              "duration": 0.31875
            },
            {
              "pitch": 53,
              "velocity": 87,
              "position": 3.6666666666666665,
              "duration": 0.31875
            },
            {
              "pitch": 48,
              "velocity": 73,
              "position": 3.8854166666666665,
              "duration": 0.43333333333333335
            },
            {
              "pitch": 55,
              "velocity": 75,
              "position": 4,
              "duration": 0.31875
            },
            {
              "pitch": 52,
              "velocity": 68,
              "position": 4,
              "duration": 0.31875
            },
            {
              "pitch": 46,
              "velocity": 68,
              "position": 4,
              "duration": 0.31875
            },
            {
              "pitch": 46,
              "velocity": 60,
              "position": 4.33125,
              "duration": 0.31875
            },
            {
              "pitch": 55,
              "velocity": 64,
              "position": 4.33125,
              "duration": 0.31875
            },
            {
              "pitch": 52,
              "velocity": 60,
              "position": 4.33125,
              "duration": 0.31875
            },
            {
              "pitch": 48,
              "velocity": 59,
              "position": 4.33125,
              "duration": 0.31875
            },
            {
              "pitch": 46,
              "velocity": 56,
              "position": 4.666666666666667,
              "duration": 0.31875
            },
            {
              "pitch": 55,
              "velocity": 54,
              "position": 4.666666666666667,
              "duration": 0.31875
            },
            {
              "pitch": 52,
              "velocity": 56,
              "position": 4.666666666666667,
              "duration": 0.31875
            },
            {
              "pitch": 48,
              "velocity": 62,
              "position": 4.666666666666667,
              "duration": 0.31875
            },
            {
              "pitch": 46,
              "velocity": 70,
              "position": 5,
              "duration": 0.31875
            },
            {
              "pitch": 55,
              "velocity": 75,
              "position": 5,
              "duration": 0.31875
            },
            {
              "pitch": 52,
              "velocity": 70,
              "position": 5,
              "duration": 0.31875
            },
            {
              "pitch": 48,
              "velocity": 70,
              "position": 5,
              "duration": 0.31875
            },
            {
              "pitch": 48,
              "velocity": 64,
              "position": 5.33125,
              "duration": 0.20833333333333334
            },
            {
              "pitch": 55,
              "velocity": 56,
              "position": 5.33125,
              "duration": 0.31875
            },
            {
              "pitch": 46,
              "velocity": 54,
              "position": 5.33125,
              "duration": 0.31875
            },
            {
              "pitch": 52,
              "velocity": 54,
              "position": 5.33125,
              "duration": 0.31875
            },
            {
              "pitch": 48,
              "velocity": 73,
              "position": 5.55,
              "duration": 0.31875
            },
            {
              "pitch": 57,
              "velocity": 87,
              "position": 5.666666666666667,
              "duration": 0.31875
            },
            {
              "pitch": 53,
              "velocity": 93,
              "position": 5.666666666666667,
              "duration": 0.31875
            },
            {
              "pitch": 48,
              "velocity": 70,
              "position": 5.885416666666667,
              "duration": 0.43333333333333335
            },
            {
              "pitch": 55,
              "velocity": 80,
              "position": 6,
              "duration": 0.31875
            },
            {
              "pitch": 52,
              "velocity": 79,
              "position": 6,
              "duration": 0.31875
            },
            {
              "pitch": 46,
              "velocity": 79,
              "position": 6,
              "duration": 0.31875
            },
            {
              "pitch": 46,
              "velocity": 60,
              "position": 6.33125,
              "duration": 0.31875
            },
            {
              "pitch": 55,
              "velocity": 70,
              "position": 6.33125,
              "duration": 0.31875
            },
            {
              "pitch": 52,
              "velocity": 60,
              "position": 6.33125,
              "duration": 0.31875
            },
            {
              "pitch": 48,
              "velocity": 70,
              "position": 6.33125,
              "duration": 0.31875
            },
            {
              "pitch": 46,
              "velocity": 56,
              "position": 6.666666666666667,
              "duration": 0.31875
            },
            {
              "pitch": 55,
              "velocity": 59,
              "position": 6.666666666666667,
              "duration": 0.31875
            },
            {
              "pitch": 52,
              "velocity": 56,
              "position": 6.666666666666667,
              "duration": 0.31875
            },
            {
              "pitch": 48,
              "velocity": 66,
              "position": 6.666666666666667,
              "duration": 0.31875
            },
            {
              "pitch": 50,
              "velocity": 73,
              "position": 7,
              "duration": 0.21458333333333332
            },
            {
              "pitch": 57,
              "velocity": 72,
              "position": 7,
              "duration": 0.31875
            },
            {
              "pitch": 46,
              "velocity": 56,
              "position": 7,
              "duration": 0.31875
            },
            {
              "pitch": 53,
              "velocity": 56,
              "position": 7,
              "duration": 0.31875
            },
            {
              "pitch": 46,
              "velocity": 62,
              "position": 7.33125,
              "duration": 0.31875
            },
            {
              "pitch": 55,
              "velocity": 62,
              "position": 7.33125,
              "duration": 0.31875
            },
            {
              "pitch": 52,
              "velocity": 62,
              "position": 7.33125,
              "duration": 0.31875
            },
            {
              "pitch": 48,
              "velocity": 73,
              "position": 7.21875,
              "duration": 0.43333333333333335
            },
            {
              "pitch": 46,
              "velocity": 80,
              "position": 7.666666666666667,
              "duration": 0.31875
            },
            {
              "pitch": 55,
              "velocity": 93,
              "position": 7.666666666666667,
              "duration": 0.31875
            },
            {
              "pitch": 52,
              "velocity": 89,
              "position": 7.666666666666667,
              "duration": 0.31875
            },
            {
              "pitch": 48,
              "velocity": 80,
              "position": 7.666666666666667,
              "duration": 0.31875
            }
          ]
        },
        "5": {
          "ctab": {
            "srcChannel": 5,
            "name": "Tele S M",
            "accType": "PHRASE1",
            "editable": false,
            "mutedNotes": [],
            "mutedChords": [
              "1+2+5",
              "sus4",
              "1+5",
              "1+8",
              "7aug",
              "Maj7aug",
              "7(#9)",
              "7(b13)",
              "7(b9)",
              "7(13)",
              "7#11",
              "7(9)",
              "7b5",
              "7sus4",
              "7th",
              "dim7",
              "dim",
              "minMaj7(9)",
              "minMaj7",
              "min7(11)",
              "min7(9)",
              "min(9)",
              "m7b5",
              "min7",
              "min6",
              "min",
              "aug",
              "Maj6(9)",
              "Maj7(9)",
              "Maj(9)",
              "Maj7#11",
              "Maj7",
              "Maj6"
            ],
            "autoStart": false,
            "sourceChordNote": 0,
            "sourceChordType": "Maj7",
            "ctb2Low": null,
            "ctb2Main": {
              "ntr": "ROOT_TRANSPOSITION",
              "ntt": "DORIAN_5",
              "bassOn": false,
              "chordRootUpperLimit": 4,
              "noteLowLimit": 0,
              "noteHighLimit": 127,
              "rtr": "PITCH_SHIFT"
            },
            "ctb2High": {
              "ntr": "ROOT_FIXED",
              "ntt": "BYPASS",
              "bassOn": false,
              "chordRootUpperLimit": 4,
              "noteLowLimit": 0,
              "noteHighLimit": 127,
              "rtr": "PITCH_SHIFT"
            },
            "ctb2MiddleLowPitch": 0,
            "ctb2MiddleHighPitch": 95
          },
          "notes": [
            {
              "pitch": 64,
              "velocity": 116,
              "position": 0.0020833333333333333,
              "duration": 2.970833333333333
            },
            {
              "pitch": 62,
              "velocity": 30,
              "position": 3,
              "duration": 0.30625
            },
            {
              "pitch": 60,
              "velocity": 16,
              "position": 3.33125,
              "duration": 0.30625
            },
            {
              "pitch": 57,
              "velocity": 16,
              "position": 3.6666666666666665,
              "duration": 0.30625
            },
            {
              "pitch": 60,
              "velocity": 116,
              "position": 4,
              "duration": 2.970833333333333
            },
            {
              "pitch": 57,
              "velocity": 116,
              "position": 7,
              "duration": 0.30625
            },
            {
              "pitch": 60,
              "velocity": 16,
              "position": 7.33125,
              "duration": 0.30625
            },
            {
              "pitch": 62,
              "velocity": 16,
              "position": 7.666666666666667,
              "duration": 0.30625
            }
          ]
        },
        "7": {
          "ctab": {
            "srcChannel": 7,
            "name": "Tele S m",
            "accType": "PHRASE1",
            "editable": false,
            "mutedNotes": [],
            "mutedChords": [
              "1+2+5",
              "sus4",
              "1+5",
              "1+8",
              "7aug",
              "Maj7aug",
              "7(#9)",
              "7(b13)",
              "7(b9)",
              "7(13)",
              "7#11",
              "7(9)",
              "7b5",
              "7sus4",
              "7th",
              "dim7",
              "dim",
              "minMaj7(9)",
              "minMaj7",
              "min7(11)",
              "min7(9)",
              "min(9)",
              "m7b5",
              "min7",
              "min6",
              "aug",
              "Maj6(9)",
              "Maj7(9)",
              "Maj(9)",
              "Maj7#11",
              "Maj7",
              "Maj6",
              "Maj"
            ],
            "autoStart": false,
            "sourceChordNote": 0,
            "sourceChordType": "Maj7",
            "ctb2Low": null,
            "ctb2Main": {
              "ntr": "ROOT_TRANSPOSITION",
              "ntt": "DORIAN_5",
              "bassOn": false,
              "chordRootUpperLimit": 4,
              "noteLowLimit": 0,
              "noteHighLimit": 127,
              "rtr": "PITCH_SHIFT"
            },
            "ctb2High": {
              "ntr": "ROOT_FIXED",
              "ntt": "BYPASS",
              "bassOn": false,
              "chordRootUpperLimit": 4,
              "noteLowLimit": 0,
              "noteHighLimit": 127,
              "rtr": "PITCH_SHIFT"
            },
            "ctb2MiddleLowPitch": 0,
            "ctb2MiddleHighPitch": 95
          },
          "notes": [
            {
              "pitch": 60,
              "velocity": 116,
              "position": 0.010416666666666666,
              "duration": 2.9625
            },
            {
              "pitch": 58,
              "velocity": 32,
              "position": 3,
              "duration": 0.30625
            },
            {
              "pitch": 60,
              "velocity": 16,
              "position": 3.33125,
              "duration": 0.30625
            },
            {
              "pitch": 63,
              "velocity": 16,
              "position": 3.6666666666666665,
              "duration": 0.30625
            },
            {
              "pitch": 60,
              "velocity": 116,
              "position": 4,
              "duration": 2.970833333333333
            },
            {
              "pitch": 55,
              "velocity": 116,
              "position": 7,
              "duration": 0.30625
            },
            {
              "pitch": 63,
              "velocity": 16,
              "position": 7.33125,
              "duration": 0.30625
            },
            {
              "pitch": 58,
              "velocity": 16,
              "position": 7.666666666666667,
              "duration": 0.30625
            }
          ]
        },
        "8": {
          "ctab": {
            "srcChannel": 8,
            "name": "AddDrum",
            "accType": "SUBRHYTHM",
            "editable": true,
            "mutedNotes": [],
            "mutedChords": [],
            "autoStart": true,
            "sourceChordNote": 0,
            "sourceChordType": "Maj7",
            "ctb2Low": null,
            "ctb2Main": {
              "ntr": "ROOT_FIXED",
              "ntt": "BYPASS",
              "bassOn": false,
              "chordRootUpperLimit": 6,
              "noteLowLimit": 0,
              "noteHighLimit": 127,
              "rtr": "PITCH_SHIFT"
            },
            "ctb2High": null,
            "ctb2MiddleLowPitch": 0,
            "ctb2MiddleHighPitch": 127
          },
          "notes": [
            {
              "pitch": 54,
              "velocity": 70,
              "position": 1,
              "duration": 0.00625
            },
            {
              "pitch": 54,
              "velocity": 70,
              "position": 3,
              "duration": 0.00625
            },
            {
              "pitch": 54,
              "velocity": 70,
              "position": 5,
              "duration": 0.00625
            },
            {
              "pitch": 54,
              "velocity": 70,
              "position": 7,
              "duration": 0.00625
            }
          ]
        },
        "9": {
          "ctab": {
            "srcChannel": 9,
            "name": "MainDrum",
            "accType": "RHYTHM",
            "editable": true,
            "mutedNotes": [],
            "mutedChords": [],
            "autoStart": true,
            "sourceChordNote": 0,
            "sourceChordType": "Maj7",
            "ctb2Low": null,
            "ctb2Main": {
              "ntr": "ROOT_FIXED",
              "ntt": "BYPASS",
              "bassOn": false,
              "chordRootUpperLimit": 6,
              "noteLowLimit": 0,
              "noteHighLimit": 127,
              "rtr": "PITCH_SHIFT"
            },
            "ctb2High": null,
            "ctb2MiddleLowPitch": 0,
            "ctb2MiddleHighPitch": 127
          },
          "notes": [
            {
              "pitch": 33,
              "velocity": 86,
              "position": 0,
              "duration": 0.00625
            },
            {
              "pitch": 42,
              "velocity": 90,
              "position": 0,
              "duration": 0.00625
            },
            {
              "pitch": 42,
              "velocity": 34,
              "position": 0.3333333333333333,
              "duration": 0.00625
            },
            {
              "pitch": 42,
              "velocity": 70,
              "position": 0.6645833333333333,
              "duration": 0.008333333333333333
            },
            {
              "pitch": 31,
              "velocity": 84,
              "position": 1,
              "duration": 0.00625
            },
            {
              "pitch": 42,
              "velocity": 80,
              "position": 1,
              "duration": 0.00625
            },
            {
              "pitch": 42,
              "velocity": 34,
              "position": 1.3333333333333333,
              "duration": 0.00625
            },
            {
              "pitch": 33,
              "velocity": 64,
              "position": 1.6645833333333333,
              "duration": 0.008333333333333333
            },
            {
              "pitch": 42,
              "velocity": 70,
              "position": 1.6645833333333333,
              "duration": 0.008333333333333333
            },
            {
              "pitch": 42,
              "velocity": 36,
              "position": 1.8833333333333333,
              "duration": 0.008333333333333333
            },
            {
              "pitch": 33,
              "velocity": 86,
              "position": 2,
              "duration": 0.00625
            },
            {
              "pitch": 42,
              "velocity": 90,
              "position": 2,
              "duration": 0.00625
            },
            {
              "pitch": 42,
              "velocity": 34,
              "position": 2.3333333333333335,
              "duration": 0.00625
            },
            {
              "pitch": 42,
              "velocity": 70,
              "position": 2.6666666666666665,
              "duration": 0.00625
            },
            {
              "pitch": 31,
              "velocity": 84,
              "position": 3,
              "duration": 0.00625
            },
            {
              "pitch": 42,
              "velocity": 80,
              "position": 3,
              "duration": 0.00625
            },
            {
              "pitch": 42,
              "velocity": 34,
              "position": 3.3333333333333335,
              "duration": 0.00625
            },
            {
              "pitch": 42,
              "velocity": 36,
              "position": 3.5520833333333335,
              "duration": 0.00625
            },
            {
              "pitch": 33,
              "velocity": 64,
              "position": 3.6666666666666665,
              "duration": 0.00625
            },
            {
              "pitch": 42,
              "velocity": 70,
              "position": 3.6666666666666665,
              "duration": 0.00625
            },
            {
              "pitch": 33,
              "velocity": 86,
              "position": 4,
              "duration": 0.00625
            },
            {
              "pitch": 42,
              "velocity": 90,
              "position": 4,
              "duration": 0.00625
            },
            {
              "pitch": 42,
              "velocity": 34,
              "position": 4.333333333333333,
              "duration": 0.00625
            },
            {
              "pitch": 42,
              "velocity": 70,
              "position": 4.666666666666667,
              "duration": 0.00625
            },
            {
              "pitch": 31,
              "velocity": 84,
              "position": 5,
              "duration": 0.00625
            },
            {
              "pitch": 42,
              "velocity": 80,
              "position": 5,
              "duration": 0.00625
            },
            {
              "pitch": 42,
              "velocity": 34,
              "position": 5.333333333333333,
              "duration": 0.00625
            },
            {
              "pitch": 33,
              "velocity": 64,
              "position": 5.666666666666667,
              "duration": 0.00625
            },
            {
              "pitch": 42,
              "velocity": 70,
              "position": 5.666666666666667,
              "duration": 0.00625
            },
            {
              "pitch": 42,
              "velocity": 36,
              "position": 5.885416666666667,
              "duration": 0.00625
            },
            {
              "pitch": 33,
              "velocity": 86,
              "position": 6,
              "duration": 0.00625
            },
            {
              "pitch": 42,
              "velocity": 90,
              "position": 6,
              "duration": 0.00625
            },
            {
              "pitch": 42,
              "velocity": 34,
              "position": 6.333333333333333,
              "duration": 0.00625
            },
            {
              "pitch": 42,
              "velocity": 70,
              "position": 6.666666666666667,
              "duration": 0.00625
            },
            {
              "pitch": 31,
              "velocity": 84,
              "position": 7,
              "duration": 0.00625
            },
            {
              "pitch": 42,
              "velocity": 80,
              "position": 7,
              "duration": 0.00625
            },
            {
              "pitch": 42,
              "velocity": 34,
              "position": 7.333333333333333,
              "duration": 0.00625
            },
            {
              "pitch": 42,
              "velocity": 36,
              "position": 7.552083333333333,
              "duration": 0.00625
            },
            {
              "pitch": 33,
              "velocity": 64,
              "position": 7.666666666666667,
              "duration": 0.00625
            },
            {
              "pitch": 42,
              "velocity": 70,
              "position": 7.666666666666667,
              "duration": 0.00625
            }
          ]
        },
        "10": {
          "ctab": {
            "srcChannel": 10,
            "name": "Bass A",
            "accType": "BASS",
            "editable": false,
            "mutedNotes": [],
            "mutedChords": [
              "7aug",
              "dim",
              "minMaj7(9)",
              "minMaj7",
              "min(9)",
              "m7b5",
              "min",
              "aug"
            ],
            "autoStart": false,
            "sourceChordNote": 0,
            "sourceChordType": "Maj7",
            "ctb2Low": null,
            "ctb2Main": {
              "ntr": "ROOT_TRANSPOSITION",
              "ntt": "MELODY",
              "bassOn": true,
              "chordRootUpperLimit": 8,
              "noteLowLimit": 28,
              "noteHighLimit": 127,
              "rtr": "PITCH_SHIFT_TO_ROOT"
            },
            "ctb2High": null,
            "ctb2MiddleLowPitch": 0,
            "ctb2MiddleHighPitch": 127
          },
          "notes": [
            {
              "pitch": 24,
              "velocity": 70,
              "position": 0,
              "duration": 0.5875
            },
            {
              "pitch": 24,
              "velocity": 59,
              "position": 0.6666666666666666,
              "duration": 0.25416666666666665
            },
            {
              "pitch": 28,
              "velocity": 70,
              "position": 1,
              "duration": 0.5875
            },
            {
              "pitch": 28,
              "velocity": 59,
              "position": 1.6666666666666667,
              "duration": 0.25416666666666665
            },
            {
              "pitch": 31,
              "velocity": 70,
              "position": 2,
              "duration": 0.5875
            },
            {
              "pitch": 31,
              "velocity": 59,
              "position": 2.6666666666666665,
              "duration": 0.25416666666666665
            },
            {
              "pitch": 28,
              "velocity": 70,
              "position": 3,
              "duration": 0.5875
            },
            {
              "pitch": 31,
              "velocity": 59,
              "position": 3.6666666666666665,
              "duration": 0.25416666666666665
            },
            {
              "pitch": 24,
              "velocity": 70,
              "position": 4,
              "duration": 0.5875
            },
            {
              "pitch": 24,
              "velocity": 59,
              "position": 4.666666666666667,
              "duration": 0.25416666666666665
            },
            {
              "pitch": 28,
              "velocity": 70,
              "position": 5,
              "duration": 0.5875
            },
            {
              "pitch": 28,
              "velocity": 59,
              "position": 5.666666666666667,
              "duration": 0.25416666666666665
            },
            {
              "pitch": 31,
              "velocity": 70,
              "position": 6,
              "duration": 0.5875
            },
            {
              "pitch": 31,
              "velocity": 59,
              "position": 6.666666666666667,
              "duration": 0.25416666666666665
            },
            {
              "pitch": 33,
              "velocity": 70,
              "position": 7,
              "duration": 0.30625
            },
            {
              "pitch": 31,
              "velocity": 59,
              "position": 7.33125,
              "duration": 0.30625
            },
            {
              "pitch": 28,
              "velocity": 59,
              "position": 7.666666666666667,
              "duration": 0.30625
            }
          ]
        },
        "11": {
          "ctab": {
            "srcChannel": 11,
            "name": "SolidGtr",
            "accType": "CHORD1",
            "editable": false,
            "mutedNotes": [],
            "mutedChords": [],
            "autoStart": false,
            "sourceChordNote": 0,
            "sourceChordType": "Maj7",
            "ctb2Low": null,
            "ctb2Main": {
              "ntr": "GUITAR",
              "ntt": "ALL_PURPOSE",
              "bassOn": false,
              "chordRootUpperLimit": 7,
              "noteLowLimit": 0,
              "noteHighLimit": 79,
              "rtr": "PITCH_SHIFT"
            },
            "ctb2High": null,
            "ctb2MiddleLowPitch": 0,
            "ctb2MiddleHighPitch": 127
          },
          "notes": [
            {
              "pitch": 100,
              "velocity": 80,
              "position": 0,
              "duration": 0.19166666666666668
            },
            {
              "pitch": 67,
              "velocity": 50,
              "position": 0,
              "duration": 0.30625
            },
            {
              "pitch": 65,
              "velocity": 50,
              "position": 0,
              "duration": 0.30625
            },
            {
              "pitch": 69,
              "velocity": 50,
              "position": 0.010416666666666666,
              "duration": 0.30625
            },
            {
              "pitch": 71,
              "velocity": 50,
              "position": 0.01875,
              "duration": 0.30625
            },
            {
              "pitch": 106,
              "velocity": 30,
              "position": 0.33125,
              "duration": 0.19166666666666668
            },
            {
              "pitch": 65,
              "velocity": 20,
              "position": 0.33125,
              "duration": 0.30625
            },
            {
              "pitch": 67,
              "velocity": 20,
              "position": 0.33125,
              "duration": 0.3104166666666667
            },
            {
              "pitch": 69,
              "velocity": 20,
              "position": 0.34375,
              "duration": 0.30625
            },
            {
              "pitch": 71,
              "velocity": 20,
              "position": 0.3541666666666667,
              "duration": 0.30625
            },
            {
              "pitch": 98,
              "velocity": 55,
              "position": 0.6666666666666666,
              "duration": 0.19166666666666668
            },
            {
              "pitch": 65,
              "velocity": 40,
              "position": 0.6666666666666666,
              "duration": 0.30625
            },
            {
              "pitch": 67,
              "velocity": 40,
              "position": 0.6666666666666666,
              "duration": 0.30833333333333335
            },
            {
              "pitch": 69,
              "velocity": 40,
              "position": 0.675,
              "duration": 0.30625
            },
            {
              "pitch": 71,
              "velocity": 40,
              "position": 0.6875,
              "duration": 0.30625
            },
            {
              "pitch": 65,
              "velocity": 60,
              "position": 1,
              "duration": 0.03333333333333333
            },
            {
              "pitch": 67,
              "velocity": 60,
              "position": 1,
              "duration": 0.03333333333333333
            },
            {
              "pitch": 69,
              "velocity": 60,
              "position": 1.0104166666666667,
              "duration": 0.035416666666666666
            },
            {
              "pitch": 71,
              "velocity": 60,
              "position": 1.01875,
              "duration": 0.0375
            },
            {
              "pitch": 100,
              "velocity": 90,
              "position": 1,
              "duration": 0.19166666666666668
            },
            {
              "pitch": 65,
              "velocity": 85,
              "position": 1.33125,
              "duration": 0.027083333333333334
            },
            {
              "pitch": 67,
              "velocity": 85,
              "position": 1.33125,
              "duration": 0.027083333333333334
            },
            {
              "pitch": 69,
              "velocity": 70,
              "position": 1.34375,
              "duration": 0.025
            },
            {
              "pitch": 71,
              "velocity": 70,
              "position": 1.3541666666666667,
              "duration": 0.025
            },
            {
              "pitch": 119,
              "velocity": 100,
              "position": 1.33125,
              "duration": 0.19166666666666668
            },
            {
              "pitch": 100,
              "velocity": 80,
              "position": 1.6666666666666667,
              "duration": 0.19166666666666668
            },
            {
              "pitch": 67,
              "velocity": 50,
              "position": 1.6666666666666667,
              "duration": 0.6395833333333333
            },
            {
              "pitch": 65,
              "velocity": 50,
              "position": 1.6666666666666667,
              "duration": 0.6395833333333333
            },
            {
              "pitch": 69,
              "velocity": 50,
              "position": 1.675,
              "duration": 0.6395833333333333
            },
            {
              "pitch": 71,
              "velocity": 50,
              "position": 1.6875,
              "duration": 0.6395833333333333
            },
            {
              "pitch": 106,
              "velocity": 30,
              "position": 2.33125,
              "duration": 0.19166666666666668
            },
            {
              "pitch": 65,
              "velocity": 20,
              "position": 2.33125,
              "duration": 0.30625
            },
            {
              "pitch": 67,
              "velocity": 20,
              "position": 2.33125,
              "duration": 0.3104166666666667
            },
            {
              "pitch": 69,
              "velocity": 20,
              "position": 2.34375,
              "duration": 0.30625
            },
            {
              "pitch": 71,
              "velocity": 20,
              "position": 2.3541666666666665,
              "duration": 0.30625
            },
            {
              "pitch": 98,
              "velocity": 55,
              "position": 2.6666666666666665,
              "duration": 0.19166666666666668
            },
            {
              "pitch": 65,
              "velocity": 40,
              "position": 2.6666666666666665,
              "duration": 0.30625
            },
            {
              "pitch": 67,
              "velocity": 40,
              "position": 2.6666666666666665,
              "duration": 0.30833333333333335
            },
            {
              "pitch": 69,
              "velocity": 40,
              "position": 2.675,
              "duration": 0.30625
            },
            {
              "pitch": 71,
              "velocity": 40,
              "position": 2.6875,
              "duration": 0.30625
            },
            {
              "pitch": 65,
              "velocity": 60,
              "position": 3,
              "duration": 0.03333333333333333
            },
            {
              "pitch": 67,
              "velocity": 60,
              "position": 3,
              "duration": 0.03333333333333333
            },
            {
              "pitch": 69,
              "velocity": 60,
              "position": 3.0104166666666665,
              "duration": 0.035416666666666666
            },
            {
              "pitch": 71,
              "velocity": 60,
              "position": 3.01875,
              "duration": 0.0375
            },
            {
              "pitch": 100,
              "velocity": 90,
              "position": 3,
              "duration": 0.19166666666666668
            },
            {
              "pitch": 65,
              "velocity": 70,
              "position": 3.33125,
              "duration": 0.027083333333333334
            },
            {
              "pitch": 67,
              "velocity": 70,
              "position": 3.33125,
              "duration": 0.027083333333333334
            },
            {
              "pitch": 69,
              "velocity": 70,
              "position": 3.34375,
              "duration": 0.025
            },
            {
              "pitch": 71,
              "velocity": 70,
              "position": 3.3541666666666665,
              "duration": 0.025
            },
            {
              "pitch": 118,
              "velocity": 85,
              "position": 3.33125,
              "duration": 0.19166666666666668
            },
            {
              "pitch": 65,
              "velocity": 85,
              "position": 3.6666666666666665,
              "duration": 0.025
            },
            {
              "pitch": 67,
              "velocity": 85,
              "position": 3.6666666666666665,
              "duration": 0.025
            },
            {
              "pitch": 69,
              "velocity": 70,
              "position": 3.675,
              "duration": 0.027083333333333334
            },
            {
              "pitch": 71,
              "velocity": 70,
              "position": 3.6875,
              "duration": 0.025
            },
            {
              "pitch": 119,
              "velocity": 100,
              "position": 3.6666666666666665,
              "duration": 0.19166666666666668
            },
            {
              "pitch": 100,
              "velocity": 80,
              "position": 4,
              "duration": 0.19166666666666668
            },
            {
              "pitch": 67,
              "velocity": 50,
              "position": 4,
              "duration": 0.30625
            },
            {
              "pitch": 65,
              "velocity": 50,
              "position": 4,
              "duration": 0.30625
            },
            {
              "pitch": 69,
              "velocity": 50,
              "position": 4.010416666666667,
              "duration": 0.30625
            },
            {
              "pitch": 71,
              "velocity": 50,
              "position": 4.01875,
              "duration": 0.30625
            },
            {
              "pitch": 106,
              "velocity": 30,
              "position": 4.33125,
              "duration": 0.19166666666666668
            },
            {
              "pitch": 65,
              "velocity": 20,
              "position": 4.33125,
              "duration": 0.30625
            },
            {
              "pitch": 67,
              "velocity": 20,
              "position": 4.33125,
              "duration": 0.3104166666666667
            },
            {
              "pitch": 69,
              "velocity": 20,
              "position": 4.34375,
              "duration": 0.30625
            },
            {
              "pitch": 71,
              "velocity": 20,
              "position": 4.354166666666667,
              "duration": 0.30625
            },
            {
              "pitch": 98,
              "velocity": 55,
              "position": 4.666666666666667,
              "duration": 0.19166666666666668
            },
            {
              "pitch": 65,
              "velocity": 40,
              "position": 4.666666666666667,
              "duration": 0.30625
            },
            {
              "pitch": 67,
              "velocity": 40,
              "position": 4.666666666666667,
              "duration": 0.30833333333333335
            },
            {
              "pitch": 69,
              "velocity": 40,
              "position": 4.675,
              "duration": 0.30625
            },
            {
              "pitch": 71,
              "velocity": 40,
              "position": 4.6875,
              "duration": 0.30625
            },
            {
              "pitch": 65,
              "velocity": 60,
              "position": 5,
              "duration": 0.03333333333333333
            },
            {
              "pitch": 67,
              "velocity": 60,
              "position": 5,
              "duration": 0.03333333333333333
            },
            {
              "pitch": 69,
              "velocity": 60,
              "position": 5.010416666666667,
              "duration": 0.035416666666666666
            },
            {
              "pitch": 71,
              "velocity": 60,
              "position": 5.01875,
              "duration": 0.0375
            },
            {
              "pitch": 100,
              "velocity": 90,
              "position": 5,
              "duration": 0.19166666666666668
            },
            {
              "pitch": 65,
              "velocity": 86,
              "position": 5.33125,
              "duration": 0.027083333333333334
            },
            {
              "pitch": 67,
              "velocity": 86,
              "position": 5.33125,
              "duration": 0.027083333333333334
            },
            {
              "pitch": 69,
              "velocity": 71,
              "position": 5.34375,
              "duration": 0.025
            },
            {
              "pitch": 71,
              "velocity": 71,
              "position": 5.354166666666667,
              "duration": 0.025
            },
            {
              "pitch": 119,
              "velocity": 101,
              "position": 5.33125,
              "duration": 0.19166666666666668
            },
            {
              "pitch": 100,
              "velocity": 80,
              "position": 5.666666666666667,
              "duration": 0.19166666666666668
            },
            {
              "pitch": 67,
              "velocity": 50,
              "position": 5.666666666666667,
              "duration": 0.6395833333333333
            },
            {
              "pitch": 65,
              "velocity": 50,
              "position": 5.666666666666667,
              "duration": 0.6395833333333333
            },
            {
              "pitch": 69,
              "velocity": 50,
              "position": 5.675,
              "duration": 0.6395833333333333
            },
            {
              "pitch": 71,
              "velocity": 50,
              "position": 5.6875,
              "duration": 0.6395833333333333
            },
            {
              "pitch": 106,
              "velocity": 30,
              "position": 6.33125,
              "duration": 0.19166666666666668
            },
            {
              "pitch": 65,
              "velocity": 20,
              "position": 6.33125,
              "duration": 0.30625
            },
            {
              "pitch": 67,
              "velocity": 20,
              "position": 6.33125,
              "duration": 0.3104166666666667
            },
            {
              "pitch": 69,
              "velocity": 20,
              "position": 6.34375,
              "duration": 0.30625
            },
            {
              "pitch": 71,
              "velocity": 20,
              "position": 6.354166666666667,
              "duration": 0.30625
            },
            {
              "pitch": 98,
              "velocity": 55,
              "position": 6.666666666666667,
              "duration": 0.19166666666666668
            },
            {
              "pitch": 65,
              "velocity": 40,
              "position": 6.666666666666667,
              "duration": 0.30625
            },
            {
              "pitch": 67,
              "velocity": 40,
              "position": 6.666666666666667,
              "duration": 0.30833333333333335
            },
            {
              "pitch": 69,
              "velocity": 40,
              "position": 6.675,
              "duration": 0.30625
            },
            {
              "pitch": 71,
              "velocity": 40,
              "position": 6.6875,
              "duration": 0.30625
            },
            {
              "pitch": 65,
              "velocity": 60,
              "position": 7,
              "duration": 0.03333333333333333
            },
            {
              "pitch": 67,
              "velocity": 60,
              "position": 7,
              "duration": 0.03333333333333333
            },
            {
              "pitch": 69,
              "velocity": 60,
              "position": 7.010416666666667,
              "duration": 0.035416666666666666
            },
            {
              "pitch": 71,
              "velocity": 60,
              "position": 7.01875,
              "duration": 0.0375
            },
            {
              "pitch": 100,
              "velocity": 90,
              "position": 7,
              "duration": 0.19166666666666668
            },
            {
              "pitch": 65,
              "velocity": 70,
              "position": 7.33125,
              "duration": 0.027083333333333334
            },
            {
              "pitch": 67,
              "velocity": 70,
              "position": 7.33125,
              "duration": 0.027083333333333334
            },
            {
              "pitch": 69,
              "velocity": 70,
              "position": 7.34375,
              "duration": 0.025
            },
            {
              "pitch": 71,
              "velocity": 70,
              "position": 7.354166666666667,
              "duration": 0.025
            },
            {
              "pitch": 118,
              "velocity": 85,
              "position": 7.33125,
              "duration": 0.19166666666666668
            },
            {
              "pitch": 65,
              "velocity": 85,
              "position": 7.666666666666667,
              "duration": 0.025
            },
            {
              "pitch": 67,
              "velocity": 85,
              "position": 7.666666666666667,
              "duration": 0.025
            },
            {
              "pitch": 69,
              "velocity": 70,
              "position": 7.675,
              "duration": 0.027083333333333334
            },
            {
              "pitch": 71,
              "velocity": 70,
              "position": 7.6875,
              "duration": 0.025
            },
            {
              "pitch": 119,
              "velocity": 100,
              "position": 7.666666666666667,
              "duration": 0.19166666666666668
            }
          ]
        },
        "12": {
          "ctab": {
            "srcChannel": 12,
            "name": "Pno RH",
            "accType": "CHORD2",
            "editable": false,
            "mutedNotes": [],
            "mutedChords": [
              "min",
              "Maj"
            ],
            "autoStart": false,
            "sourceChordNote": 0,
            "sourceChordType": "Maj7",
            "ctb2Low": null,
            "ctb2Main": {
              "ntr": "ROOT_FIXED",
              "ntt": "CHORD",
              "bassOn": false,
              "chordRootUpperLimit": 7,
              "noteLowLimit": 0,
              "noteHighLimit": 127,
              "rtr": "PITCH_SHIFT"
            },
            "ctb2High": null,
            "ctb2MiddleLowPitch": 0,
            "ctb2MiddleHighPitch": 127
          },
          "notes": [
            {
              "pitch": 64,
              "velocity": 71,
              "position": 0,
              "duration": 0.31875
            },
            {
              "pitch": 71,
              "velocity": 73,
              "position": 0,
              "duration": 0.31875
            },
            {
              "pitch": 67,
              "velocity": 68,
              "position": 0,
              "duration": 0.31875
            },
            {
              "pitch": 64,
              "velocity": 64,
              "position": 0.33125,
              "duration": 0.31875
            },
            {
              "pitch": 71,
              "velocity": 59,
              "position": 0.33125,
              "duration": 0.31875
            },
            {
              "pitch": 67,
              "velocity": 62,
              "position": 0.33125,
              "duration": 0.31875
            },
            {
              "pitch": 64,
              "velocity": 56,
              "position": 0.6666666666666666,
              "duration": 0.31875
            },
            {
              "pitch": 71,
              "velocity": 55,
              "position": 0.6666666666666666,
              "duration": 0.31875
            },
            {
              "pitch": 67,
              "velocity": 54,
              "position": 0.6666666666666666,
              "duration": 0.31875
            },
            {
              "pitch": 64,
              "velocity": 60,
              "position": 1,
              "duration": 0.31875
            },
            {
              "pitch": 71,
              "velocity": 62,
              "position": 1,
              "duration": 0.31875
            },
            {
              "pitch": 67,
              "velocity": 58,
              "position": 1,
              "duration": 0.31875
            },
            {
              "pitch": 64,
              "velocity": 60,
              "position": 1.33125,
              "duration": 0.20833333333333334
            },
            {
              "pitch": 71,
              "velocity": 64,
              "position": 1.33125,
              "duration": 0.31875
            },
            {
              "pitch": 67,
              "velocity": 54,
              "position": 1.33125,
              "duration": 0.31875
            },
            {
              "pitch": 64,
              "velocity": 78,
              "position": 1.55,
              "duration": 0.43333333333333335
            },
            {
              "pitch": 71,
              "velocity": 80,
              "position": 1.6666666666666667,
              "duration": 0.31875
            },
            {
              "pitch": 67,
              "velocity": 89,
              "position": 1.6666666666666667,
              "duration": 0.31875
            },
            {
              "pitch": 64,
              "velocity": 56,
              "position": 2,
              "duration": 0.31875
            },
            {
              "pitch": 71,
              "velocity": 66,
              "position": 2,
              "duration": 0.31875
            },
            {
              "pitch": 67,
              "velocity": 60,
              "position": 2,
              "duration": 0.31875
            },
            {
              "pitch": 64,
              "velocity": 54,
              "position": 2.33125,
              "duration": 0.31875
            },
            {
              "pitch": 71,
              "velocity": 59,
              "position": 2.33125,
              "duration": 0.31875
            },
            {
              "pitch": 67,
              "velocity": 62,
              "position": 2.33125,
              "duration": 0.31875
            },
            {
              "pitch": 64,
              "velocity": 54,
              "position": 2.6666666666666665,
              "duration": 0.31875
            },
            {
              "pitch": 71,
              "velocity": 62,
              "position": 2.6666666666666665,
              "duration": 0.31875
            },
            {
              "pitch": 67,
              "velocity": 58,
              "position": 2.6666666666666665,
              "duration": 0.31875
            },
            {
              "pitch": 64,
              "velocity": 66,
              "position": 3,
              "duration": 0.31875
            },
            {
              "pitch": 71,
              "velocity": 66,
              "position": 3,
              "duration": 0.31875
            },
            {
              "pitch": 67,
              "velocity": 62,
              "position": 3,
              "duration": 0.31875
            },
            {
              "pitch": 64,
              "velocity": 54,
              "position": 3.33125,
              "duration": 0.20833333333333334
            },
            {
              "pitch": 71,
              "velocity": 64,
              "position": 3.33125,
              "duration": 0.31875
            },
            {
              "pitch": 67,
              "velocity": 54,
              "position": 3.33125,
              "duration": 0.31875
            },
            {
              "pitch": 64,
              "velocity": 80,
              "position": 3.55,
              "duration": 0.31875
            },
            {
              "pitch": 71,
              "velocity": 77,
              "position": 3.6666666666666665,
              "duration": 0.31875
            },
            {
              "pitch": 67,
              "velocity": 95,
              "position": 3.6666666666666665,
              "duration": 0.31875
            },
            {
              "pitch": 64,
              "velocity": 72,
              "position": 3.8854166666666665,
              "duration": 0.43333333333333335
            },
            {
              "pitch": 71,
              "velocity": 83,
              "position": 4,
              "duration": 0.31875
            },
            {
              "pitch": 67,
              "velocity": 75,
              "position": 4,
              "duration": 0.31875
            },
            {
              "pitch": 64,
              "velocity": 60,
              "position": 4.33125,
              "duration": 0.31875
            },
            {
              "pitch": 71,
              "velocity": 59,
              "position": 4.33125,
              "duration": 0.31875
            },
            {
              "pitch": 67,
              "velocity": 64,
              "position": 4.33125,
              "duration": 0.31875
            },
            {
              "pitch": 64,
              "velocity": 56,
              "position": 4.666666666666667,
              "duration": 0.31875
            },
            {
              "pitch": 71,
              "velocity": 62,
              "position": 4.666666666666667,
              "duration": 0.31875
            },
            {
              "pitch": 67,
              "velocity": 54,
              "position": 4.666666666666667,
              "duration": 0.31875
            },
            {
              "pitch": 64,
              "velocity": 70,
              "position": 5,
              "duration": 0.31875
            },
            {
              "pitch": 71,
              "velocity": 70,
              "position": 5,
              "duration": 0.31875
            },
            {
              "pitch": 67,
              "velocity": 75,
              "position": 5,
              "duration": 0.31875
            },
            {
              "pitch": 64,
              "velocity": 54,
              "position": 5.33125,
              "duration": 0.20833333333333334
            },
            {
              "pitch": 71,
              "velocity": 64,
              "position": 5.33125,
              "duration": 0.31875
            },
            {
              "pitch": 67,
              "velocity": 56,
              "position": 5.33125,
              "duration": 0.31875
            },
            {
              "pitch": 64,
              "velocity": 73,
              "position": 5.55,
              "duration": 0.31875
            },
            {
              "pitch": 71,
              "velocity": 83,
              "position": 5.666666666666667,
              "duration": 0.31875
            },
            {
              "pitch": 67,
              "velocity": 87,
              "position": 5.666666666666667,
              "duration": 0.31875
            },
            {
              "pitch": 64,
              "velocity": 69,
              "position": 5.885416666666667,
              "duration": 0.43333333333333335
            },
            {
              "pitch": 71,
              "velocity": 80,
              "position": 6,
              "duration": 0.31875
            },
            {
              "pitch": 67,
              "velocity": 80,
              "position": 6,
              "duration": 0.31875
            },
            {
              "pitch": 64,
              "velocity": 60,
              "position": 6.33125,
              "duration": 0.31875
            },
            {
              "pitch": 71,
              "velocity": 70,
              "position": 6.33125,
              "duration": 0.31875
            },
            {
              "pitch": 67,
              "velocity": 70,
              "position": 6.33125,
              "duration": 0.31875
            },
            {
              "pitch": 64,
              "velocity": 56,
              "position": 6.666666666666667,
              "duration": 0.31875
            },
            {
              "pitch": 71,
              "velocity": 66,
              "position": 6.666666666666667,
              "duration": 0.31875
            },
            {
              "pitch": 67,
              "velocity": 59,
              "position": 6.666666666666667,
              "duration": 0.31875
            },
            {
              "pitch": 64,
              "velocity": 56,
              "position": 7,
              "duration": 0.31875
            },
            {
              "pitch": 71,
              "velocity": 73,
              "position": 7,
              "duration": 0.31875
            },
            {
              "pitch": 67,
              "velocity": 72,
              "position": 7,
              "duration": 0.31875
            },
            {
              "pitch": 64,
              "velocity": 62,
              "position": 7.33125,
              "duration": 0.20833333333333334
            },
            {
              "pitch": 71,
              "velocity": 65,
              "position": 7.33125,
              "duration": 0.31875
            },
            {
              "pitch": 67,
              "velocity": 62,
              "position": 7.33125,
              "duration": 0.31875
            },
            {
              "pitch": 64,
              "velocity": 73,
              "position": 7.55,
              "duration": 0.43333333333333335
            },
            {
              "pitch": 71,
              "velocity": 80,
              "position": 7.666666666666667,
              "duration": 0.31875
            },
            {
              "pitch": 67,
              "velocity": 93,
              "position": 7.666666666666667,
              "duration": 0.31875
            }
          ]
        },
        "13": {
          "ctab": {
            "srcChannel": 13,
            "name": "Organ1",
            "accType": "PAD",
            "editable": false,
            "mutedNotes": [],
            "mutedChords": [],
            "autoStart": false,
            "sourceChordNote": 0,
            "sourceChordType": "Maj7",
            "ctb2Low": null,
            "ctb2Main": {
              "ntr": "ROOT_FIXED",
              "ntt": "CHORD",
              "bassOn": false,
              "chordRootUpperLimit": 7,
              "noteLowLimit": 0,
              "noteHighLimit": 127,
              "rtr": "PITCH_SHIFT"
            },
            "ctb2High": null,
            "ctb2MiddleLowPitch": 0,
            "ctb2MiddleHighPitch": 127
          },
          "notes": [
            {
              "pitch": 64,
              "velocity": 50,
              "position": 0,
              "duration": 3.970833333333333
            },
            {
              "pitch": 71,
              "velocity": 50,
              "position": 0,
              "duration": 3.970833333333333
            },
            {
              "pitch": 67,
              "velocity": 50,
              "position": 0,
              "duration": 3.970833333333333
            },
            {
              "pitch": 64,
              "velocity": 50,
              "position": 4,
              "duration": 3.970833333333333
            },
            {
              "pitch": 71,
              "velocity": 50,
              "position": 4,
              "duration": 3.970833333333333
            },
            {
              "pitch": 67,
              "velocity": 50,
              "position": 4,
              "duration": 3.970833333333333
            }
          ]
        },
        "14": {
          "ctab": {
            "srcChannel": 14,
            "name": "Tele",
            "accType": "PHRASE1",
            "editable": false,
            "mutedNotes": [],
            "mutedChords": [
              "min",
              "Maj"
            ],
            "autoStart": false,
            "sourceChordNote": 0,
            "sourceChordType": "Maj7",
            "ctb2Low": null,
            "ctb2Main": {
              "ntr": "ROOT_TRANSPOSITION",
              "ntt": "MELODY",
              "bassOn": false,
              "chordRootUpperLimit": 4,
              "noteLowLimit": 0,
              "noteHighLimit": 127,
              "rtr": "PITCH_SHIFT"
            },
            "ctb2High": {
              "ntr": "ROOT_FIXED",
              "ntt": "BYPASS",
              "bassOn": false,
              "chordRootUpperLimit": 4,
              "noteLowLimit": 0,
              "noteHighLimit": 127,
              "rtr": "PITCH_SHIFT"
            },
            "ctb2MiddleLowPitch": 0,
            "ctb2MiddleHighPitch": 95
          },
          "notes": [
            {
              "pitch": 64,
              "velocity": 116,
              "position": 0.0020833333333333333,
              "duration": 2.970833333333333
            },
            {
              "pitch": 64,
              "velocity": 116,
              "position": 3,
              "duration": 0.30625
            },
            {
              "pitch": 59,
              "velocity": 16,
              "position": 3.33125,
              "duration": 0.30625
            },
            {
              "pitch": 55,
              "velocity": 16,
              "position": 3.6666666666666665,
              "duration": 0.30625
            },
            {
              "pitch": 59,
              "velocity": 116,
              "position": 4,
              "duration": 2.970833333333333
            },
            {
              "pitch": 55,
              "velocity": 116,
              "position": 7,
              "duration": 0.30625
            },
            {
              "pitch": 59,
              "velocity": 16,
              "position": 7.33125,
              "duration": 0.30625
            },
            {
              "pitch": 55,
              "velocity": 16,
              "position": 7.666666666666667,
              "duration": 0.30625
            }
          ]
        }
      }
    },
    "Main_C": {
      "type": "Main_C",
      "sizeInBeats": 16,
      "channels": {
        "0": {
          "ctab": {
            "srcChannel": 0,
            "name": "Pno LH",
            "accType": "CHORD2",
            "editable": false,
            "mutedNotes": [],
            "mutedChords": [],
            "autoStart": false,
            "sourceChordNote": 0,
            "sourceChordType": "Maj7",
            "ctb2Low": null,
            "ctb2Main": {
              "ntr": "ROOT_TRANSPOSITION",
              "ntt": "MELODY",
              "bassOn": true,
              "chordRootUpperLimit": 8,
              "noteLowLimit": 0,
              "noteHighLimit": 127,
              "rtr": "PITCH_SHIFT_TO_ROOT"
            },
            "ctb2High": null,
            "ctb2MiddleLowPitch": 0,
            "ctb2MiddleHighPitch": 127
          },
          "notes": [
            {
              "pitch": 36,
              "velocity": 94,
              "position": 0,
              "duration": 0.9833333333333333
            },
            {
              "pitch": 40,
              "velocity": 72,
              "position": 1,
              "duration": 0.9833333333333333
            },
            {
              "pitch": 43,
              "velocity": 48,
              "position": 2,
              "duration": 0.9833333333333333
            },
            {
              "pitch": 36,
              "velocity": 94,
              "position": 4,
              "duration": 0.9833333333333333
            },
            {
              "pitch": 40,
              "velocity": 72,
              "position": 5,
              "duration": 0.9833333333333333
            },
            {
              "pitch": 43,
              "velocity": 48,
              "position": 6,
              "duration": 0.9833333333333333
            },
            {
              "pitch": 36,
              "velocity": 94,
              "position": 8,
              "duration": 0.9833333333333333
            },
            {
              "pitch": 40,
              "velocity": 72,
              "position": 9,
              "duration": 0.9833333333333333
            },
            {
              "pitch": 43,
              "velocity": 48,
              "position": 10,
              "duration": 0.9833333333333333
            },
            {
              "pitch": 36,
              "velocity": 94,
              "position": 12,
              "duration": 0.9833333333333333
            },
            {
              "pitch": 40,
              "velocity": 72,
              "position": 13,
              "duration": 0.9833333333333333
            },
            {
              "pitch": 43,
              "velocity": 48,
              "position": 14,
              "duration": 0.9833333333333333
            }
          ]
        },
        "1": {
          "ctab": {
            "srcChannel": 1,
            "name": "Bass B",
            "accType": "BASS",
            "editable": false,
            "mutedNotes": [],
            "mutedChords": [
              "1+2+5",
              "sus4",
              "1+5",
              "1+8",
              "Maj7aug",
              "7(#9)",
              "7(b13)",
              "7(b9)",
              "7(13)",
              "7#11",
              "7(9)",
              "7b5",
              "7sus4",
              "7th",
              "dim7",
              "min7(11)",
              "min7(9)",
              "min7",
              "min6",
              "Maj6(9)",
              "Maj7(9)",
              "Maj(9)",
              "Maj7#11",
              "Maj7",
              "Maj6",
              "Maj"
            ],
            "autoStart": false,
            "sourceChordNote": 0,
            "sourceChordType": "Maj7",
            "ctb2Low": null,
            "ctb2Main": {
              "ntr": "ROOT_TRANSPOSITION",
              "ntt": "MELODY",
              "bassOn": true,
              "chordRootUpperLimit": 8,
              "noteLowLimit": 28,
              "noteHighLimit": 127,
              "rtr": "PITCH_SHIFT_TO_ROOT"
            },
            "ctb2High": null,
            "ctb2MiddleLowPitch": 0,
            "ctb2MiddleHighPitch": 127
          },
          "notes": [
            {
              "pitch": 24,
              "velocity": 70,
              "position": 0,
              "duration": 0.8625
            },
            {
              "pitch": 24,
              "velocity": 59,
              "position": 0.8854166666666666,
              "duration": 0.0875
            },
            {
              "pitch": 28,
              "velocity": 70,
              "position": 1,
              "duration": 0.8625
            },
            {
              "pitch": 28,
              "velocity": 59,
              "position": 1.8854166666666667,
              "duration": 0.0875
            },
            {
              "pitch": 31,
              "velocity": 70,
              "position": 2,
              "duration": 0.8625
            },
            {
              "pitch": 31,
              "velocity": 59,
              "position": 2.8854166666666665,
              "duration": 0.0875
            },
            {
              "pitch": 36,
              "velocity": 70,
              "position": 3,
              "duration": 0.30625
            },
            {
              "pitch": 31,
              "velocity": 59,
              "position": 3.33125,
              "duration": 0.30625
            },
            {
              "pitch": 28,
              "velocity": 59,
              "position": 3.6666666666666665,
              "duration": 0.30625
            },
            {
              "pitch": 24,
              "velocity": 70,
              "position": 4,
              "duration": 0.8625
            },
            {
              "pitch": 24,
              "velocity": 59,
              "position": 4.885416666666667,
              "duration": 0.0875
            },
            {
              "pitch": 28,
              "velocity": 70,
              "position": 5,
              "duration": 0.8625
            },
            {
              "pitch": 28,
              "velocity": 59,
              "position": 5.885416666666667,
              "duration": 0.0875
            },
            {
              "pitch": 31,
              "velocity": 70,
              "position": 6,
              "duration": 0.8625
            },
            {
              "pitch": 31,
              "velocity": 59,
              "position": 6.885416666666667,
              "duration": 0.0875
            },
            {
              "pitch": 36,
              "velocity": 70,
              "position": 7,
              "duration": 0.30625
            },
            {
              "pitch": 31,
              "velocity": 59,
              "position": 7.333333333333333,
              "duration": 0.30625
            },
            {
              "pitch": 28,
              "velocity": 59,
              "position": 7.666666666666667,
              "duration": 0.30625
            },
            {
              "pitch": 24,
              "velocity": 70,
              "position": 8,
              "duration": 0.8625
            },
            {
              "pitch": 24,
              "velocity": 59,
              "position": 8.885416666666666,
              "duration": 0.0875
            },
            {
              "pitch": 28,
              "velocity": 70,
              "position": 9,
              "duration": 0.8625
            },
            {
              "pitch": 28,
              "velocity": 59,
              "position": 9.885416666666666,
              "duration": 0.0875
            },
            {
              "pitch": 31,
              "velocity": 70,
              "position": 10,
              "duration": 0.8625
            },
            {
              "pitch": 31,
              "velocity": 59,
              "position": 10.885416666666666,
              "duration": 0.0875
            },
            {
              "pitch": 36,
              "velocity": 70,
              "position": 11,
              "duration": 0.30625
            },
            {
              "pitch": 31,
              "velocity": 59,
              "position": 11.33125,
              "duration": 0.30625
            },
            {
              "pitch": 28,
              "velocity": 59,
              "position": 11.666666666666666,
              "duration": 0.30625
            },
            {
              "pitch": 24,
              "velocity": 70,
              "position": 12,
              "duration": 0.8625
            },
            {
              "pitch": 24,
              "velocity": 59,
              "position": 12.885416666666666,
              "duration": 0.0875
            },
            {
              "pitch": 28,
              "velocity": 70,
              "position": 13,
              "duration": 0.8625
            },
            {
              "pitch": 28,
              "velocity": 59,
              "position": 13.885416666666666,
              "duration": 0.0875
            },
            {
              "pitch": 31,
              "velocity": 70,
              "position": 14,
              "duration": 0.8625
            },
            {
              "pitch": 31,
              "velocity": 59,
              "position": 14.885416666666666,
              "duration": 0.0875
            },
            {
              "pitch": 36,
              "velocity": 70,
              "position": 15,
              "duration": 0.30625
            },
            {
              "pitch": 31,
              "velocity": 59,
              "position": 15.333333333333334,
              "duration": 0.30625
            },
            {
              "pitch": 28,
              "velocity": 59,
              "position": 15.666666666666666,
              "duration": 0.30625
            }
          ]
        },
        "3": {
          "ctab": {
            "srcChannel": 3,
            "name": "Pno RH S",
            "accType": "CHORD2",
            "editable": false,
            "mutedNotes": [],
            "mutedChords": [
              "1+2+5",
              "sus4",
              "1+5",
              "1+8",
              "7aug",
              "Maj7aug",
              "7(#9)",
              "7(b13)",
              "7(b9)",
              "7(13)",
              "7#11",
              "7(9)",
              "7b5",
              "7sus4",
              "7th",
              "dim7",
              "dim",
              "minMaj7(9)",
              "minMaj7",
              "min7(11)",
              "min7(9)",
              "min(9)",
              "m7b5",
              "min7",
              "min6",
              "aug",
              "Maj6(9)",
              "Maj7(9)",
              "Maj(9)",
              "Maj7#11",
              "Maj7",
              "Maj6"
            ],
            "autoStart": false,
            "sourceChordNote": 0,
            "sourceChordType": "Maj7",
            "ctb2Low": null,
            "ctb2Main": {
              "ntr": "ROOT_TRANSPOSITION",
              "ntt": "DORIAN_5",
              "bassOn": false,
              "chordRootUpperLimit": 11,
              "noteLowLimit": 58,
              "noteHighLimit": 127,
              "rtr": "PITCH_SHIFT"
            },
            "ctb2High": null,
            "ctb2MiddleLowPitch": 0,
            "ctb2MiddleHighPitch": 127
          },
          "notes": [
            {
              "pitch": 46,
              "velocity": 72,
              "position": 0,
              "duration": 0.31875
            },
            {
              "pitch": 55,
              "velocity": 69,
              "position": 0,
              "duration": 0.31875
            },
            {
              "pitch": 52,
              "velocity": 72,
              "position": 0,
              "duration": 0.31875
            },
            {
              "pitch": 48,
              "velocity": 73,
              "position": 0,
              "duration": 0.31875
            },
            {
              "pitch": 46,
              "velocity": 64,
              "position": 0.33125,
              "duration": 0.31875
            },
            {
              "pitch": 55,
              "velocity": 62,
              "position": 0.33125,
              "duration": 0.31875
            },
            {
              "pitch": 52,
              "velocity": 64,
              "position": 0.33125,
              "duration": 0.31875
            },
            {
              "pitch": 48,
              "velocity": 59,
              "position": 0.33125,
              "duration": 0.31875
            },
            {
              "pitch": 46,
              "velocity": 56,
              "position": 0.6666666666666666,
              "duration": 0.31875
            },
            {
              "pitch": 55,
              "velocity": 54,
              "position": 0.6666666666666666,
              "duration": 0.31875
            },
            {
              "pitch": 52,
              "velocity": 56,
              "position": 0.6666666666666666,
              "duration": 0.31875
            },
            {
              "pitch": 48,
              "velocity": 55,
              "position": 0.6666666666666666,
              "duration": 0.31875
            },
            {
              "pitch": 46,
              "velocity": 60,
              "position": 1,
              "duration": 0.31875
            },
            {
              "pitch": 55,
              "velocity": 58,
              "position": 1,
              "duration": 0.31875
            },
            {
              "pitch": 52,
              "velocity": 60,
              "position": 1,
              "duration": 0.31875
            },
            {
              "pitch": 48,
              "velocity": 62,
              "position": 1,
              "duration": 0.31875
            },
            {
              "pitch": 48,
              "velocity": 64,
              "position": 1.33125,
              "duration": 0.20833333333333334
            },
            {
              "pitch": 55,
              "velocity": 54,
              "position": 1.33125,
              "duration": 0.31875
            },
            {
              "pitch": 46,
              "velocity": 60,
              "position": 1.33125,
              "duration": 0.31875
            },
            {
              "pitch": 52,
              "velocity": 60,
              "position": 1.33125,
              "duration": 0.31875
            },
            {
              "pitch": 48,
              "velocity": 79,
              "position": 1.55,
              "duration": 0.43333333333333335
            },
            {
              "pitch": 57,
              "velocity": 89,
              "position": 1.6666666666666667,
              "duration": 0.31875
            },
            {
              "pitch": 53,
              "velocity": 83,
              "position": 1.6666666666666667,
              "duration": 0.31875
            },
            {
              "pitch": 46,
              "velocity": 56,
              "position": 2,
              "duration": 0.31875
            },
            {
              "pitch": 55,
              "velocity": 60,
              "position": 2,
              "duration": 0.31875
            },
            {
              "pitch": 52,
              "velocity": 56,
              "position": 2,
              "duration": 0.31875
            },
            {
              "pitch": 48,
              "velocity": 66,
              "position": 2,
              "duration": 0.31875
            },
            {
              "pitch": 46,
              "velocity": 54,
              "position": 2.33125,
              "duration": 0.31875
            },
            {
              "pitch": 55,
              "velocity": 62,
              "position": 2.33125,
              "duration": 0.31875
            },
            {
              "pitch": 52,
              "velocity": 54,
              "position": 2.33125,
              "duration": 0.31875
            },
            {
              "pitch": 48,
              "velocity": 59,
              "position": 2.33125,
              "duration": 0.31875
            },
            {
              "pitch": 46,
              "velocity": 54,
              "position": 2.6666666666666665,
              "duration": 0.31875
            },
            {
              "pitch": 55,
              "velocity": 58,
              "position": 2.6666666666666665,
              "duration": 0.31875
            },
            {
              "pitch": 52,
              "velocity": 54,
              "position": 2.6666666666666665,
              "duration": 0.31875
            },
            {
              "pitch": 48,
              "velocity": 62,
              "position": 2.6666666666666665,
              "duration": 0.31875
            },
            {
              "pitch": 46,
              "velocity": 66,
              "position": 3,
              "duration": 0.31875
            },
            {
              "pitch": 55,
              "velocity": 62,
              "position": 3,
              "duration": 0.31875
            },
            {
              "pitch": 52,
              "velocity": 66,
              "position": 3,
              "duration": 0.31875
            },
            {
              "pitch": 48,
              "velocity": 66,
              "position": 3,
              "duration": 0.31875
            },
            {
              "pitch": 48,
              "velocity": 64,
              "position": 3.33125,
              "duration": 0.20833333333333334
            },
            {
              "pitch": 55,
              "velocity": 54,
              "position": 3.33125,
              "duration": 0.31875
            },
            {
              "pitch": 46,
              "velocity": 54,
              "position": 3.33125,
              "duration": 0.31875
            },
            {
              "pitch": 52,
              "velocity": 54,
              "position": 3.33125,
              "duration": 0.31875
            },
            {
              "pitch": 48,
              "velocity": 80,
              "position": 3.55,
              "duration": 0.31875
            },
            {
              "pitch": 57,
              "velocity": 95,
              "position": 3.6666666666666665,
              "duration": 0.31875
            },
            {
              "pitch": 53,
              "velocity": 87,
              "position": 3.6666666666666665,
              "duration": 0.31875
            },
            {
              "pitch": 48,
              "velocity": 73,
              "position": 3.8854166666666665,
              "duration": 0.43333333333333335
            },
            {
              "pitch": 55,
              "velocity": 75,
              "position": 4,
              "duration": 0.31875
            },
            {
              "pitch": 52,
              "velocity": 68,
              "position": 4,
              "duration": 0.31875
            },
            {
              "pitch": 46,
              "velocity": 68,
              "position": 4,
              "duration": 0.31875
            },
            {
              "pitch": 46,
              "velocity": 60,
              "position": 4.33125,
              "duration": 0.31875
            },
            {
              "pitch": 55,
              "velocity": 64,
              "position": 4.33125,
              "duration": 0.31875
            },
            {
              "pitch": 52,
              "velocity": 60,
              "position": 4.33125,
              "duration": 0.31875
            },
            {
              "pitch": 48,
              "velocity": 59,
              "position": 4.33125,
              "duration": 0.31875
            },
            {
              "pitch": 46,
              "velocity": 56,
              "position": 4.666666666666667,
              "duration": 0.31875
            },
            {
              "pitch": 55,
              "velocity": 54,
              "position": 4.666666666666667,
              "duration": 0.31875
            },
            {
              "pitch": 52,
              "velocity": 56,
              "position": 4.666666666666667,
              "duration": 0.31875
            },
            {
              "pitch": 48,
              "velocity": 62,
              "position": 4.666666666666667,
              "duration": 0.31875
            },
            {
              "pitch": 46,
              "velocity": 70,
              "position": 5,
              "duration": 0.31875
            },
            {
              "pitch": 55,
              "velocity": 75,
              "position": 5,
              "duration": 0.31875
            },
            {
              "pitch": 52,
              "velocity": 70,
              "position": 5,
              "duration": 0.31875
            },
            {
              "pitch": 48,
              "velocity": 70,
              "position": 5,
              "duration": 0.31875
            },
            {
              "pitch": 48,
              "velocity": 64,
              "position": 5.33125,
              "duration": 0.20833333333333334
            },
            {
              "pitch": 55,
              "velocity": 56,
              "position": 5.33125,
              "duration": 0.31875
            },
            {
              "pitch": 46,
              "velocity": 54,
              "position": 5.33125,
              "duration": 0.31875
            },
            {
              "pitch": 52,
              "velocity": 54,
              "position": 5.33125,
              "duration": 0.31875
            },
            {
              "pitch": 48,
              "velocity": 73,
              "position": 5.55,
              "duration": 0.31875
            },
            {
              "pitch": 57,
              "velocity": 87,
              "position": 5.666666666666667,
              "duration": 0.31875
            },
            {
              "pitch": 53,
              "velocity": 93,
              "position": 5.666666666666667,
              "duration": 0.31875
            },
            {
              "pitch": 48,
              "velocity": 70,
              "position": 5.885416666666667,
              "duration": 0.43333333333333335
            },
            {
              "pitch": 55,
              "velocity": 80,
              "position": 6,
              "duration": 0.31875
            },
            {
              "pitch": 52,
              "velocity": 79,
              "position": 6,
              "duration": 0.31875
            },
            {
              "pitch": 46,
              "velocity": 79,
              "position": 6,
              "duration": 0.31875
            },
            {
              "pitch": 46,
              "velocity": 60,
              "position": 6.33125,
              "duration": 0.31875
            },
            {
              "pitch": 55,
              "velocity": 70,
              "position": 6.33125,
              "duration": 0.31875
            },
            {
              "pitch": 52,
              "velocity": 60,
              "position": 6.33125,
              "duration": 0.31875
            },
            {
              "pitch": 48,
              "velocity": 70,
              "position": 6.33125,
              "duration": 0.31875
            },
            {
              "pitch": 46,
              "velocity": 56,
              "position": 6.666666666666667,
              "duration": 0.31875
            },
            {
              "pitch": 55,
              "velocity": 59,
              "position": 6.666666666666667,
              "duration": 0.31875
            },
            {
              "pitch": 52,
              "velocity": 56,
              "position": 6.666666666666667,
              "duration": 0.31875
            },
            {
              "pitch": 48,
              "velocity": 66,
              "position": 6.666666666666667,
              "duration": 0.31875
            },
            {
              "pitch": 50,
              "velocity": 73,
              "position": 7,
              "duration": 0.21458333333333332
            },
            {
              "pitch": 57,
              "velocity": 72,
              "position": 7,
              "duration": 0.31875
            },
            {
              "pitch": 46,
              "velocity": 56,
              "position": 7,
              "duration": 0.31875
            },
            {
              "pitch": 53,
              "velocity": 56,
              "position": 7,
              "duration": 0.31875
            },
            {
              "pitch": 46,
              "velocity": 62,
              "position": 7.33125,
              "duration": 0.31875
            },
            {
              "pitch": 55,
              "velocity": 62,
              "position": 7.33125,
              "duration": 0.31875
            },
            {
              "pitch": 52,
              "velocity": 62,
              "position": 7.33125,
              "duration": 0.31875
            },
            {
              "pitch": 48,
              "velocity": 73,
              "position": 7.21875,
              "duration": 0.43333333333333335
            },
            {
              "pitch": 46,
              "velocity": 80,
              "position": 7.666666666666667,
              "duration": 0.31875
            },
            {
              "pitch": 55,
              "velocity": 93,
              "position": 7.666666666666667,
              "duration": 0.31875
            },
            {
              "pitch": 52,
              "velocity": 89,
              "position": 7.666666666666667,
              "duration": 0.31875
            },
            {
              "pitch": 48,
              "velocity": 80,
              "position": 7.666666666666667,
              "duration": 0.31875
            },
            {
              "pitch": 46,
              "velocity": 72,
              "position": 8,
              "duration": 0.31875
            },
            {
              "pitch": 55,
              "velocity": 69,
              "position": 8,
              "duration": 0.31875
            },
            {
              "pitch": 52,
              "velocity": 72,
              "position": 8,
              "duration": 0.31875
            },
            {
              "pitch": 48,
              "velocity": 73,
              "position": 8,
              "duration": 0.31875
            },
            {
              "pitch": 46,
              "velocity": 64,
              "position": 8.33125,
              "duration": 0.31875
            },
            {
              "pitch": 55,
              "velocity": 62,
              "position": 8.33125,
              "duration": 0.31875
            },
            {
              "pitch": 52,
              "velocity": 64,
              "position": 8.33125,
              "duration": 0.31875
            },
            {
              "pitch": 48,
              "velocity": 59,
              "position": 8.33125,
              "duration": 0.31875
            },
            {
              "pitch": 46,
              "velocity": 56,
              "position": 8.666666666666666,
              "duration": 0.31875
            },
            {
              "pitch": 55,
              "velocity": 54,
              "position": 8.666666666666666,
              "duration": 0.31875
            },
            {
              "pitch": 52,
              "velocity": 56,
              "position": 8.666666666666666,
              "duration": 0.31875
            },
            {
              "pitch": 48,
              "velocity": 55,
              "position": 8.666666666666666,
              "duration": 0.31875
            },
            {
              "pitch": 46,
              "velocity": 60,
              "position": 9,
              "duration": 0.31875
            },
            {
              "pitch": 55,
              "velocity": 58,
              "position": 9,
              "duration": 0.31875
            },
            {
              "pitch": 52,
              "velocity": 60,
              "position": 9,
              "duration": 0.31875
            },
            {
              "pitch": 48,
              "velocity": 62,
              "position": 9,
              "duration": 0.31875
            },
            {
              "pitch": 48,
              "velocity": 64,
              "position": 9.33125,
              "duration": 0.20833333333333334
            },
            {
              "pitch": 55,
              "velocity": 54,
              "position": 9.33125,
              "duration": 0.31875
            },
            {
              "pitch": 46,
              "velocity": 60,
              "position": 9.33125,
              "duration": 0.31875
            },
            {
              "pitch": 52,
              "velocity": 60,
              "position": 9.33125,
              "duration": 0.31875
            },
            {
              "pitch": 48,
              "velocity": 79,
              "position": 9.55,
              "duration": 0.43333333333333335
            },
            {
              "pitch": 57,
              "velocity": 89,
              "position": 9.666666666666666,
              "duration": 0.31875
            },
            {
              "pitch": 53,
              "velocity": 83,
              "position": 9.666666666666666,
              "duration": 0.31875
            },
            {
              "pitch": 46,
              "velocity": 56,
              "position": 10,
              "duration": 0.31875
            },
            {
              "pitch": 55,
              "velocity": 60,
              "position": 10,
              "duration": 0.31875
            },
            {
              "pitch": 52,
              "velocity": 56,
              "position": 10,
              "duration": 0.31875
            },
            {
              "pitch": 48,
              "velocity": 66,
              "position": 10,
              "duration": 0.31875
            },
            {
              "pitch": 46,
              "velocity": 54,
              "position": 10.33125,
              "duration": 0.31875
            },
            {
              "pitch": 55,
              "velocity": 62,
              "position": 10.33125,
              "duration": 0.31875
            },
            {
              "pitch": 52,
              "velocity": 54,
              "position": 10.33125,
              "duration": 0.31875
            },
            {
              "pitch": 48,
              "velocity": 59,
              "position": 10.33125,
              "duration": 0.31875
            },
            {
              "pitch": 46,
              "velocity": 54,
              "position": 10.666666666666666,
              "duration": 0.31875
            },
            {
              "pitch": 55,
              "velocity": 58,
              "position": 10.666666666666666,
              "duration": 0.31875
            },
            {
              "pitch": 52,
              "velocity": 54,
              "position": 10.666666666666666,
              "duration": 0.31875
            },
            {
              "pitch": 48,
              "velocity": 62,
              "position": 10.666666666666666,
              "duration": 0.31875
            },
            {
              "pitch": 46,
              "velocity": 66,
              "position": 11,
              "duration": 0.31875
            },
            {
              "pitch": 55,
              "velocity": 62,
              "position": 11,
              "duration": 0.31875
            },
            {
              "pitch": 52,
              "velocity": 66,
              "position": 11,
              "duration": 0.31875
            },
            {
              "pitch": 48,
              "velocity": 66,
              "position": 11,
              "duration": 0.31875
            },
            {
              "pitch": 48,
              "velocity": 64,
              "position": 11.33125,
              "duration": 0.20833333333333334
            },
            {
              "pitch": 55,
              "velocity": 54,
              "position": 11.33125,
              "duration": 0.31875
            },
            {
              "pitch": 46,
              "velocity": 54,
              "position": 11.33125,
              "duration": 0.31875
            },
            {
              "pitch": 52,
              "velocity": 54,
              "position": 11.33125,
              "duration": 0.31875
            },
            {
              "pitch": 48,
              "velocity": 80,
              "position": 11.55,
              "duration": 0.31875
            },
            {
              "pitch": 57,
              "velocity": 95,
              "position": 11.666666666666666,
              "duration": 0.31875
            },
            {
              "pitch": 53,
              "velocity": 87,
              "position": 11.666666666666666,
              "duration": 0.31875
            },
            {
              "pitch": 48,
              "velocity": 73,
              "position": 11.885416666666666,
              "duration": 0.43333333333333335
            },
            {
              "pitch": 55,
              "velocity": 75,
              "position": 12,
              "duration": 0.31875
            },
            {
              "pitch": 52,
              "velocity": 68,
              "position": 12,
              "duration": 0.31875
            },
            {
              "pitch": 46,
              "velocity": 68,
              "position": 12,
              "duration": 0.31875
            },
            {
              "pitch": 46,
              "velocity": 60,
              "position": 12.33125,
              "duration": 0.31875
            },
            {
              "pitch": 55,
              "velocity": 64,
              "position": 12.33125,
              "duration": 0.31875
            },
            {
              "pitch": 52,
              "velocity": 60,
              "position": 12.33125,
              "duration": 0.31875
            },
            {
              "pitch": 48,
              "velocity": 59,
              "position": 12.33125,
              "duration": 0.31875
            },
            {
              "pitch": 46,
              "velocity": 56,
              "position": 12.666666666666666,
              "duration": 0.31875
            },
            {
              "pitch": 55,
              "velocity": 54,
              "position": 12.666666666666666,
              "duration": 0.31875
            },
            {
              "pitch": 52,
              "velocity": 56,
              "position": 12.666666666666666,
              "duration": 0.31875
            },
            {
              "pitch": 48,
              "velocity": 62,
              "position": 12.666666666666666,
              "duration": 0.31875
            },
            {
              "pitch": 46,
              "velocity": 70,
              "position": 13,
              "duration": 0.31875
            },
            {
              "pitch": 55,
              "velocity": 75,
              "position": 13,
              "duration": 0.31875
            },
            {
              "pitch": 52,
              "velocity": 70,
              "position": 13,
              "duration": 0.31875
            },
            {
              "pitch": 48,
              "velocity": 70,
              "position": 13,
              "duration": 0.31875
            },
            {
              "pitch": 48,
              "velocity": 64,
              "position": 13.33125,
              "duration": 0.20833333333333334
            },
            {
              "pitch": 55,
              "velocity": 56,
              "position": 13.33125,
              "duration": 0.31875
            },
            {
              "pitch": 46,
              "velocity": 54,
              "position": 13.33125,
              "duration": 0.31875
            },
            {
              "pitch": 52,
              "velocity": 54,
              "position": 13.33125,
              "duration": 0.31875
            },
            {
              "pitch": 48,
              "velocity": 73,
              "position": 13.55,
              "duration": 0.31875
            },
            {
              "pitch": 57,
              "velocity": 87,
              "position": 13.666666666666666,
              "duration": 0.31875
            },
            {
              "pitch": 53,
              "velocity": 93,
              "position": 13.666666666666666,
              "duration": 0.31875
            },
            {
              "pitch": 48,
              "velocity": 70,
              "position": 13.885416666666666,
              "duration": 0.43333333333333335
            },
            {
              "pitch": 55,
              "velocity": 80,
              "position": 14,
              "duration": 0.31875
            },
            {
              "pitch": 52,
              "velocity": 79,
              "position": 14,
              "duration": 0.31875
            },
            {
              "pitch": 46,
              "velocity": 79,
              "position": 14,
              "duration": 0.31875
            },
            {
              "pitch": 46,
              "velocity": 60,
              "position": 14.33125,
              "duration": 0.31875
            },
            {
              "pitch": 55,
              "velocity": 70,
              "position": 14.33125,
              "duration": 0.31875
            },
            {
              "pitch": 52,
              "velocity": 60,
              "position": 14.33125,
              "duration": 0.31875
            },
            {
              "pitch": 48,
              "velocity": 70,
              "position": 14.33125,
              "duration": 0.31875
            },
            {
              "pitch": 46,
              "velocity": 56,
              "position": 14.666666666666666,
              "duration": 0.31875
            },
            {
              "pitch": 55,
              "velocity": 59,
              "position": 14.666666666666666,
              "duration": 0.31875
            },
            {
              "pitch": 52,
              "velocity": 56,
              "position": 14.666666666666666,
              "duration": 0.31875
            },
            {
              "pitch": 48,
              "velocity": 66,
              "position": 14.666666666666666,
              "duration": 0.31875
            },
            {
              "pitch": 50,
              "velocity": 73,
              "position": 15,
              "duration": 0.21458333333333332
            },
            {
              "pitch": 57,
              "velocity": 72,
              "position": 15,
              "duration": 0.31875
            },
            {
              "pitch": 46,
              "velocity": 56,
              "position": 15,
              "duration": 0.31875
            },
            {
              "pitch": 53,
              "velocity": 56,
              "position": 15,
              "duration": 0.31875
            },
            {
              "pitch": 46,
              "velocity": 62,
              "position": 15.33125,
              "duration": 0.31875
            },
            {
              "pitch": 55,
              "velocity": 62,
              "position": 15.33125,
              "duration": 0.31875
            },
            {
              "pitch": 52,
              "velocity": 62,
              "position": 15.33125,
              "duration": 0.31875
            },
            {
              "pitch": 48,
              "velocity": 73,
              "position": 15.21875,
              "duration": 0.43333333333333335
            },
            {
              "pitch": 46,
              "velocity": 80,
              "position": 15.666666666666666,
              "duration": 0.31875
            },
            {
              "pitch": 55,
              "velocity": 93,
              "position": 15.666666666666666,
              "duration": 0.31875
            },
            {
              "pitch": 52,
              "velocity": 89,
              "position": 15.666666666666666,
              "duration": 0.31875
            },
            {
              "pitch": 48,
              "velocity": 80,
              "position": 15.666666666666666,
              "duration": 0.31875
            }
          ]
        },
        "5": {
          "ctab": {
            "srcChannel": 5,
            "name": "Tele S M",
            "accType": "PHRASE1",
            "editable": false,
            "mutedNotes": [],
            "mutedChords": [
              "1+2+5",
              "sus4",
              "1+5",
              "1+8",
              "7aug",
              "Maj7aug",
              "7(#9)",
              "7(b13)",
              "7(b9)",
              "7(13)",
              "7#11",
              "7(9)",
              "7b5",
              "7sus4",
              "7th",
              "dim7",
              "dim",
              "minMaj7(9)",
              "minMaj7",
              "min7(11)",
              "min7(9)",
              "min(9)",
              "m7b5",
              "min7",
              "min6",
              "min",
              "aug",
              "Maj6(9)",
              "Maj7(9)",
              "Maj(9)",
              "Maj7#11",
              "Maj7",
              "Maj6"
            ],
            "autoStart": false,
            "sourceChordNote": 0,
            "sourceChordType": "Maj7",
            "ctb2Low": null,
            "ctb2Main": {
              "ntr": "ROOT_TRANSPOSITION",
              "ntt": "DORIAN_5",
              "bassOn": false,
              "chordRootUpperLimit": 4,
              "noteLowLimit": 0,
              "noteHighLimit": 127,
              "rtr": "PITCH_SHIFT"
            },
            "ctb2High": {
              "ntr": "ROOT_FIXED",
              "ntt": "BYPASS",
              "bassOn": false,
              "chordRootUpperLimit": 4,
              "noteLowLimit": 0,
              "noteHighLimit": 127,
              "rtr": "PITCH_SHIFT"
            },
            "ctb2MiddleLowPitch": 0,
            "ctb2MiddleHighPitch": 95
          },
          "notes": [
            {
              "pitch": 64,
              "velocity": 116,
              "position": 0.0020833333333333333,
              "duration": 2.970833333333333
            },
            {
              "pitch": 62,
              "velocity": 30,
              "position": 3,
              "duration": 0.30625
            },
            {
              "pitch": 60,
              "velocity": 16,
              "position": 3.33125,
              "duration": 0.30625
            },
            {
              "pitch": 57,
              "velocity": 16,
              "position": 3.6666666666666665,
              "duration": 0.30625
            },
            {
              "pitch": 60,
              "velocity": 116,
              "position": 4,
              "duration": 2.970833333333333
            },
            {
              "pitch": 57,
              "velocity": 116,
              "position": 7,
              "duration": 0.30625
            },
            {
              "pitch": 60,
              "velocity": 16,
              "position": 7.33125,
              "duration": 0.30625
            },
            {
              "pitch": 62,
              "velocity": 16,
              "position": 7.666666666666667,
              "duration": 0.30625
            },
            {
              "pitch": 64,
              "velocity": 116,
              "position": 8.002083333333333,
              "duration": 2.970833333333333
            },
            {
              "pitch": 62,
              "velocity": 30,
              "position": 11,
              "duration": 0.30625
            },
            {
              "pitch": 60,
              "velocity": 16,
              "position": 11.33125,
              "duration": 0.30625
            },
            {
              "pitch": 57,
              "velocity": 16,
              "position": 11.666666666666666,
              "duration": 0.30625
            },
            {
              "pitch": 60,
              "velocity": 116,
              "position": 12,
              "duration": 2.970833333333333
            },
            {
              "pitch": 57,
              "velocity": 116,
              "position": 15,
              "duration": 0.30625
            },
            {
              "pitch": 60,
              "velocity": 16,
              "position": 15.33125,
              "duration": 0.30625
            },
            {
              "pitch": 62,
              "velocity": 16,
              "position": 15.666666666666666,
              "duration": 0.30625
            }
          ]
        },
        "6": {
          "ctab": {
            "srcChannel": 6,
            "name": "E.P  S",
            "accType": "PHRASE2",
            "editable": false,
            "mutedNotes": [],
            "mutedChords": [
              "1+2+5",
              "sus4",
              "1+5",
              "1+8",
              "7aug",
              "Maj7aug",
              "7(#9)",
              "7(b13)",
              "7(b9)",
              "7(13)",
              "7#11",
              "7(9)",
              "7b5",
              "7sus4",
              "7th",
              "dim7",
              "dim",
              "minMaj7(9)",
              "minMaj7",
              "min7(11)",
              "min7(9)",
              "min(9)",
              "m7b5",
              "min7",
              "min6",
              "aug",
              "Maj6(9)",
              "Maj7(9)",
              "Maj(9)",
              "Maj7#11",
              "Maj7",
              "Maj6"
            ],
            "autoStart": false,
            "sourceChordNote": 0,
            "sourceChordType": "Maj7",
            "ctb2Low": null,
            "ctb2Main": {
              "ntr": "ROOT_TRANSPOSITION",
              "ntt": "DORIAN_5",
              "bassOn": false,
              "chordRootUpperLimit": 4,
              "noteLowLimit": 0,
              "noteHighLimit": 127,
              "rtr": "PITCH_SHIFT"
            },
            "ctb2High": null,
            "ctb2MiddleLowPitch": 0,
            "ctb2MiddleHighPitch": 127
          },
          "notes": [
            {
              "pitch": 58,
              "velocity": 88,
              "position": 0,
              "duration": 3.18125
            },
            {
              "pitch": 67,
              "velocity": 63,
              "position": 0,
              "duration": 3.18125
            },
            {
              "pitch": 64,
              "velocity": 71,
              "position": 0,
              "duration": 3.18125
            },
            {
              "pitch": 60,
              "velocity": 88,
              "position": 0,
              "duration": 3.18125
            },
            {
              "pitch": 60,
              "velocity": 88,
              "position": 3.21875,
              "duration": 0.0875
            },
            {
              "pitch": 66,
              "velocity": 88,
              "position": 3.33125,
              "duration": 0.0875
            },
            {
              "pitch": 62,
              "velocity": 103,
              "position": 3.33125,
              "duration": 0.20208333333333334
            },
            {
              "pitch": 70,
              "velocity": 95,
              "position": 3.33125,
              "duration": 0.20208333333333334
            },
            {
              "pitch": 67,
              "velocity": 114,
              "position": 3.3541666666666665,
              "duration": 0.20208333333333334
            },
            {
              "pitch": 60,
              "velocity": 69,
              "position": 3.6666666666666665,
              "duration": 0.20208333333333334
            },
            {
              "pitch": 69,
              "velocity": 54,
              "position": 3.6666666666666665,
              "duration": 0.20208333333333334
            },
            {
              "pitch": 65,
              "velocity": 59,
              "position": 3.6666666666666665,
              "duration": 0.20208333333333334
            },
            {
              "pitch": 58,
              "velocity": 67,
              "position": 4,
              "duration": 2.970833333333333
            },
            {
              "pitch": 67,
              "velocity": 67,
              "position": 4,
              "duration": 2.970833333333333
            },
            {
              "pitch": 64,
              "velocity": 69,
              "position": 4,
              "duration": 2.970833333333333
            },
            {
              "pitch": 60,
              "velocity": 67,
              "position": 4,
              "duration": 2.970833333333333
            },
            {
              "pitch": 60,
              "velocity": 71,
              "position": 7.33125,
              "duration": 0.30625
            },
            {
              "pitch": 69,
              "velocity": 53,
              "position": 7.33125,
              "duration": 0.30625
            },
            {
              "pitch": 65,
              "velocity": 65,
              "position": 7.33125,
              "duration": 0.30625
            },
            {
              "pitch": 58,
              "velocity": 71,
              "position": 7.666666666666667,
              "duration": 0.30625
            },
            {
              "pitch": 67,
              "velocity": 53,
              "position": 7.666666666666667,
              "duration": 0.30625
            },
            {
              "pitch": 64,
              "velocity": 65,
              "position": 7.666666666666667,
              "duration": 0.30625
            },
            {
              "pitch": 60,
              "velocity": 71,
              "position": 7.666666666666667,
              "duration": 0.30625
            },
            {
              "pitch": 58,
              "velocity": 88,
              "position": 8,
              "duration": 3.18125
            },
            {
              "pitch": 67,
              "velocity": 63,
              "position": 8,
              "duration": 3.18125
            },
            {
              "pitch": 64,
              "velocity": 71,
              "position": 8,
              "duration": 3.18125
            },
            {
              "pitch": 60,
              "velocity": 88,
              "position": 8,
              "duration": 3.18125
            },
            {
              "pitch": 60,
              "velocity": 88,
              "position": 11.21875,
              "duration": 0.0875
            },
            {
              "pitch": 66,
              "velocity": 88,
              "position": 11.33125,
              "duration": 0.0875
            },
            {
              "pitch": 62,
              "velocity": 103,
              "position": 11.33125,
              "duration": 0.20208333333333334
            },
            {
              "pitch": 70,
              "velocity": 95,
              "position": 11.33125,
              "duration": 0.20208333333333334
            },
            {
              "pitch": 67,
              "velocity": 114,
              "position": 11.354166666666666,
              "duration": 0.20208333333333334
            },
            {
              "pitch": 60,
              "velocity": 69,
              "position": 11.666666666666666,
              "duration": 0.20208333333333334
            },
            {
              "pitch": 69,
              "velocity": 54,
              "position": 11.666666666666666,
              "duration": 0.20208333333333334
            },
            {
              "pitch": 65,
              "velocity": 59,
              "position": 11.666666666666666,
              "duration": 0.20208333333333334
            },
            {
              "pitch": 58,
              "velocity": 67,
              "position": 12,
              "duration": 2.970833333333333
            },
            {
              "pitch": 67,
              "velocity": 67,
              "position": 12,
              "duration": 2.970833333333333
            },
            {
              "pitch": 64,
              "velocity": 69,
              "position": 12,
              "duration": 2.970833333333333
            },
            {
              "pitch": 60,
              "velocity": 67,
              "position": 12,
              "duration": 2.970833333333333
            },
            {
              "pitch": 60,
              "velocity": 71,
              "position": 15.33125,
              "duration": 0.30625
            },
            {
              "pitch": 69,
              "velocity": 53,
              "position": 15.33125,
              "duration": 0.30625
            },
            {
              "pitch": 65,
              "velocity": 65,
              "position": 15.33125,
              "duration": 0.30625
            },
            {
              "pitch": 58,
              "velocity": 71,
              "position": 15.666666666666666,
              "duration": 0.30625
            },
            {
              "pitch": 67,
              "velocity": 53,
              "position": 15.666666666666666,
              "duration": 0.30625
            },
            {
              "pitch": 64,
              "velocity": 65,
              "position": 15.666666666666666,
              "duration": 0.30625
            },
            {
              "pitch": 60,
              "velocity": 71,
              "position": 15.666666666666666,
              "duration": 0.30625
            }
          ]
        },
        "7": {
          "ctab": {
            "srcChannel": 7,
            "name": "Tele S m",
            "accType": "PHRASE1",
            "editable": false,
            "mutedNotes": [],
            "mutedChords": [
              "1+2+5",
              "sus4",
              "1+5",
              "1+8",
              "7aug",
              "Maj7aug",
              "7(#9)",
              "7(b13)",
              "7(b9)",
              "7(13)",
              "7#11",
              "7(9)",
              "7b5",
              "7sus4",
              "7th",
              "dim7",
              "dim",
              "minMaj7(9)",
              "minMaj7",
              "min7(11)",
              "min7(9)",
              "min(9)",
              "m7b5",
              "min7",
              "min6",
              "aug",
              "Maj6(9)",
              "Maj7(9)",
              "Maj(9)",
              "Maj7#11",
              "Maj7",
              "Maj6",
              "Maj"
            ],
            "autoStart": false,
            "sourceChordNote": 0,
            "sourceChordType": "Maj7",
            "ctb2Low": null,
            "ctb2Main": {
              "ntr": "ROOT_TRANSPOSITION",
              "ntt": "DORIAN_5",
              "bassOn": false,
              "chordRootUpperLimit": 4,
              "noteLowLimit": 0,
              "noteHighLimit": 127,
              "rtr": "PITCH_SHIFT"
            },
            "ctb2High": {
              "ntr": "ROOT_FIXED",
              "ntt": "BYPASS",
              "bassOn": false,
              "chordRootUpperLimit": 4,
              "noteLowLimit": 0,
              "noteHighLimit": 127,
              "rtr": "PITCH_SHIFT"
            },
            "ctb2MiddleLowPitch": 0,
            "ctb2MiddleHighPitch": 95
          },
          "notes": [
            {
              "pitch": 60,
              "velocity": 116,
              "position": 0.010416666666666666,
              "duration": 2.9625
            },
            {
              "pitch": 58,
              "velocity": 32,
              "position": 3,
              "duration": 0.30625
            },
            {
              "pitch": 60,
              "velocity": 16,
              "position": 3.33125,
              "duration": 0.30625
            },
            {
              "pitch": 63,
              "velocity": 16,
              "position": 3.6666666666666665,
              "duration": 0.30625
            },
            {
              "pitch": 60,
              "velocity": 116,
              "position": 4,
              "duration": 2.970833333333333
            },
            {
              "pitch": 55,
              "velocity": 116,
              "position": 7,
              "duration": 0.30625
            },
            {
              "pitch": 63,
              "velocity": 16,
              "position": 7.33125,
              "duration": 0.30625
            },
            {
              "pitch": 58,
              "velocity": 16,
              "position": 7.666666666666667,
              "duration": 0.30625
            },
            {
              "pitch": 60,
              "velocity": 116,
              "position": 8.010416666666666,
              "duration": 2.9625
            },
            {
              "pitch": 58,
              "velocity": 32,
              "position": 11,
              "duration": 0.30625
            },
            {
              "pitch": 60,
              "velocity": 16,
              "position": 11.33125,
              "duration": 0.30625
            },
            {
              "pitch": 63,
              "velocity": 16,
              "position": 11.666666666666666,
              "duration": 0.30625
            },
            {
              "pitch": 60,
              "velocity": 116,
              "position": 12,
              "duration": 2.970833333333333
            },
            {
              "pitch": 55,
              "velocity": 116,
              "position": 15,
              "duration": 0.30625
            },
            {
              "pitch": 63,
              "velocity": 16,
              "position": 15.33125,
              "duration": 0.30625
            },
            {
              "pitch": 58,
              "velocity": 16,
              "position": 15.666666666666666,
              "duration": 0.30625
            }
          ]
        },
        "8": {
          "ctab": {
            "srcChannel": 8,
            "name": "AddDrum",
            "accType": "SUBRHYTHM",
            "editable": true,
            "mutedNotes": [],
            "mutedChords": [],
            "autoStart": true,
            "sourceChordNote": 0,
            "sourceChordType": "Maj7",
            "ctb2Low": null,
            "ctb2Main": {
              "ntr": "ROOT_FIXED",
              "ntt": "BYPASS",
              "bassOn": false,
              "chordRootUpperLimit": 6,
              "noteLowLimit": 0,
              "noteHighLimit": 127,
              "rtr": "PITCH_SHIFT"
            },
            "ctb2High": null,
            "ctb2MiddleLowPitch": 0,
            "ctb2MiddleHighPitch": 127
          },
          "notes": [
            {
              "pitch": 54,
              "velocity": 36,
              "position": 0,
              "duration": 0.00625
            },
            {
              "pitch": 54,
              "velocity": 9,
              "position": 0.21875,
              "duration": 0.00625
            },
            {
              "pitch": 54,
              "velocity": 25,
              "position": 0.33125,
              "duration": 0.00625
            },
            {
              "pitch": 54,
              "velocity": 24,
              "position": 0.55,
              "duration": 0.00625
            },
            {
              "pitch": 54,
              "velocity": 26,
              "position": 0.6666666666666666,
              "duration": 0.00625
            },
            {
              "pitch": 54,
              "velocity": 8,
              "position": 0.8854166666666666,
              "duration": 0.00625
            },
            {
              "pitch": 54,
              "velocity": 90,
              "position": 1,
              "duration": 0.00625
            },
            {
              "pitch": 54,
              "velocity": 13,
              "position": 1.21875,
              "duration": 0.00625
            },
            {
              "pitch": 54,
              "velocity": 25,
              "position": 1.33125,
              "duration": 0.00625
            },
            {
              "pitch": 54,
              "velocity": 10,
              "position": 1.55,
              "duration": 0.00625
            },
            {
              "pitch": 54,
              "velocity": 19,
              "position": 1.6666666666666667,
              "duration": 0.00625
            },
            {
              "pitch": 54,
              "velocity": 10,
              "position": 1.8854166666666667,
              "duration": 0.00625
            },
            {
              "pitch": 54,
              "velocity": 36,
              "position": 2,
              "duration": 0.00625
            },
            {
              "pitch": 54,
              "velocity": 9,
              "position": 2.21875,
              "duration": 0.00625
            },
            {
              "pitch": 54,
              "velocity": 25,
              "position": 2.33125,
              "duration": 0.00625
            },
            {
              "pitch": 54,
              "velocity": 24,
              "position": 2.55,
              "duration": 0.00625
            },
            {
              "pitch": 54,
              "velocity": 26,
              "position": 2.6666666666666665,
              "duration": 0.00625
            },
            {
              "pitch": 54,
              "velocity": 8,
              "position": 2.8854166666666665,
              "duration": 0.00625
            },
            {
              "pitch": 54,
              "velocity": 90,
              "position": 3,
              "duration": 0.00625
            },
            {
              "pitch": 54,
              "velocity": 13,
              "position": 3.21875,
              "duration": 0.00625
            },
            {
              "pitch": 54,
              "velocity": 25,
              "position": 3.33125,
              "duration": 0.00625
            },
            {
              "pitch": 54,
              "velocity": 10,
              "position": 3.55,
              "duration": 0.00625
            },
            {
              "pitch": 54,
              "velocity": 19,
              "position": 3.6666666666666665,
              "duration": 0.00625
            },
            {
              "pitch": 54,
              "velocity": 10,
              "position": 3.8854166666666665,
              "duration": 0.00625
            },
            {
              "pitch": 54,
              "velocity": 36,
              "position": 4,
              "duration": 0.00625
            },
            {
              "pitch": 54,
              "velocity": 9,
              "position": 4.21875,
              "duration": 0.00625
            },
            {
              "pitch": 54,
              "velocity": 25,
              "position": 4.333333333333333,
              "duration": 0.00625
            },
            {
              "pitch": 54,
              "velocity": 24,
              "position": 4.552083333333333,
              "duration": 0.00625
            },
            {
              "pitch": 54,
              "velocity": 26,
              "position": 4.666666666666667,
              "duration": 0.00625
            },
            {
              "pitch": 54,
              "velocity": 8,
              "position": 4.885416666666667,
              "duration": 0.00625
            },
            {
              "pitch": 54,
              "velocity": 90,
              "position": 5,
              "duration": 0.00625
            },
            {
              "pitch": 54,
              "velocity": 13,
              "position": 5.21875,
              "duration": 0.00625
            },
            {
              "pitch": 54,
              "velocity": 25,
              "position": 5.333333333333333,
              "duration": 0.00625
            },
            {
              "pitch": 54,
              "velocity": 10,
              "position": 5.552083333333333,
              "duration": 0.00625
            },
            {
              "pitch": 54,
              "velocity": 19,
              "position": 5.666666666666667,
              "duration": 0.00625
            },
            {
              "pitch": 54,
              "velocity": 10,
              "position": 5.885416666666667,
              "duration": 0.00625
            },
            {
              "pitch": 54,
              "velocity": 36,
              "position": 6,
              "duration": 0.00625
            },
            {
              "pitch": 54,
              "velocity": 9,
              "position": 6.21875,
              "duration": 0.00625
            },
            {
              "pitch": 54,
              "velocity": 25,
              "position": 6.333333333333333,
              "duration": 0.00625
            },
            {
              "pitch": 54,
              "velocity": 24,
              "position": 6.552083333333333,
              "duration": 0.00625
            },
            {
              "pitch": 54,
              "velocity": 26,
              "position": 6.666666666666667,
              "duration": 0.00625
            },
            {
              "pitch": 54,
              "velocity": 8,
              "position": 6.885416666666667,
              "duration": 0.00625
            },
            {
              "pitch": 54,
              "velocity": 90,
              "position": 7,
              "duration": 0.00625
            },
            {
              "pitch": 54,
              "velocity": 13,
              "position": 7.21875,
              "duration": 0.00625
            },
            {
              "pitch": 54,
              "velocity": 25,
              "position": 7.333333333333333,
              "duration": 0.00625
            },
            {
              "pitch": 54,
              "velocity": 10,
              "position": 7.552083333333333,
              "duration": 0.00625
            },
            {
              "pitch": 54,
              "velocity": 19,
              "position": 7.666666666666667,
              "duration": 0.00625
            },
            {
              "pitch": 54,
              "velocity": 10,
              "position": 7.885416666666667,
              "duration": 0.00625
            },
            {
              "pitch": 54,
              "velocity": 36,
              "position": 8,
              "duration": 0.00625
            },
            {
              "pitch": 54,
              "velocity": 9,
              "position": 8.21875,
              "duration": 0.00625
            },
            {
              "pitch": 54,
              "velocity": 25,
              "position": 8.33125,
              "duration": 0.00625
            },
            {
              "pitch": 54,
              "velocity": 24,
              "position": 8.55,
              "duration": 0.00625
            },
            {
              "pitch": 54,
              "velocity": 26,
              "position": 8.666666666666666,
              "duration": 0.00625
            },
            {
              "pitch": 54,
              "velocity": 8,
              "position": 8.885416666666666,
              "duration": 0.00625
            },
            {
              "pitch": 54,
              "velocity": 90,
              "position": 9,
              "duration": 0.00625
            },
            {
              "pitch": 54,
              "velocity": 13,
              "position": 9.21875,
              "duration": 0.00625
            },
            {
              "pitch": 54,
              "velocity": 25,
              "position": 9.33125,
              "duration": 0.00625
            },
            {
              "pitch": 54,
              "velocity": 10,
              "position": 9.55,
              "duration": 0.00625
            },
            {
              "pitch": 54,
              "velocity": 19,
              "position": 9.666666666666666,
              "duration": 0.00625
            },
            {
              "pitch": 54,
              "velocity": 10,
              "position": 9.885416666666666,
              "duration": 0.00625
            },
            {
              "pitch": 54,
              "velocity": 36,
              "position": 10,
              "duration": 0.00625
            },
            {
              "pitch": 54,
              "velocity": 9,
              "position": 10.21875,
              "duration": 0.00625
            },
            {
              "pitch": 54,
              "velocity": 25,
              "position": 10.33125,
              "duration": 0.00625
            },
            {
              "pitch": 54,
              "velocity": 24,
              "position": 10.55,
              "duration": 0.00625
            },
            {
              "pitch": 54,
              "velocity": 26,
              "position": 10.666666666666666,
              "duration": 0.00625
            },
            {
              "pitch": 54,
              "velocity": 8,
              "position": 10.885416666666666,
              "duration": 0.00625
            },
            {
              "pitch": 54,
              "velocity": 90,
              "position": 11,
              "duration": 0.00625
            },
            {
              "pitch": 54,
              "velocity": 13,
              "position": 11.21875,
              "duration": 0.00625
            },
            {
              "pitch": 54,
              "velocity": 25,
              "position": 11.33125,
              "duration": 0.00625
            },
            {
              "pitch": 54,
              "velocity": 10,
              "position": 11.55,
              "duration": 0.00625
            },
            {
              "pitch": 54,
              "velocity": 19,
              "position": 11.666666666666666,
              "duration": 0.00625
            },
            {
              "pitch": 54,
              "velocity": 10,
              "position": 11.885416666666666,
              "duration": 0.00625
            },
            {
              "pitch": 54,
              "velocity": 36,
              "position": 12,
              "duration": 0.00625
            },
            {
              "pitch": 54,
              "velocity": 9,
              "position": 12.21875,
              "duration": 0.00625
            },
            {
              "pitch": 54,
              "velocity": 25,
              "position": 12.333333333333334,
              "duration": 0.00625
            },
            {
              "pitch": 54,
              "velocity": 24,
              "position": 12.552083333333334,
              "duration": 0.00625
            },
            {
              "pitch": 54,
              "velocity": 26,
              "position": 12.666666666666666,
              "duration": 0.00625
            },
            {
              "pitch": 54,
              "velocity": 8,
              "position": 12.885416666666666,
              "duration": 0.00625
            },
            {
              "pitch": 54,
              "velocity": 90,
              "position": 13,
              "duration": 0.00625
            },
            {
              "pitch": 54,
              "velocity": 13,
              "position": 13.21875,
              "duration": 0.00625
            },
            {
              "pitch": 54,
              "velocity": 25,
              "position": 13.333333333333334,
              "duration": 0.00625
            },
            {
              "pitch": 54,
              "velocity": 10,
              "position": 13.552083333333334,
              "duration": 0.00625
            },
            {
              "pitch": 54,
              "velocity": 19,
              "position": 13.666666666666666,
              "duration": 0.00625
            },
            {
              "pitch": 54,
              "velocity": 10,
              "position": 13.885416666666666,
              "duration": 0.00625
            },
            {
              "pitch": 54,
              "velocity": 36,
              "position": 14,
              "duration": 0.00625
            },
            {
              "pitch": 54,
              "velocity": 9,
              "position": 14.21875,
              "duration": 0.00625
            },
            {
              "pitch": 54,
              "velocity": 25,
              "position": 14.333333333333334,
              "duration": 0.00625
            },
            {
              "pitch": 54,
              "velocity": 24,
              "position": 14.552083333333334,
              "duration": 0.00625
            },
            {
              "pitch": 54,
              "velocity": 26,
              "position": 14.666666666666666,
              "duration": 0.00625
            },
            {
              "pitch": 54,
              "velocity": 8,
              "position": 14.885416666666666,
              "duration": 0.00625
            },
            {
              "pitch": 54,
              "velocity": 90,
              "position": 15,
              "duration": 0.00625
            },
            {
              "pitch": 54,
              "velocity": 13,
              "position": 15.21875,
              "duration": 0.00625
            },
            {
              "pitch": 54,
              "velocity": 25,
              "position": 15.333333333333334,
              "duration": 0.00625
            },
            {
              "pitch": 54,
              "velocity": 10,
              "position": 15.552083333333334,
              "duration": 0.00625
            },
            {
              "pitch": 54,
              "velocity": 19,
              "position": 15.666666666666666,
              "duration": 0.00625
            },
            {
              "pitch": 54,
              "velocity": 10,
              "position": 15.885416666666666,
              "duration": 0.00625
            }
          ]
        },
        "9": {
          "ctab": {
            "srcChannel": 9,
            "name": "MainDrum",
            "accType": "RHYTHM",
            "editable": true,
            "mutedNotes": [],
            "mutedChords": [],
            "autoStart": true,
            "sourceChordNote": 0,
            "sourceChordType": "Maj7",
            "ctb2Low": null,
            "ctb2Main": {
              "ntr": "ROOT_FIXED",
              "ntt": "BYPASS",
              "bassOn": false,
              "chordRootUpperLimit": 6,
              "noteLowLimit": 0,
              "noteHighLimit": 127,
              "rtr": "PITCH_SHIFT"
            },
            "ctb2High": null,
            "ctb2MiddleLowPitch": 0,
            "ctb2MiddleHighPitch": 127
          },
          "notes": [
            {
              "pitch": 33,
              "velocity": 86,
              "position": 0,
              "duration": 0.00625
            },
            {
              "pitch": 51,
              "velocity": 82,
              "position": 0,
              "duration": 0.00625
            },
            {
              "pitch": 44,
              "velocity": 40,
              "position": 0.33125,
              "duration": 0.00625
            },
            {
              "pitch": 51,
              "velocity": 62,
              "position": 0.33125,
              "duration": 0.00625
            },
            {
              "pitch": 31,
              "velocity": 19,
              "position": 0.55,
              "duration": 0.00625
            },
            {
              "pitch": 51,
              "velocity": 30,
              "position": 0.55,
              "duration": 0.00625
            },
            {
              "pitch": 44,
              "velocity": 60,
              "position": 0.6666666666666666,
              "duration": 0.00625
            },
            {
              "pitch": 51,
              "velocity": 72,
              "position": 0.6666666666666666,
              "duration": 0.00625
            },
            {
              "pitch": 31,
              "velocity": 24,
              "position": 0.76875,
              "duration": 0.00625
            },
            {
              "pitch": 33,
              "velocity": 64,
              "position": 0.8854166666666666,
              "duration": 0.00625
            },
            {
              "pitch": 31,
              "velocity": 110,
              "position": 1,
              "duration": 0.00625
            },
            {
              "pitch": 51,
              "velocity": 82,
              "position": 1,
              "duration": 0.00625
            },
            {
              "pitch": 51,
              "velocity": 30,
              "position": 1.21875,
              "duration": 0.00625
            },
            {
              "pitch": 51,
              "velocity": 62,
              "position": 1.33125,
              "duration": 0.00625
            },
            {
              "pitch": 31,
              "velocity": 19,
              "position": 1.55,
              "duration": 0.00625
            },
            {
              "pitch": 51,
              "velocity": 72,
              "position": 1.6666666666666667,
              "duration": 0.00625
            },
            {
              "pitch": 31,
              "velocity": 24,
              "position": 1.76875,
              "duration": 0.00625
            },
            {
              "pitch": 33,
              "velocity": 64,
              "position": 1.8854166666666667,
              "duration": 0.00625
            },
            {
              "pitch": 51,
              "velocity": 30,
              "position": 1.8854166666666667,
              "duration": 0.00625
            },
            {
              "pitch": 33,
              "velocity": 86,
              "position": 2,
              "duration": 0.00625
            },
            {
              "pitch": 51,
              "velocity": 82,
              "position": 2,
              "duration": 0.00625
            },
            {
              "pitch": 44,
              "velocity": 40,
              "position": 2.33125,
              "duration": 0.00625
            },
            {
              "pitch": 51,
              "velocity": 62,
              "position": 2.33125,
              "duration": 0.00625
            },
            {
              "pitch": 31,
              "velocity": 19,
              "position": 2.55,
              "duration": 0.00625
            },
            {
              "pitch": 51,
              "velocity": 30,
              "position": 2.55,
              "duration": 0.00625
            },
            {
              "pitch": 44,
              "velocity": 60,
              "position": 2.6666666666666665,
              "duration": 0.00625
            },
            {
              "pitch": 51,
              "velocity": 72,
              "position": 2.6666666666666665,
              "duration": 0.00625
            },
            {
              "pitch": 31,
              "velocity": 24,
              "position": 2.76875,
              "duration": 0.00625
            },
            {
              "pitch": 33,
              "velocity": 64,
              "position": 2.8854166666666665,
              "duration": 0.00625
            },
            {
              "pitch": 31,
              "velocity": 104,
              "position": 3,
              "duration": 0.00625
            },
            {
              "pitch": 51,
              "velocity": 82,
              "position": 3,
              "duration": 0.00625
            },
            {
              "pitch": 51,
              "velocity": 30,
              "position": 3.21875,
              "duration": 0.00625
            },
            {
              "pitch": 51,
              "velocity": 62,
              "position": 3.33125,
              "duration": 0.00625
            },
            {
              "pitch": 33,
              "velocity": 64,
              "position": 3.55,
              "duration": 0.00625
            },
            {
              "pitch": 33,
              "velocity": 86,
              "position": 3.6666666666666665,
              "duration": 0.00625
            },
            {
              "pitch": 51,
              "velocity": 72,
              "position": 3.6666666666666665,
              "duration": 0.00625
            },
            {
              "pitch": 51,
              "velocity": 30,
              "position": 3.8854166666666665,
              "duration": 0.00625
            },
            {
              "pitch": 33,
              "velocity": 86,
              "position": 4,
              "duration": 0.00625
            },
            {
              "pitch": 51,
              "velocity": 82,
              "position": 4,
              "duration": 0.00625
            },
            {
              "pitch": 44,
              "velocity": 40,
              "position": 4.333333333333333,
              "duration": 0.00625
            },
            {
              "pitch": 51,
              "velocity": 62,
              "position": 4.333333333333333,
              "duration": 0.00625
            },
            {
              "pitch": 31,
              "velocity": 19,
              "position": 4.552083333333333,
              "duration": 0.00625
            },
            {
              "pitch": 51,
              "velocity": 30,
              "position": 4.552083333333333,
              "duration": 0.00625
            },
            {
              "pitch": 44,
              "velocity": 60,
              "position": 4.666666666666667,
              "duration": 0.00625
            },
            {
              "pitch": 51,
              "velocity": 72,
              "position": 4.666666666666667,
              "duration": 0.00625
            },
            {
              "pitch": 31,
              "velocity": 24,
              "position": 4.770833333333333,
              "duration": 0.00625
            },
            {
              "pitch": 33,
              "velocity": 64,
              "position": 4.885416666666667,
              "duration": 0.00625
            },
            {
              "pitch": 31,
              "velocity": 104,
              "position": 5,
              "duration": 0.00625
            },
            {
              "pitch": 51,
              "velocity": 82,
              "position": 5,
              "duration": 0.00625
            },
            {
              "pitch": 51,
              "velocity": 30,
              "position": 5.21875,
              "duration": 0.00625
            },
            {
              "pitch": 51,
              "velocity": 62,
              "position": 5.333333333333333,
              "duration": 0.00625
            },
            {
              "pitch": 31,
              "velocity": 19,
              "position": 5.552083333333333,
              "duration": 0.00625
            },
            {
              "pitch": 51,
              "velocity": 72,
              "position": 5.666666666666667,
              "duration": 0.00625
            },
            {
              "pitch": 31,
              "velocity": 24,
              "position": 5.770833333333333,
              "duration": 0.00625
            },
            {
              "pitch": 33,
              "velocity": 64,
              "position": 5.885416666666667,
              "duration": 0.00625
            },
            {
              "pitch": 51,
              "velocity": 30,
              "position": 5.885416666666667,
              "duration": 0.00625
            },
            {
              "pitch": 33,
              "velocity": 86,
              "position": 6,
              "duration": 0.00625
            },
            {
              "pitch": 51,
              "velocity": 82,
              "position": 6,
              "duration": 0.00625
            },
            {
              "pitch": 44,
              "velocity": 40,
              "position": 6.333333333333333,
              "duration": 0.00625
            },
            {
              "pitch": 51,
              "velocity": 62,
              "position": 6.333333333333333,
              "duration": 0.00625
            },
            {
              "pitch": 31,
              "velocity": 19,
              "position": 6.552083333333333,
              "duration": 0.00625
            },
            {
              "pitch": 51,
              "velocity": 30,
              "position": 6.552083333333333,
              "duration": 0.00625
            },
            {
              "pitch": 44,
              "velocity": 60,
              "position": 6.666666666666667,
              "duration": 0.00625
            },
            {
              "pitch": 51,
              "velocity": 72,
              "position": 6.666666666666667,
              "duration": 0.00625
            },
            {
              "pitch": 31,
              "velocity": 24,
              "position": 6.770833333333333,
              "duration": 0.00625
            },
            {
              "pitch": 33,
              "velocity": 64,
              "position": 6.885416666666667,
              "duration": 0.00625
            },
            {
              "pitch": 31,
              "velocity": 104,
              "position": 7,
              "duration": 0.00625
            },
            {
              "pitch": 51,
              "velocity": 82,
              "position": 7,
              "duration": 0.00625
            },
            {
              "pitch": 33,
              "velocity": 64,
              "position": 7.21875,
              "duration": 0.00625
            },
            {
              "pitch": 51,
              "velocity": 30,
              "position": 7.21875,
              "duration": 0.00625
            },
            {
              "pitch": 33,
              "velocity": 86,
              "position": 7.333333333333333,
              "duration": 0.00625
            },
            {
              "pitch": 51,
              "velocity": 62,
              "position": 7.333333333333333,
              "duration": 0.00625
            },
            {
              "pitch": 31,
              "velocity": 19,
              "position": 7.552083333333333,
              "duration": 0.00625
            },
            {
              "pitch": 33,
              "velocity": 70,
              "position": 7.666666666666667,
              "duration": 0.00625
            },
            {
              "pitch": 51,
              "velocity": 72,
              "position": 7.666666666666667,
              "duration": 0.00625
            },
            {
              "pitch": 31,
              "velocity": 14,
              "position": 7.885416666666667,
              "duration": 0.00625
            },
            {
              "pitch": 51,
              "velocity": 30,
              "position": 7.885416666666667,
              "duration": 0.00625
            },
            {
              "pitch": 33,
              "velocity": 86,
              "position": 8,
              "duration": 0.00625
            },
            {
              "pitch": 51,
              "velocity": 82,
              "position": 8,
              "duration": 0.00625
            },
            {
              "pitch": 44,
              "velocity": 40,
              "position": 8.33125,
              "duration": 0.00625
            },
            {
              "pitch": 51,
              "velocity": 62,
              "position": 8.33125,
              "duration": 0.00625
            },
            {
              "pitch": 31,
              "velocity": 19,
              "position": 8.55,
              "duration": 0.00625
            },
            {
              "pitch": 51,
              "velocity": 30,
              "position": 8.55,
              "duration": 0.00625
            },
            {
              "pitch": 44,
              "velocity": 60,
              "position": 8.666666666666666,
              "duration": 0.00625
            },
            {
              "pitch": 51,
              "velocity": 72,
              "position": 8.666666666666666,
              "duration": 0.00625
            },
            {
              "pitch": 31,
              "velocity": 24,
              "position": 8.76875,
              "duration": 0.00625
            },
            {
              "pitch": 33,
              "velocity": 64,
              "position": 8.885416666666666,
              "duration": 0.00625
            },
            {
              "pitch": 31,
              "velocity": 110,
              "position": 9,
              "duration": 0.00625
            },
            {
              "pitch": 51,
              "velocity": 82,
              "position": 9,
              "duration": 0.00625
            },
            {
              "pitch": 51,
              "velocity": 30,
              "position": 9.21875,
              "duration": 0.00625
            },
            {
              "pitch": 51,
              "velocity": 62,
              "position": 9.33125,
              "duration": 0.00625
            },
            {
              "pitch": 31,
              "velocity": 19,
              "position": 9.55,
              "duration": 0.00625
            },
            {
              "pitch": 51,
              "velocity": 72,
              "position": 9.666666666666666,
              "duration": 0.00625
            },
            {
              "pitch": 31,
              "velocity": 24,
              "position": 9.76875,
              "duration": 0.00625
            },
            {
              "pitch": 33,
              "velocity": 64,
              "position": 9.885416666666666,
              "duration": 0.00625
            },
            {
              "pitch": 51,
              "velocity": 30,
              "position": 9.885416666666666,
              "duration": 0.00625
            },
            {
              "pitch": 33,
              "velocity": 86,
              "position": 10,
              "duration": 0.00625
            },
            {
              "pitch": 51,
              "velocity": 82,
              "position": 10,
              "duration": 0.00625
            },
            {
              "pitch": 44,
              "velocity": 40,
              "position": 10.33125,
              "duration": 0.00625
            },
            {
              "pitch": 51,
              "velocity": 62,
              "position": 10.33125,
              "duration": 0.00625
            },
            {
              "pitch": 31,
              "velocity": 19,
              "position": 10.55,
              "duration": 0.00625
            },
            {
              "pitch": 51,
              "velocity": 30,
              "position": 10.55,
              "duration": 0.00625
            },
            {
              "pitch": 44,
              "velocity": 60,
              "position": 10.666666666666666,
              "duration": 0.00625
            },
            {
              "pitch": 51,
              "velocity": 72,
              "position": 10.666666666666666,
              "duration": 0.00625
            },
            {
              "pitch": 31,
              "velocity": 24,
              "position": 10.76875,
              "duration": 0.00625
            },
            {
              "pitch": 33,
              "velocity": 64,
              "position": 10.885416666666666,
              "duration": 0.00625
            },
            {
              "pitch": 31,
              "velocity": 104,
              "position": 11,
              "duration": 0.00625
            },
            {
              "pitch": 51,
              "velocity": 82,
              "position": 11,
              "duration": 0.00625
            },
            {
              "pitch": 51,
              "velocity": 30,
              "position": 11.21875,
              "duration": 0.00625
            },
            {
              "pitch": 51,
              "velocity": 62,
              "position": 11.33125,
              "duration": 0.00625
            },
            {
              "pitch": 33,
              "velocity": 64,
              "position": 11.55,
              "duration": 0.00625
            },
            {
              "pitch": 33,
              "velocity": 86,
              "position": 11.666666666666666,
              "duration": 0.00625
            },
            {
              "pitch": 51,
              "velocity": 72,
              "position": 11.666666666666666,
              "duration": 0.00625
            },
            {
              "pitch": 51,
              "velocity": 30,
              "position": 11.885416666666666,
              "duration": 0.00625
            },
            {
              "pitch": 33,
              "velocity": 86,
              "position": 12,
              "duration": 0.00625
            },
            {
              "pitch": 51,
              "velocity": 82,
              "position": 12,
              "duration": 0.00625
            },
            {
              "pitch": 44,
              "velocity": 40,
              "position": 12.333333333333334,
              "duration": 0.00625
            },
            {
              "pitch": 51,
              "velocity": 62,
              "position": 12.333333333333334,
              "duration": 0.00625
            },
            {
              "pitch": 31,
              "velocity": 19,
              "position": 12.552083333333334,
              "duration": 0.00625
            },
            {
              "pitch": 51,
              "velocity": 30,
              "position": 12.552083333333334,
              "duration": 0.00625
            },
            {
              "pitch": 44,
              "velocity": 60,
              "position": 12.666666666666666,
              "duration": 0.00625
            },
            {
              "pitch": 51,
              "velocity": 72,
              "position": 12.666666666666666,
              "duration": 0.00625
            },
            {
              "pitch": 31,
              "velocity": 24,
              "position": 12.770833333333334,
              "duration": 0.00625
            },
            {
              "pitch": 33,
              "velocity": 64,
              "position": 12.885416666666666,
              "duration": 0.00625
            },
            {
              "pitch": 31,
              "velocity": 104,
              "position": 13,
              "duration": 0.00625
            },
            {
              "pitch": 51,
              "velocity": 82,
              "position": 13,
              "duration": 0.00625
            },
            {
              "pitch": 51,
              "velocity": 30,
              "position": 13.21875,
              "duration": 0.00625
            },
            {
              "pitch": 51,
              "velocity": 62,
              "position": 13.333333333333334,
              "duration": 0.00625
            },
            {
              "pitch": 31,
              "velocity": 19,
              "position": 13.552083333333334,
              "duration": 0.00625
            },
            {
              "pitch": 51,
              "velocity": 72,
              "position": 13.666666666666666,
              "duration": 0.00625
            },
            {
              "pitch": 31,
              "velocity": 24,
              "position": 13.770833333333334,
              "duration": 0.00625
            },
            {
              "pitch": 33,
              "velocity": 64,
              "position": 13.885416666666666,
              "duration": 0.00625
            },
            {
              "pitch": 51,
              "velocity": 30,
              "position": 13.885416666666666,
              "duration": 0.00625
            },
            {
              "pitch": 33,
              "velocity": 86,
              "position": 14,
              "duration": 0.00625
            },
            {
              "pitch": 51,
              "velocity": 82,
              "position": 14,
              "duration": 0.00625
            },
            {
              "pitch": 44,
              "velocity": 40,
              "position": 14.333333333333334,
              "duration": 0.00625
            },
            {
              "pitch": 51,
              "velocity": 62,
              "position": 14.333333333333334,
              "duration": 0.00625
            },
            {
              "pitch": 31,
              "velocity": 19,
              "position": 14.552083333333334,
              "duration": 0.00625
            },
            {
              "pitch": 51,
              "velocity": 30,
              "position": 14.552083333333334,
              "duration": 0.00625
            },
            {
              "pitch": 44,
              "velocity": 60,
              "position": 14.666666666666666,
              "duration": 0.00625
            },
            {
              "pitch": 51,
              "velocity": 72,
              "position": 14.666666666666666,
              "duration": 0.00625
            },
            {
              "pitch": 31,
              "velocity": 24,
              "position": 14.770833333333334,
              "duration": 0.00625
            },
            {
              "pitch": 33,
              "velocity": 64,
              "position": 14.885416666666666,
              "duration": 0.00625
            },
            {
              "pitch": 31,
              "velocity": 104,
              "position": 15,
              "duration": 0.00625
            },
            {
              "pitch": 51,
              "velocity": 82,
              "position": 15,
              "duration": 0.00625
            },
            {
              "pitch": 33,
              "velocity": 64,
              "position": 15.21875,
              "duration": 0.00625
            },
            {
              "pitch": 51,
              "velocity": 30,
              "position": 15.21875,
              "duration": 0.00625
            },
            {
              "pitch": 33,
              "velocity": 86,
              "position": 15.333333333333334,
              "duration": 0.00625
            },
            {
              "pitch": 51,
              "velocity": 62,
              "position": 15.333333333333334,
              "duration": 0.00625
            },
            {
              "pitch": 31,
              "velocity": 19,
              "position": 15.552083333333334,
              "duration": 0.00625
            },
            {
              "pitch": 33,
              "velocity": 70,
              "position": 15.666666666666666,
              "duration": 0.00625
            },
            {
              "pitch": 51,
              "velocity": 72,
              "position": 15.666666666666666,
              "duration": 0.00625
            },
            {
              "pitch": 31,
              "velocity": 14,
              "position": 15.885416666666666,
              "duration": 0.00625
            },
            {
              "pitch": 51,
              "velocity": 30,
              "position": 15.885416666666666,
              "duration": 0.00625
            }
          ]
        },
        "10": {
          "ctab": {
            "srcChannel": 10,
            "name": "Bass A",
            "accType": "BASS",
            "editable": false,
            "mutedNotes": [],
            "mutedChords": [
              "7aug",
              "dim",
              "minMaj7(9)",
              "minMaj7",
              "min(9)",
              "m7b5",
              "min",
              "aug"
            ],
            "autoStart": false,
            "sourceChordNote": 0,
            "sourceChordType": "Maj7",
            "ctb2Low": null,
            "ctb2Main": {
              "ntr": "ROOT_TRANSPOSITION",
              "ntt": "MELODY",
              "bassOn": true,
              "chordRootUpperLimit": 8,
              "noteLowLimit": 28,
              "noteHighLimit": 127,
              "rtr": "PITCH_SHIFT_TO_ROOT"
            },
            "ctb2High": null,
            "ctb2MiddleLowPitch": 0,
            "ctb2MiddleHighPitch": 127
          },
          "notes": [
            {
              "pitch": 24,
              "velocity": 70,
              "position": 0,
              "duration": 0.8625
            },
            {
              "pitch": 24,
              "velocity": 59,
              "position": 0.8854166666666666,
              "duration": 0.0875
            },
            {
              "pitch": 28,
              "velocity": 70,
              "position": 1,
              "duration": 0.8625
            },
            {
              "pitch": 28,
              "velocity": 59,
              "position": 1.8854166666666667,
              "duration": 0.0875
            },
            {
              "pitch": 31,
              "velocity": 70,
              "position": 2,
              "duration": 0.8625
            },
            {
              "pitch": 31,
              "velocity": 59,
              "position": 2.8854166666666665,
              "duration": 0.0875
            },
            {
              "pitch": 33,
              "velocity": 70,
              "position": 3,
              "duration": 0.30625
            },
            {
              "pitch": 31,
              "velocity": 59,
              "position": 3.33125,
              "duration": 0.30625
            },
            {
              "pitch": 28,
              "velocity": 59,
              "position": 3.6666666666666665,
              "duration": 0.30625
            },
            {
              "pitch": 24,
              "velocity": 70,
              "position": 4,
              "duration": 0.8625
            },
            {
              "pitch": 24,
              "velocity": 59,
              "position": 4.885416666666667,
              "duration": 0.0875
            },
            {
              "pitch": 28,
              "velocity": 70,
              "position": 5,
              "duration": 0.8625
            },
            {
              "pitch": 28,
              "velocity": 59,
              "position": 5.885416666666667,
              "duration": 0.0875
            },
            {
              "pitch": 31,
              "velocity": 70,
              "position": 6,
              "duration": 0.8625
            },
            {
              "pitch": 31,
              "velocity": 59,
              "position": 6.885416666666667,
              "duration": 0.0875
            },
            {
              "pitch": 33,
              "velocity": 70,
              "position": 7,
              "duration": 0.30625
            },
            {
              "pitch": 31,
              "velocity": 59,
              "position": 7.333333333333333,
              "duration": 0.30625
            },
            {
              "pitch": 28,
              "velocity": 59,
              "position": 7.666666666666667,
              "duration": 0.30625
            },
            {
              "pitch": 24,
              "velocity": 70,
              "position": 8,
              "duration": 0.8625
            },
            {
              "pitch": 24,
              "velocity": 59,
              "position": 8.885416666666666,
              "duration": 0.0875
            },
            {
              "pitch": 28,
              "velocity": 70,
              "position": 9,
              "duration": 0.8625
            },
            {
              "pitch": 28,
              "velocity": 59,
              "position": 9.885416666666666,
              "duration": 0.0875
            },
            {
              "pitch": 31,
              "velocity": 70,
              "position": 10,
              "duration": 0.8625
            },
            {
              "pitch": 31,
              "velocity": 59,
              "position": 10.885416666666666,
              "duration": 0.0875
            },
            {
              "pitch": 33,
              "velocity": 70,
              "position": 11,
              "duration": 0.30625
            },
            {
              "pitch": 31,
              "velocity": 59,
              "position": 11.33125,
              "duration": 0.30625
            },
            {
              "pitch": 28,
              "velocity": 59,
              "position": 11.666666666666666,
              "duration": 0.30625
            },
            {
              "pitch": 24,
              "velocity": 70,
              "position": 12,
              "duration": 0.8625
            },
            {
              "pitch": 24,
              "velocity": 59,
              "position": 12.885416666666666,
              "duration": 0.0875
            },
            {
              "pitch": 28,
              "velocity": 70,
              "position": 13,
              "duration": 0.8625
            },
            {
              "pitch": 28,
              "velocity": 59,
              "position": 13.885416666666666,
              "duration": 0.0875
            },
            {
              "pitch": 31,
              "velocity": 70,
              "position": 14,
              "duration": 0.8625
            },
            {
              "pitch": 31,
              "velocity": 59,
              "position": 14.885416666666666,
              "duration": 0.0875
            },
            {
              "pitch": 33,
              "velocity": 70,
              "position": 15,
              "duration": 0.30625
            },
            {
              "pitch": 31,
              "velocity": 59,
              "position": 15.333333333333334,
              "duration": 0.30625
            },
            {
              "pitch": 28,
              "velocity": 59,
              "position": 15.666666666666666,
              "duration": 0.30625
            }
          ]
        },
        "11": {
          "ctab": {
            "srcChannel": 11,
            "name": "SolidGtr",
            "accType": "CHORD1",
            "editable": false,
            "mutedNotes": [],
            "mutedChords": [],
            "autoStart": false,
            "sourceChordNote": 0,
            "sourceChordType": "Maj7",
            "ctb2Low": null,
            "ctb2Main": {
              "ntr": "GUITAR",
              "ntt": "ALL_PURPOSE",
              "bassOn": false,
              "chordRootUpperLimit": 7,
              "noteLowLimit": 0,
              "noteHighLimit": 79,
              "rtr": "PITCH_SHIFT"
            },
            "ctb2High": null,
            "ctb2MiddleLowPitch": 0,
            "ctb2MiddleHighPitch": 127
          },
          "notes": [
            {
              "pitch": 100,
              "velocity": 80,
              "position": 0,
              "duration": 0.19166666666666668
            },
            {
              "pitch": 67,
              "velocity": 50,
              "position": 0,
              "duration": 0.30625
            },
            {
              "pitch": 65,
              "velocity": 50,
              "position": 0,
              "duration": 0.30625
            },
            {
              "pitch": 69,
              "velocity": 50,
              "position": 0.010416666666666666,
              "duration": 0.30625
            },
            {
              "pitch": 71,
              "velocity": 50,
              "position": 0.01875,
              "duration": 0.30625
            },
            {
              "pitch": 106,
              "velocity": 30,
              "position": 0.33125,
              "duration": 0.19166666666666668
            },
            {
              "pitch": 65,
              "velocity": 20,
              "position": 0.33125,
              "duration": 0.30625
            },
            {
              "pitch": 67,
              "velocity": 20,
              "position": 0.33125,
              "duration": 0.3104166666666667
            },
            {
              "pitch": 69,
              "velocity": 20,
              "position": 0.34375,
              "duration": 0.30625
            },
            {
              "pitch": 71,
              "velocity": 20,
              "position": 0.3541666666666667,
              "duration": 0.30625
            },
            {
              "pitch": 98,
              "velocity": 55,
              "position": 0.6666666666666666,
              "duration": 0.19166666666666668
            },
            {
              "pitch": 65,
              "velocity": 40,
              "position": 0.6666666666666666,
              "duration": 0.30625
            },
            {
              "pitch": 67,
              "velocity": 40,
              "position": 0.6666666666666666,
              "duration": 0.30833333333333335
            },
            {
              "pitch": 69,
              "velocity": 40,
              "position": 0.675,
              "duration": 0.30625
            },
            {
              "pitch": 71,
              "velocity": 40,
              "position": 0.6875,
              "duration": 0.30625
            },
            {
              "pitch": 65,
              "velocity": 60,
              "position": 1,
              "duration": 0.03333333333333333
            },
            {
              "pitch": 67,
              "velocity": 60,
              "position": 1,
              "duration": 0.03333333333333333
            },
            {
              "pitch": 69,
              "velocity": 60,
              "position": 1.0104166666666667,
              "duration": 0.035416666666666666
            },
            {
              "pitch": 71,
              "velocity": 60,
              "position": 1.01875,
              "duration": 0.0375
            },
            {
              "pitch": 100,
              "velocity": 90,
              "position": 1,
              "duration": 0.19166666666666668
            },
            {
              "pitch": 65,
              "velocity": 85,
              "position": 1.33125,
              "duration": 0.027083333333333334
            },
            {
              "pitch": 67,
              "velocity": 85,
              "position": 1.33125,
              "duration": 0.027083333333333334
            },
            {
              "pitch": 69,
              "velocity": 70,
              "position": 1.34375,
              "duration": 0.025
            },
            {
              "pitch": 71,
              "velocity": 70,
              "position": 1.3541666666666667,
              "duration": 0.025
            },
            {
              "pitch": 119,
              "velocity": 100,
              "position": 1.33125,
              "duration": 0.19166666666666668
            },
            {
              "pitch": 100,
              "velocity": 80,
              "position": 1.6666666666666667,
              "duration": 0.19166666666666668
            },
            {
              "pitch": 67,
              "velocity": 50,
              "position": 1.6666666666666667,
              "duration": 0.6395833333333333
            },
            {
              "pitch": 65,
              "velocity": 50,
              "position": 1.6666666666666667,
              "duration": 0.6395833333333333
            },
            {
              "pitch": 69,
              "velocity": 50,
              "position": 1.675,
              "duration": 0.6395833333333333
            },
            {
              "pitch": 71,
              "velocity": 50,
              "position": 1.6875,
              "duration": 0.6395833333333333
            },
            {
              "pitch": 106,
              "velocity": 30,
              "position": 2.33125,
              "duration": 0.19166666666666668
            },
            {
              "pitch": 65,
              "velocity": 20,
              "position": 2.33125,
              "duration": 0.30625
            },
            {
              "pitch": 67,
              "velocity": 20,
              "position": 2.33125,
              "duration": 0.3104166666666667
            },
            {
              "pitch": 69,
              "velocity": 20,
              "position": 2.34375,
              "duration": 0.30625
            },
            {
              "pitch": 71,
              "velocity": 20,
              "position": 2.3541666666666665,
              "duration": 0.30625
            },
            {
              "pitch": 98,
              "velocity": 55,
              "position": 2.6666666666666665,
              "duration": 0.19166666666666668
            },
            {
              "pitch": 65,
              "velocity": 40,
              "position": 2.6666666666666665,
              "duration": 0.30625
            },
            {
              "pitch": 67,
              "velocity": 40,
              "position": 2.6666666666666665,
              "duration": 0.30833333333333335
            },
            {
              "pitch": 69,
              "velocity": 40,
              "position": 2.675,
              "duration": 0.30625
            },
            {
              "pitch": 71,
              "velocity": 40,
              "position": 2.6875,
              "duration": 0.30625
            },
            {
              "pitch": 65,
              "velocity": 60,
              "position": 3,
              "duration": 0.03333333333333333
            },
            {
              "pitch": 67,
              "velocity": 60,
              "position": 3,
              "duration": 0.03333333333333333
            },
            {
              "pitch": 69,
              "velocity": 60,
              "position": 3.0104166666666665,
              "duration": 0.035416666666666666
            },
            {
              "pitch": 71,
              "velocity": 60,
              "position": 3.01875,
              "duration": 0.0375
            },
            {
              "pitch": 100,
              "velocity": 90,
              "position": 3,
              "duration": 0.19166666666666668
            },
            {
              "pitch": 65,
              "velocity": 70,
              "position": 3.33125,
              "duration": 0.027083333333333334
            },
            {
              "pitch": 67,
              "velocity": 70,
              "position": 3.33125,
              "duration": 0.027083333333333334
            },
            {
              "pitch": 69,
              "velocity": 70,
              "position": 3.34375,
              "duration": 0.025
            },
            {
              "pitch": 71,
              "velocity": 70,
              "position": 3.3541666666666665,
              "duration": 0.025
            },
            {
              "pitch": 118,
              "velocity": 85,
              "position": 3.33125,
              "duration": 0.19166666666666668
            },
            {
              "pitch": 65,
              "velocity": 85,
              "position": 3.6666666666666665,
              "duration": 0.025
            },
            {
              "pitch": 67,
              "velocity": 85,
              "position": 3.6666666666666665,
              "duration": 0.025
            },
            {
              "pitch": 69,
              "velocity": 70,
              "position": 3.675,
              "duration": 0.027083333333333334
            },
            {
              "pitch": 71,
              "velocity": 70,
              "position": 3.6875,
              "duration": 0.025
            },
            {
              "pitch": 119,
              "velocity": 100,
              "position": 3.6666666666666665,
              "duration": 0.19166666666666668
            },
            {
              "pitch": 100,
              "velocity": 80,
              "position": 4,
              "duration": 0.19166666666666668
            },
            {
              "pitch": 67,
              "velocity": 50,
              "position": 4,
              "duration": 0.30625
            },
            {
              "pitch": 65,
              "velocity": 50,
              "position": 4,
              "duration": 0.30625
            },
            {
              "pitch": 69,
              "velocity": 50,
              "position": 4.010416666666667,
              "duration": 0.30625
            },
            {
              "pitch": 71,
              "velocity": 50,
              "position": 4.01875,
              "duration": 0.30625
            },
            {
              "pitch": 106,
              "velocity": 30,
              "position": 4.33125,
              "duration": 0.19166666666666668
            },
            {
              "pitch": 65,
              "velocity": 20,
              "position": 4.33125,
              "duration": 0.30625
            },
            {
              "pitch": 67,
              "velocity": 20,
              "position": 4.33125,
              "duration": 0.3104166666666667
            },
            {
              "pitch": 69,
              "velocity": 20,
              "position": 4.34375,
              "duration": 0.30625
            },
            {
              "pitch": 71,
              "velocity": 20,
              "position": 4.354166666666667,
              "duration": 0.30625
            },
            {
              "pitch": 98,
              "velocity": 55,
              "position": 4.666666666666667,
              "duration": 0.19166666666666668
            },
            {
              "pitch": 65,
              "velocity": 40,
              "position": 4.666666666666667,
              "duration": 0.30625
            },
            {
              "pitch": 67,
              "velocity": 40,
              "position": 4.666666666666667,
              "duration": 0.30833333333333335
            },
            {
              "pitch": 69,
              "velocity": 40,
              "position": 4.675,
              "duration": 0.30625
            },
            {
              "pitch": 71,
              "velocity": 40,
              "position": 4.6875,
              "duration": 0.30625
            },
            {
              "pitch": 65,
              "velocity": 60,
              "position": 5,
              "duration": 0.03333333333333333
            },
            {
              "pitch": 67,
              "velocity": 60,
              "position": 5,
              "duration": 0.03333333333333333
            },
            {
              "pitch": 69,
              "velocity": 60,
              "position": 5.010416666666667,
              "duration": 0.035416666666666666
            },
            {
              "pitch": 71,
              "velocity": 60,
              "position": 5.01875,
              "duration": 0.0375
            },
            {
              "pitch": 100,
              "velocity": 90,
              "position": 5,
              "duration": 0.19166666666666668
            },
            {
              "pitch": 65,
              "velocity": 86,
              "position": 5.33125,
              "duration": 0.027083333333333334
            },
            {
              "pitch": 67,
              "velocity": 86,
              "position": 5.33125,
              "duration": 0.027083333333333334
            },
            {
              "pitch": 69,
              "velocity": 71,
              "position": 5.34375,
              "duration": 0.025
            },
            {
              "pitch": 71,
              "velocity": 71,
              "position": 5.354166666666667,
              "duration": 0.025
            },
            {
              "pitch": 119,
              "velocity": 101,
              "position": 5.33125,
              "duration": 0.19166666666666668
            },
            {
              "pitch": 100,
              "velocity": 80,
              "position": 5.666666666666667,
              "duration": 0.19166666666666668
            },
            {
              "pitch": 67,
              "velocity": 50,
              "position": 5.666666666666667,
              "duration": 0.6395833333333333
            },
            {
              "pitch": 65,
              "velocity": 50,
              "position": 5.666666666666667,
              "duration": 0.6395833333333333
            },
            {
              "pitch": 69,
              "velocity": 50,
              "position": 5.675,
              "duration": 0.6395833333333333
            },
            {
              "pitch": 71,
              "velocity": 50,
              "position": 5.6875,
              "duration": 0.6395833333333333
            },
            {
              "pitch": 106,
              "velocity": 30,
              "position": 6.33125,
              "duration": 0.19166666666666668
            },
            {
              "pitch": 65,
              "velocity": 20,
              "position": 6.33125,
              "duration": 0.30625
            },
            {
              "pitch": 67,
              "velocity": 20,
              "position": 6.33125,
              "duration": 0.3104166666666667
            },
            {
              "pitch": 69,
              "velocity": 20,
              "position": 6.34375,
              "duration": 0.30625
            },
            {
              "pitch": 71,
              "velocity": 20,
              "position": 6.354166666666667,
              "duration": 0.30625
            },
            {
              "pitch": 98,
              "velocity": 55,
              "position": 6.666666666666667,
              "duration": 0.19166666666666668
            },
            {
              "pitch": 65,
              "velocity": 40,
              "position": 6.666666666666667,
              "duration": 0.30625
            },
            {
              "pitch": 67,
              "velocity": 40,
              "position": 6.666666666666667,
              "duration": 0.30833333333333335
            },
            {
              "pitch": 69,
              "velocity": 40,
              "position": 6.675,
              "duration": 0.30625
            },
            {
              "pitch": 71,
              "velocity": 40,
              "position": 6.6875,
              "duration": 0.30625
            },
            {
              "pitch": 65,
              "velocity": 60,
              "position": 7,
              "duration": 0.03333333333333333
            },
            {
              "pitch": 67,
              "velocity": 60,
              "position": 7,
              "duration": 0.03333333333333333
            },
            {
              "pitch": 69,
              "velocity": 60,
              "position": 7.010416666666667,
              "duration": 0.035416666666666666
            },
            {
              "pitch": 71,
              "velocity": 60,
              "position": 7.01875,
              "duration": 0.0375
            },
            {
              "pitch": 100,
              "velocity": 90,
              "position": 7,
              "duration": 0.19166666666666668
            },
            {
              "pitch": 65,
              "velocity": 70,
              "position": 7.33125,
              "duration": 0.027083333333333334
            },
            {
              "pitch": 67,
              "velocity": 70,
              "position": 7.33125,
              "duration": 0.027083333333333334
            },
            {
              "pitch": 69,
              "velocity": 70,
              "position": 7.34375,
              "duration": 0.025
            },
            {
              "pitch": 71,
              "velocity": 70,
              "position": 7.354166666666667,
              "duration": 0.025
            },
            {
              "pitch": 118,
              "velocity": 85,
              "position": 7.33125,
              "duration": 0.19166666666666668
            },
            {
              "pitch": 65,
              "velocity": 85,
              "position": 7.666666666666667,
              "duration": 0.025
            },
            {
              "pitch": 67,
              "velocity": 85,
              "position": 7.666666666666667,
              "duration": 0.025
            },
            {
              "pitch": 69,
              "velocity": 70,
              "position": 7.675,
              "duration": 0.027083333333333334
            },
            {
              "pitch": 71,
              "velocity": 70,
              "position": 7.6875,
              "duration": 0.025
            },
            {
              "pitch": 119,
              "velocity": 100,
              "position": 7.666666666666667,
              "duration": 0.19166666666666668
            },
            {
              "pitch": 100,
              "velocity": 80,
              "position": 8,
              "duration": 0.19166666666666668
            },
            {
              "pitch": 67,
              "velocity": 50,
              "position": 8,
              "duration": 0.30625
            },
            {
              "pitch": 65,
              "velocity": 50,
              "position": 8,
              "duration": 0.30625
            },
            {
              "pitch": 69,
              "velocity": 50,
              "position": 8.010416666666666,
              "duration": 0.30625
            },
            {
              "pitch": 71,
              "velocity": 50,
              "position": 8.01875,
              "duration": 0.30625
            },
            {
              "pitch": 106,
              "velocity": 30,
              "position": 8.33125,
              "duration": 0.19166666666666668
            },
            {
              "pitch": 65,
              "velocity": 20,
              "position": 8.33125,
              "duration": 0.30625
            },
            {
              "pitch": 67,
              "velocity": 20,
              "position": 8.33125,
              "duration": 0.3104166666666667
            },
            {
              "pitch": 69,
              "velocity": 20,
              "position": 8.34375,
              "duration": 0.30625
            },
            {
              "pitch": 71,
              "velocity": 20,
              "position": 8.354166666666666,
              "duration": 0.30625
            },
            {
              "pitch": 98,
              "velocity": 55,
              "position": 8.666666666666666,
              "duration": 0.19166666666666668
            },
            {
              "pitch": 65,
              "velocity": 40,
              "position": 8.666666666666666,
              "duration": 0.30625
            },
            {
              "pitch": 67,
              "velocity": 40,
              "position": 8.666666666666666,
              "duration": 0.30833333333333335
            },
            {
              "pitch": 69,
              "velocity": 40,
              "position": 8.675,
              "duration": 0.30625
            },
            {
              "pitch": 71,
              "velocity": 40,
              "position": 8.6875,
              "duration": 0.30625
            },
            {
              "pitch": 65,
              "velocity": 60,
              "position": 9,
              "duration": 0.03333333333333333
            },
            {
              "pitch": 67,
              "velocity": 60,
              "position": 9,
              "duration": 0.03333333333333333
            },
            {
              "pitch": 69,
              "velocity": 60,
              "position": 9.010416666666666,
              "duration": 0.035416666666666666
            },
            {
              "pitch": 71,
              "velocity": 60,
              "position": 9.01875,
              "duration": 0.0375
            },
            {
              "pitch": 100,
              "velocity": 90,
              "position": 9,
              "duration": 0.19166666666666668
            },
            {
              "pitch": 65,
              "velocity": 85,
              "position": 9.33125,
              "duration": 0.027083333333333334
            },
            {
              "pitch": 67,
              "velocity": 85,
              "position": 9.33125,
              "duration": 0.027083333333333334
            },
            {
              "pitch": 69,
              "velocity": 70,
              "position": 9.34375,
              "duration": 0.025
            },
            {
              "pitch": 71,
              "velocity": 70,
              "position": 9.354166666666666,
              "duration": 0.025
            },
            {
              "pitch": 119,
              "velocity": 100,
              "position": 9.33125,
              "duration": 0.19166666666666668
            },
            {
              "pitch": 100,
              "velocity": 80,
              "position": 9.666666666666666,
              "duration": 0.19166666666666668
            },
            {
              "pitch": 67,
              "velocity": 50,
              "position": 9.666666666666666,
              "duration": 0.6395833333333333
            },
            {
              "pitch": 65,
              "velocity": 50,
              "position": 9.666666666666666,
              "duration": 0.6395833333333333
            },
            {
              "pitch": 69,
              "velocity": 50,
              "position": 9.675,
              "duration": 0.6395833333333333
            },
            {
              "pitch": 71,
              "velocity": 50,
              "position": 9.6875,
              "duration": 0.6395833333333333
            },
            {
              "pitch": 106,
              "velocity": 30,
              "position": 10.33125,
              "duration": 0.19166666666666668
            },
            {
              "pitch": 65,
              "velocity": 20,
              "position": 10.33125,
              "duration": 0.30625
            },
            {
              "pitch": 67,
              "velocity": 20,
              "position": 10.33125,
              "duration": 0.3104166666666667
            },
            {
              "pitch": 69,
              "velocity": 20,
              "position": 10.34375,
              "duration": 0.30625
            },
            {
              "pitch": 71,
              "velocity": 20,
              "position": 10.354166666666666,
              "duration": 0.30625
            },
            {
              "pitch": 98,
              "velocity": 55,
              "position": 10.666666666666666,
              "duration": 0.19166666666666668
            },
            {
              "pitch": 65,
              "velocity": 40,
              "position": 10.666666666666666,
              "duration": 0.30625
            },
            {
              "pitch": 67,
              "velocity": 40,
              "position": 10.666666666666666,
              "duration": 0.30833333333333335
            },
            {
              "pitch": 69,
              "velocity": 40,
              "position": 10.675,
              "duration": 0.30625
            },
            {
              "pitch": 71,
              "velocity": 40,
              "position": 10.6875,
              "duration": 0.30625
            },
            {
              "pitch": 65,
              "velocity": 60,
              "position": 11,
              "duration": 0.03333333333333333
            },
            {
              "pitch": 67,
              "velocity": 60,
              "position": 11,
              "duration": 0.03333333333333333
            },
            {
              "pitch": 69,
              "velocity": 60,
              "position": 11.010416666666666,
              "duration": 0.035416666666666666
            },
            {
              "pitch": 71,
              "velocity": 60,
              "position": 11.01875,
              "duration": 0.0375
            },
            {
              "pitch": 100,
              "velocity": 90,
              "position": 11,
              "duration": 0.19166666666666668
            },
            {
              "pitch": 65,
              "velocity": 70,
              "position": 11.33125,
              "duration": 0.027083333333333334
            },
            {
              "pitch": 67,
              "velocity": 70,
              "position": 11.33125,
              "duration": 0.027083333333333334
            },
            {
              "pitch": 69,
              "velocity": 70,
              "position": 11.34375,
              "duration": 0.025
            },
            {
              "pitch": 71,
              "velocity": 70,
              "position": 11.354166666666666,
              "duration": 0.025
            },
            {
              "pitch": 118,
              "velocity": 85,
              "position": 11.33125,
              "duration": 0.19166666666666668
            },
            {
              "pitch": 65,
              "velocity": 85,
              "position": 11.666666666666666,
              "duration": 0.025
            },
            {
              "pitch": 67,
              "velocity": 85,
              "position": 11.666666666666666,
              "duration": 0.025
            },
            {
              "pitch": 69,
              "velocity": 70,
              "position": 11.675,
              "duration": 0.027083333333333334
            },
            {
              "pitch": 71,
              "velocity": 70,
              "position": 11.6875,
              "duration": 0.025
            },
            {
              "pitch": 119,
              "velocity": 100,
              "position": 11.666666666666666,
              "duration": 0.19166666666666668
            },
            {
              "pitch": 100,
              "velocity": 80,
              "position": 12,
              "duration": 0.19166666666666668
            },
            {
              "pitch": 67,
              "velocity": 50,
              "position": 12,
              "duration": 0.30625
            },
            {
              "pitch": 65,
              "velocity": 50,
              "position": 12,
              "duration": 0.30625
            },
            {
              "pitch": 69,
              "velocity": 50,
              "position": 12.010416666666666,
              "duration": 0.30625
            },
            {
              "pitch": 71,
              "velocity": 50,
              "position": 12.01875,
              "duration": 0.30625
            },
            {
              "pitch": 106,
              "velocity": 30,
              "position": 12.33125,
              "duration": 0.19166666666666668
            },
            {
              "pitch": 65,
              "velocity": 20,
              "position": 12.33125,
              "duration": 0.30625
            },
            {
              "pitch": 67,
              "velocity": 20,
              "position": 12.33125,
              "duration": 0.3104166666666667
            },
            {
              "pitch": 69,
              "velocity": 20,
              "position": 12.34375,
              "duration": 0.30625
            },
            {
              "pitch": 71,
              "velocity": 20,
              "position": 12.354166666666666,
              "duration": 0.30625
            },
            {
              "pitch": 98,
              "velocity": 55,
              "position": 12.666666666666666,
              "duration": 0.19166666666666668
            },
            {
              "pitch": 65,
              "velocity": 40,
              "position": 12.666666666666666,
              "duration": 0.30625
            },
            {
              "pitch": 67,
              "velocity": 40,
              "position": 12.666666666666666,
              "duration": 0.30833333333333335
            },
            {
              "pitch": 69,
              "velocity": 40,
              "position": 12.675,
              "duration": 0.30625
            },
            {
              "pitch": 71,
              "velocity": 40,
              "position": 12.6875,
              "duration": 0.30625
            },
            {
              "pitch": 65,
              "velocity": 60,
              "position": 13,
              "duration": 0.03333333333333333
            },
            {
              "pitch": 67,
              "velocity": 60,
              "position": 13,
              "duration": 0.03333333333333333
            },
            {
              "pitch": 69,
              "velocity": 60,
              "position": 13.010416666666666,
              "duration": 0.035416666666666666
            },
            {
              "pitch": 71,
              "velocity": 60,
              "position": 13.01875,
              "duration": 0.0375
            },
            {
              "pitch": 100,
              "velocity": 90,
              "position": 13,
              "duration": 0.19166666666666668
            },
            {
              "pitch": 65,
              "velocity": 86,
              "position": 13.33125,
              "duration": 0.027083333333333334
            },
            {
              "pitch": 67,
              "velocity": 86,
              "position": 13.33125,
              "duration": 0.027083333333333334
            },
            {
              "pitch": 69,
              "velocity": 71,
              "position": 13.34375,
              "duration": 0.025
            },
            {
              "pitch": 71,
              "velocity": 71,
              "position": 13.354166666666666,
              "duration": 0.025
            },
            {
              "pitch": 119,
              "velocity": 101,
              "position": 13.33125,
              "duration": 0.19166666666666668
            },
            {
              "pitch": 100,
              "velocity": 80,
              "position": 13.666666666666666,
              "duration": 0.19166666666666668
            },
            {
              "pitch": 67,
              "velocity": 50,
              "position": 13.666666666666666,
              "duration": 0.6395833333333333
            },
            {
              "pitch": 65,
              "velocity": 50,
              "position": 13.666666666666666,
              "duration": 0.6395833333333333
            },
            {
              "pitch": 69,
              "velocity": 50,
              "position": 13.675,
              "duration": 0.6395833333333333
            },
            {
              "pitch": 71,
              "velocity": 50,
              "position": 13.6875,
              "duration": 0.6395833333333333
            },
            {
              "pitch": 106,
              "velocity": 30,
              "position": 14.33125,
              "duration": 0.19166666666666668
            },
            {
              "pitch": 65,
              "velocity": 20,
              "position": 14.33125,
              "duration": 0.30625
            },
            {
              "pitch": 67,
              "velocity": 20,
              "position": 14.33125,
              "duration": 0.3104166666666667
            },
            {
              "pitch": 69,
              "velocity": 20,
              "position": 14.34375,
              "duration": 0.30625
            },
            {
              "pitch": 71,
              "velocity": 20,
              "position": 14.354166666666666,
              "duration": 0.30625
            },
            {
              "pitch": 98,
              "velocity": 55,
              "position": 14.666666666666666,
              "duration": 0.19166666666666668
            },
            {
              "pitch": 65,
              "velocity": 40,
              "position": 14.666666666666666,
              "duration": 0.30625
            },
            {
              "pitch": 67,
              "velocity": 40,
              "position": 14.666666666666666,
              "duration": 0.30833333333333335
            },
            {
              "pitch": 69,
              "velocity": 40,
              "position": 14.675,
              "duration": 0.30625
            },
            {
              "pitch": 71,
              "velocity": 40,
              "position": 14.6875,
              "duration": 0.30625
            },
            {
              "pitch": 65,
              "velocity": 60,
              "position": 15,
              "duration": 0.03333333333333333
            },
            {
              "pitch": 67,
              "velocity": 60,
              "position": 15,
              "duration": 0.03333333333333333
            },
            {
              "pitch": 69,
              "velocity": 60,
              "position": 15.010416666666666,
              "duration": 0.035416666666666666
            },
            {
              "pitch": 71,
              "velocity": 60,
              "position": 15.01875,
              "duration": 0.0375
            },
            {
              "pitch": 100,
              "velocity": 90,
              "position": 15,
              "duration": 0.19166666666666668
            },
            {
              "pitch": 65,
              "velocity": 70,
              "position": 15.33125,
              "duration": 0.027083333333333334
            },
            {
              "pitch": 67,
              "velocity": 70,
              "position": 15.33125,
              "duration": 0.027083333333333334
            },
            {
              "pitch": 69,
              "velocity": 70,
              "position": 15.34375,
              "duration": 0.025
            },
            {
              "pitch": 71,
              "velocity": 70,
              "position": 15.354166666666666,
              "duration": 0.025
            },
            {
              "pitch": 118,
              "velocity": 85,
              "position": 15.33125,
              "duration": 0.19166666666666668
            },
            {
              "pitch": 65,
              "velocity": 85,
              "position": 15.666666666666666,
              "duration": 0.025
            },
            {
              "pitch": 67,
              "velocity": 85,
              "position": 15.666666666666666,
              "duration": 0.025
            },
            {
              "pitch": 69,
              "velocity": 70,
              "position": 15.675,
              "duration": 0.027083333333333334
            },
            {
              "pitch": 71,
              "velocity": 70,
              "position": 15.6875,
              "duration": 0.025
            },
            {
              "pitch": 119,
              "velocity": 100,
              "position": 15.666666666666666,
              "duration": 0.19166666666666668
            }
          ]
        },
        "12": {
          "ctab": {
            "srcChannel": 12,
            "name": "Pno RH",
            "accType": "CHORD2",
            "editable": false,
            "mutedNotes": [],
            "mutedChords": [
              "min",
              "Maj"
            ],
            "autoStart": false,
            "sourceChordNote": 0,
            "sourceChordType": "Maj7",
            "ctb2Low": null,
            "ctb2Main": {
              "ntr": "ROOT_FIXED",
              "ntt": "CHORD",
              "bassOn": false,
              "chordRootUpperLimit": 7,
              "noteLowLimit": 0,
              "noteHighLimit": 127,
              "rtr": "PITCH_SHIFT"
            },
            "ctb2High": null,
            "ctb2MiddleLowPitch": 0,
            "ctb2MiddleHighPitch": 127
          },
          "notes": [
            {
              "pitch": 64,
              "velocity": 71,
              "position": 0,
              "duration": 0.31875
            },
            {
              "pitch": 71,
              "velocity": 73,
              "position": 0,
              "duration": 0.31875
            },
            {
              "pitch": 67,
              "velocity": 68,
              "position": 0,
              "duration": 0.31875
            },
            {
              "pitch": 64,
              "velocity": 64,
              "position": 0.33125,
              "duration": 0.31875
            },
            {
              "pitch": 71,
              "velocity": 59,
              "position": 0.33125,
              "duration": 0.31875
            },
            {
              "pitch": 67,
              "velocity": 62,
              "position": 0.33125,
              "duration": 0.31875
            },
            {
              "pitch": 64,
              "velocity": 56,
              "position": 0.6666666666666666,
              "duration": 0.31875
            },
            {
              "pitch": 71,
              "velocity": 55,
              "position": 0.6666666666666666,
              "duration": 0.31875
            },
            {
              "pitch": 67,
              "velocity": 54,
              "position": 0.6666666666666666,
              "duration": 0.31875
            },
            {
              "pitch": 64,
              "velocity": 60,
              "position": 1,
              "duration": 0.31875
            },
            {
              "pitch": 71,
              "velocity": 62,
              "position": 1,
              "duration": 0.31875
            },
            {
              "pitch": 67,
              "velocity": 58,
              "position": 1,
              "duration": 0.31875
            },
            {
              "pitch": 64,
              "velocity": 60,
              "position": 1.33125,
              "duration": 0.20833333333333334
            },
            {
              "pitch": 71,
              "velocity": 64,
              "position": 1.33125,
              "duration": 0.31875
            },
            {
              "pitch": 67,
              "velocity": 54,
              "position": 1.33125,
              "duration": 0.31875
            },
            {
              "pitch": 64,
              "velocity": 78,
              "position": 1.55,
              "duration": 0.43333333333333335
            },
            {
              "pitch": 71,
              "velocity": 80,
              "position": 1.6666666666666667,
              "duration": 0.31875
            },
            {
              "pitch": 67,
              "velocity": 89,
              "position": 1.6666666666666667,
              "duration": 0.31875
            },
            {
              "pitch": 64,
              "velocity": 56,
              "position": 2,
              "duration": 0.31875
            },
            {
              "pitch": 71,
              "velocity": 66,
              "position": 2,
              "duration": 0.31875
            },
            {
              "pitch": 67,
              "velocity": 60,
              "position": 2,
              "duration": 0.31875
            },
            {
              "pitch": 64,
              "velocity": 54,
              "position": 2.33125,
              "duration": 0.31875
            },
            {
              "pitch": 71,
              "velocity": 59,
              "position": 2.33125,
              "duration": 0.31875
            },
            {
              "pitch": 67,
              "velocity": 62,
              "position": 2.33125,
              "duration": 0.31875
            },
            {
              "pitch": 64,
              "velocity": 54,
              "position": 2.6666666666666665,
              "duration": 0.31875
            },
            {
              "pitch": 71,
              "velocity": 62,
              "position": 2.6666666666666665,
              "duration": 0.31875
            },
            {
              "pitch": 67,
              "velocity": 58,
              "position": 2.6666666666666665,
              "duration": 0.31875
            },
            {
              "pitch": 64,
              "velocity": 66,
              "position": 3,
              "duration": 0.31875
            },
            {
              "pitch": 71,
              "velocity": 66,
              "position": 3,
              "duration": 0.31875
            },
            {
              "pitch": 67,
              "velocity": 62,
              "position": 3,
              "duration": 0.31875
            },
            {
              "pitch": 64,
              "velocity": 54,
              "position": 3.33125,
              "duration": 0.20833333333333334
            },
            {
              "pitch": 71,
              "velocity": 64,
              "position": 3.33125,
              "duration": 0.31875
            },
            {
              "pitch": 67,
              "velocity": 54,
              "position": 3.33125,
              "duration": 0.31875
            },
            {
              "pitch": 64,
              "velocity": 80,
              "position": 3.55,
              "duration": 0.31875
            },
            {
              "pitch": 71,
              "velocity": 77,
              "position": 3.6666666666666665,
              "duration": 0.31875
            },
            {
              "pitch": 67,
              "velocity": 95,
              "position": 3.6666666666666665,
              "duration": 0.31875
            },
            {
              "pitch": 64,
              "velocity": 72,
              "position": 3.8854166666666665,
              "duration": 0.43333333333333335
            },
            {
              "pitch": 71,
              "velocity": 83,
              "position": 4,
              "duration": 0.31875
            },
            {
              "pitch": 67,
              "velocity": 75,
              "position": 4,
              "duration": 0.31875
            },
            {
              "pitch": 64,
              "velocity": 60,
              "position": 4.33125,
              "duration": 0.31875
            },
            {
              "pitch": 71,
              "velocity": 59,
              "position": 4.33125,
              "duration": 0.31875
            },
            {
              "pitch": 67,
              "velocity": 64,
              "position": 4.33125,
              "duration": 0.31875
            },
            {
              "pitch": 64,
              "velocity": 56,
              "position": 4.666666666666667,
              "duration": 0.31875
            },
            {
              "pitch": 71,
              "velocity": 62,
              "position": 4.666666666666667,
              "duration": 0.31875
            },
            {
              "pitch": 67,
              "velocity": 54,
              "position": 4.666666666666667,
              "duration": 0.31875
            },
            {
              "pitch": 64,
              "velocity": 70,
              "position": 5,
              "duration": 0.31875
            },
            {
              "pitch": 71,
              "velocity": 70,
              "position": 5,
              "duration": 0.31875
            },
            {
              "pitch": 67,
              "velocity": 75,
              "position": 5,
              "duration": 0.31875
            },
            {
              "pitch": 64,
              "velocity": 54,
              "position": 5.33125,
              "duration": 0.20833333333333334
            },
            {
              "pitch": 71,
              "velocity": 64,
              "position": 5.33125,
              "duration": 0.31875
            },
            {
              "pitch": 67,
              "velocity": 56,
              "position": 5.33125,
              "duration": 0.31875
            },
            {
              "pitch": 64,
              "velocity": 73,
              "position": 5.55,
              "duration": 0.31875
            },
            {
              "pitch": 71,
              "velocity": 83,
              "position": 5.666666666666667,
              "duration": 0.31875
            },
            {
              "pitch": 67,
              "velocity": 87,
              "position": 5.666666666666667,
              "duration": 0.31875
            },
            {
              "pitch": 64,
              "velocity": 69,
              "position": 5.885416666666667,
              "duration": 0.43333333333333335
            },
            {
              "pitch": 71,
              "velocity": 80,
              "position": 6,
              "duration": 0.31875
            },
            {
              "pitch": 67,
              "velocity": 80,
              "position": 6,
              "duration": 0.31875
            },
            {
              "pitch": 64,
              "velocity": 60,
              "position": 6.33125,
              "duration": 0.31875
            },
            {
              "pitch": 71,
              "velocity": 70,
              "position": 6.33125,
              "duration": 0.31875
            },
            {
              "pitch": 67,
              "velocity": 70,
              "position": 6.33125,
              "duration": 0.31875
            },
            {
              "pitch": 64,
              "velocity": 56,
              "position": 6.666666666666667,
              "duration": 0.31875
            },
            {
              "pitch": 71,
              "velocity": 66,
              "position": 6.666666666666667,
              "duration": 0.31875
            },
            {
              "pitch": 67,
              "velocity": 59,
              "position": 6.666666666666667,
              "duration": 0.31875
            },
            {
              "pitch": 64,
              "velocity": 56,
              "position": 7,
              "duration": 0.31875
            },
            {
              "pitch": 71,
              "velocity": 73,
              "position": 7,
              "duration": 0.31875
            },
            {
              "pitch": 67,
              "velocity": 72,
              "position": 7,
              "duration": 0.31875
            },
            {
              "pitch": 64,
              "velocity": 62,
              "position": 7.33125,
              "duration": 0.20833333333333334
            },
            {
              "pitch": 71,
              "velocity": 65,
              "position": 7.33125,
              "duration": 0.31875
            },
            {
              "pitch": 67,
              "velocity": 62,
              "position": 7.33125,
              "duration": 0.31875
            },
            {
              "pitch": 64,
              "velocity": 73,
              "position": 7.55,
              "duration": 0.43333333333333335
            },
            {
              "pitch": 71,
              "velocity": 80,
              "position": 7.666666666666667,
              "duration": 0.31875
            },
            {
              "pitch": 67,
              "velocity": 93,
              "position": 7.666666666666667,
              "duration": 0.31875
            },
            {
              "pitch": 64,
              "velocity": 71,
              "position": 8,
              "duration": 0.31875
            },
            {
              "pitch": 71,
              "velocity": 73,
              "position": 8,
              "duration": 0.31875
            },
            {
              "pitch": 67,
              "velocity": 68,
              "position": 8,
              "duration": 0.31875
            },
            {
              "pitch": 64,
              "velocity": 64,
              "position": 8.33125,
              "duration": 0.31875
            },
            {
              "pitch": 71,
              "velocity": 59,
              "position": 8.33125,
              "duration": 0.31875
            },
            {
              "pitch": 67,
              "velocity": 62,
              "position": 8.33125,
              "duration": 0.31875
            },
            {
              "pitch": 64,
              "velocity": 56,
              "position": 8.666666666666666,
              "duration": 0.31875
            },
            {
              "pitch": 71,
              "velocity": 55,
              "position": 8.666666666666666,
              "duration": 0.31875
            },
            {
              "pitch": 67,
              "velocity": 54,
              "position": 8.666666666666666,
              "duration": 0.31875
            },
            {
              "pitch": 64,
              "velocity": 60,
              "position": 9,
              "duration": 0.31875
            },
            {
              "pitch": 71,
              "velocity": 62,
              "position": 9,
              "duration": 0.31875
            },
            {
              "pitch": 67,
              "velocity": 58,
              "position": 9,
              "duration": 0.31875
            },
            {
              "pitch": 64,
              "velocity": 60,
              "position": 9.33125,
              "duration": 0.20833333333333334
            },
            {
              "pitch": 71,
              "velocity": 64,
              "position": 9.33125,
              "duration": 0.31875
            },
            {
              "pitch": 67,
              "velocity": 54,
              "position": 9.33125,
              "duration": 0.31875
            },
            {
              "pitch": 64,
              "velocity": 78,
              "position": 9.55,
              "duration": 0.43333333333333335
            },
            {
              "pitch": 71,
              "velocity": 80,
              "position": 9.666666666666666,
              "duration": 0.31875
            },
            {
              "pitch": 67,
              "velocity": 89,
              "position": 9.666666666666666,
              "duration": 0.31875
            },
            {
              "pitch": 64,
              "velocity": 56,
              "position": 10,
              "duration": 0.31875
            },
            {
              "pitch": 71,
              "velocity": 66,
              "position": 10,
              "duration": 0.31875
            },
            {
              "pitch": 67,
              "velocity": 60,
              "position": 10,
              "duration": 0.31875
            },
            {
              "pitch": 64,
              "velocity": 54,
              "position": 10.33125,
              "duration": 0.31875
            },
            {
              "pitch": 71,
              "velocity": 59,
              "position": 10.33125,
              "duration": 0.31875
            },
            {
              "pitch": 67,
              "velocity": 62,
              "position": 10.33125,
              "duration": 0.31875
            },
            {
              "pitch": 64,
              "velocity": 54,
              "position": 10.666666666666666,
              "duration": 0.31875
            },
            {
              "pitch": 71,
              "velocity": 62,
              "position": 10.666666666666666,
              "duration": 0.31875
            },
            {
              "pitch": 67,
              "velocity": 58,
              "position": 10.666666666666666,
              "duration": 0.31875
            },
            {
              "pitch": 64,
              "velocity": 66,
              "position": 11,
              "duration": 0.31875
            },
            {
              "pitch": 71,
              "velocity": 66,
              "position": 11,
              "duration": 0.31875
            },
            {
              "pitch": 67,
              "velocity": 62,
              "position": 11,
              "duration": 0.31875
            },
            {
              "pitch": 64,
              "velocity": 54,
              "position": 11.33125,
              "duration": 0.20833333333333334
            },
            {
              "pitch": 71,
              "velocity": 64,
              "position": 11.33125,
              "duration": 0.31875
            },
            {
              "pitch": 67,
              "velocity": 54,
              "position": 11.33125,
              "duration": 0.31875
            },
            {
              "pitch": 64,
              "velocity": 80,
              "position": 11.55,
              "duration": 0.31875
            },
            {
              "pitch": 71,
              "velocity": 77,
              "position": 11.666666666666666,
              "duration": 0.31875
            },
            {
              "pitch": 67,
              "velocity": 95,
              "position": 11.666666666666666,
              "duration": 0.31875
            },
            {
              "pitch": 64,
              "velocity": 72,
              "position": 11.885416666666666,
              "duration": 0.43333333333333335
            },
            {
              "pitch": 71,
              "velocity": 83,
              "position": 12,
              "duration": 0.31875
            },
            {
              "pitch": 67,
              "velocity": 75,
              "position": 12,
              "duration": 0.31875
            },
            {
              "pitch": 64,
              "velocity": 60,
              "position": 12.33125,
              "duration": 0.31875
            },
            {
              "pitch": 71,
              "velocity": 59,
              "position": 12.33125,
              "duration": 0.31875
            },
            {
              "pitch": 67,
              "velocity": 64,
              "position": 12.33125,
              "duration": 0.31875
            },
            {
              "pitch": 64,
              "velocity": 56,
              "position": 12.666666666666666,
              "duration": 0.31875
            },
            {
              "pitch": 71,
              "velocity": 62,
              "position": 12.666666666666666,
              "duration": 0.31875
            },
            {
              "pitch": 67,
              "velocity": 54,
              "position": 12.666666666666666,
              "duration": 0.31875
            },
            {
              "pitch": 64,
              "velocity": 70,
              "position": 13,
              "duration": 0.31875
            },
            {
              "pitch": 71,
              "velocity": 70,
              "position": 13,
              "duration": 0.31875
            },
            {
              "pitch": 67,
              "velocity": 75,
              "position": 13,
              "duration": 0.31875
            },
            {
              "pitch": 64,
              "velocity": 54,
              "position": 13.33125,
              "duration": 0.20833333333333334
            },
            {
              "pitch": 71,
              "velocity": 64,
              "position": 13.33125,
              "duration": 0.31875
            },
            {
              "pitch": 67,
              "velocity": 56,
              "position": 13.33125,
              "duration": 0.31875
            },
            {
              "pitch": 64,
              "velocity": 73,
              "position": 13.55,
              "duration": 0.31875
            },
            {
              "pitch": 71,
              "velocity": 83,
              "position": 13.666666666666666,
              "duration": 0.31875
            },
            {
              "pitch": 67,
              "velocity": 87,
              "position": 13.666666666666666,
              "duration": 0.31875
            },
            {
              "pitch": 64,
              "velocity": 69,
              "position": 13.885416666666666,
              "duration": 0.43333333333333335
            },
            {
              "pitch": 71,
              "velocity": 80,
              "position": 14,
              "duration": 0.31875
            },
            {
              "pitch": 67,
              "velocity": 80,
              "position": 14,
              "duration": 0.31875
            },
            {
              "pitch": 64,
              "velocity": 60,
              "position": 14.33125,
              "duration": 0.31875
            },
            {
              "pitch": 71,
              "velocity": 70,
              "position": 14.33125,
              "duration": 0.31875
            },
            {
              "pitch": 67,
              "velocity": 70,
              "position": 14.33125,
              "duration": 0.31875
            },
            {
              "pitch": 64,
              "velocity": 56,
              "position": 14.666666666666666,
              "duration": 0.31875
            },
            {
              "pitch": 71,
              "velocity": 66,
              "position": 14.666666666666666,
              "duration": 0.31875
            },
            {
              "pitch": 67,
              "velocity": 59,
              "position": 14.666666666666666,
              "duration": 0.31875
            },
            {
              "pitch": 64,
              "velocity": 56,
              "position": 15,
              "duration": 0.31875
            },
            {
              "pitch": 71,
              "velocity": 73,
              "position": 15,
              "duration": 0.31875
            },
            {
              "pitch": 67,
              "velocity": 72,
              "position": 15,
              "duration": 0.31875
            },
            {
              "pitch": 64,
              "velocity": 62,
              "position": 15.33125,
              "duration": 0.20833333333333334
            },
            {
              "pitch": 71,
              "velocity": 65,
              "position": 15.33125,
              "duration": 0.31875
            },
            {
              "pitch": 67,
              "velocity": 62,
              "position": 15.33125,
              "duration": 0.31875
            },
            {
              "pitch": 64,
              "velocity": 73,
              "position": 15.55,
              "duration": 0.43333333333333335
            },
            {
              "pitch": 71,
              "velocity": 80,
              "position": 15.666666666666666,
              "duration": 0.31875
            },
            {
              "pitch": 67,
              "velocity": 93,
              "position": 15.666666666666666,
              "duration": 0.31875
            }
          ]
        },
        "13": {
          "ctab": {
            "srcChannel": 13,
            "name": "Organ1",
            "accType": "PAD",
            "editable": false,
            "mutedNotes": [],
            "mutedChords": [],
            "autoStart": false,
            "sourceChordNote": 0,
            "sourceChordType": "Maj7",
            "ctb2Low": null,
            "ctb2Main": {
              "ntr": "ROOT_FIXED",
              "ntt": "CHORD",
              "bassOn": false,
              "chordRootUpperLimit": 7,
              "noteLowLimit": 0,
              "noteHighLimit": 127,
              "rtr": "PITCH_SHIFT"
            },
            "ctb2High": null,
            "ctb2MiddleLowPitch": 0,
            "ctb2MiddleHighPitch": 127
          },
          "notes": [
            {
              "pitch": 67,
              "velocity": 64,
              "position": 0,
              "duration": 0.9875
            },
            {
              "pitch": 76,
              "velocity": 64,
              "position": 0,
              "duration": 0.9875
            },
            {
              "pitch": 71,
              "velocity": 64,
              "position": 0,
              "duration": 0.9875
            },
            {
              "pitch": 67,
              "velocity": 64,
              "position": 1,
              "duration": 2.970833333333333
            },
            {
              "pitch": 76,
              "velocity": 64,
              "position": 1,
              "duration": 2.970833333333333
            },
            {
              "pitch": 71,
              "velocity": 64,
              "position": 1,
              "duration": 2.970833333333333
            },
            {
              "pitch": 67,
              "velocity": 64,
              "position": 4,
              "duration": 3.970833333333333
            },
            {
              "pitch": 76,
              "velocity": 64,
              "position": 4,
              "duration": 3.970833333333333
            },
            {
              "pitch": 71,
              "velocity": 64,
              "position": 4,
              "duration": 3.970833333333333
            },
            {
              "pitch": 67,
              "velocity": 64,
              "position": 8,
              "duration": 3.970833333333333
            },
            {
              "pitch": 76,
              "velocity": 64,
              "position": 8,
              "duration": 3.970833333333333
            },
            {
              "pitch": 71,
              "velocity": 64,
              "position": 8,
              "duration": 3.970833333333333
            },
            {
              "pitch": 67,
              "velocity": 64,
              "position": 12,
              "duration": 3.970833333333333
            },
            {
              "pitch": 76,
              "velocity": 64,
              "position": 12,
              "duration": 3.970833333333333
            },
            {
              "pitch": 71,
              "velocity": 64,
              "position": 12,
              "duration": 3.970833333333333
            }
          ]
        },
        "14": {
          "ctab": {
            "srcChannel": 14,
            "name": "Tele",
            "accType": "PHRASE1",
            "editable": false,
            "mutedNotes": [],
            "mutedChords": [
              "min",
              "Maj"
            ],
            "autoStart": false,
            "sourceChordNote": 0,
            "sourceChordType": "Maj7",
            "ctb2Low": null,
            "ctb2Main": {
              "ntr": "ROOT_TRANSPOSITION",
              "ntt": "MELODY",
              "bassOn": false,
              "chordRootUpperLimit": 4,
              "noteLowLimit": 0,
              "noteHighLimit": 127,
              "rtr": "PITCH_SHIFT"
            },
            "ctb2High": {
              "ntr": "ROOT_FIXED",
              "ntt": "BYPASS",
              "bassOn": false,
              "chordRootUpperLimit": 4,
              "noteLowLimit": 0,
              "noteHighLimit": 127,
              "rtr": "PITCH_SHIFT"
            },
            "ctb2MiddleLowPitch": 0,
            "ctb2MiddleHighPitch": 95
          },
          "notes": [
            {
              "pitch": 64,
              "velocity": 116,
              "position": 0.0020833333333333333,
              "duration": 2.970833333333333
            },
            {
              "pitch": 64,
              "velocity": 116,
              "position": 3,
              "duration": 0.30625
            },
            {
              "pitch": 59,
              "velocity": 16,
              "position": 3.33125,
              "duration": 0.30625
            },
            {
              "pitch": 55,
              "velocity": 16,
              "position": 3.6666666666666665,
              "duration": 0.30625
            },
            {
              "pitch": 59,
              "velocity": 116,
              "position": 4,
              "duration": 2.970833333333333
            },
            {
              "pitch": 55,
              "velocity": 116,
              "position": 7,
              "duration": 0.30625
            },
            {
              "pitch": 59,
              "velocity": 16,
              "position": 7.33125,
              "duration": 0.30625
            },
            {
              "pitch": 55,
              "velocity": 16,
              "position": 7.666666666666667,
              "duration": 0.30625
            },
            {
              "pitch": 64,
              "velocity": 116,
              "position": 8.002083333333333,
              "duration": 2.970833333333333
            },
            {
              "pitch": 64,
              "velocity": 116,
              "position": 11,
              "duration": 0.30625
            },
            {
              "pitch": 59,
              "velocity": 16,
              "position": 11.33125,
              "duration": 0.30625
            },
            {
              "pitch": 55,
              "velocity": 16,
              "position": 11.666666666666666,
              "duration": 0.30625
            },
            {
              "pitch": 59,
              "velocity": 116,
              "position": 12,
              "duration": 2.970833333333333
            },
            {
              "pitch": 55,
              "velocity": 116,
              "position": 15,
              "duration": 0.30625
            },
            {
              "pitch": 59,
              "velocity": 16,
              "position": 15.33125,
              "duration": 0.30625
            },
            {
              "pitch": 55,
              "velocity": 16,
              "position": 15.666666666666666,
              "duration": 0.30625
            }
          ]
        },
        "15": {
          "ctab": {
            "srcChannel": 15,
            "name": "E.P",
            "accType": "PHRASE2",
            "editable": false,
            "mutedNotes": [],
            "mutedChords": [
              "min",
              "Maj"
            ],
            "autoStart": false,
            "sourceChordNote": 0,
            "sourceChordType": "Maj7",
            "ctb2Low": null,
            "ctb2Main": {
              "ntr": "ROOT_FIXED",
              "ntt": "CHORD",
              "bassOn": false,
              "chordRootUpperLimit": 7,
              "noteLowLimit": 0,
              "noteHighLimit": 127,
              "rtr": "PITCH_SHIFT"
            },
            "ctb2High": null,
            "ctb2MiddleLowPitch": 0,
            "ctb2MiddleHighPitch": 127
          },
          "notes": [
            {
              "pitch": 59,
              "velocity": 88,
              "position": 0,
              "duration": 3.19375
            },
            {
              "pitch": 67,
              "velocity": 63,
              "position": 0,
              "duration": 3.30625
            },
            {
              "pitch": 64,
              "velocity": 71,
              "position": 0,
              "duration": 3.30625
            },
            {
              "pitch": 64,
              "velocity": 114,
              "position": 3.33125,
              "duration": 0.30625
            },
            {
              "pitch": 67,
              "velocity": 95,
              "position": 3.33125,
              "duration": 0.30625
            },
            {
              "pitch": 59,
              "velocity": 88,
              "position": 3.21875,
              "duration": 0.42083333333333334
            },
            {
              "pitch": 59,
              "velocity": 69,
              "position": 3.6666666666666665,
              "duration": 0.30625
            },
            {
              "pitch": 67,
              "velocity": 54,
              "position": 3.6666666666666665,
              "duration": 0.30625
            },
            {
              "pitch": 64,
              "velocity": 59,
              "position": 3.6666666666666665,
              "duration": 0.30625
            },
            {
              "pitch": 59,
              "velocity": 67,
              "position": 4,
              "duration": 3.30625
            },
            {
              "pitch": 67,
              "velocity": 67,
              "position": 4,
              "duration": 3.30625
            },
            {
              "pitch": 64,
              "velocity": 69,
              "position": 4,
              "duration": 3.30625
            },
            {
              "pitch": 59,
              "velocity": 71,
              "position": 7.33125,
              "duration": 0.30625
            },
            {
              "pitch": 67,
              "velocity": 53,
              "position": 7.33125,
              "duration": 0.30625
            },
            {
              "pitch": 64,
              "velocity": 65,
              "position": 7.33125,
              "duration": 0.30625
            },
            {
              "pitch": 59,
              "velocity": 71,
              "position": 7.666666666666667,
              "duration": 0.30625
            },
            {
              "pitch": 67,
              "velocity": 53,
              "position": 7.666666666666667,
              "duration": 0.30625
            },
            {
              "pitch": 64,
              "velocity": 65,
              "position": 7.666666666666667,
              "duration": 0.30625
            },
            {
              "pitch": 59,
              "velocity": 88,
              "position": 8,
              "duration": 3.19375
            },
            {
              "pitch": 67,
              "velocity": 63,
              "position": 8,
              "duration": 3.30625
            },
            {
              "pitch": 64,
              "velocity": 71,
              "position": 8,
              "duration": 3.30625
            },
            {
              "pitch": 64,
              "velocity": 114,
              "position": 11.33125,
              "duration": 0.30625
            },
            {
              "pitch": 67,
              "velocity": 95,
              "position": 11.33125,
              "duration": 0.30625
            },
            {
              "pitch": 59,
              "velocity": 88,
              "position": 11.21875,
              "duration": 0.42083333333333334
            },
            {
              "pitch": 59,
              "velocity": 69,
              "position": 11.666666666666666,
              "duration": 0.30625
            },
            {
              "pitch": 67,
              "velocity": 54,
              "position": 11.666666666666666,
              "duration": 0.30625
            },
            {
              "pitch": 64,
              "velocity": 59,
              "position": 11.666666666666666,
              "duration": 0.30625
            },
            {
              "pitch": 59,
              "velocity": 67,
              "position": 12,
              "duration": 3.30625
            },
            {
              "pitch": 67,
              "velocity": 67,
              "position": 12,
              "duration": 3.30625
            },
            {
              "pitch": 64,
              "velocity": 69,
              "position": 12,
              "duration": 3.30625
            },
            {
              "pitch": 59,
              "velocity": 71,
              "position": 15.33125,
              "duration": 0.30625
            },
            {
              "pitch": 67,
              "velocity": 53,
              "position": 15.33125,
              "duration": 0.30625
            },
            {
              "pitch": 64,
              "velocity": 65,
              "position": 15.33125,
              "duration": 0.30625
            },
            {
              "pitch": 59,
              "velocity": 71,
              "position": 15.666666666666666,
              "duration": 0.30625
            },
            {
              "pitch": 67,
              "velocity": 53,
              "position": 15.666666666666666,
              "duration": 0.30625
            },
            {
              "pitch": 64,
              "velocity": 65,
              "position": 15.666666666666666,
              "duration": 0.30625
            }
          ]
        }
      }
    },
    "Main_D": {
      "type": "Main_D",
      "sizeInBeats": 8,
      "channels": {
        "0": {
          "ctab": {
            "srcChannel": 0,
            "name": "Pno LH",
            "accType": "CHORD2",
            "editable": false,
            "mutedNotes": [],
            "mutedChords": [],
            "autoStart": false,
            "sourceChordNote": 0,
            "sourceChordType": "Maj7",
            "ctb2Low": null,
            "ctb2Main": {
              "ntr": "ROOT_TRANSPOSITION",
              "ntt": "MELODY",
              "bassOn": true,
              "chordRootUpperLimit": 8,
              "noteLowLimit": 0,
              "noteHighLimit": 127,
              "rtr": "PITCH_SHIFT_TO_ROOT"
            },
            "ctb2High": null,
            "ctb2MiddleLowPitch": 0,
            "ctb2MiddleHighPitch": 127
          },
          "notes": [
            {
              "pitch": 36,
              "velocity": 94,
              "position": 0,
              "duration": 0.9833333333333333
            },
            {
              "pitch": 40,
              "velocity": 72,
              "position": 1,
              "duration": 0.9833333333333333
            },
            {
              "pitch": 43,
              "velocity": 48,
              "position": 2,
              "duration": 0.9833333333333333
            },
            {
              "pitch": 36,
              "velocity": 94,
              "position": 4,
              "duration": 0.9833333333333333
            },
            {
              "pitch": 40,
              "velocity": 72,
              "position": 5,
              "duration": 0.9833333333333333
            },
            {
              "pitch": 43,
              "velocity": 48,
              "position": 6,
              "duration": 0.9833333333333333
            }
          ]
        },
        "1": {
          "ctab": {
            "srcChannel": 1,
            "name": "Bass B",
            "accType": "BASS",
            "editable": false,
            "mutedNotes": [],
            "mutedChords": [
              "1+2+5",
              "sus4",
              "1+5",
              "1+8",
              "Maj7aug",
              "7(#9)",
              "7(b13)",
              "7(b9)",
              "7(13)",
              "7#11",
              "7(9)",
              "7b5",
              "7sus4",
              "7th",
              "dim7",
              "min7(11)",
              "min7(9)",
              "min7",
              "min6",
              "Maj6(9)",
              "Maj7(9)",
              "Maj(9)",
              "Maj7#11",
              "Maj7",
              "Maj6",
              "Maj"
            ],
            "autoStart": false,
            "sourceChordNote": 0,
            "sourceChordType": "Maj7",
            "ctb2Low": null,
            "ctb2Main": {
              "ntr": "ROOT_TRANSPOSITION",
              "ntt": "MELODY",
              "bassOn": true,
              "chordRootUpperLimit": 8,
              "noteLowLimit": 28,
              "noteHighLimit": 127,
              "rtr": "PITCH_SHIFT_TO_ROOT"
            },
            "ctb2High": null,
            "ctb2MiddleLowPitch": 0,
            "ctb2MiddleHighPitch": 127
          },
          "notes": [
            {
              "pitch": 24,
              "velocity": 70,
              "position": 0,
              "duration": 0.5875
            },
            {
              "pitch": 24,
              "velocity": 59,
              "position": 0.6666666666666666,
              "duration": 0.25416666666666665
            },
            {
              "pitch": 28,
              "velocity": 70,
              "position": 1,
              "duration": 0.5875
            },
            {
              "pitch": 28,
              "velocity": 59,
              "position": 1.6666666666666667,
              "duration": 0.25416666666666665
            },
            {
              "pitch": 31,
              "velocity": 70,
              "position": 2,
              "duration": 0.5875
            },
            {
              "pitch": 31,
              "velocity": 59,
              "position": 2.6666666666666665,
              "duration": 0.25416666666666665
            },
            {
              "pitch": 28,
              "velocity": 70,
              "position": 3,
              "duration": 0.5875
            },
            {
              "pitch": 31,
              "velocity": 59,
              "position": 3.6666666666666665,
              "duration": 0.25416666666666665
            },
            {
              "pitch": 24,
              "velocity": 70,
              "position": 4,
              "duration": 0.5875
            },
            {
              "pitch": 24,
              "velocity": 59,
              "position": 4.666666666666667,
              "duration": 0.25416666666666665
            },
            {
              "pitch": 28,
              "velocity": 70,
              "position": 5,
              "duration": 0.5875
            },
            {
              "pitch": 28,
              "velocity": 59,
              "position": 5.666666666666667,
              "duration": 0.25416666666666665
            },
            {
              "pitch": 31,
              "velocity": 70,
              "position": 6,
              "duration": 0.5875
            },
            {
              "pitch": 31,
              "velocity": 59,
              "position": 6.666666666666667,
              "duration": 0.25416666666666665
            },
            {
              "pitch": 36,
              "velocity": 70,
              "position": 7,
              "duration": 0.30625
            },
            {
              "pitch": 31,
              "velocity": 59,
              "position": 7.33125,
              "duration": 0.30625
            },
            {
              "pitch": 28,
              "velocity": 59,
              "position": 7.666666666666667,
              "duration": 0.30625
            }
          ]
        },
        "3": {
          "ctab": {
            "srcChannel": 3,
            "name": "Pno RH S",
            "accType": "CHORD2",
            "editable": false,
            "mutedNotes": [],
            "mutedChords": [
              "1+2+5",
              "sus4",
              "1+5",
              "1+8",
              "7aug",
              "Maj7aug",
              "7(#9)",
              "7(b13)",
              "7(b9)",
              "7(13)",
              "7#11",
              "7(9)",
              "7b5",
              "7sus4",
              "7th",
              "dim7",
              "dim",
              "minMaj7(9)",
              "minMaj7",
              "min7(11)",
              "min7(9)",
              "min(9)",
              "m7b5",
              "min7",
              "min6",
              "aug",
              "Maj6(9)",
              "Maj7(9)",
              "Maj(9)",
              "Maj7#11",
              "Maj7",
              "Maj6"
            ],
            "autoStart": false,
            "sourceChordNote": 0,
            "sourceChordType": "Maj7",
            "ctb2Low": null,
            "ctb2Main": {
              "ntr": "ROOT_TRANSPOSITION",
              "ntt": "DORIAN_5",
              "bassOn": false,
              "chordRootUpperLimit": 11,
              "noteLowLimit": 58,
              "noteHighLimit": 127,
              "rtr": "PITCH_SHIFT"
            },
            "ctb2High": null,
            "ctb2MiddleLowPitch": 0,
            "ctb2MiddleHighPitch": 127
          },
          "notes": [
            {
              "pitch": 46,
              "velocity": 72,
              "position": 0,
              "duration": 0.31875
            },
            {
              "pitch": 55,
              "velocity": 69,
              "position": 0,
              "duration": 0.31875
            },
            {
              "pitch": 52,
              "velocity": 72,
              "position": 0,
              "duration": 0.31875
            },
            {
              "pitch": 48,
              "velocity": 73,
              "position": 0,
              "duration": 0.31875
            },
            {
              "pitch": 46,
              "velocity": 64,
              "position": 0.33125,
              "duration": 0.31875
            },
            {
              "pitch": 55,
              "velocity": 62,
              "position": 0.33125,
              "duration": 0.31875
            },
            {
              "pitch": 52,
              "velocity": 64,
              "position": 0.33125,
              "duration": 0.31875
            },
            {
              "pitch": 48,
              "velocity": 59,
              "position": 0.33125,
              "duration": 0.31875
            },
            {
              "pitch": 46,
              "velocity": 56,
              "position": 0.6666666666666666,
              "duration": 0.31875
            },
            {
              "pitch": 55,
              "velocity": 54,
              "position": 0.6666666666666666,
              "duration": 0.31875
            },
            {
              "pitch": 52,
              "velocity": 56,
              "position": 0.6666666666666666,
              "duration": 0.31875
            },
            {
              "pitch": 48,
              "velocity": 55,
              "position": 0.6666666666666666,
              "duration": 0.31875
            },
            {
              "pitch": 46,
              "velocity": 60,
              "position": 1,
              "duration": 0.31875
            },
            {
              "pitch": 55,
              "velocity": 58,
              "position": 1,
              "duration": 0.31875
            },
            {
              "pitch": 52,
              "velocity": 60,
              "position": 1,
              "duration": 0.31875
            },
            {
              "pitch": 48,
              "velocity": 62,
              "position": 1,
              "duration": 0.31875
            },
            {
              "pitch": 48,
              "velocity": 64,
              "position": 1.33125,
              "duration": 0.20833333333333334
            },
            {
              "pitch": 55,
              "velocity": 54,
              "position": 1.33125,
              "duration": 0.31875
            },
            {
              "pitch": 46,
              "velocity": 60,
              "position": 1.33125,
              "duration": 0.31875
            },
            {
              "pitch": 52,
              "velocity": 60,
              "position": 1.33125,
              "duration": 0.31875
            },
            {
              "pitch": 48,
              "velocity": 79,
              "position": 1.55,
              "duration": 0.43333333333333335
            },
            {
              "pitch": 57,
              "velocity": 89,
              "position": 1.6666666666666667,
              "duration": 0.31875
            },
            {
              "pitch": 53,
              "velocity": 83,
              "position": 1.6666666666666667,
              "duration": 0.31875
            },
            {
              "pitch": 46,
              "velocity": 56,
              "position": 2,
              "duration": 0.31875
            },
            {
              "pitch": 55,
              "velocity": 60,
              "position": 2,
              "duration": 0.31875
            },
            {
              "pitch": 52,
              "velocity": 56,
              "position": 2,
              "duration": 0.31875
            },
            {
              "pitch": 48,
              "velocity": 66,
              "position": 2,
              "duration": 0.31875
            },
            {
              "pitch": 46,
              "velocity": 54,
              "position": 2.33125,
              "duration": 0.31875
            },
            {
              "pitch": 55,
              "velocity": 62,
              "position": 2.33125,
              "duration": 0.31875
            },
            {
              "pitch": 52,
              "velocity": 54,
              "position": 2.33125,
              "duration": 0.31875
            },
            {
              "pitch": 48,
              "velocity": 59,
              "position": 2.33125,
              "duration": 0.31875
            },
            {
              "pitch": 46,
              "velocity": 54,
              "position": 2.6666666666666665,
              "duration": 0.31875
            },
            {
              "pitch": 55,
              "velocity": 58,
              "position": 2.6666666666666665,
              "duration": 0.31875
            },
            {
              "pitch": 52,
              "velocity": 54,
              "position": 2.6666666666666665,
              "duration": 0.31875
            },
            {
              "pitch": 48,
              "velocity": 62,
              "position": 2.6666666666666665,
              "duration": 0.31875
            },
            {
              "pitch": 46,
              "velocity": 66,
              "position": 3,
              "duration": 0.31875
            },
            {
              "pitch": 55,
              "velocity": 62,
              "position": 3,
              "duration": 0.31875
            },
            {
              "pitch": 52,
              "velocity": 66,
              "position": 3,
              "duration": 0.31875
            },
            {
              "pitch": 48,
              "velocity": 66,
              "position": 3,
              "duration": 0.31875
            },
            {
              "pitch": 48,
              "velocity": 64,
              "position": 3.33125,
              "duration": 0.20833333333333334
            },
            {
              "pitch": 55,
              "velocity": 54,
              "position": 3.33125,
              "duration": 0.31875
            },
            {
              "pitch": 46,
              "velocity": 54,
              "position": 3.33125,
              "duration": 0.31875
            },
            {
              "pitch": 52,
              "velocity": 54,
              "position": 3.33125,
              "duration": 0.31875
            },
            {
              "pitch": 48,
              "velocity": 80,
              "position": 3.55,
              "duration": 0.31875
            },
            {
              "pitch": 57,
              "velocity": 95,
              "position": 3.6666666666666665,
              "duration": 0.31875
            },
            {
              "pitch": 53,
              "velocity": 87,
              "position": 3.6666666666666665,
              "duration": 0.31875
            },
            {
              "pitch": 48,
              "velocity": 73,
              "position": 3.8854166666666665,
              "duration": 0.43333333333333335
            },
            {
              "pitch": 55,
              "velocity": 75,
              "position": 4,
              "duration": 0.31875
            },
            {
              "pitch": 52,
              "velocity": 68,
              "position": 4,
              "duration": 0.31875
            },
            {
              "pitch": 46,
              "velocity": 68,
              "position": 4,
              "duration": 0.31875
            },
            {
              "pitch": 46,
              "velocity": 60,
              "position": 4.33125,
              "duration": 0.31875
            },
            {
              "pitch": 55,
              "velocity": 64,
              "position": 4.33125,
              "duration": 0.31875
            },
            {
              "pitch": 52,
              "velocity": 60,
              "position": 4.33125,
              "duration": 0.31875
            },
            {
              "pitch": 48,
              "velocity": 59,
              "position": 4.33125,
              "duration": 0.31875
            },
            {
              "pitch": 46,
              "velocity": 56,
              "position": 4.666666666666667,
              "duration": 0.31875
            },
            {
              "pitch": 55,
              "velocity": 54,
              "position": 4.666666666666667,
              "duration": 0.31875
            },
            {
              "pitch": 52,
              "velocity": 56,
              "position": 4.666666666666667,
              "duration": 0.31875
            },
            {
              "pitch": 48,
              "velocity": 62,
              "position": 4.666666666666667,
              "duration": 0.31875
            },
            {
              "pitch": 46,
              "velocity": 70,
              "position": 5,
              "duration": 0.31875
            },
            {
              "pitch": 55,
              "velocity": 75,
              "position": 5,
              "duration": 0.31875
            },
            {
              "pitch": 52,
              "velocity": 70,
              "position": 5,
              "duration": 0.31875
            },
            {
              "pitch": 48,
              "velocity": 70,
              "position": 5,
              "duration": 0.31875
            },
            {
              "pitch": 48,
              "velocity": 64,
              "position": 5.33125,
              "duration": 0.20833333333333334
            },
            {
              "pitch": 55,
              "velocity": 56,
              "position": 5.33125,
              "duration": 0.31875
            },
            {
              "pitch": 46,
              "velocity": 54,
              "position": 5.33125,
              "duration": 0.31875
            },
            {
              "pitch": 52,
              "velocity": 54,
              "position": 5.33125,
              "duration": 0.31875
            },
            {
              "pitch": 48,
              "velocity": 73,
              "position": 5.55,
              "duration": 0.31875
            },
            {
              "pitch": 57,
              "velocity": 87,
              "position": 5.666666666666667,
              "duration": 0.31875
            },
            {
              "pitch": 53,
              "velocity": 93,
              "position": 5.666666666666667,
              "duration": 0.31875
            },
            {
              "pitch": 48,
              "velocity": 70,
              "position": 5.885416666666667,
              "duration": 0.43333333333333335
            },
            {
              "pitch": 55,
              "velocity": 80,
              "position": 6,
              "duration": 0.31875
            },
            {
              "pitch": 52,
              "velocity": 79,
              "position": 6,
              "duration": 0.31875
            },
            {
              "pitch": 46,
              "velocity": 79,
              "position": 6,
              "duration": 0.31875
            },
            {
              "pitch": 46,
              "velocity": 60,
              "position": 6.33125,
              "duration": 0.31875
            },
            {
              "pitch": 55,
              "velocity": 70,
              "position": 6.33125,
              "duration": 0.31875
            },
            {
              "pitch": 52,
              "velocity": 60,
              "position": 6.33125,
              "duration": 0.31875
            },
            {
              "pitch": 48,
              "velocity": 70,
              "position": 6.33125,
              "duration": 0.31875
            },
            {
              "pitch": 46,
              "velocity": 56,
              "position": 6.666666666666667,
              "duration": 0.31875
            },
            {
              "pitch": 55,
              "velocity": 59,
              "position": 6.666666666666667,
              "duration": 0.31875
            },
            {
              "pitch": 52,
              "velocity": 56,
              "position": 6.666666666666667,
              "duration": 0.31875
            },
            {
              "pitch": 48,
              "velocity": 66,
              "position": 6.666666666666667,
              "duration": 0.31875
            },
            {
              "pitch": 50,
              "velocity": 73,
              "position": 7,
              "duration": 0.21458333333333332
            },
            {
              "pitch": 57,
              "velocity": 72,
              "position": 7,
              "duration": 0.31875
            },
            {
              "pitch": 46,
              "velocity": 56,
              "position": 7,
              "duration": 0.31875
            },
            {
              "pitch": 53,
              "velocity": 56,
              "position": 7,
              "duration": 0.31875
            },
            {
              "pitch": 46,
              "velocity": 62,
              "position": 7.33125,
              "duration": 0.31875
            },
            {
              "pitch": 55,
              "velocity": 62,
              "position": 7.33125,
              "duration": 0.31875
            },
            {
              "pitch": 52,
              "velocity": 62,
              "position": 7.33125,
              "duration": 0.31875
            },
            {
              "pitch": 48,
              "velocity": 73,
              "position": 7.21875,
              "duration": 0.43333333333333335
            },
            {
              "pitch": 46,
              "velocity": 80,
              "position": 7.666666666666667,
              "duration": 0.31875
            },
            {
              "pitch": 55,
              "velocity": 93,
              "position": 7.666666666666667,
              "duration": 0.31875
            },
            {
              "pitch": 52,
              "velocity": 89,
              "position": 7.666666666666667,
              "duration": 0.31875
            },
            {
              "pitch": 48,
              "velocity": 80,
              "position": 7.666666666666667,
              "duration": 0.31875
            }
          ]
        },
        "5": {
          "ctab": {
            "srcChannel": 5,
            "name": "Tele S M",
            "accType": "PHRASE1",
            "editable": false,
            "mutedNotes": [],
            "mutedChords": [
              "1+2+5",
              "sus4",
              "1+5",
              "1+8",
              "7aug",
              "Maj7aug",
              "7(#9)",
              "7(b13)",
              "7(b9)",
              "7(13)",
              "7#11",
              "7(9)",
              "7b5",
              "7sus4",
              "7th",
              "dim7",
              "dim",
              "minMaj7(9)",
              "minMaj7",
              "min7(11)",
              "min7(9)",
              "min(9)",
              "m7b5",
              "min7",
              "min6",
              "min",
              "aug",
              "Maj6(9)",
              "Maj7(9)",
              "Maj(9)",
              "Maj7#11",
              "Maj7",
              "Maj6"
            ],
            "autoStart": false,
            "sourceChordNote": 0,
            "sourceChordType": "Maj7",
            "ctb2Low": null,
            "ctb2Main": {
              "ntr": "ROOT_TRANSPOSITION",
              "ntt": "DORIAN_5",
              "bassOn": false,
              "chordRootUpperLimit": 4,
              "noteLowLimit": 0,
              "noteHighLimit": 127,
              "rtr": "PITCH_SHIFT"
            },
            "ctb2High": null,
            "ctb2MiddleLowPitch": 0,
            "ctb2MiddleHighPitch": 127
          },
          "notes": [
            {
              "pitch": 64,
              "velocity": 116,
              "position": 0,
              "duration": 2.970833333333333
            },
            {
              "pitch": 72,
              "velocity": 30,
              "position": 0.33125,
              "duration": 2.6395833333333334
            },
            {
              "pitch": 67,
              "velocity": 116,
              "position": 4,
              "duration": 2.972916666666667
            },
            {
              "pitch": 60,
              "velocity": 28,
              "position": 4.666666666666667,
              "duration": 2.30625
            },
            {
              "pitch": 72,
              "velocity": 26,
              "position": 4.333333333333333,
              "duration": 2.6395833333333334
            }
          ]
        },
        "6": {
          "ctab": {
            "srcChannel": 6,
            "name": "E.P S",
            "accType": "PHRASE2",
            "editable": false,
            "mutedNotes": [],
            "mutedChords": [
              "1+2+5",
              "sus4",
              "1+5",
              "1+8",
              "7aug",
              "Maj7aug",
              "7(#9)",
              "7(b13)",
              "7(b9)",
              "7(13)",
              "7#11",
              "7(9)",
              "7b5",
              "7sus4",
              "7th",
              "dim7",
              "dim",
              "minMaj7(9)",
              "minMaj7",
              "min7(11)",
              "min7(9)",
              "min(9)",
              "m7b5",
              "min7",
              "min6",
              "aug",
              "Maj6(9)",
              "Maj7(9)",
              "Maj(9)",
              "Maj7#11",
              "Maj7",
              "Maj6"
            ],
            "autoStart": false,
            "sourceChordNote": 0,
            "sourceChordType": "Maj7",
            "ctb2Low": null,
            "ctb2Main": {
              "ntr": "ROOT_TRANSPOSITION",
              "ntt": "DORIAN_5",
              "bassOn": false,
              "chordRootUpperLimit": 4,
              "noteLowLimit": 0,
              "noteHighLimit": 127,
              "rtr": "PITCH_SHIFT"
            },
            "ctb2High": null,
            "ctb2MiddleLowPitch": 0,
            "ctb2MiddleHighPitch": 127
          },
          "notes": [
            {
              "pitch": 60,
              "velocity": 54,
              "position": 0,
              "duration": 0.5291666666666667
            },
            {
              "pitch": 67,
              "velocity": 54,
              "position": 0,
              "duration": 0.6395833333333333
            },
            {
              "pitch": 64,
              "velocity": 54,
              "position": 0,
              "duration": 0.6395833333333333
            },
            {
              "pitch": 60,
              "velocity": 82,
              "position": 0.55,
              "duration": 0.42083333333333334
            },
            {
              "pitch": 69,
              "velocity": 69,
              "position": 0.6666666666666666,
              "duration": 0.30625
            },
            {
              "pitch": 65,
              "velocity": 69,
              "position": 0.6666666666666666,
              "duration": 0.30625
            },
            {
              "pitch": 66,
              "velocity": 114,
              "position": 1,
              "duration": 0.00625
            },
            {
              "pitch": 60,
              "velocity": 74,
              "position": 1,
              "duration": 0.5291666666666667
            },
            {
              "pitch": 67,
              "velocity": 67,
              "position": 1.01875,
              "duration": 0.61875
            },
            {
              "pitch": 70,
              "velocity": 92,
              "position": 1,
              "duration": 0.6395833333333333
            },
            {
              "pitch": 60,
              "velocity": 43,
              "position": 1.55,
              "duration": 0.42083333333333334
            },
            {
              "pitch": 69,
              "velocity": 65,
              "position": 1.6666666666666667,
              "duration": 0.30625
            },
            {
              "pitch": 65,
              "velocity": 55,
              "position": 1.6666666666666667,
              "duration": 0.30625
            },
            {
              "pitch": 60,
              "velocity": 53,
              "position": 2,
              "duration": 0.5291666666666667
            },
            {
              "pitch": 67,
              "velocity": 58,
              "position": 2,
              "duration": 0.6395833333333333
            },
            {
              "pitch": 64,
              "velocity": 40,
              "position": 2,
              "duration": 0.6395833333333333
            },
            {
              "pitch": 60,
              "velocity": 65,
              "position": 2.55,
              "duration": 0.42083333333333334
            },
            {
              "pitch": 69,
              "velocity": 69,
              "position": 2.6666666666666665,
              "duration": 0.30625
            },
            {
              "pitch": 65,
              "velocity": 76,
              "position": 2.6666666666666665,
              "duration": 0.30625
            },
            {
              "pitch": 66,
              "velocity": 74,
              "position": 3,
              "duration": 0.00625
            },
            {
              "pitch": 60,
              "velocity": 74,
              "position": 3,
              "duration": 0.5291666666666667
            },
            {
              "pitch": 67,
              "velocity": 99,
              "position": 3.01875,
              "duration": 0.61875
            },
            {
              "pitch": 70,
              "velocity": 99,
              "position": 3,
              "duration": 0.6395833333333333
            },
            {
              "pitch": 60,
              "velocity": 61,
              "position": 3.55,
              "duration": 0.30625
            },
            {
              "pitch": 69,
              "velocity": 58,
              "position": 3.6666666666666665,
              "duration": 0.30625
            },
            {
              "pitch": 65,
              "velocity": 58,
              "position": 3.6666666666666665,
              "duration": 0.30625
            },
            {
              "pitch": 60,
              "velocity": 54,
              "position": 3.8854166666666665,
              "duration": 0.6395833333333333
            },
            {
              "pitch": 67,
              "velocity": 40,
              "position": 4,
              "duration": 0.6395833333333333
            },
            {
              "pitch": 64,
              "velocity": 34,
              "position": 4,
              "duration": 0.6395833333333333
            },
            {
              "pitch": 60,
              "velocity": 54,
              "position": 4.552083333333333,
              "duration": 0.42083333333333334
            },
            {
              "pitch": 69,
              "velocity": 61,
              "position": 4.666666666666667,
              "duration": 0.30625
            },
            {
              "pitch": 65,
              "velocity": 69,
              "position": 4.666666666666667,
              "duration": 0.30625
            },
            {
              "pitch": 66,
              "velocity": 76,
              "position": 5,
              "duration": 0.00625
            },
            {
              "pitch": 60,
              "velocity": 79,
              "position": 5,
              "duration": 0.5270833333333333
            },
            {
              "pitch": 67,
              "velocity": 99,
              "position": 5.020833333333333,
              "duration": 0.61875
            },
            {
              "pitch": 70,
              "velocity": 107,
              "position": 5,
              "duration": 0.6395833333333333
            },
            {
              "pitch": 60,
              "velocity": 55,
              "position": 5.552083333333333,
              "duration": 0.42083333333333334
            },
            {
              "pitch": 69,
              "velocity": 65,
              "position": 5.666666666666667,
              "duration": 0.30625
            },
            {
              "pitch": 65,
              "velocity": 71,
              "position": 5.666666666666667,
              "duration": 0.30625
            },
            {
              "pitch": 60,
              "velocity": 53,
              "position": 6,
              "duration": 0.5270833333333333
            },
            {
              "pitch": 67,
              "velocity": 48,
              "position": 6,
              "duration": 0.6395833333333333
            },
            {
              "pitch": 64,
              "velocity": 53,
              "position": 6,
              "duration": 0.6395833333333333
            },
            {
              "pitch": 60,
              "velocity": 55,
              "position": 6.552083333333333,
              "duration": 0.30625
            },
            {
              "pitch": 69,
              "velocity": 76,
              "position": 6.666666666666667,
              "duration": 0.30625
            },
            {
              "pitch": 65,
              "velocity": 79,
              "position": 6.666666666666667,
              "duration": 0.30625
            },
            {
              "pitch": 66,
              "velocity": 92,
              "position": 7,
              "duration": 0.00625
            },
            {
              "pitch": 60,
              "velocity": 59,
              "position": 6.885416666666667,
              "duration": 0.30625
            },
            {
              "pitch": 67,
              "velocity": 95,
              "position": 7.020833333333333,
              "duration": 0.28541666666666665
            },
            {
              "pitch": 70,
              "velocity": 107,
              "position": 7,
              "duration": 0.30625
            },
            {
              "pitch": 60,
              "velocity": 54,
              "position": 7.21875,
              "duration": 0.30625
            },
            {
              "pitch": 69,
              "velocity": 65,
              "position": 7.333333333333333,
              "duration": 0.30625
            },
            {
              "pitch": 65,
              "velocity": 56,
              "position": 7.333333333333333,
              "duration": 0.30625
            },
            {
              "pitch": 60,
              "velocity": 54,
              "position": 7.552083333333333,
              "duration": 0.42083333333333334
            },
            {
              "pitch": 67,
              "velocity": 61,
              "position": 7.666666666666667,
              "duration": 0.30625
            },
            {
              "pitch": 64,
              "velocity": 67,
              "position": 7.666666666666667,
              "duration": 0.30625
            }
          ]
        },
        "7": {
          "ctab": {
            "srcChannel": 7,
            "name": "Tele S m",
            "accType": "PHRASE1",
            "editable": false,
            "mutedNotes": [],
            "mutedChords": [
              "1+2+5",
              "sus4",
              "1+5",
              "1+8",
              "7aug",
              "Maj7aug",
              "7(#9)",
              "7(b13)",
              "7(b9)",
              "7(13)",
              "7#11",
              "7(9)",
              "7b5",
              "7sus4",
              "7th",
              "dim7",
              "dim",
              "minMaj7(9)",
              "minMaj7",
              "min7(11)",
              "min7(9)",
              "min(9)",
              "m7b5",
              "min7",
              "min6",
              "aug",
              "Maj6(9)",
              "Maj7(9)",
              "Maj(9)",
              "Maj7#11",
              "Maj7",
              "Maj6",
              "Maj"
            ],
            "autoStart": false,
            "sourceChordNote": 0,
            "sourceChordType": "Maj7",
            "ctb2Low": null,
            "ctb2Main": {
              "ntr": "ROOT_TRANSPOSITION",
              "ntt": "DORIAN_5",
              "bassOn": false,
              "chordRootUpperLimit": 4,
              "noteLowLimit": 0,
              "noteHighLimit": 127,
              "rtr": "PITCH_SHIFT"
            },
            "ctb2High": null,
            "ctb2MiddleLowPitch": 0,
            "ctb2MiddleHighPitch": 127
          },
          "notes": [
            {
              "pitch": 64,
              "velocity": 116,
              "position": 0,
              "duration": 2.970833333333333
            },
            {
              "pitch": 72,
              "velocity": 30,
              "position": 0.33125,
              "duration": 2.6395833333333334
            },
            {
              "pitch": 67,
              "velocity": 116,
              "position": 4,
              "duration": 2.972916666666667
            },
            {
              "pitch": 60,
              "velocity": 28,
              "position": 4.666666666666667,
              "duration": 2.30625
            },
            {
              "pitch": 72,
              "velocity": 26,
              "position": 4.333333333333333,
              "duration": 2.6395833333333334
            }
          ]
        },
        "8": {
          "ctab": {
            "srcChannel": 8,
            "name": "AddDrum",
            "accType": "SUBRHYTHM",
            "editable": true,
            "mutedNotes": [],
            "mutedChords": [],
            "autoStart": true,
            "sourceChordNote": 0,
            "sourceChordType": "Maj7",
            "ctb2Low": null,
            "ctb2Main": {
              "ntr": "ROOT_FIXED",
              "ntt": "BYPASS",
              "bassOn": false,
              "chordRootUpperLimit": 6,
              "noteLowLimit": 0,
              "noteHighLimit": 127,
              "rtr": "PITCH_SHIFT"
            },
            "ctb2High": null,
            "ctb2MiddleLowPitch": 0,
            "ctb2MiddleHighPitch": 127
          },
          "notes": [
            {
              "pitch": 54,
              "velocity": 36,
              "position": 0,
              "duration": 0.00625
            },
            {
              "pitch": 54,
              "velocity": 25,
              "position": 0.33125,
              "duration": 0.00625
            },
            {
              "pitch": 54,
              "velocity": 26,
              "position": 0.6666666666666666,
              "duration": 0.00625
            },
            {
              "pitch": 54,
              "velocity": 90,
              "position": 1,
              "duration": 0.00625
            },
            {
              "pitch": 54,
              "velocity": 25,
              "position": 1.33125,
              "duration": 0.00625
            },
            {
              "pitch": 54,
              "velocity": 19,
              "position": 1.6666666666666667,
              "duration": 0.00625
            },
            {
              "pitch": 54,
              "velocity": 36,
              "position": 2,
              "duration": 0.00625
            },
            {
              "pitch": 54,
              "velocity": 25,
              "position": 2.33125,
              "duration": 0.00625
            },
            {
              "pitch": 54,
              "velocity": 26,
              "position": 2.6666666666666665,
              "duration": 0.00625
            },
            {
              "pitch": 54,
              "velocity": 90,
              "position": 3,
              "duration": 0.00625
            },
            {
              "pitch": 54,
              "velocity": 25,
              "position": 3.33125,
              "duration": 0.00625
            },
            {
              "pitch": 54,
              "velocity": 19,
              "position": 3.6666666666666665,
              "duration": 0.00625
            },
            {
              "pitch": 54,
              "velocity": 36,
              "position": 4,
              "duration": 0.00625
            },
            {
              "pitch": 54,
              "velocity": 25,
              "position": 4.33125,
              "duration": 0.00625
            },
            {
              "pitch": 54,
              "velocity": 26,
              "position": 4.666666666666667,
              "duration": 0.00625
            },
            {
              "pitch": 54,
              "velocity": 90,
              "position": 5,
              "duration": 0.00625
            },
            {
              "pitch": 54,
              "velocity": 25,
              "position": 5.33125,
              "duration": 0.00625
            },
            {
              "pitch": 54,
              "velocity": 19,
              "position": 5.666666666666667,
              "duration": 0.00625
            },
            {
              "pitch": 54,
              "velocity": 36,
              "position": 6,
              "duration": 0.00625
            },
            {
              "pitch": 54,
              "velocity": 25,
              "position": 6.33125,
              "duration": 0.00625
            },
            {
              "pitch": 54,
              "velocity": 26,
              "position": 6.666666666666667,
              "duration": 0.00625
            },
            {
              "pitch": 54,
              "velocity": 90,
              "position": 7,
              "duration": 0.00625
            },
            {
              "pitch": 54,
              "velocity": 25,
              "position": 7.33125,
              "duration": 0.00625
            },
            {
              "pitch": 54,
              "velocity": 19,
              "position": 7.666666666666667,
              "duration": 0.00625
            }
          ]
        },
        "9": {
          "ctab": {
            "srcChannel": 9,
            "name": "MainDrum",
            "accType": "RHYTHM",
            "editable": true,
            "mutedNotes": [],
            "mutedChords": [],
            "autoStart": true,
            "sourceChordNote": 0,
            "sourceChordType": "Maj7",
            "ctb2Low": null,
            "ctb2Main": {
              "ntr": "ROOT_FIXED",
              "ntt": "BYPASS",
              "bassOn": false,
              "chordRootUpperLimit": 6,
              "noteLowLimit": 0,
              "noteHighLimit": 127,
              "rtr": "PITCH_SHIFT"
            },
            "ctb2High": null,
            "ctb2MiddleLowPitch": 0,
            "ctb2MiddleHighPitch": 127
          },
          "notes": [
            {
              "pitch": 33,
              "velocity": 86,
              "position": 0,
              "duration": 0.00625
            },
            {
              "pitch": 42,
              "velocity": 88,
              "position": 0,
              "duration": 0.00625
            },
            {
              "pitch": 42,
              "velocity": 58,
              "position": 0.33125,
              "duration": 0.00625
            },
            {
              "pitch": 42,
              "velocity": 28,
              "position": 0.55,
              "duration": 0.00625
            },
            {
              "pitch": 33,
              "velocity": 64,
              "position": 0.6666666666666666,
              "duration": 0.00625
            },
            {
              "pitch": 42,
              "velocity": 78,
              "position": 0.6666666666666666,
              "duration": 0.00625
            },
            {
              "pitch": 31,
              "velocity": 100,
              "position": 1,
              "duration": 0.00625
            },
            {
              "pitch": 42,
              "velocity": 88,
              "position": 1,
              "duration": 0.00625
            },
            {
              "pitch": 42,
              "velocity": 28,
              "position": 1.21875,
              "duration": 0.00625
            },
            {
              "pitch": 42,
              "velocity": 68,
              "position": 1.33125,
              "duration": 0.00625
            },
            {
              "pitch": 33,
              "velocity": 64,
              "position": 1.6666666666666667,
              "duration": 0.00625
            },
            {
              "pitch": 42,
              "velocity": 78,
              "position": 1.6666666666666667,
              "duration": 0.00625
            },
            {
              "pitch": 42,
              "velocity": 28,
              "position": 1.8854166666666667,
              "duration": 0.00625
            },
            {
              "pitch": 33,
              "velocity": 86,
              "position": 2,
              "duration": 0.00625
            },
            {
              "pitch": 42,
              "velocity": 88,
              "position": 2,
              "duration": 0.00625
            },
            {
              "pitch": 42,
              "velocity": 58,
              "position": 2.33125,
              "duration": 0.00625
            },
            {
              "pitch": 42,
              "velocity": 28,
              "position": 2.55,
              "duration": 0.00625
            },
            {
              "pitch": 33,
              "velocity": 64,
              "position": 2.6666666666666665,
              "duration": 0.00625
            },
            {
              "pitch": 42,
              "velocity": 78,
              "position": 2.6666666666666665,
              "duration": 0.00625
            },
            {
              "pitch": 31,
              "velocity": 100,
              "position": 3,
              "duration": 0.00625
            },
            {
              "pitch": 42,
              "velocity": 88,
              "position": 3,
              "duration": 0.00625
            },
            {
              "pitch": 42,
              "velocity": 28,
              "position": 3.21875,
              "duration": 0.00625
            },
            {
              "pitch": 42,
              "velocity": 68,
              "position": 3.33125,
              "duration": 0.00625
            },
            {
              "pitch": 33,
              "velocity": 64,
              "position": 3.6666666666666665,
              "duration": 0.00625
            },
            {
              "pitch": 42,
              "velocity": 78,
              "position": 3.6666666666666665,
              "duration": 0.00625
            },
            {
              "pitch": 42,
              "velocity": 28,
              "position": 3.8854166666666665,
              "duration": 0.00625
            },
            {
              "pitch": 33,
              "velocity": 86,
              "position": 4,
              "duration": 0.00625
            },
            {
              "pitch": 42,
              "velocity": 88,
              "position": 4,
              "duration": 0.00625
            },
            {
              "pitch": 42,
              "velocity": 58,
              "position": 4.33125,
              "duration": 0.00625
            },
            {
              "pitch": 42,
              "velocity": 28,
              "position": 4.55,
              "duration": 0.00625
            },
            {
              "pitch": 33,
              "velocity": 64,
              "position": 4.666666666666667,
              "duration": 0.00625
            },
            {
              "pitch": 42,
              "velocity": 78,
              "position": 4.666666666666667,
              "duration": 0.00625
            },
            {
              "pitch": 31,
              "velocity": 100,
              "position": 5,
              "duration": 0.00625
            },
            {
              "pitch": 42,
              "velocity": 88,
              "position": 5,
              "duration": 0.00625
            },
            {
              "pitch": 42,
              "velocity": 28,
              "position": 5.21875,
              "duration": 0.00625
            },
            {
              "pitch": 42,
              "velocity": 68,
              "position": 5.33125,
              "duration": 0.00625
            },
            {
              "pitch": 33,
              "velocity": 64,
              "position": 5.666666666666667,
              "duration": 0.00625
            },
            {
              "pitch": 42,
              "velocity": 78,
              "position": 5.666666666666667,
              "duration": 0.00625
            },
            {
              "pitch": 42,
              "velocity": 28,
              "position": 5.885416666666667,
              "duration": 0.00625
            },
            {
              "pitch": 33,
              "velocity": 86,
              "position": 6,
              "duration": 0.00625
            },
            {
              "pitch": 42,
              "velocity": 88,
              "position": 6,
              "duration": 0.00625
            },
            {
              "pitch": 42,
              "velocity": 58,
              "position": 6.33125,
              "duration": 0.00625
            },
            {
              "pitch": 42,
              "velocity": 28,
              "position": 6.55,
              "duration": 0.00625
            },
            {
              "pitch": 42,
              "velocity": 78,
              "position": 6.666666666666667,
              "duration": 0.00625
            },
            {
              "pitch": 31,
              "velocity": 100,
              "position": 7,
              "duration": 0.00625
            },
            {
              "pitch": 42,
              "velocity": 88,
              "position": 7,
              "duration": 0.00625
            },
            {
              "pitch": 42,
              "velocity": 28,
              "position": 7.21875,
              "duration": 0.00625
            },
            {
              "pitch": 33,
              "velocity": 64,
              "position": 7.33125,
              "duration": 0.00625
            },
            {
              "pitch": 42,
              "velocity": 68,
              "position": 7.33125,
              "duration": 0.00625
            },
            {
              "pitch": 33,
              "velocity": 64,
              "position": 7.666666666666667,
              "duration": 0.00625
            },
            {
              "pitch": 42,
              "velocity": 78,
              "position": 7.666666666666667,
              "duration": 0.00625
            },
            {
              "pitch": 42,
              "velocity": 28,
              "position": 7.885416666666667,
              "duration": 0.00625
            }
          ]
        },
        "10": {
          "ctab": {
            "srcChannel": 10,
            "name": "Bass A",
            "accType": "BASS",
            "editable": false,
            "mutedNotes": [],
            "mutedChords": [
              "7aug",
              "dim",
              "minMaj7(9)",
              "minMaj7",
              "min(9)",
              "m7b5",
              "min",
              "aug"
            ],
            "autoStart": false,
            "sourceChordNote": 0,
            "sourceChordType": "Maj7",
            "ctb2Low": null,
            "ctb2Main": {
              "ntr": "ROOT_TRANSPOSITION",
              "ntt": "MELODY",
              "bassOn": true,
              "chordRootUpperLimit": 8,
              "noteLowLimit": 28,
              "noteHighLimit": 127,
              "rtr": "PITCH_SHIFT_TO_ROOT"
            },
            "ctb2High": null,
            "ctb2MiddleLowPitch": 0,
            "ctb2MiddleHighPitch": 127
          },
          "notes": [
            {
              "pitch": 24,
              "velocity": 70,
              "position": 0,
              "duration": 0.5875
            },
            {
              "pitch": 24,
              "velocity": 59,
              "position": 0.6666666666666666,
              "duration": 0.25416666666666665
            },
            {
              "pitch": 28,
              "velocity": 70,
              "position": 1,
              "duration": 0.5875
            },
            {
              "pitch": 28,
              "velocity": 59,
              "position": 1.6666666666666667,
              "duration": 0.25416666666666665
            },
            {
              "pitch": 31,
              "velocity": 70,
              "position": 2,
              "duration": 0.5875
            },
            {
              "pitch": 31,
              "velocity": 59,
              "position": 2.6666666666666665,
              "duration": 0.25416666666666665
            },
            {
              "pitch": 28,
              "velocity": 70,
              "position": 3,
              "duration": 0.5875
            },
            {
              "pitch": 31,
              "velocity": 59,
              "position": 3.6666666666666665,
              "duration": 0.25416666666666665
            },
            {
              "pitch": 24,
              "velocity": 70,
              "position": 4,
              "duration": 0.5875
            },
            {
              "pitch": 24,
              "velocity": 59,
              "position": 4.666666666666667,
              "duration": 0.25416666666666665
            },
            {
              "pitch": 28,
              "velocity": 70,
              "position": 5,
              "duration": 0.5875
            },
            {
              "pitch": 28,
              "velocity": 59,
              "position": 5.666666666666667,
              "duration": 0.25416666666666665
            },
            {
              "pitch": 31,
              "velocity": 70,
              "position": 6,
              "duration": 0.5875
            },
            {
              "pitch": 31,
              "velocity": 59,
              "position": 6.666666666666667,
              "duration": 0.25416666666666665
            },
            {
              "pitch": 33,
              "velocity": 70,
              "position": 7,
              "duration": 0.30625
            },
            {
              "pitch": 31,
              "velocity": 59,
              "position": 7.33125,
              "duration": 0.30625
            },
            {
              "pitch": 28,
              "velocity": 59,
              "position": 7.666666666666667,
              "duration": 0.30625
            }
          ]
        },
        "11": {
          "ctab": {
            "srcChannel": 11,
            "name": "SolidGtr",
            "accType": "CHORD1",
            "editable": false,
            "mutedNotes": [],
            "mutedChords": [],
            "autoStart": false,
            "sourceChordNote": 0,
            "sourceChordType": "Maj7",
            "ctb2Low": null,
            "ctb2Main": {
              "ntr": "GUITAR",
              "ntt": "ALL_PURPOSE",
              "bassOn": false,
              "chordRootUpperLimit": 7,
              "noteLowLimit": 0,
              "noteHighLimit": 79,
              "rtr": "PITCH_SHIFT"
            },
            "ctb2High": null,
            "ctb2MiddleLowPitch": 0,
            "ctb2MiddleHighPitch": 127
          },
          "notes": [
            {
              "pitch": 100,
              "velocity": 80,
              "position": 0,
              "duration": 0.19166666666666668
            },
            {
              "pitch": 67,
              "velocity": 50,
              "position": 0,
              "duration": 0.30625
            },
            {
              "pitch": 65,
              "velocity": 50,
              "position": 0,
              "duration": 0.30625
            },
            {
              "pitch": 69,
              "velocity": 50,
              "position": 0.010416666666666666,
              "duration": 0.30625
            },
            {
              "pitch": 71,
              "velocity": 50,
              "position": 0.01875,
              "duration": 0.30625
            },
            {
              "pitch": 106,
              "velocity": 30,
              "position": 0.33125,
              "duration": 0.19166666666666668
            },
            {
              "pitch": 65,
              "velocity": 20,
              "position": 0.33125,
              "duration": 0.30625
            },
            {
              "pitch": 67,
              "velocity": 20,
              "position": 0.33125,
              "duration": 0.3104166666666667
            },
            {
              "pitch": 69,
              "velocity": 20,
              "position": 0.34375,
              "duration": 0.30625
            },
            {
              "pitch": 71,
              "velocity": 20,
              "position": 0.3541666666666667,
              "duration": 0.30625
            },
            {
              "pitch": 98,
              "velocity": 55,
              "position": 0.6666666666666666,
              "duration": 0.19166666666666668
            },
            {
              "pitch": 65,
              "velocity": 40,
              "position": 0.6666666666666666,
              "duration": 0.30625
            },
            {
              "pitch": 67,
              "velocity": 40,
              "position": 0.6666666666666666,
              "duration": 0.30833333333333335
            },
            {
              "pitch": 69,
              "velocity": 40,
              "position": 0.675,
              "duration": 0.30625
            },
            {
              "pitch": 71,
              "velocity": 40,
              "position": 0.6875,
              "duration": 0.30625
            },
            {
              "pitch": 65,
              "velocity": 60,
              "position": 1,
              "duration": 0.03333333333333333
            },
            {
              "pitch": 67,
              "velocity": 60,
              "position": 1,
              "duration": 0.03333333333333333
            },
            {
              "pitch": 69,
              "velocity": 60,
              "position": 1.0104166666666667,
              "duration": 0.035416666666666666
            },
            {
              "pitch": 71,
              "velocity": 60,
              "position": 1.01875,
              "duration": 0.0375
            },
            {
              "pitch": 100,
              "velocity": 90,
              "position": 1,
              "duration": 0.19166666666666668
            },
            {
              "pitch": 65,
              "velocity": 85,
              "position": 1.33125,
              "duration": 0.027083333333333334
            },
            {
              "pitch": 67,
              "velocity": 85,
              "position": 1.33125,
              "duration": 0.027083333333333334
            },
            {
              "pitch": 69,
              "velocity": 70,
              "position": 1.34375,
              "duration": 0.025
            },
            {
              "pitch": 71,
              "velocity": 70,
              "position": 1.3541666666666667,
              "duration": 0.025
            },
            {
              "pitch": 119,
              "velocity": 100,
              "position": 1.33125,
              "duration": 0.19166666666666668
            },
            {
              "pitch": 100,
              "velocity": 80,
              "position": 1.6666666666666667,
              "duration": 0.19166666666666668
            },
            {
              "pitch": 67,
              "velocity": 50,
              "position": 1.6666666666666667,
              "duration": 0.6395833333333333
            },
            {
              "pitch": 65,
              "velocity": 50,
              "position": 1.6666666666666667,
              "duration": 0.6395833333333333
            },
            {
              "pitch": 69,
              "velocity": 50,
              "position": 1.675,
              "duration": 0.6395833333333333
            },
            {
              "pitch": 71,
              "velocity": 50,
              "position": 1.6875,
              "duration": 0.6395833333333333
            },
            {
              "pitch": 106,
              "velocity": 30,
              "position": 2.33125,
              "duration": 0.19166666666666668
            },
            {
              "pitch": 65,
              "velocity": 20,
              "position": 2.33125,
              "duration": 0.30625
            },
            {
              "pitch": 67,
              "velocity": 20,
              "position": 2.33125,
              "duration": 0.3104166666666667
            },
            {
              "pitch": 69,
              "velocity": 20,
              "position": 2.34375,
              "duration": 0.30625
            },
            {
              "pitch": 71,
              "velocity": 20,
              "position": 2.3541666666666665,
              "duration": 0.30625
            },
            {
              "pitch": 98,
              "velocity": 55,
              "position": 2.6666666666666665,
              "duration": 0.19166666666666668
            },
            {
              "pitch": 65,
              "velocity": 40,
              "position": 2.6666666666666665,
              "duration": 0.30625
            },
            {
              "pitch": 67,
              "velocity": 40,
              "position": 2.6666666666666665,
              "duration": 0.30833333333333335
            },
            {
              "pitch": 69,
              "velocity": 40,
              "position": 2.675,
              "duration": 0.30625
            },
            {
              "pitch": 71,
              "velocity": 40,
              "position": 2.6875,
              "duration": 0.30625
            },
            {
              "pitch": 65,
              "velocity": 60,
              "position": 3,
              "duration": 0.03333333333333333
            },
            {
              "pitch": 67,
              "velocity": 60,
              "position": 3,
              "duration": 0.03333333333333333
            },
            {
              "pitch": 69,
              "velocity": 60,
              "position": 3.0104166666666665,
              "duration": 0.035416666666666666
            },
            {
              "pitch": 71,
              "velocity": 60,
              "position": 3.01875,
              "duration": 0.0375
            },
            {
              "pitch": 100,
              "velocity": 90,
              "position": 3,
              "duration": 0.19166666666666668
            },
            {
              "pitch": 65,
              "velocity": 70,
              "position": 3.33125,
              "duration": 0.027083333333333334
            },
            {
              "pitch": 67,
              "velocity": 70,
              "position": 3.33125,
              "duration": 0.027083333333333334
            },
            {
              "pitch": 69,
              "velocity": 70,
              "position": 3.34375,
              "duration": 0.025
            },
            {
              "pitch": 71,
              "velocity": 70,
              "position": 3.3541666666666665,
              "duration": 0.025
            },
            {
              "pitch": 118,
              "velocity": 85,
              "position": 3.33125,
              "duration": 0.19166666666666668
            },
            {
              "pitch": 65,
              "velocity": 85,
              "position": 3.6666666666666665,
              "duration": 0.025
            },
            {
              "pitch": 67,
              "velocity": 85,
              "position": 3.6666666666666665,
              "duration": 0.025
            },
            {
              "pitch": 69,
              "velocity": 70,
              "position": 3.675,
              "duration": 0.027083333333333334
            },
            {
              "pitch": 71,
              "velocity": 70,
              "position": 3.6875,
              "duration": 0.025
            },
            {
              "pitch": 119,
              "velocity": 100,
              "position": 3.6666666666666665,
              "duration": 0.19166666666666668
            },
            {
              "pitch": 100,
              "velocity": 80,
              "position": 4,
              "duration": 0.19166666666666668
            },
            {
              "pitch": 67,
              "velocity": 50,
              "position": 4,
              "duration": 0.30625
            },
            {
              "pitch": 65,
              "velocity": 50,
              "position": 4,
              "duration": 0.30625
            },
            {
              "pitch": 69,
              "velocity": 50,
              "position": 4.010416666666667,
              "duration": 0.30625
            },
            {
              "pitch": 71,
              "velocity": 50,
              "position": 4.01875,
              "duration": 0.30625
            },
            {
              "pitch": 106,
              "velocity": 30,
              "position": 4.33125,
              "duration": 0.19166666666666668
            },
            {
              "pitch": 65,
              "velocity": 20,
              "position": 4.33125,
              "duration": 0.30625
            },
            {
              "pitch": 67,
              "velocity": 20,
              "position": 4.33125,
              "duration": 0.3104166666666667
            },
            {
              "pitch": 69,
              "velocity": 20,
              "position": 4.34375,
              "duration": 0.30625
            },
            {
              "pitch": 71,
              "velocity": 20,
              "position": 4.354166666666667,
              "duration": 0.30625
            },
            {
              "pitch": 98,
              "velocity": 55,
              "position": 4.666666666666667,
              "duration": 0.19166666666666668
            },
            {
              "pitch": 65,
              "velocity": 40,
              "position": 4.666666666666667,
              "duration": 0.30625
            },
            {
              "pitch": 67,
              "velocity": 40,
              "position": 4.666666666666667,
              "duration": 0.30833333333333335
            },
            {
              "pitch": 69,
              "velocity": 40,
              "position": 4.675,
              "duration": 0.30625
            },
            {
              "pitch": 71,
              "velocity": 40,
              "position": 4.6875,
              "duration": 0.30625
            },
            {
              "pitch": 65,
              "velocity": 60,
              "position": 5,
              "duration": 0.03333333333333333
            },
            {
              "pitch": 67,
              "velocity": 60,
              "position": 5,
              "duration": 0.03333333333333333
            },
            {
              "pitch": 69,
              "velocity": 60,
              "position": 5.010416666666667,
              "duration": 0.035416666666666666
            },
            {
              "pitch": 71,
              "velocity": 60,
              "position": 5.01875,
              "duration": 0.0375
            },
            {
              "pitch": 100,
              "velocity": 90,
              "position": 5,
              "duration": 0.19166666666666668
            },
            {
              "pitch": 65,
              "velocity": 86,
              "position": 5.33125,
              "duration": 0.027083333333333334
            },
            {
              "pitch": 67,
              "velocity": 86,
              "position": 5.33125,
              "duration": 0.027083333333333334
            },
            {
              "pitch": 69,
              "velocity": 71,
              "position": 5.34375,
              "duration": 0.025
            },
            {
              "pitch": 71,
              "velocity": 71,
              "position": 5.354166666666667,
              "duration": 0.025
            },
            {
              "pitch": 119,
              "velocity": 101,
              "position": 5.33125,
              "duration": 0.19166666666666668
            },
            {
              "pitch": 100,
              "velocity": 80,
              "position": 5.666666666666667,
              "duration": 0.19166666666666668
            },
            {
              "pitch": 67,
              "velocity": 50,
              "position": 5.666666666666667,
              "duration": 0.6395833333333333
            },
            {
              "pitch": 65,
              "velocity": 50,
              "position": 5.666666666666667,
              "duration": 0.6395833333333333
            },
            {
              "pitch": 69,
              "velocity": 50,
              "position": 5.675,
              "duration": 0.6395833333333333
            },
            {
              "pitch": 71,
              "velocity": 50,
              "position": 5.6875,
              "duration": 0.6395833333333333
            },
            {
              "pitch": 106,
              "velocity": 30,
              "position": 6.33125,
              "duration": 0.19166666666666668
            },
            {
              "pitch": 65,
              "velocity": 20,
              "position": 6.33125,
              "duration": 0.30625
            },
            {
              "pitch": 67,
              "velocity": 20,
              "position": 6.33125,
              "duration": 0.3104166666666667
            },
            {
              "pitch": 69,
              "velocity": 20,
              "position": 6.34375,
              "duration": 0.30625
            },
            {
              "pitch": 71,
              "velocity": 20,
              "position": 6.354166666666667,
              "duration": 0.30625
            },
            {
              "pitch": 98,
              "velocity": 55,
              "position": 6.666666666666667,
              "duration": 0.19166666666666668
            },
            {
              "pitch": 65,
              "velocity": 40,
              "position": 6.666666666666667,
              "duration": 0.30625
            },
            {
              "pitch": 67,
              "velocity": 40,
              "position": 6.666666666666667,
              "duration": 0.30833333333333335
            },
            {
              "pitch": 69,
              "velocity": 40,
              "position": 6.675,
              "duration": 0.30625
            },
            {
              "pitch": 71,
              "velocity": 40,
              "position": 6.6875,
              "duration": 0.30625
            },
            {
              "pitch": 65,
              "velocity": 60,
              "position": 7,
              "duration": 0.03333333333333333
            },
            {
              "pitch": 67,
              "velocity": 60,
              "position": 7,
              "duration": 0.03333333333333333
            },
            {
              "pitch": 69,
              "velocity": 60,
              "position": 7.010416666666667,
              "duration": 0.035416666666666666
            },
            {
              "pitch": 71,
              "velocity": 60,
              "position": 7.01875,
              "duration": 0.0375
            },
            {
              "pitch": 100,
              "velocity": 90,
              "position": 7,
              "duration": 0.19166666666666668
            },
            {
              "pitch": 65,
              "velocity": 70,
              "position": 7.33125,
              "duration": 0.027083333333333334
            },
            {
              "pitch": 67,
              "velocity": 70,
              "position": 7.33125,
              "duration": 0.027083333333333334
            },
            {
              "pitch": 69,
              "velocity": 70,
              "position": 7.34375,
              "duration": 0.025
            },
            {
              "pitch": 71,
              "velocity": 70,
              "position": 7.354166666666667,
              "duration": 0.025
            },
            {
              "pitch": 118,
              "velocity": 85,
              "position": 7.33125,
              "duration": 0.19166666666666668
            },
            {
              "pitch": 65,
              "velocity": 85,
              "position": 7.666666666666667,
              "duration": 0.025
            },
            {
              "pitch": 67,
              "velocity": 85,
              "position": 7.666666666666667,
              "duration": 0.025
            },
            {
              "pitch": 69,
              "velocity": 70,
              "position": 7.675,
              "duration": 0.027083333333333334
            },
            {
              "pitch": 71,
              "velocity": 70,
              "position": 7.6875,
              "duration": 0.025
            },
            {
              "pitch": 119,
              "velocity": 100,
              "position": 7.666666666666667,
              "duration": 0.19166666666666668
            }
          ]
        },
        "12": {
          "ctab": {
            "srcChannel": 12,
            "name": "Pno RH",
            "accType": "CHORD2",
            "editable": false,
            "mutedNotes": [],
            "mutedChords": [
              "min",
              "Maj"
            ],
            "autoStart": false,
            "sourceChordNote": 0,
            "sourceChordType": "Maj7",
            "ctb2Low": null,
            "ctb2Main": {
              "ntr": "ROOT_FIXED",
              "ntt": "CHORD",
              "bassOn": false,
              "chordRootUpperLimit": 7,
              "noteLowLimit": 0,
              "noteHighLimit": 127,
              "rtr": "PITCH_SHIFT"
            },
            "ctb2High": null,
            "ctb2MiddleLowPitch": 0,
            "ctb2MiddleHighPitch": 127
          },
          "notes": [
            {
              "pitch": 64,
              "velocity": 71,
              "position": 0,
              "duration": 0.31875
            },
            {
              "pitch": 71,
              "velocity": 73,
              "position": 0,
              "duration": 0.31875
            },
            {
              "pitch": 67,
              "velocity": 68,
              "position": 0,
              "duration": 0.31875
            },
            {
              "pitch": 64,
              "velocity": 64,
              "position": 0.33125,
              "duration": 0.31875
            },
            {
              "pitch": 71,
              "velocity": 59,
              "position": 0.33125,
              "duration": 0.31875
            },
            {
              "pitch": 67,
              "velocity": 62,
              "position": 0.33125,
              "duration": 0.31875
            },
            {
              "pitch": 64,
              "velocity": 56,
              "position": 0.6666666666666666,
              "duration": 0.31875
            },
            {
              "pitch": 71,
              "velocity": 55,
              "position": 0.6666666666666666,
              "duration": 0.31875
            },
            {
              "pitch": 67,
              "velocity": 54,
              "position": 0.6666666666666666,
              "duration": 0.31875
            },
            {
              "pitch": 64,
              "velocity": 60,
              "position": 1,
              "duration": 0.31875
            },
            {
              "pitch": 71,
              "velocity": 62,
              "position": 1,
              "duration": 0.31875
            },
            {
              "pitch": 67,
              "velocity": 58,
              "position": 1,
              "duration": 0.31875
            },
            {
              "pitch": 64,
              "velocity": 60,
              "position": 1.33125,
              "duration": 0.20833333333333334
            },
            {
              "pitch": 71,
              "velocity": 64,
              "position": 1.33125,
              "duration": 0.31875
            },
            {
              "pitch": 67,
              "velocity": 54,
              "position": 1.33125,
              "duration": 0.31875
            },
            {
              "pitch": 64,
              "velocity": 78,
              "position": 1.55,
              "duration": 0.43333333333333335
            },
            {
              "pitch": 71,
              "velocity": 80,
              "position": 1.6666666666666667,
              "duration": 0.31875
            },
            {
              "pitch": 67,
              "velocity": 89,
              "position": 1.6666666666666667,
              "duration": 0.31875
            },
            {
              "pitch": 64,
              "velocity": 56,
              "position": 2,
              "duration": 0.31875
            },
            {
              "pitch": 71,
              "velocity": 66,
              "position": 2,
              "duration": 0.31875
            },
            {
              "pitch": 67,
              "velocity": 60,
              "position": 2,
              "duration": 0.31875
            },
            {
              "pitch": 64,
              "velocity": 54,
              "position": 2.33125,
              "duration": 0.31875
            },
            {
              "pitch": 71,
              "velocity": 59,
              "position": 2.33125,
              "duration": 0.31875
            },
            {
              "pitch": 67,
              "velocity": 62,
              "position": 2.33125,
              "duration": 0.31875
            },
            {
              "pitch": 64,
              "velocity": 54,
              "position": 2.6666666666666665,
              "duration": 0.31875
            },
            {
              "pitch": 71,
              "velocity": 62,
              "position": 2.6666666666666665,
              "duration": 0.31875
            },
            {
              "pitch": 67,
              "velocity": 58,
              "position": 2.6666666666666665,
              "duration": 0.31875
            },
            {
              "pitch": 64,
              "velocity": 66,
              "position": 3,
              "duration": 0.31875
            },
            {
              "pitch": 71,
              "velocity": 66,
              "position": 3,
              "duration": 0.31875
            },
            {
              "pitch": 67,
              "velocity": 62,
              "position": 3,
              "duration": 0.31875
            },
            {
              "pitch": 64,
              "velocity": 54,
              "position": 3.33125,
              "duration": 0.20833333333333334
            },
            {
              "pitch": 71,
              "velocity": 64,
              "position": 3.33125,
              "duration": 0.31875
            },
            {
              "pitch": 67,
              "velocity": 54,
              "position": 3.33125,
              "duration": 0.31875
            },
            {
              "pitch": 64,
              "velocity": 80,
              "position": 3.55,
              "duration": 0.31875
            },
            {
              "pitch": 71,
              "velocity": 77,
              "position": 3.6666666666666665,
              "duration": 0.31875
            },
            {
              "pitch": 67,
              "velocity": 95,
              "position": 3.6666666666666665,
              "duration": 0.31875
            },
            {
              "pitch": 64,
              "velocity": 72,
              "position": 3.8854166666666665,
              "duration": 0.43333333333333335
            },
            {
              "pitch": 71,
              "velocity": 83,
              "position": 4,
              "duration": 0.31875
            },
            {
              "pitch": 67,
              "velocity": 75,
              "position": 4,
              "duration": 0.31875
            },
            {
              "pitch": 64,
              "velocity": 60,
              "position": 4.33125,
              "duration": 0.31875
            },
            {
              "pitch": 71,
              "velocity": 59,
              "position": 4.33125,
              "duration": 0.31875
            },
            {
              "pitch": 67,
              "velocity": 64,
              "position": 4.33125,
              "duration": 0.31875
            },
            {
              "pitch": 64,
              "velocity": 56,
              "position": 4.666666666666667,
              "duration": 0.31875
            },
            {
              "pitch": 71,
              "velocity": 62,
              "position": 4.666666666666667,
              "duration": 0.31875
            },
            {
              "pitch": 67,
              "velocity": 54,
              "position": 4.666666666666667,
              "duration": 0.31875
            },
            {
              "pitch": 64,
              "velocity": 70,
              "position": 5,
              "duration": 0.31875
            },
            {
              "pitch": 71,
              "velocity": 70,
              "position": 5,
              "duration": 0.31875
            },
            {
              "pitch": 67,
              "velocity": 75,
              "position": 5,
              "duration": 0.31875
            },
            {
              "pitch": 64,
              "velocity": 54,
              "position": 5.33125,
              "duration": 0.20833333333333334
            },
            {
              "pitch": 71,
              "velocity": 64,
              "position": 5.33125,
              "duration": 0.31875
            },
            {
              "pitch": 67,
              "velocity": 56,
              "position": 5.33125,
              "duration": 0.31875
            },
            {
              "pitch": 64,
              "velocity": 73,
              "position": 5.55,
              "duration": 0.31875
            },
            {
              "pitch": 71,
              "velocity": 83,
              "position": 5.666666666666667,
              "duration": 0.31875
            },
            {
              "pitch": 67,
              "velocity": 87,
              "position": 5.666666666666667,
              "duration": 0.31875
            },
            {
              "pitch": 64,
              "velocity": 69,
              "position": 5.885416666666667,
              "duration": 0.43333333333333335
            },
            {
              "pitch": 71,
              "velocity": 80,
              "position": 6,
              "duration": 0.31875
            },
            {
              "pitch": 67,
              "velocity": 80,
              "position": 6,
              "duration": 0.31875
            },
            {
              "pitch": 64,
              "velocity": 60,
              "position": 6.33125,
              "duration": 0.31875
            },
            {
              "pitch": 71,
              "velocity": 70,
              "position": 6.33125,
              "duration": 0.31875
            },
            {
              "pitch": 67,
              "velocity": 70,
              "position": 6.33125,
              "duration": 0.31875
            },
            {
              "pitch": 64,
              "velocity": 56,
              "position": 6.666666666666667,
              "duration": 0.31875
            },
            {
              "pitch": 71,
              "velocity": 66,
              "position": 6.666666666666667,
              "duration": 0.31875
            },
            {
              "pitch": 67,
              "velocity": 59,
              "position": 6.666666666666667,
              "duration": 0.31875
            },
            {
              "pitch": 64,
              "velocity": 56,
              "position": 7,
              "duration": 0.31875
            },
            {
              "pitch": 71,
              "velocity": 73,
              "position": 7,
              "duration": 0.31875
            },
            {
              "pitch": 67,
              "velocity": 72,
              "position": 7,
              "duration": 0.31875
            },
            {
              "pitch": 64,
              "velocity": 62,
              "position": 7.33125,
              "duration": 0.20833333333333334
            },
            {
              "pitch": 71,
              "velocity": 65,
              "position": 7.33125,
              "duration": 0.31875
            },
            {
              "pitch": 67,
              "velocity": 62,
              "position": 7.33125,
              "duration": 0.31875
            },
            {
              "pitch": 64,
              "velocity": 73,
              "position": 7.55,
              "duration": 0.43333333333333335
            },
            {
              "pitch": 71,
              "velocity": 80,
              "position": 7.666666666666667,
              "duration": 0.31875
            },
            {
              "pitch": 67,
              "velocity": 93,
              "position": 7.666666666666667,
              "duration": 0.31875
            }
          ]
        },
        "13": {
          "ctab": {
            "srcChannel": 13,
            "name": "Organ1",
            "accType": "PAD",
            "editable": false,
            "mutedNotes": [],
            "mutedChords": [],
            "autoStart": false,
            "sourceChordNote": 0,
            "sourceChordType": "Maj7",
            "ctb2Low": null,
            "ctb2Main": {
              "ntr": "ROOT_FIXED",
              "ntt": "CHORD",
              "bassOn": false,
              "chordRootUpperLimit": 7,
              "noteLowLimit": 0,
              "noteHighLimit": 127,
              "rtr": "PITCH_SHIFT"
            },
            "ctb2High": null,
            "ctb2MiddleLowPitch": 0,
            "ctb2MiddleHighPitch": 127
          },
          "notes": [
            {
              "pitch": 67,
              "velocity": 50,
              "position": 0,
              "duration": 1.2416666666666667
            },
            {
              "pitch": 76,
              "velocity": 50,
              "position": 0,
              "duration": 1.2416666666666667
            },
            {
              "pitch": 71,
              "velocity": 50,
              "position": 0,
              "duration": 1.2416666666666667
            },
            {
              "pitch": 67,
              "velocity": 50,
              "position": 1.5,
              "duration": 1.7416666666666667
            },
            {
              "pitch": 76,
              "velocity": 50,
              "position": 1.5,
              "duration": 1.7416666666666667
            },
            {
              "pitch": 71,
              "velocity": 50,
              "position": 1.5,
              "duration": 1.7416666666666667
            },
            {
              "pitch": 67,
              "velocity": 50,
              "position": 3.5,
              "duration": 0.48541666666666666
            },
            {
              "pitch": 76,
              "velocity": 50,
              "position": 3.5,
              "duration": 0.48541666666666666
            },
            {
              "pitch": 71,
              "velocity": 50,
              "position": 3.5,
              "duration": 0.48541666666666666
            },
            {
              "pitch": 67,
              "velocity": 50,
              "position": 4,
              "duration": 3.8666666666666667
            },
            {
              "pitch": 76,
              "velocity": 50,
              "position": 4,
              "duration": 3.8666666666666667
            },
            {
              "pitch": 71,
              "velocity": 50,
              "position": 4,
              "duration": 3.8666666666666667
            }
          ]
        },
        "14": {
          "ctab": {
            "srcChannel": 14,
            "name": "Tele",
            "accType": "PHRASE1",
            "editable": false,
            "mutedNotes": [],
            "mutedChords": [
              "min",
              "Maj"
            ],
            "autoStart": false,
            "sourceChordNote": 0,
            "sourceChordType": "Maj7",
            "ctb2Low": null,
            "ctb2Main": {
              "ntr": "ROOT_TRANSPOSITION",
              "ntt": "MELODY",
              "bassOn": false,
              "chordRootUpperLimit": 4,
              "noteLowLimit": 0,
              "noteHighLimit": 127,
              "rtr": "PITCH_SHIFT"
            },
            "ctb2High": null,
            "ctb2MiddleLowPitch": 0,
            "ctb2MiddleHighPitch": 127
          },
          "notes": [
            {
              "pitch": 67,
              "velocity": 116,
              "position": 0,
              "duration": 2.970833333333333
            },
            {
              "pitch": 71,
              "velocity": 28,
              "position": 0.33125,
              "duration": 2.6395833333333334
            },
            {
              "pitch": 67,
              "velocity": 116,
              "position": 4,
              "duration": 2.972916666666667
            },
            {
              "pitch": 64,
              "velocity": 28,
              "position": 4.666666666666667,
              "duration": 2.30625
            },
            {
              "pitch": 71,
              "velocity": 26,
              "position": 4.333333333333333,
              "duration": 2.6395833333333334
            }
          ]
        },
        "15": {
          "ctab": {
            "srcChannel": 15,
            "name": "E.P",
            "accType": "PHRASE2",
            "editable": false,
            "mutedNotes": [],
            "mutedChords": [
              "min",
              "Maj"
            ],
            "autoStart": false,
            "sourceChordNote": 0,
            "sourceChordType": "Maj7",
            "ctb2Low": null,
            "ctb2Main": {
              "ntr": "ROOT_FIXED",
              "ntt": "CHORD",
              "bassOn": false,
              "chordRootUpperLimit": 7,
              "noteLowLimit": 0,
              "noteHighLimit": 127,
              "rtr": "PITCH_SHIFT"
            },
            "ctb2High": null,
            "ctb2MiddleLowPitch": 0,
            "ctb2MiddleHighPitch": 127
          },
          "notes": [
            {
              "pitch": 59,
              "velocity": 54,
              "position": 0,
              "duration": 0.525
            },
            {
              "pitch": 67,
              "velocity": 54,
              "position": 0,
              "duration": 0.6395833333333333
            },
            {
              "pitch": 64,
              "velocity": 54,
              "position": 0,
              "duration": 0.6395833333333333
            },
            {
              "pitch": 59,
              "velocity": 82,
              "position": 0.55,
              "duration": 0.42083333333333334
            },
            {
              "pitch": 67,
              "velocity": 69,
              "position": 0.6666666666666666,
              "duration": 0.30625
            },
            {
              "pitch": 64,
              "velocity": 69,
              "position": 0.6666666666666666,
              "duration": 0.30625
            },
            {
              "pitch": 59,
              "velocity": 74,
              "position": 1,
              "duration": 0.525
            },
            {
              "pitch": 67,
              "velocity": 92,
              "position": 1,
              "duration": 0.6395833333333333
            },
            {
              "pitch": 64,
              "velocity": 67,
              "position": 1,
              "duration": 0.6395833333333333
            },
            {
              "pitch": 59,
              "velocity": 43,
              "position": 1.55,
              "duration": 0.42083333333333334
            },
            {
              "pitch": 67,
              "velocity": 65,
              "position": 1.6666666666666667,
              "duration": 0.30625
            },
            {
              "pitch": 64,
              "velocity": 55,
              "position": 1.6666666666666667,
              "duration": 0.30625
            },
            {
              "pitch": 59,
              "velocity": 53,
              "position": 2,
              "duration": 0.525
            },
            {
              "pitch": 67,
              "velocity": 58,
              "position": 2,
              "duration": 0.6395833333333333
            },
            {
              "pitch": 64,
              "velocity": 40,
              "position": 2,
              "duration": 0.6395833333333333
            },
            {
              "pitch": 59,
              "velocity": 65,
              "position": 2.55,
              "duration": 0.42083333333333334
            },
            {
              "pitch": 67,
              "velocity": 69,
              "position": 2.6666666666666665,
              "duration": 0.30625
            },
            {
              "pitch": 64,
              "velocity": 76,
              "position": 2.6666666666666665,
              "duration": 0.30625
            },
            {
              "pitch": 59,
              "velocity": 74,
              "position": 3,
              "duration": 0.525
            },
            {
              "pitch": 67,
              "velocity": 99,
              "position": 3,
              "duration": 0.6395833333333333
            },
            {
              "pitch": 64,
              "velocity": 99,
              "position": 3,
              "duration": 0.6395833333333333
            },
            {
              "pitch": 59,
              "velocity": 61,
              "position": 3.55,
              "duration": 0.30625
            },
            {
              "pitch": 67,
              "velocity": 58,
              "position": 3.6666666666666665,
              "duration": 0.30625
            },
            {
              "pitch": 64,
              "velocity": 58,
              "position": 3.6666666666666665,
              "duration": 0.30625
            },
            {
              "pitch": 59,
              "velocity": 54,
              "position": 3.8854166666666665,
              "duration": 0.6395833333333333
            },
            {
              "pitch": 67,
              "velocity": 40,
              "position": 4,
              "duration": 0.6395833333333333
            },
            {
              "pitch": 64,
              "velocity": 34,
              "position": 4,
              "duration": 0.6395833333333333
            },
            {
              "pitch": 59,
              "velocity": 54,
              "position": 4.552083333333333,
              "duration": 0.42083333333333334
            },
            {
              "pitch": 67,
              "velocity": 61,
              "position": 4.666666666666667,
              "duration": 0.30625
            },
            {
              "pitch": 64,
              "velocity": 69,
              "position": 4.666666666666667,
              "duration": 0.30625
            },
            {
              "pitch": 59,
              "velocity": 79,
              "position": 5,
              "duration": 0.5270833333333333
            },
            {
              "pitch": 67,
              "velocity": 107,
              "position": 5,
              "duration": 0.6395833333333333
            },
            {
              "pitch": 64,
              "velocity": 99,
              "position": 5,
              "duration": 0.6395833333333333
            },
            {
              "pitch": 59,
              "velocity": 55,
              "position": 5.552083333333333,
              "duration": 0.42083333333333334
            },
            {
              "pitch": 67,
              "velocity": 65,
              "position": 5.666666666666667,
              "duration": 0.30625
            },
            {
              "pitch": 64,
              "velocity": 71,
              "position": 5.666666666666667,
              "duration": 0.30625
            },
            {
              "pitch": 59,
              "velocity": 53,
              "position": 6,
              "duration": 0.5270833333333333
            },
            {
              "pitch": 67,
              "velocity": 48,
              "position": 6,
              "duration": 0.6395833333333333
            },
            {
              "pitch": 64,
              "velocity": 53,
              "position": 6,
              "duration": 0.6395833333333333
            },
            {
              "pitch": 59,
              "velocity": 55,
              "position": 6.552083333333333,
              "duration": 0.30625
            },
            {
              "pitch": 67,
              "velocity": 76,
              "position": 6.666666666666667,
              "duration": 0.30625
            },
            {
              "pitch": 64,
              "velocity": 79,
              "position": 6.666666666666667,
              "duration": 0.30625
            },
            {
              "pitch": 59,
              "velocity": 59,
              "position": 6.885416666666667,
              "duration": 0.30625
            },
            {
              "pitch": 67,
              "velocity": 107,
              "position": 7,
              "duration": 0.30625
            },
            {
              "pitch": 64,
              "velocity": 95,
              "position": 7,
              "duration": 0.30625
            },
            {
              "pitch": 59,
              "velocity": 54,
              "position": 7.21875,
              "duration": 0.30625
            },
            {
              "pitch": 67,
              "velocity": 65,
              "position": 7.333333333333333,
              "duration": 0.30625
            },
            {
              "pitch": 64,
              "velocity": 56,
              "position": 7.333333333333333,
              "duration": 0.30625
            },
            {
              "pitch": 59,
              "velocity": 54,
              "position": 7.552083333333333,
              "duration": 0.42083333333333334
            },
            {
              "pitch": 67,
              "velocity": 61,
              "position": 7.666666666666667,
              "duration": 0.30625
            },
            {
              "pitch": 64,
              "velocity": 67,
              "position": 7.666666666666667,
              "duration": 0.30625
            }
          ]
        }
      }
    },
    "Fill_In_AA": {
      "type": "Fill_In_AA",
      "sizeInBeats": 4,
      "channels": {
        "1": {
          "ctab": {
            "srcChannel": 1,
            "name": "Bass B",
            "accType": "BASS",
            "editable": false,
            "mutedNotes": [],
            "mutedChords": [
              "1+2+5",
              "sus4",
              "1+5",
              "1+8",
              "Maj7aug",
              "7(#9)",
              "7(b13)",
              "7(b9)",
              "7(13)",
              "7#11",
              "7(9)",
              "7b5",
              "7sus4",
              "7th",
              "dim7",
              "min7(11)",
              "min7(9)",
              "min7",
              "min6",
              "Maj6(9)",
              "Maj7(9)",
              "Maj(9)",
              "Maj7#11",
              "Maj7",
              "Maj6",
              "Maj"
            ],
            "autoStart": false,
            "sourceChordNote": 0,
            "sourceChordType": "Maj7",
            "ctb2Low": null,
            "ctb2Main": {
              "ntr": "ROOT_TRANSPOSITION",
              "ntt": "MELODY",
              "bassOn": true,
              "chordRootUpperLimit": 8,
              "noteLowLimit": 28,
              "noteHighLimit": 127,
              "rtr": "PITCH_SHIFT_TO_ROOT"
            },
            "ctb2High": null,
            "ctb2MiddleLowPitch": 0,
            "ctb2MiddleHighPitch": 127
          },
          "notes": [
            {
              "pitch": 24,
              "velocity": 70,
              "position": 0,
              "duration": 0.5875
            },
            {
              "pitch": 24,
              "velocity": 59,
              "position": 0.6666666666666666,
              "duration": 0.25416666666666665
            },
            {
              "pitch": 24,
              "velocity": 70,
              "position": 1,
              "duration": 0.2520833333333333
            },
            {
              "pitch": 24,
              "velocity": 59,
              "position": 1.33125,
              "duration": 0.30625
            },
            {
              "pitch": 24,
              "velocity": 59,
              "position": 1.6666666666666667,
              "duration": 0.30625
            },
            {
              "pitch": 24,
              "velocity": 70,
              "position": 2,
              "duration": 0.30625
            },
            {
              "pitch": 24,
              "velocity": 59,
              "position": 2.33125,
              "duration": 0.30625
            },
            {
              "pitch": 31,
              "velocity": 59,
              "position": 2.6666666666666665,
              "duration": 0.30625
            },
            {
              "pitch": 36,
              "velocity": 70,
              "position": 3,
              "duration": 0.30625
            },
            {
              "pitch": 31,
              "velocity": 59,
              "position": 3.33125,
              "duration": 0.30625
            },
            {
              "pitch": 28,
              "velocity": 59,
              "position": 3.6666666666666665,
              "duration": 0.30625
            }
          ]
        },
        "3": {
          "ctab": {
            "srcChannel": 3,
            "name": "Pno RH S",
            "accType": "CHORD2",
            "editable": false,
            "mutedNotes": [],
            "mutedChords": [
              "1+2+5",
              "sus4",
              "1+5",
              "1+8",
              "7aug",
              "Maj7aug",
              "7(#9)",
              "7(b13)",
              "7(b9)",
              "7(13)",
              "7#11",
              "7(9)",
              "7b5",
              "7sus4",
              "7th",
              "dim7",
              "dim",
              "minMaj7(9)",
              "minMaj7",
              "min7(11)",
              "min7(9)",
              "min(9)",
              "m7b5",
              "min7",
              "min6",
              "aug",
              "Maj6(9)",
              "Maj7(9)",
              "Maj(9)",
              "Maj7#11",
              "Maj7",
              "Maj6"
            ],
            "autoStart": false,
            "sourceChordNote": 0,
            "sourceChordType": "Maj7",
            "ctb2Low": null,
            "ctb2Main": {
              "ntr": "ROOT_TRANSPOSITION",
              "ntt": "DORIAN_5",
              "bassOn": false,
              "chordRootUpperLimit": 11,
              "noteLowLimit": 54,
              "noteHighLimit": 79,
              "rtr": "PITCH_SHIFT"
            },
            "ctb2High": null,
            "ctb2MiddleLowPitch": 0,
            "ctb2MiddleHighPitch": 127
          },
          "notes": [
            {
              "pitch": 43,
              "velocity": 71,
              "position": 0,
              "duration": 0.31666666666666665
            },
            {
              "pitch": 52,
              "velocity": 59,
              "position": 0,
              "duration": 0.31666666666666665
            },
            {
              "pitch": 48,
              "velocity": 61,
              "position": 0,
              "duration": 0.31666666666666665
            },
            {
              "pitch": 46,
              "velocity": 61,
              "position": 0,
              "duration": 0.31666666666666665
            },
            {
              "pitch": 43,
              "velocity": 54,
              "position": 0.3333333333333333,
              "duration": 0.31875
            },
            {
              "pitch": 52,
              "velocity": 57,
              "position": 0.3333333333333333,
              "duration": 0.31875
            },
            {
              "pitch": 48,
              "velocity": 41,
              "position": 0.3333333333333333,
              "duration": 0.31875
            },
            {
              "pitch": 46,
              "velocity": 41,
              "position": 0.3333333333333333,
              "duration": 0.31875
            },
            {
              "pitch": 43,
              "velocity": 45,
              "position": 0.6645833333333333,
              "duration": 0.32083333333333336
            },
            {
              "pitch": 52,
              "velocity": 45,
              "position": 0.6645833333333333,
              "duration": 0.32083333333333336
            },
            {
              "pitch": 48,
              "velocity": 42,
              "position": 0.6645833333333333,
              "duration": 0.32083333333333336
            },
            {
              "pitch": 46,
              "velocity": 42,
              "position": 0.6645833333333333,
              "duration": 0.32083333333333336
            },
            {
              "pitch": 43,
              "velocity": 57,
              "position": 1,
              "duration": 0.31666666666666665
            },
            {
              "pitch": 52,
              "velocity": 60,
              "position": 1,
              "duration": 0.31666666666666665
            },
            {
              "pitch": 48,
              "velocity": 47,
              "position": 1,
              "duration": 0.31666666666666665
            },
            {
              "pitch": 46,
              "velocity": 47,
              "position": 1,
              "duration": 0.31666666666666665
            },
            {
              "pitch": 43,
              "velocity": 42,
              "position": 1.3333333333333333,
              "duration": 0.31875
            },
            {
              "pitch": 52,
              "velocity": 41,
              "position": 1.3333333333333333,
              "duration": 0.31875
            },
            {
              "pitch": 48,
              "velocity": 36,
              "position": 1.3333333333333333,
              "duration": 0.31875
            },
            {
              "pitch": 46,
              "velocity": 36,
              "position": 1.3333333333333333,
              "duration": 0.31875
            },
            {
              "pitch": 43,
              "velocity": 50,
              "position": 1.6645833333333333,
              "duration": 0.32083333333333336
            },
            {
              "pitch": 52,
              "velocity": 57,
              "position": 1.6645833333333333,
              "duration": 0.32083333333333336
            },
            {
              "pitch": 48,
              "velocity": 52,
              "position": 1.6645833333333333,
              "duration": 0.32083333333333336
            },
            {
              "pitch": 46,
              "velocity": 52,
              "position": 1.6645833333333333,
              "duration": 0.32083333333333336
            },
            {
              "pitch": 43,
              "velocity": 49,
              "position": 2,
              "duration": 0.31666666666666665
            },
            {
              "pitch": 52,
              "velocity": 42,
              "position": 2,
              "duration": 0.31666666666666665
            },
            {
              "pitch": 48,
              "velocity": 47,
              "position": 2,
              "duration": 0.31666666666666665
            },
            {
              "pitch": 46,
              "velocity": 47,
              "position": 2,
              "duration": 0.31666666666666665
            },
            {
              "pitch": 78,
              "velocity": 94,
              "position": 2.3333333333333335,
              "duration": 0.027083333333333334
            },
            {
              "pitch": 43,
              "velocity": 49,
              "position": 2.3333333333333335,
              "duration": 0.31875
            },
            {
              "pitch": 52,
              "velocity": 36,
              "position": 2.3333333333333335,
              "duration": 0.31875
            },
            {
              "pitch": 46,
              "velocity": 38,
              "position": 2.3333333333333335,
              "duration": 0.31875
            },
            {
              "pitch": 48,
              "velocity": 38,
              "position": 2.3333333333333335,
              "duration": 0.31875
            },
            {
              "pitch": 79,
              "velocity": 79,
              "position": 2.375,
              "duration": 0.5666666666666667
            },
            {
              "pitch": 84,
              "velocity": 79,
              "position": 2.3333333333333335,
              "duration": 0.6104166666666667
            },
            {
              "pitch": 48,
              "velocity": 42,
              "position": 2.6645833333333333,
              "duration": 0.32083333333333336
            },
            {
              "pitch": 46,
              "velocity": 42,
              "position": 2.6645833333333333,
              "duration": 0.32083333333333336
            },
            {
              "pitch": 52,
              "velocity": 43,
              "position": 2.6645833333333333,
              "duration": 0.32083333333333336
            },
            {
              "pitch": 78,
              "velocity": 98,
              "position": 3,
              "duration": 0.027083333333333334
            },
            {
              "pitch": 43,
              "velocity": 52,
              "position": 2.6645833333333333,
              "duration": 0.5416666666666666
            },
            {
              "pitch": 77,
              "velocity": 84,
              "position": 3.0395833333333333,
              "duration": 0.27708333333333335
            },
            {
              "pitch": 84,
              "velocity": 84,
              "position": 3,
              "duration": 0.31666666666666665
            },
            {
              "pitch": 46,
              "velocity": 52,
              "position": 3,
              "duration": 0.31666666666666665
            },
            {
              "pitch": 52,
              "velocity": 45,
              "position": 3,
              "duration": 0.31666666666666665
            },
            {
              "pitch": 48,
              "velocity": 52,
              "position": 3,
              "duration": 0.31666666666666665
            },
            {
              "pitch": 75,
              "velocity": 84,
              "position": 3.3333333333333335,
              "duration": 0.19375
            },
            {
              "pitch": 43,
              "velocity": 64,
              "position": 3.21875,
              "duration": 0.31666666666666665
            },
            {
              "pitch": 53,
              "velocity": 68,
              "position": 3.3333333333333335,
              "duration": 0.31875
            },
            {
              "pitch": 45,
              "velocity": 76,
              "position": 3.3333333333333335,
              "duration": 0.31875
            },
            {
              "pitch": 48,
              "velocity": 76,
              "position": 3.3333333333333335,
              "duration": 0.31875
            },
            {
              "pitch": 43,
              "velocity": 68,
              "position": 3.5520833333333335,
              "duration": 0.43333333333333335
            },
            {
              "pitch": 72,
              "velocity": 93,
              "position": 3.6645833333333333,
              "duration": 0.32083333333333336
            },
            {
              "pitch": 52,
              "velocity": 68,
              "position": 3.6645833333333333,
              "duration": 0.32083333333333336
            },
            {
              "pitch": 48,
              "velocity": 82,
              "position": 3.6645833333333333,
              "duration": 0.32083333333333336
            }
          ]
        },
        "5": {
          "ctab": {
            "srcChannel": 5,
            "name": "Tele S M",
            "accType": "PHRASE1",
            "editable": false,
            "mutedNotes": [],
            "mutedChords": [
              "1+2+5",
              "sus4",
              "1+5",
              "1+8",
              "7aug",
              "Maj7aug",
              "7(#9)",
              "7(b13)",
              "7(b9)",
              "7(13)",
              "7#11",
              "7(9)",
              "7b5",
              "7sus4",
              "7th",
              "dim7",
              "dim",
              "minMaj7(9)",
              "minMaj7",
              "min7(11)",
              "min7(9)",
              "min(9)",
              "m7b5",
              "min7",
              "min6",
              "min",
              "aug",
              "Maj6(9)",
              "Maj7(9)",
              "Maj(9)",
              "Maj7#11",
              "Maj7",
              "Maj6"
            ],
            "autoStart": false,
            "sourceChordNote": 0,
            "sourceChordType": "Maj7",
            "ctb2Low": null,
            "ctb2Main": {
              "ntr": "ROOT_TRANSPOSITION",
              "ntt": "DORIAN_5",
              "bassOn": false,
              "chordRootUpperLimit": 2,
              "noteLowLimit": 0,
              "noteHighLimit": 127,
              "rtr": "PITCH_SHIFT"
            },
            "ctb2High": null,
            "ctb2MiddleLowPitch": 0,
            "ctb2MiddleHighPitch": 127
          },
          "notes": [
            {
              "pitch": 57,
              "velocity": 116,
              "position": 0.3333333333333333,
              "duration": 0.30625
            },
            {
              "pitch": 60,
              "velocity": 17,
              "position": 0.6645833333333333,
              "duration": 0.13958333333333334
            },
            {
              "pitch": 62,
              "velocity": 36,
              "position": 1,
              "duration": 0.30416666666666664
            },
            {
              "pitch": 57,
              "velocity": 2,
              "position": 1.3333333333333333,
              "duration": 0.30625
            },
            {
              "pitch": 60,
              "velocity": 26,
              "position": 1.6645833333333333,
              "duration": 2.2645833333333334
            }
          ]
        },
        "7": {
          "ctab": {
            "srcChannel": 7,
            "name": "Tele S m",
            "accType": "PHRASE1",
            "editable": false,
            "mutedNotes": [],
            "mutedChords": [
              "1+2+5",
              "sus4",
              "1+5",
              "1+8",
              "7aug",
              "Maj7aug",
              "7(#9)",
              "7(b13)",
              "7(b9)",
              "7(13)",
              "7#11",
              "7(9)",
              "7b5",
              "7sus4",
              "7th",
              "dim7",
              "dim",
              "minMaj7(9)",
              "minMaj7",
              "min7(11)",
              "min7(9)",
              "min(9)",
              "m7b5",
              "min7",
              "min6",
              "aug",
              "Maj6(9)",
              "Maj7(9)",
              "Maj(9)",
              "Maj7#11",
              "Maj7",
              "Maj6",
              "Maj"
            ],
            "autoStart": false,
            "sourceChordNote": 0,
            "sourceChordType": "Maj7",
            "ctb2Low": null,
            "ctb2Main": {
              "ntr": "ROOT_TRANSPOSITION",
              "ntt": "DORIAN_5",
              "bassOn": false,
              "chordRootUpperLimit": 2,
              "noteLowLimit": 0,
              "noteHighLimit": 127,
              "rtr": "PITCH_SHIFT"
            },
            "ctb2High": null,
            "ctb2MiddleLowPitch": 0,
            "ctb2MiddleHighPitch": 127
          },
          "notes": [
            {
              "pitch": 58,
              "velocity": 116,
              "position": 0.3333333333333333,
              "duration": 0.30625
            },
            {
              "pitch": 60,
              "velocity": 17,
              "position": 0.6645833333333333,
              "duration": 0.13958333333333334
            },
            {
              "pitch": 63,
              "velocity": 36,
              "position": 1,
              "duration": 0.30416666666666664
            },
            {
              "pitch": 58,
              "velocity": 3,
              "position": 1.3333333333333333,
              "duration": 0.30625
            },
            {
              "pitch": 60,
              "velocity": 26,
              "position": 1.6645833333333333,
              "duration": 2.2645833333333334
            }
          ]
        },
        "8": {
          "ctab": {
            "srcChannel": 8,
            "name": "AddDrum",
            "accType": "SUBRHYTHM",
            "editable": true,
            "mutedNotes": [],
            "mutedChords": [],
            "autoStart": true,
            "sourceChordNote": 0,
            "sourceChordType": "Maj7",
            "ctb2Low": null,
            "ctb2Main": {
              "ntr": "ROOT_FIXED",
              "ntt": "BYPASS",
              "bassOn": false,
              "chordRootUpperLimit": 6,
              "noteLowLimit": 0,
              "noteHighLimit": 127,
              "rtr": "PITCH_SHIFT"
            },
            "ctb2High": null,
            "ctb2MiddleLowPitch": 0,
            "ctb2MiddleHighPitch": 127
          },
          "notes": [
            {
              "pitch": 54,
              "velocity": 70,
              "position": 3,
              "duration": 0.00625
            }
          ]
        },
        "9": {
          "ctab": {
            "srcChannel": 9,
            "name": "MainDrum",
            "accType": "RHYTHM",
            "editable": true,
            "mutedNotes": [],
            "mutedChords": [],
            "autoStart": true,
            "sourceChordNote": 0,
            "sourceChordType": "Maj7",
            "ctb2Low": null,
            "ctb2Main": {
              "ntr": "ROOT_FIXED",
              "ntt": "BYPASS",
              "bassOn": false,
              "chordRootUpperLimit": 6,
              "noteLowLimit": 0,
              "noteHighLimit": 127,
              "rtr": "PITCH_SHIFT"
            },
            "ctb2High": null,
            "ctb2MiddleLowPitch": 0,
            "ctb2MiddleHighPitch": 127
          },
          "notes": [
            {
              "pitch": 33,
              "velocity": 86,
              "position": 0,
              "duration": 0.00625
            },
            {
              "pitch": 42,
              "velocity": 80,
              "position": 0,
              "duration": 0.00625
            },
            {
              "pitch": 42,
              "velocity": 38,
              "position": 0.33125,
              "duration": 0.00625
            },
            {
              "pitch": 42,
              "velocity": 62,
              "position": 0.6666666666666666,
              "duration": 0.00625
            },
            {
              "pitch": 37,
              "velocity": 92,
              "position": 1,
              "duration": 0.00625
            },
            {
              "pitch": 42,
              "velocity": 80,
              "position": 1,
              "duration": 0.00625
            },
            {
              "pitch": 46,
              "velocity": 30,
              "position": 1.33125,
              "duration": 0.00625
            },
            {
              "pitch": 33,
              "velocity": 64,
              "position": 1.6666666666666667,
              "duration": 0.00625
            },
            {
              "pitch": 46,
              "velocity": 40,
              "position": 1.6666666666666667,
              "duration": 0.00625
            },
            {
              "pitch": 33,
              "velocity": 86,
              "position": 2,
              "duration": 0.00625
            },
            {
              "pitch": 46,
              "velocity": 80,
              "position": 2,
              "duration": 0.00625
            },
            {
              "pitch": 45,
              "velocity": 40,
              "position": 2.33125,
              "duration": 0.00625
            },
            {
              "pitch": 45,
              "velocity": 70,
              "position": 2.6666666666666665,
              "duration": 0.00625
            },
            {
              "pitch": 37,
              "velocity": 92,
              "position": 3,
              "duration": 0.00625
            },
            {
              "pitch": 45,
              "velocity": 94,
              "position": 3,
              "duration": 0.00625
            },
            {
              "pitch": 42,
              "velocity": 80,
              "position": 3,
              "duration": 0.00625
            },
            {
              "pitch": 33,
              "velocity": 64,
              "position": 3.33125,
              "duration": 0.00625
            },
            {
              "pitch": 43,
              "velocity": 70,
              "position": 3.33125,
              "duration": 0.00625
            },
            {
              "pitch": 33,
              "velocity": 64,
              "position": 3.6666666666666665,
              "duration": 0.00625
            },
            {
              "pitch": 41,
              "velocity": 86,
              "position": 3.6666666666666665,
              "duration": 0.00625
            },
            {
              "pitch": 57,
              "velocity": 72,
              "position": 3.9875,
              "duration": 0.00625
            }
          ]
        },
        "10": {
          "ctab": {
            "srcChannel": 10,
            "name": "Bass A",
            "accType": "BASS",
            "editable": false,
            "mutedNotes": [],
            "mutedChords": [
              "7aug",
              "dim",
              "minMaj7(9)",
              "minMaj7",
              "min(9)",
              "m7b5",
              "min",
              "aug"
            ],
            "autoStart": false,
            "sourceChordNote": 0,
            "sourceChordType": "Maj7",
            "ctb2Low": null,
            "ctb2Main": {
              "ntr": "ROOT_TRANSPOSITION",
              "ntt": "MELODY",
              "bassOn": true,
              "chordRootUpperLimit": 8,
              "noteLowLimit": 28,
              "noteHighLimit": 127,
              "rtr": "PITCH_SHIFT_TO_ROOT"
            },
            "ctb2High": null,
            "ctb2MiddleLowPitch": 0,
            "ctb2MiddleHighPitch": 127
          },
          "notes": [
            {
              "pitch": 24,
              "velocity": 70,
              "position": 0,
              "duration": 0.5875
            },
            {
              "pitch": 24,
              "velocity": 59,
              "position": 0.6666666666666666,
              "duration": 0.25416666666666665
            },
            {
              "pitch": 24,
              "velocity": 70,
              "position": 1,
              "duration": 0.2520833333333333
            },
            {
              "pitch": 24,
              "velocity": 59,
              "position": 1.33125,
              "duration": 0.30625
            },
            {
              "pitch": 24,
              "velocity": 59,
              "position": 1.6666666666666667,
              "duration": 0.30625
            },
            {
              "pitch": 24,
              "velocity": 70,
              "position": 2,
              "duration": 0.30625
            },
            {
              "pitch": 24,
              "velocity": 59,
              "position": 2.33125,
              "duration": 0.30625
            },
            {
              "pitch": 31,
              "velocity": 59,
              "position": 2.6666666666666665,
              "duration": 0.30625
            },
            {
              "pitch": 33,
              "velocity": 70,
              "position": 3,
              "duration": 0.30625
            },
            {
              "pitch": 36,
              "velocity": 59,
              "position": 3.33125,
              "duration": 0.30625
            },
            {
              "pitch": 33,
              "velocity": 59,
              "position": 3.6666666666666665,
              "duration": 0.30625
            }
          ]
        },
        "11": {
          "ctab": {
            "srcChannel": 11,
            "name": "SolidGtr",
            "accType": "CHORD1",
            "editable": false,
            "mutedNotes": [],
            "mutedChords": [],
            "autoStart": false,
            "sourceChordNote": 0,
            "sourceChordType": "Maj7",
            "ctb2Low": null,
            "ctb2Main": {
              "ntr": "GUITAR",
              "ntt": "ALL_PURPOSE",
              "bassOn": false,
              "chordRootUpperLimit": 7,
              "noteLowLimit": 0,
              "noteHighLimit": 79,
              "rtr": "PITCH_SHIFT"
            },
            "ctb2High": null,
            "ctb2MiddleLowPitch": 0,
            "ctb2MiddleHighPitch": 127
          },
          "notes": [
            {
              "pitch": 65,
              "velocity": 58,
              "position": 1,
              "duration": 0.035416666666666666
            },
            {
              "pitch": 67,
              "velocity": 58,
              "position": 1,
              "duration": 0.035416666666666666
            },
            {
              "pitch": 69,
              "velocity": 58,
              "position": 1.0083333333333333,
              "duration": 0.035416666666666666
            },
            {
              "pitch": 71,
              "velocity": 58,
              "position": 1.0208333333333333,
              "duration": 0.03333333333333333
            },
            {
              "pitch": 100,
              "velocity": 88,
              "position": 1,
              "duration": 0.19166666666666668
            },
            {
              "pitch": 124,
              "velocity": 70,
              "position": 2.1166666666666667,
              "duration": 0.19166666666666668
            },
            {
              "pitch": 106,
              "velocity": 40,
              "position": 2.3333333333333335,
              "duration": 0.19166666666666668
            },
            {
              "pitch": 67,
              "velocity": 30,
              "position": 2.3333333333333335,
              "duration": 0.30625
            },
            {
              "pitch": 65,
              "velocity": 30,
              "position": 2.3333333333333335,
              "duration": 0.30625
            },
            {
              "pitch": 69,
              "velocity": 30,
              "position": 2.34375,
              "duration": 0.30416666666666664
            },
            {
              "pitch": 71,
              "velocity": 30,
              "position": 2.3520833333333333,
              "duration": 0.30833333333333335
            },
            {
              "pitch": 98,
              "velocity": 55,
              "position": 2.6645833333333333,
              "duration": 0.19166666666666668
            },
            {
              "pitch": 65,
              "velocity": 40,
              "position": 2.6645833333333333,
              "duration": 0.30833333333333335
            },
            {
              "pitch": 67,
              "velocity": 40,
              "position": 2.6645833333333333,
              "duration": 0.3104166666666667
            },
            {
              "pitch": 69,
              "velocity": 40,
              "position": 2.6770833333333335,
              "duration": 0.30625
            },
            {
              "pitch": 71,
              "velocity": 40,
              "position": 2.6875,
              "duration": 0.30416666666666664
            },
            {
              "pitch": 100,
              "velocity": 127,
              "position": 3,
              "duration": 0.19166666666666668
            },
            {
              "pitch": 67,
              "velocity": 118,
              "position": 3,
              "duration": 0.9416666666666667
            },
            {
              "pitch": 65,
              "velocity": 118,
              "position": 3,
              "duration": 0.9416666666666667
            },
            {
              "pitch": 69,
              "velocity": 119,
              "position": 3.0083333333333333,
              "duration": 0.9416666666666667
            },
            {
              "pitch": 71,
              "velocity": 119,
              "position": 3.0208333333333335,
              "duration": 0.9416666666666667
            }
          ]
        },
        "12": {
          "ctab": {
            "srcChannel": 12,
            "name": "Pno RH",
            "accType": "CHORD2",
            "editable": false,
            "mutedNotes": [],
            "mutedChords": [
              "min",
              "Maj"
            ],
            "autoStart": false,
            "sourceChordNote": 0,
            "sourceChordType": "Maj7",
            "ctb2Low": null,
            "ctb2Main": {
              "ntr": "ROOT_FIXED",
              "ntt": "CHORD",
              "bassOn": false,
              "chordRootUpperLimit": 7,
              "noteLowLimit": 0,
              "noteHighLimit": 127,
              "rtr": "PITCH_SHIFT"
            },
            "ctb2High": null,
            "ctb2MiddleLowPitch": 0,
            "ctb2MiddleHighPitch": 127
          },
          "notes": [
            {
              "pitch": 55,
              "velocity": 61,
              "position": 0,
              "duration": 0.31666666666666665
            },
            {
              "pitch": 64,
              "velocity": 59,
              "position": 0,
              "duration": 0.31666666666666665
            },
            {
              "pitch": 59,
              "velocity": 61,
              "position": 0,
              "duration": 0.31666666666666665
            },
            {
              "pitch": 55,
              "velocity": 41,
              "position": 0.3333333333333333,
              "duration": 0.31875
            },
            {
              "pitch": 64,
              "velocity": 57,
              "position": 0.3333333333333333,
              "duration": 0.31875
            },
            {
              "pitch": 59,
              "velocity": 41,
              "position": 0.3333333333333333,
              "duration": 0.31875
            },
            {
              "pitch": 55,
              "velocity": 42,
              "position": 0.6645833333333333,
              "duration": 0.32083333333333336
            },
            {
              "pitch": 64,
              "velocity": 45,
              "position": 0.6645833333333333,
              "duration": 0.32083333333333336
            },
            {
              "pitch": 59,
              "velocity": 42,
              "position": 0.6645833333333333,
              "duration": 0.32083333333333336
            },
            {
              "pitch": 55,
              "velocity": 47,
              "position": 1,
              "duration": 0.31666666666666665
            },
            {
              "pitch": 64,
              "velocity": 60,
              "position": 1,
              "duration": 0.31666666666666665
            },
            {
              "pitch": 59,
              "velocity": 47,
              "position": 1,
              "duration": 0.31666666666666665
            },
            {
              "pitch": 55,
              "velocity": 36,
              "position": 1.3333333333333333,
              "duration": 0.31875
            },
            {
              "pitch": 64,
              "velocity": 41,
              "position": 1.3333333333333333,
              "duration": 0.31875
            },
            {
              "pitch": 59,
              "velocity": 36,
              "position": 1.3333333333333333,
              "duration": 0.31875
            },
            {
              "pitch": 55,
              "velocity": 52,
              "position": 1.6645833333333333,
              "duration": 0.32083333333333336
            },
            {
              "pitch": 64,
              "velocity": 57,
              "position": 1.6645833333333333,
              "duration": 0.32083333333333336
            },
            {
              "pitch": 59,
              "velocity": 52,
              "position": 1.6645833333333333,
              "duration": 0.32083333333333336
            },
            {
              "pitch": 55,
              "velocity": 47,
              "position": 2,
              "duration": 0.31666666666666665
            },
            {
              "pitch": 64,
              "velocity": 42,
              "position": 2,
              "duration": 0.31666666666666665
            },
            {
              "pitch": 59,
              "velocity": 47,
              "position": 2,
              "duration": 0.31666666666666665
            },
            {
              "pitch": 55,
              "velocity": 38,
              "position": 2.3333333333333335,
              "duration": 0.31875
            },
            {
              "pitch": 76,
              "velocity": 46,
              "position": 2.3333333333333335,
              "duration": 0.31875
            },
            {
              "pitch": 71,
              "velocity": 46,
              "position": 2.3333333333333335,
              "duration": 0.31875
            },
            {
              "pitch": 67,
              "velocity": 43,
              "position": 2.3333333333333335,
              "duration": 0.31875
            },
            {
              "pitch": 64,
              "velocity": 36,
              "position": 2.3333333333333335,
              "duration": 0.31875
            },
            {
              "pitch": 59,
              "velocity": 38,
              "position": 2.3333333333333335,
              "duration": 0.31875
            },
            {
              "pitch": 55,
              "velocity": 42,
              "position": 2.6645833333333333,
              "duration": 0.32083333333333336
            },
            {
              "pitch": 76,
              "velocity": 62,
              "position": 2.6645833333333333,
              "duration": 0.32083333333333336
            },
            {
              "pitch": 71,
              "velocity": 62,
              "position": 2.6645833333333333,
              "duration": 0.32083333333333336
            },
            {
              "pitch": 67,
              "velocity": 59,
              "position": 2.6645833333333333,
              "duration": 0.32083333333333336
            },
            {
              "pitch": 64,
              "velocity": 43,
              "position": 2.6645833333333333,
              "duration": 0.32083333333333336
            },
            {
              "pitch": 59,
              "velocity": 42,
              "position": 2.6645833333333333,
              "duration": 0.32083333333333336
            },
            {
              "pitch": 55,
              "velocity": 52,
              "position": 3,
              "duration": 0.31666666666666665
            },
            {
              "pitch": 76,
              "velocity": 85,
              "position": 3,
              "duration": 0.31666666666666665
            },
            {
              "pitch": 71,
              "velocity": 85,
              "position": 3,
              "duration": 0.31666666666666665
            },
            {
              "pitch": 67,
              "velocity": 83,
              "position": 3,
              "duration": 0.31666666666666665
            },
            {
              "pitch": 64,
              "velocity": 45,
              "position": 3,
              "duration": 0.31666666666666665
            },
            {
              "pitch": 59,
              "velocity": 52,
              "position": 3,
              "duration": 0.31666666666666665
            },
            {
              "pitch": 64,
              "velocity": 68,
              "position": 3.3333333333333335,
              "duration": 0.31875
            },
            {
              "pitch": 71,
              "velocity": 78,
              "position": 3.3333333333333335,
              "duration": 0.31875
            },
            {
              "pitch": 67,
              "velocity": 68,
              "position": 3.3333333333333335,
              "duration": 0.31875
            },
            {
              "pitch": 55,
              "velocity": 68,
              "position": 3.6645833333333333,
              "duration": 0.32083333333333336
            },
            {
              "pitch": 67,
              "velocity": 82,
              "position": 3.6645833333333333,
              "duration": 0.32083333333333336
            },
            {
              "pitch": 64,
              "velocity": 68,
              "position": 3.6645833333333333,
              "duration": 0.32083333333333336
            },
            {
              "pitch": 59,
              "velocity": 68,
              "position": 3.6645833333333333,
              "duration": 0.32083333333333336
            }
          ]
        },
        "14": {
          "ctab": {
            "srcChannel": 14,
            "name": "Tele",
            "accType": "PHRASE1",
            "editable": false,
            "mutedNotes": [],
            "mutedChords": [
              "min",
              "Maj"
            ],
            "autoStart": false,
            "sourceChordNote": 0,
            "sourceChordType": "Maj7",
            "ctb2Low": null,
            "ctb2Main": {
              "ntr": "ROOT_TRANSPOSITION",
              "ntt": "MELODY",
              "bassOn": false,
              "chordRootUpperLimit": 8,
              "noteLowLimit": 53,
              "noteHighLimit": 76,
              "rtr": "PITCH_SHIFT"
            },
            "ctb2High": null,
            "ctb2MiddleLowPitch": 0,
            "ctb2MiddleHighPitch": 127
          },
          "notes": [
            {
              "pitch": 52,
              "velocity": 16,
              "position": 0.6645833333333333,
              "duration": 3.2645833333333334
            },
            {
              "pitch": 55,
              "velocity": 116,
              "position": 0.3333333333333333,
              "duration": 3.597916666666667
            }
          ]
        }
      }
    },
    "Fill_In_BB": {
      "type": "Fill_In_BB",
      "sizeInBeats": 4,
      "channels": {
        "0": {
          "ctab": {
            "srcChannel": 0,
            "name": "Pno LH",
            "accType": "CHORD2",
            "editable": false,
            "mutedNotes": [],
            "mutedChords": [],
            "autoStart": false,
            "sourceChordNote": 0,
            "sourceChordType": "Maj7",
            "ctb2Low": null,
            "ctb2Main": {
              "ntr": "ROOT_TRANSPOSITION",
              "ntt": "MELODY",
              "bassOn": true,
              "chordRootUpperLimit": 8,
              "noteLowLimit": 0,
              "noteHighLimit": 127,
              "rtr": "PITCH_SHIFT_TO_ROOT"
            },
            "ctb2High": null,
            "ctb2MiddleLowPitch": 0,
            "ctb2MiddleHighPitch": 127
          },
          "notes": [
            {
              "pitch": 36,
              "velocity": 99,
              "position": 1.20625,
              "duration": 1.9875
            },
            {
              "pitch": 36,
              "velocity": 80,
              "position": 3.20625,
              "duration": 0.44375
            },
            {
              "pitch": 36,
              "velocity": 80,
              "position": 3.6666666666666665,
              "duration": 0.30833333333333335
            }
          ]
        },
        "1": {
          "ctab": {
            "srcChannel": 1,
            "name": "Bass B",
            "accType": "BASS",
            "editable": false,
            "mutedNotes": [],
            "mutedChords": [
              "1+2+5",
              "sus4",
              "1+5",
              "1+8",
              "Maj7aug",
              "7(#9)",
              "7(b13)",
              "7(b9)",
              "7(13)",
              "7#11",
              "7(9)",
              "7b5",
              "7sus4",
              "7th",
              "dim7",
              "min7(11)",
              "min7(9)",
              "min7",
              "min6",
              "Maj6(9)",
              "Maj7(9)",
              "Maj(9)",
              "Maj7#11",
              "Maj7",
              "Maj6",
              "Maj"
            ],
            "autoStart": false,
            "sourceChordNote": 0,
            "sourceChordType": "Maj7",
            "ctb2Low": null,
            "ctb2Main": {
              "ntr": "ROOT_TRANSPOSITION",
              "ntt": "MELODY",
              "bassOn": true,
              "chordRootUpperLimit": 8,
              "noteLowLimit": 28,
              "noteHighLimit": 127,
              "rtr": "PITCH_SHIFT_TO_ROOT"
            },
            "ctb2High": null,
            "ctb2MiddleLowPitch": 0,
            "ctb2MiddleHighPitch": 127
          },
          "notes": [
            {
              "pitch": 24,
              "velocity": 70,
              "position": 0,
              "duration": 0.5875
            },
            {
              "pitch": 24,
              "velocity": 59,
              "position": 0.6666666666666666,
              "duration": 0.25416666666666665
            },
            {
              "pitch": 24,
              "velocity": 70,
              "position": 1,
              "duration": 0.2520833333333333
            },
            {
              "pitch": 24,
              "velocity": 59,
              "position": 1.33125,
              "duration": 0.30625
            },
            {
              "pitch": 24,
              "velocity": 59,
              "position": 1.6666666666666667,
              "duration": 0.30625
            },
            {
              "pitch": 24,
              "velocity": 70,
              "position": 2,
              "duration": 0.30625
            },
            {
              "pitch": 24,
              "velocity": 59,
              "position": 2.33125,
              "duration": 0.30625
            },
            {
              "pitch": 31,
              "velocity": 59,
              "position": 2.6666666666666665,
              "duration": 0.30625
            },
            {
              "pitch": 36,
              "velocity": 70,
              "position": 3,
              "duration": 0.30625
            },
            {
              "pitch": 31,
              "velocity": 59,
              "position": 3.33125,
              "duration": 0.30625
            },
            {
              "pitch": 28,
              "velocity": 59,
              "position": 3.6666666666666665,
              "duration": 0.30625
            }
          ]
        },
        "3": {
          "ctab": {
            "srcChannel": 3,
            "name": "Pno RH S",
            "accType": "CHORD2",
            "editable": false,
            "mutedNotes": [],
            "mutedChords": [
              "1+2+5",
              "sus4",
              "1+5",
              "1+8",
              "7aug",
              "Maj7aug",
              "7(#9)",
              "7(b13)",
              "7(b9)",
              "7(13)",
              "7#11",
              "7(9)",
              "7b5",
              "7sus4",
              "7th",
              "dim7",
              "dim",
              "minMaj7(9)",
              "minMaj7",
              "min7(11)",
              "min7(9)",
              "min(9)",
              "m7b5",
              "min7",
              "min6",
              "aug",
              "Maj6(9)",
              "Maj7(9)",
              "Maj(9)",
              "Maj7#11",
              "Maj7",
              "Maj6"
            ],
            "autoStart": false,
            "sourceChordNote": 0,
            "sourceChordType": "Maj7",
            "ctb2Low": null,
            "ctb2Main": {
              "ntr": "ROOT_TRANSPOSITION",
              "ntt": "DORIAN_5",
              "bassOn": false,
              "chordRootUpperLimit": 11,
              "noteLowLimit": 58,
              "noteHighLimit": 79,
              "rtr": "PITCH_SHIFT"
            },
            "ctb2High": null,
            "ctb2MiddleLowPitch": 0,
            "ctb2MiddleHighPitch": 127
          },
          "notes": [
            {
              "pitch": 46,
              "velocity": 75,
              "position": 0,
              "duration": 0.31875
            },
            {
              "pitch": 55,
              "velocity": 82,
              "position": 0,
              "duration": 0.31875
            },
            {
              "pitch": 52,
              "velocity": 75,
              "position": 0,
              "duration": 0.31875
            },
            {
              "pitch": 48,
              "velocity": 65,
              "position": 0,
              "duration": 0.31875
            },
            {
              "pitch": 46,
              "velocity": 66,
              "position": 0.33125,
              "duration": 0.31875
            },
            {
              "pitch": 55,
              "velocity": 71,
              "position": 0.33125,
              "duration": 0.31875
            },
            {
              "pitch": 52,
              "velocity": 66,
              "position": 0.33125,
              "duration": 0.31875
            },
            {
              "pitch": 48,
              "velocity": 65,
              "position": 0.33125,
              "duration": 0.31875
            },
            {
              "pitch": 46,
              "velocity": 63,
              "position": 0.6666666666666666,
              "duration": 0.31875
            },
            {
              "pitch": 55,
              "velocity": 61,
              "position": 0.6666666666666666,
              "duration": 0.31875
            },
            {
              "pitch": 52,
              "velocity": 63,
              "position": 0.6666666666666666,
              "duration": 0.31875
            },
            {
              "pitch": 48,
              "velocity": 69,
              "position": 0.6666666666666666,
              "duration": 0.31875
            },
            {
              "pitch": 46,
              "velocity": 77,
              "position": 1,
              "duration": 0.31875
            },
            {
              "pitch": 55,
              "velocity": 82,
              "position": 1,
              "duration": 0.31875
            },
            {
              "pitch": 52,
              "velocity": 77,
              "position": 1,
              "duration": 0.31875
            },
            {
              "pitch": 48,
              "velocity": 77,
              "position": 1,
              "duration": 0.31875
            },
            {
              "pitch": 78,
              "velocity": 77,
              "position": 1.33125,
              "duration": 0.04791666666666667
            },
            {
              "pitch": 82,
              "velocity": 78,
              "position": 1.33125,
              "duration": 0.225
            },
            {
              "pitch": 74,
              "velocity": 77,
              "position": 1.33125,
              "duration": 0.225
            },
            {
              "pitch": 79,
              "velocity": 77,
              "position": 1.3854166666666667,
              "duration": 0.17291666666666666
            },
            {
              "pitch": 55,
              "velocity": 77,
              "position": 1.55,
              "duration": 0.1
            },
            {
              "pitch": 72,
              "velocity": 85,
              "position": 1.6666666666666667,
              "duration": 0.26666666666666666
            },
            {
              "pitch": 81,
              "velocity": 94,
              "position": 1.6666666666666667,
              "duration": 0.26666666666666666
            },
            {
              "pitch": 77,
              "velocity": 99,
              "position": 1.6666666666666667,
              "duration": 0.26666666666666666
            },
            {
              "pitch": 70,
              "velocity": 87,
              "position": 2,
              "duration": 0.225
            },
            {
              "pitch": 76,
              "velocity": 87,
              "position": 2,
              "duration": 0.225
            },
            {
              "pitch": 79,
              "velocity": 87,
              "position": 2,
              "duration": 0.225
            },
            {
              "pitch": 55,
              "velocity": 77,
              "position": 2.21875,
              "duration": 0.1
            },
            {
              "pitch": 69,
              "velocity": 66,
              "position": 2.33125,
              "duration": 0.26875
            },
            {
              "pitch": 74,
              "velocity": 77,
              "position": 2.33125,
              "duration": 0.26875
            },
            {
              "pitch": 77,
              "velocity": 77,
              "position": 2.33125,
              "duration": 0.26875
            },
            {
              "pitch": 75,
              "velocity": 96,
              "position": 2.6666666666666665,
              "duration": 0.04791666666666667
            },
            {
              "pitch": 76,
              "velocity": 83,
              "position": 2.70625,
              "duration": 0.13125
            },
            {
              "pitch": 67,
              "velocity": 84,
              "position": 2.6666666666666665,
              "duration": 0.18333333333333332
            },
            {
              "pitch": 72,
              "velocity": 86,
              "position": 2.6666666666666665,
              "duration": 0.18333333333333332
            },
            {
              "pitch": 48,
              "velocity": 77,
              "position": 2.55,
              "duration": 0.31875
            },
            {
              "pitch": 75,
              "velocity": 96,
              "position": 3,
              "duration": 0.04583333333333333
            },
            {
              "pitch": 48,
              "velocity": 77,
              "position": 2.8854166666666665,
              "duration": 0.31875
            },
            {
              "pitch": 65,
              "velocity": 75,
              "position": 3,
              "duration": 0.31875
            },
            {
              "pitch": 74,
              "velocity": 95,
              "position": 3.0416666666666665,
              "duration": 0.27708333333333335
            },
            {
              "pitch": 70,
              "velocity": 90,
              "position": 3,
              "duration": 0.31875
            },
            {
              "pitch": 65,
              "velocity": 69,
              "position": 3.33125,
              "duration": 0.15208333333333332
            },
            {
              "pitch": 72,
              "velocity": 69,
              "position": 3.33125,
              "duration": 0.15208333333333332
            },
            {
              "pitch": 69,
              "velocity": 69,
              "position": 3.33125,
              "duration": 0.15208333333333332
            },
            {
              "pitch": 48,
              "velocity": 77,
              "position": 3.21875,
              "duration": 0.31875
            },
            {
              "pitch": 48,
              "velocity": 77,
              "position": 3.55,
              "duration": 0.31875
            },
            {
              "pitch": 72,
              "velocity": 99,
              "position": 3.6666666666666665,
              "duration": 0.31875
            },
            {
              "pitch": 48,
              "velocity": 74,
              "position": 3.8854166666666665,
              "duration": 0.1
            },
            {
              "pitch": 67,
              "velocity": 99,
              "position": 3.6666666666666665,
              "duration": 0.31875
            },
            {
              "pitch": 64,
              "velocity": 96,
              "position": 3.6666666666666665,
              "duration": 0.31875
            }
          ]
        },
        "5": {
          "ctab": {
            "srcChannel": 5,
            "name": "Tele S M",
            "accType": "PHRASE1",
            "editable": false,
            "mutedNotes": [],
            "mutedChords": [
              "1+2+5",
              "sus4",
              "1+5",
              "1+8",
              "7aug",
              "Maj7aug",
              "7(#9)",
              "7(b13)",
              "7(b9)",
              "7(13)",
              "7#11",
              "7(9)",
              "7b5",
              "7sus4",
              "7th",
              "dim7",
              "dim",
              "minMaj7(9)",
              "minMaj7",
              "min7(11)",
              "min7(9)",
              "min(9)",
              "m7b5",
              "min7",
              "min6",
              "min",
              "aug",
              "Maj6(9)",
              "Maj7(9)",
              "Maj(9)",
              "Maj7#11",
              "Maj7",
              "Maj6"
            ],
            "autoStart": false,
            "sourceChordNote": 0,
            "sourceChordType": "Maj7",
            "ctb2Low": null,
            "ctb2Main": {
              "ntr": "ROOT_TRANSPOSITION",
              "ntt": "DORIAN_5",
              "bassOn": false,
              "chordRootUpperLimit": 4,
              "noteLowLimit": 0,
              "noteHighLimit": 127,
              "rtr": "PITCH_SHIFT"
            },
            "ctb2High": {
              "ntr": "ROOT_FIXED",
              "ntt": "BYPASS",
              "bassOn": false,
              "chordRootUpperLimit": 4,
              "noteLowLimit": 0,
              "noteHighLimit": 127,
              "rtr": "PITCH_SHIFT"
            },
            "ctb2MiddleLowPitch": 0,
            "ctb2MiddleHighPitch": 95
          },
          "notes": [
            {
              "pitch": 60,
              "velocity": 116,
              "position": 0.0020833333333333333,
              "duration": 0.9708333333333333
            },
            {
              "pitch": 55,
              "velocity": 36,
              "position": 1,
              "duration": 0.30625
            },
            {
              "pitch": 57,
              "velocity": 16,
              "position": 1.33125,
              "duration": 0.30625
            },
            {
              "pitch": 60,
              "velocity": 36,
              "position": 1.6666666666666667,
              "duration": 1.3041666666666667
            },
            {
              "pitch": 63,
              "velocity": 24,
              "position": 3,
              "duration": 0.6395833333333333
            },
            {
              "pitch": 62,
              "velocity": 16,
              "position": 3.6666666666666665,
              "duration": 0.30625
            }
          ]
        },
        "7": {
          "ctab": {
            "srcChannel": 7,
            "name": "Tele S m",
            "accType": "PHRASE1",
            "editable": false,
            "mutedNotes": [],
            "mutedChords": [
              "1+2+5",
              "sus4",
              "1+5",
              "1+8",
              "7aug",
              "Maj7aug",
              "7(#9)",
              "7(b13)",
              "7(b9)",
              "7(13)",
              "7#11",
              "7(9)",
              "7b5",
              "7sus4",
              "7th",
              "dim7",
              "dim",
              "minMaj7(9)",
              "minMaj7",
              "min7(11)",
              "min7(9)",
              "min(9)",
              "m7b5",
              "min7",
              "min6",
              "aug",
              "Maj6(9)",
              "Maj7(9)",
              "Maj(9)",
              "Maj7#11",
              "Maj7",
              "Maj6",
              "Maj"
            ],
            "autoStart": false,
            "sourceChordNote": 0,
            "sourceChordType": "Maj7",
            "ctb2Low": null,
            "ctb2Main": {
              "ntr": "ROOT_TRANSPOSITION",
              "ntt": "DORIAN_5",
              "bassOn": false,
              "chordRootUpperLimit": 4,
              "noteLowLimit": 0,
              "noteHighLimit": 127,
              "rtr": "PITCH_SHIFT"
            },
            "ctb2High": {
              "ntr": "ROOT_FIXED",
              "ntt": "BYPASS",
              "bassOn": false,
              "chordRootUpperLimit": 4,
              "noteLowLimit": 0,
              "noteHighLimit": 127,
              "rtr": "PITCH_SHIFT"
            },
            "ctb2MiddleLowPitch": 0,
            "ctb2MiddleHighPitch": 95
          },
          "notes": [
            {
              "pitch": 60,
              "velocity": 116,
              "position": 0,
              "duration": 0.9708333333333333
            },
            {
              "pitch": 55,
              "velocity": 36,
              "position": 1,
              "duration": 0.30625
            },
            {
              "pitch": 58,
              "velocity": 16,
              "position": 1.33125,
              "duration": 0.30625
            },
            {
              "pitch": 60,
              "velocity": 36,
              "position": 1.6666666666666667,
              "duration": 1.3041666666666667
            },
            {
              "pitch": 66,
              "velocity": 24,
              "position": 3,
              "duration": 0.6395833333333333
            },
            {
              "pitch": 65,
              "velocity": 16,
              "position": 3.6666666666666665,
              "duration": 0.30625
            }
          ]
        },
        "8": {
          "ctab": {
            "srcChannel": 8,
            "name": "AddDrum",
            "accType": "SUBRHYTHM",
            "editable": true,
            "mutedNotes": [],
            "mutedChords": [],
            "autoStart": true,
            "sourceChordNote": 0,
            "sourceChordType": "Maj7",
            "ctb2Low": null,
            "ctb2Main": {
              "ntr": "ROOT_FIXED",
              "ntt": "BYPASS",
              "bassOn": false,
              "chordRootUpperLimit": 6,
              "noteLowLimit": 0,
              "noteHighLimit": 127,
              "rtr": "PITCH_SHIFT"
            },
            "ctb2High": null,
            "ctb2MiddleLowPitch": 0,
            "ctb2MiddleHighPitch": 127
          },
          "notes": [
            {
              "pitch": 54,
              "velocity": 70,
              "position": 1,
              "duration": 0.00625
            },
            {
              "pitch": 54,
              "velocity": 70,
              "position": 3,
              "duration": 0.00625
            }
          ]
        },
        "9": {
          "ctab": {
            "srcChannel": 9,
            "name": "MainDrum",
            "accType": "RHYTHM",
            "editable": true,
            "mutedNotes": [],
            "mutedChords": [],
            "autoStart": true,
            "sourceChordNote": 0,
            "sourceChordType": "Maj7",
            "ctb2Low": null,
            "ctb2Main": {
              "ntr": "ROOT_FIXED",
              "ntt": "BYPASS",
              "bassOn": false,
              "chordRootUpperLimit": 6,
              "noteLowLimit": 0,
              "noteHighLimit": 127,
              "rtr": "PITCH_SHIFT"
            },
            "ctb2High": null,
            "ctb2MiddleLowPitch": 0,
            "ctb2MiddleHighPitch": 127
          },
          "notes": [
            {
              "pitch": 33,
              "velocity": 86,
              "position": 0,
              "duration": 0.00625
            },
            {
              "pitch": 42,
              "velocity": 80,
              "position": 0,
              "duration": 0.00625
            },
            {
              "pitch": 42,
              "velocity": 38,
              "position": 0.3333333333333333,
              "duration": 0.00625
            },
            {
              "pitch": 42,
              "velocity": 70,
              "position": 0.6645833333333333,
              "duration": 0.008333333333333333
            },
            {
              "pitch": 31,
              "velocity": 84,
              "position": 1,
              "duration": 0.00625
            },
            {
              "pitch": 42,
              "velocity": 80,
              "position": 1,
              "duration": 0.00625
            },
            {
              "pitch": 42,
              "velocity": 38,
              "position": 1.3333333333333333,
              "duration": 0.00625
            },
            {
              "pitch": 33,
              "velocity": 64,
              "position": 1.6645833333333333,
              "duration": 0.008333333333333333
            },
            {
              "pitch": 42,
              "velocity": 70,
              "position": 1.6645833333333333,
              "duration": 0.008333333333333333
            },
            {
              "pitch": 42,
              "velocity": 30,
              "position": 1.8833333333333333,
              "duration": 0.008333333333333333
            },
            {
              "pitch": 33,
              "velocity": 86,
              "position": 2,
              "duration": 0.00625
            },
            {
              "pitch": 42,
              "velocity": 94,
              "position": 2,
              "duration": 0.00625
            },
            {
              "pitch": 46,
              "velocity": 30,
              "position": 2.3333333333333335,
              "duration": 0.00625
            },
            {
              "pitch": 46,
              "velocity": 55,
              "position": 2.6645833333333333,
              "duration": 0.008333333333333333
            },
            {
              "pitch": 33,
              "velocity": 64,
              "position": 2.8833333333333333,
              "duration": 0.008333333333333333
            },
            {
              "pitch": 31,
              "velocity": 110,
              "position": 3,
              "duration": 0.00625
            },
            {
              "pitch": 33,
              "velocity": 64,
              "position": 3.3333333333333335,
              "duration": 0.00625
            },
            {
              "pitch": 45,
              "velocity": 80,
              "position": 3.3333333333333335,
              "duration": 0.00625
            },
            {
              "pitch": 33,
              "velocity": 64,
              "position": 3.6645833333333333,
              "duration": 0.008333333333333333
            },
            {
              "pitch": 43,
              "velocity": 82,
              "position": 3.6645833333333333,
              "duration": 0.008333333333333333
            },
            {
              "pitch": 49,
              "velocity": 72,
              "position": 3.9895833333333335,
              "duration": 0.00625
            }
          ]
        },
        "10": {
          "ctab": {
            "srcChannel": 10,
            "name": "Bass A",
            "accType": "BASS",
            "editable": false,
            "mutedNotes": [],
            "mutedChords": [
              "7aug",
              "dim",
              "minMaj7(9)",
              "minMaj7",
              "min(9)",
              "m7b5",
              "min",
              "aug"
            ],
            "autoStart": false,
            "sourceChordNote": 0,
            "sourceChordType": "Maj7",
            "ctb2Low": null,
            "ctb2Main": {
              "ntr": "ROOT_TRANSPOSITION",
              "ntt": "MELODY",
              "bassOn": true,
              "chordRootUpperLimit": 8,
              "noteLowLimit": 28,
              "noteHighLimit": 127,
              "rtr": "PITCH_SHIFT_TO_ROOT"
            },
            "ctb2High": null,
            "ctb2MiddleLowPitch": 0,
            "ctb2MiddleHighPitch": 127
          },
          "notes": [
            {
              "pitch": 24,
              "velocity": 70,
              "position": 0,
              "duration": 0.5875
            },
            {
              "pitch": 24,
              "velocity": 59,
              "position": 0.6666666666666666,
              "duration": 0.25416666666666665
            },
            {
              "pitch": 24,
              "velocity": 70,
              "position": 1,
              "duration": 0.2520833333333333
            },
            {
              "pitch": 24,
              "velocity": 59,
              "position": 1.33125,
              "duration": 0.30625
            },
            {
              "pitch": 24,
              "velocity": 59,
              "position": 1.6666666666666667,
              "duration": 0.30625
            },
            {
              "pitch": 24,
              "velocity": 70,
              "position": 2,
              "duration": 0.30625
            },
            {
              "pitch": 24,
              "velocity": 59,
              "position": 2.33125,
              "duration": 0.30625
            },
            {
              "pitch": 31,
              "velocity": 59,
              "position": 2.6666666666666665,
              "duration": 0.30625
            },
            {
              "pitch": 33,
              "velocity": 70,
              "position": 3,
              "duration": 0.30625
            },
            {
              "pitch": 36,
              "velocity": 59,
              "position": 3.33125,
              "duration": 0.30625
            },
            {
              "pitch": 33,
              "velocity": 59,
              "position": 3.6666666666666665,
              "duration": 0.30625
            }
          ]
        },
        "11": {
          "ctab": {
            "srcChannel": 11,
            "name": "SolidGtr",
            "accType": "CHORD1",
            "editable": false,
            "mutedNotes": [],
            "mutedChords": [],
            "autoStart": false,
            "sourceChordNote": 0,
            "sourceChordType": "Maj7",
            "ctb2Low": null,
            "ctb2Main": {
              "ntr": "GUITAR",
              "ntt": "ALL_PURPOSE",
              "bassOn": false,
              "chordRootUpperLimit": 7,
              "noteLowLimit": 0,
              "noteHighLimit": 79,
              "rtr": "PITCH_SHIFT"
            },
            "ctb2High": null,
            "ctb2MiddleLowPitch": 0,
            "ctb2MiddleHighPitch": 127
          },
          "notes": [
            {
              "pitch": 100,
              "velocity": 80,
              "position": 0,
              "duration": 0.19166666666666668
            },
            {
              "pitch": 67,
              "velocity": 50,
              "position": 0,
              "duration": 0.30625
            },
            {
              "pitch": 65,
              "velocity": 50,
              "position": 0,
              "duration": 0.30625
            },
            {
              "pitch": 69,
              "velocity": 50,
              "position": 0.010416666666666666,
              "duration": 0.30625
            },
            {
              "pitch": 71,
              "velocity": 50,
              "position": 0.01875,
              "duration": 0.30625
            },
            {
              "pitch": 106,
              "velocity": 40,
              "position": 0.33125,
              "duration": 0.19166666666666668
            },
            {
              "pitch": 65,
              "velocity": 30,
              "position": 0.33125,
              "duration": 0.30625
            },
            {
              "pitch": 67,
              "velocity": 30,
              "position": 0.33125,
              "duration": 0.3104166666666667
            },
            {
              "pitch": 69,
              "velocity": 30,
              "position": 0.34375,
              "duration": 0.30625
            },
            {
              "pitch": 71,
              "velocity": 30,
              "position": 0.3541666666666667,
              "duration": 0.30625
            },
            {
              "pitch": 108,
              "velocity": 70,
              "position": 0.6666666666666666,
              "duration": 0.19166666666666668
            },
            {
              "pitch": 65,
              "velocity": 40,
              "position": 0.6666666666666666,
              "duration": 0.30625
            },
            {
              "pitch": 67,
              "velocity": 40,
              "position": 0.6666666666666666,
              "duration": 0.30833333333333335
            },
            {
              "pitch": 69,
              "velocity": 40,
              "position": 0.675,
              "duration": 0.30625
            },
            {
              "pitch": 71,
              "velocity": 40,
              "position": 0.6875,
              "duration": 0.30625
            },
            {
              "pitch": 65,
              "velocity": 60,
              "position": 1,
              "duration": 0.03333333333333333
            },
            {
              "pitch": 67,
              "velocity": 60,
              "position": 1,
              "duration": 0.03333333333333333
            },
            {
              "pitch": 69,
              "velocity": 60,
              "position": 1.0104166666666667,
              "duration": 0.035416666666666666
            },
            {
              "pitch": 71,
              "velocity": 60,
              "position": 1.01875,
              "duration": 0.035416666666666666
            },
            {
              "pitch": 100,
              "velocity": 90,
              "position": 1,
              "duration": 0.19166666666666668
            },
            {
              "pitch": 106,
              "velocity": 40,
              "position": 1.33125,
              "duration": 0.19166666666666668
            },
            {
              "pitch": 65,
              "velocity": 30,
              "position": 1.33125,
              "duration": 0.30625
            },
            {
              "pitch": 67,
              "velocity": 30,
              "position": 1.33125,
              "duration": 0.3104166666666667
            },
            {
              "pitch": 69,
              "velocity": 30,
              "position": 1.34375,
              "duration": 0.30625
            },
            {
              "pitch": 71,
              "velocity": 30,
              "position": 1.3541666666666667,
              "duration": 0.30625
            },
            {
              "pitch": 98,
              "velocity": 55,
              "position": 1.6666666666666667,
              "duration": 0.19166666666666668
            },
            {
              "pitch": 65,
              "velocity": 40,
              "position": 1.6666666666666667,
              "duration": 0.30625
            },
            {
              "pitch": 67,
              "velocity": 40,
              "position": 1.6666666666666667,
              "duration": 0.30833333333333335
            },
            {
              "pitch": 69,
              "velocity": 40,
              "position": 1.675,
              "duration": 0.30625
            },
            {
              "pitch": 71,
              "velocity": 40,
              "position": 1.6875,
              "duration": 0.30625
            },
            {
              "pitch": 100,
              "velocity": 80,
              "position": 2,
              "duration": 0.19166666666666668
            },
            {
              "pitch": 67,
              "velocity": 50,
              "position": 2,
              "duration": 0.30625
            },
            {
              "pitch": 65,
              "velocity": 50,
              "position": 2,
              "duration": 0.30625
            },
            {
              "pitch": 69,
              "velocity": 50,
              "position": 2.0104166666666665,
              "duration": 0.30416666666666664
            },
            {
              "pitch": 71,
              "velocity": 50,
              "position": 2.01875,
              "duration": 0.30833333333333335
            },
            {
              "pitch": 106,
              "velocity": 40,
              "position": 2.33125,
              "duration": 0.19166666666666668
            },
            {
              "pitch": 65,
              "velocity": 30,
              "position": 2.33125,
              "duration": 0.30625
            },
            {
              "pitch": 67,
              "velocity": 30,
              "position": 2.33125,
              "duration": 0.3104166666666667
            },
            {
              "pitch": 69,
              "velocity": 30,
              "position": 2.34375,
              "duration": 0.30625
            },
            {
              "pitch": 71,
              "velocity": 30,
              "position": 2.3541666666666665,
              "duration": 0.30625
            },
            {
              "pitch": 98,
              "velocity": 55,
              "position": 2.6666666666666665,
              "duration": 0.19166666666666668
            },
            {
              "pitch": 65,
              "velocity": 40,
              "position": 2.6666666666666665,
              "duration": 0.30625
            },
            {
              "pitch": 67,
              "velocity": 40,
              "position": 2.6666666666666665,
              "duration": 0.30833333333333335
            },
            {
              "pitch": 69,
              "velocity": 40,
              "position": 2.675,
              "duration": 0.30625
            },
            {
              "pitch": 71,
              "velocity": 40,
              "position": 2.6875,
              "duration": 0.30625
            },
            {
              "pitch": 100,
              "velocity": 85,
              "position": 3,
              "duration": 0.19166666666666668
            },
            {
              "pitch": 67,
              "velocity": 55,
              "position": 3,
              "duration": 0.30625
            },
            {
              "pitch": 65,
              "velocity": 55,
              "position": 3,
              "duration": 0.30625
            },
            {
              "pitch": 69,
              "velocity": 55,
              "position": 3.0104166666666665,
              "duration": 0.30625
            },
            {
              "pitch": 71,
              "velocity": 55,
              "position": 3.01875,
              "duration": 0.30625
            },
            {
              "pitch": 98,
              "velocity": 60,
              "position": 3.33125,
              "duration": 0.19166666666666668
            },
            {
              "pitch": 65,
              "velocity": 45,
              "position": 3.33125,
              "duration": 0.30625
            },
            {
              "pitch": 67,
              "velocity": 45,
              "position": 3.33125,
              "duration": 0.3104166666666667
            },
            {
              "pitch": 69,
              "velocity": 45,
              "position": 3.34375,
              "duration": 0.30625
            },
            {
              "pitch": 71,
              "velocity": 45,
              "position": 3.3541666666666665,
              "duration": 0.30625
            },
            {
              "pitch": 100,
              "velocity": 90,
              "position": 3.6666666666666665,
              "duration": 0.19166666666666668
            },
            {
              "pitch": 71,
              "velocity": 60,
              "position": 3.6875,
              "duration": 0.2833333333333333
            },
            {
              "pitch": 69,
              "velocity": 60,
              "position": 3.675,
              "duration": 0.29583333333333334
            },
            {
              "pitch": 65,
              "velocity": 60,
              "position": 3.6666666666666665,
              "duration": 0.30625
            },
            {
              "pitch": 67,
              "velocity": 60,
              "position": 3.6666666666666665,
              "duration": 0.30625
            }
          ]
        },
        "12": {
          "ctab": {
            "srcChannel": 12,
            "name": "Pno RH",
            "accType": "CHORD2",
            "editable": false,
            "mutedNotes": [],
            "mutedChords": [
              "min",
              "Maj"
            ],
            "autoStart": false,
            "sourceChordNote": 0,
            "sourceChordType": "Maj7",
            "ctb2Low": null,
            "ctb2Main": {
              "ntr": "ROOT_FIXED",
              "ntt": "CHORD",
              "bassOn": false,
              "chordRootUpperLimit": 7,
              "noteLowLimit": 0,
              "noteHighLimit": 79,
              "rtr": "PITCH_SHIFT"
            },
            "ctb2High": null,
            "ctb2MiddleLowPitch": 0,
            "ctb2MiddleHighPitch": 127
          },
          "notes": [
            {
              "pitch": 64,
              "velocity": 75,
              "position": 0,
              "duration": 0.31875
            },
            {
              "pitch": 71,
              "velocity": 65,
              "position": 0,
              "duration": 0.31875
            },
            {
              "pitch": 67,
              "velocity": 82,
              "position": 0,
              "duration": 0.31875
            },
            {
              "pitch": 64,
              "velocity": 66,
              "position": 0.33125,
              "duration": 0.31875
            },
            {
              "pitch": 71,
              "velocity": 65,
              "position": 0.33125,
              "duration": 0.31875
            },
            {
              "pitch": 67,
              "velocity": 71,
              "position": 0.33125,
              "duration": 0.31875
            },
            {
              "pitch": 64,
              "velocity": 63,
              "position": 0.6666666666666666,
              "duration": 0.31875
            },
            {
              "pitch": 71,
              "velocity": 69,
              "position": 0.6666666666666666,
              "duration": 0.31875
            },
            {
              "pitch": 67,
              "velocity": 61,
              "position": 0.6666666666666666,
              "duration": 0.31875
            },
            {
              "pitch": 64,
              "velocity": 77,
              "position": 1,
              "duration": 0.31875
            },
            {
              "pitch": 71,
              "velocity": 77,
              "position": 1,
              "duration": 0.31875
            },
            {
              "pitch": 67,
              "velocity": 82,
              "position": 1,
              "duration": 0.31875
            },
            {
              "pitch": 76,
              "velocity": 77,
              "position": 1.33125,
              "duration": 0.31875
            },
            {
              "pitch": 79,
              "velocity": 77,
              "position": 1.33125,
              "duration": 0.31875
            },
            {
              "pitch": 83,
              "velocity": 78,
              "position": 1.33125,
              "duration": 0.31875
            },
            {
              "pitch": 71,
              "velocity": 85,
              "position": 1.6666666666666667,
              "duration": 0.31875
            },
            {
              "pitch": 79,
              "velocity": 94,
              "position": 1.6666666666666667,
              "duration": 0.31875
            },
            {
              "pitch": 76,
              "velocity": 99,
              "position": 1.6666666666666667,
              "duration": 0.31875
            },
            {
              "pitch": 67,
              "velocity": 77,
              "position": 1.55,
              "duration": 0.6520833333333333
            },
            {
              "pitch": 79,
              "velocity": 69,
              "position": 2,
              "duration": 0.31875
            },
            {
              "pitch": 67,
              "velocity": 77,
              "position": 2.21875,
              "duration": 0.1
            },
            {
              "pitch": 71,
              "velocity": 69,
              "position": 2,
              "duration": 0.31875
            },
            {
              "pitch": 76,
              "velocity": 69,
              "position": 2,
              "duration": 0.31875
            },
            {
              "pitch": 67,
              "velocity": 85,
              "position": 2.33125,
              "duration": 0.31875
            },
            {
              "pitch": 76,
              "velocity": 95,
              "position": 2.33125,
              "duration": 0.31875
            },
            {
              "pitch": 71,
              "velocity": 95,
              "position": 2.33125,
              "duration": 0.31875
            },
            {
              "pitch": 60,
              "velocity": 77,
              "position": 2.55,
              "duration": 0.31875
            },
            {
              "pitch": 76,
              "velocity": 96,
              "position": 2.6666666666666665,
              "duration": 0.31875
            },
            {
              "pitch": 72,
              "velocity": 86,
              "position": 2.6666666666666665,
              "duration": 0.31875
            },
            {
              "pitch": 67,
              "velocity": 84,
              "position": 2.6666666666666665,
              "duration": 0.31875
            },
            {
              "pitch": 60,
              "velocity": 77,
              "position": 2.8854166666666665,
              "duration": 0.31875
            },
            {
              "pitch": 71,
              "velocity": 90,
              "position": 3,
              "duration": 0.31875
            },
            {
              "pitch": 67,
              "velocity": 95,
              "position": 3,
              "duration": 0.31875
            },
            {
              "pitch": 64,
              "velocity": 75,
              "position": 3,
              "duration": 0.31875
            },
            {
              "pitch": 60,
              "velocity": 77,
              "position": 3.21875,
              "duration": 0.31875
            },
            {
              "pitch": 71,
              "velocity": 69,
              "position": 3.33125,
              "duration": 0.31875
            },
            {
              "pitch": 67,
              "velocity": 69,
              "position": 3.33125,
              "duration": 0.31875
            },
            {
              "pitch": 64,
              "velocity": 69,
              "position": 3.33125,
              "duration": 0.31875
            },
            {
              "pitch": 60,
              "velocity": 77,
              "position": 3.55,
              "duration": 0.31875
            },
            {
              "pitch": 48,
              "velocity": 80,
              "position": 2.20625,
              "duration": 1.76875
            },
            {
              "pitch": 60,
              "velocity": 77,
              "position": 3.8854166666666665,
              "duration": 0.1
            },
            {
              "pitch": 67,
              "velocity": 99,
              "position": 3.6666666666666665,
              "duration": 0.31875
            },
            {
              "pitch": 64,
              "velocity": 96,
              "position": 3.6666666666666665,
              "duration": 0.31875
            },
            {
              "pitch": 71,
              "velocity": 99,
              "position": 3.6666666666666665,
              "duration": 0.31875
            }
          ]
        },
        "13": {
          "ctab": {
            "srcChannel": 13,
            "name": "Organ1",
            "accType": "PAD",
            "editable": false,
            "mutedNotes": [],
            "mutedChords": [],
            "autoStart": false,
            "sourceChordNote": 0,
            "sourceChordType": "Maj7",
            "ctb2Low": null,
            "ctb2Main": {
              "ntr": "ROOT_FIXED",
              "ntt": "CHORD",
              "bassOn": false,
              "chordRootUpperLimit": 7,
              "noteLowLimit": 0,
              "noteHighLimit": 127,
              "rtr": "PITCH_SHIFT"
            },
            "ctb2High": null,
            "ctb2MiddleLowPitch": 0,
            "ctb2MiddleHighPitch": 127
          },
          "notes": [
            {
              "pitch": 64,
              "velocity": 50,
              "position": 0,
              "duration": 3.970833333333333
            },
            {
              "pitch": 71,
              "velocity": 50,
              "position": 0,
              "duration": 3.970833333333333
            },
            {
              "pitch": 67,
              "velocity": 50,
              "position": 0,
              "duration": 3.970833333333333
            }
          ]
        },
        "14": {
          "ctab": {
            "srcChannel": 14,
            "name": "Tele",
            "accType": "PHRASE1",
            "editable": false,
            "mutedNotes": [],
            "mutedChords": [
              "min",
              "Maj"
            ],
            "autoStart": false,
            "sourceChordNote": 0,
            "sourceChordType": "Maj7",
            "ctb2Low": null,
            "ctb2Main": {
              "ntr": "ROOT_TRANSPOSITION",
              "ntt": "MELODY",
              "bassOn": false,
              "chordRootUpperLimit": 4,
              "noteLowLimit": 0,
              "noteHighLimit": 127,
              "rtr": "PITCH_SHIFT"
            },
            "ctb2High": {
              "ntr": "ROOT_FIXED",
              "ntt": "BYPASS",
              "bassOn": false,
              "chordRootUpperLimit": 4,
              "noteLowLimit": 0,
              "noteHighLimit": 127,
              "rtr": "PITCH_SHIFT"
            },
            "ctb2MiddleLowPitch": 0,
            "ctb2MiddleHighPitch": 95
          },
          "notes": [
            {
              "pitch": 59,
              "velocity": 116,
              "position": 0.0020833333333333333,
              "duration": 0.9708333333333333
            },
            {
              "pitch": 55,
              "velocity": 116,
              "position": 1,
              "duration": 0.30625
            },
            {
              "pitch": 59,
              "velocity": 16,
              "position": 1.33125,
              "duration": 0.30625
            },
            {
              "pitch": 59,
              "velocity": 33,
              "position": 1.6666666666666667,
              "duration": 0.6395833333333333
            },
            {
              "pitch": 59,
              "velocity": 16,
              "position": 2.33125,
              "duration": 0.30625
            },
            {
              "pitch": 59,
              "velocity": 33,
              "position": 2.6666666666666665,
              "duration": 0.30625
            },
            {
              "pitch": 64,
              "velocity": 116,
              "position": 3,
              "duration": 0.9708333333333333
            },
            {
              "pitch": 71,
              "velocity": 26,
              "position": 3.33125,
              "duration": 0.6395833333333333
            },
            {
              "pitch": 59,
              "velocity": 16,
              "position": 3.6666666666666665,
              "duration": 0.30625
            }
          ]
        }
      }
    },
    "Fill_In_CC": {
      "type": "Fill_In_CC",
      "sizeInBeats": 4,
      "channels": {
        "0": {
          "ctab": {
            "srcChannel": 0,
            "name": "Pno LH",
            "accType": "CHORD2",
            "editable": false,
            "mutedNotes": [],
            "mutedChords": [],
            "autoStart": false,
            "sourceChordNote": 0,
            "sourceChordType": "Maj7",
            "ctb2Low": null,
            "ctb2Main": {
              "ntr": "ROOT_TRANSPOSITION",
              "ntt": "MELODY",
              "bassOn": true,
              "chordRootUpperLimit": 8,
              "noteLowLimit": 0,
              "noteHighLimit": 127,
              "rtr": "PITCH_SHIFT_TO_ROOT"
            },
            "ctb2High": null,
            "ctb2MiddleLowPitch": 0,
            "ctb2MiddleHighPitch": 127
          },
          "notes": [
            {
              "pitch": 36,
              "velocity": 99,
              "position": 1.20625,
              "duration": 1.9875
            },
            {
              "pitch": 36,
              "velocity": 80,
              "position": 3.20625,
              "duration": 0.44375
            },
            {
              "pitch": 36,
              "velocity": 80,
              "position": 3.6666666666666665,
              "duration": 0.30833333333333335
            }
          ]
        },
        "1": {
          "ctab": {
            "srcChannel": 1,
            "name": "Bass B",
            "accType": "BASS",
            "editable": false,
            "mutedNotes": [],
            "mutedChords": [
              "1+2+5",
              "sus4",
              "1+5",
              "1+8",
              "Maj7aug",
              "7(#9)",
              "7(b13)",
              "7(b9)",
              "7(13)",
              "7#11",
              "7(9)",
              "7b5",
              "7sus4",
              "7th",
              "dim7",
              "min7(11)",
              "min7(9)",
              "min7",
              "min6",
              "Maj6(9)",
              "Maj7(9)",
              "Maj(9)",
              "Maj7#11",
              "Maj7",
              "Maj6",
              "Maj"
            ],
            "autoStart": false,
            "sourceChordNote": 0,
            "sourceChordType": "Maj7",
            "ctb2Low": null,
            "ctb2Main": {
              "ntr": "ROOT_TRANSPOSITION",
              "ntt": "MELODY",
              "bassOn": true,
              "chordRootUpperLimit": 8,
              "noteLowLimit": 28,
              "noteHighLimit": 127,
              "rtr": "PITCH_SHIFT_TO_ROOT"
            },
            "ctb2High": null,
            "ctb2MiddleLowPitch": 0,
            "ctb2MiddleHighPitch": 127
          },
          "notes": [
            {
              "pitch": 24,
              "velocity": 70,
              "position": 0,
              "duration": 0.5333333333333333
            },
            {
              "pitch": 36,
              "velocity": 70,
              "position": 0.55,
              "duration": 0.30625
            },
            {
              "pitch": 24,
              "velocity": 59,
              "position": 0.8854166666666666,
              "duration": 0.0875
            },
            {
              "pitch": 28,
              "velocity": 70,
              "position": 1,
              "duration": 0.5333333333333333
            },
            {
              "pitch": 40,
              "velocity": 70,
              "position": 1.55,
              "duration": 0.30625
            },
            {
              "pitch": 28,
              "velocity": 59,
              "position": 1.8854166666666667,
              "duration": 0.0875
            },
            {
              "pitch": 31,
              "velocity": 70,
              "position": 2,
              "duration": 0.5333333333333333
            },
            {
              "pitch": 43,
              "velocity": 70,
              "position": 2.55,
              "duration": 0.30625
            },
            {
              "pitch": 31,
              "velocity": 59,
              "position": 2.8854166666666665,
              "duration": 0.0875
            },
            {
              "pitch": 36,
              "velocity": 70,
              "position": 3,
              "duration": 0.30625
            },
            {
              "pitch": 31,
              "velocity": 70,
              "position": 3.33125,
              "duration": 0.30625
            },
            {
              "pitch": 24,
              "velocity": 70,
              "position": 3.6666666666666665,
              "duration": 0.30625
            }
          ]
        },
        "2": {
          "ctab": {
            "srcChannel": 2,
            "name": "Solid S",
            "accType": "CHORD1",
            "editable": false,
            "mutedNotes": [],
            "mutedChords": [
              "1+2+5",
              "sus4",
              "1+5",
              "1+8",
              "7aug",
              "Maj7aug",
              "7(#9)",
              "7(b13)",
              "7(b9)",
              "7(13)",
              "7#11",
              "7(9)",
              "7b5",
              "7sus4",
              "7th",
              "dim7",
              "dim",
              "minMaj7(9)",
              "minMaj7",
              "min7(11)",
              "min7(9)",
              "min(9)",
              "m7b5",
              "min7",
              "min6",
              "aug",
              "Maj6(9)",
              "Maj7(9)",
              "Maj(9)",
              "Maj7#11",
              "Maj7",
              "Maj6"
            ],
            "autoStart": false,
            "sourceChordNote": 0,
            "sourceChordType": "Maj7",
            "ctb2Low": null,
            "ctb2Main": {
              "ntr": "ROOT_TRANSPOSITION",
              "ntt": "DORIAN_5",
              "bassOn": false,
              "chordRootUpperLimit": 4,
              "noteLowLimit": 54,
              "noteHighLimit": 79,
              "rtr": "PITCH_SHIFT"
            },
            "ctb2High": {
              "ntr": "ROOT_FIXED",
              "ntt": "BYPASS",
              "bassOn": false,
              "chordRootUpperLimit": 4,
              "noteLowLimit": 0,
              "noteHighLimit": 127,
              "rtr": "PITCH_SHIFT"
            },
            "ctb2MiddleLowPitch": 0,
            "ctb2MiddleHighPitch": 95
          },
          "notes": [
            {
              "pitch": 100,
              "velocity": 80,
              "position": 0,
              "duration": 0.19166666666666668
            },
            {
              "pitch": 58,
              "velocity": 50,
              "position": 0,
              "duration": 0.30625
            },
            {
              "pitch": 64,
              "velocity": 50,
              "position": 0,
              "duration": 0.3104166666666667
            },
            {
              "pitch": 67,
              "velocity": 50,
              "position": 0.010416666666666666,
              "duration": 0.30625
            },
            {
              "pitch": 106,
              "velocity": 35,
              "position": 0.33125,
              "duration": 0.19166666666666668
            },
            {
              "pitch": 58,
              "velocity": 25,
              "position": 0.33125,
              "duration": 0.30625
            },
            {
              "pitch": 67,
              "velocity": 25,
              "position": 0.34375,
              "duration": 0.30625
            },
            {
              "pitch": 64,
              "velocity": 25,
              "position": 0.33125,
              "duration": 0.31875
            },
            {
              "pitch": 72,
              "velocity": 25,
              "position": 0.3541666666666667,
              "duration": 0.30625
            },
            {
              "pitch": 98,
              "velocity": 55,
              "position": 0.6666666666666666,
              "duration": 0.19166666666666668
            },
            {
              "pitch": 58,
              "velocity": 40,
              "position": 0.6666666666666666,
              "duration": 0.30625
            },
            {
              "pitch": 67,
              "velocity": 40,
              "position": 0.675,
              "duration": 0.30625
            },
            {
              "pitch": 65,
              "velocity": 40,
              "position": 0.6666666666666666,
              "duration": 0.31666666666666665
            },
            {
              "pitch": 72,
              "velocity": 40,
              "position": 0.6875,
              "duration": 0.30625
            },
            {
              "pitch": 58,
              "velocity": 60,
              "position": 1,
              "duration": 0.03333333333333333
            },
            {
              "pitch": 64,
              "velocity": 60,
              "position": 1,
              "duration": 0.03333333333333333
            },
            {
              "pitch": 67,
              "velocity": 60,
              "position": 1.0104166666666667,
              "duration": 0.035416666666666666
            },
            {
              "pitch": 72,
              "velocity": 60,
              "position": 1.01875,
              "duration": 0.0375
            },
            {
              "pitch": 100,
              "velocity": 90,
              "position": 1,
              "duration": 0.19166666666666668
            },
            {
              "pitch": 58,
              "velocity": 70,
              "position": 1.33125,
              "duration": 0.027083333333333334
            },
            {
              "pitch": 64,
              "velocity": 70,
              "position": 1.33125,
              "duration": 0.027083333333333334
            },
            {
              "pitch": 67,
              "velocity": 70,
              "position": 1.34375,
              "duration": 0.025
            },
            {
              "pitch": 72,
              "velocity": 70,
              "position": 1.3541666666666667,
              "duration": 0.025
            },
            {
              "pitch": 119,
              "velocity": 85,
              "position": 1.33125,
              "duration": 0.19166666666666668
            },
            {
              "pitch": 100,
              "velocity": 97,
              "position": 1.6666666666666667,
              "duration": 0.19166666666666668
            },
            {
              "pitch": 125,
              "velocity": 85,
              "position": 1.5895833333333333,
              "duration": 0.375
            },
            {
              "pitch": 72,
              "velocity": 117,
              "position": 1.6666666666666667,
              "duration": 0.6395833333333333
            },
            {
              "pitch": 67,
              "velocity": 117,
              "position": 1.6666666666666667,
              "duration": 0.6395833333333333
            },
            {
              "pitch": 64,
              "velocity": 117,
              "position": 1.6666666666666667,
              "duration": 0.6395833333333333
            },
            {
              "pitch": 58,
              "velocity": 117,
              "position": 1.6666666666666667,
              "duration": 0.6395833333333333
            },
            {
              "pitch": 102,
              "velocity": 97,
              "position": 2.33125,
              "duration": 0.19166666666666668
            },
            {
              "pitch": 58,
              "velocity": 25,
              "position": 2.33125,
              "duration": 0.30625
            },
            {
              "pitch": 67,
              "velocity": 25,
              "position": 2.34375,
              "duration": 0.30625
            },
            {
              "pitch": 64,
              "velocity": 25,
              "position": 2.33125,
              "duration": 0.31875
            },
            {
              "pitch": 72,
              "velocity": 25,
              "position": 2.3541666666666665,
              "duration": 0.30625
            },
            {
              "pitch": 104,
              "velocity": 70,
              "position": 2.6666666666666665,
              "duration": 0.19166666666666668
            },
            {
              "pitch": 58,
              "velocity": 40,
              "position": 2.6666666666666665,
              "duration": 0.30625
            },
            {
              "pitch": 67,
              "velocity": 40,
              "position": 2.675,
              "duration": 0.30625
            },
            {
              "pitch": 65,
              "velocity": 40,
              "position": 2.6666666666666665,
              "duration": 0.31666666666666665
            },
            {
              "pitch": 72,
              "velocity": 40,
              "position": 2.6875,
              "duration": 0.30625
            },
            {
              "pitch": 58,
              "velocity": 60,
              "position": 3,
              "duration": 0.03333333333333333
            },
            {
              "pitch": 64,
              "velocity": 60,
              "position": 3,
              "duration": 0.03333333333333333
            },
            {
              "pitch": 67,
              "velocity": 60,
              "position": 3.0104166666666665,
              "duration": 0.035416666666666666
            },
            {
              "pitch": 72,
              "velocity": 60,
              "position": 3.01875,
              "duration": 0.0375
            },
            {
              "pitch": 100,
              "velocity": 90,
              "position": 3,
              "duration": 0.19166666666666668
            },
            {
              "pitch": 58,
              "velocity": 72,
              "position": 3.21875,
              "duration": 0.025
            },
            {
              "pitch": 64,
              "velocity": 72,
              "position": 3.2291666666666665,
              "duration": 0.025
            },
            {
              "pitch": 99,
              "velocity": 67,
              "position": 3.21875,
              "duration": 0.0875
            },
            {
              "pitch": 98,
              "velocity": 70,
              "position": 3.33125,
              "duration": 0.19166666666666668
            },
            {
              "pitch": 65,
              "velocity": 40,
              "position": 3.34375,
              "duration": 0.29791666666666666
            },
            {
              "pitch": 58,
              "velocity": 40,
              "position": 3.33125,
              "duration": 0.3104166666666667
            },
            {
              "pitch": 62,
              "velocity": 40,
              "position": 3.33125,
              "duration": 0.3104166666666667
            },
            {
              "pitch": 96,
              "velocity": 55,
              "position": 3.6666666666666665,
              "duration": 0.19166666666666668
            },
            {
              "pitch": 62,
              "velocity": 40,
              "position": 3.6666666666666665,
              "duration": 0.29583333333333334
            },
            {
              "pitch": 58,
              "velocity": 40,
              "position": 3.6666666666666665,
              "duration": 0.30625
            }
          ]
        },
        "3": {
          "ctab": {
            "srcChannel": 3,
            "name": "Pno RH S",
            "accType": "CHORD2",
            "editable": false,
            "mutedNotes": [],
            "mutedChords": [
              "1+2+5",
              "sus4",
              "1+5",
              "1+8",
              "7aug",
              "Maj7aug",
              "7(#9)",
              "7(b13)",
              "7(b9)",
              "7(13)",
              "7#11",
              "7(9)",
              "7b5",
              "7sus4",
              "7th",
              "dim7",
              "dim",
              "minMaj7(9)",
              "minMaj7",
              "min7(11)",
              "min7(9)",
              "min(9)",
              "m7b5",
              "min7",
              "min6",
              "aug",
              "Maj6(9)",
              "Maj7(9)",
              "Maj(9)",
              "Maj7#11",
              "Maj7",
              "Maj6"
            ],
            "autoStart": false,
            "sourceChordNote": 0,
            "sourceChordType": "Maj7",
            "ctb2Low": null,
            "ctb2Main": {
              "ntr": "ROOT_TRANSPOSITION",
              "ntt": "DORIAN_5",
              "bassOn": false,
              "chordRootUpperLimit": 11,
              "noteLowLimit": 58,
              "noteHighLimit": 79,
              "rtr": "PITCH_SHIFT"
            },
            "ctb2High": null,
            "ctb2MiddleLowPitch": 0,
            "ctb2MiddleHighPitch": 127
          },
          "notes": [
            {
              "pitch": 46,
              "velocity": 75,
              "position": 0,
              "duration": 0.31875
            },
            {
              "pitch": 55,
              "velocity": 82,
              "position": 0,
              "duration": 0.31875
            },
            {
              "pitch": 52,
              "velocity": 75,
              "position": 0,
              "duration": 0.31875
            },
            {
              "pitch": 48,
              "velocity": 65,
              "position": 0,
              "duration": 0.31875
            },
            {
              "pitch": 46,
              "velocity": 66,
              "position": 0.33125,
              "duration": 0.31875
            },
            {
              "pitch": 55,
              "velocity": 71,
              "position": 0.33125,
              "duration": 0.31875
            },
            {
              "pitch": 52,
              "velocity": 66,
              "position": 0.33125,
              "duration": 0.31875
            },
            {
              "pitch": 48,
              "velocity": 65,
              "position": 0.33125,
              "duration": 0.31875
            },
            {
              "pitch": 46,
              "velocity": 63,
              "position": 0.6666666666666666,
              "duration": 0.31875
            },
            {
              "pitch": 55,
              "velocity": 61,
              "position": 0.6666666666666666,
              "duration": 0.31875
            },
            {
              "pitch": 52,
              "velocity": 63,
              "position": 0.6666666666666666,
              "duration": 0.31875
            },
            {
              "pitch": 48,
              "velocity": 69,
              "position": 0.6666666666666666,
              "duration": 0.31875
            },
            {
              "pitch": 46,
              "velocity": 77,
              "position": 1,
              "duration": 0.31875
            },
            {
              "pitch": 55,
              "velocity": 82,
              "position": 1,
              "duration": 0.31875
            },
            {
              "pitch": 52,
              "velocity": 77,
              "position": 1,
              "duration": 0.31875
            },
            {
              "pitch": 48,
              "velocity": 77,
              "position": 1,
              "duration": 0.31875
            },
            {
              "pitch": 78,
              "velocity": 77,
              "position": 1.33125,
              "duration": 0.04791666666666667
            },
            {
              "pitch": 82,
              "velocity": 78,
              "position": 1.33125,
              "duration": 0.225
            },
            {
              "pitch": 74,
              "velocity": 77,
              "position": 1.33125,
              "duration": 0.225
            },
            {
              "pitch": 79,
              "velocity": 77,
              "position": 1.3854166666666667,
              "duration": 0.17291666666666666
            },
            {
              "pitch": 55,
              "velocity": 77,
              "position": 1.55,
              "duration": 0.1
            },
            {
              "pitch": 72,
              "velocity": 85,
              "position": 1.6666666666666667,
              "duration": 0.26666666666666666
            },
            {
              "pitch": 81,
              "velocity": 94,
              "position": 1.6666666666666667,
              "duration": 0.26666666666666666
            },
            {
              "pitch": 77,
              "velocity": 99,
              "position": 1.6666666666666667,
              "duration": 0.26666666666666666
            },
            {
              "pitch": 70,
              "velocity": 87,
              "position": 2,
              "duration": 0.225
            },
            {
              "pitch": 76,
              "velocity": 87,
              "position": 2,
              "duration": 0.225
            },
            {
              "pitch": 79,
              "velocity": 87,
              "position": 2,
              "duration": 0.225
            },
            {
              "pitch": 55,
              "velocity": 77,
              "position": 2.21875,
              "duration": 0.1
            },
            {
              "pitch": 69,
              "velocity": 66,
              "position": 2.33125,
              "duration": 0.26875
            },
            {
              "pitch": 74,
              "velocity": 77,
              "position": 2.33125,
              "duration": 0.26875
            },
            {
              "pitch": 77,
              "velocity": 77,
              "position": 2.33125,
              "duration": 0.26875
            },
            {
              "pitch": 75,
              "velocity": 96,
              "position": 2.6666666666666665,
              "duration": 0.04791666666666667
            },
            {
              "pitch": 76,
              "velocity": 83,
              "position": 2.70625,
              "duration": 0.13125
            },
            {
              "pitch": 67,
              "velocity": 84,
              "position": 2.6666666666666665,
              "duration": 0.18333333333333332
            },
            {
              "pitch": 72,
              "velocity": 86,
              "position": 2.6666666666666665,
              "duration": 0.18333333333333332
            },
            {
              "pitch": 48,
              "velocity": 77,
              "position": 2.55,
              "duration": 0.31875
            },
            {
              "pitch": 75,
              "velocity": 96,
              "position": 3,
              "duration": 0.04583333333333333
            },
            {
              "pitch": 48,
              "velocity": 77,
              "position": 2.8854166666666665,
              "duration": 0.31875
            },
            {
              "pitch": 65,
              "velocity": 75,
              "position": 3,
              "duration": 0.31875
            },
            {
              "pitch": 74,
              "velocity": 95,
              "position": 3.0416666666666665,
              "duration": 0.27708333333333335
            },
            {
              "pitch": 70,
              "velocity": 90,
              "position": 3,
              "duration": 0.31875
            },
            {
              "pitch": 65,
              "velocity": 69,
              "position": 3.33125,
              "duration": 0.15208333333333332
            },
            {
              "pitch": 72,
              "velocity": 69,
              "position": 3.33125,
              "duration": 0.15208333333333332
            },
            {
              "pitch": 69,
              "velocity": 69,
              "position": 3.33125,
              "duration": 0.15208333333333332
            },
            {
              "pitch": 48,
              "velocity": 77,
              "position": 3.21875,
              "duration": 0.31875
            },
            {
              "pitch": 48,
              "velocity": 77,
              "position": 3.55,
              "duration": 0.31875
            },
            {
              "pitch": 72,
              "velocity": 99,
              "position": 3.6666666666666665,
              "duration": 0.31875
            },
            {
              "pitch": 48,
              "velocity": 74,
              "position": 3.8854166666666665,
              "duration": 0.1
            },
            {
              "pitch": 67,
              "velocity": 99,
              "position": 3.6666666666666665,
              "duration": 0.31875
            },
            {
              "pitch": 64,
              "velocity": 96,
              "position": 3.6666666666666665,
              "duration": 0.31875
            }
          ]
        },
        "5": {
          "ctab": {
            "srcChannel": 5,
            "name": "Tele S M",
            "accType": "PHRASE1",
            "editable": false,
            "mutedNotes": [],
            "mutedChords": [
              "1+2+5",
              "sus4",
              "1+5",
              "1+8",
              "7aug",
              "Maj7aug",
              "7(#9)",
              "7(b13)",
              "7(b9)",
              "7(13)",
              "7#11",
              "7(9)",
              "7b5",
              "7sus4",
              "7th",
              "dim7",
              "dim",
              "minMaj7(9)",
              "minMaj7",
              "min7(11)",
              "min7(9)",
              "min(9)",
              "m7b5",
              "min7",
              "min6",
              "min",
              "aug",
              "Maj6(9)",
              "Maj7(9)",
              "Maj(9)",
              "Maj7#11",
              "Maj7",
              "Maj6"
            ],
            "autoStart": false,
            "sourceChordNote": 0,
            "sourceChordType": "Maj7",
            "ctb2Low": null,
            "ctb2Main": {
              "ntr": "ROOT_TRANSPOSITION",
              "ntt": "DORIAN_5",
              "bassOn": false,
              "chordRootUpperLimit": 4,
              "noteLowLimit": 0,
              "noteHighLimit": 127,
              "rtr": "PITCH_SHIFT"
            },
            "ctb2High": null,
            "ctb2MiddleLowPitch": 0,
            "ctb2MiddleHighPitch": 127
          },
          "notes": [
            {
              "pitch": 67,
              "velocity": 116,
              "position": 0,
              "duration": 0.6395833333333333
            },
            {
              "pitch": 72,
              "velocity": 26,
              "position": 0.33125,
              "duration": 0.6395833333333333
            },
            {
              "pitch": 67,
              "velocity": 116,
              "position": 0.6666666666666666,
              "duration": 0.6395833333333333
            },
            {
              "pitch": 67,
              "velocity": 116,
              "position": 1.33125,
              "duration": 0.30625
            },
            {
              "pitch": 72,
              "velocity": 26,
              "position": 1,
              "duration": 0.6395833333333333
            },
            {
              "pitch": 67,
              "velocity": 26,
              "position": 1.6666666666666667,
              "duration": 0.30625
            },
            {
              "pitch": 72,
              "velocity": 26,
              "position": 1.6666666666666667,
              "duration": 0.6395833333333333
            },
            {
              "pitch": 67,
              "velocity": 116,
              "position": 2,
              "duration": 0.30625
            },
            {
              "pitch": 67,
              "velocity": 26,
              "position": 2.33125,
              "duration": 0.30625
            },
            {
              "pitch": 72,
              "velocity": 26,
              "position": 2.33125,
              "duration": 0.6395833333333333
            },
            {
              "pitch": 67,
              "velocity": 116,
              "position": 2.6666666666666665,
              "duration": 0.30625
            },
            {
              "pitch": 66,
              "velocity": 36,
              "position": 3,
              "duration": 0.05625
            },
            {
              "pitch": 65,
              "velocity": 89,
              "position": 3.08125,
              "duration": 0.225
            },
            {
              "pitch": 72,
              "velocity": 26,
              "position": 3,
              "duration": 0.93125
            },
            {
              "pitch": 60,
              "velocity": 26,
              "position": 3.6666666666666665,
              "duration": 0.26458333333333334
            },
            {
              "pitch": 64,
              "velocity": 116,
              "position": 3.33125,
              "duration": 0.6
            }
          ]
        },
        "6": {
          "ctab": {
            "srcChannel": 6,
            "name": "E.P S",
            "accType": "PHRASE2",
            "editable": false,
            "mutedNotes": [],
            "mutedChords": [
              "1+2+5",
              "sus4",
              "1+5",
              "1+8",
              "7aug",
              "Maj7aug",
              "7(#9)",
              "7(b13)",
              "7(b9)",
              "7(13)",
              "7#11",
              "7(9)",
              "7b5",
              "7sus4",
              "7th",
              "dim7",
              "dim",
              "minMaj7(9)",
              "minMaj7",
              "min7(11)",
              "min7(9)",
              "min(9)",
              "m7b5",
              "min7",
              "min6",
              "aug",
              "Maj6(9)",
              "Maj7(9)",
              "Maj(9)",
              "Maj7#11",
              "Maj7",
              "Maj6"
            ],
            "autoStart": false,
            "sourceChordNote": 0,
            "sourceChordType": "Maj7",
            "ctb2Low": null,
            "ctb2Main": {
              "ntr": "ROOT_TRANSPOSITION",
              "ntt": "DORIAN_5",
              "bassOn": false,
              "chordRootUpperLimit": 4,
              "noteLowLimit": 0,
              "noteHighLimit": 127,
              "rtr": "PITCH_SHIFT"
            },
            "ctb2High": null,
            "ctb2MiddleLowPitch": 0,
            "ctb2MiddleHighPitch": 127
          },
          "notes": [
            {
              "pitch": 60,
              "velocity": 34,
              "position": 0,
              "duration": 0.5291666666666667
            },
            {
              "pitch": 67,
              "velocity": 40,
              "position": 0,
              "duration": 0.6395833333333333
            },
            {
              "pitch": 64,
              "velocity": 34,
              "position": 0,
              "duration": 0.6395833333333333
            },
            {
              "pitch": 60,
              "velocity": 54,
              "position": 0.55,
              "duration": 0.42083333333333334
            },
            {
              "pitch": 69,
              "velocity": 61,
              "position": 0.6666666666666666,
              "duration": 0.30625
            },
            {
              "pitch": 65,
              "velocity": 69,
              "position": 0.6666666666666666,
              "duration": 0.30625
            },
            {
              "pitch": 66,
              "velocity": 76,
              "position": 1,
              "duration": 0.00625
            },
            {
              "pitch": 60,
              "velocity": 79,
              "position": 1,
              "duration": 0.5291666666666667
            },
            {
              "pitch": 67,
              "velocity": 99,
              "position": 1.01875,
              "duration": 0.61875
            },
            {
              "pitch": 70,
              "velocity": 107,
              "position": 1,
              "duration": 0.6395833333333333
            },
            {
              "pitch": 60,
              "velocity": 55,
              "position": 1.55,
              "duration": 0.42083333333333334
            },
            {
              "pitch": 69,
              "velocity": 65,
              "position": 1.6666666666666667,
              "duration": 0.30625
            },
            {
              "pitch": 65,
              "velocity": 71,
              "position": 1.6666666666666667,
              "duration": 0.30625
            },
            {
              "pitch": 60,
              "velocity": 53,
              "position": 2,
              "duration": 0.5291666666666667
            },
            {
              "pitch": 67,
              "velocity": 48,
              "position": 2,
              "duration": 0.6395833333333333
            },
            {
              "pitch": 64,
              "velocity": 53,
              "position": 2,
              "duration": 0.6395833333333333
            },
            {
              "pitch": 60,
              "velocity": 55,
              "position": 2.55,
              "duration": 0.30625
            },
            {
              "pitch": 69,
              "velocity": 76,
              "position": 2.6666666666666665,
              "duration": 0.30625
            },
            {
              "pitch": 65,
              "velocity": 79,
              "position": 2.6666666666666665,
              "duration": 0.30625
            },
            {
              "pitch": 66,
              "velocity": 92,
              "position": 3,
              "duration": 0.00625
            },
            {
              "pitch": 60,
              "velocity": 59,
              "position": 2.8854166666666665,
              "duration": 0.30625
            },
            {
              "pitch": 67,
              "velocity": 95,
              "position": 3.01875,
              "duration": 0.2875
            },
            {
              "pitch": 70,
              "velocity": 107,
              "position": 3,
              "duration": 0.30625
            },
            {
              "pitch": 60,
              "velocity": 54,
              "position": 3.21875,
              "duration": 0.30625
            },
            {
              "pitch": 69,
              "velocity": 65,
              "position": 3.33125,
              "duration": 0.30625
            },
            {
              "pitch": 65,
              "velocity": 56,
              "position": 3.33125,
              "duration": 0.30625
            },
            {
              "pitch": 60,
              "velocity": 54,
              "position": 3.55,
              "duration": 0.42083333333333334
            },
            {
              "pitch": 67,
              "velocity": 61,
              "position": 3.6666666666666665,
              "duration": 0.30625
            },
            {
              "pitch": 64,
              "velocity": 67,
              "position": 3.6666666666666665,
              "duration": 0.3104166666666667
            }
          ]
        },
        "7": {
          "ctab": {
            "srcChannel": 7,
            "name": "Tele S m",
            "accType": "PHRASE1",
            "editable": false,
            "mutedNotes": [],
            "mutedChords": [
              "1+2+5",
              "sus4",
              "1+5",
              "1+8",
              "7aug",
              "Maj7aug",
              "7(#9)",
              "7(b13)",
              "7(b9)",
              "7(13)",
              "7#11",
              "7(9)",
              "7b5",
              "7sus4",
              "7th",
              "dim7",
              "dim",
              "minMaj7(9)",
              "minMaj7",
              "min7(11)",
              "min7(9)",
              "min(9)",
              "m7b5",
              "min7",
              "min6",
              "aug",
              "Maj6(9)",
              "Maj7(9)",
              "Maj(9)",
              "Maj7#11",
              "Maj7",
              "Maj6",
              "Maj"
            ],
            "autoStart": false,
            "sourceChordNote": 0,
            "sourceChordType": "Maj7",
            "ctb2Low": null,
            "ctb2Main": {
              "ntr": "ROOT_TRANSPOSITION",
              "ntt": "DORIAN_5",
              "bassOn": false,
              "chordRootUpperLimit": 4,
              "noteLowLimit": 0,
              "noteHighLimit": 127,
              "rtr": "PITCH_SHIFT"
            },
            "ctb2High": null,
            "ctb2MiddleLowPitch": 0,
            "ctb2MiddleHighPitch": 127
          },
          "notes": [
            {
              "pitch": 67,
              "velocity": 116,
              "position": 0,
              "duration": 0.6395833333333333
            },
            {
              "pitch": 72,
              "velocity": 26,
              "position": 0.33125,
              "duration": 0.6395833333333333
            },
            {
              "pitch": 67,
              "velocity": 116,
              "position": 0.6666666666666666,
              "duration": 0.6395833333333333
            },
            {
              "pitch": 67,
              "velocity": 116,
              "position": 1.33125,
              "duration": 0.30625
            },
            {
              "pitch": 72,
              "velocity": 26,
              "position": 1,
              "duration": 0.6395833333333333
            },
            {
              "pitch": 67,
              "velocity": 26,
              "position": 1.6666666666666667,
              "duration": 0.30625
            },
            {
              "pitch": 72,
              "velocity": 26,
              "position": 1.6666666666666667,
              "duration": 0.6395833333333333
            },
            {
              "pitch": 67,
              "velocity": 116,
              "position": 2,
              "duration": 0.30625
            },
            {
              "pitch": 67,
              "velocity": 26,
              "position": 2.33125,
              "duration": 0.30625
            },
            {
              "pitch": 72,
              "velocity": 26,
              "position": 2.33125,
              "duration": 0.6395833333333333
            },
            {
              "pitch": 67,
              "velocity": 116,
              "position": 2.6666666666666665,
              "duration": 0.30625
            },
            {
              "pitch": 66,
              "velocity": 36,
              "position": 3,
              "duration": 0.05625
            },
            {
              "pitch": 65,
              "velocity": 89,
              "position": 3.08125,
              "duration": 0.225
            },
            {
              "pitch": 72,
              "velocity": 26,
              "position": 3,
              "duration": 0.93125
            },
            {
              "pitch": 60,
              "velocity": 26,
              "position": 3.6666666666666665,
              "duration": 0.26458333333333334
            },
            {
              "pitch": 64,
              "velocity": 116,
              "position": 3.33125,
              "duration": 0.6
            }
          ]
        },
        "8": {
          "ctab": {
            "srcChannel": 8,
            "name": "AddDrum",
            "accType": "SUBRHYTHM",
            "editable": true,
            "mutedNotes": [],
            "mutedChords": [],
            "autoStart": true,
            "sourceChordNote": 0,
            "sourceChordType": "Maj7",
            "ctb2Low": null,
            "ctb2Main": {
              "ntr": "ROOT_FIXED",
              "ntt": "BYPASS",
              "bassOn": false,
              "chordRootUpperLimit": 6,
              "noteLowLimit": 0,
              "noteHighLimit": 127,
              "rtr": "PITCH_SHIFT"
            },
            "ctb2High": null,
            "ctb2MiddleLowPitch": 0,
            "ctb2MiddleHighPitch": 127
          },
          "notes": [
            {
              "pitch": 54,
              "velocity": 36,
              "position": 0,
              "duration": 0.00625
            },
            {
              "pitch": 54,
              "velocity": 9,
              "position": 0.21875,
              "duration": 0.00625
            },
            {
              "pitch": 54,
              "velocity": 25,
              "position": 0.33125,
              "duration": 0.00625
            },
            {
              "pitch": 54,
              "velocity": 24,
              "position": 0.55,
              "duration": 0.00625
            },
            {
              "pitch": 54,
              "velocity": 26,
              "position": 0.6666666666666666,
              "duration": 0.00625
            },
            {
              "pitch": 54,
              "velocity": 8,
              "position": 0.8854166666666666,
              "duration": 0.00625
            },
            {
              "pitch": 54,
              "velocity": 90,
              "position": 1,
              "duration": 0.00625
            },
            {
              "pitch": 54,
              "velocity": 13,
              "position": 1.21875,
              "duration": 0.00625
            },
            {
              "pitch": 54,
              "velocity": 25,
              "position": 1.33125,
              "duration": 0.00625
            },
            {
              "pitch": 54,
              "velocity": 10,
              "position": 1.55,
              "duration": 0.00625
            },
            {
              "pitch": 54,
              "velocity": 19,
              "position": 1.6666666666666667,
              "duration": 0.00625
            },
            {
              "pitch": 54,
              "velocity": 10,
              "position": 1.8854166666666667,
              "duration": 0.00625
            },
            {
              "pitch": 54,
              "velocity": 36,
              "position": 2,
              "duration": 0.00625
            },
            {
              "pitch": 54,
              "velocity": 9,
              "position": 2.21875,
              "duration": 0.00625
            },
            {
              "pitch": 54,
              "velocity": 25,
              "position": 2.33125,
              "duration": 0.00625
            },
            {
              "pitch": 54,
              "velocity": 24,
              "position": 2.55,
              "duration": 0.00625
            },
            {
              "pitch": 54,
              "velocity": 26,
              "position": 2.6666666666666665,
              "duration": 0.00625
            },
            {
              "pitch": 54,
              "velocity": 8,
              "position": 2.8854166666666665,
              "duration": 0.00625
            },
            {
              "pitch": 54,
              "velocity": 90,
              "position": 3,
              "duration": 0.00625
            },
            {
              "pitch": 54,
              "velocity": 13,
              "position": 3.21875,
              "duration": 0.00625
            },
            {
              "pitch": 54,
              "velocity": 25,
              "position": 3.33125,
              "duration": 0.00625
            },
            {
              "pitch": 54,
              "velocity": 10,
              "position": 3.55,
              "duration": 0.00625
            },
            {
              "pitch": 54,
              "velocity": 19,
              "position": 3.6666666666666665,
              "duration": 0.00625
            },
            {
              "pitch": 54,
              "velocity": 10,
              "position": 3.8854166666666665,
              "duration": 0.00625
            }
          ]
        },
        "9": {
          "ctab": {
            "srcChannel": 9,
            "name": "MainDrum",
            "accType": "RHYTHM",
            "editable": true,
            "mutedNotes": [],
            "mutedChords": [],
            "autoStart": true,
            "sourceChordNote": 0,
            "sourceChordType": "Maj7",
            "ctb2Low": null,
            "ctb2Main": {
              "ntr": "ROOT_FIXED",
              "ntt": "BYPASS",
              "bassOn": false,
              "chordRootUpperLimit": 6,
              "noteLowLimit": 0,
              "noteHighLimit": 127,
              "rtr": "PITCH_SHIFT"
            },
            "ctb2High": null,
            "ctb2MiddleLowPitch": 0,
            "ctb2MiddleHighPitch": 127
          },
          "notes": [
            {
              "pitch": 33,
              "velocity": 86,
              "position": 0,
              "duration": 0.00625
            },
            {
              "pitch": 44,
              "velocity": 40,
              "position": 0.33125,
              "duration": 0.00625
            },
            {
              "pitch": 31,
              "velocity": 23,
              "position": 0.55,
              "duration": 0.00625
            },
            {
              "pitch": 44,
              "velocity": 60,
              "position": 0.6666666666666666,
              "duration": 0.00625
            },
            {
              "pitch": 31,
              "velocity": 31,
              "position": 0.76875,
              "duration": 0.00625
            },
            {
              "pitch": 33,
              "velocity": 64,
              "position": 0.8854166666666666,
              "duration": 0.00625
            },
            {
              "pitch": 31,
              "velocity": 90,
              "position": 1,
              "duration": 0.00625
            },
            {
              "pitch": 44,
              "velocity": 40,
              "position": 1.33125,
              "duration": 0.00625
            },
            {
              "pitch": 31,
              "velocity": 20,
              "position": 1.55,
              "duration": 0.00625
            },
            {
              "pitch": 44,
              "velocity": 60,
              "position": 1.6666666666666667,
              "duration": 0.00625
            },
            {
              "pitch": 31,
              "velocity": 25,
              "position": 1.76875,
              "duration": 0.00625
            },
            {
              "pitch": 33,
              "velocity": 64,
              "position": 1.8854166666666667,
              "duration": 0.00625
            },
            {
              "pitch": 33,
              "velocity": 86,
              "position": 2,
              "duration": 0.00625
            },
            {
              "pitch": 31,
              "velocity": 38,
              "position": 2.1041666666666665,
              "duration": 0.00625
            },
            {
              "pitch": 45,
              "velocity": 66,
              "position": 2.21875,
              "duration": 0.00625
            },
            {
              "pitch": 44,
              "velocity": 40,
              "position": 2.33125,
              "duration": 0.00625
            },
            {
              "pitch": 31,
              "velocity": 13,
              "position": 2.4375,
              "duration": 0.00625
            },
            {
              "pitch": 47,
              "velocity": 96,
              "position": 2.55,
              "duration": 0.00625
            },
            {
              "pitch": 44,
              "velocity": 60,
              "position": 2.6666666666666665,
              "duration": 0.00625
            },
            {
              "pitch": 31,
              "velocity": 48,
              "position": 2.76875,
              "duration": 0.00625
            },
            {
              "pitch": 31,
              "velocity": 66,
              "position": 2.8854166666666665,
              "duration": 0.00625
            },
            {
              "pitch": 31,
              "velocity": 106,
              "position": 3,
              "duration": 0.00625
            },
            {
              "pitch": 44,
              "velocity": 72,
              "position": 3,
              "duration": 0.00625
            },
            {
              "pitch": 33,
              "velocity": 86,
              "position": 3,
              "duration": 0.00625
            },
            {
              "pitch": 31,
              "velocity": 82,
              "position": 3.1041666666666665,
              "duration": 0.00625
            },
            {
              "pitch": 47,
              "velocity": 52,
              "position": 3.21875,
              "duration": 0.00625
            },
            {
              "pitch": 31,
              "velocity": 32,
              "position": 3.33125,
              "duration": 0.00625
            },
            {
              "pitch": 44,
              "velocity": 40,
              "position": 3.33125,
              "duration": 0.00625
            },
            {
              "pitch": 45,
              "velocity": 80,
              "position": 3.4375,
              "duration": 0.00625
            },
            {
              "pitch": 31,
              "velocity": 24,
              "position": 3.55,
              "duration": 0.00625
            },
            {
              "pitch": 33,
              "velocity": 64,
              "position": 3.6666666666666665,
              "duration": 0.00625
            },
            {
              "pitch": 44,
              "velocity": 60,
              "position": 3.6666666666666665,
              "duration": 0.00625
            },
            {
              "pitch": 41,
              "velocity": 88,
              "position": 3.6666666666666665,
              "duration": 0.00625
            },
            {
              "pitch": 31,
              "velocity": 64,
              "position": 3.76875,
              "duration": 0.00625
            },
            {
              "pitch": 31,
              "velocity": 94,
              "position": 3.8854166666666665,
              "duration": 0.00625
            },
            {
              "pitch": 57,
              "velocity": 80,
              "position": 3.9875,
              "duration": 0.00625
            }
          ]
        },
        "10": {
          "ctab": {
            "srcChannel": 10,
            "name": "Bass A",
            "accType": "BASS",
            "editable": false,
            "mutedNotes": [],
            "mutedChords": [
              "7aug",
              "dim",
              "minMaj7(9)",
              "minMaj7",
              "min(9)",
              "m7b5",
              "min",
              "aug"
            ],
            "autoStart": false,
            "sourceChordNote": 0,
            "sourceChordType": "Maj7",
            "ctb2Low": null,
            "ctb2Main": {
              "ntr": "ROOT_TRANSPOSITION",
              "ntt": "MELODY",
              "bassOn": true,
              "chordRootUpperLimit": 8,
              "noteLowLimit": 28,
              "noteHighLimit": 127,
              "rtr": "PITCH_SHIFT_TO_ROOT"
            },
            "ctb2High": null,
            "ctb2MiddleLowPitch": 0,
            "ctb2MiddleHighPitch": 127
          },
          "notes": [
            {
              "pitch": 24,
              "velocity": 70,
              "position": 0,
              "duration": 0.5333333333333333
            },
            {
              "pitch": 36,
              "velocity": 70,
              "position": 0.55,
              "duration": 0.30625
            },
            {
              "pitch": 24,
              "velocity": 59,
              "position": 0.8854166666666666,
              "duration": 0.0875
            },
            {
              "pitch": 28,
              "velocity": 70,
              "position": 1,
              "duration": 0.5333333333333333
            },
            {
              "pitch": 40,
              "velocity": 70,
              "position": 1.55,
              "duration": 0.30625
            },
            {
              "pitch": 28,
              "velocity": 59,
              "position": 1.8854166666666667,
              "duration": 0.0875
            },
            {
              "pitch": 31,
              "velocity": 70,
              "position": 2,
              "duration": 0.5333333333333333
            },
            {
              "pitch": 43,
              "velocity": 70,
              "position": 2.55,
              "duration": 0.30625
            },
            {
              "pitch": 31,
              "velocity": 59,
              "position": 2.8854166666666665,
              "duration": 0.0875
            },
            {
              "pitch": 33,
              "velocity": 70,
              "position": 3,
              "duration": 0.30625
            },
            {
              "pitch": 36,
              "velocity": 70,
              "position": 3.33125,
              "duration": 0.30625
            },
            {
              "pitch": 33,
              "velocity": 70,
              "position": 3.6666666666666665,
              "duration": 0.30625
            }
          ]
        },
        "11": {
          "ctab": {
            "srcChannel": 11,
            "name": "Solid",
            "accType": "CHORD1",
            "editable": false,
            "mutedNotes": [],
            "mutedChords": [
              "min",
              "Maj"
            ],
            "autoStart": false,
            "sourceChordNote": 0,
            "sourceChordType": "Maj7",
            "ctb2Low": null,
            "ctb2Main": {
              "ntr": "GUITAR",
              "ntt": "ALL_PURPOSE",
              "bassOn": false,
              "chordRootUpperLimit": 7,
              "noteLowLimit": 0,
              "noteHighLimit": 79,
              "rtr": "PITCH_SHIFT"
            },
            "ctb2High": null,
            "ctb2MiddleLowPitch": 0,
            "ctb2MiddleHighPitch": 127
          },
          "notes": [
            {
              "pitch": 100,
              "velocity": 80,
              "position": 0,
              "duration": 0.19166666666666668
            },
            {
              "pitch": 67,
              "velocity": 50,
              "position": 0,
              "duration": 0.30625
            },
            {
              "pitch": 65,
              "velocity": 50,
              "position": 0,
              "duration": 0.30625
            },
            {
              "pitch": 69,
              "velocity": 50,
              "position": 0.010416666666666666,
              "duration": 0.30625
            },
            {
              "pitch": 71,
              "velocity": 50,
              "position": 0.01875,
              "duration": 0.30625
            },
            {
              "pitch": 106,
              "velocity": 35,
              "position": 0.33125,
              "duration": 0.19166666666666668
            },
            {
              "pitch": 65,
              "velocity": 25,
              "position": 0.33125,
              "duration": 0.30625
            },
            {
              "pitch": 67,
              "velocity": 25,
              "position": 0.33125,
              "duration": 0.3104166666666667
            },
            {
              "pitch": 69,
              "velocity": 25,
              "position": 0.34375,
              "duration": 0.30625
            },
            {
              "pitch": 71,
              "velocity": 25,
              "position": 0.35208333333333336,
              "duration": 0.30625
            },
            {
              "pitch": 98,
              "velocity": 55,
              "position": 0.6666666666666666,
              "duration": 0.19166666666666668
            },
            {
              "pitch": 65,
              "velocity": 40,
              "position": 0.6666666666666666,
              "duration": 0.30625
            },
            {
              "pitch": 67,
              "velocity": 40,
              "position": 0.6666666666666666,
              "duration": 0.30833333333333335
            },
            {
              "pitch": 69,
              "velocity": 40,
              "position": 0.675,
              "duration": 0.30625
            },
            {
              "pitch": 71,
              "velocity": 40,
              "position": 0.6833333333333333,
              "duration": 0.30625
            },
            {
              "pitch": 65,
              "velocity": 60,
              "position": 1,
              "duration": 0.03333333333333333
            },
            {
              "pitch": 67,
              "velocity": 60,
              "position": 1,
              "duration": 0.03333333333333333
            },
            {
              "pitch": 69,
              "velocity": 60,
              "position": 1.0104166666666667,
              "duration": 0.035416666666666666
            },
            {
              "pitch": 71,
              "velocity": 60,
              "position": 1.01875,
              "duration": 0.035416666666666666
            },
            {
              "pitch": 100,
              "velocity": 90,
              "position": 1,
              "duration": 0.19166666666666668
            },
            {
              "pitch": 65,
              "velocity": 70,
              "position": 1.33125,
              "duration": 0.027083333333333334
            },
            {
              "pitch": 67,
              "velocity": 70,
              "position": 1.33125,
              "duration": 0.027083333333333334
            },
            {
              "pitch": 69,
              "velocity": 70,
              "position": 1.34375,
              "duration": 0.025
            },
            {
              "pitch": 71,
              "velocity": 70,
              "position": 1.3520833333333333,
              "duration": 0.025
            },
            {
              "pitch": 119,
              "velocity": 85,
              "position": 1.33125,
              "duration": 0.19166666666666668
            },
            {
              "pitch": 100,
              "velocity": 97,
              "position": 1.6666666666666667,
              "duration": 0.19166666666666668
            },
            {
              "pitch": 67,
              "velocity": 117,
              "position": 1.6666666666666667,
              "duration": 0.6395833333333333
            },
            {
              "pitch": 65,
              "velocity": 117,
              "position": 1.6666666666666667,
              "duration": 0.6395833333333333
            },
            {
              "pitch": 69,
              "velocity": 117,
              "position": 1.675,
              "duration": 0.6395833333333333
            },
            {
              "pitch": 71,
              "velocity": 117,
              "position": 1.6833333333333333,
              "duration": 0.6395833333333333
            },
            {
              "pitch": 102,
              "velocity": 97,
              "position": 2.33125,
              "duration": 0.19166666666666668
            },
            {
              "pitch": 65,
              "velocity": 127,
              "position": 2.33125,
              "duration": 0.30625
            },
            {
              "pitch": 67,
              "velocity": 127,
              "position": 2.33125,
              "duration": 0.3104166666666667
            },
            {
              "pitch": 69,
              "velocity": 127,
              "position": 2.34375,
              "duration": 0.30625
            },
            {
              "pitch": 71,
              "velocity": 127,
              "position": 2.3520833333333333,
              "duration": 0.30625
            },
            {
              "pitch": 104,
              "velocity": 70,
              "position": 2.6666666666666665,
              "duration": 0.19166666666666668
            },
            {
              "pitch": 65,
              "velocity": 40,
              "position": 2.6666666666666665,
              "duration": 0.30625
            },
            {
              "pitch": 67,
              "velocity": 40,
              "position": 2.6666666666666665,
              "duration": 0.30833333333333335
            },
            {
              "pitch": 69,
              "velocity": 40,
              "position": 2.675,
              "duration": 0.30625
            },
            {
              "pitch": 71,
              "velocity": 40,
              "position": 2.683333333333333,
              "duration": 0.30625
            },
            {
              "pitch": 65,
              "velocity": 60,
              "position": 3,
              "duration": 0.03333333333333333
            },
            {
              "pitch": 67,
              "velocity": 60,
              "position": 3,
              "duration": 0.03333333333333333
            },
            {
              "pitch": 69,
              "velocity": 60,
              "position": 3.0104166666666665,
              "duration": 0.035416666666666666
            },
            {
              "pitch": 71,
              "velocity": 60,
              "position": 3.01875,
              "duration": 0.035416666666666666
            },
            {
              "pitch": 100,
              "velocity": 90,
              "position": 3,
              "duration": 0.19166666666666668
            },
            {
              "pitch": 65,
              "velocity": 75,
              "position": 3.21875,
              "duration": 0.025
            },
            {
              "pitch": 67,
              "velocity": 75,
              "position": 3.2291666666666665,
              "duration": 0.025
            },
            {
              "pitch": 99,
              "velocity": 105,
              "position": 3.21875,
              "duration": 0.0875
            },
            {
              "pitch": 98,
              "velocity": 70,
              "position": 3.33125,
              "duration": 0.19166666666666668
            },
            {
              "pitch": 65,
              "velocity": 40,
              "position": 3.33125,
              "duration": 0.30625
            },
            {
              "pitch": 67,
              "velocity": 40,
              "position": 3.33125,
              "duration": 0.3104166666666667
            },
            {
              "pitch": 69,
              "velocity": 40,
              "position": 3.34375,
              "duration": 0.30625
            },
            {
              "pitch": 71,
              "velocity": 40,
              "position": 3.3520833333333333,
              "duration": 0.30625
            },
            {
              "pitch": 96,
              "velocity": 55,
              "position": 3.6666666666666665,
              "duration": 0.19166666666666668
            },
            {
              "pitch": 69,
              "velocity": 40,
              "position": 3.675,
              "duration": 0.29583333333333334
            },
            {
              "pitch": 67,
              "velocity": 40,
              "position": 3.6666666666666665,
              "duration": 0.30625
            },
            {
              "pitch": 65,
              "velocity": 40,
              "position": 3.6666666666666665,
              "duration": 0.30625
            },
            {
              "pitch": 71,
              "velocity": 40,
              "position": 3.683333333333333,
              "duration": 0.29583333333333334
            }
          ]
        },
        "12": {
          "ctab": {
            "srcChannel": 12,
            "name": "Pno RH",
            "accType": "CHORD2",
            "editable": false,
            "mutedNotes": [],
            "mutedChords": [
              "min",
              "Maj"
            ],
            "autoStart": false,
            "sourceChordNote": 0,
            "sourceChordType": "Maj7",
            "ctb2Low": null,
            "ctb2Main": {
              "ntr": "ROOT_FIXED",
              "ntt": "CHORD",
              "bassOn": false,
              "chordRootUpperLimit": 7,
              "noteLowLimit": 0,
              "noteHighLimit": 79,
              "rtr": "PITCH_SHIFT"
            },
            "ctb2High": null,
            "ctb2MiddleLowPitch": 0,
            "ctb2MiddleHighPitch": 127
          },
          "notes": [
            {
              "pitch": 64,
              "velocity": 75,
              "position": 0,
              "duration": 0.31875
            },
            {
              "pitch": 71,
              "velocity": 65,
              "position": 0,
              "duration": 0.31875
            },
            {
              "pitch": 67,
              "velocity": 82,
              "position": 0,
              "duration": 0.31875
            },
            {
              "pitch": 64,
              "velocity": 66,
              "position": 0.33125,
              "duration": 0.31875
            },
            {
              "pitch": 71,
              "velocity": 65,
              "position": 0.33125,
              "duration": 0.31875
            },
            {
              "pitch": 67,
              "velocity": 71,
              "position": 0.33125,
              "duration": 0.31875
            },
            {
              "pitch": 64,
              "velocity": 63,
              "position": 0.6666666666666666,
              "duration": 0.31875
            },
            {
              "pitch": 71,
              "velocity": 69,
              "position": 0.6666666666666666,
              "duration": 0.31875
            },
            {
              "pitch": 67,
              "velocity": 61,
              "position": 0.6666666666666666,
              "duration": 0.31875
            },
            {
              "pitch": 64,
              "velocity": 77,
              "position": 1,
              "duration": 0.31875
            },
            {
              "pitch": 71,
              "velocity": 77,
              "position": 1,
              "duration": 0.31875
            },
            {
              "pitch": 67,
              "velocity": 82,
              "position": 1,
              "duration": 0.31875
            },
            {
              "pitch": 76,
              "velocity": 77,
              "position": 1.33125,
              "duration": 0.31875
            },
            {
              "pitch": 79,
              "velocity": 77,
              "position": 1.33125,
              "duration": 0.31875
            },
            {
              "pitch": 83,
              "velocity": 78,
              "position": 1.33125,
              "duration": 0.31875
            },
            {
              "pitch": 71,
              "velocity": 85,
              "position": 1.6666666666666667,
              "duration": 0.31875
            },
            {
              "pitch": 79,
              "velocity": 94,
              "position": 1.6666666666666667,
              "duration": 0.31875
            },
            {
              "pitch": 76,
              "velocity": 99,
              "position": 1.6666666666666667,
              "duration": 0.31875
            },
            {
              "pitch": 67,
              "velocity": 77,
              "position": 1.55,
              "duration": 0.6520833333333333
            },
            {
              "pitch": 79,
              "velocity": 69,
              "position": 2,
              "duration": 0.31875
            },
            {
              "pitch": 67,
              "velocity": 77,
              "position": 2.21875,
              "duration": 0.1
            },
            {
              "pitch": 71,
              "velocity": 69,
              "position": 2,
              "duration": 0.31875
            },
            {
              "pitch": 76,
              "velocity": 69,
              "position": 2,
              "duration": 0.31875
            },
            {
              "pitch": 67,
              "velocity": 85,
              "position": 2.33125,
              "duration": 0.31875
            },
            {
              "pitch": 76,
              "velocity": 95,
              "position": 2.33125,
              "duration": 0.31875
            },
            {
              "pitch": 71,
              "velocity": 95,
              "position": 2.33125,
              "duration": 0.31875
            },
            {
              "pitch": 60,
              "velocity": 77,
              "position": 2.55,
              "duration": 0.31875
            },
            {
              "pitch": 76,
              "velocity": 96,
              "position": 2.6666666666666665,
              "duration": 0.31875
            },
            {
              "pitch": 72,
              "velocity": 86,
              "position": 2.6666666666666665,
              "duration": 0.31875
            },
            {
              "pitch": 67,
              "velocity": 84,
              "position": 2.6666666666666665,
              "duration": 0.31875
            },
            {
              "pitch": 60,
              "velocity": 77,
              "position": 2.8854166666666665,
              "duration": 0.31875
            },
            {
              "pitch": 71,
              "velocity": 90,
              "position": 3,
              "duration": 0.31875
            },
            {
              "pitch": 67,
              "velocity": 95,
              "position": 3,
              "duration": 0.31875
            },
            {
              "pitch": 64,
              "velocity": 75,
              "position": 3,
              "duration": 0.31875
            },
            {
              "pitch": 60,
              "velocity": 77,
              "position": 3.21875,
              "duration": 0.31875
            },
            {
              "pitch": 71,
              "velocity": 69,
              "position": 3.33125,
              "duration": 0.31875
            },
            {
              "pitch": 67,
              "velocity": 69,
              "position": 3.33125,
              "duration": 0.31875
            },
            {
              "pitch": 64,
              "velocity": 69,
              "position": 3.33125,
              "duration": 0.31875
            },
            {
              "pitch": 60,
              "velocity": 77,
              "position": 3.55,
              "duration": 0.31875
            },
            {
              "pitch": 48,
              "velocity": 80,
              "position": 2.20625,
              "duration": 1.76875
            },
            {
              "pitch": 60,
              "velocity": 77,
              "position": 3.8854166666666665,
              "duration": 0.1
            },
            {
              "pitch": 67,
              "velocity": 99,
              "position": 3.6666666666666665,
              "duration": 0.31875
            },
            {
              "pitch": 64,
              "velocity": 96,
              "position": 3.6666666666666665,
              "duration": 0.31875
            },
            {
              "pitch": 71,
              "velocity": 99,
              "position": 3.6666666666666665,
              "duration": 0.31875
            }
          ]
        },
        "13": {
          "ctab": {
            "srcChannel": 13,
            "name": "Organ1",
            "accType": "PAD",
            "editable": false,
            "mutedNotes": [],
            "mutedChords": [],
            "autoStart": false,
            "sourceChordNote": 0,
            "sourceChordType": "Maj7",
            "ctb2Low": null,
            "ctb2Main": {
              "ntr": "ROOT_FIXED",
              "ntt": "CHORD",
              "bassOn": false,
              "chordRootUpperLimit": 7,
              "noteLowLimit": 0,
              "noteHighLimit": 127,
              "rtr": "PITCH_SHIFT"
            },
            "ctb2High": null,
            "ctb2MiddleLowPitch": 0,
            "ctb2MiddleHighPitch": 127
          },
          "notes": [
            {
              "pitch": 67,
              "velocity": 64,
              "position": 0,
              "duration": 0.9875
            },
            {
              "pitch": 76,
              "velocity": 64,
              "position": 0,
              "duration": 0.9875
            },
            {
              "pitch": 71,
              "velocity": 64,
              "position": 0,
              "duration": 0.9875
            },
            {
              "pitch": 67,
              "velocity": 64,
              "position": 1,
              "duration": 2.970833333333333
            },
            {
              "pitch": 76,
              "velocity": 64,
              "position": 1,
              "duration": 2.970833333333333
            },
            {
              "pitch": 71,
              "velocity": 64,
              "position": 1,
              "duration": 2.970833333333333
            }
          ]
        },
        "14": {
          "ctab": {
            "srcChannel": 14,
            "name": "Tele",
            "accType": "PHRASE1",
            "editable": false,
            "mutedNotes": [],
            "mutedChords": [
              "min",
              "Maj"
            ],
            "autoStart": false,
            "sourceChordNote": 0,
            "sourceChordType": "Maj7",
            "ctb2Low": null,
            "ctb2Main": {
              "ntr": "ROOT_TRANSPOSITION",
              "ntt": "MELODY",
              "bassOn": false,
              "chordRootUpperLimit": 4,
              "noteLowLimit": 0,
              "noteHighLimit": 127,
              "rtr": "PITCH_SHIFT"
            },
            "ctb2High": null,
            "ctb2MiddleLowPitch": 0,
            "ctb2MiddleHighPitch": 127
          },
          "notes": [
            {
              "pitch": 67,
              "velocity": 115,
              "position": 0,
              "duration": 0.6395833333333333
            },
            {
              "pitch": 71,
              "velocity": 26,
              "position": 0.33125,
              "duration": 0.6395833333333333
            },
            {
              "pitch": 67,
              "velocity": 116,
              "position": 0.6666666666666666,
              "duration": 0.6395833333333333
            },
            {
              "pitch": 67,
              "velocity": 116,
              "position": 1.33125,
              "duration": 0.30625
            },
            {
              "pitch": 71,
              "velocity": 26,
              "position": 1,
              "duration": 0.6395833333333333
            },
            {
              "pitch": 67,
              "velocity": 26,
              "position": 1.6666666666666667,
              "duration": 0.30625
            },
            {
              "pitch": 71,
              "velocity": 26,
              "position": 1.6666666666666667,
              "duration": 0.47291666666666665
            },
            {
              "pitch": 71,
              "velocity": 26,
              "position": 2.1666666666666665,
              "duration": 0.13958333333333334
            },
            {
              "pitch": 67,
              "velocity": 116,
              "position": 2,
              "duration": 0.4708333333333333
            },
            {
              "pitch": 71,
              "velocity": 32,
              "position": 2.33125,
              "duration": 0.30625
            },
            {
              "pitch": 71,
              "velocity": 26,
              "position": 2.6666666666666665,
              "duration": 0.13958333333333334
            },
            {
              "pitch": 67,
              "velocity": 116,
              "position": 2.5,
              "duration": 0.4708333333333333
            },
            {
              "pitch": 71,
              "velocity": 36,
              "position": 2.83125,
              "duration": 0.30625
            },
            {
              "pitch": 67,
              "velocity": 116,
              "position": 3,
              "duration": 0.30625
            },
            {
              "pitch": 71,
              "velocity": 26,
              "position": 3.1666666666666665,
              "duration": 0.30625
            },
            {
              "pitch": 67,
              "velocity": 116,
              "position": 3.33125,
              "duration": 0.30625
            },
            {
              "pitch": 71,
              "velocity": 26,
              "position": 3.5,
              "duration": 0.4708333333333333
            },
            {
              "pitch": 67,
              "velocity": 116,
              "position": 3.6666666666666665,
              "duration": 0.30625
            }
          ]
        },
        "15": {
          "ctab": {
            "srcChannel": 15,
            "name": "E.P",
            "accType": "PHRASE2",
            "editable": false,
            "mutedNotes": [],
            "mutedChords": [
              "min",
              "Maj"
            ],
            "autoStart": false,
            "sourceChordNote": 0,
            "sourceChordType": "Maj7",
            "ctb2Low": null,
            "ctb2Main": {
              "ntr": "ROOT_FIXED",
              "ntt": "CHORD",
              "bassOn": false,
              "chordRootUpperLimit": 7,
              "noteLowLimit": 0,
              "noteHighLimit": 127,
              "rtr": "PITCH_SHIFT"
            },
            "ctb2High": null,
            "ctb2MiddleLowPitch": 0,
            "ctb2MiddleHighPitch": 127
          },
          "notes": [
            {
              "pitch": 59,
              "velocity": 34,
              "position": 0,
              "duration": 0.525
            },
            {
              "pitch": 67,
              "velocity": 40,
              "position": 0,
              "duration": 0.6395833333333333
            },
            {
              "pitch": 64,
              "velocity": 34,
              "position": 0,
              "duration": 0.6395833333333333
            },
            {
              "pitch": 59,
              "velocity": 54,
              "position": 0.55,
              "duration": 0.42083333333333334
            },
            {
              "pitch": 67,
              "velocity": 61,
              "position": 0.6666666666666666,
              "duration": 0.30625
            },
            {
              "pitch": 64,
              "velocity": 69,
              "position": 0.6666666666666666,
              "duration": 0.30625
            },
            {
              "pitch": 59,
              "velocity": 79,
              "position": 1,
              "duration": 0.525
            },
            {
              "pitch": 67,
              "velocity": 107,
              "position": 1,
              "duration": 0.6395833333333333
            },
            {
              "pitch": 64,
              "velocity": 99,
              "position": 1,
              "duration": 0.6395833333333333
            },
            {
              "pitch": 59,
              "velocity": 55,
              "position": 1.55,
              "duration": 0.42083333333333334
            },
            {
              "pitch": 67,
              "velocity": 65,
              "position": 1.6666666666666667,
              "duration": 0.30625
            },
            {
              "pitch": 64,
              "velocity": 71,
              "position": 1.6666666666666667,
              "duration": 0.30625
            },
            {
              "pitch": 59,
              "velocity": 53,
              "position": 2,
              "duration": 0.525
            },
            {
              "pitch": 67,
              "velocity": 48,
              "position": 2,
              "duration": 0.6395833333333333
            },
            {
              "pitch": 64,
              "velocity": 53,
              "position": 2,
              "duration": 0.6395833333333333
            },
            {
              "pitch": 59,
              "velocity": 55,
              "position": 2.55,
              "duration": 0.30625
            },
            {
              "pitch": 67,
              "velocity": 76,
              "position": 2.6666666666666665,
              "duration": 0.30625
            },
            {
              "pitch": 64,
              "velocity": 79,
              "position": 2.6666666666666665,
              "duration": 0.30625
            },
            {
              "pitch": 59,
              "velocity": 59,
              "position": 2.8854166666666665,
              "duration": 0.30625
            },
            {
              "pitch": 67,
              "velocity": 107,
              "position": 3,
              "duration": 0.30625
            },
            {
              "pitch": 64,
              "velocity": 95,
              "position": 3,
              "duration": 0.30625
            },
            {
              "pitch": 59,
              "velocity": 54,
              "position": 3.21875,
              "duration": 0.30625
            },
            {
              "pitch": 67,
              "velocity": 65,
              "position": 3.33125,
              "duration": 0.30625
            },
            {
              "pitch": 64,
              "velocity": 56,
              "position": 3.33125,
              "duration": 0.30625
            },
            {
              "pitch": 59,
              "velocity": 54,
              "position": 3.55,
              "duration": 0.42083333333333334
            },
            {
              "pitch": 67,
              "velocity": 61,
              "position": 3.6666666666666665,
              "duration": 0.30625
            },
            {
              "pitch": 64,
              "velocity": 67,
              "position": 3.6666666666666665,
              "duration": 0.30625
            }
          ]
        }
      }
    },
    "Fill_In_DD": {
      "type": "Fill_In_DD",
      "sizeInBeats": 4,
      "channels": {
        "0": {
          "ctab": {
            "srcChannel": 0,
            "name": "Pno LH",
            "accType": "CHORD2",
            "editable": false,
            "mutedNotes": [],
            "mutedChords": [],
            "autoStart": false,
            "sourceChordNote": 0,
            "sourceChordType": "Maj7",
            "ctb2Low": null,
            "ctb2Main": {
              "ntr": "ROOT_TRANSPOSITION",
              "ntt": "MELODY",
              "bassOn": true,
              "chordRootUpperLimit": 8,
              "noteLowLimit": 0,
              "noteHighLimit": 127,
              "rtr": "PITCH_SHIFT_TO_ROOT"
            },
            "ctb2High": null,
            "ctb2MiddleLowPitch": 0,
            "ctb2MiddleHighPitch": 127
          },
          "notes": [
            {
              "pitch": 36,
              "velocity": 99,
              "position": 1.20625,
              "duration": 1.9875
            },
            {
              "pitch": 36,
              "velocity": 80,
              "position": 3.20625,
              "duration": 0.44375
            },
            {
              "pitch": 36,
              "velocity": 80,
              "position": 3.6666666666666665,
              "duration": 0.30833333333333335
            }
          ]
        },
        "1": {
          "ctab": {
            "srcChannel": 1,
            "name": "Bass B",
            "accType": "BASS",
            "editable": false,
            "mutedNotes": [],
            "mutedChords": [
              "1+2+5",
              "sus4",
              "1+5",
              "1+8",
              "Maj7aug",
              "7(#9)",
              "7(b13)",
              "7(b9)",
              "7(13)",
              "7#11",
              "7(9)",
              "7b5",
              "7sus4",
              "7th",
              "dim7",
              "min7(11)",
              "min7(9)",
              "min7",
              "min6",
              "Maj6(9)",
              "Maj7(9)",
              "Maj(9)",
              "Maj7#11",
              "Maj7",
              "Maj6",
              "Maj"
            ],
            "autoStart": false,
            "sourceChordNote": 0,
            "sourceChordType": "Maj7",
            "ctb2Low": null,
            "ctb2Main": {
              "ntr": "ROOT_TRANSPOSITION",
              "ntt": "MELODY",
              "bassOn": true,
              "chordRootUpperLimit": 8,
              "noteLowLimit": 28,
              "noteHighLimit": 127,
              "rtr": "PITCH_SHIFT_TO_ROOT"
            },
            "ctb2High": null,
            "ctb2MiddleLowPitch": 0,
            "ctb2MiddleHighPitch": 127
          },
          "notes": [
            {
              "pitch": 24,
              "velocity": 70,
              "position": 0,
              "duration": 0.5875
            },
            {
              "pitch": 24,
              "velocity": 59,
              "position": 0.6666666666666666,
              "duration": 0.25416666666666665
            },
            {
              "pitch": 24,
              "velocity": 70,
              "position": 1,
              "duration": 0.2520833333333333
            },
            {
              "pitch": 24,
              "velocity": 59,
              "position": 1.33125,
              "duration": 0.30625
            },
            {
              "pitch": 24,
              "velocity": 59,
              "position": 1.6666666666666667,
              "duration": 0.30625
            },
            {
              "pitch": 24,
              "velocity": 70,
              "position": 2,
              "duration": 0.30625
            },
            {
              "pitch": 24,
              "velocity": 59,
              "position": 2.33125,
              "duration": 0.30625
            },
            {
              "pitch": 31,
              "velocity": 59,
              "position": 2.6666666666666665,
              "duration": 0.30625
            },
            {
              "pitch": 36,
              "velocity": 70,
              "position": 3,
              "duration": 0.30625
            },
            {
              "pitch": 31,
              "velocity": 59,
              "position": 3.33125,
              "duration": 0.30625
            },
            {
              "pitch": 28,
              "velocity": 59,
              "position": 3.6666666666666665,
              "duration": 0.30625
            }
          ]
        },
        "3": {
          "ctab": {
            "srcChannel": 3,
            "name": "Pno RH S",
            "accType": "CHORD2",
            "editable": false,
            "mutedNotes": [],
            "mutedChords": [
              "1+2+5",
              "sus4",
              "1+5",
              "1+8",
              "7aug",
              "Maj7aug",
              "7(#9)",
              "7(b13)",
              "7(b9)",
              "7(13)",
              "7#11",
              "7(9)",
              "7b5",
              "7sus4",
              "7th",
              "dim7",
              "dim",
              "minMaj7(9)",
              "minMaj7",
              "min7(11)",
              "min7(9)",
              "min(9)",
              "m7b5",
              "min7",
              "min6",
              "aug",
              "Maj6(9)",
              "Maj7(9)",
              "Maj(9)",
              "Maj7#11",
              "Maj7",
              "Maj6"
            ],
            "autoStart": false,
            "sourceChordNote": 0,
            "sourceChordType": "Maj7",
            "ctb2Low": null,
            "ctb2Main": {
              "ntr": "ROOT_TRANSPOSITION",
              "ntt": "DORIAN_5",
              "bassOn": false,
              "chordRootUpperLimit": 11,
              "noteLowLimit": 58,
              "noteHighLimit": 79,
              "rtr": "PITCH_SHIFT"
            },
            "ctb2High": null,
            "ctb2MiddleLowPitch": 0,
            "ctb2MiddleHighPitch": 127
          },
          "notes": [
            {
              "pitch": 46,
              "velocity": 75,
              "position": 0,
              "duration": 0.31875
            },
            {
              "pitch": 55,
              "velocity": 82,
              "position": 0,
              "duration": 0.31875
            },
            {
              "pitch": 52,
              "velocity": 75,
              "position": 0,
              "duration": 0.31875
            },
            {
              "pitch": 48,
              "velocity": 65,
              "position": 0,
              "duration": 0.31875
            },
            {
              "pitch": 46,
              "velocity": 66,
              "position": 0.33125,
              "duration": 0.31875
            },
            {
              "pitch": 55,
              "velocity": 71,
              "position": 0.33125,
              "duration": 0.31875
            },
            {
              "pitch": 52,
              "velocity": 66,
              "position": 0.33125,
              "duration": 0.31875
            },
            {
              "pitch": 48,
              "velocity": 65,
              "position": 0.33125,
              "duration": 0.31875
            },
            {
              "pitch": 46,
              "velocity": 63,
              "position": 0.6666666666666666,
              "duration": 0.31875
            },
            {
              "pitch": 55,
              "velocity": 61,
              "position": 0.6666666666666666,
              "duration": 0.31875
            },
            {
              "pitch": 52,
              "velocity": 63,
              "position": 0.6666666666666666,
              "duration": 0.31875
            },
            {
              "pitch": 48,
              "velocity": 69,
              "position": 0.6666666666666666,
              "duration": 0.31875
            },
            {
              "pitch": 46,
              "velocity": 77,
              "position": 1,
              "duration": 0.31875
            },
            {
              "pitch": 55,
              "velocity": 82,
              "position": 1,
              "duration": 0.31875
            },
            {
              "pitch": 52,
              "velocity": 77,
              "position": 1,
              "duration": 0.31875
            },
            {
              "pitch": 48,
              "velocity": 77,
              "position": 1,
              "duration": 0.31875
            },
            {
              "pitch": 78,
              "velocity": 77,
              "position": 1.33125,
              "duration": 0.04791666666666667
            },
            {
              "pitch": 82,
              "velocity": 78,
              "position": 1.33125,
              "duration": 0.225
            },
            {
              "pitch": 74,
              "velocity": 77,
              "position": 1.33125,
              "duration": 0.225
            },
            {
              "pitch": 79,
              "velocity": 77,
              "position": 1.3854166666666667,
              "duration": 0.17291666666666666
            },
            {
              "pitch": 55,
              "velocity": 77,
              "position": 1.55,
              "duration": 0.1
            },
            {
              "pitch": 72,
              "velocity": 85,
              "position": 1.6666666666666667,
              "duration": 0.26666666666666666
            },
            {
              "pitch": 81,
              "velocity": 94,
              "position": 1.6666666666666667,
              "duration": 0.26666666666666666
            },
            {
              "pitch": 77,
              "velocity": 99,
              "position": 1.6666666666666667,
              "duration": 0.26666666666666666
            },
            {
              "pitch": 70,
              "velocity": 87,
              "position": 2,
              "duration": 0.225
            },
            {
              "pitch": 76,
              "velocity": 87,
              "position": 2,
              "duration": 0.225
            },
            {
              "pitch": 79,
              "velocity": 87,
              "position": 2,
              "duration": 0.225
            },
            {
              "pitch": 55,
              "velocity": 77,
              "position": 2.21875,
              "duration": 0.1
            },
            {
              "pitch": 69,
              "velocity": 66,
              "position": 2.33125,
              "duration": 0.26875
            },
            {
              "pitch": 74,
              "velocity": 77,
              "position": 2.33125,
              "duration": 0.26875
            },
            {
              "pitch": 77,
              "velocity": 77,
              "position": 2.33125,
              "duration": 0.26875
            },
            {
              "pitch": 75,
              "velocity": 96,
              "position": 2.6666666666666665,
              "duration": 0.04791666666666667
            },
            {
              "pitch": 76,
              "velocity": 83,
              "position": 2.70625,
              "duration": 0.13125
            },
            {
              "pitch": 67,
              "velocity": 84,
              "position": 2.6666666666666665,
              "duration": 0.18333333333333332
            },
            {
              "pitch": 72,
              "velocity": 86,
              "position": 2.6666666666666665,
              "duration": 0.18333333333333332
            },
            {
              "pitch": 48,
              "velocity": 77,
              "position": 2.55,
              "duration": 0.31875
            },
            {
              "pitch": 75,
              "velocity": 96,
              "position": 3,
              "duration": 0.04583333333333333
            },
            {
              "pitch": 48,
              "velocity": 77,
              "position": 2.8854166666666665,
              "duration": 0.31875
            },
            {
              "pitch": 65,
              "velocity": 75,
              "position": 3,
              "duration": 0.31875
            },
            {
              "pitch": 74,
              "velocity": 95,
              "position": 3.0416666666666665,
              "duration": 0.27708333333333335
            },
            {
              "pitch": 70,
              "velocity": 90,
              "position": 3,
              "duration": 0.31875
            },
            {
              "pitch": 65,
              "velocity": 69,
              "position": 3.33125,
              "duration": 0.15208333333333332
            },
            {
              "pitch": 72,
              "velocity": 69,
              "position": 3.33125,
              "duration": 0.15208333333333332
            },
            {
              "pitch": 69,
              "velocity": 69,
              "position": 3.33125,
              "duration": 0.15208333333333332
            },
            {
              "pitch": 48,
              "velocity": 77,
              "position": 3.21875,
              "duration": 0.31875
            },
            {
              "pitch": 48,
              "velocity": 77,
              "position": 3.55,
              "duration": 0.31875
            },
            {
              "pitch": 72,
              "velocity": 99,
              "position": 3.6666666666666665,
              "duration": 0.31875
            },
            {
              "pitch": 48,
              "velocity": 74,
              "position": 3.8854166666666665,
              "duration": 0.1
            },
            {
              "pitch": 67,
              "velocity": 99,
              "position": 3.6666666666666665,
              "duration": 0.31875
            },
            {
              "pitch": 64,
              "velocity": 96,
              "position": 3.6666666666666665,
              "duration": 0.31875
            }
          ]
        },
        "5": {
          "ctab": {
            "srcChannel": 5,
            "name": "Tele S M",
            "accType": "PHRASE1",
            "editable": false,
            "mutedNotes": [],
            "mutedChords": [
              "1+2+5",
              "sus4",
              "1+5",
              "1+8",
              "7aug",
              "Maj7aug",
              "7(#9)",
              "7(b13)",
              "7(b9)",
              "7(13)",
              "7#11",
              "7(9)",
              "7b5",
              "7sus4",
              "7th",
              "dim7",
              "dim",
              "minMaj7(9)",
              "minMaj7",
              "min7(11)",
              "min7(9)",
              "min(9)",
              "m7b5",
              "min7",
              "min6",
              "min",
              "aug",
              "Maj6(9)",
              "Maj7(9)",
              "Maj(9)",
              "Maj7#11",
              "Maj7",
              "Maj6"
            ],
            "autoStart": false,
            "sourceChordNote": 0,
            "sourceChordType": "Maj7",
            "ctb2Low": null,
            "ctb2Main": {
              "ntr": "ROOT_TRANSPOSITION",
              "ntt": "DORIAN_5",
              "bassOn": false,
              "chordRootUpperLimit": 4,
              "noteLowLimit": 0,
              "noteHighLimit": 127,
              "rtr": "PITCH_SHIFT"
            },
            "ctb2High": {
              "ntr": "ROOT_FIXED",
              "ntt": "BYPASS",
              "bassOn": false,
              "chordRootUpperLimit": 4,
              "noteLowLimit": 0,
              "noteHighLimit": 127,
              "rtr": "PITCH_SHIFT"
            },
            "ctb2MiddleLowPitch": 0,
            "ctb2MiddleHighPitch": 95
          },
          "notes": [
            {
              "pitch": 60,
              "velocity": 116,
              "position": 0.0020833333333333333,
              "duration": 0.9708333333333333
            },
            {
              "pitch": 55,
              "velocity": 36,
              "position": 1,
              "duration": 0.30625
            },
            {
              "pitch": 57,
              "velocity": 16,
              "position": 1.33125,
              "duration": 0.30625
            },
            {
              "pitch": 60,
              "velocity": 36,
              "position": 1.6666666666666667,
              "duration": 1.3041666666666667
            },
            {
              "pitch": 63,
              "velocity": 24,
              "position": 3,
              "duration": 0.6395833333333333
            },
            {
              "pitch": 62,
              "velocity": 16,
              "position": 3.6666666666666665,
              "duration": 0.30625
            }
          ]
        },
        "6": {
          "ctab": {
            "srcChannel": 6,
            "name": "E.P  S",
            "accType": "PHRASE2",
            "editable": false,
            "mutedNotes": [],
            "mutedChords": [
              "1+2+5",
              "sus4",
              "1+5",
              "1+8",
              "7aug",
              "Maj7aug",
              "7(#9)",
              "7(b13)",
              "7(b9)",
              "7(13)",
              "7#11",
              "7(9)",
              "7b5",
              "7sus4",
              "7th",
              "dim7",
              "dim",
              "minMaj7(9)",
              "minMaj7",
              "min7(11)",
              "min7(9)",
              "min(9)",
              "m7b5",
              "min7",
              "min6",
              "aug",
              "Maj6(9)",
              "Maj7(9)",
              "Maj(9)",
              "Maj7#11",
              "Maj7",
              "Maj6"
            ],
            "autoStart": false,
            "sourceChordNote": 0,
            "sourceChordType": "Maj7",
            "ctb2Low": null,
            "ctb2Main": {
              "ntr": "ROOT_TRANSPOSITION",
              "ntt": "DORIAN_5",
              "bassOn": false,
              "chordRootUpperLimit": 4,
              "noteLowLimit": 0,
              "noteHighLimit": 127,
              "rtr": "PITCH_SHIFT"
            },
            "ctb2High": null,
            "ctb2MiddleLowPitch": 0,
            "ctb2MiddleHighPitch": 127
          },
          "notes": [
            {
              "pitch": 58,
              "velocity": 67,
              "position": 0,
              "duration": 3.30625
            },
            {
              "pitch": 67,
              "velocity": 67,
              "position": 0,
              "duration": 3.30625
            },
            {
              "pitch": 64,
              "velocity": 69,
              "position": 0,
              "duration": 3.30625
            },
            {
              "pitch": 60,
              "velocity": 67,
              "position": 0,
              "duration": 3.30625
            },
            {
              "pitch": 60,
              "velocity": 71,
              "position": 3.33125,
              "duration": 0.30625
            },
            {
              "pitch": 69,
              "velocity": 53,
              "position": 3.33125,
              "duration": 0.30625
            },
            {
              "pitch": 65,
              "velocity": 65,
              "position": 3.33125,
              "duration": 0.30625
            },
            {
              "pitch": 58,
              "velocity": 71,
              "position": 3.6666666666666665,
              "duration": 0.30625
            },
            {
              "pitch": 67,
              "velocity": 53,
              "position": 3.6666666666666665,
              "duration": 0.30625
            },
            {
              "pitch": 64,
              "velocity": 65,
              "position": 3.6666666666666665,
              "duration": 0.30625
            },
            {
              "pitch": 60,
              "velocity": 71,
              "position": 3.6666666666666665,
              "duration": 0.30625
            }
          ]
        },
        "7": {
          "ctab": {
            "srcChannel": 7,
            "name": "Tele S m",
            "accType": "PHRASE1",
            "editable": false,
            "mutedNotes": [],
            "mutedChords": [
              "1+2+5",
              "sus4",
              "1+5",
              "1+8",
              "7aug",
              "Maj7aug",
              "7(#9)",
              "7(b13)",
              "7(b9)",
              "7(13)",
              "7#11",
              "7(9)",
              "7b5",
              "7sus4",
              "7th",
              "dim7",
              "dim",
              "minMaj7(9)",
              "minMaj7",
              "min7(11)",
              "min7(9)",
              "min(9)",
              "m7b5",
              "min7",
              "min6",
              "aug",
              "Maj6(9)",
              "Maj7(9)",
              "Maj(9)",
              "Maj7#11",
              "Maj7",
              "Maj6",
              "Maj"
            ],
            "autoStart": false,
            "sourceChordNote": 0,
            "sourceChordType": "Maj7",
            "ctb2Low": null,
            "ctb2Main": {
              "ntr": "ROOT_TRANSPOSITION",
              "ntt": "DORIAN_5",
              "bassOn": false,
              "chordRootUpperLimit": 4,
              "noteLowLimit": 0,
              "noteHighLimit": 127,
              "rtr": "PITCH_SHIFT"
            },
            "ctb2High": {
              "ntr": "ROOT_FIXED",
              "ntt": "BYPASS",
              "bassOn": false,
              "chordRootUpperLimit": 4,
              "noteLowLimit": 0,
              "noteHighLimit": 127,
              "rtr": "PITCH_SHIFT"
            },
            "ctb2MiddleLowPitch": 0,
            "ctb2MiddleHighPitch": 95
          },
          "notes": [
            {
              "pitch": 60,
              "velocity": 116,
              "position": 0,
              "duration": 0.9708333333333333
            },
            {
              "pitch": 55,
              "velocity": 36,
              "position": 1,
              "duration": 0.30625
            },
            {
              "pitch": 58,
              "velocity": 16,
              "position": 1.33125,
              "duration": 0.30625
            },
            {
              "pitch": 60,
              "velocity": 36,
              "position": 1.6666666666666667,
              "duration": 1.3041666666666667
            },
            {
              "pitch": 66,
              "velocity": 24,
              "position": 3,
              "duration": 0.6395833333333333
            },
            {
              "pitch": 65,
              "velocity": 16,
              "position": 3.6666666666666665,
              "duration": 0.30625
            }
          ]
        },
        "8": {
          "ctab": {
            "srcChannel": 8,
            "name": "AddDrum",
            "accType": "SUBRHYTHM",
            "editable": true,
            "mutedNotes": [],
            "mutedChords": [],
            "autoStart": true,
            "sourceChordNote": 0,
            "sourceChordType": "Maj7",
            "ctb2Low": null,
            "ctb2Main": {
              "ntr": "ROOT_FIXED",
              "ntt": "BYPASS",
              "bassOn": false,
              "chordRootUpperLimit": 6,
              "noteLowLimit": 0,
              "noteHighLimit": 127,
              "rtr": "PITCH_SHIFT"
            },
            "ctb2High": null,
            "ctb2MiddleLowPitch": 0,
            "ctb2MiddleHighPitch": 127
          },
          "notes": [
            {
              "pitch": 54,
              "velocity": 36,
              "position": 0,
              "duration": 0.00625
            },
            {
              "pitch": 54,
              "velocity": 25,
              "position": 0.33125,
              "duration": 0.00625
            },
            {
              "pitch": 54,
              "velocity": 26,
              "position": 0.6666666666666666,
              "duration": 0.00625
            },
            {
              "pitch": 54,
              "velocity": 90,
              "position": 1,
              "duration": 0.00625
            },
            {
              "pitch": 54,
              "velocity": 25,
              "position": 1.33125,
              "duration": 0.00625
            },
            {
              "pitch": 54,
              "velocity": 19,
              "position": 1.6666666666666667,
              "duration": 0.00625
            },
            {
              "pitch": 54,
              "velocity": 36,
              "position": 2,
              "duration": 0.00625
            },
            {
              "pitch": 54,
              "velocity": 25,
              "position": 2.33125,
              "duration": 0.00625
            },
            {
              "pitch": 54,
              "velocity": 26,
              "position": 2.6666666666666665,
              "duration": 0.00625
            },
            {
              "pitch": 54,
              "velocity": 90,
              "position": 3,
              "duration": 0.00625
            },
            {
              "pitch": 54,
              "velocity": 25,
              "position": 3.33125,
              "duration": 0.00625
            },
            {
              "pitch": 54,
              "velocity": 19,
              "position": 3.6666666666666665,
              "duration": 0.00625
            }
          ]
        },
        "9": {
          "ctab": {
            "srcChannel": 9,
            "name": "MainDrum",
            "accType": "RHYTHM",
            "editable": true,
            "mutedNotes": [],
            "mutedChords": [],
            "autoStart": true,
            "sourceChordNote": 0,
            "sourceChordType": "Maj7",
            "ctb2Low": null,
            "ctb2Main": {
              "ntr": "ROOT_FIXED",
              "ntt": "BYPASS",
              "bassOn": false,
              "chordRootUpperLimit": 6,
              "noteLowLimit": 0,
              "noteHighLimit": 127,
              "rtr": "PITCH_SHIFT"
            },
            "ctb2High": null,
            "ctb2MiddleLowPitch": 0,
            "ctb2MiddleHighPitch": 127
          },
          "notes": [
            {
              "pitch": 33,
              "velocity": 86,
              "position": 0,
              "duration": 0.00625
            },
            {
              "pitch": 42,
              "velocity": 84,
              "position": 0,
              "duration": 0.00625
            },
            {
              "pitch": 31,
              "velocity": 24,
              "position": 0.21875,
              "duration": 0.00625
            },
            {
              "pitch": 42,
              "velocity": 68,
              "position": 0.33125,
              "duration": 0.00625
            },
            {
              "pitch": 42,
              "velocity": 40,
              "position": 0.4375,
              "duration": 0.00625
            },
            {
              "pitch": 31,
              "velocity": 64,
              "position": 0.55,
              "duration": 0.00625
            },
            {
              "pitch": 42,
              "velocity": 64,
              "position": 0.6666666666666666,
              "duration": 0.00625
            },
            {
              "pitch": 31,
              "velocity": 24,
              "position": 0.76875,
              "duration": 0.00625
            },
            {
              "pitch": 33,
              "velocity": 64,
              "position": 0.8854166666666666,
              "duration": 0.00625
            },
            {
              "pitch": 31,
              "velocity": 102,
              "position": 1,
              "duration": 0.00625
            },
            {
              "pitch": 44,
              "velocity": 80,
              "position": 1,
              "duration": 0.00625
            },
            {
              "pitch": 33,
              "velocity": 86,
              "position": 1,
              "duration": 0.00625
            },
            {
              "pitch": 46,
              "velocity": 44,
              "position": 1.33125,
              "duration": 0.00625
            },
            {
              "pitch": 31,
              "velocity": 22,
              "position": 1.4375,
              "duration": 0.00625
            },
            {
              "pitch": 33,
              "velocity": 64,
              "position": 1.6666666666666667,
              "duration": 0.00625
            },
            {
              "pitch": 46,
              "velocity": 60,
              "position": 1.6666666666666667,
              "duration": 0.00625
            },
            {
              "pitch": 31,
              "velocity": 22,
              "position": 1.76875,
              "duration": 0.00625
            },
            {
              "pitch": 46,
              "velocity": 46,
              "position": 1.8854166666666667,
              "duration": 0.00625
            },
            {
              "pitch": 33,
              "velocity": 86,
              "position": 2,
              "duration": 0.00625
            },
            {
              "pitch": 46,
              "velocity": 80,
              "position": 2,
              "duration": 0.00625
            },
            {
              "pitch": 31,
              "velocity": 38,
              "position": 2.33125,
              "duration": 0.00625
            },
            {
              "pitch": 47,
              "velocity": 53,
              "position": 2.33125,
              "duration": 0.00625
            },
            {
              "pitch": 33,
              "velocity": 64,
              "position": 2.33125,
              "duration": 0.00625
            },
            {
              "pitch": 31,
              "velocity": 60,
              "position": 2.6666666666666665,
              "duration": 0.00625
            },
            {
              "pitch": 47,
              "velocity": 73,
              "position": 2.6666666666666665,
              "duration": 0.00625
            },
            {
              "pitch": 33,
              "velocity": 64,
              "position": 2.6666666666666665,
              "duration": 0.00625
            },
            {
              "pitch": 31,
              "velocity": 80,
              "position": 3,
              "duration": 0.00625
            },
            {
              "pitch": 47,
              "velocity": 88,
              "position": 3,
              "duration": 0.00625
            },
            {
              "pitch": 44,
              "velocity": 65,
              "position": 3,
              "duration": 0.00625
            },
            {
              "pitch": 33,
              "velocity": 65,
              "position": 3,
              "duration": 0.00625
            },
            {
              "pitch": 31,
              "velocity": 100,
              "position": 3.33125,
              "duration": 0.00625
            },
            {
              "pitch": 45,
              "velocity": 86,
              "position": 3.33125,
              "duration": 0.00625
            },
            {
              "pitch": 33,
              "velocity": 78,
              "position": 3.33125,
              "duration": 0.00625
            },
            {
              "pitch": 33,
              "velocity": 86,
              "position": 3.6666666666666665,
              "duration": 0.00625
            },
            {
              "pitch": 46,
              "velocity": 106,
              "position": 3.6666666666666665,
              "duration": 0.00625
            },
            {
              "pitch": 44,
              "velocity": 80,
              "position": 3.6666666666666665,
              "duration": 0.00625
            },
            {
              "pitch": 41,
              "velocity": 96,
              "position": 3.6666666666666665,
              "duration": 0.00625
            },
            {
              "pitch": 57,
              "velocity": 82,
              "position": 3.9875,
              "duration": 0.00625
            }
          ]
        },
        "10": {
          "ctab": {
            "srcChannel": 10,
            "name": "Bass A",
            "accType": "BASS",
            "editable": false,
            "mutedNotes": [],
            "mutedChords": [
              "7aug",
              "dim",
              "minMaj7(9)",
              "minMaj7",
              "min(9)",
              "m7b5",
              "min",
              "aug"
            ],
            "autoStart": false,
            "sourceChordNote": 0,
            "sourceChordType": "Maj7",
            "ctb2Low": null,
            "ctb2Main": {
              "ntr": "ROOT_TRANSPOSITION",
              "ntt": "MELODY",
              "bassOn": true,
              "chordRootUpperLimit": 8,
              "noteLowLimit": 28,
              "noteHighLimit": 127,
              "rtr": "PITCH_SHIFT_TO_ROOT"
            },
            "ctb2High": null,
            "ctb2MiddleLowPitch": 0,
            "ctb2MiddleHighPitch": 127
          },
          "notes": [
            {
              "pitch": 24,
              "velocity": 70,
              "position": 0,
              "duration": 0.5875
            },
            {
              "pitch": 24,
              "velocity": 59,
              "position": 0.6666666666666666,
              "duration": 0.25416666666666665
            },
            {
              "pitch": 24,
              "velocity": 70,
              "position": 1,
              "duration": 0.2520833333333333
            },
            {
              "pitch": 24,
              "velocity": 59,
              "position": 1.33125,
              "duration": 0.30625
            },
            {
              "pitch": 24,
              "velocity": 59,
              "position": 1.6666666666666667,
              "duration": 0.30625
            },
            {
              "pitch": 24,
              "velocity": 70,
              "position": 2,
              "duration": 0.30625
            },
            {
              "pitch": 24,
              "velocity": 59,
              "position": 2.33125,
              "duration": 0.30625
            },
            {
              "pitch": 31,
              "velocity": 59,
              "position": 2.6666666666666665,
              "duration": 0.30625
            },
            {
              "pitch": 33,
              "velocity": 70,
              "position": 3,
              "duration": 0.30625
            },
            {
              "pitch": 36,
              "velocity": 59,
              "position": 3.33125,
              "duration": 0.30625
            },
            {
              "pitch": 33,
              "velocity": 59,
              "position": 3.6666666666666665,
              "duration": 0.30625
            }
          ]
        },
        "11": {
          "ctab": {
            "srcChannel": 11,
            "name": "SolidGtr",
            "accType": "CHORD1",
            "editable": false,
            "mutedNotes": [],
            "mutedChords": [],
            "autoStart": false,
            "sourceChordNote": 0,
            "sourceChordType": "Maj7",
            "ctb2Low": null,
            "ctb2Main": {
              "ntr": "GUITAR",
              "ntt": "ALL_PURPOSE",
              "bassOn": false,
              "chordRootUpperLimit": 7,
              "noteLowLimit": 0,
              "noteHighLimit": 79,
              "rtr": "PITCH_SHIFT"
            },
            "ctb2High": null,
            "ctb2MiddleLowPitch": 0,
            "ctb2MiddleHighPitch": 127
          },
          "notes": [
            {
              "pitch": 100,
              "velocity": 80,
              "position": 0,
              "duration": 0.19166666666666668
            },
            {
              "pitch": 67,
              "velocity": 50,
              "position": 0,
              "duration": 0.30625
            },
            {
              "pitch": 65,
              "velocity": 50,
              "position": 0,
              "duration": 0.30625
            },
            {
              "pitch": 69,
              "velocity": 50,
              "position": 0.010416666666666666,
              "duration": 0.30625
            },
            {
              "pitch": 71,
              "velocity": 50,
              "position": 0.01875,
              "duration": 0.30625
            },
            {
              "pitch": 106,
              "velocity": 40,
              "position": 0.33125,
              "duration": 0.19166666666666668
            },
            {
              "pitch": 65,
              "velocity": 30,
              "position": 0.33125,
              "duration": 0.30625
            },
            {
              "pitch": 67,
              "velocity": 30,
              "position": 0.33125,
              "duration": 0.3104166666666667
            },
            {
              "pitch": 69,
              "velocity": 30,
              "position": 0.34375,
              "duration": 0.30625
            },
            {
              "pitch": 71,
              "velocity": 30,
              "position": 0.3541666666666667,
              "duration": 0.30625
            },
            {
              "pitch": 108,
              "velocity": 70,
              "position": 0.6666666666666666,
              "duration": 0.19166666666666668
            },
            {
              "pitch": 65,
              "velocity": 40,
              "position": 0.6666666666666666,
              "duration": 0.30625
            },
            {
              "pitch": 67,
              "velocity": 40,
              "position": 0.6666666666666666,
              "duration": 0.30833333333333335
            },
            {
              "pitch": 69,
              "velocity": 40,
              "position": 0.675,
              "duration": 0.30625
            },
            {
              "pitch": 71,
              "velocity": 40,
              "position": 0.6875,
              "duration": 0.30625
            },
            {
              "pitch": 65,
              "velocity": 60,
              "position": 1,
              "duration": 0.03333333333333333
            },
            {
              "pitch": 67,
              "velocity": 60,
              "position": 1,
              "duration": 0.03333333333333333
            },
            {
              "pitch": 69,
              "velocity": 60,
              "position": 1.0104166666666667,
              "duration": 0.035416666666666666
            },
            {
              "pitch": 71,
              "velocity": 60,
              "position": 1.01875,
              "duration": 0.035416666666666666
            },
            {
              "pitch": 100,
              "velocity": 90,
              "position": 1,
              "duration": 0.19166666666666668
            },
            {
              "pitch": 106,
              "velocity": 40,
              "position": 1.33125,
              "duration": 0.19166666666666668
            },
            {
              "pitch": 65,
              "velocity": 30,
              "position": 1.33125,
              "duration": 0.30625
            },
            {
              "pitch": 67,
              "velocity": 30,
              "position": 1.33125,
              "duration": 0.3104166666666667
            },
            {
              "pitch": 69,
              "velocity": 30,
              "position": 1.34375,
              "duration": 0.30625
            },
            {
              "pitch": 71,
              "velocity": 30,
              "position": 1.3541666666666667,
              "duration": 0.30625
            },
            {
              "pitch": 98,
              "velocity": 55,
              "position": 1.6666666666666667,
              "duration": 0.19166666666666668
            },
            {
              "pitch": 65,
              "velocity": 40,
              "position": 1.6666666666666667,
              "duration": 0.30625
            },
            {
              "pitch": 67,
              "velocity": 40,
              "position": 1.6666666666666667,
              "duration": 0.30833333333333335
            },
            {
              "pitch": 69,
              "velocity": 40,
              "position": 1.675,
              "duration": 0.30625
            },
            {
              "pitch": 71,
              "velocity": 40,
              "position": 1.6875,
              "duration": 0.30625
            },
            {
              "pitch": 100,
              "velocity": 80,
              "position": 2,
              "duration": 0.19166666666666668
            },
            {
              "pitch": 67,
              "velocity": 50,
              "position": 2,
              "duration": 0.30625
            },
            {
              "pitch": 65,
              "velocity": 50,
              "position": 2,
              "duration": 0.30625
            },
            {
              "pitch": 69,
              "velocity": 50,
              "position": 2.0104166666666665,
              "duration": 0.30416666666666664
            },
            {
              "pitch": 71,
              "velocity": 50,
              "position": 2.01875,
              "duration": 0.30833333333333335
            },
            {
              "pitch": 106,
              "velocity": 40,
              "position": 2.33125,
              "duration": 0.19166666666666668
            },
            {
              "pitch": 65,
              "velocity": 30,
              "position": 2.33125,
              "duration": 0.30625
            },
            {
              "pitch": 67,
              "velocity": 30,
              "position": 2.33125,
              "duration": 0.3104166666666667
            },
            {
              "pitch": 69,
              "velocity": 30,
              "position": 2.34375,
              "duration": 0.30625
            },
            {
              "pitch": 71,
              "velocity": 30,
              "position": 2.3541666666666665,
              "duration": 0.30625
            },
            {
              "pitch": 98,
              "velocity": 55,
              "position": 2.6666666666666665,
              "duration": 0.19166666666666668
            },
            {
              "pitch": 65,
              "velocity": 40,
              "position": 2.6666666666666665,
              "duration": 0.30625
            },
            {
              "pitch": 67,
              "velocity": 40,
              "position": 2.6666666666666665,
              "duration": 0.30833333333333335
            },
            {
              "pitch": 69,
              "velocity": 40,
              "position": 2.675,
              "duration": 0.30625
            },
            {
              "pitch": 71,
              "velocity": 40,
              "position": 2.6875,
              "duration": 0.30625
            },
            {
              "pitch": 100,
              "velocity": 85,
              "position": 3,
              "duration": 0.19166666666666668
            },
            {
              "pitch": 67,
              "velocity": 55,
              "position": 3,
              "duration": 0.30625
            },
            {
              "pitch": 65,
              "velocity": 55,
              "position": 3,
              "duration": 0.30625
            },
            {
              "pitch": 69,
              "velocity": 55,
              "position": 3.0104166666666665,
              "duration": 0.30625
            },
            {
              "pitch": 71,
              "velocity": 55,
              "position": 3.01875,
              "duration": 0.30625
            },
            {
              "pitch": 98,
              "velocity": 60,
              "position": 3.33125,
              "duration": 0.19166666666666668
            },
            {
              "pitch": 65,
              "velocity": 45,
              "position": 3.33125,
              "duration": 0.30625
            },
            {
              "pitch": 67,
              "velocity": 45,
              "position": 3.33125,
              "duration": 0.3104166666666667
            },
            {
              "pitch": 69,
              "velocity": 45,
              "position": 3.34375,
              "duration": 0.30625
            },
            {
              "pitch": 71,
              "velocity": 45,
              "position": 3.3541666666666665,
              "duration": 0.30625
            },
            {
              "pitch": 100,
              "velocity": 90,
              "position": 3.6666666666666665,
              "duration": 0.19166666666666668
            },
            {
              "pitch": 71,
              "velocity": 60,
              "position": 3.6875,
              "duration": 0.2833333333333333
            },
            {
              "pitch": 69,
              "velocity": 60,
              "position": 3.675,
              "duration": 0.29583333333333334
            },
            {
              "pitch": 65,
              "velocity": 60,
              "position": 3.6666666666666665,
              "duration": 0.30625
            },
            {
              "pitch": 67,
              "velocity": 60,
              "position": 3.6666666666666665,
              "duration": 0.30625
            }
          ]
        },
        "12": {
          "ctab": {
            "srcChannel": 12,
            "name": "Pno RH",
            "accType": "CHORD2",
            "editable": false,
            "mutedNotes": [],
            "mutedChords": [
              "min",
              "Maj"
            ],
            "autoStart": false,
            "sourceChordNote": 0,
            "sourceChordType": "Maj7",
            "ctb2Low": null,
            "ctb2Main": {
              "ntr": "ROOT_FIXED",
              "ntt": "CHORD",
              "bassOn": false,
              "chordRootUpperLimit": 7,
              "noteLowLimit": 0,
              "noteHighLimit": 79,
              "rtr": "PITCH_SHIFT"
            },
            "ctb2High": null,
            "ctb2MiddleLowPitch": 0,
            "ctb2MiddleHighPitch": 127
          },
          "notes": [
            {
              "pitch": 64,
              "velocity": 75,
              "position": 0,
              "duration": 0.31875
            },
            {
              "pitch": 71,
              "velocity": 65,
              "position": 0,
              "duration": 0.31875
            },
            {
              "pitch": 67,
              "velocity": 82,
              "position": 0,
              "duration": 0.31875
            },
            {
              "pitch": 64,
              "velocity": 66,
              "position": 0.33125,
              "duration": 0.31875
            },
            {
              "pitch": 71,
              "velocity": 65,
              "position": 0.33125,
              "duration": 0.31875
            },
            {
              "pitch": 67,
              "velocity": 71,
              "position": 0.33125,
              "duration": 0.31875
            },
            {
              "pitch": 64,
              "velocity": 63,
              "position": 0.6666666666666666,
              "duration": 0.31875
            },
            {
              "pitch": 71,
              "velocity": 69,
              "position": 0.6666666666666666,
              "duration": 0.31875
            },
            {
              "pitch": 67,
              "velocity": 61,
              "position": 0.6666666666666666,
              "duration": 0.31875
            },
            {
              "pitch": 64,
              "velocity": 77,
              "position": 1,
              "duration": 0.31875
            },
            {
              "pitch": 71,
              "velocity": 77,
              "position": 1,
              "duration": 0.31875
            },
            {
              "pitch": 67,
              "velocity": 82,
              "position": 1,
              "duration": 0.31875
            },
            {
              "pitch": 76,
              "velocity": 77,
              "position": 1.33125,
              "duration": 0.31875
            },
            {
              "pitch": 79,
              "velocity": 77,
              "position": 1.33125,
              "duration": 0.31875
            },
            {
              "pitch": 83,
              "velocity": 78,
              "position": 1.33125,
              "duration": 0.31875
            },
            {
              "pitch": 71,
              "velocity": 85,
              "position": 1.6666666666666667,
              "duration": 0.31875
            },
            {
              "pitch": 79,
              "velocity": 94,
              "position": 1.6666666666666667,
              "duration": 0.31875
            },
            {
              "pitch": 76,
              "velocity": 99,
              "position": 1.6666666666666667,
              "duration": 0.31875
            },
            {
              "pitch": 67,
              "velocity": 77,
              "position": 1.55,
              "duration": 0.6520833333333333
            },
            {
              "pitch": 79,
              "velocity": 69,
              "position": 2,
              "duration": 0.31875
            },
            {
              "pitch": 67,
              "velocity": 77,
              "position": 2.21875,
              "duration": 0.1
            },
            {
              "pitch": 71,
              "velocity": 69,
              "position": 2,
              "duration": 0.31875
            },
            {
              "pitch": 76,
              "velocity": 69,
              "position": 2,
              "duration": 0.31875
            },
            {
              "pitch": 67,
              "velocity": 85,
              "position": 2.33125,
              "duration": 0.31875
            },
            {
              "pitch": 76,
              "velocity": 95,
              "position": 2.33125,
              "duration": 0.31875
            },
            {
              "pitch": 71,
              "velocity": 95,
              "position": 2.33125,
              "duration": 0.31875
            },
            {
              "pitch": 60,
              "velocity": 77,
              "position": 2.55,
              "duration": 0.31875
            },
            {
              "pitch": 76,
              "velocity": 96,
              "position": 2.6666666666666665,
              "duration": 0.31875
            },
            {
              "pitch": 72,
              "velocity": 86,
              "position": 2.6666666666666665,
              "duration": 0.31875
            },
            {
              "pitch": 67,
              "velocity": 84,
              "position": 2.6666666666666665,
              "duration": 0.31875
            },
            {
              "pitch": 60,
              "velocity": 77,
              "position": 2.8854166666666665,
              "duration": 0.31875
            },
            {
              "pitch": 71,
              "velocity": 90,
              "position": 3,
              "duration": 0.31875
            },
            {
              "pitch": 67,
              "velocity": 95,
              "position": 3,
              "duration": 0.31875
            },
            {
              "pitch": 64,
              "velocity": 75,
              "position": 3,
              "duration": 0.31875
            },
            {
              "pitch": 60,
              "velocity": 77,
              "position": 3.21875,
              "duration": 0.31875
            },
            {
              "pitch": 71,
              "velocity": 69,
              "position": 3.33125,
              "duration": 0.31875
            },
            {
              "pitch": 67,
              "velocity": 69,
              "position": 3.33125,
              "duration": 0.31875
            },
            {
              "pitch": 64,
              "velocity": 69,
              "position": 3.33125,
              "duration": 0.31875
            },
            {
              "pitch": 60,
              "velocity": 77,
              "position": 3.55,
              "duration": 0.31875
            },
            {
              "pitch": 48,
              "velocity": 80,
              "position": 2.20625,
              "duration": 1.76875
            },
            {
              "pitch": 60,
              "velocity": 77,
              "position": 3.8854166666666665,
              "duration": 0.1
            },
            {
              "pitch": 67,
              "velocity": 99,
              "position": 3.6666666666666665,
              "duration": 0.31875
            },
            {
              "pitch": 64,
              "velocity": 96,
              "position": 3.6666666666666665,
              "duration": 0.31875
            },
            {
              "pitch": 71,
              "velocity": 99,
              "position": 3.6666666666666665,
              "duration": 0.31875
            }
          ]
        },
        "13": {
          "ctab": {
            "srcChannel": 13,
            "name": "Organ1",
            "accType": "PAD",
            "editable": false,
            "mutedNotes": [],
            "mutedChords": [],
            "autoStart": false,
            "sourceChordNote": 0,
            "sourceChordType": "Maj7",
            "ctb2Low": null,
            "ctb2Main": {
              "ntr": "ROOT_FIXED",
              "ntt": "CHORD",
              "bassOn": false,
              "chordRootUpperLimit": 7,
              "noteLowLimit": 0,
              "noteHighLimit": 127,
              "rtr": "PITCH_SHIFT"
            },
            "ctb2High": null,
            "ctb2MiddleLowPitch": 0,
            "ctb2MiddleHighPitch": 127
          },
          "notes": [
            {
              "pitch": 67,
              "velocity": 50,
              "position": 0,
              "duration": 1.2416666666666667
            },
            {
              "pitch": 76,
              "velocity": 50,
              "position": 0,
              "duration": 1.2416666666666667
            },
            {
              "pitch": 71,
              "velocity": 50,
              "position": 0,
              "duration": 1.2416666666666667
            },
            {
              "pitch": 67,
              "velocity": 50,
              "position": 1.5,
              "duration": 1.7416666666666667
            },
            {
              "pitch": 76,
              "velocity": 50,
              "position": 1.5,
              "duration": 1.7416666666666667
            },
            {
              "pitch": 71,
              "velocity": 50,
              "position": 1.5,
              "duration": 1.7416666666666667
            },
            {
              "pitch": 67,
              "velocity": 50,
              "position": 3.5,
              "duration": 0.48541666666666666
            },
            {
              "pitch": 76,
              "velocity": 50,
              "position": 3.5,
              "duration": 0.48541666666666666
            },
            {
              "pitch": 71,
              "velocity": 50,
              "position": 3.5,
              "duration": 0.48541666666666666
            }
          ]
        },
        "14": {
          "ctab": {
            "srcChannel": 14,
            "name": "Tele",
            "accType": "PHRASE1",
            "editable": false,
            "mutedNotes": [],
            "mutedChords": [
              "min",
              "Maj"
            ],
            "autoStart": false,
            "sourceChordNote": 0,
            "sourceChordType": "Maj7",
            "ctb2Low": null,
            "ctb2Main": {
              "ntr": "ROOT_TRANSPOSITION",
              "ntt": "MELODY",
              "bassOn": false,
              "chordRootUpperLimit": 4,
              "noteLowLimit": 0,
              "noteHighLimit": 127,
              "rtr": "PITCH_SHIFT"
            },
            "ctb2High": {
              "ntr": "ROOT_FIXED",
              "ntt": "BYPASS",
              "bassOn": false,
              "chordRootUpperLimit": 4,
              "noteLowLimit": 0,
              "noteHighLimit": 127,
              "rtr": "PITCH_SHIFT"
            },
            "ctb2MiddleLowPitch": 0,
            "ctb2MiddleHighPitch": 95
          },
          "notes": [
            {
              "pitch": 59,
              "velocity": 116,
              "position": 0.0020833333333333333,
              "duration": 0.9708333333333333
            },
            {
              "pitch": 55,
              "velocity": 116,
              "position": 1,
              "duration": 0.30625
            },
            {
              "pitch": 59,
              "velocity": 16,
              "position": 1.33125,
              "duration": 0.30625
            },
            {
              "pitch": 59,
              "velocity": 33,
              "position": 1.6666666666666667,
              "duration": 0.6395833333333333
            },
            {
              "pitch": 59,
              "velocity": 16,
              "position": 2.33125,
              "duration": 0.30625
            },
            {
              "pitch": 59,
              "velocity": 33,
              "position": 2.6666666666666665,
              "duration": 0.30625
            },
            {
              "pitch": 64,
              "velocity": 116,
              "position": 3,
              "duration": 0.9708333333333333
            },
            {
              "pitch": 71,
              "velocity": 26,
              "position": 3.33125,
              "duration": 0.6395833333333333
            },
            {
              "pitch": 59,
              "velocity": 16,
              "position": 3.6666666666666665,
              "duration": 0.30625
            }
          ]
        },
        "15": {
          "ctab": {
            "srcChannel": 15,
            "name": "E.P",
            "accType": "PHRASE2",
            "editable": false,
            "mutedNotes": [],
            "mutedChords": [
              "min",
              "Maj"
            ],
            "autoStart": false,
            "sourceChordNote": 0,
            "sourceChordType": "Maj7",
            "ctb2Low": null,
            "ctb2Main": {
              "ntr": "ROOT_FIXED",
              "ntt": "CHORD",
              "bassOn": false,
              "chordRootUpperLimit": 7,
              "noteLowLimit": 0,
              "noteHighLimit": 127,
              "rtr": "PITCH_SHIFT"
            },
            "ctb2High": null,
            "ctb2MiddleLowPitch": 0,
            "ctb2MiddleHighPitch": 127
          },
          "notes": [
            {
              "pitch": 59,
              "velocity": 67,
              "position": 0,
              "duration": 3.30625
            },
            {
              "pitch": 67,
              "velocity": 67,
              "position": 0,
              "duration": 3.30625
            },
            {
              "pitch": 64,
              "velocity": 69,
              "position": 0,
              "duration": 3.30625
            },
            {
              "pitch": 59,
              "velocity": 71,
              "position": 3.33125,
              "duration": 0.30625
            },
            {
              "pitch": 67,
              "velocity": 53,
              "position": 3.33125,
              "duration": 0.30625
            },
            {
              "pitch": 64,
              "velocity": 65,
              "position": 3.33125,
              "duration": 0.30625
            },
            {
              "pitch": 59,
              "velocity": 71,
              "position": 3.6666666666666665,
              "duration": 0.30625
            },
            {
              "pitch": 67,
              "velocity": 53,
              "position": 3.6666666666666665,
              "duration": 0.30625
            },
            {
              "pitch": 64,
              "velocity": 65,
              "position": 3.6666666666666665,
              "duration": 0.30625
            }
          ]
        }
      }
    },
    "Intro_A": {
      "type": "Intro_A",
      "sizeInBeats": 4,
      "channels": {
        "0": {
          "ctab": {
            "srcChannel": 0,
            "name": "Pno LH",
            "accType": "CHORD2",
            "editable": false,
            "mutedNotes": [],
            "mutedChords": [],
            "autoStart": false,
            "sourceChordNote": 0,
            "sourceChordType": "Maj7",
            "ctb2Low": null,
            "ctb2Main": {
              "ntr": "ROOT_TRANSPOSITION",
              "ntt": "MELODY",
              "bassOn": true,
              "chordRootUpperLimit": 8,
              "noteLowLimit": 0,
              "noteHighLimit": 127,
              "rtr": "PITCH_SHIFT_TO_ROOT"
            },
            "ctb2High": null,
            "ctb2MiddleLowPitch": 0,
            "ctb2MiddleHighPitch": 127
          },
          "notes": [
            {
              "pitch": 36,
              "velocity": 99,
              "position": 0,
              "duration": 3.652083333333333
            }
          ]
        },
        "1": {
          "ctab": {
            "srcChannel": 1,
            "name": "Bass B",
            "accType": "BASS",
            "editable": false,
            "mutedNotes": [],
            "mutedChords": [
              "1+2+5",
              "sus4",
              "1+5",
              "1+8",
              "Maj7aug",
              "7(#9)",
              "7(b13)",
              "7(b9)",
              "7(13)",
              "7#11",
              "7(9)",
              "7b5",
              "7sus4",
              "7th",
              "dim7",
              "min7(11)",
              "min7(9)",
              "min7",
              "min6",
              "Maj6(9)",
              "Maj7(9)",
              "Maj(9)",
              "Maj7#11",
              "Maj7",
              "Maj6",
              "Maj"
            ],
            "autoStart": false,
            "sourceChordNote": 0,
            "sourceChordType": "Maj7",
            "ctb2Low": null,
            "ctb2Main": {
              "ntr": "ROOT_TRANSPOSITION",
              "ntt": "MELODY",
              "bassOn": true,
              "chordRootUpperLimit": 8,
              "noteLowLimit": 28,
              "noteHighLimit": 127,
              "rtr": "PITCH_SHIFT_TO_ROOT"
            },
            "ctb2High": null,
            "ctb2MiddleLowPitch": 0,
            "ctb2MiddleHighPitch": 127
          },
          "notes": [
            {
              "pitch": 24,
              "velocity": 70,
              "position": 0,
              "duration": 3.65
            }
          ]
        },
        "3": {
          "ctab": {
            "srcChannel": 3,
            "name": "Pno RH S",
            "accType": "CHORD2",
            "editable": false,
            "mutedNotes": [],
            "mutedChords": [
              "1+2+5",
              "sus4",
              "1+5",
              "1+8",
              "7aug",
              "Maj7aug",
              "7(#9)",
              "7(b13)",
              "7(b9)",
              "7(13)",
              "7#11",
              "7(9)",
              "7b5",
              "7sus4",
              "7th",
              "dim7",
              "dim",
              "minMaj7(9)",
              "minMaj7",
              "min7(11)",
              "min7(9)",
              "min(9)",
              "m7b5",
              "min7",
              "min6",
              "aug",
              "Maj6(9)",
              "Maj7(9)",
              "Maj(9)",
              "Maj7#11",
              "Maj7",
              "Maj6"
            ],
            "autoStart": false,
            "sourceChordNote": 0,
            "sourceChordType": "Maj7",
            "ctb2Low": null,
            "ctb2Main": {
              "ntr": "ROOT_TRANSPOSITION",
              "ntt": "DORIAN_5",
              "bassOn": false,
              "chordRootUpperLimit": 11,
              "noteLowLimit": 58,
              "noteHighLimit": 127,
              "rtr": "PITCH_SHIFT"
            },
            "ctb2High": null,
            "ctb2MiddleLowPitch": 0,
            "ctb2MiddleHighPitch": 127
          },
          "notes": [
            {
              "pitch": 64,
              "velocity": 81,
              "position": 0,
              "duration": 3.6625
            },
            {
              "pitch": 72,
              "velocity": 86,
              "position": 0,
              "duration": 3.6625
            },
            {
              "pitch": 70,
              "velocity": 86,
              "position": 0,
              "duration": 3.6625
            },
            {
              "pitch": 67,
              "velocity": 73,
              "position": 0,
              "duration": 3.6625
            }
          ]
        },
        "5": {
          "ctab": {
            "srcChannel": 5,
            "name": "Tele S M",
            "accType": "PHRASE1",
            "editable": false,
            "mutedNotes": [],
            "mutedChords": [
              "1+2+5",
              "sus4",
              "1+5",
              "1+8",
              "7aug",
              "Maj7aug",
              "7(#9)",
              "7(b13)",
              "7(b9)",
              "7(13)",
              "7#11",
              "7(9)",
              "7b5",
              "7sus4",
              "7th",
              "dim7",
              "dim",
              "minMaj7(9)",
              "minMaj7",
              "min7(11)",
              "min7(9)",
              "min(9)",
              "m7b5",
              "min7",
              "min6",
              "min",
              "aug",
              "Maj6(9)",
              "Maj7(9)",
              "Maj(9)",
              "Maj7#11",
              "Maj7",
              "Maj6"
            ],
            "autoStart": false,
            "sourceChordNote": 0,
            "sourceChordType": "Maj7",
            "ctb2Low": null,
            "ctb2Main": {
              "ntr": "ROOT_TRANSPOSITION",
              "ntt": "DORIAN_5",
              "bassOn": false,
              "chordRootUpperLimit": 4,
              "noteLowLimit": 0,
              "noteHighLimit": 127,
              "rtr": "PITCH_SHIFT"
            },
            "ctb2High": {
              "ntr": "ROOT_FIXED",
              "ntt": "BYPASS",
              "bassOn": false,
              "chordRootUpperLimit": 4,
              "noteLowLimit": 0,
              "noteHighLimit": 127,
              "rtr": "PITCH_SHIFT"
            },
            "ctb2MiddleLowPitch": 0,
            "ctb2MiddleHighPitch": 95
          },
          "notes": [
            {
              "pitch": 67,
              "velocity": 26,
              "position": 0,
              "duration": 3.6395833333333334
            },
            {
              "pitch": 60,
              "velocity": 116,
              "position": 0,
              "duration": 3.65
            }
          ]
        },
        "6": {
          "ctab": {
            "srcChannel": 6,
            "name": "E.P  S",
            "accType": "PHRASE2",
            "editable": false,
            "mutedNotes": [],
            "mutedChords": [
              "1+2+5",
              "sus4",
              "1+5",
              "1+8",
              "7aug",
              "Maj7aug",
              "7(#9)",
              "7(b13)",
              "7(b9)",
              "7(13)",
              "7#11",
              "7(9)",
              "7b5",
              "7sus4",
              "7th",
              "dim7",
              "dim",
              "minMaj7(9)",
              "minMaj7",
              "min7(11)",
              "min7(9)",
              "min(9)",
              "m7b5",
              "min7",
              "min6",
              "aug",
              "Maj6(9)",
              "Maj7(9)",
              "Maj(9)",
              "Maj7#11",
              "Maj7",
              "Maj6"
            ],
            "autoStart": false,
            "sourceChordNote": 0,
            "sourceChordType": "Maj7",
            "ctb2Low": null,
            "ctb2Main": {
              "ntr": "ROOT_TRANSPOSITION",
              "ntt": "DORIAN_5",
              "bassOn": false,
              "chordRootUpperLimit": 4,
              "noteLowLimit": 0,
              "noteHighLimit": 127,
              "rtr": "PITCH_SHIFT"
            },
            "ctb2High": null,
            "ctb2MiddleLowPitch": 0,
            "ctb2MiddleHighPitch": 127
          },
          "notes": [
            {
              "pitch": 60,
              "velocity": 83,
              "position": 0,
              "duration": 3.65
            },
            {
              "pitch": 67,
              "velocity": 83,
              "position": 0,
              "duration": 3.65
            },
            {
              "pitch": 64,
              "velocity": 83,
              "position": 0,
              "duration": 3.65
            }
          ]
        },
        "7": {
          "ctab": {
            "srcChannel": 7,
            "name": "Tele S m",
            "accType": "PHRASE1",
            "editable": false,
            "mutedNotes": [],
            "mutedChords": [
              "1+2+5",
              "sus4",
              "1+5",
              "1+8",
              "7aug",
              "Maj7aug",
              "7(#9)",
              "7(b13)",
              "7(b9)",
              "7(13)",
              "7#11",
              "7(9)",
              "7b5",
              "7sus4",
              "7th",
              "dim7",
              "dim",
              "minMaj7(9)",
              "minMaj7",
              "min7(11)",
              "min7(9)",
              "min(9)",
              "m7b5",
              "min7",
              "min6",
              "aug",
              "Maj6(9)",
              "Maj7(9)",
              "Maj(9)",
              "Maj7#11",
              "Maj7",
              "Maj6",
              "Maj"
            ],
            "autoStart": false,
            "sourceChordNote": 0,
            "sourceChordType": "Maj7",
            "ctb2Low": null,
            "ctb2Main": {
              "ntr": "ROOT_TRANSPOSITION",
              "ntt": "DORIAN_5",
              "bassOn": false,
              "chordRootUpperLimit": 4,
              "noteLowLimit": 0,
              "noteHighLimit": 127,
              "rtr": "PITCH_SHIFT"
            },
            "ctb2High": {
              "ntr": "ROOT_FIXED",
              "ntt": "BYPASS",
              "bassOn": false,
              "chordRootUpperLimit": 4,
              "noteLowLimit": 0,
              "noteHighLimit": 127,
              "rtr": "PITCH_SHIFT"
            },
            "ctb2MiddleLowPitch": 0,
            "ctb2MiddleHighPitch": 95
          },
          "notes": [
            {
              "pitch": 67,
              "velocity": 26,
              "position": 0,
              "duration": 3.6395833333333334
            },
            {
              "pitch": 60,
              "velocity": 116,
              "position": 0,
              "duration": 3.65
            }
          ]
        },
        "9": {
          "ctab": {
            "srcChannel": 9,
            "name": "MainDrum",
            "accType": "RHYTHM",
            "editable": true,
            "mutedNotes": [],
            "mutedChords": [],
            "autoStart": true,
            "sourceChordNote": 0,
            "sourceChordType": "Maj7",
            "ctb2Low": null,
            "ctb2Main": {
              "ntr": "ROOT_FIXED",
              "ntt": "BYPASS",
              "bassOn": false,
              "chordRootUpperLimit": 6,
              "noteLowLimit": 0,
              "noteHighLimit": 127,
              "rtr": "PITCH_SHIFT"
            },
            "ctb2High": null,
            "ctb2MiddleLowPitch": 0,
            "ctb2MiddleHighPitch": 127
          },
          "notes": [
            {
              "pitch": 33,
              "velocity": 64,
              "position": 2.8854166666666665,
              "duration": 0.00625
            },
            {
              "pitch": 38,
              "velocity": 72,
              "position": 2.9895833333333335,
              "duration": 0.00625
            },
            {
              "pitch": 42,
              "velocity": 80,
              "position": 3,
              "duration": 0.00625
            },
            {
              "pitch": 38,
              "velocity": 102,
              "position": 3.0208333333333335,
              "duration": 0.00625
            },
            {
              "pitch": 45,
              "velocity": 84,
              "position": 3.3333333333333335,
              "duration": 0.00625
            },
            {
              "pitch": 43,
              "velocity": 80,
              "position": 3.6666666666666665,
              "duration": 0.00625
            },
            {
              "pitch": 49,
              "velocity": 72,
              "position": 3.9895833333333335,
              "duration": 0.00625
            }
          ]
        },
        "10": {
          "ctab": {
            "srcChannel": 10,
            "name": "Bass A",
            "accType": "BASS",
            "editable": false,
            "mutedNotes": [],
            "mutedChords": [
              "7aug",
              "dim",
              "minMaj7(9)",
              "minMaj7",
              "min(9)",
              "m7b5",
              "min",
              "aug"
            ],
            "autoStart": false,
            "sourceChordNote": 0,
            "sourceChordType": "Maj7",
            "ctb2Low": null,
            "ctb2Main": {
              "ntr": "ROOT_TRANSPOSITION",
              "ntt": "MELODY",
              "bassOn": true,
              "chordRootUpperLimit": 8,
              "noteLowLimit": 28,
              "noteHighLimit": 127,
              "rtr": "PITCH_SHIFT_TO_ROOT"
            },
            "ctb2High": null,
            "ctb2MiddleLowPitch": 0,
            "ctb2MiddleHighPitch": 127
          },
          "notes": [
            {
              "pitch": 24,
              "velocity": 70,
              "position": 0,
              "duration": 3.65
            }
          ]
        },
        "11": {
          "ctab": {
            "srcChannel": 11,
            "name": "SolidGtr",
            "accType": "CHORD1",
            "editable": false,
            "mutedNotes": [],
            "mutedChords": [],
            "autoStart": false,
            "sourceChordNote": 0,
            "sourceChordType": "Maj7",
            "ctb2Low": null,
            "ctb2Main": {
              "ntr": "GUITAR",
              "ntt": "ALL_PURPOSE",
              "bassOn": false,
              "chordRootUpperLimit": 7,
              "noteLowLimit": 0,
              "noteHighLimit": 79,
              "rtr": "PITCH_SHIFT"
            },
            "ctb2High": null,
            "ctb2MiddleLowPitch": 0,
            "ctb2MiddleHighPitch": 127
          },
          "notes": [
            {
              "pitch": 100,
              "velocity": 88,
              "position": 0,
              "duration": 0.19166666666666668
            },
            {
              "pitch": 71,
              "velocity": 58,
              "position": 0.010416666666666666,
              "duration": 3.629166666666667
            },
            {
              "pitch": 69,
              "velocity": 58,
              "position": 0.010416666666666666,
              "duration": 3.629166666666667
            },
            {
              "pitch": 67,
              "velocity": 58,
              "position": 0,
              "duration": 3.6395833333333334
            },
            {
              "pitch": 65,
              "velocity": 58,
              "position": 0,
              "duration": 3.65
            }
          ]
        },
        "12": {
          "ctab": {
            "srcChannel": 12,
            "name": "Pno RH",
            "accType": "CHORD2",
            "editable": false,
            "mutedNotes": [],
            "mutedChords": [
              "min",
              "Maj"
            ],
            "autoStart": false,
            "sourceChordNote": 0,
            "sourceChordType": "Maj7",
            "ctb2Low": null,
            "ctb2Main": {
              "ntr": "ROOT_FIXED",
              "ntt": "CHORD",
              "bassOn": false,
              "chordRootUpperLimit": 7,
              "noteLowLimit": 0,
              "noteHighLimit": 127,
              "rtr": "PITCH_SHIFT"
            },
            "ctb2High": null,
            "ctb2MiddleLowPitch": 0,
            "ctb2MiddleHighPitch": 127
          },
          "notes": [
            {
              "pitch": 55,
              "velocity": 84,
              "position": 0,
              "duration": 3.6625
            },
            {
              "pitch": 64,
              "velocity": 84,
              "position": 0,
              "duration": 3.6625
            },
            {
              "pitch": 59,
              "velocity": 84,
              "position": 0,
              "duration": 3.6625
            }
          ]
        },
        "13": {
          "ctab": {
            "srcChannel": 13,
            "name": "Organ1",
            "accType": "PAD",
            "editable": false,
            "mutedNotes": [],
            "mutedChords": [],
            "autoStart": false,
            "sourceChordNote": 0,
            "sourceChordType": "Maj7",
            "ctb2Low": null,
            "ctb2Main": {
              "ntr": "ROOT_FIXED",
              "ntt": "CHORD",
              "bassOn": false,
              "chordRootUpperLimit": 7,
              "noteLowLimit": 0,
              "noteHighLimit": 127,
              "rtr": "PITCH_SHIFT"
            },
            "ctb2High": null,
            "ctb2MiddleLowPitch": 0,
            "ctb2MiddleHighPitch": 127
          },
          "notes": [
            {
              "pitch": 67,
              "velocity": 50,
              "position": 0,
              "duration": 0.9604166666666667
            },
            {
              "pitch": 76,
              "velocity": 50,
              "position": 0,
              "duration": 0.9604166666666667
            },
            {
              "pitch": 71,
              "velocity": 50,
              "position": 0,
              "duration": 0.9604166666666667
            },
            {
              "pitch": 67,
              "velocity": 50,
              "position": 1,
              "duration": 0.49166666666666664
            },
            {
              "pitch": 76,
              "velocity": 50,
              "position": 1,
              "duration": 0.49166666666666664
            },
            {
              "pitch": 71,
              "velocity": 50,
              "position": 1,
              "duration": 0.49166666666666664
            }
          ]
        },
        "14": {
          "ctab": {
            "srcChannel": 14,
            "name": "Tele",
            "accType": "PHRASE1",
            "editable": false,
            "mutedNotes": [],
            "mutedChords": [
              "min",
              "Maj"
            ],
            "autoStart": false,
            "sourceChordNote": 0,
            "sourceChordType": "Maj7",
            "ctb2Low": null,
            "ctb2Main": {
              "ntr": "ROOT_TRANSPOSITION",
              "ntt": "MELODY",
              "bassOn": false,
              "chordRootUpperLimit": 4,
              "noteLowLimit": 0,
              "noteHighLimit": 127,
              "rtr": "PITCH_SHIFT"
            },
            "ctb2High": {
              "ntr": "ROOT_FIXED",
              "ntt": "BYPASS",
              "bassOn": false,
              "chordRootUpperLimit": 4,
              "noteLowLimit": 0,
              "noteHighLimit": 127,
              "rtr": "PITCH_SHIFT"
            },
            "ctb2MiddleLowPitch": 0,
            "ctb2MiddleHighPitch": 95
          },
          "notes": [
            {
              "pitch": 64,
              "velocity": 116,
              "position": 0,
              "duration": 3.65
            }
          ]
        },
        "15": {
          "ctab": {
            "srcChannel": 15,
            "name": "E.P",
            "accType": "PHRASE2",
            "editable": false,
            "mutedNotes": [],
            "mutedChords": [
              "min",
              "Maj"
            ],
            "autoStart": false,
            "sourceChordNote": 0,
            "sourceChordType": "Maj7",
            "ctb2Low": null,
            "ctb2Main": {
              "ntr": "ROOT_FIXED",
              "ntt": "CHORD",
              "bassOn": false,
              "chordRootUpperLimit": 7,
              "noteLowLimit": 0,
              "noteHighLimit": 127,
              "rtr": "PITCH_SHIFT"
            },
            "ctb2High": null,
            "ctb2MiddleLowPitch": 0,
            "ctb2MiddleHighPitch": 127
          },
          "notes": [
            {
              "pitch": 55,
              "velocity": 77,
              "position": 0,
              "duration": 3.65
            },
            {
              "pitch": 64,
              "velocity": 77,
              "position": 0,
              "duration": 3.65
            },
            {
              "pitch": 59,
              "velocity": 77,
              "position": 0,
              "duration": 3.65
            }
          ]
        }
      }
    },
    "Intro_B": {
      "type": "Intro_B",
      "sizeInBeats": 4,
      "channels": {
        "0": {
          "ctab": {
            "srcChannel": 0,
            "name": "Pno LH",
            "accType": "CHORD2",
            "editable": false,
            "mutedNotes": [],
            "mutedChords": [],
            "autoStart": false,
            "sourceChordNote": 0,
            "sourceChordType": "Maj7",
            "ctb2Low": null,
            "ctb2Main": {
              "ntr": "ROOT_TRANSPOSITION",
              "ntt": "MELODY",
              "bassOn": true,
              "chordRootUpperLimit": 8,
              "noteLowLimit": 0,
              "noteHighLimit": 127,
              "rtr": "PITCH_SHIFT_TO_ROOT"
            },
            "ctb2High": null,
            "ctb2MiddleLowPitch": 0,
            "ctb2MiddleHighPitch": 127
          },
          "notes": [
            {
              "pitch": 36,
              "velocity": 99,
              "position": 0,
              "duration": 0.31875
            },
            {
              "pitch": 36,
              "velocity": 53,
              "position": 0.3333333333333333,
              "duration": 0.31875
            },
            {
              "pitch": 36,
              "velocity": 77,
              "position": 0.6666666666666666,
              "duration": 0.31875
            },
            {
              "pitch": 36,
              "velocity": 99,
              "position": 1,
              "duration": 0.31875
            }
          ]
        },
        "1": {
          "ctab": {
            "srcChannel": 1,
            "name": "Bass B",
            "accType": "BASS",
            "editable": false,
            "mutedNotes": [],
            "mutedChords": [
              "1+2+5",
              "sus4",
              "1+5",
              "1+8",
              "Maj7aug",
              "7(#9)",
              "7(b13)",
              "7(b9)",
              "7(13)",
              "7#11",
              "7(9)",
              "7b5",
              "7sus4",
              "7th",
              "dim7",
              "min7(11)",
              "min7(9)",
              "min7",
              "min6",
              "Maj6(9)",
              "Maj7(9)",
              "Maj(9)",
              "Maj7#11",
              "Maj7",
              "Maj6",
              "Maj"
            ],
            "autoStart": false,
            "sourceChordNote": 0,
            "sourceChordType": "Maj7",
            "ctb2Low": null,
            "ctb2Main": {
              "ntr": "ROOT_TRANSPOSITION",
              "ntt": "MELODY",
              "bassOn": true,
              "chordRootUpperLimit": 8,
              "noteLowLimit": 28,
              "noteHighLimit": 127,
              "rtr": "PITCH_SHIFT_TO_ROOT"
            },
            "ctb2High": null,
            "ctb2MiddleLowPitch": 0,
            "ctb2MiddleHighPitch": 127
          },
          "notes": [
            {
              "pitch": 24,
              "velocity": 70,
              "position": 0,
              "duration": 0.30625
            },
            {
              "pitch": 24,
              "velocity": 59,
              "position": 0.3333333333333333,
              "duration": 0.30625
            },
            {
              "pitch": 24,
              "velocity": 59,
              "position": 0.6666666666666666,
              "duration": 0.30625
            },
            {
              "pitch": 24,
              "velocity": 70,
              "position": 1,
              "duration": 0.30625
            }
          ]
        },
        "3": {
          "ctab": {
            "srcChannel": 3,
            "name": "Pno RH S",
            "accType": "CHORD2",
            "editable": false,
            "mutedNotes": [],
            "mutedChords": [
              "1+2+5",
              "sus4",
              "1+5",
              "1+8",
              "7aug",
              "Maj7aug",
              "7(#9)",
              "7(b13)",
              "7(b9)",
              "7(13)",
              "7#11",
              "7(9)",
              "7b5",
              "7sus4",
              "7th",
              "dim7",
              "dim",
              "minMaj7(9)",
              "minMaj7",
              "min7(11)",
              "min7(9)",
              "min(9)",
              "m7b5",
              "min7",
              "min6",
              "aug",
              "Maj6(9)",
              "Maj7(9)",
              "Maj(9)",
              "Maj7#11",
              "Maj7",
              "Maj6"
            ],
            "autoStart": false,
            "sourceChordNote": 0,
            "sourceChordType": "Maj7",
            "ctb2Low": null,
            "ctb2Main": {
              "ntr": "ROOT_TRANSPOSITION",
              "ntt": "DORIAN_5",
              "bassOn": false,
              "chordRootUpperLimit": 11,
              "noteLowLimit": 58,
              "noteHighLimit": 127,
              "rtr": "PITCH_SHIFT"
            },
            "ctb2High": null,
            "ctb2MiddleLowPitch": 0,
            "ctb2MiddleHighPitch": 127
          },
          "notes": [
            {
              "pitch": 46,
              "velocity": 78,
              "position": 0,
              "duration": 0.31875
            },
            {
              "pitch": 55,
              "velocity": 71,
              "position": 0,
              "duration": 0.31875
            },
            {
              "pitch": 52,
              "velocity": 71,
              "position": 0,
              "duration": 0.31875
            },
            {
              "pitch": 48,
              "velocity": 78,
              "position": 0,
              "duration": 0.31875
            },
            {
              "pitch": 46,
              "velocity": 50,
              "position": 0.3333333333333333,
              "duration": 0.31875
            },
            {
              "pitch": 55,
              "velocity": 60,
              "position": 0.3333333333333333,
              "duration": 0.31875
            },
            {
              "pitch": 52,
              "velocity": 58,
              "position": 0.3333333333333333,
              "duration": 0.31875
            },
            {
              "pitch": 48,
              "velocity": 50,
              "position": 0.3333333333333333,
              "duration": 0.31875
            },
            {
              "pitch": 48,
              "velocity": 73,
              "position": 0.6666666666666666,
              "duration": 0.31875
            },
            {
              "pitch": 57,
              "velocity": 67,
              "position": 0.6666666666666666,
              "duration": 0.31875
            },
            {
              "pitch": 53,
              "velocity": 67,
              "position": 0.6666666666666666,
              "duration": 0.31875
            },
            {
              "pitch": 46,
              "velocity": 85,
              "position": 1,
              "duration": 0.31875
            },
            {
              "pitch": 55,
              "velocity": 72,
              "position": 1,
              "duration": 0.31875
            },
            {
              "pitch": 52,
              "velocity": 80,
              "position": 1,
              "duration": 0.31875
            },
            {
              "pitch": 48,
              "velocity": 85,
              "position": 1,
              "duration": 0.31875
            }
          ]
        },
        "4": {
          "ctab": {
            "srcChannel": 4,
            "name": "E.P  S",
            "accType": "PAD",
            "editable": false,
            "mutedNotes": [],
            "mutedChords": [
              "1+2+5",
              "sus4",
              "1+5",
              "1+8",
              "7aug",
              "Maj7aug",
              "7(#9)",
              "7(b13)",
              "7(b9)",
              "7(13)",
              "7#11",
              "7(9)",
              "7b5",
              "7sus4",
              "7th",
              "dim7",
              "dim",
              "minMaj7(9)",
              "minMaj7",
              "min7(11)",
              "min7(9)",
              "min(9)",
              "m7b5",
              "min7",
              "min6",
              "aug",
              "Maj6(9)",
              "Maj7(9)",
              "Maj(9)",
              "Maj7#11",
              "Maj7",
              "Maj6"
            ],
            "autoStart": false,
            "sourceChordNote": 0,
            "sourceChordType": "Maj7",
            "ctb2Low": null,
            "ctb2Main": {
              "ntr": "ROOT_TRANSPOSITION",
              "ntt": "DORIAN_5",
              "bassOn": false,
              "chordRootUpperLimit": 4,
              "noteLowLimit": 0,
              "noteHighLimit": 127,
              "rtr": "PITCH_SHIFT"
            },
            "ctb2High": null,
            "ctb2MiddleLowPitch": 0,
            "ctb2MiddleHighPitch": 127
          },
          "notes": [
            {
              "pitch": 60,
              "velocity": 53,
              "position": 0,
              "duration": 0.5270833333333333
            },
            {
              "pitch": 67,
              "velocity": 48,
              "position": 0,
              "duration": 0.6395833333333333
            },
            {
              "pitch": 64,
              "velocity": 53,
              "position": 0,
              "duration": 0.6395833333333333
            },
            {
              "pitch": 60,
              "velocity": 55,
              "position": 0.5520833333333334,
              "duration": 0.30625
            },
            {
              "pitch": 69,
              "velocity": 76,
              "position": 0.6666666666666666,
              "duration": 0.30625
            },
            {
              "pitch": 65,
              "velocity": 79,
              "position": 0.6666666666666666,
              "duration": 0.30625
            },
            {
              "pitch": 66,
              "velocity": 92,
              "position": 1,
              "duration": 0.00625
            },
            {
              "pitch": 70,
              "velocity": 107,
              "position": 1,
              "duration": 0.30625
            },
            {
              "pitch": 67,
              "velocity": 95,
              "position": 1.0208333333333333,
              "duration": 0.28541666666666665
            },
            {
              "pitch": 60,
              "velocity": 59,
              "position": 0.8854166666666666,
              "duration": 0.42083333333333334
            }
          ]
        },
        "5": {
          "ctab": {
            "srcChannel": 5,
            "name": "Tele S M",
            "accType": "PHRASE1",
            "editable": false,
            "mutedNotes": [],
            "mutedChords": [
              "1+2+5",
              "sus4",
              "1+5",
              "1+8",
              "7aug",
              "Maj7aug",
              "7(#9)",
              "7(b13)",
              "7(b9)",
              "7(13)",
              "7#11",
              "7(9)",
              "7b5",
              "7sus4",
              "7th",
              "dim7",
              "dim",
              "minMaj7(9)",
              "minMaj7",
              "min7(11)",
              "min7(9)",
              "min(9)",
              "m7b5",
              "min7",
              "min6",
              "min",
              "aug",
              "Maj6(9)",
              "Maj7(9)",
              "Maj(9)",
              "Maj7#11",
              "Maj7",
              "Maj6"
            ],
            "autoStart": false,
            "sourceChordNote": 0,
            "sourceChordType": "Maj7",
            "ctb2Low": null,
            "ctb2Main": {
              "ntr": "ROOT_TRANSPOSITION",
              "ntt": "DORIAN_5",
              "bassOn": false,
              "chordRootUpperLimit": 4,
              "noteLowLimit": 0,
              "noteHighLimit": 127,
              "rtr": "PITCH_SHIFT"
            },
            "ctb2High": {
              "ntr": "ROOT_FIXED",
              "ntt": "BYPASS",
              "bassOn": false,
              "chordRootUpperLimit": 4,
              "noteLowLimit": 0,
              "noteHighLimit": 127,
              "rtr": "PITCH_SHIFT"
            },
            "ctb2MiddleLowPitch": 0,
            "ctb2MiddleHighPitch": 95
          },
          "notes": [
            {
              "pitch": 64,
              "velocity": 116,
              "position": 0,
              "duration": 0.30625
            },
            {
              "pitch": 65,
              "velocity": 36,
              "position": 0.3333333333333333,
              "duration": 0.30625
            },
            {
              "pitch": 72,
              "velocity": 36,
              "position": 0.3333333333333333,
              "duration": 0.30625
            },
            {
              "pitch": 65,
              "velocity": 22,
              "position": 0.6666666666666666,
              "duration": 0.30625
            },
            {
              "pitch": 72,
              "velocity": 22,
              "position": 0.6666666666666666,
              "duration": 0.30625
            },
            {
              "pitch": 72,
              "velocity": 36,
              "position": 1,
              "duration": 0.26458333333333334
            },
            {
              "pitch": 64,
              "velocity": 116,
              "position": 1,
              "duration": 0.30625
            },
            {
              "pitch": 126,
              "velocity": 60,
              "position": 1.2,
              "duration": 1.0145833333333334
            }
          ]
        },
        "6": {
          "ctab": {
            "srcChannel": 6,
            "name": "E.P  S",
            "accType": "PHRASE2",
            "editable": false,
            "mutedNotes": [],
            "mutedChords": [
              "1+2+5",
              "sus4",
              "1+5",
              "1+8",
              "7aug",
              "Maj7aug",
              "7(#9)",
              "7(b13)",
              "7(b9)",
              "7(13)",
              "7#11",
              "7(9)",
              "7b5",
              "7sus4",
              "7th",
              "dim7",
              "dim",
              "minMaj7(9)",
              "minMaj7",
              "min7(11)",
              "min7(9)",
              "min(9)",
              "m7b5",
              "min7",
              "min6",
              "aug",
              "Maj6(9)",
              "Maj7(9)",
              "Maj(9)",
              "Maj7#11",
              "Maj7",
              "Maj6"
            ],
            "autoStart": false,
            "sourceChordNote": 0,
            "sourceChordType": "Maj7",
            "ctb2Low": null,
            "ctb2Main": {
              "ntr": "ROOT_TRANSPOSITION",
              "ntt": "DORIAN_5",
              "bassOn": false,
              "chordRootUpperLimit": 4,
              "noteLowLimit": 0,
              "noteHighLimit": 127,
              "rtr": "PITCH_SHIFT"
            },
            "ctb2High": null,
            "ctb2MiddleLowPitch": 0,
            "ctb2MiddleHighPitch": 127
          },
          "notes": [
            {
              "pitch": 60,
              "velocity": 53,
              "position": 0,
              "duration": 0.5270833333333333
            },
            {
              "pitch": 67,
              "velocity": 48,
              "position": 0,
              "duration": 0.6395833333333333
            },
            {
              "pitch": 64,
              "velocity": 53,
              "position": 0,
              "duration": 0.6395833333333333
            },
            {
              "pitch": 60,
              "velocity": 55,
              "position": 0.5520833333333334,
              "duration": 0.30625
            },
            {
              "pitch": 69,
              "velocity": 76,
              "position": 0.6666666666666666,
              "duration": 0.30625
            },
            {
              "pitch": 65,
              "velocity": 79,
              "position": 0.6666666666666666,
              "duration": 0.30625
            },
            {
              "pitch": 66,
              "velocity": 92,
              "position": 1,
              "duration": 0.00625
            },
            {
              "pitch": 70,
              "velocity": 107,
              "position": 1,
              "duration": 0.30625
            },
            {
              "pitch": 67,
              "velocity": 95,
              "position": 1.0208333333333333,
              "duration": 0.28541666666666665
            },
            {
              "pitch": 60,
              "velocity": 59,
              "position": 0.8854166666666666,
              "duration": 0.42083333333333334
            }
          ]
        },
        "7": {
          "ctab": {
            "srcChannel": 7,
            "name": "Tele S m",
            "accType": "PHRASE1",
            "editable": false,
            "mutedNotes": [],
            "mutedChords": [
              "1+2+5",
              "sus4",
              "1+5",
              "1+8",
              "7aug",
              "Maj7aug",
              "7(#9)",
              "7(b13)",
              "7(b9)",
              "7(13)",
              "7#11",
              "7(9)",
              "7b5",
              "7sus4",
              "7th",
              "dim7",
              "dim",
              "minMaj7(9)",
              "minMaj7",
              "min7(11)",
              "min7(9)",
              "min(9)",
              "m7b5",
              "min7",
              "min6",
              "aug",
              "Maj6(9)",
              "Maj7(9)",
              "Maj(9)",
              "Maj7#11",
              "Maj7",
              "Maj6",
              "Maj"
            ],
            "autoStart": false,
            "sourceChordNote": 0,
            "sourceChordType": "Maj7",
            "ctb2Low": null,
            "ctb2Main": {
              "ntr": "ROOT_TRANSPOSITION",
              "ntt": "DORIAN_5",
              "bassOn": false,
              "chordRootUpperLimit": 4,
              "noteLowLimit": 0,
              "noteHighLimit": 127,
              "rtr": "PITCH_SHIFT"
            },
            "ctb2High": {
              "ntr": "ROOT_FIXED",
              "ntt": "BYPASS",
              "bassOn": false,
              "chordRootUpperLimit": 4,
              "noteLowLimit": 0,
              "noteHighLimit": 127,
              "rtr": "PITCH_SHIFT"
            },
            "ctb2MiddleLowPitch": 0,
            "ctb2MiddleHighPitch": 95
          },
          "notes": [
            {
              "pitch": 64,
              "velocity": 116,
              "position": 0,
              "duration": 0.30625
            },
            {
              "pitch": 65,
              "velocity": 36,
              "position": 0.3333333333333333,
              "duration": 0.30625
            },
            {
              "pitch": 72,
              "velocity": 36,
              "position": 0.3333333333333333,
              "duration": 0.30625
            },
            {
              "pitch": 65,
              "velocity": 22,
              "position": 0.6666666666666666,
              "duration": 0.30625
            },
            {
              "pitch": 72,
              "velocity": 22,
              "position": 0.6666666666666666,
              "duration": 0.30625
            },
            {
              "pitch": 72,
              "velocity": 36,
              "position": 1,
              "duration": 0.26458333333333334
            },
            {
              "pitch": 64,
              "velocity": 116,
              "position": 1,
              "duration": 0.30625
            },
            {
              "pitch": 126,
              "velocity": 60,
              "position": 1.2,
              "duration": 1.0145833333333334
            }
          ]
        },
        "8": {
          "ctab": {
            "srcChannel": 8,
            "name": "AddDrum",
            "accType": "SUBRHYTHM",
            "editable": true,
            "mutedNotes": [],
            "mutedChords": [],
            "autoStart": true,
            "sourceChordNote": 0,
            "sourceChordType": "Maj7",
            "ctb2Low": null,
            "ctb2Main": {
              "ntr": "ROOT_FIXED",
              "ntt": "BYPASS",
              "bassOn": false,
              "chordRootUpperLimit": 6,
              "noteLowLimit": 0,
              "noteHighLimit": 127,
              "rtr": "PITCH_SHIFT"
            },
            "ctb2High": null,
            "ctb2MiddleLowPitch": 0,
            "ctb2MiddleHighPitch": 127
          },
          "notes": [
            {
              "pitch": 54,
              "velocity": 36,
              "position": 0,
              "duration": 0.00625
            },
            {
              "pitch": 54,
              "velocity": 9,
              "position": 0.21875,
              "duration": 0.00625
            },
            {
              "pitch": 54,
              "velocity": 25,
              "position": 0.3333333333333333,
              "duration": 0.00625
            },
            {
              "pitch": 54,
              "velocity": 24,
              "position": 0.5520833333333334,
              "duration": 0.00625
            },
            {
              "pitch": 54,
              "velocity": 26,
              "position": 0.6666666666666666,
              "duration": 0.00625
            },
            {
              "pitch": 54,
              "velocity": 8,
              "position": 0.8854166666666666,
              "duration": 0.00625
            },
            {
              "pitch": 54,
              "velocity": 90,
              "position": 1,
              "duration": 0.00625
            }
          ]
        },
        "9": {
          "ctab": {
            "srcChannel": 9,
            "name": "MainDrum",
            "accType": "RHYTHM",
            "editable": true,
            "mutedNotes": [],
            "mutedChords": [],
            "autoStart": true,
            "sourceChordNote": 0,
            "sourceChordType": "Maj7",
            "ctb2Low": null,
            "ctb2Main": {
              "ntr": "ROOT_FIXED",
              "ntt": "BYPASS",
              "bassOn": false,
              "chordRootUpperLimit": 6,
              "noteLowLimit": 0,
              "noteHighLimit": 127,
              "rtr": "PITCH_SHIFT"
            },
            "ctb2High": null,
            "ctb2MiddleLowPitch": 0,
            "ctb2MiddleHighPitch": 127
          },
          "notes": [
            {
              "pitch": 33,
              "velocity": 86,
              "position": 0,
              "duration": 0.00625
            },
            {
              "pitch": 51,
              "velocity": 82,
              "position": 0,
              "duration": 0.00625
            },
            {
              "pitch": 31,
              "velocity": 80,
              "position": 0.21875,
              "duration": 0.00625
            },
            {
              "pitch": 44,
              "velocity": 40,
              "position": 0.3333333333333333,
              "duration": 0.00625
            },
            {
              "pitch": 31,
              "velocity": 23,
              "position": 0.4375,
              "duration": 0.00625
            },
            {
              "pitch": 33,
              "velocity": 64,
              "position": 0.5520833333333334,
              "duration": 0.00625
            },
            {
              "pitch": 44,
              "velocity": 60,
              "position": 0.6666666666666666,
              "duration": 0.00625
            },
            {
              "pitch": 31,
              "velocity": 28,
              "position": 0.7708333333333334,
              "duration": 0.00625
            },
            {
              "pitch": 33,
              "velocity": 64,
              "position": 0.8854166666666666,
              "duration": 0.00625
            },
            {
              "pitch": 31,
              "velocity": 106,
              "position": 1,
              "duration": 0.00625
            },
            {
              "pitch": 46,
              "velocity": 76,
              "position": 1,
              "duration": 0.00625
            },
            {
              "pitch": 33,
              "velocity": 86,
              "position": 1,
              "duration": 0.00625
            },
            {
              "pitch": 44,
              "velocity": 40,
              "position": 1.3333333333333333,
              "duration": 0.00625
            },
            {
              "pitch": 31,
              "velocity": 18,
              "position": 1.4375,
              "duration": 0.00625
            },
            {
              "pitch": 31,
              "velocity": 28,
              "position": 1.5520833333333333,
              "duration": 0.00625
            },
            {
              "pitch": 31,
              "velocity": 18,
              "position": 1.6041666666666667,
              "duration": 0.00625
            },
            {
              "pitch": 44,
              "velocity": 58,
              "position": 1.6666666666666667,
              "duration": 0.00625
            },
            {
              "pitch": 31,
              "velocity": 18,
              "position": 1.7708333333333333,
              "duration": 0.00625
            },
            {
              "pitch": 33,
              "velocity": 64,
              "position": 1.8854166666666667,
              "duration": 0.00625
            },
            {
              "pitch": 47,
              "velocity": 52,
              "position": 2,
              "duration": 0.00625
            },
            {
              "pitch": 48,
              "velocity": 92,
              "position": 2.0208333333333335,
              "duration": 0.00625
            },
            {
              "pitch": 31,
              "velocity": 18,
              "position": 2.1041666666666665,
              "duration": 0.00625
            },
            {
              "pitch": 31,
              "velocity": 28,
              "position": 2.21875,
              "duration": 0.00625
            },
            {
              "pitch": 31,
              "velocity": 18,
              "position": 2.2708333333333335,
              "duration": 0.00625
            },
            {
              "pitch": 44,
              "velocity": 40,
              "position": 2.3333333333333335,
              "duration": 0.00625
            },
            {
              "pitch": 31,
              "velocity": 18,
              "position": 2.4375,
              "duration": 0.00625
            },
            {
              "pitch": 45,
              "velocity": 48,
              "position": 2.5520833333333335,
              "duration": 0.00625
            },
            {
              "pitch": 44,
              "velocity": 58,
              "position": 2.6666666666666665,
              "duration": 0.00625
            },
            {
              "pitch": 31,
              "velocity": 18,
              "position": 2.7708333333333335,
              "duration": 0.00625
            },
            {
              "pitch": 33,
              "velocity": 70,
              "position": 2.8854166666666665,
              "duration": 0.00625
            },
            {
              "pitch": 41,
              "velocity": 82,
              "position": 3,
              "duration": 0.00625
            },
            {
              "pitch": 31,
              "velocity": 18,
              "position": 3.1041666666666665,
              "duration": 0.00625
            },
            {
              "pitch": 33,
              "velocity": 67,
              "position": 3.21875,
              "duration": 0.00625
            },
            {
              "pitch": 44,
              "velocity": 40,
              "position": 3.3333333333333335,
              "duration": 0.00625
            },
            {
              "pitch": 31,
              "velocity": 22,
              "position": 3.4375,
              "duration": 0.00625
            },
            {
              "pitch": 31,
              "velocity": 80,
              "position": 3.5520833333333335,
              "duration": 0.00625
            },
            {
              "pitch": 31,
              "velocity": 112,
              "position": 3.6666666666666665,
              "duration": 0.00625
            },
            {
              "pitch": 44,
              "velocity": 60,
              "position": 3.6666666666666665,
              "duration": 0.00625
            },
            {
              "pitch": 49,
              "velocity": 72,
              "position": 3.9895833333333335,
              "duration": 0.00625
            }
          ]
        },
        "10": {
          "ctab": {
            "srcChannel": 10,
            "name": "Bass A",
            "accType": "BASS",
            "editable": false,
            "mutedNotes": [],
            "mutedChords": [
              "7aug",
              "dim",
              "minMaj7(9)",
              "minMaj7",
              "min(9)",
              "m7b5",
              "min",
              "aug"
            ],
            "autoStart": false,
            "sourceChordNote": 0,
            "sourceChordType": "Maj7",
            "ctb2Low": null,
            "ctb2Main": {
              "ntr": "ROOT_TRANSPOSITION",
              "ntt": "MELODY",
              "bassOn": true,
              "chordRootUpperLimit": 8,
              "noteLowLimit": 28,
              "noteHighLimit": 127,
              "rtr": "PITCH_SHIFT_TO_ROOT"
            },
            "ctb2High": null,
            "ctb2MiddleLowPitch": 0,
            "ctb2MiddleHighPitch": 127
          },
          "notes": [
            {
              "pitch": 24,
              "velocity": 70,
              "position": 0,
              "duration": 0.30625
            },
            {
              "pitch": 24,
              "velocity": 59,
              "position": 0.3333333333333333,
              "duration": 0.30625
            },
            {
              "pitch": 24,
              "velocity": 59,
              "position": 0.6666666666666666,
              "duration": 0.30625
            },
            {
              "pitch": 24,
              "velocity": 70,
              "position": 1,
              "duration": 0.30625
            }
          ]
        },
        "11": {
          "ctab": {
            "srcChannel": 11,
            "name": "SolidGtr",
            "accType": "CHORD1",
            "editable": false,
            "mutedNotes": [],
            "mutedChords": [],
            "autoStart": false,
            "sourceChordNote": 0,
            "sourceChordType": "Maj7",
            "ctb2Low": null,
            "ctb2Main": {
              "ntr": "GUITAR",
              "ntt": "ALL_PURPOSE",
              "bassOn": false,
              "chordRootUpperLimit": 7,
              "noteLowLimit": 0,
              "noteHighLimit": 79,
              "rtr": "PITCH_SHIFT"
            },
            "ctb2High": null,
            "ctb2MiddleLowPitch": 0,
            "ctb2MiddleHighPitch": 127
          },
          "notes": [
            {
              "pitch": 100,
              "velocity": 80,
              "position": 0,
              "duration": 0.19166666666666668
            },
            {
              "pitch": 65,
              "velocity": 50,
              "position": 0,
              "duration": 0.30625
            },
            {
              "pitch": 67,
              "velocity": 50,
              "position": 0,
              "duration": 0.30833333333333335
            },
            {
              "pitch": 69,
              "velocity": 50,
              "position": 0.010416666666666666,
              "duration": 0.30625
            },
            {
              "pitch": 71,
              "velocity": 50,
              "position": 0.020833333333333332,
              "duration": 0.30625
            },
            {
              "pitch": 106,
              "velocity": 40,
              "position": 0.3333333333333333,
              "duration": 0.19166666666666668
            },
            {
              "pitch": 65,
              "velocity": 30,
              "position": 0.3333333333333333,
              "duration": 0.30625
            },
            {
              "pitch": 67,
              "velocity": 30,
              "position": 0.3333333333333333,
              "duration": 0.30833333333333335
            },
            {
              "pitch": 69,
              "velocity": 30,
              "position": 0.34375,
              "duration": 0.30625
            },
            {
              "pitch": 71,
              "velocity": 30,
              "position": 0.3541666666666667,
              "duration": 0.30625
            },
            {
              "pitch": 98,
              "velocity": 60,
              "position": 0.6666666666666666,
              "duration": 0.19166666666666668
            },
            {
              "pitch": 65,
              "velocity": 45,
              "position": 0.6666666666666666,
              "duration": 0.30625
            },
            {
              "pitch": 67,
              "velocity": 45,
              "position": 0.6666666666666666,
              "duration": 0.30833333333333335
            },
            {
              "pitch": 69,
              "velocity": 45,
              "position": 0.6770833333333334,
              "duration": 0.30625
            },
            {
              "pitch": 71,
              "velocity": 45,
              "position": 0.6875,
              "duration": 0.30625
            },
            {
              "pitch": 65,
              "velocity": 60,
              "position": 1,
              "duration": 0.035416666666666666
            },
            {
              "pitch": 67,
              "velocity": 60,
              "position": 1,
              "duration": 0.035416666666666666
            },
            {
              "pitch": 69,
              "velocity": 60,
              "position": 1.0104166666666667,
              "duration": 0.035416666666666666
            },
            {
              "pitch": 71,
              "velocity": 60,
              "position": 1.0208333333333333,
              "duration": 0.035416666666666666
            },
            {
              "pitch": 100,
              "velocity": 90,
              "position": 1,
              "duration": 0.19166666666666668
            }
          ]
        },
        "12": {
          "ctab": {
            "srcChannel": 12,
            "name": "Pno RH",
            "accType": "CHORD2",
            "editable": false,
            "mutedNotes": [],
            "mutedChords": [
              "min",
              "Maj"
            ],
            "autoStart": false,
            "sourceChordNote": 0,
            "sourceChordType": "Maj7",
            "ctb2Low": null,
            "ctb2Main": {
              "ntr": "ROOT_FIXED",
              "ntt": "CHORD",
              "bassOn": false,
              "chordRootUpperLimit": 7,
              "noteLowLimit": 0,
              "noteHighLimit": 127,
              "rtr": "PITCH_SHIFT"
            },
            "ctb2High": null,
            "ctb2MiddleLowPitch": 0,
            "ctb2MiddleHighPitch": 127
          },
          "notes": [
            {
              "pitch": 64,
              "velocity": 71,
              "position": 0,
              "duration": 0.31875
            },
            {
              "pitch": 71,
              "velocity": 78,
              "position": 0,
              "duration": 0.31875
            },
            {
              "pitch": 67,
              "velocity": 71,
              "position": 0,
              "duration": 0.31875
            },
            {
              "pitch": 64,
              "velocity": 58,
              "position": 0.3333333333333333,
              "duration": 0.31875
            },
            {
              "pitch": 71,
              "velocity": 50,
              "position": 0.3333333333333333,
              "duration": 0.31875
            },
            {
              "pitch": 67,
              "velocity": 60,
              "position": 0.3333333333333333,
              "duration": 0.31875
            },
            {
              "pitch": 64,
              "velocity": 67,
              "position": 0.6666666666666666,
              "duration": 0.31875
            },
            {
              "pitch": 71,
              "velocity": 73,
              "position": 0.6666666666666666,
              "duration": 0.31875
            },
            {
              "pitch": 67,
              "velocity": 67,
              "position": 0.6666666666666666,
              "duration": 0.31875
            },
            {
              "pitch": 64,
              "velocity": 80,
              "position": 1,
              "duration": 0.31875
            },
            {
              "pitch": 71,
              "velocity": 85,
              "position": 1,
              "duration": 0.31875
            },
            {
              "pitch": 67,
              "velocity": 72,
              "position": 1,
              "duration": 0.31875
            }
          ]
        },
        "13": {
          "ctab": {
            "srcChannel": 13,
            "name": "E.P",
            "accType": "PAD",
            "editable": false,
            "mutedNotes": [],
            "mutedChords": [
              "min",
              "Maj"
            ],
            "autoStart": false,
            "sourceChordNote": 0,
            "sourceChordType": "Maj7",
            "ctb2Low": null,
            "ctb2Main": {
              "ntr": "ROOT_FIXED",
              "ntt": "CHORD",
              "bassOn": false,
              "chordRootUpperLimit": 7,
              "noteLowLimit": 0,
              "noteHighLimit": 127,
              "rtr": "PITCH_SHIFT"
            },
            "ctb2High": null,
            "ctb2MiddleLowPitch": 0,
            "ctb2MiddleHighPitch": 127
          },
          "notes": [
            {
              "pitch": 59,
              "velocity": 53,
              "position": 0,
              "duration": 0.5270833333333333
            },
            {
              "pitch": 67,
              "velocity": 48,
              "position": 0,
              "duration": 0.6395833333333333
            },
            {
              "pitch": 64,
              "velocity": 53,
              "position": 0,
              "duration": 0.6395833333333333
            },
            {
              "pitch": 59,
              "velocity": 55,
              "position": 0.5520833333333334,
              "duration": 0.30625
            },
            {
              "pitch": 67,
              "velocity": 76,
              "position": 0.6666666666666666,
              "duration": 0.30625
            },
            {
              "pitch": 64,
              "velocity": 79,
              "position": 0.6666666666666666,
              "duration": 0.30625
            },
            {
              "pitch": 59,
              "velocity": 59,
              "position": 0.8854166666666666,
              "duration": 0.42083333333333334
            },
            {
              "pitch": 64,
              "velocity": 95,
              "position": 1.0208333333333333,
              "duration": 0.28541666666666665
            },
            {
              "pitch": 67,
              "velocity": 107,
              "position": 1,
              "duration": 0.30625
            }
          ]
        },
        "14": {
          "ctab": {
            "srcChannel": 14,
            "name": "Tele",
            "accType": "PHRASE1",
            "editable": false,
            "mutedNotes": [],
            "mutedChords": [
              "min",
              "Maj"
            ],
            "autoStart": false,
            "sourceChordNote": 0,
            "sourceChordType": "Maj7",
            "ctb2Low": null,
            "ctb2Main": {
              "ntr": "ROOT_TRANSPOSITION",
              "ntt": "MELODY",
              "bassOn": false,
              "chordRootUpperLimit": 4,
              "noteLowLimit": 0,
              "noteHighLimit": 127,
              "rtr": "PITCH_SHIFT"
            },
            "ctb2High": {
              "ntr": "ROOT_FIXED",
              "ntt": "BYPASS",
              "bassOn": false,
              "chordRootUpperLimit": 4,
              "noteLowLimit": 0,
              "noteHighLimit": 127,
              "rtr": "PITCH_SHIFT"
            },
            "ctb2MiddleLowPitch": 0,
            "ctb2MiddleHighPitch": 95
          },
          "notes": [
            {
              "pitch": 64,
              "velocity": 116,
              "position": 0,
              "duration": 0.30625
            },
            {
              "pitch": 64,
              "velocity": 36,
              "position": 0.3333333333333333,
              "duration": 0.30625
            },
            {
              "pitch": 71,
              "velocity": 36,
              "position": 0.3333333333333333,
              "duration": 0.30625
            },
            {
              "pitch": 64,
              "velocity": 22,
              "position": 0.6666666666666666,
              "duration": 0.30625
            },
            {
              "pitch": 71,
              "velocity": 22,
              "position": 0.6666666666666666,
              "duration": 0.30625
            },
            {
              "pitch": 71,
              "velocity": 36,
              "position": 1,
              "duration": 0.26458333333333334
            },
            {
              "pitch": 64,
              "velocity": 116,
              "position": 1,
              "duration": 0.30625
            },
            {
              "pitch": 126,
              "velocity": 60,
              "position": 1.2,
              "duration": 1.0145833333333334
            }
          ]
        },
        "15": {
          "ctab": {
            "srcChannel": 15,
            "name": "E.P",
            "accType": "PHRASE2",
            "editable": false,
            "mutedNotes": [],
            "mutedChords": [
              "min",
              "Maj"
            ],
            "autoStart": false,
            "sourceChordNote": 0,
            "sourceChordType": "Maj7",
            "ctb2Low": null,
            "ctb2Main": {
              "ntr": "ROOT_FIXED",
              "ntt": "CHORD",
              "bassOn": false,
              "chordRootUpperLimit": 7,
              "noteLowLimit": 0,
              "noteHighLimit": 127,
              "rtr": "PITCH_SHIFT"
            },
            "ctb2High": null,
            "ctb2MiddleLowPitch": 0,
            "ctb2MiddleHighPitch": 127
          },
          "notes": [
            {
              "pitch": 59,
              "velocity": 53,
              "position": 0,
              "duration": 0.5270833333333333
            },
            {
              "pitch": 67,
              "velocity": 48,
              "position": 0,
              "duration": 0.6395833333333333
            },
            {
              "pitch": 64,
              "velocity": 53,
              "position": 0,
              "duration": 0.6395833333333333
            },
            {
              "pitch": 59,
              "velocity": 55,
              "position": 0.5520833333333334,
              "duration": 0.30625
            },
            {
              "pitch": 67,
              "velocity": 76,
              "position": 0.6666666666666666,
              "duration": 0.30625
            },
            {
              "pitch": 64,
              "velocity": 79,
              "position": 0.6666666666666666,
              "duration": 0.30625
            },
            {
              "pitch": 59,
              "velocity": 59,
              "position": 0.8854166666666666,
              "duration": 0.42083333333333334
            },
            {
              "pitch": 64,
              "velocity": 95,
              "position": 1.0208333333333333,
              "duration": 0.28541666666666665
            },
            {
              "pitch": 67,
              "velocity": 107,
              "position": 1,
              "duration": 0.30625
            }
          ]
        }
      }
    },
    "Intro_C": {
      "type": "Intro_C",
      "sizeInBeats": 16,
      "channels": {
        "0": {
          "ctab": {
            "srcChannel": 0,
            "name": "Pno LH",
            "accType": "CHORD2",
            "editable": false,
            "mutedNotes": [],
            "mutedChords": [],
            "autoStart": false,
            "sourceChordNote": 0,
            "sourceChordType": "Maj7",
            "ctb2Low": null,
            "ctb2Main": {
              "ntr": "ROOT_TRANSPOSITION",
              "ntt": "MELODY",
              "bassOn": true,
              "chordRootUpperLimit": 8,
              "noteLowLimit": 0,
              "noteHighLimit": 127,
              "rtr": "PITCH_SHIFT_TO_ROOT"
            },
            "ctb2High": null,
            "ctb2MiddleLowPitch": 0,
            "ctb2MiddleHighPitch": 127
          },
          "notes": [
            {
              "pitch": 36,
              "velocity": 99,
              "position": 1.20625,
              "duration": 1.9875
            },
            {
              "pitch": 36,
              "velocity": 80,
              "position": 3.20625,
              "duration": 0.44375
            },
            {
              "pitch": 36,
              "velocity": 80,
              "position": 3.6666666666666665,
              "duration": 0.30833333333333335
            },
            {
              "pitch": 36,
              "velocity": 99,
              "position": 5.20625,
              "duration": 1.9875
            },
            {
              "pitch": 36,
              "velocity": 80,
              "position": 7.20625,
              "duration": 0.44375
            },
            {
              "pitch": 36,
              "velocity": 80,
              "position": 7.666666666666667,
              "duration": 0.30833333333333335
            },
            {
              "pitch": 36,
              "velocity": 99,
              "position": 9.20625,
              "duration": 1.9875
            },
            {
              "pitch": 36,
              "velocity": 80,
              "position": 11.20625,
              "duration": 0.44375
            },
            {
              "pitch": 36,
              "velocity": 80,
              "position": 11.666666666666666,
              "duration": 0.30833333333333335
            },
            {
              "pitch": 36,
              "velocity": 99,
              "position": 13.20625,
              "duration": 1.9875
            },
            {
              "pitch": 36,
              "velocity": 80,
              "position": 15.20625,
              "duration": 0.44375
            },
            {
              "pitch": 36,
              "velocity": 80,
              "position": 15.666666666666666,
              "duration": 0.30833333333333335
            }
          ]
        },
        "1": {
          "ctab": {
            "srcChannel": 1,
            "name": "Bass B",
            "accType": "BASS",
            "editable": false,
            "mutedNotes": [],
            "mutedChords": [
              "1+2+5",
              "sus4",
              "1+5",
              "1+8",
              "Maj7aug",
              "7(#9)",
              "7(b13)",
              "7(b9)",
              "7(13)",
              "7#11",
              "7(9)",
              "7b5",
              "7sus4",
              "7th",
              "dim7",
              "min7(11)",
              "min7(9)",
              "min7",
              "min6",
              "Maj6(9)",
              "Maj7(9)",
              "Maj(9)",
              "Maj7#11",
              "Maj7",
              "Maj6",
              "Maj"
            ],
            "autoStart": false,
            "sourceChordNote": 0,
            "sourceChordType": "Maj7",
            "ctb2Low": null,
            "ctb2Main": {
              "ntr": "ROOT_TRANSPOSITION",
              "ntt": "MELODY",
              "bassOn": true,
              "chordRootUpperLimit": 8,
              "noteLowLimit": 28,
              "noteHighLimit": 127,
              "rtr": "PITCH_SHIFT_TO_ROOT"
            },
            "ctb2High": null,
            "ctb2MiddleLowPitch": 0,
            "ctb2MiddleHighPitch": 127
          },
          "notes": [
            {
              "pitch": 24,
              "velocity": 70,
              "position": 0,
              "duration": 0.5875
            },
            {
              "pitch": 24,
              "velocity": 59,
              "position": 0.6666666666666666,
              "duration": 0.25416666666666665
            },
            {
              "pitch": 24,
              "velocity": 70,
              "position": 1,
              "duration": 0.2520833333333333
            },
            {
              "pitch": 24,
              "velocity": 59,
              "position": 1.33125,
              "duration": 0.30625
            },
            {
              "pitch": 24,
              "velocity": 59,
              "position": 1.6666666666666667,
              "duration": 0.30625
            },
            {
              "pitch": 24,
              "velocity": 70,
              "position": 2,
              "duration": 0.30625
            },
            {
              "pitch": 24,
              "velocity": 59,
              "position": 2.33125,
              "duration": 0.30625
            },
            {
              "pitch": 31,
              "velocity": 59,
              "position": 2.6666666666666665,
              "duration": 0.30625
            },
            {
              "pitch": 36,
              "velocity": 70,
              "position": 3,
              "duration": 0.30625
            },
            {
              "pitch": 31,
              "velocity": 59,
              "position": 3.33125,
              "duration": 0.30625
            },
            {
              "pitch": 28,
              "velocity": 59,
              "position": 3.6666666666666665,
              "duration": 0.30625
            },
            {
              "pitch": 24,
              "velocity": 70,
              "position": 4,
              "duration": 0.5875
            },
            {
              "pitch": 24,
              "velocity": 59,
              "position": 4.666666666666667,
              "duration": 0.25416666666666665
            },
            {
              "pitch": 24,
              "velocity": 70,
              "position": 5,
              "duration": 0.2520833333333333
            },
            {
              "pitch": 24,
              "velocity": 59,
              "position": 5.33125,
              "duration": 0.30625
            },
            {
              "pitch": 24,
              "velocity": 59,
              "position": 5.666666666666667,
              "duration": 0.30625
            },
            {
              "pitch": 24,
              "velocity": 70,
              "position": 6,
              "duration": 0.30625
            },
            {
              "pitch": 24,
              "velocity": 59,
              "position": 6.33125,
              "duration": 0.30625
            },
            {
              "pitch": 31,
              "velocity": 59,
              "position": 6.666666666666667,
              "duration": 0.30625
            },
            {
              "pitch": 36,
              "velocity": 70,
              "position": 7,
              "duration": 0.30625
            },
            {
              "pitch": 31,
              "velocity": 59,
              "position": 7.33125,
              "duration": 0.30625
            },
            {
              "pitch": 28,
              "velocity": 59,
              "position": 7.666666666666667,
              "duration": 0.30625
            },
            {
              "pitch": 24,
              "velocity": 70,
              "position": 8,
              "duration": 0.5875
            },
            {
              "pitch": 24,
              "velocity": 59,
              "position": 8.666666666666666,
              "duration": 0.25416666666666665
            },
            {
              "pitch": 24,
              "velocity": 70,
              "position": 9,
              "duration": 0.2520833333333333
            },
            {
              "pitch": 24,
              "velocity": 59,
              "position": 9.33125,
              "duration": 0.30625
            },
            {
              "pitch": 24,
              "velocity": 59,
              "position": 9.666666666666666,
              "duration": 0.30625
            },
            {
              "pitch": 24,
              "velocity": 70,
              "position": 10,
              "duration": 0.30625
            },
            {
              "pitch": 24,
              "velocity": 59,
              "position": 10.33125,
              "duration": 0.30625
            },
            {
              "pitch": 31,
              "velocity": 59,
              "position": 10.666666666666666,
              "duration": 0.30625
            },
            {
              "pitch": 36,
              "velocity": 70,
              "position": 11,
              "duration": 0.30625
            },
            {
              "pitch": 31,
              "velocity": 59,
              "position": 11.33125,
              "duration": 0.30625
            },
            {
              "pitch": 28,
              "velocity": 59,
              "position": 11.666666666666666,
              "duration": 0.30625
            },
            {
              "pitch": 24,
              "velocity": 70,
              "position": 12,
              "duration": 0.5875
            },
            {
              "pitch": 24,
              "velocity": 59,
              "position": 12.666666666666666,
              "duration": 0.25416666666666665
            },
            {
              "pitch": 24,
              "velocity": 70,
              "position": 13,
              "duration": 0.2520833333333333
            },
            {
              "pitch": 24,
              "velocity": 59,
              "position": 13.33125,
              "duration": 0.30625
            },
            {
              "pitch": 24,
              "velocity": 59,
              "position": 13.666666666666666,
              "duration": 0.30625
            },
            {
              "pitch": 24,
              "velocity": 70,
              "position": 14,
              "duration": 0.30625
            },
            {
              "pitch": 24,
              "velocity": 59,
              "position": 14.33125,
              "duration": 0.30625
            },
            {
              "pitch": 31,
              "velocity": 59,
              "position": 14.666666666666666,
              "duration": 0.30625
            },
            {
              "pitch": 36,
              "velocity": 70,
              "position": 15,
              "duration": 0.30625
            },
            {
              "pitch": 31,
              "velocity": 59,
              "position": 15.33125,
              "duration": 0.30625
            },
            {
              "pitch": 28,
              "velocity": 59,
              "position": 15.666666666666666,
              "duration": 0.30625
            }
          ]
        },
        "3": {
          "ctab": {
            "srcChannel": 3,
            "name": "Pno RH S",
            "accType": "CHORD2",
            "editable": false,
            "mutedNotes": [],
            "mutedChords": [
              "1+2+5",
              "sus4",
              "1+5",
              "1+8",
              "7aug",
              "Maj7aug",
              "7(#9)",
              "7(b13)",
              "7(b9)",
              "7(13)",
              "7#11",
              "7(9)",
              "7b5",
              "7sus4",
              "7th",
              "dim7",
              "dim",
              "minMaj7(9)",
              "minMaj7",
              "min7(11)",
              "min7(9)",
              "min(9)",
              "m7b5",
              "min7",
              "min6",
              "aug",
              "Maj6(9)",
              "Maj7(9)",
              "Maj(9)",
              "Maj7#11",
              "Maj7",
              "Maj6"
            ],
            "autoStart": false,
            "sourceChordNote": 0,
            "sourceChordType": "Maj7",
            "ctb2Low": null,
            "ctb2Main": {
              "ntr": "ROOT_TRANSPOSITION",
              "ntt": "DORIAN_5",
              "bassOn": false,
              "chordRootUpperLimit": 11,
              "noteLowLimit": 58,
              "noteHighLimit": 79,
              "rtr": "PITCH_SHIFT"
            },
            "ctb2High": null,
            "ctb2MiddleLowPitch": 0,
            "ctb2MiddleHighPitch": 127
          },
          "notes": [
            {
              "pitch": 46,
              "velocity": 75,
              "position": 0,
              "duration": 0.31875
            },
            {
              "pitch": 55,
              "velocity": 82,
              "position": 0,
              "duration": 0.31875
            },
            {
              "pitch": 52,
              "velocity": 75,
              "position": 0,
              "duration": 0.31875
            },
            {
              "pitch": 48,
              "velocity": 65,
              "position": 0,
              "duration": 0.31875
            },
            {
              "pitch": 46,
              "velocity": 66,
              "position": 0.33125,
              "duration": 0.31875
            },
            {
              "pitch": 55,
              "velocity": 71,
              "position": 0.33125,
              "duration": 0.31875
            },
            {
              "pitch": 52,
              "velocity": 66,
              "position": 0.33125,
              "duration": 0.31875
            },
            {
              "pitch": 48,
              "velocity": 65,
              "position": 0.33125,
              "duration": 0.31875
            },
            {
              "pitch": 46,
              "velocity": 63,
              "position": 0.6666666666666666,
              "duration": 0.31875
            },
            {
              "pitch": 55,
              "velocity": 61,
              "position": 0.6666666666666666,
              "duration": 0.31875
            },
            {
              "pitch": 52,
              "velocity": 63,
              "position": 0.6666666666666666,
              "duration": 0.31875
            },
            {
              "pitch": 48,
              "velocity": 69,
              "position": 0.6666666666666666,
              "duration": 0.31875
            },
            {
              "pitch": 46,
              "velocity": 77,
              "position": 1,
              "duration": 0.31875
            },
            {
              "pitch": 55,
              "velocity": 82,
              "position": 1,
              "duration": 0.31875
            },
            {
              "pitch": 52,
              "velocity": 77,
              "position": 1,
              "duration": 0.31875
            },
            {
              "pitch": 48,
              "velocity": 77,
              "position": 1,
              "duration": 0.31875
            },
            {
              "pitch": 78,
              "velocity": 77,
              "position": 1.33125,
              "duration": 0.04791666666666667
            },
            {
              "pitch": 82,
              "velocity": 78,
              "position": 1.33125,
              "duration": 0.225
            },
            {
              "pitch": 74,
              "velocity": 77,
              "position": 1.33125,
              "duration": 0.225
            },
            {
              "pitch": 79,
              "velocity": 77,
              "position": 1.3854166666666667,
              "duration": 0.17291666666666666
            },
            {
              "pitch": 55,
              "velocity": 77,
              "position": 1.55,
              "duration": 0.1
            },
            {
              "pitch": 72,
              "velocity": 85,
              "position": 1.6666666666666667,
              "duration": 0.26666666666666666
            },
            {
              "pitch": 81,
              "velocity": 94,
              "position": 1.6666666666666667,
              "duration": 0.26666666666666666
            },
            {
              "pitch": 77,
              "velocity": 99,
              "position": 1.6666666666666667,
              "duration": 0.26666666666666666
            },
            {
              "pitch": 70,
              "velocity": 87,
              "position": 2,
              "duration": 0.225
            },
            {
              "pitch": 76,
              "velocity": 87,
              "position": 2,
              "duration": 0.225
            },
            {
              "pitch": 79,
              "velocity": 87,
              "position": 2,
              "duration": 0.225
            },
            {
              "pitch": 55,
              "velocity": 77,
              "position": 2.21875,
              "duration": 0.1
            },
            {
              "pitch": 69,
              "velocity": 66,
              "position": 2.33125,
              "duration": 0.26875
            },
            {
              "pitch": 74,
              "velocity": 77,
              "position": 2.33125,
              "duration": 0.26875
            },
            {
              "pitch": 77,
              "velocity": 77,
              "position": 2.33125,
              "duration": 0.26875
            },
            {
              "pitch": 75,
              "velocity": 96,
              "position": 2.6666666666666665,
              "duration": 0.04791666666666667
            },
            {
              "pitch": 76,
              "velocity": 83,
              "position": 2.70625,
              "duration": 0.13125
            },
            {
              "pitch": 67,
              "velocity": 84,
              "position": 2.6666666666666665,
              "duration": 0.18333333333333332
            },
            {
              "pitch": 72,
              "velocity": 86,
              "position": 2.6666666666666665,
              "duration": 0.18333333333333332
            },
            {
              "pitch": 48,
              "velocity": 77,
              "position": 2.55,
              "duration": 0.31875
            },
            {
              "pitch": 75,
              "velocity": 96,
              "position": 3,
              "duration": 0.04583333333333333
            },
            {
              "pitch": 48,
              "velocity": 77,
              "position": 2.8854166666666665,
              "duration": 0.31875
            },
            {
              "pitch": 65,
              "velocity": 75,
              "position": 3,
              "duration": 0.31875
            },
            {
              "pitch": 74,
              "velocity": 95,
              "position": 3.0416666666666665,
              "duration": 0.27708333333333335
            },
            {
              "pitch": 70,
              "velocity": 90,
              "position": 3,
              "duration": 0.31875
            },
            {
              "pitch": 65,
              "velocity": 69,
              "position": 3.33125,
              "duration": 0.15208333333333332
            },
            {
              "pitch": 72,
              "velocity": 69,
              "position": 3.33125,
              "duration": 0.15208333333333332
            },
            {
              "pitch": 69,
              "velocity": 69,
              "position": 3.33125,
              "duration": 0.15208333333333332
            },
            {
              "pitch": 48,
              "velocity": 77,
              "position": 3.21875,
              "duration": 0.31875
            },
            {
              "pitch": 48,
              "velocity": 77,
              "position": 3.55,
              "duration": 0.31875
            },
            {
              "pitch": 72,
              "velocity": 99,
              "position": 3.6666666666666665,
              "duration": 0.31875
            },
            {
              "pitch": 48,
              "velocity": 74,
              "position": 3.8854166666666665,
              "duration": 0.1
            },
            {
              "pitch": 67,
              "velocity": 99,
              "position": 3.6666666666666665,
              "duration": 0.31875
            },
            {
              "pitch": 64,
              "velocity": 96,
              "position": 3.6666666666666665,
              "duration": 0.31875
            },
            {
              "pitch": 46,
              "velocity": 75,
              "position": 4,
              "duration": 0.31875
            },
            {
              "pitch": 55,
              "velocity": 82,
              "position": 4,
              "duration": 0.31875
            },
            {
              "pitch": 52,
              "velocity": 75,
              "position": 4,
              "duration": 0.31875
            },
            {
              "pitch": 48,
              "velocity": 65,
              "position": 4,
              "duration": 0.31875
            },
            {
              "pitch": 46,
              "velocity": 66,
              "position": 4.33125,
              "duration": 0.31875
            },
            {
              "pitch": 55,
              "velocity": 71,
              "position": 4.33125,
              "duration": 0.31875
            },
            {
              "pitch": 52,
              "velocity": 66,
              "position": 4.33125,
              "duration": 0.31875
            },
            {
              "pitch": 48,
              "velocity": 65,
              "position": 4.33125,
              "duration": 0.31875
            },
            {
              "pitch": 46,
              "velocity": 63,
              "position": 4.666666666666667,
              "duration": 0.31875
            },
            {
              "pitch": 55,
              "velocity": 61,
              "position": 4.666666666666667,
              "duration": 0.31875
            },
            {
              "pitch": 52,
              "velocity": 63,
              "position": 4.666666666666667,
              "duration": 0.31875
            },
            {
              "pitch": 48,
              "velocity": 69,
              "position": 4.666666666666667,
              "duration": 0.31875
            },
            {
              "pitch": 46,
              "velocity": 77,
              "position": 5,
              "duration": 0.31875
            },
            {
              "pitch": 55,
              "velocity": 82,
              "position": 5,
              "duration": 0.31875
            },
            {
              "pitch": 52,
              "velocity": 77,
              "position": 5,
              "duration": 0.31875
            },
            {
              "pitch": 48,
              "velocity": 77,
              "position": 5,
              "duration": 0.31875
            },
            {
              "pitch": 78,
              "velocity": 77,
              "position": 5.33125,
              "duration": 0.04791666666666667
            },
            {
              "pitch": 82,
              "velocity": 78,
              "position": 5.33125,
              "duration": 0.225
            },
            {
              "pitch": 74,
              "velocity": 77,
              "position": 5.33125,
              "duration": 0.225
            },
            {
              "pitch": 79,
              "velocity": 77,
              "position": 5.385416666666667,
              "duration": 0.17291666666666666
            },
            {
              "pitch": 55,
              "velocity": 77,
              "position": 5.55,
              "duration": 0.1
            },
            {
              "pitch": 72,
              "velocity": 85,
              "position": 5.666666666666667,
              "duration": 0.26666666666666666
            },
            {
              "pitch": 81,
              "velocity": 94,
              "position": 5.666666666666667,
              "duration": 0.26666666666666666
            },
            {
              "pitch": 77,
              "velocity": 99,
              "position": 5.666666666666667,
              "duration": 0.26666666666666666
            },
            {
              "pitch": 70,
              "velocity": 87,
              "position": 6,
              "duration": 0.225
            },
            {
              "pitch": 76,
              "velocity": 87,
              "position": 6,
              "duration": 0.225
            },
            {
              "pitch": 79,
              "velocity": 87,
              "position": 6,
              "duration": 0.225
            },
            {
              "pitch": 55,
              "velocity": 77,
              "position": 6.21875,
              "duration": 0.1
            },
            {
              "pitch": 69,
              "velocity": 66,
              "position": 6.33125,
              "duration": 0.26875
            },
            {
              "pitch": 74,
              "velocity": 77,
              "position": 6.33125,
              "duration": 0.26875
            },
            {
              "pitch": 77,
              "velocity": 77,
              "position": 6.33125,
              "duration": 0.26875
            },
            {
              "pitch": 75,
              "velocity": 96,
              "position": 6.666666666666667,
              "duration": 0.04791666666666667
            },
            {
              "pitch": 76,
              "velocity": 83,
              "position": 6.70625,
              "duration": 0.13125
            },
            {
              "pitch": 67,
              "velocity": 84,
              "position": 6.666666666666667,
              "duration": 0.18333333333333332
            },
            {
              "pitch": 72,
              "velocity": 86,
              "position": 6.666666666666667,
              "duration": 0.18333333333333332
            },
            {
              "pitch": 48,
              "velocity": 77,
              "position": 6.55,
              "duration": 0.31875
            },
            {
              "pitch": 75,
              "velocity": 96,
              "position": 7,
              "duration": 0.04583333333333333
            },
            {
              "pitch": 48,
              "velocity": 77,
              "position": 6.885416666666667,
              "duration": 0.31875
            },
            {
              "pitch": 65,
              "velocity": 75,
              "position": 7,
              "duration": 0.31875
            },
            {
              "pitch": 74,
              "velocity": 95,
              "position": 7.041666666666667,
              "duration": 0.27708333333333335
            },
            {
              "pitch": 70,
              "velocity": 90,
              "position": 7,
              "duration": 0.31875
            },
            {
              "pitch": 65,
              "velocity": 69,
              "position": 7.33125,
              "duration": 0.15208333333333332
            },
            {
              "pitch": 72,
              "velocity": 69,
              "position": 7.33125,
              "duration": 0.15208333333333332
            },
            {
              "pitch": 69,
              "velocity": 69,
              "position": 7.33125,
              "duration": 0.15208333333333332
            },
            {
              "pitch": 48,
              "velocity": 77,
              "position": 7.21875,
              "duration": 0.31875
            },
            {
              "pitch": 48,
              "velocity": 77,
              "position": 7.55,
              "duration": 0.31875
            },
            {
              "pitch": 72,
              "velocity": 99,
              "position": 7.666666666666667,
              "duration": 0.31875
            },
            {
              "pitch": 48,
              "velocity": 74,
              "position": 7.885416666666667,
              "duration": 0.1
            },
            {
              "pitch": 67,
              "velocity": 99,
              "position": 7.666666666666667,
              "duration": 0.31875
            },
            {
              "pitch": 64,
              "velocity": 96,
              "position": 7.666666666666667,
              "duration": 0.31875
            },
            {
              "pitch": 46,
              "velocity": 75,
              "position": 8,
              "duration": 0.31875
            },
            {
              "pitch": 55,
              "velocity": 82,
              "position": 8,
              "duration": 0.31875
            },
            {
              "pitch": 52,
              "velocity": 75,
              "position": 8,
              "duration": 0.31875
            },
            {
              "pitch": 48,
              "velocity": 65,
              "position": 8,
              "duration": 0.31875
            },
            {
              "pitch": 46,
              "velocity": 66,
              "position": 8.33125,
              "duration": 0.31875
            },
            {
              "pitch": 55,
              "velocity": 71,
              "position": 8.33125,
              "duration": 0.31875
            },
            {
              "pitch": 52,
              "velocity": 66,
              "position": 8.33125,
              "duration": 0.31875
            },
            {
              "pitch": 48,
              "velocity": 65,
              "position": 8.33125,
              "duration": 0.31875
            },
            {
              "pitch": 46,
              "velocity": 63,
              "position": 8.666666666666666,
              "duration": 0.31875
            },
            {
              "pitch": 55,
              "velocity": 61,
              "position": 8.666666666666666,
              "duration": 0.31875
            },
            {
              "pitch": 52,
              "velocity": 63,
              "position": 8.666666666666666,
              "duration": 0.31875
            },
            {
              "pitch": 48,
              "velocity": 69,
              "position": 8.666666666666666,
              "duration": 0.31875
            },
            {
              "pitch": 46,
              "velocity": 77,
              "position": 9,
              "duration": 0.31875
            },
            {
              "pitch": 55,
              "velocity": 82,
              "position": 9,
              "duration": 0.31875
            },
            {
              "pitch": 52,
              "velocity": 77,
              "position": 9,
              "duration": 0.31875
            },
            {
              "pitch": 48,
              "velocity": 77,
              "position": 9,
              "duration": 0.31875
            },
            {
              "pitch": 78,
              "velocity": 77,
              "position": 9.33125,
              "duration": 0.04791666666666667
            },
            {
              "pitch": 82,
              "velocity": 78,
              "position": 9.33125,
              "duration": 0.225
            },
            {
              "pitch": 74,
              "velocity": 77,
              "position": 9.33125,
              "duration": 0.225
            },
            {
              "pitch": 79,
              "velocity": 77,
              "position": 9.385416666666666,
              "duration": 0.17291666666666666
            },
            {
              "pitch": 55,
              "velocity": 77,
              "position": 9.55,
              "duration": 0.1
            },
            {
              "pitch": 72,
              "velocity": 85,
              "position": 9.666666666666666,
              "duration": 0.26666666666666666
            },
            {
              "pitch": 81,
              "velocity": 94,
              "position": 9.666666666666666,
              "duration": 0.26666666666666666
            },
            {
              "pitch": 77,
              "velocity": 99,
              "position": 9.666666666666666,
              "duration": 0.26666666666666666
            },
            {
              "pitch": 70,
              "velocity": 87,
              "position": 10,
              "duration": 0.225
            },
            {
              "pitch": 76,
              "velocity": 87,
              "position": 10,
              "duration": 0.225
            },
            {
              "pitch": 79,
              "velocity": 87,
              "position": 10,
              "duration": 0.225
            },
            {
              "pitch": 55,
              "velocity": 77,
              "position": 10.21875,
              "duration": 0.1
            },
            {
              "pitch": 69,
              "velocity": 66,
              "position": 10.33125,
              "duration": 0.26875
            },
            {
              "pitch": 74,
              "velocity": 77,
              "position": 10.33125,
              "duration": 0.26875
            },
            {
              "pitch": 77,
              "velocity": 77,
              "position": 10.33125,
              "duration": 0.26875
            },
            {
              "pitch": 75,
              "velocity": 96,
              "position": 10.666666666666666,
              "duration": 0.04791666666666667
            },
            {
              "pitch": 76,
              "velocity": 83,
              "position": 10.70625,
              "duration": 0.13125
            },
            {
              "pitch": 67,
              "velocity": 84,
              "position": 10.666666666666666,
              "duration": 0.18333333333333332
            },
            {
              "pitch": 72,
              "velocity": 86,
              "position": 10.666666666666666,
              "duration": 0.18333333333333332
            },
            {
              "pitch": 48,
              "velocity": 77,
              "position": 10.55,
              "duration": 0.31875
            },
            {
              "pitch": 75,
              "velocity": 96,
              "position": 11,
              "duration": 0.04583333333333333
            },
            {
              "pitch": 48,
              "velocity": 77,
              "position": 10.885416666666666,
              "duration": 0.31875
            },
            {
              "pitch": 65,
              "velocity": 75,
              "position": 11,
              "duration": 0.31875
            },
            {
              "pitch": 74,
              "velocity": 95,
              "position": 11.041666666666666,
              "duration": 0.27708333333333335
            },
            {
              "pitch": 70,
              "velocity": 90,
              "position": 11,
              "duration": 0.31875
            },
            {
              "pitch": 65,
              "velocity": 69,
              "position": 11.33125,
              "duration": 0.15208333333333332
            },
            {
              "pitch": 72,
              "velocity": 69,
              "position": 11.33125,
              "duration": 0.15208333333333332
            },
            {
              "pitch": 69,
              "velocity": 69,
              "position": 11.33125,
              "duration": 0.15208333333333332
            },
            {
              "pitch": 48,
              "velocity": 77,
              "position": 11.21875,
              "duration": 0.31875
            },
            {
              "pitch": 48,
              "velocity": 77,
              "position": 11.55,
              "duration": 0.31875
            },
            {
              "pitch": 72,
              "velocity": 99,
              "position": 11.666666666666666,
              "duration": 0.31875
            },
            {
              "pitch": 48,
              "velocity": 74,
              "position": 11.885416666666666,
              "duration": 0.1
            },
            {
              "pitch": 67,
              "velocity": 99,
              "position": 11.666666666666666,
              "duration": 0.31875
            },
            {
              "pitch": 64,
              "velocity": 96,
              "position": 11.666666666666666,
              "duration": 0.31875
            },
            {
              "pitch": 46,
              "velocity": 75,
              "position": 12,
              "duration": 0.31875
            },
            {
              "pitch": 55,
              "velocity": 82,
              "position": 12,
              "duration": 0.31875
            },
            {
              "pitch": 52,
              "velocity": 75,
              "position": 12,
              "duration": 0.31875
            },
            {
              "pitch": 48,
              "velocity": 65,
              "position": 12,
              "duration": 0.31875
            },
            {
              "pitch": 46,
              "velocity": 66,
              "position": 12.33125,
              "duration": 0.31875
            },
            {
              "pitch": 55,
              "velocity": 71,
              "position": 12.33125,
              "duration": 0.31875
            },
            {
              "pitch": 52,
              "velocity": 66,
              "position": 12.33125,
              "duration": 0.31875
            },
            {
              "pitch": 48,
              "velocity": 65,
              "position": 12.33125,
              "duration": 0.31875
            },
            {
              "pitch": 46,
              "velocity": 63,
              "position": 12.666666666666666,
              "duration": 0.31875
            },
            {
              "pitch": 55,
              "velocity": 61,
              "position": 12.666666666666666,
              "duration": 0.31875
            },
            {
              "pitch": 52,
              "velocity": 63,
              "position": 12.666666666666666,
              "duration": 0.31875
            },
            {
              "pitch": 48,
              "velocity": 69,
              "position": 12.666666666666666,
              "duration": 0.31875
            },
            {
              "pitch": 46,
              "velocity": 77,
              "position": 13,
              "duration": 0.31875
            },
            {
              "pitch": 55,
              "velocity": 82,
              "position": 13,
              "duration": 0.31875
            },
            {
              "pitch": 52,
              "velocity": 77,
              "position": 13,
              "duration": 0.31875
            },
            {
              "pitch": 48,
              "velocity": 77,
              "position": 13,
              "duration": 0.31875
            },
            {
              "pitch": 78,
              "velocity": 77,
              "position": 13.33125,
              "duration": 0.04791666666666667
            },
            {
              "pitch": 82,
              "velocity": 78,
              "position": 13.33125,
              "duration": 0.225
            },
            {
              "pitch": 74,
              "velocity": 77,
              "position": 13.33125,
              "duration": 0.225
            },
            {
              "pitch": 79,
              "velocity": 77,
              "position": 13.385416666666666,
              "duration": 0.17291666666666666
            },
            {
              "pitch": 55,
              "velocity": 77,
              "position": 13.55,
              "duration": 0.1
            },
            {
              "pitch": 72,
              "velocity": 85,
              "position": 13.666666666666666,
              "duration": 0.26666666666666666
            },
            {
              "pitch": 81,
              "velocity": 94,
              "position": 13.666666666666666,
              "duration": 0.26666666666666666
            },
            {
              "pitch": 77,
              "velocity": 99,
              "position": 13.666666666666666,
              "duration": 0.26666666666666666
            },
            {
              "pitch": 70,
              "velocity": 87,
              "position": 14,
              "duration": 0.225
            },
            {
              "pitch": 76,
              "velocity": 87,
              "position": 14,
              "duration": 0.225
            },
            {
              "pitch": 79,
              "velocity": 87,
              "position": 14,
              "duration": 0.225
            },
            {
              "pitch": 55,
              "velocity": 77,
              "position": 14.21875,
              "duration": 0.1
            },
            {
              "pitch": 69,
              "velocity": 66,
              "position": 14.33125,
              "duration": 0.26875
            },
            {
              "pitch": 74,
              "velocity": 77,
              "position": 14.33125,
              "duration": 0.26875
            },
            {
              "pitch": 77,
              "velocity": 77,
              "position": 14.33125,
              "duration": 0.26875
            },
            {
              "pitch": 75,
              "velocity": 96,
              "position": 14.666666666666666,
              "duration": 0.04791666666666667
            },
            {
              "pitch": 76,
              "velocity": 83,
              "position": 14.70625,
              "duration": 0.13125
            },
            {
              "pitch": 67,
              "velocity": 84,
              "position": 14.666666666666666,
              "duration": 0.18333333333333332
            },
            {
              "pitch": 72,
              "velocity": 86,
              "position": 14.666666666666666,
              "duration": 0.18333333333333332
            },
            {
              "pitch": 48,
              "velocity": 77,
              "position": 14.55,
              "duration": 0.31875
            },
            {
              "pitch": 75,
              "velocity": 96,
              "position": 15,
              "duration": 0.04583333333333333
            },
            {
              "pitch": 48,
              "velocity": 77,
              "position": 14.885416666666666,
              "duration": 0.31875
            },
            {
              "pitch": 65,
              "velocity": 75,
              "position": 15,
              "duration": 0.31875
            },
            {
              "pitch": 74,
              "velocity": 95,
              "position": 15.041666666666666,
              "duration": 0.27708333333333335
            },
            {
              "pitch": 70,
              "velocity": 90,
              "position": 15,
              "duration": 0.31875
            },
            {
              "pitch": 65,
              "velocity": 69,
              "position": 15.33125,
              "duration": 0.15208333333333332
            },
            {
              "pitch": 72,
              "velocity": 69,
              "position": 15.33125,
              "duration": 0.15208333333333332
            },
            {
              "pitch": 69,
              "velocity": 69,
              "position": 15.33125,
              "duration": 0.15208333333333332
            },
            {
              "pitch": 48,
              "velocity": 77,
              "position": 15.21875,
              "duration": 0.31875
            },
            {
              "pitch": 48,
              "velocity": 77,
              "position": 15.55,
              "duration": 0.31875
            },
            {
              "pitch": 72,
              "velocity": 99,
              "position": 15.666666666666666,
              "duration": 0.31875
            },
            {
              "pitch": 48,
              "velocity": 74,
              "position": 15.885416666666666,
              "duration": 0.1
            },
            {
              "pitch": 67,
              "velocity": 99,
              "position": 15.666666666666666,
              "duration": 0.31875
            },
            {
              "pitch": 64,
              "velocity": 96,
              "position": 15.666666666666666,
              "duration": 0.31875
            }
          ]
        },
        "5": {
          "ctab": {
            "srcChannel": 5,
            "name": "Tele S M",
            "accType": "PHRASE1",
            "editable": false,
            "mutedNotes": [],
            "mutedChords": [
              "1+2+5",
              "sus4",
              "1+5",
              "1+8",
              "7aug",
              "Maj7aug",
              "7(#9)",
              "7(b13)",
              "7(b9)",
              "7(13)",
              "7#11",
              "7(9)",
              "7b5",
              "7sus4",
              "7th",
              "dim7",
              "dim",
              "minMaj7(9)",
              "minMaj7",
              "min7(11)",
              "min7(9)",
              "min(9)",
              "m7b5",
              "min7",
              "min6",
              "min",
              "aug",
              "Maj6(9)",
              "Maj7(9)",
              "Maj(9)",
              "Maj7#11",
              "Maj7",
              "Maj6"
            ],
            "autoStart": false,
            "sourceChordNote": 0,
            "sourceChordType": "Maj7",
            "ctb2Low": null,
            "ctb2Main": {
              "ntr": "ROOT_TRANSPOSITION",
              "ntt": "DORIAN_5",
              "bassOn": false,
              "chordRootUpperLimit": 4,
              "noteLowLimit": 0,
              "noteHighLimit": 127,
              "rtr": "PITCH_SHIFT"
            },
            "ctb2High": {
              "ntr": "ROOT_FIXED",
              "ntt": "BYPASS",
              "bassOn": false,
              "chordRootUpperLimit": 4,
              "noteLowLimit": 0,
              "noteHighLimit": 127,
              "rtr": "PITCH_SHIFT"
            },
            "ctb2MiddleLowPitch": 0,
            "ctb2MiddleHighPitch": 95
          },
          "notes": [
            {
              "pitch": 60,
              "velocity": 116,
              "position": 0.0020833333333333333,
              "duration": 0.9708333333333333
            },
            {
              "pitch": 55,
              "velocity": 36,
              "position": 1,
              "duration": 0.30625
            },
            {
              "pitch": 57,
              "velocity": 16,
              "position": 1.33125,
              "duration": 0.30625
            },
            {
              "pitch": 60,
              "velocity": 36,
              "position": 1.6666666666666667,
              "duration": 1.3041666666666667
            },
            {
              "pitch": 63,
              "velocity": 24,
              "position": 3,
              "duration": 0.6395833333333333
            },
            {
              "pitch": 62,
              "velocity": 16,
              "position": 3.6666666666666665,
              "duration": 0.30625
            },
            {
              "pitch": 60,
              "velocity": 116,
              "position": 4.002083333333333,
              "duration": 0.9708333333333333
            },
            {
              "pitch": 55,
              "velocity": 36,
              "position": 5,
              "duration": 0.30625
            },
            {
              "pitch": 57,
              "velocity": 16,
              "position": 5.33125,
              "duration": 0.30625
            },
            {
              "pitch": 60,
              "velocity": 36,
              "position": 5.666666666666667,
              "duration": 1.3041666666666667
            },
            {
              "pitch": 63,
              "velocity": 24,
              "position": 7,
              "duration": 0.6395833333333333
            },
            {
              "pitch": 62,
              "velocity": 16,
              "position": 7.666666666666667,
              "duration": 0.30625
            },
            {
              "pitch": 60,
              "velocity": 116,
              "position": 8.002083333333333,
              "duration": 0.9708333333333333
            },
            {
              "pitch": 55,
              "velocity": 36,
              "position": 9,
              "duration": 0.30625
            },
            {
              "pitch": 57,
              "velocity": 16,
              "position": 9.33125,
              "duration": 0.30625
            },
            {
              "pitch": 60,
              "velocity": 36,
              "position": 9.666666666666666,
              "duration": 1.3041666666666667
            },
            {
              "pitch": 63,
              "velocity": 24,
              "position": 11,
              "duration": 0.6395833333333333
            },
            {
              "pitch": 62,
              "velocity": 16,
              "position": 11.666666666666666,
              "duration": 0.30625
            },
            {
              "pitch": 60,
              "velocity": 116,
              "position": 12.002083333333333,
              "duration": 0.9708333333333333
            },
            {
              "pitch": 55,
              "velocity": 36,
              "position": 13,
              "duration": 0.30625
            },
            {
              "pitch": 57,
              "velocity": 16,
              "position": 13.33125,
              "duration": 0.30625
            },
            {
              "pitch": 60,
              "velocity": 36,
              "position": 13.666666666666666,
              "duration": 1.3041666666666667
            },
            {
              "pitch": 63,
              "velocity": 24,
              "position": 15,
              "duration": 0.6395833333333333
            },
            {
              "pitch": 62,
              "velocity": 16,
              "position": 15.666666666666666,
              "duration": 0.30625
            }
          ]
        },
        "6": {
          "ctab": {
            "srcChannel": 6,
            "name": "E.P  S",
            "accType": "PHRASE2",
            "editable": false,
            "mutedNotes": [],
            "mutedChords": [
              "1+2+5",
              "sus4",
              "1+5",
              "1+8",
              "7aug",
              "Maj7aug",
              "7(#9)",
              "7(b13)",
              "7(b9)",
              "7(13)",
              "7#11",
              "7(9)",
              "7b5",
              "7sus4",
              "7th",
              "dim7",
              "dim",
              "minMaj7(9)",
              "minMaj7",
              "min7(11)",
              "min7(9)",
              "min(9)",
              "m7b5",
              "min7",
              "min6",
              "aug",
              "Maj6(9)",
              "Maj7(9)",
              "Maj(9)",
              "Maj7#11",
              "Maj7",
              "Maj6"
            ],
            "autoStart": false,
            "sourceChordNote": 0,
            "sourceChordType": "Maj7",
            "ctb2Low": null,
            "ctb2Main": {
              "ntr": "ROOT_TRANSPOSITION",
              "ntt": "DORIAN_5",
              "bassOn": false,
              "chordRootUpperLimit": 4,
              "noteLowLimit": 0,
              "noteHighLimit": 127,
              "rtr": "PITCH_SHIFT"
            },
            "ctb2High": null,
            "ctb2MiddleLowPitch": 0,
            "ctb2MiddleHighPitch": 127
          },
          "notes": [
            {
              "pitch": 58,
              "velocity": 67,
              "position": 0,
              "duration": 3.30625
            },
            {
              "pitch": 67,
              "velocity": 67,
              "position": 0,
              "duration": 3.30625
            },
            {
              "pitch": 64,
              "velocity": 69,
              "position": 0,
              "duration": 3.30625
            },
            {
              "pitch": 60,
              "velocity": 67,
              "position": 0,
              "duration": 3.30625
            },
            {
              "pitch": 60,
              "velocity": 71,
              "position": 3.33125,
              "duration": 0.30625
            },
            {
              "pitch": 69,
              "velocity": 53,
              "position": 3.33125,
              "duration": 0.30625
            },
            {
              "pitch": 65,
              "velocity": 65,
              "position": 3.33125,
              "duration": 0.30625
            },
            {
              "pitch": 58,
              "velocity": 71,
              "position": 3.6666666666666665,
              "duration": 0.30625
            },
            {
              "pitch": 67,
              "velocity": 53,
              "position": 3.6666666666666665,
              "duration": 0.30625
            },
            {
              "pitch": 64,
              "velocity": 65,
              "position": 3.6666666666666665,
              "duration": 0.30625
            },
            {
              "pitch": 60,
              "velocity": 71,
              "position": 3.6666666666666665,
              "duration": 0.30625
            },
            {
              "pitch": 58,
              "velocity": 67,
              "position": 4,
              "duration": 3.30625
            },
            {
              "pitch": 67,
              "velocity": 67,
              "position": 4,
              "duration": 3.30625
            },
            {
              "pitch": 64,
              "velocity": 69,
              "position": 4,
              "duration": 3.30625
            },
            {
              "pitch": 60,
              "velocity": 67,
              "position": 4,
              "duration": 3.30625
            },
            {
              "pitch": 60,
              "velocity": 71,
              "position": 7.33125,
              "duration": 0.30625
            },
            {
              "pitch": 69,
              "velocity": 53,
              "position": 7.33125,
              "duration": 0.30625
            },
            {
              "pitch": 65,
              "velocity": 65,
              "position": 7.33125,
              "duration": 0.30625
            },
            {
              "pitch": 58,
              "velocity": 71,
              "position": 7.666666666666667,
              "duration": 0.30625
            },
            {
              "pitch": 67,
              "velocity": 53,
              "position": 7.666666666666667,
              "duration": 0.30625
            },
            {
              "pitch": 64,
              "velocity": 65,
              "position": 7.666666666666667,
              "duration": 0.30625
            },
            {
              "pitch": 60,
              "velocity": 71,
              "position": 7.666666666666667,
              "duration": 0.30625
            },
            {
              "pitch": 58,
              "velocity": 67,
              "position": 8,
              "duration": 3.30625
            },
            {
              "pitch": 67,
              "velocity": 67,
              "position": 8,
              "duration": 3.30625
            },
            {
              "pitch": 64,
              "velocity": 69,
              "position": 8,
              "duration": 3.30625
            },
            {
              "pitch": 60,
              "velocity": 67,
              "position": 8,
              "duration": 3.30625
            },
            {
              "pitch": 60,
              "velocity": 71,
              "position": 11.33125,
              "duration": 0.30625
            },
            {
              "pitch": 69,
              "velocity": 53,
              "position": 11.33125,
              "duration": 0.30625
            },
            {
              "pitch": 65,
              "velocity": 65,
              "position": 11.33125,
              "duration": 0.30625
            },
            {
              "pitch": 58,
              "velocity": 71,
              "position": 11.666666666666666,
              "duration": 0.30625
            },
            {
              "pitch": 67,
              "velocity": 53,
              "position": 11.666666666666666,
              "duration": 0.30625
            },
            {
              "pitch": 64,
              "velocity": 65,
              "position": 11.666666666666666,
              "duration": 0.30625
            },
            {
              "pitch": 60,
              "velocity": 71,
              "position": 11.666666666666666,
              "duration": 0.30625
            },
            {
              "pitch": 58,
              "velocity": 67,
              "position": 12,
              "duration": 3.30625
            },
            {
              "pitch": 67,
              "velocity": 67,
              "position": 12,
              "duration": 3.30625
            },
            {
              "pitch": 64,
              "velocity": 69,
              "position": 12,
              "duration": 3.30625
            },
            {
              "pitch": 60,
              "velocity": 67,
              "position": 12,
              "duration": 3.30625
            },
            {
              "pitch": 60,
              "velocity": 71,
              "position": 15.33125,
              "duration": 0.30625
            },
            {
              "pitch": 69,
              "velocity": 53,
              "position": 15.33125,
              "duration": 0.30625
            },
            {
              "pitch": 65,
              "velocity": 65,
              "position": 15.33125,
              "duration": 0.30625
            },
            {
              "pitch": 58,
              "velocity": 71,
              "position": 15.666666666666666,
              "duration": 0.30625
            },
            {
              "pitch": 67,
              "velocity": 53,
              "position": 15.666666666666666,
              "duration": 0.30625
            },
            {
              "pitch": 64,
              "velocity": 65,
              "position": 15.666666666666666,
              "duration": 0.30625
            },
            {
              "pitch": 60,
              "velocity": 71,
              "position": 15.666666666666666,
              "duration": 0.30625
            }
          ]
        },
        "7": {
          "ctab": {
            "srcChannel": 7,
            "name": "Tele S m",
            "accType": "PHRASE1",
            "editable": false,
            "mutedNotes": [],
            "mutedChords": [
              "1+2+5",
              "sus4",
              "1+5",
              "1+8",
              "7aug",
              "Maj7aug",
              "7(#9)",
              "7(b13)",
              "7(b9)",
              "7(13)",
              "7#11",
              "7(9)",
              "7b5",
              "7sus4",
              "7th",
              "dim7",
              "dim",
              "minMaj7(9)",
              "minMaj7",
              "min7(11)",
              "min7(9)",
              "min(9)",
              "m7b5",
              "min7",
              "min6",
              "aug",
              "Maj6(9)",
              "Maj7(9)",
              "Maj(9)",
              "Maj7#11",
              "Maj7",
              "Maj6",
              "Maj"
            ],
            "autoStart": false,
            "sourceChordNote": 0,
            "sourceChordType": "Maj7",
            "ctb2Low": null,
            "ctb2Main": {
              "ntr": "ROOT_TRANSPOSITION",
              "ntt": "DORIAN_5",
              "bassOn": false,
              "chordRootUpperLimit": 4,
              "noteLowLimit": 0,
              "noteHighLimit": 127,
              "rtr": "PITCH_SHIFT"
            },
            "ctb2High": {
              "ntr": "ROOT_FIXED",
              "ntt": "BYPASS",
              "bassOn": false,
              "chordRootUpperLimit": 4,
              "noteLowLimit": 0,
              "noteHighLimit": 127,
              "rtr": "PITCH_SHIFT"
            },
            "ctb2MiddleLowPitch": 0,
            "ctb2MiddleHighPitch": 95
          },
          "notes": [
            {
              "pitch": 60,
              "velocity": 116,
              "position": 0,
              "duration": 0.9708333333333333
            },
            {
              "pitch": 55,
              "velocity": 36,
              "position": 1,
              "duration": 0.30625
            },
            {
              "pitch": 58,
              "velocity": 16,
              "position": 1.33125,
              "duration": 0.30625
            },
            {
              "pitch": 60,
              "velocity": 36,
              "position": 1.6666666666666667,
              "duration": 1.3041666666666667
            },
            {
              "pitch": 66,
              "velocity": 24,
              "position": 3,
              "duration": 0.6395833333333333
            },
            {
              "pitch": 65,
              "velocity": 16,
              "position": 3.6666666666666665,
              "duration": 0.30625
            },
            {
              "pitch": 60,
              "velocity": 116,
              "position": 4,
              "duration": 0.9708333333333333
            },
            {
              "pitch": 55,
              "velocity": 36,
              "position": 5,
              "duration": 0.30625
            },
            {
              "pitch": 58,
              "velocity": 16,
              "position": 5.33125,
              "duration": 0.30625
            },
            {
              "pitch": 60,
              "velocity": 36,
              "position": 5.666666666666667,
              "duration": 1.3041666666666667
            },
            {
              "pitch": 66,
              "velocity": 24,
              "position": 7,
              "duration": 0.6395833333333333
            },
            {
              "pitch": 65,
              "velocity": 16,
              "position": 7.666666666666667,
              "duration": 0.30625
            },
            {
              "pitch": 60,
              "velocity": 116,
              "position": 8,
              "duration": 0.9708333333333333
            },
            {
              "pitch": 55,
              "velocity": 36,
              "position": 9,
              "duration": 0.30625
            },
            {
              "pitch": 58,
              "velocity": 16,
              "position": 9.33125,
              "duration": 0.30625
            },
            {
              "pitch": 60,
              "velocity": 36,
              "position": 9.666666666666666,
              "duration": 1.3041666666666667
            },
            {
              "pitch": 66,
              "velocity": 24,
              "position": 11,
              "duration": 0.6395833333333333
            },
            {
              "pitch": 65,
              "velocity": 16,
              "position": 11.666666666666666,
              "duration": 0.30625
            },
            {
              "pitch": 60,
              "velocity": 116,
              "position": 12,
              "duration": 0.9708333333333333
            },
            {
              "pitch": 55,
              "velocity": 36,
              "position": 13,
              "duration": 0.30625
            },
            {
              "pitch": 58,
              "velocity": 16,
              "position": 13.33125,
              "duration": 0.30625
            },
            {
              "pitch": 60,
              "velocity": 36,
              "position": 13.666666666666666,
              "duration": 1.3041666666666667
            },
            {
              "pitch": 66,
              "velocity": 24,
              "position": 15,
              "duration": 0.6395833333333333
            },
            {
              "pitch": 65,
              "velocity": 16,
              "position": 15.666666666666666,
              "duration": 0.30625
            }
          ]
        },
        "8": {
          "ctab": {
            "srcChannel": 8,
            "name": "AddDrum",
            "accType": "SUBRHYTHM",
            "editable": true,
            "mutedNotes": [],
            "mutedChords": [],
            "autoStart": true,
            "sourceChordNote": 0,
            "sourceChordType": "Maj7",
            "ctb2Low": null,
            "ctb2Main": {
              "ntr": "ROOT_FIXED",
              "ntt": "BYPASS",
              "bassOn": false,
              "chordRootUpperLimit": 6,
              "noteLowLimit": 0,
              "noteHighLimit": 127,
              "rtr": "PITCH_SHIFT"
            },
            "ctb2High": null,
            "ctb2MiddleLowPitch": 0,
            "ctb2MiddleHighPitch": 127
          },
          "notes": [
            {
              "pitch": 54,
              "velocity": 36,
              "position": 0,
              "duration": 0.00625
            },
            {
              "pitch": 54,
              "velocity": 9,
              "position": 0.21875,
              "duration": 0.00625
            },
            {
              "pitch": 54,
              "velocity": 25,
              "position": 0.3333333333333333,
              "duration": 0.00625
            },
            {
              "pitch": 54,
              "velocity": 24,
              "position": 0.5520833333333334,
              "duration": 0.00625
            },
            {
              "pitch": 54,
              "velocity": 26,
              "position": 0.6645833333333333,
              "duration": 0.008333333333333333
            },
            {
              "pitch": 54,
              "velocity": 8,
              "position": 0.8833333333333333,
              "duration": 0.008333333333333333
            },
            {
              "pitch": 54,
              "velocity": 90,
              "position": 1,
              "duration": 0.00625
            },
            {
              "pitch": 54,
              "velocity": 13,
              "position": 1.21875,
              "duration": 0.00625
            },
            {
              "pitch": 54,
              "velocity": 25,
              "position": 1.3333333333333333,
              "duration": 0.00625
            },
            {
              "pitch": 54,
              "velocity": 10,
              "position": 1.5520833333333333,
              "duration": 0.00625
            },
            {
              "pitch": 54,
              "velocity": 19,
              "position": 1.6645833333333333,
              "duration": 0.008333333333333333
            },
            {
              "pitch": 54,
              "velocity": 10,
              "position": 1.8833333333333333,
              "duration": 0.008333333333333333
            },
            {
              "pitch": 54,
              "velocity": 36,
              "position": 2,
              "duration": 0.00625
            },
            {
              "pitch": 54,
              "velocity": 9,
              "position": 2.21875,
              "duration": 0.00625
            },
            {
              "pitch": 54,
              "velocity": 25,
              "position": 2.3333333333333335,
              "duration": 0.00625
            },
            {
              "pitch": 54,
              "velocity": 24,
              "position": 2.5520833333333335,
              "duration": 0.00625
            },
            {
              "pitch": 54,
              "velocity": 26,
              "position": 2.6645833333333333,
              "duration": 0.008333333333333333
            },
            {
              "pitch": 54,
              "velocity": 8,
              "position": 2.8833333333333333,
              "duration": 0.008333333333333333
            },
            {
              "pitch": 54,
              "velocity": 90,
              "position": 3,
              "duration": 0.00625
            },
            {
              "pitch": 54,
              "velocity": 13,
              "position": 3.21875,
              "duration": 0.00625
            },
            {
              "pitch": 54,
              "velocity": 25,
              "position": 3.3333333333333335,
              "duration": 0.00625
            },
            {
              "pitch": 54,
              "velocity": 10,
              "position": 3.5520833333333335,
              "duration": 0.00625
            },
            {
              "pitch": 54,
              "velocity": 19,
              "position": 3.6645833333333333,
              "duration": 0.008333333333333333
            },
            {
              "pitch": 54,
              "velocity": 10,
              "position": 3.8833333333333333,
              "duration": 0.008333333333333333
            },
            {
              "pitch": 54,
              "velocity": 36,
              "position": 4,
              "duration": 0.00625
            },
            {
              "pitch": 54,
              "velocity": 9,
              "position": 4.21875,
              "duration": 0.00625
            },
            {
              "pitch": 54,
              "velocity": 25,
              "position": 4.333333333333333,
              "duration": 0.00625
            },
            {
              "pitch": 54,
              "velocity": 24,
              "position": 4.552083333333333,
              "duration": 0.00625
            },
            {
              "pitch": 54,
              "velocity": 26,
              "position": 4.664583333333334,
              "duration": 0.008333333333333333
            },
            {
              "pitch": 54,
              "velocity": 8,
              "position": 4.883333333333334,
              "duration": 0.008333333333333333
            },
            {
              "pitch": 54,
              "velocity": 90,
              "position": 5,
              "duration": 0.00625
            },
            {
              "pitch": 54,
              "velocity": 13,
              "position": 5.21875,
              "duration": 0.00625
            },
            {
              "pitch": 54,
              "velocity": 25,
              "position": 5.333333333333333,
              "duration": 0.00625
            },
            {
              "pitch": 54,
              "velocity": 10,
              "position": 5.552083333333333,
              "duration": 0.00625
            },
            {
              "pitch": 54,
              "velocity": 19,
              "position": 5.664583333333334,
              "duration": 0.008333333333333333
            },
            {
              "pitch": 54,
              "velocity": 10,
              "position": 5.883333333333334,
              "duration": 0.008333333333333333
            },
            {
              "pitch": 54,
              "velocity": 36,
              "position": 6,
              "duration": 0.00625
            },
            {
              "pitch": 54,
              "velocity": 9,
              "position": 6.21875,
              "duration": 0.00625
            },
            {
              "pitch": 54,
              "velocity": 25,
              "position": 6.333333333333333,
              "duration": 0.00625
            },
            {
              "pitch": 54,
              "velocity": 24,
              "position": 6.552083333333333,
              "duration": 0.00625
            },
            {
              "pitch": 54,
              "velocity": 26,
              "position": 6.664583333333334,
              "duration": 0.008333333333333333
            },
            {
              "pitch": 54,
              "velocity": 8,
              "position": 6.883333333333334,
              "duration": 0.008333333333333333
            },
            {
              "pitch": 54,
              "velocity": 90,
              "position": 7,
              "duration": 0.00625
            },
            {
              "pitch": 54,
              "velocity": 13,
              "position": 7.21875,
              "duration": 0.00625
            },
            {
              "pitch": 54,
              "velocity": 25,
              "position": 7.333333333333333,
              "duration": 0.00625
            },
            {
              "pitch": 54,
              "velocity": 10,
              "position": 7.552083333333333,
              "duration": 0.00625
            },
            {
              "pitch": 54,
              "velocity": 19,
              "position": 7.664583333333334,
              "duration": 0.008333333333333333
            },
            {
              "pitch": 54,
              "velocity": 10,
              "position": 7.883333333333334,
              "duration": 0.008333333333333333
            },
            {
              "pitch": 54,
              "velocity": 36,
              "position": 8,
              "duration": 0.00625
            },
            {
              "pitch": 54,
              "velocity": 9,
              "position": 8.21875,
              "duration": 0.00625
            },
            {
              "pitch": 54,
              "velocity": 25,
              "position": 8.333333333333334,
              "duration": 0.00625
            },
            {
              "pitch": 54,
              "velocity": 24,
              "position": 8.552083333333334,
              "duration": 0.00625
            },
            {
              "pitch": 54,
              "velocity": 26,
              "position": 8.664583333333333,
              "duration": 0.008333333333333333
            },
            {
              "pitch": 54,
              "velocity": 8,
              "position": 8.883333333333333,
              "duration": 0.008333333333333333
            },
            {
              "pitch": 54,
              "velocity": 90,
              "position": 9,
              "duration": 0.00625
            },
            {
              "pitch": 54,
              "velocity": 13,
              "position": 9.21875,
              "duration": 0.00625
            },
            {
              "pitch": 54,
              "velocity": 25,
              "position": 9.333333333333334,
              "duration": 0.00625
            },
            {
              "pitch": 54,
              "velocity": 10,
              "position": 9.552083333333334,
              "duration": 0.00625
            },
            {
              "pitch": 54,
              "velocity": 19,
              "position": 9.664583333333333,
              "duration": 0.008333333333333333
            },
            {
              "pitch": 54,
              "velocity": 10,
              "position": 9.883333333333333,
              "duration": 0.008333333333333333
            },
            {
              "pitch": 54,
              "velocity": 36,
              "position": 10,
              "duration": 0.00625
            },
            {
              "pitch": 54,
              "velocity": 9,
              "position": 10.21875,
              "duration": 0.00625
            },
            {
              "pitch": 54,
              "velocity": 25,
              "position": 10.333333333333334,
              "duration": 0.00625
            },
            {
              "pitch": 54,
              "velocity": 24,
              "position": 10.552083333333334,
              "duration": 0.00625
            },
            {
              "pitch": 54,
              "velocity": 26,
              "position": 10.664583333333333,
              "duration": 0.008333333333333333
            },
            {
              "pitch": 54,
              "velocity": 8,
              "position": 10.883333333333333,
              "duration": 0.008333333333333333
            },
            {
              "pitch": 54,
              "velocity": 90,
              "position": 11,
              "duration": 0.00625
            },
            {
              "pitch": 54,
              "velocity": 13,
              "position": 11.21875,
              "duration": 0.00625
            },
            {
              "pitch": 54,
              "velocity": 25,
              "position": 11.333333333333334,
              "duration": 0.00625
            },
            {
              "pitch": 54,
              "velocity": 10,
              "position": 11.552083333333334,
              "duration": 0.00625
            },
            {
              "pitch": 54,
              "velocity": 19,
              "position": 11.664583333333333,
              "duration": 0.008333333333333333
            },
            {
              "pitch": 54,
              "velocity": 10,
              "position": 11.883333333333333,
              "duration": 0.008333333333333333
            },
            {
              "pitch": 54,
              "velocity": 36,
              "position": 12,
              "duration": 0.00625
            },
            {
              "pitch": 54,
              "velocity": 9,
              "position": 12.21875,
              "duration": 0.00625
            },
            {
              "pitch": 54,
              "velocity": 25,
              "position": 12.333333333333334,
              "duration": 0.00625
            },
            {
              "pitch": 54,
              "velocity": 24,
              "position": 12.552083333333334,
              "duration": 0.00625
            },
            {
              "pitch": 54,
              "velocity": 26,
              "position": 12.666666666666666,
              "duration": 0.00625
            },
            {
              "pitch": 54,
              "velocity": 8,
              "position": 12.885416666666666,
              "duration": 0.00625
            },
            {
              "pitch": 54,
              "velocity": 90,
              "position": 13,
              "duration": 0.00625
            },
            {
              "pitch": 54,
              "velocity": 13,
              "position": 13.21875,
              "duration": 0.00625
            },
            {
              "pitch": 54,
              "velocity": 25,
              "position": 13.333333333333334,
              "duration": 0.00625
            },
            {
              "pitch": 54,
              "velocity": 10,
              "position": 13.552083333333334,
              "duration": 0.00625
            },
            {
              "pitch": 54,
              "velocity": 19,
              "position": 13.666666666666666,
              "duration": 0.00625
            },
            {
              "pitch": 54,
              "velocity": 10,
              "position": 13.885416666666666,
              "duration": 0.00625
            },
            {
              "pitch": 54,
              "velocity": 36,
              "position": 14,
              "duration": 0.00625
            },
            {
              "pitch": 54,
              "velocity": 9,
              "position": 14.21875,
              "duration": 0.00625
            },
            {
              "pitch": 54,
              "velocity": 25,
              "position": 14.333333333333334,
              "duration": 0.00625
            },
            {
              "pitch": 54,
              "velocity": 24,
              "position": 14.552083333333334,
              "duration": 0.00625
            },
            {
              "pitch": 54,
              "velocity": 26,
              "position": 14.666666666666666,
              "duration": 0.00625
            },
            {
              "pitch": 54,
              "velocity": 8,
              "position": 14.885416666666666,
              "duration": 0.00625
            },
            {
              "pitch": 54,
              "velocity": 90,
              "position": 15,
              "duration": 0.00625
            },
            {
              "pitch": 54,
              "velocity": 13,
              "position": 15.21875,
              "duration": 0.00625
            },
            {
              "pitch": 54,
              "velocity": 25,
              "position": 15.333333333333334,
              "duration": 0.00625
            },
            {
              "pitch": 54,
              "velocity": 10,
              "position": 15.552083333333334,
              "duration": 0.00625
            },
            {
              "pitch": 54,
              "velocity": 19,
              "position": 15.666666666666666,
              "duration": 0.00625
            },
            {
              "pitch": 54,
              "velocity": 10,
              "position": 15.885416666666666,
              "duration": 0.00625
            }
          ]
        },
        "9": {
          "ctab": {
            "srcChannel": 9,
            "name": "MainDrum",
            "accType": "RHYTHM",
            "editable": true,
            "mutedNotes": [],
            "mutedChords": [],
            "autoStart": true,
            "sourceChordNote": 0,
            "sourceChordType": "Maj7",
            "ctb2Low": null,
            "ctb2Main": {
              "ntr": "ROOT_FIXED",
              "ntt": "BYPASS",
              "bassOn": false,
              "chordRootUpperLimit": 6,
              "noteLowLimit": 0,
              "noteHighLimit": 127,
              "rtr": "PITCH_SHIFT"
            },
            "ctb2High": null,
            "ctb2MiddleLowPitch": 0,
            "ctb2MiddleHighPitch": 127
          },
          "notes": [
            {
              "pitch": 33,
              "velocity": 86,
              "position": 0,
              "duration": 0.00625
            },
            {
              "pitch": 51,
              "velocity": 82,
              "position": 0,
              "duration": 0.00625
            },
            {
              "pitch": 44,
              "velocity": 40,
              "position": 0.3333333333333333,
              "duration": 0.00625
            },
            {
              "pitch": 51,
              "velocity": 62,
              "position": 0.3333333333333333,
              "duration": 0.00625
            },
            {
              "pitch": 31,
              "velocity": 17,
              "position": 0.55,
              "duration": 0.00625
            },
            {
              "pitch": 51,
              "velocity": 30,
              "position": 0.5520833333333334,
              "duration": 0.00625
            },
            {
              "pitch": 44,
              "velocity": 60,
              "position": 0.6645833333333333,
              "duration": 0.008333333333333333
            },
            {
              "pitch": 51,
              "velocity": 72,
              "position": 0.6645833333333333,
              "duration": 0.008333333333333333
            },
            {
              "pitch": 31,
              "velocity": 22,
              "position": 0.76875,
              "duration": 0.00625
            },
            {
              "pitch": 33,
              "velocity": 64,
              "position": 0.8833333333333333,
              "duration": 0.008333333333333333
            },
            {
              "pitch": 31,
              "velocity": 110,
              "position": 1,
              "duration": 0.00625
            },
            {
              "pitch": 51,
              "velocity": 82,
              "position": 1,
              "duration": 0.00625
            },
            {
              "pitch": 51,
              "velocity": 30,
              "position": 1.21875,
              "duration": 0.00625
            },
            {
              "pitch": 51,
              "velocity": 62,
              "position": 1.3333333333333333,
              "duration": 0.00625
            },
            {
              "pitch": 31,
              "velocity": 19,
              "position": 1.55,
              "duration": 0.00625
            },
            {
              "pitch": 33,
              "velocity": 64,
              "position": 1.6645833333333333,
              "duration": 0.008333333333333333
            },
            {
              "pitch": 51,
              "velocity": 72,
              "position": 1.6645833333333333,
              "duration": 0.008333333333333333
            },
            {
              "pitch": 31,
              "velocity": 24,
              "position": 1.76875,
              "duration": 0.00625
            },
            {
              "pitch": 51,
              "velocity": 30,
              "position": 1.8833333333333333,
              "duration": 0.008333333333333333
            },
            {
              "pitch": 33,
              "velocity": 86,
              "position": 2,
              "duration": 0.00625
            },
            {
              "pitch": 51,
              "velocity": 82,
              "position": 2,
              "duration": 0.00625
            },
            {
              "pitch": 44,
              "velocity": 40,
              "position": 2.3333333333333335,
              "duration": 0.00625
            },
            {
              "pitch": 51,
              "velocity": 62,
              "position": 2.3333333333333335,
              "duration": 0.00625
            },
            {
              "pitch": 31,
              "velocity": 17,
              "position": 2.55,
              "duration": 0.00625
            },
            {
              "pitch": 51,
              "velocity": 30,
              "position": 2.5520833333333335,
              "duration": 0.00625
            },
            {
              "pitch": 44,
              "velocity": 60,
              "position": 2.6645833333333333,
              "duration": 0.008333333333333333
            },
            {
              "pitch": 51,
              "velocity": 72,
              "position": 2.6645833333333333,
              "duration": 0.008333333333333333
            },
            {
              "pitch": 31,
              "velocity": 22,
              "position": 2.76875,
              "duration": 0.00625
            },
            {
              "pitch": 33,
              "velocity": 64,
              "position": 2.8833333333333333,
              "duration": 0.008333333333333333
            },
            {
              "pitch": 31,
              "velocity": 104,
              "position": 3,
              "duration": 0.00625
            },
            {
              "pitch": 51,
              "velocity": 82,
              "position": 3,
              "duration": 0.00625
            },
            {
              "pitch": 51,
              "velocity": 30,
              "position": 3.21875,
              "duration": 0.00625
            },
            {
              "pitch": 51,
              "velocity": 62,
              "position": 3.3333333333333335,
              "duration": 0.00625
            },
            {
              "pitch": 33,
              "velocity": 64,
              "position": 3.5520833333333335,
              "duration": 0.00625
            },
            {
              "pitch": 33,
              "velocity": 80,
              "position": 3.6645833333333333,
              "duration": 0.008333333333333333
            },
            {
              "pitch": 51,
              "velocity": 72,
              "position": 3.6645833333333333,
              "duration": 0.008333333333333333
            },
            {
              "pitch": 51,
              "velocity": 30,
              "position": 3.8833333333333333,
              "duration": 0.008333333333333333
            },
            {
              "pitch": 33,
              "velocity": 86,
              "position": 4,
              "duration": 0.00625
            },
            {
              "pitch": 51,
              "velocity": 82,
              "position": 4,
              "duration": 0.00625
            },
            {
              "pitch": 44,
              "velocity": 40,
              "position": 4.333333333333333,
              "duration": 0.00625
            },
            {
              "pitch": 51,
              "velocity": 62,
              "position": 4.333333333333333,
              "duration": 0.00625
            },
            {
              "pitch": 31,
              "velocity": 19,
              "position": 4.552083333333333,
              "duration": 0.00625
            },
            {
              "pitch": 51,
              "velocity": 30,
              "position": 4.552083333333333,
              "duration": 0.00625
            },
            {
              "pitch": 44,
              "velocity": 60,
              "position": 4.664583333333334,
              "duration": 0.008333333333333333
            },
            {
              "pitch": 51,
              "velocity": 72,
              "position": 4.664583333333334,
              "duration": 0.008333333333333333
            },
            {
              "pitch": 31,
              "velocity": 24,
              "position": 4.770833333333333,
              "duration": 0.00625
            },
            {
              "pitch": 33,
              "velocity": 64,
              "position": 4.883333333333334,
              "duration": 0.008333333333333333
            },
            {
              "pitch": 31,
              "velocity": 110,
              "position": 5,
              "duration": 0.00625
            },
            {
              "pitch": 51,
              "velocity": 82,
              "position": 5,
              "duration": 0.00625
            },
            {
              "pitch": 51,
              "velocity": 30,
              "position": 5.21875,
              "duration": 0.00625
            },
            {
              "pitch": 51,
              "velocity": 62,
              "position": 5.333333333333333,
              "duration": 0.00625
            },
            {
              "pitch": 31,
              "velocity": 19,
              "position": 5.552083333333333,
              "duration": 0.00625
            },
            {
              "pitch": 33,
              "velocity": 64,
              "position": 5.664583333333334,
              "duration": 0.008333333333333333
            },
            {
              "pitch": 51,
              "velocity": 72,
              "position": 5.664583333333334,
              "duration": 0.008333333333333333
            },
            {
              "pitch": 31,
              "velocity": 24,
              "position": 5.770833333333333,
              "duration": 0.00625
            },
            {
              "pitch": 51,
              "velocity": 30,
              "position": 5.883333333333334,
              "duration": 0.008333333333333333
            },
            {
              "pitch": 33,
              "velocity": 86,
              "position": 6,
              "duration": 0.00625
            },
            {
              "pitch": 51,
              "velocity": 82,
              "position": 6,
              "duration": 0.00625
            },
            {
              "pitch": 44,
              "velocity": 40,
              "position": 6.333333333333333,
              "duration": 0.00625
            },
            {
              "pitch": 51,
              "velocity": 62,
              "position": 6.333333333333333,
              "duration": 0.00625
            },
            {
              "pitch": 31,
              "velocity": 19,
              "position": 6.552083333333333,
              "duration": 0.00625
            },
            {
              "pitch": 51,
              "velocity": 30,
              "position": 6.552083333333333,
              "duration": 0.00625
            },
            {
              "pitch": 44,
              "velocity": 60,
              "position": 6.664583333333334,
              "duration": 0.008333333333333333
            },
            {
              "pitch": 51,
              "velocity": 72,
              "position": 6.664583333333334,
              "duration": 0.008333333333333333
            },
            {
              "pitch": 31,
              "velocity": 24,
              "position": 6.770833333333333,
              "duration": 0.00625
            },
            {
              "pitch": 33,
              "velocity": 64,
              "position": 6.883333333333334,
              "duration": 0.008333333333333333
            },
            {
              "pitch": 31,
              "velocity": 110,
              "position": 7,
              "duration": 0.00625
            },
            {
              "pitch": 51,
              "velocity": 82,
              "position": 7,
              "duration": 0.00625
            },
            {
              "pitch": 51,
              "velocity": 30,
              "position": 7.21875,
              "duration": 0.008333333333333333
            },
            {
              "pitch": 33,
              "velocity": 86,
              "position": 7.333333333333333,
              "duration": 0.00625
            },
            {
              "pitch": 51,
              "velocity": 62,
              "position": 7.333333333333333,
              "duration": 0.00625
            },
            {
              "pitch": 31,
              "velocity": 19,
              "position": 7.552083333333333,
              "duration": 0.00625
            },
            {
              "pitch": 33,
              "velocity": 70,
              "position": 7.664583333333334,
              "duration": 0.008333333333333333
            },
            {
              "pitch": 51,
              "velocity": 72,
              "position": 7.664583333333334,
              "duration": 0.008333333333333333
            },
            {
              "pitch": 31,
              "velocity": 14,
              "position": 7.883333333333334,
              "duration": 0.008333333333333333
            },
            {
              "pitch": 51,
              "velocity": 30,
              "position": 7.883333333333334,
              "duration": 0.008333333333333333
            },
            {
              "pitch": 33,
              "velocity": 86,
              "position": 8,
              "duration": 0.00625
            },
            {
              "pitch": 51,
              "velocity": 82,
              "position": 8,
              "duration": 0.00625
            },
            {
              "pitch": 44,
              "velocity": 40,
              "position": 8.333333333333334,
              "duration": 0.00625
            },
            {
              "pitch": 51,
              "velocity": 62,
              "position": 8.333333333333334,
              "duration": 0.00625
            },
            {
              "pitch": 31,
              "velocity": 19,
              "position": 8.552083333333334,
              "duration": 0.00625
            },
            {
              "pitch": 51,
              "velocity": 30,
              "position": 8.552083333333334,
              "duration": 0.00625
            },
            {
              "pitch": 44,
              "velocity": 60,
              "position": 8.664583333333333,
              "duration": 0.008333333333333333
            },
            {
              "pitch": 51,
              "velocity": 72,
              "position": 8.664583333333333,
              "duration": 0.008333333333333333
            },
            {
              "pitch": 31,
              "velocity": 24,
              "position": 8.770833333333334,
              "duration": 0.00625
            },
            {
              "pitch": 33,
              "velocity": 64,
              "position": 8.883333333333333,
              "duration": 0.008333333333333333
            },
            {
              "pitch": 31,
              "velocity": 110,
              "position": 9,
              "duration": 0.00625
            },
            {
              "pitch": 51,
              "velocity": 82,
              "position": 9,
              "duration": 0.00625
            },
            {
              "pitch": 51,
              "velocity": 30,
              "position": 9.21875,
              "duration": 0.00625
            },
            {
              "pitch": 51,
              "velocity": 62,
              "position": 9.333333333333334,
              "duration": 0.00625
            },
            {
              "pitch": 31,
              "velocity": 19,
              "position": 9.552083333333334,
              "duration": 0.00625
            },
            {
              "pitch": 33,
              "velocity": 64,
              "position": 9.664583333333333,
              "duration": 0.008333333333333333
            },
            {
              "pitch": 51,
              "velocity": 72,
              "position": 9.664583333333333,
              "duration": 0.008333333333333333
            },
            {
              "pitch": 31,
              "velocity": 24,
              "position": 9.770833333333334,
              "duration": 0.00625
            },
            {
              "pitch": 51,
              "velocity": 30,
              "position": 9.883333333333333,
              "duration": 0.008333333333333333
            },
            {
              "pitch": 33,
              "velocity": 86,
              "position": 10,
              "duration": 0.00625
            },
            {
              "pitch": 51,
              "velocity": 82,
              "position": 10,
              "duration": 0.00625
            },
            {
              "pitch": 44,
              "velocity": 40,
              "position": 10.333333333333334,
              "duration": 0.00625
            },
            {
              "pitch": 51,
              "velocity": 62,
              "position": 10.333333333333334,
              "duration": 0.00625
            },
            {
              "pitch": 31,
              "velocity": 19,
              "position": 10.552083333333334,
              "duration": 0.00625
            },
            {
              "pitch": 51,
              "velocity": 30,
              "position": 10.552083333333334,
              "duration": 0.00625
            },
            {
              "pitch": 44,
              "velocity": 60,
              "position": 10.664583333333333,
              "duration": 0.008333333333333333
            },
            {
              "pitch": 51,
              "velocity": 72,
              "position": 10.664583333333333,
              "duration": 0.008333333333333333
            },
            {
              "pitch": 31,
              "velocity": 24,
              "position": 10.770833333333334,
              "duration": 0.00625
            },
            {
              "pitch": 33,
              "velocity": 64,
              "position": 10.883333333333333,
              "duration": 0.008333333333333333
            },
            {
              "pitch": 31,
              "velocity": 110,
              "position": 11,
              "duration": 0.00625
            },
            {
              "pitch": 51,
              "velocity": 82,
              "position": 11,
              "duration": 0.00625
            },
            {
              "pitch": 51,
              "velocity": 30,
              "position": 11.21875,
              "duration": 0.00625
            },
            {
              "pitch": 51,
              "velocity": 62,
              "position": 11.333333333333334,
              "duration": 0.00625
            },
            {
              "pitch": 33,
              "velocity": 64,
              "position": 11.552083333333334,
              "duration": 0.00625
            },
            {
              "pitch": 33,
              "velocity": 80,
              "position": 11.664583333333333,
              "duration": 0.008333333333333333
            },
            {
              "pitch": 51,
              "velocity": 72,
              "position": 11.664583333333333,
              "duration": 0.008333333333333333
            },
            {
              "pitch": 51,
              "velocity": 30,
              "position": 11.883333333333333,
              "duration": 0.008333333333333333
            },
            {
              "pitch": 33,
              "velocity": 86,
              "position": 12,
              "duration": 0.00625
            },
            {
              "pitch": 51,
              "velocity": 82,
              "position": 12,
              "duration": 0.00625
            },
            {
              "pitch": 44,
              "velocity": 40,
              "position": 12.333333333333334,
              "duration": 0.00625
            },
            {
              "pitch": 51,
              "velocity": 62,
              "position": 12.333333333333334,
              "duration": 0.00625
            },
            {
              "pitch": 31,
              "velocity": 19,
              "position": 12.552083333333334,
              "duration": 0.00625
            },
            {
              "pitch": 51,
              "velocity": 30,
              "position": 12.552083333333334,
              "duration": 0.00625
            },
            {
              "pitch": 33,
              "velocity": 64,
              "position": 12.666666666666666,
              "duration": 0.00625
            },
            {
              "pitch": 51,
              "velocity": 72,
              "position": 12.666666666666666,
              "duration": 0.00625
            },
            {
              "pitch": 44,
              "velocity": 60,
              "position": 12.666666666666666,
              "duration": 0.00625
            },
            {
              "pitch": 31,
              "velocity": 24,
              "position": 12.770833333333334,
              "duration": 0.00625
            },
            {
              "pitch": 31,
              "velocity": 110,
              "position": 13,
              "duration": 0.00625
            },
            {
              "pitch": 51,
              "velocity": 82,
              "position": 13,
              "duration": 0.00625
            },
            {
              "pitch": 33,
              "velocity": 86,
              "position": 13,
              "duration": 0.00625
            },
            {
              "pitch": 51,
              "velocity": 30,
              "position": 13.21875,
              "duration": 0.00625
            },
            {
              "pitch": 51,
              "velocity": 62,
              "position": 13.333333333333334,
              "duration": 0.00625
            },
            {
              "pitch": 31,
              "velocity": 19,
              "position": 13.552083333333334,
              "duration": 0.00625
            },
            {
              "pitch": 33,
              "velocity": 64,
              "position": 13.666666666666666,
              "duration": 0.00625
            },
            {
              "pitch": 51,
              "velocity": 72,
              "position": 13.666666666666666,
              "duration": 0.00625
            },
            {
              "pitch": 31,
              "velocity": 24,
              "position": 13.770833333333334,
              "duration": 0.00625
            },
            {
              "pitch": 51,
              "velocity": 30,
              "position": 13.885416666666666,
              "duration": 0.00625
            },
            {
              "pitch": 33,
              "velocity": 86,
              "position": 14,
              "duration": 0.00625
            },
            {
              "pitch": 51,
              "velocity": 82,
              "position": 14,
              "duration": 0.00625
            },
            {
              "pitch": 33,
              "velocity": 64,
              "position": 14.333333333333334,
              "duration": 0.00625
            },
            {
              "pitch": 51,
              "velocity": 62,
              "position": 14.333333333333334,
              "duration": 0.00625
            },
            {
              "pitch": 44,
              "velocity": 40,
              "position": 14.333333333333334,
              "duration": 0.00625
            },
            {
              "pitch": 31,
              "velocity": 19,
              "position": 14.552083333333334,
              "duration": 0.00625
            },
            {
              "pitch": 51,
              "velocity": 30,
              "position": 14.552083333333334,
              "duration": 0.00625
            },
            {
              "pitch": 33,
              "velocity": 70,
              "position": 14.666666666666666,
              "duration": 0.00625
            },
            {
              "pitch": 51,
              "velocity": 72,
              "position": 14.666666666666666,
              "duration": 0.00625
            },
            {
              "pitch": 44,
              "velocity": 60,
              "position": 14.666666666666666,
              "duration": 0.00625
            },
            {
              "pitch": 31,
              "velocity": 24,
              "position": 14.770833333333334,
              "duration": 0.00625
            },
            {
              "pitch": 31,
              "velocity": 78,
              "position": 15,
              "duration": 0.00625
            },
            {
              "pitch": 44,
              "velocity": 80,
              "position": 15,
              "duration": 0.00625
            },
            {
              "pitch": 31,
              "velocity": 110,
              "position": 15.020833333333334,
              "duration": 0.00625
            },
            {
              "pitch": 33,
              "velocity": 86,
              "position": 15.333333333333334,
              "duration": 0.00625
            },
            {
              "pitch": 45,
              "velocity": 80,
              "position": 15.333333333333334,
              "duration": 0.00625
            },
            {
              "pitch": 44,
              "velocity": 40,
              "position": 15.333333333333334,
              "duration": 0.00625
            },
            {
              "pitch": 31,
              "velocity": 22,
              "position": 15.552083333333334,
              "duration": 0.00625
            },
            {
              "pitch": 33,
              "velocity": 70,
              "position": 15.666666666666666,
              "duration": 0.00625
            },
            {
              "pitch": 44,
              "velocity": 60,
              "position": 15.666666666666666,
              "duration": 0.00625
            },
            {
              "pitch": 41,
              "velocity": 80,
              "position": 15.666666666666666,
              "duration": 0.00625
            },
            {
              "pitch": 31,
              "velocity": 14,
              "position": 15.885416666666666,
              "duration": 0.00625
            },
            {
              "pitch": 49,
              "velocity": 72,
              "position": 15.989583333333334,
              "duration": 0.00625
            }
          ]
        },
        "10": {
          "ctab": {
            "srcChannel": 10,
            "name": "Bass A",
            "accType": "BASS",
            "editable": false,
            "mutedNotes": [],
            "mutedChords": [
              "7aug",
              "dim",
              "minMaj7(9)",
              "minMaj7",
              "min(9)",
              "m7b5",
              "min",
              "aug"
            ],
            "autoStart": false,
            "sourceChordNote": 0,
            "sourceChordType": "Maj7",
            "ctb2Low": null,
            "ctb2Main": {
              "ntr": "ROOT_TRANSPOSITION",
              "ntt": "MELODY",
              "bassOn": true,
              "chordRootUpperLimit": 8,
              "noteLowLimit": 28,
              "noteHighLimit": 127,
              "rtr": "PITCH_SHIFT_TO_ROOT"
            },
            "ctb2High": null,
            "ctb2MiddleLowPitch": 0,
            "ctb2MiddleHighPitch": 127
          },
          "notes": [
            {
              "pitch": 24,
              "velocity": 70,
              "position": 0,
              "duration": 0.5875
            },
            {
              "pitch": 24,
              "velocity": 59,
              "position": 0.6666666666666666,
              "duration": 0.25416666666666665
            },
            {
              "pitch": 24,
              "velocity": 70,
              "position": 1,
              "duration": 0.2520833333333333
            },
            {
              "pitch": 24,
              "velocity": 59,
              "position": 1.33125,
              "duration": 0.30625
            },
            {
              "pitch": 24,
              "velocity": 59,
              "position": 1.6666666666666667,
              "duration": 0.30625
            },
            {
              "pitch": 24,
              "velocity": 70,
              "position": 2,
              "duration": 0.30625
            },
            {
              "pitch": 24,
              "velocity": 59,
              "position": 2.33125,
              "duration": 0.30625
            },
            {
              "pitch": 31,
              "velocity": 59,
              "position": 2.6666666666666665,
              "duration": 0.30625
            },
            {
              "pitch": 33,
              "velocity": 70,
              "position": 3,
              "duration": 0.30625
            },
            {
              "pitch": 36,
              "velocity": 59,
              "position": 3.33125,
              "duration": 0.30625
            },
            {
              "pitch": 33,
              "velocity": 59,
              "position": 3.6666666666666665,
              "duration": 0.30625
            },
            {
              "pitch": 24,
              "velocity": 70,
              "position": 4,
              "duration": 0.5875
            },
            {
              "pitch": 24,
              "velocity": 59,
              "position": 4.666666666666667,
              "duration": 0.25416666666666665
            },
            {
              "pitch": 24,
              "velocity": 70,
              "position": 5,
              "duration": 0.2520833333333333
            },
            {
              "pitch": 24,
              "velocity": 59,
              "position": 5.33125,
              "duration": 0.30625
            },
            {
              "pitch": 24,
              "velocity": 59,
              "position": 5.666666666666667,
              "duration": 0.30625
            },
            {
              "pitch": 24,
              "velocity": 70,
              "position": 6,
              "duration": 0.30625
            },
            {
              "pitch": 24,
              "velocity": 59,
              "position": 6.33125,
              "duration": 0.30625
            },
            {
              "pitch": 31,
              "velocity": 59,
              "position": 6.666666666666667,
              "duration": 0.30625
            },
            {
              "pitch": 33,
              "velocity": 70,
              "position": 7,
              "duration": 0.30625
            },
            {
              "pitch": 36,
              "velocity": 59,
              "position": 7.33125,
              "duration": 0.30625
            },
            {
              "pitch": 33,
              "velocity": 59,
              "position": 7.666666666666667,
              "duration": 0.30625
            },
            {
              "pitch": 24,
              "velocity": 70,
              "position": 8,
              "duration": 0.5875
            },
            {
              "pitch": 24,
              "velocity": 59,
              "position": 8.666666666666666,
              "duration": 0.25416666666666665
            },
            {
              "pitch": 24,
              "velocity": 70,
              "position": 9,
              "duration": 0.2520833333333333
            },
            {
              "pitch": 24,
              "velocity": 59,
              "position": 9.33125,
              "duration": 0.30625
            },
            {
              "pitch": 24,
              "velocity": 59,
              "position": 9.666666666666666,
              "duration": 0.30625
            },
            {
              "pitch": 24,
              "velocity": 70,
              "position": 10,
              "duration": 0.30625
            },
            {
              "pitch": 24,
              "velocity": 59,
              "position": 10.33125,
              "duration": 0.30625
            },
            {
              "pitch": 31,
              "velocity": 59,
              "position": 10.666666666666666,
              "duration": 0.30625
            },
            {
              "pitch": 33,
              "velocity": 70,
              "position": 11,
              "duration": 0.30625
            },
            {
              "pitch": 36,
              "velocity": 59,
              "position": 11.33125,
              "duration": 0.30625
            },
            {
              "pitch": 33,
              "velocity": 59,
              "position": 11.666666666666666,
              "duration": 0.30625
            },
            {
              "pitch": 24,
              "velocity": 70,
              "position": 12,
              "duration": 0.5875
            },
            {
              "pitch": 24,
              "velocity": 59,
              "position": 12.666666666666666,
              "duration": 0.25416666666666665
            },
            {
              "pitch": 24,
              "velocity": 70,
              "position": 13,
              "duration": 0.2520833333333333
            },
            {
              "pitch": 24,
              "velocity": 59,
              "position": 13.33125,
              "duration": 0.30625
            },
            {
              "pitch": 24,
              "velocity": 59,
              "position": 13.666666666666666,
              "duration": 0.30625
            },
            {
              "pitch": 24,
              "velocity": 70,
              "position": 14,
              "duration": 0.30625
            },
            {
              "pitch": 24,
              "velocity": 59,
              "position": 14.33125,
              "duration": 0.30625
            },
            {
              "pitch": 31,
              "velocity": 59,
              "position": 14.666666666666666,
              "duration": 0.30625
            },
            {
              "pitch": 33,
              "velocity": 70,
              "position": 15,
              "duration": 0.30625
            },
            {
              "pitch": 36,
              "velocity": 59,
              "position": 15.33125,
              "duration": 0.30625
            },
            {
              "pitch": 33,
              "velocity": 59,
              "position": 15.666666666666666,
              "duration": 0.30625
            }
          ]
        },
        "11": {
          "ctab": {
            "srcChannel": 11,
            "name": "SolidGtr",
            "accType": "CHORD1",
            "editable": false,
            "mutedNotes": [],
            "mutedChords": [],
            "autoStart": false,
            "sourceChordNote": 0,
            "sourceChordType": "Maj7",
            "ctb2Low": null,
            "ctb2Main": {
              "ntr": "GUITAR",
              "ntt": "ALL_PURPOSE",
              "bassOn": false,
              "chordRootUpperLimit": 7,
              "noteLowLimit": 0,
              "noteHighLimit": 79,
              "rtr": "PITCH_SHIFT"
            },
            "ctb2High": null,
            "ctb2MiddleLowPitch": 0,
            "ctb2MiddleHighPitch": 127
          },
          "notes": [
            {
              "pitch": 100,
              "velocity": 80,
              "position": 0,
              "duration": 0.19166666666666668
            },
            {
              "pitch": 67,
              "velocity": 50,
              "position": 0,
              "duration": 0.30625
            },
            {
              "pitch": 65,
              "velocity": 50,
              "position": 0,
              "duration": 0.30625
            },
            {
              "pitch": 69,
              "velocity": 50,
              "position": 0.010416666666666666,
              "duration": 0.30625
            },
            {
              "pitch": 71,
              "velocity": 50,
              "position": 0.01875,
              "duration": 0.30625
            },
            {
              "pitch": 106,
              "velocity": 40,
              "position": 0.33125,
              "duration": 0.19166666666666668
            },
            {
              "pitch": 65,
              "velocity": 30,
              "position": 0.33125,
              "duration": 0.30625
            },
            {
              "pitch": 67,
              "velocity": 30,
              "position": 0.33125,
              "duration": 0.3104166666666667
            },
            {
              "pitch": 69,
              "velocity": 30,
              "position": 0.34375,
              "duration": 0.30625
            },
            {
              "pitch": 71,
              "velocity": 30,
              "position": 0.3541666666666667,
              "duration": 0.30625
            },
            {
              "pitch": 108,
              "velocity": 70,
              "position": 0.6666666666666666,
              "duration": 0.19166666666666668
            },
            {
              "pitch": 65,
              "velocity": 40,
              "position": 0.6666666666666666,
              "duration": 0.30625
            },
            {
              "pitch": 67,
              "velocity": 40,
              "position": 0.6666666666666666,
              "duration": 0.30833333333333335
            },
            {
              "pitch": 69,
              "velocity": 40,
              "position": 0.675,
              "duration": 0.30625
            },
            {
              "pitch": 71,
              "velocity": 40,
              "position": 0.6875,
              "duration": 0.30625
            },
            {
              "pitch": 65,
              "velocity": 60,
              "position": 1,
              "duration": 0.03333333333333333
            },
            {
              "pitch": 67,
              "velocity": 60,
              "position": 1,
              "duration": 0.03333333333333333
            },
            {
              "pitch": 69,
              "velocity": 60,
              "position": 1.0104166666666667,
              "duration": 0.035416666666666666
            },
            {
              "pitch": 71,
              "velocity": 60,
              "position": 1.01875,
              "duration": 0.035416666666666666
            },
            {
              "pitch": 100,
              "velocity": 90,
              "position": 1,
              "duration": 0.19166666666666668
            },
            {
              "pitch": 106,
              "velocity": 40,
              "position": 1.33125,
              "duration": 0.19166666666666668
            },
            {
              "pitch": 65,
              "velocity": 30,
              "position": 1.33125,
              "duration": 0.30625
            },
            {
              "pitch": 67,
              "velocity": 30,
              "position": 1.33125,
              "duration": 0.3104166666666667
            },
            {
              "pitch": 69,
              "velocity": 30,
              "position": 1.34375,
              "duration": 0.30625
            },
            {
              "pitch": 71,
              "velocity": 30,
              "position": 1.3541666666666667,
              "duration": 0.30625
            },
            {
              "pitch": 98,
              "velocity": 55,
              "position": 1.6666666666666667,
              "duration": 0.19166666666666668
            },
            {
              "pitch": 65,
              "velocity": 40,
              "position": 1.6666666666666667,
              "duration": 0.30625
            },
            {
              "pitch": 67,
              "velocity": 40,
              "position": 1.6666666666666667,
              "duration": 0.30833333333333335
            },
            {
              "pitch": 69,
              "velocity": 40,
              "position": 1.675,
              "duration": 0.30625
            },
            {
              "pitch": 71,
              "velocity": 40,
              "position": 1.6875,
              "duration": 0.30625
            },
            {
              "pitch": 100,
              "velocity": 80,
              "position": 2,
              "duration": 0.19166666666666668
            },
            {
              "pitch": 67,
              "velocity": 50,
              "position": 2,
              "duration": 0.30625
            },
            {
              "pitch": 65,
              "velocity": 50,
              "position": 2,
              "duration": 0.30625
            },
            {
              "pitch": 69,
              "velocity": 50,
              "position": 2.0104166666666665,
              "duration": 0.30416666666666664
            },
            {
              "pitch": 71,
              "velocity": 50,
              "position": 2.01875,
              "duration": 0.30833333333333335
            },
            {
              "pitch": 106,
              "velocity": 40,
              "position": 2.33125,
              "duration": 0.19166666666666668
            },
            {
              "pitch": 65,
              "velocity": 30,
              "position": 2.33125,
              "duration": 0.30625
            },
            {
              "pitch": 67,
              "velocity": 30,
              "position": 2.33125,
              "duration": 0.3104166666666667
            },
            {
              "pitch": 69,
              "velocity": 30,
              "position": 2.34375,
              "duration": 0.30625
            },
            {
              "pitch": 71,
              "velocity": 30,
              "position": 2.3541666666666665,
              "duration": 0.30625
            },
            {
              "pitch": 98,
              "velocity": 55,
              "position": 2.6666666666666665,
              "duration": 0.19166666666666668
            },
            {
              "pitch": 65,
              "velocity": 40,
              "position": 2.6666666666666665,
              "duration": 0.30625
            },
            {
              "pitch": 67,
              "velocity": 40,
              "position": 2.6666666666666665,
              "duration": 0.30833333333333335
            },
            {
              "pitch": 69,
              "velocity": 40,
              "position": 2.675,
              "duration": 0.30625
            },
            {
              "pitch": 71,
              "velocity": 40,
              "position": 2.6875,
              "duration": 0.30625
            },
            {
              "pitch": 100,
              "velocity": 85,
              "position": 3,
              "duration": 0.19166666666666668
            },
            {
              "pitch": 67,
              "velocity": 55,
              "position": 3,
              "duration": 0.30625
            },
            {
              "pitch": 65,
              "velocity": 55,
              "position": 3,
              "duration": 0.30625
            },
            {
              "pitch": 69,
              "velocity": 55,
              "position": 3.0104166666666665,
              "duration": 0.30625
            },
            {
              "pitch": 71,
              "velocity": 55,
              "position": 3.01875,
              "duration": 0.30625
            },
            {
              "pitch": 98,
              "velocity": 60,
              "position": 3.33125,
              "duration": 0.19166666666666668
            },
            {
              "pitch": 65,
              "velocity": 45,
              "position": 3.33125,
              "duration": 0.30625
            },
            {
              "pitch": 67,
              "velocity": 45,
              "position": 3.33125,
              "duration": 0.3104166666666667
            },
            {
              "pitch": 69,
              "velocity": 45,
              "position": 3.34375,
              "duration": 0.30625
            },
            {
              "pitch": 71,
              "velocity": 45,
              "position": 3.3541666666666665,
              "duration": 0.30625
            },
            {
              "pitch": 100,
              "velocity": 90,
              "position": 3.6666666666666665,
              "duration": 0.19166666666666668
            },
            {
              "pitch": 71,
              "velocity": 60,
              "position": 3.6875,
              "duration": 0.2833333333333333
            },
            {
              "pitch": 69,
              "velocity": 60,
              "position": 3.675,
              "duration": 0.29583333333333334
            },
            {
              "pitch": 65,
              "velocity": 60,
              "position": 3.6666666666666665,
              "duration": 0.30625
            },
            {
              "pitch": 67,
              "velocity": 60,
              "position": 3.6666666666666665,
              "duration": 0.30625
            },
            {
              "pitch": 100,
              "velocity": 80,
              "position": 4,
              "duration": 0.19166666666666668
            },
            {
              "pitch": 67,
              "velocity": 50,
              "position": 4,
              "duration": 0.30625
            },
            {
              "pitch": 65,
              "velocity": 50,
              "position": 4,
              "duration": 0.30625
            },
            {
              "pitch": 69,
              "velocity": 50,
              "position": 4.010416666666667,
              "duration": 0.30625
            },
            {
              "pitch": 71,
              "velocity": 50,
              "position": 4.01875,
              "duration": 0.30625
            },
            {
              "pitch": 106,
              "velocity": 40,
              "position": 4.33125,
              "duration": 0.19166666666666668
            },
            {
              "pitch": 65,
              "velocity": 30,
              "position": 4.33125,
              "duration": 0.30625
            },
            {
              "pitch": 67,
              "velocity": 30,
              "position": 4.33125,
              "duration": 0.3104166666666667
            },
            {
              "pitch": 69,
              "velocity": 30,
              "position": 4.34375,
              "duration": 0.30625
            },
            {
              "pitch": 71,
              "velocity": 30,
              "position": 4.354166666666667,
              "duration": 0.30625
            },
            {
              "pitch": 108,
              "velocity": 70,
              "position": 4.666666666666667,
              "duration": 0.19166666666666668
            },
            {
              "pitch": 65,
              "velocity": 40,
              "position": 4.666666666666667,
              "duration": 0.30625
            },
            {
              "pitch": 67,
              "velocity": 40,
              "position": 4.666666666666667,
              "duration": 0.30833333333333335
            },
            {
              "pitch": 69,
              "velocity": 40,
              "position": 4.675,
              "duration": 0.30625
            },
            {
              "pitch": 71,
              "velocity": 40,
              "position": 4.6875,
              "duration": 0.30625
            },
            {
              "pitch": 65,
              "velocity": 60,
              "position": 5,
              "duration": 0.03333333333333333
            },
            {
              "pitch": 67,
              "velocity": 60,
              "position": 5,
              "duration": 0.03333333333333333
            },
            {
              "pitch": 69,
              "velocity": 60,
              "position": 5.010416666666667,
              "duration": 0.035416666666666666
            },
            {
              "pitch": 71,
              "velocity": 60,
              "position": 5.01875,
              "duration": 0.035416666666666666
            },
            {
              "pitch": 100,
              "velocity": 90,
              "position": 5,
              "duration": 0.19166666666666668
            },
            {
              "pitch": 106,
              "velocity": 40,
              "position": 5.33125,
              "duration": 0.19166666666666668
            },
            {
              "pitch": 65,
              "velocity": 30,
              "position": 5.33125,
              "duration": 0.30625
            },
            {
              "pitch": 67,
              "velocity": 30,
              "position": 5.33125,
              "duration": 0.3104166666666667
            },
            {
              "pitch": 69,
              "velocity": 30,
              "position": 5.34375,
              "duration": 0.30625
            },
            {
              "pitch": 71,
              "velocity": 30,
              "position": 5.354166666666667,
              "duration": 0.30625
            },
            {
              "pitch": 98,
              "velocity": 55,
              "position": 5.666666666666667,
              "duration": 0.19166666666666668
            },
            {
              "pitch": 65,
              "velocity": 40,
              "position": 5.666666666666667,
              "duration": 0.30625
            },
            {
              "pitch": 67,
              "velocity": 40,
              "position": 5.666666666666667,
              "duration": 0.30833333333333335
            },
            {
              "pitch": 69,
              "velocity": 40,
              "position": 5.675,
              "duration": 0.30625
            },
            {
              "pitch": 71,
              "velocity": 40,
              "position": 5.6875,
              "duration": 0.30625
            },
            {
              "pitch": 100,
              "velocity": 80,
              "position": 6,
              "duration": 0.19166666666666668
            },
            {
              "pitch": 67,
              "velocity": 50,
              "position": 6,
              "duration": 0.30625
            },
            {
              "pitch": 65,
              "velocity": 50,
              "position": 6,
              "duration": 0.30625
            },
            {
              "pitch": 69,
              "velocity": 50,
              "position": 6.010416666666667,
              "duration": 0.30416666666666664
            },
            {
              "pitch": 71,
              "velocity": 50,
              "position": 6.01875,
              "duration": 0.30833333333333335
            },
            {
              "pitch": 106,
              "velocity": 40,
              "position": 6.33125,
              "duration": 0.19166666666666668
            },
            {
              "pitch": 65,
              "velocity": 30,
              "position": 6.33125,
              "duration": 0.30625
            },
            {
              "pitch": 67,
              "velocity": 30,
              "position": 6.33125,
              "duration": 0.3104166666666667
            },
            {
              "pitch": 69,
              "velocity": 30,
              "position": 6.34375,
              "duration": 0.30625
            },
            {
              "pitch": 71,
              "velocity": 30,
              "position": 6.354166666666667,
              "duration": 0.30625
            },
            {
              "pitch": 98,
              "velocity": 55,
              "position": 6.666666666666667,
              "duration": 0.19166666666666668
            },
            {
              "pitch": 65,
              "velocity": 40,
              "position": 6.666666666666667,
              "duration": 0.30625
            },
            {
              "pitch": 67,
              "velocity": 40,
              "position": 6.666666666666667,
              "duration": 0.30833333333333335
            },
            {
              "pitch": 69,
              "velocity": 40,
              "position": 6.675,
              "duration": 0.30625
            },
            {
              "pitch": 71,
              "velocity": 40,
              "position": 6.6875,
              "duration": 0.30625
            },
            {
              "pitch": 100,
              "velocity": 85,
              "position": 7,
              "duration": 0.19166666666666668
            },
            {
              "pitch": 67,
              "velocity": 55,
              "position": 7,
              "duration": 0.30625
            },
            {
              "pitch": 65,
              "velocity": 55,
              "position": 7,
              "duration": 0.30625
            },
            {
              "pitch": 69,
              "velocity": 55,
              "position": 7.010416666666667,
              "duration": 0.30625
            },
            {
              "pitch": 71,
              "velocity": 55,
              "position": 7.01875,
              "duration": 0.30625
            },
            {
              "pitch": 98,
              "velocity": 60,
              "position": 7.33125,
              "duration": 0.19166666666666668
            },
            {
              "pitch": 65,
              "velocity": 45,
              "position": 7.33125,
              "duration": 0.30625
            },
            {
              "pitch": 67,
              "velocity": 45,
              "position": 7.33125,
              "duration": 0.3104166666666667
            },
            {
              "pitch": 69,
              "velocity": 45,
              "position": 7.34375,
              "duration": 0.30625
            },
            {
              "pitch": 71,
              "velocity": 45,
              "position": 7.354166666666667,
              "duration": 0.30625
            },
            {
              "pitch": 100,
              "velocity": 90,
              "position": 7.666666666666667,
              "duration": 0.19166666666666668
            },
            {
              "pitch": 71,
              "velocity": 60,
              "position": 7.6875,
              "duration": 0.2833333333333333
            },
            {
              "pitch": 69,
              "velocity": 60,
              "position": 7.675,
              "duration": 0.29583333333333334
            },
            {
              "pitch": 65,
              "velocity": 60,
              "position": 7.666666666666667,
              "duration": 0.30625
            },
            {
              "pitch": 67,
              "velocity": 60,
              "position": 7.666666666666667,
              "duration": 0.30625
            },
            {
              "pitch": 100,
              "velocity": 80,
              "position": 8,
              "duration": 0.19166666666666668
            },
            {
              "pitch": 67,
              "velocity": 50,
              "position": 8,
              "duration": 0.30625
            },
            {
              "pitch": 65,
              "velocity": 50,
              "position": 8,
              "duration": 0.30625
            },
            {
              "pitch": 69,
              "velocity": 50,
              "position": 8.010416666666666,
              "duration": 0.30625
            },
            {
              "pitch": 71,
              "velocity": 50,
              "position": 8.01875,
              "duration": 0.30625
            },
            {
              "pitch": 106,
              "velocity": 40,
              "position": 8.33125,
              "duration": 0.19166666666666668
            },
            {
              "pitch": 65,
              "velocity": 30,
              "position": 8.33125,
              "duration": 0.30625
            },
            {
              "pitch": 67,
              "velocity": 30,
              "position": 8.33125,
              "duration": 0.3104166666666667
            },
            {
              "pitch": 69,
              "velocity": 30,
              "position": 8.34375,
              "duration": 0.30625
            },
            {
              "pitch": 71,
              "velocity": 30,
              "position": 8.354166666666666,
              "duration": 0.30625
            },
            {
              "pitch": 108,
              "velocity": 70,
              "position": 8.666666666666666,
              "duration": 0.19166666666666668
            },
            {
              "pitch": 65,
              "velocity": 40,
              "position": 8.666666666666666,
              "duration": 0.30625
            },
            {
              "pitch": 67,
              "velocity": 40,
              "position": 8.666666666666666,
              "duration": 0.30833333333333335
            },
            {
              "pitch": 69,
              "velocity": 40,
              "position": 8.675,
              "duration": 0.30625
            },
            {
              "pitch": 71,
              "velocity": 40,
              "position": 8.6875,
              "duration": 0.30625
            },
            {
              "pitch": 65,
              "velocity": 60,
              "position": 9,
              "duration": 0.03333333333333333
            },
            {
              "pitch": 67,
              "velocity": 60,
              "position": 9,
              "duration": 0.03333333333333333
            },
            {
              "pitch": 69,
              "velocity": 60,
              "position": 9.010416666666666,
              "duration": 0.035416666666666666
            },
            {
              "pitch": 71,
              "velocity": 60,
              "position": 9.01875,
              "duration": 0.035416666666666666
            },
            {
              "pitch": 100,
              "velocity": 90,
              "position": 9,
              "duration": 0.19166666666666668
            },
            {
              "pitch": 106,
              "velocity": 40,
              "position": 9.33125,
              "duration": 0.19166666666666668
            },
            {
              "pitch": 65,
              "velocity": 30,
              "position": 9.33125,
              "duration": 0.30625
            },
            {
              "pitch": 67,
              "velocity": 30,
              "position": 9.33125,
              "duration": 0.3104166666666667
            },
            {
              "pitch": 69,
              "velocity": 30,
              "position": 9.34375,
              "duration": 0.30625
            },
            {
              "pitch": 71,
              "velocity": 30,
              "position": 9.354166666666666,
              "duration": 0.30625
            },
            {
              "pitch": 98,
              "velocity": 55,
              "position": 9.666666666666666,
              "duration": 0.19166666666666668
            },
            {
              "pitch": 65,
              "velocity": 40,
              "position": 9.666666666666666,
              "duration": 0.30625
            },
            {
              "pitch": 67,
              "velocity": 40,
              "position": 9.666666666666666,
              "duration": 0.30833333333333335
            },
            {
              "pitch": 69,
              "velocity": 40,
              "position": 9.675,
              "duration": 0.30625
            },
            {
              "pitch": 71,
              "velocity": 40,
              "position": 9.6875,
              "duration": 0.30625
            },
            {
              "pitch": 100,
              "velocity": 80,
              "position": 10,
              "duration": 0.19166666666666668
            },
            {
              "pitch": 67,
              "velocity": 50,
              "position": 10,
              "duration": 0.30625
            },
            {
              "pitch": 65,
              "velocity": 50,
              "position": 10,
              "duration": 0.30625
            },
            {
              "pitch": 69,
              "velocity": 50,
              "position": 10.010416666666666,
              "duration": 0.30416666666666664
            },
            {
              "pitch": 71,
              "velocity": 50,
              "position": 10.01875,
              "duration": 0.30833333333333335
            },
            {
              "pitch": 106,
              "velocity": 40,
              "position": 10.33125,
              "duration": 0.19166666666666668
            },
            {
              "pitch": 65,
              "velocity": 30,
              "position": 10.33125,
              "duration": 0.30625
            },
            {
              "pitch": 67,
              "velocity": 30,
              "position": 10.33125,
              "duration": 0.3104166666666667
            },
            {
              "pitch": 69,
              "velocity": 30,
              "position": 10.34375,
              "duration": 0.30625
            },
            {
              "pitch": 71,
              "velocity": 30,
              "position": 10.354166666666666,
              "duration": 0.30625
            },
            {
              "pitch": 98,
              "velocity": 55,
              "position": 10.666666666666666,
              "duration": 0.19166666666666668
            },
            {
              "pitch": 65,
              "velocity": 40,
              "position": 10.666666666666666,
              "duration": 0.30625
            },
            {
              "pitch": 67,
              "velocity": 40,
              "position": 10.666666666666666,
              "duration": 0.30833333333333335
            },
            {
              "pitch": 69,
              "velocity": 40,
              "position": 10.675,
              "duration": 0.30625
            },
            {
              "pitch": 71,
              "velocity": 40,
              "position": 10.6875,
              "duration": 0.30625
            },
            {
              "pitch": 100,
              "velocity": 85,
              "position": 11,
              "duration": 0.19166666666666668
            },
            {
              "pitch": 67,
              "velocity": 55,
              "position": 11,
              "duration": 0.30625
            },
            {
              "pitch": 65,
              "velocity": 55,
              "position": 11,
              "duration": 0.30625
            },
            {
              "pitch": 69,
              "velocity": 55,
              "position": 11.010416666666666,
              "duration": 0.30625
            },
            {
              "pitch": 71,
              "velocity": 55,
              "position": 11.01875,
              "duration": 0.30625
            },
            {
              "pitch": 98,
              "velocity": 60,
              "position": 11.33125,
              "duration": 0.19166666666666668
            },
            {
              "pitch": 65,
              "velocity": 45,
              "position": 11.33125,
              "duration": 0.30625
            },
            {
              "pitch": 67,
              "velocity": 45,
              "position": 11.33125,
              "duration": 0.3104166666666667
            },
            {
              "pitch": 69,
              "velocity": 45,
              "position": 11.34375,
              "duration": 0.30625
            },
            {
              "pitch": 71,
              "velocity": 45,
              "position": 11.354166666666666,
              "duration": 0.30625
            },
            {
              "pitch": 100,
              "velocity": 90,
              "position": 11.666666666666666,
              "duration": 0.19166666666666668
            },
            {
              "pitch": 71,
              "velocity": 60,
              "position": 11.6875,
              "duration": 0.2833333333333333
            },
            {
              "pitch": 69,
              "velocity": 60,
              "position": 11.675,
              "duration": 0.29583333333333334
            },
            {
              "pitch": 65,
              "velocity": 60,
              "position": 11.666666666666666,
              "duration": 0.30625
            },
            {
              "pitch": 67,
              "velocity": 60,
              "position": 11.666666666666666,
              "duration": 0.30625
            },
            {
              "pitch": 100,
              "velocity": 80,
              "position": 12,
              "duration": 0.19166666666666668
            },
            {
              "pitch": 67,
              "velocity": 50,
              "position": 12,
              "duration": 0.30625
            },
            {
              "pitch": 65,
              "velocity": 50,
              "position": 12,
              "duration": 0.30625
            },
            {
              "pitch": 69,
              "velocity": 50,
              "position": 12.010416666666666,
              "duration": 0.30625
            },
            {
              "pitch": 71,
              "velocity": 50,
              "position": 12.01875,
              "duration": 0.30625
            },
            {
              "pitch": 106,
              "velocity": 40,
              "position": 12.33125,
              "duration": 0.19166666666666668
            },
            {
              "pitch": 65,
              "velocity": 30,
              "position": 12.33125,
              "duration": 0.30625
            },
            {
              "pitch": 67,
              "velocity": 30,
              "position": 12.33125,
              "duration": 0.3104166666666667
            },
            {
              "pitch": 69,
              "velocity": 30,
              "position": 12.34375,
              "duration": 0.30625
            },
            {
              "pitch": 71,
              "velocity": 30,
              "position": 12.354166666666666,
              "duration": 0.30625
            },
            {
              "pitch": 108,
              "velocity": 70,
              "position": 12.666666666666666,
              "duration": 0.19166666666666668
            },
            {
              "pitch": 65,
              "velocity": 40,
              "position": 12.666666666666666,
              "duration": 0.30625
            },
            {
              "pitch": 67,
              "velocity": 40,
              "position": 12.666666666666666,
              "duration": 0.30833333333333335
            },
            {
              "pitch": 69,
              "velocity": 40,
              "position": 12.675,
              "duration": 0.30625
            },
            {
              "pitch": 71,
              "velocity": 40,
              "position": 12.6875,
              "duration": 0.30625
            },
            {
              "pitch": 65,
              "velocity": 60,
              "position": 13,
              "duration": 0.03333333333333333
            },
            {
              "pitch": 67,
              "velocity": 60,
              "position": 13,
              "duration": 0.03333333333333333
            },
            {
              "pitch": 69,
              "velocity": 60,
              "position": 13.010416666666666,
              "duration": 0.035416666666666666
            },
            {
              "pitch": 71,
              "velocity": 60,
              "position": 13.01875,
              "duration": 0.035416666666666666
            },
            {
              "pitch": 100,
              "velocity": 90,
              "position": 13,
              "duration": 0.19166666666666668
            },
            {
              "pitch": 106,
              "velocity": 40,
              "position": 13.33125,
              "duration": 0.19166666666666668
            },
            {
              "pitch": 65,
              "velocity": 30,
              "position": 13.33125,
              "duration": 0.30625
            },
            {
              "pitch": 67,
              "velocity": 30,
              "position": 13.33125,
              "duration": 0.3104166666666667
            },
            {
              "pitch": 69,
              "velocity": 30,
              "position": 13.34375,
              "duration": 0.30625
            },
            {
              "pitch": 71,
              "velocity": 30,
              "position": 13.354166666666666,
              "duration": 0.30625
            },
            {
              "pitch": 98,
              "velocity": 55,
              "position": 13.666666666666666,
              "duration": 0.19166666666666668
            },
            {
              "pitch": 65,
              "velocity": 40,
              "position": 13.666666666666666,
              "duration": 0.30625
            },
            {
              "pitch": 67,
              "velocity": 40,
              "position": 13.666666666666666,
              "duration": 0.30833333333333335
            },
            {
              "pitch": 69,
              "velocity": 40,
              "position": 13.675,
              "duration": 0.30625
            },
            {
              "pitch": 71,
              "velocity": 40,
              "position": 13.6875,
              "duration": 0.30625
            },
            {
              "pitch": 100,
              "velocity": 80,
              "position": 14,
              "duration": 0.19166666666666668
            },
            {
              "pitch": 67,
              "velocity": 50,
              "position": 14,
              "duration": 0.30625
            },
            {
              "pitch": 65,
              "velocity": 50,
              "position": 14,
              "duration": 0.30625
            },
            {
              "pitch": 69,
              "velocity": 50,
              "position": 14.010416666666666,
              "duration": 0.30416666666666664
            },
            {
              "pitch": 71,
              "velocity": 50,
              "position": 14.01875,
              "duration": 0.30833333333333335
            },
            {
              "pitch": 106,
              "velocity": 40,
              "position": 14.33125,
              "duration": 0.19166666666666668
            },
            {
              "pitch": 65,
              "velocity": 30,
              "position": 14.33125,
              "duration": 0.30625
            },
            {
              "pitch": 67,
              "velocity": 30,
              "position": 14.33125,
              "duration": 0.3104166666666667
            },
            {
              "pitch": 69,
              "velocity": 30,
              "position": 14.34375,
              "duration": 0.30625
            },
            {
              "pitch": 71,
              "velocity": 30,
              "position": 14.354166666666666,
              "duration": 0.30625
            },
            {
              "pitch": 98,
              "velocity": 55,
              "position": 14.666666666666666,
              "duration": 0.19166666666666668
            },
            {
              "pitch": 65,
              "velocity": 40,
              "position": 14.666666666666666,
              "duration": 0.30625
            },
            {
              "pitch": 67,
              "velocity": 40,
              "position": 14.666666666666666,
              "duration": 0.30833333333333335
            },
            {
              "pitch": 69,
              "velocity": 40,
              "position": 14.675,
              "duration": 0.30625
            },
            {
              "pitch": 71,
              "velocity": 40,
              "position": 14.6875,
              "duration": 0.30625
            },
            {
              "pitch": 100,
              "velocity": 85,
              "position": 15,
              "duration": 0.19166666666666668
            },
            {
              "pitch": 67,
              "velocity": 55,
              "position": 15,
              "duration": 0.30625
            },
            {
              "pitch": 65,
              "velocity": 55,
              "position": 15,
              "duration": 0.30625
            },
            {
              "pitch": 69,
              "velocity": 55,
              "position": 15.010416666666666,
              "duration": 0.30625
            },
            {
              "pitch": 71,
              "velocity": 55,
              "position": 15.01875,
              "duration": 0.30625
            },
            {
              "pitch": 98,
              "velocity": 60,
              "position": 15.33125,
              "duration": 0.19166666666666668
            },
            {
              "pitch": 65,
              "velocity": 45,
              "position": 15.33125,
              "duration": 0.30625
            },
            {
              "pitch": 67,
              "velocity": 45,
              "position": 15.33125,
              "duration": 0.3104166666666667
            },
            {
              "pitch": 69,
              "velocity": 45,
              "position": 15.34375,
              "duration": 0.30625
            },
            {
              "pitch": 71,
              "velocity": 45,
              "position": 15.354166666666666,
              "duration": 0.30625
            },
            {
              "pitch": 100,
              "velocity": 90,
              "position": 15.666666666666666,
              "duration": 0.19166666666666668
            },
            {
              "pitch": 71,
              "velocity": 60,
              "position": 15.6875,
              "duration": 0.2833333333333333
            },
            {
              "pitch": 69,
              "velocity": 60,
              "position": 15.675,
              "duration": 0.29583333333333334
            },
            {
              "pitch": 65,
              "velocity": 60,
              "position": 15.666666666666666,
              "duration": 0.30625
            },
            {
              "pitch": 67,
              "velocity": 60,
              "position": 15.666666666666666,
              "duration": 0.30625
            }
          ]
        },
        "12": {
          "ctab": {
            "srcChannel": 12,
            "name": "Pno RH",
            "accType": "CHORD2",
            "editable": false,
            "mutedNotes": [],
            "mutedChords": [
              "min",
              "Maj"
            ],
            "autoStart": false,
            "sourceChordNote": 0,
            "sourceChordType": "Maj7",
            "ctb2Low": null,
            "ctb2Main": {
              "ntr": "ROOT_FIXED",
              "ntt": "CHORD",
              "bassOn": false,
              "chordRootUpperLimit": 7,
              "noteLowLimit": 0,
              "noteHighLimit": 79,
              "rtr": "PITCH_SHIFT"
            },
            "ctb2High": null,
            "ctb2MiddleLowPitch": 0,
            "ctb2MiddleHighPitch": 127
          },
          "notes": [
            {
              "pitch": 64,
              "velocity": 75,
              "position": 0,
              "duration": 0.31875
            },
            {
              "pitch": 71,
              "velocity": 65,
              "position": 0,
              "duration": 0.31875
            },
            {
              "pitch": 67,
              "velocity": 82,
              "position": 0,
              "duration": 0.31875
            },
            {
              "pitch": 64,
              "velocity": 66,
              "position": 0.33125,
              "duration": 0.31875
            },
            {
              "pitch": 71,
              "velocity": 65,
              "position": 0.33125,
              "duration": 0.31875
            },
            {
              "pitch": 67,
              "velocity": 71,
              "position": 0.33125,
              "duration": 0.31875
            },
            {
              "pitch": 64,
              "velocity": 63,
              "position": 0.6666666666666666,
              "duration": 0.31875
            },
            {
              "pitch": 71,
              "velocity": 69,
              "position": 0.6666666666666666,
              "duration": 0.31875
            },
            {
              "pitch": 67,
              "velocity": 61,
              "position": 0.6666666666666666,
              "duration": 0.31875
            },
            {
              "pitch": 64,
              "velocity": 77,
              "position": 1,
              "duration": 0.31875
            },
            {
              "pitch": 71,
              "velocity": 77,
              "position": 1,
              "duration": 0.31875
            },
            {
              "pitch": 67,
              "velocity": 82,
              "position": 1,
              "duration": 0.31875
            },
            {
              "pitch": 76,
              "velocity": 77,
              "position": 1.33125,
              "duration": 0.31875
            },
            {
              "pitch": 79,
              "velocity": 77,
              "position": 1.33125,
              "duration": 0.31875
            },
            {
              "pitch": 83,
              "velocity": 78,
              "position": 1.33125,
              "duration": 0.31875
            },
            {
              "pitch": 71,
              "velocity": 85,
              "position": 1.6666666666666667,
              "duration": 0.31875
            },
            {
              "pitch": 79,
              "velocity": 94,
              "position": 1.6666666666666667,
              "duration": 0.31875
            },
            {
              "pitch": 76,
              "velocity": 99,
              "position": 1.6666666666666667,
              "duration": 0.31875
            },
            {
              "pitch": 67,
              "velocity": 77,
              "position": 1.55,
              "duration": 0.6520833333333333
            },
            {
              "pitch": 79,
              "velocity": 69,
              "position": 2,
              "duration": 0.31875
            },
            {
              "pitch": 67,
              "velocity": 77,
              "position": 2.21875,
              "duration": 0.1
            },
            {
              "pitch": 71,
              "velocity": 69,
              "position": 2,
              "duration": 0.31875
            },
            {
              "pitch": 76,
              "velocity": 69,
              "position": 2,
              "duration": 0.31875
            },
            {
              "pitch": 67,
              "velocity": 85,
              "position": 2.33125,
              "duration": 0.31875
            },
            {
              "pitch": 76,
              "velocity": 95,
              "position": 2.33125,
              "duration": 0.31875
            },
            {
              "pitch": 71,
              "velocity": 95,
              "position": 2.33125,
              "duration": 0.31875
            },
            {
              "pitch": 60,
              "velocity": 77,
              "position": 2.55,
              "duration": 0.31875
            },
            {
              "pitch": 76,
              "velocity": 96,
              "position": 2.6666666666666665,
              "duration": 0.31875
            },
            {
              "pitch": 72,
              "velocity": 86,
              "position": 2.6666666666666665,
              "duration": 0.31875
            },
            {
              "pitch": 67,
              "velocity": 84,
              "position": 2.6666666666666665,
              "duration": 0.31875
            },
            {
              "pitch": 60,
              "velocity": 77,
              "position": 2.8854166666666665,
              "duration": 0.31875
            },
            {
              "pitch": 71,
              "velocity": 90,
              "position": 3,
              "duration": 0.31875
            },
            {
              "pitch": 67,
              "velocity": 95,
              "position": 3,
              "duration": 0.31875
            },
            {
              "pitch": 64,
              "velocity": 75,
              "position": 3,
              "duration": 0.31875
            },
            {
              "pitch": 60,
              "velocity": 77,
              "position": 3.21875,
              "duration": 0.31875
            },
            {
              "pitch": 71,
              "velocity": 69,
              "position": 3.33125,
              "duration": 0.31875
            },
            {
              "pitch": 67,
              "velocity": 69,
              "position": 3.33125,
              "duration": 0.31875
            },
            {
              "pitch": 64,
              "velocity": 69,
              "position": 3.33125,
              "duration": 0.31875
            },
            {
              "pitch": 60,
              "velocity": 77,
              "position": 3.55,
              "duration": 0.31875
            },
            {
              "pitch": 48,
              "velocity": 80,
              "position": 2.20625,
              "duration": 1.76875
            },
            {
              "pitch": 60,
              "velocity": 77,
              "position": 3.8854166666666665,
              "duration": 0.1
            },
            {
              "pitch": 67,
              "velocity": 99,
              "position": 3.6666666666666665,
              "duration": 0.31875
            },
            {
              "pitch": 64,
              "velocity": 96,
              "position": 3.6666666666666665,
              "duration": 0.31875
            },
            {
              "pitch": 71,
              "velocity": 99,
              "position": 3.6666666666666665,
              "duration": 0.31875
            },
            {
              "pitch": 64,
              "velocity": 75,
              "position": 4,
              "duration": 0.31875
            },
            {
              "pitch": 71,
              "velocity": 65,
              "position": 4,
              "duration": 0.31875
            },
            {
              "pitch": 67,
              "velocity": 82,
              "position": 4,
              "duration": 0.31875
            },
            {
              "pitch": 64,
              "velocity": 66,
              "position": 4.33125,
              "duration": 0.31875
            },
            {
              "pitch": 71,
              "velocity": 65,
              "position": 4.33125,
              "duration": 0.31875
            },
            {
              "pitch": 67,
              "velocity": 71,
              "position": 4.33125,
              "duration": 0.31875
            },
            {
              "pitch": 64,
              "velocity": 63,
              "position": 4.666666666666667,
              "duration": 0.31875
            },
            {
              "pitch": 71,
              "velocity": 69,
              "position": 4.666666666666667,
              "duration": 0.31875
            },
            {
              "pitch": 67,
              "velocity": 61,
              "position": 4.666666666666667,
              "duration": 0.31875
            },
            {
              "pitch": 64,
              "velocity": 77,
              "position": 5,
              "duration": 0.31875
            },
            {
              "pitch": 71,
              "velocity": 77,
              "position": 5,
              "duration": 0.31875
            },
            {
              "pitch": 67,
              "velocity": 82,
              "position": 5,
              "duration": 0.31875
            },
            {
              "pitch": 76,
              "velocity": 77,
              "position": 5.33125,
              "duration": 0.31875
            },
            {
              "pitch": 79,
              "velocity": 77,
              "position": 5.33125,
              "duration": 0.31875
            },
            {
              "pitch": 83,
              "velocity": 78,
              "position": 5.33125,
              "duration": 0.31875
            },
            {
              "pitch": 71,
              "velocity": 85,
              "position": 5.666666666666667,
              "duration": 0.31875
            },
            {
              "pitch": 79,
              "velocity": 94,
              "position": 5.666666666666667,
              "duration": 0.31875
            },
            {
              "pitch": 76,
              "velocity": 99,
              "position": 5.666666666666667,
              "duration": 0.31875
            },
            {
              "pitch": 67,
              "velocity": 77,
              "position": 5.55,
              "duration": 0.6520833333333333
            },
            {
              "pitch": 79,
              "velocity": 69,
              "position": 6,
              "duration": 0.31875
            },
            {
              "pitch": 67,
              "velocity": 77,
              "position": 6.21875,
              "duration": 0.1
            },
            {
              "pitch": 71,
              "velocity": 69,
              "position": 6,
              "duration": 0.31875
            },
            {
              "pitch": 76,
              "velocity": 69,
              "position": 6,
              "duration": 0.31875
            },
            {
              "pitch": 67,
              "velocity": 85,
              "position": 6.33125,
              "duration": 0.31875
            },
            {
              "pitch": 76,
              "velocity": 95,
              "position": 6.33125,
              "duration": 0.31875
            },
            {
              "pitch": 71,
              "velocity": 95,
              "position": 6.33125,
              "duration": 0.31875
            },
            {
              "pitch": 60,
              "velocity": 77,
              "position": 6.55,
              "duration": 0.31875
            },
            {
              "pitch": 76,
              "velocity": 96,
              "position": 6.666666666666667,
              "duration": 0.31875
            },
            {
              "pitch": 72,
              "velocity": 86,
              "position": 6.666666666666667,
              "duration": 0.31875
            },
            {
              "pitch": 67,
              "velocity": 84,
              "position": 6.666666666666667,
              "duration": 0.31875
            },
            {
              "pitch": 60,
              "velocity": 77,
              "position": 6.885416666666667,
              "duration": 0.31875
            },
            {
              "pitch": 71,
              "velocity": 90,
              "position": 7,
              "duration": 0.31875
            },
            {
              "pitch": 67,
              "velocity": 95,
              "position": 7,
              "duration": 0.31875
            },
            {
              "pitch": 64,
              "velocity": 75,
              "position": 7,
              "duration": 0.31875
            },
            {
              "pitch": 60,
              "velocity": 77,
              "position": 7.21875,
              "duration": 0.31875
            },
            {
              "pitch": 71,
              "velocity": 69,
              "position": 7.33125,
              "duration": 0.31875
            },
            {
              "pitch": 67,
              "velocity": 69,
              "position": 7.33125,
              "duration": 0.31875
            },
            {
              "pitch": 64,
              "velocity": 69,
              "position": 7.33125,
              "duration": 0.31875
            },
            {
              "pitch": 60,
              "velocity": 77,
              "position": 7.55,
              "duration": 0.31875
            },
            {
              "pitch": 48,
              "velocity": 80,
              "position": 6.20625,
              "duration": 1.76875
            },
            {
              "pitch": 60,
              "velocity": 77,
              "position": 7.885416666666667,
              "duration": 0.1
            },
            {
              "pitch": 67,
              "velocity": 99,
              "position": 7.666666666666667,
              "duration": 0.31875
            },
            {
              "pitch": 64,
              "velocity": 96,
              "position": 7.666666666666667,
              "duration": 0.31875
            },
            {
              "pitch": 71,
              "velocity": 99,
              "position": 7.666666666666667,
              "duration": 0.31875
            },
            {
              "pitch": 64,
              "velocity": 75,
              "position": 8,
              "duration": 0.31875
            },
            {
              "pitch": 71,
              "velocity": 65,
              "position": 8,
              "duration": 0.31875
            },
            {
              "pitch": 67,
              "velocity": 82,
              "position": 8,
              "duration": 0.31875
            },
            {
              "pitch": 64,
              "velocity": 66,
              "position": 8.33125,
              "duration": 0.31875
            },
            {
              "pitch": 71,
              "velocity": 65,
              "position": 8.33125,
              "duration": 0.31875
            },
            {
              "pitch": 67,
              "velocity": 71,
              "position": 8.33125,
              "duration": 0.31875
            },
            {
              "pitch": 64,
              "velocity": 63,
              "position": 8.666666666666666,
              "duration": 0.31875
            },
            {
              "pitch": 71,
              "velocity": 69,
              "position": 8.666666666666666,
              "duration": 0.31875
            },
            {
              "pitch": 67,
              "velocity": 61,
              "position": 8.666666666666666,
              "duration": 0.31875
            },
            {
              "pitch": 64,
              "velocity": 77,
              "position": 9,
              "duration": 0.31875
            },
            {
              "pitch": 71,
              "velocity": 77,
              "position": 9,
              "duration": 0.31875
            },
            {
              "pitch": 67,
              "velocity": 82,
              "position": 9,
              "duration": 0.31875
            },
            {
              "pitch": 76,
              "velocity": 77,
              "position": 9.33125,
              "duration": 0.31875
            },
            {
              "pitch": 79,
              "velocity": 77,
              "position": 9.33125,
              "duration": 0.31875
            },
            {
              "pitch": 83,
              "velocity": 78,
              "position": 9.33125,
              "duration": 0.31875
            },
            {
              "pitch": 71,
              "velocity": 85,
              "position": 9.666666666666666,
              "duration": 0.31875
            },
            {
              "pitch": 79,
              "velocity": 94,
              "position": 9.666666666666666,
              "duration": 0.31875
            },
            {
              "pitch": 76,
              "velocity": 99,
              "position": 9.666666666666666,
              "duration": 0.31875
            },
            {
              "pitch": 67,
              "velocity": 77,
              "position": 9.55,
              "duration": 0.6520833333333333
            },
            {
              "pitch": 79,
              "velocity": 69,
              "position": 10,
              "duration": 0.31875
            },
            {
              "pitch": 67,
              "velocity": 77,
              "position": 10.21875,
              "duration": 0.1
            },
            {
              "pitch": 71,
              "velocity": 69,
              "position": 10,
              "duration": 0.31875
            },
            {
              "pitch": 76,
              "velocity": 69,
              "position": 10,
              "duration": 0.31875
            },
            {
              "pitch": 67,
              "velocity": 85,
              "position": 10.33125,
              "duration": 0.31875
            },
            {
              "pitch": 76,
              "velocity": 95,
              "position": 10.33125,
              "duration": 0.31875
            },
            {
              "pitch": 71,
              "velocity": 95,
              "position": 10.33125,
              "duration": 0.31875
            },
            {
              "pitch": 60,
              "velocity": 77,
              "position": 10.55,
              "duration": 0.31875
            },
            {
              "pitch": 76,
              "velocity": 96,
              "position": 10.666666666666666,
              "duration": 0.31875
            },
            {
              "pitch": 72,
              "velocity": 86,
              "position": 10.666666666666666,
              "duration": 0.31875
            },
            {
              "pitch": 67,
              "velocity": 84,
              "position": 10.666666666666666,
              "duration": 0.31875
            },
            {
              "pitch": 60,
              "velocity": 77,
              "position": 10.885416666666666,
              "duration": 0.31875
            },
            {
              "pitch": 71,
              "velocity": 90,
              "position": 11,
              "duration": 0.31875
            },
            {
              "pitch": 67,
              "velocity": 95,
              "position": 11,
              "duration": 0.31875
            },
            {
              "pitch": 64,
              "velocity": 75,
              "position": 11,
              "duration": 0.31875
            },
            {
              "pitch": 60,
              "velocity": 77,
              "position": 11.21875,
              "duration": 0.31875
            },
            {
              "pitch": 71,
              "velocity": 69,
              "position": 11.33125,
              "duration": 0.31875
            },
            {
              "pitch": 67,
              "velocity": 69,
              "position": 11.33125,
              "duration": 0.31875
            },
            {
              "pitch": 64,
              "velocity": 69,
              "position": 11.33125,
              "duration": 0.31875
            },
            {
              "pitch": 60,
              "velocity": 77,
              "position": 11.55,
              "duration": 0.31875
            },
            {
              "pitch": 48,
              "velocity": 80,
              "position": 10.20625,
              "duration": 1.76875
            },
            {
              "pitch": 60,
              "velocity": 77,
              "position": 11.885416666666666,
              "duration": 0.1
            },
            {
              "pitch": 67,
              "velocity": 99,
              "position": 11.666666666666666,
              "duration": 0.31875
            },
            {
              "pitch": 64,
              "velocity": 96,
              "position": 11.666666666666666,
              "duration": 0.31875
            },
            {
              "pitch": 71,
              "velocity": 99,
              "position": 11.666666666666666,
              "duration": 0.31875
            },
            {
              "pitch": 64,
              "velocity": 75,
              "position": 12,
              "duration": 0.31875
            },
            {
              "pitch": 71,
              "velocity": 65,
              "position": 12,
              "duration": 0.31875
            },
            {
              "pitch": 67,
              "velocity": 82,
              "position": 12,
              "duration": 0.31875
            },
            {
              "pitch": 64,
              "velocity": 66,
              "position": 12.33125,
              "duration": 0.31875
            },
            {
              "pitch": 71,
              "velocity": 65,
              "position": 12.33125,
              "duration": 0.31875
            },
            {
              "pitch": 67,
              "velocity": 71,
              "position": 12.33125,
              "duration": 0.31875
            },
            {
              "pitch": 64,
              "velocity": 63,
              "position": 12.666666666666666,
              "duration": 0.31875
            },
            {
              "pitch": 71,
              "velocity": 69,
              "position": 12.666666666666666,
              "duration": 0.31875
            },
            {
              "pitch": 67,
              "velocity": 61,
              "position": 12.666666666666666,
              "duration": 0.31875
            },
            {
              "pitch": 64,
              "velocity": 77,
              "position": 13,
              "duration": 0.31875
            },
            {
              "pitch": 71,
              "velocity": 77,
              "position": 13,
              "duration": 0.31875
            },
            {
              "pitch": 67,
              "velocity": 82,
              "position": 13,
              "duration": 0.31875
            },
            {
              "pitch": 76,
              "velocity": 77,
              "position": 13.33125,
              "duration": 0.31875
            },
            {
              "pitch": 79,
              "velocity": 77,
              "position": 13.33125,
              "duration": 0.31875
            },
            {
              "pitch": 83,
              "velocity": 78,
              "position": 13.33125,
              "duration": 0.31875
            },
            {
              "pitch": 71,
              "velocity": 85,
              "position": 13.666666666666666,
              "duration": 0.31875
            },
            {
              "pitch": 79,
              "velocity": 94,
              "position": 13.666666666666666,
              "duration": 0.31875
            },
            {
              "pitch": 76,
              "velocity": 99,
              "position": 13.666666666666666,
              "duration": 0.31875
            },
            {
              "pitch": 67,
              "velocity": 77,
              "position": 13.55,
              "duration": 0.6520833333333333
            },
            {
              "pitch": 79,
              "velocity": 69,
              "position": 14,
              "duration": 0.31875
            },
            {
              "pitch": 67,
              "velocity": 77,
              "position": 14.21875,
              "duration": 0.1
            },
            {
              "pitch": 71,
              "velocity": 69,
              "position": 14,
              "duration": 0.31875
            },
            {
              "pitch": 76,
              "velocity": 69,
              "position": 14,
              "duration": 0.31875
            },
            {
              "pitch": 67,
              "velocity": 85,
              "position": 14.33125,
              "duration": 0.31875
            },
            {
              "pitch": 76,
              "velocity": 95,
              "position": 14.33125,
              "duration": 0.31875
            },
            {
              "pitch": 71,
              "velocity": 95,
              "position": 14.33125,
              "duration": 0.31875
            },
            {
              "pitch": 60,
              "velocity": 77,
              "position": 14.55,
              "duration": 0.31875
            },
            {
              "pitch": 76,
              "velocity": 96,
              "position": 14.666666666666666,
              "duration": 0.31875
            },
            {
              "pitch": 72,
              "velocity": 86,
              "position": 14.666666666666666,
              "duration": 0.31875
            },
            {
              "pitch": 67,
              "velocity": 84,
              "position": 14.666666666666666,
              "duration": 0.31875
            },
            {
              "pitch": 60,
              "velocity": 77,
              "position": 14.885416666666666,
              "duration": 0.31875
            },
            {
              "pitch": 71,
              "velocity": 90,
              "position": 15,
              "duration": 0.31875
            },
            {
              "pitch": 67,
              "velocity": 95,
              "position": 15,
              "duration": 0.31875
            },
            {
              "pitch": 64,
              "velocity": 75,
              "position": 15,
              "duration": 0.31875
            },
            {
              "pitch": 60,
              "velocity": 77,
              "position": 15.21875,
              "duration": 0.31875
            },
            {
              "pitch": 71,
              "velocity": 69,
              "position": 15.33125,
              "duration": 0.31875
            },
            {
              "pitch": 67,
              "velocity": 69,
              "position": 15.33125,
              "duration": 0.31875
            },
            {
              "pitch": 64,
              "velocity": 69,
              "position": 15.33125,
              "duration": 0.31875
            },
            {
              "pitch": 60,
              "velocity": 77,
              "position": 15.55,
              "duration": 0.31875
            },
            {
              "pitch": 48,
              "velocity": 80,
              "position": 14.20625,
              "duration": 1.76875
            },
            {
              "pitch": 60,
              "velocity": 77,
              "position": 15.885416666666666,
              "duration": 0.1
            },
            {
              "pitch": 67,
              "velocity": 99,
              "position": 15.666666666666666,
              "duration": 0.31875
            },
            {
              "pitch": 64,
              "velocity": 96,
              "position": 15.666666666666666,
              "duration": 0.31875
            },
            {
              "pitch": 71,
              "velocity": 99,
              "position": 15.666666666666666,
              "duration": 0.31875
            }
          ]
        },
        "13": {
          "ctab": {
            "srcChannel": 13,
            "name": "Organ1",
            "accType": "PAD",
            "editable": false,
            "mutedNotes": [],
            "mutedChords": [],
            "autoStart": false,
            "sourceChordNote": 0,
            "sourceChordType": "Maj7",
            "ctb2Low": null,
            "ctb2Main": {
              "ntr": "ROOT_FIXED",
              "ntt": "CHORD",
              "bassOn": false,
              "chordRootUpperLimit": 7,
              "noteLowLimit": 0,
              "noteHighLimit": 127,
              "rtr": "PITCH_SHIFT"
            },
            "ctb2High": null,
            "ctb2MiddleLowPitch": 0,
            "ctb2MiddleHighPitch": 127
          },
          "notes": [
            {
              "pitch": 67,
              "velocity": 50,
              "position": 0,
              "duration": 1.2416666666666667
            },
            {
              "pitch": 76,
              "velocity": 50,
              "position": 0,
              "duration": 1.2416666666666667
            },
            {
              "pitch": 71,
              "velocity": 50,
              "position": 0,
              "duration": 1.2416666666666667
            },
            {
              "pitch": 67,
              "velocity": 50,
              "position": 1.5,
              "duration": 1.7416666666666667
            },
            {
              "pitch": 76,
              "velocity": 50,
              "position": 1.5,
              "duration": 1.7416666666666667
            },
            {
              "pitch": 71,
              "velocity": 50,
              "position": 1.5,
              "duration": 1.7416666666666667
            },
            {
              "pitch": 67,
              "velocity": 50,
              "position": 3.5,
              "duration": 0.48541666666666666
            },
            {
              "pitch": 76,
              "velocity": 50,
              "position": 3.5,
              "duration": 0.48541666666666666
            },
            {
              "pitch": 71,
              "velocity": 50,
              "position": 3.5,
              "duration": 0.48541666666666666
            },
            {
              "pitch": 67,
              "velocity": 50,
              "position": 4,
              "duration": 3.8666666666666667
            },
            {
              "pitch": 76,
              "velocity": 50,
              "position": 4,
              "duration": 3.8666666666666667
            },
            {
              "pitch": 71,
              "velocity": 50,
              "position": 4,
              "duration": 3.8666666666666667
            },
            {
              "pitch": 67,
              "velocity": 50,
              "position": 8,
              "duration": 1.2416666666666667
            },
            {
              "pitch": 76,
              "velocity": 50,
              "position": 8,
              "duration": 1.2416666666666667
            },
            {
              "pitch": 71,
              "velocity": 50,
              "position": 8,
              "duration": 1.2416666666666667
            },
            {
              "pitch": 67,
              "velocity": 50,
              "position": 9.5,
              "duration": 1.7416666666666667
            },
            {
              "pitch": 76,
              "velocity": 50,
              "position": 9.5,
              "duration": 1.7416666666666667
            },
            {
              "pitch": 71,
              "velocity": 50,
              "position": 9.5,
              "duration": 1.7416666666666667
            },
            {
              "pitch": 67,
              "velocity": 50,
              "position": 11.5,
              "duration": 0.48541666666666666
            },
            {
              "pitch": 76,
              "velocity": 50,
              "position": 11.5,
              "duration": 0.48541666666666666
            },
            {
              "pitch": 71,
              "velocity": 50,
              "position": 11.5,
              "duration": 0.48541666666666666
            },
            {
              "pitch": 67,
              "velocity": 50,
              "position": 12,
              "duration": 3.8666666666666667
            },
            {
              "pitch": 76,
              "velocity": 50,
              "position": 12,
              "duration": 3.8666666666666667
            },
            {
              "pitch": 71,
              "velocity": 50,
              "position": 12,
              "duration": 3.8666666666666667
            }
          ]
        },
        "14": {
          "ctab": {
            "srcChannel": 14,
            "name": "Tele",
            "accType": "PHRASE1",
            "editable": false,
            "mutedNotes": [],
            "mutedChords": [
              "min",
              "Maj"
            ],
            "autoStart": false,
            "sourceChordNote": 0,
            "sourceChordType": "Maj7",
            "ctb2Low": null,
            "ctb2Main": {
              "ntr": "ROOT_TRANSPOSITION",
              "ntt": "MELODY",
              "bassOn": false,
              "chordRootUpperLimit": 4,
              "noteLowLimit": 0,
              "noteHighLimit": 127,
              "rtr": "PITCH_SHIFT"
            },
            "ctb2High": {
              "ntr": "ROOT_FIXED",
              "ntt": "BYPASS",
              "bassOn": false,
              "chordRootUpperLimit": 4,
              "noteLowLimit": 0,
              "noteHighLimit": 127,
              "rtr": "PITCH_SHIFT"
            },
            "ctb2MiddleLowPitch": 0,
            "ctb2MiddleHighPitch": 95
          },
          "notes": [
            {
              "pitch": 59,
              "velocity": 116,
              "position": 0.0020833333333333333,
              "duration": 0.9708333333333333
            },
            {
              "pitch": 55,
              "velocity": 116,
              "position": 1,
              "duration": 0.30625
            },
            {
              "pitch": 59,
              "velocity": 16,
              "position": 1.33125,
              "duration": 0.30625
            },
            {
              "pitch": 59,
              "velocity": 33,
              "position": 1.6666666666666667,
              "duration": 0.6395833333333333
            },
            {
              "pitch": 59,
              "velocity": 16,
              "position": 2.33125,
              "duration": 0.30625
            },
            {
              "pitch": 59,
              "velocity": 33,
              "position": 2.6666666666666665,
              "duration": 0.30625
            },
            {
              "pitch": 64,
              "velocity": 116,
              "position": 3,
              "duration": 0.9708333333333333
            },
            {
              "pitch": 71,
              "velocity": 26,
              "position": 3.33125,
              "duration": 0.6395833333333333
            },
            {
              "pitch": 59,
              "velocity": 16,
              "position": 3.6666666666666665,
              "duration": 0.30625
            },
            {
              "pitch": 59,
              "velocity": 116,
              "position": 4.002083333333333,
              "duration": 0.9708333333333333
            },
            {
              "pitch": 55,
              "velocity": 116,
              "position": 5,
              "duration": 0.30625
            },
            {
              "pitch": 59,
              "velocity": 16,
              "position": 5.33125,
              "duration": 0.30625
            },
            {
              "pitch": 59,
              "velocity": 33,
              "position": 5.666666666666667,
              "duration": 0.6395833333333333
            },
            {
              "pitch": 59,
              "velocity": 16,
              "position": 6.33125,
              "duration": 0.30625
            },
            {
              "pitch": 59,
              "velocity": 33,
              "position": 6.666666666666667,
              "duration": 0.30625
            },
            {
              "pitch": 64,
              "velocity": 116,
              "position": 7,
              "duration": 0.9708333333333333
            },
            {
              "pitch": 71,
              "velocity": 26,
              "position": 7.33125,
              "duration": 0.6395833333333333
            },
            {
              "pitch": 59,
              "velocity": 16,
              "position": 7.666666666666667,
              "duration": 0.30625
            },
            {
              "pitch": 59,
              "velocity": 116,
              "position": 8.002083333333333,
              "duration": 0.9708333333333333
            },
            {
              "pitch": 55,
              "velocity": 116,
              "position": 9,
              "duration": 0.30625
            },
            {
              "pitch": 59,
              "velocity": 16,
              "position": 9.33125,
              "duration": 0.30625
            },
            {
              "pitch": 59,
              "velocity": 33,
              "position": 9.666666666666666,
              "duration": 0.6395833333333333
            },
            {
              "pitch": 59,
              "velocity": 16,
              "position": 10.33125,
              "duration": 0.30625
            },
            {
              "pitch": 59,
              "velocity": 33,
              "position": 10.666666666666666,
              "duration": 0.30625
            },
            {
              "pitch": 64,
              "velocity": 116,
              "position": 11,
              "duration": 0.9708333333333333
            },
            {
              "pitch": 71,
              "velocity": 26,
              "position": 11.33125,
              "duration": 0.6395833333333333
            },
            {
              "pitch": 59,
              "velocity": 16,
              "position": 11.666666666666666,
              "duration": 0.30625
            },
            {
              "pitch": 59,
              "velocity": 116,
              "position": 12.002083333333333,
              "duration": 0.9708333333333333
            },
            {
              "pitch": 55,
              "velocity": 116,
              "position": 13,
              "duration": 0.30625
            },
            {
              "pitch": 59,
              "velocity": 16,
              "position": 13.33125,
              "duration": 0.30625
            },
            {
              "pitch": 59,
              "velocity": 33,
              "position": 13.666666666666666,
              "duration": 0.6395833333333333
            },
            {
              "pitch": 59,
              "velocity": 16,
              "position": 14.33125,
              "duration": 0.30625
            },
            {
              "pitch": 59,
              "velocity": 33,
              "position": 14.666666666666666,
              "duration": 0.30625
            },
            {
              "pitch": 64,
              "velocity": 116,
              "position": 15,
              "duration": 0.9708333333333333
            },
            {
              "pitch": 71,
              "velocity": 26,
              "position": 15.33125,
              "duration": 0.6395833333333333
            },
            {
              "pitch": 59,
              "velocity": 16,
              "position": 15.666666666666666,
              "duration": 0.30625
            }
          ]
        },
        "15": {
          "ctab": {
            "srcChannel": 15,
            "name": "E.P",
            "accType": "PHRASE2",
            "editable": false,
            "mutedNotes": [],
            "mutedChords": [
              "min",
              "Maj"
            ],
            "autoStart": false,
            "sourceChordNote": 0,
            "sourceChordType": "Maj7",
            "ctb2Low": null,
            "ctb2Main": {
              "ntr": "ROOT_FIXED",
              "ntt": "CHORD",
              "bassOn": false,
              "chordRootUpperLimit": 7,
              "noteLowLimit": 0,
              "noteHighLimit": 127,
              "rtr": "PITCH_SHIFT"
            },
            "ctb2High": null,
            "ctb2MiddleLowPitch": 0,
            "ctb2MiddleHighPitch": 127
          },
          "notes": [
            {
              "pitch": 59,
              "velocity": 67,
              "position": 0,
              "duration": 3.30625
            },
            {
              "pitch": 67,
              "velocity": 67,
              "position": 0,
              "duration": 3.30625
            },
            {
              "pitch": 64,
              "velocity": 69,
              "position": 0,
              "duration": 3.30625
            },
            {
              "pitch": 59,
              "velocity": 71,
              "position": 3.33125,
              "duration": 0.30625
            },
            {
              "pitch": 67,
              "velocity": 53,
              "position": 3.33125,
              "duration": 0.30625
            },
            {
              "pitch": 64,
              "velocity": 65,
              "position": 3.33125,
              "duration": 0.30625
            },
            {
              "pitch": 59,
              "velocity": 71,
              "position": 3.6666666666666665,
              "duration": 0.30625
            },
            {
              "pitch": 67,
              "velocity": 53,
              "position": 3.6666666666666665,
              "duration": 0.30625
            },
            {
              "pitch": 64,
              "velocity": 65,
              "position": 3.6666666666666665,
              "duration": 0.30625
            },
            {
              "pitch": 59,
              "velocity": 67,
              "position": 4,
              "duration": 3.30625
            },
            {
              "pitch": 67,
              "velocity": 67,
              "position": 4,
              "duration": 3.30625
            },
            {
              "pitch": 64,
              "velocity": 69,
              "position": 4,
              "duration": 3.30625
            },
            {
              "pitch": 59,
              "velocity": 71,
              "position": 7.33125,
              "duration": 0.30625
            },
            {
              "pitch": 67,
              "velocity": 53,
              "position": 7.33125,
              "duration": 0.30625
            },
            {
              "pitch": 64,
              "velocity": 65,
              "position": 7.33125,
              "duration": 0.30625
            },
            {
              "pitch": 59,
              "velocity": 71,
              "position": 7.666666666666667,
              "duration": 0.30625
            },
            {
              "pitch": 67,
              "velocity": 53,
              "position": 7.666666666666667,
              "duration": 0.30625
            },
            {
              "pitch": 64,
              "velocity": 65,
              "position": 7.666666666666667,
              "duration": 0.30625
            },
            {
              "pitch": 59,
              "velocity": 67,
              "position": 8,
              "duration": 3.30625
            },
            {
              "pitch": 67,
              "velocity": 67,
              "position": 8,
              "duration": 3.30625
            },
            {
              "pitch": 64,
              "velocity": 69,
              "position": 8,
              "duration": 3.30625
            },
            {
              "pitch": 59,
              "velocity": 71,
              "position": 11.33125,
              "duration": 0.30625
            },
            {
              "pitch": 67,
              "velocity": 53,
              "position": 11.33125,
              "duration": 0.30625
            },
            {
              "pitch": 64,
              "velocity": 65,
              "position": 11.33125,
              "duration": 0.30625
            },
            {
              "pitch": 59,
              "velocity": 71,
              "position": 11.666666666666666,
              "duration": 0.30625
            },
            {
              "pitch": 67,
              "velocity": 53,
              "position": 11.666666666666666,
              "duration": 0.30625
            },
            {
              "pitch": 64,
              "velocity": 65,
              "position": 11.666666666666666,
              "duration": 0.30625
            },
            {
              "pitch": 59,
              "velocity": 67,
              "position": 12,
              "duration": 3.30625
            },
            {
              "pitch": 67,
              "velocity": 67,
              "position": 12,
              "duration": 3.30625
            },
            {
              "pitch": 64,
              "velocity": 69,
              "position": 12,
              "duration": 3.30625
            },
            {
              "pitch": 59,
              "velocity": 71,
              "position": 15.33125,
              "duration": 0.30625
            },
            {
              "pitch": 67,
              "velocity": 53,
              "position": 15.33125,
              "duration": 0.30625
            },
            {
              "pitch": 64,
              "velocity": 65,
              "position": 15.33125,
              "duration": 0.30625
            },
            {
              "pitch": 59,
              "velocity": 71,
              "position": 15.666666666666666,
              "duration": 0.30625
            },
            {
              "pitch": 67,
              "velocity": 53,
              "position": 15.666666666666666,
              "duration": 0.30625
            },
            {
              "pitch": 64,
              "velocity": 65,
              "position": 15.666666666666666,
              "duration": 0.30625
            }
          ]
        }
      }
    },
    "Ending_A": {
      "type": "Ending_A",
      "sizeInBeats": 4,
      "channels": {
        "0": {
          "ctab": {
            "srcChannel": 0,
            "name": "Pno LH",
            "accType": "CHORD2",
            "editable": false,
            "mutedNotes": [],
            "mutedChords": [],
            "autoStart": false,
            "sourceChordNote": 0,
            "sourceChordType": "Maj7",
            "ctb2Low": null,
            "ctb2Main": {
              "ntr": "ROOT_TRANSPOSITION",
              "ntt": "MELODY",
              "bassOn": true,
              "chordRootUpperLimit": 8,
              "noteLowLimit": 0,
              "noteHighLimit": 127,
              "rtr": "PITCH_SHIFT_TO_ROOT"
            },
            "ctb2High": null,
            "ctb2MiddleLowPitch": 0,
            "ctb2MiddleHighPitch": 127
          },
          "notes": [
            {
              "pitch": 36,
              "velocity": 99,
              "position": 0,
              "duration": 3.652083333333333
            }
          ]
        },
        "1": {
          "ctab": {
            "srcChannel": 1,
            "name": "Bass B",
            "accType": "BASS",
            "editable": false,
            "mutedNotes": [],
            "mutedChords": [
              "1+2+5",
              "sus4",
              "1+5",
              "1+8",
              "Maj7aug",
              "7(#9)",
              "7(b13)",
              "7(b9)",
              "7(13)",
              "7#11",
              "7(9)",
              "7b5",
              "7sus4",
              "7th",
              "dim7",
              "min7(11)",
              "min7(9)",
              "min7",
              "min6",
              "Maj6(9)",
              "Maj7(9)",
              "Maj(9)",
              "Maj7#11",
              "Maj7",
              "Maj6",
              "Maj"
            ],
            "autoStart": false,
            "sourceChordNote": 0,
            "sourceChordType": "Maj7",
            "ctb2Low": null,
            "ctb2Main": {
              "ntr": "ROOT_TRANSPOSITION",
              "ntt": "MELODY",
              "bassOn": true,
              "chordRootUpperLimit": 8,
              "noteLowLimit": 28,
              "noteHighLimit": 127,
              "rtr": "PITCH_SHIFT_TO_ROOT"
            },
            "ctb2High": null,
            "ctb2MiddleLowPitch": 0,
            "ctb2MiddleHighPitch": 127
          },
          "notes": [
            {
              "pitch": 24,
              "velocity": 70,
              "position": 0,
              "duration": 3.65
            }
          ]
        },
        "3": {
          "ctab": {
            "srcChannel": 3,
            "name": "Pno RH S",
            "accType": "CHORD2",
            "editable": false,
            "mutedNotes": [],
            "mutedChords": [
              "1+2+5",
              "sus4",
              "1+5",
              "1+8",
              "7aug",
              "Maj7aug",
              "7(#9)",
              "7(b13)",
              "7(b9)",
              "7(13)",
              "7#11",
              "7(9)",
              "7b5",
              "7sus4",
              "7th",
              "dim7",
              "dim",
              "minMaj7(9)",
              "minMaj7",
              "min7(11)",
              "min7(9)",
              "min(9)",
              "m7b5",
              "min7",
              "min6",
              "aug",
              "Maj6(9)",
              "Maj7(9)",
              "Maj(9)",
              "Maj7#11",
              "Maj7",
              "Maj6"
            ],
            "autoStart": false,
            "sourceChordNote": 0,
            "sourceChordType": "Maj7",
            "ctb2Low": null,
            "ctb2Main": {
              "ntr": "ROOT_TRANSPOSITION",
              "ntt": "DORIAN_5",
              "bassOn": false,
              "chordRootUpperLimit": 11,
              "noteLowLimit": 58,
              "noteHighLimit": 127,
              "rtr": "PITCH_SHIFT"
            },
            "ctb2High": null,
            "ctb2MiddleLowPitch": 0,
            "ctb2MiddleHighPitch": 127
          },
          "notes": [
            {
              "pitch": 64,
              "velocity": 81,
              "position": 0,
              "duration": 3.6625
            },
            {
              "pitch": 72,
              "velocity": 86,
              "position": 0,
              "duration": 3.6625
            },
            {
              "pitch": 70,
              "velocity": 86,
              "position": 0,
              "duration": 3.6625
            },
            {
              "pitch": 67,
              "velocity": 73,
              "position": 0,
              "duration": 3.6625
            }
          ]
        },
        "5": {
          "ctab": {
            "srcChannel": 5,
            "name": "Tele S M",
            "accType": "PHRASE1",
            "editable": false,
            "mutedNotes": [],
            "mutedChords": [
              "1+2+5",
              "sus4",
              "1+5",
              "1+8",
              "7aug",
              "Maj7aug",
              "7(#9)",
              "7(b13)",
              "7(b9)",
              "7(13)",
              "7#11",
              "7(9)",
              "7b5",
              "7sus4",
              "7th",
              "dim7",
              "dim",
              "minMaj7(9)",
              "minMaj7",
              "min7(11)",
              "min7(9)",
              "min(9)",
              "m7b5",
              "min7",
              "min6",
              "min",
              "aug",
              "Maj6(9)",
              "Maj7(9)",
              "Maj(9)",
              "Maj7#11",
              "Maj7",
              "Maj6"
            ],
            "autoStart": false,
            "sourceChordNote": 0,
            "sourceChordType": "Maj7",
            "ctb2Low": null,
            "ctb2Main": {
              "ntr": "ROOT_TRANSPOSITION",
              "ntt": "DORIAN_5",
              "bassOn": false,
              "chordRootUpperLimit": 4,
              "noteLowLimit": 0,
              "noteHighLimit": 127,
              "rtr": "PITCH_SHIFT"
            },
            "ctb2High": {
              "ntr": "ROOT_FIXED",
              "ntt": "BYPASS",
              "bassOn": false,
              "chordRootUpperLimit": 4,
              "noteLowLimit": 0,
              "noteHighLimit": 127,
              "rtr": "PITCH_SHIFT"
            },
            "ctb2MiddleLowPitch": 0,
            "ctb2MiddleHighPitch": 95
          },
          "notes": [
            {
              "pitch": 67,
              "velocity": 26,
              "position": 0,
              "duration": 3.6395833333333334
            },
            {
              "pitch": 60,
              "velocity": 116,
              "position": 0,
              "duration": 3.65
            }
          ]
        },
        "6": {
          "ctab": {
            "srcChannel": 6,
            "name": "E.P  S",
            "accType": "PHRASE2",
            "editable": false,
            "mutedNotes": [],
            "mutedChords": [
              "1+2+5",
              "sus4",
              "1+5",
              "1+8",
              "7aug",
              "Maj7aug",
              "7(#9)",
              "7(b13)",
              "7(b9)",
              "7(13)",
              "7#11",
              "7(9)",
              "7b5",
              "7sus4",
              "7th",
              "dim7",
              "dim",
              "minMaj7(9)",
              "minMaj7",
              "min7(11)",
              "min7(9)",
              "min(9)",
              "m7b5",
              "min7",
              "min6",
              "aug",
              "Maj6(9)",
              "Maj7(9)",
              "Maj(9)",
              "Maj7#11",
              "Maj7",
              "Maj6"
            ],
            "autoStart": false,
            "sourceChordNote": 0,
            "sourceChordType": "Maj7",
            "ctb2Low": null,
            "ctb2Main": {
              "ntr": "ROOT_TRANSPOSITION",
              "ntt": "DORIAN_5",
              "bassOn": false,
              "chordRootUpperLimit": 4,
              "noteLowLimit": 0,
              "noteHighLimit": 127,
              "rtr": "PITCH_SHIFT"
            },
            "ctb2High": null,
            "ctb2MiddleLowPitch": 0,
            "ctb2MiddleHighPitch": 127
          },
          "notes": [
            {
              "pitch": 60,
              "velocity": 83,
              "position": 0,
              "duration": 3.65
            },
            {
              "pitch": 67,
              "velocity": 83,
              "position": 0,
              "duration": 3.65
            },
            {
              "pitch": 64,
              "velocity": 83,
              "position": 0,
              "duration": 3.65
            }
          ]
        },
        "7": {
          "ctab": {
            "srcChannel": 7,
            "name": "Tele S m",
            "accType": "PHRASE1",
            "editable": false,
            "mutedNotes": [],
            "mutedChords": [
              "1+2+5",
              "sus4",
              "1+5",
              "1+8",
              "7aug",
              "Maj7aug",
              "7(#9)",
              "7(b13)",
              "7(b9)",
              "7(13)",
              "7#11",
              "7(9)",
              "7b5",
              "7sus4",
              "7th",
              "dim7",
              "dim",
              "minMaj7(9)",
              "minMaj7",
              "min7(11)",
              "min7(9)",
              "min(9)",
              "m7b5",
              "min7",
              "min6",
              "aug",
              "Maj6(9)",
              "Maj7(9)",
              "Maj(9)",
              "Maj7#11",
              "Maj7",
              "Maj6",
              "Maj"
            ],
            "autoStart": false,
            "sourceChordNote": 0,
            "sourceChordType": "Maj7",
            "ctb2Low": null,
            "ctb2Main": {
              "ntr": "ROOT_TRANSPOSITION",
              "ntt": "DORIAN_5",
              "bassOn": false,
              "chordRootUpperLimit": 4,
              "noteLowLimit": 0,
              "noteHighLimit": 127,
              "rtr": "PITCH_SHIFT"
            },
            "ctb2High": {
              "ntr": "ROOT_FIXED",
              "ntt": "BYPASS",
              "bassOn": false,
              "chordRootUpperLimit": 4,
              "noteLowLimit": 0,
              "noteHighLimit": 127,
              "rtr": "PITCH_SHIFT"
            },
            "ctb2MiddleLowPitch": 0,
            "ctb2MiddleHighPitch": 95
          },
          "notes": [
            {
              "pitch": 67,
              "velocity": 26,
              "position": 0,
              "duration": 3.6395833333333334
            },
            {
              "pitch": 60,
              "velocity": 116,
              "position": 0,
              "duration": 3.65
            }
          ]
        },
        "8": {
          "ctab": {
            "srcChannel": 8,
            "name": "AddDrum",
            "accType": "SUBRHYTHM",
            "editable": true,
            "mutedNotes": [],
            "mutedChords": [],
            "autoStart": true,
            "sourceChordNote": 0,
            "sourceChordType": "Maj7",
            "ctb2Low": null,
            "ctb2Main": {
              "ntr": "ROOT_FIXED",
              "ntt": "BYPASS",
              "bassOn": false,
              "chordRootUpperLimit": 6,
              "noteLowLimit": 0,
              "noteHighLimit": 127,
              "rtr": "PITCH_SHIFT"
            },
            "ctb2High": null,
            "ctb2MiddleLowPitch": 0,
            "ctb2MiddleHighPitch": 127
          },
          "notes": [
            {
              "pitch": 54,
              "velocity": 59,
              "position": 0,
              "duration": 0.00625
            }
          ]
        },
        "9": {
          "ctab": {
            "srcChannel": 9,
            "name": "MainDrum",
            "accType": "RHYTHM",
            "editable": true,
            "mutedNotes": [],
            "mutedChords": [],
            "autoStart": true,
            "sourceChordNote": 0,
            "sourceChordType": "Maj7",
            "ctb2Low": null,
            "ctb2Main": {
              "ntr": "ROOT_FIXED",
              "ntt": "BYPASS",
              "bassOn": false,
              "chordRootUpperLimit": 6,
              "noteLowLimit": 0,
              "noteHighLimit": 127,
              "rtr": "PITCH_SHIFT"
            },
            "ctb2High": null,
            "ctb2MiddleLowPitch": 0,
            "ctb2MiddleHighPitch": 127
          },
          "notes": [
            {
              "pitch": 33,
              "velocity": 86,
              "position": 0,
              "duration": 0.00625
            }
          ]
        },
        "10": {
          "ctab": {
            "srcChannel": 10,
            "name": "Bass A",
            "accType": "BASS",
            "editable": false,
            "mutedNotes": [],
            "mutedChords": [
              "7aug",
              "dim",
              "minMaj7(9)",
              "minMaj7",
              "min(9)",
              "m7b5",
              "min",
              "aug"
            ],
            "autoStart": false,
            "sourceChordNote": 0,
            "sourceChordType": "Maj7",
            "ctb2Low": null,
            "ctb2Main": {
              "ntr": "ROOT_TRANSPOSITION",
              "ntt": "MELODY",
              "bassOn": true,
              "chordRootUpperLimit": 8,
              "noteLowLimit": 28,
              "noteHighLimit": 127,
              "rtr": "PITCH_SHIFT_TO_ROOT"
            },
            "ctb2High": null,
            "ctb2MiddleLowPitch": 0,
            "ctb2MiddleHighPitch": 127
          },
          "notes": [
            {
              "pitch": 24,
              "velocity": 70,
              "position": 0,
              "duration": 3.65
            }
          ]
        },
        "11": {
          "ctab": {
            "srcChannel": 11,
            "name": "SolidGtr",
            "accType": "CHORD1",
            "editable": false,
            "mutedNotes": [],
            "mutedChords": [],
            "autoStart": false,
            "sourceChordNote": 0,
            "sourceChordType": "Maj7",
            "ctb2Low": null,
            "ctb2Main": {
              "ntr": "GUITAR",
              "ntt": "ALL_PURPOSE",
              "bassOn": false,
              "chordRootUpperLimit": 7,
              "noteLowLimit": 0,
              "noteHighLimit": 79,
              "rtr": "PITCH_SHIFT"
            },
            "ctb2High": null,
            "ctb2MiddleLowPitch": 0,
            "ctb2MiddleHighPitch": 127
          },
          "notes": [
            {
              "pitch": 100,
              "velocity": 88,
              "position": 0,
              "duration": 0.19166666666666668
            },
            {
              "pitch": 71,
              "velocity": 58,
              "position": 0.010416666666666666,
              "duration": 3.629166666666667
            },
            {
              "pitch": 69,
              "velocity": 58,
              "position": 0.010416666666666666,
              "duration": 3.629166666666667
            },
            {
              "pitch": 67,
              "velocity": 58,
              "position": 0,
              "duration": 3.6395833333333334
            },
            {
              "pitch": 65,
              "velocity": 58,
              "position": 0,
              "duration": 3.65
            }
          ]
        },
        "12": {
          "ctab": {
            "srcChannel": 12,
            "name": "Pno RH",
            "accType": "CHORD2",
            "editable": false,
            "mutedNotes": [],
            "mutedChords": [
              "min",
              "Maj"
            ],
            "autoStart": false,
            "sourceChordNote": 0,
            "sourceChordType": "Maj7",
            "ctb2Low": null,
            "ctb2Main": {
              "ntr": "ROOT_FIXED",
              "ntt": "CHORD",
              "bassOn": false,
              "chordRootUpperLimit": 7,
              "noteLowLimit": 0,
              "noteHighLimit": 127,
              "rtr": "PITCH_SHIFT"
            },
            "ctb2High": null,
            "ctb2MiddleLowPitch": 0,
            "ctb2MiddleHighPitch": 127
          },
          "notes": [
            {
              "pitch": 55,
              "velocity": 84,
              "position": 0,
              "duration": 3.6625
            },
            {
              "pitch": 64,
              "velocity": 84,
              "position": 0,
              "duration": 3.6625
            },
            {
              "pitch": 59,
              "velocity": 84,
              "position": 0,
              "duration": 3.6625
            }
          ]
        },
        "13": {
          "ctab": {
            "srcChannel": 13,
            "name": "Organ1",
            "accType": "PAD",
            "editable": false,
            "mutedNotes": [],
            "mutedChords": [],
            "autoStart": false,
            "sourceChordNote": 0,
            "sourceChordType": "Maj7",
            "ctb2Low": null,
            "ctb2Main": {
              "ntr": "ROOT_FIXED",
              "ntt": "CHORD",
              "bassOn": false,
              "chordRootUpperLimit": 7,
              "noteLowLimit": 0,
              "noteHighLimit": 127,
              "rtr": "PITCH_SHIFT"
            },
            "ctb2High": null,
            "ctb2MiddleLowPitch": 0,
            "ctb2MiddleHighPitch": 127
          },
          "notes": [
            {
              "pitch": 67,
              "velocity": 50,
              "position": 0,
              "duration": 0.9604166666666667
            },
            {
              "pitch": 76,
              "velocity": 50,
              "position": 0,
              "duration": 0.9604166666666667
            },
            {
              "pitch": 71,
              "velocity": 50,
              "position": 0,
              "duration": 0.9604166666666667
            },
            {
              "pitch": 67,
              "velocity": 50,
              "position": 1,
              "duration": 0.49166666666666664
            },
            {
              "pitch": 76,
              "velocity": 50,
              "position": 1,
              "duration": 0.49166666666666664
            },
            {
              "pitch": 71,
              "velocity": 50,
              "position": 1,
              "duration": 0.49166666666666664
            }
          ]
        },
        "14": {
          "ctab": {
            "srcChannel": 14,
            "name": "Tele",
            "accType": "PHRASE1",
            "editable": false,
            "mutedNotes": [],
            "mutedChords": [
              "min",
              "Maj"
            ],
            "autoStart": false,
            "sourceChordNote": 0,
            "sourceChordType": "Maj7",
            "ctb2Low": null,
            "ctb2Main": {
              "ntr": "ROOT_TRANSPOSITION",
              "ntt": "MELODY",
              "bassOn": false,
              "chordRootUpperLimit": 4,
              "noteLowLimit": 0,
              "noteHighLimit": 127,
              "rtr": "PITCH_SHIFT"
            },
            "ctb2High": {
              "ntr": "ROOT_FIXED",
              "ntt": "BYPASS",
              "bassOn": false,
              "chordRootUpperLimit": 4,
              "noteLowLimit": 0,
              "noteHighLimit": 127,
              "rtr": "PITCH_SHIFT"
            },
            "ctb2MiddleLowPitch": 0,
            "ctb2MiddleHighPitch": 95
          },
          "notes": [
            {
              "pitch": 64,
              "velocity": 116,
              "position": 0,
              "duration": 3.65
            }
          ]
        },
        "15": {
          "ctab": {
            "srcChannel": 15,
            "name": "E.P",
            "accType": "PHRASE2",
            "editable": false,
            "mutedNotes": [],
            "mutedChords": [
              "min",
              "Maj"
            ],
            "autoStart": false,
            "sourceChordNote": 0,
            "sourceChordType": "Maj7",
            "ctb2Low": null,
            "ctb2Main": {
              "ntr": "ROOT_FIXED",
              "ntt": "CHORD",
              "bassOn": false,
              "chordRootUpperLimit": 7,
              "noteLowLimit": 0,
              "noteHighLimit": 127,
              "rtr": "PITCH_SHIFT"
            },
            "ctb2High": null,
            "ctb2MiddleLowPitch": 0,
            "ctb2MiddleHighPitch": 127
          },
          "notes": [
            {
              "pitch": 55,
              "velocity": 77,
              "position": 0,
              "duration": 3.65
            },
            {
              "pitch": 64,
              "velocity": 77,
              "position": 0,
              "duration": 3.65
            },
            {
              "pitch": 59,
              "velocity": 77,
              "position": 0,
              "duration": 3.65
            }
          ]
        }
      }
    },
    "Ending_B": {
      "type": "Ending_B",
      "sizeInBeats": 4,
      "channels": {
        "0": {
          "ctab": {
            "srcChannel": 0,
            "name": "Pno LH",
            "accType": "CHORD2",
            "editable": false,
            "mutedNotes": [],
            "mutedChords": [],
            "autoStart": false,
            "sourceChordNote": 0,
            "sourceChordType": "Maj7",
            "ctb2Low": null,
            "ctb2Main": {
              "ntr": "ROOT_TRANSPOSITION",
              "ntt": "MELODY",
              "bassOn": true,
              "chordRootUpperLimit": 8,
              "noteLowLimit": 0,
              "noteHighLimit": 127,
              "rtr": "PITCH_SHIFT_TO_ROOT"
            },
            "ctb2High": null,
            "ctb2MiddleLowPitch": 0,
            "ctb2MiddleHighPitch": 127
          },
          "notes": [
            {
              "pitch": 36,
              "velocity": 99,
              "position": 0,
              "duration": 3.652083333333333
            }
          ]
        },
        "1": {
          "ctab": {
            "srcChannel": 1,
            "name": "Bass B",
            "accType": "BASS",
            "editable": false,
            "mutedNotes": [],
            "mutedChords": [
              "1+2+5",
              "sus4",
              "1+5",
              "1+8",
              "Maj7aug",
              "7(#9)",
              "7(b13)",
              "7(b9)",
              "7(13)",
              "7#11",
              "7(9)",
              "7b5",
              "7sus4",
              "7th",
              "dim7",
              "min7(11)",
              "min7(9)",
              "min7",
              "min6",
              "Maj6(9)",
              "Maj7(9)",
              "Maj(9)",
              "Maj7#11",
              "Maj7",
              "Maj6",
              "Maj"
            ],
            "autoStart": false,
            "sourceChordNote": 0,
            "sourceChordType": "Maj7",
            "ctb2Low": null,
            "ctb2Main": {
              "ntr": "ROOT_TRANSPOSITION",
              "ntt": "MELODY",
              "bassOn": true,
              "chordRootUpperLimit": 8,
              "noteLowLimit": 28,
              "noteHighLimit": 127,
              "rtr": "PITCH_SHIFT_TO_ROOT"
            },
            "ctb2High": null,
            "ctb2MiddleLowPitch": 0,
            "ctb2MiddleHighPitch": 127
          },
          "notes": [
            {
              "pitch": 24,
              "velocity": 70,
              "position": 0,
              "duration": 3.65
            }
          ]
        },
        "3": {
          "ctab": {
            "srcChannel": 3,
            "name": "Pno RH S",
            "accType": "CHORD2",
            "editable": false,
            "mutedNotes": [],
            "mutedChords": [
              "1+2+5",
              "sus4",
              "1+5",
              "1+8",
              "7aug",
              "Maj7aug",
              "7(#9)",
              "7(b13)",
              "7(b9)",
              "7(13)",
              "7#11",
              "7(9)",
              "7b5",
              "7sus4",
              "7th",
              "dim7",
              "dim",
              "minMaj7(9)",
              "minMaj7",
              "min7(11)",
              "min7(9)",
              "min(9)",
              "m7b5",
              "min7",
              "min6",
              "aug",
              "Maj6(9)",
              "Maj7(9)",
              "Maj(9)",
              "Maj7#11",
              "Maj7",
              "Maj6"
            ],
            "autoStart": false,
            "sourceChordNote": 0,
            "sourceChordType": "Maj7",
            "ctb2Low": null,
            "ctb2Main": {
              "ntr": "ROOT_TRANSPOSITION",
              "ntt": "DORIAN_5",
              "bassOn": false,
              "chordRootUpperLimit": 11,
              "noteLowLimit": 58,
              "noteHighLimit": 127,
              "rtr": "PITCH_SHIFT"
            },
            "ctb2High": null,
            "ctb2MiddleLowPitch": 0,
            "ctb2MiddleHighPitch": 127
          },
          "notes": [
            {
              "pitch": 64,
              "velocity": 81,
              "position": 0,
              "duration": 3.6625
            },
            {
              "pitch": 72,
              "velocity": 86,
              "position": 0,
              "duration": 3.6625
            },
            {
              "pitch": 70,
              "velocity": 86,
              "position": 0,
              "duration": 3.6625
            },
            {
              "pitch": 67,
              "velocity": 73,
              "position": 0,
              "duration": 3.6625
            }
          ]
        },
        "5": {
          "ctab": {
            "srcChannel": 5,
            "name": "Tele S M",
            "accType": "PHRASE1",
            "editable": false,
            "mutedNotes": [],
            "mutedChords": [
              "1+2+5",
              "sus4",
              "1+5",
              "1+8",
              "7aug",
              "Maj7aug",
              "7(#9)",
              "7(b13)",
              "7(b9)",
              "7(13)",
              "7#11",
              "7(9)",
              "7b5",
              "7sus4",
              "7th",
              "dim7",
              "dim",
              "minMaj7(9)",
              "minMaj7",
              "min7(11)",
              "min7(9)",
              "min(9)",
              "m7b5",
              "min7",
              "min6",
              "min",
              "aug",
              "Maj6(9)",
              "Maj7(9)",
              "Maj(9)",
              "Maj7#11",
              "Maj7",
              "Maj6"
            ],
            "autoStart": false,
            "sourceChordNote": 0,
            "sourceChordType": "Maj7",
            "ctb2Low": null,
            "ctb2Main": {
              "ntr": "ROOT_TRANSPOSITION",
              "ntt": "DORIAN_5",
              "bassOn": false,
              "chordRootUpperLimit": 4,
              "noteLowLimit": 0,
              "noteHighLimit": 127,
              "rtr": "PITCH_SHIFT"
            },
            "ctb2High": {
              "ntr": "ROOT_FIXED",
              "ntt": "BYPASS",
              "bassOn": false,
              "chordRootUpperLimit": 4,
              "noteLowLimit": 0,
              "noteHighLimit": 127,
              "rtr": "PITCH_SHIFT"
            },
            "ctb2MiddleLowPitch": 0,
            "ctb2MiddleHighPitch": 95
          },
          "notes": [
            {
              "pitch": 67,
              "velocity": 26,
              "position": 0,
              "duration": 3.6395833333333334
            },
            {
              "pitch": 60,
              "velocity": 116,
              "position": 0,
              "duration": 3.65
            }
          ]
        },
        "6": {
          "ctab": {
            "srcChannel": 6,
            "name": "E.P  S",
            "accType": "PHRASE2",
            "editable": false,
            "mutedNotes": [],
            "mutedChords": [
              "1+2+5",
              "sus4",
              "1+5",
              "1+8",
              "7aug",
              "Maj7aug",
              "7(#9)",
              "7(b13)",
              "7(b9)",
              "7(13)",
              "7#11",
              "7(9)",
              "7b5",
              "7sus4",
              "7th",
              "dim7",
              "dim",
              "minMaj7(9)",
              "minMaj7",
              "min7(11)",
              "min7(9)",
              "min(9)",
              "m7b5",
              "min7",
              "min6",
              "aug",
              "Maj6(9)",
              "Maj7(9)",
              "Maj(9)",
              "Maj7#11",
              "Maj7",
              "Maj6"
            ],
            "autoStart": false,
            "sourceChordNote": 0,
            "sourceChordType": "Maj7",
            "ctb2Low": null,
            "ctb2Main": {
              "ntr": "ROOT_TRANSPOSITION",
              "ntt": "DORIAN_5",
              "bassOn": false,
              "chordRootUpperLimit": 4,
              "noteLowLimit": 0,
              "noteHighLimit": 127,
              "rtr": "PITCH_SHIFT"
            },
            "ctb2High": null,
            "ctb2MiddleLowPitch": 0,
            "ctb2MiddleHighPitch": 127
          },
          "notes": [
            {
              "pitch": 60,
              "velocity": 83,
              "position": 0,
              "duration": 3.65
            },
            {
              "pitch": 67,
              "velocity": 83,
              "position": 0,
              "duration": 3.65
            },
            {
              "pitch": 64,
              "velocity": 83,
              "position": 0,
              "duration": 3.65
            }
          ]
        },
        "7": {
          "ctab": {
            "srcChannel": 7,
            "name": "Tele S m",
            "accType": "PHRASE1",
            "editable": false,
            "mutedNotes": [],
            "mutedChords": [
              "1+2+5",
              "sus4",
              "1+5",
              "1+8",
              "7aug",
              "Maj7aug",
              "7(#9)",
              "7(b13)",
              "7(b9)",
              "7(13)",
              "7#11",
              "7(9)",
              "7b5",
              "7sus4",
              "7th",
              "dim7",
              "dim",
              "minMaj7(9)",
              "minMaj7",
              "min7(11)",
              "min7(9)",
              "min(9)",
              "m7b5",
              "min7",
              "min6",
              "aug",
              "Maj6(9)",
              "Maj7(9)",
              "Maj(9)",
              "Maj7#11",
              "Maj7",
              "Maj6",
              "Maj"
            ],
            "autoStart": false,
            "sourceChordNote": 0,
            "sourceChordType": "Maj7",
            "ctb2Low": null,
            "ctb2Main": {
              "ntr": "ROOT_TRANSPOSITION",
              "ntt": "DORIAN_5",
              "bassOn": false,
              "chordRootUpperLimit": 4,
              "noteLowLimit": 0,
              "noteHighLimit": 127,
              "rtr": "PITCH_SHIFT"
            },
            "ctb2High": {
              "ntr": "ROOT_FIXED",
              "ntt": "BYPASS",
              "bassOn": false,
              "chordRootUpperLimit": 4,
              "noteLowLimit": 0,
              "noteHighLimit": 127,
              "rtr": "PITCH_SHIFT"
            },
            "ctb2MiddleLowPitch": 0,
            "ctb2MiddleHighPitch": 95
          },
          "notes": [
            {
              "pitch": 67,
              "velocity": 26,
              "position": 0,
              "duration": 3.6395833333333334
            },
            {
              "pitch": 60,
              "velocity": 116,
              "position": 0,
              "duration": 3.65
            }
          ]
        },
        "8": {
          "ctab": {
            "srcChannel": 8,
            "name": "AddDrum",
            "accType": "SUBRHYTHM",
            "editable": true,
            "mutedNotes": [],
            "mutedChords": [],
            "autoStart": true,
            "sourceChordNote": 0,
            "sourceChordType": "Maj7",
            "ctb2Low": null,
            "ctb2Main": {
              "ntr": "ROOT_FIXED",
              "ntt": "BYPASS",
              "bassOn": false,
              "chordRootUpperLimit": 6,
              "noteLowLimit": 0,
              "noteHighLimit": 127,
              "rtr": "PITCH_SHIFT"
            },
            "ctb2High": null,
            "ctb2MiddleLowPitch": 0,
            "ctb2MiddleHighPitch": 127
          },
          "notes": [
            {
              "pitch": 54,
              "velocity": 59,
              "position": 0,
              "duration": 0.00625
            }
          ]
        },
        "9": {
          "ctab": {
            "srcChannel": 9,
            "name": "MainDrum",
            "accType": "RHYTHM",
            "editable": true,
            "mutedNotes": [],
            "mutedChords": [],
            "autoStart": true,
            "sourceChordNote": 0,
            "sourceChordType": "Maj7",
            "ctb2Low": null,
            "ctb2Main": {
              "ntr": "ROOT_FIXED",
              "ntt": "BYPASS",
              "bassOn": false,
              "chordRootUpperLimit": 6,
              "noteLowLimit": 0,
              "noteHighLimit": 127,
              "rtr": "PITCH_SHIFT"
            },
            "ctb2High": null,
            "ctb2MiddleLowPitch": 0,
            "ctb2MiddleHighPitch": 127
          },
          "notes": [
            {
              "pitch": 33,
              "velocity": 86,
              "position": 0,
              "duration": 0.00625
            }
          ]
        },
        "10": {
          "ctab": {
            "srcChannel": 10,
            "name": "Bass A",
            "accType": "BASS",
            "editable": false,
            "mutedNotes": [],
            "mutedChords": [
              "7aug",
              "dim",
              "minMaj7(9)",
              "minMaj7",
              "min(9)",
              "m7b5",
              "min",
              "aug"
            ],
            "autoStart": false,
            "sourceChordNote": 0,
            "sourceChordType": "Maj7",
            "ctb2Low": null,
            "ctb2Main": {
              "ntr": "ROOT_TRANSPOSITION",
              "ntt": "MELODY",
              "bassOn": true,
              "chordRootUpperLimit": 8,
              "noteLowLimit": 28,
              "noteHighLimit": 127,
              "rtr": "PITCH_SHIFT_TO_ROOT"
            },
            "ctb2High": null,
            "ctb2MiddleLowPitch": 0,
            "ctb2MiddleHighPitch": 127
          },
          "notes": [
            {
              "pitch": 24,
              "velocity": 70,
              "position": 0,
              "duration": 3.65
            }
          ]
        },
        "11": {
          "ctab": {
            "srcChannel": 11,
            "name": "SolidGtr",
            "accType": "CHORD1",
            "editable": false,
            "mutedNotes": [],
            "mutedChords": [],
            "autoStart": false,
            "sourceChordNote": 0,
            "sourceChordType": "Maj7",
            "ctb2Low": null,
            "ctb2Main": {
              "ntr": "GUITAR",
              "ntt": "ALL_PURPOSE",
              "bassOn": false,
              "chordRootUpperLimit": 7,
              "noteLowLimit": 0,
              "noteHighLimit": 79,
              "rtr": "PITCH_SHIFT"
            },
            "ctb2High": null,
            "ctb2MiddleLowPitch": 0,
            "ctb2MiddleHighPitch": 127
          },
          "notes": [
            {
              "pitch": 100,
              "velocity": 88,
              "position": 0,
              "duration": 0.19166666666666668
            },
            {
              "pitch": 71,
              "velocity": 58,
              "position": 0.010416666666666666,
              "duration": 3.629166666666667
            },
            {
              "pitch": 69,
              "velocity": 58,
              "position": 0.010416666666666666,
              "duration": 3.629166666666667
            },
            {
              "pitch": 67,
              "velocity": 58,
              "position": 0,
              "duration": 3.6395833333333334
            },
            {
              "pitch": 65,
              "velocity": 58,
              "position": 0,
              "duration": 3.65
            }
          ]
        },
        "12": {
          "ctab": {
            "srcChannel": 12,
            "name": "Pno RH",
            "accType": "CHORD2",
            "editable": false,
            "mutedNotes": [],
            "mutedChords": [
              "min",
              "Maj"
            ],
            "autoStart": false,
            "sourceChordNote": 0,
            "sourceChordType": "Maj7",
            "ctb2Low": null,
            "ctb2Main": {
              "ntr": "ROOT_FIXED",
              "ntt": "CHORD",
              "bassOn": false,
              "chordRootUpperLimit": 7,
              "noteLowLimit": 0,
              "noteHighLimit": 127,
              "rtr": "PITCH_SHIFT"
            },
            "ctb2High": null,
            "ctb2MiddleLowPitch": 0,
            "ctb2MiddleHighPitch": 127
          },
          "notes": [
            {
              "pitch": 55,
              "velocity": 84,
              "position": 0,
              "duration": 3.6625
            },
            {
              "pitch": 64,
              "velocity": 84,
              "position": 0,
              "duration": 3.6625
            },
            {
              "pitch": 59,
              "velocity": 84,
              "position": 0,
              "duration": 3.6625
            }
          ]
        },
        "13": {
          "ctab": {
            "srcChannel": 13,
            "name": "Organ1",
            "accType": "PAD",
            "editable": false,
            "mutedNotes": [],
            "mutedChords": [],
            "autoStart": false,
            "sourceChordNote": 0,
            "sourceChordType": "Maj7",
            "ctb2Low": null,
            "ctb2Main": {
              "ntr": "ROOT_FIXED",
              "ntt": "CHORD",
              "bassOn": false,
              "chordRootUpperLimit": 7,
              "noteLowLimit": 0,
              "noteHighLimit": 127,
              "rtr": "PITCH_SHIFT"
            },
            "ctb2High": null,
            "ctb2MiddleLowPitch": 0,
            "ctb2MiddleHighPitch": 127
          },
          "notes": [
            {
              "pitch": 67,
              "velocity": 50,
              "position": 0,
              "duration": 0.9604166666666667
            },
            {
              "pitch": 76,
              "velocity": 50,
              "position": 0,
              "duration": 0.9604166666666667
            },
            {
              "pitch": 71,
              "velocity": 50,
              "position": 0,
              "duration": 0.9604166666666667
            },
            {
              "pitch": 67,
              "velocity": 50,
              "position": 1,
              "duration": 0.49166666666666664
            },
            {
              "pitch": 76,
              "velocity": 50,
              "position": 1,
              "duration": 0.49166666666666664
            },
            {
              "pitch": 71,
              "velocity": 50,
              "position": 1,
              "duration": 0.49166666666666664
            }
          ]
        },
        "14": {
          "ctab": {
            "srcChannel": 14,
            "name": "Tele",
            "accType": "PHRASE1",
            "editable": false,
            "mutedNotes": [],
            "mutedChords": [
              "min",
              "Maj"
            ],
            "autoStart": false,
            "sourceChordNote": 0,
            "sourceChordType": "Maj7",
            "ctb2Low": null,
            "ctb2Main": {
              "ntr": "ROOT_TRANSPOSITION",
              "ntt": "MELODY",
              "bassOn": false,
              "chordRootUpperLimit": 4,
              "noteLowLimit": 0,
              "noteHighLimit": 127,
              "rtr": "PITCH_SHIFT"
            },
            "ctb2High": {
              "ntr": "ROOT_FIXED",
              "ntt": "BYPASS",
              "bassOn": false,
              "chordRootUpperLimit": 4,
              "noteLowLimit": 0,
              "noteHighLimit": 127,
              "rtr": "PITCH_SHIFT"
            },
            "ctb2MiddleLowPitch": 0,
            "ctb2MiddleHighPitch": 95
          },
          "notes": [
            {
              "pitch": 64,
              "velocity": 116,
              "position": 0,
              "duration": 3.65
            }
          ]
        },
        "15": {
          "ctab": {
            "srcChannel": 15,
            "name": "E.P",
            "accType": "PHRASE2",
            "editable": false,
            "mutedNotes": [],
            "mutedChords": [
              "min",
              "Maj"
            ],
            "autoStart": false,
            "sourceChordNote": 0,
            "sourceChordType": "Maj7",
            "ctb2Low": null,
            "ctb2Main": {
              "ntr": "ROOT_FIXED",
              "ntt": "CHORD",
              "bassOn": false,
              "chordRootUpperLimit": 7,
              "noteLowLimit": 0,
              "noteHighLimit": 127,
              "rtr": "PITCH_SHIFT"
            },
            "ctb2High": null,
            "ctb2MiddleLowPitch": 0,
            "ctb2MiddleHighPitch": 127
          },
          "notes": [
            {
              "pitch": 55,
              "velocity": 77,
              "position": 0,
              "duration": 3.65
            },
            {
              "pitch": 64,
              "velocity": 77,
              "position": 0,
              "duration": 3.65
            },
            {
              "pitch": 59,
              "velocity": 77,
              "position": 0,
              "duration": 3.65
            }
          ]
        }
      }
    },
    "Ending_C": {
      "type": "Ending_C",
      "sizeInBeats": 4,
      "channels": {
        "0": {
          "ctab": {
            "srcChannel": 0,
            "name": "Pno LH",
            "accType": "CHORD2",
            "editable": false,
            "mutedNotes": [],
            "mutedChords": [],
            "autoStart": false,
            "sourceChordNote": 0,
            "sourceChordType": "Maj7",
            "ctb2Low": null,
            "ctb2Main": {
              "ntr": "ROOT_TRANSPOSITION",
              "ntt": "MELODY",
              "bassOn": true,
              "chordRootUpperLimit": 8,
              "noteLowLimit": 0,
              "noteHighLimit": 127,
              "rtr": "PITCH_SHIFT_TO_ROOT"
            },
            "ctb2High": null,
            "ctb2MiddleLowPitch": 0,
            "ctb2MiddleHighPitch": 127
          },
          "notes": [
            {
              "pitch": 36,
              "velocity": 99,
              "position": 0,
              "duration": 3.652083333333333
            }
          ]
        },
        "1": {
          "ctab": {
            "srcChannel": 1,
            "name": "Bass B",
            "accType": "BASS",
            "editable": false,
            "mutedNotes": [],
            "mutedChords": [
              "1+2+5",
              "sus4",
              "1+5",
              "1+8",
              "Maj7aug",
              "7(#9)",
              "7(b13)",
              "7(b9)",
              "7(13)",
              "7#11",
              "7(9)",
              "7b5",
              "7sus4",
              "7th",
              "dim7",
              "min7(11)",
              "min7(9)",
              "min7",
              "min6",
              "Maj6(9)",
              "Maj7(9)",
              "Maj(9)",
              "Maj7#11",
              "Maj7",
              "Maj6",
              "Maj"
            ],
            "autoStart": false,
            "sourceChordNote": 0,
            "sourceChordType": "Maj7",
            "ctb2Low": null,
            "ctb2Main": {
              "ntr": "ROOT_TRANSPOSITION",
              "ntt": "MELODY",
              "bassOn": true,
              "chordRootUpperLimit": 8,
              "noteLowLimit": 28,
              "noteHighLimit": 127,
              "rtr": "PITCH_SHIFT_TO_ROOT"
            },
            "ctb2High": null,
            "ctb2MiddleLowPitch": 0,
            "ctb2MiddleHighPitch": 127
          },
          "notes": [
            {
              "pitch": 24,
              "velocity": 70,
              "position": 0,
              "duration": 3.65
            }
          ]
        },
        "3": {
          "ctab": {
            "srcChannel": 3,
            "name": "Pno RH S",
            "accType": "CHORD2",
            "editable": false,
            "mutedNotes": [],
            "mutedChords": [
              "1+2+5",
              "sus4",
              "1+5",
              "1+8",
              "7aug",
              "Maj7aug",
              "7(#9)",
              "7(b13)",
              "7(b9)",
              "7(13)",
              "7#11",
              "7(9)",
              "7b5",
              "7sus4",
              "7th",
              "dim7",
              "dim",
              "minMaj7(9)",
              "minMaj7",
              "min7(11)",
              "min7(9)",
              "min(9)",
              "m7b5",
              "min7",
              "min6",
              "aug",
              "Maj6(9)",
              "Maj7(9)",
              "Maj(9)",
              "Maj7#11",
              "Maj7",
              "Maj6"
            ],
            "autoStart": false,
            "sourceChordNote": 0,
            "sourceChordType": "Maj7",
            "ctb2Low": null,
            "ctb2Main": {
              "ntr": "ROOT_TRANSPOSITION",
              "ntt": "DORIAN_5",
              "bassOn": false,
              "chordRootUpperLimit": 11,
              "noteLowLimit": 58,
              "noteHighLimit": 127,
              "rtr": "PITCH_SHIFT"
            },
            "ctb2High": null,
            "ctb2MiddleLowPitch": 0,
            "ctb2MiddleHighPitch": 127
          },
          "notes": [
            {
              "pitch": 64,
              "velocity": 81,
              "position": 0,
              "duration": 3.6625
            },
            {
              "pitch": 72,
              "velocity": 86,
              "position": 0,
              "duration": 3.6625
            },
            {
              "pitch": 70,
              "velocity": 86,
              "position": 0,
              "duration": 3.6625
            },
            {
              "pitch": 67,
              "velocity": 73,
              "position": 0,
              "duration": 3.6625
            }
          ]
        },
        "5": {
          "ctab": {
            "srcChannel": 5,
            "name": "Tele S M",
            "accType": "PHRASE1",
            "editable": false,
            "mutedNotes": [],
            "mutedChords": [
              "1+2+5",
              "sus4",
              "1+5",
              "1+8",
              "7aug",
              "Maj7aug",
              "7(#9)",
              "7(b13)",
              "7(b9)",
              "7(13)",
              "7#11",
              "7(9)",
              "7b5",
              "7sus4",
              "7th",
              "dim7",
              "dim",
              "minMaj7(9)",
              "minMaj7",
              "min7(11)",
              "min7(9)",
              "min(9)",
              "m7b5",
              "min7",
              "min6",
              "min",
              "aug",
              "Maj6(9)",
              "Maj7(9)",
              "Maj(9)",
              "Maj7#11",
              "Maj7",
              "Maj6"
            ],
            "autoStart": false,
            "sourceChordNote": 0,
            "sourceChordType": "Maj7",
            "ctb2Low": null,
            "ctb2Main": {
              "ntr": "ROOT_TRANSPOSITION",
              "ntt": "DORIAN_5",
              "bassOn": false,
              "chordRootUpperLimit": 4,
              "noteLowLimit": 0,
              "noteHighLimit": 127,
              "rtr": "PITCH_SHIFT"
            },
            "ctb2High": {
              "ntr": "ROOT_FIXED",
              "ntt": "BYPASS",
              "bassOn": false,
              "chordRootUpperLimit": 4,
              "noteLowLimit": 0,
              "noteHighLimit": 127,
              "rtr": "PITCH_SHIFT"
            },
            "ctb2MiddleLowPitch": 0,
            "ctb2MiddleHighPitch": 95
          },
          "notes": [
            {
              "pitch": 67,
              "velocity": 26,
              "position": 0,
              "duration": 3.6395833333333334
            },
            {
              "pitch": 60,
              "velocity": 116,
              "position": 0,
              "duration": 3.65
            }
          ]
        },
        "6": {
          "ctab": {
            "srcChannel": 6,
            "name": "E.P  S",
            "accType": "PHRASE2",
            "editable": false,
            "mutedNotes": [],
            "mutedChords": [
              "1+2+5",
              "sus4",
              "1+5",
              "1+8",
              "7aug",
              "Maj7aug",
              "7(#9)",
              "7(b13)",
              "7(b9)",
              "7(13)",
              "7#11",
              "7(9)",
              "7b5",
              "7sus4",
              "7th",
              "dim7",
              "dim",
              "minMaj7(9)",
              "minMaj7",
              "min7(11)",
              "min7(9)",
              "min(9)",
              "m7b5",
              "min7",
              "min6",
              "aug",
              "Maj6(9)",
              "Maj7(9)",
              "Maj(9)",
              "Maj7#11",
              "Maj7",
              "Maj6"
            ],
            "autoStart": false,
            "sourceChordNote": 0,
            "sourceChordType": "Maj7",
            "ctb2Low": null,
            "ctb2Main": {
              "ntr": "ROOT_TRANSPOSITION",
              "ntt": "DORIAN_5",
              "bassOn": false,
              "chordRootUpperLimit": 4,
              "noteLowLimit": 0,
              "noteHighLimit": 127,
              "rtr": "PITCH_SHIFT"
            },
            "ctb2High": null,
            "ctb2MiddleLowPitch": 0,
            "ctb2MiddleHighPitch": 127
          },
          "notes": [
            {
              "pitch": 60,
              "velocity": 83,
              "position": 0,
              "duration": 3.65
            },
            {
              "pitch": 67,
              "velocity": 83,
              "position": 0,
              "duration": 3.65
            },
            {
              "pitch": 64,
              "velocity": 83,
              "position": 0,
              "duration": 3.65
            }
          ]
        },
        "7": {
          "ctab": {
            "srcChannel": 7,
            "name": "Tele S m",
            "accType": "PHRASE1",
            "editable": false,
            "mutedNotes": [],
            "mutedChords": [
              "1+2+5",
              "sus4",
              "1+5",
              "1+8",
              "7aug",
              "Maj7aug",
              "7(#9)",
              "7(b13)",
              "7(b9)",
              "7(13)",
              "7#11",
              "7(9)",
              "7b5",
              "7sus4",
              "7th",
              "dim7",
              "dim",
              "minMaj7(9)",
              "minMaj7",
              "min7(11)",
              "min7(9)",
              "min(9)",
              "m7b5",
              "min7",
              "min6",
              "aug",
              "Maj6(9)",
              "Maj7(9)",
              "Maj(9)",
              "Maj7#11",
              "Maj7",
              "Maj6",
              "Maj"
            ],
            "autoStart": false,
            "sourceChordNote": 0,
            "sourceChordType": "Maj7",
            "ctb2Low": null,
            "ctb2Main": {
              "ntr": "ROOT_TRANSPOSITION",
              "ntt": "DORIAN_5",
              "bassOn": false,
              "chordRootUpperLimit": 4,
              "noteLowLimit": 0,
              "noteHighLimit": 127,
              "rtr": "PITCH_SHIFT"
            },
            "ctb2High": {
              "ntr": "ROOT_FIXED",
              "ntt": "BYPASS",
              "bassOn": false,
              "chordRootUpperLimit": 4,
              "noteLowLimit": 0,
              "noteHighLimit": 127,
              "rtr": "PITCH_SHIFT"
            },
            "ctb2MiddleLowPitch": 0,
            "ctb2MiddleHighPitch": 95
          },
          "notes": [
            {
              "pitch": 67,
              "velocity": 26,
              "position": 0,
              "duration": 3.6395833333333334
            },
            {
              "pitch": 60,
              "velocity": 116,
              "position": 0,
              "duration": 3.65
            }
          ]
        },
        "8": {
          "ctab": {
            "srcChannel": 8,
            "name": "AddDrum",
            "accType": "SUBRHYTHM",
            "editable": true,
            "mutedNotes": [],
            "mutedChords": [],
            "autoStart": true,
            "sourceChordNote": 0,
            "sourceChordType": "Maj7",
            "ctb2Low": null,
            "ctb2Main": {
              "ntr": "ROOT_FIXED",
              "ntt": "BYPASS",
              "bassOn": false,
              "chordRootUpperLimit": 6,
              "noteLowLimit": 0,
              "noteHighLimit": 127,
              "rtr": "PITCH_SHIFT"
            },
            "ctb2High": null,
            "ctb2MiddleLowPitch": 0,
            "ctb2MiddleHighPitch": 127
          },
          "notes": [
            {
              "pitch": 54,
              "velocity": 59,
              "position": 0,
              "duration": 0.00625
            }
          ]
        },
        "9": {
          "ctab": {
            "srcChannel": 9,
            "name": "MainDrum",
            "accType": "RHYTHM",
            "editable": true,
            "mutedNotes": [],
            "mutedChords": [],
            "autoStart": true,
            "sourceChordNote": 0,
            "sourceChordType": "Maj7",
            "ctb2Low": null,
            "ctb2Main": {
              "ntr": "ROOT_FIXED",
              "ntt": "BYPASS",
              "bassOn": false,
              "chordRootUpperLimit": 6,
              "noteLowLimit": 0,
              "noteHighLimit": 127,
              "rtr": "PITCH_SHIFT"
            },
            "ctb2High": null,
            "ctb2MiddleLowPitch": 0,
            "ctb2MiddleHighPitch": 127
          },
          "notes": [
            {
              "pitch": 33,
              "velocity": 86,
              "position": 0,
              "duration": 0.00625
            }
          ]
        },
        "10": {
          "ctab": {
            "srcChannel": 10,
            "name": "Bass A",
            "accType": "BASS",
            "editable": false,
            "mutedNotes": [],
            "mutedChords": [
              "7aug",
              "dim",
              "minMaj7(9)",
              "minMaj7",
              "min(9)",
              "m7b5",
              "min",
              "aug"
            ],
            "autoStart": false,
            "sourceChordNote": 0,
            "sourceChordType": "Maj7",
            "ctb2Low": null,
            "ctb2Main": {
              "ntr": "ROOT_TRANSPOSITION",
              "ntt": "MELODY",
              "bassOn": true,
              "chordRootUpperLimit": 8,
              "noteLowLimit": 28,
              "noteHighLimit": 127,
              "rtr": "PITCH_SHIFT_TO_ROOT"
            },
            "ctb2High": null,
            "ctb2MiddleLowPitch": 0,
            "ctb2MiddleHighPitch": 127
          },
          "notes": [
            {
              "pitch": 24,
              "velocity": 70,
              "position": 0,
              "duration": 3.65
            }
          ]
        },
        "11": {
          "ctab": {
            "srcChannel": 11,
            "name": "SolidGtr",
            "accType": "CHORD1",
            "editable": false,
            "mutedNotes": [],
            "mutedChords": [],
            "autoStart": false,
            "sourceChordNote": 0,
            "sourceChordType": "Maj7",
            "ctb2Low": null,
            "ctb2Main": {
              "ntr": "GUITAR",
              "ntt": "ALL_PURPOSE",
              "bassOn": false,
              "chordRootUpperLimit": 7,
              "noteLowLimit": 0,
              "noteHighLimit": 79,
              "rtr": "PITCH_SHIFT"
            },
            "ctb2High": null,
            "ctb2MiddleLowPitch": 0,
            "ctb2MiddleHighPitch": 127
          },
          "notes": [
            {
              "pitch": 100,
              "velocity": 88,
              "position": 0,
              "duration": 0.19166666666666668
            },
            {
              "pitch": 71,
              "velocity": 58,
              "position": 0.010416666666666666,
              "duration": 3.629166666666667
            },
            {
              "pitch": 69,
              "velocity": 58,
              "position": 0.010416666666666666,
              "duration": 3.629166666666667
            },
            {
              "pitch": 67,
              "velocity": 58,
              "position": 0,
              "duration": 3.6395833333333334
            },
            {
              "pitch": 65,
              "velocity": 58,
              "position": 0,
              "duration": 3.65
            }
          ]
        },
        "12": {
          "ctab": {
            "srcChannel": 12,
            "name": "Pno RH",
            "accType": "CHORD2",
            "editable": false,
            "mutedNotes": [],
            "mutedChords": [
              "min",
              "Maj"
            ],
            "autoStart": false,
            "sourceChordNote": 0,
            "sourceChordType": "Maj7",
            "ctb2Low": null,
            "ctb2Main": {
              "ntr": "ROOT_FIXED",
              "ntt": "CHORD",
              "bassOn": false,
              "chordRootUpperLimit": 7,
              "noteLowLimit": 0,
              "noteHighLimit": 127,
              "rtr": "PITCH_SHIFT"
            },
            "ctb2High": null,
            "ctb2MiddleLowPitch": 0,
            "ctb2MiddleHighPitch": 127
          },
          "notes": [
            {
              "pitch": 55,
              "velocity": 84,
              "position": 0,
              "duration": 3.6625
            },
            {
              "pitch": 64,
              "velocity": 84,
              "position": 0,
              "duration": 3.6625
            },
            {
              "pitch": 59,
              "velocity": 84,
              "position": 0,
              "duration": 3.6625
            }
          ]
        },
        "13": {
          "ctab": {
            "srcChannel": 13,
            "name": "Organ1",
            "accType": "PAD",
            "editable": false,
            "mutedNotes": [],
            "mutedChords": [],
            "autoStart": false,
            "sourceChordNote": 0,
            "sourceChordType": "Maj7",
            "ctb2Low": null,
            "ctb2Main": {
              "ntr": "ROOT_FIXED",
              "ntt": "CHORD",
              "bassOn": false,
              "chordRootUpperLimit": 7,
              "noteLowLimit": 0,
              "noteHighLimit": 127,
              "rtr": "PITCH_SHIFT"
            },
            "ctb2High": null,
            "ctb2MiddleLowPitch": 0,
            "ctb2MiddleHighPitch": 127
          },
          "notes": [
            {
              "pitch": 67,
              "velocity": 50,
              "position": 0,
              "duration": 0.9604166666666667
            },
            {
              "pitch": 76,
              "velocity": 50,
              "position": 0,
              "duration": 0.9604166666666667
            },
            {
              "pitch": 71,
              "velocity": 50,
              "position": 0,
              "duration": 0.9604166666666667
            },
            {
              "pitch": 67,
              "velocity": 50,
              "position": 1,
              "duration": 0.49166666666666664
            },
            {
              "pitch": 76,
              "velocity": 50,
              "position": 1,
              "duration": 0.49166666666666664
            },
            {
              "pitch": 71,
              "velocity": 50,
              "position": 1,
              "duration": 0.49166666666666664
            }
          ]
        },
        "14": {
          "ctab": {
            "srcChannel": 14,
            "name": "Tele",
            "accType": "PHRASE1",
            "editable": false,
            "mutedNotes": [],
            "mutedChords": [
              "min",
              "Maj"
            ],
            "autoStart": false,
            "sourceChordNote": 0,
            "sourceChordType": "Maj7",
            "ctb2Low": null,
            "ctb2Main": {
              "ntr": "ROOT_TRANSPOSITION",
              "ntt": "MELODY",
              "bassOn": false,
              "chordRootUpperLimit": 4,
              "noteLowLimit": 0,
              "noteHighLimit": 127,
              "rtr": "PITCH_SHIFT"
            },
            "ctb2High": {
              "ntr": "ROOT_FIXED",
              "ntt": "BYPASS",
              "bassOn": false,
              "chordRootUpperLimit": 4,
              "noteLowLimit": 0,
              "noteHighLimit": 127,
              "rtr": "PITCH_SHIFT"
            },
            "ctb2MiddleLowPitch": 0,
            "ctb2MiddleHighPitch": 95
          },
          "notes": [
            {
              "pitch": 64,
              "velocity": 116,
              "position": 0,
              "duration": 3.65
            }
          ]
        },
        "15": {
          "ctab": {
            "srcChannel": 15,
            "name": "E.P",
            "accType": "PHRASE2",
            "editable": false,
            "mutedNotes": [],
            "mutedChords": [
              "min",
              "Maj"
            ],
            "autoStart": false,
            "sourceChordNote": 0,
            "sourceChordType": "Maj7",
            "ctb2Low": null,
            "ctb2Main": {
              "ntr": "ROOT_FIXED",
              "ntt": "CHORD",
              "bassOn": false,
              "chordRootUpperLimit": 7,
              "noteLowLimit": 0,
              "noteHighLimit": 127,
              "rtr": "PITCH_SHIFT"
            },
            "ctb2High": null,
            "ctb2MiddleLowPitch": 0,
            "ctb2MiddleHighPitch": 127
          },
          "notes": [
            {
              "pitch": 55,
              "velocity": 77,
              "position": 0,
              "duration": 3.65
            },
            {
              "pitch": 64,
              "velocity": 77,
              "position": 0,
              "duration": 3.65
            },
            {
              "pitch": 59,
              "velocity": 77,
              "position": 0,
              "duration": 3.65
            }
          ]
        }
      }
    },
    "Fill_In_BA": {
      "type": "Fill_In_BA",
      "sizeInBeats": 4,
      "channels": {
        "0": {
          "ctab": {
            "srcChannel": 0,
            "name": "Pno LH",
            "accType": "CHORD2",
            "editable": false,
            "mutedNotes": [],
            "mutedChords": [],
            "autoStart": false,
            "sourceChordNote": 0,
            "sourceChordType": "Maj7",
            "ctb2Low": null,
            "ctb2Main": {
              "ntr": "ROOT_TRANSPOSITION",
              "ntt": "MELODY",
              "bassOn": true,
              "chordRootUpperLimit": 8,
              "noteLowLimit": 0,
              "noteHighLimit": 127,
              "rtr": "PITCH_SHIFT_TO_ROOT"
            },
            "ctb2High": null,
            "ctb2MiddleLowPitch": 0,
            "ctb2MiddleHighPitch": 127
          },
          "notes": [
            {
              "pitch": 36,
              "velocity": 99,
              "position": 0,
              "duration": 0.31875
            },
            {
              "pitch": 36,
              "velocity": 53,
              "position": 0.3333333333333333,
              "duration": 0.31875
            },
            {
              "pitch": 36,
              "velocity": 77,
              "position": 0.6666666666666666,
              "duration": 0.31875
            },
            {
              "pitch": 36,
              "velocity": 99,
              "position": 1,
              "duration": 0.31875
            }
          ]
        },
        "1": {
          "ctab": {
            "srcChannel": 1,
            "name": "Bass B",
            "accType": "BASS",
            "editable": false,
            "mutedNotes": [],
            "mutedChords": [
              "1+2+5",
              "sus4",
              "1+5",
              "1+8",
              "Maj7aug",
              "7(#9)",
              "7(b13)",
              "7(b9)",
              "7(13)",
              "7#11",
              "7(9)",
              "7b5",
              "7sus4",
              "7th",
              "dim7",
              "min7(11)",
              "min7(9)",
              "min7",
              "min6",
              "Maj6(9)",
              "Maj7(9)",
              "Maj(9)",
              "Maj7#11",
              "Maj7",
              "Maj6",
              "Maj"
            ],
            "autoStart": false,
            "sourceChordNote": 0,
            "sourceChordType": "Maj7",
            "ctb2Low": null,
            "ctb2Main": {
              "ntr": "ROOT_TRANSPOSITION",
              "ntt": "MELODY",
              "bassOn": true,
              "chordRootUpperLimit": 8,
              "noteLowLimit": 28,
              "noteHighLimit": 127,
              "rtr": "PITCH_SHIFT_TO_ROOT"
            },
            "ctb2High": null,
            "ctb2MiddleLowPitch": 0,
            "ctb2MiddleHighPitch": 127
          },
          "notes": [
            {
              "pitch": 24,
              "velocity": 70,
              "position": 0,
              "duration": 0.30625
            },
            {
              "pitch": 24,
              "velocity": 59,
              "position": 0.3333333333333333,
              "duration": 0.30625
            },
            {
              "pitch": 24,
              "velocity": 59,
              "position": 0.6666666666666666,
              "duration": 0.30625
            },
            {
              "pitch": 24,
              "velocity": 70,
              "position": 1,
              "duration": 0.30625
            }
          ]
        },
        "3": {
          "ctab": {
            "srcChannel": 3,
            "name": "Pno RH S",
            "accType": "CHORD2",
            "editable": false,
            "mutedNotes": [],
            "mutedChords": [
              "1+2+5",
              "sus4",
              "1+5",
              "1+8",
              "7aug",
              "Maj7aug",
              "7(#9)",
              "7(b13)",
              "7(b9)",
              "7(13)",
              "7#11",
              "7(9)",
              "7b5",
              "7sus4",
              "7th",
              "dim7",
              "dim",
              "minMaj7(9)",
              "minMaj7",
              "min7(11)",
              "min7(9)",
              "min(9)",
              "m7b5",
              "min7",
              "min6",
              "aug",
              "Maj6(9)",
              "Maj7(9)",
              "Maj(9)",
              "Maj7#11",
              "Maj7",
              "Maj6"
            ],
            "autoStart": false,
            "sourceChordNote": 0,
            "sourceChordType": "Maj7",
            "ctb2Low": null,
            "ctb2Main": {
              "ntr": "ROOT_TRANSPOSITION",
              "ntt": "DORIAN_5",
              "bassOn": false,
              "chordRootUpperLimit": 11,
              "noteLowLimit": 58,
              "noteHighLimit": 127,
              "rtr": "PITCH_SHIFT"
            },
            "ctb2High": null,
            "ctb2MiddleLowPitch": 0,
            "ctb2MiddleHighPitch": 127
          },
          "notes": [
            {
              "pitch": 46,
              "velocity": 78,
              "position": 0,
              "duration": 0.31875
            },
            {
              "pitch": 55,
              "velocity": 71,
              "position": 0,
              "duration": 0.31875
            },
            {
              "pitch": 52,
              "velocity": 71,
              "position": 0,
              "duration": 0.31875
            },
            {
              "pitch": 48,
              "velocity": 78,
              "position": 0,
              "duration": 0.31875
            },
            {
              "pitch": 46,
              "velocity": 50,
              "position": 0.3333333333333333,
              "duration": 0.31875
            },
            {
              "pitch": 55,
              "velocity": 60,
              "position": 0.3333333333333333,
              "duration": 0.31875
            },
            {
              "pitch": 52,
              "velocity": 58,
              "position": 0.3333333333333333,
              "duration": 0.31875
            },
            {
              "pitch": 48,
              "velocity": 50,
              "position": 0.3333333333333333,
              "duration": 0.31875
            },
            {
              "pitch": 48,
              "velocity": 73,
              "position": 0.6666666666666666,
              "duration": 0.31875
            },
            {
              "pitch": 57,
              "velocity": 67,
              "position": 0.6666666666666666,
              "duration": 0.31875
            },
            {
              "pitch": 53,
              "velocity": 67,
              "position": 0.6666666666666666,
              "duration": 0.31875
            },
            {
              "pitch": 46,
              "velocity": 85,
              "position": 1,
              "duration": 0.31875
            },
            {
              "pitch": 55,
              "velocity": 72,
              "position": 1,
              "duration": 0.31875
            },
            {
              "pitch": 52,
              "velocity": 80,
              "position": 1,
              "duration": 0.31875
            },
            {
              "pitch": 48,
              "velocity": 85,
              "position": 1,
              "duration": 0.31875
            }
          ]
        },
        "4": {
          "ctab": {
            "srcChannel": 4,
            "name": "Org S",
            "accType": "PAD",
            "editable": false,
            "mutedNotes": [],
            "mutedChords": [
              "1+2+5",
              "sus4",
              "1+5",
              "1+8",
              "7aug",
              "Maj7aug",
              "7(#9)",
              "7(b13)",
              "7(b9)",
              "7(13)",
              "7#11",
              "7(9)",
              "7b5",
              "7sus4",
              "7th",
              "dim7",
              "dim",
              "minMaj7(9)",
              "minMaj7",
              "min7(11)",
              "min7(9)",
              "min(9)",
              "m7b5",
              "min7",
              "min6",
              "aug",
              "Maj6(9)",
              "Maj7(9)",
              "Maj(9)",
              "Maj7#11",
              "Maj7",
              "Maj6"
            ],
            "autoStart": false,
            "sourceChordNote": 0,
            "sourceChordType": "Maj7",
            "ctb2Low": null,
            "ctb2Main": {
              "ntr": "ROOT_TRANSPOSITION",
              "ntt": "DORIAN_5",
              "bassOn": false,
              "chordRootUpperLimit": 5,
              "noteLowLimit": 58,
              "noteHighLimit": 127,
              "rtr": "PITCH_SHIFT"
            },
            "ctb2High": null,
            "ctb2MiddleLowPitch": 0,
            "ctb2MiddleHighPitch": 127
          },
          "notes": [
            {
              "pitch": 64,
              "velocity": 86,
              "position": 1.1625,
              "duration": 0.42291666666666666
            },
            {
              "pitch": 72,
              "velocity": 86,
              "position": 1.1625,
              "duration": 0.42291666666666666
            },
            {
              "pitch": 70,
              "velocity": 86,
              "position": 1.1625,
              "duration": 0.42291666666666666
            },
            {
              "pitch": 64,
              "velocity": 86,
              "position": 1.6229166666666666,
              "duration": 2.345833333333333
            },
            {
              "pitch": 72,
              "velocity": 86,
              "position": 1.6229166666666666,
              "duration": 2.345833333333333
            },
            {
              "pitch": 70,
              "velocity": 86,
              "position": 1.6229166666666666,
              "duration": 2.345833333333333
            }
          ]
        },
        "5": {
          "ctab": {
            "srcChannel": 5,
            "name": "Tele S M",
            "accType": "PHRASE1",
            "editable": false,
            "mutedNotes": [],
            "mutedChords": [
              "1+2+5",
              "sus4",
              "1+5",
              "1+8",
              "7aug",
              "Maj7aug",
              "7(#9)",
              "7(b13)",
              "7(b9)",
              "7(13)",
              "7#11",
              "7(9)",
              "7b5",
              "7sus4",
              "7th",
              "dim7",
              "dim",
              "minMaj7(9)",
              "minMaj7",
              "min7(11)",
              "min7(9)",
              "min(9)",
              "m7b5",
              "min7",
              "min6",
              "min",
              "aug",
              "Maj6(9)",
              "Maj7(9)",
              "Maj(9)",
              "Maj7#11",
              "Maj7",
              "Maj6"
            ],
            "autoStart": false,
            "sourceChordNote": 0,
            "sourceChordType": "Maj7",
            "ctb2Low": null,
            "ctb2Main": {
              "ntr": "ROOT_TRANSPOSITION",
              "ntt": "DORIAN_5",
              "bassOn": false,
              "chordRootUpperLimit": 4,
              "noteLowLimit": 0,
              "noteHighLimit": 127,
              "rtr": "PITCH_SHIFT"
            },
            "ctb2High": {
              "ntr": "ROOT_FIXED",
              "ntt": "BYPASS",
              "bassOn": false,
              "chordRootUpperLimit": 4,
              "noteLowLimit": 0,
              "noteHighLimit": 127,
              "rtr": "PITCH_SHIFT"
            },
            "ctb2MiddleLowPitch": 0,
            "ctb2MiddleHighPitch": 95
          },
          "notes": [
            {
              "pitch": 64,
              "velocity": 116,
              "position": 0,
              "duration": 0.30625
            },
            {
              "pitch": 65,
              "velocity": 36,
              "position": 0.3333333333333333,
              "duration": 0.30625
            },
            {
              "pitch": 72,
              "velocity": 36,
              "position": 0.3333333333333333,
              "duration": 0.30625
            },
            {
              "pitch": 65,
              "velocity": 22,
              "position": 0.6666666666666666,
              "duration": 0.30625
            },
            {
              "pitch": 72,
              "velocity": 22,
              "position": 0.6666666666666666,
              "duration": 0.30625
            },
            {
              "pitch": 72,
              "velocity": 36,
              "position": 1,
              "duration": 0.26458333333333334
            },
            {
              "pitch": 64,
              "velocity": 116,
              "position": 1,
              "duration": 0.30625
            },
            {
              "pitch": 126,
              "velocity": 60,
              "position": 1.2,
              "duration": 1.0145833333333334
            }
          ]
        },
        "6": {
          "ctab": {
            "srcChannel": 6,
            "name": "E.P  S",
            "accType": "PHRASE2",
            "editable": false,
            "mutedNotes": [],
            "mutedChords": [
              "1+2+5",
              "sus4",
              "1+5",
              "1+8",
              "7aug",
              "Maj7aug",
              "7(#9)",
              "7(b13)",
              "7(b9)",
              "7(13)",
              "7#11",
              "7(9)",
              "7b5",
              "7sus4",
              "7th",
              "dim7",
              "dim",
              "minMaj7(9)",
              "minMaj7",
              "min7(11)",
              "min7(9)",
              "min(9)",
              "m7b5",
              "min7",
              "min6",
              "aug",
              "Maj6(9)",
              "Maj7(9)",
              "Maj(9)",
              "Maj7#11",
              "Maj7",
              "Maj6"
            ],
            "autoStart": false,
            "sourceChordNote": 0,
            "sourceChordType": "Maj7",
            "ctb2Low": null,
            "ctb2Main": {
              "ntr": "ROOT_TRANSPOSITION",
              "ntt": "DORIAN_5",
              "bassOn": false,
              "chordRootUpperLimit": 4,
              "noteLowLimit": 0,
              "noteHighLimit": 127,
              "rtr": "PITCH_SHIFT"
            },
            "ctb2High": null,
            "ctb2MiddleLowPitch": 0,
            "ctb2MiddleHighPitch": 127
          },
          "notes": [
            {
              "pitch": 60,
              "velocity": 53,
              "position": 0,
              "duration": 0.5270833333333333
            },
            {
              "pitch": 67,
              "velocity": 48,
              "position": 0,
              "duration": 0.6395833333333333
            },
            {
              "pitch": 64,
              "velocity": 53,
              "position": 0,
              "duration": 0.6395833333333333
            },
            {
              "pitch": 60,
              "velocity": 55,
              "position": 0.5520833333333334,
              "duration": 0.30625
            },
            {
              "pitch": 69,
              "velocity": 76,
              "position": 0.6666666666666666,
              "duration": 0.30625
            },
            {
              "pitch": 65,
              "velocity": 79,
              "position": 0.6666666666666666,
              "duration": 0.30625
            },
            {
              "pitch": 66,
              "velocity": 92,
              "position": 1,
              "duration": 0.00625
            },
            {
              "pitch": 70,
              "velocity": 107,
              "position": 1,
              "duration": 0.30625
            },
            {
              "pitch": 67,
              "velocity": 95,
              "position": 1.0208333333333333,
              "duration": 0.28541666666666665
            },
            {
              "pitch": 60,
              "velocity": 59,
              "position": 0.8854166666666666,
              "duration": 0.42083333333333334
            }
          ]
        },
        "7": {
          "ctab": {
            "srcChannel": 7,
            "name": "Tele S m",
            "accType": "PHRASE1",
            "editable": false,
            "mutedNotes": [],
            "mutedChords": [
              "1+2+5",
              "sus4",
              "1+5",
              "1+8",
              "7aug",
              "Maj7aug",
              "7(#9)",
              "7(b13)",
              "7(b9)",
              "7(13)",
              "7#11",
              "7(9)",
              "7b5",
              "7sus4",
              "7th",
              "dim7",
              "dim",
              "minMaj7(9)",
              "minMaj7",
              "min7(11)",
              "min7(9)",
              "min(9)",
              "m7b5",
              "min7",
              "min6",
              "aug",
              "Maj6(9)",
              "Maj7(9)",
              "Maj(9)",
              "Maj7#11",
              "Maj7",
              "Maj6",
              "Maj"
            ],
            "autoStart": false,
            "sourceChordNote": 0,
            "sourceChordType": "Maj7",
            "ctb2Low": null,
            "ctb2Main": {
              "ntr": "ROOT_TRANSPOSITION",
              "ntt": "DORIAN_5",
              "bassOn": false,
              "chordRootUpperLimit": 4,
              "noteLowLimit": 0,
              "noteHighLimit": 127,
              "rtr": "PITCH_SHIFT"
            },
            "ctb2High": {
              "ntr": "ROOT_FIXED",
              "ntt": "BYPASS",
              "bassOn": false,
              "chordRootUpperLimit": 4,
              "noteLowLimit": 0,
              "noteHighLimit": 127,
              "rtr": "PITCH_SHIFT"
            },
            "ctb2MiddleLowPitch": 0,
            "ctb2MiddleHighPitch": 95
          },
          "notes": [
            {
              "pitch": 64,
              "velocity": 116,
              "position": 0,
              "duration": 0.30625
            },
            {
              "pitch": 65,
              "velocity": 36,
              "position": 0.3333333333333333,
              "duration": 0.30625
            },
            {
              "pitch": 72,
              "velocity": 36,
              "position": 0.3333333333333333,
              "duration": 0.30625
            },
            {
              "pitch": 65,
              "velocity": 22,
              "position": 0.6666666666666666,
              "duration": 0.30625
            },
            {
              "pitch": 72,
              "velocity": 22,
              "position": 0.6666666666666666,
              "duration": 0.30625
            },
            {
              "pitch": 72,
              "velocity": 36,
              "position": 1,
              "duration": 0.26458333333333334
            },
            {
              "pitch": 64,
              "velocity": 116,
              "position": 1,
              "duration": 0.30625
            },
            {
              "pitch": 126,
              "velocity": 60,
              "position": 1.2,
              "duration": 1.0145833333333334
            }
          ]
        },
        "8": {
          "ctab": {
            "srcChannel": 8,
            "name": "AddDrum",
            "accType": "SUBRHYTHM",
            "editable": false,
            "mutedNotes": [],
            "mutedChords": [],
            "autoStart": true,
            "sourceChordNote": 0,
            "sourceChordType": "Maj7",
            "ctb2Low": null,
            "ctb2Main": {
              "ntr": "ROOT_FIXED",
              "ntt": "BYPASS",
              "bassOn": false,
              "chordRootUpperLimit": 6,
              "noteLowLimit": 0,
              "noteHighLimit": 127,
              "rtr": "PITCH_SHIFT"
            },
            "ctb2High": null,
            "ctb2MiddleLowPitch": 0,
            "ctb2MiddleHighPitch": 127
          },
          "notes": [
            {
              "pitch": 54,
              "velocity": 36,
              "position": 0,
              "duration": 0.00625
            },
            {
              "pitch": 54,
              "velocity": 9,
              "position": 0.21875,
              "duration": 0.00625
            },
            {
              "pitch": 54,
              "velocity": 25,
              "position": 0.3333333333333333,
              "duration": 0.00625
            },
            {
              "pitch": 54,
              "velocity": 24,
              "position": 0.5520833333333334,
              "duration": 0.00625
            },
            {
              "pitch": 54,
              "velocity": 26,
              "position": 0.6666666666666666,
              "duration": 0.00625
            },
            {
              "pitch": 54,
              "velocity": 8,
              "position": 0.8854166666666666,
              "duration": 0.00625
            },
            {
              "pitch": 54,
              "velocity": 90,
              "position": 1,
              "duration": 0.00625
            }
          ]
        },
        "9": {
          "ctab": {
            "srcChannel": 9,
            "name": "MainDrum",
            "accType": "RHYTHM",
            "editable": false,
            "mutedNotes": [],
            "mutedChords": [],
            "autoStart": true,
            "sourceChordNote": 0,
            "sourceChordType": "Maj7",
            "ctb2Low": null,
            "ctb2Main": {
              "ntr": "ROOT_FIXED",
              "ntt": "BYPASS",
              "bassOn": false,
              "chordRootUpperLimit": 6,
              "noteLowLimit": 0,
              "noteHighLimit": 127,
              "rtr": "PITCH_SHIFT"
            },
            "ctb2High": null,
            "ctb2MiddleLowPitch": 0,
            "ctb2MiddleHighPitch": 127
          },
          "notes": [
            {
              "pitch": 33,
              "velocity": 86,
              "position": 0,
              "duration": 0.00625
            },
            {
              "pitch": 51,
              "velocity": 82,
              "position": 0,
              "duration": 0.00625
            },
            {
              "pitch": 31,
              "velocity": 80,
              "position": 0.21875,
              "duration": 0.00625
            },
            {
              "pitch": 44,
              "velocity": 40,
              "position": 0.3333333333333333,
              "duration": 0.00625
            },
            {
              "pitch": 31,
              "velocity": 23,
              "position": 0.4375,
              "duration": 0.00625
            },
            {
              "pitch": 33,
              "velocity": 64,
              "position": 0.5520833333333334,
              "duration": 0.00625
            },
            {
              "pitch": 44,
              "velocity": 60,
              "position": 0.6666666666666666,
              "duration": 0.00625
            },
            {
              "pitch": 31,
              "velocity": 28,
              "position": 0.7708333333333334,
              "duration": 0.00625
            },
            {
              "pitch": 33,
              "velocity": 64,
              "position": 0.8854166666666666,
              "duration": 0.00625
            },
            {
              "pitch": 31,
              "velocity": 106,
              "position": 1,
              "duration": 0.00625
            },
            {
              "pitch": 46,
              "velocity": 76,
              "position": 1,
              "duration": 0.00625
            },
            {
              "pitch": 33,
              "velocity": 86,
              "position": 1,
              "duration": 0.00625
            },
            {
              "pitch": 44,
              "velocity": 40,
              "position": 1.3333333333333333,
              "duration": 0.00625
            },
            {
              "pitch": 31,
              "velocity": 18,
              "position": 1.4375,
              "duration": 0.00625
            },
            {
              "pitch": 31,
              "velocity": 28,
              "position": 1.5520833333333333,
              "duration": 0.00625
            },
            {
              "pitch": 31,
              "velocity": 18,
              "position": 1.6041666666666667,
              "duration": 0.00625
            },
            {
              "pitch": 44,
              "velocity": 58,
              "position": 1.6666666666666667,
              "duration": 0.00625
            },
            {
              "pitch": 31,
              "velocity": 18,
              "position": 1.7708333333333333,
              "duration": 0.00625
            },
            {
              "pitch": 33,
              "velocity": 64,
              "position": 1.8854166666666667,
              "duration": 0.00625
            },
            {
              "pitch": 47,
              "velocity": 52,
              "position": 2,
              "duration": 0.00625
            },
            {
              "pitch": 48,
              "velocity": 92,
              "position": 2.0208333333333335,
              "duration": 0.00625
            },
            {
              "pitch": 31,
              "velocity": 18,
              "position": 2.1041666666666665,
              "duration": 0.00625
            },
            {
              "pitch": 31,
              "velocity": 28,
              "position": 2.21875,
              "duration": 0.00625
            },
            {
              "pitch": 31,
              "velocity": 18,
              "position": 2.2708333333333335,
              "duration": 0.00625
            },
            {
              "pitch": 44,
              "velocity": 40,
              "position": 2.3333333333333335,
              "duration": 0.00625
            },
            {
              "pitch": 31,
              "velocity": 18,
              "position": 2.4375,
              "duration": 0.00625
            },
            {
              "pitch": 45,
              "velocity": 48,
              "position": 2.5520833333333335,
              "duration": 0.00625
            },
            {
              "pitch": 44,
              "velocity": 58,
              "position": 2.6666666666666665,
              "duration": 0.00625
            },
            {
              "pitch": 31,
              "velocity": 18,
              "position": 2.7708333333333335,
              "duration": 0.00625
            },
            {
              "pitch": 33,
              "velocity": 70,
              "position": 2.8854166666666665,
              "duration": 0.00625
            },
            {
              "pitch": 41,
              "velocity": 82,
              "position": 3,
              "duration": 0.00625
            },
            {
              "pitch": 31,
              "velocity": 18,
              "position": 3.1041666666666665,
              "duration": 0.00625
            },
            {
              "pitch": 33,
              "velocity": 67,
              "position": 3.21875,
              "duration": 0.00625
            },
            {
              "pitch": 44,
              "velocity": 40,
              "position": 3.3333333333333335,
              "duration": 0.00625
            },
            {
              "pitch": 31,
              "velocity": 22,
              "position": 3.4375,
              "duration": 0.00625
            },
            {
              "pitch": 31,
              "velocity": 80,
              "position": 3.5520833333333335,
              "duration": 0.00625
            },
            {
              "pitch": 31,
              "velocity": 112,
              "position": 3.6666666666666665,
              "duration": 0.00625
            },
            {
              "pitch": 44,
              "velocity": 60,
              "position": 3.6666666666666665,
              "duration": 0.00625
            },
            {
              "pitch": 49,
              "velocity": 72,
              "position": 3.9895833333333335,
              "duration": 0.00625
            }
          ]
        },
        "10": {
          "ctab": {
            "srcChannel": 10,
            "name": "Bass A",
            "accType": "BASS",
            "editable": false,
            "mutedNotes": [],
            "mutedChords": [
              "7aug",
              "dim",
              "minMaj7(9)",
              "minMaj7",
              "min(9)",
              "m7b5",
              "min",
              "aug"
            ],
            "autoStart": false,
            "sourceChordNote": 0,
            "sourceChordType": "Maj7",
            "ctb2Low": null,
            "ctb2Main": {
              "ntr": "ROOT_TRANSPOSITION",
              "ntt": "MELODY",
              "bassOn": true,
              "chordRootUpperLimit": 8,
              "noteLowLimit": 28,
              "noteHighLimit": 127,
              "rtr": "PITCH_SHIFT_TO_ROOT"
            },
            "ctb2High": null,
            "ctb2MiddleLowPitch": 0,
            "ctb2MiddleHighPitch": 127
          },
          "notes": [
            {
              "pitch": 24,
              "velocity": 70,
              "position": 0,
              "duration": 0.30625
            },
            {
              "pitch": 24,
              "velocity": 59,
              "position": 0.3333333333333333,
              "duration": 0.30625
            },
            {
              "pitch": 24,
              "velocity": 59,
              "position": 0.6666666666666666,
              "duration": 0.30625
            },
            {
              "pitch": 24,
              "velocity": 70,
              "position": 1,
              "duration": 0.30625
            }
          ]
        },
        "11": {
          "ctab": {
            "srcChannel": 11,
            "name": "SolidGtr",
            "accType": "CHORD1",
            "editable": false,
            "mutedNotes": [],
            "mutedChords": [],
            "autoStart": false,
            "sourceChordNote": 0,
            "sourceChordType": "Maj7",
            "ctb2Low": null,
            "ctb2Main": {
              "ntr": "GUITAR",
              "ntt": "ALL_PURPOSE",
              "bassOn": false,
              "chordRootUpperLimit": 7,
              "noteLowLimit": 0,
              "noteHighLimit": 79,
              "rtr": "PITCH_SHIFT"
            },
            "ctb2High": null,
            "ctb2MiddleLowPitch": 0,
            "ctb2MiddleHighPitch": 127
          },
          "notes": [
            {
              "pitch": 100,
              "velocity": 80,
              "position": 0,
              "duration": 0.19166666666666668
            },
            {
              "pitch": 65,
              "velocity": 50,
              "position": 0,
              "duration": 0.30625
            },
            {
              "pitch": 67,
              "velocity": 50,
              "position": 0,
              "duration": 0.30833333333333335
            },
            {
              "pitch": 69,
              "velocity": 50,
              "position": 0.010416666666666666,
              "duration": 0.30625
            },
            {
              "pitch": 71,
              "velocity": 50,
              "position": 0.020833333333333332,
              "duration": 0.30625
            },
            {
              "pitch": 106,
              "velocity": 40,
              "position": 0.3333333333333333,
              "duration": 0.19166666666666668
            },
            {
              "pitch": 65,
              "velocity": 30,
              "position": 0.3333333333333333,
              "duration": 0.30625
            },
            {
              "pitch": 67,
              "velocity": 30,
              "position": 0.3333333333333333,
              "duration": 0.30833333333333335
            },
            {
              "pitch": 69,
              "velocity": 30,
              "position": 0.34375,
              "duration": 0.30625
            },
            {
              "pitch": 71,
              "velocity": 30,
              "position": 0.3541666666666667,
              "duration": 0.30625
            },
            {
              "pitch": 98,
              "velocity": 60,
              "position": 0.6666666666666666,
              "duration": 0.19166666666666668
            },
            {
              "pitch": 65,
              "velocity": 45,
              "position": 0.6666666666666666,
              "duration": 0.30625
            },
            {
              "pitch": 67,
              "velocity": 45,
              "position": 0.6666666666666666,
              "duration": 0.30833333333333335
            },
            {
              "pitch": 69,
              "velocity": 45,
              "position": 0.6770833333333334,
              "duration": 0.30625
            },
            {
              "pitch": 71,
              "velocity": 45,
              "position": 0.6875,
              "duration": 0.30625
            },
            {
              "pitch": 65,
              "velocity": 60,
              "position": 1,
              "duration": 0.035416666666666666
            },
            {
              "pitch": 67,
              "velocity": 60,
              "position": 1,
              "duration": 0.035416666666666666
            },
            {
              "pitch": 69,
              "velocity": 60,
              "position": 1.0104166666666667,
              "duration": 0.035416666666666666
            },
            {
              "pitch": 71,
              "velocity": 60,
              "position": 1.0208333333333333,
              "duration": 0.035416666666666666
            },
            {
              "pitch": 100,
              "velocity": 90,
              "position": 1,
              "duration": 0.19166666666666668
            }
          ]
        },
        "12": {
          "ctab": {
            "srcChannel": 12,
            "name": "Pno RH",
            "accType": "CHORD2",
            "editable": false,
            "mutedNotes": [],
            "mutedChords": [
              "min",
              "Maj"
            ],
            "autoStart": false,
            "sourceChordNote": 0,
            "sourceChordType": "Maj7",
            "ctb2Low": null,
            "ctb2Main": {
              "ntr": "ROOT_FIXED",
              "ntt": "CHORD",
              "bassOn": false,
              "chordRootUpperLimit": 7,
              "noteLowLimit": 0,
              "noteHighLimit": 127,
              "rtr": "PITCH_SHIFT"
            },
            "ctb2High": null,
            "ctb2MiddleLowPitch": 0,
            "ctb2MiddleHighPitch": 127
          },
          "notes": [
            {
              "pitch": 64,
              "velocity": 71,
              "position": 0,
              "duration": 0.31875
            },
            {
              "pitch": 71,
              "velocity": 78,
              "position": 0,
              "duration": 0.31875
            },
            {
              "pitch": 67,
              "velocity": 71,
              "position": 0,
              "duration": 0.31875
            },
            {
              "pitch": 64,
              "velocity": 58,
              "position": 0.3333333333333333,
              "duration": 0.31875
            },
            {
              "pitch": 71,
              "velocity": 50,
              "position": 0.3333333333333333,
              "duration": 0.31875
            },
            {
              "pitch": 67,
              "velocity": 60,
              "position": 0.3333333333333333,
              "duration": 0.31875
            },
            {
              "pitch": 64,
              "velocity": 67,
              "position": 0.6666666666666666,
              "duration": 0.31875
            },
            {
              "pitch": 71,
              "velocity": 73,
              "position": 0.6666666666666666,
              "duration": 0.31875
            },
            {
              "pitch": 67,
              "velocity": 67,
              "position": 0.6666666666666666,
              "duration": 0.31875
            },
            {
              "pitch": 64,
              "velocity": 80,
              "position": 1,
              "duration": 0.31875
            },
            {
              "pitch": 71,
              "velocity": 85,
              "position": 1,
              "duration": 0.31875
            },
            {
              "pitch": 67,
              "velocity": 72,
              "position": 1,
              "duration": 0.31875
            }
          ]
        },
        "13": {
          "ctab": {
            "srcChannel": 13,
            "name": "Org",
            "accType": "PAD",
            "editable": false,
            "mutedNotes": [],
            "mutedChords": [
              "min",
              "Maj"
            ],
            "autoStart": false,
            "sourceChordNote": 0,
            "sourceChordType": "Maj7",
            "ctb2Low": null,
            "ctb2Main": {
              "ntr": "ROOT_FIXED",
              "ntt": "CHORD",
              "bassOn": false,
              "chordRootUpperLimit": 7,
              "noteLowLimit": 0,
              "noteHighLimit": 127,
              "rtr": "PITCH_SHIFT"
            },
            "ctb2High": null,
            "ctb2MiddleLowPitch": 0,
            "ctb2MiddleHighPitch": 127
          },
          "notes": [
            {
              "pitch": 64,
              "velocity": 86,
              "position": 1.1625,
              "duration": 0.42291666666666666
            },
            {
              "pitch": 71,
              "velocity": 86,
              "position": 1.1625,
              "duration": 0.42291666666666666
            },
            {
              "pitch": 67,
              "velocity": 86,
              "position": 1.1625,
              "duration": 0.42291666666666666
            },
            {
              "pitch": 64,
              "velocity": 86,
              "position": 1.6229166666666666,
              "duration": 2.345833333333333
            },
            {
              "pitch": 71,
              "velocity": 86,
              "position": 1.6229166666666666,
              "duration": 2.345833333333333
            },
            {
              "pitch": 67,
              "velocity": 86,
              "position": 1.6229166666666666,
              "duration": 2.345833333333333
            }
          ]
        },
        "14": {
          "ctab": {
            "srcChannel": 14,
            "name": "Tele",
            "accType": "PHRASE1",
            "editable": false,
            "mutedNotes": [],
            "mutedChords": [
              "min",
              "Maj"
            ],
            "autoStart": false,
            "sourceChordNote": 0,
            "sourceChordType": "Maj7",
            "ctb2Low": null,
            "ctb2Main": {
              "ntr": "ROOT_TRANSPOSITION",
              "ntt": "MELODY",
              "bassOn": false,
              "chordRootUpperLimit": 4,
              "noteLowLimit": 0,
              "noteHighLimit": 127,
              "rtr": "PITCH_SHIFT"
            },
            "ctb2High": {
              "ntr": "ROOT_FIXED",
              "ntt": "BYPASS",
              "bassOn": false,
              "chordRootUpperLimit": 4,
              "noteLowLimit": 0,
              "noteHighLimit": 127,
              "rtr": "PITCH_SHIFT"
            },
            "ctb2MiddleLowPitch": 0,
            "ctb2MiddleHighPitch": 95
          },
          "notes": [
            {
              "pitch": 64,
              "velocity": 116,
              "position": 0,
              "duration": 0.30625
            },
            {
              "pitch": 64,
              "velocity": 36,
              "position": 0.3333333333333333,
              "duration": 0.30625
            },
            {
              "pitch": 71,
              "velocity": 36,
              "position": 0.3333333333333333,
              "duration": 0.30625
            },
            {
              "pitch": 64,
              "velocity": 22,
              "position": 0.6666666666666666,
              "duration": 0.30625
            },
            {
              "pitch": 71,
              "velocity": 22,
              "position": 0.6666666666666666,
              "duration": 0.30625
            },
            {
              "pitch": 71,
              "velocity": 36,
              "position": 1,
              "duration": 0.26458333333333334
            },
            {
              "pitch": 64,
              "velocity": 116,
              "position": 1,
              "duration": 0.30625
            },
            {
              "pitch": 126,
              "velocity": 60,
              "position": 1.2,
              "duration": 1.0145833333333334
            }
          ]
        },
        "15": {
          "ctab": {
            "srcChannel": 15,
            "name": "E.P",
            "accType": "PHRASE2",
            "editable": false,
            "mutedNotes": [],
            "mutedChords": [
              "min",
              "Maj"
            ],
            "autoStart": false,
            "sourceChordNote": 0,
            "sourceChordType": "Maj7",
            "ctb2Low": null,
            "ctb2Main": {
              "ntr": "ROOT_FIXED",
              "ntt": "CHORD",
              "bassOn": false,
              "chordRootUpperLimit": 7,
              "noteLowLimit": 0,
              "noteHighLimit": 127,
              "rtr": "PITCH_SHIFT"
            },
            "ctb2High": null,
            "ctb2MiddleLowPitch": 0,
            "ctb2MiddleHighPitch": 127
          },
          "notes": [
            {
              "pitch": 59,
              "velocity": 53,
              "position": 0,
              "duration": 0.5270833333333333
            },
            {
              "pitch": 67,
              "velocity": 48,
              "position": 0,
              "duration": 0.6395833333333333
            },
            {
              "pitch": 64,
              "velocity": 53,
              "position": 0,
              "duration": 0.6395833333333333
            },
            {
              "pitch": 59,
              "velocity": 55,
              "position": 0.5520833333333334,
              "duration": 0.30625
            },
            {
              "pitch": 67,
              "velocity": 76,
              "position": 0.6666666666666666,
              "duration": 0.30625
            },
            {
              "pitch": 64,
              "velocity": 79,
              "position": 0.6666666666666666,
              "duration": 0.30625
            },
            {
              "pitch": 59,
              "velocity": 59,
              "position": 0.8854166666666666,
              "duration": 0.42083333333333334
            },
            {
              "pitch": 64,
              "velocity": 95,
              "position": 1.0208333333333333,
              "duration": 0.28541666666666665
            },
            {
              "pitch": 67,
              "velocity": 107,
              "position": 1,
              "duration": 0.30625
            }
          ]
        }
      }
    }
  }
}